# https://github.com/mikedh/trimesh
v -0.11633493 0.22581410 -13.69595718 0.25098039 0.27450980 0.65882353
v -0.11621831 0.23288755 -13.70367241 0.25098039 0.27450980 0.65882353
v -0.11054374 0.22540349 -13.70253563 0.25098039 0.27450980 0.65882353
v -0.11012453 0.22045541 -13.69357014 0.25098039 0.27450980 0.65882353
v -0.10518835 0.23546377 -13.72000122 0.25098039 0.27450980 0.65882353
v -0.09690419 0.24236818 -13.72128677 0.25098039 0.27450980 0.65882353
v -0.09159090 0.22874649 -13.71639156 0.25098039 0.27450980 0.65882353
v -0.09925959 0.22387023 -13.71680927 0.25098039 0.27450980 0.65882353
v -0.10548728 0.21614349 -13.69033241 0.25098039 0.27450980 0.65882353
v -0.10590087 0.21849325 -13.70112705 0.25098039 0.27450980 0.65882353
v -0.10342514 0.21630520 -13.68740368 0.25098039 0.27450980 0.65882353
v -0.10535972 0.21770272 -13.67422009 0.25098039 0.27450980 0.65882353
v -0.10630570 0.21501288 -13.67956638 0.25098039 0.27450980 0.65882353
v -0.10813607 0.21516708 -13.66681004 0.25098039 0.27450980 0.65882353
v -0.10713132 0.22749114 -13.67146492 0.25098039 0.27450980 0.65882353
v -0.11450030 0.21938184 -13.66168213 0.25098039 0.27450980 0.65882353
v -0.13277300 0.23832074 -13.67345333 0.25098039 0.27450980 0.65882353
v -0.14403617 0.23920086 -13.67934704 0.25098039 0.27450980 0.65882353
v -0.14707541 0.22528782 -13.67023182 0.25098039 0.27450980 0.65882353
v -0.13477516 0.22533818 -13.66577530 0.25098039 0.27450980 0.65882353
v -0.15944269 0.22798964 -13.68467903 0.25098039 0.27450980 0.65882353
v -0.15261686 0.22581935 -13.67644596 0.25098039 0.27450980 0.65882353
v -0.15029225 0.24038911 -13.68439102 0.25098039 0.27450980 0.65882353
v -0.15636411 0.24147375 -13.69155598 0.25098039 0.27450980 0.65882353
v -0.12823799 0.23156199 -13.70301437 0.25098039 0.27450980 0.65882353
v -0.12777270 0.23920183 -13.70987034 0.25098039 0.27450980 0.65882353
v -0.12365338 0.23798323 -13.70646477 0.25098039 0.27450980 0.65882353
v -0.12390783 0.23054403 -13.70030975 0.25098039 0.27450980 0.65882353
v -0.09374754 0.21820432 -13.68933582 0.25098039 0.27450980 0.65882353
v -0.09657004 0.22919704 -13.68483257 0.25098039 0.27450980 0.65882353
v -0.10066162 0.22274593 -13.68359756 0.25098039 0.27450980 0.65882353
v -0.09633936 0.21416762 -13.69159603 0.25098039 0.27450980 0.65882353
v -0.13098675 0.25344157 -13.73348808 0.25098039 0.27450980 0.65882353
v -0.13071898 0.26594508 -13.73583603 0.25098039 0.27450980 0.65882353
v -0.12597555 0.26699710 -13.73319435 0.25098039 0.27450980 0.65882353
v -0.12754804 0.25558802 -13.73120022 0.25098039 0.27450980 0.65882353
v -0.10751225 0.26149064 -13.72500706 0.25098039 0.27450980 0.65882353
v -0.11124833 0.27081555 -13.72559452 0.25098039 0.27450980 0.65882353
v -0.10604977 0.28056729 -13.71927834 0.25098039 0.27450980 0.65882353
v -0.10179909 0.27196485 -13.71574116 0.25098039 0.27450980 0.65882353
v -0.10187536 0.25165978 -13.72340107 0.25098039 0.27450980 0.65882353
v -0.09600396 0.26041135 -13.71637535 0.25098039 0.27450980 0.65882353
v -0.09133464 0.24914669 -13.71509361 0.25098039 0.27450980 0.65882353
v -0.08701873 0.23415798 -13.71115494 0.25098039 0.27450980 0.65882353
v -0.14207220 0.26560411 -13.73985291 0.25098039 0.27450980 0.65882353
v -0.14356768 0.25613341 -13.73894310 0.25098039 0.27450980 0.65882353
v -0.10816334 0.17408663 -13.66904736 0.25098039 0.27450980 0.65882353
v -0.11250798 0.17339551 -13.67245388 0.25098039 0.27450980 0.65882353
v -0.11315706 0.17659274 -13.67198944 0.25098039 0.27450980 0.65882353
v -0.10879367 0.17664520 -13.66861820 0.25098039 0.27450980 0.65882353
v -0.15841010 0.26564696 -13.73059845 0.25098039 0.27450980 0.65882353
v -0.16166580 0.27010322 -13.72305012 0.25098039 0.27450980 0.65882353
v -0.16109687 0.27504843 -13.72803402 0.25098039 0.27450980 0.65882353
v -0.15644974 0.27143517 -13.73458481 0.25098039 0.27450980 0.65882353
v -0.16078554 0.25794610 -13.72534275 0.25098039 0.27450980 0.65882353
v -0.16174570 0.26299921 -13.71634483 0.25098039 0.27450980 0.65882353
v -0.10949864 0.16794571 -13.65852451 0.25098039 0.27450980 0.65882353
v -0.10641601 0.17018810 -13.66160393 0.25098039 0.27450980 0.65882353
v -0.10785169 0.17352016 -13.65910339 0.25098039 0.27450980 0.65882353
v -0.11149654 0.17198592 -13.65608406 0.25098039 0.27450980 0.65882353
v -0.10984997 0.21577466 -13.68505096 0.25098039 0.27450980 0.65882353
v -0.11628603 0.21848139 -13.69013500 0.25098039 0.27450980 0.65882353
v -0.11386002 0.20392072 -13.67530060 0.25098039 0.27450980 0.65882353
v -0.11581699 0.20943792 -13.68057251 0.25098039 0.27450980 0.65882353
v -0.11026647 0.21129806 -13.67760754 0.25098039 0.27450980 0.65882353
v -0.10967468 0.20699239 -13.67250156 0.25098039 0.27450980 0.65882353
v -0.13429862 0.21364109 -13.69202709 0.25098039 0.27450980 0.65882353
v -0.13268858 0.22315665 -13.69791889 0.25098039 0.27450980 0.65882353
v -0.12775800 0.22182007 -13.69430161 0.25098039 0.27450980 0.65882353
v -0.12788588 0.21127416 -13.68760300 0.25098039 0.27450980 0.65882353
v -0.14269012 0.22241440 -13.70674610 0.25098039 0.27450980 0.65882353
v -0.14359853 0.21340370 -13.69982529 0.25098039 0.27450980 0.65882353
v -0.14920543 0.21417595 -13.70550251 0.25098039 0.27450980 0.65882353
v -0.14709096 0.21992867 -13.71014977 0.25098039 0.27450980 0.65882353
v -0.14337757 0.19961366 -13.68579960 0.25098039 0.27450980 0.65882353
v -0.14361134 0.19517192 -13.68189144 0.25098039 0.27450980 0.65882353
v -0.14560288 0.19440126 -13.68337440 0.25098039 0.27450980 0.65882353
v -0.14583158 0.20002836 -13.68793869 0.25098039 0.27450980 0.65882353
v -0.16052237 0.28062499 -13.73208809 0.25098039 0.27450980 0.65882353
v -0.15393960 0.27726474 -13.73768330 0.25098039 0.27450980 0.65882353
v -0.17147775 0.22811258 -13.70096397 0.25098039 0.27450980 0.65882353
v -0.17160027 0.22835207 -13.71118546 0.25098039 0.27450980 0.65882353
v -0.17522113 0.21671085 -13.70689011 0.25098039 0.27450980 0.65882353
v -0.17467940 0.21963866 -13.69636631 0.25098039 0.27450980 0.65882353
v -0.15922652 0.27308589 -13.71434879 0.25098039 0.27450980 0.65882353
v -0.16087759 0.27846882 -13.71948719 0.25098039 0.27450980 0.65882353
v -0.11513602 0.16594058 -13.65805244 0.25098039 0.27450980 0.65882353
v -0.11708659 0.16991642 -13.65591431 0.25098039 0.27450980 0.65882353
v -0.09195623 0.25670010 -13.70412540 0.25098039 0.27450980 0.65882353
v -0.08589242 0.23856835 -13.70300770 0.25098039 0.27450980 0.65882353
v -0.09878913 0.27007228 -13.70585155 0.25098039 0.27450980 0.65882353
v -0.10520888 0.27877605 -13.70749283 0.25098039 0.27450980 0.65882353
v -0.10823943 0.28671569 -13.71026993 0.25098039 0.27450980 0.65882353
v -0.12123229 0.20611659 -13.68079090 0.25098039 0.27450980 0.65882353
v -0.12239707 0.22334421 -13.69439507 0.25098039 0.27450980 0.65882353
v -0.13210666 0.23179702 -13.70597458 0.25098039 0.27450980 0.65882353
v -0.15395778 0.22569804 -13.72383785 0.25098039 0.27450980 0.65882353
v -0.15168881 0.23361100 -13.72951603 0.25098039 0.27450980 0.65882353
v -0.14425060 0.23108736 -13.72334576 0.25098039 0.27450980 0.65882353
v -0.14810884 0.22501096 -13.71922493 0.25098039 0.27450980 0.65882353
v -0.16830009 0.22374962 -13.71860886 0.25098039 0.27450980 0.65882353
v -0.16224220 0.21967073 -13.71975040 0.25098039 0.27450980 0.65882353
v -0.16434854 0.21295416 -13.71537018 0.25098039 0.27450980 0.65882353
v -0.17084862 0.21501653 -13.71394634 0.25098039 0.27450980 0.65882353
v -0.08749020 0.22170185 -13.68959713 0.25098039 0.27450980 0.65882353
v -0.09248902 0.23461178 -13.68715668 0.25098039 0.27450980 0.65882353
v -0.15208575 0.26132366 -13.73683357 0.25098039 0.27450980 0.65882353
v -0.14889979 0.26769662 -13.73896122 0.25098039 0.27450980 0.65882353
v -0.14769211 0.27543604 -13.74105072 0.25098039 0.27450980 0.65882353
v -0.12815583 0.24653152 -13.72161674 0.25098039 0.27450980 0.65882353
v -0.12499537 0.25704592 -13.72969627 0.25098039 0.27450980 0.65882353
v -0.12137888 0.25672826 -13.72756672 0.25098039 0.27450980 0.65882353
v -0.12621707 0.24698229 -13.71893787 0.25098039 0.27450980 0.65882353
v -0.11592645 0.23875335 -13.71369457 0.25098039 0.27450980 0.65882353
v -0.11181731 0.24651778 -13.72244072 0.25098039 0.27450980 0.65882353
v -0.11063797 0.22898152 -13.71284676 0.25098039 0.27450980 0.65882353
v -0.11934110 0.26973599 -13.73040676 0.25098039 0.27450980 0.65882353
v -0.12451843 0.27589646 -13.73698711 0.25098039 0.27450980 0.65882353
v -0.11770956 0.27822664 -13.73265648 0.25098039 0.27450980 0.65882353
v -0.13312332 0.27502197 -13.74030685 0.25098039 0.27450980 0.65882353
v -0.14128911 0.27466422 -13.74232197 0.25098039 0.27450980 0.65882353
v -0.16306907 0.28595734 -13.72258568 0.25098039 0.27450980 0.65882353
v -0.11241248 0.28023380 -13.72716618 0.25098039 0.27450980 0.65882353
v -0.09492981 0.21698090 -13.71284389 0.25098039 0.27450980 0.65882353
v -0.09039433 0.21146946 -13.70935249 0.25098039 0.27450980 0.65882353
v -0.09590176 0.20962694 -13.70486546 0.25098039 0.27450980 0.65882353
v -0.10053538 0.21437074 -13.70779896 0.25098039 0.27450980 0.65882353
v -0.11053822 0.20946944 -13.66096306 0.25098039 0.27450980 0.65882353
v -0.10813829 0.20763958 -13.66739655 0.25098039 0.27450980 0.65882353
v -0.10655775 0.21351808 -13.67289639 0.25098039 0.27450980 0.65882353
v -0.13642903 0.24426958 -13.73092842 0.25098039 0.27450980 0.65882353
v -0.14672500 0.24682666 -13.73574734 0.25098039 0.27450980 0.65882353
v -0.11918904 0.20050722 -13.67532444 0.25098039 0.27450980 0.65882353
v -0.11298661 0.17676152 -13.65471745 0.25098039 0.27450980 0.65882353
v -0.10876629 0.17821091 -13.65809917 0.25098039 0.27450980 0.65882353
v -0.11030766 0.19597279 -13.65867043 0.25098039 0.27450980 0.65882353
v -0.11507805 0.19467255 -13.65451527 0.25098039 0.27450980 0.65882353
v -0.12513864 0.19471654 -13.67001343 0.25098039 0.27450980 0.65882353
v -0.11998011 0.19700113 -13.67360115 0.25098039 0.27450980 0.65882353
v -0.12067225 0.19490668 -13.67252731 0.25098039 0.27450980 0.65882353
v -0.12547246 0.19149072 -13.67089367 0.25098039 0.27450980 0.65882353
v -0.15065293 0.19667596 -13.69013977 0.25098039 0.27450980 0.65882353
v -0.15087304 0.20166019 -13.69416523 0.25098039 0.27450980 0.65882353
v -0.13603580 0.21079183 -13.66084671 0.25098039 0.27450980 0.65882353
v -0.12575695 0.21488824 -13.65452480 0.25098039 0.27450980 0.65882353
v -0.12414908 0.22457311 -13.66158581 0.25098039 0.27450980 0.65882353
v -0.13961071 0.21439746 -13.69653511 0.25098039 0.27450980 0.65882353
v -0.14180626 0.20595831 -13.69146061 0.25098039 0.27450980 0.65882353
v -0.14481902 0.20609900 -13.69379711 0.25098039 0.27450980 0.65882353
v -0.12468220 0.20328486 -13.67965031 0.25098039 0.27450980 0.65882353
v -0.12460772 0.19859880 -13.67485714 0.25098039 0.27450980 0.65882353
v -0.12830865 0.20012757 -13.67709351 0.25098039 0.27450980 0.65882353
v -0.12869468 0.20444453 -13.68241405 0.25098039 0.27450980 0.65882353
v -0.16845904 0.23966540 -13.71608353 0.25098039 0.27450980 0.65882353
v -0.16515157 0.23406780 -13.72477818 0.25098039 0.27450980 0.65882353
v -0.10594432 0.17267287 -13.66529942 0.25098039 0.27450980 0.65882353
v -0.10686401 0.17547689 -13.66388416 0.25098039 0.27450980 0.65882353
v -0.13788134 0.22359724 -13.70232868 0.25098039 0.27450980 0.65882353
v -0.12251601 0.23570791 -13.67052937 0.25098039 0.27450980 0.65882353
v -0.13616051 0.23184922 -13.70931435 0.25098039 0.27450980 0.65882353
v -0.16570333 0.20730129 -13.68622875 0.25098039 0.27450980 0.65882353
v -0.16431493 0.20269217 -13.69225502 0.25098039 0.27450980 0.65882353
v -0.16234542 0.19736631 -13.69079685 0.25098039 0.27450980 0.65882353
v -0.16405265 0.19870587 -13.68560505 0.25098039 0.27450980 0.65882353
v -0.12427099 0.17753415 -13.66969490 0.25098039 0.27450980 0.65882353
v -0.11979739 0.17812762 -13.67260647 0.25098039 0.27450980 0.65882353
v -0.11877710 0.17529267 -13.67265892 0.25098039 0.27450980 0.65882353
v -0.12319973 0.17329651 -13.66986370 0.25098039 0.27450980 0.65882353
v -0.11485786 0.19919530 -13.67337704 0.25098039 0.27450980 0.65882353
v -0.11018304 0.20153466 -13.67055798 0.25098039 0.27450980 0.65882353
v -0.11094488 0.19620180 -13.66996288 0.25098039 0.27450980 0.65882353
v -0.11590225 0.19512028 -13.67205334 0.25098039 0.27450980 0.65882353
v -0.10886888 0.20215459 -13.66501999 0.25098039 0.27450980 0.65882353
v -0.10902036 0.19674966 -13.66435242 0.25098039 0.27450980 0.65882353
v -0.12643772 0.17623112 -13.66417027 0.25098039 0.27450980 0.65882353
v -0.12403908 0.17508699 -13.65759277 0.25098039 0.27450980 0.65882353
v -0.12717962 0.19168991 -13.65781498 0.25098039 0.27450980 0.65882353
v -0.12804803 0.18934840 -13.66459465 0.25098039 0.27450980 0.65882353
v -0.15440941 0.25483191 -13.69708920 0.25098039 0.27450980 0.65882353
v -0.16100791 0.25368682 -13.70503712 0.25098039 0.27450980 0.65882353
v -0.16324738 0.24033271 -13.69967651 0.25098039 0.27450980 0.65882353
v -0.16677307 0.22753491 -13.69375134 0.25098039 0.27450980 0.65882353
v -0.16878550 0.21505961 -13.68830872 0.25098039 0.27450980 0.65882353
v -0.16323160 0.21670854 -13.67844963 0.25098039 0.27450980 0.65882353
v -0.16733524 0.24066541 -13.70592690 0.25098039 0.27450980 0.65882353
v -0.13171226 0.19945541 -13.66599274 0.25098039 0.27450980 0.65882353
v -0.12991071 0.20304847 -13.65895557 0.25098039 0.27450980 0.65882353
v -0.13452344 0.20365335 -13.66231060 0.25098039 0.27450980 0.65882353
v -0.14082374 0.23033437 -13.71431637 0.25098039 0.27450980 0.65882353
v -0.10736474 0.17940640 -13.66298485 0.25098039 0.27450980 0.65882353
v -0.12438929 0.28395241 -13.69785500 0.25098039 0.27450980 0.65882353
v -0.13685451 0.28369200 -13.69989681 0.25098039 0.27450980 0.65882353
v -0.13505170 0.27642143 -13.69555092 0.25098039 0.27450980 0.65882353
v -0.12075035 0.27610657 -13.69369125 0.25098039 0.27450980 0.65882353
v -0.11356122 0.17908275 -13.67225266 0.25098039 0.27450980 0.65882353
v -0.10877916 0.17989489 -13.66882515 0.25098039 0.27450980 0.65882353
v -0.15544933 0.20036963 -13.69799137 0.25098039 0.27450980 0.65882353
v -0.15482758 0.19601285 -13.69361019 0.25098039 0.27450980 0.65882353
v -0.15769440 0.19519207 -13.69375038 0.25098039 0.27450980 0.65882353
v -0.15894997 0.19733493 -13.69974136 0.25098039 0.27450980 0.65882353
v -0.16355538 0.25402066 -13.70973587 0.25098039 0.27450980 0.65882353
v -0.17474547 0.20772919 -13.70682907 0.25098039 0.27450980 0.65882353
v -0.17502467 0.21105270 -13.69672775 0.25098039 0.27450980 0.65882353
v -0.15891275 0.26534885 -13.70938015 0.25098039 0.27450980 0.65882353
v -0.15360156 0.26678169 -13.70209789 0.25098039 0.27450980 0.65882353
v -0.15333408 0.27526802 -13.70630074 0.25098039 0.27450980 0.65882353
v -0.15356761 0.21038985 -13.67012978 0.25098039 0.27450980 0.65882353
v -0.14930442 0.25357085 -13.69097137 0.25098039 0.27450980 0.65882353
v -0.14857006 0.26604909 -13.69716835 0.25098039 0.27450980 0.65882353
v -0.14807230 0.27609590 -13.70199108 0.25098039 0.27450980 0.65882353
v -0.14847156 0.28353259 -13.70537281 0.25098039 0.27450980 0.65882353
v -0.15417030 0.28179580 -13.70996761 0.25098039 0.27450980 0.65882353
v -0.11884541 0.17537983 -13.65507698 0.25098039 0.27450980 0.65882353
v -0.12304813 0.16889840 -13.65876770 0.25098039 0.27450980 0.65882353
v -0.15642044 0.28999275 -13.71298027 0.25098039 0.27450980 0.65882353
v -0.14929698 0.29143322 -13.70825481 0.25098039 0.27450980 0.65882353
v -0.14133477 0.26543915 -13.69243813 0.25098039 0.27450980 0.65882353
v -0.13184361 0.26433426 -13.68723965 0.25098039 0.27450980 0.65882353
v -0.14258355 0.25338623 -13.68670273 0.25098039 0.27450980 0.65882353
v -0.13342319 0.25129977 -13.68114567 0.25098039 0.27450980 0.65882353
v -0.14841856 0.21484916 -13.66211891 0.25098039 0.27450980 0.65882353
v -0.11862195 0.15743399 -13.67076969 0.25098039 0.27450980 0.65882353
v -0.12303362 0.16583155 -13.66641235 0.25098039 0.27450980 0.65882353
v -0.12176122 0.16897812 -13.67082787 0.25098039 0.27450980 0.65882353
v -0.11892178 0.15939158 -13.67428398 0.25098039 0.27450980 0.65882353
v -0.12509993 0.17093486 -13.66500282 0.25098039 0.27450980 0.65882353
v -0.12090547 0.16502947 -13.66135883 0.25098039 0.27450980 0.65882353
v -0.11997119 0.24830356 -13.67839336 0.25098039 0.27450980 0.65882353
v -0.12886710 0.19640917 -13.67266560 0.25098039 0.27450980 0.65882353
v -0.11489263 0.26151037 -13.68660259 0.25098039 0.27450980 0.65882353
v -0.10557264 0.23945360 -13.67652225 0.25098039 0.27450980 0.65882353
v -0.10112482 0.24805602 -13.68472195 0.25098039 0.27450980 0.65882353
v -0.10822380 0.27415830 -13.69629955 0.25098039 0.27450980 0.65882353
v -0.09808850 0.26068863 -13.69342518 0.25098039 0.27450980 0.65882353
v -0.11573760 0.28935274 -13.70379734 0.25098039 0.27450980 0.65882353
v -0.11350112 0.28177285 -13.69968891 0.25098039 0.27450980 0.65882353
v -0.09070329 0.24605319 -13.69381046 0.25098039 0.27450980 0.65882353
v -0.10727300 0.16616243 -13.67498302 0.25098039 0.27450980 0.65882353
v -0.11207680 0.16577679 -13.67731094 0.25098039 0.27450980 0.65882353
v -0.12590887 0.29130298 -13.70136452 0.25098039 0.27450980 0.65882353
v -0.10518970 0.22041693 -13.71020412 0.25098039 0.27450980 0.65882353
v -0.13663018 0.23778778 -13.72027016 0.25098039 0.27450980 0.65882353
v -0.13349527 0.23876716 -13.71602440 0.25098039 0.27450980 0.65882353
v -0.14976691 0.23866467 -13.73226357 0.25098039 0.27450980 0.65882353
v -0.14065552 0.23688364 -13.72659683 0.25098039 0.27450980 0.65882353
v -0.10438655 0.16491739 -13.67098236 0.25098039 0.27450980 0.65882353
v -0.14577921 0.19278677 -13.67891502 0.25098039 0.27450980 0.65882353
v -0.14643258 0.19453725 -13.67913151 0.25098039 0.27450980 0.65882353
v -0.08831777 0.22130802 -13.71294403 0.25098039 0.27450980 0.65882353
v -0.08480996 0.21609381 -13.71007061 0.25098039 0.27450980 0.65882353
v -0.07950100 0.22088392 -13.69976521 0.25098039 0.27450980 0.65882353
v -0.08043915 0.21880589 -13.70624733 0.25098039 0.27450980 0.65882353
v -0.08354445 0.22621986 -13.70817852 0.25098039 0.27450980 0.65882353
v -0.08243226 0.22900540 -13.70161629 0.25098039 0.27450980 0.65882353
v -0.12988003 0.24566200 -13.72360802 0.25098039 0.27450980 0.65882353
v -0.13255626 0.24459785 -13.72601700 0.25098039 0.27450980 0.65882353
v -0.16452146 0.24928811 -13.72131252 0.25098039 0.27450980 0.65882353
v -0.16106704 0.24304263 -13.72939968 0.25098039 0.27450980 0.65882353
v -0.11131287 0.20308721 -13.65941906 0.25098039 0.27450980 0.65882353
v -0.11669838 0.21105498 -13.65606213 0.25098039 0.27450980 0.65882353
v -0.11659511 0.20333087 -13.65546417 0.25098039 0.27450980 0.65882353
v -0.12171774 0.19501954 -13.65414429 0.25098039 0.27450980 0.65882353
v -0.12993154 0.19551434 -13.66903400 0.25098039 0.27450980 0.65882353
v -0.12844056 0.19607234 -13.66562557 0.25098039 0.27450980 0.65882353
v -0.11694109 0.25189707 -13.72480965 0.25098039 0.27450980 0.65882353
v -0.12181120 0.24476014 -13.71551991 0.25098039 0.27450980 0.65882353
v -0.10227954 0.21430647 -13.69996357 0.25098039 0.27450980 0.65882353
v -0.09829552 0.21045288 -13.69810104 0.25098039 0.27450980 0.65882353
v -0.13445777 0.20646304 -13.68701172 0.25098039 0.27450980 0.65882353
v -0.15005468 0.19951937 -13.66873455 0.25098039 0.27450980 0.65882353
v -0.14570425 0.20357205 -13.66237926 0.25098039 0.27450980 0.65882353
v -0.13544089 0.20028430 -13.68120384 0.25098039 0.27450980 0.65882353
v -0.10634866 0.15960252 -13.66536713 0.25098039 0.27450980 0.65882353
v -0.10412321 0.16262771 -13.66817665 0.25098039 0.27450980 0.65882353
v -0.12332322 0.20403785 -13.65458488 0.25098039 0.27450980 0.65882353
v -0.15017177 0.20640922 -13.69964409 0.25098039 0.27450980 0.65882353
v -0.15387800 0.20267406 -13.67299938 0.25098039 0.27450980 0.65882353
v -0.14968917 0.19468197 -13.67405510 0.25098039 0.27450980 0.65882353
v -0.17058021 0.20948836 -13.71250248 0.25098039 0.27450980 0.65882353
v -0.13745904 0.29149878 -13.70376015 0.25098039 0.27450980 0.65882353
v -0.11802137 0.17142341 -13.67377186 0.25098039 0.27450980 0.65882353
v -0.11642231 0.16409659 -13.67745876 0.25098039 0.27450980 0.65882353
v -0.11677340 0.15701745 -13.66713905 0.25098039 0.27450980 0.65882353
v -0.11189166 0.15805261 -13.66412544 0.25098039 0.27450980 0.65882353
v -0.15580943 0.25126994 -13.73300743 0.25098039 0.27450980 0.65882353
v -0.13126943 0.23894125 -13.71308899 0.25098039 0.27450980 0.65882353
v -0.08657368 0.23380621 -13.69435787 0.25098039 0.27450980 0.65882353
v -0.08256295 0.22258687 -13.69364452 0.25098039 0.27450980 0.65882353
v -0.13603371 0.19707341 -13.67789459 0.25098039 0.27450980 0.65882353
v -0.16925660 0.20764932 -13.69216824 0.25098039 0.27450980 0.65882353
v -0.16303734 0.20694618 -13.67788315 0.25098039 0.27450980 0.65882353
v -0.16218624 0.19753912 -13.67755985 0.25098039 0.27450980 0.65882353
v -0.15652344 0.19525322 -13.67414474 0.25098039 0.27450980 0.65882353
v -0.15018523 0.19279978 -13.67534447 0.25098039 0.27450980 0.65882353
v -0.11502933 0.15304515 -13.67072296 0.25098039 0.27450980 0.65882353
v -0.11030071 0.15394703 -13.66764450 0.25098039 0.27450980 0.65882353
v -0.10476011 0.15567198 -13.66859627 0.25098039 0.27450980 0.65882353
v -0.10269892 0.15885334 -13.67084312 0.25098039 0.27450980 0.65882353
v -0.10359715 0.16217211 -13.67342186 0.25098039 0.27450980 0.65882353
v -0.11690670 0.15352252 -13.67451572 0.25098039 0.27450980 0.65882353
v -0.11695653 0.15559614 -13.67761517 0.25098039 0.27450980 0.65882353
v -0.11542843 0.16117734 -13.67931843 0.25098039 0.27450980 0.65882353
v -0.11516158 0.15110962 -13.67854023 0.25098039 0.27450980 0.65882353
v -0.11170677 0.14771545 -13.67671013 0.25098039 0.27450980 0.65882353
v -0.09883174 0.14955384 -13.67968941 0.25098039 0.27450980 0.65882353
v -0.10168105 0.15047975 -13.67474079 0.25098039 0.27450980 0.65882353
v -0.10215746 0.14831984 -13.67648697 0.25098039 0.27450980 0.65882353
v -0.10021049 0.14683416 -13.68071556 0.25098039 0.27450980 0.65882353
v -0.09923349 0.14420754 -13.68499565 0.25098039 0.27450980 0.65882353
v -0.09719688 0.14700964 -13.68442726 0.25098039 0.27450980 0.65882353
v -0.10645400 0.14792044 -13.67518997 0.25098039 0.27450980 0.65882353
v -0.10439444 0.14535150 -13.68098927 0.25098039 0.27450980 0.65882353
v -0.10816980 0.14516477 -13.68245029 0.25098039 0.27450980 0.65882353
v -0.10607433 0.14254449 -13.68680763 0.25098039 0.27450980 0.65882353
v -0.10272019 0.14241789 -13.68553162 0.25098039 0.27450980 0.65882353
v -0.10931688 0.14659657 -13.67826366 0.25098039 0.27450980 0.65882353
v -0.10735097 0.14888932 -13.67302418 0.25098039 0.27450980 0.65882353
v -0.09776288 0.14444931 -13.68823719 0.25098039 0.27450980 0.65882353
v -0.09907901 0.14250392 -13.68738461 0.25098039 0.27450980 0.65882353
v -0.10191072 0.14136589 -13.68833256 0.25098039 0.27450980 0.65882353
v -0.10094239 0.14196444 -13.69111347 0.25098039 0.27450980 0.65882353
v -0.10086305 0.15615979 -13.67425442 0.25098039 0.27450980 0.65882353
v -0.09812105 0.15187651 -13.68056583 0.25098039 0.27450980 0.65882353
v -0.09774870 0.14956373 -13.68608379 0.25098039 0.27450980 0.65882353
v -0.09830125 0.14677046 -13.68970013 0.25098039 0.27450980 0.65882353
v -0.09950434 0.15400350 -13.68366146 0.25098039 0.27450980 0.65882353
v -0.09938303 0.15131938 -13.68763733 0.25098039 0.27450980 0.65882353
v -0.10030922 0.14906862 -13.69082737 0.25098039 0.27450980 0.65882353
v -0.10228071 0.15518577 -13.68647385 0.25098039 0.27450980 0.65882353
v -0.10180476 0.15220639 -13.68932056 0.25098039 0.27450980 0.65882353
v -0.10535157 0.16175789 -13.67807388 0.25098039 0.27450980 0.65882353
v -0.10257583 0.16049571 -13.67532349 0.25098039 0.27450980 0.65882353
v -0.10158267 0.15061924 -13.69142342 0.25098039 0.27450980 0.65882353
v -0.10155383 0.14365765 -13.69247627 0.25098039 0.27450980 0.65882353
v -0.11135954 0.14677969 -13.68281460 0.25098039 0.27450980 0.65882353
v -0.10805124 0.14430530 -13.68841171 0.25098039 0.27450980 0.65882353
v -0.11242525 0.14843982 -13.68414593 0.25098039 0.27450980 0.65882353
v -0.10946725 0.14566055 -13.68966389 0.25098039 0.27450980 0.65882353
v -0.10564096 0.14189614 -13.69137001 0.25098039 0.27450980 0.65882353
v -0.10457540 0.14155069 -13.68914127 0.25098039 0.27450980 0.65882353
v -0.10705251 0.16420475 -13.67626190 0.25098039 0.27450980 0.65882353
v -0.11206537 0.16362420 -13.67870331 0.25098039 0.27450980 0.65882353
v -0.11076346 0.16160005 -13.68047333 0.25098039 0.27450980 0.65882353
v -0.10648839 0.15518290 -13.68833447 0.25098039 0.27450980 0.65882353
v -0.11401030 0.15914798 -13.68152714 0.25098039 0.27450980 0.65882353
v -0.11514516 0.15356374 -13.68138313 0.25098039 0.27450980 0.65882353
v -0.11218457 0.15019895 -13.68650246 0.25098039 0.27450980 0.65882353
v -0.11075757 0.15274282 -13.68808270 0.25098039 0.27450980 0.65882353
v -0.10941763 0.14804846 -13.69051266 0.25098039 0.27450980 0.65882353
v -0.10814079 0.15012845 -13.69082451 0.25098039 0.27450980 0.65882353
v -0.10491383 0.15198953 -13.69095135 0.25098039 0.27450980 0.65882353
v -0.10636306 0.14667897 -13.69281960 0.25098039 0.27450980 0.65882353
v -0.10627176 0.14381433 -13.69233799 0.25098039 0.27450980 0.65882353
v -0.10268478 0.14680743 -13.69283581 0.25098039 0.27450980 0.65882353
v -0.10638629 0.14860071 -13.69253349 0.25098039 0.27450980 0.65882353
v -0.10356540 0.14918301 -13.69210529 0.25098039 0.27450980 0.65882353
v -0.12946072 0.16950610 -13.67644215 0.25098039 0.27450980 0.65882353
v -0.13385613 0.16960526 -13.68057632 0.25098039 0.27450980 0.65882353
v -0.13513395 0.17138088 -13.67766953 0.25098039 0.27450980 0.65882353
v -0.13140626 0.17149997 -13.67429638 0.25098039 0.27450980 0.65882353
v -0.13286361 0.16055816 -13.66678238 0.25098039 0.27450980 0.65882353
v -0.12899846 0.16427620 -13.66979122 0.25098039 0.27450980 0.65882353
v -0.13140960 0.16688512 -13.66559696 0.25098039 0.27450980 0.65882353
v -0.13653693 0.16357690 -13.66262436 0.25098039 0.27450980 0.65882353
v -0.13978422 0.15870823 -13.66768742 0.25098039 0.27450980 0.65882353
v -0.14327124 0.16236684 -13.66393757 0.25098039 0.27450980 0.65882353
v -0.13780454 0.16942695 -13.66072178 0.25098039 0.27450980 0.65882353
v -0.13254435 0.17194471 -13.66428375 0.25098039 0.27450980 0.65882353
v -0.13339514 0.19232133 -13.66492844 0.25098039 0.27450980 0.65882353
v -0.13848099 0.19188753 -13.66114902 0.25098039 0.27450980 0.65882353
v -0.14085329 0.19066298 -13.67966366 0.25098039 0.27450980 0.65882353
v -0.14396095 0.18950301 -13.67846775 0.25098039 0.27450980 0.65882353
v -0.12837467 0.16759041 -13.67337227 0.25098039 0.27450980 0.65882353
v -0.13033797 0.16982211 -13.67015076 0.25098039 0.27450980 0.65882353
v -0.14364144 0.17221801 -13.67914391 0.25098039 0.27450980 0.65882353
v -0.13871394 0.17338842 -13.67988968 0.25098039 0.27450980 0.65882353
v -0.13893545 0.17094138 -13.68017960 0.25098039 0.27450980 0.65882353
v -0.14353135 0.16847175 -13.67949009 0.25098039 0.27450980 0.65882353
v -0.13194585 0.19269592 -13.67245388 0.25098039 0.27450980 0.65882353
v -0.13637508 0.19217460 -13.67628860 0.25098039 0.27450980 0.65882353
v -0.13176596 0.19248804 -13.66895294 0.25098039 0.27450980 0.65882353
v -0.14806078 0.17004217 -13.67500496 0.25098039 0.27450980 0.65882353
v -0.14931534 0.16846672 -13.66879940 0.25098039 0.27450980 0.65882353
v -0.15024787 0.18894172 -13.66730785 0.25098039 0.27450980 0.65882353
v -0.14972173 0.18779807 -13.67310238 0.25098039 0.27450980 0.65882353
v -0.13061062 0.17339365 -13.66876602 0.25098039 0.27450980 0.65882353
v -0.13384341 0.17352822 -13.67757893 0.25098039 0.27450980 0.65882353
v -0.13076937 0.17415255 -13.67395782 0.25098039 0.27450980 0.65882353
v -0.14462361 0.16936482 -13.66276455 0.25098039 0.27450980 0.65882353
v -0.14748675 0.16219477 -13.67091274 0.25098039 0.27450980 0.65882353
v -0.13749853 0.15515664 -13.68694878 0.25098039 0.27450980 0.65882353
v -0.14371333 0.16158241 -13.68002510 0.25098039 0.27450980 0.65882353
v -0.14152449 0.16519640 -13.68254852 0.25098039 0.27450980 0.65882353
v -0.13631564 0.15858001 -13.69002151 0.25098039 0.27450980 0.65882353
v -0.14665774 0.16513979 -13.67652798 0.25098039 0.27450980 0.65882353
v -0.14358599 0.15906557 -13.67485905 0.25098039 0.27450980 0.65882353
v -0.12441412 0.16319145 -13.68684006 0.25098039 0.27450980 0.65882353
v -0.12913378 0.16350453 -13.69055748 0.25098039 0.27450980 0.65882353
v -0.12252732 0.16099308 -13.68372440 0.25098039 0.27450980 0.65882353
v -0.14531490 0.19117945 -13.66202545 0.25098039 0.27450980 0.65882353
v -0.12662271 0.15462992 -13.67735767 0.25098039 0.27450980 0.65882353
v -0.12299004 0.15856165 -13.68057823 0.25098039 0.27450980 0.65882353
v -0.13814093 0.16870537 -13.68288326 0.25098039 0.27450980 0.65882353
v -0.13331255 0.16170093 -13.69178104 0.25098039 0.27450980 0.65882353
v -0.13668405 0.15300874 -13.68334961 0.25098039 0.27450980 0.65882353
v -0.13281409 0.15297794 -13.67759705 0.25098039 0.27450980 0.65882353
v -0.13312343 0.15021074 -13.68730259 0.25098039 0.27450980 0.65882353
v -0.12901010 0.14987442 -13.68303013 0.25098039 0.27450980 0.65882353
v -0.12319529 0.15209973 -13.68231773 0.25098039 0.27450980 0.65882353
v -0.12085371 0.15669414 -13.68425560 0.25098039 0.27450980 0.65882353
v -0.12132852 0.15972528 -13.68634224 0.25098039 0.27450980 0.65882353
v -0.13430920 0.15236834 -13.69068432 0.25098039 0.27450980 0.65882353
v -0.13384846 0.15605986 -13.69329929 0.25098039 0.27450980 0.65882353
v -0.13165042 0.16038001 -13.69325066 0.25098039 0.27450980 0.65882353
v -0.13062857 0.15211952 -13.69666767 0.25098039 0.27450980 0.65882353
v -0.12846799 0.14880808 -13.69476795 0.25098039 0.27450980 0.65882353
v -0.11186047 0.15319309 -13.69963646 0.25098039 0.27450980 0.65882353
v -0.11484502 0.15262349 -13.69460011 0.25098039 0.27450980 0.65882353
v -0.11598588 0.15068425 -13.69576931 0.25098039 0.27450980 0.65882353
v -0.11339521 0.15112323 -13.70044613 0.25098039 0.27450980 0.65882353
v -0.11829424 0.15043321 -13.69005299 0.25098039 0.27450980 0.65882353
v -0.11873542 0.14950730 -13.69232273 0.25098039 0.27450980 0.65882353
v -0.12292098 0.14819038 -13.69309998 0.25098039 0.27450980 0.65882353
v -0.11964161 0.14937247 -13.69812584 0.25098039 0.27450980 0.65882353
v -0.12385021 0.14964274 -13.69997787 0.25098039 0.27450980 0.65882353
v -0.12084011 0.14953621 -13.70473480 0.25098039 0.27450980 0.65882353
v -0.11665556 0.14893650 -13.70309830 0.25098039 0.27450980 0.65882353
v -0.12519133 0.14846060 -13.69600868 0.25098039 0.27450980 0.65882353
v -0.11242460 0.15103102 -13.70386219 0.25098039 0.27450980 0.65882353
v -0.11124968 0.15282844 -13.70509911 0.25098039 0.27450980 0.65882353
v -0.12430668 0.14749600 -13.69022751 0.25098039 0.27450980 0.65882353
v -0.11857528 0.15539104 -13.68727112 0.25098039 0.27450980 0.65882353
v -0.11422546 0.15548922 -13.69472122 0.25098039 0.27450980 0.65882353
v -0.11168988 0.15610293 -13.70062065 0.25098039 0.27450980 0.65882353
v -0.11216719 0.15519404 -13.70654583 0.25098039 0.27450980 0.65882353
v -0.11526772 0.15879551 -13.69667149 0.25098039 0.27450980 0.65882353
v -0.11315916 0.15837479 -13.70211792 0.25098039 0.27450980 0.65882353
v -0.11393162 0.15711415 -13.70676327 0.25098039 0.27450980 0.65882353
v -0.11795218 0.16140980 -13.69914436 0.25098039 0.27450980 0.65882353
v -0.11606494 0.16016619 -13.70425415 0.25098039 0.27450980 0.65882353
v -0.12289719 0.16199386 -13.69036007 0.25098039 0.27450980 0.65882353
v -0.11978774 0.15961736 -13.68821716 0.25098039 0.27450980 0.65882353
v -0.11553109 0.15872850 -13.70630741 0.25098039 0.27450980 0.65882353
v -0.11397581 0.15074357 -13.70821571 0.25098039 0.27450980 0.65882353
v -0.11454041 0.15371302 -13.70941734 0.25098039 0.27450980 0.65882353
v -0.11453505 0.14989418 -13.70673180 0.25098039 0.27450980 0.65882353
v -0.12552650 0.15044227 -13.70078754 0.25098039 0.27450980 0.65882353
v -0.12181335 0.15099066 -13.70594978 0.25098039 0.27450980 0.65882353
v -0.12669712 0.15251490 -13.70219612 0.25098039 0.27450980 0.65882353
v -0.12232211 0.15275988 -13.70740128 0.25098039 0.27450980 0.65882353
v -0.11838685 0.15084708 -13.70909882 0.25098039 0.27450980 0.65882353
v -0.11768661 0.14989503 -13.70796776 0.25098039 0.27450980 0.65882353
v -0.12399370 0.16171555 -13.68866634 0.25098039 0.27450980 0.65882353
v -0.12842099 0.16207664 -13.69164085 0.25098039 0.27450980 0.65882353
v -0.12750749 0.16237977 -13.69302368 0.25098039 0.27450980 0.65882353
v -0.12231708 0.16119806 -13.70159626 0.25098039 0.27450980 0.65882353
v -0.13088813 0.16011921 -13.69500256 0.25098039 0.27450980 0.65882353
v -0.13131352 0.15558690 -13.69708061 0.25098039 0.27450980 0.65882353
v -0.12726545 0.15512094 -13.70263863 0.25098039 0.27450980 0.65882353
v -0.12570909 0.15854673 -13.70296192 0.25098039 0.27450980 0.65882353
v -0.12325037 0.15450752 -13.70805836 0.25098039 0.27450980 0.65882353
v -0.12314369 0.15731013 -13.70675373 0.25098039 0.27450980 0.65882353
v -0.11965944 0.16009977 -13.70576477 0.25098039 0.27450980 0.65882353
v -0.11942898 0.15435883 -13.71051693 0.25098039 0.27450980 0.65882353
v -0.11872144 0.15224431 -13.71004295 0.25098039 0.27450980 0.65882353
v -0.11556466 0.15559708 -13.70922661 0.25098039 0.27450980 0.65882353
v -0.12033772 0.15672378 -13.70918179 0.25098039 0.27450980 0.65882353
v -0.11721430 0.15797454 -13.70816422 0.25098039 0.27450980 0.65882353
v -0.14271292 0.17489879 -13.68747330 0.25098039 0.27450980 0.65882353
v -0.14574215 0.17664236 -13.69196320 0.25098039 0.27450980 0.65882353
v -0.14688095 0.17708500 -13.69080257 0.25098039 0.27450980 0.65882353
v -0.14416617 0.17572258 -13.68632317 0.25098039 0.27450980 0.65882353
v -0.14828835 0.16565615 -13.68247986 0.25098039 0.27450980 0.65882353
v -0.14416584 0.16801171 -13.68302250 0.25098039 0.27450980 0.65882353
v -0.14650992 0.16995487 -13.67969513 0.25098039 0.27450980 0.65882353
v -0.15126722 0.16837192 -13.67797947 0.25098039 0.27450980 0.65882353
v -0.15222675 0.16432163 -13.68616104 0.25098039 0.27450980 0.65882353
v -0.15718876 0.16731614 -13.68037224 0.25098039 0.27450980 0.65882353
v -0.15320051 0.17325845 -13.67546940 0.25098039 0.27450980 0.65882353
v -0.14793892 0.17357448 -13.67777061 0.25098039 0.27450980 0.65882353
v -0.15017533 0.18844378 -13.67593002 0.25098039 0.27450980 0.65882353
v -0.15582120 0.18804973 -13.67393303 0.25098039 0.27450980 0.65882353
v -0.14260073 0.17158516 -13.68480301 0.25098039 0.27450980 0.65882353
v -0.14425220 0.17310524 -13.68290234 0.25098039 0.27450980 0.65882353
v -0.15479875 0.17741248 -13.69404316 0.25098039 0.27450980 0.65882353
v -0.15081200 0.17801723 -13.69342804 0.25098039 0.27450980 0.65882353
v -0.15070665 0.17654774 -13.69403648 0.25098039 0.27450980 0.65882353
v -0.15427104 0.17503384 -13.69447708 0.25098039 0.27450980 0.65882353
v -0.14647493 0.19226271 -13.68441582 0.25098039 0.27450980 0.65882353
v -0.15031463 0.19342524 -13.68834782 0.25098039 0.27450980 0.65882353
v -0.14695662 0.18981662 -13.68026257 0.25098039 0.27450980 0.65882353
v -0.15947220 0.17517598 -13.69096375 0.25098039 0.27450980 0.65882353
v -0.16213155 0.17320532 -13.68458366 0.25098039 0.27450980 0.65882353
v -0.16391897 0.18868431 -13.68422031 0.25098039 0.27450980 0.65882353
v -0.16164313 0.18994269 -13.68915367 0.25098039 0.27450980 0.65882353
v -0.14529233 0.17536752 -13.68149853 0.25098039 0.27450980 0.65882353
v -0.14644642 0.17876852 -13.69058800 0.25098039 0.27450980 0.65882353
v -0.14421475 0.17759231 -13.68601131 0.25098039 0.27450980 0.65882353
v -0.15862711 0.17362495 -13.67830086 0.25098039 0.27450980 0.65882353
v -0.15957955 0.16828683 -13.68730450 0.25098039 0.27450980 0.65882353
v -0.14674224 0.16358143 -13.70403862 0.25098039 0.27450980 0.65882353
v -0.15628150 0.16988122 -13.69455147 0.25098039 0.27450980 0.65882353
v -0.15332168 0.17439072 -13.69589806 0.25098039 0.27450980 0.65882353
v -0.14565244 0.16742420 -13.70543861 0.25098039 0.27450980 0.65882353
v -0.15808924 0.17160462 -13.69259357 0.25098039 0.27450980 0.65882353
v -0.15629214 0.16626012 -13.69059086 0.25098039 0.27450980 0.65882353
v -0.13524918 0.17057559 -13.69802380 0.25098039 0.27450980 0.65882353
v -0.13899708 0.17200875 -13.70148373 0.25098039 0.27450980 0.65882353
v -0.13525338 0.16761839 -13.69499779 0.25098039 0.27450980 0.65882353
v -0.16170231 0.18836474 -13.67672729 0.25098039 0.27450980 0.65882353
v -0.15666327 0.19202608 -13.69171810 0.25098039 0.27450980 0.65882353
v -0.13816208 0.16118430 -13.69403076 0.25098039 0.27450980 0.65882353
v -0.13583316 0.16461217 -13.69388008 0.25098039 0.27450980 0.65882353
v -0.14990187 0.17631559 -13.69486809 0.25098039 0.27450980 0.65882353
v -0.14309698 0.17075217 -13.70471859 0.25098039 0.27450980 0.65882353
v -0.14639612 0.16069493 -13.70052528 0.25098039 0.27450980 0.65882353
v -0.14329208 0.15962897 -13.69574833 0.25098039 0.27450980 0.65882353
v -0.14270975 0.15949547 -13.70512390 0.25098039 0.27450980 0.65882353
v -0.13927934 0.15819076 -13.70062733 0.25098039 0.27450980 0.65882353
v -0.13452050 0.15947056 -13.69838333 0.25098039 0.27450980 0.65882353
v -0.13275856 0.16327278 -13.69761562 0.25098039 0.27450980 0.65882353
v -0.13249886 0.16656354 -13.69819355 0.25098039 0.27450980 0.65882353
v -0.14315704 0.16323799 -13.70793152 0.25098039 0.27450980 0.65882353
v -0.14230993 0.16693223 -13.70827675 0.25098039 0.27450980 0.65882353
v -0.14131823 0.17007211 -13.70524502 0.25098039 0.27450980 0.65882353
v -0.14042728 0.16438216 -13.71115780 0.25098039 0.27450980 0.65882353
v -0.13790311 0.15976872 -13.71037769 0.25098039 0.27450980 0.65882353
v -0.12225406 0.16284931 -13.71256161 0.25098039 0.27450980 0.65882353
v -0.12574214 0.16191649 -13.70832157 0.25098039 0.27450980 0.65882353
v -0.12639248 0.16130464 -13.70913696 0.25098039 0.27450980 0.65882353
v -0.12294401 0.16174629 -13.71351051 0.25098039 0.27450980 0.65882353
v -0.13027965 0.15933660 -13.70443916 0.25098039 0.27450980 0.65882353
v -0.12990950 0.15928940 -13.70640945 0.25098039 0.27450980 0.65882353
v -0.13319127 0.15850207 -13.70801735 0.25098039 0.27450980 0.65882353
v -0.12937601 0.15991172 -13.71282482 0.25098039 0.27450980 0.65882353
v -0.13375930 0.16253252 -13.71520710 0.25098039 0.27450980 0.65882353
v -0.12990338 0.16325170 -13.71834183 0.25098039 0.27450980 0.65882353
v -0.12584382 0.16052918 -13.71669006 0.25098039 0.27450980 0.65882353
v -0.13591233 0.15997297 -13.71104908 0.25098039 0.27450980 0.65882353
v -0.12176930 0.16214606 -13.71638775 0.25098039 0.27450980 0.65882353
v -0.11983506 0.16250777 -13.71596718 0.25098039 0.27450980 0.65882353
v -0.13475430 0.15778606 -13.70613003 0.25098039 0.27450980 0.65882353
v -0.12894526 0.16258401 -13.70133495 0.25098039 0.27450980 0.65882353
v -0.12453358 0.16408955 -13.70694065 0.25098039 0.27450980 0.65882353
v -0.12067345 0.16523689 -13.71104717 0.25098039 0.27450980 0.65882353
v -0.11969409 0.16599374 -13.71519375 0.25098039 0.27450980 0.65882353
v -0.12506223 0.16762738 -13.70687962 0.25098039 0.27450980 0.65882353
v -0.12183185 0.16804108 -13.71094036 0.25098039 0.27450980 0.65882353
v -0.12087299 0.16864514 -13.71466064 0.25098039 0.27450980 0.65882353
v -0.12655601 0.17020026 -13.70781136 0.25098039 0.27450980 0.65882353
v -0.12390691 0.17020366 -13.71161652 0.25098039 0.27450980 0.65882353
v -0.13248980 0.16934296 -13.70100307 0.25098039 0.27450980 0.65882353
v -0.13008639 0.16621974 -13.70045471 0.25098039 0.27450980 0.65882353
v -0.12262740 0.16997322 -13.71436405 0.25098039 0.27450980 0.65882353
v -0.12237622 0.16273554 -13.71976852 0.25098039 0.27450980 0.65882353
v -0.12239498 0.16681632 -13.71975899 0.25098039 0.27450980 0.65882353
v -0.12360908 0.16218200 -13.71864414 0.25098039 0.27450980 0.65882353
v -0.13520533 0.16356358 -13.71538544 0.25098039 0.27450980 0.65882353
v -0.13067551 0.16474482 -13.71980286 0.25098039 0.27450980 0.65882353
v -0.13599660 0.16619821 -13.71542835 0.25098039 0.27450980 0.65882353
v -0.13151753 0.16722652 -13.71981049 0.25098039 0.27450980 0.65882353
v -0.12684518 0.16418548 -13.72132874 0.25098039 0.27450980 0.65882353
v -0.12677616 0.16345522 -13.72044659 0.25098039 0.27450980 0.65882353
v -0.13451280 0.16951533 -13.69967747 0.25098039 0.27450980 0.65882353
v -0.13797486 0.17115068 -13.70248222 0.25098039 0.27450980 0.65882353
v -0.13594513 0.17122123 -13.70331383 0.25098039 0.27450980 0.65882353
v -0.12948731 0.17225915 -13.71041775 0.25098039 0.27450980 0.65882353
v -0.13933152 0.17067774 -13.70623016 0.25098039 0.27450980 0.65882353
v -0.13940692 0.16789234 -13.71089840 0.25098039 0.27450980 0.65882353
v -0.13508134 0.16910122 -13.71460152 0.25098039 0.27450980 0.65882353
v -0.13274175 0.17146611 -13.71322346 0.25098039 0.27450980 0.65882353
v -0.13115358 0.16966344 -13.71863174 0.25098039 0.27450980 0.65882353
v -0.13021328 0.17089587 -13.71635246 0.25098039 0.27450980 0.65882353
v -0.12653300 0.17213359 -13.71377754 0.25098039 0.27450980 0.65882353
v -0.12726416 0.16906649 -13.71964359 0.25098039 0.27450980 0.65882353
v -0.12720010 0.16680925 -13.72129726 0.25098039 0.27450980 0.65882353
v -0.12311818 0.16935539 -13.71825504 0.25098039 0.27450980 0.65882353
v -0.12730578 0.17064637 -13.71787357 0.25098039 0.27450980 0.65882353
v -0.12420788 0.17085275 -13.71670151 0.25098039 0.27450980 0.65882353
v -0.15353452 0.19318131 -13.69109631 0.25098039 0.27450980 0.65882353
v -0.15438226 0.18280411 -13.70443630 0.25098039 0.27450980 0.65882353
v -0.15598646 0.18413782 -13.70785999 0.25098039 0.27450980 0.65882353
v -0.15739134 0.18418509 -13.70766830 0.25098039 0.27450980 0.65882353
v -0.15599173 0.18409236 -13.70375729 0.25098039 0.27450980 0.65882353
v -0.16094770 0.17567793 -13.69965839 0.25098039 0.27450980 0.65882353
v -0.15691333 0.17771646 -13.69991398 0.25098039 0.27450980 0.65882353
v -0.15989262 0.18000662 -13.69699287 0.25098039 0.27450980 0.65882353
v -0.16399905 0.17836055 -13.69642639 0.25098039 0.27450980 0.65882353
v -0.16506708 0.17508760 -13.70250416 0.25098039 0.27450980 0.65882353
v -0.16804859 0.17764741 -13.69997025 0.25098039 0.27450980 0.65882353
v -0.16546872 0.18187726 -13.69547749 0.25098039 0.27450980 0.65882353
v -0.16118577 0.18325490 -13.69585800 0.25098039 0.27450980 0.65882353
v -0.16370052 0.19810227 -13.69395638 0.25098039 0.27450980 0.65882353
v -0.16864726 0.19941401 -13.69389915 0.25098039 0.27450980 0.65882353
v -0.16907337 0.20341222 -13.71195793 0.25098039 0.27450980 0.65882353
v -0.16445127 0.20430522 -13.71216393 0.25098039 0.27450980 0.65882353
v -0.16382062 0.19642247 -13.71087933 0.25098039 0.27450980 0.65882353
v -0.16824818 0.19667867 -13.71101093 0.25098039 0.27450980 0.65882353
v -0.15488309 0.18033016 -13.70178032 0.25098039 0.27450980 0.65882353
v -0.15677899 0.18258607 -13.69967365 0.25098039 0.27450980 0.65882353
v -0.16561112 0.18368697 -13.71174049 0.25098039 0.27450980 0.65882353
v -0.16124377 0.18496102 -13.71074009 0.25098039 0.27450980 0.65882353
v -0.15982774 0.18440515 -13.71064472 0.25098039 0.27450980 0.65882353
v -0.16334131 0.18287820 -13.71271515 0.25098039 0.27450980 0.65882353
v -0.16057909 0.20274895 -13.70905495 0.25098039 0.27450980 0.65882353
v -0.15936291 0.20104939 -13.70464611 0.25098039 0.27450980 0.65882353
v -0.15847878 0.19747746 -13.70447159 0.25098039 0.27450980 0.65882353
v -0.16030328 0.19554663 -13.70807362 0.25098039 0.27450980 0.65882353
v -0.15911688 0.19646075 -13.69890404 0.25098039 0.27450980 0.65882353
v -0.16910711 0.18230021 -13.70977020 0.25098039 0.27450980 0.65882353
v -0.17149639 0.18078406 -13.70484161 0.25098039 0.27450980 0.65882353
v -0.17533499 0.19838187 -13.70547581 0.25098039 0.27450980 0.65882353
v -0.17250174 0.19815934 -13.70899391 0.25098039 0.27450980 0.65882353
v -0.15803678 0.18344489 -13.69882488 0.25098039 0.27450980 0.65882353
v -0.15834256 0.18547252 -13.70751381 0.25098039 0.27450980 0.65882353
v -0.15702769 0.18400045 -13.70365143 0.25098039 0.27450980 0.65882353
v -0.17004168 0.18122244 -13.69873238 0.25098039 0.27450980 0.65882353
v -0.16897587 0.17816046 -13.70634174 0.25098039 0.27450980 0.65882353
v -0.15908977 0.17613083 -13.71719265 0.25098039 0.27450980 0.65882353
v -0.16508998 0.17971122 -13.71278667 0.25098039 0.27450980 0.65882353
v -0.16172446 0.18294649 -13.71365833 0.25098039 0.27450980 0.65882353
v -0.15747383 0.17856294 -13.71741295 0.25098039 0.27450980 0.65882353
v -0.16662657 0.18040827 -13.71116161 0.25098039 0.27450980 0.65882353
v -0.16613299 0.17627929 -13.70884514 0.25098039 0.27450980 0.65882353
v -0.14931321 0.17929775 -13.70890522 0.25098039 0.27450980 0.65882353
v -0.15223388 0.18099689 -13.71274185 0.25098039 0.27450980 0.65882353
v -0.14927971 0.17701082 -13.70689964 0.25098039 0.27450980 0.65882353
v -0.17366531 0.19977218 -13.69787407 0.25098039 0.27450980 0.65882353
v -0.15363982 0.17154889 -13.70645809 0.25098039 0.27450980 0.65882353
v -0.15025903 0.17396018 -13.70613194 0.25098039 0.27450980 0.65882353
v -0.15830716 0.18418050 -13.71115017 0.25098039 0.27450980 0.65882353
v -0.15508321 0.18054786 -13.71575451 0.25098039 0.27450980 0.65882353
v -0.15976882 0.17294827 -13.71466160 0.25098039 0.27450980 0.65882353
v -0.15817650 0.17084783 -13.70937920 0.25098039 0.27450980 0.65882353
v -0.15572751 0.17168736 -13.71768856 0.25098039 0.27450980 0.65882353
v -0.15401706 0.16916370 -13.71253872 0.25098039 0.27450980 0.65882353
v -0.14950038 0.17059712 -13.70939445 0.25098039 0.27450980 0.65882353
v -0.14800426 0.17361954 -13.70832157 0.25098039 0.27450980 0.65882353
v -0.14740914 0.17643288 -13.70868683 0.25098039 0.27450980 0.65882353
v -0.15574586 0.17558330 -13.71969223 0.25098039 0.27450980 0.65882353
v -0.15466976 0.17829815 -13.71934891 0.25098039 0.27450980 0.65882353
v -0.15310302 0.18043788 -13.71708012 0.25098039 0.27450980 0.65882353
v -0.15231599 0.17517301 -13.72200108 0.25098039 0.27450980 0.65882353
v -0.15045601 0.17124853 -13.72084236 0.25098039 0.27450980 0.65882353
v -0.13807260 0.17339799 -13.71871090 0.25098039 0.27450980 0.65882353
v -0.14098221 0.17284217 -13.71588135 0.25098039 0.27450980 0.65882353
v -0.14145878 0.17207599 -13.71667290 0.25098039 0.27450980 0.65882353
v -0.13814664 0.17235996 -13.71899891 0.25098039 0.27450980 0.65882353
v -0.14525416 0.17099771 -13.71334839 0.25098039 0.27450980 0.65882353
v -0.14492561 0.17068656 -13.71500492 0.25098039 0.27450980 0.65882353
v -0.14785612 0.16994484 -13.71663189 0.25098039 0.27450980 0.65882353
v -0.14362234 0.17059085 -13.71970940 0.25098039 0.27450980 0.65882353
v -0.14601502 0.17229101 -13.72383213 0.25098039 0.27450980 0.65882353
v -0.14238133 0.17257115 -13.72568130 0.25098039 0.27450980 0.65882353
v -0.14062919 0.17078525 -13.72202587 0.25098039 0.27450980 0.65882353
v -0.14868267 0.17059383 -13.72065163 0.25098039 0.27450980 0.65882353
v -0.13665032 0.17205004 -13.72128010 0.25098039 0.27450980 0.65882353
v -0.13546170 0.17263407 -13.72147083 0.25098039 0.27450980 0.65882353
v -0.14936256 0.16935542 -13.71556759 0.25098039 0.27450980 0.65882353
v -0.14473993 0.17400888 -13.71086788 0.25098039 0.27450980 0.65882353
v -0.13974307 0.17476754 -13.71525574 0.25098039 0.27450980 0.65882353
v -0.13635027 0.17490920 -13.71892929 0.25098039 0.27450980 0.65882353
v -0.13502915 0.17455454 -13.72242355 0.25098039 0.27450980 0.65882353
v -0.14040378 0.17706560 -13.71490002 0.25098039 0.27450980 0.65882353
v -0.13633829 0.17714241 -13.71899605 0.25098039 0.27450980 0.65882353
v -0.13528509 0.17682560 -13.72242069 0.25098039 0.27450980 0.65882353
v -0.14171486 0.17975593 -13.71586895 0.25098039 0.27450980 0.65882353
v -0.13791856 0.17899995 -13.71970272 0.25098039 0.27450980 0.65882353
v -0.14663547 0.17986754 -13.71205997 0.25098039 0.27450980 0.65882353
v -0.14517212 0.17708109 -13.71084881 0.25098039 0.27450980 0.65882353
v -0.13661546 0.17796567 -13.72220135 0.25098039 0.27450980 0.65882353
v -0.13667148 0.17192525 -13.72485733 0.25098039 0.27450980 0.65882353
v -0.13618378 0.17459062 -13.72532463 0.25098039 0.27450980 0.65882353
v -0.13787375 0.17124501 -13.72429752 0.25098039 0.27450980 0.65882353
v -0.14668554 0.17313255 -13.72445965 0.25098039 0.27450980 0.65882353
v -0.14240849 0.17356440 -13.72674561 0.25098039 0.27450980 0.65882353
v -0.14733374 0.17538506 -13.72502327 0.25098039 0.27450980 0.65882353
v -0.14223641 0.17556429 -13.72700214 0.25098039 0.27450980 0.65882353
v -0.13901561 0.17299934 -13.72715664 0.25098039 0.27450980 0.65882353
v -0.13975494 0.17201608 -13.72583771 0.25098039 0.27450980 0.65882353
v -0.14792711 0.17959726 -13.71083355 0.25098039 0.27450980 0.65882353
v -0.15057483 0.18078783 -13.71373558 0.25098039 0.27450980 0.65882353
v -0.14914796 0.18107429 -13.71520233 0.25098039 0.27450980 0.65882353
v -0.14405523 0.18117622 -13.71859646 0.25098039 0.27450980 0.65882353
v -0.15151317 0.18057171 -13.71864033 0.25098039 0.27450980 0.65882353
v -0.15246399 0.17808780 -13.72110462 0.25098039 0.27450980 0.65882353
v -0.14709869 0.17788398 -13.72432899 0.25098039 0.27450980 0.65882353
v -0.14605455 0.18024820 -13.72236538 0.25098039 0.27450980 0.65882353
v -0.14166674 0.17745505 -13.72646523 0.25098039 0.27450980 0.65882353
v -0.14119999 0.17952770 -13.72450924 0.25098039 0.27450980 0.65882353
v -0.13979983 0.18026553 -13.72183418 0.25098039 0.27450980 0.65882353
v -0.13819474 0.17670187 -13.72623920 0.25098039 0.27450980 0.65882353
v -0.13826610 0.17509356 -13.72705936 0.25098039 0.27450980 0.65882353
v -0.13652225 0.17653531 -13.72492218 0.25098039 0.27450980 0.65882353
v -0.13837919 0.17819351 -13.72511482 0.25098039 0.27450980 0.65882353
v -0.13752162 0.17826922 -13.72383881 0.25098039 0.27450980 0.65882353
v -0.17189381 0.20222944 -13.70962429 0.25098039 0.27450980 0.65882353
v -0.08353111 0.20801121 -13.69069672 0.25098039 0.27450980 0.65882353
v -0.08817638 0.20608921 -13.69081974 0.25098039 0.27450980 0.65882353
v -0.08925240 0.20088853 -13.70508957 0.25098039 0.27450980 0.65882353
v -0.09172717 0.20091844 -13.69887352 0.25098039 0.27450980 0.65882353
v -0.08371472 0.20251131 -13.70832062 0.25098039 0.27450980 0.65882353
v -0.07553411 0.20787774 -13.70479298 0.25098039 0.27450980 0.65882353
v -0.07923457 0.20589416 -13.70788670 0.25098039 0.27450980 0.65882353
v -0.09089755 0.20302130 -13.69400406 0.25098039 0.27450980 0.65882353
v -0.07890910 0.20968875 -13.69294834 0.25098039 0.27450980 0.65882353
v -0.07490878 0.21018486 -13.69890881 0.25098039 0.27450980 0.65882353
v -0.07443237 0.20126122 -13.69271183 0.25098039 0.27450980 0.65882353
v -0.07140349 0.20192137 -13.69939232 0.25098039 0.27450980 0.65882353
v -0.07260281 0.20024081 -13.70602131 0.25098039 0.27450980 0.65882353
v -0.07817641 0.19951457 -13.70898438 0.25098039 0.27450980 0.65882353
v -0.08259401 0.19819142 -13.70962143 0.25098039 0.27450980 0.65882353
v -0.08129723 0.20121357 -13.69081688 0.25098039 0.27450980 0.65882353
v -0.08608678 0.19977458 -13.69122601 0.25098039 0.27450980 0.65882353
v -0.09013148 0.19833401 -13.69512272 0.25098039 0.27450980 0.65882353
v -0.08028817 0.19265199 -13.69055653 0.25098039 0.27450980 0.65882353
v -0.07602298 0.18460645 -13.69464397 0.25098039 0.27450980 0.65882353
v -0.07752217 0.17415741 -13.71036816 0.25098039 0.27450980 0.65882353
v -0.07741250 0.18061581 -13.71014214 0.25098039 0.27450980 0.65882353
v -0.07592395 0.17988071 -13.70787525 0.25098039 0.27450980 0.65882353
v -0.07571959 0.17405921 -13.70851040 0.25098039 0.27450980 0.65882353
v -0.07526188 0.18513277 -13.70824814 0.25098039 0.27450980 0.65882353
v -0.07498036 0.18376961 -13.70638657 0.25098039 0.27450980 0.65882353
v -0.07432581 0.18482232 -13.70117569 0.25098039 0.27450980 0.65882353
v -0.07451394 0.17904773 -13.70198154 0.25098039 0.27450980 0.65882353
v -0.07600318 0.18316981 -13.69693375 0.25098039 0.27450980 0.65882353
v -0.07726999 0.17898932 -13.69673729 0.25098039 0.27450980 0.65882353
v -0.07475363 0.17348519 -13.70256424 0.25098039 0.27450980 0.65882353
v -0.07493152 0.17047030 -13.70727921 0.25098039 0.27450980 0.65882353
v -0.07519683 0.16892365 -13.70328236 0.25098039 0.27450980 0.65882353
v -0.07732196 0.16937928 -13.70872879 0.25098039 0.27450980 0.65882353
v -0.07154828 0.18551011 -13.70058346 0.25098039 0.27450980 0.65882353
v -0.07812425 0.19040097 -13.71082211 0.25098039 0.27450980 0.65882353
v -0.08017306 0.18233711 -13.71179962 0.25098039 0.27450980 0.65882353
v -0.08087200 0.17486915 -13.71127987 0.25098039 0.27450980 0.65882353
v -0.08039500 0.16949849 -13.70892334 0.25098039 0.27450980 0.65882353
v -0.08429387 0.18314469 -13.71145058 0.25098039 0.27450980 0.65882353
v -0.08463889 0.17636663 -13.71000957 0.25098039 0.27450980 0.65882353
v -0.08424848 0.17169270 -13.70707321 0.25098039 0.27450980 0.65882353
v -0.08778924 0.18347473 -13.70831108 0.25098039 0.27450980 0.65882353
v -0.08696935 0.17720875 -13.70705986 0.25098039 0.27450980 0.65882353
v -0.08792101 0.19494289 -13.70687866 0.25098039 0.27450980 0.65882353
v -0.08323050 0.19367950 -13.71075535 0.25098039 0.27450980 0.65882353
v -0.08565879 0.17360061 -13.70570374 0.25098039 0.27450980 0.65882353
v -0.07667807 0.16676453 -13.70354557 0.25098039 0.27450980 0.65882353
v -0.08019280 0.16704713 -13.70357132 0.25098039 0.27450980 0.65882353
v -0.07903163 0.17996423 -13.69424152 0.25098039 0.27450980 0.65882353
v -0.07697414 0.17367780 -13.69706249 0.25098039 0.27450980 0.65882353
v -0.07936682 0.17390135 -13.69566059 0.25098039 0.27450980 0.65882353
v -0.08212526 0.18174377 -13.69274807 0.25098039 0.27450980 0.65882353
v -0.08204503 0.17427158 -13.69494438 0.25098039 0.27450980 0.65882353
v -0.07831132 0.16898942 -13.69831562 0.25098039 0.27450980 0.65882353
v -0.07623689 0.17019868 -13.69924831 0.25098039 0.27450980 0.65882353
v -0.08812721 0.19778939 -13.70677853 0.25098039 0.27450980 0.65882353
v -0.09087828 0.19812262 -13.70083046 0.25098039 0.27450980 0.65882353
v -0.09033267 0.19535641 -13.70087433 0.25098039 0.27450980 0.65882353
v -0.08961125 0.18428364 -13.70227718 0.25098039 0.27450980 0.65882353
v -0.08952504 0.19414341 -13.69507408 0.25098039 0.27450980 0.65882353
v -0.08506523 0.19326918 -13.69129181 0.25098039 0.27450980 0.65882353
v -0.08564501 0.18266480 -13.69333267 0.25098039 0.27450980 0.65882353
v -0.08864769 0.18385555 -13.69664001 0.25098039 0.27450980 0.65882353
v -0.08515975 0.17530011 -13.69617271 0.25098039 0.27450980 0.65882353
v -0.08680642 0.17640217 -13.69829369 0.25098039 0.27450980 0.65882353
v -0.08790539 0.17687047 -13.70287991 0.25098039 0.27450980 0.65882353
v -0.08408684 0.17111513 -13.69908333 0.25098039 0.27450980 0.65882353
v -0.08135942 0.16949798 -13.69799328 0.25098039 0.27450980 0.65882353
v -0.08379419 0.16974673 -13.70311451 0.25098039 0.27450980 0.65882353
v -0.08556278 0.17323455 -13.69989395 0.25098039 0.27450980 0.65882353
v -0.08566265 0.17273587 -13.70284748 0.25098039 0.27450980 0.65882353
v -0.16434425 0.20900647 -13.71315193 0.25098039 0.27450980 0.65882353
v -0.15931582 0.20735019 -13.71007252 0.25098039 0.27450980 0.65882353
v -0.15919420 0.21201506 -13.71337891 0.25098039 0.27450980 0.65882353
v -0.15680413 0.21833694 -13.71847916 0.25098039 0.27450980 0.65882353
v -0.15963469 0.22606620 -13.72407436 0.25098039 0.27450980 0.65882353
v -0.15165365 0.21845572 -13.71460533 0.25098039 0.27450980 0.65882353
v -0.15458694 0.21160239 -13.70942307 0.25098039 0.27450980 0.65882353
v -0.15536249 0.20510811 -13.70406437 0.25098039 0.27450980 0.65882353
v -0.14514327 0.22562923 -13.71425724 0.25098039 0.27450980 0.65882353
f 2 3 1
f 1 3 4
f 5 6 8
f 8 6 7
f 9 4 10
f 10 4 3
f 12 13 11
f 11 13 9
f 14 12 16
f 16 12 15
f 18 19 17
f 17 19 20
f 22 23 21
f 21 23 24
f 26 27 25
f 25 27 28
f 30 31 29
f 29 31 32
f 33 34 36
f 36 34 35
f 37 38 40
f 40 38 39
f 41 42 6
f 6 42 43
f 6 43 7
f 7 43 44
f 45 34 46
f 46 34 33
f 48 49 47
f 47 49 50
f 52 53 51
f 51 53 54
f 56 52 55
f 55 52 51
f 58 59 57
f 57 59 60
f 61 62 4
f 4 62 1
f 64 65 63
f 63 65 66
f 68 69 67
f 67 69 70
f 72 73 71
f 71 73 74
f 76 77 75
f 75 77 78
f 53 79 54
f 54 79 80
f 82 83 81
f 81 83 84
f 85 86 52
f 52 86 53
f 57 60 87
f 87 60 88
f 89 90 43
f 43 90 44
f 43 42 89
f 89 42 91
f 40 39 92
f 92 39 93
f 94 70 64
f 64 70 69
f 13 61 9
f 9 61 4
f 25 28 69
f 69 28 95
f 96 25 68
f 68 25 69
f 98 99 97
f 97 99 100
f 101 102 104
f 104 102 103
f 106 30 105
f 105 30 29
f 51 54 107
f 107 54 108
f 54 80 108
f 108 80 109
f 111 112 110
f 110 112 113
f 115 5 114
f 114 5 116
f 115 41 5
f 5 41 6
f 36 35 111
f 111 35 117
f 35 118 117
f 117 118 119
f 34 120 35
f 35 120 118
f 34 45 120
f 120 45 121
f 125 126 124
f 124 126 127
f 128 129 14
f 14 129 130
f 33 131 46
f 46 131 132
f 133 94 63
f 63 94 64
f 134 135 137
f 137 135 136
f 139 140 138
f 138 140 141
f 77 142 78
f 78 142 143
f 144 145 20
f 20 145 146
f 148 149 147
f 147 149 72
f 151 152 150
f 150 152 153
f 82 101 83
f 83 101 104
f 101 82 155
f 155 82 154
f 156 157 58
f 58 157 59
f 158 68 147
f 147 68 67
f 159 146 15
f 15 146 16
f 68 158 96
f 96 158 160
f 129 66 130
f 130 66 65
f 162 163 161
f 161 163 164
f 166 167 165
f 165 167 168
f 170 171 169
f 169 171 172
f 174 171 173
f 173 171 170
f 176 177 175
f 175 177 178
f 180 181 179
f 179 181 24
f 182 183 21
f 21 183 184
f 81 185 82
f 82 185 154
f 186 187 188
f 188 187 144
f 158 71 160
f 160 71 189
f 190 135 157
f 157 135 59
f 169 172 139
f 139 172 140
f 147 72 158
f 158 72 71
f 192 193 191
f 191 193 194
f 167 166 49
f 49 166 195
f 196 190 50
f 50 190 157
f 197 198 200
f 200 198 199
f 21 24 182
f 182 24 181
f 146 159 20
f 20 159 17
f 182 181 81
f 81 181 185
f 201 185 180
f 180 185 181
f 202 203 83
f 83 203 84
f 205 206 204
f 204 206 85
f 207 22 184
f 184 22 21
f 179 24 208
f 208 24 23
f 208 209 179
f 179 209 205
f 209 210 205
f 205 210 206
f 212 206 211
f 211 206 210
f 179 205 180
f 180 205 204
f 213 176 88
f 88 176 214
f 86 85 212
f 212 85 206
f 193 217 218
f 217 219 218
f 218 219 220
f 219 18 220
f 220 18 17
f 19 221 20
f 20 221 144
f 222 223 225
f 225 223 224
f 175 226 176
f 176 226 214
f 227 87 214
f 214 87 88
f 220 17 228
f 228 17 159
f 134 213 60
f 60 213 88
f 138 229 151
f 151 229 152
f 193 192 210
f 210 192 211
f 230 194 218
f 218 194 193
f 231 232 228
f 228 232 230
f 233 234 91
f 91 234 89
f 235 236 93
f 93 236 92
f 230 232 234
f 234 232 237
f 47 238 48
f 48 238 239
f 240 191 235
f 235 191 236
f 5 8 116
f 116 8 241
f 242 243 189
f 189 243 160
f 244 245 98
f 98 245 99
f 156 246 47
f 47 246 238
f 76 247 77
f 77 247 248
f 250 125 249
f 249 125 124
f 252 253 251
f 251 253 254
f 111 110 36
f 36 110 255
f 256 33 255
f 255 33 36
f 257 258 154
f 154 258 155
f 63 169 133
f 133 169 139
f 66 170 63
f 63 170 169
f 173 170 129
f 129 170 66
f 129 128 173
f 173 128 259
f 128 260 259
f 259 260 261
f 213 134 262
f 262 134 137
f 263 264 186
f 186 264 187
f 112 265 113
f 113 265 266
f 11 267 268
f 234 233 230
f 230 233 194
f 153 269 70
f 70 269 67
f 175 178 165
f 165 178 141
f 150 153 94
f 94 153 70
f 271 221 270
f 270 221 207
f 269 153 272
f 272 153 152
f 121 45 109
f 109 45 108
f 47 50 156
f 156 50 157
f 57 273 58
f 58 273 274
f 145 275 260
f 260 275 261
f 276 149 143
f 143 149 78
f 148 269 75
f 75 269 272
f 207 277 270
f 270 277 278
f 195 196 49
f 49 196 50
f 59 135 60
f 60 135 134
f 83 104 202
f 202 104 279
f 149 148 78
f 78 148 75
f 247 278 248
f 248 278 277
f 183 182 84
f 84 182 81
f 48 239 281
f 281 239 282
f 227 223 283
f 283 223 222
f 223 226 224
f 224 226 168
f 281 282 224
f 224 282 225
f 165 168 175
f 175 168 226
f 264 263 138
f 138 263 229
f 14 16 128
f 128 16 260
f 220 228 218
f 218 228 230
f 87 227 284
f 284 227 283
f 260 16 145
f 145 16 146
f 244 98 258
f 258 98 155
f 58 274 156
f 156 274 246
f 107 285 51
f 51 285 55
f 243 286 160
f 160 286 96
f 234 237 89
f 89 237 90
f 46 132 107
f 107 132 285
f 253 252 249
f 249 252 250
f 286 26 96
f 96 26 25
f 106 105 287
f 287 105 288
f 272 152 289
f 289 152 229
f 138 151 139
f 139 151 133
f 183 290 161
f 161 290 162
f 291 292 277
f 277 292 293
f 151 150 133
f 133 150 94
f 262 275 177
f 177 275 187
f 144 187 145
f 145 187 275
f 273 57 284
f 284 57 87
f 174 136 190
f 190 136 135
f 111 117 112
f 112 117 38
f 117 119 38
f 38 119 123
f 112 38 265
f 265 38 37
f 287 288 254
f 254 288 251
f 228 159 231
f 231 159 15
f 223 227 226
f 226 227 214
f 147 67 148
f 148 67 269
f 224 168 281
f 281 168 167
f 199 163 200
f 200 163 162
f 45 46 108
f 108 46 107
f 281 167 48
f 48 167 49
f 161 164 291
f 291 164 292
f 38 123 39
f 293 294 277
f 277 294 248
f 284 283 296
f 296 283 295
f 284 296 273
f 273 296 297
f 274 273 298
f 298 273 297
f 246 274 299
f 299 274 298
f 283 222 295
f 295 222 300
f 222 225 300
f 300 225 301
f 301 225 302
f 302 225 282
f 303 304 300
f 300 304 295
f 306 307 305
f 305 307 308
f 309 310 308
f 308 310 305
f 308 307 312
f 312 307 311
f 313 314 312
f 312 314 315
f 311 316 312
f 312 316 313
f 317 304 311
f 311 304 316
f 315 309 312
f 312 309 308
f 318 319 321
f 321 319 320
f 319 318 309
f 309 318 310
f 311 307 317
f 317 307 306
f 306 297 317
f 317 297 296
f 306 322 297
f 297 322 298
f 305 323 306
f 306 323 322
f 323 305 324
f 324 305 310
f 304 317 295
f 295 317 296
f 318 325 310
f 310 325 324
f 323 324 326
f 326 324 327
f 324 325 327
f 327 325 328
f 326 327 329
f 329 327 330
f 329 331 326
f 326 331 332
f 333 330 328
f 328 330 327
f 323 326 322
f 322 326 332
f 322 332 298
f 298 332 299
f 325 318 334
f 334 318 321
f 313 316 335
f 335 316 304
f 335 336 313
f 313 336 314
f 304 303 335
f 335 303 337
f 336 335 338
f 338 335 337
f 336 339 314
f 314 339 340
f 246 299 238
f 238 299 341
f 239 342 282
f 282 342 302
f 342 239 341
f 341 239 238
f 341 331 342
f 342 331 343
f 331 329 343
f 343 329 344
f 342 343 302
f 302 343 345
f 341 299 331
f 331 299 332
f 346 301 345
f 345 301 302
f 346 303 301
f 301 303 300
f 347 337 346
f 346 337 303
f 347 346 348
f 348 346 345
f 349 347 350
f 350 347 348
f 343 344 345
f 345 344 348
f 344 351 348
f 348 351 350
f 337 347 338
f 338 347 349
f 353 338 352
f 352 338 349
f 352 355 354
f 354 355 356
f 352 349 355
f 355 349 350
f 352 354 353
f 353 354 334
f 353 334 339
f 339 334 321
f 339 336 353
f 353 336 338
f 329 330 344
f 344 330 351
f 356 351 333
f 333 351 330
f 356 355 351
f 351 355 350
f 354 356 328
f 328 356 333
f 328 325 354
f 354 325 334
f 309 315 319
f 319 315 320
f 320 340 321
f 321 340 339
f 320 315 340
f 340 315 314
f 137 136 261
f 261 136 259
f 140 166 141
f 141 166 165
f 172 171 195
f 195 171 196
f 171 174 196
f 196 174 190
f 178 177 264
f 264 177 187
f 172 195 140
f 140 195 166
f 137 261 262
f 262 261 275
f 178 264 141
f 141 264 138
f 262 177 213
f 213 177 176
f 136 174 259
f 259 174 173
f 358 359 357
f 357 359 360
f 362 363 361
f 361 363 364
f 361 364 365
f 365 364 366
f 367 368 370
f 370 368 369
f 76 371 247
f 247 371 372
f 373 374 362
f 362 374 363
f 376 377 375
f 375 377 378
f 289 229 380
f 380 229 379
f 381 379 263
f 263 379 229
f 383 384 382
f 382 384 385
f 386 368 374
f 374 368 363
f 76 289 371
f 371 289 380
f 377 376 359
f 359 376 387
f 388 386 360
f 360 386 374
f 389 383 366
f 366 383 390
f 392 393 391
f 391 393 394
f 383 382 390
f 390 382 395
f 396 365 390
f 390 365 366
f 389 366 367
f 367 366 364
f 357 397 358
f 358 397 398
f 373 399 357
f 357 399 397
f 389 367 400
f 400 367 370
f 382 385 375
f 375 385 372
f 357 360 373
f 373 360 374
f 361 401 362
f 362 401 402
f 387 388 359
f 359 388 360
f 363 368 364
f 364 368 367
f 358 398 403
f 403 398 404
f 396 392 405
f 405 392 391
f 392 395 393
f 393 395 378
f 393 403 394
f 394 403 404
f 375 378 382
f 382 378 395
f 365 396 406
f 406 396 405
f 362 402 373
f 373 402 399
f 271 270 400
f 400 270 384
f 401 361 406
f 406 361 365
f 381 369 386
f 386 369 368
f 392 396 395
f 395 396 390
f 393 378 403
f 403 378 377
f 403 377 358
f 358 377 359
f 406 405 408
f 408 405 407
f 406 408 401
f 401 408 409
f 401 409 402
f 402 409 410
f 402 410 399
f 399 410 411
f 405 391 407
f 407 391 412
f 391 394 412
f 412 394 413
f 394 404 413
f 413 404 414
f 415 416 412
f 412 416 407
f 418 419 417
f 417 419 420
f 421 422 418
f 418 422 419
f 419 422 424
f 424 422 423
f 425 426 424
f 424 426 427
f 423 428 424
f 424 428 425
f 427 420 424
f 424 420 419
f 420 429 417
f 417 429 430
f 423 422 431
f 431 422 421
f 421 409 431
f 431 409 408
f 421 432 409
f 409 432 410
f 418 433 421
f 421 433 432
f 434 433 417
f 417 433 418
f 431 416 423
f 423 416 428
f 416 431 407
f 407 431 408
f 435 434 430
f 430 434 417
f 433 434 436
f 436 434 437
f 434 435 437
f 437 435 438
f 436 437 439
f 439 437 440
f 439 441 436
f 436 441 442
f 438 443 437
f 437 443 440
f 436 442 433
f 433 442 432
f 432 442 410
f 410 442 411
f 435 430 445
f 445 430 444
f 430 429 444
f 444 429 446
f 425 428 447
f 447 428 416
f 426 425 448
f 448 425 447
f 416 415 447
f 447 415 449
f 447 449 448
f 448 449 450
f 451 452 448
f 448 452 426
f 446 452 444
f 444 452 451
f 399 411 397
f 397 411 453
f 398 454 404
f 404 454 414
f 454 398 453
f 453 398 397
f 453 441 454
f 454 441 455
f 441 439 455
f 455 439 456
f 454 455 414
f 414 455 457
f 441 453 442
f 442 453 411
f 458 413 457
f 457 413 414
f 458 415 413
f 413 415 412
f 458 459 415
f 415 459 449
f 459 458 460
f 460 458 457
f 461 459 462
f 462 459 460
f 455 456 457
f 457 456 460
f 456 463 460
f 460 463 462
f 459 461 449
f 449 461 450
f 465 450 464
f 464 450 461
f 464 467 466
f 466 467 468
f 464 461 467
f 467 461 462
f 464 466 465
f 465 466 445
f 465 445 451
f 451 445 444
f 451 448 465
f 465 448 450
f 439 440 456
f 456 440 463
f 468 463 443
f 443 463 440
f 468 467 463
f 463 467 462
f 466 468 438
f 438 468 443
f 438 435 466
f 466 435 445
f 420 427 429
f 429 427 446
f 446 427 452
f 452 427 426
f 370 369 188
f 188 369 186
f 371 376 372
f 372 376 375
f 380 379 387
f 387 379 388
f 379 381 388
f 388 381 386
f 385 384 278
f 278 384 270
f 380 387 371
f 371 387 376
f 400 370 271
f 271 370 188
f 385 278 372
f 372 278 247
f 400 384 389
f 389 384 383
f 369 381 186
f 186 381 263
f 221 271 144
f 144 271 188
f 221 19 207
f 207 19 22
f 19 18 22
f 22 18 23
f 18 219 23
f 23 219 208
f 469 470 472
f 472 470 471
f 474 475 473
f 473 475 476
f 473 476 477
f 477 476 478
f 480 481 479
f 479 481 482
f 483 484 474
f 474 484 475
f 486 487 485
f 485 487 488
f 489 490 77
f 77 490 142
f 491 489 248
f 248 489 77
f 493 494 492
f 492 494 495
f 496 480 484
f 484 480 475
f 486 497 487
f 487 497 471
f 498 496 472
f 472 496 484
f 499 493 478
f 478 493 500
f 501 502 504
f 504 502 503
f 493 492 500
f 500 492 505
f 506 477 500
f 500 477 478
f 499 478 479
f 479 478 476
f 469 507 470
f 470 507 508
f 483 509 469
f 469 509 507
f 479 482 499
f 499 482 510
f 492 495 485
f 485 495 511
f 483 469 484
f 484 469 472
f 473 512 474
f 474 512 513
f 497 498 471
f 471 498 472
f 475 480 476
f 476 480 479
f 470 508 514
f 514 508 515
f 506 502 516
f 516 502 501
f 503 502 488
f 488 502 505
f 514 515 503
f 503 515 504
f 485 488 492
f 492 488 505
f 477 506 517
f 517 506 516
f 474 513 483
f 483 513 509
f 510 292 494
f 494 292 164
f 512 473 517
f 517 473 477
f 491 481 496
f 496 481 480
f 502 506 505
f 505 506 500
f 503 488 514
f 514 488 487
f 514 487 470
f 470 487 471
f 517 516 519
f 519 516 518
f 517 519 512
f 512 519 520
f 512 520 513
f 513 520 521
f 513 521 509
f 509 521 522
f 516 501 518
f 518 501 523
f 501 504 523
f 523 504 524
f 524 504 525
f 525 504 515
f 526 527 523
f 523 527 518
f 529 530 528
f 528 530 531
f 532 533 529
f 529 533 530
f 530 533 535
f 535 533 534
f 536 537 535
f 535 537 538
f 534 539 535
f 535 539 536
f 538 531 535
f 535 531 530
f 540 541 531
f 531 541 528
f 533 532 534
f 534 532 542
f 532 520 542
f 542 520 519
f 532 543 520
f 520 543 521
f 529 544 532
f 532 544 543
f 544 529 545
f 545 529 528
f 534 542 539
f 539 542 527
f 527 542 518
f 518 542 519
f 541 546 528
f 528 546 545
f 547 544 548
f 548 544 545
f 546 549 545
f 545 549 548
f 550 547 551
f 551 547 548
f 547 550 553
f 553 550 552
f 549 554 548
f 548 554 551
f 544 547 543
f 543 547 553
f 543 553 521
f 521 553 522
f 546 541 556
f 556 541 555
f 541 540 555
f 555 540 557
f 536 539 558
f 558 539 527
f 537 536 559
f 559 536 558
f 527 526 558
f 558 526 560
f 559 558 561
f 561 558 560
f 559 562 537
f 537 562 563
f 557 563 555
f 555 563 562
f 509 522 507
f 507 522 564
f 508 565 515
f 515 565 525
f 565 508 564
f 564 508 507
f 564 552 565
f 565 552 566
f 552 550 566
f 566 550 567
f 565 566 525
f 525 566 568
f 564 522 552
f 552 522 553
f 569 524 568
f 568 524 525
f 569 526 524
f 524 526 523
f 570 560 569
f 569 560 526
f 570 569 571
f 571 569 568
f 572 570 573
f 573 570 571
f 566 567 568
f 568 567 571
f 567 574 571
f 571 574 573
f 570 572 560
f 560 572 561
f 576 561 575
f 575 561 572
f 575 578 577
f 577 578 579
f 575 572 578
f 578 572 573
f 575 577 576
f 576 577 556
f 576 556 562
f 562 556 555
f 562 559 576
f 576 559 561
f 550 551 567
f 567 551 574
f 579 574 554
f 554 574 551
f 579 578 574
f 574 578 573
f 579 554 577
f 577 554 549
f 549 546 577
f 577 546 556
f 531 538 540
f 540 538 557
f 557 538 563
f 563 538 537
f 481 294 482
f 482 294 293
f 580 486 511
f 511 486 485
f 490 489 497
f 497 489 498
f 489 491 498
f 498 491 496
f 163 495 164
f 164 495 494
f 580 490 486
f 486 490 497
f 482 293 510
f 510 293 292
f 495 163 511
f 511 163 199
f 494 493 510
f 510 493 499
f 481 491 294
f 294 491 248
f 582 583 581
f 581 583 584
f 586 587 585
f 585 587 588
f 585 588 589
f 589 588 590
f 592 593 591
f 591 593 594
f 595 596 598
f 598 596 597
f 599 600 586
f 586 600 587
f 601 602 604
f 604 602 603
f 605 606 608
f 608 606 607
f 609 607 200
f 200 607 606
f 610 611 613
f 613 611 612
f 600 614 587
f 587 614 592
f 596 605 597
f 597 605 608
f 602 615 603
f 603 615 583
f 616 614 584
f 584 614 600
f 611 618 617
f 617 618 590
f 620 621 619
f 619 621 622
f 610 623 611
f 611 623 618
f 624 589 618
f 618 589 590
f 617 590 591
f 591 590 588
f 581 625 582
f 582 625 626
f 599 627 581
f 581 627 625
f 591 594 617
f 617 594 628
f 601 610 598
f 598 610 613
f 581 584 599
f 599 584 600
f 585 629 586
f 586 629 630
f 615 616 583
f 583 616 584
f 587 592 588
f 588 592 591
f 582 626 631
f 631 626 632
f 624 620 633
f 633 620 619
f 621 620 604
f 604 620 623
f 631 632 621
f 621 632 622
f 610 601 623
f 623 601 604
f 589 624 634
f 634 624 633
f 586 630 599
f 599 630 627
f 203 202 628
f 628 202 612
f 629 585 634
f 634 585 589
f 609 593 614
f 614 593 592
f 620 624 623
f 623 624 618
f 631 621 603
f 603 621 604
f 582 631 583
f 583 631 603
f 634 633 636
f 636 633 635
f 634 636 629
f 629 636 637
f 629 637 630
f 630 637 638
f 630 638 627
f 627 638 639
f 633 619 635
f 635 619 640
f 619 622 640
f 640 622 641
f 641 622 642
f 642 622 632
f 644 635 643
f 643 635 640
f 645 646 648
f 648 646 647
f 649 650 646
f 646 650 647
f 647 650 652
f 652 650 651
f 652 653 655
f 655 653 654
f 651 656 652
f 652 656 653
f 655 648 652
f 652 648 647
f 648 657 645
f 645 657 658
f 650 649 651
f 651 649 659
f 649 637 659
f 659 637 636
f 649 660 637
f 637 660 638
f 661 660 646
f 646 660 649
f 662 661 645
f 645 661 646
f 651 659 656
f 656 659 644
f 644 659 635
f 635 659 636
f 663 662 658
f 658 662 645
f 664 661 665
f 665 661 662
f 663 666 662
f 662 666 665
f 667 664 668
f 668 664 665
f 664 667 670
f 670 667 669
f 666 671 665
f 665 671 668
f 661 664 660
f 660 664 670
f 660 670 638
f 638 670 639
f 658 672 663
f 663 672 673
f 658 657 672
f 672 657 674
f 653 656 675
f 675 656 644
f 653 675 654
f 654 675 676
f 675 644 677
f 677 644 643
f 676 675 678
f 678 675 677
f 679 680 676
f 676 680 654
f 674 680 672
f 672 680 679
f 627 639 625
f 625 639 681
f 626 682 632
f 632 682 642
f 681 682 625
f 625 682 626
f 669 683 681
f 681 683 682
f 667 684 669
f 669 684 683
f 682 683 642
f 642 683 685
f 681 639 669
f 669 639 670
f 686 641 685
f 685 641 642
f 641 686 640
f 640 686 643
f 686 687 643
f 643 687 677
f 687 686 688
f 688 686 685
f 689 687 690
f 690 687 688
f 683 684 685
f 685 684 688
f 684 691 688
f 688 691 690
f 687 689 677
f 677 689 678
f 693 678 692
f 692 678 689
f 692 695 694
f 694 695 696
f 692 689 695
f 695 689 690
f 692 694 693
f 693 694 673
f 693 673 679
f 679 673 672
f 679 676 693
f 693 676 678
f 684 667 691
f 691 667 668
f 696 691 671
f 671 691 668
f 696 695 691
f 691 695 690
f 694 696 666
f 666 696 671
f 666 663 694
f 694 663 673
f 648 655 657
f 657 655 674
f 674 655 680
f 680 655 654
f 593 162 594
f 594 162 290
f 598 597 601
f 601 597 602
f 615 608 616
f 616 608 607
f 607 609 616
f 616 609 614
f 697 595 613
f 613 595 598
f 597 608 602
f 602 608 615
f 594 290 628
f 628 290 203
f 628 612 617
f 617 612 611
f 593 609 162
f 162 609 200
f 105 29 698
f 698 29 699
f 268 126 701
f 701 126 700
f 126 125 700
f 700 125 702
f 252 703 250
f 250 703 704
f 32 268 705
f 705 268 701
f 288 105 706
f 706 105 698
f 29 32 699
f 699 32 705
f 707 251 706
f 706 251 288
f 250 704 125
f 125 704 702
f 703 252 707
f 707 252 251
f 706 708 707
f 707 708 709
f 707 709 703
f 703 709 710
f 703 710 704
f 704 710 711
f 704 711 702
f 702 711 712
f 706 698 708
f 708 698 713
f 698 699 713
f 713 699 714
f 699 705 714
f 714 705 715
f 717 708 716
f 716 708 713
f 719 720 718
f 718 720 721
f 722 723 719
f 719 723 720
f 724 725 723
f 723 725 720
f 724 726 725
f 725 726 727
f 728 721 725
f 725 721 720
f 721 728 729
f 729 728 730
f 729 731 721
f 721 731 718
f 724 723 732
f 732 723 722
f 722 710 732
f 732 710 709
f 722 733 710
f 710 733 711
f 719 734 722
f 722 734 733
f 734 719 735
f 735 719 718
f 724 732 726
f 726 732 717
f 717 732 708
f 708 732 709
f 731 736 718
f 718 736 735
f 737 734 738
f 738 734 735
f 736 739 735
f 735 739 738
f 740 737 741
f 741 737 738
f 737 740 743
f 743 740 742
f 739 744 738
f 738 744 741
f 734 737 733
f 733 737 743
f 733 743 711
f 711 743 712
f 736 731 746
f 746 731 745
f 731 729 745
f 745 729 730
f 727 726 747
f 747 726 717
f 748 727 749
f 749 727 747
f 747 717 750
f 750 717 716
f 749 747 751
f 751 747 750
f 749 752 748
f 748 752 753
f 730 753 745
f 745 753 752
f 728 725 748
f 748 725 727
f 730 728 753
f 753 728 748
f 700 702 754
f 754 702 712
f 705 701 715
f 715 701 755
f 754 755 700
f 700 755 701
f 742 756 754
f 754 756 755
f 740 757 742
f 742 757 756
f 755 756 715
f 715 756 758
f 754 712 742
f 742 712 743
f 759 714 758
f 758 714 715
f 714 759 713
f 713 759 716
f 759 760 716
f 716 760 750
f 760 759 761
f 761 759 758
f 762 760 763
f 763 760 761
f 756 757 758
f 758 757 761
f 757 764 761
f 761 764 763
f 760 762 750
f 750 762 751
f 766 751 765
f 765 751 762
f 767 765 769
f 769 765 768
f 765 762 768
f 768 762 763
f 765 767 766
f 766 767 746
f 766 746 752
f 752 746 745
f 752 749 766
f 766 749 751
f 757 740 764
f 764 740 741
f 769 764 744
f 744 764 741
f 769 768 764
f 764 768 763
f 767 769 739
f 739 769 744
f 739 736 767
f 767 736 746
f 219 217 208
f 208 217 209
f 209 217 210
f 210 217 193
f 198 580 199
f 199 580 511
f 76 75 289
f 289 75 272
f 277 207 291
f 291 207 184
f 290 183 203
f 203 183 84
f 490 580 142
f 142 580 198
f 142 198 143
f 143 198 197
f 149 276 72
f 72 276 73
f 104 103 279
f 279 103 770
f 770 596 279
f 279 596 595
f 605 596 771
f 771 596 770
f 771 770 772
f 772 770 103
f 772 103 773
f 773 103 102
f 155 774 101
f 101 774 102
f 773 102 97
f 97 102 774
f 775 773 100
f 100 773 97
f 773 775 772
f 772 775 776
f 772 776 771
f 771 776 777
f 200 606 197
f 197 606 777
f 189 71 778
f 778 71 74
f 97 774 98
f 98 774 155
f 183 161 184
f 184 161 291
f 777 276 197
f 197 276 143
f 777 606 771
f 771 606 605
f 613 612 697
f 697 612 202
f 595 697 279
f 279 697 202
f 73 276 776
f 776 276 777
f 776 775 73
f 73 775 74
f 100 778 775
f 775 778 74
f 778 100 189
f 189 100 99
f 245 242 99
f 99 242 189
f 131 33 256
f 28 1 95
f 95 1 62
f 27 2 28
f 28 2 1
f 265 115 266
f 266 115 114
f 95 62 69
f 69 62 64
f 62 61 64
f 64 61 65
f 61 13 65
f 65 13 130
f 13 12 130
f 130 12 14
f 31 11 32
f 32 11 268
f 15 12 31
f 31 12 11
f 31 30 15
f 15 30 231
f 30 106 231
f 231 106 232
f 287 237 106
f 106 237 232
f 254 90 287
f 287 90 237
f 253 44 254
f 254 44 90
f 253 249 44
f 44 249 7
f 267 127 268
f 268 127 126
f 10 3 241
f 241 3 116
f 3 2 116
f 116 2 114
f 2 27 114
f 114 27 266
f 27 26 266
f 266 26 113
f 26 286 113
f 113 286 110
f 286 243 110
f 110 243 255
f 243 242 255
f 255 242 256
f 242 245 256
f 256 245 131
f 245 244 131
f 131 244 132
f 265 37 115
f 115 37 41
f 41 37 42
f 42 37 40
f 92 91 40
f 40 91 42
f 236 233 92
f 92 233 91
f 191 194 236
f 236 194 233
f 258 285 244
f 244 285 132
f 257 55 258
f 258 55 285
f 257 154 201
f 201 154 185
f 56 201 204
f 204 201 180
f 55 257 56
f 56 257 201
f 204 85 56
f 56 85 52
f 86 122 53
f 53 122 79
f 212 215 86
f 86 215 122
f 211 216 212
f 212 216 215
f 192 280 211
f 211 280 216
f 191 240 192
f 192 240 280
f 249 124 7
f 7 124 8
f 124 127 8
f 8 127 241
f 127 267 241
f 241 267 10
f 10 267 9
f 9 267 11
f 93 39 235
f 235 39 240
f 39 123 240
f 240 123 280
f 123 119 280
f 280 119 216
f 119 118 216
f 216 118 215
f 118 120 215
f 215 120 122
f 120 121 122
f 122 121 79
f 121 109 79
f 79 109 80

