# https://github.com/mikedh/trimesh
v -0.17927778 -0.01206009 -19.41086960 0.25098039 0.27450980 0.65882353
v -0.17627138 -0.00403220 -19.41820908 0.25098039 0.27450980 0.65882353
v -0.16903406 -0.01162065 -19.41731262 0.25098039 0.27450980 0.65882353
v -0.17253220 -0.01861220 -19.40823936 0.25098039 0.27450980 0.65882353
v -0.15874918 0.00595370 -19.42963791 0.25098039 0.27450980 0.65882353
v -0.15032907 0.01403749 -19.42585373 0.25098039 0.27450980 0.65882353
v -0.14520501 0.00061890 -19.42346191 0.25098039 0.27450980 0.65882353
v -0.15326160 -0.00438334 -19.42774773 0.25098039 0.27450980 0.65882353
v -0.16761398 -0.02342027 -19.40449715 0.25098039 0.27450980 0.65882353
v -0.16383287 -0.01791809 -19.41575623 0.25098039 0.27450980 0.65882353
v -0.16469574 -0.02278592 -19.39994049 0.25098039 0.27450980 0.65882353
v -0.17175359 -0.02381135 -19.38607025 0.25098039 0.27450980 0.65882353
v -0.17246582 -0.02579971 -19.39304733 0.25098039 0.27450980 0.65882353
v -0.17730454 -0.02738187 -19.37951469 0.25098039 0.27450980 0.65882353
v -0.17373958 -0.01413582 -19.38056946 0.25098039 0.27450980 0.65882353
v -0.18459019 -0.02339470 -19.37415504 0.25098039 0.27450980 0.65882353
v -0.20146026 -0.00047502 -19.38501930 0.25098039 0.27450980 0.65882353
v -0.21199444 0.00251760 -19.39376450 0.25098039 0.27450980 0.65882353
v -0.21726222 -0.01280888 -19.38853645 0.25098039 0.27450980 0.65882353
v -0.20574902 -0.01480464 -19.38059998 0.25098039 0.27450980 0.65882353
v -0.22756168 -0.00612472 -19.40626335 0.25098039 0.27450980 0.65882353
v -0.22248028 -0.01049393 -19.39617157 0.25098039 0.27450980 0.65882353
v -0.21783833 0.00530051 -19.40059090 0.25098039 0.27450980 0.65882353
v -0.22259322 0.00840841 -19.40936089 0.25098039 0.27450980 0.65882353
v -0.19016597 -0.00323705 -19.41888809 0.25098039 0.27450980 0.65882353
v -0.18781297 0.00521894 -19.42463875 0.25098039 0.27450980 0.65882353
v -0.18438068 0.00269999 -19.42100525 0.25098039 0.27450980 0.65882353
v -0.18627462 -0.00525292 -19.41552162 0.25098039 0.27450980 0.65882353
v -0.15197390 -0.01982502 -19.39953804 0.25098039 0.27450980 0.65882353
v -0.15762067 -0.00989955 -19.39152145 0.25098039 0.27450980 0.65882353
v -0.16209057 -0.01691495 -19.39307785 0.25098039 0.27450980 0.65882353
v -0.15480554 -0.02291416 -19.40381432 0.25098039 0.27450980 0.65882353
v -0.18444206 0.02505576 -19.44573975 0.25098039 0.27450980 0.65882353
v -0.18327418 0.03892776 -19.44440651 0.25098039 0.27450980 0.65882353
v -0.17887837 0.03888560 -19.44029617 0.25098039 0.27450980 0.65882353
v -0.18135734 0.02637388 -19.44181633 0.25098039 0.27450980 0.65882353
v -0.16181555 0.03154826 -19.42871857 0.25098039 0.27450980 0.65882353
v -0.16521832 0.04058542 -19.42767715 0.25098039 0.27450980 0.65882353
v -0.16090211 0.04883711 -19.41783524 0.25098039 0.27450980 0.65882353
v -0.15815727 0.03975286 -19.41548347 0.25098039 0.27450980 0.65882353
v -0.15588570 0.02224392 -19.42775917 0.25098039 0.27450980 0.65882353
v -0.15196952 0.02939144 -19.41666412 0.25098039 0.27450980 0.65882353
v -0.14650039 0.01913781 -19.41581345 0.25098039 0.27450980 0.65882353
v -0.14103101 0.00391632 -19.41544151 0.25098039 0.27450980 0.65882353
v -0.19447996 0.04039196 -19.45083427 0.25098039 0.27450980 0.65882353
v -0.19679007 0.03049372 -19.45325661 0.25098039 0.27450980 0.65882353
v -0.18322623 -0.07286047 -19.38864708 0.25098039 0.27450980 0.65882353
v -0.18730824 -0.07271322 -19.39303780 0.25098039 0.27450980 0.65882353
v -0.18742184 -0.06894774 -19.39189148 0.25098039 0.27450980 0.65882353
v -0.18354337 -0.06978834 -19.38747787 0.25098039 0.27450980 0.65882353
v -0.21435776 0.04084568 -19.44554520 0.25098039 0.27450980 0.65882353
v -0.21907195 0.04430423 -19.43699455 0.25098039 0.27450980 0.65882353
v -0.21690735 0.05006158 -19.44084549 0.25098039 0.27450980 0.65882353
v -0.21093252 0.04718247 -19.44778061 0.25098039 0.27450980 0.65882353
v -0.21871510 0.03235180 -19.44251251 0.25098039 0.27450980 0.65882353
v -0.22128189 0.03589527 -19.43180847 0.25098039 0.27450980 0.65882353
v -0.18787295 -0.07956634 -19.37846375 0.25098039 0.27450980 0.65882353
v -0.18373966 -0.07752397 -19.38086891 0.25098039 0.27450980 0.65882353
v -0.18503608 -0.07384393 -19.37801361 0.25098039 0.27450980 0.65882353
v -0.18968397 -0.07519268 -19.37597084 0.25098039 0.27450980 0.65882353
v -0.17552239 -0.02405749 -19.39948654 0.25098039 0.27450980 0.65882353
v -0.18122903 -0.01983123 -19.40544128 0.25098039 0.27450980 0.65882353
v -0.18311095 -0.03753162 -19.39174843 0.25098039 0.27450980 0.65882353
v -0.18359773 -0.03036974 -19.39652824 0.25098039 0.27450980 0.65882353
v -0.17822587 -0.02942539 -19.39216614 0.25098039 0.27450980 0.65882353
v -0.17880410 -0.03507736 -19.38757706 0.25098039 0.27450980 0.65882353
v -0.20002913 -0.02237605 -19.41186523 0.25098039 0.27450980 0.65882353
v -0.19636738 -0.01206866 -19.41598701 0.25098039 0.27450980 0.65882353
v -0.19223329 -0.01443677 -19.41132545 0.25098039 0.27450980 0.65882353
v -0.19440106 -0.02620281 -19.40643883 0.25098039 0.27450980 0.65882353
v -0.20493031 -0.01006063 -19.42734909 0.25098039 0.27450980 0.65882353
v -0.20809983 -0.02017481 -19.42212296 0.25098039 0.27450980 0.65882353
v -0.21272540 -0.01771903 -19.42916489 0.25098039 0.27450980 0.65882353
v -0.20908822 -0.01145416 -19.43233109 0.25098039 0.27450980 0.65882353
v -0.21138626 -0.03763221 -19.41080475 0.25098039 0.27450980 0.65882353
v -0.21421379 -0.04360507 -19.40683174 0.25098039 0.27450980 0.65882353
v -0.21633920 -0.04413093 -19.40796852 0.25098039 0.27450980 0.65882353
v -0.21359712 -0.03665625 -19.41316986 0.25098039 0.27450980 0.65882353
v -0.21501565 0.05626562 -19.44356728 0.25098039 0.27450980 0.65882353
v -0.20726588 0.05334631 -19.44901276 0.25098039 0.27450980 0.65882353
v -0.23635720 -0.00175336 -19.42586708 0.25098039 0.27450980 0.65882353
v -0.23448262 0.00037705 -19.43675232 0.25098039 0.27450980 0.65882353
v -0.24027914 -0.01174247 -19.43549538 0.25098039 0.27450980 0.65882353
v -0.24099675 -0.01068518 -19.42382050 0.25098039 0.27450980 0.65882353
v -0.21856502 0.04538050 -19.42634201 0.25098039 0.27450980 0.65882353
v -0.21862052 0.05181143 -19.43072128 0.25098039 0.27450980 0.65882353
v -0.19376363 -0.08090643 -19.37932205 0.25098039 0.27450980 0.65882353
v -0.19551419 -0.07630440 -19.37740898 0.25098039 0.27450980 0.65882353
v -0.15081260 0.02297030 -19.40317917 0.25098039 0.27450980 0.65882353
v -0.14246517 0.00536365 -19.40494919 0.25098039 0.27450980 0.65882353
v -0.15775174 0.03603829 -19.40406418 0.25098039 0.27450980 0.65882353
v -0.16323730 0.04516037 -19.40501976 0.25098039 0.27450980 0.65882353
v -0.16516188 0.05337949 -19.40701866 0.25098039 0.27450980 0.65882353
v -0.18924253 -0.03340388 -19.39891243 0.25098039 0.27450980 0.65882353
v -0.18636921 -0.01355289 -19.41018867 0.25098039 0.27450980 0.65882353
v -0.19340533 -0.00206839 -19.42255592 0.25098039 0.27450980 0.65882353
v -0.21278635 -0.00244679 -19.44706535 0.25098039 0.27450980 0.65882353
v -0.20862317 0.00653072 -19.45076752 0.25098039 0.27450980 0.65882353
v -0.20221896 0.00178774 -19.44336510 0.25098039 0.27450980 0.65882353
v -0.20757344 -0.00483011 -19.44119263 0.25098039 0.27450980 0.65882353
v -0.22983742 -0.00342421 -19.44478607 0.25098039 0.27450980 0.65882353
v -0.22322118 -0.00829270 -19.44561386 0.25098039 0.27450980 0.65882353
v -0.22711672 -0.01573139 -19.44282722 0.25098039 0.27450980 0.65882353
v -0.23441201 -0.01291447 -19.44216537 0.25098039 0.27450980 0.65882353
v -0.14535058 -0.01620393 -19.39806557 0.25098039 0.27450980 0.65882353
v -0.15339449 -0.00364171 -19.39122772 0.25098039 0.27450980 0.65882353
v -0.20633593 0.03668439 -19.45143700 0.25098039 0.27450980 0.65882353
v -0.20206405 0.04319008 -19.45111656 0.25098039 0.27450980 0.65882353
v -0.19985647 0.05156589 -19.45097733 0.25098039 0.27450980 0.65882353
v -0.18478628 0.01493399 -19.43482018 0.25098039 0.27450980 0.65882353
v -0.17916948 0.02726574 -19.43927193 0.25098039 0.27450980 0.65882353
v -0.17624386 0.02640542 -19.43654060 0.25098039 0.27450980 0.65882353
v -0.18377459 0.01459213 -19.43186569 0.25098039 0.27450980 0.65882353
v -0.17272936 0.00500912 -19.42672348 0.25098039 0.27450980 0.65882353
v -0.16677231 0.01584172 -19.43173599 0.25098039 0.27450980 0.65882353
v -0.16571607 -0.00393420 -19.42660713 0.25098039 0.27450980 0.65882353
v -0.17270204 0.04061147 -19.43494797 0.25098039 0.27450980 0.65882353
v -0.17611679 0.04892027 -19.44147682 0.25098039 0.27450980 0.65882353
v -0.16990861 0.04976315 -19.43489456 0.25098039 0.27450980 0.65882353
v -0.18437129 0.04958024 -19.44701576 0.25098039 0.27450980 0.65882353
v -0.19270709 0.05026469 -19.45051956 0.25098039 0.27450980 0.65882353
v -0.21952683 0.05989954 -19.43284225 0.25098039 0.27450980 0.65882353
v -0.16531143 0.05023726 -19.42767143 0.25098039 0.27450980 0.65882353
v -0.15048663 -0.01230038 -19.42555046 0.25098039 0.27450980 0.65882353
v -0.14738059 -0.01950952 -19.42346382 0.25098039 0.27450980 0.65882353
v -0.15375447 -0.02311002 -19.41979218 0.25098039 0.27450980 0.65882353
v -0.15731415 -0.01703949 -19.42211342 0.25098039 0.27450980 0.65882353
v -0.18151903 -0.03421588 -19.37499428 0.25098039 0.27450980 0.65882353
v -0.17799017 -0.03535435 -19.38175201 0.25098039 0.27450980 0.65882353
v -0.17484796 -0.02816169 -19.38603592 0.25098039 0.27450980 0.65882353
v -0.19144413 0.01591705 -19.44636536 0.25098039 0.27450980 0.65882353
v -0.20152694 0.02087981 -19.45303535 0.25098039 0.27450980 0.65882353
v -0.18889719 -0.04050530 -19.39373207 0.25098039 0.27450980 0.65882353
v -0.19048733 -0.06962503 -19.37442589 0.25098039 0.27450980 0.65882353
v -0.18514678 -0.06860787 -19.37674332 0.25098039 0.27450980 0.65882353
v -0.18319812 -0.04896319 -19.37505913 0.25098039 0.27450980 0.65882353
v -0.18944010 -0.05025744 -19.37163544 0.25098039 0.27450980 0.65882353
v -0.19719869 -0.04664275 -19.39036179 0.25098039 0.27450980 0.65882353
v -0.19086337 -0.04424345 -19.39260483 0.25098039 0.27450980 0.65882353
v -0.19234937 -0.04620490 -19.39221764 0.25098039 0.27450980 0.65882353
v -0.19841278 -0.04933511 -19.39181328 0.25098039 0.27450980 0.65882353
v -0.21929243 -0.04015217 -19.41588974 0.25098039 0.27450980 0.65882353
v -0.21735224 -0.03351321 -19.42032242 0.25098039 0.27450980 0.65882353
v -0.20880964 -0.03047764 -19.37936211 0.25098039 0.27450980 0.65882353
v -0.19856189 -0.02823408 -19.36989021 0.25098039 0.27450980 0.65882353
v -0.19487098 -0.01729303 -19.37452698 0.25098039 0.27450980 0.65882353
v -0.20446856 -0.02032427 -19.41768265 0.25098039 0.27450980 0.65882353
v -0.20819679 -0.02971813 -19.41475105 0.25098039 0.27450980 0.65882353
v -0.21102092 -0.02882291 -19.41774178 0.25098039 0.27450980 0.65882353
v -0.19317514 -0.03634921 -19.39920425 0.25098039 0.27450980 0.65882353
v -0.19460472 -0.04223880 -19.39503670 0.25098039 0.27450980 0.65882353
v -0.19755417 -0.04007765 -19.39835548 0.25098039 0.27450980 0.65882353
v -0.19673420 -0.03421716 -19.40269089 0.25098039 0.27450980 0.65882353
v -0.22972444 0.01267530 -19.43853378 0.25098039 0.27450980 0.65882353
v -0.22450124 0.00802273 -19.44814873 0.25098039 0.27450980 0.65882353
v -0.18202543 -0.07485335 -19.38439178 0.25098039 0.27450980 0.65882353
v -0.18270561 -0.07159673 -19.38231277 0.25098039 0.27450980 0.65882353
v -0.20077056 -0.01020413 -19.42150116 0.25098039 0.27450980 0.65882353
v -0.19088465 -0.00479148 -19.38079262 0.25098039 0.27450980 0.65882353
v -0.19668482 -0.00108868 -19.42684746 0.25098039 0.27450980 0.65882353
v -0.23544478 -0.02537611 -19.41392136 0.25098039 0.27450980 0.65882353
v -0.23311718 -0.02951447 -19.42031670 0.25098039 0.27450980 0.65882353
v -0.23256342 -0.03549359 -19.41878128 0.25098039 0.27450980 0.65882353
v -0.23622420 -0.03412879 -19.41385651 0.25098039 0.27450980 0.65882353
v -0.19938603 -0.06515656 -19.39235687 0.25098039 0.27450980 0.65882353
v -0.19389527 -0.06476695 -19.39452171 0.25098039 0.27450980 0.65882353
v -0.19342519 -0.06942876 -19.39401245 0.25098039 0.27450980 0.65882353
v -0.19891144 -0.07090192 -19.39218140 0.25098039 0.27450980 0.65882353
v -0.18529820 -0.04268241 -19.39097977 0.25098039 0.27450980 0.65882353
v -0.18046862 -0.04121348 -19.38668251 0.25098039 0.27450980 0.65882353
v -0.18199715 -0.04667098 -19.38740730 0.25098039 0.27450980 0.65882353
v -0.18724269 -0.04675125 -19.39080238 0.25098039 0.27450980 0.65882353
v -0.17994414 -0.04160250 -19.38039017 0.25098039 0.27450980 0.65882353
v -0.18049772 -0.04735873 -19.38099098 0.25098039 0.27450980 0.65882353
v -0.20279717 -0.06670061 -19.38670158 0.25098039 0.27450980 0.65882353
v -0.20175090 -0.06886385 -19.37938881 0.25098039 0.27450980 0.65882353
v -0.20251819 -0.05091516 -19.37767792 0.25098039 0.27450980 0.65882353
v -0.20261598 -0.05215770 -19.38581467 0.25098039 0.27450980 0.65882353
v -0.21867925 0.02298068 -19.41152573 0.25098039 0.27450980 0.65882353
v -0.22393051 0.02408586 -19.42146683 0.25098039 0.27450980 0.65882353
v -0.22821908 0.00970294 -19.41938591 0.25098039 0.27450980 0.65882353
v -0.23352712 -0.00399667 -19.41724586 0.25098039 0.27450980 0.65882353
v -0.23688707 -0.01702223 -19.41533279 0.25098039 0.27450980 0.65882353
v -0.23288801 -0.01754113 -19.40383339 0.25098039 0.27450980 0.65882353
v -0.23067902 0.01152578 -19.42719078 0.25098039 0.27450980 0.65882353
v -0.20458631 -0.04275317 -19.38595963 0.25098039 0.27450980 0.65882353
v -0.20352149 -0.03932856 -19.37753868 0.25098039 0.27450980 0.65882353
v -0.20793191 -0.03807319 -19.38175964 0.25098039 0.27450980 0.65882353
v -0.20048246 -0.00121456 -19.43339729 0.25098039 0.27450980 0.65882353
v -0.18223010 -0.06692190 -19.38145638 0.25098039 0.27450980 0.65882353
v -0.18505529 0.04951280 -19.39854813 0.25098039 0.27450980 0.65882353
v -0.19792654 0.05103147 -19.40307426 0.25098039 0.27450980 0.65882353
v -0.19721122 0.04267796 -19.40037346 0.25098039 0.27450980 0.65882353
v -0.18249604 0.04050418 -19.39562607 0.25098039 0.27450980 0.65882353
v -0.18704785 -0.06461557 -19.39271164 0.25098039 0.27450980 0.65882353
v -0.18234639 -0.06530099 -19.38796616 0.25098039 0.27450980 0.65882353
v -0.22172311 -0.03367390 -19.42544937 0.25098039 0.27450980 0.65882353
v -0.22295019 -0.03929077 -19.42065239 0.25098039 0.27450980 0.65882353
v -0.22670579 -0.03936002 -19.42128181 0.25098039 0.27450980 0.65882353
v -0.22579812 -0.03548720 -19.42795944 0.25098039 0.27450980 0.65882353
v -0.22530770 0.02558021 -19.42729568 0.25098039 0.27450980 0.65882353
v -0.24128366 -0.02106702 -19.43611526 0.25098039 0.27450980 0.65882353
v -0.24259572 -0.01911317 -19.42537498 0.25098039 0.27450980 0.65882353
v -0.21987396 0.03654365 -19.42300415 0.25098039 0.27450980 0.65882353
v -0.21583818 0.03599107 -19.41390228 0.25098039 0.27450980 0.65882353
v -0.21432772 0.04541561 -19.41598320 0.25098039 0.27450980 0.65882353
v -0.22590438 -0.02705314 -19.39299774 0.25098039 0.27450980 0.65882353
v -0.21459511 0.01991513 -19.40433502 0.25098039 0.27450980 0.65882353
v -0.21142259 0.03370418 -19.40792847 0.25098039 0.27450980 0.65882353
v -0.20937684 0.04482216 -19.41006660 0.25098039 0.27450980 0.65882353
v -0.20888455 0.05299599 -19.41160965 0.25098039 0.27450980 0.65882353
v -0.21413073 0.05266581 -19.41819000 0.25098039 0.27450980 0.65882353
v -0.19686693 -0.07013973 -19.37593460 0.25098039 0.27450980 0.65882353
v -0.20109829 -0.07586441 -19.38123703 0.25098039 0.27450980 0.65882353
v -0.21509987 0.06138185 -19.42002678 0.25098039 0.27450980 0.65882353
v -0.20869750 0.06118096 -19.41306114 0.25098039 0.27450980 0.65882353
v -0.20509183 0.03153841 -19.40124321 0.25098039 0.27450980 0.65882353
v -0.19629347 0.02837630 -19.39409637 0.25098039 0.27450980 0.65882353
v -0.20819126 0.01820421 -19.39812279 0.25098039 0.27450980 0.65882353
v -0.19995670 0.01413297 -19.39069176 0.25098039 0.27450980 0.65882353
v -0.22054926 -0.02426522 -19.38356018 0.25098039 0.27450980 0.65882353
v -0.19733389 -0.08868168 -19.39270401 0.25098039 0.27450980 0.65882353
v -0.20083909 -0.07888604 -19.38874435 0.25098039 0.27450980 0.65882353
v -0.19831058 -0.07577408 -19.39311600 0.25098039 0.27450980 0.65882353
v -0.19692957 -0.08610404 -19.39635086 0.25098039 0.27450980 0.65882353
v -0.20204294 -0.07315484 -19.38749695 0.25098039 0.27450980 0.65882353
v -0.19928811 -0.08046936 -19.38330078 0.25098039 0.27450980 0.65882353
v -0.18605280 0.00920698 -19.38566208 0.25098039 0.27450980 0.65882353
v -0.19985621 -0.04511007 -19.39444351 0.25098039 0.27450980 0.65882353
v -0.17848554 0.02386857 -19.39018822 0.25098039 0.27450980 0.65882353
v -0.17076397 -0.00128003 -19.38271141 0.25098039 0.27450980 0.65882353
v -0.16440317 0.00923277 -19.38774109 0.25098039 0.27450980 0.65882353
v -0.16885972 0.03848013 -19.39543915 0.25098039 0.27450980 0.65882353
v -0.15983899 0.02411646 -19.39309502 0.25098039 0.27450980 0.65882353
v -0.17396809 0.05534080 -19.40130806 0.25098039 0.27450980 0.65882353
v -0.17298609 0.04691263 -19.39818001 0.25098039 0.27450980 0.65882353
v -0.15086655 0.00947584 -19.39476585 0.25098039 0.27450980 0.65882353
v -0.18296060 -0.08076339 -19.39511681 0.25098039 0.27450980 0.65882353
v -0.18790302 -0.08020354 -19.39835548 0.25098039 0.27450980 0.65882353
v -0.18537363 0.05768991 -19.40065384 0.25098039 0.27450980 0.65882353
v -0.16056611 -0.01165519 -19.42424965 0.25098039 0.27450980 0.65882353
v -0.19433439 0.00703201 -19.43703651 0.25098039 0.27450980 0.65882353
v -0.19184212 0.00669517 -19.43186188 0.25098039 0.27450980 0.65882353
v -0.20602368 0.01220962 -19.45210838 0.25098039 0.27450980 0.65882353
v -0.19745214 0.00807871 -19.44444656 0.25098039 0.27450980 0.65882353
v -0.18073791 -0.08291026 -19.39054108 0.25098039 0.27450980 0.65882353
v -0.21885210 -0.04616873 -19.40293121 0.25098039 0.27450980 0.65882353
v -0.21980216 -0.04424757 -19.40251350 0.25098039 0.27450980 0.65882353
v -0.14287026 -0.00784772 -19.42316628 0.25098039 0.27450980 0.65882353
v -0.14091067 -0.01496027 -19.42219543 0.25098039 0.27450980 0.65882353
v -0.13583235 -0.01406130 -19.40951920 0.25098039 0.27450980 0.65882353
v -0.13628054 -0.01377735 -19.41690445 0.25098039 0.27450980 0.65882353
v -0.13819842 -0.00516080 -19.41611862 0.25098039 0.27450980 0.65882353
v -0.13824207 -0.00480630 -19.40791893 0.25098039 0.27450980 0.65882353
v -0.18578959 0.01473537 -19.43733215 0.25098039 0.27450980 0.65882353
v -0.18818155 0.01456389 -19.44067192 0.25098039 0.27450980 0.65882353
v -0.22395620 0.02313548 -19.44095612 0.25098039 0.27450980 0.65882353
v -0.21863487 0.01773217 -19.44996071 0.25098039 0.27450980 0.65882353
v -0.18334585 -0.04130035 -19.37467194 0.25098039 0.27450980 0.65882353
v -0.18900231 -0.03288458 -19.37036896 0.25098039 0.27450980 0.65882353
v -0.18977016 -0.04119185 -19.37124634 0.25098039 0.27450980 0.65882353
v -0.19668189 -0.04909796 -19.37226105 0.25098039 0.27450980 0.65882353
v -0.20241046 -0.04641926 -19.38993454 0.25098039 0.27450980 0.65882353
v -0.20182618 -0.04546023 -19.38569832 0.25098039 0.27450980 0.65882353
v -0.17229173 0.02104206 -19.43407249 0.25098039 0.27450980 0.65882353
v -0.17991704 0.01119095 -19.42835808 0.25098039 0.27450980 0.65882353
v -0.16008985 -0.02077278 -19.41407776 0.25098039 0.27450980 0.65882353
v -0.15661085 -0.02479444 -19.41219711 0.25098039 0.27450980 0.65882353
v -0.20160320 -0.03059787 -19.40822029 0.25098039 0.27450980 0.65882353
v -0.22451662 -0.03885989 -19.39144135 0.25098039 0.27450980 0.65882353
v -0.21967880 -0.03643301 -19.38377762 0.25098039 0.27450980 0.65882353
v -0.20420639 -0.03833764 -19.40407753 0.25098039 0.27450980 0.65882353
v -0.18468395 -0.08871654 -19.38527489 0.25098039 0.27450980 0.65882353
v -0.18139148 -0.08556644 -19.38764381 0.25098039 0.27450980 0.65882353
v -0.19699451 -0.03962564 -19.37134552 0.25098039 0.27450980 0.65882353
v -0.21510795 -0.02707706 -19.42513847 0.25098039 0.27450980 0.65882353
v -0.22798145 -0.03403223 -19.39697838 0.25098039 0.27450980 0.65882353
v -0.22424793 -0.04365865 -19.39750862 0.25098039 0.27450980 0.65882353
v -0.23533483 -0.01914097 -19.44165230 0.25098039 0.27450980 0.65882353
v -0.19738126 0.05953310 -19.40544701 0.25098039 0.27450980 0.65882353
v -0.19332340 -0.07375558 -19.39553261 0.25098039 0.27450980 0.65882353
v -0.19299626 -0.08124024 -19.39921951 0.25098039 0.27450980 0.65882353
v -0.19579536 -0.08979975 -19.38868713 0.25098039 0.27450980 0.65882353
v -0.19095638 -0.08971008 -19.38481522 0.25098039 0.27450980 0.65882353
v -0.21181613 0.02618554 -19.45091438 0.25098039 0.27450980 0.65882353
v -0.19035643 0.00597900 -19.42842102 0.25098039 0.27450980 0.65882353
v -0.14427921 -0.00268590 -19.39813423 0.25098039 0.27450980 0.65882353
v -0.13953030 -0.01470915 -19.40256691 0.25098039 0.27450980 0.65882353
v -0.20621821 -0.04278720 -19.40155029 0.25098039 0.27450980 0.65882353
v -0.23780817 -0.02373400 -19.42038155 0.25098039 0.27450980 0.65882353
v -0.23497854 -0.02697009 -19.40449524 0.25098039 0.27450980 0.65882353
v -0.23702599 -0.03614445 -19.40493011 0.25098039 0.27450980 0.65882353
v -0.23287883 -0.04033794 -19.39973640 0.25098039 0.27450980 0.65882353
v -0.22653058 -0.04477424 -19.39906883 0.25098039 0.27450980 0.65882353
v -0.19416091 -0.09372003 -19.39272308 0.25098039 0.27450980 0.65882353
v -0.18923269 -0.09370971 -19.38878441 0.25098039 0.27450980 0.65882353
v -0.18299529 -0.09231279 -19.38896942 0.25098039 0.27450980 0.65882353
v -0.18010427 -0.08888193 -19.39056015 0.25098039 0.27450980 0.65882353
v -0.18024841 -0.08518990 -19.39301682 0.25098039 0.27450980 0.65882353
v -0.19558176 -0.09224700 -19.39690590 0.25098039 0.27450980 0.65882353
v -0.19495493 -0.08941496 -19.39984894 0.25098039 0.27450980 0.65882353
v -0.19228911 -0.08377463 -19.40086746 0.25098039 0.27450980 0.65882353
v -0.19358149 -0.09366111 -19.40115166 0.25098039 0.27450980 0.65882353
v -0.19062045 -0.09782606 -19.39941788 0.25098039 0.27450980 0.65882353
v -0.17653561 -0.09677757 -19.40090942 0.25098039 0.27450980 0.65882353
v -0.17995197 -0.09657346 -19.39598083 0.25098039 0.27450980 0.65882353
v -0.18054992 -0.09816547 -19.39815331 0.25098039 0.27450980 0.65882353
v -0.17820692 -0.09906196 -19.40251923 0.25098039 0.27450980 0.65882353
v -0.17694421 -0.10097072 -19.40717125 0.25098039 0.27450980 0.65882353
v -0.17469224 -0.09854008 -19.40596962 0.25098039 0.27450980 0.65882353
v -0.18521698 -0.09835873 -19.39727783 0.25098039 0.27450980 0.65882353
v -0.18270352 -0.09999648 -19.40338135 0.25098039 0.27450980 0.65882353
v -0.18646540 -0.09942327 -19.40531158 0.25098039 0.27450980 0.65882353
v -0.18412745 -0.10154187 -19.40993118 0.25098039 0.27450980 0.65882353
v -0.18072885 -0.10225704 -19.40834808 0.25098039 0.27450980 0.65882353
v -0.18798524 -0.09868149 -19.40094185 0.25098039 0.27450980 0.65882353
v -0.18631506 -0.09805059 -19.39490318 0.25098039 0.27450980 0.65882353
v -0.17523152 -0.10019851 -19.41021919 0.25098039 0.27450980 0.65882353
v -0.17675038 -0.10215432 -19.40984726 0.25098039 0.27450980 0.65882353
v -0.17969687 -0.10286092 -19.41127014 0.25098039 0.27450980 0.65882353
v -0.17850867 -0.10164418 -19.41374207 0.25098039 0.27450980 0.65882353
v -0.17834869 -0.09103308 -19.39449692 0.25098039 0.27450980 0.65882353
v -0.17545265 -0.09442870 -19.40146446 0.25098039 0.27450980 0.65882353
v -0.17477936 -0.09567142 -19.40731621 0.25098039 0.27450980 0.65882353
v -0.17541245 -0.09761191 -19.41135597 0.25098039 0.27450980 0.65882353
v -0.17623557 -0.09162299 -19.40444183 0.25098039 0.27450980 0.65882353
v -0.17608710 -0.09337489 -19.40872574 0.25098039 0.27450980 0.65882353
v -0.17704275 -0.09486530 -19.41228294 0.25098039 0.27450980 0.65882353
v -0.17861967 -0.08939674 -19.40739632 0.25098039 0.27450980 0.65882353
v -0.17827606 -0.09177760 -19.41053772 0.25098039 0.27450980 0.65882353
v -0.18162817 -0.08437788 -19.39811134 0.25098039 0.27450980 0.65882353
v -0.17926803 -0.08632686 -19.39512634 0.25098039 0.27450980 0.65882353
v -0.17815109 -0.09304339 -19.41269112 0.25098039 0.27450980 0.65882353
v -0.17886832 -0.09977648 -19.41479874 0.25098039 0.27450980 0.65882353
v -0.18957910 -0.09740577 -19.40568924 0.25098039 0.27450980 0.65882353
v -0.18585888 -0.09922212 -19.41143990 0.25098039 0.27450980 0.65882353
v -0.19037226 -0.09543268 -19.40691566 0.25098039 0.27450980 0.65882353
v -0.18701479 -0.09750908 -19.41260910 0.25098039 0.27450980 0.65882353
v -0.18330601 -0.10123389 -19.41446114 0.25098039 0.27450980 0.65882353
v -0.18248215 -0.10222705 -19.41228294 0.25098039 0.27450980 0.65882353
v -0.18319154 -0.08234281 -19.39632225 0.25098039 0.27450980 0.65882353
v -0.18836132 -0.08188375 -19.39954948 0.25098039 0.27450980 0.65882353
v -0.18718621 -0.08342678 -19.40118217 0.25098039 0.27450980 0.65882353
v -0.18294691 -0.08846272 -19.40953445 0.25098039 0.27450980 0.65882353
v -0.19090635 -0.08520932 -19.40293884 0.25098039 0.27450980 0.65882353
v -0.19291955 -0.09060583 -19.40363312 0.25098039 0.27450980 0.65882353
v -0.18969220 -0.09326721 -19.40894890 0.25098039 0.27450980 0.65882353
v -0.18771139 -0.09054928 -19.41007805 0.25098039 0.27450980 0.65882353
v -0.18663965 -0.09500270 -19.41304016 0.25098039 0.27450980 0.65882353
v -0.18505318 -0.09295567 -19.41294670 0.25098039 0.27450980 0.65882353
v -0.18149370 -0.09135499 -19.41237450 0.25098039 0.27450980 0.65882353
v -0.18339074 -0.09620807 -19.41513062 0.25098039 0.27450980 0.65882353
v -0.18362990 -0.09915783 -19.41510773 0.25098039 0.27450980 0.65882353
v -0.17961739 -0.09648337 -19.41477966 0.25098039 0.27450980 0.65882353
v -0.18325466 -0.09436802 -19.41458893 0.25098039 0.27450980 0.65882353
v -0.18031722 -0.09414453 -19.41379356 0.25098039 0.27450980 0.65882353
v -0.20621413 -0.07553684 -19.39767647 0.25098039 0.27450980 0.65882353
v -0.21020380 -0.07486814 -19.40306664 0.25098039 0.27450980 0.65882353
v -0.21170166 -0.07210893 -19.40045929 0.25098039 0.27450980 0.65882353
v -0.20802537 -0.07270671 -19.39621544 0.25098039 0.27450980 0.65882353
v -0.21301958 -0.08311323 -19.38748932 0.25098039 0.27450980 0.65882353
v -0.20785028 -0.08037785 -19.39008522 0.25098039 0.27450980 0.65882353
v -0.20985696 -0.07677367 -19.38691330 0.25098039 0.27450980 0.65882353
v -0.21621680 -0.07856695 -19.38455963 0.25098039 0.27450980 0.65882353
v -0.22021179 -0.08354906 -19.38951492 0.25098039 0.27450980 0.65882353
v -0.22318146 -0.07854538 -19.38669586 0.25098039 0.27450980 0.65882353
v -0.21647355 -0.07234401 -19.38252449 0.25098039 0.27450980 0.65882353
v -0.21001956 -0.07108874 -19.38575935 0.25098039 0.27450980 0.65882353
v -0.20753124 -0.04996309 -19.38557625 0.25098039 0.27450980 0.65882353
v -0.21372366 -0.04981863 -19.38180351 0.25098039 0.27450980 0.65882353
v -0.21388635 -0.04916181 -19.40333557 0.25098039 0.27450980 0.65882353
v -0.21803948 -0.05003091 -19.40216064 0.25098039 0.27450980 0.65882353
v -0.20589338 -0.07740013 -19.39398193 0.25098039 0.27450980 0.65882353
v -0.20764738 -0.07437780 -19.39157677 0.25098039 0.27450980 0.65882353
v -0.22065014 -0.06863605 -19.40332222 0.25098039 0.27450980 0.65882353
v -0.21501029 -0.06832381 -19.40377617 0.25098039 0.27450980 0.65882353
v -0.21546260 -0.07198557 -19.40369606 0.25098039 0.27450980 0.65882353
v -0.22097668 -0.07353207 -19.40340233 0.25098039 0.27450980 0.65882353
v -0.20463926 -0.04904623 -19.39441681 0.25098039 0.27450980 0.65882353
v -0.20904799 -0.04850899 -19.39941216 0.25098039 0.27450980 0.65882353
v -0.20492217 -0.04976545 -19.39019966 0.25098039 0.27450980 0.65882353
v -0.22612287 -0.06987479 -19.39927483 0.25098039 0.27450980 0.65882353
v -0.22827554 -0.07113922 -19.39266777 0.25098039 0.27450980 0.65882353
v -0.22653949 -0.05020773 -19.39027596 0.25098039 0.27450980 0.65882353
v -0.22530434 -0.05100879 -19.39688492 0.25098039 0.27450980 0.65882353
v -0.20701160 -0.07005771 -19.39052391 0.25098039 0.27450980 0.65882353
v -0.20990464 -0.06901656 -19.40076065 0.25098039 0.27450980 0.65882353
v -0.20660907 -0.06922175 -19.39623070 0.25098039 0.27450980 0.65882353
v -0.22359242 -0.07137639 -19.38545799 0.25098039 0.27450980 0.65882353
v -0.22690794 -0.07819555 -19.39437866 0.25098039 0.27450980 0.65882353
v -0.21709803 -0.09028805 -19.40912628 0.25098039 0.27450980 0.65882353
v -0.22274607 -0.08121861 -19.40326691 0.25098039 0.27450980 0.65882353
v -0.21922021 -0.07811356 -19.40598488 0.25098039 0.27450980 0.65882353
v -0.21457943 -0.08699877 -19.41254616 0.25098039 0.27450980 0.65882353
v -0.22517036 -0.07611709 -19.40042114 0.25098039 0.27450980 0.65882353
v -0.22359706 -0.08320760 -19.39738274 0.25098039 0.27450980 0.65882353
v -0.20111722 -0.08414457 -19.40683746 0.25098039 0.27450980 0.65882353
v -0.20555809 -0.08323979 -19.41179657 0.25098039 0.27450980 0.65882353
v -0.19992708 -0.08665297 -19.40280724 0.25098039 0.27450980 0.65882353
v -0.22134441 -0.04934765 -19.38365364 0.25098039 0.27450980 0.65882353
v -0.20656531 -0.09213503 -19.39632034 0.25098039 0.27450980 0.65882353
v -0.20134163 -0.08899210 -19.39927864 0.25098039 0.27450980 0.65882353
v -0.21468279 -0.07518215 -19.40614891 0.25098039 0.27450980 0.65882353
v -0.21027547 -0.08428890 -19.41387367 0.25098039 0.27450980 0.65882353
v -0.21718620 -0.09243148 -19.40483856 0.25098039 0.27450980 0.65882353
v -0.21360512 -0.09262810 -19.39767075 0.25098039 0.27450980 0.65882353
v -0.21393690 -0.09580485 -19.40858650 0.25098039 0.27450980 0.65882353
v -0.20973858 -0.09684173 -19.40311050 0.25098039 0.27450980 0.65882353
v -0.20294559 -0.09554634 -19.40127754 0.25098039 0.27450980 0.65882353
v -0.19904834 -0.09109066 -19.40279579 0.25098039 0.27450980 0.65882353
v -0.19876455 -0.08784463 -19.40515137 0.25098039 0.27450980 0.65882353
v -0.21417969 -0.09315772 -19.41242599 0.25098039 0.27450980 0.65882353
v -0.21230984 -0.08926096 -19.41487503 0.25098039 0.27450980 0.65882353
v -0.20875114 -0.08536687 -19.41444397 0.25098039 0.27450980 0.65882353
v -0.20996228 -0.09301507 -19.41757774 0.25098039 0.27450980 0.65882353
v -0.20885184 -0.09723819 -19.41544724 0.25098039 0.27450980 0.65882353
v -0.18951073 -0.09489163 -19.41783524 0.25098039 0.27450980 0.65882353
v -0.19316316 -0.09567385 -19.41301155 0.25098039 0.27450980 0.65882353
v -0.19475541 -0.09723336 -19.41456985 0.25098039 0.27450980 0.65882353
v -0.19145449 -0.09666660 -19.41900253 0.25098039 0.27450980 0.65882353
v -0.19772822 -0.09780220 -19.40887833 0.25098039 0.27450980 0.65882353
v -0.19825833 -0.09841419 -19.41140556 0.25098039 0.27450980 0.65882353
v -0.20292364 -0.09903299 -19.41283226 0.25098039 0.27450980 0.65882353
v -0.19873253 -0.09784567 -19.41752243 0.25098039 0.27450980 0.65882353
v -0.20289090 -0.09651452 -19.42000771 0.25098039 0.27450980 0.65882353
v -0.19925050 -0.09651937 -19.42442894 0.25098039 0.27450980 0.65882353
v -0.19507380 -0.09796839 -19.42230797 0.25098039 0.27450980 0.65882353
v -0.20501745 -0.09798066 -19.41620827 0.25098039 0.27450980 0.65882353
v -0.19012615 -0.09649824 -19.42238235 0.25098039 0.27450980 0.65882353
v -0.18862870 -0.09464829 -19.42343330 0.25098039 0.27450980 0.65882353
v -0.20490326 -0.09991390 -19.40994644 0.25098039 0.27450980 0.65882353
v -0.19688046 -0.09269359 -19.40564537 0.25098039 0.27450980 0.65882353
v -0.19178873 -0.09269836 -19.41281891 0.25098039 0.27450980 0.65882353
v -0.18877994 -0.09169688 -19.41858101 0.25098039 0.27450980 0.65882353
v -0.18910229 -0.09194028 -19.42479706 0.25098039 0.27450980 0.65882353
v -0.19204949 -0.08867056 -19.41469574 0.25098039 0.27450980 0.65882353
v -0.18978065 -0.08888865 -19.42006493 0.25098039 0.27450980 0.65882353
v -0.19055203 -0.08961619 -19.42500305 0.25098039 0.27450980 0.65882353
v -0.19424084 -0.08507108 -19.41736221 0.25098039 0.27450980 0.65882353
v -0.19233438 -0.08628305 -19.42244720 0.25098039 0.27450980 0.65882353
v -0.19969161 -0.08474017 -19.40916443 0.25098039 0.27450980 0.65882353
v -0.19714573 -0.08794399 -19.40660477 0.25098039 0.27450980 0.65882353
v -0.19199237 -0.08771002 -19.42451859 0.25098039 0.27450980 0.65882353
v -0.19156121 -0.09595417 -19.42707825 0.25098039 0.27450980 0.65882353
v -0.19156441 -0.09277370 -19.42810249 0.25098039 0.27450980 0.65882353
v -0.19239718 -0.09689612 -19.42567062 0.25098039 0.27450980 0.65882353
v -0.20453702 -0.09537519 -19.42103004 0.25098039 0.27450980 0.65882353
v -0.19993305 -0.09478074 -19.42565536 0.25098039 0.27450980 0.65882353
v -0.20524514 -0.09282876 -19.42247009 0.25098039 0.27450980 0.65882353
v -0.20006682 -0.09279609 -19.42712784 0.25098039 0.27450980 0.65882353
v -0.19606820 -0.09509774 -19.42839432 0.25098039 0.27450980 0.65882353
v -0.19561440 -0.09629271 -19.42733765 0.25098039 0.27450980 0.65882353
v -0.20077115 -0.08533635 -19.40820122 0.25098039 0.27450980 0.65882353
v -0.20505658 -0.08423605 -19.41218185 0.25098039 0.27450980 0.65882353
v -0.20427728 -0.08329233 -19.41262627 0.25098039 0.27450980 0.65882353
v -0.19877188 -0.08430097 -19.42059898 0.25098039 0.27450980 0.65882353
v -0.20824175 -0.08475194 -19.41528511 0.25098039 0.27450980 0.65882353
v -0.20968385 -0.08919165 -19.41777992 0.25098039 0.27450980 0.65882353
v -0.20521143 -0.08987217 -19.42282486 0.25098039 0.27450980 0.65882353
v -0.20279002 -0.08640759 -19.42268181 0.25098039 0.27450980 0.65882353
v -0.20060587 -0.09073711 -19.42772484 0.25098039 0.27450980 0.65882353
v -0.20016873 -0.08787756 -19.42609787 0.25098039 0.27450980 0.65882353
v -0.19604960 -0.08564223 -19.42441368 0.25098039 0.27450980 0.65882353
v -0.19644557 -0.09127674 -19.42965508 0.25098039 0.27450980 0.65882353
v -0.19609416 -0.09358784 -19.42930603 0.25098039 0.27450980 0.65882353
v -0.19231184 -0.09071604 -19.42782593 0.25098039 0.27450980 0.65882353
v -0.19707122 -0.08880908 -19.42819405 0.25098039 0.27450980 0.65882353
v -0.19371557 -0.08807976 -19.42667198 0.25098039 0.27450980 0.65882353
v -0.22203617 -0.06797064 -19.41012383 0.25098039 0.27450980 0.65882353
v -0.22238943 -0.06547758 -19.41591644 0.25098039 0.27450980 0.65882353
v -0.22322431 -0.06374551 -19.41503143 0.25098039 0.27450980 0.65882353
v -0.22274172 -0.06572907 -19.40934181 0.25098039 0.27450980 0.65882353
v -0.23329134 -0.07318246 -19.40734100 0.25098039 0.27450980 0.65882353
v -0.22839126 -0.07314660 -19.40621376 0.25098039 0.27450980 0.65882353
v -0.23007420 -0.06928143 -19.40389252 0.25098039 0.27450980 0.65882353
v -0.23557541 -0.06817094 -19.40404510 0.25098039 0.27450980 0.65882353
v -0.23630619 -0.07299468 -19.41254234 0.25098039 0.27450980 0.65882353
v -0.24035971 -0.06667200 -19.40874863 0.25098039 0.27450980 0.65882353
v -0.23639825 -0.06245723 -19.40159988 0.25098039 0.27450980 0.65882353
v -0.23041078 -0.06476785 -19.40207672 0.25098039 0.27450980 0.65882353
v -0.22785476 -0.04899979 -19.39994049 0.25098039 0.27450980 0.65882353
v -0.23454833 -0.04727833 -19.39978027 0.25098039 0.27450980 0.65882353
v -0.22462574 -0.07078963 -19.40737152 0.25098039 0.27450980 0.65882353
v -0.22542058 -0.06781668 -19.40597725 0.25098039 0.27450980 0.65882353
v -0.22969151 -0.05970769 -19.42164421 0.25098039 0.27450980 0.65882353
v -0.22564942 -0.06050193 -19.41949272 0.25098039 0.27450980 0.65882353
v -0.22598559 -0.06287526 -19.41989517 0.25098039 0.27450980 0.65882353
v -0.22974749 -0.06267882 -19.42183495 0.25098039 0.27450980 0.65882353
v -0.21939413 -0.04683161 -19.40778160 0.25098039 0.27450980 0.65882353
v -0.22166529 -0.04419725 -19.41325951 0.25098039 0.27450980 0.65882353
v -0.22226349 -0.04902860 -19.40341949 0.25098039 0.27450980 0.65882353
v -0.23623715 -0.05967585 -19.42020988 0.25098039 0.27450980 0.65882353
v -0.24161942 -0.05956280 -19.41437149 0.25098039 0.27450980 0.65882353
v -0.23916809 -0.04404493 -19.41358566 0.25098039 0.27450980 0.65882353
v -0.23445694 -0.04366528 -19.41790390 0.25098039 0.27450980 0.65882353
v -0.22564042 -0.06457094 -19.40469933 0.25098039 0.27450980 0.65882353
v -0.22220951 -0.06140129 -19.41467857 0.25098039 0.27450980 0.65882353
v -0.22198954 -0.06325293 -19.40890121 0.25098039 0.27450980 0.65882353
v -0.24046208 -0.06023831 -19.40645790 0.25098039 0.27450980 0.65882353
v -0.23986115 -0.06560456 -19.41645813 0.25098039 0.27450980 0.65882353
v -0.22832550 -0.07922780 -19.42954636 0.25098039 0.27450980 0.65882353
v -0.23476656 -0.06707387 -19.42267418 0.25098039 0.27450980 0.65882353
v -0.22922313 -0.06445505 -19.42295074 0.25098039 0.27450980 0.65882353
v -0.22521743 -0.07614718 -19.43029213 0.25098039 0.27450980 0.65882353
v -0.23552674 -0.06389380 -19.42144966 0.25098039 0.27450980 0.65882353
v -0.23767138 -0.06999723 -19.41849327 0.25098039 0.27450980 0.65882353
v -0.21540251 -0.07756206 -19.41861916 0.25098039 0.27450980 0.65882353
v -0.21731900 -0.07472923 -19.42364311 0.25098039 0.27450980 0.65882353
v -0.21736559 -0.08027243 -19.41557884 0.25098039 0.27450980 0.65882353
v -0.23957920 -0.04505586 -19.40492058 0.25098039 0.27450980 0.65882353
v -0.22750038 -0.04325324 -19.41881561 0.25098039 0.27450980 0.65882353
v -0.22317868 -0.08520716 -19.41580963 0.25098039 0.27450980 0.65882353
v -0.21950412 -0.08293352 -19.41476250 0.25098039 0.27450980 0.65882353
v -0.22536162 -0.06420407 -19.42054176 0.25098039 0.27450980 0.65882353
v -0.22109981 -0.07415052 -19.42847252 0.25098039 0.27450980 0.65882353
v -0.23001370 -0.08203457 -19.42567825 0.25098039 0.27450980 0.65882353
v -0.22840756 -0.08419960 -19.41932487 0.25098039 0.27450980 0.65882353
v -0.22597554 -0.08452649 -19.42984772 0.25098039 0.27450980 0.65882353
v -0.22364701 -0.08746376 -19.42438316 0.25098039 0.27450980 0.65882353
v -0.21871932 -0.08816514 -19.42063522 0.25098039 0.27450980 0.65882353
v -0.21577865 -0.08506455 -19.41852570 0.25098039 0.27450980 0.65882353
v -0.21441713 -0.08201490 -19.41857910 0.25098039 0.27450980 0.65882353
v -0.22480014 -0.08016988 -19.43226242 0.25098039 0.27450980 0.65882353
v -0.22273466 -0.07688403 -19.43125725 0.25098039 0.27450980 0.65882353
v -0.22081253 -0.07508403 -19.42789268 0.25098039 0.27450980 0.65882353
v -0.22162375 -0.07830890 -19.43406105 0.25098039 0.27450980 0.65882353
v -0.22025758 -0.08390925 -19.43395996 0.25098039 0.27450980 0.65882353
v -0.20274049 -0.08294875 -19.43211937 0.25098039 0.27450980 0.65882353
v -0.20733128 -0.08471931 -19.42881775 0.25098039 0.27450980 0.65882353
v -0.20799193 -0.08482630 -19.42990112 0.25098039 0.27450980 0.65882353
v -0.20352492 -0.08352482 -19.43346977 0.25098039 0.27450980 0.65882353
v -0.21333489 -0.08780638 -19.42647171 0.25098039 0.27450980 0.65882353
v -0.21253850 -0.08720847 -19.42849350 0.25098039 0.27450980 0.65882353
v -0.21590504 -0.08681851 -19.43096542 0.25098039 0.27450980 0.65882353
v -0.21065006 -0.08435427 -19.43447495 0.25098039 0.27450980 0.65882353
v -0.21445122 -0.08009665 -19.43693352 0.25098039 0.27450980 0.65882353
v -0.20975840 -0.07898261 -19.43884659 0.25098039 0.27450980 0.65882353
v -0.20615387 -0.08300128 -19.43731689 0.25098039 0.27450980 0.65882353
v -0.21795547 -0.08370615 -19.43410683 0.25098039 0.27450980 0.65882353
v -0.20178644 -0.08241198 -19.43589973 0.25098039 0.27450980 0.65882353
v -0.19984072 -0.08262523 -19.43526459 0.25098039 0.27450980 0.65882353
v -0.21819894 -0.08806462 -19.42950058 0.25098039 0.27450980 0.65882353
v -0.21149129 -0.08584350 -19.42194939 0.25098039 0.27450980 0.65882353
v -0.20576295 -0.08337832 -19.42655945 0.25098039 0.27450980 0.65882353
v -0.20097545 -0.08149213 -19.42967987 0.25098039 0.27450980 0.65882353
v -0.19933437 -0.07949679 -19.43335152 0.25098039 0.27450980 0.65882353
v -0.20557709 -0.07967093 -19.42558861 0.25098039 0.27450980 0.65882353
v -0.20172369 -0.07850912 -19.42893982 0.25098039 0.27450980 0.65882353
v -0.20012267 -0.07687583 -19.43231964 0.25098039 0.27450980 0.65882353
v -0.20643251 -0.07635754 -19.42605972 0.25098039 0.27450980 0.65882353
v -0.20331964 -0.07561380 -19.42935371 0.25098039 0.27450980 0.65882353
v -0.21329407 -0.07856897 -19.42071915 0.25098039 0.27450980 0.65882353
v -0.21185040 -0.08213102 -19.42043114 0.25098039 0.27450980 0.65882353
v -0.20180173 -0.07528722 -19.43190193 0.25098039 0.27450980 0.65882353
v -0.20181541 -0.08067737 -19.43931389 0.25098039 0.27450980 0.65882353
v -0.20128995 -0.07669764 -19.43804932 0.25098039 0.27450980 0.65882353
v -0.20329320 -0.08117250 -19.43838501 0.25098039 0.27450980 0.65882353
v -0.21578802 -0.07871863 -19.43721962 0.25098039 0.27450980 0.65882353
v -0.21013078 -0.07706462 -19.44019508 0.25098039 0.27450980 0.65882353
v -0.21611431 -0.07573788 -19.43677139 0.25098039 0.27450980 0.65882353
v -0.21056864 -0.07438146 -19.43968391 0.25098039 0.27450980 0.65882353
v -0.20603099 -0.07786808 -19.44105148 0.25098039 0.27450980 0.65882353
v -0.20615938 -0.07872362 -19.44028664 0.25098039 0.27450980 0.65882353
v -0.21512812 -0.07860167 -19.42047882 0.25098039 0.27450980 0.65882353
v -0.21746853 -0.07561497 -19.42413712 0.25098039 0.27450980 0.65882353
v -0.21612051 -0.07511924 -19.42325974 0.25098039 0.27450980 0.65882353
v -0.20881185 -0.07248396 -19.42839432 0.25098039 0.27450980 0.65882353
v -0.21939135 -0.07390910 -19.42695808 0.25098039 0.27450980 0.65882353
v -0.21970630 -0.07503827 -19.43240166 0.25098039 0.27450980 0.65882353
v -0.21468009 -0.07311604 -19.43480110 0.25098039 0.27450980 0.65882353
v -0.21189603 -0.07166448 -19.43214989 0.25098039 0.27450980 0.65882353
v -0.20995286 -0.07223836 -19.43771744 0.25098039 0.27450980 0.65882353
v -0.20914835 -0.07183033 -19.43489647 0.25098039 0.27450980 0.65882353
v -0.20546389 -0.07227521 -19.43127060 0.25098039 0.27450980 0.65882353
v -0.20593803 -0.07349598 -19.43808365 0.25098039 0.27450980 0.65882353
v -0.20598049 -0.07528670 -19.44037247 0.25098039 0.27450980 0.65882353
v -0.20186521 -0.07454400 -19.43592072 0.25098039 0.27450980 0.65882353
v -0.20593126 -0.07236035 -19.43592072 0.25098039 0.27450980 0.65882353
v -0.20287748 -0.07324185 -19.43416786 0.25098039 0.27450980 0.65882353
v -0.22415717 -0.04318213 -19.41711998 0.25098039 0.27450980 0.65882353
v -0.22432186 -0.05335779 -19.43106651 0.25098039 0.27450980 0.65882353
v -0.22472596 -0.05252580 -19.43539810 0.25098039 0.27450980 0.65882353
v -0.22610047 -0.05025276 -19.43578339 0.25098039 0.27450980 0.65882353
v -0.22521825 -0.04978736 -19.43144226 0.25098039 0.27450980 0.65882353
v -0.23413183 -0.05666876 -19.42654228 0.25098039 0.27450980 0.65882353
v -0.22952606 -0.05616499 -19.42604637 0.25098039 0.27450980 0.65882353
v -0.23125631 -0.05160623 -19.42505264 0.25098039 0.27450980 0.65882353
v -0.23584618 -0.05193117 -19.42532158 0.25098039 0.27450980 0.65882353
v -0.23769705 -0.05673046 -19.43040848 0.25098039 0.27450980 0.65882353
v -0.23941576 -0.05225260 -19.42961693 0.25098039 0.27450980 0.65882353
v -0.23677680 -0.04817259 -19.42460442 0.25098039 0.27450980 0.65882353
v -0.23189415 -0.04775564 -19.42444038 0.25098039 0.27450980 0.65882353
v -0.23254903 -0.03326483 -19.42203712 0.25098039 0.27450980 0.65882353
v -0.23786978 -0.03132361 -19.42239761 0.25098039 0.27450980 0.65882353
v -0.23484442 -0.02580237 -19.44131088 0.25098039 0.27450980 0.65882353
v -0.22947428 -0.02552207 -19.44086266 0.25098039 0.27450980 0.65882353
v -0.23032469 -0.03381804 -19.44054604 0.25098039 0.27450980 0.65882353
v -0.23506773 -0.03294882 -19.44150734 0.25098039 0.27450980 0.65882353
v -0.22623500 -0.05480183 -19.42786407 0.25098039 0.27450980 0.65882353
v -0.22687636 -0.05057652 -19.42733765 0.25098039 0.27450980 0.65882353
v -0.23401883 -0.04744952 -19.44222832 0.25098039 0.27450980 0.65882353
v -0.22941735 -0.04723639 -19.44046593 0.25098039 0.27450980 0.65882353
v -0.22802898 -0.05008603 -19.43970871 0.25098039 0.27450980 0.65882353
v -0.23184383 -0.05106378 -19.44255257 0.25098039 0.27450980 0.65882353
v -0.22615021 -0.02820318 -19.43719482 0.25098039 0.27450980 0.65882353
v -0.22522561 -0.03076632 -19.43278313 0.25098039 0.27450980 0.65882353
v -0.22522864 -0.03428585 -19.43267250 0.25098039 0.27450980 0.65882353
v -0.22703899 -0.03527928 -19.43690491 0.25098039 0.27450980 0.65882353
v -0.22678031 -0.03537187 -19.42696190 0.25098039 0.27450980 0.65882353
v -0.23813486 -0.04798833 -19.44082260 0.25098039 0.27450980 0.65882353
v -0.24159102 -0.04852435 -19.43577003 0.25098039 0.27450980 0.65882353
v -0.24350533 -0.03068228 -19.43581581 0.25098039 0.27450980 0.65882353
v -0.23991755 -0.03106397 -19.43970871 0.25098039 0.27450980 0.65882353
v -0.22793773 -0.04820984 -19.42685318 0.25098039 0.27450980 0.65882353
v -0.22660717 -0.04729337 -19.43643188 0.25098039 0.27450980 0.65882353
v -0.22600216 -0.04801422 -19.43198395 0.25098039 0.27450980 0.65882353
v -0.24106029 -0.04827746 -19.42874908 0.25098039 0.27450980 0.65882353
v -0.23951210 -0.05270573 -19.43634415 0.25098039 0.27450980 0.65882353
v -0.23055214 -0.06256346 -19.44410515 0.25098039 0.27450980 0.65882353
v -0.23485705 -0.05521233 -19.44222832 0.25098039 0.27450980 0.65882353
v -0.23020999 -0.05351973 -19.44281197 0.25098039 0.27450980 0.65882353
v -0.22796836 -0.06058805 -19.44448090 0.25098039 0.27450980 0.65882353
v -0.23620699 -0.05199447 -19.44134140 0.25098039 0.27450980 0.65882353
v -0.23769566 -0.05709039 -19.43741226 0.25098039 0.27450980 0.65882353
v -0.22112741 -0.05971136 -19.43288231 0.25098039 0.27450980 0.65882353
v -0.22261988 -0.05848379 -19.43835449 0.25098039 0.27450980 0.65882353
v -0.22226487 -0.06137776 -19.43013573 0.25098039 0.27450980 0.65882353
v -0.24265298 -0.03023432 -19.42720604 0.25098039 0.27450980 0.65882353
v -0.22876772 -0.06534971 -19.42947197 0.25098039 0.27450980 0.65882353
v -0.22460349 -0.06379487 -19.42883110 0.25098039 0.27450980 0.65882353
v -0.22665258 -0.05271544 -19.43943214 0.25098039 0.27450980 0.65882353
v -0.22508079 -0.05890661 -19.44240379 0.25098039 0.27450980 0.65882353
v -0.23287232 -0.06476144 -19.44062614 0.25098039 0.27450980 0.65882353
v -0.23303892 -0.06546635 -19.43382263 0.25098039 0.27450980 0.65882353
v -0.22845915 -0.06795499 -19.44227028 0.25098039 0.27450980 0.65882353
v -0.22879915 -0.06927328 -19.43552780 0.25098039 0.27450980 0.65882353
v -0.22419786 -0.06770185 -19.43113708 0.25098039 0.27450980 0.65882353
v -0.22209299 -0.06442211 -19.43047333 0.25098039 0.27450980 0.65882353
v -0.22060242 -0.06186377 -19.43148994 0.25098039 0.27450980 0.65882353
v -0.22709855 -0.06428184 -19.44553566 0.25098039 0.27450980 0.65882353
v -0.22554040 -0.06156177 -19.44567680 0.25098039 0.27450980 0.65882353
v -0.22364041 -0.05936462 -19.44311905 0.25098039 0.27450980 0.65882353
v -0.22365946 -0.06536631 -19.44683266 0.25098039 0.27450980 0.65882353
v -0.22231333 -0.06904761 -19.44389153 0.25098039 0.27450980 0.65882353
v -0.21006441 -0.06547092 -19.43947792 0.25098039 0.27450980 0.65882353
v -0.21359196 -0.06580893 -19.43693924 0.25098039 0.27450980 0.65882353
v -0.21391481 -0.06673357 -19.43772697 0.25098039 0.27450980 0.65882353
v -0.21011649 -0.06654919 -19.43962097 0.25098039 0.27450980 0.65882353
v -0.21854046 -0.06769374 -19.43461800 0.25098039 0.27450980 0.65882353
v -0.21775213 -0.06819794 -19.43633080 0.25098039 0.27450980 0.65882353
v -0.22061896 -0.06952873 -19.43846130 0.25098039 0.27450980 0.65882353
v -0.21557111 -0.06907903 -19.44095802 0.25098039 0.27450980 0.65882353
v -0.21729825 -0.06828344 -19.44616508 0.25098039 0.27450980 0.65882353
v -0.21323819 -0.06803174 -19.44742966 0.25098039 0.27450980 0.65882353
v -0.21204866 -0.06896149 -19.44280434 0.25098039 0.27450980 0.65882353
v -0.22060797 -0.06951934 -19.44306946 0.25098039 0.27450980 0.65882353
v -0.20812011 -0.06720754 -19.44156647 0.25098039 0.27450980 0.65882353
v -0.20689964 -0.06658134 -19.44172096 0.25098039 0.27450980 0.65882353
v -0.22277817 -0.07015289 -19.43744469 0.25098039 0.27450980 0.65882353
v -0.21815127 -0.06391863 -19.43273735 0.25098039 0.27450980 0.65882353
v -0.21228901 -0.06352051 -19.43653107 0.25098039 0.27450980 0.65882353
v -0.20816922 -0.06380981 -19.43976593 0.25098039 0.27450980 0.65882353
v -0.20624730 -0.06471367 -19.44305229 0.25098039 0.27450980 0.65882353
v -0.21265714 -0.06104571 -19.43680000 0.25098039 0.27450980 0.65882353
v -0.20801404 -0.06158211 -19.44035912 0.25098039 0.27450980 0.65882353
v -0.20637400 -0.06254917 -19.44365692 0.25098039 0.27450980 0.65882353
v -0.21357889 -0.05848360 -19.43884850 0.25098039 0.27450980 0.65882353
v -0.20921473 -0.05989324 -19.44184494 0.25098039 0.27450980 0.65882353
v -0.21880126 -0.05816431 -19.43610573 0.25098039 0.27450980 0.65882353
v -0.21796775 -0.06063846 -19.43360710 0.25098039 0.27450980 0.65882353
v -0.20761338 -0.06136533 -19.44396400 0.25098039 0.27450980 0.65882353
v -0.20754901 -0.06807497 -19.44527245 0.25098039 0.27450980 0.65882353
v -0.20695730 -0.06536495 -19.44624329 0.25098039 0.27450980 0.65882353
v -0.20879474 -0.06883228 -19.44474792 0.25098039 0.27450980 0.65882353
v -0.21787295 -0.06760010 -19.44731331 0.25098039 0.27450980 0.65882353
v -0.21303686 -0.06724017 -19.44881821 0.25098039 0.27450980 0.65882353
v -0.21830326 -0.06548955 -19.44863510 0.25098039 0.27450980 0.65882353
v -0.21278825 -0.06521971 -19.44952965 0.25098039 0.27450980 0.65882353
v -0.20953166 -0.06758222 -19.44825172 0.25098039 0.27450980 0.65882353
v -0.21049374 -0.06844197 -19.44693375 0.25098039 0.27450980 0.65882353
v -0.21985237 -0.05920850 -19.43477631 0.25098039 0.27450980 0.65882353
v -0.22131833 -0.05868530 -19.43880844 0.25098039 0.27450980 0.65882353
v -0.22049648 -0.05788064 -19.44044685 0.25098039 0.27450980 0.65882353
v -0.21545506 -0.05772176 -19.44281960 0.25098039 0.27450980 0.65882353
v -0.22270215 -0.05905879 -19.44463730 0.25098039 0.27450980 0.65882353
v -0.22364789 -0.06214692 -19.44689178 0.25098039 0.27450980 0.65882353
v -0.21792962 -0.06264440 -19.44871140 0.25098039 0.27450980 0.65882353
v -0.21699145 -0.05958846 -19.44711685 0.25098039 0.27450980 0.65882353
v -0.21218055 -0.06312847 -19.44932365 0.25098039 0.27450980 0.65882353
v -0.21198222 -0.06047627 -19.44780350 0.25098039 0.27450980 0.65882353
v -0.21081686 -0.05908737 -19.44487381 0.25098039 0.27450980 0.65882353
v -0.20873943 -0.06356208 -19.44809532 0.25098039 0.27450980 0.65882353
v -0.20870401 -0.06537221 -19.44855881 0.25098039 0.27450980 0.65882353
v -0.20721477 -0.06334607 -19.44639206 0.25098039 0.27450980 0.65882353
v -0.20905803 -0.06182121 -19.44740295 0.25098039 0.27450980 0.65882353
v -0.20829913 -0.06143826 -19.44593430 0.25098039 0.27450980 0.65882353
v -0.23844069 -0.02678643 -19.43938446 0.25098039 0.27450980 0.65882353
v -0.14051266 -0.03036763 -19.40311050 0.25098039 0.27450980 0.65882353
v -0.14592394 -0.03242431 -19.40423393 0.25098039 0.27450980 0.65882353
v -0.14647275 -0.03374778 -19.42140198 0.25098039 0.27450980 0.65882353
v -0.14987758 -0.03577917 -19.41507721 0.25098039 0.27450980 0.65882353
v -0.14042138 -0.03122748 -19.42394257 0.25098039 0.27450980 0.65882353
v -0.13194679 -0.02670372 -19.41787720 0.25098039 0.27450980 0.65882353
v -0.13568027 -0.02785569 -19.42229652 0.25098039 0.27450980 0.65882353
v -0.14961623 -0.03516198 -19.40879250 0.25098039 0.27450980 0.65882353
v -0.13506478 -0.02783658 -19.40489388 0.25098039 0.27450980 0.65882353
v -0.13114008 -0.02596252 -19.41090012 0.25098039 0.27450980 0.65882353
v -0.13269459 -0.03596194 -19.40393448 0.25098039 0.27450980 0.65882353
v -0.12841751 -0.03438789 -19.41057014 0.25098039 0.27450980 0.65882353
v -0.12845573 -0.03528751 -19.41773415 0.25098039 0.27450980 0.65882353
v -0.13351971 -0.03557668 -19.42281723 0.25098039 0.27450980 0.65882353
v -0.13816582 -0.03695795 -19.42458916 0.25098039 0.27450980 0.65882353
v -0.13975103 -0.03722875 -19.40314484 0.25098039 0.27450980 0.65882353
v -0.14514308 -0.03872105 -19.40482330 0.25098039 0.27450980 0.65882353
v -0.14899020 -0.03968167 -19.41043282 0.25098039 0.27450980 0.65882353
v -0.14049983 -0.04541417 -19.40399933 0.25098039 0.27450980 0.65882353
v -0.13435778 -0.05306054 -19.40700340 0.25098039 0.27450980 0.65882353
v -0.12887578 -0.06302546 -19.42255020 0.25098039 0.27450980 0.65882353
v -0.12974027 -0.05632413 -19.42262268 0.25098039 0.27450980 0.65882353
v -0.12892386 -0.05714358 -19.41988373 0.25098039 0.27450980 0.65882353
v -0.12760651 -0.06306976 -19.42011070 0.25098039 0.27450980 0.65882353
v -0.12901704 -0.05151074 -19.41992569 0.25098039 0.27450980 0.65882353
v -0.12926053 -0.05333061 -19.41823387 0.25098039 0.27450980 0.65882353
v -0.13039210 -0.05273143 -19.41303253 0.25098039 0.27450980 0.65882353
v -0.12935220 -0.05811745 -19.41342735 0.25098039 0.27450980 0.65882353
v -0.13325247 -0.05464324 -19.40907669 0.25098039 0.27450980 0.65882353
v -0.13384099 -0.05860368 -19.40899086 0.25098039 0.27450980 0.65882353
v -0.12844844 -0.06349757 -19.41360664 0.25098039 0.27450980 0.65882353
v -0.12671021 -0.06651691 -19.41831779 0.25098039 0.27450980 0.65882353
v -0.12798838 -0.06816063 -19.41403008 0.25098039 0.27450980 0.65882353
v -0.12871526 -0.06799012 -19.42045403 0.25098039 0.27450980 0.65882353
v -0.12858756 -0.05144925 -19.41191101 0.25098039 0.27450980 0.65882353
v -0.13157561 -0.04580308 -19.42370224 0.25098039 0.27450980 0.65882353
v -0.13220014 -0.05462999 -19.42507362 0.25098039 0.27450980 0.65882353
v -0.13217336 -0.06260898 -19.42453575 0.25098039 0.27450980 0.65882353
v -0.13179748 -0.06822114 -19.42160034 0.25098039 0.27450980 0.65882353
v -0.13667110 -0.05413003 -19.42603683 0.25098039 0.27450980 0.65882353
v -0.13653949 -0.06147703 -19.42440414 0.25098039 0.27450980 0.65882353
v -0.13651410 -0.06639487 -19.42115402 0.25098039 0.27450980 0.65882353
v -0.14138210 -0.05422127 -19.42421341 0.25098039 0.27450980 0.65882353
v -0.14001423 -0.06097286 -19.42230415 0.25098039 0.27450980 0.65882353
v -0.14338195 -0.04161603 -19.42298126 0.25098039 0.27450980 0.65882353
v -0.13720328 -0.04252516 -19.42550087 0.25098039 0.27450980 0.65882353
v -0.13868158 -0.06463251 -19.42036819 0.25098039 0.27450980 0.65882353
v -0.12949584 -0.07054943 -19.41475677 0.25098039 0.27450980 0.65882353
v -0.13305283 -0.07072152 -19.41594124 0.25098039 0.27450980 0.65882353
v -0.13676535 -0.05803011 -19.40697479 0.25098039 0.27450980 0.65882353
v -0.13260959 -0.06375460 -19.40869331 0.25098039 0.27450980 0.65882353
v -0.13579801 -0.06398968 -19.40801811 0.25098039 0.27450980 0.65882353
v -0.14057046 -0.05650514 -19.40643501 0.25098039 0.27450980 0.65882353
v -0.13874525 -0.06393968 -19.40827942 0.25098039 0.27450980 0.65882353
v -0.13310571 -0.06859763 -19.41002083 0.25098039 0.27450980 0.65882353
v -0.13064143 -0.06696349 -19.41029358 0.25098039 0.27450980 0.65882353
v -0.14428292 -0.03778767 -19.42260551 0.25098039 0.27450980 0.65882353
v -0.14830489 -0.03850091 -19.41700935 0.25098039 0.27450980 0.65882353
v -0.14739719 -0.04194766 -19.41722107 0.25098039 0.27450980 0.65882353
v -0.14551841 -0.05402971 -19.41873550 0.25098039 0.27450980 0.65882353
v -0.14849864 -0.04386881 -19.41112900 0.25098039 0.27450980 0.65882353
v -0.14513358 -0.04507858 -19.40594101 0.25098039 0.27450980 0.65882353
v -0.14402421 -0.05594141 -19.40815353 0.25098039 0.27450980 0.65882353
v -0.14623880 -0.05485220 -19.41250038 0.25098039 0.27450980 0.65882353
v -0.14152642 -0.06322379 -19.41068840 0.25098039 0.27450980 0.65882353
v -0.14264567 -0.06218825 -19.41345978 0.25098039 0.27450980 0.65882353
v -0.14231670 -0.06163047 -19.41847038 0.25098039 0.27450980 0.65882353
v -0.13894391 -0.06717490 -19.41307449 0.25098039 0.27450980 0.65882353
v -0.13632363 -0.06855519 -19.41087914 0.25098039 0.27450980 0.65882353
v -0.13712290 -0.06841651 -19.41690826 0.25098039 0.27450980 0.65882353
v -0.14041021 -0.06521974 -19.41455460 0.25098039 0.27450980 0.65882353
v -0.13948222 -0.06558163 -19.41753197 0.25098039 0.27450980 0.65882353
v -0.22813734 -0.02042338 -19.44144058 0.25098039 0.27450980 0.65882353
v -0.22342581 -0.02320059 -19.43743324 0.25098039 0.27450980 0.65882353
v -0.22210354 -0.01767904 -19.43990517 0.25098039 0.27450980 0.65882353
v -0.21769358 -0.01061877 -19.44351578 0.25098039 0.27450980 0.65882353
v -0.21893261 -0.00123288 -19.44833755 0.25098039 0.27450980 0.65882353
v -0.21303351 -0.01170143 -19.43825150 0.25098039 0.27450980 0.65882353
v -0.21786357 -0.01912304 -19.43489265 0.25098039 0.27450980 0.65882353
v -0.22027604 -0.02707934 -19.43092155 0.25098039 0.27450980 0.65882353
v -0.20539370 -0.00546337 -19.43520737 0.25098039 0.27450980 0.65882353
f 2 3 1
f 1 3 4
f 5 6 8
f 8 6 7
f 9 4 10
f 10 4 3
f 12 13 11
f 11 13 9
f 14 12 16
f 16 12 15
f 18 19 17
f 17 19 20
f 22 23 21
f 21 23 24
f 26 27 25
f 25 27 28
f 30 31 29
f 29 31 32
f 33 34 36
f 36 34 35
f 37 38 40
f 40 38 39
f 41 42 6
f 6 42 43
f 6 43 7
f 7 43 44
f 45 34 46
f 46 34 33
f 48 49 47
f 47 49 50
f 52 53 51
f 51 53 54
f 56 52 55
f 55 52 51
f 58 59 57
f 57 59 60
f 61 62 4
f 4 62 1
f 64 65 63
f 63 65 66
f 68 69 67
f 67 69 70
f 72 73 71
f 71 73 74
f 76 77 75
f 75 77 78
f 53 79 54
f 54 79 80
f 82 83 81
f 81 83 84
f 85 86 52
f 52 86 53
f 57 60 87
f 87 60 88
f 89 90 43
f 43 90 44
f 43 42 89
f 89 42 91
f 40 39 92
f 92 39 93
f 94 70 64
f 64 70 69
f 13 61 9
f 9 61 4
f 25 28 69
f 69 28 95
f 96 25 68
f 68 25 69
f 98 99 97
f 97 99 100
f 101 102 104
f 104 102 103
f 106 30 105
f 105 30 29
f 51 54 107
f 107 54 108
f 54 80 108
f 108 80 109
f 111 112 110
f 110 112 113
f 115 5 114
f 114 5 116
f 115 41 5
f 5 41 6
f 36 35 111
f 111 35 117
f 35 118 117
f 117 118 119
f 34 120 35
f 35 120 118
f 34 45 120
f 120 45 121
f 125 126 124
f 124 126 127
f 128 129 14
f 14 129 130
f 33 131 46
f 46 131 132
f 133 94 63
f 63 94 64
f 134 135 137
f 137 135 136
f 139 140 138
f 138 140 141
f 77 142 78
f 78 142 143
f 144 145 20
f 20 145 146
f 148 149 147
f 147 149 72
f 151 152 150
f 150 152 153
f 82 101 83
f 83 101 104
f 101 82 155
f 155 82 154
f 156 157 58
f 58 157 59
f 158 68 147
f 147 68 67
f 159 146 15
f 15 146 16
f 68 158 96
f 96 158 160
f 129 66 130
f 130 66 65
f 162 163 161
f 161 163 164
f 166 167 165
f 165 167 168
f 170 171 169
f 169 171 172
f 174 171 173
f 173 171 170
f 176 177 175
f 175 177 178
f 180 181 179
f 179 181 24
f 182 183 21
f 21 183 184
f 81 185 82
f 82 185 154
f 186 187 188
f 188 187 144
f 158 71 160
f 160 71 189
f 190 135 157
f 157 135 59
f 169 172 139
f 139 172 140
f 147 72 158
f 158 72 71
f 192 193 191
f 191 193 194
f 167 166 49
f 49 166 195
f 196 190 50
f 50 190 157
f 197 198 200
f 200 198 199
f 21 24 182
f 182 24 181
f 146 159 20
f 20 159 17
f 182 181 81
f 81 181 185
f 201 185 180
f 180 185 181
f 202 203 83
f 83 203 84
f 205 206 204
f 204 206 85
f 207 22 184
f 184 22 21
f 179 24 208
f 208 24 23
f 208 209 179
f 179 209 205
f 209 210 205
f 205 210 206
f 212 206 211
f 211 206 210
f 179 205 180
f 180 205 204
f 213 176 88
f 88 176 214
f 86 85 212
f 212 85 206
f 193 217 218
f 217 219 218
f 218 219 220
f 219 18 220
f 220 18 17
f 19 221 20
f 20 221 144
f 222 223 225
f 225 223 224
f 175 226 176
f 176 226 214
f 227 87 214
f 214 87 88
f 220 17 228
f 228 17 159
f 134 213 60
f 60 213 88
f 138 229 151
f 151 229 152
f 193 192 210
f 210 192 211
f 230 194 218
f 218 194 193
f 231 232 228
f 228 232 230
f 233 234 91
f 91 234 89
f 235 236 93
f 93 236 92
f 230 232 234
f 234 232 237
f 47 238 48
f 48 238 239
f 240 191 235
f 235 191 236
f 5 8 116
f 116 8 241
f 242 243 189
f 189 243 160
f 244 245 98
f 98 245 99
f 156 246 47
f 47 246 238
f 76 247 77
f 77 247 248
f 250 125 249
f 249 125 124
f 252 253 251
f 251 253 254
f 111 110 36
f 36 110 255
f 256 33 255
f 255 33 36
f 257 258 154
f 154 258 155
f 63 169 133
f 133 169 139
f 66 170 63
f 63 170 169
f 173 170 129
f 129 170 66
f 129 128 173
f 173 128 259
f 128 260 259
f 259 260 261
f 213 134 262
f 262 134 137
f 263 264 186
f 186 264 187
f 112 265 113
f 113 265 266
f 11 267 268
f 234 233 230
f 230 233 194
f 153 269 70
f 70 269 67
f 175 178 165
f 165 178 141
f 150 153 94
f 94 153 70
f 271 221 270
f 270 221 207
f 269 153 272
f 272 153 152
f 121 45 109
f 109 45 108
f 47 50 156
f 156 50 157
f 57 273 58
f 58 273 274
f 145 275 260
f 260 275 261
f 276 149 143
f 143 149 78
f 148 269 75
f 75 269 272
f 207 277 270
f 270 277 278
f 195 196 49
f 49 196 50
f 59 135 60
f 60 135 134
f 83 104 202
f 202 104 279
f 149 148 78
f 78 148 75
f 247 278 248
f 248 278 277
f 183 182 84
f 84 182 81
f 48 239 281
f 281 239 282
f 227 223 283
f 283 223 222
f 223 226 224
f 224 226 168
f 281 282 224
f 224 282 225
f 165 168 175
f 175 168 226
f 264 263 138
f 138 263 229
f 14 16 128
f 128 16 260
f 220 228 218
f 218 228 230
f 87 227 284
f 284 227 283
f 260 16 145
f 145 16 146
f 244 98 258
f 258 98 155
f 58 274 156
f 156 274 246
f 107 285 51
f 51 285 55
f 243 286 160
f 160 286 96
f 234 237 89
f 89 237 90
f 46 132 107
f 107 132 285
f 253 252 249
f 249 252 250
f 286 26 96
f 96 26 25
f 106 105 287
f 287 105 288
f 272 152 289
f 289 152 229
f 138 151 139
f 139 151 133
f 183 290 161
f 161 290 162
f 291 292 277
f 277 292 293
f 151 150 133
f 133 150 94
f 262 275 177
f 177 275 187
f 144 187 145
f 145 187 275
f 273 57 284
f 284 57 87
f 174 136 190
f 190 136 135
f 111 117 112
f 112 117 38
f 117 119 38
f 38 119 123
f 112 38 265
f 265 38 37
f 287 288 254
f 254 288 251
f 228 159 231
f 231 159 15
f 223 227 226
f 226 227 214
f 147 67 148
f 148 67 269
f 224 168 281
f 281 168 167
f 199 163 200
f 200 163 162
f 45 46 108
f 108 46 107
f 281 167 48
f 48 167 49
f 161 164 291
f 291 164 292
f 38 123 39
f 293 294 277
f 277 294 248
f 284 283 296
f 296 283 295
f 284 296 273
f 273 296 297
f 274 273 298
f 298 273 297
f 246 274 299
f 299 274 298
f 283 222 295
f 295 222 300
f 222 225 300
f 300 225 301
f 301 225 302
f 302 225 282
f 303 304 300
f 300 304 295
f 306 307 305
f 305 307 308
f 309 310 308
f 308 310 305
f 308 307 312
f 312 307 311
f 313 314 312
f 312 314 315
f 311 316 312
f 312 316 313
f 317 304 311
f 311 304 316
f 315 309 312
f 312 309 308
f 318 319 321
f 321 319 320
f 319 318 309
f 309 318 310
f 311 307 317
f 317 307 306
f 306 297 317
f 317 297 296
f 306 322 297
f 297 322 298
f 305 323 306
f 306 323 322
f 323 305 324
f 324 305 310
f 304 317 295
f 295 317 296
f 318 325 310
f 310 325 324
f 323 324 326
f 326 324 327
f 324 325 327
f 327 325 328
f 326 327 329
f 329 327 330
f 329 331 326
f 326 331 332
f 333 330 328
f 328 330 327
f 323 326 322
f 322 326 332
f 322 332 298
f 298 332 299
f 325 318 334
f 334 318 321
f 313 316 335
f 335 316 304
f 335 336 313
f 313 336 314
f 304 303 335
f 335 303 337
f 336 335 338
f 338 335 337
f 336 339 314
f 314 339 340
f 246 299 238
f 238 299 341
f 239 342 282
f 282 342 302
f 342 239 341
f 341 239 238
f 341 331 342
f 342 331 343
f 331 329 343
f 343 329 344
f 342 343 302
f 302 343 345
f 341 299 331
f 331 299 332
f 346 301 345
f 345 301 302
f 346 303 301
f 301 303 300
f 347 337 346
f 346 337 303
f 347 346 348
f 348 346 345
f 349 347 350
f 350 347 348
f 343 344 345
f 345 344 348
f 344 351 348
f 348 351 350
f 337 347 338
f 338 347 349
f 353 338 352
f 352 338 349
f 352 355 354
f 354 355 356
f 352 349 355
f 355 349 350
f 352 354 353
f 353 354 334
f 353 334 339
f 339 334 321
f 339 336 353
f 353 336 338
f 329 330 344
f 344 330 351
f 356 351 333
f 333 351 330
f 356 355 351
f 351 355 350
f 354 356 328
f 328 356 333
f 328 325 354
f 354 325 334
f 309 315 319
f 319 315 320
f 320 340 321
f 321 340 339
f 320 315 340
f 340 315 314
f 137 136 261
f 261 136 259
f 140 166 141
f 141 166 165
f 172 171 195
f 195 171 196
f 171 174 196
f 196 174 190
f 178 177 264
f 264 177 187
f 172 195 140
f 140 195 166
f 137 261 262
f 262 261 275
f 178 264 141
f 141 264 138
f 262 177 213
f 213 177 176
f 136 174 259
f 259 174 173
f 358 359 357
f 357 359 360
f 362 363 361
f 361 363 364
f 361 364 365
f 365 364 366
f 367 368 370
f 370 368 369
f 76 371 247
f 247 371 372
f 373 374 362
f 362 374 363
f 376 377 375
f 375 377 378
f 289 229 380
f 380 229 379
f 381 379 263
f 263 379 229
f 383 384 382
f 382 384 385
f 386 368 374
f 374 368 363
f 76 289 371
f 371 289 380
f 377 376 359
f 359 376 387
f 388 386 360
f 360 386 374
f 389 383 366
f 366 383 390
f 392 393 391
f 391 393 394
f 383 382 390
f 390 382 395
f 396 365 390
f 390 365 366
f 389 366 367
f 367 366 364
f 357 397 358
f 358 397 398
f 373 399 357
f 357 399 397
f 389 367 400
f 400 367 370
f 382 385 375
f 375 385 372
f 357 360 373
f 373 360 374
f 361 401 362
f 362 401 402
f 387 388 359
f 359 388 360
f 363 368 364
f 364 368 367
f 358 398 403
f 403 398 404
f 396 392 405
f 405 392 391
f 392 395 393
f 393 395 378
f 393 403 394
f 394 403 404
f 375 378 382
f 382 378 395
f 365 396 406
f 406 396 405
f 362 402 373
f 373 402 399
f 271 270 400
f 400 270 384
f 401 361 406
f 406 361 365
f 381 369 386
f 386 369 368
f 392 396 395
f 395 396 390
f 393 378 403
f 403 378 377
f 403 377 358
f 358 377 359
f 406 405 408
f 408 405 407
f 406 408 401
f 401 408 409
f 401 409 402
f 402 409 410
f 402 410 399
f 399 410 411
f 405 391 407
f 407 391 412
f 391 394 412
f 412 394 413
f 394 404 413
f 413 404 414
f 415 416 412
f 412 416 407
f 418 419 417
f 417 419 420
f 421 422 418
f 418 422 419
f 419 422 424
f 424 422 423
f 425 426 424
f 424 426 427
f 423 428 424
f 424 428 425
f 427 420 424
f 424 420 419
f 420 429 417
f 417 429 430
f 423 422 431
f 431 422 421
f 421 409 431
f 431 409 408
f 421 432 409
f 409 432 410
f 418 433 421
f 421 433 432
f 434 433 417
f 417 433 418
f 431 416 423
f 423 416 428
f 416 431 407
f 407 431 408
f 435 434 430
f 430 434 417
f 433 434 436
f 436 434 437
f 434 435 437
f 437 435 438
f 436 437 439
f 439 437 440
f 439 441 436
f 436 441 442
f 438 443 437
f 437 443 440
f 436 442 433
f 433 442 432
f 432 442 410
f 410 442 411
f 435 430 445
f 445 430 444
f 430 429 444
f 444 429 446
f 425 428 447
f 447 428 416
f 426 425 448
f 448 425 447
f 416 415 447
f 447 415 449
f 447 449 448
f 448 449 450
f 451 452 448
f 448 452 426
f 446 452 444
f 444 452 451
f 399 411 397
f 397 411 453
f 398 454 404
f 404 454 414
f 454 398 453
f 453 398 397
f 453 441 454
f 454 441 455
f 441 439 455
f 455 439 456
f 454 455 414
f 414 455 457
f 441 453 442
f 442 453 411
f 458 413 457
f 457 413 414
f 458 415 413
f 413 415 412
f 458 459 415
f 415 459 449
f 459 458 460
f 460 458 457
f 461 459 462
f 462 459 460
f 455 456 457
f 457 456 460
f 456 463 460
f 460 463 462
f 459 461 449
f 449 461 450
f 465 450 464
f 464 450 461
f 464 467 466
f 466 467 468
f 464 461 467
f 467 461 462
f 464 466 465
f 465 466 445
f 465 445 451
f 451 445 444
f 451 448 465
f 465 448 450
f 439 440 456
f 456 440 463
f 468 463 443
f 443 463 440
f 468 467 463
f 463 467 462
f 466 468 438
f 438 468 443
f 438 435 466
f 466 435 445
f 420 427 429
f 429 427 446
f 446 427 452
f 452 427 426
f 370 369 188
f 188 369 186
f 371 376 372
f 372 376 375
f 380 379 387
f 387 379 388
f 379 381 388
f 388 381 386
f 385 384 278
f 278 384 270
f 380 387 371
f 371 387 376
f 400 370 271
f 271 370 188
f 385 278 372
f 372 278 247
f 400 384 389
f 389 384 383
f 369 381 186
f 186 381 263
f 221 271 144
f 144 271 188
f 221 19 207
f 207 19 22
f 19 18 22
f 22 18 23
f 18 219 23
f 23 219 208
f 469 470 472
f 472 470 471
f 474 475 473
f 473 475 476
f 473 476 477
f 477 476 478
f 480 481 479
f 479 481 482
f 483 484 474
f 474 484 475
f 486 487 485
f 485 487 488
f 489 490 77
f 77 490 142
f 491 489 248
f 248 489 77
f 493 494 492
f 492 494 495
f 496 480 484
f 484 480 475
f 486 497 487
f 487 497 471
f 498 496 472
f 472 496 484
f 499 493 478
f 478 493 500
f 501 502 504
f 504 502 503
f 493 492 500
f 500 492 505
f 506 477 500
f 500 477 478
f 499 478 479
f 479 478 476
f 469 507 470
f 470 507 508
f 483 509 469
f 469 509 507
f 479 482 499
f 499 482 510
f 492 495 485
f 485 495 511
f 483 469 484
f 484 469 472
f 473 512 474
f 474 512 513
f 497 498 471
f 471 498 472
f 475 480 476
f 476 480 479
f 470 508 514
f 514 508 515
f 506 502 516
f 516 502 501
f 503 502 488
f 488 502 505
f 514 515 503
f 503 515 504
f 485 488 492
f 492 488 505
f 477 506 517
f 517 506 516
f 474 513 483
f 483 513 509
f 510 292 494
f 494 292 164
f 512 473 517
f 517 473 477
f 491 481 496
f 496 481 480
f 502 506 505
f 505 506 500
f 503 488 514
f 514 488 487
f 514 487 470
f 470 487 471
f 517 516 519
f 519 516 518
f 517 519 512
f 512 519 520
f 512 520 513
f 513 520 521
f 513 521 509
f 509 521 522
f 516 501 518
f 518 501 523
f 501 504 523
f 523 504 524
f 524 504 525
f 525 504 515
f 526 527 523
f 523 527 518
f 529 530 528
f 528 530 531
f 532 533 529
f 529 533 530
f 530 533 535
f 535 533 534
f 536 537 535
f 535 537 538
f 534 539 535
f 535 539 536
f 538 531 535
f 535 531 530
f 540 541 531
f 531 541 528
f 533 532 534
f 534 532 542
f 532 520 542
f 542 520 519
f 532 543 520
f 520 543 521
f 529 544 532
f 532 544 543
f 544 529 545
f 545 529 528
f 534 542 539
f 539 542 527
f 527 542 518
f 518 542 519
f 541 546 528
f 528 546 545
f 547 544 548
f 548 544 545
f 546 549 545
f 545 549 548
f 550 547 551
f 551 547 548
f 547 550 553
f 553 550 552
f 549 554 548
f 548 554 551
f 544 547 543
f 543 547 553
f 543 553 521
f 521 553 522
f 546 541 556
f 556 541 555
f 541 540 555
f 555 540 557
f 536 539 558
f 558 539 527
f 537 536 559
f 559 536 558
f 527 526 558
f 558 526 560
f 559 558 561
f 561 558 560
f 559 562 537
f 537 562 563
f 557 563 555
f 555 563 562
f 509 522 507
f 507 522 564
f 508 565 515
f 515 565 525
f 565 508 564
f 564 508 507
f 564 552 565
f 565 552 566
f 552 550 566
f 566 550 567
f 565 566 525
f 525 566 568
f 564 522 552
f 552 522 553
f 569 524 568
f 568 524 525
f 569 526 524
f 524 526 523
f 570 560 569
f 569 560 526
f 570 569 571
f 571 569 568
f 572 570 573
f 573 570 571
f 566 567 568
f 568 567 571
f 567 574 571
f 571 574 573
f 570 572 560
f 560 572 561
f 576 561 575
f 575 561 572
f 575 578 577
f 577 578 579
f 575 572 578
f 578 572 573
f 575 577 576
f 576 577 556
f 576 556 562
f 562 556 555
f 562 559 576
f 576 559 561
f 550 551 567
f 567 551 574
f 579 574 554
f 554 574 551
f 579 578 574
f 574 578 573
f 579 554 577
f 577 554 549
f 549 546 577
f 577 546 556
f 531 538 540
f 540 538 557
f 557 538 563
f 563 538 537
f 481 294 482
f 482 294 293
f 580 486 511
f 511 486 485
f 490 489 497
f 497 489 498
f 489 491 498
f 498 491 496
f 163 495 164
f 164 495 494
f 580 490 486
f 486 490 497
f 482 293 510
f 510 293 292
f 495 163 511
f 511 163 199
f 494 493 510
f 510 493 499
f 481 491 294
f 294 491 248
f 582 583 581
f 581 583 584
f 586 587 585
f 585 587 588
f 585 588 589
f 589 588 590
f 592 593 591
f 591 593 594
f 595 596 598
f 598 596 597
f 599 600 586
f 586 600 587
f 601 602 604
f 604 602 603
f 605 606 608
f 608 606 607
f 609 607 200
f 200 607 606
f 610 611 613
f 613 611 612
f 600 614 587
f 587 614 592
f 596 605 597
f 597 605 608
f 602 615 603
f 603 615 583
f 616 614 584
f 584 614 600
f 611 618 617
f 617 618 590
f 620 621 619
f 619 621 622
f 610 623 611
f 611 623 618
f 624 589 618
f 618 589 590
f 617 590 591
f 591 590 588
f 581 625 582
f 582 625 626
f 599 627 581
f 581 627 625
f 591 594 617
f 617 594 628
f 601 610 598
f 598 610 613
f 581 584 599
f 599 584 600
f 585 629 586
f 586 629 630
f 615 616 583
f 583 616 584
f 587 592 588
f 588 592 591
f 582 626 631
f 631 626 632
f 624 620 633
f 633 620 619
f 621 620 604
f 604 620 623
f 631 632 621
f 621 632 622
f 610 601 623
f 623 601 604
f 589 624 634
f 634 624 633
f 586 630 599
f 599 630 627
f 203 202 628
f 628 202 612
f 629 585 634
f 634 585 589
f 609 593 614
f 614 593 592
f 620 624 623
f 623 624 618
f 631 621 603
f 603 621 604
f 582 631 583
f 583 631 603
f 634 633 636
f 636 633 635
f 634 636 629
f 629 636 637
f 629 637 630
f 630 637 638
f 630 638 627
f 627 638 639
f 633 619 635
f 635 619 640
f 619 622 640
f 640 622 641
f 641 622 642
f 642 622 632
f 644 635 643
f 643 635 640
f 645 646 648
f 648 646 647
f 649 650 646
f 646 650 647
f 647 650 652
f 652 650 651
f 652 653 655
f 655 653 654
f 651 656 652
f 652 656 653
f 655 648 652
f 652 648 647
f 648 657 645
f 645 657 658
f 650 649 651
f 651 649 659
f 649 637 659
f 659 637 636
f 649 660 637
f 637 660 638
f 661 660 646
f 646 660 649
f 662 661 645
f 645 661 646
f 651 659 656
f 656 659 644
f 644 659 635
f 635 659 636
f 663 662 658
f 658 662 645
f 664 661 665
f 665 661 662
f 663 666 662
f 662 666 665
f 667 664 668
f 668 664 665
f 664 667 670
f 670 667 669
f 666 671 665
f 665 671 668
f 661 664 660
f 660 664 670
f 660 670 638
f 638 670 639
f 658 672 663
f 663 672 673
f 658 657 672
f 672 657 674
f 653 656 675
f 675 656 644
f 653 675 654
f 654 675 676
f 675 644 677
f 677 644 643
f 676 675 678
f 678 675 677
f 679 680 676
f 676 680 654
f 674 680 672
f 672 680 679
f 627 639 625
f 625 639 681
f 626 682 632
f 632 682 642
f 681 682 625
f 625 682 626
f 669 683 681
f 681 683 682
f 667 684 669
f 669 684 683
f 682 683 642
f 642 683 685
f 681 639 669
f 669 639 670
f 686 641 685
f 685 641 642
f 641 686 640
f 640 686 643
f 686 687 643
f 643 687 677
f 687 686 688
f 688 686 685
f 689 687 690
f 690 687 688
f 683 684 685
f 685 684 688
f 684 691 688
f 688 691 690
f 687 689 677
f 677 689 678
f 693 678 692
f 692 678 689
f 692 695 694
f 694 695 696
f 692 689 695
f 695 689 690
f 692 694 693
f 693 694 673
f 693 673 679
f 679 673 672
f 679 676 693
f 693 676 678
f 684 667 691
f 691 667 668
f 696 691 671
f 671 691 668
f 696 695 691
f 691 695 690
f 694 696 666
f 666 696 671
f 666 663 694
f 694 663 673
f 648 655 657
f 657 655 674
f 674 655 680
f 680 655 654
f 593 162 594
f 594 162 290
f 598 597 601
f 601 597 602
f 615 608 616
f 616 608 607
f 607 609 616
f 616 609 614
f 697 595 613
f 613 595 598
f 597 608 602
f 602 608 615
f 594 290 628
f 628 290 203
f 628 612 617
f 617 612 611
f 593 609 162
f 162 609 200
f 105 29 698
f 698 29 699
f 268 126 701
f 701 126 700
f 126 125 700
f 700 125 702
f 252 703 250
f 250 703 704
f 32 268 705
f 705 268 701
f 288 105 706
f 706 105 698
f 29 32 699
f 699 32 705
f 707 251 706
f 706 251 288
f 250 704 125
f 125 704 702
f 703 252 707
f 707 252 251
f 706 708 707
f 707 708 709
f 707 709 703
f 703 709 710
f 703 710 704
f 704 710 711
f 704 711 702
f 702 711 712
f 706 698 708
f 708 698 713
f 698 699 713
f 713 699 714
f 699 705 714
f 714 705 715
f 717 708 716
f 716 708 713
f 719 720 718
f 718 720 721
f 722 723 719
f 719 723 720
f 724 725 723
f 723 725 720
f 724 726 725
f 725 726 727
f 728 721 725
f 725 721 720
f 721 728 729
f 729 728 730
f 729 731 721
f 721 731 718
f 724 723 732
f 732 723 722
f 722 710 732
f 732 710 709
f 722 733 710
f 710 733 711
f 719 734 722
f 722 734 733
f 734 719 735
f 735 719 718
f 724 732 726
f 726 732 717
f 717 732 708
f 708 732 709
f 731 736 718
f 718 736 735
f 737 734 738
f 738 734 735
f 736 739 735
f 735 739 738
f 740 737 741
f 741 737 738
f 737 740 743
f 743 740 742
f 739 744 738
f 738 744 741
f 734 737 733
f 733 737 743
f 733 743 711
f 711 743 712
f 736 731 746
f 746 731 745
f 731 729 745
f 745 729 730
f 727 726 747
f 747 726 717
f 748 727 749
f 749 727 747
f 747 717 750
f 750 717 716
f 749 747 751
f 751 747 750
f 749 752 748
f 748 752 753
f 730 753 745
f 745 753 752
f 728 725 748
f 748 725 727
f 730 728 753
f 753 728 748
f 700 702 754
f 754 702 712
f 705 701 715
f 715 701 755
f 754 755 700
f 700 755 701
f 742 756 754
f 754 756 755
f 740 757 742
f 742 757 756
f 755 756 715
f 715 756 758
f 754 712 742
f 742 712 743
f 759 714 758
f 758 714 715
f 714 759 713
f 713 759 716
f 759 760 716
f 716 760 750
f 760 759 761
f 761 759 758
f 762 760 763
f 763 760 761
f 756 757 758
f 758 757 761
f 757 764 761
f 761 764 763
f 760 762 750
f 750 762 751
f 766 751 765
f 765 751 762
f 767 765 769
f 769 765 768
f 765 762 768
f 768 762 763
f 765 767 766
f 766 767 746
f 766 746 752
f 752 746 745
f 752 749 766
f 766 749 751
f 757 740 764
f 764 740 741
f 769 764 744
f 744 764 741
f 769 768 764
f 764 768 763
f 767 769 739
f 739 769 744
f 739 736 767
f 767 736 746
f 219 217 208
f 208 217 209
f 209 217 210
f 210 217 193
f 198 580 199
f 199 580 511
f 76 75 289
f 289 75 272
f 277 207 291
f 291 207 184
f 290 183 203
f 203 183 84
f 490 580 142
f 142 580 198
f 142 198 143
f 143 198 197
f 149 276 72
f 72 276 73
f 104 103 279
f 279 103 770
f 770 596 279
f 279 596 595
f 605 596 771
f 771 596 770
f 771 770 772
f 772 770 103
f 772 103 773
f 773 103 102
f 155 774 101
f 101 774 102
f 773 102 97
f 97 102 774
f 775 773 100
f 100 773 97
f 773 775 772
f 772 775 776
f 772 776 771
f 771 776 777
f 200 606 197
f 197 606 777
f 189 71 778
f 778 71 74
f 97 774 98
f 98 774 155
f 183 161 184
f 184 161 291
f 777 276 197
f 197 276 143
f 777 606 771
f 771 606 605
f 613 612 697
f 697 612 202
f 595 697 279
f 279 697 202
f 73 276 776
f 776 276 777
f 776 775 73
f 73 775 74
f 100 778 775
f 775 778 74
f 778 100 189
f 189 100 99
f 245 242 99
f 99 242 189
f 131 33 256
f 28 1 95
f 95 1 62
f 27 2 28
f 28 2 1
f 265 115 266
f 266 115 114
f 95 62 69
f 69 62 64
f 62 61 64
f 64 61 65
f 61 13 65
f 65 13 130
f 13 12 130
f 130 12 14
f 31 11 32
f 32 11 268
f 15 12 31
f 31 12 11
f 31 30 15
f 15 30 231
f 30 106 231
f 231 106 232
f 287 237 106
f 106 237 232
f 254 90 287
f 287 90 237
f 253 44 254
f 254 44 90
f 253 249 44
f 44 249 7
f 267 127 268
f 268 127 126
f 10 3 241
f 241 3 116
f 3 2 116
f 116 2 114
f 2 27 114
f 114 27 266
f 27 26 266
f 266 26 113
f 26 286 113
f 113 286 110
f 286 243 110
f 110 243 255
f 243 242 255
f 255 242 256
f 242 245 256
f 256 245 131
f 245 244 131
f 131 244 132
f 265 37 115
f 115 37 41
f 41 37 42
f 42 37 40
f 92 91 40
f 40 91 42
f 236 233 92
f 92 233 91
f 191 194 236
f 236 194 233
f 258 285 244
f 244 285 132
f 257 55 258
f 258 55 285
f 257 154 201
f 201 154 185
f 56 201 204
f 204 201 180
f 55 257 56
f 56 257 201
f 204 85 56
f 56 85 52
f 86 122 53
f 53 122 79
f 212 215 86
f 86 215 122
f 211 216 212
f 212 216 215
f 192 280 211
f 211 280 216
f 191 240 192
f 192 240 280
f 249 124 7
f 7 124 8
f 124 127 8
f 8 127 241
f 127 267 241
f 241 267 10
f 10 267 9
f 9 267 11
f 93 39 235
f 235 39 240
f 39 123 240
f 240 123 280
f 123 119 280
f 280 119 216
f 119 118 216
f 216 118 215
f 118 120 215
f 215 120 122
f 120 121 122
f 122 121 79
f 121 109 79
f 79 109 80

