# https://github.com/mikedh/trimesh
v -0.11149712 -0.08948179 -16.50109482 0.25098039 0.27450980 0.65882353
v -0.10587698 -0.08986309 -16.51266670 0.25098039 0.27450980 0.65882353
v -0.09694017 -0.09016667 -16.50675964 0.25098039 0.27450980 0.65882353
v -0.10449276 -0.08901449 -16.49445915 0.25098039 0.27450980 0.65882353
v -0.08676256 -0.07864312 -16.52632713 0.25098039 0.27450980 0.65882353
v -0.08402079 -0.06655484 -16.52727318 0.25098039 0.27450980 0.65882353
v -0.07750760 -0.07121184 -16.51574898 0.25098039 0.27450980 0.65882353
v -0.08077721 -0.08128915 -16.51766586 0.25098039 0.27450980 0.65882353
v -0.10031651 -0.08736413 -16.48904610 0.25098039 0.27450980 0.65882353
v -0.09143564 -0.09042953 -16.50110245 0.25098039 0.27450980 0.65882353
v -0.09977470 -0.08335514 -16.48725319 0.25098039 0.27450980 0.65882353
v -0.11271804 -0.07504950 -16.47726059 0.25098039 0.27450980 0.65882353
v -0.11053247 -0.08087151 -16.47990799 0.25098039 0.27450980 0.65882353
v -0.12016125 -0.07334127 -16.47066498 0.25098039 0.27450980 0.65882353
v -0.11820661 -0.06647900 -16.48102188 0.25098039 0.27450980 0.65882353
v -0.12925276 -0.07034221 -16.47207451 0.25098039 0.27450980 0.65882353
v -0.14496601 -0.07070810 -16.49634361 0.25098039 0.27450980 0.65882353
v -0.15158476 -0.07947907 -16.50477600 0.25098039 0.27450980 0.65882353
v -0.15575308 -0.08636798 -16.49031448 0.25098039 0.27450980 0.65882353
v -0.14816573 -0.07695668 -16.48317719 0.25098039 0.27450980 0.65882353
v -0.15972117 -0.10021798 -16.50667763 0.25098039 0.27450980 0.65882353
v -0.15828338 -0.09294346 -16.49697113 0.25098039 0.27450980 0.65882353
v -0.15477370 -0.08552203 -16.51154327 0.25098039 0.27450980 0.65882353
v -0.15624991 -0.09216011 -16.51951218 0.25098039 0.27450980 0.65882353
v -0.12029308 -0.09355174 -16.51279068 0.25098039 0.27450980 0.65882353
v -0.11695305 -0.09297867 -16.52278709 0.25098039 0.27450980 0.65882353
v -0.11474591 -0.09114829 -16.51924706 0.25098039 0.27450980 0.65882353
v -0.11778100 -0.09101418 -16.50927734 0.25098039 0.27450980 0.65882353
v -0.08936869 -0.07761356 -16.48677444 0.25098039 0.27450980 0.65882353
v -0.09978908 -0.06664202 -16.48905945 0.25098039 0.27450980 0.65882353
v -0.10154296 -0.07414597 -16.48629951 0.25098039 0.27450980 0.65882353
v -0.08920568 -0.08330555 -16.48905373 0.25098039 0.27450980 0.65882353
v -0.10944118 -0.09454805 -16.54942703 0.25098039 0.27450980 0.65882353
v -0.11180800 -0.08458532 -16.55969238 0.25098039 0.27450980 0.65882353
v -0.10926098 -0.07988421 -16.55684471 0.25098039 0.27450980 0.65882353
v -0.10835473 -0.08959718 -16.54799080 0.25098039 0.27450980 0.65882353
v -0.09676805 -0.06734587 -16.54314423 0.25098039 0.27450980 0.65882353
v -0.10189027 -0.06364515 -16.54955292 0.25098039 0.27450980 0.65882353
v -0.10327067 -0.05029542 -16.54969215 0.25098039 0.27450980 0.65882353
v -0.10042904 -0.05279408 -16.54096794 0.25098039 0.27450980 0.65882353
v -0.08972147 -0.06733006 -16.53515434 0.25098039 0.27450980 0.65882353
v -0.09307082 -0.05530073 -16.53263283 0.25098039 0.27450980 0.65882353
v -0.08696225 -0.05600977 -16.52270126 0.25098039 0.27450980 0.65882353
v -0.07839778 -0.06275531 -16.51060295 0.25098039 0.27450980 0.65882353
v -0.12017468 -0.09274761 -16.56532860 0.25098039 0.27450980 0.65882353
v -0.11957003 -0.10145303 -16.55937195 0.25098039 0.27450980 0.65882353
v -0.12784395 -0.09995639 -16.43227196 0.25098039 0.27450980 0.65882353
v -0.12981682 -0.10499296 -16.43508530 0.25098039 0.27450980 0.65882353
v -0.12982109 -0.10255767 -16.43812370 0.25098039 0.27450980 0.65882353
v -0.12801132 -0.09797733 -16.43485260 0.25098039 0.27450980 0.65882353
v -0.14054501 -0.09662368 -16.56531143 0.25098039 0.27450980 0.65882353
v -0.14848998 -0.08996424 -16.56322670 0.25098039 0.27450980 0.65882353
v -0.14595604 -0.08875909 -16.56960678 0.25098039 0.27450980 0.65882353
v -0.13761595 -0.09332171 -16.57112503 0.25098039 0.27450980 0.65882353
v -0.14434567 -0.10089872 -16.55728149 0.25098039 0.27450980 0.65882353
v -0.15113944 -0.09188554 -16.55394936 0.25098039 0.27450980 0.65882353
v -0.13714489 -0.09557412 -16.42512512 0.25098039 0.27450980 0.65882353
v -0.13223031 -0.09546658 -16.42621040 0.25098039 0.27450980 0.65882353
v -0.13374168 -0.09208888 -16.42896271 0.25098039 0.27450980 0.65882353
v -0.13911539 -0.09221731 -16.42889023 0.25098039 0.27450980 0.65882353
v -0.11122341 -0.08521742 -16.48454285 0.25098039 0.27450980 0.65882353
v -0.11478835 -0.08932452 -16.49134064 0.25098039 0.27450980 0.65882353
v -0.11953053 -0.08955488 -16.46646881 0.25098039 0.27450980 0.65882353
v -0.11895517 -0.08913441 -16.47724533 0.25098039 0.27450980 0.65882353
v -0.11579271 -0.08334920 -16.47529411 0.25098039 0.27450980 0.65882353
v -0.11764733 -0.08302889 -16.46636963 0.25098039 0.27450980 0.65882353
v -0.12919000 -0.10252762 -16.49409294 0.25098039 0.27450980 0.65882353
v -0.12573105 -0.09854153 -16.50436974 0.25098039 0.27450980 0.65882353
v -0.12361772 -0.09462403 -16.49960136 0.25098039 0.27450980 0.65882353
v -0.12552965 -0.09844659 -16.48739433 0.25098039 0.27450980 0.65882353
v -0.12971863 -0.10901214 -16.51328850 0.25098039 0.27450980 0.65882353
v -0.13306597 -0.11195808 -16.50262070 0.25098039 0.27450980 0.65882353
v -0.13524717 -0.11744907 -16.50928879 0.25098039 0.27450980 0.65882353
v -0.13163674 -0.11498457 -16.51560402 0.25098039 0.27450980 0.65882353
v -0.13732755 -0.11483137 -16.48228073 0.25098039 0.27450980 0.65882353
v -0.14090556 -0.11617837 -16.47548294 0.25098039 0.27450980 0.65882353
v -0.14199179 -0.11830305 -16.47593117 0.25098039 0.27450980 0.65882353
v -0.13858339 -0.11683429 -16.48464775 0.25098039 0.27450980 0.65882353
v -0.14436737 -0.08654401 -16.57569313 0.25098039 0.27450980 0.65882353
v -0.13501616 -0.08918460 -16.57610130 0.25098039 0.27450980 0.65882353
v -0.16098142 -0.11520688 -16.52235222 0.25098039 0.27450980 0.65882353
v -0.15549397 -0.12096522 -16.53020668 0.25098039 0.27450980 0.65882353
v -0.15940347 -0.12929475 -16.52062225 0.25098039 0.27450980 0.65882353
v -0.16467327 -0.12069358 -16.51451874 0.25098039 0.27450980 0.65882353
v -0.15222648 -0.08134522 -16.55762482 0.25098039 0.27450980 0.65882353
v -0.15160304 -0.08093151 -16.56497383 0.25098039 0.27450980 0.65882353
v -0.14210173 -0.09865803 -16.42618752 0.25098039 0.27450980 0.65882353
v -0.14404541 -0.09550755 -16.43008614 0.25098039 0.27450980 0.65882353
v -0.09742472 -0.04948213 -16.51764107 0.25098039 0.27450980 0.65882353
v -0.08508587 -0.05754234 -16.50412369 0.25098039 0.27450980 0.65882353
v -0.10491867 -0.04611693 -16.52993774 0.25098039 0.27450980 0.65882353
v -0.11033165 -0.04356453 -16.53852272 0.25098039 0.27450980 0.65882353
v -0.11220960 -0.04136932 -16.54667091 0.25098039 0.27450980 0.65882353
v -0.12232488 -0.09512509 -16.47628403 0.25098039 0.27450980 0.65882353
v -0.11873290 -0.09121156 -16.49939156 0.25098039 0.27450980 0.65882353
v -0.12203205 -0.09680678 -16.51584053 0.25098039 0.27450980 0.65882353
v -0.13104557 -0.12202968 -16.53183746 0.25098039 0.27450980 0.65882353
v -0.12725160 -0.11805207 -16.54076004 0.25098039 0.27450980 0.65882353
v -0.12321551 -0.11285952 -16.53187943 0.25098039 0.27450980 0.65882353
v -0.12794541 -0.11716324 -16.52585602 0.25098039 0.27450980 0.65882353
v -0.14786945 -0.12720989 -16.53140450 0.25098039 0.27450980 0.65882353
v -0.14059950 -0.12803362 -16.52738953 0.25098039 0.27450980 0.65882353
v -0.14379299 -0.13150068 -16.52053070 0.25098039 0.27450980 0.65882353
v -0.15142697 -0.13218111 -16.52305222 0.25098039 0.27450980 0.65882353
v -0.08509710 -0.07145338 -16.48635483 0.25098039 0.27450980 0.65882353
v -0.09804254 -0.06061943 -16.49176025 0.25098039 0.27450980 0.65882353
v -0.13037601 -0.10008942 -16.56438446 0.25098039 0.27450980 0.65882353
v -0.12768516 -0.09440854 -16.56867027 0.25098039 0.27450980 0.65882353
v -0.12739381 -0.08839759 -16.57504845 0.25098039 0.27450980 0.65882353
v -0.11193987 -0.09310246 -16.53578377 0.25098039 0.27450980 0.65882353
v -0.10741913 -0.08640986 -16.54722786 0.25098039 0.27450980 0.65882353
v -0.10563278 -0.08380789 -16.54523087 0.25098039 0.27450980 0.65882353
v -0.11186206 -0.09129529 -16.53423882 0.25098039 0.27450980 0.65882353
v -0.09985816 -0.08719741 -16.52550697 0.25098039 0.27450980 0.65882353
v -0.09568273 -0.07994033 -16.53509331 0.25098039 0.27450980 0.65882353
v -0.09087089 -0.08817959 -16.51905251 0.25098039 0.27450980 0.65882353
v -0.10604325 -0.07240648 -16.55453110 0.25098039 0.27450980 0.65882353
v -0.10830971 -0.07357421 -16.56524849 0.25098039 0.27450980 0.65882353
v -0.10525069 -0.06584416 -16.56143761 0.25098039 0.27450980 0.65882353
v -0.11392643 -0.08042093 -16.56979370 0.25098039 0.27450980 0.65882353
v -0.12073117 -0.08575515 -16.57268333 0.25098039 0.27450980 0.65882353
v -0.15300873 -0.07851938 -16.57225800 0.25098039 0.27450980 0.65882353
v -0.10357659 -0.05846854 -16.55715370 0.25098039 0.27450980 0.65882353
v -0.07765658 -0.08480026 -16.51100159 0.25098039 0.27450980 0.65882353
v -0.07506867 -0.08826065 -16.50465012 0.25098039 0.27450980 0.65882353
v -0.08141035 -0.09230377 -16.50096512 0.25098039 0.27450980 0.65882353
v -0.08389200 -0.09010907 -16.50689697 0.25098039 0.27450980 0.65882353
v -0.12614278 -0.07390904 -16.46228218 0.25098039 0.27450980 0.65882353
v -0.11987510 -0.07827658 -16.46343231 0.25098039 0.27450980 0.65882353
v -0.11522534 -0.07716765 -16.47315788 0.25098039 0.27450980 0.65882353
v -0.11438151 -0.10270345 -16.54351997 0.25098039 0.27450980 0.65882353
v -0.12257907 -0.10874018 -16.55262566 0.25098039 0.27450980 0.65882353
v -0.12385824 -0.09500501 -16.46543503 0.25098039 0.27450980 0.65882353
v -0.13991365 -0.08872162 -16.43320465 0.25098039 0.27450980 0.65882353
v -0.13382602 -0.08861873 -16.43295288 0.25098039 0.27450980 0.65882353
v -0.13025510 -0.07943957 -16.44799805 0.25098039 0.27450980 0.65882353
v -0.13763343 -0.07915185 -16.44792366 0.25098039 0.27450980 0.65882353
v -0.13402556 -0.09753761 -16.45975304 0.25098039 0.27450980 0.65882353
v -0.12747219 -0.09621680 -16.46056175 0.25098039 0.27450980 0.65882353
v -0.12993875 -0.09702483 -16.45877647 0.25098039 0.27450980 0.65882353
v -0.13618703 -0.10005684 -16.45779800 0.25098039 0.27450980 0.65882353
v -0.14177240 -0.12280421 -16.48420906 0.25098039 0.27450980 0.65882353
v -0.13965599 -0.12151612 -16.49183846 0.25098039 0.27450980 0.65882353
v -0.14927305 -0.08574539 -16.47027779 0.25098039 0.27450980 0.65882353
v -0.14284799 -0.07366693 -16.46777534 0.25098039 0.27450980 0.65882353
v -0.13971502 -0.07079552 -16.47776031 0.25098039 0.27450980 0.65882353
v -0.13126671 -0.10746929 -16.49952888 0.25098039 0.27450980 0.65882353
v -0.13416380 -0.11201258 -16.49059868 0.25098039 0.27450980 0.65882353
v -0.13587496 -0.11472778 -16.49336624 0.25098039 0.27450980 0.65882353
v -0.12546283 -0.09851658 -16.47435188 0.25098039 0.27450980 0.65882353
v -0.12812902 -0.09913228 -16.46609116 0.25098039 0.27450980 0.65882353
v -0.12934683 -0.10154796 -16.47138214 0.25098039 0.27450980 0.65882353
v -0.12797722 -0.10100265 -16.47880936 0.25098039 0.27450980 0.65882353
v -0.15250959 -0.11333075 -16.54054451 0.25098039 0.27450980 0.65882353
v -0.14363340 -0.12092881 -16.54177475 0.25098039 0.27450980 0.65882353
v -0.12879884 -0.09682344 -16.42893600 0.25098039 0.27450980 0.65882353
v -0.12954479 -0.09406421 -16.43145752 0.25098039 0.27450980 0.65882353
v -0.12804413 -0.10319062 -16.50939751 0.25098039 0.27450980 0.65882353
v -0.13605814 -0.06688865 -16.48976707 0.25098039 0.27450980 0.65882353
v -0.12346836 -0.10061739 -16.51920128 0.25098039 0.27450980 0.65882353
v -0.16096975 -0.11997548 -16.49665451 0.25098039 0.27450980 0.65882353
v -0.15520035 -0.12617648 -16.49654770 0.25098039 0.27450980 0.65882353
v -0.15396205 -0.12808470 -16.49174500 0.25098039 0.27450980 0.65882353
v -0.15967155 -0.12536895 -16.49024010 0.25098039 0.27450980 0.65882353
v -0.14000332 -0.10601383 -16.44493866 0.25098039 0.27450980 0.65882353
v -0.13407946 -0.10584777 -16.44398499 0.25098039 0.27450980 0.65882353
v -0.13441324 -0.10659130 -16.44021797 0.25098039 0.27450980 0.65882353
v -0.14030227 -0.10736561 -16.44025993 0.25098039 0.27450980 0.65882353
v -0.12338153 -0.09191912 -16.45977783 0.25098039 0.27450980 0.65882353
v -0.12097463 -0.08553350 -16.45878792 0.25098039 0.27450980 0.65882353
v -0.12327304 -0.08899527 -16.45359802 0.25098039 0.27450980 0.65882353
v -0.12634262 -0.09393362 -16.45614624 0.25098039 0.27450980 0.65882353
v -0.12388802 -0.08020702 -16.45583725 0.25098039 0.27450980 0.65882353
v -0.12478254 -0.08313625 -16.45047188 0.25098039 0.27450980 0.65882353
v -0.14563389 -0.10248803 -16.44326019 0.25098039 0.27450980 0.65882353
v -0.14777680 -0.09643763 -16.43899918 0.25098039 0.27450980 0.65882353
v -0.14670894 -0.08946040 -16.45347595 0.25098039 0.27450980 0.65882353
v -0.14327297 -0.09714314 -16.45508003 0.25098039 0.27450980 0.65882353
v -0.15423673 -0.08364147 -16.53167152 0.25098039 0.27450980 0.65882353
v -0.15567134 -0.09218416 -16.53882408 0.25098039 0.27450980 0.65882353
v -0.15816887 -0.10062733 -16.52677345 0.25098039 0.27450980 0.65882353
v -0.16154686 -0.10913052 -16.51527596 0.25098039 0.27450980 0.65882353
v -0.16334778 -0.11662856 -16.50419044 0.25098039 0.27450980 0.65882353
v -0.16364770 -0.10715540 -16.49682426 0.25098039 0.27450980 0.65882353
v -0.15743184 -0.10622185 -16.53298378 0.25098039 0.27450980 0.65882353
v -0.14141238 -0.09594101 -16.46250153 0.25098039 0.27450980 0.65882353
v -0.14526032 -0.08591942 -16.46236038 0.25098039 0.27450980 0.65882353
v -0.14660916 -0.09164014 -16.46458244 0.25098039 0.27450980 0.65882353
v -0.12455889 -0.10684143 -16.52333450 0.25098039 0.27450980 0.65882353
v -0.12895893 -0.09105332 -16.43479729 0.25098039 0.27450980 0.65882353
v -0.13281313 -0.04578410 -16.54070282 0.25098039 0.27450980 0.65882353
v -0.14339310 -0.05299073 -16.54592896 0.25098039 0.27450980 0.65882353
v -0.14181791 -0.05593226 -16.53812599 0.25098039 0.27450980 0.65882353
v -0.13008210 -0.04808446 -16.53180695 0.25098039 0.27450980 0.65882353
v -0.12852119 -0.10176817 -16.44131279 0.25098039 0.27450980 0.65882353
v -0.12612960 -0.09621840 -16.43802834 0.25098039 0.27450980 0.65882353
v -0.14150970 -0.12709531 -16.49520111 0.25098039 0.27450980 0.65882353
v -0.14322266 -0.12719664 -16.48823357 0.25098039 0.27450980 0.65882353
v -0.14653279 -0.12933028 -16.48934555 0.25098039 0.27450980 0.65882353
v -0.14375150 -0.13153026 -16.49591064 0.25098039 0.27450980 0.65882353
v -0.15493113 -0.09613782 -16.54361153 0.25098039 0.27450980 0.65882353
v -0.15808208 -0.13573804 -16.51434517 0.25098039 0.27450980 0.65882353
v -0.16369295 -0.12757254 -16.50907898 0.25098039 0.27450980 0.65882353
v -0.15323681 -0.08457303 -16.54904175 0.25098039 0.27450980 0.65882353
v -0.15285440 -0.07679392 -16.54282951 0.25098039 0.27450980 0.65882353
v -0.15258843 -0.07223418 -16.55108833 0.25098039 0.27450980 0.65882353
v -0.16018203 -0.10142471 -16.48194885 0.25098039 0.27450980 0.65882353
v -0.15244481 -0.07865332 -16.52481651 0.25098039 0.27450980 0.65882353
v -0.15036459 -0.07220309 -16.53720093 0.25098039 0.27450980 0.65882353
v -0.14996031 -0.06640598 -16.54665565 0.25098039 0.27450980 0.65882353
v -0.15075983 -0.06233647 -16.55349350 0.25098039 0.27450980 0.65882353
v -0.15279138 -0.06961299 -16.55766678 0.25098039 0.27450980 0.65882353
v -0.14502263 -0.09227143 -16.43516541 0.25098039 0.27450980 0.65882353
v -0.14719710 -0.10051675 -16.43346596 0.25098039 0.27450980 0.65882353
v -0.15436859 -0.06656781 -16.56508636 0.25098039 0.27450980 0.65882353
v -0.15134302 -0.05899140 -16.56014061 0.25098039 0.27450980 0.65882353
v -0.14666411 -0.06605895 -16.53088951 0.25098039 0.27450980 0.65882353
v -0.14117220 -0.05957241 -16.52338219 0.25098039 0.27450980 0.65882353
v -0.14882058 -0.07236106 -16.51906204 0.25098039 0.27450980 0.65882353
v -0.14369643 -0.06617321 -16.51074791 0.25098039 0.27450980 0.65882353
v -0.15887740 -0.09056062 -16.47847557 0.25098039 0.27450980 0.65882353
v -0.14163856 -0.11425581 -16.42449379 0.25098039 0.27450980 0.65882353
v -0.14445952 -0.10812246 -16.43303680 0.25098039 0.27450980 0.65882353
v -0.13992497 -0.10984351 -16.43621254 0.25098039 0.27450980 0.65882353
v -0.13932724 -0.11631518 -16.42771530 0.25098039 0.27450980 0.65882353
v -0.14519337 -0.10510358 -16.43800545 0.25098039 0.27450980 0.65882353
v -0.14540341 -0.10359966 -16.42953110 0.25098039 0.27450980 0.65882353
v -0.13226748 -0.06090400 -16.50243568 0.25098039 0.27450980 0.65882353
v -0.13271903 -0.10211764 -16.46494293 0.25098039 0.27450980 0.65882353
v -0.12628239 -0.05273645 -16.51506233 0.25098039 0.27450980 0.65882353
v -0.11740933 -0.06025872 -16.49118042 0.25098039 0.27450980 0.65882353
v -0.11209171 -0.05462641 -16.50059128 0.25098039 0.27450980 0.65882353
v -0.11831592 -0.04352268 -16.52787781 0.25098039 0.27450980 0.65882353
v -0.10959727 -0.04719415 -16.51381111 0.25098039 0.27450980 0.65882353
v -0.12231700 -0.03963244 -16.54565430 0.25098039 0.27450980 0.65882353
v -0.12148755 -0.04176837 -16.53681946 0.25098039 0.27450980 0.65882353
v -0.09802160 -0.05328989 -16.50191879 0.25098039 0.27450980 0.65882353
v -0.12640704 -0.10853492 -16.42740631 0.25098039 0.27450980 0.65882353
v -0.12938631 -0.11276767 -16.43052483 0.25098039 0.27450980 0.65882353
v -0.13354732 -0.04265063 -16.54823112 0.25098039 0.27450980 0.65882353
v -0.08601217 -0.08899787 -16.51181412 0.25098039 0.27450980 0.65882353
v -0.11904049 -0.10233802 -16.53139305 0.25098039 0.27450980 0.65882353
v -0.11826453 -0.09809954 -16.52782822 0.25098039 0.27450980 0.65882353
v -0.12571929 -0.11485614 -16.54595184 0.25098039 0.27450980 0.65882353
v -0.11961985 -0.10794954 -16.53689766 0.25098039 0.27450980 0.65882353
v -0.12656814 -0.10471162 -16.42339897 0.25098039 0.27450980 0.65882353
v -0.14678492 -0.11649428 -16.47159386 0.25098039 0.27450980 0.65882353
v -0.14788699 -0.11583341 -16.47283936 0.25098039 0.27450980 0.65882353
v -0.07348396 -0.07653749 -16.50994873 0.25098039 0.27450980 0.65882353
v -0.07110415 -0.08117374 -16.50469398 0.25098039 0.27450980 0.65882353
v -0.07265903 -0.07227923 -16.49414444 0.25098039 0.27450980 0.65882353
v -0.06976274 -0.07561045 -16.50022125 0.25098039 0.27450980 0.65882353
v -0.07327923 -0.06921232 -16.50501633 0.25098039 0.27450980 0.65882353
v -0.07715958 -0.06528478 -16.49894333 0.25098039 0.27450980 0.65882353
v -0.11184914 -0.09507632 -16.53672600 0.25098039 0.27450980 0.65882353
v -0.11290562 -0.09833621 -16.53872681 0.25098039 0.27450980 0.65882353
v -0.14810151 -0.10683194 -16.54959679 0.25098039 0.27450980 0.65882353
v -0.13905036 -0.11415824 -16.54978561 0.25098039 0.27450980 0.65882353
v -0.12941447 -0.07664469 -16.45497513 0.25098039 0.27450980 0.65882353
v -0.13483682 -0.07228518 -16.46285820 0.25098039 0.27450980 0.65882353
v -0.13674177 -0.07603873 -16.45546913 0.25098039 0.27450980 0.65882353
v -0.14356431 -0.08200032 -16.45137024 0.25098039 0.27450980 0.65882353
v -0.13740841 -0.10003992 -16.46147537 0.25098039 0.27450980 0.65882353
v -0.14054707 -0.09467295 -16.46024513 0.25098039 0.27450980 0.65882353
v -0.10169950 -0.08301429 -16.53996658 0.25098039 0.27450980 0.65882353
v -0.10848996 -0.08929724 -16.53022957 0.25098039 0.27450980 0.65882353
v -0.08883694 -0.08949704 -16.49841690 0.25098039 0.27450980 0.65882353
v -0.08670753 -0.09046426 -16.49444962 0.25098039 0.27450980 0.65882353
v -0.13077193 -0.10494748 -16.48544502 0.25098039 0.27450980 0.65882353
v -0.15774670 -0.10624018 -16.47148514 0.25098039 0.27450980 0.65882353
v -0.15622950 -0.09718389 -16.46866417 0.25098039 0.27450980 0.65882353
v -0.13345018 -0.10740144 -16.47705269 0.25098039 0.27450980 0.65882353
v -0.13336517 -0.10375091 -16.41803741 0.25098039 0.27450980 0.65882353
v -0.12887357 -0.10347992 -16.42046356 0.25098039 0.27450980 0.65882353
v -0.14266612 -0.07822163 -16.45874596 0.25098039 0.27450980 0.65882353
v -0.13691095 -0.12072185 -16.49956894 0.25098039 0.27450980 0.65882353
v -0.15981610 -0.10960409 -16.47831726 0.25098039 0.27450980 0.65882353
v -0.15470734 -0.11344687 -16.47101021 0.25098039 0.27450980 0.65882353
v -0.15097246 -0.13564870 -16.51829910 0.25098039 0.27450980 0.65882353
v -0.14350975 -0.04976869 -16.55352211 0.25098039 0.27450980 0.65882353
v -0.13422364 -0.10950795 -16.43699837 0.25098039 0.27450980 0.65882353
v -0.13373426 -0.11558861 -16.43152237 0.25098039 0.27450980 0.65882353
v -0.14202154 -0.11073052 -16.42184448 0.25098039 0.27450980 0.65882353
v -0.13922334 -0.10583972 -16.41910172 0.25098039 0.27450980 0.65882353
v -0.13374756 -0.10776812 -16.55642891 0.25098039 0.27450980 0.65882353
v -0.11800450 -0.09573940 -16.52537918 0.25098039 0.27450980 0.65882353
v -0.08760381 -0.06121808 -16.49423981 0.25098039 0.27450980 0.65882353
v -0.07863806 -0.07104388 -16.48908806 0.25098039 0.27450980 0.65882353
v -0.13563199 -0.10868546 -16.47226906 0.25098039 0.27450980 0.65882353
v -0.16049026 -0.12494525 -16.50168800 0.25098039 0.27450980 0.65882353
v -0.16338345 -0.11400223 -16.48987770 0.25098039 0.27450980 0.65882353
v -0.16340515 -0.12076151 -16.48295212 0.25098039 0.27450980 0.65882353
v -0.16127838 -0.11785391 -16.47540855 0.25098039 0.27450980 0.65882353
v -0.15512189 -0.11697756 -16.47068977 0.25098039 0.27450980 0.65882353
v -0.13969938 -0.11489466 -16.41897583 0.25098039 0.27450980 0.65882353
v -0.13693996 -0.11005829 -16.41620636 0.25098039 0.27450980 0.65882353
v -0.13120064 -0.10770365 -16.41545677 0.25098039 0.27450980 0.65882353
v -0.12729505 -0.10686024 -16.41795158 0.25098039 0.27450980 0.65882353
v -0.12570213 -0.10769106 -16.42199707 0.25098039 0.27450980 0.65882353
v -0.13898967 -0.11840118 -16.42177773 0.25098039 0.27450980 0.65882353
v -0.13674864 -0.11974294 -16.42483902 0.25098039 0.27450980 0.65882353
v -0.13294812 -0.11777852 -16.42937660 0.25098039 0.27450980 0.65882353
v -0.13576379 -0.12190060 -16.42087173 0.25098039 0.27450980 0.65882353
v -0.13472582 -0.12087592 -16.41577339 0.25098039 0.27450980 0.65882353
v -0.12181551 -0.11753801 -16.41212845 0.25098039 0.27450980 0.65882353
v -0.12668422 -0.11430648 -16.41242599 0.25098039 0.27450980 0.65882353
v -0.12673935 -0.11677458 -16.41165543 0.25098039 0.27450980 0.65882353
v -0.12321413 -0.12017937 -16.41097260 0.25098039 0.27450980 0.65882353
v -0.12075678 -0.12448291 -16.40980911 0.25098039 0.27450980 0.65882353
v -0.11871687 -0.12195005 -16.41102219 0.25098039 0.27450980 0.65882353
v -0.13111645 -0.11758024 -16.41294479 0.25098039 0.27450980 0.65882353
v -0.12702543 -0.12259568 -16.41179466 0.25098039 0.27450980 0.65882353
v -0.12940282 -0.12529103 -16.41401291 0.25098039 0.27450980 0.65882353
v -0.12613085 -0.12933427 -16.41217995 0.25098039 0.27450980 0.65882353
v -0.12391450 -0.12707454 -16.41010666 0.25098039 0.27450980 0.65882353
v -0.13214865 -0.12167254 -16.41439819 0.25098039 0.27450980 0.65882353
v -0.13281131 -0.11593277 -16.41314125 0.25098039 0.27450980 0.65882353
v -0.11797628 -0.12636493 -16.41054153 0.25098039 0.27450980 0.65882353
v -0.11985531 -0.12715623 -16.40918541 0.25098039 0.27450980 0.65882353
v -0.12197976 -0.12950882 -16.40978432 0.25098039 0.27450980 0.65882353
v -0.11974833 -0.13095228 -16.41096306 0.25098039 0.27450980 0.65882353
v -0.12475953 -0.11053846 -16.41646957 0.25098039 0.27450980 0.65882353
v -0.12011509 -0.11688637 -16.41402626 0.25098039 0.27450980 0.65882353
v -0.11756580 -0.12216794 -16.41394424 0.25098039 0.27450980 0.65882353
v -0.11704524 -0.12654054 -16.41320992 0.25098039 0.27450980 0.65882353
v -0.11906740 -0.11878549 -16.41754341 0.25098039 0.27450980 0.65882353
v -0.11763810 -0.12302268 -16.41680717 0.25098039 0.27450980 0.65882353
v -0.11745934 -0.12689263 -16.41645241 0.25098039 0.27450980 0.65882353
v -0.11945321 -0.12129729 -16.42107964 0.25098039 0.27450980 0.65882353
v -0.11840732 -0.12473134 -16.41943359 0.25098039 0.27450980 0.65882353
v -0.12481105 -0.11228743 -16.42448425 0.25098039 0.27450980 0.65882353
v -0.12425032 -0.10960883 -16.42113876 0.25098039 0.27450980 0.65882353
v -0.11778699 -0.12697002 -16.41860962 0.25098039 0.27450980 0.65882353
v -0.11923912 -0.13131158 -16.41304779 0.25098039 0.27450980 0.65882353
v -0.13135783 -0.12588988 -16.41709518 0.25098039 0.27450980 0.65882353
v -0.12632719 -0.13036573 -16.41530991 0.25098039 0.27450980 0.65882353
v -0.13114305 -0.12658049 -16.41939926 0.25098039 0.27450980 0.65882353
v -0.12645221 -0.13117987 -16.41754913 0.25098039 0.27450980 0.65882353
v -0.12346061 -0.13289803 -16.41318130 0.25098039 0.27450980 0.65882353
v -0.12387809 -0.13106209 -16.41152000 0.25098039 0.27450980 0.65882353
v -0.12649374 -0.11040366 -16.42644691 0.25098039 0.27450980 0.65882353
v -0.12967241 -0.11468700 -16.42945099 0.25098039 0.27450980 0.65882353
v -0.12825248 -0.11639153 -16.42796135 0.25098039 0.27450980 0.65882353
v -0.12212060 -0.12419259 -16.42387199 0.25098039 0.27450980 0.65882353
v -0.13108841 -0.11970828 -16.42799950 0.25098039 0.27450980 0.65882353
v -0.13367186 -0.12284099 -16.42390823 0.25098039 0.27450980 0.65882353
v -0.12932889 -0.12743577 -16.42155647 0.25098039 0.27450980 0.65882353
v -0.12653923 -0.12685646 -16.42360878 0.25098039 0.27450980 0.65882353
v -0.12545881 -0.13063839 -16.41979599 0.25098039 0.27450980 0.65882353
v -0.12365341 -0.12934527 -16.42108154 0.25098039 0.27450980 0.65882353
v -0.12042852 -0.12719986 -16.42124939 0.25098039 0.27450980 0.65882353
v -0.12209617 -0.13178572 -16.41793633 0.25098039 0.27450980 0.65882353
v -0.12296901 -0.13278487 -16.41529274 0.25098039 0.27450980 0.65882353
v -0.11908678 -0.13039687 -16.41631508 0.25098039 0.27450980 0.65882353
v -0.12179160 -0.13067612 -16.41950226 0.25098039 0.27450980 0.65882353
v -0.11952765 -0.12897909 -16.41851997 0.25098039 0.27450980 0.65882353
v -0.13392717 -0.12527250 -16.44307518 0.25098039 0.27450980 0.65882353
v -0.13630110 -0.13045043 -16.44680595 0.25098039 0.27450980 0.65882353
v -0.13865313 -0.12673593 -16.44787407 0.25098039 0.27450980 0.65882353
v -0.13636211 -0.12265317 -16.44458771 0.25098039 0.27450980 0.65882353
v -0.14317098 -0.12273437 -16.43249130 0.25098039 0.27450980 0.65882353
v -0.13776262 -0.12187593 -16.43536949 0.25098039 0.27450980 0.65882353
v -0.14083031 -0.11813286 -16.43673325 0.25098039 0.27450980 0.65882353
v -0.14721349 -0.11937014 -16.43533325 0.25098039 0.27450980 0.65882353
v -0.14883047 -0.12669887 -16.43409538 0.25098039 0.27450980 0.65882353
v -0.15261140 -0.12310091 -16.43746758 0.25098039 0.27450980 0.65882353
v -0.14903994 -0.11465006 -16.43855476 0.25098039 0.27450980 0.65882353
v -0.14205535 -0.11401978 -16.44029236 0.25098039 0.27450980 0.65882353
v -0.14267993 -0.10081427 -16.45656204 0.25098039 0.27450980 0.65882353
v -0.14985621 -0.10053369 -16.45536423 0.25098039 0.27450980 0.65882353
v -0.14179938 -0.11640655 -16.46893501 0.25098039 0.27450980 0.65882353
v -0.14622846 -0.11784221 -16.46805573 0.25098039 0.27450980 0.65882353
v -0.13466632 -0.12303343 -16.43956947 0.25098039 0.27450980 0.65882353
v -0.13738340 -0.11984096 -16.44068909 0.25098039 0.27450980 0.65882353
v -0.14596546 -0.12998982 -16.45385742 0.25098039 0.27450980 0.65882353
v -0.14054205 -0.12802508 -16.45372200 0.25098039 0.27450980 0.65882353
v -0.14106233 -0.13056093 -16.45022964 0.25098039 0.27450980 0.65882353
v -0.14625016 -0.13280061 -16.44945145 0.25098039 0.27450980 0.65882353
v -0.13651730 -0.10608371 -16.46260643 0.25098039 0.27450980 0.65882353
v -0.13884734 -0.11128374 -16.46660805 0.25098039 0.27450980 0.65882353
v -0.13839617 -0.10328233 -16.45932579 0.25098039 0.27450980 0.65882353
v -0.15234819 -0.12944162 -16.45130157 0.25098039 0.27450980 0.65882353
v -0.15644273 -0.12584934 -16.44684982 0.25098039 0.27450980 0.65882353
v -0.15876397 -0.11227486 -16.46182442 0.25098039 0.27450980 0.65882353
v -0.15499528 -0.11726265 -16.46512413 0.25098039 0.27450980 0.65882353
v -0.13752878 -0.11596347 -16.44337845 0.25098039 0.27450980 0.65882353
v -0.13667554 -0.12413840 -16.45088005 0.25098039 0.27450980 0.65882353
v -0.13514532 -0.11965550 -16.44735718 0.25098039 0.27450980 0.65882353
v -0.15459000 -0.11901156 -16.44183159 0.25098039 0.27450980 0.65882353
v -0.15378675 -0.12970155 -16.44184685 0.25098039 0.27450980 0.65882353
v -0.14128524 -0.14464837 -16.43686295 0.25098039 0.27450980 0.65882353
v -0.14833030 -0.13681406 -16.44297028 0.25098039 0.27450980 0.65882353
v -0.14413956 -0.13677084 -16.44651031 0.25098039 0.27450980 0.65882353
v -0.13776657 -0.14554745 -16.44081306 0.25098039 0.27450980 0.65882353
v -0.15096717 -0.13287944 -16.44630051 0.25098039 0.27450980 0.65882353
v -0.15031254 -0.13320720 -16.43839645 0.25098039 0.27450980 0.65882353
v -0.12618974 -0.13660902 -16.43876457 0.25098039 0.27450980 0.65882353
v -0.12904857 -0.14148250 -16.44236374 0.25098039 0.27450980 0.65882353
v -0.12614860 -0.13388044 -16.43463898 0.25098039 0.27450980 0.65882353
v -0.15629379 -0.10472728 -16.45784569 0.25098039 0.27450980 0.65882353
v -0.13446787 -0.13217160 -16.42773438 0.25098039 0.27450980 0.65882353
v -0.12851505 -0.13203819 -16.43115807 0.25098039 0.27450980 0.65882353
v -0.13972786 -0.13443747 -16.44856453 0.25098039 0.27450980 0.65882353
v -0.13315186 -0.14469445 -16.44288826 0.25098039 0.27450980 0.65882353
v -0.14246355 -0.14198758 -16.43300056 0.25098039 0.27450980 0.65882353
v -0.14083675 -0.13541177 -16.42885971 0.25098039 0.27450980 0.65882353
v -0.13840009 -0.14565739 -16.43093300 0.25098039 0.27450980 0.65882353
v -0.13610694 -0.14039806 -16.42696190 0.25098039 0.27450980 0.65882353
v -0.13006166 -0.13672444 -16.42623901 0.25098039 0.27450980 0.65882353
v -0.12555106 -0.13571206 -16.43023491 0.25098039 0.27450980 0.65882353
v -0.12430611 -0.13658142 -16.43407249 0.25098039 0.27450980 0.65882353
v -0.13735543 -0.14802307 -16.43476105 0.25098039 0.27450980 0.65882353
v -0.13457194 -0.14854287 -16.43879509 0.25098039 0.27450980 0.65882353
v -0.13115518 -0.14593434 -16.44165611 0.25098039 0.27450980 0.65882353
v -0.13181415 -0.15222102 -16.43503952 0.25098039 0.27450980 0.65882353
v -0.13159660 -0.15132606 -16.43045998 0.25098039 0.27450980 0.65882353
v -0.11332491 -0.14958557 -16.42761040 0.25098039 0.27450980 0.65882353
v -0.11781892 -0.14582586 -16.42687035 0.25098039 0.27450980 0.65882353
v -0.11930494 -0.14801189 -16.42616653 0.25098039 0.27450980 0.65882353
v -0.11521801 -0.15154427 -16.42665482 0.25098039 0.27450980 0.65882353
v -0.12341927 -0.14344570 -16.42522812 0.25098039 0.27450980 0.65882353
v -0.12338103 -0.14602202 -16.42545700 0.25098039 0.27450980 0.65882353
v -0.12738986 -0.14839873 -16.42656898 0.25098039 0.27450980 0.65882353
v -0.12247691 -0.15174177 -16.42742157 0.25098039 0.27450980 0.65882353
v -0.12543298 -0.15438285 -16.43041611 0.25098039 0.27450980 0.65882353
v -0.12132077 -0.15813574 -16.43011093 0.25098039 0.27450980 0.65882353
v -0.11824036 -0.15569603 -16.42709923 0.25098039 0.27450980 0.65882353
v -0.12835938 -0.15157473 -16.42889404 0.25098039 0.27450980 0.65882353
v -0.11327860 -0.15448520 -16.42714882 0.25098039 0.27450980 0.65882353
v -0.11132091 -0.15467875 -16.42875290 0.25098039 0.27450980 0.65882353
v -0.12978892 -0.14652693 -16.42569733 0.25098039 0.27450980 0.65882353
v -0.12280776 -0.13861382 -16.42895126 0.25098039 0.27450980 0.65882353
v -0.11611795 -0.14450634 -16.42929840 0.25098039 0.27450980 0.65882353
v -0.11190058 -0.14928307 -16.43061829 0.25098039 0.27450980 0.65882353
v -0.11083394 -0.15529938 -16.43168831 0.25098039 0.27450980 0.65882353
v -0.11529493 -0.14517644 -16.43360901 0.25098039 0.27450980 0.65882353
v -0.11189044 -0.15002805 -16.43383980 0.25098039 0.27450980 0.65882353
v -0.11158437 -0.15505996 -16.43430519 0.25098039 0.27450980 0.65882353
v -0.11594720 -0.14703190 -16.43817902 0.25098039 0.27450980 0.65882353
v -0.11306334 -0.15190431 -16.43754005 0.25098039 0.27450980 0.65882353
v -0.12342891 -0.13981164 -16.43827629 0.25098039 0.27450980 0.65882353
v -0.12213036 -0.13800064 -16.43383789 0.25098039 0.27450980 0.65882353
v -0.11257310 -0.15429553 -16.43639946 0.25098039 0.27450980 0.65882353
v -0.11344905 -0.15906575 -16.42897606 0.25098039 0.27450980 0.65882353
v -0.11252204 -0.15909240 -16.43223000 0.25098039 0.27450980 0.65882353
v -0.11476726 -0.15808302 -16.42804527 0.25098039 0.27450980 0.65882353
v -0.12633222 -0.15532225 -16.43222809 0.25098039 0.27450980 0.65882353
v -0.12119245 -0.15887320 -16.43230820 0.25098039 0.27450980 0.65882353
v -0.12637514 -0.15602672 -16.43505287 0.25098039 0.27450980 0.65882353
v -0.12052199 -0.15956062 -16.43455887 0.25098039 0.27450980 0.65882353
v -0.11713199 -0.16078782 -16.43140984 0.25098039 0.27450980 0.65882353
v -0.11722395 -0.16012260 -16.42989159 0.25098039 0.27450980 0.65882353
v -0.12530410 -0.13874885 -16.43797684 0.25098039 0.27450980 0.65882353
v -0.12818192 -0.14271504 -16.44126129 0.25098039 0.27450980 0.65882353
v -0.12661970 -0.14342558 -16.44165802 0.25098039 0.27450980 0.65882353
v -0.11916420 -0.15056580 -16.44086075 0.25098039 0.27450980 0.65882353
v -0.12981136 -0.14718154 -16.44184303 0.25098039 0.27450980 0.65882353
v -0.13107838 -0.15126929 -16.43857956 0.25098039 0.27450980 0.65882353
v -0.12571083 -0.15556353 -16.43791389 0.25098039 0.27450980 0.65882353
v -0.12280576 -0.15391496 -16.44049263 0.25098039 0.27450980 0.65882353
v -0.12045181 -0.15968016 -16.43683052 0.25098039 0.27450980 0.65882353
v -0.11980297 -0.15725240 -16.43900681 0.25098039 0.27450980 0.65882353
v -0.11588616 -0.15422758 -16.43956375 0.25098039 0.27450980 0.65882353
v -0.11629121 -0.16095439 -16.43544579 0.25098039 0.27450980 0.65882353
v -0.11658854 -0.16121221 -16.43305016 0.25098039 0.27450980 0.65882353
v -0.11280803 -0.15836769 -16.43432808 0.25098039 0.27450980 0.65882353
v -0.11664432 -0.15896690 -16.43761826 0.25098039 0.27450980 0.65882353
v -0.11376855 -0.15673009 -16.43697929 0.25098039 0.27450980 0.65882353
v -0.14150105 -0.13787377 -16.46011925 0.25098039 0.27450980 0.65882353
v -0.14031051 -0.14081261 -16.46546364 0.25098039 0.27450980 0.65882353
v -0.14189123 -0.13861695 -16.46693993 0.25098039 0.27450980 0.65882353
v -0.14314292 -0.13560778 -16.46172905 0.25098039 0.27450980 0.65882353
v -0.15313071 -0.14220242 -16.45614243 0.25098039 0.27450980 0.65882353
v -0.14895326 -0.13976550 -16.45481491 0.25098039 0.27450980 0.65882353
v -0.15123300 -0.13648731 -16.45682526 0.25098039 0.27450980 0.65882353
v -0.15620503 -0.13791323 -16.45861626 0.25098039 0.27450980 0.65882353
v -0.15425807 -0.14687973 -16.45939064 0.25098039 0.27450980 0.65882353
v -0.15876101 -0.14168601 -16.46300507 0.25098039 0.27450980 0.65882353
v -0.15904424 -0.13326228 -16.46120071 0.25098039 0.27450980 0.65882353
v -0.15301473 -0.13271403 -16.45898438 0.25098039 0.27450980 0.65882353
v -0.15474993 -0.12069717 -16.46845818 0.25098039 0.27450980 0.65882353
v -0.16137171 -0.12264617 -16.47057915 0.25098039 0.27450980 0.65882353
v -0.14488503 -0.13813707 -16.45677948 0.25098039 0.27450980 0.65882353
v -0.14653794 -0.13546324 -16.45837593 0.25098039 0.27450980 0.65882353
v -0.14555037 -0.14316323 -16.47542572 0.25098039 0.27450980 0.65882353
v -0.14217420 -0.14013016 -16.47291374 0.25098039 0.27450980 0.65882353
v -0.14296348 -0.14262348 -16.47106552 0.25098039 0.27450980 0.65882353
v -0.14591515 -0.14537853 -16.47285461 0.25098039 0.27450980 0.65882353
v -0.14414856 -0.12102661 -16.47424316 0.25098039 0.27450980 0.65882353
v -0.14447337 -0.12427653 -16.48020554 0.25098039 0.27450980 0.65882353
v -0.14805010 -0.12055647 -16.46991920 0.25098039 0.27450980 0.65882353
v -0.15237480 -0.14459941 -16.47523689 0.25098039 0.27450980 0.65882353
v -0.15933332 -0.14216205 -16.47233582 0.25098039 0.27450980 0.65882353
v -0.16041747 -0.13221377 -16.48314667 0.25098039 0.27450980 0.65882353
v -0.15412986 -0.13288647 -16.48565483 0.25098039 0.27450980 0.65882353
v -0.14757967 -0.13247707 -16.45984459 0.25098039 0.27450980 0.65882353
v -0.14105487 -0.13594311 -16.46859550 0.25098039 0.27450980 0.65882353
v -0.14268684 -0.13306677 -16.46310234 0.25098039 0.27450980 0.65882353
v -0.16117018 -0.13686216 -16.46638489 0.25098039 0.27450980 0.65882353
v -0.15630880 -0.14615320 -16.46833229 0.25098039 0.27450980 0.65882353
v -0.14151031 -0.16116206 -16.46147919 0.25098039 0.27450980 0.65882353
v -0.14973798 -0.15043515 -16.46998596 0.25098039 0.27450980 0.65882353
v -0.14429702 -0.14777631 -16.47127914 0.25098039 0.27450980 0.65882353
v -0.13771050 -0.15957534 -16.46363640 0.25098039 0.27450980 0.65882353
v -0.15111557 -0.14771205 -16.47218895 0.25098039 0.27450980 0.65882353
v -0.15368381 -0.14991212 -16.46545601 0.25098039 0.27450980 0.65882353
v -0.13248640 -0.14884111 -16.45459366 0.25098039 0.27450980 0.65882353
v -0.13230032 -0.15159224 -16.45988655 0.25098039 0.27450980 0.65882353
v -0.13582599 -0.14810723 -16.45148087 0.25098039 0.27450980 0.65882353
v -0.16426913 -0.12712716 -16.47652626 0.25098039 0.27450980 0.65882353
v -0.14746395 -0.13017586 -16.48540306 0.25098039 0.27450980 0.65882353
v -0.14213660 -0.15216732 -16.44875717 0.25098039 0.27450980 0.65882353
v -0.13856338 -0.14927271 -16.44941521 0.25098039 0.27450980 0.65882353
v -0.14156660 -0.14455195 -16.46963120 0.25098039 0.27450980 0.65882353
v -0.13423252 -0.15612483 -16.46349716 0.25098039 0.27450980 0.65882353
v -0.14486596 -0.16002110 -16.45775223 0.25098039 0.27450980 0.65882353
v -0.14586058 -0.15594196 -16.45237923 0.25098039 0.27450980 0.65882353
v -0.14027336 -0.16354060 -16.45610619 0.25098039 0.27450980 0.65882353
v -0.14095460 -0.15998760 -16.45066643 0.25098039 0.27450980 0.65882353
v -0.13759746 -0.15622053 -16.44725418 0.25098039 0.27450980 0.65882353
v -0.13457753 -0.15283531 -16.44820023 0.25098039 0.27450980 0.65882353
v -0.13232276 -0.15123254 -16.45038605 0.25098039 0.27450980 0.65882353
v -0.13719514 -0.16389194 -16.46013451 0.25098039 0.27450980 0.65882353
v -0.13437761 -0.16172913 -16.46211052 0.25098039 0.27450980 0.65882353
v -0.13324367 -0.15692076 -16.46226311 0.25098039 0.27450980 0.65882353
v -0.13316806 -0.16548452 -16.46010780 0.25098039 0.27450980 0.65882353
v -0.13409553 -0.16692340 -16.45465279 0.25098039 0.27450980 0.65882353
v -0.11994530 -0.16448829 -16.44616127 0.25098039 0.27450980 0.65882353
v -0.12494193 -0.16178188 -16.44652557 0.25098039 0.27450980 0.65882353
v -0.12544234 -0.16294590 -16.44691086 0.25098039 0.27450980 0.65882353
v -0.12067873 -0.16605192 -16.44619179 0.25098039 0.27450980 0.65882353
v -0.13152876 -0.16070567 -16.44654655 0.25098039 0.27450980 0.65882353
v -0.13042527 -0.16230425 -16.44706345 0.25098039 0.27450980 0.65882353
v -0.13250229 -0.16475794 -16.44942474 0.25098039 0.27450980 0.65882353
v -0.12685433 -0.16751283 -16.44919586 0.25098039 0.27450980 0.65882353
v -0.12753518 -0.16875094 -16.45521545 0.25098039 0.27450980 0.65882353
v -0.12292321 -0.17035432 -16.45400429 0.25098039 0.27450980 0.65882353
v -0.12212095 -0.16982950 -16.44851112 0.25098039 0.27450980 0.65882353
v -0.13234341 -0.16693485 -16.45355797 0.25098039 0.27450980 0.65882353
v -0.11836438 -0.16810325 -16.44666290 0.25098039 0.27450980 0.65882353
v -0.11690591 -0.16733822 -16.44555283 0.25098039 0.27450980 0.65882353
v -0.13480525 -0.16397688 -16.44935226 0.25098039 0.27450980 0.65882353
v -0.13019952 -0.15582481 -16.44660187 0.25098039 0.27450980 0.65882353
v -0.12346461 -0.15915164 -16.44653702 0.25098039 0.27450980 0.65882353
v -0.11819093 -0.16164157 -16.44621277 0.25098039 0.27450980 0.65882353
v -0.11535907 -0.16469717 -16.44761658 0.25098039 0.27450980 0.65882353
v -0.12189156 -0.15713081 -16.44945717 0.25098039 0.27450980 0.65882353
v -0.11762007 -0.16016756 -16.44898796 0.25098039 0.27450980 0.65882353
v -0.11499694 -0.16298330 -16.45005226 0.25098039 0.27450980 0.65882353
v -0.12112013 -0.15665933 -16.45282173 0.25098039 0.27450980 0.65882353
v -0.11752298 -0.15969944 -16.45233917 0.25098039 0.27450980 0.65882353
v -0.12927310 -0.15206620 -16.45367813 0.25098039 0.27450980 0.65882353
v -0.12945679 -0.15307429 -16.44957924 0.25098039 0.27450980 0.65882353
v -0.11566293 -0.16216707 -16.45215988 0.25098039 0.27450980 0.65882353
v -0.11701864 -0.17092690 -16.44878387 0.25098039 0.27450980 0.65882353
v -0.11483422 -0.16862161 -16.45164871 0.25098039 0.27450980 0.65882353
v -0.11870508 -0.17030761 -16.44878197 0.25098039 0.27450980 0.65882353
v -0.12797239 -0.16868547 -16.45716476 0.25098039 0.27450980 0.65882353
v -0.12199079 -0.17096171 -16.45617294 0.25098039 0.27450980 0.65882353
v -0.12712079 -0.16740009 -16.45973587 0.25098039 0.27450980 0.65882353
v -0.12123378 -0.16967548 -16.45844460 0.25098039 0.27450980 0.65882353
v -0.11884788 -0.17196888 -16.45354080 0.25098039 0.27450980 0.65882353
v -0.11958724 -0.17158759 -16.45267677 0.25098039 0.27450980 0.65882353
v -0.13141297 -0.15106225 -16.45434952 0.25098039 0.27450980 0.65882353
v -0.13160351 -0.15315029 -16.45923996 0.25098039 0.27450980 0.65882353
v -0.12971652 -0.15361732 -16.45852661 0.25098039 0.27450980 0.65882353
v -0.12095523 -0.15814444 -16.45753288 0.25098039 0.27450980 0.65882353
v -0.13115722 -0.15708718 -16.46183586 0.25098039 0.27450980 0.65882353
v -0.13065587 -0.16299954 -16.46179199 0.25098039 0.27450980 0.65882353
v -0.12516364 -0.16478664 -16.46087074 0.25098039 0.27450980 0.65882353
v -0.12260786 -0.16171122 -16.46032333 0.25098039 0.27450980 0.65882353
v -0.12019105 -0.16723038 -16.45949554 0.25098039 0.27450980 0.65882353
v -0.11980918 -0.16439092 -16.45905685 0.25098039 0.27450980 0.65882353
v -0.11743854 -0.16080531 -16.45641899 0.25098039 0.27450980 0.65882353
v -0.11723716 -0.16786113 -16.45663452 0.25098039 0.27450980 0.65882353
v -0.11768171 -0.17053559 -16.45554924 0.25098039 0.27450980 0.65882353
v -0.11467350 -0.16595435 -16.45339203 0.25098039 0.27450980 0.65882353
v -0.11714091 -0.16542640 -16.45718956 0.25098039 0.27450980 0.65882353
v -0.11528902 -0.16385266 -16.45469856 0.25098039 0.27450980 0.65882353
v -0.14526114 -0.12737617 -16.48380470 0.25098039 0.27450980 0.65882353
v -0.13823262 -0.14634529 -16.48592567 0.25098039 0.27450980 0.65882353
v -0.13705325 -0.14867571 -16.48938370 0.25098039 0.27450980 0.65882353
v -0.13904157 -0.14769053 -16.49165344 0.25098039 0.27450980 0.65882353
v -0.13981280 -0.14432344 -16.48890305 0.25098039 0.27450980 0.65882353
v -0.14854762 -0.14941502 -16.48260498 0.25098039 0.27450980 0.65882353
v -0.14471266 -0.14703807 -16.48184586 0.25098039 0.27450980 0.65882353
v -0.14714296 -0.14407727 -16.48461151 0.25098039 0.27450980 0.65882353
v -0.15085241 -0.14620955 -16.48538399 0.25098039 0.27450980 0.65882353
v -0.15000395 -0.15323430 -16.48548508 0.25098039 0.27450980 0.65882353
v -0.15229402 -0.15030229 -16.48837852 0.25098039 0.27450980 0.65882353
v -0.15300870 -0.14351019 -16.48717117 0.25098039 0.27450980 0.65882353
v -0.14876035 -0.14129016 -16.48648262 0.25098039 0.27450980 0.65882353
v -0.15266173 -0.13017830 -16.49436569 0.25098039 0.27450980 0.65882353
v -0.15791547 -0.13147950 -16.49703598 0.25098039 0.27450980 0.65882353
v -0.14910764 -0.13958341 -16.51335526 0.25098039 0.27450980 0.65882353
v -0.14421609 -0.13640943 -16.51239777 0.25098039 0.27450980 0.65882353
v -0.14360273 -0.14231573 -16.50652885 0.25098039 0.27450980 0.65882353
v -0.14799181 -0.14428200 -16.50873375 0.25098039 0.27450980 0.65882353
v -0.14109817 -0.14600313 -16.48328400 0.25098039 0.27450980 0.65882353
v -0.14252505 -0.14301655 -16.48596573 0.25098039 0.27450980 0.65882353
v -0.14428134 -0.15271066 -16.49956131 0.25098039 0.27450980 0.65882353
v -0.14083737 -0.14987478 -16.49756050 0.25098039 0.27450980 0.65882353
v -0.13940056 -0.15073079 -16.49484825 0.25098039 0.27450980 0.65882353
v -0.14175960 -0.15450804 -16.49677277 0.25098039 0.27450980 0.65882353
v -0.14199302 -0.13405126 -16.50742340 0.25098039 0.27450980 0.65882353
v -0.14242220 -0.13198674 -16.50242424 0.25098039 0.27450980 0.65882353
v -0.14145654 -0.13459024 -16.49991226 0.25098039 0.27450980 0.65882353
v -0.14152889 -0.13947421 -16.50231171 0.25098039 0.27450980 0.65882353
v -0.14476313 -0.13215238 -16.49561119 0.25098039 0.27450980 0.65882353
v -0.14834507 -0.15372224 -16.49896622 0.25098039 0.27450980 0.65882353
v -0.15303048 -0.15230830 -16.49558449 0.25098039 0.27450980 0.65882353
v -0.15871423 -0.14237401 -16.50745964 0.25098039 0.27450980 0.65882353
v -0.15373327 -0.14375758 -16.50954819 0.25098039 0.27450980 0.65882353
v -0.14412209 -0.14135785 -16.48690033 0.25098039 0.27450980 0.65882353
v -0.13970031 -0.14650008 -16.49406624 0.25098039 0.27450980 0.65882353
v -0.14047578 -0.14369455 -16.49027824 0.25098039 0.27450980 0.65882353
v -0.15525457 -0.14786631 -16.49053383 0.25098039 0.27450980 0.65882353
v -0.15019181 -0.15457284 -16.49268341 0.25098039 0.27450980 0.65882353
v -0.13859901 -0.16307130 -16.48846245 0.25098039 0.27450980 0.65882353
v -0.14379176 -0.15809196 -16.49409103 0.25098039 0.27450980 0.65882353
v -0.13940459 -0.15584037 -16.49465942 0.25098039 0.27450980 0.65882353
v -0.13599257 -0.16143046 -16.48913002 0.25098039 0.27450980 0.65882353
v -0.14595836 -0.15590967 -16.49608803 0.25098039 0.27450980 0.65882353
v -0.14793193 -0.15745708 -16.49001503 0.25098039 0.27450980 0.65882353
v -0.13368928 -0.15158878 -16.48107719 0.25098039 0.27450980 0.65882353
v -0.13298687 -0.15465260 -16.48566055 0.25098039 0.27450980 0.65882353
v -0.13594025 -0.15126836 -16.47860146 0.25098039 0.27450980 0.65882353
v -0.16088466 -0.13617811 -16.50179863 0.25098039 0.27450980 0.65882353
v -0.14238894 -0.15537250 -16.47706413 0.25098039 0.27450980 0.65882353
v -0.13874681 -0.15266615 -16.47669411 0.25098039 0.27450980 0.65882353
v -0.13735425 -0.15201584 -16.49232674 0.25098039 0.27450980 0.65882353
v -0.13393936 -0.15830296 -16.48834229 0.25098039 0.27450980 0.65882353
v -0.14201830 -0.16300319 -16.48550034 0.25098039 0.27450980 0.65882353
v -0.14460054 -0.15963127 -16.48056030 0.25098039 0.27450980 0.65882353
v -0.13832483 -0.16499488 -16.48276901 0.25098039 0.27450980 0.65882353
v -0.14108409 -0.16154766 -16.47799301 0.25098039 0.27450980 0.65882353
v -0.13843328 -0.15687029 -16.47494507 0.25098039 0.27450980 0.65882353
v -0.13613155 -0.15392265 -16.47585869 0.25098039 0.27450980 0.65882353
v -0.13381334 -0.15250631 -16.47763252 0.25098039 0.27450980 0.65882353
v -0.13529548 -0.16476901 -16.48618317 0.25098039 0.27450980 0.65882353
v -0.13312756 -0.16275868 -16.48737144 0.25098039 0.27450980 0.65882353
v -0.13181558 -0.15919602 -16.48723602 0.25098039 0.27450980 0.65882353
v -0.13183612 -0.16622022 -16.48407745 0.25098039 0.27450980 0.65882353
v -0.13323253 -0.16671893 -16.47949028 0.25098039 0.27450980 0.65882353
v -0.12388973 -0.16089514 -16.47181892 0.25098039 0.27450980 0.65882353
v -0.12759332 -0.15934765 -16.47268105 0.25098039 0.27450980 0.65882353
v -0.12807585 -0.16047344 -16.47260857 0.25098039 0.27450980 0.65882353
v -0.12438178 -0.16165513 -16.47115707 0.25098039 0.27450980 0.65882353
v -0.13298586 -0.15901703 -16.47351456 0.25098039 0.27450980 0.65882353
v -0.13218230 -0.16051729 -16.47354889 0.25098039 0.27450980 0.65882353
v -0.13395393 -0.16302744 -16.47546196 0.25098039 0.27450980 0.65882353
v -0.12919322 -0.16449907 -16.47357941 0.25098039 0.27450980 0.65882353
v -0.12797873 -0.16788033 -16.47773361 0.25098039 0.27450980 0.65882353
v -0.12430483 -0.16862851 -16.47589874 0.25098039 0.27450980 0.65882353
v -0.12580623 -0.16574222 -16.47226334 0.25098039 0.27450980 0.65882353
v -0.13235113 -0.16640642 -16.47766304 0.25098039 0.27450980 0.65882353
v -0.12246290 -0.16348456 -16.47037125 0.25098039 0.27450980 0.65882353
v -0.12124619 -0.16314277 -16.47015190 0.25098039 0.27450980 0.65882353
v -0.13587463 -0.16281183 -16.47572517 0.25098039 0.27450980 0.65882353
v -0.13209093 -0.15512273 -16.47475624 0.25098039 0.27450980 0.65882353
v -0.12588030 -0.15753847 -16.47313118 0.25098039 0.27450980 0.65882353
v -0.12175382 -0.16003726 -16.47192192 0.25098039 0.27450980 0.65882353
v -0.11950679 -0.16291676 -16.47162056 0.25098039 0.27450980 0.65882353
v -0.12518156 -0.15607011 -16.47521019 0.25098039 0.27450980 0.65882353
v -0.12044966 -0.15899047 -16.47360420 0.25098039 0.27450980 0.65882353
v -0.11836638 -0.16195899 -16.47348785 0.25098039 0.27450980 0.65882353
v -0.12412058 -0.15576294 -16.47847557 0.25098039 0.27450980 0.65882353
v -0.12011553 -0.15894304 -16.47619438 0.25098039 0.27450980 0.65882353
v -0.12960070 -0.15334272 -16.48085785 0.25098039 0.27450980 0.65882353
v -0.13066411 -0.15346885 -16.47735596 0.25098039 0.27450980 0.65882353
v -0.11873413 -0.16145313 -16.47515488 0.25098039 0.27450980 0.65882353
v -0.12102737 -0.16680636 -16.47127151 0.25098039 0.27450980 0.65882353
v -0.11897951 -0.16574757 -16.47312164 0.25098039 0.27450980 0.65882353
v -0.12242604 -0.16697234 -16.47122955 0.25098039 0.27450980 0.65882353
v -0.12770337 -0.16828074 -16.47915840 0.25098039 0.27450980 0.65882353
v -0.12324699 -0.16909149 -16.47700500 0.25098039 0.27450980 0.65882353
v -0.12665315 -0.16776600 -16.48148918 0.25098039 0.27450980 0.65882353
v -0.12184405 -0.16824272 -16.47850990 0.25098039 0.27450980 0.65882353
v -0.12102066 -0.16878927 -16.47430992 0.25098039 0.27450980 0.65882353
v -0.12260427 -0.16841397 -16.47365189 0.25098039 0.27450980 0.65882353
v -0.13137975 -0.15274996 -16.48104477 0.25098039 0.27450980 0.65882353
v -0.13127968 -0.15533972 -16.48468208 0.25098039 0.27450980 0.65882353
v -0.12934217 -0.15616189 -16.48440552 0.25098039 0.27450980 0.65882353
v -0.12375155 -0.15802200 -16.48193932 0.25098039 0.27450980 0.65882353
v -0.12984014 -0.16013828 -16.48658562 0.25098039 0.27450980 0.65882353
v -0.13080218 -0.16391242 -16.48606491 0.25098039 0.27450980 0.65882353
v -0.12531927 -0.16568992 -16.48300171 0.25098039 0.27450980 0.65882353
v -0.12403044 -0.16238700 -16.48356628 0.25098039 0.27450980 0.65882353
v -0.12059879 -0.16660695 -16.47940636 0.25098039 0.27450980 0.65882353
v -0.12000659 -0.16366723 -16.48017120 0.25098039 0.27450980 0.65882353
v -0.11974060 -0.16056228 -16.47906876 0.25098039 0.27450980 0.65882353
v -0.11871181 -0.16598189 -16.47633362 0.25098039 0.27450980 0.65882353
v -0.11928764 -0.16753908 -16.47538567 0.25098039 0.27450980 0.65882353
v -0.11827293 -0.16449690 -16.47471619 0.25098039 0.27450980 0.65882353
v -0.11853036 -0.16427946 -16.47730064 0.25098039 0.27450980 0.65882353
v -0.11844815 -0.16290414 -16.47642899 0.25098039 0.27450980 0.65882353
v -0.15304413 -0.14046916 -16.51193810 0.25098039 0.27450980 0.65882353
v -0.07593772 -0.08337625 -16.48010635 0.25098039 0.27450980 0.65882353
v -0.07981993 -0.08812223 -16.48084450 0.25098039 0.27450980 0.65882353
v -0.07240584 -0.09821584 -16.49396706 0.25098039 0.27450980 0.65882353
v -0.07790840 -0.09832870 -16.48837662 0.25098039 0.27450980 0.65882353
v -0.06661852 -0.09484623 -16.49630165 0.25098039 0.27450980 0.65882353
v -0.06334548 -0.08429129 -16.49243546 0.25098039 0.27450980 0.65882353
v -0.06409997 -0.08928256 -16.49611664 0.25098039 0.27450980 0.65882353
v -0.08066426 -0.09456913 -16.48364067 0.25098039 0.27450980 0.65882353
v -0.07099101 -0.07992559 -16.48201752 0.25098039 0.27450980 0.65882353
v -0.06568511 -0.07990348 -16.48722267 0.25098039 0.27450980 0.65882353
v -0.06813949 -0.08445919 -16.47682953 0.25098039 0.27450980 0.65882353
v -0.06210588 -0.08469199 -16.48189735 0.25098039 0.27450980 0.65882353
v -0.05886261 -0.08914607 -16.48671913 0.25098039 0.27450980 0.65882353
v -0.06021944 -0.09430461 -16.49110794 0.25098039 0.27450980 0.65882353
v -0.06292421 -0.09841821 -16.49241638 0.25098039 0.27450980 0.65882353
v -0.07387662 -0.08824778 -16.47605133 0.25098039 0.27450980 0.65882353
v -0.07756974 -0.09310763 -16.47731590 0.25098039 0.27450980 0.65882353
v -0.07823639 -0.09856346 -16.48185349 0.25098039 0.27450980 0.65882353
v -0.07187366 -0.09504494 -16.47199249 0.25098039 0.27450980 0.65882353
v -0.06320085 -0.09877835 -16.46795654 0.25098039 0.27450980 0.65882353
v -0.04866979 -0.10974406 -16.47077560 0.25098039 0.27450980 0.65882353
v -0.05119140 -0.10619950 -16.47570801 0.25098039 0.27450980 0.65882353
v -0.05141842 -0.10478450 -16.47303963 0.25098039 0.27450980 0.65882353
v -0.04852813 -0.10772271 -16.46883202 0.25098039 0.27450980 0.65882353
v -0.05331503 -0.10151377 -16.47707748 0.25098039 0.27450980 0.65882353
v -0.05363171 -0.10200211 -16.47458458 0.25098039 0.27450980 0.65882353
v -0.05707699 -0.09964785 -16.47143173 0.25098039 0.27450980 0.65882353
v -0.05435012 -0.10205334 -16.46784592 0.25098039 0.27450980 0.65882353
v -0.06072308 -0.10017227 -16.46783829 0.25098039 0.27450980 0.65882353
v -0.06012249 -0.10252265 -16.46519470 0.25098039 0.27450980 0.65882353
v -0.05202894 -0.10479248 -16.46417809 0.25098039 0.27450980 0.65882353
v -0.04764466 -0.10834543 -16.46502876 0.25098039 0.27450980 0.65882353
v -0.05017252 -0.10765258 -16.46111679 0.25098039 0.27450980 0.65882353
v -0.04820079 -0.11149077 -16.46578598 0.25098039 0.27450980 0.65882353
v -0.05682093 -0.09770229 -16.47158241 0.25098039 0.27450980 0.65882353
v -0.05548008 -0.10091312 -16.48423767 0.25098039 0.27450980 0.65882353
v -0.05284896 -0.10766111 -16.47906113 0.25098039 0.27450980 0.65882353
v -0.05083272 -0.11222927 -16.47295380 0.25098039 0.27450980 0.65882353
v -0.05022557 -0.11381766 -16.46685791 0.25098039 0.27450980 0.65882353
v -0.05643551 -0.11007190 -16.48080635 0.25098039 0.27450980 0.65882353
v -0.05492049 -0.11369827 -16.47434807 0.25098039 0.27450980 0.65882353
v -0.05490533 -0.11495350 -16.46859550 0.25098039 0.27450980 0.65882353
v -0.06117716 -0.11163586 -16.48026848 0.25098039 0.27450980 0.65882353
v -0.05892269 -0.11416434 -16.47385406 0.25098039 0.27450980 0.65882353
v -0.06678586 -0.10341626 -16.48882484 0.25098039 0.27450980 0.65882353
v -0.06017806 -0.10230634 -16.48878670 0.25098039 0.27450980 0.65882353
v -0.05760643 -0.11469465 -16.46966743 0.25098039 0.27450980 0.65882353
v -0.05053277 -0.11021151 -16.46019745 0.25098039 0.27450980 0.65882353
v -0.05303110 -0.11290829 -16.46140289 0.25098039 0.27450980 0.65882353
v -0.06382164 -0.10281874 -16.46462059 0.25098039 0.27450980 0.65882353
v -0.05774844 -0.10459246 -16.46116066 0.25098039 0.27450980 0.65882353
v -0.06081621 -0.10627195 -16.46107292 0.25098039 0.27450980 0.65882353
v -0.06777191 -0.10341714 -16.46582985 0.25098039 0.27450980 0.65882353
v -0.06325816 -0.10794591 -16.46164703 0.25098039 0.27450980 0.65882353
v -0.05625980 -0.10850844 -16.45888901 0.25098039 0.27450980 0.65882353
v -0.05447173 -0.10628583 -16.45983315 0.25098039 0.27450980 0.65882353
v -0.06888966 -0.10078090 -16.49154282 0.25098039 0.27450980 0.65882353
v -0.07482465 -0.10054132 -16.48765945 0.25098039 0.27450980 0.65882353
v -0.07283576 -0.10271879 -16.48497391 0.25098039 0.27450980 0.65882353
v -0.06721283 -0.11085303 -16.47729111 0.25098039 0.27450980 0.65882353
v -0.07609619 -0.10155308 -16.47933197 0.25098039 0.27450980 0.65882353
v -0.07507198 -0.09801719 -16.47417641 0.25098039 0.27450980 0.65882353
v -0.07013120 -0.10576598 -16.46800613 0.25098039 0.27450980 0.65882353
v -0.07042632 -0.10851691 -16.47228432 0.25098039 0.27450980 0.65882353
v -0.06478590 -0.11032412 -16.46421623 0.25098039 0.27450980 0.65882353
v -0.06479551 -0.11178191 -16.46708298 0.25098039 0.27450980 0.65882353
v -0.06240194 -0.11390327 -16.47106552 0.25098039 0.27450980 0.65882353
v -0.06034759 -0.11254884 -16.46273232 0.25098039 0.27450980 0.65882353
v -0.05863106 -0.11073209 -16.45993233 0.25098039 0.27450980 0.65882353
v -0.05670057 -0.11426304 -16.46425819 0.25098039 0.27450980 0.65882353
v -0.06150559 -0.11297928 -16.46540451 0.25098039 0.27450980 0.65882353
v -0.05925724 -0.11418911 -16.46710396 0.25098039 0.27450980 0.65882353
v -0.14408883 -0.13351512 -16.51615143 0.25098039 0.27450980 0.65882353
v -0.14081421 -0.13029650 -16.51099205 0.25098039 0.27450980 0.65882353
v -0.13994314 -0.12863515 -16.51658821 0.25098039 0.27450980 0.65882353
v -0.13584903 -0.12578693 -16.52373886 0.25098039 0.27450980 0.65882353
v -0.13661101 -0.12448297 -16.53420258 0.25098039 0.27450980 0.65882353
v -0.13316461 -0.12086980 -16.51930237 0.25098039 0.27450980 0.65882353
v -0.13765500 -0.12419502 -16.51207924 0.25098039 0.27450980 0.65882353
v -0.13955741 -0.12672967 -16.50358963 0.25098039 0.27450980 0.65882353
v -0.12785056 -0.11241932 -16.52153587 0.25098039 0.27450980 0.65882353
f 2 3 1
f 1 3 4
f 5 6 8
f 8 6 7
f 9 4 10
f 10 4 3
f 12 13 11
f 11 13 9
f 14 12 16
f 16 12 15
f 18 19 17
f 17 19 20
f 22 23 21
f 21 23 24
f 26 27 25
f 25 27 28
f 30 31 29
f 29 31 32
f 33 34 36
f 36 34 35
f 37 38 40
f 40 38 39
f 41 42 6
f 6 42 43
f 6 43 7
f 7 43 44
f 45 34 46
f 46 34 33
f 48 49 47
f 47 49 50
f 52 53 51
f 51 53 54
f 56 52 55
f 55 52 51
f 58 59 57
f 57 59 60
f 61 62 4
f 4 62 1
f 64 65 63
f 63 65 66
f 68 69 67
f 67 69 70
f 72 73 71
f 71 73 74
f 76 77 75
f 75 77 78
f 53 79 54
f 54 79 80
f 82 83 81
f 81 83 84
f 85 86 52
f 52 86 53
f 57 60 87
f 87 60 88
f 89 90 43
f 43 90 44
f 43 42 89
f 89 42 91
f 40 39 92
f 92 39 93
f 94 70 64
f 64 70 69
f 13 61 9
f 9 61 4
f 25 28 69
f 69 28 95
f 96 25 68
f 68 25 69
f 98 99 97
f 97 99 100
f 101 102 104
f 104 102 103
f 106 30 105
f 105 30 29
f 51 54 107
f 107 54 108
f 54 80 108
f 108 80 109
f 111 112 110
f 110 112 113
f 115 5 114
f 114 5 116
f 115 41 5
f 5 41 6
f 36 35 111
f 111 35 117
f 35 118 117
f 117 118 119
f 34 120 35
f 35 120 118
f 34 45 120
f 120 45 121
f 125 126 124
f 124 126 127
f 128 129 14
f 14 129 130
f 33 131 46
f 46 131 132
f 133 94 63
f 63 94 64
f 134 135 137
f 137 135 136
f 139 140 138
f 138 140 141
f 77 142 78
f 78 142 143
f 144 145 20
f 20 145 146
f 148 149 147
f 147 149 72
f 151 152 150
f 150 152 153
f 82 101 83
f 83 101 104
f 101 82 155
f 155 82 154
f 156 157 58
f 58 157 59
f 158 68 147
f 147 68 67
f 159 146 15
f 15 146 16
f 68 158 96
f 96 158 160
f 129 66 130
f 130 66 65
f 162 163 161
f 161 163 164
f 166 167 165
f 165 167 168
f 170 171 169
f 169 171 172
f 174 171 173
f 173 171 170
f 176 177 175
f 175 177 178
f 180 181 179
f 179 181 24
f 182 183 21
f 21 183 184
f 81 185 82
f 82 185 154
f 186 187 188
f 188 187 144
f 158 71 160
f 160 71 189
f 190 135 157
f 157 135 59
f 169 172 139
f 139 172 140
f 147 72 158
f 158 72 71
f 192 193 191
f 191 193 194
f 167 166 49
f 49 166 195
f 196 190 50
f 50 190 157
f 197 198 200
f 200 198 199
f 21 24 182
f 182 24 181
f 146 159 20
f 20 159 17
f 182 181 81
f 81 181 185
f 201 185 180
f 180 185 181
f 202 203 83
f 83 203 84
f 205 206 204
f 204 206 85
f 207 22 184
f 184 22 21
f 179 24 208
f 208 24 23
f 208 209 179
f 179 209 205
f 209 210 205
f 205 210 206
f 212 206 211
f 211 206 210
f 179 205 180
f 180 205 204
f 213 176 88
f 88 176 214
f 86 85 212
f 212 85 206
f 193 217 218
f 217 219 218
f 218 219 220
f 219 18 220
f 220 18 17
f 19 221 20
f 20 221 144
f 222 223 225
f 225 223 224
f 175 226 176
f 176 226 214
f 227 87 214
f 214 87 88
f 220 17 228
f 228 17 159
f 134 213 60
f 60 213 88
f 138 229 151
f 151 229 152
f 193 192 210
f 210 192 211
f 230 194 218
f 218 194 193
f 231 232 228
f 228 232 230
f 233 234 91
f 91 234 89
f 235 236 93
f 93 236 92
f 230 232 234
f 234 232 237
f 47 238 48
f 48 238 239
f 240 191 235
f 235 191 236
f 5 8 116
f 116 8 241
f 242 243 189
f 189 243 160
f 244 245 98
f 98 245 99
f 156 246 47
f 47 246 238
f 76 247 77
f 77 247 248
f 250 125 249
f 249 125 124
f 252 253 251
f 251 253 254
f 111 110 36
f 36 110 255
f 256 33 255
f 255 33 36
f 257 258 154
f 154 258 155
f 63 169 133
f 133 169 139
f 66 170 63
f 63 170 169
f 173 170 129
f 129 170 66
f 129 128 173
f 173 128 259
f 128 260 259
f 259 260 261
f 213 134 262
f 262 134 137
f 263 264 186
f 186 264 187
f 112 265 113
f 113 265 266
f 11 267 268
f 234 233 230
f 230 233 194
f 153 269 70
f 70 269 67
f 175 178 165
f 165 178 141
f 150 153 94
f 94 153 70
f 271 221 270
f 270 221 207
f 269 153 272
f 272 153 152
f 121 45 109
f 109 45 108
f 47 50 156
f 156 50 157
f 57 273 58
f 58 273 274
f 145 275 260
f 260 275 261
f 276 149 143
f 143 149 78
f 148 269 75
f 75 269 272
f 207 277 270
f 270 277 278
f 195 196 49
f 49 196 50
f 59 135 60
f 60 135 134
f 83 104 202
f 202 104 279
f 149 148 78
f 78 148 75
f 247 278 248
f 248 278 277
f 183 182 84
f 84 182 81
f 48 239 281
f 281 239 282
f 227 223 283
f 283 223 222
f 223 226 224
f 224 226 168
f 281 282 224
f 224 282 225
f 165 168 175
f 175 168 226
f 264 263 138
f 138 263 229
f 14 16 128
f 128 16 260
f 220 228 218
f 218 228 230
f 87 227 284
f 284 227 283
f 260 16 145
f 145 16 146
f 244 98 258
f 258 98 155
f 58 274 156
f 156 274 246
f 107 285 51
f 51 285 55
f 243 286 160
f 160 286 96
f 234 237 89
f 89 237 90
f 46 132 107
f 107 132 285
f 253 252 249
f 249 252 250
f 286 26 96
f 96 26 25
f 106 105 287
f 287 105 288
f 272 152 289
f 289 152 229
f 138 151 139
f 139 151 133
f 183 290 161
f 161 290 162
f 291 292 277
f 277 292 293
f 151 150 133
f 133 150 94
f 262 275 177
f 177 275 187
f 144 187 145
f 145 187 275
f 273 57 284
f 284 57 87
f 174 136 190
f 190 136 135
f 111 117 112
f 112 117 38
f 117 119 38
f 38 119 123
f 112 38 265
f 265 38 37
f 287 288 254
f 254 288 251
f 228 159 231
f 231 159 15
f 223 227 226
f 226 227 214
f 147 67 148
f 148 67 269
f 224 168 281
f 281 168 167
f 199 163 200
f 200 163 162
f 45 46 108
f 108 46 107
f 281 167 48
f 48 167 49
f 161 164 291
f 291 164 292
f 38 123 39
f 293 294 277
f 277 294 248
f 284 283 296
f 296 283 295
f 284 296 273
f 273 296 297
f 274 273 298
f 298 273 297
f 246 274 299
f 299 274 298
f 283 222 295
f 295 222 300
f 222 225 300
f 300 225 301
f 301 225 302
f 302 225 282
f 303 304 300
f 300 304 295
f 306 307 305
f 305 307 308
f 309 310 308
f 308 310 305
f 308 307 312
f 312 307 311
f 313 314 312
f 312 314 315
f 311 316 312
f 312 316 313
f 317 304 311
f 311 304 316
f 315 309 312
f 312 309 308
f 318 319 321
f 321 319 320
f 319 318 309
f 309 318 310
f 311 307 317
f 317 307 306
f 306 297 317
f 317 297 296
f 306 322 297
f 297 322 298
f 305 323 306
f 306 323 322
f 323 305 324
f 324 305 310
f 304 317 295
f 295 317 296
f 318 325 310
f 310 325 324
f 323 324 326
f 326 324 327
f 324 325 327
f 327 325 328
f 326 327 329
f 329 327 330
f 329 331 326
f 326 331 332
f 333 330 328
f 328 330 327
f 323 326 322
f 322 326 332
f 322 332 298
f 298 332 299
f 325 318 334
f 334 318 321
f 313 316 335
f 335 316 304
f 335 336 313
f 313 336 314
f 304 303 335
f 335 303 337
f 336 335 338
f 338 335 337
f 336 339 314
f 314 339 340
f 246 299 238
f 238 299 341
f 239 342 282
f 282 342 302
f 342 239 341
f 341 239 238
f 341 331 342
f 342 331 343
f 331 329 343
f 343 329 344
f 342 343 302
f 302 343 345
f 341 299 331
f 331 299 332
f 346 301 345
f 345 301 302
f 346 303 301
f 301 303 300
f 347 337 346
f 346 337 303
f 347 346 348
f 348 346 345
f 349 347 350
f 350 347 348
f 343 344 345
f 345 344 348
f 344 351 348
f 348 351 350
f 337 347 338
f 338 347 349
f 353 338 352
f 352 338 349
f 352 355 354
f 354 355 356
f 352 349 355
f 355 349 350
f 352 354 353
f 353 354 334
f 353 334 339
f 339 334 321
f 339 336 353
f 353 336 338
f 329 330 344
f 344 330 351
f 356 351 333
f 333 351 330
f 356 355 351
f 351 355 350
f 354 356 328
f 328 356 333
f 328 325 354
f 354 325 334
f 309 315 319
f 319 315 320
f 320 340 321
f 321 340 339
f 320 315 340
f 340 315 314
f 137 136 261
f 261 136 259
f 140 166 141
f 141 166 165
f 172 171 195
f 195 171 196
f 171 174 196
f 196 174 190
f 178 177 264
f 264 177 187
f 172 195 140
f 140 195 166
f 137 261 262
f 262 261 275
f 178 264 141
f 141 264 138
f 262 177 213
f 213 177 176
f 136 174 259
f 259 174 173
f 358 359 357
f 357 359 360
f 362 363 361
f 361 363 364
f 361 364 365
f 365 364 366
f 367 368 370
f 370 368 369
f 76 371 247
f 247 371 372
f 373 374 362
f 362 374 363
f 376 377 375
f 375 377 378
f 289 229 380
f 380 229 379
f 381 379 263
f 263 379 229
f 383 384 382
f 382 384 385
f 386 368 374
f 374 368 363
f 76 289 371
f 371 289 380
f 377 376 359
f 359 376 387
f 388 386 360
f 360 386 374
f 389 383 366
f 366 383 390
f 392 393 391
f 391 393 394
f 383 382 390
f 390 382 395
f 396 365 390
f 390 365 366
f 389 366 367
f 367 366 364
f 357 397 358
f 358 397 398
f 373 399 357
f 357 399 397
f 389 367 400
f 400 367 370
f 382 385 375
f 375 385 372
f 357 360 373
f 373 360 374
f 361 401 362
f 362 401 402
f 387 388 359
f 359 388 360
f 363 368 364
f 364 368 367
f 358 398 403
f 403 398 404
f 396 392 405
f 405 392 391
f 392 395 393
f 393 395 378
f 393 403 394
f 394 403 404
f 375 378 382
f 382 378 395
f 365 396 406
f 406 396 405
f 362 402 373
f 373 402 399
f 271 270 400
f 400 270 384
f 401 361 406
f 406 361 365
f 381 369 386
f 386 369 368
f 392 396 395
f 395 396 390
f 393 378 403
f 403 378 377
f 403 377 358
f 358 377 359
f 406 405 408
f 408 405 407
f 406 408 401
f 401 408 409
f 401 409 402
f 402 409 410
f 402 410 399
f 399 410 411
f 405 391 407
f 407 391 412
f 391 394 412
f 412 394 413
f 394 404 413
f 413 404 414
f 415 416 412
f 412 416 407
f 418 419 417
f 417 419 420
f 421 422 418
f 418 422 419
f 419 422 424
f 424 422 423
f 425 426 424
f 424 426 427
f 423 428 424
f 424 428 425
f 427 420 424
f 424 420 419
f 420 429 417
f 417 429 430
f 423 422 431
f 431 422 421
f 421 409 431
f 431 409 408
f 421 432 409
f 409 432 410
f 418 433 421
f 421 433 432
f 434 433 417
f 417 433 418
f 431 416 423
f 423 416 428
f 416 431 407
f 407 431 408
f 435 434 430
f 430 434 417
f 433 434 436
f 436 434 437
f 434 435 437
f 437 435 438
f 436 437 439
f 439 437 440
f 439 441 436
f 436 441 442
f 438 443 437
f 437 443 440
f 436 442 433
f 433 442 432
f 432 442 410
f 410 442 411
f 435 430 445
f 445 430 444
f 430 429 444
f 444 429 446
f 425 428 447
f 447 428 416
f 426 425 448
f 448 425 447
f 416 415 447
f 447 415 449
f 447 449 448
f 448 449 450
f 451 452 448
f 448 452 426
f 446 452 444
f 444 452 451
f 399 411 397
f 397 411 453
f 398 454 404
f 404 454 414
f 454 398 453
f 453 398 397
f 453 441 454
f 454 441 455
f 441 439 455
f 455 439 456
f 454 455 414
f 414 455 457
f 441 453 442
f 442 453 411
f 458 413 457
f 457 413 414
f 458 415 413
f 413 415 412
f 458 459 415
f 415 459 449
f 459 458 460
f 460 458 457
f 461 459 462
f 462 459 460
f 455 456 457
f 457 456 460
f 456 463 460
f 460 463 462
f 459 461 449
f 449 461 450
f 465 450 464
f 464 450 461
f 464 467 466
f 466 467 468
f 464 461 467
f 467 461 462
f 464 466 465
f 465 466 445
f 465 445 451
f 451 445 444
f 451 448 465
f 465 448 450
f 439 440 456
f 456 440 463
f 468 463 443
f 443 463 440
f 468 467 463
f 463 467 462
f 466 468 438
f 438 468 443
f 438 435 466
f 466 435 445
f 420 427 429
f 429 427 446
f 446 427 452
f 452 427 426
f 370 369 188
f 188 369 186
f 371 376 372
f 372 376 375
f 380 379 387
f 387 379 388
f 379 381 388
f 388 381 386
f 385 384 278
f 278 384 270
f 380 387 371
f 371 387 376
f 400 370 271
f 271 370 188
f 385 278 372
f 372 278 247
f 400 384 389
f 389 384 383
f 369 381 186
f 186 381 263
f 221 271 144
f 144 271 188
f 221 19 207
f 207 19 22
f 19 18 22
f 22 18 23
f 18 219 23
f 23 219 208
f 469 470 472
f 472 470 471
f 474 475 473
f 473 475 476
f 473 476 477
f 477 476 478
f 480 481 479
f 479 481 482
f 483 484 474
f 474 484 475
f 486 487 485
f 485 487 488
f 489 490 77
f 77 490 142
f 491 489 248
f 248 489 77
f 493 494 492
f 492 494 495
f 496 480 484
f 484 480 475
f 486 497 487
f 487 497 471
f 498 496 472
f 472 496 484
f 499 493 478
f 478 493 500
f 501 502 504
f 504 502 503
f 493 492 500
f 500 492 505
f 506 477 500
f 500 477 478
f 499 478 479
f 479 478 476
f 469 507 470
f 470 507 508
f 483 509 469
f 469 509 507
f 479 482 499
f 499 482 510
f 492 495 485
f 485 495 511
f 483 469 484
f 484 469 472
f 473 512 474
f 474 512 513
f 497 498 471
f 471 498 472
f 475 480 476
f 476 480 479
f 470 508 514
f 514 508 515
f 506 502 516
f 516 502 501
f 503 502 488
f 488 502 505
f 514 515 503
f 503 515 504
f 485 488 492
f 492 488 505
f 477 506 517
f 517 506 516
f 474 513 483
f 483 513 509
f 510 292 494
f 494 292 164
f 512 473 517
f 517 473 477
f 491 481 496
f 496 481 480
f 502 506 505
f 505 506 500
f 503 488 514
f 514 488 487
f 514 487 470
f 470 487 471
f 517 516 519
f 519 516 518
f 517 519 512
f 512 519 520
f 512 520 513
f 513 520 521
f 513 521 509
f 509 521 522
f 516 501 518
f 518 501 523
f 501 504 523
f 523 504 524
f 524 504 525
f 525 504 515
f 526 527 523
f 523 527 518
f 529 530 528
f 528 530 531
f 532 533 529
f 529 533 530
f 530 533 535
f 535 533 534
f 536 537 535
f 535 537 538
f 534 539 535
f 535 539 536
f 538 531 535
f 535 531 530
f 540 541 531
f 531 541 528
f 533 532 534
f 534 532 542
f 532 520 542
f 542 520 519
f 532 543 520
f 520 543 521
f 529 544 532
f 532 544 543
f 544 529 545
f 545 529 528
f 534 542 539
f 539 542 527
f 527 542 518
f 518 542 519
f 541 546 528
f 528 546 545
f 547 544 548
f 548 544 545
f 546 549 545
f 545 549 548
f 550 547 551
f 551 547 548
f 547 550 553
f 553 550 552
f 549 554 548
f 548 554 551
f 544 547 543
f 543 547 553
f 543 553 521
f 521 553 522
f 546 541 556
f 556 541 555
f 541 540 555
f 555 540 557
f 536 539 558
f 558 539 527
f 537 536 559
f 559 536 558
f 527 526 558
f 558 526 560
f 559 558 561
f 561 558 560
f 559 562 537
f 537 562 563
f 557 563 555
f 555 563 562
f 509 522 507
f 507 522 564
f 508 565 515
f 515 565 525
f 565 508 564
f 564 508 507
f 564 552 565
f 565 552 566
f 552 550 566
f 566 550 567
f 565 566 525
f 525 566 568
f 564 522 552
f 552 522 553
f 569 524 568
f 568 524 525
f 569 526 524
f 524 526 523
f 570 560 569
f 569 560 526
f 570 569 571
f 571 569 568
f 572 570 573
f 573 570 571
f 566 567 568
f 568 567 571
f 567 574 571
f 571 574 573
f 570 572 560
f 560 572 561
f 576 561 575
f 575 561 572
f 575 578 577
f 577 578 579
f 575 572 578
f 578 572 573
f 575 577 576
f 576 577 556
f 576 556 562
f 562 556 555
f 562 559 576
f 576 559 561
f 550 551 567
f 567 551 574
f 579 574 554
f 554 574 551
f 579 578 574
f 574 578 573
f 579 554 577
f 577 554 549
f 549 546 577
f 577 546 556
f 531 538 540
f 540 538 557
f 557 538 563
f 563 538 537
f 481 294 482
f 482 294 293
f 580 486 511
f 511 486 485
f 490 489 497
f 497 489 498
f 489 491 498
f 498 491 496
f 163 495 164
f 164 495 494
f 580 490 486
f 486 490 497
f 482 293 510
f 510 293 292
f 495 163 511
f 511 163 199
f 494 493 510
f 510 493 499
f 481 491 294
f 294 491 248
f 582 583 581
f 581 583 584
f 586 587 585
f 585 587 588
f 585 588 589
f 589 588 590
f 592 593 591
f 591 593 594
f 595 596 598
f 598 596 597
f 599 600 586
f 586 600 587
f 601 602 604
f 604 602 603
f 605 606 608
f 608 606 607
f 609 607 200
f 200 607 606
f 610 611 613
f 613 611 612
f 600 614 587
f 587 614 592
f 596 605 597
f 597 605 608
f 602 615 603
f 603 615 583
f 616 614 584
f 584 614 600
f 611 618 617
f 617 618 590
f 620 621 619
f 619 621 622
f 610 623 611
f 611 623 618
f 624 589 618
f 618 589 590
f 617 590 591
f 591 590 588
f 581 625 582
f 582 625 626
f 599 627 581
f 581 627 625
f 591 594 617
f 617 594 628
f 601 610 598
f 598 610 613
f 581 584 599
f 599 584 600
f 585 629 586
f 586 629 630
f 615 616 583
f 583 616 584
f 587 592 588
f 588 592 591
f 582 626 631
f 631 626 632
f 624 620 633
f 633 620 619
f 621 620 604
f 604 620 623
f 631 632 621
f 621 632 622
f 610 601 623
f 623 601 604
f 589 624 634
f 634 624 633
f 586 630 599
f 599 630 627
f 203 202 628
f 628 202 612
f 629 585 634
f 634 585 589
f 609 593 614
f 614 593 592
f 620 624 623
f 623 624 618
f 631 621 603
f 603 621 604
f 582 631 583
f 583 631 603
f 634 633 636
f 636 633 635
f 634 636 629
f 629 636 637
f 629 637 630
f 630 637 638
f 630 638 627
f 627 638 639
f 633 619 635
f 635 619 640
f 619 622 640
f 640 622 641
f 641 622 642
f 642 622 632
f 644 635 643
f 643 635 640
f 645 646 648
f 648 646 647
f 649 650 646
f 646 650 647
f 647 650 652
f 652 650 651
f 652 653 655
f 655 653 654
f 651 656 652
f 652 656 653
f 655 648 652
f 652 648 647
f 648 657 645
f 645 657 658
f 650 649 651
f 651 649 659
f 649 637 659
f 659 637 636
f 649 660 637
f 637 660 638
f 661 660 646
f 646 660 649
f 662 661 645
f 645 661 646
f 651 659 656
f 656 659 644
f 644 659 635
f 635 659 636
f 663 662 658
f 658 662 645
f 664 661 665
f 665 661 662
f 663 666 662
f 662 666 665
f 667 664 668
f 668 664 665
f 664 667 670
f 670 667 669
f 666 671 665
f 665 671 668
f 661 664 660
f 660 664 670
f 660 670 638
f 638 670 639
f 658 672 663
f 663 672 673
f 658 657 672
f 672 657 674
f 653 656 675
f 675 656 644
f 653 675 654
f 654 675 676
f 675 644 677
f 677 644 643
f 676 675 678
f 678 675 677
f 679 680 676
f 676 680 654
f 674 680 672
f 672 680 679
f 627 639 625
f 625 639 681
f 626 682 632
f 632 682 642
f 681 682 625
f 625 682 626
f 669 683 681
f 681 683 682
f 667 684 669
f 669 684 683
f 682 683 642
f 642 683 685
f 681 639 669
f 669 639 670
f 686 641 685
f 685 641 642
f 641 686 640
f 640 686 643
f 686 687 643
f 643 687 677
f 687 686 688
f 688 686 685
f 689 687 690
f 690 687 688
f 683 684 685
f 685 684 688
f 684 691 688
f 688 691 690
f 687 689 677
f 677 689 678
f 693 678 692
f 692 678 689
f 692 695 694
f 694 695 696
f 692 689 695
f 695 689 690
f 692 694 693
f 693 694 673
f 693 673 679
f 679 673 672
f 679 676 693
f 693 676 678
f 684 667 691
f 691 667 668
f 696 691 671
f 671 691 668
f 696 695 691
f 691 695 690
f 694 696 666
f 666 696 671
f 666 663 694
f 694 663 673
f 648 655 657
f 657 655 674
f 674 655 680
f 680 655 654
f 593 162 594
f 594 162 290
f 598 597 601
f 601 597 602
f 615 608 616
f 616 608 607
f 607 609 616
f 616 609 614
f 697 595 613
f 613 595 598
f 597 608 602
f 602 608 615
f 594 290 628
f 628 290 203
f 628 612 617
f 617 612 611
f 593 609 162
f 162 609 200
f 105 29 698
f 698 29 699
f 268 126 701
f 701 126 700
f 126 125 700
f 700 125 702
f 252 703 250
f 250 703 704
f 32 268 705
f 705 268 701
f 288 105 706
f 706 105 698
f 29 32 699
f 699 32 705
f 707 251 706
f 706 251 288
f 250 704 125
f 125 704 702
f 703 252 707
f 707 252 251
f 706 708 707
f 707 708 709
f 707 709 703
f 703 709 710
f 703 710 704
f 704 710 711
f 704 711 702
f 702 711 712
f 706 698 708
f 708 698 713
f 698 699 713
f 713 699 714
f 699 705 714
f 714 705 715
f 717 708 716
f 716 708 713
f 719 720 718
f 718 720 721
f 722 723 719
f 719 723 720
f 724 725 723
f 723 725 720
f 724 726 725
f 725 726 727
f 728 721 725
f 725 721 720
f 721 728 729
f 729 728 730
f 729 731 721
f 721 731 718
f 724 723 732
f 732 723 722
f 722 710 732
f 732 710 709
f 722 733 710
f 710 733 711
f 719 734 722
f 722 734 733
f 734 719 735
f 735 719 718
f 724 732 726
f 726 732 717
f 717 732 708
f 708 732 709
f 731 736 718
f 718 736 735
f 737 734 738
f 738 734 735
f 736 739 735
f 735 739 738
f 740 737 741
f 741 737 738
f 737 740 743
f 743 740 742
f 739 744 738
f 738 744 741
f 734 737 733
f 733 737 743
f 733 743 711
f 711 743 712
f 736 731 746
f 746 731 745
f 731 729 745
f 745 729 730
f 727 726 747
f 747 726 717
f 748 727 749
f 749 727 747
f 747 717 750
f 750 717 716
f 749 747 751
f 751 747 750
f 749 752 748
f 748 752 753
f 730 753 745
f 745 753 752
f 728 725 748
f 748 725 727
f 730 728 753
f 753 728 748
f 700 702 754
f 754 702 712
f 705 701 715
f 715 701 755
f 754 755 700
f 700 755 701
f 742 756 754
f 754 756 755
f 740 757 742
f 742 757 756
f 755 756 715
f 715 756 758
f 754 712 742
f 742 712 743
f 759 714 758
f 758 714 715
f 714 759 713
f 713 759 716
f 759 760 716
f 716 760 750
f 760 759 761
f 761 759 758
f 762 760 763
f 763 760 761
f 756 757 758
f 758 757 761
f 757 764 761
f 761 764 763
f 760 762 750
f 750 762 751
f 766 751 765
f 765 751 762
f 767 765 769
f 769 765 768
f 765 762 768
f 768 762 763
f 765 767 766
f 766 767 746
f 766 746 752
f 752 746 745
f 752 749 766
f 766 749 751
f 757 740 764
f 764 740 741
f 769 764 744
f 744 764 741
f 769 768 764
f 764 768 763
f 767 769 739
f 739 769 744
f 739 736 767
f 767 736 746
f 219 217 208
f 208 217 209
f 209 217 210
f 210 217 193
f 198 580 199
f 199 580 511
f 76 75 289
f 289 75 272
f 277 207 291
f 291 207 184
f 290 183 203
f 203 183 84
f 490 580 142
f 142 580 198
f 142 198 143
f 143 198 197
f 149 276 72
f 72 276 73
f 104 103 279
f 279 103 770
f 770 596 279
f 279 596 595
f 605 596 771
f 771 596 770
f 771 770 772
f 772 770 103
f 772 103 773
f 773 103 102
f 155 774 101
f 101 774 102
f 773 102 97
f 97 102 774
f 775 773 100
f 100 773 97
f 773 775 772
f 772 775 776
f 772 776 771
f 771 776 777
f 200 606 197
f 197 606 777
f 189 71 778
f 778 71 74
f 97 774 98
f 98 774 155
f 183 161 184
f 184 161 291
f 777 276 197
f 197 276 143
f 777 606 771
f 771 606 605
f 613 612 697
f 697 612 202
f 595 697 279
f 279 697 202
f 73 276 776
f 776 276 777
f 776 775 73
f 73 775 74
f 100 778 775
f 775 778 74
f 778 100 189
f 189 100 99
f 245 242 99
f 99 242 189
f 131 33 256
f 28 1 95
f 95 1 62
f 27 2 28
f 28 2 1
f 265 115 266
f 266 115 114
f 95 62 69
f 69 62 64
f 62 61 64
f 64 61 65
f 61 13 65
f 65 13 130
f 13 12 130
f 130 12 14
f 31 11 32
f 32 11 268
f 15 12 31
f 31 12 11
f 31 30 15
f 15 30 231
f 30 106 231
f 231 106 232
f 287 237 106
f 106 237 232
f 254 90 287
f 287 90 237
f 253 44 254
f 254 44 90
f 253 249 44
f 44 249 7
f 267 127 268
f 268 127 126
f 10 3 241
f 241 3 116
f 3 2 116
f 116 2 114
f 2 27 114
f 114 27 266
f 27 26 266
f 266 26 113
f 26 286 113
f 113 286 110
f 286 243 110
f 110 243 255
f 243 242 255
f 255 242 256
f 242 245 256
f 256 245 131
f 245 244 131
f 131 244 132
f 265 37 115
f 115 37 41
f 41 37 42
f 42 37 40
f 92 91 40
f 40 91 42
f 236 233 92
f 92 233 91
f 191 194 236
f 236 194 233
f 258 285 244
f 244 285 132
f 257 55 258
f 258 55 285
f 257 154 201
f 201 154 185
f 56 201 204
f 204 201 180
f 55 257 56
f 56 257 201
f 204 85 56
f 56 85 52
f 86 122 53
f 53 122 79
f 212 215 86
f 86 215 122
f 211 216 212
f 212 216 215
f 192 280 211
f 211 280 216
f 191 240 192
f 192 240 280
f 249 124 7
f 7 124 8
f 124 127 8
f 8 127 241
f 127 267 241
f 241 267 10
f 10 267 9
f 9 267 11
f 93 39 235
f 235 39 240
f 39 123 240
f 240 123 280
f 123 119 280
f 280 119 216
f 119 118 216
f 216 118 215
f 118 120 215
f 215 120 122
f 120 121 122
f 122 121 79
f 121 109 79
f 79 109 80

