# https://github.com/mikedh/trimesh
v -0.11385129 0.00759209 -16.43596458 0.25098039 0.27450980 0.65882353
v -0.11460225 0.00460619 -16.44806290 0.25098039 0.27450980 0.65882353
v -0.10657534 0.00233592 -16.44398308 0.25098039 0.27450980 0.65882353
v -0.10615885 0.00785045 -16.43172264 0.25098039 0.27450980 0.65882353
v -0.10068443 0.00210361 -16.46718788 0.25098039 0.27450980 0.65882353
v -0.09463236 0.01121018 -16.47317886 0.25098039 0.27450980 0.65882353
v -0.08732226 0.00650826 -16.46207809 0.25098039 0.27450980 0.65882353
v -0.09399594 -0.00127058 -16.45854759 0.25098039 0.27450980 0.65882353
v -0.10120401 0.00910076 -16.42734337 0.25098039 0.27450980 0.65882353
v -0.10049029 0.00078458 -16.43904877 0.25098039 0.27450980 0.65882353
v -0.09963098 0.01280992 -16.42571831 0.25098039 0.27450980 0.65882353
v -0.10474810 0.02625620 -16.41657639 0.25098039 0.27450980 0.65882353
v -0.10417971 0.01937461 -16.41851807 0.25098039 0.27450980 0.65882353
v -0.10797425 0.03049419 -16.40909386 0.25098039 0.27450980 0.65882353
v -0.10960987 0.03512803 -16.42057800 0.25098039 0.27450980 0.65882353
v -0.11607326 0.03535326 -16.40795708 0.25098039 0.27450980 0.65882353
v -0.13946892 0.03329328 -16.42456627 0.25098039 0.27450980 0.65882353
v -0.14994013 0.02392895 -16.42777634 0.25098039 0.27450980 0.65882353
v -0.14871386 0.02062678 -16.41171265 0.25098039 0.27450980 0.65882353
v -0.13804375 0.03007416 -16.40983009 0.25098039 0.27450980 0.65882353
v -0.16050833 0.00449136 -16.42190933 0.25098039 0.27450980 0.65882353
v -0.15453139 0.01329152 -16.41533852 0.25098039 0.27450980 0.65882353
v -0.15629669 0.01716885 -16.43139648 0.25098039 0.27450980 0.65882353
v -0.16153425 0.00939932 -16.43655586 0.25098039 0.27450980 0.65882353
v -0.12556419 0.00225208 -16.44275475 0.25098039 0.27450980 0.65882353
v -0.12635233 0.00081559 -16.45331764 0.25098039 0.27450980 0.65882353
v -0.12344380 0.00377513 -16.45148087 0.25098039 0.27450980 0.65882353
v -0.12195323 0.00536458 -16.44111252 0.25098039 0.27450980 0.65882353
v -0.08907174 0.01510584 -16.43031883 0.25098039 0.27450980 0.65882353
v -0.09688735 0.02781612 -16.43348122 0.25098039 0.27450980 0.65882353
v -0.09906989 0.02227952 -16.42765808 0.25098039 0.27450980 0.65882353
v -0.09104347 0.00909385 -16.42973328 0.25098039 0.27450980 0.65882353
v -0.12928340 -0.00800910 -16.47974586 0.25098039 0.27450980 0.65882353
v -0.13467462 0.00041751 -16.49063873 0.25098039 0.27450980 0.65882353
v -0.13058680 0.00500863 -16.49019623 0.25098039 0.27450980 0.65882353
v -0.12711647 -0.00292513 -16.48008919 0.25098039 0.27450980 0.65882353
v -0.11142768 0.01547496 -16.48510551 0.25098039 0.27450980 0.65882353
v -0.11844026 0.02040601 -16.49029541 0.25098039 0.27450980 0.65882353
v -0.11838885 0.03335389 -16.49320984 0.25098039 0.27450980 0.65882353
v -0.11207111 0.03071976 -16.48554230 0.25098039 0.27450980 0.65882353
v -0.10224685 0.01288086 -16.47926140 0.25098039 0.27450980 0.65882353
v -0.10187784 0.02611068 -16.47943687 0.25098039 0.27450980 0.65882353
v -0.09293264 0.02291338 -16.47202492 0.25098039 0.27450980 0.65882353
v -0.08432359 0.01603455 -16.46076202 0.25098039 0.27450980 0.65882353
v -0.14556134 -0.00695569 -16.49077415 0.25098039 0.27450980 0.65882353
v -0.14343132 -0.01464108 -16.48348618 0.25098039 0.27450980 0.65882353
v -0.09835622 0.01340807 -16.36676979 0.25098039 0.27450980 0.65882353
v -0.10163021 0.00813435 -16.36686707 0.25098039 0.27450980 0.65882353
v -0.10320950 0.00983348 -16.37021828 0.25098039 0.27450980 0.65882353
v -0.09977446 0.01474355 -16.36952591 0.25098039 0.27450980 0.65882353
v -0.16509658 -0.00701587 -16.48292732 0.25098039 0.27450980 0.65882353
v -0.17098476 0.00151624 -16.47993088 0.25098039 0.27450980 0.65882353
v -0.17091292 0.00095058 -16.48695755 0.25098039 0.27450980 0.65882353
v -0.16423243 -0.00556752 -16.49009895 0.25098039 0.27450980 0.65882353
v -0.16596317 -0.00881122 -16.47318840 0.25098039 0.27450980 0.65882353
v -0.17005974 0.00199382 -16.47001648 0.25098039 0.27450980 0.65882353
v -0.10324073 0.02116034 -16.35800743 0.25098039 0.27450980 0.65882353
v -0.09934497 0.02008177 -16.36106491 0.25098039 0.27450980 0.65882353
v -0.10173497 0.02294731 -16.36367989 0.25098039 0.27450980 0.65882353
v -0.10646710 0.02380547 -16.36123276 0.25098039 0.27450980 0.65882353
v -0.10641262 0.01431935 -16.42190742 0.25098039 0.27450980 0.65882353
v -0.11224937 0.00972114 -16.42608643 0.25098039 0.27450980 0.65882353
v -0.10656057 0.01462589 -16.40209579 0.25098039 0.27450980 0.65882353
v -0.11023474 0.01311407 -16.41194534 0.25098039 0.27450980 0.65882353
v -0.10627429 0.01852091 -16.41271019 0.25098039 0.27450980 0.65882353
v -0.10416083 0.02065722 -16.40441513 0.25098039 0.27450980 0.65882353
v -0.12748101 -0.00132356 -16.42051315 0.25098039 0.27450980 0.65882353
v -0.12779221 -0.00010725 -16.43201256 0.25098039 0.27450980 0.65882353
v -0.12365522 0.00432621 -16.42932701 0.25098039 0.27450980 0.65882353
v -0.12101933 0.00323579 -16.41668892 0.25098039 0.27450980 0.65882353
v -0.13610247 -0.01123907 -16.43633080 0.25098039 0.27450980 0.65882353
v -0.13545744 -0.01142107 -16.42473412 0.25098039 0.27450980 0.65882353
v -0.14068328 -0.01762895 -16.42875862 0.25098039 0.27450980 0.65882353
v -0.13944845 -0.01712763 -16.43632126 0.25098039 0.27450980 0.65882353
v -0.13154051 -0.01002007 -16.40391159 0.25098039 0.27450980 0.65882353
v -0.13249470 -0.00936939 -16.39552307 0.25098039 0.27450980 0.65882353
v -0.13426058 -0.01105291 -16.39574242 0.25098039 0.27450980 0.65882353
v -0.13404965 -0.01221119 -16.40526581 0.25098039 0.27450980 0.65882353
v -0.17142366 0.00156417 -16.49367523 0.25098039 0.27450980 0.65882353
v -0.16320358 -0.00312776 -16.49668312 0.25098039 0.27450980 0.65882353
v -0.16935712 -0.01297953 -16.43215752 0.25098039 0.27450980 0.65882353
v -0.16782659 -0.02108237 -16.43983459 0.25098039 0.27450980 0.65882353
v -0.16824740 -0.02689759 -16.42823982 0.25098039 0.27450980 0.65882353
v -0.17008927 -0.01631713 -16.42269897 0.25098039 0.27450980 0.65882353
v -0.17140858 0.01187415 -16.47561073 0.25098039 0.27450980 0.65882353
v -0.17359364 0.01071998 -16.48267555 0.25098039 0.27450980 0.65882353
v -0.10825603 0.01878057 -16.35587883 0.25098039 0.27450980 0.65882353
v -0.11156116 0.02119230 -16.35921288 0.25098039 0.27450980 0.65882353
v -0.09899481 0.03539450 -16.46654510 0.25098039 0.27450980 0.65882353
v -0.08639900 0.02591187 -16.45547295 0.25098039 0.27450980 0.65882353
v -0.11007574 0.04009965 -16.47604179 0.25098039 0.27450980 0.65882353
v -0.11899562 0.04337847 -16.48242950 0.25098039 0.27450980 0.65882353
v -0.12452094 0.04484593 -16.48952675 0.25098039 0.27450980 0.65882353
v -0.11348447 0.00790370 -16.40848160 0.25098039 0.27450980 0.65882353
v -0.11889619 0.00697056 -16.43164062 0.25098039 0.27450980 0.65882353
v -0.12851191 -0.00129983 -16.44414711 0.25098039 0.27450980 0.65882353
v -0.14568043 -0.02730747 -16.44959641 0.25098039 0.27450980 0.65882353
v -0.14507061 -0.02584602 -16.45994949 0.25098039 0.27450980 0.65882353
v -0.13737375 -0.01994381 -16.45452118 0.25098039 0.27450980 0.65882353
v -0.13997594 -0.02201641 -16.44639397 0.25098039 0.27450980 0.65882353
v -0.16179463 -0.02900278 -16.44219971 0.25098039 0.27450980 0.65882353
v -0.15352809 -0.03048129 -16.44090843 0.25098039 0.27450980 0.65882353
v -0.15401337 -0.03189235 -16.43296623 0.25098039 0.27450980 0.65882353
v -0.16204032 -0.03166566 -16.43248940 0.25098039 0.27450980 0.65882353
v -0.08382399 0.01904733 -16.43426514 0.25098039 0.27450980 0.65882353
v -0.09483299 0.03175813 -16.43877792 0.25098039 0.27450980 0.65882353
v -0.15549523 -0.01211139 -16.48463631 0.25098039 0.27450980 0.65882353
v -0.15407416 -0.00788322 -16.49084663 0.25098039 0.27450980 0.65882353
v -0.15548339 -0.00347936 -16.49847221 0.25098039 0.27450980 0.65882353
v -0.12621325 -0.00297339 -16.46694756 0.25098039 0.27450980 0.65882353
v -0.12550664 0.00023554 -16.48058891 0.25098039 0.27450980 0.65882353
v -0.12277994 0.00283103 -16.48008919 0.25098039 0.27450980 0.65882353
v -0.12565799 -0.00035776 -16.46616936 0.25098039 0.27450980 0.65882353
v -0.11394111 0.00230845 -16.46175575 0.25098039 0.27450980 0.65882353
v -0.11061424 0.00440417 -16.47409248 0.25098039 0.27450980 0.65882353
v -0.10588212 -0.00168885 -16.45632362 0.25098039 0.27450980 0.65882353
v -0.12570044 0.01212370 -16.49111748 0.25098039 0.27450980 0.65882353
v -0.13229153 0.00939835 -16.49981689 0.25098039 0.27450980 0.65882353
v -0.12706591 0.01704913 -16.49933243 0.25098039 0.27450980 0.65882353
v -0.14001545 0.00290933 -16.50029564 0.25098039 0.27450980 0.65882353
v -0.14803836 -0.00159968 -16.49920845 0.25098039 0.27450980 0.65882353
v -0.17725310 0.01189700 -16.48963547 0.25098039 0.27450980 0.65882353
v -0.12294339 0.02460381 -16.49784088 0.25098039 0.27450980 0.65882353
v -0.09039325 -0.00398527 -16.45153999 0.25098039 0.27450980 0.65882353
v -0.08599696 -0.00609239 -16.44552994 0.25098039 0.27450980 0.65882353
v -0.09095633 -0.00595861 -16.43819237 0.25098039 0.27450980 0.65882353
v -0.09584156 -0.00485881 -16.44384575 0.25098039 0.27450980 0.65882353
v -0.10945567 0.03248219 -16.39980888 0.25098039 0.27450980 0.65882353
v -0.10460058 0.02648205 -16.40213013 0.25098039 0.27450980 0.65882353
v -0.10479651 0.02508126 -16.41226006 0.25098039 0.27450980 0.65882353
v -0.13250580 -0.01398344 -16.47070503 0.25098039 0.27450980 0.65882353
v -0.14430977 -0.01996278 -16.47463226 0.25098039 0.27450980 0.65882353
v -0.11059402 0.01030192 -16.39816856 0.25098039 0.27450980 0.65882353
v -0.10901804 0.02641467 -16.36552620 0.25098039 0.27450980 0.65882353
v -0.10346253 0.02544106 -16.36796188 0.25098039 0.27450980 0.65882353
v -0.10665323 0.03068346 -16.38502121 0.25098039 0.27450980 0.65882353
v -0.11327661 0.03236316 -16.38175201 0.25098039 0.27450980 0.65882353
v -0.11739601 0.01084245 -16.38828087 0.25098039 0.27450980 0.65882353
v -0.11162195 0.01084869 -16.39217949 0.25098039 0.27450980 0.65882353
v -0.11286994 0.01068910 -16.38952255 0.25098039 0.27450980 0.65882353
v -0.11828487 0.00915337 -16.38505363 0.25098039 0.27450980 0.65882353
v -0.13814676 -0.01768854 -16.40187263 0.25098039 0.27450980 0.65882353
v -0.13859755 -0.01824814 -16.41016006 0.25098039 0.27450980 0.65882353
v -0.13499752 0.02380501 -16.39562988 0.25098039 0.27450980 0.65882353
v -0.12668574 0.03506827 -16.39840317 0.25098039 0.27450980 0.65882353
v -0.12751542 0.03591369 -16.40939903 0.25098039 0.27450980 0.65882353
v -0.13204849 -0.00680911 -16.42358017 0.25098039 0.27450980 0.65882353
v -0.13168919 -0.00912865 -16.41337776 0.25098039 0.27450980 0.65882353
v -0.13472293 -0.01201098 -16.41467094 0.25098039 0.27450980 0.65882353
v -0.11592007 0.00548597 -16.40476799 0.25098039 0.27450980 0.65882353
v -0.11511713 0.00688716 -16.39599800 0.25098039 0.27450980 0.65882353
v -0.11848499 0.00365507 -16.39986038 0.25098039 0.27450980 0.65882353
v -0.12013061 0.00269519 -16.40738297 0.25098039 0.27450980 0.65882353
v -0.16838694 -0.01611119 -16.45201111 0.25098039 0.27450980 0.65882353
v -0.16126218 -0.02562565 -16.45450020 0.25098039 0.27450980 0.65882353
v -0.09757884 0.01745803 -16.36444283 0.25098039 0.27450980 0.65882353
v -0.09931222 0.01964846 -16.36708069 0.25098039 0.27450980 0.65882353
v -0.13235418 -0.00515190 -16.43473625 0.25098039 0.27450980 0.65882353
v -0.12844199 0.03677531 -16.42271233 0.25098039 0.27450980 0.65882353
v -0.13149109 -0.00541313 -16.44582558 0.25098039 0.27450980 0.65882353
v -0.16022998 -0.01270415 -16.40762138 0.25098039 0.27450980 0.65882353
v -0.15577313 -0.01996698 -16.40775871 0.25098039 0.27450980 0.65882353
v -0.15352821 -0.02088944 -16.40244102 0.25098039 0.27450980 0.65882353
v -0.15787947 -0.01638503 -16.40004921 0.25098039 0.27450980 0.65882353
v -0.11589625 0.00681892 -16.37063408 0.25098039 0.27450980 0.65882353
v -0.11009921 0.00605676 -16.37250328 0.25098039 0.27450980 0.65882353
v -0.10851012 0.00624390 -16.36884308 0.25098039 0.27450980 0.65882353
v -0.11385722 0.00660543 -16.36606216 0.25098039 0.27450980 0.65882353
v -0.10720591 0.01441537 -16.39442635 0.25098039 0.27450980 0.65882353
v -0.10395131 0.02032176 -16.39620399 0.25098039 0.27450980 0.65882353
v -0.10375893 0.01858386 -16.39021873 0.25098039 0.27450980 0.65882353
v -0.10812272 0.01365771 -16.38970947 0.25098039 0.27450980 0.65882353
v -0.10473496 0.02691496 -16.39395332 0.25098039 0.27450980 0.65882353
v -0.10311227 0.02541146 -16.38854408 0.25098039 0.27450980 0.65882353
v -0.11993318 0.01176872 -16.36769867 0.25098039 0.27450980 0.65882353
v -0.11937697 0.01907282 -16.36484718 0.25098039 0.27450980 0.65882353
v -0.12489985 0.02262682 -16.37965965 0.25098039 0.27450980 0.65882353
v -0.12311720 0.01399615 -16.38035583 0.25098039 0.27450980 0.65882353
v -0.16359980 0.01506017 -16.45047951 0.25098039 0.27450980 0.65882353
v -0.16860077 0.00560038 -16.45442963 0.25098039 0.27450980 0.65882353
v -0.16711736 0.00008201 -16.44048119 0.25098039 0.27450980 0.65882353
v -0.16660723 -0.00555245 -16.42688560 0.25098039 0.27450980 0.65882353
v -0.16460609 -0.01057045 -16.41473579 0.25098039 0.27450980 0.65882353
v -0.16086417 0.00032458 -16.41040039 0.25098039 0.27450980 0.65882353
v -0.16936105 -0.00679613 -16.44511223 0.25098039 0.27450980 0.65882353
v -0.12623686 0.01404438 -16.38835716 0.25098039 0.27450980 0.65882353
v -0.12794079 0.02413161 -16.38947296 0.25098039 0.27450980 0.65882353
v -0.13165176 0.01887511 -16.38982010 0.25098039 0.27450980 0.65882353
v -0.13476419 -0.01210199 -16.44772148 0.25098039 0.27450980 0.65882353
v -0.10010958 0.02175321 -16.37100410 0.25098039 0.27450980 0.65882353
v -0.14243701 0.04643752 -16.47585297 0.25098039 0.27450980 0.65882353
v -0.15545590 0.04042185 -16.47509575 0.25098039 0.27450980 0.65882353
v -0.15114740 0.03888796 -16.46774673 0.25098039 0.27450980 0.65882353
v -0.13627014 0.04551066 -16.46822929 0.25098039 0.27450980 0.65882353
v -0.10355033 0.00968255 -16.37381554 0.25098039 0.27450980 0.65882353
v -0.09947239 0.01542514 -16.37362099 0.25098039 0.27450980 0.65882353
v -0.14233613 -0.02389990 -16.41098785 0.25098039 0.27450980 0.65882353
v -0.14184144 -0.02244795 -16.40340996 0.25098039 0.27450980 0.65882353
v -0.14581913 -0.02383740 -16.40217209 0.25098039 0.27450980 0.65882353
v -0.14544737 -0.02776769 -16.40943146 0.25098039 0.27450980 0.65882353
v -0.17008051 0.00056491 -16.45815277 0.25098039 0.27450980 0.65882353
v -0.16521305 -0.03241513 -16.42195892 0.25098039 0.27450980 0.65882353
v -0.16791579 -0.02232595 -16.41686058 0.25098039 0.27450980 0.65882353
v -0.16939667 0.01057815 -16.46656418 0.25098039 0.27450980 0.65882353
v -0.16584948 0.01937246 -16.46291924 0.25098039 0.27450980 0.65882353
v -0.16832146 0.02219929 -16.47175789 0.25098039 0.27450980 0.65882353
v -0.15144011 0.00833040 -16.39932823 0.25098039 0.27450980 0.65882353
v -0.15866394 0.02097555 -16.44600868 0.25098039 0.27450980 0.65882353
v -0.16077474 0.02450991 -16.45980072 0.25098039 0.27450980 0.65882353
v -0.16338247 0.02828165 -16.47008324 0.25098039 0.27450980 0.65882353
v -0.16634458 0.03105002 -16.47713470 0.25098039 0.27450980 0.65882353
v -0.17078356 0.02350676 -16.47841454 0.25098039 0.27450980 0.65882353
v -0.11476503 0.02349188 -16.36395645 0.25098039 0.27450980 0.65882353
v -0.11631787 0.01616750 -16.35931587 0.25098039 0.27450980 0.65882353
v -0.17463544 0.02525252 -16.48564148 0.25098039 0.27450980 0.65882353
v -0.16898957 0.03301405 -16.48411560 0.25098039 0.27450980 0.65882353
v -0.15416826 0.03115661 -16.45684052 0.25098039 0.27450980 0.65882353
v -0.14510643 0.03829057 -16.45361519 0.25098039 0.27450980 0.65882353
v -0.15214509 0.02766068 -16.44363403 0.25098039 0.27450980 0.65882353
v -0.14340904 0.03457985 -16.43938828 0.25098039 0.27450980 0.65882353
v -0.14739329 0.01922920 -16.39949036 0.25098039 0.27450980 0.65882353
v -0.10813642 0.00420976 -16.35000801 0.25098039 0.27450980 0.65882353
v -0.11408115 0.00835128 -16.35803223 0.25098039 0.27450980 0.65882353
v -0.11149521 0.00503189 -16.36212540 0.25098039 0.27450980 0.65882353
v -0.10739642 0.00094950 -16.35300827 0.25098039 0.27450980 0.65882353
v -0.11706302 0.01030152 -16.36263466 0.25098039 0.27450980 0.65882353
v -0.11309066 0.01378739 -16.35597038 0.25098039 0.27450980 0.65882353
v -0.12872732 0.03949772 -16.43732071 0.25098039 0.27450980 0.65882353
v -0.11923723 0.00510960 -16.39213753 0.25098039 0.27450980 0.65882353
v -0.12622374 0.04371653 -16.45337296 0.25098039 0.27450980 0.65882353
v -0.11137681 0.03876643 -16.43201065 0.25098039 0.27450980 0.65882353
v -0.10852791 0.04078007 -16.44418526 0.25098039 0.27450980 0.65882353
v -0.12169721 0.04760081 -16.47048759 0.25098039 0.27450980 0.65882353
v -0.10840756 0.04386763 -16.45985985 0.25098039 0.27450980 0.65882353
v -0.13364002 0.04928508 -16.48548698 0.25098039 0.27450980 0.65882353
v -0.12900758 0.04860000 -16.47742081 0.25098039 0.27450980 0.65882353
v -0.09573087 0.03588007 -16.45102310 0.25098039 0.27450980 0.65882353
v -0.09517050 0.00624869 -16.36022377 0.25098039 0.27450980 0.65882353
v -0.09934323 0.00180389 -16.36042786 0.25098039 0.27450980 0.65882353
v -0.14587903 0.04810743 -16.48326874 0.25098039 0.27450980 0.65882353
v -0.09966666 -0.00356116 -16.44928551 0.25098039 0.27450980 0.65882353
v -0.13214691 -0.01029548 -16.45809364 0.25098039 0.27450980 0.65882353
v -0.12966958 -0.00546082 -16.45616913 0.25098039 0.27450980 0.65882353
v -0.14530937 -0.02408610 -16.46599388 0.25098039 0.27450980 0.65882353
v -0.13542384 -0.01684069 -16.46153069 0.25098039 0.27450980 0.65882353
v -0.09346204 0.01106438 -16.35793495 0.25098039 0.27450980 0.65882353
v -0.13696086 -0.00710805 -16.38979149 0.25098039 0.27450980 0.65882353
v -0.13845620 -0.00597720 -16.39183998 0.25098039 0.27450980 0.65882353
v -0.08406678 0.00208391 -16.45575905 0.25098039 0.27450980 0.65882353
v -0.08086230 -0.00122429 -16.45021439 0.25098039 0.27450980 0.65882353
v -0.07556751 0.01109876 -16.44491196 0.25098039 0.27450980 0.65882353
v -0.07650949 0.00483758 -16.44942665 0.25098039 0.27450980 0.65882353
v -0.08020577 0.01044893 -16.45504189 0.25098039 0.27450980 0.65882353
v -0.08007050 0.01791286 -16.45060539 0.25098039 0.27450980 0.65882353
v -0.12658063 -0.00547135 -16.46728706 0.25098039 0.27450980 0.65882353
v -0.12876117 -0.00905410 -16.46788788 0.25098039 0.27450980 0.65882353
v -0.16705319 -0.01237712 -16.46341515 0.25098039 0.27450980 0.65882353
v -0.15937489 -0.02144568 -16.46500206 0.25098039 0.27450980 0.65882353
v -0.10901521 0.03179560 -16.39192772 0.25098039 0.27450980 0.65882353
v -0.11725754 0.03576277 -16.39748192 0.25098039 0.27450980 0.65882353
v -0.11578842 0.03374017 -16.38951683 0.25098039 0.27450980 0.65882353
v -0.12046164 0.02987184 -16.38130951 0.25098039 0.27450980 0.65882353
v -0.12232741 0.00926360 -16.38767052 0.25098039 0.27450980 0.65882353
v -0.12343186 0.01501606 -16.38681984 0.25098039 0.27450980 0.65882353
v -0.11738279 0.00344196 -16.47662926 0.25098039 0.27450980 0.65882353
v -0.12168242 0.00221335 -16.46405792 0.25098039 0.27450980 0.65882353
v -0.09684294 0.00058205 -16.43598747 0.25098039 0.27450980 0.65882353
v -0.09260768 -0.00018164 -16.43192673 0.25098039 0.27450980 0.65882353
v -0.12574449 -0.00186319 -16.41154289 0.25098039 0.27450980 0.65882353
v -0.14658804 0.00572396 -16.38920975 0.25098039 0.27450980 0.65882353
v -0.14295329 0.01488491 -16.38920593 0.25098039 0.27450980 0.65882353
v -0.12512915 -0.00239180 -16.40223312 0.25098039 0.27450980 0.65882353
v -0.09739977 0.01467629 -16.35095024 0.25098039 0.27450980 0.65882353
v -0.09430338 0.01349469 -16.35490417 0.25098039 0.27450980 0.65882353
v -0.12286535 0.03199798 -16.38927841 0.25098039 0.27450980 0.65882353
v -0.13877112 -0.01889604 -16.41854668 0.25098039 0.27450980 0.65882353
v -0.15107989 0.00159475 -16.39481544 0.25098039 0.27450980 0.65882353
v -0.14419709 -0.00189464 -16.38769722 0.25098039 0.27450980 0.65882353
v -0.15996194 -0.03441336 -16.42778587 0.25098039 0.27450980 0.65882353
v -0.15817010 0.04198773 -16.48292542 0.25098039 0.27450980 0.65882353
v -0.10670044 0.00407577 -16.36529541 0.25098039 0.27450980 0.65882353
v -0.10381912 -0.00042745 -16.35872078 0.25098039 0.27450980 0.65882353
v -0.10725582 0.00840018 -16.34863663 0.25098039 0.27450980 0.65882353
v -0.10329467 0.01336316 -16.34886360 0.25098039 0.27450980 0.65882353
v -0.15633966 -0.01747901 -16.47442245 0.25098039 0.27450980 0.65882353
v -0.12828766 -0.00259201 -16.45455742 0.25098039 0.27450980 0.65882353
v -0.08660378 0.02684869 -16.44502068 0.25098039 0.27450980 0.65882353
v -0.07879594 0.01620066 -16.43917656 0.25098039 0.27450980 0.65882353
v -0.12538797 -0.00247480 -16.39627838 0.25098039 0.27450980 0.65882353
v -0.16215968 -0.01897020 -16.41157722 0.25098039 0.27450980 0.65882353
v -0.15921043 -0.00460871 -16.40240860 0.25098039 0.27450980 0.65882353
v -0.15782800 -0.00861907 -16.39418793 0.25098039 0.27450980 0.65882353
v -0.15235999 -0.00399963 -16.38967133 0.25098039 0.27450980 0.65882353
v -0.14458627 -0.00355402 -16.38791656 0.25098039 0.27450980 0.65882353
v -0.10435849 0.00501330 -16.34577942 0.25098039 0.27450980 0.65882353
v -0.10041681 0.00994447 -16.34590149 0.25098039 0.27450980 0.65882353
v -0.09462017 0.01141590 -16.34807014 0.25098039 0.27450980 0.65882353
v -0.09192333 0.01072803 -16.35195732 0.25098039 0.27450980 0.65882353
v -0.09218144 0.00846610 -16.35587692 0.25098039 0.27450980 0.65882353
v -0.10498196 0.00074379 -16.34733772 0.25098039 0.27450980 0.65882353
v -0.10414517 -0.00183493 -16.35032463 0.25098039 0.27450980 0.65882353
v -0.10224122 -0.00203987 -16.35637856 0.25098039 0.27450980 0.65882353
v -0.10185620 -0.00276224 -16.34631538 0.25098039 0.27450980 0.65882353
v -0.09890677 -0.00037644 -16.34258652 0.25098039 0.27450980 0.65882353
v -0.08531809 0.00157831 -16.34440422 0.25098039 0.27450980 0.65882353
v -0.08974811 0.00535565 -16.34439278 0.25098039 0.27450980 0.65882353
v -0.08973424 0.00335224 -16.34281540 0.25098039 0.27450980 0.65882353
v -0.08643986 -0.00021394 -16.34190178 0.25098039 0.27450980 0.65882353
v -0.08405313 -0.00427207 -16.34001160 0.25098039 0.27450980 0.65882353
v -0.08244593 -0.00273010 -16.34274864 0.25098039 0.27450980 0.65882353
v -0.09432691 0.00294298 -16.34235001 0.25098039 0.27450980 0.65882353
v -0.09050108 -0.00203526 -16.34063339 0.25098039 0.27450980 0.65882353
v -0.09372923 -0.00486501 -16.34093475 0.25098039 0.27450980 0.65882353
v -0.09039792 -0.00861084 -16.33871078 0.25098039 0.27450980 0.65882353
v -0.08736688 -0.00621578 -16.33836365 0.25098039 0.27450980 0.65882353
v -0.09612621 -0.00112273 -16.34183884 0.25098039 0.27450980 0.65882353
v -0.09581682 0.00462800 -16.34263039 0.25098039 0.27450980 0.65882353
v -0.08195850 -0.00680817 -16.34092522 0.25098039 0.27450980 0.65882353
v -0.08324769 -0.00671586 -16.33879089 0.25098039 0.27450980 0.65882353
v -0.08566076 -0.00874602 -16.33772278 0.25098039 0.27450980 0.65882353
v -0.08415042 -0.01088840 -16.33903885 0.25098039 0.27450980 0.65882353
v -0.08915256 0.00730220 -16.35000420 0.25098039 0.27450980 0.65882353
v -0.08441201 0.00123486 -16.34689331 0.25098039 0.27450980 0.65882353
v -0.08245419 -0.00413038 -16.34564781 0.25098039 0.27450980 0.65882353
v -0.08207461 -0.00804322 -16.34352684 0.25098039 0.27450980 0.65882353
v -0.08487508 -0.00187876 -16.34965515 0.25098039 0.27450980 0.65882353
v -0.08364192 -0.00585971 -16.34785080 0.25098039 0.27450980 0.65882353
v -0.08364040 -0.00937371 -16.34614944 0.25098039 0.27450980 0.65882353
v -0.08673382 -0.00531157 -16.35178757 0.25098039 0.27450980 0.65882353
v -0.08542320 -0.00818236 -16.34932899 0.25098039 0.27450980 0.65882353
v -0.09242047 0.00315648 -16.35668564 0.25098039 0.27450980 0.65882353
v -0.09041014 0.00658747 -16.35472870 0.25098039 0.27450980 0.65882353
v -0.08473659 -0.01008411 -16.34790230 0.25098039 0.27450980 0.65882353
v -0.08447121 -0.01199363 -16.34092331 0.25098039 0.27450980 0.65882353
v -0.09670460 -0.00608295 -16.34283638 0.25098039 0.27450980 0.65882353
v -0.09179804 -0.01061886 -16.34103394 0.25098039 0.27450980 0.65882353
v -0.09740968 -0.00751332 -16.34466171 0.25098039 0.27450980 0.65882353
v -0.09277514 -0.01208080 -16.34269142 0.25098039 0.27450980 0.65882353
v -0.08856866 -0.01275403 -16.33909225 0.25098039 0.27450980 0.65882353
v -0.08822919 -0.01042214 -16.33811760 0.25098039 0.27450980 0.65882353
v -0.09483466 0.00473226 -16.35861778 0.25098039 0.27450980 0.65882353
v -0.09913395 0.00032710 -16.35865593 0.25098039 0.27450980 0.65882353
v -0.09718406 -0.00119364 -16.35720634 0.25098039 0.27450980 0.65882353
v -0.09045240 -0.00842399 -16.35234833 0.25098039 0.27450980 0.65882353
v -0.10006076 -0.00381484 -16.35507584 0.25098039 0.27450980 0.65882353
v -0.10114747 -0.00498221 -16.34929466 0.25098039 0.27450980 0.65882353
v -0.09661038 -0.00935132 -16.34680557 0.25098039 0.27450980 0.65882353
v -0.09470838 -0.01001677 -16.34974861 0.25098039 0.27450980 0.65882353
v -0.09262256 -0.01248338 -16.34522629 0.25098039 0.27450980 0.65882353
v -0.09129912 -0.01205718 -16.34744263 0.25098039 0.27450980 0.65882353
v -0.08816063 -0.01069372 -16.34937859 0.25098039 0.27450980 0.65882353
v -0.08890387 -0.01354802 -16.34418488 0.25098039 0.27450980 0.65882353
v -0.08886747 -0.01343049 -16.34118652 0.25098039 0.27450980 0.65882353
v -0.08540368 -0.01227036 -16.34420204 0.25098039 0.27450980 0.65882353
v -0.08908971 -0.01307770 -16.34608078 0.25098039 0.27450980 0.65882353
v -0.08648622 -0.01161112 -16.34656525 0.25098039 0.27450980 0.65882353
v -0.11667369 -0.01011540 -16.36312675 0.25098039 0.27450980 0.65882353
v -0.12070648 -0.01567275 -16.36436462 0.25098039 0.27450980 0.65882353
v -0.12275483 -0.01205690 -16.36594200 0.25098039 0.27450980 0.65882353
v -0.11905424 -0.00765244 -16.36480904 0.25098039 0.27450980 0.65882353
v -0.12238369 -0.00264689 -16.35190773 0.25098039 0.27450980 0.65882353
v -0.11781833 -0.00379002 -16.35619164 0.25098039 0.27450980 0.65882353
v -0.12053621 -0.00003524 -16.35798454 0.25098039 0.27450980 0.65882353
v -0.12653027 0.00062606 -16.35469818 0.25098039 0.27450980 0.65882353
v -0.12891413 -0.00568146 -16.35084534 0.25098039 0.27450980 0.65882353
v -0.13294795 -0.00240499 -16.35415268 0.25098039 0.27450980 0.65882353
v -0.12866244 0.00462655 -16.35857582 0.25098039 0.27450980 0.65882353
v -0.12235215 0.00320091 -16.36211395 0.25098039 0.27450980 0.65882353
v -0.12649462 0.01143286 -16.38105202 0.25098039 0.27450980 0.65882353
v -0.13302636 0.01370320 -16.37789917 0.25098039 0.27450980 0.65882353
v -0.13119140 -0.00746522 -16.38825035 0.25098039 0.27450980 0.65882353
v -0.13543352 -0.00758310 -16.38563347 0.25098039 0.27450980 0.65882353
v -0.11614249 -0.00678677 -16.36046219 0.25098039 0.27450980 0.65882353
v -0.11857450 -0.00352923 -16.36191368 0.25098039 0.27450980 0.65882353
v -0.13227530 -0.01523407 -16.36840820 0.25098039 0.27450980 0.65882353
v -0.12669405 -0.01455059 -16.37028694 0.25098039 0.27450980 0.65882353
v -0.12636055 -0.01581240 -16.36626816 0.25098039 0.27450980 0.65882353
v -0.13148662 -0.01661020 -16.36367035 0.25098039 0.27450980 0.65882353
v -0.12287931 0.00315112 -16.38698769 0.25098039 0.27450980 0.65882353
v -0.12694159 -0.00260347 -16.38855553 0.25098039 0.27450980 0.65882353
v -0.12341965 0.00728063 -16.38416100 0.25098039 0.27450980 0.65882353
v -0.13759719 -0.01253602 -16.36465073 0.25098039 0.27450980 0.65882353
v -0.13980420 -0.00698982 -16.36068153 0.25098039 0.27450980 0.65882353
v -0.14511402 0.00243034 -16.37794495 0.25098039 0.27450980 0.65882353
v -0.14295562 -0.00419966 -16.38059616 0.25098039 0.27450980 0.65882353
v -0.11913731 -0.00056601 -16.36549759 0.25098039 0.27450980 0.65882353
v -0.12154558 -0.01083114 -16.36992264 0.25098039 0.27450980 0.65882353
v -0.11842069 -0.00575924 -16.36855316 0.25098039 0.27450980 0.65882353
v -0.13559747 0.00068016 -16.35866547 0.25098039 0.27450980 0.65882353
v -0.13622579 -0.00975864 -16.35581207 0.25098039 0.27450980 0.65882353
v -0.12501714 -0.02498959 -16.34921837 0.25098039 0.27450980 0.65882353
v -0.13224791 -0.01805523 -16.35589409 0.25098039 0.27450980 0.65882353
v -0.12918903 -0.01993348 -16.36023903 0.25098039 0.27450980 0.65882353
v -0.12276700 -0.02780502 -16.35338974 0.25098039 0.27450980 0.65882353
v -0.13509835 -0.01475554 -16.35961151 0.25098039 0.27450980 0.65882353
v -0.13244310 -0.01288903 -16.35231400 0.25098039 0.27450980 0.65882353
v -0.10974658 -0.02122328 -16.35706329 0.25098039 0.27450980 0.65882353
v -0.11415780 -0.02627479 -16.35809135 0.25098039 0.27450980 0.65882353
v -0.10821106 -0.01738831 -16.35414696 0.25098039 0.27450980 0.65882353
v -0.14057943 0.01033345 -16.37709618 0.25098039 0.27450980 0.65882353
v -0.11421707 -0.01190029 -16.34644508 0.25098039 0.27450980 0.65882353
v -0.10934341 -0.01406967 -16.35099411 0.25098039 0.27450980 0.65882353
v -0.12513895 -0.01925511 -16.36394691 0.25098039 0.27450980 0.65882353
v -0.11869368 -0.02860357 -16.35660172 0.25098039 0.27450980 0.65882353
v -0.12479883 -0.02107273 -16.34624672 0.25098039 0.27450980 0.65882353
v -0.12118761 -0.01397730 -16.34493256 0.25098039 0.27450980 0.65882353
v -0.12091113 -0.02456405 -16.34391212 0.25098039 0.27450980 0.65882353
v -0.11687062 -0.01885883 -16.34253502 0.25098039 0.27450980 0.65882353
v -0.11020441 -0.01644387 -16.34448242 0.25098039 0.27450980 0.65882353
v -0.10673168 -0.01781551 -16.34949684 0.25098039 0.27450980 0.65882353
v -0.10667577 -0.02020482 -16.35301590 0.25098039 0.27450980 0.65882353
v -0.12123015 -0.02824517 -16.34688187 0.25098039 0.27450980 0.65882353
v -0.11963111 -0.03068114 -16.35104370 0.25098039 0.27450980 0.65882353
v -0.11663426 -0.02990014 -16.35535812 0.25098039 0.27450980 0.65882353
v -0.11665845 -0.03342387 -16.34646034 0.25098039 0.27450980 0.65882353
v -0.11507437 -0.03109736 -16.34266853 0.25098039 0.27450980 0.65882353
v -0.09652749 -0.03274570 -16.34354973 0.25098039 0.27450980 0.65882353
v -0.09998481 -0.02797630 -16.34363174 0.25098039 0.27450980 0.65882353
v -0.10165837 -0.02937690 -16.34190369 0.25098039 0.27450980 0.65882353
v -0.09843817 -0.03374055 -16.34155083 0.25098039 0.27450980 0.65882353
v -0.10460815 -0.02390747 -16.34219360 0.25098039 0.27450980 0.65882353
v -0.10506944 -0.02636936 -16.34145355 0.25098039 0.27450980 0.65882353
v -0.10959333 -0.02801553 -16.34091568 0.25098039 0.27450980 0.65882353
v -0.10569260 -0.03248160 -16.34112930 0.25098039 0.27450980 0.65882353
v -0.10970260 -0.03528850 -16.34242249 0.25098039 0.27450980 0.65882353
v -0.10635239 -0.03957430 -16.34126472 0.25098039 0.27450980 0.65882353
v -0.10222654 -0.03699884 -16.33990288 0.25098039 0.27450980 0.65882353
v -0.11164440 -0.03149301 -16.34166336 0.25098039 0.27450980 0.65882353
v -0.09723550 -0.03706005 -16.34117508 0.25098039 0.27450980 0.65882353
v -0.09584597 -0.03827623 -16.34295654 0.25098039 0.27450980 0.65882353
v -0.11134192 -0.02549700 -16.34044838 0.25098039 0.27450980 0.65882353
v -0.10413989 -0.02080485 -16.34762764 0.25098039 0.27450980 0.65882353
v -0.09873477 -0.02800703 -16.34669495 0.25098039 0.27450980 0.65882353
v -0.09590498 -0.03387908 -16.34671211 0.25098039 0.27450980 0.65882353
v -0.09620650 -0.03999634 -16.34547424 0.25098039 0.27450980 0.65882353
v -0.09916630 -0.03032281 -16.35057259 0.25098039 0.27450980 0.65882353
v -0.09682198 -0.03569668 -16.34936333 0.25098039 0.27450980 0.65882353
v -0.09749644 -0.04053477 -16.34785843 0.25098039 0.27450980 0.65882353
v -0.10126999 -0.03348530 -16.35393906 0.25098039 0.27450980 0.65882353
v -0.09915902 -0.03843952 -16.35184479 0.25098039 0.27450980 0.65882353
v -0.10734077 -0.02496536 -16.35580635 0.25098039 0.27450980 0.65882353
v -0.10466607 -0.02208115 -16.35255432 0.25098039 0.27450980 0.65882353
v -0.09881917 -0.04033861 -16.34992599 0.25098039 0.27450980 0.65882353
v -0.09871049 -0.04182767 -16.34110069 0.25098039 0.27450980 0.65882353
v -0.09860608 -0.04323428 -16.34420013 0.25098039 0.27450980 0.65882353
v -0.09953547 -0.04033688 -16.34035301 0.25098039 0.27450980 0.65882353
v -0.11117545 -0.03660255 -16.34353828 0.25098039 0.27450980 0.65882353
v -0.10692230 -0.04108181 -16.34297562 0.25098039 0.27450980 0.65882353
v -0.11212055 -0.03820350 -16.34581184 0.25098039 0.27450980 0.65882353
v -0.10700418 -0.04269328 -16.34484100 0.25098039 0.27450980 0.65882353
v -0.10315490 -0.04344262 -16.34203148 0.25098039 0.27450980 0.65882353
v -0.10273339 -0.04229161 -16.34087944 0.25098039 0.27450980 0.65882353
v -0.10895401 -0.02327104 -16.35573196 0.25098039 0.27450980 0.65882353
v -0.11317156 -0.02737241 -16.35676575 0.25098039 0.27450980 0.65882353
v -0.11185864 -0.02872281 -16.35700989 0.25098039 0.27450980 0.65882353
v -0.10560705 -0.03690473 -16.35455513 0.25098039 0.27450980 0.65882353
v -0.11560066 -0.03153901 -16.35516357 0.25098039 0.27450980 0.65882353
v -0.11670507 -0.03395226 -16.35022736 0.25098039 0.27450980 0.65882353
v -0.11208929 -0.03895111 -16.34874535 0.25098039 0.27450980 0.65882353
v -0.10962024 -0.03901696 -16.35228729 0.25098039 0.27450980 0.65882353
v -0.10744868 -0.04357219 -16.34692001 0.25098039 0.27450980 0.65882353
v -0.10692406 -0.04226489 -16.35001564 0.25098039 0.27450980 0.65882353
v -0.10275580 -0.04060298 -16.35233498 0.25098039 0.27450980 0.65882353
v -0.10331979 -0.04517620 -16.34580040 0.25098039 0.27450980 0.65882353
v -0.10309549 -0.04451993 -16.34345055 0.25098039 0.27450980 0.65882353
v -0.09924704 -0.04327058 -16.34636497 0.25098039 0.27450980 0.65882353
v -0.10382986 -0.04406741 -16.34853554 0.25098039 0.27450980 0.65882353
v -0.10052539 -0.04247468 -16.34929848 0.25098039 0.27450980 0.65882353
v -0.13121563 -0.02293403 -16.37300873 0.25098039 0.27450980 0.65882353
v -0.13258004 -0.02793467 -16.37664986 0.25098039 0.27450980 0.65882353
v -0.13401380 -0.02587846 -16.37891579 0.25098039 0.27450980 0.65882353
v -0.13267705 -0.02086702 -16.37540245 0.25098039 0.27450980 0.65882353
v -0.14172360 -0.02115197 -16.36502266 0.25098039 0.27450980 0.65882353
v -0.13684112 -0.01997005 -16.36585999 0.25098039 0.27450980 0.65882353
v -0.13873355 -0.01712192 -16.36875725 0.25098039 0.27450980 0.65882353
v -0.14427936 -0.01732321 -16.36855888 0.25098039 0.27450980 0.65882353
v -0.14497896 -0.02608198 -16.36550903 0.25098039 0.27450980 0.65882353
v -0.14888620 -0.02144032 -16.37019539 0.25098039 0.27450980 0.65882353
v -0.14702444 -0.01320902 -16.37199402 0.25098039 0.27450980 0.65882353
v -0.14045875 -0.01396155 -16.37185478 0.25098039 0.27450980 0.65882353
v -0.14375110 -0.00602373 -16.38480949 0.25098039 0.27450980 0.65882353
v -0.15113787 -0.00640058 -16.38376617 0.25098039 0.27450980 0.65882353
v -0.13336408 -0.02071245 -16.36921501 0.25098039 0.27450980 0.65882353
v -0.13471034 -0.01835955 -16.37166214 0.25098039 0.27450980 0.65882353
v -0.14165062 -0.03184318 -16.38349342 0.25098039 0.27450980 0.65882353
v -0.13693944 -0.02924634 -16.38360786 0.25098039 0.27450980 0.65882353
v -0.13738219 -0.03063438 -16.38046265 0.25098039 0.27450980 0.65882353
v -0.14133087 -0.03280337 -16.38014412 0.25098039 0.27450980 0.65882353
v -0.13614814 -0.01186995 -16.39274216 0.25098039 0.27450980 0.65882353
v -0.13940842 -0.01682618 -16.39657784 0.25098039 0.27450980 0.65882353
v -0.13805392 -0.00860572 -16.38805008 0.25098039 0.27450980 0.65882353
v -0.14828372 -0.03084703 -16.38095665 0.25098039 0.27450980 0.65882353
v -0.15317434 -0.02516939 -16.37773514 0.25098039 0.27450980 0.65882353
v -0.15689933 -0.01990704 -16.39068413 0.25098039 0.27450980 0.65882353
v -0.15212229 -0.02336468 -16.39449883 0.25098039 0.27450980 0.65882353
v -0.13563637 -0.01581657 -16.37411499 0.25098039 0.27450980 0.65882353
v -0.13344672 -0.02422877 -16.38196754 0.25098039 0.27450980 0.65882353
v -0.13233289 -0.01907627 -16.37798882 0.25098039 0.27450980 0.65882353
v -0.15161401 -0.01762435 -16.37428474 0.25098039 0.27450980 0.65882353
v -0.14958063 -0.02822347 -16.37345314 0.25098039 0.27450980 0.65882353
v -0.13778815 -0.04401685 -16.36335945 0.25098039 0.27450980 0.65882353
v -0.14527899 -0.03483625 -16.37421799 0.25098039 0.27450980 0.65882353
v -0.13996688 -0.03491144 -16.37773514 0.25098039 0.27450980 0.65882353
v -0.13467577 -0.04471235 -16.36684227 0.25098039 0.27450980 0.65882353
v -0.14652418 -0.03288641 -16.37733459 0.25098039 0.27450980 0.65882353
v -0.14726025 -0.03126007 -16.36956406 0.25098039 0.27450980 0.65882353
v -0.12398160 -0.03366278 -16.36484718 0.25098039 0.27450980 0.65882353
v -0.12630373 -0.03820793 -16.36826324 0.25098039 0.27450980 0.65882353
v -0.12575187 -0.03066604 -16.36168480 0.25098039 0.27450980 0.65882353
v -0.15697044 -0.01172530 -16.38600159 0.25098039 0.27450980 0.65882353
v -0.14532951 -0.02295254 -16.39760399 0.25098039 0.27450980 0.65882353
v -0.13154964 -0.03096819 -16.35599136 0.25098039 0.27450980 0.65882353
v -0.12781738 -0.02995075 -16.35870934 0.25098039 0.27450980 0.65882353
v -0.13605285 -0.03239544 -16.37830734 0.25098039 0.27450980 0.65882353
v -0.13050693 -0.04285521 -16.36903572 0.25098039 0.27450980 0.65882353
v -0.13927534 -0.04039618 -16.35979843 0.25098039 0.27450980 0.65882353
v -0.13721079 -0.03431037 -16.35668755 0.25098039 0.27450980 0.65882353
v -0.13521914 -0.04457637 -16.35785675 0.25098039 0.27450980 0.65882353
v -0.13290516 -0.03915526 -16.35443497 0.25098039 0.27450980 0.65882353
v -0.12762550 -0.03567578 -16.35395432 0.25098039 0.27450980 0.65882353
v -0.12444654 -0.03396388 -16.35718346 0.25098039 0.27450980 0.65882353
v -0.12289189 -0.03411207 -16.36038780 0.25098039 0.27450980 0.65882353
v -0.13405743 -0.04735127 -16.36221123 0.25098039 0.27450980 0.65882353
v -0.13177568 -0.04693266 -16.36565971 0.25098039 0.27450980 0.65882353
v -0.12963225 -0.04319057 -16.36803246 0.25098039 0.27450980 0.65882353
v -0.13076833 -0.04991760 -16.36282921 0.25098039 0.27450980 0.65882353
v -0.12968770 -0.04905226 -16.35711861 0.25098039 0.27450980 0.65882353
v -0.11275969 -0.04836385 -16.35538673 0.25098039 0.27450980 0.65882353
v -0.11698569 -0.04447838 -16.35509109 0.25098039 0.27450980 0.65882353
v -0.11783762 -0.04548535 -16.35485458 0.25098039 0.27450980 0.65882353
v -0.11373334 -0.04955422 -16.35460854 0.25098039 0.27450980 0.65882353
v -0.12277155 -0.04145396 -16.35336113 0.25098039 0.27450980 0.65882353
v -0.12231816 -0.04341835 -16.35355186 0.25098039 0.27450980 0.65882353
v -0.12563820 -0.04578631 -16.35394287 0.25098039 0.27450980 0.65882353
v -0.12087028 -0.04991784 -16.35459709 0.25098039 0.27450980 0.65882353
v -0.12429234 -0.05286286 -16.35906410 0.25098039 0.27450980 0.65882353
v -0.11984077 -0.05530528 -16.35892487 0.25098039 0.27450980 0.65882353
v -0.11665058 -0.05325239 -16.35465622 0.25098039 0.27450980 0.65882353
v -0.12764214 -0.04919638 -16.35674667 0.25098039 0.27450980 0.65882353
v -0.11216988 -0.05226192 -16.35493279 0.25098039 0.27450980 0.65882353
v -0.11033437 -0.05170024 -16.35475159 0.25098039 0.27450980 0.65882353
v -0.12757771 -0.04435498 -16.35338020 0.25098039 0.27450980 0.65882353
v -0.12055203 -0.03745912 -16.35586739 0.25098039 0.27450980 0.65882353
v -0.11511302 -0.04255808 -16.35664368 0.25098039 0.27450980 0.65882353
v -0.11073010 -0.04638459 -16.35714149 0.25098039 0.27450980 0.65882353
v -0.10933900 -0.05045031 -16.35808754 0.25098039 0.27450980 0.65882353
v -0.11448085 -0.04221243 -16.36054802 0.25098039 0.27450980 0.65882353
v -0.11107236 -0.04613456 -16.36032486 0.25098039 0.27450980 0.65882353
v -0.10969168 -0.04986350 -16.36096001 0.25098039 0.27450980 0.65882353
v -0.11505614 -0.04320387 -16.36396217 0.25098039 0.27450980 0.65882353
v -0.11228453 -0.04688613 -16.36346817 0.25098039 0.27450980 0.65882353
v -0.12166210 -0.03690448 -16.36387444 0.25098039 0.27450980 0.65882353
v -0.12045347 -0.03626853 -16.35986900 0.25098039 0.27450980 0.65882353
v -0.11105183 -0.04961472 -16.36290359 0.25098039 0.27450980 0.65882353
v -0.11241579 -0.05592407 -16.35604477 0.25098039 0.27450980 0.65882353
v -0.11125357 -0.05547522 -16.36013794 0.25098039 0.27450980 0.65882353
v -0.11374829 -0.05487835 -16.35576439 0.25098039 0.27450980 0.65882353
v -0.12550676 -0.05338078 -16.36063004 0.25098039 0.27450980 0.65882353
v -0.12005551 -0.05691959 -16.36077118 0.25098039 0.27450980 0.65882353
v -0.12555100 -0.05339420 -16.36371613 0.25098039 0.27450980 0.65882353
v -0.12008671 -0.05677264 -16.36350441 0.25098039 0.27450980 0.65882353
v -0.11625344 -0.05786388 -16.35911751 0.25098039 0.27450980 0.65882353
v -0.11646229 -0.05702337 -16.35833931 0.25098039 0.27450980 0.65882353
v -0.12352142 -0.03580565 -16.36406708 0.25098039 0.27450980 0.65882353
v -0.12608169 -0.03936206 -16.36737061 0.25098039 0.27450980 0.65882353
v -0.12442761 -0.03977901 -16.36737442 0.25098039 0.27450980 0.65882353
v -0.11721560 -0.04611218 -16.36764908 0.25098039 0.27450980 0.65882353
v -0.12785022 -0.04352441 -16.36846733 0.25098039 0.27450980 0.65882353
v -0.12865317 -0.04900298 -16.36617279 0.25098039 0.27450980 0.65882353
v -0.12372329 -0.05199022 -16.36646843 0.25098039 0.27450980 0.65882353
v -0.12055648 -0.04978936 -16.36811066 0.25098039 0.27450980 0.65882353
v -0.11912199 -0.05523248 -16.36580849 0.25098039 0.27450980 0.65882353
v -0.11809192 -0.05263659 -16.36677742 0.25098039 0.27450980 0.65882353
v -0.11416854 -0.04923384 -16.36664963 0.25098039 0.27450980 0.65882353
v -0.11537425 -0.05572253 -16.36398697 0.25098039 0.27450980 0.65882353
v -0.11580208 -0.05761546 -16.36177444 0.25098039 0.27450980 0.65882353
v -0.11136797 -0.05371222 -16.36277008 0.25098039 0.27450980 0.65882353
v -0.11506724 -0.05376404 -16.36553001 0.25098039 0.27450980 0.65882353
v -0.11207578 -0.05208562 -16.36456680 0.25098039 0.27450980 0.65882353
v -0.14219220 -0.02060260 -16.39813805 0.25098039 0.27450980 0.65882353
v -0.13869765 -0.04114274 -16.39662552 0.25098039 0.27450980 0.65882353
v -0.13864890 -0.04429979 -16.39970779 0.25098039 0.27450980 0.65882353
v -0.14088729 -0.04296408 -16.40240669 0.25098039 0.27450980 0.65882353
v -0.14037102 -0.03904590 -16.40025902 0.25098039 0.27450980 0.65882353
v -0.14881119 -0.04126375 -16.39142990 0.25098039 0.27450980 0.65882353
v -0.14451611 -0.03961489 -16.39168167 0.25098039 0.27450980 0.65882353
v -0.14645389 -0.03661016 -16.39488411 0.25098039 0.27450980 0.65882353
v -0.15049988 -0.03814421 -16.39451599 0.25098039 0.27450980 0.65882353
v -0.15129879 -0.04521812 -16.39314842 0.25098039 0.27450980 0.65882353
v -0.15309659 -0.04229681 -16.39628029 0.25098039 0.27450980 0.65882353
v -0.15274179 -0.03531506 -16.39627457 0.25098039 0.27450980 0.65882353
v -0.14818251 -0.03374239 -16.39706612 0.25098039 0.27450980 0.65882353
v -0.15332748 -0.02372195 -16.40576363 0.25098039 0.27450980 0.65882353
v -0.15926616 -0.02475115 -16.40661812 0.25098039 0.27450980 0.65882353
v -0.15656480 -0.03752968 -16.42298698 0.25098039 0.27450980 0.65882353
v -0.15143971 -0.03508386 -16.42437553 0.25098039 0.27450980 0.65882353
v -0.14917624 -0.03948747 -16.41740036 0.25098039 0.27450980 0.65882353
v -0.15425177 -0.04124174 -16.41788673 0.25098039 0.27450980 0.65882353
v -0.14097552 -0.03964789 -16.39373398 0.25098039 0.27450980 0.65882353
v -0.14207062 -0.03670950 -16.39715195 0.25098039 0.27450980 0.65882353
v -0.14896482 -0.04810393 -16.40832710 0.25098039 0.27450980 0.65882353
v -0.14466816 -0.04560914 -16.40768814 0.25098039 0.27450980 0.65882353
v -0.14258111 -0.04644566 -16.40489578 0.25098039 0.27450980 0.65882353
v -0.14610846 -0.04991870 -16.40564537 0.25098039 0.27450980 0.65882353
v -0.14744151 -0.03219717 -16.42083740 0.25098039 0.27450980 0.65882353
v -0.14604229 -0.02939160 -16.41640663 0.25098039 0.27450980 0.65882353
v -0.14448336 -0.03118401 -16.41341019 0.25098039 0.27450980 0.65882353
v -0.14558005 -0.03609551 -16.41458702 0.25098039 0.27450980 0.65882353
v -0.14607039 -0.02717001 -16.40870667 0.25098039 0.27450980 0.65882353
v -0.15286879 -0.04824632 -16.40658760 0.25098039 0.27450980 0.65882353
v -0.15612648 -0.04531986 -16.40256310 0.25098039 0.27450980 0.65882353
v -0.16414768 -0.03739537 -16.41398048 0.25098039 0.27450980 0.65882353
v -0.16000451 -0.03997079 -16.41711044 0.25098039 0.27450980 0.65882353
v -0.14371754 -0.03453237 -16.39845467 0.25098039 0.27450980 0.65882353
v -0.14205945 -0.04188810 -16.40523338 0.25098039 0.27450980 0.65882353
v -0.14134416 -0.03809186 -16.40211678 0.25098039 0.27450980 0.65882353
v -0.15621775 -0.03991003 -16.39797401 0.25098039 0.27450980 0.65882353
v -0.15305802 -0.04743933 -16.40011024 0.25098039 0.27450980 0.65882353
v -0.14342681 -0.05791890 -16.39549637 0.25098039 0.27450980 0.65882353
v -0.14813951 -0.05264428 -16.40174675 0.25098039 0.27450980 0.65882353
v -0.14344576 -0.05160297 -16.40324020 0.25098039 0.27450980 0.65882353
v -0.14059113 -0.05708388 -16.39662170 0.25098039 0.27450980 0.65882353
v -0.15032251 -0.05024480 -16.40397072 0.25098039 0.27450980 0.65882353
v -0.15126567 -0.05035828 -16.39717865 0.25098039 0.27450980 0.65882353
v -0.13492680 -0.04676932 -16.39072990 0.25098039 0.27450980 0.65882353
v -0.13558167 -0.05072797 -16.39472580 0.25098039 0.27450980 0.65882353
v -0.13674515 -0.04543487 -16.38815880 0.25098039 0.27450980 0.65882353
v -0.16403487 -0.02988506 -16.40928841 0.25098039 0.27450980 0.65882353
v -0.14383702 -0.04754631 -16.38529778 0.25098039 0.27450980 0.65882353
v -0.13959828 -0.04571594 -16.38576508 0.25098039 0.27450980 0.65882353
v -0.14022136 -0.04796327 -16.40191841 0.25098039 0.27450980 0.65882353
v -0.13777605 -0.05444965 -16.39654732 0.25098039 0.27450980 0.65882353
v -0.14635813 -0.05651803 -16.39229965 0.25098039 0.27450980 0.65882353
v -0.14740434 -0.05180546 -16.38769913 0.25098039 0.27450980 0.65882353
v -0.14299163 -0.05892639 -16.38951111 0.25098039 0.27450980 0.65882353
v -0.14430551 -0.05401760 -16.38519096 0.25098039 0.27450980 0.65882353
v -0.14022876 -0.04961931 -16.38321877 0.25098039 0.27450980 0.65882353
v -0.13735397 -0.04747773 -16.38482857 0.25098039 0.27450980 0.65882353
v -0.13490620 -0.04701800 -16.38702011 0.25098039 0.27450980 0.65882353
v -0.14039098 -0.06009214 -16.39314270 0.25098039 0.27450980 0.65882353
v -0.13790348 -0.05888717 -16.39485741 0.25098039 0.27450980 0.65882353
v -0.13571639 -0.05573021 -16.39545441 0.25098039 0.27450980 0.65882353
v -0.13717642 -0.06202447 -16.39103889 0.25098039 0.27450980 0.65882353
v -0.13819616 -0.06130034 -16.38630104 0.25098039 0.27450980 0.65882353
v -0.12684833 -0.05674047 -16.38050652 0.25098039 0.27450980 0.65882353
v -0.13013324 -0.05444943 -16.38135719 0.25098039 0.27450980 0.65882353
v -0.13087717 -0.05539035 -16.38106537 0.25098039 0.27450980 0.65882353
v -0.12743045 -0.05723936 -16.37968063 0.25098039 0.27450980 0.65882353
v -0.13537192 -0.05288450 -16.38185310 0.25098039 0.27450980 0.65882353
v -0.13498308 -0.05453053 -16.38169670 0.25098039 0.27450980 0.65882353
v -0.13753670 -0.05684434 -16.38297462 0.25098039 0.27450980 0.65882353
v -0.13308111 -0.05913341 -16.38114929 0.25098039 0.27450980 0.65882353
v -0.13322924 -0.06347138 -16.38465500 0.25098039 0.27450980 0.65882353
v -0.12965575 -0.06480102 -16.38298225 0.25098039 0.27450980 0.65882353
v -0.12995079 -0.06095826 -16.37986755 0.25098039 0.27450980 0.65882353
v -0.13707815 -0.06089072 -16.38460732 0.25098039 0.27450980 0.65882353
v -0.12595193 -0.05934579 -16.37870979 0.25098039 0.27450980 0.65882353
v -0.12470843 -0.05928882 -16.37866402 0.25098039 0.27450980 0.65882353
v -0.13932863 -0.05621128 -16.38312340 0.25098039 0.27450980 0.65882353
v -0.13366711 -0.04952927 -16.38383102 0.25098039 0.27450980 0.65882353
v -0.12808120 -0.05321645 -16.38225174 0.25098039 0.27450980 0.65882353
v -0.12461291 -0.05649073 -16.38091278 0.25098039 0.27450980 0.65882353
v -0.12317531 -0.05976769 -16.38027382 0.25098039 0.27450980 0.65882353
v -0.12724259 -0.05230450 -16.38459969 0.25098039 0.27450980 0.65882353
v -0.12328316 -0.05612400 -16.38282967 0.25098039 0.27450980 0.65882353
v -0.12204327 -0.05949305 -16.38230705 0.25098039 0.27450980 0.65882353
v -0.12648681 -0.05284100 -16.38794327 0.25098039 0.27450980 0.65882353
v -0.12321271 -0.05659640 -16.38537216 0.25098039 0.27450980 0.65882353
v -0.13139038 -0.04944451 -16.39039803 0.25098039 0.27450980 0.65882353
v -0.13210608 -0.04868839 -16.38680267 0.25098039 0.27450980 0.65882353
v -0.12243367 -0.05919582 -16.38398552 0.25098039 0.27450980 0.65882353
v -0.12552771 -0.06304505 -16.37905884 0.25098039 0.27450980 0.65882353
v -0.12353688 -0.06286341 -16.38122559 0.25098039 0.27450980 0.65882353
v -0.12688696 -0.06284757 -16.37884903 0.25098039 0.27450980 0.65882353
v -0.13322791 -0.06418443 -16.38601875 0.25098039 0.27450980 0.65882353
v -0.12888367 -0.06568632 -16.38405228 0.25098039 0.27450980 0.65882353
v -0.13231561 -0.06436527 -16.38851166 0.25098039 0.27450980 0.65882353
v -0.12747160 -0.06548762 -16.38578033 0.25098039 0.27450980 0.65882353
v -0.12636673 -0.06545921 -16.38163376 0.25098039 0.27450980 0.65882353
v -0.12769033 -0.06460503 -16.38095856 0.25098039 0.27450980 0.65882353
v -0.13296898 -0.04846084 -16.39055824 0.25098039 0.27450980 0.65882353
v -0.13391107 -0.05166280 -16.39370537 0.25098039 0.27450980 0.65882353
v -0.13222864 -0.05289744 -16.39340019 0.25098039 0.27450980 0.65882353
v -0.12705690 -0.05573721 -16.39098549 0.25098039 0.27450980 0.65882353
v -0.13396774 -0.05702021 -16.39478302 0.25098039 0.27450980 0.65882353
v -0.13579744 -0.06038100 -16.39351273 0.25098039 0.27450980 0.65882353
v -0.13062918 -0.06295982 -16.39048195 0.25098039 0.27450980 0.65882353
v -0.12859543 -0.06016872 -16.39174652 0.25098039 0.27450980 0.65882353
v -0.12594949 -0.06439649 -16.38704872 0.25098039 0.27450980 0.65882353
v -0.12472787 -0.06185097 -16.38839722 0.25098039 0.27450980 0.65882353
v -0.12358102 -0.05875168 -16.38791656 0.25098039 0.27450980 0.65882353
v -0.12367173 -0.06371787 -16.38429451 0.25098039 0.27450980 0.65882353
v -0.12451202 -0.06488080 -16.38303375 0.25098039 0.27450980 0.65882353
v -0.12271776 -0.06213403 -16.38303757 0.25098039 0.27450980 0.65882353
v -0.12318023 -0.06231245 -16.38556862 0.25098039 0.27450980 0.65882353
v -0.12266207 -0.06087649 -16.38498497 0.25098039 0.27450980 0.65882353
v -0.15995118 -0.03742395 -16.42024612 0.25098039 0.27450980 0.65882353
v -0.07498430 0.00761783 -16.42677879 0.25098039 0.27450980 0.65882353
v -0.07969590 0.00463364 -16.42409897 0.25098039 0.27450980 0.65882353
v -0.08059636 -0.01197707 -16.43277168 0.25098039 0.27450980 0.65882353
v -0.08310971 -0.00786737 -16.42606926 0.25098039 0.27450980 0.65882353
v -0.07577530 -0.01202308 -16.43840218 0.25098039 0.27450980 0.65882353
v -0.06852742 -0.00256054 -16.44109726 0.25098039 0.27450980 0.65882353
v -0.07209234 -0.00806531 -16.44170380 0.25098039 0.27450980 0.65882353
v -0.08279562 -0.00172137 -16.42303658 0.25098039 0.27450980 0.65882353
v -0.07049017 0.00802995 -16.43161964 0.25098039 0.27450980 0.65882353
v -0.06759052 0.00416616 -16.43779564 0.25098039 0.27450980 0.65882353
v -0.06626445 0.00526476 -16.42543411 0.25098039 0.27450980 0.65882353
v -0.06269801 0.00076014 -16.43160057 0.25098039 0.27450980 0.65882353
v -0.06260860 -0.00611107 -16.43483734 0.25098039 0.27450980 0.65882353
v -0.06744927 -0.01185872 -16.43593788 0.25098039 0.27450980 0.65882353
v -0.07153170 -0.01487686 -16.43436432 0.25098039 0.27450980 0.65882353
v -0.07240455 0.00428145 -16.42150879 0.25098039 0.27450980 0.65882353
v -0.07722957 0.00094246 -16.41942787 0.25098039 0.27450980 0.65882353
v -0.08081166 -0.00534238 -16.42050934 0.25098039 0.27450980 0.65882353
v -0.07064477 -0.00101975 -16.41557693 0.25098039 0.27450980 0.65882353
v -0.06235258 -0.00650836 -16.41288948 0.25098039 0.27450980 0.65882353
v -0.05363768 -0.02318847 -16.41456604 0.25098039 0.27450980 0.65882353
v -0.05676566 -0.02049702 -16.41972733 0.25098039 0.27450980 0.65882353
v -0.05564268 -0.01833843 -16.41793251 0.25098039 0.27450980 0.65882353
v -0.05230282 -0.02088736 -16.41371536 0.25098039 0.27450980 0.65882353
v -0.05779783 -0.01584135 -16.42238045 0.25098039 0.27450980 0.65882353
v -0.05736907 -0.01536959 -16.41991806 0.25098039 0.27450980 0.65882353
v -0.05858546 -0.01091353 -16.41730881 0.25098039 0.27450980 0.65882353
v -0.05561078 -0.01323956 -16.41374016 0.25098039 0.27450980 0.65882353
v -0.06060527 -0.00880411 -16.41294289 0.25098039 0.27450980 0.65882353
v -0.05976115 -0.01043183 -16.40976524 0.25098039 0.27450980 0.65882353
v -0.05293590 -0.01552331 -16.40991402 0.25098039 0.27450980 0.65882353
v -0.05031182 -0.02066696 -16.41034508 0.25098039 0.27450980 0.65882353
v -0.05091794 -0.01786284 -16.40650177 0.25098039 0.27450980 0.65882353
v -0.05188210 -0.02343449 -16.40957642 0.25098039 0.27450980 0.65882353
v -0.05763717 -0.00915139 -16.41834641 0.25098039 0.27450980 0.65882353
v -0.06212719 -0.01686972 -16.42835045 0.25098039 0.27450980 0.65882353
v -0.05969475 -0.02228889 -16.42162132 0.25098039 0.27450980 0.65882353
v -0.05693334 -0.02530201 -16.41488838 0.25098039 0.27450980 0.65882353
v -0.05466063 -0.02503902 -16.40904808 0.25098039 0.27450980 0.65882353
v -0.06408273 -0.02366437 -16.42112160 0.25098039 0.27450980 0.65882353
v -0.06139041 -0.02545605 -16.41438675 0.25098039 0.27450980 0.65882353
v -0.05965430 -0.02477336 -16.40883636 0.25098039 0.27450980 0.65882353
v -0.06851794 -0.02302613 -16.41864967 0.25098039 0.27450980 0.65882353
v -0.06484696 -0.02410489 -16.41262817 0.25098039 0.27450980 0.65882353
v -0.07470071 -0.01642203 -16.42786980 0.25098039 0.27450980 0.65882353
v -0.06856810 -0.01794659 -16.43036270 0.25098039 0.27450980 0.65882353
v -0.06232296 -0.02378800 -16.40913963 0.25098039 0.27450980 0.65882353
v -0.05166472 -0.01973112 -16.40460014 0.25098039 0.27450980 0.65882353
v -0.05494449 -0.02143359 -16.40393829 0.25098039 0.27450980 0.65882353
v -0.06284389 -0.00897877 -16.40814590 0.25098039 0.27450980 0.65882353
v -0.05676982 -0.01208965 -16.40594482 0.25098039 0.27450980 0.65882353
v -0.05985086 -0.01226261 -16.40436554 0.25098039 0.27450980 0.65882353
v -0.06691523 -0.00830780 -16.40788078 0.25098039 0.27450980 0.65882353
v -0.06260306 -0.01295825 -16.40355682 0.25098039 0.27450980 0.65882353
v -0.05569638 -0.01547374 -16.40272141 0.25098039 0.27450980 0.65882353
v -0.05388932 -0.01451340 -16.40489769 0.25098039 0.27450980 0.65882353
v -0.07699527 -0.01449587 -16.43058968 0.25098039 0.27450980 0.65882353
v -0.08054610 -0.01064735 -16.42552948 0.25098039 0.27450980 0.65882353
v -0.07831298 -0.01211820 -16.42318535 0.25098039 0.27450980 0.65882353
v -0.07251944 -0.01895822 -16.41465569 0.25098039 0.27450980 0.65882353
v -0.07878941 -0.00789363 -16.41796684 0.25098039 0.27450980 0.65882353
v -0.07508704 -0.00331898 -16.41536903 0.25098039 0.27450980 0.65882353
v -0.07037166 -0.01019547 -16.40810204 0.25098039 0.27450980 0.65882353
v -0.07288893 -0.01394451 -16.41052055 0.25098039 0.27450980 0.65882353
v -0.06550382 -0.01526442 -16.40438652 0.25098039 0.27450980 0.65882353
v -0.06693432 -0.01745714 -16.40628052 0.25098039 0.27450980 0.65882353
v -0.06681842 -0.02155850 -16.40941238 0.25098039 0.27450980 0.65882353
v -0.06167237 -0.01860412 -16.40333939 0.25098039 0.27450980 0.65882353
v -0.05868746 -0.01681577 -16.40211105 0.25098039 0.27450980 0.65882353
v -0.05952270 -0.02205263 -16.40491867 0.25098039 0.27450980 0.65882353
v -0.06374475 -0.01934582 -16.40515137 0.25098039 0.27450980 0.65882353
v -0.06273633 -0.02187042 -16.40672302 0.25098039 0.27450980 0.65882353
v -0.15263814 -0.03314745 -16.42848587 0.25098039 0.27450980 0.65882353
v -0.14745359 -0.02955334 -16.42552757 0.25098039 0.27450980 0.65882353
v -0.14886218 -0.02905265 -16.43127060 0.25098039 0.27450980 0.65882353
v -0.14744088 -0.02853167 -16.43972778 0.25098039 0.27450980 0.65882353
v -0.15206325 -0.02904399 -16.44924164 0.25098039 0.27450980 0.65882353
v -0.14281243 -0.02331330 -16.43774796 0.25098039 0.27450980 0.65882353
v -0.14466117 -0.02427641 -16.42894363 0.25098039 0.27450980 0.65882353
v -0.14334562 -0.02503307 -16.41984558 0.25098039 0.27450980 0.65882353
v -0.13777953 -0.01655215 -16.44363785 0.25098039 0.27450980 0.65882353
f 2 3 1
f 1 3 4
f 5 6 8
f 8 6 7
f 9 4 10
f 10 4 3
f 12 13 11
f 11 13 9
f 14 12 16
f 16 12 15
f 18 19 17
f 17 19 20
f 22 23 21
f 21 23 24
f 26 27 25
f 25 27 28
f 30 31 29
f 29 31 32
f 33 34 36
f 36 34 35
f 37 38 40
f 40 38 39
f 41 42 6
f 6 42 43
f 6 43 7
f 7 43 44
f 45 34 46
f 46 34 33
f 48 49 47
f 47 49 50
f 52 53 51
f 51 53 54
f 56 52 55
f 55 52 51
f 58 59 57
f 57 59 60
f 61 62 4
f 4 62 1
f 64 65 63
f 63 65 66
f 68 69 67
f 67 69 70
f 72 73 71
f 71 73 74
f 76 77 75
f 75 77 78
f 53 79 54
f 54 79 80
f 82 83 81
f 81 83 84
f 85 86 52
f 52 86 53
f 57 60 87
f 87 60 88
f 89 90 43
f 43 90 44
f 43 42 89
f 89 42 91
f 40 39 92
f 92 39 93
f 94 70 64
f 64 70 69
f 13 61 9
f 9 61 4
f 25 28 69
f 69 28 95
f 96 25 68
f 68 25 69
f 98 99 97
f 97 99 100
f 101 102 104
f 104 102 103
f 106 30 105
f 105 30 29
f 51 54 107
f 107 54 108
f 54 80 108
f 108 80 109
f 111 112 110
f 110 112 113
f 115 5 114
f 114 5 116
f 115 41 5
f 5 41 6
f 36 35 111
f 111 35 117
f 35 118 117
f 117 118 119
f 34 120 35
f 35 120 118
f 34 45 120
f 120 45 121
f 125 126 124
f 124 126 127
f 128 129 14
f 14 129 130
f 33 131 46
f 46 131 132
f 133 94 63
f 63 94 64
f 134 135 137
f 137 135 136
f 139 140 138
f 138 140 141
f 77 142 78
f 78 142 143
f 144 145 20
f 20 145 146
f 148 149 147
f 147 149 72
f 151 152 150
f 150 152 153
f 82 101 83
f 83 101 104
f 101 82 155
f 155 82 154
f 156 157 58
f 58 157 59
f 158 68 147
f 147 68 67
f 159 146 15
f 15 146 16
f 68 158 96
f 96 158 160
f 129 66 130
f 130 66 65
f 162 163 161
f 161 163 164
f 166 167 165
f 165 167 168
f 170 171 169
f 169 171 172
f 174 171 173
f 173 171 170
f 176 177 175
f 175 177 178
f 180 181 179
f 179 181 24
f 182 183 21
f 21 183 184
f 81 185 82
f 82 185 154
f 186 187 188
f 188 187 144
f 158 71 160
f 160 71 189
f 190 135 157
f 157 135 59
f 169 172 139
f 139 172 140
f 147 72 158
f 158 72 71
f 192 193 191
f 191 193 194
f 167 166 49
f 49 166 195
f 196 190 50
f 50 190 157
f 197 198 200
f 200 198 199
f 21 24 182
f 182 24 181
f 146 159 20
f 20 159 17
f 182 181 81
f 81 181 185
f 201 185 180
f 180 185 181
f 202 203 83
f 83 203 84
f 205 206 204
f 204 206 85
f 207 22 184
f 184 22 21
f 179 24 208
f 208 24 23
f 208 209 179
f 179 209 205
f 209 210 205
f 205 210 206
f 212 206 211
f 211 206 210
f 179 205 180
f 180 205 204
f 213 176 88
f 88 176 214
f 86 85 212
f 212 85 206
f 193 217 218
f 217 219 218
f 218 219 220
f 219 18 220
f 220 18 17
f 19 221 20
f 20 221 144
f 222 223 225
f 225 223 224
f 175 226 176
f 176 226 214
f 227 87 214
f 214 87 88
f 220 17 228
f 228 17 159
f 134 213 60
f 60 213 88
f 138 229 151
f 151 229 152
f 193 192 210
f 210 192 211
f 230 194 218
f 218 194 193
f 231 232 228
f 228 232 230
f 233 234 91
f 91 234 89
f 235 236 93
f 93 236 92
f 230 232 234
f 234 232 237
f 47 238 48
f 48 238 239
f 240 191 235
f 235 191 236
f 5 8 116
f 116 8 241
f 242 243 189
f 189 243 160
f 244 245 98
f 98 245 99
f 156 246 47
f 47 246 238
f 76 247 77
f 77 247 248
f 250 125 249
f 249 125 124
f 252 253 251
f 251 253 254
f 111 110 36
f 36 110 255
f 256 33 255
f 255 33 36
f 257 258 154
f 154 258 155
f 63 169 133
f 133 169 139
f 66 170 63
f 63 170 169
f 173 170 129
f 129 170 66
f 129 128 173
f 173 128 259
f 128 260 259
f 259 260 261
f 213 134 262
f 262 134 137
f 263 264 186
f 186 264 187
f 112 265 113
f 113 265 266
f 11 267 268
f 234 233 230
f 230 233 194
f 153 269 70
f 70 269 67
f 175 178 165
f 165 178 141
f 150 153 94
f 94 153 70
f 271 221 270
f 270 221 207
f 269 153 272
f 272 153 152
f 121 45 109
f 109 45 108
f 47 50 156
f 156 50 157
f 57 273 58
f 58 273 274
f 145 275 260
f 260 275 261
f 276 149 143
f 143 149 78
f 148 269 75
f 75 269 272
f 207 277 270
f 270 277 278
f 195 196 49
f 49 196 50
f 59 135 60
f 60 135 134
f 83 104 202
f 202 104 279
f 149 148 78
f 78 148 75
f 247 278 248
f 248 278 277
f 183 182 84
f 84 182 81
f 48 239 281
f 281 239 282
f 227 223 283
f 283 223 222
f 223 226 224
f 224 226 168
f 281 282 224
f 224 282 225
f 165 168 175
f 175 168 226
f 264 263 138
f 138 263 229
f 14 16 128
f 128 16 260
f 220 228 218
f 218 228 230
f 87 227 284
f 284 227 283
f 260 16 145
f 145 16 146
f 244 98 258
f 258 98 155
f 58 274 156
f 156 274 246
f 107 285 51
f 51 285 55
f 243 286 160
f 160 286 96
f 234 237 89
f 89 237 90
f 46 132 107
f 107 132 285
f 253 252 249
f 249 252 250
f 286 26 96
f 96 26 25
f 106 105 287
f 287 105 288
f 272 152 289
f 289 152 229
f 138 151 139
f 139 151 133
f 183 290 161
f 161 290 162
f 291 292 277
f 277 292 293
f 151 150 133
f 133 150 94
f 262 275 177
f 177 275 187
f 144 187 145
f 145 187 275
f 273 57 284
f 284 57 87
f 174 136 190
f 190 136 135
f 111 117 112
f 112 117 38
f 117 119 38
f 38 119 123
f 112 38 265
f 265 38 37
f 287 288 254
f 254 288 251
f 228 159 231
f 231 159 15
f 223 227 226
f 226 227 214
f 147 67 148
f 148 67 269
f 224 168 281
f 281 168 167
f 199 163 200
f 200 163 162
f 45 46 108
f 108 46 107
f 281 167 48
f 48 167 49
f 161 164 291
f 291 164 292
f 38 123 39
f 293 294 277
f 277 294 248
f 284 283 296
f 296 283 295
f 284 296 273
f 273 296 297
f 274 273 298
f 298 273 297
f 246 274 299
f 299 274 298
f 283 222 295
f 295 222 300
f 222 225 300
f 300 225 301
f 301 225 302
f 302 225 282
f 303 304 300
f 300 304 295
f 306 307 305
f 305 307 308
f 309 310 308
f 308 310 305
f 308 307 312
f 312 307 311
f 313 314 312
f 312 314 315
f 311 316 312
f 312 316 313
f 317 304 311
f 311 304 316
f 315 309 312
f 312 309 308
f 318 319 321
f 321 319 320
f 319 318 309
f 309 318 310
f 311 307 317
f 317 307 306
f 306 297 317
f 317 297 296
f 306 322 297
f 297 322 298
f 305 323 306
f 306 323 322
f 323 305 324
f 324 305 310
f 304 317 295
f 295 317 296
f 318 325 310
f 310 325 324
f 323 324 326
f 326 324 327
f 324 325 327
f 327 325 328
f 326 327 329
f 329 327 330
f 329 331 326
f 326 331 332
f 333 330 328
f 328 330 327
f 323 326 322
f 322 326 332
f 322 332 298
f 298 332 299
f 325 318 334
f 334 318 321
f 313 316 335
f 335 316 304
f 335 336 313
f 313 336 314
f 304 303 335
f 335 303 337
f 336 335 338
f 338 335 337
f 336 339 314
f 314 339 340
f 246 299 238
f 238 299 341
f 239 342 282
f 282 342 302
f 342 239 341
f 341 239 238
f 341 331 342
f 342 331 343
f 331 329 343
f 343 329 344
f 342 343 302
f 302 343 345
f 341 299 331
f 331 299 332
f 346 301 345
f 345 301 302
f 346 303 301
f 301 303 300
f 347 337 346
f 346 337 303
f 347 346 348
f 348 346 345
f 349 347 350
f 350 347 348
f 343 344 345
f 345 344 348
f 344 351 348
f 348 351 350
f 337 347 338
f 338 347 349
f 353 338 352
f 352 338 349
f 352 355 354
f 354 355 356
f 352 349 355
f 355 349 350
f 352 354 353
f 353 354 334
f 353 334 339
f 339 334 321
f 339 336 353
f 353 336 338
f 329 330 344
f 344 330 351
f 356 351 333
f 333 351 330
f 356 355 351
f 351 355 350
f 354 356 328
f 328 356 333
f 328 325 354
f 354 325 334
f 309 315 319
f 319 315 320
f 320 340 321
f 321 340 339
f 320 315 340
f 340 315 314
f 137 136 261
f 261 136 259
f 140 166 141
f 141 166 165
f 172 171 195
f 195 171 196
f 171 174 196
f 196 174 190
f 178 177 264
f 264 177 187
f 172 195 140
f 140 195 166
f 137 261 262
f 262 261 275
f 178 264 141
f 141 264 138
f 262 177 213
f 213 177 176
f 136 174 259
f 259 174 173
f 358 359 357
f 357 359 360
f 362 363 361
f 361 363 364
f 361 364 365
f 365 364 366
f 367 368 370
f 370 368 369
f 76 371 247
f 247 371 372
f 373 374 362
f 362 374 363
f 376 377 375
f 375 377 378
f 289 229 380
f 380 229 379
f 381 379 263
f 263 379 229
f 383 384 382
f 382 384 385
f 386 368 374
f 374 368 363
f 76 289 371
f 371 289 380
f 377 376 359
f 359 376 387
f 388 386 360
f 360 386 374
f 389 383 366
f 366 383 390
f 392 393 391
f 391 393 394
f 383 382 390
f 390 382 395
f 396 365 390
f 390 365 366
f 389 366 367
f 367 366 364
f 357 397 358
f 358 397 398
f 373 399 357
f 357 399 397
f 389 367 400
f 400 367 370
f 382 385 375
f 375 385 372
f 357 360 373
f 373 360 374
f 361 401 362
f 362 401 402
f 387 388 359
f 359 388 360
f 363 368 364
f 364 368 367
f 358 398 403
f 403 398 404
f 396 392 405
f 405 392 391
f 392 395 393
f 393 395 378
f 393 403 394
f 394 403 404
f 375 378 382
f 382 378 395
f 365 396 406
f 406 396 405
f 362 402 373
f 373 402 399
f 271 270 400
f 400 270 384
f 401 361 406
f 406 361 365
f 381 369 386
f 386 369 368
f 392 396 395
f 395 396 390
f 393 378 403
f 403 378 377
f 403 377 358
f 358 377 359
f 406 405 408
f 408 405 407
f 406 408 401
f 401 408 409
f 401 409 402
f 402 409 410
f 402 410 399
f 399 410 411
f 405 391 407
f 407 391 412
f 391 394 412
f 412 394 413
f 394 404 413
f 413 404 414
f 415 416 412
f 412 416 407
f 418 419 417
f 417 419 420
f 421 422 418
f 418 422 419
f 419 422 424
f 424 422 423
f 425 426 424
f 424 426 427
f 423 428 424
f 424 428 425
f 427 420 424
f 424 420 419
f 420 429 417
f 417 429 430
f 423 422 431
f 431 422 421
f 421 409 431
f 431 409 408
f 421 432 409
f 409 432 410
f 418 433 421
f 421 433 432
f 434 433 417
f 417 433 418
f 431 416 423
f 423 416 428
f 416 431 407
f 407 431 408
f 435 434 430
f 430 434 417
f 433 434 436
f 436 434 437
f 434 435 437
f 437 435 438
f 436 437 439
f 439 437 440
f 439 441 436
f 436 441 442
f 438 443 437
f 437 443 440
f 436 442 433
f 433 442 432
f 432 442 410
f 410 442 411
f 435 430 445
f 445 430 444
f 430 429 444
f 444 429 446
f 425 428 447
f 447 428 416
f 426 425 448
f 448 425 447
f 416 415 447
f 447 415 449
f 447 449 448
f 448 449 450
f 451 452 448
f 448 452 426
f 446 452 444
f 444 452 451
f 399 411 397
f 397 411 453
f 398 454 404
f 404 454 414
f 454 398 453
f 453 398 397
f 453 441 454
f 454 441 455
f 441 439 455
f 455 439 456
f 454 455 414
f 414 455 457
f 441 453 442
f 442 453 411
f 458 413 457
f 457 413 414
f 458 415 413
f 413 415 412
f 458 459 415
f 415 459 449
f 459 458 460
f 460 458 457
f 461 459 462
f 462 459 460
f 455 456 457
f 457 456 460
f 456 463 460
f 460 463 462
f 459 461 449
f 449 461 450
f 465 450 464
f 464 450 461
f 464 467 466
f 466 467 468
f 464 461 467
f 467 461 462
f 464 466 465
f 465 466 445
f 465 445 451
f 451 445 444
f 451 448 465
f 465 448 450
f 439 440 456
f 456 440 463
f 468 463 443
f 443 463 440
f 468 467 463
f 463 467 462
f 466 468 438
f 438 468 443
f 438 435 466
f 466 435 445
f 420 427 429
f 429 427 446
f 446 427 452
f 452 427 426
f 370 369 188
f 188 369 186
f 371 376 372
f 372 376 375
f 380 379 387
f 387 379 388
f 379 381 388
f 388 381 386
f 385 384 278
f 278 384 270
f 380 387 371
f 371 387 376
f 400 370 271
f 271 370 188
f 385 278 372
f 372 278 247
f 400 384 389
f 389 384 383
f 369 381 186
f 186 381 263
f 221 271 144
f 144 271 188
f 221 19 207
f 207 19 22
f 19 18 22
f 22 18 23
f 18 219 23
f 23 219 208
f 469 470 472
f 472 470 471
f 474 475 473
f 473 475 476
f 473 476 477
f 477 476 478
f 480 481 479
f 479 481 482
f 483 484 474
f 474 484 475
f 486 487 485
f 485 487 488
f 489 490 77
f 77 490 142
f 491 489 248
f 248 489 77
f 493 494 492
f 492 494 495
f 496 480 484
f 484 480 475
f 486 497 487
f 487 497 471
f 498 496 472
f 472 496 484
f 499 493 478
f 478 493 500
f 501 502 504
f 504 502 503
f 493 492 500
f 500 492 505
f 506 477 500
f 500 477 478
f 499 478 479
f 479 478 476
f 469 507 470
f 470 507 508
f 483 509 469
f 469 509 507
f 479 482 499
f 499 482 510
f 492 495 485
f 485 495 511
f 483 469 484
f 484 469 472
f 473 512 474
f 474 512 513
f 497 498 471
f 471 498 472
f 475 480 476
f 476 480 479
f 470 508 514
f 514 508 515
f 506 502 516
f 516 502 501
f 503 502 488
f 488 502 505
f 514 515 503
f 503 515 504
f 485 488 492
f 492 488 505
f 477 506 517
f 517 506 516
f 474 513 483
f 483 513 509
f 510 292 494
f 494 292 164
f 512 473 517
f 517 473 477
f 491 481 496
f 496 481 480
f 502 506 505
f 505 506 500
f 503 488 514
f 514 488 487
f 514 487 470
f 470 487 471
f 517 516 519
f 519 516 518
f 517 519 512
f 512 519 520
f 512 520 513
f 513 520 521
f 513 521 509
f 509 521 522
f 516 501 518
f 518 501 523
f 501 504 523
f 523 504 524
f 524 504 525
f 525 504 515
f 526 527 523
f 523 527 518
f 529 530 528
f 528 530 531
f 532 533 529
f 529 533 530
f 530 533 535
f 535 533 534
f 536 537 535
f 535 537 538
f 534 539 535
f 535 539 536
f 538 531 535
f 535 531 530
f 540 541 531
f 531 541 528
f 533 532 534
f 534 532 542
f 532 520 542
f 542 520 519
f 532 543 520
f 520 543 521
f 529 544 532
f 532 544 543
f 544 529 545
f 545 529 528
f 534 542 539
f 539 542 527
f 527 542 518
f 518 542 519
f 541 546 528
f 528 546 545
f 547 544 548
f 548 544 545
f 546 549 545
f 545 549 548
f 550 547 551
f 551 547 548
f 547 550 553
f 553 550 552
f 549 554 548
f 548 554 551
f 544 547 543
f 543 547 553
f 543 553 521
f 521 553 522
f 546 541 556
f 556 541 555
f 541 540 555
f 555 540 557
f 536 539 558
f 558 539 527
f 537 536 559
f 559 536 558
f 527 526 558
f 558 526 560
f 559 558 561
f 561 558 560
f 559 562 537
f 537 562 563
f 557 563 555
f 555 563 562
f 509 522 507
f 507 522 564
f 508 565 515
f 515 565 525
f 565 508 564
f 564 508 507
f 564 552 565
f 565 552 566
f 552 550 566
f 566 550 567
f 565 566 525
f 525 566 568
f 564 522 552
f 552 522 553
f 569 524 568
f 568 524 525
f 569 526 524
f 524 526 523
f 570 560 569
f 569 560 526
f 570 569 571
f 571 569 568
f 572 570 573
f 573 570 571
f 566 567 568
f 568 567 571
f 567 574 571
f 571 574 573
f 570 572 560
f 560 572 561
f 576 561 575
f 575 561 572
f 575 578 577
f 577 578 579
f 575 572 578
f 578 572 573
f 575 577 576
f 576 577 556
f 576 556 562
f 562 556 555
f 562 559 576
f 576 559 561
f 550 551 567
f 567 551 574
f 579 574 554
f 554 574 551
f 579 578 574
f 574 578 573
f 579 554 577
f 577 554 549
f 549 546 577
f 577 546 556
f 531 538 540
f 540 538 557
f 557 538 563
f 563 538 537
f 481 294 482
f 482 294 293
f 580 486 511
f 511 486 485
f 490 489 497
f 497 489 498
f 489 491 498
f 498 491 496
f 163 495 164
f 164 495 494
f 580 490 486
f 486 490 497
f 482 293 510
f 510 293 292
f 495 163 511
f 511 163 199
f 494 493 510
f 510 493 499
f 481 491 294
f 294 491 248
f 582 583 581
f 581 583 584
f 586 587 585
f 585 587 588
f 585 588 589
f 589 588 590
f 592 593 591
f 591 593 594
f 595 596 598
f 598 596 597
f 599 600 586
f 586 600 587
f 601 602 604
f 604 602 603
f 605 606 608
f 608 606 607
f 609 607 200
f 200 607 606
f 610 611 613
f 613 611 612
f 600 614 587
f 587 614 592
f 596 605 597
f 597 605 608
f 602 615 603
f 603 615 583
f 616 614 584
f 584 614 600
f 611 618 617
f 617 618 590
f 620 621 619
f 619 621 622
f 610 623 611
f 611 623 618
f 624 589 618
f 618 589 590
f 617 590 591
f 591 590 588
f 581 625 582
f 582 625 626
f 599 627 581
f 581 627 625
f 591 594 617
f 617 594 628
f 601 610 598
f 598 610 613
f 581 584 599
f 599 584 600
f 585 629 586
f 586 629 630
f 615 616 583
f 583 616 584
f 587 592 588
f 588 592 591
f 582 626 631
f 631 626 632
f 624 620 633
f 633 620 619
f 621 620 604
f 604 620 623
f 631 632 621
f 621 632 622
f 610 601 623
f 623 601 604
f 589 624 634
f 634 624 633
f 586 630 599
f 599 630 627
f 203 202 628
f 628 202 612
f 629 585 634
f 634 585 589
f 609 593 614
f 614 593 592
f 620 624 623
f 623 624 618
f 631 621 603
f 603 621 604
f 582 631 583
f 583 631 603
f 634 633 636
f 636 633 635
f 634 636 629
f 629 636 637
f 629 637 630
f 630 637 638
f 630 638 627
f 627 638 639
f 633 619 635
f 635 619 640
f 619 622 640
f 640 622 641
f 641 622 642
f 642 622 632
f 644 635 643
f 643 635 640
f 645 646 648
f 648 646 647
f 649 650 646
f 646 650 647
f 647 650 652
f 652 650 651
f 652 653 655
f 655 653 654
f 651 656 652
f 652 656 653
f 655 648 652
f 652 648 647
f 648 657 645
f 645 657 658
f 650 649 651
f 651 649 659
f 649 637 659
f 659 637 636
f 649 660 637
f 637 660 638
f 661 660 646
f 646 660 649
f 662 661 645
f 645 661 646
f 651 659 656
f 656 659 644
f 644 659 635
f 635 659 636
f 663 662 658
f 658 662 645
f 664 661 665
f 665 661 662
f 663 666 662
f 662 666 665
f 667 664 668
f 668 664 665
f 664 667 670
f 670 667 669
f 666 671 665
f 665 671 668
f 661 664 660
f 660 664 670
f 660 670 638
f 638 670 639
f 658 672 663
f 663 672 673
f 658 657 672
f 672 657 674
f 653 656 675
f 675 656 644
f 653 675 654
f 654 675 676
f 675 644 677
f 677 644 643
f 676 675 678
f 678 675 677
f 679 680 676
f 676 680 654
f 674 680 672
f 672 680 679
f 627 639 625
f 625 639 681
f 626 682 632
f 632 682 642
f 681 682 625
f 625 682 626
f 669 683 681
f 681 683 682
f 667 684 669
f 669 684 683
f 682 683 642
f 642 683 685
f 681 639 669
f 669 639 670
f 686 641 685
f 685 641 642
f 641 686 640
f 640 686 643
f 686 687 643
f 643 687 677
f 687 686 688
f 688 686 685
f 689 687 690
f 690 687 688
f 683 684 685
f 685 684 688
f 684 691 688
f 688 691 690
f 687 689 677
f 677 689 678
f 693 678 692
f 692 678 689
f 692 695 694
f 694 695 696
f 692 689 695
f 695 689 690
f 692 694 693
f 693 694 673
f 693 673 679
f 679 673 672
f 679 676 693
f 693 676 678
f 684 667 691
f 691 667 668
f 696 691 671
f 671 691 668
f 696 695 691
f 691 695 690
f 694 696 666
f 666 696 671
f 666 663 694
f 694 663 673
f 648 655 657
f 657 655 674
f 674 655 680
f 680 655 654
f 593 162 594
f 594 162 290
f 598 597 601
f 601 597 602
f 615 608 616
f 616 608 607
f 607 609 616
f 616 609 614
f 697 595 613
f 613 595 598
f 597 608 602
f 602 608 615
f 594 290 628
f 628 290 203
f 628 612 617
f 617 612 611
f 593 609 162
f 162 609 200
f 105 29 698
f 698 29 699
f 268 126 701
f 701 126 700
f 126 125 700
f 700 125 702
f 252 703 250
f 250 703 704
f 32 268 705
f 705 268 701
f 288 105 706
f 706 105 698
f 29 32 699
f 699 32 705
f 707 251 706
f 706 251 288
f 250 704 125
f 125 704 702
f 703 252 707
f 707 252 251
f 706 708 707
f 707 708 709
f 707 709 703
f 703 709 710
f 703 710 704
f 704 710 711
f 704 711 702
f 702 711 712
f 706 698 708
f 708 698 713
f 698 699 713
f 713 699 714
f 699 705 714
f 714 705 715
f 717 708 716
f 716 708 713
f 719 720 718
f 718 720 721
f 722 723 719
f 719 723 720
f 724 725 723
f 723 725 720
f 724 726 725
f 725 726 727
f 728 721 725
f 725 721 720
f 721 728 729
f 729 728 730
f 729 731 721
f 721 731 718
f 724 723 732
f 732 723 722
f 722 710 732
f 732 710 709
f 722 733 710
f 710 733 711
f 719 734 722
f 722 734 733
f 734 719 735
f 735 719 718
f 724 732 726
f 726 732 717
f 717 732 708
f 708 732 709
f 731 736 718
f 718 736 735
f 737 734 738
f 738 734 735
f 736 739 735
f 735 739 738
f 740 737 741
f 741 737 738
f 737 740 743
f 743 740 742
f 739 744 738
f 738 744 741
f 734 737 733
f 733 737 743
f 733 743 711
f 711 743 712
f 736 731 746
f 746 731 745
f 731 729 745
f 745 729 730
f 727 726 747
f 747 726 717
f 748 727 749
f 749 727 747
f 747 717 750
f 750 717 716
f 749 747 751
f 751 747 750
f 749 752 748
f 748 752 753
f 730 753 745
f 745 753 752
f 728 725 748
f 748 725 727
f 730 728 753
f 753 728 748
f 700 702 754
f 754 702 712
f 705 701 715
f 715 701 755
f 754 755 700
f 700 755 701
f 742 756 754
f 754 756 755
f 740 757 742
f 742 757 756
f 755 756 715
f 715 756 758
f 754 712 742
f 742 712 743
f 759 714 758
f 758 714 715
f 714 759 713
f 713 759 716
f 759 760 716
f 716 760 750
f 760 759 761
f 761 759 758
f 762 760 763
f 763 760 761
f 756 757 758
f 758 757 761
f 757 764 761
f 761 764 763
f 760 762 750
f 750 762 751
f 766 751 765
f 765 751 762
f 767 765 769
f 769 765 768
f 765 762 768
f 768 762 763
f 765 767 766
f 766 767 746
f 766 746 752
f 752 746 745
f 752 749 766
f 766 749 751
f 757 740 764
f 764 740 741
f 769 764 744
f 744 764 741
f 769 768 764
f 764 768 763
f 767 769 739
f 739 769 744
f 739 736 767
f 767 736 746
f 219 217 208
f 208 217 209
f 209 217 210
f 210 217 193
f 198 580 199
f 199 580 511
f 76 75 289
f 289 75 272
f 277 207 291
f 291 207 184
f 290 183 203
f 203 183 84
f 490 580 142
f 142 580 198
f 142 198 143
f 143 198 197
f 149 276 72
f 72 276 73
f 104 103 279
f 279 103 770
f 770 596 279
f 279 596 595
f 605 596 771
f 771 596 770
f 771 770 772
f 772 770 103
f 772 103 773
f 773 103 102
f 155 774 101
f 101 774 102
f 773 102 97
f 97 102 774
f 775 773 100
f 100 773 97
f 773 775 772
f 772 775 776
f 772 776 771
f 771 776 777
f 200 606 197
f 197 606 777
f 189 71 778
f 778 71 74
f 97 774 98
f 98 774 155
f 183 161 184
f 184 161 291
f 777 276 197
f 197 276 143
f 777 606 771
f 771 606 605
f 613 612 697
f 697 612 202
f 595 697 279
f 279 697 202
f 73 276 776
f 776 276 777
f 776 775 73
f 73 775 74
f 100 778 775
f 775 778 74
f 778 100 189
f 189 100 99
f 245 242 99
f 99 242 189
f 131 33 256
f 28 1 95
f 95 1 62
f 27 2 28
f 28 2 1
f 265 115 266
f 266 115 114
f 95 62 69
f 69 62 64
f 62 61 64
f 64 61 65
f 61 13 65
f 65 13 130
f 13 12 130
f 130 12 14
f 31 11 32
f 32 11 268
f 15 12 31
f 31 12 11
f 31 30 15
f 15 30 231
f 30 106 231
f 231 106 232
f 287 237 106
f 106 237 232
f 254 90 287
f 287 90 237
f 253 44 254
f 254 44 90
f 253 249 44
f 44 249 7
f 267 127 268
f 268 127 126
f 10 3 241
f 241 3 116
f 3 2 116
f 116 2 114
f 2 27 114
f 114 27 266
f 27 26 266
f 266 26 113
f 26 286 113
f 113 286 110
f 286 243 110
f 110 243 255
f 243 242 255
f 255 242 256
f 242 245 256
f 256 245 131
f 245 244 131
f 131 244 132
f 265 37 115
f 115 37 41
f 41 37 42
f 42 37 40
f 92 91 40
f 40 91 42
f 236 233 92
f 92 233 91
f 191 194 236
f 236 194 233
f 258 285 244
f 244 285 132
f 257 55 258
f 258 55 285
f 257 154 201
f 201 154 185
f 56 201 204
f 204 201 180
f 55 257 56
f 56 257 201
f 204 85 56
f 56 85 52
f 86 122 53
f 53 122 79
f 212 215 86
f 86 215 122
f 211 216 212
f 212 216 215
f 192 280 211
f 211 280 216
f 191 240 192
f 192 240 280
f 249 124 7
f 7 124 8
f 124 127 8
f 8 127 241
f 127 267 241
f 241 267 10
f 10 267 9
f 9 267 11
f 93 39 235
f 235 39 240
f 39 123 240
f 240 123 280
f 123 119 280
f 280 119 216
f 119 118 216
f 216 118 215
f 118 120 215
f 215 120 122
f 120 121 122
f 122 121 79
f 121 109 79
f 79 109 80

