# https://github.com/mikedh/trimesh
v -0.12933430 -0.00828037 -17.02809906 0.25098039 0.27450980 0.65882353
v -0.12546434 -0.00965845 -17.03935051 0.25098039 0.27450980 0.65882353
v -0.11813600 -0.01060080 -17.03286171 0.25098039 0.27450980 0.65882353
v -0.12313808 -0.00722969 -17.02130890 0.25098039 0.27450980 0.65882353
v -0.10637262 -0.00652029 -17.05366516 0.25098039 0.27450980 0.65882353
v -0.10095094 0.00431207 -17.05719757 0.25098039 0.27450980 0.65882353
v -0.09567244 0.00007617 -17.04491615 0.25098039 0.27450980 0.65882353
v -0.10129695 -0.00913929 -17.04406929 0.25098039 0.27450980 0.65882353
v -0.11965679 -0.00531406 -17.01550293 0.25098039 0.27450980 0.65882353
v -0.11324015 -0.01124045 -17.02663040 0.25098039 0.27450980 0.65882353
v -0.11901050 -0.00103836 -17.01356697 0.25098039 0.27450980 0.65882353
v -0.12986247 0.00910310 -17.00548744 0.25098039 0.27450980 0.65882353
v -0.12771471 0.00250418 -17.00764656 0.25098039 0.27450980 0.65882353
v -0.13642210 0.01128741 -16.99917412 0.25098039 0.27450980 0.65882353
v -0.13480085 0.01761247 -17.01030540 0.25098039 0.27450980 0.65882353
v -0.14523043 0.01454919 -17.00068283 0.25098039 0.27450980 0.65882353
v -0.16171527 0.01133415 -17.02431297 0.25098039 0.27450980 0.65882353
v -0.16878955 0.00121364 -17.03162766 0.25098039 0.27450980 0.65882353
v -0.17231357 -0.00415217 -17.01636314 0.25098039 0.27450980 0.65882353
v -0.16447610 0.00629091 -17.01035881 0.25098039 0.27450980 0.65882353
v -0.17724992 -0.02007658 -17.03114700 0.25098039 0.27450980 0.65882353
v -0.17526242 -0.01157721 -17.02227783 0.25098039 0.27450980 0.65882353
v -0.17233552 -0.00571583 -17.03770065 0.25098039 0.27450980 0.65882353
v -0.17420661 -0.01329130 -17.04492950 0.25098039 0.27450980 0.65882353
v -0.13748839 -0.01426318 -17.03929138 0.25098039 0.27450980 0.65882353
v -0.13463515 -0.01436621 -17.04940987 0.25098039 0.27450980 0.65882353
v -0.13294500 -0.01145590 -17.04607582 0.25098039 0.27450980 0.65882353
v -0.13513428 -0.01097369 -17.03610802 0.25098039 0.27450980 0.65882353
v -0.10760118 0.00404355 -17.01469612 0.25098039 0.27450980 0.65882353
v -0.11687186 0.01515874 -17.01899910 0.25098039 0.27450980 0.65882353
v -0.11957440 0.00856013 -17.01457596 0.25098039 0.27450980 0.65882353
v -0.10854343 -0.00214257 -17.01528931 0.25098039 0.27450980 0.65882353
v -0.12755352 -0.01946561 -17.07614136 0.25098039 0.27450980 0.65882353
v -0.13052820 -0.01045043 -17.08738708 0.25098039 0.27450980 0.65882353
v -0.12773839 -0.00547969 -17.08518410 0.25098039 0.27450980 0.65882353
v -0.12638453 -0.01423926 -17.07526398 0.25098039 0.27450980 0.65882353
v -0.11380497 0.00670729 -17.07323456 0.25098039 0.27450980 0.65882353
v -0.11937960 0.01119061 -17.07996559 0.25098039 0.27450980 0.65882353
v -0.12072042 0.02445157 -17.08158684 0.25098039 0.27450980 0.65882353
v -0.11694841 0.02191552 -17.07271004 0.25098039 0.27450980 0.65882353
v -0.10673301 0.00496253 -17.06501007 0.25098039 0.27450980 0.65882353
v -0.10867067 0.01825727 -17.06431198 0.25098039 0.27450980 0.65882353
v -0.10184771 0.01601508 -17.05500793 0.25098039 0.27450980 0.65882353
v -0.09480558 0.00971030 -17.04220581 0.25098039 0.27450980 0.65882353
v -0.13927342 -0.01913537 -17.09181595 0.25098039 0.27450980 0.65882353
v -0.13827479 -0.02736371 -17.08498764 0.25098039 0.27450980 0.65882353
v -0.14262009 -0.01091296 -16.95818901 0.25098039 0.27450980 0.65882353
v -0.14467911 -0.01635464 -16.96035194 0.25098039 0.27450980 0.65882353
v -0.14492883 -0.01442497 -16.96356964 0.25098039 0.27450980 0.65882353
v -0.14290942 -0.00940603 -16.96090889 0.25098039 0.27450980 0.65882353
v -0.15986261 -0.02300424 -17.09097099 0.25098039 0.27450980 0.65882353
v -0.16777763 -0.01594293 -17.08935738 0.25098039 0.27450980 0.65882353
v -0.16541427 -0.01545325 -17.09595108 0.25098039 0.27450980 0.65882353
v -0.15707675 -0.02039846 -17.09724426 0.25098039 0.27450980 0.65882353
v -0.16344550 -0.02634125 -17.08235168 0.25098039 0.27450980 0.65882353
v -0.17014493 -0.01681808 -17.07975197 0.25098039 0.27450980 0.65882353
v -0.15179370 -0.00553732 -16.95136070 0.25098039 0.27450980 0.65882353
v -0.14687899 -0.00562167 -16.95258904 0.25098039 0.27450980 0.65882353
v -0.14843738 -0.00262873 -16.95555496 0.25098039 0.27450980 0.65882353
v -0.15388767 -0.00265658 -16.95529747 0.25098039 0.27450980 0.65882353
v -0.12810549 -0.00256335 -17.01205444 0.25098039 0.27450980 0.65882353
v -0.13157263 -0.00746105 -17.01843452 0.25098039 0.27450980 0.65882353
v -0.13504577 -0.00537539 -16.99325943 0.25098039 0.27450980 0.65882353
v -0.13488381 -0.00596326 -17.00428963 0.25098039 0.27450980 0.65882353
v -0.13178793 0.00007618 -17.00301361 0.25098039 0.27450980 0.65882353
v -0.13311699 0.00124137 -16.99398804 0.25098039 0.27450980 0.65882353
v -0.14571324 -0.02122962 -17.01951218 0.25098039 0.27450980 0.65882353
v -0.14256962 -0.01843289 -17.03026199 0.25098039 0.27450980 0.65882353
v -0.14034417 -0.01391345 -17.02593613 0.25098039 0.27450980 0.65882353
v -0.14174601 -0.01644028 -17.01334190 0.25098039 0.27450980 0.65882353
v -0.14691611 -0.02982990 -17.03808212 0.25098039 0.27450980 0.65882353
v -0.14998475 -0.03153680 -17.02707291 0.25098039 0.27450980 0.65882353
v -0.15243152 -0.03770239 -17.03319931 0.25098039 0.27450980 0.65882353
v -0.14896300 -0.03602747 -17.03975868 0.25098039 0.27450980 0.65882353
v -0.15319875 -0.03244050 -17.00626183 0.25098039 0.27450980 0.65882353
v -0.15661374 -0.03316161 -16.99897957 0.25098039 0.27450980 0.65882353
v -0.15763819 -0.03514517 -16.99973106 0.25098039 0.27450980 0.65882353
v -0.15460104 -0.03467150 -17.00857353 0.25098039 0.27450980 0.65882353
v -0.16393134 -0.01394546 -17.10234833 0.25098039 0.27450980 0.65882353
v -0.15452456 -0.01688595 -17.10281754 0.25098039 0.27450980 0.65882353
v -0.17920172 -0.03696128 -17.04526329 0.25098039 0.27450980 0.65882353
v -0.17389069 -0.04342608 -17.05280113 0.25098039 0.27450980 0.65882353
v -0.17700845 -0.05085065 -17.04227829 0.25098039 0.27450980 0.65882353
v -0.18254894 -0.04168581 -17.03661919 0.25098039 0.27450980 0.65882353
v -0.17137972 -0.00656296 -17.08453751 0.25098039 0.27450980 0.65882353
v -0.17097867 -0.00695017 -17.09196472 0.25098039 0.27450980 0.65882353
v -0.15679997 -0.00871771 -16.95191765 0.25098039 0.27450980 0.65882353
v -0.15896279 -0.00603995 -16.95591354 0.25098039 0.27450980 0.65882353
v -0.11137103 0.02634416 -17.05090523 0.25098039 0.27450980 0.65882353
v -0.10013902 0.01817737 -17.03707504 0.25098039 0.27450980 0.65882353
v -0.11987832 0.03004547 -17.06278038 0.25098039 0.27450980 0.65882353
v -0.12660462 0.03262773 -17.07112312 0.25098039 0.27450980 0.65882353
v -0.12962596 0.03423317 -17.07923889 0.25098039 0.27450980 0.65882353
v -0.13809049 -0.01200443 -17.00261497 0.25098039 0.27450980 0.65882353
v -0.13560030 -0.01032133 -17.02618599 0.25098039 0.27450980 0.65882353
v -0.13919750 -0.01795255 -17.04195786 0.25098039 0.27450980 0.65882353
v -0.14885180 -0.04493530 -17.05521965 0.25098039 0.27450980 0.65882353
v -0.14529853 -0.04196412 -17.06455612 0.25098039 0.27450980 0.65882353
v -0.14086054 -0.03587763 -17.05635071 0.25098039 0.27450980 0.65882353
v -0.14545885 -0.03943298 -17.04982185 0.25098039 0.27450980 0.65882353
v -0.16608441 -0.04990995 -17.05378532 0.25098039 0.27450980 0.65882353
v -0.15844661 -0.05032094 -17.05005836 0.25098039 0.27450980 0.65882353
v -0.16117811 -0.05279442 -17.04310226 0.25098039 0.27450980 0.65882353
v -0.16905218 -0.05386872 -17.04499054 0.25098039 0.27450980 0.65882353
v -0.10222280 0.00928024 -17.01637268 0.25098039 0.27450980 0.65882353
v -0.11413614 0.02019540 -17.02312660 0.25098039 0.27450980 0.65882353
v -0.14952929 -0.02641147 -17.08985138 0.25098039 0.27450980 0.65882353
v -0.14699444 -0.02118248 -17.09480095 0.25098039 0.27450980 0.65882353
v -0.14675483 -0.01594214 -17.10198021 0.25098039 0.27450980 0.65882353
v -0.12969682 -0.01614461 -17.06254578 0.25098039 0.27450980 0.65882353
v -0.12536041 -0.01093229 -17.07488632 0.25098039 0.27450980 0.65882353
v -0.12352978 -0.00819586 -17.07320404 0.25098039 0.27450980 0.65882353
v -0.12990049 -0.01379330 -17.06118393 0.25098039 0.27450980 0.65882353
v -0.12041778 -0.01007338 -17.05202675 0.25098039 0.27450980 0.65882353
v -0.11448267 -0.00576367 -17.06290627 0.25098039 0.27450980 0.65882353
v -0.11303633 -0.01256332 -17.04470634 0.25098039 0.27450980 0.65882353
v -0.12424471 0.00221344 -17.08381653 0.25098039 0.27450980 0.65882353
v -0.12705961 -0.00003904 -17.09435654 0.25098039 0.27450980 0.65882353
v -0.12375714 0.00807847 -17.09148788 0.25098039 0.27450980 0.65882353
v -0.13292310 -0.00736487 -17.09796906 0.25098039 0.27450980 0.65882353
v -0.13993220 -0.01300263 -17.10003281 0.25098039 0.27450980 0.65882353
v -0.17248219 -0.00531886 -17.09955025 0.25098039 0.27450980 0.65882353
v -0.12179843 0.01584766 -17.08806229 0.25098039 0.27450980 0.65882353
v -0.09900537 -0.01179844 -17.03662491 0.25098039 0.27450980 0.65882353
v -0.09625468 -0.01385698 -17.02975273 0.25098039 0.27450980 0.65882353
v -0.10306633 -0.01542034 -17.02453423 0.25098039 0.27450980 0.65882353
v -0.10608673 -0.01444346 -17.03103256 0.25098039 0.27450980 0.65882353
v -0.14171493 0.01146537 -16.99066162 0.25098039 0.27450980 0.65882353
v -0.13540420 0.00660776 -16.99145508 0.25098039 0.27450980 0.65882353
v -0.13153842 0.00680961 -17.00146103 0.25098039 0.27450980 0.65882353
v -0.13231865 -0.02703504 -17.06929588 0.25098039 0.27450980 0.65882353
v -0.14097701 -0.03397743 -17.07748222 0.25098039 0.27450980 0.65882353
v -0.13942590 -0.01069443 -16.99149704 0.25098039 0.27450980 0.65882353
v -0.15479344 0.00037152 -16.95997429 0.25098039 0.27450980 0.65882353
v -0.14860326 0.00036112 -16.95986366 0.25098039 0.27450980 0.65882353
v -0.14526135 0.00757327 -16.97583771 0.25098039 0.27450980 0.65882353
v -0.15275957 0.00806718 -16.97567558 0.25098039 0.27450980 0.65882353
v -0.14964655 -0.01238786 -16.98519516 0.25098039 0.27450980 0.65882353
v -0.14308316 -0.01117848 -16.98628998 0.25098039 0.27450980 0.65882353
v -0.14551774 -0.01182800 -16.98440361 0.25098039 0.27450980 0.65882353
v -0.15195209 -0.01455895 -16.98295975 0.25098039 0.27450980 0.65882353
v -0.15779072 -0.04092966 -17.00757027 0.25098039 0.27450980 0.65882353
v -0.15593559 -0.04025585 -17.01538849 0.25098039 0.27450980 0.65882353
v -0.16507785 -0.00137387 -16.99664688 0.25098039 0.27450980 0.65882353
v -0.15830140 0.01118720 -16.99571991 0.25098039 0.27450980 0.65882353
v -0.15569574 0.01348404 -17.00596046 0.25098039 0.27450980 0.65882353
v -0.14801091 -0.02675671 -17.02441597 0.25098039 0.27450980 0.65882353
v -0.15051749 -0.03036029 -17.01498413 0.25098039 0.27450980 0.65882353
v -0.15237871 -0.03334672 -17.01751137 0.25098039 0.27450980 0.65882353
v -0.14115992 -0.01520588 -17.00021744 0.25098039 0.27450980 0.65882353
v -0.14367647 -0.01492395 -16.99161911 0.25098039 0.27450980 0.65882353
v -0.14487185 -0.01796451 -16.99675751 0.25098039 0.27450980 0.65882353
v -0.14381321 -0.01813628 -17.00440025 0.25098039 0.27450980 0.65882353
v -0.17124312 -0.03690134 -17.06400108 0.25098039 0.27450980 0.65882353
v -0.16214709 -0.04479109 -17.06481171 0.25098039 0.27450980 0.65882353
v -0.14350283 -0.00734786 -16.95522499 0.25098039 0.27450980 0.65882353
v -0.14428666 -0.00500689 -16.95793343 0.25098039 0.27450980 0.65882353
v -0.14505258 -0.02359610 -17.03479195 0.25098039 0.27450980 0.65882353
v -0.15248427 0.01623293 -17.01855469 0.25098039 0.27450980 0.65882353
v -0.14070661 -0.02215066 -17.04490089 0.25098039 0.27450980 0.65882353
v -0.17790391 -0.03901169 -17.01921272 0.25098039 0.27450980 0.65882353
v -0.17174625 -0.04529715 -17.01879883 0.25098039 0.27450980 0.65882353
v -0.17065558 -0.04683347 -17.01361275 0.25098039 0.27450980 0.65882353
v -0.17643867 -0.04375954 -17.01206207 0.25098039 0.27450980 0.65882353
v -0.15563568 -0.01867654 -16.96953583 0.25098039 0.27450980 0.65882353
v -0.14959005 -0.01854992 -16.96871567 0.25098039 0.27450980 0.65882353
v -0.14969243 -0.01865326 -16.96504974 0.25098039 0.27450980 0.65882353
v -0.15568599 -0.01933651 -16.96482658 0.25098039 0.27450980 0.65882353
v -0.13888608 -0.00681495 -16.98611069 0.25098039 0.27450980 0.65882353
v -0.13629150 -0.00031107 -16.98594093 0.25098039 0.27450980 0.65882353
v -0.13850740 -0.00305423 -16.98034286 0.25098039 0.27450980 0.65882353
v -0.14175484 -0.00837692 -16.98221970 0.25098039 0.27450980 0.65882353
v -0.13913305 0.00560164 -16.98357010 0.25098039 0.27450980 0.65882353
v -0.13981214 0.00334721 -16.97793007 0.25098039 0.27450980 0.65882353
v -0.16125132 -0.01474873 -16.96819687 0.25098039 0.27450980 0.65882353
v -0.16312671 -0.00804093 -16.96460724 0.25098039 0.27450980 0.65882353
v -0.16234520 -0.00295072 -16.97979736 0.25098039 0.27450980 0.65882353
v -0.15906316 -0.01102217 -16.98053741 0.25098039 0.27450980 0.65882353
v -0.17264169 -0.00603198 -17.05815887 0.25098039 0.27450980 0.65882353
v -0.17435186 -0.01538670 -17.06436348 0.25098039 0.27450980 0.65882353
v -0.17651929 -0.02259509 -17.05125999 0.25098039 0.27450980 0.65882353
v -0.17953423 -0.03004424 -17.03868294 0.25098039 0.27450980 0.65882353
v -0.18083325 -0.03642331 -17.02687454 0.25098039 0.27450980 0.65882353
v -0.18068019 -0.02592694 -17.02061653 0.25098039 0.27450980 0.65882353
v -0.17592986 -0.02895335 -17.05696869 0.25098039 0.27450980 0.65882353
v -0.15737869 -0.01085502 -16.98781013 0.25098039 0.27450980 0.65882353
v -0.16093771 -0.00068957 -16.98897743 0.25098039 0.27450980 0.65882353
v -0.16270137 -0.00675740 -16.99036980 0.25098039 0.27450980 0.65882353
v -0.14194718 -0.02886334 -17.04838181 0.25098039 0.27450980 0.65882353
v -0.14376487 -0.00244652 -16.96149826 0.25098039 0.27450980 0.65882353
v -0.15074007 0.03115724 -17.07210159 0.25098039 0.27450980 0.65882353
v -0.16191456 0.02335651 -17.07617760 0.25098039 0.27450980 0.65882353
v -0.15996541 0.02136204 -17.06803513 0.25098039 0.27450980 0.65882353
v -0.14730218 0.03002016 -17.06311226 0.25098039 0.27450980 0.65882353
v -0.14377913 -0.01416864 -16.96661949 0.25098039 0.27450980 0.65882353
v -0.14112180 -0.00816169 -16.96415329 0.25098039 0.27450980 0.65882353
v -0.15771514 -0.04617003 -17.01816177 0.25098039 0.27450980 0.65882353
v -0.15943022 -0.04589516 -17.01089478 0.25098039 0.27450980 0.65882353
v -0.16294181 -0.04815531 -17.01143456 0.25098039 0.27450980 0.65882353
v -0.15982206 -0.05062256 -17.01836205 0.25098039 0.27450980 0.65882353
v -0.17368215 -0.01995914 -17.06879044 0.25098039 0.27450980 0.65882353
v -0.17423251 -0.05697963 -17.03573418 0.25098039 0.27450980 0.65882353
v -0.18048377 -0.04820328 -17.03063583 0.25098039 0.27450980 0.65882353
v -0.17212996 -0.00886934 -17.07552719 0.25098039 0.27450980 0.65882353
v -0.17154604 -0.00034206 -17.07015038 0.25098039 0.27450980 0.65882353
v -0.17157012 0.00335430 -17.07896996 0.25098039 0.27450980 0.65882353
v -0.17649019 -0.01844370 -17.00654793 0.25098039 0.27450980 0.65882353
v -0.17051911 -0.00023684 -17.05183411 0.25098039 0.27450980 0.65882353
v -0.16876775 0.00491063 -17.06508255 0.25098039 0.27450980 0.65882353
v -0.16864407 0.00971535 -17.07522202 0.25098039 0.27450980 0.65882353
v -0.16968051 0.01304486 -17.08253670 0.25098039 0.27450980 0.65882353
v -0.17199078 0.00525992 -17.08588219 0.25098039 0.27450980 0.65882353
v -0.16011703 -0.00334203 -16.96134567 0.25098039 0.27450980 0.65882353
v -0.16230449 -0.01148143 -16.95863342 0.25098039 0.27450980 0.65882353
v -0.17368048 0.00748164 -17.09370232 0.25098039 0.27450980 0.65882353
v -0.17035311 0.01562117 -17.08969116 0.25098039 0.27450980 0.65882353
v -0.16476491 0.01185739 -17.05951691 0.25098039 0.27450980 0.65882353
v -0.15869609 0.01956705 -17.05291939 0.25098039 0.27450980 0.65882353
v -0.16646944 0.00682821 -17.04684067 0.25098039 0.27450980 0.65882353
v -0.16093610 0.01416801 -17.03936195 0.25098039 0.27450980 0.65882353
v -0.17483008 -0.00709903 -17.00435066 0.25098039 0.27450980 0.65882353
v -0.15639523 -0.02416426 -16.94851494 0.25098039 0.27450980 0.65882353
v -0.15944125 -0.01912718 -16.95757484 0.25098039 0.27450980 0.65882353
v -0.15493390 -0.02127533 -16.96063995 0.25098039 0.27450980 0.65882353
v -0.15405315 -0.02664056 -16.95144653 0.25098039 0.27450980 0.65882353
v -0.16054305 -0.01670634 -16.96268845 0.25098039 0.27450980 0.65882353
v -0.16026703 -0.01413475 -16.95461273 0.25098039 0.27450980 0.65882353
v -0.14871851 0.02094924 -17.03215027 0.25098039 0.27450980 0.65882353
v -0.14824638 -0.01777442 -16.98985100 0.25098039 0.27450980 0.65882353
v -0.14227465 0.02774094 -17.04619789 0.25098039 0.27450980 0.65882353
v -0.13361776 0.02263954 -17.02149200 0.25098039 0.27450980 0.65882353
v -0.12765035 0.02680472 -17.03208542 0.25098039 0.27450980 0.65882353
v -0.13372669 0.03463858 -17.06055832 0.25098039 0.27450980 0.65882353
v -0.12375616 0.03191607 -17.04685593 0.25098039 0.27450980 0.65882353
v -0.14010853 0.03659364 -17.07799530 0.25098039 0.27450980 0.65882353
v -0.13832948 0.03545102 -17.06913948 0.25098039 0.27450980 0.65882353
v -0.11242588 0.02563808 -17.03500748 0.25098039 0.27450980 0.65882353
v -0.14103496 -0.01878067 -16.95227051 0.25098039 0.27450980 0.65882353
v -0.14404100 -0.02348218 -16.95479774 0.25098039 0.27450980 0.65882353
v -0.15188017 0.03338385 -17.07995415 0.25098039 0.27450980 0.65882353
v -0.10846528 -0.01353461 -17.03675079 0.25098039 0.27450980 0.65882353
v -0.13660742 -0.02524088 -17.05703545 0.25098039 0.27450980 0.65882353
v -0.13576615 -0.02048478 -17.05393410 0.25098039 0.27450980 0.65882353
v -0.14392161 -0.03939965 -17.07011986 0.25098039 0.27450980 0.65882353
v -0.13739894 -0.03156042 -17.06195831 0.25098039 0.27450980 0.65882353
v -0.14117527 -0.01439469 -16.94878387 0.25098039 0.27450980 0.65882353
v -0.16272703 -0.03279504 -16.99491882 0.25098039 0.27450980 0.65882353
v -0.16361722 -0.03189779 -16.99672890 0.25098039 0.27450980 0.65882353
v -0.09302419 -0.00439642 -17.03817749 0.25098039 0.27450980 0.65882353
v -0.09097373 -0.00778161 -17.03210068 0.25098039 0.27450980 0.65882353
v -0.08991617 0.00422780 -17.02446938 0.25098039 0.27450980 0.65882353
v -0.08823662 -0.00136432 -17.02948380 0.25098039 0.27450980 0.65882353
v -0.09107842 0.00417265 -17.03565407 0.25098039 0.27450980 0.65882353
v -0.09365867 0.01072532 -17.03085709 0.25098039 0.27450980 0.65882353
v -0.12947774 -0.01847405 -17.06330681 0.25098039 0.27450980 0.65882353
v -0.13062660 -0.02211695 -17.06496239 0.25098039 0.27450980 0.65882353
v -0.16699064 -0.03141480 -17.07390594 0.25098039 0.27450980 0.65882353
v -0.15775970 -0.03893482 -17.07362556 0.25098039 0.27450980 0.65882353
v -0.14461201 0.00945264 -16.98306465 0.25098039 0.27450980 0.65882353
v -0.15026182 0.01310841 -16.99126625 0.25098039 0.27450980 0.65882353
v -0.15198362 0.01015598 -16.98351669 0.25098039 0.27450980 0.65882353
v -0.15889634 0.00483159 -16.97864914 0.25098039 0.27450980 0.65882353
v -0.15324950 -0.01498727 -16.98643684 0.25098039 0.27450980 0.65882353
v -0.15637118 -0.00929024 -16.98595810 0.25098039 0.27450980 0.65882353
v -0.11978858 -0.00741770 -17.06786156 0.25098039 0.27450980 0.65882353
v -0.12729335 -0.01121257 -17.05718803 0.25098039 0.27450980 0.65882353
v -0.11047363 -0.01063468 -17.02322006 0.25098039 0.27450980 0.65882353
v -0.10758901 -0.01093610 -17.01861763 0.25098039 0.27450980 0.65882353
v -0.14689544 -0.02275355 -17.01059341 0.25098039 0.27450980 0.65882353
v -0.17420140 -0.02203852 -16.99580765 0.25098039 0.27450980 0.65882353
v -0.17256370 -0.01254953 -16.99381638 0.25098039 0.27450980 0.65882353
v -0.14919443 -0.02442854 -17.00179100 0.25098039 0.27450980 0.65882353
v -0.14799166 -0.01270595 -16.94351959 0.25098039 0.27450980 0.65882353
v -0.14349410 -0.01274723 -16.94601822 0.25098039 0.27450980 0.65882353
v -0.15804206 0.00763902 -16.98635483 0.25098039 0.27450980 0.65882353
v -0.15357482 -0.03994410 -17.02322388 0.25098039 0.27450980 0.65882353
v -0.17604344 -0.02615165 -17.00233459 0.25098039 0.27450980 0.65882353
v -0.17098933 -0.02936006 -16.99456024 0.25098039 0.27450980 0.65882353
v -0.16767207 -0.05688592 -17.04020691 0.25098039 0.27450980 0.65882353
v -0.16226706 0.02566766 -17.08421135 0.25098039 0.27450980 0.65882353
v -0.14919817 -0.02111367 -16.96162796 0.25098039 0.27450980 0.65882353
v -0.14841250 -0.02645184 -16.95539284 0.25098039 0.27450980 0.65882353
v -0.15678439 -0.02026907 -16.94632912 0.25098039 0.27450980 0.65882353
v -0.15390569 -0.01497891 -16.94425011 0.25098039 0.27450980 0.65882353
v -0.15260564 -0.03327492 -17.08106422 0.25098039 0.27450980 0.65882353
v -0.13549289 -0.01773516 -17.05167198 0.25098039 0.27450980 0.65882353
v -0.10321015 0.01774910 -17.02685547 0.25098039 0.27450980 0.65882353
v -0.09550503 0.00798286 -17.01970482 0.25098039 0.27450980 0.65882353
v -0.15120263 -0.02530300 -16.99654388 0.25098039 0.27450980 0.65882353
v -0.17709187 -0.04484596 -17.02375793 0.25098039 0.27450980 0.65882353
v -0.18004198 -0.03205381 -17.01303291 0.25098039 0.27450980 0.65882353
v -0.17979452 -0.03778798 -17.00521278 0.25098039 0.27450980 0.65882353
v -0.17716812 -0.03357488 -16.99832535 0.25098039 0.27450980 0.65882353
v -0.17063075 -0.03207550 -16.99420929 0.25098039 0.27450980 0.65882353
v -0.15454879 -0.02395278 -16.94299316 0.25098039 0.27450980 0.65882353
v -0.15171862 -0.01872845 -16.94083595 0.25098039 0.27450980 0.65882353
v -0.14589709 -0.01626276 -16.94034767 0.25098039 0.27450980 0.65882353
v -0.14192134 -0.01579664 -16.94295692 0.25098039 0.27450980 0.65882353
v -0.14032924 -0.01719556 -16.94692612 0.25098039 0.27450980 0.65882353
v -0.15382248 -0.02784157 -16.94533920 0.25098039 0.27450980 0.65882353
v -0.15153949 -0.02960221 -16.94817924 0.25098039 0.27450980 0.65882353
v -0.14760414 -0.02831160 -16.95296860 0.25098039 0.27450980 0.65882353
v -0.15066390 -0.03116633 -16.94386292 0.25098039 0.27450980 0.65882353
v -0.14966604 -0.02940039 -16.93893623 0.25098039 0.27450980 0.65882353
v -0.13677108 -0.02568811 -16.93535042 0.25098039 0.27450980 0.65882353
v -0.14156753 -0.02247211 -16.93626404 0.25098039 0.27450980 0.65882353
v -0.14171854 -0.02479399 -16.93516541 0.25098039 0.27450980 0.65882353
v -0.13830304 -0.02812104 -16.93382454 0.25098039 0.27450980 0.65882353
v -0.13597530 -0.03224666 -16.93197441 0.25098039 0.27450980 0.65882353
v -0.13385019 -0.02994960 -16.93356133 0.25098039 0.27450980 0.65882353
v -0.14607280 -0.02575489 -16.93647194 0.25098039 0.27450980 0.65882353
v -0.14215772 -0.03059516 -16.93445206 0.25098039 0.27450980 0.65882353
v -0.14453647 -0.03358799 -16.93638229 0.25098039 0.27450980 0.65882353
v -0.14146259 -0.03737820 -16.93384361 0.25098039 0.27450980 0.65882353
v -0.13921817 -0.03484006 -16.93201828 0.25098039 0.27450980 0.65882353
v -0.14717022 -0.03001075 -16.93738174 0.25098039 0.27450980 0.65882353
v -0.14769521 -0.02416851 -16.93695831 0.25098039 0.27450980 0.65882353
v -0.13325156 -0.03426891 -16.93244934 0.25098039 0.27450980 0.65882353
v -0.13517711 -0.03481292 -16.93098640 0.25098039 0.27450980 0.65882353
v -0.13737471 -0.03725142 -16.93127441 0.25098039 0.27450980 0.65882353
v -0.13515198 -0.03886818 -16.93226051 0.25098039 0.27450980 0.65882353
v -0.13945663 -0.01928495 -16.94080162 0.25098039 0.27450980 0.65882353
v -0.13501832 -0.02535122 -16.93732834 0.25098039 0.27450980 0.65882353
v -0.13262597 -0.03062739 -16.93643951 0.25098039 0.27450980 0.65882353
v -0.13225806 -0.03486578 -16.93507195 0.25098039 0.27450980 0.65882353
v -0.13393888 -0.02778307 -16.94054985 0.25098039 0.27450980 0.65882353
v -0.13266012 -0.03191178 -16.93918228 0.25098039 0.27450980 0.65882353
v -0.13259107 -0.03570269 -16.93826675 0.25098039 0.27450980 0.65882353
v -0.13430940 -0.03080456 -16.94376564 0.25098039 0.27450980 0.65882353
v -0.13339767 -0.03399852 -16.94158936 0.25098039 0.27450980 0.65882353
v -0.13940051 -0.02217464 -16.94869804 0.25098039 0.27450980 0.65882353
v -0.13884580 -0.01904943 -16.94564438 0.25098039 0.27450980 0.65882353
v -0.13288198 -0.03609861 -16.94040108 0.25098039 0.27450980 0.65882353
v -0.13460934 -0.03954190 -16.93427658 0.25098039 0.27450980 0.65882353
v -0.14644623 -0.03463164 -16.93940735 0.25098039 0.27450980 0.65882353
v -0.14162353 -0.03890670 -16.93682098 0.25098039 0.27450980 0.65882353
v -0.14621392 -0.03567062 -16.94158936 0.25098039 0.27450980 0.65882353
v -0.14171447 -0.04004606 -16.93893814 0.25098039 0.27450980 0.65882353
v -0.13887680 -0.04110149 -16.93425941 0.25098039 0.27450980 0.65882353
v -0.13930111 -0.03903726 -16.93285370 0.25098039 0.27450980 0.65882353
v -0.14111373 -0.02052789 -16.95101738 0.25098039 0.27450980 0.65882353
v -0.14430755 -0.02522862 -16.95344353 0.25098039 0.27450980 0.65882353
v -0.14286108 -0.02674842 -16.95168686 0.25098039 0.27450980 0.65882353
v -0.13700213 -0.03406459 -16.94620132 0.25098039 0.27450980 0.65882353
v -0.14578620 -0.03004225 -16.95129013 0.25098039 0.27450980 0.65882353
v -0.14855789 -0.03256186 -16.94670868 0.25098039 0.27450980 0.65882353
v -0.14439598 -0.03686781 -16.94357681 0.25098039 0.27450980 0.65882353
v -0.14152233 -0.03663398 -16.94566727 0.25098039 0.27450980 0.65882353
v -0.14064658 -0.03984186 -16.94125175 0.25098039 0.27450980 0.65882353
v -0.13876182 -0.03877952 -16.94269943 0.25098039 0.27450980 0.65882353
v -0.13545752 -0.03669799 -16.94308662 0.25098039 0.27450980 0.65882353
v -0.13735391 -0.04072924 -16.93914413 0.25098039 0.27450980 0.65882353
v -0.13833350 -0.04130796 -16.93638229 0.25098039 0.27450980 0.65882353
v -0.13433778 -0.03913784 -16.93765640 0.25098039 0.27450980 0.65882353
v -0.13697687 -0.03986444 -16.94085503 0.25098039 0.27450980 0.65882353
v -0.13467562 -0.03806232 -16.94008064 0.25098039 0.27450980 0.65882353
v -0.15042800 -0.03757268 -16.96575928 0.25098039 0.27450980 0.65882353
v -0.15285686 -0.04324580 -16.96899986 0.25098039 0.27450980 0.65882353
v -0.15534388 -0.03985014 -16.96992683 0.25098039 0.27450980 0.65882353
v -0.15300946 -0.03527627 -16.96714401 0.25098039 0.27450980 0.65882353
v -0.15974873 -0.03417394 -16.95502472 0.25098039 0.27450980 0.65882353
v -0.15425625 -0.03351764 -16.95816612 0.25098039 0.27450980 0.65882353
v -0.15758696 -0.02984387 -16.95963669 0.25098039 0.27450980 0.65882353
v -0.16411102 -0.03095568 -16.95794868 0.25098039 0.27450980 0.65882353
v -0.16557243 -0.03837576 -16.95620728 0.25098039 0.27450980 0.65882353
v -0.16971378 -0.03502608 -16.95962524 0.25098039 0.27450980 0.65882353
v -0.16596931 -0.02647511 -16.96165657 0.25098039 0.27450980 0.65882353
v -0.15885025 -0.02612490 -16.96343613 0.25098039 0.27450980 0.65882353
v -0.15898952 -0.01497649 -16.98122215 0.25098039 0.27450980 0.65882353
v -0.16633961 -0.01441013 -16.98006439 0.25098039 0.27450980 0.65882353
v -0.15782878 -0.03251125 -16.99190712 0.25098039 0.27450980 0.65882353
v -0.16248104 -0.03378354 -16.99089432 0.25098039 0.27450980 0.65882353
v -0.15115014 -0.03499436 -16.96241760 0.25098039 0.27450980 0.65882353
v -0.15404013 -0.03194913 -16.96352768 0.25098039 0.27450980 0.65882353
v -0.16288902 -0.04396502 -16.97523308 0.25098039 0.27450980 0.65882353
v -0.15730925 -0.04209888 -16.97523880 0.25098039 0.27450980 0.65882353
v -0.15784386 -0.04392835 -16.97197342 0.25098039 0.27450980 0.65882353
v -0.16309285 -0.04613356 -16.97096825 0.25098039 0.27450980 0.65882353
v -0.15245087 -0.02128211 -16.98669434 0.25098039 0.27450980 0.65882353
v -0.15473479 -0.02710525 -16.99016190 0.25098039 0.27450980 0.65882353
v -0.15452284 -0.01791025 -16.98369980 0.25098039 0.27450980 0.65882353
v -0.16942993 -0.04301344 -16.97279930 0.25098039 0.27450980 0.65882353
v -0.17360915 -0.03884567 -16.96876144 0.25098039 0.27450980 0.65882353
v -0.17548577 -0.02701721 -16.98534775 0.25098039 0.27450980 0.65882353
v -0.17155808 -0.03258055 -16.98809242 0.25098039 0.27450980 0.65882353
v -0.15425742 -0.02852559 -16.96629906 0.25098039 0.27450980 0.65882353
v -0.15328848 -0.03785890 -16.97272301 0.25098039 0.27450980 0.65882353
v -0.15173034 -0.03277564 -16.96975899 0.25098039 0.27450980 0.65882353
v -0.17170845 -0.03125262 -16.96446609 0.25098039 0.27450980 0.65882353
v -0.17078237 -0.04223919 -16.96344757 0.25098039 0.27450980 0.65882353
v -0.15755507 -0.05651785 -16.95789146 0.25098039 0.27450980 0.65882353
v -0.16490024 -0.04955861 -16.96425438 0.25098039 0.27450980 0.65882353
v -0.16075234 -0.04974762 -16.96801758 0.25098039 0.27450980 0.65882353
v -0.15404928 -0.05768527 -16.96192169 0.25098039 0.27450980 0.65882353
v -0.16779718 -0.04588191 -16.96772003 0.25098039 0.27450980 0.65882353
v -0.16692637 -0.04554482 -16.95992088 0.25098039 0.27450980 0.65882353
v -0.14245428 -0.04823916 -16.96104050 0.25098039 0.27450980 0.65882353
v -0.14536418 -0.05352548 -16.96413231 0.25098039 0.27450980 0.65882353
v -0.14235952 -0.04511289 -16.95710373 0.25098039 0.27450980 0.65882353
v -0.17293739 -0.01888342 -16.98213387 0.25098039 0.27450980 0.65882353
v -0.15070580 -0.04298398 -16.94998741 0.25098039 0.27450980 0.65882353
v -0.14474645 -0.04300850 -16.95364952 0.25098039 0.27450980 0.65882353
v -0.15637255 -0.04747748 -16.97046280 0.25098039 0.27450980 0.65882353
v -0.14943017 -0.05691372 -16.96423912 0.25098039 0.27450980 0.65882353
v -0.15875301 -0.05354578 -16.95419502 0.25098039 0.27450980 0.65882353
v -0.15715452 -0.04653605 -16.95061684 0.25098039 0.27450980 0.65882353
v -0.15460147 -0.05680380 -16.95187759 0.25098039 0.27450980 0.65882353
v -0.15230227 -0.05108998 -16.94839668 0.25098039 0.27450980 0.65882353
v -0.14619647 -0.04715218 -16.94818878 0.25098039 0.27450980 0.65882353
v -0.14171441 -0.04649780 -16.95243454 0.25098039 0.27450980 0.65882353
v -0.14050351 -0.04778827 -16.95628166 0.25098039 0.27450980 0.65882353
v -0.15355995 -0.05953903 -16.95554924 0.25098039 0.27450980 0.65882353
v -0.15077686 -0.06045998 -16.95964622 0.25098039 0.27450980 0.65882353
v -0.14738578 -0.05806671 -16.96287155 0.25098039 0.27450980 0.65882353
v -0.14804964 -0.06375089 -16.95529556 0.25098039 0.27450980 0.65882353
v -0.14771135 -0.06230444 -16.95085335 0.25098039 0.27450980 0.65882353
v -0.12955716 -0.06036423 -16.94784546 0.25098039 0.27450980 0.65882353
v -0.13394441 -0.05645860 -16.94765282 0.25098039 0.27450980 0.65882353
v -0.13550590 -0.05853629 -16.94670868 0.25098039 0.27450980 0.65882353
v -0.13149644 -0.06218310 -16.94662476 0.25098039 0.27450980 0.65882353
v -0.13952869 -0.05383299 -16.94642830 0.25098039 0.27450980 0.65882353
v -0.13952368 -0.05643046 -16.94637299 0.25098039 0.27450980 0.65882353
v -0.14354075 -0.05892276 -16.94726944 0.25098039 0.27450980 0.65882353
v -0.13875514 -0.06239118 -16.94759560 0.25098039 0.27450980 0.65882353
v -0.14171332 -0.06539050 -16.95033646 0.25098039 0.27450980 0.65882353
v -0.13774048 -0.06917021 -16.94943810 0.25098039 0.27450980 0.65882353
v -0.13463891 -0.06637418 -16.94663811 0.25098039 0.27450980 0.65882353
v -0.14455967 -0.06236139 -16.94921684 0.25098039 0.27450980 0.65882353
v -0.12964800 -0.06520469 -16.94673347 0.25098039 0.27450980 0.65882353
v -0.12772262 -0.06561880 -16.94835663 0.25098039 0.27450980 0.65882353
v -0.14584607 -0.05697984 -16.94667435 0.25098039 0.27450980 0.65882353
v -0.13888699 -0.04936404 -16.95074081 0.25098039 0.27450980 0.65882353
v -0.13221915 -0.05543906 -16.95025635 0.25098039 0.27450980 0.65882353
v -0.12814510 -0.06046569 -16.95092773 0.25098039 0.27450980 0.65882353
v -0.12722717 -0.06662202 -16.95120430 0.25098039 0.27450980 0.65882353
v -0.13142130 -0.05665078 -16.95451355 0.25098039 0.27450980 0.65882353
v -0.12813437 -0.06162291 -16.95404816 0.25098039 0.27450980 0.65882353
v -0.12791997 -0.06671312 -16.95386505 0.25098039 0.27450980 0.65882353
v -0.13210239 -0.05909311 -16.95886803 0.25098039 0.27450980 0.65882353
v -0.12929502 -0.06395307 -16.95753670 0.25098039 0.27450980 0.65882353
v -0.13956870 -0.05163903 -16.96008873 0.25098039 0.27450980 0.65882353
v -0.13823728 -0.04931917 -16.95577812 0.25098039 0.27450980 0.65882353
v -0.12886262 -0.06620540 -16.95607185 0.25098039 0.27450980 0.65882353
v -0.12994939 -0.06999093 -16.94804764 0.25098039 0.27450980 0.65882353
v -0.12898639 -0.07045032 -16.95127678 0.25098039 0.27450980 0.65882353
v -0.13122262 -0.06891945 -16.94721222 0.25098039 0.27450980 0.65882353
v -0.14260416 -0.06658067 -16.95202827 0.25098039 0.27450980 0.65882353
v -0.13762531 -0.07022133 -16.95153427 0.25098039 0.27450980 0.65882353
v -0.14274012 -0.06764026 -16.95474052 0.25098039 0.27450980 0.65882353
v -0.13699266 -0.07122643 -16.95367622 0.25098039 0.27450980 0.65882353
v -0.13364941 -0.07203808 -16.95031166 0.25098039 0.27450980 0.65882353
v -0.13372010 -0.07118982 -16.94886589 0.25098039 0.27450980 0.65882353
v -0.14152628 -0.05036611 -16.96002007 0.25098039 0.27450980 0.65882353
v -0.14442912 -0.05470984 -16.96286583 0.25098039 0.27450980 0.65882353
v -0.14280039 -0.05565852 -16.96308136 0.25098039 0.27450980 0.65882353
v -0.13533950 -0.06291357 -16.96119690 0.25098039 0.27450980 0.65882353
v -0.14602399 -0.05946981 -16.96281052 0.25098039 0.27450980 0.65882353
v -0.14734180 -0.06324762 -16.95897102 0.25098039 0.27450980 0.65882353
v -0.14203532 -0.06754543 -16.95766258 0.25098039 0.27450980 0.65882353
v -0.13905923 -0.06621787 -16.96045113 0.25098039 0.27450980 0.65882353
v -0.13686310 -0.07158671 -16.95594025 0.25098039 0.27450980 0.65882353
v -0.13612704 -0.06942514 -16.95843315 0.25098039 0.27450980 0.65882353
v -0.13213561 -0.06649695 -16.95930672 0.25098039 0.27450980 0.65882353
v -0.13274866 -0.07268730 -16.95430565 0.25098039 0.27450980 0.65882353
v -0.13309553 -0.07265911 -16.95188332 0.25098039 0.27450980 0.65882353
v -0.12921618 -0.07000718 -16.95347214 0.25098039 0.27450980 0.65882353
v -0.13301864 -0.07098338 -16.95674706 0.25098039 0.27450980 0.65882353
v -0.13010471 -0.06869254 -16.95635223 0.25098039 0.27450980 0.65882353
v -0.15640667 -0.05159440 -16.98116875 0.25098039 0.27450980 0.65882353
v -0.15567389 -0.05552667 -16.98603439 0.25098039 0.27450980 0.65882353
v -0.15723783 -0.05345931 -16.98781967 0.25098039 0.27450980 0.65882353
v -0.15803578 -0.04946933 -16.98309326 0.25098039 0.27450980 0.65882353
v -0.16817090 -0.05455903 -16.97583389 0.25098039 0.27450980 0.65882353
v -0.16375408 -0.05214396 -16.97516251 0.25098039 0.27450980 0.65882353
v -0.16594799 -0.04911587 -16.97760201 0.25098039 0.27450980 0.65882353
v -0.17113191 -0.05056734 -16.97884369 0.25098039 0.27450980 0.65882353
v -0.16974655 -0.05971869 -16.97820663 0.25098039 0.27450980 0.65882353
v -0.17408323 -0.05494248 -16.98244858 0.25098039 0.27450980 0.65882353
v -0.17407969 -0.04628087 -16.98194885 0.25098039 0.27450980 0.65882353
v -0.16779372 -0.04564722 -16.98023033 0.25098039 0.27450980 0.65882353
v -0.16998273 -0.03527754 -16.99150085 0.25098039 0.27450980 0.65882353
v -0.17691617 -0.03737319 -16.99279594 0.25098039 0.27450980 0.65882353
v -0.15968105 -0.05109264 -16.97763443 0.25098039 0.27450980 0.65882353
v -0.16128488 -0.04858541 -16.97959137 0.25098039 0.27450980 0.65882353
v -0.16169198 -0.05944523 -16.99524689 0.25098039 0.27450980 0.65882353
v -0.15796575 -0.05606270 -16.99346733 0.25098039 0.27450980 0.65882353
v -0.15878005 -0.05816389 -16.99118805 0.25098039 0.27450980 0.65882353
v -0.16198388 -0.06109425 -16.99236107 0.25098039 0.27450980 0.65882353
v -0.15959959 -0.03717439 -16.99782372 0.25098039 0.27450980 0.65882353
v -0.16038080 -0.04154425 -17.00321198 0.25098039 0.27450980 0.65882353
v -0.16329543 -0.03568831 -16.99341583 0.25098039 0.27450980 0.65882353
v -0.16869801 -0.06050665 -16.99445534 0.25098039 0.27450980 0.65882353
v -0.17545301 -0.05713015 -16.99155045 0.25098039 0.27450980 0.65882353
v -0.17703389 -0.04932414 -17.00375366 0.25098039 0.27450980 0.65882353
v -0.17079812 -0.05072666 -17.00655365 0.25098039 0.27450980 0.65882353
v -0.16234848 -0.04578872 -16.98146248 0.25098039 0.27450980 0.65882353
v -0.15637895 -0.05110413 -16.98992920 0.25098039 0.27450980 0.65882353
v -0.15758204 -0.04713370 -16.98487091 0.25098039 0.27450980 0.65882353
v -0.17672098 -0.05070209 -16.98634148 0.25098039 0.27450980 0.65882353
v -0.17221954 -0.06047586 -16.98716354 0.25098039 0.27450980 0.65882353
v -0.15806001 -0.07513119 -16.97857666 0.25098039 0.27450980 0.65882353
v -0.16605851 -0.06539169 -16.98841858 0.25098039 0.27450980 0.65882353
v -0.16044573 -0.06329255 -16.99046516 0.25098039 0.27450980 0.65882353
v -0.15425178 -0.07414852 -16.98119926 0.25098039 0.27450980 0.65882353
v -0.16735184 -0.06302962 -16.99104309 0.25098039 0.27450980 0.65882353
v -0.16971987 -0.06385398 -16.98375130 0.25098039 0.27450980 0.65882353
v -0.14774695 -0.06219171 -16.97427940 0.25098039 0.27450980 0.65882353
v -0.14802459 -0.06588905 -16.97907829 0.25098039 0.27450980 0.65882353
v -0.15088229 -0.06070280 -16.97112656 0.25098039 0.27450980 0.65882353
v -0.18035594 -0.04287676 -16.99774551 0.25098039 0.27450980 0.65882353
v -0.16388708 -0.04831135 -17.00722694 0.25098039 0.27450980 0.65882353
v -0.15733615 -0.06387900 -16.96735954 0.25098039 0.27450980 0.65882353
v -0.15359946 -0.06133452 -16.96872520 0.25098039 0.27450980 0.65882353
v -0.15739372 -0.05994592 -16.98947525 0.25098039 0.27450980 0.65882353
v -0.15048349 -0.07090735 -16.98183250 0.25098039 0.27450980 0.65882353
v -0.16114941 -0.07313292 -16.97485733 0.25098039 0.27450980 0.65882353
v -0.16155565 -0.06803840 -16.97010994 0.25098039 0.27450980 0.65882353
v -0.15665744 -0.07658005 -16.97291565 0.25098039 0.27450980 0.65882353
v -0.15678427 -0.07204333 -16.96803093 0.25098039 0.27450980 0.65882353
v -0.15294252 -0.06789608 -16.96547699 0.25098039 0.27450980 0.65882353
v -0.14973870 -0.06486700 -16.96718788 0.25098039 0.27450980 0.65882353
v -0.14750156 -0.06380288 -16.96976662 0.25098039 0.27450980 0.65882353
v -0.15386665 -0.07785876 -16.97707367 0.25098039 0.27450980 0.65882353
v -0.15104046 -0.07620680 -16.97957993 0.25098039 0.27450980 0.65882353
v -0.14955151 -0.07151666 -16.98059654 0.25098039 0.27450980 0.65882353
v -0.14997898 -0.07966042 -16.97701645 0.25098039 0.27450980 0.65882353
v -0.15060765 -0.08003998 -16.97127151 0.25098039 0.27450980 0.65882353
v -0.13575535 -0.07696407 -16.96407700 0.25098039 0.27450980 0.65882353
v -0.14061248 -0.07404333 -16.96458817 0.25098039 0.27450980 0.65882353
v -0.14122480 -0.07522203 -16.96477890 0.25098039 0.27450980 0.65882353
v -0.13657545 -0.07846381 -16.96383095 0.25098039 0.27450980 0.65882353
v -0.14712247 -0.07257542 -16.96440125 0.25098039 0.27450980 0.65882353
v -0.14617939 -0.07431482 -16.96472549 0.25098039 0.27450980 0.65882353
v -0.14854328 -0.07704139 -16.96652603 0.25098039 0.27450980 0.65882353
v -0.14304647 -0.08004826 -16.96619797 0.25098039 0.27450980 0.65882353
v -0.14424689 -0.08235322 -16.97191620 0.25098039 0.27450980 0.65882353
v -0.13964033 -0.08400819 -16.97071648 0.25098039 0.27450980 0.65882353
v -0.13839068 -0.08251520 -16.96539497 0.25098039 0.27450980 0.65882353
v -0.14881083 -0.07995144 -16.97028542 0.25098039 0.27450980 0.65882353
v -0.13441597 -0.08071177 -16.96407509 0.25098039 0.27450980 0.65882353
v -0.13288283 -0.07986864 -16.96322823 0.25098039 0.27450980 0.65882353
v -0.15076488 -0.07612939 -16.96644783 0.25098039 0.27450980 0.65882353
v -0.14547619 -0.06781556 -16.96538162 0.25098039 0.27450980 0.65882353
v -0.13895968 -0.07152484 -16.96514893 0.25098039 0.27450980 0.65882353
v -0.13386226 -0.07429542 -16.96476173 0.25098039 0.27450980 0.65882353
v -0.13135336 -0.07772838 -16.96582413 0.25098039 0.27450980 0.65882353
v -0.13744138 -0.07014050 -16.96851921 0.25098039 0.27450980 0.65882353
v -0.13338348 -0.07336520 -16.96780396 0.25098039 0.27450980 0.65882353
v -0.13103916 -0.07652555 -16.96853065 0.25098039 0.27450980 0.65882353
v -0.13685624 -0.07033588 -16.97202492 0.25098039 0.27450980 0.65882353
v -0.13347872 -0.07351710 -16.97123146 0.25098039 0.27450980 0.65882353
v -0.14472596 -0.06538793 -16.97312927 0.25098039 0.27450980 0.65882353
v -0.14472142 -0.06564231 -16.96885681 0.25098039 0.27450980 0.65882353
v -0.13180298 -0.07605365 -16.97072792 0.25098039 0.27450980 0.65882353
v -0.13344592 -0.08396803 -16.96578598 0.25098039 0.27450980 0.65882353
v -0.13133809 -0.08236043 -16.96914864 0.25098039 0.27450980 0.65882353
v -0.13503461 -0.08327435 -16.96576881 0.25098039 0.27450980 0.65882353
v -0.14481707 -0.08265135 -16.97384071 0.25098039 0.27450980 0.65882353
v -0.13891821 -0.08509870 -16.97279930 0.25098039 0.27450980 0.65882353
v -0.14406547 -0.08190398 -16.97669601 0.25098039 0.27450980 0.65882353
v -0.13823704 -0.08427420 -16.97531700 0.25098039 0.27450980 0.65882353
v -0.13565964 -0.08576016 -16.97019005 0.25098039 0.27450980 0.65882353
v -0.13629006 -0.08519346 -16.96937180 0.25098039 0.27450980 0.65882353
v -0.14680482 -0.06441660 -16.97377396 0.25098039 0.27450980 0.65882353
v -0.14745957 -0.06734449 -16.97828865 0.25098039 0.27450980 0.65882353
v -0.14562622 -0.06776419 -16.97769737 0.25098039 0.27450980 0.65882353
v -0.13714226 -0.07265192 -16.97651100 0.25098039 0.27450980 0.65882353
v -0.14753863 -0.07170647 -16.98033905 0.25098039 0.27450980 0.65882353
v -0.14743063 -0.07764524 -16.97930336 0.25098039 0.27450980 0.65882353
v -0.14201374 -0.07961692 -16.97841644 0.25098039 0.27450980 0.65882353
v -0.13921297 -0.07660206 -16.97857285 0.25098039 0.27450980 0.65882353
v -0.13711390 -0.08209622 -16.97686768 0.25098039 0.27450980 0.65882353
v -0.13653392 -0.07922444 -16.97699356 0.25098039 0.27450980 0.65882353
v -0.13376746 -0.07534070 -16.97511482 0.25098039 0.27450980 0.65882353
v -0.13401739 -0.08237538 -16.97408104 0.25098039 0.27450980 0.65882353
v -0.13455737 -0.08478390 -16.97248650 0.25098039 0.27450980 0.65882353
v -0.13113555 -0.08006628 -16.97134781 0.25098039 0.27450980 0.65882353
v -0.13380493 -0.08007881 -16.97507858 0.25098039 0.27450980 0.65882353
v -0.13170569 -0.07819326 -16.97297668 0.25098039 0.27450980 0.65882353
v -0.16151063 -0.04530589 -17.00621033 0.25098039 0.27450980 0.65882353
v -0.15194225 -0.06283416 -17.00729752 0.25098039 0.27450980 0.65882353
v -0.15063351 -0.06531115 -17.01064110 0.25098039 0.27450980 0.65882353
v -0.15280871 -0.06425823 -17.01336861 0.25098039 0.27450980 0.65882353
v -0.15367591 -0.06075551 -17.01070976 0.25098039 0.27450980 0.65882353
v -0.16223347 -0.06627211 -17.00409698 0.25098039 0.27450980 0.65882353
v -0.15856719 -0.06360988 -17.00338554 0.25098039 0.27450980 0.65882353
v -0.16088730 -0.06072704 -17.00635529 0.25098039 0.27450980 0.65882353
v -0.16434482 -0.06320909 -17.00692940 0.25098039 0.27450980 0.65882353
v -0.16328308 -0.07034513 -17.00665474 0.25098039 0.27450980 0.65882353
v -0.16544238 -0.06748414 -17.00960350 0.25098039 0.27450980 0.65882353
v -0.16694525 -0.06072007 -17.00873756 0.25098039 0.27450980 0.65882353
v -0.16291097 -0.05807538 -17.00837708 0.25098039 0.27450980 0.65882353
v -0.16846582 -0.04850877 -17.01671791 0.25098039 0.27450980 0.65882353
v -0.17358330 -0.05062341 -17.01896286 0.25098039 0.27450980 0.65882353
v -0.16470133 -0.06036272 -17.03525925 0.25098039 0.27450980 0.65882353
v -0.16018413 -0.05667900 -17.03501320 0.25098039 0.27450980 0.65882353
v -0.15841892 -0.06154336 -17.02865219 0.25098039 0.27450980 0.65882353
v -0.16276738 -0.06411205 -17.03035927 0.25098039 0.27450980 0.65882353
v -0.15490495 -0.06244705 -17.00473595 0.25098039 0.27450980 0.65882353
v -0.15637581 -0.05939894 -17.00775528 0.25098039 0.27450980 0.65882353
v -0.15809998 -0.07034974 -17.02105141 0.25098039 0.27450980 0.65882353
v -0.15474769 -0.06708337 -17.01930046 0.25098039 0.27450980 0.65882353
v -0.15314256 -0.06756090 -17.01652527 0.25098039 0.27450980 0.65882353
v -0.15548056 -0.07157026 -17.01831627 0.25098039 0.27450980 0.65882353
v -0.15788968 -0.05365451 -17.03032303 0.25098039 0.27450980 0.65882353
v -0.15835670 -0.05133956 -17.02518845 0.25098039 0.27450980 0.65882353
v -0.15689188 -0.05317173 -17.02275848 0.25098039 0.27450980 0.65882353
v -0.15634808 -0.05798656 -17.02475357 0.25098039 0.27450980 0.65882353
v -0.16034375 -0.05025788 -17.01832581 0.25098039 0.27450980 0.65882353
v -0.16208664 -0.07160382 -17.02013016 0.25098039 0.27450980 0.65882353
v -0.16658688 -0.07011758 -17.01654053 0.25098039 0.27450980 0.65882353
v -0.17382744 -0.06282988 -17.02828598 0.25098039 0.27450980 0.65882353
v -0.16872166 -0.06409571 -17.03066063 0.25098039 0.27450980 0.65882353
v -0.15825215 -0.05766827 -17.00889778 0.25098039 0.27450980 0.65882353
v -0.15361980 -0.06330206 -17.01596451 0.25098039 0.27450980 0.65882353
v -0.15446410 -0.06004420 -17.01235390 0.25098039 0.27450980 0.65882353
v -0.16879898 -0.06560495 -17.01158142 0.25098039 0.27450980 0.65882353
v -0.16352010 -0.07174459 -17.01391792 0.25098039 0.27450980 0.65882353
v -0.15202573 -0.07998337 -17.00902176 0.25098039 0.27450980 0.65882353
v -0.15715444 -0.07509662 -17.01533127 0.25098039 0.27450980 0.65882353
v -0.15274663 -0.07276089 -17.01580620 0.25098039 0.27450980 0.65882353
v -0.14936958 -0.07841288 -17.00937462 0.25098039 0.27450980 0.65882353
v -0.15962958 -0.07315141 -17.01747894 0.25098039 0.27450980 0.65882353
v -0.16136354 -0.07447101 -17.01120377 0.25098039 0.27450980 0.65882353
v -0.14745912 -0.06842341 -17.00144386 0.25098039 0.27450980 0.65882353
v -0.14647149 -0.07159519 -17.00588608 0.25098039 0.27450980 0.65882353
v -0.14994679 -0.06800322 -16.99920273 0.25098039 0.27450980 0.65882353
v -0.17629856 -0.05608791 -17.02315521 0.25098039 0.27450980 0.65882353
v -0.15656596 -0.07209589 -16.99811554 0.25098039 0.27450980 0.65882353
v -0.15295348 -0.06931372 -16.99748993 0.25098039 0.27450980 0.65882353
v -0.15083262 -0.06878664 -17.01351547 0.25098039 0.27450980 0.65882353
v -0.14736670 -0.07531711 -17.00846100 0.25098039 0.27450980 0.65882353
v -0.15561631 -0.07986875 -17.00640678 0.25098039 0.27450980 0.65882353
v -0.15847567 -0.07653494 -17.00157356 0.25098039 0.27450980 0.65882353
v -0.15250561 -0.08193153 -17.00342560 0.25098039 0.27450980 0.65882353
v -0.15558870 -0.07828914 -16.99893379 0.25098039 0.27450980 0.65882353
v -0.15317106 -0.07366720 -16.99559593 0.25098039 0.27450980 0.65882353
v -0.15065220 -0.07078688 -16.99614143 0.25098039 0.27450980 0.65882353
v -0.14800486 -0.06945197 -16.99761391 0.25098039 0.27450980 0.65882353
v -0.14914033 -0.08192493 -17.00628853 0.25098039 0.27450980 0.65882353
v -0.14671725 -0.07997745 -17.00713539 0.25098039 0.27450980 0.65882353
v -0.14518897 -0.07642080 -17.00690460 0.25098039 0.27450980 0.65882353
v -0.14613670 -0.08363160 -17.00361824 0.25098039 0.27450980 0.65882353
v -0.14839260 -0.08407553 -16.99932098 0.25098039 0.27450980 0.65882353
v -0.14023218 -0.07889615 -16.98984909 0.25098039 0.27450980 0.65882353
v -0.14347667 -0.07707514 -16.99141693 0.25098039 0.27450980 0.65882353
v -0.14409651 -0.07813989 -16.99145508 0.25098039 0.27450980 0.65882353
v -0.14091066 -0.07960659 -16.98927498 0.25098039 0.27450980 0.65882353
v -0.14848037 -0.07630491 -16.99329185 0.25098039 0.27450980 0.65882353
v -0.14791250 -0.07786450 -16.99321938 0.25098039 0.27450980 0.65882353
v -0.14945406 -0.08028851 -16.99543762 0.25098039 0.27450980 0.65882353
v -0.14541438 -0.08210297 -16.99260139 0.25098039 0.27450980 0.65882353
v -0.14374456 -0.08571087 -16.99645424 0.25098039 0.27450980 0.65882353
v -0.14062588 -0.08672370 -16.99392319 0.25098039 0.27450980 0.65882353
v -0.14251904 -0.08359435 -16.99062347 0.25098039 0.27450980 0.65882353
v -0.14786452 -0.08383298 -16.99730110 0.25098039 0.27450980 0.65882353
v -0.13940425 -0.08156332 -16.98813438 0.25098039 0.27450980 0.65882353
v -0.13825274 -0.08130470 -16.98772049 0.25098039 0.27450980 0.65882353
v -0.15108135 -0.07991353 -16.99598694 0.25098039 0.27450980 0.65882353
v -0.14711793 -0.07240939 -16.99431229 0.25098039 0.27450980 0.65882353
v -0.14160435 -0.07540086 -16.99153328 0.25098039 0.27450980 0.65882353
v -0.13810880 -0.07822596 -16.98955917 0.25098039 0.27450980 0.65882353
v -0.13630588 -0.08125262 -16.98885727 0.25098039 0.27450980 0.65882353
v -0.14044857 -0.07396352 -16.99346352 0.25098039 0.27450980 0.65882353
v -0.13643120 -0.07732075 -16.99096870 0.25098039 0.27450980 0.65882353
v -0.13474484 -0.08044632 -16.99046135 0.25098039 0.27450980 0.65882353
v -0.13881394 -0.07372285 -16.99649429 0.25098039 0.27450980 0.65882353
v -0.13564005 -0.07730407 -16.99345589 0.25098039 0.27450980 0.65882353
v -0.14356235 -0.07066885 -17.00000572 0.25098039 0.27450980 0.65882353
v -0.14520431 -0.07078384 -16.99665642 0.25098039 0.27450980 0.65882353
v -0.13475797 -0.07993543 -16.99215698 0.25098039 0.27450980 0.65882353
v -0.13818836 -0.08499652 -16.98877335 0.25098039 0.27450980 0.65882353
v -0.13575894 -0.08414748 -16.99020958 0.25098039 0.27450980 0.65882353
v -0.13955149 -0.08507550 -16.98895073 0.25098039 0.27450980 0.65882353
v -0.14324167 -0.08613271 -16.99785042 0.25098039 0.27450980 0.65882353
v -0.13942839 -0.08725110 -16.99482536 0.25098039 0.27450980 0.65882353
v -0.14169899 -0.08565988 -16.99999046 0.25098039 0.27450980 0.65882353
v -0.13767824 -0.08651614 -16.99603271 0.25098039 0.27450980 0.65882353
v -0.13778099 -0.08704348 -16.99174500 0.25098039 0.27450980 0.65882353
v -0.13938323 -0.08654733 -16.99138832 0.25098039 0.27450980 0.65882353
v -0.14519769 -0.06983007 -17.00069618 0.25098039 0.27450980 0.65882353
v -0.14475217 -0.07247153 -17.00442505 0.25098039 0.27450980 0.65882353
v -0.14294952 -0.07351916 -17.00353050 0.25098039 0.27450980 0.65882353
v -0.13800554 -0.07599069 -16.99985886 0.25098039 0.27450980 0.65882353
v -0.14335001 -0.07753904 -17.00573158 0.25098039 0.27450980 0.65882353
v -0.14464930 -0.08131422 -17.00537300 0.25098039 0.27450980 0.65882353
v -0.13996245 -0.08360717 -17.00119591 0.25098039 0.27450980 0.65882353
v -0.13834721 -0.08034755 -17.00148010 0.25098039 0.27450980 0.65882353
v -0.13615432 -0.08495867 -16.99667168 0.25098039 0.27450980 0.65882353
v -0.13519397 -0.08205001 -16.99729156 0.25098039 0.27450980 0.65882353
v -0.13489351 -0.07896566 -16.99619293 0.25098039 0.27450980 0.65882353
v -0.13489960 -0.08445679 -16.99328232 0.25098039 0.27450980 0.65882353
v -0.13578385 -0.08594891 -16.99246788 0.25098039 0.27450980 0.65882353
v -0.13467316 -0.08298314 -16.99163437 0.25098039 0.27450980 0.65882353
v -0.13439439 -0.08277716 -16.99419403 0.25098039 0.27450980 0.65882353
v -0.13436440 -0.08140536 -16.99334908 0.25098039 0.27450980 0.65882353
v -0.16849485 -0.06124967 -17.03339958 0.25098039 0.27450980 0.65882353
v -0.09410001 -0.00153620 -17.00743866 0.25098039 0.27450980 0.65882353
v -0.09881023 -0.00549737 -17.00670052 0.25098039 0.27450980 0.65882353
v -0.09416035 -0.02052737 -17.01666641 0.25098039 0.27450980 0.65882353
v -0.09924039 -0.01782402 -17.01086044 0.25098039 0.27450980 0.65882353
v -0.08794522 -0.01911680 -17.02031517 0.25098039 0.27450980 0.65882353
v -0.08212405 -0.00855127 -17.01968765 0.25098039 0.27450980 0.65882353
v -0.08426183 -0.01428501 -17.02186394 0.25098039 0.27450980 0.65882353
v -0.10092841 -0.01225773 -17.00735283 0.25098039 0.27450980 0.65882353
v -0.08858618 0.00016066 -17.01051903 0.25098039 0.27450980 0.65882353
v -0.08341159 -0.00234247 -17.01573944 0.25098039 0.27450980 0.65882353
v -0.08585748 -0.00295123 -17.00363731 0.25098039 0.27450980 0.65882353
v -0.07997562 -0.00598478 -17.00872421 0.25098039 0.27450980 0.65882353
v -0.07779360 -0.01224701 -17.01235199 0.25098039 0.27450980 0.65882353
v -0.08098413 -0.01826946 -17.01539803 0.25098039 0.27450980 0.65882353
v -0.08472265 -0.02197437 -17.01549911 0.25098039 0.27450980 0.65882353
v -0.09259315 -0.00524881 -17.00198746 0.25098039 0.27450980 0.65882353
v -0.09719084 -0.00944752 -17.00188065 0.25098039 0.27450980 0.65882353
v -0.09916703 -0.01587284 -17.00464821 0.25098039 0.27450980 0.65882353
v -0.09173626 -0.01104324 -16.99629021 0.25098039 0.27450980 0.65882353
v -0.08389616 -0.01577837 -16.99165535 0.25098039 0.27450980 0.65882353
v -0.07258199 -0.03076869 -16.99205780 0.25098039 0.27450980 0.65882353
v -0.07441103 -0.02780225 -16.99764824 0.25098039 0.27450980 0.65882353
v -0.07422011 -0.02579922 -16.99540710 0.25098039 0.27450980 0.65882353
v -0.07193621 -0.02846652 -16.99062920 0.25098039 0.27450980 0.65882353
v -0.07532769 -0.02301602 -17.00003242 0.25098039 0.27450980 0.65882353
v -0.07573302 -0.02284051 -16.99754333 0.25098039 0.27450980 0.65882353
v -0.07836351 -0.01898919 -16.99504662 0.25098039 0.27450980 0.65882353
v -0.07623017 -0.02138023 -16.99096870 0.25098039 0.27450980 0.65882353
v -0.08187757 -0.01779854 -16.99138451 0.25098039 0.27450980 0.65882353
v -0.08176614 -0.01973057 -16.98827171 0.25098039 0.27450980 0.65882353
v -0.07450083 -0.02383957 -16.98674965 0.25098039 0.27450980 0.65882353
v -0.07110004 -0.02848301 -16.98680305 0.25098039 0.27450980 0.65882353
v -0.07325290 -0.02637104 -16.98313332 0.25098039 0.27450980 0.65882353
v -0.07236649 -0.03147889 -16.98683548 0.25098039 0.27450980 0.65882353
v -0.07741989 -0.01699480 -16.99552345 0.25098039 0.27450980 0.65882353
v -0.07746565 -0.02366774 -17.00709534 0.25098039 0.27450980 0.65882353
v -0.07633914 -0.02962751 -17.00052834 0.25098039 0.27450980 0.65882353
v -0.07525912 -0.03316967 -16.99359703 0.25098039 0.27450980 0.65882353
v -0.07488038 -0.03345677 -16.98736000 0.25098039 0.27450980 0.65882353
v -0.08038345 -0.03155734 -17.00158501 0.25098039 0.27450980 0.65882353
v -0.07956915 -0.03393571 -16.99456215 0.25098039 0.27450980 0.65882353
v -0.07967834 -0.03383472 -16.98871613 0.25098039 0.27450980 0.65882353
v -0.08535397 -0.03181473 -17.00060272 0.25098039 0.27450980 0.65882353
v -0.08353874 -0.03328516 -16.99388885 0.25098039 0.27450980 0.65882353
v -0.08939864 -0.02481732 -17.01059532 0.25098039 0.27450980 0.65882353
v -0.08269750 -0.02518762 -17.01110649 0.25098039 0.27450980 0.65882353
v -0.08225152 -0.03315984 -16.98976135 0.25098039 0.27450980 0.65882353
v -0.07418680 -0.02851541 -16.98173332 0.25098039 0.27450980 0.65882353
v -0.07720774 -0.03068018 -16.98229980 0.25098039 0.27450980 0.65882353
v -0.08536178 -0.01892162 -16.98758316 0.25098039 0.27450980 0.65882353
v -0.07981947 -0.02151233 -16.98389053 0.25098039 0.27450980 0.65882353
v -0.08313717 -0.02229081 -16.98339844 0.25098039 0.27450980 0.65882353
v -0.08937465 -0.01879897 -16.98855209 0.25098039 0.27450980 0.65882353
v -0.08586821 -0.02341269 -16.98355865 0.25098039 0.27450980 0.65882353
v -0.07920992 -0.02513839 -16.98084068 0.25098039 0.27450980 0.65882353
v -0.07703327 -0.02368916 -16.98223495 0.25098039 0.27450980 0.65882353
v -0.09103976 -0.02284745 -17.01371765 0.25098039 0.27450980 0.65882353
v -0.09654665 -0.02027843 -17.00976753 0.25098039 0.27450980 0.65882353
v -0.09489842 -0.02175425 -17.00693512 0.25098039 0.27450980 0.65882353
v -0.09091204 -0.02889375 -16.99775124 0.25098039 0.27450980 0.65882353
v -0.09757067 -0.01841787 -17.00177383 0.25098039 0.27450980 0.65882353
v -0.09559686 -0.01385399 -16.99772453 0.25098039 0.27450980 0.65882353
v -0.09226143 -0.02103023 -16.99004364 0.25098039 0.27450980 0.65882353
v -0.09330322 -0.02464946 -16.99349213 0.25098039 0.27450980 0.65882353
v -0.08798924 -0.02589856 -16.98547173 0.25098039 0.27450980 0.65882353
v -0.08843012 -0.02795010 -16.98791122 0.25098039 0.27450980 0.65882353
v -0.08674668 -0.03150250 -16.99123383 0.25098039 0.27450980 0.65882353
v -0.08416393 -0.02882880 -16.98358345 0.25098039 0.27450980 0.65882353
v -0.08200201 -0.02689211 -16.98132896 0.25098039 0.27450980 0.65882353
v -0.08112979 -0.03171225 -16.98472023 0.25098039 0.27450980 0.65882353
v -0.08546540 -0.02955449 -16.98602295 0.25098039 0.27450980 0.65882353
v -0.08365175 -0.03167282 -16.98742104 0.25098039 0.27450980 0.65882353
v -0.16081882 -0.05433258 -17.03869247 0.25098039 0.27450980 0.65882353
v -0.15741351 -0.05046159 -17.03395653 0.25098039 0.27450980 0.65882353
v -0.15721491 -0.04947552 -17.03953934 0.25098039 0.27450980 0.65882353
v -0.15340853 -0.04772243 -17.04674911 0.25098039 0.27450980 0.65882353
v -0.15464318 -0.04755876 -17.05718040 0.25098039 0.27450980 0.65882353
v -0.15058032 -0.04228920 -17.04283905 0.25098039 0.27450980 0.65882353
v -0.15484431 -0.04458540 -17.03543663 0.25098039 0.27450980 0.65882353
v -0.15598944 -0.04626925 -17.02674866 0.25098039 0.27450980 0.65882353
v -0.14523974 -0.03420120 -17.04598427 0.25098039 0.27450980 0.65882353
f 2 3 1
f 1 3 4
f 5 6 8
f 8 6 7
f 9 4 10
f 10 4 3
f 12 13 11
f 11 13 9
f 14 12 16
f 16 12 15
f 18 19 17
f 17 19 20
f 22 23 21
f 21 23 24
f 26 27 25
f 25 27 28
f 30 31 29
f 29 31 32
f 33 34 36
f 36 34 35
f 37 38 40
f 40 38 39
f 41 42 6
f 6 42 43
f 6 43 7
f 7 43 44
f 45 34 46
f 46 34 33
f 48 49 47
f 47 49 50
f 52 53 51
f 51 53 54
f 56 52 55
f 55 52 51
f 58 59 57
f 57 59 60
f 61 62 4
f 4 62 1
f 64 65 63
f 63 65 66
f 68 69 67
f 67 69 70
f 72 73 71
f 71 73 74
f 76 77 75
f 75 77 78
f 53 79 54
f 54 79 80
f 82 83 81
f 81 83 84
f 85 86 52
f 52 86 53
f 57 60 87
f 87 60 88
f 89 90 43
f 43 90 44
f 43 42 89
f 89 42 91
f 40 39 92
f 92 39 93
f 94 70 64
f 64 70 69
f 13 61 9
f 9 61 4
f 25 28 69
f 69 28 95
f 96 25 68
f 68 25 69
f 98 99 97
f 97 99 100
f 101 102 104
f 104 102 103
f 106 30 105
f 105 30 29
f 51 54 107
f 107 54 108
f 54 80 108
f 108 80 109
f 111 112 110
f 110 112 113
f 115 5 114
f 114 5 116
f 115 41 5
f 5 41 6
f 36 35 111
f 111 35 117
f 35 118 117
f 117 118 119
f 34 120 35
f 35 120 118
f 34 45 120
f 120 45 121
f 125 126 124
f 124 126 127
f 128 129 14
f 14 129 130
f 33 131 46
f 46 131 132
f 133 94 63
f 63 94 64
f 134 135 137
f 137 135 136
f 139 140 138
f 138 140 141
f 77 142 78
f 78 142 143
f 144 145 20
f 20 145 146
f 148 149 147
f 147 149 72
f 151 152 150
f 150 152 153
f 82 101 83
f 83 101 104
f 101 82 155
f 155 82 154
f 156 157 58
f 58 157 59
f 158 68 147
f 147 68 67
f 159 146 15
f 15 146 16
f 68 158 96
f 96 158 160
f 129 66 130
f 130 66 65
f 162 163 161
f 161 163 164
f 166 167 165
f 165 167 168
f 170 171 169
f 169 171 172
f 174 171 173
f 173 171 170
f 176 177 175
f 175 177 178
f 180 181 179
f 179 181 24
f 182 183 21
f 21 183 184
f 81 185 82
f 82 185 154
f 186 187 188
f 188 187 144
f 158 71 160
f 160 71 189
f 190 135 157
f 157 135 59
f 169 172 139
f 139 172 140
f 147 72 158
f 158 72 71
f 192 193 191
f 191 193 194
f 167 166 49
f 49 166 195
f 196 190 50
f 50 190 157
f 197 198 200
f 200 198 199
f 21 24 182
f 182 24 181
f 146 159 20
f 20 159 17
f 182 181 81
f 81 181 185
f 201 185 180
f 180 185 181
f 202 203 83
f 83 203 84
f 205 206 204
f 204 206 85
f 207 22 184
f 184 22 21
f 179 24 208
f 208 24 23
f 208 209 179
f 179 209 205
f 209 210 205
f 205 210 206
f 212 206 211
f 211 206 210
f 179 205 180
f 180 205 204
f 213 176 88
f 88 176 214
f 86 85 212
f 212 85 206
f 193 217 218
f 217 219 218
f 218 219 220
f 219 18 220
f 220 18 17
f 19 221 20
f 20 221 144
f 222 223 225
f 225 223 224
f 175 226 176
f 176 226 214
f 227 87 214
f 214 87 88
f 220 17 228
f 228 17 159
f 134 213 60
f 60 213 88
f 138 229 151
f 151 229 152
f 193 192 210
f 210 192 211
f 230 194 218
f 218 194 193
f 231 232 228
f 228 232 230
f 233 234 91
f 91 234 89
f 235 236 93
f 93 236 92
f 230 232 234
f 234 232 237
f 47 238 48
f 48 238 239
f 240 191 235
f 235 191 236
f 5 8 116
f 116 8 241
f 242 243 189
f 189 243 160
f 244 245 98
f 98 245 99
f 156 246 47
f 47 246 238
f 76 247 77
f 77 247 248
f 250 125 249
f 249 125 124
f 252 253 251
f 251 253 254
f 111 110 36
f 36 110 255
f 256 33 255
f 255 33 36
f 257 258 154
f 154 258 155
f 63 169 133
f 133 169 139
f 66 170 63
f 63 170 169
f 173 170 129
f 129 170 66
f 129 128 173
f 173 128 259
f 128 260 259
f 259 260 261
f 213 134 262
f 262 134 137
f 263 264 186
f 186 264 187
f 112 265 113
f 113 265 266
f 11 267 268
f 234 233 230
f 230 233 194
f 153 269 70
f 70 269 67
f 175 178 165
f 165 178 141
f 150 153 94
f 94 153 70
f 271 221 270
f 270 221 207
f 269 153 272
f 272 153 152
f 121 45 109
f 109 45 108
f 47 50 156
f 156 50 157
f 57 273 58
f 58 273 274
f 145 275 260
f 260 275 261
f 276 149 143
f 143 149 78
f 148 269 75
f 75 269 272
f 207 277 270
f 270 277 278
f 195 196 49
f 49 196 50
f 59 135 60
f 60 135 134
f 83 104 202
f 202 104 279
f 149 148 78
f 78 148 75
f 247 278 248
f 248 278 277
f 183 182 84
f 84 182 81
f 48 239 281
f 281 239 282
f 227 223 283
f 283 223 222
f 223 226 224
f 224 226 168
f 281 282 224
f 224 282 225
f 165 168 175
f 175 168 226
f 264 263 138
f 138 263 229
f 14 16 128
f 128 16 260
f 220 228 218
f 218 228 230
f 87 227 284
f 284 227 283
f 260 16 145
f 145 16 146
f 244 98 258
f 258 98 155
f 58 274 156
f 156 274 246
f 107 285 51
f 51 285 55
f 243 286 160
f 160 286 96
f 234 237 89
f 89 237 90
f 46 132 107
f 107 132 285
f 253 252 249
f 249 252 250
f 286 26 96
f 96 26 25
f 106 105 287
f 287 105 288
f 272 152 289
f 289 152 229
f 138 151 139
f 139 151 133
f 183 290 161
f 161 290 162
f 291 292 277
f 277 292 293
f 151 150 133
f 133 150 94
f 262 275 177
f 177 275 187
f 144 187 145
f 145 187 275
f 273 57 284
f 284 57 87
f 174 136 190
f 190 136 135
f 111 117 112
f 112 117 38
f 117 119 38
f 38 119 123
f 112 38 265
f 265 38 37
f 287 288 254
f 254 288 251
f 228 159 231
f 231 159 15
f 223 227 226
f 226 227 214
f 147 67 148
f 148 67 269
f 224 168 281
f 281 168 167
f 199 163 200
f 200 163 162
f 45 46 108
f 108 46 107
f 281 167 48
f 48 167 49
f 161 164 291
f 291 164 292
f 38 123 39
f 293 294 277
f 277 294 248
f 284 283 296
f 296 283 295
f 284 296 273
f 273 296 297
f 274 273 298
f 298 273 297
f 246 274 299
f 299 274 298
f 283 222 295
f 295 222 300
f 222 225 300
f 300 225 301
f 301 225 302
f 302 225 282
f 303 304 300
f 300 304 295
f 306 307 305
f 305 307 308
f 309 310 308
f 308 310 305
f 308 307 312
f 312 307 311
f 313 314 312
f 312 314 315
f 311 316 312
f 312 316 313
f 317 304 311
f 311 304 316
f 315 309 312
f 312 309 308
f 318 319 321
f 321 319 320
f 319 318 309
f 309 318 310
f 311 307 317
f 317 307 306
f 306 297 317
f 317 297 296
f 306 322 297
f 297 322 298
f 305 323 306
f 306 323 322
f 323 305 324
f 324 305 310
f 304 317 295
f 295 317 296
f 318 325 310
f 310 325 324
f 323 324 326
f 326 324 327
f 324 325 327
f 327 325 328
f 326 327 329
f 329 327 330
f 329 331 326
f 326 331 332
f 333 330 328
f 328 330 327
f 323 326 322
f 322 326 332
f 322 332 298
f 298 332 299
f 325 318 334
f 334 318 321
f 313 316 335
f 335 316 304
f 335 336 313
f 313 336 314
f 304 303 335
f 335 303 337
f 336 335 338
f 338 335 337
f 336 339 314
f 314 339 340
f 246 299 238
f 238 299 341
f 239 342 282
f 282 342 302
f 342 239 341
f 341 239 238
f 341 331 342
f 342 331 343
f 331 329 343
f 343 329 344
f 342 343 302
f 302 343 345
f 341 299 331
f 331 299 332
f 346 301 345
f 345 301 302
f 346 303 301
f 301 303 300
f 347 337 346
f 346 337 303
f 347 346 348
f 348 346 345
f 349 347 350
f 350 347 348
f 343 344 345
f 345 344 348
f 344 351 348
f 348 351 350
f 337 347 338
f 338 347 349
f 353 338 352
f 352 338 349
f 352 355 354
f 354 355 356
f 352 349 355
f 355 349 350
f 352 354 353
f 353 354 334
f 353 334 339
f 339 334 321
f 339 336 353
f 353 336 338
f 329 330 344
f 344 330 351
f 356 351 333
f 333 351 330
f 356 355 351
f 351 355 350
f 354 356 328
f 328 356 333
f 328 325 354
f 354 325 334
f 309 315 319
f 319 315 320
f 320 340 321
f 321 340 339
f 320 315 340
f 340 315 314
f 137 136 261
f 261 136 259
f 140 166 141
f 141 166 165
f 172 171 195
f 195 171 196
f 171 174 196
f 196 174 190
f 178 177 264
f 264 177 187
f 172 195 140
f 140 195 166
f 137 261 262
f 262 261 275
f 178 264 141
f 141 264 138
f 262 177 213
f 213 177 176
f 136 174 259
f 259 174 173
f 358 359 357
f 357 359 360
f 362 363 361
f 361 363 364
f 361 364 365
f 365 364 366
f 367 368 370
f 370 368 369
f 76 371 247
f 247 371 372
f 373 374 362
f 362 374 363
f 376 377 375
f 375 377 378
f 289 229 380
f 380 229 379
f 381 379 263
f 263 379 229
f 383 384 382
f 382 384 385
f 386 368 374
f 374 368 363
f 76 289 371
f 371 289 380
f 377 376 359
f 359 376 387
f 388 386 360
f 360 386 374
f 389 383 366
f 366 383 390
f 392 393 391
f 391 393 394
f 383 382 390
f 390 382 395
f 396 365 390
f 390 365 366
f 389 366 367
f 367 366 364
f 357 397 358
f 358 397 398
f 373 399 357
f 357 399 397
f 389 367 400
f 400 367 370
f 382 385 375
f 375 385 372
f 357 360 373
f 373 360 374
f 361 401 362
f 362 401 402
f 387 388 359
f 359 388 360
f 363 368 364
f 364 368 367
f 358 398 403
f 403 398 404
f 396 392 405
f 405 392 391
f 392 395 393
f 393 395 378
f 393 403 394
f 394 403 404
f 375 378 382
f 382 378 395
f 365 396 406
f 406 396 405
f 362 402 373
f 373 402 399
f 271 270 400
f 400 270 384
f 401 361 406
f 406 361 365
f 381 369 386
f 386 369 368
f 392 396 395
f 395 396 390
f 393 378 403
f 403 378 377
f 403 377 358
f 358 377 359
f 406 405 408
f 408 405 407
f 406 408 401
f 401 408 409
f 401 409 402
f 402 409 410
f 402 410 399
f 399 410 411
f 405 391 407
f 407 391 412
f 391 394 412
f 412 394 413
f 394 404 413
f 413 404 414
f 415 416 412
f 412 416 407
f 418 419 417
f 417 419 420
f 421 422 418
f 418 422 419
f 419 422 424
f 424 422 423
f 425 426 424
f 424 426 427
f 423 428 424
f 424 428 425
f 427 420 424
f 424 420 419
f 420 429 417
f 417 429 430
f 423 422 431
f 431 422 421
f 421 409 431
f 431 409 408
f 421 432 409
f 409 432 410
f 418 433 421
f 421 433 432
f 434 433 417
f 417 433 418
f 431 416 423
f 423 416 428
f 416 431 407
f 407 431 408
f 435 434 430
f 430 434 417
f 433 434 436
f 436 434 437
f 434 435 437
f 437 435 438
f 436 437 439
f 439 437 440
f 439 441 436
f 436 441 442
f 438 443 437
f 437 443 440
f 436 442 433
f 433 442 432
f 432 442 410
f 410 442 411
f 435 430 445
f 445 430 444
f 430 429 444
f 444 429 446
f 425 428 447
f 447 428 416
f 426 425 448
f 448 425 447
f 416 415 447
f 447 415 449
f 447 449 448
f 448 449 450
f 451 452 448
f 448 452 426
f 446 452 444
f 444 452 451
f 399 411 397
f 397 411 453
f 398 454 404
f 404 454 414
f 454 398 453
f 453 398 397
f 453 441 454
f 454 441 455
f 441 439 455
f 455 439 456
f 454 455 414
f 414 455 457
f 441 453 442
f 442 453 411
f 458 413 457
f 457 413 414
f 458 415 413
f 413 415 412
f 458 459 415
f 415 459 449
f 459 458 460
f 460 458 457
f 461 459 462
f 462 459 460
f 455 456 457
f 457 456 460
f 456 463 460
f 460 463 462
f 459 461 449
f 449 461 450
f 465 450 464
f 464 450 461
f 464 467 466
f 466 467 468
f 464 461 467
f 467 461 462
f 464 466 465
f 465 466 445
f 465 445 451
f 451 445 444
f 451 448 465
f 465 448 450
f 439 440 456
f 456 440 463
f 468 463 443
f 443 463 440
f 468 467 463
f 463 467 462
f 466 468 438
f 438 468 443
f 438 435 466
f 466 435 445
f 420 427 429
f 429 427 446
f 446 427 452
f 452 427 426
f 370 369 188
f 188 369 186
f 371 376 372
f 372 376 375
f 380 379 387
f 387 379 388
f 379 381 388
f 388 381 386
f 385 384 278
f 278 384 270
f 380 387 371
f 371 387 376
f 400 370 271
f 271 370 188
f 385 278 372
f 372 278 247
f 400 384 389
f 389 384 383
f 369 381 186
f 186 381 263
f 221 271 144
f 144 271 188
f 221 19 207
f 207 19 22
f 19 18 22
f 22 18 23
f 18 219 23
f 23 219 208
f 469 470 472
f 472 470 471
f 474 475 473
f 473 475 476
f 473 476 477
f 477 476 478
f 480 481 479
f 479 481 482
f 483 484 474
f 474 484 475
f 486 487 485
f 485 487 488
f 489 490 77
f 77 490 142
f 491 489 248
f 248 489 77
f 493 494 492
f 492 494 495
f 496 480 484
f 484 480 475
f 486 497 487
f 487 497 471
f 498 496 472
f 472 496 484
f 499 493 478
f 478 493 500
f 501 502 504
f 504 502 503
f 493 492 500
f 500 492 505
f 506 477 500
f 500 477 478
f 499 478 479
f 479 478 476
f 469 507 470
f 470 507 508
f 483 509 469
f 469 509 507
f 479 482 499
f 499 482 510
f 492 495 485
f 485 495 511
f 483 469 484
f 484 469 472
f 473 512 474
f 474 512 513
f 497 498 471
f 471 498 472
f 475 480 476
f 476 480 479
f 470 508 514
f 514 508 515
f 506 502 516
f 516 502 501
f 503 502 488
f 488 502 505
f 514 515 503
f 503 515 504
f 485 488 492
f 492 488 505
f 477 506 517
f 517 506 516
f 474 513 483
f 483 513 509
f 510 292 494
f 494 292 164
f 512 473 517
f 517 473 477
f 491 481 496
f 496 481 480
f 502 506 505
f 505 506 500
f 503 488 514
f 514 488 487
f 514 487 470
f 470 487 471
f 517 516 519
f 519 516 518
f 517 519 512
f 512 519 520
f 512 520 513
f 513 520 521
f 513 521 509
f 509 521 522
f 516 501 518
f 518 501 523
f 501 504 523
f 523 504 524
f 524 504 525
f 525 504 515
f 526 527 523
f 523 527 518
f 529 530 528
f 528 530 531
f 532 533 529
f 529 533 530
f 530 533 535
f 535 533 534
f 536 537 535
f 535 537 538
f 534 539 535
f 535 539 536
f 538 531 535
f 535 531 530
f 540 541 531
f 531 541 528
f 533 532 534
f 534 532 542
f 532 520 542
f 542 520 519
f 532 543 520
f 520 543 521
f 529 544 532
f 532 544 543
f 544 529 545
f 545 529 528
f 534 542 539
f 539 542 527
f 527 542 518
f 518 542 519
f 541 546 528
f 528 546 545
f 547 544 548
f 548 544 545
f 546 549 545
f 545 549 548
f 550 547 551
f 551 547 548
f 547 550 553
f 553 550 552
f 549 554 548
f 548 554 551
f 544 547 543
f 543 547 553
f 543 553 521
f 521 553 522
f 546 541 556
f 556 541 555
f 541 540 555
f 555 540 557
f 536 539 558
f 558 539 527
f 537 536 559
f 559 536 558
f 527 526 558
f 558 526 560
f 559 558 561
f 561 558 560
f 559 562 537
f 537 562 563
f 557 563 555
f 555 563 562
f 509 522 507
f 507 522 564
f 508 565 515
f 515 565 525
f 565 508 564
f 564 508 507
f 564 552 565
f 565 552 566
f 552 550 566
f 566 550 567
f 565 566 525
f 525 566 568
f 564 522 552
f 552 522 553
f 569 524 568
f 568 524 525
f 569 526 524
f 524 526 523
f 570 560 569
f 569 560 526
f 570 569 571
f 571 569 568
f 572 570 573
f 573 570 571
f 566 567 568
f 568 567 571
f 567 574 571
f 571 574 573
f 570 572 560
f 560 572 561
f 576 561 575
f 575 561 572
f 575 578 577
f 577 578 579
f 575 572 578
f 578 572 573
f 575 577 576
f 576 577 556
f 576 556 562
f 562 556 555
f 562 559 576
f 576 559 561
f 550 551 567
f 567 551 574
f 579 574 554
f 554 574 551
f 579 578 574
f 574 578 573
f 579 554 577
f 577 554 549
f 549 546 577
f 577 546 556
f 531 538 540
f 540 538 557
f 557 538 563
f 563 538 537
f 481 294 482
f 482 294 293
f 580 486 511
f 511 486 485
f 490 489 497
f 497 489 498
f 489 491 498
f 498 491 496
f 163 495 164
f 164 495 494
f 580 490 486
f 486 490 497
f 482 293 510
f 510 293 292
f 495 163 511
f 511 163 199
f 494 493 510
f 510 493 499
f 481 491 294
f 294 491 248
f 582 583 581
f 581 583 584
f 586 587 585
f 585 587 588
f 585 588 589
f 589 588 590
f 592 593 591
f 591 593 594
f 595 596 598
f 598 596 597
f 599 600 586
f 586 600 587
f 601 602 604
f 604 602 603
f 605 606 608
f 608 606 607
f 609 607 200
f 200 607 606
f 610 611 613
f 613 611 612
f 600 614 587
f 587 614 592
f 596 605 597
f 597 605 608
f 602 615 603
f 603 615 583
f 616 614 584
f 584 614 600
f 611 618 617
f 617 618 590
f 620 621 619
f 619 621 622
f 610 623 611
f 611 623 618
f 624 589 618
f 618 589 590
f 617 590 591
f 591 590 588
f 581 625 582
f 582 625 626
f 599 627 581
f 581 627 625
f 591 594 617
f 617 594 628
f 601 610 598
f 598 610 613
f 581 584 599
f 599 584 600
f 585 629 586
f 586 629 630
f 615 616 583
f 583 616 584
f 587 592 588
f 588 592 591
f 582 626 631
f 631 626 632
f 624 620 633
f 633 620 619
f 621 620 604
f 604 620 623
f 631 632 621
f 621 632 622
f 610 601 623
f 623 601 604
f 589 624 634
f 634 624 633
f 586 630 599
f 599 630 627
f 203 202 628
f 628 202 612
f 629 585 634
f 634 585 589
f 609 593 614
f 614 593 592
f 620 624 623
f 623 624 618
f 631 621 603
f 603 621 604
f 582 631 583
f 583 631 603
f 634 633 636
f 636 633 635
f 634 636 629
f 629 636 637
f 629 637 630
f 630 637 638
f 630 638 627
f 627 638 639
f 633 619 635
f 635 619 640
f 619 622 640
f 640 622 641
f 641 622 642
f 642 622 632
f 644 635 643
f 643 635 640
f 645 646 648
f 648 646 647
f 649 650 646
f 646 650 647
f 647 650 652
f 652 650 651
f 652 653 655
f 655 653 654
f 651 656 652
f 652 656 653
f 655 648 652
f 652 648 647
f 648 657 645
f 645 657 658
f 650 649 651
f 651 649 659
f 649 637 659
f 659 637 636
f 649 660 637
f 637 660 638
f 661 660 646
f 646 660 649
f 662 661 645
f 645 661 646
f 651 659 656
f 656 659 644
f 644 659 635
f 635 659 636
f 663 662 658
f 658 662 645
f 664 661 665
f 665 661 662
f 663 666 662
f 662 666 665
f 667 664 668
f 668 664 665
f 664 667 670
f 670 667 669
f 666 671 665
f 665 671 668
f 661 664 660
f 660 664 670
f 660 670 638
f 638 670 639
f 658 672 663
f 663 672 673
f 658 657 672
f 672 657 674
f 653 656 675
f 675 656 644
f 653 675 654
f 654 675 676
f 675 644 677
f 677 644 643
f 676 675 678
f 678 675 677
f 679 680 676
f 676 680 654
f 674 680 672
f 672 680 679
f 627 639 625
f 625 639 681
f 626 682 632
f 632 682 642
f 681 682 625
f 625 682 626
f 669 683 681
f 681 683 682
f 667 684 669
f 669 684 683
f 682 683 642
f 642 683 685
f 681 639 669
f 669 639 670
f 686 641 685
f 685 641 642
f 641 686 640
f 640 686 643
f 686 687 643
f 643 687 677
f 687 686 688
f 688 686 685
f 689 687 690
f 690 687 688
f 683 684 685
f 685 684 688
f 684 691 688
f 688 691 690
f 687 689 677
f 677 689 678
f 693 678 692
f 692 678 689
f 692 695 694
f 694 695 696
f 692 689 695
f 695 689 690
f 692 694 693
f 693 694 673
f 693 673 679
f 679 673 672
f 679 676 693
f 693 676 678
f 684 667 691
f 691 667 668
f 696 691 671
f 671 691 668
f 696 695 691
f 691 695 690
f 694 696 666
f 666 696 671
f 666 663 694
f 694 663 673
f 648 655 657
f 657 655 674
f 674 655 680
f 680 655 654
f 593 162 594
f 594 162 290
f 598 597 601
f 601 597 602
f 615 608 616
f 616 608 607
f 607 609 616
f 616 609 614
f 697 595 613
f 613 595 598
f 597 608 602
f 602 608 615
f 594 290 628
f 628 290 203
f 628 612 617
f 617 612 611
f 593 609 162
f 162 609 200
f 105 29 698
f 698 29 699
f 268 126 701
f 701 126 700
f 126 125 700
f 700 125 702
f 252 703 250
f 250 703 704
f 32 268 705
f 705 268 701
f 288 105 706
f 706 105 698
f 29 32 699
f 699 32 705
f 707 251 706
f 706 251 288
f 250 704 125
f 125 704 702
f 703 252 707
f 707 252 251
f 706 708 707
f 707 708 709
f 707 709 703
f 703 709 710
f 703 710 704
f 704 710 711
f 704 711 702
f 702 711 712
f 706 698 708
f 708 698 713
f 698 699 713
f 713 699 714
f 699 705 714
f 714 705 715
f 717 708 716
f 716 708 713
f 719 720 718
f 718 720 721
f 722 723 719
f 719 723 720
f 724 725 723
f 723 725 720
f 724 726 725
f 725 726 727
f 728 721 725
f 725 721 720
f 721 728 729
f 729 728 730
f 729 731 721
f 721 731 718
f 724 723 732
f 732 723 722
f 722 710 732
f 732 710 709
f 722 733 710
f 710 733 711
f 719 734 722
f 722 734 733
f 734 719 735
f 735 719 718
f 724 732 726
f 726 732 717
f 717 732 708
f 708 732 709
f 731 736 718
f 718 736 735
f 737 734 738
f 738 734 735
f 736 739 735
f 735 739 738
f 740 737 741
f 741 737 738
f 737 740 743
f 743 740 742
f 739 744 738
f 738 744 741
f 734 737 733
f 733 737 743
f 733 743 711
f 711 743 712
f 736 731 746
f 746 731 745
f 731 729 745
f 745 729 730
f 727 726 747
f 747 726 717
f 748 727 749
f 749 727 747
f 747 717 750
f 750 717 716
f 749 747 751
f 751 747 750
f 749 752 748
f 748 752 753
f 730 753 745
f 745 753 752
f 728 725 748
f 748 725 727
f 730 728 753
f 753 728 748
f 700 702 754
f 754 702 712
f 705 701 715
f 715 701 755
f 754 755 700
f 700 755 701
f 742 756 754
f 754 756 755
f 740 757 742
f 742 757 756
f 755 756 715
f 715 756 758
f 754 712 742
f 742 712 743
f 759 714 758
f 758 714 715
f 714 759 713
f 713 759 716
f 759 760 716
f 716 760 750
f 760 759 761
f 761 759 758
f 762 760 763
f 763 760 761
f 756 757 758
f 758 757 761
f 757 764 761
f 761 764 763
f 760 762 750
f 750 762 751
f 766 751 765
f 765 751 762
f 767 765 769
f 769 765 768
f 765 762 768
f 768 762 763
f 765 767 766
f 766 767 746
f 766 746 752
f 752 746 745
f 752 749 766
f 766 749 751
f 757 740 764
f 764 740 741
f 769 764 744
f 744 764 741
f 769 768 764
f 764 768 763
f 767 769 739
f 739 769 744
f 739 736 767
f 767 736 746
f 219 217 208
f 208 217 209
f 209 217 210
f 210 217 193
f 198 580 199
f 199 580 511
f 76 75 289
f 289 75 272
f 277 207 291
f 291 207 184
f 290 183 203
f 203 183 84
f 490 580 142
f 142 580 198
f 142 198 143
f 143 198 197
f 149 276 72
f 72 276 73
f 104 103 279
f 279 103 770
f 770 596 279
f 279 596 595
f 605 596 771
f 771 596 770
f 771 770 772
f 772 770 103
f 772 103 773
f 773 103 102
f 155 774 101
f 101 774 102
f 773 102 97
f 97 102 774
f 775 773 100
f 100 773 97
f 773 775 772
f 772 775 776
f 772 776 771
f 771 776 777
f 200 606 197
f 197 606 777
f 189 71 778
f 778 71 74
f 97 774 98
f 98 774 155
f 183 161 184
f 184 161 291
f 777 276 197
f 197 276 143
f 777 606 771
f 771 606 605
f 613 612 697
f 697 612 202
f 595 697 279
f 279 697 202
f 73 276 776
f 776 276 777
f 776 775 73
f 73 775 74
f 100 778 775
f 775 778 74
f 778 100 189
f 189 100 99
f 245 242 99
f 99 242 189
f 131 33 256
f 28 1 95
f 95 1 62
f 27 2 28
f 28 2 1
f 265 115 266
f 266 115 114
f 95 62 69
f 69 62 64
f 62 61 64
f 64 61 65
f 61 13 65
f 65 13 130
f 13 12 130
f 130 12 14
f 31 11 32
f 32 11 268
f 15 12 31
f 31 12 11
f 31 30 15
f 15 30 231
f 30 106 231
f 231 106 232
f 287 237 106
f 106 237 232
f 254 90 287
f 287 90 237
f 253 44 254
f 254 44 90
f 253 249 44
f 44 249 7
f 267 127 268
f 268 127 126
f 10 3 241
f 241 3 116
f 3 2 116
f 116 2 114
f 2 27 114
f 114 27 266
f 27 26 266
f 266 26 113
f 26 286 113
f 113 286 110
f 286 243 110
f 110 243 255
f 243 242 255
f 255 242 256
f 242 245 256
f 256 245 131
f 245 244 131
f 131 244 132
f 265 37 115
f 115 37 41
f 41 37 42
f 42 37 40
f 92 91 40
f 40 91 42
f 236 233 92
f 92 233 91
f 191 194 236
f 236 194 233
f 258 285 244
f 244 285 132
f 257 55 258
f 258 55 285
f 257 154 201
f 201 154 185
f 56 201 204
f 204 201 180
f 55 257 56
f 56 257 201
f 204 85 56
f 56 85 52
f 86 122 53
f 53 122 79
f 212 215 86
f 86 215 122
f 211 216 212
f 212 216 215
f 192 280 211
f 211 280 216
f 191 240 192
f 192 240 280
f 249 124 7
f 7 124 8
f 124 127 8
f 8 127 241
f 127 267 241
f 241 267 10
f 10 267 9
f 9 267 11
f 93 39 235
f 235 39 240
f 39 123 240
f 240 123 280
f 123 119 280
f 280 119 216
f 119 118 216
f 216 118 215
f 118 120 215
f 215 120 122
f 120 121 122
f 122 121 79
f 121 109 79
f 79 109 80

