# https://github.com/mikedh/trimesh
v -0.11595202 -0.07089312 -16.13386154 0.25098039 0.27450980 0.65882353
v -0.11172107 -0.07047537 -16.14561844 0.25098039 0.27450980 0.65882353
v -0.10475816 -0.07200576 -16.14026642 0.25098039 0.27450980 0.65882353
v -0.11042058 -0.07021140 -16.12743568 0.25098039 0.27450980 0.65882353
v -0.09299055 -0.06361294 -16.15970993 0.25098039 0.27450980 0.65882353
v -0.08881754 -0.05203431 -16.16067123 0.25098039 0.27450980 0.65882353
v -0.08345219 -0.05831950 -16.14968872 0.25098039 0.27450980 0.65882353
v -0.08792149 -0.06798500 -16.15104866 0.25098039 0.27450980 0.65882353
v -0.10736927 -0.06950274 -16.12207794 0.25098039 0.27450980 0.65882353
v -0.09997089 -0.07372770 -16.13464165 0.25098039 0.27450980 0.65882353
v -0.10689446 -0.06701600 -16.12005043 0.25098039 0.27450980 0.65882353
v -0.11969172 -0.05776031 -16.11039925 0.25098039 0.27450980 0.65882353
v -0.11678781 -0.06292093 -16.11294365 0.25098039 0.27450980 0.65882353
v -0.12695220 -0.05619838 -16.10389328 0.25098039 0.27450980 0.65882353
v -0.12538669 -0.04982630 -16.11421585 0.25098039 0.27450980 0.65882353
v -0.13622002 -0.05413282 -16.10480309 0.25098039 0.27450980 0.65882353
v -0.15052241 -0.05685006 -16.12973785 0.25098039 0.27450980 0.65882353
v -0.15562825 -0.06691839 -16.13820839 0.25098039 0.27450980 0.65882353
v -0.15936725 -0.07420459 -16.12346077 0.25098039 0.27450980 0.65882353
v -0.15347099 -0.06347276 -16.11623573 0.25098039 0.27450980 0.65882353
v -0.16117924 -0.08905155 -16.13959503 0.25098039 0.27450980 0.65882353
v -0.16078989 -0.08132133 -16.13003922 0.25098039 0.27450980 0.65882353
v -0.15778360 -0.07360422 -16.14492607 0.25098039 0.27450980 0.65882353
v -0.15818666 -0.08060528 -16.15274239 0.25098039 0.27450980 0.65882353
v -0.12246728 -0.07657479 -16.14533424 0.25098039 0.27450980 0.65882353
v -0.11922557 -0.07520290 -16.15519524 0.25098039 0.27450980 0.65882353
v -0.11826273 -0.07232010 -16.15178108 0.25098039 0.27450980 0.65882353
v -0.12080853 -0.07337108 -16.14188576 0.25098039 0.27450980 0.65882353
v -0.09542531 -0.06258676 -16.12014198 0.25098039 0.27450980 0.65882353
v -0.10646316 -0.05076836 -16.12262535 0.25098039 0.27450980 0.65882353
v -0.10855416 -0.05801766 -16.11949348 0.25098039 0.27450980 0.65882353
v -0.09558140 -0.06846504 -16.12195969 0.25098039 0.27450980 0.65882353
v -0.11020008 -0.07690573 -16.18160439 0.25098039 0.27450980 0.65882353
v -0.11393299 -0.06755681 -16.19217300 0.25098039 0.27450980 0.65882353
v -0.11207126 -0.06243017 -16.18941689 0.25098039 0.27450980 0.65882353
v -0.10988144 -0.07159127 -16.18021965 0.25098039 0.27450980 0.65882353
v -0.10104240 -0.04944306 -16.17551231 0.25098039 0.27450980 0.65882353
v -0.10660405 -0.04531854 -16.18215370 0.25098039 0.27450980 0.65882353
v -0.10965350 -0.03264586 -16.18270493 0.25098039 0.27450980 0.65882353
v -0.10584603 -0.03556817 -16.17368507 0.25098039 0.27450980 0.65882353
v -0.09431273 -0.05082853 -16.16787338 0.25098039 0.27450980 0.65882353
v -0.09767133 -0.03892016 -16.16523361 0.25098039 0.27450980 0.65882353
v -0.09107932 -0.04151622 -16.15629768 0.25098039 0.27450980 0.65882353
v -0.08378111 -0.04970865 -16.14490128 0.25098039 0.27450980 0.65882353
v -0.12092461 -0.07694638 -16.19780350 0.25098039 0.27450980 0.65882353
v -0.11906339 -0.08541964 -16.19159317 0.25098039 0.27450980 0.65882353
v -0.12211719 -0.08592281 -16.06879807 0.25098039 0.27450980 0.65882353
v -0.12365956 -0.09102909 -16.07179642 0.25098039 0.27450980 0.65882353
v -0.12475820 -0.08829122 -16.07453918 0.25098039 0.27450980 0.65882353
v -0.12325840 -0.08368191 -16.07107735 0.25098039 0.27450980 0.65882353
v -0.14054045 -0.08374585 -16.19833755 0.25098039 0.27450980 0.65882353
v -0.14938515 -0.07818334 -16.19664574 0.25098039 0.27450980 0.65882353
v -0.14685574 -0.07675236 -16.20302200 0.25098039 0.27450980 0.65882353
v -0.13790171 -0.08021054 -16.20420265 0.25098039 0.27450980 0.65882353
v -0.14397797 -0.08830379 -16.19024849 0.25098039 0.27450980 0.65882353
v -0.15200584 -0.08024794 -16.18733978 0.25098039 0.27450980 0.65882353
v -0.13033864 -0.08413924 -16.05942726 0.25098039 0.27450980 0.65882353
v -0.12587833 -0.08292457 -16.06146240 0.25098039 0.27450980 0.65882353
v -0.12861802 -0.07959320 -16.06348038 0.25098039 0.27450980 0.65882353
v -0.13366008 -0.08088983 -16.06238556 0.25098039 0.27450980 0.65882353
v -0.11632745 -0.06682055 -16.11742973 0.25098039 0.27450980 0.65882353
v -0.11867317 -0.07118983 -16.12404251 0.25098039 0.27450980 0.65882353
v -0.12323119 -0.07156145 -16.10080910 0.25098039 0.27450980 0.65882353
v -0.12286605 -0.07129230 -16.11017227 0.25098039 0.27450980 0.65882353
v -0.12093145 -0.06519743 -16.10855293 0.25098039 0.27450980 0.65882353
v -0.12234559 -0.06500386 -16.10058594 0.25098039 0.27450980 0.65882353
v -0.13036168 -0.08642013 -16.12678146 0.25098039 0.27450980 0.65882353
v -0.12725608 -0.08221982 -16.13701248 0.25098039 0.27450980 0.65882353
v -0.12590972 -0.07791065 -16.13226128 0.25098039 0.27450980 0.65882353
v -0.12747633 -0.08171805 -16.12009430 0.25098039 0.27450980 0.65882353
v -0.12947913 -0.09325756 -16.14589691 0.25098039 0.27450980 0.65882353
v -0.13271904 -0.09636541 -16.13531685 0.25098039 0.27450980 0.65882353
v -0.13395856 -0.10210244 -16.14204979 0.25098039 0.27450980 0.65882353
v -0.13047455 -0.09941997 -16.14818001 0.25098039 0.27450980 0.65882353
v -0.13669053 -0.09939587 -16.11517715 0.25098039 0.27450980 0.65882353
v -0.13977385 -0.10116075 -16.10869026 0.25098039 0.27450980 0.65882353
v -0.14018169 -0.10317241 -16.10926056 0.25098039 0.27450980 0.65882353
v -0.13751711 -0.10146642 -16.11762619 0.25098039 0.27450980 0.65882353
v -0.14534265 -0.07444549 -16.20916367 0.25098039 0.27450980 0.65882353
v -0.13567980 -0.07587121 -16.20930290 0.25098039 0.27450980 0.65882353
v -0.15996146 -0.10454644 -16.15518379 0.25098039 0.27450980 0.65882353
v -0.15331618 -0.10913094 -16.16289520 0.25098039 0.27450980 0.65882353
v -0.15559646 -0.11775032 -16.15326691 0.25098039 0.27450980 0.65882353
v -0.16315992 -0.11052465 -16.14699173 0.25098039 0.27450980 0.65882353
v -0.15441865 -0.06999224 -16.19135666 0.25098039 0.27450980 0.65882353
v -0.15366635 -0.06963319 -16.19874382 0.25098039 0.27450980 0.65882353
v -0.13474546 -0.08809940 -16.05985260 0.25098039 0.27450980 0.65882353
v -0.13792539 -0.08506931 -16.06306076 0.25098039 0.27450980 0.65882353
v -0.10167844 -0.03360610 -16.15083504 0.25098039 0.27450980 0.65882353
v -0.08995725 -0.04321876 -16.13836288 0.25098039 0.27450980 0.65882353
v -0.11007025 -0.02915748 -16.16278458 0.25098039 0.27450980 0.65882353
v -0.11684137 -0.02661330 -16.17155266 0.25098039 0.27450980 0.65882353
v -0.11981741 -0.02465149 -16.17999458 0.25098039 0.27450980 0.65882353
v -0.12529424 -0.07758349 -16.10935402 0.25098039 0.27450980 0.65882353
v -0.12181892 -0.07374161 -16.13203430 0.25098039 0.27450980 0.65882353
v -0.12348050 -0.08018877 -16.14834976 0.25098039 0.27450980 0.65882353
v -0.12837455 -0.10667557 -16.16413689 0.25098039 0.27450980 0.65882353
v -0.12486658 -0.10247808 -16.17287827 0.25098039 0.27450980 0.65882353
v -0.12181502 -0.09661122 -16.16407204 0.25098039 0.27450980 0.65882353
v -0.12611690 -0.10129593 -16.15818977 0.25098039 0.27450980 0.65882353
v -0.14458288 -0.11413888 -16.16404343 0.25098039 0.27450980 0.65882353
v -0.13719888 -0.11371019 -16.16009712 0.25098039 0.27450980 0.65882353
v -0.13967180 -0.11689518 -16.15379906 0.25098039 0.27450980 0.65882353
v -0.14717299 -0.11905018 -16.15599442 0.25098039 0.27450980 0.65882353
v -0.09073275 -0.05665191 -16.12057686 0.25098039 0.27450980 0.65882353
v -0.10424178 -0.04513568 -16.12563324 0.25098039 0.27450980 0.65882353
v -0.12995854 -0.08570691 -16.19696617 0.25098039 0.27450980 0.65882353
v -0.12801188 -0.07979107 -16.20135117 0.25098039 0.27450980 0.65882353
v -0.12824331 -0.07395647 -16.20799637 0.25098039 0.27450980 0.65882353
v -0.11353871 -0.07493009 -16.16798401 0.25098039 0.27450980 0.65882353
v -0.10941699 -0.06811032 -16.17947769 0.25098039 0.27450980 0.65882353
v -0.10823268 -0.06512711 -16.17742348 0.25098039 0.27450980 0.65882353
v -0.11424702 -0.07253729 -16.16646576 0.25098039 0.27450980 0.65882353
v -0.10644651 -0.06829599 -16.15850449 0.25098039 0.27450980 0.65882353
v -0.10067597 -0.06193639 -16.16776657 0.25098039 0.27450980 0.65882353
v -0.09915704 -0.07178120 -16.15269089 0.25098039 0.27450980 0.65882353
v -0.10989004 -0.05445164 -16.18713379 0.25098039 0.27450980 0.65882353
v -0.11179702 -0.05621600 -16.19802094 0.25098039 0.27450980 0.65882353
v -0.10992663 -0.04804710 -16.19428825 0.25098039 0.27450980 0.65882353
v -0.11626512 -0.06392020 -16.20252419 0.25098039 0.27450980 0.65882353
v -0.12209845 -0.07030044 -16.20547485 0.25098039 0.27450980 0.65882353
v -0.15508752 -0.06752217 -16.20622635 0.25098039 0.27450980 0.65882353
v -0.10928514 -0.04052036 -16.19011879 0.25098039 0.27450980 0.65882353
v -0.08532912 -0.07212722 -16.14445877 0.25098039 0.27450980 0.65882353
v -0.08202706 -0.07543977 -16.13826942 0.25098039 0.27450980 0.65882353
v -0.08841202 -0.07894128 -16.13360786 0.25098039 0.27450980 0.65882353
v -0.09194501 -0.07678408 -16.13981056 0.25098039 0.27450980 0.65882353
v -0.13162886 -0.05756062 -16.09562111 0.25098039 0.27450980 0.65882353
v -0.12492979 -0.06087362 -16.09752846 0.25098039 0.27450980 0.65882353
v -0.12160071 -0.05930277 -16.10651779 0.25098039 0.27450980 0.65882353
v -0.11408350 -0.08561045 -16.17568970 0.25098039 0.27450980 0.65882353
v -0.12111864 -0.09291191 -16.18477821 0.25098039 0.27450980 0.65882353
v -0.12651074 -0.07759567 -16.09993362 0.25098039 0.27450980 0.65882353
v -0.13597193 -0.07718316 -16.06622887 0.25098039 0.27450980 0.65882353
v -0.13013713 -0.07579261 -16.06714439 0.25098039 0.27450980 0.65882353
v -0.13120866 -0.06437109 -16.08211899 0.25098039 0.27450980 0.65882353
v -0.13845116 -0.06557976 -16.08053398 0.25098039 0.27450980 0.65882353
v -0.13512677 -0.08219472 -16.09405899 0.25098039 0.27450980 0.65882353
v -0.12884492 -0.07965635 -16.09592247 0.25098039 0.27450980 0.65882353
v -0.13047910 -0.08106740 -16.09447479 0.25098039 0.27450980 0.65882353
v -0.13586999 -0.08536237 -16.09269905 0.25098039 0.27450980 0.65882353
v -0.13900469 -0.10745867 -16.11766815 0.25098039 0.27450980 0.65882353
v -0.13755363 -0.10613041 -16.12496948 0.25098039 0.27450980 0.65882353
v -0.15348409 -0.07232279 -16.10305214 0.25098039 0.27450980 0.65882353
v -0.14927661 -0.05933542 -16.09970665 0.25098039 0.27450980 0.65882353
v -0.14625901 -0.05576656 -16.11053848 0.25098039 0.27450980 0.65882353
v -0.13161080 -0.09167536 -16.13219833 0.25098039 0.27450980 0.65882353
v -0.13398643 -0.09635845 -16.12333870 0.25098039 0.27450980 0.65882353
v -0.13521683 -0.09924267 -16.12617874 0.25098039 0.27450980 0.65882353
v -0.12780799 -0.08140272 -16.10746002 0.25098039 0.27450980 0.65882353
v -0.13017362 -0.08234115 -16.10000801 0.25098039 0.27450980 0.65882353
v -0.13098830 -0.08500339 -16.10439110 0.25098039 0.27450980 0.65882353
v -0.12963189 -0.08443509 -16.11159706 0.25098039 0.27450980 0.65882353
v -0.15105113 -0.10143977 -16.17336273 0.25098039 0.27450980 0.65882353
v -0.14095359 -0.10766894 -16.17429924 0.25098039 0.27450980 0.65882353
v -0.12293284 -0.08331752 -16.06496811 0.25098039 0.27450980 0.65882353
v -0.12478466 -0.08043194 -16.06697655 0.25098039 0.27450980 0.65882353
v -0.12871900 -0.08720703 -16.14203072 0.25098039 0.27450980 0.65882353
v -0.14243734 -0.05168002 -16.12299728 0.25098039 0.27450980 0.65882353
v -0.12421811 -0.08424133 -16.15167999 0.25098039 0.27450980 0.65882353
v -0.15877610 -0.10875247 -16.12942505 0.25098039 0.27450980 0.65882353
v -0.15105686 -0.11379884 -16.12947464 0.25098039 0.27450980 0.65882353
v -0.14939527 -0.11526398 -16.12509155 0.25098039 0.27450980 0.65882353
v -0.15561669 -0.11379978 -16.12330246 0.25098039 0.27450980 0.65882353
v -0.13540068 -0.09314406 -16.07985306 0.25098039 0.27450980 0.65882353
v -0.12948199 -0.09179834 -16.08013153 0.25098039 0.27450980 0.65882353
v -0.12882355 -0.09303512 -16.07620049 0.25098039 0.27450980 0.65882353
v -0.13434276 -0.09503040 -16.07517624 0.25098039 0.27450980 0.65882353
v -0.12525591 -0.07484253 -16.09555054 0.25098039 0.27450980 0.65882353
v -0.12366020 -0.06832708 -16.09423637 0.25098039 0.27450980 0.65882353
v -0.12402993 -0.07228712 -16.08990479 0.25098039 0.27450980 0.65882353
v -0.12682360 -0.07759623 -16.09232903 0.25098039 0.27450980 0.65882353
v -0.12664755 -0.06364257 -16.09076118 0.25098039 0.27450980 0.65882353
v -0.12577033 -0.06685949 -16.08599854 0.25098039 0.27450980 0.65882353
v -0.14111263 -0.09102851 -16.07658768 0.25098039 0.27450980 0.65882353
v -0.14334276 -0.08591550 -16.07125092 0.25098039 0.27450980 0.65882353
v -0.14680018 -0.07724693 -16.08532333 0.25098039 0.27450980 0.65882353
v -0.14260492 -0.08415860 -16.08831215 0.25098039 0.27450980 0.65882353
v -0.15699643 -0.07205113 -16.16524315 0.25098039 0.27450980 0.65882353
v -0.15702456 -0.08087768 -16.17222786 0.25098039 0.27450980 0.65882353
v -0.15881836 -0.08946590 -16.15987587 0.25098039 0.27450980 0.65882353
v -0.16151859 -0.09842122 -16.14798927 0.25098039 0.27450980 0.65882353
v -0.16253310 -0.10600781 -16.13665390 0.25098039 0.27450980 0.65882353
v -0.16449016 -0.09644631 -16.12949181 0.25098039 0.27450980 0.65882353
v -0.15712094 -0.09503381 -16.16601181 0.25098039 0.27450980 0.65882353
v -0.14363495 -0.08126613 -16.09572411 0.25098039 0.27450980 0.65882353
v -0.14850546 -0.07249954 -16.09460831 0.25098039 0.27450980 0.65882353
v -0.14966622 -0.07785016 -16.09757042 0.25098039 0.27450980 0.65882353
v -0.12429637 -0.09065014 -16.15573311 0.25098039 0.27450980 0.65882353
v -0.12536541 -0.07698154 -16.07021713 0.25098039 0.27450980 0.65882353
v -0.14037058 -0.03136098 -16.17462730 0.25098039 0.27450980 0.65882353
v -0.14995113 -0.04023185 -16.18015289 0.25098039 0.27450980 0.65882353
v -0.14814371 -0.04264730 -16.17211533 0.25098039 0.27450980 0.65882353
v -0.13716750 -0.03288771 -16.16541481 0.25098039 0.27450980 0.65882353
v -0.12431650 -0.08684455 -16.07812309 0.25098039 0.27450980 0.65882353
v -0.12234806 -0.08117700 -16.07464027 0.25098039 0.27450980 0.65882353
v -0.13786568 -0.11175254 -16.12848663 0.25098039 0.27450980 0.65882353
v -0.13926461 -0.11211964 -16.12170029 0.25098039 0.27450980 0.65882353
v -0.14176777 -0.11484565 -16.12305260 0.25098039 0.27450980 0.65882353
v -0.13862094 -0.11619045 -16.12947655 0.25098039 0.27450980 0.65882353
v -0.15558068 -0.08482371 -16.17692375 0.25098039 0.27450980 0.65882353
v -0.15141638 -0.12396184 -16.14779854 0.25098039 0.27450980 0.65882353
v -0.15953290 -0.11722422 -16.14152527 0.25098039 0.27450980 0.65882353
v -0.15523791 -0.07316639 -16.18265343 0.25098039 0.27450980 0.65882353
v -0.15618140 -0.06524071 -16.17663193 0.25098039 0.27450980 0.65882353
v -0.15626815 -0.06083447 -16.18508148 0.25098039 0.27450980 0.65882353
v -0.16153234 -0.08990490 -16.11493111 0.25098039 0.27450980 0.65882353
v -0.15607545 -0.06667494 -16.15842438 0.25098039 0.27450980 0.65882353
v -0.15450162 -0.06019036 -16.17105103 0.25098039 0.27450980 0.65882353
v -0.15457626 -0.05457877 -16.18070793 0.25098039 0.27450980 0.65882353
v -0.15571259 -0.05080479 -16.18775177 0.25098039 0.27450980 0.65882353
v -0.15664110 -0.05840365 -16.19180870 0.25098039 0.27450980 0.65882353
v -0.14061415 -0.08158509 -16.06756783 0.25098039 0.27450980 0.65882353
v -0.14075278 -0.09030998 -16.06636238 0.25098039 0.27450980 0.65882353
v -0.15832345 -0.05572889 -16.19949341 0.25098039 0.27450980 0.65882353
v -0.15645303 -0.04768135 -16.19468117 0.25098039 0.27450980 0.65882353
v -0.15186906 -0.05335612 -16.16477203 0.25098039 0.27450980 0.65882353
v -0.14732824 -0.04564252 -16.15709686 0.25098039 0.27450980 0.65882353
v -0.15342650 -0.05967958 -16.15272903 0.25098039 0.27450980 0.65882353
v -0.14941970 -0.05245759 -16.14436150 0.25098039 0.27450980 0.65882353
v -0.16221175 -0.07869659 -16.11146545 0.25098039 0.27450980 0.65882353
v -0.13112256 -0.10343182 -16.06021881 0.25098039 0.27450980 0.65882353
v -0.13676055 -0.09725933 -16.06720543 0.25098039 0.27450980 0.65882353
v -0.13277930 -0.09774736 -16.07143974 0.25098039 0.27450980 0.65882353
v -0.12926777 -0.10465414 -16.06411362 0.25098039 0.27450980 0.65882353
v -0.13900438 -0.09402212 -16.07171440 0.25098039 0.27450980 0.65882353
v -0.13772345 -0.09333318 -16.06306458 0.25098039 0.27450980 0.65882353
v -0.13863529 -0.04533582 -16.13574028 0.25098039 0.27450980 0.65882353
v -0.13403770 -0.08602253 -16.09829140 0.25098039 0.27450980 0.65882353
v -0.13250250 -0.03651113 -16.14823723 0.25098039 0.27450980 0.65882353
v -0.12421062 -0.04379971 -16.12439728 0.25098039 0.27450980 0.65882353
v -0.11833769 -0.03797111 -16.13373947 0.25098039 0.27450980 0.65882353
v -0.12438092 -0.02693508 -16.16110229 0.25098039 0.27450980 0.65882353
v -0.11453541 -0.03038447 -16.14687920 0.25098039 0.27450980 0.65882353
v -0.13049370 -0.02400040 -16.17934608 0.25098039 0.27450980 0.65882353
v -0.12888773 -0.02579286 -16.17027473 0.25098039 0.27450980 0.65882353
v -0.10288865 -0.03763153 -16.13562393 0.25098039 0.27450980 0.65882353
v -0.11817786 -0.09437061 -16.06545448 0.25098039 0.27450980 0.65882353
v -0.12096901 -0.09888072 -16.06843185 0.25098039 0.27450980 0.65882353
v -0.14150032 -0.02859814 -16.18240166 0.25098039 0.27450980 0.65882353
v -0.09460410 -0.07443766 -16.14524651 0.25098039 0.27450980 0.65882353
v -0.11919565 -0.08554419 -16.16369057 0.25098039 0.27450980 0.65882353
v -0.11920808 -0.08103442 -16.16019249 0.25098039 0.27450980 0.65882353
v -0.12359579 -0.09927436 -16.17806244 0.25098039 0.27450980 0.65882353
v -0.11877222 -0.09139825 -16.16906929 0.25098039 0.27450980 0.65882353
v -0.11816633 -0.09100831 -16.06101227 0.25098039 0.27450980 0.65882353
v -0.14533189 -0.10252462 -16.10500526 0.25098039 0.27450980 0.65882353
v -0.14626151 -0.10194555 -16.10608101 0.25098039 0.27450980 0.65882353
v -0.08033195 -0.06400291 -16.14422989 0.25098039 0.27450980 0.65882353
v -0.07762559 -0.06844855 -16.13920021 0.25098039 0.27450980 0.65882353
v -0.07784742 -0.05849633 -16.12910843 0.25098039 0.27450980 0.65882353
v -0.07565503 -0.06253906 -16.13520813 0.25098039 0.27450980 0.65882353
v -0.07942367 -0.05610591 -16.13983727 0.25098039 0.27450980 0.65882353
v -0.08262888 -0.05115598 -16.13378143 0.25098039 0.27450980 0.65882353
v -0.11289773 -0.07726802 -16.16893196 0.25098039 0.27450980 0.65882353
v -0.11338906 -0.08091618 -16.17092705 0.25098039 0.27450980 0.65882353
v -0.14718595 -0.09456393 -16.18250465 0.25098039 0.27450980 0.65882353
v -0.13705982 -0.10056505 -16.18228340 0.25098039 0.27450980 0.65882353
v -0.13248754 -0.06097781 -16.08877373 0.25098039 0.27450980 0.65882353
v -0.14045656 -0.05709919 -16.09517288 0.25098039 0.27450980 0.65882353
v -0.13980228 -0.06155854 -16.08807564 0.25098039 0.27450980 0.65882353
v -0.14450096 -0.06929094 -16.08311844 0.25098039 0.27450980 0.65882353
v -0.13883081 -0.08471290 -16.09490967 0.25098039 0.27450980 0.65882353
v -0.14211753 -0.08059374 -16.09353638 0.25098039 0.27450980 0.65882353
v -0.10515283 -0.06411991 -16.17215157 0.25098039 0.27450980 0.65882353
v -0.11251362 -0.06968787 -16.16259003 0.25098039 0.27450980 0.65882353
v -0.09697767 -0.07461207 -16.13145828 0.25098039 0.27450980 0.65882353
v -0.09346917 -0.07630213 -16.12700272 0.25098039 0.27450980 0.65882353
v -0.13172412 -0.08885726 -16.11818504 0.25098039 0.27450980 0.65882353
v -0.15807971 -0.09432488 -16.10462761 0.25098039 0.27450980 0.65882353
v -0.15819988 -0.08484311 -16.10181427 0.25098039 0.27450980 0.65882353
v -0.13410002 -0.09151271 -16.10989571 0.25098039 0.27450980 0.65882353
v -0.12368301 -0.09195389 -16.05428505 0.25098039 0.27450980 0.65882353
v -0.11997603 -0.09052982 -16.05752373 0.25098039 0.27450980 0.65882353
v -0.14605176 -0.06454551 -16.09066391 0.25098039 0.27450980 0.65882353
v -0.13513371 -0.10514627 -16.13250542 0.25098039 0.27450980 0.65882353
v -0.15936679 -0.09839645 -16.11089706 0.25098039 0.27450980 0.65882353
v -0.15370181 -0.10101283 -16.10423279 0.25098039 0.27450980 0.65882353
v -0.14518321 -0.12195130 -16.15177345 0.25098039 0.27450980 0.65882353
v -0.15027326 -0.03724097 -16.18794632 0.25098039 0.27450980 0.65882353
v -0.12751022 -0.09619012 -16.07332993 0.25098039 0.27450980 0.65882353
v -0.12487265 -0.10246148 -16.06889534 0.25098039 0.27450980 0.65882353
v -0.13152105 -0.10028164 -16.05710030 0.25098039 0.27450980 0.65882353
v -0.12914892 -0.09512461 -16.05438995 0.25098039 0.27450980 0.65882353
v -0.13243788 -0.09358698 -16.18889999 0.25098039 0.27450980 0.65882353
v -0.11944950 -0.07848720 -16.15773392 0.25098039 0.27450980 0.65882353
v -0.09287776 -0.04627773 -16.12886620 0.25098039 0.27450980 0.65882353
v -0.08377558 -0.05663111 -16.12375832 0.25098039 0.27450980 0.65882353
v -0.13597991 -0.09295386 -16.10533142 0.25098039 0.27450980 0.65882353
v -0.15652418 -0.11412949 -16.13424683 0.25098039 0.27450980 0.65882353
v -0.16216464 -0.10337206 -16.12252808 0.25098039 0.27450980 0.65882353
v -0.15996651 -0.11025654 -16.11558533 0.25098039 0.27450980 0.65882353
v -0.15833044 -0.10709819 -16.10786057 0.25098039 0.27450980 0.65882353
v -0.15240154 -0.10479689 -16.10346031 0.25098039 0.27450980 0.65882353
v -0.12785585 -0.10416020 -16.05537033 0.25098039 0.27450980 0.65882353
v -0.12550423 -0.09897716 -16.05263519 0.25098039 0.27450980 0.65882353
v -0.12029644 -0.09542693 -16.05278015 0.25098039 0.27450980 0.65882353
v -0.11733265 -0.09352066 -16.05592346 0.25098039 0.27450980 0.65882353
v -0.11656670 -0.09367532 -16.06027222 0.25098039 0.27450980 0.65882353
v -0.12717713 -0.10714991 -16.05881310 0.25098039 0.27450980 0.65882353
v -0.12549019 -0.10762635 -16.06249428 0.25098039 0.27450980 0.65882353
v -0.12328294 -0.10448019 -16.06737518 0.25098039 0.27450980 0.65882353
v -0.12313128 -0.10981666 -16.05925369 0.25098039 0.27450980 0.65882353
v -0.12104988 -0.10906161 -16.05437469 0.25098039 0.27450980 0.65882353
v -0.10854112 -0.10289928 -16.05340576 0.25098039 0.27450980 0.65882353
v -0.11390880 -0.10096996 -16.05198288 0.25098039 0.27450980 0.65882353
v -0.11324105 -0.10347494 -16.05166435 0.25098039 0.27450980 0.65882353
v -0.10899268 -0.10592730 -16.05242729 0.25098039 0.27450980 0.65882353
v -0.10541772 -0.10955346 -16.05264091 0.25098039 0.27450980 0.65882353
v -0.10437656 -0.10647546 -16.05384827 0.25098039 0.27450980 0.65882353
v -0.11755838 -0.10522741 -16.05197906 0.25098039 0.27450980 0.65882353
v -0.11228136 -0.10915036 -16.05272293 0.25098039 0.27450980 0.65882353
v -0.11452616 -0.11209650 -16.05477142 0.25098039 0.27450980 0.65882353
v -0.11004202 -0.11534066 -16.05450249 0.25098039 0.27450980 0.65882353
v -0.10789203 -0.11283458 -16.05264664 0.25098039 0.27450980 0.65882353
v -0.11803245 -0.10929301 -16.05383492 0.25098039 0.27450980 0.65882353
v -0.11961602 -0.10399306 -16.05142593 0.25098039 0.27450980 0.65882353
v -0.10258676 -0.11056690 -16.05433464 0.25098039 0.27450980 0.65882353
v -0.10381116 -0.11195186 -16.05272675 0.25098039 0.27450980 0.65882353
v -0.10543919 -0.11472978 -16.05320358 0.25098039 0.27450980 0.65882353
v -0.10337410 -0.11537257 -16.05512428 0.25098039 0.27450980 0.65882353
v -0.11386217 -0.09649788 -16.05571747 0.25098039 0.27450980 0.65882353
v -0.10754374 -0.10166880 -16.05552483 0.25098039 0.27450980 0.65882353
v -0.10398048 -0.10609758 -16.05695724 0.25098039 0.27450980 0.65882353
v -0.10236118 -0.11022676 -16.05713654 0.25098039 0.27450980 0.65882353
v -0.10701662 -0.10290314 -16.05945587 0.25098039 0.27450980 0.65882353
v -0.10459871 -0.10664248 -16.05984116 0.25098039 0.27450980 0.65882353
v -0.10351510 -0.11034027 -16.06021118 0.25098039 0.27450980 0.65882353
v -0.10775430 -0.10505142 -16.06321907 0.25098039 0.27450980 0.65882353
v -0.10564528 -0.10821550 -16.06248093 0.25098039 0.27450980 0.65882353
v -0.11546242 -0.09753597 -16.06368256 0.25098039 0.27450980 0.65882353
v -0.11468650 -0.09508961 -16.06019020 0.25098039 0.27450980 0.65882353
v -0.10439232 -0.11028241 -16.06220818 0.25098039 0.27450980 0.65882353
v -0.10336483 -0.11537251 -16.05727959 0.25098039 0.27450980 0.65882353
v -0.11709095 -0.11287319 -16.05733490 0.25098039 0.27450980 0.65882353
v -0.11087748 -0.11606309 -16.05760956 0.25098039 0.27450980 0.65882353
v -0.11734173 -0.11325463 -16.05972862 0.25098039 0.27450980 0.65882353
v -0.11141352 -0.11665214 -16.05984306 0.25098039 0.27450980 0.65882353
v -0.10703206 -0.11796194 -16.05669403 0.25098039 0.27450980 0.65882353
v -0.10737038 -0.11651762 -16.05469322 0.25098039 0.27450980 0.65882353
v -0.11779156 -0.09615779 -16.06479073 0.25098039 0.27450980 0.65882353
v -0.12074337 -0.10074923 -16.06765938 0.25098039 0.27450980 0.65882353
v -0.11880200 -0.10198711 -16.06693840 0.25098039 0.27450980 0.65882353
v -0.11043792 -0.10821453 -16.06575775 0.25098039 0.27450980 0.65882353
v -0.12087312 -0.10585645 -16.06685257 0.25098039 0.27450980 0.65882353
v -0.12167916 -0.10987315 -16.06283760 0.25098039 0.27450980 0.65882353
v -0.11598839 -0.11338823 -16.06237411 0.25098039 0.27450980 0.65882353
v -0.11398958 -0.11192340 -16.06491661 0.25098039 0.27450980 0.65882353
v -0.11116475 -0.11565132 -16.06214333 0.25098039 0.27450980 0.65882353
v -0.11006924 -0.11383371 -16.06360245 0.25098039 0.27450980 0.65882353
v -0.10751815 -0.11091897 -16.06415176 0.25098039 0.27450980 0.65882353
v -0.10725893 -0.11605917 -16.06135750 0.25098039 0.27450980 0.65882353
v -0.10717756 -0.11750264 -16.05878830 0.25098039 0.27450980 0.65882353
v -0.10428177 -0.11412751 -16.06028175 0.25098039 0.27450980 0.65882353
v -0.10760793 -0.11477856 -16.06274223 0.25098039 0.27450980 0.65882353
v -0.10557005 -0.11266620 -16.06205559 0.25098039 0.27450980 0.65882353
v -0.13074456 -0.10796905 -16.07833862 0.25098039 0.27450980 0.65882353
v -0.13211343 -0.11336687 -16.08242607 0.25098039 0.27450980 0.65882353
v -0.13526084 -0.11072982 -16.08261299 0.25098039 0.27450980 0.65882353
v -0.13379800 -0.10626349 -16.07924652 0.25098039 0.27450980 0.65882353
v -0.13930532 -0.10881799 -16.06669998 0.25098039 0.27450980 0.65882353
v -0.13445777 -0.10638626 -16.06997108 0.25098039 0.27450980 0.65882353
v -0.13872749 -0.10334799 -16.07067490 0.25098039 0.27450980 0.65882353
v -0.14467829 -0.10614531 -16.06878662 0.25098039 0.27450980 0.65882353
v -0.14429684 -0.11403230 -16.06831360 0.25098039 0.27450980 0.65882353
v -0.14946216 -0.11111732 -16.07084274 0.25098039 0.27450980 0.65882353
v -0.14766590 -0.10159262 -16.07187843 0.25098039 0.27450980 0.65882353
v -0.14100023 -0.09945764 -16.07387352 0.25098039 0.27450980 0.65882353
v -0.14414692 -0.08633223 -16.08977318 0.25098039 0.27450980 0.65882353
v -0.15125471 -0.08737118 -16.08855247 0.25098039 0.27450980 0.65882353
v -0.14052832 -0.10164164 -16.10239983 0.25098039 0.27450980 0.65882353
v -0.14466870 -0.10394654 -16.10161591 0.25098039 0.27450980 0.65882353
v -0.13166404 -0.10630550 -16.07457352 0.25098039 0.27450980 0.65882353
v -0.13522393 -0.10391178 -16.07507706 0.25098039 0.27450980 0.65882353
v -0.14216357 -0.11571249 -16.08796501 0.25098039 0.27450980 0.65882353
v -0.13715649 -0.11273106 -16.08788681 0.25098039 0.27450980 0.65882353
v -0.13700163 -0.11482715 -16.08518028 0.25098039 0.27450980 0.65882353
v -0.14148590 -0.11831918 -16.08434105 0.25098039 0.27450980 0.65882353
v -0.13703388 -0.09047296 -16.09592247 0.25098039 0.27450980 0.65882353
v -0.13849874 -0.09607336 -16.09991074 0.25098039 0.27450980 0.65882353
v -0.13944179 -0.08795333 -16.09263420 0.25098039 0.27450980 0.65882353
v -0.14849500 -0.11658736 -16.08514214 0.25098039 0.27450980 0.65882353
v -0.15306380 -0.11405581 -16.08035851 0.25098039 0.27450980 0.65882353
v -0.15802525 -0.10065459 -16.09510612 0.25098039 0.27450980 0.65882353
v -0.15348199 -0.10493100 -16.09854126 0.25098039 0.27450980 0.65882353
v -0.13634434 -0.10034540 -16.07721519 0.25098039 0.27450980 0.65882353
v -0.13394085 -0.10819441 -16.08489418 0.25098039 0.27450980 0.65882353
v -0.13327846 -0.10339209 -16.08132935 0.25098039 0.27450980 0.65882353
v -0.15246034 -0.10693829 -16.07519150 0.25098039 0.27450980 0.65882353
v -0.14916320 -0.11772014 -16.07582092 0.25098039 0.27450980 0.65882353
v -0.13215964 -0.12930918 -16.07431412 0.25098039 0.27450980 0.65882353
v -0.14163172 -0.12324136 -16.07836533 0.25098039 0.27450980 0.65882353
v -0.13807470 -0.12169380 -16.08231926 0.25098039 0.27450980 0.65882353
v -0.12918244 -0.12867749 -16.07881355 0.25098039 0.27450980 0.65882353
v -0.14575462 -0.11974227 -16.08088684 0.25098039 0.27450980 0.65882353
v -0.14410380 -0.12069616 -16.07326508 0.25098039 0.27450980 0.65882353
v -0.12025173 -0.11672534 -16.07678223 0.25098039 0.27450980 0.65882353
v -0.12227543 -0.12188326 -16.08075142 0.25098039 0.27450980 0.65882353
v -0.12030615 -0.11456885 -16.07225609 0.25098039 0.27450980 0.65882353
v -0.15683913 -0.09263963 -16.09107590 0.25098039 0.27450980 0.65882353
v -0.12770699 -0.11618894 -16.06419182 0.25098039 0.27450980 0.65882353
v -0.12254298 -0.11395088 -16.06822968 0.25098039 0.27450980 0.65882353
v -0.13469782 -0.11795667 -16.08448219 0.25098039 0.27450980 0.65882353
v -0.12536578 -0.12616289 -16.08135605 0.25098039 0.27450980 0.65882353
v -0.13346623 -0.12750004 -16.06999588 0.25098039 0.27450980 0.65882353
v -0.13316245 -0.12099398 -16.06513405 0.25098039 0.27450980 0.65882353
v -0.12822476 -0.13012269 -16.06899643 0.25098039 0.27450980 0.65882353
v -0.12677777 -0.12479699 -16.06454277 0.25098039 0.27450980 0.65882353
v -0.12195100 -0.11953340 -16.06397438 0.25098039 0.27450980 0.65882353
v -0.11870088 -0.11660309 -16.06832314 0.25098039 0.27450980 0.65882353
v -0.11800595 -0.11656471 -16.07242966 0.25098039 0.27450980 0.65882353
v -0.12724774 -0.13158396 -16.07334328 0.25098039 0.27450980 0.65882353
v -0.12524356 -0.13061915 -16.07779121 0.25098039 0.27450980 0.65882353
v -0.12319578 -0.12671715 -16.08058548 0.25098039 0.27450980 0.65882353
v -0.12096788 -0.13356672 -16.07534218 0.25098039 0.27450980 0.65882353
v -0.12013945 -0.13331194 -16.07066917 0.25098039 0.27450980 0.65882353
v -0.10290260 -0.12567662 -16.07062340 0.25098039 0.27450980 0.65882353
v -0.10805252 -0.12384582 -16.06832886 0.25098039 0.27450980 0.65882353
v -0.10863985 -0.12649748 -16.06789017 0.25098039 0.27450980 0.65882353
v -0.10387883 -0.12828034 -16.06982040 0.25098039 0.27450980 0.65882353
v -0.11362897 -0.12378256 -16.06533051 0.25098039 0.27450980 0.65882353
v -0.11289959 -0.12614958 -16.06609154 0.25098039 0.27450980 0.65882353
v -0.11618993 -0.12960351 -16.06697655 0.25098039 0.27450980 0.65882353
v -0.11076055 -0.13087720 -16.06935883 0.25098039 0.27450980 0.65882353
v -0.11336623 -0.13396171 -16.07231903 0.25098039 0.27450980 0.65882353
v -0.10831436 -0.13598537 -16.07354927 0.25098039 0.27450980 0.65882353
v -0.10552146 -0.13308766 -16.07065582 0.25098039 0.27450980 0.65882353
v -0.11663817 -0.13259226 -16.06973839 0.25098039 0.27450980 0.65882353
v -0.10128613 -0.13026023 -16.07125473 0.25098039 0.27450980 0.65882353
v -0.09976745 -0.12956329 -16.07316780 0.25098039 0.27450980 0.65882353
v -0.11884671 -0.12880909 -16.06529045 0.25098039 0.27450980 0.65882353
v -0.11517012 -0.11854159 -16.06806564 0.25098039 0.27450980 0.65882353
v -0.10734163 -0.12167582 -16.07069206 0.25098039 0.27450980 0.65882353
v -0.10231934 -0.12447615 -16.07371330 0.25098039 0.27450980 0.65882353
v -0.09977859 -0.12957209 -16.07621384 0.25098039 0.27450980 0.65882353
v -0.10728883 -0.12141144 -16.07517242 0.25098039 0.27450980 0.65882353
v -0.10279597 -0.12473087 -16.07699203 0.25098039 0.27450980 0.65882353
v -0.10112440 -0.12924570 -16.07856750 0.25098039 0.27450980 0.65882353
v -0.10836264 -0.12274262 -16.07990074 0.25098039 0.27450980 0.65882353
v -0.10414776 -0.12638871 -16.08076859 0.25098039 0.27450980 0.65882353
v -0.11728605 -0.11864740 -16.07727814 0.25098039 0.27450980 0.65882353
v -0.11569178 -0.11709510 -16.07280159 0.25098039 0.27450980 0.65882353
v -0.10274717 -0.12858674 -16.08026505 0.25098039 0.27450980 0.65882353
v -0.10048012 -0.13430852 -16.07397270 0.25098039 0.27450980 0.65882353
v -0.10032339 -0.13358524 -16.07725906 0.25098039 0.27450980 0.65882353
v -0.10176699 -0.13398615 -16.07265091 0.25098039 0.27450980 0.65882353
v -0.11434886 -0.13492239 -16.07410431 0.25098039 0.27450980 0.65882353
v -0.10847437 -0.13634960 -16.07582092 0.25098039 0.27450980 0.65882353
v -0.11476953 -0.13520357 -16.07701302 0.25098039 0.27450980 0.65882353
v -0.10814423 -0.13649750 -16.07824707 0.25098039 0.27450980 0.65882353
v -0.10391343 -0.13684148 -16.07604790 0.25098039 0.27450980 0.65882353
v -0.10385384 -0.13645232 -16.07445145 0.25098039 0.27450980 0.65882353
v -0.11900156 -0.11846988 -16.07648659 0.25098039 0.27450980 0.65882353
v -0.12120973 -0.12276468 -16.08000565 0.25098039 0.27450980 0.65882353
v -0.11992882 -0.12265646 -16.08080482 0.25098039 0.27450980 0.65882353
v -0.11089727 -0.12680638 -16.08272362 0.25098039 0.27450980 0.65882353
v -0.12189669 -0.12720701 -16.08126450 0.25098039 0.27450980 0.65882353
v -0.12126760 -0.13189773 -16.07872391 0.25098039 0.27450980 0.65882353
v -0.11489240 -0.13413239 -16.07981300 0.25098039 0.27450980 0.65882353
v -0.11321898 -0.13123205 -16.08246422 0.25098039 0.27450980 0.65882353
v -0.10853533 -0.13626981 -16.08046913 0.25098039 0.27450980 0.65882353
v -0.10914635 -0.13348424 -16.08219719 0.25098039 0.27450980 0.65882353
v -0.10652852 -0.12925023 -16.08275414 0.25098039 0.27450980 0.65882353
v -0.10397958 -0.13617964 -16.08009529 0.25098039 0.27450980 0.65882353
v -0.10364565 -0.13683462 -16.07779694 0.25098039 0.27450980 0.65882353
v -0.10126641 -0.13273033 -16.07908058 0.25098039 0.27450980 0.65882353
v -0.10538547 -0.13416974 -16.08173370 0.25098039 0.27450980 0.65882353
v -0.10324605 -0.13118309 -16.08113480 0.25098039 0.27450980 0.65882353
v -0.13266493 -0.12176108 -16.09557724 0.25098039 0.27450980 0.65882353
v -0.13134250 -0.12416410 -16.10118866 0.25098039 0.27450980 0.65882353
v -0.13356987 -0.12240519 -16.10234833 0.25098039 0.27450980 0.65882353
v -0.13501938 -0.11992708 -16.09686852 0.25098039 0.27450980 0.65882353
v -0.14224347 -0.12914139 -16.09062576 0.25098039 0.27450980 0.65882353
v -0.13871428 -0.12570754 -16.08960342 0.25098039 0.27450980 0.65882353
v -0.14198765 -0.12306807 -16.09119225 0.25098039 0.27450980 0.65882353
v -0.14659631 -0.12571903 -16.09253502 0.25098039 0.27450980 0.65882353
v -0.14247371 -0.13388357 -16.09403419 0.25098039 0.27450980 0.65882353
v -0.14852422 -0.12992662 -16.09690285 0.25098039 0.27450980 0.65882353
v -0.15082806 -0.12191981 -16.09459114 0.25098039 0.27450980 0.65882353
v -0.14495024 -0.11982549 -16.09292603 0.25098039 0.27450980 0.65882353
v -0.15075095 -0.10843748 -16.10148430 0.25098039 0.27450980 0.65882353
v -0.15674734 -0.11201625 -16.10319328 0.25098039 0.27450980 0.65882353
v -0.13547184 -0.12300218 -16.09190941 0.25098039 0.27450980 0.65882353
v -0.13795282 -0.12078094 -16.09317207 0.25098039 0.27450980 0.65882353
v -0.13666236 -0.12771127 -16.11063385 0.25098039 0.27450980 0.65882353
v -0.13392539 -0.12392569 -16.10823250 0.25098039 0.27450980 0.65882353
v -0.13401349 -0.12650236 -16.10658073 0.25098039 0.27450980 0.65882353
v -0.13635093 -0.12990613 -16.10823441 0.25098039 0.27450980 0.65882353
v -0.14096829 -0.10597168 -16.10805893 0.25098039 0.27450980 0.65882353
v -0.14077833 -0.10923311 -16.11406708 0.25098039 0.27450980 0.65882353
v -0.14452645 -0.10648784 -16.10349846 0.25098039 0.27450980 0.65882353
v -0.14292209 -0.13083346 -16.10990715 0.25098039 0.27450980 0.65882353
v -0.14996904 -0.13032804 -16.10621262 0.25098039 0.27450980 0.65882353
v -0.15426777 -0.12074172 -16.11647034 0.25098039 0.27450980 0.65882353
v -0.14814770 -0.11985422 -16.11947632 0.25098039 0.27450980 0.65882353
v -0.13991073 -0.11811999 -16.09430122 0.25098039 0.27450980 0.65882353
v -0.13348994 -0.11961155 -16.10377121 0.25098039 0.27450980 0.65882353
v -0.13534318 -0.11731801 -16.09802246 0.25098039 0.27450980 0.65882353
v -0.15248349 -0.12582278 -16.09980583 0.25098039 0.27450980 0.65882353
v -0.14565983 -0.13349327 -16.10273743 0.25098039 0.27450980 0.65882353
v -0.12681185 -0.14434239 -16.09839439 0.25098039 0.27450980 0.65882353
v -0.13843954 -0.13592079 -16.10527229 0.25098039 0.27450980 0.65882353
v -0.13403663 -0.13184738 -16.10700035 0.25098039 0.27450980 0.65882353
v -0.12387671 -0.14170013 -16.10087585 0.25098039 0.27450980 0.65882353
v -0.14070834 -0.13356288 -16.10719872 0.25098039 0.27450980 0.65882353
v -0.14183897 -0.13655007 -16.10031128 0.25098039 0.27450980 0.65882353
v -0.12056644 -0.13011533 -16.09173393 0.25098039 0.27450980 0.65882353
v -0.12030324 -0.13262227 -16.09719658 0.25098039 0.27450980 0.65882353
v -0.12355193 -0.13039818 -16.08819580 0.25098039 0.27450980 0.65882353
v -0.15879393 -0.11693542 -16.10923958 0.25098039 0.27450980 0.65882353
v -0.14227858 -0.11575967 -16.11955070 0.25098039 0.27450980 0.65882353
v -0.12816828 -0.13611406 -16.08501434 0.25098039 0.27450980 0.65882353
v -0.12560107 -0.13232318 -16.08588600 0.25098039 0.27450980 0.65882353
v -0.13204803 -0.12803827 -16.10541916 0.25098039 0.27450980 0.65882353
v -0.12142007 -0.13742566 -16.10089684 0.25098039 0.27450980 0.65882353
v -0.12985085 -0.14422877 -16.09421158 0.25098039 0.27450980 0.65882353
v -0.13119566 -0.14064161 -16.08847237 0.25098039 0.27450980 0.65882353
v -0.12425080 -0.14642854 -16.09338951 0.25098039 0.27450980 0.65882353
v -0.12508965 -0.14334381 -16.08761597 0.25098039 0.27450980 0.65882353
v -0.12245494 -0.13890278 -16.08432007 0.25098039 0.27450980 0.65882353
v -0.12064728 -0.13470650 -16.08537674 0.25098039 0.27450980 0.65882353
v -0.11924684 -0.13245301 -16.08772278 0.25098039 0.27450980 0.65882353
v -0.12180734 -0.14573348 -16.09785271 0.25098039 0.27450980 0.65882353
v -0.12003411 -0.14272621 -16.09999084 0.25098039 0.27450980 0.65882353
v -0.12024388 -0.13785821 -16.09985352 0.25098039 0.27450980 0.65882353
v -0.11759192 -0.14596571 -16.09856987 0.25098039 0.27450980 0.65882353
v -0.11724277 -0.14784583 -16.09313202 0.25098039 0.27450980 0.65882353
v -0.10328277 -0.14152327 -16.08645439 0.25098039 0.27450980 0.65882353
v -0.10883382 -0.14047617 -16.08584785 0.25098039 0.27450980 0.65882353
v -0.10903957 -0.14171243 -16.08628654 0.25098039 0.27450980 0.65882353
v -0.10352503 -0.14321494 -16.08654785 0.25098039 0.27450980 0.65882353
v -0.11535196 -0.14145511 -16.08484650 0.25098039 0.27450980 0.65882353
v -0.11394890 -0.14263842 -16.08567047 0.25098039 0.27450980 0.65882353
v -0.11556359 -0.14550251 -16.08796692 0.25098039 0.27450980 0.65882353
v -0.10939685 -0.14634934 -16.08881760 0.25098039 0.27450980 0.65882353
v -0.11063169 -0.14753512 -16.09479523 0.25098039 0.27450980 0.65882353
v -0.10562490 -0.14764473 -16.09438324 0.25098039 0.27450980 0.65882353
v -0.10414904 -0.14711291 -16.08901215 0.25098039 0.27450980 0.65882353
v -0.11542800 -0.14736140 -16.09231186 0.25098039 0.27450980 0.65882353
v -0.10082147 -0.14442836 -16.08751488 0.25098039 0.27450980 0.65882353
v -0.09951439 -0.14332777 -16.08654785 0.25098039 0.27450980 0.65882353
v -0.11794397 -0.14545488 -16.08747292 0.25098039 0.27450980 0.65882353
v -0.11547060 -0.13636167 -16.08459282 0.25098039 0.27450980 0.65882353
v -0.10817858 -0.13750964 -16.08579445 0.25098039 0.27450980 0.65882353
v -0.10245745 -0.13828427 -16.08646584 0.25098039 0.27450980 0.65882353
v -0.09914819 -0.14025840 -16.08855057 0.25098039 0.27450980 0.65882353
v -0.10770677 -0.13497490 -16.08871460 0.25098039 0.27450980 0.65882353
v -0.10276248 -0.13658072 -16.08914375 0.25098039 0.27450980 0.65882353
v -0.09964976 -0.13843024 -16.09083366 0.25098039 0.27450980 0.65882353
v -0.10761350 -0.13415483 -16.09212685 0.25098039 0.27450980 0.65882353
v -0.10332213 -0.13599387 -16.09243584 0.25098039 0.27450980 0.65882353
v -0.11664870 -0.13221711 -16.09142113 0.25098039 0.27450980 0.65882353
v -0.11596563 -0.13338038 -16.08740997 0.25098039 0.27450980 0.65882353
v -0.10085244 -0.13778070 -16.09275246 0.25098039 0.27450980 0.65882353
v -0.09910627 -0.14662871 -16.09005928 0.25098039 0.27450980 0.65882353
v -0.09815863 -0.14366937 -16.09297180 0.25098039 0.27450980 0.65882353
v -0.10083941 -0.14654508 -16.08977890 0.25098039 0.27450980 0.65882353
v -0.11135683 -0.14753963 -16.09667015 0.25098039 0.27450980 0.65882353
v -0.10491414 -0.14791816 -16.09669876 0.25098039 0.27450980 0.65882353
v -0.11130559 -0.14594613 -16.09923553 0.25098039 0.27450980 0.65882353
v -0.10492128 -0.14637950 -16.09893990 0.25098039 0.27450980 0.65882353
v -0.10126743 -0.14799167 -16.09460258 0.25098039 0.27450980 0.65882353
v -0.10191903 -0.14787018 -16.09363174 0.25098039 0.27450980 0.65882353
v -0.11896622 -0.13195805 -16.09176826 0.25098039 0.27450980 0.65882353
v -0.11926619 -0.13388398 -16.09675789 0.25098039 0.27450980 0.65882353
v -0.11738537 -0.13363737 -16.09632874 0.25098039 0.27450980 0.65882353
v -0.10778633 -0.13529196 -16.09700012 0.25098039 0.27450980 0.65882353
v -0.11829726 -0.13724032 -16.09976006 0.25098039 0.27450980 0.65882353
v -0.11617418 -0.14272478 -16.10034943 0.25098039 0.27450980 0.65882353
v -0.11037540 -0.14278179 -16.10039330 0.25098039 0.27450980 0.65882353
v -0.10874932 -0.13907576 -16.09989738 0.25098039 0.27450980 0.65882353
v -0.10479464 -0.14366665 -16.09992027 0.25098039 0.27450980 0.65882353
v -0.10518491 -0.14085500 -16.09927368 0.25098039 0.27450980 0.65882353
v -0.10357370 -0.13683432 -16.09661293 0.25098039 0.27450980 0.65882353
v -0.10140193 -0.14348453 -16.09750938 0.25098039 0.27450980 0.65882353
v -0.10089332 -0.14620785 -16.09660912 0.25098039 0.27450980 0.65882353
v -0.09903188 -0.14102030 -16.09446907 0.25098039 0.27450980 0.65882353
v -0.10208465 -0.14111510 -16.09785843 0.25098039 0.27450980 0.65882353
v -0.10040257 -0.13915819 -16.09548759 0.25098039 0.27450980 0.65882353
v -0.14088644 -0.11249622 -16.11776161 0.25098039 0.27450980 0.65882353
v -0.12719774 -0.12869848 -16.12308121 0.25098039 0.27450980 0.65882353
v -0.12570792 -0.12992027 -16.12690353 0.25098039 0.27450980 0.65882353
v -0.12841943 -0.12923622 -16.12898827 0.25098039 0.27450980 0.65882353
v -0.12991673 -0.12679148 -16.12559319 0.25098039 0.27450980 0.65882353
v -0.13552102 -0.13557318 -16.12018394 0.25098039 0.27450980 0.65882353
v -0.13267417 -0.13219750 -16.11911011 0.25098039 0.27450980 0.65882353
v -0.13625970 -0.12969029 -16.12107277 0.25098039 0.27450980 0.65882353
v -0.13902214 -0.13279663 -16.12207603 0.25098039 0.27450980 0.65882353
v -0.13579459 -0.13910788 -16.12353134 0.25098039 0.27450980 0.65882353
v -0.13932711 -0.13652599 -16.12561417 0.25098039 0.27450980 0.65882353
v -0.14225966 -0.13063881 -16.12305069 0.25098039 0.27450980 0.65882353
v -0.13892931 -0.12732995 -16.12217331 0.25098039 0.27450980 0.65882353
v -0.14647636 -0.11748923 -16.12800217 0.25098039 0.27450980 0.65882353
v -0.15112695 -0.12020862 -16.13060951 0.25098039 0.27450980 0.65882353
v -0.14154115 -0.12526278 -16.14794731 0.25098039 0.27450980 0.65882353
v -0.13786653 -0.12065771 -16.14666939 0.25098039 0.27450980 0.65882353
v -0.13493890 -0.12586039 -16.14219093 0.25098039 0.27450980 0.65882353
v -0.13877216 -0.12896010 -16.14436722 0.25098039 0.27450980 0.65882353
v -0.12973450 -0.12976630 -16.12036514 0.25098039 0.27450980 0.65882353
v -0.13249123 -0.12692173 -16.12233734 0.25098039 0.27450980 0.65882353
v -0.13251933 -0.13487858 -16.13742447 0.25098039 0.27450980 0.65882353
v -0.12985319 -0.13135515 -16.13511848 0.25098039 0.27450980 0.65882353
v -0.12821358 -0.13174963 -16.13273239 0.25098039 0.27450980 0.65882353
v -0.12957978 -0.13577481 -16.13522339 0.25098039 0.27450980 0.65882353
v -0.13615772 -0.11776882 -16.14151764 0.25098039 0.27450980 0.65882353
v -0.13712093 -0.11625003 -16.13605118 0.25098039 0.27450980 0.65882353
v -0.13501647 -0.11807357 -16.13451195 0.25098039 0.27450980 0.65882353
v -0.13335925 -0.12268531 -16.13767624 0.25098039 0.27450980 0.65882353
v -0.13863790 -0.11682394 -16.12983131 0.25098039 0.27450980 0.65882353
v -0.13602650 -0.13723753 -16.13669586 0.25098039 0.27450980 0.65882353
v -0.14046896 -0.13777608 -16.13273239 0.25098039 0.27450980 0.65882353
v -0.14965042 -0.13046682 -16.14190674 0.25098039 0.27450980 0.65882353
v -0.14459381 -0.13014200 -16.14453506 0.25098039 0.27450980 0.65882353
v -0.13459361 -0.12568940 -16.12273216 0.25098039 0.27450980 0.65882353
v -0.12934649 -0.12826779 -16.13105202 0.25098039 0.27450980 0.65882353
v -0.13067025 -0.12622276 -16.12666893 0.25098039 0.27450980 0.65882353
v -0.14335954 -0.13497019 -16.12690544 0.25098039 0.27450980 0.65882353
v -0.13676772 -0.13912377 -16.13075066 0.25098039 0.27450980 0.65882353
v -0.12233737 -0.14401181 -16.12855721 0.25098039 0.27450980 0.65882353
v -0.12972975 -0.13997453 -16.13315964 0.25098039 0.27450980 0.65882353
v -0.12629780 -0.13641018 -16.13335991 0.25098039 0.27450980 0.65882353
v -0.12030907 -0.14172472 -16.12865067 0.25098039 0.27450980 0.65882353
v -0.13305102 -0.13856040 -16.13459778 0.25098039 0.27450980 0.65882353
v -0.13332191 -0.14145036 -16.12887192 0.25098039 0.27450980 0.65882353
v -0.12024742 -0.13361742 -16.11897659 0.25098039 0.27450980 0.65882353
v -0.11904795 -0.13529506 -16.12399673 0.25098039 0.27450980 0.65882353
v -0.12241673 -0.13444750 -16.11661720 0.25098039 0.27450980 0.65882353
v -0.15305978 -0.12527540 -16.13565826 0.25098039 0.27450980 0.65882353
v -0.12732659 -0.14040768 -16.11616898 0.25098039 0.27450980 0.65882353
v -0.12462660 -0.13691106 -16.11511230 0.25098039 0.27450980 0.65882353
v -0.12528893 -0.13262168 -16.13041115 0.25098039 0.27450980 0.65882353
v -0.11917714 -0.13846633 -16.12721252 0.25098039 0.27450980 0.65882353
v -0.12537733 -0.14549664 -16.12586594 0.25098039 0.27450980 0.65882353
v -0.12834375 -0.14430638 -16.12034225 0.25098039 0.27450980 0.65882353
v -0.12149480 -0.14716530 -16.12370110 0.25098039 0.27450980 0.65882353
v -0.12484062 -0.14565173 -16.11838341 0.25098039 0.27450980 0.65882353
v -0.12348477 -0.14145973 -16.11421967 0.25098039 0.27450980 0.65882353
v -0.12195049 -0.13796428 -16.11411285 0.25098039 0.27450980 0.65882353
v -0.11998782 -0.13563555 -16.11531830 0.25098039 0.27450980 0.65882353
v -0.11867719 -0.14559826 -16.12646103 0.25098039 0.27450980 0.65882353
v -0.11701556 -0.14292732 -16.12684822 0.25098039 0.27450980 0.65882353
v -0.11650786 -0.13924135 -16.12591934 0.25098039 0.27450980 0.65882353
v -0.11503939 -0.14696124 -16.12429237 0.25098039 0.27450980 0.65882353
v -0.11668345 -0.14906922 -16.12026978 0.25098039 0.27450980 0.65882353
v -0.10963948 -0.14435299 -16.10976410 0.25098039 0.27450980 0.65882353
v -0.11330336 -0.14315982 -16.11090851 0.25098039 0.27450980 0.65882353
v -0.11363674 -0.14431964 -16.11118126 0.25098039 0.27450980 0.65882353
v -0.11007264 -0.14534131 -16.10936546 0.25098039 0.27450980 0.65882353
v -0.11835599 -0.14331269 -16.11261940 0.25098039 0.27450980 0.65882353
v -0.11745005 -0.14466369 -16.11289978 0.25098039 0.27450980 0.65882353
v -0.11839946 -0.14678253 -16.11562538 0.25098039 0.27450980 0.65882353
v -0.11392786 -0.14808719 -16.11323166 0.25098039 0.27450980 0.65882353
v -0.11161608 -0.15006939 -16.11778450 0.25098039 0.27450980 0.65882353
v -0.10822147 -0.15080349 -16.11552048 0.25098039 0.27450980 0.65882353
v -0.11065979 -0.14918876 -16.11161232 0.25098039 0.27450980 0.65882353
v -0.11610009 -0.14921673 -16.11822891 0.25098039 0.27450980 0.65882353
v -0.10804567 -0.14701867 -16.10870171 0.25098039 0.27450980 0.65882353
v -0.10697585 -0.14654368 -16.10822487 0.25098039 0.27450980 0.65882353
v -0.11999787 -0.14668053 -16.11608124 0.25098039 0.27450980 0.65882353
v -0.11818972 -0.13906892 -16.11268806 0.25098039 0.27450980 0.65882353
v -0.11199483 -0.14107960 -16.11062622 0.25098039 0.27450980 0.65882353
v -0.10778368 -0.14321724 -16.10932350 0.25098039 0.27450980 0.65882353
v -0.10520124 -0.14570636 -16.10930443 0.25098039 0.27450980 0.65882353
v -0.11144260 -0.13897589 -16.11217499 0.25098039 0.27450980 0.65882353
v -0.10652374 -0.14158189 -16.11048508 0.25098039 0.27450980 0.65882353
v -0.10404252 -0.14413460 -16.11070251 0.25098039 0.27450980 0.65882353
v -0.11019812 -0.13758376 -16.11503220 0.25098039 0.27450980 0.65882353
v -0.10597242 -0.14076036 -16.11290359 0.25098039 0.27450980 0.65882353
v -0.11583024 -0.13511980 -16.11782265 0.25098039 0.27450980 0.65882353
v -0.11704405 -0.13648966 -16.11460114 0.25098039 0.27450980 0.65882353
v -0.10431953 -0.14327034 -16.11223412 0.25098039 0.27450980 0.65882353
v -0.10600537 -0.14972261 -16.11010361 0.25098039 0.27450980 0.65882353
v -0.10398204 -0.14794105 -16.11128616 0.25098039 0.27450980 0.65882353
v -0.10731694 -0.15013021 -16.11030960 0.25098039 0.27450980 0.65882353
v -0.11112302 -0.14997707 -16.11923790 0.25098039 0.27450980 0.65882353
v -0.10698617 -0.15074179 -16.11652184 0.25098039 0.27450980 0.65882353
v -0.10993376 -0.14857283 -16.12118721 0.25098039 0.27450980 0.65882353
v -0.10558818 -0.14928356 -16.11751366 0.25098039 0.27450980 0.65882353
v -0.10524947 -0.15083963 -16.11347580 0.25098039 0.27450980 0.65882353
v -0.10691842 -0.15089172 -16.11301041 0.25098039 0.27450980 0.65882353
v -0.11761940 -0.13453844 -16.11844063 0.25098039 0.27450980 0.65882353
v -0.11689103 -0.13600695 -16.12273216 0.25098039 0.27450980 0.65882353
v -0.11480841 -0.13674220 -16.12191200 0.25098039 0.27450980 0.65882353
v -0.10908355 -0.13863206 -16.11878586 0.25098039 0.27450980 0.65882353
v -0.11427344 -0.14005035 -16.12490845 0.25098039 0.27450980 0.65882353
v -0.11443980 -0.14398032 -16.12541389 0.25098039 0.27450980 0.65882353
v -0.10897434 -0.14587528 -16.12184334 0.25098039 0.27450980 0.65882353
v -0.10836247 -0.14235546 -16.12133980 0.25098039 0.27450980 0.65882353
v -0.10460806 -0.14724863 -16.11775970 0.25098039 0.27450980 0.65882353
v -0.10452856 -0.14413692 -16.11765862 0.25098039 0.27450980 0.65882353
v -0.10500637 -0.14145207 -16.11590195 0.25098039 0.27450980 0.65882353
v -0.10329976 -0.14726730 -16.11435318 0.25098039 0.27450980 0.65882353
v -0.10368862 -0.14909747 -16.11391449 0.25098039 0.27450980 0.65882353
v -0.10337289 -0.14621483 -16.11241341 0.25098039 0.27450980 0.65882353
v -0.10333671 -0.14534026 -16.11484146 0.25098039 0.27450980 0.65882353
v -0.10362864 -0.14424998 -16.11371613 0.25098039 0.27450980 0.65882353
v -0.14495826 -0.12721343 -16.14636230 0.25098039 0.27450980 0.65882353
v -0.08073984 -0.06846032 -16.11405563 0.25098039 0.27450980 0.65882353
v -0.08487271 -0.07293217 -16.11431313 0.25098039 0.27450980 0.65882353
v -0.07857066 -0.08454534 -16.12699890 0.25098039 0.27450980 0.65882353
v -0.08375382 -0.08382539 -16.12091064 0.25098039 0.27450980 0.65882353
v -0.07271485 -0.08163854 -16.13016129 0.25098039 0.27450980 0.65882353
v -0.06821273 -0.07101523 -16.12720871 0.25098039 0.27450980 0.65882353
v -0.06970455 -0.07623187 -16.13058090 0.25098039 0.27450980 0.65882353
v -0.08604050 -0.07945351 -16.11641121 0.25098039 0.27450980 0.65882353
v -0.07554919 -0.06551696 -16.11653900 0.25098039 0.27450980 0.65882353
v -0.07018471 -0.06610922 -16.12205124 0.25098039 0.27450980 0.65882353
v -0.07221471 -0.06963217 -16.11025429 0.25098039 0.27450980 0.65882353
v -0.06610085 -0.07074778 -16.11577034 0.25098039 0.27450980 0.65882353
v -0.06325740 -0.07567194 -16.12060547 0.25098039 0.27450980 0.65882353
v -0.06586264 -0.08113453 -16.12497902 0.25098039 0.27450980 0.65882353
v -0.06912123 -0.08509811 -16.12596321 0.25098039 0.27450980 0.65882353
v -0.07865535 -0.07301616 -16.10946655 0.25098039 0.27450980 0.65882353
v -0.08263694 -0.07754557 -16.11041451 0.25098039 0.27450980 0.65882353
v -0.08381172 -0.08330925 -16.11449814 0.25098039 0.27450980 0.65882353
v -0.07714249 -0.07970764 -16.10516739 0.25098039 0.27450980 0.65882353
v -0.06890544 -0.08451369 -16.10163307 0.25098039 0.27450980 0.65882353
v -0.05621667 -0.09785128 -16.10530472 0.25098039 0.27450980 0.65882353
v -0.05835673 -0.09378141 -16.11003494 0.25098039 0.27450980 0.65882353
v -0.05836858 -0.09239104 -16.10740852 0.25098039 0.27450980 0.65882353
v -0.05583018 -0.09593455 -16.10337639 0.25098039 0.27450980 0.65882353
v -0.05973165 -0.08864258 -16.11123848 0.25098039 0.27450980 0.65882353
v -0.06015091 -0.08910947 -16.10881996 0.25098039 0.27450980 0.65882353
v -0.06314059 -0.08622985 -16.10558128 0.25098039 0.27450980 0.65882353
v -0.06078848 -0.08941166 -16.10214424 0.25098039 0.27450980 0.65882353
v -0.06671628 -0.08634448 -16.10185051 0.25098039 0.27450980 0.65882353
v -0.06639998 -0.08903210 -16.09929466 0.25098039 0.27450980 0.65882353
v -0.05882013 -0.09269899 -16.09860611 0.25098039 0.27450980 0.65882353
v -0.05496918 -0.09681971 -16.09965134 0.25098039 0.27450980 0.65882353
v -0.05730517 -0.09590404 -16.09567451 0.25098039 0.27450980 0.65882353
v -0.05588567 -0.09980416 -16.10042763 0.25098039 0.27450980 0.65882353
v -0.06233115 -0.08399151 -16.10549545 0.25098039 0.27450980 0.65882353
v -0.06177935 -0.08781068 -16.11820793 0.25098039 0.27450980 0.65882353
v -0.06004092 -0.09503198 -16.11327934 0.25098039 0.27450980 0.65882353
v -0.05857593 -0.10004714 -16.10742569 0.25098039 0.27450980 0.65882353
v -0.05815688 -0.10182730 -16.10147858 0.25098039 0.27450980 0.65882353
v -0.06379026 -0.09703113 -16.11483002 0.25098039 0.27450980 0.65882353
v -0.06273267 -0.10097227 -16.10864449 0.25098039 0.27450980 0.65882353
v -0.06284608 -0.10232221 -16.10300064 0.25098039 0.27450980 0.65882353
v -0.06864075 -0.09801962 -16.11404800 0.25098039 0.27450980 0.65882353
v -0.06670679 -0.10089977 -16.10792923 0.25098039 0.27450980 0.65882353
v -0.07340841 -0.08939985 -16.12202072 0.25098039 0.27450980 0.65882353
v -0.06681129 -0.08889808 -16.12249184 0.25098039 0.27450980 0.65882353
v -0.06544754 -0.10166067 -16.10390854 0.25098039 0.27450980 0.65882353
v -0.05798405 -0.09839104 -16.09484673 0.25098039 0.27450980 0.65882353
v -0.06074195 -0.10062419 -16.09599686 0.25098039 0.27450980 0.65882353
v -0.07000907 -0.08876076 -16.09855270 0.25098039 0.27450980 0.65882353
v -0.06429641 -0.09167622 -16.09545708 0.25098039 0.27450980 0.65882353
v -0.06745763 -0.09285098 -16.09526825 0.25098039 0.27450980 0.65882353
v -0.07397220 -0.08881921 -16.09954834 0.25098039 0.27450980 0.65882353
v -0.07002720 -0.09414585 -16.09574890 0.25098039 0.27450980 0.65882353
v -0.06329222 -0.09585425 -16.09334183 0.25098039 0.27450980 0.65882353
v -0.06130968 -0.09392487 -16.09428024 0.25098039 0.27450980 0.65882353
v -0.07519807 -0.08707753 -16.12456322 0.25098039 0.27450980 0.65882353
v -0.08082214 -0.08611629 -16.12030029 0.25098039 0.27450980 0.65882353
v -0.07908255 -0.08791555 -16.11792755 0.25098039 0.27450980 0.65882353
v -0.07437809 -0.09644794 -16.11074066 0.25098039 0.27450980 0.65882353
v -0.08201811 -0.08618128 -16.11230278 0.25098039 0.27450980 0.65882353
v -0.08060060 -0.08252517 -16.10733795 0.25098039 0.27450980 0.65882353
v -0.07657088 -0.09089318 -16.10156631 0.25098039 0.27450980 0.65882353
v -0.07718781 -0.09364238 -16.10573769 0.25098039 0.27450980 0.65882353
v -0.07185175 -0.09626393 -16.09822464 0.25098039 0.27450980 0.65882353
v -0.07206774 -0.09768392 -16.10106087 0.25098039 0.27450980 0.65882353
v -0.07004468 -0.10013470 -16.10503578 0.25098039 0.27450980 0.65882353
v -0.06778452 -0.09917969 -16.09699631 0.25098039 0.27450980 0.65882353
v -0.06586887 -0.09767517 -16.09430122 0.25098039 0.27450980 0.65882353
v -0.06450050 -0.10139816 -16.09868622 0.25098039 0.27450980 0.65882353
v -0.06898126 -0.09939882 -16.09955025 0.25098039 0.27450980 0.65882353
v -0.06698020 -0.10093280 -16.10134506 0.25098039 0.27450980 0.65882353
v -0.13896316 -0.11852006 -16.14972115 0.25098039 0.27450980 0.65882353
v -0.13641989 -0.11464865 -16.14446068 0.25098039 0.27450980 0.65882353
v -0.13644616 -0.11340195 -16.14975166 0.25098039 0.27450980 0.65882353
v -0.13277842 -0.11074296 -16.15633011 0.25098039 0.27450980 0.65882353
v -0.13357076 -0.10987749 -16.16660118 0.25098039 0.27450980 0.65882353
v -0.13098764 -0.10543144 -16.15184784 0.25098039 0.27450980 0.65882353
v -0.13511741 -0.10877681 -16.14507103 0.25098039 0.27450980 0.65882353
v -0.13597886 -0.11110194 -16.13678360 0.25098039 0.27450980 0.65882353
v -0.12684822 -0.09654337 -16.15398026 0.25098039 0.27450980 0.65882353
f 2 3 1
f 1 3 4
f 5 6 8
f 8 6 7
f 9 4 10
f 10 4 3
f 12 13 11
f 11 13 9
f 14 12 16
f 16 12 15
f 18 19 17
f 17 19 20
f 22 23 21
f 21 23 24
f 26 27 25
f 25 27 28
f 30 31 29
f 29 31 32
f 33 34 36
f 36 34 35
f 37 38 40
f 40 38 39
f 41 42 6
f 6 42 43
f 6 43 7
f 7 43 44
f 45 34 46
f 46 34 33
f 48 49 47
f 47 49 50
f 52 53 51
f 51 53 54
f 56 52 55
f 55 52 51
f 58 59 57
f 57 59 60
f 61 62 4
f 4 62 1
f 64 65 63
f 63 65 66
f 68 69 67
f 67 69 70
f 72 73 71
f 71 73 74
f 76 77 75
f 75 77 78
f 53 79 54
f 54 79 80
f 82 83 81
f 81 83 84
f 85 86 52
f 52 86 53
f 57 60 87
f 87 60 88
f 89 90 43
f 43 90 44
f 43 42 89
f 89 42 91
f 40 39 92
f 92 39 93
f 94 70 64
f 64 70 69
f 13 61 9
f 9 61 4
f 25 28 69
f 69 28 95
f 96 25 68
f 68 25 69
f 98 99 97
f 97 99 100
f 101 102 104
f 104 102 103
f 106 30 105
f 105 30 29
f 51 54 107
f 107 54 108
f 54 80 108
f 108 80 109
f 111 112 110
f 110 112 113
f 115 5 114
f 114 5 116
f 115 41 5
f 5 41 6
f 36 35 111
f 111 35 117
f 35 118 117
f 117 118 119
f 34 120 35
f 35 120 118
f 34 45 120
f 120 45 121
f 125 126 124
f 124 126 127
f 128 129 14
f 14 129 130
f 33 131 46
f 46 131 132
f 133 94 63
f 63 94 64
f 134 135 137
f 137 135 136
f 139 140 138
f 138 140 141
f 77 142 78
f 78 142 143
f 144 145 20
f 20 145 146
f 148 149 147
f 147 149 72
f 151 152 150
f 150 152 153
f 82 101 83
f 83 101 104
f 101 82 155
f 155 82 154
f 156 157 58
f 58 157 59
f 158 68 147
f 147 68 67
f 159 146 15
f 15 146 16
f 68 158 96
f 96 158 160
f 129 66 130
f 130 66 65
f 162 163 161
f 161 163 164
f 166 167 165
f 165 167 168
f 170 171 169
f 169 171 172
f 174 171 173
f 173 171 170
f 176 177 175
f 175 177 178
f 180 181 179
f 179 181 24
f 182 183 21
f 21 183 184
f 81 185 82
f 82 185 154
f 186 187 188
f 188 187 144
f 158 71 160
f 160 71 189
f 190 135 157
f 157 135 59
f 169 172 139
f 139 172 140
f 147 72 158
f 158 72 71
f 192 193 191
f 191 193 194
f 167 166 49
f 49 166 195
f 196 190 50
f 50 190 157
f 197 198 200
f 200 198 199
f 21 24 182
f 182 24 181
f 146 159 20
f 20 159 17
f 182 181 81
f 81 181 185
f 201 185 180
f 180 185 181
f 202 203 83
f 83 203 84
f 205 206 204
f 204 206 85
f 207 22 184
f 184 22 21
f 179 24 208
f 208 24 23
f 208 209 179
f 179 209 205
f 209 210 205
f 205 210 206
f 212 206 211
f 211 206 210
f 179 205 180
f 180 205 204
f 213 176 88
f 88 176 214
f 86 85 212
f 212 85 206
f 193 217 218
f 217 219 218
f 218 219 220
f 219 18 220
f 220 18 17
f 19 221 20
f 20 221 144
f 222 223 225
f 225 223 224
f 175 226 176
f 176 226 214
f 227 87 214
f 214 87 88
f 220 17 228
f 228 17 159
f 134 213 60
f 60 213 88
f 138 229 151
f 151 229 152
f 193 192 210
f 210 192 211
f 230 194 218
f 218 194 193
f 231 232 228
f 228 232 230
f 233 234 91
f 91 234 89
f 235 236 93
f 93 236 92
f 230 232 234
f 234 232 237
f 47 238 48
f 48 238 239
f 240 191 235
f 235 191 236
f 5 8 116
f 116 8 241
f 242 243 189
f 189 243 160
f 244 245 98
f 98 245 99
f 156 246 47
f 47 246 238
f 76 247 77
f 77 247 248
f 250 125 249
f 249 125 124
f 252 253 251
f 251 253 254
f 111 110 36
f 36 110 255
f 256 33 255
f 255 33 36
f 257 258 154
f 154 258 155
f 63 169 133
f 133 169 139
f 66 170 63
f 63 170 169
f 173 170 129
f 129 170 66
f 129 128 173
f 173 128 259
f 128 260 259
f 259 260 261
f 213 134 262
f 262 134 137
f 263 264 186
f 186 264 187
f 112 265 113
f 113 265 266
f 11 267 268
f 234 233 230
f 230 233 194
f 153 269 70
f 70 269 67
f 175 178 165
f 165 178 141
f 150 153 94
f 94 153 70
f 271 221 270
f 270 221 207
f 269 153 272
f 272 153 152
f 121 45 109
f 109 45 108
f 47 50 156
f 156 50 157
f 57 273 58
f 58 273 274
f 145 275 260
f 260 275 261
f 276 149 143
f 143 149 78
f 148 269 75
f 75 269 272
f 207 277 270
f 270 277 278
f 195 196 49
f 49 196 50
f 59 135 60
f 60 135 134
f 83 104 202
f 202 104 279
f 149 148 78
f 78 148 75
f 247 278 248
f 248 278 277
f 183 182 84
f 84 182 81
f 48 239 281
f 281 239 282
f 227 223 283
f 283 223 222
f 223 226 224
f 224 226 168
f 281 282 224
f 224 282 225
f 165 168 175
f 175 168 226
f 264 263 138
f 138 263 229
f 14 16 128
f 128 16 260
f 220 228 218
f 218 228 230
f 87 227 284
f 284 227 283
f 260 16 145
f 145 16 146
f 244 98 258
f 258 98 155
f 58 274 156
f 156 274 246
f 107 285 51
f 51 285 55
f 243 286 160
f 160 286 96
f 234 237 89
f 89 237 90
f 46 132 107
f 107 132 285
f 253 252 249
f 249 252 250
f 286 26 96
f 96 26 25
f 106 105 287
f 287 105 288
f 272 152 289
f 289 152 229
f 138 151 139
f 139 151 133
f 183 290 161
f 161 290 162
f 291 292 277
f 277 292 293
f 151 150 133
f 133 150 94
f 262 275 177
f 177 275 187
f 144 187 145
f 145 187 275
f 273 57 284
f 284 57 87
f 174 136 190
f 190 136 135
f 111 117 112
f 112 117 38
f 117 119 38
f 38 119 123
f 112 38 265
f 265 38 37
f 287 288 254
f 254 288 251
f 228 159 231
f 231 159 15
f 223 227 226
f 226 227 214
f 147 67 148
f 148 67 269
f 224 168 281
f 281 168 167
f 199 163 200
f 200 163 162
f 45 46 108
f 108 46 107
f 281 167 48
f 48 167 49
f 161 164 291
f 291 164 292
f 38 123 39
f 293 294 277
f 277 294 248
f 284 283 296
f 296 283 295
f 284 296 273
f 273 296 297
f 274 273 298
f 298 273 297
f 246 274 299
f 299 274 298
f 283 222 295
f 295 222 300
f 222 225 300
f 300 225 301
f 301 225 302
f 302 225 282
f 303 304 300
f 300 304 295
f 306 307 305
f 305 307 308
f 309 310 308
f 308 310 305
f 308 307 312
f 312 307 311
f 313 314 312
f 312 314 315
f 311 316 312
f 312 316 313
f 317 304 311
f 311 304 316
f 315 309 312
f 312 309 308
f 318 319 321
f 321 319 320
f 319 318 309
f 309 318 310
f 311 307 317
f 317 307 306
f 306 297 317
f 317 297 296
f 306 322 297
f 297 322 298
f 305 323 306
f 306 323 322
f 323 305 324
f 324 305 310
f 304 317 295
f 295 317 296
f 318 325 310
f 310 325 324
f 323 324 326
f 326 324 327
f 324 325 327
f 327 325 328
f 326 327 329
f 329 327 330
f 329 331 326
f 326 331 332
f 333 330 328
f 328 330 327
f 323 326 322
f 322 326 332
f 322 332 298
f 298 332 299
f 325 318 334
f 334 318 321
f 313 316 335
f 335 316 304
f 335 336 313
f 313 336 314
f 304 303 335
f 335 303 337
f 336 335 338
f 338 335 337
f 336 339 314
f 314 339 340
f 246 299 238
f 238 299 341
f 239 342 282
f 282 342 302
f 342 239 341
f 341 239 238
f 341 331 342
f 342 331 343
f 331 329 343
f 343 329 344
f 342 343 302
f 302 343 345
f 341 299 331
f 331 299 332
f 346 301 345
f 345 301 302
f 346 303 301
f 301 303 300
f 347 337 346
f 346 337 303
f 347 346 348
f 348 346 345
f 349 347 350
f 350 347 348
f 343 344 345
f 345 344 348
f 344 351 348
f 348 351 350
f 337 347 338
f 338 347 349
f 353 338 352
f 352 338 349
f 352 355 354
f 354 355 356
f 352 349 355
f 355 349 350
f 352 354 353
f 353 354 334
f 353 334 339
f 339 334 321
f 339 336 353
f 353 336 338
f 329 330 344
f 344 330 351
f 356 351 333
f 333 351 330
f 356 355 351
f 351 355 350
f 354 356 328
f 328 356 333
f 328 325 354
f 354 325 334
f 309 315 319
f 319 315 320
f 320 340 321
f 321 340 339
f 320 315 340
f 340 315 314
f 137 136 261
f 261 136 259
f 140 166 141
f 141 166 165
f 172 171 195
f 195 171 196
f 171 174 196
f 196 174 190
f 178 177 264
f 264 177 187
f 172 195 140
f 140 195 166
f 137 261 262
f 262 261 275
f 178 264 141
f 141 264 138
f 262 177 213
f 213 177 176
f 136 174 259
f 259 174 173
f 358 359 357
f 357 359 360
f 362 363 361
f 361 363 364
f 361 364 365
f 365 364 366
f 367 368 370
f 370 368 369
f 76 371 247
f 247 371 372
f 373 374 362
f 362 374 363
f 376 377 375
f 375 377 378
f 289 229 380
f 380 229 379
f 381 379 263
f 263 379 229
f 383 384 382
f 382 384 385
f 386 368 374
f 374 368 363
f 76 289 371
f 371 289 380
f 377 376 359
f 359 376 387
f 388 386 360
f 360 386 374
f 389 383 366
f 366 383 390
f 392 393 391
f 391 393 394
f 383 382 390
f 390 382 395
f 396 365 390
f 390 365 366
f 389 366 367
f 367 366 364
f 357 397 358
f 358 397 398
f 373 399 357
f 357 399 397
f 389 367 400
f 400 367 370
f 382 385 375
f 375 385 372
f 357 360 373
f 373 360 374
f 361 401 362
f 362 401 402
f 387 388 359
f 359 388 360
f 363 368 364
f 364 368 367
f 358 398 403
f 403 398 404
f 396 392 405
f 405 392 391
f 392 395 393
f 393 395 378
f 393 403 394
f 394 403 404
f 375 378 382
f 382 378 395
f 365 396 406
f 406 396 405
f 362 402 373
f 373 402 399
f 271 270 400
f 400 270 384
f 401 361 406
f 406 361 365
f 381 369 386
f 386 369 368
f 392 396 395
f 395 396 390
f 393 378 403
f 403 378 377
f 403 377 358
f 358 377 359
f 406 405 408
f 408 405 407
f 406 408 401
f 401 408 409
f 401 409 402
f 402 409 410
f 402 410 399
f 399 410 411
f 405 391 407
f 407 391 412
f 391 394 412
f 412 394 413
f 394 404 413
f 413 404 414
f 415 416 412
f 412 416 407
f 418 419 417
f 417 419 420
f 421 422 418
f 418 422 419
f 419 422 424
f 424 422 423
f 425 426 424
f 424 426 427
f 423 428 424
f 424 428 425
f 427 420 424
f 424 420 419
f 420 429 417
f 417 429 430
f 423 422 431
f 431 422 421
f 421 409 431
f 431 409 408
f 421 432 409
f 409 432 410
f 418 433 421
f 421 433 432
f 434 433 417
f 417 433 418
f 431 416 423
f 423 416 428
f 416 431 407
f 407 431 408
f 435 434 430
f 430 434 417
f 433 434 436
f 436 434 437
f 434 435 437
f 437 435 438
f 436 437 439
f 439 437 440
f 439 441 436
f 436 441 442
f 438 443 437
f 437 443 440
f 436 442 433
f 433 442 432
f 432 442 410
f 410 442 411
f 435 430 445
f 445 430 444
f 430 429 444
f 444 429 446
f 425 428 447
f 447 428 416
f 426 425 448
f 448 425 447
f 416 415 447
f 447 415 449
f 447 449 448
f 448 449 450
f 451 452 448
f 448 452 426
f 446 452 444
f 444 452 451
f 399 411 397
f 397 411 453
f 398 454 404
f 404 454 414
f 454 398 453
f 453 398 397
f 453 441 454
f 454 441 455
f 441 439 455
f 455 439 456
f 454 455 414
f 414 455 457
f 441 453 442
f 442 453 411
f 458 413 457
f 457 413 414
f 458 415 413
f 413 415 412
f 458 459 415
f 415 459 449
f 459 458 460
f 460 458 457
f 461 459 462
f 462 459 460
f 455 456 457
f 457 456 460
f 456 463 460
f 460 463 462
f 459 461 449
f 449 461 450
f 465 450 464
f 464 450 461
f 464 467 466
f 466 467 468
f 464 461 467
f 467 461 462
f 464 466 465
f 465 466 445
f 465 445 451
f 451 445 444
f 451 448 465
f 465 448 450
f 439 440 456
f 456 440 463
f 468 463 443
f 443 463 440
f 468 467 463
f 463 467 462
f 466 468 438
f 438 468 443
f 438 435 466
f 466 435 445
f 420 427 429
f 429 427 446
f 446 427 452
f 452 427 426
f 370 369 188
f 188 369 186
f 371 376 372
f 372 376 375
f 380 379 387
f 387 379 388
f 379 381 388
f 388 381 386
f 385 384 278
f 278 384 270
f 380 387 371
f 371 387 376
f 400 370 271
f 271 370 188
f 385 278 372
f 372 278 247
f 400 384 389
f 389 384 383
f 369 381 186
f 186 381 263
f 221 271 144
f 144 271 188
f 221 19 207
f 207 19 22
f 19 18 22
f 22 18 23
f 18 219 23
f 23 219 208
f 469 470 472
f 472 470 471
f 474 475 473
f 473 475 476
f 473 476 477
f 477 476 478
f 480 481 479
f 479 481 482
f 483 484 474
f 474 484 475
f 486 487 485
f 485 487 488
f 489 490 77
f 77 490 142
f 491 489 248
f 248 489 77
f 493 494 492
f 492 494 495
f 496 480 484
f 484 480 475
f 486 497 487
f 487 497 471
f 498 496 472
f 472 496 484
f 499 493 478
f 478 493 500
f 501 502 504
f 504 502 503
f 493 492 500
f 500 492 505
f 506 477 500
f 500 477 478
f 499 478 479
f 479 478 476
f 469 507 470
f 470 507 508
f 483 509 469
f 469 509 507
f 479 482 499
f 499 482 510
f 492 495 485
f 485 495 511
f 483 469 484
f 484 469 472
f 473 512 474
f 474 512 513
f 497 498 471
f 471 498 472
f 475 480 476
f 476 480 479
f 470 508 514
f 514 508 515
f 506 502 516
f 516 502 501
f 503 502 488
f 488 502 505
f 514 515 503
f 503 515 504
f 485 488 492
f 492 488 505
f 477 506 517
f 517 506 516
f 474 513 483
f 483 513 509
f 510 292 494
f 494 292 164
f 512 473 517
f 517 473 477
f 491 481 496
f 496 481 480
f 502 506 505
f 505 506 500
f 503 488 514
f 514 488 487
f 514 487 470
f 470 487 471
f 517 516 519
f 519 516 518
f 517 519 512
f 512 519 520
f 512 520 513
f 513 520 521
f 513 521 509
f 509 521 522
f 516 501 518
f 518 501 523
f 501 504 523
f 523 504 524
f 524 504 525
f 525 504 515
f 526 527 523
f 523 527 518
f 529 530 528
f 528 530 531
f 532 533 529
f 529 533 530
f 530 533 535
f 535 533 534
f 536 537 535
f 535 537 538
f 534 539 535
f 535 539 536
f 538 531 535
f 535 531 530
f 540 541 531
f 531 541 528
f 533 532 534
f 534 532 542
f 532 520 542
f 542 520 519
f 532 543 520
f 520 543 521
f 529 544 532
f 532 544 543
f 544 529 545
f 545 529 528
f 534 542 539
f 539 542 527
f 527 542 518
f 518 542 519
f 541 546 528
f 528 546 545
f 547 544 548
f 548 544 545
f 546 549 545
f 545 549 548
f 550 547 551
f 551 547 548
f 547 550 553
f 553 550 552
f 549 554 548
f 548 554 551
f 544 547 543
f 543 547 553
f 543 553 521
f 521 553 522
f 546 541 556
f 556 541 555
f 541 540 555
f 555 540 557
f 536 539 558
f 558 539 527
f 537 536 559
f 559 536 558
f 527 526 558
f 558 526 560
f 559 558 561
f 561 558 560
f 559 562 537
f 537 562 563
f 557 563 555
f 555 563 562
f 509 522 507
f 507 522 564
f 508 565 515
f 515 565 525
f 565 508 564
f 564 508 507
f 564 552 565
f 565 552 566
f 552 550 566
f 566 550 567
f 565 566 525
f 525 566 568
f 564 522 552
f 552 522 553
f 569 524 568
f 568 524 525
f 569 526 524
f 524 526 523
f 570 560 569
f 569 560 526
f 570 569 571
f 571 569 568
f 572 570 573
f 573 570 571
f 566 567 568
f 568 567 571
f 567 574 571
f 571 574 573
f 570 572 560
f 560 572 561
f 576 561 575
f 575 561 572
f 575 578 577
f 577 578 579
f 575 572 578
f 578 572 573
f 575 577 576
f 576 577 556
f 576 556 562
f 562 556 555
f 562 559 576
f 576 559 561
f 550 551 567
f 567 551 574
f 579 574 554
f 554 574 551
f 579 578 574
f 574 578 573
f 579 554 577
f 577 554 549
f 549 546 577
f 577 546 556
f 531 538 540
f 540 538 557
f 557 538 563
f 563 538 537
f 481 294 482
f 482 294 293
f 580 486 511
f 511 486 485
f 490 489 497
f 497 489 498
f 489 491 498
f 498 491 496
f 163 495 164
f 164 495 494
f 580 490 486
f 486 490 497
f 482 293 510
f 510 293 292
f 495 163 511
f 511 163 199
f 494 493 510
f 510 493 499
f 481 491 294
f 294 491 248
f 582 583 581
f 581 583 584
f 586 587 585
f 585 587 588
f 585 588 589
f 589 588 590
f 592 593 591
f 591 593 594
f 595 596 598
f 598 596 597
f 599 600 586
f 586 600 587
f 601 602 604
f 604 602 603
f 605 606 608
f 608 606 607
f 609 607 200
f 200 607 606
f 610 611 613
f 613 611 612
f 600 614 587
f 587 614 592
f 596 605 597
f 597 605 608
f 602 615 603
f 603 615 583
f 616 614 584
f 584 614 600
f 611 618 617
f 617 618 590
f 620 621 619
f 619 621 622
f 610 623 611
f 611 623 618
f 624 589 618
f 618 589 590
f 617 590 591
f 591 590 588
f 581 625 582
f 582 625 626
f 599 627 581
f 581 627 625
f 591 594 617
f 617 594 628
f 601 610 598
f 598 610 613
f 581 584 599
f 599 584 600
f 585 629 586
f 586 629 630
f 615 616 583
f 583 616 584
f 587 592 588
f 588 592 591
f 582 626 631
f 631 626 632
f 624 620 633
f 633 620 619
f 621 620 604
f 604 620 623
f 631 632 621
f 621 632 622
f 610 601 623
f 623 601 604
f 589 624 634
f 634 624 633
f 586 630 599
f 599 630 627
f 203 202 628
f 628 202 612
f 629 585 634
f 634 585 589
f 609 593 614
f 614 593 592
f 620 624 623
f 623 624 618
f 631 621 603
f 603 621 604
f 582 631 583
f 583 631 603
f 634 633 636
f 636 633 635
f 634 636 629
f 629 636 637
f 629 637 630
f 630 637 638
f 630 638 627
f 627 638 639
f 633 619 635
f 635 619 640
f 619 622 640
f 640 622 641
f 641 622 642
f 642 622 632
f 644 635 643
f 643 635 640
f 645 646 648
f 648 646 647
f 649 650 646
f 646 650 647
f 647 650 652
f 652 650 651
f 652 653 655
f 655 653 654
f 651 656 652
f 652 656 653
f 655 648 652
f 652 648 647
f 648 657 645
f 645 657 658
f 650 649 651
f 651 649 659
f 649 637 659
f 659 637 636
f 649 660 637
f 637 660 638
f 661 660 646
f 646 660 649
f 662 661 645
f 645 661 646
f 651 659 656
f 656 659 644
f 644 659 635
f 635 659 636
f 663 662 658
f 658 662 645
f 664 661 665
f 665 661 662
f 663 666 662
f 662 666 665
f 667 664 668
f 668 664 665
f 664 667 670
f 670 667 669
f 666 671 665
f 665 671 668
f 661 664 660
f 660 664 670
f 660 670 638
f 638 670 639
f 658 672 663
f 663 672 673
f 658 657 672
f 672 657 674
f 653 656 675
f 675 656 644
f 653 675 654
f 654 675 676
f 675 644 677
f 677 644 643
f 676 675 678
f 678 675 677
f 679 680 676
f 676 680 654
f 674 680 672
f 672 680 679
f 627 639 625
f 625 639 681
f 626 682 632
f 632 682 642
f 681 682 625
f 625 682 626
f 669 683 681
f 681 683 682
f 667 684 669
f 669 684 683
f 682 683 642
f 642 683 685
f 681 639 669
f 669 639 670
f 686 641 685
f 685 641 642
f 641 686 640
f 640 686 643
f 686 687 643
f 643 687 677
f 687 686 688
f 688 686 685
f 689 687 690
f 690 687 688
f 683 684 685
f 685 684 688
f 684 691 688
f 688 691 690
f 687 689 677
f 677 689 678
f 693 678 692
f 692 678 689
f 692 695 694
f 694 695 696
f 692 689 695
f 695 689 690
f 692 694 693
f 693 694 673
f 693 673 679
f 679 673 672
f 679 676 693
f 693 676 678
f 684 667 691
f 691 667 668
f 696 691 671
f 671 691 668
f 696 695 691
f 691 695 690
f 694 696 666
f 666 696 671
f 666 663 694
f 694 663 673
f 648 655 657
f 657 655 674
f 674 655 680
f 680 655 654
f 593 162 594
f 594 162 290
f 598 597 601
f 601 597 602
f 615 608 616
f 616 608 607
f 607 609 616
f 616 609 614
f 697 595 613
f 613 595 598
f 597 608 602
f 602 608 615
f 594 290 628
f 628 290 203
f 628 612 617
f 617 612 611
f 593 609 162
f 162 609 200
f 105 29 698
f 698 29 699
f 268 126 701
f 701 126 700
f 126 125 700
f 700 125 702
f 252 703 250
f 250 703 704
f 32 268 705
f 705 268 701
f 288 105 706
f 706 105 698
f 29 32 699
f 699 32 705
f 707 251 706
f 706 251 288
f 250 704 125
f 125 704 702
f 703 252 707
f 707 252 251
f 706 708 707
f 707 708 709
f 707 709 703
f 703 709 710
f 703 710 704
f 704 710 711
f 704 711 702
f 702 711 712
f 706 698 708
f 708 698 713
f 698 699 713
f 713 699 714
f 699 705 714
f 714 705 715
f 717 708 716
f 716 708 713
f 719 720 718
f 718 720 721
f 722 723 719
f 719 723 720
f 724 725 723
f 723 725 720
f 724 726 725
f 725 726 727
f 728 721 725
f 725 721 720
f 721 728 729
f 729 728 730
f 729 731 721
f 721 731 718
f 724 723 732
f 732 723 722
f 722 710 732
f 732 710 709
f 722 733 710
f 710 733 711
f 719 734 722
f 722 734 733
f 734 719 735
f 735 719 718
f 724 732 726
f 726 732 717
f 717 732 708
f 708 732 709
f 731 736 718
f 718 736 735
f 737 734 738
f 738 734 735
f 736 739 735
f 735 739 738
f 740 737 741
f 741 737 738
f 737 740 743
f 743 740 742
f 739 744 738
f 738 744 741
f 734 737 733
f 733 737 743
f 733 743 711
f 711 743 712
f 736 731 746
f 746 731 745
f 731 729 745
f 745 729 730
f 727 726 747
f 747 726 717
f 748 727 749
f 749 727 747
f 747 717 750
f 750 717 716
f 749 747 751
f 751 747 750
f 749 752 748
f 748 752 753
f 730 753 745
f 745 753 752
f 728 725 748
f 748 725 727
f 730 728 753
f 753 728 748
f 700 702 754
f 754 702 712
f 705 701 715
f 715 701 755
f 754 755 700
f 700 755 701
f 742 756 754
f 754 756 755
f 740 757 742
f 742 757 756
f 755 756 715
f 715 756 758
f 754 712 742
f 742 712 743
f 759 714 758
f 758 714 715
f 714 759 713
f 713 759 716
f 759 760 716
f 716 760 750
f 760 759 761
f 761 759 758
f 762 760 763
f 763 760 761
f 756 757 758
f 758 757 761
f 757 764 761
f 761 764 763
f 760 762 750
f 750 762 751
f 766 751 765
f 765 751 762
f 767 765 769
f 769 765 768
f 765 762 768
f 768 762 763
f 765 767 766
f 766 767 746
f 766 746 752
f 752 746 745
f 752 749 766
f 766 749 751
f 757 740 764
f 764 740 741
f 769 764 744
f 744 764 741
f 769 768 764
f 764 768 763
f 767 769 739
f 739 769 744
f 739 736 767
f 767 736 746
f 219 217 208
f 208 217 209
f 209 217 210
f 210 217 193
f 198 580 199
f 199 580 511
f 76 75 289
f 289 75 272
f 277 207 291
f 291 207 184
f 290 183 203
f 203 183 84
f 490 580 142
f 142 580 198
f 142 198 143
f 143 198 197
f 149 276 72
f 72 276 73
f 104 103 279
f 279 103 770
f 770 596 279
f 279 596 595
f 605 596 771
f 771 596 770
f 771 770 772
f 772 770 103
f 772 103 773
f 773 103 102
f 155 774 101
f 101 774 102
f 773 102 97
f 97 102 774
f 775 773 100
f 100 773 97
f 773 775 772
f 772 775 776
f 772 776 771
f 771 776 777
f 200 606 197
f 197 606 777
f 189 71 778
f 778 71 74
f 97 774 98
f 98 774 155
f 183 161 184
f 184 161 291
f 777 276 197
f 197 276 143
f 777 606 771
f 771 606 605
f 613 612 697
f 697 612 202
f 595 697 279
f 279 697 202
f 73 276 776
f 776 276 777
f 776 775 73
f 73 775 74
f 100 778 775
f 775 778 74
f 778 100 189
f 189 100 99
f 245 242 99
f 99 242 189
f 131 33 256
f 28 1 95
f 95 1 62
f 27 2 28
f 28 2 1
f 265 115 266
f 266 115 114
f 95 62 69
f 69 62 64
f 62 61 64
f 64 61 65
f 61 13 65
f 65 13 130
f 13 12 130
f 130 12 14
f 31 11 32
f 32 11 268
f 15 12 31
f 31 12 11
f 31 30 15
f 15 30 231
f 30 106 231
f 231 106 232
f 287 237 106
f 106 237 232
f 254 90 287
f 287 90 237
f 253 44 254
f 254 44 90
f 253 249 44
f 44 249 7
f 267 127 268
f 268 127 126
f 10 3 241
f 241 3 116
f 3 2 116
f 116 2 114
f 2 27 114
f 114 27 266
f 27 26 266
f 266 26 113
f 26 286 113
f 113 286 110
f 286 243 110
f 110 243 255
f 243 242 255
f 255 242 256
f 242 245 256
f 256 245 131
f 245 244 131
f 131 244 132
f 265 37 115
f 115 37 41
f 41 37 42
f 42 37 40
f 92 91 40
f 40 91 42
f 236 233 92
f 92 233 91
f 191 194 236
f 236 194 233
f 258 285 244
f 244 285 132
f 257 55 258
f 258 55 285
f 257 154 201
f 201 154 185
f 56 201 204
f 204 201 180
f 55 257 56
f 56 257 201
f 204 85 56
f 56 85 52
f 86 122 53
f 53 122 79
f 212 215 86
f 86 215 122
f 211 216 212
f 212 216 215
f 192 280 211
f 211 280 216
f 191 240 192
f 192 240 280
f 249 124 7
f 7 124 8
f 124 127 8
f 8 127 241
f 127 267 241
f 241 267 10
f 10 267 9
f 9 267 11
f 93 39 235
f 235 39 240
f 39 123 240
f 240 123 280
f 123 119 280
f 280 119 216
f 119 118 216
f 216 118 215
f 118 120 215
f 215 120 122
f 120 121 122
f 122 121 79
f 121 109 79
f 79 109 80

