# https://github.com/mikedh/trimesh
v -0.15312640 0.14365152 -15.82023716 0.25098039 0.27450980 0.65882353
v -0.15311542 0.15166618 -15.82800579 0.25098039 0.27450980 0.65882353
v -0.14748396 0.14368165 -15.82743931 0.25098039 0.27450980 0.65882353
v -0.14653760 0.13744435 -15.81830788 0.25098039 0.27450980 0.65882353
v -0.14186794 0.15636803 -15.84558487 0.25098039 0.27450980 0.65882353
v -0.13190986 0.16360818 -15.84653187 0.25098039 0.27450980 0.65882353
v -0.12760141 0.14901261 -15.84350014 0.25098039 0.27450980 0.65882353
v -0.13702747 0.14453401 -15.84372234 0.25098039 0.27450980 0.65882353
v -0.14175503 0.13258198 -15.81512260 0.25098039 0.27450980 0.65882353
v -0.14304808 0.13663095 -15.82650471 0.25098039 0.27450980 0.65882353
v -0.13873006 0.13273704 -15.81167984 0.25098039 0.27450980 0.65882353
v -0.13971138 0.13373877 -15.79674244 0.25098039 0.27450980 0.65882353
v -0.14188720 0.13128074 -15.80345345 0.25098039 0.27450980 0.65882353
v -0.14242876 0.13066098 -15.78901958 0.25098039 0.27450980 0.65882353
v -0.14023186 0.14370105 -15.79182339 0.25098039 0.27450980 0.65882353
v -0.14801788 0.13460781 -15.78203869 0.25098039 0.27450980 0.65882353
v -0.16786918 0.15604678 -15.79026413 0.25098039 0.27450980 0.65882353
v -0.18064338 0.15782866 -15.79634380 0.25098039 0.27450980 0.65882353
v -0.18401688 0.14241612 -15.78839779 0.25098039 0.27450980 0.65882353
v -0.17050001 0.14160600 -15.78353977 0.25098039 0.27450980 0.65882353
v -0.19914673 0.14737180 -15.80360031 0.25098039 0.27450980 0.65882353
v -0.19118825 0.14399204 -15.79479980 0.25098039 0.27450980 0.65882353
v -0.18831706 0.15984544 -15.80171871 0.25098039 0.27450980 0.65882353
v -0.19543704 0.16210482 -15.80918312 0.25098039 0.27450980 0.65882353
v -0.16558558 0.15087768 -15.82656860 0.25098039 0.27450980 0.65882353
v -0.16507448 0.15923838 -15.83331394 0.25098039 0.27450980 0.65882353
v -0.16085130 0.15780666 -15.83007050 0.25098039 0.27450980 0.65882353
v -0.16093159 0.14958382 -15.82393456 0.25098039 0.27450980 0.65882353
v -0.12779187 0.13401410 -15.81502438 0.25098039 0.27450980 0.65882353
v -0.12968686 0.14584151 -15.80735016 0.25098039 0.27450980 0.65882353
v -0.13444401 0.13907894 -15.80658913 0.25098039 0.27450980 0.65882353
v -0.13171826 0.13060224 -15.81795406 0.25098039 0.27450980 0.65882353
v -0.16831562 0.17702858 -15.85604763 0.25098039 0.27450980 0.65882353
v -0.16759196 0.19119966 -15.85579586 0.25098039 0.27450980 0.65882353
v -0.16219884 0.19160369 -15.85306835 0.25098039 0.27450980 0.65882353
v -0.16425377 0.17883971 -15.85319901 0.25098039 0.27450980 0.65882353
v -0.14203617 0.18417983 -15.84726810 0.25098039 0.27450980 0.65882353
v -0.14527911 0.19414589 -15.84528351 0.25098039 0.27450980 0.65882353
v -0.13905996 0.20319971 -15.83735561 0.25098039 0.27450980 0.65882353
v -0.13523984 0.19342843 -15.83597851 0.25098039 0.27450980 0.65882353
v -0.13673005 0.17336036 -15.84745407 0.25098039 0.27450980 0.65882353
v -0.12945673 0.18146139 -15.83883572 0.25098039 0.27450980 0.65882353
v -0.12477125 0.16946861 -15.83928013 0.25098039 0.27450980 0.65882353
v -0.12097178 0.15321620 -15.83772850 0.25098039 0.27450980 0.65882353
v -0.18024163 0.19183117 -15.85901642 0.25098039 0.27450980 0.65882353
v -0.18265730 0.18159728 -15.86029148 0.25098039 0.27450980 0.65882353
v -0.14609376 0.08554813 -15.80024815 0.25098039 0.27450980 0.65882353
v -0.15125331 0.08529084 -15.80341339 0.25098039 0.27450980 0.65882353
v -0.15140691 0.08953665 -15.80197144 0.25098039 0.27450980 0.65882353
v -0.14635022 0.08892161 -15.79877853 0.25098039 0.27450980 0.65882353
v -0.19826245 0.19220085 -15.84876728 0.25098039 0.27450980 0.65882353
v -0.20066884 0.19618279 -15.83939266 0.25098039 0.27450980 0.65882353
v -0.19984907 0.20169824 -15.84402275 0.25098039 0.27450980 0.65882353
v -0.19581977 0.19847336 -15.85219193 0.25098039 0.27450980 0.65882353
v -0.20136884 0.18382517 -15.84416485 0.25098039 0.27450980 0.65882353
v -0.20109835 0.18810020 -15.83327198 0.25098039 0.27450980 0.65882353
v -0.14727741 0.07858327 -15.78940010 0.25098039 0.27450980 0.65882353
v -0.14411402 0.08098231 -15.79273129 0.25098039 0.27450980 0.65882353
v -0.14492005 0.08463490 -15.78946781 0.25098039 0.27450980 0.65882353
v -0.14882949 0.08294271 -15.78638268 0.25098039 0.27450980 0.65882353
v -0.14600536 0.13242702 -15.80942535 0.25098039 0.27450980 0.65882353
v -0.15289959 0.13589087 -15.81430721 0.25098039 0.27450980 0.65882353
v -0.14999919 0.11985804 -15.79969978 0.25098039 0.27450980 0.65882353
v -0.15217018 0.12595320 -15.80443287 0.25098039 0.27450980 0.65882353
v -0.14609967 0.12758002 -15.80149364 0.25098039 0.27450980 0.65882353
v -0.14497215 0.12261928 -15.79686928 0.25098039 0.27450980 0.65882353
v -0.17239179 0.13205975 -15.81582260 0.25098039 0.27450980 0.65882353
v -0.17041270 0.14200784 -15.82155609 0.25098039 0.27450980 0.65882353
v -0.16510698 0.14024290 -15.81783962 0.25098039 0.27450980 0.65882353
v -0.16531995 0.12885198 -15.81175518 0.25098039 0.27450980 0.65882353
v -0.18175396 0.14293820 -15.83049965 0.25098039 0.27450980 0.65882353
v -0.18300909 0.13335353 -15.82382870 0.25098039 0.27450980 0.65882353
v -0.18944588 0.13525693 -15.82964993 0.25098039 0.27450980 0.65882353
v -0.18703698 0.14112115 -15.83415031 0.25098039 0.27450980 0.65882353
v -0.18220726 0.11724149 -15.81096363 0.25098039 0.27450980 0.65882353
v -0.18305942 0.11235026 -15.80692673 0.25098039 0.27450980 0.65882353
v -0.18492489 0.11141940 -15.80846691 0.25098039 0.27450980 0.65882353
v -0.18490516 0.11798319 -15.81315994 0.25098039 0.27450980 0.65882353
v -0.19903104 0.20774165 -15.84752369 0.25098039 0.27450980 0.65882353
v -0.19287625 0.20466554 -15.85470676 0.25098039 0.27450980 0.65882353
v -0.21300174 0.15014365 -15.82084465 0.25098039 0.27450980 0.65882353
v -0.21387041 0.15179545 -15.83210087 0.25098039 0.27450980 0.65882353
v -0.21832490 0.13935497 -15.82872486 0.25098039 0.27450980 0.65882353
v -0.21667564 0.14090301 -15.81677246 0.25098039 0.27450980 0.65882353
v -0.19743797 0.19807312 -15.82921219 0.25098039 0.27450980 0.65882353
v -0.19891253 0.20415150 -15.83380222 0.25098039 0.27450980 0.65882353
v -0.15305416 0.07670988 -15.78878784 0.25098039 0.27450980 0.65882353
v -0.15471205 0.08143191 -15.78634739 0.25098039 0.27450980 0.65882353
v -0.12427992 0.17594910 -15.82597733 0.25098039 0.27450980 0.65882353
v -0.11851221 0.15663794 -15.82778358 0.25098039 0.27450980 0.65882353
v -0.13107300 0.19033168 -15.82524490 0.25098039 0.27450980 0.65882353
v -0.13719405 0.20011805 -15.82443237 0.25098039 0.27450980 0.65882353
v -0.14039099 0.20857057 -15.82574272 0.25098039 0.27450980 0.65882353
v -0.15801167 0.12263714 -15.80520535 0.25098039 0.27450980 0.65882353
v -0.15925059 0.14152467 -15.81820583 0.25098039 0.27450980 0.65882353
v -0.16971701 0.15151376 -15.82943058 0.25098039 0.27450980 0.65882353
v -0.19500740 0.14885196 -15.84808540 0.25098039 0.27450980 0.65882353
v -0.19239414 0.15757747 -15.85336685 0.25098039 0.27450980 0.65882353
v -0.18390708 0.15352987 -15.84760380 0.25098039 0.27450980 0.65882353
v -0.18820077 0.14700618 -15.84364891 0.25098039 0.27450980 0.65882353
v -0.21119612 0.14766166 -15.84103203 0.25098039 0.27450980 0.65882353
v -0.20458408 0.14308371 -15.84342575 0.25098039 0.27450980 0.65882353
v -0.20698816 0.13620485 -15.83940887 0.25098039 0.27450980 0.65882353
v -0.21420735 0.13843963 -15.83678055 0.25098039 0.27450980 0.65882353
v -0.12090653 0.13726422 -15.81612015 0.25098039 0.27450980 0.65882353
v -0.12521054 0.15142649 -15.80941391 0.25098039 0.27450980 0.65882353
v -0.19181238 0.18776226 -15.85630608 0.25098039 0.27450980 0.65882353
v -0.18787371 0.19442384 -15.85746765 0.25098039 0.27450980 0.65882353
v -0.18608582 0.20297346 -15.85839748 0.25098039 0.27450980 0.65882353
v -0.16511181 0.16807099 -15.84479427 0.25098039 0.27450980 0.65882353
v -0.16140032 0.18005806 -15.85148525 0.25098039 0.27450980 0.65882353
v -0.15771535 0.17950413 -15.84978867 0.25098039 0.27450980 0.65882353
v -0.16324642 0.16836676 -15.84213352 0.25098039 0.27450980 0.65882353
v -0.15289512 0.15922910 -15.83791065 0.25098039 0.27450980 0.65882353
v -0.14818317 0.16821635 -15.84673977 0.25098039 0.27450980 0.65882353
v -0.14824589 0.14895110 -15.83795166 0.25098039 0.27450980 0.65882353
v -0.15476361 0.19384807 -15.84982491 0.25098039 0.27450980 0.65882353
v -0.16036035 0.20175077 -15.85544872 0.25098039 0.27450980 0.65882353
v -0.15262476 0.20319249 -15.85083771 0.25098039 0.27450980 0.65882353
v -0.16985014 0.20176086 -15.85861588 0.25098039 0.27450980 0.65882353
v -0.17889801 0.20188983 -15.85970688 0.25098039 0.27450980 0.65882353
v -0.20073888 0.21198595 -15.83611679 0.25098039 0.27450980 0.65882353
v -0.14621098 0.20422223 -15.84524918 0.25098039 0.27450980 0.65882353
v -0.13366632 0.13665885 -15.84118176 0.25098039 0.27450980 0.65882353
v -0.12950283 0.12979630 -15.83928871 0.25098039 0.27450980 0.65882353
v -0.13492011 0.12738429 -15.83340549 0.25098039 0.27450980 0.65882353
v -0.13948113 0.13356256 -15.83500385 0.25098039 0.27450980 0.65882353
v -0.14453238 0.12379912 -15.78390598 0.25098039 0.27450980 0.65882353
v -0.14276281 0.12271085 -15.79140663 0.25098039 0.27450980 0.65882353
v -0.14166993 0.12948872 -15.79619408 0.25098039 0.27450980 0.65882353
v -0.17488390 0.16768786 -15.85420704 0.25098039 0.27450980 0.65882353
v -0.18679935 0.17191502 -15.85830688 0.25098039 0.27450980 0.65882353
v -0.15588650 0.11672644 -15.80023670 0.25098039 0.27450980 0.65882353
v -0.14983332 0.08816771 -15.78401184 0.25098039 0.27450980 0.65882353
v -0.14526801 0.08977106 -15.78755379 0.25098039 0.27450980 0.65882353
v -0.14444488 0.10956199 -15.78465080 0.25098039 0.27450980 0.65882353
v -0.14961924 0.10742773 -15.77979374 0.25098039 0.27450980 0.65882353
v -0.16266116 0.11082722 -15.79546452 0.25098039 0.27450980 0.65882353
v -0.15713942 0.11367717 -15.79921722 0.25098039 0.27450980 0.65882353
v -0.15834063 0.11200172 -15.79887581 0.25098039 0.27450980 0.65882353
v -0.16402224 0.10828356 -15.79718113 0.25098039 0.27450980 0.65882353
v -0.19046314 0.11463702 -15.81557560 0.25098039 0.27450980 0.65882353
v -0.19059819 0.12066697 -15.81950378 0.25098039 0.27450980 0.65882353
v -0.17238095 0.12560421 -15.78080845 0.25098039 0.27450980 0.65882353
v -0.16003391 0.12871610 -15.77415752 0.25098039 0.27450980 0.65882353
v -0.15809664 0.14036141 -15.78005981 0.25098039 0.27450980 0.65882353
v -0.17831394 0.13355476 -15.82046890 0.25098039 0.27450980 0.65882353
v -0.18064976 0.12448765 -15.81600666 0.25098039 0.27450980 0.65882353
v -0.18419063 0.12516999 -15.81830692 0.25098039 0.27450980 0.65882353
v -0.16170600 0.11961819 -15.80440044 0.25098039 0.27450980 0.65882353
v -0.16163227 0.11448998 -15.79995537 0.25098039 0.27450980 0.65882353
v -0.16546416 0.11599880 -15.80225754 0.25098039 0.27450980 0.65882353
v -0.16617230 0.12121368 -15.80697441 0.25098039 0.27450980 0.65882353
v -0.21025053 0.16413239 -15.83598804 0.25098039 0.27450980 0.65882353
v -0.20740315 0.15891615 -15.84647560 0.25098039 0.27450980 0.65882353
v -0.14361802 0.08374377 -15.79650688 0.25098039 0.27450980 0.65882353
v -0.14401841 0.08714107 -15.79407406 0.25098039 0.27450980 0.65882353
v -0.17618880 0.14334619 -15.82588387 0.25098039 0.27450980 0.65882353
v -0.15632847 0.15265553 -15.78850460 0.25098039 0.27450980 0.65882353
v -0.17401077 0.15199789 -15.83283615 0.25098039 0.27450980 0.65882353
v -0.20736389 0.12686688 -15.80824757 0.25098039 0.27450980 0.65882353
v -0.20604317 0.12249006 -15.81555080 0.25098039 0.27450980 0.65882353
v -0.20438930 0.11684293 -15.81485367 0.25098039 0.27450980 0.65882353
v -0.20640616 0.11762716 -15.80884457 0.25098039 0.27450980 0.65882353
v -0.16364402 0.09233509 -15.79885578 0.25098039 0.27450980 0.65882353
v -0.15878506 0.09337460 -15.80231094 0.25098039 0.27450980 0.65882353
v -0.15776578 0.08854018 -15.80261612 0.25098039 0.27450980 0.65882353
v -0.16249633 0.08655449 -15.79950809 0.25098039 0.27450980 0.65882353
v -0.15142044 0.11569870 -15.79904175 0.25098039 0.27450980 0.65882353
v -0.14573723 0.11730349 -15.79604340 0.25098039 0.27450980 0.65882353
v -0.14678437 0.11242031 -15.79695988 0.25098039 0.27450980 0.65882353
v -0.15287623 0.11192235 -15.79891586 0.25098039 0.27450980 0.65882353
v -0.14347193 0.11713265 -15.79019547 0.25098039 0.27450980 0.65882353
v -0.14350614 0.11169872 -15.79109764 0.25098039 0.27450980 0.65882353
v -0.16529441 0.09028585 -15.79254436 0.25098039 0.27450980 0.65882353
v -0.16207325 0.08807844 -15.78587151 0.25098039 0.27450980 0.65882353
v -0.16409045 0.10564398 -15.78237247 0.25098039 0.27450980 0.65882353
v -0.16636002 0.10472511 -15.79046154 0.25098039 0.27450980 0.65882353
v -0.19278118 0.17675287 -15.81333065 0.25098039 0.27450980 0.65882353
v -0.20051166 0.17694984 -15.82166481 0.25098039 0.27450980 0.65882353
v -0.20362967 0.16249062 -15.81744576 0.25098039 0.27450980 0.65882353
v -0.20788445 0.14847572 -15.81287956 0.25098039 0.27450980 0.65882353
v -0.21022449 0.13528797 -15.80899811 0.25098039 0.27450980 0.65882353
v -0.20325866 0.13557103 -15.79875946 0.25098039 0.27450980 0.65882353
v -0.20810252 0.16366813 -15.82461739 0.25098039 0.27450980 0.65882353
v -0.16869403 0.11412219 -15.78917885 0.25098039 0.27450980 0.65882353
v -0.16611210 0.11692055 -15.78089905 0.25098039 0.27450980 0.65882353
v -0.17121556 0.11794933 -15.78404903 0.25098039 0.27450980 0.65882353
v -0.17940509 0.15127078 -15.83821392 0.25098039 0.27450980 0.65882353
v -0.14375898 0.09187963 -15.79268646 0.25098039 0.27450980 0.65882353
v -0.15752822 0.20515084 -15.81141758 0.25098039 0.27450980 0.65882353
v -0.17151962 0.20604104 -15.81233501 0.25098039 0.27450980 0.65882353
v -0.16965052 0.19791664 -15.80952263 0.25098039 0.27450980 0.65882353
v -0.15357786 0.19645548 -15.80898476 0.25098039 0.27450980 0.65882353
v -0.15158862 0.09416437 -15.80221272 0.25098039 0.27450980 0.65882353
v -0.14569151 0.09374155 -15.79888535 0.25098039 0.27450980 0.65882353
v -0.19585143 0.11992364 -15.82361698 0.25098039 0.27450980 0.65882353
v -0.19526921 0.11460566 -15.81929779 0.25098039 0.27450980 0.65882353
v -0.19896427 0.11408187 -15.81906796 0.25098039 0.27450980 0.65882353
v -0.20000477 0.11770082 -15.82531452 0.25098039 0.27450980 0.65882353
v -0.20344016 0.17796159 -15.82712936 0.25098039 0.27450980 0.65882353
v -0.21804355 0.12960094 -15.83004093 0.25098039 0.27450980 0.65882353
v -0.21730563 0.13181631 -15.81828976 0.25098039 0.27450980 0.65882353
v -0.19744897 0.18943197 -15.82509518 0.25098039 0.27450980 0.65882353
v -0.19113907 0.18967536 -15.81728935 0.25098039 0.27450980 0.65882353
v -0.19067231 0.19900152 -15.82024193 0.25098039 0.27450980 0.65882353
v -0.19252037 0.12728062 -15.79026890 0.25098039 0.27450980 0.65882353
v -0.18672429 0.17433622 -15.80729008 0.25098039 0.27450980 0.65882353
v -0.18514401 0.18795048 -15.81255627 0.25098039 0.27450980 0.65882353
v -0.18424147 0.19897725 -15.81581020 0.25098039 0.27450980 0.65882353
v -0.18457067 0.20705906 -15.81782341 0.25098039 0.27450980 0.65882353
v -0.19139850 0.20606653 -15.82281685 0.25098039 0.27450980 0.65882353
v -0.15631852 0.08717816 -15.78392792 0.25098039 0.27450980 0.65882353
v -0.16114007 0.08139905 -15.78856945 0.25098039 0.27450980 0.65882353
v -0.19319633 0.21452641 -15.82486725 0.25098039 0.27450980 0.65882353
v -0.18514475 0.21503672 -15.81976318 0.25098039 0.27450980 0.65882353
v -0.17710640 0.18647921 -15.80755424 0.25098039 0.27450980 0.65882353
v -0.16636556 0.18425217 -15.80281925 0.25098039 0.27450980 0.65882353
v -0.17871255 0.17332199 -15.80274582 0.25098039 0.27450980 0.65882353
v -0.16853005 0.17019767 -15.79739189 0.25098039 0.27450980 0.65882353
v -0.18555075 0.13054098 -15.78159428 0.25098039 0.27450980 0.65882353
v -0.15943441 0.06834243 -15.80077934 0.25098039 0.27450980 0.65882353
v -0.16259709 0.07801148 -15.79592037 0.25098039 0.27450980 0.65882353
v -0.16162986 0.08127470 -15.80076218 0.25098039 0.27450980 0.65882353
v -0.16028571 0.07085745 -15.80438042 0.25098039 0.27450980 0.65882353
v -0.16402498 0.08399373 -15.79421520 0.25098039 0.27450980 0.65882353
v -0.15946993 0.07665563 -15.79111195 0.25098039 0.27450980 0.65882353
v -0.15325022 0.16630453 -15.79585934 0.25098039 0.27450980 0.65882353
v -0.16613506 0.11201422 -15.79818535 0.25098039 0.27450980 0.65882353
v -0.14719939 0.18055992 -15.80384541 0.25098039 0.27450980 0.65882353
v -0.13819699 0.15610850 -15.79615879 0.25098039 0.27450980 0.65882353
v -0.13317470 0.16581212 -15.80412388 0.25098039 0.27450980 0.65882353
v -0.13951170 0.19430244 -15.81321621 0.25098039 0.27450980 0.65882353
v -0.12968405 0.17960075 -15.81293583 0.25098039 0.27450980 0.65882353
v -0.14761329 0.21094811 -15.81755543 0.25098039 0.27450980 0.65882353
v -0.14509806 0.20265415 -15.81466961 0.25098039 0.27450980 0.65882353
v -0.12263925 0.16369355 -15.81569862 0.25098039 0.27450980 0.65882353
v -0.14695194 0.07747446 -15.80674076 0.25098039 0.27450980 0.65882353
v -0.15264523 0.07752599 -15.80856705 0.25098039 0.27450980 0.65882353
v -0.15889063 0.21314725 -15.81374073 0.25098039 0.27450980 0.65882353
v -0.14342138 0.14015275 -15.83621407 0.25098039 0.27450980 0.65882353
v -0.17478564 0.15942277 -15.84386826 0.25098039 0.27450980 0.65882353
v -0.17091605 0.15959018 -15.83949757 0.25098039 0.27450980 0.65882353
v -0.19057962 0.16322097 -15.85571480 0.25098039 0.27450980 0.65882353
v -0.17987397 0.15986097 -15.85024548 0.25098039 0.27450980 0.65882353
v -0.14333938 0.07563958 -15.80297089 0.25098039 0.27450980 0.65882353
v -0.18590263 0.10970716 -15.80311394 0.25098039 0.27450980 0.65882353
v -0.18630204 0.11107571 -15.80268097 0.25098039 0.27450980 0.65882353
v -0.12545338 0.14062434 -15.84192467 0.25098039 0.27450980 0.65882353
v -0.12274125 0.13408773 -15.84048080 0.25098039 0.27450980 0.65882353
v -0.11435904 0.13670877 -15.82978344 0.25098039 0.27450980 0.65882353
v -0.11685506 0.13583189 -15.83684349 0.25098039 0.27450980 0.65882353
v -0.11867045 0.14429981 -15.83706570 0.25098039 0.27450980 0.65882353
v -0.11599696 0.14610060 -15.82946110 0.25098039 0.27450980 0.65882353
v -0.16680236 0.16738582 -15.84695435 0.25098039 0.27450980 0.65882353
v -0.17008623 0.16680306 -15.84953785 0.25098039 0.27450980 0.65882353
v -0.20567830 0.17458859 -15.84062195 0.25098039 0.27450980 0.65882353
v -0.20255503 0.16861308 -15.85042763 0.25098039 0.27450980 0.65882353
v -0.14524928 0.11704899 -15.78376007 0.25098039 0.27450980 0.65882353
v -0.15046701 0.12456810 -15.77756023 0.25098039 0.27450980 0.65882353
v -0.15058623 0.11648088 -15.77872658 0.25098039 0.27450980 0.65882353
v -0.15701589 0.10786217 -15.77843857 0.25098039 0.27450980 0.65882353
v -0.16712388 0.11095192 -15.79376984 0.25098039 0.27450980 0.65882353
v -0.16627839 0.11147154 -15.78975487 0.25098039 0.27450980 0.65882353
v -0.15325665 0.17415173 -15.84817410 0.25098039 0.27450980 0.65882353
v -0.15876685 0.16571322 -15.83909416 0.25098039 0.27450980 0.65882353
v -0.13974027 0.13243467 -15.82590389 0.25098039 0.27450980 0.65882353
v -0.13586271 0.12748742 -15.82522202 0.25098039 0.27450980 0.65882353
v -0.17254958 0.12424701 -15.81124401 0.25098039 0.27450980 0.65882353
v -0.18914554 0.11542002 -15.79055214 0.25098039 0.27450980 0.65882353
v -0.18289207 0.11858595 -15.78382111 0.25098039 0.27450980 0.65882353
v -0.17354110 0.11702348 -15.80611324 0.25098039 0.27450980 0.65882353
v -0.14520934 0.06957640 -15.79690170 0.25098039 0.27450980 0.65882353
v -0.14294896 0.07299264 -15.80002499 0.25098039 0.27450980 0.65882353
v -0.15782045 0.11729801 -15.77681065 0.25098039 0.27450980 0.65882353
v -0.19004574 0.12642701 -15.82464027 0.25098039 0.27450980 0.65882353
v -0.19411473 0.11936594 -15.79421425 0.25098039 0.27450980 0.65882353
v -0.19000460 0.11091825 -15.79674721 0.25098039 0.27450980 0.65882353
v -0.21394110 0.13237108 -15.83641148 0.25098039 0.27450980 0.65882353
v -0.17203903 0.21432248 -15.81526470 0.25098039 0.27450980 0.65882353
v -0.15761466 0.08369915 -15.80431271 0.25098039 0.27450980 0.65882353
v -0.15767947 0.07600167 -15.80809689 0.25098039 0.27450980 0.65882353
v -0.15674177 0.06744085 -15.79732704 0.25098039 0.27450980 0.65882353
v -0.15103011 0.06798241 -15.79484940 0.25098039 0.27450980 0.65882353
v -0.19653542 0.17714490 -15.85376263 0.25098039 0.27450980 0.65882353
v -0.16854936 0.15930992 -15.83647251 0.25098039 0.27450980 0.65882353
v -0.11889203 0.15040234 -15.81897259 0.25098039 0.27450980 0.65882353
v -0.11634506 0.13769285 -15.82204628 0.25098039 0.27450980 0.65882353
v -0.17431334 0.11368486 -15.80314922 0.25098039 0.27450980 0.65882353
v -0.21115354 0.12761235 -15.81443787 0.25098039 0.27450980 0.65882353
v -0.20378919 0.12540475 -15.79944801 0.25098039 0.27450980 0.65882353
v -0.20380676 0.11527812 -15.80006981 0.25098039 0.27450980 0.65882353
v -0.19741833 0.11191782 -15.79639339 0.25098039 0.27450980 0.65882353
v -0.19050057 0.10907904 -15.79792213 0.25098039 0.27450980 0.65882353
v -0.15582238 0.06365016 -15.80160141 0.25098039 0.27450980 0.65882353
v -0.15006313 0.06419073 -15.79907227 0.25098039 0.27450980 0.65882353
v -0.14419371 0.06614460 -15.80083561 0.25098039 0.27450980 0.65882353
v -0.14214915 0.06972940 -15.80316830 0.25098039 0.27450980 0.65882353
v -0.14331609 0.07332537 -15.80553150 0.25098039 0.27450980 0.65882353
v -0.15846173 0.06481563 -15.80527687 0.25098039 0.27450980 0.65882353
v -0.15891090 0.06756043 -15.80832767 0.25098039 0.27450980 0.65882353
v -0.15719584 0.07342942 -15.81001377 0.25098039 0.27450980 0.65882353
v -0.15738344 0.06332721 -15.80994129 0.25098039 0.27450980 0.65882353
v -0.15359581 0.05955176 -15.80893707 0.25098039 0.27450980 0.65882353
v -0.14042924 0.06185071 -15.81393909 0.25098039 0.27450980 0.65882353
v -0.14253701 0.06195702 -15.80832195 0.25098039 0.27450980 0.65882353
v -0.14348359 0.06020685 -15.81020832 0.25098039 0.27450980 0.65882353
v -0.14221409 0.05931178 -15.81501293 0.25098039 0.27450980 0.65882353
v -0.14195549 0.05730636 -15.81979752 0.25098039 0.27450980 0.65882353
v -0.13974683 0.06002387 -15.81925392 0.25098039 0.27450980 0.65882353
v -0.14777082 0.05960397 -15.80821705 0.25098039 0.27450980 0.65882353
v -0.14668719 0.05790690 -15.81470585 0.25098039 0.27450980 0.65882353
v -0.15087867 0.05802898 -15.81565857 0.25098039 0.27450980 0.65882353
v -0.14955123 0.05589822 -15.82067204 0.25098039 0.27450980 0.65882353
v -0.14578398 0.05559909 -15.81996346 0.25098039 0.27450980 0.65882353
v -0.15133354 0.05884765 -15.81105995 0.25098039 0.27450980 0.65882353
v -0.14829285 0.05994479 -15.80569172 0.25098039 0.27450980 0.65882353
v -0.14115286 0.05809942 -15.82320023 0.25098039 0.27450980 0.65882353
v -0.14231469 0.05600783 -15.82240295 0.25098039 0.27450980 0.65882353
v -0.14544506 0.05493474 -15.82304096 0.25098039 0.27450980 0.65882353
v -0.14503917 0.05614714 -15.82577610 0.25098039 0.27450980 0.65882353
v -0.14120494 0.06769399 -15.80736256 0.25098039 0.27450980 0.65882353
v -0.13976607 0.06429230 -15.81480217 0.25098039 0.27450980 0.65882353
v -0.14045563 0.06283835 -15.82061577 0.25098039 0.27450980 0.65882353
v -0.14187410 0.06062263 -15.82433605 0.25098039 0.27450980 0.65882353
v -0.14158291 0.06689252 -15.81755638 0.25098039 0.27450980 0.65882353
v -0.14232083 0.06494504 -15.82171249 0.25098039 0.27450980 0.65882353
v -0.14396986 0.06317145 -15.82488918 0.25098039 0.27450980 0.65882353
v -0.14488222 0.06875218 -15.81986618 0.25098039 0.27450980 0.65882353
v -0.14506315 0.06624699 -15.82296658 0.25098039 0.27450980 0.65882353
v -0.14605677 0.07388191 -15.81013012 0.25098039 0.27450980 0.65882353
v -0.14274646 0.07227638 -15.80781269 0.25098039 0.27450980 0.65882353
v -0.14533705 0.06486930 -15.82505226 0.25098039 0.27450980 0.65882353
v -0.14584583 0.05793440 -15.82678127 0.25098039 0.27450980 0.65882353
v -0.15420827 0.05973534 -15.81530094 0.25098039 0.27450980 0.65882353
v -0.15183929 0.05799256 -15.82177830 0.25098039 0.27450980 0.65882353
v -0.15551111 0.06156455 -15.81633949 0.25098039 0.27450980 0.65882353
v -0.15344134 0.05953705 -15.82267094 0.25098039 0.27450980 0.65882353
v -0.14990480 0.05606650 -15.82529449 0.25098039 0.27450980 0.65882353
v -0.14846981 0.05525450 -15.82334518 0.25098039 0.27450980 0.65882353
v -0.14733914 0.07580785 -15.80793190 0.25098039 0.27450980 0.65882353
v -0.15324113 0.07570803 -15.80973530 0.25098039 0.27450980 0.65882353
v -0.15233009 0.07420209 -15.81172180 0.25098039 0.27450980 0.65882353
v -0.14970818 0.06916256 -15.82088566 0.25098039 0.27450980 0.65882353
v -0.15617561 0.07198931 -15.81247520 0.25098039 0.27450980 0.65882353
v -0.15770738 0.06631468 -15.81257153 0.25098039 0.27450980 0.65882353
v -0.15560463 0.06369968 -15.81853199 0.25098039 0.27450980 0.65882353
v -0.15424913 0.06657623 -15.82017612 0.25098039 0.27450980 0.65882353
v -0.15346254 0.06206597 -15.82324409 0.25098039 0.27450980 0.65882353
v -0.15211701 0.06427644 -15.82358742 0.25098039 0.27450980 0.65882353
v -0.14868653 0.06625251 -15.82395649 0.25098039 0.27450980 0.65882353
v -0.15068360 0.06106411 -15.82605362 0.25098039 0.27450980 0.65882353
v -0.15058991 0.05808760 -15.82589531 0.25098039 0.27450980 0.65882353
v -0.14691113 0.06116606 -15.82664108 0.25098039 0.27450980 0.65882353
v -0.15061954 0.06295009 -15.82560062 0.25098039 0.27450980 0.65882353
v -0.14759433 0.06349672 -15.82556152 0.25098039 0.27450980 0.65882353
v -0.16785610 0.08339421 -15.80544949 0.25098039 0.27450980 0.65882353
v -0.17308673 0.08419859 -15.80969048 0.25098039 0.27450980 0.65882353
v -0.17413220 0.08661062 -15.80654526 0.25098039 0.27450980 0.65882353
v -0.16947049 0.08601907 -15.80328941 0.25098039 0.27450980 0.65882353
v -0.17129675 0.07371981 -15.79531002 0.25098039 0.27450980 0.65882353
v -0.16715044 0.07751691 -15.79844761 0.25098039 0.27450980 0.65882353
v -0.16858765 0.08058160 -15.79449844 0.25098039 0.27450980 0.65882353
v -0.17407665 0.07753763 -15.79112530 0.25098039 0.27450980 0.65882353
v -0.17882089 0.07260142 -15.79584408 0.25098039 0.27450980 0.65882353
v -0.18143302 0.07684849 -15.79181767 0.25098039 0.27450980 0.65882353
v -0.17478794 0.08330974 -15.78802299 0.25098039 0.27450980 0.65882353
v -0.16932964 0.08596721 -15.79214382 0.25098039 0.27450980 0.65882353
v -0.16992062 0.10688286 -15.78925228 0.25098039 0.27450980 0.65882353
v -0.17513308 0.10586946 -15.78458500 0.25098039 0.27450980 0.65882353
v -0.18087088 0.10807215 -15.80501556 0.25098039 0.27450980 0.65882353
v -0.18458100 0.10656715 -15.80345440 0.25098039 0.27450980 0.65882353
v -0.16651967 0.08118618 -15.80220795 0.25098039 0.27450980 0.65882353
v -0.16786754 0.08384939 -15.79904461 0.25098039 0.27450980 0.65882353
v -0.18433444 0.08869697 -15.80687141 0.25098039 0.27450980 0.65882353
v -0.17891154 0.09007487 -15.80829239 0.25098039 0.27450980 0.65882353
v -0.17864649 0.08652323 -15.80880833 0.25098039 0.27450980 0.65882353
v -0.18383384 0.08423652 -15.80767155 0.25098039 0.27450980 0.65882353
v -0.16943206 0.10877307 -15.79842854 0.25098039 0.27450980 0.65882353
v -0.17530999 0.10883015 -15.80197525 0.25098039 0.27450980 0.65882353
v -0.16848196 0.10787206 -15.79426670 0.25098039 0.27450980 0.65882353
v -0.18845671 0.08601438 -15.80199051 0.25098039 0.27450980 0.65882353
v -0.18876836 0.08357619 -15.79533291 0.25098039 0.27450980 0.65882353
v -0.18966852 0.10403675 -15.79025078 0.25098039 0.27450980 0.65882353
v -0.19019693 0.10391982 -15.79698849 0.25098039 0.27450980 0.65882353
v -0.16762283 0.08807189 -15.79716492 0.25098039 0.27450980 0.65882353
v -0.17306280 0.08992425 -15.80648804 0.25098039 0.27450980 0.65882353
v -0.16870025 0.08967005 -15.80270004 0.25098039 0.27450980 0.65882353
v -0.18251628 0.08339359 -15.78932571 0.25098039 0.27450980 0.65882353
v -0.18688580 0.07749320 -15.79840851 0.25098039 0.27450980 0.65882353
v -0.18018173 0.06862547 -15.81630325 0.25098039 0.27450980 0.65882353
v -0.18488273 0.07633048 -15.80811691 0.25098039 0.27450980 0.65882353
v -0.18239492 0.08023351 -15.81107140 0.25098039 0.27450980 0.65882353
v -0.17885412 0.07257117 -15.81978989 0.25098039 0.27450980 0.65882353
v -0.18688297 0.08067317 -15.80434608 0.25098039 0.27450980 0.65882353
v -0.18406871 0.07339650 -15.80261326 0.25098039 0.27450980 0.65882353
v -0.16452938 0.07628035 -15.81702995 0.25098039 0.27450980 0.65882353
v -0.17015177 0.07720982 -15.82068157 0.25098039 0.27450980 0.65882353
v -0.16214451 0.07348526 -15.81371880 0.25098039 0.27450980 0.65882353
v -0.18285452 0.10539554 -15.78490353 0.25098039 0.27450980 0.65882353
v -0.16648561 0.06650633 -15.80658150 0.25098039 0.27450980 0.65882353
v -0.16241887 0.07060434 -15.81023693 0.25098039 0.27450980 0.65882353
v -0.17821154 0.08367795 -15.81176853 0.25098039 0.27450980 0.65882353
v -0.17519042 0.07585457 -15.82173061 0.25098039 0.27450980 0.65882353
v -0.17899470 0.06598315 -15.81242275 0.25098039 0.27450980 0.65882353
v -0.17368466 0.06532058 -15.80637646 0.25098039 0.27450980 0.65882353
v -0.17635903 0.06326680 -15.81718826 0.25098039 0.27450980 0.65882353
v -0.17086536 0.06219764 -15.81290436 0.25098039 0.27450980 0.65882353
v -0.16388811 0.06408978 -15.81252384 0.25098039 0.27450980 0.65882353
v -0.16090739 0.06912866 -15.81447124 0.25098039 0.27450980 0.65882353
v -0.16151400 0.07262194 -15.81651783 0.25098039 0.27450980 0.65882353
v -0.17780232 0.06623799 -15.82059669 0.25098039 0.27450980 0.65882353
v -0.17697728 0.07056825 -15.82303619 0.25098039 0.27450980 0.65882353
v -0.17378715 0.07486714 -15.82299137 0.25098039 0.27450980 0.65882353
v -0.17486620 0.06701425 -15.82671261 0.25098039 0.27450980 0.65882353
v -0.17279412 0.06281304 -15.82525826 0.25098039 0.27450980 0.65882353
v -0.15477262 0.06729119 -15.83170891 0.25098039 0.27450980 0.65882353
v -0.15709464 0.06587771 -15.82623196 0.25098039 0.27450980 0.65882353
v -0.15887843 0.06422520 -15.82751369 0.25098039 0.27450980 0.65882353
v -0.15677151 0.06535876 -15.83255386 0.25098039 0.27450980 0.65882353
v -0.16037822 0.06302568 -15.82134819 0.25098039 0.27450980 0.65882353
v -0.16142917 0.06252527 -15.82374191 0.25098039 0.27450980 0.65882353
v -0.16625202 0.06149767 -15.82415771 0.25098039 0.27450980 0.65882353
v -0.16341655 0.06337355 -15.82956600 0.25098039 0.27450980 0.65882353
v -0.16816738 0.06442070 -15.83096218 0.25098039 0.27450980 0.65882353
v -0.16568533 0.06498295 -15.83612251 0.25098039 0.27450980 0.65882353
v -0.16097908 0.06385879 -15.83507156 0.25098039 0.27450980 0.65882353
v -0.16918480 0.06251858 -15.82689190 0.25098039 0.27450980 0.65882353
v -0.15630001 0.06583619 -15.83614159 0.25098039 0.27450980 0.65882353
v -0.15527323 0.06791146 -15.83735847 0.25098039 0.27450980 0.65882353
v -0.16741168 0.06023403 -15.82102203 0.25098039 0.27450980 0.65882353
v -0.15930510 0.06800303 -15.81791592 0.25098039 0.27450980 0.65882353
v -0.15600789 0.06900503 -15.82610512 0.25098039 0.27450980 0.65882353
v -0.15455782 0.07062249 -15.83235931 0.25098039 0.27450980 0.65882353
v -0.15628812 0.07064246 -15.83839607 0.25098039 0.27450980 0.65882353
v -0.15711002 0.07311700 -15.82755852 0.25098039 0.27450980 0.65882353
v -0.15613064 0.07340774 -15.83337212 0.25098039 0.27450980 0.65882353
v -0.15795173 0.07283562 -15.83809948 0.25098039 0.27450980 0.65882353
v -0.16021785 0.07662745 -15.82939911 0.25098039 0.27450980 0.65882353
v -0.15940198 0.07588578 -15.83493328 0.25098039 0.27450980 0.65882353
v -0.16371849 0.07594025 -15.82003307 0.25098039 0.27450980 0.65882353
v -0.16028631 0.07281224 -15.81838512 0.25098039 0.27450980 0.65882353
v -0.15941212 0.07457511 -15.83716011 0.25098039 0.27450980 0.65882353
v -0.15884878 0.06646924 -15.84036732 0.25098039 0.27450980 0.65882353
v -0.15936916 0.06970964 -15.84114742 0.25098039 0.27450980 0.65882353
v -0.15924974 0.06536254 -15.83887768 0.25098039 0.27450980 0.65882353
v -0.17011145 0.06544551 -15.83152771 0.25098039 0.27450980 0.65882353
v -0.16678870 0.06673200 -15.83704185 0.25098039 0.27450980 0.65882353
v -0.17141703 0.06796901 -15.83255863 0.25098039 0.27450980 0.65882353
v -0.16744420 0.06878597 -15.83829498 0.25098039 0.27450980 0.65882353
v -0.16362950 0.06693876 -15.84059715 0.25098039 0.27450980 0.65882353
v -0.16283613 0.06572382 -15.83975983 0.25098039 0.27450980 0.65882353
v -0.16447216 0.07521840 -15.81874657 0.25098039 0.27450980 0.65882353
v -0.16971549 0.07622120 -15.82149410 0.25098039 0.27450980 0.65882353
v -0.16915859 0.07713322 -15.82225132 0.25098039 0.27450980 0.65882353
v -0.16546707 0.07710803 -15.83149242 0.25098039 0.27450980 0.65882353
v -0.17350855 0.07539059 -15.82410812 0.25098039 0.27450980 0.65882353
v -0.17504863 0.07088543 -15.82664585 0.25098039 0.27450980 0.65882353
v -0.17176503 0.07095686 -15.83269787 0.25098039 0.27450980 0.65882353
v -0.16968438 0.07469901 -15.83281612 0.25098039 0.27450980 0.65882353
v -0.16830193 0.07082789 -15.83861446 0.25098039 0.27450980 0.65882353
v -0.16775815 0.07366072 -15.83689976 0.25098039 0.27450980 0.65882353
v -0.16354001 0.07624298 -15.83598423 0.25098039 0.27450980 0.65882353
v -0.16462693 0.07080251 -15.84147644 0.25098039 0.27450980 0.65882353
v -0.16399726 0.06849690 -15.84137630 0.25098039 0.27450980 0.65882353
v -0.16021878 0.07168873 -15.84056187 0.25098039 0.27450980 0.65882353
v -0.16511621 0.07314147 -15.83971691 0.25098039 0.27450980 0.65882353
v -0.16155699 0.07413293 -15.83891010 0.25098039 0.27450980 0.65882353
v -0.18453074 0.08912190 -15.81354141 0.25098039 0.27450980 0.65882353
v -0.18757786 0.09178908 -15.81849003 0.25098039 0.27450980 0.65882353
v -0.18844827 0.09305752 -15.81707573 0.25098039 0.27450980 0.65882353
v -0.18550277 0.09097477 -15.81212616 0.25098039 0.27450980 0.65882353
v -0.19255790 0.08069889 -15.80809975 0.25098039 0.27450980 0.65882353
v -0.18768585 0.08203941 -15.80862522 0.25098039 0.27450980 0.65882353
v -0.18935168 0.08513030 -15.80524063 0.25098039 0.27450980 0.65882353
v -0.19468608 0.08465080 -15.80342674 0.25098039 0.27450980 0.65882353
v -0.19720629 0.08038369 -15.81198502 0.25098039 0.27450980 0.65882353
v -0.20108914 0.08505161 -15.80607510 0.25098039 0.27450980 0.65882353
v -0.19596675 0.08973990 -15.79989529 0.25098039 0.27450980 0.65882353
v -0.19013198 0.08924129 -15.80259800 0.25098039 0.27450980 0.65882353
v -0.19076884 0.10483715 -15.79906845 0.25098039 0.27450980 0.65882353
v -0.19727996 0.10471453 -15.79672623 0.25098039 0.27450980 0.65882353
v -0.18522063 0.08547406 -15.81055927 0.25098039 0.27450980 0.65882353
v -0.18623118 0.08801117 -15.80842209 0.25098039 0.27450980 0.65882353
v -0.19769377 0.09521817 -15.82080078 0.25098039 0.27450980 0.65882353
v -0.19291162 0.09540395 -15.82016563 0.25098039 0.27450980 0.65882353
v -0.19295968 0.09341736 -15.82066059 0.25098039 0.27450980 0.65882353
v -0.19719759 0.09272252 -15.82123184 0.25098039 0.27450980 0.65882353
v -0.18636085 0.10908145 -15.80892658 0.25098039 0.27450980 0.65882353
v -0.19080836 0.11098295 -15.81330872 0.25098039 0.27450980 0.65882353
v -0.18688445 0.10634732 -15.80411339 0.25098039 0.27450980 0.65882353
v -0.20322970 0.09347943 -15.81725693 0.25098039 0.27450980 0.65882353
v -0.20601344 0.09178951 -15.80992031 0.25098039 0.27450980 0.65882353
v -0.20699562 0.10715526 -15.80841064 0.25098039 0.27450980 0.65882353
v -0.20425646 0.10873239 -15.81408310 0.25098039 0.27450980 0.65882353
v -0.18675721 0.09091260 -15.80654335 0.25098039 0.27450980 0.65882353
v -0.18780300 0.09528930 -15.81677818 0.25098039 0.27450980 0.65882353
v -0.18515873 0.09337202 -15.81155300 0.25098039 0.27450980 0.65882353
v -0.20197138 0.09101721 -15.80287266 0.25098039 0.27450980 0.65882353
v -0.20368370 0.08674703 -15.81330872 0.25098039 0.27450980 0.65882353
v -0.19457126 0.07783417 -15.83158970 0.25098039 0.27450980 0.65882353
v -0.20095968 0.08718572 -15.82106113 0.25098039 0.27450980 0.65882353
v -0.19664934 0.09132817 -15.82275009 0.25098039 0.27450980 0.65882353
v -0.19273153 0.08176062 -15.83285904 0.25098039 0.27450980 0.65882353
v -0.20202589 0.08992264 -15.81914711 0.25098039 0.27450980 0.65882353
v -0.20133972 0.08326785 -15.81664371 0.25098039 0.27450980 0.65882353
v -0.17924702 0.08239789 -15.82525539 0.25098039 0.27450980 0.65882353
v -0.18347326 0.08492476 -15.82893944 0.25098039 0.27450980 0.65882353
v -0.17930993 0.07901920 -15.82213879 0.25098039 0.27450980 0.65882353
v -0.20416759 0.10577320 -15.79998684 0.25098039 0.27450980 0.65882353
v -0.19827235 0.11060963 -15.81708622 0.25098039 0.27450980 0.65882353
v -0.18355303 0.07257414 -15.82118034 0.25098039 0.27450980 0.65882353
v -0.18035248 0.07578063 -15.82105827 0.25098039 0.27450980 0.65882353
v -0.19229323 0.09247857 -15.82169151 0.25098039 0.27450980 0.65882353
v -0.18880898 0.08472640 -15.83217335 0.25098039 0.27450980 0.65882353
v -0.19407400 0.07438514 -15.82780838 0.25098039 0.27450980 0.65882353
v -0.18983886 0.07230002 -15.82265759 0.25098039 0.27450980 0.65882353
v -0.19116992 0.07334816 -15.83341408 0.25098039 0.27450980 0.65882353
v -0.18647139 0.07074426 -15.82937527 0.25098039 0.27450980 0.65882353
v -0.18048914 0.07119581 -15.82748985 0.25098039 0.27450980 0.65882353
v -0.17779717 0.07492338 -15.82602119 0.25098039 0.27450980 0.65882353
v -0.17727378 0.07829686 -15.82608986 0.25098039 0.27450980 0.65882353
v -0.19195557 0.07806568 -15.83549213 0.25098039 0.27450980 0.65882353
v -0.19049878 0.08180672 -15.83479691 0.25098039 0.27450980 0.65882353
v -0.18803756 0.08391470 -15.83192444 0.25098039 0.27450980 0.65882353
v -0.18996775 0.08074804 -15.83803177 0.25098039 0.27450980 0.65882353
v -0.18734951 0.07563318 -15.83904743 0.25098039 0.27450980 0.65882353
v -0.17083696 0.08076064 -15.84263039 0.25098039 0.27450980 0.65882353
v -0.17357725 0.07780343 -15.83827591 0.25098039 0.27450980 0.65882353
v -0.17453250 0.07755519 -15.83911228 0.25098039 0.27450980 0.65882353
v -0.17187713 0.08004269 -15.84374332 0.25098039 0.27450980 0.65882353
v -0.17759678 0.07322653 -15.83458519 0.25098039 0.27450980 0.65882353
v -0.17771210 0.07407014 -15.83665276 0.25098039 0.27450980 0.65882353
v -0.18169636 0.07372388 -15.83791637 0.25098039 0.27450980 0.65882353
v -0.17860182 0.07750557 -15.84257793 0.25098039 0.27450980 0.65882353
v -0.18388364 0.08081754 -15.84322739 0.25098039 0.27450980 0.65882353
v -0.18043682 0.08312103 -15.84638309 0.25098039 0.27450980 0.65882353
v -0.17569584 0.08003465 -15.84651852 0.25098039 0.27450980 0.65882353
v -0.18534005 0.07636941 -15.83987427 0.25098039 0.27450980 0.65882353
v -0.17132668 0.08164470 -15.84645557 0.25098039 0.27450980 0.65882353
v -0.16927695 0.08191895 -15.84646416 0.25098039 0.27450980 0.65882353
v -0.18299235 0.07190366 -15.83599567 0.25098039 0.27450980 0.65882353
v -0.17484367 0.07540640 -15.83063030 0.25098039 0.27450980 0.65882353
v -0.17166278 0.07941371 -15.83644962 0.25098039 0.27450980 0.65882353
v -0.16872878 0.08254433 -15.84067631 0.25098039 0.27450980 0.65882353
v -0.16889109 0.08501996 -15.84443665 0.25098039 0.27450980 0.65882353
v -0.17199098 0.08304692 -15.83512115 0.25098039 0.27450980 0.65882353
v -0.16984814 0.08524065 -15.83938122 0.25098039 0.27450980 0.65882353
v -0.16986728 0.08734535 -15.84290695 0.25098039 0.27450980 0.65882353
v -0.17369616 0.08610423 -15.83490372 0.25098039 0.27450980 0.65882353
v -0.17211136 0.08770135 -15.83893013 0.25098039 0.27450980 0.65882353
v -0.17778455 0.08204773 -15.82800484 0.25098039 0.27450980 0.65882353
v -0.17549272 0.07887638 -15.82859707 0.25098039 0.27450980 0.65882353
v -0.17163610 0.08846761 -15.84179878 0.25098039 0.27450980 0.65882353
v -0.17287774 0.08345491 -15.84948063 0.25098039 0.27450980 0.65882353
v -0.17286403 0.08743142 -15.84798717 0.25098039 0.27450980 0.65882353
v -0.17382300 0.08255434 -15.84820938 0.25098039 0.27450980 0.65882353
v -0.18553188 0.08186223 -15.84292698 0.25098039 0.27450980 0.65882353
v -0.18165952 0.08496548 -15.84732819 0.25098039 0.27450980 0.65882353
v -0.18636641 0.08467958 -15.84203148 0.25098039 0.27450980 0.65882353
v -0.18249144 0.08745136 -15.84638119 0.25098039 0.27450980 0.65882353
v -0.17796423 0.08522083 -15.84951210 0.25098039 0.27450980 0.65882353
v -0.17764746 0.08431329 -15.84884644 0.25098039 0.27450980 0.65882353
v -0.17939806 0.08157180 -15.82720566 0.25098039 0.27450980 0.65882353
v -0.18354075 0.08407597 -15.82949638 0.25098039 0.27450980 0.65882353
v -0.18206210 0.08481269 -15.82909489 0.25098039 0.27450980 0.65882353
v -0.17756988 0.08937486 -15.83592701 0.25098039 0.27450980 0.65882353
v -0.18660882 0.08533587 -15.83142662 0.25098039 0.27450980 0.65882353
v -0.18841988 0.08435871 -15.83665276 0.25098039 0.27450980 0.65882353
v -0.18498930 0.08752472 -15.84028149 0.25098039 0.27450980 0.65882353
v -0.18186155 0.08955577 -15.83843899 0.25098039 0.27450980 0.65882353
v -0.18176439 0.08961809 -15.84443855 0.25098039 0.27450980 0.65882353
v -0.18019119 0.09013341 -15.84194946 0.25098039 0.27450980 0.65882353
v -0.17548378 0.09049575 -15.83968735 0.25098039 0.27450980 0.65882353
v -0.17788672 0.08940461 -15.84619236 0.25098039 0.27450980 0.65882353
v -0.17826919 0.08772893 -15.84857655 0.25098039 0.27450980 0.65882353
v -0.17318109 0.08931322 -15.84552193 0.25098039 0.27450980 0.65882353
v -0.17742835 0.09043674 -15.84399319 0.25098039 0.27450980 0.65882353
v -0.17383577 0.09027176 -15.84337330 0.25098039 0.27450980 0.65882353
v -0.19460469 0.11133655 -15.81625652 0.25098039 0.27450980 0.65882353
v -0.19523889 0.10223785 -15.83138657 0.25098039 0.27450980 0.65882353
v -0.19691312 0.10379386 -15.83527851 0.25098039 0.27450980 0.65882353
v -0.19863051 0.10502790 -15.83497524 0.25098039 0.27450980 0.65882353
v -0.19677979 0.10487333 -15.83079529 0.25098039 0.27450980 0.65882353
v -0.20303719 0.09579582 -15.82597351 0.25098039 0.27450980 0.65882353
v -0.19857034 0.09730696 -15.82620430 0.25098039 0.27450980 0.65882353
v -0.20091878 0.10077762 -15.82373905 0.25098039 0.27450980 0.65882353
v -0.20525837 0.09948585 -15.82325363 0.25098039 0.27450980 0.65882353
v -0.20731162 0.09566434 -15.82907104 0.25098039 0.27450980 0.65882353
v -0.20953438 0.09915240 -15.82684708 0.25098039 0.27450980 0.65882353
v -0.20670740 0.10303245 -15.82160091 0.25098039 0.27450980 0.65882353
v -0.20203528 0.10433257 -15.82220936 0.25098039 0.27450980 0.65882353
v -0.20456713 0.11846961 -15.81798840 0.25098039 0.27450980 0.65882353
v -0.21012808 0.11962626 -15.81740856 0.25098039 0.27450980 0.65882353
v -0.21229990 0.12572107 -15.83715439 0.25098039 0.27450980 0.65882353
v -0.20704505 0.12697683 -15.83755684 0.25098039 0.27450980 0.65882353
v -0.20630917 0.11879526 -15.83770847 0.25098039 0.27450980 0.65882353
v -0.21131411 0.11897546 -15.83761406 0.25098039 0.27450980 0.65882353
v -0.19605410 0.09977039 -15.82827568 0.25098039 0.27450980 0.65882353
v -0.19736633 0.10317126 -15.82653141 0.25098039 0.27450980 0.65882353
v -0.20812739 0.10618965 -15.83953190 0.25098039 0.27450980 0.65882353
v -0.20327824 0.10713629 -15.83851910 0.25098039 0.27450980 0.65882353
v -0.20148526 0.10551319 -15.83836460 0.25098039 0.27450980 0.65882353
v -0.20563823 0.10430292 -15.84066010 0.25098039 0.27450980 0.65882353
v -0.20255010 0.12481207 -15.83464050 0.25098039 0.27450980 0.65882353
v -0.20067622 0.12225948 -15.83018494 0.25098039 0.27450980 0.65882353
v -0.19979370 0.11894234 -15.83067322 0.25098039 0.27450980 0.65882353
v -0.20203556 0.11764166 -15.83472633 0.25098039 0.27450980 0.65882353
v -0.19996172 0.11752161 -15.82449055 0.25098039 0.27450980 0.65882353
v -0.21175779 0.10471736 -15.83738899 0.25098039 0.27450980 0.65882353
v -0.21374065 0.10295710 -15.83180237 0.25098039 0.27450980 0.65882353
v -0.21869978 0.11972462 -15.82983875 0.25098039 0.27450980 0.65882353
v -0.21597263 0.12000572 -15.83457756 0.25098039 0.27450980 0.65882353
v -0.19859804 0.10476673 -15.82533264 0.25098039 0.27450980 0.65882353
v -0.19965565 0.10718457 -15.83500671 0.25098039 0.27450980 0.65882353
v -0.19785023 0.10583504 -15.83076763 0.25098039 0.27450980 0.65882353
v -0.21172979 0.10256111 -15.82494068 0.25098039 0.27450980 0.65882353
v -0.21111393 0.09993155 -15.83347702 0.25098039 0.27450980 0.65882353
v -0.20291063 0.09482878 -15.84482670 0.25098039 0.27450980 0.65882353
v -0.20783547 0.10024849 -15.84055805 0.25098039 0.27450980 0.65882353
v -0.20381276 0.10314725 -15.84166718 0.25098039 0.27450980 0.65882353
v -0.20083514 0.09735246 -15.84522629 0.25098039 0.27450980 0.65882353
v -0.20929477 0.10210062 -15.83886147 0.25098039 0.27450980 0.65882353
v -0.20899746 0.09677695 -15.83584595 0.25098039 0.27450980 0.65882353
v -0.19137043 0.09747015 -15.83552551 0.25098039 0.27450980 0.65882353
v -0.19444169 0.09940015 -15.84007549 0.25098039 0.27450980 0.65882353
v -0.19151273 0.09505387 -15.83308601 0.25098039 0.27450980 0.65882353
v -0.21593609 0.12027980 -15.82138634 0.25098039 0.27450980 0.65882353
v -0.19695678 0.08959509 -15.83209896 0.25098039 0.27450980 0.65882353
v -0.19302751 0.09192097 -15.83194828 0.25098039 0.27450980 0.65882353
v -0.19972005 0.10401608 -15.83887863 0.25098039 0.27450980 0.65882353
v -0.19779068 0.09920311 -15.84348106 0.25098039 0.27450980 0.65882353
v -0.20390680 0.09150963 -15.84162903 0.25098039 0.27450980 0.65882353
v -0.20214567 0.08931030 -15.83542061 0.25098039 0.27450980 0.65882353
v -0.19986197 0.08968177 -15.84471321 0.25098039 0.27450980 0.65882353
v -0.19805783 0.08705331 -15.83874702 0.25098039 0.27450980 0.65882353
v -0.19269215 0.08855102 -15.83536720 0.25098039 0.27450980 0.65882353
v -0.19087306 0.09192964 -15.83441639 0.25098039 0.27450980 0.65882353
v -0.18998721 0.09492141 -15.83507538 0.25098039 0.27450980 0.65882353
v -0.19982871 0.09403104 -15.84726429 0.25098039 0.27450980 0.65882353
v -0.19859913 0.09702171 -15.84710598 0.25098039 0.27450980 0.65882353
v -0.19637170 0.09914402 -15.84465885 0.25098039 0.27450980 0.65882353
v -0.19678584 0.09358273 -15.84965515 0.25098039 0.27450980 0.65882353
v -0.19446895 0.08955565 -15.84807014 0.25098039 0.27450980 0.65882353
v -0.18154952 0.09346461 -15.84650040 0.25098039 0.27450980 0.65882353
v -0.18419960 0.09240984 -15.84327030 0.25098039 0.27450980 0.65882353
v -0.18469867 0.09159451 -15.84407425 0.25098039 0.27450980 0.65882353
v -0.18157771 0.09240699 -15.84681511 0.25098039 0.27450980 0.65882353
v -0.18821162 0.08973627 -15.84015179 0.25098039 0.27450980 0.65882353
v -0.18794264 0.08957638 -15.84202003 0.25098039 0.27450980 0.65882353
v -0.19121067 0.08836941 -15.84355927 0.25098039 0.27450980 0.65882353
v -0.18709314 0.08963826 -15.84712601 0.25098039 0.27450980 0.65882353
v -0.19028518 0.09114351 -15.85144520 0.25098039 0.27450980 0.65882353
v -0.18675655 0.09196595 -15.85365105 0.25098039 0.27450980 0.65882353
v -0.18424065 0.09036392 -15.84975338 0.25098039 0.27450980 0.65882353
v -0.19255352 0.08910936 -15.84786415 0.25098039 0.27450980 0.65882353
v -0.18018399 0.09225231 -15.84928703 0.25098039 0.27450980 0.65882353
v -0.17909053 0.09300900 -15.84963703 0.25098039 0.27450980 0.65882353
v -0.19285904 0.08740976 -15.84222603 0.25098039 0.27450980 0.65882353
v -0.18755850 0.09310982 -15.83764172 0.25098039 0.27450980 0.65882353
v -0.18295723 0.09468459 -15.84276390 0.25098039 0.27450980 0.65882353
v -0.17992017 0.09529981 -15.84694862 0.25098039 0.27450980 0.65882353
v -0.17897005 0.09512615 -15.85070419 0.25098039 0.27450980 0.65882353
v -0.18359289 0.09712091 -15.84239197 0.25098039 0.27450980 0.65882353
v -0.18007860 0.09762054 -15.84711838 0.25098039 0.27450980 0.65882353
v -0.17938611 0.09737195 -15.85082436 0.25098039 0.27450980 0.65882353
v -0.18522805 0.09992249 -15.84350491 0.25098039 0.27450980 0.65882353
v -0.18178043 0.09942908 -15.84782887 0.25098039 0.27450980 0.65882353
v -0.18960142 0.09935893 -15.83922768 0.25098039 0.27450980 0.65882353
v -0.18791535 0.09650076 -15.83772373 0.25098039 0.27450980 0.65882353
v -0.18074957 0.09845595 -15.85054207 0.25098039 0.27450980 0.65882353
v -0.18066767 0.09207324 -15.85309887 0.25098039 0.27450980 0.65882353
v -0.18051267 0.09496368 -15.85366154 0.25098039 0.27450980 0.65882353
v -0.18166655 0.09112876 -15.85242367 0.25098039 0.27450980 0.65882353
v -0.19120921 0.09196562 -15.85221767 0.25098039 0.27450980 0.65882353
v -0.18700199 0.09300693 -15.85485268 0.25098039 0.27450980 0.65882353
v -0.19212651 0.09426865 -15.85290337 0.25098039 0.27450980 0.65882353
v -0.18705991 0.09516023 -15.85519123 0.25098039 0.27450980 0.65882353
v -0.18345854 0.09289105 -15.85530567 0.25098039 0.27450980 0.65882353
v -0.18395045 0.09173406 -15.85396576 0.25098039 0.27450980 0.65882353
v -0.19043131 0.09833788 -15.83768463 0.25098039 0.27450980 0.65882353
v -0.19314238 0.09944150 -15.84093475 0.25098039 0.27450980 0.65882353
v -0.19251409 0.10032147 -15.84269333 0.25098039 0.27450980 0.65882353
v -0.18817674 0.10117944 -15.84651470 0.25098039 0.27450980 0.65882353
v -0.19565216 0.09957144 -15.84638309 0.25098039 0.27450980 0.65882353
v -0.19697635 0.09677561 -15.84893703 0.25098039 0.27450980 0.65882353
v -0.19193771 0.09710789 -15.85243320 0.25098039 0.27450980 0.65882353
v -0.19074175 0.09991964 -15.85051918 0.25098039 0.27450980 0.65882353
v -0.18653396 0.09725891 -15.85473728 0.25098039 0.27450980 0.65882353
v -0.18604034 0.09961128 -15.85279369 0.25098039 0.27450980 0.65882353
v -0.18420371 0.10058799 -15.85006237 0.25098039 0.27450980 0.65882353
v -0.18285388 0.09690735 -15.85458851 0.25098039 0.27450980 0.65882353
v -0.18286380 0.09520113 -15.85539150 0.25098039 0.27450980 0.65882353
v -0.18093082 0.09695937 -15.85332489 0.25098039 0.27450980 0.65882353
v -0.18305451 0.09847009 -15.85348320 0.25098039 0.27450980 0.65882353
v -0.18194868 0.09866715 -15.85221863 0.25098039 0.27450980 0.65882353
v -0.21519144 0.12423077 -15.83444595 0.25098039 0.27450980 0.65882353
v -0.11766815 0.12196165 -15.81960487 0.25098039 0.27450980 0.65882353
v -0.12328500 0.12033610 -15.81896210 0.25098039 0.27450980 0.65882353
v -0.12838916 0.11659771 -15.83535957 0.25098039 0.27450980 0.65882353
v -0.13014114 0.11584955 -15.82774734 0.25098039 0.27450980 0.65882353
v -0.12296495 0.11820915 -15.83995724 0.25098039 0.27450980 0.65882353
v -0.11264932 0.12266994 -15.83708858 0.25098039 0.27450980 0.65882353
v -0.11765859 0.12132228 -15.84019566 0.25098039 0.27450980 0.65882353
v -0.12810451 0.11740881 -15.82197762 0.25098039 0.27450980 0.65882353
v -0.11283778 0.12367193 -15.82324696 0.25098039 0.27450980 0.65882353
v -0.11017281 0.12429447 -15.83051395 0.25098039 0.27450980 0.65882353
v -0.10951659 0.11450398 -15.82207298 0.25098039 0.27450980 0.65882353
v -0.10741025 0.11489908 -15.83020306 0.25098039 0.27450980 0.65882353
v -0.10997318 0.11325473 -15.83718204 0.25098039 0.27450980 0.65882353
v -0.11673512 0.11322427 -15.84010696 0.25098039 0.27450980 0.65882353
v -0.12182805 0.11231294 -15.84018040 0.25098039 0.27450980 0.65882353
v -0.11656828 0.11468986 -15.81881428 0.25098039 0.27450980 0.65882353
v -0.12239501 0.11368679 -15.81862259 0.25098039 0.27450980 0.65882353
v -0.12782526 0.11255924 -15.82273483 0.25098039 0.27450980 0.65882353
v -0.11754020 0.10650877 -15.81838608 0.25098039 0.27450980 0.65882353
v -0.11478291 0.09775113 -15.82279015 0.25098039 0.27450980 0.65882353
v -0.11841790 0.08641072 -15.83813286 0.25098039 0.27450980 0.65882353
v -0.11780888 0.09300027 -15.83871651 0.25098039 0.27450980 0.65882353
v -0.11612135 0.09226610 -15.83642292 0.25098039 0.27450980 0.65882353
v -0.11632769 0.08627301 -15.83639431 0.25098039 0.27450980 0.65882353
v -0.11495507 0.09754048 -15.83719063 0.25098039 0.27450980 0.65882353
v -0.11488053 0.09608040 -15.83525467 0.25098039 0.27450980 0.65882353
v -0.11369099 0.09726863 -15.83001423 0.25098039 0.27450980 0.65882353
v -0.11413255 0.09169799 -15.83019638 0.25098039 0.27450980 0.65882353
v -0.11504118 0.09613675 -15.82510281 0.25098039 0.27450980 0.65882353
v -0.11646381 0.09242211 -15.82435799 0.25098039 0.27450980 0.65882353
v -0.11472285 0.08630769 -15.83008671 0.25098039 0.27450980 0.65882353
v -0.11565292 0.08287394 -15.83465290 0.25098039 0.27450980 0.65882353
v -0.11556640 0.08179612 -15.83014488 0.25098039 0.27450980 0.65882353
v -0.11845653 0.08187421 -15.83562374 0.25098039 0.27450980 0.65882353
v -0.11082464 0.09781297 -15.82967091 0.25098039 0.27450980 0.65882353
v -0.11741124 0.10333934 -15.84039783 0.25098039 0.27450980 0.65882353
v -0.12058084 0.09496743 -15.84031868 0.25098039 0.27450980 0.65882353
v -0.12198104 0.08738609 -15.83875084 0.25098039 0.27450980 0.65882353
v -0.12163265 0.08220892 -15.83548450 0.25098039 0.27450980 0.65882353
v -0.12476645 0.09623425 -15.83965492 0.25098039 0.27450980 0.65882353
v -0.12560442 0.08935649 -15.83724117 0.25098039 0.27450980 0.65882353
v -0.12526298 0.08483966 -15.83358669 0.25098039 0.27450980 0.65882353
v -0.12824711 0.09711831 -15.83619308 0.25098039 0.27450980 0.65882353
v -0.12773491 0.09063270 -15.83408928 0.25098039 0.27450980 0.65882353
v -0.12705280 0.10920794 -15.83608532 0.25098039 0.27450980 0.65882353
v -0.12256712 0.10735957 -15.84039974 0.25098039 0.27450980 0.65882353
v -0.12652954 0.08696404 -15.83230209 0.25098039 0.27450980 0.65882353
v -0.11742057 0.07989492 -15.82992077 0.25098039 0.27450980 0.65882353
v -0.12094793 0.08040071 -15.82959747 0.25098039 0.27450980 0.65882353
v -0.11807978 0.09356996 -15.82144928 0.25098039 0.27450980 0.65882353
v -0.11637405 0.08720842 -15.82399368 0.25098039 0.27450980 0.65882353
v -0.11887524 0.08763047 -15.82218933 0.25098039 0.27450980 0.65882353
v -0.12093726 0.09579275 -15.81963730 0.25098039 0.27450980 0.65882353
v -0.12156770 0.08825695 -15.82124615 0.25098039 0.27450980 0.65882353
v -0.11829934 0.08267500 -15.82456779 0.25098039 0.27450980 0.65882353
v -0.11607669 0.08368363 -15.82593632 0.25098039 0.27450980 0.65882353
v -0.12718074 0.11241361 -15.83634186 0.25098039 0.27450980 0.65882353
v -0.12930410 0.11276715 -15.82954121 0.25098039 0.27450980 0.65882353
v -0.12867785 0.10986348 -15.82916355 0.25098039 0.27450980 0.65882353
v -0.12971589 0.09837435 -15.82968140 0.25098039 0.27450980 0.65882353
v -0.12767658 0.10871233 -15.82261848 0.25098039 0.27450980 0.65882353
v -0.12262529 0.10755395 -15.81871223 0.25098039 0.27450980 0.65882353
v -0.12465099 0.09688477 -15.81999207 0.25098039 0.27450980 0.65882353
v -0.12812865 0.09815225 -15.82346344 0.25098039 0.27450980 0.65882353
v -0.12487730 0.08937915 -15.82244110 0.25098039 0.27450980 0.65882353
v -0.12678140 0.09044986 -15.82471275 0.25098039 0.27450980 0.65882353
v -0.12843652 0.09065174 -15.82957458 0.25098039 0.27450980 0.65882353
v -0.12429096 0.08496317 -15.82515621 0.25098039 0.27450980 0.65882353
v -0.12139957 0.08331706 -15.82406235 0.25098039 0.27450980 0.65882353
v -0.12446938 0.08330330 -15.82920933 0.25098039 0.27450980 0.65882353
v -0.12581649 0.08706372 -15.82619476 0.25098039 0.27450980 0.65882353
v -0.12625355 0.08639854 -15.82923889 0.25098039 0.27450980 0.65882353
v -0.20685810 0.13174845 -15.83791447 0.25098039 0.27450980 0.65882353
v -0.20100299 0.12953174 -15.83502197 0.25098039 0.27450980 0.65882353
v -0.20115209 0.13462234 -15.83775139 0.25098039 0.27450980 0.65882353
v -0.19843541 0.14103243 -15.84277439 0.25098039 0.27450980 0.65882353
v -0.20145640 0.14987741 -15.84767151 0.25098039 0.27450980 0.65882353
v -0.19241628 0.14042136 -15.83882618 0.25098039 0.27450980 0.65882353
v -0.19568992 0.13357639 -15.83381844 0.25098039 0.27450980 0.65882353
v -0.19610226 0.12604374 -15.82925606 0.25098039 0.27450980 0.65882353
v -0.18445466 0.14684196 -15.83838177 0.25098039 0.27450980 0.65882353
f 2 3 1
f 1 3 4
f 5 6 8
f 8 6 7
f 9 4 10
f 10 4 3
f 12 13 11
f 11 13 9
f 14 12 16
f 16 12 15
f 18 19 17
f 17 19 20
f 22 23 21
f 21 23 24
f 26 27 25
f 25 27 28
f 30 31 29
f 29 31 32
f 33 34 36
f 36 34 35
f 37 38 40
f 40 38 39
f 41 42 6
f 6 42 43
f 6 43 7
f 7 43 44
f 45 34 46
f 46 34 33
f 48 49 47
f 47 49 50
f 52 53 51
f 51 53 54
f 56 52 55
f 55 52 51
f 58 59 57
f 57 59 60
f 61 62 4
f 4 62 1
f 64 65 63
f 63 65 66
f 68 69 67
f 67 69 70
f 72 73 71
f 71 73 74
f 76 77 75
f 75 77 78
f 53 79 54
f 54 79 80
f 82 83 81
f 81 83 84
f 85 86 52
f 52 86 53
f 57 60 87
f 87 60 88
f 89 90 43
f 43 90 44
f 43 42 89
f 89 42 91
f 40 39 92
f 92 39 93
f 94 70 64
f 64 70 69
f 13 61 9
f 9 61 4
f 25 28 69
f 69 28 95
f 96 25 68
f 68 25 69
f 98 99 97
f 97 99 100
f 101 102 104
f 104 102 103
f 106 30 105
f 105 30 29
f 51 54 107
f 107 54 108
f 54 80 108
f 108 80 109
f 111 112 110
f 110 112 113
f 115 5 114
f 114 5 116
f 115 41 5
f 5 41 6
f 36 35 111
f 111 35 117
f 35 118 117
f 117 118 119
f 34 120 35
f 35 120 118
f 34 45 120
f 120 45 121
f 125 126 124
f 124 126 127
f 128 129 14
f 14 129 130
f 33 131 46
f 46 131 132
f 133 94 63
f 63 94 64
f 134 135 137
f 137 135 136
f 139 140 138
f 138 140 141
f 77 142 78
f 78 142 143
f 144 145 20
f 20 145 146
f 148 149 147
f 147 149 72
f 151 152 150
f 150 152 153
f 82 101 83
f 83 101 104
f 101 82 155
f 155 82 154
f 156 157 58
f 58 157 59
f 158 68 147
f 147 68 67
f 159 146 15
f 15 146 16
f 68 158 96
f 96 158 160
f 129 66 130
f 130 66 65
f 162 163 161
f 161 163 164
f 166 167 165
f 165 167 168
f 170 171 169
f 169 171 172
f 174 171 173
f 173 171 170
f 176 177 175
f 175 177 178
f 180 181 179
f 179 181 24
f 182 183 21
f 21 183 184
f 81 185 82
f 82 185 154
f 186 187 188
f 188 187 144
f 158 71 160
f 160 71 189
f 190 135 157
f 157 135 59
f 169 172 139
f 139 172 140
f 147 72 158
f 158 72 71
f 192 193 191
f 191 193 194
f 167 166 49
f 49 166 195
f 196 190 50
f 50 190 157
f 197 198 200
f 200 198 199
f 21 24 182
f 182 24 181
f 146 159 20
f 20 159 17
f 182 181 81
f 81 181 185
f 201 185 180
f 180 185 181
f 202 203 83
f 83 203 84
f 205 206 204
f 204 206 85
f 207 22 184
f 184 22 21
f 179 24 208
f 208 24 23
f 208 209 179
f 179 209 205
f 209 210 205
f 205 210 206
f 212 206 211
f 211 206 210
f 179 205 180
f 180 205 204
f 213 176 88
f 88 176 214
f 86 85 212
f 212 85 206
f 193 217 218
f 217 219 218
f 218 219 220
f 219 18 220
f 220 18 17
f 19 221 20
f 20 221 144
f 222 223 225
f 225 223 224
f 175 226 176
f 176 226 214
f 227 87 214
f 214 87 88
f 220 17 228
f 228 17 159
f 134 213 60
f 60 213 88
f 138 229 151
f 151 229 152
f 193 192 210
f 210 192 211
f 230 194 218
f 218 194 193
f 231 232 228
f 228 232 230
f 233 234 91
f 91 234 89
f 235 236 93
f 93 236 92
f 230 232 234
f 234 232 237
f 47 238 48
f 48 238 239
f 240 191 235
f 235 191 236
f 5 8 116
f 116 8 241
f 242 243 189
f 189 243 160
f 244 245 98
f 98 245 99
f 156 246 47
f 47 246 238
f 76 247 77
f 77 247 248
f 250 125 249
f 249 125 124
f 252 253 251
f 251 253 254
f 111 110 36
f 36 110 255
f 256 33 255
f 255 33 36
f 257 258 154
f 154 258 155
f 63 169 133
f 133 169 139
f 66 170 63
f 63 170 169
f 173 170 129
f 129 170 66
f 129 128 173
f 173 128 259
f 128 260 259
f 259 260 261
f 213 134 262
f 262 134 137
f 263 264 186
f 186 264 187
f 112 265 113
f 113 265 266
f 11 267 268
f 234 233 230
f 230 233 194
f 153 269 70
f 70 269 67
f 175 178 165
f 165 178 141
f 150 153 94
f 94 153 70
f 271 221 270
f 270 221 207
f 269 153 272
f 272 153 152
f 121 45 109
f 109 45 108
f 47 50 156
f 156 50 157
f 57 273 58
f 58 273 274
f 145 275 260
f 260 275 261
f 276 149 143
f 143 149 78
f 148 269 75
f 75 269 272
f 207 277 270
f 270 277 278
f 195 196 49
f 49 196 50
f 59 135 60
f 60 135 134
f 83 104 202
f 202 104 279
f 149 148 78
f 78 148 75
f 247 278 248
f 248 278 277
f 183 182 84
f 84 182 81
f 48 239 281
f 281 239 282
f 227 223 283
f 283 223 222
f 223 226 224
f 224 226 168
f 281 282 224
f 224 282 225
f 165 168 175
f 175 168 226
f 264 263 138
f 138 263 229
f 14 16 128
f 128 16 260
f 220 228 218
f 218 228 230
f 87 227 284
f 284 227 283
f 260 16 145
f 145 16 146
f 244 98 258
f 258 98 155
f 58 274 156
f 156 274 246
f 107 285 51
f 51 285 55
f 243 286 160
f 160 286 96
f 234 237 89
f 89 237 90
f 46 132 107
f 107 132 285
f 253 252 249
f 249 252 250
f 286 26 96
f 96 26 25
f 106 105 287
f 287 105 288
f 272 152 289
f 289 152 229
f 138 151 139
f 139 151 133
f 183 290 161
f 161 290 162
f 291 292 277
f 277 292 293
f 151 150 133
f 133 150 94
f 262 275 177
f 177 275 187
f 144 187 145
f 145 187 275
f 273 57 284
f 284 57 87
f 174 136 190
f 190 136 135
f 111 117 112
f 112 117 38
f 117 119 38
f 38 119 123
f 112 38 265
f 265 38 37
f 287 288 254
f 254 288 251
f 228 159 231
f 231 159 15
f 223 227 226
f 226 227 214
f 147 67 148
f 148 67 269
f 224 168 281
f 281 168 167
f 199 163 200
f 200 163 162
f 45 46 108
f 108 46 107
f 281 167 48
f 48 167 49
f 161 164 291
f 291 164 292
f 38 123 39
f 293 294 277
f 277 294 248
f 284 283 296
f 296 283 295
f 284 296 273
f 273 296 297
f 274 273 298
f 298 273 297
f 246 274 299
f 299 274 298
f 283 222 295
f 295 222 300
f 222 225 300
f 300 225 301
f 301 225 302
f 302 225 282
f 303 304 300
f 300 304 295
f 306 307 305
f 305 307 308
f 309 310 308
f 308 310 305
f 308 307 312
f 312 307 311
f 313 314 312
f 312 314 315
f 311 316 312
f 312 316 313
f 317 304 311
f 311 304 316
f 315 309 312
f 312 309 308
f 318 319 321
f 321 319 320
f 319 318 309
f 309 318 310
f 311 307 317
f 317 307 306
f 306 297 317
f 317 297 296
f 306 322 297
f 297 322 298
f 305 323 306
f 306 323 322
f 323 305 324
f 324 305 310
f 304 317 295
f 295 317 296
f 318 325 310
f 310 325 324
f 323 324 326
f 326 324 327
f 324 325 327
f 327 325 328
f 326 327 329
f 329 327 330
f 329 331 326
f 326 331 332
f 333 330 328
f 328 330 327
f 323 326 322
f 322 326 332
f 322 332 298
f 298 332 299
f 325 318 334
f 334 318 321
f 313 316 335
f 335 316 304
f 335 336 313
f 313 336 314
f 304 303 335
f 335 303 337
f 336 335 338
f 338 335 337
f 336 339 314
f 314 339 340
f 246 299 238
f 238 299 341
f 239 342 282
f 282 342 302
f 342 239 341
f 341 239 238
f 341 331 342
f 342 331 343
f 331 329 343
f 343 329 344
f 342 343 302
f 302 343 345
f 341 299 331
f 331 299 332
f 346 301 345
f 345 301 302
f 346 303 301
f 301 303 300
f 347 337 346
f 346 337 303
f 347 346 348
f 348 346 345
f 349 347 350
f 350 347 348
f 343 344 345
f 345 344 348
f 344 351 348
f 348 351 350
f 337 347 338
f 338 347 349
f 353 338 352
f 352 338 349
f 352 355 354
f 354 355 356
f 352 349 355
f 355 349 350
f 352 354 353
f 353 354 334
f 353 334 339
f 339 334 321
f 339 336 353
f 353 336 338
f 329 330 344
f 344 330 351
f 356 351 333
f 333 351 330
f 356 355 351
f 351 355 350
f 354 356 328
f 328 356 333
f 328 325 354
f 354 325 334
f 309 315 319
f 319 315 320
f 320 340 321
f 321 340 339
f 320 315 340
f 340 315 314
f 137 136 261
f 261 136 259
f 140 166 141
f 141 166 165
f 172 171 195
f 195 171 196
f 171 174 196
f 196 174 190
f 178 177 264
f 264 177 187
f 172 195 140
f 140 195 166
f 137 261 262
f 262 261 275
f 178 264 141
f 141 264 138
f 262 177 213
f 213 177 176
f 136 174 259
f 259 174 173
f 358 359 357
f 357 359 360
f 362 363 361
f 361 363 364
f 361 364 365
f 365 364 366
f 367 368 370
f 370 368 369
f 76 371 247
f 247 371 372
f 373 374 362
f 362 374 363
f 376 377 375
f 375 377 378
f 289 229 380
f 380 229 379
f 381 379 263
f 263 379 229
f 383 384 382
f 382 384 385
f 386 368 374
f 374 368 363
f 76 289 371
f 371 289 380
f 377 376 359
f 359 376 387
f 388 386 360
f 360 386 374
f 389 383 366
f 366 383 390
f 392 393 391
f 391 393 394
f 383 382 390
f 390 382 395
f 396 365 390
f 390 365 366
f 389 366 367
f 367 366 364
f 357 397 358
f 358 397 398
f 373 399 357
f 357 399 397
f 389 367 400
f 400 367 370
f 382 385 375
f 375 385 372
f 357 360 373
f 373 360 374
f 361 401 362
f 362 401 402
f 387 388 359
f 359 388 360
f 363 368 364
f 364 368 367
f 358 398 403
f 403 398 404
f 396 392 405
f 405 392 391
f 392 395 393
f 393 395 378
f 393 403 394
f 394 403 404
f 375 378 382
f 382 378 395
f 365 396 406
f 406 396 405
f 362 402 373
f 373 402 399
f 271 270 400
f 400 270 384
f 401 361 406
f 406 361 365
f 381 369 386
f 386 369 368
f 392 396 395
f 395 396 390
f 393 378 403
f 403 378 377
f 403 377 358
f 358 377 359
f 406 405 408
f 408 405 407
f 406 408 401
f 401 408 409
f 401 409 402
f 402 409 410
f 402 410 399
f 399 410 411
f 405 391 407
f 407 391 412
f 391 394 412
f 412 394 413
f 394 404 413
f 413 404 414
f 415 416 412
f 412 416 407
f 418 419 417
f 417 419 420
f 421 422 418
f 418 422 419
f 419 422 424
f 424 422 423
f 425 426 424
f 424 426 427
f 423 428 424
f 424 428 425
f 427 420 424
f 424 420 419
f 420 429 417
f 417 429 430
f 423 422 431
f 431 422 421
f 421 409 431
f 431 409 408
f 421 432 409
f 409 432 410
f 418 433 421
f 421 433 432
f 434 433 417
f 417 433 418
f 431 416 423
f 423 416 428
f 416 431 407
f 407 431 408
f 435 434 430
f 430 434 417
f 433 434 436
f 436 434 437
f 434 435 437
f 437 435 438
f 436 437 439
f 439 437 440
f 439 441 436
f 436 441 442
f 438 443 437
f 437 443 440
f 436 442 433
f 433 442 432
f 432 442 410
f 410 442 411
f 435 430 445
f 445 430 444
f 430 429 444
f 444 429 446
f 425 428 447
f 447 428 416
f 426 425 448
f 448 425 447
f 416 415 447
f 447 415 449
f 447 449 448
f 448 449 450
f 451 452 448
f 448 452 426
f 446 452 444
f 444 452 451
f 399 411 397
f 397 411 453
f 398 454 404
f 404 454 414
f 454 398 453
f 453 398 397
f 453 441 454
f 454 441 455
f 441 439 455
f 455 439 456
f 454 455 414
f 414 455 457
f 441 453 442
f 442 453 411
f 458 413 457
f 457 413 414
f 458 415 413
f 413 415 412
f 458 459 415
f 415 459 449
f 459 458 460
f 460 458 457
f 461 459 462
f 462 459 460
f 455 456 457
f 457 456 460
f 456 463 460
f 460 463 462
f 459 461 449
f 449 461 450
f 465 450 464
f 464 450 461
f 464 467 466
f 466 467 468
f 464 461 467
f 467 461 462
f 464 466 465
f 465 466 445
f 465 445 451
f 451 445 444
f 451 448 465
f 465 448 450
f 439 440 456
f 456 440 463
f 468 463 443
f 443 463 440
f 468 467 463
f 463 467 462
f 466 468 438
f 438 468 443
f 438 435 466
f 466 435 445
f 420 427 429
f 429 427 446
f 446 427 452
f 452 427 426
f 370 369 188
f 188 369 186
f 371 376 372
f 372 376 375
f 380 379 387
f 387 379 388
f 379 381 388
f 388 381 386
f 385 384 278
f 278 384 270
f 380 387 371
f 371 387 376
f 400 370 271
f 271 370 188
f 385 278 372
f 372 278 247
f 400 384 389
f 389 384 383
f 369 381 186
f 186 381 263
f 221 271 144
f 144 271 188
f 221 19 207
f 207 19 22
f 19 18 22
f 22 18 23
f 18 219 23
f 23 219 208
f 469 470 472
f 472 470 471
f 474 475 473
f 473 475 476
f 473 476 477
f 477 476 478
f 480 481 479
f 479 481 482
f 483 484 474
f 474 484 475
f 486 487 485
f 485 487 488
f 489 490 77
f 77 490 142
f 491 489 248
f 248 489 77
f 493 494 492
f 492 494 495
f 496 480 484
f 484 480 475
f 486 497 487
f 487 497 471
f 498 496 472
f 472 496 484
f 499 493 478
f 478 493 500
f 501 502 504
f 504 502 503
f 493 492 500
f 500 492 505
f 506 477 500
f 500 477 478
f 499 478 479
f 479 478 476
f 469 507 470
f 470 507 508
f 483 509 469
f 469 509 507
f 479 482 499
f 499 482 510
f 492 495 485
f 485 495 511
f 483 469 484
f 484 469 472
f 473 512 474
f 474 512 513
f 497 498 471
f 471 498 472
f 475 480 476
f 476 480 479
f 470 508 514
f 514 508 515
f 506 502 516
f 516 502 501
f 503 502 488
f 488 502 505
f 514 515 503
f 503 515 504
f 485 488 492
f 492 488 505
f 477 506 517
f 517 506 516
f 474 513 483
f 483 513 509
f 510 292 494
f 494 292 164
f 512 473 517
f 517 473 477
f 491 481 496
f 496 481 480
f 502 506 505
f 505 506 500
f 503 488 514
f 514 488 487
f 514 487 470
f 470 487 471
f 517 516 519
f 519 516 518
f 517 519 512
f 512 519 520
f 512 520 513
f 513 520 521
f 513 521 509
f 509 521 522
f 516 501 518
f 518 501 523
f 501 504 523
f 523 504 524
f 524 504 525
f 525 504 515
f 526 527 523
f 523 527 518
f 529 530 528
f 528 530 531
f 532 533 529
f 529 533 530
f 530 533 535
f 535 533 534
f 536 537 535
f 535 537 538
f 534 539 535
f 535 539 536
f 538 531 535
f 535 531 530
f 540 541 531
f 531 541 528
f 533 532 534
f 534 532 542
f 532 520 542
f 542 520 519
f 532 543 520
f 520 543 521
f 529 544 532
f 532 544 543
f 544 529 545
f 545 529 528
f 534 542 539
f 539 542 527
f 527 542 518
f 518 542 519
f 541 546 528
f 528 546 545
f 547 544 548
f 548 544 545
f 546 549 545
f 545 549 548
f 550 547 551
f 551 547 548
f 547 550 553
f 553 550 552
f 549 554 548
f 548 554 551
f 544 547 543
f 543 547 553
f 543 553 521
f 521 553 522
f 546 541 556
f 556 541 555
f 541 540 555
f 555 540 557
f 536 539 558
f 558 539 527
f 537 536 559
f 559 536 558
f 527 526 558
f 558 526 560
f 559 558 561
f 561 558 560
f 559 562 537
f 537 562 563
f 557 563 555
f 555 563 562
f 509 522 507
f 507 522 564
f 508 565 515
f 515 565 525
f 565 508 564
f 564 508 507
f 564 552 565
f 565 552 566
f 552 550 566
f 566 550 567
f 565 566 525
f 525 566 568
f 564 522 552
f 552 522 553
f 569 524 568
f 568 524 525
f 569 526 524
f 524 526 523
f 570 560 569
f 569 560 526
f 570 569 571
f 571 569 568
f 572 570 573
f 573 570 571
f 566 567 568
f 568 567 571
f 567 574 571
f 571 574 573
f 570 572 560
f 560 572 561
f 576 561 575
f 575 561 572
f 575 578 577
f 577 578 579
f 575 572 578
f 578 572 573
f 575 577 576
f 576 577 556
f 576 556 562
f 562 556 555
f 562 559 576
f 576 559 561
f 550 551 567
f 567 551 574
f 579 574 554
f 554 574 551
f 579 578 574
f 574 578 573
f 579 554 577
f 577 554 549
f 549 546 577
f 577 546 556
f 531 538 540
f 540 538 557
f 557 538 563
f 563 538 537
f 481 294 482
f 482 294 293
f 580 486 511
f 511 486 485
f 490 489 497
f 497 489 498
f 489 491 498
f 498 491 496
f 163 495 164
f 164 495 494
f 580 490 486
f 486 490 497
f 482 293 510
f 510 293 292
f 495 163 511
f 511 163 199
f 494 493 510
f 510 493 499
f 481 491 294
f 294 491 248
f 582 583 581
f 581 583 584
f 586 587 585
f 585 587 588
f 585 588 589
f 589 588 590
f 592 593 591
f 591 593 594
f 595 596 598
f 598 596 597
f 599 600 586
f 586 600 587
f 601 602 604
f 604 602 603
f 605 606 608
f 608 606 607
f 609 607 200
f 200 607 606
f 610 611 613
f 613 611 612
f 600 614 587
f 587 614 592
f 596 605 597
f 597 605 608
f 602 615 603
f 603 615 583
f 616 614 584
f 584 614 600
f 611 618 617
f 617 618 590
f 620 621 619
f 619 621 622
f 610 623 611
f 611 623 618
f 624 589 618
f 618 589 590
f 617 590 591
f 591 590 588
f 581 625 582
f 582 625 626
f 599 627 581
f 581 627 625
f 591 594 617
f 617 594 628
f 601 610 598
f 598 610 613
f 581 584 599
f 599 584 600
f 585 629 586
f 586 629 630
f 615 616 583
f 583 616 584
f 587 592 588
f 588 592 591
f 582 626 631
f 631 626 632
f 624 620 633
f 633 620 619
f 621 620 604
f 604 620 623
f 631 632 621
f 621 632 622
f 610 601 623
f 623 601 604
f 589 624 634
f 634 624 633
f 586 630 599
f 599 630 627
f 203 202 628
f 628 202 612
f 629 585 634
f 634 585 589
f 609 593 614
f 614 593 592
f 620 624 623
f 623 624 618
f 631 621 603
f 603 621 604
f 582 631 583
f 583 631 603
f 634 633 636
f 636 633 635
f 634 636 629
f 629 636 637
f 629 637 630
f 630 637 638
f 630 638 627
f 627 638 639
f 633 619 635
f 635 619 640
f 619 622 640
f 640 622 641
f 641 622 642
f 642 622 632
f 644 635 643
f 643 635 640
f 645 646 648
f 648 646 647
f 649 650 646
f 646 650 647
f 647 650 652
f 652 650 651
f 652 653 655
f 655 653 654
f 651 656 652
f 652 656 653
f 655 648 652
f 652 648 647
f 648 657 645
f 645 657 658
f 650 649 651
f 651 649 659
f 649 637 659
f 659 637 636
f 649 660 637
f 637 660 638
f 661 660 646
f 646 660 649
f 662 661 645
f 645 661 646
f 651 659 656
f 656 659 644
f 644 659 635
f 635 659 636
f 663 662 658
f 658 662 645
f 664 661 665
f 665 661 662
f 663 666 662
f 662 666 665
f 667 664 668
f 668 664 665
f 664 667 670
f 670 667 669
f 666 671 665
f 665 671 668
f 661 664 660
f 660 664 670
f 660 670 638
f 638 670 639
f 658 672 663
f 663 672 673
f 658 657 672
f 672 657 674
f 653 656 675
f 675 656 644
f 653 675 654
f 654 675 676
f 675 644 677
f 677 644 643
f 676 675 678
f 678 675 677
f 679 680 676
f 676 680 654
f 674 680 672
f 672 680 679
f 627 639 625
f 625 639 681
f 626 682 632
f 632 682 642
f 681 682 625
f 625 682 626
f 669 683 681
f 681 683 682
f 667 684 669
f 669 684 683
f 682 683 642
f 642 683 685
f 681 639 669
f 669 639 670
f 686 641 685
f 685 641 642
f 641 686 640
f 640 686 643
f 686 687 643
f 643 687 677
f 687 686 688
f 688 686 685
f 689 687 690
f 690 687 688
f 683 684 685
f 685 684 688
f 684 691 688
f 688 691 690
f 687 689 677
f 677 689 678
f 693 678 692
f 692 678 689
f 692 695 694
f 694 695 696
f 692 689 695
f 695 689 690
f 692 694 693
f 693 694 673
f 693 673 679
f 679 673 672
f 679 676 693
f 693 676 678
f 684 667 691
f 691 667 668
f 696 691 671
f 671 691 668
f 696 695 691
f 691 695 690
f 694 696 666
f 666 696 671
f 666 663 694
f 694 663 673
f 648 655 657
f 657 655 674
f 674 655 680
f 680 655 654
f 593 162 594
f 594 162 290
f 598 597 601
f 601 597 602
f 615 608 616
f 616 608 607
f 607 609 616
f 616 609 614
f 697 595 613
f 613 595 598
f 597 608 602
f 602 608 615
f 594 290 628
f 628 290 203
f 628 612 617
f 617 612 611
f 593 609 162
f 162 609 200
f 105 29 698
f 698 29 699
f 268 126 701
f 701 126 700
f 126 125 700
f 700 125 702
f 252 703 250
f 250 703 704
f 32 268 705
f 705 268 701
f 288 105 706
f 706 105 698
f 29 32 699
f 699 32 705
f 707 251 706
f 706 251 288
f 250 704 125
f 125 704 702
f 703 252 707
f 707 252 251
f 706 708 707
f 707 708 709
f 707 709 703
f 703 709 710
f 703 710 704
f 704 710 711
f 704 711 702
f 702 711 712
f 706 698 708
f 708 698 713
f 698 699 713
f 713 699 714
f 699 705 714
f 714 705 715
f 717 708 716
f 716 708 713
f 719 720 718
f 718 720 721
f 722 723 719
f 719 723 720
f 724 725 723
f 723 725 720
f 724 726 725
f 725 726 727
f 728 721 725
f 725 721 720
f 721 728 729
f 729 728 730
f 729 731 721
f 721 731 718
f 724 723 732
f 732 723 722
f 722 710 732
f 732 710 709
f 722 733 710
f 710 733 711
f 719 734 722
f 722 734 733
f 734 719 735
f 735 719 718
f 724 732 726
f 726 732 717
f 717 732 708
f 708 732 709
f 731 736 718
f 718 736 735
f 737 734 738
f 738 734 735
f 736 739 735
f 735 739 738
f 740 737 741
f 741 737 738
f 737 740 743
f 743 740 742
f 739 744 738
f 738 744 741
f 734 737 733
f 733 737 743
f 733 743 711
f 711 743 712
f 736 731 746
f 746 731 745
f 731 729 745
f 745 729 730
f 727 726 747
f 747 726 717
f 748 727 749
f 749 727 747
f 747 717 750
f 750 717 716
f 749 747 751
f 751 747 750
f 749 752 748
f 748 752 753
f 730 753 745
f 745 753 752
f 728 725 748
f 748 725 727
f 730 728 753
f 753 728 748
f 700 702 754
f 754 702 712
f 705 701 715
f 715 701 755
f 754 755 700
f 700 755 701
f 742 756 754
f 754 756 755
f 740 757 742
f 742 757 756
f 755 756 715
f 715 756 758
f 754 712 742
f 742 712 743
f 759 714 758
f 758 714 715
f 714 759 713
f 713 759 716
f 759 760 716
f 716 760 750
f 760 759 761
f 761 759 758
f 762 760 763
f 763 760 761
f 756 757 758
f 758 757 761
f 757 764 761
f 761 764 763
f 760 762 750
f 750 762 751
f 766 751 765
f 765 751 762
f 767 765 769
f 769 765 768
f 765 762 768
f 768 762 763
f 765 767 766
f 766 767 746
f 766 746 752
f 752 746 745
f 752 749 766
f 766 749 751
f 757 740 764
f 764 740 741
f 769 764 744
f 744 764 741
f 769 768 764
f 764 768 763
f 767 769 739
f 739 769 744
f 739 736 767
f 767 736 746
f 219 217 208
f 208 217 209
f 209 217 210
f 210 217 193
f 198 580 199
f 199 580 511
f 76 75 289
f 289 75 272
f 277 207 291
f 291 207 184
f 290 183 203
f 203 183 84
f 490 580 142
f 142 580 198
f 142 198 143
f 143 198 197
f 149 276 72
f 72 276 73
f 104 103 279
f 279 103 770
f 770 596 279
f 279 596 595
f 605 596 771
f 771 596 770
f 771 770 772
f 772 770 103
f 772 103 773
f 773 103 102
f 155 774 101
f 101 774 102
f 773 102 97
f 97 102 774
f 775 773 100
f 100 773 97
f 773 775 772
f 772 775 776
f 772 776 771
f 771 776 777
f 200 606 197
f 197 606 777
f 189 71 778
f 778 71 74
f 97 774 98
f 98 774 155
f 183 161 184
f 184 161 291
f 777 276 197
f 197 276 143
f 777 606 771
f 771 606 605
f 613 612 697
f 697 612 202
f 595 697 279
f 279 697 202
f 73 276 776
f 776 276 777
f 776 775 73
f 73 775 74
f 100 778 775
f 775 778 74
f 778 100 189
f 189 100 99
f 245 242 99
f 99 242 189
f 131 33 256
f 28 1 95
f 95 1 62
f 27 2 28
f 28 2 1
f 265 115 266
f 266 115 114
f 95 62 69
f 69 62 64
f 62 61 64
f 64 61 65
f 61 13 65
f 65 13 130
f 13 12 130
f 130 12 14
f 31 11 32
f 32 11 268
f 15 12 31
f 31 12 11
f 31 30 15
f 15 30 231
f 30 106 231
f 231 106 232
f 287 237 106
f 106 237 232
f 254 90 287
f 287 90 237
f 253 44 254
f 254 44 90
f 253 249 44
f 44 249 7
f 267 127 268
f 268 127 126
f 10 3 241
f 241 3 116
f 3 2 116
f 116 2 114
f 2 27 114
f 114 27 266
f 27 26 266
f 266 26 113
f 26 286 113
f 113 286 110
f 286 243 110
f 110 243 255
f 243 242 255
f 255 242 256
f 242 245 256
f 256 245 131
f 245 244 131
f 131 244 132
f 265 37 115
f 115 37 41
f 41 37 42
f 42 37 40
f 92 91 40
f 40 91 42
f 236 233 92
f 92 233 91
f 191 194 236
f 236 194 233
f 258 285 244
f 244 285 132
f 257 55 258
f 258 55 285
f 257 154 201
f 201 154 185
f 56 201 204
f 204 201 180
f 55 257 56
f 56 257 201
f 204 85 56
f 56 85 52
f 86 122 53
f 53 122 79
f 212 215 86
f 86 215 122
f 211 216 212
f 212 216 215
f 192 280 211
f 211 280 216
f 191 240 192
f 192 240 280
f 249 124 7
f 7 124 8
f 124 127 8
f 8 127 241
f 127 267 241
f 241 267 10
f 10 267 9
f 9 267 11
f 93 39 235
f 235 39 240
f 39 123 240
f 240 123 280
f 123 119 280
f 280 119 216
f 119 118 216
f 216 118 215
f 118 120 215
f 215 120 122
f 120 121 122
f 122 121 79
f 121 109 79
f 79 109 80

