# https://github.com/mikedh/trimesh
v -0.19340679 0.15848386 -18.34419441 0.25098039 0.27450980 0.65882353
v -0.19033867 0.16324505 -18.35361099 0.25098039 0.27450980 0.65882353
v -0.18326102 0.15626073 -18.34921455 0.25098039 0.27450980 0.65882353
v -0.18680573 0.15318692 -18.33897400 0.25098039 0.27450980 0.65882353
v -0.17244418 0.16667320 -18.36726189 0.25098039 0.27450980 0.65882353
v -0.16381876 0.17534925 -18.36723709 0.25098039 0.27450980 0.65882353
v -0.15899131 0.16379188 -18.35906410 0.25098039 0.27450980 0.65882353
v -0.16690928 0.15743002 -18.36052895 0.25098039 0.27450980 0.65882353
v -0.18193454 0.15000057 -18.33308983 0.25098039 0.27450980 0.65882353
v -0.17812082 0.15065080 -18.34479904 0.25098039 0.27450980 0.65882353
v -0.17877930 0.15243845 -18.32839584 0.25098039 0.27450980 0.65882353
v -0.18602705 0.15667839 -18.31623268 0.25098039 0.27450980 0.65882353
v -0.18679212 0.15210450 -18.32229805 0.25098039 0.27450980 0.65882353
v -0.19165628 0.15555036 -18.30935097 0.25098039 0.27450980 0.65882353
v -0.18783288 0.16776532 -18.31469345 0.25098039 0.27450980 0.65882353
v -0.19881696 0.16141137 -18.30631828 0.25098039 0.27450980 0.65882353
v -0.21535596 0.17875236 -18.32420158 0.25098039 0.27450980 0.65882353
v -0.22580920 0.17849076 -18.33355522 0.25098039 0.27450980 0.65882353
v -0.23067610 0.16611741 -18.32398415 0.25098039 0.27450980 0.65882353
v -0.21948390 0.16697922 -18.31557083 0.25098039 0.27450980 0.65882353
v -0.24087991 0.16631657 -18.34284592 0.25098039 0.27450980 0.65882353
v -0.23596221 0.16568272 -18.33184624 0.25098039 0.27450980 0.65882353
v -0.23161471 0.17877853 -18.34098434 0.25098039 0.27450980 0.65882353
v -0.23626709 0.17873113 -18.35034943 0.25098039 0.27450980 0.65882353
v -0.20407337 0.16389772 -18.35507393 0.25098039 0.27450980 0.65882353
v -0.20163414 0.16978936 -18.36347961 0.25098039 0.27450980 0.65882353
v -0.19833905 0.16874978 -18.35916710 0.25098039 0.27450980 0.65882353
v -0.20026655 0.16325022 -18.35116959 0.25098039 0.27450980 0.65882353
v -0.16601808 0.15652584 -18.32842445 0.25098039 0.27450980 0.65882353
v -0.17196730 0.16802725 -18.32596397 0.25098039 0.27450980 0.65882353
v -0.17633927 0.16085908 -18.32451248 0.25098039 0.27450980 0.65882353
v -0.16848777 0.15162328 -18.33086967 0.25098039 0.27450980 0.65882353
v -0.19805723 0.18102820 -18.38984871 0.25098039 0.27450980 0.65882353
v -0.19677082 0.19465989 -18.39328194 0.25098039 0.27450980 0.65882353
v -0.19233668 0.19594641 -18.38946342 0.25098039 0.27450980 0.65882353
v -0.19495563 0.18358378 -18.38667679 0.25098039 0.27450980 0.65882353
v -0.17490678 0.19217052 -18.37657356 0.25098039 0.27450980 0.65882353
v -0.17839807 0.20148538 -18.37846565 0.25098039 0.27450980 0.65882353
v -0.17402101 0.21270436 -18.37189102 0.25098039 0.27450980 0.65882353
v -0.17131697 0.20469373 -18.36679459 0.25098039 0.27450980 0.65882353
v -0.16914529 0.18302117 -18.37227058 0.25098039 0.27450980 0.65882353
v -0.16521233 0.19396093 -18.36454201 0.25098039 0.27450980 0.65882353
v -0.16007397 0.18414971 -18.36022568 0.25098039 0.27450980 0.65882353
v -0.15527987 0.17073849 -18.35335541 0.25098039 0.27450980 0.65882353
v -0.20801379 0.19395410 -18.39976311 0.25098039 0.27450980 0.65882353
v -0.21047035 0.18382287 -18.39874840 0.25098039 0.27450980 0.65882353
v -0.19986844 0.11022686 -18.29365158 0.25098039 0.27450980 0.65882353
v -0.20393023 0.10793201 -18.29737091 0.25098039 0.27450980 0.65882353
v -0.20367414 0.11234473 -18.29899025 0.25098039 0.27450980 0.65882353
v -0.19985878 0.11391694 -18.29482651 0.25098039 0.27450980 0.65882353
v -0.22788528 0.19650868 -18.39511681 0.25098039 0.27450980 0.65882353
v -0.23253736 0.20278046 -18.38820076 0.25098039 0.27450980 0.65882353
v -0.23032621 0.20678160 -18.39375496 0.25098039 0.27450980 0.65882353
v -0.22442573 0.20163773 -18.39931870 0.25098039 0.27450980 0.65882353
v -0.23228604 0.18960105 -18.38941956 0.25098039 0.27450980 0.65882353
v -0.23481345 0.19670168 -18.38050270 0.25098039 0.27450980 0.65882353
v -0.20520653 0.11233388 -18.28221130 0.25098039 0.27450980 0.65882353
v -0.20089339 0.11189134 -18.28494453 0.25098039 0.27450980 0.65882353
v -0.20168117 0.11666091 -18.28518677 0.25098039 0.27450980 0.65882353
v -0.20646814 0.11740398 -18.28320312 0.25098039 0.27450980 0.65882353
v -0.18978098 0.15126981 -18.32924843 0.25098039 0.27450980 0.65882353
v -0.19538364 0.15305066 -18.33651733 0.25098039 0.27450980 0.65882353
v -0.19741115 0.14038107 -18.31673622 0.25098039 0.27450980 0.65882353
v -0.19783664 0.14605981 -18.32449150 0.25098039 0.27450980 0.65882353
v -0.19242492 0.14852004 -18.32062721 0.25098039 0.27450980 0.65882353
v -0.19313091 0.14456747 -18.31376266 0.25098039 0.27450980 0.65882353
v -0.21415216 0.14832394 -18.34183311 0.25098039 0.27450980 0.65882353
v -0.21035036 0.15655360 -18.34929466 0.25098039 0.27450980 0.65882353
v -0.20629576 0.15603966 -18.34404564 0.25098039 0.27450980 0.65882353
v -0.20859306 0.14659475 -18.33536720 0.25098039 0.27450980 0.65882353
v -0.21891665 0.15448987 -18.36065674 0.25098039 0.27450980 0.65882353
v -0.22220013 0.14675081 -18.35227776 0.25098039 0.27450980 0.65882353
v -0.22686163 0.14652094 -18.35973740 0.25098039 0.27450980 0.65882353
v -0.22316006 0.15145707 -18.36485672 0.25098039 0.27450980 0.65882353
v -0.22592297 0.13387835 -18.33542824 0.25098039 0.27450980 0.65882353
v -0.22973612 0.12985998 -18.32871246 0.25098039 0.27450980 0.65882353
v -0.23205756 0.12954491 -18.33024406 0.25098039 0.27450980 0.65882353
v -0.22844163 0.13408387 -18.33800507 0.25098039 0.27450980 0.65882353
v -0.22841132 0.21161690 -18.39837646 0.25098039 0.27450980 0.65882353
v -0.22072829 0.20695183 -18.40248871 0.25098039 0.27450980 0.65882353
v -0.24933966 0.16374250 -18.36261368 0.25098039 0.27450980 0.65882353
v -0.24767889 0.16157539 -18.37352180 0.25098039 0.27450980 0.65882353
v -0.25358653 0.15123129 -18.36848640 0.25098039 0.27450980 0.65882353
v -0.25366113 0.15640979 -18.35822868 0.25098039 0.27450980 0.65882353
v -0.23202930 0.20746812 -18.37849617 0.25098039 0.27450980 0.65882353
v -0.23201616 0.21194586 -18.38476372 0.25098039 0.27450980 0.65882353
v -0.21117072 0.11131006 -18.28252029 0.25098039 0.27450980 0.65882353
v -0.21230426 0.11632586 -18.28416634 0.25098039 0.27450980 0.65882353
v -0.16436337 0.19321457 -18.34985924 0.25098039 0.27450980 0.65882353
v -0.15678076 0.17677411 -18.34458733 0.25098039 0.27450980 0.65882353
v -0.17096160 0.20529498 -18.35504341 0.25098039 0.27450980 0.65882353
v -0.17631723 0.21373692 -18.35872269 0.25098039 0.27450980 0.65882353
v -0.17822286 0.22083950 -18.36314392 0.25098039 0.27450980 0.65882353
v -0.20347618 0.14209694 -18.32570839 0.25098039 0.27450980 0.65882353
v -0.20042717 0.15727994 -18.34325981 0.25098039 0.27450980 0.65882353
v -0.20730272 0.16367543 -18.35891151 0.25098039 0.27450980 0.65882353
v -0.22671713 0.15495056 -18.38183975 0.25098039 0.27450980 0.65882353
v -0.22244960 0.16222320 -18.38844490 0.25098039 0.27450980 0.65882353
v -0.21613023 0.16020945 -18.37978363 0.25098039 0.27450980 0.65882353
v -0.22157837 0.15465951 -18.37546539 0.25098039 0.27450980 0.65882353
v -0.24339244 0.15499933 -18.37956047 0.25098039 0.27450980 0.65882353
v -0.23707932 0.14984769 -18.37842751 0.25098039 0.27450980 0.65882353
v -0.24120520 0.14342511 -18.37306976 0.25098039 0.27450980 0.65882353
v -0.24801582 0.14700997 -18.37388611 0.25098039 0.27450980 0.65882353
v -0.15964811 0.16079640 -18.32884407 0.25098039 0.27450980 0.65882353
v -0.16775675 0.17382048 -18.32826042 0.25098039 0.27450980 0.65882353
v -0.21993554 0.19046395 -18.39916229 0.25098039 0.27450980 0.65882353
v -0.21559171 0.19661638 -18.40099907 0.25098039 0.27450980 0.65882353
v -0.21334228 0.20457020 -18.40366745 0.25098039 0.27450980 0.65882353
v -0.19848502 0.17526874 -18.37638283 0.25098039 0.27450980 0.65882353
v -0.19272590 0.18523379 -18.38471794 0.25098039 0.27450980 0.65882353
v -0.18972206 0.18520428 -18.38209534 0.25098039 0.27450980 0.65882353
v -0.19744520 0.17589699 -18.37365150 0.25098039 0.27450980 0.65882353
v -0.18659258 0.16801159 -18.36469650 0.25098039 0.27450980 0.65882353
v -0.18028019 0.17594957 -18.37364960 0.25098039 0.27450980 0.65882353
v -0.17975149 0.15929140 -18.36026764 0.25098039 0.27450980 0.65882353
v -0.18606740 0.19926499 -18.38515854 0.25098039 0.27450980 0.65882353
v -0.18949476 0.20502788 -18.39392853 0.25098039 0.27450980 0.65882353
v -0.18323398 0.20796329 -18.38805771 0.25098039 0.27450980 0.65882353
v -0.19777212 0.20387703 -18.39933205 0.25098039 0.27450980 0.65882353
v -0.20616713 0.20340464 -18.40272713 0.25098039 0.27450980 0.65882353
v -0.23288563 0.21871105 -18.38945580 0.25098039 0.27450980 0.65882353
v -0.17854273 0.21080458 -18.38145828 0.25098039 0.27450980 0.65882353
v -0.16398273 0.15128826 -18.35478973 0.25098039 0.27450980 0.65882353
v -0.16033550 0.14625327 -18.34973335 0.25098039 0.27450980 0.65882353
v -0.16671176 0.14428145 -18.34469604 0.25098039 0.27450980 0.65882353
v -0.17082053 0.14839700 -18.34959221 0.25098039 0.27450980 0.65882353
v -0.19629967 0.15121537 -18.30243492 0.25098039 0.27450980 0.65882353
v -0.19261187 0.14699683 -18.30800819 0.25098039 0.27450980 0.65882353
v -0.18908638 0.15217605 -18.31513214 0.25098039 0.27450980 0.65882353
v -0.20518960 0.17241049 -18.38732338 0.25098039 0.27450980 0.65882353
v -0.21536502 0.17496523 -18.39538956 0.25098039 0.27450980 0.65882353
v -0.20324937 0.13670397 -18.31727600 0.25098039 0.27450980 0.65882353
v -0.20716968 0.12252574 -18.28466225 0.25098039 0.27450980 0.65882353
v -0.20172158 0.12160749 -18.28667259 0.25098039 0.27450980 0.65882353
v -0.19908600 0.13837692 -18.29485512 0.25098039 0.27450980 0.65882353
v -0.20553058 0.13924807 -18.29184341 0.25098039 0.27450980 0.65882353
v -0.21188450 0.13247702 -18.31081390 0.25098039 0.27450980 0.65882353
v -0.20532054 0.13345212 -18.31354523 0.25098039 0.27450980 0.65882353
v -0.20690340 0.13175809 -18.31182671 0.25098039 0.27450980 0.65882353
v -0.21307504 0.12932418 -18.31024361 0.25098039 0.27450980 0.65882353
v -0.23549311 0.13040826 -18.33908272 0.25098039 0.27450980 0.65882353
v -0.23272735 0.13445093 -18.34565926 0.25098039 0.27450980 0.65882353
v -0.22270185 0.15272494 -18.30903435 0.25098039 0.27450980 0.65882353
v -0.21260037 0.15861414 -18.30153084 0.25098039 0.27450980 0.65882353
v -0.20891151 0.16686967 -18.30907631 0.25098039 0.27450980 0.65882353
v -0.21854576 0.14817978 -18.34806252 0.25098039 0.27450980 0.65882353
v -0.22241566 0.14023590 -18.34204674 0.25098039 0.27450980 0.65882353
v -0.22535717 0.13998634 -18.34513664 0.25098039 0.27450980 0.65882353
v -0.20750254 0.13921186 -18.32484245 0.25098039 0.27450980 0.65882353
v -0.20903802 0.13470788 -18.31808662 0.25098039 0.27450980 0.65882353
v -0.21206087 0.13585174 -18.32257462 0.25098039 0.27450980 0.65882353
v -0.21108243 0.14028603 -18.32894516 0.25098039 0.27450980 0.65882353
v -0.24310346 0.17255478 -18.37917328 0.25098039 0.27450980 0.65882353
v -0.23815387 0.16472811 -18.38651848 0.25098039 0.27450980 0.65882353
v -0.19887924 0.11138374 -18.28912354 0.25098039 0.27450980 0.65882353
v -0.19919732 0.11558838 -18.28970528 0.25098039 0.27450980 0.65882353
v -0.21474227 0.15639196 -18.35511589 0.25098039 0.27450980 0.65882353
v -0.20487818 0.17631724 -18.31869888 0.25098039 0.27450980 0.65882353
v -0.21055128 0.16309370 -18.36325645 0.25098039 0.27450980 0.65882353
v -0.24986362 0.14626384 -18.34274864 0.25098039 0.27450980 0.65882353
v -0.24885462 0.14018242 -18.34671593 0.25098039 0.27450980 0.65882353
v -0.24906206 0.13553321 -18.34248543 0.25098039 0.27450980 0.65882353
v -0.25201431 0.13924289 -18.33850098 0.25098039 0.27450980 0.65882353
v -0.21527478 0.11607094 -18.30227470 0.25098039 0.27450980 0.65882353
v -0.20967337 0.11488977 -18.30378532 0.25098039 0.27450980 0.65882353
v -0.20966150 0.11105426 -18.30088806 0.25098039 0.27450980 0.65882353
v -0.21524130 0.11150961 -18.29903221 0.25098039 0.27450980 0.65882353
v -0.19983843 0.13563371 -18.31242943 0.25098039 0.27450980 0.65882353
v -0.19520026 0.13917041 -18.30918312 0.25098039 0.27450980 0.65882353
v -0.19703314 0.13385971 -18.30649567 0.25098039 0.27450980 0.65882353
v -0.20199279 0.13204390 -18.30980492 0.25098039 0.27450980 0.65882353
v -0.19511138 0.14190812 -18.30310059 0.25098039 0.27450980 0.65882353
v -0.19592682 0.13656308 -18.30052185 0.25098039 0.27450980 0.65882353
v -0.21886978 0.11848955 -18.29704666 0.25098039 0.27450980 0.65882353
v -0.21813501 0.12119904 -18.28986359 0.25098039 0.27450980 0.65882353
v -0.21810409 0.13578138 -18.29760742 0.25098039 0.27450980 0.65882353
v -0.21765488 0.13026938 -18.30393791 0.25098039 0.27450980 0.65882353
v -0.23232755 0.19156572 -18.35711288 0.25098039 0.27450980 0.65882353
v -0.23753086 0.18922925 -18.36684608 0.25098039 0.27450980 0.65882353
v -0.24176817 0.17655762 -18.36021614 0.25098039 0.27450980 0.65882353
v -0.24676865 0.16470583 -18.35391235 0.25098039 0.27450980 0.65882353
v -0.24999370 0.15317167 -18.34792900 0.25098039 0.27450980 0.65882353
v -0.24592607 0.15664122 -18.33695412 0.25098039 0.27450980 0.65882353
v -0.24409975 0.17552082 -18.36814308 0.25098039 0.27450980 0.65882353
v -0.21988273 0.13847288 -18.30890274 0.25098039 0.27450980 0.65882353
v -0.21815827 0.14562632 -18.30345917 0.25098039 0.27450980 0.65882353
v -0.22274053 0.14510767 -18.30750465 0.25098039 0.27450980 0.65882353
v -0.21435648 0.16073389 -18.36937523 0.25098039 0.27450980 0.65882353
v -0.19860336 0.12012666 -18.29113007 0.25098039 0.27450980 0.65882353
v -0.19832195 0.22042844 -18.35368347 0.25098039 0.27450980 0.65882353
v -0.21128821 0.22049846 -18.35833740 0.25098039 0.27450980 0.65882353
v -0.21059832 0.21354607 -18.35314369 0.25098039 0.27450980 0.65882353
v -0.19581318 0.21301636 -18.34809875 0.25098039 0.27450980 0.65882353
v -0.20285873 0.11585143 -18.30189896 0.25098039 0.27450980 0.65882353
v -0.19838953 0.11771174 -18.29730225 0.25098039 0.27450980 0.65882353
v -0.23789215 0.13272399 -18.34988976 0.25098039 0.27450980 0.65882353
v -0.23979196 0.12997945 -18.34332275 0.25098039 0.27450980 0.65882353
v -0.24389747 0.13018978 -18.34347916 0.25098039 0.27450980 0.65882353
v -0.24312301 0.13076241 -18.35109711 0.25098039 0.27450980 0.65882353
v -0.23884550 0.18862158 -18.37283325 0.25098039 0.27450980 0.65882353
v -0.25642541 0.14400059 -18.36523247 0.25098039 0.27450980 0.65882353
v -0.25672641 0.14917225 -18.35661507 0.25098039 0.27450980 0.65882353
v -0.23342252 0.20034960 -18.37241745 0.25098039 0.27450980 0.65882353
v -0.22940725 0.20290229 -18.36364365 0.25098039 0.27450980 0.65882353
v -0.22786921 0.21101964 -18.36870193 0.25098039 0.27450980 0.65882353
v -0.23950568 0.15166473 -18.32301331 0.25098039 0.27450980 0.65882353
v -0.22825050 0.19109681 -18.34933662 0.25098039 0.27450980 0.65882353
v -0.22496301 0.20271176 -18.35728836 0.25098039 0.27450980 0.65882353
v -0.22286509 0.21240439 -18.36294556 0.25098039 0.27450980 0.65882353
v -0.22232437 0.21956801 -18.36702538 0.25098039 0.27450980 0.65882353
v -0.22758681 0.21701768 -18.37316704 0.25098039 0.27450980 0.65882353
v -0.21345904 0.12179516 -18.28611183 0.25098039 0.27450980 0.65882353
v -0.21776870 0.11484557 -18.28774643 0.25098039 0.27450980 0.65882353
v -0.22845554 0.22446370 -18.37777138 0.25098039 0.27450980 0.65882353
v -0.22205064 0.22661939 -18.37108803 0.25098039 0.27450980 0.65882353
v -0.21861799 0.20288555 -18.35022545 0.25098039 0.27450980 0.65882353
v -0.20987079 0.20237163 -18.34252739 0.25098039 0.27450980 0.65882353
v -0.22189216 0.19158879 -18.34280586 0.25098039 0.27450980 0.65882353
v -0.21374123 0.19031054 -18.33442879 0.25098039 0.27450980 0.65882353
v -0.23348998 0.15750369 -18.31594849 0.25098039 0.27450980 0.65882353
v -0.21603695 0.09742258 -18.28763199 0.25098039 0.27450980 0.65882353
v -0.21790281 0.10760707 -18.29151917 0.25098039 0.27450980 0.65882353
v -0.21509442 0.10669032 -18.29657173 0.25098039 0.27450980 0.65882353
v -0.21522087 0.09661203 -18.29188538 0.25098039 0.27450980 0.65882353
v -0.21851990 0.11307392 -18.29422188 0.25098039 0.27450980 0.65882353
v -0.21655792 0.10981486 -18.28623199 0.25098039 0.27450980 0.65882353
v -0.19988498 0.18757761 -18.32801819 0.25098039 0.27450980 0.65882353
v -0.21507958 0.13221514 -18.31606102 0.25098039 0.27450980 0.65882353
v -0.19202378 0.19962072 -18.33746910 0.25098039 0.27450980 0.65882353
v -0.18487471 0.17897767 -18.32135010 0.25098039 0.27450980 0.65882353
v -0.17829649 0.18691173 -18.32989502 0.25098039 0.27450980 0.65882353
v -0.18211569 0.21109480 -18.34750938 0.25098039 0.27450980 0.65882353
v -0.17332897 0.19860171 -18.34054756 0.25098039 0.27450980 0.65882353
v -0.18703884 0.22479647 -18.35826683 0.25098039 0.27450980 0.65882353
v -0.18610820 0.21799365 -18.35265541 0.25098039 0.27450980 0.65882353
v -0.16498701 0.18463081 -18.33681107 0.25098039 0.27450980 0.65882353
v -0.20091037 0.09958161 -18.29287338 0.25098039 0.27450980 0.65882353
v -0.20557514 0.09836231 -18.29613113 0.25098039 0.27450980 0.65882353
v -0.19855222 0.22734123 -18.35830688 0.25098039 0.27450980 0.65882353
v -0.17450455 0.15274960 -18.35430717 0.25098039 0.27450980 0.65882353
v -0.20815884 0.16723797 -18.37558174 0.25098039 0.27450980 0.65882353
v -0.20561332 0.16863784 -18.37063026 0.25098039 0.27450980 0.65882353
v -0.21992445 0.16717473 -18.39165497 0.25098039 0.27450980 0.65882353
v -0.21130663 0.16580002 -18.38286972 0.25098039 0.27450980 0.65882353
v -0.19897164 0.10090679 -18.28796768 0.25098039 0.27450980 0.65882353
v -0.23484470 0.13014311 -18.32362366 0.25098039 0.27450980 0.65882353
v -0.23511034 0.13233358 -18.32506371 0.25098039 0.27450980 0.65882353
v -0.15663548 0.15681174 -18.35468864 0.25098039 0.27450980 0.65882353
v -0.15415138 0.15143850 -18.35067940 0.25098039 0.27450980 0.65882353
v -0.14955315 0.15860075 -18.33976746 0.25098039 0.27450980 0.65882353
v -0.14977796 0.15535888 -18.34653282 0.25098039 0.27450980 0.65882353
v -0.15234095 0.16301648 -18.34967041 0.25098039 0.27450980 0.65882353
v -0.15251383 0.16727223 -18.34259415 0.25098039 0.27450980 0.65882353
v -0.19947185 0.17421651 -18.37852287 0.25098039 0.27450980 0.65882353
v -0.20187134 0.17296748 -18.38155365 0.25098039 0.27450980 0.65882353
v -0.23742083 0.18151905 -18.38487244 0.25098039 0.27450980 0.65882353
v -0.23222899 0.17329818 -18.39141846 0.25098039 0.27450980 0.65882353
v -0.19876175 0.14503795 -18.29846191 0.25098039 0.27450980 0.65882353
v -0.20381479 0.15456516 -18.29937172 0.25098039 0.27450980 0.65882353
v -0.20533416 0.14687817 -18.29600334 0.25098039 0.27450980 0.65882353
v -0.21261775 0.13995121 -18.29351807 0.25098039 0.27450980 0.65882353
v -0.21810126 0.13310793 -18.31085205 0.25098039 0.27450980 0.65882353
v -0.21648666 0.13592948 -18.30741310 0.25098039 0.27450980 0.65882353
v -0.18574011 0.18067297 -18.37795639 0.25098039 0.27450980 0.65882353
v -0.19364649 0.17370957 -18.36911774 0.25098039 0.27450980 0.65882353
v -0.17404087 0.14858267 -18.34127808 0.25098039 0.27450980 0.65882353
v -0.16985074 0.14602812 -18.33740425 0.25098039 0.27450980 0.65882353
v -0.21581835 0.14175750 -18.33551598 0.25098039 0.27450980 0.65882353
v -0.23965237 0.14278080 -18.31621170 0.25098039 0.27450980 0.65882353
v -0.23460984 0.14728044 -18.31015587 0.25098039 0.27450980 0.65882353
v -0.21863325 0.13564470 -18.32879066 0.25098039 0.27450980 0.65882353
v -0.20379058 0.10093259 -18.28071594 0.25098039 0.27450980 0.65882353
v -0.20001061 0.10111904 -18.28417778 0.25098039 0.27450980 0.65882353
v -0.21232195 0.14822266 -18.29742050 0.25098039 0.27450980 0.65882353
v -0.22968389 0.13881235 -18.35262299 0.25098039 0.27450980 0.65882353
v -0.24183492 0.14494772 -18.32408905 0.25098039 0.27450980 0.65882353
v -0.23976949 0.13597345 -18.31975174 0.25098039 0.27450980 0.65882353
v -0.25006706 0.14172152 -18.37080002 0.25098039 0.27450980 0.65882353
v -0.21066892 0.22758585 -18.36337852 0.25098039 0.27450980 0.65882353
v -0.20995671 0.10610394 -18.29910278 0.25098039 0.27450980 0.65882353
v -0.21061370 0.09761107 -18.29665184 0.25098039 0.27450980 0.65882353
v -0.21478485 0.09917606 -18.28376770 0.25098039 0.27450980 0.65882353
v -0.21008372 0.10121726 -18.28040314 0.25098039 0.27450980 0.65882353
v -0.22548945 0.18082054 -18.39520264 0.25098039 0.27450980 0.65882353
v -0.20415244 0.16917926 -18.36722183 0.25098039 0.27450980 0.65882353
v -0.15891388 0.17294838 -18.33500099 0.25098039 0.27450980 0.65882353
v -0.15369430 0.16097322 -18.33332634 0.25098039 0.27450980 0.65882353
v -0.22125655 0.13187110 -18.32418060 0.25098039 0.27450980 0.65882353
v -0.25247940 0.14629681 -18.34970856 0.25098039 0.27450980 0.65882353
v -0.24893394 0.14863029 -18.33345222 0.25098039 0.27450980 0.65882353
v -0.25178719 0.14157689 -18.32965279 0.25098039 0.27450980 0.65882353
v -0.24716169 0.13949178 -18.32356262 0.25098039 0.27450980 0.65882353
v -0.24125770 0.13469157 -18.32155609 0.25098039 0.27450980 0.65882353
v -0.21401072 0.09379056 -18.28377724 0.25098039 0.27450980 0.65882353
v -0.20930606 0.09580337 -18.28024101 0.25098039 0.27450980 0.65882353
v -0.20296122 0.09565815 -18.28038406 0.25098039 0.27450980 0.65882353
v -0.19941840 0.09631912 -18.28349686 0.25098039 0.27450980 0.65882353
v -0.19887428 0.09723154 -18.28788376 0.25098039 0.27450980 0.65882353
v -0.21506047 0.09196213 -18.28782654 0.25098039 0.27450980 0.65882353
v -0.21389005 0.09152121 -18.29168320 0.25098039 0.27450980 0.65882353
v -0.21021348 0.09426975 -18.29598808 0.25098039 0.27450980 0.65882353
v -0.21348545 0.08747250 -18.28914642 0.25098039 0.27450980 0.65882353
v -0.21161304 0.08565921 -18.28448677 0.25098039 0.27450980 0.65882353
v -0.19801626 0.08262344 -18.28337288 0.25098039 0.27450980 0.65882353
v -0.20116696 0.08712220 -18.28114319 0.25098039 0.27450980 0.65882353
v -0.20216314 0.08462321 -18.28139877 0.25098039 0.27450980 0.65882353
v -0.20026368 0.08026551 -18.28293991 0.25098039 0.27450980 0.65882353
v -0.19968233 0.07528187 -18.28413391 0.25098039 0.27450980 0.65882353
v -0.19685501 0.07733594 -18.28484344 0.25098039 0.27450980 0.65882353
v -0.20664009 0.08596441 -18.28167152 0.25098039 0.27450980 0.65882353
v -0.20484206 0.07983556 -18.28365517 0.25098039 0.27450980 0.65882353
v -0.20836234 0.07936309 -18.28603363 0.25098039 0.27450980 0.65882353
v -0.20687106 0.07406473 -18.28678703 0.25098039 0.27450980 0.65882353
v -0.20372167 0.07425763 -18.28458977 0.25098039 0.27450980 0.65882353
v -0.20944288 0.08348195 -18.28423691 0.25098039 0.27450980 0.65882353
v -0.20752755 0.08808602 -18.28075218 0.25098039 0.27450980 0.65882353
v -0.19793364 0.07310887 -18.28631783 0.25098039 0.27450980 0.65882353
v -0.19990155 0.07246119 -18.28485107 0.25098039 0.27450980 0.65882353
v -0.20298004 0.07143785 -18.28573799 0.25098039 0.27450980 0.65882353
v -0.20157085 0.07002985 -18.28801346 0.25098039 0.27450980 0.65882353
v -0.19824313 0.09155904 -18.28397560 0.25098039 0.27450980 0.65882353
v -0.19641623 0.08351962 -18.28529358 0.25098039 0.27450980 0.65882353
v -0.19624649 0.07811871 -18.28788948 0.25098039 0.27450980 0.65882353
v -0.19747077 0.07387507 -18.28904533 0.25098039 0.27450980 0.65882353
v -0.19656952 0.08317752 -18.28943825 0.25098039 0.27450980 0.65882353
v -0.19698152 0.07868840 -18.29074860 0.25098039 0.27450980 0.65882353
v -0.19835480 0.07514670 -18.29200935 0.25098039 0.27450980 0.65882353
v -0.19838533 0.08272986 -18.29341316 0.25098039 0.27450980 0.65882353
v -0.19870304 0.07865559 -18.29351044 0.25098039 0.27450980 0.65882353
v -0.19993636 0.09394763 -18.29194450 0.25098039 0.27450980 0.65882353
v -0.19803594 0.09436396 -18.28806305 0.25098039 0.27450980 0.65882353
v -0.19894703 0.07613871 -18.29384422 0.25098039 0.27450980 0.65882353
v -0.20145340 0.07046175 -18.29020309 0.25098039 0.27450980 0.65882353
v -0.21077438 0.08087474 -18.28844070 0.25098039 0.27450980 0.65882353
v -0.20790793 0.07461131 -18.28988266 0.25098039 0.27450980 0.65882353
v -0.21106493 0.08130257 -18.29082108 0.25098039 0.27450980 0.65882353
v -0.20858391 0.07499014 -18.29216576 0.25098039 0.27450980 0.65882353
v -0.20610091 0.07057229 -18.28971863 0.25098039 0.27450980 0.65882353
v -0.20552894 0.07152513 -18.28739929 0.25098039 0.27450980 0.65882353
v -0.20125046 0.09734945 -18.29256439 0.25098039 0.27450980 0.65882353
v -0.20610264 0.09602374 -18.29582977 0.25098039 0.27450980 0.65882353
v -0.20506009 0.09312643 -18.29562950 0.25098039 0.27450980 0.65882353
v -0.20229957 0.08234972 -18.29627419 0.25098039 0.27450980 0.65882353
v -0.20903143 0.09118877 -18.29610634 0.25098039 0.27450980 0.65882353
v -0.21224234 0.08738378 -18.29282951 0.25098039 0.27450980 0.65882353
v -0.20996438 0.08095954 -18.29358864 0.25098039 0.27450980 0.65882353
v -0.20741153 0.08146204 -18.29596519 0.25098039 0.27450980 0.65882353
v -0.20760801 0.07616173 -18.29426193 0.25098039 0.27450980 0.65882353
v -0.20554708 0.07723857 -18.29542923 0.25098039 0.27450980 0.65882353
v -0.20170996 0.07802521 -18.29558754 0.25098039 0.27450980 0.65882353
v -0.20485410 0.07318766 -18.29400826 0.25098039 0.27450980 0.65882353
v -0.20585416 0.07142416 -18.29179764 0.25098039 0.27450980 0.65882353
v -0.20129696 0.07263868 -18.29283524 0.25098039 0.27450980 0.65882353
v -0.20422997 0.07475440 -18.29502296 0.25098039 0.27450980 0.65882353
v -0.20133802 0.07498533 -18.29412842 0.25098039 0.27450980 0.65882353
v -0.23003468 0.10332398 -18.30219078 0.25098039 0.27450980 0.65882353
v -0.23442185 0.10210629 -18.30707359 0.25098039 0.27450980 0.65882353
v -0.23418498 0.10665955 -18.30691147 0.25098039 0.27450980 0.65882353
v -0.23031265 0.10728018 -18.30288887 0.25098039 0.27450980 0.65882353
v -0.23711424 0.10640845 -18.29007721 0.25098039 0.27450980 0.65882353
v -0.23186353 0.10516126 -18.29337311 0.25098039 0.27450980 0.65882353
v -0.23192182 0.11011276 -18.29318047 0.25098039 0.27450980 0.65882353
v -0.23810580 0.11208750 -18.29074097 0.25098039 0.27450980 0.65882353
v -0.24404159 0.10717546 -18.29197693 0.25098039 0.27450980 0.65882353
v -0.24477082 0.11306274 -18.29300308 0.25098039 0.27450980 0.65882353
v -0.23697233 0.11776493 -18.29193687 0.25098039 0.27450980 0.65882353
v -0.23076373 0.11536716 -18.29500008 0.25098039 0.27450980 0.65882353
v -0.22429159 0.13303033 -18.30516815 0.25098039 0.27450980 0.65882353
v -0.23027521 0.13616897 -18.30187225 0.25098039 0.27450980 0.65882353
v -0.23072585 0.12646821 -18.32186127 0.25098039 0.27450980 0.65882353
v -0.23494065 0.12705080 -18.32033539 0.25098039 0.27450980 0.65882353
v -0.22972003 0.10413024 -18.29813194 0.25098039 0.27450980 0.65882353
v -0.22984962 0.10853745 -18.29812241 0.25098039 0.27450980 0.65882353
v -0.24196456 0.11080173 -18.31177711 0.25098039 0.27450980 0.65882353
v -0.23644164 0.10942711 -18.31207657 0.25098039 0.27450980 0.65882353
v -0.23822787 0.10600653 -18.30977821 0.25098039 0.27450980 0.65882353
v -0.24382201 0.10682813 -18.30897522 0.25098039 0.27450980 0.65882353
v -0.22141704 0.12920889 -18.31364822 0.25098039 0.27450980 0.65882353
v -0.22559226 0.12809420 -18.31875229 0.25098039 0.27450980 0.65882353
v -0.22184327 0.13046807 -18.30941582 0.25098039 0.27450980 0.65882353
v -0.24708204 0.11341551 -18.30796242 0.25098039 0.27450980 0.65882353
v -0.24889226 0.11646813 -18.30182266 0.25098039 0.27450980 0.65882353
v -0.24321312 0.13430765 -18.30980301 0.25098039 0.27450980 0.65882353
v -0.24211282 0.13021708 -18.31537056 0.25098039 0.27450980 0.65882353
v -0.22798726 0.11281963 -18.29948616 0.25098039 0.27450980 0.65882353
v -0.23138365 0.10927010 -18.30900383 0.25098039 0.27450980 0.65882353
v -0.22789463 0.11048064 -18.30482292 0.25098039 0.27450980 0.65882353
v -0.24389169 0.11867130 -18.29521751 0.25098039 0.27450980 0.65882353
v -0.24930122 0.11035462 -18.29942131 0.25098039 0.27450980 0.65882353
v -0.24711618 0.09046866 -18.30181122 0.25098039 0.27450980 0.65882353
v -0.24808574 0.10232413 -18.30409813 0.25098039 0.27450980 0.65882353
v -0.24427511 0.10145891 -18.30787086 0.25098039 0.27450980 0.65882353
v -0.24437366 0.08915345 -18.30614662 0.25098039 0.27450980 0.65882353
v -0.24812208 0.10798484 -18.30533028 0.25098039 0.27450980 0.65882353
v -0.24845916 0.10454495 -18.29828835 0.25098039 0.27450980 0.65882353
v -0.23038884 0.08871818 -18.30275917 0.25098039 0.27450980 0.65882353
v -0.23496023 0.08786210 -18.30732727 0.25098039 0.27450980 0.65882353
v -0.22936854 0.08935155 -18.29810905 0.25098039 0.27450980 0.65882353
v -0.23801965 0.13708238 -18.30396080 0.25098039 0.27450980 0.65882353
v -0.23591533 0.09296876 -18.29032135 0.25098039 0.27450980 0.65882353
v -0.23068464 0.09090936 -18.29412079 0.25098039 0.27450980 0.65882353
v -0.23921336 0.10156652 -18.30952644 0.25098039 0.27450980 0.65882353
v -0.23997054 0.08788285 -18.30837822 0.25098039 0.27450980 0.65882353
v -0.24712975 0.09183142 -18.29724503 0.25098039 0.27450980 0.65882353
v -0.24277461 0.09445654 -18.29155922 0.25098039 0.27450980 0.65882353
v -0.24610540 0.08608762 -18.29686928 0.25098039 0.27450980 0.65882353
v -0.24187642 0.08746797 -18.29182053 0.25098039 0.27450980 0.65882353
v -0.23495914 0.08652554 -18.29066086 0.25098039 0.27450980 0.65882353
v -0.23035094 0.08595224 -18.29455948 0.25098039 0.27450980 0.65882353
v -0.22937958 0.08578926 -18.29854584 0.25098039 0.27450980 0.65882353
v -0.24623363 0.08492573 -18.30130386 0.25098039 0.27450980 0.65882353
v -0.24386260 0.08416502 -18.30562973 0.25098039 0.27450980 0.65882353
v -0.23925173 0.08515480 -18.30788231 0.25098039 0.27450980 0.65882353
v -0.24435936 0.07839496 -18.30326271 0.25098039 0.27450980 0.65882353
v -0.24414618 0.07755944 -18.29871559 0.25098039 0.27450980 0.65882353
v -0.22904235 0.06688853 -18.29705620 0.25098039 0.27450980 0.65882353
v -0.23051980 0.07227968 -18.29496574 0.25098039 0.27450980 0.65882353
v -0.23303153 0.07129453 -18.29475594 0.25098039 0.27450980 0.65882353
v -0.23181622 0.06625548 -18.29653740 0.25098039 0.27450980 0.65882353
v -0.23371029 0.07702693 -18.29221916 0.25098039 0.27450980 0.65882353
v -0.23516920 0.07508729 -18.29317665 0.25098039 0.27450980 0.65882353
v -0.23959340 0.07604776 -18.29460144 0.25098039 0.27450980 0.65882353
v -0.23754025 0.07077749 -18.29681015 0.25098039 0.27450980 0.65882353
v -0.24112436 0.07146345 -18.30018044 0.25098039 0.27450980 0.65882353
v -0.24012236 0.06602056 -18.30136490 0.25098039 0.27450980 0.65882353
v -0.23663303 0.06505369 -18.29797935 0.25098039 0.27450980 0.65882353
v -0.24196684 0.07491983 -18.29762459 0.25098039 0.27450980 0.65882353
v -0.23197161 0.06299566 -18.29804611 0.25098039 0.27450980 0.65882353
v -0.23027518 0.06213368 -18.29981422 0.25098039 0.27450980 0.65882353
v -0.24045806 0.07869630 -18.29304314 0.25098039 0.27450980 0.65882353
v -0.22997621 0.08150257 -18.29439545 0.25098039 0.27450980 0.65882353
v -0.22817037 0.07296954 -18.29701614 0.25098039 0.27450980 0.65882353
v -0.22737858 0.06713088 -18.29994965 0.25098039 0.27450980 0.65882353
v -0.22990566 0.06224307 -18.30287170 0.25098039 0.27450980 0.65882353
v -0.22739147 0.07321377 -18.30130959 0.25098039 0.27450980 0.65882353
v -0.22746292 0.06748720 -18.30322838 0.25098039 0.27450980 0.65882353
v -0.23008505 0.06362794 -18.30525780 0.25098039 0.27450980 0.65882353
v -0.22850399 0.07351603 -18.30608368 0.25098039 0.27450980 0.65882353
v -0.22911045 0.06784619 -18.30720520 0.25098039 0.27450980 0.65882353
v -0.23007734 0.08382174 -18.30352974 0.25098039 0.27450980 0.65882353
v -0.22853997 0.08306797 -18.29891396 0.25098039 0.27450980 0.65882353
v -0.23019338 0.06539996 -18.30694199 0.25098039 0.27450980 0.65882353
v -0.23458859 0.06024246 -18.30120659 0.25098039 0.27450980 0.65882353
v -0.23346925 0.06056876 -18.30440903 0.25098039 0.27450980 0.65882353
v -0.23521808 0.06140579 -18.29987717 0.25098039 0.27450980 0.65882353
v -0.24220158 0.07183556 -18.30205917 0.25098039 0.27450980 0.65882353
v -0.24027076 0.06601030 -18.30366516 0.25098039 0.27450980 0.65882353
v -0.24231216 0.07213421 -18.30493164 0.25098039 0.27450980 0.65882353
v -0.23995741 0.06570645 -18.30608940 0.25098039 0.27450980 0.65882353
v -0.23835382 0.06178087 -18.30376816 0.25098039 0.27450980 0.65882353
v -0.23818085 0.06192233 -18.30206299 0.25098039 0.27450980 0.65882353
v -0.23090586 0.08602899 -18.30279541 0.25098039 0.27450980 0.65882353
v -0.23507297 0.08577818 -18.30680847 0.25098039 0.27450980 0.65882353
v -0.23429349 0.08402032 -18.30752182 0.25098039 0.27450980 0.65882353
v -0.23277342 0.07360888 -18.30941582 0.25098039 0.27450980 0.65882353
v -0.23900555 0.08311437 -18.30850029 0.25098039 0.27450980 0.65882353
v -0.24283515 0.07972607 -18.30644226 0.25098039 0.27450980 0.65882353
v -0.24118701 0.07295121 -18.30751610 0.25098039 0.27450980 0.65882353
v -0.23766448 0.07318570 -18.30971718 0.25098039 0.27450980 0.65882353
v -0.23963335 0.06627478 -18.30825043 0.25098039 0.27450980 0.65882353
v -0.23739418 0.06834882 -18.30963516 0.25098039 0.27450980 0.65882353
v -0.23246002 0.06840466 -18.30960464 0.25098039 0.27450980 0.65882353
v -0.23725080 0.06236595 -18.30772018 0.25098039 0.27450980 0.65882353
v -0.23796187 0.06163837 -18.30551720 0.25098039 0.27450980 0.65882353
v -0.23302221 0.06188731 -18.30619621 0.25098039 0.27450980 0.65882353
v -0.23608008 0.06473298 -18.30916214 0.25098039 0.27450980 0.65882353
v -0.23251325 0.06446736 -18.30814362 0.25098039 0.27450980 0.65882353
v -0.24282447 0.10744867 -18.31969070 0.25098039 0.27450980 0.65882353
v -0.24395221 0.10671841 -18.32571030 0.25098039 0.27450980 0.65882353
v -0.24387670 0.10956103 -18.32608414 0.25098039 0.27450980 0.65882353
v -0.24261439 0.11045769 -18.32028961 0.25098039 0.27450980 0.65882353
v -0.25429147 0.10899097 -18.31366158 0.25098039 0.27450980 0.65882353
v -0.24937397 0.10789435 -18.31310463 0.25098039 0.27450980 0.65882353
v -0.24924165 0.11246081 -18.31326866 0.25098039 0.27450980 0.65882353
v -0.25424162 0.11499328 -18.31365204 0.25098039 0.27450980 0.65882353
v -0.25838143 0.10744938 -18.31763840 0.25098039 0.27450980 0.65882353
v -0.25923496 0.11532549 -18.31799507 0.25098039 0.27450980 0.65882353
v -0.25357196 0.12102558 -18.31434631 0.25098039 0.27450980 0.65882353
v -0.24834463 0.11717176 -18.31403923 0.25098039 0.27450980 0.65882353
v -0.24299389 0.13095117 -18.32014847 0.25098039 0.27450980 0.65882353
v -0.24939683 0.13406792 -18.32018280 0.25098039 0.27450980 0.65882353
v -0.24541540 0.10769894 -18.31569290 0.25098039 0.27450980 0.65882353
v -0.24499944 0.11114572 -18.31609154 0.25098039 0.27450980 0.65882353
v -0.25041664 0.11199772 -18.33342934 0.25098039 0.27450980 0.65882353
v -0.24600679 0.11137065 -18.33157730 0.25098039 0.27450980 0.65882353
v -0.24746858 0.10876526 -18.33041763 0.25098039 0.27450980 0.65882353
v -0.25150460 0.10907177 -18.33183479 0.25098039 0.27450980 0.65882353
v -0.23561892 0.12763044 -18.32877541 0.25098039 0.27450980 0.65882353
v -0.23830575 0.12808591 -18.33477592 0.25098039 0.27450980 0.65882353
v -0.23808774 0.12807435 -18.32360077 0.25098039 0.27450980 0.65882353
v -0.25658265 0.11439808 -18.33165550 0.25098039 0.27450980 0.65882353
v -0.26047790 0.11877140 -18.32636070 0.25098039 0.27450980 0.65882353
v -0.25594515 0.13156822 -18.33334732 0.25098039 0.27450980 0.65882353
v -0.25181431 0.12899557 -18.33768463 0.25098039 0.27450980 0.65882353
v -0.24412385 0.11471605 -18.31667900 0.25098039 0.27450980 0.65882353
v -0.24206725 0.11206090 -18.32724190 0.25098039 0.27450980 0.65882353
v -0.24108768 0.11292775 -18.32126427 0.25098039 0.27450980 0.65882353
v -0.25799242 0.12155256 -18.31924248 0.25098039 0.27450980 0.65882353
v -0.26043001 0.11244663 -18.32497597 0.25098039 0.27450980 0.65882353
v -0.25693378 0.09076108 -18.32736588 0.25098039 0.27450980 0.65882353
v -0.25762871 0.10650083 -18.32947922 0.25098039 0.27450980 0.65882353
v -0.25176457 0.10619354 -18.33150482 0.25098039 0.27450980 0.65882353
v -0.25317535 0.09090449 -18.33004570 0.25098039 0.27450980 0.65882353
v -0.25721300 0.10996000 -18.33040619 0.25098039 0.27450980 0.65882353
v -0.26026946 0.10729616 -18.32417107 0.25098039 0.27450980 0.65882353
v -0.24193360 0.09246446 -18.32061768 0.25098039 0.27450980 0.65882353
v -0.24386656 0.09242941 -18.32616234 0.25098039 0.27450980 0.65882353
v -0.24391606 0.09348367 -18.31656837 0.25098039 0.27450980 0.65882353
v -0.25504622 0.13473305 -18.32526207 0.25098039 0.27450980 0.65882353
v -0.24486163 0.12770957 -18.33926201 0.25098039 0.27450980 0.65882353
v -0.25106943 0.09267002 -18.31335640 0.25098039 0.27450980 0.65882353
v -0.24661280 0.09321636 -18.31423187 0.25098039 0.27450980 0.65882353
v -0.24752766 0.10633615 -18.33001328 0.25098039 0.27450980 0.65882353
v -0.24836618 0.09160045 -18.33005714 0.25098039 0.27450980 0.65882353
v -0.25865877 0.09185158 -18.32266998 0.25098039 0.27450980 0.65882353
v -0.25656736 0.09329056 -18.31646156 0.25098039 0.27450980 0.65882353
v -0.25710616 0.08599870 -18.32341576 0.25098039 0.27450980 0.65882353
v -0.25497544 0.08693963 -18.31725311 0.25098039 0.27450980 0.65882353
v -0.24971302 0.08675840 -18.31405830 0.25098039 0.27450980 0.65882353
v -0.24531771 0.08821312 -18.31507111 0.25098039 0.27450980 0.65882353
v -0.24277362 0.08914351 -18.31739426 0.25098039 0.27450980 0.65882353
v -0.25509593 0.08582740 -18.32819176 0.25098039 0.27450980 0.65882353
v -0.25170308 0.08683768 -18.33027840 0.25098039 0.27450980 0.65882353
v -0.24793112 0.09009862 -18.32947540 0.25098039 0.27450980 0.65882353
v -0.25272375 0.08243749 -18.32972908 0.25098039 0.27450980 0.65882353
v -0.25382537 0.07961847 -18.32487488 0.25098039 0.27450980 0.65882353
v -0.23958440 0.07109469 -18.32083511 0.25098039 0.27450980 0.65882353
v -0.24236208 0.07583065 -18.31885719 0.25098039 0.27450980 0.65882353
v -0.24343263 0.07534309 -18.31939888 0.25098039 0.27450980 0.65882353
v -0.24109229 0.07028201 -18.32115364 0.25098039 0.27450980 0.65882353
v -0.24723497 0.07997526 -18.31650162 0.25098039 0.27450980 0.65882353
v -0.24724416 0.07836667 -18.31778336 0.25098039 0.27450980 0.65882353
v -0.25062925 0.07844220 -18.31996346 0.25098039 0.27450980 0.65882353
v -0.24739800 0.07339728 -18.32240295 0.25098039 0.27450980 0.65882353
v -0.24937880 0.07512723 -18.32800674 0.25098039 0.27450980 0.65882353
v -0.24636948 0.07100292 -18.32888031 0.25098039 0.27450980 0.65882353
v -0.24471584 0.06885999 -18.32391930 0.25098039 0.27450980 0.65882353
v -0.25220275 0.07827792 -18.32441139 0.25098039 0.27450980 0.65882353
v -0.24034357 0.06766050 -18.32287407 0.25098039 0.27450980 0.65882353
v -0.23861516 0.06714720 -18.32207489 0.25098039 0.27450980 0.65882353
v -0.25218368 0.08019336 -18.31892967 0.25098039 0.27450980 0.65882353
v -0.24334382 0.08316213 -18.31577301 0.25098039 0.27450980 0.65882353
v -0.23965740 0.07720858 -18.31869125 0.25098039 0.27450980 0.65882353
v -0.23660393 0.07251835 -18.32070923 0.25098039 0.27450980 0.65882353
v -0.23602614 0.06925589 -18.32370186 0.25098039 0.27450980 0.65882353
v -0.23752221 0.07916008 -18.32131004 0.25098039 0.27450980 0.65882353
v -0.23556177 0.07449089 -18.32302284 0.25098039 0.27450980 0.65882353
v -0.23506275 0.07141186 -18.32560349 0.25098039 0.27450980 0.65882353
v -0.23698977 0.08041908 -18.32449532 0.25098039 0.27450980 0.65882353
v -0.23563123 0.07609691 -18.32597733 0.25098039 0.27450980 0.65882353
v -0.24108529 0.08833912 -18.32158852 0.25098039 0.27450980 0.65882353
v -0.24141493 0.08608779 -18.31803322 0.25098039 0.27450980 0.65882353
v -0.23541096 0.07320178 -18.32711029 0.25098039 0.27450980 0.65882353
v -0.24103111 0.06567876 -18.32603455 0.25098039 0.27450980 0.65882353
v -0.23823841 0.06751296 -18.32870674 0.25098039 0.27450980 0.65882353
v -0.24212940 0.06686606 -18.32536888 0.25098039 0.27450980 0.65882353
v -0.24991968 0.07614405 -18.32958794 0.25098039 0.27450980 0.65882353
v -0.24616387 0.07094611 -18.33128548 0.25098039 0.27450980 0.65882353
v -0.24874279 0.07770953 -18.33183289 0.25098039 0.27450980 0.65882353
v -0.24503803 0.07248603 -18.33327293 0.25098039 0.27450980 0.65882353
v -0.24375787 0.06754291 -18.33015633 0.25098039 0.27450980 0.65882353
v -0.24408352 0.06783874 -18.32903481 0.25098039 0.27450980 0.65882353
v -0.24226293 0.09034979 -18.32127380 0.25098039 0.27450980 0.65882353
v -0.24413493 0.09086144 -18.32621384 0.25098039 0.27450980 0.65882353
v -0.24287128 0.08932762 -18.32628059 0.25098039 0.27450980 0.65882353
v -0.23826300 0.08104448 -18.32925606 0.25098039 0.27450980 0.65882353
v -0.24638952 0.08869500 -18.32978058 0.25098039 0.27450980 0.65882353
v -0.24939656 0.08376101 -18.33143425 0.25098039 0.27450980 0.65882353
v -0.24578099 0.07923022 -18.33278084 0.25098039 0.27450980 0.65882353
v -0.24191628 0.08018471 -18.33229065 0.25098039 0.27450980 0.65882353
v -0.24288143 0.07431360 -18.33386421 0.25098039 0.27450980 0.65882353
v -0.24091712 0.07621498 -18.33282280 0.25098039 0.27450980 0.65882353
v -0.23669879 0.07679173 -18.33007050 0.25098039 0.27450980 0.65882353
v -0.24042441 0.07124117 -18.33239746 0.25098039 0.27450980 0.65882353
v -0.24222204 0.06889993 -18.33199501 0.25098039 0.27450980 0.65882353
v -0.23683307 0.07022575 -18.32963753 0.25098039 0.27450980 0.65882353
v -0.23904426 0.07334544 -18.33225250 0.25098039 0.27450980 0.65882353
v -0.23636650 0.07268788 -18.33004951 0.25098039 0.27450980 0.65882353
v -0.24122840 0.12788121 -18.33834457 0.25098039 0.27450980 0.65882353
v -0.25009057 0.11152322 -18.34619713 0.25098039 0.27450980 0.65882353
v -0.25040185 0.11048930 -18.35035133 0.25098039 0.27450980 0.65882353
v -0.25080165 0.11332966 -18.35190392 0.25098039 0.27450980 0.65882353
v -0.24948354 0.11502892 -18.34816742 0.25098039 0.27450980 0.65882353
v -0.26011655 0.11515432 -18.34208107 0.25098039 0.27450980 0.65882353
v -0.25566986 0.11385609 -18.34135818 0.25098039 0.27450980 0.65882353
v -0.25519091 0.11846218 -18.34243774 0.25098039 0.27450980 0.65882353
v -0.25954625 0.11981256 -18.34303856 0.25098039 0.27450980 0.65882353
v -0.26364213 0.11471745 -18.34580040 0.25098039 0.27450980 0.65882353
v -0.26319230 0.11910726 -18.34703255 0.25098039 0.27450980 0.65882353
v -0.25925413 0.12351428 -18.34377480 0.25098039 0.27450980 0.65882353
v -0.25443807 0.12226322 -18.34342003 0.25098039 0.27450980 0.65882353
v -0.25013742 0.13639630 -18.34689903 0.25098039 0.27450980 0.65882353
v -0.25496683 0.13947527 -18.34829712 0.25098039 0.27450980 0.65882353
v -0.25130385 0.13689691 -18.36725044 0.25098039 0.27450980 0.65882353
v -0.24584340 0.13540824 -18.36651421 0.25098039 0.27450980 0.65882353
v -0.24879725 0.12898672 -18.36291313 0.25098039 0.27450980 0.65882353
v -0.25312093 0.13053051 -18.36478615 0.25098039 0.27450980 0.65882353
v -0.25220206 0.11266748 -18.34308434 0.25098039 0.27450980 0.65882353
v -0.25095281 0.11665571 -18.34442139 0.25098039 0.27450980 0.65882353
v -0.25721881 0.11668062 -18.35972404 0.25098039 0.27450980 0.65882353
v -0.25286400 0.11582097 -18.35775375 0.25098039 0.27450980 0.65882353
v -0.25276437 0.11268675 -18.35568428 0.25098039 0.27450980 0.65882353
v -0.25686580 0.11239517 -18.35813332 0.25098039 0.27450980 0.65882353
v -0.24298604 0.13368452 -18.36184692 0.25098039 0.27450980 0.65882353
v -0.24190594 0.13299565 -18.35723877 0.25098039 0.27450980 0.65882353
v -0.24350712 0.13014007 -18.35504913 0.25098039 0.27450980 0.65882353
v -0.24583541 0.12825254 -18.35878181 0.25098039 0.27450980 0.65882353
v -0.24480429 0.13145512 -18.34973145 0.25098039 0.27450980 0.65882353
v -0.26111025 0.11814639 -18.35870361 0.25098039 0.27450980 0.65882353
v -0.26430839 0.12075189 -18.35430717 0.25098039 0.27450980 0.65882353
v -0.26058149 0.13671976 -18.36133385 0.25098039 0.27450980 0.65882353
v -0.25716606 0.13408065 -18.36443710 0.25098039 0.27450980 0.65882353
v -0.25082678 0.11958127 -18.34500504 0.25098039 0.27450980 0.65882353
v -0.25013250 0.11619026 -18.35385704 0.25098039 0.27450980 0.65882353
v -0.24921450 0.11718319 -18.34954071 0.25098039 0.27450980 0.65882353
v -0.26358306 0.12302259 -18.34787178 0.25098039 0.27450980 0.65882353
v -0.26404595 0.11643325 -18.35290337 0.25098039 0.27450980 0.65882353
v -0.26124579 0.10153790 -18.35390091 0.25098039 0.27450980 0.65882353
v -0.26115209 0.11040250 -18.35647774 0.25098039 0.27450980 0.65882353
v -0.25631356 0.10919567 -18.35701752 0.25098039 0.27450980 0.65882353
v -0.25813934 0.10113339 -18.35445404 0.25098039 0.27450980 0.65882353
v -0.26115677 0.11387586 -18.35722923 0.25098039 0.27450980 0.65882353
v -0.26437354 0.11212751 -18.35183334 0.25098039 0.27450980 0.65882353
v -0.25076398 0.10318281 -18.34412766 0.25098039 0.27450980 0.65882353
v -0.25176042 0.10238627 -18.34952736 0.25098039 0.27450980 0.65882353
v -0.25245056 0.10399552 -18.34132767 0.25098039 0.27450980 0.65882353
v -0.25981000 0.13974893 -18.35342216 0.25098039 0.27450980 0.65882353
v -0.26002675 0.10500783 -18.34018898 0.25098039 0.27450980 0.65882353
v -0.25559998 0.10420512 -18.33954811 0.25098039 0.27450980 0.65882353
v -0.25250110 0.10952659 -18.35405922 0.25098039 0.27450980 0.65882353
v -0.25459918 0.10157104 -18.35303688 0.25098039 0.27450980 0.65882353
v -0.26406270 0.10277259 -18.35052109 0.25098039 0.27450980 0.65882353
v -0.26416507 0.10499137 -18.34442139 0.25098039 0.27450980 0.65882353
v -0.26307267 0.09782589 -18.34935379 0.25098039 0.27450980 0.65882353
v -0.26321164 0.10031646 -18.34330559 0.25098039 0.27450980 0.65882353
v -0.25841850 0.10054232 -18.33933258 0.25098039 0.27450980 0.65882353
v -0.25461659 0.10132168 -18.33959389 0.25098039 0.27450980 0.65882353
v -0.25180596 0.10140615 -18.34121895 0.25098039 0.27450980 0.65882353
v -0.26021722 0.09723457 -18.35303307 0.25098039 0.27450980 0.65882353
v -0.25713721 0.09759796 -18.35382462 0.25098039 0.27450980 0.65882353
v -0.25381297 0.09909819 -18.35267448 0.25098039 0.27450980 0.65882353
v -0.25889191 0.09315867 -18.35216331 0.25098039 0.27450980 0.65882353
v -0.26073077 0.09207220 -18.34776878 0.25098039 0.27450980 0.65882353
v -0.25060865 0.08705978 -18.34020615 0.25098039 0.27450980 0.65882353
v -0.25225279 0.09087861 -18.33987617 0.25098039 0.27450980 0.65882353
v -0.25335824 0.09039088 -18.34017372 0.25098039 0.27450980 0.65882353
v -0.25157359 0.08661631 -18.33983231 0.25098039 0.27450980 0.65882353
v -0.25596133 0.09498076 -18.33965874 0.25098039 0.27450980 0.65882353
v -0.25634935 0.09342408 -18.34033585 0.25098039 0.27450980 0.65882353
v -0.25919533 0.09359533 -18.34265900 0.25098039 0.27450980 0.65882353
v -0.25677234 0.08877275 -18.34230804 0.25098039 0.27450980 0.65882353
v -0.25775352 0.08719248 -18.34748268 0.25098039 0.27450980 0.65882353
v -0.25571719 0.08359392 -18.34665108 0.25098039 0.27450980 0.65882353
v -0.25527394 0.08518861 -18.34206581 0.25098039 0.27450980 0.65882353
v -0.26004195 0.09103893 -18.34612846 0.25098039 0.27450980 0.65882353
v -0.25146055 0.08382529 -18.34004021 0.25098039 0.27450980 0.65882353
v -0.25028688 0.08316891 -18.33990288 0.25098039 0.27450980 0.65882353
v -0.26047453 0.09514923 -18.34250641 0.25098039 0.27450980 0.65882353
v -0.25255427 0.09746719 -18.33966064 0.25098039 0.27450980 0.65882353
v -0.24969837 0.09114348 -18.33996582 0.25098039 0.27450980 0.65882353
v -0.24836993 0.08625072 -18.34033012 0.25098039 0.27450980 0.65882353
v -0.24865633 0.08265679 -18.34147072 0.25098039 0.27450980 0.65882353
v -0.24803503 0.09242176 -18.34154892 0.25098039 0.27450980 0.65882353
v -0.24655552 0.08670037 -18.34179306 0.25098039 0.27450980 0.65882353
v -0.24700047 0.08325513 -18.34305954 0.25098039 0.27450980 0.65882353
v -0.24676864 0.09309740 -18.34467316 0.25098039 0.27450980 0.65882353
v -0.24605337 0.08746221 -18.34427834 0.25098039 0.27450980 0.65882353
v -0.24896537 0.09922385 -18.34522057 0.25098039 0.27450980 0.65882353
v -0.25013587 0.09857671 -18.34178543 0.25098039 0.27450980 0.65882353
v -0.24677466 0.08443645 -18.34439659 0.25098039 0.27450980 0.65882353
v -0.25246289 0.08094323 -18.34227371 0.25098039 0.27450980 0.65882353
v -0.25001296 0.08093408 -18.34396553 0.25098039 0.27450980 0.65882353
v -0.25370955 0.08178438 -18.34209061 0.25098039 0.27450980 0.65882353
v -0.25765502 0.08726555 -18.34896088 0.25098039 0.27450980 0.65882353
v -0.25511011 0.08296345 -18.34802818 0.25098039 0.27450980 0.65882353
v -0.25630045 0.08774638 -18.35114670 0.25098039 0.27450980 0.65882353
v -0.25335693 0.08314785 -18.34937668 0.25098039 0.27450980 0.65882353
v -0.25349531 0.08070721 -18.34578705 0.25098039 0.27450980 0.65882353
v -0.25456047 0.08181329 -18.34478378 0.25098039 0.27450980 0.65882353
v -0.24987890 0.10085001 -18.34488106 0.25098039 0.27450980 0.65882353
v -0.25111726 0.10038939 -18.34910965 0.25098039 0.27450980 0.65882353
v -0.25026667 0.09844512 -18.34950829 0.25098039 0.27450980 0.65882353
v -0.24766806 0.09258122 -18.34873009 0.25098039 0.27450980 0.65882353
v -0.25306576 0.09688326 -18.35280037 0.25098039 0.27450980 0.65882353
v -0.25635284 0.09475821 -18.35345650 0.25098039 0.27450980 0.65882353
v -0.25380290 0.08881131 -18.35210419 0.25098039 0.27450980 0.65882353
v -0.25061637 0.09040663 -18.35170174 0.25098039 0.27450980 0.65882353
v -0.25124830 0.08376351 -18.34984970 0.25098039 0.27450980 0.65882353
v -0.24876200 0.08563641 -18.34963226 0.25098039 0.27450980 0.65882353
v -0.24660790 0.08715761 -18.34757423 0.25098039 0.27450980 0.65882353
v -0.24969795 0.08180077 -18.34706688 0.25098039 0.27450980 0.65882353
v -0.25126684 0.08078872 -18.34662819 0.25098039 0.27450980 0.65882353
v -0.24851224 0.08189738 -18.34512138 0.25098039 0.27450980 0.65882353
v -0.24832357 0.08318646 -18.34741211 0.25098039 0.27450980 0.65882353
v -0.24742188 0.08373320 -18.34614372 0.25098039 0.27450980 0.65882353
v -0.25502360 0.13754225 -18.36553955 0.25098039 0.27450980 0.65882353
v -0.15363191 0.14664219 -18.32685661 0.25098039 0.27450980 0.65882353
v -0.15882950 0.14403106 -18.32685280 0.25098039 0.27450980 0.65882353
v -0.15891652 0.13502403 -18.34184647 0.25098039 0.27450980 0.65882353
v -0.16238210 0.13591784 -18.33496857 0.25098039 0.27450980 0.65882353
v -0.15286641 0.13656561 -18.34549332 0.25098039 0.27450980 0.65882353
v -0.14451294 0.14384952 -18.34211540 0.25098039 0.27450980 0.65882353
v -0.14821424 0.14059590 -18.34557915 0.25098039 0.27450980 0.65882353
v -0.16213003 0.13936771 -18.32967949 0.25098039 0.27450980 0.65882353
v -0.14834310 0.14834684 -18.32970810 0.25098039 0.27450980 0.65882353
v -0.14406256 0.14762866 -18.33607674 0.25098039 0.27450980 0.65882353
v -0.14444000 0.14072505 -18.32574844 0.25098039 0.27450980 0.65882353
v -0.14034198 0.13955259 -18.33276558 0.25098039 0.27450980 0.65882353
v -0.14055985 0.13570635 -18.33924484 0.25098039 0.27450980 0.65882353
v -0.14601961 0.13330436 -18.34337807 0.25098039 0.27450980 0.65882353
v -0.15068696 0.13126121 -18.34417725 0.25098039 0.27450980 0.65882353
v -0.15174833 0.14001259 -18.32416153 0.25098039 0.27450980 0.65882353
v -0.15708709 0.13778667 -18.32476616 0.25098039 0.27450980 0.65882353
v -0.16103141 0.13450041 -18.32922173 0.25098039 0.27450980 0.65882353
v -0.15127049 0.13185194 -18.32161140 0.25098039 0.27450980 0.65882353
v -0.14541763 0.12332538 -18.32229424 0.25098039 0.27450980 0.65882353
v -0.14185780 0.10814991 -18.33372116 0.25098039 0.27450980 0.65882353
v -0.14261962 0.11430992 -18.33610153 0.25098039 0.27450980 0.65882353
v -0.14150533 0.11460397 -18.33337021 0.25098039 0.27450980 0.65882353
v -0.14032364 0.10898820 -18.33160591 0.25098039 0.27450980 0.65882353
v -0.14148006 0.11966477 -18.33546829 0.25098039 0.27450980 0.65882353
v -0.14157443 0.11876781 -18.33319664 0.25098039 0.27450980 0.65882353
v -0.14217310 0.12138277 -18.32847977 0.25098039 0.27450980 0.65882353
v -0.14124312 0.11607699 -18.32703209 0.25098039 0.27450980 0.65882353
v -0.14458792 0.12111770 -18.32387733 0.25098039 0.27450980 0.65882353
v -0.14524731 0.11742280 -18.32233047 0.25098039 0.27450980 0.65882353
v -0.14053789 0.11092647 -18.32540131 0.25098039 0.27450980 0.65882353
v -0.13936509 0.10637178 -18.32883072 0.25098039 0.27450980 0.65882353
v -0.14025946 0.10641479 -18.32424355 0.25098039 0.27450980 0.65882353
v -0.14155556 0.10439868 -18.33006096 0.25098039 0.27450980 0.65882353
v -0.13998340 0.12280779 -18.32787514 0.25098039 0.27450980 0.65882353
v -0.14428464 0.12358958 -18.34076309 0.25098039 0.27450980 0.65882353
v -0.14527822 0.11498157 -18.33878326 0.25098039 0.27450980 0.65882353
v -0.14529267 0.10791315 -18.33536339 0.25098039 0.27450980 0.65882353
v -0.14468467 0.10388024 -18.33071518 0.25098039 0.27450980 0.65882353
v -0.14977004 0.11515568 -18.33941841 0.25098039 0.27450980 0.65882353
v -0.14959688 0.10908791 -18.33527374 0.25098039 0.27450980 0.65882353
v -0.14927277 0.10580336 -18.33047867 0.25098039 0.27450980 0.65882353
v -0.15422972 0.11585343 -18.33717537 0.25098039 0.27450980 0.65882353
v -0.15280989 0.11041223 -18.33316803 0.25098039 0.27450980 0.65882353
v -0.15588979 0.12780000 -18.34046745 0.25098039 0.27450980 0.65882353
v -0.15002558 0.12601905 -18.34306717 0.25098039 0.27450980 0.65882353
v -0.15132284 0.10773670 -18.33017349 0.25098039 0.27450980 0.65882353
v -0.14172044 0.10409513 -18.32388687 0.25098039 0.27450980 0.65882353
v -0.14531957 0.10367648 -18.32452965 0.25098039 0.27450980 0.65882353
v -0.14789452 0.11876726 -18.32035446 0.25098039 0.27450980 0.65882353
v -0.14407548 0.11265333 -18.32037163 0.25098039 0.27450980 0.65882353
v -0.14710274 0.11279882 -18.31935310 0.25098039 0.27450980 0.65882353
v -0.15158893 0.12049752 -18.31996536 0.25098039 0.27450980 0.65882353
v -0.15004779 0.11285339 -18.31924248 0.25098039 0.27450980 0.65882353
v -0.14473912 0.10771728 -18.31990433 0.25098039 0.27450980 0.65882353
v -0.14241284 0.10899266 -18.32098961 0.25098039 0.27450980 0.65882353
v -0.15680413 0.13109696 -18.34160805 0.25098039 0.27450980 0.65882353
v -0.16068716 0.13268478 -18.33580208 0.25098039 0.27450980 0.65882353
v -0.15949626 0.12976870 -18.33465958 0.25098039 0.27450980 0.65882353
v -0.15768817 0.11820783 -18.33179283 0.25098039 0.27450980 0.65882353
v -0.16003703 0.13045810 -18.32812691 0.25098039 0.27450980 0.65882353
v -0.15611935 0.13146673 -18.32319641 0.25098039 0.27450980 0.65882353
v -0.15521351 0.12045717 -18.32143402 0.25098039 0.27450980 0.65882353
v -0.15782414 0.11986806 -18.32570457 0.25098039 0.27450980 0.65882353
v -0.15309972 0.11270992 -18.32140160 0.25098039 0.27450980 0.65882353
v -0.15450211 0.11266120 -18.32423210 0.25098039 0.27450980 0.65882353
v -0.15471785 0.11128628 -18.32913589 0.25098039 0.27450980 0.65882353
v -0.15080245 0.10809144 -18.32246971 0.25098039 0.27450980 0.65882353
v -0.14798298 0.10757951 -18.32031631 0.25098039 0.27450980 0.65882353
v -0.14942417 0.10554381 -18.32577705 0.25098039 0.27450980 0.65882353
v -0.15241918 0.10939813 -18.32437515 0.25098039 0.27450980 0.65882353
v -0.15181303 0.10795415 -18.32709885 0.25098039 0.27450980 0.65882353
v -0.24300596 0.13948432 -18.36980057 0.25098039 0.27450980 0.65882353
v -0.23859230 0.13800028 -18.36494064 0.25098039 0.27450980 0.65882353
v -0.23648398 0.14242801 -18.36962509 0.25098039 0.27450980 0.65882353
v -0.23178075 0.14835003 -18.37559319 0.25098039 0.27450980 0.65882353
v -0.23278339 0.15570223 -18.38351440 0.25098039 0.27450980 0.65882353
v -0.22715992 0.14912818 -18.37031555 0.25098039 0.27450980 0.65882353
v -0.23224422 0.14292131 -18.36451912 0.25098039 0.27450980 0.65882353
v -0.23569834 0.13677254 -18.35758591 0.25098039 0.27450980 0.65882353
v -0.21934634 0.15610091 -18.36961555 0.25098039 0.27450980 0.65882353
f 2 3 1
f 1 3 4
f 5 6 8
f 8 6 7
f 9 4 10
f 10 4 3
f 12 13 11
f 11 13 9
f 14 12 16
f 16 12 15
f 18 19 17
f 17 19 20
f 22 23 21
f 21 23 24
f 26 27 25
f 25 27 28
f 30 31 29
f 29 31 32
f 33 34 36
f 36 34 35
f 37 38 40
f 40 38 39
f 41 42 6
f 6 42 43
f 6 43 7
f 7 43 44
f 45 34 46
f 46 34 33
f 48 49 47
f 47 49 50
f 52 53 51
f 51 53 54
f 56 52 55
f 55 52 51
f 58 59 57
f 57 59 60
f 61 62 4
f 4 62 1
f 64 65 63
f 63 65 66
f 68 69 67
f 67 69 70
f 72 73 71
f 71 73 74
f 76 77 75
f 75 77 78
f 53 79 54
f 54 79 80
f 82 83 81
f 81 83 84
f 85 86 52
f 52 86 53
f 57 60 87
f 87 60 88
f 89 90 43
f 43 90 44
f 43 42 89
f 89 42 91
f 40 39 92
f 92 39 93
f 94 70 64
f 64 70 69
f 13 61 9
f 9 61 4
f 25 28 69
f 69 28 95
f 96 25 68
f 68 25 69
f 98 99 97
f 97 99 100
f 101 102 104
f 104 102 103
f 106 30 105
f 105 30 29
f 51 54 107
f 107 54 108
f 54 80 108
f 108 80 109
f 111 112 110
f 110 112 113
f 115 5 114
f 114 5 116
f 115 41 5
f 5 41 6
f 36 35 111
f 111 35 117
f 35 118 117
f 117 118 119
f 34 120 35
f 35 120 118
f 34 45 120
f 120 45 121
f 125 126 124
f 124 126 127
f 128 129 14
f 14 129 130
f 33 131 46
f 46 131 132
f 133 94 63
f 63 94 64
f 134 135 137
f 137 135 136
f 139 140 138
f 138 140 141
f 77 142 78
f 78 142 143
f 144 145 20
f 20 145 146
f 148 149 147
f 147 149 72
f 151 152 150
f 150 152 153
f 82 101 83
f 83 101 104
f 101 82 155
f 155 82 154
f 156 157 58
f 58 157 59
f 158 68 147
f 147 68 67
f 159 146 15
f 15 146 16
f 68 158 96
f 96 158 160
f 129 66 130
f 130 66 65
f 162 163 161
f 161 163 164
f 166 167 165
f 165 167 168
f 170 171 169
f 169 171 172
f 174 171 173
f 173 171 170
f 176 177 175
f 175 177 178
f 180 181 179
f 179 181 24
f 182 183 21
f 21 183 184
f 81 185 82
f 82 185 154
f 186 187 188
f 188 187 144
f 158 71 160
f 160 71 189
f 190 135 157
f 157 135 59
f 169 172 139
f 139 172 140
f 147 72 158
f 158 72 71
f 192 193 191
f 191 193 194
f 167 166 49
f 49 166 195
f 196 190 50
f 50 190 157
f 197 198 200
f 200 198 199
f 21 24 182
f 182 24 181
f 146 159 20
f 20 159 17
f 182 181 81
f 81 181 185
f 201 185 180
f 180 185 181
f 202 203 83
f 83 203 84
f 205 206 204
f 204 206 85
f 207 22 184
f 184 22 21
f 179 24 208
f 208 24 23
f 208 209 179
f 179 209 205
f 209 210 205
f 205 210 206
f 212 206 211
f 211 206 210
f 179 205 180
f 180 205 204
f 213 176 88
f 88 176 214
f 86 85 212
f 212 85 206
f 193 217 218
f 217 219 218
f 218 219 220
f 219 18 220
f 220 18 17
f 19 221 20
f 20 221 144
f 222 223 225
f 225 223 224
f 175 226 176
f 176 226 214
f 227 87 214
f 214 87 88
f 220 17 228
f 228 17 159
f 134 213 60
f 60 213 88
f 138 229 151
f 151 229 152
f 193 192 210
f 210 192 211
f 230 194 218
f 218 194 193
f 231 232 228
f 228 232 230
f 233 234 91
f 91 234 89
f 235 236 93
f 93 236 92
f 230 232 234
f 234 232 237
f 47 238 48
f 48 238 239
f 240 191 235
f 235 191 236
f 5 8 116
f 116 8 241
f 242 243 189
f 189 243 160
f 244 245 98
f 98 245 99
f 156 246 47
f 47 246 238
f 76 247 77
f 77 247 248
f 250 125 249
f 249 125 124
f 252 253 251
f 251 253 254
f 111 110 36
f 36 110 255
f 256 33 255
f 255 33 36
f 257 258 154
f 154 258 155
f 63 169 133
f 133 169 139
f 66 170 63
f 63 170 169
f 173 170 129
f 129 170 66
f 129 128 173
f 173 128 259
f 128 260 259
f 259 260 261
f 213 134 262
f 262 134 137
f 263 264 186
f 186 264 187
f 112 265 113
f 113 265 266
f 11 267 268
f 234 233 230
f 230 233 194
f 153 269 70
f 70 269 67
f 175 178 165
f 165 178 141
f 150 153 94
f 94 153 70
f 271 221 270
f 270 221 207
f 269 153 272
f 272 153 152
f 121 45 109
f 109 45 108
f 47 50 156
f 156 50 157
f 57 273 58
f 58 273 274
f 145 275 260
f 260 275 261
f 276 149 143
f 143 149 78
f 148 269 75
f 75 269 272
f 207 277 270
f 270 277 278
f 195 196 49
f 49 196 50
f 59 135 60
f 60 135 134
f 83 104 202
f 202 104 279
f 149 148 78
f 78 148 75
f 247 278 248
f 248 278 277
f 183 182 84
f 84 182 81
f 48 239 281
f 281 239 282
f 227 223 283
f 283 223 222
f 223 226 224
f 224 226 168
f 281 282 224
f 224 282 225
f 165 168 175
f 175 168 226
f 264 263 138
f 138 263 229
f 14 16 128
f 128 16 260
f 220 228 218
f 218 228 230
f 87 227 284
f 284 227 283
f 260 16 145
f 145 16 146
f 244 98 258
f 258 98 155
f 58 274 156
f 156 274 246
f 107 285 51
f 51 285 55
f 243 286 160
f 160 286 96
f 234 237 89
f 89 237 90
f 46 132 107
f 107 132 285
f 253 252 249
f 249 252 250
f 286 26 96
f 96 26 25
f 106 105 287
f 287 105 288
f 272 152 289
f 289 152 229
f 138 151 139
f 139 151 133
f 183 290 161
f 161 290 162
f 291 292 277
f 277 292 293
f 151 150 133
f 133 150 94
f 262 275 177
f 177 275 187
f 144 187 145
f 145 187 275
f 273 57 284
f 284 57 87
f 174 136 190
f 190 136 135
f 111 117 112
f 112 117 38
f 117 119 38
f 38 119 123
f 112 38 265
f 265 38 37
f 287 288 254
f 254 288 251
f 228 159 231
f 231 159 15
f 223 227 226
f 226 227 214
f 147 67 148
f 148 67 269
f 224 168 281
f 281 168 167
f 199 163 200
f 200 163 162
f 45 46 108
f 108 46 107
f 281 167 48
f 48 167 49
f 161 164 291
f 291 164 292
f 38 123 39
f 293 294 277
f 277 294 248
f 284 283 296
f 296 283 295
f 284 296 273
f 273 296 297
f 274 273 298
f 298 273 297
f 246 274 299
f 299 274 298
f 283 222 295
f 295 222 300
f 222 225 300
f 300 225 301
f 301 225 302
f 302 225 282
f 303 304 300
f 300 304 295
f 306 307 305
f 305 307 308
f 309 310 308
f 308 310 305
f 308 307 312
f 312 307 311
f 313 314 312
f 312 314 315
f 311 316 312
f 312 316 313
f 317 304 311
f 311 304 316
f 315 309 312
f 312 309 308
f 318 319 321
f 321 319 320
f 319 318 309
f 309 318 310
f 311 307 317
f 317 307 306
f 306 297 317
f 317 297 296
f 306 322 297
f 297 322 298
f 305 323 306
f 306 323 322
f 323 305 324
f 324 305 310
f 304 317 295
f 295 317 296
f 318 325 310
f 310 325 324
f 323 324 326
f 326 324 327
f 324 325 327
f 327 325 328
f 326 327 329
f 329 327 330
f 329 331 326
f 326 331 332
f 333 330 328
f 328 330 327
f 323 326 322
f 322 326 332
f 322 332 298
f 298 332 299
f 325 318 334
f 334 318 321
f 313 316 335
f 335 316 304
f 335 336 313
f 313 336 314
f 304 303 335
f 335 303 337
f 336 335 338
f 338 335 337
f 336 339 314
f 314 339 340
f 246 299 238
f 238 299 341
f 239 342 282
f 282 342 302
f 342 239 341
f 341 239 238
f 341 331 342
f 342 331 343
f 331 329 343
f 343 329 344
f 342 343 302
f 302 343 345
f 341 299 331
f 331 299 332
f 346 301 345
f 345 301 302
f 346 303 301
f 301 303 300
f 347 337 346
f 346 337 303
f 347 346 348
f 348 346 345
f 349 347 350
f 350 347 348
f 343 344 345
f 345 344 348
f 344 351 348
f 348 351 350
f 337 347 338
f 338 347 349
f 353 338 352
f 352 338 349
f 352 355 354
f 354 355 356
f 352 349 355
f 355 349 350
f 352 354 353
f 353 354 334
f 353 334 339
f 339 334 321
f 339 336 353
f 353 336 338
f 329 330 344
f 344 330 351
f 356 351 333
f 333 351 330
f 356 355 351
f 351 355 350
f 354 356 328
f 328 356 333
f 328 325 354
f 354 325 334
f 309 315 319
f 319 315 320
f 320 340 321
f 321 340 339
f 320 315 340
f 340 315 314
f 137 136 261
f 261 136 259
f 140 166 141
f 141 166 165
f 172 171 195
f 195 171 196
f 171 174 196
f 196 174 190
f 178 177 264
f 264 177 187
f 172 195 140
f 140 195 166
f 137 261 262
f 262 261 275
f 178 264 141
f 141 264 138
f 262 177 213
f 213 177 176
f 136 174 259
f 259 174 173
f 358 359 357
f 357 359 360
f 362 363 361
f 361 363 364
f 361 364 365
f 365 364 366
f 367 368 370
f 370 368 369
f 76 371 247
f 247 371 372
f 373 374 362
f 362 374 363
f 376 377 375
f 375 377 378
f 289 229 380
f 380 229 379
f 381 379 263
f 263 379 229
f 383 384 382
f 382 384 385
f 386 368 374
f 374 368 363
f 76 289 371
f 371 289 380
f 377 376 359
f 359 376 387
f 388 386 360
f 360 386 374
f 389 383 366
f 366 383 390
f 392 393 391
f 391 393 394
f 383 382 390
f 390 382 395
f 396 365 390
f 390 365 366
f 389 366 367
f 367 366 364
f 357 397 358
f 358 397 398
f 373 399 357
f 357 399 397
f 389 367 400
f 400 367 370
f 382 385 375
f 375 385 372
f 357 360 373
f 373 360 374
f 361 401 362
f 362 401 402
f 387 388 359
f 359 388 360
f 363 368 364
f 364 368 367
f 358 398 403
f 403 398 404
f 396 392 405
f 405 392 391
f 392 395 393
f 393 395 378
f 393 403 394
f 394 403 404
f 375 378 382
f 382 378 395
f 365 396 406
f 406 396 405
f 362 402 373
f 373 402 399
f 271 270 400
f 400 270 384
f 401 361 406
f 406 361 365
f 381 369 386
f 386 369 368
f 392 396 395
f 395 396 390
f 393 378 403
f 403 378 377
f 403 377 358
f 358 377 359
f 406 405 408
f 408 405 407
f 406 408 401
f 401 408 409
f 401 409 402
f 402 409 410
f 402 410 399
f 399 410 411
f 405 391 407
f 407 391 412
f 391 394 412
f 412 394 413
f 394 404 413
f 413 404 414
f 415 416 412
f 412 416 407
f 418 419 417
f 417 419 420
f 421 422 418
f 418 422 419
f 419 422 424
f 424 422 423
f 425 426 424
f 424 426 427
f 423 428 424
f 424 428 425
f 427 420 424
f 424 420 419
f 420 429 417
f 417 429 430
f 423 422 431
f 431 422 421
f 421 409 431
f 431 409 408
f 421 432 409
f 409 432 410
f 418 433 421
f 421 433 432
f 434 433 417
f 417 433 418
f 431 416 423
f 423 416 428
f 416 431 407
f 407 431 408
f 435 434 430
f 430 434 417
f 433 434 436
f 436 434 437
f 434 435 437
f 437 435 438
f 436 437 439
f 439 437 440
f 439 441 436
f 436 441 442
f 438 443 437
f 437 443 440
f 436 442 433
f 433 442 432
f 432 442 410
f 410 442 411
f 435 430 445
f 445 430 444
f 430 429 444
f 444 429 446
f 425 428 447
f 447 428 416
f 426 425 448
f 448 425 447
f 416 415 447
f 447 415 449
f 447 449 448
f 448 449 450
f 451 452 448
f 448 452 426
f 446 452 444
f 444 452 451
f 399 411 397
f 397 411 453
f 398 454 404
f 404 454 414
f 454 398 453
f 453 398 397
f 453 441 454
f 454 441 455
f 441 439 455
f 455 439 456
f 454 455 414
f 414 455 457
f 441 453 442
f 442 453 411
f 458 413 457
f 457 413 414
f 458 415 413
f 413 415 412
f 458 459 415
f 415 459 449
f 459 458 460
f 460 458 457
f 461 459 462
f 462 459 460
f 455 456 457
f 457 456 460
f 456 463 460
f 460 463 462
f 459 461 449
f 449 461 450
f 465 450 464
f 464 450 461
f 464 467 466
f 466 467 468
f 464 461 467
f 467 461 462
f 464 466 465
f 465 466 445
f 465 445 451
f 451 445 444
f 451 448 465
f 465 448 450
f 439 440 456
f 456 440 463
f 468 463 443
f 443 463 440
f 468 467 463
f 463 467 462
f 466 468 438
f 438 468 443
f 438 435 466
f 466 435 445
f 420 427 429
f 429 427 446
f 446 427 452
f 452 427 426
f 370 369 188
f 188 369 186
f 371 376 372
f 372 376 375
f 380 379 387
f 387 379 388
f 379 381 388
f 388 381 386
f 385 384 278
f 278 384 270
f 380 387 371
f 371 387 376
f 400 370 271
f 271 370 188
f 385 278 372
f 372 278 247
f 400 384 389
f 389 384 383
f 369 381 186
f 186 381 263
f 221 271 144
f 144 271 188
f 221 19 207
f 207 19 22
f 19 18 22
f 22 18 23
f 18 219 23
f 23 219 208
f 469 470 472
f 472 470 471
f 474 475 473
f 473 475 476
f 473 476 477
f 477 476 478
f 480 481 479
f 479 481 482
f 483 484 474
f 474 484 475
f 486 487 485
f 485 487 488
f 489 490 77
f 77 490 142
f 491 489 248
f 248 489 77
f 493 494 492
f 492 494 495
f 496 480 484
f 484 480 475
f 486 497 487
f 487 497 471
f 498 496 472
f 472 496 484
f 499 493 478
f 478 493 500
f 501 502 504
f 504 502 503
f 493 492 500
f 500 492 505
f 506 477 500
f 500 477 478
f 499 478 479
f 479 478 476
f 469 507 470
f 470 507 508
f 483 509 469
f 469 509 507
f 479 482 499
f 499 482 510
f 492 495 485
f 485 495 511
f 483 469 484
f 484 469 472
f 473 512 474
f 474 512 513
f 497 498 471
f 471 498 472
f 475 480 476
f 476 480 479
f 470 508 514
f 514 508 515
f 506 502 516
f 516 502 501
f 503 502 488
f 488 502 505
f 514 515 503
f 503 515 504
f 485 488 492
f 492 488 505
f 477 506 517
f 517 506 516
f 474 513 483
f 483 513 509
f 510 292 494
f 494 292 164
f 512 473 517
f 517 473 477
f 491 481 496
f 496 481 480
f 502 506 505
f 505 506 500
f 503 488 514
f 514 488 487
f 514 487 470
f 470 487 471
f 517 516 519
f 519 516 518
f 517 519 512
f 512 519 520
f 512 520 513
f 513 520 521
f 513 521 509
f 509 521 522
f 516 501 518
f 518 501 523
f 501 504 523
f 523 504 524
f 524 504 525
f 525 504 515
f 526 527 523
f 523 527 518
f 529 530 528
f 528 530 531
f 532 533 529
f 529 533 530
f 530 533 535
f 535 533 534
f 536 537 535
f 535 537 538
f 534 539 535
f 535 539 536
f 538 531 535
f 535 531 530
f 540 541 531
f 531 541 528
f 533 532 534
f 534 532 542
f 532 520 542
f 542 520 519
f 532 543 520
f 520 543 521
f 529 544 532
f 532 544 543
f 544 529 545
f 545 529 528
f 534 542 539
f 539 542 527
f 527 542 518
f 518 542 519
f 541 546 528
f 528 546 545
f 547 544 548
f 548 544 545
f 546 549 545
f 545 549 548
f 550 547 551
f 551 547 548
f 547 550 553
f 553 550 552
f 549 554 548
f 548 554 551
f 544 547 543
f 543 547 553
f 543 553 521
f 521 553 522
f 546 541 556
f 556 541 555
f 541 540 555
f 555 540 557
f 536 539 558
f 558 539 527
f 537 536 559
f 559 536 558
f 527 526 558
f 558 526 560
f 559 558 561
f 561 558 560
f 559 562 537
f 537 562 563
f 557 563 555
f 555 563 562
f 509 522 507
f 507 522 564
f 508 565 515
f 515 565 525
f 565 508 564
f 564 508 507
f 564 552 565
f 565 552 566
f 552 550 566
f 566 550 567
f 565 566 525
f 525 566 568
f 564 522 552
f 552 522 553
f 569 524 568
f 568 524 525
f 569 526 524
f 524 526 523
f 570 560 569
f 569 560 526
f 570 569 571
f 571 569 568
f 572 570 573
f 573 570 571
f 566 567 568
f 568 567 571
f 567 574 571
f 571 574 573
f 570 572 560
f 560 572 561
f 576 561 575
f 575 561 572
f 575 578 577
f 577 578 579
f 575 572 578
f 578 572 573
f 575 577 576
f 576 577 556
f 576 556 562
f 562 556 555
f 562 559 576
f 576 559 561
f 550 551 567
f 567 551 574
f 579 574 554
f 554 574 551
f 579 578 574
f 574 578 573
f 579 554 577
f 577 554 549
f 549 546 577
f 577 546 556
f 531 538 540
f 540 538 557
f 557 538 563
f 563 538 537
f 481 294 482
f 482 294 293
f 580 486 511
f 511 486 485
f 490 489 497
f 497 489 498
f 489 491 498
f 498 491 496
f 163 495 164
f 164 495 494
f 580 490 486
f 486 490 497
f 482 293 510
f 510 293 292
f 495 163 511
f 511 163 199
f 494 493 510
f 510 493 499
f 481 491 294
f 294 491 248
f 582 583 581
f 581 583 584
f 586 587 585
f 585 587 588
f 585 588 589
f 589 588 590
f 592 593 591
f 591 593 594
f 595 596 598
f 598 596 597
f 599 600 586
f 586 600 587
f 601 602 604
f 604 602 603
f 605 606 608
f 608 606 607
f 609 607 200
f 200 607 606
f 610 611 613
f 613 611 612
f 600 614 587
f 587 614 592
f 596 605 597
f 597 605 608
f 602 615 603
f 603 615 583
f 616 614 584
f 584 614 600
f 611 618 617
f 617 618 590
f 620 621 619
f 619 621 622
f 610 623 611
f 611 623 618
f 624 589 618
f 618 589 590
f 617 590 591
f 591 590 588
f 581 625 582
f 582 625 626
f 599 627 581
f 581 627 625
f 591 594 617
f 617 594 628
f 601 610 598
f 598 610 613
f 581 584 599
f 599 584 600
f 585 629 586
f 586 629 630
f 615 616 583
f 583 616 584
f 587 592 588
f 588 592 591
f 582 626 631
f 631 626 632
f 624 620 633
f 633 620 619
f 621 620 604
f 604 620 623
f 631 632 621
f 621 632 622
f 610 601 623
f 623 601 604
f 589 624 634
f 634 624 633
f 586 630 599
f 599 630 627
f 203 202 628
f 628 202 612
f 629 585 634
f 634 585 589
f 609 593 614
f 614 593 592
f 620 624 623
f 623 624 618
f 631 621 603
f 603 621 604
f 582 631 583
f 583 631 603
f 634 633 636
f 636 633 635
f 634 636 629
f 629 636 637
f 629 637 630
f 630 637 638
f 630 638 627
f 627 638 639
f 633 619 635
f 635 619 640
f 619 622 640
f 640 622 641
f 641 622 642
f 642 622 632
f 644 635 643
f 643 635 640
f 645 646 648
f 648 646 647
f 649 650 646
f 646 650 647
f 647 650 652
f 652 650 651
f 652 653 655
f 655 653 654
f 651 656 652
f 652 656 653
f 655 648 652
f 652 648 647
f 648 657 645
f 645 657 658
f 650 649 651
f 651 649 659
f 649 637 659
f 659 637 636
f 649 660 637
f 637 660 638
f 661 660 646
f 646 660 649
f 662 661 645
f 645 661 646
f 651 659 656
f 656 659 644
f 644 659 635
f 635 659 636
f 663 662 658
f 658 662 645
f 664 661 665
f 665 661 662
f 663 666 662
f 662 666 665
f 667 664 668
f 668 664 665
f 664 667 670
f 670 667 669
f 666 671 665
f 665 671 668
f 661 664 660
f 660 664 670
f 660 670 638
f 638 670 639
f 658 672 663
f 663 672 673
f 658 657 672
f 672 657 674
f 653 656 675
f 675 656 644
f 653 675 654
f 654 675 676
f 675 644 677
f 677 644 643
f 676 675 678
f 678 675 677
f 679 680 676
f 676 680 654
f 674 680 672
f 672 680 679
f 627 639 625
f 625 639 681
f 626 682 632
f 632 682 642
f 681 682 625
f 625 682 626
f 669 683 681
f 681 683 682
f 667 684 669
f 669 684 683
f 682 683 642
f 642 683 685
f 681 639 669
f 669 639 670
f 686 641 685
f 685 641 642
f 641 686 640
f 640 686 643
f 686 687 643
f 643 687 677
f 687 686 688
f 688 686 685
f 689 687 690
f 690 687 688
f 683 684 685
f 685 684 688
f 684 691 688
f 688 691 690
f 687 689 677
f 677 689 678
f 693 678 692
f 692 678 689
f 692 695 694
f 694 695 696
f 692 689 695
f 695 689 690
f 692 694 693
f 693 694 673
f 693 673 679
f 679 673 672
f 679 676 693
f 693 676 678
f 684 667 691
f 691 667 668
f 696 691 671
f 671 691 668
f 696 695 691
f 691 695 690
f 694 696 666
f 666 696 671
f 666 663 694
f 694 663 673
f 648 655 657
f 657 655 674
f 674 655 680
f 680 655 654
f 593 162 594
f 594 162 290
f 598 597 601
f 601 597 602
f 615 608 616
f 616 608 607
f 607 609 616
f 616 609 614
f 697 595 613
f 613 595 598
f 597 608 602
f 602 608 615
f 594 290 628
f 628 290 203
f 628 612 617
f 617 612 611
f 593 609 162
f 162 609 200
f 105 29 698
f 698 29 699
f 268 126 701
f 701 126 700
f 126 125 700
f 700 125 702
f 252 703 250
f 250 703 704
f 32 268 705
f 705 268 701
f 288 105 706
f 706 105 698
f 29 32 699
f 699 32 705
f 707 251 706
f 706 251 288
f 250 704 125
f 125 704 702
f 703 252 707
f 707 252 251
f 706 708 707
f 707 708 709
f 707 709 703
f 703 709 710
f 703 710 704
f 704 710 711
f 704 711 702
f 702 711 712
f 706 698 708
f 708 698 713
f 698 699 713
f 713 699 714
f 699 705 714
f 714 705 715
f 717 708 716
f 716 708 713
f 719 720 718
f 718 720 721
f 722 723 719
f 719 723 720
f 724 725 723
f 723 725 720
f 724 726 725
f 725 726 727
f 728 721 725
f 725 721 720
f 721 728 729
f 729 728 730
f 729 731 721
f 721 731 718
f 724 723 732
f 732 723 722
f 722 710 732
f 732 710 709
f 722 733 710
f 710 733 711
f 719 734 722
f 722 734 733
f 734 719 735
f 735 719 718
f 724 732 726
f 726 732 717
f 717 732 708
f 708 732 709
f 731 736 718
f 718 736 735
f 737 734 738
f 738 734 735
f 736 739 735
f 735 739 738
f 740 737 741
f 741 737 738
f 737 740 743
f 743 740 742
f 739 744 738
f 738 744 741
f 734 737 733
f 733 737 743
f 733 743 711
f 711 743 712
f 736 731 746
f 746 731 745
f 731 729 745
f 745 729 730
f 727 726 747
f 747 726 717
f 748 727 749
f 749 727 747
f 747 717 750
f 750 717 716
f 749 747 751
f 751 747 750
f 749 752 748
f 748 752 753
f 730 753 745
f 745 753 752
f 728 725 748
f 748 725 727
f 730 728 753
f 753 728 748
f 700 702 754
f 754 702 712
f 705 701 715
f 715 701 755
f 754 755 700
f 700 755 701
f 742 756 754
f 754 756 755
f 740 757 742
f 742 757 756
f 755 756 715
f 715 756 758
f 754 712 742
f 742 712 743
f 759 714 758
f 758 714 715
f 714 759 713
f 713 759 716
f 759 760 716
f 716 760 750
f 760 759 761
f 761 759 758
f 762 760 763
f 763 760 761
f 756 757 758
f 758 757 761
f 757 764 761
f 761 764 763
f 760 762 750
f 750 762 751
f 766 751 765
f 765 751 762
f 767 765 769
f 769 765 768
f 765 762 768
f 768 762 763
f 765 767 766
f 766 767 746
f 766 746 752
f 752 746 745
f 752 749 766
f 766 749 751
f 757 740 764
f 764 740 741
f 769 764 744
f 744 764 741
f 769 768 764
f 764 768 763
f 767 769 739
f 739 769 744
f 739 736 767
f 767 736 746
f 219 217 208
f 208 217 209
f 209 217 210
f 210 217 193
f 198 580 199
f 199 580 511
f 76 75 289
f 289 75 272
f 277 207 291
f 291 207 184
f 290 183 203
f 203 183 84
f 490 580 142
f 142 580 198
f 142 198 143
f 143 198 197
f 149 276 72
f 72 276 73
f 104 103 279
f 279 103 770
f 770 596 279
f 279 596 595
f 605 596 771
f 771 596 770
f 771 770 772
f 772 770 103
f 772 103 773
f 773 103 102
f 155 774 101
f 101 774 102
f 773 102 97
f 97 102 774
f 775 773 100
f 100 773 97
f 773 775 772
f 772 775 776
f 772 776 771
f 771 776 777
f 200 606 197
f 197 606 777
f 189 71 778
f 778 71 74
f 97 774 98
f 98 774 155
f 183 161 184
f 184 161 291
f 777 276 197
f 197 276 143
f 777 606 771
f 771 606 605
f 613 612 697
f 697 612 202
f 595 697 279
f 279 697 202
f 73 276 776
f 776 276 777
f 776 775 73
f 73 775 74
f 100 778 775
f 775 778 74
f 778 100 189
f 189 100 99
f 245 242 99
f 99 242 189
f 131 33 256
f 28 1 95
f 95 1 62
f 27 2 28
f 28 2 1
f 265 115 266
f 266 115 114
f 95 62 69
f 69 62 64
f 62 61 64
f 64 61 65
f 61 13 65
f 65 13 130
f 13 12 130
f 130 12 14
f 31 11 32
f 32 11 268
f 15 12 31
f 31 12 11
f 31 30 15
f 15 30 231
f 30 106 231
f 231 106 232
f 287 237 106
f 106 237 232
f 254 90 287
f 287 90 237
f 253 44 254
f 254 44 90
f 253 249 44
f 44 249 7
f 267 127 268
f 268 127 126
f 10 3 241
f 241 3 116
f 3 2 116
f 116 2 114
f 2 27 114
f 114 27 266
f 27 26 266
f 266 26 113
f 26 286 113
f 113 286 110
f 286 243 110
f 110 243 255
f 243 242 255
f 255 242 256
f 242 245 256
f 256 245 131
f 245 244 131
f 131 244 132
f 265 37 115
f 115 37 41
f 41 37 42
f 42 37 40
f 92 91 40
f 40 91 42
f 236 233 92
f 92 233 91
f 191 194 236
f 236 194 233
f 258 285 244
f 244 285 132
f 257 55 258
f 258 55 285
f 257 154 201
f 201 154 185
f 56 201 204
f 204 201 180
f 55 257 56
f 56 257 201
f 204 85 56
f 56 85 52
f 86 122 53
f 53 122 79
f 212 215 86
f 86 215 122
f 211 216 212
f 212 216 215
f 192 280 211
f 211 280 216
f 191 240 192
f 192 240 280
f 249 124 7
f 7 124 8
f 124 127 8
f 8 127 241
f 127 267 241
f 241 267 10
f 10 267 9
f 9 267 11
f 93 39 235
f 235 39 240
f 39 123 240
f 240 123 280
f 123 119 280
f 280 119 216
f 119 118 216
f 216 118 215
f 118 120 215
f 215 120 122
f 120 121 122
f 122 121 79
f 121 109 79
f 79 109 80

