# https://github.com/mikedh/trimesh
v -0.12840706 0.23472984 -14.46379471 0.25098039 0.27450980 0.65882353
v -0.12874518 0.24263823 -14.47090816 0.25098039 0.27450980 0.65882353
v -0.12282070 0.23480421 -14.47085571 0.25098039 0.27450980 0.65882353
v -0.12186240 0.22881651 -14.46254253 0.25098039 0.27450980 0.65882353
v -0.11875185 0.24670018 -14.48811817 0.25098039 0.27450980 0.65882353
v -0.11011721 0.25367498 -14.48971081 0.25098039 0.27450980 0.65882353
v -0.10431780 0.23929083 -14.48643970 0.25098039 0.27450980 0.65882353
v -0.11255923 0.23470123 -14.48651505 0.25098039 0.27450980 0.65882353
v -0.11675233 0.22399323 -14.46014977 0.25098039 0.27450980 0.65882353
v -0.11801702 0.22778907 -14.47046280 0.25098039 0.27450980 0.65882353
v -0.11414227 0.22401084 -14.45733261 0.25098039 0.27450980 0.65882353
v -0.11469756 0.22394013 -14.44383144 0.25098039 0.27450980 0.65882353
v -0.11656632 0.22159111 -14.44953632 0.25098039 0.27450980 0.65882353
v -0.11687963 0.22058177 -14.43641663 0.25098039 0.27450980 0.65882353
v -0.11581054 0.23372233 -14.43974590 0.25098039 0.27450980 0.65882353
v -0.12238448 0.22460866 -14.42985153 0.25098039 0.27450980 0.65882353
v -0.14162162 0.24559638 -14.43759155 0.25098039 0.27450980 0.65882353
v -0.15378845 0.24751103 -14.44209194 0.25098039 0.27450980 0.65882353
v -0.15646292 0.23257357 -14.43399906 0.25098039 0.27450980 0.65882353
v -0.14342159 0.23166987 -14.43099689 0.25098039 0.27450980 0.65882353
v -0.17064711 0.23747510 -14.44686317 0.25098039 0.27450980 0.65882353
v -0.16287804 0.23404060 -14.43955612 0.25098039 0.27450980 0.65882353
v -0.16074049 0.24952976 -14.44631290 0.25098039 0.27450980 0.65882353
v -0.16770205 0.25169024 -14.45269775 0.25098039 0.27450980 0.65882353
v -0.14120270 0.24188469 -14.46888828 0.25098039 0.27450980 0.65882353
v -0.14118442 0.25034320 -14.47511387 0.25098039 0.27450980 0.65882353
v -0.13654414 0.24850583 -14.47238827 0.25098039 0.27450980 0.65882353
v -0.13644694 0.24034351 -14.46684170 0.25098039 0.27450980 0.65882353
v -0.10432422 0.22572666 -14.46001148 0.25098039 0.27450980 0.65882353
v -0.10643022 0.23653814 -14.45404243 0.25098039 0.27450980 0.65882353
v -0.11063775 0.23000470 -14.45301342 0.25098039 0.27450980 0.65882353
v -0.10740699 0.22208810 -14.46248722 0.25098039 0.27450980 0.65882353
v -0.14651370 0.26753569 -14.49712563 0.25098039 0.27450980 0.65882353
v -0.14582354 0.28045002 -14.49821758 0.25098039 0.27450980 0.65882353
v -0.14064091 0.28097463 -14.49602413 0.25098039 0.27450980 0.65882353
v -0.14266339 0.26926571 -14.49499512 0.25098039 0.27450980 0.65882353
v -0.12109905 0.27371120 -14.49069405 0.25098039 0.27450980 0.65882353
v -0.12462916 0.28331587 -14.48981571 0.25098039 0.27450980 0.65882353
v -0.11801213 0.29231954 -14.48305511 0.25098039 0.27450980 0.65882353
v -0.11366983 0.28320360 -14.48081112 0.25098039 0.27450980 0.65882353
v -0.11538176 0.26339024 -14.49065113 0.25098039 0.27450980 0.65882353
v -0.10818090 0.27150494 -14.48329258 0.25098039 0.27450980 0.65882353
v -0.10344188 0.25978854 -14.48335361 0.25098039 0.27450980 0.65882353
v -0.09875569 0.24390705 -14.48114300 0.25098039 0.27450980 0.65882353
v -0.15785322 0.28105795 -14.50096416 0.25098039 0.27450980 0.65882353
v -0.15981299 0.27138489 -14.50086212 0.25098039 0.27450980 0.65882353
v -0.11916829 0.17789051 -14.44346428 0.25098039 0.27450980 0.65882353
v -0.12397410 0.17749536 -14.44641876 0.25098039 0.27450980 0.65882353
v -0.12441067 0.18108155 -14.44552326 0.25098039 0.27450980 0.65882353
v -0.11960410 0.18073013 -14.44260502 0.25098039 0.27450980 0.65882353
v -0.17330174 0.28065783 -14.48953915 0.25098039 0.27450980 0.65882353
v -0.17546681 0.28443485 -14.48101807 0.25098039 0.27450980 0.65882353
v -0.17518315 0.28999153 -14.48558235 0.25098039 0.27450980 0.65882353
v -0.17143449 0.28689682 -14.49315834 0.25098039 0.27450980 0.65882353
v -0.17559451 0.27238232 -14.48480797 0.25098039 0.27450980 0.65882353
v -0.17516306 0.27651566 -14.47500038 0.25098039 0.27450980 0.65882353
v -0.11947210 0.17110543 -14.43289185 0.25098039 0.27450980 0.65882353
v -0.11665837 0.17348236 -14.43628502 0.25098039 0.27450980 0.65882353
v -0.11765258 0.17690063 -14.43328476 0.25098039 0.27450980 0.65882353
v -0.12102149 0.17522754 -14.42991829 0.25098039 0.27450980 0.65882353
v -0.12098689 0.22304837 -14.45466042 0.25098039 0.27450980 0.65882353
v -0.12810943 0.22667903 -14.45869827 0.25098039 0.27450980 0.65882353
v -0.12460577 0.21030328 -14.44557095 0.25098039 0.27450980 0.65882353
v -0.12694094 0.21655107 -14.45002937 0.25098039 0.27450980 0.65882353
v -0.12079388 0.21779600 -14.44761086 0.25098039 0.27450980 0.65882353
v -0.11979426 0.21288459 -14.44305134 0.25098039 0.27450980 0.65882353
v -0.14690046 0.22286062 -14.45882893 0.25098039 0.27450980 0.65882353
v -0.14551339 0.23306079 -14.46401501 0.25098039 0.27450980 0.65882353
v -0.14011499 0.23105638 -14.46113300 0.25098039 0.27450980 0.65882353
v -0.13995808 0.21971697 -14.45539951 0.25098039 0.27450980 0.65882353
v -0.15673584 0.23369922 -14.47182560 0.25098039 0.27450980 0.65882353
v -0.15727589 0.22384280 -14.46563339 0.25098039 0.27450980 0.65882353
v -0.16355467 0.22540256 -14.47066975 0.25098039 0.27450980 0.65882353
v -0.16168812 0.23165748 -14.47501278 0.25098039 0.27450980 0.65882353
v -0.15600294 0.20826982 -14.45303059 0.25098039 0.27450980 0.65882353
v -0.15610841 0.20319477 -14.44948387 0.25098039 0.27450980 0.65882353
v -0.15835661 0.20270640 -14.45083618 0.25098039 0.27450980 0.65882353
v -0.15873852 0.20901407 -14.45485687 0.25098039 0.27450980 0.65882353
v -0.17474398 0.29606906 -14.48913574 0.25098039 0.27450980 0.65882353
v -0.16894126 0.29303861 -14.49599266 0.25098039 0.27450980 0.65882353
v -0.18473147 0.23983940 -14.46196079 0.25098039 0.27450980 0.65882353
v -0.18613751 0.24116883 -14.47229671 0.25098039 0.27450980 0.65882353
v -0.18989576 0.22913614 -14.46874714 0.25098039 0.27450980 0.65882353
v -0.18785743 0.23096201 -14.45789433 0.25098039 0.27450980 0.65882353
v -0.17181222 0.28637978 -14.47216797 0.25098039 0.27450980 0.65882353
v -0.17378369 0.29245943 -14.47659874 0.25098039 0.27450980 0.65882353
v -0.12514682 0.16917235 -14.43189144 0.25098039 0.27450980 0.65882353
v -0.12674034 0.17341030 -14.42936707 0.25098039 0.27450980 0.65882353
v -0.10277474 0.26634976 -14.47164917 0.25098039 0.27450980 0.65882353
v -0.09665366 0.24749562 -14.47259426 0.25098039 0.27450980 0.65882353
v -0.10963497 0.28017789 -14.47147083 0.25098039 0.27450980 0.65882353
v -0.11596185 0.28927070 -14.47155762 0.25098039 0.27450980 0.65882353
v -0.11890107 0.29763424 -14.47314072 0.25098039 0.27450980 0.65882353
v -0.13265583 0.21345896 -14.44991207 0.25098039 0.27450980 0.65882353
v -0.13457799 0.23233050 -14.46177387 0.25098039 0.27450980 0.65882353
v -0.14545946 0.24266580 -14.47135925 0.25098039 0.27450980 0.65882353
v -0.16993250 0.23915127 -14.48746204 0.25098039 0.27450980 0.65882353
v -0.16792032 0.24772568 -14.49264717 0.25098039 0.27450980 0.65882353
v -0.15982714 0.24419564 -14.48761177 0.25098039 0.27450980 0.65882353
v -0.16348922 0.23773184 -14.48361301 0.25098039 0.27450980 0.65882353
v -0.18393792 0.23718302 -14.48067093 0.25098039 0.27450980 0.65882353
v -0.17812786 0.23289859 -14.48296928 0.25098039 0.27450980 0.65882353
v -0.18010794 0.22560389 -14.47897720 0.25098039 0.27450980 0.65882353
v -0.18640834 0.22787297 -14.47660160 0.25098039 0.27450980 0.65882353
v -0.09776367 0.22904475 -14.46045780 0.25098039 0.27450980 0.65882353
v -0.10225876 0.24218482 -14.45627975 0.25098039 0.27450980 0.65882353
v -0.16789576 0.27674165 -14.49715233 0.25098039 0.27450980 0.65882353
v -0.16455521 0.28334111 -14.49901199 0.25098039 0.27450980 0.65882353
v -0.16305754 0.29131597 -14.50035000 0.25098039 0.27450980 0.65882353
v -0.14257637 0.25899160 -14.48622036 0.25098039 0.27450980 0.65882353
v -0.13982663 0.27042592 -14.49359798 0.25098039 0.27450980 0.65882353
v -0.13590088 0.26967323 -14.49201298 0.25098039 0.27450980 0.65882353
v -0.14029709 0.25907257 -14.48374271 0.25098039 0.27450980 0.65882353
v -0.12921786 0.24950843 -14.48048306 0.25098039 0.27450980 0.65882353
v -0.12576024 0.25826016 -14.48913193 0.25098039 0.27450980 0.65882353
v -0.12379646 0.23943566 -14.48080349 0.25098039 0.27450980 0.65882353
v -0.13344720 0.28311464 -14.49373245 0.25098039 0.27450980 0.65882353
v -0.13911644 0.29033652 -14.49908161 0.25098039 0.27450980 0.65882353
v -0.13157928 0.29189035 -14.49533272 0.25098039 0.27450980 0.65882353
v -0.14827135 0.29020306 -14.50141335 0.25098039 0.27450980 0.65882353
v -0.15678403 0.29043382 -14.50248528 0.25098039 0.27450980 0.65882353
v -0.17589676 0.30050325 -14.47869873 0.25098039 0.27450980 0.65882353
v -0.12544355 0.29306555 -14.49026871 0.25098039 0.27450980 0.65882353
v -0.10786219 0.22724938 -14.48369694 0.25098039 0.27450980 0.65882353
v -0.10313627 0.22105439 -14.48121738 0.25098039 0.27450980 0.65882353
v -0.10848422 0.21905947 -14.47636986 0.25098039 0.27450980 0.65882353
v -0.11325429 0.22441193 -14.47825050 0.25098039 0.27450980 0.65882353
v -0.11891610 0.21421134 -14.43095684 0.25098039 0.27450980 0.65882353
v -0.11743084 0.21293485 -14.43800735 0.25098039 0.27450980 0.65882353
v -0.11620267 0.21943554 -14.44301128 0.25098039 0.27450980 0.65882353
v -0.15218931 0.25813958 -14.49481487 0.25098039 0.27450980 0.65882353
v -0.16301990 0.26166177 -14.49819374 0.25098039 0.27450980 0.65882353
v -0.13015509 0.20707382 -14.44532681 0.25098039 0.27450980 0.65882353
v -0.12224609 0.18016371 -14.42805576 0.25098039 0.27450980 0.65882353
v -0.11834802 0.18173721 -14.43182659 0.25098039 0.27450980 0.65882353
v -0.11917211 0.20027253 -14.43036079 0.25098039 0.27450980 0.65882353
v -0.12354446 0.19862053 -14.42573452 0.25098039 0.27450980 0.65882353
v -0.13573566 0.20074695 -14.44003105 0.25098039 0.27450980 0.65882353
v -0.13083056 0.20338769 -14.44393253 0.25098039 0.27450980 0.65882353
v -0.13144241 0.20112132 -14.44308949 0.25098039 0.27450980 0.65882353
v -0.13621284 0.19759493 -14.44120216 0.25098039 0.27450980 0.65882353
v -0.16425645 0.20586956 -14.45676613 0.25098039 0.27450980 0.65882353
v -0.16457477 0.21145080 -14.46034145 0.25098039 0.27450980 0.65882353
v -0.14479013 0.21646512 -14.42760563 0.25098039 0.27450980 0.65882353
v -0.13332295 0.21949586 -14.42177391 0.25098039 0.27450980 0.65882353
v -0.13192725 0.23014881 -14.42798328 0.25098039 0.27450980 0.65882353
v -0.15279415 0.22434381 -14.46265030 0.25098039 0.27450980 0.65882353
v -0.15481617 0.21533212 -14.45815468 0.25098039 0.27450980 0.65882353
v -0.15814957 0.21581878 -14.46017456 0.25098039 0.27450980 0.65882353
v -0.13612840 0.21058773 -14.44868946 0.25098039 0.27450980 0.65882353
v -0.13566844 0.20526496 -14.44444084 0.25098039 0.27450980 0.65882353
v -0.13964182 0.20724566 -14.44606590 0.25098039 0.27450980 0.65882353
v -0.14046824 0.21224305 -14.45084000 0.25098039 0.27450980 0.65882353
v -0.18312319 0.25306672 -14.47638798 0.25098039 0.27450980 0.65882353
v -0.18107511 0.24822833 -14.48621559 0.25098039 0.27450980 0.65882353
v -0.11654080 0.17619228 -14.43997765 0.25098039 0.27450980 0.65882353
v -0.11715415 0.17917573 -14.43809032 0.25098039 0.27450980 0.65882353
v -0.15127774 0.23421630 -14.46780777 0.25098039 0.27450980 0.65882353
v -0.13093072 0.24235897 -14.43615246 0.25098039 0.27450980 0.65882353
v -0.14996366 0.24326086 -14.47425556 0.25098039 0.27450980 0.65882353
v -0.17830515 0.21714014 -14.44973755 0.25098039 0.27450980 0.65882353
v -0.17791581 0.21308139 -14.45643234 0.25098039 0.27450980 0.65882353
v -0.17614767 0.20723957 -14.45538998 0.25098039 0.27450980 0.65882353
v -0.17723283 0.20815158 -14.44980049 0.25098039 0.27450980 0.65882353
v -0.13536736 0.18279487 -14.44171619 0.25098039 0.27450980 0.65882353
v -0.13119596 0.18356711 -14.44517612 0.25098039 0.27450980 0.65882353
v -0.13023970 0.17999439 -14.44566727 0.25098039 0.27450980 0.65882353
v -0.13443176 0.17792727 -14.44241714 0.25098039 0.27450980 0.65882353
v -0.12551501 0.20542452 -14.44413090 0.25098039 0.27450980 0.65882353
v -0.12028372 0.20726511 -14.44166470 0.25098039 0.27450980 0.65882353
v -0.12116549 0.20186388 -14.44159985 0.25098039 0.27450980 0.65882353
v -0.12652829 0.20115405 -14.44322777 0.25098039 0.27450980 0.65882353
v -0.11812877 0.20724443 -14.43618774 0.25098039 0.27450980 0.65882353
v -0.11848468 0.20167863 -14.43613815 0.25098039 0.27450980 0.65882353
v -0.13693374 0.18102217 -14.43594360 0.25098039 0.27450980 0.65882353
v -0.13382590 0.17922758 -14.42965508 0.25098039 0.27450980 0.65882353
v -0.13625941 0.19634867 -14.42774296 0.25098039 0.27450980 0.65882353
v -0.13804385 0.19472066 -14.43475914 0.25098039 0.27450980 0.65882353
v -0.16578206 0.26577538 -14.45717716 0.25098039 0.27450980 0.65882353
v -0.17346701 0.26576844 -14.46455002 0.25098039 0.27450980 0.65882353
v -0.17568290 0.25170919 -14.46028709 0.25098039 0.27450980 0.65882353
v -0.17917496 0.23828660 -14.45525169 0.25098039 0.27450980 0.65882353
v -0.18108580 0.22530343 -14.45088959 0.25098039 0.27450980 0.65882353
v -0.17429158 0.22566184 -14.44129562 0.25098039 0.27450980 0.65882353
v -0.18058869 0.25289547 -14.46611977 0.25098039 0.27450980 0.65882353
v -0.14170001 0.20537549 -14.43455601 0.25098039 0.27450980 0.65882353
v -0.13870601 0.20809585 -14.42725945 0.25098039 0.27450980 0.65882353
v -0.14386097 0.20934467 -14.43004417 0.25098039 0.27450980 0.65882353
v -0.15533474 0.24242063 -14.47893143 0.25098039 0.27450980 0.65882353
v -0.11743758 0.18339360 -14.43681526 0.25098039 0.27450980 0.65882353
v -0.13386062 0.29406977 -14.45883179 0.25098039 0.27450980 0.65882353
v -0.14672256 0.29450953 -14.45932674 0.25098039 0.27450980 0.65882353
v -0.14483389 0.28665346 -14.45588207 0.25098039 0.27450980 0.65882353
v -0.13014783 0.28556323 -14.45600414 0.25098039 0.27450980 0.65882353
v -0.12481514 0.18436924 -14.44547844 0.25098039 0.27450980 0.65882353
v -0.11951184 0.18456407 -14.44252014 0.25098039 0.27450980 0.65882353
v -0.16979292 0.21068205 -14.46365929 0.25098039 0.27450980 0.65882353
v -0.16900837 0.20571962 -14.45967007 0.25098039 0.27450980 0.65882353
v -0.17204259 0.20494577 -14.45934772 0.25098039 0.27450980 0.65882353
v -0.17385718 0.20798223 -14.46507168 0.25098039 0.27450980 0.65882353
v -0.17662463 0.26673770 -14.46901321 0.25098039 0.27450980 0.65882353
v -0.19008830 0.22008306 -14.46932983 0.25098039 0.27450980 0.65882353
v -0.18888840 0.22246693 -14.45881748 0.25098039 0.27450980 0.65882353
v -0.17130369 0.27798510 -14.46798611 0.25098039 0.27450980 0.65882353
v -0.16493326 0.27840814 -14.46115303 0.25098039 0.27450980 0.65882353
v -0.16466604 0.28742623 -14.46460533 0.25098039 0.27450980 0.65882353
v -0.16377206 0.21790835 -14.43483448 0.25098039 0.27450980 0.65882353
v -0.15990278 0.26358521 -14.45172024 0.25098039 0.27450980 0.65882353
v -0.15923789 0.27690306 -14.45684910 0.25098039 0.27450980 0.65882353
v -0.15873060 0.28757051 -14.46078110 0.25098039 0.27450980 0.65882353
v -0.15913484 0.29543579 -14.46346855 0.25098039 0.27450980 0.65882353
v -0.16562551 0.29446810 -14.46746922 0.25098039 0.27450980 0.65882353
v -0.12828618 0.17904794 -14.42778111 0.25098039 0.27450980 0.65882353
v -0.13311759 0.17280367 -14.43151665 0.25098039 0.27450980 0.65882353
v -0.16778244 0.30321407 -14.46942616 0.25098039 0.27450980 0.65882353
v -0.15990357 0.30380461 -14.46544647 0.25098039 0.27450980 0.65882353
v -0.15142027 0.27549568 -14.45296192 0.25098039 0.27450980 0.65882353
v -0.14118987 0.27340108 -14.44913864 0.25098039 0.27450980 0.65882353
v -0.15253386 0.26265597 -14.44827557 0.25098039 0.27450980 0.65882353
v -0.14264700 0.25957927 -14.44406509 0.25098039 0.27450980 0.65882353
v -0.15737623 0.22126207 -14.42687511 0.25098039 0.27450980 0.65882353
v -0.13056827 0.16107813 -14.44455910 0.25098039 0.27450980 0.65882353
v -0.13412234 0.16980350 -14.43928432 0.25098039 0.27450980 0.65882353
v -0.13328710 0.17316429 -14.44377422 0.25098039 0.27450980 0.65882353
v -0.13129617 0.16327879 -14.44794655 0.25098039 0.27450980 0.65882353
v -0.13587654 0.17526361 -14.43735027 0.25098039 0.27450980 0.65882353
v -0.13136649 0.16866195 -14.43450737 0.25098039 0.27450980 0.65882353
v -0.12873355 0.25591081 -14.44325829 0.25098039 0.27450980 0.65882353
v -0.13987844 0.20294887 -14.44202709 0.25098039 0.27450980 0.65882353
v -0.12412730 0.26993978 -14.45105267 0.25098039 0.27450980 0.65882353
v -0.11429928 0.24639916 -14.44382286 0.25098039 0.27450980 0.65882353
v -0.11046314 0.25587535 -14.45188046 0.25098039 0.27450980 0.65882353
v -0.11790740 0.28355831 -14.46041584 0.25098039 0.27450980 0.65882353
v -0.10785644 0.26950210 -14.45987606 0.25098039 0.27450980 0.65882353
v -0.12559605 0.29985616 -14.46538544 0.25098039 0.27450980 0.65882353
v -0.12331554 0.29170674 -14.46234322 0.25098039 0.27450980 0.65882353
v -0.10066241 0.25443554 -14.46220207 0.25098039 0.27450980 0.65882353
v -0.11937568 0.16989970 -14.44994164 0.25098039 0.27450980 0.65882353
v -0.12455215 0.16976860 -14.45166111 0.25098039 0.27450980 0.65882353
v -0.13541748 0.30195159 -14.46136284 0.25098039 0.27450980 0.65882353
v -0.11815719 0.23072638 -14.47944927 0.25098039 0.27450980 0.65882353
v -0.15141912 0.25039357 -14.48474789 0.25098039 0.27450980 0.65882353
v -0.14769061 0.25081542 -14.48071384 0.25098039 0.27450980 0.65882353
v -0.16602522 0.25306740 -14.49514008 0.25098039 0.27450980 0.65882353
v -0.15633175 0.25032127 -14.49075031 0.25098039 0.27450980 0.65882353
v -0.11600555 0.16832842 -14.44634438 0.25098039 0.27450980 0.65882353
v -0.15808691 0.20049390 -14.44633675 0.25098039 0.27450980 0.65882353
v -0.15866058 0.20236874 -14.44639397 0.25098039 0.27450980 0.65882353
v -0.10079966 0.23123281 -14.48412704 0.25098039 0.27450980 0.65882353
v -0.09721898 0.22544277 -14.48205090 0.25098039 0.27450980 0.65882353
v -0.09061536 0.22883467 -14.47167206 0.25098039 0.27450980 0.65882353
v -0.09223619 0.22747478 -14.47832394 0.25098039 0.27450980 0.65882353
v -0.09512916 0.23537904 -14.47931480 0.25098039 0.27450980 0.65882353
v -0.09324111 0.23743224 -14.47246552 0.25098039 0.27450980 0.65882353
v -0.14458597 0.25844464 -14.48812294 0.25098039 0.27450980 0.65882353
v -0.14766040 0.25776386 -14.49033165 0.25098039 0.27450980 0.65882353
v -0.17934911 0.26328045 -14.48113918 0.25098039 0.27450980 0.65882353
v -0.17713171 0.25769591 -14.49044514 0.25098039 0.27450980 0.65882353
v -0.11984884 0.20761797 -14.43010139 0.25098039 0.27450980 0.65882353
v -0.12446143 0.21545348 -14.42496109 0.25098039 0.27450980 0.65882353
v -0.12472986 0.20755269 -14.42539024 0.25098039 0.27450980 0.65882353
v -0.13019177 0.19912517 -14.42440319 0.25098039 0.27450980 0.65882353
v -0.14048359 0.20164223 -14.43828773 0.25098039 0.27450980 0.65882353
v -0.13842249 0.20173688 -14.43495941 0.25098039 0.27450980 0.65882353
v -0.13119248 0.26425475 -14.49041271 0.25098039 0.27450980 0.65882353
v -0.13541952 0.25618383 -14.48116302 0.25098039 0.27450980 0.65882353
v -0.11430445 0.22351861 -14.47013950 0.25098039 0.27450980 0.65882353
v -0.11027713 0.21924520 -14.46922302 0.25098039 0.27450980 0.65882353
v -0.14679079 0.21505532 -14.45454502 0.25098039 0.27450980 0.65882353
v -0.16063429 0.20651206 -14.43475437 0.25098039 0.27450980 0.65882353
v -0.15522972 0.20967722 -14.42849636 0.25098039 0.27450980 0.65882353
v -0.14738113 0.20814443 -14.44927597 0.25098039 0.27450980 0.65882353
v -0.11744989 0.16266578 -14.44067478 0.25098039 0.27450980 0.65882353
v -0.11545791 0.16583762 -14.44364929 0.25098039 0.27450980 0.65882353
v -0.13141298 0.20836759 -14.42351437 0.25098039 0.27450980 0.65882353
v -0.16423625 0.21690901 -14.46542835 0.25098039 0.27450980 0.65882353
v -0.16478512 0.21057776 -14.43852329 0.25098039 0.27450980 0.65882353
v -0.16117501 0.20213306 -14.44064236 0.25098039 0.27450980 0.65882353
v -0.18640080 0.22206788 -14.47561073 0.25098039 0.27450980 0.65882353
v -0.14738478 0.30289203 -14.46234417 0.25098039 0.27450980 0.65882353
v -0.12976873 0.17570202 -14.44714165 0.25098039 0.27450980 0.65882353
v -0.12904705 0.16818838 -14.45128918 0.25098039 0.27450980 0.65882353
v -0.12821984 0.16038628 -14.44117928 0.25098039 0.27450980 0.65882353
v -0.12290859 0.16114321 -14.43874073 0.25098039 0.27450980 0.65882353
v -0.17182659 0.26627091 -14.49385071 0.25098039 0.27450980 0.65882353
v -0.14510244 0.25056824 -14.47795773 0.25098039 0.27450980 0.65882353
v -0.09657848 0.24172050 -14.46410275 0.25098039 0.27450980 0.65882353
v -0.09307739 0.23009726 -14.46496677 0.25098039 0.27450980 0.65882353
v -0.14780143 0.20444030 -14.44629192 0.25098039 0.27450980 0.65882353
v -0.18263192 0.21835415 -14.45530510 0.25098039 0.27450980 0.65882353
v -0.17465055 0.21578825 -14.44150162 0.25098039 0.27450980 0.65882353
v -0.17432068 0.20618761 -14.44197655 0.25098039 0.27450980 0.65882353
v -0.16818292 0.20330590 -14.43969727 0.25098039 0.27450980 0.65882353
v -0.16212812 0.20055532 -14.44210720 0.25098039 0.27450980 0.65882353
v -0.12714747 0.15647382 -14.44524002 0.25098039 0.27450980 0.65882353
v -0.12190562 0.15712221 -14.44273376 0.25098039 0.27450980 0.65882353
v -0.11635280 0.15883495 -14.44439507 0.25098039 0.27450980 0.65882353
v -0.11447939 0.16214491 -14.44677830 0.25098039 0.27450980 0.65882353
v -0.11561392 0.16567041 -14.44906235 0.25098039 0.27450980 0.65882353
v -0.12956730 0.15726469 -14.44880295 0.25098039 0.27450980 0.65882353
v -0.12996581 0.15959653 -14.45183563 0.25098039 0.27450980 0.65882353
v -0.12844038 0.16534948 -14.45347023 0.25098039 0.27450980 0.65882353
v -0.12843832 0.15505096 -14.45323753 0.25098039 0.27450980 0.65882353
v -0.12481841 0.15137972 -14.45203400 0.25098039 0.27450980 0.65882353
v -0.11208194 0.15318072 -14.45675659 0.25098039 0.27450980 0.65882353
v -0.11426224 0.15386042 -14.45130348 0.25098039 0.27450980 0.65882353
v -0.11506739 0.15181015 -14.45314026 0.25098039 0.27450980 0.65882353
v -0.11371294 0.15052955 -14.45776081 0.25098039 0.27450980 0.65882353
v -0.11338080 0.14812766 -14.46235847 0.25098039 0.27450980 0.65882353
v -0.11116245 0.15087271 -14.46191216 0.25098039 0.27450980 0.65882353
v -0.11925394 0.15140527 -14.45122719 0.25098039 0.27450980 0.65882353
v -0.11804800 0.14914733 -14.45754051 0.25098039 0.27450980 0.65882353
v -0.12207215 0.14915338 -14.45850849 0.25098039 0.27450980 0.65882353
v -0.12064242 0.14673720 -14.46334457 0.25098039 0.27450980 0.65882353
v -0.11706752 0.14642641 -14.46252441 0.25098039 0.27450980 0.65882353
v -0.12262042 0.15032472 -14.45402050 0.25098039 0.27450980 0.65882353
v -0.11983798 0.15222733 -14.44880676 0.25098039 0.27450980 0.65882353
v -0.11234599 0.14856979 -14.46583080 0.25098039 0.27450980 0.65882353
v -0.11361307 0.14656761 -14.46489334 0.25098039 0.27450980 0.65882353
v -0.11667345 0.14550829 -14.46552277 0.25098039 0.27450980 0.65882353
v -0.11607693 0.14635231 -14.46842670 0.25098039 0.27450980 0.65882353
v -0.11315371 0.15959533 -14.45065880 0.25098039 0.27450980 0.65882353
v -0.11142240 0.15556012 -14.45763397 0.25098039 0.27450980 0.65882353
v -0.11187452 0.15356766 -14.46337414 0.25098039 0.27450980 0.65882353
v -0.11303249 0.15101355 -14.46709633 0.25098039 0.27450980 0.65882353
v -0.11313866 0.15792827 -14.46046448 0.25098039 0.27450980 0.65882353
v -0.11367236 0.15548867 -14.46461391 0.25098039 0.27450980 0.65882353
v -0.11514156 0.15346074 -14.46782494 0.25098039 0.27450980 0.65882353
v -0.11629229 0.15938428 -14.46285534 0.25098039 0.27450980 0.65882353
v -0.11632613 0.15656236 -14.46592522 0.25098039 0.27450980 0.65882353
v -0.11800023 0.16559958 -14.45362091 0.25098039 0.27450980 0.65882353
v -0.11488509 0.16408552 -14.45129299 0.25098039 0.27450980 0.65882353
v -0.11646992 0.15508610 -14.46813107 0.25098039 0.27450980 0.65882353
v -0.11682587 0.14813897 -14.46962357 0.25098039 0.27450980 0.65882353
v -0.12531161 0.15085454 -14.45831013 0.25098039 0.27450980 0.65882353
v -0.12283261 0.14864610 -14.46456718 0.25098039 0.27450980 0.65882353
v -0.12651175 0.15265433 -14.45941925 0.25098039 0.27450980 0.65882353
v -0.12438602 0.15012585 -14.46555328 0.25098039 0.27450980 0.65882353
v -0.12087972 0.14637610 -14.46801376 0.25098039 0.27450980 0.65882353
v -0.11950453 0.14582063 -14.46595192 0.25098039 0.27450980 0.65882353
v -0.11940755 0.16799977 -14.45136642 0.25098039 0.27450980 0.65882353
v -0.12484271 0.16769479 -14.45318794 0.25098039 0.27450980 0.65882353
v -0.12382175 0.16573717 -14.45530605 0.25098039 0.27450980 0.65882353
v -0.12083417 0.15961081 -14.46410656 0.25098039 0.27450980 0.65882353
v -0.12737128 0.16341454 -14.45604324 0.25098039 0.27450980 0.65882353
v -0.12870574 0.15774627 -14.45599937 0.25098039 0.27450980 0.65882353
v -0.12653023 0.15458986 -14.46174049 0.25098039 0.27450980 0.65882353
v -0.12522119 0.15724115 -14.46341515 0.25098039 0.27450980 0.65882353
v -0.12436552 0.15259816 -14.46628284 0.25098039 0.27450980 0.65882353
v -0.12305263 0.15470736 -14.46667671 0.25098039 0.27450980 0.65882353
v -0.11972260 0.15652701 -14.46712208 0.25098039 0.27450980 0.65882353
v -0.12165357 0.15131240 -14.46910858 0.25098039 0.27450980 0.65882353
v -0.12160034 0.14838019 -14.46880817 0.25098039 0.27450980 0.65882353
v -0.11792193 0.15136564 -14.46963692 0.25098039 0.27450980 0.65882353
v -0.12156219 0.15323098 -14.46870041 0.25098039 0.27450980 0.65882353
v -0.11862491 0.15373734 -14.46864033 0.25098039 0.27450980 0.65882353
v -0.14194451 0.17500234 -14.44793987 0.25098039 0.27450980 0.65882353
v -0.14682491 0.17569274 -14.45163822 0.25098039 0.27450980 0.65882353
v -0.14777103 0.17769691 -14.44854450 0.25098039 0.27450980 0.65882353
v -0.14356914 0.17729916 -14.44559479 0.25098039 0.27450980 0.65882353
v -0.14486960 0.16556820 -14.43822479 0.25098039 0.27450980 0.65882353
v -0.14105843 0.16930424 -14.44152260 0.25098039 0.27450980 0.65882353
v -0.14271566 0.17203318 -14.43708992 0.25098039 0.27450980 0.65882353
v -0.14774421 0.16873866 -14.43352795 0.25098039 0.27450980 0.65882353
v -0.15213400 0.16419204 -14.43836784 0.25098039 0.27450980 0.65882353
v -0.15484627 0.16797054 -14.43401146 0.25098039 0.27450980 0.65882353
v -0.14845775 0.17469808 -14.43107986 0.25098039 0.27450980 0.65882353
v -0.14350286 0.17730117 -14.43526554 0.25098039 0.27450980 0.65882353
v -0.14365301 0.19810696 -14.43399143 0.25098039 0.27450980 0.65882353
v -0.14828774 0.19748506 -14.42943668 0.25098039 0.27450980 0.65882353
v -0.15330386 0.19821657 -14.44786358 0.25098039 0.27450980 0.65882353
v -0.15630090 0.19701174 -14.44630241 0.25098039 0.27450980 0.65882353
v -0.14064041 0.17282416 -14.44504547 0.25098039 0.27450980 0.65882353
v -0.14208350 0.17525144 -14.44161987 0.25098039 0.27450980 0.65882353
v -0.15672787 0.17930496 -14.44865036 0.25098039 0.27450980 0.65882353
v -0.15177652 0.18038200 -14.45003319 0.25098039 0.27450980 0.65882353
v -0.15195356 0.17757043 -14.45056438 0.25098039 0.27450980 0.65882353
v -0.15669930 0.17529118 -14.44940281 0.25098039 0.27450980 0.65882353
v -0.14318964 0.19921200 -14.44176292 0.25098039 0.27450980 0.65882353
v -0.14823979 0.19923249 -14.44503021 0.25098039 0.27450980 0.65882353
v -0.14249375 0.19861168 -14.43827248 0.25098039 0.27450980 0.65882353
v -0.16072360 0.17692658 -14.44401646 0.25098039 0.27450980 0.65882353
v -0.16127473 0.17486627 -14.43767738 0.25098039 0.27450980 0.65882353
v -0.16111603 0.19553927 -14.43420315 0.25098039 0.27450980 0.65882353
v -0.16138859 0.19491056 -14.44021893 0.25098039 0.27450980 0.65882353
v -0.14205386 0.17906792 -14.43998146 0.25098039 0.27450980 0.65882353
v -0.14655486 0.18015835 -14.44839668 0.25098039 0.27450980 0.65882353
v -0.14290810 0.18031353 -14.44512177 0.25098039 0.27450980 0.65882353
v -0.15564603 0.17506610 -14.43217373 0.25098039 0.27450980 0.65882353
v -0.16007498 0.16854240 -14.44052982 0.25098039 0.27450980 0.65882353
v -0.15233953 0.16136694 -14.45834255 0.25098039 0.27450980 0.65882353
v -0.15734351 0.16812024 -14.45030880 0.25098039 0.27450980 0.65882353
v -0.15514275 0.17182548 -14.45292568 0.25098039 0.27450980 0.65882353
v -0.15123907 0.16497889 -14.46147156 0.25098039 0.27450980 0.65882353
v -0.15972316 0.17182779 -14.44623661 0.25098039 0.27450980 0.65882353
v -0.15686354 0.16523284 -14.44516373 0.25098039 0.27450980 0.65882353
v -0.13842894 0.16870418 -14.45931244 0.25098039 0.27450980 0.65882353
v -0.14359373 0.16952346 -14.46253681 0.25098039 0.27450980 0.65882353
v -0.13633543 0.16613823 -14.45645237 0.25098039 0.27450980 0.65882353
v -0.15537533 0.19709742 -14.42939186 0.25098039 0.27450980 0.65882353
v -0.14027254 0.15959896 -14.44983673 0.25098039 0.27450980 0.65882353
v -0.13665426 0.16351397 -14.45332241 0.25098039 0.27450980 0.65882353
v -0.15146989 0.17515421 -14.45350075 0.25098039 0.27450980 0.65882353
v -0.14812049 0.16808820 -14.46342278 0.25098039 0.27450980 0.65882353
v -0.15130247 0.15891998 -14.45485020 0.25098039 0.27450980 0.65882353
v -0.14673364 0.15835179 -14.44942856 0.25098039 0.27450980 0.65882353
v -0.14842705 0.15601888 -14.45941162 0.25098039 0.27450980 0.65882353
v -0.14372207 0.15520455 -14.45555305 0.25098039 0.27450980 0.65882353
v -0.13747963 0.15709832 -14.45539856 0.25098039 0.27450980 0.65882353
v -0.13497546 0.16179782 -14.45740891 0.25098039 0.27450980 0.65882353
v -0.13549349 0.16503590 -14.45930576 0.25098039 0.27450980 0.65882353
v -0.14987829 0.15856719 -14.46263695 0.25098039 0.27450980 0.65882353
v -0.14938679 0.16253594 -14.46512413 0.25098039 0.27450980 0.65882353
v -0.14674385 0.16681215 -14.46509361 0.25098039 0.27450980 0.65882353
v -0.14692861 0.15856260 -14.46904469 0.25098039 0.27450980 0.65882353
v -0.14480229 0.15484279 -14.46754169 0.25098039 0.27450980 0.65882353
v -0.12809902 0.15899247 -14.47433758 0.25098039 0.27450980 0.65882353
v -0.13054816 0.15810467 -14.46890640 0.25098039 0.27450980 0.65882353
v -0.13200223 0.15631291 -14.47008419 0.25098039 0.27450980 0.65882353
v -0.12990510 0.15705620 -14.47509766 0.25098039 0.27450980 0.65882353
v -0.13362516 0.15566754 -14.46398258 0.25098039 0.27450980 0.65882353
v -0.13444887 0.15493158 -14.46629429 0.25098039 0.27450980 0.65882353
v -0.13889201 0.15383594 -14.46661282 0.25098039 0.27450980 0.65882353
v -0.13609585 0.15530246 -14.47206306 0.25098039 0.27450980 0.65882353
v -0.14058039 0.15597750 -14.47338772 0.25098039 0.27450980 0.65882353
v -0.13809496 0.15618342 -14.47857571 0.25098039 0.27450980 0.65882353
v -0.13369155 0.15522994 -14.47751808 0.25098039 0.27450980 0.65882353
v -0.14155757 0.15446535 -14.46926308 0.25098039 0.27450980 0.65882353
v -0.12933673 0.15719894 -14.47867870 0.25098039 0.27450980 0.65882353
v -0.12819755 0.15908393 -14.47996521 0.25098039 0.27450980 0.65882353
v -0.14001715 0.15291958 -14.46349716 0.25098039 0.27450980 0.65882353
v -0.13315432 0.16056779 -14.46085262 0.25098039 0.27450980 0.65882353
v -0.12972653 0.16100582 -14.46893215 0.25098039 0.27450980 0.65882353
v -0.12787741 0.16203980 -14.47515678 0.25098039 0.27450980 0.65882353
v -0.12918667 0.16164784 -14.48113728 0.25098039 0.27450980 0.65882353
v -0.13079450 0.16461313 -14.47055340 0.25098039 0.27450980 0.65882353
v -0.12942605 0.16454156 -14.47632504 0.25098039 0.27450980 0.65882353
v -0.13090077 0.16370076 -14.48099804 0.25098039 0.27450980 0.65882353
v -0.13368483 0.16761619 -14.47252655 0.25098039 0.27450980 0.65882353
v -0.13255006 0.16667137 -14.47799110 0.25098039 0.27450980 0.65882353
v -0.13745956 0.16776647 -14.46306515 0.25098039 0.27450980 0.65882353
v -0.13422424 0.16501339 -14.46142483 0.25098039 0.27450980 0.65882353
v -0.13237867 0.16537586 -14.48021317 0.25098039 0.27450980 0.65882353
v -0.13150764 0.15738405 -14.48289394 0.25098039 0.27450980 0.65882353
v -0.13205092 0.16049784 -14.48384666 0.25098039 0.27450980 0.65882353
v -0.13193767 0.15638718 -14.48139858 0.25098039 0.27450980 0.65882353
v -0.14236946 0.15689833 -14.47391891 0.25098039 0.27450980 0.65882353
v -0.13915294 0.15777570 -14.47956371 0.25098039 0.27450980 0.65882353
v -0.14357725 0.15920639 -14.47508240 0.25098039 0.27450980 0.65882353
v -0.13978517 0.15968239 -14.48088741 0.25098039 0.27450980 0.65882353
v -0.13609597 0.15773232 -14.48322105 0.25098039 0.27450980 0.65882353
v -0.13530396 0.15664268 -14.48223209 0.25098039 0.27450980 0.65882353
v -0.13828295 0.16740532 -14.46126556 0.25098039 0.27450980 0.65882353
v -0.14310955 0.16822597 -14.46372414 0.25098039 0.27450980 0.65882353
v -0.14245255 0.16863392 -14.46515846 0.25098039 0.27450980 0.65882353
v -0.13847762 0.16781956 -14.47448349 0.25098039 0.27450980 0.65882353
v -0.14631459 0.16669346 -14.46686268 0.25098039 0.27450980 0.65882353
v -0.14737286 0.16219705 -14.46917057 0.25098039 0.27450980 0.65882353
v -0.14403357 0.16193387 -14.47528362 0.25098039 0.27450980 0.65882353
v -0.14226827 0.16538593 -14.47559452 0.25098039 0.27450980 0.65882353
v -0.14067613 0.16155872 -14.48129463 0.25098039 0.27450980 0.65882353
v -0.14024667 0.16431822 -14.47979259 0.25098039 0.27450980 0.65882353
v -0.13641146 0.16689989 -14.47905254 0.25098039 0.27450980 0.65882353
v -0.13712564 0.16144490 -14.48426247 0.25098039 0.27450980 0.65882353
v -0.13647594 0.15923616 -14.48403931 0.25098039 0.27450980 0.65882353
v -0.13295928 0.16244295 -14.48338699 0.25098039 0.27450980 0.65882353
v -0.13773695 0.16378063 -14.48263168 0.25098039 0.27450980 0.65882353
v -0.13436411 0.16483815 -14.48192024 0.25098039 0.27450980 0.65882353
v -0.15728903 0.18184979 -14.45621586 0.25098039 0.27450980 0.65882353
v -0.16075477 0.18409455 -14.46035194 0.25098039 0.27450980 0.65882353
v -0.16171518 0.18477426 -14.45899487 0.25098039 0.27450980 0.65882353
v -0.15849787 0.18294984 -14.45483780 0.25098039 0.27450980 0.65882353
v -0.16313078 0.17278227 -14.45064163 0.25098039 0.27450980 0.65882353
v -0.15882719 0.17481102 -14.45168495 0.25098039 0.27450980 0.65882353
v -0.16051741 0.17694741 -14.44797707 0.25098039 0.27450980 0.65882353
v -0.16525111 0.17568706 -14.44561577 0.25098039 0.27450980 0.65882353
v -0.16773498 0.17192560 -14.45388603 0.25098039 0.27450980 0.65882353
v -0.17169450 0.17526472 -14.44731045 0.25098039 0.27450980 0.65882353
v -0.16653687 0.18076861 -14.44262600 0.25098039 0.27450980 0.65882353
v -0.16146737 0.18075153 -14.44567871 0.25098039 0.27450980 0.65882353
v -0.16247958 0.19611007 -14.44286537 0.25098039 0.27450980 0.65882353
v -0.16790007 0.19593528 -14.43998909 0.25098039 0.27450980 0.65882353
v -0.15716031 0.17836311 -14.45360565 0.25098039 0.27450980 0.65882353
v -0.15839075 0.18008719 -14.45143509 0.25098039 0.27450980 0.65882353
v -0.17026129 0.18612489 -14.46103764 0.25098039 0.27450980 0.65882353
v -0.16613847 0.18646502 -14.46097279 0.25098039 0.27450980 0.65882353
v -0.16604736 0.18468338 -14.46175098 0.25098039 0.27450980 0.65882353
v -0.16982159 0.18347293 -14.46178055 0.25098039 0.27450980 0.65882353
v -0.15966567 0.20044489 -14.45175552 0.25098039 0.27450980 0.65882353
v -0.16397019 0.20217782 -14.45511532 0.25098039 0.27450980 0.65882353
v -0.15973672 0.19764093 -14.44763374 0.25098039 0.27450980 0.65882353
v -0.17478028 0.18399018 -14.45742226 0.25098039 0.27450980 0.65882353
v -0.17680384 0.18188754 -14.45064163 0.25098039 0.27450980 0.65882353
v -0.17749827 0.19779205 -14.44906425 0.25098039 0.27450980 0.65882353
v -0.17577332 0.19931242 -14.45427608 0.25098039 0.27450980 0.65882353
v -0.15914142 0.18259971 -14.44976807 0.25098039 0.27450980 0.65882353
v -0.16128033 0.18671340 -14.45869541 0.25098039 0.27450980 0.65882353
v -0.15848932 0.18506584 -14.45439816 0.25098039 0.27450980 0.65882353
v -0.17239299 0.18170696 -14.44473362 0.25098039 0.27450980 0.65882353
v -0.17498244 0.17672990 -14.45401955 0.25098039 0.27450980 0.65882353
v -0.16474363 0.17111868 -14.47277069 0.25098039 0.27450980 0.65882353
v -0.17237866 0.17823248 -14.46176720 0.25098039 0.27450980 0.65882353
v -0.16909042 0.18262345 -14.46338463 0.25098039 0.27450980 0.65882353
v -0.16347408 0.17498197 -14.47418785 0.25098039 0.27450980 0.65882353
v -0.17381963 0.18020895 -14.45951939 0.25098039 0.27450980 0.65882353
v -0.17226055 0.17441547 -14.45781326 0.25098039 0.27450980 0.65882353
v -0.15160502 0.17701757 -14.46796608 0.25098039 0.27450980 0.65882353
v -0.15570758 0.17891654 -14.47098541 0.25098039 0.27450980 0.65882353
v -0.15146025 0.17389385 -14.46497059 0.25098039 0.27450980 0.65882353
v -0.17421812 0.19679916 -14.44188499 0.25098039 0.27450980 0.65882353
v -0.17092809 0.20139857 -14.45755482 0.25098039 0.27450980 0.65882353
v -0.15483341 0.16756220 -14.46377468 0.25098039 0.27450980 0.65882353
v -0.15217547 0.17084774 -14.46385860 0.25098039 0.27450980 0.65882353
v -0.16532040 0.18423198 -14.46276093 0.25098039 0.27450980 0.65882353
v -0.16043010 0.17812276 -14.47372341 0.25098039 0.27450980 0.65882353
v -0.16415754 0.16799505 -14.46930695 0.25098039 0.27450980 0.65882353
v -0.16041516 0.16647625 -14.46486092 0.25098039 0.27450980 0.65882353
v -0.16119954 0.16657880 -14.47454453 0.25098039 0.27450980 0.65882353
v -0.15711614 0.16477452 -14.47046852 0.25098039 0.27450980 0.65882353
v -0.15181774 0.16566837 -14.46879196 0.25098039 0.27450980 0.65882353
v -0.14963087 0.16946995 -14.46813965 0.25098039 0.27450980 0.65882353
v -0.14922306 0.17283043 -14.46864700 0.25098039 0.27450980 0.65882353
v -0.16180640 0.17060995 -14.47720337 0.25098039 0.27450980 0.65882353
v -0.16067624 0.17434373 -14.47749043 0.25098039 0.27450980 0.65882353
v -0.15893142 0.17736325 -14.47444344 0.25098039 0.27450980 0.65882353
v -0.15942635 0.17176381 -14.48075104 0.25098039 0.27450980 0.65882353
v -0.15707017 0.16685045 -14.48049927 0.25098039 0.27450980 0.65882353
v -0.14125495 0.16943522 -14.48482132 0.25098039 0.27450980 0.65882353
v -0.14425594 0.16834453 -14.48005390 0.25098039 0.27450980 0.65882353
v -0.14506637 0.16783884 -14.48081112 0.25098039 0.27450980 0.65882353
v -0.14221439 0.16842864 -14.48573017 0.25098039 0.27450980 0.65882353
v -0.14844546 0.16565940 -14.47556877 0.25098039 0.27450980 0.65882353
v -0.14835249 0.16574739 -14.47763443 0.25098039 0.27450980 0.65882353
v -0.15198383 0.16519192 -14.47880554 0.25098039 0.27450980 0.65882353
v -0.14873219 0.16679543 -14.48416996 0.25098039 0.27450980 0.65882353
v -0.15339464 0.16982454 -14.48582363 0.25098039 0.27450980 0.65882353
v -0.14994064 0.17058320 -14.48952866 0.25098039 0.27450980 0.65882353
v -0.14569901 0.16751593 -14.48857403 0.25098039 0.27450980 0.65882353
v -0.15511577 0.16702031 -14.48142624 0.25098039 0.27450980 0.65882353
v -0.14141333 0.16894099 -14.48879337 0.25098039 0.27450980 0.65882353
v -0.13941911 0.16918798 -14.48864174 0.25098039 0.27450980 0.65882353
v -0.15336311 0.16435835 -14.47671032 0.25098039 0.27450980 0.65882353
v -0.14640449 0.16876972 -14.47248459 0.25098039 0.27450980 0.65882353
v -0.14268087 0.17041747 -14.47873306 0.25098039 0.27450980 0.65882353
v -0.13934264 0.17167291 -14.48341751 0.25098039 0.27450980 0.65882353
v -0.13892314 0.17267162 -14.48771000 0.25098039 0.27450980 0.65882353
v -0.14298968 0.17405920 -14.47845078 0.25098039 0.27450980 0.65882353
v -0.14032337 0.17457774 -14.48301125 0.25098039 0.27450980 0.65882353
v -0.13989824 0.17538048 -14.48688507 0.25098039 0.27450980 0.65882353
v -0.14448188 0.17680907 -14.47909260 0.25098039 0.27450980 0.65882353
v -0.14238694 0.17692697 -14.48330593 0.25098039 0.27450980 0.65882353
v -0.14944415 0.17586242 -14.47140789 0.25098039 0.27450980 0.65882353
v -0.14716959 0.17251453 -14.47130013 0.25098039 0.27450980 0.65882353
v -0.14155439 0.17679855 -14.48627090 0.25098039 0.27450980 0.65882353
v -0.14253677 0.16980007 -14.49209213 0.25098039 0.27450980 0.65882353
v -0.14231224 0.17393629 -14.49190426 0.25098039 0.27450980 0.65882353
v -0.14361970 0.16919336 -14.49084854 0.25098039 0.27450980 0.65882353
v -0.15483874 0.17093131 -14.48577213 0.25098039 0.27450980 0.65882353
v -0.15085432 0.17220357 -14.49082756 0.25098039 0.27450980 0.65882353
v -0.15548438 0.17366526 -14.48561382 0.25098039 0.27450980 0.65882353
v -0.15155509 0.17478111 -14.49062252 0.25098039 0.27450980 0.65882353
v -0.14723873 0.17157006 -14.49295235 0.25098039 0.27450980 0.65882353
v -0.14707381 0.17076698 -14.49211311 0.25098039 0.27450980 0.65882353
v -0.15122256 0.17604619 -14.46978188 0.25098039 0.27450980 0.65882353
v -0.15503050 0.17807212 -14.47208500 0.25098039 0.27450980 0.65882353
v -0.15319619 0.17810713 -14.47316933 0.25098039 0.27450980 0.65882353
v -0.14775579 0.17924601 -14.48120499 0.25098039 0.27450980 0.65882353
v -0.15711623 0.17792051 -14.47564602 0.25098039 0.27450980 0.65882353
v -0.15812285 0.17530096 -14.48048973 0.25098039 0.27450980 0.65882353
v -0.15425050 0.17655373 -14.48478222 0.25098039 0.27450980 0.65882353
v -0.15152824 0.17878595 -14.48362541 0.25098039 0.27450980 0.65882353
v -0.15084985 0.17718071 -14.48937225 0.25098039 0.27450980 0.65882353
v -0.14950734 0.17829987 -14.48715496 0.25098039 0.27450980 0.65882353
v -0.14529425 0.17917162 -14.48502159 0.25098039 0.27450980 0.65882353
v -0.14712045 0.17646906 -14.49098682 0.25098039 0.27450980 0.65882353
v -0.14745368 0.17423859 -14.49277306 0.25098039 0.27450980 0.65882353
v -0.14268523 0.17645362 -14.49015427 0.25098039 0.27450980 0.65882353
v -0.14679410 0.17798321 -14.48912144 0.25098039 0.27450980 0.65882353
v -0.14346661 0.17792286 -14.48836040 0.25098039 0.27450980 0.65882353
v -0.16763750 0.20233265 -14.45736790 0.25098039 0.27450980 0.65882353
v -0.17134073 0.19233209 -14.47140217 0.25098039 0.27450980 0.65882353
v -0.17322001 0.19404256 -14.47462654 0.25098039 0.27450980 0.65882353
v -0.17464685 0.19439769 -14.47420502 0.25098039 0.27450980 0.65882353
v -0.17276621 0.19394526 -14.47045040 0.25098039 0.27450980 0.65882353
v -0.17814769 0.18553388 -14.46598053 0.25098039 0.27450980 0.65882353
v -0.17388359 0.18719956 -14.46668911 0.25098039 0.27450980 0.65882353
v -0.17623974 0.18975115 -14.46327591 0.25098039 0.27450980 0.65882353
v -0.18052636 0.18842208 -14.46221447 0.25098039 0.27450980 0.65882353
v -0.18274330 0.18553138 -14.46835327 0.25098039 0.27450980 0.65882353
v -0.18515521 0.18833077 -14.46531582 0.25098039 0.27450980 0.65882353
v -0.18157127 0.19211406 -14.46087456 0.25098039 0.27450980 0.65882353
v -0.17713359 0.19319332 -14.46180820 0.25098039 0.27450980 0.65882353
v -0.17818224 0.20842528 -14.45857430 0.25098039 0.27450980 0.65882353
v -0.18302888 0.21009985 -14.45767117 0.25098039 0.27450980 0.65882353
v -0.18524893 0.21579787 -14.47552013 0.25098039 0.27450980 0.65882353
v -0.18046984 0.21642599 -14.47629166 0.25098039 0.27450980 0.65882353
v -0.18040982 0.20820832 -14.47560883 0.25098039 0.27450980 0.65882353
v -0.18491243 0.20877278 -14.47519970 0.25098039 0.27450980 0.65882353
v -0.17178649 0.18973866 -14.46873569 0.25098039 0.27450980 0.65882353
v -0.17318034 0.19222018 -14.46630859 0.25098039 0.27450980 0.65882353
v -0.18353847 0.19516528 -14.47724056 0.25098039 0.27450980 0.65882353
v -0.17887641 0.19598538 -14.47674656 0.25098039 0.27450980 0.65882353
v -0.17745113 0.19501644 -14.47690964 0.25098039 0.27450980 0.65882353
v -0.18142915 0.19392642 -14.47862530 0.25098039 0.27450980 0.65882353
v -0.17627826 0.21433720 -14.47376060 0.25098039 0.27450980 0.65882353
v -0.17458370 0.21219525 -14.46968842 0.25098039 0.27450980 0.65882353
v -0.17407009 0.20838553 -14.46978092 0.25098039 0.27450980 0.65882353
v -0.17656377 0.20689821 -14.47328091 0.25098039 0.27450980 0.65882353
v -0.17415716 0.20691517 -14.46415710 0.25098039 0.27450980 0.65882353
v -0.18697359 0.19391231 -14.47488785 0.25098039 0.27450980 0.65882353
v -0.18895529 0.19224706 -14.46962166 0.25098039 0.27450980 0.65882353
v -0.19126613 0.21053112 -14.46854496 0.25098039 0.27450980 0.65882353
v -0.18885387 0.21038972 -14.47251701 0.25098039 0.27450980 0.65882353
v -0.17429993 0.19339295 -14.46521854 0.25098039 0.27450980 0.65882353
v -0.17547467 0.19602968 -14.47385311 0.25098039 0.27450980 0.65882353
v -0.17380850 0.19424699 -14.47017765 0.25098039 0.27450980 0.65882353
v -0.18665145 0.19210634 -14.46359348 0.25098039 0.27450980 0.65882353
v -0.18688276 0.18932807 -14.47164345 0.25098039 0.27450980 0.65882353
v -0.17853007 0.18668170 -14.48403549 0.25098039 0.27450980 0.65882353
v -0.18353912 0.19077143 -14.47864342 0.25098039 0.27450980 0.65882353
v -0.17988522 0.19372670 -14.47981834 0.25098039 0.27450980 0.65882353
v -0.17664132 0.18902439 -14.48437405 0.25098039 0.27450980 0.65882353
v -0.18486565 0.19167364 -14.47674465 0.25098039 0.27450980 0.65882353
v -0.18449430 0.18719172 -14.47462273 0.25098039 0.27450980 0.65882353
v -0.16721313 0.18844199 -14.47669888 0.25098039 0.27450980 0.65882353
v -0.17044228 0.19069041 -14.48018169 0.25098039 0.27450980 0.65882353
v -0.16718191 0.18599766 -14.47474194 0.25098039 0.27450980 0.65882353
v -0.18855642 0.21114136 -14.46091557 0.25098039 0.27450980 0.65882353
v -0.17213076 0.18088105 -14.47394753 0.25098039 0.27450980 0.65882353
v -0.16841167 0.18296278 -14.47396278 0.25098039 0.27450980 0.65882353
v -0.17597318 0.19448665 -14.47765636 0.25098039 0.27450980 0.65882353
v -0.17375876 0.19069445 -14.48290920 0.25098039 0.27450980 0.65882353
v -0.17923942 0.18336418 -14.48147297 0.25098039 0.27450980 0.65882353
v -0.17716104 0.18081218 -14.47636032 0.25098039 0.27450980 0.65882353
v -0.17575175 0.18180060 -14.48515034 0.25098039 0.27450980 0.65882353
v -0.17357638 0.17881674 -14.48020554 0.25098039 0.27450980 0.65882353
v -0.16839094 0.17967077 -14.47756290 0.25098039 0.27450980 0.65882353
v -0.16642293 0.18257582 -14.47654247 0.25098039 0.27450980 0.65882353
v -0.16558813 0.18542010 -14.47688770 0.25098039 0.27450980 0.65882353
v -0.17562370 0.18594906 -14.48703480 0.25098039 0.27450980 0.65882353
v -0.17420933 0.18862055 -14.48670864 0.25098039 0.27450980 0.65882353
v -0.17205554 0.19047928 -14.48448849 0.25098039 0.27450980 0.65882353
v -0.17261060 0.18535541 -14.48987961 0.25098039 0.27450980 0.65882353
v -0.17089681 0.18113302 -14.48910713 0.25098039 0.27450980 0.65882353
v -0.15788317 0.18235713 -14.48863506 0.25098039 0.27450980 0.65882353
v -0.16045585 0.18181303 -14.48537636 0.25098039 0.27450980 0.65882353
v -0.16111501 0.18113689 -14.48615456 0.25098039 0.27450980 0.65882353
v -0.15811196 0.18134512 -14.48898792 0.25098039 0.27450980 0.65882353
v -0.16455282 0.18005878 -14.48225117 0.25098039 0.27450980 0.65882353
v -0.16446748 0.17983949 -14.48400974 0.25098039 0.27450980 0.65882353
v -0.16775072 0.17936316 -14.48526382 0.25098039 0.27450980 0.65882353
v -0.16387036 0.17994183 -14.48897266 0.25098039 0.27450980 0.65882353
v -0.16677472 0.18207651 -14.49272823 0.25098039 0.27450980 0.65882353
v -0.16337335 0.18221729 -14.49511623 0.25098039 0.27450980 0.65882353
v -0.16118325 0.18007106 -14.49174023 0.25098039 0.27450980 0.65882353
v -0.16912761 0.18035349 -14.48919106 0.25098039 0.27450980 0.65882353
v -0.15695012 0.18104407 -14.49151039 0.25098039 0.27450980 0.65882353
v -0.15571228 0.18157852 -14.49186039 0.25098039 0.27450980 0.65882353
v -0.16921404 0.17877603 -14.48396015 0.25098039 0.27450980 0.65882353
v -0.16340601 0.18295409 -14.47967625 0.25098039 0.27450980 0.65882353
v -0.15893978 0.18366252 -14.48483849 0.25098039 0.27450980 0.65882353
v -0.15602891 0.18379329 -14.48904896 0.25098039 0.27450980 0.65882353
v -0.15524209 0.18356496 -14.49281502 0.25098039 0.27450980 0.65882353
v -0.15934563 0.18601970 -14.48428059 0.25098039 0.27450980 0.65882353
v -0.15585455 0.18605438 -14.48904037 0.25098039 0.27450980 0.65882353
v -0.15533403 0.18586133 -14.49267960 0.25098039 0.27450980 0.65882353
v -0.16059008 0.18889841 -14.48496723 0.25098039 0.27450980 0.65882353
v -0.15738487 0.18809399 -14.48944187 0.25098039 0.27450980 0.65882353
v -0.16494715 0.18913445 -14.48036957 0.25098039 0.27450980 0.65882353
v -0.16353658 0.18612543 -14.47944832 0.25098039 0.27450980 0.65882353
v -0.15653369 0.18710539 -14.49222183 0.25098039 0.27450980 0.65882353
v -0.15749963 0.18113829 -14.49515152 0.25098039 0.27450980 0.65882353
v -0.15684870 0.18385208 -14.49559498 0.25098039 0.27450980 0.65882353
v -0.15871197 0.18046245 -14.49442482 0.25098039 0.27450980 0.65882353
v -0.16749197 0.18301439 -14.49324989 0.25098039 0.27450980 0.65882353
v -0.16347402 0.18330273 -14.49617958 0.25098039 0.27450980 0.65882353
v -0.16804251 0.18538705 -14.49364185 0.25098039 0.27450980 0.65882353
v -0.16318446 0.18534017 -14.49637890 0.25098039 0.27450980 0.65882353
v -0.16013552 0.18252948 -14.49707985 0.25098039 0.27450980 0.65882353
v -0.16079178 0.18147704 -14.49567795 0.25098039 0.27450980 0.65882353
v -0.16607276 0.18880135 -14.47888279 0.25098039 0.27450980 0.65882353
v -0.16898113 0.19039899 -14.48139763 0.25098039 0.27450980 0.65882353
v -0.16781308 0.19073395 -14.48314095 0.25098039 0.27450980 0.65882353
v -0.16325210 0.19066694 -14.48734856 0.25098039 0.27450980 0.65882353
v -0.17078602 0.19061354 -14.48633766 0.25098039 0.27450980 0.65882353
v -0.17236137 0.18830764 -14.48882866 0.25098039 0.27450980 0.65882353
v -0.16748796 0.18789333 -14.49287987 0.25098039 0.27450980 0.65882353
v -0.16592860 0.19010735 -14.49093533 0.25098039 0.27450980 0.65882353
v -0.16236526 0.18719512 -14.49582958 0.25098039 0.27450980 0.65882353
v -0.16142213 0.18915427 -14.49381828 0.25098039 0.27450980 0.65882353
v -0.15952422 0.18963715 -14.49128056 0.25098039 0.27450980 0.65882353
v -0.15886822 0.18617228 -14.49612427 0.25098039 0.27450980 0.65882353
v -0.15919575 0.18459214 -14.49701309 0.25098039 0.27450980 0.65882353
v -0.15697810 0.18581441 -14.49504852 0.25098039 0.27450980 0.65882353
v -0.15876421 0.18763235 -14.49489498 0.25098039 0.27450980 0.65882353
v -0.15768428 0.18757656 -14.49373245 0.25098039 0.27450980 0.65882353
v -0.18794301 0.21457401 -14.47289467 0.25098039 0.27450980 0.65882353
v -0.09455784 0.21490313 -14.46328831 0.25098039 0.27450980 0.65882353
v -0.09945953 0.21324633 -14.46318722 0.25098039 0.27450980 0.65882353
v -0.10218774 0.20973410 -14.47800446 0.25098039 0.27450980 0.65882353
v -0.10421056 0.20919026 -14.47152519 0.25098039 0.27450980 0.65882353
v -0.09668614 0.21138065 -14.48155689 0.25098039 0.27450980 0.65882353
v -0.08775079 0.21586207 -14.47820568 0.25098039 0.27450980 0.65882353
v -0.09188892 0.21447632 -14.48116779 0.25098039 0.27450980 0.65882353
v -0.10282160 0.21069735 -14.46643353 0.25098039 0.27450980 0.65882353
v -0.08992919 0.21662186 -14.46582699 0.25098039 0.27450980 0.65882353
v -0.08642626 0.21752228 -14.47210693 0.25098039 0.27450980 0.65882353
v -0.08592165 0.20758507 -14.46646214 0.25098039 0.27450980 0.65882353
v -0.08337794 0.20877509 -14.47345829 0.25098039 0.27450980 0.65882353
v -0.08524878 0.20779377 -14.48022175 0.25098039 0.27450980 0.65882353
v -0.09122661 0.20780955 -14.48283958 0.25098039 0.27450980 0.65882353
v -0.09587553 0.20683208 -14.48324776 0.25098039 0.27450980 0.65882353
v -0.09281528 0.20776743 -14.46396828 0.25098039 0.27450980 0.65882353
v -0.09787101 0.20672911 -14.46410751 0.25098039 0.27450980 0.65882353
v -0.10241544 0.20595580 -14.46791840 0.25098039 0.27450980 0.65882353
v -0.09258065 0.19906691 -14.46447277 0.25098039 0.27450980 0.65882353
v -0.08929420 0.19105750 -14.46969795 0.25098039 0.27450980 0.65882353
v -0.09285694 0.18207738 -14.48646069 0.25098039 0.27450980 0.65882353
v -0.09215498 0.18859567 -14.48568916 0.25098039 0.27450980 0.65882353
v -0.09059955 0.18753287 -14.48356056 0.25098039 0.27450980 0.65882353
v -0.09094465 0.18167569 -14.48470592 0.25098039 0.27450980 0.65882353
v -0.08942321 0.19282182 -14.48350906 0.25098039 0.27450980 0.65882353
v -0.08918913 0.19124405 -14.48178673 0.25098039 0.27450980 0.65882353
v -0.08808239 0.19178781 -14.47648811 0.25098039 0.27450980 0.65882353
v -0.08886191 0.18603826 -14.47775364 0.25098039 0.27450980 0.65882353
v -0.08959396 0.18984765 -14.47216415 0.25098039 0.27450980 0.65882353
v -0.09123129 0.18572223 -14.47221088 0.25098039 0.27450980 0.65882353
v -0.08960839 0.18049279 -14.47876453 0.25098039 0.27450980 0.65882353
v -0.09037147 0.17789964 -14.48379326 0.25098039 0.27450980 0.65882353
v -0.09048182 0.17599809 -14.47980690 0.25098039 0.27450980 0.65882353
v -0.09297712 0.17707798 -14.48518372 0.25098039 0.27450980 0.65882353
v -0.08508345 0.19221412 -14.47600746 0.25098039 0.27450980 0.65882353
v -0.09199503 0.19864605 -14.48545456 0.25098039 0.27450980 0.65882353
v -0.09487616 0.19069394 -14.48699188 0.25098039 0.27450980 0.65882353
v -0.09624426 0.18312785 -14.48706436 0.25098039 0.27450980 0.65882353
v -0.09609793 0.17743886 -14.48512077 0.25098039 0.27450980 0.65882353
v -0.09894803 0.19179961 -14.48625088 0.25098039 0.27450980 0.65882353
v -0.09982231 0.18481386 -14.48534584 0.25098039 0.27450980 0.65882353
v -0.09965037 0.17978667 -14.48277187 0.25098039 0.27450980 0.65882353
v -0.10224530 0.19212234 -14.48279190 0.25098039 0.27450980 0.65882353
v -0.10188501 0.18558046 -14.48210144 0.25098039 0.27450980 0.65882353
v -0.10128604 0.20358647 -14.48035049 0.25098039 0.27450980 0.65882353
v -0.09690592 0.20236406 -14.48472118 0.25098039 0.27450980 0.65882353
v -0.10080017 0.18170393 -14.48111725 0.25098039 0.27450980 0.65882353
v -0.09223056 0.17392656 -14.48013401 0.25098039 0.27450980 0.65882353
v -0.09572303 0.17448020 -14.47987175 0.25098039 0.27450980 0.65882353
v -0.09272723 0.18658522 -14.46944714 0.25098039 0.27450980 0.65882353
v -0.09142445 0.18037011 -14.47298336 0.25098039 0.27450980 0.65882353
v -0.09369929 0.18061696 -14.47132778 0.25098039 0.27450980 0.65882353
v -0.09560573 0.18847123 -14.46755600 0.25098039 0.27450980 0.65882353
v -0.09632063 0.18113837 -14.47038078 0.25098039 0.27450980 0.65882353
v -0.09326765 0.17581835 -14.47449112 0.25098039 0.27450980 0.65882353
v -0.09112220 0.17699580 -14.47551346 0.25098039 0.27450980 0.65882353
v -0.10129122 0.20651612 -14.47997952 0.25098039 0.27450980 0.65882353
v -0.10361165 0.20643222 -14.47371674 0.25098039 0.27450980 0.65882353
v -0.10323775 0.20355117 -14.47402573 0.25098039 0.27450980 0.65882353
v -0.10362111 0.19248350 -14.47646904 0.25098039 0.27450980 0.65882353
v -0.10217395 0.20169522 -14.46827412 0.25098039 0.27450980 0.65882353
v -0.09747002 0.20012325 -14.46479130 0.25098039 0.27450980 0.65882353
v -0.09912713 0.18969606 -14.46779156 0.25098039 0.27450980 0.65882353
v -0.10229354 0.19143209 -14.47083855 0.25098039 0.27450980 0.65882353
v -0.09944849 0.18253091 -14.47133541 0.25098039 0.27450980 0.65882353
v -0.10117058 0.18396056 -14.47327995 0.25098039 0.27450980 0.65882353
v -0.10257263 0.18492658 -14.47781372 0.25098039 0.27450980 0.65882353
v -0.09894487 0.17850018 -14.47470760 0.25098039 0.27450980 0.65882353
v -0.09627128 0.17654127 -14.47391129 0.25098039 0.27450980 0.65882353
v -0.09907927 0.17745274 -14.47893429 0.25098039 0.27450980 0.65882353
v -0.10030308 0.18081576 -14.47525787 0.25098039 0.27450980 0.65882353
v -0.10067225 0.18058819 -14.47829247 0.25098039 0.27450980 0.65882353
v -0.18013951 0.22132978 -14.47708511 0.25098039 0.27450980 0.65882353
v -0.17472813 0.21914318 -14.47472191 0.25098039 0.27450980 0.65882353
v -0.17473425 0.22427456 -14.47769356 0.25098039 0.27450980 0.65882353
v -0.17254265 0.23119518 -14.48249149 0.25098039 0.27450980 0.65882353
v -0.17570741 0.23976795 -14.48697472 0.25098039 0.27450980 0.65882353
v -0.16688626 0.23076706 -14.47913551 0.25098039 0.27450980 0.65882353
v -0.16959341 0.22332966 -14.47427750 0.25098039 0.27450980 0.65882353
v -0.17014587 0.21615332 -14.46933937 0.25098039 0.27450980 0.65882353
v -0.15989295 0.23777583 -14.47885036 0.25098039 0.27450980 0.65882353
f 2 3 1
f 1 3 4
f 5 6 8
f 8 6 7
f 9 4 10
f 10 4 3
f 12 13 11
f 11 13 9
f 14 12 16
f 16 12 15
f 18 19 17
f 17 19 20
f 22 23 21
f 21 23 24
f 26 27 25
f 25 27 28
f 30 31 29
f 29 31 32
f 33 34 36
f 36 34 35
f 37 38 40
f 40 38 39
f 41 42 6
f 6 42 43
f 6 43 7
f 7 43 44
f 45 34 46
f 46 34 33
f 48 49 47
f 47 49 50
f 52 53 51
f 51 53 54
f 56 52 55
f 55 52 51
f 58 59 57
f 57 59 60
f 61 62 4
f 4 62 1
f 64 65 63
f 63 65 66
f 68 69 67
f 67 69 70
f 72 73 71
f 71 73 74
f 76 77 75
f 75 77 78
f 53 79 54
f 54 79 80
f 82 83 81
f 81 83 84
f 85 86 52
f 52 86 53
f 57 60 87
f 87 60 88
f 89 90 43
f 43 90 44
f 43 42 89
f 89 42 91
f 40 39 92
f 92 39 93
f 94 70 64
f 64 70 69
f 13 61 9
f 9 61 4
f 25 28 69
f 69 28 95
f 96 25 68
f 68 25 69
f 98 99 97
f 97 99 100
f 101 102 104
f 104 102 103
f 106 30 105
f 105 30 29
f 51 54 107
f 107 54 108
f 54 80 108
f 108 80 109
f 111 112 110
f 110 112 113
f 115 5 114
f 114 5 116
f 115 41 5
f 5 41 6
f 36 35 111
f 111 35 117
f 35 118 117
f 117 118 119
f 34 120 35
f 35 120 118
f 34 45 120
f 120 45 121
f 125 126 124
f 124 126 127
f 128 129 14
f 14 129 130
f 33 131 46
f 46 131 132
f 133 94 63
f 63 94 64
f 134 135 137
f 137 135 136
f 139 140 138
f 138 140 141
f 77 142 78
f 78 142 143
f 144 145 20
f 20 145 146
f 148 149 147
f 147 149 72
f 151 152 150
f 150 152 153
f 82 101 83
f 83 101 104
f 101 82 155
f 155 82 154
f 156 157 58
f 58 157 59
f 158 68 147
f 147 68 67
f 159 146 15
f 15 146 16
f 68 158 96
f 96 158 160
f 129 66 130
f 130 66 65
f 162 163 161
f 161 163 164
f 166 167 165
f 165 167 168
f 170 171 169
f 169 171 172
f 174 171 173
f 173 171 170
f 176 177 175
f 175 177 178
f 180 181 179
f 179 181 24
f 182 183 21
f 21 183 184
f 81 185 82
f 82 185 154
f 186 187 188
f 188 187 144
f 158 71 160
f 160 71 189
f 190 135 157
f 157 135 59
f 169 172 139
f 139 172 140
f 147 72 158
f 158 72 71
f 192 193 191
f 191 193 194
f 167 166 49
f 49 166 195
f 196 190 50
f 50 190 157
f 197 198 200
f 200 198 199
f 21 24 182
f 182 24 181
f 146 159 20
f 20 159 17
f 182 181 81
f 81 181 185
f 201 185 180
f 180 185 181
f 202 203 83
f 83 203 84
f 205 206 204
f 204 206 85
f 207 22 184
f 184 22 21
f 179 24 208
f 208 24 23
f 208 209 179
f 179 209 205
f 209 210 205
f 205 210 206
f 212 206 211
f 211 206 210
f 179 205 180
f 180 205 204
f 213 176 88
f 88 176 214
f 86 85 212
f 212 85 206
f 193 217 218
f 217 219 218
f 218 219 220
f 219 18 220
f 220 18 17
f 19 221 20
f 20 221 144
f 222 223 225
f 225 223 224
f 175 226 176
f 176 226 214
f 227 87 214
f 214 87 88
f 220 17 228
f 228 17 159
f 134 213 60
f 60 213 88
f 138 229 151
f 151 229 152
f 193 192 210
f 210 192 211
f 230 194 218
f 218 194 193
f 231 232 228
f 228 232 230
f 233 234 91
f 91 234 89
f 235 236 93
f 93 236 92
f 230 232 234
f 234 232 237
f 47 238 48
f 48 238 239
f 240 191 235
f 235 191 236
f 5 8 116
f 116 8 241
f 242 243 189
f 189 243 160
f 244 245 98
f 98 245 99
f 156 246 47
f 47 246 238
f 76 247 77
f 77 247 248
f 250 125 249
f 249 125 124
f 252 253 251
f 251 253 254
f 111 110 36
f 36 110 255
f 256 33 255
f 255 33 36
f 257 258 154
f 154 258 155
f 63 169 133
f 133 169 139
f 66 170 63
f 63 170 169
f 173 170 129
f 129 170 66
f 129 128 173
f 173 128 259
f 128 260 259
f 259 260 261
f 213 134 262
f 262 134 137
f 263 264 186
f 186 264 187
f 112 265 113
f 113 265 266
f 11 267 268
f 234 233 230
f 230 233 194
f 153 269 70
f 70 269 67
f 175 178 165
f 165 178 141
f 150 153 94
f 94 153 70
f 271 221 270
f 270 221 207
f 269 153 272
f 272 153 152
f 121 45 109
f 109 45 108
f 47 50 156
f 156 50 157
f 57 273 58
f 58 273 274
f 145 275 260
f 260 275 261
f 276 149 143
f 143 149 78
f 148 269 75
f 75 269 272
f 207 277 270
f 270 277 278
f 195 196 49
f 49 196 50
f 59 135 60
f 60 135 134
f 83 104 202
f 202 104 279
f 149 148 78
f 78 148 75
f 247 278 248
f 248 278 277
f 183 182 84
f 84 182 81
f 48 239 281
f 281 239 282
f 227 223 283
f 283 223 222
f 223 226 224
f 224 226 168
f 281 282 224
f 224 282 225
f 165 168 175
f 175 168 226
f 264 263 138
f 138 263 229
f 14 16 128
f 128 16 260
f 220 228 218
f 218 228 230
f 87 227 284
f 284 227 283
f 260 16 145
f 145 16 146
f 244 98 258
f 258 98 155
f 58 274 156
f 156 274 246
f 107 285 51
f 51 285 55
f 243 286 160
f 160 286 96
f 234 237 89
f 89 237 90
f 46 132 107
f 107 132 285
f 253 252 249
f 249 252 250
f 286 26 96
f 96 26 25
f 106 105 287
f 287 105 288
f 272 152 289
f 289 152 229
f 138 151 139
f 139 151 133
f 183 290 161
f 161 290 162
f 291 292 277
f 277 292 293
f 151 150 133
f 133 150 94
f 262 275 177
f 177 275 187
f 144 187 145
f 145 187 275
f 273 57 284
f 284 57 87
f 174 136 190
f 190 136 135
f 111 117 112
f 112 117 38
f 117 119 38
f 38 119 123
f 112 38 265
f 265 38 37
f 287 288 254
f 254 288 251
f 228 159 231
f 231 159 15
f 223 227 226
f 226 227 214
f 147 67 148
f 148 67 269
f 224 168 281
f 281 168 167
f 199 163 200
f 200 163 162
f 45 46 108
f 108 46 107
f 281 167 48
f 48 167 49
f 161 164 291
f 291 164 292
f 38 123 39
f 293 294 277
f 277 294 248
f 284 283 296
f 296 283 295
f 284 296 273
f 273 296 297
f 274 273 298
f 298 273 297
f 246 274 299
f 299 274 298
f 283 222 295
f 295 222 300
f 222 225 300
f 300 225 301
f 301 225 302
f 302 225 282
f 303 304 300
f 300 304 295
f 306 307 305
f 305 307 308
f 309 310 308
f 308 310 305
f 308 307 312
f 312 307 311
f 313 314 312
f 312 314 315
f 311 316 312
f 312 316 313
f 317 304 311
f 311 304 316
f 315 309 312
f 312 309 308
f 318 319 321
f 321 319 320
f 319 318 309
f 309 318 310
f 311 307 317
f 317 307 306
f 306 297 317
f 317 297 296
f 306 322 297
f 297 322 298
f 305 323 306
f 306 323 322
f 323 305 324
f 324 305 310
f 304 317 295
f 295 317 296
f 318 325 310
f 310 325 324
f 323 324 326
f 326 324 327
f 324 325 327
f 327 325 328
f 326 327 329
f 329 327 330
f 329 331 326
f 326 331 332
f 333 330 328
f 328 330 327
f 323 326 322
f 322 326 332
f 322 332 298
f 298 332 299
f 325 318 334
f 334 318 321
f 313 316 335
f 335 316 304
f 335 336 313
f 313 336 314
f 304 303 335
f 335 303 337
f 336 335 338
f 338 335 337
f 336 339 314
f 314 339 340
f 246 299 238
f 238 299 341
f 239 342 282
f 282 342 302
f 342 239 341
f 341 239 238
f 341 331 342
f 342 331 343
f 331 329 343
f 343 329 344
f 342 343 302
f 302 343 345
f 341 299 331
f 331 299 332
f 346 301 345
f 345 301 302
f 346 303 301
f 301 303 300
f 347 337 346
f 346 337 303
f 347 346 348
f 348 346 345
f 349 347 350
f 350 347 348
f 343 344 345
f 345 344 348
f 344 351 348
f 348 351 350
f 337 347 338
f 338 347 349
f 353 338 352
f 352 338 349
f 352 355 354
f 354 355 356
f 352 349 355
f 355 349 350
f 352 354 353
f 353 354 334
f 353 334 339
f 339 334 321
f 339 336 353
f 353 336 338
f 329 330 344
f 344 330 351
f 356 351 333
f 333 351 330
f 356 355 351
f 351 355 350
f 354 356 328
f 328 356 333
f 328 325 354
f 354 325 334
f 309 315 319
f 319 315 320
f 320 340 321
f 321 340 339
f 320 315 340
f 340 315 314
f 137 136 261
f 261 136 259
f 140 166 141
f 141 166 165
f 172 171 195
f 195 171 196
f 171 174 196
f 196 174 190
f 178 177 264
f 264 177 187
f 172 195 140
f 140 195 166
f 137 261 262
f 262 261 275
f 178 264 141
f 141 264 138
f 262 177 213
f 213 177 176
f 136 174 259
f 259 174 173
f 358 359 357
f 357 359 360
f 362 363 361
f 361 363 364
f 361 364 365
f 365 364 366
f 367 368 370
f 370 368 369
f 76 371 247
f 247 371 372
f 373 374 362
f 362 374 363
f 376 377 375
f 375 377 378
f 289 229 380
f 380 229 379
f 381 379 263
f 263 379 229
f 383 384 382
f 382 384 385
f 386 368 374
f 374 368 363
f 76 289 371
f 371 289 380
f 377 376 359
f 359 376 387
f 388 386 360
f 360 386 374
f 389 383 366
f 366 383 390
f 392 393 391
f 391 393 394
f 383 382 390
f 390 382 395
f 396 365 390
f 390 365 366
f 389 366 367
f 367 366 364
f 357 397 358
f 358 397 398
f 373 399 357
f 357 399 397
f 389 367 400
f 400 367 370
f 382 385 375
f 375 385 372
f 357 360 373
f 373 360 374
f 361 401 362
f 362 401 402
f 387 388 359
f 359 388 360
f 363 368 364
f 364 368 367
f 358 398 403
f 403 398 404
f 396 392 405
f 405 392 391
f 392 395 393
f 393 395 378
f 393 403 394
f 394 403 404
f 375 378 382
f 382 378 395
f 365 396 406
f 406 396 405
f 362 402 373
f 373 402 399
f 271 270 400
f 400 270 384
f 401 361 406
f 406 361 365
f 381 369 386
f 386 369 368
f 392 396 395
f 395 396 390
f 393 378 403
f 403 378 377
f 403 377 358
f 358 377 359
f 406 405 408
f 408 405 407
f 406 408 401
f 401 408 409
f 401 409 402
f 402 409 410
f 402 410 399
f 399 410 411
f 405 391 407
f 407 391 412
f 391 394 412
f 412 394 413
f 394 404 413
f 413 404 414
f 415 416 412
f 412 416 407
f 418 419 417
f 417 419 420
f 421 422 418
f 418 422 419
f 419 422 424
f 424 422 423
f 425 426 424
f 424 426 427
f 423 428 424
f 424 428 425
f 427 420 424
f 424 420 419
f 420 429 417
f 417 429 430
f 423 422 431
f 431 422 421
f 421 409 431
f 431 409 408
f 421 432 409
f 409 432 410
f 418 433 421
f 421 433 432
f 434 433 417
f 417 433 418
f 431 416 423
f 423 416 428
f 416 431 407
f 407 431 408
f 435 434 430
f 430 434 417
f 433 434 436
f 436 434 437
f 434 435 437
f 437 435 438
f 436 437 439
f 439 437 440
f 439 441 436
f 436 441 442
f 438 443 437
f 437 443 440
f 436 442 433
f 433 442 432
f 432 442 410
f 410 442 411
f 435 430 445
f 445 430 444
f 430 429 444
f 444 429 446
f 425 428 447
f 447 428 416
f 426 425 448
f 448 425 447
f 416 415 447
f 447 415 449
f 447 449 448
f 448 449 450
f 451 452 448
f 448 452 426
f 446 452 444
f 444 452 451
f 399 411 397
f 397 411 453
f 398 454 404
f 404 454 414
f 454 398 453
f 453 398 397
f 453 441 454
f 454 441 455
f 441 439 455
f 455 439 456
f 454 455 414
f 414 455 457
f 441 453 442
f 442 453 411
f 458 413 457
f 457 413 414
f 458 415 413
f 413 415 412
f 458 459 415
f 415 459 449
f 459 458 460
f 460 458 457
f 461 459 462
f 462 459 460
f 455 456 457
f 457 456 460
f 456 463 460
f 460 463 462
f 459 461 449
f 449 461 450
f 465 450 464
f 464 450 461
f 464 467 466
f 466 467 468
f 464 461 467
f 467 461 462
f 464 466 465
f 465 466 445
f 465 445 451
f 451 445 444
f 451 448 465
f 465 448 450
f 439 440 456
f 456 440 463
f 468 463 443
f 443 463 440
f 468 467 463
f 463 467 462
f 466 468 438
f 438 468 443
f 438 435 466
f 466 435 445
f 420 427 429
f 429 427 446
f 446 427 452
f 452 427 426
f 370 369 188
f 188 369 186
f 371 376 372
f 372 376 375
f 380 379 387
f 387 379 388
f 379 381 388
f 388 381 386
f 385 384 278
f 278 384 270
f 380 387 371
f 371 387 376
f 400 370 271
f 271 370 188
f 385 278 372
f 372 278 247
f 400 384 389
f 389 384 383
f 369 381 186
f 186 381 263
f 221 271 144
f 144 271 188
f 221 19 207
f 207 19 22
f 19 18 22
f 22 18 23
f 18 219 23
f 23 219 208
f 469 470 472
f 472 470 471
f 474 475 473
f 473 475 476
f 473 476 477
f 477 476 478
f 480 481 479
f 479 481 482
f 483 484 474
f 474 484 475
f 486 487 485
f 485 487 488
f 489 490 77
f 77 490 142
f 491 489 248
f 248 489 77
f 493 494 492
f 492 494 495
f 496 480 484
f 484 480 475
f 486 497 487
f 487 497 471
f 498 496 472
f 472 496 484
f 499 493 478
f 478 493 500
f 501 502 504
f 504 502 503
f 493 492 500
f 500 492 505
f 506 477 500
f 500 477 478
f 499 478 479
f 479 478 476
f 469 507 470
f 470 507 508
f 483 509 469
f 469 509 507
f 479 482 499
f 499 482 510
f 492 495 485
f 485 495 511
f 483 469 484
f 484 469 472
f 473 512 474
f 474 512 513
f 497 498 471
f 471 498 472
f 475 480 476
f 476 480 479
f 470 508 514
f 514 508 515
f 506 502 516
f 516 502 501
f 503 502 488
f 488 502 505
f 514 515 503
f 503 515 504
f 485 488 492
f 492 488 505
f 477 506 517
f 517 506 516
f 474 513 483
f 483 513 509
f 510 292 494
f 494 292 164
f 512 473 517
f 517 473 477
f 491 481 496
f 496 481 480
f 502 506 505
f 505 506 500
f 503 488 514
f 514 488 487
f 514 487 470
f 470 487 471
f 517 516 519
f 519 516 518
f 517 519 512
f 512 519 520
f 512 520 513
f 513 520 521
f 513 521 509
f 509 521 522
f 516 501 518
f 518 501 523
f 501 504 523
f 523 504 524
f 524 504 525
f 525 504 515
f 526 527 523
f 523 527 518
f 529 530 528
f 528 530 531
f 532 533 529
f 529 533 530
f 530 533 535
f 535 533 534
f 536 537 535
f 535 537 538
f 534 539 535
f 535 539 536
f 538 531 535
f 535 531 530
f 540 541 531
f 531 541 528
f 533 532 534
f 534 532 542
f 532 520 542
f 542 520 519
f 532 543 520
f 520 543 521
f 529 544 532
f 532 544 543
f 544 529 545
f 545 529 528
f 534 542 539
f 539 542 527
f 527 542 518
f 518 542 519
f 541 546 528
f 528 546 545
f 547 544 548
f 548 544 545
f 546 549 545
f 545 549 548
f 550 547 551
f 551 547 548
f 547 550 553
f 553 550 552
f 549 554 548
f 548 554 551
f 544 547 543
f 543 547 553
f 543 553 521
f 521 553 522
f 546 541 556
f 556 541 555
f 541 540 555
f 555 540 557
f 536 539 558
f 558 539 527
f 537 536 559
f 559 536 558
f 527 526 558
f 558 526 560
f 559 558 561
f 561 558 560
f 559 562 537
f 537 562 563
f 557 563 555
f 555 563 562
f 509 522 507
f 507 522 564
f 508 565 515
f 515 565 525
f 565 508 564
f 564 508 507
f 564 552 565
f 565 552 566
f 552 550 566
f 566 550 567
f 565 566 525
f 525 566 568
f 564 522 552
f 552 522 553
f 569 524 568
f 568 524 525
f 569 526 524
f 524 526 523
f 570 560 569
f 569 560 526
f 570 569 571
f 571 569 568
f 572 570 573
f 573 570 571
f 566 567 568
f 568 567 571
f 567 574 571
f 571 574 573
f 570 572 560
f 560 572 561
f 576 561 575
f 575 561 572
f 575 578 577
f 577 578 579
f 575 572 578
f 578 572 573
f 575 577 576
f 576 577 556
f 576 556 562
f 562 556 555
f 562 559 576
f 576 559 561
f 550 551 567
f 567 551 574
f 579 574 554
f 554 574 551
f 579 578 574
f 574 578 573
f 579 554 577
f 577 554 549
f 549 546 577
f 577 546 556
f 531 538 540
f 540 538 557
f 557 538 563
f 563 538 537
f 481 294 482
f 482 294 293
f 580 486 511
f 511 486 485
f 490 489 497
f 497 489 498
f 489 491 498
f 498 491 496
f 163 495 164
f 164 495 494
f 580 490 486
f 486 490 497
f 482 293 510
f 510 293 292
f 495 163 511
f 511 163 199
f 494 493 510
f 510 493 499
f 481 491 294
f 294 491 248
f 582 583 581
f 581 583 584
f 586 587 585
f 585 587 588
f 585 588 589
f 589 588 590
f 592 593 591
f 591 593 594
f 595 596 598
f 598 596 597
f 599 600 586
f 586 600 587
f 601 602 604
f 604 602 603
f 605 606 608
f 608 606 607
f 609 607 200
f 200 607 606
f 610 611 613
f 613 611 612
f 600 614 587
f 587 614 592
f 596 605 597
f 597 605 608
f 602 615 603
f 603 615 583
f 616 614 584
f 584 614 600
f 611 618 617
f 617 618 590
f 620 621 619
f 619 621 622
f 610 623 611
f 611 623 618
f 624 589 618
f 618 589 590
f 617 590 591
f 591 590 588
f 581 625 582
f 582 625 626
f 599 627 581
f 581 627 625
f 591 594 617
f 617 594 628
f 601 610 598
f 598 610 613
f 581 584 599
f 599 584 600
f 585 629 586
f 586 629 630
f 615 616 583
f 583 616 584
f 587 592 588
f 588 592 591
f 582 626 631
f 631 626 632
f 624 620 633
f 633 620 619
f 621 620 604
f 604 620 623
f 631 632 621
f 621 632 622
f 610 601 623
f 623 601 604
f 589 624 634
f 634 624 633
f 586 630 599
f 599 630 627
f 203 202 628
f 628 202 612
f 629 585 634
f 634 585 589
f 609 593 614
f 614 593 592
f 620 624 623
f 623 624 618
f 631 621 603
f 603 621 604
f 582 631 583
f 583 631 603
f 634 633 636
f 636 633 635
f 634 636 629
f 629 636 637
f 629 637 630
f 630 637 638
f 630 638 627
f 627 638 639
f 633 619 635
f 635 619 640
f 619 622 640
f 640 622 641
f 641 622 642
f 642 622 632
f 644 635 643
f 643 635 640
f 645 646 648
f 648 646 647
f 649 650 646
f 646 650 647
f 647 650 652
f 652 650 651
f 652 653 655
f 655 653 654
f 651 656 652
f 652 656 653
f 655 648 652
f 652 648 647
f 648 657 645
f 645 657 658
f 650 649 651
f 651 649 659
f 649 637 659
f 659 637 636
f 649 660 637
f 637 660 638
f 661 660 646
f 646 660 649
f 662 661 645
f 645 661 646
f 651 659 656
f 656 659 644
f 644 659 635
f 635 659 636
f 663 662 658
f 658 662 645
f 664 661 665
f 665 661 662
f 663 666 662
f 662 666 665
f 667 664 668
f 668 664 665
f 664 667 670
f 670 667 669
f 666 671 665
f 665 671 668
f 661 664 660
f 660 664 670
f 660 670 638
f 638 670 639
f 658 672 663
f 663 672 673
f 658 657 672
f 672 657 674
f 653 656 675
f 675 656 644
f 653 675 654
f 654 675 676
f 675 644 677
f 677 644 643
f 676 675 678
f 678 675 677
f 679 680 676
f 676 680 654
f 674 680 672
f 672 680 679
f 627 639 625
f 625 639 681
f 626 682 632
f 632 682 642
f 681 682 625
f 625 682 626
f 669 683 681
f 681 683 682
f 667 684 669
f 669 684 683
f 682 683 642
f 642 683 685
f 681 639 669
f 669 639 670
f 686 641 685
f 685 641 642
f 641 686 640
f 640 686 643
f 686 687 643
f 643 687 677
f 687 686 688
f 688 686 685
f 689 687 690
f 690 687 688
f 683 684 685
f 685 684 688
f 684 691 688
f 688 691 690
f 687 689 677
f 677 689 678
f 693 678 692
f 692 678 689
f 692 695 694
f 694 695 696
f 692 689 695
f 695 689 690
f 692 694 693
f 693 694 673
f 693 673 679
f 679 673 672
f 679 676 693
f 693 676 678
f 684 667 691
f 691 667 668
f 696 691 671
f 671 691 668
f 696 695 691
f 691 695 690
f 694 696 666
f 666 696 671
f 666 663 694
f 694 663 673
f 648 655 657
f 657 655 674
f 674 655 680
f 680 655 654
f 593 162 594
f 594 162 290
f 598 597 601
f 601 597 602
f 615 608 616
f 616 608 607
f 607 609 616
f 616 609 614
f 697 595 613
f 613 595 598
f 597 608 602
f 602 608 615
f 594 290 628
f 628 290 203
f 628 612 617
f 617 612 611
f 593 609 162
f 162 609 200
f 105 29 698
f 698 29 699
f 268 126 701
f 701 126 700
f 126 125 700
f 700 125 702
f 252 703 250
f 250 703 704
f 32 268 705
f 705 268 701
f 288 105 706
f 706 105 698
f 29 32 699
f 699 32 705
f 707 251 706
f 706 251 288
f 250 704 125
f 125 704 702
f 703 252 707
f 707 252 251
f 706 708 707
f 707 708 709
f 707 709 703
f 703 709 710
f 703 710 704
f 704 710 711
f 704 711 702
f 702 711 712
f 706 698 708
f 708 698 713
f 698 699 713
f 713 699 714
f 699 705 714
f 714 705 715
f 717 708 716
f 716 708 713
f 719 720 718
f 718 720 721
f 722 723 719
f 719 723 720
f 724 725 723
f 723 725 720
f 724 726 725
f 725 726 727
f 728 721 725
f 725 721 720
f 721 728 729
f 729 728 730
f 729 731 721
f 721 731 718
f 724 723 732
f 732 723 722
f 722 710 732
f 732 710 709
f 722 733 710
f 710 733 711
f 719 734 722
f 722 734 733
f 734 719 735
f 735 719 718
f 724 732 726
f 726 732 717
f 717 732 708
f 708 732 709
f 731 736 718
f 718 736 735
f 737 734 738
f 738 734 735
f 736 739 735
f 735 739 738
f 740 737 741
f 741 737 738
f 737 740 743
f 743 740 742
f 739 744 738
f 738 744 741
f 734 737 733
f 733 737 743
f 733 743 711
f 711 743 712
f 736 731 746
f 746 731 745
f 731 729 745
f 745 729 730
f 727 726 747
f 747 726 717
f 748 727 749
f 749 727 747
f 747 717 750
f 750 717 716
f 749 747 751
f 751 747 750
f 749 752 748
f 748 752 753
f 730 753 745
f 745 753 752
f 728 725 748
f 748 725 727
f 730 728 753
f 753 728 748
f 700 702 754
f 754 702 712
f 705 701 715
f 715 701 755
f 754 755 700
f 700 755 701
f 742 756 754
f 754 756 755
f 740 757 742
f 742 757 756
f 755 756 715
f 715 756 758
f 754 712 742
f 742 712 743
f 759 714 758
f 758 714 715
f 714 759 713
f 713 759 716
f 759 760 716
f 716 760 750
f 760 759 761
f 761 759 758
f 762 760 763
f 763 760 761
f 756 757 758
f 758 757 761
f 757 764 761
f 761 764 763
f 760 762 750
f 750 762 751
f 766 751 765
f 765 751 762
f 767 765 769
f 769 765 768
f 765 762 768
f 768 762 763
f 765 767 766
f 766 767 746
f 766 746 752
f 752 746 745
f 752 749 766
f 766 749 751
f 757 740 764
f 764 740 741
f 769 764 744
f 744 764 741
f 769 768 764
f 764 768 763
f 767 769 739
f 739 769 744
f 739 736 767
f 767 736 746
f 219 217 208
f 208 217 209
f 209 217 210
f 210 217 193
f 198 580 199
f 199 580 511
f 76 75 289
f 289 75 272
f 277 207 291
f 291 207 184
f 290 183 203
f 203 183 84
f 490 580 142
f 142 580 198
f 142 198 143
f 143 198 197
f 149 276 72
f 72 276 73
f 104 103 279
f 279 103 770
f 770 596 279
f 279 596 595
f 605 596 771
f 771 596 770
f 771 770 772
f 772 770 103
f 772 103 773
f 773 103 102
f 155 774 101
f 101 774 102
f 773 102 97
f 97 102 774
f 775 773 100
f 100 773 97
f 773 775 772
f 772 775 776
f 772 776 771
f 771 776 777
f 200 606 197
f 197 606 777
f 189 71 778
f 778 71 74
f 97 774 98
f 98 774 155
f 183 161 184
f 184 161 291
f 777 276 197
f 197 276 143
f 777 606 771
f 771 606 605
f 613 612 697
f 697 612 202
f 595 697 279
f 279 697 202
f 73 276 776
f 776 276 777
f 776 775 73
f 73 775 74
f 100 778 775
f 775 778 74
f 778 100 189
f 189 100 99
f 245 242 99
f 99 242 189
f 131 33 256
f 28 1 95
f 95 1 62
f 27 2 28
f 28 2 1
f 265 115 266
f 266 115 114
f 95 62 69
f 69 62 64
f 62 61 64
f 64 61 65
f 61 13 65
f 65 13 130
f 13 12 130
f 130 12 14
f 31 11 32
f 32 11 268
f 15 12 31
f 31 12 11
f 31 30 15
f 15 30 231
f 30 106 231
f 231 106 232
f 287 237 106
f 106 237 232
f 254 90 287
f 287 90 237
f 253 44 254
f 254 44 90
f 253 249 44
f 44 249 7
f 267 127 268
f 268 127 126
f 10 3 241
f 241 3 116
f 3 2 116
f 116 2 114
f 2 27 114
f 114 27 266
f 27 26 266
f 266 26 113
f 26 286 113
f 113 286 110
f 286 243 110
f 110 243 255
f 243 242 255
f 255 242 256
f 242 245 256
f 256 245 131
f 245 244 131
f 131 244 132
f 265 37 115
f 115 37 41
f 41 37 42
f 42 37 40
f 92 91 40
f 40 91 42
f 236 233 92
f 92 233 91
f 191 194 236
f 236 194 233
f 258 285 244
f 244 285 132
f 257 55 258
f 258 55 285
f 257 154 201
f 201 154 185
f 56 201 204
f 204 201 180
f 55 257 56
f 56 257 201
f 204 85 56
f 56 85 52
f 86 122 53
f 53 122 79
f 212 215 86
f 86 215 122
f 211 216 212
f 212 216 215
f 192 280 211
f 211 280 216
f 191 240 192
f 192 240 280
f 249 124 7
f 7 124 8
f 124 127 8
f 8 127 241
f 127 267 241
f 241 267 10
f 10 267 9
f 9 267 11
f 93 39 235
f 235 39 240
f 39 123 240
f 240 123 280
f 123 119 280
f 280 119 216
f 119 118 216
f 216 118 215
f 118 120 215
f 215 120 122
f 120 121 122
f 122 121 79
f 121 109 79
f 79 109 80

