# https://github.com/mikedh/trimesh
v -0.06997484 -0.00406015 -19.16959763 0.25098039 0.27450980 0.65882353
v -0.07629848 -0.00104661 -19.17759705 0.25098039 0.27450980 0.65882353
v -0.06892160 -0.00699847 -19.17893219 0.25098039 0.27450980 0.65882353
v -0.06151259 -0.00765982 -19.17056084 0.25098039 0.27450980 0.65882353
v -0.08075258 -0.00332905 -19.19833565 0.25098039 0.27450980 0.65882353
v -0.07709880 0.00371032 -19.20755196 0.25098039 0.27450980 0.65882353
v -0.06711625 -0.00704535 -19.20537758 0.25098039 0.27450980 0.65882353
v -0.07248218 -0.01182225 -19.19813919 0.25098039 0.27450980 0.65882353
v -0.05461553 -0.00983217 -19.17050552 0.25098039 0.27450980 0.65882353
v -0.06290188 -0.01203865 -19.17971420 0.25098039 0.27450980 0.65882353
v -0.05105931 -0.00804650 -19.17119789 0.25098039 0.27450980 0.65882353
v -0.04513070 -0.00038800 -19.15893745 0.25098039 0.27450980 0.65882353
v -0.04867432 -0.00555962 -19.16090584 0.25098039 0.27450980 0.65882353
v -0.04268171 0.00082402 -19.15004158 0.25098039 0.27450980 0.65882353
v -0.04753605 0.01023994 -19.15875053 0.25098039 0.27450980 0.65882353
v -0.04574046 0.00702763 -19.14318848 0.25098039 0.27450980 0.65882353
v -0.07422772 0.01864699 -19.14478493 0.25098039 0.27450980 0.65882353
v -0.08753169 0.01593597 -19.14206505 0.25098039 0.27450980 0.65882353
v -0.08033560 0.00689054 -19.12929726 0.25098039 0.27450980 0.65882353
v -0.06745681 0.00987125 -19.13369942 0.25098039 0.27450980 0.65882353
v -0.10040614 0.00190519 -19.13284874 0.25098039 0.27450980 0.65882353
v -0.08911089 0.00424566 -19.13015556 0.25098039 0.27450980 0.65882353
v -0.09641939 0.01423810 -19.14206314 0.25098039 0.27450980 0.65882353
v -0.10612708 0.01151842 -19.14393806 0.25098039 0.27450980 0.65882353
v -0.08618069 -0.00237304 -19.16886902 0.25098039 0.27450980 0.65882353
v -0.09191044 0.00155671 -19.17664528 0.25098039 0.27450980 0.65882353
v -0.08579828 0.00225488 -19.17625618 0.25098039 0.27450980 0.65882353
v -0.08047463 -0.00180894 -19.16937065 0.25098039 0.27450980 0.65882353
v -0.04547104 -0.00900336 -19.18299103 0.25098039 0.27450980 0.65882353
v -0.04707259 0.00532710 -19.17854309 0.25098039 0.27450980 0.65882353
v -0.04754402 -0.00042719 -19.17270660 0.25098039 0.27450980 0.65882353
v -0.04872048 -0.01323412 -19.18105125 0.25098039 0.27450980 0.65882353
v -0.11284351 0.00418394 -19.19742966 0.25098039 0.27450980 0.65882353
v -0.11782979 0.01542312 -19.20317650 0.25098039 0.27450980 0.65882353
v -0.11259802 0.01793830 -19.20440865 0.25098039 0.27450980 0.65882353
v -0.10912833 0.00755816 -19.19836998 0.25098039 0.27450980 0.65882353
v -0.09178643 0.01799948 -19.20812798 0.25098039 0.27450980 0.65882353
v -0.09728219 0.02625180 -19.20923042 0.25098039 0.27450980 0.65882353
v -0.09245418 0.03851195 -19.21095085 0.25098039 0.27450980 0.65882353
v -0.08482939 0.03222738 -19.20862007 0.25098039 0.27450980 0.65882353
v -0.08428061 0.01026565 -19.20758057 0.25098039 0.27450980 0.65882353
v -0.07759741 0.02200685 -19.20971298 0.25098039 0.27450980 0.65882353
v -0.07026520 0.01276412 -19.20960617 0.25098039 0.27450980 0.65882353
v -0.06054279 -0.00096929 -19.20764923 0.25098039 0.27450980 0.65882353
v -0.12944795 0.01260928 -19.19848442 0.25098039 0.27450980 0.65882353
v -0.12748800 0.00361445 -19.19402695 0.25098039 0.27450980 0.65882353
v -0.03110893 -0.04321075 -19.13594818 0.25098039 0.27450980 0.65882353
v -0.03628455 -0.04564296 -19.13476562 0.25098039 0.27450980 0.65882353
v -0.03755990 -0.04139407 -19.13580704 0.25098039 0.27450980 0.65882353
v -0.03209674 -0.03952936 -19.13637924 0.25098039 0.27450980 0.65882353
v -0.13819343 0.01588577 -19.18055534 0.25098039 0.27450980 0.65882353
v -0.13773593 0.02350061 -19.17394638 0.25098039 0.27450980 0.65882353
v -0.14155316 0.02588074 -19.17967796 0.25098039 0.27450980 0.65882353
v -0.14049371 0.01967411 -19.18667221 0.25098039 0.27450980 0.65882353
v -0.13503018 0.01085882 -19.17252350 0.25098039 0.27450980 0.65882353
v -0.13192463 0.01988012 -19.16649437 0.25098039 0.27450980 0.65882353
v -0.02423988 -0.04190779 -19.12495041 0.25098039 0.27450980 0.65882353
v -0.02422686 -0.04193835 -19.13016701 0.25098039 0.27450980 0.65882353
v -0.02511817 -0.03701501 -19.12926102 0.25098039 0.27450980 0.65882353
v -0.02594349 -0.03683324 -19.12416840 0.25098039 0.27450980 0.65882353
v -0.05528401 -0.00769821 -19.16246986 0.25098039 0.27450980 0.65882353
v -0.06451085 -0.00778778 -19.16273308 0.25098039 0.27450980 0.65882353
v -0.04968140 -0.01374226 -19.14817810 0.25098039 0.27450980 0.65882353
v -0.05581564 -0.01119022 -19.15267181 0.25098039 0.27450980 0.65882353
v -0.05011597 -0.00784532 -19.15485191 0.25098039 0.27450980 0.65882353
v -0.04546756 -0.00951614 -19.15018463 0.25098039 0.27450980 0.65882353
v -0.07918657 -0.01388597 -19.15065384 0.25098039 0.27450980 0.65882353
v -0.08427398 -0.00794424 -19.15935707 0.25098039 0.27450980 0.65882353
v -0.07764536 -0.00715292 -19.15937996 0.25098039 0.27450980 0.65882353
v -0.07054977 -0.01368417 -19.15080261 0.25098039 0.27450980 0.65882353
v -0.09737857 -0.01326330 -19.15931511 0.25098039 0.27450980 0.65882353
v -0.09137418 -0.01828025 -19.15044403 0.25098039 0.27450980 0.65882353
v -0.09950951 -0.02063876 -19.15150833 0.25098039 0.27450980 0.65882353
v -0.10221168 -0.01746460 -19.15822601 0.25098039 0.27450980 0.65882353
v -0.07858521 -0.02513761 -19.13548088 0.25098039 0.27450980 0.65882353
v -0.07528420 -0.02771120 -19.12956429 0.25098039 0.27450980 0.65882353
v -0.07713473 -0.02908577 -19.12891579 0.25098039 0.27450980 0.65882353
v -0.08182441 -0.02580325 -19.13554382 0.25098039 0.27450980 0.65882353
v -0.14504704 0.02928442 -19.18482780 0.25098039 0.27450980 0.65882353
v -0.14193121 0.02390891 -19.19243240 0.25098039 0.27450980 0.65882353
v -0.11974178 -0.00650650 -19.13788223 0.25098039 0.27450980 0.65882353
v -0.12595637 -0.01116130 -19.14572716 0.25098039 0.27450980 0.65882353
v -0.12295923 -0.01987672 -19.13694382 0.25098039 0.27450980 0.65882353
v -0.11715956 -0.01243160 -19.13014412 0.25098039 0.27450980 0.65882353
v -0.13157225 0.03057606 -19.16949463 0.25098039 0.27450980 0.65882353
v -0.13742441 0.03312869 -19.17404747 0.25098039 0.27450980 0.65882353
v -0.02765694 -0.04331018 -19.12000847 0.25098039 0.27450980 0.65882353
v -0.02986667 -0.03845680 -19.11987877 0.25098039 0.27450980 0.65882353
v -0.06543522 0.02394416 -19.20327759 0.25098039 0.27450980 0.65882353
v -0.05430199 0.00632416 -19.20366287 0.25098039 0.27450980 0.65882353
v -0.07590914 0.03538608 -19.20288277 0.25098039 0.27450980 0.65882353
v -0.08430240 0.04259117 -19.20205688 0.25098039 0.27450980 0.65882353
v -0.09068487 0.04840309 -19.20425224 0.25098039 0.27450980 0.65882353
v -0.05943951 -0.01483494 -19.14826393 0.25098039 0.27450980 0.65882353
v -0.07359709 -0.00560867 -19.16357040 0.25098039 0.27450980 0.65882353
v -0.09117416 -0.00369178 -19.16866112 0.25098039 0.27450980 0.65882353
v -0.11769807 -0.01903371 -19.16614342 0.25098039 0.27450980 0.65882353
v -0.12167154 -0.01402818 -19.17445564 0.25098039 0.27450980 0.65882353
v -0.11107866 -0.01325113 -19.17385674 0.25098039 0.27450980 0.65882353
v -0.10987219 -0.01731679 -19.16626740 0.25098039 0.27450980 0.65882353
v -0.12607612 -0.01887631 -19.15210915 0.25098039 0.27450980 0.65882353
v -0.12033547 -0.02306694 -19.15567017 0.25098039 0.27450980 0.65882353
v -0.11726181 -0.02717875 -19.14910507 0.25098039 0.27450980 0.65882353
v -0.12270057 -0.02469340 -19.14453506 0.25098039 0.27450980 0.65882353
v -0.04212286 -0.00650425 -19.18935776 0.25098039 0.27450980 0.65882353
v -0.04718730 0.00968650 -19.18481636 0.25098039 0.27450980 0.65882353
v -0.13506258 0.00923143 -19.18819427 0.25098039 0.27450980 0.65882353
v -0.13544492 0.01457385 -19.19385338 0.25098039 0.27450980 0.65882353
v -0.13789949 0.02125641 -19.19852638 0.25098039 0.27450980 0.65882353
v -0.10114733 0.00312798 -19.18762970 0.25098039 0.27450980 0.65882353
v -0.10652153 0.00987321 -19.19904709 0.25098039 0.27450980 0.65882353
v -0.10237076 0.01089469 -19.19935226 0.25098039 0.27450980 0.65882353
v -0.09809409 0.00503053 -19.18661499 0.25098039 0.27450980 0.65882353
v -0.08438973 0.00075269 -19.18636322 0.25098039 0.27450980 0.65882353
v -0.08951613 0.00481483 -19.19786263 0.25098039 0.27450980 0.65882353
v -0.07771824 -0.00738135 -19.18741989 0.25098039 0.27450980 0.65882353
v -0.10631306 0.02241142 -19.20713806 0.25098039 0.27450980 0.65882353
v -0.11635217 0.02502113 -19.21091080 0.25098039 0.27450980 0.65882353
v -0.10890010 0.02960709 -19.21269035 0.25098039 0.27450980 0.65882353
v -0.12513186 0.02214731 -19.20758629 0.25098039 0.27450980 0.65882353
v -0.13283381 0.02050816 -19.20338631 0.25098039 0.27450980 0.65882353
v -0.14321287 0.03842922 -19.17736244 0.25098039 0.27450980 0.65882353
v -0.10191058 0.03420212 -19.21274948 0.25098039 0.27450980 0.65882353
v -0.06586835 -0.01753313 -19.19690323 0.25098039 0.27450980 0.65882353
v -0.05953920 -0.02303951 -19.19624901 0.25098039 0.27450980 0.65882353
v -0.05913344 -0.02255015 -19.18844795 0.25098039 0.27450980 0.65882353
v -0.06522185 -0.01785291 -19.18822670 0.25098039 0.27450980 0.65882353
v -0.03956805 -0.00211120 -19.14225960 0.25098039 0.27450980 0.65882353
v -0.04120985 -0.00659308 -19.14790726 0.25098039 0.27450980 0.65882353
v -0.04477894 -0.00346368 -19.15483284 0.25098039 0.27450980 0.65882353
v -0.11306439 -0.00364717 -19.18887520 0.25098039 0.27450980 0.65882353
v -0.12545455 -0.00393051 -19.18652534 0.25098039 0.27450980 0.65882353
v -0.05311283 -0.01728002 -19.14365578 0.25098039 0.27450980 0.65882353
v -0.02821957 -0.03159517 -19.12467194 0.25098039 0.27450980 0.65882353
v -0.02705513 -0.03195770 -19.13026428 0.25098039 0.27450980 0.65882353
v -0.03443690 -0.01419098 -19.13692284 0.25098039 0.27450980 0.65882353
v -0.03519593 -0.01373051 -19.12998962 0.25098039 0.27450980 0.65882353
v -0.05331272 -0.02076131 -19.13395500 0.25098039 0.27450980 0.65882353
v -0.05214266 -0.01970283 -19.14081001 0.25098039 0.27450980 0.65882353
v -0.05165274 -0.02126107 -19.13897514 0.25098039 0.27450980 0.65882353
v -0.05336399 -0.02399975 -19.13322639 0.25098039 0.27450980 0.65882353
v -0.08577228 -0.03043648 -19.13193512 0.25098039 0.27450980 0.65882353
v -0.08994065 -0.02751419 -19.13755417 0.25098039 0.27450980 0.65882353
v -0.06120344 -0.00194108 -19.12486458 0.25098039 0.27450980 0.65882353
v -0.04971810 0.00545450 -19.12817574 0.25098039 0.27450980 0.65882353
v -0.05535720 0.01163136 -19.13784409 0.25098039 0.27450980 0.65882353
v -0.08643529 -0.01564917 -19.15087700 0.25098039 0.27450980 0.65882353
v -0.08261058 -0.02130321 -19.14291954 0.25098039 0.27450980 0.65882353
v -0.08653343 -0.02241514 -19.14268494 0.25098039 0.27450980 0.65882353
v -0.06070918 -0.01731431 -19.14430237 0.25098039 0.27450980 0.65882353
v -0.05654430 -0.01949669 -19.13916206 0.25098039 0.27450980 0.65882353
v -0.06129454 -0.01970114 -19.13914108 0.25098039 0.27450980 0.65882353
v -0.06602360 -0.01779393 -19.14415550 0.25098039 0.27450980 0.65882353
v -0.13013014 -0.00253620 -19.15466118 0.25098039 0.27450980 0.65882353
v -0.13051525 -0.01178374 -19.16181564 0.25098039 0.27450980 0.65882353
v -0.02672897 -0.04212410 -19.13418007 0.25098039 0.27450980 0.65882353
v -0.02753229 -0.03784365 -19.13391495 0.25098039 0.27450980 0.65882353
v -0.09125215 -0.00980469 -19.15944290 0.25098039 0.27450980 0.65882353
v -0.06258532 0.01790686 -19.14926529 0.25098039 0.27450980 0.65882353
v -0.09637229 -0.00551420 -19.16865158 0.25098039 0.27450980 0.65882353
v -0.10039338 -0.01812926 -19.12368202 0.25098039 0.27450980 0.65882353
v -0.10110703 -0.02580521 -19.12784386 0.25098039 0.27450980 0.65882353
v -0.09708174 -0.02923294 -19.12490845 0.25098039 0.27450980 0.65882353
v -0.09652393 -0.02514656 -19.12001038 0.25098039 0.27450980 0.65882353
v -0.04665518 -0.03811524 -19.12803459 0.25098039 0.27450980 0.65882353
v -0.04502210 -0.03880101 -19.13356972 0.25098039 0.27450980 0.65882353
v -0.04223993 -0.04302008 -19.13191223 0.25098039 0.27450980 0.65882353
v -0.04366547 -0.04308708 -19.12625313 0.25098039 0.27450980 0.65882353
v -0.04858911 -0.01735216 -19.14494896 0.25098039 0.27450980 0.65882353
v -0.04358526 -0.01381321 -19.14697838 0.25098039 0.27450980 0.65882353
v -0.04254653 -0.01874837 -19.14469910 0.25098039 0.27450980 0.65882353
v -0.04764715 -0.02078699 -19.14220619 0.25098039 0.27450980 0.65882353
v -0.03914732 -0.01079052 -19.14431572 0.25098039 0.27450980 0.65882353
v -0.03734478 -0.01587496 -19.14239120 0.25098039 0.27450980 0.65882353
v -0.04432558 -0.03633980 -19.12209320 0.25098039 0.27450980 0.65882353
v -0.03815836 -0.03383584 -19.11843872 0.25098039 0.27450980 0.65882353
v -0.04599684 -0.01800976 -19.12255287 0.25098039 0.27450980 0.65882353
v -0.05051881 -0.02349519 -19.12620735 0.25098039 0.27450980 0.65882353
v -0.11194828 0.02167005 -19.15361595 0.25098039 0.27450980 0.65882353
v -0.12172969 0.01653957 -19.15502167 0.25098039 0.27450980 0.65882353
v -0.11626128 0.00636487 -19.14526558 0.25098039 0.27450980 0.65882353
v -0.11164638 -0.00318756 -19.13488388 0.25098039 0.27450980 0.65882353
v -0.10618982 -0.01251862 -19.12633896 0.25098039 0.27450980 0.65882353
v -0.09659080 -0.00577154 -19.12284088 0.25098039 0.27450980 0.65882353
v -0.12338659 0.00327671 -19.14781380 0.25098039 0.27450980 0.65882353
v -0.05720790 -0.01529298 -19.12777138 0.25098039 0.27450980 0.65882353
v -0.05234529 -0.00815090 -19.12505722 0.25098039 0.27450980 0.65882353
v -0.05861463 -0.00926309 -19.12470627 0.25098039 0.27450980 0.65882353
v -0.10260814 -0.00960467 -19.16900063 0.25098039 0.27450980 0.65882353
v -0.02915326 -0.03312634 -19.13536072 0.25098039 0.27450980 0.65882353
v -0.09592177 0.05053199 -19.18307495 0.25098039 0.27450980 0.65882353
v -0.10749089 0.04880094 -19.17605972 0.25098039 0.27450980 0.65882353
v -0.10137413 0.04396566 -19.17190933 0.25098039 0.27450980 0.65882353
v -0.08809012 0.04508764 -19.18034172 0.25098039 0.27450980 0.65882353
v -0.04015347 -0.03741978 -19.13809204 0.25098039 0.27450980 0.65882353
v -0.03405598 -0.03540052 -19.13904572 0.25098039 0.27450980 0.65882353
v -0.09551267 -0.03072231 -19.13699341 0.25098039 0.27450980 0.65882353
v -0.09122948 -0.03274225 -19.13176537 0.25098039 0.27450980 0.65882353
v -0.09389912 -0.03355100 -19.12928581 0.25098039 0.27450980 0.65882353
v -0.09899716 -0.03432070 -19.13498688 0.25098039 0.27450980 0.65882353
v -0.12677869 0.01435388 -19.15732002 0.25098039 0.27450980 0.65882353
v -0.12066191 -0.02714726 -19.13426781 0.25098039 0.27450980 0.65882353
v -0.11546742 -0.02007693 -19.12721252 0.25098039 0.27450980 0.65882353
v -0.12611136 0.02557573 -19.16349602 0.25098039 0.27450980 0.65882353
v -0.11784793 0.03055980 -19.16189003 0.25098039 0.27450980 0.65882353
v -0.12263770 0.03669586 -19.16777802 0.25098039 0.27450980 0.65882353
v -0.08130287 -0.00721360 -19.11994553 0.25098039 0.27450980 0.65882353
v -0.10363476 0.02358123 -19.15193939 0.25098039 0.27450980 0.65882353
v -0.11042702 0.03242164 -19.16128731 0.25098039 0.27450980 0.65882353
v -0.11580788 0.03984581 -19.16828346 0.25098039 0.27450980 0.65882353
v -0.12037680 0.04526806 -19.17268944 0.25098039 0.27450980 0.65882353
v -0.12737574 0.04114741 -19.17180824 0.25098039 0.27450980 0.65882353
v -0.03270426 -0.03288009 -19.12021065 0.25098039 0.27450980 0.65882353
v -0.03566800 -0.04028554 -19.11735535 0.25098039 0.27450980 0.65882353
v -0.13334641 0.04713400 -19.17517090 0.25098039 0.27450980 0.65882353
v -0.12506574 0.05111536 -19.17655563 0.25098039 0.27450980 0.65882353
v -0.10147007 0.03467128 -19.16198540 0.25098039 0.27450980 0.65882353
v -0.08998379 0.03638306 -19.16423607 0.25098039 0.27450980 0.65882353
v -0.09522924 0.02586418 -19.15306091 0.25098039 0.27450980 0.65882353
v -0.08357331 0.02700976 -19.15430450 0.25098039 0.27450980 0.65882353
v -0.07372828 0.00060964 -19.11976814 0.25098039 0.27450980 0.65882353
v -0.03422771 -0.05757560 -19.12008476 0.25098039 0.27450980 0.65882353
v -0.03863202 -0.04732361 -19.11963844 0.25098039 0.27450980 0.65882353
v -0.04144405 -0.04778447 -19.12485504 0.25098039 0.27450980 0.65882353
v -0.03746654 -0.05798016 -19.12306595 0.25098039 0.27450980 0.65882353
v -0.04146287 -0.04200013 -19.12069321 0.25098039 0.27450980 0.65882353
v -0.03353369 -0.04521291 -19.11764717 0.25098039 0.27450980 0.65882353
v -0.06914426 0.02615303 -19.16099358 0.25098039 0.27450980 0.65882353
v -0.05830795 -0.02147347 -19.13402939 0.25098039 0.27450980 0.65882353
v -0.07404394 0.03485084 -19.17498779 0.25098039 0.27450980 0.65882353
v -0.05281192 0.01909994 -19.16762352 0.25098039 0.27450980 0.65882353
v -0.05704592 0.02372550 -19.17961693 0.25098039 0.27450980 0.65882353
v -0.07849404 0.04295197 -19.19072914 0.25098039 0.27450980 0.65882353
v -0.06449232 0.03190933 -19.19209671 0.25098039 0.27450980 0.65882353
v -0.09373322 0.05339417 -19.19511986 0.25098039 0.27450980 0.65882353
v -0.08716151 0.04833026 -19.19144821 0.25098039 0.27450980 0.65882353
v -0.05363439 0.01758726 -19.19444275 0.25098039 0.27450980 0.65882353
v -0.03092459 -0.05381368 -19.13554382 0.25098039 0.27450980 0.65882353
v -0.03607105 -0.05514159 -19.13335037 0.25098039 0.27450980 0.65882353
v -0.10140351 0.05580422 -19.18682098 0.25098039 0.27450980 0.65882353
v -0.07058780 -0.01338029 -19.18782425 0.25098039 0.27450980 0.65882353
v -0.10494705 -0.00510776 -19.17864037 0.25098039 0.27450980 0.65882353
v -0.10006452 -0.00209982 -19.17776489 0.25098039 0.27450980 0.65882353
v -0.12341913 -0.01031868 -19.17932129 0.25098039 0.27450980 0.65882353
v -0.11183850 -0.00890530 -19.18045044 0.25098039 0.27450980 0.65882353
v -0.02576208 -0.05266171 -19.13439941 0.25098039 0.27450980 0.65882353
v -0.07441236 -0.02801872 -19.12383270 0.25098039 0.27450980 0.65882353
v -0.07558699 -0.02661049 -19.12419319 0.25098039 0.27450980 0.65882353
v -0.06190440 -0.01440059 -19.20407295 0.25098039 0.27450980 0.65882353
v -0.05702519 -0.01992698 -19.20285988 0.25098039 0.27450980 0.65882353
v -0.04563397 -0.01317358 -19.20263100 0.25098039 0.27450980 0.65882353
v -0.05123986 -0.01693378 -19.20509720 0.25098039 0.27450980 0.65882353
v -0.05539030 -0.00929236 -19.20666122 0.25098039 0.27450980 0.65882353
v -0.04963006 -0.00456790 -19.20394707 0.25098039 0.27450980 0.65882353
v -0.10355930 0.00120113 -19.18808556 0.25098039 0.27450980 0.65882353
v -0.10702975 -0.00110180 -19.18792152 0.25098039 0.27450980 0.65882353
v -0.13306546 0.00436755 -19.16417694 0.25098039 0.27450980 0.65882353
v -0.13275459 -0.00516041 -19.17077065 0.25098039 0.27450980 0.65882353
v -0.03761387 -0.00758458 -19.13883781 0.25098039 0.27450980 0.65882353
v -0.04183291 0.00138215 -19.13458633 0.25098039 0.27450980 0.65882353
v -0.03928544 -0.00583958 -19.13212013 0.25098039 0.27450980 0.65882353
v -0.04020567 -0.01332948 -19.12486649 0.25098039 0.27450980 0.65882353
v -0.05654402 -0.02037055 -19.12997818 0.25098039 0.27450980 0.65882353
v -0.05354437 -0.01759376 -19.12866592 0.25098039 0.27450980 0.65882353
v -0.09594360 0.00800216 -19.19831085 0.25098039 0.27450980 0.65882353
v -0.09166558 0.00492198 -19.18571854 0.25098039 0.27450980 0.65882353
v -0.05938588 -0.01508346 -19.18116379 0.25098039 0.27450980 0.65882353
v -0.05489436 -0.01896425 -19.18229866 0.25098039 0.27450980 0.65882353
v -0.07413317 -0.01824899 -19.14448166 0.25098039 0.27450980 0.65882353
v -0.07372347 -0.01610157 -19.11640739 0.25098039 0.27450980 0.65882353
v -0.06752238 -0.00956066 -19.11696815 0.25098039 0.27450980 0.65882353
v -0.06964833 -0.02177057 -19.13748360 0.25098039 0.27450980 0.65882353
v -0.02207755 -0.05349661 -19.12651634 0.25098039 0.27450980 0.65882353
v -0.02303475 -0.05282351 -19.13150787 0.25098039 0.27450980 0.65882353
v -0.04430959 -0.00491897 -19.12683487 0.25098039 0.27450980 0.65882353
v -0.09425797 -0.02534724 -19.14399910 0.25098039 0.27450980 0.65882353
v -0.08117938 -0.01541940 -19.11851311 0.25098039 0.27450980 0.65882353
v -0.07510898 -0.02325536 -19.11811638 0.25098039 0.27450980 0.65882353
v -0.12018889 -0.02871961 -19.14203835 0.25098039 0.27450980 0.65882353
v -0.11264262 0.05424461 -19.18089294 0.25098039 0.27450980 0.65882353
v -0.04084344 -0.04783472 -19.13064003 0.25098039 0.27450980 0.65882353
v -0.03915127 -0.05625015 -19.12936401 0.25098039 0.27450980 0.65882353
v -0.03029543 -0.05594899 -19.11897469 0.25098039 0.27450980 0.65882353
v -0.02507424 -0.05365140 -19.12098122 0.25098039 0.27450980 0.65882353
v -0.13305992 0.00119176 -19.17965126 0.25098039 0.27450980 0.65882353
v -0.09656464 -0.00040516 -19.17688942 0.25098039 0.27450980 0.65882353
v -0.04692598 0.00399549 -19.19631577 0.25098039 0.27450980 0.65882353
v -0.04254887 -0.00906810 -19.19685364 0.25098039 0.27450980 0.65882353
v -0.06751674 -0.02375108 -19.13314247 0.25098039 0.27450980 0.65882353
v -0.10697284 -0.02143855 -19.12664413 0.25098039 0.27450980 0.65882353
v -0.09340704 -0.01393477 -19.11846352 0.25098039 0.27450980 0.65882353
v -0.09022143 -0.02183207 -19.11437798 0.25098039 0.27450980 0.65882353
v -0.08258916 -0.02256321 -19.11413765 0.25098039 0.27450980 0.65882353
v -0.07683872 -0.02585078 -19.11764717 0.25098039 0.27450980 0.65882353
v -0.02988788 -0.06161558 -19.12046432 0.25098039 0.27450980 0.65882353
v -0.02453224 -0.05919022 -19.12242126 0.25098039 0.27450980 0.65882353
v -0.02144387 -0.05852815 -19.12794876 0.25098039 0.27450980 0.65882353
v -0.02230087 -0.05720944 -19.13233948 0.25098039 0.27450980 0.65882353
v -0.02566415 -0.05603353 -19.13492203 0.25098039 0.27450980 0.65882353
v -0.03401563 -0.06321707 -19.12181473 0.25098039 0.27450980 0.65882353
v -0.03679281 -0.06309983 -19.12485695 0.25098039 0.27450980 0.65882353
v -0.03848349 -0.05954869 -19.12969780 0.25098039 0.27450980 0.65882353
v -0.03457831 -0.06732383 -19.12476540 0.25098039 0.27450980 0.65882353
v -0.02958250 -0.06944638 -19.12450600 0.25098039 0.27450980 0.65882353
v -0.02230139 -0.06976704 -19.13679886 0.25098039 0.27450980 0.65882353
v -0.02153037 -0.06633711 -19.13188171 0.25098039 0.27450980 0.65882353
v -0.02242190 -0.06903455 -19.13180161 0.25098039 0.27450980 0.65882353
v -0.02318466 -0.07255228 -19.13536453 0.25098039 0.27450980 0.65882353
v -0.02426308 -0.07706460 -19.13777733 0.25098039 0.27450980 0.65882353
v -0.02327593 -0.07447423 -19.13997459 0.25098039 0.27450980 0.65882353
v -0.02465983 -0.06855477 -19.12760925 0.25098039 0.27450980 0.65882353
v -0.02605166 -0.07380092 -19.13189125 0.25098039 0.27450980 0.65882353
v -0.02979115 -0.07456632 -19.13006783 0.25098039 0.27450980 0.65882353
v -0.03010549 -0.07918683 -19.13331413 0.25098039 0.27450980 0.65882353
v -0.02669819 -0.07877620 -19.13488388 0.25098039 0.27450980 0.65882353
v -0.02843024 -0.07118234 -19.12702942 0.25098039 0.27450980 0.65882353
v -0.02402773 -0.06663927 -19.12568474 0.25098039 0.27450980 0.65882353
v -0.02534194 -0.07853329 -19.14094162 0.25098039 0.27450980 0.65882353
v -0.02514575 -0.07974061 -19.13874054 0.25098039 0.27450980 0.65882353
v -0.02752042 -0.08113155 -19.13684273 0.25098039 0.27450980 0.65882353
v -0.02881488 -0.08188500 -19.13948631 0.25098039 0.27450980 0.65882353
v -0.02245830 -0.06125521 -19.13473701 0.25098039 0.27450980 0.65882353
v -0.02308780 -0.06835535 -19.13888168 0.25098039 0.27450980 0.65882353
v -0.02555119 -0.07315728 -19.14171982 0.25098039 0.27450980 0.65882353
v -0.02740797 -0.07729712 -19.14241028 0.25098039 0.27450980 0.65882353
v -0.02672660 -0.06813966 -19.14085770 0.25098039 0.27450980 0.65882353
v -0.02833211 -0.07232426 -19.14232254 0.25098039 0.27450980 0.65882353
v -0.03035419 -0.07579306 -19.14269447 0.25098039 0.27450980 0.65882353
v -0.03105198 -0.06840302 -19.14126778 0.25098039 0.27450980 0.65882353
v -0.03155462 -0.07228771 -19.14207649 0.25098039 0.27450980 0.65882353
v -0.02995241 -0.05861699 -19.13656616 0.25098039 0.27450980 0.65882353
v -0.02575994 -0.05815343 -19.13623047 0.25098039 0.27450980 0.65882353
v -0.03219393 -0.07466625 -19.14275932 0.25098039 0.27450980 0.65882353
v -0.03060924 -0.08117814 -19.14052391 0.25098039 0.27450980 0.65882353
v -0.03293847 -0.07324272 -19.12857628 0.25098039 0.27450980 0.65882353
v -0.03320530 -0.07839048 -19.13357353 0.25098039 0.27450980 0.65882353
v -0.03515141 -0.07250525 -19.12936783 0.25098039 0.27450980 0.65882353
v -0.03547601 -0.07783987 -19.13390732 0.25098039 0.27450980 0.65882353
v -0.03246295 -0.08196925 -19.13622665 0.25098039 0.27450980 0.65882353
v -0.03015609 -0.08127344 -19.13545036 0.25098039 0.27450980 0.65882353
v -0.03085738 -0.05587943 -19.13529968 0.25098039 0.27450980 0.65882353
v -0.03618418 -0.05742032 -19.13294411 0.25098039 0.27450980 0.65882353
v -0.03568031 -0.05976115 -19.13407898 0.25098039 0.27450980 0.65882353
v -0.03548384 -0.06906170 -19.13929176 0.25098039 0.27450980 0.65882353
v -0.03815781 -0.06217353 -19.13124847 0.25098039 0.27450980 0.65882353
v -0.03718098 -0.06664678 -19.12781143 0.25098039 0.27450980 0.65882353
v -0.03701903 -0.07218879 -19.13181496 0.25098039 0.27450980 0.65882353
v -0.03778537 -0.07089506 -19.13499451 0.25098039 0.27450980 0.65882353
v -0.03672792 -0.07622111 -19.13547516 0.25098039 0.27450980 0.65882353
v -0.03667215 -0.07463412 -19.13749504 0.25098039 0.27450980 0.65882353
v -0.03488950 -0.07312581 -19.14066315 0.25098039 0.27450980 0.65882353
v -0.03541310 -0.07859059 -19.13855171 0.25098039 0.27450980 0.65882353
v -0.03411455 -0.08082919 -19.13714027 0.25098039 0.27450980 0.65882353
v -0.03269890 -0.07863440 -19.14124870 0.25098039 0.27450980 0.65882353
v -0.03588447 -0.07682721 -19.13915253 0.25098039 0.27450980 0.65882353
v -0.03366934 -0.07619290 -19.14115906 0.25098039 0.27450980 0.65882353
v -0.04877210 -0.04975836 -19.12166595 0.25098039 0.27450980 0.65882353
v -0.05474533 -0.05226117 -19.12150192 0.25098039 0.27450980 0.65882353
v -0.05579454 -0.04808421 -19.12080574 0.25098039 0.27450980 0.65882353
v -0.05071534 -0.04618399 -19.12134361 0.25098039 0.27450980 0.65882353
v -0.04332009 -0.04913021 -19.10871506 0.25098039 0.27450980 0.65882353
v -0.04297765 -0.04871791 -19.11499977 0.25098039 0.27450980 0.65882353
v -0.04408571 -0.04379626 -19.11400032 0.25098039 0.27450980 0.65882353
v -0.04544930 -0.04370243 -19.10705757 0.25098039 0.27450980 0.65882353
v -0.04885076 -0.05046622 -19.10390663 0.25098039 0.27450980 0.65882353
v -0.05109198 -0.04484295 -19.10263062 0.25098039 0.27450980 0.65882353
v -0.04748459 -0.03771632 -19.10800171 0.25098039 0.27450980 0.65882353
v -0.04641354 -0.03838286 -19.11512184 0.25098039 0.27450980 0.65882353
v -0.05540161 -0.02098822 -19.12332726 0.25098039 0.27450980 0.65882353
v -0.05659503 -0.01895174 -19.11670494 0.25098039 0.27450980 0.65882353
v -0.07034823 -0.03032927 -19.12674332 0.25098039 0.27450980 0.65882353
v -0.07141712 -0.03055894 -19.12291145 0.25098039 0.27450980 0.65882353
v -0.04555622 -0.04895514 -19.11941719 0.25098039 0.27450980 0.65882353
v -0.04686695 -0.04470652 -19.11870766 0.25098039 0.27450980 0.65882353
v -0.06456228 -0.04674130 -19.11597252 0.25098039 0.27450980 0.65882353
v -0.06171463 -0.04648081 -19.12068748 0.25098039 0.27450980 0.65882353
v -0.05997917 -0.04991030 -19.11928177 0.25098039 0.27450980 0.65882353
v -0.06246541 -0.05084607 -19.11431313 0.25098039 0.27450980 0.65882353
v -0.05954470 -0.02489611 -19.12970161 0.25098039 0.27450980 0.65882353
v -0.06538683 -0.02734433 -19.12868690 0.25098039 0.27450980 0.65882353
v -0.05682974 -0.02326309 -19.12747574 0.25098039 0.27450980 0.65882353
v -0.06452307 -0.04559864 -19.10934448 0.25098039 0.27450980 0.65882353
v -0.06106724 -0.04286234 -19.10399818 0.25098039 0.27450980 0.65882353
v -0.06875159 -0.02454445 -19.11068726 0.25098039 0.27450980 0.65882353
v -0.07168801 -0.02882529 -19.11444473 0.25098039 0.27450980 0.65882353
v -0.04816432 -0.04020305 -19.12009811 0.25098039 0.27450980 0.65882353
v -0.05669659 -0.04512503 -19.12298775 0.25098039 0.27450980 0.65882353
v -0.05200070 -0.04271862 -19.12334251 0.25098039 0.27450980 0.65882353
v -0.05384633 -0.03879574 -19.10414886 0.25098039 0.27450980 0.65882353
v -0.05835977 -0.04916907 -19.10341644 0.25098039 0.27450980 0.65882353
v -0.05566567 -0.06790933 -19.11233330 0.25098039 0.27450980 0.65882353
v -0.05987127 -0.05678562 -19.10954666 0.25098039 0.27450980 0.65882353
v -0.06066117 -0.05617348 -19.11475372 0.25098039 0.27450980 0.65882353
v -0.05759495 -0.06778274 -19.11718941 0.25098039 0.27450980 0.65882353
v -0.06205527 -0.05116310 -19.10863113 0.25098039 0.27450980 0.65882353
v -0.05596033 -0.05481228 -19.10517311 0.25098039 0.27450980 0.65882353
v -0.04703408 -0.06310420 -19.12585258 0.25098039 0.27450980 0.65882353
v -0.05317312 -0.06519929 -19.12525177 0.25098039 0.27450980 0.65882353
v -0.04282536 -0.06256594 -19.12378311 0.25098039 0.27450980 0.65882353
v -0.06224990 -0.01992082 -19.11179543 0.25098039 0.27450980 0.65882353
v -0.04068555 -0.06211084 -19.11352158 0.25098039 0.27450980 0.65882353
v -0.04060912 -0.06198021 -19.12013435 0.25098039 0.27450980 0.65882353
v -0.05914320 -0.05426843 -19.11942673 0.25098039 0.27450980 0.65882353
v -0.05690816 -0.06694667 -19.12219429 0.25098039 0.27450980 0.65882353
v -0.05220091 -0.06685086 -19.10935593 0.25098039 0.27450980 0.65882353
v -0.04566248 -0.06284632 -19.10865974 0.25098039 0.27450980 0.65882353
v -0.05057305 -0.07217872 -19.11193275 0.25098039 0.27450980 0.65882353
v -0.04436886 -0.06964131 -19.11208153 0.25098039 0.27450980 0.65882353
v -0.03963189 -0.06798434 -19.11689568 0.25098039 0.27450980 0.65882353
v -0.04020223 -0.06599839 -19.12248802 0.25098039 0.27450980 0.65882353
v -0.04287365 -0.06516105 -19.12524986 0.25098039 0.27450980 0.65882353
v -0.05427274 -0.07276934 -19.11460686 0.25098039 0.27450980 0.65882353
v -0.05645624 -0.07164739 -19.11885262 0.25098039 0.27450980 0.65882353
v -0.05585068 -0.06863135 -19.12310028 0.25098039 0.27450980 0.65882353
v -0.05453353 -0.07672173 -19.12025452 0.25098039 0.27450980 0.65882353
v -0.05049379 -0.07844143 -19.11819458 0.25098039 0.27450980 0.65882353
v -0.04074645 -0.07912508 -19.13515282 0.25098039 0.27450980 0.65882353
v -0.04002821 -0.07627052 -19.12973785 0.25098039 0.27450980 0.65882353
v -0.04109466 -0.07842977 -19.12858200 0.25098039 0.27450980 0.65882353
v -0.04179104 -0.08113468 -19.13343811 0.25098039 0.27450980 0.65882353
v -0.03948590 -0.07488462 -19.12337875 0.25098039 0.27450980 0.65882353
v -0.04092544 -0.07703827 -19.12388420 0.25098039 0.27450980 0.65882353
v -0.04439454 -0.07827143 -19.12071800 0.25098039 0.27450980 0.65882353
v -0.04500248 -0.08068702 -19.12672424 0.25098039 0.27450980 0.65882353
v -0.04970303 -0.08123173 -19.12528610 0.25098039 0.27450980 0.65882353
v -0.04992034 -0.08438535 -19.13018608 0.25098039 0.27450980 0.65882353
v -0.04533717 -0.08420344 -19.13169479 0.25098039 0.27450980 0.65882353
v -0.04814444 -0.07968499 -19.12117958 0.25098039 0.27450980 0.65882353
v -0.04293254 -0.08337301 -19.13612747 0.25098039 0.27450980 0.65882353
v -0.04340973 -0.08279681 -19.13864136 0.25098039 0.27450980 0.65882353
v -0.04358286 -0.07687052 -19.11742783 0.25098039 0.27450980 0.65882353
v -0.03968126 -0.06906696 -19.12477303 0.25098039 0.27450980 0.65882353
v -0.04051182 -0.07404749 -19.13199997 0.25098039 0.27450980 0.65882353
v -0.04223320 -0.07733126 -19.13752747 0.25098039 0.27450980 0.65882353
v -0.04582375 -0.08169161 -19.14018440 0.25098039 0.27450980 0.65882353
v -0.04365833 -0.07238625 -19.13451385 0.25098039 0.27450980 0.65882353
v -0.04509160 -0.07623465 -19.13875961 0.25098039 0.27450980 0.65882353
v -0.04803883 -0.08006950 -19.14022255 0.25098039 0.27450980 0.65882353
v -0.04829757 -0.07149136 -19.13572502 0.25098039 0.27450980 0.65882353
v -0.04936504 -0.07584645 -19.13911057 0.25098039 0.27450980 0.65882353
v -0.04734868 -0.06549205 -19.12783051 0.25098039 0.27450980 0.65882353
v -0.04270557 -0.06623657 -19.12714195 0.25098039 0.27450980 0.65882353
v -0.04963581 -0.07829687 -19.13976479 0.25098039 0.27450980 0.65882353
v -0.04676272 -0.08610620 -19.13753891 0.25098039 0.27450980 0.65882353
v -0.04891069 -0.08445568 -19.13950157 0.25098039 0.27450980 0.65882353
v -0.04605332 -0.08581704 -19.13579178 0.25098039 0.27450980 0.65882353
v -0.05187780 -0.08100133 -19.12501335 0.25098039 0.27450980 0.65882353
v -0.05190080 -0.08390038 -19.13103294 0.25098039 0.27450980 0.65882353
v -0.05439122 -0.08008814 -19.12636375 0.25098039 0.27450980 0.65882353
v -0.05379894 -0.08342943 -19.13254929 0.25098039 0.27450980 0.65882353
v -0.05086365 -0.08620954 -19.13514900 0.25098039 0.27450980 0.65882353
v -0.04935548 -0.08636223 -19.13441849 0.25098039 0.27450980 0.65882353
v -0.04712135 -0.06510895 -19.12624741 0.25098039 0.27450980 0.65882353
v -0.05269967 -0.06654936 -19.12536621 0.25098039 0.27450980 0.65882353
v -0.05295433 -0.06649525 -19.12662697 0.25098039 0.27450980 0.65882353
v -0.05339819 -0.07292859 -19.13412857 0.25098039 0.27450980 0.65882353
v -0.05627105 -0.06917576 -19.12420464 0.25098039 0.27450980 0.65882353
v -0.05637780 -0.07405624 -19.12229156 0.25098039 0.27450980 0.65882353
v -0.05602525 -0.07817268 -19.12784195 0.25098039 0.27450980 0.65882353
v -0.05610423 -0.07568088 -19.13113213 0.25098039 0.27450980 0.65882353
v -0.05550179 -0.08231537 -19.13332939 0.25098039 0.27450980 0.65882353
v -0.05568656 -0.07915555 -19.13418770 0.25098039 0.27450980 0.65882353
v -0.05319791 -0.07654957 -19.13752174 0.25098039 0.27450980 0.65882353
v -0.05370581 -0.08421458 -19.13720703 0.25098039 0.27450980 0.65882353
v -0.05215032 -0.08569981 -19.13625526 0.25098039 0.27450980 0.65882353
v -0.05025928 -0.08270903 -19.13973618 0.25098039 0.27450980 0.65882353
v -0.05448104 -0.08137073 -19.13714409 0.25098039 0.27450980 0.65882353
v -0.05180508 -0.07994525 -19.13931847 0.25098039 0.27450980 0.65882353
v -0.07087065 -0.05254247 -19.11846542 0.25098039 0.27450980 0.65882353
v -0.07593364 -0.05368998 -19.12160683 0.25098039 0.27450980 0.65882353
v -0.07669374 -0.05101934 -19.12158775 0.25098039 0.27450980 0.65882353
v -0.07177827 -0.04957688 -19.11878586 0.25098039 0.27450980 0.65882353
v -0.07320242 -0.05366018 -19.10609436 0.25098039 0.27450980 0.65882353
v -0.06966427 -0.05351344 -19.10958290 0.25098039 0.27450980 0.65882353
v -0.07055795 -0.04893554 -19.10913849 0.25098039 0.27450980 0.65882353
v -0.07429489 -0.04767754 -19.10520935 0.25098039 0.27450980 0.65882353
v -0.07844803 -0.05626807 -19.10577774 0.25098039 0.27450980 0.65882353
v -0.08075900 -0.04879643 -19.10405540 0.25098039 0.27450980 0.65882353
v -0.07569942 -0.04176256 -19.10559082 0.25098039 0.27450980 0.65882353
v -0.07164289 -0.04413052 -19.10975266 0.25098039 0.27450980 0.65882353
v -0.07612909 -0.02989880 -19.11585045 0.25098039 0.27450980 0.65882353
v -0.08029555 -0.02841011 -19.11087227 0.25098039 0.27450980 0.65882353
v -0.06931087 -0.05284442 -19.11406708 0.25098039 0.27450980 0.65882353
v -0.07005517 -0.04933802 -19.11431122 0.25098039 0.27450980 0.65882353
v -0.08643106 -0.05039148 -19.12055397 0.25098039 0.27450980 0.65882353
v -0.08251034 -0.04993152 -19.12269783 0.25098039 0.27450980 0.65882353
v -0.08181638 -0.05280764 -19.12166595 0.25098039 0.27450980 0.65882353
v -0.08526259 -0.05346732 -19.11949158 0.25098039 0.27450980 0.65882353
v -0.07778934 -0.03183714 -19.12648582 0.25098039 0.27450980 0.65882353
v -0.08373371 -0.03266077 -19.12804413 0.25098039 0.27450980 0.65882353
v -0.07546088 -0.03161048 -19.12171173 0.25098039 0.27450980 0.65882353
v -0.08905386 -0.04957540 -19.11472321 0.25098039 0.27450980 0.65882353
v -0.08826382 -0.04615686 -19.10799599 0.25098039 0.27450980 0.65882353
v -0.09324189 -0.03297399 -19.11446762 0.25098039 0.27450980 0.65882353
v -0.09374340 -0.03496600 -19.12030792 0.25098039 0.27450980 0.65882353
v -0.07086425 -0.04559072 -19.11486816 0.25098039 0.27450980 0.65882353
v -0.07721099 -0.04819427 -19.12302780 0.25098039 0.27450980 0.65882353
v -0.07244134 -0.04679633 -19.12005997 0.25098039 0.27450980 0.65882353
v -0.08210984 -0.04252313 -19.10525513 0.25098039 0.27450980 0.65882353
v -0.08622421 -0.05222587 -19.10792351 0.25098039 0.27450980 0.65882353
v -0.08209226 -0.07238069 -19.11578369 0.25098039 0.27450980 0.65882353
v -0.08671317 -0.05748115 -19.11382866 0.25098039 0.27450980 0.65882353
v -0.08468172 -0.05627975 -19.11934662 0.25098039 0.27450980 0.65882353
v -0.08200312 -0.07110119 -19.12001419 0.25098039 0.27450980 0.65882353
v -0.08780394 -0.05401259 -19.11421204 0.25098039 0.27450980 0.65882353
v -0.08448651 -0.05712723 -19.10842705 0.25098039 0.27450980 0.65882353
v -0.06837106 -0.06668904 -19.12219429 0.25098039 0.27450980 0.65882353
v -0.07382399 -0.06723426 -19.12408638 0.25098039 0.27450980 0.65882353
v -0.06650136 -0.06641944 -19.11816216 0.25098039 0.27450980 0.65882353
v -0.08735560 -0.02923936 -19.10982513 0.25098039 0.27450980 0.65882353
v -0.09091739 -0.03510397 -19.12634277 0.25098039 0.27450980 0.65882353
v -0.06803316 -0.06924507 -19.11137581 0.25098039 0.27450980 0.65882353
v -0.06614092 -0.06751981 -19.11490631 0.25098039 0.27450980 0.65882353
v -0.08111545 -0.05506249 -19.12158775 0.25098039 0.27450980 0.65882353
v -0.07928093 -0.06916043 -19.12333107 0.25098039 0.27450980 0.65882353
v -0.07955588 -0.07185985 -19.11156845 0.25098039 0.27450980 0.65882353
v -0.07375173 -0.06990348 -19.10920143 0.25098039 0.27450980 0.65882353
v -0.07860515 -0.07731201 -19.11481285 0.25098039 0.27450980 0.65882353
v -0.07257859 -0.07625894 -19.11277008 0.25098039 0.27450980 0.65882353
v -0.06689453 -0.07529730 -19.11457634 0.25098039 0.27450980 0.65882353
v -0.06517699 -0.07231259 -19.11776924 0.25098039 0.27450980 0.65882353
v -0.06564879 -0.07037356 -19.12057304 0.25098039 0.27450980 0.65882353
v -0.08108109 -0.07606727 -19.11914825 0.25098039 0.27450980 0.65882353
v -0.08060867 -0.07360284 -19.12235260 0.25098039 0.27450980 0.65882353
v -0.07820551 -0.07003613 -19.12337112 0.25098039 0.27450980 0.65882353
v -0.08071411 -0.07730781 -19.12330437 0.25098039 0.27450980 0.65882353
v -0.07749754 -0.08132192 -19.12079811 0.25098039 0.27450980 0.65882353
v -0.06521465 -0.08388028 -19.13261414 0.25098039 0.27450980 0.65882353
v -0.06564042 -0.08143173 -19.12729073 0.25098039 0.27450980 0.65882353
v -0.06665519 -0.08212931 -19.12712479 0.25098039 0.27450980 0.65882353
v -0.06632565 -0.08504823 -19.13215828 0.25098039 0.27450980 0.65882353
v -0.06696193 -0.08029667 -19.12057686 0.25098039 0.27450980 0.65882353
v -0.06789014 -0.08146265 -19.12209320 0.25098039 0.27450980 0.65882353
v -0.07171378 -0.08214718 -19.12089539 0.25098039 0.27450980 0.65882353
v -0.07137737 -0.08443134 -19.12714195 0.25098039 0.27450980 0.65882353
v -0.07703528 -0.08246031 -19.12804222 0.25098039 0.27450980 0.65882353
v -0.07559249 -0.08445798 -19.13259506 0.25098039 0.27450980 0.65882353
v -0.07065888 -0.08688116 -19.13197899 0.25098039 0.27450980 0.65882353
v -0.07618150 -0.08185834 -19.12247086 0.25098039 0.27450980 0.65882353
v -0.06708401 -0.08655788 -19.13488770 0.25098039 0.27450980 0.65882353
v -0.06526522 -0.08669680 -19.13586426 0.25098039 0.27450980 0.65882353
v -0.07179300 -0.08146241 -19.11819077 0.25098039 0.27450980 0.65882353
v -0.06398216 -0.07626958 -19.12147141 0.25098039 0.27450980 0.65882353
v -0.06385064 -0.07932597 -19.12842751 0.25098039 0.27450980 0.65882353
v -0.06318104 -0.08160573 -19.13393211 0.25098039 0.27450980 0.65882353
v -0.06501214 -0.08343691 -19.13760948 0.25098039 0.27450980 0.65882353
v -0.06462798 -0.07626852 -19.13049889 0.25098039 0.27450980 0.65882353
v -0.06442626 -0.07893692 -19.13506317 0.25098039 0.27450980 0.65882353
v -0.06599656 -0.08072774 -19.13836479 0.25098039 0.27450980 0.65882353
v -0.06678702 -0.07427692 -19.13211441 0.25098039 0.27450980 0.65882353
v -0.06687891 -0.07695358 -19.13590431 0.25098039 0.27450980 0.65882353
v -0.06755371 -0.06988733 -19.12426949 0.25098039 0.27450980 0.65882353
v -0.06486832 -0.07256597 -19.12291718 0.25098039 0.27450980 0.65882353
v -0.06749380 -0.07896927 -19.13809395 0.25098039 0.27450980 0.65882353
v -0.06982039 -0.08783460 -19.13714981 0.25098039 0.27450980 0.65882353
v -0.07027867 -0.08449793 -19.13967705 0.25098039 0.27450980 0.65882353
v -0.07009873 -0.08718893 -19.13547897 0.25098039 0.27450980 0.65882353
v -0.07858358 -0.08139931 -19.12809372 0.25098039 0.27450980 0.65882353
v -0.07736641 -0.08397965 -19.13404465 0.25098039 0.27450980 0.65882353
v -0.07966253 -0.07905498 -19.12955856 0.25098039 0.27450980 0.65882353
v -0.07838559 -0.08171913 -19.13526917 0.25098039 0.27450980 0.65882353
v -0.07484101 -0.08622485 -19.13667107 0.25098039 0.27450980 0.65882353
v -0.07414128 -0.08625455 -19.13572884 0.25098039 0.27450980 0.65882353
v -0.06868313 -0.06880097 -19.12271309 0.25098039 0.27450980 0.65882353
v -0.07363378 -0.06853805 -19.12405205 0.25098039 0.27450980 0.65882353
v -0.07226875 -0.06870380 -19.12528419 0.25098039 0.27450980 0.65882353
v -0.07124892 -0.07297949 -19.13368797 0.25098039 0.27450980 0.65882353
v -0.07704386 -0.06976524 -19.12507248 0.25098039 0.27450980 0.65882353
v -0.07985383 -0.07448031 -19.12607384 0.25098039 0.27450980 0.65882353
v -0.07861356 -0.07637049 -19.13147354 0.25098039 0.27450980 0.65882353
v -0.07582809 -0.07430719 -19.13337898 0.25098039 0.27450980 0.65882353
v -0.07762645 -0.07911320 -19.13634300 0.25098039 0.27450980 0.65882353
v -0.07555252 -0.07704832 -19.13617897 0.25098039 0.27450980 0.65882353
v -0.07077459 -0.07569875 -19.13718605 0.25098039 0.27450980 0.65882353
v -0.07470851 -0.08122072 -19.13850975 0.25098039 0.27450980 0.65882353
v -0.07542668 -0.08403257 -19.13813972 0.25098039 0.27450980 0.65882353
v -0.07025316 -0.08140036 -19.13992310 0.25098039 0.27450980 0.65882353
v -0.07384163 -0.07893467 -19.13845062 0.25098039 0.27450980 0.65882353
v -0.07040007 -0.07903233 -19.13939667 0.25098039 0.27450980 0.65882353
v -0.08806331 -0.03404026 -19.12822723 0.25098039 0.27450980 0.65882353
v -0.09976351 -0.05735916 -19.13075829 0.25098039 0.27450980 0.65882353
v -0.10272802 -0.05797372 -19.13356209 0.25098039 0.27450980 0.65882353
v -0.10432541 -0.05442127 -19.13418579 0.25098039 0.27450980 0.65882353
v -0.10090254 -0.05301326 -19.13220978 0.25098039 0.27450980 0.65882353
v -0.10398214 -0.05586078 -19.12067223 0.25098039 0.27450980 0.65882353
v -0.10036517 -0.05647564 -19.12332344 0.25098039 0.27450980 0.65882353
v -0.10069157 -0.05135354 -19.12380409 0.25098039 0.27450980 0.65882353
v -0.10409310 -0.05072402 -19.12092590 0.25098039 0.27450980 0.65882353
v -0.10881031 -0.05657299 -19.12086678 0.25098039 0.27450980 0.65882353
v -0.10927411 -0.05158008 -19.12123299 0.25098039 0.27450980 0.65882353
v -0.10438491 -0.04684677 -19.12112617 0.25098039 0.27450980 0.65882353
v -0.10094284 -0.04730391 -19.12439728 0.25098039 0.27450980 0.65882353
v -0.10210565 -0.03242101 -19.12788391 0.25098039 0.27450980 0.65882353
v -0.10656156 -0.03023141 -19.12519073 0.25098039 0.27450980 0.65882353
v -0.11786768 -0.03375597 -19.14026451 0.25098039 0.27450980 0.65882353
v -0.11301047 -0.03302886 -19.14399147 0.25098039 0.27450980 0.65882353
v -0.11226767 -0.04063014 -19.13984489 0.25098039 0.27450980 0.65882353
v -0.11665358 -0.03957681 -19.13719177 0.25098039 0.27450980 0.65882353
v -0.09909584 -0.05694821 -19.12700081 0.25098039 0.27450980 0.65882353
v -0.09921932 -0.05220881 -19.12834358 0.25098039 0.27450980 0.65882353
v -0.11455340 -0.05154919 -19.13385010 0.25098039 0.27450980 0.65882353
v -0.11018826 -0.05195509 -19.13598442 0.25098039 0.27450980 0.65882353
v -0.10835468 -0.05485169 -19.13541412 0.25098039 0.27450980 0.65882353
v -0.11285231 -0.05537094 -19.13403893 0.25098039 0.27450980 0.65882353
v -0.10728289 -0.03334305 -19.14317703 0.25098039 0.27450980 0.65882353
v -0.10307849 -0.03291997 -19.14001274 0.25098039 0.27450980 0.65882353
v -0.10254081 -0.03715592 -19.13908958 0.25098039 0.27450980 0.65882353
v -0.10707659 -0.04080020 -19.13981628 0.25098039 0.27450980 0.65882353
v -0.09976268 -0.03603504 -19.13409996 0.25098039 0.27450980 0.65882353
v -0.11629847 -0.05090695 -19.13001823 0.25098039 0.27450980 0.65882353
v -0.11511070 -0.04934077 -19.12447548 0.25098039 0.27450980 0.65882353
v -0.11925910 -0.03429957 -19.12872124 0.25098039 0.27450980 0.65882353
v -0.11914803 -0.03641821 -19.13327789 0.25098039 0.27450980 0.65882353
v -0.09956756 -0.04901458 -19.12845421 0.25098039 0.27450980 0.65882353
v -0.10553661 -0.05164266 -19.13546753 0.25098039 0.27450980 0.65882353
v -0.10169034 -0.05078309 -19.13295364 0.25098039 0.27450980 0.65882353
v -0.11003929 -0.04756645 -19.12085724 0.25098039 0.27450980 0.65882353
v -0.11401562 -0.05339870 -19.12479782 0.25098039 0.27450980 0.65882353
v -0.11197453 -0.06882204 -19.13051033 0.25098039 0.27450980 0.65882353
v -0.11423399 -0.05876653 -19.13055992 0.25098039 0.27450980 0.65882353
v -0.11112914 -0.05927232 -19.13435364 0.25098039 0.27450980 0.65882353
v -0.11004225 -0.06885462 -19.13274002 0.25098039 0.27450980 0.65882353
v -0.11516850 -0.05465905 -19.13008118 0.25098039 0.27450980 0.65882353
v -0.11337107 -0.05819272 -19.12489128 0.25098039 0.27450980 0.65882353
v -0.09836775 -0.06719610 -19.12962151 0.25098039 0.27450980 0.65882353
v -0.10247944 -0.06740332 -19.13301659 0.25098039 0.27450980 0.65882353
v -0.09787117 -0.06685263 -19.12644768 0.25098039 0.27450980 0.65882353
v -0.11326234 -0.03077242 -19.12459946 0.25098039 0.27450980 0.65882353
v -0.10272828 -0.06686646 -19.12084579 0.25098039 0.27450980 0.65882353
v -0.09897549 -0.06721589 -19.12313271 0.25098039 0.27450980 0.65882353
v -0.10659264 -0.05873245 -19.13484764 0.25098039 0.27450980 0.65882353
v -0.10667600 -0.06809328 -19.13375092 0.25098039 0.27450980 0.65882353
v -0.11200406 -0.06835240 -19.12627029 0.25098039 0.27450980 0.65882353
v -0.10830679 -0.06697303 -19.12139511 0.25098039 0.27450980 0.65882353
v -0.11055002 -0.07373972 -19.12678719 0.25098039 0.27450980 0.65882353
v -0.10695185 -0.07190172 -19.12179947 0.25098039 0.27450980 0.65882353
v -0.10096255 -0.07154284 -19.12145424 0.25098039 0.27450980 0.65882353
v -0.09821457 -0.07026395 -19.12375641 0.25098039 0.27450980 0.65882353
v -0.09709531 -0.06968372 -19.12666702 0.25098039 0.27450980 0.65882353
v -0.11059211 -0.07352380 -19.13127899 0.25098039 0.27450980 0.65882353
v -0.10868342 -0.07272415 -19.13357544 0.25098039 0.27450980 0.65882353
v -0.10557005 -0.07093631 -19.13452911 0.25098039 0.27450980 0.65882353
v -0.10877892 -0.07765396 -19.13203430 0.25098039 0.27450980 0.65882353
v -0.10766564 -0.07938528 -19.12766266 0.25098039 0.27450980 0.65882353
v -0.09488101 -0.08387810 -19.12814713 0.25098039 0.27450980 0.65882353
v -0.09617084 -0.08028133 -19.12645149 0.25098039 0.27450980 0.65882353
v -0.09722997 -0.08086979 -19.12609673 0.25098039 0.27450980 0.65882353
v -0.09542124 -0.08447172 -19.12730598 0.25098039 0.27450980 0.65882353
v -0.09919412 -0.07665130 -19.12364006 0.25098039 0.27450980 0.65882353
v -0.09987407 -0.07813661 -19.12412262 0.25098039 0.27450980 0.65882353
v -0.10349668 -0.07809457 -19.12431335 0.25098039 0.27450980 0.65882353
v -0.10112739 -0.08262391 -19.12611008 0.25098039 0.27450980 0.65882353
v -0.10490747 -0.08395052 -19.12972450 0.25098039 0.27450980 0.65882353
v -0.10260994 -0.08736843 -19.13067436 0.25098039 0.27450980 0.65882353
v -0.09963496 -0.08607452 -19.12718773 0.25098039 0.27450980 0.65882353
v -0.10611322 -0.08047166 -19.12684250 0.25098039 0.27450980 0.65882353
v -0.09534255 -0.08717974 -19.12793541 0.25098039 0.27450980 0.65882353
v -0.09423109 -0.08773459 -19.12857246 0.25098039 0.27450980 0.65882353
v -0.10441594 -0.07680453 -19.12335396 0.25098039 0.27450980 0.65882353
v -0.09657894 -0.07377936 -19.12525177 0.25098039 0.27450980 0.65882353
v -0.09422323 -0.07972516 -19.12793159 0.25098039 0.27450980 0.65882353
v -0.09309689 -0.08443335 -19.12962723 0.25098039 0.27450980 0.65882353
v -0.09383175 -0.08798334 -19.13084030 0.25098039 0.27450980 0.65882353
v -0.09392338 -0.07812156 -19.12995911 0.25098039 0.27450980 0.65882353
v -0.09252837 -0.08367822 -19.13178444 0.25098039 0.27450980 0.65882353
v -0.09346370 -0.08706549 -19.13299561 0.25098039 0.27450980 0.65882353
v -0.09479114 -0.07704869 -19.13300705 0.25098039 0.27450980 0.65882353
v -0.09369212 -0.08261615 -19.13393021 0.25098039 0.27450980 0.65882353
v -0.09719162 -0.07106568 -19.13144302 0.25098039 0.27450980 0.65882353
v -0.09604540 -0.07218632 -19.12816238 0.25098039 0.27450980 0.65882353
v -0.09417571 -0.08573030 -19.13402367 0.25098039 0.27450980 0.65882353
v -0.09727378 -0.08992155 -19.12948990 0.25098039 0.27450980 0.65882353
v -0.09630401 -0.08966053 -19.13225365 0.25098039 0.27450980 0.65882353
v -0.09822115 -0.08921494 -19.12856102 0.25098039 0.27450980 0.65882353
v -0.10564059 -0.08372799 -19.13094711 0.25098039 0.27450980 0.65882353
v -0.10289168 -0.08780357 -19.13220787 0.25098039 0.27450980 0.65882353
v -0.10585231 -0.08291319 -19.13344383 0.25098039 0.27450980 0.65882353
v -0.10229041 -0.08734579 -19.13425827 0.25098039 0.27450980 0.65882353
v -0.10018340 -0.09007366 -19.13167953 0.25098039 0.27450980 0.65882353
v -0.10048544 -0.08909664 -19.13010216 0.25098039 0.27450980 0.65882353
v -0.09785323 -0.06957927 -19.13068199 0.25098039 0.27450980 0.65882353
v -0.10146997 -0.06971061 -19.13334084 0.25098039 0.27450980 0.65882353
v -0.10074842 -0.07158646 -19.13416481 0.25098039 0.27450980 0.65882353
v -0.09784032 -0.07729840 -19.13572311 0.25098039 0.27450980 0.65882353
v -0.10472968 -0.07314467 -19.13532448 0.25098039 0.27450980 0.65882353
v -0.10756730 -0.07560205 -19.13424683 0.25098039 0.27450980 0.65882353
v -0.10445966 -0.08144329 -19.13546181 0.25098039 0.27450980 0.65882353
v -0.10176866 -0.07951707 -19.13669014 0.25098039 0.27450980 0.65882353
v -0.10090955 -0.08646424 -19.13579559 0.25098039 0.27450980 0.65882353
v -0.09886489 -0.08435705 -19.13680267 0.25098039 0.27450980 0.65882353
v -0.09605373 -0.08274053 -19.13619995 0.25098039 0.27450980 0.65882353
v -0.09796017 -0.08849137 -19.13475227 0.25098039 0.27450980 0.65882353
v -0.09891026 -0.08969475 -19.13361740 0.25098039 0.27450980 0.65882353
v -0.09586645 -0.08842681 -19.13391495 0.25098039 0.27450980 0.65882353
v -0.09711136 -0.08693673 -19.13565254 0.25098039 0.27450980 0.65882353
v -0.09569068 -0.08637542 -19.13511086 0.25098039 0.27450980 0.65882353
v -0.11908959 -0.03369476 -19.13611412 0.25098039 0.27450980 0.65882353
v -0.03724833 -0.02201739 -19.18958282 0.25098039 0.27450980 0.65882353
v -0.04028942 -0.02327186 -19.18486214 0.25098039 0.27450980 0.65882353
v -0.05191135 -0.03340880 -19.19049835 0.25098039 0.27450980 0.65882353
v -0.04870707 -0.03093881 -19.18469048 0.25098039 0.27450980 0.65882353
v -0.05116397 -0.03396134 -19.19724655 0.25098039 0.27450980 0.65882353
v -0.04410577 -0.02866292 -19.20355797 0.25098039 0.27450980 0.65882353
v -0.04870179 -0.03118442 -19.20176315 0.25098039 0.27450980 0.65882353
v -0.04449402 -0.02715048 -19.18276215 0.25098039 0.27450980 0.65882353
v -0.03641067 -0.02188703 -19.19559860 0.25098039 0.27450980 0.65882353
v -0.03908210 -0.02434566 -19.20184517 0.25098039 0.27450980 0.65882353
v -0.03065041 -0.02842380 -19.19383049 0.25098039 0.27450980 0.65882353
v -0.03375323 -0.03155151 -19.20043564 0.25098039 0.27450980 0.65882353
v -0.03859423 -0.03614527 -19.20261765 0.25098039 0.27450980 0.65882353
v -0.04488218 -0.03807239 -19.20021820 0.25098039 0.27450980 0.65882353
v -0.04821986 -0.03931331 -19.19663048 0.25098039 0.27450980 0.65882353
v -0.03385596 -0.02760630 -19.18733978 0.25098039 0.27450980 0.65882353
v -0.03751503 -0.02866505 -19.18313408 0.25098039 0.27450980 0.65882353
v -0.04328397 -0.03175512 -19.18188667 0.25098039 0.27450980 0.65882353
v -0.03151654 -0.03423215 -19.18335724 0.25098039 0.27450980 0.65882353
v -0.02773067 -0.04325556 -19.18575287 0.25098039 0.27450980 0.65882353
v -0.03316531 -0.06106799 -19.19100761 0.25098039 0.27450980 0.65882353
v -0.03596610 -0.05542014 -19.19353676 0.25098039 0.27450980 0.65882353
v -0.03320935 -0.05477195 -19.19279671 0.25098039 0.27450980 0.65882353
v -0.03065529 -0.06002693 -19.19108582 0.25098039 0.27450980 0.65882353
v -0.03515695 -0.05020778 -19.19546127 0.25098039 0.27450980 0.65882353
v -0.03343053 -0.05065073 -19.19379044 0.25098039 0.27450980 0.65882353
v -0.03035568 -0.04700341 -19.19127655 0.25098039 0.27450980 0.65882353
v -0.02826856 -0.05196047 -19.18961906 0.25098039 0.27450980 0.65882353
v -0.02830303 -0.04583754 -19.18665695 0.25098039 0.27450980 0.65882353
v -0.02722500 -0.04896895 -19.18421173 0.25098039 0.27450980 0.65882353
v -0.02610807 -0.05671455 -19.18780708 0.25098039 0.27450980 0.65882353
v -0.02762702 -0.06208258 -19.18949509 0.25098039 0.27450980 0.65882353
v -0.02462034 -0.06082651 -19.18614006 0.25098039 0.27450980 0.65882353
v -0.02979103 -0.06400476 -19.18805122 0.25098039 0.27450980 0.65882353
v -0.02863921 -0.04583371 -19.19303703 0.25098039 0.27450980 0.65882353
v -0.04122078 -0.04702771 -19.19747353 0.25098039 0.27450980 0.65882353
v -0.03969119 -0.05477084 -19.19330215 0.25098039 0.27450980 0.65882353
v -0.03657299 -0.06102794 -19.18934441 0.25098039 0.27450980 0.65882353
v -0.03226726 -0.06413104 -19.18589783 0.25098039 0.27450980 0.65882353
v -0.04301123 -0.05386438 -19.19042969 0.25098039 0.27450980 0.65882353
v -0.03930038 -0.05902512 -19.18641090 0.25098039 0.27450980 0.65882353
v -0.03516376 -0.06130667 -19.18288231 0.25098039 0.27450980 0.65882353
v -0.04418068 -0.05190624 -19.18605804 0.25098039 0.27450980 0.65882353
v -0.03979613 -0.05666524 -19.18319130 0.25098039 0.27450980 0.65882353
v -0.04856075 -0.04084829 -19.18984604 0.25098039 0.27450980 0.65882353
v -0.04669197 -0.04415252 -19.19516563 0.25098039 0.27450980 0.65882353
v -0.03636467 -0.05892635 -19.18175888 0.25098039 0.27450980 0.65882353
v -0.02506088 -0.06283766 -19.18413734 0.25098039 0.27450980 0.65882353
v -0.02783921 -0.06282941 -19.18165970 0.25098039 0.27450980 0.65882353
v -0.02746361 -0.04677561 -19.18152046 0.25098039 0.27450980 0.65882353
v -0.02460654 -0.05332060 -19.18262100 0.25098039 0.27450980 0.65882353
v -0.02569681 -0.05244775 -19.17983246 0.25098039 0.27450980 0.65882353
v -0.02973144 -0.04445729 -19.17902565 0.25098039 0.27450980 0.65882353
v -0.02756554 -0.05186638 -19.17761230 0.25098039 0.27450980 0.65882353
v -0.02416174 -0.05790162 -19.18046188 0.25098039 0.27450980 0.65882353
v -0.02363309 -0.05729872 -19.18324852 0.25098039 0.27450980 0.65882353
v -0.05002604 -0.03770936 -19.19078445 0.25098039 0.27450980 0.65882353
v -0.04802731 -0.03445929 -19.18529129 0.25098039 0.27450980 0.65882353
v -0.04644267 -0.03726399 -19.18440247 0.25098039 0.27450980 0.65882353
v -0.04243934 -0.04789251 -19.18094444 0.25098039 0.27450980 0.65882353
v -0.04187424 -0.03526368 -19.18043709 0.25098039 0.27450980 0.65882353
v -0.03573805 -0.03406424 -19.18058586 0.25098039 0.27450980 0.65882353
v -0.03311428 -0.04413730 -19.17719841 0.25098039 0.27450980 0.65882353
v -0.03794171 -0.04506717 -19.17762566 0.25098039 0.27450980 0.65882353
v -0.03114931 -0.05193198 -19.17668724 0.25098039 0.27450980 0.65882353
v -0.03417893 -0.05231693 -19.17730904 0.25098039 0.27450980 0.65882353
v -0.03795451 -0.05460563 -19.17965889 0.25098039 0.27450980 0.65882353
v -0.03014380 -0.05701381 -19.17769432 0.25098039 0.27450980 0.65882353
v -0.02658989 -0.05755209 -19.17824554 0.25098039 0.27450980 0.65882353
v -0.03160827 -0.06053586 -19.17989922 0.25098039 0.27450980 0.65882353
v -0.03274333 -0.05585913 -19.17803001 0.25098039 0.27450980 0.65882353
v -0.03433831 -0.05799067 -19.17964363 0.25098039 0.27450980 0.65882353
v -0.11475278 -0.02982156 -19.14628029 0.25098039 0.27450980 0.65882353
v -0.10799816 -0.02961449 -19.14649391 0.25098039 0.27450980 0.65882353
v -0.11153121 -0.02699250 -19.15043640 0.25098039 0.27450980 0.65882353
v -0.11459215 -0.02353872 -19.15781403 0.25098039 0.27450980 0.65882353
v -0.12275122 -0.01898323 -19.16264343 0.25098039 0.27450980 0.65882353
v -0.10808177 -0.02123498 -19.15820503 0.25098039 0.27450980 0.65882353
v -0.10531009 -0.02518791 -19.15026474 0.25098039 0.27450980 0.65882353
v -0.10061465 -0.02884249 -19.14349365 0.25098039 0.27450980 0.65882353
v -0.10465376 -0.01418982 -19.16461945 0.25098039 0.27450980 0.65882353
f 2 3 1
f 1 3 4
f 5 6 8
f 8 6 7
f 9 4 10
f 10 4 3
f 12 13 11
f 11 13 9
f 14 12 16
f 16 12 15
f 18 19 17
f 17 19 20
f 22 23 21
f 21 23 24
f 26 27 25
f 25 27 28
f 30 31 29
f 29 31 32
f 33 34 36
f 36 34 35
f 37 38 40
f 40 38 39
f 41 42 6
f 6 42 43
f 6 43 7
f 7 43 44
f 45 34 46
f 46 34 33
f 48 49 47
f 47 49 50
f 52 53 51
f 51 53 54
f 56 52 55
f 55 52 51
f 58 59 57
f 57 59 60
f 61 62 4
f 4 62 1
f 64 65 63
f 63 65 66
f 68 69 67
f 67 69 70
f 72 73 71
f 71 73 74
f 76 77 75
f 75 77 78
f 53 79 54
f 54 79 80
f 82 83 81
f 81 83 84
f 85 86 52
f 52 86 53
f 57 60 87
f 87 60 88
f 89 90 43
f 43 90 44
f 43 42 89
f 89 42 91
f 40 39 92
f 92 39 93
f 94 70 64
f 64 70 69
f 13 61 9
f 9 61 4
f 25 28 69
f 69 28 95
f 96 25 68
f 68 25 69
f 98 99 97
f 97 99 100
f 101 102 104
f 104 102 103
f 106 30 105
f 105 30 29
f 51 54 107
f 107 54 108
f 54 80 108
f 108 80 109
f 111 112 110
f 110 112 113
f 115 5 114
f 114 5 116
f 115 41 5
f 5 41 6
f 36 35 111
f 111 35 117
f 35 118 117
f 117 118 119
f 34 120 35
f 35 120 118
f 34 45 120
f 120 45 121
f 125 126 124
f 124 126 127
f 128 129 14
f 14 129 130
f 33 131 46
f 46 131 132
f 133 94 63
f 63 94 64
f 134 135 137
f 137 135 136
f 139 140 138
f 138 140 141
f 77 142 78
f 78 142 143
f 144 145 20
f 20 145 146
f 148 149 147
f 147 149 72
f 151 152 150
f 150 152 153
f 82 101 83
f 83 101 104
f 101 82 155
f 155 82 154
f 156 157 58
f 58 157 59
f 158 68 147
f 147 68 67
f 159 146 15
f 15 146 16
f 68 158 96
f 96 158 160
f 129 66 130
f 130 66 65
f 162 163 161
f 161 163 164
f 166 167 165
f 165 167 168
f 170 171 169
f 169 171 172
f 174 171 173
f 173 171 170
f 176 177 175
f 175 177 178
f 180 181 179
f 179 181 24
f 182 183 21
f 21 183 184
f 81 185 82
f 82 185 154
f 186 187 188
f 188 187 144
f 158 71 160
f 160 71 189
f 190 135 157
f 157 135 59
f 169 172 139
f 139 172 140
f 147 72 158
f 158 72 71
f 192 193 191
f 191 193 194
f 167 166 49
f 49 166 195
f 196 190 50
f 50 190 157
f 197 198 200
f 200 198 199
f 21 24 182
f 182 24 181
f 146 159 20
f 20 159 17
f 182 181 81
f 81 181 185
f 201 185 180
f 180 185 181
f 202 203 83
f 83 203 84
f 205 206 204
f 204 206 85
f 207 22 184
f 184 22 21
f 179 24 208
f 208 24 23
f 208 209 179
f 179 209 205
f 209 210 205
f 205 210 206
f 212 206 211
f 211 206 210
f 179 205 180
f 180 205 204
f 213 176 88
f 88 176 214
f 86 85 212
f 212 85 206
f 193 217 218
f 217 219 218
f 218 219 220
f 219 18 220
f 220 18 17
f 19 221 20
f 20 221 144
f 222 223 225
f 225 223 224
f 175 226 176
f 176 226 214
f 227 87 214
f 214 87 88
f 220 17 228
f 228 17 159
f 134 213 60
f 60 213 88
f 138 229 151
f 151 229 152
f 193 192 210
f 210 192 211
f 230 194 218
f 218 194 193
f 231 232 228
f 228 232 230
f 233 234 91
f 91 234 89
f 235 236 93
f 93 236 92
f 230 232 234
f 234 232 237
f 47 238 48
f 48 238 239
f 240 191 235
f 235 191 236
f 5 8 116
f 116 8 241
f 242 243 189
f 189 243 160
f 244 245 98
f 98 245 99
f 156 246 47
f 47 246 238
f 76 247 77
f 77 247 248
f 250 125 249
f 249 125 124
f 252 253 251
f 251 253 254
f 111 110 36
f 36 110 255
f 256 33 255
f 255 33 36
f 257 258 154
f 154 258 155
f 63 169 133
f 133 169 139
f 66 170 63
f 63 170 169
f 173 170 129
f 129 170 66
f 129 128 173
f 173 128 259
f 128 260 259
f 259 260 261
f 213 134 262
f 262 134 137
f 263 264 186
f 186 264 187
f 112 265 113
f 113 265 266
f 11 267 268
f 234 233 230
f 230 233 194
f 153 269 70
f 70 269 67
f 175 178 165
f 165 178 141
f 150 153 94
f 94 153 70
f 271 221 270
f 270 221 207
f 269 153 272
f 272 153 152
f 121 45 109
f 109 45 108
f 47 50 156
f 156 50 157
f 57 273 58
f 58 273 274
f 145 275 260
f 260 275 261
f 276 149 143
f 143 149 78
f 148 269 75
f 75 269 272
f 207 277 270
f 270 277 278
f 195 196 49
f 49 196 50
f 59 135 60
f 60 135 134
f 83 104 202
f 202 104 279
f 149 148 78
f 78 148 75
f 247 278 248
f 248 278 277
f 183 182 84
f 84 182 81
f 48 239 281
f 281 239 282
f 227 223 283
f 283 223 222
f 223 226 224
f 224 226 168
f 281 282 224
f 224 282 225
f 165 168 175
f 175 168 226
f 264 263 138
f 138 263 229
f 14 16 128
f 128 16 260
f 220 228 218
f 218 228 230
f 87 227 284
f 284 227 283
f 260 16 145
f 145 16 146
f 244 98 258
f 258 98 155
f 58 274 156
f 156 274 246
f 107 285 51
f 51 285 55
f 243 286 160
f 160 286 96
f 234 237 89
f 89 237 90
f 46 132 107
f 107 132 285
f 253 252 249
f 249 252 250
f 286 26 96
f 96 26 25
f 106 105 287
f 287 105 288
f 272 152 289
f 289 152 229
f 138 151 139
f 139 151 133
f 183 290 161
f 161 290 162
f 291 292 277
f 277 292 293
f 151 150 133
f 133 150 94
f 262 275 177
f 177 275 187
f 144 187 145
f 145 187 275
f 273 57 284
f 284 57 87
f 174 136 190
f 190 136 135
f 111 117 112
f 112 117 38
f 117 119 38
f 38 119 123
f 112 38 265
f 265 38 37
f 287 288 254
f 254 288 251
f 228 159 231
f 231 159 15
f 223 227 226
f 226 227 214
f 147 67 148
f 148 67 269
f 224 168 281
f 281 168 167
f 199 163 200
f 200 163 162
f 45 46 108
f 108 46 107
f 281 167 48
f 48 167 49
f 161 164 291
f 291 164 292
f 38 123 39
f 293 294 277
f 277 294 248
f 284 283 296
f 296 283 295
f 284 296 273
f 273 296 297
f 274 273 298
f 298 273 297
f 246 274 299
f 299 274 298
f 283 222 295
f 295 222 300
f 222 225 300
f 300 225 301
f 301 225 302
f 302 225 282
f 303 304 300
f 300 304 295
f 306 307 305
f 305 307 308
f 309 310 308
f 308 310 305
f 308 307 312
f 312 307 311
f 313 314 312
f 312 314 315
f 311 316 312
f 312 316 313
f 317 304 311
f 311 304 316
f 315 309 312
f 312 309 308
f 318 319 321
f 321 319 320
f 319 318 309
f 309 318 310
f 311 307 317
f 317 307 306
f 306 297 317
f 317 297 296
f 306 322 297
f 297 322 298
f 305 323 306
f 306 323 322
f 323 305 324
f 324 305 310
f 304 317 295
f 295 317 296
f 318 325 310
f 310 325 324
f 323 324 326
f 326 324 327
f 324 325 327
f 327 325 328
f 326 327 329
f 329 327 330
f 329 331 326
f 326 331 332
f 333 330 328
f 328 330 327
f 323 326 322
f 322 326 332
f 322 332 298
f 298 332 299
f 325 318 334
f 334 318 321
f 313 316 335
f 335 316 304
f 335 336 313
f 313 336 314
f 304 303 335
f 335 303 337
f 336 335 338
f 338 335 337
f 336 339 314
f 314 339 340
f 246 299 238
f 238 299 341
f 239 342 282
f 282 342 302
f 342 239 341
f 341 239 238
f 341 331 342
f 342 331 343
f 331 329 343
f 343 329 344
f 342 343 302
f 302 343 345
f 341 299 331
f 331 299 332
f 346 301 345
f 345 301 302
f 346 303 301
f 301 303 300
f 347 337 346
f 346 337 303
f 347 346 348
f 348 346 345
f 349 347 350
f 350 347 348
f 343 344 345
f 345 344 348
f 344 351 348
f 348 351 350
f 337 347 338
f 338 347 349
f 353 338 352
f 352 338 349
f 352 355 354
f 354 355 356
f 352 349 355
f 355 349 350
f 352 354 353
f 353 354 334
f 353 334 339
f 339 334 321
f 339 336 353
f 353 336 338
f 329 330 344
f 344 330 351
f 356 351 333
f 333 351 330
f 356 355 351
f 351 355 350
f 354 356 328
f 328 356 333
f 328 325 354
f 354 325 334
f 309 315 319
f 319 315 320
f 320 340 321
f 321 340 339
f 320 315 340
f 340 315 314
f 137 136 261
f 261 136 259
f 140 166 141
f 141 166 165
f 172 171 195
f 195 171 196
f 171 174 196
f 196 174 190
f 178 177 264
f 264 177 187
f 172 195 140
f 140 195 166
f 137 261 262
f 262 261 275
f 178 264 141
f 141 264 138
f 262 177 213
f 213 177 176
f 136 174 259
f 259 174 173
f 358 359 357
f 357 359 360
f 362 363 361
f 361 363 364
f 361 364 365
f 365 364 366
f 367 368 370
f 370 368 369
f 76 371 247
f 247 371 372
f 373 374 362
f 362 374 363
f 376 377 375
f 375 377 378
f 289 229 380
f 380 229 379
f 381 379 263
f 263 379 229
f 383 384 382
f 382 384 385
f 386 368 374
f 374 368 363
f 76 289 371
f 371 289 380
f 377 376 359
f 359 376 387
f 388 386 360
f 360 386 374
f 389 383 366
f 366 383 390
f 392 393 391
f 391 393 394
f 383 382 390
f 390 382 395
f 396 365 390
f 390 365 366
f 389 366 367
f 367 366 364
f 357 397 358
f 358 397 398
f 373 399 357
f 357 399 397
f 389 367 400
f 400 367 370
f 382 385 375
f 375 385 372
f 357 360 373
f 373 360 374
f 361 401 362
f 362 401 402
f 387 388 359
f 359 388 360
f 363 368 364
f 364 368 367
f 358 398 403
f 403 398 404
f 396 392 405
f 405 392 391
f 392 395 393
f 393 395 378
f 393 403 394
f 394 403 404
f 375 378 382
f 382 378 395
f 365 396 406
f 406 396 405
f 362 402 373
f 373 402 399
f 271 270 400
f 400 270 384
f 401 361 406
f 406 361 365
f 381 369 386
f 386 369 368
f 392 396 395
f 395 396 390
f 393 378 403
f 403 378 377
f 403 377 358
f 358 377 359
f 406 405 408
f 408 405 407
f 406 408 401
f 401 408 409
f 401 409 402
f 402 409 410
f 402 410 399
f 399 410 411
f 405 391 407
f 407 391 412
f 391 394 412
f 412 394 413
f 394 404 413
f 413 404 414
f 415 416 412
f 412 416 407
f 418 419 417
f 417 419 420
f 421 422 418
f 418 422 419
f 419 422 424
f 424 422 423
f 425 426 424
f 424 426 427
f 423 428 424
f 424 428 425
f 427 420 424
f 424 420 419
f 420 429 417
f 417 429 430
f 423 422 431
f 431 422 421
f 421 409 431
f 431 409 408
f 421 432 409
f 409 432 410
f 418 433 421
f 421 433 432
f 434 433 417
f 417 433 418
f 431 416 423
f 423 416 428
f 416 431 407
f 407 431 408
f 435 434 430
f 430 434 417
f 433 434 436
f 436 434 437
f 434 435 437
f 437 435 438
f 436 437 439
f 439 437 440
f 439 441 436
f 436 441 442
f 438 443 437
f 437 443 440
f 436 442 433
f 433 442 432
f 432 442 410
f 410 442 411
f 435 430 445
f 445 430 444
f 430 429 444
f 444 429 446
f 425 428 447
f 447 428 416
f 426 425 448
f 448 425 447
f 416 415 447
f 447 415 449
f 447 449 448
f 448 449 450
f 451 452 448
f 448 452 426
f 446 452 444
f 444 452 451
f 399 411 397
f 397 411 453
f 398 454 404
f 404 454 414
f 454 398 453
f 453 398 397
f 453 441 454
f 454 441 455
f 441 439 455
f 455 439 456
f 454 455 414
f 414 455 457
f 441 453 442
f 442 453 411
f 458 413 457
f 457 413 414
f 458 415 413
f 413 415 412
f 458 459 415
f 415 459 449
f 459 458 460
f 460 458 457
f 461 459 462
f 462 459 460
f 455 456 457
f 457 456 460
f 456 463 460
f 460 463 462
f 459 461 449
f 449 461 450
f 465 450 464
f 464 450 461
f 464 467 466
f 466 467 468
f 464 461 467
f 467 461 462
f 464 466 465
f 465 466 445
f 465 445 451
f 451 445 444
f 451 448 465
f 465 448 450
f 439 440 456
f 456 440 463
f 468 463 443
f 443 463 440
f 468 467 463
f 463 467 462
f 466 468 438
f 438 468 443
f 438 435 466
f 466 435 445
f 420 427 429
f 429 427 446
f 446 427 452
f 452 427 426
f 370 369 188
f 188 369 186
f 371 376 372
f 372 376 375
f 380 379 387
f 387 379 388
f 379 381 388
f 388 381 386
f 385 384 278
f 278 384 270
f 380 387 371
f 371 387 376
f 400 370 271
f 271 370 188
f 385 278 372
f 372 278 247
f 400 384 389
f 389 384 383
f 369 381 186
f 186 381 263
f 221 271 144
f 144 271 188
f 221 19 207
f 207 19 22
f 19 18 22
f 22 18 23
f 18 219 23
f 23 219 208
f 469 470 472
f 472 470 471
f 474 475 473
f 473 475 476
f 473 476 477
f 477 476 478
f 480 481 479
f 479 481 482
f 483 484 474
f 474 484 475
f 486 487 485
f 485 487 488
f 489 490 77
f 77 490 142
f 491 489 248
f 248 489 77
f 493 494 492
f 492 494 495
f 496 480 484
f 484 480 475
f 486 497 487
f 487 497 471
f 498 496 472
f 472 496 484
f 499 493 478
f 478 493 500
f 501 502 504
f 504 502 503
f 493 492 500
f 500 492 505
f 506 477 500
f 500 477 478
f 499 478 479
f 479 478 476
f 469 507 470
f 470 507 508
f 483 509 469
f 469 509 507
f 479 482 499
f 499 482 510
f 492 495 485
f 485 495 511
f 483 469 484
f 484 469 472
f 473 512 474
f 474 512 513
f 497 498 471
f 471 498 472
f 475 480 476
f 476 480 479
f 470 508 514
f 514 508 515
f 506 502 516
f 516 502 501
f 503 502 488
f 488 502 505
f 514 515 503
f 503 515 504
f 485 488 492
f 492 488 505
f 477 506 517
f 517 506 516
f 474 513 483
f 483 513 509
f 510 292 494
f 494 292 164
f 512 473 517
f 517 473 477
f 491 481 496
f 496 481 480
f 502 506 505
f 505 506 500
f 503 488 514
f 514 488 487
f 514 487 470
f 470 487 471
f 517 516 519
f 519 516 518
f 517 519 512
f 512 519 520
f 512 520 513
f 513 520 521
f 513 521 509
f 509 521 522
f 516 501 518
f 518 501 523
f 501 504 523
f 523 504 524
f 524 504 525
f 525 504 515
f 526 527 523
f 523 527 518
f 529 530 528
f 528 530 531
f 532 533 529
f 529 533 530
f 530 533 535
f 535 533 534
f 536 537 535
f 535 537 538
f 534 539 535
f 535 539 536
f 538 531 535
f 535 531 530
f 540 541 531
f 531 541 528
f 533 532 534
f 534 532 542
f 532 520 542
f 542 520 519
f 532 543 520
f 520 543 521
f 529 544 532
f 532 544 543
f 544 529 545
f 545 529 528
f 534 542 539
f 539 542 527
f 527 542 518
f 518 542 519
f 541 546 528
f 528 546 545
f 547 544 548
f 548 544 545
f 546 549 545
f 545 549 548
f 550 547 551
f 551 547 548
f 547 550 553
f 553 550 552
f 549 554 548
f 548 554 551
f 544 547 543
f 543 547 553
f 543 553 521
f 521 553 522
f 546 541 556
f 556 541 555
f 541 540 555
f 555 540 557
f 536 539 558
f 558 539 527
f 537 536 559
f 559 536 558
f 527 526 558
f 558 526 560
f 559 558 561
f 561 558 560
f 559 562 537
f 537 562 563
f 557 563 555
f 555 563 562
f 509 522 507
f 507 522 564
f 508 565 515
f 515 565 525
f 565 508 564
f 564 508 507
f 564 552 565
f 565 552 566
f 552 550 566
f 566 550 567
f 565 566 525
f 525 566 568
f 564 522 552
f 552 522 553
f 569 524 568
f 568 524 525
f 569 526 524
f 524 526 523
f 570 560 569
f 569 560 526
f 570 569 571
f 571 569 568
f 572 570 573
f 573 570 571
f 566 567 568
f 568 567 571
f 567 574 571
f 571 574 573
f 570 572 560
f 560 572 561
f 576 561 575
f 575 561 572
f 575 578 577
f 577 578 579
f 575 572 578
f 578 572 573
f 575 577 576
f 576 577 556
f 576 556 562
f 562 556 555
f 562 559 576
f 576 559 561
f 550 551 567
f 567 551 574
f 579 574 554
f 554 574 551
f 579 578 574
f 574 578 573
f 579 554 577
f 577 554 549
f 549 546 577
f 577 546 556
f 531 538 540
f 540 538 557
f 557 538 563
f 563 538 537
f 481 294 482
f 482 294 293
f 580 486 511
f 511 486 485
f 490 489 497
f 497 489 498
f 489 491 498
f 498 491 496
f 163 495 164
f 164 495 494
f 580 490 486
f 486 490 497
f 482 293 510
f 510 293 292
f 495 163 511
f 511 163 199
f 494 493 510
f 510 493 499
f 481 491 294
f 294 491 248
f 582 583 581
f 581 583 584
f 586 587 585
f 585 587 588
f 585 588 589
f 589 588 590
f 592 593 591
f 591 593 594
f 595 596 598
f 598 596 597
f 599 600 586
f 586 600 587
f 601 602 604
f 604 602 603
f 605 606 608
f 608 606 607
f 609 607 200
f 200 607 606
f 610 611 613
f 613 611 612
f 600 614 587
f 587 614 592
f 596 605 597
f 597 605 608
f 602 615 603
f 603 615 583
f 616 614 584
f 584 614 600
f 611 618 617
f 617 618 590
f 620 621 619
f 619 621 622
f 610 623 611
f 611 623 618
f 624 589 618
f 618 589 590
f 617 590 591
f 591 590 588
f 581 625 582
f 582 625 626
f 599 627 581
f 581 627 625
f 591 594 617
f 617 594 628
f 601 610 598
f 598 610 613
f 581 584 599
f 599 584 600
f 585 629 586
f 586 629 630
f 615 616 583
f 583 616 584
f 587 592 588
f 588 592 591
f 582 626 631
f 631 626 632
f 624 620 633
f 633 620 619
f 621 620 604
f 604 620 623
f 631 632 621
f 621 632 622
f 610 601 623
f 623 601 604
f 589 624 634
f 634 624 633
f 586 630 599
f 599 630 627
f 203 202 628
f 628 202 612
f 629 585 634
f 634 585 589
f 609 593 614
f 614 593 592
f 620 624 623
f 623 624 618
f 631 621 603
f 603 621 604
f 582 631 583
f 583 631 603
f 634 633 636
f 636 633 635
f 634 636 629
f 629 636 637
f 629 637 630
f 630 637 638
f 630 638 627
f 627 638 639
f 633 619 635
f 635 619 640
f 619 622 640
f 640 622 641
f 641 622 642
f 642 622 632
f 644 635 643
f 643 635 640
f 645 646 648
f 648 646 647
f 649 650 646
f 646 650 647
f 647 650 652
f 652 650 651
f 652 653 655
f 655 653 654
f 651 656 652
f 652 656 653
f 655 648 652
f 652 648 647
f 648 657 645
f 645 657 658
f 650 649 651
f 651 649 659
f 649 637 659
f 659 637 636
f 649 660 637
f 637 660 638
f 661 660 646
f 646 660 649
f 662 661 645
f 645 661 646
f 651 659 656
f 656 659 644
f 644 659 635
f 635 659 636
f 663 662 658
f 658 662 645
f 664 661 665
f 665 661 662
f 663 666 662
f 662 666 665
f 667 664 668
f 668 664 665
f 664 667 670
f 670 667 669
f 666 671 665
f 665 671 668
f 661 664 660
f 660 664 670
f 660 670 638
f 638 670 639
f 658 672 663
f 663 672 673
f 658 657 672
f 672 657 674
f 653 656 675
f 675 656 644
f 653 675 654
f 654 675 676
f 675 644 677
f 677 644 643
f 676 675 678
f 678 675 677
f 679 680 676
f 676 680 654
f 674 680 672
f 672 680 679
f 627 639 625
f 625 639 681
f 626 682 632
f 632 682 642
f 681 682 625
f 625 682 626
f 669 683 681
f 681 683 682
f 667 684 669
f 669 684 683
f 682 683 642
f 642 683 685
f 681 639 669
f 669 639 670
f 686 641 685
f 685 641 642
f 641 686 640
f 640 686 643
f 686 687 643
f 643 687 677
f 687 686 688
f 688 686 685
f 689 687 690
f 690 687 688
f 683 684 685
f 685 684 688
f 684 691 688
f 688 691 690
f 687 689 677
f 677 689 678
f 693 678 692
f 692 678 689
f 692 695 694
f 694 695 696
f 692 689 695
f 695 689 690
f 692 694 693
f 693 694 673
f 693 673 679
f 679 673 672
f 679 676 693
f 693 676 678
f 684 667 691
f 691 667 668
f 696 691 671
f 671 691 668
f 696 695 691
f 691 695 690
f 694 696 666
f 666 696 671
f 666 663 694
f 694 663 673
f 648 655 657
f 657 655 674
f 674 655 680
f 680 655 654
f 593 162 594
f 594 162 290
f 598 597 601
f 601 597 602
f 615 608 616
f 616 608 607
f 607 609 616
f 616 609 614
f 697 595 613
f 613 595 598
f 597 608 602
f 602 608 615
f 594 290 628
f 628 290 203
f 628 612 617
f 617 612 611
f 593 609 162
f 162 609 200
f 105 29 698
f 698 29 699
f 268 126 701
f 701 126 700
f 126 125 700
f 700 125 702
f 252 703 250
f 250 703 704
f 32 268 705
f 705 268 701
f 288 105 706
f 706 105 698
f 29 32 699
f 699 32 705
f 707 251 706
f 706 251 288
f 250 704 125
f 125 704 702
f 703 252 707
f 707 252 251
f 706 708 707
f 707 708 709
f 707 709 703
f 703 709 710
f 703 710 704
f 704 710 711
f 704 711 702
f 702 711 712
f 706 698 708
f 708 698 713
f 698 699 713
f 713 699 714
f 699 705 714
f 714 705 715
f 717 708 716
f 716 708 713
f 719 720 718
f 718 720 721
f 722 723 719
f 719 723 720
f 724 725 723
f 723 725 720
f 724 726 725
f 725 726 727
f 728 721 725
f 725 721 720
f 721 728 729
f 729 728 730
f 729 731 721
f 721 731 718
f 724 723 732
f 732 723 722
f 722 710 732
f 732 710 709
f 722 733 710
f 710 733 711
f 719 734 722
f 722 734 733
f 734 719 735
f 735 719 718
f 724 732 726
f 726 732 717
f 717 732 708
f 708 732 709
f 731 736 718
f 718 736 735
f 737 734 738
f 738 734 735
f 736 739 735
f 735 739 738
f 740 737 741
f 741 737 738
f 737 740 743
f 743 740 742
f 739 744 738
f 738 744 741
f 734 737 733
f 733 737 743
f 733 743 711
f 711 743 712
f 736 731 746
f 746 731 745
f 731 729 745
f 745 729 730
f 727 726 747
f 747 726 717
f 748 727 749
f 749 727 747
f 747 717 750
f 750 717 716
f 749 747 751
f 751 747 750
f 749 752 748
f 748 752 753
f 730 753 745
f 745 753 752
f 728 725 748
f 748 725 727
f 730 728 753
f 753 728 748
f 700 702 754
f 754 702 712
f 705 701 715
f 715 701 755
f 754 755 700
f 700 755 701
f 742 756 754
f 754 756 755
f 740 757 742
f 742 757 756
f 755 756 715
f 715 756 758
f 754 712 742
f 742 712 743
f 759 714 758
f 758 714 715
f 714 759 713
f 713 759 716
f 759 760 716
f 716 760 750
f 760 759 761
f 761 759 758
f 762 760 763
f 763 760 761
f 756 757 758
f 758 757 761
f 757 764 761
f 761 764 763
f 760 762 750
f 750 762 751
f 766 751 765
f 765 751 762
f 767 765 769
f 769 765 768
f 765 762 768
f 768 762 763
f 765 767 766
f 766 767 746
f 766 746 752
f 752 746 745
f 752 749 766
f 766 749 751
f 757 740 764
f 764 740 741
f 769 764 744
f 744 764 741
f 769 768 764
f 764 768 763
f 767 769 739
f 739 769 744
f 739 736 767
f 767 736 746
f 219 217 208
f 208 217 209
f 209 217 210
f 210 217 193
f 198 580 199
f 199 580 511
f 76 75 289
f 289 75 272
f 277 207 291
f 291 207 184
f 290 183 203
f 203 183 84
f 490 580 142
f 142 580 198
f 142 198 143
f 143 198 197
f 149 276 72
f 72 276 73
f 104 103 279
f 279 103 770
f 770 596 279
f 279 596 595
f 605 596 771
f 771 596 770
f 771 770 772
f 772 770 103
f 772 103 773
f 773 103 102
f 155 774 101
f 101 774 102
f 773 102 97
f 97 102 774
f 775 773 100
f 100 773 97
f 773 775 772
f 772 775 776
f 772 776 771
f 771 776 777
f 200 606 197
f 197 606 777
f 189 71 778
f 778 71 74
f 97 774 98
f 98 774 155
f 183 161 184
f 184 161 291
f 777 276 197
f 197 276 143
f 777 606 771
f 771 606 605
f 613 612 697
f 697 612 202
f 595 697 279
f 279 697 202
f 73 276 776
f 776 276 777
f 776 775 73
f 73 775 74
f 100 778 775
f 775 778 74
f 778 100 189
f 189 100 99
f 245 242 99
f 99 242 189
f 131 33 256
f 28 1 95
f 95 1 62
f 27 2 28
f 28 2 1
f 265 115 266
f 266 115 114
f 95 62 69
f 69 62 64
f 62 61 64
f 64 61 65
f 61 13 65
f 65 13 130
f 13 12 130
f 130 12 14
f 31 11 32
f 32 11 268
f 15 12 31
f 31 12 11
f 31 30 15
f 15 30 231
f 30 106 231
f 231 106 232
f 287 237 106
f 106 237 232
f 254 90 287
f 287 90 237
f 253 44 254
f 254 44 90
f 253 249 44
f 44 249 7
f 267 127 268
f 268 127 126
f 10 3 241
f 241 3 116
f 3 2 116
f 116 2 114
f 2 27 114
f 114 27 266
f 27 26 266
f 266 26 113
f 26 286 113
f 113 286 110
f 286 243 110
f 110 243 255
f 243 242 255
f 255 242 256
f 242 245 256
f 256 245 131
f 245 244 131
f 131 244 132
f 265 37 115
f 115 37 41
f 41 37 42
f 42 37 40
f 92 91 40
f 40 91 42
f 236 233 92
f 92 233 91
f 191 194 236
f 236 194 233
f 258 285 244
f 244 285 132
f 257 55 258
f 258 55 285
f 257 154 201
f 201 154 185
f 56 201 204
f 204 201 180
f 55 257 56
f 56 257 201
f 204 85 56
f 56 85 52
f 86 122 53
f 53 122 79
f 212 215 86
f 86 215 122
f 211 216 212
f 212 216 215
f 192 280 211
f 211 280 216
f 191 240 192
f 192 240 280
f 249 124 7
f 7 124 8
f 124 127 8
f 8 127 241
f 127 267 241
f 241 267 10
f 10 267 9
f 9 267 11
f 93 39 235
f 235 39 240
f 39 123 240
f 240 123 280
f 123 119 280
f 280 119 216
f 119 118 216
f 216 118 215
f 118 120 215
f 215 120 122
f 120 121 122
f 122 121 79
f 121 109 79
f 79 109 80

