# https://github.com/mikedh/trimesh
v -0.18661049 0.08256845 -18.57655144 0.25098039 0.27450980 0.65882353
v -0.18339793 0.08811355 -18.58579636 0.25098039 0.27450980 0.65882353
v -0.17550367 0.08125854 -18.58255768 0.25098039 0.27450980 0.65882353
v -0.17955393 0.07697865 -18.57211685 0.25098039 0.27450980 0.65882353
v -0.16493009 0.09600842 -18.59849167 0.25098039 0.27450980 0.65882353
v -0.15712714 0.10549928 -18.59665298 0.25098039 0.27450980 0.65882353
v -0.15177868 0.09393297 -18.59062576 0.25098039 0.27450980 0.65882353
v -0.15929608 0.08709989 -18.59335899 0.25098039 0.27450980 0.65882353
v -0.17440514 0.07366295 -18.56665611 0.25098039 0.27450980 0.65882353
v -0.17001006 0.07583229 -18.57883835 0.25098039 0.27450980 0.65882353
v -0.17126423 0.07622002 -18.56151962 0.25098039 0.27450980 0.65882353
v -0.17912975 0.07888697 -18.54851341 0.25098039 0.27450980 0.65882353
v -0.17992355 0.07493524 -18.55525017 0.25098039 0.27450980 0.65882353
v -0.18493749 0.07690404 -18.54166412 0.25098039 0.27450980 0.65882353
v -0.18118289 0.08962391 -18.54540062 0.25098039 0.27450980 0.65882353
v -0.19221960 0.08207045 -18.53786087 0.25098039 0.27450980 0.65882353
v -0.20960094 0.10067156 -18.55326653 0.25098039 0.27450980 0.65882353
v -0.22009446 0.10096935 -18.56294632 0.25098039 0.27450980 0.65882353
v -0.22457720 0.08747591 -18.55486870 0.25098039 0.27450980 0.65882353
v -0.21351853 0.08791863 -18.54592133 0.25098039 0.27450980 0.65882353
v -0.23500773 0.08910216 -18.57413673 0.25098039 0.27450980 0.65882353
v -0.23002839 0.08767045 -18.56298065 0.25098039 0.27450980 0.65882353
v -0.22602662 0.10172917 -18.57059669 0.25098039 0.27450980 0.65882353
v -0.23069882 0.10242617 -18.58008194 0.25098039 0.27450980 0.65882353
v -0.19744343 0.08882686 -18.58654594 0.25098039 0.27450980 0.65882353
v -0.19518013 0.09526895 -18.59438705 0.25098039 0.27450980 0.65882353
v -0.19203562 0.09386368 -18.59042740 0.25098039 0.27450980 0.65882353
v -0.19372350 0.08795188 -18.58275032 0.25098039 0.27450980 0.65882353
v -0.15812667 0.08127740 -18.56109428 0.25098039 0.27450980 0.65882353
v -0.16476667 0.09206116 -18.55679321 0.25098039 0.27450980 0.65882353
v -0.16895202 0.08450107 -18.55648804 0.25098039 0.27450980 0.65882353
v -0.16069068 0.07666530 -18.56445122 0.25098039 0.27450980 0.65882353
v -0.19155222 0.10941508 -18.61889839 0.25098039 0.27450980 0.65882353
v -0.19106950 0.12374855 -18.62038422 0.25098039 0.27450980 0.65882353
v -0.18663806 0.12477165 -18.61642456 0.25098039 0.27450980 0.65882353
v -0.18858977 0.11179397 -18.61531067 0.25098039 0.27450980 0.65882353
v -0.16924384 0.12119605 -18.60383606 0.25098039 0.27450980 0.65882353
v -0.17299405 0.13013986 -18.60444450 0.25098039 0.27450980 0.65882353
v -0.16916469 0.14072388 -18.59664345 0.25098039 0.27450980 0.65882353
v -0.16650593 0.13247155 -18.59270096 0.25098039 0.27450980 0.65882353
v -0.16297163 0.11257677 -18.60067940 0.25098039 0.27450980 0.65882353
v -0.16005172 0.12253299 -18.59143639 0.25098039 0.27450980 0.65882353
v -0.15423188 0.11343407 -18.58812141 0.25098039 0.27450980 0.65882353
v -0.14826339 0.10010231 -18.58364677 0.25098039 0.27450980 0.65882353
v -0.20241436 0.12330367 -18.62682915 0.25098039 0.27450980 0.65882353
v -0.20437497 0.11292348 -18.62735939 0.25098039 0.27450980 0.65882353
v -0.19246797 0.02923604 -18.53077507 0.25098039 0.27450980 0.65882353
v -0.19669309 0.02733381 -18.53466415 0.25098039 0.27450980 0.65882353
v -0.19625625 0.03220609 -18.53595924 0.25098039 0.27450980 0.65882353
v -0.19236711 0.03334895 -18.53167915 0.25098039 0.27450980 0.65882353
v -0.22267769 0.12501326 -18.62267876 0.25098039 0.27450980 0.65882353
v -0.22748035 0.13046557 -18.61493683 0.25098039 0.27450980 0.65882353
v -0.22532210 0.13496867 -18.61999702 0.25098039 0.27450980 0.65882353
v -0.21935208 0.13054517 -18.62627220 0.25098039 0.27450980 0.65882353
v -0.22684483 0.11749037 -18.61771965 0.25098039 0.27450980 0.65882353
v -0.22961983 0.12359911 -18.60798454 0.25098039 0.27450980 0.65882353
v -0.19780475 0.03070736 -18.51935577 0.25098039 0.27450980 0.65882353
v -0.19350687 0.03037193 -18.52207375 0.25098039 0.27450980 0.65882353
v -0.19411084 0.03526050 -18.52197075 0.25098039 0.27450980 0.65882353
v -0.19893329 0.03594042 -18.52006340 0.25098039 0.27450980 0.65882353
v -0.18288806 0.07458997 -18.56214142 0.25098039 0.27450980 0.65882353
v -0.18848974 0.07676172 -18.56912231 0.25098039 0.27450980 0.65882353
v -0.19026741 0.06223214 -18.55066109 0.25098039 0.27450980 0.65882353
v -0.19083866 0.06865923 -18.55770874 0.25098039 0.27450980 0.65882353
v -0.18560478 0.07107958 -18.55365562 0.25098039 0.27450980 0.65882353
v -0.18607977 0.06637035 -18.54724503 0.25098039 0.27450980 0.65882353
v -0.20707887 0.07194323 -18.57507515 0.25098039 0.27450980 0.65882353
v -0.20348030 0.08084860 -18.58160210 0.25098039 0.27450980 0.65882353
v -0.19950368 0.08007468 -18.57631111 0.25098039 0.27450980 0.65882353
v -0.20144793 0.06976932 -18.56877899 0.25098039 0.27450980 0.65882353
v -0.21199110 0.07979207 -18.59325790 0.25098039 0.27450980 0.65882353
v -0.21509184 0.07129760 -18.58581734 0.25098039 0.27450980 0.65882353
v -0.21984458 0.07184798 -18.59336662 0.25098039 0.27450980 0.65882353
v -0.21621203 0.07719024 -18.59784317 0.25098039 0.27450980 0.65882353
v -0.21826831 0.05652500 -18.57066154 0.25098039 0.27450980 0.65882353
v -0.22206995 0.05166651 -18.56447792 0.25098039 0.27450980 0.65882353
v -0.22436935 0.05136605 -18.56573677 0.25098039 0.27450980 0.65882353
v -0.22074120 0.05690487 -18.57318687 0.25098039 0.27450980 0.65882353
v -0.22354361 0.14019540 -18.62403679 0.25098039 0.27450980 0.65882353
v -0.21581909 0.13620786 -18.62876892 0.25098039 0.27450980 0.65882353
v -0.24336296 0.08839856 -18.59430885 0.25098039 0.27450980 0.65882353
v -0.24149865 0.08759885 -18.60538292 0.25098039 0.27450980 0.65882353
v -0.24725631 0.07658663 -18.60177040 0.25098039 0.27450980 0.65882353
v -0.24765745 0.08047408 -18.59072113 0.25098039 0.27450980 0.65882353
v -0.22720136 0.13417685 -18.60455704 0.25098039 0.27450980 0.65882353
v -0.22724056 0.13917978 -18.61026382 0.25098039 0.27450980 0.65882353
v -0.20372456 0.02982014 -18.51974678 0.25098039 0.27450980 0.65882353
v -0.20468476 0.03505722 -18.52116585 0.25098039 0.27450980 0.65882353
v -0.15935922 0.12033205 -18.57649612 0.25098039 0.27450980 0.65882353
v -0.15038936 0.10449764 -18.57367897 0.25098039 0.27450980 0.65882353
v -0.16638620 0.13204747 -18.58033752 0.25098039 0.27450980 0.65882353
v -0.17170548 0.14054328 -18.58290100 0.25098039 0.27450980 0.65882353
v -0.17374122 0.14778829 -18.58667183 0.25098039 0.27450980 0.65882353
v -0.19623080 0.06453094 -18.55956078 0.25098039 0.27450980 0.65882353
v -0.19366345 0.08141728 -18.57537842 0.25098039 0.27450980 0.65882353
v -0.20057386 0.08882938 -18.59037399 0.25098039 0.27450980 0.65882353
v -0.21975981 0.08227593 -18.61446953 0.25098039 0.27450980 0.65882353
v -0.21560526 0.09023497 -18.62012100 0.25098039 0.27450980 0.65882353
v -0.20917770 0.08743516 -18.61165619 0.25098039 0.27450980 0.65882353
v -0.21456343 0.08138318 -18.60806847 0.25098039 0.27450980 0.65882353
v -0.23696469 0.08187070 -18.61220551 0.25098039 0.27450980 0.65882353
v -0.23027244 0.07681358 -18.61170387 0.25098039 0.27450980 0.65882353
v -0.23419505 0.07005661 -18.60730934 0.25098039 0.27450980 0.65882353
v -0.24143593 0.07340145 -18.60760880 0.25098039 0.27450980 0.65882353
v -0.15186225 0.08586666 -18.56098557 0.25098039 0.27450980 0.65882353
v -0.16106424 0.09840164 -18.55792427 0.25098039 0.27450980 0.65882353
v -0.21437182 0.11953121 -18.62708092 0.25098039 0.27450980 0.65882353
v -0.21025938 0.12589717 -18.62801933 0.25098039 0.27450980 0.65882353
v -0.20826951 0.13424902 -18.62988281 0.25098039 0.27450980 0.65882353
v -0.19194102 0.10220260 -18.60639763 0.25098039 0.27450980 0.65882353
v -0.18647626 0.11333448 -18.61318588 0.25098039 0.27450980 0.65882353
v -0.18369728 0.11327939 -18.61064720 0.25098039 0.27450980 0.65882353
v -0.19114086 0.10251226 -18.60375977 0.25098039 0.27450980 0.65882353
v -0.17946362 0.09482093 -18.59626389 0.25098039 0.27450980 0.65882353
v -0.17366713 0.10455267 -18.60354233 0.25098039 0.27450980 0.65882353
v -0.17169815 0.08662398 -18.59318542 0.25098039 0.27450980 0.65882353
v -0.18057543 0.12798762 -18.61158371 0.25098039 0.27450980 0.65882353
v -0.18413121 0.13453177 -18.61975288 0.25098039 0.27450980 0.65882353
v -0.17799282 0.13711761 -18.61346817 0.25098039 0.27450980 0.65882353
v -0.19238335 0.13366388 -18.62537766 0.25098039 0.27450980 0.65882353
v -0.20091206 0.13317227 -18.62871933 0.25098039 0.27450980 0.65882353
v -0.22824022 0.14617890 -18.61422729 0.25098039 0.27450980 0.65882353
v -0.17336303 0.13948762 -18.60651588 0.25098039 0.27450980 0.65882353
v -0.15672301 0.08029813 -18.58896446 0.25098039 0.27450980 0.65882353
v -0.15356529 0.07446252 -18.58490944 0.25098039 0.27450980 0.65882353
v -0.15970847 0.07125929 -18.57980347 0.25098039 0.27450980 0.65882353
v -0.16331355 0.07595752 -18.58408165 0.25098039 0.27450980 0.65882353
v -0.18940356 0.07171086 -18.53521347 0.25098039 0.27450980 0.65882353
v -0.18560627 0.06824182 -18.54127312 0.25098039 0.27450980 0.65882353
v -0.18238698 0.07434015 -18.54784012 0.25098039 0.27450980 0.65882353
v -0.19846579 0.10056648 -18.61755753 0.25098039 0.27450980 0.65882353
v -0.20900366 0.10377203 -18.62537956 0.25098039 0.27450980 0.65882353
v -0.19598883 0.05838405 -18.55174637 0.25098039 0.27450980 0.65882353
v -0.19969782 0.04120572 -18.52081108 0.25098039 0.27450980 0.65882353
v -0.19414747 0.04051916 -18.52278519 0.25098039 0.27450980 0.65882353
v -0.19157732 0.05819020 -18.52899742 0.25098039 0.27450980 0.65882353
v -0.19824046 0.05855300 -18.52582741 0.25098039 0.27450980 0.65882353
v -0.20468289 0.05345106 -18.54590416 0.25098039 0.27450980 0.65882353
v -0.19810081 0.05480413 -18.54845238 0.25098039 0.27450980 0.65882353
v -0.19975561 0.05301249 -18.54715919 0.25098039 0.27450980 0.65882353
v -0.20608243 0.05024855 -18.54585266 0.25098039 0.27450980 0.65882353
v -0.22749428 0.05299270 -18.57468224 0.25098039 0.27450980 0.65882353
v -0.22489923 0.05801108 -18.58090019 0.25098039 0.27450980 0.65882353
v -0.21644604 0.07295690 -18.54114151 0.25098039 0.27450980 0.65882353
v -0.20609704 0.07834441 -18.53316689 0.25098039 0.27450980 0.65882353
v -0.20263718 0.08745217 -18.53978920 0.25098039 0.27450980 0.65882353
v -0.21143471 0.07228480 -18.58141136 0.25098039 0.27450980 0.65882353
v -0.21495777 0.06364781 -18.57641220 0.25098039 0.27450980 0.65882353
v -0.21794051 0.06370756 -18.57954979 0.25098039 0.27450980 0.65882353
v -0.20014253 0.06137998 -18.55911636 0.25098039 0.27450980 0.65882353
v -0.20165263 0.05619329 -18.55287933 0.25098039 0.27450980 0.65882353
v -0.20451367 0.05760077 -18.55739975 0.25098039 0.27450980 0.65882353
v -0.20372841 0.06273414 -18.56312370 0.25098039 0.27450980 0.65882353
v -0.23712796 0.09924932 -18.60961533 0.25098039 0.27450980 0.65882353
v -0.23181164 0.09233907 -18.61778069 0.25098039 0.27450980 0.65882353
v -0.19147462 0.03008288 -18.52621269 0.25098039 0.27450980 0.65882353
v -0.19166249 0.03460409 -18.52647591 0.25098039 0.27450980 0.65882353
v -0.20785522 0.08119748 -18.58745384 0.25098039 0.27450980 0.65882353
v -0.19897333 0.09788987 -18.54821205 0.25098039 0.27450980 0.65882353
v -0.20371141 0.08856685 -18.59477234 0.25098039 0.27450980 0.65882353
v -0.24325635 0.06884839 -18.57694435 0.25098039 0.27450980 0.65882353
v -0.24172997 0.06299226 -18.58158875 0.25098039 0.27450980 0.65882353
v -0.24163871 0.05809198 -18.57836342 0.25098039 0.27450980 0.65882353
v -0.24509838 0.06123631 -18.57407570 0.25098039 0.27450980 0.65882353
v -0.20805296 0.03617454 -18.53914261 0.25098039 0.27450980 0.65882353
v -0.20225388 0.03526351 -18.54075050 0.25098039 0.27450980 0.65882353
v -0.20230961 0.03102877 -18.53804207 0.25098039 0.27450980 0.65882353
v -0.20791875 0.03140938 -18.53626060 0.25098039 0.27450980 0.65882353
v -0.19264919 0.05705725 -18.54705429 0.25098039 0.27450980 0.65882353
v -0.18802479 0.06044526 -18.54337120 0.25098039 0.27450980 0.65882353
v -0.18962130 0.05488974 -18.54146957 0.25098039 0.27450980 0.65882353
v -0.19472271 0.05323956 -18.54504395 0.25098039 0.27450980 0.65882353
v -0.18793991 0.06260695 -18.53696632 0.25098039 0.27450980 0.65882353
v -0.18831345 0.05702800 -18.53510284 0.25098039 0.27450980 0.65882353
v -0.21163583 0.03824329 -18.53352928 0.25098039 0.27450980 0.65882353
v -0.21075293 0.04043169 -18.52610588 0.25098039 0.27450980 0.65882353
v -0.21120065 0.05535443 -18.53212357 0.25098039 0.27450980 0.65882353
v -0.21077171 0.05046181 -18.53933716 0.25098039 0.27450980 0.65882353
v -0.22715744 0.11612081 -18.58515739 0.25098039 0.27450980 0.65882353
v -0.23232645 0.11469855 -18.59514427 0.25098039 0.27450980 0.65882353
v -0.23626153 0.10124527 -18.59008598 0.25098039 0.27450980 0.65882353
v -0.24095996 0.08852375 -18.58535004 0.25098039 0.27450980 0.65882353
v -0.24386504 0.07636761 -18.58091736 0.25098039 0.27450980 0.65882353
v -0.23971029 0.07878693 -18.56967545 0.25098039 0.27450980 0.65882353
v -0.23835209 0.10091716 -18.59827614 0.25098039 0.27450980 0.65882353
v -0.21281865 0.05872007 -18.54312515 0.25098039 0.27450980 0.65882353
v -0.21154776 0.06549107 -18.53667068 0.25098039 0.27450980 0.65882353
v -0.21615711 0.06499837 -18.54077339 0.25098039 0.27450980 0.65882353
v -0.20743105 0.08680666 -18.60120010 0.25098039 0.27450980 0.65882353
v -0.19091728 0.03952640 -18.52734756 0.25098039 0.27450980 0.65882353
v -0.19390690 0.14564492 -18.57764053 0.25098039 0.27450980 0.65882353
v -0.20701468 0.14586739 -18.58235550 0.25098039 0.27450980 0.65882353
v -0.20587505 0.13833842 -18.57815361 0.25098039 0.27450980 0.65882353
v -0.19111501 0.13780910 -18.57288551 0.25098039 0.27450980 0.65882353
v -0.19523728 0.03625453 -18.53870583 0.25098039 0.27450980 0.65882353
v -0.19066013 0.03770330 -18.53384399 0.25098039 0.27450980 0.65882353
v -0.22987548 0.05650355 -18.58559608 0.25098039 0.27450980 0.65882353
v -0.23160577 0.05280399 -18.57929039 0.25098039 0.27450980 0.65882353
v -0.23584493 0.05290206 -18.57969475 0.25098039 0.27450980 0.65882353
v -0.23484734 0.05443267 -18.58726501 0.25098039 0.27450980 0.65882353
v -0.23352139 0.11463048 -18.60132217 0.25098039 0.27450980 0.65882353
v -0.24951190 0.06870078 -18.59972382 0.25098039 0.27450980 0.65882353
v -0.25015375 0.07274150 -18.59020805 0.25098039 0.27450980 0.65882353
v -0.22842139 0.12643081 -18.59938812 0.25098039 0.27450980 0.65882353
v -0.22455312 0.12817182 -18.59026337 0.25098039 0.27450980 0.65882353
v -0.22340277 0.13688342 -18.59423256 0.25098039 0.27450980 0.65882353
v -0.23338854 0.07257381 -18.55580521 0.25098039 0.27450980 0.65882353
v -0.22297795 0.11497046 -18.57744789 0.25098039 0.27450980 0.65882353
v -0.21998003 0.12743312 -18.58398247 0.25098039 0.27450980 0.65882353
v -0.21830396 0.13777921 -18.58828545 0.25098039 0.27450980 0.65882353
v -0.21812624 0.14541587 -18.59129906 0.25098039 0.27450980 0.65882353
v -0.22328579 0.14324799 -18.59793472 0.25098039 0.27450980 0.65882353
v -0.20600998 0.04059052 -18.52233315 0.25098039 0.27450980 0.65882353
v -0.21009202 0.03403495 -18.52483940 0.25098039 0.27450980 0.65882353
v -0.22429238 0.15089869 -18.60170174 0.25098039 0.27450980 0.65882353
v -0.21800207 0.15262663 -18.59464264 0.25098039 0.27450980 0.65882353
v -0.21355501 0.12710626 -18.57674789 0.25098039 0.27450980 0.65882353
v -0.20489065 0.12613419 -18.56888580 0.25098039 0.27450980 0.65882353
v -0.21648705 0.11504625 -18.57063293 0.25098039 0.27450980 0.65882353
v -0.20837814 0.11321530 -18.56222153 0.25098039 0.27450980 0.65882353
v -0.22731781 0.07785775 -18.54785728 0.25098039 0.27450980 0.65882353
v -0.20944095 0.01676862 -18.52558136 0.25098039 0.27450980 0.65882353
v -0.21074745 0.02716333 -18.52885628 0.25098039 0.27450980 0.65882353
v -0.20802087 0.02641214 -18.53401566 0.25098039 0.27450980 0.65882353
v -0.20867962 0.01625919 -18.52996445 0.25098039 0.27450980 0.65882353
v -0.21105576 0.03277937 -18.53133392 0.25098039 0.27450980 0.65882353
v -0.20920761 0.02888461 -18.52343559 0.25098039 0.27450980 0.65882353
v -0.19436309 0.11014111 -18.55604553 0.25098039 0.27450980 0.65882353
v -0.20742345 0.05332556 -18.55145836 0.25098039 0.27450980 0.65882353
v -0.18686277 0.12350841 -18.56375504 0.25098039 0.27450980 0.65882353
v -0.17877856 0.10131936 -18.55067253 0.25098039 0.27450980 0.65882353
v -0.17262679 0.11065358 -18.55773544 0.25098039 0.27450980 0.65882353
v -0.17738011 0.13645530 -18.57215691 0.25098039 0.27450980 0.65882353
v -0.16850081 0.12377728 -18.56669617 0.25098039 0.27450980 0.65882353
v -0.18250307 0.15090899 -18.58140564 0.25098039 0.27450980 0.65882353
v -0.18131875 0.14366439 -18.57644081 0.25098039 0.27450980 0.65882353
v -0.15921566 0.11022209 -18.56472778 0.25098039 0.27450980 0.65882353
v -0.19401082 0.01874460 -18.53078651 0.25098039 0.27450980 0.65882353
v -0.19883017 0.01791584 -18.53414726 0.25098039 0.27450980 0.65882353
v -0.19429973 0.15295389 -18.58151245 0.25098039 0.27450980 0.65882353
v -0.16635200 0.08017825 -18.58815765 0.25098039 0.27450980 0.65882353
v -0.20139194 0.09408823 -18.60650444 0.25098039 0.27450980 0.65882353
v -0.19886938 0.09491584 -18.60143280 0.25098039 0.27450980 0.65882353
v -0.21339116 0.09558920 -18.62276459 0.25098039 0.27450980 0.65882353
v -0.20451307 0.09345949 -18.61391068 0.25098039 0.27450980 0.65882353
v -0.19194159 0.01964678 -18.52576256 0.25098039 0.27450980 0.65882353
v -0.22753015 0.05115939 -18.55924606 0.25098039 0.27450980 0.65882353
v -0.22817531 0.05365653 -18.55996704 0.25098039 0.27450980 0.65882353
v -0.14946769 0.08634910 -18.58798027 0.25098039 0.27450980 0.65882353
v -0.14737277 0.08001082 -18.58511162 0.25098039 0.27450980 0.65882353
v -0.14237814 0.08550408 -18.57306099 0.25098039 0.27450980 0.65882353
v -0.14282408 0.08340818 -18.58038902 0.25098039 0.27450980 0.65882353
v -0.14523984 0.09170491 -18.58198738 0.25098039 0.27450980 0.65882353
v -0.14548600 0.09471881 -18.57408142 0.25098039 0.27450980 0.65882353
v -0.19270247 0.10137733 -18.60855484 0.25098039 0.27450980 0.65882353
v -0.19508666 0.10045917 -18.61174393 0.25098039 0.27450980 0.65882353
v -0.23162675 0.10889929 -18.61414909 0.25098039 0.27450980 0.65882353
v -0.22598703 0.10152394 -18.62148285 0.25098039 0.27450980 0.65882353
v -0.19161123 0.06512784 -18.53191376 0.25098039 0.27450980 0.65882353
v -0.19710961 0.07443627 -18.53165054 0.25098039 0.27450980 0.65882353
v -0.19830289 0.06647959 -18.52912521 0.25098039 0.27450980 0.65882353
v -0.20551258 0.05917155 -18.52744102 0.25098039 0.27450980 0.65882353
v -0.21061945 0.05374967 -18.54595947 0.25098039 0.27450980 0.65882353
v -0.20968547 0.05647735 -18.54202080 0.25098039 0.27450980 0.65882353
v -0.17959723 0.10878800 -18.60710144 0.25098039 0.27450980 0.65882353
v -0.18730189 0.10006136 -18.59971046 0.25098039 0.27450980 0.65882353
v -0.16604336 0.07428996 -18.57544327 0.25098039 0.27450980 0.65882353
v -0.16228057 0.07177667 -18.57182312 0.25098039 0.27450980 0.65882353
v -0.20850961 0.06475170 -18.56954002 0.25098039 0.27450980 0.65882353
v -0.23310965 0.06268629 -18.55032349 0.25098039 0.27450980 0.65882353
v -0.22783670 0.06674960 -18.54360199 0.25098039 0.27450980 0.65882353
v -0.21112302 0.05783649 -18.56370354 0.25098039 0.27450980 0.65882353
v -0.19687313 0.01937579 -18.51844406 0.25098039 0.27450980 0.65882353
v -0.19302452 0.01968922 -18.52193832 0.25098039 0.27450980 0.65882353
v -0.20539063 0.06773798 -18.53035164 0.25098039 0.27450980 0.65882353
v -0.22211446 0.06325734 -18.58732033 0.25098039 0.27450980 0.65882353
v -0.23610161 0.06580572 -18.55768204 0.25098039 0.27450980 0.65882353
v -0.23320334 0.05618667 -18.55461693 0.25098039 0.27450980 0.65882353
v -0.24303190 0.06772858 -18.60551453 0.25098039 0.27450980 0.65882353
v -0.20667028 0.15332729 -18.58657837 0.25098039 0.27450980 0.65882353
v -0.20286401 0.02581055 -18.53655243 0.25098039 0.27450980 0.65882353
v -0.20398858 0.01738414 -18.53471756 0.25098039 0.27450980 0.65882353
v -0.20803609 0.01817350 -18.52156258 0.25098039 0.27450980 0.65882353
v -0.20320028 0.01980853 -18.51804924 0.25098039 0.27450980 0.65882353
v -0.21947342 0.10944668 -18.62439156 0.25098039 0.27450980 0.65882353
v -0.19747168 0.09503120 -18.59805107 0.25098039 0.27450980 0.65882353
v -0.15206529 0.09886429 -18.56494141 0.25098039 0.27450980 0.65882353
v -0.14618045 0.08657810 -18.56592369 0.25098039 0.27450980 0.65882353
v -0.21359006 0.05366044 -18.55972862 0.25098039 0.27450980 0.65882353
v -0.24581562 0.06913691 -18.58376884 0.25098039 0.27450980 0.65882353
v -0.24248934 0.07019389 -18.56747818 0.25098039 0.27450980 0.65882353
v -0.24538994 0.06251492 -18.56481743 0.25098039 0.27450980 0.65882353
v -0.24109685 0.06006205 -18.55833435 0.25098039 0.27450980 0.65882353
v -0.23488717 0.05548603 -18.55626297 0.25098039 0.27450980 0.65882353
v -0.20741607 0.01288281 -18.52207184 0.25098039 0.27450980 0.65882353
v -0.20254934 0.01452892 -18.51837540 0.25098039 0.27450980 0.65882353
v -0.19615605 0.01427852 -18.51859093 0.25098039 0.27450980 0.65882353
v -0.19256976 0.01511416 -18.52165222 0.25098039 0.27450980 0.65882353
v -0.19203070 0.01625644 -18.52596283 0.25098039 0.27450980 0.65882353
v -0.20851406 0.01145776 -18.52631187 0.25098039 0.27450980 0.65882353
v -0.20733407 0.01134867 -18.53023529 0.25098039 0.27450980 0.65882353
v -0.20362341 0.01423527 -18.53430557 0.25098039 0.27450980 0.65882353
v -0.20690455 0.00723547 -18.52816582 0.25098039 0.27450980 0.65882353
v -0.20501629 0.00500347 -18.52369308 0.25098039 0.27450980 0.65882353
v -0.19139642 0.00180817 -18.52298355 0.25098039 0.27450980 0.65882353
v -0.19450977 0.00601231 -18.52029610 0.25098039 0.27450980 0.65882353
v -0.19553700 0.00364015 -18.52079964 0.25098039 0.27450980 0.65882353
v -0.19367626 -0.00051007 -18.52278519 0.25098039 0.27450980 0.65882353
v -0.19311629 -0.00528991 -18.52447701 0.25098039 0.27450980 0.65882353
v -0.19031876 -0.00321016 -18.52499962 0.25098039 0.27450980 0.65882353
v -0.20000428 0.00500369 -18.52091980 0.25098039 0.27450980 0.65882353
v -0.19825886 -0.00083214 -18.52348137 0.25098039 0.27450980 0.65882353
v -0.20177549 -0.00103255 -18.52589989 0.25098039 0.27450980 0.65882353
v -0.20031998 -0.00620966 -18.52716064 0.25098039 0.27450980 0.65882353
v -0.19714266 -0.00624207 -18.52500534 0.25098039 0.27450980 0.65882353
v -0.20282128 0.00285539 -18.52371407 0.25098039 0.27450980 0.65882353
v -0.20089328 0.00697279 -18.51972961 0.25098039 0.27450980 0.65882353
v -0.19144699 -0.00717577 -18.52685738 0.25098039 0.27450980 0.65882353
v -0.19335467 -0.00797909 -18.52546501 0.25098039 0.27450980 0.65882353
v -0.19640513 -0.00892428 -18.52641487 0.25098039 0.27450980 0.65882353
v -0.19506681 -0.01000513 -18.52879143 0.25098039 0.27450980 0.65882353
v -0.19153768 0.01057993 -18.52267647 0.25098039 0.27450980 0.65882353
v -0.18979344 0.00282979 -18.52483177 0.25098039 0.27450980 0.65882353
v -0.18968499 -0.00217418 -18.52794266 0.25098039 0.27450980 0.65882353
v -0.19097249 -0.00617570 -18.52948189 0.25098039 0.27450980 0.65882353
v -0.18998057 0.00285944 -18.52898598 0.25098039 0.27450980 0.65882353
v -0.19041598 -0.00131510 -18.53073883 0.25098039 0.27450980 0.65882353
v -0.19183061 -0.00463064 -18.53228378 0.25098039 0.27450980 0.65882353
v -0.19176835 0.00286834 -18.53303528 0.25098039 0.27450980 0.65882353
v -0.19212030 -0.00105429 -18.53350639 0.25098039 0.27450980 0.65882353
v -0.19316527 0.01355155 -18.53036308 0.25098039 0.27450980 0.65882353
v -0.19121307 0.01364588 -18.52647591 0.25098039 0.27450980 0.65882353
v -0.19242083 -0.00345959 -18.53401184 0.25098039 0.27450980 0.65882353
v -0.19497609 -0.00935061 -18.53087044 0.25098039 0.27450980 0.65882353
v -0.20419002 0.00071214 -18.52813721 0.25098039 0.27450980 0.65882353
v -0.20135435 -0.00533202 -18.53019142 0.25098039 0.27450980 0.65882353
v -0.20450972 0.00134128 -18.53046608 0.25098039 0.27450980 0.65882353
v -0.20204234 -0.00474080 -18.53240776 0.25098039 0.27450980 0.65882353
v -0.19954540 -0.00929621 -18.53040504 0.25098039 0.27450980 0.65882353
v -0.19898450 -0.00864124 -18.52803612 0.25098039 0.27450980 0.65882353
v -0.19447675 0.01671825 -18.53063202 0.25098039 0.27450980 0.65882353
v -0.19943687 0.01582198 -18.53398705 0.25098039 0.27450980 0.65882353
v -0.19837788 0.01319160 -18.53411674 0.25098039 0.27450980 0.65882353
v -0.19572380 0.00285670 -18.53588295 0.25098039 0.27450980 0.65882353
v -0.20240894 0.01142480 -18.53474045 0.25098039 0.27450980 0.65882353
v -0.20566240 0.00748667 -18.53183937 0.25098039 0.27450980 0.65882353
v -0.20342968 0.00127089 -18.53324127 0.25098039 0.27450980 0.65882353
v -0.20085660 0.00197345 -18.53558731 0.25098039 0.27450980 0.65882353
v -0.20108636 -0.00339465 -18.53437424 0.25098039 0.27450980 0.65882353
v -0.19902313 -0.00223503 -18.53545761 0.25098039 0.27450980 0.65882353
v -0.19517800 -0.00144222 -18.53556633 0.25098039 0.27450980 0.65882353
v -0.19832124 -0.00630587 -18.53436470 0.25098039 0.27450980 0.65882353
v -0.19929391 -0.00823385 -18.53231812 0.25098039 0.27450980 0.65882353
v -0.19479790 -0.00697672 -18.53327370 0.25098039 0.27450980 0.65882353
v -0.19771703 -0.00469810 -18.53525734 0.25098039 0.27450980 0.65882353
v -0.19482478 -0.00456345 -18.53436279 0.25098039 0.27450980 0.65882353
v -0.22049570 0.02226001 -18.54124832 0.25098039 0.27450980 0.65882353
v -0.22506616 0.02121368 -18.54618454 0.25098039 0.27450980 0.65882353
v -0.22493976 0.02585079 -18.54543114 0.25098039 0.27450980 0.65882353
v -0.22096594 0.02624457 -18.54130936 0.25098039 0.27450980 0.65882353
v -0.22736859 0.02374371 -18.52867889 0.25098039 0.27450980 0.65882353
v -0.22217578 0.02319746 -18.53211212 0.25098039 0.27450980 0.65882353
v -0.22253340 0.02791885 -18.53141212 0.25098039 0.27450980 0.65882353
v -0.22872142 0.02923607 -18.52909279 0.25098039 0.27450980 0.65882353
v -0.23422110 0.02414221 -18.53045845 0.25098039 0.27450980 0.65882353
v -0.23522675 0.02995712 -18.53126335 0.25098039 0.27450980 0.65882353
v -0.22804196 0.03501169 -18.52935410 0.25098039 0.27450980 0.65882353
v -0.22165261 0.03339508 -18.53251266 0.25098039 0.27450980 0.65882353
v -0.21654096 0.05257957 -18.54005814 0.25098039 0.27450980 0.65882353
v -0.22283202 0.05484054 -18.53645897 0.25098039 0.27450980 0.65882353
v -0.22293584 0.04754408 -18.55819130 0.25098039 0.27450980 0.65882353
v -0.22747508 0.04761564 -18.55661774 0.25098039 0.27450980 0.65882353
v -0.22006288 0.02272204 -18.53702736 0.25098039 0.27450980 0.65882353
v -0.22044668 0.02696747 -18.53641319 0.25098039 0.27450980 0.65882353
v -0.23298132 0.03000769 -18.55016899 0.25098039 0.27450980 0.65882353
v -0.22726017 0.02911996 -18.55065727 0.25098039 0.27450980 0.65882353
v -0.22904837 0.02517726 -18.54841042 0.25098039 0.27450980 0.65882353
v -0.23469776 0.02552047 -18.54742813 0.25098039 0.27450980 0.65882353
v -0.21342205 0.04985709 -18.54947281 0.25098039 0.27450980 0.65882353
v -0.21779706 0.04906594 -18.55479240 0.25098039 0.27450980 0.65882353
v -0.21385431 0.05067498 -18.54485130 0.25098039 0.27450980 0.65882353
v -0.23823419 0.03182592 -18.54600716 0.25098039 0.27450980 0.65882353
v -0.24010827 0.03399414 -18.53953362 0.25098039 0.27450980 0.65882353
v -0.23620321 0.05304925 -18.54496956 0.25098039 0.27450980 0.65882353
v -0.23496491 0.04970394 -18.55124474 0.25098039 0.27450980 0.65882353
v -0.21865045 0.03155892 -18.53730583 0.25098039 0.27450980 0.65882353
v -0.22198078 0.02901783 -18.54755020 0.25098039 0.27450980 0.65882353
v -0.21843809 0.02989040 -18.54299927 0.25098039 0.27450980 0.65882353
v -0.23508751 0.03568687 -18.53256416 0.25098039 0.27450980 0.65882353
v -0.23975986 0.02775506 -18.53761101 0.25098039 0.27450980 0.65882353
v -0.23746529 0.00835948 -18.54146194 0.25098039 0.27450980 0.65882353
v -0.23887388 0.02048936 -18.54264832 0.25098039 0.27450980 0.65882353
v -0.23513414 0.02009745 -18.54670334 0.25098039 0.27450980 0.65882353
v -0.23479643 0.00760871 -18.54612923 0.25098039 0.27450980 0.65882353
v -0.23891106 0.02611438 -18.54354668 0.25098039 0.27450980 0.65882353
v -0.23888388 0.02207266 -18.53662872 0.25098039 0.27450980 0.65882353
v -0.22032320 0.00770590 -18.54319382 0.25098039 0.27450980 0.65882353
v -0.22516826 0.00699106 -18.54774284 0.25098039 0.27450980 0.65882353
v -0.21902800 0.00797716 -18.53841400 0.25098039 0.27450980 0.65882353
v -0.23072715 0.05543460 -18.53859711 0.25098039 0.27450980 0.65882353
v -0.22545284 0.01045319 -18.52989197 0.25098039 0.27450980 0.65882353
v -0.22020185 0.00906417 -18.53411484 0.25098039 0.27450980 0.65882353
v -0.23005533 0.02060691 -18.54855156 0.25098039 0.27450980 0.65882353
v -0.23033589 0.00684118 -18.54862976 0.25098039 0.27450980 0.65882353
v -0.23722716 0.00929616 -18.53670311 0.25098039 0.27450980 0.65882353
v -0.23252006 0.01164468 -18.53079033 0.25098039 0.27450980 0.65882353
v -0.23590295 0.00361498 -18.53696251 0.25098039 0.27450980 0.65882353
v -0.23129770 0.00479366 -18.53186417 0.25098039 0.27450980 0.65882353
v -0.22418958 0.00422706 -18.53105354 0.25098039 0.27450980 0.65882353
v -0.21964788 0.00441639 -18.53520393 0.25098039 0.27450980 0.65882353
v -0.21892062 0.00474113 -18.53928375 0.25098039 0.27450980 0.65882353
v -0.23616514 0.00291175 -18.54156685 0.25098039 0.27450980 0.65882353
v -0.23390655 0.00283687 -18.54605293 0.25098039 0.27450980 0.65882353
v -0.22942862 0.00430566 -18.54838753 0.25098039 0.27450980 0.65882353
v -0.23375341 -0.00298686 -18.54447937 0.25098039 0.27450980 0.65882353
v -0.23325399 -0.00433654 -18.53997421 0.25098039 0.27450980 0.65882353
v -0.21678884 -0.01336333 -18.54033279 0.25098039 0.27450980 0.65882353
v -0.21863957 -0.00856367 -18.53737831 0.25098039 0.27450980 0.65882353
v -0.22109425 -0.00978082 -18.53724670 0.25098039 0.27450980 0.65882353
v -0.21948157 -0.01431514 -18.53980637 0.25098039 0.27450980 0.65882353
v -0.22218680 -0.00462282 -18.53389359 0.25098039 0.27450980 0.65882353
v -0.22353210 -0.00650945 -18.53506851 0.25098039 0.27450980 0.65882353
v -0.22819313 -0.00585142 -18.53617668 0.25098039 0.27450980 0.65882353
v -0.22572213 -0.01046598 -18.53919983 0.25098039 0.27450980 0.65882353
v -0.22957109 -0.00976282 -18.54234695 0.25098039 0.27450980 0.65882353
v -0.22804740 -0.01476967 -18.54431343 0.25098039 0.27450980 0.65882353
v -0.22424215 -0.01575218 -18.54124641 0.25098039 0.27450980 0.65882353
v -0.23064168 -0.00681733 -18.53928757 0.25098039 0.27450980 0.65882353
v -0.21939608 -0.01729420 -18.54175949 0.25098039 0.27450980 0.65882353
v -0.21777891 -0.01773515 -18.54370499 0.25098039 0.27450980 0.65882353
v -0.22928923 -0.00358103 -18.53418350 0.25098039 0.27450980 0.65882353
v -0.21890181 0.00030190 -18.53562927 0.25098039 0.27450980 0.65882353
v -0.21639132 -0.00739560 -18.53944588 0.25098039 0.27450980 0.65882353
v -0.21530494 -0.01257017 -18.54327011 0.25098039 0.27450980 0.65882353
v -0.21759599 -0.01722017 -18.54672432 0.25098039 0.27450980 0.65882353
v -0.21587971 -0.00650659 -18.54380035 0.25098039 0.27450980 0.65882353
v -0.21559784 -0.01180071 -18.54649353 0.25098039 0.27450980 0.65882353
v -0.21801424 -0.01557523 -18.54889107 0.25098039 0.27450980 0.65882353
v -0.21730870 -0.00568375 -18.54853058 0.25098039 0.27450980 0.65882353
v -0.21750262 -0.01110175 -18.55034065 0.25098039 0.27450980 0.65882353
v -0.21972793 0.00362529 -18.54452133 0.25098039 0.27450980 0.65882353
v -0.21782723 0.00248362 -18.54002762 0.25098039 0.27450980 0.65882353
v -0.21837959 -0.01362139 -18.55031967 0.25098039 0.27450980 0.65882353
v -0.22194211 -0.01984002 -18.54515266 0.25098039 0.27450980 0.65882353
v -0.22105339 -0.01901336 -18.54831123 0.25098039 0.27450980 0.65882353
v -0.22256894 -0.01890808 -18.54367447 0.25098039 0.27450980 0.65882353
v -0.23082545 -0.00928062 -18.54415131 0.25098039 0.27450980 0.65882353
v -0.22833046 -0.01450142 -18.54659462 0.25098039 0.27450980 0.65882353
v -0.23115581 -0.00862040 -18.54699135 0.25098039 0.27450980 0.65882353
v -0.22812171 -0.01445983 -18.54903793 0.25098039 0.27450980 0.65882353
v -0.22595479 -0.01836374 -18.54730606 0.25098039 0.27450980 0.65882353
v -0.22569671 -0.01844367 -18.54565239 0.25098039 0.27450980 0.65882353
v -0.22074170 0.00525485 -18.54348946 0.25098039 0.27450980 0.65882353
v -0.22517335 0.00508648 -18.54739952 0.25098039 0.27450980 0.65882353
v -0.22425115 0.00390829 -18.54834557 0.25098039 0.27450980 0.65882353
v -0.22184250 -0.00563148 -18.55169106 0.25098039 0.27450980 0.65882353
v -0.22899799 0.00273678 -18.54928589 0.25098039 0.27450980 0.65882353
v -0.23245418 -0.00113261 -18.54753876 0.25098039 0.27450980 0.65882353
v -0.23021682 -0.00739515 -18.54956055 0.25098039 0.27450980 0.65882353
v -0.22676277 -0.00651371 -18.55188751 0.25098039 0.27450980 0.65882353
v -0.22799644 -0.01361948 -18.55114555 0.25098039 0.27450980 0.65882353
v -0.22604156 -0.01117098 -18.55236435 0.25098039 0.27450980 0.65882353
v -0.22107300 -0.01060455 -18.55251503 0.25098039 0.27450980 0.65882353
v -0.22517243 -0.01723149 -18.55118752 0.25098039 0.27450980 0.65882353
v -0.22566333 -0.01827341 -18.54905701 0.25098039 0.27450980 0.65882353
v -0.22083271 -0.01746303 -18.54991150 0.25098039 0.27450980 0.65882353
v -0.22431824 -0.01463193 -18.55237389 0.25098039 0.27450980 0.65882353
v -0.22067937 -0.01463392 -18.55153084 0.25098039 0.27450980 0.65882353
v -0.23515011 0.02781522 -18.55787086 0.25098039 0.27450980 0.65882353
v -0.23603538 0.02742787 -18.56404877 0.25098039 0.27450980 0.65882353
v -0.23580551 0.03072145 -18.56431198 0.25098039 0.27450980 0.65882353
v -0.23485953 0.03116380 -18.55825996 0.25098039 0.27450980 0.65882353
v -0.24697092 0.02899124 -18.55227280 0.25098039 0.27450980 0.65882353
v -0.24209112 0.02798708 -18.55149651 0.25098039 0.27450980 0.65882353
v -0.24186984 0.03248322 -18.55161095 0.25098039 0.27450980 0.65882353
v -0.24683560 0.03485912 -18.55219650 0.25098039 0.27450980 0.65882353
v -0.25085151 0.02763569 -18.55650139 0.25098039 0.27450980 0.65882353
v -0.25130892 0.03538159 -18.55673409 0.25098039 0.27450980 0.65882353
v -0.24656156 0.04087028 -18.55213356 0.25098039 0.27450980 0.65882353
v -0.24117470 0.03716215 -18.55183983 0.25098039 0.27450980 0.65882353
v -0.23636848 0.05162042 -18.55566406 0.25098039 0.27450980 0.65882353
v -0.24316671 0.05436968 -18.55590820 0.25098039 0.27450980 0.65882353
v -0.23795578 0.02792239 -18.55393982 0.25098039 0.27450980 0.65882353
v -0.23749994 0.03147488 -18.55413437 0.25098039 0.27450980 0.65882353
v -0.24188423 0.03354041 -18.57227516 0.25098039 0.27450980 0.65882353
v -0.23727348 0.03299555 -18.57008553 0.25098039 0.27450980 0.65882353
v -0.23923078 0.03019722 -18.56903076 0.25098039 0.27450980 0.65882353
v -0.24331333 0.03045396 -18.57071877 0.25098039 0.27450980 0.65882353
v -0.22801368 0.04937854 -18.56425667 0.25098039 0.27450980 0.65882353
v -0.23051253 0.05034003 -18.57059479 0.25098039 0.27450980 0.65882353
v -0.23085146 0.04926545 -18.55906868 0.25098039 0.27450980 0.65882353
v -0.24837472 0.03567108 -18.57061577 0.25098039 0.27450980 0.65882353
v -0.25256681 0.03956775 -18.56506157 0.25098039 0.27450980 0.65882353
v -0.24881361 0.05289823 -18.57031822 0.25098039 0.27450980 0.65882353
v -0.24409972 0.05091835 -18.57473755 0.25098039 0.27450980 0.65882353
v -0.23660631 0.03502832 -18.55424118 0.25098039 0.27450980 0.65882353
v -0.23369867 0.03348055 -18.56517982 0.25098039 0.27450980 0.65882353
v -0.23308861 0.03375767 -18.55882072 0.25098039 0.27450980 0.65882353
v -0.25067988 0.04162353 -18.55729866 0.25098039 0.27450980 0.65882353
v -0.25227252 0.03323280 -18.56390572 0.25098039 0.27450980 0.65882353
v -0.24960902 0.01137115 -18.56709862 0.25098039 0.27450980 0.65882353
v -0.24971341 0.02734483 -18.56860733 0.25098039 0.27450980 0.65882353
v -0.24369797 0.02703305 -18.57041359 0.25098039 0.27450980 0.65882353
v -0.24571931 0.01173414 -18.56960487 0.25098039 0.27450980 0.65882353
v -0.24904752 0.03112508 -18.56945419 0.25098039 0.27450980 0.65882353
v -0.25247639 0.02780285 -18.56319427 0.25098039 0.27450980 0.65882353
v -0.23456153 0.01286835 -18.55922508 0.25098039 0.27450980 0.65882353
v -0.23634967 0.01305160 -18.56500626 0.25098039 0.27450980 0.65882353
v -0.23663898 0.01360843 -18.55513382 0.25098039 0.27450980 0.65882353
v -0.24863733 0.05522151 -18.56157494 0.25098039 0.27450980 0.65882353
v -0.23684303 0.05006870 -18.57588196 0.25098039 0.27450980 0.65882353
v -0.24394494 0.01249506 -18.55216026 0.25098039 0.27450980 0.65882353
v -0.23941812 0.01314829 -18.55285263 0.25098039 0.27450980 0.65882353
v -0.23945014 0.02719316 -18.56865883 0.25098039 0.27450980 0.65882353
v -0.24079868 0.01243679 -18.56929588 0.25098039 0.27450980 0.65882353
v -0.25146425 0.01217984 -18.56227112 0.25098039 0.27450980 0.65882353
v -0.24940620 0.01332259 -18.55562401 0.25098039 0.27450980 0.65882353
v -0.24964561 0.00633824 -18.56353188 0.25098039 0.27450980 0.65882353
v -0.24757446 0.00672895 -18.55706787 0.25098039 0.27450980 0.65882353
v -0.24227141 0.00643757 -18.55361557 0.25098039 0.27450980 0.65882353
v -0.23782654 0.00829720 -18.55426025 0.25098039 0.27450980 0.65882353
v -0.23531699 0.00955753 -18.55637360 0.25098039 0.27450980 0.65882353
v -0.24748275 0.00691709 -18.56836510 0.25098039 0.27450980 0.65882353
v -0.24405845 0.00844546 -18.57009125 0.25098039 0.27450980 0.65882353
v -0.24050198 0.01138957 -18.56871986 0.25098039 0.27450980 0.65882353
v -0.24474378 0.00437248 -18.57030678 0.25098039 0.27450980 0.65882353
v -0.24572140 0.00076328 -18.56581497 0.25098039 0.27450980 0.65882353
v -0.23042136 -0.00650558 -18.56264687 0.25098039 0.27450980 0.65882353
v -0.23377866 -0.00260898 -18.55992126 0.25098039 0.27450980 0.65882353
v -0.23479864 -0.00306816 -18.56059647 0.25098039 0.27450980 0.65882353
v -0.23180711 -0.00737631 -18.56314087 0.25098039 0.27450980 0.65882353
v -0.23920047 0.00041188 -18.55702400 0.25098039 0.27450980 0.65882353
v -0.23903307 -0.00089854 -18.55857849 0.25098039 0.27450980 0.65882353
v -0.24243112 -0.00083734 -18.56090355 0.25098039 0.27450980 0.65882353
v -0.23846918 -0.00484301 -18.56405830 0.25098039 0.27450980 0.65882353
v -0.24062663 -0.00245346 -18.56946754 0.25098039 0.27450980 0.65882353
v -0.23699352 -0.00582804 -18.57084656 0.25098039 0.27450980 0.65882353
v -0.23514841 -0.00858055 -18.56623840 0.25098039 0.27450980 0.65882353
v -0.24392089 -0.00038263 -18.56548309 0.25098039 0.27450980 0.65882353
v -0.23072812 -0.00949773 -18.56524467 0.25098039 0.27450980 0.65882353
v -0.22899376 -0.01000682 -18.56450272 0.25098039 0.27450980 0.65882353
v -0.24426377 0.00046797 -18.55960846 0.25098039 0.27450980 0.65882353
v -0.23548399 0.00372972 -18.55555153 0.25098039 0.27450980 0.65882353
v -0.23115765 -0.00108755 -18.55935287 0.25098039 0.27450980 0.65882353
v -0.22758257 -0.00488491 -18.56211662 0.25098039 0.27450980 0.65882353
v -0.22665067 -0.00739688 -18.56564713 0.25098039 0.27450980 0.65882353
v -0.22913983 0.00143793 -18.56158829 0.25098039 0.27450980 0.65882353
v -0.22672325 -0.00248797 -18.56403923 0.25098039 0.27450980 0.65882353
v -0.22587776 -0.00496309 -18.56712341 0.25098039 0.27450980 0.65882353
v -0.22864716 0.00323546 -18.56460762 0.25098039 0.27450980 0.65882353
v -0.22690594 -0.00044996 -18.56675911 0.25098039 0.27450980 0.65882353
v -0.23351817 0.00959997 -18.56056213 0.25098039 0.27450980 0.65882353
v -0.23372363 0.00702184 -18.55734253 0.25098039 0.27450980 0.65882353
v -0.22642764 -0.00299507 -18.56833649 0.25098039 0.27450980 0.65882353
v -0.23120606 -0.01100761 -18.56872749 0.25098039 0.27450980 0.65882353
v -0.22862774 -0.00846280 -18.57095528 0.25098039 0.27450980 0.65882353
v -0.23235708 -0.00999278 -18.56791496 0.25098039 0.27450980 0.65882353
v -0.24128845 -0.00129180 -18.57095718 0.25098039 0.27450980 0.65882353
v -0.23685479 -0.00555915 -18.57324982 0.25098039 0.27450980 0.65882353
v -0.24021612 0.00072059 -18.57299423 0.25098039 0.27450980 0.65882353
v -0.23590186 -0.00364818 -18.57495308 0.25098039 0.27450980 0.65882353
v -0.23406060 -0.00874017 -18.57255745 0.25098039 0.27450980 0.65882353
v -0.23436774 -0.00862268 -18.57144165 0.25098039 0.27450980 0.65882353
v -0.23489873 0.01098977 -18.56013298 0.25098039 0.27450980 0.65882353
v -0.23675387 0.01187491 -18.56515694 0.25098039 0.27450980 0.65882353
v -0.23535094 0.01117815 -18.56522560 0.25098039 0.27450980 0.65882353
v -0.22987783 0.00468083 -18.56938553 0.25098039 0.27450980 0.65882353
v -0.23880023 0.01090387 -18.56903076 0.25098039 0.27450980 0.65882353
v -0.24139801 0.00629084 -18.57162857 0.25098039 0.27450980 0.65882353
v -0.23730683 0.00271192 -18.57358932 0.25098039 0.27450980 0.65882353
v -0.23344100 0.00396433 -18.57275391 0.25098039 0.27450980 0.65882353
v -0.23390701 -0.00151899 -18.57522202 0.25098039 0.27450980 0.65882353
v -0.23214041 0.00036953 -18.57380867 0.25098039 0.27450980 0.65882353
v -0.22797845 0.00090292 -18.57078743 0.25098039 0.27450980 0.65882353
v -0.23116277 -0.00447638 -18.57405853 0.25098039 0.27450980 0.65882353
v -0.23268318 -0.00699194 -18.57408142 0.25098039 0.27450980 0.65882353
v -0.22750738 -0.00554764 -18.57136726 0.25098039 0.27450980 0.65882353
v -0.22998583 -0.00233001 -18.57357216 0.25098039 0.27450980 0.65882353
v -0.22725372 -0.00306499 -18.57139206 0.25098039 0.27450980 0.65882353
v -0.23325619 0.05036592 -18.57451057 0.25098039 0.27450980 0.65882353
v -0.24011567 0.03482612 -18.58544922 0.25098039 0.27450980 0.65882353
v -0.24034710 0.03417989 -18.58977509 0.25098039 0.27450980 0.65882353
v -0.24076682 0.03741141 -18.59113121 0.25098039 0.27450980 0.65882353
v -0.23950115 0.03876764 -18.58714104 0.25098039 0.27450980 0.65882353
v -0.25039548 0.03743007 -18.58124161 0.25098039 0.27450980 0.65882353
v -0.24592552 0.03636565 -18.58051491 0.25098039 0.27450980 0.65882353
v -0.24545036 0.04100046 -18.58132744 0.25098039 0.27450980 0.65882353
v -0.24978125 0.04202928 -18.58192253 0.25098039 0.27450980 0.65882353
v -0.25375521 0.03708562 -18.58506203 0.25098039 0.27450980 0.65882353
v -0.25327843 0.04150376 -18.58594513 0.25098039 0.27450980 0.65882353
v -0.24988383 0.04583760 -18.58187675 0.25098039 0.27450980 0.65882353
v -0.24501164 0.04489245 -18.58156395 0.25098039 0.27450980 0.65882353
v -0.24208748 0.05913077 -18.58227158 0.25098039 0.27450980 0.65882353
v -0.24733388 0.06201754 -18.58338356 0.25098039 0.27450980 0.65882353
v -0.24367619 0.06219412 -18.60292435 0.25098039 0.27450980 0.65882353
v -0.23804955 0.06114590 -18.60235023 0.25098039 0.27450980 0.65882353
v -0.24032865 0.05395436 -18.59994316 0.25098039 0.27450980 0.65882353
v -0.24489985 0.05551091 -18.60171127 0.25098039 0.27450980 0.65882353
v -0.24233398 0.03555883 -18.58224297 0.25098039 0.27450980 0.65882353
v -0.24105783 0.03971914 -18.58328629 0.25098039 0.27450980 0.65882353
v -0.24738902 0.04143789 -18.59884071 0.25098039 0.27450980 0.65882353
v -0.24300456 0.04059380 -18.59683037 0.25098039 0.27450980 0.65882353
v -0.24270986 0.03709974 -18.59511185 0.25098039 0.27450980 0.65882353
v -0.24681382 0.03686351 -18.59775925 0.25098039 0.27450980 0.65882353
v -0.23501101 0.05895866 -18.59784126 0.25098039 0.27450980 0.65882353
v -0.23387934 0.05766051 -18.59316444 0.25098039 0.27450980 0.65882353
v -0.23501049 0.05434313 -18.59159470 0.25098039 0.27450980 0.65882353
v -0.23723525 0.05280690 -18.59571457 0.25098039 0.27450980 0.65882353
v -0.23633486 0.05489893 -18.58601952 0.25098039 0.27450980 0.65882353
v -0.25136608 0.04246569 -18.59770966 0.25098039 0.27450980 0.65882353
v -0.25460732 0.04413512 -18.59296799 0.25098039 0.27450980 0.65882353
v -0.25307247 0.06069004 -18.59703445 0.25098039 0.27450980 0.65882353
v -0.24940686 0.05872665 -18.60074997 0.25098039 0.27450980 0.65882353
v -0.24112687 0.04274563 -18.58327866 0.25098039 0.27450980 0.65882353
v -0.24026029 0.04053967 -18.59272766 0.25098039 0.27450980 0.65882353
v -0.23932602 0.04109660 -18.58815193 0.25098039 0.27450980 0.65882353
v -0.25414342 0.04549804 -18.58608246 0.25098039 0.27450980 0.65882353
v -0.25395846 0.03963041 -18.59209824 0.25098039 0.27450980 0.65882353
v -0.25118694 0.02524568 -18.59450340 0.25098039 0.27450980 0.65882353
v -0.25116163 0.03418461 -18.59629440 0.25098039 0.27450980 0.65882353
v -0.24626410 0.03330065 -18.59687042 0.25098039 0.27450980 0.65882353
v -0.24801791 0.02509602 -18.59507179 0.25098039 0.27450980 0.65882353
v -0.25113723 0.03800442 -18.59673691 0.25098039 0.27450980 0.65882353
v -0.25443128 0.03520549 -18.59138298 0.25098039 0.27450980 0.65882353
v -0.24069691 0.02657613 -18.58421326 0.25098039 0.27450980 0.65882353
v -0.24167137 0.02617693 -18.58978844 0.25098039 0.27450980 0.65882353
v -0.24244311 0.02701288 -18.58129692 0.25098039 0.27450980 0.65882353
v -0.25229761 0.06260587 -18.58862495 0.25098039 0.27450980 0.65882353
v -0.25020581 0.02749918 -18.58009338 0.25098039 0.27450980 0.65882353
v -0.24567527 0.02691296 -18.57951355 0.25098039 0.27450980 0.65882353
v -0.24244696 0.03352264 -18.59368896 0.25098039 0.27450980 0.65882353
v -0.24448022 0.02556188 -18.59351730 0.25098039 0.27450980 0.65882353
v -0.25411689 0.02600275 -18.59094238 0.25098039 0.27450980 0.65882353
v -0.25437623 0.02764180 -18.58448982 0.25098039 0.27450980 0.65882353
v -0.25274748 0.02109350 -18.59017181 0.25098039 0.27450980 0.65882353
v -0.25310814 0.02298975 -18.58383369 0.25098039 0.27450980 0.65882353
v -0.24818492 0.02316051 -18.57980156 0.25098039 0.27450980 0.65882353
v -0.24440293 0.02425051 -18.58004189 0.25098039 0.27450980 0.65882353
v -0.24159358 0.02467319 -18.58166695 0.25098039 0.27450980 0.65882353
v -0.24987888 0.02109697 -18.59402466 0.25098039 0.27450980 0.65882353
v -0.24684225 0.02176740 -18.59485245 0.25098039 0.27450980 0.65882353
v -0.24359739 0.02334137 -18.59348106 0.25098039 0.27450980 0.65882353
v -0.24825744 0.01718501 -18.59363556 0.25098039 0.27450980 0.65882353
v -0.24975656 0.01551028 -18.58928490 0.25098039 0.27450980 0.65882353
v -0.23881198 0.01086842 -18.58292770 0.25098039 0.27450980 0.65882353
v -0.24083543 0.01436587 -18.58196068 0.25098039 0.27450980 0.65882353
v -0.24188238 0.01380402 -18.58227348 0.25098039 0.27450980 0.65882353
v -0.23968236 0.01028779 -18.58256912 0.25098039 0.27450980 0.65882353
v -0.24497694 0.01793712 -18.58097839 0.25098039 0.27450980 0.65882353
v -0.24518256 0.01643527 -18.58187294 0.25098039 0.27450980 0.65882353
v -0.24816850 0.01658196 -18.58404350 0.25098039 0.27450980 0.65882353
v -0.24522395 0.01208269 -18.58443832 0.25098039 0.27450980 0.65882353
v -0.24630667 0.01106723 -18.58978081 0.25098039 0.27450980 0.65882353
v -0.24384089 0.00769593 -18.58956146 0.25098039 0.27450980 0.65882353
v -0.24329346 0.00874987 -18.58479309 0.25098039 0.27450980 0.65882353
v -0.24888882 0.01440277 -18.58782578 0.25098039 0.27450980 0.65882353
v -0.23928255 0.00759108 -18.58317566 0.25098039 0.27450980 0.65882353
v -0.23810169 0.00707810 -18.58319664 0.25098039 0.27450980 0.65882353
v -0.24969453 0.01799170 -18.58362389 0.25098039 0.27450980 0.65882353
v -0.24180365 0.02069923 -18.58078766 0.25098039 0.27450980 0.65882353
v -0.23830703 0.01490156 -18.58212662 0.25098039 0.27450980 0.65882353
v -0.23654021 0.01033710 -18.58326912 0.25098039 0.27450980 0.65882353
v -0.23653112 0.00697987 -18.58488083 0.25098039 0.27450980 0.65882353
v -0.23679017 0.01648632 -18.58356285 0.25098039 0.27450980 0.65882353
v -0.23484403 0.01113863 -18.58469963 0.25098039 0.27450980 0.65882353
v -0.23502471 0.00789082 -18.58641052 0.25098039 0.27450980 0.65882353
v -0.23571467 0.01762538 -18.58664703 0.25098039 0.27450980 0.65882353
v -0.23449723 0.01218805 -18.58704758 0.25098039 0.27450980 0.65882353
v -0.23849396 0.02329627 -18.58621597 0.25098039 0.27450980 0.65882353
v -0.23949479 0.02222318 -18.58282852 0.25098039 0.27450980 0.65882353
v -0.23495200 0.00921127 -18.58756447 0.25098039 0.27450980 0.65882353
v -0.24014485 0.00493881 -18.58573341 0.25098039 0.27450980 0.65882353
v -0.23783360 0.00547381 -18.58750153 0.25098039 0.27450980 0.65882353
v -0.24140766 0.00555922 -18.58535767 0.25098039 0.27450980 0.65882353
v -0.24631327 0.01130711 -18.59126472 0.25098039 0.27450980 0.65882353
v -0.24326147 0.00732458 -18.59101486 0.25098039 0.27450980 0.65882353
v -0.24513803 0.01216283 -18.59342384 0.25098039 0.27450980 0.65882353
v -0.24160893 0.00786057 -18.59239578 0.25098039 0.27450980 0.65882353
v -0.24131952 0.00504990 -18.58916664 0.25098039 0.27450980 0.65882353
v -0.24239074 0.00584513 -18.58801079 0.25098039 0.27450980 0.65882353
v -0.23961617 0.02462609 -18.58544350 0.25098039 0.27450980 0.65882353
v -0.24089818 0.02442117 -18.58967590 0.25098039 0.27450980 0.65882353
v -0.23991844 0.02281072 -18.59055328 0.25098039 0.27450980 0.65882353
v -0.23677485 0.01746339 -18.59077263 0.25098039 0.27450980 0.65882353
v -0.24277198 0.02139938 -18.59401512 0.25098039 0.27450980 0.65882353
v -0.24592376 0.01909745 -18.59485054 0.25098039 0.27450980 0.65882353
v -0.24277079 0.01352624 -18.59437561 0.25098039 0.27450980 0.65882353
v -0.23968147 0.01536313 -18.59392929 0.25098039 0.27450980 0.65882353
v -0.23960297 0.00871775 -18.59287834 0.25098039 0.27450980 0.65882353
v -0.23730418 0.01078362 -18.59255409 0.25098039 0.27450980 0.65882353
v -0.23518422 0.01223340 -18.59037590 0.25098039 0.27450980 0.65882353
v -0.23772591 0.00668471 -18.59045410 0.25098039 0.27450980 0.65882353
v -0.23915227 0.00548311 -18.59008026 0.25098039 0.27450980 0.65882353
v -0.23647565 0.00667636 -18.58856583 0.25098039 0.27450980 0.65882353
v -0.23652528 0.00820704 -18.59067535 0.25098039 0.27450980 0.65882353
v -0.23561487 0.00867075 -18.58937263 0.25098039 0.27450980 0.65882353
v -0.24746765 0.06238508 -18.60113335 0.25098039 0.27450980 0.65882353
v -0.14562072 0.07176614 -18.56135750 0.25098039 0.27450980 0.65882353
v -0.15091173 0.06882406 -18.56165123 0.25098039 0.27450980 0.65882353
v -0.15145427 0.06163827 -18.57837868 0.25098039 0.27450980 0.65882353
v -0.15477155 0.06133068 -18.57110977 0.25098039 0.27450980 0.65882353
v -0.14562424 0.06400113 -18.58208847 0.25098039 0.27450980 0.65882353
v -0.13727796 0.07134706 -18.57767868 0.25098039 0.27450980 0.65882353
v -0.14106938 0.06826659 -18.58175468 0.25098039 0.27450980 0.65882353
v -0.15452020 0.06411570 -18.56506920 0.25098039 0.27450980 0.65882353
v -0.14030950 0.07414766 -18.56425667 0.25098039 0.27450980 0.65882353
v -0.13653368 0.07437019 -18.57098770 0.25098039 0.27450980 0.65882353
v -0.13739389 0.06703253 -18.56089783 0.25098039 0.27450980 0.65882353
v -0.13307425 0.06674608 -18.56802750 0.25098039 0.27450980 0.65882353
v -0.13291246 0.06354272 -18.57481384 0.25098039 0.27450980 0.65882353
v -0.13806298 0.06103648 -18.57972145 0.25098039 0.27450980 0.65882353
v -0.14264385 0.05868057 -18.58083725 0.25098039 0.27450980 0.65882353
v -0.14434408 0.06530874 -18.55937386 0.25098039 0.27450980 0.65882353
v -0.14966339 0.06267787 -18.56038094 0.25098039 0.27450980 0.65882353
v -0.15346709 0.05942514 -18.56543159 0.25098039 0.27450980 0.65882353
v -0.14426425 0.05706795 -18.55798721 0.25098039 0.27450980 0.65882353
v -0.13734151 0.04946458 -18.55868912 0.25098039 0.27450980 0.65882353
v -0.13050410 0.03590343 -18.57024384 0.25098039 0.27450980 0.65882353
v -0.13208345 0.04197920 -18.57248688 0.25098039 0.27450980 0.65882353
v -0.13118580 0.04218270 -18.56964111 0.25098039 0.27450980 0.65882353
v -0.12920862 0.03676116 -18.56795692 0.25098039 0.27450980 0.65882353
v -0.13192935 0.04738685 -18.57147408 0.25098039 0.27450980 0.65882353
v -0.13202804 0.04615470 -18.56929779 0.25098039 0.27450980 0.65882353
v -0.13327509 0.04816660 -18.56455421 0.25098039 0.27450980 0.65882353
v -0.13157320 0.04327191 -18.56320190 0.25098039 0.27450980 0.65882353
v -0.13598287 0.04738367 -18.56014252 0.25098039 0.27450980 0.65882353
v -0.13610512 0.04376905 -18.55879211 0.25098039 0.27450980 0.65882353
v -0.13009994 0.03838327 -18.56165123 0.25098039 0.27450980 0.65882353
v -0.12799875 0.03423423 -18.56516075 0.25098039 0.27450980 0.65882353
v -0.12915495 0.03395261 -18.56053543 0.25098039 0.27450980 0.65882353
v -0.12990957 0.03202219 -18.56663895 0.25098039 0.27450980 0.65882353
v -0.13176191 0.04997001 -18.56398010 0.25098039 0.27450980 0.65882353
v -0.13494125 0.05127248 -18.57695389 0.25098039 0.27450980 0.65882353
v -0.13465174 0.04248565 -18.57535744 0.25098039 0.27450980 0.65882353
v -0.13381764 0.03528900 -18.57221985 0.25098039 0.27450980 0.65882353
v -0.13290960 0.03114144 -18.56760025 0.25098039 0.27450980 0.65882353
v -0.13915437 0.04212780 -18.57633781 0.25098039 0.27450980 0.65882353
v -0.13826279 0.03588050 -18.57237434 0.25098039 0.27450980 0.65882353
v -0.13777162 0.03239886 -18.56770515 0.25098039 0.27450980 0.65882353
v -0.14390288 0.04207344 -18.57448196 0.25098039 0.27450980 0.65882353
v -0.14183541 0.03658581 -18.57048607 0.25098039 0.27450980 0.65882353
v -0.14721829 0.05411574 -18.57739830 0.25098039 0.27450980 0.65882353
v -0.14089841 0.05315453 -18.57972145 0.25098039 0.27450980 0.65882353
v -0.14015034 0.03398633 -18.56749535 0.25098039 0.27450980 0.65882353
v -0.13047208 0.03144013 -18.56046486 0.25098039 0.27450980 0.65882353
v -0.13397253 0.03054407 -18.56145859 0.25098039 0.27450980 0.65882353
v -0.13920443 0.04459257 -18.55695724 0.25098039 0.27450980 0.65882353
v -0.13430621 0.03927329 -18.55683899 0.25098039 0.27450980 0.65882353
v -0.13757317 0.03890066 -18.55608749 0.25098039 0.27450980 0.65882353
v -0.14313690 0.04583474 -18.55676079 0.25098039 0.27450980 0.65882353
v -0.14048542 0.03852725 -18.55624199 0.25098039 0.27450980 0.65882353
v -0.13433255 0.03436840 -18.55659866 0.25098039 0.27450980 0.65882353
v -0.13201433 0.03605101 -18.55738258 0.25098039 0.27450980 0.65882353
v -0.14870696 0.05778673 -18.57829475 0.25098039 0.27450980 0.65882353
v -0.15277353 0.05839699 -18.57238960 0.25098039 0.27450980 0.65882353
v -0.15127495 0.05527299 -18.57156372 0.25098039 0.27450980 0.65882353
v -0.14814924 0.04352737 -18.56920433 0.25098039 0.27450980 0.65882353
v -0.15232150 0.05530932 -18.56504440 0.25098039 0.27450980 0.65882353
v -0.14885375 0.05625133 -18.55980682 0.25098039 0.27450980 0.65882353
v -0.14661090 0.04539990 -18.55850601 0.25098039 0.27450980 0.65882353
v -0.14887817 0.04472734 -18.56296539 0.25098039 0.27450980 0.65882353
v -0.14333095 0.03806797 -18.55866241 0.25098039 0.27450980 0.65882353
v -0.14451684 0.03800102 -18.56162262 0.25098039 0.27450980 0.65882353
v -0.14414527 0.03692547 -18.56660080 0.25098039 0.27450980 0.65882353
v -0.14026880 0.03395700 -18.55974770 0.25098039 0.27450980 0.65882353
v -0.13750555 0.03373654 -18.55734825 0.25098039 0.27450980 0.65882353
v -0.13823783 0.03185480 -18.56301498 0.25098039 0.27450980 0.65882353
v -0.14192396 0.03508832 -18.56174278 0.25098039 0.27450980 0.65882353
v -0.14089255 0.03394502 -18.56448364 0.25098039 0.27450980 0.65882353
v -0.23565140 0.06567533 -18.60475731 0.25098039 0.27450980 0.65882353
v -0.23111627 0.06382454 -18.59996986 0.25098039 0.27450980 0.65882353
v -0.22937073 0.06877816 -18.60386276 0.25098039 0.27450980 0.65882353
v -0.22478920 0.07507846 -18.60903931 0.25098039 0.27450980 0.65882353
v -0.22596876 0.08314560 -18.61604309 0.25098039 0.27450980 0.65882353
v -0.22013262 0.07538283 -18.60359955 0.25098039 0.27450980 0.65882353
v -0.22510430 0.06880528 -18.59863091 0.25098039 0.27450980 0.65882353
v -0.22802451 0.06170661 -18.59270477 0.25098039 0.27450980 0.65882353
v -0.21234708 0.08218722 -18.60204506 0.25098039 0.27450980 0.65882353
f 2 3 1
f 1 3 4
f 5 6 8
f 8 6 7
f 9 4 10
f 10 4 3
f 12 13 11
f 11 13 9
f 14 12 16
f 16 12 15
f 18 19 17
f 17 19 20
f 22 23 21
f 21 23 24
f 26 27 25
f 25 27 28
f 30 31 29
f 29 31 32
f 33 34 36
f 36 34 35
f 37 38 40
f 40 38 39
f 41 42 6
f 6 42 43
f 6 43 7
f 7 43 44
f 45 34 46
f 46 34 33
f 48 49 47
f 47 49 50
f 52 53 51
f 51 53 54
f 56 52 55
f 55 52 51
f 58 59 57
f 57 59 60
f 61 62 4
f 4 62 1
f 64 65 63
f 63 65 66
f 68 69 67
f 67 69 70
f 72 73 71
f 71 73 74
f 76 77 75
f 75 77 78
f 53 79 54
f 54 79 80
f 82 83 81
f 81 83 84
f 85 86 52
f 52 86 53
f 57 60 87
f 87 60 88
f 89 90 43
f 43 90 44
f 43 42 89
f 89 42 91
f 40 39 92
f 92 39 93
f 94 70 64
f 64 70 69
f 13 61 9
f 9 61 4
f 25 28 69
f 69 28 95
f 96 25 68
f 68 25 69
f 98 99 97
f 97 99 100
f 101 102 104
f 104 102 103
f 106 30 105
f 105 30 29
f 51 54 107
f 107 54 108
f 54 80 108
f 108 80 109
f 111 112 110
f 110 112 113
f 115 5 114
f 114 5 116
f 115 41 5
f 5 41 6
f 36 35 111
f 111 35 117
f 35 118 117
f 117 118 119
f 34 120 35
f 35 120 118
f 34 45 120
f 120 45 121
f 125 126 124
f 124 126 127
f 128 129 14
f 14 129 130
f 33 131 46
f 46 131 132
f 133 94 63
f 63 94 64
f 134 135 137
f 137 135 136
f 139 140 138
f 138 140 141
f 77 142 78
f 78 142 143
f 144 145 20
f 20 145 146
f 148 149 147
f 147 149 72
f 151 152 150
f 150 152 153
f 82 101 83
f 83 101 104
f 101 82 155
f 155 82 154
f 156 157 58
f 58 157 59
f 158 68 147
f 147 68 67
f 159 146 15
f 15 146 16
f 68 158 96
f 96 158 160
f 129 66 130
f 130 66 65
f 162 163 161
f 161 163 164
f 166 167 165
f 165 167 168
f 170 171 169
f 169 171 172
f 174 171 173
f 173 171 170
f 176 177 175
f 175 177 178
f 180 181 179
f 179 181 24
f 182 183 21
f 21 183 184
f 81 185 82
f 82 185 154
f 186 187 188
f 188 187 144
f 158 71 160
f 160 71 189
f 190 135 157
f 157 135 59
f 169 172 139
f 139 172 140
f 147 72 158
f 158 72 71
f 192 193 191
f 191 193 194
f 167 166 49
f 49 166 195
f 196 190 50
f 50 190 157
f 197 198 200
f 200 198 199
f 21 24 182
f 182 24 181
f 146 159 20
f 20 159 17
f 182 181 81
f 81 181 185
f 201 185 180
f 180 185 181
f 202 203 83
f 83 203 84
f 205 206 204
f 204 206 85
f 207 22 184
f 184 22 21
f 179 24 208
f 208 24 23
f 208 209 179
f 179 209 205
f 209 210 205
f 205 210 206
f 212 206 211
f 211 206 210
f 179 205 180
f 180 205 204
f 213 176 88
f 88 176 214
f 86 85 212
f 212 85 206
f 193 217 218
f 217 219 218
f 218 219 220
f 219 18 220
f 220 18 17
f 19 221 20
f 20 221 144
f 222 223 225
f 225 223 224
f 175 226 176
f 176 226 214
f 227 87 214
f 214 87 88
f 220 17 228
f 228 17 159
f 134 213 60
f 60 213 88
f 138 229 151
f 151 229 152
f 193 192 210
f 210 192 211
f 230 194 218
f 218 194 193
f 231 232 228
f 228 232 230
f 233 234 91
f 91 234 89
f 235 236 93
f 93 236 92
f 230 232 234
f 234 232 237
f 47 238 48
f 48 238 239
f 240 191 235
f 235 191 236
f 5 8 116
f 116 8 241
f 242 243 189
f 189 243 160
f 244 245 98
f 98 245 99
f 156 246 47
f 47 246 238
f 76 247 77
f 77 247 248
f 250 125 249
f 249 125 124
f 252 253 251
f 251 253 254
f 111 110 36
f 36 110 255
f 256 33 255
f 255 33 36
f 257 258 154
f 154 258 155
f 63 169 133
f 133 169 139
f 66 170 63
f 63 170 169
f 173 170 129
f 129 170 66
f 129 128 173
f 173 128 259
f 128 260 259
f 259 260 261
f 213 134 262
f 262 134 137
f 263 264 186
f 186 264 187
f 112 265 113
f 113 265 266
f 11 267 268
f 234 233 230
f 230 233 194
f 153 269 70
f 70 269 67
f 175 178 165
f 165 178 141
f 150 153 94
f 94 153 70
f 271 221 270
f 270 221 207
f 269 153 272
f 272 153 152
f 121 45 109
f 109 45 108
f 47 50 156
f 156 50 157
f 57 273 58
f 58 273 274
f 145 275 260
f 260 275 261
f 276 149 143
f 143 149 78
f 148 269 75
f 75 269 272
f 207 277 270
f 270 277 278
f 195 196 49
f 49 196 50
f 59 135 60
f 60 135 134
f 83 104 202
f 202 104 279
f 149 148 78
f 78 148 75
f 247 278 248
f 248 278 277
f 183 182 84
f 84 182 81
f 48 239 281
f 281 239 282
f 227 223 283
f 283 223 222
f 223 226 224
f 224 226 168
f 281 282 224
f 224 282 225
f 165 168 175
f 175 168 226
f 264 263 138
f 138 263 229
f 14 16 128
f 128 16 260
f 220 228 218
f 218 228 230
f 87 227 284
f 284 227 283
f 260 16 145
f 145 16 146
f 244 98 258
f 258 98 155
f 58 274 156
f 156 274 246
f 107 285 51
f 51 285 55
f 243 286 160
f 160 286 96
f 234 237 89
f 89 237 90
f 46 132 107
f 107 132 285
f 253 252 249
f 249 252 250
f 286 26 96
f 96 26 25
f 106 105 287
f 287 105 288
f 272 152 289
f 289 152 229
f 138 151 139
f 139 151 133
f 183 290 161
f 161 290 162
f 291 292 277
f 277 292 293
f 151 150 133
f 133 150 94
f 262 275 177
f 177 275 187
f 144 187 145
f 145 187 275
f 273 57 284
f 284 57 87
f 174 136 190
f 190 136 135
f 111 117 112
f 112 117 38
f 117 119 38
f 38 119 123
f 112 38 265
f 265 38 37
f 287 288 254
f 254 288 251
f 228 159 231
f 231 159 15
f 223 227 226
f 226 227 214
f 147 67 148
f 148 67 269
f 224 168 281
f 281 168 167
f 199 163 200
f 200 163 162
f 45 46 108
f 108 46 107
f 281 167 48
f 48 167 49
f 161 164 291
f 291 164 292
f 38 123 39
f 293 294 277
f 277 294 248
f 284 283 296
f 296 283 295
f 284 296 273
f 273 296 297
f 274 273 298
f 298 273 297
f 246 274 299
f 299 274 298
f 283 222 295
f 295 222 300
f 222 225 300
f 300 225 301
f 301 225 302
f 302 225 282
f 303 304 300
f 300 304 295
f 306 307 305
f 305 307 308
f 309 310 308
f 308 310 305
f 308 307 312
f 312 307 311
f 313 314 312
f 312 314 315
f 311 316 312
f 312 316 313
f 317 304 311
f 311 304 316
f 315 309 312
f 312 309 308
f 318 319 321
f 321 319 320
f 319 318 309
f 309 318 310
f 311 307 317
f 317 307 306
f 306 297 317
f 317 297 296
f 306 322 297
f 297 322 298
f 305 323 306
f 306 323 322
f 323 305 324
f 324 305 310
f 304 317 295
f 295 317 296
f 318 325 310
f 310 325 324
f 323 324 326
f 326 324 327
f 324 325 327
f 327 325 328
f 326 327 329
f 329 327 330
f 329 331 326
f 326 331 332
f 333 330 328
f 328 330 327
f 323 326 322
f 322 326 332
f 322 332 298
f 298 332 299
f 325 318 334
f 334 318 321
f 313 316 335
f 335 316 304
f 335 336 313
f 313 336 314
f 304 303 335
f 335 303 337
f 336 335 338
f 338 335 337
f 336 339 314
f 314 339 340
f 246 299 238
f 238 299 341
f 239 342 282
f 282 342 302
f 342 239 341
f 341 239 238
f 341 331 342
f 342 331 343
f 331 329 343
f 343 329 344
f 342 343 302
f 302 343 345
f 341 299 331
f 331 299 332
f 346 301 345
f 345 301 302
f 346 303 301
f 301 303 300
f 347 337 346
f 346 337 303
f 347 346 348
f 348 346 345
f 349 347 350
f 350 347 348
f 343 344 345
f 345 344 348
f 344 351 348
f 348 351 350
f 337 347 338
f 338 347 349
f 353 338 352
f 352 338 349
f 352 355 354
f 354 355 356
f 352 349 355
f 355 349 350
f 352 354 353
f 353 354 334
f 353 334 339
f 339 334 321
f 339 336 353
f 353 336 338
f 329 330 344
f 344 330 351
f 356 351 333
f 333 351 330
f 356 355 351
f 351 355 350
f 354 356 328
f 328 356 333
f 328 325 354
f 354 325 334
f 309 315 319
f 319 315 320
f 320 340 321
f 321 340 339
f 320 315 340
f 340 315 314
f 137 136 261
f 261 136 259
f 140 166 141
f 141 166 165
f 172 171 195
f 195 171 196
f 171 174 196
f 196 174 190
f 178 177 264
f 264 177 187
f 172 195 140
f 140 195 166
f 137 261 262
f 262 261 275
f 178 264 141
f 141 264 138
f 262 177 213
f 213 177 176
f 136 174 259
f 259 174 173
f 358 359 357
f 357 359 360
f 362 363 361
f 361 363 364
f 361 364 365
f 365 364 366
f 367 368 370
f 370 368 369
f 76 371 247
f 247 371 372
f 373 374 362
f 362 374 363
f 376 377 375
f 375 377 378
f 289 229 380
f 380 229 379
f 381 379 263
f 263 379 229
f 383 384 382
f 382 384 385
f 386 368 374
f 374 368 363
f 76 289 371
f 371 289 380
f 377 376 359
f 359 376 387
f 388 386 360
f 360 386 374
f 389 383 366
f 366 383 390
f 392 393 391
f 391 393 394
f 383 382 390
f 390 382 395
f 396 365 390
f 390 365 366
f 389 366 367
f 367 366 364
f 357 397 358
f 358 397 398
f 373 399 357
f 357 399 397
f 389 367 400
f 400 367 370
f 382 385 375
f 375 385 372
f 357 360 373
f 373 360 374
f 361 401 362
f 362 401 402
f 387 388 359
f 359 388 360
f 363 368 364
f 364 368 367
f 358 398 403
f 403 398 404
f 396 392 405
f 405 392 391
f 392 395 393
f 393 395 378
f 393 403 394
f 394 403 404
f 375 378 382
f 382 378 395
f 365 396 406
f 406 396 405
f 362 402 373
f 373 402 399
f 271 270 400
f 400 270 384
f 401 361 406
f 406 361 365
f 381 369 386
f 386 369 368
f 392 396 395
f 395 396 390
f 393 378 403
f 403 378 377
f 403 377 358
f 358 377 359
f 406 405 408
f 408 405 407
f 406 408 401
f 401 408 409
f 401 409 402
f 402 409 410
f 402 410 399
f 399 410 411
f 405 391 407
f 407 391 412
f 391 394 412
f 412 394 413
f 394 404 413
f 413 404 414
f 415 416 412
f 412 416 407
f 418 419 417
f 417 419 420
f 421 422 418
f 418 422 419
f 419 422 424
f 424 422 423
f 425 426 424
f 424 426 427
f 423 428 424
f 424 428 425
f 427 420 424
f 424 420 419
f 420 429 417
f 417 429 430
f 423 422 431
f 431 422 421
f 421 409 431
f 431 409 408
f 421 432 409
f 409 432 410
f 418 433 421
f 421 433 432
f 434 433 417
f 417 433 418
f 431 416 423
f 423 416 428
f 416 431 407
f 407 431 408
f 435 434 430
f 430 434 417
f 433 434 436
f 436 434 437
f 434 435 437
f 437 435 438
f 436 437 439
f 439 437 440
f 439 441 436
f 436 441 442
f 438 443 437
f 437 443 440
f 436 442 433
f 433 442 432
f 432 442 410
f 410 442 411
f 435 430 445
f 445 430 444
f 430 429 444
f 444 429 446
f 425 428 447
f 447 428 416
f 426 425 448
f 448 425 447
f 416 415 447
f 447 415 449
f 447 449 448
f 448 449 450
f 451 452 448
f 448 452 426
f 446 452 444
f 444 452 451
f 399 411 397
f 397 411 453
f 398 454 404
f 404 454 414
f 454 398 453
f 453 398 397
f 453 441 454
f 454 441 455
f 441 439 455
f 455 439 456
f 454 455 414
f 414 455 457
f 441 453 442
f 442 453 411
f 458 413 457
f 457 413 414
f 458 415 413
f 413 415 412
f 458 459 415
f 415 459 449
f 459 458 460
f 460 458 457
f 461 459 462
f 462 459 460
f 455 456 457
f 457 456 460
f 456 463 460
f 460 463 462
f 459 461 449
f 449 461 450
f 465 450 464
f 464 450 461
f 464 467 466
f 466 467 468
f 464 461 467
f 467 461 462
f 464 466 465
f 465 466 445
f 465 445 451
f 451 445 444
f 451 448 465
f 465 448 450
f 439 440 456
f 456 440 463
f 468 463 443
f 443 463 440
f 468 467 463
f 463 467 462
f 466 468 438
f 438 468 443
f 438 435 466
f 466 435 445
f 420 427 429
f 429 427 446
f 446 427 452
f 452 427 426
f 370 369 188
f 188 369 186
f 371 376 372
f 372 376 375
f 380 379 387
f 387 379 388
f 379 381 388
f 388 381 386
f 385 384 278
f 278 384 270
f 380 387 371
f 371 387 376
f 400 370 271
f 271 370 188
f 385 278 372
f 372 278 247
f 400 384 389
f 389 384 383
f 369 381 186
f 186 381 263
f 221 271 144
f 144 271 188
f 221 19 207
f 207 19 22
f 19 18 22
f 22 18 23
f 18 219 23
f 23 219 208
f 469 470 472
f 472 470 471
f 474 475 473
f 473 475 476
f 473 476 477
f 477 476 478
f 480 481 479
f 479 481 482
f 483 484 474
f 474 484 475
f 486 487 485
f 485 487 488
f 489 490 77
f 77 490 142
f 491 489 248
f 248 489 77
f 493 494 492
f 492 494 495
f 496 480 484
f 484 480 475
f 486 497 487
f 487 497 471
f 498 496 472
f 472 496 484
f 499 493 478
f 478 493 500
f 501 502 504
f 504 502 503
f 493 492 500
f 500 492 505
f 506 477 500
f 500 477 478
f 499 478 479
f 479 478 476
f 469 507 470
f 470 507 508
f 483 509 469
f 469 509 507
f 479 482 499
f 499 482 510
f 492 495 485
f 485 495 511
f 483 469 484
f 484 469 472
f 473 512 474
f 474 512 513
f 497 498 471
f 471 498 472
f 475 480 476
f 476 480 479
f 470 508 514
f 514 508 515
f 506 502 516
f 516 502 501
f 503 502 488
f 488 502 505
f 514 515 503
f 503 515 504
f 485 488 492
f 492 488 505
f 477 506 517
f 517 506 516
f 474 513 483
f 483 513 509
f 510 292 494
f 494 292 164
f 512 473 517
f 517 473 477
f 491 481 496
f 496 481 480
f 502 506 505
f 505 506 500
f 503 488 514
f 514 488 487
f 514 487 470
f 470 487 471
f 517 516 519
f 519 516 518
f 517 519 512
f 512 519 520
f 512 520 513
f 513 520 521
f 513 521 509
f 509 521 522
f 516 501 518
f 518 501 523
f 501 504 523
f 523 504 524
f 524 504 525
f 525 504 515
f 526 527 523
f 523 527 518
f 529 530 528
f 528 530 531
f 532 533 529
f 529 533 530
f 530 533 535
f 535 533 534
f 536 537 535
f 535 537 538
f 534 539 535
f 535 539 536
f 538 531 535
f 535 531 530
f 540 541 531
f 531 541 528
f 533 532 534
f 534 532 542
f 532 520 542
f 542 520 519
f 532 543 520
f 520 543 521
f 529 544 532
f 532 544 543
f 544 529 545
f 545 529 528
f 534 542 539
f 539 542 527
f 527 542 518
f 518 542 519
f 541 546 528
f 528 546 545
f 547 544 548
f 548 544 545
f 546 549 545
f 545 549 548
f 550 547 551
f 551 547 548
f 547 550 553
f 553 550 552
f 549 554 548
f 548 554 551
f 544 547 543
f 543 547 553
f 543 553 521
f 521 553 522
f 546 541 556
f 556 541 555
f 541 540 555
f 555 540 557
f 536 539 558
f 558 539 527
f 537 536 559
f 559 536 558
f 527 526 558
f 558 526 560
f 559 558 561
f 561 558 560
f 559 562 537
f 537 562 563
f 557 563 555
f 555 563 562
f 509 522 507
f 507 522 564
f 508 565 515
f 515 565 525
f 565 508 564
f 564 508 507
f 564 552 565
f 565 552 566
f 552 550 566
f 566 550 567
f 565 566 525
f 525 566 568
f 564 522 552
f 552 522 553
f 569 524 568
f 568 524 525
f 569 526 524
f 524 526 523
f 570 560 569
f 569 560 526
f 570 569 571
f 571 569 568
f 572 570 573
f 573 570 571
f 566 567 568
f 568 567 571
f 567 574 571
f 571 574 573
f 570 572 560
f 560 572 561
f 576 561 575
f 575 561 572
f 575 578 577
f 577 578 579
f 575 572 578
f 578 572 573
f 575 577 576
f 576 577 556
f 576 556 562
f 562 556 555
f 562 559 576
f 576 559 561
f 550 551 567
f 567 551 574
f 579 574 554
f 554 574 551
f 579 578 574
f 574 578 573
f 579 554 577
f 577 554 549
f 549 546 577
f 577 546 556
f 531 538 540
f 540 538 557
f 557 538 563
f 563 538 537
f 481 294 482
f 482 294 293
f 580 486 511
f 511 486 485
f 490 489 497
f 497 489 498
f 489 491 498
f 498 491 496
f 163 495 164
f 164 495 494
f 580 490 486
f 486 490 497
f 482 293 510
f 510 293 292
f 495 163 511
f 511 163 199
f 494 493 510
f 510 493 499
f 481 491 294
f 294 491 248
f 582 583 581
f 581 583 584
f 586 587 585
f 585 587 588
f 585 588 589
f 589 588 590
f 592 593 591
f 591 593 594
f 595 596 598
f 598 596 597
f 599 600 586
f 586 600 587
f 601 602 604
f 604 602 603
f 605 606 608
f 608 606 607
f 609 607 200
f 200 607 606
f 610 611 613
f 613 611 612
f 600 614 587
f 587 614 592
f 596 605 597
f 597 605 608
f 602 615 603
f 603 615 583
f 616 614 584
f 584 614 600
f 611 618 617
f 617 618 590
f 620 621 619
f 619 621 622
f 610 623 611
f 611 623 618
f 624 589 618
f 618 589 590
f 617 590 591
f 591 590 588
f 581 625 582
f 582 625 626
f 599 627 581
f 581 627 625
f 591 594 617
f 617 594 628
f 601 610 598
f 598 610 613
f 581 584 599
f 599 584 600
f 585 629 586
f 586 629 630
f 615 616 583
f 583 616 584
f 587 592 588
f 588 592 591
f 582 626 631
f 631 626 632
f 624 620 633
f 633 620 619
f 621 620 604
f 604 620 623
f 631 632 621
f 621 632 622
f 610 601 623
f 623 601 604
f 589 624 634
f 634 624 633
f 586 630 599
f 599 630 627
f 203 202 628
f 628 202 612
f 629 585 634
f 634 585 589
f 609 593 614
f 614 593 592
f 620 624 623
f 623 624 618
f 631 621 603
f 603 621 604
f 582 631 583
f 583 631 603
f 634 633 636
f 636 633 635
f 634 636 629
f 629 636 637
f 629 637 630
f 630 637 638
f 630 638 627
f 627 638 639
f 633 619 635
f 635 619 640
f 619 622 640
f 640 622 641
f 641 622 642
f 642 622 632
f 644 635 643
f 643 635 640
f 645 646 648
f 648 646 647
f 649 650 646
f 646 650 647
f 647 650 652
f 652 650 651
f 652 653 655
f 655 653 654
f 651 656 652
f 652 656 653
f 655 648 652
f 652 648 647
f 648 657 645
f 645 657 658
f 650 649 651
f 651 649 659
f 649 637 659
f 659 637 636
f 649 660 637
f 637 660 638
f 661 660 646
f 646 660 649
f 662 661 645
f 645 661 646
f 651 659 656
f 656 659 644
f 644 659 635
f 635 659 636
f 663 662 658
f 658 662 645
f 664 661 665
f 665 661 662
f 663 666 662
f 662 666 665
f 667 664 668
f 668 664 665
f 664 667 670
f 670 667 669
f 666 671 665
f 665 671 668
f 661 664 660
f 660 664 670
f 660 670 638
f 638 670 639
f 658 672 663
f 663 672 673
f 658 657 672
f 672 657 674
f 653 656 675
f 675 656 644
f 653 675 654
f 654 675 676
f 675 644 677
f 677 644 643
f 676 675 678
f 678 675 677
f 679 680 676
f 676 680 654
f 674 680 672
f 672 680 679
f 627 639 625
f 625 639 681
f 626 682 632
f 632 682 642
f 681 682 625
f 625 682 626
f 669 683 681
f 681 683 682
f 667 684 669
f 669 684 683
f 682 683 642
f 642 683 685
f 681 639 669
f 669 639 670
f 686 641 685
f 685 641 642
f 641 686 640
f 640 686 643
f 686 687 643
f 643 687 677
f 687 686 688
f 688 686 685
f 689 687 690
f 690 687 688
f 683 684 685
f 685 684 688
f 684 691 688
f 688 691 690
f 687 689 677
f 677 689 678
f 693 678 692
f 692 678 689
f 692 695 694
f 694 695 696
f 692 689 695
f 695 689 690
f 692 694 693
f 693 694 673
f 693 673 679
f 679 673 672
f 679 676 693
f 693 676 678
f 684 667 691
f 691 667 668
f 696 691 671
f 671 691 668
f 696 695 691
f 691 695 690
f 694 696 666
f 666 696 671
f 666 663 694
f 694 663 673
f 648 655 657
f 657 655 674
f 674 655 680
f 680 655 654
f 593 162 594
f 594 162 290
f 598 597 601
f 601 597 602
f 615 608 616
f 616 608 607
f 607 609 616
f 616 609 614
f 697 595 613
f 613 595 598
f 597 608 602
f 602 608 615
f 594 290 628
f 628 290 203
f 628 612 617
f 617 612 611
f 593 609 162
f 162 609 200
f 105 29 698
f 698 29 699
f 268 126 701
f 701 126 700
f 126 125 700
f 700 125 702
f 252 703 250
f 250 703 704
f 32 268 705
f 705 268 701
f 288 105 706
f 706 105 698
f 29 32 699
f 699 32 705
f 707 251 706
f 706 251 288
f 250 704 125
f 125 704 702
f 703 252 707
f 707 252 251
f 706 708 707
f 707 708 709
f 707 709 703
f 703 709 710
f 703 710 704
f 704 710 711
f 704 711 702
f 702 711 712
f 706 698 708
f 708 698 713
f 698 699 713
f 713 699 714
f 699 705 714
f 714 705 715
f 717 708 716
f 716 708 713
f 719 720 718
f 718 720 721
f 722 723 719
f 719 723 720
f 724 725 723
f 723 725 720
f 724 726 725
f 725 726 727
f 728 721 725
f 725 721 720
f 721 728 729
f 729 728 730
f 729 731 721
f 721 731 718
f 724 723 732
f 732 723 722
f 722 710 732
f 732 710 709
f 722 733 710
f 710 733 711
f 719 734 722
f 722 734 733
f 734 719 735
f 735 719 718
f 724 732 726
f 726 732 717
f 717 732 708
f 708 732 709
f 731 736 718
f 718 736 735
f 737 734 738
f 738 734 735
f 736 739 735
f 735 739 738
f 740 737 741
f 741 737 738
f 737 740 743
f 743 740 742
f 739 744 738
f 738 744 741
f 734 737 733
f 733 737 743
f 733 743 711
f 711 743 712
f 736 731 746
f 746 731 745
f 731 729 745
f 745 729 730
f 727 726 747
f 747 726 717
f 748 727 749
f 749 727 747
f 747 717 750
f 750 717 716
f 749 747 751
f 751 747 750
f 749 752 748
f 748 752 753
f 730 753 745
f 745 753 752
f 728 725 748
f 748 725 727
f 730 728 753
f 753 728 748
f 700 702 754
f 754 702 712
f 705 701 715
f 715 701 755
f 754 755 700
f 700 755 701
f 742 756 754
f 754 756 755
f 740 757 742
f 742 757 756
f 755 756 715
f 715 756 758
f 754 712 742
f 742 712 743
f 759 714 758
f 758 714 715
f 714 759 713
f 713 759 716
f 759 760 716
f 716 760 750
f 760 759 761
f 761 759 758
f 762 760 763
f 763 760 761
f 756 757 758
f 758 757 761
f 757 764 761
f 761 764 763
f 760 762 750
f 750 762 751
f 766 751 765
f 765 751 762
f 767 765 769
f 769 765 768
f 765 762 768
f 768 762 763
f 765 767 766
f 766 767 746
f 766 746 752
f 752 746 745
f 752 749 766
f 766 749 751
f 757 740 764
f 764 740 741
f 769 764 744
f 744 764 741
f 769 768 764
f 764 768 763
f 767 769 739
f 739 769 744
f 739 736 767
f 767 736 746
f 219 217 208
f 208 217 209
f 209 217 210
f 210 217 193
f 198 580 199
f 199 580 511
f 76 75 289
f 289 75 272
f 277 207 291
f 291 207 184
f 290 183 203
f 203 183 84
f 490 580 142
f 142 580 198
f 142 198 143
f 143 198 197
f 149 276 72
f 72 276 73
f 104 103 279
f 279 103 770
f 770 596 279
f 279 596 595
f 605 596 771
f 771 596 770
f 771 770 772
f 772 770 103
f 772 103 773
f 773 103 102
f 155 774 101
f 101 774 102
f 773 102 97
f 97 102 774
f 775 773 100
f 100 773 97
f 773 775 772
f 772 775 776
f 772 776 771
f 771 776 777
f 200 606 197
f 197 606 777
f 189 71 778
f 778 71 74
f 97 774 98
f 98 774 155
f 183 161 184
f 184 161 291
f 777 276 197
f 197 276 143
f 777 606 771
f 771 606 605
f 613 612 697
f 697 612 202
f 595 697 279
f 279 697 202
f 73 276 776
f 776 276 777
f 776 775 73
f 73 775 74
f 100 778 775
f 775 778 74
f 778 100 189
f 189 100 99
f 245 242 99
f 99 242 189
f 131 33 256
f 28 1 95
f 95 1 62
f 27 2 28
f 28 2 1
f 265 115 266
f 266 115 114
f 95 62 69
f 69 62 64
f 62 61 64
f 64 61 65
f 61 13 65
f 65 13 130
f 13 12 130
f 130 12 14
f 31 11 32
f 32 11 268
f 15 12 31
f 31 12 11
f 31 30 15
f 15 30 231
f 30 106 231
f 231 106 232
f 287 237 106
f 106 237 232
f 254 90 287
f 287 90 237
f 253 44 254
f 254 44 90
f 253 249 44
f 44 249 7
f 267 127 268
f 268 127 126
f 10 3 241
f 241 3 116
f 3 2 116
f 116 2 114
f 2 27 114
f 114 27 266
f 27 26 266
f 266 26 113
f 26 286 113
f 113 286 110
f 286 243 110
f 110 243 255
f 243 242 255
f 255 242 256
f 242 245 256
f 256 245 131
f 245 244 131
f 131 244 132
f 265 37 115
f 115 37 41
f 41 37 42
f 42 37 40
f 92 91 40
f 40 91 42
f 236 233 92
f 92 233 91
f 191 194 236
f 236 194 233
f 258 285 244
f 244 285 132
f 257 55 258
f 258 55 285
f 257 154 201
f 201 154 185
f 56 201 204
f 204 201 180
f 55 257 56
f 56 257 201
f 204 85 56
f 56 85 52
f 86 122 53
f 53 122 79
f 212 215 86
f 86 215 122
f 211 216 212
f 212 216 215
f 192 280 211
f 211 280 216
f 191 240 192
f 192 240 280
f 249 124 7
f 7 124 8
f 124 127 8
f 8 127 241
f 127 267 241
f 241 267 10
f 10 267 9
f 9 267 11
f 93 39 235
f 235 39 240
f 39 123 240
f 240 123 280
f 123 119 280
f 280 119 216
f 119 118 216
f 216 118 215
f 118 120 215
f 215 120 122
f 120 121 122
f 122 121 79
f 121 109 79
f 79 109 80

