# https://github.com/mikedh/trimesh
v -0.19056290 0.12685685 -18.35297012 0.25098039 0.27450980 0.65882353
v -0.18735313 0.13184784 -18.36200142 0.25098039 0.27450980 0.65882353
v -0.17979354 0.12504315 -18.35802269 0.25098039 0.27450980 0.65882353
v -0.18371651 0.12149077 -18.34798241 0.25098039 0.27450980 0.65882353
v -0.16969727 0.13724183 -18.37556458 0.25098039 0.27450980 0.65882353
v -0.16141540 0.14638771 -18.37506866 0.25098039 0.27450980 0.65882353
v -0.15601887 0.13497657 -18.36791611 0.25098039 0.27450980 0.65882353
v -0.16383961 0.12849034 -18.36976433 0.25098039 0.27450980 0.65882353
v -0.17860511 0.11840896 -18.34230232 0.25098039 0.27450980 0.65882353
v -0.17439233 0.11971627 -18.35405350 0.25098039 0.27450980 0.65882353
v -0.17523107 0.12103007 -18.33763123 0.25098039 0.27450980 0.65882353
v -0.18314998 0.12428365 -18.32531357 0.25098039 0.27450980 0.65882353
v -0.18400609 0.12000677 -18.33150291 0.25098039 0.27450980 0.65882353
v -0.18911248 0.12274692 -18.31852341 0.25098039 0.27450980 0.65882353
v -0.18498695 0.13518333 -18.32331085 0.25098039 0.27450980 0.65882353
v -0.19637354 0.12833956 -18.31542015 0.25098039 0.27450980 0.65882353
v -0.21304460 0.14615774 -18.33248901 0.25098039 0.27450980 0.65882353
v -0.22334862 0.14619648 -18.34187698 0.25098039 0.27450980 0.65882353
v -0.22820294 0.13346903 -18.33292770 0.25098039 0.27450980 0.65882353
v -0.21715862 0.13410395 -18.32443047 0.25098039 0.27450980 0.65882353
v -0.23822695 0.13431704 -18.35170364 0.25098039 0.27450980 0.65882353
v -0.23342282 0.13331667 -18.34077072 0.25098039 0.27450980 0.65882353
v -0.22907710 0.14672720 -18.34929276 0.25098039 0.27450980 0.65882353
v -0.23362622 0.14700438 -18.35863686 0.25098039 0.27450980 0.65882353
v -0.20133552 0.13267398 -18.36367798 0.25098039 0.27450980 0.65882353
v -0.19890216 0.13877058 -18.37171173 0.25098039 0.27450980 0.65882353
v -0.19564128 0.13747886 -18.36736679 0.25098039 0.27450980 0.65882353
v -0.19756027 0.13187534 -18.35976028 0.25098039 0.27450980 0.65882353
v -0.16181356 0.12536515 -18.33792305 0.25098039 0.27450980 0.65882353
v -0.16834410 0.13648289 -18.33450317 0.25098039 0.27450980 0.65882353
v -0.17268272 0.12919420 -18.33344460 0.25098039 0.27450980 0.65882353
v -0.16446583 0.12069331 -18.34062958 0.25098039 0.27450980 0.65882353
v -0.19521633 0.15115930 -18.39738274 0.25098039 0.27450980 0.65882353
v -0.19406226 0.16491926 -18.40014648 0.25098039 0.27450980 0.65882353
v -0.18971449 0.16608775 -18.39623642 0.25098039 0.27450980 0.65882353
v -0.19221061 0.15358618 -18.39406586 0.25098039 0.27450980 0.65882353
v -0.17268626 0.16228676 -18.38345337 0.25098039 0.27450980 0.65882353
v -0.17611620 0.17141150 -18.38493347 0.25098039 0.27450980 0.65882353
v -0.17190221 0.18239182 -18.37789154 0.25098039 0.27450980 0.65882353
v -0.16928656 0.17442769 -18.37320518 0.25098039 0.27450980 0.65882353
v -0.16694914 0.15351859 -18.37962723 0.25098039 0.27450980 0.65882353
v -0.16320059 0.16416812 -18.37146378 0.25098039 0.27450980 0.65882353
v -0.15777309 0.15489966 -18.36767769 0.25098039 0.27450980 0.65882353
v -0.15201071 0.14145695 -18.36196899 0.25098039 0.27450980 0.65882353
v -0.20519474 0.16436461 -18.40668869 0.25098039 0.27450980 0.65882353
v -0.20754996 0.15424018 -18.40617561 0.25098039 0.27450980 0.65882353
v -0.19923109 0.07673647 -18.30420494 0.25098039 0.27450980 0.65882353
v -0.20331204 0.07474486 -18.30801010 0.25098039 0.27450980 0.65882353
v -0.20271623 0.07921316 -18.30952454 0.25098039 0.27450980 0.65882353
v -0.19897425 0.08051310 -18.30528069 0.25098039 0.27450980 0.65882353
v -0.22506070 0.16659331 -18.40221405 0.25098039 0.27450980 0.65882353
v -0.22977924 0.17250228 -18.39509201 0.25098039 0.27450980 0.65882353
v -0.22756574 0.17669669 -18.40042686 0.25098039 0.27450980 0.65882353
v -0.22162345 0.17187014 -18.40614700 0.25098039 0.27450980 0.65882353
v -0.22941524 0.15946960 -18.39684868 0.25098039 0.27450980 0.65882353
v -0.23205632 0.16613540 -18.38772964 0.25098039 0.27450980 0.65882353
v -0.20471027 0.07881516 -18.29293823 0.25098039 0.27450980 0.65882353
v -0.20038018 0.07824884 -18.29555702 0.25098039 0.27450980 0.65882353
v -0.20091441 0.08307141 -18.29574776 0.25098039 0.27450980 0.65882353
v -0.20568557 0.08395933 -18.29392815 0.25098039 0.27450980 0.65882353
v -0.18707453 0.11932448 -18.33842087 0.25098039 0.27450980 0.65882353
v -0.19269037 0.12125032 -18.34562111 0.25098039 0.27450980 0.65882353
v -0.19491932 0.10777923 -18.32640648 0.25098039 0.27450980 0.65882353
v -0.19527887 0.11379673 -18.33398056 0.25098039 0.27450980 0.65882353
v -0.18990669 0.11619263 -18.32996750 0.25098039 0.27450980 0.65882353
v -0.19071108 0.11188860 -18.32320786 0.25098039 0.27450980 0.65882353
v -0.21138895 0.11656249 -18.35128403 0.25098039 0.27450980 0.65882353
v -0.20759921 0.12507778 -18.35831833 0.25098039 0.27450980 0.65882353
v -0.20360474 0.12441960 -18.35308266 0.25098039 0.27450980 0.65882353
v -0.20590070 0.11463033 -18.34490204 0.25098039 0.27450980 0.65882353
v -0.21605447 0.12342979 -18.36971664 0.25098039 0.27450980 0.65882353
v -0.21932977 0.11537167 -18.36175919 0.25098039 0.27450980 0.65882353
v -0.22396407 0.11546560 -18.36919594 0.25098039 0.27450980 0.65882353
v -0.22025792 0.12059591 -18.37404823 0.25098039 0.27450980 0.65882353
v -0.22308138 0.10189114 -18.34562874 0.25098039 0.27450980 0.65882353
v -0.22682098 0.09760816 -18.33920288 0.25098039 0.27450980 0.65882353
v -0.22906080 0.09735220 -18.34068108 0.25098039 0.27450980 0.65882353
v -0.22554891 0.10218887 -18.34818459 0.25098039 0.27450980 0.65882353
v -0.22568294 0.18169175 -18.40478516 0.25098039 0.27450980 0.65882353
v -0.21797930 0.17731103 -18.40899658 0.25098039 0.27450980 0.65882353
v -0.24652904 0.13254483 -18.37146187 0.25098039 0.27450980 0.65882353
v -0.24476965 0.13088685 -18.38237190 0.25098039 0.27450980 0.65882353
v -0.25080898 0.12035459 -18.37773895 0.25098039 0.27450980 0.65882353
v -0.25094673 0.12504429 -18.36732292 0.25098039 0.27450980 0.65882353
v -0.22938171 0.17675099 -18.38523865 0.25098039 0.27450980 0.65882353
v -0.22935435 0.18144132 -18.39126587 0.25098039 0.27450980 0.65882353
v -0.21066180 0.07807351 -18.29338837 0.25098039 0.27450980 0.65882353
v -0.21146104 0.08317032 -18.29507256 0.25098039 0.27450980 0.65882353
v -0.16219598 0.16297650 -18.35695839 0.25098039 0.27450980 0.65882353
v -0.15352918 0.14675424 -18.35273933 0.25098039 0.27450980 0.65882353
v -0.16910550 0.17469099 -18.36154556 0.25098039 0.27450980 0.65882353
v -0.17438999 0.18297505 -18.36475945 0.25098039 0.27450980 0.65882353
v -0.17623810 0.19007611 -18.36884117 0.25098039 0.27450980 0.65882353
v -0.20083374 0.10981953 -18.33542252 0.25098039 0.27450980 0.65882353
v -0.19774210 0.12568195 -18.35218430 0.25098039 0.27450980 0.65882353
v -0.20454377 0.13256794 -18.36752892 0.25098039 0.27450980 0.65882353
v -0.22371157 0.12479065 -18.39079094 0.25098039 0.27450980 0.65882353
v -0.21944299 0.13231075 -18.39701843 0.25098039 0.27450980 0.65882353
v -0.21318686 0.13000306 -18.38843155 0.25098039 0.27450980 0.65882353
v -0.21864088 0.12426110 -18.38442039 0.25098039 0.27450980 0.65882353
v -0.24042368 0.12465250 -18.38858986 0.25098039 0.27450980 0.65882353
v -0.23409331 0.11953213 -18.38765335 0.25098039 0.27450980 0.65882353
v -0.23828834 0.11295009 -18.38262367 0.25098039 0.27450980 0.65882353
v -0.24517316 0.11649524 -18.38326645 0.25098039 0.27450980 0.65882353
v -0.15541957 0.12963325 -18.33821297 0.25098039 0.27450980 0.65882353
v -0.16433109 0.14254209 -18.33641815 0.25098039 0.27450980 0.65882353
v -0.21705380 0.16080871 -18.40638733 0.25098039 0.27450980 0.65882353
v -0.21277158 0.16701096 -18.40789413 0.25098039 0.27450980 0.65882353
v -0.21062234 0.17507729 -18.41018677 0.25098039 0.27450980 0.65882353
v -0.19577892 0.14481524 -18.38424492 0.25098039 0.27450980 0.65882353
v -0.19006906 0.15515409 -18.39203262 0.25098039 0.27450980 0.65882353
v -0.18720931 0.15505342 -18.38939095 0.25098039 0.27450980 0.65882353
v -0.19481674 0.14522916 -18.38145447 0.25098039 0.27450980 0.65882353
v -0.18378893 0.13723323 -18.37277031 0.25098039 0.27450980 0.65882353
v -0.17789489 0.14592962 -18.38125801 0.25098039 0.27450980 0.65882353
v -0.17639793 0.12896273 -18.36898422 0.25098039 0.27450980 0.65882353
v -0.18360485 0.16929938 -18.39175606 0.25098039 0.27450980 0.65882353
v -0.18694174 0.17535356 -18.40025520 0.25098039 0.27450980 0.65882353
v -0.18080586 0.17811301 -18.39423180 0.25098039 0.27450980 0.65882353
v -0.19511861 0.17435277 -18.40576172 0.25098039 0.27450980 0.65882353
v -0.20346223 0.17393041 -18.40919685 0.25098039 0.27450980 0.65882353
v -0.23027535 0.18830173 -18.39562225 0.25098039 0.27450980 0.65882353
v -0.17621788 0.18074861 -18.38750458 0.25098039 0.27450980 0.65882353
v -0.16075085 0.12206426 -18.36467552 0.25098039 0.27450980 0.65882353
v -0.15719213 0.11654556 -18.36008644 0.25098039 0.27450980 0.65882353
v -0.16328669 0.11431232 -18.35496140 0.25098039 0.27450980 0.65882353
v -0.16736145 0.11874676 -18.35946465 0.25098039 0.27450980 0.65882353
v -0.19402608 0.11805528 -18.31177139 0.25098039 0.27450980 0.65882353
v -0.19029032 0.11408853 -18.31738853 0.25098039 0.27450980 0.65882353
v -0.18654585 0.11965798 -18.32435226 0.25098039 0.27450980 0.65882353
v -0.20228118 0.14249189 -18.39530563 0.25098039 0.27450980 0.65882353
v -0.21242863 0.14530769 -18.40329170 0.25098039 0.27450980 0.65882353
v -0.20074025 0.10412450 -18.32716942 0.25098039 0.27450980 0.65882353
v -0.20616136 0.08908667 -18.29521370 0.25098039 0.27450980 0.65882353
v -0.20072053 0.08804622 -18.29706001 0.25098039 0.27450980 0.65882353
v -0.19734862 0.10486116 -18.30460167 0.25098039 0.27450980 0.65882353
v -0.20381685 0.10580552 -18.30173302 0.25098039 0.27450980 0.65882353
v -0.20960191 0.09992486 -18.32105827 0.25098039 0.27450980 0.65882353
v -0.20306553 0.10078723 -18.32358551 0.25098039 0.27450980 0.65882353
v -0.20483276 0.09911519 -18.32192993 0.25098039 0.27450980 0.65882353
v -0.21108413 0.09679946 -18.32061577 0.25098039 0.27450980 0.65882353
v -0.23238844 0.09853084 -18.34944534 0.25098039 0.27450980 0.65882353
v -0.22973268 0.10286049 -18.35580444 0.25098039 0.27450980 0.65882353
v -0.22041014 0.11971779 -18.31853104 0.25098039 0.27450980 0.65882353
v -0.21032645 0.12533522 -18.31091118 0.25098039 0.27450980 0.65882353
v -0.20658684 0.13378423 -18.31801987 0.25098039 0.27450980 0.65882353
v -0.21571295 0.11662992 -18.35750771 0.25098039 0.27450980 0.65882353
v -0.21955468 0.10845871 -18.35189819 0.25098039 0.27450980 0.65882353
v -0.22247338 0.10833770 -18.35498047 0.25098039 0.27450980 0.65882353
v -0.20484591 0.10689089 -18.33471298 0.25098039 0.27450980 0.65882353
v -0.20646928 0.10220352 -18.32816887 0.25098039 0.27450980 0.65882353
v -0.20939961 0.10347599 -18.33266258 0.25098039 0.27450980 0.65882353
v -0.20840448 0.10809594 -18.33878136 0.25098039 0.27450980 0.65882353
v -0.24014765 0.14205606 -18.38751221 0.25098039 0.27450980 0.65882353
v -0.23512898 0.13463445 -18.39503860 0.25098039 0.27450980 0.65882353
v -0.19829515 0.07774243 -18.29966736 0.25098039 0.27450980 0.65882353
v -0.19838029 0.08202907 -18.30016518 0.25098039 0.27450980 0.65882353
v -0.21194255 0.12512253 -18.36411285 0.25098039 0.27450980 0.65882353
v -0.20249131 0.14359544 -18.32703972 0.25098039 0.27450980 0.65882353
v -0.20774402 0.13213748 -18.37187576 0.25098039 0.27450980 0.65882353
v -0.24706386 0.11419562 -18.35248947 0.25098039 0.27450980 0.65882353
v -0.24590307 0.10827336 -18.35666466 0.25098039 0.27450980 0.65882353
v -0.24597225 0.10343102 -18.35278130 0.25098039 0.27450980 0.65882353
v -0.24903028 0.10687978 -18.34865570 0.25098039 0.27450980 0.65882353
v -0.21395010 0.08343205 -18.31308365 0.25098039 0.27450980 0.65882353
v -0.20836264 0.08213060 -18.31445312 0.25098039 0.27450980 0.65882353
v -0.20867401 0.07819423 -18.31159401 0.25098039 0.27450980 0.65882353
v -0.21422887 0.07883371 -18.30991745 0.25098039 0.27450980 0.65882353
v -0.19762126 0.10282402 -18.32224655 0.25098039 0.27450980 0.65882353
v -0.19303054 0.10622168 -18.31878281 0.25098039 0.27450980 0.65882353
v -0.19512881 0.10075346 -18.31630325 0.25098039 0.27450980 0.65882353
v -0.20001367 0.09919898 -18.31976509 0.25098039 0.27450980 0.65882353
v -0.19309889 0.10867923 -18.31264114 0.25098039 0.27450980 0.65882353
v -0.19410667 0.10317864 -18.31024742 0.25098039 0.27450980 0.65882353
v -0.21754670 0.08585880 -18.30790138 0.25098039 0.27450980 0.65882353
v -0.21691009 0.08837163 -18.30069542 0.25098039 0.27450980 0.65882353
v -0.21626768 0.10293611 -18.30790520 0.25098039 0.27450980 0.65882353
v -0.21579224 0.09766881 -18.31442642 0.25098039 0.27450980 0.65882353
v -0.22971591 0.16006705 -18.36472893 0.25098039 0.27450980 0.65882353
v -0.23482913 0.15812293 -18.37452507 0.25098039 0.27450980 0.65882353
v -0.23905319 0.14524785 -18.36851120 0.25098039 0.27450980 0.65882353
v -0.24403897 0.13316837 -18.36275673 0.25098039 0.27450980 0.65882353
v -0.24731579 0.12138950 -18.35725784 0.25098039 0.27450980 0.65882353
v -0.24326745 0.12438711 -18.34628868 0.25098039 0.27450980 0.65882353
v -0.24127123 0.14452332 -18.37644196 0.25098039 0.27450980 0.65882353
v -0.21732584 0.10561401 -18.31911850 0.25098039 0.27450980 0.65882353
v -0.21594328 0.11269044 -18.31329536 0.25098039 0.27450980 0.65882353
v -0.22028658 0.11204734 -18.31739235 0.25098039 0.27450980 0.65882353
v -0.21148162 0.13004267 -18.37807465 0.25098039 0.27450980 0.65882353
v -0.19754221 0.08659934 -18.30143356 0.25098039 0.27450980 0.65882353
v -0.19627288 0.18894362 -18.35970497 0.25098039 0.27450980 0.65882353
v -0.20913690 0.18908177 -18.36440849 0.25098039 0.27450980 0.65882353
v -0.20838173 0.18193324 -18.35961914 0.25098039 0.27450980 0.65882353
v -0.19376014 0.18140091 -18.35448647 0.25098039 0.27450980 0.65882353
v -0.20159858 0.08282393 -18.31238365 0.25098039 0.27450980 0.65882353
v -0.19722450 0.08436197 -18.30763054 0.25098039 0.27450980 0.65882353
v -0.23481095 0.10124154 -18.36014938 0.25098039 0.27450980 0.65882353
v -0.23658811 0.09816190 -18.35373688 0.25098039 0.27450980 0.65882353
v -0.24065559 0.09827801 -18.35392380 0.25098039 0.27450980 0.65882353
v -0.23993862 0.09919867 -18.36149216 0.25098039 0.27450980 0.65882353
v -0.23608884 0.15776618 -18.38049507 0.25098039 0.27450980 0.65882353
v -0.25356719 0.11292612 -18.37472534 0.25098039 0.27450980 0.65882353
v -0.25390941 0.11763231 -18.36595726 0.25098039 0.27450980 0.65882353
v -0.23075876 0.16942164 -18.37953949 0.25098039 0.27450980 0.65882353
v -0.22686565 0.17161915 -18.37067795 0.25098039 0.27450980 0.65882353
v -0.22540471 0.17991754 -18.37530327 0.25098039 0.27450980 0.65882353
v -0.23701294 0.11894596 -18.33254051 0.25098039 0.27450980 0.65882353
v -0.22571826 0.15931764 -18.35703278 0.25098039 0.27450980 0.65882353
v -0.22249162 0.17119360 -18.36436844 0.25098039 0.27450980 0.65882353
v -0.22049546 0.18109222 -18.36949158 0.25098039 0.27450980 0.65882353
v -0.22002596 0.18841264 -18.37315559 0.25098039 0.27450980 0.65882353
v -0.22513431 0.18604121 -18.37946320 0.25098039 0.27450980 0.65882353
v -0.21237993 0.08864176 -18.29685593 0.25098039 0.27450980 0.65882353
v -0.21682069 0.08204918 -18.29875374 0.25098039 0.27450980 0.65882353
v -0.22605622 0.19357225 -18.38367462 0.25098039 0.27450980 0.65882353
v -0.21979859 0.19552562 -18.37685013 0.25098039 0.27450980 0.65882353
v -0.21623416 0.17112504 -18.35729218 0.25098039 0.27450980 0.65882353
v -0.20764275 0.17039436 -18.34958649 0.25098039 0.27450980 0.65882353
v -0.21947959 0.15960516 -18.35044670 0.25098039 0.27450980 0.65882353
v -0.21145162 0.15807086 -18.34209442 0.25098039 0.27450980 0.65882353
v -0.23112288 0.12449026 -18.32523346 0.25098039 0.27450980 0.65882353
v -0.21611649 0.06466590 -18.29874611 0.25098039 0.27450980 0.65882353
v -0.21733719 0.07497808 -18.30247116 0.25098039 0.27450980 0.65882353
v -0.21450447 0.07402501 -18.30747604 0.25098039 0.27450980 0.65882353
v -0.21527757 0.06398112 -18.30302429 0.25098039 0.27450980 0.65882353
v -0.21749035 0.08046264 -18.30520439 0.25098039 0.27450980 0.65882353
v -0.21598379 0.07696630 -18.29715157 0.25098039 0.27450980 0.65882353
v -0.19760886 0.15520020 -18.33574104 0.25098039 0.27450980 0.65882353
v -0.21238989 0.09973817 -18.32645607 0.25098039 0.27450980 0.65882353
v -0.18987606 0.16773146 -18.34450150 0.25098039 0.27450980 0.65882353
v -0.18212584 0.14665879 -18.32941628 0.25098039 0.27450980 0.65882353
v -0.17571768 0.15510674 -18.33749580 0.25098039 0.27450980 0.65882353
v -0.18022889 0.17978698 -18.35384369 0.25098039 0.27450980 0.65882353
v -0.17124125 0.16737419 -18.34754181 0.25098039 0.27450980 0.65882353
v -0.18502228 0.19364472 -18.36390877 0.25098039 0.27450980 0.65882353
v -0.18410671 0.18672439 -18.35862160 0.25098039 0.27450980 0.65882353
v -0.16206951 0.15375787 -18.34439659 0.25098039 0.27450980 0.65882353
v -0.20084591 0.06627020 -18.30372810 0.25098039 0.27450980 0.65882353
v -0.20550710 0.06538931 -18.30706596 0.25098039 0.27450980 0.65882353
v -0.19650921 0.19597548 -18.36397743 0.25098039 0.27450980 0.65882353
v -0.17091140 0.12285302 -18.36368179 0.25098039 0.27450980 0.65882353
v -0.20532966 0.13684171 -18.38388252 0.25098039 0.27450980 0.65882353
v -0.20282617 0.13799049 -18.37889290 0.25098039 0.27450980 0.65882353
v -0.21697094 0.13740610 -18.39997673 0.25098039 0.27450980 0.65882353
v -0.20838496 0.13573420 -18.39118385 0.25098039 0.27450980 0.65882353
v -0.19892852 0.06733850 -18.29877090 0.25098039 0.27450980 0.65882353
v -0.23189136 0.09752582 -18.33414841 0.25098039 0.27450980 0.65882353
v -0.23220271 0.09989832 -18.33539391 0.25098039 0.27450980 0.65882353
v -0.15337396 0.12755531 -18.36445045 0.25098039 0.27450980 0.65882353
v -0.15102591 0.12164475 -18.36096573 0.25098039 0.27450980 0.65882353
v -0.14592543 0.12794843 -18.34986687 0.25098039 0.27450980 0.65882353
v -0.14644334 0.12522295 -18.35676003 0.25098039 0.27450980 0.65882353
v -0.14885376 0.13320267 -18.35925484 0.25098039 0.27450980 0.65882353
v -0.14885962 0.13684420 -18.35191345 0.25098039 0.27450980 0.65882353
v -0.19669475 0.14390634 -18.38642883 0.25098039 0.27450980 0.65882353
v -0.19902176 0.14280684 -18.38952255 0.25098039 0.27450980 0.65882353
v -0.23449162 0.15123464 -18.39272308 0.25098039 0.27450980 0.65882353
v -0.22919875 0.14339606 -18.39947510 0.25098039 0.27450980 0.65882353
v -0.19678956 0.11164163 -18.30800438 0.25098039 0.27450980 0.65882353
v -0.20161662 0.12123454 -18.30876350 0.25098039 0.27450980 0.65882353
v -0.20335692 0.11345927 -18.30561829 0.25098039 0.27450980 0.65882353
v -0.21079680 0.10674714 -18.30354118 0.25098039 0.27450980 0.65882353
v -0.21544383 0.10044313 -18.32129860 0.25098039 0.27450980 0.65882353
v -0.21425268 0.10330823 -18.31765556 0.25098039 0.27450980 0.65882353
v -0.18331939 0.15046494 -18.38536644 0.25098039 0.27450980 0.65882353
v -0.19107518 0.14281708 -18.37691307 0.25098039 0.27450980 0.65882353
v -0.17027684 0.11808158 -18.35091591 0.25098039 0.27450980 0.65882353
v -0.16608995 0.11557211 -18.34736443 0.25098039 0.27450980 0.65882353
v -0.21307294 0.10977824 -18.34527779 0.25098039 0.27450980 0.65882353
v -0.23697333 0.10956294 -18.32626534 0.25098039 0.27450980 0.65882353
v -0.23199040 0.11389854 -18.32005310 0.25098039 0.27450980 0.65882353
v -0.21589327 0.10344822 -18.33889771 0.25098039 0.27450980 0.65882353
v -0.20388058 0.06737420 -18.29159355 0.25098039 0.27450980 0.65882353
v -0.20003380 0.06748954 -18.29499626 0.25098039 0.27450980 0.65882353
v -0.21023150 0.11498116 -18.30712700 0.25098039 0.27450980 0.65882353
v -0.22672245 0.10746276 -18.36250114 0.25098039 0.27450980 0.65882353
v -0.23933277 0.11221914 -18.33387375 0.25098039 0.27450980 0.65882353
v -0.23702729 0.10292996 -18.33005524 0.25098039 0.27450980 0.65882353
v -0.24720345 0.11110138 -18.38042450 0.25098039 0.27450980 0.65882353
v -0.20855425 0.19630492 -18.36906242 0.25098039 0.27450980 0.65882353
v -0.20936474 0.07325359 -18.30988312 0.25098039 0.27450980 0.65882353
v -0.21056743 0.06490492 -18.30767822 0.25098039 0.27450980 0.65882353
v -0.21483350 0.06622346 -18.29482651 0.25098039 0.27450980 0.65882353
v -0.21012774 0.06794974 -18.29135895 0.25098039 0.27450980 0.65882353
v -0.22250071 0.15103841 -18.40288925 0.25098039 0.27450980 0.65882353
v -0.20138405 0.13836545 -18.37549019 0.25098039 0.27450980 0.65882353
v -0.15509519 0.14208126 -18.34348869 0.25098039 0.27450980 0.65882353
v -0.14961958 0.12984617 -18.34309006 0.25098039 0.27450980 0.65882353
v -0.21847133 0.09961538 -18.33457375 0.25098039 0.27450980 0.65882353
v -0.24965504 0.11445659 -18.35925293 0.25098039 0.27450980 0.65882353
v -0.24617748 0.11613135 -18.34321594 0.25098039 0.27450980 0.65882353
v -0.24894433 0.10879378 -18.33975029 0.25098039 0.27450980 0.65882353
v -0.24438171 0.10662045 -18.33366394 0.25098039 0.27450980 0.65882353
v -0.23836638 0.10198335 -18.33178520 0.25098039 0.27450980 0.65882353
v -0.21428932 0.06078484 -18.29507446 0.25098039 0.27450980 0.65882353
v -0.20956023 0.06249794 -18.29139519 0.25098039 0.27450980 0.65882353
v -0.20325410 0.06211612 -18.29147339 0.25098039 0.27450980 0.65882353
v -0.19963938 0.06279323 -18.29448891 0.25098039 0.27450980 0.65882353
v -0.19898345 0.06381749 -18.29879761 0.25098039 0.27450980 0.65882353
v -0.21530777 0.05920375 -18.29922485 0.25098039 0.27450980 0.65882353
v -0.21406557 0.05892088 -18.30308723 0.25098039 0.27450980 0.65882353
v -0.21026975 0.06166218 -18.30715179 0.25098039 0.27450980 0.65882353
v -0.21380183 0.05482423 -18.30085945 0.25098039 0.27450980 0.65882353
v -0.21210513 0.05269384 -18.29629135 0.25098039 0.27450980 0.65882353
v -0.19862241 0.04928434 -18.29524231 0.25098039 0.27450980 0.65882353
v -0.20170236 0.05367808 -18.29275322 0.25098039 0.27450980 0.65882353
v -0.20274602 0.05123645 -18.29320717 0.25098039 0.27450980 0.65882353
v -0.20090781 0.04698655 -18.29503632 0.25098039 0.27450980 0.65882353
v -0.20040195 0.04210688 -18.29655457 0.25098039 0.27450980 0.65882353
v -0.19753693 0.04410638 -18.29704857 0.25098039 0.27450980 0.65882353
v -0.20717216 0.05269930 -18.29343224 0.25098039 0.27450980 0.65882353
v -0.20545967 0.04670545 -18.29581261 0.25098039 0.27450980 0.65882353
v -0.20892075 0.04647969 -18.29824448 0.25098039 0.27450980 0.65882353
v -0.20750146 0.04122880 -18.29934311 0.25098039 0.27450980 0.65882353
v -0.20441228 0.04120544 -18.29712486 0.25098039 0.27450980 0.65882353
v -0.20996031 0.05046937 -18.29619217 0.25098039 0.27450980 0.65882353
v -0.20803796 0.05479261 -18.29232025 0.25098039 0.27450980 0.65882353
v -0.19866270 0.04003946 -18.29880524 0.25098039 0.27450980 0.65882353
v -0.20065284 0.03934747 -18.29745293 0.25098039 0.27450980 0.65882353
v -0.20368946 0.03846762 -18.29844856 0.25098039 0.27450980 0.65882353
v -0.20228833 0.03718895 -18.30074120 0.25098039 0.27450980 0.65882353
v -0.19862987 0.05811641 -18.29524612 0.25098039 0.27450980 0.65882353
v -0.19696453 0.05022746 -18.29705238 0.25098039 0.27450980 0.65882353
v -0.19684279 0.04504710 -18.29998589 0.25098039 0.27450980 0.65882353
v -0.19812526 0.04096046 -18.30143547 0.25098039 0.27450980 0.65882353
v -0.19703960 0.05012552 -18.30117416 0.25098039 0.27450980 0.65882353
v -0.19749358 0.04581270 -18.30279350 0.25098039 0.27450980 0.65882353
v -0.19891077 0.04243207 -18.30429268 0.25098039 0.27450980 0.65882353
v -0.19874871 0.04998118 -18.30518723 0.25098039 0.27450980 0.65882353
v -0.19914478 0.04600029 -18.30556297 0.25098039 0.27450980 0.65882353
v -0.20005143 0.06087389 -18.30301094 0.25098039 0.27450980 0.65882353
v -0.19822778 0.06106648 -18.29912758 0.25098039 0.27450980 0.65882353
v -0.19943671 0.04355122 -18.30606270 0.25098039 0.27450980 0.65882353
v -0.20212397 0.03776483 -18.30285835 0.25098039 0.27450980 0.65882353
v -0.21123794 0.04820055 -18.30056572 0.25098039 0.27450980 0.65882353
v -0.20844859 0.04202002 -18.30238342 0.25098039 0.27450980 0.65882353
v -0.21146151 0.04877783 -18.30290604 0.25098039 0.27450980 0.65882353
v -0.20906742 0.04255670 -18.30462456 0.25098039 0.27450980 0.65882353
v -0.20672590 0.03795439 -18.30247116 0.25098039 0.27450980 0.65882353
v -0.20618448 0.03872429 -18.30011749 0.25098039 0.27450980 0.65882353
v -0.20128071 0.06417646 -18.30348396 0.25098039 0.27450980 0.65882353
v -0.20611069 0.06321191 -18.30685043 0.25098039 0.27450980 0.65882353
v -0.20512150 0.06043805 -18.30678558 0.25098039 0.27450980 0.65882353
v -0.20259598 0.04990694 -18.30810738 0.25098039 0.27450980 0.65882353
v -0.20911852 0.05870114 -18.30743217 0.25098039 0.27450980 0.65882353
v -0.21245885 0.05491345 -18.30450630 0.25098039 0.27450980 0.65882353
v -0.21030140 0.04857981 -18.30564880 0.25098039 0.27450980 0.65882353
v -0.20769963 0.04914632 -18.30792236 0.25098039 0.27450980 0.65882353
v -0.20803496 0.04381239 -18.30659676 0.25098039 0.27450980 0.65882353
v -0.20594300 0.04489370 -18.30764771 0.25098039 0.27450980 0.65882353
v -0.20211327 0.04558821 -18.30770111 0.25098039 0.27450980 0.65882353
v -0.20535785 0.04079598 -18.30649376 0.25098039 0.27450980 0.65882353
v -0.20642087 0.03893554 -18.30443954 0.25098039 0.27450980 0.65882353
v -0.20186758 0.04008369 -18.30531311 0.25098039 0.27450980 0.65882353
v -0.20469269 0.04238227 -18.30739403 0.25098039 0.27450980 0.65882353
v -0.20183536 0.04248181 -18.30644226 0.25098039 0.27450980 0.65882353
v -0.22610191 0.06979697 -18.31395531 0.25098039 0.27450980 0.65882353
v -0.23046401 0.06857926 -18.31880379 0.25098039 0.27450980 0.65882353
v -0.23028792 0.07322073 -18.31855011 0.25098039 0.27450980 0.65882353
v -0.22645155 0.07378809 -18.31452370 0.25098039 0.27450980 0.65882353
v -0.23306084 0.07229105 -18.30182266 0.25098039 0.27450980 0.65882353
v -0.22788048 0.07134713 -18.30512810 0.25098039 0.27450980 0.65882353
v -0.22806393 0.07616068 -18.30485344 0.25098039 0.27450980 0.65882353
v -0.23419939 0.07778469 -18.30247307 0.25098039 0.27450980 0.65882353
v -0.23988222 0.07279376 -18.30364418 0.25098039 0.27450980 0.65882353
v -0.24072555 0.07856095 -18.30466843 0.25098039 0.27450980 0.65882353
v -0.23328847 0.08348225 -18.30340576 0.25098039 0.27450980 0.65882353
v -0.22704585 0.08149226 -18.30650520 0.25098039 0.27450980 0.65882353
v -0.22134756 0.09983295 -18.31569099 0.25098039 0.27450980 0.65882353
v -0.22739345 0.10253505 -18.31230164 0.25098039 0.27450980 0.65882353
v -0.22764295 0.09388025 -18.33263588 0.25098039 0.27450980 0.65882353
v -0.23185198 0.09420548 -18.33109474 0.25098039 0.27450980 0.65882353
v -0.22576556 0.07050051 -18.30988312 0.25098039 0.27450980 0.65882353
v -0.22600359 0.07483558 -18.30976677 0.25098039 0.27450980 0.65882353
v -0.23805778 0.07727242 -18.32338905 0.25098039 0.27450980 0.65882353
v -0.23250934 0.07619280 -18.32375908 0.25098039 0.27450980 0.65882353
v -0.23429047 0.07247046 -18.32140923 0.25098039 0.27450980 0.65882353
v -0.23986290 0.07303439 -18.32052040 0.25098039 0.27450980 0.65882353
v -0.21844418 0.09656373 -18.32432175 0.25098039 0.27450980 0.65882353
v -0.22261567 0.09554198 -18.32943153 0.25098039 0.27450980 0.65882353
v -0.21886006 0.09759454 -18.32006454 0.25098039 0.27450980 0.65882353
v -0.24321097 0.07947703 -18.31948090 0.25098039 0.27450980 0.65882353
v -0.24506408 0.08215854 -18.31326866 0.25098039 0.27450980 0.65882353
v -0.24026157 0.10056099 -18.32030869 0.25098039 0.27450980 0.65882353
v -0.23909011 0.09680165 -18.32604027 0.25098039 0.27450980 0.65882353
v -0.22417653 0.07927233 -18.31105804 0.25098039 0.27450980 0.65882353
v -0.22745718 0.07614709 -18.32072830 0.25098039 0.27450980 0.65882353
v -0.22403432 0.07723849 -18.31648445 0.25098039 0.27450980 0.65882353
v -0.24016336 0.08421119 -18.30662346 0.25098039 0.27450980 0.65882353
v -0.24519695 0.07601588 -18.31098366 0.25098039 0.27450980 0.65882353
v -0.24274652 0.05640352 -18.31358719 0.25098039 0.27450980 0.65882353
v -0.24400689 0.06834172 -18.31567574 0.25098039 0.27450980 0.65882353
v -0.24023971 0.06764098 -18.31947136 0.25098039 0.27450980 0.65882353
v -0.24003971 0.05524123 -18.31796074 0.25098039 0.27450980 0.65882353
v -0.24413790 0.07393990 -18.31683922 0.25098039 0.27450980 0.65882353
v -0.24429010 0.07036674 -18.30984497 0.25098039 0.27450980 0.65882353
v -0.22607137 0.05513888 -18.31473923 0.25098039 0.27450980 0.65882353
v -0.23064849 0.05422772 -18.31925964 0.25098039 0.27450980 0.65882353
v -0.22499555 0.05572516 -18.31011009 0.25098039 0.27450980 0.65882353
v -0.23509549 0.10323567 -18.31436157 0.25098039 0.27450980 0.65882353
v -0.23146853 0.05899629 -18.30221176 0.25098039 0.27450980 0.65882353
v -0.22626659 0.05716588 -18.30609322 0.25098039 0.27450980 0.65882353
v -0.23523283 0.06791461 -18.32117462 0.25098039 0.27450980 0.65882353
v -0.23565622 0.05414021 -18.32023811 0.25098039 0.27450980 0.65882353
v -0.24269952 0.05767650 -18.30901337 0.25098039 0.27450980 0.65882353
v -0.23832771 0.06029578 -18.30334663 0.25098039 0.27450980 0.65882353
v -0.24151523 0.05197607 -18.30873680 0.25098039 0.27450980 0.65882353
v -0.23723254 0.05340348 -18.30375099 0.25098039 0.27450980 0.65882353
v -0.23031262 0.05265933 -18.30271721 0.25098039 0.27450980 0.65882353
v -0.22577429 0.05230489 -18.30667114 0.25098039 0.27450980 0.65882353
v -0.22487798 0.05224469 -18.31063843 0.25098039 0.27450980 0.65882353
v -0.24168095 0.05089170 -18.31317139 0.25098039 0.27450980 0.65882353
v -0.23936841 0.05030234 -18.31750679 0.25098039 0.27450980 0.65882353
v -0.23485529 0.05146132 -18.31979942 0.25098039 0.27450980 0.65882353
v -0.23957202 0.04453267 -18.31531715 0.25098039 0.27450980 0.65882353
v -0.23926446 0.04361546 -18.31079674 0.25098039 0.27450980 0.65882353
v -0.22366840 0.03364521 -18.30979347 0.25098039 0.27450980 0.65882353
v -0.22534138 0.03887436 -18.30750084 0.25098039 0.27450980 0.65882353
v -0.22779192 0.03777707 -18.30727959 0.25098039 0.27450980 0.65882353
v -0.22638057 0.03288299 -18.30924988 0.25098039 0.27450980 0.65882353
v -0.22868668 0.04336314 -18.30454826 0.25098039 0.27450980 0.65882353
v -0.23006833 0.04140246 -18.30553246 0.25098039 0.27450980 0.65882353
v -0.23455250 0.04219976 -18.30682755 0.25098039 0.27450980 0.65882353
v -0.23229571 0.03711265 -18.30924225 0.25098039 0.27450980 0.65882353
v -0.23596430 0.03772077 -18.31249619 0.25098039 0.27450980 0.65882353
v -0.23471898 0.03239769 -18.31386948 0.25098039 0.27450980 0.65882353
v -0.23112863 0.03151308 -18.31061745 0.25098039 0.27450980 0.65882353
v -0.23692086 0.04105261 -18.30982971 0.25098039 0.27450980 0.65882353
v -0.22640902 0.02967742 -18.31084633 0.25098039 0.27450980 0.65882353
v -0.22472757 0.02893232 -18.31264877 0.25098039 0.27450980 0.65882353
v -0.23553041 0.04476035 -18.30515671 0.25098039 0.27450980 0.65882353
v -0.22521132 0.04797944 -18.30666351 0.25098039 0.27450980 0.65882353
v -0.22307014 0.03970686 -18.30956459 0.25098039 0.27450980 0.65882353
v -0.22207555 0.03402862 -18.31268311 0.25098039 0.27450980 0.65882353
v -0.22442080 0.02913395 -18.31568527 0.25098039 0.27450980 0.65882353
v -0.22239238 0.04008794 -18.31384850 0.25098039 0.27450980 0.65882353
v -0.22223073 0.03446729 -18.31593323 0.25098039 0.27450980 0.65882353
v -0.22470486 0.03057197 -18.31800652 0.25098039 0.27450980 0.65882353
v -0.22359373 0.04046920 -18.31857300 0.25098039 0.27450980 0.65882353
v -0.22395852 0.03486097 -18.31984138 0.25098039 0.27450980 0.65882353
v -0.22558278 0.05046394 -18.31566811 0.25098039 0.27450980 0.65882353
v -0.22392824 0.04968029 -18.31113052 0.25098039 0.27450980 0.65882353
v -0.22492476 0.03237733 -18.31962395 0.25098039 0.27450980 0.65882353
v -0.22894403 0.02689049 -18.31399918 0.25098039 0.27450980 0.65882353
v -0.22790979 0.02735683 -18.31719208 0.25098039 0.27450980 0.65882353
v -0.22958279 0.02801070 -18.31264496 0.25098039 0.27450980 0.65882353
v -0.23708615 0.03809981 -18.31433868 0.25098039 0.27450980 0.65882353
v -0.23489890 0.03244758 -18.31615639 0.25098039 0.27450980 0.65882353
v -0.23725373 0.03846015 -18.31719208 0.25098039 0.27450980 0.65882353
v -0.23459706 0.03223065 -18.31857300 0.25098039 0.27450980 0.65882353
v -0.23278272 0.02834100 -18.31641960 0.25098039 0.27450980 0.65882353
v -0.23258772 0.02844283 -18.31473351 0.25098039 0.27450980 0.65882353
v -0.22649032 0.05250061 -18.31483650 0.25098039 0.27450980 0.65882353
v -0.23069791 0.05218346 -18.31877899 0.25098039 0.27450980 0.65882353
v -0.22986612 0.05058663 -18.31955719 0.25098039 0.27450980 0.65882353
v -0.22792368 0.04045244 -18.32178879 0.25098039 0.27450980 0.65882353
v -0.23454021 0.04953340 -18.32047653 0.25098039 0.27450980 0.65882353
v -0.23815826 0.04599060 -18.31846428 0.25098039 0.27450980 0.65882353
v -0.23622340 0.03938398 -18.31976700 0.25098039 0.27450980 0.65882353
v -0.23277454 0.03982660 -18.32201385 0.25098039 0.27450980 0.65882353
v -0.23436636 0.03285930 -18.32071686 0.25098039 0.27450980 0.65882353
v -0.23227446 0.03505233 -18.32207680 0.25098039 0.27450980 0.65882353
v -0.22736907 0.03532836 -18.32214165 0.25098039 0.27450980 0.65882353
v -0.23180658 0.02906628 -18.32035446 0.25098039 0.27450980 0.65882353
v -0.23242563 0.02825677 -18.31816673 0.25098039 0.27450980 0.65882353
v -0.22756135 0.02873947 -18.31892967 0.25098039 0.27450980 0.65882353
v -0.23078571 0.03150716 -18.32173920 0.25098039 0.27450980 0.65882353
v -0.22721305 0.03137705 -18.32080078 0.25098039 0.27450980 0.65882353
v -0.23919827 0.07464360 -18.33081436 0.25098039 0.27450980 0.65882353
v -0.24027133 0.07399487 -18.33681107 0.25098039 0.27450980 0.65882353
v -0.24017294 0.07700641 -18.33721924 0.25098039 0.27450980 0.65882353
v -0.23898230 0.07776973 -18.33141327 0.25098039 0.27450980 0.65882353
v -0.25062090 0.07599565 -18.32488251 0.25098039 0.27450980 0.65882353
v -0.24574359 0.07499474 -18.32429504 0.25098039 0.27450980 0.65882353
v -0.24560916 0.07948172 -18.32449341 0.25098039 0.27450980 0.65882353
v -0.25058398 0.08187617 -18.32492256 0.25098039 0.27450980 0.65882353
v -0.25462914 0.07444383 -18.32883835 0.25098039 0.27450980 0.65882353
v -0.25540513 0.08217806 -18.32922935 0.25098039 0.27450980 0.65882353
v -0.25008595 0.08786482 -18.32543755 0.25098039 0.27450980 0.65882353
v -0.24483022 0.08416352 -18.32517242 0.25098039 0.27450980 0.65882353
v -0.23990838 0.09820995 -18.33062935 0.25098039 0.27450980 0.65882353
v -0.24640864 0.10108091 -18.33060455 0.25098039 0.27450980 0.65882353
v -0.24178790 0.07485382 -18.32684898 0.25098039 0.27450980 0.65882353
v -0.24138799 0.07830314 -18.32723808 0.25098039 0.27450980 0.65882353
v -0.24660599 0.07954262 -18.34465599 0.25098039 0.27450980 0.65882353
v -0.24215293 0.07902705 -18.34279251 0.25098039 0.27450980 0.65882353
v -0.24369738 0.07624341 -18.34157944 0.25098039 0.27450980 0.65882353
v -0.24772547 0.07647678 -18.34302330 0.25098039 0.27450980 0.65882353
v -0.23244713 0.09545252 -18.33927155 0.25098039 0.27450980 0.65882353
v -0.23511118 0.09608127 -18.34525299 0.25098039 0.27450980 0.65882353
v -0.23490784 0.09561314 -18.33411026 0.25098039 0.27450980 0.65882353
v -0.25280443 0.08169004 -18.34285355 0.25098039 0.27450980 0.65882353
v -0.25673985 0.08581126 -18.33750725 0.25098039 0.27450980 0.65882353
v -0.25273022 0.09889051 -18.34391022 0.25098039 0.27450980 0.65882353
v -0.24848041 0.09662614 -18.34830475 0.25098039 0.27450980 0.65882353
v -0.24052826 0.08188040 -18.32775116 0.25098039 0.27450980 0.65882353
v -0.23835240 0.07971083 -18.33839226 0.25098039 0.27450980 0.65882353
v -0.23743229 0.08034372 -18.33236122 0.25098039 0.27450980 0.65882353
v -0.25440741 0.08838501 -18.33030701 0.25098039 0.27450980 0.65882353
v -0.25656301 0.07951962 -18.33616829 0.25098039 0.27450980 0.65882353
v -0.25312144 0.05787956 -18.33849144 0.25098039 0.27450980 0.65882353
v -0.25379410 0.07362359 -18.34067345 0.25098039 0.27450980 0.65882353
v -0.24796513 0.07336152 -18.34261894 0.25098039 0.27450980 0.65882353
v -0.24937113 0.05804868 -18.34111404 0.25098039 0.27450980 0.65882353
v -0.25337282 0.07718303 -18.34160995 0.25098039 0.27450980 0.65882353
v -0.25644600 0.07432789 -18.33535576 0.25098039 0.27450980 0.65882353
v -0.23828533 0.05966589 -18.33160210 0.25098039 0.27450980 0.65882353
v -0.24016336 0.05962632 -18.33714485 0.25098039 0.27450980 0.65882353
v -0.24026847 0.06066123 -18.32759285 0.25098039 0.27450980 0.65882353
v -0.25202340 0.10174646 -18.33571053 0.25098039 0.27450980 0.65882353
v -0.24153885 0.09563934 -18.34982681 0.25098039 0.27450980 0.65882353
v -0.24736695 0.05978864 -18.32443619 0.25098039 0.27450980 0.65882353
v -0.24294406 0.06036367 -18.32527924 0.25098039 0.27450980 0.65882353
v -0.24377382 0.07358924 -18.34111786 0.25098039 0.27450980 0.65882353
v -0.24459746 0.05877060 -18.34106255 0.25098039 0.27450980 0.65882353
v -0.25487310 0.05894248 -18.33382416 0.25098039 0.27450980 0.65882353
v -0.25281686 0.06037979 -18.32759476 0.25098039 0.27450980 0.65882353
v -0.25326601 0.05310680 -18.33460236 0.25098039 0.27450980 0.65882353
v -0.25116551 0.05400509 -18.32845879 0.25098039 0.27450980 0.65882353
v -0.24593882 0.05383597 -18.32524872 0.25098039 0.27450980 0.65882353
v -0.24159057 0.05534920 -18.32619858 0.25098039 0.27450980 0.65882353
v -0.23907825 0.05632497 -18.32846832 0.25098039 0.27450980 0.65882353
v -0.25123137 0.05302468 -18.33934593 0.25098039 0.27450980 0.65882353
v -0.24785694 0.05410196 -18.34136581 0.25098039 0.27450980 0.65882353
v -0.24417280 0.05731873 -18.34049225 0.25098039 0.27450980 0.65882353
v -0.24881156 0.04977131 -18.34093285 0.25098039 0.27450980 0.65882353
v -0.24989650 0.04686743 -18.33614922 0.25098039 0.27450980 0.65882353
v -0.23559423 0.03858919 -18.33227730 0.25098039 0.27450980 0.65882353
v -0.23843488 0.04320034 -18.33020592 0.25098039 0.27450980 0.65882353
v -0.23948899 0.04270816 -18.33075714 0.25098039 0.27450980 0.65882353
v -0.23707184 0.03776181 -18.33260155 0.25098039 0.27450980 0.65882353
v -0.24336943 0.04716656 -18.32778931 0.25098039 0.27450980 0.65882353
v -0.24334534 0.04560587 -18.32909203 0.25098039 0.27450980 0.65882353
v -0.24671461 0.04566558 -18.33127403 0.25098039 0.27450980 0.65882353
v -0.24338660 0.04077733 -18.33379173 0.25098039 0.27450980 0.65882353
v -0.24536017 0.04258652 -18.33933449 0.25098039 0.27450980 0.65882353
v -0.24226545 0.03859554 -18.34026718 0.25098039 0.27450980 0.65882353
v -0.24062356 0.03637606 -18.33539200 0.25098039 0.27450980 0.65882353
v -0.24825510 0.04557294 -18.33570862 0.25098039 0.27450980 0.65882353
v -0.23628107 0.03522074 -18.33436966 0.25098039 0.27450980 0.65882353
v -0.23455501 0.03469470 -18.33357811 0.25098039 0.27450980 0.65882353
v -0.24830520 0.04733846 -18.33021545 0.25098039 0.27450980 0.65882353
v -0.23954307 0.05036534 -18.32695961 0.25098039 0.27450980 0.65882353
v -0.23577091 0.04458943 -18.32998276 0.25098039 0.27450980 0.65882353
v -0.23264116 0.04002942 -18.33208466 0.25098039 0.27450980 0.65882353
v -0.23200777 0.03686737 -18.33513641 0.25098039 0.27450980 0.65882353
v -0.23367564 0.04660577 -18.33253479 0.25098039 0.27450980 0.65882353
v -0.23163231 0.04205193 -18.33433342 0.25098039 0.27450980 0.65882353
v -0.23106721 0.03906032 -18.33696556 0.25098039 0.27450980 0.65882353
v -0.23314840 0.04792672 -18.33567047 0.25098039 0.27450980 0.65882353
v -0.23171027 0.04370990 -18.33723450 0.25098039 0.27450980 0.65882353
v -0.23736575 0.05560941 -18.33262825 0.25098039 0.27450980 0.65882353
v -0.23767915 0.05332837 -18.32915115 0.25098039 0.27450980 0.65882353
v -0.23143715 0.04087029 -18.33842087 0.25098039 0.27450980 0.65882353
v -0.23692024 0.03329042 -18.33755493 0.25098039 0.27450980 0.65882353
v -0.23416311 0.03522731 -18.34015083 0.25098039 0.27450980 0.65882353
v -0.23801757 0.03448305 -18.33687210 0.25098039 0.27450980 0.65882353
v -0.24590921 0.04362157 -18.34088707 0.25098039 0.27450980 0.65882353
v -0.24206021 0.03858693 -18.34265709 0.25098039 0.27450980 0.65882353
v -0.24475175 0.04523613 -18.34308815 0.25098039 0.27450980 0.65882353
v -0.24096602 0.04017052 -18.34459305 0.25098039 0.27450980 0.65882353
v -0.23962662 0.03522372 -18.34160423 0.25098039 0.27450980 0.65882353
v -0.23994803 0.03549869 -18.34048843 0.25098039 0.27450980 0.65882353
v -0.23858753 0.05755728 -18.33228874 0.25098039 0.27450980 0.65882353
v -0.24042542 0.05807815 -18.33720970 0.25098039 0.27450980 0.65882353
v -0.23912525 0.05664741 -18.33728600 0.25098039 0.27450980 0.65882353
v -0.23437497 0.04864261 -18.34039879 0.25098039 0.27450980 0.65882353
v -0.24259081 0.05604035 -18.34080124 0.25098039 0.27450980 0.65882353
v -0.24549702 0.05117093 -18.34256744 0.25098039 0.27450980 0.65882353
v -0.24181801 0.04680979 -18.34398460 0.25098039 0.27450980 0.65882353
v -0.23798361 0.04779330 -18.34345055 0.25098039 0.27450980 0.65882353
v -0.23884881 0.04202512 -18.34514046 0.25098039 0.27450980 0.65882353
v -0.23693079 0.04390734 -18.34404373 0.25098039 0.27450980 0.65882353
v -0.23275027 0.04448274 -18.34128952 0.25098039 0.27450980 0.65882353
v -0.23637119 0.03898449 -18.34372330 0.25098039 0.27450980 0.65882353
v -0.23811318 0.03663228 -18.34338760 0.25098039 0.27450980 0.65882353
v -0.23279670 0.03796032 -18.34100151 0.25098039 0.27450980 0.65882353
v -0.23502880 0.04108022 -18.34353256 0.25098039 0.27450980 0.65882353
v -0.23235637 0.04041536 -18.34135818 0.25098039 0.27450980 0.65882353
v -0.23795158 0.09591249 -18.34885788 0.25098039 0.27450980 0.65882353
v -0.24616081 0.07999577 -18.35763168 0.25098039 0.27450980 0.65882353
v -0.24656567 0.07908911 -18.36178207 0.25098039 0.27450980 0.65882353
v -0.24699751 0.08205072 -18.36324692 0.25098039 0.27450980 0.65882353
v -0.24560997 0.08361523 -18.35951042 0.25098039 0.27450980 0.65882353
v -0.25602058 0.08330260 -18.35317039 0.25098039 0.27450980 0.65882353
v -0.25158322 0.08207011 -18.35260773 0.25098039 0.27450980 0.65882353
v -0.25115794 0.08663534 -18.35360336 0.25098039 0.27450980 0.65882353
v -0.25548658 0.08789539 -18.35405922 0.25098039 0.27450980 0.65882353
v -0.25960141 0.08292341 -18.35677528 0.25098039 0.27450980 0.65882353
v -0.25918245 0.08727658 -18.35792732 0.25098039 0.27450980 0.65882353
v -0.25533438 0.09157659 -18.35456467 0.25098039 0.27450980 0.65882353
v -0.25053632 0.09041470 -18.35435867 0.25098039 0.27450980 0.65882353
v -0.24676317 0.10452169 -18.35697746 0.25098039 0.27450980 0.65882353
v -0.25171417 0.10755433 -18.35812950 0.25098039 0.27450980 0.65882353
v -0.24832682 0.10606426 -18.37715530 0.25098039 0.27450980 0.65882353
v -0.24284750 0.10465883 -18.37656593 0.25098039 0.27450980 0.65882353
v -0.24562532 0.09802130 -18.37336731 0.25098039 0.27450980 0.65882353
v -0.24999352 0.09960786 -18.37506866 0.25098039 0.27450980 0.65882353
v -0.24817678 0.08100441 -18.35444450 0.25098039 0.27450980 0.65882353
v -0.24697982 0.08500313 -18.35571098 0.25098039 0.27450980 0.65882353
v -0.25356448 0.08565680 -18.37074471 0.25098039 0.27450980 0.65882353
v -0.24920411 0.08477698 -18.36892128 0.25098039 0.27450980 0.65882353
v -0.24902517 0.08152594 -18.36697960 0.25098039 0.27450980 0.65882353
v -0.25315747 0.08127178 -18.36931419 0.25098039 0.27450980 0.65882353
v -0.23994453 0.10275072 -18.37204933 0.25098039 0.27450980 0.65882353
v -0.23884730 0.10182939 -18.36747932 0.25098039 0.27450980 0.65882353
v -0.24027938 0.09882430 -18.36553001 0.25098039 0.27450980 0.65882353
v -0.24260785 0.09709822 -18.36934090 0.25098039 0.27450980 0.65882353
v -0.24148041 0.09981652 -18.36020279 0.25098039 0.27450980 0.65882353
v -0.25740874 0.08697057 -18.36957932 0.25098039 0.27450980 0.65882353
v -0.26050803 0.08925223 -18.36503410 0.25098039 0.27450980 0.65882353
v -0.25750005 0.10541897 -18.37112427 0.25098039 0.27450980 0.65882353
v -0.25410256 0.10305225 -18.37444496 0.25098039 0.27450980 0.65882353
v -0.24693316 0.08791785 -18.35610771 0.25098039 0.27450980 0.65882353
v -0.24642038 0.08497560 -18.36508369 0.25098039 0.27450980 0.65882353
v -0.24542031 0.08579835 -18.36076736 0.25098039 0.27450980 0.65882353
v -0.25970784 0.09118225 -18.35854530 0.25098039 0.27450980 0.65882353
v -0.26014757 0.08489062 -18.36379623 0.25098039 0.27450980 0.65882353
v -0.25744966 0.07022939 -18.36523056 0.25098039 0.27450980 0.65882353
v -0.25741166 0.07907686 -18.36756897 0.25098039 0.27450980 0.65882353
v -0.25262520 0.07795849 -18.36827660 0.25098039 0.27450980 0.65882353
v -0.25438091 0.06986791 -18.36590004 0.25098039 0.27450980 0.65882353
v -0.25738546 0.08264510 -18.36825943 0.25098039 0.27450980 0.65882353
v -0.26049039 0.08058339 -18.36280441 0.25098039 0.27450980 0.65882353
v -0.24673755 0.07169108 -18.35582352 0.25098039 0.27450980 0.65882353
v -0.24788091 0.07102365 -18.36117363 0.25098039 0.27450980 0.65882353
v -0.24832463 0.07240558 -18.35295486 0.25098039 0.27450980 0.65882353
v -0.25662223 0.10798781 -18.36314011 0.25098039 0.27450980 0.65882353
v -0.25582349 0.07329814 -18.35152435 0.25098039 0.27450980 0.65882353
v -0.25139877 0.07253449 -18.35106850 0.25098039 0.27450980 0.65882353
v -0.24875125 0.07823600 -18.36543465 0.25098039 0.27450980 0.65882353
v -0.25081277 0.07028607 -18.36460686 0.25098039 0.27450980 0.65882353
v -0.26015276 0.07133129 -18.36172867 0.25098039 0.27450980 0.65882353
v -0.26008564 0.07335676 -18.35560226 0.25098039 0.27450980 0.65882353
v -0.25907829 0.06644427 -18.36069679 0.25098039 0.27450980 0.65882353
v -0.25902423 0.06874069 -18.35465240 0.25098039 0.27450980 0.65882353
v -0.25409344 0.06887934 -18.35088539 0.25098039 0.27450980 0.65882353
v -0.25034326 0.06968790 -18.35128975 0.25098039 0.27450980 0.65882353
v -0.24762867 0.06984039 -18.35301781 0.25098039 0.27450980 0.65882353
v -0.25638944 0.06598207 -18.36447716 0.25098039 0.27450980 0.65882353
v -0.25338295 0.06638099 -18.36538506 0.25098039 0.27450980 0.65882353
v -0.25004476 0.06785896 -18.36434555 0.25098039 0.27450980 0.65882353
v -0.25502872 0.06192907 -18.36377716 0.25098039 0.27450980 0.65882353
v -0.25661469 0.06069314 -18.35937691 0.25098039 0.27450980 0.65882353
v -0.24618325 0.05555247 -18.35256004 0.25098039 0.27450980 0.65882353
v -0.24782208 0.05932136 -18.35203171 0.25098039 0.27450980 0.65882353
v -0.24892733 0.05883705 -18.35227776 0.25098039 0.27450980 0.65882353
v -0.24711572 0.05509615 -18.35214806 0.25098039 0.27450980 0.65882353
v -0.25152501 0.06335565 -18.35149384 0.25098039 0.27450980 0.65882353
v -0.25191650 0.06182123 -18.35219955 0.25098039 0.27450980 0.65882353
v -0.25485009 0.06204566 -18.35435486 0.25098039 0.27450980 0.65882353
v -0.25241321 0.05726655 -18.35427094 0.25098039 0.27450980 0.65882353
v -0.25361028 0.05586576 -18.35941315 0.25098039 0.27450980 0.65882353
v -0.25153154 0.05227926 -18.35880661 0.25098039 0.27450980 0.65882353
v -0.25089148 0.05371646 -18.35422516 0.25098039 0.27450980 0.65882353
v -0.25584021 0.05961598 -18.35783195 0.25098039 0.27450980 0.65882353
v -0.24700007 0.05232608 -18.35244560 0.25098039 0.27450980 0.65882353
v -0.24583322 0.05168076 -18.35239220 0.25098039 0.27450980 0.65882353
v -0.25615352 0.06358903 -18.35408211 0.25098039 0.27450980 0.65882353
v -0.24817918 0.06584825 -18.35159874 0.25098039 0.27450980 0.65882353
v -0.24529684 0.05960423 -18.35225105 0.25098039 0.27450980 0.65882353
v -0.24397126 0.05477149 -18.35282898 0.25098039 0.27450980 0.65882353
v -0.24428812 0.05123872 -18.35404587 0.25098039 0.27450980 0.65882353
v -0.24374008 0.06093312 -18.35387421 0.25098039 0.27450980 0.65882353
v -0.24224128 0.05527981 -18.35435677 0.25098039 0.27450980 0.65882353
v -0.24271557 0.05189346 -18.35569000 0.25098039 0.27450980 0.65882353
v -0.24264546 0.06171408 -18.35701561 0.25098039 0.27450980 0.65882353
v -0.24186516 0.05611590 -18.35682297 0.25098039 0.27450980 0.65882353
v -0.24492642 0.06778868 -18.35723305 0.25098039 0.27450980 0.65882353
v -0.24590933 0.06702919 -18.35380173 0.25098039 0.27450980 0.65882353
v -0.24256310 0.05311227 -18.35699081 0.25098039 0.27450980 0.65882353
v -0.24809565 0.04953195 -18.35470581 0.25098039 0.27450980 0.65882353
v -0.24574228 0.04960249 -18.35650635 0.25098039 0.27450980 0.65882353
v -0.24931948 0.05033976 -18.35443306 0.25098039 0.27450980 0.65882353
v -0.25358573 0.05598637 -18.36087990 0.25098039 0.27450980 0.65882353
v -0.25098941 0.05170652 -18.36022186 0.25098039 0.27450980 0.65882353
v -0.25236019 0.05654655 -18.36309052 0.25098039 0.27450980 0.65882353
v -0.24931425 0.05194768 -18.36164093 0.25098039 0.27450980 0.65882353
v -0.24927691 0.04940501 -18.35815239 0.25098039 0.27450980 0.65882353
v -0.25028741 0.05045098 -18.35706902 0.25098039 0.27450980 0.65882353
v -0.24585438 0.06940218 -18.35674095 0.25098039 0.27450980 0.65882353
v -0.24723953 0.06906053 -18.36086845 0.25098039 0.27450980 0.65882353
v -0.24640739 0.06714489 -18.36141968 0.25098039 0.27450980 0.65882353
v -0.24373350 0.06132589 -18.36100197 0.25098039 0.27450980 0.65882353
v -0.24932969 0.06567273 -18.36460114 0.25098039 0.27450980 0.65882353
v -0.25260180 0.06356638 -18.36514091 0.25098039 0.27450980 0.65882353
v -0.24994895 0.05765044 -18.36413383 0.25098039 0.27450980 0.65882353
v -0.24678627 0.05923931 -18.36386108 0.25098039 0.27450980 0.65882353
v -0.24725282 0.05258904 -18.36219597 0.25098039 0.27450980 0.65882353
v -0.24479124 0.05445852 -18.36205673 0.25098039 0.27450980 0.65882353
v -0.24256477 0.05591806 -18.36007690 0.25098039 0.27450980 0.65882353
v -0.24556893 0.05055936 -18.35957718 0.25098039 0.27450980 0.65882353
v -0.24709991 0.04952762 -18.35909653 0.25098039 0.27450980 0.65882353
v -0.24430445 0.05060202 -18.35770035 0.25098039 0.27450980 0.65882353
v -0.24423017 0.05195525 -18.35994720 0.25098039 0.27450980 0.65882353
v -0.24327907 0.05246451 -18.35871506 0.25098039 0.27450980 0.65882353
v -0.25202569 0.10654906 -18.37537766 0.25098039 0.27450980 0.65882353
v -0.14934939 0.11540870 -18.33731461 0.25098039 0.27450980 0.65882353
v -0.15462971 0.11274658 -18.33728600 0.25098039 0.27450980 0.65882353
v -0.15530811 0.10455967 -18.35258675 0.25098039 0.27450980 0.65882353
v -0.15850562 0.10505688 -18.34571075 0.25098039 0.27450980 0.65882353
v -0.14951064 0.10621421 -18.35629082 0.25098039 0.27450980 0.65882353
v -0.14124799 0.11335632 -18.35288811 0.25098039 0.27450980 0.65882353
v -0.14498931 0.11024913 -18.35637093 0.25098039 0.27450980 0.65882353
v -0.15817243 0.10818355 -18.34022713 0.25098039 0.27450980 0.65882353
v -0.14415473 0.11731543 -18.34026718 0.25098039 0.27450980 0.65882353
v -0.14041534 0.11686417 -18.34677315 0.25098039 0.27450980 0.65882353
v -0.14088167 0.11023203 -18.33643913 0.25098039 0.27450980 0.65882353
v -0.13694230 0.10926002 -18.34343147 0.25098039 0.27450980 0.65882353
v -0.13716115 0.10556449 -18.34973907 0.25098039 0.27450980 0.65882353
v -0.14238337 0.10300916 -18.35395813 0.25098039 0.27450980 0.65882353
v -0.14695047 0.10081185 -18.35477066 0.25098039 0.27450980 0.65882353
v -0.14784949 0.10907248 -18.33474922 0.25098039 0.27450980 0.65882353
v -0.15318140 0.10671732 -18.33538246 0.25098039 0.27450980 0.65882353
v -0.15712088 0.10340762 -18.33992958 0.25098039 0.27450980 0.65882353
v -0.14773960 0.10111744 -18.33239365 0.25098039 0.27450980 0.65882353
v -0.14138663 0.09310264 -18.33275604 0.25098039 0.27450980 0.65882353
v -0.13628274 0.07826932 -18.34354591 0.25098039 0.27450980 0.65882353
v -0.13753042 0.08428442 -18.34612083 0.25098039 0.27450980 0.65882353
v -0.13646966 0.08464101 -18.34338570 0.25098039 0.27450980 0.65882353
v -0.13482925 0.07921965 -18.34143066 0.25098039 0.27450980 0.65882353
v -0.13691467 0.08971404 -18.34556389 0.25098039 0.27450980 0.65882353
v -0.13695791 0.08871718 -18.34331512 0.25098039 0.27450980 0.65882353
v -0.13781995 0.09122977 -18.33869553 0.25098039 0.27450980 0.65882353
v -0.13640496 0.08623402 -18.33708954 0.25098039 0.27450980 0.65882353
v -0.14029221 0.09090552 -18.33416176 0.25098039 0.27450980 0.65882353
v -0.14061876 0.08733243 -18.33254623 0.25098039 0.27450980 0.65882353
v -0.13524708 0.08130179 -18.33530235 0.25098039 0.27450980 0.65882353
v -0.13364893 0.07679162 -18.33854675 0.25098039 0.27450980 0.65882353
v -0.13457806 0.07690001 -18.33396339 0.25098039 0.27450980 0.65882353
v -0.13571452 0.07462638 -18.33974838 0.25098039 0.27450980 0.65882353
v -0.13600290 0.09287089 -18.33823013 0.25098039 0.27450980 0.65882353
v -0.13994697 0.09342165 -18.35099030 0.25098039 0.27450980 0.65882353
v -0.14021696 0.08480756 -18.34882736 0.25098039 0.27450980 0.65882353
v -0.13969424 0.07779488 -18.34524155 0.25098039 0.27450980 0.65882353
v -0.13880131 0.07388447 -18.34045601 0.25098039 0.27450980 0.65882353
v -0.14470297 0.08473875 -18.34955025 0.25098039 0.27450980 0.65882353
v -0.14406905 0.07871342 -18.34525108 0.25098039 0.27450980 0.65882353
v -0.14354314 0.07551906 -18.34039879 0.25098039 0.27450980 0.65882353
v -0.14924127 0.08516708 -18.34748840 0.25098039 0.27450980 0.65882353
v -0.14742070 0.07983869 -18.34328842 0.25098039 0.27450980 0.65882353
v -0.15177245 0.09703502 -18.35107994 0.25098039 0.27450980 0.65882353
v -0.14577399 0.09551015 -18.35346794 0.25098039 0.27450980 0.65882353
v -0.14576411 0.07731276 -18.34020805 0.25098039 0.27450980 0.65882353
v -0.13591833 0.07448971 -18.33357239 0.25098039 0.27450980 0.65882353
v -0.13951531 0.07376873 -18.33428764 0.25098039 0.27450980 0.65882353
v -0.14346473 0.08850137 -18.33068275 0.25098039 0.27450980 0.65882353
v -0.13905156 0.08282614 -18.33040428 0.25098039 0.27450980 0.65882353
v -0.14218241 0.08274295 -18.32947922 0.25098039 0.27450980 0.65882353
v -0.14728414 0.08999372 -18.33042526 0.25098039 0.27450980 0.65882353
v -0.14512780 0.08258945 -18.32945061 0.25098039 0.27450980 0.65882353
v -0.13933682 0.07792483 -18.32978439 0.25098039 0.27450980 0.65882353
v -0.13703476 0.07936160 -18.33084297 0.25098039 0.27450980 0.65882353
v -0.15292545 0.10052564 -18.35223007 0.25098039 0.27450980 0.65882353
v -0.15674569 0.10186818 -18.34652328 0.25098039 0.27450980 0.65882353
v -0.15547733 0.09878694 -18.34536171 0.25098039 0.27450980 0.65882353
v -0.15299758 0.08730538 -18.34227753 0.25098039 0.27450980 0.65882353
v -0.15616006 0.09937868 -18.33893204 0.25098039 0.27450980 0.65882353
v -0.15244338 0.10048517 -18.33397675 0.25098039 0.27450980 0.65882353
v -0.15085453 0.08971567 -18.33195114 0.25098039 0.27450980 0.65882353
v -0.15335074 0.08894581 -18.33621216 0.25098039 0.27450980 0.65882353
v -0.14809792 0.08220161 -18.33167076 0.25098039 0.27450980 0.65882353
v -0.14944133 0.08202299 -18.33451462 0.25098039 0.27450980 0.65882353
v -0.14945871 0.08060674 -18.33936310 0.25098039 0.27450980 0.65882353
v -0.14541122 0.07780002 -18.33254242 0.25098039 0.27450980 0.65882353
v -0.14258242 0.07752003 -18.33028603 0.25098039 0.27450980 0.65882353
v -0.14375049 0.07530505 -18.33570671 0.25098039 0.27450980 0.65882353
v -0.14708851 0.07894455 -18.33453178 0.25098039 0.27450980 0.65882353
v -0.14631395 0.07752291 -18.33717918 0.25098039 0.27450980 0.65882353
v -0.24007413 0.10889181 -18.37956047 0.25098039 0.27450980 0.65882353
v -0.23565997 0.10722373 -18.37480736 0.25098039 0.27450980 0.65882353
v -0.23353884 0.11182183 -18.37921524 0.25098039 0.27450980 0.65882353
v -0.22880395 0.11795536 -18.38487816 0.25098039 0.27450980 0.65882353
v -0.22975649 0.12557535 -18.39245224 0.25098039 0.27450980 0.65882353
v -0.22421102 0.11850804 -18.37958908 0.25098039 0.27450980 0.65882353
v -0.22931550 0.11209746 -18.37411690 0.25098039 0.27450980 0.65882353
v -0.23270610 0.10565515 -18.36756897 0.25098039 0.27450980 0.65882353
v -0.21644232 0.12542427 -18.37854385 0.25098039 0.27450980 0.65882353
f 2 3 1
f 1 3 4
f 5 6 8
f 8 6 7
f 9 4 10
f 10 4 3
f 12 13 11
f 11 13 9
f 14 12 16
f 16 12 15
f 18 19 17
f 17 19 20
f 22 23 21
f 21 23 24
f 26 27 25
f 25 27 28
f 30 31 29
f 29 31 32
f 33 34 36
f 36 34 35
f 37 38 40
f 40 38 39
f 41 42 6
f 6 42 43
f 6 43 7
f 7 43 44
f 45 34 46
f 46 34 33
f 48 49 47
f 47 49 50
f 52 53 51
f 51 53 54
f 56 52 55
f 55 52 51
f 58 59 57
f 57 59 60
f 61 62 4
f 4 62 1
f 64 65 63
f 63 65 66
f 68 69 67
f 67 69 70
f 72 73 71
f 71 73 74
f 76 77 75
f 75 77 78
f 53 79 54
f 54 79 80
f 82 83 81
f 81 83 84
f 85 86 52
f 52 86 53
f 57 60 87
f 87 60 88
f 89 90 43
f 43 90 44
f 43 42 89
f 89 42 91
f 40 39 92
f 92 39 93
f 94 70 64
f 64 70 69
f 13 61 9
f 9 61 4
f 25 28 69
f 69 28 95
f 96 25 68
f 68 25 69
f 98 99 97
f 97 99 100
f 101 102 104
f 104 102 103
f 106 30 105
f 105 30 29
f 51 54 107
f 107 54 108
f 54 80 108
f 108 80 109
f 111 112 110
f 110 112 113
f 115 5 114
f 114 5 116
f 115 41 5
f 5 41 6
f 36 35 111
f 111 35 117
f 35 118 117
f 117 118 119
f 34 120 35
f 35 120 118
f 34 45 120
f 120 45 121
f 125 126 124
f 124 126 127
f 128 129 14
f 14 129 130
f 33 131 46
f 46 131 132
f 133 94 63
f 63 94 64
f 134 135 137
f 137 135 136
f 139 140 138
f 138 140 141
f 77 142 78
f 78 142 143
f 144 145 20
f 20 145 146
f 148 149 147
f 147 149 72
f 151 152 150
f 150 152 153
f 82 101 83
f 83 101 104
f 101 82 155
f 155 82 154
f 156 157 58
f 58 157 59
f 158 68 147
f 147 68 67
f 159 146 15
f 15 146 16
f 68 158 96
f 96 158 160
f 129 66 130
f 130 66 65
f 162 163 161
f 161 163 164
f 166 167 165
f 165 167 168
f 170 171 169
f 169 171 172
f 174 171 173
f 173 171 170
f 176 177 175
f 175 177 178
f 180 181 179
f 179 181 24
f 182 183 21
f 21 183 184
f 81 185 82
f 82 185 154
f 186 187 188
f 188 187 144
f 158 71 160
f 160 71 189
f 190 135 157
f 157 135 59
f 169 172 139
f 139 172 140
f 147 72 158
f 158 72 71
f 192 193 191
f 191 193 194
f 167 166 49
f 49 166 195
f 196 190 50
f 50 190 157
f 197 198 200
f 200 198 199
f 21 24 182
f 182 24 181
f 146 159 20
f 20 159 17
f 182 181 81
f 81 181 185
f 201 185 180
f 180 185 181
f 202 203 83
f 83 203 84
f 205 206 204
f 204 206 85
f 207 22 184
f 184 22 21
f 179 24 208
f 208 24 23
f 208 209 179
f 179 209 205
f 209 210 205
f 205 210 206
f 212 206 211
f 211 206 210
f 179 205 180
f 180 205 204
f 213 176 88
f 88 176 214
f 86 85 212
f 212 85 206
f 193 217 218
f 217 219 218
f 218 219 220
f 219 18 220
f 220 18 17
f 19 221 20
f 20 221 144
f 222 223 225
f 225 223 224
f 175 226 176
f 176 226 214
f 227 87 214
f 214 87 88
f 220 17 228
f 228 17 159
f 134 213 60
f 60 213 88
f 138 229 151
f 151 229 152
f 193 192 210
f 210 192 211
f 230 194 218
f 218 194 193
f 231 232 228
f 228 232 230
f 233 234 91
f 91 234 89
f 235 236 93
f 93 236 92
f 230 232 234
f 234 232 237
f 47 238 48
f 48 238 239
f 240 191 235
f 235 191 236
f 5 8 116
f 116 8 241
f 242 243 189
f 189 243 160
f 244 245 98
f 98 245 99
f 156 246 47
f 47 246 238
f 76 247 77
f 77 247 248
f 250 125 249
f 249 125 124
f 252 253 251
f 251 253 254
f 111 110 36
f 36 110 255
f 256 33 255
f 255 33 36
f 257 258 154
f 154 258 155
f 63 169 133
f 133 169 139
f 66 170 63
f 63 170 169
f 173 170 129
f 129 170 66
f 129 128 173
f 173 128 259
f 128 260 259
f 259 260 261
f 213 134 262
f 262 134 137
f 263 264 186
f 186 264 187
f 112 265 113
f 113 265 266
f 11 267 268
f 234 233 230
f 230 233 194
f 153 269 70
f 70 269 67
f 175 178 165
f 165 178 141
f 150 153 94
f 94 153 70
f 271 221 270
f 270 221 207
f 269 153 272
f 272 153 152
f 121 45 109
f 109 45 108
f 47 50 156
f 156 50 157
f 57 273 58
f 58 273 274
f 145 275 260
f 260 275 261
f 276 149 143
f 143 149 78
f 148 269 75
f 75 269 272
f 207 277 270
f 270 277 278
f 195 196 49
f 49 196 50
f 59 135 60
f 60 135 134
f 83 104 202
f 202 104 279
f 149 148 78
f 78 148 75
f 247 278 248
f 248 278 277
f 183 182 84
f 84 182 81
f 48 239 281
f 281 239 282
f 227 223 283
f 283 223 222
f 223 226 224
f 224 226 168
f 281 282 224
f 224 282 225
f 165 168 175
f 175 168 226
f 264 263 138
f 138 263 229
f 14 16 128
f 128 16 260
f 220 228 218
f 218 228 230
f 87 227 284
f 284 227 283
f 260 16 145
f 145 16 146
f 244 98 258
f 258 98 155
f 58 274 156
f 156 274 246
f 107 285 51
f 51 285 55
f 243 286 160
f 160 286 96
f 234 237 89
f 89 237 90
f 46 132 107
f 107 132 285
f 253 252 249
f 249 252 250
f 286 26 96
f 96 26 25
f 106 105 287
f 287 105 288
f 272 152 289
f 289 152 229
f 138 151 139
f 139 151 133
f 183 290 161
f 161 290 162
f 291 292 277
f 277 292 293
f 151 150 133
f 133 150 94
f 262 275 177
f 177 275 187
f 144 187 145
f 145 187 275
f 273 57 284
f 284 57 87
f 174 136 190
f 190 136 135
f 111 117 112
f 112 117 38
f 117 119 38
f 38 119 123
f 112 38 265
f 265 38 37
f 287 288 254
f 254 288 251
f 228 159 231
f 231 159 15
f 223 227 226
f 226 227 214
f 147 67 148
f 148 67 269
f 224 168 281
f 281 168 167
f 199 163 200
f 200 163 162
f 45 46 108
f 108 46 107
f 281 167 48
f 48 167 49
f 161 164 291
f 291 164 292
f 38 123 39
f 293 294 277
f 277 294 248
f 284 283 296
f 296 283 295
f 284 296 273
f 273 296 297
f 274 273 298
f 298 273 297
f 246 274 299
f 299 274 298
f 283 222 295
f 295 222 300
f 222 225 300
f 300 225 301
f 301 225 302
f 302 225 282
f 303 304 300
f 300 304 295
f 306 307 305
f 305 307 308
f 309 310 308
f 308 310 305
f 308 307 312
f 312 307 311
f 313 314 312
f 312 314 315
f 311 316 312
f 312 316 313
f 317 304 311
f 311 304 316
f 315 309 312
f 312 309 308
f 318 319 321
f 321 319 320
f 319 318 309
f 309 318 310
f 311 307 317
f 317 307 306
f 306 297 317
f 317 297 296
f 306 322 297
f 297 322 298
f 305 323 306
f 306 323 322
f 323 305 324
f 324 305 310
f 304 317 295
f 295 317 296
f 318 325 310
f 310 325 324
f 323 324 326
f 326 324 327
f 324 325 327
f 327 325 328
f 326 327 329
f 329 327 330
f 329 331 326
f 326 331 332
f 333 330 328
f 328 330 327
f 323 326 322
f 322 326 332
f 322 332 298
f 298 332 299
f 325 318 334
f 334 318 321
f 313 316 335
f 335 316 304
f 335 336 313
f 313 336 314
f 304 303 335
f 335 303 337
f 336 335 338
f 338 335 337
f 336 339 314
f 314 339 340
f 246 299 238
f 238 299 341
f 239 342 282
f 282 342 302
f 342 239 341
f 341 239 238
f 341 331 342
f 342 331 343
f 331 329 343
f 343 329 344
f 342 343 302
f 302 343 345
f 341 299 331
f 331 299 332
f 346 301 345
f 345 301 302
f 346 303 301
f 301 303 300
f 347 337 346
f 346 337 303
f 347 346 348
f 348 346 345
f 349 347 350
f 350 347 348
f 343 344 345
f 345 344 348
f 344 351 348
f 348 351 350
f 337 347 338
f 338 347 349
f 353 338 352
f 352 338 349
f 352 355 354
f 354 355 356
f 352 349 355
f 355 349 350
f 352 354 353
f 353 354 334
f 353 334 339
f 339 334 321
f 339 336 353
f 353 336 338
f 329 330 344
f 344 330 351
f 356 351 333
f 333 351 330
f 356 355 351
f 351 355 350
f 354 356 328
f 328 356 333
f 328 325 354
f 354 325 334
f 309 315 319
f 319 315 320
f 320 340 321
f 321 340 339
f 320 315 340
f 340 315 314
f 137 136 261
f 261 136 259
f 140 166 141
f 141 166 165
f 172 171 195
f 195 171 196
f 171 174 196
f 196 174 190
f 178 177 264
f 264 177 187
f 172 195 140
f 140 195 166
f 137 261 262
f 262 261 275
f 178 264 141
f 141 264 138
f 262 177 213
f 213 177 176
f 136 174 259
f 259 174 173
f 358 359 357
f 357 359 360
f 362 363 361
f 361 363 364
f 361 364 365
f 365 364 366
f 367 368 370
f 370 368 369
f 76 371 247
f 247 371 372
f 373 374 362
f 362 374 363
f 376 377 375
f 375 377 378
f 289 229 380
f 380 229 379
f 381 379 263
f 263 379 229
f 383 384 382
f 382 384 385
f 386 368 374
f 374 368 363
f 76 289 371
f 371 289 380
f 377 376 359
f 359 376 387
f 388 386 360
f 360 386 374
f 389 383 366
f 366 383 390
f 392 393 391
f 391 393 394
f 383 382 390
f 390 382 395
f 396 365 390
f 390 365 366
f 389 366 367
f 367 366 364
f 357 397 358
f 358 397 398
f 373 399 357
f 357 399 397
f 389 367 400
f 400 367 370
f 382 385 375
f 375 385 372
f 357 360 373
f 373 360 374
f 361 401 362
f 362 401 402
f 387 388 359
f 359 388 360
f 363 368 364
f 364 368 367
f 358 398 403
f 403 398 404
f 396 392 405
f 405 392 391
f 392 395 393
f 393 395 378
f 393 403 394
f 394 403 404
f 375 378 382
f 382 378 395
f 365 396 406
f 406 396 405
f 362 402 373
f 373 402 399
f 271 270 400
f 400 270 384
f 401 361 406
f 406 361 365
f 381 369 386
f 386 369 368
f 392 396 395
f 395 396 390
f 393 378 403
f 403 378 377
f 403 377 358
f 358 377 359
f 406 405 408
f 408 405 407
f 406 408 401
f 401 408 409
f 401 409 402
f 402 409 410
f 402 410 399
f 399 410 411
f 405 391 407
f 407 391 412
f 391 394 412
f 412 394 413
f 394 404 413
f 413 404 414
f 415 416 412
f 412 416 407
f 418 419 417
f 417 419 420
f 421 422 418
f 418 422 419
f 419 422 424
f 424 422 423
f 425 426 424
f 424 426 427
f 423 428 424
f 424 428 425
f 427 420 424
f 424 420 419
f 420 429 417
f 417 429 430
f 423 422 431
f 431 422 421
f 421 409 431
f 431 409 408
f 421 432 409
f 409 432 410
f 418 433 421
f 421 433 432
f 434 433 417
f 417 433 418
f 431 416 423
f 423 416 428
f 416 431 407
f 407 431 408
f 435 434 430
f 430 434 417
f 433 434 436
f 436 434 437
f 434 435 437
f 437 435 438
f 436 437 439
f 439 437 440
f 439 441 436
f 436 441 442
f 438 443 437
f 437 443 440
f 436 442 433
f 433 442 432
f 432 442 410
f 410 442 411
f 435 430 445
f 445 430 444
f 430 429 444
f 444 429 446
f 425 428 447
f 447 428 416
f 426 425 448
f 448 425 447
f 416 415 447
f 447 415 449
f 447 449 448
f 448 449 450
f 451 452 448
f 448 452 426
f 446 452 444
f 444 452 451
f 399 411 397
f 397 411 453
f 398 454 404
f 404 454 414
f 454 398 453
f 453 398 397
f 453 441 454
f 454 441 455
f 441 439 455
f 455 439 456
f 454 455 414
f 414 455 457
f 441 453 442
f 442 453 411
f 458 413 457
f 457 413 414
f 458 415 413
f 413 415 412
f 458 459 415
f 415 459 449
f 459 458 460
f 460 458 457
f 461 459 462
f 462 459 460
f 455 456 457
f 457 456 460
f 456 463 460
f 460 463 462
f 459 461 449
f 449 461 450
f 465 450 464
f 464 450 461
f 464 467 466
f 466 467 468
f 464 461 467
f 467 461 462
f 464 466 465
f 465 466 445
f 465 445 451
f 451 445 444
f 451 448 465
f 465 448 450
f 439 440 456
f 456 440 463
f 468 463 443
f 443 463 440
f 468 467 463
f 463 467 462
f 466 468 438
f 438 468 443
f 438 435 466
f 466 435 445
f 420 427 429
f 429 427 446
f 446 427 452
f 452 427 426
f 370 369 188
f 188 369 186
f 371 376 372
f 372 376 375
f 380 379 387
f 387 379 388
f 379 381 388
f 388 381 386
f 385 384 278
f 278 384 270
f 380 387 371
f 371 387 376
f 400 370 271
f 271 370 188
f 385 278 372
f 372 278 247
f 400 384 389
f 389 384 383
f 369 381 186
f 186 381 263
f 221 271 144
f 144 271 188
f 221 19 207
f 207 19 22
f 19 18 22
f 22 18 23
f 18 219 23
f 23 219 208
f 469 470 472
f 472 470 471
f 474 475 473
f 473 475 476
f 473 476 477
f 477 476 478
f 480 481 479
f 479 481 482
f 483 484 474
f 474 484 475
f 486 487 485
f 485 487 488
f 489 490 77
f 77 490 142
f 491 489 248
f 248 489 77
f 493 494 492
f 492 494 495
f 496 480 484
f 484 480 475
f 486 497 487
f 487 497 471
f 498 496 472
f 472 496 484
f 499 493 478
f 478 493 500
f 501 502 504
f 504 502 503
f 493 492 500
f 500 492 505
f 506 477 500
f 500 477 478
f 499 478 479
f 479 478 476
f 469 507 470
f 470 507 508
f 483 509 469
f 469 509 507
f 479 482 499
f 499 482 510
f 492 495 485
f 485 495 511
f 483 469 484
f 484 469 472
f 473 512 474
f 474 512 513
f 497 498 471
f 471 498 472
f 475 480 476
f 476 480 479
f 470 508 514
f 514 508 515
f 506 502 516
f 516 502 501
f 503 502 488
f 488 502 505
f 514 515 503
f 503 515 504
f 485 488 492
f 492 488 505
f 477 506 517
f 517 506 516
f 474 513 483
f 483 513 509
f 510 292 494
f 494 292 164
f 512 473 517
f 517 473 477
f 491 481 496
f 496 481 480
f 502 506 505
f 505 506 500
f 503 488 514
f 514 488 487
f 514 487 470
f 470 487 471
f 517 516 519
f 519 516 518
f 517 519 512
f 512 519 520
f 512 520 513
f 513 520 521
f 513 521 509
f 509 521 522
f 516 501 518
f 518 501 523
f 501 504 523
f 523 504 524
f 524 504 525
f 525 504 515
f 526 527 523
f 523 527 518
f 529 530 528
f 528 530 531
f 532 533 529
f 529 533 530
f 530 533 535
f 535 533 534
f 536 537 535
f 535 537 538
f 534 539 535
f 535 539 536
f 538 531 535
f 535 531 530
f 540 541 531
f 531 541 528
f 533 532 534
f 534 532 542
f 532 520 542
f 542 520 519
f 532 543 520
f 520 543 521
f 529 544 532
f 532 544 543
f 544 529 545
f 545 529 528
f 534 542 539
f 539 542 527
f 527 542 518
f 518 542 519
f 541 546 528
f 528 546 545
f 547 544 548
f 548 544 545
f 546 549 545
f 545 549 548
f 550 547 551
f 551 547 548
f 547 550 553
f 553 550 552
f 549 554 548
f 548 554 551
f 544 547 543
f 543 547 553
f 543 553 521
f 521 553 522
f 546 541 556
f 556 541 555
f 541 540 555
f 555 540 557
f 536 539 558
f 558 539 527
f 537 536 559
f 559 536 558
f 527 526 558
f 558 526 560
f 559 558 561
f 561 558 560
f 559 562 537
f 537 562 563
f 557 563 555
f 555 563 562
f 509 522 507
f 507 522 564
f 508 565 515
f 515 565 525
f 565 508 564
f 564 508 507
f 564 552 565
f 565 552 566
f 552 550 566
f 566 550 567
f 565 566 525
f 525 566 568
f 564 522 552
f 552 522 553
f 569 524 568
f 568 524 525
f 569 526 524
f 524 526 523
f 570 560 569
f 569 560 526
f 570 569 571
f 571 569 568
f 572 570 573
f 573 570 571
f 566 567 568
f 568 567 571
f 567 574 571
f 571 574 573
f 570 572 560
f 560 572 561
f 576 561 575
f 575 561 572
f 575 578 577
f 577 578 579
f 575 572 578
f 578 572 573
f 575 577 576
f 576 577 556
f 576 556 562
f 562 556 555
f 562 559 576
f 576 559 561
f 550 551 567
f 567 551 574
f 579 574 554
f 554 574 551
f 579 578 574
f 574 578 573
f 579 554 577
f 577 554 549
f 549 546 577
f 577 546 556
f 531 538 540
f 540 538 557
f 557 538 563
f 563 538 537
f 481 294 482
f 482 294 293
f 580 486 511
f 511 486 485
f 490 489 497
f 497 489 498
f 489 491 498
f 498 491 496
f 163 495 164
f 164 495 494
f 580 490 486
f 486 490 497
f 482 293 510
f 510 293 292
f 495 163 511
f 511 163 199
f 494 493 510
f 510 493 499
f 481 491 294
f 294 491 248
f 582 583 581
f 581 583 584
f 586 587 585
f 585 587 588
f 585 588 589
f 589 588 590
f 592 593 591
f 591 593 594
f 595 596 598
f 598 596 597
f 599 600 586
f 586 600 587
f 601 602 604
f 604 602 603
f 605 606 608
f 608 606 607
f 609 607 200
f 200 607 606
f 610 611 613
f 613 611 612
f 600 614 587
f 587 614 592
f 596 605 597
f 597 605 608
f 602 615 603
f 603 615 583
f 616 614 584
f 584 614 600
f 611 618 617
f 617 618 590
f 620 621 619
f 619 621 622
f 610 623 611
f 611 623 618
f 624 589 618
f 618 589 590
f 617 590 591
f 591 590 588
f 581 625 582
f 582 625 626
f 599 627 581
f 581 627 625
f 591 594 617
f 617 594 628
f 601 610 598
f 598 610 613
f 581 584 599
f 599 584 600
f 585 629 586
f 586 629 630
f 615 616 583
f 583 616 584
f 587 592 588
f 588 592 591
f 582 626 631
f 631 626 632
f 624 620 633
f 633 620 619
f 621 620 604
f 604 620 623
f 631 632 621
f 621 632 622
f 610 601 623
f 623 601 604
f 589 624 634
f 634 624 633
f 586 630 599
f 599 630 627
f 203 202 628
f 628 202 612
f 629 585 634
f 634 585 589
f 609 593 614
f 614 593 592
f 620 624 623
f 623 624 618
f 631 621 603
f 603 621 604
f 582 631 583
f 583 631 603
f 634 633 636
f 636 633 635
f 634 636 629
f 629 636 637
f 629 637 630
f 630 637 638
f 630 638 627
f 627 638 639
f 633 619 635
f 635 619 640
f 619 622 640
f 640 622 641
f 641 622 642
f 642 622 632
f 644 635 643
f 643 635 640
f 645 646 648
f 648 646 647
f 649 650 646
f 646 650 647
f 647 650 652
f 652 650 651
f 652 653 655
f 655 653 654
f 651 656 652
f 652 656 653
f 655 648 652
f 652 648 647
f 648 657 645
f 645 657 658
f 650 649 651
f 651 649 659
f 649 637 659
f 659 637 636
f 649 660 637
f 637 660 638
f 661 660 646
f 646 660 649
f 662 661 645
f 645 661 646
f 651 659 656
f 656 659 644
f 644 659 635
f 635 659 636
f 663 662 658
f 658 662 645
f 664 661 665
f 665 661 662
f 663 666 662
f 662 666 665
f 667 664 668
f 668 664 665
f 664 667 670
f 670 667 669
f 666 671 665
f 665 671 668
f 661 664 660
f 660 664 670
f 660 670 638
f 638 670 639
f 658 672 663
f 663 672 673
f 658 657 672
f 672 657 674
f 653 656 675
f 675 656 644
f 653 675 654
f 654 675 676
f 675 644 677
f 677 644 643
f 676 675 678
f 678 675 677
f 679 680 676
f 676 680 654
f 674 680 672
f 672 680 679
f 627 639 625
f 625 639 681
f 626 682 632
f 632 682 642
f 681 682 625
f 625 682 626
f 669 683 681
f 681 683 682
f 667 684 669
f 669 684 683
f 682 683 642
f 642 683 685
f 681 639 669
f 669 639 670
f 686 641 685
f 685 641 642
f 641 686 640
f 640 686 643
f 686 687 643
f 643 687 677
f 687 686 688
f 688 686 685
f 689 687 690
f 690 687 688
f 683 684 685
f 685 684 688
f 684 691 688
f 688 691 690
f 687 689 677
f 677 689 678
f 693 678 692
f 692 678 689
f 692 695 694
f 694 695 696
f 692 689 695
f 695 689 690
f 692 694 693
f 693 694 673
f 693 673 679
f 679 673 672
f 679 676 693
f 693 676 678
f 684 667 691
f 691 667 668
f 696 691 671
f 671 691 668
f 696 695 691
f 691 695 690
f 694 696 666
f 666 696 671
f 666 663 694
f 694 663 673
f 648 655 657
f 657 655 674
f 674 655 680
f 680 655 654
f 593 162 594
f 594 162 290
f 598 597 601
f 601 597 602
f 615 608 616
f 616 608 607
f 607 609 616
f 616 609 614
f 697 595 613
f 613 595 598
f 597 608 602
f 602 608 615
f 594 290 628
f 628 290 203
f 628 612 617
f 617 612 611
f 593 609 162
f 162 609 200
f 105 29 698
f 698 29 699
f 268 126 701
f 701 126 700
f 126 125 700
f 700 125 702
f 252 703 250
f 250 703 704
f 32 268 705
f 705 268 701
f 288 105 706
f 706 105 698
f 29 32 699
f 699 32 705
f 707 251 706
f 706 251 288
f 250 704 125
f 125 704 702
f 703 252 707
f 707 252 251
f 706 708 707
f 707 708 709
f 707 709 703
f 703 709 710
f 703 710 704
f 704 710 711
f 704 711 702
f 702 711 712
f 706 698 708
f 708 698 713
f 698 699 713
f 713 699 714
f 699 705 714
f 714 705 715
f 717 708 716
f 716 708 713
f 719 720 718
f 718 720 721
f 722 723 719
f 719 723 720
f 724 725 723
f 723 725 720
f 724 726 725
f 725 726 727
f 728 721 725
f 725 721 720
f 721 728 729
f 729 728 730
f 729 731 721
f 721 731 718
f 724 723 732
f 732 723 722
f 722 710 732
f 732 710 709
f 722 733 710
f 710 733 711
f 719 734 722
f 722 734 733
f 734 719 735
f 735 719 718
f 724 732 726
f 726 732 717
f 717 732 708
f 708 732 709
f 731 736 718
f 718 736 735
f 737 734 738
f 738 734 735
f 736 739 735
f 735 739 738
f 740 737 741
f 741 737 738
f 737 740 743
f 743 740 742
f 739 744 738
f 738 744 741
f 734 737 733
f 733 737 743
f 733 743 711
f 711 743 712
f 736 731 746
f 746 731 745
f 731 729 745
f 745 729 730
f 727 726 747
f 747 726 717
f 748 727 749
f 749 727 747
f 747 717 750
f 750 717 716
f 749 747 751
f 751 747 750
f 749 752 748
f 748 752 753
f 730 753 745
f 745 753 752
f 728 725 748
f 748 725 727
f 730 728 753
f 753 728 748
f 700 702 754
f 754 702 712
f 705 701 715
f 715 701 755
f 754 755 700
f 700 755 701
f 742 756 754
f 754 756 755
f 740 757 742
f 742 757 756
f 755 756 715
f 715 756 758
f 754 712 742
f 742 712 743
f 759 714 758
f 758 714 715
f 714 759 713
f 713 759 716
f 759 760 716
f 716 760 750
f 760 759 761
f 761 759 758
f 762 760 763
f 763 760 761
f 756 757 758
f 758 757 761
f 757 764 761
f 761 764 763
f 760 762 750
f 750 762 751
f 766 751 765
f 765 751 762
f 767 765 769
f 769 765 768
f 765 762 768
f 768 762 763
f 765 767 766
f 766 767 746
f 766 746 752
f 752 746 745
f 752 749 766
f 766 749 751
f 757 740 764
f 764 740 741
f 769 764 744
f 744 764 741
f 769 768 764
f 764 768 763
f 767 769 739
f 739 769 744
f 739 736 767
f 767 736 746
f 219 217 208
f 208 217 209
f 209 217 210
f 210 217 193
f 198 580 199
f 199 580 511
f 76 75 289
f 289 75 272
f 277 207 291
f 291 207 184
f 290 183 203
f 203 183 84
f 490 580 142
f 142 580 198
f 142 198 143
f 143 198 197
f 149 276 72
f 72 276 73
f 104 103 279
f 279 103 770
f 770 596 279
f 279 596 595
f 605 596 771
f 771 596 770
f 771 770 772
f 772 770 103
f 772 103 773
f 773 103 102
f 155 774 101
f 101 774 102
f 773 102 97
f 97 102 774
f 775 773 100
f 100 773 97
f 773 775 772
f 772 775 776
f 772 776 771
f 771 776 777
f 200 606 197
f 197 606 777
f 189 71 778
f 778 71 74
f 97 774 98
f 98 774 155
f 183 161 184
f 184 161 291
f 777 276 197
f 197 276 143
f 777 606 771
f 771 606 605
f 613 612 697
f 697 612 202
f 595 697 279
f 279 697 202
f 73 276 776
f 776 276 777
f 776 775 73
f 73 775 74
f 100 778 775
f 775 778 74
f 778 100 189
f 189 100 99
f 245 242 99
f 99 242 189
f 131 33 256
f 28 1 95
f 95 1 62
f 27 2 28
f 28 2 1
f 265 115 266
f 266 115 114
f 95 62 69
f 69 62 64
f 62 61 64
f 64 61 65
f 61 13 65
f 65 13 130
f 13 12 130
f 130 12 14
f 31 11 32
f 32 11 268
f 15 12 31
f 31 12 11
f 31 30 15
f 15 30 231
f 30 106 231
f 231 106 232
f 287 237 106
f 106 237 232
f 254 90 287
f 287 90 237
f 253 44 254
f 254 44 90
f 253 249 44
f 44 249 7
f 267 127 268
f 268 127 126
f 10 3 241
f 241 3 116
f 3 2 116
f 116 2 114
f 2 27 114
f 114 27 266
f 27 26 266
f 266 26 113
f 26 286 113
f 113 286 110
f 286 243 110
f 110 243 255
f 243 242 255
f 255 242 256
f 242 245 256
f 256 245 131
f 245 244 131
f 131 244 132
f 265 37 115
f 115 37 41
f 41 37 42
f 42 37 40
f 92 91 40
f 40 91 42
f 236 233 92
f 92 233 91
f 191 194 236
f 236 194 233
f 258 285 244
f 244 285 132
f 257 55 258
f 258 55 285
f 257 154 201
f 201 154 185
f 56 201 204
f 204 201 180
f 55 257 56
f 56 257 201
f 204 85 56
f 56 85 52
f 86 122 53
f 53 122 79
f 212 215 86
f 86 215 122
f 211 216 212
f 212 216 215
f 192 280 211
f 211 280 216
f 191 240 192
f 192 240 280
f 249 124 7
f 7 124 8
f 124 127 8
f 8 127 241
f 127 267 241
f 241 267 10
f 10 267 9
f 9 267 11
f 93 39 235
f 235 39 240
f 39 123 240
f 240 123 280
f 123 119 280
f 280 119 216
f 119 118 216
f 216 118 215
f 118 120 215
f 215 120 122
f 120 121 122
f 122 121 79
f 121 109 79
f 79 109 80

