# https://github.com/mikedh/trimesh
v -0.17990640 -0.01328116 -19.80285645 0.25098039 0.27450980 0.65882353
v -0.17746499 -0.00500510 -19.80978203 0.25098039 0.27450980 0.65882353
v -0.17101549 -0.01282957 -19.80899048 0.25098039 0.27450980 0.65882353
v -0.17347804 -0.01984282 -19.80024719 0.25098039 0.27450980 0.65882353
v -0.16138878 0.00358758 -19.82260513 0.25098039 0.27450980 0.65882353
v -0.15227014 0.01135425 -19.81971359 0.25098039 0.27450980 0.65882353
v -0.14771897 -0.00245401 -19.81761551 0.25098039 0.27450980 0.65882353
v -0.15642245 -0.00709357 -19.82103920 0.25098039 0.27450980 0.65882353
v -0.16891670 -0.02480824 -19.79660034 0.25098039 0.27450980 0.65882353
v -0.16625574 -0.01939478 -19.80771828 0.25098039 0.27450980 0.65882353
v -0.16613525 -0.02440840 -19.79226494 0.25098039 0.27450980 0.65882353
v -0.17206481 -0.02542782 -19.77841759 0.25098039 0.27450980 0.65882353
v -0.17285886 -0.02734225 -19.78540230 0.25098039 0.27450980 0.65882353
v -0.17719963 -0.02910554 -19.77192879 0.25098039 0.27450980 0.65882353
v -0.17374438 -0.01582878 -19.77289200 0.25098039 0.27450980 0.65882353
v -0.18429521 -0.02522082 -19.76637840 0.25098039 0.27450980 0.65882353
v -0.20144522 -0.00240754 -19.77683449 0.25098039 0.27450980 0.65882353
v -0.21222690 0.00053513 -19.78540611 0.25098039 0.27450980 0.65882353
v -0.21740188 -0.01497572 -19.78017998 0.25098039 0.27450980 0.65882353
v -0.20564872 -0.01689611 -19.77248001 0.25098039 0.27450980 0.65882353
v -0.22812098 -0.00818311 -19.79767418 0.25098039 0.27450980 0.65882353
v -0.22279733 -0.01263561 -19.78771400 0.25098039 0.27450980 0.65882353
v -0.21823034 0.00333821 -19.79211235 0.25098039 0.27450980 0.65882353
v -0.22316846 0.00650546 -19.80077171 0.25098039 0.27450980 0.65882353
v -0.19076446 -0.00463540 -19.81094551 0.25098039 0.27450980 0.65882353
v -0.18853149 0.00402733 -19.81651115 0.25098039 0.27450980 0.65882353
v -0.18508545 0.00169667 -19.81267166 0.25098039 0.27450980 0.65882353
v -0.18681878 -0.00656332 -19.80753136 0.25098039 0.27450980 0.65882353
v -0.15356033 -0.02210186 -19.79284096 0.25098039 0.27450980 0.65882353
v -0.15828578 -0.01184970 -19.78450775 0.25098039 0.27450980 0.65882353
v -0.16303512 -0.01868247 -19.78569794 0.25098039 0.27450980 0.65882353
v -0.15682583 -0.02507997 -19.79683495 0.25098039 0.27450980 0.65882353
v -0.18566801 0.02397877 -19.83769035 0.25098039 0.27450980 0.65882353
v -0.18460152 0.03785030 -19.83620644 0.25098039 0.27450980 0.65882353
v -0.18012315 0.03779705 -19.83217049 0.25098039 0.27450980 0.65882353
v -0.18249592 0.02529893 -19.83378410 0.25098039 0.27450980 0.65882353
v -0.16283634 0.02994755 -19.82149506 0.25098039 0.27450980 0.65882353
v -0.16611189 0.03928486 -19.82000160 0.25098039 0.27450980 0.65882353
v -0.16168475 0.04742386 -19.81017685 0.25098039 0.27450980 0.65882353
v -0.15873954 0.03806401 -19.80828285 0.25098039 0.27450980 0.65882353
v -0.15737706 0.02005822 -19.82109070 0.25098039 0.27450980 0.65882353
v -0.15265259 0.02722704 -19.81018639 0.25098039 0.27450980 0.65882353
v -0.14748970 0.01642872 -19.81013489 0.25098039 0.27450980 0.65882353
v -0.14269005 0.00074592 -19.81008720 0.25098039 0.27450980 0.65882353
v -0.19592045 0.03931110 -19.84245491 0.25098039 0.27450980 0.65882353
v -0.19819483 0.02939923 -19.84495926 0.25098039 0.27450980 0.65882353
v -0.18205294 -0.07453091 -19.78153229 0.25098039 0.27450980 0.65882353
v -0.18621352 -0.07455120 -19.78584290 0.25098039 0.27450980 0.65882353
v -0.18645856 -0.07074973 -19.78470612 0.25098039 0.27450980 0.65882353
v -0.18246156 -0.07145999 -19.78037453 0.25098039 0.27450980 0.65882353
v -0.21573830 0.03952697 -19.83682442 0.25098039 0.27450980 0.65882353
v -0.22033530 0.04284523 -19.82815361 0.25098039 0.27450980 0.65882353
v -0.21826726 0.04867750 -19.83197403 0.25098039 0.27450980 0.65882353
v -0.21237884 0.04592744 -19.83904839 0.25098039 0.27450980 0.65882353
v -0.22000697 0.03095807 -19.83380127 0.25098039 0.27450980 0.65882353
v -0.22240973 0.03435298 -19.82301903 0.25098039 0.27450980 0.65882353
v -0.18625876 -0.08131610 -19.77120590 0.25098039 0.27450980 0.65882353
v -0.18225187 -0.07915200 -19.77371216 0.25098039 0.27450980 0.65882353
v -0.18361101 -0.07552712 -19.77085495 0.25098039 0.27450980 0.65882353
v -0.18815279 -0.07701630 -19.76872063 0.25098039 0.27450980 0.65882353
v -0.17585662 -0.02553775 -19.79185867 0.25098039 0.27450980 0.65882353
v -0.18156175 -0.02128594 -19.79773903 0.25098039 0.27450980 0.65882353
v -0.18301556 -0.03924961 -19.78444099 0.25098039 0.27450980 0.65882353
v -0.18362746 -0.03202678 -19.78905678 0.25098039 0.27450980 0.65882353
v -0.17824829 -0.03106708 -19.78474045 0.25098039 0.27450980 0.65882353
v -0.17865944 -0.03677550 -19.78029251 0.25098039 0.27450980 0.65882353
v -0.20036943 -0.02397519 -19.80403328 0.25098039 0.27450980 0.65882353
v -0.19686052 -0.01359126 -19.80809784 0.25098039 0.27450980 0.65882353
v -0.19262114 -0.01597188 -19.80350685 0.25098039 0.27450980 0.65882353
v -0.19460540 -0.02782939 -19.79874992 0.25098039 0.27450980 0.65882353
v -0.20563968 -0.01149423 -19.81929588 0.25098039 0.27450980 0.65882353
v -0.20864384 -0.02168721 -19.81412125 0.25098039 0.27450980 0.65882353
v -0.21341401 -0.01915093 -19.82105255 0.25098039 0.27450980 0.65882353
v -0.20986636 -0.01285377 -19.82422638 0.25098039 0.27450980 0.65882353
v -0.21155477 -0.03922600 -19.80300140 0.25098039 0.27450980 0.65882353
v -0.21409963 -0.04522076 -19.79923439 0.25098039 0.27450980 0.65882353
v -0.21600369 -0.04568207 -19.80040741 0.25098039 0.27450980 0.65882353
v -0.21374381 -0.03818567 -19.80534363 0.25098039 0.27450980 0.65882353
v -0.21645120 0.05493969 -19.83465385 0.25098039 0.27450980 0.65882353
v -0.20876873 0.05214662 -19.84027672 0.25098039 0.27450980 0.65882353
v -0.23731342 -0.00359281 -19.81714058 0.25098039 0.27450980 0.65882353
v -0.23558146 -0.00124199 -19.82803535 0.25098039 0.27450980 0.65882353
v -0.24125674 -0.01354554 -19.82680321 0.25098039 0.27450980 0.65882353
v -0.24194045 -0.01269251 -19.81501579 0.25098039 0.27450980 0.65882353
v -0.21964271 0.04379612 -19.81749535 0.25098039 0.27450980 0.65882353
v -0.21981661 0.05029019 -19.82180214 0.25098039 0.27450980 0.65882353
v -0.19211200 -0.08286260 -19.77194405 0.25098039 0.27450980 0.65882353
v -0.19396383 -0.07830711 -19.77004051 0.25098039 0.27450980 0.65882353
v -0.15076712 0.02071034 -19.79708481 0.25098039 0.27450980 0.65882353
v -0.14312872 0.00248773 -19.79948997 0.25098039 0.27450980 0.65882353
v -0.15772688 0.03419854 -19.79718590 0.25098039 0.27450980 0.65882353
v -0.16348365 0.04352180 -19.79754066 0.25098039 0.27450980 0.65882353
v -0.16573340 0.05186345 -19.79916763 0.25098039 0.27450980 0.65882353
v -0.18927844 -0.03509400 -19.79141998 0.25098039 0.27450980 0.65882353
v -0.18676975 -0.01500601 -19.80238152 0.25098039 0.27450980 0.65882353
v -0.19407265 -0.00348528 -19.81459999 0.25098039 0.27450980 0.65882353
v -0.21388400 -0.00372369 -19.83880615 0.25098039 0.27450980 0.65882353
v -0.20983911 0.00529782 -19.84248734 0.25098039 0.27450980 0.65882353
v -0.20326361 0.00052974 -19.83524704 0.25098039 0.27450980 0.65882353
v -0.20853727 -0.00613175 -19.83304596 0.25098039 0.27450980 0.65882353
v -0.23098591 -0.00487049 -19.83621597 0.25098039 0.27450980 0.65882353
v -0.22429559 -0.00963086 -19.83723640 0.25098039 0.27450980 0.65882353
v -0.22807392 -0.01706475 -19.83447266 0.25098039 0.27450980 0.65882353
v -0.23544759 -0.01444668 -19.83362198 0.25098039 0.27450980 0.65882353
v -0.14665601 -0.01878992 -19.79194832 0.25098039 0.27450980 0.65882353
v -0.15377772 -0.00578919 -19.78460884 0.25098039 0.27450980 0.65882353
v -0.20777093 0.03549726 -19.84291458 0.25098039 0.27450980 0.65882353
v -0.20353442 0.04204996 -19.84259415 0.25098039 0.27450980 0.65882353
v -0.20137024 0.05044641 -19.84238625 0.25098039 0.27450980 0.65882353
v -0.18571140 0.01382487 -19.82672882 0.25098039 0.27450980 0.65882353
v -0.18024248 0.02619439 -19.83125687 0.25098039 0.27450980 0.65882353
v -0.17726362 0.02531303 -19.82858849 0.25098039 0.27450980 0.65882353
v -0.18464170 0.01357257 -19.82365036 0.25098039 0.27450980 0.65882353
v -0.17459625 0.00376221 -19.81835938 0.25098039 0.27450980 0.65882353
v -0.16848774 0.01416770 -19.82414246 0.25098039 0.27450980 0.65882353
v -0.16861874 -0.00564460 -19.81855011 0.25098039 0.27450980 0.65882353
v -0.17382741 0.03948464 -19.82694817 0.25098039 0.27450980 0.65882353
v -0.17746571 0.04787271 -19.83326912 0.25098039 0.27450980 0.65882353
v -0.17113954 0.04866567 -19.82680321 0.25098039 0.27450980 0.65882353
v -0.18581972 0.04853553 -19.83866310 0.25098039 0.27450980 0.65882353
v -0.19420555 0.04919931 -19.84205246 0.25098039 0.27450980 0.65882353
v -0.22079915 0.05842250 -19.82381439 0.25098039 0.27450980 0.65882353
v -0.16639891 0.04904927 -19.81970596 0.25098039 0.27450980 0.65882353
v -0.15380754 -0.01510088 -19.81896591 0.25098039 0.27450980 0.65882353
v -0.15072984 -0.02239053 -19.81709290 0.25098039 0.27450980 0.65882353
v -0.15697366 -0.02558374 -19.81283379 0.25098039 0.27450980 0.65882353
v -0.16058755 -0.01934344 -19.81482697 0.25098039 0.27450980 0.65882353
v -0.18112057 -0.03601552 -19.76752663 0.25098039 0.27450980 0.65882353
v -0.17774032 -0.03707196 -19.77442741 0.25098039 0.27450980 0.65882353
v -0.17487347 -0.02981907 -19.77855492 0.25098039 0.27450980 0.65882353
v -0.19262448 0.01477221 -19.83830261 0.25098039 0.27450980 0.65882353
v -0.20285413 0.01972589 -19.84474564 0.25098039 0.27450980 0.65882353
v -0.18879615 -0.04228303 -19.78635597 0.25098039 0.27450980 0.65882353
v -0.18909642 -0.07151149 -19.76714516 0.25098039 0.27450980 0.65882353
v -0.18385464 -0.07034319 -19.76959229 0.25098039 0.27450980 0.65882353
v -0.18239254 -0.05069642 -19.76782036 0.25098039 0.27450980 0.65882353
v -0.18851954 -0.05216458 -19.76425743 0.25098039 0.27450980 0.65882353
v -0.19687417 -0.04854654 -19.78289223 0.25098039 0.27450980 0.65882353
v -0.19064063 -0.04607909 -19.78520203 0.25098039 0.27450980 0.65882353
v -0.19203766 -0.04808959 -19.78477478 0.25098039 0.27450980 0.65882353
v -0.19800591 -0.05136827 -19.78424835 0.25098039 0.27450980 0.65882353
v -0.21912608 -0.04158745 -19.80821800 0.25098039 0.27450980 0.65882353
v -0.21760996 -0.03491426 -19.81242180 0.25098039 0.27450980 0.65882353
v -0.20857251 -0.03264104 -19.77142334 0.25098039 0.27450980 0.65882353
v -0.19811141 -0.03036781 -19.76202774 0.25098039 0.27450980 0.65882353
v -0.19455601 -0.01923826 -19.76651764 0.25098039 0.27450980 0.65882353
v -0.20493245 -0.02187502 -19.80974388 0.25098039 0.27450980 0.65882353
v -0.20853110 -0.03130282 -19.80685997 0.25098039 0.27450980 0.65882353
v -0.21139772 -0.03036650 -19.80979919 0.25098039 0.27450980 0.65882353
v -0.19317901 -0.03806171 -19.79168510 0.25098039 0.27450980 0.65882353
v -0.19449157 -0.04403730 -19.78758240 0.25098039 0.27450980 0.65882353
v -0.19750322 -0.04175182 -19.79080582 0.25098039 0.27450980 0.65882353
v -0.19679965 -0.03589538 -19.79507065 0.25098039 0.27450980 0.65882353
v -0.23088688 0.01112629 -19.82981110 0.25098039 0.27450980 0.65882353
v -0.22574824 0.00664578 -19.83957672 0.25098039 0.27450980 0.65882353
v -0.18070108 -0.07645123 -19.77728653 0.25098039 0.27450980 0.65882353
v -0.18145770 -0.07322535 -19.77521896 0.25098039 0.27450980 0.65882353
v -0.20137250 -0.01168777 -19.81351662 0.25098039 0.27450980 0.65882353
v -0.19069214 -0.00657750 -19.77274323 0.25098039 0.27450980 0.65882353
v -0.19743441 -0.00248343 -19.81884003 0.25098039 0.27450980 0.65882353
v -0.23584166 -0.02750040 -19.80555725 0.25098039 0.27450980 0.65882353
v -0.23337139 -0.03140841 -19.81214523 0.25098039 0.27450980 0.65882353
v -0.23247249 -0.03745997 -19.81091881 0.25098039 0.27450980 0.65882353
v -0.23609927 -0.03645030 -19.80588722 0.25098039 0.27450980 0.65882353
v -0.19854973 -0.06726931 -19.78486061 0.25098039 0.27450980 0.65882353
v -0.19312182 -0.06672274 -19.78716087 0.25098039 0.27450980 0.65882353
v -0.19248554 -0.07141946 -19.78669548 0.25098039 0.27450980 0.65882353
v -0.19787878 -0.07306293 -19.78472900 0.25098039 0.27450980 0.65882353
v -0.18507093 -0.04441362 -19.78368568 0.25098039 0.27450980 0.65882353
v -0.18017200 -0.04289689 -19.77947617 0.25098039 0.27450980 0.65882353
v -0.18155180 -0.04832829 -19.78020287 0.25098039 0.27450980 0.65882353
v -0.18687767 -0.04851721 -19.78348351 0.25098039 0.27450980 0.65882353
v -0.17947075 -0.04329507 -19.77316284 0.25098039 0.27450980 0.65882353
v -0.17987239 -0.04900218 -19.77380753 0.25098039 0.27450980 0.65882353
v -0.20178097 -0.06892404 -19.77912903 0.25098039 0.27450980 0.65882353
v -0.20049146 -0.07106099 -19.77185059 0.25098039 0.27450980 0.65882353
v -0.20171529 -0.05312781 -19.77000618 0.25098039 0.27450980 0.65882353
v -0.20197390 -0.05433676 -19.77814293 0.25098039 0.27450980 0.65882353
v -0.21936378 0.02118440 -19.80288124 0.25098039 0.27450980 0.65882353
v -0.22481129 0.02237434 -19.81273079 0.25098039 0.27450980 0.65882353
v -0.22900295 0.00788608 -19.81069565 0.25098039 0.27450980 0.65882353
v -0.23429653 -0.00596651 -19.80854988 0.25098039 0.27450980 0.65882353
v -0.23762108 -0.01908227 -19.80663490 0.25098039 0.27450980 0.65882353
v -0.23343764 -0.01977796 -19.79519081 0.25098039 0.27450980 0.65882353
v -0.23162928 0.00980625 -19.81845284 0.25098039 0.27450980 0.65882353
v -0.20415694 -0.04455122 -19.77849960 0.25098039 0.27450980 0.65882353
v -0.20305857 -0.04148619 -19.76980591 0.25098039 0.27450980 0.65882353
v -0.20751934 -0.04012902 -19.77412415 0.25098039 0.27450980 0.65882353
v -0.20134521 -0.00255891 -19.82533264 0.25098039 0.27450980 0.65882353
v -0.18109696 -0.06858002 -19.77436829 0.25098039 0.27450980 0.65882353
v -0.18556137 0.04786152 -19.79021263 0.25098039 0.27450980 0.65882353
v -0.19862467 0.04933881 -19.79448318 0.25098039 0.27450980 0.65882353
v -0.19778875 0.04097208 -19.79188347 0.25098039 0.27450980 0.65882353
v -0.18273202 0.03885762 -19.78749084 0.25098039 0.27450980 0.65882353
v -0.18624115 -0.06638666 -19.78550720 0.25098039 0.27450980 0.65882353
v -0.18141185 -0.06695187 -19.78087616 0.25098039 0.27450980 0.65882353
v -0.22195117 -0.03505190 -19.81755638 0.25098039 0.27450980 0.65882353
v -0.22280802 -0.04078683 -19.81296921 0.25098039 0.27450980 0.65882353
v -0.22647971 -0.04097620 -19.81359482 0.25098039 0.27450980 0.65882353
v -0.22587305 -0.03689460 -19.82008171 0.25098039 0.27450980 0.65882353
v -0.22631532 0.02393644 -19.81852722 0.25098039 0.27450980 0.65882353
v -0.24185130 -0.02309505 -19.82772636 0.25098039 0.27450980 0.65882353
v -0.24321987 -0.02126537 -19.81672859 0.25098039 0.27450980 0.65882353
v -0.22084080 0.03489814 -19.81422234 0.25098039 0.27450980 0.65882353
v -0.21663988 0.03427160 -19.80518341 0.25098039 0.27450980 0.65882353
v -0.21520799 0.04374196 -19.80720520 0.25098039 0.27450980 0.65882353
v -0.22597173 -0.02931909 -19.78475952 0.25098039 0.27450980 0.65882353
v -0.21513847 0.01806496 -19.79577446 0.25098039 0.27450980 0.65882353
v -0.21210624 0.03194982 -19.79929733 0.25098039 0.27450980 0.65882353
v -0.21015593 0.04311734 -19.80136108 0.25098039 0.27450980 0.65882353
v -0.20973918 0.05131780 -19.80284119 0.25098039 0.27450980 0.65882353
v -0.21510163 0.05102999 -19.80933380 0.25098039 0.27450980 0.65882353
v -0.19548899 -0.07219549 -19.76851082 0.25098039 0.27450980 0.65882353
v -0.19966280 -0.07805522 -19.77372551 0.25098039 0.27450980 0.65882353
v -0.21615827 0.05978671 -19.81105995 0.25098039 0.27450980 0.65882353
v -0.20963092 0.05954635 -19.80420876 0.25098039 0.27450980 0.65882353
v -0.20565438 0.02976576 -19.79273415 0.25098039 0.27450980 0.65882353
v -0.19655851 0.02663559 -19.78575325 0.25098039 0.27450980 0.65882353
v -0.20860034 0.01634331 -19.78969765 0.25098039 0.27450980 0.65882353
v -0.20012999 0.01229031 -19.78241730 0.25098039 0.27450980 0.65882353
v -0.22059792 -0.02664237 -19.77523422 0.25098039 0.27450980 0.65882353
v -0.19566904 -0.09086549 -19.78517342 0.25098039 0.27450980 0.65882353
v -0.19943719 -0.08110963 -19.78124237 0.25098039 0.27450980 0.65882353
v -0.19709215 -0.07796306 -19.78568459 0.25098039 0.27450980 0.65882353
v -0.19541617 -0.08834060 -19.78886414 0.25098039 0.27450980 0.65882353
v -0.20083851 -0.07540648 -19.77996063 0.25098039 0.27450980 0.65882353
v -0.19773555 -0.08260371 -19.77580643 0.25098039 0.27450980 0.65882353
v -0.18591064 0.00752122 -19.77763939 0.25098039 0.27450980 0.65882353
v -0.19961549 -0.04669582 -19.78703117 0.25098039 0.27450980 0.65882353
v -0.17825344 0.02225550 -19.78234291 0.25098039 0.27450980 0.65882353
v -0.17062715 -0.00298173 -19.77513313 0.25098039 0.27450980 0.65882353
v -0.16416427 0.00748320 -19.78049088 0.25098039 0.27450980 0.65882353
v -0.16864964 0.03682047 -19.78793716 0.25098039 0.27450980 0.65882353
v -0.15933414 0.02228364 -19.78627014 0.25098039 0.27450980 0.65882353
v -0.17453429 0.05376174 -19.79314232 0.25098039 0.27450980 0.65882353
v -0.17323846 0.04528548 -19.79026604 0.25098039 0.27450980 0.65882353
v -0.15072681 0.00723914 -19.78854561 0.25098039 0.27450980 0.65882353
v -0.18163238 -0.08254980 -19.78796577 0.25098039 0.27450980 0.65882353
v -0.18664064 -0.08217987 -19.79111481 0.25098039 0.27450980 0.65882353
v -0.18604922 0.05606212 -19.79218864 0.25098039 0.27450980 0.65882353
v -0.16381292 -0.01366071 -19.81657410 0.25098039 0.27450980 0.65882353
v -0.19529863 0.00577666 -19.82898903 0.25098039 0.27450980 0.65882353
v -0.19270626 0.00542658 -19.82382202 0.25098039 0.27450980 0.65882353
v -0.20728113 0.01099778 -19.84381294 0.25098039 0.27450980 0.65882353
v -0.19855264 0.00686390 -19.83635521 0.25098039 0.27450980 0.65882353
v -0.17925364 -0.08456591 -19.78342247 0.25098039 0.27450980 0.65882353
v -0.21845724 -0.04800823 -19.79546165 0.25098039 0.27450980 0.65882353
v -0.21929096 -0.04608191 -19.79495621 0.25098039 0.27450980 0.65882353
v -0.14575827 -0.01104312 -19.81737328 0.25098039 0.27450980 0.65882353
v -0.14395143 -0.01814850 -19.81645393 0.25098039 0.27450980 0.65882353
v -0.13780016 -0.01731136 -19.80423355 0.25098039 0.27450980 0.65882353
v -0.13884862 -0.01711536 -19.81157684 0.25098039 0.27450980 0.65882353
v -0.14031780 -0.00844654 -19.81081200 0.25098039 0.27450980 0.65882353
v -0.13960268 -0.00794091 -19.80263519 0.25098039 0.27450980 0.65882353
v -0.18678221 0.01357754 -19.82931900 0.25098039 0.27450980 0.65882353
v -0.18925238 0.01338887 -19.83266258 0.25098039 0.27450980 0.65882353
v -0.22519836 0.02167549 -19.83223915 0.25098039 0.27450980 0.65882353
v -0.21996649 0.01641164 -19.84140205 0.25098039 0.27450980 0.65882353
v -0.18272737 -0.04308694 -19.76733589 0.25098039 0.27450980 0.65882353
v -0.18846212 -0.03483505 -19.76277161 0.25098039 0.27450980 0.65882353
v -0.18906756 -0.04313152 -19.76376534 0.25098039 0.27450980 0.65882353
v -0.19580472 -0.05118546 -19.76470757 0.25098039 0.27450980 0.65882353
v -0.20195419 -0.04809052 -19.78255653 0.25098039 0.27450980 0.65882353
v -0.20140469 -0.04749203 -19.77808189 0.25098039 0.27450980 0.65882353
v -0.17344218 0.01979839 -19.82625580 0.25098039 0.27450980 0.65882353
v -0.18093620 0.01022850 -19.81998253 0.25098039 0.27450980 0.65882353
v -0.16278958 -0.02262656 -19.80645180 0.25098039 0.27450980 0.65882353
v -0.15933654 -0.02696419 -19.80500793 0.25098039 0.27450980 0.65882353
v -0.20181492 -0.03223698 -19.80046272 0.25098039 0.27450980 0.65882353
v -0.22411919 -0.04126640 -19.78370285 0.25098039 0.27450980 0.65882353
v -0.21923468 -0.03879725 -19.77598381 0.25098039 0.27450980 0.65882353
v -0.20427275 -0.04000100 -19.79638672 0.25098039 0.27450980 0.65882353
v -0.18289030 -0.09042498 -19.77803040 0.25098039 0.27450980 0.65882353
v -0.17975666 -0.08720407 -19.78049660 0.25098039 0.27450980 0.65882353
v -0.19633785 -0.04173562 -19.76369476 0.25098039 0.27450980 0.65882353
v -0.21560353 -0.02850223 -19.81710625 0.25098039 0.27450980 0.65882353
v -0.22782654 -0.03647345 -19.78897095 0.25098039 0.27450980 0.65882353
v -0.22381827 -0.04592806 -19.78992081 0.25098039 0.27450980 0.65882353
v -0.23612687 -0.02073107 -19.83326721 0.25098039 0.27450980 0.65882353
v -0.19818042 0.05788704 -19.79677200 0.25098039 0.27450980 0.65882353
v -0.19222708 -0.07580656 -19.78821564 0.25098039 0.27450980 0.65882353
v -0.19169912 -0.08339112 -19.79186821 0.25098039 0.27450980 0.65882353
v -0.19402993 -0.09189199 -19.78117752 0.25098039 0.27450980 0.65882353
v -0.18912306 -0.09162897 -19.77741623 0.25098039 0.27450980 0.65882353
v -0.21318591 0.02493796 -19.84238434 0.25098039 0.27450980 0.65882353
v -0.19114882 0.00471189 -19.82036400 0.25098039 0.27450980 0.65882353
v -0.14482433 -0.00533797 -19.79237175 0.25098039 0.27450980 0.65882353
v -0.14100327 -0.01762911 -19.79696846 0.25098039 0.27450980 0.65882353
v -0.20615754 -0.04435646 -19.79396820 0.25098039 0.27450980 0.65882353
v -0.23827302 -0.02583072 -19.81191826 0.25098039 0.27450980 0.65882353
v -0.23514548 -0.02940175 -19.79620171 0.25098039 0.27450980 0.65882353
v -0.23668301 -0.03889239 -19.79699707 0.25098039 0.27450980 0.65882353
v -0.23228580 -0.04306510 -19.79195404 0.25098039 0.27450980 0.65882353
v -0.22571783 -0.04711206 -19.79150391 0.25098039 0.27450980 0.65882353
v -0.19233264 -0.09579924 -19.78516197 0.25098039 0.27450980 0.65882353
v -0.18734789 -0.09560555 -19.78137970 0.25098039 0.27450980 0.65882353
v -0.18118042 -0.09401877 -19.78175163 0.25098039 0.27450980 0.65882353
v -0.17842937 -0.09056526 -19.78347397 0.25098039 0.27450980 0.65882353
v -0.17874300 -0.08691208 -19.78596687 0.25098039 0.27450980 0.65882353
v -0.19389632 -0.09449722 -19.78931999 0.25098039 0.27450980 0.65882353
v -0.19343725 -0.09174690 -19.79233742 0.25098039 0.27450980 0.65882353
v -0.19096258 -0.08601780 -19.79353523 0.25098039 0.27450980 0.65882353
v -0.19199148 -0.09604874 -19.79355240 0.25098039 0.27450980 0.65882353
v -0.18887387 -0.10005689 -19.79176903 0.25098039 0.27450980 0.65882353
v -0.17492069 -0.09881346 -19.79366875 0.25098039 0.27450980 0.65882353
v -0.17820416 -0.09846677 -19.78868484 0.25098039 0.27450980 0.65882353
v -0.17881051 -0.10015933 -19.79075050 0.25098039 0.27450980 0.65882353
v -0.17657414 -0.10121213 -19.79512405 0.25098039 0.27450980 0.65882353
v -0.17540376 -0.10329841 -19.79971313 0.25098039 0.27450980 0.65882353
v -0.17318694 -0.10075884 -19.79868126 0.25098039 0.27450980 0.65882353
v -0.18343624 -0.10040249 -19.78975296 0.25098039 0.27450980 0.65882353
v -0.18106467 -0.10227118 -19.79582024 0.25098039 0.27450980 0.65882353
v -0.18489122 -0.10186112 -19.79766846 0.25098039 0.27450980 0.65882353
v -0.18265575 -0.10413735 -19.80224037 0.25098039 0.27450980 0.65882353
v -0.17919384 -0.10471393 -19.80072212 0.25098039 0.27450980 0.65882353
v -0.18629050 -0.10094464 -19.79330635 0.25098039 0.27450980 0.65882353
v -0.18447343 -0.10000502 -19.78742981 0.25098039 0.27450980 0.65882353
v -0.17380965 -0.10260929 -19.80283546 0.25098039 0.27450980 0.65882353
v -0.17526726 -0.10458694 -19.80233383 0.25098039 0.27450980 0.65882353
v -0.17824140 -0.10541773 -19.80363655 0.25098039 0.27450980 0.65882353
v -0.17715469 -0.10427646 -19.80619812 0.25098039 0.27450980 0.65882353
v -0.17671257 -0.09282587 -19.78741264 0.25098039 0.27450980 0.65882353
v -0.17392120 -0.09646042 -19.79433632 0.25098039 0.27450980 0.65882353
v -0.17339045 -0.09794496 -19.80013657 0.25098039 0.27450980 0.65882353
v -0.17408898 -0.10007384 -19.80406952 0.25098039 0.27450980 0.65882353
v -0.17486578 -0.09378494 -19.79737663 0.25098039 0.27450980 0.65882353
v -0.17479622 -0.09573920 -19.80158997 0.25098039 0.27450980 0.65882353
v -0.17581098 -0.09740181 -19.80505562 0.25098039 0.27450980 0.65882353
v -0.17738846 -0.09173945 -19.80033493 0.25098039 0.27450980 0.65882353
v -0.17706975 -0.09426458 -19.80339622 0.25098039 0.27450980 0.65882353
v -0.18028340 -0.08633226 -19.79109764 0.25098039 0.27450980 0.65882353
v -0.17778751 -0.08814473 -19.78813553 0.25098039 0.27450980 0.65882353
v -0.17697042 -0.09562241 -19.80550194 0.25098039 0.27450980 0.65882353
v -0.17759065 -0.10245551 -19.80731773 0.25098039 0.27450980 0.65882353
v -0.18805122 -0.09991460 -19.79804611 0.25098039 0.27450980 0.65882353
v -0.18447708 -0.10191573 -19.80380440 0.25098039 0.27450980 0.65882353
v -0.18892875 -0.09801401 -19.79931831 0.25098039 0.27450980 0.65882353
v -0.18570486 -0.10026968 -19.80500793 0.25098039 0.27450980 0.65882353
v -0.18197939 -0.10400324 -19.80680084 0.25098039 0.27450980 0.65882353
v -0.18106905 -0.10488765 -19.80459785 0.25098039 0.27450980 0.65882353
v -0.18184218 -0.08419572 -19.78921700 0.25098039 0.27450980 0.65882353
v -0.18708268 -0.08396615 -19.79234505 0.25098039 0.27450980 0.65882353
v -0.18591842 -0.08563341 -19.79405212 0.25098039 0.27450980 0.65882353
v -0.18177944 -0.09099217 -19.80239105 0.25098039 0.27450980 0.65882353
v -0.18961883 -0.08758149 -19.79566765 0.25098039 0.27450980 0.65882353
v -0.19150497 -0.09309140 -19.79614067 0.25098039 0.27450980 0.65882353
v -0.18837023 -0.09592207 -19.80144501 0.25098039 0.27450980 0.65882353
v -0.18649581 -0.09320594 -19.80272675 0.25098039 0.27450980 0.65882353
v -0.18540567 -0.09776895 -19.80553818 0.25098039 0.27450980 0.65882353
v -0.18386731 -0.09568183 -19.80556488 0.25098039 0.27450980 0.65882353
v -0.18034041 -0.09398426 -19.80515480 0.25098039 0.27450980 0.65882353
v -0.18219638 -0.09899844 -19.80767059 0.25098039 0.27450980 0.65882353
v -0.18236807 -0.10195456 -19.80752182 0.25098039 0.27450980 0.65882353
v -0.17841396 -0.09917670 -19.80741119 0.25098039 0.27450980 0.65882353
v -0.18208899 -0.09713008 -19.80719757 0.25098039 0.27450980 0.65882353
v -0.17914093 -0.09681007 -19.80649567 0.25098039 0.27450980 0.65882353
v -0.20411384 -0.07663320 -19.79126358 0.25098039 0.27450980 0.65882353
v -0.20814775 -0.07589687 -19.79662132 0.25098039 0.27450980 0.65882353
v -0.20981270 -0.07341325 -19.79396820 0.25098039 0.27450980 0.65882353
v -0.20608145 -0.07398418 -19.78975487 0.25098039 0.27450980 0.65882353
v -0.21045971 -0.08512345 -19.78149414 0.25098039 0.27450980 0.65882353
v -0.20544198 -0.08194956 -19.78395844 0.25098039 0.27450980 0.65882353
v -0.20761593 -0.07858922 -19.78062439 0.25098039 0.27450980 0.65882353
v -0.21387783 -0.08088642 -19.77826691 0.25098039 0.27450980 0.65882353
v -0.21770689 -0.08584188 -19.78351212 0.25098039 0.27450980 0.65882353
v -0.22093147 -0.08116861 -19.78036308 0.25098039 0.27450980 0.65882353
v -0.21444556 -0.07470349 -19.77598572 0.25098039 0.27450980 0.65882353
v -0.20809549 -0.07296363 -19.77921677 0.25098039 0.27450980 0.65882353
v -0.20667480 -0.05179614 -19.77835083 0.25098039 0.27450980 0.65882353
v -0.21278925 -0.05202772 -19.77454376 0.25098039 0.27450980 0.65882353
v -0.21343136 -0.05079612 -19.79601479 0.25098039 0.27450980 0.65882353
v -0.21749273 -0.05187929 -19.79485893 0.25098039 0.27450980 0.65882353
v -0.20368680 -0.07865733 -19.78768539 0.25098039 0.27450980 0.65882353
v -0.20558879 -0.07583462 -19.78517914 0.25098039 0.27450980 0.65882353
v -0.21909420 -0.07044026 -19.79660797 0.25098039 0.27450980 0.65882353
v -0.21347119 -0.06980627 -19.79709435 0.25098039 0.27450980 0.65882353
v -0.21362032 -0.07334220 -19.79715157 0.25098039 0.27450980 0.65882353
v -0.21905074 -0.07518397 -19.79692459 0.25098039 0.27450980 0.65882353
v -0.20402628 -0.05053652 -19.78719521 0.25098039 0.27450980 0.65882353
v -0.20859325 -0.05009111 -19.79209137 0.25098039 0.27450980 0.65882353
v -0.20416561 -0.05134211 -19.78299141 0.25098039 0.27450980 0.65882353
v -0.22444534 -0.07214808 -19.79255295 0.25098039 0.27450980 0.65882353
v -0.22644821 -0.07379369 -19.78597641 0.25098039 0.27450980 0.65882353
v -0.22570840 -0.05279756 -19.78288841 0.25098039 0.27450980 0.65882353
v -0.22460093 -0.05337825 -19.78952217 0.25098039 0.27450980 0.65882353
v -0.20521083 -0.07157820 -19.78395271 0.25098039 0.27450980 0.65882353
v -0.20828213 -0.07034343 -19.79414940 0.25098039 0.27450980 0.65882353
v -0.20491835 -0.07051407 -19.78963661 0.25098039 0.27450980 0.65882353
v -0.22166038 -0.07400346 -19.77881813 0.25098039 0.27450980 0.65882353
v -0.22471988 -0.08066687 -19.78808212 0.25098039 0.27450980 0.65882353
v -0.21422930 -0.09126706 -19.80358696 0.25098039 0.27450980 0.65882353
v -0.22033513 -0.08291720 -19.79721832 0.25098039 0.27450980 0.65882353
v -0.21699893 -0.07945350 -19.79974174 0.25098039 0.27450980 0.65882353
v -0.21189384 -0.08762334 -19.80680084 0.25098039 0.27450980 0.65882353
v -0.22306982 -0.07815114 -19.79407501 0.25098039 0.27450980 0.65882353
v -0.22110693 -0.08529581 -19.79144287 0.25098039 0.27450980 0.65882353
v -0.19857740 -0.08436471 -19.80088997 0.25098039 0.27450980 0.65882353
v -0.20308037 -0.08342251 -19.80578041 0.25098039 0.27450980 0.65882353
v -0.19725062 -0.08705263 -19.79701996 0.25098039 0.27450980 0.65882353
v -0.22040322 -0.05183890 -19.77630424 0.25098039 0.27450980 0.65882353
v -0.20358248 -0.09329309 -19.79088020 0.25098039 0.27450980 0.65882353
v -0.19854335 -0.08968328 -19.79364204 0.25098039 0.27450980 0.65882353
v -0.21261953 -0.07627109 -19.79972267 0.25098039 0.27450980 0.65882353
v -0.20773092 -0.08458890 -19.80793953 0.25098039 0.27450980 0.65882353
v -0.21422450 -0.09368283 -19.79943466 0.25098039 0.27450980 0.65882353
v -0.21062396 -0.09409092 -19.79226494 0.25098039 0.27450980 0.65882353
v -0.21086890 -0.09658629 -19.80341530 0.25098039 0.27450980 0.65882353
v -0.20655496 -0.09778088 -19.79803848 0.25098039 0.27450980 0.65882353
v -0.19977367 -0.09623583 -19.79615593 0.25098039 0.27450980 0.65882353
v -0.19608939 -0.09146708 -19.79738998 0.25098039 0.27450980 0.65882353
v -0.19598031 -0.08805287 -19.79950714 0.25098039 0.27450980 0.65882353
v -0.21124388 -0.09367287 -19.80707169 0.25098039 0.27450980 0.65882353
v -0.20953813 -0.08951654 -19.80924988 0.25098039 0.27450980 0.65882353
v -0.20613781 -0.08548267 -19.80854797 0.25098039 0.27450980 0.65882353
v -0.20717771 -0.09296012 -19.81218147 0.25098039 0.27450980 0.65882353
v -0.20588578 -0.09726669 -19.81036568 0.25098039 0.27450980 0.65882353
v -0.18668491 -0.09394601 -19.81296730 0.25098039 0.27450980 0.65882353
v -0.19019753 -0.09520711 -19.80813599 0.25098039 0.27450980 0.65882353
v -0.19176705 -0.09671773 -19.80977249 0.25098039 0.27450980 0.65882353
v -0.18857808 -0.09572436 -19.81421280 0.25098039 0.27450980 0.65882353
v -0.19459084 -0.09779653 -19.80405426 0.25098039 0.27450980 0.65882353
v -0.19515492 -0.09825650 -19.80661774 0.25098039 0.27450980 0.65882353
v -0.19982153 -0.09897582 -19.80799294 0.25098039 0.27450980 0.65882353
v -0.19578132 -0.09733181 -19.81268120 0.25098039 0.27450980 0.65882353
v -0.20005050 -0.09599847 -19.81498718 0.25098039 0.27450980 0.65882353
v -0.19650871 -0.09555902 -19.81946373 0.25098039 0.27450980 0.65882353
v -0.19222265 -0.09697331 -19.81753159 0.25098039 0.27450980 0.65882353
v -0.20203708 -0.09779163 -19.81125259 0.25098039 0.27450980 0.65882353
v -0.18733123 -0.09528016 -19.81760025 0.25098039 0.27450980 0.65882353
v -0.18593782 -0.09329045 -19.81855583 0.25098039 0.27450980 0.65882353
v -0.20170790 -0.10012934 -19.80511665 0.25098039 0.27450980 0.65882353
v -0.19387691 -0.09284434 -19.80047035 0.25098039 0.27450980 0.65882353
v -0.18894491 -0.09219620 -19.80776596 0.25098039 0.27450980 0.65882353
v -0.18610846 -0.09067988 -19.81350708 0.25098039 0.27450980 0.65882353
v -0.18656446 -0.09051874 -19.81971931 0.25098039 0.27450980 0.65882353
v -0.18941697 -0.08806242 -19.80935669 0.25098039 0.27450980 0.65882353
v -0.18726669 -0.08782718 -19.81477928 0.25098039 0.27450980 0.65882353
v -0.18812159 -0.08824839 -19.81973839 0.25098039 0.27450980 0.65882353
v -0.19181487 -0.08438353 -19.81172752 0.25098039 0.27450980 0.65882353
v -0.18998419 -0.08517784 -19.81692696 0.25098039 0.27450980 0.65882353
v -0.19706187 -0.08478710 -19.80337334 0.25098039 0.27450980 0.65882353
v -0.19435990 -0.08804533 -19.80108833 0.25098039 0.27450980 0.65882353
v -0.18963321 -0.08644311 -19.81909943 0.25098039 0.27450980 0.65882353
v -0.18890554 -0.09448043 -19.82222557 0.25098039 0.27450980 0.65882353
v -0.18907203 -0.09123938 -19.82303047 0.25098039 0.27450980 0.65882353
v -0.18966705 -0.09556398 -19.82087135 0.25098039 0.27450980 0.65882353
v -0.20176966 -0.09487098 -19.81589508 0.25098039 0.27450980 0.65882353
v -0.19729650 -0.09377879 -19.82056046 0.25098039 0.27450980 0.65882353
v -0.20260875 -0.09226269 -19.81714821 0.25098039 0.27450980 0.65882353
v -0.19755933 -0.09170969 -19.82190132 0.25098039 0.27450980 0.65882353
v -0.19348693 -0.09374453 -19.82339478 0.25098039 0.27450980 0.65882353
v -0.19295713 -0.09498981 -19.82242775 0.25098039 0.27450980 0.65882353
v -0.19810560 -0.08543852 -19.80236053 0.25098039 0.27450980 0.65882353
v -0.20248462 -0.08431354 -19.80622292 0.25098039 0.27450980 0.65882353
v -0.20175964 -0.08331937 -19.80665398 0.25098039 0.27450980 0.65882353
v -0.19644234 -0.08358873 -19.81481552 0.25098039 0.27450980 0.65882353
v -0.20571357 -0.08477652 -19.80934525 0.25098039 0.27450980 0.65882353
v -0.20704788 -0.08912659 -19.81213188 0.25098039 0.27450980 0.65882353
v -0.20270206 -0.08929090 -19.81729126 0.25098039 0.27450980 0.65882353
v -0.20042354 -0.08574031 -19.81695938 0.25098039 0.27450980 0.65882353
v -0.19818707 -0.08963355 -19.82233238 0.25098039 0.27450980 0.65882353
v -0.19783415 -0.08686738 -19.82051849 0.25098039 0.27450980 0.65882353
v -0.19377157 -0.08457309 -19.81876755 0.25098039 0.27450980 0.65882353
v -0.19405726 -0.08986107 -19.82437325 0.25098039 0.27450980 0.65882353
v -0.19360051 -0.09217535 -19.82419777 0.25098039 0.27450980 0.65882353
v -0.18990207 -0.08923578 -19.82259941 0.25098039 0.27450980 0.65882353
v -0.19475369 -0.08752447 -19.82273483 0.25098039 0.27450980 0.65882353
v -0.19139221 -0.08674575 -19.82123756 0.25098039 0.27450980 0.65882353
v -0.21968144 -0.06948771 -19.80366898 0.25098039 0.27450980 0.65882353
v -0.22021872 -0.06669556 -19.80932426 0.25098039 0.27450980 0.65882353
v -0.22114462 -0.06510743 -19.80837822 0.25098039 0.27450980 0.65882353
v -0.22049576 -0.06733144 -19.80278015 0.25098039 0.27450980 0.65882353
v -0.23055971 -0.07556738 -19.80117607 0.25098039 0.27450980 0.65882353
v -0.22565940 -0.07528576 -19.80005646 0.25098039 0.27450980 0.65882353
v -0.22755139 -0.07166484 -19.79750824 0.25098039 0.27450980 0.65882353
v -0.23312193 -0.07090769 -19.79758072 0.25098039 0.27450980 0.65882353
v -0.23360658 -0.07527629 -19.80636597 0.25098039 0.27450980 0.65882353
v -0.23804374 -0.06947751 -19.80222321 0.25098039 0.27450980 0.65882353
v -0.23429981 -0.06535691 -19.79483604 0.25098039 0.27450980 0.65882353
v -0.22817850 -0.06722975 -19.79544640 0.25098039 0.27450980 0.65882353
v -0.22671168 -0.05137494 -19.79258537 0.25098039 0.27450980 0.65882353
v -0.23348004 -0.05014000 -19.79230881 0.25098039 0.27450980 0.65882353
v -0.22206834 -0.07262653 -19.80107689 0.25098039 0.27450980 0.65882353
v -0.22301878 -0.06977224 -19.79952049 0.25098039 0.27450980 0.65882353
v -0.22802778 -0.06119740 -19.81478500 0.25098039 0.27450980 0.65882353
v -0.22392672 -0.06182490 -19.81270790 0.25098039 0.27450980 0.65882353
v -0.22398934 -0.06417485 -19.81318665 0.25098039 0.27450980 0.65882353
v -0.22775836 -0.06408639 -19.81509972 0.25098039 0.27450980 0.65882353
v -0.21860164 -0.04833761 -19.80040550 0.25098039 0.27450980 0.65882353
v -0.22107880 -0.04568777 -19.80576515 0.25098039 0.27450980 0.65882353
v -0.22121410 -0.05085549 -19.79610443 0.25098039 0.27450980 0.65882353
v -0.23452714 -0.06167381 -19.81331253 0.25098039 0.27450980 0.65882353
v -0.23984478 -0.06222023 -19.80742836 0.25098039 0.27450980 0.65882353
v -0.23843613 -0.04661664 -19.80597687 0.25098039 0.27450980 0.65882353
v -0.23383649 -0.04575402 -19.81033897 0.25098039 0.27450980 0.65882353
v -0.22345972 -0.06655844 -19.79808044 0.25098039 0.27450980 0.65882353
v -0.22035499 -0.06270654 -19.80795479 0.25098039 0.27450980 0.65882353
v -0.21995384 -0.06478865 -19.80225372 0.25098039 0.27450980 0.65882353
v -0.23855810 -0.06318360 -19.79956245 0.25098039 0.27450980 0.65882353
v -0.23765737 -0.06796958 -19.80987740 0.25098039 0.27450980 0.65882353
v -0.22535083 -0.07997593 -19.82372284 0.25098039 0.27450980 0.65882353
v -0.23249847 -0.06869727 -19.81616783 0.25098039 0.27450980 0.65882353
v -0.22714105 -0.06570805 -19.81628799 0.25098039 0.27450980 0.65882353
v -0.22243959 -0.07667336 -19.82428551 0.25098039 0.27450980 0.65882353
v -0.23345500 -0.06568549 -19.81478310 0.25098039 0.27450980 0.65882353
v -0.23519957 -0.07204027 -19.81214523 0.25098039 0.27450980 0.65882353
v -0.21247596 -0.07818552 -19.81277466 0.25098039 0.27450980 0.65882353
v -0.21461228 -0.07516275 -19.81760788 0.25098039 0.27450980 0.65882353
v -0.21423730 -0.08119623 -19.80990982 0.25098039 0.27450980 0.65882353
v -0.23868221 -0.04803336 -19.79733467 0.25098039 0.27450980 0.65882353
v -0.22697450 -0.04489630 -19.81131744 0.25098039 0.27450980 0.65882353
v -0.21972680 -0.08645903 -19.81045341 0.25098039 0.27450980 0.65882353
v -0.21619201 -0.08404301 -19.80925369 0.25098039 0.27450980 0.65882353
v -0.22329044 -0.06536404 -19.81386757 0.25098039 0.27450980 0.65882353
v -0.21844335 -0.07453998 -19.82237244 0.25098039 0.27450980 0.65882353
v -0.22680470 -0.08310632 -19.82003403 0.25098039 0.27450980 0.65882353
v -0.22501595 -0.08555311 -19.81386375 0.25098039 0.27450980 0.65882353
v -0.22267464 -0.08501667 -19.82437706 0.25098039 0.27450980 0.65882353
v -0.22011000 -0.08815481 -19.81920624 0.25098039 0.27450980 0.65882353
v -0.21512729 -0.08885379 -19.81562996 0.25098039 0.27450980 0.65882353
v -0.21233729 -0.08579698 -19.81331825 0.25098039 0.27450980 0.65882353
v -0.21114743 -0.08267231 -19.81314468 0.25098039 0.27450980 0.65882353
v -0.22178628 -0.08049469 -19.82648659 0.25098039 0.27450980 0.65882353
v -0.21989197 -0.07716851 -19.82526016 0.25098039 0.27450980 0.65882353
v -0.21804532 -0.07552745 -19.82184219 0.25098039 0.27450980 0.65882353
v -0.21878801 -0.07820616 -19.82818794 0.25098039 0.27450980 0.65882353
v -0.21713455 -0.08371224 -19.82856178 0.25098039 0.27450980 0.65882353
v -0.19972196 -0.08201924 -19.82706451 0.25098039 0.27450980 0.65882353
v -0.20411383 -0.08425039 -19.82382202 0.25098039 0.27450980 0.65882353
v -0.20479363 -0.08430788 -19.82490349 0.25098039 0.27450980 0.65882353
v -0.20050339 -0.08252625 -19.82843781 0.25098039 0.27450980 0.65882353
v -0.20988555 -0.08778743 -19.82158852 0.25098039 0.27450980 0.65882353
v -0.20917711 -0.08700271 -19.82359695 0.25098039 0.27450980 0.65882353
v -0.21261460 -0.08657768 -19.82594299 0.25098039 0.27450980 0.65882353
v -0.20758682 -0.08358355 -19.82935524 0.25098039 0.27450980 0.65882353
v -0.21164289 -0.07934582 -19.83137894 0.25098039 0.27450980 0.65882353
v -0.20707375 -0.07786386 -19.83327293 0.25098039 0.27450980 0.65882353
v -0.20325872 -0.08181080 -19.83215714 0.25098039 0.27450980 0.65882353
v -0.21488576 -0.08333148 -19.82878113 0.25098039 0.27450980 0.65882353
v -0.19890080 -0.08114167 -19.83079910 0.25098039 0.27450980 0.65882353
v -0.19691952 -0.08132307 -19.83023071 0.25098039 0.27450980 0.65882353
v -0.21476376 -0.08805509 -19.82448196 0.25098039 0.27450980 0.65882353
v -0.20802158 -0.08614160 -19.81694794 0.25098039 0.27450980 0.65882353
v -0.20255065 -0.08303392 -19.82150078 0.25098039 0.27450980 0.65882353
v -0.19794200 -0.08068670 -19.82454681 0.25098039 0.27450980 0.65882353
v -0.19651553 -0.07833040 -19.82808495 0.25098039 0.27450980 0.65882353
v -0.20252019 -0.07942010 -19.82023621 0.25098039 0.27450980 0.65882353
v -0.19881348 -0.07780935 -19.82355499 0.25098039 0.27450980 0.65882353
v -0.19738843 -0.07583732 -19.82682800 0.25098039 0.27450980 0.65882353
v -0.20354998 -0.07613332 -19.82040405 0.25098039 0.27450980 0.65882353
v -0.20056112 -0.07497691 -19.82370186 0.25098039 0.27450980 0.65882353
v -0.21019411 -0.07907695 -19.81505775 0.25098039 0.27450980 0.65882353
v -0.20855559 -0.08258615 -19.81512260 0.25098039 0.27450980 0.65882353
v -0.19912384 -0.07437257 -19.82624626 0.25098039 0.27450980 0.65882353
v -0.19910899 -0.07915168 -19.83405685 0.25098039 0.27450980 0.65882353
v -0.19873552 -0.07526593 -19.83248901 0.25098039 0.27450980 0.65882353
v -0.20053867 -0.07977684 -19.83312416 0.25098039 0.27450980 0.65882353
v -0.21304452 -0.07801279 -19.83150864 0.25098039 0.27450980 0.65882353
v -0.20757903 -0.07586927 -19.83446503 0.25098039 0.27450980 0.65882353
v -0.21350677 -0.07510013 -19.83080482 0.25098039 0.27450980 0.65882353
v -0.20813130 -0.07325154 -19.83372498 0.25098039 0.27450980 0.65882353
v -0.20349567 -0.07641418 -19.83546257 0.25098039 0.27450980 0.65882353
v -0.20355341 -0.07732827 -19.83475876 0.25098039 0.27450980 0.65882353
v -0.21211798 -0.07916711 -19.81476593 0.25098039 0.27450980 0.65882353
v -0.21464606 -0.07608996 -19.81817818 0.25098039 0.27450980 0.65882353
v -0.21321771 -0.07560969 -19.81726837 0.25098039 0.27450980 0.65882353
v -0.20614612 -0.07221925 -19.82236290 0.25098039 0.27450980 0.65882353
v -0.21661049 -0.07431222 -19.82080269 0.25098039 0.27450980 0.65882353
v -0.21699154 -0.07499331 -19.82629776 0.25098039 0.27450980 0.65882353
v -0.21214806 -0.07258602 -19.82865906 0.25098039 0.27450980 0.65882353
v -0.20935541 -0.07125115 -19.82596207 0.25098039 0.27450980 0.65882353
v -0.20756212 -0.07123775 -19.83160782 0.25098039 0.27450980 0.65882353
v -0.20668748 -0.07104801 -19.82878113 0.25098039 0.27450980 0.65882353
v -0.20289260 -0.07160603 -19.82528877 0.25098039 0.27450980 0.65882353
v -0.20351051 -0.07229482 -19.83215714 0.25098039 0.27450980 0.65882353
v -0.20354091 -0.07389218 -19.83458138 0.25098039 0.27450980 0.65882353
v -0.19933689 -0.07331597 -19.83018494 0.25098039 0.27450980 0.65882353
v -0.20349097 -0.07134066 -19.82991600 0.25098039 0.27450980 0.65882353
v -0.20034926 -0.07220471 -19.82831192 0.25098039 0.27450980 0.65882353
v -0.22365673 -0.04470952 -19.80959129 0.25098039 0.27450980 0.65882353
v -0.22285342 -0.05408478 -19.82341766 0.25098039 0.27450980 0.65882353
v -0.22341672 -0.05308302 -19.82771492 0.25098039 0.27450980 0.65882353
v -0.22494347 -0.05113125 -19.82800484 0.25098039 0.27450980 0.65882353
v -0.22403803 -0.05077212 -19.82363129 0.25098039 0.27450980 0.65882353
v -0.23229310 -0.05844302 -19.81893539 0.25098039 0.27450980 0.65882353
v -0.22772673 -0.05756778 -19.81845665 0.25098039 0.27450980 0.65882353
v -0.22987300 -0.05326615 -19.81720161 0.25098039 0.27450980 0.65882353
v -0.23442328 -0.05394704 -19.81743240 0.25098039 0.27450980 0.65882353
v -0.23590760 -0.05861598 -19.82278252 0.25098039 0.27450980 0.65882353
v -0.23800731 -0.05438083 -19.82173347 0.25098039 0.27450980 0.65882353
v -0.23562214 -0.05021130 -19.81662369 0.25098039 0.27450980 0.65882353
v -0.23078814 -0.04946121 -19.81646919 0.25098039 0.27450980 0.65882353
v -0.23242736 -0.03504881 -19.81385231 0.25098039 0.27450980 0.65882353
v -0.23782672 -0.03340168 -19.81414986 0.25098039 0.27450980 0.65882353
v -0.23525515 -0.02749992 -19.83322525 0.25098039 0.27450980 0.65882353
v -0.22997147 -0.02688745 -19.83280754 0.25098039 0.27450980 0.65882353
v -0.23030317 -0.03527367 -19.83260727 0.25098039 0.27450980 0.65882353
v -0.23507610 -0.03466406 -19.83346558 0.25098039 0.27450980 0.65882353
v -0.22458577 -0.05584048 -19.82025528 0.25098039 0.27450980 0.65882353
v -0.22560838 -0.05179743 -19.81949425 0.25098039 0.27450980 0.65882353
v -0.23311451 -0.04896349 -19.83433151 0.25098039 0.27450980 0.65882353
v -0.22851467 -0.04843752 -19.83257675 0.25098039 0.27450980 0.65882353
v -0.22693726 -0.05095460 -19.83190727 0.25098039 0.27450980 0.65882353
v -0.23068386 -0.05211154 -19.83477783 0.25098039 0.27450980 0.65882353
v -0.22650971 -0.02947110 -19.82923317 0.25098039 0.27450980 0.65882353
v -0.22552593 -0.03210837 -19.82481766 0.25098039 0.27450980 0.65882353
v -0.22523180 -0.03557288 -19.82483482 0.25098039 0.27450980 0.65882353
v -0.22693565 -0.03661797 -19.82900429 0.25098039 0.27450980 0.65882353
v -0.22669697 -0.03680484 -19.81903648 0.25098039 0.27450980 0.65882353
v -0.23718642 -0.04981628 -19.83287621 0.25098039 0.27450980 0.65882353
v -0.24052505 -0.05069458 -19.82778549 0.25098039 0.27450980 0.65882353
v -0.24356945 -0.03291556 -19.82760811 0.25098039 0.27450980 0.65882353
v -0.24000630 -0.03307947 -19.83156586 0.25098039 0.27450980 0.65882353
v -0.22685210 -0.04963192 -19.81894493 0.25098039 0.27450980 0.65882353
v -0.22567004 -0.04835568 -19.82853508 0.25098039 0.27450980 0.65882353
v -0.22498786 -0.04920962 -19.82411385 0.25098039 0.27450980 0.65882353
v -0.23993793 -0.05050913 -19.82074738 0.25098039 0.27450980 0.65882353
v -0.23812421 -0.05458989 -19.82851791 0.25098039 0.27450980 0.65882353
v -0.22846578 -0.06304656 -19.83688927 0.25098039 0.27450980 0.65882353
v -0.23336798 -0.05631897 -19.83459473 0.25098039 0.27450980 0.65882353
v -0.22888798 -0.05417824 -19.83516121 0.25098039 0.27450980 0.65882353
v -0.22608460 -0.06081586 -19.83718109 0.25098039 0.27450980 0.65882353
v -0.23492756 -0.05346911 -19.83355141 0.25098039 0.27450980 0.65882353
v -0.23595379 -0.05865741 -19.82983398 0.25098039 0.27450980 0.65882353
v -0.21911858 -0.05993458 -19.82562256 0.25098039 0.27450980 0.65882353
v -0.22083807 -0.05856186 -19.83100700 0.25098039 0.27450980 0.65882353
v -0.22004533 -0.06184179 -19.82295799 0.25098039 0.27450980 0.65882353
v -0.24264500 -0.03244640 -19.81894112 0.25098039 0.27450980 0.65882353
v -0.22614643 -0.06641973 -19.82244492 0.25098039 0.27450980 0.65882353
v -0.22212878 -0.06453282 -19.82176018 0.25098039 0.27450980 0.65882353
v -0.22537276 -0.05323932 -19.83175850 0.25098039 0.27450980 0.65882353
v -0.22332324 -0.05899018 -19.83504295 0.25098039 0.27450980 0.65882353
v -0.23051420 -0.06561925 -19.83351326 0.25098039 0.27450980 0.65882353
v -0.23047186 -0.06669785 -19.82675362 0.25098039 0.27450980 0.65882353
v -0.22590022 -0.06826361 -19.83540726 0.25098039 0.27450980 0.65882353
v -0.22592060 -0.07000143 -19.82875824 0.25098039 0.27450980 0.65882353
v -0.22138900 -0.06827454 -19.82436371 0.25098039 0.27450980 0.65882353
v -0.21958227 -0.06487101 -19.82350922 0.25098039 0.27450980 0.65882353
v -0.21834558 -0.06213750 -19.82438278 0.25098039 0.27450980 0.65882353
v -0.22495042 -0.06430295 -19.83846092 0.25098039 0.27450980 0.65882353
v -0.22364096 -0.06143560 -19.83844566 0.25098039 0.27450980 0.65882353
v -0.22186911 -0.05923400 -19.83578682 0.25098039 0.27450980 0.65882353
v -0.22150949 -0.06496915 -19.83990097 0.25098039 0.27450980 0.65882353
v -0.21978275 -0.06870070 -19.83724594 0.25098039 0.27450980 0.65882353
v -0.20774144 -0.06435130 -19.83291054 0.25098039 0.27450980 0.65882353
v -0.21114671 -0.06515459 -19.83031082 0.25098039 0.27450980 0.65882353
v -0.21141636 -0.06605461 -19.83114815 0.25098039 0.27450980 0.65882353
v -0.20770580 -0.06541973 -19.83312035 0.25098039 0.27450980 0.65882353
v -0.21584731 -0.06759627 -19.82798958 0.25098039 0.27450980 0.65882353
v -0.21507716 -0.06793014 -19.82975197 0.25098039 0.27450980 0.65882353
v -0.21788619 -0.06936815 -19.83189774 0.25098039 0.27450980 0.65882353
v -0.21297137 -0.06832531 -19.83448601 0.25098039 0.27450980 0.65882353
v -0.21492165 -0.06736406 -19.83959007 0.25098039 0.27450980 0.65882353
v -0.21093714 -0.06667750 -19.84092903 0.25098039 0.27450980 0.65882353
v -0.20952775 -0.06777693 -19.83640099 0.25098039 0.27450980 0.65882353
v -0.21802059 -0.06907813 -19.83649826 0.25098039 0.27450980 0.65882353
v -0.20572348 -0.06577186 -19.83515549 0.25098039 0.27450980 0.65882353
v -0.20456108 -0.06503791 -19.83529854 0.25098039 0.27450980 0.65882353
v -0.21993713 -0.07022734 -19.83087540 0.25098039 0.27450980 0.65882353
v -0.21572398 -0.06393017 -19.82585907 0.25098039 0.27450980 0.65882353
v -0.21002753 -0.06279809 -19.82978249 0.25098039 0.27450980 0.65882353
v -0.20599993 -0.06252180 -19.83313751 0.25098039 0.27450980 0.65882353
v -0.20411287 -0.06304376 -19.83652496 0.25098039 0.27450980 0.65882353
v -0.21061176 -0.06035777 -19.82987976 0.25098039 0.27450980 0.65882353
v -0.20605046 -0.06026027 -19.83359146 0.25098039 0.27450980 0.65882353
v -0.20443755 -0.06087014 -19.83698463 0.25098039 0.27450980 0.65882353
v -0.21180938 -0.05776391 -19.83172989 0.25098039 0.27450980 0.65882353
v -0.20743960 -0.05859688 -19.83493042 0.25098039 0.27450980 0.65882353
v -0.21695712 -0.05805538 -19.82881165 0.25098039 0.27450980 0.65882353
v -0.21584898 -0.06060203 -19.82650566 0.25098039 0.27450980 0.65882353
v -0.20578662 -0.05978741 -19.83718300 0.25098039 0.27450980 0.65882353
v -0.20519546 -0.06635304 -19.83891869 0.25098039 0.27450980 0.65882353
v -0.20486438 -0.06355336 -19.83973122 0.25098039 0.27450980 0.65882353
v -0.20635605 -0.06724219 -19.83841324 0.25098039 0.27450980 0.65882353
v -0.21558633 -0.06666390 -19.84067154 0.25098039 0.27450980 0.65882353
v -0.21084590 -0.06579190 -19.84226418 0.25098039 0.27450980 0.65882353
v -0.21623319 -0.06451368 -19.84184074 0.25098039 0.27450980 0.65882353
v -0.21078905 -0.06371915 -19.84284782 0.25098039 0.27450980 0.65882353
v -0.20730643 -0.06585921 -19.84181023 0.25098039 0.27450980 0.65882353
v -0.20815250 -0.06687037 -19.84052467 0.25098039 0.27450980 0.65882353
v -0.21790749 -0.05922462 -19.82750511 0.25098039 0.27450980 0.65882353
v -0.21952450 -0.05860059 -19.83147621 0.25098039 0.27450980 0.65882353
v -0.21879748 -0.05764819 -19.83308220 0.25098039 0.27450980 0.65882353
v -0.21386649 -0.05691902 -19.83559227 0.25098039 0.27450980 0.65882353
v -0.22101769 -0.05874538 -19.83730507 0.25098039 0.27450980 0.65882353
v -0.22176866 -0.06175848 -19.83973885 0.25098039 0.27450980 0.65882353
v -0.21610057 -0.06164826 -19.84173965 0.25098039 0.27450980 0.65882353
v -0.21537390 -0.05863264 -19.83996773 0.25098039 0.27450980 0.65882353
v -0.21035196 -0.06160286 -19.84252548 0.25098039 0.27450980 0.65882353
v -0.21033077 -0.05904731 -19.84084129 0.25098039 0.27450980 0.65882353
v -0.20920035 -0.05775264 -19.83785820 0.25098039 0.27450980 0.65882353
v -0.20685227 -0.06180958 -19.84141731 0.25098039 0.27450980 0.65882353
v -0.20667818 -0.06357492 -19.84199524 0.25098039 0.27450980 0.65882353
v -0.20529822 -0.06156608 -19.83974457 0.25098039 0.27450980 0.65882353
v -0.20729448 -0.06015225 -19.84060478 0.25098039 0.27450980 0.65882353
v -0.20652533 -0.05979688 -19.83913612 0.25098039 0.27450980 0.65882353
v -0.23876321 -0.02868419 -19.83122063 0.25098039 0.27450980 0.65882353
v -0.14278339 -0.03326271 -19.79714584 0.25098039 0.27450980 0.65882353
v -0.14835942 -0.03503140 -19.79783058 0.25098039 0.27450980 0.65882353
v -0.15025783 -0.03651518 -19.81489372 0.25098039 0.27450980 0.65882353
v -0.15326199 -0.03829053 -19.80827332 0.25098039 0.27450980 0.65882353
v -0.14428681 -0.03433891 -19.81794739 0.25098039 0.27450980 0.65882353
v -0.13511170 -0.03021777 -19.81263733 0.25098039 0.27450980 0.65882353
v -0.13925579 -0.03120454 -19.81673241 0.25098039 0.27450980 0.65882353
v -0.15248632 -0.03760947 -19.80204964 0.25098039 0.27450980 0.65882353
v -0.13735923 -0.03103858 -19.79939079 0.25098039 0.27450980 0.65882353
v -0.13376151 -0.02943860 -19.80572510 0.25098039 0.27450980 0.65882353
v -0.13518304 -0.03937213 -19.79846001 0.25098039 0.27450980 0.65882353
v -0.13135004 -0.03807945 -19.80548286 0.25098039 0.27450980 0.65882353
v -0.13200678 -0.03901654 -19.81264305 0.25098039 0.27450980 0.65882353
v -0.13756487 -0.03903488 -19.81727982 0.25098039 0.27450980 0.65882353
v -0.14242147 -0.04016104 -19.81865501 0.25098039 0.27450980 0.65882353
v -0.14230305 -0.04017583 -19.79710960 0.25098039 0.27450980 0.65882353
v -0.14787731 -0.04136562 -19.79835510 0.25098039 0.27450980 0.65882353
v -0.15219551 -0.04216988 -19.80363655 0.25098039 0.27450980 0.65882353
v -0.14352621 -0.04829410 -19.79778099 0.25098039 0.27450980 0.65882353
v -0.13819860 -0.05630521 -19.80129433 0.25098039 0.27450980 0.65882353
v -0.13488045 -0.06660601 -19.81729698 0.25098039 0.27450980 0.65882353
v -0.13525681 -0.05985787 -19.81731033 0.25098039 0.27450980 0.65882353
v -0.13427168 -0.06072418 -19.81464767 0.25098039 0.27450980 0.65882353
v -0.13342346 -0.06673560 -19.81497955 0.25098039 0.27450980 0.65882353
v -0.13392888 -0.05510465 -19.81470108 0.25098039 0.27450980 0.65882353
v -0.13416006 -0.05688798 -19.81297874 0.25098039 0.27450980 0.65882353
v -0.13478468 -0.05619793 -19.80768585 0.25098039 0.27450980 0.65882353
v -0.13420810 -0.06167517 -19.80817604 0.25098039 0.27450980 0.65882353
v -0.13741112 -0.05792842 -19.80348396 0.25098039 0.27450980 0.65882353
v -0.13829564 -0.06185452 -19.80334854 0.25098039 0.27450980 0.65882353
v -0.13373794 -0.06711842 -19.80842972 0.25098039 0.27450980 0.65882353
v -0.13263634 -0.07023866 -19.81326485 0.25098039 0.27450980 0.65882353
v -0.13365953 -0.07179692 -19.80888557 0.25098039 0.27450980 0.65882353
v -0.13489626 -0.07156378 -19.81520844 0.25098039 0.27450980 0.65882353
v -0.13271752 -0.05506580 -19.80669403 0.25098039 0.27450980 0.65882353
v -0.13638850 -0.04926418 -19.81826401 0.25098039 0.27450980 0.65882353
v -0.13777649 -0.05801708 -19.81955528 0.25098039 0.27450980 0.65882353
v -0.13828045 -0.06597435 -19.81899643 0.25098039 0.27450980 0.65882353
v -0.13806267 -0.07158802 -19.81608200 0.25098039 0.27450980 0.65882353
v -0.14224756 -0.05724075 -19.82013321 0.25098039 0.27450980 0.65882353
v -0.14251520 -0.06456029 -19.81849861 0.25098039 0.27450980 0.65882353
v -0.14256263 -0.06946180 -19.81523705 0.25098039 0.27450980 0.65882353
v -0.14676967 -0.05703541 -19.81790161 0.25098039 0.27450980 0.65882353
v -0.14573941 -0.06383276 -19.81609726 0.25098039 0.27450980 0.65882353
v -0.14778957 -0.04441528 -19.81655884 0.25098039 0.27450980 0.65882353
v -0.14193377 -0.04566739 -19.81958389 0.25098039 0.27450980 0.65882353
v -0.14451294 -0.06756406 -19.81427002 0.25098039 0.27450980 0.65882353
v -0.13536870 -0.07406876 -19.80946350 0.25098039 0.27450980 0.65882353
v -0.13899235 -0.07399558 -19.81032562 0.25098039 0.27450980 0.65882353
v -0.14096275 -0.06109239 -19.80108070 0.25098039 0.27450980 0.65882353
v -0.13743562 -0.06708672 -19.80316544 0.25098039 0.27450980 0.65882353
v -0.14052990 -0.06710543 -19.80220985 0.25098039 0.27450980 0.65882353
v -0.14458497 -0.05932865 -19.80021286 0.25098039 0.27450980 0.65882353
v -0.14346588 -0.06685814 -19.80220795 0.25098039 0.27450980 0.65882353
v -0.13838044 -0.07188074 -19.80443573 0.25098039 0.27450980 0.65882353
v -0.13586695 -0.07042283 -19.80493546 0.25098039 0.27450980 0.65882353
v -0.14841072 -0.04064954 -19.81619453 0.25098039 0.27450980 0.65882353
v -0.15199541 -0.04110210 -19.81027603 0.25098039 0.27450980 0.65882353
v -0.15130386 -0.04449732 -19.81048203 0.25098039 0.27450980 0.65882353
v -0.15037784 -0.05658263 -19.81208038 0.25098039 0.27450980 0.65882353
v -0.15199909 -0.04630858 -19.80429268 0.25098039 0.27450980 0.65882353
v -0.14829154 -0.04767796 -19.79937172 0.25098039 0.27450980 0.65882353
v -0.14812431 -0.05855410 -19.80163383 0.25098039 0.27450980 0.65882353
v -0.15061513 -0.05733550 -19.80579185 0.25098039 0.27450980 0.65882353
v -0.14638138 -0.06596044 -19.80436897 0.25098039 0.27450980 0.65882353
v -0.14765887 -0.06485600 -19.80703926 0.25098039 0.27450980 0.65882353
v -0.14773650 -0.06433273 -19.81206703 0.25098039 0.27450980 0.65882353
v -0.14431281 -0.07007138 -19.80696487 0.25098039 0.27450980 0.65882353
v -0.14163099 -0.07162010 -19.80500412 0.25098039 0.27450980 0.65882353
v -0.14294042 -0.07142647 -19.81094170 0.25098039 0.27450980 0.65882353
v -0.14575420 -0.06802583 -19.80831718 0.25098039 0.27450980 0.65882353
v -0.14512536 -0.06844926 -19.81136703 0.25098039 0.27450980 0.65882353
v -0.22891423 -0.02175925 -19.83317947 0.25098039 0.27450980 0.65882353
v -0.22407603 -0.02448985 -19.82928658 0.25098039 0.27450980 0.65882353
v -0.22295131 -0.01897353 -19.83165169 0.25098039 0.27450980 0.65882353
v -0.21867192 -0.01193864 -19.83526993 0.25098039 0.27450980 0.65882353
v -0.22008267 -0.00254115 -19.83995056 0.25098039 0.27450980 0.65882353
v -0.21390463 -0.01305013 -19.83008575 0.25098039 0.27450980 0.65882353
v -0.21861544 -0.02046341 -19.82671165 0.25098039 0.27450980 0.65882353
v -0.22074677 -0.02843116 -19.82287407 0.25098039 0.27450980 0.65882353
v -0.20625746 -0.00681622 -19.82710838 0.25098039 0.27450980 0.65882353
f 2 3 1
f 1 3 4
f 5 6 8
f 8 6 7
f 9 4 10
f 10 4 3
f 12 13 11
f 11 13 9
f 14 12 16
f 16 12 15
f 18 19 17
f 17 19 20
f 22 23 21
f 21 23 24
f 26 27 25
f 25 27 28
f 30 31 29
f 29 31 32
f 33 34 36
f 36 34 35
f 37 38 40
f 40 38 39
f 41 42 6
f 6 42 43
f 6 43 7
f 7 43 44
f 45 34 46
f 46 34 33
f 48 49 47
f 47 49 50
f 52 53 51
f 51 53 54
f 56 52 55
f 55 52 51
f 58 59 57
f 57 59 60
f 61 62 4
f 4 62 1
f 64 65 63
f 63 65 66
f 68 69 67
f 67 69 70
f 72 73 71
f 71 73 74
f 76 77 75
f 75 77 78
f 53 79 54
f 54 79 80
f 82 83 81
f 81 83 84
f 85 86 52
f 52 86 53
f 57 60 87
f 87 60 88
f 89 90 43
f 43 90 44
f 43 42 89
f 89 42 91
f 40 39 92
f 92 39 93
f 94 70 64
f 64 70 69
f 13 61 9
f 9 61 4
f 25 28 69
f 69 28 95
f 96 25 68
f 68 25 69
f 98 99 97
f 97 99 100
f 101 102 104
f 104 102 103
f 106 30 105
f 105 30 29
f 51 54 107
f 107 54 108
f 54 80 108
f 108 80 109
f 111 112 110
f 110 112 113
f 115 5 114
f 114 5 116
f 115 41 5
f 5 41 6
f 36 35 111
f 111 35 117
f 35 118 117
f 117 118 119
f 34 120 35
f 35 120 118
f 34 45 120
f 120 45 121
f 125 126 124
f 124 126 127
f 128 129 14
f 14 129 130
f 33 131 46
f 46 131 132
f 133 94 63
f 63 94 64
f 134 135 137
f 137 135 136
f 139 140 138
f 138 140 141
f 77 142 78
f 78 142 143
f 144 145 20
f 20 145 146
f 148 149 147
f 147 149 72
f 151 152 150
f 150 152 153
f 82 101 83
f 83 101 104
f 101 82 155
f 155 82 154
f 156 157 58
f 58 157 59
f 158 68 147
f 147 68 67
f 159 146 15
f 15 146 16
f 68 158 96
f 96 158 160
f 129 66 130
f 130 66 65
f 162 163 161
f 161 163 164
f 166 167 165
f 165 167 168
f 170 171 169
f 169 171 172
f 174 171 173
f 173 171 170
f 176 177 175
f 175 177 178
f 180 181 179
f 179 181 24
f 182 183 21
f 21 183 184
f 81 185 82
f 82 185 154
f 186 187 188
f 188 187 144
f 158 71 160
f 160 71 189
f 190 135 157
f 157 135 59
f 169 172 139
f 139 172 140
f 147 72 158
f 158 72 71
f 192 193 191
f 191 193 194
f 167 166 49
f 49 166 195
f 196 190 50
f 50 190 157
f 197 198 200
f 200 198 199
f 21 24 182
f 182 24 181
f 146 159 20
f 20 159 17
f 182 181 81
f 81 181 185
f 201 185 180
f 180 185 181
f 202 203 83
f 83 203 84
f 205 206 204
f 204 206 85
f 207 22 184
f 184 22 21
f 179 24 208
f 208 24 23
f 208 209 179
f 179 209 205
f 209 210 205
f 205 210 206
f 212 206 211
f 211 206 210
f 179 205 180
f 180 205 204
f 213 176 88
f 88 176 214
f 86 85 212
f 212 85 206
f 193 217 218
f 217 219 218
f 218 219 220
f 219 18 220
f 220 18 17
f 19 221 20
f 20 221 144
f 222 223 225
f 225 223 224
f 175 226 176
f 176 226 214
f 227 87 214
f 214 87 88
f 220 17 228
f 228 17 159
f 134 213 60
f 60 213 88
f 138 229 151
f 151 229 152
f 193 192 210
f 210 192 211
f 230 194 218
f 218 194 193
f 231 232 228
f 228 232 230
f 233 234 91
f 91 234 89
f 235 236 93
f 93 236 92
f 230 232 234
f 234 232 237
f 47 238 48
f 48 238 239
f 240 191 235
f 235 191 236
f 5 8 116
f 116 8 241
f 242 243 189
f 189 243 160
f 244 245 98
f 98 245 99
f 156 246 47
f 47 246 238
f 76 247 77
f 77 247 248
f 250 125 249
f 249 125 124
f 252 253 251
f 251 253 254
f 111 110 36
f 36 110 255
f 256 33 255
f 255 33 36
f 257 258 154
f 154 258 155
f 63 169 133
f 133 169 139
f 66 170 63
f 63 170 169
f 173 170 129
f 129 170 66
f 129 128 173
f 173 128 259
f 128 260 259
f 259 260 261
f 213 134 262
f 262 134 137
f 263 264 186
f 186 264 187
f 112 265 113
f 113 265 266
f 11 267 268
f 234 233 230
f 230 233 194
f 153 269 70
f 70 269 67
f 175 178 165
f 165 178 141
f 150 153 94
f 94 153 70
f 271 221 270
f 270 221 207
f 269 153 272
f 272 153 152
f 121 45 109
f 109 45 108
f 47 50 156
f 156 50 157
f 57 273 58
f 58 273 274
f 145 275 260
f 260 275 261
f 276 149 143
f 143 149 78
f 148 269 75
f 75 269 272
f 207 277 270
f 270 277 278
f 195 196 49
f 49 196 50
f 59 135 60
f 60 135 134
f 83 104 202
f 202 104 279
f 149 148 78
f 78 148 75
f 247 278 248
f 248 278 277
f 183 182 84
f 84 182 81
f 48 239 281
f 281 239 282
f 227 223 283
f 283 223 222
f 223 226 224
f 224 226 168
f 281 282 224
f 224 282 225
f 165 168 175
f 175 168 226
f 264 263 138
f 138 263 229
f 14 16 128
f 128 16 260
f 220 228 218
f 218 228 230
f 87 227 284
f 284 227 283
f 260 16 145
f 145 16 146
f 244 98 258
f 258 98 155
f 58 274 156
f 156 274 246
f 107 285 51
f 51 285 55
f 243 286 160
f 160 286 96
f 234 237 89
f 89 237 90
f 46 132 107
f 107 132 285
f 253 252 249
f 249 252 250
f 286 26 96
f 96 26 25
f 106 105 287
f 287 105 288
f 272 152 289
f 289 152 229
f 138 151 139
f 139 151 133
f 183 290 161
f 161 290 162
f 291 292 277
f 277 292 293
f 151 150 133
f 133 150 94
f 262 275 177
f 177 275 187
f 144 187 145
f 145 187 275
f 273 57 284
f 284 57 87
f 174 136 190
f 190 136 135
f 111 117 112
f 112 117 38
f 117 119 38
f 38 119 123
f 112 38 265
f 265 38 37
f 287 288 254
f 254 288 251
f 228 159 231
f 231 159 15
f 223 227 226
f 226 227 214
f 147 67 148
f 148 67 269
f 224 168 281
f 281 168 167
f 199 163 200
f 200 163 162
f 45 46 108
f 108 46 107
f 281 167 48
f 48 167 49
f 161 164 291
f 291 164 292
f 38 123 39
f 293 294 277
f 277 294 248
f 284 283 296
f 296 283 295
f 284 296 273
f 273 296 297
f 274 273 298
f 298 273 297
f 246 274 299
f 299 274 298
f 283 222 295
f 295 222 300
f 222 225 300
f 300 225 301
f 301 225 302
f 302 225 282
f 303 304 300
f 300 304 295
f 306 307 305
f 305 307 308
f 309 310 308
f 308 310 305
f 308 307 312
f 312 307 311
f 313 314 312
f 312 314 315
f 311 316 312
f 312 316 313
f 317 304 311
f 311 304 316
f 315 309 312
f 312 309 308
f 318 319 321
f 321 319 320
f 319 318 309
f 309 318 310
f 311 307 317
f 317 307 306
f 306 297 317
f 317 297 296
f 306 322 297
f 297 322 298
f 305 323 306
f 306 323 322
f 323 305 324
f 324 305 310
f 304 317 295
f 295 317 296
f 318 325 310
f 310 325 324
f 323 324 326
f 326 324 327
f 324 325 327
f 327 325 328
f 326 327 329
f 329 327 330
f 329 331 326
f 326 331 332
f 333 330 328
f 328 330 327
f 323 326 322
f 322 326 332
f 322 332 298
f 298 332 299
f 325 318 334
f 334 318 321
f 313 316 335
f 335 316 304
f 335 336 313
f 313 336 314
f 304 303 335
f 335 303 337
f 336 335 338
f 338 335 337
f 336 339 314
f 314 339 340
f 246 299 238
f 238 299 341
f 239 342 282
f 282 342 302
f 342 239 341
f 341 239 238
f 341 331 342
f 342 331 343
f 331 329 343
f 343 329 344
f 342 343 302
f 302 343 345
f 341 299 331
f 331 299 332
f 346 301 345
f 345 301 302
f 346 303 301
f 301 303 300
f 347 337 346
f 346 337 303
f 347 346 348
f 348 346 345
f 349 347 350
f 350 347 348
f 343 344 345
f 345 344 348
f 344 351 348
f 348 351 350
f 337 347 338
f 338 347 349
f 353 338 352
f 352 338 349
f 352 355 354
f 354 355 356
f 352 349 355
f 355 349 350
f 352 354 353
f 353 354 334
f 353 334 339
f 339 334 321
f 339 336 353
f 353 336 338
f 329 330 344
f 344 330 351
f 356 351 333
f 333 351 330
f 356 355 351
f 351 355 350
f 354 356 328
f 328 356 333
f 328 325 354
f 354 325 334
f 309 315 319
f 319 315 320
f 320 340 321
f 321 340 339
f 320 315 340
f 340 315 314
f 137 136 261
f 261 136 259
f 140 166 141
f 141 166 165
f 172 171 195
f 195 171 196
f 171 174 196
f 196 174 190
f 178 177 264
f 264 177 187
f 172 195 140
f 140 195 166
f 137 261 262
f 262 261 275
f 178 264 141
f 141 264 138
f 262 177 213
f 213 177 176
f 136 174 259
f 259 174 173
f 358 359 357
f 357 359 360
f 362 363 361
f 361 363 364
f 361 364 365
f 365 364 366
f 367 368 370
f 370 368 369
f 76 371 247
f 247 371 372
f 373 374 362
f 362 374 363
f 376 377 375
f 375 377 378
f 289 229 380
f 380 229 379
f 381 379 263
f 263 379 229
f 383 384 382
f 382 384 385
f 386 368 374
f 374 368 363
f 76 289 371
f 371 289 380
f 377 376 359
f 359 376 387
f 388 386 360
f 360 386 374
f 389 383 366
f 366 383 390
f 392 393 391
f 391 393 394
f 383 382 390
f 390 382 395
f 396 365 390
f 390 365 366
f 389 366 367
f 367 366 364
f 357 397 358
f 358 397 398
f 373 399 357
f 357 399 397
f 389 367 400
f 400 367 370
f 382 385 375
f 375 385 372
f 357 360 373
f 373 360 374
f 361 401 362
f 362 401 402
f 387 388 359
f 359 388 360
f 363 368 364
f 364 368 367
f 358 398 403
f 403 398 404
f 396 392 405
f 405 392 391
f 392 395 393
f 393 395 378
f 393 403 394
f 394 403 404
f 375 378 382
f 382 378 395
f 365 396 406
f 406 396 405
f 362 402 373
f 373 402 399
f 271 270 400
f 400 270 384
f 401 361 406
f 406 361 365
f 381 369 386
f 386 369 368
f 392 396 395
f 395 396 390
f 393 378 403
f 403 378 377
f 403 377 358
f 358 377 359
f 406 405 408
f 408 405 407
f 406 408 401
f 401 408 409
f 401 409 402
f 402 409 410
f 402 410 399
f 399 410 411
f 405 391 407
f 407 391 412
f 391 394 412
f 412 394 413
f 394 404 413
f 413 404 414
f 415 416 412
f 412 416 407
f 418 419 417
f 417 419 420
f 421 422 418
f 418 422 419
f 419 422 424
f 424 422 423
f 425 426 424
f 424 426 427
f 423 428 424
f 424 428 425
f 427 420 424
f 424 420 419
f 420 429 417
f 417 429 430
f 423 422 431
f 431 422 421
f 421 409 431
f 431 409 408
f 421 432 409
f 409 432 410
f 418 433 421
f 421 433 432
f 434 433 417
f 417 433 418
f 431 416 423
f 423 416 428
f 416 431 407
f 407 431 408
f 435 434 430
f 430 434 417
f 433 434 436
f 436 434 437
f 434 435 437
f 437 435 438
f 436 437 439
f 439 437 440
f 439 441 436
f 436 441 442
f 438 443 437
f 437 443 440
f 436 442 433
f 433 442 432
f 432 442 410
f 410 442 411
f 435 430 445
f 445 430 444
f 430 429 444
f 444 429 446
f 425 428 447
f 447 428 416
f 426 425 448
f 448 425 447
f 416 415 447
f 447 415 449
f 447 449 448
f 448 449 450
f 451 452 448
f 448 452 426
f 446 452 444
f 444 452 451
f 399 411 397
f 397 411 453
f 398 454 404
f 404 454 414
f 454 398 453
f 453 398 397
f 453 441 454
f 454 441 455
f 441 439 455
f 455 439 456
f 454 455 414
f 414 455 457
f 441 453 442
f 442 453 411
f 458 413 457
f 457 413 414
f 458 415 413
f 413 415 412
f 458 459 415
f 415 459 449
f 459 458 460
f 460 458 457
f 461 459 462
f 462 459 460
f 455 456 457
f 457 456 460
f 456 463 460
f 460 463 462
f 459 461 449
f 449 461 450
f 465 450 464
f 464 450 461
f 464 467 466
f 466 467 468
f 464 461 467
f 467 461 462
f 464 466 465
f 465 466 445
f 465 445 451
f 451 445 444
f 451 448 465
f 465 448 450
f 439 440 456
f 456 440 463
f 468 463 443
f 443 463 440
f 468 467 463
f 463 467 462
f 466 468 438
f 438 468 443
f 438 435 466
f 466 435 445
f 420 427 429
f 429 427 446
f 446 427 452
f 452 427 426
f 370 369 188
f 188 369 186
f 371 376 372
f 372 376 375
f 380 379 387
f 387 379 388
f 379 381 388
f 388 381 386
f 385 384 278
f 278 384 270
f 380 387 371
f 371 387 376
f 400 370 271
f 271 370 188
f 385 278 372
f 372 278 247
f 400 384 389
f 389 384 383
f 369 381 186
f 186 381 263
f 221 271 144
f 144 271 188
f 221 19 207
f 207 19 22
f 19 18 22
f 22 18 23
f 18 219 23
f 23 219 208
f 469 470 472
f 472 470 471
f 474 475 473
f 473 475 476
f 473 476 477
f 477 476 478
f 480 481 479
f 479 481 482
f 483 484 474
f 474 484 475
f 486 487 485
f 485 487 488
f 489 490 77
f 77 490 142
f 491 489 248
f 248 489 77
f 493 494 492
f 492 494 495
f 496 480 484
f 484 480 475
f 486 497 487
f 487 497 471
f 498 496 472
f 472 496 484
f 499 493 478
f 478 493 500
f 501 502 504
f 504 502 503
f 493 492 500
f 500 492 505
f 506 477 500
f 500 477 478
f 499 478 479
f 479 478 476
f 469 507 470
f 470 507 508
f 483 509 469
f 469 509 507
f 479 482 499
f 499 482 510
f 492 495 485
f 485 495 511
f 483 469 484
f 484 469 472
f 473 512 474
f 474 512 513
f 497 498 471
f 471 498 472
f 475 480 476
f 476 480 479
f 470 508 514
f 514 508 515
f 506 502 516
f 516 502 501
f 503 502 488
f 488 502 505
f 514 515 503
f 503 515 504
f 485 488 492
f 492 488 505
f 477 506 517
f 517 506 516
f 474 513 483
f 483 513 509
f 510 292 494
f 494 292 164
f 512 473 517
f 517 473 477
f 491 481 496
f 496 481 480
f 502 506 505
f 505 506 500
f 503 488 514
f 514 488 487
f 514 487 470
f 470 487 471
f 517 516 519
f 519 516 518
f 517 519 512
f 512 519 520
f 512 520 513
f 513 520 521
f 513 521 509
f 509 521 522
f 516 501 518
f 518 501 523
f 501 504 523
f 523 504 524
f 524 504 525
f 525 504 515
f 526 527 523
f 523 527 518
f 529 530 528
f 528 530 531
f 532 533 529
f 529 533 530
f 530 533 535
f 535 533 534
f 536 537 535
f 535 537 538
f 534 539 535
f 535 539 536
f 538 531 535
f 535 531 530
f 540 541 531
f 531 541 528
f 533 532 534
f 534 532 542
f 532 520 542
f 542 520 519
f 532 543 520
f 520 543 521
f 529 544 532
f 532 544 543
f 544 529 545
f 545 529 528
f 534 542 539
f 539 542 527
f 527 542 518
f 518 542 519
f 541 546 528
f 528 546 545
f 547 544 548
f 548 544 545
f 546 549 545
f 545 549 548
f 550 547 551
f 551 547 548
f 547 550 553
f 553 550 552
f 549 554 548
f 548 554 551
f 544 547 543
f 543 547 553
f 543 553 521
f 521 553 522
f 546 541 556
f 556 541 555
f 541 540 555
f 555 540 557
f 536 539 558
f 558 539 527
f 537 536 559
f 559 536 558
f 527 526 558
f 558 526 560
f 559 558 561
f 561 558 560
f 559 562 537
f 537 562 563
f 557 563 555
f 555 563 562
f 509 522 507
f 507 522 564
f 508 565 515
f 515 565 525
f 565 508 564
f 564 508 507
f 564 552 565
f 565 552 566
f 552 550 566
f 566 550 567
f 565 566 525
f 525 566 568
f 564 522 552
f 552 522 553
f 569 524 568
f 568 524 525
f 569 526 524
f 524 526 523
f 570 560 569
f 569 560 526
f 570 569 571
f 571 569 568
f 572 570 573
f 573 570 571
f 566 567 568
f 568 567 571
f 567 574 571
f 571 574 573
f 570 572 560
f 560 572 561
f 576 561 575
f 575 561 572
f 575 578 577
f 577 578 579
f 575 572 578
f 578 572 573
f 575 577 576
f 576 577 556
f 576 556 562
f 562 556 555
f 562 559 576
f 576 559 561
f 550 551 567
f 567 551 574
f 579 574 554
f 554 574 551
f 579 578 574
f 574 578 573
f 579 554 577
f 577 554 549
f 549 546 577
f 577 546 556
f 531 538 540
f 540 538 557
f 557 538 563
f 563 538 537
f 481 294 482
f 482 294 293
f 580 486 511
f 511 486 485
f 490 489 497
f 497 489 498
f 489 491 498
f 498 491 496
f 163 495 164
f 164 495 494
f 580 490 486
f 486 490 497
f 482 293 510
f 510 293 292
f 495 163 511
f 511 163 199
f 494 493 510
f 510 493 499
f 481 491 294
f 294 491 248
f 582 583 581
f 581 583 584
f 586 587 585
f 585 587 588
f 585 588 589
f 589 588 590
f 592 593 591
f 591 593 594
f 595 596 598
f 598 596 597
f 599 600 586
f 586 600 587
f 601 602 604
f 604 602 603
f 605 606 608
f 608 606 607
f 609 607 200
f 200 607 606
f 610 611 613
f 613 611 612
f 600 614 587
f 587 614 592
f 596 605 597
f 597 605 608
f 602 615 603
f 603 615 583
f 616 614 584
f 584 614 600
f 611 618 617
f 617 618 590
f 620 621 619
f 619 621 622
f 610 623 611
f 611 623 618
f 624 589 618
f 618 589 590
f 617 590 591
f 591 590 588
f 581 625 582
f 582 625 626
f 599 627 581
f 581 627 625
f 591 594 617
f 617 594 628
f 601 610 598
f 598 610 613
f 581 584 599
f 599 584 600
f 585 629 586
f 586 629 630
f 615 616 583
f 583 616 584
f 587 592 588
f 588 592 591
f 582 626 631
f 631 626 632
f 624 620 633
f 633 620 619
f 621 620 604
f 604 620 623
f 631 632 621
f 621 632 622
f 610 601 623
f 623 601 604
f 589 624 634
f 634 624 633
f 586 630 599
f 599 630 627
f 203 202 628
f 628 202 612
f 629 585 634
f 634 585 589
f 609 593 614
f 614 593 592
f 620 624 623
f 623 624 618
f 631 621 603
f 603 621 604
f 582 631 583
f 583 631 603
f 634 633 636
f 636 633 635
f 634 636 629
f 629 636 637
f 629 637 630
f 630 637 638
f 630 638 627
f 627 638 639
f 633 619 635
f 635 619 640
f 619 622 640
f 640 622 641
f 641 622 642
f 642 622 632
f 644 635 643
f 643 635 640
f 645 646 648
f 648 646 647
f 649 650 646
f 646 650 647
f 647 650 652
f 652 650 651
f 652 653 655
f 655 653 654
f 651 656 652
f 652 656 653
f 655 648 652
f 652 648 647
f 648 657 645
f 645 657 658
f 650 649 651
f 651 649 659
f 649 637 659
f 659 637 636
f 649 660 637
f 637 660 638
f 661 660 646
f 646 660 649
f 662 661 645
f 645 661 646
f 651 659 656
f 656 659 644
f 644 659 635
f 635 659 636
f 663 662 658
f 658 662 645
f 664 661 665
f 665 661 662
f 663 666 662
f 662 666 665
f 667 664 668
f 668 664 665
f 664 667 670
f 670 667 669
f 666 671 665
f 665 671 668
f 661 664 660
f 660 664 670
f 660 670 638
f 638 670 639
f 658 672 663
f 663 672 673
f 658 657 672
f 672 657 674
f 653 656 675
f 675 656 644
f 653 675 654
f 654 675 676
f 675 644 677
f 677 644 643
f 676 675 678
f 678 675 677
f 679 680 676
f 676 680 654
f 674 680 672
f 672 680 679
f 627 639 625
f 625 639 681
f 626 682 632
f 632 682 642
f 681 682 625
f 625 682 626
f 669 683 681
f 681 683 682
f 667 684 669
f 669 684 683
f 682 683 642
f 642 683 685
f 681 639 669
f 669 639 670
f 686 641 685
f 685 641 642
f 641 686 640
f 640 686 643
f 686 687 643
f 643 687 677
f 687 686 688
f 688 686 685
f 689 687 690
f 690 687 688
f 683 684 685
f 685 684 688
f 684 691 688
f 688 691 690
f 687 689 677
f 677 689 678
f 693 678 692
f 692 678 689
f 692 695 694
f 694 695 696
f 692 689 695
f 695 689 690
f 692 694 693
f 693 694 673
f 693 673 679
f 679 673 672
f 679 676 693
f 693 676 678
f 684 667 691
f 691 667 668
f 696 691 671
f 671 691 668
f 696 695 691
f 691 695 690
f 694 696 666
f 666 696 671
f 666 663 694
f 694 663 673
f 648 655 657
f 657 655 674
f 674 655 680
f 680 655 654
f 593 162 594
f 594 162 290
f 598 597 601
f 601 597 602
f 615 608 616
f 616 608 607
f 607 609 616
f 616 609 614
f 697 595 613
f 613 595 598
f 597 608 602
f 602 608 615
f 594 290 628
f 628 290 203
f 628 612 617
f 617 612 611
f 593 609 162
f 162 609 200
f 105 29 698
f 698 29 699
f 268 126 701
f 701 126 700
f 126 125 700
f 700 125 702
f 252 703 250
f 250 703 704
f 32 268 705
f 705 268 701
f 288 105 706
f 706 105 698
f 29 32 699
f 699 32 705
f 707 251 706
f 706 251 288
f 250 704 125
f 125 704 702
f 703 252 707
f 707 252 251
f 706 708 707
f 707 708 709
f 707 709 703
f 703 709 710
f 703 710 704
f 704 710 711
f 704 711 702
f 702 711 712
f 706 698 708
f 708 698 713
f 698 699 713
f 713 699 714
f 699 705 714
f 714 705 715
f 717 708 716
f 716 708 713
f 719 720 718
f 718 720 721
f 722 723 719
f 719 723 720
f 724 725 723
f 723 725 720
f 724 726 725
f 725 726 727
f 728 721 725
f 725 721 720
f 721 728 729
f 729 728 730
f 729 731 721
f 721 731 718
f 724 723 732
f 732 723 722
f 722 710 732
f 732 710 709
f 722 733 710
f 710 733 711
f 719 734 722
f 722 734 733
f 734 719 735
f 735 719 718
f 724 732 726
f 726 732 717
f 717 732 708
f 708 732 709
f 731 736 718
f 718 736 735
f 737 734 738
f 738 734 735
f 736 739 735
f 735 739 738
f 740 737 741
f 741 737 738
f 737 740 743
f 743 740 742
f 739 744 738
f 738 744 741
f 734 737 733
f 733 737 743
f 733 743 711
f 711 743 712
f 736 731 746
f 746 731 745
f 731 729 745
f 745 729 730
f 727 726 747
f 747 726 717
f 748 727 749
f 749 727 747
f 747 717 750
f 750 717 716
f 749 747 751
f 751 747 750
f 749 752 748
f 748 752 753
f 730 753 745
f 745 753 752
f 728 725 748
f 748 725 727
f 730 728 753
f 753 728 748
f 700 702 754
f 754 702 712
f 705 701 715
f 715 701 755
f 754 755 700
f 700 755 701
f 742 756 754
f 754 756 755
f 740 757 742
f 742 757 756
f 755 756 715
f 715 756 758
f 754 712 742
f 742 712 743
f 759 714 758
f 758 714 715
f 714 759 713
f 713 759 716
f 759 760 716
f 716 760 750
f 760 759 761
f 761 759 758
f 762 760 763
f 763 760 761
f 756 757 758
f 758 757 761
f 757 764 761
f 761 764 763
f 760 762 750
f 750 762 751
f 766 751 765
f 765 751 762
f 767 765 769
f 769 765 768
f 765 762 768
f 768 762 763
f 765 767 766
f 766 767 746
f 766 746 752
f 752 746 745
f 752 749 766
f 766 749 751
f 757 740 764
f 764 740 741
f 769 764 744
f 744 764 741
f 769 768 764
f 764 768 763
f 767 769 739
f 739 769 744
f 739 736 767
f 767 736 746
f 219 217 208
f 208 217 209
f 209 217 210
f 210 217 193
f 198 580 199
f 199 580 511
f 76 75 289
f 289 75 272
f 277 207 291
f 291 207 184
f 290 183 203
f 203 183 84
f 490 580 142
f 142 580 198
f 142 198 143
f 143 198 197
f 149 276 72
f 72 276 73
f 104 103 279
f 279 103 770
f 770 596 279
f 279 596 595
f 605 596 771
f 771 596 770
f 771 770 772
f 772 770 103
f 772 103 773
f 773 103 102
f 155 774 101
f 101 774 102
f 773 102 97
f 97 102 774
f 775 773 100
f 100 773 97
f 773 775 772
f 772 775 776
f 772 776 771
f 771 776 777
f 200 606 197
f 197 606 777
f 189 71 778
f 778 71 74
f 97 774 98
f 98 774 155
f 183 161 184
f 184 161 291
f 777 276 197
f 197 276 143
f 777 606 771
f 771 606 605
f 613 612 697
f 697 612 202
f 595 697 279
f 279 697 202
f 73 276 776
f 776 276 777
f 776 775 73
f 73 775 74
f 100 778 775
f 775 778 74
f 778 100 189
f 189 100 99
f 245 242 99
f 99 242 189
f 131 33 256
f 28 1 95
f 95 1 62
f 27 2 28
f 28 2 1
f 265 115 266
f 266 115 114
f 95 62 69
f 69 62 64
f 62 61 64
f 64 61 65
f 61 13 65
f 65 13 130
f 13 12 130
f 130 12 14
f 31 11 32
f 32 11 268
f 15 12 31
f 31 12 11
f 31 30 15
f 15 30 231
f 30 106 231
f 231 106 232
f 287 237 106
f 106 237 232
f 254 90 287
f 287 90 237
f 253 44 254
f 254 44 90
f 253 249 44
f 44 249 7
f 267 127 268
f 268 127 126
f 10 3 241
f 241 3 116
f 3 2 116
f 116 2 114
f 2 27 114
f 114 27 266
f 27 26 266
f 266 26 113
f 26 286 113
f 113 286 110
f 286 243 110
f 110 243 255
f 243 242 255
f 255 242 256
f 242 245 256
f 256 245 131
f 245 244 131
f 131 244 132
f 265 37 115
f 115 37 41
f 41 37 42
f 42 37 40
f 92 91 40
f 40 91 42
f 236 233 92
f 92 233 91
f 191 194 236
f 236 194 233
f 258 285 244
f 244 285 132
f 257 55 258
f 258 55 285
f 257 154 201
f 201 154 185
f 56 201 204
f 204 201 180
f 55 257 56
f 56 257 201
f 204 85 56
f 56 85 52
f 86 122 53
f 53 122 79
f 212 215 86
f 86 215 122
f 211 216 212
f 212 216 215
f 192 280 211
f 211 280 216
f 191 240 192
f 192 240 280
f 249 124 7
f 7 124 8
f 124 127 8
f 8 127 241
f 127 267 241
f 241 267 10
f 10 267 9
f 9 267 11
f 93 39 235
f 235 39 240
f 39 123 240
f 240 123 280
f 123 119 280
f 280 119 216
f 119 118 216
f 216 118 215
f 118 120 215
f 215 120 122
f 120 121 122
f 122 121 79
f 121 109 79
f 79 109 80

