# https://github.com/mikedh/trimesh
v -0.07869920 -0.03433539 -16.75296974 0.25098039 0.27450980 0.65882353
v -0.09054109 -0.02975310 -16.75164413 0.25098039 0.27450980 0.65882353
v -0.08999954 -0.03779293 -16.75309181 0.25098039 0.27450980 0.65882353
v -0.07678276 -0.04095448 -16.75686264 0.25098039 0.27450980 0.65882353
v -0.11241563 -0.03345059 -16.75897408 0.25098039 0.27450980 0.65882353
v -0.11585777 -0.03155997 -16.77054787 0.25098039 0.27450980 0.65882353
v -0.10956858 -0.04384248 -16.76854515 0.25098039 0.27450980 0.65882353
v -0.10770374 -0.04366351 -16.75797844 0.25098039 0.27450980 0.65882353
v -0.07389711 -0.04543399 -16.75928116 0.25098039 0.27450980 0.65882353
v -0.08786992 -0.04502823 -16.75387764 0.25098039 0.27450980 0.65882353
v -0.07187916 -0.04573204 -16.76147079 0.25098039 0.27450980 0.65882353
v -0.05719897 -0.03859855 -16.76886368 0.25098039 0.27450980 0.65882353
v -0.06131151 -0.04177700 -16.76495552 0.25098039 0.27450980 0.65882353
v -0.04793210 -0.03695378 -16.76985931 0.25098039 0.27450980 0.65882353
v -0.05655210 -0.02900822 -16.77277946 0.25098039 0.27450980 0.65882353
v -0.04277730 -0.02922933 -16.76818085 0.25098039 0.27450980 0.65882353
v -0.05386131 -0.00708746 -16.75376129 0.25098039 0.27450980 0.65882353
v -0.05763687 -0.00365100 -16.74050331 0.25098039 0.27450980 0.65882353
v -0.04442340 -0.01280690 -16.73699188 0.25098039 0.27450980 0.65882353
v -0.04171093 -0.01578429 -16.75060463 0.25098039 0.27450980 0.65882353
v -0.05675195 -0.00959886 -16.71892548 0.25098039 0.27450980 0.65882353
v -0.04903181 -0.01147492 -16.72836113 0.25098039 0.27450980 0.65882353
v -0.06180340 -0.00156642 -16.73191261 0.25098039 0.27450980 0.65882353
v -0.06799090 -0.00025336 -16.72344971 0.25098039 0.27450980 0.65882353
v -0.08383344 -0.02683462 -16.74248505 0.25098039 0.27450980 0.65882353
v -0.09364214 -0.02269088 -16.74236298 0.25098039 0.27450980 0.65882353
v -0.09162152 -0.02341287 -16.74637794 0.25098039 0.27450980 0.65882353
v -0.08212436 -0.02815356 -16.74694633 0.25098039 0.27450980 0.65882353
v -0.07809414 -0.05176283 -16.76861572 0.25098039 0.27450980 0.65882353
v -0.07417892 -0.03768472 -16.77535248 0.25098039 0.27450980 0.65882353
v -0.07037668 -0.04091739 -16.76902962 0.25098039 0.27450980 0.65882353
v -0.07930741 -0.05328808 -16.76268768 0.25098039 0.27450980 0.65882353
v -0.11997470 -0.01539296 -16.73674774 0.25098039 0.27450980 0.65882353
v -0.12569708 -0.00252098 -16.74058533 0.25098039 0.27450980 0.65882353
v -0.12463395 -0.00294755 -16.74661255 0.25098039 0.27450980 0.65882353
v -0.11901856 -0.01386364 -16.74203491 0.25098039 0.27450980 0.65882353
v -0.12062058 -0.01289702 -16.76614380 0.25098039 0.27450980 0.65882353
v -0.12213917 -0.00305519 -16.76591873 0.25098039 0.27450980 0.65882353
v -0.12040216 0.00522094 -16.77564430 0.25098039 0.27450980 0.65882353
v -0.11583271 -0.00423700 -16.77686882 0.25098039 0.27450980 0.65882353
v -0.11863117 -0.02281573 -16.76886177 0.25098039 0.27450980 0.65882353
v -0.11423023 -0.01672417 -16.77888298 0.25098039 0.27450980 0.65882353
v -0.11097877 -0.02793272 -16.78033066 0.25098039 0.27450980 0.65882353
v -0.10553604 -0.04244359 -16.77741623 0.25098039 0.27450980 0.65882353
v -0.12602249 0.00096525 -16.72805023 0.25098039 0.27450980 0.65882353
v -0.12248456 -0.00777647 -16.72304535 0.25098039 0.27450980 0.65882353
v -0.02531059 -0.07590713 -16.75445175 0.25098039 0.27450980 0.65882353
v -0.02682753 -0.07549183 -16.74856758 0.25098039 0.27450980 0.65882353
v -0.02834782 -0.07148115 -16.74996567 0.25098039 0.27450980 0.65882353
v -0.02645424 -0.07243110 -16.75554276 0.25098039 0.27450980 0.65882353
v -0.11447860 0.01150749 -16.71442986 0.25098039 0.27450980 0.65882353
v -0.10753988 0.01933001 -16.71638870 0.25098039 0.27450980 0.65882353
v -0.11411954 0.02178638 -16.71683884 0.25098039 0.27450980 0.65882353
v -0.12067037 0.01460100 -16.71688271 0.25098039 0.27450980 0.65882353
v -0.10607116 0.00715039 -16.71148872 0.25098039 0.27450980 0.65882353
v -0.09863610 0.01496506 -16.71623039 0.25098039 0.27450980 0.65882353
v -0.01289594 -0.07408497 -16.75565338 0.25098039 0.27450980 0.65882353
v -0.01718375 -0.07568561 -16.75777054 0.25098039 0.27450980 0.65882353
v -0.01712686 -0.07109368 -16.75933266 0.25098039 0.27450980 0.65882353
v -0.01320122 -0.06876700 -16.75666428 0.25098039 0.27450980 0.65882353
v -0.06544013 -0.04166908 -16.76082420 0.25098039 0.27450980 0.65882353
v -0.06935978 -0.03860183 -16.75448990 0.25098039 0.27450980 0.65882353
v -0.04868332 -0.04885373 -16.75900078 0.25098039 0.27450980 0.65882353
v -0.05599704 -0.04379885 -16.75675011 0.25098039 0.27450980 0.65882353
v -0.05577265 -0.04302592 -16.76321411 0.25098039 0.27450980 0.65882353
v -0.04889198 -0.04653324 -16.76514053 0.25098039 0.27450980 0.65882353
v -0.06460425 -0.03665107 -16.73588753 0.25098039 0.27450980 0.65882353
v -0.07445239 -0.03101150 -16.73795891 0.25098039 0.27450980 0.65882353
v -0.07148196 -0.03248610 -16.74362373 0.25098039 0.27450980 0.65882353
v -0.06108227 -0.04011191 -16.74303246 0.25098039 0.27450980 0.65882353
v -0.08024231 -0.02984055 -16.72480202 0.25098039 0.27450980 0.65882353
v -0.06999853 -0.03521691 -16.72370720 0.25098039 0.27450980 0.65882353
v -0.07447127 -0.03351631 -16.71612358 0.25098039 0.27450980 0.65882353
v -0.08146952 -0.03092473 -16.71827507 0.25098039 0.27450980 0.65882353
v -0.05150123 -0.04531344 -16.72481346 0.25098039 0.27450980 0.65882353
v -0.04351328 -0.04742756 -16.72360611 0.25098039 0.27450980 0.65882353
v -0.04337332 -0.04728609 -16.72111893 0.25098039 0.27450980 0.65882353
v -0.05273254 -0.04438812 -16.72168350 0.25098039 0.27450980 0.65882353
v -0.11986880 0.02520576 -16.71775055 0.25098039 0.27450980 0.65882353
v -0.12600628 0.01791447 -16.72011375 0.25098039 0.27450980 0.65882353
v -0.06992343 -0.00912820 -16.70151138 0.25098039 0.27450980 0.65882353
v -0.07986575 -0.01189585 -16.69725227 0.25098039 0.27450980 0.65882353
v -0.07084386 -0.01906391 -16.69106293 0.25098039 0.27450980 0.65882353
v -0.06226608 -0.01400257 -16.69742203 0.25098039 0.27450980 0.65882353
v -0.10007431 0.02377355 -16.72321320 0.25098039 0.27450980 0.65882353
v -0.10637780 0.02751761 -16.72172928 0.25098039 0.27450980 0.65882353
v -0.01059987 -0.07249798 -16.75041008 0.25098039 0.27450980 0.65882353
v -0.01126964 -0.06723462 -16.75122261 0.25098039 0.27450980 0.65882353
v -0.10012434 -0.01961620 -16.78558540 0.25098039 0.27450980 0.65882353
v -0.09673454 -0.03847732 -16.78320694 0.25098039 0.27450980 0.65882353
v -0.10449267 -0.00480365 -16.78397751 0.25098039 0.27450980 0.65882353
v -0.10709599 0.00645909 -16.78142357 0.25098039 0.27450980 0.65882353
v -0.11180263 0.01451037 -16.77968597 0.25098039 0.27450980 0.65882353
v -0.05398615 -0.04559310 -16.75052834 0.25098039 0.27450980 0.65882353
v -0.07375023 -0.03330400 -16.74892044 0.25098039 0.27450980 0.65882353
v -0.08563627 -0.02625917 -16.73805618 0.25098039 0.27450980 0.65882353
v -0.09550700 -0.02700733 -16.70835495 0.25098039 0.27450980 0.65882353
v -0.10454763 -0.02243799 -16.71111870 0.25098039 0.27450980 0.65882353
v -0.09934450 -0.02658312 -16.71980858 0.25098039 0.27450980 0.65882353
v -0.09209275 -0.02922480 -16.71557426 0.25098039 0.27450980 0.65882353
v -0.08585402 -0.01970996 -16.69562149 0.25098039 0.27450980 0.65882353
v -0.08688780 -0.02695231 -16.69975662 0.25098039 0.27450980 0.65882353
v -0.07962132 -0.03069064 -16.69697380 0.25098039 0.27450980 0.65882353
v -0.07750899 -0.02482647 -16.69191360 0.25098039 0.27450980 0.65882353
v -0.08143856 -0.05239923 -16.77536011 0.25098039 0.27450980 0.65882353
v -0.07798114 -0.03535493 -16.78026390 0.25098039 0.27450980 0.65882353
v -0.12000248 0.00252941 -16.71714592 0.25098039 0.27450980 0.65882353
v -0.12451020 0.00642736 -16.72185707 0.25098039 0.27450980 0.65882353
v -0.12952256 0.01295091 -16.72504616 0.25098039 0.27450980 0.65882353
v -0.10727118 -0.01958134 -16.74128532 0.25098039 0.27450980 0.65882353
v -0.11871281 -0.01297455 -16.74559975 0.25098039 0.27450980 0.65882353
v -0.11788548 -0.01356079 -16.74940872 0.25098039 0.27450980 0.65882353
v -0.10572455 -0.01858268 -16.74376488 0.25098039 0.27450980 0.65882353
v -0.10392374 -0.02545432 -16.75191116 0.25098039 0.27450980 0.65882353
v -0.11497176 -0.02258945 -16.75726128 0.25098039 0.27450980 0.65882353
v -0.10290419 -0.03519630 -16.75135803 0.25098039 0.27450980 0.65882353
v -0.12408260 -0.00204699 -16.75520515 0.25098039 0.27450980 0.65882353
v -0.13142747 0.00455720 -16.74977684 0.25098039 0.27450980 0.65882353
v -0.12953722 0.00500157 -16.75875664 0.25098039 0.27450980 0.65882353
v -0.13234621 0.00649249 -16.74001122 0.25098039 0.27450980 0.65882353
v -0.13125822 0.00907258 -16.73130798 0.25098039 0.27450980 0.65882353
v -0.11143237 0.03364256 -16.72101593 0.25098039 0.27450980 0.65882353
v -0.12653889 0.00571554 -16.76678085 0.25098039 0.27450980 0.65882353
v -0.10349856 -0.05064642 -16.75642204 0.25098039 0.27450980 0.65882353
v -0.10022010 -0.05773918 -16.75606155 0.25098039 0.27450980 0.65882353
v -0.09248815 -0.05701787 -16.75209999 0.25098039 0.27450980 0.65882353
v -0.09572702 -0.05000919 -16.75128937 0.25098039 0.27450980 0.65882353
v -0.03887518 -0.03952355 -16.76948738 0.25098039 0.27450980 0.65882353
v -0.04476643 -0.04454164 -16.76859283 0.25098039 0.27450980 0.65882353
v -0.05348675 -0.04068951 -16.76848412 0.25098039 0.27450980 0.65882353
v -0.11309078 -0.02016073 -16.72924042 0.25098039 0.27450980 0.65882353
v -0.11603306 -0.01375010 -16.71763611 0.25098039 0.27450980 0.65882353
v -0.04611917 -0.04985866 -16.75266457 0.25098039 0.27450980 0.65882353
v -0.01465778 -0.06332870 -16.75811386 0.25098039 0.27450980 0.65882353
v -0.01894687 -0.06618300 -16.76122093 0.25098039 0.27450980 0.65882353
v -0.02940553 -0.05128381 -16.76732826 0.25098039 0.27450980 0.65882353
v -0.02354586 -0.04795123 -16.76397514 0.25098039 0.27450980 0.65882353
v -0.03633873 -0.04964826 -16.74685287 0.25098039 0.27450980 0.65882353
v -0.04190123 -0.05144321 -16.75096512 0.25098039 0.27450980 0.65882353
v -0.03999071 -0.05189010 -16.74937248 0.25098039 0.27450980 0.65882353
v -0.03527543 -0.05131491 -16.74402618 0.25098039 0.27450980 0.65882353
v -0.05019641 -0.04571690 -16.71454239 0.25098039 0.27450980 0.65882353
v -0.05794737 -0.04263665 -16.71476173 0.25098039 0.27450980 0.65882353
v -0.03164341 -0.02735735 -16.74649429 0.25098039 0.27450980 0.65882353
v -0.03097795 -0.02612888 -16.76040649 0.25098039 0.27450980 0.65882353
v -0.04127540 -0.02010987 -16.76158524 0.25098039 0.27450980 0.65882353
v -0.06817353 -0.03534480 -16.72921371 0.25098039 0.27450980 0.65882353
v -0.05980709 -0.04104805 -16.72650528 0.25098039 0.27450980 0.65882353
v -0.06121391 -0.04013579 -16.72252846 0.25098039 0.27450980 0.65882353
v -0.05101599 -0.04678574 -16.74669838 0.25098039 0.27450980 0.65882353
v -0.04384841 -0.04963427 -16.74702644 0.25098039 0.27450980 0.65882353
v -0.04663000 -0.04828585 -16.74301147 0.25098039 0.27450980 0.65882353
v -0.05316289 -0.04478031 -16.74213028 0.25098039 0.27450980 0.65882353
v -0.08905879 -0.00385853 -16.70207787 0.25098039 0.27450980 0.65882353
v -0.09603319 -0.01324086 -16.70003128 0.25098039 0.27450980 0.65882353
v -0.02174520 -0.07615076 -16.75751495 0.25098039 0.27450980 0.65882353
v -0.02224432 -0.07216892 -16.75899887 0.25098039 0.27450980 0.65882353
v -0.07758376 -0.02961525 -16.73155594 0.25098039 0.27450980 0.65882353
v -0.05333929 -0.01373222 -16.76306915 0.25098039 0.27450980 0.65882353
v -0.08787638 -0.02582094 -16.73324776 0.25098039 0.27450980 0.65882353
v -0.04943947 -0.02491584 -16.70479202 0.25098039 0.27450980 0.65882353
v -0.05263309 -0.03169991 -16.70219803 0.25098039 0.27450980 0.65882353
v -0.04867262 -0.03595726 -16.70241547 0.25098039 0.27450980 0.65882353
v -0.04422812 -0.03127641 -16.70259476 0.25098039 0.27450980 0.65882353
v -0.02601518 -0.06297179 -16.74045181 0.25098039 0.27450980 0.65882353
v -0.03001097 -0.06622882 -16.74374390 0.25098039 0.27450980 0.65882353
v -0.02722950 -0.06985427 -16.74378967 0.25098039 0.27450980 0.65882353
v -0.02305584 -0.06742255 -16.74033165 0.25098039 0.27450980 0.65882353
v -0.04381999 -0.05190818 -16.75667000 0.25098039 0.27450980 0.65882353
v -0.04359420 -0.05085760 -16.76341820 0.25098039 0.27450980 0.65882353
v -0.04036853 -0.05497314 -16.76084137 0.25098039 0.27450980 0.65882353
v -0.04062766 -0.05406185 -16.75438118 0.25098039 0.27450980 0.65882353
v -0.03888777 -0.04876891 -16.76740456 0.25098039 0.27450980 0.65882353
v -0.03602614 -0.05372435 -16.76610184 0.25098039 0.27450980 0.65882353
v -0.01974727 -0.05998649 -16.74119377 0.25098039 0.27450980 0.65882353
v -0.01405948 -0.05916029 -16.74639320 0.25098039 0.27450980 0.65882353
v -0.02219716 -0.04471752 -16.74924088 0.25098039 0.27450980 0.65882353
v -0.02750620 -0.04896769 -16.74376678 0.25098039 0.27450980 0.65882353
v -0.07810634 0.00999108 -16.72782707 0.25098039 0.27450980 0.65882353
v -0.08379184 0.00971029 -16.71806908 0.25098039 0.27450980 0.65882353
v -0.07355334 -0.00011779 -16.71345711 0.25098039 0.27450980 0.65882353
v -0.06337902 -0.00897049 -16.70816422 0.25098039 0.27450980 0.65882353
v -0.05445613 -0.01799164 -16.70441055 0.25098039 0.27450980 0.65882353
v -0.04757616 -0.01626450 -16.71429253 0.25098039 0.27450980 0.65882353
v -0.07948691 -0.00053611 -16.70746040 0.25098039 0.27450980 0.65882353
v -0.03146830 -0.04227189 -16.74407959 0.25098039 0.27450980 0.65882353
v -0.02810918 -0.03577500 -16.75045204 0.25098039 0.27450980 0.65882353
v -0.02941529 -0.03513343 -16.74450684 0.25098039 0.27450980 0.65882353
v -0.09112939 -0.02659707 -16.72642708 0.25098039 0.27450980 0.65882353
v -0.02439804 -0.06817546 -16.76110077 0.25098039 0.27450980 0.65882353
v -0.09493101 0.02290479 -16.76757812 0.25098039 0.27450980 0.65882353
v -0.09349103 0.02851257 -16.75449753 0.25098039 0.27450980 0.65882353
v -0.08829620 0.02167557 -16.75534439 0.25098039 0.27450980 0.65882353
v -0.08968288 0.01476382 -16.77009583 0.25098039 0.27450980 0.65882353
v -0.03163056 -0.06862549 -16.75059509 0.25098039 0.27450980 0.65882353
v -0.02992067 -0.06952460 -16.75729370 0.25098039 0.27450980 0.65882353
v -0.05950257 -0.04265599 -16.70798492 0.25098039 0.27450980 0.65882353
v -0.05237742 -0.04487595 -16.70880890 0.25098039 0.27450980 0.65882353
v -0.05095366 -0.04318438 -16.70514107 0.25098039 0.27450980 0.65882353
v -0.05839719 -0.04293686 -16.70271111 0.25098039 0.27450980 0.65882353
v -0.08846334 0.00941921 -16.71384621 0.25098039 0.27450980 0.65882353
v -0.06630562 -0.02586390 -16.68806076 0.25098039 0.27450980 0.65882353
v -0.05867395 -0.02051069 -16.69359398 0.25098039 0.27450980 0.65882353
v -0.09279402 0.01800586 -16.72255516 0.25098039 0.27450980 0.65882353
v -0.08729175 0.01908183 -16.73089790 0.25098039 0.27450980 0.65882353
v -0.09381232 0.02591468 -16.73239708 0.25098039 0.27450980 0.65882353
v -0.03672843 -0.02281719 -16.72485924 0.25098039 0.27450980 0.65882353
v -0.07310458 0.00815775 -16.73483658 0.25098039 0.27450980 0.65882353
v -0.08383188 0.01721864 -16.73759460 0.25098039 0.27450980 0.65882353
v -0.09129093 0.02526779 -16.73983955 0.25098039 0.27450980 0.65882353
v -0.09612925 0.03170751 -16.74076462 0.25098039 0.27450980 0.65882353
v -0.09888007 0.03105471 -16.73251534 0.25098039 0.27450980 0.65882353
v -0.01287001 -0.06128139 -16.75216866 0.25098039 0.27450980 0.65882353
v -0.01215506 -0.06564637 -16.74469566 0.25098039 0.27450980 0.65882353
v -0.10396296 0.03775514 -16.73210716 0.25098039 0.27450980 0.65882353
v -0.10122649 0.03755875 -16.74130821 0.25098039 0.27450980 0.65882353
v -0.08039737 0.01513918 -16.74642181 0.25098039 0.27450980 0.65882353
v -0.07702714 0.01132784 -16.75729179 0.25098039 0.27450980 0.65882353
v -0.07015699 0.00642501 -16.74364281 0.25098039 0.27450980 0.65882353
v -0.06590754 0.00239137 -16.75396538 0.25098039 0.27450980 0.65882353
v -0.03383224 -0.01945298 -16.73549461 0.25098039 0.27450980 0.65882353
v -0.01288140 -0.08138593 -16.73791122 0.25098039 0.27450980 0.65882353
v -0.01546273 -0.07105781 -16.73963928 0.25098039 0.27450980 0.65882353
v -0.02120695 -0.07202703 -16.73943520 0.25098039 0.27450980 0.65882353
v -0.01707318 -0.08158843 -16.73646927 0.25098039 0.27450980 0.65882353
v -0.01739627 -0.06555173 -16.74053383 0.25098039 0.27450980 0.65882353
v -0.01145878 -0.07080540 -16.74388313 0.25098039 0.27450980 0.65882353
v -0.06559561 -0.00634884 -16.76664162 0.25098039 0.27450980 0.65882353
v -0.03954454 -0.05011777 -16.74245262 0.25098039 0.27450980 0.65882353
v -0.07910634 0.00020624 -16.77337074 0.25098039 0.27450980 0.65882353
v -0.06522594 -0.02160466 -16.77576637 0.25098039 0.27450980 0.65882353
v -0.07613601 -0.01818079 -16.78051949 0.25098039 0.27450980 0.65882353
v -0.09427248 0.00569507 -16.78136444 0.25098039 0.27450980 0.65882353
v -0.08903357 -0.01086439 -16.78538895 0.25098039 0.27450980 0.65882353
v -0.10463606 0.02205866 -16.77647400 0.25098039 0.27450980 0.65882353
v -0.09856762 0.01481984 -16.77807808 0.25098039 0.27450980 0.65882353
v -0.08700739 -0.02820253 -16.78504181 0.25098039 0.27450980 0.65882353
v -0.02433701 -0.08475021 -16.74909592 0.25098039 0.27450980 0.65882353
v -0.02522393 -0.08325715 -16.74337387 0.25098039 0.27450980 0.65882353
v -0.10033638 0.02938081 -16.76736832 0.25098039 0.27450980 0.65882353
v -0.09901007 -0.04385091 -16.75151634 0.25098039 0.27450980 0.65882353
v -0.10048554 -0.02325192 -16.73071289 0.25098039 0.27450980 0.65882353
v -0.09763855 -0.02295141 -16.73569107 0.25098039 0.27450980 0.65882353
v -0.10937579 -0.01887093 -16.71302605 0.25098039 0.27450980 0.65882353
v -0.10510337 -0.02340012 -16.72419167 0.25098039 0.27450980 0.65882353
v -0.02078949 -0.08538294 -16.75327110 0.25098039 0.27450980 0.65882353
v -0.03653196 -0.04538077 -16.72166061 0.25098039 0.27450980 0.65882353
v -0.03722745 -0.04308527 -16.72157669 0.25098039 0.27450980 0.65882353
v -0.10652585 -0.05103928 -16.76549530 0.25098039 0.27450980 0.65882353
v -0.10382779 -0.05739712 -16.76361465 0.25098039 0.27450980 0.65882353
v -0.09592205 -0.05814711 -16.77545166 0.25098039 0.27450980 0.65882353
v -0.10197172 -0.05823925 -16.77070999 0.25098039 0.27450980 0.65882353
v -0.10370983 -0.05052885 -16.77416611 0.25098039 0.27450980 0.65882353
v -0.09705621 -0.04916791 -16.77944946 0.25098039 0.27450980 0.65882353
v -0.10839076 -0.02071671 -16.73903084 0.25098039 0.27450980 0.65882353
v -0.10968262 -0.02103983 -16.73497581 0.25098039 0.27450980 0.65882353
v -0.09828135 0.00193040 -16.70704079 0.25098039 0.27450980 0.65882353
v -0.10451565 -0.00796295 -16.70560074 0.25098039 0.27450980 0.65882353
v -0.03348170 -0.04483146 -16.76816177 0.25098039 0.27450980 0.65882353
v -0.03289869 -0.03378413 -16.76689911 0.25098039 0.27450980 0.65882353
v -0.02825645 -0.04066158 -16.76515579 0.25098039 0.27450980 0.65882353
v -0.02170816 -0.04401648 -16.75776863 0.25098039 0.27450980 0.65882353
v -0.03371868 -0.04777280 -16.74284935 0.25098039 0.27450980 0.65882353
v -0.03145909 -0.04449192 -16.74587440 0.25098039 0.27450980 0.65882353
v -0.11578161 -0.01808551 -16.75297928 0.25098039 0.27450980 0.65882353
v -0.10384051 -0.02013137 -16.74814224 0.25098039 0.27450980 0.65882353
v -0.08642736 -0.04962083 -16.75421715 0.25098039 0.27450980 0.65882353
v -0.08436236 -0.05558549 -16.75473404 0.25098039 0.27450980 0.65882353
v -0.05709718 -0.04180891 -16.73555565 0.25098039 0.27450980 0.65882353
v -0.02951813 -0.03199408 -16.72501183 0.25098039 0.27450980 0.65882353
v -0.02732863 -0.02956601 -16.73409271 0.25098039 0.27450980 0.65882353
v -0.04905704 -0.04620893 -16.73448753 0.25098039 0.27450980 0.65882353
v -0.01214778 -0.08476973 -16.75224304 0.25098039 0.27450980 0.65882353
v -0.01691744 -0.08544347 -16.75399780 0.25098039 0.27450980 0.65882353
v -0.02631995 -0.03624406 -16.75948906 0.25098039 0.27450980 0.65882353
v -0.06593503 -0.03970207 -16.71508026 0.25098039 0.27450980 0.65882353
v -0.03491795 -0.02859222 -16.71961594 0.25098039 0.27450980 0.65882353
v -0.03123485 -0.03833622 -16.72070694 0.25098039 0.27450980 0.65882353
v -0.07378453 -0.02933827 -16.69020462 0.25098039 0.27450980 0.65882353
v -0.09945495 0.03449238 -16.75481224 0.25098039 0.27450980 0.65882353
v -0.02576181 -0.07420492 -16.74218750 0.25098039 0.27450980 0.65882353
v -0.02345553 -0.08171767 -16.73872948 0.25098039 0.27450980 0.65882353
v -0.01005346 -0.08115794 -16.74132538 0.25098039 0.27450980 0.65882353
v -0.00913236 -0.08202942 -16.74742317 0.25098039 0.27450980 0.65882353
v -0.11231856 -0.00401698 -16.71158600 0.25098039 0.27450980 0.65882353
v -0.09551178 -0.02288701 -16.73857689 0.25098039 0.27450980 0.65882353
v -0.08727338 -0.04215895 -16.78189468 0.25098039 0.27450980 0.65882353
v -0.08814654 -0.05583172 -16.77670288 0.25098039 0.27450980 0.65882353
v -0.04378535 -0.04835655 -16.73342323 0.25098039 0.27450980 0.65882353
v -0.05417936 -0.02480428 -16.69937134 0.25098039 0.27450980 0.65882353
v -0.04211198 -0.02308378 -16.71070099 0.25098039 0.27450980 0.65882353
v -0.03633232 -0.02920451 -16.70744324 0.25098039 0.27450980 0.65882353
v -0.03178331 -0.03244865 -16.71360016 0.25098039 0.27450980 0.65882353
v -0.03147730 -0.03869274 -16.71855354 0.25098039 0.27450980 0.65882353
v -0.01037830 -0.08614911 -16.73966980 0.25098039 0.27450980 0.65882353
v -0.00938028 -0.08700536 -16.74575424 0.25098039 0.27450980 0.65882353
v -0.01231681 -0.08955818 -16.75071907 0.25098039 0.27450980 0.65882353
v -0.01662278 -0.08979362 -16.75261307 0.25098039 0.27450980 0.65882353
v -0.02076326 -0.08843009 -16.75161743 0.25098039 0.27450980 0.65882353
v -0.01346946 -0.08653699 -16.73636246 0.25098039 0.27450980 0.65882353
v -0.01739411 -0.08660163 -16.73552513 0.25098039 0.27450980 0.65882353
v -0.02292037 -0.08483852 -16.73785210 0.25098039 0.27450980 0.65882353
v -0.01541719 -0.09083994 -16.73521614 0.25098039 0.27450980 0.65882353
v -0.01219749 -0.09410185 -16.73790741 0.25098039 0.27450980 0.65882353
v -0.01729643 -0.10225412 -16.74783325 0.25098039 0.27450980 0.65882353
v -0.01393931 -0.09751904 -16.74812889 0.25098039 0.27450980 0.65882353
v -0.01366788 -0.09922345 -16.74621964 0.25098039 0.27450980 0.65882353
v -0.01584233 -0.10352975 -16.74521828 0.25098039 0.27450980 0.65882353
v -0.01715720 -0.10792661 -16.74307251 0.25098039 0.27450980 0.65882353
v -0.01908533 -0.10700640 -16.74585533 0.25098039 0.27450980 0.65882353
v -0.01193783 -0.09627901 -16.74310112 0.25098039 0.27450980 0.65882353
v -0.01434122 -0.10201851 -16.74112320 0.25098039 0.27450980 0.65882353
v -0.01488893 -0.10061698 -16.73713875 0.25098039 0.27450980 0.65882353
v -0.01615831 -0.10576744 -16.73573685 0.25098039 0.27450980 0.65882353
v -0.01570252 -0.10721263 -16.73925209 0.25098039 0.27450980 0.65882353
v -0.01291738 -0.09688015 -16.73879623 0.25098039 0.27450980 0.65882353
v -0.01080316 -0.09431097 -16.74361420 0.25098039 0.27450980 0.65882353
v -0.01983196 -0.11001737 -16.74260902 0.25098039 0.27450980 0.65882353
v -0.01766552 -0.11018869 -16.74140358 0.25098039 0.27450980 0.65882353
v -0.01703082 -0.10982321 -16.73818398 0.25098039 0.27450980 0.65882353
v -0.01963377 -0.11108093 -16.73775482 0.25098039 0.27450980 0.65882353
v -0.01768263 -0.09415744 -16.75122070 0.25098039 0.27450980 0.65882353
v -0.01974833 -0.10170980 -16.74868584 0.25098039 0.27450980 0.65882353
v -0.02207564 -0.10598019 -16.74545479 0.25098039 0.27450980 0.65882353
v -0.02247459 -0.10900481 -16.74220467 0.25098039 0.27450980 0.65882353
v -0.02332878 -0.10112356 -16.74666786 0.25098039 0.27450980 0.65882353
v -0.02428871 -0.10460810 -16.74394608 0.25098039 0.27450980 0.65882353
v -0.02469072 -0.10695003 -16.74086571 0.25098039 0.27450980 0.65882353
v -0.02609876 -0.09998402 -16.74343872 0.25098039 0.27450980 0.65882353
v -0.02600375 -0.10342494 -16.74145508 0.25098039 0.27450980 0.65882353
v -0.02393986 -0.08987233 -16.74763680 0.25098039 0.27450980 0.65882353
v -0.02139401 -0.09100361 -16.75100327 0.25098039 0.27450980 0.65882353
v -0.02606641 -0.10546945 -16.74007607 0.25098039 0.27450980 0.65882353
v -0.02158278 -0.11026528 -16.73716354 0.25098039 0.27450980 0.65882353
v -0.01599854 -0.09786913 -16.73488998 0.25098039 0.27450980 0.65882353
v -0.01850660 -0.10425659 -16.73392296 0.25098039 0.27450980 0.65882353
v -0.01795126 -0.09691301 -16.73381805 0.25098039 0.27450980 0.65882353
v -0.02021936 -0.10321093 -16.73261070 0.25098039 0.27450980 0.65882353
v -0.01912887 -0.10855421 -16.73373795 0.25098039 0.27450980 0.65882353
v -0.01732445 -0.10840766 -16.73549271 0.25098039 0.27450980 0.65882353
v -0.02387261 -0.08647296 -16.74782753 0.25098039 0.27450980 0.65882353
v -0.02461070 -0.08499829 -16.74198341 0.25098039 0.27450980 0.65882353
v -0.02490395 -0.08780977 -16.74164772 0.25098039 0.27450980 0.65882353
v -0.02683644 -0.09820455 -16.73899841 0.25098039 0.27450980 0.65882353
v -0.02352443 -0.08788231 -16.73747444 0.25098039 0.27450980 0.65882353
v -0.01915671 -0.09065256 -16.73462677 0.25098039 0.27450980 0.65882353
v -0.02085817 -0.09707461 -16.73339462 0.25098039 0.27450980 0.65882353
v -0.02415267 -0.09713382 -16.73468399 0.25098039 0.27450980 0.65882353
v -0.02249387 -0.10211022 -16.73298454 0.25098039 0.27450980 0.65882353
v -0.02447973 -0.10170224 -16.73460007 0.25098039 0.27450980 0.65882353
v -0.02638270 -0.10240698 -16.73793793 0.25098039 0.27450980 0.65882353
v -0.02344832 -0.10583335 -16.73411179 0.25098039 0.27450980 0.65882353
v -0.02102348 -0.10745162 -16.73352814 0.25098039 0.27450980 0.65882353
v -0.02399963 -0.10788327 -16.73715973 0.25098039 0.27450980 0.65882353
v -0.02465728 -0.10447642 -16.73480034 0.25098039 0.27450980 0.65882353
v -0.02517743 -0.10553677 -16.73757172 0.25098039 0.27450980 0.65882353
v -0.01936531 -0.07319960 -16.72885513 0.25098039 0.27450980 0.65882353
v -0.02148809 -0.07270606 -16.72234344 0.25098039 0.27450980 0.65882353
v -0.02130421 -0.06858453 -16.72394753 0.25098039 0.27450980 0.65882353
v -0.01964606 -0.06941380 -16.72941399 0.25098039 0.27450980 0.65882353
v -0.00530252 -0.06988209 -16.72950745 0.25098039 0.27450980 0.65882353
v -0.01068349 -0.07197852 -16.73201561 0.25098039 0.27450980 0.65882353
v -0.01046070 -0.06723154 -16.73341179 0.25098039 0.27450980 0.65882353
v -0.00566436 -0.06394483 -16.72982025 0.25098039 0.27450980 0.65882353
v -0.00373982 -0.06714085 -16.72295380 0.25098039 0.27450980 0.65882353
v -0.00455895 -0.06109973 -16.72340775 0.25098039 0.27450980 0.65882353
v -0.00730565 -0.05859638 -16.73196220 0.25098039 0.27450980 0.65882353
v -0.01266228 -0.06234255 -16.73520851 0.25098039 0.27450980 0.65882353
v -0.02561723 -0.04674988 -16.74103928 0.25098039 0.27450980 0.65882353
v -0.02029333 -0.04220189 -16.73831940 0.25098039 0.27450980 0.65882353
v -0.03705351 -0.05024597 -16.72481918 0.25098039 0.27450980 0.65882353
v -0.03365220 -0.04838997 -16.72177696 0.25098039 0.27450980 0.65882353
v -0.01593399 -0.07294780 -16.73131943 0.25098039 0.27450980 0.65882353
v -0.01569670 -0.06879288 -16.73243523 0.25098039 0.27450980 0.65882353
v -0.02203920 -0.06222804 -16.71587944 0.25098039 0.27450980 0.65882353
v -0.02497935 -0.06506112 -16.72009468 0.25098039 0.27450980 0.65882353
v -0.02193542 -0.06783642 -16.71890640 0.25098039 0.27450980 0.65882353
v -0.01857284 -0.06564625 -16.71477699 0.25098039 0.27450980 0.65882353
v -0.03457622 -0.05110194 -16.73777962 0.25098039 0.27450980 0.65882353
v -0.03679109 -0.05055862 -16.73117638 0.25098039 0.27450980 0.65882353
v -0.03061566 -0.04979462 -16.74018860 0.25098039 0.27450980 0.65882353
v -0.01631081 -0.05861300 -16.71415138 0.25098039 0.27450980 0.65882353
v -0.01024467 -0.05579310 -16.71651459 0.25098039 0.27450980 0.65882353
v -0.02096577 -0.03953636 -16.72232246 0.25098039 0.27450980 0.65882353
v -0.02607432 -0.04341102 -16.71901131 0.25098039 0.27450980 0.65882353
v -0.01784039 -0.06518036 -16.73475266 0.25098039 0.27450980 0.65882353
v -0.02472229 -0.06693004 -16.72605133 0.25098039 0.27450980 0.65882353
v -0.02257609 -0.06709263 -16.73162651 0.25098039 0.27450980 0.65882353
v -0.00694826 -0.05562915 -16.72470093 0.25098039 0.27450980 0.65882353
v -0.00781222 -0.06191170 -16.71593094 0.25098039 0.27450980 0.65882353
v -0.01038206 -0.08109483 -16.71050072 0.25098039 0.27450980 0.65882353
v -0.01196653 -0.06924967 -16.71217155 0.25098039 0.27450980 0.65882353
v -0.01725069 -0.07059990 -16.71327209 0.25098039 0.27450980 0.65882353
v -0.01567158 -0.08238210 -16.71034050 0.25098039 0.27450980 0.65882353
v -0.01336381 -0.06379318 -16.71334457 0.25098039 0.27450980 0.65882353
v -0.00682433 -0.06784628 -16.71544647 0.25098039 0.27450980 0.65882353
v -0.01976705 -0.08674222 -16.72398186 0.25098039 0.27450980 0.65882353
v -0.02144988 -0.08575289 -16.71753883 0.25098039 0.27450980 0.65882353
v -0.01615244 -0.08709876 -16.72741699 0.25098039 0.27450980 0.65882353
v -0.01873481 -0.03893140 -16.73094940 0.25098039 0.27450980 0.65882353
v -0.00583090 -0.08319214 -16.72674179 0.25098039 0.27450980 0.65882353
v -0.01186900 -0.08590628 -16.72876549 0.25098039 0.27450980 0.65882353
v -0.02128348 -0.07160504 -16.71683502 0.25098039 0.27450980 0.65882353
v -0.01986194 -0.08432585 -16.71272087 0.25098039 0.27450980 0.65882353
v -0.00638944 -0.08046985 -16.71320915 0.25098039 0.27450980 0.65882353
v -0.00352985 -0.07985874 -16.72066689 0.25098039 0.27450980 0.65882353
v -0.00664833 -0.08628316 -16.71262741 0.25098039 0.27450980 0.65882353
v -0.00436014 -0.08678129 -16.71925163 0.25098039 0.27450980 0.65882353
v -0.00683068 -0.08945157 -16.72545815 0.25098039 0.27450980 0.65882353
v -0.01262888 -0.09040226 -16.72735786 0.25098039 0.27450980 0.65882353
v -0.01662250 -0.09010166 -16.72612381 0.25098039 0.27450980 0.65882353
v -0.01054573 -0.08666155 -16.71006203 0.25098039 0.27450980 0.65882353
v -0.01551902 -0.08717547 -16.70983505 0.25098039 0.27450980 0.65882353
v -0.01977870 -0.08697964 -16.71289062 0.25098039 0.27450980 0.65882353
v -0.01363134 -0.09285389 -16.70906639 0.25098039 0.27450980 0.65882353
v -0.00976865 -0.09451494 -16.71123123 0.25098039 0.27450980 0.65882353
v -0.01668406 -0.10792191 -16.72228050 0.25098039 0.27450980 0.65882353
v -0.01370575 -0.10296351 -16.72351074 0.25098039 0.27450980 0.65882353
v -0.01234463 -0.10338989 -16.72114563 0.25098039 0.27450980 0.65882353
v -0.01488918 -0.10804960 -16.72000122 0.25098039 0.27450980 0.65882353
v -0.00942241 -0.09832753 -16.72327805 0.25098039 0.27450980 0.65882353
v -0.00965990 -0.09965792 -16.72105980 0.25098039 0.27450980 0.65882353
v -0.00856683 -0.09760967 -16.71681786 0.25098039 0.27450980 0.65882353
v -0.01183280 -0.10258953 -16.71613121 0.25098039 0.27450980 0.65882353
v -0.01293665 -0.10064562 -16.71163368 0.25098039 0.27450980 0.65882353
v -0.01483135 -0.10576995 -16.71056938 0.25098039 0.27450980 0.65882353
v -0.01378700 -0.10794063 -16.71492767 0.25098039 0.27450980 0.65882353
v -0.01008075 -0.09765799 -16.71302605 0.25098039 0.27450980 0.65882353
v -0.01633888 -0.11082864 -16.71831322 0.25098039 0.27450980 0.65882353
v -0.01874773 -0.11163647 -16.71861649 0.25098039 0.27450980 0.65882353
v -0.00656590 -0.09524600 -16.71747398 0.25098039 0.27450980 0.65882353
v -0.01294783 -0.09451056 -16.72660637 0.25098039 0.27450980 0.65882353
v -0.01669395 -0.10240705 -16.72474861 0.25098039 0.27450980 0.65882353
v -0.02003597 -0.10746342 -16.72235107 0.25098039 0.27450980 0.65882353
v -0.02153538 -0.11107124 -16.71748924 0.25098039 0.27450980 0.65882353
v -0.02086909 -0.10148861 -16.72334671 0.25098039 0.27450980 0.65882353
v -0.02281679 -0.10649510 -16.72080040 0.25098039 0.27450980 0.65882353
v -0.02341868 -0.10928164 -16.71658707 0.25098039 0.27450980 0.65882353
v -0.02448201 -0.10005951 -16.72015572 0.25098039 0.27450980 0.65882353
v -0.02541310 -0.10509406 -16.71760941 0.25098039 0.27450980 0.65882353
v -0.02075702 -0.09065591 -16.72264671 0.25098039 0.27450980 0.65882353
v -0.01754670 -0.09253201 -16.72604179 0.25098039 0.27450980 0.65882353
v -0.02471232 -0.10724682 -16.71615982 0.25098039 0.27450980 0.65882353
v -0.01787373 -0.11237714 -16.71386719 0.25098039 0.27450980 0.65882353
v -0.02115411 -0.11170527 -16.71335030 0.25098039 0.27450980 0.65882353
v -0.01637702 -0.11136129 -16.71430969 0.25098039 0.27450980 0.65882353
v -0.01401930 -0.09973492 -16.70987892 0.25098039 0.27450980 0.65882353
v -0.01675881 -0.10532869 -16.70935440 0.25098039 0.27450980 0.65882353
v -0.01644306 -0.09885709 -16.70845032 0.25098039 0.27450980 0.65882353
v -0.01902944 -0.10522605 -16.70839691 0.25098039 0.27450980 0.65882353
v -0.01807517 -0.10966994 -16.70993614 0.25098039 0.27450980 0.65882353
v -0.01673138 -0.10989988 -16.71089745 0.25098039 0.27450980 0.65882353
v -0.01955166 -0.08886868 -16.72275925 0.25098039 0.27450980 0.65882353
v -0.02093716 -0.08752884 -16.71715164 0.25098039 0.27450980 0.65882353
v -0.02207112 -0.08887282 -16.71713257 0.25098039 0.27450980 0.65882353
v -0.02518952 -0.09852920 -16.71489334 0.25098039 0.27450980 0.65882353
v -0.02060488 -0.08855419 -16.71238708 0.25098039 0.27450980 0.65882353
v -0.01709640 -0.09131968 -16.70922470 0.25098039 0.27450980 0.65882353
v -0.01927131 -0.09785098 -16.70835876 0.25098039 0.27450980 0.65882353
v -0.02301085 -0.09791583 -16.71042061 0.25098039 0.27450980 0.65882353
v -0.02103439 -0.10437267 -16.70772934 0.25098039 0.27450980 0.65882353
v -0.02326591 -0.10256374 -16.70947075 0.25098039 0.27450980 0.65882353
v -0.02572939 -0.10347745 -16.71373558 0.25098039 0.27450980 0.65882353
v -0.02198344 -0.10864778 -16.70906639 0.25098039 0.27450980 0.65882353
v -0.01976572 -0.10959159 -16.70937729 0.25098039 0.27450980 0.65882353
v -0.02282633 -0.11021727 -16.71321869 0.25098039 0.27450980 0.65882353
v -0.02369079 -0.10637520 -16.70993996 0.25098039 0.27450980 0.65882353
v -0.02461039 -0.10748316 -16.71338272 0.25098039 0.27450980 0.65882353
v -0.02637295 -0.06456773 -16.71008873 0.25098039 0.27450980 0.65882353
v -0.03128241 -0.06510611 -16.70619774 0.25098039 0.27450980 0.65882353
v -0.03238167 -0.06216614 -16.70711327 0.25098039 0.27450980 0.65882353
v -0.02762096 -0.06157721 -16.71103287 0.25098039 0.27450980 0.65882353
v -0.01672068 -0.05888483 -16.70326233 0.25098039 0.27450980 0.65882353
v -0.01787852 -0.06146665 -16.70742607 0.25098039 0.27450980 0.65882353
v -0.01915936 -0.05738708 -16.70878983 0.25098039 0.27450980 0.65882353
v -0.01808906 -0.05349002 -16.70503616 0.25098039 0.27450980 0.65882353
v -0.01842089 -0.05913482 -16.69764519 0.25098039 0.27450980 0.65882353
v -0.02024588 -0.05182283 -16.69926453 0.25098039 0.27450980 0.65882353
v -0.01949093 -0.04792334 -16.70696068 0.25098039 0.27450980 0.65882353
v -0.02071944 -0.05325119 -16.71056366 0.25098039 0.27450980 0.65882353
v -0.02947921 -0.04174743 -16.71657944 0.25098039 0.27450980 0.65882353
v -0.02738571 -0.03681855 -16.71151352 0.25098039 0.27450980 0.65882353
v -0.02176011 -0.06316391 -16.70968628 0.25098039 0.27450980 0.65882353
v -0.02296197 -0.06002381 -16.71093750 0.25098039 0.27450980 0.65882353
v -0.03738670 -0.05812376 -16.69869041 0.25098039 0.27450980 0.65882353
v -0.03739400 -0.06008864 -16.70352173 0.25098039 0.27450980 0.65882353
v -0.03489499 -0.06184559 -16.70176506 0.25098039 0.27450980 0.65882353
v -0.03469661 -0.06029487 -16.69761848 0.25098039 0.27450980 0.65882353
v -0.04010695 -0.04761256 -16.71848106 0.25098039 0.27450980 0.65882353
v -0.04472889 -0.04644042 -16.71344757 0.25098039 0.27450980 0.65882353
v -0.03432320 -0.04620646 -16.71882248 0.25098039 0.27450980 0.65882353
v -0.03356443 -0.05366367 -16.69475174 0.25098039 0.27450980 0.65882353
v -0.02779654 -0.04805987 -16.69518852 0.25098039 0.27450980 0.65882353
v -0.03720045 -0.03742100 -16.69908905 0.25098039 0.27450980 0.65882353
v -0.04267831 -0.04139683 -16.70021629 0.25098039 0.27450980 0.65882353
v -0.02427778 -0.05703206 -16.71262932 0.25098039 0.27450980 0.65882353
v -0.03476731 -0.06047847 -16.70914650 0.25098039 0.27450980 0.65882353
v -0.02952231 -0.05986964 -16.71295357 0.25098039 0.27450980 0.65882353
v -0.02235630 -0.04618558 -16.70119858 0.25098039 0.27450980 0.65882353
v -0.02554250 -0.05404838 -16.69438744 0.25098039 0.27450980 0.65882353
v -0.02440393 -0.07552125 -16.68904114 0.25098039 0.27450980 0.65882353
v -0.02941583 -0.06075722 -16.69255257 0.25098039 0.27450980 0.65882353
v -0.03352469 -0.06331083 -16.69657135 0.25098039 0.27450980 0.65882353
v -0.02834149 -0.07678616 -16.69116974 0.25098039 0.27450980 0.65882353
v -0.03129639 -0.05756501 -16.69369888 0.25098039 0.27450980 0.65882353
v -0.02359430 -0.05893939 -16.69307709 0.25098039 0.27450980 0.65882353
v -0.02425514 -0.07888931 -16.70581436 0.25098039 0.27450980 0.65882353
v -0.02861869 -0.07850838 -16.70157051 0.25098039 0.27450980 0.65882353
v -0.01996455 -0.07715456 -16.70626831 0.25098039 0.27450980 0.65882353
v -0.03017439 -0.03456602 -16.70431900 0.25098039 0.27450980 0.65882353
v -0.04660067 -0.04495952 -16.70541382 0.25098039 0.27450980 0.65882353
v -0.01397020 -0.07536700 -16.70128250 0.25098039 0.27450980 0.65882353
v -0.01665071 -0.07642555 -16.70493126 0.25098039 0.27450980 0.65882353
v -0.03380486 -0.06450567 -16.70102119 0.25098039 0.27450980 0.65882353
v -0.03033106 -0.07785678 -16.69560242 0.25098039 0.27450980 0.65882353
v -0.01959565 -0.07375342 -16.69008636 0.25098039 0.27450980 0.65882353
v -0.01491474 -0.07293004 -16.69531441 0.25098039 0.27450980 0.65882353
v -0.02020156 -0.07991330 -16.68938065 0.25098039 0.27450980 0.65882353
v -0.01549396 -0.07986471 -16.69421959 0.25098039 0.27450980 0.65882353
v -0.01460767 -0.08184016 -16.70010185 0.25098039 0.27450980 0.65882353
v -0.01737989 -0.08178850 -16.70403862 0.25098039 0.27450980 0.65882353
v -0.02057491 -0.08166860 -16.70551300 0.25098039 0.27450980 0.65882353
v -0.02541961 -0.08051917 -16.68900871 0.25098039 0.27450980 0.65882353
v -0.02872083 -0.08046822 -16.69148064 0.25098039 0.27450980 0.65882353
v -0.02964960 -0.07897165 -16.69587135 0.25098039 0.27450980 0.65882353
v -0.02778989 -0.08395407 -16.68962479 0.25098039 0.27450980 0.65882353
v -0.02259015 -0.08663845 -16.68984604 0.25098039 0.27450980 0.65882353
v -0.02429634 -0.09883317 -16.70159149 0.25098039 0.27450980 0.65882353
v -0.02147271 -0.09383041 -16.70133400 0.25098039 0.27450980 0.65882353
v -0.02152468 -0.09392659 -16.70001602 0.25098039 0.27450980 0.65882353
v -0.02392656 -0.09916525 -16.69996071 0.25098039 0.27450980 0.65882353
v -0.01744996 -0.08882575 -16.69916916 0.25098039 0.27450980 0.65882353
v -0.01856197 -0.09020050 -16.69813538 0.25098039 0.27450980 0.65882353
v -0.01924981 -0.08901571 -16.69428825 0.25098039 0.27450980 0.65882353
v -0.02263239 -0.09439920 -16.69483376 0.25098039 0.27450980 0.65882353
v -0.02710350 -0.09174216 -16.69129944 0.25098039 0.27450980 0.65882353
v -0.02895470 -0.09626515 -16.69267845 0.25098039 0.27450980 0.65882353
v -0.02500013 -0.09917711 -16.69543457 0.25098039 0.27450980 0.65882353
v -0.02278833 -0.08833575 -16.69107819 0.25098039 0.27450980 0.65882353
v -0.02569683 -0.10164504 -16.69921684 0.25098039 0.27450980 0.65882353
v -0.02563816 -0.10272606 -16.70084763 0.25098039 0.27450980 0.65882353
v -0.01768589 -0.08705412 -16.69386864 0.25098039 0.27450980 0.65882353
v -0.01836738 -0.08707957 -16.70397758 0.25098039 0.27450980 0.65882353
v -0.02236035 -0.09340289 -16.70425415 0.25098039 0.27450980 0.65882353
v -0.02533869 -0.09841436 -16.70473671 0.25098039 0.27450980 0.65882353
v -0.02822062 -0.10129158 -16.70305252 0.25098039 0.27450980 0.65882353
v -0.02572818 -0.09198341 -16.70566940 0.25098039 0.27450980 0.65882353
v -0.02793883 -0.09666219 -16.70528984 0.25098039 0.27450980 0.65882353
v -0.03040740 -0.09946042 -16.70377922 0.25098039 0.27450980 0.65882353
v -0.02900779 -0.09068672 -16.70523834 0.25098039 0.27450980 0.65882353
v -0.03074595 -0.09488818 -16.70450592 0.25098039 0.27450980 0.65882353
v -0.02494241 -0.08264963 -16.70505142 0.25098039 0.27450980 0.65882353
v -0.02141283 -0.08478791 -16.70559883 0.25098039 0.27450980 0.65882353
v -0.03171253 -0.09752542 -16.70337296 0.25098039 0.27450980 0.65882353
v -0.02819240 -0.10307534 -16.69673347 0.25098039 0.27450980 0.65882353
v -0.03180948 -0.10187216 -16.69862175 0.25098039 0.27450980 0.65882353
v -0.02724051 -0.10163623 -16.69649315 0.25098039 0.27450980 0.65882353
v -0.02844536 -0.09050041 -16.69043159 0.25098039 0.27450980 0.65882353
v -0.03120005 -0.09623855 -16.69173431 0.25098039 0.27450980 0.65882353
v -0.03114969 -0.08916415 -16.69099426 0.25098039 0.27450980 0.65882353
v -0.03353457 -0.09495394 -16.69230652 0.25098039 0.27450980 0.65882353
v -0.03094436 -0.10014616 -16.69334793 0.25098039 0.27450980 0.65882353
v -0.02986349 -0.09984978 -16.69366074 0.25098039 0.27450980 0.65882353
v -0.02438939 -0.08069862 -16.70447540 0.25098039 0.27450980 0.65882353
v -0.02822445 -0.07959516 -16.70081520 0.25098039 0.27450980 0.65882353
v -0.02866690 -0.08085819 -16.70183563 0.25098039 0.27450980 0.65882353
v -0.03306580 -0.08922979 -16.70247459 0.25098039 0.27450980 0.65882353
v -0.03054261 -0.08009358 -16.69711494 0.25098039 0.27450980 0.65882353
v -0.03074048 -0.08351840 -16.69237900 0.25098039 0.27450980 0.65882353
v -0.03331463 -0.08847399 -16.69374847 0.25098039 0.27450980 0.65882353
v -0.03440979 -0.08875643 -16.69774246 0.25098039 0.27450980 0.65882353
v -0.03509283 -0.09376995 -16.69448280 0.25098039 0.27450980 0.65882353
v -0.03498958 -0.09263335 -16.69718933 0.25098039 0.27450980 0.65882353
v -0.03417756 -0.09351975 -16.70220375 0.25098039 0.27450980 0.65882353
v -0.03444579 -0.09745871 -16.69635773 0.25098039 0.27450980 0.65882353
v -0.03325711 -0.09917876 -16.69432259 0.25098039 0.27450980 0.65882353
v -0.03332260 -0.09966315 -16.70027733 0.25098039 0.27450980 0.65882353
v -0.03500280 -0.09591010 -16.69822502 0.25098039 0.27450980 0.65882353
v -0.03404775 -0.09748270 -16.70126534 0.25098039 0.27450980 0.65882353
v -0.04693097 -0.04581321 -16.70919609 0.25098039 0.27450980 0.65882353
v -0.04978700 -0.05983540 -16.69473457 0.25098039 0.27450980 0.65882353
v -0.05322428 -0.06070544 -16.69221115 0.25098039 0.27450980 0.65882353
v -0.05516040 -0.05748126 -16.69207001 0.25098039 0.27450980 0.65882353
v -0.05266437 -0.05637939 -16.69552612 0.25098039 0.27450980 0.65882353
v -0.04251526 -0.05335812 -16.68904877 0.25098039 0.27450980 0.65882353
v -0.04349399 -0.05581911 -16.69277763 0.25098039 0.27450980 0.65882353
v -0.04573467 -0.05172375 -16.69417763 0.25098039 0.27450980 0.65882353
v -0.04463781 -0.04939361 -16.69064903 0.25098039 0.27450980 0.65882353
v -0.04420841 -0.05298666 -16.68438339 0.25098039 0.27450980 0.65882353
v -0.04636997 -0.04907054 -16.68573761 0.25098039 0.27450980 0.65882353
v -0.04549804 -0.04565807 -16.69161987 0.25098039 0.27450980 0.65882353
v -0.04711778 -0.04815354 -16.69549942 0.25098039 0.27450980 0.65882353
v -0.05227281 -0.03572579 -16.70080185 0.25098039 0.27450980 0.65882353
v -0.05161984 -0.03133437 -16.69659996 0.25098039 0.27450980 0.65882353
v -0.07023834 -0.03463157 -16.68942642 0.25098039 0.27450980 0.65882353
v -0.07205553 -0.03717254 -16.69426537 0.25098039 0.27450980 0.65882353
v -0.06709440 -0.04332827 -16.69154739 0.25098039 0.27450980 0.65882353
v -0.06684306 -0.04036245 -16.68725395 0.25098039 0.27450980 0.65882353
v -0.04627550 -0.05805653 -16.69468880 0.25098039 0.27450980 0.65882353
v -0.04895186 -0.05462327 -16.69648933 0.25098039 0.27450980 0.65882353
v -0.05981627 -0.05205264 -16.68362045 0.25098039 0.27450980 0.65882353
v -0.05983113 -0.05422792 -16.68801308 0.25098039 0.27450980 0.65882353
v -0.05764644 -0.05735113 -16.68834114 0.25098039 0.27450980 0.65882353
v -0.05806047 -0.05626272 -16.68357658 0.25098039 0.27450980 0.65882353
v -0.06895362 -0.03982906 -16.69852448 0.25098039 0.27450980 0.65882353
v -0.06480959 -0.04090581 -16.70139694 0.25098039 0.27450980 0.65882353
v -0.06253189 -0.04379071 -16.70048904 0.25098039 0.27450980 0.65882353
v -0.06455842 -0.04507333 -16.69605064 0.25098039 0.27450980 0.65882353
v -0.05720563 -0.04213103 -16.70241165 0.25098039 0.27450980 0.65882353
v -0.05730033 -0.04959900 -16.68128967 0.25098039 0.27450980 0.65882353
v -0.05227672 -0.04658618 -16.68166733 0.25098039 0.27450980 0.65882353
v -0.06026861 -0.03206633 -16.68431091 0.25098039 0.27450980 0.65882353
v -0.06465833 -0.03560700 -16.68485451 0.25098039 0.27450980 0.65882353
v -0.04968955 -0.05167570 -16.69728661 0.25098039 0.27450980 0.65882353
v -0.05754264 -0.05492008 -16.69242668 0.25098039 0.27450980 0.65882353
v -0.05425102 -0.05434783 -16.69575882 0.25098039 0.27450980 0.65882353
v -0.04702269 -0.04494109 -16.68593597 0.25098039 0.27450980 0.65882353
v -0.05082536 -0.05088418 -16.68156815 0.25098039 0.27450980 0.65882353
v -0.05027869 -0.06562535 -16.67845726 0.25098039 0.27450980 0.65882353
v -0.05427390 -0.05721922 -16.68014526 0.25098039 0.27450980 0.65882353
v -0.05659816 -0.05993037 -16.68363380 0.25098039 0.27450980 0.65882353
v -0.05187386 -0.06701924 -16.68075371 0.25098039 0.27450980 0.65882353
v -0.05557956 -0.05359578 -16.68092918 0.25098039 0.27450980 0.65882353
v -0.04887389 -0.05475735 -16.68021393 0.25098039 0.27450980 0.65882353
v -0.04582880 -0.06750062 -16.69229126 0.25098039 0.27450980 0.65882353
v -0.05014353 -0.06797031 -16.68871880 0.25098039 0.27450980 0.65882353
v -0.04275507 -0.06612024 -16.69233894 0.25098039 0.27450980 0.65882353
v -0.05406803 -0.02961966 -16.68991089 0.25098039 0.27450980 0.65882353
v -0.03878380 -0.06257553 -16.68661118 0.25098039 0.27450980 0.65882353
v -0.03986777 -0.06475672 -16.69048691 0.25098039 0.27450980 0.65882353
v -0.05553366 -0.06085261 -16.68837929 0.25098039 0.27450980 0.65882353
v -0.05200580 -0.06776005 -16.68448257 0.25098039 0.27450980 0.65882353
v -0.04634164 -0.06349984 -16.67791557 0.25098039 0.27450980 0.65882353
v -0.04097153 -0.06139786 -16.68116760 0.25098039 0.27450980 0.65882353
v -0.04494038 -0.06845979 -16.67787170 0.25098039 0.27450980 0.65882353
v -0.03964485 -0.06598283 -16.68103790 0.25098039 0.27450980 0.65882353
v -0.03797318 -0.06727189 -16.68691444 0.25098039 0.27450980 0.65882353
v -0.03981818 -0.06778017 -16.69031143 0.25098039 0.27450980 0.65882353
v -0.04238458 -0.06872663 -16.69208908 0.25098039 0.27450980 0.65882353
v -0.04927021 -0.06995659 -16.67848206 0.25098039 0.27450980 0.65882353
v -0.05127847 -0.07065134 -16.68089104 0.25098039 0.27450980 0.65882353
v -0.05175287 -0.07037632 -16.68466759 0.25098039 0.27450980 0.65882353
v -0.04851322 -0.07418275 -16.67883873 0.25098039 0.27450980 0.65882353
v -0.04366145 -0.07452179 -16.67881393 0.25098039 0.27450980 0.65882353
v -0.04034479 -0.08235803 -16.68920517 0.25098039 0.27450980 0.65882353
v -0.03979723 -0.07827964 -16.68906593 0.25098039 0.27450980 0.65882353
v -0.03950861 -0.07836682 -16.68786430 0.25098039 0.27450980 0.65882353
v -0.03951037 -0.08247089 -16.68845940 0.25098039 0.27450980 0.65882353
v -0.03856349 -0.07326573 -16.68717766 0.25098039 0.27450980 0.65882353
v -0.03883669 -0.07457384 -16.68610001 0.25098039 0.27450980 0.65882353
v -0.03982660 -0.07352673 -16.68274307 0.25098039 0.27450980 0.65882353
v -0.03978713 -0.07881191 -16.68359566 0.25098039 0.27450980 0.65882353
v -0.04388492 -0.08001243 -16.68007088 0.25098039 0.27450980 0.65882353
v -0.04354051 -0.08401433 -16.68116188 0.25098039 0.27450980 0.65882353
v -0.03980075 -0.08263974 -16.68402863 0.25098039 0.27450980 0.65882353
v -0.04228246 -0.07567348 -16.67980194 0.25098039 0.27450980 0.65882353
v -0.03944160 -0.08512051 -16.68766975 0.25098039 0.27450980 0.65882353
v -0.03969456 -0.08605407 -16.68847084 0.25098039 0.27450980 0.65882353
v -0.03937364 -0.07171658 -16.68216896 0.25098039 0.27450980 0.65882353
v -0.04022327 -0.07203828 -16.69086266 0.25098039 0.27450980 0.65882353
v -0.04093277 -0.07884637 -16.69127274 0.25098039 0.27450980 0.65882353
v -0.04125574 -0.08378436 -16.69076347 0.25098039 0.27450980 0.65882353
v -0.04169524 -0.08697927 -16.68902206 0.25098039 0.27450980 0.65882353
v -0.04317635 -0.07822140 -16.69249725 0.25098039 0.27450980 0.65882353
v -0.04332875 -0.08395189 -16.69186592 0.25098039 0.27450980 0.65882353
v -0.04384948 -0.08699156 -16.68993187 0.25098039 0.27450980 0.65882353
v -0.04660995 -0.07803100 -16.69251060 0.25098039 0.27450980 0.65882353
v -0.04583314 -0.08344410 -16.69151688 0.25098039 0.27450980 0.65882353
v -0.04695372 -0.07169177 -16.69224930 0.25098039 0.27450980 0.65882353
v -0.04326235 -0.07183178 -16.69244194 0.25098039 0.27450980 0.65882353
v -0.04527326 -0.08597413 -16.68993378 0.25098039 0.27450980 0.65882353
v -0.04060502 -0.08745591 -16.68501091 0.25098039 0.27450980 0.65882353
v -0.04311933 -0.08814918 -16.68634415 0.25098039 0.27450980 0.65882353
v -0.04003988 -0.08636028 -16.68436050 0.25098039 0.27450980 0.65882353
v -0.04529060 -0.07998520 -16.67950821 0.25098039 0.27450980 0.65882353
v -0.04491156 -0.08475524 -16.68091202 0.25098039 0.27450980 0.65882353
v -0.04789928 -0.07997681 -16.67989540 0.25098039 0.27450980 0.65882353
v -0.04685615 -0.08514199 -16.68190575 0.25098039 0.27450980 0.65882353
v -0.04327284 -0.08735391 -16.68257904 0.25098039 0.27450980 0.65882353
v -0.04212883 -0.08605498 -16.68248749 0.25098039 0.27450980 0.65882353
v -0.04647839 -0.06993732 -16.69207191 0.25098039 0.27450980 0.65882353
v -0.04976915 -0.07004845 -16.68894386 0.25098039 0.27450980 0.65882353
v -0.05021209 -0.07206802 -16.68898582 0.25098039 0.27450980 0.65882353
v -0.04988393 -0.07826714 -16.68985176 0.25098039 0.27450980 0.65882353
v -0.05188651 -0.07261594 -16.68470192 0.25098039 0.27450980 0.65882353
v -0.05088590 -0.07352337 -16.68095970 0.25098039 0.27450980 0.65882353
v -0.04992196 -0.07982209 -16.68199921 0.25098039 0.27450980 0.65882353
v -0.05109033 -0.07936734 -16.68541718 0.25098039 0.27450980 0.65882353
v -0.04823333 -0.08526646 -16.68366814 0.25098039 0.27450980 0.65882353
v -0.04931894 -0.08430815 -16.68641663 0.25098039 0.27450980 0.65882353
v -0.04854999 -0.08356601 -16.68956947 0.25098039 0.27450980 0.65882353
v -0.04613489 -0.08751127 -16.68557549 0.25098039 0.27450980 0.65882353
v -0.04495820 -0.08795165 -16.68415260 0.25098039 0.27450980 0.65882353
v -0.04489253 -0.08775263 -16.68741226 0.25098039 0.27450980 0.65882353
v -0.04718265 -0.08666852 -16.68699074 0.25098039 0.27450980 0.65882353
v -0.04648452 -0.08643144 -16.68844414 0.25098039 0.27450980 0.65882353
v -0.06696889 -0.03290702 -16.68727875 0.25098039 0.27450980 0.65882353
v -0.08178786 -0.06799616 -16.76970673 0.25098039 0.27450980 0.65882353
v -0.07922819 -0.06707765 -16.76423836 0.25098039 0.27450980 0.65882353
v -0.09272648 -0.07034758 -16.75224304 0.25098039 0.27450980 0.65882353
v -0.08476369 -0.06947443 -16.75287628 0.25098039 0.27450980 0.65882353
v -0.09891062 -0.07151251 -16.75585747 0.25098039 0.27450980 0.65882353
v -0.09958720 -0.07113373 -16.76780128 0.25098039 0.27450980 0.65882353
v -0.10124081 -0.07089433 -16.76160431 0.25098039 0.27450980 0.65882353
v -0.07990121 -0.06819640 -16.75732231 0.25098039 0.27450980 0.65882353
v -0.08699607 -0.06902260 -16.77347374 0.25098039 0.27450980 0.65882353
v -0.09453054 -0.07021464 -16.77308273 0.25098039 0.27450980 0.65882353
v -0.08419954 -0.07594211 -16.77249527 0.25098039 0.27450980 0.65882353
v -0.09202735 -0.07774435 -16.77201080 0.25098039 0.27450980 0.65882353
v -0.09733537 -0.07955869 -16.76716423 0.25098039 0.27450980 0.65882353
v -0.09911083 -0.07863164 -16.76030159 0.25098039 0.27450980 0.65882353
v -0.09776561 -0.07789622 -16.75536346 0.25098039 0.27450980 0.65882353
v -0.07934176 -0.07401153 -16.76779747 0.25098039 0.27450980 0.65882353
v -0.07731250 -0.07306954 -16.76204491 0.25098039 0.27450980 0.65882353
v -0.07957456 -0.07282725 -16.75524902 0.25098039 0.27450980 0.65882353
v -0.07678905 -0.08080019 -16.76413918 0.25098039 0.27450980 0.65882353
v -0.07908208 -0.09085871 -16.76497078 0.25098039 0.27450980 0.65882353
v -0.08957314 -0.10472374 -16.75813866 0.25098039 0.27450980 0.65882353
v -0.09201869 -0.09863968 -16.75862885 0.25098039 0.27450980 0.65882353
v -0.09001365 -0.09922917 -16.76086044 0.25098039 0.27450980 0.65882353
v -0.08841648 -0.10490663 -16.76071167 0.25098039 0.27450980 0.65882353
v -0.09220633 -0.09421733 -16.76167297 0.25098039 0.27450980 0.65882353
v -0.09006089 -0.09556113 -16.76216507 0.25098039 0.27450980 0.65882353
v -0.08569891 -0.09369628 -16.76453590 0.25098039 0.27450980 0.65882353
v -0.08449178 -0.09866188 -16.76445580 0.25098039 0.27450980 0.65882353
v -0.08049530 -0.09331611 -16.76449203 0.25098039 0.27450980 0.65882353
v -0.07863566 -0.09625039 -16.76357079 0.25098039 0.27450980 0.65882353
v -0.08293670 -0.10355359 -16.76412964 0.25098039 0.27450980 0.65882353
v -0.08608139 -0.10781312 -16.76188469 0.25098039 0.27450980 0.65882353
v -0.08154058 -0.10781325 -16.76334381 0.25098039 0.27450980 0.65882353
v -0.08591978 -0.10852739 -16.75866127 0.25098039 0.27450980 0.65882353
v -0.08620180 -0.09287459 -16.76622963 0.25098039 0.27450980 0.65882353
v -0.09627356 -0.08860578 -16.75869370 0.25098039 0.27450980 0.65882353
v -0.09331733 -0.09644322 -16.75555229 0.25098039 0.27450980 0.65882353
v -0.08951280 -0.10326260 -16.75447083 0.25098039 0.27450980 0.65882353
v -0.08512892 -0.10765931 -16.75562096 0.25098039 0.27450980 0.65882353
v -0.09196550 -0.09418890 -16.75172043 0.25098039 0.27450980 0.65882353
v -0.08767461 -0.10037820 -16.75149536 0.25098039 0.27450980 0.65882353
v -0.08321059 -0.10402243 -16.75264359 0.25098039 0.27450980 0.65882353
v -0.08819404 -0.09188473 -16.74920845 0.25098039 0.27450980 0.65882353
v -0.08456896 -0.09806781 -16.75018120 0.25098039 0.27450980 0.65882353
v -0.09182072 -0.07939969 -16.75137901 0.25098039 0.27450980 0.65882353
v -0.09639832 -0.08351424 -16.75421715 0.25098039 0.27450980 0.65882353
v -0.08225133 -0.10144554 -16.75172615 0.25098039 0.27450980 0.65882353
v -0.08033109 -0.10923524 -16.76125717 0.25098039 0.27450980 0.65882353
v -0.07928021 -0.10815839 -16.75776672 0.25098039 0.27450980 0.65882353
v -0.07572503 -0.09410341 -16.76251411 0.25098039 0.27450980 0.65882353
v -0.07695030 -0.10105528 -16.76394844 0.25098039 0.27450980 0.65882353
v -0.07464357 -0.09973684 -16.76166344 0.25098039 0.27450980 0.65882353
v -0.07396691 -0.09098949 -16.76039886 0.25098039 0.27450980 0.65882353
v -0.07330880 -0.09852217 -16.75928307 0.25098039 0.27450980 0.65882353
v -0.07577084 -0.10513550 -16.76176262 0.25098039 0.27450980 0.65882353
v -0.07790655 -0.10484146 -16.76386261 0.25098039 0.27450980 0.65882353
v -0.09280270 -0.07533087 -16.75197029 0.25098039 0.27450980 0.65882353
v -0.08596689 -0.07312605 -16.75210571 0.25098039 0.27450980 0.65882353
v -0.08501779 -0.07689358 -16.75187683 0.25098039 0.27450980 0.65882353
v -0.08199623 -0.08887111 -16.74938965 0.25098039 0.27450980 0.65882353
v -0.07875492 -0.07705833 -16.75421715 0.25098039 0.27450980 0.65882353
v -0.07596952 -0.07882683 -16.75968933 0.25098039 0.27450980 0.65882353
v -0.07375622 -0.08931969 -16.75680161 0.25098039 0.27450980 0.65882353
v -0.07642721 -0.08816634 -16.75259018 0.25098039 0.27450980 0.65882353
v -0.07394481 -0.09722270 -16.75574493 0.25098039 0.27450980 0.65882353
v -0.07592744 -0.09638354 -16.75333977 0.25098039 0.27450980 0.65882353
v -0.08021425 -0.09696861 -16.75057220 0.25098039 0.27450980 0.65882353
v -0.07550533 -0.10216713 -16.75557137 0.25098039 0.27450980 0.65882353
v -0.07474719 -0.10399148 -16.75874710 0.25098039 0.27450980 0.65882353
v -0.07885090 -0.10471147 -16.75445938 0.25098039 0.27450980 0.65882353
v -0.07668597 -0.10015099 -16.75383568 0.25098039 0.27450980 0.65882353
v -0.07930756 -0.10139108 -16.75271416 0.25098039 0.27450980 0.65882353
v -0.07580520 -0.03390502 -16.69602013 0.25098039 0.27450980 0.65882353
v -0.07318188 -0.03683169 -16.70164680 0.25098039 0.27450980 0.65882353
v -0.07839319 -0.03342212 -16.70228004 0.25098039 0.27450980 0.65882353
v -0.08652607 -0.03054085 -16.70501518 0.25098039 0.27450980 0.65882353
v -0.09437518 -0.02374423 -16.70285606 0.25098039 0.27450980 0.65882353
v -0.08406076 -0.03158531 -16.71164703 0.25098039 0.27450980 0.65882353
v -0.07577983 -0.03457304 -16.70838356 0.25098039 0.27450980 0.65882353
v -0.06769982 -0.03931851 -16.70726967 0.25098039 0.27450980 0.65882353
v -0.08826125 -0.02873720 -16.72068596 0.25098039 0.27450980 0.65882353
f 2 3 1
f 1 3 4
f 5 6 8
f 8 6 7
f 9 4 10
f 10 4 3
f 12 13 11
f 11 13 9
f 14 12 16
f 16 12 15
f 18 19 17
f 17 19 20
f 22 23 21
f 21 23 24
f 26 27 25
f 25 27 28
f 30 31 29
f 29 31 32
f 33 34 36
f 36 34 35
f 37 38 40
f 40 38 39
f 41 42 6
f 6 42 43
f 6 43 7
f 7 43 44
f 45 34 46
f 46 34 33
f 48 49 47
f 47 49 50
f 52 53 51
f 51 53 54
f 56 52 55
f 55 52 51
f 58 59 57
f 57 59 60
f 61 62 4
f 4 62 1
f 64 65 63
f 63 65 66
f 68 69 67
f 67 69 70
f 72 73 71
f 71 73 74
f 76 77 75
f 75 77 78
f 53 79 54
f 54 79 80
f 82 83 81
f 81 83 84
f 85 86 52
f 52 86 53
f 57 60 87
f 87 60 88
f 89 90 43
f 43 90 44
f 43 42 89
f 89 42 91
f 40 39 92
f 92 39 93
f 94 70 64
f 64 70 69
f 13 61 9
f 9 61 4
f 25 28 69
f 69 28 95
f 96 25 68
f 68 25 69
f 98 99 97
f 97 99 100
f 101 102 104
f 104 102 103
f 106 30 105
f 105 30 29
f 51 54 107
f 107 54 108
f 54 80 108
f 108 80 109
f 111 112 110
f 110 112 113
f 115 5 114
f 114 5 116
f 115 41 5
f 5 41 6
f 36 35 111
f 111 35 117
f 35 118 117
f 117 118 119
f 34 120 35
f 35 120 118
f 34 45 120
f 120 45 121
f 125 126 124
f 124 126 127
f 128 129 14
f 14 129 130
f 33 131 46
f 46 131 132
f 133 94 63
f 63 94 64
f 134 135 137
f 137 135 136
f 139 140 138
f 138 140 141
f 77 142 78
f 78 142 143
f 144 145 20
f 20 145 146
f 148 149 147
f 147 149 72
f 151 152 150
f 150 152 153
f 82 101 83
f 83 101 104
f 101 82 155
f 155 82 154
f 156 157 58
f 58 157 59
f 158 68 147
f 147 68 67
f 159 146 15
f 15 146 16
f 68 158 96
f 96 158 160
f 129 66 130
f 130 66 65
f 162 163 161
f 161 163 164
f 166 167 165
f 165 167 168
f 170 171 169
f 169 171 172
f 174 171 173
f 173 171 170
f 176 177 175
f 175 177 178
f 180 181 179
f 179 181 24
f 182 183 21
f 21 183 184
f 81 185 82
f 82 185 154
f 186 187 188
f 188 187 144
f 158 71 160
f 160 71 189
f 190 135 157
f 157 135 59
f 169 172 139
f 139 172 140
f 147 72 158
f 158 72 71
f 192 193 191
f 191 193 194
f 167 166 49
f 49 166 195
f 196 190 50
f 50 190 157
f 197 198 200
f 200 198 199
f 21 24 182
f 182 24 181
f 146 159 20
f 20 159 17
f 182 181 81
f 81 181 185
f 201 185 180
f 180 185 181
f 202 203 83
f 83 203 84
f 205 206 204
f 204 206 85
f 207 22 184
f 184 22 21
f 179 24 208
f 208 24 23
f 208 209 179
f 179 209 205
f 209 210 205
f 205 210 206
f 212 206 211
f 211 206 210
f 179 205 180
f 180 205 204
f 213 176 88
f 88 176 214
f 86 85 212
f 212 85 206
f 193 217 218
f 217 219 218
f 218 219 220
f 219 18 220
f 220 18 17
f 19 221 20
f 20 221 144
f 222 223 225
f 225 223 224
f 175 226 176
f 176 226 214
f 227 87 214
f 214 87 88
f 220 17 228
f 228 17 159
f 134 213 60
f 60 213 88
f 138 229 151
f 151 229 152
f 193 192 210
f 210 192 211
f 230 194 218
f 218 194 193
f 231 232 228
f 228 232 230
f 233 234 91
f 91 234 89
f 235 236 93
f 93 236 92
f 230 232 234
f 234 232 237
f 47 238 48
f 48 238 239
f 240 191 235
f 235 191 236
f 5 8 116
f 116 8 241
f 242 243 189
f 189 243 160
f 244 245 98
f 98 245 99
f 156 246 47
f 47 246 238
f 76 247 77
f 77 247 248
f 250 125 249
f 249 125 124
f 252 253 251
f 251 253 254
f 111 110 36
f 36 110 255
f 256 33 255
f 255 33 36
f 257 258 154
f 154 258 155
f 63 169 133
f 133 169 139
f 66 170 63
f 63 170 169
f 173 170 129
f 129 170 66
f 129 128 173
f 173 128 259
f 128 260 259
f 259 260 261
f 213 134 262
f 262 134 137
f 263 264 186
f 186 264 187
f 112 265 113
f 113 265 266
f 11 267 268
f 234 233 230
f 230 233 194
f 153 269 70
f 70 269 67
f 175 178 165
f 165 178 141
f 150 153 94
f 94 153 70
f 271 221 270
f 270 221 207
f 269 153 272
f 272 153 152
f 121 45 109
f 109 45 108
f 47 50 156
f 156 50 157
f 57 273 58
f 58 273 274
f 145 275 260
f 260 275 261
f 276 149 143
f 143 149 78
f 148 269 75
f 75 269 272
f 207 277 270
f 270 277 278
f 195 196 49
f 49 196 50
f 59 135 60
f 60 135 134
f 83 104 202
f 202 104 279
f 149 148 78
f 78 148 75
f 247 278 248
f 248 278 277
f 183 182 84
f 84 182 81
f 48 239 281
f 281 239 282
f 227 223 283
f 283 223 222
f 223 226 224
f 224 226 168
f 281 282 224
f 224 282 225
f 165 168 175
f 175 168 226
f 264 263 138
f 138 263 229
f 14 16 128
f 128 16 260
f 220 228 218
f 218 228 230
f 87 227 284
f 284 227 283
f 260 16 145
f 145 16 146
f 244 98 258
f 258 98 155
f 58 274 156
f 156 274 246
f 107 285 51
f 51 285 55
f 243 286 160
f 160 286 96
f 234 237 89
f 89 237 90
f 46 132 107
f 107 132 285
f 253 252 249
f 249 252 250
f 286 26 96
f 96 26 25
f 106 105 287
f 287 105 288
f 272 152 289
f 289 152 229
f 138 151 139
f 139 151 133
f 183 290 161
f 161 290 162
f 291 292 277
f 277 292 293
f 151 150 133
f 133 150 94
f 262 275 177
f 177 275 187
f 144 187 145
f 145 187 275
f 273 57 284
f 284 57 87
f 174 136 190
f 190 136 135
f 111 117 112
f 112 117 38
f 117 119 38
f 38 119 123
f 112 38 265
f 265 38 37
f 287 288 254
f 254 288 251
f 228 159 231
f 231 159 15
f 223 227 226
f 226 227 214
f 147 67 148
f 148 67 269
f 224 168 281
f 281 168 167
f 199 163 200
f 200 163 162
f 45 46 108
f 108 46 107
f 281 167 48
f 48 167 49
f 161 164 291
f 291 164 292
f 38 123 39
f 293 294 277
f 277 294 248
f 284 283 296
f 296 283 295
f 284 296 273
f 273 296 297
f 274 273 298
f 298 273 297
f 246 274 299
f 299 274 298
f 283 222 295
f 295 222 300
f 222 225 300
f 300 225 301
f 301 225 302
f 302 225 282
f 303 304 300
f 300 304 295
f 306 307 305
f 305 307 308
f 309 310 308
f 308 310 305
f 308 307 312
f 312 307 311
f 313 314 312
f 312 314 315
f 311 316 312
f 312 316 313
f 317 304 311
f 311 304 316
f 315 309 312
f 312 309 308
f 318 319 321
f 321 319 320
f 319 318 309
f 309 318 310
f 311 307 317
f 317 307 306
f 306 297 317
f 317 297 296
f 306 322 297
f 297 322 298
f 305 323 306
f 306 323 322
f 323 305 324
f 324 305 310
f 304 317 295
f 295 317 296
f 318 325 310
f 310 325 324
f 323 324 326
f 326 324 327
f 324 325 327
f 327 325 328
f 326 327 329
f 329 327 330
f 329 331 326
f 326 331 332
f 333 330 328
f 328 330 327
f 323 326 322
f 322 326 332
f 322 332 298
f 298 332 299
f 325 318 334
f 334 318 321
f 313 316 335
f 335 316 304
f 335 336 313
f 313 336 314
f 304 303 335
f 335 303 337
f 336 335 338
f 338 335 337
f 336 339 314
f 314 339 340
f 246 299 238
f 238 299 341
f 239 342 282
f 282 342 302
f 342 239 341
f 341 239 238
f 341 331 342
f 342 331 343
f 331 329 343
f 343 329 344
f 342 343 302
f 302 343 345
f 341 299 331
f 331 299 332
f 346 301 345
f 345 301 302
f 346 303 301
f 301 303 300
f 347 337 346
f 346 337 303
f 347 346 348
f 348 346 345
f 349 347 350
f 350 347 348
f 343 344 345
f 345 344 348
f 344 351 348
f 348 351 350
f 337 347 338
f 338 347 349
f 353 338 352
f 352 338 349
f 352 355 354
f 354 355 356
f 352 349 355
f 355 349 350
f 352 354 353
f 353 354 334
f 353 334 339
f 339 334 321
f 339 336 353
f 353 336 338
f 329 330 344
f 344 330 351
f 356 351 333
f 333 351 330
f 356 355 351
f 351 355 350
f 354 356 328
f 328 356 333
f 328 325 354
f 354 325 334
f 309 315 319
f 319 315 320
f 320 340 321
f 321 340 339
f 320 315 340
f 340 315 314
f 137 136 261
f 261 136 259
f 140 166 141
f 141 166 165
f 172 171 195
f 195 171 196
f 171 174 196
f 196 174 190
f 178 177 264
f 264 177 187
f 172 195 140
f 140 195 166
f 137 261 262
f 262 261 275
f 178 264 141
f 141 264 138
f 262 177 213
f 213 177 176
f 136 174 259
f 259 174 173
f 358 359 357
f 357 359 360
f 362 363 361
f 361 363 364
f 361 364 365
f 365 364 366
f 367 368 370
f 370 368 369
f 76 371 247
f 247 371 372
f 373 374 362
f 362 374 363
f 376 377 375
f 375 377 378
f 289 229 380
f 380 229 379
f 381 379 263
f 263 379 229
f 383 384 382
f 382 384 385
f 386 368 374
f 374 368 363
f 76 289 371
f 371 289 380
f 377 376 359
f 359 376 387
f 388 386 360
f 360 386 374
f 389 383 366
f 366 383 390
f 392 393 391
f 391 393 394
f 383 382 390
f 390 382 395
f 396 365 390
f 390 365 366
f 389 366 367
f 367 366 364
f 357 397 358
f 358 397 398
f 373 399 357
f 357 399 397
f 389 367 400
f 400 367 370
f 382 385 375
f 375 385 372
f 357 360 373
f 373 360 374
f 361 401 362
f 362 401 402
f 387 388 359
f 359 388 360
f 363 368 364
f 364 368 367
f 358 398 403
f 403 398 404
f 396 392 405
f 405 392 391
f 392 395 393
f 393 395 378
f 393 403 394
f 394 403 404
f 375 378 382
f 382 378 395
f 365 396 406
f 406 396 405
f 362 402 373
f 373 402 399
f 271 270 400
f 400 270 384
f 401 361 406
f 406 361 365
f 381 369 386
f 386 369 368
f 392 396 395
f 395 396 390
f 393 378 403
f 403 378 377
f 403 377 358
f 358 377 359
f 406 405 408
f 408 405 407
f 406 408 401
f 401 408 409
f 401 409 402
f 402 409 410
f 402 410 399
f 399 410 411
f 405 391 407
f 407 391 412
f 391 394 412
f 412 394 413
f 394 404 413
f 413 404 414
f 415 416 412
f 412 416 407
f 418 419 417
f 417 419 420
f 421 422 418
f 418 422 419
f 419 422 424
f 424 422 423
f 425 426 424
f 424 426 427
f 423 428 424
f 424 428 425
f 427 420 424
f 424 420 419
f 420 429 417
f 417 429 430
f 423 422 431
f 431 422 421
f 421 409 431
f 431 409 408
f 421 432 409
f 409 432 410
f 418 433 421
f 421 433 432
f 434 433 417
f 417 433 418
f 431 416 423
f 423 416 428
f 416 431 407
f 407 431 408
f 435 434 430
f 430 434 417
f 433 434 436
f 436 434 437
f 434 435 437
f 437 435 438
f 436 437 439
f 439 437 440
f 439 441 436
f 436 441 442
f 438 443 437
f 437 443 440
f 436 442 433
f 433 442 432
f 432 442 410
f 410 442 411
f 435 430 445
f 445 430 444
f 430 429 444
f 444 429 446
f 425 428 447
f 447 428 416
f 426 425 448
f 448 425 447
f 416 415 447
f 447 415 449
f 447 449 448
f 448 449 450
f 451 452 448
f 448 452 426
f 446 452 444
f 444 452 451
f 399 411 397
f 397 411 453
f 398 454 404
f 404 454 414
f 454 398 453
f 453 398 397
f 453 441 454
f 454 441 455
f 441 439 455
f 455 439 456
f 454 455 414
f 414 455 457
f 441 453 442
f 442 453 411
f 458 413 457
f 457 413 414
f 458 415 413
f 413 415 412
f 458 459 415
f 415 459 449
f 459 458 460
f 460 458 457
f 461 459 462
f 462 459 460
f 455 456 457
f 457 456 460
f 456 463 460
f 460 463 462
f 459 461 449
f 449 461 450
f 465 450 464
f 464 450 461
f 464 467 466
f 466 467 468
f 464 461 467
f 467 461 462
f 464 466 465
f 465 466 445
f 465 445 451
f 451 445 444
f 451 448 465
f 465 448 450
f 439 440 456
f 456 440 463
f 468 463 443
f 443 463 440
f 468 467 463
f 463 467 462
f 466 468 438
f 438 468 443
f 438 435 466
f 466 435 445
f 420 427 429
f 429 427 446
f 446 427 452
f 452 427 426
f 370 369 188
f 188 369 186
f 371 376 372
f 372 376 375
f 380 379 387
f 387 379 388
f 379 381 388
f 388 381 386
f 385 384 278
f 278 384 270
f 380 387 371
f 371 387 376
f 400 370 271
f 271 370 188
f 385 278 372
f 372 278 247
f 400 384 389
f 389 384 383
f 369 381 186
f 186 381 263
f 221 271 144
f 144 271 188
f 221 19 207
f 207 19 22
f 19 18 22
f 22 18 23
f 18 219 23
f 23 219 208
f 469 470 472
f 472 470 471
f 474 475 473
f 473 475 476
f 473 476 477
f 477 476 478
f 480 481 479
f 479 481 482
f 483 484 474
f 474 484 475
f 486 487 485
f 485 487 488
f 489 490 77
f 77 490 142
f 491 489 248
f 248 489 77
f 493 494 492
f 492 494 495
f 496 480 484
f 484 480 475
f 486 497 487
f 487 497 471
f 498 496 472
f 472 496 484
f 499 493 478
f 478 493 500
f 501 502 504
f 504 502 503
f 493 492 500
f 500 492 505
f 506 477 500
f 500 477 478
f 499 478 479
f 479 478 476
f 469 507 470
f 470 507 508
f 483 509 469
f 469 509 507
f 479 482 499
f 499 482 510
f 492 495 485
f 485 495 511
f 483 469 484
f 484 469 472
f 473 512 474
f 474 512 513
f 497 498 471
f 471 498 472
f 475 480 476
f 476 480 479
f 470 508 514
f 514 508 515
f 506 502 516
f 516 502 501
f 503 502 488
f 488 502 505
f 514 515 503
f 503 515 504
f 485 488 492
f 492 488 505
f 477 506 517
f 517 506 516
f 474 513 483
f 483 513 509
f 510 292 494
f 494 292 164
f 512 473 517
f 517 473 477
f 491 481 496
f 496 481 480
f 502 506 505
f 505 506 500
f 503 488 514
f 514 488 487
f 514 487 470
f 470 487 471
f 517 516 519
f 519 516 518
f 517 519 512
f 512 519 520
f 512 520 513
f 513 520 521
f 513 521 509
f 509 521 522
f 516 501 518
f 518 501 523
f 501 504 523
f 523 504 524
f 524 504 525
f 525 504 515
f 526 527 523
f 523 527 518
f 529 530 528
f 528 530 531
f 532 533 529
f 529 533 530
f 530 533 535
f 535 533 534
f 536 537 535
f 535 537 538
f 534 539 535
f 535 539 536
f 538 531 535
f 535 531 530
f 540 541 531
f 531 541 528
f 533 532 534
f 534 532 542
f 532 520 542
f 542 520 519
f 532 543 520
f 520 543 521
f 529 544 532
f 532 544 543
f 544 529 545
f 545 529 528
f 534 542 539
f 539 542 527
f 527 542 518
f 518 542 519
f 541 546 528
f 528 546 545
f 547 544 548
f 548 544 545
f 546 549 545
f 545 549 548
f 550 547 551
f 551 547 548
f 547 550 553
f 553 550 552
f 549 554 548
f 548 554 551
f 544 547 543
f 543 547 553
f 543 553 521
f 521 553 522
f 546 541 556
f 556 541 555
f 541 540 555
f 555 540 557
f 536 539 558
f 558 539 527
f 537 536 559
f 559 536 558
f 527 526 558
f 558 526 560
f 559 558 561
f 561 558 560
f 559 562 537
f 537 562 563
f 557 563 555
f 555 563 562
f 509 522 507
f 507 522 564
f 508 565 515
f 515 565 525
f 565 508 564
f 564 508 507
f 564 552 565
f 565 552 566
f 552 550 566
f 566 550 567
f 565 566 525
f 525 566 568
f 564 522 552
f 552 522 553
f 569 524 568
f 568 524 525
f 569 526 524
f 524 526 523
f 570 560 569
f 569 560 526
f 570 569 571
f 571 569 568
f 572 570 573
f 573 570 571
f 566 567 568
f 568 567 571
f 567 574 571
f 571 574 573
f 570 572 560
f 560 572 561
f 576 561 575
f 575 561 572
f 575 578 577
f 577 578 579
f 575 572 578
f 578 572 573
f 575 577 576
f 576 577 556
f 576 556 562
f 562 556 555
f 562 559 576
f 576 559 561
f 550 551 567
f 567 551 574
f 579 574 554
f 554 574 551
f 579 578 574
f 574 578 573
f 579 554 577
f 577 554 549
f 549 546 577
f 577 546 556
f 531 538 540
f 540 538 557
f 557 538 563
f 563 538 537
f 481 294 482
f 482 294 293
f 580 486 511
f 511 486 485
f 490 489 497
f 497 489 498
f 489 491 498
f 498 491 496
f 163 495 164
f 164 495 494
f 580 490 486
f 486 490 497
f 482 293 510
f 510 293 292
f 495 163 511
f 511 163 199
f 494 493 510
f 510 493 499
f 481 491 294
f 294 491 248
f 582 583 581
f 581 583 584
f 586 587 585
f 585 587 588
f 585 588 589
f 589 588 590
f 592 593 591
f 591 593 594
f 595 596 598
f 598 596 597
f 599 600 586
f 586 600 587
f 601 602 604
f 604 602 603
f 605 606 608
f 608 606 607
f 609 607 200
f 200 607 606
f 610 611 613
f 613 611 612
f 600 614 587
f 587 614 592
f 596 605 597
f 597 605 608
f 602 615 603
f 603 615 583
f 616 614 584
f 584 614 600
f 611 618 617
f 617 618 590
f 620 621 619
f 619 621 622
f 610 623 611
f 611 623 618
f 624 589 618
f 618 589 590
f 617 590 591
f 591 590 588
f 581 625 582
f 582 625 626
f 599 627 581
f 581 627 625
f 591 594 617
f 617 594 628
f 601 610 598
f 598 610 613
f 581 584 599
f 599 584 600
f 585 629 586
f 586 629 630
f 615 616 583
f 583 616 584
f 587 592 588
f 588 592 591
f 582 626 631
f 631 626 632
f 624 620 633
f 633 620 619
f 621 620 604
f 604 620 623
f 631 632 621
f 621 632 622
f 610 601 623
f 623 601 604
f 589 624 634
f 634 624 633
f 586 630 599
f 599 630 627
f 203 202 628
f 628 202 612
f 629 585 634
f 634 585 589
f 609 593 614
f 614 593 592
f 620 624 623
f 623 624 618
f 631 621 603
f 603 621 604
f 582 631 583
f 583 631 603
f 634 633 636
f 636 633 635
f 634 636 629
f 629 636 637
f 629 637 630
f 630 637 638
f 630 638 627
f 627 638 639
f 633 619 635
f 635 619 640
f 619 622 640
f 640 622 641
f 641 622 642
f 642 622 632
f 644 635 643
f 643 635 640
f 645 646 648
f 648 646 647
f 649 650 646
f 646 650 647
f 647 650 652
f 652 650 651
f 652 653 655
f 655 653 654
f 651 656 652
f 652 656 653
f 655 648 652
f 652 648 647
f 648 657 645
f 645 657 658
f 650 649 651
f 651 649 659
f 649 637 659
f 659 637 636
f 649 660 637
f 637 660 638
f 661 660 646
f 646 660 649
f 662 661 645
f 645 661 646
f 651 659 656
f 656 659 644
f 644 659 635
f 635 659 636
f 663 662 658
f 658 662 645
f 664 661 665
f 665 661 662
f 663 666 662
f 662 666 665
f 667 664 668
f 668 664 665
f 664 667 670
f 670 667 669
f 666 671 665
f 665 671 668
f 661 664 660
f 660 664 670
f 660 670 638
f 638 670 639
f 658 672 663
f 663 672 673
f 658 657 672
f 672 657 674
f 653 656 675
f 675 656 644
f 653 675 654
f 654 675 676
f 675 644 677
f 677 644 643
f 676 675 678
f 678 675 677
f 679 680 676
f 676 680 654
f 674 680 672
f 672 680 679
f 627 639 625
f 625 639 681
f 626 682 632
f 632 682 642
f 681 682 625
f 625 682 626
f 669 683 681
f 681 683 682
f 667 684 669
f 669 684 683
f 682 683 642
f 642 683 685
f 681 639 669
f 669 639 670
f 686 641 685
f 685 641 642
f 641 686 640
f 640 686 643
f 686 687 643
f 643 687 677
f 687 686 688
f 688 686 685
f 689 687 690
f 690 687 688
f 683 684 685
f 685 684 688
f 684 691 688
f 688 691 690
f 687 689 677
f 677 689 678
f 693 678 692
f 692 678 689
f 692 695 694
f 694 695 696
f 692 689 695
f 695 689 690
f 692 694 693
f 693 694 673
f 693 673 679
f 679 673 672
f 679 676 693
f 693 676 678
f 684 667 691
f 691 667 668
f 696 691 671
f 671 691 668
f 696 695 691
f 691 695 690
f 694 696 666
f 666 696 671
f 666 663 694
f 694 663 673
f 648 655 657
f 657 655 674
f 674 655 680
f 680 655 654
f 593 162 594
f 594 162 290
f 598 597 601
f 601 597 602
f 615 608 616
f 616 608 607
f 607 609 616
f 616 609 614
f 697 595 613
f 613 595 598
f 597 608 602
f 602 608 615
f 594 290 628
f 628 290 203
f 628 612 617
f 617 612 611
f 593 609 162
f 162 609 200
f 105 29 698
f 698 29 699
f 268 126 701
f 701 126 700
f 126 125 700
f 700 125 702
f 252 703 250
f 250 703 704
f 32 268 705
f 705 268 701
f 288 105 706
f 706 105 698
f 29 32 699
f 699 32 705
f 707 251 706
f 706 251 288
f 250 704 125
f 125 704 702
f 703 252 707
f 707 252 251
f 706 708 707
f 707 708 709
f 707 709 703
f 703 709 710
f 703 710 704
f 704 710 711
f 704 711 702
f 702 711 712
f 706 698 708
f 708 698 713
f 698 699 713
f 713 699 714
f 699 705 714
f 714 705 715
f 717 708 716
f 716 708 713
f 719 720 718
f 718 720 721
f 722 723 719
f 719 723 720
f 724 725 723
f 723 725 720
f 724 726 725
f 725 726 727
f 728 721 725
f 725 721 720
f 721 728 729
f 729 728 730
f 729 731 721
f 721 731 718
f 724 723 732
f 732 723 722
f 722 710 732
f 732 710 709
f 722 733 710
f 710 733 711
f 719 734 722
f 722 734 733
f 734 719 735
f 735 719 718
f 724 732 726
f 726 732 717
f 717 732 708
f 708 732 709
f 731 736 718
f 718 736 735
f 737 734 738
f 738 734 735
f 736 739 735
f 735 739 738
f 740 737 741
f 741 737 738
f 737 740 743
f 743 740 742
f 739 744 738
f 738 744 741
f 734 737 733
f 733 737 743
f 733 743 711
f 711 743 712
f 736 731 746
f 746 731 745
f 731 729 745
f 745 729 730
f 727 726 747
f 747 726 717
f 748 727 749
f 749 727 747
f 747 717 750
f 750 717 716
f 749 747 751
f 751 747 750
f 749 752 748
f 748 752 753
f 730 753 745
f 745 753 752
f 728 725 748
f 748 725 727
f 730 728 753
f 753 728 748
f 700 702 754
f 754 702 712
f 705 701 715
f 715 701 755
f 754 755 700
f 700 755 701
f 742 756 754
f 754 756 755
f 740 757 742
f 742 757 756
f 755 756 715
f 715 756 758
f 754 712 742
f 742 712 743
f 759 714 758
f 758 714 715
f 714 759 713
f 713 759 716
f 759 760 716
f 716 760 750
f 760 759 761
f 761 759 758
f 762 760 763
f 763 760 761
f 756 757 758
f 758 757 761
f 757 764 761
f 761 764 763
f 760 762 750
f 750 762 751
f 766 751 765
f 765 751 762
f 767 765 769
f 769 765 768
f 765 762 768
f 768 762 763
f 765 767 766
f 766 767 746
f 766 746 752
f 752 746 745
f 752 749 766
f 766 749 751
f 757 740 764
f 764 740 741
f 769 764 744
f 744 764 741
f 769 768 764
f 764 768 763
f 767 769 739
f 739 769 744
f 739 736 767
f 767 736 746
f 219 217 208
f 208 217 209
f 209 217 210
f 210 217 193
f 198 580 199
f 199 580 511
f 76 75 289
f 289 75 272
f 277 207 291
f 291 207 184
f 290 183 203
f 203 183 84
f 490 580 142
f 142 580 198
f 142 198 143
f 143 198 197
f 149 276 72
f 72 276 73
f 104 103 279
f 279 103 770
f 770 596 279
f 279 596 595
f 605 596 771
f 771 596 770
f 771 770 772
f 772 770 103
f 772 103 773
f 773 103 102
f 155 774 101
f 101 774 102
f 773 102 97
f 97 102 774
f 775 773 100
f 100 773 97
f 773 775 772
f 772 775 776
f 772 776 771
f 771 776 777
f 200 606 197
f 197 606 777
f 189 71 778
f 778 71 74
f 97 774 98
f 98 774 155
f 183 161 184
f 184 161 291
f 777 276 197
f 197 276 143
f 777 606 771
f 771 606 605
f 613 612 697
f 697 612 202
f 595 697 279
f 279 697 202
f 73 276 776
f 776 276 777
f 776 775 73
f 73 775 74
f 100 778 775
f 775 778 74
f 778 100 189
f 189 100 99
f 245 242 99
f 99 242 189
f 131 33 256
f 28 1 95
f 95 1 62
f 27 2 28
f 28 2 1
f 265 115 266
f 266 115 114
f 95 62 69
f 69 62 64
f 62 61 64
f 64 61 65
f 61 13 65
f 65 13 130
f 13 12 130
f 130 12 14
f 31 11 32
f 32 11 268
f 15 12 31
f 31 12 11
f 31 30 15
f 15 30 231
f 30 106 231
f 231 106 232
f 287 237 106
f 106 237 232
f 254 90 287
f 287 90 237
f 253 44 254
f 254 44 90
f 253 249 44
f 44 249 7
f 267 127 268
f 268 127 126
f 10 3 241
f 241 3 116
f 3 2 116
f 116 2 114
f 2 27 114
f 114 27 266
f 27 26 266
f 266 26 113
f 26 286 113
f 113 286 110
f 286 243 110
f 110 243 255
f 243 242 255
f 255 242 256
f 242 245 256
f 256 245 131
f 245 244 131
f 131 244 132
f 265 37 115
f 115 37 41
f 41 37 42
f 42 37 40
f 92 91 40
f 40 91 42
f 236 233 92
f 92 233 91
f 191 194 236
f 236 194 233
f 258 285 244
f 244 285 132
f 257 55 258
f 258 55 285
f 257 154 201
f 201 154 185
f 56 201 204
f 204 201 180
f 55 257 56
f 56 257 201
f 204 85 56
f 56 85 52
f 86 122 53
f 53 122 79
f 212 215 86
f 86 215 122
f 211 216 212
f 212 216 215
f 192 280 211
f 211 280 216
f 191 240 192
f 192 240 280
f 249 124 7
f 7 124 8
f 124 127 8
f 8 127 241
f 127 267 241
f 241 267 10
f 10 267 9
f 9 267 11
f 93 39 235
f 235 39 240
f 39 123 240
f 240 123 280
f 123 119 280
f 280 119 216
f 119 118 216
f 216 118 215
f 118 120 215
f 215 120 122
f 120 121 122
f 122 121 79
f 121 109 79
f 79 109 80

