# https://github.com/mikedh/trimesh
v -0.10862007 -0.10050187 -17.07643509 0.25098039 0.27450980 0.65882353
v -0.10439019 -0.09957012 -17.08986282 0.25098039 0.27450980 0.65882353
v -0.09694896 -0.10220713 -17.08572578 0.25098039 0.27450980 0.65882353
v -0.10241951 -0.10103979 -17.07114220 0.25098039 0.27450980 0.65882353
v -0.08433871 -0.09049337 -17.10207176 0.25098039 0.27450980 0.65882353
v -0.08029529 -0.07937509 -17.10047722 0.25098039 0.27450980 0.65882353
v -0.07602456 -0.08786590 -17.09012604 0.25098039 0.27450980 0.65882353
v -0.08030145 -0.09701230 -17.09380913 0.25098039 0.27450980 0.65882353
v -0.09914308 -0.10156227 -17.06648827 0.25098039 0.27450980 0.65882353
v -0.09226078 -0.10517158 -17.08045578 0.25098039 0.27450980 0.65882353
v -0.09933865 -0.10035116 -17.06421852 0.25098039 0.27450980 0.65882353
v -0.11008643 -0.08944421 -17.05200958 0.25098039 0.27450980 0.65882353
v -0.10731310 -0.09416126 -17.05493927 0.25098039 0.27450980 0.65882353
v -0.11616390 -0.08683942 -17.04428864 0.25098039 0.27450980 0.65882353
v -0.11574295 -0.08092718 -17.05447960 0.25098039 0.27450980 0.65882353
v -0.12523097 -0.08374655 -17.04450989 0.25098039 0.27450980 0.65882353
v -0.14146984 -0.08260713 -17.06725311 0.25098039 0.27450980 0.65882353
v -0.14820153 -0.09138979 -17.07567596 0.25098039 0.27450980 0.65882353
v -0.15152395 -0.09914553 -17.06102371 0.25098039 0.27450980 0.65882353
v -0.14388913 -0.08958510 -17.05392456 0.25098039 0.27450980 0.65882353
v -0.15614380 -0.11283733 -17.07791138 0.25098039 0.27450980 0.65882353
v -0.15422462 -0.10571475 -17.06793404 0.25098039 0.27450980 0.65882353
v -0.15160759 -0.09743582 -17.08257866 0.25098039 0.27450980 0.65882353
v -0.15339759 -0.10390024 -17.09074783 0.25098039 0.27450980 0.65882353
v -0.11671817 -0.10430467 -17.08646584 0.25098039 0.27450980 0.65882353
v -0.11399066 -0.10276424 -17.09695244 0.25098039 0.27450980 0.65882353
v -0.11217918 -0.10036914 -17.09442139 0.25098039 0.27450980 0.65882353
v -0.11443016 -0.10166312 -17.08341980 0.25098039 0.27450980 0.65882353
v -0.09006752 -0.09790328 -17.06295204 0.25098039 0.27450980 0.65882353
v -0.09920214 -0.08415819 -17.06375885 0.25098039 0.27450980 0.65882353
v -0.10116618 -0.09155212 -17.06196785 0.25098039 0.27450980 0.65882353
v -0.08994281 -0.10344350 -17.06591606 0.25098039 0.27450980 0.65882353
v -0.10750270 -0.10355878 -17.12350273 0.25098039 0.27450980 0.65882353
v -0.11108842 -0.09318294 -17.13322639 0.25098039 0.27450980 0.65882353
v -0.10841720 -0.08842181 -17.13035011 0.25098039 0.27450980 0.65882353
v -0.10639886 -0.09830948 -17.12191963 0.25098039 0.27450980 0.65882353
v -0.09432273 -0.07621819 -17.11592484 0.25098039 0.27450980 0.65882353
v -0.10055684 -0.07203912 -17.12222481 0.25098039 0.27450980 0.65882353
v -0.10244864 -0.05929065 -17.12171173 0.25098039 0.27450980 0.65882353
v -0.09837408 -0.06297901 -17.11274719 0.25098039 0.27450980 0.65882353
v -0.08605105 -0.07743146 -17.10822678 0.25098039 0.27450980 0.65882353
v -0.08975752 -0.06681256 -17.10408211 0.25098039 0.27450980 0.65882353
v -0.08312470 -0.07017849 -17.09407234 0.25098039 0.27450980 0.65882353
v -0.07717836 -0.08054964 -17.08351517 0.25098039 0.27450980 0.65882353
v -0.11959728 -0.10143528 -17.13867950 0.25098039 0.27450980 0.65882353
v -0.11815093 -0.11048531 -17.13312340 0.25098039 0.27450980 0.65882353
v -0.11582390 -0.11503074 -17.00733566 0.25098039 0.27450980 0.65882353
v -0.11786047 -0.12000036 -17.01041603 0.25098039 0.27450980 0.65882353
v -0.11851953 -0.11738849 -17.01308632 0.25098039 0.27450980 0.65882353
v -0.11652886 -0.11291940 -17.00961113 0.25098039 0.27450980 0.65882353
v -0.13991784 -0.10613015 -17.13791847 0.25098039 0.27450980 0.65882353
v -0.14797160 -0.09972188 -17.13512993 0.25098039 0.27450980 0.65882353
v -0.14581548 -0.09818856 -17.14161110 0.25098039 0.27450980 0.65882353
v -0.13739331 -0.10254578 -17.14379883 0.25098039 0.27450980 0.65882353
v -0.14316052 -0.11078774 -17.12981033 0.25098039 0.27450980 0.65882353
v -0.15005082 -0.10206394 -17.12573624 0.25098039 0.27450980 0.65882353
v -0.12423000 -0.11214940 -16.99838638 0.25098039 0.27450980 0.65882353
v -0.11954129 -0.11151522 -17.00019646 0.25098039 0.27450980 0.65882353
v -0.12170713 -0.10800640 -17.00229073 0.25098039 0.27450980 0.65882353
v -0.12703770 -0.10858594 -17.00142670 0.25098039 0.27450980 0.65882353
v -0.10735696 -0.09731722 -17.05923462 0.25098039 0.27450980 0.65882353
v -0.11065751 -0.10077888 -17.06556320 0.25098039 0.27450980 0.65882353
v -0.11328968 -0.10194758 -17.04041100 0.25098039 0.27450980 0.65882353
v -0.11362429 -0.10110775 -17.05083084 0.25098039 0.27450980 0.65882353
v -0.11085930 -0.09549812 -17.04913902 0.25098039 0.27450980 0.65882353
v -0.11173481 -0.09546950 -17.04022408 0.25098039 0.27450980 0.65882353
v -0.12416208 -0.11423685 -17.06759071 0.25098039 0.27450980 0.65882353
v -0.12141603 -0.10980377 -17.07783318 0.25098039 0.27450980 0.65882353
v -0.11925551 -0.10597444 -17.07307243 0.25098039 0.27450980 0.65882353
v -0.12022647 -0.11026575 -17.06089973 0.25098039 0.27450980 0.65882353
v -0.12553912 -0.12002096 -17.08712006 0.25098039 0.27450980 0.65882353
v -0.12825450 -0.12339786 -17.07646942 0.25098039 0.27450980 0.65882353
v -0.13064933 -0.12861809 -17.08338356 0.25098039 0.27450980 0.65882353
v -0.12739968 -0.12593076 -17.08964539 0.25098039 0.27450980 0.65882353
v -0.13099322 -0.12714694 -17.05621910 0.25098039 0.27450980 0.65882353
v -0.13372153 -0.12892163 -17.04963684 0.25098039 0.27450980 0.65882353
v -0.13443130 -0.13075973 -17.05012703 0.25098039 0.27450980 0.65882353
v -0.13219056 -0.12901342 -17.05869675 0.25098039 0.27450980 0.65882353
v -0.14455968 -0.09569769 -17.14772606 0.25098039 0.27450980 0.65882353
v -0.13512419 -0.09816395 -17.14883041 0.25098039 0.27450980 0.65882353
v -0.15781471 -0.12739560 -17.09438324 0.25098039 0.27450980 0.65882353
v -0.15242255 -0.13229150 -17.10290718 0.25098039 0.27450980 0.65882353
v -0.15494150 -0.14128381 -17.09353447 0.25098039 0.27450980 0.65882353
v -0.16090603 -0.13348435 -17.08632278 0.25098039 0.27450980 0.65882353
v -0.15170243 -0.09133305 -17.12893867 0.25098039 0.27450980 0.65882353
v -0.15149552 -0.09061743 -17.13632774 0.25098039 0.27450980 0.65882353
v -0.12909311 -0.11553558 -16.99904060 0.25098039 0.27450980 0.65882353
v -0.13189325 -0.11219752 -17.00220108 0.25098039 0.27450980 0.65882353
v -0.09412394 -0.06352858 -17.08793831 0.25098039 0.27450980 0.65882353
v -0.08389521 -0.07548016 -17.07644272 0.25098039 0.27450980 0.65882353
v -0.10197193 -0.05728026 -17.10004044 0.25098039 0.27450980 0.65882353
v -0.10861527 -0.05343825 -17.10898972 0.25098039 0.27450980 0.65882353
v -0.11157539 -0.05059242 -17.11760902 0.25098039 0.27450980 0.65882353
v -0.11655175 -0.10719849 -17.04994011 0.25098039 0.27450980 0.65882353
v -0.11471144 -0.10240249 -17.07321167 0.25098039 0.27450980 0.65882353
v -0.11834487 -0.10753689 -17.08941078 0.25098039 0.27450980 0.65882353
v -0.12739053 -0.13243335 -17.10614204 0.25098039 0.27450980 0.65882353
v -0.12417357 -0.12805377 -17.11494827 0.25098039 0.27450980 0.65882353
v -0.11975603 -0.12308927 -17.10609436 0.25098039 0.27450980 0.65882353
v -0.12405488 -0.12767616 -17.10010529 0.25098039 0.27450980 0.65882353
v -0.14439832 -0.13818063 -17.10505486 0.25098039 0.27450980 0.65882353
v -0.13665903 -0.13879648 -17.10169029 0.25098039 0.27450980 0.65882353
v -0.13906020 -0.14223374 -17.09527588 0.25098039 0.27450980 0.65882353
v -0.14696178 -0.14341418 -17.09698296 0.25098039 0.27450980 0.65882353
v -0.08563493 -0.09206791 -17.06200981 0.25098039 0.27450980 0.65882353
v -0.09718135 -0.07844444 -17.06566811 0.25098039 0.27450980 0.65882353
v -0.12949981 -0.10927223 -17.13755417 0.25098039 0.27450980 0.65882353
v -0.12727983 -0.10331522 -17.14175415 0.25098039 0.27450980 0.65882353
v -0.12740757 -0.09707028 -17.14804649 0.25098039 0.27450980 0.65882353
v -0.10921960 -0.10205083 -17.10992241 0.25098039 0.27450980 0.65882353
v -0.10538021 -0.09484005 -17.12106323 0.25098039 0.27450980 0.65882353
v -0.10342908 -0.09184824 -17.11905098 0.25098039 0.27450980 0.65882353
v -0.10923570 -0.09960268 -17.10870171 0.25098039 0.27450980 0.65882353
v -0.09818694 -0.09536217 -17.10292435 0.25098039 0.27450980 0.65882353
v -0.09249793 -0.08794758 -17.11037254 0.25098039 0.27450980 0.65882353
v -0.09088571 -0.09999876 -17.09771919 0.25098039 0.27450980 0.65882353
v -0.10516215 -0.08072553 -17.12771606 0.25098039 0.27450980 0.65882353
v -0.10822513 -0.08172126 -17.13860130 0.25098039 0.27450980 0.65882353
v -0.10515682 -0.07398473 -17.13455391 0.25098039 0.27450980 0.65882353
v -0.11387484 -0.08865454 -17.14312553 0.25098039 0.27450980 0.65882353
v -0.12067914 -0.09419684 -17.14584160 0.25098039 0.27450980 0.65882353
v -0.15324962 -0.08793755 -17.14352798 0.25098039 0.27450980 0.65882353
v -0.10334551 -0.06679917 -17.12998390 0.25098039 0.27450980 0.65882353
v -0.07842994 -0.10283105 -17.08801651 0.25098039 0.27450980 0.65882353
v -0.07582343 -0.10753661 -17.08231735 0.25098039 0.27450980 0.65882353
v -0.08241130 -0.11208619 -17.07887459 0.25098039 0.27450980 0.65882353
v -0.08528222 -0.10848109 -17.08509064 0.25098039 0.27450980 0.65882353
v -0.12058043 -0.08733072 -17.03516579 0.25098039 0.27450980 0.65882353
v -0.11405553 -0.09120896 -17.03708839 0.25098039 0.27450980 0.65882353
v -0.11100868 -0.08999345 -17.04718971 0.25098039 0.27450980 0.65882353
v -0.11185113 -0.11220875 -17.11774254 0.25098039 0.27450980 0.65882353
v -0.12042542 -0.11816838 -17.12660027 0.25098039 0.27450980 0.65882353
v -0.11722396 -0.10766251 -17.03944206 0.25098039 0.27450980 0.65882353
v -0.12870634 -0.10468377 -17.00534630 0.25098039 0.27450980 0.65882353
v -0.12260295 -0.10412045 -17.00595856 0.25098039 0.27450980 0.65882353
v -0.12164854 -0.09334997 -17.02068710 0.25098039 0.27450980 0.65882353
v -0.12907937 -0.09356163 -17.01954651 0.25098039 0.27450980 0.65882353
v -0.12652051 -0.11118089 -17.03322792 0.25098039 0.27450980 0.65882353
v -0.12006632 -0.10937070 -17.03463745 0.25098039 0.27450980 0.65882353
v -0.12207967 -0.11053586 -17.03293037 0.25098039 0.27450980 0.65882353
v -0.12810528 -0.11404660 -17.03141785 0.25098039 0.27450980 0.65882353
v -0.13436177 -0.13476451 -17.05879593 0.25098039 0.27450980 0.65882353
v -0.13334987 -0.13329485 -17.06625557 0.25098039 0.27450980 0.65882353
v -0.14376241 -0.09905212 -17.04129982 0.25098039 0.27450980 0.65882353
v -0.13773450 -0.08678483 -17.03847122 0.25098039 0.27450980 0.65882353
v -0.13560778 -0.08365859 -17.04911423 0.25098039 0.27450980 0.65882353
v -0.12639955 -0.11902075 -17.07318497 0.25098039 0.27450980 0.65882353
v -0.12855630 -0.12395684 -17.06439972 0.25098039 0.27450980 0.65882353
v -0.13032001 -0.12655693 -17.06729507 0.25098039 0.27450980 0.65882353
v -0.11937146 -0.11081723 -17.04803085 0.25098039 0.27450980 0.65882353
v -0.12135343 -0.11196710 -17.03989983 0.25098039 0.27450980 0.65882353
v -0.12284695 -0.11410512 -17.04504013 0.25098039 0.27450980 0.65882353
v -0.12199577 -0.11325447 -17.05235672 0.25098039 0.27450980 0.65882353
v -0.15019584 -0.12415483 -17.11307526 0.25098039 0.27450980 0.65882353
v -0.14088333 -0.13141978 -17.11523819 0.25098039 0.27450980 0.65882353
v -0.11648970 -0.11230647 -17.00355339 0.25098039 0.27450980 0.65882353
v -0.11778814 -0.10941374 -17.00559616 0.25098039 0.27450980 0.65882353
v -0.12381688 -0.11430556 -17.08299637 0.25098039 0.27450980 0.65882353
v -0.13278908 -0.07944086 -17.06139946 0.25098039 0.27450980 0.65882353
v -0.11977363 -0.11127143 -17.09285164 0.25098039 0.27450980 0.65882353
v -0.15515670 -0.13333720 -17.06912041 0.25098039 0.27450980 0.65882353
v -0.14831510 -0.13905007 -17.06997108 0.25098039 0.27450980 0.65882353
v -0.14625320 -0.14104301 -17.06575394 0.25098039 0.27450980 0.65882353
v -0.15210293 -0.13910173 -17.06344604 0.25098039 0.27450980 0.65882353
v -0.12956733 -0.12118444 -17.01865578 0.25098039 0.27450980 0.65882353
v -0.12349115 -0.12065010 -17.01856232 0.25098039 0.27450980 0.65882353
v -0.12312564 -0.12160536 -17.01490593 0.25098039 0.27450980 0.65882353
v -0.12894973 -0.12288203 -17.01415062 0.25098039 0.27450980 0.65882353
v -0.11604724 -0.10490034 -17.03405762 0.25098039 0.27450980 0.65882353
v -0.11378025 -0.09849726 -17.03284073 0.25098039 0.27450980 0.65882353
v -0.11499617 -0.10230884 -17.02799034 0.25098039 0.27450980 0.65882353
v -0.11821222 -0.10736535 -17.03054047 0.25098039 0.27450980 0.65882353
v -0.11653619 -0.09344034 -17.02931595 0.25098039 0.27450980 0.65882353
v -0.11631421 -0.09661600 -17.02422333 0.25098039 0.27450980 0.65882353
v -0.13516916 -0.11820619 -17.01581192 0.25098039 0.27450980 0.65882353
v -0.13696834 -0.11264928 -17.01065445 0.25098039 0.27450980 0.65882353
v -0.13852462 -0.10426544 -17.02474213 0.25098039 0.27450980 0.65882353
v -0.13498759 -0.11173293 -17.02749062 0.25098039 0.27450980 0.65882353
v -0.15234381 -0.09473146 -17.10282135 0.25098039 0.27450980 0.65882353
v -0.15389419 -0.10308443 -17.11026382 0.25098039 0.27450980 0.65882353
v -0.15555736 -0.11221065 -17.09829330 0.25098039 0.27450980 0.65882353
v -0.15817355 -0.12158792 -17.08677673 0.25098039 0.27450980 0.65882353
v -0.15905900 -0.12970288 -17.07592392 0.25098039 0.27450980 0.65882353
v -0.15934244 -0.12048817 -17.06806755 0.25098039 0.27450980 0.65882353
v -0.15493183 -0.11757844 -17.10487366 0.25098039 0.27450980 0.65882353
v -0.13440105 -0.10946425 -17.03523445 0.25098039 0.27450980 0.65882353
v -0.13879097 -0.09980273 -17.03363609 0.25098039 0.27450980 0.65882353
v -0.14009470 -0.10540598 -17.03638840 0.25098039 0.27450980 0.65882353
v -0.12088638 -0.11739401 -17.09722519 0.25098039 0.27450980 0.65882353
v -0.11786471 -0.10603790 -17.00873184 0.25098039 0.27450980 0.65882353
v -0.13219324 -0.05544906 -17.11119461 0.25098039 0.27450980 0.65882353
v -0.14303260 -0.06282620 -17.11647415 0.25098039 0.27450980 0.65882353
v -0.14085253 -0.06595160 -17.10875130 0.25098039 0.27450980 0.65882353
v -0.12871405 -0.05806940 -17.10223198 0.25098039 0.27450980 0.65882353
v -0.11777344 -0.11631415 -17.01628113 0.25098039 0.27450980 0.65882353
v -0.11522310 -0.11077009 -17.01287460 0.25098039 0.27450980 0.65882353
v -0.13464266 -0.13871934 -17.06999397 0.25098039 0.27450980 0.65882353
v -0.13546580 -0.13919097 -17.06301498 0.25098039 0.27450980 0.65882353
v -0.13837601 -0.14154205 -17.06419563 0.25098039 0.27450980 0.65882353
v -0.13607208 -0.14293504 -17.07102966 0.25098039 0.27450980 0.65882353
v -0.15322684 -0.10689543 -17.11530495 0.25098039 0.27450980 0.65882353
v -0.15126404 -0.14827064 -17.08831406 0.25098039 0.27450980 0.65882353
v -0.15791684 -0.14076535 -17.08143425 0.25098039 0.27450980 0.65882353
v -0.15215011 -0.09494853 -17.12038231 0.25098039 0.27450980 0.65882353
v -0.15171541 -0.08733073 -17.11385345 0.25098039 0.27450980 0.65882353
v -0.15205295 -0.08240717 -17.12200737 0.25098039 0.27450980 0.65882353
v -0.15470377 -0.11516259 -17.05328560 0.25098039 0.27450980 0.65882353
v -0.15025190 -0.08988467 -17.09579659 0.25098039 0.27450980 0.65882353
v -0.14899506 -0.08281377 -17.10815430 0.25098039 0.27450980 0.65882353
v -0.14927070 -0.07660942 -17.11744881 0.25098039 0.27450980 0.65882353
v -0.15059897 -0.07229164 -17.12413025 0.25098039 0.27450980 0.65882353
v -0.15271375 -0.07953463 -17.12851715 0.25098039 0.27450980 0.65882353
v -0.13386974 -0.10850196 -17.00684738 0.25098039 0.27450980 0.65882353
v -0.13517191 -0.11721021 -17.00563812 0.25098039 0.27450980 0.65882353
v -0.15467212 -0.07624849 -17.13585663 0.25098039 0.27450980 0.65882353
v -0.15153447 -0.06871659 -17.13077164 0.25098039 0.27450980 0.65882353
v -0.14509118 -0.07665821 -17.10173035 0.25098039 0.27450980 0.65882353
v -0.13935104 -0.07015751 -17.09406090 0.25098039 0.27450980 0.65882353
v -0.14636469 -0.08353010 -17.08993721 0.25098039 0.27450980 0.65882353
v -0.14104033 -0.07742772 -17.08161163 0.25098039 0.27450980 0.65882353
v -0.15389366 -0.10412047 -17.04903793 0.25098039 0.27450980 0.65882353
v -0.12727956 -0.13132328 -16.99926758 0.25098039 0.27450980 0.65882353
v -0.13187575 -0.12463386 -17.00644493 0.25098039 0.27450980 0.65882353
v -0.12776732 -0.12561893 -17.01049995 0.25098039 0.27450980 0.65882353
v -0.12537034 -0.13279566 -17.00306129 0.25098039 0.27450980 0.65882353
v -0.13361965 -0.12124774 -17.01092720 0.25098039 0.27450980 0.65882353
v -0.13254377 -0.12053581 -17.00238037 0.25098039 0.27450980 0.65882353
v -0.12956071 -0.07276896 -17.07377243 0.25098039 0.27450980 0.65882353
v -0.12556264 -0.11506788 -17.03879166 0.25098039 0.27450980 0.65882353
v -0.12392882 -0.06396355 -17.08566475 0.25098039 0.27450980 0.65882353
v -0.11528911 -0.07462057 -17.06383705 0.25098039 0.27450980 0.65882353
v -0.11003733 -0.06872347 -17.07230949 0.25098039 0.27450980 0.65882353
v -0.11584495 -0.05410907 -17.09779739 0.25098039 0.27450980 0.65882353
v -0.10666588 -0.06025573 -17.08385658 0.25098039 0.27450980 0.65882353
v -0.12193211 -0.04884257 -17.11624908 0.25098039 0.27450980 0.65882353
v -0.12016739 -0.05152311 -17.10709953 0.25098039 0.27450980 0.65882353
v -0.09618869 -0.07006514 -17.07369995 0.25098039 0.27450980 0.65882353
v -0.11303748 -0.12379126 -17.00387383 0.25098039 0.27450980 0.65882353
v -0.11620554 -0.12803172 -17.00699425 0.25098039 0.27450980 0.65882353
v -0.13351488 -0.05203031 -17.11877441 0.25098039 0.27450980 0.65882353
v -0.08712667 -0.10462029 -17.09045982 0.25098039 0.27450980 0.65882353
v -0.11588906 -0.11236609 -17.10536385 0.25098039 0.27450980 0.65882353
v -0.11508958 -0.10810824 -17.10172272 0.25098039 0.27450980 0.65882353
v -0.12301563 -0.12467946 -17.12006569 0.25098039 0.27450980 0.65882353
v -0.11659408 -0.11790303 -17.11105919 0.25098039 0.27450980 0.65882353
v -0.11285064 -0.12037490 -16.99942780 0.25098039 0.27450980 0.65882353
v -0.13900357 -0.12994790 -17.04551315 0.25098039 0.27450980 0.65882353
v -0.14020440 -0.12902403 -17.04633713 0.25098039 0.27450980 0.65882353
v -0.07372575 -0.09479503 -17.08566856 0.25098039 0.27450980 0.65882353
v -0.07164040 -0.10034756 -17.08148766 0.25098039 0.27450980 0.65882353
v -0.07293743 -0.09255479 -17.06967163 0.25098039 0.27450980 0.65882353
v -0.07025081 -0.09524933 -17.07630539 0.25098039 0.27450980 0.65882353
v -0.07354596 -0.08797348 -17.07968521 0.25098039 0.27450980 0.65882353
v -0.07737660 -0.08431611 -17.07300758 0.25098039 0.27450980 0.65882353
v -0.10905930 -0.10442948 -17.11078644 0.25098039 0.27450980 0.65882353
v -0.11020809 -0.10791368 -17.11282349 0.25098039 0.27450980 0.65882353
v -0.14634956 -0.11714015 -17.12214279 0.25098039 0.27450980 0.65882353
v -0.13689786 -0.12422802 -17.12314796 0.25098039 0.27450980 0.65882353
v -0.12213200 -0.09013072 -17.02753830 0.25098039 0.27450980 0.65882353
v -0.12915996 -0.08561362 -17.03441811 0.25098039 0.27450980 0.65882353
v -0.12948972 -0.08975741 -17.02700996 0.25098039 0.27450980 0.65882353
v -0.13537061 -0.09659208 -17.02243042 0.25098039 0.27450980 0.65882353
v -0.12996393 -0.11338575 -17.03491402 0.25098039 0.27450980 0.65882353
v -0.13340768 -0.10859391 -17.03279114 0.25098039 0.27450980 0.65882353
v -0.09905390 -0.09077441 -17.11439705 0.25098039 0.27450980 0.65882353
v -0.10599970 -0.09677478 -17.10585213 0.25098039 0.27450980 0.65882353
v -0.09007953 -0.10736986 -17.07704735 0.25098039 0.27450980 0.65882353
v -0.08766174 -0.11061283 -17.07229805 0.25098039 0.27450980 0.65882353
v -0.12509552 -0.11702048 -17.05903435 0.25098039 0.27450980 0.65882353
v -0.15067582 -0.12063062 -17.04353714 0.25098039 0.27450980 0.65882353
v -0.14949469 -0.11131217 -17.04020691 0.25098039 0.27450980 0.65882353
v -0.12711544 -0.11990741 -17.05072403 0.25098039 0.27450980 0.65882353
v -0.11878785 -0.12060230 -16.99297905 0.25098039 0.27450980 0.65882353
v -0.11477527 -0.11964409 -16.99603844 0.25098039 0.27450980 0.65882353
v -0.13582835 -0.09203451 -17.02972794 0.25098039 0.27450980 0.65882353
v -0.13139059 -0.13213654 -17.07392502 0.25098039 0.27450980 0.65882353
v -0.15331605 -0.12401960 -17.04999352 0.25098039 0.27450980 0.65882353
v -0.14708054 -0.12774917 -17.04383850 0.25098039 0.27450980 0.65882353
v -0.14510018 -0.14694381 -17.09291267 0.25098039 0.27450980 0.65882353
v -0.14366081 -0.05935851 -17.12404442 0.25098039 0.27450980 0.65882353
v -0.12224806 -0.12471937 -17.01215553 0.25098039 0.27450980 0.65882353
v -0.12048901 -0.13117167 -17.00765038 0.25098039 0.27450980 0.65882353
v -0.12746653 -0.12808481 -16.99618530 0.25098039 0.27450980 0.65882353
v -0.12459585 -0.12315290 -16.99337959 0.25098039 0.27450980 0.65882353
v -0.13212146 -0.11737664 -17.12977028 0.25098039 0.27450980 0.65882353
v -0.11483297 -0.10574504 -17.09925461 0.25098039 0.27450980 0.65882353
v -0.08753210 -0.08030282 -17.06817436 0.25098039 0.27450980 0.65882353
v -0.07913655 -0.09190470 -17.06449699 0.25098039 0.27450980 0.65882353
v -0.12882756 -0.12131745 -17.04622841 0.25098039 0.27450980 0.65882353
v -0.15419072 -0.13837358 -17.07429504 0.25098039 0.27450980 0.65882353
v -0.15737635 -0.12803805 -17.06171417 0.25098039 0.27450980 0.65882353
v -0.15555121 -0.13548125 -17.05526733 0.25098039 0.27450980 0.65882353
v -0.15314221 -0.13277522 -17.04752350 0.25098039 0.27450980 0.65882353
v -0.14670727 -0.13120006 -17.04339981 0.25098039 0.27450980 0.65882353
v -0.12440955 -0.13233587 -16.99422455 0.25098039 0.27450980 0.65882353
v -0.12154612 -0.12743247 -16.99135780 0.25098039 0.27450980 0.65882353
v -0.11591400 -0.12453198 -16.99123573 0.25098039 0.27450980 0.65882353
v -0.11255796 -0.12300997 -16.99425888 0.25098039 0.27450980 0.65882353
v -0.11161007 -0.12328340 -16.99860001 0.25098039 0.27450980 0.65882353
v -0.12390552 -0.13543001 -16.99762726 0.25098039 0.27450980 0.65882353
v -0.12209419 -0.13614744 -17.00121307 0.25098039 0.27450980 0.65882353
v -0.11923467 -0.13333593 -17.00603485 0.25098039 0.27450980 0.65882353
v -0.12024106 -0.13858128 -16.99779129 0.25098039 0.27450980 0.65882353
v -0.11836863 -0.13802359 -16.99280548 0.25098039 0.27450980 0.65882353
v -0.10522900 -0.13357532 -16.99100876 0.25098039 0.27450980 0.65882353
v -0.11037341 -0.13091652 -16.98997116 0.25098039 0.27450980 0.65882353
v -0.11007985 -0.13347578 -16.98959160 0.25098039 0.27450980 0.65882353
v -0.10616542 -0.13650733 -16.99001694 0.25098039 0.27450980 0.65882353
v -0.10311712 -0.14059311 -16.98995209 0.25098039 0.27450980 0.65882353
v -0.10159406 -0.13769817 -16.99114609 0.25098039 0.27450980 0.65882353
v -0.11456241 -0.13464667 -16.99019432 0.25098039 0.27450980 0.65882353
v -0.10984904 -0.13925736 -16.99052048 0.25098039 0.27450980 0.65882353
v -0.11234618 -0.14192775 -16.99270821 0.25098039 0.27450980 0.65882353
v -0.10840082 -0.14575884 -16.99207687 0.25098039 0.27450980 0.65882353
v -0.10603426 -0.14351451 -16.99009323 0.25098039 0.27450980 0.65882353
v -0.11547332 -0.13864446 -16.99205589 0.25098039 0.27450980 0.65882353
v -0.11644134 -0.13316190 -16.98980904 0.25098039 0.27450980 0.65882353
v -0.10037278 -0.14201507 -16.99147224 0.25098039 0.27450980 0.65882353
v -0.10186610 -0.14319208 -16.98991394 0.25098039 0.27450980 0.65882353
v -0.10383776 -0.14574978 -16.99045753 0.25098039 0.27450980 0.65882353
v -0.10176939 -0.14670584 -16.99225807 0.25098039 0.27450980 0.65882353
v -0.10950685 -0.12650055 -16.99374390 0.25098039 0.27450980 0.65882353
v -0.10395871 -0.13252015 -16.99309158 0.25098039 0.27450980 0.65882353
v -0.10096598 -0.13743132 -16.99424744 0.25098039 0.27450980 0.65882353
v -0.09993406 -0.14176036 -16.99427605 0.25098039 0.27450980 0.65882353
v -0.10337940 -0.13388351 -16.99699020 0.25098039 0.27450980 0.65882353
v -0.10148538 -0.13794509 -16.99717712 0.25098039 0.27450980 0.65882353
v -0.10090378 -0.14177519 -16.99743462 0.25098039 0.27450980 0.65882353
v -0.10418127 -0.13598251 -17.00079918 0.25098039 0.27450980 0.65882353
v -0.10257103 -0.13941434 -16.99988174 0.25098039 0.27450980 0.65882353
v -0.11078623 -0.12738946 -17.00188255 0.25098039 0.27450980 0.65882353
v -0.10988686 -0.12503546 -16.99831200 0.25098039 0.27450980 0.65882353
v -0.10164155 -0.14163655 -16.99948883 0.25098039 0.27450980 0.65882353
v -0.10163487 -0.14674640 -16.99442482 0.25098039 0.27450980 0.65882353
v -0.11482160 -0.14240602 -16.99544334 0.25098039 0.27450980 0.65882353
v -0.10912523 -0.14643764 -16.99524879 0.25098039 0.27450980 0.65882353
v -0.11498140 -0.14280050 -16.99784279 0.25098039 0.27450980 0.65882353
v -0.10959570 -0.14699140 -16.99751854 0.25098039 0.27450980 0.65882353
v -0.10565145 -0.14881583 -16.99404335 0.25098039 0.27450980 0.65882353
v -0.10591577 -0.14729646 -16.99206543 0.25098039 0.27450980 0.65882353
v -0.11289989 -0.12565412 -17.00319481 0.25098039 0.27450980 0.65882353
v -0.11624259 -0.12991777 -17.00620842 0.25098039 0.27450980 0.65882353
v -0.11448908 -0.13144094 -17.00532532 0.25098039 0.27450980 0.65882353
v -0.10711178 -0.13881487 -17.00348854 0.25098039 0.27450980 0.65882353
v -0.11705409 -0.13503173 -17.00533295 0.25098039 0.27450980 0.65882353
v -0.11862412 -0.13889003 -17.00128174 0.25098039 0.27450980 0.65882353
v -0.11351848 -0.14316946 -17.00040245 0.25098039 0.27450980 0.65882353
v -0.11118740 -0.14202008 -17.00284386 0.25098039 0.27450980 0.65882353
v -0.10908010 -0.14606863 -16.99982262 0.25098039 0.27450980 0.65882353
v -0.10765675 -0.14443153 -17.00123978 0.25098039 0.27450980 0.65882353
v -0.10469741 -0.14188170 -17.00165176 0.25098039 0.27450980 0.65882353
v -0.10532194 -0.14698194 -16.99876213 0.25098039 0.27450980 0.65882353
v -0.10559745 -0.14838047 -16.99616432 0.25098039 0.27450980 0.65882353
v -0.10218035 -0.14544114 -16.99750900 0.25098039 0.27450980 0.65882353
v -0.10540877 -0.14568250 -17.00018883 0.25098039 0.27450980 0.65882353
v -0.10314388 -0.14384489 -16.99939346 0.25098039 0.27450980 0.65882353
v -0.12205689 -0.13913971 -17.01980209 0.25098039 0.27450980 0.65882353
v -0.12438798 -0.14428514 -17.02376366 0.25098039 0.27450980 0.65882353
v -0.12714143 -0.14081851 -17.02408600 0.25098039 0.27450980 0.65882353
v -0.12486827 -0.13672233 -17.02066422 0.25098039 0.27450980 0.65882353
v -0.13014716 -0.13857424 -17.00782967 0.25098039 0.27450980 0.65882353
v -0.12520882 -0.13683514 -17.01128578 0.25098039 0.27450980 0.65882353
v -0.12878790 -0.13332665 -17.01187325 0.25098039 0.27450980 0.65882353
v -0.13488549 -0.13539740 -17.00988579 0.25098039 0.27450980 0.65882353
v -0.13564628 -0.14303848 -17.00919342 0.25098039 0.27450980 0.65882353
v -0.14014983 -0.13955060 -17.01181412 0.25098039 0.27450980 0.65882353
v -0.13758492 -0.13056108 -17.01244736 0.25098039 0.27450980 0.65882353
v -0.13087934 -0.12904009 -17.01482391 0.25098039 0.27450980 0.65882353
v -0.13451757 -0.11474861 -17.02966499 0.25098039 0.27450980 0.65882353
v -0.14154819 -0.11524232 -17.02779961 0.25098039 0.27450980 0.65882353
v -0.13372524 -0.12966673 -17.04351807 0.25098039 0.27450980 0.65882353
v -0.13795960 -0.13167629 -17.04239464 0.25098039 0.27450980 0.65882353
v -0.12256970 -0.13727258 -17.01598358 0.25098039 0.27450980 0.65882353
v -0.12568274 -0.13430329 -17.01637459 0.25098039 0.27450980 0.65882353
v -0.13492402 -0.14451718 -17.02947617 0.25098039 0.27450980 0.65882353
v -0.12965637 -0.14197166 -17.02974510 0.25098039 0.27450980 0.65882353
v -0.12952137 -0.14470175 -17.02654266 0.25098039 0.27450980 0.65882353
v -0.13436419 -0.14758316 -17.02544022 0.25098039 0.27450980 0.65882353
v -0.12845615 -0.11919838 -17.03680420 0.25098039 0.27450980 0.65882353
v -0.13093702 -0.12445324 -17.04092026 0.25098039 0.27450980 0.65882353
v -0.13027066 -0.11663133 -17.03309250 0.25098039 0.27450980 0.65882353
v -0.14102855 -0.14480744 -17.02613449 0.25098039 0.27450980 0.65882353
v -0.14490250 -0.14200494 -17.02092552 0.25098039 0.27450980 0.65882353
v -0.15023133 -0.12756479 -17.03433418 0.25098039 0.27450980 0.65882353
v -0.14645754 -0.13208228 -17.03844452 0.25098039 0.27450980 0.65882353
v -0.12655576 -0.13025245 -17.01857758 0.25098039 0.27450980 0.65882353
v -0.12576610 -0.13785040 -17.02693558 0.25098039 0.27450980 0.65882353
v -0.12425630 -0.13339581 -17.02313805 0.25098039 0.27450980 0.65882353
v -0.14309722 -0.13527904 -17.01551628 0.25098039 0.27450980 0.65882353
v -0.14121506 -0.14592427 -17.01666641 0.25098039 0.27450980 0.65882353
v -0.12685899 -0.15997881 -17.01478195 0.25098039 0.27450980 0.65882353
v -0.13529526 -0.15238887 -17.01910591 0.25098039 0.27450980 0.65882353
v -0.13160589 -0.15155792 -17.02319336 0.25098039 0.27450980 0.65882353
v -0.12381944 -0.16010126 -17.01930809 0.25098039 0.27450980 0.65882353
v -0.13862562 -0.14842039 -17.02173805 0.25098039 0.27450980 0.65882353
v -0.13700464 -0.14942026 -17.01394844 0.25098039 0.27450980 0.65882353
v -0.11287620 -0.14995191 -17.01778984 0.25098039 0.27450980 0.65882353
v -0.11577001 -0.15482949 -17.02152252 0.25098039 0.27450980 0.65882353
v -0.11251764 -0.14759639 -17.01336479 0.25098039 0.27450980 0.65882353
v -0.14780757 -0.11986181 -17.03003120 0.25098039 0.27450980 0.65882353
v -0.11999425 -0.14750955 -17.00520706 0.25098039 0.27450980 0.65882353
v -0.11456663 -0.14636502 -17.00936508 0.25098039 0.27450980 0.65882353
v -0.12770049 -0.14851609 -17.02553940 0.25098039 0.27450980 0.65882353
v -0.11960430 -0.15847692 -17.02189255 0.25098039 0.27450980 0.65882353
v -0.12774912 -0.15780587 -17.01050186 0.25098039 0.27450980 0.65882353
v -0.12618445 -0.15136798 -17.00586319 0.25098039 0.27450980 0.65882353
v -0.12310058 -0.16120917 -17.00940895 0.25098039 0.27450980 0.65882353
v -0.12073164 -0.15604585 -17.00516319 0.25098039 0.27450980 0.65882353
v -0.11498381 -0.15173423 -17.00482368 0.25098039 0.27450980 0.65882353
v -0.11118360 -0.14974925 -17.00928116 0.25098039 0.27450980 0.65882353
v -0.11044443 -0.15010217 -17.01338387 0.25098039 0.27450980 0.65882353
v -0.12238528 -0.16305959 -17.01364326 0.25098039 0.27450980 0.65882353
v -0.12016616 -0.16280359 -17.01810074 0.25098039 0.27450980 0.65882353
v -0.11740935 -0.15952221 -17.02108383 0.25098039 0.27450980 0.65882353
v -0.11655404 -0.16645044 -17.01525307 0.25098039 0.27450980 0.65882353
v -0.11574388 -0.16600794 -17.01061058 0.25098039 0.27450980 0.65882353
v -0.09741019 -0.16214824 -17.01012230 0.25098039 0.27450980 0.65882353
v -0.10209768 -0.15909101 -17.00825119 0.25098039 0.27450980 0.65882353
v -0.10325524 -0.16152591 -17.00764656 0.25098039 0.27450980 0.65882353
v -0.09893380 -0.16443363 -17.00916481 0.25098039 0.27450980 0.65882353
v -0.10762978 -0.15764177 -17.00557137 0.25098039 0.27450980 0.65882353
v -0.10737908 -0.16015846 -17.00613976 0.25098039 0.27450980 0.65882353
v -0.11127079 -0.16292711 -17.00697136 0.25098039 0.27450980 0.65882353
v -0.10621122 -0.16548482 -17.00893593 0.25098039 0.27450980 0.65882353
v -0.10930479 -0.16818237 -17.01183128 0.25098039 0.27450980 0.65882353
v -0.10480499 -0.17135116 -17.01260185 0.25098039 0.27450980 0.65882353
v -0.10155627 -0.16886374 -17.00975227 0.25098039 0.27450980 0.65882353
v -0.11225511 -0.16595931 -17.00954247 0.25098039 0.27450980 0.65882353
v -0.09680021 -0.16702974 -17.01031494 0.25098039 0.27450980 0.65882353
v -0.09512708 -0.16680923 -17.01221848 0.25098039 0.27450980 0.65882353
v -0.11370116 -0.16149162 -17.00551796 0.25098039 0.27450980 0.65882353
v -0.10803342 -0.15237489 -17.00872803 0.25098039 0.27450980 0.65882353
v -0.10089821 -0.15728959 -17.01073647 0.25098039 0.27450980 0.65882353
v -0.09650879 -0.16134155 -17.01328278 0.25098039 0.27450980 0.65882353
v -0.09503517 -0.16705772 -17.01525879 0.25098039 0.27450980 0.65882353
v -0.10068426 -0.15738994 -17.01523399 0.25098039 0.27450980 0.65882353
v -0.09692314 -0.16174752 -17.01656151 0.25098039 0.27450980 0.65882353
v -0.09619196 -0.16664076 -17.01770592 0.25098039 0.27450980 0.65882353
v -0.10186817 -0.15884697 -17.01991272 0.25098039 0.27450980 0.65882353
v -0.09846205 -0.16337481 -17.02029037 0.25098039 0.27450980 0.65882353
v -0.10993677 -0.15269493 -17.01806450 0.25098039 0.27450980 0.65882353
v -0.10816094 -0.15118618 -17.01360703 0.25098039 0.27450980 0.65882353
v -0.09757294 -0.16578841 -17.01953697 0.25098039 0.27450980 0.65882353
v -0.09680626 -0.17137033 -17.01270485 0.25098039 0.27450980 0.65882353
v -0.09638685 -0.17095453 -17.01603317 0.25098039 0.27450980 0.65882353
v -0.09803202 -0.17068690 -17.01146698 0.25098039 0.27450980 0.65882353
v -0.11039063 -0.16907032 -17.01360512 0.25098039 0.27450980 0.65882353
v -0.10495971 -0.17186147 -17.01486397 0.25098039 0.27450980 0.65882353
v -0.11081608 -0.16949047 -17.01648903 0.25098039 0.27450980 0.65882353
v -0.10459751 -0.17226189 -17.01725960 0.25098039 0.27450980 0.65882353
v -0.10062765 -0.17330465 -17.01479149 0.25098039 0.27450980 0.65882353
v -0.10053572 -0.17281651 -17.01321411 0.25098039 0.27450980 0.65882353
v -0.11176650 -0.15200591 -17.01738548 0.25098039 0.27450980 0.65882353
v -0.11471388 -0.15599388 -17.02070808 0.25098039 0.27450980 0.65882353
v -0.11324552 -0.15634155 -17.02142906 0.25098039 0.27450980 0.65882353
v -0.10509458 -0.16249423 -17.02258301 0.25098039 0.27450980 0.65882353
v -0.11606670 -0.16044992 -17.02165222 0.25098039 0.27450980 0.65882353
v -0.11644365 -0.16501844 -17.01875496 0.25098039 0.27450980 0.65882353
v -0.11062437 -0.16863844 -17.01937103 0.25098039 0.27450980 0.65882353
v -0.10829954 -0.16633809 -17.02213860 0.25098039 0.27450980 0.65882353
v -0.10484932 -0.17211968 -17.01952171 0.25098039 0.27450980 0.65882353
v -0.10479410 -0.16939336 -17.02147865 0.25098039 0.27450980 0.65882353
v -0.10131997 -0.16583011 -17.02219009 0.25098039 0.27450980 0.65882353
v -0.10040183 -0.17294893 -17.01888847 0.25098039 0.27450980 0.65882353
v -0.10030169 -0.17348775 -17.01652336 0.25098039 0.27450980 0.65882353
v -0.09705663 -0.17006581 -17.01797104 0.25098039 0.27450980 0.65882353
v -0.10128288 -0.17081453 -17.02074814 0.25098039 0.27450980 0.65882353
v -0.09858409 -0.16829103 -17.02024460 0.25098039 0.27450980 0.65882353
v -0.12835699 -0.15059881 -17.03731346 0.25098039 0.27450980 0.65882353
v -0.12769842 -0.15311754 -17.04297638 0.25098039 0.27450980 0.65882353
v -0.12984538 -0.15078421 -17.04413414 0.25098039 0.27450980 0.65882353
v -0.13065732 -0.14826649 -17.03851509 0.25098039 0.27450980 0.65882353
v -0.13881285 -0.15654254 -17.03187752 0.25098039 0.27450980 0.65882353
v -0.13477135 -0.15363148 -17.03104591 0.25098039 0.27450980 0.65882353
v -0.13766822 -0.15055752 -17.03252411 0.25098039 0.27450980 0.65882353
v -0.14265092 -0.15257998 -17.03365898 0.25098039 0.27450980 0.65882353
v -0.13991565 -0.16120598 -17.03522301 0.25098039 0.27450980 0.65882353
v -0.14528133 -0.15634912 -17.03792763 0.25098039 0.27450980 0.65882353
v -0.14654759 -0.14839676 -17.03532982 0.25098039 0.27450980 0.65882353
v -0.14034362 -0.14703849 -17.03396416 0.25098039 0.27450980 0.65882353
v -0.14537734 -0.13496357 -17.04171181 0.25098039 0.27450980 0.65882353
v -0.15186720 -0.13789906 -17.04317665 0.25098039 0.27450980 0.65882353
v -0.13119946 -0.15142256 -17.03352356 0.25098039 0.27450980 0.65882353
v -0.13348399 -0.14880508 -17.03465652 0.25098039 0.27450980 0.65882353
v -0.13396364 -0.15541518 -17.05235100 0.25098039 0.27450980 0.65882353
v -0.13059673 -0.15191536 -17.05001450 0.25098039 0.27450980 0.65882353
v -0.13110456 -0.15474334 -17.04840279 0.25098039 0.27450980 0.65882353
v -0.13398859 -0.15787369 -17.04993820 0.25098039 0.27450980 0.65882353
v -0.13560782 -0.13330156 -17.04877853 0.25098039 0.27450980 0.65882353
v -0.13612236 -0.13637260 -17.05496597 0.25098039 0.27450980 0.65882353
v -0.13899940 -0.13359177 -17.04399872 0.25098039 0.27450980 0.65882353
v -0.14058602 -0.15781777 -17.05134201 0.25098039 0.27450980 0.65882353
v -0.14730509 -0.15652183 -17.04724693 0.25098039 0.27450980 0.65882353
v -0.15102589 -0.14643574 -17.05692673 0.25098039 0.27450980 0.65882353
v -0.14497787 -0.14603868 -17.06028557 0.25098039 0.27450980 0.65882353
v -0.13517991 -0.14590687 -17.03553391 0.25098039 0.27450980 0.65882353
v -0.12946948 -0.14782155 -17.04545212 0.25098039 0.27450980 0.65882353
v -0.13071740 -0.14551142 -17.03949547 0.25098039 0.27450980 0.65882353
v -0.14891654 -0.15198356 -17.04052544 0.25098039 0.27450980 0.65882353
v -0.14336663 -0.16016254 -17.04393578 0.25098039 0.27450980 0.65882353
v -0.12634717 -0.17406468 -17.04003525 0.25098039 0.27450980 0.65882353
v -0.13673067 -0.16372675 -17.04671288 0.25098039 0.27450980 0.65882353
v -0.13177064 -0.16039047 -17.04863548 0.25098039 0.27450980 0.65882353
v -0.12307583 -0.17194134 -17.04264259 0.25098039 0.27450980 0.65882353
v -0.13874128 -0.16093394 -17.04865646 0.25098039 0.27450980 0.65882353
v -0.13995618 -0.16389868 -17.04154778 0.25098039 0.27450980 0.65882353
v -0.11758420 -0.16095045 -17.03370667 0.25098039 0.27450980 0.65882353
v -0.11789860 -0.16349088 -17.03916740 0.25098039 0.27450980 0.65882353
v -0.12048230 -0.16070539 -17.03006744 0.25098039 0.27450980 0.65882353
v -0.15474984 -0.14244178 -17.04928017 0.25098039 0.27450980 0.65882353
v -0.13867725 -0.14251480 -17.06059265 0.25098039 0.27450980 0.65882353
v -0.12590040 -0.16559467 -17.02664375 0.25098039 0.27450980 0.65882353
v -0.12276156 -0.16226232 -17.02766800 0.25098039 0.27450980 0.65882353
v -0.12916368 -0.15687120 -17.04718208 0.25098039 0.27450980 0.65882353
v -0.11992551 -0.16809416 -17.04278946 0.25098039 0.27450980 0.65882353
v -0.12920919 -0.17344955 -17.03573227 0.25098039 0.27450980 0.65882353
v -0.12976380 -0.16964990 -17.02993584 0.25098039 0.27450980 0.65882353
v -0.12404382 -0.17648441 -17.03503799 0.25098039 0.27450980 0.65882353
v -0.12422180 -0.17321867 -17.02924347 0.25098039 0.27450980 0.65882353
v -0.12075437 -0.16917294 -17.02610588 0.25098039 0.27450980 0.65882353
v -0.11827393 -0.16533972 -17.02730942 0.25098039 0.27450980 0.65882353
v -0.11656343 -0.16338596 -17.02973747 0.25098039 0.27450980 0.65882353
v -0.12162703 -0.17628813 -17.03959846 0.25098039 0.27450980 0.65882353
v -0.11941081 -0.17365785 -17.04185677 0.25098039 0.27450980 0.65882353
v -0.11878024 -0.16874631 -17.04181862 0.25098039 0.27450980 0.65882353
v -0.11752573 -0.17730126 -17.04034233 0.25098039 0.27450980 0.65882353
v -0.11736829 -0.17907819 -17.03484154 0.25098039 0.27450980 0.65882353
v -0.10236479 -0.17506170 -17.02850723 0.25098039 0.27450980 0.65882353
v -0.10764879 -0.17304492 -17.02783966 0.25098039 0.27450980 0.65882353
v -0.10808515 -0.17423752 -17.02824974 0.25098039 0.27450980 0.65882353
v -0.10290441 -0.17669505 -17.02855682 0.25098039 0.27450980 0.65882353
v -0.11421477 -0.17286921 -17.02671242 0.25098039 0.27450980 0.65882353
v -0.11307126 -0.17428340 -17.02752495 0.25098039 0.27450980 0.65882353
v -0.11519806 -0.17690755 -17.02971840 0.25098039 0.27450980 0.65882353
v -0.10930239 -0.17884494 -17.03063011 0.25098039 0.27450980 0.65882353
v -0.11085975 -0.17996928 -17.03658676 0.25098039 0.27450980 0.65882353
v -0.10592911 -0.18095827 -17.03625107 0.25098039 0.27450980 0.65882353
v -0.10425122 -0.18052298 -17.03088760 0.25098039 0.27450980 0.65882353
v -0.11549492 -0.17888282 -17.03402328 0.25098039 0.27450980 0.65882353
v -0.10046391 -0.17839247 -17.02953148 0.25098039 0.27450980 0.65882353
v -0.09898284 -0.17750281 -17.02864075 0.25098039 0.27450980 0.65882353
v -0.11750607 -0.17646669 -17.02921867 0.25098039 0.27450980 0.65882353
v -0.11344800 -0.16780645 -17.02663231 0.25098039 0.27450980 0.65882353
v -0.10648668 -0.17021731 -17.02789879 0.25098039 0.27450980 0.65882353
v -0.10101053 -0.17201461 -17.02866364 0.25098039 0.27450980 0.65882353
v -0.09814437 -0.17459232 -17.03074646 0.25098039 0.27450980 0.65882353
v -0.10564674 -0.16786790 -17.03092575 0.25098039 0.27450980 0.65882353
v -0.10107622 -0.17035329 -17.03139687 0.25098039 0.27450980 0.65882353
v -0.09837562 -0.17277405 -17.03308296 0.25098039 0.27450980 0.65882353
v -0.10548712 -0.16716880 -17.03439331 0.25098039 0.27450980 0.65882353
v -0.10158955 -0.16975252 -17.03471756 0.25098039 0.27450980 0.65882353
v -0.11404380 -0.16365498 -17.03356743 0.25098039 0.27450980 0.65882353
v -0.11347738 -0.16482958 -17.02952003 0.25098039 0.27450980 0.65882353
v -0.09948780 -0.17197293 -17.03501129 0.25098039 0.27450980 0.65882353
v -0.09922002 -0.18093753 -17.03205109 0.25098039 0.27450980 0.65882353
v -0.09784484 -0.17826033 -17.03508186 0.25098039 0.27450980 0.65882353
v -0.10088673 -0.18056625 -17.03172874 0.25098039 0.27450980 0.65882353
v -0.11161876 -0.17992026 -17.03846359 0.25098039 0.27450980 0.65882353
v -0.10532294 -0.18140559 -17.03857994 0.25098039 0.27450980 0.65882353
v -0.11135428 -0.17842820 -17.04109764 0.25098039 0.27450980 0.65882353
v -0.10511250 -0.17994416 -17.04086685 0.25098039 0.27450980 0.65882353
v -0.10168430 -0.18204123 -17.03652954 0.25098039 0.27450980 0.65882353
v -0.10228337 -0.18179548 -17.03554916 0.25098039 0.27450980 0.65882353
v -0.11628644 -0.16299969 -17.03380013 0.25098039 0.27450980 0.65882353
v -0.11705601 -0.16492739 -17.03878021 0.25098039 0.27450980 0.65882353
v -0.11514764 -0.16505384 -17.03845406 0.25098039 0.27450980 0.65882353
v -0.10598202 -0.16840255 -17.03925896 0.25098039 0.27450980 0.65882353
v -0.11675392 -0.16854471 -17.04179764 0.25098039 0.27450980 0.65882353
v -0.11562026 -0.17439857 -17.04226685 0.25098039 0.27450980 0.65882353
v -0.10991711 -0.17548597 -17.04237366 0.25098039 0.27450980 0.65882353
v -0.10765775 -0.17207180 -17.04203606 0.25098039 0.27450980 0.65882353
v -0.10454813 -0.17731351 -17.04193306 0.25098039 0.27450980 0.65882353
v -0.10443801 -0.17444037 -17.04139900 0.25098039 0.27450980 0.65882353
v -0.10208999 -0.17066240 -17.03888130 0.25098039 0.27450980 0.65882353
v -0.10111222 -0.17764802 -17.03958893 0.25098039 0.27450980 0.65882353
v -0.10105819 -0.18040121 -17.03859711 0.25098039 0.27450980 0.65882353
v -0.09829096 -0.17553762 -17.03665352 0.25098039 0.27450980 0.65882353
v -0.10138734 -0.17519478 -17.04001045 0.25098039 0.27450980 0.65882353
v -0.09935006 -0.17348865 -17.03771210 0.25098039 0.27450980 0.65882353
v -0.13682565 -0.13947599 -17.05878830 0.25098039 0.27450980 0.65882353
v -0.12676078 -0.15624431 -17.06398964 0.25098039 0.27450980 0.65882353
v -0.12555620 -0.15788373 -17.06784058 0.25098039 0.27450980 0.65882353
v -0.12805562 -0.15684956 -17.06988525 0.25098039 0.27450980 0.65882353
v -0.12908165 -0.15404980 -17.06653595 0.25098039 0.27450980 0.65882353
v -0.13602105 -0.16163340 -17.06049156 0.25098039 0.27450980 0.65882353
v -0.13263437 -0.15866104 -17.05965424 0.25098039 0.27450980 0.65882353
v -0.13568628 -0.15580122 -17.06170845 0.25098039 0.27450980 0.65882353
v -0.13890903 -0.15853250 -17.06249428 0.25098039 0.27450980 0.65882353
v -0.13694654 -0.16525002 -17.06371880 0.25098039 0.27450980 0.65882353
v -0.13984832 -0.16234106 -17.06587982 0.25098039 0.27450980 0.65882353
v -0.14183365 -0.15605491 -17.06349564 0.25098039 0.27450980 0.65882353
v -0.13803959 -0.15316331 -17.06286049 0.25098039 0.27450980 0.65882353
v -0.14451744 -0.14269248 -17.06861496 0.25098039 0.27450980 0.65882353
v -0.14964691 -0.14480177 -17.07090569 0.25098039 0.27450980 0.65882353
v -0.14154837 -0.15098077 -17.08905602 0.25098039 0.27450980 0.65882353
v -0.13729940 -0.14698669 -17.08826637 0.25098039 0.27450980 0.65882353
v -0.13472143 -0.15260097 -17.08338165 0.25098039 0.27450980 0.65882353
v -0.13901605 -0.15516347 -17.08527756 0.25098039 0.27450980 0.65882353
v -0.12938297 -0.15675688 -17.06112671 0.25098039 0.27450980 0.65882353
v -0.13156667 -0.15366018 -17.06319427 0.25098039 0.27450980 0.65882353
v -0.13316777 -0.16208041 -17.07807159 0.25098039 0.27450980 0.65882353
v -0.12999910 -0.15885836 -17.07595253 0.25098039 0.27450980 0.65882353
v -0.12829733 -0.15953512 -17.07354546 0.25098039 0.27450980 0.65882353
v -0.13027193 -0.16343939 -17.07587051 0.25098039 0.27450980 0.65882353
v -0.13488510 -0.14453807 -17.08324814 0.25098039 0.27450980 0.65882353
v -0.13520634 -0.14299822 -17.07773590 0.25098039 0.27450980 0.65882353
v -0.13329899 -0.14507383 -17.07605362 0.25098039 0.27450980 0.65882353
v -0.13256687 -0.14964974 -17.07900429 0.25098039 0.27450980 0.65882353
v -0.13652410 -0.14326972 -17.07106018 0.25098039 0.27450980 0.65882353
v -0.13693763 -0.16393173 -17.07716560 0.25098039 0.27450980 0.65882353
v -0.14129272 -0.16371055 -17.07304764 0.25098039 0.27450980 0.65882353
v -0.14994112 -0.15519498 -17.08227730 0.25098039 0.27450980 0.65882353
v -0.14496666 -0.15559152 -17.08517456 0.25098039 0.27450980 0.65882353
v -0.13351151 -0.15215531 -17.06362534 0.25098039 0.27450980 0.65882353
v -0.12897405 -0.15570691 -17.07200813 0.25098039 0.27450980 0.65882353
v -0.12983757 -0.15336472 -17.06770515 0.25098039 0.27450980 0.65882353
v -0.14359528 -0.16037326 -17.06717110 0.25098039 0.27450980 0.65882353
v -0.13779321 -0.16549310 -17.07101822 0.25098039 0.27450980 0.65882353
v -0.12486552 -0.17253140 -17.06894302 0.25098039 0.27450980 0.65882353
v -0.13122013 -0.16762656 -17.07354546 0.25098039 0.27450980 0.65882353
v -0.12730072 -0.16461003 -17.07404327 0.25098039 0.27450980 0.65882353
v -0.12250819 -0.17050460 -17.06939507 0.25098039 0.27450980 0.65882353
v -0.13408981 -0.16566664 -17.07502747 0.25098039 0.27450980 0.65882353
v -0.13492972 -0.16828883 -17.06903648 0.25098039 0.27450980 0.65882353
v -0.12091058 -0.16166429 -17.06011963 0.25098039 0.27450980 0.65882353
v -0.12010651 -0.16391426 -17.06512070 0.25098039 0.27450980 0.65882353
v -0.12307601 -0.16199985 -17.05753136 0.25098039 0.27450980 0.65882353
v -0.15239839 -0.14958960 -17.07586861 0.25098039 0.27450980 0.65882353
v -0.12883139 -0.16720533 -17.05635834 0.25098039 0.27450980 0.65882353
v -0.12556890 -0.16403377 -17.05573463 0.25098039 0.27450980 0.65882353
v -0.12564871 -0.16082752 -17.07125664 0.25098039 0.27450980 0.65882353
v -0.12079167 -0.16729206 -17.06821823 0.25098039 0.27450980 0.65882353
v -0.12804738 -0.17337956 -17.06587601 0.25098039 0.27450980 0.65882353
v -0.13064089 -0.17127666 -17.06029510 0.25098039 0.27450980 0.65882353
v -0.12429938 -0.17525539 -17.06364250 0.25098039 0.27450980 0.65882353
v -0.12711129 -0.17286566 -17.05830383 0.25098039 0.27450980 0.65882353
v -0.12483525 -0.16842182 -17.05461884 0.25098039 0.27450980 0.65882353
v -0.12284409 -0.16514376 -17.05505562 0.25098039 0.27450980 0.65882353
v -0.12070473 -0.16321909 -17.05666161 0.25098039 0.27450980 0.65882353
v -0.12143987 -0.17429672 -17.06691933 0.25098039 0.27450980 0.65882353
v -0.11948372 -0.17191181 -17.06777954 0.25098039 0.27450980 0.65882353
v -0.11845838 -0.16823439 -17.06717682 0.25098039 0.27450980 0.65882353
v -0.11789087 -0.17583367 -17.06497574 0.25098039 0.27450980 0.65882353
v -0.11925559 -0.17716193 -17.06052017 0.25098039 0.27450980 0.65882353
v -0.11038545 -0.17210287 -17.05172920 0.25098039 0.27450980 0.65882353
v -0.11408569 -0.17063677 -17.05249214 0.25098039 0.27450980 0.65882353
v -0.11452830 -0.17177066 -17.05260468 0.25098039 0.27450980 0.65882353
v -0.11084327 -0.17298548 -17.05119896 0.25098039 0.27450980 0.65882353
v -0.11940170 -0.17044723 -17.05344582 0.25098039 0.27450980 0.65882353
v -0.11857563 -0.17187731 -17.05369568 0.25098039 0.27450980 0.65882353
v -0.12014140 -0.17418352 -17.05599785 0.25098039 0.27450980 0.65882353
v -0.11545946 -0.17569920 -17.05414581 0.25098039 0.27450980 0.65882353
v -0.11398939 -0.17838958 -17.05872917 0.25098039 0.27450980 0.65882353
v -0.11036838 -0.17924851 -17.05689240 0.25098039 0.27450980 0.65882353
v -0.11209159 -0.17697462 -17.05289078 0.25098039 0.27450980 0.65882353
v -0.11840547 -0.17711020 -17.05862236 0.25098039 0.27450980 0.65882353
v -0.10889847 -0.17481700 -17.05060387 0.25098039 0.27450980 0.65882353
v -0.10773229 -0.17443500 -17.05033684 0.25098039 0.27450980 0.65882353
v -0.12194472 -0.17402503 -17.05624390 0.25098039 0.27450980 0.65882353
v -0.11878695 -0.16632277 -17.05405807 0.25098039 0.27450980 0.65882353
v -0.11250713 -0.16868436 -17.05263519 0.25098039 0.27450980 0.65882353
v -0.10835169 -0.17114374 -17.05167198 0.25098039 0.27450980 0.65882353
v -0.10602651 -0.17391317 -17.05172157 0.25098039 0.27450980 0.65882353
v -0.11191618 -0.16685891 -17.05447578 0.25098039 0.27450980 0.65882353
v -0.10709535 -0.16980653 -17.05316353 0.25098039 0.27450980 0.65882353
v -0.10491332 -0.17265140 -17.05340576 0.25098039 0.27450980 0.65882353
v -0.11088710 -0.16598165 -17.05764198 0.25098039 0.27450980 0.65882353
v -0.10674693 -0.16933370 -17.05569839 0.25098039 0.27450980 0.65882353
v -0.11654738 -0.16334721 -17.05985641 0.25098039 0.27450980 0.65882353
v -0.11754443 -0.16414109 -17.05637550 0.25098039 0.27450980 0.65882353
v -0.10527590 -0.17192701 -17.05497360 0.25098039 0.27450980 0.65882353
v -0.10731851 -0.17791060 -17.05194473 0.25098039 0.27450980 0.65882353
v -0.10532141 -0.17647377 -17.05358696 0.25098039 0.27450980 0.65882353
v -0.10870007 -0.17818385 -17.05192566 0.25098039 0.27450980 0.65882353
v -0.11368816 -0.17854267 -17.06022453 0.25098039 0.27450980 0.65882353
v -0.10927233 -0.17945600 -17.05804062 0.25098039 0.27450980 0.65882353
v -0.11263932 -0.17756763 -17.06245232 0.25098039 0.27450980 0.65882353
v -0.10788578 -0.17829576 -17.05937386 0.25098039 0.27450980 0.65882353
v -0.10715090 -0.17942378 -17.05524635 0.25098039 0.27450980 0.65882353
v -0.10873656 -0.17925444 -17.05457687 0.25098039 0.27450980 0.65882353
v -0.11840476 -0.16273211 -17.06008720 0.25098039 0.27450980 0.65882353
v -0.11819286 -0.16468537 -17.06414986 0.25098039 0.27450980 0.65882353
v -0.11614797 -0.16553855 -17.06380463 0.25098039 0.27450980 0.65882353
v -0.11036568 -0.16762614 -17.06138992 0.25098039 0.27450980 0.65882353
v -0.11636189 -0.16922358 -17.06652069 0.25098039 0.27450980 0.65882353
v -0.11705399 -0.17314413 -17.06656647 0.25098039 0.27450980 0.65882353
v -0.11145183 -0.17515880 -17.06358337 0.25098039 0.27450980 0.65882353
v -0.11037921 -0.17170852 -17.06360435 0.25098039 0.27450980 0.65882353
v -0.10673571 -0.17644939 -17.05998039 0.25098039 0.27450980 0.65882353
v -0.10631491 -0.17338201 -17.06027603 0.25098039 0.27450980 0.65882353
v -0.10625022 -0.17047212 -17.05875015 0.25098039 0.27450980 0.65882353
v -0.10497187 -0.17621303 -17.05677223 0.25098039 0.27450980 0.65882353
v -0.10548290 -0.17792617 -17.05607605 0.25098039 0.27450980 0.65882353
v -0.10466845 -0.17496091 -17.05495644 0.25098039 0.27450980 0.65882353
v -0.10487658 -0.17437139 -17.05747604 0.25098039 0.27450980 0.65882353
v -0.10488799 -0.17314053 -17.05643082 0.25098039 0.27450980 0.65882353
v -0.14511678 -0.15244271 -17.08719254 0.25098039 0.27450980 0.65882353
v -0.07662144 -0.10525142 -17.05720711 0.25098039 0.27450980 0.65882353
v -0.08044825 -0.10989758 -17.05835533 0.25098039 0.27450980 0.65882353
v -0.07282859 -0.11885124 -17.07252312 0.25098039 0.27450980 0.65882353
v -0.07840508 -0.11956954 -17.06677055 0.25098039 0.27450980 0.65882353
v -0.06703645 -0.11515272 -17.07477951 0.25098039 0.27450980 0.65882353
v -0.06361604 -0.10481527 -17.06977272 0.25098039 0.27450980 0.65882353
v -0.06440771 -0.10954210 -17.07406807 0.25098039 0.27450980 0.65882353
v -0.08121710 -0.11620285 -17.06163406 0.25098039 0.27450980 0.65882353
v -0.07153912 -0.10157481 -17.05875587 0.25098039 0.27450980 0.65882353
v -0.06603016 -0.10097558 -17.06396675 0.25098039 0.27450980 0.65882353
v -0.06892686 -0.10643477 -17.05398560 0.25098039 0.27450980 0.65882353
v -0.06273687 -0.10614008 -17.05908012 0.25098039 0.27450980 0.65882353
v -0.05936438 -0.11004631 -17.06438065 0.25098039 0.27450980 0.65882353
v -0.06061801 -0.11495420 -17.06936455 0.25098039 0.27450980 0.65882353
v -0.06332596 -0.11901800 -17.07105446 0.25098039 0.27450980 0.65882353
v -0.07462838 -0.11043534 -17.05350685 0.25098039 0.27450980 0.65882353
v -0.07819453 -0.11525947 -17.05518341 0.25098039 0.27450980 0.65882353
v -0.07874088 -0.12038007 -17.06020546 0.25098039 0.27450980 0.65882353
v -0.07251799 -0.11749646 -17.05015182 0.25098039 0.27450980 0.65882353
v -0.06365310 -0.12129405 -17.04643440 0.25098039 0.27450980 0.65882353
v -0.04863611 -0.13152558 -17.05019379 0.25098039 0.27450980 0.65882353
v -0.05128185 -0.12768778 -17.05483818 0.25098039 0.27450980 0.65882353
v -0.05158412 -0.12649933 -17.05203819 0.25098039 0.27450980 0.65882353
v -0.04858012 -0.12966077 -17.04806137 0.25098039 0.27450980 0.65882353
v -0.05359679 -0.12296268 -17.05579758 0.25098039 0.27450980 0.65882353
v -0.05389379 -0.12367535 -17.05333138 0.25098039 0.27450980 0.65882353
v -0.05743116 -0.12169545 -17.04997635 0.25098039 0.27450980 0.65882353
v -0.05464913 -0.12429117 -17.04661369 0.25098039 0.27450980 0.65882353
v -0.06110588 -0.12260921 -17.04641151 0.25098039 0.27450980 0.65882353
v -0.06043148 -0.12511398 -17.04398346 0.25098039 0.27450980 0.65882353
v -0.05223195 -0.12719639 -17.04315186 0.25098039 0.27450980 0.65882353
v -0.04770394 -0.13053249 -17.04432487 0.25098039 0.27450980 0.65882353
v -0.05028345 -0.13021025 -17.04031944 0.25098039 0.27450980 0.65882353
v -0.04815939 -0.13365294 -17.04534721 0.25098039 0.27450980 0.65882353
v -0.05731443 -0.11980335 -17.05003738 0.25098039 0.27450980 0.65882353
v -0.05573781 -0.12186988 -17.06298828 0.25098039 0.27450980 0.65882353
v -0.05283800 -0.12894149 -17.05832291 0.25098039 0.27450980 0.65882353
v -0.05069345 -0.13393196 -17.05259132 0.25098039 0.27450980 0.65882353
v -0.05009206 -0.13596594 -17.04661751 0.25098039 0.27450980 0.65882353
v -0.05634594 -0.13135348 -17.06026459 0.25098039 0.27450980 0.65882353
v -0.05473568 -0.13542531 -17.05408669 0.25098039 0.27450980 0.65882353
v -0.05472344 -0.13712624 -17.04844284 0.25098039 0.27450980 0.65882353
v -0.06109224 -0.13312969 -17.05985641 0.25098039 0.27450980 0.65882353
v -0.05875155 -0.13606392 -17.05360603 0.25098039 0.27450980 0.65882353
v -0.06709591 -0.12439008 -17.06780624 0.25098039 0.27450980 0.65882353
v -0.06042889 -0.12309080 -17.06773758 0.25098039 0.27450980 0.65882353
v -0.05743691 -0.13686985 -17.04947853 0.25098039 0.27450980 0.65882353
v -0.05060709 -0.13289875 -17.03968239 0.25098039 0.27450980 0.65882353
v -0.05298755 -0.13557321 -17.04109573 0.25098039 0.27450980 0.65882353
v -0.06415766 -0.12558186 -17.04342079 0.25098039 0.27450980 0.65882353
v -0.05799302 -0.12740278 -17.04012108 0.25098039 0.27450980 0.65882353
v -0.06104630 -0.12920132 -17.04016113 0.25098039 0.27450980 0.65882353
v -0.06808475 -0.12620428 -17.04467964 0.25098039 0.27450980 0.65882353
v -0.06340806 -0.13091239 -17.04089546 0.25098039 0.27450980 0.65882353
v -0.05640450 -0.13145176 -17.03820038 0.25098039 0.27450980 0.65882353
v -0.05467007 -0.12907350 -17.03893280 0.25098039 0.27450980 0.65882353
v -0.06925860 -0.12157662 -17.07026672 0.25098039 0.27450980 0.65882353
v -0.07520962 -0.12179644 -17.06626511 0.25098039 0.27450980 0.65882353
v -0.07319015 -0.12413381 -17.06381798 0.25098039 0.27450980 0.65882353
v -0.06724705 -0.13279626 -17.05677223 0.25098039 0.27450980 0.65882353
v -0.07654084 -0.12355746 -17.05804634 0.25098039 0.27450980 0.65882353
v -0.07563239 -0.12041190 -17.05256844 0.25098039 0.27450980 0.65882353
v -0.07035448 -0.12846579 -17.04703903 0.25098039 0.27450980 0.65882353
v -0.07055309 -0.13091101 -17.05153656 0.25098039 0.27450980 0.65882353
v -0.06483701 -0.13315226 -17.04366493 0.25098039 0.27450980 0.65882353
v -0.06477430 -0.13437931 -17.04665756 0.25098039 0.27450980 0.65882353
v -0.06227219 -0.13611308 -17.05079651 0.25098039 0.27450980 0.65882353
v -0.06031640 -0.13535133 -17.04238701 0.25098039 0.27450980 0.65882353
v -0.05867264 -0.13368335 -17.03943253 0.25098039 0.27450980 0.65882353
v -0.05659236 -0.13682161 -17.04405975 0.25098039 0.27450980 0.65882353
v -0.06144297 -0.13561468 -17.04508209 0.25098039 0.27450980 0.65882353
v -0.05913389 -0.13661462 -17.04689026 0.25098039 0.27450980 0.65882353
v -0.13834356 -0.14428937 -17.09127998 0.25098039 0.27450980 0.65882353
v -0.13492623 -0.14099342 -17.08612442 0.25098039 0.27450980 0.65882353
v -0.13510269 -0.13931590 -17.09136581 0.25098039 0.27450980 0.65882353
v -0.13161242 -0.13653362 -17.09816551 0.25098039 0.27450980 0.65882353
v -0.13313012 -0.13493067 -17.10832405 0.25098039 0.27450980 0.65882353
v -0.12887532 -0.13166924 -17.09357452 0.25098039 0.27450980 0.65882353
v -0.13283041 -0.13504890 -17.08661461 0.25098039 0.27450980 0.65882353
v -0.13341120 -0.13783516 -17.07839012 0.25098039 0.27450980 0.65882353
v -0.12392256 -0.12310231 -17.09557915 0.25098039 0.27450980 0.65882353
f 2 3 1
f 1 3 4
f 5 6 8
f 8 6 7
f 9 4 10
f 10 4 3
f 12 13 11
f 11 13 9
f 14 12 16
f 16 12 15
f 18 19 17
f 17 19 20
f 22 23 21
f 21 23 24
f 26 27 25
f 25 27 28
f 30 31 29
f 29 31 32
f 33 34 36
f 36 34 35
f 37 38 40
f 40 38 39
f 41 42 6
f 6 42 43
f 6 43 7
f 7 43 44
f 45 34 46
f 46 34 33
f 48 49 47
f 47 49 50
f 52 53 51
f 51 53 54
f 56 52 55
f 55 52 51
f 58 59 57
f 57 59 60
f 61 62 4
f 4 62 1
f 64 65 63
f 63 65 66
f 68 69 67
f 67 69 70
f 72 73 71
f 71 73 74
f 76 77 75
f 75 77 78
f 53 79 54
f 54 79 80
f 82 83 81
f 81 83 84
f 85 86 52
f 52 86 53
f 57 60 87
f 87 60 88
f 89 90 43
f 43 90 44
f 43 42 89
f 89 42 91
f 40 39 92
f 92 39 93
f 94 70 64
f 64 70 69
f 13 61 9
f 9 61 4
f 25 28 69
f 69 28 95
f 96 25 68
f 68 25 69
f 98 99 97
f 97 99 100
f 101 102 104
f 104 102 103
f 106 30 105
f 105 30 29
f 51 54 107
f 107 54 108
f 54 80 108
f 108 80 109
f 111 112 110
f 110 112 113
f 115 5 114
f 114 5 116
f 115 41 5
f 5 41 6
f 36 35 111
f 111 35 117
f 35 118 117
f 117 118 119
f 34 120 35
f 35 120 118
f 34 45 120
f 120 45 121
f 125 126 124
f 124 126 127
f 128 129 14
f 14 129 130
f 33 131 46
f 46 131 132
f 133 94 63
f 63 94 64
f 134 135 137
f 137 135 136
f 139 140 138
f 138 140 141
f 77 142 78
f 78 142 143
f 144 145 20
f 20 145 146
f 148 149 147
f 147 149 72
f 151 152 150
f 150 152 153
f 82 101 83
f 83 101 104
f 101 82 155
f 155 82 154
f 156 157 58
f 58 157 59
f 158 68 147
f 147 68 67
f 159 146 15
f 15 146 16
f 68 158 96
f 96 158 160
f 129 66 130
f 130 66 65
f 162 163 161
f 161 163 164
f 166 167 165
f 165 167 168
f 170 171 169
f 169 171 172
f 174 171 173
f 173 171 170
f 176 177 175
f 175 177 178
f 180 181 179
f 179 181 24
f 182 183 21
f 21 183 184
f 81 185 82
f 82 185 154
f 186 187 188
f 188 187 144
f 158 71 160
f 160 71 189
f 190 135 157
f 157 135 59
f 169 172 139
f 139 172 140
f 147 72 158
f 158 72 71
f 192 193 191
f 191 193 194
f 167 166 49
f 49 166 195
f 196 190 50
f 50 190 157
f 197 198 200
f 200 198 199
f 21 24 182
f 182 24 181
f 146 159 20
f 20 159 17
f 182 181 81
f 81 181 185
f 201 185 180
f 180 185 181
f 202 203 83
f 83 203 84
f 205 206 204
f 204 206 85
f 207 22 184
f 184 22 21
f 179 24 208
f 208 24 23
f 208 209 179
f 179 209 205
f 209 210 205
f 205 210 206
f 212 206 211
f 211 206 210
f 179 205 180
f 180 205 204
f 213 176 88
f 88 176 214
f 86 85 212
f 212 85 206
f 193 217 218
f 217 219 218
f 218 219 220
f 219 18 220
f 220 18 17
f 19 221 20
f 20 221 144
f 222 223 225
f 225 223 224
f 175 226 176
f 176 226 214
f 227 87 214
f 214 87 88
f 220 17 228
f 228 17 159
f 134 213 60
f 60 213 88
f 138 229 151
f 151 229 152
f 193 192 210
f 210 192 211
f 230 194 218
f 218 194 193
f 231 232 228
f 228 232 230
f 233 234 91
f 91 234 89
f 235 236 93
f 93 236 92
f 230 232 234
f 234 232 237
f 47 238 48
f 48 238 239
f 240 191 235
f 235 191 236
f 5 8 116
f 116 8 241
f 242 243 189
f 189 243 160
f 244 245 98
f 98 245 99
f 156 246 47
f 47 246 238
f 76 247 77
f 77 247 248
f 250 125 249
f 249 125 124
f 252 253 251
f 251 253 254
f 111 110 36
f 36 110 255
f 256 33 255
f 255 33 36
f 257 258 154
f 154 258 155
f 63 169 133
f 133 169 139
f 66 170 63
f 63 170 169
f 173 170 129
f 129 170 66
f 129 128 173
f 173 128 259
f 128 260 259
f 259 260 261
f 213 134 262
f 262 134 137
f 263 264 186
f 186 264 187
f 112 265 113
f 113 265 266
f 11 267 268
f 234 233 230
f 230 233 194
f 153 269 70
f 70 269 67
f 175 178 165
f 165 178 141
f 150 153 94
f 94 153 70
f 271 221 270
f 270 221 207
f 269 153 272
f 272 153 152
f 121 45 109
f 109 45 108
f 47 50 156
f 156 50 157
f 57 273 58
f 58 273 274
f 145 275 260
f 260 275 261
f 276 149 143
f 143 149 78
f 148 269 75
f 75 269 272
f 207 277 270
f 270 277 278
f 195 196 49
f 49 196 50
f 59 135 60
f 60 135 134
f 83 104 202
f 202 104 279
f 149 148 78
f 78 148 75
f 247 278 248
f 248 278 277
f 183 182 84
f 84 182 81
f 48 239 281
f 281 239 282
f 227 223 283
f 283 223 222
f 223 226 224
f 224 226 168
f 281 282 224
f 224 282 225
f 165 168 175
f 175 168 226
f 264 263 138
f 138 263 229
f 14 16 128
f 128 16 260
f 220 228 218
f 218 228 230
f 87 227 284
f 284 227 283
f 260 16 145
f 145 16 146
f 244 98 258
f 258 98 155
f 58 274 156
f 156 274 246
f 107 285 51
f 51 285 55
f 243 286 160
f 160 286 96
f 234 237 89
f 89 237 90
f 46 132 107
f 107 132 285
f 253 252 249
f 249 252 250
f 286 26 96
f 96 26 25
f 106 105 287
f 287 105 288
f 272 152 289
f 289 152 229
f 138 151 139
f 139 151 133
f 183 290 161
f 161 290 162
f 291 292 277
f 277 292 293
f 151 150 133
f 133 150 94
f 262 275 177
f 177 275 187
f 144 187 145
f 145 187 275
f 273 57 284
f 284 57 87
f 174 136 190
f 190 136 135
f 111 117 112
f 112 117 38
f 117 119 38
f 38 119 123
f 112 38 265
f 265 38 37
f 287 288 254
f 254 288 251
f 228 159 231
f 231 159 15
f 223 227 226
f 226 227 214
f 147 67 148
f 148 67 269
f 224 168 281
f 281 168 167
f 199 163 200
f 200 163 162
f 45 46 108
f 108 46 107
f 281 167 48
f 48 167 49
f 161 164 291
f 291 164 292
f 38 123 39
f 293 294 277
f 277 294 248
f 284 283 296
f 296 283 295
f 284 296 273
f 273 296 297
f 274 273 298
f 298 273 297
f 246 274 299
f 299 274 298
f 283 222 295
f 295 222 300
f 222 225 300
f 300 225 301
f 301 225 302
f 302 225 282
f 303 304 300
f 300 304 295
f 306 307 305
f 305 307 308
f 309 310 308
f 308 310 305
f 308 307 312
f 312 307 311
f 313 314 312
f 312 314 315
f 311 316 312
f 312 316 313
f 317 304 311
f 311 304 316
f 315 309 312
f 312 309 308
f 318 319 321
f 321 319 320
f 319 318 309
f 309 318 310
f 311 307 317
f 317 307 306
f 306 297 317
f 317 297 296
f 306 322 297
f 297 322 298
f 305 323 306
f 306 323 322
f 323 305 324
f 324 305 310
f 304 317 295
f 295 317 296
f 318 325 310
f 310 325 324
f 323 324 326
f 326 324 327
f 324 325 327
f 327 325 328
f 326 327 329
f 329 327 330
f 329 331 326
f 326 331 332
f 333 330 328
f 328 330 327
f 323 326 322
f 322 326 332
f 322 332 298
f 298 332 299
f 325 318 334
f 334 318 321
f 313 316 335
f 335 316 304
f 335 336 313
f 313 336 314
f 304 303 335
f 335 303 337
f 336 335 338
f 338 335 337
f 336 339 314
f 314 339 340
f 246 299 238
f 238 299 341
f 239 342 282
f 282 342 302
f 342 239 341
f 341 239 238
f 341 331 342
f 342 331 343
f 331 329 343
f 343 329 344
f 342 343 302
f 302 343 345
f 341 299 331
f 331 299 332
f 346 301 345
f 345 301 302
f 346 303 301
f 301 303 300
f 347 337 346
f 346 337 303
f 347 346 348
f 348 346 345
f 349 347 350
f 350 347 348
f 343 344 345
f 345 344 348
f 344 351 348
f 348 351 350
f 337 347 338
f 338 347 349
f 353 338 352
f 352 338 349
f 352 355 354
f 354 355 356
f 352 349 355
f 355 349 350
f 352 354 353
f 353 354 334
f 353 334 339
f 339 334 321
f 339 336 353
f 353 336 338
f 329 330 344
f 344 330 351
f 356 351 333
f 333 351 330
f 356 355 351
f 351 355 350
f 354 356 328
f 328 356 333
f 328 325 354
f 354 325 334
f 309 315 319
f 319 315 320
f 320 340 321
f 321 340 339
f 320 315 340
f 340 315 314
f 137 136 261
f 261 136 259
f 140 166 141
f 141 166 165
f 172 171 195
f 195 171 196
f 171 174 196
f 196 174 190
f 178 177 264
f 264 177 187
f 172 195 140
f 140 195 166
f 137 261 262
f 262 261 275
f 178 264 141
f 141 264 138
f 262 177 213
f 213 177 176
f 136 174 259
f 259 174 173
f 358 359 357
f 357 359 360
f 362 363 361
f 361 363 364
f 361 364 365
f 365 364 366
f 367 368 370
f 370 368 369
f 76 371 247
f 247 371 372
f 373 374 362
f 362 374 363
f 376 377 375
f 375 377 378
f 289 229 380
f 380 229 379
f 381 379 263
f 263 379 229
f 383 384 382
f 382 384 385
f 386 368 374
f 374 368 363
f 76 289 371
f 371 289 380
f 377 376 359
f 359 376 387
f 388 386 360
f 360 386 374
f 389 383 366
f 366 383 390
f 392 393 391
f 391 393 394
f 383 382 390
f 390 382 395
f 396 365 390
f 390 365 366
f 389 366 367
f 367 366 364
f 357 397 358
f 358 397 398
f 373 399 357
f 357 399 397
f 389 367 400
f 400 367 370
f 382 385 375
f 375 385 372
f 357 360 373
f 373 360 374
f 361 401 362
f 362 401 402
f 387 388 359
f 359 388 360
f 363 368 364
f 364 368 367
f 358 398 403
f 403 398 404
f 396 392 405
f 405 392 391
f 392 395 393
f 393 395 378
f 393 403 394
f 394 403 404
f 375 378 382
f 382 378 395
f 365 396 406
f 406 396 405
f 362 402 373
f 373 402 399
f 271 270 400
f 400 270 384
f 401 361 406
f 406 361 365
f 381 369 386
f 386 369 368
f 392 396 395
f 395 396 390
f 393 378 403
f 403 378 377
f 403 377 358
f 358 377 359
f 406 405 408
f 408 405 407
f 406 408 401
f 401 408 409
f 401 409 402
f 402 409 410
f 402 410 399
f 399 410 411
f 405 391 407
f 407 391 412
f 391 394 412
f 412 394 413
f 394 404 413
f 413 404 414
f 415 416 412
f 412 416 407
f 418 419 417
f 417 419 420
f 421 422 418
f 418 422 419
f 419 422 424
f 424 422 423
f 425 426 424
f 424 426 427
f 423 428 424
f 424 428 425
f 427 420 424
f 424 420 419
f 420 429 417
f 417 429 430
f 423 422 431
f 431 422 421
f 421 409 431
f 431 409 408
f 421 432 409
f 409 432 410
f 418 433 421
f 421 433 432
f 434 433 417
f 417 433 418
f 431 416 423
f 423 416 428
f 416 431 407
f 407 431 408
f 435 434 430
f 430 434 417
f 433 434 436
f 436 434 437
f 434 435 437
f 437 435 438
f 436 437 439
f 439 437 440
f 439 441 436
f 436 441 442
f 438 443 437
f 437 443 440
f 436 442 433
f 433 442 432
f 432 442 410
f 410 442 411
f 435 430 445
f 445 430 444
f 430 429 444
f 444 429 446
f 425 428 447
f 447 428 416
f 426 425 448
f 448 425 447
f 416 415 447
f 447 415 449
f 447 449 448
f 448 449 450
f 451 452 448
f 448 452 426
f 446 452 444
f 444 452 451
f 399 411 397
f 397 411 453
f 398 454 404
f 404 454 414
f 454 398 453
f 453 398 397
f 453 441 454
f 454 441 455
f 441 439 455
f 455 439 456
f 454 455 414
f 414 455 457
f 441 453 442
f 442 453 411
f 458 413 457
f 457 413 414
f 458 415 413
f 413 415 412
f 458 459 415
f 415 459 449
f 459 458 460
f 460 458 457
f 461 459 462
f 462 459 460
f 455 456 457
f 457 456 460
f 456 463 460
f 460 463 462
f 459 461 449
f 449 461 450
f 465 450 464
f 464 450 461
f 464 467 466
f 466 467 468
f 464 461 467
f 467 461 462
f 464 466 465
f 465 466 445
f 465 445 451
f 451 445 444
f 451 448 465
f 465 448 450
f 439 440 456
f 456 440 463
f 468 463 443
f 443 463 440
f 468 467 463
f 463 467 462
f 466 468 438
f 438 468 443
f 438 435 466
f 466 435 445
f 420 427 429
f 429 427 446
f 446 427 452
f 452 427 426
f 370 369 188
f 188 369 186
f 371 376 372
f 372 376 375
f 380 379 387
f 387 379 388
f 379 381 388
f 388 381 386
f 385 384 278
f 278 384 270
f 380 387 371
f 371 387 376
f 400 370 271
f 271 370 188
f 385 278 372
f 372 278 247
f 400 384 389
f 389 384 383
f 369 381 186
f 186 381 263
f 221 271 144
f 144 271 188
f 221 19 207
f 207 19 22
f 19 18 22
f 22 18 23
f 18 219 23
f 23 219 208
f 469 470 472
f 472 470 471
f 474 475 473
f 473 475 476
f 473 476 477
f 477 476 478
f 480 481 479
f 479 481 482
f 483 484 474
f 474 484 475
f 486 487 485
f 485 487 488
f 489 490 77
f 77 490 142
f 491 489 248
f 248 489 77
f 493 494 492
f 492 494 495
f 496 480 484
f 484 480 475
f 486 497 487
f 487 497 471
f 498 496 472
f 472 496 484
f 499 493 478
f 478 493 500
f 501 502 504
f 504 502 503
f 493 492 500
f 500 492 505
f 506 477 500
f 500 477 478
f 499 478 479
f 479 478 476
f 469 507 470
f 470 507 508
f 483 509 469
f 469 509 507
f 479 482 499
f 499 482 510
f 492 495 485
f 485 495 511
f 483 469 484
f 484 469 472
f 473 512 474
f 474 512 513
f 497 498 471
f 471 498 472
f 475 480 476
f 476 480 479
f 470 508 514
f 514 508 515
f 506 502 516
f 516 502 501
f 503 502 488
f 488 502 505
f 514 515 503
f 503 515 504
f 485 488 492
f 492 488 505
f 477 506 517
f 517 506 516
f 474 513 483
f 483 513 509
f 510 292 494
f 494 292 164
f 512 473 517
f 517 473 477
f 491 481 496
f 496 481 480
f 502 506 505
f 505 506 500
f 503 488 514
f 514 488 487
f 514 487 470
f 470 487 471
f 517 516 519
f 519 516 518
f 517 519 512
f 512 519 520
f 512 520 513
f 513 520 521
f 513 521 509
f 509 521 522
f 516 501 518
f 518 501 523
f 501 504 523
f 523 504 524
f 524 504 525
f 525 504 515
f 526 527 523
f 523 527 518
f 529 530 528
f 528 530 531
f 532 533 529
f 529 533 530
f 530 533 535
f 535 533 534
f 536 537 535
f 535 537 538
f 534 539 535
f 535 539 536
f 538 531 535
f 535 531 530
f 540 541 531
f 531 541 528
f 533 532 534
f 534 532 542
f 532 520 542
f 542 520 519
f 532 543 520
f 520 543 521
f 529 544 532
f 532 544 543
f 544 529 545
f 545 529 528
f 534 542 539
f 539 542 527
f 527 542 518
f 518 542 519
f 541 546 528
f 528 546 545
f 547 544 548
f 548 544 545
f 546 549 545
f 545 549 548
f 550 547 551
f 551 547 548
f 547 550 553
f 553 550 552
f 549 554 548
f 548 554 551
f 544 547 543
f 543 547 553
f 543 553 521
f 521 553 522
f 546 541 556
f 556 541 555
f 541 540 555
f 555 540 557
f 536 539 558
f 558 539 527
f 537 536 559
f 559 536 558
f 527 526 558
f 558 526 560
f 559 558 561
f 561 558 560
f 559 562 537
f 537 562 563
f 557 563 555
f 555 563 562
f 509 522 507
f 507 522 564
f 508 565 515
f 515 565 525
f 565 508 564
f 564 508 507
f 564 552 565
f 565 552 566
f 552 550 566
f 566 550 567
f 565 566 525
f 525 566 568
f 564 522 552
f 552 522 553
f 569 524 568
f 568 524 525
f 569 526 524
f 524 526 523
f 570 560 569
f 569 560 526
f 570 569 571
f 571 569 568
f 572 570 573
f 573 570 571
f 566 567 568
f 568 567 571
f 567 574 571
f 571 574 573
f 570 572 560
f 560 572 561
f 576 561 575
f 575 561 572
f 575 578 577
f 577 578 579
f 575 572 578
f 578 572 573
f 575 577 576
f 576 577 556
f 576 556 562
f 562 556 555
f 562 559 576
f 576 559 561
f 550 551 567
f 567 551 574
f 579 574 554
f 554 574 551
f 579 578 574
f 574 578 573
f 579 554 577
f 577 554 549
f 549 546 577
f 577 546 556
f 531 538 540
f 540 538 557
f 557 538 563
f 563 538 537
f 481 294 482
f 482 294 293
f 580 486 511
f 511 486 485
f 490 489 497
f 497 489 498
f 489 491 498
f 498 491 496
f 163 495 164
f 164 495 494
f 580 490 486
f 486 490 497
f 482 293 510
f 510 293 292
f 495 163 511
f 511 163 199
f 494 493 510
f 510 493 499
f 481 491 294
f 294 491 248
f 582 583 581
f 581 583 584
f 586 587 585
f 585 587 588
f 585 588 589
f 589 588 590
f 592 593 591
f 591 593 594
f 595 596 598
f 598 596 597
f 599 600 586
f 586 600 587
f 601 602 604
f 604 602 603
f 605 606 608
f 608 606 607
f 609 607 200
f 200 607 606
f 610 611 613
f 613 611 612
f 600 614 587
f 587 614 592
f 596 605 597
f 597 605 608
f 602 615 603
f 603 615 583
f 616 614 584
f 584 614 600
f 611 618 617
f 617 618 590
f 620 621 619
f 619 621 622
f 610 623 611
f 611 623 618
f 624 589 618
f 618 589 590
f 617 590 591
f 591 590 588
f 581 625 582
f 582 625 626
f 599 627 581
f 581 627 625
f 591 594 617
f 617 594 628
f 601 610 598
f 598 610 613
f 581 584 599
f 599 584 600
f 585 629 586
f 586 629 630
f 615 616 583
f 583 616 584
f 587 592 588
f 588 592 591
f 582 626 631
f 631 626 632
f 624 620 633
f 633 620 619
f 621 620 604
f 604 620 623
f 631 632 621
f 621 632 622
f 610 601 623
f 623 601 604
f 589 624 634
f 634 624 633
f 586 630 599
f 599 630 627
f 203 202 628
f 628 202 612
f 629 585 634
f 634 585 589
f 609 593 614
f 614 593 592
f 620 624 623
f 623 624 618
f 631 621 603
f 603 621 604
f 582 631 583
f 583 631 603
f 634 633 636
f 636 633 635
f 634 636 629
f 629 636 637
f 629 637 630
f 630 637 638
f 630 638 627
f 627 638 639
f 633 619 635
f 635 619 640
f 619 622 640
f 640 622 641
f 641 622 642
f 642 622 632
f 644 635 643
f 643 635 640
f 645 646 648
f 648 646 647
f 649 650 646
f 646 650 647
f 647 650 652
f 652 650 651
f 652 653 655
f 655 653 654
f 651 656 652
f 652 656 653
f 655 648 652
f 652 648 647
f 648 657 645
f 645 657 658
f 650 649 651
f 651 649 659
f 649 637 659
f 659 637 636
f 649 660 637
f 637 660 638
f 661 660 646
f 646 660 649
f 662 661 645
f 645 661 646
f 651 659 656
f 656 659 644
f 644 659 635
f 635 659 636
f 663 662 658
f 658 662 645
f 664 661 665
f 665 661 662
f 663 666 662
f 662 666 665
f 667 664 668
f 668 664 665
f 664 667 670
f 670 667 669
f 666 671 665
f 665 671 668
f 661 664 660
f 660 664 670
f 660 670 638
f 638 670 639
f 658 672 663
f 663 672 673
f 658 657 672
f 672 657 674
f 653 656 675
f 675 656 644
f 653 675 654
f 654 675 676
f 675 644 677
f 677 644 643
f 676 675 678
f 678 675 677
f 679 680 676
f 676 680 654
f 674 680 672
f 672 680 679
f 627 639 625
f 625 639 681
f 626 682 632
f 632 682 642
f 681 682 625
f 625 682 626
f 669 683 681
f 681 683 682
f 667 684 669
f 669 684 683
f 682 683 642
f 642 683 685
f 681 639 669
f 669 639 670
f 686 641 685
f 685 641 642
f 641 686 640
f 640 686 643
f 686 687 643
f 643 687 677
f 687 686 688
f 688 686 685
f 689 687 690
f 690 687 688
f 683 684 685
f 685 684 688
f 684 691 688
f 688 691 690
f 687 689 677
f 677 689 678
f 693 678 692
f 692 678 689
f 692 695 694
f 694 695 696
f 692 689 695
f 695 689 690
f 692 694 693
f 693 694 673
f 693 673 679
f 679 673 672
f 679 676 693
f 693 676 678
f 684 667 691
f 691 667 668
f 696 691 671
f 671 691 668
f 696 695 691
f 691 695 690
f 694 696 666
f 666 696 671
f 666 663 694
f 694 663 673
f 648 655 657
f 657 655 674
f 674 655 680
f 680 655 654
f 593 162 594
f 594 162 290
f 598 597 601
f 601 597 602
f 615 608 616
f 616 608 607
f 607 609 616
f 616 609 614
f 697 595 613
f 613 595 598
f 597 608 602
f 602 608 615
f 594 290 628
f 628 290 203
f 628 612 617
f 617 612 611
f 593 609 162
f 162 609 200
f 105 29 698
f 698 29 699
f 268 126 701
f 701 126 700
f 126 125 700
f 700 125 702
f 252 703 250
f 250 703 704
f 32 268 705
f 705 268 701
f 288 105 706
f 706 105 698
f 29 32 699
f 699 32 705
f 707 251 706
f 706 251 288
f 250 704 125
f 125 704 702
f 703 252 707
f 707 252 251
f 706 708 707
f 707 708 709
f 707 709 703
f 703 709 710
f 703 710 704
f 704 710 711
f 704 711 702
f 702 711 712
f 706 698 708
f 708 698 713
f 698 699 713
f 713 699 714
f 699 705 714
f 714 705 715
f 717 708 716
f 716 708 713
f 719 720 718
f 718 720 721
f 722 723 719
f 719 723 720
f 724 725 723
f 723 725 720
f 724 726 725
f 725 726 727
f 728 721 725
f 725 721 720
f 721 728 729
f 729 728 730
f 729 731 721
f 721 731 718
f 724 723 732
f 732 723 722
f 722 710 732
f 732 710 709
f 722 733 710
f 710 733 711
f 719 734 722
f 722 734 733
f 734 719 735
f 735 719 718
f 724 732 726
f 726 732 717
f 717 732 708
f 708 732 709
f 731 736 718
f 718 736 735
f 737 734 738
f 738 734 735
f 736 739 735
f 735 739 738
f 740 737 741
f 741 737 738
f 737 740 743
f 743 740 742
f 739 744 738
f 738 744 741
f 734 737 733
f 733 737 743
f 733 743 711
f 711 743 712
f 736 731 746
f 746 731 745
f 731 729 745
f 745 729 730
f 727 726 747
f 747 726 717
f 748 727 749
f 749 727 747
f 747 717 750
f 750 717 716
f 749 747 751
f 751 747 750
f 749 752 748
f 748 752 753
f 730 753 745
f 745 753 752
f 728 725 748
f 748 725 727
f 730 728 753
f 753 728 748
f 700 702 754
f 754 702 712
f 705 701 715
f 715 701 755
f 754 755 700
f 700 755 701
f 742 756 754
f 754 756 755
f 740 757 742
f 742 757 756
f 755 756 715
f 715 756 758
f 754 712 742
f 742 712 743
f 759 714 758
f 758 714 715
f 714 759 713
f 713 759 716
f 759 760 716
f 716 760 750
f 760 759 761
f 761 759 758
f 762 760 763
f 763 760 761
f 756 757 758
f 758 757 761
f 757 764 761
f 761 764 763
f 760 762 750
f 750 762 751
f 766 751 765
f 765 751 762
f 767 765 769
f 769 765 768
f 765 762 768
f 768 762 763
f 765 767 766
f 766 767 746
f 766 746 752
f 752 746 745
f 752 749 766
f 766 749 751
f 757 740 764
f 764 740 741
f 769 764 744
f 744 764 741
f 769 768 764
f 764 768 763
f 767 769 739
f 739 769 744
f 739 736 767
f 767 736 746
f 219 217 208
f 208 217 209
f 209 217 210
f 210 217 193
f 198 580 199
f 199 580 511
f 76 75 289
f 289 75 272
f 277 207 291
f 291 207 184
f 290 183 203
f 203 183 84
f 490 580 142
f 142 580 198
f 142 198 143
f 143 198 197
f 149 276 72
f 72 276 73
f 104 103 279
f 279 103 770
f 770 596 279
f 279 596 595
f 605 596 771
f 771 596 770
f 771 770 772
f 772 770 103
f 772 103 773
f 773 103 102
f 155 774 101
f 101 774 102
f 773 102 97
f 97 102 774
f 775 773 100
f 100 773 97
f 773 775 772
f 772 775 776
f 772 776 771
f 771 776 777
f 200 606 197
f 197 606 777
f 189 71 778
f 778 71 74
f 97 774 98
f 98 774 155
f 183 161 184
f 184 161 291
f 777 276 197
f 197 276 143
f 777 606 771
f 771 606 605
f 613 612 697
f 697 612 202
f 595 697 279
f 279 697 202
f 73 276 776
f 776 276 777
f 776 775 73
f 73 775 74
f 100 778 775
f 775 778 74
f 778 100 189
f 189 100 99
f 245 242 99
f 99 242 189
f 131 33 256
f 28 1 95
f 95 1 62
f 27 2 28
f 28 2 1
f 265 115 266
f 266 115 114
f 95 62 69
f 69 62 64
f 62 61 64
f 64 61 65
f 61 13 65
f 65 13 130
f 13 12 130
f 130 12 14
f 31 11 32
f 32 11 268
f 15 12 31
f 31 12 11
f 31 30 15
f 15 30 231
f 30 106 231
f 231 106 232
f 287 237 106
f 106 237 232
f 254 90 287
f 287 90 237
f 253 44 254
f 254 44 90
f 253 249 44
f 44 249 7
f 267 127 268
f 268 127 126
f 10 3 241
f 241 3 116
f 3 2 116
f 116 2 114
f 2 27 114
f 114 27 266
f 27 26 266
f 266 26 113
f 26 286 113
f 113 286 110
f 286 243 110
f 110 243 255
f 243 242 255
f 255 242 256
f 242 245 256
f 256 245 131
f 245 244 131
f 131 244 132
f 265 37 115
f 115 37 41
f 41 37 42
f 42 37 40
f 92 91 40
f 40 91 42
f 236 233 92
f 92 233 91
f 191 194 236
f 236 194 233
f 258 285 244
f 244 285 132
f 257 55 258
f 258 55 285
f 257 154 201
f 201 154 185
f 56 201 204
f 204 201 180
f 55 257 56
f 56 257 201
f 204 85 56
f 56 85 52
f 86 122 53
f 53 122 79
f 212 215 86
f 86 215 122
f 211 216 212
f 212 216 215
f 192 280 211
f 211 280 216
f 191 240 192
f 192 240 280
f 249 124 7
f 7 124 8
f 124 127 8
f 8 127 241
f 127 267 241
f 241 267 10
f 10 267 9
f 9 267 11
f 93 39 235
f 235 39 240
f 39 123 240
f 240 123 280
f 123 119 280
f 280 119 216
f 119 118 216
f 216 118 215
f 118 120 215
f 215 120 122
f 120 121 122
f 122 121 79
f 121 109 79
f 79 109 80

