# https://github.com/mikedh/trimesh
v -0.16686189 0.06945334 -17.41140366 0.25098039 0.27450980 0.65882353
v -0.16603024 0.07818202 -17.41811562 0.25098039 0.27450980 0.65882353
v -0.15989238 0.07053638 -17.41823959 0.25098039 0.27450980 0.65882353
v -0.16021653 0.06319476 -17.40963936 0.25098039 0.27450980 0.65882353
v -0.15293881 0.08685760 -17.43299484 0.25098039 0.27450980 0.65882353
v -0.14362383 0.09482037 -17.43137550 0.25098039 0.27450980 0.65882353
v -0.13920146 0.08110512 -17.43011093 0.25098039 0.27450980 0.65882353
v -0.14817387 0.07610786 -17.43201828 0.25098039 0.27450980 0.65882353
v -0.15544257 0.05821932 -17.40642548 0.25098039 0.27450980 0.65882353
v -0.15522115 0.06373879 -17.41762924 0.25098039 0.27450980 0.65882353
v -0.15216519 0.05835669 -17.40213013 0.25098039 0.27450980 0.65882353
v -0.15579581 0.05716166 -17.38795853 0.25098039 0.27450980 0.65882353
v -0.15733150 0.05556333 -17.39504242 0.25098039 0.27450980 0.65882353
v -0.15974057 0.05311172 -17.38116074 0.25098039 0.27450980 0.65882353
v -0.15706852 0.06634203 -17.38195801 0.25098039 0.27450980 0.65882353
v -0.16626185 0.05607730 -17.37462425 0.25098039 0.27450980 0.65882353
v -0.18571341 0.07792474 -17.38226891 0.25098039 0.27450980 0.65882353
v -0.19758600 0.08029383 -17.38962364 0.25098039 0.27450980 0.65882353
v -0.20136438 0.06409583 -17.38425255 0.25098039 0.27450980 0.65882353
v -0.18866140 0.06288134 -17.37783241 0.25098039 0.27450980 0.65882353
v -0.21456912 0.07062620 -17.40040970 0.25098039 0.27450980 0.65882353
v -0.20772378 0.06632316 -17.39119530 0.25098039 0.27450980 0.65882353
v -0.20454317 0.08282898 -17.39561272 0.25098039 0.27450980 0.65882353
v -0.21070513 0.08585912 -17.40356445 0.25098039 0.27450980 0.65882353
v -0.17868967 0.07730706 -17.41811752 0.25098039 0.27450980 0.65882353
v -0.17763425 0.08625631 -17.42360497 0.25098039 0.27450980 0.65882353
v -0.17386138 0.08435912 -17.42010498 0.25098039 0.27450980 0.65882353
v -0.17440203 0.07571764 -17.41512108 0.25098039 0.27450980 0.65882353
v -0.13975658 0.06135155 -17.40455627 0.25098039 0.27450980 0.65882353
v -0.14374246 0.07128873 -17.39561081 0.25098039 0.27450980 0.65882353
v -0.14829865 0.06424175 -17.39606285 0.25098039 0.27450980 0.65882353
v -0.14352942 0.05811451 -17.40789413 0.25098039 0.27450980 0.65882353
v -0.17844953 0.10669938 -17.44400215 0.25098039 0.27450980 0.65882353
v -0.17826141 0.12066130 -17.44183159 0.25098039 0.27450980 0.65882353
v -0.17331707 0.12081960 -17.43838692 0.25098039 0.27450980 0.65882353
v -0.17489186 0.10818025 -17.44041634 0.25098039 0.27450980 0.65882353
v -0.15427496 0.11362062 -17.43070984 0.25098039 0.27450980 0.65882353
v -0.15785897 0.12286665 -17.42803764 0.25098039 0.27450980 0.65882353
v -0.15300512 0.13089815 -17.41839027 0.25098039 0.27450980 0.65882353
v -0.14926200 0.12142204 -17.41772652 0.25098039 0.27450980 0.65882353
v -0.14868593 0.10362505 -17.43161201 0.25098039 0.27450980 0.65882353
v -0.14298096 0.11067252 -17.42115974 0.25098039 0.27450980 0.65882353
v -0.13774332 0.09987756 -17.42254639 0.25098039 0.27450980 0.65882353
v -0.13318284 0.08461785 -17.42343903 0.25098039 0.27450980 0.65882353
v -0.19034992 0.12145081 -17.44651794 0.25098039 0.27450980 0.65882353
v -0.19221000 0.11151736 -17.44939041 0.25098039 0.27450980 0.65882353
v -0.16146055 0.00902864 -17.39606094 0.25098039 0.27450980 0.65882353
v -0.16620739 0.00907597 -17.39975166 0.25098039 0.27450980 0.65882353
v -0.16660911 0.01295109 -17.39799690 0.25098039 0.27450980 0.65882353
v -0.16197594 0.01212977 -17.39434624 0.25098039 0.27450980 0.65882353
v -0.20944893 0.12034699 -17.43884087 0.25098039 0.27450980 0.65882353
v -0.21311800 0.12307855 -17.42947960 0.25098039 0.27450980 0.65882353
v -0.21190658 0.12908538 -17.43324280 0.25098039 0.27450980 0.65882353
v -0.20682046 0.12697135 -17.44113159 0.25098039 0.27450980 0.65882353
v -0.21276248 0.11146007 -17.43571472 0.25098039 0.27450980 0.65882353
v -0.21403441 0.11434424 -17.42453575 0.25098039 0.27450980 0.65882353
v -0.16372769 0.00096627 -17.38623428 0.25098039 0.27450980 0.65882353
v -0.16027580 0.00370271 -17.38891411 0.25098039 0.27450980 0.65882353
v -0.16148037 0.00695732 -17.38545799 0.25098039 0.27450980 0.65882353
v -0.16559708 0.00486463 -17.38302422 0.25098039 0.27450980 0.65882353
v -0.16087678 0.05733634 -17.40122604 0.25098039 0.27450980 0.65882353
v -0.16722146 0.06122015 -17.40640259 0.25098039 0.27450980 0.65882353
v -0.16594304 0.04347470 -17.39374733 0.25098039 0.27450980 0.65882353
v -0.16751203 0.05021138 -17.39785767 0.25098039 0.27450980 0.65882353
v -0.16195250 0.05159406 -17.39402962 0.25098039 0.27450980 0.65882353
v -0.16135323 0.04603755 -17.38998604 0.25098039 0.27450980 0.65882353
v -0.18618008 0.05731989 -17.41084099 0.25098039 0.27450980 0.65882353
v -0.18380961 0.06787844 -17.41494560 0.25098039 0.27450980 0.65882353
v -0.17899631 0.06577551 -17.41083908 0.25098039 0.27450980 0.65882353
v -0.17961928 0.05376168 -17.40636635 0.25098039 0.27450980 0.65882353
v -0.19391188 0.06971932 -17.42500114 0.25098039 0.27450980 0.65882353
v -0.19569746 0.05942583 -17.41983986 0.25098039 0.27450980 0.65882353
v -0.20139936 0.06195420 -17.42609596 0.25098039 0.27450980 0.65882353
v -0.19862598 0.06832726 -17.42946434 0.25098039 0.27450980 0.65882353
v -0.19611479 0.04178371 -17.40910339 0.25098039 0.27450980 0.65882353
v -0.19759038 0.03624333 -17.40568542 0.25098039 0.27450980 0.65882353
v -0.19918746 0.03510171 -17.40706444 0.25098039 0.27450980 0.65882353
v -0.19843906 0.04267780 -17.41133118 0.25098039 0.27450980 0.65882353
v -0.21085779 0.13547122 -17.43583488 0.25098039 0.27450980 0.65882353
v -0.20379969 0.13341698 -17.44243813 0.25098039 0.27450980 0.65882353
v -0.22616874 0.07525932 -17.41867256 0.25098039 0.27450980 0.65882353
v -0.22565323 0.07827064 -17.42955589 0.25098039 0.27450980 0.65882353
v -0.23012926 0.06556208 -17.42837524 0.25098039 0.27450980 0.65882353
v -0.23000422 0.06561559 -17.41631508 0.25098039 0.27450980 0.65882353
v -0.21126169 0.12372712 -17.41886902 0.25098039 0.27450980 0.65882353
v -0.21234055 0.13026172 -17.42280006 0.25098039 0.27450980 0.65882353
v -0.16944577 -0.00100608 -17.38642693 0.25098039 0.27450980 0.65882353
v -0.17135447 0.00321724 -17.38375092 0.25098039 0.27450980 0.65882353
v -0.13916254 0.10390714 -17.40865898 0.25098039 0.27450980 0.65882353
v -0.13187535 0.08644069 -17.41268158 0.25098039 0.27450980 0.65882353
v -0.14644898 0.11719622 -17.40695572 0.25098039 0.27450980 0.65882353
v -0.15277886 0.12637644 -17.40573311 0.25098039 0.27450980 0.65882353
v -0.15594029 0.13465610 -17.40650749 0.25098039 0.27450980 0.65882353
v -0.17308477 0.04688759 -17.39980698 0.25098039 0.27450980 0.65882353
v -0.17319866 0.06716839 -17.41028786 0.25098039 0.27450980 0.65882353
v -0.18242951 0.07822102 -17.42136192 0.25098039 0.27450980 0.65882353
v -0.20497529 0.07761714 -17.44314003 0.25098039 0.27450980 0.65882353
v -0.20197454 0.08690676 -17.44688225 0.25098039 0.27450980 0.65882353
v -0.19420889 0.08232144 -17.44064903 0.25098039 0.27450980 0.65882353
v -0.19877476 0.07532746 -17.43814659 0.25098039 0.27450980 0.65882353
v -0.22178617 0.07534741 -17.43844604 0.25098039 0.27450980 0.65882353
v -0.21484193 0.07122352 -17.44052124 0.25098039 0.27450980 0.65882353
v -0.21750198 0.06395122 -17.43775368 0.25098039 0.27450980 0.65882353
v -0.22503424 0.06573615 -17.43581200 0.25098039 0.27450980 0.65882353
v -0.13316973 0.06515107 -17.40513611 0.25098039 0.27450980 0.65882353
v -0.13976142 0.07745104 -17.39633751 0.25098039 0.27450980 0.65882353
v -0.20197609 0.11697804 -17.44589424 0.25098039 0.27450980 0.65882353
v -0.19817278 0.12371106 -17.44569206 0.25098039 0.27450980 0.65882353
v -0.19659948 0.13230883 -17.44536018 0.25098039 0.27450980 0.65882353
v -0.17652744 0.09645040 -17.43366241 0.25098039 0.27450980 0.65882353
v -0.17238809 0.10921670 -17.43818855 0.25098039 0.27450980 0.65882353
v -0.16908649 0.10854511 -17.43602753 0.25098039 0.27450980 0.65882353
v -0.17511499 0.09633469 -17.43075752 0.25098039 0.27450980 0.65882353
v -0.16488083 0.08721079 -17.42670250 0.25098039 0.27450980 0.65882353
v -0.15976107 0.09769691 -17.43319321 0.25098039 0.27450980 0.65882353
v -0.15943682 0.07770485 -17.42784309 0.25098039 0.27450980 0.65882353
v -0.16652986 0.12280037 -17.43388939 0.25098039 0.27450980 0.65882353
v -0.17152704 0.13116369 -17.43923187 0.25098039 0.27450980 0.65882353
v -0.16454153 0.13217387 -17.43350029 0.25098039 0.27450980 0.65882353
v -0.18048477 0.13140616 -17.44359207 0.25098039 0.27450980 0.65882353
v -0.18929127 0.13149622 -17.44581413 0.25098039 0.27450980 0.65882353
v -0.21411118 0.13820881 -17.42434883 0.25098039 0.27450980 0.65882353
v -0.15896899 0.13264123 -17.42703247 0.25098039 0.27450980 0.65882353
v -0.14552999 0.06814517 -17.43031693 0.25098039 0.27450980 0.65882353
v -0.14196716 0.06110881 -17.42922974 0.25098039 0.27450980 0.65882353
v -0.14697810 0.05732183 -17.42361259 0.25098039 0.27450980 0.65882353
v -0.15126351 0.06344936 -17.42496300 0.25098039 0.27450980 0.65882353
v -0.16234356 0.04576232 -17.37711143 0.25098039 0.27450980 0.65882353
v -0.15979348 0.04553264 -17.38438225 0.25098039 0.27450980 0.65882353
v -0.15817297 0.05287182 -17.38813782 0.25098039 0.27450980 0.65882353
v -0.18487224 0.09720849 -17.44418907 0.25098039 0.27450980 0.65882353
v -0.19627649 0.10171816 -17.44918823 0.25098039 0.27450980 0.65882353
v -0.17165646 0.04024589 -17.39530182 0.25098039 0.27450980 0.65882353
v -0.16680510 0.01006265 -17.38051033 0.25098039 0.27450980 0.65882353
v -0.16199988 0.01203287 -17.38336372 0.25098039 0.27450980 0.65882353
v -0.16188923 0.03166454 -17.37914276 0.25098039 0.27450980 0.65882353
v -0.16741249 0.02907173 -17.37500000 0.25098039 0.27450980 0.65882353
v -0.17884587 0.03367109 -17.39174271 0.25098039 0.27450980 0.65882353
v -0.17313834 0.03684621 -17.39457893 0.25098039 0.27450980 0.65882353
v -0.17437182 0.03503139 -17.39436722 0.25098039 0.27450980 0.65882353
v -0.18004203 0.03109118 -17.39353371 0.25098039 0.27450980 0.65882353
v -0.20332138 0.03936021 -17.41431046 0.25098039 0.27450980 0.65882353
v -0.20310435 0.04610457 -17.41785049 0.25098039 0.27450980 0.65882353
v -0.19040528 0.04676022 -17.37724304 0.25098039 0.27450980 0.65882353
v -0.17899911 0.04934940 -17.36894608 0.25098039 0.27450980 0.65882353
v -0.17678449 0.06133917 -17.37321663 0.25098039 0.27450980 0.65882353
v -0.19148660 0.05927460 -17.41595268 0.25098039 0.27450980 0.65882353
v -0.19407281 0.04970360 -17.41301727 0.25098039 0.27450980 0.65882353
v -0.19729462 0.05060389 -17.41557503 0.25098039 0.27450980 0.65882353
v -0.17675298 0.04372242 -17.39982605 0.25098039 0.27450980 0.65882353
v -0.17725620 0.03795984 -17.39596939 0.25098039 0.27450980 0.65882353
v -0.18063298 0.03982118 -17.39867210 0.25098039 0.27450980 0.65882353
v -0.18084325 0.04559529 -17.40272903 0.25098039 0.27450980 0.65882353
v -0.22193651 0.09095837 -17.43135834 0.25098039 0.27450980 0.65882353
v -0.21767548 0.08715405 -17.44183731 0.25098039 0.27450980 0.65882353
v -0.15941083 0.00684644 -17.39229012 0.25098039 0.27450980 0.65882353
v -0.16013992 0.00992855 -17.38964081 0.25098039 0.27450980 0.65882353
v -0.18901712 0.06964072 -17.41972923 0.25098039 0.27450980 0.65882353
v -0.17432302 0.07444201 -17.37955475 0.25098039 0.27450980 0.65882353
v -0.18623704 0.07903873 -17.42517090 0.25098039 0.27450980 0.65882353
v -0.22146675 0.05107363 -17.40867615 0.25098039 0.27450980 0.65882353
v -0.21895958 0.04761682 -17.41614723 0.25098039 0.27450980 0.65882353
v -0.21727276 0.04223313 -17.41587830 0.25098039 0.27450980 0.65882353
v -0.22042838 0.04235672 -17.41034698 0.25098039 0.27450980 0.65882353
v -0.17906459 0.01528003 -17.39620399 0.25098039 0.27450980 0.65882353
v -0.17396793 0.01671685 -17.39904785 0.25098039 0.27450980 0.65882353
v -0.17280966 0.01189293 -17.39934921 0.25098039 0.27450980 0.65882353
v -0.17775643 0.00956716 -17.39697838 0.25098039 0.27450980 0.65882353
v -0.16756593 0.03893128 -17.39361572 0.25098039 0.27450980 0.65882353
v -0.16226551 0.04041822 -17.38987160 0.25098039 0.27450980 0.65882353
v -0.16317543 0.03547578 -17.39130783 0.25098039 0.27450980 0.65882353
v -0.16898501 0.03503844 -17.39385223 0.25098039 0.27450980 0.65882353
v -0.16063839 0.03968046 -17.38388252 0.25098039 0.27450980 0.65882353
v -0.16041556 0.03433719 -17.38527679 0.25098039 0.27450980 0.65882353
v -0.18124315 0.01266267 -17.39029884 0.25098039 0.27450980 0.65882353
v -0.17870297 0.00991346 -17.38358116 0.25098039 0.27450980 0.65882353
v -0.18142962 0.02728783 -17.37912369 0.25098039 0.27450980 0.65882353
v -0.18287794 0.02699775 -17.38737106 0.25098039 0.27450980 0.65882353
v -0.20800173 0.10082942 -17.40541267 0.25098039 0.27450980 0.65882353
v -0.21460685 0.10194408 -17.41450882 0.25098039 0.27450980 0.65882353
v -0.21778491 0.08714654 -17.41259003 0.25098039 0.27450980 0.65882353
v -0.22206542 0.07273613 -17.41044235 0.25098039 0.27450980 0.65882353
v -0.22442576 0.05924765 -17.40868378 0.25098039 0.27450980 0.65882353
v -0.21890196 0.05841354 -17.39778709 0.25098039 0.27450980 0.65882353
v -0.22129960 0.08912382 -17.42002869 0.25098039 0.27450980 0.65882353
v -0.18547082 0.03639014 -17.38641167 0.25098039 0.27450980 0.65882353
v -0.18389909 0.03836388 -17.37727928 0.25098039 0.27450980 0.65882353
v -0.18861827 0.03964020 -17.38120079 0.25098039 0.27450980 0.65882353
v -0.19086105 0.07892592 -17.43120384 0.25098039 0.27450980 0.65882353
v -0.16002668 0.01464467 -17.38814354 0.25098039 0.27450980 0.65882353
v -0.17446613 0.12915212 -17.39530754 0.25098039 0.27450980 0.65882353
v -0.18816738 0.12992811 -17.39793205 0.25098039 0.27450980 0.65882353
v -0.18636590 0.12158373 -17.39598274 0.25098039 0.27450980 0.65882353
v -0.17060778 0.12034439 -17.39343452 0.25098039 0.27450980 0.65882353
v -0.16689879 0.01763670 -17.39820099 0.25098039 0.27450980 0.65882353
v -0.16136035 0.01701137 -17.39432907 0.25098039 0.27450980 0.65882353
v -0.20768350 0.04594309 -17.42272949 0.25098039 0.27450980 0.65882353
v -0.20740056 0.04010703 -17.41878891 0.25098039 0.27450980 0.65882353
v -0.21110043 0.03982139 -17.41932487 0.25098039 0.27450980 0.65882353
v -0.21134940 0.04408161 -17.42531586 0.25098039 0.27450980 0.65882353
v -0.21682094 0.10356819 -17.42009354 0.25098039 0.27450980 0.65882353
v -0.22943681 0.05622143 -17.43090630 0.25098039 0.27450980 0.65882353
v -0.23015839 0.05686644 -17.41906548 0.25098039 0.27450980 0.65882353
v -0.21151912 0.11470604 -17.41592026 0.25098039 0.27450980 0.65882353
v -0.20630744 0.11407167 -17.40743828 0.25098039 0.27450980 0.65882353
v -0.20580734 0.12364535 -17.40907478 0.25098039 0.27450980 0.65882353
v -0.20936066 0.04908139 -17.38882446 0.25098039 0.27450980 0.65882353
v -0.20271745 0.09780751 -17.39904022 0.25098039 0.27450980 0.65882353
v -0.20093563 0.11188420 -17.40226936 0.25098039 0.27450980 0.65882353
v -0.20002416 0.12317269 -17.40392303 0.25098039 0.27450980 0.65882353
v -0.20038530 0.13139752 -17.40486526 0.25098039 0.27450980 0.65882353
v -0.20641939 0.13091309 -17.41082191 0.25098039 0.27450980 0.65882353
v -0.17321599 0.00886963 -17.38116074 0.25098039 0.27450980 0.65882353
v -0.17744502 0.00337946 -17.38658714 0.25098039 0.27450980 0.65882353
v -0.20821041 0.13944532 -17.41201591 0.25098039 0.27450980 0.65882353
v -0.20095459 0.13945901 -17.40587807 0.25098039 0.27450980 0.65882353
v -0.19356963 0.10993537 -17.39652252 0.25098039 0.27450980 0.65882353
v -0.18355203 0.10729767 -17.39070129 0.25098039 0.27450980 0.65882353
v -0.19535954 0.09636568 -17.39366722 0.25098039 0.27450980 0.65882353
v -0.18591371 0.09274812 -17.38747787 0.25098039 0.27450980 0.65882353
v -0.20335931 0.05149616 -17.37924767 0.25098039 0.27450980 0.65882353
v -0.17444129 -0.00788853 -17.39963722 0.25098039 0.27450980 0.65882353
v -0.17814635 0.00105013 -17.39427376 0.25098039 0.27450980 0.65882353
v -0.17672475 0.00478300 -17.39862823 0.25098039 0.27450980 0.65882353
v -0.17485134 -0.00499263 -17.40303612 0.25098039 0.27450980 0.65882353
v -0.17974988 0.00651684 -17.39217567 0.25098039 0.27450980 0.65882353
v -0.17553346 -0.00083038 -17.38935471 0.25098039 0.27450980 0.65882353
v -0.17085873 0.08883736 -17.38454247 0.25098039 0.27450980 0.65882353
v -0.18186268 0.03534005 -17.39525414 0.25098039 0.27450980 0.65882353
v -0.16438940 0.10407037 -17.38959122 0.25098039 0.27450980 0.65882353
v -0.15493436 0.07918698 -17.38434410 0.25098039 0.27450980 0.65882353
v -0.14963351 0.09000975 -17.39015961 0.25098039 0.27450980 0.65882353
v -0.15623403 0.11911121 -17.39587975 0.25098039 0.27450980 0.65882353
v -0.14603584 0.10499778 -17.39631271 0.25098039 0.27450980 0.65882353
v -0.16408104 0.13580821 -17.39923859 0.25098039 0.27450980 0.65882353
v -0.16172475 0.12735623 -17.39702606 0.25098039 0.27450980 0.65882353
v -0.13764507 0.09055553 -17.40043068 0.25098039 0.27450980 0.65882353
v -0.16144970 0.00170806 -17.40324020 0.25098039 0.27450980 0.65882353
v -0.16685420 0.00197075 -17.40567970 0.25098039 0.27450980 0.65882353
v -0.17575124 0.13729316 -17.39681053 0.25098039 0.27450980 0.65882353
v -0.15461296 0.06937190 -17.42646599 0.25098039 0.27450980 0.65882353
v -0.18586063 0.08775954 -17.43508530 0.25098039 0.27450980 0.65882353
v -0.18259740 0.08738893 -17.43031502 0.25098039 0.27450980 0.65882353
v -0.20009407 0.09280637 -17.44824028 0.25098039 0.27450980 0.65882353
v -0.19007118 0.08894542 -17.44189262 0.25098039 0.27450980 0.65882353
v -0.15831013 -0.00051260 -17.39928818 0.25098039 0.27450980 0.65882353
v -0.20102215 0.03296280 -17.40234375 0.25098039 0.27450980 0.65882353
v -0.20177810 0.03387059 -17.40155220 0.25098039 0.27450980 0.65882353
v -0.13747360 0.07278997 -17.43027306 0.25098039 0.27450980 0.65882353
v -0.13536018 0.06585688 -17.42998123 0.25098039 0.27450980 0.65882353
v -0.12669668 0.06721682 -17.41914558 0.25098039 0.27450980 0.65882353
v -0.12930371 0.06729229 -17.42620468 0.25098039 0.27450980 0.65882353
v -0.13101721 0.07583730 -17.42480278 0.25098039 0.27450980 0.65882353
v -0.12867196 0.07656284 -17.41681099 0.25098039 0.27450980 0.65882353
v -0.17783676 0.09606862 -17.43608856 0.25098039 0.27450980 0.65882353
v -0.18070252 0.09580169 -17.43912125 0.25098039 0.27450980 0.65882353
v -0.21714583 0.10188056 -17.43397331 0.25098039 0.27450980 0.65882353
v -0.21264496 0.09726429 -17.44385529 0.25098039 0.27450980 0.65882353
v -0.16300431 0.03897619 -17.37770844 0.25098039 0.27450980 0.65882353
v -0.16899356 0.04582133 -17.37148476 0.25098039 0.27450980 0.65882353
v -0.16876069 0.03787391 -17.37334824 0.25098039 0.27450980 0.65882353
v -0.17486042 0.02924883 -17.37437820 0.25098039 0.27450980 0.65882353
v -0.18339564 0.03374518 -17.39103699 0.25098039 0.27450980 0.65882353
v -0.18297815 0.03373723 -17.38641167 0.25098039 0.27450980 0.65882353
v -0.16482486 0.10324054 -17.43445015 0.25098039 0.27450980 0.65882353
v -0.17103505 0.09333724 -17.42753792 0.25098039 0.27450980 0.65882353
v -0.15168406 0.06019532 -17.41648865 0.25098039 0.27450980 0.65882353
v -0.14752038 0.05585308 -17.41545105 0.25098039 0.27450980 0.65882353
v -0.18668401 0.04901508 -17.40735245 0.25098039 0.27450980 0.65882353
v -0.20573795 0.03734933 -17.38985062 0.25098039 0.27450980 0.65882353
v -0.20017961 0.03994127 -17.38232613 0.25098039 0.27450980 0.65882353
v -0.18813267 0.04119612 -17.40336609 0.25098039 0.27450980 0.65882353
v -0.16085112 -0.00714326 -17.39407921 0.25098039 0.27450980 0.65882353
v -0.15826082 -0.00343701 -17.39657593 0.25098039 0.27450980 0.65882353
v -0.17613095 0.03842133 -17.37217140 0.25098039 0.27450980 0.65882353
v -0.20226824 0.05256200 -17.42235756 0.25098039 0.27450980 0.65882353
v -0.21080774 0.04140484 -17.39363861 0.25098039 0.27450980 0.65882353
v -0.20593634 0.03344256 -17.39643478 0.25098039 0.27450980 0.65882353
v -0.22463167 0.05977689 -17.43620872 0.25098039 0.27450980 0.65882353
v -0.18858063 0.13842201 -17.39984512 0.25098039 0.27450980 0.65882353
v -0.17241161 0.00755632 -17.40146446 0.25098039 0.27450980 0.65882353
v -0.17188609 0.00045711 -17.40592766 0.25098039 0.27450980 0.65882353
v -0.17219064 -0.00917232 -17.39601135 0.25098039 0.27450980 0.65882353
v -0.16684017 -0.00888513 -17.39287567 0.25098039 0.27450980 0.65882353
v -0.20654529 0.10614477 -17.44530487 0.25098039 0.27450980 0.65882353
v -0.18064082 0.08674522 -17.42711449 0.25098039 0.27450980 0.65882353
v -0.13219626 0.07879378 -17.40558434 0.25098039 0.27450980 0.65882353
v -0.12851723 0.06669390 -17.41122246 0.25098039 0.27450980 0.65882353
v -0.18936080 0.03744756 -17.40099144 0.25098039 0.27450980 0.65882353
v -0.22438699 0.05236933 -17.41510391 0.25098039 0.27450980 0.65882353
v -0.21937940 0.04851113 -17.39978218 0.25098039 0.27450980 0.65882353
v -0.21966307 0.03871453 -17.40179443 0.25098039 0.27450980 0.65882353
v -0.21436208 0.03434931 -17.39750862 0.25098039 0.27450980 0.65882353
v -0.20735992 0.03120869 -17.39798737 0.25098039 0.27450980 0.65882353
v -0.17092806 -0.01245311 -17.40051460 0.25098039 0.27450980 0.65882353
v -0.16544822 -0.01228672 -17.39727402 0.25098039 0.27450980 0.65882353
v -0.15942800 -0.01029254 -17.39818192 0.25098039 0.27450980 0.65882353
v -0.15709011 -0.00642765 -17.39984131 0.25098039 0.27450980 0.65882353
v -0.15795912 -0.00255834 -17.40190125 0.25098039 0.27450980 0.65882353
v -0.17302798 -0.01074186 -17.40430069 0.25098039 0.27450980 0.65882353
v -0.17305486 -0.00762258 -17.40702820 0.25098039 0.27450980 0.65882353
v -0.17110352 -0.00173387 -17.40787506 0.25098039 0.27450980 0.65882353
v -0.17150018 -0.01152952 -17.40887833 0.25098039 0.27450980 0.65882353
v -0.16803774 -0.01553781 -17.40794182 0.25098039 0.27450980 0.65882353
v -0.15443142 -0.01321723 -17.41117096 0.25098039 0.27450980 0.65882353
v -0.15713860 -0.01369931 -17.40586090 0.25098039 0.27450980 0.65882353
v -0.15792289 -0.01513667 -17.40804863 0.25098039 0.27450980 0.65882353
v -0.15615316 -0.01549429 -17.41273308 0.25098039 0.27450980 0.65882353
v -0.15541686 -0.01692432 -17.41763687 0.25098039 0.27450980 0.65882353
v -0.15321618 -0.01440263 -17.41654015 0.25098039 0.27450980 0.65882353
v -0.16238527 -0.01578423 -17.40661049 0.25098039 0.27450980 0.65882353
v -0.16063607 -0.01674554 -17.41306114 0.25098039 0.27450980 0.65882353
v -0.16465983 -0.01633269 -17.41441536 0.25098039 0.27450980 0.65882353
v -0.16284947 -0.01792596 -17.41944885 0.25098039 0.27450980 0.65882353
v -0.15921316 -0.01844916 -17.41840363 0.25098039 0.27450980 0.65882353
v -0.16559747 -0.01603006 -17.40986633 0.25098039 0.27450980 0.65882353
v -0.16314459 -0.01578197 -17.40409851 0.25098039 0.27450980 0.65882353
v -0.15422775 -0.01578304 -17.42078400 0.25098039 0.27450980 0.65882353
v -0.15551624 -0.01788658 -17.42039108 0.25098039 0.27450980 0.65882353
v -0.15855056 -0.01874435 -17.42146873 0.25098039 0.27450980 0.65882353
v -0.15782644 -0.01725341 -17.42394066 0.25098039 0.27450980 0.65882353
v -0.15574414 -0.00818364 -17.40411377 0.25098039 0.27450980 0.65882353
v -0.15361872 -0.01074752 -17.41165543 0.25098039 0.27450980 0.65882353
v -0.15369016 -0.01145650 -17.41760063 0.25098039 0.27450980 0.65882353
v -0.15475008 -0.01313667 -17.42164993 0.25098039 0.27450980 0.65882353
v -0.15503284 -0.00780535 -17.41423798 0.25098039 0.27450980 0.65882353
v -0.15535390 -0.00917377 -17.41861153 0.25098039 0.27450980 0.65882353
v -0.15667959 -0.01047617 -17.42210388 0.25098039 0.27450980 0.65882353
v -0.15796059 -0.00553426 -17.41663170 0.25098039 0.27450980 0.65882353
v -0.15787566 -0.00761946 -17.41997719 0.25098039 0.27450980 0.65882353
v -0.16000849 -0.00151736 -17.40664673 0.25098039 0.27450980 0.65882353
v -0.15707558 -0.00351283 -17.40421104 0.25098039 0.27450980 0.65882353
v -0.15796134 -0.00872672 -17.42220306 0.25098039 0.27450980 0.65882353
v -0.15847202 -0.01534222 -17.42475700 0.25098039 0.27450980 0.65882353
v -0.16791898 -0.01454055 -17.41420555 0.25098039 0.27450980 0.65882353
v -0.16492683 -0.01561959 -17.42051125 0.25098039 0.27450980 0.65882353
v -0.16901776 -0.01256356 -17.41513443 0.25098039 0.27450980 0.65882353
v -0.16635212 -0.01392151 -17.42135620 0.25098039 0.27450980 0.65882353
v -0.16267845 -0.01718764 -17.42398453 0.25098039 0.27450980 0.65882353
v -0.16149616 -0.01828104 -17.42203903 0.25098039 0.27450980 0.65882353
v -0.16163886 0.00020951 -17.40449142 0.25098039 0.27450980 0.65882353
v -0.16722140 0.00040695 -17.40691185 0.25098039 0.27450980 0.65882353
v -0.16602021 -0.00081784 -17.40884209 0.25098039 0.27450980 0.65882353
v -0.16259022 -0.00481166 -17.41807556 0.25098039 0.27450980 0.65882353
v -0.16978857 -0.00277156 -17.41023064 0.25098039 0.27450980 0.65882353
v -0.17142895 -0.00825810 -17.41113091 0.25098039 0.27450980 0.65882353
v -0.16880351 -0.01021242 -17.41702843 0.25098039 0.27450980 0.65882353
v -0.16720688 -0.00725423 -17.41815948 0.25098039 0.27450980 0.65882353
v -0.16623805 -0.01137173 -17.42160988 0.25098039 0.27450980 0.65882353
v -0.16481194 -0.00920907 -17.42154884 0.25098039 0.27450980 0.65882353
v -0.16134131 -0.00735655 -17.42131805 0.25098039 0.27450980 0.65882353
v -0.16322085 -0.01214616 -17.42417908 0.25098039 0.27450980 0.65882353
v -0.16322418 -0.01509982 -17.42437553 0.25098039 0.27450980 0.65882353
v -0.15944052 -0.01213187 -17.42435265 0.25098039 0.27450980 0.65882353
v -0.16315663 -0.01034519 -17.42351151 0.25098039 0.27450980 0.65882353
v -0.16016716 -0.00993462 -17.42309570 0.25098039 0.27450980 0.65882353
v -0.18239519 0.00762355 -17.40538025 0.25098039 0.27450980 0.65882353
v -0.18726747 0.00850511 -17.40999031 0.25098039 0.27450980 0.65882353
v -0.18867026 0.01048020 -17.40661430 0.25098039 0.27450980 0.65882353
v -0.18430716 0.00977333 -17.40302658 0.25098039 0.27450980 0.65882353
v -0.18612146 -0.00298810 -17.39643669 0.25098039 0.27450980 0.65882353
v -0.18197231 0.00119877 -17.39884377 0.25098039 0.27450980 0.65882353
v -0.18397281 0.00367434 -17.39477921 0.25098039 0.27450980 0.65882353
v -0.18954459 0.00027213 -17.39237022 0.25098039 0.27450980 0.65882353
v -0.19332242 -0.00441229 -17.39779854 0.25098039 0.27450980 0.65882353
v -0.19656178 -0.00060084 -17.39382553 0.25098039 0.27450980 0.65882353
v -0.19071454 0.00566012 -17.38885117 0.25098039 0.27450980 0.65882353
v -0.18502693 0.00879739 -17.39213753 0.25098039 0.27450980 0.65882353
v -0.18646851 0.02923036 -17.38741112 0.25098039 0.27450980 0.65882353
v -0.19205138 0.02762482 -17.38340187 0.25098039 0.27450980 0.65882353
v -0.19580480 0.03172968 -17.40399933 0.25098039 0.27450980 0.65882353
v -0.19962516 0.02993782 -17.40290833 0.25098039 0.27450980 0.65882353
v -0.18119015 0.00519393 -17.40221405 0.25098039 0.27450980 0.65882353
v -0.18295579 0.00730657 -17.39893341 0.25098039 0.27450980 0.65882353
v -0.19856918 0.01247764 -17.40786934 0.25098039 0.27450980 0.65882353
v -0.19313860 0.01412827 -17.40864372 0.25098039 0.27450980 0.65882353
v -0.19288555 0.01045842 -17.40937424 0.25098039 0.27450980 0.65882353
v -0.19796532 0.00781627 -17.40891075 0.25098039 0.27450980 0.65882353
v -0.18519567 0.03206822 -17.39624786 0.25098039 0.27450980 0.65882353
v -0.19062242 0.03237445 -17.40038109 0.25098039 0.27450980 0.65882353
v -0.18462262 0.03076123 -17.39215660 0.25098039 0.27450980 0.65882353
v -0.20303130 0.00927444 -17.40369606 0.25098039 0.27450980 0.65882353
v -0.20384663 0.00627710 -17.39738083 0.25098039 0.27450980 0.65882353
v -0.20590574 0.02605017 -17.39065933 0.25098039 0.27450980 0.65882353
v -0.20577523 0.02659833 -17.39735603 0.25098039 0.27450980 0.65882353
v -0.18291855 0.01138017 -17.39674377 0.25098039 0.27450980 0.65882353
v -0.18751568 0.01396885 -17.40628433 0.25098039 0.27450980 0.65882353
v -0.18353543 0.01345591 -17.40216637 0.25098039 0.27450980 0.65882353
v -0.19820151 0.00566654 -17.39088821 0.25098039 0.27450980 0.65882353
v -0.20137843 0.00037411 -17.40065193 0.25098039 0.27450980 0.65882353
v -0.19264171 -0.00674213 -17.41835594 0.25098039 0.27450980 0.65882353
v -0.19857040 -0.00004742 -17.41006088 0.25098039 0.27450980 0.65882353
v -0.19607268 0.00416354 -17.41248894 0.25098039 0.27450980 0.65882353
v -0.19125809 -0.00247766 -17.42136955 0.25098039 0.27450980 0.65882353
v -0.20110869 0.00389729 -17.40615273 0.25098039 0.27450980 0.65882353
v -0.19798720 -0.00330016 -17.40476418 0.25098039 0.27450980 0.65882353
v -0.17757222 0.00175911 -17.41701889 0.25098039 0.27450980 0.65882353
v -0.18286917 0.00268134 -17.42109871 0.25098039 0.27450980 0.65882353
v -0.17531827 -0.00114226 -17.41372681 0.25098039 0.27450980 0.65882353
v -0.19967847 0.02698970 -17.38455772 0.25098039 0.27450980 0.65882353
v -0.17979765 -0.00889134 -17.40761375 0.25098039 0.27450980 0.65882353
v -0.17570071 -0.00430419 -17.41053009 0.25098039 0.27450980 0.65882353
v -0.19210908 0.00788325 -17.41256142 0.25098039 0.27450980 0.65882353
v -0.18767262 0.00112931 -17.42269135 0.25098039 0.27450980 0.65882353
v -0.19162256 -0.00960857 -17.41460800 0.25098039 0.27450980 0.65882353
v -0.18683782 -0.01047683 -17.40818214 0.25098039 0.27450980 0.65882353
v -0.18845892 -0.01168954 -17.41927910 0.25098039 0.27450980 0.65882353
v -0.18330771 -0.01282820 -17.41462708 0.25098039 0.27450980 0.65882353
v -0.17657453 -0.01061805 -17.41345215 0.25098039 0.27450980 0.65882353
v -0.17374653 -0.00531411 -17.41468430 0.25098039 0.27450980 0.65882353
v -0.17438149 -0.00171828 -17.41647911 0.25098039 0.27450980 0.65882353
v -0.18975005 -0.00854169 -17.42253113 0.25098039 0.27450980 0.65882353
v -0.18896239 -0.00402394 -17.42450523 0.25098039 0.27450980 0.65882353
v -0.18607758 0.00037144 -17.42383385 0.25098039 0.27450980 0.65882353
v -0.18637404 -0.00703247 -17.42818260 0.25098039 0.27450980 0.65882353
v -0.18422227 -0.01120660 -17.42690659 0.25098039 0.27450980 0.65882353
v -0.16612123 -0.00533648 -17.43124390 0.25098039 0.27450980 0.65882353
v -0.16879290 -0.00732909 -17.42617226 0.25098039 0.27450980 0.65882353
v -0.17035204 -0.00893880 -17.42773247 0.25098039 0.27450980 0.65882353
v -0.16790974 -0.00727820 -17.43241501 0.25098039 0.27450980 0.65882353
v -0.17229369 -0.01073702 -17.42189789 0.25098039 0.27450980 0.65882353
v -0.17309873 -0.01107378 -17.42439079 0.25098039 0.27450980 0.65882353
v -0.17777477 -0.01229008 -17.42532539 0.25098039 0.27450980 0.65882353
v -0.17461474 -0.00982870 -17.43023872 0.25098039 0.27450980 0.65882353
v -0.17925526 -0.00891575 -17.43196297 0.25098039 0.27450980 0.65882353
v -0.17639881 -0.00779675 -17.43676949 0.25098039 0.27450980 0.65882353
v -0.17176437 -0.00875680 -17.43539619 0.25098039 0.27450980 0.65882353
v -0.18050042 -0.01118472 -17.42820549 0.25098039 0.27450980 0.65882353
v -0.16717038 -0.00646810 -17.43586540 0.25098039 0.27450980 0.65882353
v -0.16617504 -0.00426269 -17.43680763 0.25098039 0.27450980 0.65882353
v -0.17911348 -0.01386587 -17.42245102 0.25098039 0.27450980 0.65882353
v -0.17180607 -0.00605790 -17.41801453 0.25098039 0.27450980 0.65882353
v -0.16790396 -0.00419308 -17.42568970 0.25098039 0.27450980 0.65882353
v -0.16603740 -0.00197735 -17.43159294 0.25098039 0.27450980 0.65882353
v -0.16723958 -0.00152078 -17.43770027 0.25098039 0.27450980 0.65882353
v -0.16911060 -0.00005308 -17.42688751 0.25098039 0.27450980 0.65882353
v -0.16766246 0.00079302 -17.43250084 0.25098039 0.27450980 0.65882353
v -0.16902941 0.00054155 -17.43737030 0.25098039 0.27450980 0.65882353
v -0.17222197 0.00343588 -17.42869186 0.25098039 0.27450980 0.65882353
v -0.17090352 0.00322136 -17.43412590 0.25098039 0.27450980 0.65882353
v -0.17643014 0.00174798 -17.41985321 0.25098039 0.27450980 0.65882353
v -0.17299964 -0.00130998 -17.41816711 0.25098039 0.27450980 0.65882353
v -0.17064975 0.00210873 -17.43642998 0.25098039 0.27450980 0.65882353
v -0.16936581 -0.00561139 -17.44021416 0.25098039 0.27450980 0.65882353
v -0.17000124 -0.00236076 -17.44075584 0.25098039 0.27450980 0.65882353
v -0.16982470 -0.00684102 -17.43885612 0.25098039 0.27450980 0.65882353
v -0.18118468 -0.00793712 -17.43261147 0.25098039 0.27450980 0.65882353
v -0.17751297 -0.00603430 -17.43763351 0.25098039 0.27450980 0.65882353
v -0.18253195 -0.00541618 -17.43353844 0.25098039 0.27450980 0.65882353
v -0.17815875 -0.00391911 -17.43874550 0.25098039 0.27450980 0.65882353
v -0.17409524 -0.00536026 -17.44081497 0.25098039 0.27450980 0.65882353
v -0.17331171 -0.00659236 -17.44002533 0.25098039 0.27450980 0.65882353
v -0.17727585 0.00086395 -17.41875458 0.25098039 0.27450980 0.65882353
v -0.18227869 0.00180218 -17.42188835 0.25098039 0.27450980 0.65882353
v -0.18168536 0.00283547 -17.42244530 0.25098039 0.27450980 0.65882353
v -0.17725269 0.00382552 -17.43118858 0.25098039 0.27450980 0.65882353
v -0.18572463 0.00105281 -17.42481232 0.25098039 0.27450980 0.65882353
v -0.18677598 -0.00322895 -17.42781448 0.25098039 0.27450980 0.65882353
v -0.18302912 -0.00246383 -17.43345833 0.25098039 0.27450980 0.65882353
v -0.18117401 0.00134836 -17.43307686 0.25098039 0.27450980 0.65882353
v -0.17910284 -0.00191236 -17.43897247 0.25098039 0.27450980 0.65882353
v -0.17887053 0.00076547 -17.43700218 0.25098039 0.27450980 0.65882353
v -0.17492437 0.00345469 -17.43550682 0.25098039 0.27450980 0.65882353
v -0.17522737 -0.00150928 -17.44146156 0.25098039 0.27450980 0.65882353
v -0.17448023 -0.00377038 -17.44149017 0.25098039 0.27450980 0.65882353
v -0.17099927 -0.00049758 -17.44009018 0.25098039 0.27450980 0.65882353
v -0.17599046 0.00062919 -17.43958092 0.25098039 0.27450980 0.65882353
v -0.17259827 0.00171492 -17.43838501 0.25098039 0.27450980 0.65882353
v -0.19969286 0.01367168 -17.41520309 0.25098039 0.27450980 0.65882353
v -0.20160171 0.01718590 -17.42012596 0.25098039 0.27450980 0.65882353
v -0.20268162 0.01832855 -17.41866112 0.25098039 0.27450980 0.65882353
v -0.20088166 0.01532932 -17.41366768 0.25098039 0.27450980 0.65882353
v -0.20886746 0.00513958 -17.41275978 0.25098039 0.27450980 0.65882353
v -0.20398715 0.00621725 -17.41211319 0.25098039 0.27450980 0.65882353
v -0.20622846 0.00891262 -17.40869522 0.25098039 0.27450980 0.65882353
v -0.21178181 0.00856671 -17.40807915 0.25098039 0.27450980 0.65882353
v -0.21263239 0.00568058 -17.41742325 0.25098039 0.27450980 0.65882353
v -0.21739836 0.00978341 -17.41174507 0.25098039 0.27450980 0.65882353
v -0.21351831 0.01306021 -17.40412521 0.25098039 0.27450980 0.65882353
v -0.20729688 0.01252398 -17.40565681 0.25098039 0.27450980 0.65882353
v -0.20781329 0.02717256 -17.39986229 0.25098039 0.27450980 0.65882353
v -0.21468003 0.02731006 -17.39896584 0.25098039 0.27450980 0.65882353
v -0.20106858 0.00970654 -17.41300201 0.25098039 0.27450980 0.65882353
v -0.20242482 0.01195329 -17.41069984 0.25098039 0.27450980 0.65882353
v -0.21059538 0.02162941 -17.42375183 0.25098039 0.27450980 0.65882353
v -0.20603418 0.02132834 -17.42214203 0.25098039 0.27450980 0.65882353
v -0.20635408 0.01953022 -17.42293358 0.25098039 0.27450980 0.65882353
v -0.21041343 0.01915877 -17.42440796 0.25098039 0.27450980 0.65882353
v -0.20106399 0.03242352 -17.40779114 0.25098039 0.27450980 0.65882353
v -0.20445374 0.03530923 -17.41258812 0.25098039 0.27450980 0.65882353
v -0.20279607 0.02904657 -17.40368652 0.25098039 0.27450980 0.65882353
v -0.21681368 0.01983684 -17.42161942 0.25098039 0.27450980 0.65882353
v -0.22109684 0.01735780 -17.41540146 0.25098039 0.27450980 0.65882353
v -0.22153209 0.03225797 -17.41177559 0.25098039 0.27450980 0.65882353
v -0.21754791 0.03437417 -17.41643524 0.25098039 0.27450980 0.65882353
v -0.20312014 0.01442695 -17.40851212 0.25098039 0.27450980 0.65882353
v -0.20181563 0.02029962 -17.41787338 0.25098039 0.27450980 0.65882353
v -0.20040952 0.01742414 -17.41263008 0.25098039 0.27450980 0.65882353
v -0.21866812 0.01523010 -17.40797234 0.25098039 0.27450980 0.65882353
v -0.21841685 0.01264535 -17.41886711 0.25098039 0.27450980 0.65882353
v -0.20644447 0.00578205 -17.43626022 0.25098039 0.27450980 0.65882353
v -0.21430776 0.01388295 -17.42581367 0.25098039 0.27450980 0.65882353
v -0.20964214 0.01791253 -17.42605019 0.25098039 0.27450980 0.65882353
v -0.20431596 0.00971092 -17.43651962 0.25098039 0.27450980 0.65882353
v -0.21558748 0.01642352 -17.42369270 0.25098039 0.27450980 0.65882353
v -0.21562737 0.00942872 -17.42223930 0.25098039 0.27450980 0.65882353
v -0.19250564 0.00841604 -17.42657280 0.25098039 0.27450980 0.65882353
v -0.19588850 0.01169936 -17.43050575 0.25098039 0.27450980 0.65882353
v -0.19321863 0.00463901 -17.42413330 0.25098039 0.27450980 0.65882353
v -0.22063807 0.02944631 -17.40332603 0.25098039 0.27450980 0.65882353
v -0.21096979 0.03613193 -17.41780853 0.25098039 0.27450980 0.65882353
v -0.19768849 -0.00157534 -17.42502022 0.25098039 0.27450980 0.65882353
v -0.19450459 0.00135292 -17.42379761 0.25098039 0.27450980 0.65882353
v -0.20556328 0.01864341 -17.42401314 0.25098039 0.27450980 0.65882353
v -0.20051152 0.01230269 -17.43465614 0.25098039 0.27450980 0.65882353
v -0.20672795 0.00181085 -17.43306541 0.25098039 0.27450980 0.65882353
v -0.20356819 -0.00123505 -17.42763519 0.25098039 0.27450980 0.65882353
v -0.20292640 0.00156760 -17.43811226 0.25098039 0.27450980 0.65882353
v -0.19907203 -0.00181791 -17.43383598 0.25098039 0.27450980 0.65882353
v -0.19354975 -0.00196971 -17.43087578 0.25098039 0.27450980 0.65882353
v -0.19111639 0.00125872 -17.42831230 0.25098039 0.27450980 0.65882353
v -0.19054568 0.00449941 -17.42771339 0.25098039 0.27450980 0.65882353
v -0.20326971 0.00654202 -17.43941879 0.25098039 0.27450980 0.65882353
v -0.20192933 0.00996462 -17.43779945 0.25098039 0.27450980 0.65882353
v -0.19994256 0.01137757 -17.43432617 0.25098039 0.27450980 0.65882353
v -0.20095442 0.00957805 -17.44092178 0.25098039 0.27450980 0.65882353
v -0.19823849 0.00467856 -17.44239616 0.25098039 0.27450980 0.65882353
v -0.18142277 0.00989571 -17.44194221 0.25098039 0.27450980 0.65882353
v -0.18484893 0.00625110 -17.43881035 0.25098039 0.27450980 0.65882353
v -0.18563764 0.00619997 -17.43982506 0.25098039 0.27450980 0.65882353
v -0.18222645 0.00943490 -17.44331741 0.25098039 0.27450980 0.65882353
v -0.18945229 0.00118941 -17.43684006 0.25098039 0.27450980 0.65882353
v -0.18917948 0.00241168 -17.43869209 0.25098039 0.27450980 0.65882353
v -0.19287606 0.00243245 -17.44067383 0.25098039 0.27450980 0.65882353
v -0.18900672 0.00693386 -17.44386101 0.25098039 0.27450980 0.65882353
v -0.19407460 0.01044879 -17.44478035 0.25098039 0.27450980 0.65882353
v -0.19013630 0.01319876 -17.44672394 0.25098039 0.27450980 0.65882353
v -0.18547192 0.01008016 -17.44661713 0.25098039 0.27450980 0.65882353
v -0.19610210 0.00550235 -17.44268608 0.25098039 0.27450980 0.65882353
v -0.18122676 0.01149988 -17.44550323 0.25098039 0.27450980 0.65882353
v -0.17920548 0.01170513 -17.44512749 0.25098039 0.27450980 0.65882353
v -0.19452664 0.00032508 -17.43939590 0.25098039 0.27450980 0.65882353
v -0.18742020 0.00248498 -17.43214417 0.25098039 0.27450980 0.65882353
v -0.18329342 0.00741671 -17.43642807 0.25098039 0.27450980 0.65882353
v -0.17968549 0.01119753 -17.43936729 0.25098039 0.27450980 0.65882353
v -0.17920694 0.01433374 -17.44252396 0.25098039 0.27450980 0.65882353
v -0.18385224 0.01072639 -17.43453217 0.25098039 0.27450980 0.65882353
v -0.18101674 0.01361749 -17.43780899 0.25098039 0.27450980 0.65882353
v -0.18042001 0.01634447 -17.44078636 0.25098039 0.27450980 0.65882353
v -0.18556184 0.01372439 -17.43403244 0.25098039 0.27450980 0.65882353
v -0.18331668 0.01600476 -17.43730164 0.25098039 0.27450980 0.65882353
v -0.19070540 0.00851721 -17.42893791 0.25098039 0.27450980 0.65882353
v -0.18840055 0.00551475 -17.42968369 0.25098039 0.27450980 0.65882353
v -0.18235283 0.01727875 -17.43981361 0.25098039 0.27450980 0.65882353
v -0.18220817 0.01387902 -17.44834709 0.25098039 0.27450980 0.65882353
v -0.18248078 0.01746763 -17.44614601 0.25098039 0.27450980 0.65882353
v -0.18336384 0.01280018 -17.44741631 0.25098039 0.27450980 0.65882353
v -0.19574672 0.01145966 -17.44458580 0.25098039 0.27450980 0.65882353
v -0.19117749 0.01520515 -17.44750977 0.25098039 0.27450980 0.65882353
v -0.19672909 0.01407603 -17.44334412 0.25098039 0.27450980 0.65882353
v -0.19217154 0.01747431 -17.44628334 0.25098039 0.27450980 0.65882353
v -0.18718265 0.01575252 -17.44890022 0.25098039 0.27450980 0.65882353
v -0.18698439 0.01474644 -17.44836235 0.25098039 0.27450980 0.65882353
v -0.19236900 0.00792790 -17.42864037 0.25098039 0.27450980 0.65882353
v -0.19595855 0.01092719 -17.43116951 0.25098039 0.27450980 0.65882353
v -0.19468834 0.01156730 -17.43022156 0.25098039 0.27450980 0.65882353
v -0.18918023 0.01724693 -17.43503761 0.25098039 0.27450980 0.65882353
v -0.19873883 0.01266909 -17.43315506 0.25098039 0.27450980 0.65882353
v -0.19965099 0.01278510 -17.43863106 0.25098039 0.27450980 0.65882353
v -0.19568548 0.01648710 -17.44087791 0.25098039 0.27450980 0.65882353
v -0.19294086 0.01802024 -17.43816948 0.25098039 0.27450980 0.65882353
v -0.19181107 0.01921369 -17.44388199 0.25098039 0.27450980 0.65882353
v -0.19069758 0.01918820 -17.44112968 0.25098039 0.27450980 0.65882353
v -0.18649045 0.01898217 -17.43806648 0.25098039 0.27450980 0.65882353
v -0.18770272 0.01919451 -17.44492149 0.25098039 0.27450980 0.65882353
v -0.18765011 0.01802687 -17.44758034 0.25098039 0.27450980 0.65882353
v -0.18322001 0.01884763 -17.44348145 0.25098039 0.27450980 0.65882353
v -0.18763983 0.01978206 -17.44254494 0.25098039 0.27450980 0.65882353
v -0.18422982 0.01941259 -17.44135475 0.25098039 0.27450980 0.65882353
v -0.20750889 0.03642405 -17.41614151 0.25098039 0.27450980 0.65882353
v -0.20638037 0.02901763 -17.43267059 0.25098039 0.27450980 0.65882353
v -0.20742871 0.03078061 -17.43664932 0.25098039 0.27450980 0.65882353
v -0.20922284 0.03239249 -17.43640137 0.25098039 0.27450980 0.65882353
v -0.20798913 0.03195737 -17.43204880 0.25098039 0.27450980 0.65882353
v -0.21480928 0.02250906 -17.42882156 0.25098039 0.27450980 0.65882353
v -0.21039537 0.02391299 -17.42834854 0.25098039 0.27450980 0.65882353
v -0.21294747 0.02743205 -17.42611122 0.25098039 0.27450980 0.65882353
v -0.21727948 0.02622173 -17.42634392 0.25098039 0.27450980 0.65882353
v -0.21856739 0.02261430 -17.43243980 0.25098039 0.27450980 0.65882353
v -0.22100571 0.02618719 -17.43042946 0.25098039 0.27450980 0.65882353
v -0.21887338 0.02949622 -17.42457199 0.25098039 0.27450980 0.65882353
v -0.21421093 0.03076289 -17.42445755 0.25098039 0.27450980 0.65882353
v -0.21726219 0.04393429 -17.41903114 0.25098039 0.27450980 0.65882353
v -0.22288349 0.04496300 -17.41897583 0.25098039 0.27450980 0.65882353
v -0.22284427 0.05337287 -17.43769646 0.25098039 0.27450980 0.65882353
v -0.21752816 0.05472317 -17.43720627 0.25098039 0.27450980 0.65882353
v -0.21677016 0.04663988 -17.43850517 0.25098039 0.27450980 0.65882353
v -0.22175415 0.04677306 -17.43894386 0.25098039 0.27450980 0.65882353
v -0.20762962 0.02641581 -17.42986870 0.25098039 0.27450980 0.65882353
v -0.20907548 0.02991357 -17.42816353 0.25098039 0.27450980 0.65882353
v -0.21804714 0.03439817 -17.44200516 0.25098039 0.27450980 0.65882353
v -0.21339051 0.03516036 -17.44035339 0.25098039 0.27450980 0.65882353
v -0.21156660 0.03309903 -17.44013023 0.25098039 0.27450980 0.65882353
v -0.21538106 0.03207073 -17.44304276 0.25098039 0.27450980 0.65882353
v -0.21339576 0.05221944 -17.43404198 0.25098039 0.27450980 0.65882353
v -0.21185607 0.04914475 -17.42968750 0.25098039 0.27450980 0.65882353
v -0.21094552 0.04603352 -17.43069077 0.25098039 0.27450980 0.65882353
v -0.21283987 0.04517498 -17.43522644 0.25098039 0.27450980 0.65882353
v -0.21178785 0.04387469 -17.42488861 0.25098039 0.27450980 0.65882353
v -0.22185072 0.03275619 -17.44051552 0.25098039 0.27450980 0.65882353
v -0.22451094 0.03048179 -17.43544960 0.25098039 0.27450980 0.65882353
v -0.22999223 0.04646780 -17.43204308 0.25098039 0.27450980 0.65882353
v -0.22674972 0.04736453 -17.43634033 0.25098039 0.27450980 0.65882353
v -0.21042712 0.03154479 -17.42700577 0.25098039 0.27450980 0.65882353
v -0.21021804 0.03478902 -17.43644333 0.25098039 0.27450980 0.65882353
v -0.20900011 0.03316533 -17.43215942 0.25098039 0.27450980 0.65882353
v -0.22340867 0.02940612 -17.42846680 0.25098039 0.27450980 0.65882353
v -0.22168115 0.02737158 -17.43703651 0.25098039 0.27450980 0.65882353
v -0.21205883 0.02221711 -17.44739914 0.25098039 0.27450980 0.65882353
v -0.21747567 0.02763972 -17.44358444 0.25098039 0.27450980 0.65882353
v -0.21337202 0.03048047 -17.44392776 0.25098039 0.27450980 0.65882353
v -0.20997952 0.02475540 -17.44737625 0.25098039 0.27450980 0.65882353
v -0.21924451 0.02989788 -17.44189644 0.25098039 0.27450980 0.65882353
v -0.21926506 0.02401005 -17.43926430 0.25098039 0.27450980 0.65882353
v -0.20217170 0.02437190 -17.43632507 0.25098039 0.27450980 0.65882353
v -0.20448983 0.02649197 -17.44121361 0.25098039 0.27450980 0.65882353
v -0.20264994 0.02185883 -17.43403816 0.25098039 0.27450980 0.65882353
v -0.22823423 0.04597388 -17.42343140 0.25098039 0.27450980 0.65882353
v -0.20812178 0.01639721 -17.43407822 0.25098039 0.27450980 0.65882353
v -0.20430049 0.01870418 -17.43327141 0.25098039 0.27450980 0.65882353
v -0.20970720 0.03117820 -17.44055557 0.25098039 0.27450980 0.65882353
v -0.20726387 0.02649677 -17.44510460 0.25098039 0.27450980 0.65882353
v -0.21348274 0.01875255 -17.44449043 0.25098039 0.27450980 0.65882353
v -0.21274009 0.01633058 -17.43812561 0.25098039 0.27450980 0.65882353
v -0.20881650 0.01711552 -17.44699287 0.25098039 0.27450980 0.65882353
v -0.20809537 0.01419795 -17.44085503 0.25098039 0.27450980 0.65882353
v -0.20342138 0.01564386 -17.43652725 0.25098039 0.27450980 0.65882353
v -0.20189779 0.01904480 -17.43519211 0.25098039 0.27450980 0.65882353
v -0.20102742 0.02205636 -17.43560600 0.25098039 0.27450980 0.65882353
v -0.20853700 0.02160300 -17.44932747 0.25098039 0.27450980 0.65882353
v -0.20750985 0.02456217 -17.44888115 0.25098039 0.27450980 0.65882353
v -0.20580375 0.02653261 -17.44599915 0.25098039 0.27450980 0.65882353
v -0.20509812 0.02147232 -17.45107841 0.25098039 0.27450980 0.65882353
v -0.20284727 0.01753868 -17.44923782 0.25098039 0.27450980 0.65882353
v -0.19089738 0.02212718 -17.44503975 0.25098039 0.27450980 0.65882353
v -0.19400448 0.02063986 -17.44241905 0.25098039 0.27450980 0.65882353
v -0.19426547 0.01986150 -17.44335747 0.25098039 0.27450980 0.65882353
v -0.19078338 0.02110292 -17.44541359 0.25098039 0.27450980 0.65882353
v -0.19828749 0.01746152 -17.44027138 0.25098039 0.27450980 0.65882353
v -0.19764277 0.01748622 -17.44208145 0.25098039 0.27450980 0.65882353
v -0.20047230 0.01619250 -17.44425201 0.25098039 0.27450980 0.65882353
v -0.19587910 0.01800966 -17.44690895 0.25098039 0.27450980 0.65882353
v -0.19829294 0.01962457 -17.45163727 0.25098039 0.27450980 0.65882353
v -0.19450158 0.02084699 -17.45310020 0.25098039 0.27450980 0.65882353
v -0.19265999 0.01913533 -17.44891548 0.25098039 0.27450980 0.65882353
v -0.20100355 0.01720034 -17.44868469 0.25098039 0.27450980 0.65882353
v -0.18894801 0.02124107 -17.44759369 0.25098039 0.27450980 0.65882353
v -0.18788603 0.02208421 -17.44768715 0.25098039 0.27450980 0.65882353
v -0.20233041 0.01500884 -17.44329071 0.25098039 0.27450980 0.65882353
v -0.19831654 0.02070969 -17.43756104 0.25098039 0.27450980 0.65882353
v -0.19305292 0.02295980 -17.44157219 0.25098039 0.27450980 0.65882353
v -0.18936482 0.02410188 -17.44507027 0.25098039 0.27450980 0.65882353
v -0.18771793 0.02427892 -17.44857979 0.25098039 0.27450980 0.65882353
v -0.19386561 0.02533235 -17.44120407 0.25098039 0.27450980 0.65882353
v -0.18964174 0.02640753 -17.44512558 0.25098039 0.27450980 0.65882353
v -0.18825775 0.02648631 -17.44864464 0.25098039 0.27450980 0.65882353
v -0.19542325 0.02809559 -17.44248199 0.25098039 0.27450980 0.65882353
v -0.19126046 0.02815169 -17.44605446 0.25098039 0.27450980 0.65882353
v -0.20032854 0.02690170 -17.43930054 0.25098039 0.27450980 0.65882353
v -0.19880742 0.02408697 -17.43759155 0.25098039 0.27450980 0.65882353
v -0.18969849 0.02747086 -17.44856644 0.25098039 0.27450980 0.65882353
v -0.18869686 0.02131089 -17.45141983 0.25098039 0.27450980 0.65882353
v -0.18866204 0.02423197 -17.45176125 0.25098039 0.27450980 0.65882353
v -0.18970835 0.02026142 -17.45100594 0.25098039 0.27450980 0.65882353
v -0.19910529 0.02043956 -17.45253944 0.25098039 0.27450980 0.65882353
v -0.19459572 0.02195349 -17.45426178 0.25098039 0.27450980 0.65882353
v -0.20002370 0.02268992 -17.45327187 0.25098039 0.27450980 0.65882353
v -0.19475129 0.02410822 -17.45448494 0.25098039 0.27450980 0.65882353
v -0.19105208 0.02210583 -17.45404816 0.25098039 0.27450980 0.65882353
v -0.19168763 0.02082600 -17.45290947 0.25098039 0.27450980 0.65882353
v -0.20115137 0.02553992 -17.43814278 0.25098039 0.27450980 0.65882353
v -0.20320272 0.02668802 -17.44179344 0.25098039 0.27450980 0.65882353
v -0.20256381 0.02787250 -17.44327354 0.25098039 0.27450980 0.65882353
v -0.19782765 0.02937852 -17.44597244 0.25098039 0.27450980 0.65882353
v -0.20496042 0.02721962 -17.44746780 0.25098039 0.27450980 0.65882353
v -0.20562199 0.02456337 -17.45032883 0.25098039 0.27450980 0.65882353
v -0.20012286 0.02549744 -17.45266533 0.25098039 0.27450980 0.65882353
v -0.19951034 0.02824993 -17.45044899 0.25098039 0.27450980 0.65882353
v -0.19447035 0.02618986 -17.45383453 0.25098039 0.27450980 0.65882353
v -0.19452693 0.02843335 -17.45173645 0.25098039 0.27450980 0.65882353
v -0.19328892 0.02932641 -17.44865990 0.25098039 0.27450980 0.65882353
v -0.19089548 0.02608730 -17.45300674 0.25098039 0.27450980 0.65882353
v -0.19062862 0.02445117 -17.45388603 0.25098039 0.27450980 0.65882353
v -0.18925807 0.02617230 -17.45140839 0.25098039 0.27450980 0.65882353
v -0.19140716 0.02755036 -17.45189095 0.25098039 0.27450980 0.65882353
v -0.19056992 0.02772298 -17.45043182 0.25098039 0.27450980 0.65882353
v -0.22600713 0.05152640 -17.43560028 0.25098039 0.27450980 0.65882353
v -0.12905259 0.05096909 -17.41119957 0.25098039 0.27450980 0.65882353
v -0.13454789 0.04896616 -17.41070366 0.25098039 0.27450980 0.65882353
v -0.14013624 0.04709377 -17.42734718 0.25098039 0.27450980 0.65882353
v -0.14147301 0.04513794 -17.41995621 0.25098039 0.27450980 0.65882353
v -0.13508224 0.04974795 -17.43176842 0.25098039 0.27450980 0.65882353
v -0.12481643 0.05435927 -17.42860413 0.25098039 0.27450980 0.65882353
v -0.12994759 0.05317429 -17.43176270 0.25098039 0.27450980 0.65882353
v -0.13931237 0.04604401 -17.41396523 0.25098039 0.27450980 0.65882353
v -0.12432471 0.05341649 -17.41473961 0.25098039 0.27450980 0.65882353
v -0.12209256 0.05519644 -17.42192650 0.25098039 0.27450980 0.65882353
v -0.12116218 0.04472081 -17.41419983 0.25098039 0.27450980 0.65882353
v -0.11885259 0.04610948 -17.42224503 0.25098039 0.27450980 0.65882353
v -0.12102900 0.04519062 -17.42935753 0.25098039 0.27450980 0.65882353
v -0.12798718 0.04525331 -17.43267059 0.25098039 0.27450980 0.65882353
v -0.13310160 0.04403186 -17.43287086 0.25098039 0.27450980 0.65882353
v -0.12820436 0.04399001 -17.41134834 0.25098039 0.27450980 0.65882353
v -0.13386117 0.04270013 -17.41141319 0.25098039 0.27450980 0.65882353
v -0.13918905 0.04164491 -17.41569901 0.25098039 0.27450980 0.65882353
v -0.12938996 0.03582047 -17.41197395 0.25098039 0.27450980 0.65882353
v -0.12528910 0.02787728 -17.41685295 0.25098039 0.27450980 0.65882353
v -0.12620874 0.01785369 -17.43345070 0.25098039 0.27450980 0.65882353
v -0.12629268 0.02458723 -17.43319702 0.25098039 0.27450980 0.65882353
v -0.12477992 0.02367279 -17.43087387 0.25098039 0.27450980 0.65882353
v -0.12430792 0.01763748 -17.43154526 0.25098039 0.27450980 0.65882353
v -0.12414490 0.02923772 -17.43086815 0.25098039 0.27450980 0.65882353
v -0.12412284 0.02749871 -17.42916489 0.25098039 0.27450980 0.65882353
v -0.12349476 0.02811112 -17.42389107 0.25098039 0.27450980 0.65882353
v -0.12334153 0.02255405 -17.42465973 0.25098039 0.27450980 0.65882353
v -0.12519524 0.02634525 -17.41928673 0.25098039 0.27450980 0.65882353
v -0.12623078 0.02238764 -17.41909409 0.25098039 0.27450980 0.65882353
v -0.12322755 0.01707919 -17.42514992 0.25098039 0.27450980 0.65882353
v -0.12334278 0.01403865 -17.43015099 0.25098039 0.27450980 0.65882353
v -0.12347040 0.01240183 -17.42572212 0.25098039 0.27450980 0.65882353
v -0.12598868 0.01289000 -17.43154907 0.25098039 0.27450980 0.65882353
v -0.12091576 0.02918972 -17.42326736 0.25098039 0.27450980 0.65882353
v -0.12703678 0.03506716 -17.43381500 0.25098039 0.27450980 0.65882353
v -0.12909086 0.02644722 -17.43488693 0.25098039 0.27450980 0.65882353
v -0.12982205 0.01858384 -17.43441010 0.25098039 0.27450980 0.65882353
v -0.12923056 0.01300019 -17.43172836 0.25098039 0.27450980 0.65882353
v -0.13350819 0.02724542 -17.43450737 0.25098039 0.27450980 0.65882353
v -0.13374762 0.02003152 -17.43301201 0.25098039 0.27450980 0.65882353
v -0.13330983 0.01513459 -17.42992020 0.25098039 0.27450980 0.65882353
v -0.13741298 0.02742795 -17.43132591 0.25098039 0.27450980 0.65882353
v -0.13632254 0.02072404 -17.42994118 0.25098039 0.27450980 0.65882353
v -0.13777617 0.03966838 -17.42957115 0.25098039 0.27450980 0.65882353
v -0.13277404 0.03863069 -17.43388176 0.25098039 0.27450980 0.65882353
v -0.13490675 0.01699837 -17.42851639 0.25098039 0.27450980 0.65882353
v -0.12533350 0.01029622 -17.42596054 0.25098039 0.27450980 0.65882353
v -0.12899075 0.01054578 -17.42600250 0.25098039 0.27450980 0.65882353
v -0.12825333 0.02314846 -17.41624832 0.25098039 0.27450980 0.65882353
v -0.12563418 0.01712250 -17.41924667 0.25098039 0.27450980 0.65882353
v -0.12839606 0.01718185 -17.41764450 0.25098039 0.27450980 0.65882353
v -0.13147315 0.02493528 -17.41452217 0.25098039 0.27450980 0.65882353
v -0.13119492 0.01747599 -17.41697311 0.25098039 0.27450980 0.65882353
v -0.12704344 0.01245587 -17.42041969 0.25098039 0.27450980 0.65882353
v -0.12468523 0.01379938 -17.42139626 0.25098039 0.27450980 0.65882353
v -0.13840257 0.04319713 -17.42907143 0.25098039 0.27450980 0.65882353
v -0.14053828 0.04254894 -17.42237663 0.25098039 0.27450980 0.65882353
v -0.13977174 0.03954259 -17.42281723 0.25098039 0.27450980 0.65882353
v -0.13954860 0.02777396 -17.42481804 0.25098039 0.27450980 0.65882353
v -0.13909236 0.03776692 -17.41661263 0.25098039 0.27450980 0.65882353
v -0.13440388 0.03647847 -17.41261101 0.25098039 0.27450980 0.65882353
v -0.13517921 0.02574866 -17.41512680 0.25098039 0.27450980 0.65882353
v -0.13844359 0.02700056 -17.41864395 0.25098039 0.27450980 0.65882353
v -0.13445929 0.01846416 -17.41838837 0.25098039 0.27450980 0.65882353
v -0.13623819 0.01963267 -17.42069626 0.25098039 0.27450980 0.65882353
v -0.13739040 0.02020238 -17.42557907 0.25098039 0.27450980 0.65882353
v -0.13321330 0.01440897 -17.42149544 0.25098039 0.27450980 0.65882353
v -0.13026679 0.01280398 -17.42024422 0.25098039 0.27450980 0.65882353
v -0.13282153 0.01315954 -17.42568970 0.25098039 0.27450980 0.65882353
v -0.13480946 0.01646840 -17.42244148 0.25098039 0.27450980 0.65882353
v -0.13489997 0.01610671 -17.42556763 0.25098039 0.27450980 0.65882353
v -0.21740431 0.05938229 -17.43684387 0.25098039 0.27450980 0.65882353
v -0.21192223 0.05688246 -17.43353844 0.25098039 0.27450980 0.65882353
v -0.21190739 0.06222782 -17.43556404 0.25098039 0.27450980 0.65882353
v -0.20880216 0.06919587 -17.43934631 0.25098039 0.27450980 0.65882353
v -0.21140629 0.07848918 -17.44342804 0.25098039 0.27450980 0.65882353
v -0.20333076 0.06815964 -17.43480682 0.25098039 0.27450980 0.65882353
v -0.20698595 0.06075646 -17.43116379 0.25098039 0.27450980 0.65882353
v -0.20764513 0.05273256 -17.42769051 0.25098039 0.27450980 0.65882353
v -0.19570988 0.07452402 -17.43255997 0.25098039 0.27450980 0.65882353
f 2 3 1
f 1 3 4
f 5 6 8
f 8 6 7
f 9 4 10
f 10 4 3
f 12 13 11
f 11 13 9
f 14 12 16
f 16 12 15
f 18 19 17
f 17 19 20
f 22 23 21
f 21 23 24
f 26 27 25
f 25 27 28
f 30 31 29
f 29 31 32
f 33 34 36
f 36 34 35
f 37 38 40
f 40 38 39
f 41 42 6
f 6 42 43
f 6 43 7
f 7 43 44
f 45 34 46
f 46 34 33
f 48 49 47
f 47 49 50
f 52 53 51
f 51 53 54
f 56 52 55
f 55 52 51
f 58 59 57
f 57 59 60
f 61 62 4
f 4 62 1
f 64 65 63
f 63 65 66
f 68 69 67
f 67 69 70
f 72 73 71
f 71 73 74
f 76 77 75
f 75 77 78
f 53 79 54
f 54 79 80
f 82 83 81
f 81 83 84
f 85 86 52
f 52 86 53
f 57 60 87
f 87 60 88
f 89 90 43
f 43 90 44
f 43 42 89
f 89 42 91
f 40 39 92
f 92 39 93
f 94 70 64
f 64 70 69
f 13 61 9
f 9 61 4
f 25 28 69
f 69 28 95
f 96 25 68
f 68 25 69
f 98 99 97
f 97 99 100
f 101 102 104
f 104 102 103
f 106 30 105
f 105 30 29
f 51 54 107
f 107 54 108
f 54 80 108
f 108 80 109
f 111 112 110
f 110 112 113
f 115 5 114
f 114 5 116
f 115 41 5
f 5 41 6
f 36 35 111
f 111 35 117
f 35 118 117
f 117 118 119
f 34 120 35
f 35 120 118
f 34 45 120
f 120 45 121
f 125 126 124
f 124 126 127
f 128 129 14
f 14 129 130
f 33 131 46
f 46 131 132
f 133 94 63
f 63 94 64
f 134 135 137
f 137 135 136
f 139 140 138
f 138 140 141
f 77 142 78
f 78 142 143
f 144 145 20
f 20 145 146
f 148 149 147
f 147 149 72
f 151 152 150
f 150 152 153
f 82 101 83
f 83 101 104
f 101 82 155
f 155 82 154
f 156 157 58
f 58 157 59
f 158 68 147
f 147 68 67
f 159 146 15
f 15 146 16
f 68 158 96
f 96 158 160
f 129 66 130
f 130 66 65
f 162 163 161
f 161 163 164
f 166 167 165
f 165 167 168
f 170 171 169
f 169 171 172
f 174 171 173
f 173 171 170
f 176 177 175
f 175 177 178
f 180 181 179
f 179 181 24
f 182 183 21
f 21 183 184
f 81 185 82
f 82 185 154
f 186 187 188
f 188 187 144
f 158 71 160
f 160 71 189
f 190 135 157
f 157 135 59
f 169 172 139
f 139 172 140
f 147 72 158
f 158 72 71
f 192 193 191
f 191 193 194
f 167 166 49
f 49 166 195
f 196 190 50
f 50 190 157
f 197 198 200
f 200 198 199
f 21 24 182
f 182 24 181
f 146 159 20
f 20 159 17
f 182 181 81
f 81 181 185
f 201 185 180
f 180 185 181
f 202 203 83
f 83 203 84
f 205 206 204
f 204 206 85
f 207 22 184
f 184 22 21
f 179 24 208
f 208 24 23
f 208 209 179
f 179 209 205
f 209 210 205
f 205 210 206
f 212 206 211
f 211 206 210
f 179 205 180
f 180 205 204
f 213 176 88
f 88 176 214
f 86 85 212
f 212 85 206
f 193 217 218
f 217 219 218
f 218 219 220
f 219 18 220
f 220 18 17
f 19 221 20
f 20 221 144
f 222 223 225
f 225 223 224
f 175 226 176
f 176 226 214
f 227 87 214
f 214 87 88
f 220 17 228
f 228 17 159
f 134 213 60
f 60 213 88
f 138 229 151
f 151 229 152
f 193 192 210
f 210 192 211
f 230 194 218
f 218 194 193
f 231 232 228
f 228 232 230
f 233 234 91
f 91 234 89
f 235 236 93
f 93 236 92
f 230 232 234
f 234 232 237
f 47 238 48
f 48 238 239
f 240 191 235
f 235 191 236
f 5 8 116
f 116 8 241
f 242 243 189
f 189 243 160
f 244 245 98
f 98 245 99
f 156 246 47
f 47 246 238
f 76 247 77
f 77 247 248
f 250 125 249
f 249 125 124
f 252 253 251
f 251 253 254
f 111 110 36
f 36 110 255
f 256 33 255
f 255 33 36
f 257 258 154
f 154 258 155
f 63 169 133
f 133 169 139
f 66 170 63
f 63 170 169
f 173 170 129
f 129 170 66
f 129 128 173
f 173 128 259
f 128 260 259
f 259 260 261
f 213 134 262
f 262 134 137
f 263 264 186
f 186 264 187
f 112 265 113
f 113 265 266
f 11 267 268
f 234 233 230
f 230 233 194
f 153 269 70
f 70 269 67
f 175 178 165
f 165 178 141
f 150 153 94
f 94 153 70
f 271 221 270
f 270 221 207
f 269 153 272
f 272 153 152
f 121 45 109
f 109 45 108
f 47 50 156
f 156 50 157
f 57 273 58
f 58 273 274
f 145 275 260
f 260 275 261
f 276 149 143
f 143 149 78
f 148 269 75
f 75 269 272
f 207 277 270
f 270 277 278
f 195 196 49
f 49 196 50
f 59 135 60
f 60 135 134
f 83 104 202
f 202 104 279
f 149 148 78
f 78 148 75
f 247 278 248
f 248 278 277
f 183 182 84
f 84 182 81
f 48 239 281
f 281 239 282
f 227 223 283
f 283 223 222
f 223 226 224
f 224 226 168
f 281 282 224
f 224 282 225
f 165 168 175
f 175 168 226
f 264 263 138
f 138 263 229
f 14 16 128
f 128 16 260
f 220 228 218
f 218 228 230
f 87 227 284
f 284 227 283
f 260 16 145
f 145 16 146
f 244 98 258
f 258 98 155
f 58 274 156
f 156 274 246
f 107 285 51
f 51 285 55
f 243 286 160
f 160 286 96
f 234 237 89
f 89 237 90
f 46 132 107
f 107 132 285
f 253 252 249
f 249 252 250
f 286 26 96
f 96 26 25
f 106 105 287
f 287 105 288
f 272 152 289
f 289 152 229
f 138 151 139
f 139 151 133
f 183 290 161
f 161 290 162
f 291 292 277
f 277 292 293
f 151 150 133
f 133 150 94
f 262 275 177
f 177 275 187
f 144 187 145
f 145 187 275
f 273 57 284
f 284 57 87
f 174 136 190
f 190 136 135
f 111 117 112
f 112 117 38
f 117 119 38
f 38 119 123
f 112 38 265
f 265 38 37
f 287 288 254
f 254 288 251
f 228 159 231
f 231 159 15
f 223 227 226
f 226 227 214
f 147 67 148
f 148 67 269
f 224 168 281
f 281 168 167
f 199 163 200
f 200 163 162
f 45 46 108
f 108 46 107
f 281 167 48
f 48 167 49
f 161 164 291
f 291 164 292
f 38 123 39
f 293 294 277
f 277 294 248
f 284 283 296
f 296 283 295
f 284 296 273
f 273 296 297
f 274 273 298
f 298 273 297
f 246 274 299
f 299 274 298
f 283 222 295
f 295 222 300
f 222 225 300
f 300 225 301
f 301 225 302
f 302 225 282
f 303 304 300
f 300 304 295
f 306 307 305
f 305 307 308
f 309 310 308
f 308 310 305
f 308 307 312
f 312 307 311
f 313 314 312
f 312 314 315
f 311 316 312
f 312 316 313
f 317 304 311
f 311 304 316
f 315 309 312
f 312 309 308
f 318 319 321
f 321 319 320
f 319 318 309
f 309 318 310
f 311 307 317
f 317 307 306
f 306 297 317
f 317 297 296
f 306 322 297
f 297 322 298
f 305 323 306
f 306 323 322
f 323 305 324
f 324 305 310
f 304 317 295
f 295 317 296
f 318 325 310
f 310 325 324
f 323 324 326
f 326 324 327
f 324 325 327
f 327 325 328
f 326 327 329
f 329 327 330
f 329 331 326
f 326 331 332
f 333 330 328
f 328 330 327
f 323 326 322
f 322 326 332
f 322 332 298
f 298 332 299
f 325 318 334
f 334 318 321
f 313 316 335
f 335 316 304
f 335 336 313
f 313 336 314
f 304 303 335
f 335 303 337
f 336 335 338
f 338 335 337
f 336 339 314
f 314 339 340
f 246 299 238
f 238 299 341
f 239 342 282
f 282 342 302
f 342 239 341
f 341 239 238
f 341 331 342
f 342 331 343
f 331 329 343
f 343 329 344
f 342 343 302
f 302 343 345
f 341 299 331
f 331 299 332
f 346 301 345
f 345 301 302
f 346 303 301
f 301 303 300
f 347 337 346
f 346 337 303
f 347 346 348
f 348 346 345
f 349 347 350
f 350 347 348
f 343 344 345
f 345 344 348
f 344 351 348
f 348 351 350
f 337 347 338
f 338 347 349
f 353 338 352
f 352 338 349
f 352 355 354
f 354 355 356
f 352 349 355
f 355 349 350
f 352 354 353
f 353 354 334
f 353 334 339
f 339 334 321
f 339 336 353
f 353 336 338
f 329 330 344
f 344 330 351
f 356 351 333
f 333 351 330
f 356 355 351
f 351 355 350
f 354 356 328
f 328 356 333
f 328 325 354
f 354 325 334
f 309 315 319
f 319 315 320
f 320 340 321
f 321 340 339
f 320 315 340
f 340 315 314
f 137 136 261
f 261 136 259
f 140 166 141
f 141 166 165
f 172 171 195
f 195 171 196
f 171 174 196
f 196 174 190
f 178 177 264
f 264 177 187
f 172 195 140
f 140 195 166
f 137 261 262
f 262 261 275
f 178 264 141
f 141 264 138
f 262 177 213
f 213 177 176
f 136 174 259
f 259 174 173
f 358 359 357
f 357 359 360
f 362 363 361
f 361 363 364
f 361 364 365
f 365 364 366
f 367 368 370
f 370 368 369
f 76 371 247
f 247 371 372
f 373 374 362
f 362 374 363
f 376 377 375
f 375 377 378
f 289 229 380
f 380 229 379
f 381 379 263
f 263 379 229
f 383 384 382
f 382 384 385
f 386 368 374
f 374 368 363
f 76 289 371
f 371 289 380
f 377 376 359
f 359 376 387
f 388 386 360
f 360 386 374
f 389 383 366
f 366 383 390
f 392 393 391
f 391 393 394
f 383 382 390
f 390 382 395
f 396 365 390
f 390 365 366
f 389 366 367
f 367 366 364
f 357 397 358
f 358 397 398
f 373 399 357
f 357 399 397
f 389 367 400
f 400 367 370
f 382 385 375
f 375 385 372
f 357 360 373
f 373 360 374
f 361 401 362
f 362 401 402
f 387 388 359
f 359 388 360
f 363 368 364
f 364 368 367
f 358 398 403
f 403 398 404
f 396 392 405
f 405 392 391
f 392 395 393
f 393 395 378
f 393 403 394
f 394 403 404
f 375 378 382
f 382 378 395
f 365 396 406
f 406 396 405
f 362 402 373
f 373 402 399
f 271 270 400
f 400 270 384
f 401 361 406
f 406 361 365
f 381 369 386
f 386 369 368
f 392 396 395
f 395 396 390
f 393 378 403
f 403 378 377
f 403 377 358
f 358 377 359
f 406 405 408
f 408 405 407
f 406 408 401
f 401 408 409
f 401 409 402
f 402 409 410
f 402 410 399
f 399 410 411
f 405 391 407
f 407 391 412
f 391 394 412
f 412 394 413
f 394 404 413
f 413 404 414
f 415 416 412
f 412 416 407
f 418 419 417
f 417 419 420
f 421 422 418
f 418 422 419
f 419 422 424
f 424 422 423
f 425 426 424
f 424 426 427
f 423 428 424
f 424 428 425
f 427 420 424
f 424 420 419
f 420 429 417
f 417 429 430
f 423 422 431
f 431 422 421
f 421 409 431
f 431 409 408
f 421 432 409
f 409 432 410
f 418 433 421
f 421 433 432
f 434 433 417
f 417 433 418
f 431 416 423
f 423 416 428
f 416 431 407
f 407 431 408
f 435 434 430
f 430 434 417
f 433 434 436
f 436 434 437
f 434 435 437
f 437 435 438
f 436 437 439
f 439 437 440
f 439 441 436
f 436 441 442
f 438 443 437
f 437 443 440
f 436 442 433
f 433 442 432
f 432 442 410
f 410 442 411
f 435 430 445
f 445 430 444
f 430 429 444
f 444 429 446
f 425 428 447
f 447 428 416
f 426 425 448
f 448 425 447
f 416 415 447
f 447 415 449
f 447 449 448
f 448 449 450
f 451 452 448
f 448 452 426
f 446 452 444
f 444 452 451
f 399 411 397
f 397 411 453
f 398 454 404
f 404 454 414
f 454 398 453
f 453 398 397
f 453 441 454
f 454 441 455
f 441 439 455
f 455 439 456
f 454 455 414
f 414 455 457
f 441 453 442
f 442 453 411
f 458 413 457
f 457 413 414
f 458 415 413
f 413 415 412
f 458 459 415
f 415 459 449
f 459 458 460
f 460 458 457
f 461 459 462
f 462 459 460
f 455 456 457
f 457 456 460
f 456 463 460
f 460 463 462
f 459 461 449
f 449 461 450
f 465 450 464
f 464 450 461
f 464 467 466
f 466 467 468
f 464 461 467
f 467 461 462
f 464 466 465
f 465 466 445
f 465 445 451
f 451 445 444
f 451 448 465
f 465 448 450
f 439 440 456
f 456 440 463
f 468 463 443
f 443 463 440
f 468 467 463
f 463 467 462
f 466 468 438
f 438 468 443
f 438 435 466
f 466 435 445
f 420 427 429
f 429 427 446
f 446 427 452
f 452 427 426
f 370 369 188
f 188 369 186
f 371 376 372
f 372 376 375
f 380 379 387
f 387 379 388
f 379 381 388
f 388 381 386
f 385 384 278
f 278 384 270
f 380 387 371
f 371 387 376
f 400 370 271
f 271 370 188
f 385 278 372
f 372 278 247
f 400 384 389
f 389 384 383
f 369 381 186
f 186 381 263
f 221 271 144
f 144 271 188
f 221 19 207
f 207 19 22
f 19 18 22
f 22 18 23
f 18 219 23
f 23 219 208
f 469 470 472
f 472 470 471
f 474 475 473
f 473 475 476
f 473 476 477
f 477 476 478
f 480 481 479
f 479 481 482
f 483 484 474
f 474 484 475
f 486 487 485
f 485 487 488
f 489 490 77
f 77 490 142
f 491 489 248
f 248 489 77
f 493 494 492
f 492 494 495
f 496 480 484
f 484 480 475
f 486 497 487
f 487 497 471
f 498 496 472
f 472 496 484
f 499 493 478
f 478 493 500
f 501 502 504
f 504 502 503
f 493 492 500
f 500 492 505
f 506 477 500
f 500 477 478
f 499 478 479
f 479 478 476
f 469 507 470
f 470 507 508
f 483 509 469
f 469 509 507
f 479 482 499
f 499 482 510
f 492 495 485
f 485 495 511
f 483 469 484
f 484 469 472
f 473 512 474
f 474 512 513
f 497 498 471
f 471 498 472
f 475 480 476
f 476 480 479
f 470 508 514
f 514 508 515
f 506 502 516
f 516 502 501
f 503 502 488
f 488 502 505
f 514 515 503
f 503 515 504
f 485 488 492
f 492 488 505
f 477 506 517
f 517 506 516
f 474 513 483
f 483 513 509
f 510 292 494
f 494 292 164
f 512 473 517
f 517 473 477
f 491 481 496
f 496 481 480
f 502 506 505
f 505 506 500
f 503 488 514
f 514 488 487
f 514 487 470
f 470 487 471
f 517 516 519
f 519 516 518
f 517 519 512
f 512 519 520
f 512 520 513
f 513 520 521
f 513 521 509
f 509 521 522
f 516 501 518
f 518 501 523
f 501 504 523
f 523 504 524
f 524 504 525
f 525 504 515
f 526 527 523
f 523 527 518
f 529 530 528
f 528 530 531
f 532 533 529
f 529 533 530
f 530 533 535
f 535 533 534
f 536 537 535
f 535 537 538
f 534 539 535
f 535 539 536
f 538 531 535
f 535 531 530
f 540 541 531
f 531 541 528
f 533 532 534
f 534 532 542
f 532 520 542
f 542 520 519
f 532 543 520
f 520 543 521
f 529 544 532
f 532 544 543
f 544 529 545
f 545 529 528
f 534 542 539
f 539 542 527
f 527 542 518
f 518 542 519
f 541 546 528
f 528 546 545
f 547 544 548
f 548 544 545
f 546 549 545
f 545 549 548
f 550 547 551
f 551 547 548
f 547 550 553
f 553 550 552
f 549 554 548
f 548 554 551
f 544 547 543
f 543 547 553
f 543 553 521
f 521 553 522
f 546 541 556
f 556 541 555
f 541 540 555
f 555 540 557
f 536 539 558
f 558 539 527
f 537 536 559
f 559 536 558
f 527 526 558
f 558 526 560
f 559 558 561
f 561 558 560
f 559 562 537
f 537 562 563
f 557 563 555
f 555 563 562
f 509 522 507
f 507 522 564
f 508 565 515
f 515 565 525
f 565 508 564
f 564 508 507
f 564 552 565
f 565 552 566
f 552 550 566
f 566 550 567
f 565 566 525
f 525 566 568
f 564 522 552
f 552 522 553
f 569 524 568
f 568 524 525
f 569 526 524
f 524 526 523
f 570 560 569
f 569 560 526
f 570 569 571
f 571 569 568
f 572 570 573
f 573 570 571
f 566 567 568
f 568 567 571
f 567 574 571
f 571 574 573
f 570 572 560
f 560 572 561
f 576 561 575
f 575 561 572
f 575 578 577
f 577 578 579
f 575 572 578
f 578 572 573
f 575 577 576
f 576 577 556
f 576 556 562
f 562 556 555
f 562 559 576
f 576 559 561
f 550 551 567
f 567 551 574
f 579 574 554
f 554 574 551
f 579 578 574
f 574 578 573
f 579 554 577
f 577 554 549
f 549 546 577
f 577 546 556
f 531 538 540
f 540 538 557
f 557 538 563
f 563 538 537
f 481 294 482
f 482 294 293
f 580 486 511
f 511 486 485
f 490 489 497
f 497 489 498
f 489 491 498
f 498 491 496
f 163 495 164
f 164 495 494
f 580 490 486
f 486 490 497
f 482 293 510
f 510 293 292
f 495 163 511
f 511 163 199
f 494 493 510
f 510 493 499
f 481 491 294
f 294 491 248
f 582 583 581
f 581 583 584
f 586 587 585
f 585 587 588
f 585 588 589
f 589 588 590
f 592 593 591
f 591 593 594
f 595 596 598
f 598 596 597
f 599 600 586
f 586 600 587
f 601 602 604
f 604 602 603
f 605 606 608
f 608 606 607
f 609 607 200
f 200 607 606
f 610 611 613
f 613 611 612
f 600 614 587
f 587 614 592
f 596 605 597
f 597 605 608
f 602 615 603
f 603 615 583
f 616 614 584
f 584 614 600
f 611 618 617
f 617 618 590
f 620 621 619
f 619 621 622
f 610 623 611
f 611 623 618
f 624 589 618
f 618 589 590
f 617 590 591
f 591 590 588
f 581 625 582
f 582 625 626
f 599 627 581
f 581 627 625
f 591 594 617
f 617 594 628
f 601 610 598
f 598 610 613
f 581 584 599
f 599 584 600
f 585 629 586
f 586 629 630
f 615 616 583
f 583 616 584
f 587 592 588
f 588 592 591
f 582 626 631
f 631 626 632
f 624 620 633
f 633 620 619
f 621 620 604
f 604 620 623
f 631 632 621
f 621 632 622
f 610 601 623
f 623 601 604
f 589 624 634
f 634 624 633
f 586 630 599
f 599 630 627
f 203 202 628
f 628 202 612
f 629 585 634
f 634 585 589
f 609 593 614
f 614 593 592
f 620 624 623
f 623 624 618
f 631 621 603
f 603 621 604
f 582 631 583
f 583 631 603
f 634 633 636
f 636 633 635
f 634 636 629
f 629 636 637
f 629 637 630
f 630 637 638
f 630 638 627
f 627 638 639
f 633 619 635
f 635 619 640
f 619 622 640
f 640 622 641
f 641 622 642
f 642 622 632
f 644 635 643
f 643 635 640
f 645 646 648
f 648 646 647
f 649 650 646
f 646 650 647
f 647 650 652
f 652 650 651
f 652 653 655
f 655 653 654
f 651 656 652
f 652 656 653
f 655 648 652
f 652 648 647
f 648 657 645
f 645 657 658
f 650 649 651
f 651 649 659
f 649 637 659
f 659 637 636
f 649 660 637
f 637 660 638
f 661 660 646
f 646 660 649
f 662 661 645
f 645 661 646
f 651 659 656
f 656 659 644
f 644 659 635
f 635 659 636
f 663 662 658
f 658 662 645
f 664 661 665
f 665 661 662
f 663 666 662
f 662 666 665
f 667 664 668
f 668 664 665
f 664 667 670
f 670 667 669
f 666 671 665
f 665 671 668
f 661 664 660
f 660 664 670
f 660 670 638
f 638 670 639
f 658 672 663
f 663 672 673
f 658 657 672
f 672 657 674
f 653 656 675
f 675 656 644
f 653 675 654
f 654 675 676
f 675 644 677
f 677 644 643
f 676 675 678
f 678 675 677
f 679 680 676
f 676 680 654
f 674 680 672
f 672 680 679
f 627 639 625
f 625 639 681
f 626 682 632
f 632 682 642
f 681 682 625
f 625 682 626
f 669 683 681
f 681 683 682
f 667 684 669
f 669 684 683
f 682 683 642
f 642 683 685
f 681 639 669
f 669 639 670
f 686 641 685
f 685 641 642
f 641 686 640
f 640 686 643
f 686 687 643
f 643 687 677
f 687 686 688
f 688 686 685
f 689 687 690
f 690 687 688
f 683 684 685
f 685 684 688
f 684 691 688
f 688 691 690
f 687 689 677
f 677 689 678
f 693 678 692
f 692 678 689
f 692 695 694
f 694 695 696
f 692 689 695
f 695 689 690
f 692 694 693
f 693 694 673
f 693 673 679
f 679 673 672
f 679 676 693
f 693 676 678
f 684 667 691
f 691 667 668
f 696 691 671
f 671 691 668
f 696 695 691
f 691 695 690
f 694 696 666
f 666 696 671
f 666 663 694
f 694 663 673
f 648 655 657
f 657 655 674
f 674 655 680
f 680 655 654
f 593 162 594
f 594 162 290
f 598 597 601
f 601 597 602
f 615 608 616
f 616 608 607
f 607 609 616
f 616 609 614
f 697 595 613
f 613 595 598
f 597 608 602
f 602 608 615
f 594 290 628
f 628 290 203
f 628 612 617
f 617 612 611
f 593 609 162
f 162 609 200
f 105 29 698
f 698 29 699
f 268 126 701
f 701 126 700
f 126 125 700
f 700 125 702
f 252 703 250
f 250 703 704
f 32 268 705
f 705 268 701
f 288 105 706
f 706 105 698
f 29 32 699
f 699 32 705
f 707 251 706
f 706 251 288
f 250 704 125
f 125 704 702
f 703 252 707
f 707 252 251
f 706 708 707
f 707 708 709
f 707 709 703
f 703 709 710
f 703 710 704
f 704 710 711
f 704 711 702
f 702 711 712
f 706 698 708
f 708 698 713
f 698 699 713
f 713 699 714
f 699 705 714
f 714 705 715
f 717 708 716
f 716 708 713
f 719 720 718
f 718 720 721
f 722 723 719
f 719 723 720
f 724 725 723
f 723 725 720
f 724 726 725
f 725 726 727
f 728 721 725
f 725 721 720
f 721 728 729
f 729 728 730
f 729 731 721
f 721 731 718
f 724 723 732
f 732 723 722
f 722 710 732
f 732 710 709
f 722 733 710
f 710 733 711
f 719 734 722
f 722 734 733
f 734 719 735
f 735 719 718
f 724 732 726
f 726 732 717
f 717 732 708
f 708 732 709
f 731 736 718
f 718 736 735
f 737 734 738
f 738 734 735
f 736 739 735
f 735 739 738
f 740 737 741
f 741 737 738
f 737 740 743
f 743 740 742
f 739 744 738
f 738 744 741
f 734 737 733
f 733 737 743
f 733 743 711
f 711 743 712
f 736 731 746
f 746 731 745
f 731 729 745
f 745 729 730
f 727 726 747
f 747 726 717
f 748 727 749
f 749 727 747
f 747 717 750
f 750 717 716
f 749 747 751
f 751 747 750
f 749 752 748
f 748 752 753
f 730 753 745
f 745 753 752
f 728 725 748
f 748 725 727
f 730 728 753
f 753 728 748
f 700 702 754
f 754 702 712
f 705 701 715
f 715 701 755
f 754 755 700
f 700 755 701
f 742 756 754
f 754 756 755
f 740 757 742
f 742 757 756
f 755 756 715
f 715 756 758
f 754 712 742
f 742 712 743
f 759 714 758
f 758 714 715
f 714 759 713
f 713 759 716
f 759 760 716
f 716 760 750
f 760 759 761
f 761 759 758
f 762 760 763
f 763 760 761
f 756 757 758
f 758 757 761
f 757 764 761
f 761 764 763
f 760 762 750
f 750 762 751
f 766 751 765
f 765 751 762
f 767 765 769
f 769 765 768
f 765 762 768
f 768 762 763
f 765 767 766
f 766 767 746
f 766 746 752
f 752 746 745
f 752 749 766
f 766 749 751
f 757 740 764
f 764 740 741
f 769 764 744
f 744 764 741
f 769 768 764
f 764 768 763
f 767 769 739
f 739 769 744
f 739 736 767
f 767 736 746
f 219 217 208
f 208 217 209
f 209 217 210
f 210 217 193
f 198 580 199
f 199 580 511
f 76 75 289
f 289 75 272
f 277 207 291
f 291 207 184
f 290 183 203
f 203 183 84
f 490 580 142
f 142 580 198
f 142 198 143
f 143 198 197
f 149 276 72
f 72 276 73
f 104 103 279
f 279 103 770
f 770 596 279
f 279 596 595
f 605 596 771
f 771 596 770
f 771 770 772
f 772 770 103
f 772 103 773
f 773 103 102
f 155 774 101
f 101 774 102
f 773 102 97
f 97 102 774
f 775 773 100
f 100 773 97
f 773 775 772
f 772 775 776
f 772 776 771
f 771 776 777
f 200 606 197
f 197 606 777
f 189 71 778
f 778 71 74
f 97 774 98
f 98 774 155
f 183 161 184
f 184 161 291
f 777 276 197
f 197 276 143
f 777 606 771
f 771 606 605
f 613 612 697
f 697 612 202
f 595 697 279
f 279 697 202
f 73 276 776
f 776 276 777
f 776 775 73
f 73 775 74
f 100 778 775
f 775 778 74
f 778 100 189
f 189 100 99
f 245 242 99
f 99 242 189
f 131 33 256
f 28 1 95
f 95 1 62
f 27 2 28
f 28 2 1
f 265 115 266
f 266 115 114
f 95 62 69
f 69 62 64
f 62 61 64
f 64 61 65
f 61 13 65
f 65 13 130
f 13 12 130
f 130 12 14
f 31 11 32
f 32 11 268
f 15 12 31
f 31 12 11
f 31 30 15
f 15 30 231
f 30 106 231
f 231 106 232
f 287 237 106
f 106 237 232
f 254 90 287
f 287 90 237
f 253 44 254
f 254 44 90
f 253 249 44
f 44 249 7
f 267 127 268
f 268 127 126
f 10 3 241
f 241 3 116
f 3 2 116
f 116 2 114
f 2 27 114
f 114 27 266
f 27 26 266
f 266 26 113
f 26 286 113
f 113 286 110
f 286 243 110
f 110 243 255
f 243 242 255
f 255 242 256
f 242 245 256
f 256 245 131
f 245 244 131
f 131 244 132
f 265 37 115
f 115 37 41
f 41 37 42
f 42 37 40
f 92 91 40
f 40 91 42
f 236 233 92
f 92 233 91
f 191 194 236
f 236 194 233
f 258 285 244
f 244 285 132
f 257 55 258
f 258 55 285
f 257 154 201
f 201 154 185
f 56 201 204
f 204 201 180
f 55 257 56
f 56 257 201
f 204 85 56
f 56 85 52
f 86 122 53
f 53 122 79
f 212 215 86
f 86 215 122
f 211 216 212
f 212 216 215
f 192 280 211
f 211 280 216
f 191 240 192
f 192 240 280
f 249 124 7
f 7 124 8
f 124 127 8
f 8 127 241
f 127 267 241
f 241 267 10
f 10 267 9
f 9 267 11
f 93 39 235
f 235 39 240
f 39 123 240
f 240 123 280
f 123 119 280
f 280 119 216
f 119 118 216
f 216 118 215
f 118 120 215
f 215 120 122
f 120 121 122
f 122 121 79
f 121 109 79
f 79 109 80

