# https://github.com/mikedh/trimesh
v -0.10899776 -0.10277388 -16.93435669 0.25098039 0.27450980 0.65882353
v -0.10533293 -0.10250766 -16.94719124 0.25098039 0.27450980 0.65882353
v -0.09786588 -0.10510787 -16.94291878 0.25098039 0.27450980 0.65882353
v -0.10273955 -0.10321579 -16.92886353 0.25098039 0.27450980 0.65882353
v -0.08610347 -0.09553637 -16.96153641 0.25098039 0.27450980 0.65882353
v -0.08134411 -0.08445799 -16.96138954 0.25098039 0.27450980 0.65882353
v -0.07637906 -0.09218428 -16.95096016 0.25098039 0.27450980 0.65882353
v -0.08132765 -0.10134921 -16.95324135 0.25098039 0.27450980 0.65882353
v -0.09913892 -0.10341969 -16.92405319 0.25098039 0.27450980 0.65882353
v -0.09286730 -0.10781902 -16.93774033 0.25098039 0.27450980 0.65882353
v -0.09853236 -0.10166013 -16.92186928 0.25098039 0.27450980 0.65882353
v -0.10925636 -0.09064510 -16.91039085 0.25098039 0.27450980 0.65882353
v -0.10702571 -0.09568945 -16.91324806 0.25098039 0.27450980 0.65882353
v -0.11549401 -0.08796683 -16.90298653 0.25098039 0.27450980 0.65882353
v -0.11449353 -0.08207229 -16.91325378 0.25098039 0.27450980 0.65882353
v -0.12449422 -0.08476793 -16.90315056 0.25098039 0.27450980 0.65882353
v -0.14105880 -0.08436607 -16.92606735 0.25098039 0.27450980 0.65882353
v -0.14809310 -0.09323649 -16.93410873 0.25098039 0.27450980 0.65882353
v -0.15157208 -0.10048433 -16.91905975 0.25098039 0.27450980 0.65882353
v -0.14358899 -0.09090577 -16.91245461 0.25098039 0.27450980 0.65882353
v -0.15665707 -0.11440158 -16.93528366 0.25098039 0.27450980 0.65882353
v -0.15440883 -0.10711647 -16.92564392 0.25098039 0.27450980 0.65882353
v -0.15168193 -0.09933562 -16.94069481 0.25098039 0.27450980 0.65882353
v -0.15370920 -0.10595719 -16.94855499 0.25098039 0.27450980 0.65882353
v -0.11729555 -0.10681873 -16.94465828 0.25098039 0.27450980 0.65882353
v -0.11475902 -0.10564998 -16.95497894 0.25098039 0.27450980 0.65882353
v -0.11298855 -0.10322662 -16.95209503 0.25098039 0.27450980 0.65882353
v -0.11491933 -0.10411707 -16.94153214 0.25098039 0.27450980 0.65882353
v -0.08783907 -0.09875481 -16.92185593 0.25098039 0.27450980 0.65882353
v -0.09736501 -0.08546951 -16.92302895 0.25098039 0.27450980 0.65882353
v -0.09965670 -0.09267594 -16.92040825 0.25098039 0.27450980 0.65882353
v -0.08821917 -0.10448574 -16.92415619 0.25098039 0.27450980 0.65882353
v -0.10863344 -0.10746711 -16.98180771 0.25098039 0.27450980 0.65882353
v -0.11202355 -0.09741114 -16.99178123 0.25098039 0.27450980 0.65882353
v -0.10926706 -0.09265091 -16.98911095 0.25098039 0.27450980 0.65882353
v -0.10745016 -0.10227776 -16.98039818 0.25098039 0.27450980 0.65882353
v -0.09512304 -0.08096036 -16.97569084 0.25098039 0.27450980 0.65882353
v -0.10099568 -0.07648981 -16.98184967 0.25098039 0.27450980 0.65882353
v -0.10249628 -0.06362808 -16.98175049 0.25098039 0.27450980 0.65882353
v -0.09834397 -0.06713155 -16.97294807 0.25098039 0.27450980 0.65882353
v -0.08729242 -0.08260091 -16.96850204 0.25098039 0.27450980 0.65882353
v -0.08983763 -0.07123685 -16.96487999 0.25098039 0.27450980 0.65882353
v -0.08300105 -0.07450670 -16.95583344 0.25098039 0.27450980 0.65882353
v -0.07646884 -0.08418290 -16.94527054 0.25098039 0.27450980 0.65882353
v -0.12067333 -0.10561655 -16.99687958 0.25098039 0.27450980 0.65882353
v -0.11940916 -0.11443254 -16.99105072 0.25098039 0.27450980 0.65882353
v -0.11311523 -0.11527190 -16.86684418 0.25098039 0.27450980 0.65882353
v -0.11539586 -0.12022746 -16.86965179 0.25098039 0.27450980 0.65882353
v -0.11628491 -0.11777554 -16.87222672 0.25098039 0.27450980 0.65882353
v -0.11401809 -0.11329958 -16.86900711 0.25098039 0.27450980 0.65882353
v -0.14092502 -0.10978118 -16.99561501 0.25098039 0.27450980 0.65882353
v -0.14874415 -0.10320134 -16.99295998 0.25098039 0.27450980 0.65882353
v -0.14666960 -0.10189280 -16.99950409 0.25098039 0.27450980 0.65882353
v -0.13842446 -0.10640931 -17.00161552 0.25098039 0.27450980 0.65882353
v -0.14416099 -0.11414345 -16.98735809 0.25098039 0.27450980 0.65882353
v -0.15073746 -0.10523066 -16.98351479 0.25098039 0.27450980 0.65882353
v -0.12050277 -0.11246837 -16.85710907 0.25098039 0.27450980 0.65882353
v -0.11605669 -0.11180437 -16.85938835 0.25098039 0.27450980 0.65882353
v -0.11847037 -0.10837574 -16.86126518 0.25098039 0.27450980 0.65882353
v -0.12365260 -0.10895219 -16.85984993 0.25098039 0.27450980 0.65882353
v -0.10740482 -0.09914365 -16.91761208 0.25098039 0.27450980 0.65882353
v -0.11089115 -0.10280686 -16.92389107 0.25098039 0.27450980 0.65882353
v -0.11331467 -0.10327582 -16.89948082 0.25098039 0.27450980 0.65882353
v -0.11372853 -0.10272154 -16.90942574 0.25098039 0.27450980 0.65882353
v -0.11084661 -0.09709376 -16.90793037 0.25098039 0.27450980 0.65882353
v -0.11160809 -0.09685172 -16.89942741 0.25098039 0.27450980 0.65882353
v -0.12467160 -0.11607271 -16.92552948 0.25098039 0.27450980 0.65882353
v -0.12199292 -0.11199477 -16.93591690 0.25098039 0.27450980 0.65882353
v -0.11967091 -0.10808755 -16.93128777 0.25098039 0.27450980 0.65882353
v -0.12060142 -0.11200692 -16.91905403 0.25098039 0.27450980 0.65882353
v -0.12642492 -0.12235765 -16.94474220 0.25098039 0.27450980 0.65882353
v -0.12906495 -0.12533408 -16.93398857 0.25098039 0.27450980 0.65882353
v -0.13163544 -0.13064429 -16.94067955 0.25098039 0.27450980 0.65882353
v -0.12841327 -0.12825859 -16.94704437 0.25098039 0.27450980 0.65882353
v -0.13168287 -0.12818474 -16.91375351 0.25098039 0.27450980 0.65882353
v -0.13413703 -0.12946281 -16.90754890 0.25098039 0.27450980 0.65882353
v -0.13464038 -0.13165551 -16.90780640 0.25098039 0.27450980 0.65882353
v -0.13285759 -0.13016179 -16.91611481 0.25098039 0.27450980 0.65882353
v -0.14548060 -0.09959638 -17.00569725 0.25098039 0.27450980 0.65882353
v -0.13617082 -0.10221206 -17.00679016 0.25098039 0.27450980 0.65882353
v -0.15884793 -0.12936328 -16.95122528 0.25098039 0.27450980 0.65882353
v -0.15362650 -0.13450046 -16.95966339 0.25098039 0.27450980 0.65882353
v -0.15610003 -0.14307082 -16.94989204 0.25098039 0.27450980 0.65882353
v -0.16205144 -0.13513790 -16.94280243 0.25098039 0.27450980 0.65882353
v -0.15214121 -0.09464352 -16.98705673 0.25098039 0.27450980 0.65882353
v -0.15203868 -0.09413357 -16.99444962 0.25098039 0.27450980 0.65882353
v -0.12539454 -0.11586866 -16.85724449 0.25098039 0.27450980 0.65882353
v -0.12855241 -0.11257565 -16.86002922 0.25098039 0.27450980 0.65882353
v -0.09293631 -0.06670456 -16.94939041 0.25098039 0.27450980 0.65882353
v -0.08214836 -0.07811415 -16.93810654 0.25098039 0.27450980 0.65882353
v -0.10120114 -0.06082256 -16.96096992 0.25098039 0.27450980 0.65882353
v -0.10805791 -0.05723180 -16.96949387 0.25098039 0.27450980 0.65882353
v -0.11124686 -0.05463468 -16.97788048 0.25098039 0.27450980 0.65882353
v -0.11684052 -0.10867826 -16.90838051 0.25098039 0.27450980 0.65882353
v -0.11507223 -0.10459024 -16.93149567 0.25098039 0.27450980 0.65882353
v -0.11905459 -0.11012566 -16.94754601 0.25098039 0.27450980 0.65882353
v -0.12881455 -0.13519540 -16.96327209 0.25098039 0.27450980 0.65882353
v -0.12563519 -0.13120416 -16.97223091 0.25098039 0.27450980 0.65882353
v -0.12102505 -0.12606274 -16.96363831 0.25098039 0.27450980 0.65882353
v -0.12531897 -0.13035174 -16.95746422 0.25098039 0.27450980 0.65882353
v -0.14579698 -0.14052412 -16.96173668 0.25098039 0.27450980 0.65882353
v -0.13808107 -0.14115717 -16.95852280 0.25098039 0.27450980 0.65882353
v -0.14035629 -0.14422873 -16.95207214 0.25098039 0.27450980 0.65882353
v -0.14825486 -0.14533962 -16.95350838 0.25098039 0.27450980 0.65882353
v -0.08305460 -0.09305868 -16.92194557 0.25098039 0.27450980 0.65882353
v -0.09510149 -0.07994415 -16.92564583 0.25098039 0.27450980 0.65882353
v -0.13065140 -0.11313882 -16.99533844 0.25098039 0.27450980 0.65882353
v -0.12836146 -0.10738495 -16.99976540 0.25098039 0.27450980 0.65882353
v -0.12848738 -0.10133225 -17.00619507 0.25098039 0.27450980 0.65882353
v -0.11028289 -0.10555769 -16.96812057 0.25098039 0.27450980 0.65882353
v -0.10641712 -0.09887287 -16.97966003 0.25098039 0.27450980 0.65882353
v -0.10451998 -0.09601211 -16.97772980 0.25098039 0.27450980 0.65882353
v -0.11035208 -0.10315764 -16.96674156 0.25098039 0.27450980 0.65882353
v -0.10005204 -0.09963341 -16.96055412 0.25098039 0.27450980 0.65882353
v -0.09444615 -0.09301068 -16.96919250 0.25098039 0.27450980 0.65882353
v -0.09255670 -0.10412265 -16.95552063 0.25098039 0.27450980 0.65882353
v -0.10585262 -0.08506346 -16.98683929 0.25098039 0.27450980 0.65882353
v -0.10901786 -0.08625461 -16.99754715 0.25098039 0.27450980 0.65882353
v -0.10576469 -0.07852493 -16.99382401 0.25098039 0.27450980 0.65882353
v -0.11484280 -0.09315336 -17.00174713 0.25098039 0.27450980 0.65882353
v -0.12171436 -0.09860306 -17.00422287 0.25098039 0.27450980 0.65882353
v -0.15390655 -0.09162794 -17.00167465 0.25098039 0.27450980 0.65882353
v -0.10376199 -0.07128946 -16.98955536 0.25098039 0.27450980 0.65882353
v -0.07890882 -0.10650636 -16.94703484 0.25098039 0.27450980 0.65882353
v -0.07563716 -0.11060234 -16.94119453 0.25098039 0.27450980 0.65882353
v -0.08196448 -0.11435682 -16.93669701 0.25098039 0.27450980 0.65882353
v -0.08560173 -0.11140402 -16.94285583 0.25098039 0.27450980 0.65882353
v -0.11975250 -0.08835933 -16.89414597 0.25098039 0.27450980 0.65882353
v -0.11357236 -0.09246860 -16.89630127 0.25098039 0.27450980 0.65882353
v -0.11065281 -0.09143744 -16.90596771 0.25098039 0.27450980 0.65882353
v -0.11306364 -0.11577475 -16.97570419 0.25098039 0.27450980 0.65882353
v -0.12179941 -0.12181336 -16.98422623 0.25098039 0.27450980 0.65882353
v -0.11729578 -0.10885000 -16.89823723 0.25098039 0.27450980 0.65882353
v -0.12564823 -0.10510335 -16.86371803 0.25098039 0.27450980 0.65882353
v -0.11967260 -0.10457177 -16.86495209 0.25098039 0.27450980 0.65882353
v -0.11990011 -0.09416936 -16.88007164 0.25098039 0.27450980 0.65882353
v -0.12715192 -0.09426825 -16.87830734 0.25098039 0.27450980 0.65882353
v -0.12617165 -0.11201744 -16.89157677 0.25098039 0.27450980 0.65882353
v -0.11978532 -0.11040623 -16.89345932 0.25098039 0.27450980 0.65882353
v -0.12161750 -0.11140756 -16.89161491 0.25098039 0.27450980 0.65882353
v -0.12746495 -0.11480041 -16.88954163 0.25098039 0.27450980 0.65882353
v -0.13485822 -0.13566315 -16.91631508 0.25098039 0.27450980 0.65882353
v -0.13414568 -0.13448273 -16.92350197 0.25098039 0.27450980 0.65882353
v -0.14350951 -0.09997906 -16.89943886 0.25098039 0.27450980 0.65882353
v -0.13732482 -0.08771007 -16.89690590 0.25098039 0.27450980 0.65882353
v -0.13506271 -0.08474703 -16.90772629 0.25098039 0.27450980 0.65882353
v -0.12708692 -0.12093484 -16.93090248 0.25098039 0.27450980 0.65882353
v -0.12926607 -0.12548620 -16.92196846 0.25098039 0.27450980 0.65882353
v -0.13108402 -0.12809683 -16.92473793 0.25098039 0.27450980 0.65882353
v -0.11968347 -0.11213958 -16.90633202 0.25098039 0.27450980 0.65882353
v -0.12152209 -0.11300799 -16.89831352 0.25098039 0.27450980 0.65882353
v -0.12315144 -0.11513735 -16.90318871 0.25098039 0.27450980 0.65882353
v -0.12234145 -0.11463328 -16.91045380 0.25098039 0.27450980 0.65882353
v -0.15131107 -0.12681428 -16.97015953 0.25098039 0.27450980 0.65882353
v -0.14228895 -0.13423595 -16.97217560 0.25098039 0.27450980 0.65882353
v -0.11339132 -0.11256728 -16.86303329 0.25098039 0.27450980 0.65882353
v -0.11490117 -0.10979550 -16.86492157 0.25098039 0.27450980 0.65882353
v -0.12454934 -0.11658312 -16.94086075 0.25098039 0.27450980 0.65882353
v -0.13206066 -0.08089936 -16.92021561 0.25098039 0.27450980 0.65882353
v -0.12061574 -0.11392923 -16.95084381 0.25098039 0.27450980 0.65882353
v -0.15577316 -0.13451090 -16.92580414 0.25098039 0.27450980 0.65882353
v -0.14880966 -0.14026606 -16.92677498 0.25098039 0.27450980 0.65882353
v -0.14660519 -0.14201862 -16.92289352 0.25098039 0.27450980 0.65882353
v -0.15228167 -0.14005832 -16.92037392 0.25098039 0.27450980 0.65882353
v -0.12775505 -0.12164149 -16.87656975 0.25098039 0.27450980 0.65882353
v -0.12173478 -0.12114247 -16.87706184 0.25098039 0.27450980 0.65882353
v -0.12102187 -0.12196285 -16.87352371 0.25098039 0.27450980 0.65882353
v -0.12670757 -0.12325214 -16.87217140 0.25098039 0.27450980 0.65882353
v -0.11565772 -0.10605358 -16.89331436 0.25098039 0.27450980 0.65882353
v -0.11322211 -0.09973320 -16.89236069 0.25098039 0.27450980 0.65882353
v -0.11406001 -0.10334302 -16.88757324 0.25098039 0.27450980 0.65882353
v -0.11753549 -0.10831913 -16.88968086 0.25098039 0.27450980 0.65882353
v -0.11554047 -0.09456785 -16.88886833 0.25098039 0.27450980 0.65882353
v -0.11498298 -0.09756576 -16.88391495 0.25098039 0.27450980 0.65882353
v -0.13301352 -0.11868011 -16.87325287 0.25098039 0.27450980 0.65882353
v -0.13429600 -0.11313217 -16.86802483 0.25098039 0.27450980 0.65882353
v -0.13701625 -0.10490914 -16.88236237 0.25098039 0.27450980 0.65882353
v -0.13388380 -0.11236733 -16.88512802 0.25098039 0.27450980 0.65882353
v -0.15252942 -0.09722815 -16.96092606 0.25098039 0.27450980 0.65882353
v -0.15434904 -0.10572521 -16.96803665 0.25098039 0.27450980 0.65882353
v -0.15612692 -0.11440618 -16.95574570 0.25098039 0.27450980 0.65882353
v -0.15892787 -0.12333839 -16.94379234 0.25098039 0.27450980 0.65882353
v -0.15997641 -0.13109018 -16.93251038 0.25098039 0.27450980 0.65882353
v -0.16004169 -0.12170732 -16.92492485 0.25098039 0.27450980 0.65882353
v -0.15574497 -0.11993464 -16.96211815 0.25098039 0.27450980 0.65882353
v -0.13388702 -0.11033335 -16.89361191 0.25098039 0.27450980 0.65882353
v -0.13813744 -0.10066894 -16.89162254 0.25098039 0.27450980 0.65882353
v -0.13945572 -0.10632744 -16.89452553 0.25098039 0.27450980 0.65882353
v -0.12190014 -0.12012845 -16.95498466 0.25098039 0.27450980 0.65882353
v -0.11523826 -0.10655200 -16.86812401 0.25098039 0.27450980 0.65882353
v -0.13179669 -0.05889181 -16.97089958 0.25098039 0.27450980 0.65882353
v -0.14281283 -0.06620303 -16.97573090 0.25098039 0.27450980 0.65882353
v -0.14062794 -0.06913091 -16.96798706 0.25098039 0.27450980 0.65882353
v -0.12816265 -0.06123477 -16.96200562 0.25098039 0.27450980 0.65882353
v -0.11586011 -0.11688152 -16.87541008 0.25098039 0.27450980 0.65882353
v -0.11301453 -0.11132921 -16.87238312 0.25098039 0.27450980 0.65882353
v -0.13543448 -0.13987273 -16.92712593 0.25098039 0.27450980 0.65882353
v -0.13603133 -0.14005728 -16.92044258 0.25098039 0.27450980 0.65882353
v -0.13885430 -0.14233485 -16.92173958 0.25098039 0.27450980 0.65882353
v -0.13677837 -0.14395520 -16.92817497 0.25098039 0.27450980 0.65882353
v -0.15388981 -0.10965504 -16.97291756 0.25098039 0.27450980 0.65882353
v -0.15206176 -0.14997749 -16.94481087 0.25098039 0.27450980 0.65882353
v -0.15869126 -0.14238122 -16.93776321 0.25098039 0.27450980 0.65882353
v -0.15255381 -0.09797246 -16.97840691 0.25098039 0.27450980 0.65882353
v -0.15187836 -0.09022183 -16.97217560 0.25098039 0.27450980 0.65882353
v -0.15217397 -0.08557162 -16.98045731 0.25098039 0.27450980 0.65882353
v -0.15475757 -0.11614665 -16.91065025 0.25098039 0.27450980 0.65882353
v -0.15028429 -0.09225981 -16.95414925 0.25098039 0.27450980 0.65882353
v -0.14905486 -0.08563586 -16.96669197 0.25098039 0.27450980 0.65882353
v -0.14929923 -0.07975620 -16.97615623 0.25098039 0.27450980 0.65882353
v -0.15058485 -0.07563062 -16.98294258 0.25098039 0.27450980 0.65882353
v -0.15284613 -0.08289117 -16.98703575 0.25098039 0.27450980 0.65882353
v -0.13088392 -0.10893658 -16.86462975 0.25098039 0.27450980 0.65882353
v -0.13211021 -0.11764431 -16.86307526 0.25098039 0.27450980 0.65882353
v -0.15490195 -0.07977459 -16.99440575 0.25098039 0.27450980 0.65882353
v -0.15157850 -0.07221435 -16.98963356 0.25098039 0.27450980 0.65882353
v -0.14498149 -0.07943941 -16.96056747 0.25098039 0.27450980 0.65882353
v -0.13895053 -0.07282212 -16.95322990 0.25098039 0.27450980 0.65882353
v -0.14627370 -0.08588308 -16.94860268 0.25098039 0.27450980 0.65882353
v -0.14069159 -0.07964142 -16.94056320 0.25098039 0.27450980 0.65882353
v -0.15403017 -0.10506811 -16.90655708 0.25098039 0.27450980 0.65882353
v -0.12328953 -0.13161078 -16.85766983 0.25098039 0.27450980 0.65882353
v -0.12876056 -0.12500930 -16.86424637 0.25098039 0.27450980 0.65882353
v -0.12511683 -0.12591726 -16.86868858 0.25098039 0.27450980 0.65882353
v -0.12179309 -0.13303877 -16.86161995 0.25098039 0.27450980 0.65882353
v -0.13101058 -0.12167192 -16.86850357 0.25098039 0.27450980 0.65882353
v -0.12907986 -0.12093613 -16.86017227 0.25098039 0.27450980 0.65882353
v -0.12876555 -0.07471882 -16.93293571 0.25098039 0.27450980 0.65882353
v -0.12561063 -0.11580451 -16.89712715 0.25098039 0.27450980 0.65882353
v -0.12296759 -0.06640904 -16.94539452 0.25098039 0.27450980 0.65882353
v -0.11383403 -0.07599826 -16.92304039 0.25098039 0.27450980 0.65882353
v -0.10841274 -0.07058284 -16.93223763 0.25098039 0.27450980 0.65882353
v -0.11492522 -0.05725268 -16.95827484 0.25098039 0.27450980 0.65882353
v -0.10505144 -0.06272650 -16.94467354 0.25098039 0.27450980 0.65882353
v -0.12154742 -0.05270464 -16.97634506 0.25098039 0.27450980 0.65882353
v -0.11959635 -0.05507127 -16.96731758 0.25098039 0.27450980 0.65882353
v -0.09408681 -0.07200414 -16.93464088 0.25098039 0.27450980 0.65882353
v -0.10985688 -0.12391473 -16.86374283 0.25098039 0.27450980 0.65882353
v -0.11326143 -0.12816097 -16.86648178 0.25098039 0.27450980 0.65882353
v -0.13319823 -0.05570974 -16.97849274 0.25098039 0.27450980 0.65882353
v -0.08812457 -0.10809596 -16.94831467 0.25098039 0.27450980 0.65882353
v -0.11695717 -0.11547187 -16.96330833 0.25098039 0.27450980 0.65882353
v -0.11603022 -0.11114679 -16.95978737 0.25098039 0.27450980 0.65882353
v -0.12445326 -0.12801901 -16.97744560 0.25098039 0.27450980 0.65882353
v -0.11781834 -0.12112162 -16.96879196 0.25098039 0.27450980 0.65882353
v -0.10924768 -0.12052624 -16.85937309 0.25098039 0.27450980 0.65882353
v -0.13894083 -0.13054293 -16.90364838 0.25098039 0.27450980 0.65882353
v -0.13989997 -0.13005003 -16.90402222 0.25098039 0.27450980 0.65882353
v -0.07369438 -0.09861113 -16.94610977 0.25098039 0.27450980 0.65882353
v -0.07113032 -0.10366418 -16.94162941 0.25098039 0.27450980 0.65882353
v -0.07088526 -0.09466453 -16.93074799 0.25098039 0.27450980 0.65882353
v -0.06898004 -0.09817159 -16.93721771 0.25098039 0.27450980 0.65882353
v -0.07257864 -0.09121517 -16.94103622 0.25098039 0.27450980 0.65882353
v -0.07550237 -0.08672462 -16.93451500 0.25098039 0.27450980 0.65882353
v -0.11013393 -0.10791545 -16.96902466 0.25098039 0.27450980 0.65882353
v -0.11131156 -0.11138196 -16.97096443 0.25098039 0.27450980 0.65882353
v -0.14743914 -0.12019137 -16.97948074 0.25098039 0.27450980 0.65882353
v -0.13824612 -0.12742545 -16.98034859 0.25098039 0.27450980 0.65882353
v -0.12090517 -0.09109225 -16.88681412 0.25098039 0.27450980 0.65882353
v -0.12832046 -0.08657924 -16.89320374 0.25098039 0.27450980 0.65882353
v -0.12818292 -0.09060210 -16.88585472 0.25098039 0.27450980 0.65882353
v -0.13365631 -0.09726414 -16.88058472 0.25098039 0.27450980 0.65882353
v -0.12958181 -0.11420202 -16.89333153 0.25098039 0.27450980 0.65882353
v -0.13283291 -0.10943750 -16.89076614 0.25098039 0.27450980 0.65882353
v -0.10043895 -0.09524023 -16.97301483 0.25098039 0.27450980 0.65882353
v -0.10743321 -0.10056794 -16.96355820 0.25098039 0.27450980 0.65882353
v -0.09002051 -0.10956815 -16.93449593 0.25098039 0.27450980 0.65882353
v -0.08666070 -0.11211568 -16.92988777 0.25098039 0.27450980 0.65882353
v -0.12560031 -0.11852451 -16.91690063 0.25098039 0.27450980 0.65882353
v -0.15011002 -0.12156137 -16.90119553 0.25098039 0.27450980 0.65882353
v -0.14889741 -0.11224890 -16.89810562 0.25098039 0.27450980 0.65882353
v -0.12758785 -0.12096844 -16.90855980 0.25098039 0.27450980 0.65882353
v -0.11439203 -0.12084402 -16.85235977 0.25098039 0.27450980 0.65882353
v -0.11077956 -0.11984071 -16.85581017 0.25098039 0.27450980 0.65882353
v -0.13476276 -0.09285299 -16.88807487 0.25098039 0.27450980 0.65882353
v -0.13232815 -0.13373804 -16.93115616 0.25098039 0.27450980 0.65882353
v -0.15294433 -0.12510341 -16.90697479 0.25098039 0.27450980 0.65882353
v -0.14665599 -0.12854832 -16.90171814 0.25098039 0.27450980 0.65882353
v -0.14618391 -0.14863461 -16.94948387 0.25098039 0.27450980 0.65882353
v -0.14346769 -0.06292722 -16.98335075 0.25098039 0.27450980 0.65882353
v -0.11986083 -0.12495843 -16.87090492 0.25098039 0.27450980 0.65882353
v -0.11751038 -0.13133758 -16.86667061 0.25098039 0.27450980 0.65882353
v -0.12320073 -0.12839660 -16.85461807 0.25098039 0.27450980 0.65882353
v -0.12013573 -0.12344682 -16.85216141 0.25098039 0.27450980 0.65882353
v -0.13338241 -0.12089896 -16.98723984 0.25098039 0.27450980 0.65882353
v -0.11569829 -0.10870298 -16.95735931 0.25098039 0.27450980 0.65882353
v -0.08508304 -0.08189708 -16.92912483 0.25098039 0.27450980 0.65882353
v -0.07655896 -0.09318720 -16.92514992 0.25098039 0.27450980 0.65882353
v -0.12921534 -0.12192148 -16.90427399 0.25098039 0.27450980 0.65882353
v -0.15475801 -0.13982160 -16.93080330 0.25098039 0.27450980 0.65882353
v -0.15762737 -0.12917969 -16.91842651 0.25098039 0.27450980 0.65882353
v -0.15520677 -0.13662764 -16.91205978 0.25098039 0.27450980 0.65882353
v -0.15236637 -0.13414700 -16.90441895 0.25098039 0.27450980 0.65882353
v -0.14579725 -0.13265944 -16.90066719 0.25098039 0.27450980 0.65882353
v -0.11986680 -0.13262591 -16.85298157 0.25098039 0.27450980 0.65882353
v -0.11681595 -0.12771681 -16.85045242 0.25098039 0.27450980 0.65882353
v -0.11129349 -0.12475679 -16.85091782 0.25098039 0.27450980 0.65882353
v -0.10833302 -0.12317234 -16.85426712 0.25098039 0.27450980 0.65882353
v -0.10785934 -0.12340589 -16.85866928 0.25098039 0.27450980 0.65882353
v -0.11968002 -0.13568953 -16.85640144 0.25098039 0.27450980 0.65882353
v -0.11826940 -0.13636424 -16.86014557 0.25098039 0.27450980 0.65882353
v -0.11604325 -0.13349700 -16.86521530 0.25098039 0.27450980 0.65882353
v -0.11600544 -0.13879490 -16.85697937 0.25098039 0.27450980 0.65882353
v -0.11361539 -0.13825719 -16.85223579 0.25098039 0.27450980 0.65882353
v -0.10048394 -0.13360171 -16.85192490 0.25098039 0.27450980 0.65882353
v -0.10552488 -0.13103944 -16.85029602 0.25098039 0.27450980 0.65882353
v -0.10512417 -0.13360712 -16.84996033 0.25098039 0.27450980 0.65882353
v -0.10122782 -0.13655075 -16.85087204 0.25098039 0.27450980 0.65882353
v -0.09811389 -0.14058051 -16.85118866 0.25098039 0.27450980 0.65882353
v -0.09678233 -0.13765231 -16.85249901 0.25098039 0.27450980 0.65882353
v -0.10961649 -0.13484710 -16.85005760 0.25098039 0.27450980 0.65882353
v -0.10487449 -0.13936809 -16.85096169 0.25098039 0.27450980 0.65882353
v -0.10754180 -0.14206100 -16.85284615 0.25098039 0.27450980 0.65882353
v -0.10346421 -0.14580625 -16.85272026 0.25098039 0.27450980 0.65882353
v -0.10095181 -0.14354375 -16.85101509 0.25098039 0.27450980 0.65882353
v -0.11064389 -0.13884929 -16.85181236 0.25098039 0.27450980 0.65882353
v -0.11147638 -0.13337438 -16.84946251 0.25098039 0.27450980 0.65882353
v -0.09549661 -0.14194514 -16.85298920 0.25098039 0.27450980 0.65882353
v -0.09680238 -0.14315891 -16.85130119 0.25098039 0.27450980 0.65882353
v -0.09876545 -0.14572316 -16.85164833 0.25098039 0.27450980 0.65882353
v -0.09686579 -0.14665329 -16.85364532 0.25098039 0.27450980 0.65882353
v -0.10517897 -0.12660943 -16.85409355 0.25098039 0.27450980 0.65882353
v -0.09947371 -0.13250224 -16.85410690 0.25098039 0.27450980 0.65882353
v -0.09651482 -0.13734578 -16.85562706 0.25098039 0.27450980 0.65882353
v -0.09538053 -0.14165488 -16.85580826 0.25098039 0.27450980 0.65882353
v -0.09930654 -0.13382262 -16.85803413 0.25098039 0.27450980 0.65882353
v -0.09734096 -0.13784772 -16.85846710 0.25098039 0.27450980 0.65882353
v -0.09670264 -0.14166203 -16.85882187 0.25098039 0.27450980 0.65882353
v -0.10047729 -0.13591057 -16.86170769 0.25098039 0.27450980 0.65882353
v -0.09869224 -0.13931543 -16.86102104 0.25098039 0.27450980 0.65882353
v -0.10733262 -0.12747499 -16.86199379 0.25098039 0.27450980 0.65882353
v -0.10609686 -0.12512913 -16.85855675 0.25098039 0.27450980 0.65882353
v -0.09766120 -0.14152125 -16.86077881 0.25098039 0.27450980 0.65882353
v -0.09696379 -0.14667401 -16.85581589 0.25098039 0.27450980 0.65882353
v -0.11029060 -0.14255434 -16.85528183 0.25098039 0.27450980 0.65882353
v -0.10451847 -0.14645973 -16.85577583 0.25098039 0.27450980 0.65882353
v -0.11070308 -0.14291748 -16.85764885 0.25098039 0.27450980 0.65882353
v -0.10522987 -0.14700107 -16.85797691 0.25098039 0.27450980 0.65882353
v -0.10088113 -0.14880389 -16.85500145 0.25098039 0.27450980 0.65882353
v -0.10095480 -0.14729059 -16.85301208 0.25098039 0.27450980 0.65882353
v -0.10959940 -0.12576711 -16.86308098 0.25098039 0.27450980 0.65882353
v -0.11315938 -0.13005088 -16.86570930 0.25098039 0.27450980 0.65882353
v -0.11129712 -0.13155240 -16.86499596 0.25098039 0.27450980 0.65882353
v -0.10360900 -0.13877216 -16.86406517 0.25098039 0.27450980 0.65882353
v -0.11375364 -0.13516697 -16.86474609 0.25098039 0.27450980 0.65882353
v -0.11477259 -0.13905320 -16.86061287 0.25098039 0.27450980 0.65882353
v -0.10951716 -0.14323688 -16.86034966 0.25098039 0.27450980 0.65882353
v -0.10750587 -0.14203338 -16.86300087 0.25098039 0.27450980 0.65882353
v -0.10498945 -0.14605615 -16.86030388 0.25098039 0.27450980 0.65882353
v -0.10377212 -0.14438772 -16.86183929 0.25098039 0.27450980 0.65882353
v -0.10093586 -0.14180225 -16.86256027 0.25098039 0.27450980 0.65882353
v -0.10112160 -0.14692801 -16.85969543 0.25098039 0.27450980 0.65882353
v -0.10107300 -0.14835311 -16.85710907 0.25098039 0.27450980 0.65882353
v -0.09789103 -0.14534599 -16.85879326 0.25098039 0.27450980 0.65882353
v -0.10139380 -0.14561689 -16.86108398 0.25098039 0.27450980 0.65882353
v -0.09909592 -0.14375174 -16.86052895 0.25098039 0.27450980 0.65882353
v -0.12058751 -0.14016762 -16.88002014 0.25098039 0.27450980 0.65882353
v -0.12295905 -0.14506556 -16.88415909 0.25098039 0.27450980 0.65882353
v -0.12583070 -0.14179406 -16.88416862 0.25098039 0.27450980 0.65882353
v -0.12346352 -0.13788177 -16.88067436 0.25098039 0.27450980 0.65882353
v -0.12780809 -0.14070120 -16.86765480 0.25098039 0.27450980 0.65882353
v -0.12320773 -0.13859437 -16.87128258 0.25098039 0.27450980 0.65882353
v -0.12683246 -0.13518035 -16.87150955 0.25098039 0.27450980 0.65882353
v -0.13267742 -0.13750696 -16.86919022 0.25098039 0.27450980 0.65882353
v -0.13325745 -0.14522919 -16.86892509 0.25098039 0.27450980 0.65882353
v -0.13797918 -0.14168516 -16.87095833 0.25098039 0.27450980 0.65882353
v -0.13554463 -0.13248688 -16.87153816 0.25098039 0.27450980 0.65882353
v -0.12909532 -0.13075127 -16.87426186 0.25098039 0.27450980 0.65882353
v -0.13357088 -0.11584914 -16.88830185 0.25098039 0.27450980 0.65882353
v -0.14036706 -0.11647633 -16.88624954 0.25098039 0.27450980 0.65882353
v -0.13368475 -0.13015778 -16.90226746 0.25098039 0.27450980 0.65882353
v -0.13774160 -0.13224217 -16.90114021 0.25098039 0.27450980 0.65882353
v -0.12091573 -0.13861266 -16.87610245 0.25098039 0.27450980 0.65882353
v -0.12405957 -0.13579379 -16.87624550 0.25098039 0.27450980 0.65882353
v -0.13388470 -0.14541048 -16.88921738 0.25098039 0.27450980 0.65882353
v -0.12872744 -0.14277703 -16.88969612 0.25098039 0.27450980 0.65882353
v -0.12824938 -0.14555135 -16.88666534 0.25098039 0.27450980 0.65882353
v -0.13291235 -0.14862114 -16.88542175 0.25098039 0.27450980 0.65882353
v -0.12808064 -0.11999080 -16.89563942 0.25098039 0.27450980 0.65882353
v -0.13082734 -0.12504655 -16.89961624 0.25098039 0.27450980 0.65882353
v -0.12962765 -0.11756598 -16.89190102 0.25098039 0.27450980 0.65882353
v -0.13970199 -0.14599273 -16.88551712 0.25098039 0.27450980 0.65882353
v -0.14321247 -0.14350069 -16.87996101 0.25098039 0.27450980 0.65882353
v -0.14927796 -0.12853082 -16.89251328 0.25098039 0.27450980 0.65882353
v -0.14588355 -0.13285226 -16.89685059 0.25098039 0.27450980 0.65882353
v -0.12506878 -0.13168947 -16.87829208 0.25098039 0.27450980 0.65882353
v -0.12475205 -0.13878545 -16.88695526 0.25098039 0.27450980 0.65882353
v -0.12306710 -0.13454488 -16.88310051 0.25098039 0.27450980 0.65882353
v -0.14114967 -0.13703930 -16.87448692 0.25098039 0.27450980 0.65882353
v -0.13920914 -0.14777456 -16.87613487 0.25098039 0.27450980 0.65882353
v -0.12413316 -0.16132671 -16.87626076 0.25098039 0.27450980 0.65882353
v -0.13313965 -0.15382807 -16.87948990 0.25098039 0.27450980 0.65882353
v -0.12977688 -0.15256521 -16.88367081 0.25098039 0.27450980 0.65882353
v -0.12140031 -0.16100994 -16.88091469 0.25098039 0.27450980 0.65882353
v -0.13687351 -0.14985335 -16.88154602 0.25098039 0.27450980 0.65882353
v -0.13466418 -0.15130606 -16.87405396 0.25098039 0.27450980 0.65882353
v -0.11086644 -0.15062389 -16.87933350 0.25098039 0.27450980 0.65882353
v -0.11377191 -0.15530783 -16.88320541 0.25098039 0.27450980 0.65882353
v -0.11033849 -0.14860103 -16.87482071 0.25098039 0.27450980 0.65882353
v -0.14661247 -0.12099046 -16.88828468 0.25098039 0.27450980 0.65882353
v -0.11724544 -0.14938757 -16.86632538 0.25098039 0.27450980 0.65882353
v -0.11217376 -0.14775257 -16.87067413 0.25098039 0.27450980 0.65882353
v -0.12616551 -0.14924243 -16.88599968 0.25098039 0.27450980 0.65882353
v -0.11744975 -0.15905017 -16.88361359 0.25098039 0.27450980 0.65882353
v -0.12485051 -0.15951008 -16.87182617 0.25098039 0.27450980 0.65882353
v -0.12328197 -0.15338707 -16.86688995 0.25098039 0.27450980 0.65882353
v -0.12001728 -0.16280529 -16.87127686 0.25098039 0.27450980 0.65882353
v -0.11759493 -0.15790091 -16.86685944 0.25098039 0.27450980 0.65882353
v -0.11202654 -0.15343228 -16.86656380 0.25098039 0.27450980 0.65882353
v -0.10861604 -0.15099405 -16.87105560 0.25098039 0.27450980 0.65882353
v -0.10812922 -0.15100166 -16.87516403 0.25098039 0.27450980 0.65882353
v -0.11950234 -0.16430822 -16.87564659 0.25098039 0.27450980 0.65882353
v -0.11758917 -0.16363510 -16.88016129 0.25098039 0.27450980 0.65882353
v -0.11517964 -0.16004172 -16.88303185 0.25098039 0.27450980 0.65882353
v -0.11369849 -0.16731474 -16.87787628 0.25098039 0.27450980 0.65882353
v -0.11263184 -0.16721010 -16.87329674 0.25098039 0.27450980 0.65882353
v -0.09448138 -0.16268227 -16.87384796 0.25098039 0.27450980 0.65882353
v -0.09915308 -0.15998915 -16.87142372 0.25098039 0.27450980 0.65882353
v -0.10014927 -0.16250060 -16.87093735 0.25098039 0.27450980 0.65882353
v -0.09583844 -0.16508064 -16.87298584 0.25098039 0.27450980 0.65882353
v -0.10452257 -0.15897343 -16.86824799 0.25098039 0.27450980 0.65882353
v -0.10420766 -0.16142926 -16.86901855 0.25098039 0.27450980 0.65882353
v -0.10803249 -0.16426513 -16.86977768 0.25098039 0.27450980 0.65882353
v -0.10300854 -0.16645890 -16.87229347 0.25098039 0.27450980 0.65882353
v -0.10619302 -0.16904050 -16.87513542 0.25098039 0.27450980 0.65882353
v -0.10162667 -0.17192912 -16.87648392 0.25098039 0.27450980 0.65882353
v -0.09829469 -0.16954684 -16.87370682 0.25098039 0.27450980 0.65882353
v -0.10907114 -0.16712502 -16.87248611 0.25098039 0.27450980 0.65882353
v -0.09367993 -0.16748536 -16.87447357 0.25098039 0.27450980 0.65882353
v -0.09212789 -0.16705261 -16.87643814 0.25098039 0.27450980 0.65882353
v -0.11043304 -0.16302606 -16.86804771 0.25098039 0.27450980 0.65882353
v -0.10534379 -0.15353385 -16.87094116 0.25098039 0.27450980 0.65882353
v -0.09820719 -0.15797780 -16.87381363 0.25098039 0.27450980 0.65882353
v -0.09381741 -0.16160528 -16.87695122 0.25098039 0.27450980 0.65882353
v -0.09223914 -0.16705859 -16.87947655 0.25098039 0.27450980 0.65882353
v -0.09829040 -0.15773216 -16.87826729 0.25098039 0.27450980 0.65882353
v -0.09444387 -0.16177443 -16.88019943 0.25098039 0.27450980 0.65882353
v -0.09359373 -0.16650751 -16.88178444 0.25098039 0.27450980 0.65882353
v -0.09972588 -0.15885849 -16.88291931 0.25098039 0.27450980 0.65882353
v -0.09617841 -0.16316789 -16.88390541 0.25098039 0.27450980 0.65882353
v -0.10783306 -0.15322405 -16.88002777 0.25098039 0.27450980 0.65882353
v -0.10583908 -0.15199405 -16.87564468 0.25098039 0.27450980 0.65882353
v -0.09513593 -0.16558114 -16.88343048 0.25098039 0.27450980 0.65882353
v -0.09365495 -0.17161968 -16.87716484 0.25098039 0.27450980 0.65882353
v -0.09348868 -0.17093010 -16.88046646 0.25098039 0.27450980 0.65882353
v -0.09483022 -0.17107838 -16.87580299 0.25098039 0.27450980 0.65882353
v -0.10736933 -0.16981193 -16.87688255 0.25098039 0.27450980 0.65882353
v -0.10191751 -0.17225777 -16.87875175 0.25098039 0.27450980 0.65882353
v -0.10794345 -0.17001453 -16.87975121 0.25098039 0.27450980 0.65882353
v -0.10170099 -0.17244220 -16.88118362 0.25098039 0.27450980 0.65882353
v -0.09753266 -0.17352849 -16.87911224 0.25098039 0.27450980 0.65882353
v -0.09735693 -0.17315802 -16.87751389 0.25098039 0.27450980 0.65882353
v -0.10962301 -0.15264127 -16.87916756 0.25098039 0.27450980 0.65882353
v -0.11261601 -0.15646610 -16.88256454 0.25098039 0.27450980 0.65882353
v -0.11120391 -0.15671256 -16.88340950 0.25098039 0.27450980 0.65882353
v -0.10297714 -0.16240114 -16.88560867 0.25098039 0.27450980 0.65882353
v -0.11386432 -0.16087523 -16.88375473 0.25098039 0.27450980 0.65882353
v -0.11386970 -0.16562715 -16.88122559 0.25098039 0.27450980 0.65882353
v -0.10799611 -0.16893452 -16.88253403 0.25098039 0.27450980 0.65882353
v -0.10597708 -0.16636303 -16.88523865 0.25098039 0.27450980 0.65882353
v -0.10212817 -0.17214794 -16.88339424 0.25098039 0.27450980 0.65882353
v -0.10232051 -0.16929871 -16.88510704 0.25098039 0.27450980 0.65882353
v -0.09906194 -0.16557370 -16.88578033 0.25098039 0.27450980 0.65882353
v -0.09762059 -0.17285645 -16.88317299 0.25098039 0.27450980 0.65882353
v -0.09732659 -0.17356420 -16.88087463 0.25098039 0.27450980 0.65882353
v -0.09433757 -0.16992143 -16.88226509 0.25098039 0.27450980 0.65882353
v -0.09872317 -0.17062563 -16.88476944 0.25098039 0.27450980 0.65882353
v -0.09609523 -0.16805208 -16.88426208 0.25098039 0.27450980 0.65882353
v -0.12688264 -0.15153807 -16.89678764 0.25098039 0.27450980 0.65882353
v -0.12660640 -0.15365890 -16.90263748 0.25098039 0.27450980 0.65882353
v -0.12884527 -0.15169647 -16.90331841 0.25098039 0.27450980 0.65882353
v -0.12928872 -0.14948940 -16.89757347 0.25098039 0.27450980 0.65882353
v -0.13614038 -0.15852095 -16.89084625 0.25098039 0.27450980 0.65882353
v -0.13224918 -0.15541820 -16.89019203 0.25098039 0.27450980 0.65882353
v -0.13555309 -0.15246437 -16.89111710 0.25098039 0.27450980 0.65882353
v -0.14049815 -0.15468860 -16.89189339 0.25098039 0.27450980 0.65882353
v -0.13723716 -0.16299236 -16.89442444 0.25098039 0.27450980 0.65882353
v -0.14338261 -0.15844521 -16.89612198 0.25098039 0.27450980 0.65882353
v -0.14463918 -0.15044942 -16.89309883 0.25098039 0.27450980 0.65882353
v -0.13845803 -0.14891052 -16.89219284 0.25098039 0.27450980 0.65882353
v -0.14429872 -0.13658842 -16.89913559 0.25098039 0.27450980 0.65882353
v -0.15071204 -0.13954036 -16.90024757 0.25098039 0.27450980 0.65882353
v -0.12918243 -0.15280923 -16.89281273 0.25098039 0.27450980 0.65882353
v -0.13168883 -0.15035447 -16.89354706 0.25098039 0.27450980 0.65882353
v -0.13341787 -0.15620109 -16.91126633 0.25098039 0.27450980 0.65882353
v -0.13005415 -0.15282334 -16.90906525 0.25098039 0.27450980 0.65882353
v -0.13022400 -0.15545046 -16.90764236 0.25098039 0.27450980 0.65882353
v -0.13305512 -0.15855683 -16.90909386 0.25098039 0.27450980 0.65882353
v -0.13530645 -0.13450347 -16.90677834 0.25098039 0.27450980 0.65882353
v -0.13615790 -0.13740194 -16.91286469 0.25098039 0.27450980 0.65882353
v -0.13825259 -0.13501480 -16.90185165 0.25098039 0.27450980 0.65882353
v -0.13975084 -0.15885338 -16.90982056 0.25098039 0.27450980 0.65882353
v -0.14611170 -0.15808728 -16.90514183 0.25098039 0.27450980 0.65882353
v -0.15072376 -0.14749601 -16.91420555 0.25098039 0.27450980 0.65882353
v -0.14501873 -0.14694241 -16.91793060 0.25098039 0.27450980 0.65882353
v -0.13355923 -0.14751497 -16.89418411 0.25098039 0.27450980 0.65882353
v -0.12865672 -0.14887518 -16.90449715 0.25098039 0.27450980 0.65882353
v -0.12951170 -0.14683460 -16.89846039 0.25098039 0.27450980 0.65882353
v -0.14732197 -0.15384921 -16.89823341 0.25098039 0.27450980 0.65882353
v -0.14168984 -0.16179600 -16.90248299 0.25098039 0.27450980 0.65882353
v -0.12320750 -0.17417225 -16.90167618 0.25098039 0.27450980 0.65882353
v -0.13510123 -0.16457357 -16.90618706 0.25098039 0.27450980 0.65882353
v -0.13071753 -0.16072892 -16.90835190 0.25098039 0.27450980 0.65882353
v -0.12049977 -0.17158225 -16.90443611 0.25098039 0.27450980 0.65882353
v -0.13747656 -0.16192959 -16.90760422 0.25098039 0.27450980 0.65882353
v -0.13774952 -0.16527230 -16.90083504 0.25098039 0.27450980 0.65882353
v -0.11500107 -0.16086811 -16.89533615 0.25098039 0.27450980 0.65882353
v -0.11575954 -0.16302747 -16.90088463 0.25098039 0.27450980 0.65882353
v -0.11742619 -0.16118124 -16.89140320 0.25098039 0.27450980 0.65882353
v -0.15391822 -0.14382881 -16.90624809 0.25098039 0.27450980 0.65882353
v -0.13889132 -0.14340053 -16.91849899 0.25098039 0.27450980 0.65882353
v -0.12191999 -0.16675618 -16.88785744 0.25098039 0.27450980 0.65882353
v -0.11923733 -0.16310474 -16.88891411 0.25098039 0.27450980 0.65882353
v -0.12823462 -0.15718062 -16.90690231 0.25098039 0.27450980 0.65882353
v -0.11777450 -0.16749457 -16.90460777 0.25098039 0.27450980 0.65882353
v -0.12556189 -0.17411944 -16.89708328 0.25098039 0.27450980 0.65882353
v -0.12576070 -0.17083088 -16.89104080 0.25098039 0.27450980 0.65882353
v -0.12005822 -0.17673691 -16.89725304 0.25098039 0.27450980 0.65882353
v -0.11978995 -0.17397839 -16.89127731 0.25098039 0.27450980 0.65882353
v -0.11637868 -0.16993681 -16.88820648 0.25098039 0.27450980 0.65882353
v -0.11445759 -0.16581145 -16.88930702 0.25098039 0.27450980 0.65882353
v -0.11327312 -0.16351375 -16.89171219 0.25098039 0.27450980 0.65882353
v -0.11827274 -0.17590332 -16.90199089 0.25098039 0.27450980 0.65882353
v -0.11663437 -0.17288941 -16.90421295 0.25098039 0.27450980 0.65882353
v -0.11648379 -0.16805506 -16.90378189 0.25098039 0.27450980 0.65882353
v -0.11422724 -0.17634314 -16.90336990 0.25098039 0.27450980 0.65882353
v -0.11319168 -0.17858756 -16.89817238 0.25098039 0.27450980 0.65882353
v -0.09795357 -0.17355859 -16.89345741 0.25098039 0.27450980 0.65882353
v -0.10327336 -0.17222090 -16.89193344 0.25098039 0.27450980 0.65882353
v -0.10362221 -0.17341450 -16.89239311 0.25098039 0.27450980 0.65882353
v -0.09832194 -0.17522550 -16.89359474 0.25098039 0.27450980 0.65882353
v -0.10962224 -0.17287153 -16.88997269 0.25098039 0.27450980 0.65882353
v -0.10843852 -0.17407998 -16.89106178 0.25098039 0.27450980 0.65882353
v -0.11058173 -0.17668852 -16.89322281 0.25098039 0.27450980 0.65882353
v -0.10467790 -0.17785075 -16.89507103 0.25098039 0.27450980 0.65882353
v -0.10688488 -0.17856517 -16.90082550 0.25098039 0.27450980 0.65882353
v -0.10188594 -0.17899464 -16.90121078 0.25098039 0.27450980 0.65882353
v -0.09957948 -0.17890969 -16.89612770 0.25098039 0.27450980 0.65882353
v -0.11123483 -0.17826629 -16.89761925 0.25098039 0.27450980 0.65882353
v -0.09588267 -0.17653421 -16.89503479 0.25098039 0.27450980 0.65882353
v -0.09435740 -0.17557377 -16.89422226 0.25098039 0.27450980 0.65882353
v -0.11286241 -0.17653272 -16.89236069 0.25098039 0.27450980 0.65882353
v -0.10935000 -0.16781276 -16.88943481 0.25098039 0.27450980 0.65882353
v -0.10241380 -0.16930965 -16.89182091 0.25098039 0.27450980 0.65882353
v -0.09691170 -0.17037499 -16.89341164 0.25098039 0.27450980 0.65882353
v -0.09408791 -0.17240763 -16.89608955 0.25098039 0.27450980 0.65882353
v -0.10222007 -0.16662933 -16.89462852 0.25098039 0.27450980 0.65882353
v -0.09750756 -0.16848993 -16.89591026 0.25098039 0.27450980 0.65882353
v -0.09481332 -0.17040434 -16.89816284 0.25098039 0.27450980 0.65882353
v -0.10259104 -0.16560102 -16.89795494 0.25098039 0.27450980 0.65882353
v -0.09852307 -0.16766076 -16.89903259 0.25098039 0.27450980 0.65882353
v -0.11126216 -0.16319700 -16.89574432 0.25098039 0.27450980 0.65882353
v -0.11006075 -0.16464391 -16.89196968 0.25098039 0.27450980 0.65882353
v -0.09625040 -0.16956335 -16.89982986 0.25098039 0.27450980 0.65882353
v -0.09471080 -0.17866279 -16.89792252 0.25098039 0.27450980 0.65882353
v -0.09401923 -0.17557958 -16.90078545 0.25098039 0.27450980 0.65882353
v -0.09639028 -0.17848912 -16.89737511 0.25098039 0.27450980 0.65882353
v -0.10788727 -0.17840347 -16.90255737 0.25098039 0.27450980 0.65882353
v -0.10155420 -0.17915738 -16.90361595 0.25098039 0.27450980 0.65882353
v -0.10811502 -0.17665404 -16.90500641 0.25098039 0.27450980 0.65882353
v -0.10179891 -0.17748556 -16.90574455 0.25098039 0.27450980 0.65882353
v -0.09763254 -0.17959154 -16.90213585 0.25098039 0.27450980 0.65882353
v -0.09812580 -0.17949182 -16.90106583 0.25098039 0.27450980 0.65882353
v -0.11357553 -0.16278729 -16.89570999 0.25098039 0.27450980 0.65882353
v -0.11476534 -0.16436398 -16.90067673 0.25098039 0.27450980 0.65882353
v -0.11283122 -0.16424933 -16.90053177 0.25098039 0.27450980 0.65882353
v -0.10357742 -0.16641054 -16.90278435 0.25098039 0.27450980 0.65882353
v -0.11449827 -0.16755491 -16.90395737 0.25098039 0.27450980 0.65882353
v -0.11287162 -0.17309088 -16.90516663 0.25098039 0.27450980 0.65882353
v -0.10715763 -0.17348757 -16.90612030 0.25098039 0.27450980 0.65882353
v -0.10522585 -0.16992906 -16.90569305 0.25098039 0.27450980 0.65882353
v -0.10163905 -0.17473125 -16.90658379 0.25098039 0.27450980 0.65882353
v -0.10173108 -0.17195034 -16.90573311 0.25098039 0.27450980 0.65882353
v -0.09946284 -0.16821292 -16.90315437 0.25098039 0.27450980 0.65882353
v -0.09790631 -0.17490762 -16.90473366 0.25098039 0.27450980 0.65882353
v -0.09744813 -0.17770784 -16.90407562 0.25098039 0.27450980 0.65882353
v -0.09493349 -0.17278937 -16.90197945 0.25098039 0.27450980 0.65882353
v -0.09847406 -0.17248484 -16.90484238 0.25098039 0.27450980 0.65882353
v -0.09631783 -0.17078632 -16.90266991 0.25098039 0.27450980 0.65882353
v -0.13700686 -0.14039582 -16.91668129 0.25098039 0.27450980 0.65882353
v -0.12651648 -0.15675408 -16.92253494 0.25098039 0.27450980 0.65882353
v -0.12551174 -0.15815923 -16.92646408 0.25098039 0.27450980 0.65882353
v -0.12823641 -0.15730454 -16.92820358 0.25098039 0.27450980 0.65882353
v -0.12919022 -0.15472212 -16.92471886 0.25098039 0.27450980 0.65882353
v -0.13505533 -0.16280514 -16.91862106 0.25098039 0.27450980 0.65882353
v -0.13182656 -0.15967306 -16.91792870 0.25098039 0.27450980 0.65882353
v -0.13528028 -0.15699735 -16.91955376 0.25098039 0.27450980 0.65882353
v -0.13837415 -0.15986067 -16.92021942 0.25098039 0.27450980 0.65882353
v -0.13600102 -0.16633755 -16.92186546 0.25098039 0.27450980 0.65882353
v -0.13933037 -0.16357706 -16.92365265 0.25098039 0.27450980 0.65882353
v -0.14142868 -0.15747347 -16.92094040 0.25098039 0.27450980 0.65882353
v -0.13776447 -0.15447444 -16.92041588 0.25098039 0.27450980 0.65882353
v -0.14464182 -0.14408007 -16.92567444 0.25098039 0.27450980 0.65882353
v -0.14973302 -0.14630938 -16.92774773 0.25098039 0.27450980 0.65882353
v -0.14249393 -0.15247113 -16.94600677 0.25098039 0.27450980 0.65882353
v -0.13830581 -0.14844194 -16.94521332 0.25098039 0.27450980 0.65882353
v -0.13542023 -0.15365279 -16.94086647 0.25098039 0.27450980 0.65882353
v -0.13968423 -0.15629469 -16.94255638 0.25098039 0.27450980 0.65882353
v -0.12884727 -0.15753590 -16.91954803 0.25098039 0.27450980 0.65882353
v -0.13144094 -0.15458952 -16.92123413 0.25098039 0.27450980 0.65882353
v -0.13345388 -0.16261050 -16.93608284 0.25098039 0.27450980 0.65882353
v -0.13031371 -0.15933099 -16.93408012 0.25098039 0.27450980 0.65882353
v -0.12858078 -0.15983579 -16.93189812 0.25098039 0.27450980 0.65882353
v -0.13048267 -0.16373016 -16.93417740 0.25098039 0.27450980 0.65882353
v -0.13577327 -0.14586841 -16.94030762 0.25098039 0.27450980 0.65882353
v -0.13599157 -0.14429167 -16.93476105 0.25098039 0.27450980 0.65882353
v -0.13401830 -0.14611584 -16.93346214 0.25098039 0.27450980 0.65882353
v -0.13312042 -0.15069534 -16.93659019 0.25098039 0.27450980 0.65882353
v -0.13699439 -0.14439645 -16.92846680 0.25098039 0.27450980 0.65882353
v -0.13705732 -0.16465420 -16.93499756 0.25098039 0.27450980 0.65882353
v -0.14115061 -0.16478357 -16.93063927 0.25098039 0.27450980 0.65882353
v -0.15031952 -0.15665746 -16.93903542 0.25098039 0.27450980 0.65882353
v -0.14554498 -0.15687515 -16.94213295 0.25098039 0.27450980 0.65882353
v -0.13337597 -0.15324137 -16.92141724 0.25098039 0.27450980 0.65882353
v -0.12918535 -0.15630478 -16.93012810 0.25098039 0.27450980 0.65882353
v -0.12991345 -0.15415311 -16.92569733 0.25098039 0.27450980 0.65882353
v -0.14324050 -0.16170004 -16.92462540 0.25098039 0.27450980 0.65882353
v -0.13747707 -0.16641685 -16.92896652 0.25098039 0.27450980 0.65882353
v -0.12378512 -0.17249420 -16.92809296 0.25098039 0.27450980 0.65882353
v -0.13092571 -0.16792172 -16.93201256 0.25098039 0.27450980 0.65882353
v -0.12727115 -0.16467807 -16.93267059 0.25098039 0.27450980 0.65882353
v -0.12158942 -0.17037629 -16.92857742 0.25098039 0.27450980 0.65882353
v -0.13406804 -0.16619742 -16.93316078 0.25098039 0.27450980 0.65882353
v -0.13421024 -0.16899109 -16.92735672 0.25098039 0.27450980 0.65882353
v -0.11984600 -0.16193406 -16.91928291 0.25098039 0.27450980 0.65882353
v -0.11929241 -0.16388848 -16.92433357 0.25098039 0.27450980 0.65882353
v -0.12180247 -0.16248801 -16.91662598 0.25098039 0.27450980 0.65882353
v -0.15259609 -0.15111697 -16.93256760 0.25098039 0.27450980 0.65882353
v -0.12709443 -0.16799544 -16.91532326 0.25098039 0.27450980 0.65882353
v -0.12401284 -0.16470581 -16.91476822 0.25098039 0.27450980 0.65882353
v -0.12566453 -0.16094434 -16.92992783 0.25098039 0.27450980 0.65882353
v -0.12000345 -0.16715549 -16.92743301 0.25098039 0.27450980 0.65882353
v -0.12664551 -0.17362174 -16.92493820 0.25098039 0.27450980 0.65882353
v -0.12891506 -0.17195567 -16.91920471 0.25098039 0.27450980 0.65882353
v -0.12272687 -0.17540264 -16.92306709 0.25098039 0.27450980 0.65882353
v -0.12526664 -0.17338625 -16.91753006 0.25098039 0.27450980 0.65882353
v -0.12305414 -0.16909063 -16.91383171 0.25098039 0.27450980 0.65882353
v -0.12125158 -0.16575404 -16.91417885 0.25098039 0.27450980 0.65882353
v -0.11930669 -0.16367820 -16.91578674 0.25098039 0.27450980 0.65882353
v -0.12014499 -0.17422149 -16.92630577 0.25098039 0.27450980 0.65882353
v -0.11835182 -0.17174982 -16.92710114 0.25098039 0.27450980 0.65882353
v -0.11745702 -0.16808254 -16.92646027 0.25098039 0.27450980 0.65882353
v -0.11642423 -0.17573813 -16.92453384 0.25098039 0.27450980 0.65882353
v -0.11759608 -0.17740253 -16.92016983 0.25098039 0.27450980 0.65882353
v -0.10874029 -0.17268479 -16.91119766 0.25098039 0.27450980 0.65882353
v -0.11245278 -0.17125884 -16.91189384 0.25098039 0.27450980 0.65882353
v -0.11288700 -0.17239630 -16.91203690 0.25098039 0.27450980 0.65882353
v -0.10917910 -0.17360336 -16.91068840 0.25098039 0.27450980 0.65882353
v -0.11772504 -0.17111129 -16.91282272 0.25098039 0.27450980 0.65882353
v -0.11692073 -0.17252786 -16.91312981 0.25098039 0.27450980 0.65882353
v -0.11843148 -0.17471802 -16.91551971 0.25098039 0.27450980 0.65882353
v -0.11375076 -0.17624626 -16.91374969 0.25098039 0.27450980 0.65882353
v -0.11228110 -0.17864603 -16.91844177 0.25098039 0.27450980 0.65882353
v -0.10864211 -0.17954464 -16.91665077 0.25098039 0.27450980 0.65882353
v -0.11036916 -0.17753181 -16.91255188 0.25098039 0.27450980 0.65882353
v -0.11671127 -0.17746568 -16.91826248 0.25098039 0.27450980 0.65882353
v -0.10719982 -0.17541769 -16.91018105 0.25098039 0.27450980 0.65882353
v -0.10602920 -0.17500883 -16.90989876 0.25098039 0.27450980 0.65882353
v -0.12015186 -0.17454149 -16.91574097 0.25098039 0.27450980 0.65882353
v -0.11726220 -0.16694917 -16.91325569 0.25098039 0.27450980 0.65882353
v -0.11095300 -0.16928020 -16.91196823 0.25098039 0.27450980 0.65882353
v -0.10674641 -0.17168266 -16.91111374 0.25098039 0.27450980 0.65882353
v -0.10435472 -0.17438622 -16.91127014 0.25098039 0.27450980 0.65882353
v -0.11048040 -0.16735342 -16.91374969 0.25098039 0.27450980 0.65882353
v -0.10555320 -0.17023581 -16.91256905 0.25098039 0.27450980 0.65882353
v -0.10330395 -0.17299768 -16.91293907 0.25098039 0.27450980 0.65882353
v -0.10956994 -0.16627291 -16.91686249 0.25098039 0.27450980 0.65882353
v -0.10529083 -0.16961947 -16.91510010 0.25098039 0.27450980 0.65882353
v -0.11538861 -0.16360560 -16.91894913 0.25098039 0.27450980 0.65882353
v -0.11621491 -0.16463321 -16.91550636 0.25098039 0.27450980 0.65882353
v -0.10372794 -0.17220795 -16.91448212 0.25098039 0.27450980 0.65882353
v -0.10556907 -0.17837982 -16.91166878 0.25098039 0.27450980 0.65882353
v -0.10360463 -0.17683280 -16.91325378 0.25098039 0.27450980 0.65882353
v -0.10694681 -0.17869017 -16.91165924 0.25098039 0.27450980 0.65882353
v -0.11200252 -0.17869070 -16.91994667 0.25098039 0.27450980 0.65882353
v -0.10755160 -0.17965603 -16.91782379 0.25098039 0.27450980 0.65882353
v -0.11102798 -0.17754310 -16.92213249 0.25098039 0.27450980 0.65882353
v -0.10621381 -0.17838910 -16.91911697 0.25098039 0.27450980 0.65882353
v -0.10539278 -0.17973286 -16.91504478 0.25098039 0.27450980 0.65882353
v -0.10699309 -0.17962907 -16.91434479 0.25098039 0.27450980 0.65882353
v -0.11725969 -0.16296571 -16.91923714 0.25098039 0.27450980 0.65882353
v -0.11719848 -0.16468970 -16.92340088 0.25098039 0.27450980 0.65882353
v -0.11507380 -0.16553539 -16.92298317 0.25098039 0.27450980 0.65882353
v -0.10909906 -0.16765738 -16.92064667 0.25098039 0.27450980 0.65882353
v -0.11521951 -0.16904369 -16.92579460 0.25098039 0.27450980 0.65882353
v -0.11576162 -0.17294538 -16.92597771 0.25098039 0.27450980 0.65882353
v -0.10998260 -0.17502588 -16.92313957 0.25098039 0.27450980 0.65882353
v -0.10904092 -0.17157358 -16.92300415 0.25098039 0.27450980 0.65882353
v -0.10513695 -0.17647091 -16.91964912 0.25098039 0.27450980 0.65882353
v -0.10481360 -0.17338610 -16.91979408 0.25098039 0.27450980 0.65882353
v -0.10481635 -0.17057112 -16.91816902 0.25098039 0.27450980 0.65882353
v -0.10332184 -0.17639489 -16.91644669 0.25098039 0.27450980 0.65882353
v -0.10377604 -0.17815953 -16.91582680 0.25098039 0.27450980 0.65882353
v -0.10302841 -0.17522871 -16.91458130 0.25098039 0.27450980 0.65882353
v -0.10329081 -0.17450586 -16.91706848 0.25098039 0.27450980 0.65882353
v -0.10332859 -0.17332976 -16.91598129 0.25098039 0.27450980 0.65882353
v -0.14588894 -0.15396926 -16.94402885 0.25098039 0.27450980 0.65882353
v -0.07359874 -0.10579015 -16.91667938 0.25098039 0.27450980 0.65882353
v -0.07776138 -0.11018166 -16.91709900 0.25098039 0.27450980 0.65882353
v -0.07198104 -0.12080483 -16.93068314 0.25098039 0.27450980 0.65882353
v -0.07697082 -0.12054303 -16.92448425 0.25098039 0.27450980 0.65882353
v -0.06624292 -0.11775027 -16.93377876 0.25098039 0.27450980 0.65882353
v -0.06166923 -0.10741748 -16.93023109 0.25098039 0.27450980 0.65882353
v -0.06323761 -0.11235122 -16.93390274 0.25098039 0.27450980 0.65882353
v -0.07907516 -0.11653375 -16.91961861 0.25098039 0.27450980 0.65882353
v -0.06849952 -0.10269768 -16.91903305 0.25098039 0.27450980 0.65882353
v -0.06338215 -0.10292047 -16.92469788 0.25098039 0.27450980 0.65882353
v -0.06526501 -0.10719545 -16.91344070 0.25098039 0.27450980 0.65882353
v -0.05944018 -0.10790327 -16.91911507 0.25098039 0.27450980 0.65882353
v -0.05680527 -0.11246247 -16.92428589 0.25098039 0.27450980 0.65882353
v -0.05928969 -0.11761462 -16.92881584 0.25098039 0.27450980 0.65882353
v -0.06250535 -0.12151822 -16.92992783 0.25098039 0.27450980 0.65882353
v -0.07147495 -0.11065519 -16.91253471 0.25098039 0.27450980 0.65882353
v -0.07546885 -0.11514687 -16.91359520 0.25098039 0.27450980 0.65882353
v -0.07677841 -0.12058583 -16.91800308 0.25098039 0.27450980 0.65882353
v -0.06977473 -0.11756081 -16.90871048 0.25098039 0.27450980 0.65882353
v -0.06129059 -0.12229438 -16.90559959 0.25098039 0.27450980 0.65882353
v -0.04830457 -0.13489291 -16.91015244 0.25098039 0.27450980 0.65882353
v -0.05075102 -0.13075730 -16.91467094 0.25098039 0.27450980 0.65882353
v -0.05068825 -0.12947422 -16.91196823 0.25098039 0.27450980 0.65882353
v -0.04787871 -0.13302761 -16.90815353 0.25098039 0.27450980 0.65882353
v -0.05237731 -0.12568016 -16.91563034 0.25098039 0.27450980 0.65882353
v -0.05264792 -0.12626371 -16.91319275 0.25098039 0.27450980 0.65882353
v -0.05559658 -0.12364998 -16.90972137 0.25098039 0.27450980 0.65882353
v -0.05298311 -0.12675709 -16.90648842 0.25098039 0.27450980 0.65882353
v -0.05902560 -0.12400717 -16.90588379 0.25098039 0.27450980 0.65882353
v -0.05851822 -0.12669921 -16.90343857 0.25098039 0.27450980 0.65882353
v -0.05076526 -0.13004294 -16.90314674 0.25098039 0.27450980 0.65882353
v -0.04683904 -0.13399258 -16.90448380 0.25098039 0.27450980 0.65882353
v -0.04903793 -0.13327792 -16.90038681 0.25098039 0.27450980 0.65882353
v -0.04772143 -0.13698983 -16.90534401 0.25098039 0.27450980 0.65882353
v -0.05497186 -0.12153031 -16.90966415 0.25098039 0.27450980 0.65882353
v -0.05479214 -0.12457608 -16.92253113 0.25098039 0.27450980 0.65882353
v -0.05259739 -0.13189666 -16.91792297 0.25098039 0.27450980 0.65882353
v -0.05073327 -0.13705334 -16.91228294 0.25098039 0.27450980 0.65882353
v -0.04999256 -0.13903755 -16.90639114 0.25098039 0.27450980 0.65882353
v -0.05640237 -0.13389532 -16.91945267 0.25098039 0.27450980 0.65882353
v -0.05494717 -0.13803509 -16.91341019 0.25098039 0.27450980 0.65882353
v -0.05476853 -0.13960242 -16.90779495 0.25098039 0.27450980 0.65882353
v -0.06120251 -0.13502777 -16.91857147 0.25098039 0.27450980 0.65882353
v -0.05890512 -0.13810641 -16.91258430 0.25098039 0.27450980 0.65882353
v -0.06654166 -0.12608814 -16.92611122 0.25098039 0.27450980 0.65882353
v -0.05994761 -0.12550017 -16.92671394 0.25098039 0.27450980 0.65882353
v -0.05744347 -0.13899019 -16.90860748 0.25098039 0.27450980 0.65882353
v -0.04961105 -0.13582204 -16.89961624 0.25098039 0.27450980 0.65882353
v -0.05237861 -0.13812396 -16.90075874 0.25098039 0.27450980 0.65882353
v -0.06213053 -0.12659335 -16.90258026 0.25098039 0.27450980 0.65882353
v -0.05616814 -0.12934478 -16.89975739 0.25098039 0.27450980 0.65882353
v -0.05931933 -0.13065268 -16.89951515 0.25098039 0.27450980 0.65882353
v -0.06614240 -0.12672736 -16.90346909 0.25098039 0.27450980 0.65882353
v -0.06189407 -0.13201338 -16.89996719 0.25098039 0.27450980 0.65882353
v -0.05496205 -0.13354447 -16.89782524 0.25098039 0.27450980 0.65882353
v -0.05305263 -0.13150284 -16.89876366 0.25098039 0.27450980 0.65882353
v -0.06849618 -0.12353340 -16.92848396 0.25098039 0.27450980 0.65882353
v -0.07398182 -0.12289898 -16.92404938 0.25098039 0.27450980 0.65882353
v -0.07210341 -0.12494947 -16.92176056 0.25098039 0.27450980 0.65882353
v -0.06686874 -0.13376272 -16.91504288 0.25098039 0.27450980 0.65882353
v -0.07484931 -0.12362681 -16.91594505 0.25098039 0.27450980 0.65882353
v -0.07327180 -0.12027800 -16.91083908 0.25098039 0.27450980 0.65882353
v -0.06878838 -0.12875646 -16.90550804 0.25098039 0.27450980 0.65882353
v -0.06953576 -0.13130271 -16.90979385 0.25098039 0.27450980 0.65882353
v -0.06377007 -0.13408364 -16.90248299 0.25098039 0.27450980 0.65882353
v -0.06407310 -0.13538805 -16.90537643 0.25098039 0.27450980 0.65882353
v -0.06214839 -0.13758065 -16.90954399 0.25098039 0.27450980 0.65882353
v -0.05955559 -0.13688508 -16.90148735 0.25098039 0.27450980 0.65882353
v -0.05755128 -0.13542138 -16.89877701 0.25098039 0.27450980 0.65882353
v -0.05625521 -0.13891733 -16.90336609 0.25098039 0.27450980 0.65882353
v -0.06086643 -0.13704386 -16.90403175 0.25098039 0.27450980 0.65882353
v -0.05888507 -0.13842422 -16.90594864 0.25098039 0.27450980 0.65882353
v -0.13946863 -0.14602667 -16.94809914 0.25098039 0.27450980 0.65882353
v -0.13594359 -0.14265826 -16.94311142 0.25098039 0.27450980 0.65882353
v -0.13628983 -0.14127859 -16.94831467 0.25098039 0.27450980 0.65882353
v -0.13297403 -0.13889895 -16.95515633 0.25098039 0.27450980 0.65882353
v -0.13459443 -0.13762090 -16.96528053 0.25098039 0.27450980 0.65882353
v -0.13006830 -0.13401964 -16.95077133 0.25098039 0.27450980 0.65882353
v -0.13392606 -0.13699876 -16.94370461 0.25098039 0.27450980 0.65882353
v -0.13429062 -0.13937804 -16.93546867 0.25098039 0.27450980 0.65882353
v -0.12501580 -0.12569137 -16.95310593 0.25098039 0.27450980 0.65882353
f 2 3 1
f 1 3 4
f 5 6 8
f 8 6 7
f 9 4 10
f 10 4 3
f 12 13 11
f 11 13 9
f 14 12 16
f 16 12 15
f 18 19 17
f 17 19 20
f 22 23 21
f 21 23 24
f 26 27 25
f 25 27 28
f 30 31 29
f 29 31 32
f 33 34 36
f 36 34 35
f 37 38 40
f 40 38 39
f 41 42 6
f 6 42 43
f 6 43 7
f 7 43 44
f 45 34 46
f 46 34 33
f 48 49 47
f 47 49 50
f 52 53 51
f 51 53 54
f 56 52 55
f 55 52 51
f 58 59 57
f 57 59 60
f 61 62 4
f 4 62 1
f 64 65 63
f 63 65 66
f 68 69 67
f 67 69 70
f 72 73 71
f 71 73 74
f 76 77 75
f 75 77 78
f 53 79 54
f 54 79 80
f 82 83 81
f 81 83 84
f 85 86 52
f 52 86 53
f 57 60 87
f 87 60 88
f 89 90 43
f 43 90 44
f 43 42 89
f 89 42 91
f 40 39 92
f 92 39 93
f 94 70 64
f 64 70 69
f 13 61 9
f 9 61 4
f 25 28 69
f 69 28 95
f 96 25 68
f 68 25 69
f 98 99 97
f 97 99 100
f 101 102 104
f 104 102 103
f 106 30 105
f 105 30 29
f 51 54 107
f 107 54 108
f 54 80 108
f 108 80 109
f 111 112 110
f 110 112 113
f 115 5 114
f 114 5 116
f 115 41 5
f 5 41 6
f 36 35 111
f 111 35 117
f 35 118 117
f 117 118 119
f 34 120 35
f 35 120 118
f 34 45 120
f 120 45 121
f 125 126 124
f 124 126 127
f 128 129 14
f 14 129 130
f 33 131 46
f 46 131 132
f 133 94 63
f 63 94 64
f 134 135 137
f 137 135 136
f 139 140 138
f 138 140 141
f 77 142 78
f 78 142 143
f 144 145 20
f 20 145 146
f 148 149 147
f 147 149 72
f 151 152 150
f 150 152 153
f 82 101 83
f 83 101 104
f 101 82 155
f 155 82 154
f 156 157 58
f 58 157 59
f 158 68 147
f 147 68 67
f 159 146 15
f 15 146 16
f 68 158 96
f 96 158 160
f 129 66 130
f 130 66 65
f 162 163 161
f 161 163 164
f 166 167 165
f 165 167 168
f 170 171 169
f 169 171 172
f 174 171 173
f 173 171 170
f 176 177 175
f 175 177 178
f 180 181 179
f 179 181 24
f 182 183 21
f 21 183 184
f 81 185 82
f 82 185 154
f 186 187 188
f 188 187 144
f 158 71 160
f 160 71 189
f 190 135 157
f 157 135 59
f 169 172 139
f 139 172 140
f 147 72 158
f 158 72 71
f 192 193 191
f 191 193 194
f 167 166 49
f 49 166 195
f 196 190 50
f 50 190 157
f 197 198 200
f 200 198 199
f 21 24 182
f 182 24 181
f 146 159 20
f 20 159 17
f 182 181 81
f 81 181 185
f 201 185 180
f 180 185 181
f 202 203 83
f 83 203 84
f 205 206 204
f 204 206 85
f 207 22 184
f 184 22 21
f 179 24 208
f 208 24 23
f 208 209 179
f 179 209 205
f 209 210 205
f 205 210 206
f 212 206 211
f 211 206 210
f 179 205 180
f 180 205 204
f 213 176 88
f 88 176 214
f 86 85 212
f 212 85 206
f 193 217 218
f 217 219 218
f 218 219 220
f 219 18 220
f 220 18 17
f 19 221 20
f 20 221 144
f 222 223 225
f 225 223 224
f 175 226 176
f 176 226 214
f 227 87 214
f 214 87 88
f 220 17 228
f 228 17 159
f 134 213 60
f 60 213 88
f 138 229 151
f 151 229 152
f 193 192 210
f 210 192 211
f 230 194 218
f 218 194 193
f 231 232 228
f 228 232 230
f 233 234 91
f 91 234 89
f 235 236 93
f 93 236 92
f 230 232 234
f 234 232 237
f 47 238 48
f 48 238 239
f 240 191 235
f 235 191 236
f 5 8 116
f 116 8 241
f 242 243 189
f 189 243 160
f 244 245 98
f 98 245 99
f 156 246 47
f 47 246 238
f 76 247 77
f 77 247 248
f 250 125 249
f 249 125 124
f 252 253 251
f 251 253 254
f 111 110 36
f 36 110 255
f 256 33 255
f 255 33 36
f 257 258 154
f 154 258 155
f 63 169 133
f 133 169 139
f 66 170 63
f 63 170 169
f 173 170 129
f 129 170 66
f 129 128 173
f 173 128 259
f 128 260 259
f 259 260 261
f 213 134 262
f 262 134 137
f 263 264 186
f 186 264 187
f 112 265 113
f 113 265 266
f 11 267 268
f 234 233 230
f 230 233 194
f 153 269 70
f 70 269 67
f 175 178 165
f 165 178 141
f 150 153 94
f 94 153 70
f 271 221 270
f 270 221 207
f 269 153 272
f 272 153 152
f 121 45 109
f 109 45 108
f 47 50 156
f 156 50 157
f 57 273 58
f 58 273 274
f 145 275 260
f 260 275 261
f 276 149 143
f 143 149 78
f 148 269 75
f 75 269 272
f 207 277 270
f 270 277 278
f 195 196 49
f 49 196 50
f 59 135 60
f 60 135 134
f 83 104 202
f 202 104 279
f 149 148 78
f 78 148 75
f 247 278 248
f 248 278 277
f 183 182 84
f 84 182 81
f 48 239 281
f 281 239 282
f 227 223 283
f 283 223 222
f 223 226 224
f 224 226 168
f 281 282 224
f 224 282 225
f 165 168 175
f 175 168 226
f 264 263 138
f 138 263 229
f 14 16 128
f 128 16 260
f 220 228 218
f 218 228 230
f 87 227 284
f 284 227 283
f 260 16 145
f 145 16 146
f 244 98 258
f 258 98 155
f 58 274 156
f 156 274 246
f 107 285 51
f 51 285 55
f 243 286 160
f 160 286 96
f 234 237 89
f 89 237 90
f 46 132 107
f 107 132 285
f 253 252 249
f 249 252 250
f 286 26 96
f 96 26 25
f 106 105 287
f 287 105 288
f 272 152 289
f 289 152 229
f 138 151 139
f 139 151 133
f 183 290 161
f 161 290 162
f 291 292 277
f 277 292 293
f 151 150 133
f 133 150 94
f 262 275 177
f 177 275 187
f 144 187 145
f 145 187 275
f 273 57 284
f 284 57 87
f 174 136 190
f 190 136 135
f 111 117 112
f 112 117 38
f 117 119 38
f 38 119 123
f 112 38 265
f 265 38 37
f 287 288 254
f 254 288 251
f 228 159 231
f 231 159 15
f 223 227 226
f 226 227 214
f 147 67 148
f 148 67 269
f 224 168 281
f 281 168 167
f 199 163 200
f 200 163 162
f 45 46 108
f 108 46 107
f 281 167 48
f 48 167 49
f 161 164 291
f 291 164 292
f 38 123 39
f 293 294 277
f 277 294 248
f 284 283 296
f 296 283 295
f 284 296 273
f 273 296 297
f 274 273 298
f 298 273 297
f 246 274 299
f 299 274 298
f 283 222 295
f 295 222 300
f 222 225 300
f 300 225 301
f 301 225 302
f 302 225 282
f 303 304 300
f 300 304 295
f 306 307 305
f 305 307 308
f 309 310 308
f 308 310 305
f 308 307 312
f 312 307 311
f 313 314 312
f 312 314 315
f 311 316 312
f 312 316 313
f 317 304 311
f 311 304 316
f 315 309 312
f 312 309 308
f 318 319 321
f 321 319 320
f 319 318 309
f 309 318 310
f 311 307 317
f 317 307 306
f 306 297 317
f 317 297 296
f 306 322 297
f 297 322 298
f 305 323 306
f 306 323 322
f 323 305 324
f 324 305 310
f 304 317 295
f 295 317 296
f 318 325 310
f 310 325 324
f 323 324 326
f 326 324 327
f 324 325 327
f 327 325 328
f 326 327 329
f 329 327 330
f 329 331 326
f 326 331 332
f 333 330 328
f 328 330 327
f 323 326 322
f 322 326 332
f 322 332 298
f 298 332 299
f 325 318 334
f 334 318 321
f 313 316 335
f 335 316 304
f 335 336 313
f 313 336 314
f 304 303 335
f 335 303 337
f 336 335 338
f 338 335 337
f 336 339 314
f 314 339 340
f 246 299 238
f 238 299 341
f 239 342 282
f 282 342 302
f 342 239 341
f 341 239 238
f 341 331 342
f 342 331 343
f 331 329 343
f 343 329 344
f 342 343 302
f 302 343 345
f 341 299 331
f 331 299 332
f 346 301 345
f 345 301 302
f 346 303 301
f 301 303 300
f 347 337 346
f 346 337 303
f 347 346 348
f 348 346 345
f 349 347 350
f 350 347 348
f 343 344 345
f 345 344 348
f 344 351 348
f 348 351 350
f 337 347 338
f 338 347 349
f 353 338 352
f 352 338 349
f 352 355 354
f 354 355 356
f 352 349 355
f 355 349 350
f 352 354 353
f 353 354 334
f 353 334 339
f 339 334 321
f 339 336 353
f 353 336 338
f 329 330 344
f 344 330 351
f 356 351 333
f 333 351 330
f 356 355 351
f 351 355 350
f 354 356 328
f 328 356 333
f 328 325 354
f 354 325 334
f 309 315 319
f 319 315 320
f 320 340 321
f 321 340 339
f 320 315 340
f 340 315 314
f 137 136 261
f 261 136 259
f 140 166 141
f 141 166 165
f 172 171 195
f 195 171 196
f 171 174 196
f 196 174 190
f 178 177 264
f 264 177 187
f 172 195 140
f 140 195 166
f 137 261 262
f 262 261 275
f 178 264 141
f 141 264 138
f 262 177 213
f 213 177 176
f 136 174 259
f 259 174 173
f 358 359 357
f 357 359 360
f 362 363 361
f 361 363 364
f 361 364 365
f 365 364 366
f 367 368 370
f 370 368 369
f 76 371 247
f 247 371 372
f 373 374 362
f 362 374 363
f 376 377 375
f 375 377 378
f 289 229 380
f 380 229 379
f 381 379 263
f 263 379 229
f 383 384 382
f 382 384 385
f 386 368 374
f 374 368 363
f 76 289 371
f 371 289 380
f 377 376 359
f 359 376 387
f 388 386 360
f 360 386 374
f 389 383 366
f 366 383 390
f 392 393 391
f 391 393 394
f 383 382 390
f 390 382 395
f 396 365 390
f 390 365 366
f 389 366 367
f 367 366 364
f 357 397 358
f 358 397 398
f 373 399 357
f 357 399 397
f 389 367 400
f 400 367 370
f 382 385 375
f 375 385 372
f 357 360 373
f 373 360 374
f 361 401 362
f 362 401 402
f 387 388 359
f 359 388 360
f 363 368 364
f 364 368 367
f 358 398 403
f 403 398 404
f 396 392 405
f 405 392 391
f 392 395 393
f 393 395 378
f 393 403 394
f 394 403 404
f 375 378 382
f 382 378 395
f 365 396 406
f 406 396 405
f 362 402 373
f 373 402 399
f 271 270 400
f 400 270 384
f 401 361 406
f 406 361 365
f 381 369 386
f 386 369 368
f 392 396 395
f 395 396 390
f 393 378 403
f 403 378 377
f 403 377 358
f 358 377 359
f 406 405 408
f 408 405 407
f 406 408 401
f 401 408 409
f 401 409 402
f 402 409 410
f 402 410 399
f 399 410 411
f 405 391 407
f 407 391 412
f 391 394 412
f 412 394 413
f 394 404 413
f 413 404 414
f 415 416 412
f 412 416 407
f 418 419 417
f 417 419 420
f 421 422 418
f 418 422 419
f 419 422 424
f 424 422 423
f 425 426 424
f 424 426 427
f 423 428 424
f 424 428 425
f 427 420 424
f 424 420 419
f 420 429 417
f 417 429 430
f 423 422 431
f 431 422 421
f 421 409 431
f 431 409 408
f 421 432 409
f 409 432 410
f 418 433 421
f 421 433 432
f 434 433 417
f 417 433 418
f 431 416 423
f 423 416 428
f 416 431 407
f 407 431 408
f 435 434 430
f 430 434 417
f 433 434 436
f 436 434 437
f 434 435 437
f 437 435 438
f 436 437 439
f 439 437 440
f 439 441 436
f 436 441 442
f 438 443 437
f 437 443 440
f 436 442 433
f 433 442 432
f 432 442 410
f 410 442 411
f 435 430 445
f 445 430 444
f 430 429 444
f 444 429 446
f 425 428 447
f 447 428 416
f 426 425 448
f 448 425 447
f 416 415 447
f 447 415 449
f 447 449 448
f 448 449 450
f 451 452 448
f 448 452 426
f 446 452 444
f 444 452 451
f 399 411 397
f 397 411 453
f 398 454 404
f 404 454 414
f 454 398 453
f 453 398 397
f 453 441 454
f 454 441 455
f 441 439 455
f 455 439 456
f 454 455 414
f 414 455 457
f 441 453 442
f 442 453 411
f 458 413 457
f 457 413 414
f 458 415 413
f 413 415 412
f 458 459 415
f 415 459 449
f 459 458 460
f 460 458 457
f 461 459 462
f 462 459 460
f 455 456 457
f 457 456 460
f 456 463 460
f 460 463 462
f 459 461 449
f 449 461 450
f 465 450 464
f 464 450 461
f 464 467 466
f 466 467 468
f 464 461 467
f 467 461 462
f 464 466 465
f 465 466 445
f 465 445 451
f 451 445 444
f 451 448 465
f 465 448 450
f 439 440 456
f 456 440 463
f 468 463 443
f 443 463 440
f 468 467 463
f 463 467 462
f 466 468 438
f 438 468 443
f 438 435 466
f 466 435 445
f 420 427 429
f 429 427 446
f 446 427 452
f 452 427 426
f 370 369 188
f 188 369 186
f 371 376 372
f 372 376 375
f 380 379 387
f 387 379 388
f 379 381 388
f 388 381 386
f 385 384 278
f 278 384 270
f 380 387 371
f 371 387 376
f 400 370 271
f 271 370 188
f 385 278 372
f 372 278 247
f 400 384 389
f 389 384 383
f 369 381 186
f 186 381 263
f 221 271 144
f 144 271 188
f 221 19 207
f 207 19 22
f 19 18 22
f 22 18 23
f 18 219 23
f 23 219 208
f 469 470 472
f 472 470 471
f 474 475 473
f 473 475 476
f 473 476 477
f 477 476 478
f 480 481 479
f 479 481 482
f 483 484 474
f 474 484 475
f 486 487 485
f 485 487 488
f 489 490 77
f 77 490 142
f 491 489 248
f 248 489 77
f 493 494 492
f 492 494 495
f 496 480 484
f 484 480 475
f 486 497 487
f 487 497 471
f 498 496 472
f 472 496 484
f 499 493 478
f 478 493 500
f 501 502 504
f 504 502 503
f 493 492 500
f 500 492 505
f 506 477 500
f 500 477 478
f 499 478 479
f 479 478 476
f 469 507 470
f 470 507 508
f 483 509 469
f 469 509 507
f 479 482 499
f 499 482 510
f 492 495 485
f 485 495 511
f 483 469 484
f 484 469 472
f 473 512 474
f 474 512 513
f 497 498 471
f 471 498 472
f 475 480 476
f 476 480 479
f 470 508 514
f 514 508 515
f 506 502 516
f 516 502 501
f 503 502 488
f 488 502 505
f 514 515 503
f 503 515 504
f 485 488 492
f 492 488 505
f 477 506 517
f 517 506 516
f 474 513 483
f 483 513 509
f 510 292 494
f 494 292 164
f 512 473 517
f 517 473 477
f 491 481 496
f 496 481 480
f 502 506 505
f 505 506 500
f 503 488 514
f 514 488 487
f 514 487 470
f 470 487 471
f 517 516 519
f 519 516 518
f 517 519 512
f 512 519 520
f 512 520 513
f 513 520 521
f 513 521 509
f 509 521 522
f 516 501 518
f 518 501 523
f 501 504 523
f 523 504 524
f 524 504 525
f 525 504 515
f 526 527 523
f 523 527 518
f 529 530 528
f 528 530 531
f 532 533 529
f 529 533 530
f 530 533 535
f 535 533 534
f 536 537 535
f 535 537 538
f 534 539 535
f 535 539 536
f 538 531 535
f 535 531 530
f 540 541 531
f 531 541 528
f 533 532 534
f 534 532 542
f 532 520 542
f 542 520 519
f 532 543 520
f 520 543 521
f 529 544 532
f 532 544 543
f 544 529 545
f 545 529 528
f 534 542 539
f 539 542 527
f 527 542 518
f 518 542 519
f 541 546 528
f 528 546 545
f 547 544 548
f 548 544 545
f 546 549 545
f 545 549 548
f 550 547 551
f 551 547 548
f 547 550 553
f 553 550 552
f 549 554 548
f 548 554 551
f 544 547 543
f 543 547 553
f 543 553 521
f 521 553 522
f 546 541 556
f 556 541 555
f 541 540 555
f 555 540 557
f 536 539 558
f 558 539 527
f 537 536 559
f 559 536 558
f 527 526 558
f 558 526 560
f 559 558 561
f 561 558 560
f 559 562 537
f 537 562 563
f 557 563 555
f 555 563 562
f 509 522 507
f 507 522 564
f 508 565 515
f 515 565 525
f 565 508 564
f 564 508 507
f 564 552 565
f 565 552 566
f 552 550 566
f 566 550 567
f 565 566 525
f 525 566 568
f 564 522 552
f 552 522 553
f 569 524 568
f 568 524 525
f 569 526 524
f 524 526 523
f 570 560 569
f 569 560 526
f 570 569 571
f 571 569 568
f 572 570 573
f 573 570 571
f 566 567 568
f 568 567 571
f 567 574 571
f 571 574 573
f 570 572 560
f 560 572 561
f 576 561 575
f 575 561 572
f 575 578 577
f 577 578 579
f 575 572 578
f 578 572 573
f 575 577 576
f 576 577 556
f 576 556 562
f 562 556 555
f 562 559 576
f 576 559 561
f 550 551 567
f 567 551 574
f 579 574 554
f 554 574 551
f 579 578 574
f 574 578 573
f 579 554 577
f 577 554 549
f 549 546 577
f 577 546 556
f 531 538 540
f 540 538 557
f 557 538 563
f 563 538 537
f 481 294 482
f 482 294 293
f 580 486 511
f 511 486 485
f 490 489 497
f 497 489 498
f 489 491 498
f 498 491 496
f 163 495 164
f 164 495 494
f 580 490 486
f 486 490 497
f 482 293 510
f 510 293 292
f 495 163 511
f 511 163 199
f 494 493 510
f 510 493 499
f 481 491 294
f 294 491 248
f 582 583 581
f 581 583 584
f 586 587 585
f 585 587 588
f 585 588 589
f 589 588 590
f 592 593 591
f 591 593 594
f 595 596 598
f 598 596 597
f 599 600 586
f 586 600 587
f 601 602 604
f 604 602 603
f 605 606 608
f 608 606 607
f 609 607 200
f 200 607 606
f 610 611 613
f 613 611 612
f 600 614 587
f 587 614 592
f 596 605 597
f 597 605 608
f 602 615 603
f 603 615 583
f 616 614 584
f 584 614 600
f 611 618 617
f 617 618 590
f 620 621 619
f 619 621 622
f 610 623 611
f 611 623 618
f 624 589 618
f 618 589 590
f 617 590 591
f 591 590 588
f 581 625 582
f 582 625 626
f 599 627 581
f 581 627 625
f 591 594 617
f 617 594 628
f 601 610 598
f 598 610 613
f 581 584 599
f 599 584 600
f 585 629 586
f 586 629 630
f 615 616 583
f 583 616 584
f 587 592 588
f 588 592 591
f 582 626 631
f 631 626 632
f 624 620 633
f 633 620 619
f 621 620 604
f 604 620 623
f 631 632 621
f 621 632 622
f 610 601 623
f 623 601 604
f 589 624 634
f 634 624 633
f 586 630 599
f 599 630 627
f 203 202 628
f 628 202 612
f 629 585 634
f 634 585 589
f 609 593 614
f 614 593 592
f 620 624 623
f 623 624 618
f 631 621 603
f 603 621 604
f 582 631 583
f 583 631 603
f 634 633 636
f 636 633 635
f 634 636 629
f 629 636 637
f 629 637 630
f 630 637 638
f 630 638 627
f 627 638 639
f 633 619 635
f 635 619 640
f 619 622 640
f 640 622 641
f 641 622 642
f 642 622 632
f 644 635 643
f 643 635 640
f 645 646 648
f 648 646 647
f 649 650 646
f 646 650 647
f 647 650 652
f 652 650 651
f 652 653 655
f 655 653 654
f 651 656 652
f 652 656 653
f 655 648 652
f 652 648 647
f 648 657 645
f 645 657 658
f 650 649 651
f 651 649 659
f 649 637 659
f 659 637 636
f 649 660 637
f 637 660 638
f 661 660 646
f 646 660 649
f 662 661 645
f 645 661 646
f 651 659 656
f 656 659 644
f 644 659 635
f 635 659 636
f 663 662 658
f 658 662 645
f 664 661 665
f 665 661 662
f 663 666 662
f 662 666 665
f 667 664 668
f 668 664 665
f 664 667 670
f 670 667 669
f 666 671 665
f 665 671 668
f 661 664 660
f 660 664 670
f 660 670 638
f 638 670 639
f 658 672 663
f 663 672 673
f 658 657 672
f 672 657 674
f 653 656 675
f 675 656 644
f 653 675 654
f 654 675 676
f 675 644 677
f 677 644 643
f 676 675 678
f 678 675 677
f 679 680 676
f 676 680 654
f 674 680 672
f 672 680 679
f 627 639 625
f 625 639 681
f 626 682 632
f 632 682 642
f 681 682 625
f 625 682 626
f 669 683 681
f 681 683 682
f 667 684 669
f 669 684 683
f 682 683 642
f 642 683 685
f 681 639 669
f 669 639 670
f 686 641 685
f 685 641 642
f 641 686 640
f 640 686 643
f 686 687 643
f 643 687 677
f 687 686 688
f 688 686 685
f 689 687 690
f 690 687 688
f 683 684 685
f 685 684 688
f 684 691 688
f 688 691 690
f 687 689 677
f 677 689 678
f 693 678 692
f 692 678 689
f 692 695 694
f 694 695 696
f 692 689 695
f 695 689 690
f 692 694 693
f 693 694 673
f 693 673 679
f 679 673 672
f 679 676 693
f 693 676 678
f 684 667 691
f 691 667 668
f 696 691 671
f 671 691 668
f 696 695 691
f 691 695 690
f 694 696 666
f 666 696 671
f 666 663 694
f 694 663 673
f 648 655 657
f 657 655 674
f 674 655 680
f 680 655 654
f 593 162 594
f 594 162 290
f 598 597 601
f 601 597 602
f 615 608 616
f 616 608 607
f 607 609 616
f 616 609 614
f 697 595 613
f 613 595 598
f 597 608 602
f 602 608 615
f 594 290 628
f 628 290 203
f 628 612 617
f 617 612 611
f 593 609 162
f 162 609 200
f 105 29 698
f 698 29 699
f 268 126 701
f 701 126 700
f 126 125 700
f 700 125 702
f 252 703 250
f 250 703 704
f 32 268 705
f 705 268 701
f 288 105 706
f 706 105 698
f 29 32 699
f 699 32 705
f 707 251 706
f 706 251 288
f 250 704 125
f 125 704 702
f 703 252 707
f 707 252 251
f 706 708 707
f 707 708 709
f 707 709 703
f 703 709 710
f 703 710 704
f 704 710 711
f 704 711 702
f 702 711 712
f 706 698 708
f 708 698 713
f 698 699 713
f 713 699 714
f 699 705 714
f 714 705 715
f 717 708 716
f 716 708 713
f 719 720 718
f 718 720 721
f 722 723 719
f 719 723 720
f 724 725 723
f 723 725 720
f 724 726 725
f 725 726 727
f 728 721 725
f 725 721 720
f 721 728 729
f 729 728 730
f 729 731 721
f 721 731 718
f 724 723 732
f 732 723 722
f 722 710 732
f 732 710 709
f 722 733 710
f 710 733 711
f 719 734 722
f 722 734 733
f 734 719 735
f 735 719 718
f 724 732 726
f 726 732 717
f 717 732 708
f 708 732 709
f 731 736 718
f 718 736 735
f 737 734 738
f 738 734 735
f 736 739 735
f 735 739 738
f 740 737 741
f 741 737 738
f 737 740 743
f 743 740 742
f 739 744 738
f 738 744 741
f 734 737 733
f 733 737 743
f 733 743 711
f 711 743 712
f 736 731 746
f 746 731 745
f 731 729 745
f 745 729 730
f 727 726 747
f 747 726 717
f 748 727 749
f 749 727 747
f 747 717 750
f 750 717 716
f 749 747 751
f 751 747 750
f 749 752 748
f 748 752 753
f 730 753 745
f 745 753 752
f 728 725 748
f 748 725 727
f 730 728 753
f 753 728 748
f 700 702 754
f 754 702 712
f 705 701 715
f 715 701 755
f 754 755 700
f 700 755 701
f 742 756 754
f 754 756 755
f 740 757 742
f 742 757 756
f 755 756 715
f 715 756 758
f 754 712 742
f 742 712 743
f 759 714 758
f 758 714 715
f 714 759 713
f 713 759 716
f 759 760 716
f 716 760 750
f 760 759 761
f 761 759 758
f 762 760 763
f 763 760 761
f 756 757 758
f 758 757 761
f 757 764 761
f 761 764 763
f 760 762 750
f 750 762 751
f 766 751 765
f 765 751 762
f 767 765 769
f 769 765 768
f 765 762 768
f 768 762 763
f 765 767 766
f 766 767 746
f 766 746 752
f 752 746 745
f 752 749 766
f 766 749 751
f 757 740 764
f 764 740 741
f 769 764 744
f 744 764 741
f 769 768 764
f 764 768 763
f 767 769 739
f 739 769 744
f 739 736 767
f 767 736 746
f 219 217 208
f 208 217 209
f 209 217 210
f 210 217 193
f 198 580 199
f 199 580 511
f 76 75 289
f 289 75 272
f 277 207 291
f 291 207 184
f 290 183 203
f 203 183 84
f 490 580 142
f 142 580 198
f 142 198 143
f 143 198 197
f 149 276 72
f 72 276 73
f 104 103 279
f 279 103 770
f 770 596 279
f 279 596 595
f 605 596 771
f 771 596 770
f 771 770 772
f 772 770 103
f 772 103 773
f 773 103 102
f 155 774 101
f 101 774 102
f 773 102 97
f 97 102 774
f 775 773 100
f 100 773 97
f 773 775 772
f 772 775 776
f 772 776 771
f 771 776 777
f 200 606 197
f 197 606 777
f 189 71 778
f 778 71 74
f 97 774 98
f 98 774 155
f 183 161 184
f 184 161 291
f 777 276 197
f 197 276 143
f 777 606 771
f 771 606 605
f 613 612 697
f 697 612 202
f 595 697 279
f 279 697 202
f 73 276 776
f 776 276 777
f 776 775 73
f 73 775 74
f 100 778 775
f 775 778 74
f 778 100 189
f 189 100 99
f 245 242 99
f 99 242 189
f 131 33 256
f 28 1 95
f 95 1 62
f 27 2 28
f 28 2 1
f 265 115 266
f 266 115 114
f 95 62 69
f 69 62 64
f 62 61 64
f 64 61 65
f 61 13 65
f 65 13 130
f 13 12 130
f 130 12 14
f 31 11 32
f 32 11 268
f 15 12 31
f 31 12 11
f 31 30 15
f 15 30 231
f 30 106 231
f 231 106 232
f 287 237 106
f 106 237 232
f 254 90 287
f 287 90 237
f 253 44 254
f 254 44 90
f 253 249 44
f 44 249 7
f 267 127 268
f 268 127 126
f 10 3 241
f 241 3 116
f 3 2 116
f 116 2 114
f 2 27 114
f 114 27 266
f 27 26 266
f 266 26 113
f 26 286 113
f 113 286 110
f 286 243 110
f 110 243 255
f 243 242 255
f 255 242 256
f 242 245 256
f 256 245 131
f 245 244 131
f 131 244 132
f 265 37 115
f 115 37 41
f 41 37 42
f 42 37 40
f 92 91 40
f 40 91 42
f 236 233 92
f 92 233 91
f 191 194 236
f 236 194 233
f 258 285 244
f 244 285 132
f 257 55 258
f 258 55 285
f 257 154 201
f 201 154 185
f 56 201 204
f 204 201 180
f 55 257 56
f 56 257 201
f 204 85 56
f 56 85 52
f 86 122 53
f 53 122 79
f 212 215 86
f 86 215 122
f 211 216 212
f 212 216 215
f 192 280 211
f 211 280 216
f 191 240 192
f 192 240 280
f 249 124 7
f 7 124 8
f 124 127 8
f 8 127 241
f 127 267 241
f 241 267 10
f 10 267 9
f 9 267 11
f 93 39 235
f 235 39 240
f 39 123 240
f 240 123 280
f 123 119 280
f 280 119 216
f 119 118 216
f 216 118 215
f 118 120 215
f 215 120 122
f 120 121 122
f 122 121 79
f 121 109 79
f 79 109 80

