# https://github.com/mikedh/trimesh
v -0.12181599 -0.00945536 -15.03692913 0.25098039 0.27450980 0.65882353
v -0.11838689 -0.00939502 -15.04865551 0.25098039 0.27450980 0.65882353
v -0.11310279 -0.01116765 -15.04288387 0.25098039 0.27450980 0.65882353
v -0.11738764 -0.00810263 -15.03045654 0.25098039 0.27450980 0.65882353
v -0.10010783 -0.00756317 -15.06228447 0.25098039 0.27450980 0.65882353
v -0.09469113 0.00325495 -15.06440830 0.25098039 0.27450980 0.65882353
v -0.09032746 -0.00296211 -15.05231762 0.25098039 0.27450980 0.65882353
v -0.09561694 -0.01221751 -15.05245113 0.25098039 0.27450980 0.65882353
v -0.11522146 -0.00744059 -15.02491856 0.25098039 0.27450980 0.65882353
v -0.10906301 -0.01320942 -15.03676224 0.25098039 0.27450980 0.65882353
v -0.11499859 -0.00577622 -15.02280045 0.25098039 0.27450980 0.65882353
v -0.12710254 0.00464589 -15.01460838 0.25098039 0.27450980 0.65882353
v -0.12367164 -0.00037982 -15.01659107 0.25098039 0.27450980 0.65882353
v -0.13396488 0.00654354 -15.00840664 0.25098039 0.27450980 0.65882353
v -0.13280529 0.01183227 -15.01934242 0.25098039 0.27450980 0.65882353
v -0.14315704 0.00811461 -15.00962353 0.25098039 0.27450980 0.65882353
v -0.15618093 0.00218535 -15.03465462 0.25098039 0.27450980 0.65882353
v -0.16051522 -0.00907187 -15.04225540 0.25098039 0.27450980 0.65882353
v -0.16421717 -0.01525497 -15.02679539 0.25098039 0.27450980 0.65882353
v -0.15906747 -0.00348299 -15.02052402 0.25098039 0.27450980 0.65882353
v -0.16485550 -0.03157973 -15.04155922 0.25098039 0.27450980 0.65882353
v -0.16503650 -0.02301075 -15.03270531 0.25098039 0.27450980 0.65882353
v -0.16213292 -0.01645020 -15.04837036 0.25098039 0.27450980 0.65882353
v -0.16195706 -0.02415309 -15.05553150 0.25098039 0.27450980 0.65882353
v -0.12693807 -0.01699242 -15.04793167 0.25098039 0.27450980 0.65882353
v -0.12367281 -0.01585585 -15.05789757 0.25098039 0.27450980 0.65882353
v -0.12330958 -0.01203396 -15.05476189 0.25098039 0.27450980 0.65882353
v -0.12570155 -0.01314521 -15.04475784 0.25098039 0.27450980 0.65882353
v -0.10373829 -0.00219817 -15.02303886 0.25098039 0.27450980 0.65882353
v -0.11443034 0.00959186 -15.02728081 0.25098039 0.27450980 0.65882353
v -0.11670966 0.00291925 -15.02333355 0.25098039 0.27450980 0.65882353
v -0.10383458 -0.00821485 -15.02392101 0.25098039 0.27450980 0.65882353
v -0.11363872 -0.02002165 -15.08402920 0.25098039 0.27450980 0.65882353
v -0.11764794 -0.01202358 -15.09548473 0.25098039 0.27450980 0.65882353
v -0.11611784 -0.00654844 -15.09320736 0.25098039 0.27450980 0.65882353
v -0.11362787 -0.01450986 -15.08313084 0.25098039 0.27450980 0.65882353
v -0.10562838 0.00742200 -15.08005047 0.25098039 0.27450980 0.65882353
v -0.11139128 0.01117912 -15.08735085 0.25098039 0.27450980 0.65882353
v -0.11511059 0.02341582 -15.08919811 0.25098039 0.27450980 0.65882353
v -0.11091530 0.02113275 -15.07963753 0.25098039 0.27450980 0.65882353
v -0.09961949 0.00555209 -15.07197762 0.25098039 0.27450980 0.65882353
v -0.10256544 0.01774133 -15.07053471 0.25098039 0.27450980 0.65882353
v -0.09630972 0.01416537 -15.06141281 0.25098039 0.27450980 0.65882353
v -0.09048067 0.00623563 -15.04885674 0.25098039 0.27450980 0.65882353
v -0.12384674 -0.02233458 -15.10042572 0.25098039 0.27450980 0.65882353
v -0.12160265 -0.03002046 -15.09333801 0.25098039 0.27450980 0.65882353
v -0.12664412 -0.01989567 -14.97177315 0.25098039 0.27450980 0.65882353
v -0.12783642 -0.02529089 -14.97445679 0.25098039 0.27450980 0.65882353
v -0.12910943 -0.02300097 -14.97727394 0.25098039 0.27450980 0.65882353
v -0.12786272 -0.01805034 -14.97410393 0.25098039 0.27450980 0.65882353
v -0.14295770 -0.03036208 -15.10058880 0.25098039 0.27450980 0.65882353
v -0.15216948 -0.02530049 -15.09966183 0.25098039 0.27450980 0.65882353
v -0.14958160 -0.02426629 -15.10617733 0.25098039 0.27450980 0.65882353
v -0.14038408 -0.02721016 -15.10677719 0.25098039 0.27450980 0.65882353
v -0.14631076 -0.03438323 -15.09211731 0.25098039 0.27450980 0.65882353
v -0.15488663 -0.02666180 -15.09017086 0.25098039 0.27450980 0.65882353
v -0.13485272 -0.01805786 -14.96230698 0.25098039 0.27450980 0.65882353
v -0.13048849 -0.01668473 -14.96450806 0.25098039 0.27450980 0.65882353
v -0.13346183 -0.01372936 -14.96662998 0.25098039 0.27450980 0.65882353
v -0.13846549 -0.01522917 -14.96533585 0.25098039 0.27450980 0.65882353
v -0.12249047 -0.00445932 -15.02078915 0.25098039 0.27450980 0.65882353
v -0.12415797 -0.00947482 -15.02707958 0.25098039 0.27450980 0.65882353
v -0.12872052 -0.00831722 -15.00403214 0.25098039 0.27450980 0.65882353
v -0.12827678 -0.00880287 -15.01331997 0.25098039 0.27450980 0.65882353
v -0.12686592 -0.00248278 -15.01217842 0.25098039 0.27450980 0.65882353
v -0.12828265 -0.00173889 -15.00433350 0.25098039 0.27450980 0.65882353
v -0.13451195 -0.02579973 -15.02867699 0.25098039 0.27450980 0.65882353
v -0.13150214 -0.02231238 -15.03922367 0.25098039 0.27450980 0.65882353
v -0.13048428 -0.01749775 -15.03480911 0.25098039 0.27450980 0.65882353
v -0.13204238 -0.02033415 -15.02236462 0.25098039 0.27450980 0.65882353
v -0.13279076 -0.03424598 -15.04714870 0.25098039 0.27450980 0.65882353
v -0.13607207 -0.03660144 -15.03634357 0.25098039 0.27450980 0.65882353
v -0.13674921 -0.04298124 -15.04254150 0.25098039 0.27450980 0.65882353
v -0.13328560 -0.04064153 -15.04884052 0.25098039 0.27450980 0.65882353
v -0.14021254 -0.03804074 -15.01618958 0.25098039 0.27450980 0.65882353
v -0.14304247 -0.03940883 -15.00976658 0.25098039 0.27450980 0.65882353
v -0.14311938 -0.04142107 -15.01066208 0.25098039 0.27450980 0.65882353
v -0.14085603 -0.04039560 -15.01858044 0.25098039 0.27450980 0.65882353
v -0.14801076 -0.02240965 -15.11256409 0.25098039 0.27450980 0.65882353
v -0.13823372 -0.02323882 -15.11232090 0.25098039 0.27450980 0.65882353
v -0.16220379 -0.04842535 -15.05577183 0.25098039 0.27450980 0.65882353
v -0.15503043 -0.05317960 -15.06294155 0.25098039 0.27450980 0.65882353
v -0.15671007 -0.06093587 -15.05257130 0.25098039 0.27450980 0.65882353
v -0.16517782 -0.05383715 -15.04703331 0.25098039 0.27450980 0.65882353
v -0.15779419 -0.01698462 -15.09530067 0.25098039 0.27450980 0.65882353
v -0.15689614 -0.01724403 -15.10277939 0.25098039 0.27450980 0.65882353
v -0.13906249 -0.02234316 -14.96244049 0.25098039 0.27450980 0.65882353
v -0.14254862 -0.01975243 -14.96563911 0.25098039 0.27450980 0.65882353
v -0.10662292 0.02377539 -15.05709076 0.25098039 0.27450980 0.65882353
v -0.09626782 0.01420813 -15.04351330 0.25098039 0.27450980 0.65882353
v -0.11501065 0.02802886 -15.06957436 0.25098039 0.27450980 0.65882353
v -0.12228841 0.02982825 -15.07878590 0.25098039 0.27450980 0.65882353
v -0.12573282 0.03108163 -15.08756828 0.25098039 0.27450980 0.65882353
v -0.13030100 -0.01514623 -15.01201630 0.25098039 0.27450980 0.65882353
v -0.12680276 -0.01295094 -15.03487873 0.25098039 0.27450980 0.65882353
v -0.12760942 -0.02100747 -15.05066204 0.25098039 0.27450980 0.65882353
v -0.13028736 -0.04917319 -15.06399536 0.25098039 0.27450980 0.65882353
v -0.12682575 -0.04556616 -15.07300758 0.25098039 0.27450980 0.65882353
v -0.12439603 -0.03875896 -15.06475830 0.25098039 0.27450980 0.65882353
v -0.12853950 -0.04312849 -15.05855751 0.25098039 0.27450980 0.65882353
v -0.14587823 -0.05766449 -15.06351757 0.25098039 0.27450980 0.65882353
v -0.13862976 -0.05638245 -15.05951977 0.25098039 0.27450980 0.65882353
v -0.14091121 -0.05905553 -15.05303955 0.25098039 0.27450980 0.65882353
v -0.14810540 -0.06191795 -15.05509377 0.25098039 0.27450980 0.65882353
v -0.09891927 0.00355532 -15.02432442 0.25098039 0.27450980 0.65882353
v -0.11169350 0.01463402 -15.03099346 0.25098039 0.27450980 0.65882353
v -0.13227746 -0.03152411 -15.09885693 0.25098039 0.27450980 0.65882353
v -0.13059755 -0.02592961 -15.10381508 0.25098039 0.27450980 0.65882353
v -0.13090602 -0.02079079 -15.11103153 0.25098039 0.27450980 0.65882353
v -0.11749142 -0.01656641 -15.07059669 0.25098039 0.27450980 0.65882353
v -0.11333578 -0.01085202 -15.08267689 0.25098039 0.27450980 0.65882353
v -0.11231800 -0.00750968 -15.08079338 0.25098039 0.27450980 0.65882353
v -0.11850921 -0.01365545 -15.06931591 0.25098039 0.27450980 0.65882353
v -0.11345629 -0.00899102 -15.06138229 0.25098039 0.27450980 0.65882353
v -0.10641187 -0.00430054 -15.07103348 0.25098039 0.27450980 0.65882353
v -0.10778046 -0.01355682 -15.05479145 0.25098039 0.27450980 0.65882353
v -0.11433066 0.00170722 -15.09161186 0.25098039 0.27450980 0.65882353
v -0.11595121 -0.00120128 -15.10239315 0.25098039 0.27450980 0.65882353
v -0.11462624 0.00735590 -15.09940052 0.25098039 0.27450980 0.65882353
v -0.11983819 -0.00956349 -15.10623360 0.25098039 0.27450980 0.65882353
v -0.12506662 -0.01658791 -15.10879135 0.25098039 0.27450980 0.65882353
v -0.15823236 -0.01584012 -15.11062431 0.25098039 0.27450980 0.65882353
v -0.11451172 0.01517875 -15.09592724 0.25098039 0.27450980 0.65882353
v -0.09324816 -0.01541866 -15.04512978 0.25098039 0.27450980 0.65882353
v -0.08946688 -0.01750051 -15.03857613 0.25098039 0.27450980 0.65882353
v -0.09609438 -0.02016501 -15.03357315 0.25098039 0.27450980 0.65882353
v -0.10032865 -0.01892080 -15.04019833 0.25098039 0.27450980 0.65882353
v -0.13829920 0.00559712 -15.00008869 0.25098039 0.27450980 0.65882353
v -0.13128482 0.00250311 -15.00164223 0.25098039 0.27450980 0.65882353
v -0.12827046 0.00351344 -15.01066780 0.25098039 0.27450980 0.65882353
v -0.11706878 -0.02842764 -15.07730865 0.25098039 0.27450980 0.65882353
v -0.12330103 -0.03692682 -15.08575821 0.25098039 0.27450980 0.65882353
v -0.13165578 -0.01442983 -15.00271225 0.25098039 0.27450980 0.65882353
v -0.14108953 -0.01197034 -14.96936512 0.25098039 0.27450980 0.65882353
v -0.13530850 -0.01032809 -14.97047424 0.25098039 0.27450980 0.65882353
v -0.13723493 -0.00023457 -14.98610878 0.25098039 0.27450980 0.65882353
v -0.14436679 -0.00171615 -14.98444271 0.25098039 0.27450980 0.65882353
v -0.13999355 -0.01907927 -14.99661350 0.25098039 0.27450980 0.65882353
v -0.13389838 -0.01629128 -14.99862385 0.25098039 0.27450980 0.65882353
v -0.13540038 -0.01771176 -14.99709988 0.25098039 0.27450980 0.65882353
v -0.14054173 -0.02212272 -14.99502945 0.25098039 0.27450980 0.65882353
v -0.14178169 -0.04661387 -15.01869392 0.25098039 0.27450980 0.65882353
v -0.14054283 -0.04579562 -15.02554798 0.25098039 0.27450980 0.65882353
v -0.15873596 -0.01112082 -15.00658417 0.25098039 0.27450980 0.65882353
v -0.15558282 0.00247169 -15.00422478 0.25098039 0.27450980 0.65882353
v -0.15266773 0.00539782 -15.01536560 0.25098039 0.27450980 0.65882353
v -0.13535097 -0.03157987 -15.03363800 0.25098039 0.27450980 0.65882353
v -0.13762476 -0.03560074 -15.02445698 0.25098039 0.27450980 0.65882353
v -0.13858756 -0.03880212 -15.02707386 0.25098039 0.27450980 0.65882353
v -0.13259530 -0.01893170 -15.00984955 0.25098039 0.27450980 0.65882353
v -0.13502453 -0.01936554 -15.00244999 0.25098039 0.27450980 0.65882353
v -0.13561746 -0.02241060 -15.00654221 0.25098039 0.27450980 0.65882353
v -0.13412520 -0.02243305 -15.01371098 0.25098039 0.27450980 0.65882353
v -0.15302572 -0.04640198 -15.07409191 0.25098039 0.27450980 0.65882353
v -0.14245594 -0.05200647 -15.07429886 0.25098039 0.27450980 0.65882353
v -0.12757799 -0.01710775 -14.96806622 0.25098039 0.27450980 0.65882353
v -0.12955552 -0.01460686 -14.97015572 0.25098039 0.27450980 0.65882353
v -0.13250732 -0.02782613 -15.04382229 0.25098039 0.27450980 0.65882353
v -0.14876106 0.00859327 -15.02826500 0.25098039 0.27450980 0.65882353
v -0.12801141 -0.02542542 -15.05366802 0.25098039 0.27450980 0.65882353
v -0.16133548 -0.05005945 -15.02946663 0.25098039 0.27450980 0.65882353
v -0.15326978 -0.05458165 -15.02916336 0.25098039 0.27450980 0.65882353
v -0.15157002 -0.05563091 -15.02461720 0.25098039 0.27450980 0.65882353
v -0.15776525 -0.05431385 -15.02273083 0.25098039 0.27450980 0.65882353
v -0.13962445 -0.02887501 -14.98187160 0.25098039 0.27450980 0.65882353
v -0.13377275 -0.02725122 -14.98227310 0.25098039 0.27450980 0.65882353
v -0.13292876 -0.02804418 -14.97858429 0.25098039 0.27450980 0.65882353
v -0.13834134 -0.03032349 -14.97731495 0.25098039 0.27450980 0.65882353
v -0.13058439 -0.01127626 -14.99861050 0.25098039 0.27450980 0.65882353
v -0.12937108 -0.00462146 -14.99777889 0.25098039 0.27450980 0.65882353
v -0.12953660 -0.00825699 -14.99319553 0.25098039 0.27450980 0.65882353
v -0.13195980 -0.01388928 -14.99522209 0.25098039 0.27450980 0.65882353
v -0.13270596 0.00014698 -14.99471188 0.25098039 0.27450980 0.65882353
v -0.13167594 -0.00268048 -14.98973846 0.25098039 0.27450980 0.65882353
v -0.14546089 -0.02694624 -14.97871876 0.25098039 0.27450980 0.65882353
v -0.14795019 -0.02162068 -14.97367573 0.25098039 0.27450980 0.65882353
v -0.15196738 -0.01417976 -14.98834229 0.25098039 0.27450980 0.65882353
v -0.14737825 -0.02097325 -14.99077225 0.25098039 0.27450980 0.65882353
v -0.16096017 -0.01675245 -15.06892872 0.25098039 0.27450980 0.65882353
v -0.16023895 -0.02619641 -15.07507706 0.25098039 0.27450980 0.65882353
v -0.16179433 -0.03372387 -15.06186771 0.25098039 0.27450980 0.65882353
v -0.16431901 -0.04175558 -15.04909992 0.25098039 0.27450980 0.65882353
v -0.16519687 -0.04830594 -15.03701591 0.25098039 0.27450980 0.65882353
v -0.16806981 -0.03819452 -15.03063679 0.25098039 0.27450980 0.65882353
v -0.15966061 -0.03974404 -15.06747150 0.25098039 0.27450980 0.65882353
v -0.14845553 -0.01875318 -14.99857807 0.25098039 0.27450980 0.65882353
v -0.15392525 -0.01026952 -14.99808025 0.25098039 0.27450980 0.65882353
v -0.15464498 -0.01594848 -15.00067520 0.25098039 0.27450980 0.65882353
v -0.12754843 -0.03220122 -15.05710220 0.25098039 0.27450980 0.65882353
v -0.13049653 -0.01150130 -14.97349072 0.25098039 0.27450980 0.65882353
v -0.14634688 0.02396556 -15.08207130 0.25098039 0.27450980 0.65882353
v -0.15532173 0.01397592 -15.08697701 0.25098039 0.27450980 0.65882353
v -0.15368396 0.01252225 -15.07857704 0.25098039 0.27450980 0.65882353
v -0.14310065 0.02358008 -15.07256126 0.25098039 0.27450980 0.65882353
v -0.12889257 -0.02189861 -14.98059940 0.25098039 0.27450980 0.65882353
v -0.12728146 -0.01585211 -14.97761345 0.25098039 0.27450980 0.65882353
v -0.14036976 -0.05169785 -15.02851009 0.25098039 0.27450980 0.65882353
v -0.14177969 -0.05173500 -15.02206802 0.25098039 0.27450980 0.65882353
v -0.14401273 -0.05473506 -15.02302933 0.25098039 0.27450980 0.65882353
v -0.14081281 -0.05624931 -15.02909565 0.25098039 0.27450980 0.65882353
v -0.15844677 -0.03047432 -15.07935524 0.25098039 0.27450980 0.65882353
v -0.15193309 -0.06624286 -15.04665947 0.25098039 0.27450980 0.65882353
v -0.16102503 -0.05968941 -15.04100418 0.25098039 0.27450980 0.65882353
v -0.15865763 -0.01937581 -15.08625031 0.25098039 0.27450980 0.65882353
v -0.16026214 -0.01096674 -15.08103180 0.25098039 0.27450980 0.65882353
v -0.16028826 -0.00736560 -15.08997631 0.25098039 0.27450980 0.65882353
v -0.16535652 -0.03013989 -15.01694298 0.25098039 0.27450980 0.65882353
v -0.16060445 -0.01068689 -15.06256962 0.25098039 0.27450980 0.65882353
v -0.15910748 -0.00528617 -15.07589149 0.25098039 0.27450980 0.65882353
v -0.15913850 -0.00061884 -15.08617115 0.25098039 0.27450980 0.65882353
v -0.16016802 0.00235843 -15.09371281 0.25098039 0.27450980 0.65882353
v -0.16061075 -0.00559834 -15.09705448 0.25098039 0.27450980 0.65882353
v -0.14547184 -0.01675144 -14.97036362 0.25098039 0.27450980 0.65882353
v -0.14506122 -0.02550032 -14.96858311 0.25098039 0.27450980 0.65882353
v -0.16224402 -0.00371142 -15.10521889 0.25098039 0.27450980 0.65882353
v -0.16088812 0.00484072 -15.10117054 0.25098039 0.27450980 0.65882353
v -0.15706855 0.00227728 -15.07023621 0.25098039 0.27450980 0.65882353
v -0.15298995 0.01115390 -15.06316090 0.25098039 0.27450980 0.65882353
v -0.15844235 -0.00302880 -15.05753136 0.25098039 0.27450980 0.65882353
v -0.15499859 0.00529496 -15.04975796 0.25098039 0.27450980 0.65882353
v -0.16707157 -0.01878366 -15.01442242 0.25098039 0.27450980 0.65882353
v -0.13406208 -0.03752308 -14.96206188 0.25098039 0.27450980 0.65882353
v -0.14037865 -0.03220790 -14.96919918 0.25098039 0.27450980 0.65882353
v -0.13642979 -0.03260535 -14.97349453 0.25098039 0.27450980 0.65882353
v -0.13215829 -0.03883364 -14.96586418 0.25098039 0.27450980 0.65882353
v -0.14305454 -0.02946905 -14.97379112 0.25098039 0.27450980 0.65882353
v -0.14164296 -0.02811779 -14.96530724 0.25098039 0.27450980 0.65882353
v -0.14478955 0.01405060 -15.04162788 0.25098039 0.27450980 0.65882353
v -0.13865012 -0.02306078 -15.00051594 0.25098039 0.27450980 0.65882353
v -0.13835421 0.02194857 -15.05488777 0.25098039 0.27450980 0.65882353
v -0.13132593 0.01697960 -15.03011513 0.25098039 0.27450980 0.65882353
v -0.12487639 0.02190091 -15.03997135 0.25098039 0.27450980 0.65882353
v -0.12981036 0.03033357 -15.06855106 0.25098039 0.27450980 0.65882353
v -0.11977302 0.02821169 -15.05378723 0.25098039 0.27450980 0.65882353
v -0.13674021 0.03129831 -15.08727360 0.25098039 0.27450980 0.65882353
v -0.13487002 0.03037410 -15.07795620 0.25098039 0.27450980 0.65882353
v -0.10897405 0.02117984 -15.04176044 0.25098039 0.27450980 0.65882353
v -0.12196105 -0.02781655 -14.96803856 0.25098039 0.27450980 0.65882353
v -0.12442879 -0.03271081 -14.97068596 0.25098039 0.27450980 0.65882353
v -0.14755389 0.02588752 -15.09022522 0.25098039 0.27450980 0.65882353
v -0.10364408 -0.01654704 -15.04653263 0.25098039 0.27450980 0.65882353
v -0.12252279 -0.02750357 -15.06542397 0.25098039 0.27450980 0.65882353
v -0.12300358 -0.02258316 -15.06238747 0.25098039 0.27450980 0.65882353
v -0.12553076 -0.04275631 -15.07842255 0.25098039 0.27450980 0.65882353
v -0.12150502 -0.03389435 -15.07019901 0.25098039 0.27450980 0.65882353
v -0.12216930 -0.02419501 -14.96381378 0.25098039 0.27450980 0.65882353
v -0.14826468 -0.04079085 -15.00618172 0.25098039 0.27450980 0.65882353
v -0.14890209 -0.04010960 -15.00763798 0.25098039 0.27450980 0.65882353
v -0.08787131 -0.00764991 -15.04602242 0.25098039 0.27450980 0.65882353
v -0.08497754 -0.01074551 -15.04053783 0.25098039 0.27450980 0.65882353
v -0.08534420 0.00075054 -15.03211308 0.25098039 0.27450980 0.65882353
v -0.08307110 -0.00430733 -15.03749180 0.25098039 0.27450980 0.65882353
v -0.08687775 0.00100363 -15.04296207 0.25098039 0.27450980 0.65882353
v -0.08993258 0.00714168 -15.03782368 0.25098039 0.27450980 0.65882353
v -0.11666864 -0.01923073 -15.07135201 0.25098039 0.27450980 0.65882353
v -0.11686838 -0.02321883 -15.07299805 0.25098039 0.27450980 0.65882353
v -0.14934704 -0.04016056 -15.08382988 0.25098039 0.27450980 0.65882353
v -0.13882318 -0.04549425 -15.08288288 0.25098039 0.27450980 0.65882353
v -0.13874075 0.00261176 -14.99299812 0.25098039 0.27450980 0.65882353
v -0.14698078 0.00559543 -14.99976635 0.25098039 0.27450980 0.65882353
v -0.14597486 0.00166128 -14.99232674 0.25098039 0.27450980 0.65882353
v -0.15016627 -0.00594216 -14.98678875 0.25098039 0.27450980 0.65882353
v -0.14349023 -0.02180209 -14.99739075 0.25098039 0.27450980 0.65882353
v -0.14707339 -0.01780285 -14.99629498 0.25098039 0.27450980 0.65882353
v -0.10967870 -0.00595075 -15.07545567 0.25098039 0.27450980 0.65882353
v -0.11764071 -0.01000170 -15.06564713 0.25098039 0.27450980 0.65882353
v -0.10591368 -0.01497603 -15.03285027 0.25098039 0.27450980 0.65882353
v -0.10152082 -0.01664121 -15.02778339 0.25098039 0.27450980 0.65882353
v -0.13585401 -0.02756342 -15.01992512 0.25098039 0.27450980 0.65882353
v -0.16165863 -0.03347395 -15.00636482 0.25098039 0.27450980 0.65882353
v -0.16269574 -0.02383935 -15.00430393 0.25098039 0.27450980 0.65882353
v -0.13821000 -0.02958285 -15.01148224 0.25098039 0.27450980 0.65882353
v -0.12745237 -0.02513261 -14.95697594 0.25098039 0.27450980 0.65882353
v -0.12393630 -0.02364131 -14.96033382 0.25098039 0.27450980 0.65882353
v -0.15202978 -0.00186869 -14.99471283 0.25098039 0.27450980 0.65882353
v -0.13803114 -0.04521320 -15.03286839 0.25098039 0.27450980 0.65882353
v -0.16222653 -0.03784750 -15.01221848 0.25098039 0.27450980 0.65882353
v -0.15665877 -0.03972263 -15.00547695 0.25098039 0.27450980 0.65882353
v -0.14584397 -0.06420167 -15.05068398 0.25098039 0.27450980 0.65882353
v -0.15558837 0.01622762 -15.09520054 0.25098039 0.27450980 0.65882353
v -0.13132866 -0.03079558 -14.97560787 0.25098039 0.27450980 0.65882353
v -0.12802051 -0.03660002 -14.97086239 0.25098039 0.27450980 0.65882353
v -0.13469304 -0.03422582 -14.95915699 0.25098039 0.27450980 0.65882353
v -0.13267055 -0.02871849 -14.95681286 0.25098039 0.27450980 0.65882353
v -0.13449837 -0.03878123 -15.09005833 0.25098039 0.27450980 0.65882353
v -0.12351292 -0.01969673 -15.06013966 0.25098039 0.27450980 0.65882353
v -0.10014714 0.01279211 -15.03410053 0.25098039 0.27450980 0.65882353
v -0.09170195 0.00340747 -15.02738094 0.25098039 0.27450980 0.65882353
v -0.14001927 -0.03069990 -15.00690365 0.25098039 0.27450980 0.65882353
v -0.15852402 -0.05575622 -15.03392887 0.25098039 0.27450980 0.65882353
v -0.16507167 -0.04424460 -15.02294254 0.25098039 0.27450980 0.65882353
v -0.16207352 -0.05009152 -15.01526451 0.25098039 0.27450980 0.65882353
v -0.16024961 -0.04585236 -15.00815487 0.25098039 0.27450980 0.65882353
v -0.15428694 -0.04273855 -15.00454521 0.25098039 0.27450980 0.65882353
v -0.13070288 -0.03767731 -14.95716667 0.25098039 0.27450980 0.65882353
v -0.12871075 -0.03220341 -14.95483208 0.25098039 0.27450980 0.65882353
v -0.12377055 -0.02827702 -14.95527458 0.25098039 0.27450980 0.65882353
v -0.12096893 -0.02641432 -14.95855331 0.25098039 0.27450980 0.65882353
v -0.12025579 -0.02679054 -14.96291351 0.25098039 0.27450980 0.65882353
v -0.12985119 -0.04089235 -14.96036530 0.25098039 0.27450980 0.65882353
v -0.12815711 -0.04153425 -14.96399593 0.25098039 0.27450980 0.65882353
v -0.12621239 -0.03853770 -14.96918678 0.25098039 0.27450980 0.65882353
v -0.12560783 -0.04337582 -14.96048355 0.25098039 0.27450980 0.65882353
v -0.12353881 -0.04205767 -14.95569324 0.25098039 0.27450980 0.65882353
v -0.11145681 -0.03498304 -14.95524502 0.25098039 0.27450980 0.65882353
v -0.11695293 -0.03328967 -14.95399857 0.25098039 0.27450980 0.65882353
v -0.11611493 -0.03572722 -14.95343971 0.25098039 0.27450980 0.65882353
v -0.11170039 -0.03796273 -14.95397568 0.25098039 0.27450980 0.65882353
v -0.10788626 -0.04136704 -14.95389366 0.25098039 0.27450980 0.65882353
v -0.10705587 -0.03831830 -14.95538807 0.25098039 0.27450980 0.65882353
v -0.12030989 -0.03780443 -14.95360470 0.25098039 0.27450980 0.65882353
v -0.11477146 -0.04144096 -14.95401287 0.25098039 0.27450980 0.65882353
v -0.11681847 -0.04471466 -14.95581341 0.25098039 0.27450980 0.65882353
v -0.11213496 -0.04762349 -14.95530415 0.25098039 0.27450980 0.65882353
v -0.11015405 -0.04482166 -14.95364666 0.25098039 0.27450980 0.65882353
v -0.12051727 -0.04206888 -14.95509148 0.25098039 0.27450980 0.65882353
v -0.12243927 -0.03666761 -14.95322800 0.25098039 0.27450980 0.65882353
v -0.10497878 -0.04232868 -14.95555019 0.25098039 0.27450980 0.65882353
v -0.10613580 -0.04365687 -14.95380211 0.25098039 0.27450980 0.65882353
v -0.10759561 -0.04660627 -14.95404816 0.25098039 0.27450980 0.65882353
v -0.10545827 -0.04726721 -14.95594883 0.25098039 0.27450980 0.65882353
v -0.11723778 -0.02910759 -14.95811081 0.25098039 0.27450980 0.65882353
v -0.11055797 -0.03385120 -14.95748138 0.25098039 0.27450980 0.65882353
v -0.10669454 -0.03817938 -14.95854950 0.25098039 0.27450980 0.65882353
v -0.10477234 -0.04221744 -14.95839310 0.25098039 0.27450980 0.65882353
v -0.10995890 -0.03537309 -14.96132183 0.25098039 0.27450980 0.65882353
v -0.10727382 -0.03902002 -14.96138287 0.25098039 0.27450980 0.65882353
v -0.10592274 -0.04268011 -14.96146011 0.25098039 0.27450980 0.65882353
v -0.11056593 -0.03791275 -14.96487713 0.25098039 0.27450980 0.65882353
v -0.10822146 -0.04089590 -14.96387100 0.25098039 0.27450980 0.65882353
v -0.11886716 -0.03089951 -14.96603298 0.25098039 0.27450980 0.65882353
v -0.11822801 -0.02813296 -14.96271610 0.25098039 0.27450980 0.65882353
v -0.10680716 -0.04286038 -14.96344852 0.25098039 0.27450980 0.65882353
v -0.10542126 -0.04746113 -14.95812321 0.25098039 0.27450980 0.65882353
v -0.11934471 -0.04590337 -14.95828819 0.25098039 0.27450980 0.65882353
v -0.11292845 -0.04870334 -14.95831966 0.25098039 0.27450980 0.65882353
v -0.11958337 -0.04649787 -14.96065235 0.25098039 0.27450980 0.65882353
v -0.11343232 -0.04952209 -14.96050167 0.25098039 0.27450980 0.65882353
v -0.10895789 -0.05025749 -14.95727158 0.25098039 0.27450980 0.65882353
v -0.10939973 -0.04865268 -14.95538998 0.25098039 0.27450980 0.65882353
v -0.12135102 -0.02962651 -14.96725655 0.25098039 0.27450980 0.65882353
v -0.12396589 -0.03464261 -14.96977615 0.25098039 0.27450980 0.65882353
v -0.12188585 -0.03582693 -14.96891022 0.25098039 0.27450980 0.65882353
v -0.11302125 -0.04148516 -14.96713257 0.25098039 0.27450980 0.65882353
v -0.12367107 -0.03984664 -14.96848202 0.25098039 0.27450980 0.65882353
v -0.12417363 -0.04363908 -14.96406555 0.25098039 0.27450980 0.65882353
v -0.11822359 -0.04676015 -14.96330452 0.25098039 0.27450980 0.65882353
v -0.11632936 -0.04536770 -14.96598434 0.25098039 0.27450980 0.65882353
v -0.11324202 -0.04867505 -14.96290684 0.25098039 0.27450980 0.65882353
v -0.11226939 -0.04690613 -14.96453094 0.25098039 0.27450980 0.65882353
v -0.10990079 -0.04386606 -14.96532249 0.25098039 0.27450980 0.65882353
v -0.10929744 -0.04877434 -14.96212101 0.25098039 0.27450980 0.65882353
v -0.10913426 -0.05000433 -14.95942974 0.25098039 0.27450980 0.65882353
v -0.10643482 -0.04653545 -14.96122265 0.25098039 0.27450980 0.65882353
v -0.10973078 -0.04761775 -14.96360397 0.25098039 0.27450980 0.65882353
v -0.10782613 -0.04530596 -14.96310806 0.25098039 0.27450980 0.65882353
v -0.13347398 -0.04331857 -14.97845554 0.25098039 0.27450980 0.65882353
v -0.13435416 -0.04889858 -14.98234558 0.25098039 0.27450980 0.65882353
v -0.13747336 -0.04649944 -14.98309040 0.25098039 0.27450980 0.65882353
v -0.13643458 -0.04178194 -14.97996235 0.25098039 0.27450980 0.65882353
v -0.14255115 -0.04410329 -14.96716976 0.25098039 0.27450980 0.65882353
v -0.13764572 -0.04152595 -14.97040367 0.25098039 0.27450980 0.65882353
v -0.14190567 -0.03862212 -14.97168159 0.25098039 0.27450980 0.65882353
v -0.14793223 -0.04162375 -14.96960831 0.25098039 0.27450980 0.65882353
v -0.14739078 -0.04972064 -14.96878338 0.25098039 0.27450980 0.65882353
v -0.15250888 -0.04711265 -14.97157955 0.25098039 0.27450980 0.65882353
v -0.15116699 -0.03758572 -14.97312069 0.25098039 0.27450980 0.65882353
v -0.14460613 -0.03511695 -14.97519588 0.25098039 0.27450980 0.65882353
v -0.14867067 -0.02351324 -14.99220276 0.25098039 0.27450980 0.65882353
v -0.15566960 -0.02495260 -14.99094391 0.25098039 0.27450980 0.65882353
v -0.14370659 -0.03941460 -15.00343800 0.25098039 0.27450980 0.65882353
v -0.14758582 -0.04191465 -15.00253868 0.25098039 0.27450980 0.65882353
v -0.13469043 -0.04157121 -14.97487831 0.25098039 0.27450980 0.65882353
v -0.13827099 -0.03925615 -14.97597980 0.25098039 0.27450980 0.65882353
v -0.14430666 -0.05242550 -14.98801517 0.25098039 0.27450980 0.65882353
v -0.13950902 -0.04906386 -14.98806095 0.25098039 0.27450980 0.65882353
v -0.13901749 -0.05083171 -14.98536777 0.25098039 0.27450980 0.65882353
v -0.14335421 -0.05453972 -14.98458576 0.25098039 0.27450980 0.65882353
v -0.14123642 -0.02755744 -14.99785042 0.25098039 0.27450980 0.65882353
v -0.14218459 -0.03353925 -15.00133228 0.25098039 0.27450980 0.65882353
v -0.14386368 -0.02498036 -14.99485874 0.25098039 0.27450980 0.65882353
v -0.15062934 -0.05351093 -14.98519039 0.25098039 0.27450980 0.65882353
v -0.15551203 -0.05101790 -14.98066425 0.25098039 0.27450980 0.65882353
v -0.16124572 -0.03910895 -14.99639797 0.25098039 0.27450980 0.65882353
v -0.15633179 -0.04328573 -14.99939156 0.25098039 0.27450980 0.65882353
v -0.13983969 -0.03591517 -14.97840500 0.25098039 0.27450980 0.65882353
v -0.13668907 -0.04409706 -14.98537636 0.25098039 0.27450980 0.65882353
v -0.13646333 -0.03901085 -14.98223114 0.25098039 0.27450980 0.65882353
v -0.15553740 -0.04349034 -14.97608662 0.25098039 0.27450980 0.65882353
v -0.15158439 -0.05410057 -14.97621059 0.25098039 0.27450980 0.65882353
v -0.13420793 -0.06468947 -14.97358227 0.25098039 0.27450980 0.65882353
v -0.14354996 -0.05917582 -14.97837162 0.25098039 0.27450980 0.65882353
v -0.13992423 -0.05754789 -14.98223782 0.25098039 0.27450980 0.65882353
v -0.13102005 -0.06411278 -14.97795868 0.25098039 0.27450980 0.65882353
v -0.14764498 -0.05610272 -14.98119926 0.25098039 0.27450980 0.65882353
v -0.14648080 -0.05670154 -14.97344780 0.25098039 0.27450980 0.65882353
v -0.12269859 -0.05175928 -14.97596455 0.25098039 0.27450980 0.65882353
v -0.12430012 -0.05711829 -14.97980499 0.25098039 0.27450980 0.65882353
v -0.12309928 -0.04947578 -14.97154331 0.25098039 0.27450980 0.65882353
v -0.16077492 -0.03077224 -14.99306583 0.25098039 0.27450980 0.65882353
v -0.13087057 -0.05109380 -14.96383190 0.25098039 0.27450980 0.65882353
v -0.12559433 -0.04881303 -14.96768856 0.25098039 0.27450980 0.65882353
v -0.13662115 -0.05369893 -14.98433208 0.25098039 0.27450980 0.65882353
v -0.12716611 -0.06154563 -14.98041439 0.25098039 0.27450980 0.65882353
v -0.13584581 -0.06281058 -14.96942234 0.25098039 0.27450980 0.65882353
v -0.13609284 -0.05616217 -14.96484280 0.25098039 0.27450980 0.65882353
v -0.13055968 -0.06517641 -14.96789455 0.25098039 0.27450980 0.65882353
v -0.12961701 -0.05962538 -14.96367073 0.25098039 0.27450980 0.65882353
v -0.12500811 -0.05413554 -14.96309948 0.25098039 0.27450980 0.65882353
v -0.12161466 -0.05130858 -14.96742535 0.25098039 0.27450980 0.65882353
v -0.12066691 -0.05143908 -14.97149658 0.25098039 0.27450980 0.65882353
v -0.12927477 -0.06682359 -14.97212315 0.25098039 0.27450980 0.65882353
v -0.12704769 -0.06601097 -14.97654819 0.25098039 0.27450980 0.65882353
v -0.12498810 -0.06212691 -14.97946358 0.25098039 0.27450980 0.65882353
v -0.12273323 -0.06876960 -14.97354507 0.25098039 0.27450980 0.65882353
v -0.12219366 -0.06820048 -14.96883106 0.25098039 0.27450980 0.65882353
v -0.10520816 -0.05986167 -14.96822929 0.25098039 0.27450980 0.65882353
v -0.11060382 -0.05811601 -14.96637821 0.25098039 0.27450980 0.65882353
v -0.11110215 -0.06076329 -14.96580219 0.25098039 0.27450980 0.65882353
v -0.10612874 -0.06245534 -14.96732616 0.25098039 0.27450980 0.65882353
v -0.11638722 -0.05810004 -14.96371937 0.25098039 0.27450980 0.65882353
v -0.11550671 -0.06048336 -14.96429062 0.25098039 0.27450980 0.65882353
v -0.11860496 -0.06412637 -14.96515751 0.25098039 0.27450980 0.65882353
v -0.11295483 -0.06530336 -14.96714211 0.25098039 0.27450980 0.65882353
v -0.11524735 -0.06868079 -14.97006702 0.25098039 0.27450980 0.65882353
v -0.11001201 -0.07055129 -14.97088528 0.25098039 0.27450980 0.65882353
v -0.10752083 -0.06738433 -14.96799278 0.25098039 0.27450980 0.65882353
v -0.11875960 -0.06729524 -14.96774387 0.25098039 0.27450980 0.65882353
v -0.10335790 -0.06441435 -14.96848011 0.25098039 0.27450980 0.65882353
v -0.10172527 -0.06375827 -14.97034454 0.25098039 0.27450980 0.65882353
v -0.12142058 -0.06334831 -14.96368122 0.25098039 0.27450980 0.65882353
v -0.11798482 -0.05308703 -14.96686840 0.25098039 0.27450980 0.65882353
v -0.10983799 -0.05606974 -14.96883106 0.25098039 0.27450980 0.65882353
v -0.10447107 -0.05882365 -14.97135830 0.25098039 0.27450980 0.65882353
v -0.10153286 -0.06395090 -14.97339344 0.25098039 0.27450980 0.65882353
v -0.10950311 -0.05606898 -14.97330761 0.25098039 0.27450980 0.65882353
v -0.10472393 -0.05930681 -14.97464275 0.25098039 0.27450980 0.65882353
v -0.10274178 -0.06383388 -14.97585583 0.25098039 0.27450980 0.65882353
v -0.11022225 -0.05774207 -14.97799206 0.25098039 0.27450980 0.65882353
v -0.10576531 -0.06125833 -14.97838783 0.25098039 0.27450980 0.65882353
v -0.11953730 -0.05379752 -14.97621346 0.25098039 0.27450980 0.65882353
v -0.11828142 -0.05194233 -14.97172642 0.25098039 0.27450980 0.65882353
v -0.10428545 -0.06335287 -14.97769356 0.25098039 0.27450980 0.65882353
v -0.10222508 -0.06857389 -14.97091484 0.25098039 0.27450980 0.65882353
v -0.10184734 -0.06805646 -14.97423172 0.25098039 0.27450980 0.65882353
v -0.10358616 -0.06825855 -14.96968079 0.25098039 0.27450980 0.65882353
v -0.11609015 -0.06979613 -14.97183418 0.25098039 0.27450980 0.65882353
v -0.11001770 -0.07108307 -14.97312355 0.25098039 0.27450980 0.65882353
v -0.11630752 -0.07027149 -14.97475147 0.25098039 0.27450980 0.65882353
v -0.10952484 -0.07140109 -14.97551727 0.25098039 0.27450980 0.65882353
v -0.10540564 -0.07142396 -14.97304726 0.25098039 0.27450980 0.65882353
v -0.10546805 -0.07091881 -14.97146511 0.25098039 0.27450980 0.65882353
v -0.12134788 -0.05353368 -14.97553635 0.25098039 0.27450980 0.65882353
v -0.12319367 -0.05804837 -14.97896290 0.25098039 0.27450980 0.65882353
v -0.12180491 -0.05809207 -14.97966957 0.25098039 0.27450980 0.65882353
v -0.11241552 -0.06206132 -14.98072910 0.25098039 0.27450980 0.65882353
v -0.12356128 -0.06275399 -14.97997093 0.25098039 0.27450980 0.65882353
v -0.12289057 -0.06730990 -14.97706413 0.25098039 0.27450980 0.65882353
v -0.11630183 -0.06936878 -14.97761536 0.25098039 0.27450980 0.65882353
v -0.11457632 -0.06656289 -14.98034096 0.25098039 0.27450980 0.65882353
v -0.10977615 -0.07129723 -14.97776508 0.25098039 0.27450980 0.65882353
v -0.11038314 -0.06863509 -14.97970772 0.25098039 0.27450980 0.65882353
v -0.10790056 -0.06433231 -14.98035240 0.25098039 0.27450980 0.65882353
v -0.10522528 -0.07099544 -14.97713280 0.25098039 0.27450980 0.65882353
v -0.10502264 -0.07150687 -14.97478104 0.25098039 0.27450980 0.65882353
v -0.10270402 -0.06735605 -14.97617245 0.25098039 0.27450980 0.65882353
v -0.10661161 -0.06913865 -14.97898579 0.25098039 0.27450980 0.65882353
v -0.10462083 -0.06601985 -14.97843933 0.25098039 0.27450980 0.65882353
v -0.13302644 -0.05820993 -14.99439240 0.25098039 0.27450980 0.65882353
v -0.13169199 -0.06126683 -14.99964333 0.25098039 0.27450980 0.65882353
v -0.13394174 -0.05926096 -15.00144005 0.25098039 0.27450980 0.65882353
v -0.13535628 -0.05612943 -14.99628448 0.25098039 0.27450980 0.65882353
v -0.14295030 -0.06458768 -14.98868275 0.25098039 0.27450980 0.65882353
v -0.13935083 -0.06111816 -14.98807621 0.25098039 0.27450980 0.65882353
v -0.14231025 -0.05851462 -14.99013424 0.25098039 0.27450980 0.65882353
v -0.14694872 -0.06130396 -14.99112988 0.25098039 0.27450980 0.65882353
v -0.14327498 -0.06975880 -14.99139500 0.25098039 0.27450980 0.65882353
v -0.14879018 -0.06600896 -14.99492741 0.25098039 0.27450980 0.65882353
v -0.15118593 -0.05802296 -14.99356461 0.25098039 0.27450980 0.65882353
v -0.14535168 -0.05559685 -14.99232769 0.25098039 0.27450980 0.65882353
v -0.15214545 -0.04586069 -15.00221729 0.25098039 0.27450980 0.65882353
v -0.15800937 -0.04988793 -15.00298405 0.25098039 0.27450980 0.65882353
v -0.13597198 -0.05887161 -14.99065018 0.25098039 0.27450980 0.65882353
v -0.13829428 -0.05656372 -14.99239540 0.25098039 0.27450980 0.65882353
v -0.13749175 -0.06558934 -15.00902748 0.25098039 0.27450980 0.65882353
v -0.13479722 -0.06136451 -15.00737762 0.25098039 0.27450980 0.65882353
v -0.13447510 -0.06392096 -15.00502682 0.25098039 0.27450980 0.65882353
v -0.13680315 -0.06753238 -15.00620365 0.25098039 0.27450980 0.65882353
v -0.14316726 -0.04389076 -15.00958824 0.25098039 0.27450980 0.65882353
v -0.14299944 -0.04790790 -15.01506329 0.25098039 0.27450980 0.65882353
v -0.14631137 -0.04394364 -15.00483608 0.25098039 0.27450980 0.65882353
v -0.14354268 -0.06876510 -15.00768185 0.25098039 0.27450980 0.65882353
v -0.15046130 -0.06786768 -15.00390530 0.25098039 0.27450980 0.65882353
v -0.15572664 -0.06012431 -15.01500130 0.25098039 0.27450980 0.65882353
v -0.14984588 -0.05938170 -15.01845169 0.25098039 0.27450980 0.65882353
v -0.14038447 -0.05393944 -14.99405766 0.25098039 0.27450980 0.65882353
v -0.13435432 -0.05651153 -15.00358486 0.25098039 0.27450980 0.65882353
v -0.13601904 -0.05353265 -14.99809837 0.25098039 0.27450980 0.65882353
v -0.15284482 -0.06263787 -14.99808311 0.25098039 0.27450980 0.65882353
v -0.14615023 -0.07040143 -15.00025463 0.25098039 0.27450980 0.65882353
v -0.12799972 -0.08137318 -14.99359131 0.25098039 0.27450980 0.65882353
v -0.13899551 -0.07331750 -15.00226212 0.25098039 0.27450980 0.65882353
v -0.13444272 -0.06961000 -15.00430489 0.25098039 0.27450980 0.65882353
v -0.12489237 -0.07919736 -14.99626827 0.25098039 0.27450980 0.65882353
v -0.14115041 -0.07110637 -15.00470829 0.25098039 0.27450980 0.65882353
v -0.14259467 -0.07325655 -14.99728489 0.25098039 0.27450980 0.65882353
v -0.12155834 -0.06665903 -14.98863983 0.25098039 0.27450980 0.65882353
v -0.12114781 -0.06989539 -14.99368191 0.25098039 0.27450980 0.65882353
v -0.12468737 -0.06631565 -14.98523712 0.25098039 0.27450980 0.65882353
v -0.16008700 -0.05564139 -15.00813484 0.25098039 0.27450980 0.65882353
v -0.14425932 -0.05515668 -15.01948547 0.25098039 0.27450980 0.65882353
v -0.12961206 -0.07134162 -14.98150921 0.25098039 0.27450980 0.65882353
v -0.12688734 -0.06781489 -14.98277092 0.25098039 0.27450980 0.65882353
v -0.13241045 -0.06565894 -15.00323868 0.25098039 0.27450980 0.65882353
v -0.12230335 -0.07507651 -14.99673176 0.25098039 0.27450980 0.65882353
v -0.13119811 -0.08059353 -14.98959541 0.25098039 0.27450980 0.65882353
v -0.13264616 -0.07617931 -14.98445415 0.25098039 0.27450980 0.65882353
v -0.12562436 -0.08285317 -14.98819733 0.25098039 0.27450980 0.65882353
v -0.12661825 -0.07895742 -14.98289108 0.25098039 0.27450980 0.65882353
v -0.12401616 -0.07415877 -14.98002911 0.25098039 0.27450980 0.65882353
v -0.12208841 -0.07011527 -14.98160076 0.25098039 0.27450980 0.65882353
v -0.12054360 -0.06824331 -14.98420429 0.25098039 0.27450980 0.65882353
v -0.12297028 -0.08270879 -14.99267960 0.25098039 0.27450980 0.65882353
v -0.12104486 -0.07997809 -14.99513245 0.25098039 0.27450980 0.65882353
v -0.12118380 -0.07524256 -14.99558449 0.25098039 0.27450980 0.65882353
v -0.11866364 -0.08292526 -14.99328804 0.25098039 0.27450980 0.65882353
v -0.11853926 -0.08418435 -14.98761177 0.25098039 0.27450980 0.65882353
v -0.10477360 -0.07684828 -14.98130226 0.25098039 0.27450980 0.65882353
v -0.11039223 -0.07586133 -14.98096466 0.25098039 0.27450980 0.65882353
v -0.11057917 -0.07713024 -14.98126698 0.25098039 0.27450980 0.65882353
v -0.10500610 -0.07853611 -14.98123264 0.25098039 0.27450980 0.65882353
v -0.11692112 -0.07679482 -14.98002052 0.25098039 0.27450980 0.65882353
v -0.11552811 -0.07807310 -14.98066044 0.25098039 0.27450980 0.65882353
v -0.11704572 -0.08120495 -14.98268223 0.25098039 0.27450980 0.65882353
v -0.11081289 -0.08200589 -14.98332119 0.25098039 0.27450980 0.65882353
v -0.11185679 -0.08396235 -14.98915005 0.25098039 0.27450980 0.65882353
v -0.10681336 -0.08391926 -14.98860073 0.25098039 0.27450980 0.65882353
v -0.10550606 -0.08270353 -14.98327827 0.25098039 0.27450980 0.65882353
v -0.11675870 -0.08358113 -14.98681068 0.25098039 0.27450980 0.65882353
v -0.10223649 -0.07980108 -14.98196793 0.25098039 0.27450980 0.65882353
v -0.10097581 -0.07858269 -14.98106861 0.25098039 0.27450980 0.65882353
v -0.11942467 -0.08112027 -14.98222446 0.25098039 0.27450980 0.65882353
v -0.11702789 -0.07167459 -14.98035622 0.25098039 0.27450980 0.65882353
v -0.10973565 -0.07288611 -14.98122120 0.25098039 0.27450980 0.65882353
v -0.10396455 -0.07361487 -14.98164177 0.25098039 0.27450980 0.65882353
v -0.10054259 -0.07575239 -14.98339844 0.25098039 0.27450980 0.65882353
v -0.10915795 -0.07069336 -14.98438358 0.25098039 0.27450980 0.65882353
v -0.10417441 -0.07222852 -14.98450470 0.25098039 0.27450980 0.65882353
v -0.10097171 -0.07422256 -14.98589802 0.25098039 0.27450980 0.65882353
v -0.10891704 -0.07029238 -14.98787594 0.25098039 0.27450980 0.65882353
v -0.10462352 -0.07208201 -14.98785973 0.25098039 0.27450980 0.65882353
v -0.11785727 -0.06842571 -14.98774719 0.25098039 0.27450980 0.65882353
v -0.11738880 -0.06904846 -14.98356342 0.25098039 0.27450980 0.65882353
v -0.10212755 -0.07384112 -14.98791885 0.25098039 0.27450980 0.65882353
v -0.10043170 -0.08226231 -14.98418713 0.25098039 0.27450980 0.65882353
v -0.09938426 -0.07967095 -14.98739243 0.25098039 0.27450980 0.65882353
v -0.10216011 -0.08218479 -14.98399162 0.25098039 0.27450980 0.65882353
v -0.11250685 -0.08419216 -14.99103069 0.25098039 0.27450980 0.65882353
v -0.10602559 -0.08450234 -14.99082661 0.25098039 0.27450980 0.65882353
v -0.11234000 -0.08289312 -14.99378300 0.25098039 0.27450980 0.65882353
v -0.10595374 -0.08323371 -14.99325180 0.25098039 0.27450980 0.65882353
v -0.10242356 -0.08423775 -14.98861885 0.25098039 0.27450980 0.65882353
v -0.10310649 -0.08399567 -14.98770046 0.25098039 0.27450980 0.65882353
v -0.12006216 -0.06836805 -14.98829746 0.25098039 0.27450980 0.65882353
v -0.12022287 -0.07095964 -14.99298573 0.25098039 0.27450980 0.65882353
v -0.11845893 -0.07042539 -14.99247265 0.25098039 0.27450980 0.65882353
v -0.10893306 -0.07198083 -14.99263382 0.25098039 0.27450980 0.65882353
v -0.11927883 -0.07439815 -14.99552441 0.25098039 0.27450980 0.65882353
v -0.11715415 -0.07986499 -14.99540710 0.25098039 0.27450980 0.65882353
v -0.11137319 -0.07985048 -14.99528027 0.25098039 0.27450980 0.65882353
v -0.10976843 -0.07608055 -14.99515915 0.25098039 0.27450980 0.65882353
v -0.10579753 -0.08062650 -14.99455357 0.25098039 0.27450980 0.65882353
v -0.10623307 -0.07774347 -14.99423885 0.25098039 0.27450980 0.65882353
v -0.10473950 -0.07341875 -14.99195385 0.25098039 0.27450980 0.65882353
v -0.10247962 -0.08010316 -14.99204731 0.25098039 0.27450980 0.65882353
v -0.10198547 -0.08271135 -14.99081230 0.25098039 0.27450980 0.65882353
v -0.10022117 -0.07723682 -14.98921680 0.25098039 0.27450980 0.65882353
v -0.10316535 -0.07779510 -14.99269485 0.25098039 0.27450980 0.65882353
v -0.10156891 -0.07553944 -14.99048901 0.25098039 0.27450980 0.65882353
v -0.14304091 -0.05165682 -15.01824093 0.25098039 0.27450980 0.65882353
v -0.12770090 -0.06742282 -15.02009773 0.25098039 0.27450980 0.65882353
v -0.12602106 -0.06866759 -15.02379608 0.25098039 0.27450980 0.65882353
v -0.12880425 -0.06803679 -15.02632046 0.25098039 0.27450980 0.65882353
v -0.13052076 -0.06551628 -15.02309418 0.25098039 0.27450980 0.65882353
v -0.13579628 -0.07462794 -15.01746273 0.25098039 0.27450980 0.65882353
v -0.13322113 -0.07109061 -15.01632500 0.25098039 0.27450980 0.65882353
v -0.13695875 -0.06850712 -15.01862240 0.25098039 0.27450980 0.65882353
v -0.13948065 -0.07182607 -15.01955032 0.25098039 0.27450980 0.65882353
v -0.13561603 -0.07825878 -15.02062035 0.25098039 0.27450980 0.65882353
v -0.13937600 -0.07568209 -15.02291107 0.25098039 0.27450980 0.65882353
v -0.14286938 -0.06983204 -15.02092648 0.25098039 0.27450980 0.65882353
v -0.13985294 -0.06622800 -15.02019501 0.25098039 0.27450980 0.65882353
v -0.14842024 -0.05769300 -15.02733421 0.25098039 0.27450980 0.65882353
v -0.15266895 -0.06098227 -15.02981281 0.25098039 0.27450980 0.65882353
v -0.14191802 -0.06665555 -15.04651356 0.25098039 0.27450980 0.65882353
v -0.13878682 -0.06178023 -15.04564285 0.25098039 0.27450980 0.65882353
v -0.13541026 -0.06603605 -15.04037857 0.25098039 0.27450980 0.65882353
v -0.13882849 -0.06963304 -15.04234219 0.25098039 0.27450980 0.65882353
v -0.13031048 -0.06855282 -15.01746559 0.25098039 0.27450980 0.65882353
v -0.13329087 -0.06560209 -15.01987934 0.25098039 0.27450980 0.65882353
v -0.13239768 -0.07454522 -15.03460979 0.25098039 0.27450980 0.65882353
v -0.13002256 -0.07065028 -15.03249359 0.25098039 0.27450980 0.65882353
v -0.12839323 -0.07073294 -15.02997589 0.25098039 0.27450980 0.65882353
v -0.12954578 -0.07494219 -15.03232861 0.25098039 0.27450980 0.65882353
v -0.13753150 -0.05833514 -15.04071999 0.25098039 0.27450980 0.65882353
v -0.13889378 -0.05657174 -15.03546524 0.25098039 0.27450980 0.65882353
v -0.13668117 -0.05785824 -15.03360462 0.25098039 0.27450980 0.65882353
v -0.13431275 -0.06234626 -15.03611851 0.25098039 0.27450980 0.65882353
v -0.14060941 -0.05652061 -15.02902794 0.25098039 0.27450980 0.65882353
v -0.13578756 -0.07708326 -15.03373432 0.25098039 0.27450980 0.65882353
v -0.14031073 -0.07754768 -15.02985287 0.25098039 0.27450980 0.65882353
v -0.14964870 -0.07188964 -15.04008770 0.25098039 0.27450980 0.65882353
v -0.14450362 -0.07132059 -15.04251957 0.25098039 0.27450980 0.65882353
v -0.13560656 -0.06431857 -15.02072906 0.25098039 0.27450980 0.65882353
v -0.12984362 -0.06718445 -15.02865505 0.25098039 0.27450980 0.65882353
v -0.13144384 -0.06485839 -15.02450562 0.25098039 0.27450980 0.65882353
v -0.14345181 -0.07451500 -15.02444172 0.25098039 0.27450980 0.65882353
v -0.13665670 -0.07840283 -15.02788162 0.25098039 0.27450980 0.65882353
v -0.12127987 -0.08261603 -15.02478981 0.25098039 0.27450980 0.65882353
v -0.12931201 -0.07894392 -15.03005505 0.25098039 0.27450980 0.65882353
v -0.12598979 -0.07522409 -15.03010082 0.25098039 0.27450980 0.65882353
v -0.11942797 -0.08030055 -15.02452660 0.25098039 0.27450980 0.65882353
v -0.13290811 -0.07789835 -15.03168011 0.25098039 0.27450980 0.65882353
v -0.13297269 -0.08052376 -15.02586555 0.25098039 0.27450980 0.65882353
v -0.12035257 -0.07256705 -15.01481438 0.25098039 0.27450980 0.65882353
v -0.11882852 -0.07404374 -15.01977348 0.25098039 0.27450980 0.65882353
v -0.12264006 -0.07354666 -15.01272297 0.25098039 0.27450980 0.65882353
v -0.15390506 -0.06655008 -15.03448105 0.25098039 0.27450980 0.65882353
v -0.12726951 -0.07967204 -15.01292896 0.25098039 0.27450980 0.65882353
v -0.12484682 -0.07611349 -15.01146603 0.25098039 0.27450980 0.65882353
v -0.12532142 -0.07137871 -15.02720928 0.25098039 0.27450980 0.65882353
v -0.11866913 -0.07711020 -15.02294159 0.25098039 0.27450980 0.65882353
v -0.12434357 -0.08428566 -15.02253819 0.25098039 0.27450980 0.65882353
v -0.12771884 -0.08341058 -15.01720333 0.25098039 0.27450980 0.65882353
v -0.12031150 -0.08624230 -15.02014637 0.25098039 0.27450980 0.65882353
v -0.12432689 -0.08506195 -15.01516342 0.25098039 0.27450980 0.65882353
v -0.12372511 -0.08115076 -15.01061344 0.25098039 0.27450980 0.65882353
v -0.12240540 -0.07754272 -15.01006508 0.25098039 0.27450980 0.65882353
v -0.12043369 -0.07502751 -15.01087856 0.25098039 0.27450980 0.65882353
v -0.11735955 -0.08435869 -15.02241611 0.25098039 0.27450980 0.65882353
v -0.11585572 -0.08157425 -15.02237511 0.25098039 0.27450980 0.65882353
v -0.11565776 -0.07788527 -15.02123547 0.25098039 0.27450980 0.65882353
v -0.11382948 -0.08581713 -15.01975346 0.25098039 0.27450980 0.65882353
v -0.11593767 -0.08835678 -15.01615810 0.25098039 0.27450980 0.65882353
v -0.11086204 -0.08396186 -15.00437450 0.25098039 0.27450980 0.65882353
v -0.11437559 -0.08287640 -15.00598240 0.25098039 0.27450980 0.65882353
v -0.11462034 -0.08406037 -15.00637054 0.25098039 0.27450980 0.65882353
v -0.11130854 -0.08502761 -15.00407887 0.25098039 0.27450980 0.65882353
v -0.11906483 -0.08312465 -15.00848579 0.25098039 0.27450980 0.65882353
v -0.11812051 -0.08446038 -15.00871754 0.25098039 0.27450980 0.65882353
v -0.11850747 -0.08643462 -15.01169205 0.25098039 0.27450980 0.65882353
v -0.11437224 -0.08768077 -15.00866222 0.25098039 0.27450980 0.65882353
v -0.11132229 -0.08936416 -15.01290226 0.25098039 0.27450980 0.65882353
v -0.10827332 -0.09003340 -15.01018238 0.25098039 0.27450980 0.65882353
v -0.11132182 -0.08871621 -15.00660515 0.25098039 0.27450980 0.65882353
v -0.11571909 -0.08865248 -15.01402283 0.25098039 0.27450980 0.65882353
v -0.10929311 -0.08660483 -15.00325394 0.25098039 0.27450980 0.65882353
v -0.10833868 -0.08609277 -15.00256729 0.25098039 0.27450980 0.65882353
v -0.11989404 -0.08631192 -15.01237297 0.25098039 0.27450980 0.65882353
v -0.11913220 -0.07880929 -15.00821972 0.25098039 0.27450980 0.65882353
v -0.11326400 -0.08075635 -15.00537395 0.25098039 0.27450980 0.65882353
v -0.10917126 -0.08275300 -15.00357056 0.25098039 0.27450980 0.65882353
v -0.10647640 -0.08510229 -15.00332165 0.25098039 0.27450980 0.65882353
v -0.11262935 -0.07849082 -15.00665283 0.25098039 0.27450980 0.65882353
v -0.10785456 -0.08097269 -15.00441074 0.25098039 0.27450980 0.65882353
v -0.10522789 -0.08338186 -15.00443172 0.25098039 0.27450980 0.65882353
v -0.11108183 -0.07683465 -15.00916386 0.25098039 0.27450980 0.65882353
v -0.10703683 -0.07996267 -15.00667667 0.25098039 0.27450980 0.65882353
v -0.11629874 -0.07429196 -15.01269150 0.25098039 0.27450980 0.65882353
v -0.11787847 -0.07598367 -15.00976467 0.25098039 0.27450980 0.65882353
v -0.10534624 -0.08243357 -15.00594234 0.25098039 0.27450980 0.65882353
v -0.10693143 -0.08907382 -15.00445938 0.25098039 0.27450980 0.65882353
v -0.10485204 -0.08715191 -15.00521374 0.25098039 0.27450980 0.65882353
v -0.10815841 -0.08952498 -15.00489140 0.25098039 0.27450980 0.65882353
v -0.11060509 -0.08912301 -15.01426411 0.25098039 0.27450980 0.65882353
v -0.10691603 -0.08982882 -15.01098156 0.25098039 0.27450980 0.65882353
v -0.10918871 -0.08747929 -15.01593399 0.25098039 0.27450980 0.65882353
v -0.10546965 -0.08823666 -15.01164627 0.25098039 0.27450980 0.65882353
v -0.10562812 -0.09000185 -15.00772285 0.25098039 0.27450980 0.65882353
v -0.10736240 -0.09013727 -15.00751591 0.25098039 0.27450980 0.65882353
v -0.11784471 -0.07362798 -15.01365566 0.25098039 0.27450980 0.65882353
v -0.11651373 -0.07479969 -15.01804829 0.25098039 0.27450980 0.65882353
v -0.11461619 -0.07560527 -15.01673698 0.25098039 0.27450980 0.65882353
v -0.10936772 -0.07755481 -15.01277065 0.25098039 0.27450980 0.65882353
v -0.11348108 -0.07871386 -15.01977825 0.25098039 0.27450980 0.65882353
v -0.11329517 -0.08265549 -15.02054501 0.25098039 0.27450980 0.65882353
v -0.10831519 -0.08462642 -15.01624012 0.25098039 0.27450980 0.65882353
v -0.10802910 -0.08107363 -15.01540470 0.25098039 0.27450980 0.65882353
v -0.10457417 -0.08611810 -15.01161957 0.25098039 0.27450980 0.65882353
v -0.10470298 -0.08299270 -15.01130962 0.25098039 0.27450980 0.65882353
v -0.10563184 -0.08043590 -15.00951099 0.25098039 0.27450980 0.65882353
v -0.10379831 -0.08627574 -15.00809765 0.25098039 0.27450980 0.65882353
v -0.10414306 -0.08815055 -15.00782585 0.25098039 0.27450980 0.65882353
v -0.10421059 -0.08533348 -15.00615311 0.25098039 0.27450980 0.65882353
v -0.10387707 -0.08431202 -15.00846291 0.25098039 0.27450980 0.65882353
v -0.10440391 -0.08329912 -15.00735664 0.25098039 0.27450980 0.65882353
v -0.14519688 -0.06871182 -15.04478550 0.25098039 0.27450980 0.65882353
v -0.08860056 -0.00704210 -15.01588535 0.25098039 0.27450980 0.65882353
v -0.09274554 -0.01132104 -15.01571751 0.25098039 0.27450980 0.65882353
v -0.08613189 -0.02453086 -15.02650738 0.25098039 0.27450980 0.65882353
v -0.09151395 -0.02279483 -15.02061844 0.25098039 0.27450980 0.65882353
v -0.08003461 -0.02211200 -15.02998543 0.25098039 0.27450980 0.65882353
v -0.07509264 -0.01131302 -15.02831745 0.25098039 0.27450980 0.65882353
v -0.07678437 -0.01684851 -15.03103638 0.25098039 0.27450980 0.65882353
v -0.09377389 -0.01780517 -15.01696110 0.25098039 0.27450980 0.65882353
v -0.08324775 -0.00460359 -15.01862049 0.25098039 0.27450980 0.65882353
v -0.07734828 -0.00581992 -15.02384281 0.25098039 0.27450980 0.65882353
v -0.07879236 -0.00818603 -15.01092529 0.25098039 0.27450980 0.65882353
v -0.07254051 -0.01024390 -15.01647949 0.25098039 0.27450980 0.65882353
v -0.06987301 -0.01590912 -15.02100086 0.25098039 0.27450980 0.65882353
v -0.07337700 -0.02153516 -15.02493572 0.25098039 0.27450980 0.65882353
v -0.07695006 -0.02531599 -15.02559376 0.25098039 0.27450980 0.65882353
v -0.08601962 -0.01101932 -15.01034069 0.25098039 0.27450980 0.65882353
v -0.09017454 -0.01527975 -15.01095676 0.25098039 0.27450980 0.65882353
v -0.09154831 -0.02130028 -15.01438713 0.25098039 0.27450980 0.65882353
v -0.08446962 -0.01710708 -15.00517941 0.25098039 0.27450980 0.65882353
v -0.07701068 -0.02301453 -15.00173855 0.25098039 0.27450980 0.65882353
v -0.06699745 -0.03890289 -15.00548267 0.25098039 0.27450980 0.65882353
v -0.06837134 -0.03451900 -15.01019001 0.25098039 0.27450980 0.65882353
v -0.06819427 -0.03302396 -15.00768089 0.25098039 0.27450980 0.65882353
v -0.06638312 -0.03701507 -15.00366020 0.25098039 0.27450980 0.65882353
v -0.06866536 -0.02913737 -15.01148033 0.25098039 0.27450980 0.65882353
v -0.06924988 -0.02933022 -15.00913048 0.25098039 0.27450980 0.65882353
v -0.07175776 -0.02572589 -15.00600624 0.25098039 0.27450980 0.65882353
v -0.07013014 -0.02958768 -15.00252151 0.25098039 0.27450980 0.65882353
v -0.07525574 -0.02523302 -15.00222588 0.25098039 0.27450980 0.65882353
v -0.07549925 -0.02815438 -14.99962902 0.25098039 0.27450980 0.65882353
v -0.06887269 -0.03334343 -14.99897957 0.25098039 0.27450980 0.65882353
v -0.06577481 -0.03806064 -14.99999237 0.25098039 0.27450980 0.65882353
v -0.06797600 -0.03679438 -14.99612141 0.25098039 0.27450980 0.65882353
v -0.06703852 -0.04081632 -15.00068951 0.25098039 0.27450980 0.65882353
v -0.07015258 -0.02338430 -15.00558758 0.25098039 0.27450980 0.65882353
v -0.07043466 -0.02827479 -15.01828098 0.25098039 0.27450980 0.65882353
v -0.07006685 -0.03566477 -15.01332378 0.25098039 0.27450980 0.65882353
v -0.06954801 -0.04077667 -15.00748730 0.25098039 0.27450980 0.65882353
v -0.06953244 -0.04248901 -15.00165653 0.25098039 0.27450980 0.65882353
v -0.07392995 -0.03719360 -15.01471996 0.25098039 0.27450980 0.65882353
v -0.07369266 -0.04112673 -15.00864220 0.25098039 0.27450980 0.65882353
v -0.07411022 -0.04229823 -15.00304413 0.25098039 0.27450980 0.65882353
v -0.07881655 -0.03741027 -15.01377964 0.25098039 0.27450980 0.65882353
v -0.07753009 -0.04037996 -15.00783920 0.25098039 0.27450980 0.65882353
v -0.08204177 -0.02875894 -15.02157688 0.25098039 0.27450980 0.65882353
v -0.07558529 -0.02895990 -15.02232075 0.25098039 0.27450980 0.65882353
v -0.07649040 -0.04122870 -15.00389004 0.25098039 0.27450980 0.65882353
v -0.06894229 -0.03905178 -14.99523926 0.25098039 0.27450980 0.65882353
v -0.07188644 -0.04076156 -14.99627113 0.25098039 0.27450980 0.65882353
v -0.07885776 -0.02724020 -14.99881363 0.25098039 0.27450980 0.65882353
v -0.07395405 -0.03126840 -14.99585342 0.25098039 0.27450980 0.65882353
v -0.07707214 -0.03184457 -14.99558449 0.25098039 0.27450980 0.65882353
v -0.08272852 -0.02673095 -14.99969864 0.25098039 0.27450980 0.65882353
v -0.07976379 -0.03270001 -14.99597836 0.25098039 0.27450980 0.65882353
v -0.07360803 -0.03559843 -14.99374104 0.25098039 0.27450980 0.65882353
v -0.07147433 -0.03411683 -14.99473858 0.25098039 0.27450980 0.65882353
v -0.08318213 -0.02689653 -15.02400208 0.25098039 0.27450980 0.65882353
v -0.08874756 -0.02508759 -15.01977730 0.25098039 0.27450980 0.65882353
v -0.08742309 -0.02635582 -15.01752949 0.25098039 0.27450980 0.65882353
v -0.08412006 -0.03482954 -15.01043510 0.25098039 0.27450980 0.65882353
v -0.09011926 -0.02376319 -15.01200867 0.25098039 0.27450980 0.65882353
v -0.08828694 -0.01975023 -15.00733662 0.25098039 0.27450980 0.65882353
v -0.08558123 -0.02851047 -15.00156879 0.25098039 0.27450980 0.65882353
v -0.08650686 -0.03135445 -15.00562191 0.25098039 0.27450980 0.65882353
v -0.08187677 -0.03454940 -14.99832439 0.25098039 0.27450980 0.65882353
v -0.08228366 -0.03600488 -15.00108147 0.25098039 0.27450980 0.65882353
v -0.08069065 -0.03895129 -15.00494576 0.25098039 0.27450980 0.65882353
v -0.07840674 -0.03814499 -14.99711800 0.25098039 0.27450980 0.65882353
v -0.07635944 -0.03693009 -14.99458313 0.25098039 0.27450980 0.65882353
v -0.07561301 -0.04095383 -14.99882603 0.25098039 0.27450980 0.65882353
v -0.07958624 -0.03820289 -14.99959946 0.25098039 0.27450980 0.65882353
v -0.07789585 -0.04013988 -15.00136757 0.25098039 0.27450980 0.65882353
v -0.14007893 -0.06018296 -15.04886150 0.25098039 0.27450980 0.65882353
v -0.13802648 -0.05568806 -15.04393673 0.25098039 0.27450980 0.65882353
v -0.13811970 -0.05499791 -15.04929161 0.25098039 0.27450980 0.65882353
v -0.13451733 -0.05279273 -15.05595016 0.25098039 0.27450980 0.65882353
v -0.13517213 -0.05292460 -15.06624222 0.25098039 0.27450980 0.65882353
v -0.13325422 -0.04697968 -15.05193615 0.25098039 0.27450980 0.65882353
v -0.13731122 -0.04992565 -15.04499722 0.25098039 0.27450980 0.65882353
v -0.13818285 -0.05151739 -15.03660488 0.25098039 0.27450980 0.65882353
v -0.12973118 -0.03806937 -15.05484676 0.25098039 0.27450980 0.65882353
f 2 3 1
f 1 3 4
f 5 6 8
f 8 6 7
f 9 4 10
f 10 4 3
f 12 13 11
f 11 13 9
f 14 12 16
f 16 12 15
f 18 19 17
f 17 19 20
f 22 23 21
f 21 23 24
f 26 27 25
f 25 27 28
f 30 31 29
f 29 31 32
f 33 34 36
f 36 34 35
f 37 38 40
f 40 38 39
f 41 42 6
f 6 42 43
f 6 43 7
f 7 43 44
f 45 34 46
f 46 34 33
f 48 49 47
f 47 49 50
f 52 53 51
f 51 53 54
f 56 52 55
f 55 52 51
f 58 59 57
f 57 59 60
f 61 62 4
f 4 62 1
f 64 65 63
f 63 65 66
f 68 69 67
f 67 69 70
f 72 73 71
f 71 73 74
f 76 77 75
f 75 77 78
f 53 79 54
f 54 79 80
f 82 83 81
f 81 83 84
f 85 86 52
f 52 86 53
f 57 60 87
f 87 60 88
f 89 90 43
f 43 90 44
f 43 42 89
f 89 42 91
f 40 39 92
f 92 39 93
f 94 70 64
f 64 70 69
f 13 61 9
f 9 61 4
f 25 28 69
f 69 28 95
f 96 25 68
f 68 25 69
f 98 99 97
f 97 99 100
f 101 102 104
f 104 102 103
f 106 30 105
f 105 30 29
f 51 54 107
f 107 54 108
f 54 80 108
f 108 80 109
f 111 112 110
f 110 112 113
f 115 5 114
f 114 5 116
f 115 41 5
f 5 41 6
f 36 35 111
f 111 35 117
f 35 118 117
f 117 118 119
f 34 120 35
f 35 120 118
f 34 45 120
f 120 45 121
f 125 126 124
f 124 126 127
f 128 129 14
f 14 129 130
f 33 131 46
f 46 131 132
f 133 94 63
f 63 94 64
f 134 135 137
f 137 135 136
f 139 140 138
f 138 140 141
f 77 142 78
f 78 142 143
f 144 145 20
f 20 145 146
f 148 149 147
f 147 149 72
f 151 152 150
f 150 152 153
f 82 101 83
f 83 101 104
f 101 82 155
f 155 82 154
f 156 157 58
f 58 157 59
f 158 68 147
f 147 68 67
f 159 146 15
f 15 146 16
f 68 158 96
f 96 158 160
f 129 66 130
f 130 66 65
f 162 163 161
f 161 163 164
f 166 167 165
f 165 167 168
f 170 171 169
f 169 171 172
f 174 171 173
f 173 171 170
f 176 177 175
f 175 177 178
f 180 181 179
f 179 181 24
f 182 183 21
f 21 183 184
f 81 185 82
f 82 185 154
f 186 187 188
f 188 187 144
f 158 71 160
f 160 71 189
f 190 135 157
f 157 135 59
f 169 172 139
f 139 172 140
f 147 72 158
f 158 72 71
f 192 193 191
f 191 193 194
f 167 166 49
f 49 166 195
f 196 190 50
f 50 190 157
f 197 198 200
f 200 198 199
f 21 24 182
f 182 24 181
f 146 159 20
f 20 159 17
f 182 181 81
f 81 181 185
f 201 185 180
f 180 185 181
f 202 203 83
f 83 203 84
f 205 206 204
f 204 206 85
f 207 22 184
f 184 22 21
f 179 24 208
f 208 24 23
f 208 209 179
f 179 209 205
f 209 210 205
f 205 210 206
f 212 206 211
f 211 206 210
f 179 205 180
f 180 205 204
f 213 176 88
f 88 176 214
f 86 85 212
f 212 85 206
f 193 217 218
f 217 219 218
f 218 219 220
f 219 18 220
f 220 18 17
f 19 221 20
f 20 221 144
f 222 223 225
f 225 223 224
f 175 226 176
f 176 226 214
f 227 87 214
f 214 87 88
f 220 17 228
f 228 17 159
f 134 213 60
f 60 213 88
f 138 229 151
f 151 229 152
f 193 192 210
f 210 192 211
f 230 194 218
f 218 194 193
f 231 232 228
f 228 232 230
f 233 234 91
f 91 234 89
f 235 236 93
f 93 236 92
f 230 232 234
f 234 232 237
f 47 238 48
f 48 238 239
f 240 191 235
f 235 191 236
f 5 8 116
f 116 8 241
f 242 243 189
f 189 243 160
f 244 245 98
f 98 245 99
f 156 246 47
f 47 246 238
f 76 247 77
f 77 247 248
f 250 125 249
f 249 125 124
f 252 253 251
f 251 253 254
f 111 110 36
f 36 110 255
f 256 33 255
f 255 33 36
f 257 258 154
f 154 258 155
f 63 169 133
f 133 169 139
f 66 170 63
f 63 170 169
f 173 170 129
f 129 170 66
f 129 128 173
f 173 128 259
f 128 260 259
f 259 260 261
f 213 134 262
f 262 134 137
f 263 264 186
f 186 264 187
f 112 265 113
f 113 265 266
f 11 267 268
f 234 233 230
f 230 233 194
f 153 269 70
f 70 269 67
f 175 178 165
f 165 178 141
f 150 153 94
f 94 153 70
f 271 221 270
f 270 221 207
f 269 153 272
f 272 153 152
f 121 45 109
f 109 45 108
f 47 50 156
f 156 50 157
f 57 273 58
f 58 273 274
f 145 275 260
f 260 275 261
f 276 149 143
f 143 149 78
f 148 269 75
f 75 269 272
f 207 277 270
f 270 277 278
f 195 196 49
f 49 196 50
f 59 135 60
f 60 135 134
f 83 104 202
f 202 104 279
f 149 148 78
f 78 148 75
f 247 278 248
f 248 278 277
f 183 182 84
f 84 182 81
f 48 239 281
f 281 239 282
f 227 223 283
f 283 223 222
f 223 226 224
f 224 226 168
f 281 282 224
f 224 282 225
f 165 168 175
f 175 168 226
f 264 263 138
f 138 263 229
f 14 16 128
f 128 16 260
f 220 228 218
f 218 228 230
f 87 227 284
f 284 227 283
f 260 16 145
f 145 16 146
f 244 98 258
f 258 98 155
f 58 274 156
f 156 274 246
f 107 285 51
f 51 285 55
f 243 286 160
f 160 286 96
f 234 237 89
f 89 237 90
f 46 132 107
f 107 132 285
f 253 252 249
f 249 252 250
f 286 26 96
f 96 26 25
f 106 105 287
f 287 105 288
f 272 152 289
f 289 152 229
f 138 151 139
f 139 151 133
f 183 290 161
f 161 290 162
f 291 292 277
f 277 292 293
f 151 150 133
f 133 150 94
f 262 275 177
f 177 275 187
f 144 187 145
f 145 187 275
f 273 57 284
f 284 57 87
f 174 136 190
f 190 136 135
f 111 117 112
f 112 117 38
f 117 119 38
f 38 119 123
f 112 38 265
f 265 38 37
f 287 288 254
f 254 288 251
f 228 159 231
f 231 159 15
f 223 227 226
f 226 227 214
f 147 67 148
f 148 67 269
f 224 168 281
f 281 168 167
f 199 163 200
f 200 163 162
f 45 46 108
f 108 46 107
f 281 167 48
f 48 167 49
f 161 164 291
f 291 164 292
f 38 123 39
f 293 294 277
f 277 294 248
f 284 283 296
f 296 283 295
f 284 296 273
f 273 296 297
f 274 273 298
f 298 273 297
f 246 274 299
f 299 274 298
f 283 222 295
f 295 222 300
f 222 225 300
f 300 225 301
f 301 225 302
f 302 225 282
f 303 304 300
f 300 304 295
f 306 307 305
f 305 307 308
f 309 310 308
f 308 310 305
f 308 307 312
f 312 307 311
f 313 314 312
f 312 314 315
f 311 316 312
f 312 316 313
f 317 304 311
f 311 304 316
f 315 309 312
f 312 309 308
f 318 319 321
f 321 319 320
f 319 318 309
f 309 318 310
f 311 307 317
f 317 307 306
f 306 297 317
f 317 297 296
f 306 322 297
f 297 322 298
f 305 323 306
f 306 323 322
f 323 305 324
f 324 305 310
f 304 317 295
f 295 317 296
f 318 325 310
f 310 325 324
f 323 324 326
f 326 324 327
f 324 325 327
f 327 325 328
f 326 327 329
f 329 327 330
f 329 331 326
f 326 331 332
f 333 330 328
f 328 330 327
f 323 326 322
f 322 326 332
f 322 332 298
f 298 332 299
f 325 318 334
f 334 318 321
f 313 316 335
f 335 316 304
f 335 336 313
f 313 336 314
f 304 303 335
f 335 303 337
f 336 335 338
f 338 335 337
f 336 339 314
f 314 339 340
f 246 299 238
f 238 299 341
f 239 342 282
f 282 342 302
f 342 239 341
f 341 239 238
f 341 331 342
f 342 331 343
f 331 329 343
f 343 329 344
f 342 343 302
f 302 343 345
f 341 299 331
f 331 299 332
f 346 301 345
f 345 301 302
f 346 303 301
f 301 303 300
f 347 337 346
f 346 337 303
f 347 346 348
f 348 346 345
f 349 347 350
f 350 347 348
f 343 344 345
f 345 344 348
f 344 351 348
f 348 351 350
f 337 347 338
f 338 347 349
f 353 338 352
f 352 338 349
f 352 355 354
f 354 355 356
f 352 349 355
f 355 349 350
f 352 354 353
f 353 354 334
f 353 334 339
f 339 334 321
f 339 336 353
f 353 336 338
f 329 330 344
f 344 330 351
f 356 351 333
f 333 351 330
f 356 355 351
f 351 355 350
f 354 356 328
f 328 356 333
f 328 325 354
f 354 325 334
f 309 315 319
f 319 315 320
f 320 340 321
f 321 340 339
f 320 315 340
f 340 315 314
f 137 136 261
f 261 136 259
f 140 166 141
f 141 166 165
f 172 171 195
f 195 171 196
f 171 174 196
f 196 174 190
f 178 177 264
f 264 177 187
f 172 195 140
f 140 195 166
f 137 261 262
f 262 261 275
f 178 264 141
f 141 264 138
f 262 177 213
f 213 177 176
f 136 174 259
f 259 174 173
f 358 359 357
f 357 359 360
f 362 363 361
f 361 363 364
f 361 364 365
f 365 364 366
f 367 368 370
f 370 368 369
f 76 371 247
f 247 371 372
f 373 374 362
f 362 374 363
f 376 377 375
f 375 377 378
f 289 229 380
f 380 229 379
f 381 379 263
f 263 379 229
f 383 384 382
f 382 384 385
f 386 368 374
f 374 368 363
f 76 289 371
f 371 289 380
f 377 376 359
f 359 376 387
f 388 386 360
f 360 386 374
f 389 383 366
f 366 383 390
f 392 393 391
f 391 393 394
f 383 382 390
f 390 382 395
f 396 365 390
f 390 365 366
f 389 366 367
f 367 366 364
f 357 397 358
f 358 397 398
f 373 399 357
f 357 399 397
f 389 367 400
f 400 367 370
f 382 385 375
f 375 385 372
f 357 360 373
f 373 360 374
f 361 401 362
f 362 401 402
f 387 388 359
f 359 388 360
f 363 368 364
f 364 368 367
f 358 398 403
f 403 398 404
f 396 392 405
f 405 392 391
f 392 395 393
f 393 395 378
f 393 403 394
f 394 403 404
f 375 378 382
f 382 378 395
f 365 396 406
f 406 396 405
f 362 402 373
f 373 402 399
f 271 270 400
f 400 270 384
f 401 361 406
f 406 361 365
f 381 369 386
f 386 369 368
f 392 396 395
f 395 396 390
f 393 378 403
f 403 378 377
f 403 377 358
f 358 377 359
f 406 405 408
f 408 405 407
f 406 408 401
f 401 408 409
f 401 409 402
f 402 409 410
f 402 410 399
f 399 410 411
f 405 391 407
f 407 391 412
f 391 394 412
f 412 394 413
f 394 404 413
f 413 404 414
f 415 416 412
f 412 416 407
f 418 419 417
f 417 419 420
f 421 422 418
f 418 422 419
f 419 422 424
f 424 422 423
f 425 426 424
f 424 426 427
f 423 428 424
f 424 428 425
f 427 420 424
f 424 420 419
f 420 429 417
f 417 429 430
f 423 422 431
f 431 422 421
f 421 409 431
f 431 409 408
f 421 432 409
f 409 432 410
f 418 433 421
f 421 433 432
f 434 433 417
f 417 433 418
f 431 416 423
f 423 416 428
f 416 431 407
f 407 431 408
f 435 434 430
f 430 434 417
f 433 434 436
f 436 434 437
f 434 435 437
f 437 435 438
f 436 437 439
f 439 437 440
f 439 441 436
f 436 441 442
f 438 443 437
f 437 443 440
f 436 442 433
f 433 442 432
f 432 442 410
f 410 442 411
f 435 430 445
f 445 430 444
f 430 429 444
f 444 429 446
f 425 428 447
f 447 428 416
f 426 425 448
f 448 425 447
f 416 415 447
f 447 415 449
f 447 449 448
f 448 449 450
f 451 452 448
f 448 452 426
f 446 452 444
f 444 452 451
f 399 411 397
f 397 411 453
f 398 454 404
f 404 454 414
f 454 398 453
f 453 398 397
f 453 441 454
f 454 441 455
f 441 439 455
f 455 439 456
f 454 455 414
f 414 455 457
f 441 453 442
f 442 453 411
f 458 413 457
f 457 413 414
f 458 415 413
f 413 415 412
f 458 459 415
f 415 459 449
f 459 458 460
f 460 458 457
f 461 459 462
f 462 459 460
f 455 456 457
f 457 456 460
f 456 463 460
f 460 463 462
f 459 461 449
f 449 461 450
f 465 450 464
f 464 450 461
f 464 467 466
f 466 467 468
f 464 461 467
f 467 461 462
f 464 466 465
f 465 466 445
f 465 445 451
f 451 445 444
f 451 448 465
f 465 448 450
f 439 440 456
f 456 440 463
f 468 463 443
f 443 463 440
f 468 467 463
f 463 467 462
f 466 468 438
f 438 468 443
f 438 435 466
f 466 435 445
f 420 427 429
f 429 427 446
f 446 427 452
f 452 427 426
f 370 369 188
f 188 369 186
f 371 376 372
f 372 376 375
f 380 379 387
f 387 379 388
f 379 381 388
f 388 381 386
f 385 384 278
f 278 384 270
f 380 387 371
f 371 387 376
f 400 370 271
f 271 370 188
f 385 278 372
f 372 278 247
f 400 384 389
f 389 384 383
f 369 381 186
f 186 381 263
f 221 271 144
f 144 271 188
f 221 19 207
f 207 19 22
f 19 18 22
f 22 18 23
f 18 219 23
f 23 219 208
f 469 470 472
f 472 470 471
f 474 475 473
f 473 475 476
f 473 476 477
f 477 476 478
f 480 481 479
f 479 481 482
f 483 484 474
f 474 484 475
f 486 487 485
f 485 487 488
f 489 490 77
f 77 490 142
f 491 489 248
f 248 489 77
f 493 494 492
f 492 494 495
f 496 480 484
f 484 480 475
f 486 497 487
f 487 497 471
f 498 496 472
f 472 496 484
f 499 493 478
f 478 493 500
f 501 502 504
f 504 502 503
f 493 492 500
f 500 492 505
f 506 477 500
f 500 477 478
f 499 478 479
f 479 478 476
f 469 507 470
f 470 507 508
f 483 509 469
f 469 509 507
f 479 482 499
f 499 482 510
f 492 495 485
f 485 495 511
f 483 469 484
f 484 469 472
f 473 512 474
f 474 512 513
f 497 498 471
f 471 498 472
f 475 480 476
f 476 480 479
f 470 508 514
f 514 508 515
f 506 502 516
f 516 502 501
f 503 502 488
f 488 502 505
f 514 515 503
f 503 515 504
f 485 488 492
f 492 488 505
f 477 506 517
f 517 506 516
f 474 513 483
f 483 513 509
f 510 292 494
f 494 292 164
f 512 473 517
f 517 473 477
f 491 481 496
f 496 481 480
f 502 506 505
f 505 506 500
f 503 488 514
f 514 488 487
f 514 487 470
f 470 487 471
f 517 516 519
f 519 516 518
f 517 519 512
f 512 519 520
f 512 520 513
f 513 520 521
f 513 521 509
f 509 521 522
f 516 501 518
f 518 501 523
f 501 504 523
f 523 504 524
f 524 504 525
f 525 504 515
f 526 527 523
f 523 527 518
f 529 530 528
f 528 530 531
f 532 533 529
f 529 533 530
f 530 533 535
f 535 533 534
f 536 537 535
f 535 537 538
f 534 539 535
f 535 539 536
f 538 531 535
f 535 531 530
f 540 541 531
f 531 541 528
f 533 532 534
f 534 532 542
f 532 520 542
f 542 520 519
f 532 543 520
f 520 543 521
f 529 544 532
f 532 544 543
f 544 529 545
f 545 529 528
f 534 542 539
f 539 542 527
f 527 542 518
f 518 542 519
f 541 546 528
f 528 546 545
f 547 544 548
f 548 544 545
f 546 549 545
f 545 549 548
f 550 547 551
f 551 547 548
f 547 550 553
f 553 550 552
f 549 554 548
f 548 554 551
f 544 547 543
f 543 547 553
f 543 553 521
f 521 553 522
f 546 541 556
f 556 541 555
f 541 540 555
f 555 540 557
f 536 539 558
f 558 539 527
f 537 536 559
f 559 536 558
f 527 526 558
f 558 526 560
f 559 558 561
f 561 558 560
f 559 562 537
f 537 562 563
f 557 563 555
f 555 563 562
f 509 522 507
f 507 522 564
f 508 565 515
f 515 565 525
f 565 508 564
f 564 508 507
f 564 552 565
f 565 552 566
f 552 550 566
f 566 550 567
f 565 566 525
f 525 566 568
f 564 522 552
f 552 522 553
f 569 524 568
f 568 524 525
f 569 526 524
f 524 526 523
f 570 560 569
f 569 560 526
f 570 569 571
f 571 569 568
f 572 570 573
f 573 570 571
f 566 567 568
f 568 567 571
f 567 574 571
f 571 574 573
f 570 572 560
f 560 572 561
f 576 561 575
f 575 561 572
f 575 578 577
f 577 578 579
f 575 572 578
f 578 572 573
f 575 577 576
f 576 577 556
f 576 556 562
f 562 556 555
f 562 559 576
f 576 559 561
f 550 551 567
f 567 551 574
f 579 574 554
f 554 574 551
f 579 578 574
f 574 578 573
f 579 554 577
f 577 554 549
f 549 546 577
f 577 546 556
f 531 538 540
f 540 538 557
f 557 538 563
f 563 538 537
f 481 294 482
f 482 294 293
f 580 486 511
f 511 486 485
f 490 489 497
f 497 489 498
f 489 491 498
f 498 491 496
f 163 495 164
f 164 495 494
f 580 490 486
f 486 490 497
f 482 293 510
f 510 293 292
f 495 163 511
f 511 163 199
f 494 493 510
f 510 493 499
f 481 491 294
f 294 491 248
f 582 583 581
f 581 583 584
f 586 587 585
f 585 587 588
f 585 588 589
f 589 588 590
f 592 593 591
f 591 593 594
f 595 596 598
f 598 596 597
f 599 600 586
f 586 600 587
f 601 602 604
f 604 602 603
f 605 606 608
f 608 606 607
f 609 607 200
f 200 607 606
f 610 611 613
f 613 611 612
f 600 614 587
f 587 614 592
f 596 605 597
f 597 605 608
f 602 615 603
f 603 615 583
f 616 614 584
f 584 614 600
f 611 618 617
f 617 618 590
f 620 621 619
f 619 621 622
f 610 623 611
f 611 623 618
f 624 589 618
f 618 589 590
f 617 590 591
f 591 590 588
f 581 625 582
f 582 625 626
f 599 627 581
f 581 627 625
f 591 594 617
f 617 594 628
f 601 610 598
f 598 610 613
f 581 584 599
f 599 584 600
f 585 629 586
f 586 629 630
f 615 616 583
f 583 616 584
f 587 592 588
f 588 592 591
f 582 626 631
f 631 626 632
f 624 620 633
f 633 620 619
f 621 620 604
f 604 620 623
f 631 632 621
f 621 632 622
f 610 601 623
f 623 601 604
f 589 624 634
f 634 624 633
f 586 630 599
f 599 630 627
f 203 202 628
f 628 202 612
f 629 585 634
f 634 585 589
f 609 593 614
f 614 593 592
f 620 624 623
f 623 624 618
f 631 621 603
f 603 621 604
f 582 631 583
f 583 631 603
f 634 633 636
f 636 633 635
f 634 636 629
f 629 636 637
f 629 637 630
f 630 637 638
f 630 638 627
f 627 638 639
f 633 619 635
f 635 619 640
f 619 622 640
f 640 622 641
f 641 622 642
f 642 622 632
f 644 635 643
f 643 635 640
f 645 646 648
f 648 646 647
f 649 650 646
f 646 650 647
f 647 650 652
f 652 650 651
f 652 653 655
f 655 653 654
f 651 656 652
f 652 656 653
f 655 648 652
f 652 648 647
f 648 657 645
f 645 657 658
f 650 649 651
f 651 649 659
f 649 637 659
f 659 637 636
f 649 660 637
f 637 660 638
f 661 660 646
f 646 660 649
f 662 661 645
f 645 661 646
f 651 659 656
f 656 659 644
f 644 659 635
f 635 659 636
f 663 662 658
f 658 662 645
f 664 661 665
f 665 661 662
f 663 666 662
f 662 666 665
f 667 664 668
f 668 664 665
f 664 667 670
f 670 667 669
f 666 671 665
f 665 671 668
f 661 664 660
f 660 664 670
f 660 670 638
f 638 670 639
f 658 672 663
f 663 672 673
f 658 657 672
f 672 657 674
f 653 656 675
f 675 656 644
f 653 675 654
f 654 675 676
f 675 644 677
f 677 644 643
f 676 675 678
f 678 675 677
f 679 680 676
f 676 680 654
f 674 680 672
f 672 680 679
f 627 639 625
f 625 639 681
f 626 682 632
f 632 682 642
f 681 682 625
f 625 682 626
f 669 683 681
f 681 683 682
f 667 684 669
f 669 684 683
f 682 683 642
f 642 683 685
f 681 639 669
f 669 639 670
f 686 641 685
f 685 641 642
f 641 686 640
f 640 686 643
f 686 687 643
f 643 687 677
f 687 686 688
f 688 686 685
f 689 687 690
f 690 687 688
f 683 684 685
f 685 684 688
f 684 691 688
f 688 691 690
f 687 689 677
f 677 689 678
f 693 678 692
f 692 678 689
f 692 695 694
f 694 695 696
f 692 689 695
f 695 689 690
f 692 694 693
f 693 694 673
f 693 673 679
f 679 673 672
f 679 676 693
f 693 676 678
f 684 667 691
f 691 667 668
f 696 691 671
f 671 691 668
f 696 695 691
f 691 695 690
f 694 696 666
f 666 696 671
f 666 663 694
f 694 663 673
f 648 655 657
f 657 655 674
f 674 655 680
f 680 655 654
f 593 162 594
f 594 162 290
f 598 597 601
f 601 597 602
f 615 608 616
f 616 608 607
f 607 609 616
f 616 609 614
f 697 595 613
f 613 595 598
f 597 608 602
f 602 608 615
f 594 290 628
f 628 290 203
f 628 612 617
f 617 612 611
f 593 609 162
f 162 609 200
f 105 29 698
f 698 29 699
f 268 126 701
f 701 126 700
f 126 125 700
f 700 125 702
f 252 703 250
f 250 703 704
f 32 268 705
f 705 268 701
f 288 105 706
f 706 105 698
f 29 32 699
f 699 32 705
f 707 251 706
f 706 251 288
f 250 704 125
f 125 704 702
f 703 252 707
f 707 252 251
f 706 708 707
f 707 708 709
f 707 709 703
f 703 709 710
f 703 710 704
f 704 710 711
f 704 711 702
f 702 711 712
f 706 698 708
f 708 698 713
f 698 699 713
f 713 699 714
f 699 705 714
f 714 705 715
f 717 708 716
f 716 708 713
f 719 720 718
f 718 720 721
f 722 723 719
f 719 723 720
f 724 725 723
f 723 725 720
f 724 726 725
f 725 726 727
f 728 721 725
f 725 721 720
f 721 728 729
f 729 728 730
f 729 731 721
f 721 731 718
f 724 723 732
f 732 723 722
f 722 710 732
f 732 710 709
f 722 733 710
f 710 733 711
f 719 734 722
f 722 734 733
f 734 719 735
f 735 719 718
f 724 732 726
f 726 732 717
f 717 732 708
f 708 732 709
f 731 736 718
f 718 736 735
f 737 734 738
f 738 734 735
f 736 739 735
f 735 739 738
f 740 737 741
f 741 737 738
f 737 740 743
f 743 740 742
f 739 744 738
f 738 744 741
f 734 737 733
f 733 737 743
f 733 743 711
f 711 743 712
f 736 731 746
f 746 731 745
f 731 729 745
f 745 729 730
f 727 726 747
f 747 726 717
f 748 727 749
f 749 727 747
f 747 717 750
f 750 717 716
f 749 747 751
f 751 747 750
f 749 752 748
f 748 752 753
f 730 753 745
f 745 753 752
f 728 725 748
f 748 725 727
f 730 728 753
f 753 728 748
f 700 702 754
f 754 702 712
f 705 701 715
f 715 701 755
f 754 755 700
f 700 755 701
f 742 756 754
f 754 756 755
f 740 757 742
f 742 757 756
f 755 756 715
f 715 756 758
f 754 712 742
f 742 712 743
f 759 714 758
f 758 714 715
f 714 759 713
f 713 759 716
f 759 760 716
f 716 760 750
f 760 759 761
f 761 759 758
f 762 760 763
f 763 760 761
f 756 757 758
f 758 757 761
f 757 764 761
f 761 764 763
f 760 762 750
f 750 762 751
f 766 751 765
f 765 751 762
f 767 765 769
f 769 765 768
f 765 762 768
f 768 762 763
f 765 767 766
f 766 767 746
f 766 746 752
f 752 746 745
f 752 749 766
f 766 749 751
f 757 740 764
f 764 740 741
f 769 764 744
f 744 764 741
f 769 768 764
f 764 768 763
f 767 769 739
f 739 769 744
f 739 736 767
f 767 736 746
f 219 217 208
f 208 217 209
f 209 217 210
f 210 217 193
f 198 580 199
f 199 580 511
f 76 75 289
f 289 75 272
f 277 207 291
f 291 207 184
f 290 183 203
f 203 183 84
f 490 580 142
f 142 580 198
f 142 198 143
f 143 198 197
f 149 276 72
f 72 276 73
f 104 103 279
f 279 103 770
f 770 596 279
f 279 596 595
f 605 596 771
f 771 596 770
f 771 770 772
f 772 770 103
f 772 103 773
f 773 103 102
f 155 774 101
f 101 774 102
f 773 102 97
f 97 102 774
f 775 773 100
f 100 773 97
f 773 775 772
f 772 775 776
f 772 776 771
f 771 776 777
f 200 606 197
f 197 606 777
f 189 71 778
f 778 71 74
f 97 774 98
f 98 774 155
f 183 161 184
f 184 161 291
f 777 276 197
f 197 276 143
f 777 606 771
f 771 606 605
f 613 612 697
f 697 612 202
f 595 697 279
f 279 697 202
f 73 276 776
f 776 276 777
f 776 775 73
f 73 775 74
f 100 778 775
f 775 778 74
f 778 100 189
f 189 100 99
f 245 242 99
f 99 242 189
f 131 33 256
f 28 1 95
f 95 1 62
f 27 2 28
f 28 2 1
f 265 115 266
f 266 115 114
f 95 62 69
f 69 62 64
f 62 61 64
f 64 61 65
f 61 13 65
f 65 13 130
f 13 12 130
f 130 12 14
f 31 11 32
f 32 11 268
f 15 12 31
f 31 12 11
f 31 30 15
f 15 30 231
f 30 106 231
f 231 106 232
f 287 237 106
f 106 237 232
f 254 90 287
f 287 90 237
f 253 44 254
f 254 44 90
f 253 249 44
f 44 249 7
f 267 127 268
f 268 127 126
f 10 3 241
f 241 3 116
f 3 2 116
f 116 2 114
f 2 27 114
f 114 27 266
f 27 26 266
f 266 26 113
f 26 286 113
f 113 286 110
f 286 243 110
f 110 243 255
f 243 242 255
f 255 242 256
f 242 245 256
f 256 245 131
f 245 244 131
f 131 244 132
f 265 37 115
f 115 37 41
f 41 37 42
f 42 37 40
f 92 91 40
f 40 91 42
f 236 233 92
f 92 233 91
f 191 194 236
f 236 194 233
f 258 285 244
f 244 285 132
f 257 55 258
f 258 55 285
f 257 154 201
f 201 154 185
f 56 201 204
f 204 201 180
f 55 257 56
f 56 257 201
f 204 85 56
f 56 85 52
f 86 122 53
f 53 122 79
f 212 215 86
f 86 215 122
f 211 216 212
f 212 216 215
f 192 280 211
f 211 280 216
f 191 240 192
f 192 240 280
f 249 124 7
f 7 124 8
f 124 127 8
f 8 127 241
f 127 267 241
f 241 267 10
f 10 267 9
f 9 267 11
f 93 39 235
f 235 39 240
f 39 123 240
f 240 123 280
f 123 119 280
f 280 119 216
f 119 118 216
f 216 118 215
f 118 120 215
f 215 120 122
f 120 121 122
f 122 121 79
f 121 109 79
f 79 109 80

