# https://github.com/mikedh/trimesh
v -0.11391624 -0.07435913 -16.23888779 0.25098039 0.27450980 0.65882353
v -0.10970305 -0.07409714 -16.25031281 0.25098039 0.27450980 0.65882353
v -0.10267109 -0.07568109 -16.24487114 0.25098039 0.27450980 0.65882353
v -0.10831089 -0.07376216 -16.23233414 0.25098039 0.27450980 0.65882353
v -0.09115091 -0.06806634 -16.26487160 0.25098039 0.27450980 0.65882353
v -0.08658241 -0.05660739 -16.26623535 0.25098039 0.27450980 0.65882353
v -0.08103378 -0.06276309 -16.25534821 0.25098039 0.27450980 0.65882353
v -0.08589123 -0.07224149 -16.25640488 0.25098039 0.27450980 0.65882353
v -0.10512953 -0.07293349 -16.22696686 0.25098039 0.27450980 0.65882353
v -0.09780872 -0.07735055 -16.23935509 0.25098039 0.27450980 0.65882353
v -0.10436922 -0.07016855 -16.22510338 0.25098039 0.27450980 0.65882353
v -0.11707413 -0.06094263 -16.21556854 0.25098039 0.27450980 0.65882353
v -0.11447654 -0.06627579 -16.21806717 0.25098039 0.27450980 0.65882353
v -0.12447381 -0.05935105 -16.20916939 0.25098039 0.27450980 0.65882353
v -0.12243026 -0.05285723 -16.21951485 0.25098039 0.27450980 0.65882353
v -0.13365877 -0.05707181 -16.21021080 0.25098039 0.27450980 0.65882353
v -0.14799812 -0.05952890 -16.23529434 0.25098039 0.27450980 0.65882353
v -0.15338224 -0.06939045 -16.24377441 0.25098039 0.27450980 0.65882353
v -0.15742074 -0.07654107 -16.22908783 0.25098039 0.27450980 0.65882353
v -0.15120453 -0.06603994 -16.22186089 0.25098039 0.27450980 0.65882353
v -0.15957111 -0.09121168 -16.24514771 0.25098039 0.27450980 0.65882353
v -0.15900603 -0.08354983 -16.23563385 0.25098039 0.27450980 0.65882353
v -0.15569377 -0.07594872 -16.25046921 0.25098039 0.27450980 0.65882353
v -0.15626086 -0.08290538 -16.25826073 0.25098039 0.27450980 0.65882353
v -0.12063205 -0.07989255 -16.25061226 0.25098039 0.27450980 0.65882353
v -0.11733522 -0.07861542 -16.26035690 0.25098039 0.27450980 0.65882353
v -0.11630717 -0.07577610 -16.25672913 0.25098039 0.27450980 0.65882353
v -0.11887271 -0.07673691 -16.24706841 0.25098039 0.27450980 0.65882353
v -0.09231403 -0.06597674 -16.22554970 0.25098039 0.27450980 0.65882353
v -0.10315912 -0.05402961 -16.22797394 0.25098039 0.27450980 0.65882353
v -0.10554186 -0.06115021 -16.22469902 0.25098039 0.27450980 0.65882353
v -0.09283252 -0.07180844 -16.22726250 0.25098039 0.27450980 0.65882353
v -0.10829090 -0.08059068 -16.28684998 0.25098039 0.27450980 0.65882353
v -0.11159477 -0.07117935 -16.29741669 0.25098039 0.27450980 0.65882353
v -0.10963147 -0.06612884 -16.29464912 0.25098039 0.27450980 0.65882353
v -0.10783170 -0.07533922 -16.28545380 0.25098039 0.27450980 0.65882353
v -0.09849933 -0.05369544 -16.28079414 0.25098039 0.27450980 0.65882353
v -0.10373315 -0.04932605 -16.28743744 0.25098039 0.27450980 0.65882353
v -0.10636528 -0.03652106 -16.28801727 0.25098039 0.27450980 0.65882353
v -0.10271390 -0.03949279 -16.27907372 0.25098039 0.27450980 0.65882353
v -0.09205988 -0.05537528 -16.27323341 0.25098039 0.27450980 0.65882353
v -0.09477302 -0.04315015 -16.27079201 0.25098039 0.27450980 0.65882353
v -0.08822183 -0.04586839 -16.26213837 0.25098039 0.27450980 0.65882353
v -0.08072215 -0.05408186 -16.25080681 0.25098039 0.27450980 0.65882353
v -0.11880162 -0.08033285 -16.30308151 0.25098039 0.27450980 0.65882353
v -0.11728321 -0.08881186 -16.29687309 0.25098039 0.27450980 0.65882353
v -0.12127244 -0.08923793 -16.17414665 0.25098039 0.27450980 0.65882353
v -0.12298755 -0.09426239 -16.17713356 0.25098039 0.27450980 0.65882353
v -0.12394840 -0.09153152 -16.17986298 0.25098039 0.27450980 0.65882353
v -0.12229767 -0.08699667 -16.17641068 0.25098039 0.27450980 0.65882353
v -0.13855527 -0.08649170 -16.30363655 0.25098039 0.27450980 0.65882353
v -0.14721103 -0.08070698 -16.30198860 0.25098039 0.27450980 0.65882353
v -0.14462729 -0.07934246 -16.30834198 0.25098039 0.27450980 0.65882353
v -0.13580576 -0.08302009 -16.30947304 0.25098039 0.27450980 0.65882353
v -0.14215344 -0.09096850 -16.29559135 0.25098039 0.27450980 0.65882353
v -0.14992948 -0.08271082 -16.29272079 0.25098039 0.27450980 0.65882353
v -0.12942369 -0.08717562 -16.16482353 0.25098039 0.27450980 0.65882353
v -0.12492540 -0.08612435 -16.16683197 0.25098039 0.27450980 0.65882353
v -0.12753196 -0.08272394 -16.16885948 0.25098039 0.27450980 0.65882353
v -0.13261831 -0.08381935 -16.16778564 0.25098039 0.27450980 0.65882353
v -0.11423390 -0.07030245 -16.22258759 0.25098039 0.27450980 0.65882353
v -0.11673157 -0.07465339 -16.22925949 0.25098039 0.27450980 0.65882353
v -0.12149532 -0.07499002 -16.20615005 0.25098039 0.27450980 0.65882353
v -0.12102439 -0.07469355 -16.21550560 0.25098039 0.27450980 0.65882353
v -0.11888281 -0.06863874 -16.21382904 0.25098039 0.27450980 0.65882353
v -0.12039947 -0.06845395 -16.20589638 0.25098039 0.27450980 0.65882353
v -0.12890396 -0.08954240 -16.23213768 0.25098039 0.27450980 0.65882353
v -0.12562820 -0.08542086 -16.24234962 0.25098039 0.27450980 0.65882353
v -0.12416375 -0.08116122 -16.23758698 0.25098039 0.27450980 0.65882353
v -0.12592709 -0.08494753 -16.22544670 0.25098039 0.27450980 0.65882353
v -0.12811899 -0.09637126 -16.25119972 0.25098039 0.27450980 0.65882353
v -0.13149819 -0.09938597 -16.24064064 0.25098039 0.27450980 0.65882353
v -0.13284124 -0.10506713 -16.24735260 0.25098039 0.27450980 0.65882353
v -0.12926672 -0.10248973 -16.25347710 0.25098039 0.27450980 0.65882353
v -0.13575682 -0.10230258 -16.22051811 0.25098039 0.27450980 0.65882353
v -0.13896124 -0.10395534 -16.21403885 0.25098039 0.27450980 0.65882353
v -0.13947271 -0.10600455 -16.21451759 0.25098039 0.27450980 0.65882353
v -0.13662314 -0.10433338 -16.22293282 0.25098039 0.27450980 0.65882353
v -0.14305210 -0.07707644 -16.31446838 0.25098039 0.27450980 0.65882353
v -0.13346732 -0.07873556 -16.31453705 0.25098039 0.27450980 0.65882353
v -0.15871456 -0.10670128 -16.26064301 0.25098039 0.27450980 0.65882353
v -0.15219581 -0.11148131 -16.26830673 0.25098039 0.27450980 0.65882353
v -0.15475476 -0.11998462 -16.25865555 0.25098039 0.27450980 0.65882353
v -0.16209550 -0.11256975 -16.25247955 0.25098039 0.27450980 0.65882353
v -0.15199895 -0.07242283 -16.29674149 0.25098039 0.27450980 0.65882353
v -0.15120885 -0.07207394 -16.30411148 0.25098039 0.27450980 0.65882353
v -0.13397223 -0.09096293 -16.16526985 0.25098039 0.27450980 0.65882353
v -0.13704613 -0.08782519 -16.16845512 0.25098039 0.27450980 0.65882353
v -0.09828316 -0.03748259 -16.25669098 0.25098039 0.27450980 0.65882353
v -0.08641458 -0.04727527 -16.24425888 0.25098039 0.27450980 0.65882353
v -0.10667489 -0.03294078 -16.26845932 0.25098039 0.27450980 0.65882353
v -0.11334267 -0.03028094 -16.27706718 0.25098039 0.27450980 0.65882353
v -0.11623858 -0.02825361 -16.28538322 0.25098039 0.27450980 0.65882353
v -0.12368733 -0.08090499 -16.21470451 0.25098039 0.27450980 0.65882353
v -0.11993749 -0.07710725 -16.23729897 0.25098039 0.27450980 0.65882353
v -0.12176208 -0.08348754 -16.25366211 0.25098039 0.27450980 0.65882353
v -0.12734766 -0.10976936 -16.26943207 0.25098039 0.27450980 0.65882353
v -0.12370209 -0.10568007 -16.27817345 0.25098039 0.27450980 0.65882353
v -0.12052965 -0.09991018 -16.26935768 0.25098039 0.27450980 0.65882353
v -0.12497149 -0.10447516 -16.26348495 0.25098039 0.27450980 0.65882353
v -0.14365888 -0.11672398 -16.26938820 0.25098039 0.27450980 0.65882353
v -0.13633355 -0.11652161 -16.26540565 0.25098039 0.27450980 0.65882353
v -0.13888760 -0.11962448 -16.25909424 0.25098039 0.27450980 0.65882353
v -0.14639580 -0.12152693 -16.26132965 0.25098039 0.27450980 0.65882353
v -0.08731218 -0.06031709 -16.22612572 0.25098039 0.27450980 0.65882353
v -0.10071588 -0.04849704 -16.23111725 0.25098039 0.27450980 0.65882353
v -0.12808329 -0.08877628 -16.30226135 0.25098039 0.27450980 0.65882353
v -0.12593377 -0.08293010 -16.30663300 0.25098039 0.27450980 0.65882353
v -0.12600991 -0.07708555 -16.31323814 0.25098039 0.27450980 0.65882353
v -0.11167774 -0.07856408 -16.27316284 0.25098039 0.27450980 0.65882353
v -0.10729972 -0.07190895 -16.28469467 0.25098039 0.27450980 0.65882353
v -0.10609192 -0.06902054 -16.28259087 0.25098039 0.27450980 0.65882353
v -0.11234290 -0.07619448 -16.27152443 0.25098039 0.27450980 0.65882353
v -0.10464457 -0.07235775 -16.26313019 0.25098039 0.27450980 0.65882353
v -0.09884620 -0.06633107 -16.27270317 0.25098039 0.27450980 0.65882353
v -0.09728657 -0.07582800 -16.25740242 0.25098039 0.27450980 0.65882353
v -0.10724511 -0.05827776 -16.29237938 0.25098039 0.27450980 0.65882353
v -0.10912855 -0.05994057 -16.30323029 0.25098039 0.27450980 0.65882353
v -0.10704331 -0.05186480 -16.29950142 0.25098039 0.27450980 0.65882353
v -0.11379011 -0.06748035 -16.30774498 0.25098039 0.27450980 0.65882353
v -0.11977910 -0.07365334 -16.31072235 0.25098039 0.27450980 0.65882353
v -0.15258610 -0.06993137 -16.31156921 0.25098039 0.27450980 0.65882353
v -0.10620504 -0.04438359 -16.29534721 0.25098039 0.27450980 0.65882353
v -0.08321062 -0.07624119 -16.24981689 0.25098039 0.27450980 0.65882353
v -0.07994629 -0.07959866 -16.24363327 0.25098039 0.27450980 0.65882353
v -0.08638103 -0.08263051 -16.23887253 0.25098039 0.27450980 0.65882353
v -0.08988364 -0.08043659 -16.24493217 0.25098039 0.27450980 0.65882353
v -0.12936848 -0.06068020 -16.20099068 0.25098039 0.27450980 0.65882353
v -0.12283661 -0.06423114 -16.20284271 0.25098039 0.27450980 0.65882353
v -0.11927495 -0.06266624 -16.21174812 0.25098039 0.27450980 0.65882353
v -0.11245246 -0.08915233 -16.28093529 0.25098039 0.27450980 0.65882353
v -0.11962169 -0.09622879 -16.29005241 0.25098039 0.27450980 0.65882353
v -0.12499982 -0.08090005 -16.20526695 0.25098039 0.27450980 0.65882353
v -0.13475549 -0.08005505 -16.17164040 0.25098039 0.27450980 0.65882353
v -0.12887841 -0.07890006 -16.17253113 0.25098039 0.27450980 0.65882353
v -0.12940362 -0.06759389 -16.18751907 0.25098039 0.27450980 0.65882353
v -0.13666308 -0.06850128 -16.18600464 0.25098039 0.27450980 0.65882353
v -0.13384573 -0.08514334 -16.19941902 0.25098039 0.27450980 0.65882353
v -0.12747797 -0.08289276 -16.20123100 0.25098039 0.27450980 0.65882353
v -0.12921542 -0.08420208 -16.19972992 0.25098039 0.27450980 0.65882353
v -0.13474357 -0.08826008 -16.19798660 0.25098039 0.27450980 0.65882353
v -0.13831794 -0.11024483 -16.22286606 0.25098039 0.27450980 0.65882353
v -0.13670614 -0.10893959 -16.23023224 0.25098039 0.27450980 0.65882353
v -0.15161990 -0.07485317 -16.20868492 0.25098039 0.27450980 0.65882353
v -0.14702269 -0.06200452 -16.20532036 0.25098039 0.27450980 0.65882353
v -0.14375897 -0.05850171 -16.21606827 0.25098039 0.27450980 0.65882353
v -0.13028017 -0.09474103 -16.23754120 0.25098039 0.27450980 0.65882353
v -0.13286872 -0.09934641 -16.22868538 0.25098039 0.27450980 0.65882353
v -0.13415816 -0.10217858 -16.23151016 0.25098039 0.27450980 0.65882353
v -0.12634736 -0.08462842 -16.21281815 0.25098039 0.27450980 0.65882353
v -0.12882747 -0.08549162 -16.20536804 0.25098039 0.27450980 0.65882353
v -0.12968682 -0.08811112 -16.20977402 0.25098039 0.27450980 0.65882353
v -0.12823831 -0.08758917 -16.21697044 0.25098039 0.27450980 0.65882353
v -0.14966789 -0.10388629 -16.27877426 0.25098039 0.27450980 0.65882353
v -0.13982947 -0.11038469 -16.27964211 0.25098039 0.27450980 0.65882353
v -0.12199274 -0.08661784 -16.17032433 0.25098039 0.27450980 0.65882353
v -0.12371895 -0.08370680 -16.17232704 0.25098039 0.27450980 0.65882353
v -0.12721819 -0.09035689 -16.24735641 0.25098039 0.27450980 0.65882353
v -0.13970256 -0.05446539 -16.22845078 0.25098039 0.27450980 0.65882353
v -0.12261076 -0.08751730 -16.25699425 0.25098039 0.27450980 0.65882353
v -0.15785849 -0.11090395 -16.23493767 0.25098039 0.27450980 0.65882353
v -0.15028113 -0.11614850 -16.23491669 0.25098039 0.27450980 0.65882353
v -0.14875913 -0.11764488 -16.23048973 0.25098039 0.27450980 0.65882353
v -0.15496103 -0.11600462 -16.22881699 0.25098039 0.27450980 0.65882353
v -0.13469994 -0.09597883 -16.18517113 0.25098039 0.27450980 0.65882353
v -0.12875949 -0.09487673 -16.18540382 0.25098039 0.27450980 0.65882353
v -0.12818149 -0.09609745 -16.18153191 0.25098039 0.27450980 0.65882353
v -0.13376206 -0.09787790 -16.18053436 0.25098039 0.27450980 0.65882353
v -0.12372512 -0.07823211 -16.20084381 0.25098039 0.27450980 0.65882353
v -0.12191869 -0.07178096 -16.19954109 0.25098039 0.27450980 0.65882353
v -0.12250491 -0.07574715 -16.19516945 0.25098039 0.27450980 0.65882353
v -0.12546965 -0.08090048 -16.19757652 0.25098039 0.27450980 0.65882353
v -0.12475071 -0.06702513 -16.19609833 0.25098039 0.27450980 0.65882353
v -0.12406829 -0.07028719 -16.19131851 0.25098039 0.27450980 0.65882353
v -0.14032176 -0.09366184 -16.18197060 0.25098039 0.27450980 0.65882353
v -0.14238507 -0.08848799 -16.17667198 0.25098039 0.27450980 0.65882353
v -0.14535287 -0.07978012 -16.19079971 0.25098039 0.27450980 0.65882353
v -0.14142898 -0.08679926 -16.19369316 0.25098039 0.27450980 0.65882353
v -0.15473001 -0.07441452 -16.27070999 0.25098039 0.27450980 0.65882353
v -0.15498868 -0.08321127 -16.27767754 0.25098039 0.27450980 0.65882353
v -0.15709941 -0.09171709 -16.26536179 0.25098039 0.27450980 0.65882353
v -0.16011006 -0.10054161 -16.25350189 0.25098039 0.27450980 0.65882353
v -0.16141823 -0.10809322 -16.24216461 0.25098039 0.27450980 0.65882353
v -0.16317096 -0.09849699 -16.23506927 0.25098039 0.27450980 0.65882353
v -0.15555863 -0.09731206 -16.27146149 0.25098039 0.27450980 0.65882353
v -0.14216742 -0.08400214 -16.20126724 0.25098039 0.27450980 0.65882353
v -0.14676571 -0.07507209 -16.20016670 0.25098039 0.27450980 0.65882353
v -0.14802262 -0.08041541 -16.20318222 0.25098039 0.27450980 0.65882353
v -0.12285302 -0.09390701 -16.26103401 0.25098039 0.27450980 0.65882353
v -0.12415265 -0.08028474 -16.17556190 0.25098039 0.27450980 0.65882353
v -0.13694248 -0.03438195 -16.28002739 0.25098039 0.27450980 0.65882353
v -0.14672865 -0.04294837 -16.28554535 0.25098039 0.27450980 0.65882353
v -0.14504433 -0.04542846 -16.27753830 0.25098039 0.27450980 0.65882353
v -0.13381234 -0.03598816 -16.27086639 0.25098039 0.27450980 0.65882353
v -0.12343846 -0.09016369 -16.18338203 0.25098039 0.27450980 0.65882353
v -0.12128150 -0.08459130 -16.17992210 0.25098039 0.27450980 0.65882353
v -0.13713291 -0.11450396 -16.23374557 0.25098039 0.27450980 0.65882353
v -0.13865003 -0.11483099 -16.22692680 0.25098039 0.27450980 0.65882353
v -0.14121243 -0.11745175 -16.22832108 0.25098039 0.27450980 0.65882353
v -0.13796903 -0.11889647 -16.23474312 0.25098039 0.27450980 0.65882353
v -0.15366879 -0.08717398 -16.28234673 0.25098039 0.27450980 0.65882353
v -0.15079424 -0.12627289 -16.25320625 0.25098039 0.27450980 0.65882353
v -0.15870842 -0.11935831 -16.24701118 0.25098039 0.27450980 0.65882353
v -0.15294783 -0.07556879 -16.28806496 0.25098039 0.27450980 0.65882353
v -0.15366881 -0.06765220 -16.28206253 0.25098039 0.27450980 0.65882353
v -0.15358016 -0.06325416 -16.29048538 0.25098039 0.27450980 0.65882353
v -0.16014132 -0.09209294 -16.22051811 0.25098039 0.27450980 0.65882353
v -0.15369757 -0.06909646 -16.26392174 0.25098039 0.27450980 0.65882353
v -0.15189442 -0.06268045 -16.27648735 0.25098039 0.27450980 0.65882353
v -0.15176055 -0.05708249 -16.28612328 0.25098039 0.27450980 0.65882353
v -0.15274286 -0.05327829 -16.29314804 0.25098039 0.27450980 0.65882353
v -0.15384549 -0.06081147 -16.29719543 0.25098039 0.27450980 0.65882353
v -0.13953532 -0.08426844 -16.17299080 0.25098039 0.27450980 0.65882353
v -0.14004022 -0.09295991 -16.17175674 0.25098039 0.27450980 0.65882353
v -0.15546292 -0.05808745 -16.30484200 0.25098039 0.27450980 0.65882353
v -0.15340447 -0.05012739 -16.30002594 0.25098039 0.27450980 0.65882353
v -0.14909916 -0.05597601 -16.27021790 0.25098039 0.27450980 0.65882353
v -0.14434391 -0.04843395 -16.26256180 0.25098039 0.27450980 0.65882353
v -0.15091164 -0.06224021 -16.25823402 0.25098039 0.27450980 0.65882353
v -0.14670883 -0.05516734 -16.24986458 0.25098039 0.27450980 0.65882353
v -0.16048965 -0.08093590 -16.21709061 0.25098039 0.27450980 0.65882353
v -0.13084096 -0.10638650 -16.16562843 0.25098039 0.27450980 0.65882353
v -0.13626051 -0.10002563 -16.17261314 0.25098039 0.27450980 0.65882353
v -0.13229935 -0.10063769 -16.17681885 0.25098039 0.27450980 0.65882353
v -0.12902446 -0.10766425 -16.16950417 0.25098039 0.27450980 0.65882353
v -0.13837861 -0.09671356 -16.17710495 0.25098039 0.27450980 0.65882353
v -0.13710649 -0.09608192 -16.16848373 0.25098039 0.27450980 0.65882353
v -0.13566492 -0.04825268 -16.24119377 0.25098039 0.27450980 0.65882353
v -0.13282479 -0.08901417 -16.20370674 0.25098039 0.27450980 0.65882353
v -0.12922359 -0.03963077 -16.25374794 0.25098039 0.27450980 0.65882353
v -0.12098509 -0.04682461 -16.22978401 0.25098039 0.27450980 0.65882353
v -0.11487851 -0.04123087 -16.23927307 0.25098039 0.27450980 0.65882353
v -0.12088642 -0.03036204 -16.26669312 0.25098039 0.27450980 0.65882353
v -0.11095423 -0.03388061 -16.25261688 0.25098039 0.27450980 0.65882353
v -0.12686996 -0.02734112 -16.28473091 0.25098039 0.27450980 0.65882353
v -0.12534723 -0.02916148 -16.27575493 0.25098039 0.27450980 0.65882353
v -0.09920062 -0.04117244 -16.24136734 0.25098039 0.27450980 0.65882353
v -0.11763561 -0.09780511 -16.17080498 0.25098039 0.27450980 0.65882353
v -0.12056321 -0.10218828 -16.17378044 0.25098039 0.27450980 0.65882353
v -0.13797125 -0.03159224 -16.28775215 0.25098039 0.27450980 0.65882353
v -0.09257296 -0.07826719 -16.25017166 0.25098039 0.27450980 0.65882353
v -0.11759953 -0.08895627 -16.26896667 0.25098039 0.27450980 0.65882353
v -0.11749309 -0.08446290 -16.26545334 0.25098039 0.27450980 0.65882353
v -0.12231542 -0.10250445 -16.28334618 0.25098039 0.27450980 0.65882353
v -0.11731771 -0.09479167 -16.27434158 0.25098039 0.27450980 0.65882353
v -0.11751486 -0.09446516 -16.16637802 0.25098039 0.27450980 0.65882353
v -0.14454308 -0.10514472 -16.21037483 0.25098039 0.27450980 0.65882353
v -0.14549918 -0.10463172 -16.21142387 0.25098039 0.27450980 0.65882353
v -0.07783405 -0.06845406 -16.24983406 0.25098039 0.27450980 0.65882353
v -0.07520491 -0.07293730 -16.24474716 0.25098039 0.27450980 0.65882353
v -0.07467729 -0.06292751 -16.23486137 0.25098039 0.27450980 0.65882353
v -0.07282327 -0.06713720 -16.24090004 0.25098039 0.27450980 0.65882353
v -0.07636513 -0.06062008 -16.24562073 0.25098039 0.27450980 0.65882353
v -0.07915789 -0.05550515 -16.23961639 0.25098039 0.27450980 0.65882353
v -0.11109832 -0.08089811 -16.27416992 0.25098039 0.27450980 0.65882353
v -0.11165871 -0.08449610 -16.27618217 0.25098039 0.27450980 0.65882353
v -0.14558740 -0.09713938 -16.28788376 0.25098039 0.27450980 0.65882353
v -0.13570487 -0.10340843 -16.28761292 0.25098039 0.27450980 0.65882353
v -0.13048428 -0.06416228 -16.19417572 0.25098039 0.27450980 0.65882353
v -0.13818014 -0.06000048 -16.20067596 0.25098039 0.27450980 0.65882353
v -0.13779968 -0.06449160 -16.19356155 0.25098039 0.27450980 0.65882353
v -0.14280136 -0.07196241 -16.18862343 0.25098039 0.27450980 0.65882353
v -0.13754565 -0.08756989 -16.20037651 0.25098039 0.27450980 0.65882353
v -0.14070141 -0.08331614 -16.19896317 0.25098039 0.27450980 0.65882353
v -0.10313985 -0.06822499 -16.27718353 0.25098039 0.27450980 0.65882353
v -0.11065236 -0.07349623 -16.26739883 0.25098039 0.27450980 0.65882353
v -0.09471467 -0.07805923 -16.23643494 0.25098039 0.27450980 0.65882353
v -0.09119180 -0.07968010 -16.23221016 0.25098039 0.27450980 0.65882353
v -0.13041559 -0.09193816 -16.22354698 0.25098039 0.27450980 0.65882353
v -0.15688974 -0.09659226 -16.21015549 0.25098039 0.27450980 0.65882353
v -0.15673095 -0.08716317 -16.20740891 0.25098039 0.27450980 0.65882353
v -0.13294941 -0.09450118 -16.21527672 0.25098039 0.27450980 0.65882353
v -0.12305091 -0.09522541 -16.15967560 0.25098039 0.27450980 0.65882353
v -0.11929978 -0.09393485 -16.16289902 0.25098039 0.27450980 0.65882353
v -0.14410919 -0.06724812 -16.19620132 0.25098039 0.27450980 0.65882353
v -0.13419260 -0.10805725 -16.23779869 0.25098039 0.27450980 0.65882353
v -0.15832208 -0.10062036 -16.21645546 0.25098039 0.27450980 0.65882353
v -0.15277414 -0.10338372 -16.20970345 0.25098039 0.27450980 0.65882353
v -0.14451551 -0.12443157 -16.25708580 0.25098039 0.27450980 0.65882353
v -0.14693862 -0.03993289 -16.29330063 0.25098039 0.27450980 0.65882353
v -0.12699604 -0.09926417 -16.17867851 0.25098039 0.27450980 0.65882353
v -0.12456937 -0.10561641 -16.17425156 0.25098039 0.27450980 0.65882353
v -0.13114363 -0.10324048 -16.16252327 0.25098039 0.27450980 0.65882353
v -0.12860624 -0.09818929 -16.15981102 0.25098039 0.27450980 0.65882353
v -0.13084745 -0.09657614 -16.29420662 0.25098039 0.27450980 0.65882353
v -0.11767025 -0.08190005 -16.26298523 0.25098039 0.27450980 0.65882353
v -0.08911744 -0.05004515 -16.23455620 0.25098039 0.27450980 0.65882353
v -0.08034399 -0.06065722 -16.22945213 0.25098039 0.27450980 0.65882353
v -0.13492283 -0.09588115 -16.21072006 0.25098039 0.27450980 0.65882353
v -0.15567967 -0.11632976 -16.23973274 0.25098039 0.27450980 0.65882353
v -0.16117488 -0.10546330 -16.22810555 0.25098039 0.27450980 0.65882353
v -0.15931751 -0.11240971 -16.22120476 0.25098039 0.27450980 0.65882353
v -0.15770562 -0.10941112 -16.21347046 0.25098039 0.27450980 0.65882353
v -0.15179767 -0.10737629 -16.20893478 0.25098039 0.27450980 0.65882353
v -0.12761989 -0.10725295 -16.16077614 0.25098039 0.27450980 0.65882353
v -0.12510608 -0.10219071 -16.15802574 0.25098039 0.27450980 0.65882353
v -0.11978959 -0.09885462 -16.15814400 0.25098039 0.27450980 0.65882353
v -0.11675558 -0.09704679 -16.16127014 0.25098039 0.27450980 0.65882353
v -0.11598682 -0.09720398 -16.16561508 0.25098039 0.27450980 0.65882353
v -0.12702765 -0.11025020 -16.16420174 0.25098039 0.27450980 0.65882353
v -0.12535012 -0.11078227 -16.16786385 0.25098039 0.27450980 0.65882353
v -0.12303898 -0.10770839 -16.17272568 0.25098039 0.27450980 0.65882353
v -0.12308989 -0.11307611 -16.16462326 0.25098039 0.27450980 0.65882353
v -0.12101870 -0.11242969 -16.15974236 0.25098039 0.27450980 0.65882353
v -0.10831667 -0.10678104 -16.15869331 0.25098039 0.27450980 0.65882353
v -0.11361239 -0.10464472 -16.15730286 0.25098039 0.27450980 0.65882353
v -0.11303303 -0.10717598 -16.15697861 0.25098039 0.27450980 0.65882353
v -0.10888010 -0.10978615 -16.15773010 0.25098039 0.27450980 0.65882353
v -0.10544957 -0.11355215 -16.15792465 0.25098039 0.27450980 0.65882353
v -0.10427856 -0.11051555 -16.15910912 0.25098039 0.27450980 0.65882353
v -0.11740636 -0.10875236 -16.15732193 0.25098039 0.27450980 0.65882353
v -0.11228094 -0.11287455 -16.15804291 0.25098039 0.27450980 0.65882353
v -0.11462265 -0.11572526 -16.16009521 0.25098039 0.27450980 0.65882353
v -0.11026885 -0.11913621 -16.15980721 0.25098039 0.27450980 0.65882353
v -0.10804261 -0.11672458 -16.15794373 0.25098039 0.27450980 0.65882353
v -0.11802119 -0.11279019 -16.15917778 0.25098039 0.27450980 0.65882353
v -0.11941758 -0.10743529 -16.15678787 0.25098039 0.27450980 0.65882353
v -0.10263649 -0.11467674 -16.15958405 0.25098039 0.27450980 0.65882353
v -0.10393246 -0.11601399 -16.15799713 0.25098039 0.27450980 0.65882353
v -0.10566387 -0.11870609 -16.15848923 0.25098039 0.27450980 0.65882353
v -0.10359721 -0.11944513 -16.16037941 0.25098039 0.27450980 0.65882353
v -0.11338800 -0.10017384 -16.16102219 0.25098039 0.27450980 0.65882353
v -0.10726574 -0.10558051 -16.16079330 0.25098039 0.27450980 0.65882353
v -0.10385810 -0.11014382 -16.16220474 0.25098039 0.27450980 0.65882353
v -0.10238520 -0.11433619 -16.16237831 0.25098039 0.27450980 0.65882353
v -0.10676982 -0.10681944 -16.16471291 0.25098039 0.27450980 0.65882353
v -0.10447934 -0.11065750 -16.16508484 0.25098039 0.27450980 0.65882353
v -0.10352834 -0.11439630 -16.16545296 0.25098039 0.27450980 0.65882353
v -0.10756396 -0.10893013 -16.16846275 0.25098039 0.27450980 0.65882353
v -0.10556966 -0.11218154 -16.16772079 0.25098039 0.27450980 0.65882353
v -0.11499549 -0.10111193 -16.16897964 0.25098039 0.27450980 0.65882353
v -0.11414640 -0.09871587 -16.16548729 0.25098039 0.27450980 0.65882353
v -0.10438515 -0.11429808 -16.16745567 0.25098039 0.27450980 0.65882353
v -0.10357103 -0.11944185 -16.16253853 0.25098039 0.27450980 0.65882353
v -0.11719209 -0.11638800 -16.16267395 0.25098039 0.27450980 0.65882353
v -0.11110465 -0.11981361 -16.16291428 0.25098039 0.27450980 0.65882353
v -0.11744027 -0.11674552 -16.16506386 0.25098039 0.27450980 0.65882353
v -0.11164930 -0.12037440 -16.16514969 0.25098039 0.27450980 0.65882353
v -0.10734317 -0.12187596 -16.16197968 0.25098039 0.27450980 0.65882353
v -0.10764001 -0.12041073 -16.15998650 0.25098039 0.27450980 0.65882353
v -0.11728962 -0.09961521 -16.17013359 0.25098039 0.27450980 0.65882353
v -0.12037694 -0.10407878 -16.17300415 0.25098039 0.27450980 0.65882353
v -0.11846615 -0.10541672 -16.17224121 0.25098039 0.27450980 0.65882353
v -0.11033254 -0.11197849 -16.17101860 0.25098039 0.27450980 0.65882353
v -0.12066279 -0.10919696 -16.17217445 0.25098039 0.27450980 0.65882353
v -0.12162415 -0.11318272 -16.16819000 0.25098039 0.27450980 0.65882353
v -0.11607639 -0.11692509 -16.16769791 0.25098039 0.27450980 0.65882353
v -0.11401722 -0.11553600 -16.17020988 0.25098039 0.27450980 0.65882353
v -0.11134949 -0.11937966 -16.16744041 0.25098039 0.27450980 0.65882353
v -0.11018110 -0.11760328 -16.16888046 0.25098039 0.27450980 0.65882353
v -0.10752288 -0.11480188 -16.16941071 0.25098039 0.27450980 0.65882353
v -0.10746767 -0.11995680 -16.16663551 0.25098039 0.27450980 0.65882353
v -0.10745291 -0.12141102 -16.16407585 0.25098039 0.27450980 0.65882353
v -0.10442745 -0.11815022 -16.16553879 0.25098039 0.27450980 0.65882353
v -0.10776164 -0.11865541 -16.16801834 0.25098039 0.27450980 0.65882353
v -0.10565297 -0.11663149 -16.16731071 0.25098039 0.27450980 0.65882353
v -0.13017498 -0.11091518 -16.18367195 0.25098039 0.27450980 0.65882353
v -0.13168307 -0.11624016 -16.18774223 0.25098039 0.27450980 0.65882353
v -0.13474947 -0.11352281 -16.18799591 0.25098039 0.27450980 0.65882353
v -0.13316920 -0.10911791 -16.18465614 0.25098039 0.27450980 0.65882353
v -0.13877878 -0.11149687 -16.17213821 0.25098039 0.27450980 0.65882353
v -0.13385856 -0.10923089 -16.17536926 0.25098039 0.27450980 0.65882353
v -0.13802996 -0.10605476 -16.17613029 0.25098039 0.27450980 0.65882353
v -0.14405569 -0.10864848 -16.17423630 0.25098039 0.27450980 0.65882353
v -0.14391549 -0.11654151 -16.17376137 0.25098039 0.27450980 0.65882353
v -0.14898950 -0.11347277 -16.17628098 0.25098039 0.27450980 0.65882353
v -0.14687815 -0.10404256 -16.17737007 0.25098039 0.27450980 0.65882353
v -0.14017048 -0.10212012 -16.17936516 0.25098039 0.27450980 0.65882353
v -0.14284185 -0.08901489 -16.19534302 0.25098039 0.27450980 0.65882353
v -0.14994581 -0.08982878 -16.19415665 0.25098039 0.27450980 0.65882353
v -0.13971558 -0.10438055 -16.20777130 0.25098039 0.27450980 0.65882353
v -0.14388029 -0.10652514 -16.20699120 0.25098039 0.27450980 0.65882353
v -0.13105810 -0.10923985 -16.17993546 0.25098039 0.27450980 0.65882353
v -0.13454416 -0.10673524 -16.18051147 0.25098039 0.27450980 0.65882353
v -0.14176658 -0.11829830 -16.19331169 0.25098039 0.27450980 0.65882353
v -0.13670409 -0.11547668 -16.19323158 0.25098039 0.27450980 0.65882353
v -0.13659050 -0.11755256 -16.19054413 0.25098039 0.27450980 0.65882353
v -0.14116749 -0.12089463 -16.18971252 0.25098039 0.27450980 0.65882353
v -0.13593741 -0.09334952 -16.20138550 0.25098039 0.27450980 0.65882353
v -0.13754594 -0.09887975 -16.20533180 0.25098039 0.27450980 0.65882353
v -0.13823360 -0.09078164 -16.19814682 0.25098039 0.27450980 0.65882353
v -0.14810632 -0.11898331 -16.19051743 0.25098039 0.27450980 0.65882353
v -0.15259954 -0.11630439 -16.18577003 0.25098039 0.27450980 0.65882353
v -0.15705183 -0.10284816 -16.20062447 0.25098039 0.27450980 0.65882353
v -0.15266594 -0.10724418 -16.20398521 0.25098039 0.27450980 0.65882353
v -0.13555822 -0.10315651 -16.18267441 0.25098039 0.27450980 0.65882353
v -0.13339077 -0.11105704 -16.19026566 0.25098039 0.27450980 0.65882353
v -0.13259506 -0.10629826 -16.18674850 0.25098039 0.27450980 0.65882353
v -0.15180415 -0.10922463 -16.18066788 0.25098039 0.27450980 0.65882353
v -0.14885163 -0.12008532 -16.18123817 0.25098039 0.27450980 0.65882353
v -0.13218491 -0.13213307 -16.17968941 0.25098039 0.27450980 0.65882353
v -0.14145458 -0.12578905 -16.18376923 0.25098039 0.27450980 0.65882353
v -0.13784829 -0.12434623 -16.18767357 0.25098039 0.27450980 0.65882353
v -0.12918228 -0.13158241 -16.18414879 0.25098039 0.27450980 0.65882353
v -0.14547944 -0.12219541 -16.18629265 0.25098039 0.27450980 0.65882353
v -0.14387827 -0.12318995 -16.17869568 0.25098039 0.27450980 0.65882353
v -0.11994466 -0.11996325 -16.18205643 0.25098039 0.27450980 0.65882353
v -0.12209293 -0.12502679 -16.18603516 0.25098039 0.27450980 0.65882353
v -0.11995761 -0.11783098 -16.17754936 0.25098039 0.27450980 0.65882353
v -0.15565962 -0.09490979 -16.19665909 0.25098039 0.27450980 0.65882353
v -0.12741753 -0.11923195 -16.16956139 0.25098039 0.27450980 0.65882353
v -0.12218656 -0.11715624 -16.17355537 0.25098039 0.27450980 0.65882353
v -0.13436866 -0.12072565 -16.18980408 0.25098039 0.27450980 0.65882353
v -0.12529625 -0.12919360 -16.18666267 0.25098039 0.27450980 0.65882353
v -0.13345674 -0.13030469 -16.17539024 0.25098039 0.27450980 0.65882353
v -0.13299026 -0.12384640 -16.17054367 0.25098039 0.27450980 0.65882353
v -0.12830099 -0.13308993 -16.17437935 0.25098039 0.27450980 0.65882353
v -0.12672159 -0.12784746 -16.16992569 0.25098039 0.27450980 0.65882353
v -0.12175506 -0.12275845 -16.16932678 0.25098039 0.27450980 0.65882353
v -0.11840919 -0.11993126 -16.17363930 0.25098039 0.27450980 0.65882353
v -0.11769557 -0.11989248 -16.17771721 0.25098039 0.27450980 0.65882353
v -0.12735079 -0.13456339 -16.17870903 0.25098039 0.27450980 0.65882353
v -0.12530279 -0.13365218 -16.18312454 0.25098039 0.27450980 0.65882353
v -0.12314406 -0.12981561 -16.18588829 0.25098039 0.27450980 0.65882353
v -0.12113553 -0.13673607 -16.18068314 0.25098039 0.27450980 0.65882353
v -0.12032662 -0.13653240 -16.17602158 0.25098039 0.27450980 0.65882353
v -0.10287971 -0.12947702 -16.17594528 0.25098039 0.27450980 0.65882353
v -0.10798419 -0.12749803 -16.17366409 0.25098039 0.27450980 0.65882353
v -0.10864215 -0.13012338 -16.17323303 0.25098039 0.27450980 0.65882353
v -0.10393366 -0.13204388 -16.17515755 0.25098039 0.27450980 0.65882353
v -0.11355754 -0.12726507 -16.17066956 0.25098039 0.27450980 0.65882353
v -0.11289226 -0.12965003 -16.17143059 0.25098039 0.27450980 0.65882353
v -0.11627921 -0.13298279 -16.17232513 0.25098039 0.27450980 0.65882353
v -0.11087735 -0.13442126 -16.17470169 0.25098039 0.27450980 0.65882353
v -0.11356834 -0.13740206 -16.17765999 0.25098039 0.27450980 0.65882353
v -0.10857432 -0.13957992 -16.17888832 0.25098039 0.27450980 0.65882353
v -0.10570702 -0.13678765 -16.17599297 0.25098039 0.27450980 0.65882353
v -0.11680710 -0.13593973 -16.17508888 0.25098039 0.27450980 0.65882353
v -0.10139348 -0.13409755 -16.17658615 0.25098039 0.27450980 0.65882353
v -0.09983861 -0.13344070 -16.17848015 0.25098039 0.27450980 0.65882353
v -0.11892404 -0.13210386 -16.17064476 0.25098039 0.27450980 0.65882353
v -0.11493678 -0.12198684 -16.17338943 0.25098039 0.27450980 0.65882353
v -0.10720551 -0.12535539 -16.17600822 0.25098039 0.27450980 0.65882353
v -0.10224491 -0.12828709 -16.17901230 0.25098039 0.27450980 0.65882353
v -0.09984179 -0.13343534 -16.18151855 0.25098039 0.27450980 0.65882353
v -0.10712557 -0.12507842 -16.18046379 0.25098039 0.27450980 0.65882353
v -0.10271832 -0.12851143 -16.18228531 0.25098039 0.27450980 0.65882353
v -0.10117503 -0.13306026 -16.18386650 0.25098039 0.27450980 0.65882353
v -0.10821687 -0.12634854 -16.18518066 0.25098039 0.27450980 0.65882353
v -0.10410836 -0.13010845 -16.18605804 0.25098039 0.27450980 0.65882353
v -0.11701371 -0.12198916 -16.18255615 0.25098039 0.27450980 0.65882353
v -0.11539559 -0.12050873 -16.17809677 0.25098039 0.27450980 0.65882353
v -0.10277189 -0.13234684 -16.18556213 0.25098039 0.27450980 0.65882353
v -0.10068677 -0.13815579 -16.17929649 0.25098039 0.27450980 0.65882353
v -0.10050297 -0.13742191 -16.18257713 0.25098039 0.27450980 0.65882353
v -0.10197900 -0.13779166 -16.17798424 0.25098039 0.27450980 0.65882353
v -0.11457406 -0.13831279 -16.17944527 0.25098039 0.27450980 0.65882353
v -0.10873680 -0.13992161 -16.18115807 0.25098039 0.27450980 0.65882353
v -0.11498203 -0.13856348 -16.18234825 0.25098039 0.27450980 0.65882353
v -0.10839969 -0.14005731 -16.18357849 0.25098039 0.27450980 0.65882353
v -0.10418920 -0.14056040 -16.18138313 0.25098039 0.27450980 0.65882353
v -0.10412776 -0.14018014 -16.17978287 0.25098039 0.27450980 0.65882353
v -0.11873225 -0.12174473 -16.18176270 0.25098039 0.27450980 0.65882353
v -0.12104943 -0.12594214 -16.18529129 0.25098039 0.27450980 0.65882353
v -0.11975750 -0.12588754 -16.18608665 0.25098039 0.27450980 0.65882353
v -0.11086142 -0.13031015 -16.18800354 0.25098039 0.27450980 0.65882353
v -0.12185360 -0.13035788 -16.18656158 0.25098039 0.27450980 0.65882353
v -0.12137158 -0.13505407 -16.18404388 0.25098039 0.27450980 0.65882353
v -0.11507039 -0.13748160 -16.18513298 0.25098039 0.27450980 0.65882353
v -0.11331011 -0.13464241 -16.18775940 0.25098039 0.27450980 0.65882353
v -0.10878289 -0.13981673 -16.18579674 0.25098039 0.27450980 0.65882353
v -0.10930614 -0.13701749 -16.18750763 0.25098039 0.27450980 0.65882353
v -0.10656711 -0.13287899 -16.18804932 0.25098039 0.27450980 0.65882353
v -0.10422760 -0.13988310 -16.18542671 0.25098039 0.27450980 0.65882353
v -0.10391720 -0.14055508 -16.18313026 0.25098039 0.27450980 0.65882353
v -0.10141984 -0.13652956 -16.18439293 0.25098039 0.27450980 0.65882353
v -0.10557240 -0.13782477 -16.18704987 0.25098039 0.27450980 0.65882353
v -0.10334635 -0.13491747 -16.18644142 0.25098039 0.27450980 0.65882353
v -0.13289964 -0.12491982 -16.20091057 0.25098039 0.27450980 0.65882353
v -0.13156359 -0.12726301 -16.20651817 0.25098039 0.27450980 0.65882353
v -0.13372213 -0.12551400 -16.20763969 0.25098039 0.27450980 0.65882353
v -0.13518773 -0.12308602 -16.20217514 0.25098039 0.27450980 0.65882353
v -0.14259779 -0.13217041 -16.19616699 0.25098039 0.27450980 0.65882353
v -0.13902965 -0.12882420 -16.19506264 0.25098039 0.27450980 0.65882353
v -0.14228359 -0.12611824 -16.19664383 0.25098039 0.27450980 0.65882353
v -0.14692244 -0.12864740 -16.19807625 0.25098039 0.27450980 0.65882353
v -0.14286610 -0.13684353 -16.19964027 0.25098039 0.27450980 0.65882353
v -0.14890635 -0.13276774 -16.20250130 0.25098039 0.27450980 0.65882353
v -0.15100023 -0.12468655 -16.20017624 0.25098039 0.27450980 0.65882353
v -0.14512056 -0.12277599 -16.19839096 0.25098039 0.27450980 0.65882353
v -0.15036333 -0.11111702 -16.20694542 0.25098039 0.27450980 0.65882353
v -0.15640278 -0.11445393 -16.20881653 0.25098039 0.27450980 0.65882353
v -0.13573393 -0.12615581 -16.19729042 0.25098039 0.27450980 0.65882353
v -0.13816880 -0.12390361 -16.19854546 0.25098039 0.27450980 0.65882353
v -0.13678002 -0.13061008 -16.21596336 0.25098039 0.27450980 0.65882353
v -0.13401073 -0.12697807 -16.21347427 0.25098039 0.27450980 0.65882353
v -0.13418306 -0.12951788 -16.21190643 0.25098039 0.27450980 0.65882353
v -0.13656503 -0.13282874 -16.21361542 0.25098039 0.27450980 0.65882353
v -0.14043009 -0.10888074 -16.21328163 0.25098039 0.27450980 0.65882353
v -0.14024059 -0.11204317 -16.21928024 0.25098039 0.27450980 0.65882353
v -0.14406568 -0.10935980 -16.20880699 0.25098039 0.27450980 0.65882353
v -0.14309575 -0.13355982 -16.21537399 0.25098039 0.27450980 0.65882353
v -0.15016149 -0.13295628 -16.21181297 0.25098039 0.27450980 0.65882353
v -0.15395308 -0.12304199 -16.22205544 0.25098039 0.27450980 0.65882353
v -0.14778477 -0.12231454 -16.22491264 0.25098039 0.27450980 0.65882353
v -0.14003633 -0.12120800 -16.19967270 0.25098039 0.27450980 0.65882353
v -0.13353622 -0.12275599 -16.20899391 0.25098039 0.27450980 0.65882353
v -0.13541481 -0.12050193 -16.20329475 0.25098039 0.27450980 0.65882353
v -0.15266693 -0.12846366 -16.20545387 0.25098039 0.27450980 0.65882353
v -0.14599669 -0.13629860 -16.20831108 0.25098039 0.27450980 0.65882353
v -0.12727994 -0.14740154 -16.20400620 0.25098039 0.27450980 0.65882353
v -0.13877504 -0.13878122 -16.21079445 0.25098039 0.27450980 0.65882353
v -0.13432486 -0.13477345 -16.21243095 0.25098039 0.27450980 0.65882353
v -0.12431200 -0.14477149 -16.20642853 0.25098039 0.27450980 0.65882353
v -0.14099512 -0.13638505 -16.21267700 0.25098039 0.27450980 0.65882353
v -0.14221567 -0.13941693 -16.20591354 0.25098039 0.27450980 0.65882353
v -0.12092247 -0.13341983 -16.19714546 0.25098039 0.27450980 0.65882353
v -0.12067717 -0.13583027 -16.20262718 0.25098039 0.27450980 0.65882353
v -0.12391417 -0.13372676 -16.19363785 0.25098039 0.27450980 0.65882353
v -0.15848406 -0.11919294 -16.21492386 0.25098039 0.27450980 0.65882353
v -0.14183247 -0.11841375 -16.22481346 0.25098039 0.27450980 0.65882353
v -0.12859398 -0.13941254 -16.19058228 0.25098039 0.27450980 0.65882353
v -0.12598564 -0.13565484 -16.19137192 0.25098039 0.27450980 0.65882353
v -0.13229690 -0.13103861 -16.21079445 0.25098039 0.27450980 0.65882353
v -0.12182304 -0.14054640 -16.20637894 0.25098039 0.27450980 0.65882353
v -0.13032168 -0.14730735 -16.19985771 0.25098039 0.27450980 0.65882353
v -0.13164803 -0.14381598 -16.19411659 0.25098039 0.27450980 0.65882353
v -0.12474315 -0.14961360 -16.19904900 0.25098039 0.27450980 0.65882353
v -0.12555566 -0.14662907 -16.19326973 0.25098039 0.27450980 0.65882353
v -0.12289334 -0.14231351 -16.18990135 0.25098039 0.27450980 0.65882353
v -0.12104549 -0.13814417 -16.19086838 0.25098039 0.27450980 0.65882353
v -0.11962005 -0.13586974 -16.19315720 0.25098039 0.27450980 0.65882353
v -0.12228141 -0.14886211 -16.20346260 0.25098039 0.27450980 0.65882353
v -0.12047164 -0.14585108 -16.20553398 0.25098039 0.27450980 0.65882353
v -0.12064098 -0.14101803 -16.20531654 0.25098039 0.27450980 0.65882353
v -0.11805828 -0.14912541 -16.20418739 0.25098039 0.27450980 0.65882353
v -0.11774702 -0.15112244 -16.19881058 0.25098039 0.27450980 0.65882353
v -0.10373133 -0.14513913 -16.19202423 0.25098039 0.27450980 0.65882353
v -0.10926726 -0.14403380 -16.19141579 0.25098039 0.27450980 0.65882353
v -0.10947920 -0.14525926 -16.19186974 0.25098039 0.27450980 0.65882353
v -0.10398994 -0.14682396 -16.19214058 0.25098039 0.27450980 0.65882353
v -0.11580300 -0.14494845 -16.19044685 0.25098039 0.27450980 0.65882353
v -0.11439960 -0.14613132 -16.19128418 0.25098039 0.27450980 0.65882353
v -0.11604814 -0.14891905 -16.19363022 0.25098039 0.27450980 0.65882353
v -0.10988386 -0.14982641 -16.19448280 0.25098039 0.27450980 0.65882353
v -0.11111476 -0.15085718 -16.20045853 0.25098039 0.27450980 0.65882353
v -0.10611606 -0.15103590 -16.20003891 0.25098039 0.27450980 0.65882353
v -0.10465434 -0.15065145 -16.19467926 0.25098039 0.27450980 0.65882353
v -0.11591788 -0.15068179 -16.19799232 0.25098039 0.27450980 0.65882353
v -0.10130372 -0.14804906 -16.19312859 0.25098039 0.27450980 0.65882353
v -0.09996797 -0.14698359 -16.19212151 0.25098039 0.27450980 0.65882353
v -0.11844139 -0.14884344 -16.19313622 0.25098039 0.27450980 0.65882353
v -0.11587012 -0.13988045 -16.19009018 0.25098039 0.27450980 0.65882353
v -0.10858114 -0.14108995 -16.19130135 0.25098039 0.27450980 0.65882353
v -0.10285757 -0.14190769 -16.19195175 0.25098039 0.27450980 0.65882353
v -0.09955719 -0.14387980 -16.19406128 0.25098039 0.27450980 0.65882353
v -0.10807810 -0.13851026 -16.19414902 0.25098039 0.27450980 0.65882353
v -0.10314015 -0.14014924 -16.19459152 0.25098039 0.27450980 0.65882353
v -0.10003857 -0.14199059 -16.19630432 0.25098039 0.27450980 0.65882353
v -0.10797352 -0.13761961 -16.19752121 0.25098039 0.27450980 0.65882353
v -0.10369033 -0.13948849 -16.19785881 0.25098039 0.27450980 0.65882353
v -0.11700544 -0.13560413 -16.19681168 0.25098039 0.27450980 0.65882353
v -0.11633536 -0.13685471 -16.19284248 0.25098039 0.27450980 0.65882353
v -0.10122928 -0.14128584 -16.19820595 0.25098039 0.27450980 0.65882353
v -0.09959024 -0.15020953 -16.19569778 0.25098039 0.27450980 0.65882353
v -0.09860082 -0.14719936 -16.19854164 0.25098039 0.27450980 0.65882353
v -0.10134751 -0.15009736 -16.19542885 0.25098039 0.27450980 0.65882353
v -0.11183764 -0.15080044 -16.20232201 0.25098039 0.27450980 0.65882353
v -0.10540259 -0.15126115 -16.20235252 0.25098039 0.27450980 0.65882353
v -0.11176273 -0.14915380 -16.20483971 0.25098039 0.27450980 0.65882353
v -0.10538821 -0.14967686 -16.20455933 0.25098039 0.27450980 0.65882353
v -0.10175958 -0.15143809 -16.20026398 0.25098039 0.27450980 0.65882353
v -0.10241998 -0.15132362 -16.19928932 0.25098039 0.27450980 0.65882353
v -0.11933830 -0.13530116 -16.19718361 0.25098039 0.27450980 0.65882353
v -0.11963452 -0.13712201 -16.20217896 0.25098039 0.27450980 0.65882353
v -0.11773250 -0.13690813 -16.20171738 0.25098039 0.27450980 0.65882353
v -0.10813588 -0.13865107 -16.20238495 0.25098039 0.27450980 0.65882353
v -0.11866646 -0.14041913 -16.20519257 0.25098039 0.27450980 0.65882353
v -0.11659904 -0.14587501 -16.20588303 0.25098039 0.27450980 0.65882353
v -0.11079621 -0.14599359 -16.20592308 0.25098039 0.27450980 0.65882353
v -0.10913272 -0.14234175 -16.20534706 0.25098039 0.27450980 0.65882353
v -0.10522723 -0.14695415 -16.20548058 0.25098039 0.27450980 0.65882353
v -0.10558322 -0.14416406 -16.20476151 0.25098039 0.27450980 0.65882353
v -0.10393365 -0.14023276 -16.20203400 0.25098039 0.27450980 0.65882353
v -0.10183656 -0.14687037 -16.20306587 0.25098039 0.27450980 0.65882353
v -0.10135779 -0.14961369 -16.20223045 0.25098039 0.27450980 0.65882353
v -0.09944012 -0.14450723 -16.19997978 0.25098039 0.27450980 0.65882353
v -0.10249248 -0.14449185 -16.20336151 0.25098039 0.27450980 0.65882353
v -0.10078733 -0.14260787 -16.20096207 0.25098039 0.27450980 0.65882353
v -0.14036733 -0.11522920 -16.22299194 0.25098039 0.27450980 0.65882353
v -0.12697852 -0.13185635 -16.22847366 0.25098039 0.27450980 0.65882353
v -0.12552276 -0.13307476 -16.23228645 0.25098039 0.27450980 0.65882353
v -0.12820315 -0.13227232 -16.23435211 0.25098039 0.27450980 0.65882353
v -0.12962875 -0.12984043 -16.23094940 0.25098039 0.27450980 0.65882353
v -0.13546589 -0.13848247 -16.22563171 0.25098039 0.27450980 0.65882353
v -0.13253224 -0.13521028 -16.22453880 0.25098039 0.27450980 0.65882353
v -0.13603801 -0.13259900 -16.22646332 0.25098039 0.27450980 0.65882353
v -0.13887373 -0.13560992 -16.22748947 0.25098039 0.27450980 0.65882353
v -0.13584647 -0.14196925 -16.22899628 0.25098039 0.27450980 0.65882353
v -0.13927054 -0.13928165 -16.23105431 0.25098039 0.27450980 0.65882353
v -0.14201258 -0.13336122 -16.22847366 0.25098039 0.27450980 0.65882353
v -0.13861643 -0.13015902 -16.22756004 0.25098039 0.27450980 0.65882353
v -0.14583716 -0.12004541 -16.23344994 0.25098039 0.27450980 0.65882353
v -0.15050839 -0.12260531 -16.23609734 0.25098039 0.27450980 0.65882353
v -0.14102969 -0.12782359 -16.25329018 0.25098039 0.27450980 0.65882353
v -0.13723797 -0.12333580 -16.25194168 0.25098039 0.27450980 0.65882353
v -0.13451588 -0.12861639 -16.24752617 0.25098039 0.27450980 0.65882353
v -0.13841507 -0.13158464 -16.24971199 0.25098039 0.27450980 0.65882353
v -0.12953523 -0.13286977 -16.22577477 0.25098039 0.27450980 0.65882353
v -0.13220051 -0.12993582 -16.22770500 0.25098039 0.27450980 0.65882353
v -0.13242404 -0.13768816 -16.24279976 0.25098039 0.27450980 0.65882353
v -0.12967753 -0.13427275 -16.24047279 0.25098039 0.27450980 0.65882353
v -0.12806424 -0.13473204 -16.23810196 0.25098039 0.27450980 0.65882353
v -0.12953797 -0.13867198 -16.24061012 0.25098039 0.27450980 0.65882353
v -0.13549098 -0.12051906 -16.24678612 0.25098039 0.27450980 0.65882353
v -0.13643631 -0.11899415 -16.24132156 0.25098039 0.27450980 0.65882353
v -0.13441889 -0.12086621 -16.23982048 0.25098039 0.27450980 0.65882353
v -0.13286504 -0.12552196 -16.24301910 0.25098039 0.27450980 0.65882353
v -0.13801450 -0.11956647 -16.23519516 0.25098039 0.27450980 0.65882353
v -0.13596895 -0.13995436 -16.24208832 0.25098039 0.27450980 0.65882353
v -0.14041160 -0.14042279 -16.23815346 0.25098039 0.27450980 0.65882353
v -0.14926895 -0.13280605 -16.24734688 0.25098039 0.27450980 0.65882353
v -0.14423792 -0.13259368 -16.24991608 0.25098039 0.27450980 0.65882353
v -0.13425952 -0.12863100 -16.22810936 0.25098039 0.27450980 0.65882353
v -0.12908992 -0.13126434 -16.23640251 0.25098039 0.27450980 0.65882353
v -0.13036326 -0.12922707 -16.23202896 0.25098039 0.27450980 0.65882353
v -0.14320496 -0.13761024 -16.23235321 0.25098039 0.27450980 0.65882353
v -0.13679487 -0.14188269 -16.23618698 0.25098039 0.27450980 0.65882353
v -0.12257568 -0.14719965 -16.23401070 0.25098039 0.27450980 0.65882353
v -0.12981322 -0.14289872 -16.23857880 0.25098039 0.27450980 0.65882353
v -0.12629317 -0.13944823 -16.23874664 0.25098039 0.27450980 0.65882353
v -0.12048867 -0.14498571 -16.23410225 0.25098039 0.27450980 0.65882353
v -0.13306525 -0.14136198 -16.24001122 0.25098039 0.27450980 0.65882353
v -0.13344139 -0.14431396 -16.23433113 0.25098039 0.27450980 0.65882353
v -0.12019193 -0.13697320 -16.22444153 0.25098039 0.27450980 0.65882353
v -0.11904042 -0.13864218 -16.22944450 0.25098039 0.27450980 0.65882353
v -0.12237731 -0.13774733 -16.22209358 0.25098039 0.27450980 0.65882353
v -0.15254836 -0.12758619 -16.24113846 0.25098039 0.27450980 0.65882353
v -0.12743652 -0.14353420 -16.22165680 0.25098039 0.27450980 0.65882353
v -0.12464368 -0.14014104 -16.22059441 0.25098039 0.27450980 0.65882353
v -0.12517989 -0.13573587 -16.23579216 0.25098039 0.27450980 0.65882353
v -0.11926472 -0.14177766 -16.23266602 0.25098039 0.27450980 0.65882353
v -0.12564564 -0.14860545 -16.23132515 0.25098039 0.27450980 0.65882353
v -0.12856998 -0.14736186 -16.22583008 0.25098039 0.27450980 0.65882353
v -0.12182356 -0.15038741 -16.22915649 0.25098039 0.27450980 0.65882353
v -0.12509690 -0.14879385 -16.22386169 0.25098039 0.27450980 0.65882353
v -0.12361156 -0.14467472 -16.21970749 0.25098039 0.27450980 0.65882353
v -0.12198391 -0.14124292 -16.21961212 0.25098039 0.27450980 0.65882353
v -0.11997081 -0.13898288 -16.22082138 0.25098039 0.27450980 0.65882353
v -0.11898067 -0.14889956 -16.23192024 0.25098039 0.27450980 0.65882353
v -0.11725287 -0.14629483 -16.23230934 0.25098039 0.27450980 0.65882353
v -0.11663800 -0.14263955 -16.23139000 0.25098039 0.27450980 0.65882353
v -0.11538383 -0.15036952 -16.22976875 0.25098039 0.27450980 0.65882353
v -0.11705320 -0.15243477 -16.22574997 0.25098039 0.27450980 0.65882353
v -0.10982034 -0.14795926 -16.21529198 0.25098039 0.27450980 0.65882353
v -0.11345273 -0.14665407 -16.21642685 0.25098039 0.27450980 0.65882353
v -0.11381966 -0.14780295 -16.21669388 0.25098039 0.27450980 0.65882353
v -0.11028376 -0.14893317 -16.21488953 0.25098039 0.27450980 0.65882353
v -0.11851522 -0.14665674 -16.21811104 0.25098039 0.27450980 0.65882353
v -0.11764580 -0.14803067 -16.21838951 0.25098039 0.27450980 0.65882353
v -0.11867110 -0.15010861 -16.22110748 0.25098039 0.27450980 0.65882353
v -0.11422754 -0.15154698 -16.21874809 0.25098039 0.27450980 0.65882353
v -0.11200088 -0.15357745 -16.22330093 0.25098039 0.27450980 0.65882353
v -0.10861933 -0.15441872 -16.22105408 0.25098039 0.27450980 0.65882353
v -0.11098982 -0.15275170 -16.21714592 0.25098039 0.27450980 0.65882353
v -0.11646001 -0.15260231 -16.22371864 0.25098039 0.27450980 0.65882353
v -0.10830429 -0.15067267 -16.21423531 0.25098039 0.27450980 0.65882353
v -0.10721230 -0.15023100 -16.21375656 0.25098039 0.27450980 0.65882353
v -0.12027736 -0.14995998 -16.22155952 0.25098039 0.27450980 0.65882353
v -0.11822776 -0.14243472 -16.21819305 0.25098039 0.27450980 0.65882353
v -0.11208144 -0.14461885 -16.21615410 0.25098039 0.27450980 0.65882353
v -0.10792551 -0.14687923 -16.21485710 0.25098039 0.27450980 0.65882353
v -0.10540992 -0.14944643 -16.21483612 0.25098039 0.27450980 0.65882353
v -0.11147936 -0.14254068 -16.21771431 0.25098039 0.27450980 0.65882353
v -0.10662200 -0.14527908 -16.21602440 0.25098039 0.27450980 0.65882353
v -0.10420983 -0.14790004 -16.21624565 0.25098039 0.27450980 0.65882353
v -0.11021452 -0.14118697 -16.22057533 0.25098039 0.27450980 0.65882353
v -0.10606229 -0.14447255 -16.21845436 0.25098039 0.27450980 0.65882353
v -0.11580104 -0.13857993 -16.22333717 0.25098039 0.27450980 0.65882353
v -0.11702657 -0.13990875 -16.22012138 0.25098039 0.27450980 0.65882353
v -0.10447262 -0.14702609 -16.21778488 0.25098039 0.27450980 0.65882353
v -0.10634837 -0.15342559 -16.21564674 0.25098039 0.27450980 0.65882353
v -0.10426481 -0.15171033 -16.21682739 0.25098039 0.27450980 0.65882353
v -0.10767251 -0.15379068 -16.21585464 0.25098039 0.27450980 0.65882353
v -0.11151227 -0.15349421 -16.22474861 0.25098039 0.27450980 0.65882353
v -0.10738313 -0.15439302 -16.22206116 0.25098039 0.27450980 0.65882353
v -0.11029775 -0.15212889 -16.22669983 0.25098039 0.27450980 0.65882353
v -0.10594867 -0.15297981 -16.22305679 0.25098039 0.27450980 0.65882353
v -0.10563372 -0.15455593 -16.21902275 0.25098039 0.27450980 0.65882353
v -0.10731129 -0.15455827 -16.21855164 0.25098039 0.27450980 0.65882353
v -0.11758646 -0.13795394 -16.22393799 0.25098039 0.27450980 0.65882353
v -0.11692113 -0.13942200 -16.22820663 0.25098039 0.27450980 0.65882353
v -0.11485276 -0.14021435 -16.22741318 0.25098039 0.27450980 0.65882353
v -0.10915879 -0.14225981 -16.22431946 0.25098039 0.27450980 0.65882353
v -0.11442640 -0.14351609 -16.23039818 0.25098039 0.27450980 0.65882353
v -0.11470934 -0.14742082 -16.23089409 0.25098039 0.27450980 0.65882353
v -0.10927302 -0.14947000 -16.22736359 0.25098039 0.27450980 0.65882353
v -0.10856002 -0.14598607 -16.22686958 0.25098039 0.27450980 0.65882353
v -0.10491204 -0.15097712 -16.22330856 0.25098039 0.27450980 0.65882353
v -0.10474031 -0.14787537 -16.22320938 0.25098039 0.27450980 0.65882353
v -0.10513113 -0.14518493 -16.22145271 0.25098039 0.27450980 0.65882353
v -0.10357872 -0.15104763 -16.21990585 0.25098039 0.27450980 0.65882353
v -0.10401849 -0.15286659 -16.21946716 0.25098039 0.27450980 0.65882353
v -0.10360919 -0.14999893 -16.21796227 0.25098039 0.27450980 0.65882353
v -0.10356138 -0.14911857 -16.22039223 0.25098039 0.27450980 0.65882353
v -0.10381674 -0.14802241 -16.21926689 0.25098039 0.27450980 0.65882353
v -0.14448586 -0.12969241 -16.25174522 0.25098039 0.27450980 0.65882353
v -0.07780609 -0.07250370 -16.21966553 0.25098039 0.27450980 0.65882353
v -0.08219391 -0.07671491 -16.21979713 0.25098039 0.27450980 0.65882353
v -0.07684767 -0.08871484 -16.23239708 0.25098039 0.27450980 0.65882353
v -0.08183715 -0.08763693 -16.22628975 0.25098039 0.27450980 0.65882353
v -0.07091054 -0.08620934 -16.23563576 0.25098039 0.27450980 0.65882353
v -0.06579572 -0.07590486 -16.23291969 0.25098039 0.27450980 0.65882353
v -0.06763421 -0.08101600 -16.23616982 0.25098039 0.27450980 0.65882353
v -0.08376890 -0.08312820 -16.22182083 0.25098039 0.27450980 0.65882353
v -0.07253708 -0.06990107 -16.22225571 0.25098039 0.27450980 0.65882353
v -0.06736971 -0.07085820 -16.22783279 0.25098039 0.27450980 0.65882353
v -0.06930359 -0.07416642 -16.21603394 0.25098039 0.27450980 0.65882353
v -0.06341654 -0.07566451 -16.22162437 0.25098039 0.27450980 0.65882353
v -0.06097740 -0.08077297 -16.22642899 0.25098039 0.27450980 0.65882353
v -0.06395435 -0.08606358 -16.23066139 0.25098039 0.27450980 0.65882353
v -0.06743202 -0.08982340 -16.23153877 0.25098039 0.27450980 0.65882353
v -0.07587913 -0.07714922 -16.21511459 0.25098039 0.27450980 0.65882353
v -0.08012873 -0.08141837 -16.21594620 0.25098039 0.27450980 0.65882353
v -0.08171764 -0.08709447 -16.21993828 0.25098039 0.27450980 0.65882353
v -0.07466076 -0.08389263 -16.21075630 0.25098039 0.27450980 0.65882353
v -0.06667222 -0.08912953 -16.20730591 0.25098039 0.27450980 0.65882353
v -0.05487782 -0.10319135 -16.21104431 0.25098039 0.27450980 0.65882353
v -0.05687118 -0.09903754 -16.21577072 0.25098039 0.27450980 0.65882353
v -0.05674422 -0.09763359 -16.21316147 0.25098039 0.27450980 0.65882353
v -0.05434030 -0.10128812 -16.20914841 0.25098039 0.27450980 0.65882353
v -0.05796845 -0.09384733 -16.21700478 0.25098039 0.27450980 0.65882353
v -0.05836377 -0.09426611 -16.21458054 0.25098039 0.27450980 0.65882353
v -0.06111100 -0.09119742 -16.21132469 0.25098039 0.27450980 0.65882353
v -0.05887316 -0.09448255 -16.20789337 0.25098039 0.27450980 0.65882353
v -0.06460419 -0.09108496 -16.20754242 0.25098039 0.27450980 0.65882353
v -0.06439187 -0.09377500 -16.20495796 0.25098039 0.27450980 0.65882353
v -0.05703074 -0.09786132 -16.20436287 0.25098039 0.27450980 0.65882353
v -0.05345064 -0.10220286 -16.20542717 0.25098039 0.27450980 0.65882353
v -0.05564593 -0.10113199 -16.20143127 0.25098039 0.27450980 0.65882353
v -0.05454890 -0.10512951 -16.20615959 0.25098039 0.27450980 0.65882353
v -0.06016612 -0.08900656 -16.21127129 0.25098039 0.27450980 0.65882353
v -0.06011535 -0.09294122 -16.22392464 0.25098039 0.27450980 0.65882353
v -0.05870186 -0.10019999 -16.21896935 0.25098039 0.27450980 0.65882353
v -0.05740659 -0.10524666 -16.21310234 0.25098039 0.27450980 0.65882353
v -0.05695839 -0.10701822 -16.20715141 0.25098039 0.27450980 0.65882353
v -0.06259266 -0.10197237 -16.22044182 0.25098039 0.27450980 0.65882353
v -0.06163523 -0.10593072 -16.21424675 0.25098039 0.27450980 0.65882353
v -0.06170432 -0.10724069 -16.20859337 0.25098039 0.27450980 0.65882353
v -0.06746033 -0.10266012 -16.21957016 0.25098039 0.27450980 0.65882353
v -0.06557724 -0.10561971 -16.21347427 0.25098039 0.27450980 0.65882353
v -0.07185771 -0.09383286 -16.22751427 0.25098039 0.27450980 0.65882353
v -0.06527278 -0.09373768 -16.22808838 0.25098039 0.27450980 0.65882353
v -0.06428054 -0.10643255 -16.20946693 0.25098039 0.27450980 0.65882353
v -0.05643359 -0.10356158 -16.20055199 0.25098039 0.27450980 0.65882353
v -0.05934906 -0.10563860 -16.20164108 0.25098039 0.27450980 0.65882353
v -0.06795351 -0.09328751 -16.20416832 0.25098039 0.27450980 0.65882353
v -0.06237021 -0.09651272 -16.20113373 0.25098039 0.27450980 0.65882353
v -0.06557931 -0.09749739 -16.20088768 0.25098039 0.27450980 0.65882353
v -0.07193148 -0.09312360 -16.20509529 0.25098039 0.27450980 0.65882353
v -0.06823491 -0.09863913 -16.20130730 0.25098039 0.27450980 0.65882353
v -0.06155971 -0.10072337 -16.19898987 0.25098039 0.27450980 0.65882353
v -0.05949244 -0.09892511 -16.19998360 0.25098039 0.27450980 0.65882353
v -0.07357264 -0.09141321 -16.23003960 0.25098039 0.27450980 0.65882353
v -0.07903761 -0.09009188 -16.22572136 0.25098039 0.27450980 0.65882353
v -0.07734609 -0.09200236 -16.22336388 0.25098039 0.27450980 0.65882353
v -0.07300416 -0.10072908 -16.21619415 0.25098039 0.27450980 0.65882353
v -0.08003987 -0.09006649 -16.21772766 0.25098039 0.27450980 0.65882353
v -0.07831028 -0.08649369 -16.21283913 0.25098039 0.27450980 0.65882353
v -0.07468589 -0.09504098 -16.20705605 0.25098039 0.27450980 0.65882353
v -0.07554401 -0.09775785 -16.21118546 0.25098039 0.27450980 0.65882353
v -0.07023045 -0.10065223 -16.20373154 0.25098039 0.27450980 0.65882353
v -0.07059050 -0.10207009 -16.20654678 0.25098039 0.27450980 0.65882353
v -0.06879924 -0.10464866 -16.21053314 0.25098039 0.27450980 0.65882353
v -0.06631847 -0.10378821 -16.20253944 0.25098039 0.27450980 0.65882353
v -0.06426461 -0.10238968 -16.19989014 0.25098039 0.27450980 0.65882353
v -0.06320517 -0.10620451 -16.20425987 0.25098039 0.27450980 0.65882353
v -0.06758013 -0.10394864 -16.20507240 0.25098039 0.27450980 0.65882353
v -0.06571090 -0.10560597 -16.20688057 0.25098039 0.27450980 0.65882353
v -0.13825636 -0.12122010 -16.25499535 0.25098039 0.27450980 0.65882353
v -0.13563678 -0.11744700 -16.24973106 0.25098039 0.27450980 0.65882353
v -0.13558480 -0.11624120 -16.25503159 0.25098039 0.27450980 0.65882353
v -0.13188206 -0.11369339 -16.26162910 0.25098039 0.27450980 0.65882353
v -0.13259426 -0.11281056 -16.27191162 0.25098039 0.27450980 0.65882353
v -0.12994878 -0.10846633 -16.25714684 0.25098039 0.27450980 0.65882353
v -0.13415697 -0.11168191 -16.25035286 0.25098039 0.27450980 0.65882353
v -0.13515761 -0.11394221 -16.24205971 0.25098039 0.27450980 0.65882353
v -0.12557271 -0.09971556 -16.25927734 0.25098039 0.27450980 0.65882353
f 2 3 1
f 1 3 4
f 5 6 8
f 8 6 7
f 9 4 10
f 10 4 3
f 12 13 11
f 11 13 9
f 14 12 16
f 16 12 15
f 18 19 17
f 17 19 20
f 22 23 21
f 21 23 24
f 26 27 25
f 25 27 28
f 30 31 29
f 29 31 32
f 33 34 36
f 36 34 35
f 37 38 40
f 40 38 39
f 41 42 6
f 6 42 43
f 6 43 7
f 7 43 44
f 45 34 46
f 46 34 33
f 48 49 47
f 47 49 50
f 52 53 51
f 51 53 54
f 56 52 55
f 55 52 51
f 58 59 57
f 57 59 60
f 61 62 4
f 4 62 1
f 64 65 63
f 63 65 66
f 68 69 67
f 67 69 70
f 72 73 71
f 71 73 74
f 76 77 75
f 75 77 78
f 53 79 54
f 54 79 80
f 82 83 81
f 81 83 84
f 85 86 52
f 52 86 53
f 57 60 87
f 87 60 88
f 89 90 43
f 43 90 44
f 43 42 89
f 89 42 91
f 40 39 92
f 92 39 93
f 94 70 64
f 64 70 69
f 13 61 9
f 9 61 4
f 25 28 69
f 69 28 95
f 96 25 68
f 68 25 69
f 98 99 97
f 97 99 100
f 101 102 104
f 104 102 103
f 106 30 105
f 105 30 29
f 51 54 107
f 107 54 108
f 54 80 108
f 108 80 109
f 111 112 110
f 110 112 113
f 115 5 114
f 114 5 116
f 115 41 5
f 5 41 6
f 36 35 111
f 111 35 117
f 35 118 117
f 117 118 119
f 34 120 35
f 35 120 118
f 34 45 120
f 120 45 121
f 125 126 124
f 124 126 127
f 128 129 14
f 14 129 130
f 33 131 46
f 46 131 132
f 133 94 63
f 63 94 64
f 134 135 137
f 137 135 136
f 139 140 138
f 138 140 141
f 77 142 78
f 78 142 143
f 144 145 20
f 20 145 146
f 148 149 147
f 147 149 72
f 151 152 150
f 150 152 153
f 82 101 83
f 83 101 104
f 101 82 155
f 155 82 154
f 156 157 58
f 58 157 59
f 158 68 147
f 147 68 67
f 159 146 15
f 15 146 16
f 68 158 96
f 96 158 160
f 129 66 130
f 130 66 65
f 162 163 161
f 161 163 164
f 166 167 165
f 165 167 168
f 170 171 169
f 169 171 172
f 174 171 173
f 173 171 170
f 176 177 175
f 175 177 178
f 180 181 179
f 179 181 24
f 182 183 21
f 21 183 184
f 81 185 82
f 82 185 154
f 186 187 188
f 188 187 144
f 158 71 160
f 160 71 189
f 190 135 157
f 157 135 59
f 169 172 139
f 139 172 140
f 147 72 158
f 158 72 71
f 192 193 191
f 191 193 194
f 167 166 49
f 49 166 195
f 196 190 50
f 50 190 157
f 197 198 200
f 200 198 199
f 21 24 182
f 182 24 181
f 146 159 20
f 20 159 17
f 182 181 81
f 81 181 185
f 201 185 180
f 180 185 181
f 202 203 83
f 83 203 84
f 205 206 204
f 204 206 85
f 207 22 184
f 184 22 21
f 179 24 208
f 208 24 23
f 208 209 179
f 179 209 205
f 209 210 205
f 205 210 206
f 212 206 211
f 211 206 210
f 179 205 180
f 180 205 204
f 213 176 88
f 88 176 214
f 86 85 212
f 212 85 206
f 193 217 218
f 217 219 218
f 218 219 220
f 219 18 220
f 220 18 17
f 19 221 20
f 20 221 144
f 222 223 225
f 225 223 224
f 175 226 176
f 176 226 214
f 227 87 214
f 214 87 88
f 220 17 228
f 228 17 159
f 134 213 60
f 60 213 88
f 138 229 151
f 151 229 152
f 193 192 210
f 210 192 211
f 230 194 218
f 218 194 193
f 231 232 228
f 228 232 230
f 233 234 91
f 91 234 89
f 235 236 93
f 93 236 92
f 230 232 234
f 234 232 237
f 47 238 48
f 48 238 239
f 240 191 235
f 235 191 236
f 5 8 116
f 116 8 241
f 242 243 189
f 189 243 160
f 244 245 98
f 98 245 99
f 156 246 47
f 47 246 238
f 76 247 77
f 77 247 248
f 250 125 249
f 249 125 124
f 252 253 251
f 251 253 254
f 111 110 36
f 36 110 255
f 256 33 255
f 255 33 36
f 257 258 154
f 154 258 155
f 63 169 133
f 133 169 139
f 66 170 63
f 63 170 169
f 173 170 129
f 129 170 66
f 129 128 173
f 173 128 259
f 128 260 259
f 259 260 261
f 213 134 262
f 262 134 137
f 263 264 186
f 186 264 187
f 112 265 113
f 113 265 266
f 11 267 268
f 234 233 230
f 230 233 194
f 153 269 70
f 70 269 67
f 175 178 165
f 165 178 141
f 150 153 94
f 94 153 70
f 271 221 270
f 270 221 207
f 269 153 272
f 272 153 152
f 121 45 109
f 109 45 108
f 47 50 156
f 156 50 157
f 57 273 58
f 58 273 274
f 145 275 260
f 260 275 261
f 276 149 143
f 143 149 78
f 148 269 75
f 75 269 272
f 207 277 270
f 270 277 278
f 195 196 49
f 49 196 50
f 59 135 60
f 60 135 134
f 83 104 202
f 202 104 279
f 149 148 78
f 78 148 75
f 247 278 248
f 248 278 277
f 183 182 84
f 84 182 81
f 48 239 281
f 281 239 282
f 227 223 283
f 283 223 222
f 223 226 224
f 224 226 168
f 281 282 224
f 224 282 225
f 165 168 175
f 175 168 226
f 264 263 138
f 138 263 229
f 14 16 128
f 128 16 260
f 220 228 218
f 218 228 230
f 87 227 284
f 284 227 283
f 260 16 145
f 145 16 146
f 244 98 258
f 258 98 155
f 58 274 156
f 156 274 246
f 107 285 51
f 51 285 55
f 243 286 160
f 160 286 96
f 234 237 89
f 89 237 90
f 46 132 107
f 107 132 285
f 253 252 249
f 249 252 250
f 286 26 96
f 96 26 25
f 106 105 287
f 287 105 288
f 272 152 289
f 289 152 229
f 138 151 139
f 139 151 133
f 183 290 161
f 161 290 162
f 291 292 277
f 277 292 293
f 151 150 133
f 133 150 94
f 262 275 177
f 177 275 187
f 144 187 145
f 145 187 275
f 273 57 284
f 284 57 87
f 174 136 190
f 190 136 135
f 111 117 112
f 112 117 38
f 117 119 38
f 38 119 123
f 112 38 265
f 265 38 37
f 287 288 254
f 254 288 251
f 228 159 231
f 231 159 15
f 223 227 226
f 226 227 214
f 147 67 148
f 148 67 269
f 224 168 281
f 281 168 167
f 199 163 200
f 200 163 162
f 45 46 108
f 108 46 107
f 281 167 48
f 48 167 49
f 161 164 291
f 291 164 292
f 38 123 39
f 293 294 277
f 277 294 248
f 284 283 296
f 296 283 295
f 284 296 273
f 273 296 297
f 274 273 298
f 298 273 297
f 246 274 299
f 299 274 298
f 283 222 295
f 295 222 300
f 222 225 300
f 300 225 301
f 301 225 302
f 302 225 282
f 303 304 300
f 300 304 295
f 306 307 305
f 305 307 308
f 309 310 308
f 308 310 305
f 308 307 312
f 312 307 311
f 313 314 312
f 312 314 315
f 311 316 312
f 312 316 313
f 317 304 311
f 311 304 316
f 315 309 312
f 312 309 308
f 318 319 321
f 321 319 320
f 319 318 309
f 309 318 310
f 311 307 317
f 317 307 306
f 306 297 317
f 317 297 296
f 306 322 297
f 297 322 298
f 305 323 306
f 306 323 322
f 323 305 324
f 324 305 310
f 304 317 295
f 295 317 296
f 318 325 310
f 310 325 324
f 323 324 326
f 326 324 327
f 324 325 327
f 327 325 328
f 326 327 329
f 329 327 330
f 329 331 326
f 326 331 332
f 333 330 328
f 328 330 327
f 323 326 322
f 322 326 332
f 322 332 298
f 298 332 299
f 325 318 334
f 334 318 321
f 313 316 335
f 335 316 304
f 335 336 313
f 313 336 314
f 304 303 335
f 335 303 337
f 336 335 338
f 338 335 337
f 336 339 314
f 314 339 340
f 246 299 238
f 238 299 341
f 239 342 282
f 282 342 302
f 342 239 341
f 341 239 238
f 341 331 342
f 342 331 343
f 331 329 343
f 343 329 344
f 342 343 302
f 302 343 345
f 341 299 331
f 331 299 332
f 346 301 345
f 345 301 302
f 346 303 301
f 301 303 300
f 347 337 346
f 346 337 303
f 347 346 348
f 348 346 345
f 349 347 350
f 350 347 348
f 343 344 345
f 345 344 348
f 344 351 348
f 348 351 350
f 337 347 338
f 338 347 349
f 353 338 352
f 352 338 349
f 352 355 354
f 354 355 356
f 352 349 355
f 355 349 350
f 352 354 353
f 353 354 334
f 353 334 339
f 339 334 321
f 339 336 353
f 353 336 338
f 329 330 344
f 344 330 351
f 356 351 333
f 333 351 330
f 356 355 351
f 351 355 350
f 354 356 328
f 328 356 333
f 328 325 354
f 354 325 334
f 309 315 319
f 319 315 320
f 320 340 321
f 321 340 339
f 320 315 340
f 340 315 314
f 137 136 261
f 261 136 259
f 140 166 141
f 141 166 165
f 172 171 195
f 195 171 196
f 171 174 196
f 196 174 190
f 178 177 264
f 264 177 187
f 172 195 140
f 140 195 166
f 137 261 262
f 262 261 275
f 178 264 141
f 141 264 138
f 262 177 213
f 213 177 176
f 136 174 259
f 259 174 173
f 358 359 357
f 357 359 360
f 362 363 361
f 361 363 364
f 361 364 365
f 365 364 366
f 367 368 370
f 370 368 369
f 76 371 247
f 247 371 372
f 373 374 362
f 362 374 363
f 376 377 375
f 375 377 378
f 289 229 380
f 380 229 379
f 381 379 263
f 263 379 229
f 383 384 382
f 382 384 385
f 386 368 374
f 374 368 363
f 76 289 371
f 371 289 380
f 377 376 359
f 359 376 387
f 388 386 360
f 360 386 374
f 389 383 366
f 366 383 390
f 392 393 391
f 391 393 394
f 383 382 390
f 390 382 395
f 396 365 390
f 390 365 366
f 389 366 367
f 367 366 364
f 357 397 358
f 358 397 398
f 373 399 357
f 357 399 397
f 389 367 400
f 400 367 370
f 382 385 375
f 375 385 372
f 357 360 373
f 373 360 374
f 361 401 362
f 362 401 402
f 387 388 359
f 359 388 360
f 363 368 364
f 364 368 367
f 358 398 403
f 403 398 404
f 396 392 405
f 405 392 391
f 392 395 393
f 393 395 378
f 393 403 394
f 394 403 404
f 375 378 382
f 382 378 395
f 365 396 406
f 406 396 405
f 362 402 373
f 373 402 399
f 271 270 400
f 400 270 384
f 401 361 406
f 406 361 365
f 381 369 386
f 386 369 368
f 392 396 395
f 395 396 390
f 393 378 403
f 403 378 377
f 403 377 358
f 358 377 359
f 406 405 408
f 408 405 407
f 406 408 401
f 401 408 409
f 401 409 402
f 402 409 410
f 402 410 399
f 399 410 411
f 405 391 407
f 407 391 412
f 391 394 412
f 412 394 413
f 394 404 413
f 413 404 414
f 415 416 412
f 412 416 407
f 418 419 417
f 417 419 420
f 421 422 418
f 418 422 419
f 419 422 424
f 424 422 423
f 425 426 424
f 424 426 427
f 423 428 424
f 424 428 425
f 427 420 424
f 424 420 419
f 420 429 417
f 417 429 430
f 423 422 431
f 431 422 421
f 421 409 431
f 431 409 408
f 421 432 409
f 409 432 410
f 418 433 421
f 421 433 432
f 434 433 417
f 417 433 418
f 431 416 423
f 423 416 428
f 416 431 407
f 407 431 408
f 435 434 430
f 430 434 417
f 433 434 436
f 436 434 437
f 434 435 437
f 437 435 438
f 436 437 439
f 439 437 440
f 439 441 436
f 436 441 442
f 438 443 437
f 437 443 440
f 436 442 433
f 433 442 432
f 432 442 410
f 410 442 411
f 435 430 445
f 445 430 444
f 430 429 444
f 444 429 446
f 425 428 447
f 447 428 416
f 426 425 448
f 448 425 447
f 416 415 447
f 447 415 449
f 447 449 448
f 448 449 450
f 451 452 448
f 448 452 426
f 446 452 444
f 444 452 451
f 399 411 397
f 397 411 453
f 398 454 404
f 404 454 414
f 454 398 453
f 453 398 397
f 453 441 454
f 454 441 455
f 441 439 455
f 455 439 456
f 454 455 414
f 414 455 457
f 441 453 442
f 442 453 411
f 458 413 457
f 457 413 414
f 458 415 413
f 413 415 412
f 458 459 415
f 415 459 449
f 459 458 460
f 460 458 457
f 461 459 462
f 462 459 460
f 455 456 457
f 457 456 460
f 456 463 460
f 460 463 462
f 459 461 449
f 449 461 450
f 465 450 464
f 464 450 461
f 464 467 466
f 466 467 468
f 464 461 467
f 467 461 462
f 464 466 465
f 465 466 445
f 465 445 451
f 451 445 444
f 451 448 465
f 465 448 450
f 439 440 456
f 456 440 463
f 468 463 443
f 443 463 440
f 468 467 463
f 463 467 462
f 466 468 438
f 438 468 443
f 438 435 466
f 466 435 445
f 420 427 429
f 429 427 446
f 446 427 452
f 452 427 426
f 370 369 188
f 188 369 186
f 371 376 372
f 372 376 375
f 380 379 387
f 387 379 388
f 379 381 388
f 388 381 386
f 385 384 278
f 278 384 270
f 380 387 371
f 371 387 376
f 400 370 271
f 271 370 188
f 385 278 372
f 372 278 247
f 400 384 389
f 389 384 383
f 369 381 186
f 186 381 263
f 221 271 144
f 144 271 188
f 221 19 207
f 207 19 22
f 19 18 22
f 22 18 23
f 18 219 23
f 23 219 208
f 469 470 472
f 472 470 471
f 474 475 473
f 473 475 476
f 473 476 477
f 477 476 478
f 480 481 479
f 479 481 482
f 483 484 474
f 474 484 475
f 486 487 485
f 485 487 488
f 489 490 77
f 77 490 142
f 491 489 248
f 248 489 77
f 493 494 492
f 492 494 495
f 496 480 484
f 484 480 475
f 486 497 487
f 487 497 471
f 498 496 472
f 472 496 484
f 499 493 478
f 478 493 500
f 501 502 504
f 504 502 503
f 493 492 500
f 500 492 505
f 506 477 500
f 500 477 478
f 499 478 479
f 479 478 476
f 469 507 470
f 470 507 508
f 483 509 469
f 469 509 507
f 479 482 499
f 499 482 510
f 492 495 485
f 485 495 511
f 483 469 484
f 484 469 472
f 473 512 474
f 474 512 513
f 497 498 471
f 471 498 472
f 475 480 476
f 476 480 479
f 470 508 514
f 514 508 515
f 506 502 516
f 516 502 501
f 503 502 488
f 488 502 505
f 514 515 503
f 503 515 504
f 485 488 492
f 492 488 505
f 477 506 517
f 517 506 516
f 474 513 483
f 483 513 509
f 510 292 494
f 494 292 164
f 512 473 517
f 517 473 477
f 491 481 496
f 496 481 480
f 502 506 505
f 505 506 500
f 503 488 514
f 514 488 487
f 514 487 470
f 470 487 471
f 517 516 519
f 519 516 518
f 517 519 512
f 512 519 520
f 512 520 513
f 513 520 521
f 513 521 509
f 509 521 522
f 516 501 518
f 518 501 523
f 501 504 523
f 523 504 524
f 524 504 525
f 525 504 515
f 526 527 523
f 523 527 518
f 529 530 528
f 528 530 531
f 532 533 529
f 529 533 530
f 530 533 535
f 535 533 534
f 536 537 535
f 535 537 538
f 534 539 535
f 535 539 536
f 538 531 535
f 535 531 530
f 540 541 531
f 531 541 528
f 533 532 534
f 534 532 542
f 532 520 542
f 542 520 519
f 532 543 520
f 520 543 521
f 529 544 532
f 532 544 543
f 544 529 545
f 545 529 528
f 534 542 539
f 539 542 527
f 527 542 518
f 518 542 519
f 541 546 528
f 528 546 545
f 547 544 548
f 548 544 545
f 546 549 545
f 545 549 548
f 550 547 551
f 551 547 548
f 547 550 553
f 553 550 552
f 549 554 548
f 548 554 551
f 544 547 543
f 543 547 553
f 543 553 521
f 521 553 522
f 546 541 556
f 556 541 555
f 541 540 555
f 555 540 557
f 536 539 558
f 558 539 527
f 537 536 559
f 559 536 558
f 527 526 558
f 558 526 560
f 559 558 561
f 561 558 560
f 559 562 537
f 537 562 563
f 557 563 555
f 555 563 562
f 509 522 507
f 507 522 564
f 508 565 515
f 515 565 525
f 565 508 564
f 564 508 507
f 564 552 565
f 565 552 566
f 552 550 566
f 566 550 567
f 565 566 525
f 525 566 568
f 564 522 552
f 552 522 553
f 569 524 568
f 568 524 525
f 569 526 524
f 524 526 523
f 570 560 569
f 569 560 526
f 570 569 571
f 571 569 568
f 572 570 573
f 573 570 571
f 566 567 568
f 568 567 571
f 567 574 571
f 571 574 573
f 570 572 560
f 560 572 561
f 576 561 575
f 575 561 572
f 575 578 577
f 577 578 579
f 575 572 578
f 578 572 573
f 575 577 576
f 576 577 556
f 576 556 562
f 562 556 555
f 562 559 576
f 576 559 561
f 550 551 567
f 567 551 574
f 579 574 554
f 554 574 551
f 579 578 574
f 574 578 573
f 579 554 577
f 577 554 549
f 549 546 577
f 577 546 556
f 531 538 540
f 540 538 557
f 557 538 563
f 563 538 537
f 481 294 482
f 482 294 293
f 580 486 511
f 511 486 485
f 490 489 497
f 497 489 498
f 489 491 498
f 498 491 496
f 163 495 164
f 164 495 494
f 580 490 486
f 486 490 497
f 482 293 510
f 510 293 292
f 495 163 511
f 511 163 199
f 494 493 510
f 510 493 499
f 481 491 294
f 294 491 248
f 582 583 581
f 581 583 584
f 586 587 585
f 585 587 588
f 585 588 589
f 589 588 590
f 592 593 591
f 591 593 594
f 595 596 598
f 598 596 597
f 599 600 586
f 586 600 587
f 601 602 604
f 604 602 603
f 605 606 608
f 608 606 607
f 609 607 200
f 200 607 606
f 610 611 613
f 613 611 612
f 600 614 587
f 587 614 592
f 596 605 597
f 597 605 608
f 602 615 603
f 603 615 583
f 616 614 584
f 584 614 600
f 611 618 617
f 617 618 590
f 620 621 619
f 619 621 622
f 610 623 611
f 611 623 618
f 624 589 618
f 618 589 590
f 617 590 591
f 591 590 588
f 581 625 582
f 582 625 626
f 599 627 581
f 581 627 625
f 591 594 617
f 617 594 628
f 601 610 598
f 598 610 613
f 581 584 599
f 599 584 600
f 585 629 586
f 586 629 630
f 615 616 583
f 583 616 584
f 587 592 588
f 588 592 591
f 582 626 631
f 631 626 632
f 624 620 633
f 633 620 619
f 621 620 604
f 604 620 623
f 631 632 621
f 621 632 622
f 610 601 623
f 623 601 604
f 589 624 634
f 634 624 633
f 586 630 599
f 599 630 627
f 203 202 628
f 628 202 612
f 629 585 634
f 634 585 589
f 609 593 614
f 614 593 592
f 620 624 623
f 623 624 618
f 631 621 603
f 603 621 604
f 582 631 583
f 583 631 603
f 634 633 636
f 636 633 635
f 634 636 629
f 629 636 637
f 629 637 630
f 630 637 638
f 630 638 627
f 627 638 639
f 633 619 635
f 635 619 640
f 619 622 640
f 640 622 641
f 641 622 642
f 642 622 632
f 644 635 643
f 643 635 640
f 645 646 648
f 648 646 647
f 649 650 646
f 646 650 647
f 647 650 652
f 652 650 651
f 652 653 655
f 655 653 654
f 651 656 652
f 652 656 653
f 655 648 652
f 652 648 647
f 648 657 645
f 645 657 658
f 650 649 651
f 651 649 659
f 649 637 659
f 659 637 636
f 649 660 637
f 637 660 638
f 661 660 646
f 646 660 649
f 662 661 645
f 645 661 646
f 651 659 656
f 656 659 644
f 644 659 635
f 635 659 636
f 663 662 658
f 658 662 645
f 664 661 665
f 665 661 662
f 663 666 662
f 662 666 665
f 667 664 668
f 668 664 665
f 664 667 670
f 670 667 669
f 666 671 665
f 665 671 668
f 661 664 660
f 660 664 670
f 660 670 638
f 638 670 639
f 658 672 663
f 663 672 673
f 658 657 672
f 672 657 674
f 653 656 675
f 675 656 644
f 653 675 654
f 654 675 676
f 675 644 677
f 677 644 643
f 676 675 678
f 678 675 677
f 679 680 676
f 676 680 654
f 674 680 672
f 672 680 679
f 627 639 625
f 625 639 681
f 626 682 632
f 632 682 642
f 681 682 625
f 625 682 626
f 669 683 681
f 681 683 682
f 667 684 669
f 669 684 683
f 682 683 642
f 642 683 685
f 681 639 669
f 669 639 670
f 686 641 685
f 685 641 642
f 641 686 640
f 640 686 643
f 686 687 643
f 643 687 677
f 687 686 688
f 688 686 685
f 689 687 690
f 690 687 688
f 683 684 685
f 685 684 688
f 684 691 688
f 688 691 690
f 687 689 677
f 677 689 678
f 693 678 692
f 692 678 689
f 692 695 694
f 694 695 696
f 692 689 695
f 695 689 690
f 692 694 693
f 693 694 673
f 693 673 679
f 679 673 672
f 679 676 693
f 693 676 678
f 684 667 691
f 691 667 668
f 696 691 671
f 671 691 668
f 696 695 691
f 691 695 690
f 694 696 666
f 666 696 671
f 666 663 694
f 694 663 673
f 648 655 657
f 657 655 674
f 674 655 680
f 680 655 654
f 593 162 594
f 594 162 290
f 598 597 601
f 601 597 602
f 615 608 616
f 616 608 607
f 607 609 616
f 616 609 614
f 697 595 613
f 613 595 598
f 597 608 602
f 602 608 615
f 594 290 628
f 628 290 203
f 628 612 617
f 617 612 611
f 593 609 162
f 162 609 200
f 105 29 698
f 698 29 699
f 268 126 701
f 701 126 700
f 126 125 700
f 700 125 702
f 252 703 250
f 250 703 704
f 32 268 705
f 705 268 701
f 288 105 706
f 706 105 698
f 29 32 699
f 699 32 705
f 707 251 706
f 706 251 288
f 250 704 125
f 125 704 702
f 703 252 707
f 707 252 251
f 706 708 707
f 707 708 709
f 707 709 703
f 703 709 710
f 703 710 704
f 704 710 711
f 704 711 702
f 702 711 712
f 706 698 708
f 708 698 713
f 698 699 713
f 713 699 714
f 699 705 714
f 714 705 715
f 717 708 716
f 716 708 713
f 719 720 718
f 718 720 721
f 722 723 719
f 719 723 720
f 724 725 723
f 723 725 720
f 724 726 725
f 725 726 727
f 728 721 725
f 725 721 720
f 721 728 729
f 729 728 730
f 729 731 721
f 721 731 718
f 724 723 732
f 732 723 722
f 722 710 732
f 732 710 709
f 722 733 710
f 710 733 711
f 719 734 722
f 722 734 733
f 734 719 735
f 735 719 718
f 724 732 726
f 726 732 717
f 717 732 708
f 708 732 709
f 731 736 718
f 718 736 735
f 737 734 738
f 738 734 735
f 736 739 735
f 735 739 738
f 740 737 741
f 741 737 738
f 737 740 743
f 743 740 742
f 739 744 738
f 738 744 741
f 734 737 733
f 733 737 743
f 733 743 711
f 711 743 712
f 736 731 746
f 746 731 745
f 731 729 745
f 745 729 730
f 727 726 747
f 747 726 717
f 748 727 749
f 749 727 747
f 747 717 750
f 750 717 716
f 749 747 751
f 751 747 750
f 749 752 748
f 748 752 753
f 730 753 745
f 745 753 752
f 728 725 748
f 748 725 727
f 730 728 753
f 753 728 748
f 700 702 754
f 754 702 712
f 705 701 715
f 715 701 755
f 754 755 700
f 700 755 701
f 742 756 754
f 754 756 755
f 740 757 742
f 742 757 756
f 755 756 715
f 715 756 758
f 754 712 742
f 742 712 743
f 759 714 758
f 758 714 715
f 714 759 713
f 713 759 716
f 759 760 716
f 716 760 750
f 760 759 761
f 761 759 758
f 762 760 763
f 763 760 761
f 756 757 758
f 758 757 761
f 757 764 761
f 761 764 763
f 760 762 750
f 750 762 751
f 766 751 765
f 765 751 762
f 767 765 769
f 769 765 768
f 765 762 768
f 768 762 763
f 765 767 766
f 766 767 746
f 766 746 752
f 752 746 745
f 752 749 766
f 766 749 751
f 757 740 764
f 764 740 741
f 769 764 744
f 744 764 741
f 769 768 764
f 764 768 763
f 767 769 739
f 739 769 744
f 739 736 767
f 767 736 746
f 219 217 208
f 208 217 209
f 209 217 210
f 210 217 193
f 198 580 199
f 199 580 511
f 76 75 289
f 289 75 272
f 277 207 291
f 291 207 184
f 290 183 203
f 203 183 84
f 490 580 142
f 142 580 198
f 142 198 143
f 143 198 197
f 149 276 72
f 72 276 73
f 104 103 279
f 279 103 770
f 770 596 279
f 279 596 595
f 605 596 771
f 771 596 770
f 771 770 772
f 772 770 103
f 772 103 773
f 773 103 102
f 155 774 101
f 101 774 102
f 773 102 97
f 97 102 774
f 775 773 100
f 100 773 97
f 773 775 772
f 772 775 776
f 772 776 771
f 771 776 777
f 200 606 197
f 197 606 777
f 189 71 778
f 778 71 74
f 97 774 98
f 98 774 155
f 183 161 184
f 184 161 291
f 777 276 197
f 197 276 143
f 777 606 771
f 771 606 605
f 613 612 697
f 697 612 202
f 595 697 279
f 279 697 202
f 73 276 776
f 776 276 777
f 776 775 73
f 73 775 74
f 100 778 775
f 775 778 74
f 778 100 189
f 189 100 99
f 245 242 99
f 99 242 189
f 131 33 256
f 28 1 95
f 95 1 62
f 27 2 28
f 28 2 1
f 265 115 266
f 266 115 114
f 95 62 69
f 69 62 64
f 62 61 64
f 64 61 65
f 61 13 65
f 65 13 130
f 13 12 130
f 130 12 14
f 31 11 32
f 32 11 268
f 15 12 31
f 31 12 11
f 31 30 15
f 15 30 231
f 30 106 231
f 231 106 232
f 287 237 106
f 106 237 232
f 254 90 287
f 287 90 237
f 253 44 254
f 254 44 90
f 253 249 44
f 44 249 7
f 267 127 268
f 268 127 126
f 10 3 241
f 241 3 116
f 3 2 116
f 116 2 114
f 2 27 114
f 114 27 266
f 27 26 266
f 266 26 113
f 26 286 113
f 113 286 110
f 286 243 110
f 110 243 255
f 243 242 255
f 255 242 256
f 242 245 256
f 256 245 131
f 245 244 131
f 131 244 132
f 265 37 115
f 115 37 41
f 41 37 42
f 42 37 40
f 92 91 40
f 40 91 42
f 236 233 92
f 92 233 91
f 191 194 236
f 236 194 233
f 258 285 244
f 244 285 132
f 257 55 258
f 258 55 285
f 257 154 201
f 201 154 185
f 56 201 204
f 204 201 180
f 55 257 56
f 56 257 201
f 204 85 56
f 56 85 52
f 86 122 53
f 53 122 79
f 212 215 86
f 86 215 122
f 211 216 212
f 212 216 215
f 192 280 211
f 211 280 216
f 191 240 192
f 192 240 280
f 249 124 7
f 7 124 8
f 124 127 8
f 8 127 241
f 127 267 241
f 241 267 10
f 10 267 9
f 9 267 11
f 93 39 235
f 235 39 240
f 39 123 240
f 240 123 280
f 123 119 280
f 280 119 216
f 119 118 216
f 216 118 215
f 118 120 215
f 215 120 122
f 120 121 122
f 122 121 79
f 121 109 79
f 79 109 80

