# https://github.com/mikedh/trimesh
v -0.12617189 0.11967392 -13.86235428 0.25098039 0.27450980 0.65882353
v -0.12245992 0.11801445 -13.87380219 0.25098039 0.27450980 0.65882353
v -0.11809421 0.11710570 -13.86723900 0.25098039 0.27450980 0.65882353
v -0.12237512 0.12214575 -13.85587025 0.25098039 0.27450980 0.65882353
v -0.10378008 0.11620783 -13.88565445 0.25098039 0.27450980 0.65882353
v -0.09762156 0.12621325 -13.88928318 0.25098039 0.27450980 0.65882353
v -0.09443451 0.12188932 -13.87550449 0.25098039 0.27450980 0.65882353
v -0.10010158 0.11300821 -13.87428474 0.25098039 0.27450980 0.65882353
v -0.12089974 0.12369320 -13.85026836 0.25098039 0.27450980 0.65882353
v -0.11471644 0.11594699 -13.86035347 0.25098039 0.27450980 0.65882353
v -0.12123643 0.12562203 -13.84841824 0.25098039 0.27450980 0.65882353
v -0.13287848 0.13726118 -13.84269238 0.25098039 0.27450980 0.65882353
v -0.12912121 0.13192073 -13.84363365 0.25098039 0.27450980 0.65882353
v -0.13968962 0.14002959 -13.83715725 0.25098039 0.27450980 0.65882353
v -0.13830060 0.14353941 -13.84893894 0.25098039 0.27450980 0.65882353
v -0.14876999 0.14131446 -13.83912659 0.25098039 0.27450980 0.65882353
v -0.16042638 0.13112925 -13.86359119 0.25098039 0.27450980 0.65882353
v -0.16444792 0.11870278 -13.86948299 0.25098039 0.27450980 0.65882353
v -0.16884491 0.11511016 -13.85340786 0.25098039 0.27450980 0.65882353
v -0.16393158 0.12781006 -13.84886074 0.25098039 0.27450980 0.65882353
v -0.16874965 0.09658231 -13.86546803 0.25098039 0.27450980 0.65882353
v -0.16937523 0.10648606 -13.85807896 0.25098039 0.27450980 0.65882353
v -0.16579545 0.11041876 -13.87443256 0.25098039 0.27450980 0.65882353
v -0.16529527 0.10163013 -13.88028622 0.25098039 0.27450980 0.65882353
v -0.13054137 0.11018258 -13.87226486 0.25098039 0.27450980 0.65882353
v -0.12681344 0.10982563 -13.88222980 0.25098039 0.27450980 0.65882353
v -0.12665892 0.11431025 -13.87976742 0.25098039 0.27450980 0.65882353
v -0.12948288 0.11460774 -13.86970329 0.25098039 0.27450980 0.65882353
v -0.11087037 0.12890925 -13.84834957 0.25098039 0.27450980 0.65882353
v -0.12014852 0.13990597 -13.85542107 0.25098039 0.27450980 0.65882353
v -0.12283546 0.13410620 -13.85054493 0.25098039 0.27450980 0.65882353
v -0.11100622 0.12284975 -13.84810066 0.25098039 0.27450980 0.65882353
v -0.11559928 0.10134386 -13.90694427 0.25098039 0.27450980 0.65882353
v -0.11896150 0.10733439 -13.91973782 0.25098039 0.27450980 0.65882353
v -0.11752515 0.11312031 -13.91829300 0.25098039 0.27450980 0.65882353
v -0.11554724 0.10693084 -13.90695190 0.25098039 0.27450980 0.65882353
v -0.10723389 0.12883610 -13.90681648 0.25098039 0.27450980 0.65882353
v -0.11277361 0.13149506 -13.91506577 0.25098039 0.27450980 0.65882353
v -0.11645997 0.14328608 -13.91903782 0.25098039 0.27450980 0.65882353
v -0.11252816 0.14251217 -13.90891361 0.25098039 0.27450980 0.65882353
v -0.10186334 0.12784553 -13.89785099 0.25098039 0.27450980 0.65882353
v -0.10451463 0.14028165 -13.89870358 0.25098039 0.27450980 0.65882353
v -0.09888518 0.13753383 -13.88844490 0.25098039 0.27450980 0.65882353
v -0.09459309 0.13164119 -13.87392521 0.25098039 0.27450980 0.65882353
v -0.12499092 0.09631190 -13.92323399 0.25098039 0.27450980 0.65882353
v -0.12312141 0.08989012 -13.91488552 0.25098039 0.27450980 0.65882353
v -0.13448848 0.11843976 -13.79689693 0.25098039 0.27450980 0.65882353
v -0.13556489 0.11269021 -13.79887199 0.25098039 0.27450980 0.65882353
v -0.13663116 0.11458735 -13.80208778 0.25098039 0.27450980 0.65882353
v -0.13549110 0.11995266 -13.79952812 0.25098039 0.27450980 0.65882353
v -0.14416227 0.08827133 -13.92290115 0.25098039 0.27450980 0.65882353
v -0.15344036 0.09335829 -13.92322922 0.25098039 0.27450980 0.65882353
v -0.15056625 0.09333960 -13.92972279 0.25098039 0.27450980 0.65882353
v -0.14132003 0.09040478 -13.92941380 0.25098039 0.27450980 0.65882353
v -0.14788848 0.08562937 -13.91404247 0.25098039 0.27450980 0.65882353
v -0.15659690 0.09353635 -13.91374397 0.25098039 0.27450980 0.65882353
v -0.14336389 0.12168296 -13.78844357 0.25098039 0.27450980 0.65882353
v -0.13881326 0.12270839 -13.79047394 0.25098039 0.27450980 0.65882353
v -0.14155005 0.12532201 -13.79316616 0.25098039 0.27450980 0.65882353
v -0.14668863 0.12403050 -13.79210091 0.25098039 0.27450980 0.65882353
v -0.12751052 0.12711573 -13.84712601 0.25098039 0.27450980 0.65882353
v -0.12879428 0.12106865 -13.85267925 0.25098039 0.27450980 0.65882353
v -0.13428697 0.12595335 -13.83017826 0.25098039 0.27450980 0.65882353
v -0.13345480 0.12391319 -13.83936501 0.25098039 0.27450980 0.65882353
v -0.13211405 0.13042426 -13.83909416 0.25098039 0.27450980 0.65882353
v -0.13387670 0.13241616 -13.83143711 0.25098039 0.27450980 0.65882353
v -0.13904274 0.10452858 -13.85214233 0.25098039 0.27450980 0.65882353
v -0.13550946 0.10627387 -13.86298656 0.25098039 0.27450980 0.65882353
v -0.13469614 0.11177512 -13.85935020 0.25098039 0.27450980 0.65882353
v -0.13685609 0.11097588 -13.84666061 0.25098039 0.27450980 0.65882353
v -0.13641074 0.09316811 -13.86894035 0.25098039 0.27450980 0.65882353
v -0.14022657 0.09257944 -13.85803223 0.25098039 0.27450980 0.65882353
v -0.14054900 0.08523999 -13.86311340 0.25098039 0.27450980 0.65882353
v -0.13681096 0.08655208 -13.86958313 0.25098039 0.27450980 0.65882353
v -0.14537498 0.09441224 -13.83800316 0.25098039 0.27450980 0.65882353
v -0.14850082 0.09410711 -13.83139992 0.25098039 0.27450980 0.65882353
v -0.14869353 0.09181216 -13.83184242 0.25098039 0.27450980 0.65882353
v -0.14592904 0.09166951 -13.83998108 0.25098039 0.27450980 0.65882353
v -0.14870739 0.09414122 -13.93626976 0.25098039 0.27450980 0.65882353
v -0.13890879 0.09344707 -13.93543720 0.25098039 0.27450980 0.65882353
v -0.16534135 0.07764496 -13.87662029 0.25098039 0.27450980 0.65882353
v -0.15784848 0.07173070 -13.88256359 0.25098039 0.27450980 0.65882353
v -0.15995547 0.06577033 -13.87119579 0.25098039 0.27450980 0.65882353
v -0.16855243 0.07371768 -13.86736107 0.25098039 0.27450980 0.65882353
v -0.15930478 0.10224354 -13.92051888 0.25098039 0.27450980 0.65882353
v -0.15806773 0.10077748 -13.92783260 0.25098039 0.27450980 0.65882353
v -0.14761990 0.11741298 -13.78831482 0.25098039 0.27450980 0.65882353
v -0.15084268 0.11952776 -13.79212761 0.25098039 0.27450980 0.65882353
v -0.10913997 0.14832571 -13.88670158 0.25098039 0.27450980 0.65882353
v -0.10035317 0.14066570 -13.87075710 0.25098039 0.27450980 0.65882353
v -0.11692156 0.15084574 -13.90030766 0.25098039 0.27450980 0.65882353
v -0.12396254 0.15122521 -13.91012573 0.25098039 0.27450980 0.65882353
v -0.12718496 0.15111503 -13.91917419 0.25098039 0.27450980 0.65882353
v -0.13553625 0.11785079 -13.83717155 0.25098039 0.27450980 0.65882353
v -0.13102619 0.11632295 -13.85997581 0.25098039 0.27450980 0.65882353
v -0.13108823 0.10572876 -13.87434864 0.25098039 0.27450980 0.65882353
v -0.13312320 0.07563027 -13.88307285 0.25098039 0.27450980 0.65882353
v -0.12928459 0.07775807 -13.89245033 0.25098039 0.27450980 0.65882353
v -0.12721670 0.08584996 -13.88527107 0.25098039 0.27450980 0.65882353
v -0.13162249 0.08250885 -13.87859631 0.25098039 0.27450980 0.65882353
v -0.14865470 0.06723114 -13.88193989 0.25098039 0.27450980 0.65882353
v -0.14161882 0.06917484 -13.87781620 0.25098039 0.27450980 0.65882353
v -0.14418294 0.06757293 -13.87098026 0.25098039 0.27450980 0.65882353
v -0.15123227 0.06439739 -13.87299728 0.25098039 0.27450980 0.65882353
v -0.10576188 0.13419491 -13.85013485 0.25098039 0.27450980 0.65882353
v -0.11683738 0.14409417 -13.85970783 0.25098039 0.27450980 0.65882353
v -0.13354833 0.08745275 -13.92054367 0.25098039 0.27450980 0.65882353
v -0.13162276 0.09219322 -13.92628002 0.25098039 0.27450980 0.65882353
v -0.13160947 0.09610580 -13.93424034 0.25098039 0.27450980 0.65882353
v -0.12000199 0.10701825 -13.89439392 0.25098039 0.27450980 0.65882353
v -0.11521737 0.11063156 -13.90707397 0.25098039 0.27450980 0.65882353
v -0.11417276 0.11427318 -13.90566730 0.25098039 0.27450980 0.65882353
v -0.12102374 0.11021167 -13.89367676 0.25098039 0.27450980 0.65882353
v -0.11703519 0.11602514 -13.88595581 0.25098039 0.27450980 0.65882353
v -0.10902031 0.11867928 -13.89581394 0.25098039 0.27450980 0.65882353
v -0.11239978 0.11223469 -13.87787533 0.25098039 0.27450980 0.65882353
v -0.11570731 0.12152445 -13.91795444 0.25098039 0.27450980 0.65882353
v -0.11695011 0.11692226 -13.92822075 0.25098039 0.27450980 0.65882353
v -0.11570990 0.12585989 -13.92657280 0.25098039 0.27450980 0.65882353
v -0.12068126 0.10801182 -13.93084145 0.25098039 0.27450980 0.65882353
v -0.12584509 0.10064343 -13.93247700 0.25098039 0.27450980 0.65882353
v -0.15905385 0.10087209 -13.93586922 0.25098039 0.27450980 0.65882353
v -0.11570601 0.13413501 -13.92437458 0.25098039 0.27450980 0.65882353
v -0.09841396 0.11150108 -13.86616421 0.25098039 0.27450980 0.65882353
v -0.09539357 0.11088477 -13.85891819 0.25098039 0.27450980 0.65882353
v -0.10265188 0.10923114 -13.85443687 0.25098039 0.27450980 0.65882353
v -0.10605157 0.10923329 -13.86148739 0.25098039 0.27450980 0.65882353
v -0.14433944 0.14024781 -13.82886982 0.25098039 0.27450980 0.65882353
v -0.13714819 0.13702245 -13.82954311 0.25098039 0.27450980 0.65882353
v -0.13375469 0.13665506 -13.83859444 0.25098039 0.27450980 0.65882353
v -0.11935528 0.09408546 -13.89904404 0.25098039 0.27450980 0.65882353
v -0.12518598 0.08427970 -13.90631390 0.25098039 0.27450980 0.65882353
v -0.13731983 0.12008998 -13.82813835 0.25098039 0.27450980 0.65882353
v -0.14911672 0.12669808 -13.79646015 0.25098039 0.27450980 0.65882353
v -0.14320314 0.12817281 -13.79734039 0.25098039 0.27450980 0.65882353
v -0.14409012 0.13617174 -13.81388760 0.25098039 0.27450980 0.65882353
v -0.15134452 0.13489629 -13.81258297 0.25098039 0.27450980 0.65882353
v -0.14613208 0.11626559 -13.82197285 0.25098039 0.27450980 0.65882353
v -0.13987258 0.11875228 -13.82399368 0.25098039 0.27450980 0.65882353
v -0.14153555 0.11747992 -13.82243824 0.25098039 0.27450980 0.65882353
v -0.14686877 0.11334926 -13.82022572 0.25098039 0.27450980 0.65882353
v -0.14701122 0.08534966 -13.83883667 0.25098039 0.27450980 0.65882353
v -0.14528263 0.08517802 -13.84592056 0.25098039 0.27450980 0.65882353
v -0.16426650 0.12247283 -13.83388329 0.25098039 0.27450980 0.65882353
v -0.16120797 0.13634303 -13.83352470 0.25098039 0.27450980 0.65882353
v -0.15785880 0.13756809 -13.84488201 0.25098039 0.27450980 0.65882353
v -0.13965219 0.09799849 -13.85614872 0.25098039 0.27450980 0.65882353
v -0.14239359 0.09550381 -13.84652042 0.25098039 0.27450980 0.65882353
v -0.14322859 0.09189112 -13.84861279 0.25098039 0.27450980 0.65882353
v -0.13797015 0.11444426 -13.83454514 0.25098039 0.27450980 0.65882353
v -0.14074472 0.11521253 -13.82732868 0.25098039 0.27450980 0.65882353
v -0.14120522 0.11149420 -13.83083248 0.25098039 0.27450980 0.65882353
v -0.13936949 0.11029288 -13.83786678 0.25098039 0.27450980 0.65882353
v -0.15541741 0.07662091 -13.89458561 0.25098039 0.27450980 0.65882353
v -0.14480618 0.07107490 -13.89338970 0.25098039 0.27450980 0.65882353
v -0.13563898 0.12175947 -13.79370308 0.25098039 0.27450980 0.65882353
v -0.13739868 0.12393311 -13.79621983 0.25098039 0.27450980 0.65882353
v -0.13630483 0.10005868 -13.86669350 0.25098039 0.27450980 0.65882353
v -0.15335667 0.13869223 -13.85800266 0.25098039 0.27450980 0.65882353
v -0.13134305 0.10085279 -13.87661934 0.25098039 0.27450980 0.65882353
v -0.16594321 0.08030758 -13.85037327 0.25098039 0.27450980 0.65882353
v -0.15798947 0.07582019 -13.84882164 0.25098039 0.27450980 0.65882353
v -0.15672743 0.07551397 -13.84394646 0.25098039 0.27450980 0.65882353
v -0.16305766 0.07716896 -13.84277725 0.25098039 0.27450980 0.65882353
v -0.14698774 0.10823710 -13.80652046 0.25098039 0.27450980 0.65882353
v -0.14109021 0.10979376 -13.80663681 0.25098039 0.27450980 0.65882353
v -0.14042357 0.10939781 -13.80302429 0.25098039 0.27450980 0.65882353
v -0.14597589 0.10732855 -13.80186749 0.25098039 0.27450980 0.65882353
v -0.13653964 0.12375383 -13.82440948 0.25098039 0.27450980 0.65882353
v -0.13537891 0.13048942 -13.82443428 0.25098039 0.27450980 0.65882353
v -0.13591194 0.12739471 -13.81932354 0.25098039 0.27450980 0.65882353
v -0.13821386 0.12153270 -13.82079983 0.25098039 0.27450980 0.65882353
v -0.13896614 0.13556418 -13.82223320 0.25098039 0.27450980 0.65882353
v -0.13829690 0.13332167 -13.81675720 0.25098039 0.27450980 0.65882353
v -0.15301949 0.11056370 -13.80413151 0.25098039 0.27450980 0.65882353
v -0.15578347 0.11655514 -13.80002689 0.25098039 0.27450980 0.65882353
v -0.15876606 0.12201212 -13.81544209 0.25098039 0.27450980 0.65882353
v -0.15402906 0.11496547 -13.81669807 0.25098039 0.27450980 0.65882353
v -0.16367394 0.10675149 -13.89464951 0.25098039 0.27450980 0.65882353
v -0.16265026 0.09641202 -13.89916039 0.25098039 0.27450980 0.65882353
v -0.16479284 0.09112386 -13.88498878 0.25098039 0.27450980 0.65882353
v -0.16780034 0.08529469 -13.87125301 0.25098039 0.27450980 0.65882353
v -0.16914129 0.08078305 -13.85836315 0.25098039 0.27450980 0.65882353
v -0.17238788 0.09182400 -13.85384655 0.25098039 0.27450980 0.65882353
v -0.16239101 0.08425948 -13.88944626 0.25098039 0.27450980 0.65882353
v -0.15464523 0.11639120 -13.82416058 0.25098039 0.27450980 0.65882353
v -0.16000974 0.12466852 -13.82549477 0.25098039 0.27450980 0.65882353
v -0.16070552 0.11873184 -13.82708549 0.25098039 0.27450980 0.65882353
v -0.13071412 0.09358383 -13.87888336 0.25098039 0.27450980 0.65882353
v -0.13822082 0.12659474 -13.79975986 0.25098039 0.27450980 0.65882353
v -0.14828092 0.14498699 -13.91353798 0.25098039 0.27450980 0.65882353
v -0.15710774 0.13424605 -13.91717052 0.25098039 0.27450980 0.65882353
v -0.15587969 0.13420370 -13.90855598 0.25098039 0.27450980 0.65882353
v -0.14540859 0.14618130 -13.90394497 0.25098039 0.27450980 0.65882353
v -0.13627517 0.11533883 -13.80525780 0.25098039 0.27450980 0.65882353
v -0.13479453 0.12172205 -13.80300045 0.25098039 0.27450980 0.65882353
v -0.14506218 0.07884073 -13.84784222 0.25098039 0.27450980 0.65882353
v -0.14693689 0.07974224 -13.84138298 0.25098039 0.27450980 0.65882353
v -0.14927164 0.07657608 -13.84194088 0.25098039 0.27450980 0.65882353
v -0.14554368 0.07414569 -13.84761238 0.25098039 0.27450980 0.65882353
v -0.16063303 0.09150009 -13.90261269 0.25098039 0.27450980 0.65882353
v -0.15574464 0.06152091 -13.86428642 0.25098039 0.27450980 0.65882353
v -0.16498712 0.06888334 -13.86037159 0.25098039 0.27450980 0.65882353
v -0.16057937 0.10134791 -13.91122913 0.25098039 0.27450980 0.65882353
v -0.16239543 0.11050306 -13.90750027 0.25098039 0.27450980 0.65882353
v -0.16202185 0.11260996 -13.91691494 0.25098039 0.27450980 0.65882353
v -0.17045137 0.10197628 -13.84138489 0.25098039 0.27450980 0.65882353
v -0.16360626 0.11379701 -13.88931561 0.25098039 0.27450980 0.65882353
v -0.16148302 0.11698528 -13.90327358 0.25098039 0.27450980 0.65882353
v -0.16102624 0.11992459 -13.91419888 0.25098039 0.27450980 0.65882353
v -0.16171032 0.12162208 -13.92217731 0.25098039 0.27450980 0.65882353
v -0.16204002 0.11320829 -13.92421532 0.25098039 0.27450980 0.65882353
v -0.15347561 0.12184589 -13.79721642 0.25098039 0.27450980 0.65882353
v -0.15325364 0.11339368 -13.79441929 0.25098039 0.27450980 0.65882353
v -0.16330887 0.11373740 -13.93265438 0.25098039 0.27450980 0.65882353
v -0.16212779 0.12287034 -13.92996120 0.25098039 0.27450980 0.65882353
v -0.15968615 0.12539600 -13.89880085 0.25098039 0.27450980 0.65882353
v -0.15584441 0.13537829 -13.89308834 0.25098039 0.27450980 0.65882353
v -0.16165259 0.12219477 -13.88544846 0.25098039 0.27450980 0.65882353
v -0.15851548 0.13173231 -13.87896442 0.25098039 0.27450980 0.65882353
v -0.17221636 0.11357225 -13.84086418 0.25098039 0.27450980 0.65882353
v -0.14282346 0.10236634 -13.78532600 0.25098039 0.27450980 0.65882353
v -0.14856169 0.10660068 -13.79367542 0.25098039 0.27450980 0.65882353
v -0.14429614 0.10557838 -13.79755306 0.25098039 0.27450980 0.65882353
v -0.14062655 0.10050966 -13.78871536 0.25098039 0.27450980 0.65882353
v -0.15092349 0.10869126 -13.79885674 0.25098039 0.27450980 0.65882353
v -0.15006986 0.11125781 -13.79053116 0.25098039 0.27450980 0.65882353
v -0.14867681 0.14194342 -13.87194729 0.25098039 0.27450980 0.65882353
v -0.14460297 0.11189175 -13.82482529 0.25098039 0.27450980 0.65882353
v -0.14143240 0.14756611 -13.88606167 0.25098039 0.27450980 0.65882353
v -0.13613920 0.14687258 -13.86043930 0.25098039 0.27450980 0.65882353
v -0.12889031 0.15001902 -13.87060738 0.25098039 0.27450980 0.65882353
v -0.13201141 0.15345535 -13.90048027 0.25098039 0.27450980 0.65882353
v -0.12258820 0.15373781 -13.88501740 0.25098039 0.27450980 0.65882353
v -0.13835326 0.15137303 -13.91942024 0.25098039 0.27450980 0.65882353
v -0.13679934 0.15194497 -13.91001320 0.25098039 0.27450980 0.65882353
v -0.11284891 0.14850838 -13.87133408 0.25098039 0.27450980 0.65882353
v -0.13018750 0.11110542 -13.79164696 0.25098039 0.27450980 0.65882353
v -0.13248719 0.10587360 -13.79373932 0.25098039 0.27450980 0.65882353
v -0.14915951 0.14555307 -13.92194176 0.25098039 0.27450980 0.65882353
v -0.10892013 0.11048273 -13.86858559 0.25098039 0.27450980 0.65882353
v -0.12529843 0.09690441 -13.88766670 0.25098039 0.27450980 0.65882353
v -0.12592238 0.10229459 -13.88549900 0.25098039 0.27450980 0.65882353
v -0.12774076 0.07967599 -13.89821148 0.25098039 0.27450980 0.65882353
v -0.12407914 0.08978531 -13.89131927 0.25098039 0.27450980 0.65882353
v -0.13067073 0.11532702 -13.78803825 0.25098039 0.27450980 0.65882353
v -0.15397194 0.09330221 -13.82784557 0.25098039 0.27450980 0.65882353
v -0.15469876 0.09354638 -13.82940483 0.25098039 0.27450980 0.65882353
v -0.09283881 0.11882337 -13.86787415 0.25098039 0.27450980 0.65882353
v -0.09059574 0.11717878 -13.86152458 0.25098039 0.27450980 0.65882353
v -0.09164704 0.13002647 -13.85555840 0.25098039 0.27450980 0.65882353
v -0.08892052 0.12400859 -13.85958958 0.25098039 0.27450980 0.65882353
v -0.09191287 0.12792802 -13.86645699 0.25098039 0.27450980 0.65882353
v -0.09518728 0.13495681 -13.86297226 0.25098039 0.27450980 0.65882353
v -0.11919415 0.10418359 -13.89465618 0.25098039 0.27450980 0.65882353
v -0.11933950 0.09993967 -13.89562988 0.25098039 0.27450980 0.65882353
v -0.15129840 0.08122228 -13.90505314 0.25098039 0.27450980 0.65882353
v -0.14080040 0.07612138 -13.90279388 0.25098039 0.27450980 0.65882353
v -0.14512578 0.13814971 -13.82125759 0.25098039 0.27450980 0.65882353
v -0.15294753 0.14017662 -13.82901573 0.25098039 0.27450980 0.65882353
v -0.15238106 0.13721934 -13.82092953 0.25098039 0.27450980 0.65882353
v -0.15701477 0.13039920 -13.81480408 0.25098039 0.27450980 0.65882353
v -0.14970848 0.11362138 -13.82222366 0.25098039 0.27450980 0.65882353
v -0.15328327 0.11750261 -13.82231617 0.25098039 0.27450980 0.65882353
v -0.11176851 0.11665756 -13.90042019 0.25098039 0.27450980 0.65882353
v -0.12042587 0.11453563 -13.89056778 0.25098039 0.27450980 0.65882353
v -0.11206929 0.11470655 -13.85575771 0.25098039 0.27450980 0.65882353
v -0.10853357 0.11382984 -13.85015202 0.25098039 0.27450980 0.65882353
v -0.14081515 0.10420055 -13.84327030 0.25098039 0.27450980 0.65882353
v -0.16743603 0.10043302 -13.83019543 0.25098039 0.27450980 0.65882353
v -0.16864312 0.11029858 -13.82979012 0.25098039 0.27450980 0.65882353
v -0.14358756 0.10356945 -13.83467388 0.25098039 0.27450980 0.65882353
v -0.13649362 0.11542742 -13.78156090 0.25098039 0.27450980 0.65882353
v -0.13269581 0.11640470 -13.78482056 0.25098039 0.27450980 0.65882353
v -0.15829903 0.13340531 -13.82324886 0.25098039 0.27450980 0.65882353
v -0.14237776 0.08458823 -13.85322380 0.25098039 0.27450980 0.65882353
v -0.16771019 0.09514716 -13.83538723 0.25098039 0.27450980 0.65882353
v -0.16242523 0.09442801 -13.82793903 0.25098039 0.27450980 0.65882353
v -0.14930701 0.06287314 -13.86811829 0.25098039 0.27450980 0.65882353
v -0.15701151 0.13513242 -13.92567158 0.25098039 0.27450980 0.65882353
v -0.13902095 0.10707169 -13.79950142 0.25098039 0.27450980 0.65882353
v -0.13608411 0.10200562 -13.79362679 0.25098039 0.27450980 0.65882353
v -0.14366411 0.10606638 -13.78299141 0.25098039 0.27450980 0.65882353
v -0.14175494 0.11188408 -13.78130627 0.25098039 0.27450980 0.65882353
v -0.13616166 0.08164319 -13.91078281 0.25098039 0.27450980 0.65882353
v -0.12655568 0.10556488 -13.88378906 0.25098039 0.27450980 0.65882353
v -0.10539144 0.14133206 -13.86157036 0.25098039 0.27450980 0.65882353
v -0.09841470 0.13358112 -13.85229874 0.25098039 0.27450980 0.65882353
v -0.14559932 0.10324591 -13.82990170 0.25098039 0.27450980 0.65882353
v -0.16290808 0.07392965 -13.85382462 0.25098039 0.27450980 0.65882353
v -0.17007996 0.08713364 -13.84512520 0.25098039 0.27450980 0.65882353
v -0.16783500 0.08256546 -13.83644295 0.25098039 0.27450980 0.65882353
v -0.16639140 0.08783819 -13.82999992 0.25098039 0.27450980 0.65882353
v -0.16059133 0.09138522 -13.82640171 0.25098039 0.27450980 0.65882353
v -0.13994032 0.10294162 -13.78017902 0.25098039 0.27450980 0.65882353
v -0.13806936 0.10870370 -13.77846146 0.25098039 0.27450980 0.65882353
v -0.13301498 0.11251627 -13.77899265 0.25098039 0.27450980 0.65882353
v -0.12988020 0.11385823 -13.78227520 0.25098039 0.27450980 0.65882353
v -0.12882087 0.11284824 -13.78651047 0.25098039 0.27450980 0.65882353
v -0.13884845 0.09928337 -13.78278255 0.25098039 0.27450980 0.65882353
v -0.13683388 0.09809819 -13.78609657 0.25098039 0.27450980 0.65882353
v -0.13438460 0.10030393 -13.79150867 0.25098039 0.27450980 0.65882353
v -0.13465765 0.09676913 -13.78205967 0.25098039 0.27450980 0.65882353
v -0.13304307 0.09877422 -13.77732944 0.25098039 0.27450980 0.65882353
v -0.12088794 0.10573563 -13.77657700 0.25098039 0.27450980 0.65882353
v -0.12644902 0.10766184 -13.77621174 0.25098039 0.27450980 0.65882353
v -0.12573802 0.10531633 -13.77520752 0.25098039 0.27450980 0.65882353
v -0.12134811 0.10296977 -13.77488422 0.25098039 0.27450980 0.65882353
v -0.11765741 0.09955965 -13.77386284 0.25098039 0.27450980 0.65882353
v -0.11658899 0.10234889 -13.77572823 0.25098039 0.27450980 0.65882353
v -0.12994124 0.10326554 -13.77552986 0.25098039 0.27450980 0.65882353
v -0.12449597 0.09954309 -13.77476788 0.25098039 0.27450980 0.65882353
v -0.12643658 0.09603401 -13.77628517 0.25098039 0.27450980 0.65882353
v -0.12193048 0.09317099 -13.77480984 0.25098039 0.27450980 0.65882353
v -0.12005317 0.09618925 -13.77336502 0.25098039 0.27450980 0.65882353
v -0.13011076 0.09881408 -13.77639198 0.25098039 0.27450980 0.65882353
v -0.13205495 0.10446590 -13.77558041 0.25098039 0.27450980 0.65882353
v -0.11461481 0.09830903 -13.77505302 0.25098039 0.27450980 0.65882353
v -0.11599968 0.09727669 -13.77324390 0.25098039 0.27450980 0.65882353
v -0.11752304 0.09432394 -13.77320671 0.25098039 0.27450980 0.65882353
v -0.11518885 0.09333728 -13.77474880 0.25098039 0.27450980 0.65882353
v -0.12622362 0.11121678 -13.78094482 0.25098039 0.27450980 0.65882353
v -0.11974803 0.10651730 -13.77886772 0.25098039 0.27450980 0.65882353
v -0.11590712 0.10200217 -13.77884483 0.25098039 0.27450980 0.65882353
v -0.11411487 0.09798200 -13.77786064 0.25098039 0.27450980 0.65882353
v -0.11880697 0.10442334 -13.78237629 0.25098039 0.27450980 0.65882353
v -0.11621635 0.10073491 -13.78157425 0.25098039 0.27450980 0.65882353
v -0.11495277 0.09706208 -13.78094673 0.25098039 0.27450980 0.65882353
v -0.11912129 0.10135753 -13.78555870 0.25098039 0.27450980 0.65882353
v -0.11695025 0.09849891 -13.78384686 0.25098039 0.27450980 0.65882353
v -0.12716168 0.10828349 -13.78875446 0.25098039 0.27450980 0.65882353
v -0.12676316 0.11149911 -13.78577518 0.25098039 0.27450980 0.65882353
v -0.11562703 0.09658740 -13.78297234 0.25098039 0.27450980 0.65882353
v -0.11491938 0.09279924 -13.77687550 0.25098039 0.27450980 0.65882353
v -0.12871729 0.09450090 -13.77882481 0.25098039 0.27450980 0.65882353
v -0.12242046 0.09162771 -13.77770615 0.25098039 0.27450980 0.65882353
v -0.12872972 0.09355693 -13.78108788 0.25098039 0.27450980 0.65882353
v -0.12271339 0.09049018 -13.77979755 0.25098039 0.27450980 0.65882353
v -0.11862911 0.09019879 -13.77599049 0.25098039 0.27450980 0.65882353
v -0.11923462 0.09210370 -13.77442455 0.25098039 0.27450980 0.65882353
v -0.12959898 0.10941023 -13.79049969 0.25098039 0.27450980 0.65882353
v -0.13204738 0.10407888 -13.79247093 0.25098039 0.27450980 0.65882353
v -0.12998347 0.10298502 -13.79117393 0.25098039 0.27450980 0.65882353
v -0.12140716 0.09748408 -13.78750992 0.25098039 0.27450980 0.65882353
v -0.13188234 0.09906413 -13.79032803 0.25098039 0.27450980 0.65882353
v -0.13288814 0.09594612 -13.78540325 0.25098039 0.27450980 0.65882353
v -0.12711729 0.09287156 -13.78351879 0.25098039 0.27450980 0.65882353
v -0.12492573 0.09382987 -13.78617096 0.25098039 0.27450980 0.65882353
v -0.12225012 0.09096690 -13.78228569 0.25098039 0.27450980 0.65882353
v -0.12106691 0.09246895 -13.78404999 0.25098039 0.27450980 0.65882353
v -0.11853722 0.09534034 -13.78502178 0.25098039 0.27450980 0.65882353
v -0.11840084 0.09092816 -13.78105640 0.25098039 0.27450980 0.65882353
v -0.11855587 0.09010692 -13.77819443 0.25098039 0.27450980 0.65882353
v -0.11558042 0.09326064 -13.78019047 0.25098039 0.27450980 0.65882353
v -0.11864866 0.09187004 -13.78274155 0.25098039 0.27450980 0.65882353
v -0.11673987 0.09421790 -13.78239155 0.25098039 0.27450980 0.65882353
v -0.14092585 0.09590155 -13.79920292 0.25098039 0.27450980 0.65882353
v -0.14161839 0.08972323 -13.80213261 0.25098039 0.27450980 0.65882353
v -0.14463216 0.09197681 -13.80347061 0.25098039 0.27450980 0.65882353
v -0.14379589 0.09719059 -13.80116177 0.25098039 0.27450980 0.65882353
v -0.15086678 0.09701043 -13.78863430 0.25098039 0.27450980 0.65882353
v -0.14566620 0.09904651 -13.79188633 0.25098039 0.27450980 0.65882353
v -0.14990352 0.10171029 -13.79394436 0.25098039 0.27450980 0.65882353
v -0.15614995 0.09903602 -13.79181671 0.25098039 0.27450980 0.65882353
v -0.15567183 0.09115124 -13.78964329 0.25098039 0.27450980 0.65882353
v -0.16062760 0.09320278 -13.79318428 0.25098039 0.27450980 0.65882353
v -0.15918890 0.10229389 -13.79608154 0.25098039 0.27450980 0.65882353
v -0.15246132 0.10450228 -13.79807281 0.25098039 0.27450980 0.65882353
v -0.15537390 0.11285268 -13.81706905 0.25098039 0.27450980 0.65882353
v -0.16248634 0.11153928 -13.81604004 0.25098039 0.27450980 0.65882353
v -0.14949808 0.09533250 -13.82505131 0.25098039 0.27450980 0.65882353
v -0.15342218 0.09298172 -13.82399082 0.25098039 0.27450980 0.65882353
v -0.14237684 0.09823766 -13.79607296 0.25098039 0.27450980 0.65882353
v -0.14593369 0.10038272 -13.79780865 0.25098039 0.27450980 0.65882353
v -0.15112422 0.08518875 -13.80767059 0.25098039 0.27450980 0.65882353
v -0.14635494 0.08858644 -13.80790997 0.25098039 0.27450980 0.65882353
v -0.14605220 0.08729885 -13.80509472 0.25098039 0.27450980 0.65882353
v -0.15045635 0.08372062 -13.80404854 0.25098039 0.27450980 0.65882353
v -0.14749447 0.10805534 -13.82140732 0.25098039 0.27450980 0.65882353
v -0.14813809 0.10152132 -13.82390594 0.25098039 0.27450980 0.65882353
v -0.15036358 0.11104892 -13.81907558 0.25098039 0.27450980 0.65882353
v -0.15765347 0.08450331 -13.80518246 0.25098039 0.27450980 0.65882353
v -0.16290131 0.08764759 -13.80150032 0.25098039 0.27450980 0.65882353
v -0.16757484 0.09654745 -13.81939030 0.25098039 0.27450980 0.65882353
v -0.16237231 0.09200791 -13.82128525 0.25098039 0.27450980 0.65882353
v -0.14745781 0.10323192 -13.80074215 0.25098039 0.27450980 0.65882353
v -0.14376321 0.09398308 -13.80590725 0.25098039 0.27450980 0.65882353
v -0.14378691 0.09955211 -13.80370235 0.25098039 0.27450980 0.65882353
v -0.16332877 0.09586246 -13.79828453 0.25098039 0.27450980 0.65882353
v -0.15932916 0.08549155 -13.79645729 0.25098039 0.27450980 0.65882353
v -0.14235726 0.07557081 -13.79088974 0.25098039 0.27450980 0.65882353
v -0.15121454 0.08020744 -13.79718018 0.25098039 0.27450980 0.65882353
v -0.14730430 0.08116429 -13.80100727 0.25098039 0.27450980 0.65882353
v -0.13886262 0.07540105 -13.79506779 0.25098039 0.27450980 0.65882353
v -0.15500329 0.08273704 -13.80076790 0.25098039 0.27450980 0.65882353
v -0.15445735 0.08345158 -13.79295444 0.25098039 0.27450980 0.65882353
v -0.13049610 0.08791584 -13.79457092 0.25098039 0.27450980 0.65882353
v -0.13191420 0.08198520 -13.79757786 0.25098039 0.27450980 0.65882353
v -0.13116431 0.09091058 -13.79062843 0.25098039 0.27450980 0.65882353
v -0.16744000 0.10535081 -13.81747437 0.25098039 0.27450980 0.65882353
v -0.13949791 0.09062676 -13.78331089 0.25098039 0.27450980 0.65882353
v -0.13391672 0.09222063 -13.78711891 0.25098039 0.27450980 0.65882353
v -0.14381692 0.08463028 -13.80347157 0.25098039 0.27450980 0.65882353
v -0.13480003 0.07751141 -13.79764080 0.25098039 0.27450980 0.65882353
v -0.14425659 0.07812011 -13.78721428 0.25098039 0.27450980 0.65882353
v -0.14471985 0.08543735 -13.78383064 0.25098039 0.27450980 0.65882353
v -0.13913254 0.07606152 -13.78487873 0.25098039 0.27450980 0.65882353
v -0.13842411 0.08225308 -13.78159809 0.25098039 0.27450980 0.65882353
v -0.13377808 0.08777135 -13.78163338 0.25098039 0.27450980 0.65882353
v -0.13002956 0.08979529 -13.78613472 0.25098039 0.27450980 0.65882353
v -0.12877965 0.08896352 -13.79005814 0.25098039 0.27450980 0.65882353
v -0.13757168 0.07369687 -13.78867245 0.25098039 0.27450980 0.65882353
v -0.13501024 0.07371451 -13.79302025 0.25098039 0.27450980 0.65882353
v -0.13268358 0.07704759 -13.79641914 0.25098039 0.27450980 0.65882353
v -0.13093741 0.07148467 -13.78918076 0.25098039 0.27450980 0.65882353
v -0.13072729 0.07289103 -13.78460217 0.25098039 0.27450980 0.65882353
v -0.11367735 0.08115113 -13.78409100 0.25098039 0.27450980 0.65882353
v -0.11918331 0.08322062 -13.78303432 0.25098039 0.27450980 0.65882353
v -0.11977199 0.08072069 -13.78203297 0.25098039 0.27450980 0.65882353
v -0.11471096 0.07875529 -13.78280544 0.25098039 0.27450980 0.65882353
v -0.12516615 0.08373129 -13.78088474 0.25098039 0.27450980 0.65882353
v -0.12428017 0.08128092 -13.78095818 0.25098039 0.27450980 0.65882353
v -0.12736452 0.07754668 -13.78142357 0.25098039 0.27450980 0.65882353
v -0.12159275 0.07601492 -13.78271389 0.25098039 0.27450980 0.65882353
v -0.12371100 0.07217772 -13.78518677 0.25098039 0.27450980 0.65882353
v -0.11845312 0.07014243 -13.78521633 0.25098039 0.27450980 0.65882353
v -0.11613543 0.07377246 -13.78271389 0.25098039 0.27450980 0.65882353
v -0.12737350 0.07397193 -13.78342438 0.25098039 0.27450980 0.65882353
v -0.11188991 0.07660606 -13.78336906 0.25098039 0.27450980 0.65882353
v -0.11010931 0.07691970 -13.78519917 0.25098039 0.27450980 0.65882353
v -0.13027008 0.07857588 -13.78032875 0.25098039 0.27450980 0.65882353
v -0.12645447 0.08812565 -13.78499126 0.25098039 0.27450980 0.65882353
v -0.11819836 0.08480076 -13.78574944 0.25098039 0.27450980 0.65882353
v -0.11268526 0.08161375 -13.78730488 0.25098039 0.27450980 0.65882353
v -0.10968015 0.07618910 -13.78815174 0.25098039 0.27450980 0.65882353
v -0.11751471 0.08401447 -13.79012489 0.25098039 0.27450980 0.65882353
v -0.11268449 0.08056011 -13.79047108 0.25098039 0.27450980 0.65882353
v -0.11068550 0.07587153 -13.79069710 0.25098039 0.27450980 0.65882353
v -0.11789522 0.08153205 -13.79449177 0.25098039 0.27450980 0.65882353
v -0.11345948 0.07797202 -13.79389668 0.25098039 0.27450980 0.65882353
v -0.12731987 0.08578434 -13.79420471 0.25098039 0.27450980 0.65882353
v -0.12636892 0.08840246 -13.79000568 0.25098039 0.27450980 0.65882353
v -0.11206958 0.07602459 -13.79271698 0.25098039 0.27450980 0.65882353
v -0.11064431 0.07206532 -13.78495026 0.25098039 0.27450980 0.65882353
v -0.10999730 0.07198998 -13.78827381 0.25098039 0.27450980 0.65882353
v -0.11209677 0.07259689 -13.78389835 0.25098039 0.27450980 0.65882353
v -0.12442747 0.07076455 -13.78679180 0.25098039 0.27450980 0.65882353
v -0.11829054 0.06921783 -13.78732681 0.25098039 0.27450980 0.65882353
v -0.12443728 0.06977101 -13.78958416 0.25098039 0.27450980 0.65882353
v -0.11761390 0.06847485 -13.78958416 0.25098039 0.27450980 0.65882353
v -0.11369605 0.06887199 -13.78680897 0.25098039 0.27450980 0.65882353
v -0.11387838 0.06965379 -13.78534031 0.25098039 0.27450980 0.65882353
v -0.12920435 0.08620460 -13.79373837 0.25098039 0.27450980 0.65882353
v -0.13086750 0.08116842 -13.79648972 0.25098039 0.27450980 0.65882353
v -0.12939402 0.08094437 -13.79703903 0.25098039 0.27450980 0.65882353
v -0.11994852 0.07678873 -13.79660320 0.25098039 0.27450980 0.65882353
v -0.13119565 0.07628788 -13.79665279 0.25098039 0.27450980 0.65882353
v -0.13081011 0.07229467 -13.79292107 0.25098039 0.27450980 0.65882353
v -0.12419496 0.07014327 -13.79256153 0.25098039 0.27450980 0.65882353
v -0.12221163 0.07242080 -13.79560375 0.25098039 0.27450980 0.65882353
v -0.11768430 0.06818733 -13.79183483 0.25098039 0.27450980 0.65882353
v -0.11809267 0.07047489 -13.79426670 0.25098039 0.27450980 0.65882353
v -0.11548824 0.07459812 -13.79546261 0.25098039 0.27450980 0.65882353
v -0.11318403 0.06858496 -13.79088688 0.25098039 0.27450980 0.65882353
v -0.11317626 0.06848592 -13.78846741 0.25098039 0.27450980 0.65882353
v -0.11068366 0.07233957 -13.79037952 0.25098039 0.27450980 0.65882353
v -0.11438775 0.07009557 -13.79315376 0.25098039 0.27450980 0.65882353
v -0.11239134 0.07326312 -13.79300690 0.25098039 0.27450980 0.65882353
v -0.14063498 0.07752287 -13.81255054 0.25098039 0.27450980 0.65882353
v -0.13896886 0.07377554 -13.81730938 0.25098039 0.27450980 0.65882353
v -0.14104301 0.07532682 -13.81925201 0.25098039 0.27450980 0.65882353
v -0.14276811 0.07918444 -13.81471443 0.25098039 0.27450980 0.65882353
v -0.15065983 0.07173505 -13.80642223 0.25098039 0.27450980 0.65882353
v -0.14710981 0.07532001 -13.80609035 0.25098039 0.27450980 0.65882353
v -0.15015692 0.07761060 -13.80865669 0.25098039 0.27450980 0.65882353
v -0.15479414 0.07468796 -13.80951881 0.25098039 0.27450980 0.65882353
v -0.15079865 0.06620659 -13.80852222 0.25098039 0.27450980 0.65882353
v -0.15650779 0.06936525 -13.81276894 0.25098039 0.27450980 0.65882353
v -0.15889253 0.07771805 -13.81276321 0.25098039 0.27450980 0.65882353
v -0.15307373 0.08028202 -13.81148052 0.25098039 0.27450980 0.65882353
v -0.15882155 0.08859320 -13.82337761 0.25098039 0.27450980 0.65882353
v -0.16472584 0.08458411 -13.82404518 0.25098039 0.27450980 0.65882353
v -0.14369923 0.07728493 -13.80881691 0.25098039 0.27450980 0.65882353
v -0.14595538 0.07929066 -13.81099796 0.25098039 0.27450980 0.65882353
v -0.14414984 0.06791466 -13.82593536 0.25098039 0.27450980 0.65882353
v -0.14153337 0.07222818 -13.82465458 0.25098039 0.27450980 0.65882353
v -0.14132744 0.07021797 -13.82220268 0.25098039 0.27450980 0.65882353
v -0.14359121 0.06650715 -13.82303715 0.25098039 0.27450980 0.65882353
v -0.14910105 0.08930797 -13.83016682 0.25098039 0.27450980 0.65882353
v -0.14864835 0.08449331 -13.83495712 0.25098039 0.27450980 0.65882353
v -0.15268676 0.08999538 -13.82575226 0.25098039 0.27450980 0.65882353
v -0.15034837 0.06498235 -13.82461834 0.25098039 0.27450980 0.65882353
v -0.15756144 0.06637862 -13.82148838 0.25098039 0.27450980 0.65882353
v -0.16178674 0.07255365 -13.83409023 0.25098039 0.27450980 0.65882353
v -0.15565041 0.07267694 -13.83709812 0.25098039 0.27450980 0.65882353
v -0.14796239 0.08161199 -13.81314564 0.25098039 0.27450980 0.65882353
v -0.14123368 0.07762084 -13.82161140 0.25098039 0.27450980 0.65882353
v -0.14328921 0.08138971 -13.81682777 0.25098039 0.27450980 0.65882353
v -0.16033563 0.07245638 -13.81671047 0.25098039 0.27450980 0.65882353
v -0.15335035 0.06429905 -13.81729889 0.25098039 0.27450980 0.65882353
v -0.13515750 0.05457143 -13.80898571 0.25098039 0.27450980 0.65882353
v -0.14608119 0.06126082 -13.81857681 0.25098039 0.27450980 0.65882353
v -0.14152667 0.06480449 -13.82101154 0.25098039 0.27450980 0.65882353
v -0.13218835 0.05652179 -13.81196213 0.25098039 0.27450980 0.65882353
v -0.14808303 0.06311288 -13.82133865 0.25098039 0.27450980 0.65882353
v -0.14985269 0.06193782 -13.81383514 0.25098039 0.27450980 0.65882353
v -0.12920001 0.07024478 -13.80586910 0.25098039 0.27450980 0.65882353
v -0.12867706 0.06631207 -13.81047535 0.25098039 0.27450980 0.65882353
v -0.13229097 0.07090902 -13.80245590 0.25098039 0.27450980 0.65882353
v -0.16654761 0.07812597 -13.82839680 0.25098039 0.27450980 0.65882353
v -0.14987010 0.07665770 -13.83830357 0.25098039 0.27450980 0.65882353
v -0.13701749 0.06621536 -13.79809189 0.25098039 0.27450980 0.65882353
v -0.13441685 0.06965008 -13.79979134 0.25098039 0.27450980 0.65882353
v -0.13951910 0.06891656 -13.82035351 0.25098039 0.27450980 0.65882353
v -0.12970559 0.06069219 -13.81292629 0.25098039 0.27450980 0.65882353
v -0.13837159 0.05580050 -13.80506325 0.25098039 0.27450980 0.65882353
v -0.13994667 0.06092892 -13.80049515 0.25098039 0.27450980 0.65882353
v -0.13258633 0.05385591 -13.80347157 0.25098039 0.27450980 0.65882353
v -0.13353795 0.05846078 -13.79860306 0.25098039 0.27450980 0.65882353
v -0.13108841 0.06380526 -13.79638767 0.25098039 0.27450980 0.65882353
v -0.12947661 0.06781112 -13.79856968 0.25098039 0.27450980 0.65882353
v -0.12816656 0.06939454 -13.80143738 0.25098039 0.27450980 0.65882353
v -0.13017198 0.05365553 -13.80819321 0.25098039 0.27450980 0.65882353
v -0.12860289 0.05626386 -13.81100941 0.25098039 0.27450980 0.65882353
v -0.12892453 0.06082061 -13.81188202 0.25098039 0.27450980 0.65882353
v -0.12600711 0.05382407 -13.80920601 0.25098039 0.27450980 0.65882353
v -0.12537725 0.05322801 -13.80340290 0.25098039 0.27450980 0.65882353
v -0.11166036 0.06274289 -13.79950142 0.25098039 0.27450980 0.65882353
v -0.11737058 0.06318111 -13.79858780 0.25098039 0.27450980 0.65882353
v -0.11746001 0.06188142 -13.79875755 0.25098039 0.27450980 0.65882353
v -0.11172974 0.06106070 -13.79925537 0.25098039 0.27450980 0.65882353
v -0.12376726 0.06171857 -13.79676342 0.25098039 0.27450980 0.65882353
v -0.12226416 0.06051287 -13.79745865 0.25098039 0.27450980 0.65882353
v -0.12369123 0.05698627 -13.79896927 0.25098039 0.27450980 0.65882353
v -0.11739257 0.05678559 -13.80030441 0.25098039 0.27450980 0.65882353
v -0.11879212 0.05402122 -13.80576992 0.25098039 0.27450980 0.65882353
v -0.11370021 0.05467097 -13.80583096 0.25098039 0.27450980 0.65882353
v -0.11199398 0.05665316 -13.80082512 0.25098039 0.27450980 0.65882353
v -0.12353693 0.05415072 -13.80289364 0.25098039 0.27450980 0.65882353
v -0.10889836 0.06000294 -13.80017567 0.25098039 0.27450980 0.65882353
v -0.10766008 0.06141372 -13.79952908 0.25098039 0.27450980 0.65882353
v -0.12614411 0.05684488 -13.79818058 0.25098039 0.27450980 0.65882353
v -0.12430797 0.06681952 -13.79762936 0.25098039 0.27450980 0.65882353
v -0.11700343 0.06618488 -13.79920578 0.25098039 0.27450980 0.65882353
v -0.11120640 0.06598298 -13.80023766 0.25098039 0.27450980 0.65882353
v -0.10774090 0.06400333 -13.80216980 0.25098039 0.27450980 0.65882353
v -0.11688815 0.06804874 -13.80264187 0.25098039 0.27450980 0.65882353
v -0.11181304 0.06700596 -13.80319500 0.25098039 0.27450980 0.65882353
v -0.10855073 0.06517127 -13.80475426 0.25098039 0.27450980 0.65882353
v -0.11696036 0.06805158 -13.80618763 0.25098039 0.27450980 0.65882353
v -0.11256669 0.06669826 -13.80649662 0.25098039 0.27450980 0.65882353
v -0.12581216 0.06900945 -13.80516911 0.25098039 0.27450980 0.65882353
v -0.12506112 0.06899843 -13.80107212 0.25098039 0.27450980 0.65882353
v -0.10994554 0.06518596 -13.80667210 0.25098039 0.27450980 0.65882353
v -0.10702889 0.05745699 -13.80231571 0.25098039 0.27450980 0.65882353
v -0.10657849 0.05974396 -13.80587864 0.25098039 0.27450980 0.65882353
v -0.10875763 0.05741838 -13.80197334 0.25098039 0.27450980 0.65882353
v -0.11958145 0.05348349 -13.80753708 0.25098039 0.27450980 0.65882353
v -0.11306122 0.05387041 -13.80803680 0.25098039 0.27450980 0.65882353
v -0.11974701 0.05445217 -13.81045055 0.25098039 0.27450980 0.65882353
v -0.11332986 0.05481341 -13.81060028 0.25098039 0.27450980 0.65882353
v -0.10926242 0.05477064 -13.80628872 0.25098039 0.27450980 0.65882353
v -0.10988688 0.05508156 -13.80535316 0.25098039 0.27450980 0.65882353
v -0.12780060 0.06867041 -13.80545807 0.25098039 0.27450980 0.65882353
v -0.12802860 0.06544872 -13.80980301 0.25098039 0.27450980 0.65882353
v -0.12664849 0.06639879 -13.80962753 0.25098039 0.27450980 0.65882353
v -0.11729202 0.06583207 -13.81081390 0.25098039 0.27450980 0.65882353
v -0.12742244 0.06202653 -13.81219864 0.25098039 0.27450980 0.65882353
v -0.12491289 0.05680615 -13.81178284 0.25098039 0.27450980 0.65882353
v -0.11919886 0.05741918 -13.81238270 0.25098039 0.27450980 0.65882353
v -0.11794933 0.06135923 -13.81283379 0.25098039 0.27450980 0.65882353
v -0.11354439 0.05727497 -13.81221104 0.25098039 0.27450980 0.65882353
v -0.11423460 0.06014922 -13.81215954 0.25098039 0.27450980 0.65882353
v -0.11296357 0.06487255 -13.81045818 0.25098039 0.27450980 0.65882353
v -0.11007068 0.05843706 -13.81011677 0.25098039 0.27450980 0.65882353
v -0.10919192 0.05604022 -13.80866718 0.25098039 0.27450980 0.65882353
v -0.10784680 0.06185370 -13.80784321 0.25098039 0.27450980 0.65882353
v -0.11103123 0.06058558 -13.81094074 0.25098039 0.27450980 0.65882353
v -0.10946006 0.06324920 -13.80913925 0.25098039 0.27450980 0.65882353
v -0.14859343 0.08029427 -13.83753395 0.25098039 0.27450980 0.65882353
v -0.13329037 0.06364475 -13.83561325 0.25098039 0.27450980 0.65882353
v -0.13143808 0.06177482 -13.83902550 0.25098039 0.27450980 0.65882353
v -0.13391232 0.06201642 -13.84167099 0.25098039 0.27450980 0.65882353
v -0.13576159 0.06508042 -13.83898163 0.25098039 0.27450980 0.65882353
v -0.14178073 0.05708300 -13.83225155 0.25098039 0.27450980 0.65882353
v -0.13914466 0.06072172 -13.83152008 0.25098039 0.27450980 0.65882353
v -0.14270671 0.06297825 -13.83446693 0.25098039 0.27450980 0.65882353
v -0.14532039 0.05960408 -13.83503628 0.25098039 0.27450980 0.65882353
v -0.14156732 0.05296485 -13.83486557 0.25098039 0.27450980 0.65882353
v -0.14513865 0.05521847 -13.83780098 0.25098039 0.27450980 0.65882353
v -0.14849705 0.06147132 -13.83708382 0.25098039 0.27450980 0.65882353
v -0.14539850 0.06508994 -13.83672237 0.25098039 0.27450980 0.65882353
v -0.15340862 0.07270756 -13.84604359 0.25098039 0.27450980 0.65882353
v -0.15757249 0.06917150 -13.84837723 0.25098039 0.27450980 0.65882353
v -0.14574133 0.06106567 -13.86323071 0.25098039 0.27450980 0.65882353
v -0.14256197 0.06606876 -13.86296654 0.25098039 0.27450980 0.65882353
v -0.13967340 0.06233264 -13.85660934 0.25098039 0.27450980 0.65882353
v -0.14307371 0.05848777 -13.85826397 0.25098039 0.27450980 0.65882353
v -0.13608801 0.06298696 -13.83293152 0.25098039 0.27450980 0.65882353
v -0.13881272 0.06556994 -13.83596516 0.25098039 0.27450980 0.65882353
v -0.13714707 0.05428470 -13.84905243 0.25098039 0.27450980 0.65882353
v -0.13480878 0.05846424 -13.84743500 0.25098039 0.27450980 0.65882353
v -0.13333419 0.05873638 -13.84481335 0.25098039 0.27450980 0.65882353
v -0.13441598 0.05419504 -13.84655666 0.25098039 0.27450980 0.65882353
v -0.14156091 0.07023995 -13.85856152 0.25098039 0.27450980 0.65882353
v -0.14324597 0.07285348 -13.85380268 0.25098039 0.27450980 0.65882353
v -0.14111549 0.07166094 -13.85136127 0.25098039 0.27450980 0.65882353
v -0.13879429 0.06663965 -13.85290241 0.25098039 0.27450980 0.65882353
v -0.14539927 0.07364345 -13.84726334 0.25098039 0.27450980 0.65882353
v -0.14069299 0.05199387 -13.84804916 0.25098039 0.27450980 0.65882353
v -0.14555129 0.05227516 -13.84447479 0.25098039 0.27450980 0.65882353
v -0.15409864 0.05677553 -13.85663700 0.25098039 0.27450980 0.65882353
v -0.14877534 0.05687715 -13.85867786 0.25098039 0.27450980 0.65882353
v -0.14102742 0.06673874 -13.83726311 0.25098039 0.27450980 0.65882353
v -0.13483429 0.06253996 -13.84422684 0.25098039 0.27450980 0.65882353
v -0.13660148 0.06550883 -13.84059811 0.25098039 0.27450980 0.65882353
v -0.14901832 0.05627152 -13.83987617 0.25098039 0.27450980 0.65882353
v -0.14206037 0.05164165 -13.84207249 0.25098039 0.27450980 0.65882353
v -0.12695070 0.04770657 -13.83767033 0.25098039 0.27450980 0.65882353
v -0.13457763 0.05052019 -13.84371948 0.25098039 0.27450980 0.65882353
v -0.13117173 0.05419721 -13.84423161 0.25098039 0.27450980 0.65882353
v -0.12514025 0.05011826 -13.83786964 0.25098039 0.27450980 0.65882353
v -0.13791016 0.05143024 -13.84564209 0.25098039 0.27450980 0.65882353
v -0.13853890 0.04973204 -13.83950424 0.25098039 0.27450980 0.65882353
v -0.12647730 0.05954486 -13.82946968 0.25098039 0.27450980 0.65882353
v -0.12478346 0.05717304 -13.83411980 0.25098039 0.27450980 0.65882353
v -0.12880337 0.05892584 -13.82723331 0.25098039 0.27450980 0.65882353
v -0.15861018 0.06296643 -13.85222244 0.25098039 0.27450980 0.65882353
v -0.13344231 0.05277299 -13.82642937 0.25098039 0.27450980 0.65882353
v -0.13104233 0.05657873 -13.82556438 0.25098039 0.27450980 0.65882353
v -0.13059901 0.05850609 -13.84193516 0.25098039 0.27450980 0.65882353
v -0.12447964 0.05359540 -13.83679867 0.25098039 0.27450980 0.65882353
v -0.13012828 0.04641255 -13.83515453 0.25098039 0.27450980 0.65882353
v -0.13376942 0.04829042 -13.83011246 0.25098039 0.27450980 0.65882353
v -0.12585902 0.04513089 -13.83230972 0.25098039 0.27450980 0.65882353
v -0.12999982 0.04705977 -13.82756042 0.25098039 0.27450980 0.65882353
v -0.12954094 0.05186154 -13.82380581 0.25098039 0.27450980 0.65882353
v -0.12840798 0.05557421 -13.82404518 0.25098039 0.27450980 0.65882353
v -0.12655066 0.05795515 -13.82535553 0.25098039 0.27450980 0.65882353
v -0.12294641 0.04672729 -13.83515549 0.25098039 0.27450980 0.65882353
v -0.12156701 0.04955389 -13.83575916 0.25098039 0.27450980 0.65882353
v -0.12157977 0.05337501 -13.83524323 0.25098039 0.27450980 0.65882353
v -0.11927085 0.04616527 -13.83253098 0.25098039 0.27450980 0.65882353
v -0.12107945 0.04441436 -13.82835484 0.25098039 0.27450980 0.65882353
v -0.11573298 0.05178998 -13.81833839 0.25098039 0.27450980 0.65882353
v -0.11950953 0.05219246 -13.81979179 0.25098039 0.27450980 0.65882353
v -0.11962713 0.05093343 -13.81992245 0.25098039 0.27450980 0.65882353
v -0.11605507 0.05078000 -13.81780243 0.25098039 0.27450980 0.65882353
v -0.12439839 0.05094794 -13.82171631 0.25098039 0.27450980 0.65882353
v -0.12327170 0.04972450 -13.82176971 0.25098039 0.27450980 0.65882353
v -0.12367808 0.04709092 -13.82422733 0.25098039 0.27450980 0.65882353
v -0.11912463 0.04695587 -13.82145500 0.25098039 0.27450980 0.65882353
v -0.11617758 0.04461198 -13.82549000 0.25098039 0.27450980 0.65882353
v -0.11286139 0.04486037 -13.82298851 0.25098039 0.27450980 0.65882353
v -0.11580600 0.04668703 -13.81952953 0.25098039 0.27450980 0.65882353
v -0.12073404 0.04465900 -13.82628727 0.25098039 0.27450980 0.65882353
v -0.11379540 0.04960205 -13.81686592 0.25098039 0.27450980 0.65882353
v -0.11284667 0.05030814 -13.81635761 0.25098039 0.27450980 0.65882353
v -0.12520975 0.04684059 -13.82476807 0.25098039 0.27450980 0.65882353
v -0.12480724 0.05518226 -13.82231236 0.25098039 0.27450980 0.65882353
v -0.11853511 0.05449663 -13.81970310 0.25098039 0.27450980 0.65882353
v -0.11408171 0.05329715 -13.81791115 0.25098039 0.27450980 0.65882353
v -0.11110197 0.05127255 -13.81744099 0.25098039 0.27450980 0.65882353
v -0.11813062 0.05647723 -13.82143211 0.25098039 0.27450980 0.65882353
v -0.11297262 0.05495917 -13.81917953 0.25098039 0.27450980 0.65882353
v -0.11008038 0.05280832 -13.81893730 0.25098039 0.27450980 0.65882353
v -0.11680444 0.05764621 -13.82433796 0.25098039 0.27450980 0.65882353
v -0.11233890 0.05550374 -13.82165146 0.25098039 0.27450980 0.65882353
v -0.12234622 0.05878472 -13.82771969 0.25098039 0.27450980 0.65882353
v -0.12376650 0.05768605 -13.82444382 0.25098039 0.27450980 0.65882353
v -0.11036436 0.05340127 -13.82059669 0.25098039 0.27450980 0.65882353
v -0.11124741 0.04712713 -13.81772232 0.25098039 0.27450980 0.65882353
v -0.10939778 0.04899687 -13.81900501 0.25098039 0.27450980 0.65882353
v -0.11245097 0.04652570 -13.81797314 0.25098039 0.27450980 0.65882353
v -0.11554904 0.04459145 -13.82688713 0.25098039 0.27450980 0.65882353
v -0.11157481 0.04496438 -13.82390118 0.25098039 0.27450980 0.65882353
v -0.11434670 0.04587494 -13.82895660 0.25098039 0.27450980 0.65882353
v -0.11031672 0.04646159 -13.82498360 0.25098039 0.27450980 0.65882353
v -0.11006036 0.04561604 -13.82080460 0.25098039 0.27450980 0.65882353
v -0.11176906 0.04540850 -13.82044983 0.25098039 0.27450980 0.65882353
v -0.12395965 0.05896986 -13.82848263 0.25098039 0.27450980 0.65882353
v -0.12259106 0.05695750 -13.83252621 0.25098039 0.27450980 0.65882353
v -0.12063500 0.05669715 -13.83148956 0.25098039 0.27450980 0.65882353
v -0.11515903 0.05622163 -13.82785892 0.25098039 0.27450980 0.65882353
v -0.11939153 0.05310231 -13.83401012 0.25098039 0.27450980 0.65882353
v -0.11894739 0.04910231 -13.83401585 0.25098039 0.27450980 0.65882353
v -0.11366193 0.04861087 -13.82993221 0.25098039 0.27450980 0.65882353
v -0.11361788 0.05228853 -13.82987022 0.25098039 0.27450980 0.65882353
v -0.10957859 0.04857466 -13.82546806 0.25098039 0.27450980 0.65882353
v -0.10995565 0.05167910 -13.82580948 0.25098039 0.27450980 0.65882353
v -0.11101963 0.05450846 -13.82446289 0.25098039 0.27450980 0.65882353
v -0.10858673 0.04929733 -13.82207870 0.25098039 0.27450980 0.65882353
v -0.10874650 0.04751037 -13.82139969 0.25098039 0.27450980 0.65882353
v -0.10896036 0.05061015 -13.82032967 0.25098039 0.27450980 0.65882353
v -0.10885663 0.05111675 -13.82282639 0.25098039 0.27450980 0.65882353
v -0.10941202 0.05230639 -13.82189083 0.25098039 0.27450980 0.65882353
v -0.14919364 0.05927003 -13.86145878 0.25098039 0.27450980 0.65882353
v -0.09716147 0.12517124 -13.83898735 0.25098039 0.27450980 0.65882353
v -0.10140330 0.12110747 -13.83840275 0.25098039 0.27450980 0.65882353
v -0.09405318 0.10605489 -13.84601498 0.25098039 0.27450980 0.65882353
v -0.10006106 0.10892197 -13.84111214 0.25098039 0.27450980 0.65882353
v -0.08747497 0.10778782 -13.84916592 0.25098039 0.27450980 0.65882353
v -0.08247162 0.11874771 -13.84891224 0.25098039 0.27450980 0.65882353
v -0.08396843 0.11281410 -13.85071754 0.25098039 0.27450980 0.65882353
v -0.10244450 0.11454158 -13.83862495 0.25098039 0.27450980 0.65882353
v -0.09155770 0.12701209 -13.84148598 0.25098039 0.27450980 0.65882353
v -0.08507948 0.12491538 -13.84574604 0.25098039 0.27450980 0.65882353
v -0.08723876 0.12411942 -13.83331966 0.25098039 0.27450980 0.65882353
v -0.08085139 0.12114944 -13.83799934 0.25098039 0.27450980 0.65882353
v -0.07812805 0.11467300 -13.84144402 0.25098039 0.27450980 0.65882353
v -0.08141780 0.10875571 -13.84439278 0.25098039 0.27450980 0.65882353
v -0.08504221 0.10506134 -13.84467030 0.25098039 0.27450980 0.65882353
v -0.09460802 0.12183643 -13.83265495 0.25098039 0.27450980 0.65882353
v -0.09893735 0.11767568 -13.83272171 0.25098039 0.27450980 0.65882353
v -0.10040475 0.11134807 -13.83524513 0.25098039 0.27450980 0.65882353
v -0.09289864 0.11658289 -13.82619667 0.25098039 0.27450980 0.65882353
v -0.08575447 0.11082798 -13.82156849 0.25098039 0.27450980 0.65882353
v -0.07651325 0.09412370 -13.82259083 0.25098039 0.27450980 0.65882353
v -0.07755563 0.09770352 -13.82792187 0.25098039 0.27450980 0.65882353
v -0.07732750 0.09963353 -13.82567692 0.25098039 0.27450980 0.65882353
v -0.07579289 0.09629381 -13.82107639 0.25098039 0.27450980 0.65882353
v -0.07753100 0.10271578 -13.83002663 0.25098039 0.27450980 0.65882353
v -0.07814156 0.10304988 -13.82769489 0.25098039 0.27450980 0.65882353
v -0.08056381 0.10727595 -13.82523346 0.25098039 0.27450980 0.65882353
v -0.07915208 0.10397711 -13.82115459 0.25098039 0.27450980 0.65882353
v -0.08408614 0.10853963 -13.82165909 0.25098039 0.27450980 0.65882353
v -0.08453177 0.10613167 -13.81862450 0.25098039 0.27450980 0.65882353
v -0.07816032 0.10078336 -13.81706047 0.25098039 0.27450980 0.65882353
v -0.07533441 0.09580515 -13.81730175 0.25098039 0.27450980 0.65882353
v -0.07752375 0.09775612 -13.81374073 0.25098039 0.27450980 0.65882353
v -0.07674842 0.09305446 -13.81760216 0.25098039 0.27450980 0.65882353
v -0.07889459 0.10939910 -13.82502937 0.25098039 0.27450980 0.65882353
v -0.07916659 0.10263132 -13.83693409 0.25098039 0.27450980 0.65882353
v -0.07933234 0.09613933 -13.83090591 0.25098039 0.27450980 0.65882353
v -0.07919304 0.09211910 -13.82431507 0.25098039 0.27450980 0.65882353
v -0.07933205 0.09138643 -13.81831264 0.25098039 0.27450980 0.65882353
v -0.08330300 0.09460850 -13.83216667 0.25098039 0.27450980 0.65882353
v -0.08338667 0.09176970 -13.82551861 0.25098039 0.27450980 0.65882353
v -0.08392923 0.09157384 -13.81978893 0.25098039 0.27450980 0.65882353
v -0.08823630 0.09485266 -13.83131981 0.25098039 0.27450980 0.65882353
v -0.08720584 0.09283806 -13.82495117 0.25098039 0.27450980 0.65882353
v -0.09067363 0.10241289 -13.84056377 0.25098039 0.27450980 0.65882353
v -0.08419064 0.10170343 -13.84099007 0.25098039 0.27450980 0.65882353
v -0.08625363 0.09259833 -13.82085133 0.25098039 0.27450980 0.65882353
v -0.07857999 0.09575004 -13.81251812 0.25098039 0.27450980 0.65882353
v -0.08162399 0.09404957 -13.81329250 0.25098039 0.27450980 0.65882353
v -0.08784631 0.10732038 -13.81802177 0.25098039 0.27450980 0.65882353
v -0.08317234 0.10359526 -13.81436062 0.25098039 0.27450980 0.65882353
v -0.08632396 0.10323657 -13.81405449 0.25098039 0.27450980 0.65882353
v -0.09169447 0.10787092 -13.81908131 0.25098039 0.27450980 0.65882353
v -0.08910462 0.10245544 -13.81436729 0.25098039 0.27450980 0.65882353
v -0.08307785 0.09963134 -13.81162453 0.25098039 0.27450980 0.65882353
v -0.08086698 0.10080309 -13.81281567 0.25098039 0.27450980 0.65882353
v -0.09152491 0.10396262 -13.84327698 0.25098039 0.27450980 0.65882353
v -0.09742145 0.10664622 -13.83975887 0.25098039 0.27450980 0.65882353
v -0.09620735 0.10565923 -13.83715820 0.25098039 0.27450980 0.65882353
v -0.09346478 0.09824294 -13.82861233 0.25098039 0.27450980 0.65882353
v -0.09894451 0.10927188 -13.83210468 0.25098039 0.27450980 0.65882353
v -0.09689841 0.11390482 -13.82801628 0.25098039 0.27450980 0.65882353
v -0.09466505 0.10596783 -13.82077122 0.25098039 0.27450980 0.65882353
v -0.09572563 0.10257071 -13.82444286 0.25098039 0.27450980 0.65882353
v -0.09134923 0.10034374 -13.81645298 0.25098039 0.27450980 0.65882353
v -0.09182085 0.09848305 -13.81897354 0.25098039 0.27450980 0.65882353
v -0.09034817 0.09487139 -13.82236385 0.25098039 0.27450980 0.65882353
v -0.08805890 0.09681512 -13.81461048 0.25098039 0.27450980 0.65882353
v -0.08592565 0.09833308 -13.81228924 0.25098039 0.27450980 0.65882353
v -0.08538279 0.09364295 -13.81583214 0.25098039 0.27450980 0.65882353
v -0.08925901 0.09642313 -13.81709385 0.25098039 0.27450980 0.65882353
v -0.08763798 0.09415652 -13.81851292 0.25098039 0.27450980 0.65882353
v -0.14363833 0.06712091 -13.86658001 0.25098039 0.27450980 0.65882353
v -0.14182812 0.07237872 -13.86233139 0.25098039 0.27450980 0.65882353
v -0.14158665 0.07218904 -13.86780357 0.25098039 0.27450980 0.65882353
v -0.13770369 0.07333435 -13.87467957 0.25098039 0.27450980 0.65882353
v -0.13789171 0.07151110 -13.88490772 0.25098039 0.27450980 0.65882353
v -0.13663709 0.07975747 -13.87160873 0.25098039 0.27450980 0.65882353
v -0.14097875 0.07793280 -13.86437702 0.25098039 0.27450980 0.65882353
v -0.14241454 0.07770258 -13.85582161 0.25098039 0.27450980 0.65882353
v -0.13299973 0.08813716 -13.87579918 0.25098039 0.27450980 0.65882353
f 2 3 1
f 1 3 4
f 5 6 8
f 8 6 7
f 9 4 10
f 10 4 3
f 12 13 11
f 11 13 9
f 14 12 16
f 16 12 15
f 18 19 17
f 17 19 20
f 22 23 21
f 21 23 24
f 26 27 25
f 25 27 28
f 30 31 29
f 29 31 32
f 33 34 36
f 36 34 35
f 37 38 40
f 40 38 39
f 41 42 6
f 6 42 43
f 6 43 7
f 7 43 44
f 45 34 46
f 46 34 33
f 48 49 47
f 47 49 50
f 52 53 51
f 51 53 54
f 56 52 55
f 55 52 51
f 58 59 57
f 57 59 60
f 61 62 4
f 4 62 1
f 64 65 63
f 63 65 66
f 68 69 67
f 67 69 70
f 72 73 71
f 71 73 74
f 76 77 75
f 75 77 78
f 53 79 54
f 54 79 80
f 82 83 81
f 81 83 84
f 85 86 52
f 52 86 53
f 57 60 87
f 87 60 88
f 89 90 43
f 43 90 44
f 43 42 89
f 89 42 91
f 40 39 92
f 92 39 93
f 94 70 64
f 64 70 69
f 13 61 9
f 9 61 4
f 25 28 69
f 69 28 95
f 96 25 68
f 68 25 69
f 98 99 97
f 97 99 100
f 101 102 104
f 104 102 103
f 106 30 105
f 105 30 29
f 51 54 107
f 107 54 108
f 54 80 108
f 108 80 109
f 111 112 110
f 110 112 113
f 115 5 114
f 114 5 116
f 115 41 5
f 5 41 6
f 36 35 111
f 111 35 117
f 35 118 117
f 117 118 119
f 34 120 35
f 35 120 118
f 34 45 120
f 120 45 121
f 125 126 124
f 124 126 127
f 128 129 14
f 14 129 130
f 33 131 46
f 46 131 132
f 133 94 63
f 63 94 64
f 134 135 137
f 137 135 136
f 139 140 138
f 138 140 141
f 77 142 78
f 78 142 143
f 144 145 20
f 20 145 146
f 148 149 147
f 147 149 72
f 151 152 150
f 150 152 153
f 82 101 83
f 83 101 104
f 101 82 155
f 155 82 154
f 156 157 58
f 58 157 59
f 158 68 147
f 147 68 67
f 159 146 15
f 15 146 16
f 68 158 96
f 96 158 160
f 129 66 130
f 130 66 65
f 162 163 161
f 161 163 164
f 166 167 165
f 165 167 168
f 170 171 169
f 169 171 172
f 174 171 173
f 173 171 170
f 176 177 175
f 175 177 178
f 180 181 179
f 179 181 24
f 182 183 21
f 21 183 184
f 81 185 82
f 82 185 154
f 186 187 188
f 188 187 144
f 158 71 160
f 160 71 189
f 190 135 157
f 157 135 59
f 169 172 139
f 139 172 140
f 147 72 158
f 158 72 71
f 192 193 191
f 191 193 194
f 167 166 49
f 49 166 195
f 196 190 50
f 50 190 157
f 197 198 200
f 200 198 199
f 21 24 182
f 182 24 181
f 146 159 20
f 20 159 17
f 182 181 81
f 81 181 185
f 201 185 180
f 180 185 181
f 202 203 83
f 83 203 84
f 205 206 204
f 204 206 85
f 207 22 184
f 184 22 21
f 179 24 208
f 208 24 23
f 208 209 179
f 179 209 205
f 209 210 205
f 205 210 206
f 212 206 211
f 211 206 210
f 179 205 180
f 180 205 204
f 213 176 88
f 88 176 214
f 86 85 212
f 212 85 206
f 193 217 218
f 217 219 218
f 218 219 220
f 219 18 220
f 220 18 17
f 19 221 20
f 20 221 144
f 222 223 225
f 225 223 224
f 175 226 176
f 176 226 214
f 227 87 214
f 214 87 88
f 220 17 228
f 228 17 159
f 134 213 60
f 60 213 88
f 138 229 151
f 151 229 152
f 193 192 210
f 210 192 211
f 230 194 218
f 218 194 193
f 231 232 228
f 228 232 230
f 233 234 91
f 91 234 89
f 235 236 93
f 93 236 92
f 230 232 234
f 234 232 237
f 47 238 48
f 48 238 239
f 240 191 235
f 235 191 236
f 5 8 116
f 116 8 241
f 242 243 189
f 189 243 160
f 244 245 98
f 98 245 99
f 156 246 47
f 47 246 238
f 76 247 77
f 77 247 248
f 250 125 249
f 249 125 124
f 252 253 251
f 251 253 254
f 111 110 36
f 36 110 255
f 256 33 255
f 255 33 36
f 257 258 154
f 154 258 155
f 63 169 133
f 133 169 139
f 66 170 63
f 63 170 169
f 173 170 129
f 129 170 66
f 129 128 173
f 173 128 259
f 128 260 259
f 259 260 261
f 213 134 262
f 262 134 137
f 263 264 186
f 186 264 187
f 112 265 113
f 113 265 266
f 11 267 268
f 234 233 230
f 230 233 194
f 153 269 70
f 70 269 67
f 175 178 165
f 165 178 141
f 150 153 94
f 94 153 70
f 271 221 270
f 270 221 207
f 269 153 272
f 272 153 152
f 121 45 109
f 109 45 108
f 47 50 156
f 156 50 157
f 57 273 58
f 58 273 274
f 145 275 260
f 260 275 261
f 276 149 143
f 143 149 78
f 148 269 75
f 75 269 272
f 207 277 270
f 270 277 278
f 195 196 49
f 49 196 50
f 59 135 60
f 60 135 134
f 83 104 202
f 202 104 279
f 149 148 78
f 78 148 75
f 247 278 248
f 248 278 277
f 183 182 84
f 84 182 81
f 48 239 281
f 281 239 282
f 227 223 283
f 283 223 222
f 223 226 224
f 224 226 168
f 281 282 224
f 224 282 225
f 165 168 175
f 175 168 226
f 264 263 138
f 138 263 229
f 14 16 128
f 128 16 260
f 220 228 218
f 218 228 230
f 87 227 284
f 284 227 283
f 260 16 145
f 145 16 146
f 244 98 258
f 258 98 155
f 58 274 156
f 156 274 246
f 107 285 51
f 51 285 55
f 243 286 160
f 160 286 96
f 234 237 89
f 89 237 90
f 46 132 107
f 107 132 285
f 253 252 249
f 249 252 250
f 286 26 96
f 96 26 25
f 106 105 287
f 287 105 288
f 272 152 289
f 289 152 229
f 138 151 139
f 139 151 133
f 183 290 161
f 161 290 162
f 291 292 277
f 277 292 293
f 151 150 133
f 133 150 94
f 262 275 177
f 177 275 187
f 144 187 145
f 145 187 275
f 273 57 284
f 284 57 87
f 174 136 190
f 190 136 135
f 111 117 112
f 112 117 38
f 117 119 38
f 38 119 123
f 112 38 265
f 265 38 37
f 287 288 254
f 254 288 251
f 228 159 231
f 231 159 15
f 223 227 226
f 226 227 214
f 147 67 148
f 148 67 269
f 224 168 281
f 281 168 167
f 199 163 200
f 200 163 162
f 45 46 108
f 108 46 107
f 281 167 48
f 48 167 49
f 161 164 291
f 291 164 292
f 38 123 39
f 293 294 277
f 277 294 248
f 284 283 296
f 296 283 295
f 284 296 273
f 273 296 297
f 274 273 298
f 298 273 297
f 246 274 299
f 299 274 298
f 283 222 295
f 295 222 300
f 222 225 300
f 300 225 301
f 301 225 302
f 302 225 282
f 303 304 300
f 300 304 295
f 306 307 305
f 305 307 308
f 309 310 308
f 308 310 305
f 308 307 312
f 312 307 311
f 313 314 312
f 312 314 315
f 311 316 312
f 312 316 313
f 317 304 311
f 311 304 316
f 315 309 312
f 312 309 308
f 318 319 321
f 321 319 320
f 319 318 309
f 309 318 310
f 311 307 317
f 317 307 306
f 306 297 317
f 317 297 296
f 306 322 297
f 297 322 298
f 305 323 306
f 306 323 322
f 323 305 324
f 324 305 310
f 304 317 295
f 295 317 296
f 318 325 310
f 310 325 324
f 323 324 326
f 326 324 327
f 324 325 327
f 327 325 328
f 326 327 329
f 329 327 330
f 329 331 326
f 326 331 332
f 333 330 328
f 328 330 327
f 323 326 322
f 322 326 332
f 322 332 298
f 298 332 299
f 325 318 334
f 334 318 321
f 313 316 335
f 335 316 304
f 335 336 313
f 313 336 314
f 304 303 335
f 335 303 337
f 336 335 338
f 338 335 337
f 336 339 314
f 314 339 340
f 246 299 238
f 238 299 341
f 239 342 282
f 282 342 302
f 342 239 341
f 341 239 238
f 341 331 342
f 342 331 343
f 331 329 343
f 343 329 344
f 342 343 302
f 302 343 345
f 341 299 331
f 331 299 332
f 346 301 345
f 345 301 302
f 346 303 301
f 301 303 300
f 347 337 346
f 346 337 303
f 347 346 348
f 348 346 345
f 349 347 350
f 350 347 348
f 343 344 345
f 345 344 348
f 344 351 348
f 348 351 350
f 337 347 338
f 338 347 349
f 353 338 352
f 352 338 349
f 352 355 354
f 354 355 356
f 352 349 355
f 355 349 350
f 352 354 353
f 353 354 334
f 353 334 339
f 339 334 321
f 339 336 353
f 353 336 338
f 329 330 344
f 344 330 351
f 356 351 333
f 333 351 330
f 356 355 351
f 351 355 350
f 354 356 328
f 328 356 333
f 328 325 354
f 354 325 334
f 309 315 319
f 319 315 320
f 320 340 321
f 321 340 339
f 320 315 340
f 340 315 314
f 137 136 261
f 261 136 259
f 140 166 141
f 141 166 165
f 172 171 195
f 195 171 196
f 171 174 196
f 196 174 190
f 178 177 264
f 264 177 187
f 172 195 140
f 140 195 166
f 137 261 262
f 262 261 275
f 178 264 141
f 141 264 138
f 262 177 213
f 213 177 176
f 136 174 259
f 259 174 173
f 358 359 357
f 357 359 360
f 362 363 361
f 361 363 364
f 361 364 365
f 365 364 366
f 367 368 370
f 370 368 369
f 76 371 247
f 247 371 372
f 373 374 362
f 362 374 363
f 376 377 375
f 375 377 378
f 289 229 380
f 380 229 379
f 381 379 263
f 263 379 229
f 383 384 382
f 382 384 385
f 386 368 374
f 374 368 363
f 76 289 371
f 371 289 380
f 377 376 359
f 359 376 387
f 388 386 360
f 360 386 374
f 389 383 366
f 366 383 390
f 392 393 391
f 391 393 394
f 383 382 390
f 390 382 395
f 396 365 390
f 390 365 366
f 389 366 367
f 367 366 364
f 357 397 358
f 358 397 398
f 373 399 357
f 357 399 397
f 389 367 400
f 400 367 370
f 382 385 375
f 375 385 372
f 357 360 373
f 373 360 374
f 361 401 362
f 362 401 402
f 387 388 359
f 359 388 360
f 363 368 364
f 364 368 367
f 358 398 403
f 403 398 404
f 396 392 405
f 405 392 391
f 392 395 393
f 393 395 378
f 393 403 394
f 394 403 404
f 375 378 382
f 382 378 395
f 365 396 406
f 406 396 405
f 362 402 373
f 373 402 399
f 271 270 400
f 400 270 384
f 401 361 406
f 406 361 365
f 381 369 386
f 386 369 368
f 392 396 395
f 395 396 390
f 393 378 403
f 403 378 377
f 403 377 358
f 358 377 359
f 406 405 408
f 408 405 407
f 406 408 401
f 401 408 409
f 401 409 402
f 402 409 410
f 402 410 399
f 399 410 411
f 405 391 407
f 407 391 412
f 391 394 412
f 412 394 413
f 394 404 413
f 413 404 414
f 415 416 412
f 412 416 407
f 418 419 417
f 417 419 420
f 421 422 418
f 418 422 419
f 419 422 424
f 424 422 423
f 425 426 424
f 424 426 427
f 423 428 424
f 424 428 425
f 427 420 424
f 424 420 419
f 420 429 417
f 417 429 430
f 423 422 431
f 431 422 421
f 421 409 431
f 431 409 408
f 421 432 409
f 409 432 410
f 418 433 421
f 421 433 432
f 434 433 417
f 417 433 418
f 431 416 423
f 423 416 428
f 416 431 407
f 407 431 408
f 435 434 430
f 430 434 417
f 433 434 436
f 436 434 437
f 434 435 437
f 437 435 438
f 436 437 439
f 439 437 440
f 439 441 436
f 436 441 442
f 438 443 437
f 437 443 440
f 436 442 433
f 433 442 432
f 432 442 410
f 410 442 411
f 435 430 445
f 445 430 444
f 430 429 444
f 444 429 446
f 425 428 447
f 447 428 416
f 426 425 448
f 448 425 447
f 416 415 447
f 447 415 449
f 447 449 448
f 448 449 450
f 451 452 448
f 448 452 426
f 446 452 444
f 444 452 451
f 399 411 397
f 397 411 453
f 398 454 404
f 404 454 414
f 454 398 453
f 453 398 397
f 453 441 454
f 454 441 455
f 441 439 455
f 455 439 456
f 454 455 414
f 414 455 457
f 441 453 442
f 442 453 411
f 458 413 457
f 457 413 414
f 458 415 413
f 413 415 412
f 458 459 415
f 415 459 449
f 459 458 460
f 460 458 457
f 461 459 462
f 462 459 460
f 455 456 457
f 457 456 460
f 456 463 460
f 460 463 462
f 459 461 449
f 449 461 450
f 465 450 464
f 464 450 461
f 464 467 466
f 466 467 468
f 464 461 467
f 467 461 462
f 464 466 465
f 465 466 445
f 465 445 451
f 451 445 444
f 451 448 465
f 465 448 450
f 439 440 456
f 456 440 463
f 468 463 443
f 443 463 440
f 468 467 463
f 463 467 462
f 466 468 438
f 438 468 443
f 438 435 466
f 466 435 445
f 420 427 429
f 429 427 446
f 446 427 452
f 452 427 426
f 370 369 188
f 188 369 186
f 371 376 372
f 372 376 375
f 380 379 387
f 387 379 388
f 379 381 388
f 388 381 386
f 385 384 278
f 278 384 270
f 380 387 371
f 371 387 376
f 400 370 271
f 271 370 188
f 385 278 372
f 372 278 247
f 400 384 389
f 389 384 383
f 369 381 186
f 186 381 263
f 221 271 144
f 144 271 188
f 221 19 207
f 207 19 22
f 19 18 22
f 22 18 23
f 18 219 23
f 23 219 208
f 469 470 472
f 472 470 471
f 474 475 473
f 473 475 476
f 473 476 477
f 477 476 478
f 480 481 479
f 479 481 482
f 483 484 474
f 474 484 475
f 486 487 485
f 485 487 488
f 489 490 77
f 77 490 142
f 491 489 248
f 248 489 77
f 493 494 492
f 492 494 495
f 496 480 484
f 484 480 475
f 486 497 487
f 487 497 471
f 498 496 472
f 472 496 484
f 499 493 478
f 478 493 500
f 501 502 504
f 504 502 503
f 493 492 500
f 500 492 505
f 506 477 500
f 500 477 478
f 499 478 479
f 479 478 476
f 469 507 470
f 470 507 508
f 483 509 469
f 469 509 507
f 479 482 499
f 499 482 510
f 492 495 485
f 485 495 511
f 483 469 484
f 484 469 472
f 473 512 474
f 474 512 513
f 497 498 471
f 471 498 472
f 475 480 476
f 476 480 479
f 470 508 514
f 514 508 515
f 506 502 516
f 516 502 501
f 503 502 488
f 488 502 505
f 514 515 503
f 503 515 504
f 485 488 492
f 492 488 505
f 477 506 517
f 517 506 516
f 474 513 483
f 483 513 509
f 510 292 494
f 494 292 164
f 512 473 517
f 517 473 477
f 491 481 496
f 496 481 480
f 502 506 505
f 505 506 500
f 503 488 514
f 514 488 487
f 514 487 470
f 470 487 471
f 517 516 519
f 519 516 518
f 517 519 512
f 512 519 520
f 512 520 513
f 513 520 521
f 513 521 509
f 509 521 522
f 516 501 518
f 518 501 523
f 501 504 523
f 523 504 524
f 524 504 525
f 525 504 515
f 526 527 523
f 523 527 518
f 529 530 528
f 528 530 531
f 532 533 529
f 529 533 530
f 530 533 535
f 535 533 534
f 536 537 535
f 535 537 538
f 534 539 535
f 535 539 536
f 538 531 535
f 535 531 530
f 540 541 531
f 531 541 528
f 533 532 534
f 534 532 542
f 532 520 542
f 542 520 519
f 532 543 520
f 520 543 521
f 529 544 532
f 532 544 543
f 544 529 545
f 545 529 528
f 534 542 539
f 539 542 527
f 527 542 518
f 518 542 519
f 541 546 528
f 528 546 545
f 547 544 548
f 548 544 545
f 546 549 545
f 545 549 548
f 550 547 551
f 551 547 548
f 547 550 553
f 553 550 552
f 549 554 548
f 548 554 551
f 544 547 543
f 543 547 553
f 543 553 521
f 521 553 522
f 546 541 556
f 556 541 555
f 541 540 555
f 555 540 557
f 536 539 558
f 558 539 527
f 537 536 559
f 559 536 558
f 527 526 558
f 558 526 560
f 559 558 561
f 561 558 560
f 559 562 537
f 537 562 563
f 557 563 555
f 555 563 562
f 509 522 507
f 507 522 564
f 508 565 515
f 515 565 525
f 565 508 564
f 564 508 507
f 564 552 565
f 565 552 566
f 552 550 566
f 566 550 567
f 565 566 525
f 525 566 568
f 564 522 552
f 552 522 553
f 569 524 568
f 568 524 525
f 569 526 524
f 524 526 523
f 570 560 569
f 569 560 526
f 570 569 571
f 571 569 568
f 572 570 573
f 573 570 571
f 566 567 568
f 568 567 571
f 567 574 571
f 571 574 573
f 570 572 560
f 560 572 561
f 576 561 575
f 575 561 572
f 575 578 577
f 577 578 579
f 575 572 578
f 578 572 573
f 575 577 576
f 576 577 556
f 576 556 562
f 562 556 555
f 562 559 576
f 576 559 561
f 550 551 567
f 567 551 574
f 579 574 554
f 554 574 551
f 579 578 574
f 574 578 573
f 579 554 577
f 577 554 549
f 549 546 577
f 577 546 556
f 531 538 540
f 540 538 557
f 557 538 563
f 563 538 537
f 481 294 482
f 482 294 293
f 580 486 511
f 511 486 485
f 490 489 497
f 497 489 498
f 489 491 498
f 498 491 496
f 163 495 164
f 164 495 494
f 580 490 486
f 486 490 497
f 482 293 510
f 510 293 292
f 495 163 511
f 511 163 199
f 494 493 510
f 510 493 499
f 481 491 294
f 294 491 248
f 582 583 581
f 581 583 584
f 586 587 585
f 585 587 588
f 585 588 589
f 589 588 590
f 592 593 591
f 591 593 594
f 595 596 598
f 598 596 597
f 599 600 586
f 586 600 587
f 601 602 604
f 604 602 603
f 605 606 608
f 608 606 607
f 609 607 200
f 200 607 606
f 610 611 613
f 613 611 612
f 600 614 587
f 587 614 592
f 596 605 597
f 597 605 608
f 602 615 603
f 603 615 583
f 616 614 584
f 584 614 600
f 611 618 617
f 617 618 590
f 620 621 619
f 619 621 622
f 610 623 611
f 611 623 618
f 624 589 618
f 618 589 590
f 617 590 591
f 591 590 588
f 581 625 582
f 582 625 626
f 599 627 581
f 581 627 625
f 591 594 617
f 617 594 628
f 601 610 598
f 598 610 613
f 581 584 599
f 599 584 600
f 585 629 586
f 586 629 630
f 615 616 583
f 583 616 584
f 587 592 588
f 588 592 591
f 582 626 631
f 631 626 632
f 624 620 633
f 633 620 619
f 621 620 604
f 604 620 623
f 631 632 621
f 621 632 622
f 610 601 623
f 623 601 604
f 589 624 634
f 634 624 633
f 586 630 599
f 599 630 627
f 203 202 628
f 628 202 612
f 629 585 634
f 634 585 589
f 609 593 614
f 614 593 592
f 620 624 623
f 623 624 618
f 631 621 603
f 603 621 604
f 582 631 583
f 583 631 603
f 634 633 636
f 636 633 635
f 634 636 629
f 629 636 637
f 629 637 630
f 630 637 638
f 630 638 627
f 627 638 639
f 633 619 635
f 635 619 640
f 619 622 640
f 640 622 641
f 641 622 642
f 642 622 632
f 644 635 643
f 643 635 640
f 645 646 648
f 648 646 647
f 649 650 646
f 646 650 647
f 647 650 652
f 652 650 651
f 652 653 655
f 655 653 654
f 651 656 652
f 652 656 653
f 655 648 652
f 652 648 647
f 648 657 645
f 645 657 658
f 650 649 651
f 651 649 659
f 649 637 659
f 659 637 636
f 649 660 637
f 637 660 638
f 661 660 646
f 646 660 649
f 662 661 645
f 645 661 646
f 651 659 656
f 656 659 644
f 644 659 635
f 635 659 636
f 663 662 658
f 658 662 645
f 664 661 665
f 665 661 662
f 663 666 662
f 662 666 665
f 667 664 668
f 668 664 665
f 664 667 670
f 670 667 669
f 666 671 665
f 665 671 668
f 661 664 660
f 660 664 670
f 660 670 638
f 638 670 639
f 658 672 663
f 663 672 673
f 658 657 672
f 672 657 674
f 653 656 675
f 675 656 644
f 653 675 654
f 654 675 676
f 675 644 677
f 677 644 643
f 676 675 678
f 678 675 677
f 679 680 676
f 676 680 654
f 674 680 672
f 672 680 679
f 627 639 625
f 625 639 681
f 626 682 632
f 632 682 642
f 681 682 625
f 625 682 626
f 669 683 681
f 681 683 682
f 667 684 669
f 669 684 683
f 682 683 642
f 642 683 685
f 681 639 669
f 669 639 670
f 686 641 685
f 685 641 642
f 641 686 640
f 640 686 643
f 686 687 643
f 643 687 677
f 687 686 688
f 688 686 685
f 689 687 690
f 690 687 688
f 683 684 685
f 685 684 688
f 684 691 688
f 688 691 690
f 687 689 677
f 677 689 678
f 693 678 692
f 692 678 689
f 692 695 694
f 694 695 696
f 692 689 695
f 695 689 690
f 692 694 693
f 693 694 673
f 693 673 679
f 679 673 672
f 679 676 693
f 693 676 678
f 684 667 691
f 691 667 668
f 696 691 671
f 671 691 668
f 696 695 691
f 691 695 690
f 694 696 666
f 666 696 671
f 666 663 694
f 694 663 673
f 648 655 657
f 657 655 674
f 674 655 680
f 680 655 654
f 593 162 594
f 594 162 290
f 598 597 601
f 601 597 602
f 615 608 616
f 616 608 607
f 607 609 616
f 616 609 614
f 697 595 613
f 613 595 598
f 597 608 602
f 602 608 615
f 594 290 628
f 628 290 203
f 628 612 617
f 617 612 611
f 593 609 162
f 162 609 200
f 105 29 698
f 698 29 699
f 268 126 701
f 701 126 700
f 126 125 700
f 700 125 702
f 252 703 250
f 250 703 704
f 32 268 705
f 705 268 701
f 288 105 706
f 706 105 698
f 29 32 699
f 699 32 705
f 707 251 706
f 706 251 288
f 250 704 125
f 125 704 702
f 703 252 707
f 707 252 251
f 706 708 707
f 707 708 709
f 707 709 703
f 703 709 710
f 703 710 704
f 704 710 711
f 704 711 702
f 702 711 712
f 706 698 708
f 708 698 713
f 698 699 713
f 713 699 714
f 699 705 714
f 714 705 715
f 717 708 716
f 716 708 713
f 719 720 718
f 718 720 721
f 722 723 719
f 719 723 720
f 724 725 723
f 723 725 720
f 724 726 725
f 725 726 727
f 728 721 725
f 725 721 720
f 721 728 729
f 729 728 730
f 729 731 721
f 721 731 718
f 724 723 732
f 732 723 722
f 722 710 732
f 732 710 709
f 722 733 710
f 710 733 711
f 719 734 722
f 722 734 733
f 734 719 735
f 735 719 718
f 724 732 726
f 726 732 717
f 717 732 708
f 708 732 709
f 731 736 718
f 718 736 735
f 737 734 738
f 738 734 735
f 736 739 735
f 735 739 738
f 740 737 741
f 741 737 738
f 737 740 743
f 743 740 742
f 739 744 738
f 738 744 741
f 734 737 733
f 733 737 743
f 733 743 711
f 711 743 712
f 736 731 746
f 746 731 745
f 731 729 745
f 745 729 730
f 727 726 747
f 747 726 717
f 748 727 749
f 749 727 747
f 747 717 750
f 750 717 716
f 749 747 751
f 751 747 750
f 749 752 748
f 748 752 753
f 730 753 745
f 745 753 752
f 728 725 748
f 748 725 727
f 730 728 753
f 753 728 748
f 700 702 754
f 754 702 712
f 705 701 715
f 715 701 755
f 754 755 700
f 700 755 701
f 742 756 754
f 754 756 755
f 740 757 742
f 742 757 756
f 755 756 715
f 715 756 758
f 754 712 742
f 742 712 743
f 759 714 758
f 758 714 715
f 714 759 713
f 713 759 716
f 759 760 716
f 716 760 750
f 760 759 761
f 761 759 758
f 762 760 763
f 763 760 761
f 756 757 758
f 758 757 761
f 757 764 761
f 761 764 763
f 760 762 750
f 750 762 751
f 766 751 765
f 765 751 762
f 767 765 769
f 769 765 768
f 765 762 768
f 768 762 763
f 765 767 766
f 766 767 746
f 766 746 752
f 752 746 745
f 752 749 766
f 766 749 751
f 757 740 764
f 764 740 741
f 769 764 744
f 744 764 741
f 769 768 764
f 764 768 763
f 767 769 739
f 739 769 744
f 739 736 767
f 767 736 746
f 219 217 208
f 208 217 209
f 209 217 210
f 210 217 193
f 198 580 199
f 199 580 511
f 76 75 289
f 289 75 272
f 277 207 291
f 291 207 184
f 290 183 203
f 203 183 84
f 490 580 142
f 142 580 198
f 142 198 143
f 143 198 197
f 149 276 72
f 72 276 73
f 104 103 279
f 279 103 770
f 770 596 279
f 279 596 595
f 605 596 771
f 771 596 770
f 771 770 772
f 772 770 103
f 772 103 773
f 773 103 102
f 155 774 101
f 101 774 102
f 773 102 97
f 97 102 774
f 775 773 100
f 100 773 97
f 773 775 772
f 772 775 776
f 772 776 771
f 771 776 777
f 200 606 197
f 197 606 777
f 189 71 778
f 778 71 74
f 97 774 98
f 98 774 155
f 183 161 184
f 184 161 291
f 777 276 197
f 197 276 143
f 777 606 771
f 771 606 605
f 613 612 697
f 697 612 202
f 595 697 279
f 279 697 202
f 73 276 776
f 776 276 777
f 776 775 73
f 73 775 74
f 100 778 775
f 775 778 74
f 778 100 189
f 189 100 99
f 245 242 99
f 99 242 189
f 131 33 256
f 28 1 95
f 95 1 62
f 27 2 28
f 28 2 1
f 265 115 266
f 266 115 114
f 95 62 69
f 69 62 64
f 62 61 64
f 64 61 65
f 61 13 65
f 65 13 130
f 13 12 130
f 130 12 14
f 31 11 32
f 32 11 268
f 15 12 31
f 31 12 11
f 31 30 15
f 15 30 231
f 30 106 231
f 231 106 232
f 287 237 106
f 106 237 232
f 254 90 287
f 287 90 237
f 253 44 254
f 254 44 90
f 253 249 44
f 44 249 7
f 267 127 268
f 268 127 126
f 10 3 241
f 241 3 116
f 3 2 116
f 116 2 114
f 2 27 114
f 114 27 266
f 27 26 266
f 266 26 113
f 26 286 113
f 113 286 110
f 286 243 110
f 110 243 255
f 243 242 255
f 255 242 256
f 242 245 256
f 256 245 131
f 245 244 131
f 131 244 132
f 265 37 115
f 115 37 41
f 41 37 42
f 42 37 40
f 92 91 40
f 40 91 42
f 236 233 92
f 92 233 91
f 191 194 236
f 236 194 233
f 258 285 244
f 244 285 132
f 257 55 258
f 258 55 285
f 257 154 201
f 201 154 185
f 56 201 204
f 204 201 180
f 55 257 56
f 56 257 201
f 204 85 56
f 56 85 52
f 86 122 53
f 53 122 79
f 212 215 86
f 86 215 122
f 211 216 212
f 212 216 215
f 192 280 211
f 211 280 216
f 191 240 192
f 192 240 280
f 249 124 7
f 7 124 8
f 124 127 8
f 8 127 241
f 127 267 241
f 241 267 10
f 10 267 9
f 9 267 11
f 93 39 235
f 235 39 240
f 39 123 240
f 240 123 280
f 123 119 280
f 280 119 216
f 119 118 216
f 216 118 215
f 118 120 215
f 215 120 122
f 120 121 122
f 122 121 79
f 121 109 79
f 79 109 80

