# https://github.com/mikedh/trimesh
v -0.14299831 0.12419389 -15.06215382 0.25098039 0.27450980 0.65882353
v -0.14002575 0.12222786 -15.07322407 0.25098039 0.27450980 0.65882353
v -0.13411984 0.12139264 -15.06686687 0.25098039 0.27450980 0.65882353
v -0.13777976 0.12628411 -15.05573559 0.25098039 0.27450980 0.65882353
v -0.12274991 0.12029800 -15.08742428 0.25098039 0.27450980 0.65882353
v -0.11659557 0.12979725 -15.09226131 0.25098039 0.27450980 0.65882353
v -0.11174645 0.12618165 -15.07955265 0.25098039 0.27450980 0.65882353
v -0.11792424 0.11788592 -15.07749462 0.25098039 0.27450980 0.65882353
v -0.13502225 0.12831417 -15.05028820 0.25098039 0.27450980 0.65882353
v -0.12973985 0.12065161 -15.06061268 0.25098039 0.27450980 0.65882353
v -0.13445094 0.13156843 -15.04874897 0.25098039 0.27450980 0.65882353
v -0.14484984 0.14258890 -15.04201794 0.25098039 0.27450980 0.65882353
v -0.14226335 0.13658905 -15.04312229 0.25098039 0.27450980 0.65882353
v -0.15136850 0.14545166 -15.03603363 0.25098039 0.27450980 0.65882353
v -0.15000728 0.14957651 -15.04810810 0.25098039 0.27450980 0.65882353
v -0.16038421 0.14779675 -15.03759003 0.25098039 0.27450980 0.65882353
v -0.17537808 0.13955724 -15.06154633 0.25098039 0.27450980 0.65882353
v -0.18153337 0.12816428 -15.06737900 0.25098039 0.27450980 0.65882353
v -0.18491174 0.12489696 -15.05146599 0.25098039 0.27450980 0.65882353
v -0.17799979 0.13645190 -15.04690838 0.25098039 0.27450980 0.65882353
v -0.18778543 0.10725462 -15.06391239 0.25098039 0.27450980 0.65882353
v -0.18681528 0.11671235 -15.05626774 0.25098039 0.27450980 0.65882353
v -0.18425727 0.12047949 -15.07236767 0.25098039 0.27450980 0.65882353
v -0.18525329 0.11196595 -15.07843018 0.25098039 0.27450980 0.65882353
v -0.14992051 0.11566143 -15.07234669 0.25098039 0.27450980 0.65882353
v -0.14712423 0.11498368 -15.08239555 0.25098039 0.27450980 0.65882353
v -0.14592160 0.11911006 -15.07939911 0.25098039 0.27450980 0.65882353
v -0.14791185 0.11974582 -15.06959438 0.25098039 0.27450980 0.65882353
v -0.12259267 0.13469513 -15.05042648 0.25098039 0.27450980 0.65882353
v -0.13195033 0.14577383 -15.05617142 0.25098039 0.27450980 0.65882353
v -0.13481483 0.14027274 -15.05085087 0.25098039 0.27450980 0.65882353
v -0.12389365 0.12881958 -15.04996681 0.25098039 0.27450980 0.65882353
v -0.13903686 0.10580195 -15.10829639 0.25098039 0.27450980 0.65882353
v -0.14203995 0.11224306 -15.12064171 0.25098039 0.27450980 0.65882353
v -0.13983728 0.11770137 -15.11920929 0.25098039 0.27450980 0.65882353
v -0.13829435 0.11115671 -15.10818386 0.25098039 0.27450980 0.65882353
v -0.12771775 0.13194187 -15.10845184 0.25098039 0.27450980 0.65882353
v -0.13295650 0.13511357 -15.11623573 0.25098039 0.27450980 0.65882353
v -0.13513429 0.14746819 -15.11987114 0.25098039 0.27450980 0.65882353
v -0.13107379 0.14654243 -15.11040211 0.25098039 0.27450980 0.65882353
v -0.12172440 0.13074106 -15.10000134 0.25098039 0.27450980 0.65882353
v -0.12297896 0.14372015 -15.10120392 0.25098039 0.27450980 0.65882353
v -0.11657153 0.14133316 -15.09181213 0.25098039 0.27450980 0.65882353
v -0.11016749 0.13561074 -15.07822037 0.25098039 0.27450980 0.65882353
v -0.14959630 0.10224468 -15.12392044 0.25098039 0.27450980 0.65882353
v -0.14823334 0.09567263 -15.11581802 0.25098039 0.27450980 0.65882353
v -0.14954203 0.12272463 -14.99435997 0.25098039 0.27450980 0.65882353
v -0.15129928 0.11720082 -14.99617195 0.25098039 0.27450980 0.65882353
v -0.15194994 0.11932764 -14.99954891 0.25098039 0.27450980 0.65882353
v -0.15032192 0.12451253 -14.99711895 0.25098039 0.27450980 0.65882353
v -0.16942103 0.09701981 -15.12213898 0.25098039 0.27450980 0.65882353
v -0.17793611 0.10312644 -15.12179947 0.25098039 0.27450980 0.65882353
v -0.17557184 0.10286999 -15.12849236 0.25098039 0.27450980 0.65882353
v -0.16681272 0.09887624 -15.12880611 0.25098039 0.27450980 0.65882353
v -0.17273304 0.09473307 -15.11307621 0.25098039 0.27450980 0.65882353
v -0.18033764 0.10353580 -15.11211109 0.25098039 0.27450980 0.65882353
v -0.15820408 0.12746680 -14.98620224 0.25098039 0.27450980 0.65882353
v -0.15347530 0.12778799 -14.98815060 0.25098039 0.27450980 0.65882353
v -0.15579090 0.13072325 -14.99109077 0.25098039 0.27450980 0.65882353
v -0.16096075 0.13007911 -14.99006748 0.25098039 0.27450980 0.65882353
v -0.14209016 0.13134715 -15.04689217 0.25098039 0.27450980 0.65882353
v -0.14493850 0.12555824 -15.05260372 0.25098039 0.27450980 0.65882353
v -0.14829311 0.13054033 -15.02966118 0.25098039 0.27450980 0.65882353
v -0.14830196 0.12852356 -15.03911304 0.25098039 0.27450980 0.65882353
v -0.14586399 0.13484734 -15.03862476 0.25098039 0.27450980 0.65882353
v -0.14707220 0.13687880 -15.03078461 0.25098039 0.27450980 0.65882353
v -0.15756851 0.11059867 -15.05178642 0.25098039 0.27450980 0.65882353
v -0.15465750 0.11221248 -15.06286430 0.25098039 0.27450980 0.65882353
v -0.15278283 0.11738467 -15.05917549 0.25098039 0.27450980 0.65882353
v -0.15417932 0.11650898 -15.04639339 0.25098039 0.27450980 0.65882353
v -0.15765975 0.09950408 -15.06880474 0.25098039 0.27450980 0.65882353
v -0.16062477 0.09904051 -15.05754852 0.25098039 0.27450980 0.65882353
v -0.16217777 0.09187075 -15.06244850 0.25098039 0.27450980 0.65882353
v -0.15890801 0.09300025 -15.06938457 0.25098039 0.27450980 0.65882353
v -0.16453388 0.10082804 -15.03684616 0.25098039 0.27450980 0.65882353
v -0.16792127 0.10087369 -15.02927113 0.25098039 0.27450980 0.65882353
v -0.16919559 0.09897073 -15.02987003 0.25098039 0.27450980 0.65882353
v -0.16577347 0.09826663 -15.03874302 0.25098039 0.27450980 0.65882353
v -0.17408141 0.10354605 -15.13515568 0.25098039 0.27450980 0.65882353
v -0.16443110 0.10165721 -15.13493252 0.25098039 0.27450980 0.65882353
v -0.18755746 0.08864069 -15.07533932 0.25098039 0.27450980 0.65882353
v -0.18152919 0.08156145 -15.08145046 0.25098039 0.27450980 0.65882353
v -0.18393157 0.07582469 -15.07059669 0.25098039 0.27450980 0.65882353
v -0.19021952 0.08501533 -15.06664181 0.25098039 0.27450980 0.65882353
v -0.18234326 0.11252655 -15.11863136 0.25098039 0.27450980 0.65882353
v -0.18183433 0.11105448 -15.12605858 0.25098039 0.27450980 0.65882353
v -0.16299894 0.12383002 -14.98598957 0.25098039 0.27450980 0.65882353
v -0.16553380 0.12611543 -14.99019909 0.25098039 0.27450980 0.65882353
v -0.12522945 0.15253046 -15.08935356 0.25098039 0.27450980 0.65882353
v -0.11456485 0.14497352 -15.07443142 0.25098039 0.27450980 0.65882353
v -0.13388750 0.15517408 -15.10187435 0.25098039 0.27450980 0.65882353
v -0.14111687 0.15604058 -15.11080551 0.25098039 0.27450980 0.65882353
v -0.14452970 0.15636304 -15.11931610 0.25098039 0.27450980 0.65882353
v -0.15119785 0.12282284 -15.03687191 0.25098039 0.27450980 0.65882353
v -0.14849374 0.12138368 -15.05987930 0.25098039 0.27450980 0.65882353
v -0.15126193 0.11141811 -15.07454491 0.25098039 0.27450980 0.65882353
v -0.15763988 0.08215168 -15.08326054 0.25098039 0.27450980 0.65882353
v -0.15431228 0.08406414 -15.09299088 0.25098039 0.27450980 0.65882353
v -0.15082863 0.09156840 -15.08590126 0.25098039 0.27450980 0.65882353
v -0.15507157 0.08861234 -15.07887650 0.25098039 0.27450980 0.65882353
v -0.17323779 0.07583013 -15.08120918 0.25098039 0.27450980 0.65882353
v -0.16609348 0.07663164 -15.07722473 0.25098039 0.27450980 0.65882353
v -0.16854526 0.07490060 -15.06960678 0.25098039 0.27450980 0.65882353
v -0.17566118 0.07298830 -15.07204151 0.25098039 0.27450980 0.65882353
v -0.11696276 0.13914210 -15.05282402 0.25098039 0.27450980 0.65882353
v -0.12883326 0.14976138 -15.06112576 0.25098039 0.27450980 0.65882353
v -0.15898296 0.09473930 -15.12064743 0.25098039 0.27450980 0.65882353
v -0.15681645 0.09923072 -15.12645721 0.25098039 0.27450980 0.65882353
v -0.15678608 0.10317627 -15.13424397 0.25098039 0.27450980 0.65882353
v -0.14188671 0.11153372 -15.09514904 0.25098039 0.27450980 0.65882353
v -0.13759910 0.11470383 -15.10820389 0.25098039 0.27450980 0.65882353
v -0.13613696 0.11810292 -15.10664558 0.25098039 0.27450980 0.65882353
v -0.14245015 0.11462474 -15.09401989 0.25098039 0.27450980 0.65882353
v -0.13597506 0.11982177 -15.08549500 0.25098039 0.27450980 0.65882353
v -0.12947546 0.12180094 -15.09652233 0.25098039 0.27450980 0.65882353
v -0.12985988 0.11671994 -15.07813740 0.25098039 0.27450980 0.65882353
v -0.13699767 0.12569694 -15.11890984 0.25098039 0.27450980 0.65882353
v -0.13928185 0.12150048 -15.12900352 0.25098039 0.27450980 0.65882353
v -0.13677061 0.13009794 -15.12738323 0.25098039 0.27450980 0.65882353
v -0.14429396 0.11327152 -15.13147354 0.25098039 0.27450980 0.65882353
v -0.15040179 0.10671785 -15.13294601 0.25098039 0.27450980 0.65882353
v -0.18337049 0.11146950 -15.13404655 0.25098039 0.27450980 0.65882353
v -0.13564911 0.13823438 -15.12512112 0.25098039 0.27450980 0.65882353
v -0.11561969 0.11614638 -15.06972027 0.25098039 0.27450980 0.65882353
v -0.11243148 0.11477381 -15.06256866 0.25098039 0.27450980 0.65882353
v -0.11909379 0.11446900 -15.05735874 0.25098039 0.27450980 0.65882353
v -0.12262356 0.11489649 -15.06397152 0.25098039 0.27450980 0.65882353
v -0.15600759 0.14593138 -15.02753639 0.25098039 0.27450980 0.65882353
v -0.14946687 0.14186350 -15.02857494 0.25098039 0.27450980 0.65882353
v -0.14622442 0.14135233 -15.03781986 0.25098039 0.27450980 0.65882353
v -0.14305805 0.09896825 -15.10015488 0.25098039 0.27450980 0.65882353
v -0.15041164 0.09029394 -15.10708618 0.25098039 0.27450980 0.65882353
v -0.15202318 0.12518719 -15.02749062 0.25098039 0.27450980 0.65882353
v -0.16273309 0.13276574 -14.99467182 0.25098039 0.27450980 0.65882353
v -0.15681818 0.13349670 -14.99546432 0.25098039 0.27450980 0.65882353
v -0.15657580 0.14143845 -15.01246834 0.25098039 0.27450980 0.65882353
v -0.16376114 0.14102773 -15.01110744 0.25098039 0.27450980 0.65882353
v -0.16090018 0.12251458 -15.02073002 0.25098039 0.27450980 0.65882353
v -0.15449147 0.12420169 -15.02302742 0.25098039 0.27450980 0.65882353
v -0.15623656 0.12315810 -15.02112865 0.25098039 0.27450980 0.65882353
v -0.16182959 0.11975369 -15.01876259 0.25098039 0.27450980 0.65882353
v -0.16893739 0.09224446 -15.03666592 0.25098039 0.27450980 0.65882353
v -0.16665760 0.09165157 -15.04438400 0.25098039 0.27450980 0.65882353
v -0.17816815 0.13095146 -15.03222084 0.25098039 0.27450980 0.65882353
v -0.17324038 0.14405711 -15.03172398 0.25098039 0.27450980 0.65882353
v -0.17032507 0.14514263 -15.04293442 0.25098039 0.27450980 0.65882353
v -0.15929887 0.10433123 -15.05576611 0.25098039 0.27450980 0.65882353
v -0.16174558 0.10187709 -15.04588699 0.25098039 0.27450980 0.65882353
v -0.16318834 0.09839132 -15.04781055 0.25098039 0.27450980 0.65882353
v -0.15395913 0.11974812 -15.03410530 0.25098039 0.27450980 0.65882353
v -0.15611799 0.12079009 -15.02661800 0.25098039 0.27450980 0.65882353
v -0.15745690 0.11706387 -15.03012180 0.25098039 0.27450980 0.65882353
v -0.15617581 0.11588076 -15.03742790 0.25098039 0.27450980 0.65882353
v -0.17962226 0.08638059 -15.09338379 0.25098039 0.27450980 0.65882353
v -0.16998829 0.07942773 -15.09292316 0.25098039 0.27450980 0.65882353
v -0.15034939 0.12629059 -14.99127960 0.25098039 0.27450980 0.65882353
v -0.15181381 0.12875351 -14.99398994 0.25098039 0.27450980 0.65882353
v -0.15652233 0.10623161 -15.06654739 0.25098039 0.27450980 0.65882353
v -0.16681550 0.14613262 -15.05626869 0.25098039 0.27450980 0.65882353
v -0.15236568 0.10668950 -15.07688713 0.25098039 0.27450980 0.65882353
v -0.18726915 0.09063590 -15.04913521 0.25098039 0.27450980 0.65882353
v -0.18125248 0.08465318 -15.04747295 0.25098039 0.27450980 0.65882353
v -0.18058947 0.08449364 -15.04174519 0.25098039 0.27450980 0.65882353
v -0.18637541 0.08735861 -15.04110527 0.25098039 0.27450980 0.65882353
v -0.16254753 0.11453538 -15.00453949 0.25098039 0.27450980 0.65882353
v -0.15662032 0.11532874 -15.00468063 0.25098039 0.27450980 0.65882353
v -0.15632221 0.11468729 -15.00042725 0.25098039 0.27450980 0.65882353
v -0.16204762 0.11341719 -14.99936008 0.25098039 0.27450980 0.65882353
v -0.15061256 0.12873262 -15.02347946 0.25098039 0.27450980 0.65882353
v -0.14865424 0.13518798 -15.02351093 0.25098039 0.27450980 0.65882353
v -0.14958876 0.13215192 -15.01805973 0.25098039 0.27450980 0.65882353
v -0.15251142 0.12672143 -15.01953506 0.25098039 0.27450980 0.65882353
v -0.15152887 0.14053015 -15.02104473 0.25098039 0.27450980 0.65882353
v -0.15127723 0.13809411 -15.01538754 0.25098039 0.27450980 0.65882353
v -0.16821164 0.11755797 -15.00220490 0.25098039 0.27450980 0.65882353
v -0.17047596 0.12377725 -14.99825191 0.25098039 0.27450980 0.65882353
v -0.17247057 0.12952447 -15.01384735 0.25098039 0.27450980 0.65882353
v -0.16853291 0.12211291 -15.01508141 0.25098039 0.27450980 0.65882353
v -0.18409070 0.11702440 -15.09259796 0.25098039 0.27450980 0.65882353
v -0.18473065 0.10681027 -15.09728527 0.25098039 0.27450980 0.65882353
v -0.18625632 0.10164212 -15.08330441 0.25098039 0.27450980 0.65882353
v -0.18860719 0.09621866 -15.06997395 0.25098039 0.27450980 0.65882353
v -0.18930160 0.09166047 -15.05737305 0.25098039 0.27450980 0.65882353
v -0.19096874 0.10281704 -15.05257702 0.25098039 0.27450980 0.65882353
v -0.18522155 0.09470767 -15.08791828 0.25098039 0.27450980 0.65882353
v -0.16994807 0.12391172 -15.02282238 0.25098039 0.27450980 0.65882353
v -0.17346221 0.13249591 -15.02409935 0.25098039 0.27450980 0.65882353
v -0.17561777 0.12713502 -15.02593136 0.25098039 0.27450980 0.65882353
v -0.15285088 0.09950164 -15.07922935 0.25098039 0.27450980 0.65882353
v -0.15208130 0.13132311 -14.99784756 0.25098039 0.27450980 0.65882353
v -0.16540022 0.15286465 -15.11215401 0.25098039 0.27450980 0.65882353
v -0.17555743 0.14353549 -15.11516666 0.25098039 0.27450980 0.65882353
v -0.17395008 0.14320944 -15.10662460 0.25098039 0.27450980 0.65882353
v -0.16199210 0.15352364 -15.10280418 0.25098039 0.27450980 0.65882353
v -0.15130273 0.12013874 -15.00342751 0.25098039 0.27450980 0.65882353
v -0.14921391 0.12615187 -15.00104332 0.25098039 0.27450980 0.65882353
v -0.16820069 0.08529277 -15.04600525 0.25098039 0.27450980 0.65882353
v -0.17026314 0.08671816 -15.03909206 0.25098039 0.27450980 0.65882353
v -0.17337862 0.08411587 -15.03917503 0.25098039 0.27450980 0.65882353
v -0.17016549 0.08027987 -15.04530716 0.25098039 0.27450980 0.65882353
v -0.18364896 0.10184743 -15.10087395 0.25098039 0.27450980 0.65882353
v -0.18259661 0.07136104 -15.06410980 0.25098039 0.27450980 0.65882353
v -0.18907103 0.07978109 -15.06038857 0.25098039 0.27450980 0.65882353
v -0.18306637 0.11164220 -15.10931301 0.25098039 0.27450980 0.65882353
v -0.18335342 0.12080038 -15.10537624 0.25098039 0.27450980 0.65882353
v -0.18331391 0.12300754 -15.11474419 0.25098039 0.27450980 0.65882353
v -0.18786943 0.11225557 -15.03979874 0.25098039 0.27450980 0.65882353
v -0.18284523 0.12383727 -15.08718204 0.25098039 0.27450980 0.65882353
v -0.18138830 0.12699097 -15.10114002 0.25098039 0.27450980 0.65882353
v -0.18121755 0.13001333 -15.11204338 0.25098039 0.27450980 0.65882353
v -0.18210176 0.13187420 -15.11996174 0.25098039 0.27450980 0.65882353
v -0.18371886 0.12374105 -15.12206841 0.25098039 0.27450980 0.65882353
v -0.16765456 0.12854975 -14.99545765 0.25098039 0.27450980 0.65882353
v -0.16870198 0.12051702 -14.99235249 0.25098039 0.27450980 0.65882353
v -0.18550831 0.12461890 -15.13046837 0.25098039 0.27450980 0.65882353
v -0.18291509 0.13336608 -15.12776566 0.25098039 0.27450980 0.65882353
v -0.17816627 0.13484599 -15.09672356 0.25098039 0.27450980 0.65882353
v -0.17268148 0.14401667 -15.09118748 0.25098039 0.27450980 0.65882353
v -0.17954192 0.13158935 -15.08335400 0.25098039 0.27450980 0.65882353
v -0.17463472 0.14035369 -15.07695770 0.25098039 0.27450980 0.65882353
v -0.18735154 0.12358597 -15.03930855 0.25098039 0.27450980 0.65882353
v -0.16055872 0.10862358 -14.98238468 0.25098039 0.27450980 0.65882353
v -0.16525146 0.11331479 -14.99114037 0.25098039 0.27450980 0.65882353
v -0.16106001 0.11150930 -14.99483871 0.25098039 0.27450980 0.65882353
v -0.15856688 0.10638301 -14.98570156 0.25098039 0.27450980 0.65882353
v -0.16686699 0.11551373 -14.99655151 0.25098039 0.27450980 0.65882353
v -0.16619933 0.11820415 -14.98811436 0.25098039 0.27450980 0.65882353
v -0.16305298 0.14913645 -15.07056618 0.25098039 0.27450980 0.65882353
v -0.16073895 0.11788817 -15.02359200 0.25098039 0.27450980 0.65882353
v -0.15662119 0.15412065 -15.08533478 0.25098039 0.27450980 0.65882353
v -0.14843211 0.15313470 -15.06000805 0.25098039 0.27450980 0.65882353
v -0.14208208 0.15555227 -15.07104206 0.25098039 0.27450980 0.65882353
v -0.14815874 0.15908606 -15.10063267 0.25098039 0.27450980 0.65882353
v -0.13753593 0.15865564 -15.08629131 0.25098039 0.27450980 0.65882353
v -0.15534100 0.15787177 -15.11870861 0.25098039 0.27450980 0.65882353
v -0.15336202 0.15811580 -15.10960388 0.25098039 0.27450980 0.65882353
v -0.12631723 0.15339939 -15.07360268 0.25098039 0.27450980 0.65882353
v -0.14659193 0.11510174 -14.98856354 0.25098039 0.27450980 0.65882353
v -0.14955813 0.11028462 -14.99057293 0.25098039 0.27450980 0.65882353
v -0.16667029 0.15367654 -15.12044334 0.25098039 0.27450980 0.65882353
v -0.12539732 0.11566250 -15.07000446 0.25098039 0.27450980 0.65882353
v -0.14770138 0.10224544 -15.08834457 0.25098039 0.27450980 0.65882353
v -0.14754350 0.10756913 -15.08607388 0.25098039 0.27450980 0.65882353
v -0.15289173 0.08595294 -15.09882736 0.25098039 0.27450980 0.65882353
v -0.14761382 0.09513609 -15.09214973 0.25098039 0.27450980 0.65882353
v -0.14660217 0.11942281 -14.98506832 0.25098039 0.27450980 0.65882353
v -0.17381097 0.10144956 -15.02528763 0.25098039 0.27450980 0.65882353
v -0.17505494 0.10200509 -15.02764702 0.25098039 0.27450980 0.65882353
v -0.10924052 0.12245934 -15.07225418 0.25098039 0.27450980 0.65882353
v -0.10689636 0.11988570 -15.06580162 0.25098039 0.27450980 0.65882353
v -0.10480696 0.13240969 -15.06001472 0.25098039 0.27450980 0.65882353
v -0.10370860 0.12618303 -15.06412983 0.25098039 0.27450980 0.65882353
v -0.10663082 0.13095237 -15.07096577 0.25098039 0.27450980 0.65882353
v -0.10852593 0.13817422 -15.06715584 0.25098039 0.27450980 0.65882353
v -0.14146772 0.10872008 -15.09568024 0.25098039 0.27450980 0.65882353
v -0.14214984 0.10465937 -15.09672832 0.25098039 0.27450980 0.65882353
v -0.17588130 0.09060454 -15.10396099 0.25098039 0.27450980 0.65882353
v -0.16619495 0.08408529 -15.10257339 0.25098039 0.27450980 0.65882353
v -0.15726773 0.14371535 -15.01987171 0.25098039 0.27450980 0.65882353
v -0.16465545 0.14681895 -15.02741241 0.25098039 0.27450980 0.65882353
v -0.16451532 0.14359057 -15.01939487 0.25098039 0.27450980 0.65882353
v -0.16985792 0.13737920 -15.01322460 0.25098039 0.27450980 0.65882353
v -0.16552967 0.12046970 -15.02080727 0.25098039 0.27450980 0.65882353
v -0.16761047 0.12466223 -15.02087498 0.25098039 0.27450980 0.65882353
v -0.13316955 0.11997590 -15.10124302 0.25098039 0.27450980 0.65882353
v -0.14086515 0.11846656 -15.09033680 0.25098039 0.27450980 0.65882353
v -0.12681144 0.12033504 -15.05704117 0.25098039 0.27450980 0.65882353
v -0.12337698 0.11984852 -15.05222321 0.25098039 0.27450980 0.65882353
v -0.15874898 0.11018177 -15.04276180 0.25098039 0.27450980 0.65882353
v -0.18577491 0.11075984 -15.02845097 0.25098039 0.27450980 0.65882353
v -0.18525669 0.12040008 -15.02806664 0.25098039 0.27450980 0.65882353
v -0.16111761 0.10964711 -15.03382778 0.25098039 0.27450980 0.65882353
v -0.15260875 0.12059677 -14.97875309 0.25098039 0.27450980 0.65882353
v -0.14856231 0.12089794 -14.98192215 0.25098039 0.27450980 0.65882353
v -0.17077899 0.14060569 -15.02159786 0.25098039 0.27450980 0.65882353
v -0.16383637 0.09094651 -15.05219173 0.25098039 0.27450980 0.65882353
v -0.18698587 0.10566087 -15.03484535 0.25098039 0.27450980 0.65882353
v -0.18189484 0.10422429 -15.02585030 0.25098039 0.27450980 0.65882353
v -0.17505258 0.07101883 -15.06700134 0.25098039 0.27450980 0.65882353
v -0.17589247 0.14458850 -15.12369537 0.25098039 0.27450980 0.65882353
v -0.15553696 0.11216620 -14.99666023 0.25098039 0.27450980 0.65882353
v -0.15371734 0.10702695 -14.99048519 0.25098039 0.27450980 0.65882353
v -0.16093004 0.11245044 -14.98013210 0.25098039 0.27450980 0.65882353
v -0.15833449 0.11792783 -14.97856522 0.25098039 0.27450980 0.65882353
v -0.16162929 0.08914044 -15.11080265 0.25098039 0.27450980 0.65882353
v -0.14763217 0.11084172 -15.08423233 0.25098039 0.27450980 0.65882353
v -0.11744000 0.14609790 -15.06441498 0.25098039 0.27450980 0.65882353
v -0.11001904 0.13707495 -15.05594540 0.25098039 0.27450980 0.65882353
v -0.16319415 0.10928106 -15.02828884 0.25098039 0.27450980 0.65882353
v -0.18610430 0.08411627 -15.05343914 0.25098039 0.27450980 0.65882353
v -0.19063455 0.09811402 -15.04414177 0.25098039 0.27450980 0.65882353
v -0.19054961 0.09389862 -15.03581715 0.25098039 0.27450980 0.65882353
v -0.18848503 0.09911596 -15.02998161 0.25098039 0.27450980 0.65882353
v -0.18233848 0.10158421 -15.02585316 0.25098039 0.27450980 0.65882353
v -0.15776300 0.10872883 -14.97720146 0.25098039 0.27450980 0.65882353
v -0.15519226 0.11431871 -14.97556210 0.25098039 0.27450980 0.65882353
v -0.14961927 0.11738553 -14.97603607 0.25098039 0.27450980 0.65882353
v -0.14626949 0.11825079 -14.97932148 0.25098039 0.27450980 0.65882353
v -0.14523083 0.11701771 -14.98346710 0.25098039 0.27450980 0.65882353
v -0.15708274 0.10495129 -14.97986412 0.25098039 0.27450980 0.65882353
v -0.15515012 0.10351220 -14.98321438 0.25098039 0.27450980 0.65882353
v -0.15232581 0.10531849 -14.98846340 0.25098039 0.27450980 0.65882353
v -0.15322794 0.10193054 -14.97932434 0.25098039 0.27450980 0.65882353
v -0.15144341 0.10361683 -14.97449589 0.25098039 0.27450980 0.65882353
v -0.13839246 0.10916486 -14.97396946 0.25098039 0.27450980 0.65882353
v -0.14371909 0.11175282 -14.97338581 0.25098039 0.27450980 0.65882353
v -0.14325207 0.10923381 -14.97248459 0.25098039 0.27450980 0.65882353
v -0.13912453 0.10640267 -14.97240448 0.25098039 0.27450980 0.65882353
v -0.13579999 0.10256222 -14.97159481 0.25098039 0.27450980 0.65882353
v -0.13441856 0.10528013 -14.97334099 0.25098039 0.27450980 0.65882353
v -0.14772634 0.10772586 -14.97271252 0.25098039 0.27450980 0.65882353
v -0.14265148 0.10333973 -14.97228718 0.25098039 0.27450980 0.65882353
v -0.14501162 0.10014366 -14.97384644 0.25098039 0.27450980 0.65882353
v -0.14075141 0.09676506 -14.97263718 0.25098039 0.27450980 0.65882353
v -0.13853346 0.09946993 -14.97114277 0.25098039 0.27450980 0.65882353
v -0.14840637 0.10331020 -14.97371006 0.25098039 0.27450980 0.65882353
v -0.14980118 0.10929520 -14.97256374 0.25098039 0.27450980 0.65882353
v -0.13288309 0.10101962 -14.97285557 0.25098039 0.27450980 0.65882353
v -0.13435768 0.10008672 -14.97109127 0.25098039 0.27450980 0.65882353
v -0.13620034 0.09733213 -14.97112560 0.25098039 0.27450980 0.65882353
v -0.13402458 0.09616943 -14.97273159 0.25098039 0.27450980 0.65882353
v -0.14300127 0.11525705 -14.97807407 0.25098039 0.27450980 0.65882353
v -0.13715942 0.10984711 -14.97623730 0.25098039 0.27450980 0.65882353
v -0.13381444 0.10493067 -14.97644234 0.25098039 0.27450980 0.65882353
v -0.13246751 0.10071772 -14.97564697 0.25098039 0.27450980 0.65882353
v -0.13643436 0.10773984 -14.97978210 0.25098039 0.27450980 0.65882353
v -0.13428234 0.10378361 -14.97918606 0.25098039 0.27450980 0.65882353
v -0.13344234 0.09997029 -14.97872257 0.25098039 0.27450980 0.65882353
v -0.13710210 0.10480170 -14.98303127 0.25098039 0.27450980 0.65882353
v -0.13530684 0.10169911 -14.98148537 0.25098039 0.27450980 0.65882353
v -0.14411482 0.11246894 -14.98577881 0.25098039 0.27450980 0.65882353
v -0.14341711 0.11559210 -14.98284531 0.25098039 0.27450980 0.65882353
v -0.13421074 0.09962778 -14.98072624 0.25098039 0.27450980 0.65882353
v -0.13383950 0.09565109 -14.97482967 0.25098039 0.27450980 0.65882353
v -0.14753295 0.09895210 -14.97632027 0.25098039 0.27450980 0.65882353
v -0.14151399 0.09537119 -14.97550201 0.25098039 0.27450980 0.65882353
v -0.14764823 0.09807922 -14.97862530 0.25098039 0.27450980 0.65882353
v -0.14196102 0.09432995 -14.97759056 0.25098039 0.27450980 0.65882353
v -0.13783067 0.09348852 -14.97396278 0.25098039 0.27450980 0.65882353
v -0.13817041 0.09537923 -14.97235680 0.25098039 0.27450980 0.65882353
v -0.14632639 0.11361359 -14.98739529 0.25098039 0.27450980 0.65882353
v -0.14944570 0.10870989 -14.98936367 0.25098039 0.27450980 0.65882353
v -0.14759387 0.10760428 -14.98825836 0.25098039 0.27450980 0.65882353
v -0.13988562 0.10127824 -14.98503590 0.25098039 0.27450980 0.65882353
v -0.15004104 0.10396264 -14.98749352 0.25098039 0.27450980 0.65882353
v -0.15147448 0.10098860 -14.98275948 0.25098039 0.27450980 0.65882353
v -0.14609835 0.09728867 -14.98111248 0.25098039 0.27450980 0.65882353
v -0.14381054 0.09803370 -14.98375702 0.25098039 0.27450980 0.65882353
v -0.14144424 0.09481303 -14.98005581 0.25098039 0.27450980 0.65882353
v -0.14010410 0.09619622 -14.98178959 0.25098039 0.27450980 0.65882353
v -0.13726093 0.09877994 -14.98272514 0.25098039 0.27450980 0.65882353
v -0.13760032 0.09430003 -14.97894287 0.25098039 0.27450980 0.65882353
v -0.13780576 0.09341852 -14.97613335 0.25098039 0.27450980 0.65882353
v -0.13449633 0.09625331 -14.97808170 0.25098039 0.27450980 0.65882353
v -0.13774598 0.09529386 -14.98057652 0.25098039 0.27450980 0.65882353
v -0.13556871 0.09738903 -14.98019981 0.25098039 0.27450980 0.65882353
v -0.16155441 0.10422970 -14.99553299 0.25098039 0.27450980 0.65882353
v -0.16322774 0.09799419 -14.99771309 0.25098039 0.27450980 0.65882353
v -0.16586307 0.10055959 -14.99934006 0.25098039 0.27450980 0.65882353
v -0.16419348 0.10573053 -14.99762344 0.25098039 0.27450980 0.65882353
v -0.17135708 0.10833552 -14.98566818 0.25098039 0.27450980 0.65882353
v -0.16580985 0.10898313 -14.98884773 0.25098039 0.27450980 0.65882353
v -0.16956669 0.11202865 -14.99129486 0.25098039 0.27450980 0.65882353
v -0.17616899 0.11077879 -14.98918533 0.25098039 0.27450980 0.65882353
v -0.17701396 0.10338894 -14.98611355 0.25098039 0.27450980 0.65882353
v -0.18154353 0.10580945 -14.99003410 0.25098039 0.27450980 0.65882353
v -0.17832303 0.11398209 -14.99395752 0.25098039 0.27450980 0.65882353
v -0.17124835 0.11460723 -14.99586678 0.25098039 0.27450980 0.65882353
v -0.17186317 0.12121001 -15.01575089 0.25098039 0.27450980 0.65882353
v -0.17921250 0.12149845 -15.01474094 0.25098039 0.27450980 0.65882353
v -0.16892695 0.10275625 -15.02203751 0.25098039 0.27450980 0.65882353
v -0.17320031 0.10151623 -15.02078438 0.25098039 0.27450980 0.65882353
v -0.16261266 0.10713209 -14.99274254 0.25098039 0.27450980 0.65882353
v -0.16574638 0.10957335 -14.99477005 0.25098039 0.27450980 0.65882353
v -0.17304794 0.09485368 -15.00323486 0.25098039 0.27450980 0.65882353
v -0.16779041 0.09718295 -15.00352764 0.25098039 0.27450980 0.65882353
v -0.16796106 0.09607731 -15.00050259 0.25098039 0.27450980 0.65882353
v -0.17293084 0.09352945 -14.99919415 0.25098039 0.27450980 0.65882353
v -0.16496488 0.11494150 -15.01947880 0.25098039 0.27450980 0.65882353
v -0.16646002 0.10853552 -15.02156734 0.25098039 0.27450980 0.65882353
v -0.16727206 0.11838870 -15.01741886 0.25098039 0.27450980 0.65882353
v -0.17966753 0.09557124 -15.00110626 0.25098039 0.27450980 0.65882353
v -0.18441552 0.09994263 -14.99810219 0.25098039 0.27450980 0.65882353
v -0.18663737 0.10774002 -15.01711655 0.25098039 0.27450980 0.65882353
v -0.18216586 0.10235788 -15.01838303 0.25098039 0.27450980 0.65882353
v -0.16648796 0.11214012 -14.99810219 0.25098039 0.27450980 0.65882353
v -0.16442150 0.10207739 -15.00195599 0.25098039 0.27450980 0.65882353
v -0.16350329 0.10760089 -15.00042725 0.25098039 0.27450980 0.65882353
v -0.18349016 0.10829318 -14.99571609 0.25098039 0.27450980 0.65882353
v -0.18155175 0.09768984 -14.99239731 0.25098039 0.27450980 0.65882353
v -0.16630836 0.08596922 -14.98495770 0.25098039 0.27450980 0.65882353
v -0.17426428 0.09104817 -14.99206924 0.25098039 0.27450980 0.65882353
v -0.17019969 0.09084100 -14.99574757 0.25098039 0.27450980 0.65882353
v -0.16286156 0.08475283 -14.98889732 0.25098039 0.27450980 0.65882353
v -0.17769572 0.09375693 -14.99607468 0.25098039 0.27450980 0.65882353
v -0.17703453 0.09530677 -14.98849678 0.25098039 0.27450980 0.65882353
v -0.15271968 0.09561053 -14.98961449 0.25098039 0.27450980 0.65882353
v -0.15499431 0.08972018 -14.99192810 0.25098039 0.27450980 0.65882353
v -0.15297079 0.09907614 -14.98612404 0.25098039 0.27450980 0.65882353
v -0.18525343 0.11628032 -15.01578331 0.25098039 0.27450980 0.65882353
v -0.16129185 0.10098051 -14.97926426 0.25098039 0.27450980 0.65882353
v -0.15550488 0.10117762 -14.98295784 0.25098039 0.27450980 0.65882353
v -0.16618341 0.09328794 -14.99849033 0.25098039 0.27450980 0.65882353
v -0.15852094 0.08583677 -14.99155521 0.25098039 0.27450980 0.65882353
v -0.16783319 0.08918911 -14.98172569 0.25098039 0.27450980 0.65882353
v -0.16720431 0.09676028 -14.97935009 0.25098039 0.27450980 0.65882353
v -0.16317323 0.08657770 -14.97903824 0.25098039 0.27450980 0.65882353
v -0.16153669 0.09282111 -14.97647667 0.25098039 0.27450980 0.65882353
v -0.15611497 0.09740575 -14.97696495 0.25098039 0.27450980 0.65882353
v -0.15206432 0.09831645 -14.98148441 0.25098039 0.27450980 0.65882353
v -0.15092364 0.09692591 -14.98521519 0.25098039 0.27450980 0.65882353
v -0.16197255 0.08361551 -14.98245430 0.25098039 0.27450980 0.65882353
v -0.15939485 0.08276469 -14.98665714 0.25098039 0.27450980 0.65882353
v -0.15653498 0.08527040 -14.99028206 0.25098039 0.27450980 0.65882353
v -0.15584394 0.08035299 -14.98260021 0.25098039 0.27450980 0.65882353
v -0.15549852 0.08212403 -14.97820377 0.25098039 0.27450980 0.65882353
v -0.13739175 0.08746189 -14.97806358 0.25098039 0.27450980 0.65882353
v -0.14250153 0.09044931 -14.97736645 0.25098039 0.27450980 0.65882353
v -0.14347793 0.08821084 -14.97614002 0.25098039 0.27450980 0.65882353
v -0.13881579 0.08540906 -14.97658730 0.25098039 0.27450980 0.65882353
v -0.14830972 0.09213641 -14.97545433 0.25098039 0.27450980 0.65882353
v -0.14783528 0.08958939 -14.97523880 0.25098039 0.27450980 0.65882353
v -0.15147282 0.08641108 -14.97542286 0.25098039 0.27450980 0.65882353
v -0.14601210 0.08386318 -14.97640514 0.25098039 0.27450980 0.65882353
v -0.14870664 0.08022544 -14.97852898 0.25098039 0.27450980 0.65882353
v -0.14386204 0.07740371 -14.97825527 0.25098039 0.27450980 0.65882353
v -0.14100915 0.08079278 -14.97605324 0.25098039 0.27450980 0.65882353
v -0.15203467 0.08273000 -14.97705460 0.25098039 0.27450980 0.65882353
v -0.13637613 0.08280987 -14.97687626 0.25098039 0.27450980 0.65882353
v -0.13453923 0.08266728 -14.97867012 0.25098039 0.27450980 0.65882353
v -0.15418822 0.08802367 -14.97452641 0.25098039 0.27450980 0.65882353
v -0.14881045 0.09621689 -14.98000431 0.25098039 0.27450980 0.65882353
v -0.14124474 0.09156761 -14.98016548 0.25098039 0.27450980 0.65882353
v -0.13629694 0.08745791 -14.98125267 0.25098039 0.27450980 0.65882353
v -0.13422436 0.08160691 -14.98152637 0.25098039 0.27450980 0.65882353
v -0.14063343 0.09028584 -14.98439121 0.25098039 0.27450980 0.65882353
v -0.13644397 0.08612414 -14.98429108 0.25098039 0.27450980 0.65882353
v -0.13525192 0.08120613 -14.98404121 0.25098039 0.27450980 0.65882353
v -0.14136046 0.08751199 -14.98847961 0.25098039 0.27450980 0.65882353
v -0.13761200 0.08338301 -14.98744965 0.25098039 0.27450980 0.65882353
v -0.14990170 0.09318678 -14.98887062 0.25098039 0.27450980 0.65882353
v -0.14861119 0.09599224 -14.98497486 0.25098039 0.27450980 0.65882353
v -0.13657255 0.08137874 -14.98608494 0.25098039 0.27450980 0.65882353
v -0.13587192 0.07803132 -14.97799778 0.25098039 0.27450980 0.65882353
v -0.13523270 0.07754119 -14.98127079 0.25098039 0.27450980 0.65882353
v -0.13722676 0.07888094 -14.97703838 0.25098039 0.27450980 0.65882353
v -0.14963436 0.07881920 -14.97999859 0.25098039 0.27450980 0.65882353
v -0.14384359 0.07626551 -14.98024464 0.25098039 0.27450980 0.65882353
v -0.14974478 0.07758971 -14.98267651 0.25098039 0.27450980 0.65882353
v -0.14327334 0.07520658 -14.98239708 0.25098039 0.27450980 0.65882353
v -0.13937955 0.07521784 -14.97960567 0.25098039 0.27450980 0.65882353
v -0.13944863 0.07616992 -14.97822952 0.25098039 0.27450980 0.65882353
v -0.15172035 0.09391256 -14.98853016 0.25098039 0.27450980 0.65882353
v -0.15410952 0.08896845 -14.99073696 0.25098039 0.27450980 0.65882353
v -0.15267923 0.08852202 -14.99123764 0.25098039 0.27450980 0.65882353
v -0.14413211 0.08301236 -14.99015808 0.25098039 0.27450980 0.65882353
v -0.15520923 0.08432169 -14.99044609 0.25098039 0.27450980 0.65882353
v -0.15553269 0.08075494 -14.98637676 0.25098039 0.27450980 0.65882353
v -0.14942086 0.07764179 -14.98564243 0.25098039 0.27450980 0.65882353
v -0.14708070 0.07922970 -14.98880291 0.25098039 0.27450980 0.65882353
v -0.14337203 0.07473309 -14.98459721 0.25098039 0.27450980 0.65882353
v -0.14337927 0.07680188 -14.98722172 0.25098039 0.27450980 0.65882353
v -0.14014158 0.08027254 -14.98873520 0.25098039 0.27450980 0.65882353
v -0.13889962 0.07447540 -14.98360634 0.25098039 0.27450980 0.65882353
v -0.13892318 0.07460134 -14.98120594 0.25098039 0.27450980 0.65882353
v -0.13583429 0.07778965 -14.98340416 0.25098039 0.27450980 0.65882353
v -0.13982028 0.07592766 -14.98601913 0.25098039 0.27450980 0.65882353
v -0.13733521 0.07870640 -14.98612785 0.25098039 0.27450980 0.65882353
v -0.16844261 0.08638474 -15.00815201 0.25098039 0.27450980 0.65882353
v -0.16693786 0.08200326 -15.01229095 0.25098039 0.27450980 0.65882353
v -0.16842014 0.08345866 -15.01432037 0.25098039 0.27450980 0.65882353
v -0.16992018 0.08790854 -15.01046944 0.25098039 0.27450980 0.65882353
v -0.17989710 0.08300274 -15.00290203 0.25098039 0.27450980 0.65882353
v -0.17579117 0.08591016 -15.00241566 0.25098039 0.27450980 0.65882353
v -0.17825456 0.08837686 -15.00543976 0.25098039 0.27450980 0.65882353
v -0.18326232 0.08628944 -15.00667095 0.25098039 0.27450980 0.65882353
v -0.18079121 0.07740255 -15.00456715 0.25098039 0.27450980 0.65882353
v -0.18567294 0.08099259 -15.00966072 0.25098039 0.27450980 0.65882353
v -0.18610993 0.08968510 -15.01087093 0.25098039 0.27450980 0.65882353
v -0.18011239 0.09117883 -15.00890160 0.25098039 0.27450980 0.65882353
v -0.18198879 0.09902754 -15.02240562 0.25098039 0.27450980 0.65882353
v -0.18846837 0.09634387 -15.02374172 0.25098039 0.27450980 0.65882353
v -0.17184438 0.08699679 -15.00483036 0.25098039 0.27450980 0.65882353
v -0.17346066 0.08897923 -15.00732803 0.25098039 0.27450980 0.65882353
v -0.17204371 0.07631835 -15.02060890 0.25098039 0.27450980 0.65882353
v -0.16892835 0.07999898 -15.01922417 0.25098039 0.27450980 0.65882353
v -0.16925094 0.07830299 -15.01682854 0.25098039 0.27450980 0.65882353
v -0.17203155 0.07504600 -15.01764679 0.25098039 0.27450980 0.65882353
v -0.17139834 0.09715801 -15.02755451 0.25098039 0.27450980 0.65882353
v -0.17149970 0.09217936 -15.03207302 0.25098039 0.27450980 0.65882353
v -0.17540252 0.09883741 -15.02375507 0.25098039 0.27450980 0.65882353
v -0.17875372 0.07468088 -15.02005768 0.25098039 0.27450980 0.65882353
v -0.18590048 0.07751498 -15.01818562 0.25098039 0.27450980 0.65882353
v -0.18704148 0.08332831 -15.03190422 0.25098039 0.27450980 0.65882353
v -0.18084973 0.08207431 -15.03397560 0.25098039 0.27450980 0.65882353
v -0.17469391 0.09123872 -15.00989628 0.25098039 0.27450980 0.65882353
v -0.16789272 0.08539907 -15.01667976 0.25098039 0.27450980 0.65882353
v -0.16976480 0.08980457 -15.01268578 0.25098039 0.27450980 0.65882353
v -0.18804398 0.08444786 -15.01454353 0.25098039 0.27450980 0.65882353
v -0.18276195 0.07500292 -15.01322746 0.25098039 0.27450980 0.65882353
v -0.16734517 0.06367289 -15.00236893 0.25098039 0.27450980 0.65882353
v -0.17596787 0.07094523 -15.01341152 0.25098039 0.27450980 0.65882353
v -0.17067610 0.07342423 -15.01558399 0.25098039 0.27450980 0.65882353
v -0.16379428 0.06478998 -15.00511837 0.25098039 0.27450980 0.65882353
v -0.17729150 0.07269056 -15.01635742 0.25098039 0.27450980 0.65882353
v -0.18003567 0.07259870 -15.00933170 0.25098039 0.27450980 0.65882353
v -0.15899915 0.07808618 -14.99992657 0.25098039 0.27450980 0.65882353
v -0.15877110 0.07382184 -15.00410461 0.25098039 0.27450980 0.65882353
v -0.16224144 0.07950890 -14.99698448 0.25098039 0.27450980 0.65882353
v -0.19110952 0.09012952 -15.02763367 0.25098039 0.27450980 0.65882353
v -0.17431536 0.08484741 -15.03480911 0.25098039 0.27450980 0.65882353
v -0.16809852 0.07610665 -14.99290180 0.25098039 0.27450980 0.65882353
v -0.16479672 0.07885613 -14.99453163 0.25098039 0.27450980 0.65882353
v -0.16803211 0.07710630 -15.01500797 0.25098039 0.27450980 0.65882353
v -0.16052124 0.06832729 -15.00616264 0.25098039 0.27450980 0.65882353
v -0.17062402 0.06572130 -14.99898338 0.25098039 0.27450980 0.65882353
v -0.17167664 0.07126611 -14.99511242 0.25098039 0.27450980 0.65882353
v -0.16569498 0.06291795 -14.99652863 0.25098039 0.27450980 0.65882353
v -0.16625662 0.06798638 -14.99230289 0.25098039 0.27450980 0.65882353
v -0.16306716 0.07288632 -14.99030304 0.25098039 0.27450980 0.65882353
v -0.16042614 0.07614873 -14.99253654 0.25098039 0.27450980 0.65882353
v -0.15849428 0.07718835 -14.99530983 0.25098039 0.27450980 0.65882353
v -0.16286296 0.06171887 -15.00072479 0.25098039 0.27450980 0.65882353
v -0.16045518 0.06356928 -15.00349045 0.25098039 0.27450980 0.65882353
v -0.15973091 0.06814630 -15.00495720 0.25098039 0.27450980 0.65882353
v -0.15873933 0.06069297 -15.00088215 0.25098039 0.27450980 0.65882353
v -0.15902355 0.06070306 -14.99510479 0.25098039 0.27450980 0.65882353
v -0.14424980 0.06714166 -14.98976803 0.25098039 0.27450980 0.65882353
v -0.14968921 0.06900749 -14.98995590 0.25098039 0.27450980 0.65882353
v -0.15005545 0.06775058 -14.99001503 0.25098039 0.27450980 0.65882353
v -0.14476173 0.06555728 -14.98938560 0.25098039 0.27450980 0.65882353
v -0.15642621 0.06930339 -14.98922729 0.25098039 0.27450980 0.65882353
v -0.15513036 0.06772651 -14.98951054 0.25098039 0.27450980 0.65882353
v -0.15714678 0.06448185 -14.99087143 0.25098039 0.27450980 0.65882353
v -0.15101807 0.06261477 -14.99100113 0.25098039 0.27450980 0.65882353
v -0.15222892 0.05960914 -14.99630642 0.25098039 0.27450980 0.65882353
v -0.14724880 0.05895432 -14.99550724 0.25098039 0.27450980 0.65882353
v -0.14587161 0.06112677 -14.99050903 0.25098039 0.27450980 0.65882353
v -0.15711971 0.06121790 -14.99435711 0.25098039 0.27450980 0.65882353
v -0.14219438 0.06374367 -14.98968315 0.25098039 0.27450980 0.65882353
v -0.14077492 0.06491392 -14.98898697 0.25098039 0.27450980 0.65882353
v -0.15963320 0.06499719 -14.99058151 0.25098039 0.27450980 0.65882353
v -0.15566905 0.07415798 -14.99072456 0.25098039 0.27450980 0.65882353
v -0.14856295 0.07169732 -14.99086094 0.25098039 0.27450980 0.65882353
v -0.14294186 0.07002187 -14.99077511 0.25098039 0.27450980 0.65882353
v -0.13983022 0.06707150 -14.99182796 0.25098039 0.27450980 0.65882353
v -0.14755154 0.07298927 -14.99440384 0.25098039 0.27450980 0.65882353
v -0.14285289 0.07075357 -14.99388218 0.25098039 0.27450980 0.65882353
v -0.13996851 0.06805612 -14.99463177 0.25098039 0.27450980 0.65882353
v -0.14716116 0.07255940 -14.99785519 0.25098039 0.27450980 0.65882353
v -0.14318939 0.07022570 -14.99720478 0.25098039 0.27450980 0.65882353
v -0.15570736 0.07578851 -14.99859047 0.25098039 0.27450980 0.65882353
v -0.15546907 0.07600868 -14.99442959 0.25098039 0.27450980 0.65882353
v -0.14099897 0.06815210 -14.99674988 0.25098039 0.27450980 0.65882353
v -0.14072756 0.06061497 -14.99122810 0.25098039 0.27450980 0.65882353
v -0.13921402 0.06225098 -14.99484539 0.25098039 0.27450980 0.65882353
v -0.14242534 0.06098144 -14.99115086 0.25098039 0.27450980 0.65882353
v -0.15287645 0.05906536 -14.99809551 0.25098039 0.27450980 0.65882353
v -0.14650759 0.05782862 -14.99751091 0.25098039 0.27450980 0.65882353
v -0.15242904 0.05966151 -15.00102520 0.25098039 0.27450980 0.65882353
v -0.14617445 0.05848227 -15.00015163 0.25098039 0.27450980 0.65882353
v -0.14293225 0.05801753 -14.99523640 0.25098039 0.27450980 0.65882353
v -0.14359231 0.05854920 -14.99442387 0.25098039 0.27450980 0.65882353
v -0.15785152 0.07617545 -14.99919128 0.25098039 0.27450980 0.65882353
v -0.15819719 0.07270928 -15.00323677 0.25098039 0.27450980 0.65882353
v -0.15646651 0.07290187 -15.00280380 0.25098039 0.27450980 0.65882353
v -0.14733976 0.06986497 -15.00209808 0.25098039 0.27450980 0.65882353
v -0.15784478 0.06852321 -15.00493336 0.25098039 0.27450980 0.65882353
v -0.15667428 0.06292938 -15.00349808 0.25098039 0.27450980 0.65882353
v -0.15094145 0.06209332 -15.00307751 0.25098039 0.27450980 0.65882353
v -0.14876865 0.06548322 -15.00368881 0.25098039 0.27450980 0.65882353
v -0.14556175 0.06067857 -15.00195980 0.25098039 0.27450980 0.65882353
v -0.14553863 0.06358636 -15.00230026 0.25098039 0.27450980 0.65882353
v -0.14343277 0.06802734 -15.00090122 0.25098039 0.27450980 0.65882353
v -0.14224775 0.06124957 -14.99947739 0.25098039 0.27450980 0.65882353
v -0.14221111 0.05892760 -14.99768829 0.25098039 0.27450980 0.65882353
v -0.13962728 0.06431017 -14.99719334 0.25098039 0.27450980 0.65882353
v -0.14254190 0.06343184 -15.00063419 0.25098039 0.27450980 0.65882353
v -0.14066501 0.06585394 -14.99886036 0.25098039 0.27450980 0.65882353
v -0.17219476 0.08801574 -15.03436852 0.25098039 0.27450980 0.65882353
v -0.16552109 0.06283785 -15.03242683 0.25098039 0.27450980 0.65882353
v -0.16400722 0.06041972 -15.03562546 0.25098039 0.27450980 0.65882353
v -0.16571955 0.06142361 -15.03819466 0.25098039 0.27450980 0.65882353
v -0.16680239 0.06487700 -15.03567123 0.25098039 0.27450980 0.65882353
v -0.17626809 0.05995117 -15.03019524 0.25098039 0.27450980 0.65882353
v -0.17244813 0.06230782 -15.02908516 0.25098039 0.27450980 0.65882353
v -0.17469202 0.06538772 -15.03215885 0.25098039 0.27450980 0.65882353
v -0.17845492 0.06325314 -15.03328133 0.25098039 0.27450980 0.65882353
v -0.17750482 0.05603699 -15.03312111 0.25098039 0.27450980 0.65882353
v -0.17965651 0.05902384 -15.03636360 0.25098039 0.27450980 0.65882353
v -0.18022776 0.06597633 -15.03555393 0.25098039 0.27450980 0.65882353
v -0.17603460 0.06821352 -15.03457355 0.25098039 0.27450980 0.65882353
v -0.17926586 0.07938249 -15.04445553 0.25098039 0.27450980 0.65882353
v -0.18415710 0.07770281 -15.04762268 0.25098039 0.27450980 0.65882353
v -0.17368948 0.06859843 -15.06177711 0.25098039 0.27450980 0.65882353
v -0.16891345 0.07236741 -15.06068420 0.25098039 0.27450980 0.65882353
v -0.16900080 0.06699491 -15.05402565 0.25098039 0.27450980 0.65882353
v -0.17314151 0.06452210 -15.05651474 0.25098039 0.27450980 0.65882353
v -0.16866213 0.06325695 -15.03013134 0.25098039 0.27450980 0.65882353
v -0.16989523 0.06631118 -15.03308582 0.25098039 0.27450980 0.65882353
v -0.17035407 0.05611538 -15.04638958 0.25098039 0.27450980 0.65882353
v -0.16701332 0.05907663 -15.04422665 0.25098039 0.27450980 0.65882353
v -0.16582838 0.05821187 -15.04124451 0.25098039 0.27450980 0.65882353
v -0.16809975 0.05435311 -15.04323864 0.25098039 0.27450980 0.65882353
v -0.16727926 0.07582420 -15.05599880 0.25098039 0.27450980 0.65882353
v -0.16824187 0.07878713 -15.05168056 0.25098039 0.27450980 0.65882353
v -0.16749457 0.07604738 -15.04828548 0.25098039 0.27450980 0.65882353
v -0.16733611 0.07043633 -15.05003357 0.25098039 0.27450980 0.65882353
v -0.17128311 0.07858610 -15.04432583 0.25098039 0.27450980 0.65882353
v -0.17452487 0.05513106 -15.04617977 0.25098039 0.27450980 0.65882353
v -0.17961922 0.05672488 -15.04340744 0.25098039 0.27450980 0.65882353
v -0.18386629 0.06603037 -15.05672550 0.25098039 0.27450980 0.65882353
v -0.17873172 0.06477605 -15.05801868 0.25098039 0.27450980 0.65882353
v -0.17134959 0.06818227 -15.03453445 0.25098039 0.27450980 0.65882353
v -0.16616975 0.06266454 -15.04089546 0.25098039 0.27450980 0.65882353
v -0.16730277 0.06577211 -15.03729820 0.25098039 0.27450980 0.65882353
v -0.18220916 0.06147992 -15.03896332 0.25098039 0.27450980 0.65882353
v -0.17713754 0.05449530 -15.04022694 0.25098039 0.27450980 0.65882353
v -0.16553561 0.04601359 -15.03440380 0.25098039 0.27450980 0.65882353
v -0.17037313 0.05092541 -15.04075623 0.25098039 0.27450980 0.65882353
v -0.16589753 0.05314498 -15.04083061 0.25098039 0.27450980 0.65882353
v -0.16286923 0.04762930 -15.03468227 0.25098039 0.27450980 0.65882353
v -0.17247173 0.05297909 -15.04301262 0.25098039 0.27450980 0.65882353
v -0.17495379 0.05168212 -15.03724098 0.25098039 0.27450980 0.65882353
v -0.16140473 0.05743319 -15.02659416 0.25098039 0.27450980 0.65882353
v -0.16024157 0.05436674 -15.03099918 0.25098039 0.27450980 0.65882353
v -0.16392983 0.05779644 -15.02448750 0.25098039 0.27450980 0.65882353
v -0.18677445 0.07250681 -15.05198479 0.25098039 0.27450980 0.65882353
v -0.17051449 0.05378392 -15.02380276 0.25098039 0.27450980 0.65882353
v -0.16692549 0.05645711 -15.02295303 0.25098039 0.27450980 0.65882353
v -0.16404077 0.05700786 -15.03842831 0.25098039 0.27450980 0.65882353
v -0.16094187 0.05074259 -15.03364086 0.25098039 0.27450980 0.65882353
v -0.16924870 0.04611702 -15.03197002 0.25098039 0.27450980 0.65882353
v -0.17233071 0.04954190 -15.02743816 0.25098039 0.27450980 0.65882353
v -0.16599360 0.04387968 -15.02882576 0.25098039 0.27450980 0.65882353
v -0.16927175 0.04744566 -15.02443123 0.25098039 0.27450980 0.65882353
v -0.16703822 0.05205473 -15.02098846 0.25098039 0.27450980 0.65882353
v -0.16461419 0.05503089 -15.02148151 0.25098039 0.27450980 0.65882353
v -0.16204634 0.05644441 -15.02289581 0.25098039 0.27450980 0.65882353
v -0.16251646 0.04411847 -15.03173447 0.25098039 0.27450980 0.65882353
v -0.16017383 0.04617716 -15.03252983 0.25098039 0.27450980 0.65882353
v -0.15885472 0.04975630 -15.03216553 0.25098039 0.27450980 0.65882353
v -0.15940070 0.04255985 -15.02912998 0.25098039 0.27450980 0.65882353
v -0.16159332 0.04196153 -15.02483082 0.25098039 0.27450980 0.65882353
v -0.15362388 0.04753879 -15.01545334 0.25098039 0.27450980 0.65882353
v -0.15707390 0.04917847 -15.01692009 0.25098039 0.27450980 0.65882353
v -0.15757880 0.04804545 -15.01699352 0.25098039 0.27450980 0.65882353
v -0.15423362 0.04674800 -15.01491356 0.25098039 0.27450980 0.65882353
v -0.16218543 0.04964703 -15.01872635 0.25098039 0.27450980 0.65882353
v -0.16146940 0.04811724 -15.01867199 0.25098039 0.27450980 0.65882353
v -0.16291878 0.04564125 -15.02091503 0.25098039 0.27450980 0.65882353
v -0.15857343 0.04405524 -15.01826572 0.25098039 0.27450980 0.65882353
v -0.15675592 0.04064968 -15.02216148 0.25098039 0.27450980 0.65882353
v -0.15348628 0.03982440 -15.01972198 0.25098039 0.27450980 0.65882353
v -0.15550673 0.04271032 -15.01637840 0.25098039 0.27450980 0.65882353
v -0.16105551 0.04222666 -15.02285099 0.25098039 0.27450980 0.65882353
v -0.15252209 0.04487505 -15.01387691 0.25098039 0.27450980 0.65882353
v -0.15135601 0.04521563 -15.01343346 0.25098039 0.27450980 0.65882353
v -0.16464876 0.04590664 -15.02147770 0.25098039 0.27450980 0.65882353
v -0.16105953 0.05361990 -15.01967049 0.25098039 0.27450980 0.65882353
v -0.15530711 0.05098713 -15.01700878 0.25098039 0.27450980 0.65882353
v -0.15149705 0.04837905 -15.01513386 0.25098039 0.27450980 0.65882353
v -0.14939326 0.04542173 -15.01455498 0.25098039 0.27450980 0.65882353
v -0.15427029 0.05249880 -15.01890278 0.25098039 0.27450980 0.65882353
v -0.14991388 0.04941718 -15.01653671 0.25098039 0.27450980 0.65882353
v -0.14795229 0.04638648 -15.01614475 0.25098039 0.27450980 0.65882353
v -0.15269056 0.05285457 -15.02191734 0.25098039 0.27450980 0.65882353
v -0.14917925 0.04950505 -15.01904583 0.25098039 0.27450980 0.65882353
v -0.15758139 0.05555011 -15.02528954 0.25098039 0.27450980 0.65882353
v -0.15921776 0.05535199 -15.02197075 0.25098039 0.27450980 0.65882353
v -0.14803398 0.04692563 -15.01783466 0.25098039 0.27450980 0.65882353
v -0.15100932 0.04157539 -15.01459503 0.25098039 0.27450980 0.65882353
v -0.14865451 0.04259807 -15.01600075 0.25098039 0.27450980 0.65882353
v -0.15240183 0.04141610 -15.01481915 0.25098039 0.27450980 0.65882353
v -0.15624833 0.04029795 -15.02352047 0.25098039 0.27450980 0.65882353
v -0.15226889 0.03938079 -15.02063179 0.25098039 0.27450980 0.65882353
v -0.15477133 0.04086423 -15.02564430 0.25098039 0.27450980 0.65882353
v -0.15061416 0.04023059 -15.02182579 0.25098039 0.27450980 0.65882353
v -0.15052956 0.03961195 -15.01759434 0.25098039 0.27450980 0.65882353
v -0.15220563 0.04001925 -15.01723671 0.25098039 0.27450980 0.65882353
v -0.15919156 0.05619003 -15.02591991 0.25098039 0.27450980 0.65882353
v -0.15859795 0.05360201 -15.02961349 0.25098039 0.27450980 0.65882353
v -0.15678531 0.05275893 -15.02883720 0.25098039 0.27450980 0.65882353
v -0.15176287 0.05066637 -15.02532578 0.25098039 0.27450980 0.65882353
v -0.15697172 0.04880933 -15.03112125 0.25098039 0.27450980 0.65882353
v -0.15802415 0.04497528 -15.03086090 0.25098039 0.27450980 0.65882353
v -0.15318397 0.04299402 -15.02684021 0.25098039 0.27450980 0.65882353
v -0.15181163 0.04632926 -15.02706528 0.25098039 0.27450980 0.65882353
v -0.14920892 0.04186852 -15.02244473 0.25098039 0.27450980 0.65882353
v -0.14846446 0.04483487 -15.02299881 0.25098039 0.27450980 0.65882353
v -0.14837468 0.04791310 -15.02181625 0.25098039 0.27450980 0.65882353
v -0.14788701 0.04240595 -15.01908493 0.25098039 0.27450980 0.65882353
v -0.14864504 0.04085026 -15.01829720 0.25098039 0.27450980 0.65882353
v -0.14770104 0.04385500 -15.01740074 0.25098039 0.27450980 0.65882353
v -0.14751960 0.04412933 -15.01995468 0.25098039 0.27450980 0.65882353
v -0.14756665 0.04548478 -15.01907158 0.25098039 0.27450980 0.65882353
v -0.17772736 0.06753770 -15.06064415 0.25098039 0.27450980 0.65882353
v -0.10882354 0.12892333 -15.04261780 0.25098039 0.27450980 0.65882353
v -0.11367983 0.12563999 -15.04138470 0.25098039 0.27450980 0.65882353
v -0.11030239 0.10976133 -15.04887581 0.25098039 0.27450980 0.65882353
v -0.11488566 0.11348493 -15.04375458 0.25098039 0.27450980 0.65882353
v -0.10414337 0.11020175 -15.05253601 0.25098039 0.27450980 0.65882353
v -0.09759243 0.11983280 -15.05341721 0.25098039 0.27450980 0.65882353
v -0.10019709 0.11437954 -15.05470753 0.25098039 0.27450980 0.65882353
v -0.11606202 0.11935194 -15.04117966 0.25098039 0.27450980 0.65882353
v -0.10333663 0.12979461 -15.04576778 0.25098039 0.27450980 0.65882353
v -0.09838311 0.12640312 -15.05045700 0.25098039 0.27450980 0.65882353
v -0.10025850 0.12743470 -15.03820992 0.25098039 0.27450980 0.65882353
v -0.09480612 0.12335629 -15.04285145 0.25098039 0.27450980 0.65882353
v -0.09325869 0.11667402 -15.04562092 0.25098039 0.27450980 0.65882353
v -0.09715299 0.11085138 -15.04784584 0.25098039 0.27450980 0.65882353
v -0.10117263 0.10758395 -15.04749393 0.25098039 0.27450980 0.65882353
v -0.10722767 0.12591594 -15.03658104 0.25098039 0.27450980 0.65882353
v -0.11202264 0.12237515 -15.03603268 0.25098039 0.27450980 0.65882353
v -0.11450797 0.11607309 -15.03792381 0.25098039 0.27450980 0.65882353
v -0.10672265 0.12111088 -15.03002739 0.25098039 0.27450980 0.65882353
v -0.09939694 0.11621194 -15.02488995 0.25098039 0.27450980 0.65882353
v -0.09002289 0.09972817 -15.02371883 0.25098039 0.27450980 0.65882353
v -0.09150890 0.10244794 -15.02957630 0.25098039 0.27450980 0.65882353
v -0.09111886 0.10462832 -15.02757359 0.25098039 0.27450980 0.65882353
v -0.08919203 0.10208137 -15.02254105 0.25098039 0.27450980 0.65882353
v -0.09182757 0.10709684 -15.03246498 0.25098039 0.27450980 0.65882353
v -0.09219141 0.10764106 -15.03005791 0.25098039 0.27450980 0.65882353
v -0.09437445 0.11208348 -15.02805519 0.25098039 0.27450980 0.65882353
v -0.09264658 0.10963260 -15.02363873 0.25098039 0.27450980 0.65882353
v -0.09769055 0.11397758 -15.02450657 0.25098039 0.27450980 0.65882353
v -0.09785044 0.11220170 -15.02111530 0.25098039 0.27450980 0.65882353
v -0.09121978 0.10727111 -15.01912212 0.25098039 0.27450980 0.65882353
v -0.08835904 0.10227463 -15.01872444 0.25098039 0.27450980 0.65882353
v -0.09025173 0.10490721 -15.01530266 0.25098039 0.27450980 0.65882353
v -0.08981363 0.09939949 -15.01845646 0.25098039 0.27450980 0.65882353
v -0.09302837 0.11399885 -15.02862549 0.25098039 0.27450980 0.65882353
v -0.09411235 0.10595993 -15.03929424 0.25098039 0.27450980 0.65882353
v -0.09359996 0.10056279 -15.03222752 0.25098039 0.27450980 0.65882353
v -0.09288310 0.09748946 -15.02501011 0.25098039 0.27450980 0.65882353
v -0.09251751 0.09764427 -15.01878262 0.25098039 0.27450980 0.65882353
v -0.09778792 0.09898995 -15.03308678 0.25098039 0.27450980 0.65882353
v -0.09723383 0.09712664 -15.02591705 0.25098039 0.27450980 0.65882353
v -0.09732200 0.09773967 -15.02011395 0.25098039 0.27450980 0.65882353
v -0.10270298 0.09943461 -15.03209782 0.25098039 0.27450980 0.65882353
v -0.10106099 0.09834892 -15.02533436 0.25098039 0.27450980 0.65882353
v -0.10609789 0.10578366 -15.04254627 0.25098039 0.27450980 0.65882353
v -0.09954493 0.10463721 -15.04302311 0.25098039 0.27450980 0.65882353
v -0.09976734 0.09867460 -15.02124310 0.25098039 0.27450980 0.65882353
v -0.09132388 0.10295904 -15.01363754 0.25098039 0.27450980 0.65882353
v -0.09451802 0.10110251 -15.01400375 0.25098039 0.27450980 0.65882353
v -0.10120200 0.11350834 -15.02057743 0.25098039 0.27450980 0.65882353
v -0.09615313 0.11046307 -15.01655674 0.25098039 0.27450980 0.65882353
v -0.09940474 0.11017841 -15.01600647 0.25098039 0.27450980 0.65882353
v -0.10516061 0.11388685 -15.02159023 0.25098039 0.27450980 0.65882353
v -0.10222569 0.10934283 -15.01610756 0.25098039 0.27450980 0.65882353
v -0.09589985 0.10702743 -15.01309681 0.25098039 0.27450980 0.65882353
v -0.09364152 0.10806806 -15.01462841 0.25098039 0.27450980 0.65882353
v -0.10745177 0.10749060 -15.04571629 0.25098039 0.27450980 0.65882353
v -0.11251560 0.11100146 -15.04225826 0.25098039 0.27450980 0.65882353
v -0.11112849 0.10970283 -15.03936481 0.25098039 0.27450980 0.65882353
v -0.10780583 0.10326813 -15.02961254 0.25098039 0.27450980 0.65882353
v -0.11328535 0.11381673 -15.03470325 0.25098039 0.27450980 0.65882353
v -0.11086527 0.11853236 -15.03120995 0.25098039 0.27450980 0.65882353
v -0.10824887 0.11186662 -15.02285957 0.25098039 0.27450980 0.65882353
v -0.10966736 0.10810336 -15.02589035 0.25098039 0.27450980 0.65882353
v -0.10457104 0.10696527 -15.01780319 0.25098039 0.27450980 0.65882353
v -0.10523382 0.10478279 -15.02001190 0.25098039 0.27450980 0.65882353
v -0.10399613 0.10078509 -15.02291012 0.25098039 0.27450980 0.65882353
v -0.10115063 0.10374522 -15.01557446 0.25098039 0.27450980 0.65882353
v -0.09884897 0.10559666 -15.01345730 0.25098039 0.27450980 0.65882353
v -0.09850858 0.10036372 -15.01636600 0.25098039 0.27450980 0.65882353
v -0.10251066 0.10299810 -15.01794434 0.25098039 0.27450980 0.65882353
v -0.10098226 0.10052079 -15.01907825 0.25098039 0.27450980 0.65882353
v -0.16872245 0.07402068 -15.06491661 0.25098039 0.27450980 0.65882353
v -0.16607055 0.07866114 -15.06054592 0.25098039 0.27450980 0.65882353
v -0.16536470 0.07886826 -15.06652832 0.25098039 0.27450980 0.65882353
v -0.16175142 0.08013065 -15.07433224 0.25098039 0.27450980 0.65882353
v -0.16277683 0.07868664 -15.08476830 0.25098039 0.27450980 0.65882353
v -0.15973450 0.08623810 -15.07136726 0.25098039 0.27450980 0.65882353
v -0.16374214 0.08441752 -15.06330395 0.25098039 0.27450980 0.65882353
v -0.16578637 0.08390199 -15.05429649 0.25098039 0.27450980 0.65882353
v -0.15553504 0.09431192 -15.07596779 0.25098039 0.27450980 0.65882353
f 2 3 1
f 1 3 4
f 5 6 8
f 8 6 7
f 9 4 10
f 10 4 3
f 12 13 11
f 11 13 9
f 14 12 16
f 16 12 15
f 18 19 17
f 17 19 20
f 22 23 21
f 21 23 24
f 26 27 25
f 25 27 28
f 30 31 29
f 29 31 32
f 33 34 36
f 36 34 35
f 37 38 40
f 40 38 39
f 41 42 6
f 6 42 43
f 6 43 7
f 7 43 44
f 45 34 46
f 46 34 33
f 48 49 47
f 47 49 50
f 52 53 51
f 51 53 54
f 56 52 55
f 55 52 51
f 58 59 57
f 57 59 60
f 61 62 4
f 4 62 1
f 64 65 63
f 63 65 66
f 68 69 67
f 67 69 70
f 72 73 71
f 71 73 74
f 76 77 75
f 75 77 78
f 53 79 54
f 54 79 80
f 82 83 81
f 81 83 84
f 85 86 52
f 52 86 53
f 57 60 87
f 87 60 88
f 89 90 43
f 43 90 44
f 43 42 89
f 89 42 91
f 40 39 92
f 92 39 93
f 94 70 64
f 64 70 69
f 13 61 9
f 9 61 4
f 25 28 69
f 69 28 95
f 96 25 68
f 68 25 69
f 98 99 97
f 97 99 100
f 101 102 104
f 104 102 103
f 106 30 105
f 105 30 29
f 51 54 107
f 107 54 108
f 54 80 108
f 108 80 109
f 111 112 110
f 110 112 113
f 115 5 114
f 114 5 116
f 115 41 5
f 5 41 6
f 36 35 111
f 111 35 117
f 35 118 117
f 117 118 119
f 34 120 35
f 35 120 118
f 34 45 120
f 120 45 121
f 125 126 124
f 124 126 127
f 128 129 14
f 14 129 130
f 33 131 46
f 46 131 132
f 133 94 63
f 63 94 64
f 134 135 137
f 137 135 136
f 139 140 138
f 138 140 141
f 77 142 78
f 78 142 143
f 144 145 20
f 20 145 146
f 148 149 147
f 147 149 72
f 151 152 150
f 150 152 153
f 82 101 83
f 83 101 104
f 101 82 155
f 155 82 154
f 156 157 58
f 58 157 59
f 158 68 147
f 147 68 67
f 159 146 15
f 15 146 16
f 68 158 96
f 96 158 160
f 129 66 130
f 130 66 65
f 162 163 161
f 161 163 164
f 166 167 165
f 165 167 168
f 170 171 169
f 169 171 172
f 174 171 173
f 173 171 170
f 176 177 175
f 175 177 178
f 180 181 179
f 179 181 24
f 182 183 21
f 21 183 184
f 81 185 82
f 82 185 154
f 186 187 188
f 188 187 144
f 158 71 160
f 160 71 189
f 190 135 157
f 157 135 59
f 169 172 139
f 139 172 140
f 147 72 158
f 158 72 71
f 192 193 191
f 191 193 194
f 167 166 49
f 49 166 195
f 196 190 50
f 50 190 157
f 197 198 200
f 200 198 199
f 21 24 182
f 182 24 181
f 146 159 20
f 20 159 17
f 182 181 81
f 81 181 185
f 201 185 180
f 180 185 181
f 202 203 83
f 83 203 84
f 205 206 204
f 204 206 85
f 207 22 184
f 184 22 21
f 179 24 208
f 208 24 23
f 208 209 179
f 179 209 205
f 209 210 205
f 205 210 206
f 212 206 211
f 211 206 210
f 179 205 180
f 180 205 204
f 213 176 88
f 88 176 214
f 86 85 212
f 212 85 206
f 193 217 218
f 217 219 218
f 218 219 220
f 219 18 220
f 220 18 17
f 19 221 20
f 20 221 144
f 222 223 225
f 225 223 224
f 175 226 176
f 176 226 214
f 227 87 214
f 214 87 88
f 220 17 228
f 228 17 159
f 134 213 60
f 60 213 88
f 138 229 151
f 151 229 152
f 193 192 210
f 210 192 211
f 230 194 218
f 218 194 193
f 231 232 228
f 228 232 230
f 233 234 91
f 91 234 89
f 235 236 93
f 93 236 92
f 230 232 234
f 234 232 237
f 47 238 48
f 48 238 239
f 240 191 235
f 235 191 236
f 5 8 116
f 116 8 241
f 242 243 189
f 189 243 160
f 244 245 98
f 98 245 99
f 156 246 47
f 47 246 238
f 76 247 77
f 77 247 248
f 250 125 249
f 249 125 124
f 252 253 251
f 251 253 254
f 111 110 36
f 36 110 255
f 256 33 255
f 255 33 36
f 257 258 154
f 154 258 155
f 63 169 133
f 133 169 139
f 66 170 63
f 63 170 169
f 173 170 129
f 129 170 66
f 129 128 173
f 173 128 259
f 128 260 259
f 259 260 261
f 213 134 262
f 262 134 137
f 263 264 186
f 186 264 187
f 112 265 113
f 113 265 266
f 11 267 268
f 234 233 230
f 230 233 194
f 153 269 70
f 70 269 67
f 175 178 165
f 165 178 141
f 150 153 94
f 94 153 70
f 271 221 270
f 270 221 207
f 269 153 272
f 272 153 152
f 121 45 109
f 109 45 108
f 47 50 156
f 156 50 157
f 57 273 58
f 58 273 274
f 145 275 260
f 260 275 261
f 276 149 143
f 143 149 78
f 148 269 75
f 75 269 272
f 207 277 270
f 270 277 278
f 195 196 49
f 49 196 50
f 59 135 60
f 60 135 134
f 83 104 202
f 202 104 279
f 149 148 78
f 78 148 75
f 247 278 248
f 248 278 277
f 183 182 84
f 84 182 81
f 48 239 281
f 281 239 282
f 227 223 283
f 283 223 222
f 223 226 224
f 224 226 168
f 281 282 224
f 224 282 225
f 165 168 175
f 175 168 226
f 264 263 138
f 138 263 229
f 14 16 128
f 128 16 260
f 220 228 218
f 218 228 230
f 87 227 284
f 284 227 283
f 260 16 145
f 145 16 146
f 244 98 258
f 258 98 155
f 58 274 156
f 156 274 246
f 107 285 51
f 51 285 55
f 243 286 160
f 160 286 96
f 234 237 89
f 89 237 90
f 46 132 107
f 107 132 285
f 253 252 249
f 249 252 250
f 286 26 96
f 96 26 25
f 106 105 287
f 287 105 288
f 272 152 289
f 289 152 229
f 138 151 139
f 139 151 133
f 183 290 161
f 161 290 162
f 291 292 277
f 277 292 293
f 151 150 133
f 133 150 94
f 262 275 177
f 177 275 187
f 144 187 145
f 145 187 275
f 273 57 284
f 284 57 87
f 174 136 190
f 190 136 135
f 111 117 112
f 112 117 38
f 117 119 38
f 38 119 123
f 112 38 265
f 265 38 37
f 287 288 254
f 254 288 251
f 228 159 231
f 231 159 15
f 223 227 226
f 226 227 214
f 147 67 148
f 148 67 269
f 224 168 281
f 281 168 167
f 199 163 200
f 200 163 162
f 45 46 108
f 108 46 107
f 281 167 48
f 48 167 49
f 161 164 291
f 291 164 292
f 38 123 39
f 293 294 277
f 277 294 248
f 284 283 296
f 296 283 295
f 284 296 273
f 273 296 297
f 274 273 298
f 298 273 297
f 246 274 299
f 299 274 298
f 283 222 295
f 295 222 300
f 222 225 300
f 300 225 301
f 301 225 302
f 302 225 282
f 303 304 300
f 300 304 295
f 306 307 305
f 305 307 308
f 309 310 308
f 308 310 305
f 308 307 312
f 312 307 311
f 313 314 312
f 312 314 315
f 311 316 312
f 312 316 313
f 317 304 311
f 311 304 316
f 315 309 312
f 312 309 308
f 318 319 321
f 321 319 320
f 319 318 309
f 309 318 310
f 311 307 317
f 317 307 306
f 306 297 317
f 317 297 296
f 306 322 297
f 297 322 298
f 305 323 306
f 306 323 322
f 323 305 324
f 324 305 310
f 304 317 295
f 295 317 296
f 318 325 310
f 310 325 324
f 323 324 326
f 326 324 327
f 324 325 327
f 327 325 328
f 326 327 329
f 329 327 330
f 329 331 326
f 326 331 332
f 333 330 328
f 328 330 327
f 323 326 322
f 322 326 332
f 322 332 298
f 298 332 299
f 325 318 334
f 334 318 321
f 313 316 335
f 335 316 304
f 335 336 313
f 313 336 314
f 304 303 335
f 335 303 337
f 336 335 338
f 338 335 337
f 336 339 314
f 314 339 340
f 246 299 238
f 238 299 341
f 239 342 282
f 282 342 302
f 342 239 341
f 341 239 238
f 341 331 342
f 342 331 343
f 331 329 343
f 343 329 344
f 342 343 302
f 302 343 345
f 341 299 331
f 331 299 332
f 346 301 345
f 345 301 302
f 346 303 301
f 301 303 300
f 347 337 346
f 346 337 303
f 347 346 348
f 348 346 345
f 349 347 350
f 350 347 348
f 343 344 345
f 345 344 348
f 344 351 348
f 348 351 350
f 337 347 338
f 338 347 349
f 353 338 352
f 352 338 349
f 352 355 354
f 354 355 356
f 352 349 355
f 355 349 350
f 352 354 353
f 353 354 334
f 353 334 339
f 339 334 321
f 339 336 353
f 353 336 338
f 329 330 344
f 344 330 351
f 356 351 333
f 333 351 330
f 356 355 351
f 351 355 350
f 354 356 328
f 328 356 333
f 328 325 354
f 354 325 334
f 309 315 319
f 319 315 320
f 320 340 321
f 321 340 339
f 320 315 340
f 340 315 314
f 137 136 261
f 261 136 259
f 140 166 141
f 141 166 165
f 172 171 195
f 195 171 196
f 171 174 196
f 196 174 190
f 178 177 264
f 264 177 187
f 172 195 140
f 140 195 166
f 137 261 262
f 262 261 275
f 178 264 141
f 141 264 138
f 262 177 213
f 213 177 176
f 136 174 259
f 259 174 173
f 358 359 357
f 357 359 360
f 362 363 361
f 361 363 364
f 361 364 365
f 365 364 366
f 367 368 370
f 370 368 369
f 76 371 247
f 247 371 372
f 373 374 362
f 362 374 363
f 376 377 375
f 375 377 378
f 289 229 380
f 380 229 379
f 381 379 263
f 263 379 229
f 383 384 382
f 382 384 385
f 386 368 374
f 374 368 363
f 76 289 371
f 371 289 380
f 377 376 359
f 359 376 387
f 388 386 360
f 360 386 374
f 389 383 366
f 366 383 390
f 392 393 391
f 391 393 394
f 383 382 390
f 390 382 395
f 396 365 390
f 390 365 366
f 389 366 367
f 367 366 364
f 357 397 358
f 358 397 398
f 373 399 357
f 357 399 397
f 389 367 400
f 400 367 370
f 382 385 375
f 375 385 372
f 357 360 373
f 373 360 374
f 361 401 362
f 362 401 402
f 387 388 359
f 359 388 360
f 363 368 364
f 364 368 367
f 358 398 403
f 403 398 404
f 396 392 405
f 405 392 391
f 392 395 393
f 393 395 378
f 393 403 394
f 394 403 404
f 375 378 382
f 382 378 395
f 365 396 406
f 406 396 405
f 362 402 373
f 373 402 399
f 271 270 400
f 400 270 384
f 401 361 406
f 406 361 365
f 381 369 386
f 386 369 368
f 392 396 395
f 395 396 390
f 393 378 403
f 403 378 377
f 403 377 358
f 358 377 359
f 406 405 408
f 408 405 407
f 406 408 401
f 401 408 409
f 401 409 402
f 402 409 410
f 402 410 399
f 399 410 411
f 405 391 407
f 407 391 412
f 391 394 412
f 412 394 413
f 394 404 413
f 413 404 414
f 415 416 412
f 412 416 407
f 418 419 417
f 417 419 420
f 421 422 418
f 418 422 419
f 419 422 424
f 424 422 423
f 425 426 424
f 424 426 427
f 423 428 424
f 424 428 425
f 427 420 424
f 424 420 419
f 420 429 417
f 417 429 430
f 423 422 431
f 431 422 421
f 421 409 431
f 431 409 408
f 421 432 409
f 409 432 410
f 418 433 421
f 421 433 432
f 434 433 417
f 417 433 418
f 431 416 423
f 423 416 428
f 416 431 407
f 407 431 408
f 435 434 430
f 430 434 417
f 433 434 436
f 436 434 437
f 434 435 437
f 437 435 438
f 436 437 439
f 439 437 440
f 439 441 436
f 436 441 442
f 438 443 437
f 437 443 440
f 436 442 433
f 433 442 432
f 432 442 410
f 410 442 411
f 435 430 445
f 445 430 444
f 430 429 444
f 444 429 446
f 425 428 447
f 447 428 416
f 426 425 448
f 448 425 447
f 416 415 447
f 447 415 449
f 447 449 448
f 448 449 450
f 451 452 448
f 448 452 426
f 446 452 444
f 444 452 451
f 399 411 397
f 397 411 453
f 398 454 404
f 404 454 414
f 454 398 453
f 453 398 397
f 453 441 454
f 454 441 455
f 441 439 455
f 455 439 456
f 454 455 414
f 414 455 457
f 441 453 442
f 442 453 411
f 458 413 457
f 457 413 414
f 458 415 413
f 413 415 412
f 458 459 415
f 415 459 449
f 459 458 460
f 460 458 457
f 461 459 462
f 462 459 460
f 455 456 457
f 457 456 460
f 456 463 460
f 460 463 462
f 459 461 449
f 449 461 450
f 465 450 464
f 464 450 461
f 464 467 466
f 466 467 468
f 464 461 467
f 467 461 462
f 464 466 465
f 465 466 445
f 465 445 451
f 451 445 444
f 451 448 465
f 465 448 450
f 439 440 456
f 456 440 463
f 468 463 443
f 443 463 440
f 468 467 463
f 463 467 462
f 466 468 438
f 438 468 443
f 438 435 466
f 466 435 445
f 420 427 429
f 429 427 446
f 446 427 452
f 452 427 426
f 370 369 188
f 188 369 186
f 371 376 372
f 372 376 375
f 380 379 387
f 387 379 388
f 379 381 388
f 388 381 386
f 385 384 278
f 278 384 270
f 380 387 371
f 371 387 376
f 400 370 271
f 271 370 188
f 385 278 372
f 372 278 247
f 400 384 389
f 389 384 383
f 369 381 186
f 186 381 263
f 221 271 144
f 144 271 188
f 221 19 207
f 207 19 22
f 19 18 22
f 22 18 23
f 18 219 23
f 23 219 208
f 469 470 472
f 472 470 471
f 474 475 473
f 473 475 476
f 473 476 477
f 477 476 478
f 480 481 479
f 479 481 482
f 483 484 474
f 474 484 475
f 486 487 485
f 485 487 488
f 489 490 77
f 77 490 142
f 491 489 248
f 248 489 77
f 493 494 492
f 492 494 495
f 496 480 484
f 484 480 475
f 486 497 487
f 487 497 471
f 498 496 472
f 472 496 484
f 499 493 478
f 478 493 500
f 501 502 504
f 504 502 503
f 493 492 500
f 500 492 505
f 506 477 500
f 500 477 478
f 499 478 479
f 479 478 476
f 469 507 470
f 470 507 508
f 483 509 469
f 469 509 507
f 479 482 499
f 499 482 510
f 492 495 485
f 485 495 511
f 483 469 484
f 484 469 472
f 473 512 474
f 474 512 513
f 497 498 471
f 471 498 472
f 475 480 476
f 476 480 479
f 470 508 514
f 514 508 515
f 506 502 516
f 516 502 501
f 503 502 488
f 488 502 505
f 514 515 503
f 503 515 504
f 485 488 492
f 492 488 505
f 477 506 517
f 517 506 516
f 474 513 483
f 483 513 509
f 510 292 494
f 494 292 164
f 512 473 517
f 517 473 477
f 491 481 496
f 496 481 480
f 502 506 505
f 505 506 500
f 503 488 514
f 514 488 487
f 514 487 470
f 470 487 471
f 517 516 519
f 519 516 518
f 517 519 512
f 512 519 520
f 512 520 513
f 513 520 521
f 513 521 509
f 509 521 522
f 516 501 518
f 518 501 523
f 501 504 523
f 523 504 524
f 524 504 525
f 525 504 515
f 526 527 523
f 523 527 518
f 529 530 528
f 528 530 531
f 532 533 529
f 529 533 530
f 530 533 535
f 535 533 534
f 536 537 535
f 535 537 538
f 534 539 535
f 535 539 536
f 538 531 535
f 535 531 530
f 540 541 531
f 531 541 528
f 533 532 534
f 534 532 542
f 532 520 542
f 542 520 519
f 532 543 520
f 520 543 521
f 529 544 532
f 532 544 543
f 544 529 545
f 545 529 528
f 534 542 539
f 539 542 527
f 527 542 518
f 518 542 519
f 541 546 528
f 528 546 545
f 547 544 548
f 548 544 545
f 546 549 545
f 545 549 548
f 550 547 551
f 551 547 548
f 547 550 553
f 553 550 552
f 549 554 548
f 548 554 551
f 544 547 543
f 543 547 553
f 543 553 521
f 521 553 522
f 546 541 556
f 556 541 555
f 541 540 555
f 555 540 557
f 536 539 558
f 558 539 527
f 537 536 559
f 559 536 558
f 527 526 558
f 558 526 560
f 559 558 561
f 561 558 560
f 559 562 537
f 537 562 563
f 557 563 555
f 555 563 562
f 509 522 507
f 507 522 564
f 508 565 515
f 515 565 525
f 565 508 564
f 564 508 507
f 564 552 565
f 565 552 566
f 552 550 566
f 566 550 567
f 565 566 525
f 525 566 568
f 564 522 552
f 552 522 553
f 569 524 568
f 568 524 525
f 569 526 524
f 524 526 523
f 570 560 569
f 569 560 526
f 570 569 571
f 571 569 568
f 572 570 573
f 573 570 571
f 566 567 568
f 568 567 571
f 567 574 571
f 571 574 573
f 570 572 560
f 560 572 561
f 576 561 575
f 575 561 572
f 575 578 577
f 577 578 579
f 575 572 578
f 578 572 573
f 575 577 576
f 576 577 556
f 576 556 562
f 562 556 555
f 562 559 576
f 576 559 561
f 550 551 567
f 567 551 574
f 579 574 554
f 554 574 551
f 579 578 574
f 574 578 573
f 579 554 577
f 577 554 549
f 549 546 577
f 577 546 556
f 531 538 540
f 540 538 557
f 557 538 563
f 563 538 537
f 481 294 482
f 482 294 293
f 580 486 511
f 511 486 485
f 490 489 497
f 497 489 498
f 489 491 498
f 498 491 496
f 163 495 164
f 164 495 494
f 580 490 486
f 486 490 497
f 482 293 510
f 510 293 292
f 495 163 511
f 511 163 199
f 494 493 510
f 510 493 499
f 481 491 294
f 294 491 248
f 582 583 581
f 581 583 584
f 586 587 585
f 585 587 588
f 585 588 589
f 589 588 590
f 592 593 591
f 591 593 594
f 595 596 598
f 598 596 597
f 599 600 586
f 586 600 587
f 601 602 604
f 604 602 603
f 605 606 608
f 608 606 607
f 609 607 200
f 200 607 606
f 610 611 613
f 613 611 612
f 600 614 587
f 587 614 592
f 596 605 597
f 597 605 608
f 602 615 603
f 603 615 583
f 616 614 584
f 584 614 600
f 611 618 617
f 617 618 590
f 620 621 619
f 619 621 622
f 610 623 611
f 611 623 618
f 624 589 618
f 618 589 590
f 617 590 591
f 591 590 588
f 581 625 582
f 582 625 626
f 599 627 581
f 581 627 625
f 591 594 617
f 617 594 628
f 601 610 598
f 598 610 613
f 581 584 599
f 599 584 600
f 585 629 586
f 586 629 630
f 615 616 583
f 583 616 584
f 587 592 588
f 588 592 591
f 582 626 631
f 631 626 632
f 624 620 633
f 633 620 619
f 621 620 604
f 604 620 623
f 631 632 621
f 621 632 622
f 610 601 623
f 623 601 604
f 589 624 634
f 634 624 633
f 586 630 599
f 599 630 627
f 203 202 628
f 628 202 612
f 629 585 634
f 634 585 589
f 609 593 614
f 614 593 592
f 620 624 623
f 623 624 618
f 631 621 603
f 603 621 604
f 582 631 583
f 583 631 603
f 634 633 636
f 636 633 635
f 634 636 629
f 629 636 637
f 629 637 630
f 630 637 638
f 630 638 627
f 627 638 639
f 633 619 635
f 635 619 640
f 619 622 640
f 640 622 641
f 641 622 642
f 642 622 632
f 644 635 643
f 643 635 640
f 645 646 648
f 648 646 647
f 649 650 646
f 646 650 647
f 647 650 652
f 652 650 651
f 652 653 655
f 655 653 654
f 651 656 652
f 652 656 653
f 655 648 652
f 652 648 647
f 648 657 645
f 645 657 658
f 650 649 651
f 651 649 659
f 649 637 659
f 659 637 636
f 649 660 637
f 637 660 638
f 661 660 646
f 646 660 649
f 662 661 645
f 645 661 646
f 651 659 656
f 656 659 644
f 644 659 635
f 635 659 636
f 663 662 658
f 658 662 645
f 664 661 665
f 665 661 662
f 663 666 662
f 662 666 665
f 667 664 668
f 668 664 665
f 664 667 670
f 670 667 669
f 666 671 665
f 665 671 668
f 661 664 660
f 660 664 670
f 660 670 638
f 638 670 639
f 658 672 663
f 663 672 673
f 658 657 672
f 672 657 674
f 653 656 675
f 675 656 644
f 653 675 654
f 654 675 676
f 675 644 677
f 677 644 643
f 676 675 678
f 678 675 677
f 679 680 676
f 676 680 654
f 674 680 672
f 672 680 679
f 627 639 625
f 625 639 681
f 626 682 632
f 632 682 642
f 681 682 625
f 625 682 626
f 669 683 681
f 681 683 682
f 667 684 669
f 669 684 683
f 682 683 642
f 642 683 685
f 681 639 669
f 669 639 670
f 686 641 685
f 685 641 642
f 641 686 640
f 640 686 643
f 686 687 643
f 643 687 677
f 687 686 688
f 688 686 685
f 689 687 690
f 690 687 688
f 683 684 685
f 685 684 688
f 684 691 688
f 688 691 690
f 687 689 677
f 677 689 678
f 693 678 692
f 692 678 689
f 692 695 694
f 694 695 696
f 692 689 695
f 695 689 690
f 692 694 693
f 693 694 673
f 693 673 679
f 679 673 672
f 679 676 693
f 693 676 678
f 684 667 691
f 691 667 668
f 696 691 671
f 671 691 668
f 696 695 691
f 691 695 690
f 694 696 666
f 666 696 671
f 666 663 694
f 694 663 673
f 648 655 657
f 657 655 674
f 674 655 680
f 680 655 654
f 593 162 594
f 594 162 290
f 598 597 601
f 601 597 602
f 615 608 616
f 616 608 607
f 607 609 616
f 616 609 614
f 697 595 613
f 613 595 598
f 597 608 602
f 602 608 615
f 594 290 628
f 628 290 203
f 628 612 617
f 617 612 611
f 593 609 162
f 162 609 200
f 105 29 698
f 698 29 699
f 268 126 701
f 701 126 700
f 126 125 700
f 700 125 702
f 252 703 250
f 250 703 704
f 32 268 705
f 705 268 701
f 288 105 706
f 706 105 698
f 29 32 699
f 699 32 705
f 707 251 706
f 706 251 288
f 250 704 125
f 125 704 702
f 703 252 707
f 707 252 251
f 706 708 707
f 707 708 709
f 707 709 703
f 703 709 710
f 703 710 704
f 704 710 711
f 704 711 702
f 702 711 712
f 706 698 708
f 708 698 713
f 698 699 713
f 713 699 714
f 699 705 714
f 714 705 715
f 717 708 716
f 716 708 713
f 719 720 718
f 718 720 721
f 722 723 719
f 719 723 720
f 724 725 723
f 723 725 720
f 724 726 725
f 725 726 727
f 728 721 725
f 725 721 720
f 721 728 729
f 729 728 730
f 729 731 721
f 721 731 718
f 724 723 732
f 732 723 722
f 722 710 732
f 732 710 709
f 722 733 710
f 710 733 711
f 719 734 722
f 722 734 733
f 734 719 735
f 735 719 718
f 724 732 726
f 726 732 717
f 717 732 708
f 708 732 709
f 731 736 718
f 718 736 735
f 737 734 738
f 738 734 735
f 736 739 735
f 735 739 738
f 740 737 741
f 741 737 738
f 737 740 743
f 743 740 742
f 739 744 738
f 738 744 741
f 734 737 733
f 733 737 743
f 733 743 711
f 711 743 712
f 736 731 746
f 746 731 745
f 731 729 745
f 745 729 730
f 727 726 747
f 747 726 717
f 748 727 749
f 749 727 747
f 747 717 750
f 750 717 716
f 749 747 751
f 751 747 750
f 749 752 748
f 748 752 753
f 730 753 745
f 745 753 752
f 728 725 748
f 748 725 727
f 730 728 753
f 753 728 748
f 700 702 754
f 754 702 712
f 705 701 715
f 715 701 755
f 754 755 700
f 700 755 701
f 742 756 754
f 754 756 755
f 740 757 742
f 742 757 756
f 755 756 715
f 715 756 758
f 754 712 742
f 742 712 743
f 759 714 758
f 758 714 715
f 714 759 713
f 713 759 716
f 759 760 716
f 716 760 750
f 760 759 761
f 761 759 758
f 762 760 763
f 763 760 761
f 756 757 758
f 758 757 761
f 757 764 761
f 761 764 763
f 760 762 750
f 750 762 751
f 766 751 765
f 765 751 762
f 767 765 769
f 769 765 768
f 765 762 768
f 768 762 763
f 765 767 766
f 766 767 746
f 766 746 752
f 752 746 745
f 752 749 766
f 766 749 751
f 757 740 764
f 764 740 741
f 769 764 744
f 744 764 741
f 769 768 764
f 764 768 763
f 767 769 739
f 739 769 744
f 739 736 767
f 767 736 746
f 219 217 208
f 208 217 209
f 209 217 210
f 210 217 193
f 198 580 199
f 199 580 511
f 76 75 289
f 289 75 272
f 277 207 291
f 291 207 184
f 290 183 203
f 203 183 84
f 490 580 142
f 142 580 198
f 142 198 143
f 143 198 197
f 149 276 72
f 72 276 73
f 104 103 279
f 279 103 770
f 770 596 279
f 279 596 595
f 605 596 771
f 771 596 770
f 771 770 772
f 772 770 103
f 772 103 773
f 773 103 102
f 155 774 101
f 101 774 102
f 773 102 97
f 97 102 774
f 775 773 100
f 100 773 97
f 773 775 772
f 772 775 776
f 772 776 771
f 771 776 777
f 200 606 197
f 197 606 777
f 189 71 778
f 778 71 74
f 97 774 98
f 98 774 155
f 183 161 184
f 184 161 291
f 777 276 197
f 197 276 143
f 777 606 771
f 771 606 605
f 613 612 697
f 697 612 202
f 595 697 279
f 279 697 202
f 73 276 776
f 776 276 777
f 776 775 73
f 73 775 74
f 100 778 775
f 775 778 74
f 778 100 189
f 189 100 99
f 245 242 99
f 99 242 189
f 131 33 256
f 28 1 95
f 95 1 62
f 27 2 28
f 28 2 1
f 265 115 266
f 266 115 114
f 95 62 69
f 69 62 64
f 62 61 64
f 64 61 65
f 61 13 65
f 65 13 130
f 13 12 130
f 130 12 14
f 31 11 32
f 32 11 268
f 15 12 31
f 31 12 11
f 31 30 15
f 15 30 231
f 30 106 231
f 231 106 232
f 287 237 106
f 106 237 232
f 254 90 287
f 287 90 237
f 253 44 254
f 254 44 90
f 253 249 44
f 44 249 7
f 267 127 268
f 268 127 126
f 10 3 241
f 241 3 116
f 3 2 116
f 116 2 114
f 2 27 114
f 114 27 266
f 27 26 266
f 266 26 113
f 26 286 113
f 113 286 110
f 286 243 110
f 110 243 255
f 243 242 255
f 255 242 256
f 242 245 256
f 256 245 131
f 245 244 131
f 131 244 132
f 265 37 115
f 115 37 41
f 41 37 42
f 42 37 40
f 92 91 40
f 40 91 42
f 236 233 92
f 92 233 91
f 191 194 236
f 236 194 233
f 258 285 244
f 244 285 132
f 257 55 258
f 258 55 285
f 257 154 201
f 201 154 185
f 56 201 204
f 204 201 180
f 55 257 56
f 56 257 201
f 204 85 56
f 56 85 52
f 86 122 53
f 53 122 79
f 212 215 86
f 86 215 122
f 211 216 212
f 212 216 215
f 192 280 211
f 211 280 216
f 191 240 192
f 192 240 280
f 249 124 7
f 7 124 8
f 124 127 8
f 8 127 241
f 127 267 241
f 241 267 10
f 10 267 9
f 9 267 11
f 93 39 235
f 235 39 240
f 39 123 240
f 240 123 280
f 123 119 280
f 280 119 216
f 119 118 216
f 216 118 215
f 118 120 215
f 215 120 122
f 120 121 122
f 122 121 79
f 121 109 79
f 79 109 80

