# https://github.com/mikedh/trimesh
v -0.18193381 0.04924169 -18.94899559 0.25098039 0.27450980 0.65882353
v -0.17823899 0.05609064 -18.95674706 0.25098039 0.27450980 0.65882353
v -0.17005631 0.04890881 -18.95413208 0.25098039 0.27450980 0.65882353
v -0.17469978 0.04306154 -18.94515991 0.25098039 0.27450980 0.65882353
v -0.16028427 0.06546310 -18.96815300 0.25098039 0.27450980 0.65882353
v -0.15275025 0.07457978 -18.96549988 0.25098039 0.27450980 0.65882353
v -0.14629936 0.06226472 -18.96053123 0.25098039 0.27450980 0.65882353
v -0.15345478 0.05602496 -18.96420479 0.25098039 0.27450980 0.65882353
v -0.16908631 0.03896271 -18.94032478 0.25098039 0.27450980 0.65882353
v -0.16414419 0.04331483 -18.95124245 0.25098039 0.27450980 0.65882353
v -0.16567737 0.04071216 -18.93532562 0.25098039 0.27450980 0.65882353
v -0.17443115 0.04050134 -18.92287827 0.25098039 0.27450980 0.65882353
v -0.17513554 0.03744371 -18.92960930 0.25098039 0.27450980 0.65882353
v -0.18072139 0.03747351 -18.91661835 0.25098039 0.27450980 0.65882353
v -0.17686202 0.05100403 -18.91885376 0.25098039 0.27450980 0.65882353
v -0.18820697 0.04235393 -18.91227722 0.25098039 0.27450980 0.65882353
v -0.20478219 0.06392142 -18.92624855 0.25098039 0.27450980 0.65882353
v -0.21503329 0.06616367 -18.93528938 0.25098039 0.27450980 0.65882353
v -0.22020851 0.05176776 -18.92874908 0.25098039 0.27450980 0.65882353
v -0.20904329 0.05036658 -18.92060089 0.25098039 0.27450980 0.65882353
v -0.22983250 0.05677284 -18.94689178 0.25098039 0.27450980 0.65882353
v -0.22516932 0.05333788 -18.93647003 0.25098039 0.27450980 0.65882353
v -0.22058946 0.06835576 -18.94229126 0.25098039 0.27450980 0.65882353
v -0.22505295 0.07060437 -18.95137596 0.25098039 0.27450980 0.65882353
v -0.19318517 0.05751303 -18.95840645 0.25098039 0.27450980 0.65882353
v -0.19062169 0.06523637 -18.96489143 0.25098039 0.27450980 0.65882353
v -0.18692270 0.06265721 -18.96086311 0.25098039 0.27450980 0.65882353
v -0.18918937 0.05562473 -18.95475578 0.25098039 0.27450980 0.65882353
v -0.15261203 0.04559942 -18.93400955 0.25098039 0.27450980 0.65882353
v -0.15980293 0.05523692 -18.92857361 0.25098039 0.27450980 0.65882353
v -0.16374016 0.04768023 -18.92927551 0.25098039 0.27450980 0.65882353
v -0.15479994 0.04154764 -18.93771744 0.25098039 0.27450980 0.65882353
v -0.18679133 0.08282183 -18.98817635 0.25098039 0.27450980 0.65882353
v -0.18521002 0.09644209 -18.98870659 0.25098039 0.27450980 0.65882353
v -0.18097296 0.09677763 -18.98453712 0.25098039 0.27450980 0.65882353
v -0.18382441 0.08438560 -18.98448181 0.25098039 0.27450980 0.65882353
v -0.16457145 0.09082160 -18.97148323 0.25098039 0.27450980 0.65882353
v -0.16793273 0.09969371 -18.97200203 0.25098039 0.27450980 0.65882353
v -0.16353323 0.10916349 -18.96308899 0.25098039 0.27450980 0.65882353
v -0.16109501 0.10087893 -18.95919800 0.25098039 0.27450980 0.65882353
v -0.15865582 0.08212175 -18.96891022 0.25098039 0.27450980 0.65882353
v -0.15512177 0.09097500 -18.95882225 0.25098039 0.27450980 0.65882353
v -0.14967357 0.08151371 -18.95634651 0.25098039 0.27450980 0.65882353
v -0.14300983 0.06732146 -18.95316696 0.25098039 0.27450980 0.65882353
v -0.19615668 0.09736189 -18.99557495 0.25098039 0.27450980 0.65882353
v -0.19861081 0.08741675 -18.99660110 0.25098039 0.27450980 0.65882353
v -0.18822761 -0.01090743 -18.91447639 0.25098039 0.27450980 0.65882353
v -0.19231135 -0.01214646 -18.91852188 0.25098039 0.27450980 0.65882353
v -0.19196865 -0.00745110 -18.91895294 0.25098039 0.27450980 0.65882353
v -0.18822753 -0.00698378 -18.91455650 0.25098039 0.27450980 0.65882353
v -0.21588290 0.09848343 -18.99050522 0.25098039 0.27450980 0.65882353
v -0.22080097 0.10292898 -18.98268700 0.25098039 0.27450980 0.65882353
v -0.21851543 0.10823814 -18.98715401 0.25098039 0.27450980 0.65882353
v -0.21236648 0.10450734 -18.99342155 0.25098039 0.27450980 0.65882353
v -0.22031984 0.09040233 -18.98660660 0.25098039 0.27450980 0.65882353
v -0.22316551 0.09516378 -18.97658730 0.25098039 0.27450980 0.65882353
v -0.19331726 -0.01209988 -18.90255928 0.25098039 0.27450980 0.65882353
v -0.18902326 -0.01171516 -18.90548325 0.25098039 0.27450980 0.65882353
v -0.18990758 -0.00695834 -18.90445518 0.25098039 0.27450980 0.65882353
v -0.19457814 -0.00699966 -18.90222740 0.25098039 0.27450980 0.65882353
v -0.17855188 0.03839277 -18.93652153 0.25098039 0.27450980 0.65882353
v -0.18445039 0.04209060 -18.94315338 0.25098039 0.27450980 0.65882353
v -0.18721741 0.02549855 -18.92770386 0.25098039 0.27450980 0.65882353
v -0.18733409 0.03250992 -18.93349075 0.25098039 0.27450980 0.65882353
v -0.18183066 0.03372777 -18.92905998 0.25098039 0.27450980 0.65882353
v -0.18288997 0.02850635 -18.92376137 0.25098039 0.27450980 0.65882353
v -0.20346621 0.03922136 -18.94968987 0.25098039 0.27450980 0.65882353
v -0.19960013 0.04911207 -18.95475578 0.25098039 0.27450980 0.65882353
v -0.19550779 0.04709080 -18.94987679 0.25098039 0.27450980 0.65882353
v -0.19801785 0.03590316 -18.94379425 0.25098039 0.27450980 0.65882353
v -0.20788564 0.04986076 -18.96637917 0.25098039 0.27450980 0.65882353
v -0.21126905 0.04022434 -18.96020126 0.25098039 0.27450980 0.65882353
v -0.21566820 0.04171734 -18.96751022 0.25098039 0.27450980 0.65882353
v -0.21191247 0.04783909 -18.97122765 0.25098039 0.27450980 0.65882353
v -0.21546820 0.02396372 -18.94693947 0.25098039 0.27450980 0.65882353
v -0.21910395 0.01835737 -18.94177628 0.25098039 0.27450980 0.65882353
v -0.22140232 0.01842625 -18.94295120 0.25098039 0.27450980 0.65882353
v -0.21781164 0.02478062 -18.94931221 0.25098039 0.27450980 0.65882353
v -0.21648023 0.11411189 -18.99056244 0.25098039 0.27450980 0.65882353
v -0.20859100 0.11044856 -18.99533463 0.25098039 0.27450980 0.65882353
v -0.23804098 0.05898973 -18.96678543 0.25098039 0.27450980 0.65882353
v -0.23619932 0.05949650 -18.97780037 0.25098039 0.27450980 0.65882353
v -0.24232326 0.04837118 -18.97520447 0.25098039 0.27450980 0.65882353
v -0.24259590 0.05085891 -18.96406746 0.25098039 0.27450980 0.65882353
v -0.22049478 0.10520732 -18.97236061 0.25098039 0.27450980 0.65882353
v -0.22041801 0.11115897 -18.97749710 0.25098039 0.27450980 0.65882353
v -0.19938496 -0.01308627 -18.90286255 0.25098039 0.27450980 0.65882353
v -0.20041808 -0.00791661 -18.90337563 0.25098039 0.27450980 0.65882353
v -0.15453674 0.08673046 -18.94492340 0.25098039 0.27450980 0.65882353
v -0.14516811 0.07021136 -18.94339180 0.25098039 0.27450980 0.65882353
v -0.16147955 0.09874492 -18.94791031 0.25098039 0.27450980 0.65882353
v -0.16659965 0.10718779 -18.95042229 0.25098039 0.27450980 0.65882353
v -0.16796413 0.11497463 -18.95340919 0.25098039 0.27450980 0.65882353
v -0.19315176 0.02923878 -18.93555832 0.25098039 0.27450980 0.65882353
v -0.18955539 0.04795466 -18.94867706 0.25098039 0.27450980 0.65882353
v -0.19641742 0.05842888 -18.96224022 0.25098039 0.27450980 0.65882353
v -0.21510899 0.05523287 -18.98682213 0.25098039 0.27450980 0.65882353
v -0.21076491 0.06383647 -18.99139404 0.25098039 0.27450980 0.65882353
v -0.20474103 0.05994591 -18.98341942 0.25098039 0.27450980 0.65882353
v -0.21018389 0.05354584 -18.98064613 0.25098039 0.27450980 0.65882353
v -0.23161280 0.05458342 -18.98507881 0.25098039 0.27450980 0.65882353
v -0.22537708 0.04937281 -18.98505783 0.25098039 0.27450980 0.65882353
v -0.22976360 0.04191499 -18.98137093 0.25098039 0.27450980 0.65882353
v -0.23661320 0.04554453 -18.98147774 0.25098039 0.27450980 0.65882353
v -0.14646988 0.05011291 -18.93271828 0.25098039 0.27450980 0.65882353
v -0.15592016 0.06197399 -18.92911339 0.25098039 0.27450980 0.65882353
v -0.20788752 0.09369563 -18.99577713 0.25098039 0.27450980 0.65882353
v -0.20355250 0.10014731 -18.99624634 0.25098039 0.27450980 0.65882353
v -0.20122913 0.10832907 -18.99707031 0.25098039 0.27450980 0.65882353
v -0.18752323 0.07374617 -18.97612190 0.25098039 0.27450980 0.65882353
v -0.18172731 0.08541214 -18.98201752 0.25098039 0.27450980 0.65882353
v -0.17882636 0.08464042 -18.97906113 0.25098039 0.27450980 0.65882353
v -0.18646471 0.07344914 -18.97309113 0.25098039 0.27450980 0.65882353
v -0.17454179 0.06379265 -18.96605301 0.25098039 0.27450980 0.65882353
v -0.16916580 0.07447512 -18.97231865 0.25098039 0.27450980 0.65882353
v -0.16627164 0.05540347 -18.96389389 0.25098039 0.27450980 0.65882353
v -0.17494991 0.09894335 -18.97939301 0.25098039 0.27450980 0.65882353
v -0.17796209 0.10643087 -18.98694229 0.25098039 0.27450980 0.65882353
v -0.17190096 0.10794996 -18.98043633 0.25098039 0.27450980 0.65882353
v -0.18606661 0.10657016 -18.99265480 0.25098039 0.27450980 0.65882353
v -0.19422075 0.10704678 -18.99649239 0.25098039 0.27450980 0.65882353
v -0.22117642 0.11907473 -18.98056030 0.25098039 0.27450980 0.65882353
v -0.16756716 0.10925004 -18.97319031 0.25098039 0.27450980 0.65882353
v -0.14970870 0.04893276 -18.96026421 0.25098039 0.27450980 0.65882353
v -0.14588641 0.04260738 -18.95653152 0.25098039 0.27450980 0.65882353
v -0.15209544 0.03921062 -18.95281792 0.25098039 0.27450980 0.65882353
v -0.15622315 0.04428027 -18.95650864 0.25098039 0.27450980 0.65882353
v -0.18562275 0.03155649 -18.91136551 0.25098039 0.27450980 0.65882353
v -0.18207079 0.02914846 -18.91777039 0.25098039 0.27450980 0.65882353
v -0.17818701 0.03570184 -18.92287827 0.25098039 0.27450980 0.65882353
v -0.19383118 0.07364343 -18.98782539 0.25098039 0.27450980 0.65882353
v -0.20341696 0.07784166 -18.99518585 0.25098039 0.27450980 0.65882353
v -0.19301644 0.02215651 -18.92918015 0.25098039 0.27450980 0.65882353
v -0.19530544 -0.00171179 -18.90253830 0.25098039 0.27450980 0.65882353
v -0.19003412 -0.00178680 -18.90480232 0.25098039 0.27450980 0.65882353
v -0.18818843 0.01727270 -18.90826416 0.25098039 0.27450980 0.65882353
v -0.19436491 0.01692694 -18.90502357 0.25098039 0.27450980 0.65882353
v -0.20121570 0.01612850 -18.92450714 0.25098039 0.27450980 0.65882353
v -0.19482854 0.01809541 -18.92685509 0.25098039 0.27450980 0.65882353
v -0.19613922 0.01580458 -18.92563248 0.25098039 0.27450980 0.65882353
v -0.20194525 0.01275512 -18.92470360 0.25098039 0.27450980 0.65882353
v -0.22444442 0.02151365 -18.95121002 0.25098039 0.27450980 0.65882353
v -0.22178125 0.02697289 -18.95661926 0.25098039 0.27450980 0.65882353
v -0.21231450 0.03504469 -18.91768456 0.25098039 0.27450980 0.65882353
v -0.20246951 0.03845954 -18.90839958 0.25098039 0.27450980 0.65882353
v -0.19846481 0.04832574 -18.91394424 0.25098039 0.27450980 0.65882353
v -0.20777382 0.04066288 -18.95570946 0.25098039 0.27450980 0.65882353
v -0.21181646 0.03157990 -18.95182419 0.25098039 0.27450980 0.65882353
v -0.21460675 0.03205562 -18.95490837 0.25098039 0.27450980 0.65882353
v -0.19716683 0.02630761 -18.93547821 0.25098039 0.27450980 0.65882353
v -0.19876900 0.02045065 -18.93040657 0.25098039 0.27450980 0.65882353
v -0.20176157 0.02270062 -18.93420029 0.25098039 0.27450980 0.65882353
v -0.20058987 0.02828746 -18.93924904 0.25098039 0.27450980 0.65882353
v -0.23142953 0.07139403 -18.98077011 0.25098039 0.27450980 0.65882353
v -0.22621888 0.06560901 -18.98958969 0.25098039 0.27450980 0.65882353
v -0.18713465 -0.01101346 -18.90975952 0.25098039 0.27450980 0.65882353
v -0.18752044 -0.00673328 -18.90917587 0.25098039 0.27450980 0.65882353
v -0.20388150 0.05037510 -18.96051407 0.25098039 0.27450980 0.65882353
v -0.19432467 0.06005863 -18.92117310 0.25098039 0.27450980 0.65882353
v -0.19966201 0.05901549 -18.96666527 0.25098039 0.27450980 0.65882353
v -0.23831484 0.03720225 -18.95175362 0.25098039 0.27450980 0.65882353
v -0.23707214 0.03224499 -18.95721817 0.25098039 0.27450980 0.65882353
v -0.23718663 0.02675790 -18.95416451 0.25098039 0.27450980 0.65882353
v -0.24039969 0.02934529 -18.94961548 0.25098039 0.27450980 0.65882353
v -0.20336238 -0.00292142 -18.92085457 0.25098039 0.27450980 0.65882353
v -0.19786984 -0.00337473 -18.92278099 0.25098039 0.27450980 0.65882353
v -0.19794139 -0.00826231 -18.92093849 0.25098039 0.27450980 0.65882353
v -0.20343089 -0.00850138 -18.91892624 0.25098039 0.27450980 0.65882353
v -0.18937564 0.01999254 -18.92534256 0.25098039 0.27450980 0.65882353
v -0.18474287 0.02236033 -18.92135048 0.25098039 0.27450980 0.65882353
v -0.18632105 0.01653559 -18.92038727 0.25098039 0.27450980 0.65882353
v -0.19123858 0.01565327 -18.92386436 0.25098039 0.27450980 0.65882353
v -0.18443561 0.02317553 -18.91496277 0.25098039 0.27450980 0.65882353
v -0.18523467 0.01735470 -18.91405487 0.25098039 0.27450980 0.65882353
v -0.20687430 -0.00237605 -18.91516876 0.25098039 0.27450980 0.65882353
v -0.20625450 -0.00185694 -18.90753365 0.25098039 0.27450980 0.65882353
v -0.20664719 0.01485257 -18.91098976 0.25098039 0.27450980 0.65882353
v -0.20615381 0.01146407 -18.91839790 0.25098039 0.27450980 0.65882353
v -0.22103332 0.08465205 -18.95512009 0.25098039 0.27450980 0.65882353
v -0.22601250 0.08467177 -18.96519852 0.25098039 0.27450980 0.65882353
v -0.23028791 0.07077685 -18.96166229 0.25098039 0.27450980 0.65882353
v -0.23542823 0.05779108 -18.95814896 0.25098039 0.27450980 0.65882353
v -0.23869205 0.04508806 -18.95490646 0.25098039 0.27450980 0.65882353
v -0.23505980 0.04592032 -18.94335747 0.25098039 0.27450980 0.65882353
v -0.23265366 0.07173022 -18.96950150 0.25098039 0.27450980 0.65882353
v -0.20907627 0.02171573 -18.92153549 0.25098039 0.27450980 0.65882353
v -0.20748633 0.02643406 -18.91401100 0.25098039 0.27450980 0.65882353
v -0.21198612 0.02756491 -18.91844749 0.25098039 0.27450980 0.65882353
v -0.20330894 0.05814742 -18.97318268 0.25098039 0.27450980 0.65882353
v -0.18706542 -0.00179818 -18.90955544 0.25098039 0.27450980 0.65882353
v -0.18773997 0.11217537 -18.94501114 0.25098039 0.27450980 0.65882353
v -0.20022613 0.11319076 -18.94992638 0.25098039 0.27450980 0.65882353
v -0.19983804 0.10521263 -18.94606972 0.25098039 0.27450980 0.65882353
v -0.18562430 0.10356069 -18.94095230 0.25098039 0.27450980 0.65882353
v -0.19123618 -0.00273671 -18.92096519 0.25098039 0.27450980 0.65882353
v -0.18690747 -0.00226698 -18.91609573 0.25098039 0.27450980 0.65882353
v -0.22668159 0.02635177 -18.96135521 0.25098039 0.27450980 0.65882353
v -0.22838296 0.02201209 -18.95574188 0.25098039 0.27450980 0.65882353
v -0.23214076 0.02202278 -18.95621109 0.25098039 0.27450980 0.65882353
v -0.23163843 0.02455010 -18.96344185 0.25098039 0.27450980 0.65882353
v -0.22725880 0.08551577 -18.97105598 0.25098039 0.27450980 0.65882353
v -0.24525020 0.04072431 -18.97344971 0.25098039 0.27450980 0.65882353
v -0.24563515 0.04337761 -18.96389198 0.25098039 0.27450980 0.65882353
v -0.22194701 0.09683094 -18.96801376 0.25098039 0.27450980 0.65882353
v -0.21808404 0.09726864 -18.95890617 0.25098039 0.27450980 0.65882353
v -0.21635047 0.10635247 -18.96211624 0.25098039 0.27450980 0.65882353
v -0.22888935 0.03757565 -18.93133354 0.25098039 0.27450980 0.65882353
v -0.21722823 0.08236719 -18.94753456 0.25098039 0.27450980 0.65882353
v -0.21390685 0.09563749 -18.95258331 0.25098039 0.27450980 0.65882353
v -0.21161245 0.10640764 -18.95609283 0.25098039 0.27450980 0.65882353
v -0.21089238 0.11433030 -18.95874977 0.25098039 0.27450980 0.65882353
v -0.21600701 0.11336257 -18.96522141 0.25098039 0.27450980 0.65882353
v -0.20162241 -0.00217325 -18.90396881 0.25098039 0.27450980 0.65882353
v -0.20593095 -0.00845734 -18.90695763 0.25098039 0.27450980 0.65882353
v -0.21685345 0.12197178 -18.96810532 0.25098039 0.27450980 0.65882353
v -0.21058005 0.12246004 -18.96113014 0.25098039 0.27450980 0.65882353
v -0.20778880 0.09413892 -18.94566727 0.25098039 0.27450980 0.65882353
v -0.19927123 0.09167083 -18.93816185 0.25098039 0.27450980 0.65882353
v -0.21106321 0.08122406 -18.94120598 0.25098039 0.27450980 0.65882353
v -0.20304346 0.07783677 -18.93333244 0.25098039 0.27450980 0.65882353
v -0.22327855 0.04140779 -18.92297173 0.25098039 0.27450980 0.65882353
v -0.20416296 -0.02523805 -18.91138268 0.25098039 0.27450980 0.65882353
v -0.20620574 -0.01433180 -18.91232872 0.25098039 0.27450980 0.65882353
v -0.20353839 -0.01377749 -18.91761398 0.25098039 0.27450980 0.65882353
v -0.20348333 -0.02472539 -18.91573524 0.25098039 0.27450980 0.65882353
v -0.20667115 -0.00843691 -18.91376686 0.25098039 0.27450980 0.65882353
v -0.20481257 -0.01364566 -18.90663719 0.25098039 0.27450980 0.65882353
v -0.18946785 0.07354887 -18.92744255 0.25098039 0.27450980 0.65882353
v -0.20459856 0.01779927 -18.92932320 0.25098039 0.27450980 0.65882353
v -0.18214057 0.08774434 -18.93354988 0.25098039 0.27450980 0.65882353
v -0.17397743 0.06400861 -18.92229462 0.25098039 0.27450980 0.65882353
v -0.16785032 0.07411666 -18.92857361 0.25098039 0.27450980 0.65882353
v -0.17273533 0.10179328 -18.94026566 0.25098039 0.27450980 0.65882353
v -0.16379443 0.08847065 -18.93567467 0.25098039 0.27450980 0.65882353
v -0.17679790 0.11758141 -18.94828415 0.25098039 0.27450980 0.65882353
v -0.17632818 0.10966016 -18.94420242 0.25098039 0.27450980 0.65882353
v -0.15420702 0.07479850 -18.93465424 0.25098039 0.27450980 0.65882353
v -0.18923879 -0.02140823 -18.91649818 0.25098039 0.27450980 0.65882353
v -0.19400176 -0.02167526 -18.91972160 0.25098039 0.27450980 0.65882353
v -0.18782564 0.12006529 -18.94808197 0.25098039 0.27450980 0.65882353
v -0.16022502 0.04872731 -18.95992088 0.25098039 0.27450980 0.65882353
v -0.19700456 0.06589332 -18.97763443 0.25098039 0.27450980 0.65882353
v -0.19469510 0.06614919 -18.97239876 0.25098039 0.27450980 0.65882353
v -0.20794994 0.06931023 -18.99328804 0.25098039 0.27450980 0.65882353
v -0.19987632 0.06605225 -18.98519897 0.25098039 0.27450980 0.65882353
v -0.18720832 -0.02151814 -18.91146851 0.25098039 0.27450980 0.65882353
v -0.22391465 0.01696184 -18.93716621 0.25098039 0.27450980 0.65882353
v -0.22451079 0.01950035 -18.93766403 0.25098039 0.27450980 0.65882353
v -0.14286588 0.05439156 -18.95836449 0.25098039 0.27450980 0.65882353
v -0.14012291 0.04791426 -18.95578575 0.25098039 0.27450980 0.65882353
v -0.13635990 0.05160328 -18.94340134 0.25098039 0.27450980 0.65882353
v -0.13616371 0.05048027 -18.95060158 0.25098039 0.27450980 0.65882353
v -0.13911080 0.05874634 -18.95174980 0.25098039 0.27450980 0.65882353
v -0.13989626 0.06047957 -18.94390297 0.25098039 0.27450980 0.65882353
v -0.18856069 0.07347873 -18.97862244 0.25098039 0.27450980 0.65882353
v -0.19081995 0.07300322 -18.98193359 0.25098039 0.27450980 0.65882353
v -0.22563677 0.08143828 -18.98418999 0.25098039 0.27450980 0.65882353
v -0.22034425 0.07505202 -18.99241066 0.25098039 0.27450980 0.65882353
v -0.18804362 0.02472550 -18.90961075 0.25098039 0.27450980 0.65882353
v -0.19331241 0.03388838 -18.90748024 0.25098039 0.27450980 0.65882353
v -0.19455624 0.02563585 -18.90667152 0.25098039 0.27450980 0.65882353
v -0.20138232 0.01787835 -18.90614319 0.25098039 0.27450980 0.65882353
v -0.20726834 0.01707450 -18.92454720 0.25098039 0.27450980 0.65882353
v -0.20554495 0.01827759 -18.92031860 0.25098039 0.27450980 0.65882353
v -0.17481600 0.07943848 -18.97567177 0.25098039 0.27450980 0.65882353
v -0.18238561 0.07001807 -18.96901512 0.25098039 0.27450980 0.65882353
v -0.15967900 0.04134360 -18.94860458 0.25098039 0.27450980 0.65882353
v -0.15560192 0.03840511 -18.94552803 0.25098039 0.27450980 0.65882353
v -0.20526795 0.03134128 -18.94525528 0.25098039 0.27450980 0.65882353
v -0.22873977 0.02685785 -18.92714119 0.25098039 0.27450980 0.65882353
v -0.22388819 0.02985699 -18.92023849 0.25098039 0.27450980 0.65882353
v -0.20820957 0.02397404 -18.94021797 0.25098039 0.27450980 0.65882353
v -0.19177851 -0.02363540 -18.90429688 0.25098039 0.27450980 0.65882353
v -0.18810293 -0.02243827 -18.90771103 0.25098039 0.27450980 0.65882353
v -0.20160733 0.02711727 -18.90747643 0.25098039 0.27450980 0.65882353
v -0.21877529 0.03276234 -18.96237564 0.25098039 0.27450980 0.65882353
v -0.23119220 0.03124133 -18.93410301 0.25098039 0.27450980 0.65882353
v -0.22867978 0.02123912 -18.93217278 0.25098039 0.27450980 0.65882353
v -0.23888251 0.03989413 -18.97959709 0.25098039 0.27450980 0.65882353
v -0.19947428 0.12145854 -18.95328712 0.25098039 0.27450980 0.65882353
v -0.19843379 -0.01354529 -18.92037964 0.25098039 0.27450980 0.65882353
v -0.19907548 -0.02230060 -18.92023087 0.25098039 0.27450980 0.65882353
v -0.20282580 -0.02464548 -18.90719986 0.25098039 0.27450980 0.65882353
v -0.19807836 -0.02348940 -18.90361023 0.25098039 0.27450980 0.65882353
v -0.21350187 0.08335844 -18.99408150 0.25098039 0.27450980 0.65882353
v -0.19324321 0.06577517 -18.96883392 0.25098039 0.27450980 0.65882353
v -0.14661665 0.06338048 -18.93531418 0.25098039 0.27450980 0.65882353
v -0.14049871 0.05178614 -18.93686676 0.25098039 0.27450980 0.65882353
v -0.21086410 0.01939942 -18.93688202 0.25098039 0.27450980 0.65882353
v -0.24100484 0.03874023 -18.95833206 0.25098039 0.27450980 0.65882353
v -0.23809648 0.03724109 -18.94211578 0.25098039 0.27450980 0.65882353
v -0.24102750 0.02941003 -18.94067574 0.25098039 0.27450980 0.65882353
v -0.23694719 0.02583735 -18.93528557 0.25098039 0.27450980 0.65882353
v -0.23116866 0.02073100 -18.93423462 0.25098039 0.27450980 0.65882353
v -0.20198357 -0.02998453 -18.90898705 0.25098039 0.27450980 0.65882353
v -0.19715101 -0.02888332 -18.90516472 0.25098039 0.27450980 0.65882353
v -0.19076589 -0.02879187 -18.90564156 0.25098039 0.27450980 0.65882353
v -0.18738201 -0.02709563 -18.90852928 0.25098039 0.27450980 0.65882353
v -0.18698536 -0.02492343 -18.91242027 0.25098039 0.27450980 0.65882353
v -0.20316485 -0.03047524 -18.91342354 0.25098039 0.27450980 0.65882353
v -0.20208952 -0.02961011 -18.91731262 0.25098039 0.27450980 0.65882353
v -0.19859159 -0.02558388 -18.92061806 0.25098039 0.27450980 0.65882353
v -0.20153886 -0.03419225 -18.91629028 0.25098039 0.27450980 0.65882353
v -0.19943509 -0.03741802 -18.91253090 0.25098039 0.27450980 0.65882353
v -0.18547301 -0.03977178 -18.91318893 0.25098039 0.27450980 0.65882353
v -0.18869308 -0.03650561 -18.90930748 0.25098039 0.27450980 0.65882353
v -0.18961483 -0.03887551 -18.91048241 0.25098039 0.27450980 0.65882353
v -0.18756878 -0.04225469 -18.91360664 0.25098039 0.27450980 0.65882353
v -0.18679753 -0.04645844 -18.91656876 0.25098039 0.27450980 0.65882353
v -0.18407840 -0.04416840 -18.91654015 0.25098039 0.27450980 0.65882353
v -0.19420311 -0.03777924 -18.91000175 0.25098039 0.27450980 0.65882353
v -0.19217184 -0.04268909 -18.91429138 0.25098039 0.27450980 0.65882353
v -0.19578600 -0.04249501 -18.91653824 0.25098039 0.27450980 0.65882353
v -0.19400518 -0.04703882 -18.91930008 0.25098039 0.27450980 0.65882353
v -0.19079547 -0.04748437 -18.91727448 0.25098039 0.27450980 0.65882353
v -0.19704534 -0.03940408 -18.91323471 0.25098039 0.27450980 0.65882353
v -0.19517276 -0.03609063 -18.90815926 0.25098039 0.27450980 0.65882353
v -0.18499853 -0.04764600 -18.91946411 0.25098039 0.27450980 0.65882353
v -0.18688791 -0.04885255 -18.91829109 0.25098039 0.27450980 0.65882353
v -0.18997179 -0.04963951 -18.91942215 0.25098039 0.27450980 0.65882353
v -0.18858080 -0.05006626 -18.92209053 0.25098039 0.27450980 0.65882353
v -0.18603685 -0.03129300 -18.91064262 0.25098039 0.27450980 0.65882353
v -0.18398680 -0.03822190 -18.91471863 0.25098039 0.27450980 0.65882353
v -0.18366024 -0.04237039 -18.91912270 0.25098039 0.27450980 0.65882353
v -0.18471222 -0.04597048 -18.92173576 0.25098039 0.27450980 0.65882353
v -0.18426003 -0.03716916 -18.91871643 0.25098039 0.27450980 0.65882353
v -0.18453421 -0.04090361 -18.92156601 0.25098039 0.27450980 0.65882353
v -0.18580736 -0.04381824 -18.92403221 0.25098039 0.27450980 0.65882353
v -0.18623996 -0.03636305 -18.92254066 0.25098039 0.27450980 0.65882353
v -0.18641707 -0.04008862 -18.92408180 0.25098039 0.27450980 0.65882353
v -0.18810129 -0.02668405 -18.91730118 0.25098039 0.27450980 0.65882353
v -0.18611819 -0.02738124 -18.91359138 0.25098039 0.27450980 0.65882353
v -0.18655780 -0.04229473 -18.92535400 0.25098039 0.27450980 0.65882353
v -0.18858506 -0.04893942 -18.92397690 0.25098039 0.27450980 0.65882353
v -0.19846012 -0.04041572 -18.91809082 0.25098039 0.27450980 0.65882353
v -0.19530484 -0.04553813 -18.92188072 0.25098039 0.27450980 0.65882353
v -0.19885637 -0.03919217 -18.92017365 0.25098039 0.27450980 0.65882353
v -0.19612041 -0.04444680 -18.92383003 0.25098039 0.27450980 0.65882353
v -0.19325328 -0.04923597 -18.92331123 0.25098039 0.27450980 0.65882353
v -0.19258550 -0.04911889 -18.92085075 0.25098039 0.27450980 0.65882353
v -0.18950635 -0.02350636 -18.91677094 0.25098039 0.27450980 0.65882353
v -0.19446974 -0.02388264 -18.92008400 0.25098039 0.27450980 0.65882353
v -0.19336987 -0.02646141 -18.92083931 0.25098039 0.27450980 0.65882353
v -0.19030997 -0.03592712 -18.92520523 0.25098039 0.27450980 0.65882353
v -0.19736904 -0.02825680 -18.92177773 0.25098039 0.27450980 0.65882353
v -0.20034105 -0.03294283 -18.91990471 0.25098039 0.27450980 0.65882353
v -0.19780216 -0.03849053 -18.92295074 0.25098039 0.27450980 0.65882353
v -0.19537790 -0.03709608 -18.92508888 0.25098039 0.27450980 0.65882353
v -0.19524585 -0.04258505 -18.92540359 0.25098039 0.27450980 0.65882353
v -0.19329140 -0.04107963 -18.92619133 0.25098039 0.27450980 0.65882353
v -0.18948653 -0.04009518 -18.92617607 0.25098039 0.27450980 0.65882353
v -0.19235440 -0.04527234 -18.92639923 0.25098039 0.27450980 0.65882353
v -0.19318466 -0.04773436 -18.92495918 0.25098039 0.27450980 0.65882353
v -0.18868580 -0.04600181 -18.92564583 0.25098039 0.27450980 0.65882353
v -0.19183563 -0.04344821 -18.92679024 0.25098039 0.27450980 0.65882353
v -0.18890148 -0.04338960 -18.92597580 0.25098039 0.27450980 0.65882353
v -0.21698597 -0.01489037 -18.92309380 0.25098039 0.27450980 0.65882353
v -0.22109719 -0.01520376 -18.92816734 0.25098039 0.27450980 0.65882353
v -0.22099668 -0.01060029 -18.92740631 0.25098039 0.27450980 0.65882353
v -0.21730496 -0.01075747 -18.92331505 0.25098039 0.27450980 0.65882353
v -0.22413272 -0.01513250 -18.91085815 0.25098039 0.27450980 0.65882353
v -0.21885273 -0.01525778 -18.91425133 0.25098039 0.27450980 0.65882353
v -0.21895055 -0.01051410 -18.91334152 0.25098039 0.27450980 0.65882353
v -0.22518685 -0.00962214 -18.91044807 0.25098039 0.27450980 0.65882353
v -0.23108542 -0.01437864 -18.91254616 0.25098039 0.27450980 0.65882353
v -0.23183611 -0.00853320 -18.91242027 0.25098039 0.27450980 0.65882353
v -0.22431082 -0.00367212 -18.91055107 0.25098039 0.27450980 0.65882353
v -0.21808761 -0.00476485 -18.91416359 0.25098039 0.27450980 0.65882353
v -0.21307676 0.01540685 -18.91957855 0.25098039 0.27450980 0.65882353
v -0.21899408 0.01722138 -18.91554451 0.25098039 0.27450980 0.65882353
v -0.21950465 0.01313934 -18.93657875 0.25098039 0.27450980 0.65882353
v -0.22342575 0.01300740 -18.93494797 0.25098039 0.27450980 0.65882353
v -0.21675113 -0.01503535 -18.91900253 0.25098039 0.27450980 0.65882353
v -0.21690536 -0.01068111 -18.91844177 0.25098039 0.27450980 0.65882353
v -0.22898369 -0.00564272 -18.93106651 0.25098039 0.27450980 0.65882353
v -0.22350432 -0.00646976 -18.93168068 0.25098039 0.27450980 0.65882353
v -0.22497889 -0.01085001 -18.93021011 0.25098039 0.27450980 0.65882353
v -0.23055521 -0.01063027 -18.92928123 0.25098039 0.27450980 0.65882353
v -0.21038112 0.01419295 -18.92818069 0.25098039 0.27450980 0.65882353
v -0.21454138 0.01421408 -18.93315506 0.25098039 0.27450980 0.65882353
v -0.21069789 0.01422626 -18.92409134 0.25098039 0.27450980 0.65882353
v -0.23410630 -0.00451478 -18.92677307 0.25098039 0.27450980 0.65882353
v -0.23603952 -0.00323014 -18.92019081 0.25098039 0.27450980 0.65882353
v -0.23159507 0.01662536 -18.92331696 0.25098039 0.27450980 0.65882353
v -0.23044038 0.01416250 -18.92945671 0.25098039 0.27450980 0.65882353
v -0.21528405 -0.00587404 -18.91906738 0.25098039 0.27450980 0.65882353
v -0.21858722 -0.00700959 -18.92883682 0.25098039 0.27450980 0.65882353
v -0.21523806 -0.00667930 -18.92470360 0.25098039 0.27450980 0.65882353
v -0.23116343 -0.00240234 -18.91341400 0.25098039 0.27450980 0.65882353
v -0.23632929 -0.00983702 -18.91932106 0.25098039 0.27450980 0.65882353
v -0.23310494 -0.02880313 -18.92591095 0.25098039 0.27450980 0.65882353
v -0.23460631 -0.01659288 -18.92557144 0.25098039 0.27450980 0.65882353
v -0.23074862 -0.01632221 -18.92926407 0.25098039 0.27450980 0.65882353
v -0.23027959 -0.02882937 -18.93033981 0.25098039 0.27450980 0.65882353
v -0.23496529 -0.01069917 -18.92556953 0.25098039 0.27450980 0.65882353
v -0.23526320 -0.01572890 -18.91945839 0.25098039 0.27450980 0.65882353
v -0.21646644 -0.02899203 -18.92671585 0.25098039 0.27450980 0.65882353
v -0.22084628 -0.02904065 -18.93146706 0.25098039 0.27450980 0.65882353
v -0.21561147 -0.02943790 -18.92208290 0.25098039 0.27450980 0.65882353
v -0.22660610 0.01817231 -18.91719437 0.25098039 0.27450980 0.65882353
v -0.22238185 -0.02823527 -18.91405869 0.25098039 0.27450980 0.65882353
v -0.21707270 -0.02900226 -18.91801262 0.25098039 0.27450980 0.65882353
v -0.22573063 -0.01552975 -18.93066216 0.25098039 0.27450980 0.65882353
v -0.22578049 -0.02910401 -18.93269157 0.25098039 0.27450980 0.65882353
v -0.23325926 -0.02851985 -18.92120552 0.25098039 0.27450980 0.65882353
v -0.22915846 -0.02687505 -18.91503906 0.25098039 0.27450980 0.65882353
v -0.23190261 -0.03427945 -18.92223930 0.25098039 0.27450980 0.65882353
v -0.22779183 -0.03382142 -18.91702652 0.25098039 0.27450980 0.65882353
v -0.22092329 -0.03448911 -18.91599655 0.25098039 0.27450980 0.65882353
v -0.21624875 -0.03352951 -18.91965485 0.25098039 0.27450980 0.65882353
v -0.21524405 -0.03249271 -18.92338181 0.25098039 0.27450980 0.65882353
v -0.23194771 -0.03423940 -18.92683029 0.25098039 0.27450980 0.65882353
v -0.22946540 -0.03346322 -18.93105507 0.25098039 0.27450980 0.65882353
v -0.22490552 -0.03153342 -18.93280029 0.25098039 0.27450980 0.65882353
v -0.22917700 -0.03942080 -18.93068123 0.25098039 0.27450980 0.65882353
v -0.22905913 -0.04159850 -18.92647934 0.25098039 0.27450980 0.65882353
v -0.21181463 -0.04961918 -18.92818260 0.25098039 0.27450980 0.65882353
v -0.21433823 -0.04560600 -18.92439270 0.25098039 0.27450980 0.65882353
v -0.21660954 -0.04699378 -18.92466164 0.25098039 0.27450980 0.65882353
v -0.21442899 -0.05076481 -18.92808533 0.25098039 0.27450980 0.65882353
v -0.21831284 -0.04267021 -18.92026520 0.25098039 0.27450980 0.65882353
v -0.21946262 -0.04439275 -18.92185593 0.25098039 0.27450980 0.65882353
v -0.22407486 -0.04371847 -18.92297745 0.25098039 0.27450980 0.65882353
v -0.22093232 -0.04748753 -18.92692757 0.25098039 0.27450980 0.65882353
v -0.22465631 -0.04630940 -18.92997932 0.25098039 0.27450980 0.65882353
v -0.22247644 -0.05063917 -18.93304825 0.25098039 0.27450980 0.65882353
v -0.21886842 -0.05214459 -18.93011856 0.25098039 0.27450980 0.65882353
v -0.22622807 -0.04413745 -18.92633247 0.25098039 0.27450980 0.65882353
v -0.21393435 -0.05328317 -18.93066216 0.25098039 0.27450980 0.65882353
v -0.21208560 -0.05327578 -18.93251228 0.25098039 0.27450980 0.65882353
v -0.22551362 -0.04183158 -18.92046547 0.25098039 0.27450980 0.65882353
v -0.21526298 -0.03742768 -18.92081261 0.25098039 0.27450980 0.65882353
v -0.21209113 -0.04399548 -18.92597771 0.25098039 0.27450980 0.65882353
v -0.21016285 -0.04819548 -18.93070221 0.25098039 0.27450980 0.65882353
v -0.21175641 -0.05205964 -18.93531990 0.25098039 0.27450980 0.65882353
v -0.21127889 -0.04227296 -18.92988777 0.25098039 0.27450980 0.65882353
v -0.21031857 -0.04677202 -18.93367195 0.25098039 0.27450980 0.65882353
v -0.21222878 -0.04999031 -18.93707848 0.25098039 0.27450980 0.65882353
v -0.21245188 -0.04056005 -18.93430519 0.25098039 0.27450980 0.65882353
v -0.21209422 -0.04536642 -18.93733788 0.25098039 0.27450980 0.65882353
v -0.21566749 -0.03258741 -18.92862511 0.25098039 0.27450980 0.65882353
v -0.21404268 -0.03445373 -18.92448997 0.25098039 0.27450980 0.65882353
v -0.21269417 -0.04779865 -18.93803596 0.25098039 0.27450980 0.65882353
v -0.21598919 -0.05514942 -18.93473053 0.25098039 0.27450980 0.65882353
v -0.21497412 -0.05361173 -18.93754768 0.25098039 0.27450980 0.65882353
v -0.21681534 -0.05461849 -18.93312263 0.25098039 0.27450980 0.65882353
v -0.22586678 -0.04546872 -18.93160629 0.25098039 0.27450980 0.65882353
v -0.22268265 -0.04990807 -18.93515968 0.25098039 0.27450980 0.65882353
v -0.22591192 -0.04429559 -18.93430138 0.25098039 0.27450980 0.65882353
v -0.22235923 -0.04937585 -18.93754578 0.25098039 0.27450980 0.65882353
v -0.21999460 -0.05348466 -18.93673706 0.25098039 0.27450980 0.65882353
v -0.21981533 -0.05385286 -18.93508530 0.25098039 0.27450980 0.65882353
v -0.21672359 -0.03132494 -18.92739296 0.25098039 0.27450980 0.65882353
v -0.22082333 -0.03088143 -18.93144226 0.25098039 0.27450980 0.65882353
v -0.21987130 -0.03168984 -18.93250656 0.25098039 0.27450980 0.65882353
v -0.21678348 -0.04004766 -18.93759727 0.25098039 0.27450980 0.65882353
v -0.22442596 -0.03276056 -18.93391800 0.25098039 0.27450980 0.65882353
v -0.22773115 -0.03695239 -18.93320274 0.25098039 0.27450980 0.65882353
v -0.22493285 -0.04249844 -18.93638611 0.25098039 0.27450980 0.65882353
v -0.22153220 -0.04105547 -18.93822289 0.25098039 0.27450980 0.65882353
v -0.22217679 -0.04808439 -18.93932724 0.25098039 0.27450980 0.65882353
v -0.22037047 -0.04535028 -18.93981361 0.25098039 0.27450980 0.65882353
v -0.21553619 -0.04455085 -18.93956375 0.25098039 0.27450980 0.65882353
v -0.21908855 -0.05144934 -18.94014549 0.25098039 0.27450980 0.65882353
v -0.21961409 -0.05297422 -18.93839836 0.25098039 0.27450980 0.65882353
v -0.21480180 -0.05171473 -18.93872070 0.25098039 0.27450980 0.65882353
v -0.21839920 -0.04859392 -18.94061852 0.25098039 0.27450980 0.65882353
v -0.21481276 -0.04861607 -18.93961334 0.25098039 0.27450980 0.65882353
v -0.23314185 -0.00682992 -18.93785095 0.25098039 0.27450980 0.65882353
v -0.23345858 -0.00633688 -18.94393158 0.25098039 0.27450980 0.65882353
v -0.23304203 -0.00324792 -18.94390106 0.25098039 0.27450980 0.65882353
v -0.23247854 -0.00361999 -18.93802834 0.25098039 0.27450980 0.65882353
v -0.24492410 -0.00610404 -18.93285561 0.25098039 0.27450980 0.65882353
v -0.24017915 -0.00740712 -18.93203354 0.25098039 0.27450980 0.65882353
v -0.23974235 -0.00295850 -18.93143463 0.25098039 0.27450980 0.65882353
v -0.24460174 -0.00029451 -18.93184471 0.25098039 0.27450980 0.65882353
v -0.24856997 -0.00672865 -18.93741417 0.25098039 0.27450980 0.65882353
v -0.24899817 0.00097439 -18.93651962 0.25098039 0.27450980 0.65882353
v -0.24378113 0.00563137 -18.93147659 0.25098039 0.27450980 0.65882353
v -0.23869611 0.00178917 -18.93138504 0.25098039 0.27450980 0.65882353
v -0.23311614 0.01676301 -18.93389893 0.25098039 0.27450980 0.65882353
v -0.23937622 0.01968215 -18.93367195 0.25098039 0.27450980 0.65882353
v -0.23608518 -0.00724792 -18.93417740 0.25098039 0.27450980 0.65882353
v -0.23530331 -0.00381141 -18.93404388 0.25098039 0.27450980 0.65882353
v -0.23864982 0.00132614 -18.95096016 0.25098039 0.27450980 0.65882353
v -0.23460296 0.00037327 -18.94900322 0.25098039 0.27450980 0.65882353
v -0.23608495 -0.00306009 -18.94848824 0.25098039 0.27450980 0.65882353
v -0.23986991 -0.00242350 -18.95017433 0.25098039 0.27450980 0.65882353
v -0.22508837 0.01600844 -18.94201279 0.25098039 0.27450980 0.65882353
v -0.22718740 0.01792726 -18.94775200 0.25098039 0.27450980 0.65882353
v -0.22798774 0.01500453 -18.93733406 0.25098039 0.27450980 0.65882353
v -0.24480540 0.00306407 -18.94946861 0.25098039 0.27450980 0.65882353
v -0.24921125 0.00614004 -18.94399834 0.25098039 0.27450980 0.65882353
v -0.24435440 0.02054447 -18.94701767 0.25098039 0.27450980 0.65882353
v -0.23993732 0.01926167 -18.95132256 0.25098039 0.27450980 0.65882353
v -0.23425460 -0.00005264 -18.93402290 0.25098039 0.27450980 0.65882353
v -0.23126574 -0.00000487 -18.94446373 0.25098039 0.27450980 0.65882353
v -0.23092802 -0.00062817 -18.93854523 0.25098039 0.27450980 0.65882353
v -0.24754696 0.00721424 -18.93646622 0.25098039 0.27450980 0.65882353
v -0.24956203 -0.00035986 -18.94392395 0.25098039 0.27450980 0.65882353
v -0.24655968 -0.02145769 -18.94969749 0.25098039 0.27450980 0.65882353
v -0.24642387 -0.00553849 -18.94900513 0.25098039 0.27450980 0.65882353
v -0.24046944 -0.00562859 -18.95024300 0.25098039 0.27450980 0.65882353
v -0.24264306 -0.02078886 -18.95175552 0.25098039 0.27450980 0.65882353
v -0.24569333 -0.00181834 -18.94930267 0.25098039 0.27450980 0.65882353
v -0.24968706 -0.00561152 -18.94398880 0.25098039 0.27450980 0.65882353
v -0.23272793 -0.02141829 -18.94107819 0.25098039 0.27450980 0.65882353
v -0.23403898 -0.02034444 -18.94665909 0.25098039 0.27450980 0.65882353
v -0.23503481 -0.02127321 -18.93721581 0.25098039 0.27450980 0.65882353
v -0.24436715 0.02155539 -18.93868637 0.25098039 0.27450980 0.65882353
v -0.23309898 0.01857198 -18.95266914 0.25098039 0.27450980 0.65882353
v -0.24223430 -0.02264348 -18.93515015 0.25098039 0.27450980 0.65882353
v -0.23786458 -0.02202991 -18.93531609 0.25098039 0.27450980 0.65882353
v -0.23646891 -0.00584646 -18.94840622 0.25098039 0.27450980 0.65882353
v -0.23796321 -0.02024612 -18.95104027 0.25098039 0.27450980 0.65882353
v -0.24868417 -0.02133687 -18.94514084 0.25098039 0.27450980 0.65882353
v -0.24718453 -0.02118404 -18.93863678 0.25098039 0.27450980 0.65882353
v -0.24706842 -0.02710979 -18.94722557 0.25098039 0.27450980 0.65882353
v -0.24545638 -0.02776252 -18.94091034 0.25098039 0.27450980 0.65882353
v -0.24071686 -0.02885284 -18.93717194 0.25098039 0.27450980 0.65882353
v -0.23633426 -0.02701654 -18.93711662 0.25098039 0.27450980 0.65882353
v -0.23369539 -0.02543604 -18.93875694 0.25098039 0.27450980 0.65882353
v -0.24443400 -0.02578384 -18.95151901 0.25098039 0.27450980 0.65882353
v -0.24086019 -0.02408740 -18.95258331 0.25098039 0.27450980 0.65882353
v -0.23762600 -0.02148658 -18.95052528 0.25098039 0.27450980 0.65882353
v -0.24138990 -0.02791539 -18.95372200 0.25098039 0.27450980 0.65882353
v -0.24293883 -0.03225945 -18.95028877 0.25098039 0.27450980 0.65882353
v -0.22797513 -0.04035126 -18.94735336 0.25098039 0.27450980 0.65882353
v -0.23169371 -0.03699712 -18.94428635 0.25098039 0.27450980 0.65882353
v -0.23257336 -0.03730299 -18.94512367 0.25098039 0.27450980 0.65882353
v -0.22928378 -0.04103453 -18.94818306 0.25098039 0.27450980 0.65882353
v -0.23739976 -0.03441375 -18.94138718 0.25098039 0.27450980 0.65882353
v -0.23702142 -0.03544880 -18.94315338 0.25098039 0.27450980 0.65882353
v -0.24015498 -0.03478818 -18.94568443 0.25098039 0.27450980 0.65882353
v -0.23574135 -0.03812911 -18.94928741 0.25098039 0.27450980 0.65882353
v -0.23732030 -0.03472817 -18.95413589 0.25098039 0.27450980 0.65882353
v -0.23358259 -0.03785793 -18.95589256 0.25098039 0.27450980 0.65882353
v -0.23225456 -0.04149723 -18.95185280 0.25098039 0.27450980 0.65882353
v -0.24111854 -0.03345080 -18.95015907 0.25098039 0.27450980 0.65882353
v -0.22795627 -0.04272178 -18.95057869 0.25098039 0.27450980 0.65882353
v -0.22631204 -0.04349414 -18.94971848 0.25098039 0.27450980 0.65882353
v -0.24214885 -0.03369789 -18.94421387 0.25098039 0.27450980 0.65882353
v -0.23391902 -0.03159249 -18.93893623 0.25098039 0.27450980 0.65882353
v -0.22921056 -0.03569460 -18.94320107 0.25098039 0.27450980 0.65882353
v -0.22522040 -0.03898259 -18.94619179 0.25098039 0.27450980 0.65882353
v -0.22379366 -0.04079884 -18.95003510 0.25098039 0.27450980 0.65882353
v -0.22700730 -0.03289810 -18.94459915 0.25098039 0.27450980 0.65882353
v -0.22413290 -0.03629144 -18.94745827 0.25098039 0.27450980 0.65882353
v -0.22287497 -0.03809595 -18.95087624 0.25098039 0.27450980 0.65882353
v -0.22621384 -0.03064139 -18.94701767 0.25098039 0.27450980 0.65882353
v -0.22408639 -0.03382206 -18.94964600 0.25098039 0.27450980 0.65882353
v -0.23149961 -0.02490233 -18.94245529 0.25098039 0.27450980 0.65882353
v -0.23204923 -0.02804680 -18.93989754 0.25098039 0.27450980 0.65882353
v -0.22330603 -0.03594382 -18.95168304 0.25098039 0.27450980 0.65882353
v -0.22797741 -0.04347569 -18.95429420 0.25098039 0.27450980 0.65882353
v -0.22516218 -0.04063582 -18.95563507 0.25098039 0.27450980 0.65882353
v -0.22924876 -0.04258151 -18.95346642 0.25098039 0.27450980 0.65882353
v -0.23777105 -0.03328972 -18.95528984 0.25098039 0.27450980 0.65882353
v -0.23316476 -0.03710885 -18.95808983 0.25098039 0.27450980 0.65882353
v -0.23645397 -0.03100304 -18.95667076 0.25098039 0.27450980 0.65882353
v -0.23200533 -0.03489493 -18.95926285 0.25098039 0.27450980 0.65882353
v -0.23044750 -0.04042228 -18.95786095 0.25098039 0.27450980 0.65882353
v -0.23087019 -0.04052199 -18.95677376 0.25098039 0.27450980 0.65882353
v -0.23296082 -0.02330038 -18.94211197 0.25098039 0.27450980 0.65882353
v -0.23430881 -0.02162655 -18.94686127 0.25098039 0.27450980 0.65882353
v -0.23276833 -0.02250639 -18.94670486 0.25098039 0.27450980 0.65882353
v -0.22688338 -0.02836025 -18.95137024 0.25098039 0.27450980 0.65882353
v -0.23573112 -0.02203543 -18.95065689 0.25098039 0.27450980 0.65882353
v -0.23789619 -0.02593601 -18.95424271 0.25098039 0.27450980 0.65882353
v -0.23355328 -0.02908900 -18.95653534 0.25098039 0.27450980 0.65882353
v -0.22993635 -0.02824090 -18.95509720 0.25098039 0.27450980 0.65882353
v -0.22996885 -0.03284907 -18.95886612 0.25098039 0.27450980 0.65882353
v -0.22840081 -0.03142849 -18.95684052 0.25098039 0.27450980 0.65882353
v -0.22470321 -0.03171577 -18.95335770 0.25098039 0.27450980 0.65882353
v -0.22736618 -0.03604303 -18.95809174 0.25098039 0.27450980 0.65882353
v -0.22890240 -0.03843339 -18.95884895 0.25098039 0.27450980 0.65882353
v -0.22400925 -0.03775685 -18.95531273 0.25098039 0.27450980 0.65882353
v -0.22626770 -0.03411601 -18.95702171 0.25098039 0.27450980 0.65882353
v -0.22379236 -0.03537908 -18.95477676 0.25098039 0.27450980 0.65882353
v -0.22969605 0.01856215 -18.95148277 0.25098039 0.27450980 0.65882353
v -0.23904006 0.00472108 -18.96462822 0.25098039 0.27450980 0.65882353
v -0.23938967 0.00478178 -18.96885490 0.25098039 0.27450980 0.65882353
v -0.23959446 0.00822946 -18.96977806 0.25098039 0.27450980 0.65882353
v -0.23827067 0.00889376 -18.96582413 0.25098039 0.27450980 0.65882353
v -0.24879795 0.00704560 -18.95947838 0.25098039 0.27450980 0.65882353
v -0.24438062 0.00560769 -18.95922470 0.25098039 0.27450980 0.65882353
v -0.24372517 0.01045188 -18.95919800 0.25098039 0.27450980 0.65882353
v -0.24814746 0.01193654 -18.95921898 0.25098039 0.27450980 0.65882353
v -0.25243950 0.00764433 -18.96305847 0.25098039 0.27450980 0.65882353
v -0.25196281 0.01236501 -18.96310997 0.25098039 0.27450980 0.65882353
v -0.24775568 0.01560229 -18.95885658 0.25098039 0.27450980 0.65882353
v -0.24295953 0.01430743 -18.95910835 0.25098039 0.27450980 0.65882353
v -0.23848960 0.02842026 -18.95865059 0.25098039 0.27450980 0.65882353
v -0.24327427 0.03171162 -18.95878601 0.25098039 0.27450980 0.65882353
v -0.24023041 0.03465050 -18.97724152 0.25098039 0.27450980 0.65882353
v -0.23476551 0.03294769 -18.97700882 0.25098039 0.27450980 0.65882353
v -0.23782206 0.02611174 -18.97537422 0.25098039 0.27450980 0.65882353
v -0.24211904 0.02813097 -18.97650146 0.25098039 0.27450980 0.65882353
v -0.24103189 0.00495957 -18.96127510 0.25098039 0.27450980 0.65882353
v -0.23964226 0.00928491 -18.96175766 0.25098039 0.27450980 0.65882353
v -0.24609345 0.01383448 -18.97592163 0.25098039 0.27450980 0.65882353
v -0.24170378 0.01243261 -18.97455215 0.25098039 0.27450980 0.65882353
v -0.24160381 0.00861675 -18.97345161 0.25098039 0.27450980 0.65882353
v -0.24578252 0.00898834 -18.97563744 0.25098039 0.27450980 0.65882353
v -0.23191170 0.03015169 -18.97302818 0.25098039 0.27450980 0.65882353
v -0.23075065 0.02830041 -18.96871567 0.25098039 0.27450980 0.65882353
v -0.23239262 0.02496273 -18.96774864 0.25098039 0.27450980 0.65882353
v -0.23479719 0.02421921 -18.97191620 0.25098039 0.27450980 0.65882353
v -0.23349294 0.02458442 -18.96247101 0.25098039 0.27450980 0.65882353
v -0.24997182 0.01486589 -18.97436905 0.25098039 0.27450980 0.65882353
v -0.25310510 0.01607644 -18.96935844 0.25098039 0.27450980 0.65882353
v -0.24920627 0.03291790 -18.97126579 0.25098039 0.27450980 0.65882353
v -0.24601647 0.03140251 -18.97499084 0.25098039 0.27450980 0.65882353
v -0.23943126 0.01234036 -18.96159935 0.25098039 0.27450980 0.65882353
v -0.23891567 0.01161990 -18.97095108 0.25098039 0.27450980 0.65882353
v -0.23801121 0.01144400 -18.96655464 0.25098039 0.27450980 0.65882353
v -0.25211287 0.01637113 -18.96268654 0.25098039 0.27450980 0.65882353
v -0.25300324 0.01140306 -18.96936798 0.25098039 0.27450980 0.65882353
v -0.25015804 -0.00323126 -18.97437859 0.25098039 0.27450980 0.65882353
v -0.25012389 0.00620241 -18.97444153 0.25098039 0.27450980 0.65882353
v -0.24534073 0.00520996 -18.97534943 0.25098039 0.27450980 0.65882353
v -0.24707597 -0.00337702 -18.97507858 0.25098039 0.27450980 0.65882353
v -0.25010070 0.01021674 -18.97424126 0.25098039 0.27450980 0.65882353
v -0.25328138 0.00667006 -18.96949959 0.25098039 0.27450980 0.65882353
v -0.23978433 -0.00396438 -18.96460915 0.25098039 0.27450980 0.65882353
v -0.24077243 -0.00332487 -18.97001839 0.25098039 0.27450980 0.65882353
v -0.24140182 -0.00397727 -18.96167374 0.25098039 0.27450980 0.65882353
v -0.24815322 0.03348662 -18.96306038 0.25098039 0.27450980 0.65882353
v -0.24885476 -0.00344880 -18.96026421 0.25098039 0.27450980 0.65882353
v -0.24448328 -0.00433791 -18.95987701 0.25098039 0.27450980 0.65882353
v -0.24151604 0.00481290 -18.97256088 0.25098039 0.27450980 0.65882353
v -0.24357040 -0.00322545 -18.97360611 0.25098039 0.27450980 0.65882353
v -0.25295353 -0.00299146 -18.97075653 0.25098039 0.27450980 0.65882353
v -0.25297150 -0.00234848 -18.96430779 0.25098039 0.27450980 0.65882353
v -0.25179166 -0.00832810 -18.97109222 0.25098039 0.27450980 0.65882353
v -0.25195986 -0.00748906 -18.96460152 0.25098039 0.27450980 0.65882353
v -0.24709621 -0.00815176 -18.96071243 0.25098039 0.27450980 0.65882353
v -0.24335414 -0.00707494 -18.96081352 0.25098039 0.27450980 0.65882353
v -0.24066889 -0.00636978 -18.96240997 0.25098039 0.27450980 0.65882353
v -0.24889471 -0.00761346 -18.97488785 0.25098039 0.27450980 0.65882353
v -0.24591503 -0.00683366 -18.97559357 0.25098039 0.27450980 0.65882353
v -0.24273574 -0.00555295 -18.97400665 0.25098039 0.27450980 0.65882353
v -0.24730724 -0.01161308 -18.97530746 0.25098039 0.27450980 0.65882353
v -0.24877585 -0.01408846 -18.97136879 0.25098039 0.27450980 0.65882353
v -0.23776476 -0.01992160 -18.96600723 0.25098039 0.27450980 0.65882353
v -0.23981965 -0.01658429 -18.96442032 0.25098039 0.27450980 0.65882353
v -0.24085745 -0.01709346 -18.96488571 0.25098039 0.27450980 0.65882353
v -0.23866232 -0.02055630 -18.96582031 0.25098039 0.27450980 0.65882353
v -0.24396786 -0.01317227 -18.96281815 0.25098039 0.27450980 0.65882353
v -0.24415641 -0.01452695 -18.96398163 0.25098039 0.27450980 0.65882353
v -0.24717651 -0.01396342 -18.96605682 0.25098039 0.27450980 0.65882353
v -0.24416181 -0.01832877 -18.96740532 0.25098039 0.27450980 0.65882353
v -0.24529022 -0.01836830 -18.97275162 0.25098039 0.27450980 0.65882353
v -0.24282743 -0.02178361 -18.97315788 0.25098039 0.27450980 0.65882353
v -0.24228050 -0.02163115 -18.96836662 0.25098039 0.27450980 0.65882353
v -0.24789423 -0.01545057 -18.97016907 0.25098039 0.27450980 0.65882353
v -0.23824981 -0.02312140 -18.96692657 0.25098039 0.27450980 0.65882353
v -0.23698282 -0.02367203 -18.96701622 0.25098039 0.27450980 0.65882353
v -0.24871676 -0.01258265 -18.96537018 0.25098039 0.27450980 0.65882353
v -0.24081835 -0.01048929 -18.96216202 0.25098039 0.27450980 0.65882353
v -0.23729108 -0.01603295 -18.96449089 0.25098039 0.27450980 0.65882353
v -0.23541082 -0.02042671 -18.96641922 0.25098039 0.27450980 0.65882353
v -0.23536260 -0.02353841 -18.96870232 0.25098039 0.27450980 0.65882353
v -0.23587558 -0.01422819 -18.96565056 0.25098039 0.27450980 0.65882353
v -0.23375767 -0.01938568 -18.96770859 0.25098039 0.27450980 0.65882353
v -0.23388892 -0.02232617 -18.97002220 0.25098039 0.27450980 0.65882353
v -0.23490408 -0.01258311 -18.96845627 0.25098039 0.27450980 0.65882353
v -0.23349890 -0.01789310 -18.96985435 0.25098039 0.27450980 0.65882353
v -0.23773533 -0.00700743 -18.96706390 0.25098039 0.27450980 0.65882353
v -0.23861639 -0.00865241 -18.96393967 0.25098039 0.27450980 0.65882353
v -0.23386392 -0.02079184 -18.97093582 0.25098039 0.27450980 0.65882353
v -0.23903026 -0.02528451 -18.96995544 0.25098039 0.27450980 0.65882353
v -0.23668092 -0.02454311 -18.97160530 0.25098039 0.27450980 0.65882353
v -0.24038884 -0.02465793 -18.96949959 0.25098039 0.27450980 0.65882353
v -0.24527289 -0.01786773 -18.97410774 0.25098039 0.27450980 0.65882353
v -0.24223287 -0.02191247 -18.97467613 0.25098039 0.27450980 0.65882353
v -0.24413085 -0.01666071 -18.97607231 0.25098039 0.27450980 0.65882353
v -0.24061744 -0.02115653 -18.97593498 0.25098039 0.27450980 0.65882353
v -0.24024832 -0.02455375 -18.97331619 0.25098039 0.27450980 0.65882353
v -0.24139678 -0.02390441 -18.97199821 0.25098039 0.27450980 0.65882353
v -0.23882759 -0.00579745 -18.96610451 0.25098039 0.27450980 0.65882353
v -0.24008077 -0.00520868 -18.97020531 0.25098039 0.27450980 0.65882353
v -0.23912586 -0.00667885 -18.97134972 0.25098039 0.27450980 0.65882353
v -0.23599835 -0.01199105 -18.97249031 0.25098039 0.27450980 0.65882353
v -0.24190725 -0.00740060 -18.97495651 0.25098039 0.27450980 0.65882353
v -0.24499282 -0.00950237 -18.97618294 0.25098039 0.27450980 0.65882353
v -0.24184647 -0.01514830 -18.97677803 0.25098039 0.27450980 0.65882353
v -0.23885225 -0.01344879 -18.97598457 0.25098039 0.27450980 0.65882353
v -0.23862970 -0.02023204 -18.97624207 0.25098039 0.27450980 0.65882353
v -0.23634471 -0.01827953 -18.97552109 0.25098039 0.27450980 0.65882353
v -0.23424666 -0.01725858 -18.97309875 0.25098039 0.27450980 0.65882353
v -0.23667561 -0.02274978 -18.97425270 0.25098039 0.27450980 0.65882353
v -0.23809670 -0.02399911 -18.97412109 0.25098039 0.27450980 0.65882353
v -0.23536506 -0.02314974 -18.97241783 0.25098039 0.27450980 0.65882353
v -0.23547679 -0.02120557 -18.97418594 0.25098039 0.27450980 0.65882353
v -0.23455253 -0.02099693 -18.97282410 0.25098039 0.27450980 0.65882353
v -0.24389786 0.03474869 -18.97533417 0.25098039 0.27450980 0.65882353
v -0.13989353 0.03629845 -18.93460274 0.25098039 0.27450980 0.65882353
v -0.14490120 0.03352535 -18.93565941 0.25098039 0.27450980 0.65882353
v -0.14375050 0.02929155 -18.95183945 0.25098039 0.27450980 0.65882353
v -0.14740671 0.02812243 -18.94571304 0.25098039 0.27450980 0.65882353
v -0.13780913 0.03187340 -18.95424652 0.25098039 0.27450980 0.65882353
v -0.13053173 0.03821007 -18.94875145 0.25098039 0.27450980 0.65882353
v -0.13365999 0.03594404 -18.95293999 0.25098039 0.27450980 0.65882353
v -0.14778498 0.02979869 -18.93980789 0.25098039 0.27450980 0.65882353
v -0.13465334 0.03906700 -18.93634033 0.25098039 0.27450980 0.65882353
v -0.13043585 0.04026936 -18.94215393 0.25098039 0.27450980 0.65882353
v -0.13145550 0.03149602 -18.93378639 0.25098039 0.27450980 0.65882353
v -0.12688547 0.03238610 -18.94018555 0.25098039 0.27450980 0.65882353
v -0.12624501 0.03026739 -18.94693375 0.25098039 0.27450980 0.65882353
v -0.13074586 0.02858193 -18.95205498 0.25098039 0.27450980 0.65882353
v -0.13501829 0.02642831 -18.95384216 0.25098039 0.27450980 0.65882353
v -0.13835931 0.02967070 -18.93331909 0.25098039 0.27450980 0.65882353
v -0.14335649 0.02740352 -18.93499756 0.25098039 0.27450980 0.65882353
v -0.14655760 0.02514968 -18.94049072 0.25098039 0.27450980 0.65882353
v -0.13817652 0.02143662 -18.93254471 0.25098039 0.27450980 0.65882353
v -0.13107409 0.01414150 -18.93364334 0.25098039 0.27450980 0.65882353
v -0.12343407 0.00223894 -18.94683075 0.25098039 0.27450980 0.65882353
v -0.12495267 0.00872828 -18.94811821 0.25098039 0.27450980 0.65882353
v -0.12429641 0.00848623 -18.94523621 0.25098039 0.27450980 0.65882353
v -0.12239188 0.00276528 -18.94434357 0.25098039 0.27450980 0.65882353
v -0.12492454 0.01399741 -18.94628525 0.25098039 0.27450980 0.65882353
v -0.12511881 0.01250780 -18.94430733 0.25098039 0.27450980 0.65882353
v -0.12672868 0.01390208 -18.93937492 0.25098039 0.27450980 0.65882353
v -0.12516488 0.00859632 -18.93875885 0.25098039 0.27450980 0.65882353
v -0.12969163 0.01237371 -18.93533897 0.25098039 0.27450980 0.65882353
v -0.12990180 0.00837515 -18.93458366 0.25098039 0.27450980 0.65882353
v -0.12370385 0.00334420 -18.93792725 0.25098039 0.27450980 0.65882353
v -0.12129204 -0.00022587 -18.94191933 0.25098039 0.27450980 0.65882353
v -0.12274060 -0.00125532 -18.93750381 0.25098039 0.27450980 0.65882353
v -0.12292469 -0.00228603 -18.94390678 0.25098039 0.27450980 0.65882353
v -0.12510592 0.01552267 -18.93836212 0.25098039 0.27450980 0.65882353
v -0.12774616 0.01863485 -18.95112419 0.25098039 0.27450980 0.65882353
v -0.12737256 0.00970830 -18.95095444 0.25098039 0.27450980 0.65882353
v -0.12658794 0.00195054 -18.94904709 0.25098039 0.27450980 0.65882353
v -0.12588716 -0.00306362 -18.94518089 0.25098039 0.27450980 0.65882353
v -0.13177715 0.00956422 -18.95227242 0.25098039 0.27450980 0.65882353
v -0.13105695 0.00262541 -18.94938850 0.25098039 0.27450980 0.65882353
v -0.13080491 -0.00167686 -18.94533920 0.25098039 0.27450980 0.65882353
v -0.13656975 0.00930440 -18.95075989 0.25098039 0.27450980 0.65882353
v -0.13470939 0.00313298 -18.94762802 0.25098039 0.27450980 0.65882353
v -0.13990182 0.02162169 -18.95188904 0.25098039 0.27450980 0.65882353
v -0.13348980 0.02092952 -18.95378685 0.25098039 0.27450980 0.65882353
v -0.13318205 -0.00001192 -18.94500351 0.25098039 0.27450980 0.65882353
v -0.12391698 -0.00394499 -18.93788719 0.25098039 0.27450980 0.65882353
v -0.12734270 -0.00472362 -18.93925095 0.25098039 0.27450980 0.65882353
v -0.13297103 0.00899143 -18.93289757 0.25098039 0.27450980 0.65882353
v -0.12820020 0.00346681 -18.93331718 0.25098039 0.27450980 0.65882353
v -0.13134761 0.00301546 -18.93279266 0.25098039 0.27450980 0.65882353
v -0.13694526 0.01015005 -18.93293762 0.25098039 0.27450980 0.65882353
v -0.13426958 0.00271069 -18.93327522 0.25098039 0.27450980 0.65882353
v -0.12808108 -0.00161414 -18.93377304 0.25098039 0.27450980 0.65882353
v -0.12577984 0.00022445 -18.93418884 0.25098039 0.27450980 0.65882353
v -0.14114685 0.02535945 -18.95221901 0.25098039 0.27450980 0.65882353
v -0.14549258 0.02525485 -18.94695854 0.25098039 0.27450980 0.65882353
v -0.14431606 0.02186361 -18.94651222 0.25098039 0.27450980 0.65882353
v -0.14111671 0.01001352 -18.94569588 0.25098039 0.27450980 0.65882353
v -0.14567523 0.02091271 -18.94029808 0.25098039 0.27450980 0.65882353
v -0.14265874 0.02095313 -18.93479156 0.25098039 0.27450980 0.65882353
v -0.14028861 0.01006157 -18.93493652 0.25098039 0.27450980 0.65882353
v -0.14224373 0.01017704 -18.93950844 0.25098039 0.27450980 0.65882353
v -0.13688956 0.00273017 -18.93595314 0.25098039 0.27450980 0.65882353
v -0.13787726 0.00316483 -18.93890953 0.25098039 0.27450980 0.65882353
v -0.13721852 0.00290823 -18.94388580 0.25098039 0.27450980 0.65882353
v -0.13376451 -0.00131232 -18.93741989 0.25098039 0.27450980 0.65882353
v -0.13122509 -0.00204637 -18.93483543 0.25098039 0.27450980 0.65882353
v -0.13154075 -0.00302852 -18.94085693 0.25098039 0.27450980 0.65882353
v -0.13529077 0.00022646 -18.93930435 0.25098039 0.27450980 0.65882353
v -0.13410725 -0.00056176 -18.94210243 0.25098039 0.27450980 0.65882353
v -0.23175313 0.03748761 -18.97913361 0.25098039 0.27450980 0.65882353
v -0.22734529 0.03484711 -18.97477150 0.25098039 0.27450980 0.65882353
v -0.22502211 0.04014383 -18.97821999 0.25098039 0.27450980 0.65882353
v -0.22014540 0.04728437 -18.98254204 0.25098039 0.27450980 0.65882353
v -0.22102916 0.05624865 -18.98843575 0.25098039 0.27450980 0.65882353
v -0.21571285 0.04683182 -18.97714615 0.25098039 0.27450980 0.65882353
v -0.22089618 0.03934854 -18.97309875 0.25098039 0.27450980 0.65882353
v -0.22454125 0.03195656 -18.96785164 0.25098039 0.27450980 0.65882353
v -0.20817974 0.05364207 -18.97460556 0.25098039 0.27450980 0.65882353
f 2 3 1
f 1 3 4
f 5 6 8
f 8 6 7
f 9 4 10
f 10 4 3
f 12 13 11
f 11 13 9
f 14 12 16
f 16 12 15
f 18 19 17
f 17 19 20
f 22 23 21
f 21 23 24
f 26 27 25
f 25 27 28
f 30 31 29
f 29 31 32
f 33 34 36
f 36 34 35
f 37 38 40
f 40 38 39
f 41 42 6
f 6 42 43
f 6 43 7
f 7 43 44
f 45 34 46
f 46 34 33
f 48 49 47
f 47 49 50
f 52 53 51
f 51 53 54
f 56 52 55
f 55 52 51
f 58 59 57
f 57 59 60
f 61 62 4
f 4 62 1
f 64 65 63
f 63 65 66
f 68 69 67
f 67 69 70
f 72 73 71
f 71 73 74
f 76 77 75
f 75 77 78
f 53 79 54
f 54 79 80
f 82 83 81
f 81 83 84
f 85 86 52
f 52 86 53
f 57 60 87
f 87 60 88
f 89 90 43
f 43 90 44
f 43 42 89
f 89 42 91
f 40 39 92
f 92 39 93
f 94 70 64
f 64 70 69
f 13 61 9
f 9 61 4
f 25 28 69
f 69 28 95
f 96 25 68
f 68 25 69
f 98 99 97
f 97 99 100
f 101 102 104
f 104 102 103
f 106 30 105
f 105 30 29
f 51 54 107
f 107 54 108
f 54 80 108
f 108 80 109
f 111 112 110
f 110 112 113
f 115 5 114
f 114 5 116
f 115 41 5
f 5 41 6
f 36 35 111
f 111 35 117
f 35 118 117
f 117 118 119
f 34 120 35
f 35 120 118
f 34 45 120
f 120 45 121
f 125 126 124
f 124 126 127
f 128 129 14
f 14 129 130
f 33 131 46
f 46 131 132
f 133 94 63
f 63 94 64
f 134 135 137
f 137 135 136
f 139 140 138
f 138 140 141
f 77 142 78
f 78 142 143
f 144 145 20
f 20 145 146
f 148 149 147
f 147 149 72
f 151 152 150
f 150 152 153
f 82 101 83
f 83 101 104
f 101 82 155
f 155 82 154
f 156 157 58
f 58 157 59
f 158 68 147
f 147 68 67
f 159 146 15
f 15 146 16
f 68 158 96
f 96 158 160
f 129 66 130
f 130 66 65
f 162 163 161
f 161 163 164
f 166 167 165
f 165 167 168
f 170 171 169
f 169 171 172
f 174 171 173
f 173 171 170
f 176 177 175
f 175 177 178
f 180 181 179
f 179 181 24
f 182 183 21
f 21 183 184
f 81 185 82
f 82 185 154
f 186 187 188
f 188 187 144
f 158 71 160
f 160 71 189
f 190 135 157
f 157 135 59
f 169 172 139
f 139 172 140
f 147 72 158
f 158 72 71
f 192 193 191
f 191 193 194
f 167 166 49
f 49 166 195
f 196 190 50
f 50 190 157
f 197 198 200
f 200 198 199
f 21 24 182
f 182 24 181
f 146 159 20
f 20 159 17
f 182 181 81
f 81 181 185
f 201 185 180
f 180 185 181
f 202 203 83
f 83 203 84
f 205 206 204
f 204 206 85
f 207 22 184
f 184 22 21
f 179 24 208
f 208 24 23
f 208 209 179
f 179 209 205
f 209 210 205
f 205 210 206
f 212 206 211
f 211 206 210
f 179 205 180
f 180 205 204
f 213 176 88
f 88 176 214
f 86 85 212
f 212 85 206
f 193 217 218
f 217 219 218
f 218 219 220
f 219 18 220
f 220 18 17
f 19 221 20
f 20 221 144
f 222 223 225
f 225 223 224
f 175 226 176
f 176 226 214
f 227 87 214
f 214 87 88
f 220 17 228
f 228 17 159
f 134 213 60
f 60 213 88
f 138 229 151
f 151 229 152
f 193 192 210
f 210 192 211
f 230 194 218
f 218 194 193
f 231 232 228
f 228 232 230
f 233 234 91
f 91 234 89
f 235 236 93
f 93 236 92
f 230 232 234
f 234 232 237
f 47 238 48
f 48 238 239
f 240 191 235
f 235 191 236
f 5 8 116
f 116 8 241
f 242 243 189
f 189 243 160
f 244 245 98
f 98 245 99
f 156 246 47
f 47 246 238
f 76 247 77
f 77 247 248
f 250 125 249
f 249 125 124
f 252 253 251
f 251 253 254
f 111 110 36
f 36 110 255
f 256 33 255
f 255 33 36
f 257 258 154
f 154 258 155
f 63 169 133
f 133 169 139
f 66 170 63
f 63 170 169
f 173 170 129
f 129 170 66
f 129 128 173
f 173 128 259
f 128 260 259
f 259 260 261
f 213 134 262
f 262 134 137
f 263 264 186
f 186 264 187
f 112 265 113
f 113 265 266
f 11 267 268
f 234 233 230
f 230 233 194
f 153 269 70
f 70 269 67
f 175 178 165
f 165 178 141
f 150 153 94
f 94 153 70
f 271 221 270
f 270 221 207
f 269 153 272
f 272 153 152
f 121 45 109
f 109 45 108
f 47 50 156
f 156 50 157
f 57 273 58
f 58 273 274
f 145 275 260
f 260 275 261
f 276 149 143
f 143 149 78
f 148 269 75
f 75 269 272
f 207 277 270
f 270 277 278
f 195 196 49
f 49 196 50
f 59 135 60
f 60 135 134
f 83 104 202
f 202 104 279
f 149 148 78
f 78 148 75
f 247 278 248
f 248 278 277
f 183 182 84
f 84 182 81
f 48 239 281
f 281 239 282
f 227 223 283
f 283 223 222
f 223 226 224
f 224 226 168
f 281 282 224
f 224 282 225
f 165 168 175
f 175 168 226
f 264 263 138
f 138 263 229
f 14 16 128
f 128 16 260
f 220 228 218
f 218 228 230
f 87 227 284
f 284 227 283
f 260 16 145
f 145 16 146
f 244 98 258
f 258 98 155
f 58 274 156
f 156 274 246
f 107 285 51
f 51 285 55
f 243 286 160
f 160 286 96
f 234 237 89
f 89 237 90
f 46 132 107
f 107 132 285
f 253 252 249
f 249 252 250
f 286 26 96
f 96 26 25
f 106 105 287
f 287 105 288
f 272 152 289
f 289 152 229
f 138 151 139
f 139 151 133
f 183 290 161
f 161 290 162
f 291 292 277
f 277 292 293
f 151 150 133
f 133 150 94
f 262 275 177
f 177 275 187
f 144 187 145
f 145 187 275
f 273 57 284
f 284 57 87
f 174 136 190
f 190 136 135
f 111 117 112
f 112 117 38
f 117 119 38
f 38 119 123
f 112 38 265
f 265 38 37
f 287 288 254
f 254 288 251
f 228 159 231
f 231 159 15
f 223 227 226
f 226 227 214
f 147 67 148
f 148 67 269
f 224 168 281
f 281 168 167
f 199 163 200
f 200 163 162
f 45 46 108
f 108 46 107
f 281 167 48
f 48 167 49
f 161 164 291
f 291 164 292
f 38 123 39
f 293 294 277
f 277 294 248
f 284 283 296
f 296 283 295
f 284 296 273
f 273 296 297
f 274 273 298
f 298 273 297
f 246 274 299
f 299 274 298
f 283 222 295
f 295 222 300
f 222 225 300
f 300 225 301
f 301 225 302
f 302 225 282
f 303 304 300
f 300 304 295
f 306 307 305
f 305 307 308
f 309 310 308
f 308 310 305
f 308 307 312
f 312 307 311
f 313 314 312
f 312 314 315
f 311 316 312
f 312 316 313
f 317 304 311
f 311 304 316
f 315 309 312
f 312 309 308
f 318 319 321
f 321 319 320
f 319 318 309
f 309 318 310
f 311 307 317
f 317 307 306
f 306 297 317
f 317 297 296
f 306 322 297
f 297 322 298
f 305 323 306
f 306 323 322
f 323 305 324
f 324 305 310
f 304 317 295
f 295 317 296
f 318 325 310
f 310 325 324
f 323 324 326
f 326 324 327
f 324 325 327
f 327 325 328
f 326 327 329
f 329 327 330
f 329 331 326
f 326 331 332
f 333 330 328
f 328 330 327
f 323 326 322
f 322 326 332
f 322 332 298
f 298 332 299
f 325 318 334
f 334 318 321
f 313 316 335
f 335 316 304
f 335 336 313
f 313 336 314
f 304 303 335
f 335 303 337
f 336 335 338
f 338 335 337
f 336 339 314
f 314 339 340
f 246 299 238
f 238 299 341
f 239 342 282
f 282 342 302
f 342 239 341
f 341 239 238
f 341 331 342
f 342 331 343
f 331 329 343
f 343 329 344
f 342 343 302
f 302 343 345
f 341 299 331
f 331 299 332
f 346 301 345
f 345 301 302
f 346 303 301
f 301 303 300
f 347 337 346
f 346 337 303
f 347 346 348
f 348 346 345
f 349 347 350
f 350 347 348
f 343 344 345
f 345 344 348
f 344 351 348
f 348 351 350
f 337 347 338
f 338 347 349
f 353 338 352
f 352 338 349
f 352 355 354
f 354 355 356
f 352 349 355
f 355 349 350
f 352 354 353
f 353 354 334
f 353 334 339
f 339 334 321
f 339 336 353
f 353 336 338
f 329 330 344
f 344 330 351
f 356 351 333
f 333 351 330
f 356 355 351
f 351 355 350
f 354 356 328
f 328 356 333
f 328 325 354
f 354 325 334
f 309 315 319
f 319 315 320
f 320 340 321
f 321 340 339
f 320 315 340
f 340 315 314
f 137 136 261
f 261 136 259
f 140 166 141
f 141 166 165
f 172 171 195
f 195 171 196
f 171 174 196
f 196 174 190
f 178 177 264
f 264 177 187
f 172 195 140
f 140 195 166
f 137 261 262
f 262 261 275
f 178 264 141
f 141 264 138
f 262 177 213
f 213 177 176
f 136 174 259
f 259 174 173
f 358 359 357
f 357 359 360
f 362 363 361
f 361 363 364
f 361 364 365
f 365 364 366
f 367 368 370
f 370 368 369
f 76 371 247
f 247 371 372
f 373 374 362
f 362 374 363
f 376 377 375
f 375 377 378
f 289 229 380
f 380 229 379
f 381 379 263
f 263 379 229
f 383 384 382
f 382 384 385
f 386 368 374
f 374 368 363
f 76 289 371
f 371 289 380
f 377 376 359
f 359 376 387
f 388 386 360
f 360 386 374
f 389 383 366
f 366 383 390
f 392 393 391
f 391 393 394
f 383 382 390
f 390 382 395
f 396 365 390
f 390 365 366
f 389 366 367
f 367 366 364
f 357 397 358
f 358 397 398
f 373 399 357
f 357 399 397
f 389 367 400
f 400 367 370
f 382 385 375
f 375 385 372
f 357 360 373
f 373 360 374
f 361 401 362
f 362 401 402
f 387 388 359
f 359 388 360
f 363 368 364
f 364 368 367
f 358 398 403
f 403 398 404
f 396 392 405
f 405 392 391
f 392 395 393
f 393 395 378
f 393 403 394
f 394 403 404
f 375 378 382
f 382 378 395
f 365 396 406
f 406 396 405
f 362 402 373
f 373 402 399
f 271 270 400
f 400 270 384
f 401 361 406
f 406 361 365
f 381 369 386
f 386 369 368
f 392 396 395
f 395 396 390
f 393 378 403
f 403 378 377
f 403 377 358
f 358 377 359
f 406 405 408
f 408 405 407
f 406 408 401
f 401 408 409
f 401 409 402
f 402 409 410
f 402 410 399
f 399 410 411
f 405 391 407
f 407 391 412
f 391 394 412
f 412 394 413
f 394 404 413
f 413 404 414
f 415 416 412
f 412 416 407
f 418 419 417
f 417 419 420
f 421 422 418
f 418 422 419
f 419 422 424
f 424 422 423
f 425 426 424
f 424 426 427
f 423 428 424
f 424 428 425
f 427 420 424
f 424 420 419
f 420 429 417
f 417 429 430
f 423 422 431
f 431 422 421
f 421 409 431
f 431 409 408
f 421 432 409
f 409 432 410
f 418 433 421
f 421 433 432
f 434 433 417
f 417 433 418
f 431 416 423
f 423 416 428
f 416 431 407
f 407 431 408
f 435 434 430
f 430 434 417
f 433 434 436
f 436 434 437
f 434 435 437
f 437 435 438
f 436 437 439
f 439 437 440
f 439 441 436
f 436 441 442
f 438 443 437
f 437 443 440
f 436 442 433
f 433 442 432
f 432 442 410
f 410 442 411
f 435 430 445
f 445 430 444
f 430 429 444
f 444 429 446
f 425 428 447
f 447 428 416
f 426 425 448
f 448 425 447
f 416 415 447
f 447 415 449
f 447 449 448
f 448 449 450
f 451 452 448
f 448 452 426
f 446 452 444
f 444 452 451
f 399 411 397
f 397 411 453
f 398 454 404
f 404 454 414
f 454 398 453
f 453 398 397
f 453 441 454
f 454 441 455
f 441 439 455
f 455 439 456
f 454 455 414
f 414 455 457
f 441 453 442
f 442 453 411
f 458 413 457
f 457 413 414
f 458 415 413
f 413 415 412
f 458 459 415
f 415 459 449
f 459 458 460
f 460 458 457
f 461 459 462
f 462 459 460
f 455 456 457
f 457 456 460
f 456 463 460
f 460 463 462
f 459 461 449
f 449 461 450
f 465 450 464
f 464 450 461
f 464 467 466
f 466 467 468
f 464 461 467
f 467 461 462
f 464 466 465
f 465 466 445
f 465 445 451
f 451 445 444
f 451 448 465
f 465 448 450
f 439 440 456
f 456 440 463
f 468 463 443
f 443 463 440
f 468 467 463
f 463 467 462
f 466 468 438
f 438 468 443
f 438 435 466
f 466 435 445
f 420 427 429
f 429 427 446
f 446 427 452
f 452 427 426
f 370 369 188
f 188 369 186
f 371 376 372
f 372 376 375
f 380 379 387
f 387 379 388
f 379 381 388
f 388 381 386
f 385 384 278
f 278 384 270
f 380 387 371
f 371 387 376
f 400 370 271
f 271 370 188
f 385 278 372
f 372 278 247
f 400 384 389
f 389 384 383
f 369 381 186
f 186 381 263
f 221 271 144
f 144 271 188
f 221 19 207
f 207 19 22
f 19 18 22
f 22 18 23
f 18 219 23
f 23 219 208
f 469 470 472
f 472 470 471
f 474 475 473
f 473 475 476
f 473 476 477
f 477 476 478
f 480 481 479
f 479 481 482
f 483 484 474
f 474 484 475
f 486 487 485
f 485 487 488
f 489 490 77
f 77 490 142
f 491 489 248
f 248 489 77
f 493 494 492
f 492 494 495
f 496 480 484
f 484 480 475
f 486 497 487
f 487 497 471
f 498 496 472
f 472 496 484
f 499 493 478
f 478 493 500
f 501 502 504
f 504 502 503
f 493 492 500
f 500 492 505
f 506 477 500
f 500 477 478
f 499 478 479
f 479 478 476
f 469 507 470
f 470 507 508
f 483 509 469
f 469 509 507
f 479 482 499
f 499 482 510
f 492 495 485
f 485 495 511
f 483 469 484
f 484 469 472
f 473 512 474
f 474 512 513
f 497 498 471
f 471 498 472
f 475 480 476
f 476 480 479
f 470 508 514
f 514 508 515
f 506 502 516
f 516 502 501
f 503 502 488
f 488 502 505
f 514 515 503
f 503 515 504
f 485 488 492
f 492 488 505
f 477 506 517
f 517 506 516
f 474 513 483
f 483 513 509
f 510 292 494
f 494 292 164
f 512 473 517
f 517 473 477
f 491 481 496
f 496 481 480
f 502 506 505
f 505 506 500
f 503 488 514
f 514 488 487
f 514 487 470
f 470 487 471
f 517 516 519
f 519 516 518
f 517 519 512
f 512 519 520
f 512 520 513
f 513 520 521
f 513 521 509
f 509 521 522
f 516 501 518
f 518 501 523
f 501 504 523
f 523 504 524
f 524 504 525
f 525 504 515
f 526 527 523
f 523 527 518
f 529 530 528
f 528 530 531
f 532 533 529
f 529 533 530
f 530 533 535
f 535 533 534
f 536 537 535
f 535 537 538
f 534 539 535
f 535 539 536
f 538 531 535
f 535 531 530
f 540 541 531
f 531 541 528
f 533 532 534
f 534 532 542
f 532 520 542
f 542 520 519
f 532 543 520
f 520 543 521
f 529 544 532
f 532 544 543
f 544 529 545
f 545 529 528
f 534 542 539
f 539 542 527
f 527 542 518
f 518 542 519
f 541 546 528
f 528 546 545
f 547 544 548
f 548 544 545
f 546 549 545
f 545 549 548
f 550 547 551
f 551 547 548
f 547 550 553
f 553 550 552
f 549 554 548
f 548 554 551
f 544 547 543
f 543 547 553
f 543 553 521
f 521 553 522
f 546 541 556
f 556 541 555
f 541 540 555
f 555 540 557
f 536 539 558
f 558 539 527
f 537 536 559
f 559 536 558
f 527 526 558
f 558 526 560
f 559 558 561
f 561 558 560
f 559 562 537
f 537 562 563
f 557 563 555
f 555 563 562
f 509 522 507
f 507 522 564
f 508 565 515
f 515 565 525
f 565 508 564
f 564 508 507
f 564 552 565
f 565 552 566
f 552 550 566
f 566 550 567
f 565 566 525
f 525 566 568
f 564 522 552
f 552 522 553
f 569 524 568
f 568 524 525
f 569 526 524
f 524 526 523
f 570 560 569
f 569 560 526
f 570 569 571
f 571 569 568
f 572 570 573
f 573 570 571
f 566 567 568
f 568 567 571
f 567 574 571
f 571 574 573
f 570 572 560
f 560 572 561
f 576 561 575
f 575 561 572
f 575 578 577
f 577 578 579
f 575 572 578
f 578 572 573
f 575 577 576
f 576 577 556
f 576 556 562
f 562 556 555
f 562 559 576
f 576 559 561
f 550 551 567
f 567 551 574
f 579 574 554
f 554 574 551
f 579 578 574
f 574 578 573
f 579 554 577
f 577 554 549
f 549 546 577
f 577 546 556
f 531 538 540
f 540 538 557
f 557 538 563
f 563 538 537
f 481 294 482
f 482 294 293
f 580 486 511
f 511 486 485
f 490 489 497
f 497 489 498
f 489 491 498
f 498 491 496
f 163 495 164
f 164 495 494
f 580 490 486
f 486 490 497
f 482 293 510
f 510 293 292
f 495 163 511
f 511 163 199
f 494 493 510
f 510 493 499
f 481 491 294
f 294 491 248
f 582 583 581
f 581 583 584
f 586 587 585
f 585 587 588
f 585 588 589
f 589 588 590
f 592 593 591
f 591 593 594
f 595 596 598
f 598 596 597
f 599 600 586
f 586 600 587
f 601 602 604
f 604 602 603
f 605 606 608
f 608 606 607
f 609 607 200
f 200 607 606
f 610 611 613
f 613 611 612
f 600 614 587
f 587 614 592
f 596 605 597
f 597 605 608
f 602 615 603
f 603 615 583
f 616 614 584
f 584 614 600
f 611 618 617
f 617 618 590
f 620 621 619
f 619 621 622
f 610 623 611
f 611 623 618
f 624 589 618
f 618 589 590
f 617 590 591
f 591 590 588
f 581 625 582
f 582 625 626
f 599 627 581
f 581 627 625
f 591 594 617
f 617 594 628
f 601 610 598
f 598 610 613
f 581 584 599
f 599 584 600
f 585 629 586
f 586 629 630
f 615 616 583
f 583 616 584
f 587 592 588
f 588 592 591
f 582 626 631
f 631 626 632
f 624 620 633
f 633 620 619
f 621 620 604
f 604 620 623
f 631 632 621
f 621 632 622
f 610 601 623
f 623 601 604
f 589 624 634
f 634 624 633
f 586 630 599
f 599 630 627
f 203 202 628
f 628 202 612
f 629 585 634
f 634 585 589
f 609 593 614
f 614 593 592
f 620 624 623
f 623 624 618
f 631 621 603
f 603 621 604
f 582 631 583
f 583 631 603
f 634 633 636
f 636 633 635
f 634 636 629
f 629 636 637
f 629 637 630
f 630 637 638
f 630 638 627
f 627 638 639
f 633 619 635
f 635 619 640
f 619 622 640
f 640 622 641
f 641 622 642
f 642 622 632
f 644 635 643
f 643 635 640
f 645 646 648
f 648 646 647
f 649 650 646
f 646 650 647
f 647 650 652
f 652 650 651
f 652 653 655
f 655 653 654
f 651 656 652
f 652 656 653
f 655 648 652
f 652 648 647
f 648 657 645
f 645 657 658
f 650 649 651
f 651 649 659
f 649 637 659
f 659 637 636
f 649 660 637
f 637 660 638
f 661 660 646
f 646 660 649
f 662 661 645
f 645 661 646
f 651 659 656
f 656 659 644
f 644 659 635
f 635 659 636
f 663 662 658
f 658 662 645
f 664 661 665
f 665 661 662
f 663 666 662
f 662 666 665
f 667 664 668
f 668 664 665
f 664 667 670
f 670 667 669
f 666 671 665
f 665 671 668
f 661 664 660
f 660 664 670
f 660 670 638
f 638 670 639
f 658 672 663
f 663 672 673
f 658 657 672
f 672 657 674
f 653 656 675
f 675 656 644
f 653 675 654
f 654 675 676
f 675 644 677
f 677 644 643
f 676 675 678
f 678 675 677
f 679 680 676
f 676 680 654
f 674 680 672
f 672 680 679
f 627 639 625
f 625 639 681
f 626 682 632
f 632 682 642
f 681 682 625
f 625 682 626
f 669 683 681
f 681 683 682
f 667 684 669
f 669 684 683
f 682 683 642
f 642 683 685
f 681 639 669
f 669 639 670
f 686 641 685
f 685 641 642
f 641 686 640
f 640 686 643
f 686 687 643
f 643 687 677
f 687 686 688
f 688 686 685
f 689 687 690
f 690 687 688
f 683 684 685
f 685 684 688
f 684 691 688
f 688 691 690
f 687 689 677
f 677 689 678
f 693 678 692
f 692 678 689
f 692 695 694
f 694 695 696
f 692 689 695
f 695 689 690
f 692 694 693
f 693 694 673
f 693 673 679
f 679 673 672
f 679 676 693
f 693 676 678
f 684 667 691
f 691 667 668
f 696 691 671
f 671 691 668
f 696 695 691
f 691 695 690
f 694 696 666
f 666 696 671
f 666 663 694
f 694 663 673
f 648 655 657
f 657 655 674
f 674 655 680
f 680 655 654
f 593 162 594
f 594 162 290
f 598 597 601
f 601 597 602
f 615 608 616
f 616 608 607
f 607 609 616
f 616 609 614
f 697 595 613
f 613 595 598
f 597 608 602
f 602 608 615
f 594 290 628
f 628 290 203
f 628 612 617
f 617 612 611
f 593 609 162
f 162 609 200
f 105 29 698
f 698 29 699
f 268 126 701
f 701 126 700
f 126 125 700
f 700 125 702
f 252 703 250
f 250 703 704
f 32 268 705
f 705 268 701
f 288 105 706
f 706 105 698
f 29 32 699
f 699 32 705
f 707 251 706
f 706 251 288
f 250 704 125
f 125 704 702
f 703 252 707
f 707 252 251
f 706 708 707
f 707 708 709
f 707 709 703
f 703 709 710
f 703 710 704
f 704 710 711
f 704 711 702
f 702 711 712
f 706 698 708
f 708 698 713
f 698 699 713
f 713 699 714
f 699 705 714
f 714 705 715
f 717 708 716
f 716 708 713
f 719 720 718
f 718 720 721
f 722 723 719
f 719 723 720
f 724 725 723
f 723 725 720
f 724 726 725
f 725 726 727
f 728 721 725
f 725 721 720
f 721 728 729
f 729 728 730
f 729 731 721
f 721 731 718
f 724 723 732
f 732 723 722
f 722 710 732
f 732 710 709
f 722 733 710
f 710 733 711
f 719 734 722
f 722 734 733
f 734 719 735
f 735 719 718
f 724 732 726
f 726 732 717
f 717 732 708
f 708 732 709
f 731 736 718
f 718 736 735
f 737 734 738
f 738 734 735
f 736 739 735
f 735 739 738
f 740 737 741
f 741 737 738
f 737 740 743
f 743 740 742
f 739 744 738
f 738 744 741
f 734 737 733
f 733 737 743
f 733 743 711
f 711 743 712
f 736 731 746
f 746 731 745
f 731 729 745
f 745 729 730
f 727 726 747
f 747 726 717
f 748 727 749
f 749 727 747
f 747 717 750
f 750 717 716
f 749 747 751
f 751 747 750
f 749 752 748
f 748 752 753
f 730 753 745
f 745 753 752
f 728 725 748
f 748 725 727
f 730 728 753
f 753 728 748
f 700 702 754
f 754 702 712
f 705 701 715
f 715 701 755
f 754 755 700
f 700 755 701
f 742 756 754
f 754 756 755
f 740 757 742
f 742 757 756
f 755 756 715
f 715 756 758
f 754 712 742
f 742 712 743
f 759 714 758
f 758 714 715
f 714 759 713
f 713 759 716
f 759 760 716
f 716 760 750
f 760 759 761
f 761 759 758
f 762 760 763
f 763 760 761
f 756 757 758
f 758 757 761
f 757 764 761
f 761 764 763
f 760 762 750
f 750 762 751
f 766 751 765
f 765 751 762
f 767 765 769
f 769 765 768
f 765 762 768
f 768 762 763
f 765 767 766
f 766 767 746
f 766 746 752
f 752 746 745
f 752 749 766
f 766 749 751
f 757 740 764
f 764 740 741
f 769 764 744
f 744 764 741
f 769 768 764
f 764 768 763
f 767 769 739
f 739 769 744
f 739 736 767
f 767 736 746
f 219 217 208
f 208 217 209
f 209 217 210
f 210 217 193
f 198 580 199
f 199 580 511
f 76 75 289
f 289 75 272
f 277 207 291
f 291 207 184
f 290 183 203
f 203 183 84
f 490 580 142
f 142 580 198
f 142 198 143
f 143 198 197
f 149 276 72
f 72 276 73
f 104 103 279
f 279 103 770
f 770 596 279
f 279 596 595
f 605 596 771
f 771 596 770
f 771 770 772
f 772 770 103
f 772 103 773
f 773 103 102
f 155 774 101
f 101 774 102
f 773 102 97
f 97 102 774
f 775 773 100
f 100 773 97
f 773 775 772
f 772 775 776
f 772 776 771
f 771 776 777
f 200 606 197
f 197 606 777
f 189 71 778
f 778 71 74
f 97 774 98
f 98 774 155
f 183 161 184
f 184 161 291
f 777 276 197
f 197 276 143
f 777 606 771
f 771 606 605
f 613 612 697
f 697 612 202
f 595 697 279
f 279 697 202
f 73 276 776
f 776 276 777
f 776 775 73
f 73 775 74
f 100 778 775
f 775 778 74
f 778 100 189
f 189 100 99
f 245 242 99
f 99 242 189
f 131 33 256
f 28 1 95
f 95 1 62
f 27 2 28
f 28 2 1
f 265 115 266
f 266 115 114
f 95 62 69
f 69 62 64
f 62 61 64
f 64 61 65
f 61 13 65
f 65 13 130
f 13 12 130
f 130 12 14
f 31 11 32
f 32 11 268
f 15 12 31
f 31 12 11
f 31 30 15
f 15 30 231
f 30 106 231
f 231 106 232
f 287 237 106
f 106 237 232
f 254 90 287
f 287 90 237
f 253 44 254
f 254 44 90
f 253 249 44
f 44 249 7
f 267 127 268
f 268 127 126
f 10 3 241
f 241 3 116
f 3 2 116
f 116 2 114
f 2 27 114
f 114 27 266
f 27 26 266
f 266 26 113
f 26 286 113
f 113 286 110
f 286 243 110
f 110 243 255
f 243 242 255
f 255 242 256
f 242 245 256
f 256 245 131
f 245 244 131
f 131 244 132
f 265 37 115
f 115 37 41
f 41 37 42
f 42 37 40
f 92 91 40
f 40 91 42
f 236 233 92
f 92 233 91
f 191 194 236
f 236 194 233
f 258 285 244
f 244 285 132
f 257 55 258
f 258 55 285
f 257 154 201
f 201 154 185
f 56 201 204
f 204 201 180
f 55 257 56
f 56 257 201
f 204 85 56
f 56 85 52
f 86 122 53
f 53 122 79
f 212 215 86
f 86 215 122
f 211 216 212
f 212 216 215
f 192 280 211
f 211 280 216
f 191 240 192
f 192 240 280
f 249 124 7
f 7 124 8
f 124 127 8
f 8 127 241
f 127 267 241
f 241 267 10
f 10 267 9
f 9 267 11
f 93 39 235
f 235 39 240
f 39 123 240
f 240 123 280
f 123 119 280
f 280 119 216
f 119 118 216
f 216 118 215
f 118 120 215
f 215 120 122
f 120 121 122
f 122 121 79
f 121 109 79
f 79 109 80

