# https://github.com/mikedh/trimesh
v -0.12783358 -0.02893872 -17.00584793 0.25098039 0.27450980 0.65882353
v -0.12342609 -0.02967545 -17.01707840 0.25098039 0.27450980 0.65882353
v -0.11600519 -0.03060875 -17.01054955 0.25098039 0.27450980 0.65882353
v -0.12172436 -0.02805487 -16.99888420 0.25098039 0.27450980 0.65882353
v -0.10401033 -0.02443841 -17.03087807 0.25098039 0.27450980 0.65882353
v -0.09912407 -0.01310989 -17.03356934 0.25098039 0.27450980 0.65882353
v -0.09384985 -0.01772364 -17.02149010 0.25098039 0.27450980 0.65882353
v -0.09900075 -0.02728255 -17.02148056 0.25098039 0.27450980 0.65882353
v -0.11833818 -0.02631115 -16.99298668 0.25098039 0.27450980 0.65882353
v -0.11116131 -0.03130441 -17.00434113 0.25098039 0.27450980 0.65882353
v -0.11785813 -0.02211954 -16.99090767 0.25098039 0.27450980 0.65882353
v -0.12945758 -0.01280523 -16.98246384 0.25098039 0.27450980 0.65882353
v -0.12708040 -0.01916804 -16.98486710 0.25098039 0.27450980 0.65882353
v -0.13635623 -0.01109777 -16.97621727 0.25098039 0.27450980 0.65882353
v -0.13457763 -0.00422035 -16.98695946 0.25098039 0.27450980 0.65882353
v -0.14525700 -0.00802235 -16.97782516 0.25098039 0.27450980 0.65882353
v -0.16099690 -0.01043681 -17.00208473 0.25098039 0.27450980 0.65882353
v -0.16755466 -0.02031822 -17.01011086 0.25098039 0.27450980 0.65882353
v -0.17142625 -0.02654251 -16.99520493 0.25098039 0.27450980 0.65882353
v -0.16404775 -0.01624054 -16.98847008 0.25098039 0.27450980 0.65882353
v -0.17540874 -0.04178578 -17.01094627 0.25098039 0.27450980 0.65882353
v -0.17395207 -0.03372376 -17.00158691 0.25098039 0.27450980 0.65882353
v -0.17071161 -0.02700646 -17.01662827 0.25098039 0.27450980 0.65882353
v -0.17213860 -0.03424379 -17.02428627 0.25098039 0.27450980 0.65882353
v -0.13562882 -0.03448388 -17.01756668 0.25098039 0.27450980 0.65882353
v -0.13246459 -0.03403734 -17.02758217 0.25098039 0.27450980 0.65882353
v -0.13086732 -0.03133887 -17.02404022 0.25098039 0.27450980 0.65882353
v -0.13341786 -0.03134402 -17.01414299 0.25098039 0.27450980 0.65882353
v -0.10655543 -0.01665595 -16.99136734 0.25098039 0.27450980 0.65882353
v -0.11621337 -0.00555470 -16.99520302 0.25098039 0.27450980 0.65882353
v -0.11876523 -0.01252514 -16.99129868 0.25098039 0.27450980 0.65882353
v -0.10724454 -0.02278972 -16.99246407 0.25098039 0.27450980 0.65882353
v -0.12446331 -0.03752124 -17.05433273 0.25098039 0.27450980 0.65882353
v -0.12732887 -0.02805381 -17.06520081 0.25098039 0.27450980 0.65882353
v -0.12476456 -0.02311997 -17.06265831 0.25098039 0.27450980 0.65882353
v -0.12348254 -0.03232553 -17.05315018 0.25098039 0.27450980 0.65882353
v -0.11170280 -0.01091821 -17.04969025 0.25098039 0.27450980 0.65882353
v -0.11716101 -0.00644017 -17.05634499 0.25098039 0.27450980 0.65882353
v -0.11881439 0.00685103 -17.05734825 0.25098039 0.27450980 0.65882353
v -0.11533115 0.00411794 -17.04849434 0.25098039 0.27450980 0.65882353
v -0.10475713 -0.01254935 -17.04144287 0.25098039 0.27450980 0.65882353
v -0.10725582 0.00055154 -17.04006195 0.25098039 0.27450980 0.65882353
v -0.10063560 -0.00161031 -17.03063965 0.25098039 0.27450980 0.65882353
v -0.09344511 -0.00830932 -17.01802635 0.25098039 0.27450980 0.65882353
v -0.13566276 -0.03675303 -17.07034874 0.25098039 0.27450980 0.65882353
v -0.13464916 -0.04526516 -17.06389427 0.25098039 0.27450980 0.65882353
v -0.14307690 -0.03506052 -16.93657494 0.25098039 0.27450980 0.65882353
v -0.14493617 -0.04044604 -16.93906403 0.25098039 0.27450980 0.65882353
v -0.14513081 -0.03840906 -16.94212151 0.25098039 0.27450980 0.65882353
v -0.14332868 -0.03346597 -16.93917847 0.25098039 0.27450980 0.65882353
v -0.15614545 -0.04121404 -17.07030106 0.25098039 0.27450980 0.65882353
v -0.16431123 -0.03448312 -17.06859589 0.25098039 0.27450980 0.65882353
v -0.16176757 -0.03359473 -17.07509041 0.25098039 0.27450980 0.65882353
v -0.15324655 -0.03821828 -17.07635689 0.25098039 0.27450980 0.65882353
v -0.15988514 -0.04507713 -17.06196404 0.25098039 0.27450980 0.65882353
v -0.16693555 -0.03590295 -17.05911636 0.25098039 0.27450980 0.65882353
v -0.15254396 -0.03033915 -16.92962837 0.25098039 0.27450980 0.65882353
v -0.14759423 -0.03020462 -16.93076706 0.25098039 0.27450980 0.65882353
v -0.14919589 -0.02711791 -16.93362999 0.25098039 0.27450980 0.65882353
v -0.15466985 -0.02730902 -16.93349648 0.25098039 0.27450980 0.65882353
v -0.12727146 -0.02398873 -16.98950195 0.25098039 0.27450980 0.65882353
v -0.13047016 -0.02862974 -16.99621582 0.25098039 0.27450980 0.65882353
v -0.13481343 -0.02789200 -16.97107506 0.25098039 0.27450980 0.65882353
v -0.13428874 -0.02792608 -16.98212242 0.25098039 0.27450980 0.65882353
v -0.13137577 -0.02189511 -16.98044777 0.25098039 0.27450980 0.65882353
v -0.13303907 -0.02120756 -16.97142410 0.25098039 0.27450980 0.65882353
v -0.14424276 -0.04266277 -16.99841690 0.25098039 0.27450980 0.65882353
v -0.14087003 -0.03922665 -17.00891876 0.25098039 0.27450980 0.65882353
v -0.13888395 -0.03489361 -17.00429916 0.25098039 0.27450980 0.65882353
v -0.14059746 -0.03808597 -16.99189377 0.25098039 0.27450980 0.65882353
v -0.14465362 -0.05032851 -17.01741982 0.25098039 0.27450980 0.65882353
v -0.14799003 -0.05268886 -17.00659561 0.25098039 0.27450980 0.65882353
v -0.15006971 -0.05860359 -17.01307869 0.25098039 0.27450980 0.65882353
v -0.14645977 -0.05649005 -17.01945305 0.25098039 0.27450980 0.65882353
v -0.15182902 -0.05468660 -16.98601723 0.25098039 0.27450980 0.65882353
v -0.15536165 -0.05585463 -16.97899818 0.25098039 0.27450980 0.65882353
v -0.15627685 -0.05790305 -16.97978973 0.25098039 0.27450980 0.65882353
v -0.15307501 -0.05687883 -16.98845482 0.25098039 0.27450980 0.65882353
v -0.16013268 -0.03171908 -17.08135986 0.25098039 0.27450980 0.65882353
v -0.15062723 -0.03435927 -17.08167076 0.25098039 0.27450980 0.65882353
v -0.17640331 -0.05795944 -17.02596474 0.25098039 0.27450980 0.65882353
v -0.17066027 -0.06389217 -17.03362274 0.25098039 0.27450980 0.65882353
v -0.17386134 -0.07189633 -17.02366066 0.25098039 0.27450980 0.65882353
v -0.17985372 -0.06320149 -17.01772118 0.25098039 0.27450980 0.65882353
v -0.16831651 -0.02546922 -17.06343460 0.25098039 0.27450980 0.65882353
v -0.16768798 -0.02547169 -17.07086945 0.25098039 0.27450980 0.65882353
v -0.15746814 -0.03362811 -16.93045616 0.25098039 0.27450980 0.65882353
v -0.15965295 -0.03080599 -16.93437767 0.25098039 0.27450980 0.65882353
v -0.11067731 0.00782398 -17.02622032 0.25098039 0.27450980 0.65882353
v -0.09930818 -0.00056317 -17.01245689 0.25098039 0.27450980 0.65882353
v -0.11891272 0.01164544 -17.03821373 0.25098039 0.27450980 0.65882353
v -0.12534456 0.01431016 -17.04666901 0.25098039 0.27450980 0.65882353
v -0.12805447 0.01618648 -17.05481529 0.25098039 0.27450980 0.65882353
v -0.13739082 -0.03411717 -16.98084641 0.25098039 0.27450980 0.65882353
v -0.13421388 -0.03118536 -17.00422096 0.25098039 0.27450980 0.65882353
v -0.13716900 -0.03805858 -17.02047348 0.25098039 0.27450980 0.65882353
v -0.14561489 -0.06458548 -17.03531837 0.25098039 0.27450980 0.65882353
v -0.14187104 -0.06104702 -17.04438972 0.25098039 0.27450980 0.65882353
v -0.13787873 -0.05526616 -17.03576851 0.25098039 0.27450980 0.65882353
v -0.14256169 -0.05927319 -17.02956200 0.25098039 0.27450980 0.65882353
v -0.16264440 -0.07009795 -17.03466797 0.25098039 0.27450980 0.65882353
v -0.15514898 -0.07049748 -17.03071594 0.25098039 0.27450980 0.65882353
v -0.15799561 -0.07339689 -17.02395058 0.25098039 0.27450980 0.65882353
v -0.16572189 -0.07456973 -17.02620316 0.25098039 0.27450980 0.65882353
v -0.10135657 -0.01108804 -16.99244881 0.25098039 0.27450980 0.65882353
v -0.11362711 -0.00013059 -16.99891090 0.25098039 0.27450980 0.65882353
v -0.14575395 -0.04439126 -17.06904984 0.25098039 0.27450980 0.65882353
v -0.14321896 -0.03885703 -17.07366562 0.25098039 0.27450980 0.65882353
v -0.14291146 -0.03325579 -17.08055305 0.25098039 0.27450980 0.65882353
v -0.12711798 -0.03498645 -17.04063606 0.25098039 0.27450980 0.65882353
v -0.12258223 -0.02901284 -17.05256462 0.25098039 0.27450980 0.65882353
v -0.12089492 -0.02629886 -17.05068016 0.25098039 0.27450980 0.65882353
v -0.12741062 -0.03275155 -17.03915405 0.25098039 0.27450980 0.65882353
v -0.11793229 -0.02909448 -17.02968788 0.25098039 0.27450980 0.65882353
v -0.11205719 -0.02383484 -17.04013443 0.25098039 0.27450980 0.65882353
v -0.11042733 -0.03149443 -17.02246284 0.25098039 0.27450980 0.65882353
v -0.12156510 -0.01539707 -17.06079102 0.25098039 0.27450980 0.65882353
v -0.12394863 -0.01722013 -17.07152367 0.25098039 0.27450980 0.65882353
v -0.12098093 -0.00916062 -17.06814957 0.25098039 0.27450980 0.65882353
v -0.12948416 -0.02451561 -17.07567978 0.25098039 0.27450980 0.65882353
v -0.13624495 -0.03023904 -17.07826042 0.25098039 0.27450980 0.65882353
v -0.16900873 -0.02349036 -17.07841873 0.25098039 0.27450980 0.65882353
v -0.11937445 -0.00150977 -17.06428146 0.25098039 0.27450980 0.65882353
v -0.09675092 -0.03032549 -17.01423264 0.25098039 0.27450980 0.65882353
v -0.09418391 -0.03283011 -17.00745010 0.25098039 0.27450980 0.65882353
v -0.10104699 -0.03506986 -17.00260353 0.25098039 0.27450980 0.65882353
v -0.10381636 -0.03370765 -17.00904083 0.25098039 0.27450980 0.65882353
v -0.14196944 -0.01142915 -16.96788979 0.25098039 0.27450980 0.65882353
v -0.13551536 -0.01605078 -16.96871376 0.25098039 0.27450980 0.65882353
v -0.13129824 -0.01527810 -16.97856522 0.25098039 0.27450980 0.65882353
v -0.12921108 -0.04555104 -17.04800415 0.25098039 0.27450980 0.65882353
v -0.13738927 -0.05230449 -17.05678177 0.25098039 0.27450980 0.65882353
v -0.13907982 -0.03340803 -16.96969032 0.25098039 0.27450980 0.65882353
v -0.15555257 -0.02409387 -16.93808174 0.25098039 0.27450980 0.65882353
v -0.14935802 -0.02393033 -16.93782616 0.25098039 0.27450980 0.65882353
v -0.14587826 -0.01597360 -16.95341301 0.25098039 0.27450980 0.65882353
v -0.15337762 -0.01570480 -16.95343208 0.25098039 0.27450980 0.65882353
v -0.14938223 -0.03567948 -16.96376991 0.25098039 0.27450980 0.65882353
v -0.14285222 -0.03421090 -16.96458435 0.25098039 0.27450980 0.65882353
v -0.14530864 -0.03498526 -16.96276474 0.25098039 0.27450980 0.65882353
v -0.15168172 -0.03795674 -16.96161270 0.25098039 0.27450980 0.65882353
v -0.15612487 -0.06331055 -16.98788071 0.25098039 0.27450980 0.65882353
v -0.15407965 -0.06217289 -16.99555206 0.25098039 0.27450980 0.65882353
v -0.16482538 -0.02457834 -16.97515869 0.25098039 0.27450980 0.65882353
v -0.15846115 -0.01190592 -16.97343826 0.25098039 0.27450980 0.65882353
v -0.15558180 -0.00908761 -16.98344612 0.25098039 0.27450980 0.65882353
v -0.14624122 -0.04799051 -17.00365448 0.25098039 0.27450980 0.65882353
v -0.14893520 -0.05213186 -16.99449921 0.25098039 0.27450980 0.65882353
v -0.15062605 -0.05504864 -16.99721718 0.25098039 0.27450980 0.65882353
v -0.14043337 -0.03751092 -16.97871208 0.25098039 0.27450980 0.65882353
v -0.14319363 -0.03773882 -16.97016907 0.25098039 0.27450980 0.65882353
v -0.14417316 -0.04050507 -16.97554970 0.25098039 0.27450980 0.65882353
v -0.14287950 -0.04028159 -16.98312187 0.25098039 0.27450980 0.65882353
v -0.16790618 -0.05676041 -17.04440117 0.25098039 0.27450980 0.65882353
v -0.15857320 -0.06433500 -17.04531288 0.25098039 0.27450980 0.65882353
v -0.14411992 -0.03168550 -16.93343544 0.25098039 0.27450980 0.65882353
v -0.14490661 -0.02925712 -16.93601990 0.25098039 0.27450980 0.65882353
v -0.14307086 -0.04422181 -17.01377106 0.25098039 0.27450980 0.65882353
v -0.15207428 -0.00563604 -16.99578667 0.25098039 0.27450980 0.65882353
v -0.13847530 -0.04213795 -17.02367020 0.25098039 0.27450980 0.65882353
v -0.17591122 -0.06130188 -16.99994278 0.25098039 0.27450980 0.65882353
v -0.16962148 -0.06751730 -16.99963379 0.25098039 0.27450980 0.65882353
v -0.16868272 -0.06924663 -16.99448013 0.25098039 0.27450980 0.65882353
v -0.17455259 -0.06635787 -16.99294090 0.25098039 0.27450980 0.65882353
v -0.15556552 -0.04271790 -16.94848251 0.25098039 0.27450980 0.65882353
v -0.14954861 -0.04244677 -16.94750404 0.25098039 0.27450980 0.65882353
v -0.14973348 -0.04268923 -16.94391441 0.25098039 0.27450980 0.65882353
v -0.15571252 -0.04357786 -16.94385910 0.25098039 0.27450980 0.65882353
v -0.13879935 -0.02973691 -16.96409416 0.25098039 0.27450980 0.65882353
v -0.13640726 -0.02318351 -16.96356201 0.25098039 0.27450980 0.65882353
v -0.13868988 -0.02619415 -16.95815468 0.25098039 0.27450980 0.65882353
v -0.14171436 -0.03152147 -16.96034050 0.25098039 0.27450980 0.65882353
v -0.13947731 -0.01745905 -16.96102142 0.25098039 0.27450980 0.65882353
v -0.14026013 -0.01994006 -16.95552254 0.25098039 0.27450980 0.65882353
v -0.16133605 -0.03904258 -16.94711113 0.25098039 0.27450980 0.65882353
v -0.16351499 -0.03256789 -16.94326591 0.25098039 0.27450980 0.65882353
v -0.16249436 -0.02681558 -16.95825768 0.25098039 0.27450980 0.65882353
v -0.15895306 -0.03472483 -16.95923615 0.25098039 0.27450980 0.65882353
v -0.17038113 -0.02629644 -17.03709602 0.25098039 0.27450980 0.65882353
v -0.17163050 -0.03536800 -17.04381180 0.25098039 0.27450980 0.65882353
v -0.17397159 -0.04327720 -17.03115082 0.25098039 0.27450980 0.65882353
v -0.17714618 -0.05140674 -17.01905823 0.25098039 0.27450980 0.65882353
v -0.17860913 -0.05840484 -17.00761032 0.25098039 0.27450980 0.65882353
v -0.17901069 -0.04824242 -17.00078964 0.25098039 0.27450980 0.65882353
v -0.17304185 -0.04930903 -17.03714561 0.25098039 0.27450980 0.65882353
v -0.15693438 -0.03433179 -16.96668625 0.25098039 0.27450980 0.65882353
v -0.16090414 -0.02415757 -16.96732712 0.25098039 0.27450980 0.65882353
v -0.16230473 -0.03026188 -16.96909714 0.25098039 0.27450980 0.65882353
v -0.13941550 -0.04869444 -17.02751160 0.25098039 0.27450980 0.65882353
v -0.14440095 -0.02652087 -16.93946457 0.25098039 0.27450980 0.65882353
v -0.14919674 0.01210710 -17.04850960 0.25098039 0.27450980 0.65882353
v -0.15996480 0.00421287 -17.05332375 0.25098039 0.27450980 0.65882353
v -0.15823358 0.00186695 -17.04522133 0.25098039 0.27450980 0.65882353
v -0.14605013 0.01059569 -17.03945732 0.25098039 0.27450980 0.65882353
v -0.14393118 -0.03800037 -16.94506836 0.25098039 0.27450980 0.65882353
v -0.14152499 -0.03202885 -16.94229507 0.25098039 0.27450980 0.65882353
v -0.15565535 -0.06799422 -16.99862671 0.25098039 0.27450980 0.65882353
v -0.15758383 -0.06815450 -16.99145699 0.25098039 0.27450980 0.65882353
v -0.16103017 -0.07049184 -16.99218559 0.25098039 0.27450980 0.65882353
v -0.15767169 -0.07255384 -16.99908066 0.25098039 0.27450980 0.65882353
v -0.17070627 -0.03968130 -17.04843521 0.25098039 0.27450980 0.65882353
v -0.17128821 -0.07823956 -17.01748657 0.25098039 0.27450980 0.65882353
v -0.17790744 -0.06996414 -17.01208878 0.25098039 0.27450980 0.65882353
v -0.16927010 -0.02824159 -17.05457306 0.25098039 0.27450980 0.65882353
v -0.16909203 -0.01998607 -17.04876328 0.25098039 0.27450980 0.65882353
v -0.16894093 -0.01585694 -17.05739403 0.25098039 0.27450980 0.65882353
v -0.17543046 -0.04140091 -16.98624039 0.25098039 0.27450980 0.65882353
v -0.16862860 -0.02077487 -17.03042221 0.25098039 0.27450980 0.65882353
v -0.16662934 -0.01492142 -17.04335213 0.25098039 0.27450980 0.65882353
v -0.16632536 -0.00961741 -17.05324554 0.25098039 0.27450980 0.65882353
v -0.16722353 -0.00596308 -17.06042671 0.25098039 0.27450980 0.65882353
v -0.16921270 -0.01361778 -17.06422234 0.25098039 0.27450980 0.65882353
v -0.16073088 -0.02790584 -16.93973923 0.25098039 0.27450980 0.65882353
v -0.16274956 -0.03624320 -16.93742180 0.25098039 0.27450980 0.65882353
v -0.17073381 -0.01104368 -17.07198906 0.25098039 0.27450980 0.65882353
v -0.16776183 -0.00303670 -17.06747437 0.25098039 0.27450980 0.65882353
v -0.16300783 -0.00816566 -17.03733063 0.25098039 0.27450980 0.65882353
v -0.15738684 -0.00067103 -17.03015137 0.25098039 0.27450980 0.65882353
v -0.16494274 -0.01388023 -17.02496719 0.25098039 0.27450980 0.65882353
v -0.15985110 -0.00680288 -17.01695442 0.25098039 0.27450980 0.65882353
v -0.17426698 -0.03016177 -16.98334122 0.25098039 0.27450980 0.65882353
v -0.15656468 -0.04929029 -16.92783165 0.25098039 0.27450980 0.65882353
v -0.15967879 -0.04384621 -16.93665123 0.25098039 0.27450980 0.65882353
v -0.15505591 -0.04567201 -16.93977547 0.25098039 0.27450980 0.65882353
v -0.15413627 -0.05150547 -16.93091011 0.25098039 0.27450980 0.65882353
v -0.16070095 -0.04122171 -16.94169807 0.25098039 0.27450980 0.65882353
v -0.16071057 -0.03904605 -16.93345833 0.25098039 0.27450980 0.65882353
v -0.14808327 -0.00013793 -17.00901031 0.25098039 0.27450980 0.65882353
v -0.14766872 -0.04078485 -16.96883774 0.25098039 0.27450980 0.65882353
v -0.14152637 0.00753926 -17.02247429 0.25098039 0.27450980 0.65882353
v -0.13328005 0.00144848 -16.99780273 0.25098039 0.27450980 0.65882353
v -0.12724721 0.00636912 -17.00796318 0.25098039 0.27450980 0.65882353
v -0.13287506 0.01551117 -17.03619957 0.25098039 0.27450980 0.65882353
v -0.12330680 0.01246601 -17.02227974 0.25098039 0.27450980 0.65882353
v -0.13858968 0.01813211 -17.05380249 0.25098039 0.27450980 0.65882353
v -0.13712786 0.01659960 -17.04493141 0.25098039 0.27450980 0.65882353
v -0.11198273 0.00608179 -17.01035309 0.25098039 0.27450980 0.65882353
v -0.14131346 -0.04316516 -16.93118286 0.25098039 0.27450980 0.65882353
v -0.14417799 -0.04781695 -16.93401146 0.25098039 0.27450980 0.65882353
v -0.15014315 0.01469970 -17.05629158 0.25098039 0.27450980 0.65882353
v -0.10599445 -0.03262831 -17.01460075 0.25098039 0.27450980 0.65882353
v -0.13392186 -0.04450037 -17.03581047 0.25098039 0.27450980 0.65882353
v -0.13331369 -0.03989676 -17.03245163 0.25098039 0.27450980 0.65882353
v -0.14039364 -0.05816154 -17.04977226 0.25098039 0.27450980 0.65882353
v -0.13437322 -0.05057940 -17.04105568 0.25098039 0.27450980 0.65882353
v -0.14162898 -0.03899157 -16.92742920 0.25098039 0.27450980 0.65882353
v -0.16148017 -0.05593568 -16.97510529 0.25098039 0.27450980 0.65882353
v -0.16234356 -0.05498755 -16.97679138 0.25098039 0.27450980 0.65882353
v -0.09106208 -0.02259625 -17.01502991 0.25098039 0.27450980 0.65882353
v -0.08908415 -0.02641411 -17.00913429 0.25098039 0.27450980 0.65882353
v -0.08870581 -0.01506989 -17.00053215 0.25098039 0.27450980 0.65882353
v -0.08666499 -0.02014857 -17.00592232 0.25098039 0.27450980 0.65882353
v -0.08953094 -0.01423807 -17.01175117 0.25098039 0.27450980 0.65882353
v -0.09253269 -0.00825394 -17.00651932 0.25098039 0.27450980 0.65882353
v -0.12681498 -0.03724188 -17.04151917 0.25098039 0.27450980 0.65882353
v -0.12780407 -0.04081308 -17.04338837 0.25098039 0.27450980 0.65882353
v -0.16353545 -0.05066966 -17.05389023 0.25098039 0.27450980 0.65882353
v -0.15410888 -0.05793338 -17.05369759 0.25098039 0.27450980 0.65882353
v -0.14508262 -0.01378886 -16.96051216 0.25098039 0.27450980 0.65882353
v -0.15058205 -0.00997321 -16.96868896 0.25098039 0.27450980 0.65882353
v -0.15246688 -0.01326668 -16.96115494 0.25098039 0.27450980 0.65882353
v -0.15932637 -0.01899066 -16.95670700 0.25098039 0.27450980 0.65882353
v -0.15274061 -0.03838488 -16.96541977 0.25098039 0.27450980 0.65882353
v -0.15614983 -0.03274365 -16.96457481 0.25098039 0.27450980 0.65882353
v -0.11729813 -0.02561909 -17.04522514 0.25098039 0.27450980 0.65882353
v -0.12488708 -0.03032635 -17.03497696 0.25098039 0.27450980 0.65882353
v -0.10852453 -0.03071421 -17.00098991 0.25098039 0.27450980 0.65882353
v -0.10586798 -0.03123590 -16.99644661 0.25098039 0.27450980 0.65882353
v -0.14565234 -0.04466444 -16.98962975 0.25098039 0.27450980 0.65882353
v -0.17315850 -0.04556632 -16.97560310 0.25098039 0.27450980 0.65882353
v -0.17187089 -0.03618107 -16.97307396 0.25098039 0.27450980 0.65882353
v -0.14816669 -0.04681759 -16.98102570 0.25098039 0.27450980 0.65882353
v -0.14853251 -0.03784448 -16.92212105 0.25098039 0.27450980 0.65882353
v -0.14402062 -0.03758881 -16.92458344 0.25098039 0.27450980 0.65882353
v -0.15836808 -0.01584750 -16.96426201 0.25098039 0.27450980 0.65882353
v -0.15147884 -0.06138939 -17.00326157 0.25098039 0.27450980 0.65882353
v -0.17477416 -0.04926350 -16.98239708 0.25098039 0.27450980 0.65882353
v -0.16978589 -0.05281531 -16.97470474 0.25098039 0.27450980 0.65882353
v -0.16448730 -0.07775816 -17.02157784 0.25098039 0.27450980 0.65882353
v -0.16013786 0.00692625 -17.06125450 0.25098039 0.27450980 0.65882353
v -0.14929861 -0.04527021 -16.94066811 0.25098039 0.27450980 0.65882353
v -0.14847308 -0.05089682 -16.93481827 0.25098039 0.27450980 0.65882353
v -0.15707546 -0.04553379 -16.92542839 0.25098039 0.27450980 0.65882353
v -0.15437296 -0.04026113 -16.92304420 0.25098039 0.27450980 0.65882353
v -0.14890622 -0.05175594 -17.06068993 0.25098039 0.27450980 0.65882353
v -0.13318379 -0.03727197 -17.03004646 0.25098039 0.27450980 0.65882353
v -0.10248618 -0.00191835 -17.00229263 0.25098039 0.27450980 0.65882353
v -0.09452692 -0.01191484 -16.99563789 0.25098039 0.27450980 0.65882353
v -0.15027878 -0.04797499 -16.97600746 0.25098039 0.27450980 0.65882353
v -0.17479968 -0.06692336 -17.00484276 0.25098039 0.27450980 0.65882353
v -0.17842004 -0.05470479 -16.99346542 0.25098039 0.27450980 0.65882353
v -0.17819321 -0.06079249 -16.98590279 0.25098039 0.27450980 0.65882353
v -0.17578803 -0.05686312 -16.97878456 0.25098039 0.27450980 0.65882353
v -0.16937792 -0.05544270 -16.97445107 0.25098039 0.27450980 0.65882353
v -0.15468490 -0.04938545 -16.92226028 0.25098039 0.27450980 0.65882353
v -0.15201826 -0.04417479 -16.91981125 0.25098039 0.27450980 0.65882353
v -0.14628184 -0.04151481 -16.91919136 0.25098039 0.27450980 0.65882353
v -0.14234039 -0.04073004 -16.92178154 0.25098039 0.27450980 0.65882353
v -0.14070170 -0.04183574 -16.92581177 0.25098039 0.27450980 0.65882353
v -0.15383242 -0.05310183 -16.92486954 0.25098039 0.27450980 0.65882353
v -0.15149501 -0.05458254 -16.92785263 0.25098039 0.27450980 0.65882353
v -0.14762904 -0.05284268 -16.93255615 0.25098039 0.27450980 0.65882353
v -0.15050143 -0.05639100 -16.92366982 0.25098039 0.27450980 0.65882353
v -0.14950512 -0.05491589 -16.91862679 0.25098039 0.27450980 0.65882353
v -0.13664445 -0.05085632 -16.91504478 0.25098039 0.27450980 0.65882353
v -0.14161725 -0.04779260 -16.91562653 0.25098039 0.27450980 0.65882353
v -0.14163932 -0.05021043 -16.91469574 0.25098039 0.27450980 0.65882353
v -0.13802743 -0.05346618 -16.91368294 0.25098039 0.27450980 0.65882353
v -0.13545454 -0.05760626 -16.91218758 0.25098039 0.27450980 0.65882353
v -0.13346907 -0.05510208 -16.91362381 0.25098039 0.27450980 0.65882353
v -0.14599767 -0.05127093 -16.91597748 0.25098039 0.27450980 0.65882353
v -0.14178666 -0.05607468 -16.91440773 0.25098039 0.27450980 0.65882353
v -0.14406937 -0.05903061 -16.91650391 0.25098039 0.27450980 0.65882353
v -0.14073204 -0.06284751 -16.91432381 0.25098039 0.27450980 0.65882353
v -0.13857098 -0.06034532 -16.91236115 0.25098039 0.27450980 0.65882353
v -0.14691672 -0.05551627 -16.91717339 0.25098039 0.27450980 0.65882353
v -0.14772964 -0.04969764 -16.91630554 0.25098039 0.27450980 0.65882353
v -0.13263232 -0.05946140 -16.91284752 0.25098039 0.27450980 0.65882353
v -0.13450310 -0.06020115 -16.91140366 0.25098039 0.27450980 0.65882353
v -0.13658696 -0.06271760 -16.91183281 0.25098039 0.27450980 0.65882353
v -0.13430755 -0.06414968 -16.91296768 0.25098039 0.27450980 0.65882353
v -0.13970865 -0.04423059 -16.91995430 0.25098039 0.27450980 0.65882353
v -0.13493413 -0.05030602 -16.91701508 0.25098039 0.27450980 0.65882353
v -0.13226464 -0.05551931 -16.91655731 0.25098039 0.27450980 0.65882353
v -0.13166232 -0.05982413 -16.91551781 0.25098039 0.27450980 0.65882353
v -0.13378963 -0.05246383 -16.92041206 0.25098039 0.27450980 0.65882353
v -0.13228673 -0.05660795 -16.91938591 0.25098039 0.27450980 0.65882353
v -0.13202260 -0.06044923 -16.91875648 0.25098039 0.27450980 0.65882353
v -0.13407820 -0.05527259 -16.92382812 0.25098039 0.27450980 0.65882353
v -0.13298024 -0.05855506 -16.92192268 0.25098039 0.27450980 0.65882353
v -0.13962123 -0.04662399 -16.92798233 0.25098039 0.27450980 0.65882353
v -0.13916656 -0.04366405 -16.92475891 0.25098039 0.27450980 0.65882353
v -0.13234371 -0.06070638 -16.92091179 0.25098039 0.27450980 0.65882353
v -0.13377188 -0.06465670 -16.91502953 0.25098039 0.27450980 0.65882353
v -0.14601074 -0.05994790 -16.91955376 0.25098039 0.27450980 0.65882353
v -0.14089863 -0.06416120 -16.91739273 0.25098039 0.27450980 0.65882353
v -0.14576887 -0.06082288 -16.92181396 0.25098039 0.27450980 0.65882353
v -0.14098372 -0.06515352 -16.91957855 0.25098039 0.27450980 0.65882353
v -0.13797542 -0.06640662 -16.91505814 0.25098039 0.27450980 0.65882353
v -0.13846374 -0.06447335 -16.91350174 0.25098039 0.27450980 0.65882353
v -0.14136893 -0.04495650 -16.93009567 0.25098039 0.27450980 0.65882353
v -0.14442526 -0.04961601 -16.93282890 0.25098039 0.27450980 0.65882353
v -0.14295083 -0.05113246 -16.93124199 0.25098039 0.27450980 0.65882353
v -0.13668661 -0.05847305 -16.92645264 0.25098039 0.27450980 0.65882353
v -0.14574806 -0.05456236 -16.93104935 0.25098039 0.27450980 0.65882353
v -0.14835212 -0.05749054 -16.92664909 0.25098039 0.27450980 0.65882353
v -0.14391784 -0.06179072 -16.92391586 0.25098039 0.27450980 0.65882353
v -0.14108679 -0.06128129 -16.92602921 0.25098039 0.27450980 0.65882353
v -0.13996615 -0.06474120 -16.92188454 0.25098039 0.27450980 0.65882353
v -0.13815829 -0.06349665 -16.92328453 0.25098039 0.27450980 0.65882353
v -0.13495247 -0.06123665 -16.92357826 0.25098039 0.27450980 0.65882353
v -0.13657984 -0.06561904 -16.91991615 0.25098039 0.27450980 0.65882353
v -0.13747321 -0.06643783 -16.91719055 0.25098039 0.27450980 0.65882353
v -0.13359872 -0.06399930 -16.91837120 0.25098039 0.27450980 0.65882353
v -0.13627712 -0.06462368 -16.92156410 0.25098039 0.27450980 0.65882353
v -0.13403958 -0.06277245 -16.92070007 0.25098039 0.27450980 0.65882353
v -0.14925180 -0.06223407 -16.94612503 0.25098039 0.27450980 0.65882353
v -0.15142681 -0.06776224 -16.94975090 0.25098039 0.27450980 0.65882353
v -0.15399343 -0.06437729 -16.95059586 0.25098039 0.27450980 0.65882353
v -0.15185876 -0.05992771 -16.94748116 0.25098039 0.27450980 0.65882353
v -0.15881076 -0.05981002 -16.93536186 0.25098039 0.27450980 0.65882353
v -0.15330924 -0.05877663 -16.93836594 0.25098039 0.27450980 0.65882353
v -0.15668926 -0.05514117 -16.93971634 0.25098039 0.27450980 0.65882353
v -0.16319078 -0.05657027 -16.93820381 0.25098039 0.27450980 0.65882353
v -0.16447392 -0.06412171 -16.93689346 0.25098039 0.27450980 0.65882353
v -0.16861838 -0.06070128 -16.94021988 0.25098039 0.27450980 0.65882353
v -0.16514179 -0.05193098 -16.94168854 0.25098039 0.27450980 0.65882353
v -0.15802735 -0.05122388 -16.94334793 0.25098039 0.27450980 0.65882353
v -0.15840340 -0.03894858 -16.96040344 0.25098039 0.27450980 0.65882353
v -0.16575035 -0.03870913 -16.95933533 0.25098039 0.27450980 0.65882353
v -0.15662432 -0.05567939 -16.97210312 0.25098039 0.27450980 0.65882353
v -0.16121784 -0.05717233 -16.97124863 0.25098039 0.27450980 0.65882353
v -0.15010867 -0.05989162 -16.94264412 0.25098039 0.27450980 0.65882353
v -0.15304480 -0.05687884 -16.94367409 0.25098039 0.27450980 0.65882353
v -0.16134870 -0.06836650 -16.95630646 0.25098039 0.27450980 0.65882353
v -0.15584487 -0.06630431 -16.95613289 0.25098039 0.27450980 0.65882353
v -0.15632868 -0.06839855 -16.95291138 0.25098039 0.27450980 0.65882353
v -0.16151145 -0.07083754 -16.95211983 0.25098039 0.27450980 0.65882353
v -0.15166211 -0.04465923 -16.96613312 0.25098039 0.27450980 0.65882353
v -0.15374672 -0.05030240 -16.96996117 0.25098039 0.27450980 0.65882353
v -0.15384252 -0.04155868 -16.96298599 0.25098039 0.27450980 0.65882353
v -0.16792616 -0.06779946 -16.95388222 0.25098039 0.27450980 0.65882353
v -0.17227533 -0.06404344 -16.94964027 0.25098039 0.27450980 0.65882353
v -0.17441218 -0.05122703 -16.96547890 0.25098039 0.27450980 0.65882353
v -0.17032099 -0.05646556 -16.96849251 0.25098039 0.27450980 0.65882353
v -0.15333256 -0.05326972 -16.94629860 0.25098039 0.27450980 0.65882353
v -0.15200691 -0.06210551 -16.95331383 0.25098039 0.27450980 0.65882353
v -0.15065056 -0.05719521 -16.95000839 0.25098039 0.27450980 0.65882353
v -0.17067076 -0.05669557 -16.94486618 0.25098039 0.27450980 0.65882353
v -0.16941950 -0.06768396 -16.94449234 0.25098039 0.27450980 0.65882353
v -0.15583766 -0.08191736 -16.93952560 0.25098039 0.27450980 0.65882353
v -0.16331540 -0.07475498 -16.94560623 0.25098039 0.27450980 0.65882353
v -0.15910913 -0.07457224 -16.94929504 0.25098039 0.27450980 0.65882353
v -0.15224726 -0.08270864 -16.94357300 0.25098039 0.27450980 0.65882353
v -0.16626540 -0.07095712 -16.94892883 0.25098039 0.27450980 0.65882353
v -0.16554214 -0.07108292 -16.94106674 0.25098039 0.27450980 0.65882353
v -0.14099485 -0.07293445 -16.94189644 0.25098039 0.27450980 0.65882353
v -0.14368042 -0.07810959 -16.94537163 0.25098039 0.27450980 0.65882353
v -0.14106010 -0.07006766 -16.93776131 0.25098039 0.27450980 0.65882353
v -0.17214522 -0.04324454 -16.96176910 0.25098039 0.27450980 0.65882353
v -0.14955375 -0.06868230 -16.93066406 0.25098039 0.27450980 0.65882353
v -0.14355528 -0.06827462 -16.93421936 0.25098039 0.27450980 0.65882353
v -0.15476920 -0.07200909 -16.95151138 0.25098039 0.27450980 0.65882353
v -0.14763024 -0.08161990 -16.94577408 0.25098039 0.27450980 0.65882353
v -0.15717794 -0.07922083 -16.93566513 0.25098039 0.27450980 0.65882353
v -0.15586644 -0.07237896 -16.93163109 0.25098039 0.27450980 0.65882353
v -0.15292671 -0.08254391 -16.93352127 0.25098039 0.27450980 0.65882353
v -0.15085581 -0.07699704 -16.92963600 0.25098039 0.27450980 0.65882353
v -0.14490613 -0.07289023 -16.92906952 0.25098039 0.27450980 0.65882353
v -0.14041159 -0.07175148 -16.93320465 0.25098039 0.27450980 0.65882353
v -0.13912803 -0.07270797 -16.93711662 0.25098039 0.27450980 0.65882353
v -0.15175578 -0.08497821 -16.93736649 0.25098039 0.27450980 0.65882353
v -0.14891000 -0.08548203 -16.94149017 0.25098039 0.27450980 0.65882353
v -0.14557435 -0.08274509 -16.94449043 0.25098039 0.27450980 0.65882353
v -0.14606194 -0.08895297 -16.93744850 0.25098039 0.27450980 0.65882353
v -0.14583237 -0.08784874 -16.93288422 0.25098039 0.27450980 0.65882353
v -0.12768698 -0.08530676 -16.92973900 0.25098039 0.27450980 0.65882353
v -0.13227117 -0.08164456 -16.92922211 0.25098039 0.27450980 0.65882353
v -0.13373306 -0.08386172 -16.92845345 0.25098039 0.27450980 0.65882353
v -0.12954466 -0.08730432 -16.92868614 0.25098039 0.27450980 0.65882353
v -0.13797876 -0.07938674 -16.92778587 0.25098039 0.27450980 0.65882353
v -0.13786213 -0.08197753 -16.92793655 0.25098039 0.27450980 0.65882353
v -0.14178239 -0.08456886 -16.92902946 0.25098039 0.27450980 0.65882353
v -0.13680825 -0.08777301 -16.92965126 0.25098039 0.27450980 0.65882353
v -0.13964078 -0.09067540 -16.93262863 0.25098039 0.27450980 0.65882353
v -0.13546516 -0.09430696 -16.93206406 0.25098039 0.27450980 0.65882353
v -0.13248315 -0.09161384 -16.92905235 0.25098039 0.27450980 0.65882353
v -0.14264351 -0.08788876 -16.93125343 0.25098039 0.27450980 0.65882353
v -0.12754396 -0.09021433 -16.92904663 0.25098039 0.27450980 0.65882353
v -0.12559316 -0.09040987 -16.93068504 0.25098039 0.27450980 0.65882353
v -0.14420150 -0.08277492 -16.92826462 0.25098039 0.27450980 0.65882353
v -0.13750169 -0.07458581 -16.93172455 0.25098039 0.27450980 0.65882353
v -0.13057911 -0.08034410 -16.93172455 0.25098039 0.27450980 0.65882353
v -0.12626229 -0.08508956 -16.93281174 0.25098039 0.27450980 0.65882353
v -0.12505639 -0.09115323 -16.93360901 0.25098039 0.27450980 0.65882353
v -0.12971285 -0.08116928 -16.93606567 0.25098039 0.27450980 0.65882353
v -0.12620164 -0.08598801 -16.93602180 0.25098039 0.27450980 0.65882353
v -0.12575668 -0.09105889 -16.93626785 0.25098039 0.27450980 0.65882353
v -0.13028657 -0.08327763 -16.94061089 0.25098039 0.27450980 0.65882353
v -0.12726952 -0.08808155 -16.93968964 0.25098039 0.27450980 0.65882353
v -0.13804898 -0.07616448 -16.94120598 0.25098039 0.27450980 0.65882353
v -0.13683055 -0.07412632 -16.93673325 0.25098039 0.27450980 0.65882353
v -0.12673299 -0.09041704 -16.93842506 0.25098039 0.27450980 0.65882353
v -0.12761888 -0.09488605 -16.93075180 0.25098039 0.27450980 0.65882353
v -0.12664071 -0.09503889 -16.93400383 0.25098039 0.27450980 0.65882353
v -0.12894396 -0.09394290 -16.92983627 0.25098039 0.27450980 0.65882353
v -0.14049155 -0.09176256 -16.93441010 0.25098039 0.27450980 0.65882353
v -0.13530888 -0.09517498 -16.93423462 0.25098039 0.27450980 0.65882353
v -0.14055625 -0.09260555 -16.93721390 0.25098039 0.27450980 0.65882353
v -0.13462925 -0.09597954 -16.93645287 0.25098039 0.27450980 0.65882353
v -0.13123289 -0.09690316 -16.93317604 0.25098039 0.27450980 0.65882353
v -0.13134107 -0.09617643 -16.93166924 0.25098039 0.27450980 0.65882353
v -0.14002024 -0.07505618 -16.94102859 0.25098039 0.27450980 0.65882353
v -0.14274038 -0.07929906 -16.94420624 0.25098039 0.27450980 0.65882353
v -0.14110540 -0.08007292 -16.94451904 0.25098039 0.27450980 0.65882353
v -0.13336343 -0.08705273 -16.94324493 0.25098039 0.27450980 0.65882353
v -0.14417687 -0.08401753 -16.94457436 0.25098039 0.27450980 0.65882353
v -0.14535066 -0.08811955 -16.94107056 0.25098039 0.27450980 0.65882353
v -0.13985506 -0.09224111 -16.94011688 0.25098039 0.27450980 0.65882353
v -0.13693741 -0.09056564 -16.94277763 0.25098039 0.27450980 0.65882353
v -0.13449223 -0.09615378 -16.93873596 0.25098039 0.27450980 0.65882353
v -0.13386294 -0.09376806 -16.94104385 0.25098039 0.27450980 0.65882353
v -0.13000321 -0.09060316 -16.94166946 0.25098039 0.27450980 0.65882353
v -0.13031667 -0.09719227 -16.93720436 0.25098039 0.27450980 0.65882353
v -0.13065484 -0.09737265 -16.93479156 0.25098039 0.27450980 0.65882353
v -0.12689960 -0.09442854 -16.93615341 0.25098039 0.27450980 0.65882353
v -0.13067406 -0.09531087 -16.93949699 0.25098039 0.27450980 0.65882353
v -0.12786032 -0.09292863 -16.93891335 0.25098039 0.27450980 0.65882353
v -0.15498880 -0.07505003 -16.96207237 0.25098039 0.27450980 0.65882353
v -0.15402938 -0.07872416 -16.96712303 0.25098039 0.27450980 0.65882353
v -0.15562910 -0.07671845 -16.96875954 0.25098039 0.27450980 0.65882353
v -0.15664148 -0.07298094 -16.96386909 0.25098039 0.27450980 0.65882353
v -0.16662586 -0.07875741 -16.95701408 0.25098039 0.27450980 0.65882353
v -0.16231799 -0.07621105 -16.95617104 0.25098039 0.27450980 0.65882353
v -0.16464087 -0.07315019 -16.95848083 0.25098039 0.27450980 0.65882353
v -0.16975772 -0.07471265 -16.95986176 0.25098039 0.27450980 0.65882353
v -0.16796057 -0.08385521 -16.95968437 0.25098039 0.27450980 0.65882353
v -0.17254058 -0.07903379 -16.96372223 0.25098039 0.27450980 0.65882353
v -0.17276001 -0.07034154 -16.96285629 0.25098039 0.27450980 0.65882353
v -0.16653261 -0.06961064 -16.96099663 0.25098039 0.27450980 0.65882353
v -0.16872853 -0.05875037 -16.97186661 0.25098039 0.27450980 0.65882353
v -0.17556506 -0.06092772 -16.97341156 0.25098039 0.27450980 0.65882353
v -0.15829447 -0.07486185 -16.95854378 0.25098039 0.27450980 0.65882353
v -0.15996373 -0.07236557 -16.96038628 0.25098039 0.27450980 0.65882353
v -0.15977105 -0.08248691 -16.97651863 0.25098039 0.27450980 0.65882353
v -0.15620212 -0.07912184 -16.97450638 0.25098039 0.27450980 0.65882353
v -0.15694121 -0.08129823 -16.97237015 0.25098039 0.27450980 0.65882353
v -0.16001816 -0.08426932 -16.97373581 0.25098039 0.27450980 0.65882353
v -0.15819855 -0.06011962 -16.97803307 0.25098039 0.27450980 0.65882353
v -0.15876707 -0.06422780 -16.98362541 0.25098039 0.27450980 0.65882353
v -0.16201106 -0.05892820 -16.97365189 0.25098039 0.27450980 0.65882353
v -0.16673683 -0.08379385 -16.97591591 0.25098039 0.27450980 0.65882353
v -0.17365217 -0.08077309 -16.97296906 0.25098039 0.27450980 0.65882353
v -0.17519732 -0.07233588 -16.98488426 0.25098039 0.27450980 0.65882353
v -0.16890126 -0.07346591 -16.98760986 0.25098039 0.27450980 0.65882353
v -0.16107428 -0.06954388 -16.96214867 0.25098039 0.27450980 0.65882353
v -0.15479970 -0.07429717 -16.97071266 0.25098039 0.27450980 0.65882353
v -0.15621945 -0.07059854 -16.96551895 0.25098039 0.27450980 0.65882353
v -0.17520016 -0.07461543 -16.96751022 0.25098039 0.27450980 0.65882353
v -0.17036502 -0.08428903 -16.96867371 0.25098039 0.27450980 0.65882353
v -0.15554155 -0.09872788 -16.96080208 0.25098039 0.27450980 0.65882353
v -0.16396108 -0.08888739 -16.97010231 0.25098039 0.27450980 0.65882353
v -0.15844271 -0.08643374 -16.97200584 0.25098039 0.27450980 0.65882353
v -0.15181275 -0.09740642 -16.96337318 0.25098039 0.27450980 0.65882353
v -0.16533333 -0.08645426 -16.97260284 0.25098039 0.27450980 0.65882353
v -0.16771874 -0.08771713 -16.96542358 0.25098039 0.27450980 0.65882353
v -0.14588012 -0.08548154 -16.95579720 0.25098039 0.27450980 0.65882353
v -0.14598596 -0.08895887 -16.96078110 0.25098039 0.27450980 0.65882353
v -0.14906925 -0.08432420 -16.95255661 0.25098039 0.27450980 0.65882353
v -0.17877425 -0.06625457 -16.97867012 0.25098039 0.27450980 0.65882353
v -0.16204903 -0.07086477 -16.98801994 0.25098039 0.27450980 0.65882353
v -0.15533864 -0.08801031 -16.94896698 0.25098039 0.27450980 0.65882353
v -0.15173939 -0.08521977 -16.95019341 0.25098039 0.27450980 0.65882353
v -0.15553591 -0.08302398 -16.97080612 0.25098039 0.27450980 0.65882353
v -0.14820671 -0.09394448 -16.96382141 0.25098039 0.27450980 0.65882353
v -0.15872352 -0.09707342 -16.95697403 0.25098039 0.27450980 0.65882353
v -0.15936396 -0.09222011 -16.95196342 0.25098039 0.27450980 0.65882353
v -0.15402839 -0.10042489 -16.95520020 0.25098039 0.27450980 0.65882353
v -0.15432532 -0.09613737 -16.95005989 0.25098039 0.27450980 0.65882353
v -0.15067768 -0.09189665 -16.94729996 0.25098039 0.27450980 0.65882353
v -0.14766094 -0.08858342 -16.94889832 0.25098039 0.27450980 0.65882353
v -0.14553109 -0.08726506 -16.95143890 0.25098039 0.27450980 0.65882353
v -0.15122114 -0.10129449 -16.95948792 0.25098039 0.27450980 0.65882353
v -0.14854099 -0.09932224 -16.96192169 0.25098039 0.27450980 0.65882353
v -0.14731482 -0.09451389 -16.96266556 0.25098039 0.27450980 0.65882353
v -0.14724448 -0.10282359 -16.95960045 0.25098039 0.27450980 0.65882353
v -0.14773253 -0.10356554 -16.95386314 0.25098039 0.27450980 0.65882353
v -0.13281898 -0.09986857 -16.94687653 0.25098039 0.27450980 0.65882353
v -0.13790824 -0.09726436 -16.94707298 0.25098039 0.27450980 0.65882353
v -0.13844199 -0.09846519 -16.94732666 0.25098039 0.27450980 0.65882353
v -0.13353774 -0.10143137 -16.94671059 0.25098039 0.27450980 0.65882353
v -0.14453469 -0.09625469 -16.94662094 0.25098039 0.27450980 0.65882353
v -0.14346682 -0.09790497 -16.94708061 0.25098039 0.27450980 0.65882353
v -0.14571865 -0.10068470 -16.94898415 0.25098039 0.27450980 0.65882353
v -0.13998316 -0.10331762 -16.94899368 0.25098039 0.27450980 0.65882353
v -0.14119664 -0.10537285 -16.95481491 0.25098039 0.27450980 0.65882353
v -0.13643405 -0.10676816 -16.95384598 0.25098039 0.27450980 0.65882353
v -0.13512450 -0.10550015 -16.94847107 0.25098039 0.27450980 0.65882353
v -0.14589453 -0.10339472 -16.95291519 0.25098039 0.27450980 0.65882353
v -0.13122678 -0.10351101 -16.94714165 0.25098039 0.27450980 0.65882353
v -0.12972867 -0.10262224 -16.94628334 0.25098039 0.27450980 0.65882353
v -0.14803979 -0.09994510 -16.94878387 0.25098039 0.27450980 0.65882353
v -0.14319649 -0.09133917 -16.94736481 0.25098039 0.27450980 0.65882353
v -0.13643132 -0.09461080 -16.94752121 0.25098039 0.27450980 0.65882353
v -0.13112994 -0.09704790 -16.94744301 0.25098039 0.27450980 0.65882353
v -0.12840974 -0.10023178 -16.94877625 0.25098039 0.27450980 0.65882353
v -0.13508816 -0.09294479 -16.95084190 0.25098039 0.27450980 0.65882353
v -0.13079536 -0.09591368 -16.95043182 0.25098039 0.27450980 0.65882353
v -0.12825605 -0.09885919 -16.95141411 0.25098039 0.27450980 0.65882353
v -0.13457459 -0.09291206 -16.95436668 0.25098039 0.27450980 0.65882353
v -0.13097334 -0.09588215 -16.95385742 0.25098039 0.27450980 0.65882353
v -0.14274168 -0.08847806 -16.95495415 0.25098039 0.27450980 0.65882353
v -0.14264116 -0.08894701 -16.95072746 0.25098039 0.27450980 0.65882353
v -0.12911877 -0.09831880 -16.95356178 0.25098039 0.27450980 0.65882353
v -0.13008264 -0.10659511 -16.94907379 0.25098039 0.27450980 0.65882353
v -0.12818204 -0.10465765 -16.95238686 0.25098039 0.27450980 0.65882353
v -0.13171551 -0.10601532 -16.94897652 0.25098039 0.27450980 0.65882353
v -0.14180331 -0.10560696 -16.95673752 0.25098039 0.27450980 0.65882353
v -0.13570142 -0.10768975 -16.95600128 0.25098039 0.27450980 0.65882353
v -0.14116718 -0.10466132 -16.95956230 0.25098039 0.27450980 0.65882353
v -0.13514566 -0.10669370 -16.95848465 0.25098039 0.27450980 0.65882353
v -0.13231239 -0.10827793 -16.95352554 0.25098039 0.27450980 0.65882353
v -0.13295572 -0.10780114 -16.95266151 0.25098039 0.27450980 0.65882353
v -0.14485338 -0.08764409 -16.95546150 0.25098039 0.27450980 0.65882353
v -0.14541472 -0.09036592 -16.96013260 0.25098039 0.27450980 0.65882353
v -0.14360885 -0.09064862 -16.95964622 0.25098039 0.27450980 0.65882353
v -0.13483365 -0.09497574 -16.95899963 0.25098039 0.27450980 0.65882353
v -0.14534675 -0.09454484 -16.96249008 0.25098039 0.27450980 0.65882353
v -0.14486486 -0.10051359 -16.96182060 0.25098039 0.27450980 0.65882353
v -0.13930380 -0.10214473 -16.96119881 0.25098039 0.27450980 0.65882353
v -0.13670087 -0.09894036 -16.96125031 0.25098039 0.27450980 0.65882353
v -0.13420470 -0.10435914 -16.95993233 0.25098039 0.27450980 0.65882353
v -0.13381553 -0.10144977 -16.95990753 0.25098039 0.27450980 0.65882353
v -0.13125542 -0.09749812 -16.95785141 0.25098039 0.27450980 0.65882353
v -0.13100991 -0.10457912 -16.95724869 0.25098039 0.27450980 0.65882353
v -0.13134569 -0.10710843 -16.95578575 0.25098039 0.27450980 0.65882353
v -0.12820265 -0.10223216 -16.95444679 0.25098039 0.27450980 0.65882353
v -0.13097401 -0.10222058 -16.95811272 0.25098039 0.27450980 0.65882353
v -0.12894243 -0.10031676 -16.95594597 0.25098039 0.27450980 0.65882353
v -0.15975684 -0.06786098 -16.98681641 0.25098039 0.27450980 0.65882353
v -0.15000582 -0.08607244 -16.98877144 0.25098039 0.27450980 0.65882353
v -0.14855944 -0.08826546 -16.99226189 0.25098039 0.27450980 0.65882353
v -0.15065825 -0.08713412 -16.99483871 0.25098039 0.27450980 0.65882353
v -0.15169893 -0.08385417 -16.99195671 0.25098039 0.27450980 0.65882353
v -0.16029403 -0.08997089 -16.98603630 0.25098039 0.27450980 0.65882353
v -0.15668383 -0.08730061 -16.98504257 0.25098039 0.27450980 0.65882353
v -0.15907507 -0.08428997 -16.98782921 0.25098039 0.27450980 0.65882353
v -0.16250405 -0.08676450 -16.98871994 0.25098039 0.27450980 0.65882353
v -0.16123848 -0.09385327 -16.98896980 0.25098039 0.27450980 0.65882353
v -0.16346870 -0.09085822 -16.99179077 0.25098039 0.27450980 0.65882353
v -0.16504478 -0.08416291 -16.99044228 0.25098039 0.27450980 0.65882353
v -0.16104639 -0.08152376 -16.98971176 0.25098039 0.27450980 0.65882353
v -0.16638078 -0.07117370 -16.99756050 0.25098039 0.27450980 0.65882353
v -0.17140271 -0.07315163 -17.00022697 0.25098039 0.27450980 0.65882353
v -0.16172302 -0.08141440 -17.01675606 0.25098039 0.27450980 0.65882353
v -0.15724708 -0.07762881 -17.01601791 0.25098039 0.27450980 0.65882353
v -0.15573211 -0.08305569 -17.00996017 0.25098039 0.27450980 0.65882353
v -0.15998572 -0.08556539 -17.01208878 0.25098039 0.27450980 0.65882353
v -0.15302916 -0.08595784 -16.98624420 0.25098039 0.27450980 0.65882353
v -0.15453532 -0.08278713 -16.98900414 0.25098039 0.27450980 0.65882353
v -0.15552889 -0.09269238 -17.00310898 0.25098039 0.27450980 0.65882353
v -0.15229234 -0.08952275 -17.00099182 0.25098039 0.27450980 0.65882353
v -0.15081063 -0.09020771 -16.99821472 0.25098039 0.27450980 0.65882353
v -0.15297732 -0.09413791 -17.00036240 0.25098039 0.27450980 0.65882353
v -0.15519322 -0.07483794 -17.01103783 0.25098039 0.27450980 0.65882353
v -0.15592791 -0.07283045 -17.00585175 0.25098039 0.27450980 0.65882353
v -0.15451382 -0.07496569 -17.00338173 0.25098039 0.27450980 0.65882353
v -0.15386829 -0.07976902 -17.00571060 0.25098039 0.27450980 0.65882353
v -0.15819024 -0.07251564 -16.99888611 0.25098039 0.27450980 0.65882353
v -0.15953711 -0.09406587 -17.00246811 0.25098039 0.27450980 0.65882353
v -0.16425341 -0.09294589 -16.99896240 0.25098039 0.27450980 0.65882353
v -0.17113310 -0.08460204 -17.01048279 0.25098039 0.27450980 0.65882353
v -0.16591421 -0.08560258 -17.01269722 0.25098039 0.27450980 0.65882353
v -0.15637714 -0.08103867 -16.99002838 0.25098039 0.27450980 0.65882353
v -0.15137297 -0.08599111 -16.99734879 0.25098039 0.27450980 0.65882353
v -0.15241320 -0.08306375 -16.99348831 0.25098039 0.27450980 0.65882353
v -0.16677850 -0.08879782 -16.99378204 0.25098039 0.27450980 0.65882353
v -0.16123720 -0.09479748 -16.99630356 0.25098039 0.27450980 0.65882353
v -0.14954135 -0.10302655 -16.99179077 0.25098039 0.27450980 0.65882353
v -0.15470490 -0.09791532 -16.99774551 0.25098039 0.27450980 0.65882353
v -0.15036432 -0.09541845 -16.99797630 0.25098039 0.27450980 0.65882353
v -0.14692751 -0.10131977 -16.99205589 0.25098039 0.27450980 0.65882353
v -0.15712234 -0.09585677 -16.99978828 0.25098039 0.27450980 0.65882353
v -0.15901968 -0.09766968 -16.99370193 0.25098039 0.27450980 0.65882353
v -0.14542988 -0.09178087 -16.98342133 0.25098039 0.27450980 0.65882353
v -0.14430219 -0.09462476 -16.98806953 0.25098039 0.27450980 0.65882353
v -0.14793554 -0.09160553 -16.98115540 0.25098039 0.27450980 0.65882353
v -0.17390889 -0.07831289 -17.00494003 0.25098039 0.27450980 0.65882353
v -0.15442133 -0.09599242 -16.98037338 0.25098039 0.27450980 0.65882353
v -0.15089369 -0.09314358 -16.97955322 0.25098039 0.27450980 0.65882353
v -0.14860061 -0.09154744 -16.99536896 0.25098039 0.27450980 0.65882353
v -0.14502631 -0.09820253 -16.99091721 0.25098039 0.27450980 0.65882353
v -0.15316910 -0.10320316 -16.98916817 0.25098039 0.27450980 0.65882353
v -0.15618515 -0.10024466 -16.98416710 0.25098039 0.27450980 0.65882353
v -0.14993480 -0.10532540 -16.98629379 0.25098039 0.27450980 0.65882353
v -0.15315543 -0.10209805 -16.98157310 0.25098039 0.27450980 0.65882353
v -0.15088436 -0.09758288 -16.97794914 0.25098039 0.27450980 0.65882353
v -0.14848468 -0.09456414 -16.97834206 0.25098039 0.27450980 0.65882353
v -0.14591491 -0.09303108 -16.97974968 0.25098039 0.27450980 0.65882353
v -0.14656469 -0.10497911 -16.98921394 0.25098039 0.27450980 0.65882353
v -0.14423229 -0.10287689 -16.98996735 0.25098039 0.27450980 0.65882353
v -0.14286911 -0.09927647 -16.98949432 0.25098039 0.27450980 0.65882353
v -0.14345688 -0.10669023 -16.98670769 0.25098039 0.27450980 0.65882353
v -0.14559829 -0.10747960 -16.98240280 0.25098039 0.27450980 0.65882353
v -0.13745689 -0.10247946 -16.97281647 0.25098039 0.27450980 0.65882353
v -0.14085048 -0.10072865 -16.97418594 0.25098039 0.27450980 0.65882353
v -0.14140525 -0.10182491 -16.97428322 0.25098039 0.27450980 0.65882353
v -0.13808179 -0.10326295 -16.97228432 0.25098039 0.27450980 0.65882353
v -0.14595917 -0.10010260 -16.97589493 0.25098039 0.27450980 0.65882353
v -0.14528601 -0.10163321 -16.97592926 0.25098039 0.27450980 0.65882353
v -0.14677507 -0.10399002 -16.97826767 0.25098039 0.27450980 0.65882353
v -0.14254186 -0.10577174 -16.97566223 0.25098039 0.27450980 0.65882353
v -0.14078681 -0.10903695 -16.97977829 0.25098039 0.27450980 0.65882353
v -0.13754252 -0.11004783 -16.97739220 0.25098039 0.27450980 0.65882353
v -0.13951005 -0.10723762 -16.97385406 0.25098039 0.27450980 0.65882353
v -0.14502889 -0.10732698 -16.98039627 0.25098039 0.27450980 0.65882353
v -0.13643575 -0.10521208 -16.97130585 0.25098039 0.27450980 0.65882353
v -0.13528273 -0.10492279 -16.97089767 0.25098039 0.27450980 0.65882353
v -0.14847687 -0.10367377 -16.97876930 0.25098039 0.27450980 0.65882353
v -0.14480099 -0.09609592 -16.97669029 0.25098039 0.27450980 0.65882353
v -0.13905622 -0.09895402 -16.97423172 0.25098039 0.27450980 0.65882353
v -0.13534844 -0.10171729 -16.97252655 0.25098039 0.27450980 0.65882353
v -0.13335742 -0.10469739 -16.97206688 0.25098039 0.27450980 0.65882353
v -0.13800903 -0.09734894 -16.97608376 0.25098039 0.27450980 0.65882353
v -0.13375197 -0.10064174 -16.97390938 0.25098039 0.27450980 0.65882353
v -0.13188383 -0.10370950 -16.97364616 0.25098039 0.27450980 0.65882353
v -0.13644956 -0.09685127 -16.97912598 0.25098039 0.27450980 0.65882353
v -0.13301513 -0.10043401 -16.97640419 0.25098039 0.27450980 0.65882353
v -0.14141423 -0.09386604 -16.98230934 0.25098039 0.27450980 0.65882353
v -0.14299360 -0.09424636 -16.97895241 0.25098039 0.27450980 0.65882353
v -0.13195826 -0.10309319 -16.97530365 0.25098039 0.27450980 0.65882353
v -0.13504821 -0.10853982 -16.97219086 0.25098039 0.27450980 0.65882353
v -0.13269717 -0.10747327 -16.97362137 0.25098039 0.27450980 0.65882353
v -0.13642126 -0.10867368 -16.97234917 0.25098039 0.27450980 0.65882353
v -0.14029858 -0.10935132 -16.98120117 0.25098039 0.27450980 0.65882353
v -0.13633943 -0.11046372 -16.97835159 0.25098039 0.27450980 0.65882353
v -0.13883540 -0.10868426 -16.98333168 0.25098039 0.27450980 0.65882353
v -0.13465998 -0.10956885 -16.97954750 0.25098039 0.27450980 0.65882353
v -0.13461529 -0.11036985 -16.97530174 0.25098039 0.27450980 0.65882353
v -0.13624100 -0.10997866 -16.97488213 0.25098039 0.27450980 0.65882353
v -0.14310883 -0.09309682 -16.98287201 0.25098039 0.27450980 0.65882353
v -0.14258380 -0.09548232 -16.98674011 0.25098039 0.27450980 0.65882353
v -0.14072238 -0.09647310 -16.98601341 0.25098039 0.27450980 0.65882353
v -0.13560212 -0.09888168 -16.98265076 0.25098039 0.27450980 0.65882353
v -0.14098243 -0.10036464 -16.98847389 0.25098039 0.27450980 0.65882353
v -0.14209998 -0.10421272 -16.98834610 0.25098039 0.27450980 0.65882353
v -0.13721928 -0.10649344 -16.98444557 0.25098039 0.27450980 0.65882353
v -0.13576496 -0.10315055 -16.98455620 0.25098039 0.27450980 0.65882353
v -0.13322729 -0.10790469 -16.98011589 0.25098039 0.27450980 0.65882353
v -0.13242447 -0.10491830 -16.98056984 0.25098039 0.27450980 0.65882353
v -0.13224809 -0.10189164 -16.97926521 0.25098039 0.27450980 0.65882353
v -0.13190317 -0.10754450 -16.97673035 0.25098039 0.27450980 0.65882353
v -0.13269193 -0.10912871 -16.97599411 0.25098039 0.27450980 0.65882353
v -0.13170403 -0.10616665 -16.97498894 0.25098039 0.27450980 0.65882353
v -0.13150454 -0.10578817 -16.97754097 0.25098039 0.27450980 0.65882353
v -0.13151988 -0.10447019 -16.97660255 0.25098039 0.27450980 0.65882353
v -0.16558821 -0.08253701 -17.01516342 0.25098039 0.27450980 0.65882353
v -0.09306975 -0.02241099 -16.98415947 0.25098039 0.27450980 0.65882353
v -0.09764776 -0.02658817 -16.98386192 0.25098039 0.27450980 0.65882353
v -0.09224264 -0.04053104 -16.99489975 0.25098039 0.27450980 0.65882353
v -0.09753653 -0.03852098 -16.98905373 0.25098039 0.27450980 0.65882353
v -0.08600894 -0.03859343 -16.99821854 0.25098039 0.27450980 0.65882353
v -0.08065186 -0.02792841 -16.99658012 0.25098039 0.27450980 0.65882353
v -0.08249578 -0.03351858 -16.99925804 0.25098039 0.27450980 0.65882353
v -0.09951043 -0.03334225 -16.98513603 0.25098039 0.27450980 0.65882353
v -0.08756733 -0.02025744 -16.98693466 0.25098039 0.27450980 0.65882353
v -0.08223224 -0.02213217 -16.99219704 0.25098039 0.27450980 0.65882353
v -0.08493382 -0.02388786 -16.98036385 0.25098039 0.27450980 0.65882353
v -0.07888152 -0.02624402 -16.98550797 0.25098039 0.27450980 0.65882353
v -0.07640006 -0.03209671 -16.98955345 0.25098039 0.27450980 0.65882353
v -0.07920849 -0.03793862 -16.99311447 0.25098039 0.27450980 0.65882353
v -0.08277541 -0.04176258 -16.99360275 0.25098039 0.27450980 0.65882353
v -0.09155011 -0.02654682 -16.97901917 0.25098039 0.27450980 0.65882353
v -0.09599425 -0.03091013 -16.97934532 0.25098039 0.27450980 0.65882353
v -0.09767471 -0.03713919 -16.98268127 0.25098039 0.27450980 0.65882353
v -0.09057789 -0.03275650 -16.97376633 0.25098039 0.27450980 0.65882353
v -0.08259588 -0.03746597 -16.96930504 0.25098039 0.27450980 0.65882353
v -0.07055420 -0.05181631 -16.97055817 0.25098039 0.27450980 0.65882353
v -0.07244329 -0.04853847 -16.97595978 0.25098039 0.27450980 0.65882353
v -0.07237719 -0.04670148 -16.97356415 0.25098039 0.27450980 0.65882353
v -0.07003316 -0.04959458 -16.96894646 0.25098039 0.27450980 0.65882353
v -0.07356365 -0.04364904 -16.97800827 0.25098039 0.27450980 0.65882353
v -0.07400061 -0.04367741 -16.97551155 0.25098039 0.27450980 0.65882353
v -0.07685190 -0.04015341 -16.97278595 0.25098039 0.27450980 0.65882353
v -0.07466003 -0.04271154 -16.96884918 0.25098039 0.27450980 0.65882353
v -0.08047909 -0.03939250 -16.96911430 0.25098039 0.27450980 0.65882353
v -0.08031911 -0.04152372 -16.96614265 0.25098039 0.27450980 0.65882353
v -0.07286516 -0.04537357 -16.96477890 0.25098039 0.27450980 0.65882353
v -0.06924531 -0.04984613 -16.96510887 0.25098039 0.27450980 0.65882353
v -0.07154675 -0.04809825 -16.96132660 0.25098039 0.27450980 0.65882353
v -0.07037671 -0.05290006 -16.96538544 0.25098039 0.27450980 0.65882353
v -0.07603458 -0.03812630 -16.97311974 0.25098039 0.27450980 0.65882353
v -0.07558180 -0.04385995 -16.98515892 0.25098039 0.27450980 0.65882353
v -0.07426585 -0.05022287 -16.97901344 0.25098039 0.27450980 0.65882353
v -0.07311308 -0.05421143 -16.97232437 0.25098039 0.27450980 0.65882353
v -0.07280064 -0.05494766 -16.96610069 0.25098039 0.27450980 0.65882353
v -0.07821944 -0.05223944 -16.98030090 0.25098039 0.27450980 0.65882353
v -0.07738623 -0.05509065 -16.97343445 0.25098039 0.27450980 0.65882353
v -0.07757783 -0.05543234 -16.96758652 0.25098039 0.27450980 0.65882353
v -0.08319695 -0.05278705 -16.97945595 0.25098039 0.27450980 0.65882353
v -0.08140008 -0.05467084 -16.97280312 0.25098039 0.27450980 0.65882353
v -0.08740781 -0.04521069 -16.98903847 0.25098039 0.27450980 0.65882353
v -0.08066857 -0.04527134 -16.98940086 0.25098039 0.27450980 0.65882353
v -0.08017272 -0.05479646 -16.96863747 0.25098039 0.27450980 0.65882353
v -0.07240863 -0.05040039 -16.96009636 0.25098039 0.27450980 0.65882353
v -0.07533093 -0.05266418 -16.96088028 0.25098039 0.27450980 0.65882353
v -0.08397022 -0.04093626 -16.96547699 0.25098039 0.27450980 0.65882353
v -0.07834738 -0.04351703 -16.96185493 0.25098039 0.27450980 0.65882353
v -0.08164863 -0.04448381 -16.96148491 0.25098039 0.27450980 0.65882353
v -0.08797520 -0.04092706 -16.96653175 0.25098039 0.27450980 0.65882353
v -0.08433059 -0.04571886 -16.96179199 0.25098039 0.27450980 0.65882353
v -0.07761636 -0.04732721 -16.95904922 0.25098039 0.27450980 0.65882353
v -0.07547446 -0.04567042 -16.96029663 0.25098039 0.27450980 0.65882353
v -0.08909276 -0.04300435 -16.99207115 0.25098039 0.27450980 0.65882353
v -0.09478372 -0.04097740 -16.98807907 0.25098039 0.27450980 0.65882353
v -0.09311624 -0.04267853 -16.98528481 0.25098039 0.27450980 0.65882353
v -0.08894205 -0.05034130 -16.97652054 0.25098039 0.27450980 0.65882353
v -0.09601872 -0.03988029 -16.97992706 0.25098039 0.27450980 0.65882353
v -0.09430301 -0.03558636 -16.97548103 0.25098039 0.27450980 0.65882353
v -0.09074448 -0.04315907 -16.96825409 0.25098039 0.27450980 0.65882353
v -0.09158219 -0.04654359 -16.97199249 0.25098039 0.27450980 0.65882353
v -0.08630984 -0.04815043 -16.96393585 0.25098039 0.27450980 0.65882353
v -0.08662257 -0.05003030 -16.96653366 0.25098039 0.27450980 0.65882353
v -0.08472849 -0.05324003 -16.97008705 0.25098039 0.27450980 0.65882353
v -0.08237408 -0.05103431 -16.96217918 0.25098039 0.27450980 0.65882353
v -0.08032960 -0.04917205 -16.95973015 0.25098039 0.27450980 0.65882353
v -0.07918198 -0.05368819 -16.96345901 0.25098039 0.27450980 0.65882353
v -0.08361000 -0.05163381 -16.96470261 0.25098039 0.27450980 0.65882353
v -0.08167493 -0.05355699 -16.96621513 0.25098039 0.27450980 0.65882353
v -0.15776756 -0.07515170 -17.01961136 0.25098039 0.27450980 0.65882353
v -0.15465145 -0.07144982 -17.01455116 0.25098039 0.27450980 0.65882353
v -0.15428668 -0.07017696 -17.02010345 0.25098039 0.27450980 0.65882353
v -0.15032189 -0.06793414 -17.02712631 0.25098039 0.27450980 0.65882353
v -0.15124209 -0.06726963 -17.03758049 0.25098039 0.27450980 0.65882353
v -0.14779145 -0.06263363 -17.02287674 0.25098039 0.27450980 0.65882353
v -0.15220661 -0.06544465 -17.01570320 0.25098039 0.27450980 0.65882353
v -0.15362686 -0.06760590 -17.00712776 0.25098039 0.27450980 0.65882353
v -0.14261623 -0.05423914 -17.02547455 0.25098039 0.27450980 0.65882353
f 2 3 1
f 1 3 4
f 5 6 8
f 8 6 7
f 9 4 10
f 10 4 3
f 12 13 11
f 11 13 9
f 14 12 16
f 16 12 15
f 18 19 17
f 17 19 20
f 22 23 21
f 21 23 24
f 26 27 25
f 25 27 28
f 30 31 29
f 29 31 32
f 33 34 36
f 36 34 35
f 37 38 40
f 40 38 39
f 41 42 6
f 6 42 43
f 6 43 7
f 7 43 44
f 45 34 46
f 46 34 33
f 48 49 47
f 47 49 50
f 52 53 51
f 51 53 54
f 56 52 55
f 55 52 51
f 58 59 57
f 57 59 60
f 61 62 4
f 4 62 1
f 64 65 63
f 63 65 66
f 68 69 67
f 67 69 70
f 72 73 71
f 71 73 74
f 76 77 75
f 75 77 78
f 53 79 54
f 54 79 80
f 82 83 81
f 81 83 84
f 85 86 52
f 52 86 53
f 57 60 87
f 87 60 88
f 89 90 43
f 43 90 44
f 43 42 89
f 89 42 91
f 40 39 92
f 92 39 93
f 94 70 64
f 64 70 69
f 13 61 9
f 9 61 4
f 25 28 69
f 69 28 95
f 96 25 68
f 68 25 69
f 98 99 97
f 97 99 100
f 101 102 104
f 104 102 103
f 106 30 105
f 105 30 29
f 51 54 107
f 107 54 108
f 54 80 108
f 108 80 109
f 111 112 110
f 110 112 113
f 115 5 114
f 114 5 116
f 115 41 5
f 5 41 6
f 36 35 111
f 111 35 117
f 35 118 117
f 117 118 119
f 34 120 35
f 35 120 118
f 34 45 120
f 120 45 121
f 125 126 124
f 124 126 127
f 128 129 14
f 14 129 130
f 33 131 46
f 46 131 132
f 133 94 63
f 63 94 64
f 134 135 137
f 137 135 136
f 139 140 138
f 138 140 141
f 77 142 78
f 78 142 143
f 144 145 20
f 20 145 146
f 148 149 147
f 147 149 72
f 151 152 150
f 150 152 153
f 82 101 83
f 83 101 104
f 101 82 155
f 155 82 154
f 156 157 58
f 58 157 59
f 158 68 147
f 147 68 67
f 159 146 15
f 15 146 16
f 68 158 96
f 96 158 160
f 129 66 130
f 130 66 65
f 162 163 161
f 161 163 164
f 166 167 165
f 165 167 168
f 170 171 169
f 169 171 172
f 174 171 173
f 173 171 170
f 176 177 175
f 175 177 178
f 180 181 179
f 179 181 24
f 182 183 21
f 21 183 184
f 81 185 82
f 82 185 154
f 186 187 188
f 188 187 144
f 158 71 160
f 160 71 189
f 190 135 157
f 157 135 59
f 169 172 139
f 139 172 140
f 147 72 158
f 158 72 71
f 192 193 191
f 191 193 194
f 167 166 49
f 49 166 195
f 196 190 50
f 50 190 157
f 197 198 200
f 200 198 199
f 21 24 182
f 182 24 181
f 146 159 20
f 20 159 17
f 182 181 81
f 81 181 185
f 201 185 180
f 180 185 181
f 202 203 83
f 83 203 84
f 205 206 204
f 204 206 85
f 207 22 184
f 184 22 21
f 179 24 208
f 208 24 23
f 208 209 179
f 179 209 205
f 209 210 205
f 205 210 206
f 212 206 211
f 211 206 210
f 179 205 180
f 180 205 204
f 213 176 88
f 88 176 214
f 86 85 212
f 212 85 206
f 193 217 218
f 217 219 218
f 218 219 220
f 219 18 220
f 220 18 17
f 19 221 20
f 20 221 144
f 222 223 225
f 225 223 224
f 175 226 176
f 176 226 214
f 227 87 214
f 214 87 88
f 220 17 228
f 228 17 159
f 134 213 60
f 60 213 88
f 138 229 151
f 151 229 152
f 193 192 210
f 210 192 211
f 230 194 218
f 218 194 193
f 231 232 228
f 228 232 230
f 233 234 91
f 91 234 89
f 235 236 93
f 93 236 92
f 230 232 234
f 234 232 237
f 47 238 48
f 48 238 239
f 240 191 235
f 235 191 236
f 5 8 116
f 116 8 241
f 242 243 189
f 189 243 160
f 244 245 98
f 98 245 99
f 156 246 47
f 47 246 238
f 76 247 77
f 77 247 248
f 250 125 249
f 249 125 124
f 252 253 251
f 251 253 254
f 111 110 36
f 36 110 255
f 256 33 255
f 255 33 36
f 257 258 154
f 154 258 155
f 63 169 133
f 133 169 139
f 66 170 63
f 63 170 169
f 173 170 129
f 129 170 66
f 129 128 173
f 173 128 259
f 128 260 259
f 259 260 261
f 213 134 262
f 262 134 137
f 263 264 186
f 186 264 187
f 112 265 113
f 113 265 266
f 11 267 268
f 234 233 230
f 230 233 194
f 153 269 70
f 70 269 67
f 175 178 165
f 165 178 141
f 150 153 94
f 94 153 70
f 271 221 270
f 270 221 207
f 269 153 272
f 272 153 152
f 121 45 109
f 109 45 108
f 47 50 156
f 156 50 157
f 57 273 58
f 58 273 274
f 145 275 260
f 260 275 261
f 276 149 143
f 143 149 78
f 148 269 75
f 75 269 272
f 207 277 270
f 270 277 278
f 195 196 49
f 49 196 50
f 59 135 60
f 60 135 134
f 83 104 202
f 202 104 279
f 149 148 78
f 78 148 75
f 247 278 248
f 248 278 277
f 183 182 84
f 84 182 81
f 48 239 281
f 281 239 282
f 227 223 283
f 283 223 222
f 223 226 224
f 224 226 168
f 281 282 224
f 224 282 225
f 165 168 175
f 175 168 226
f 264 263 138
f 138 263 229
f 14 16 128
f 128 16 260
f 220 228 218
f 218 228 230
f 87 227 284
f 284 227 283
f 260 16 145
f 145 16 146
f 244 98 258
f 258 98 155
f 58 274 156
f 156 274 246
f 107 285 51
f 51 285 55
f 243 286 160
f 160 286 96
f 234 237 89
f 89 237 90
f 46 132 107
f 107 132 285
f 253 252 249
f 249 252 250
f 286 26 96
f 96 26 25
f 106 105 287
f 287 105 288
f 272 152 289
f 289 152 229
f 138 151 139
f 139 151 133
f 183 290 161
f 161 290 162
f 291 292 277
f 277 292 293
f 151 150 133
f 133 150 94
f 262 275 177
f 177 275 187
f 144 187 145
f 145 187 275
f 273 57 284
f 284 57 87
f 174 136 190
f 190 136 135
f 111 117 112
f 112 117 38
f 117 119 38
f 38 119 123
f 112 38 265
f 265 38 37
f 287 288 254
f 254 288 251
f 228 159 231
f 231 159 15
f 223 227 226
f 226 227 214
f 147 67 148
f 148 67 269
f 224 168 281
f 281 168 167
f 199 163 200
f 200 163 162
f 45 46 108
f 108 46 107
f 281 167 48
f 48 167 49
f 161 164 291
f 291 164 292
f 38 123 39
f 293 294 277
f 277 294 248
f 284 283 296
f 296 283 295
f 284 296 273
f 273 296 297
f 274 273 298
f 298 273 297
f 246 274 299
f 299 274 298
f 283 222 295
f 295 222 300
f 222 225 300
f 300 225 301
f 301 225 302
f 302 225 282
f 303 304 300
f 300 304 295
f 306 307 305
f 305 307 308
f 309 310 308
f 308 310 305
f 308 307 312
f 312 307 311
f 313 314 312
f 312 314 315
f 311 316 312
f 312 316 313
f 317 304 311
f 311 304 316
f 315 309 312
f 312 309 308
f 318 319 321
f 321 319 320
f 319 318 309
f 309 318 310
f 311 307 317
f 317 307 306
f 306 297 317
f 317 297 296
f 306 322 297
f 297 322 298
f 305 323 306
f 306 323 322
f 323 305 324
f 324 305 310
f 304 317 295
f 295 317 296
f 318 325 310
f 310 325 324
f 323 324 326
f 326 324 327
f 324 325 327
f 327 325 328
f 326 327 329
f 329 327 330
f 329 331 326
f 326 331 332
f 333 330 328
f 328 330 327
f 323 326 322
f 322 326 332
f 322 332 298
f 298 332 299
f 325 318 334
f 334 318 321
f 313 316 335
f 335 316 304
f 335 336 313
f 313 336 314
f 304 303 335
f 335 303 337
f 336 335 338
f 338 335 337
f 336 339 314
f 314 339 340
f 246 299 238
f 238 299 341
f 239 342 282
f 282 342 302
f 342 239 341
f 341 239 238
f 341 331 342
f 342 331 343
f 331 329 343
f 343 329 344
f 342 343 302
f 302 343 345
f 341 299 331
f 331 299 332
f 346 301 345
f 345 301 302
f 346 303 301
f 301 303 300
f 347 337 346
f 346 337 303
f 347 346 348
f 348 346 345
f 349 347 350
f 350 347 348
f 343 344 345
f 345 344 348
f 344 351 348
f 348 351 350
f 337 347 338
f 338 347 349
f 353 338 352
f 352 338 349
f 352 355 354
f 354 355 356
f 352 349 355
f 355 349 350
f 352 354 353
f 353 354 334
f 353 334 339
f 339 334 321
f 339 336 353
f 353 336 338
f 329 330 344
f 344 330 351
f 356 351 333
f 333 351 330
f 356 355 351
f 351 355 350
f 354 356 328
f 328 356 333
f 328 325 354
f 354 325 334
f 309 315 319
f 319 315 320
f 320 340 321
f 321 340 339
f 320 315 340
f 340 315 314
f 137 136 261
f 261 136 259
f 140 166 141
f 141 166 165
f 172 171 195
f 195 171 196
f 171 174 196
f 196 174 190
f 178 177 264
f 264 177 187
f 172 195 140
f 140 195 166
f 137 261 262
f 262 261 275
f 178 264 141
f 141 264 138
f 262 177 213
f 213 177 176
f 136 174 259
f 259 174 173
f 358 359 357
f 357 359 360
f 362 363 361
f 361 363 364
f 361 364 365
f 365 364 366
f 367 368 370
f 370 368 369
f 76 371 247
f 247 371 372
f 373 374 362
f 362 374 363
f 376 377 375
f 375 377 378
f 289 229 380
f 380 229 379
f 381 379 263
f 263 379 229
f 383 384 382
f 382 384 385
f 386 368 374
f 374 368 363
f 76 289 371
f 371 289 380
f 377 376 359
f 359 376 387
f 388 386 360
f 360 386 374
f 389 383 366
f 366 383 390
f 392 393 391
f 391 393 394
f 383 382 390
f 390 382 395
f 396 365 390
f 390 365 366
f 389 366 367
f 367 366 364
f 357 397 358
f 358 397 398
f 373 399 357
f 357 399 397
f 389 367 400
f 400 367 370
f 382 385 375
f 375 385 372
f 357 360 373
f 373 360 374
f 361 401 362
f 362 401 402
f 387 388 359
f 359 388 360
f 363 368 364
f 364 368 367
f 358 398 403
f 403 398 404
f 396 392 405
f 405 392 391
f 392 395 393
f 393 395 378
f 393 403 394
f 394 403 404
f 375 378 382
f 382 378 395
f 365 396 406
f 406 396 405
f 362 402 373
f 373 402 399
f 271 270 400
f 400 270 384
f 401 361 406
f 406 361 365
f 381 369 386
f 386 369 368
f 392 396 395
f 395 396 390
f 393 378 403
f 403 378 377
f 403 377 358
f 358 377 359
f 406 405 408
f 408 405 407
f 406 408 401
f 401 408 409
f 401 409 402
f 402 409 410
f 402 410 399
f 399 410 411
f 405 391 407
f 407 391 412
f 391 394 412
f 412 394 413
f 394 404 413
f 413 404 414
f 415 416 412
f 412 416 407
f 418 419 417
f 417 419 420
f 421 422 418
f 418 422 419
f 419 422 424
f 424 422 423
f 425 426 424
f 424 426 427
f 423 428 424
f 424 428 425
f 427 420 424
f 424 420 419
f 420 429 417
f 417 429 430
f 423 422 431
f 431 422 421
f 421 409 431
f 431 409 408
f 421 432 409
f 409 432 410
f 418 433 421
f 421 433 432
f 434 433 417
f 417 433 418
f 431 416 423
f 423 416 428
f 416 431 407
f 407 431 408
f 435 434 430
f 430 434 417
f 433 434 436
f 436 434 437
f 434 435 437
f 437 435 438
f 436 437 439
f 439 437 440
f 439 441 436
f 436 441 442
f 438 443 437
f 437 443 440
f 436 442 433
f 433 442 432
f 432 442 410
f 410 442 411
f 435 430 445
f 445 430 444
f 430 429 444
f 444 429 446
f 425 428 447
f 447 428 416
f 426 425 448
f 448 425 447
f 416 415 447
f 447 415 449
f 447 449 448
f 448 449 450
f 451 452 448
f 448 452 426
f 446 452 444
f 444 452 451
f 399 411 397
f 397 411 453
f 398 454 404
f 404 454 414
f 454 398 453
f 453 398 397
f 453 441 454
f 454 441 455
f 441 439 455
f 455 439 456
f 454 455 414
f 414 455 457
f 441 453 442
f 442 453 411
f 458 413 457
f 457 413 414
f 458 415 413
f 413 415 412
f 458 459 415
f 415 459 449
f 459 458 460
f 460 458 457
f 461 459 462
f 462 459 460
f 455 456 457
f 457 456 460
f 456 463 460
f 460 463 462
f 459 461 449
f 449 461 450
f 465 450 464
f 464 450 461
f 464 467 466
f 466 467 468
f 464 461 467
f 467 461 462
f 464 466 465
f 465 466 445
f 465 445 451
f 451 445 444
f 451 448 465
f 465 448 450
f 439 440 456
f 456 440 463
f 468 463 443
f 443 463 440
f 468 467 463
f 463 467 462
f 466 468 438
f 438 468 443
f 438 435 466
f 466 435 445
f 420 427 429
f 429 427 446
f 446 427 452
f 452 427 426
f 370 369 188
f 188 369 186
f 371 376 372
f 372 376 375
f 380 379 387
f 387 379 388
f 379 381 388
f 388 381 386
f 385 384 278
f 278 384 270
f 380 387 371
f 371 387 376
f 400 370 271
f 271 370 188
f 385 278 372
f 372 278 247
f 400 384 389
f 389 384 383
f 369 381 186
f 186 381 263
f 221 271 144
f 144 271 188
f 221 19 207
f 207 19 22
f 19 18 22
f 22 18 23
f 18 219 23
f 23 219 208
f 469 470 472
f 472 470 471
f 474 475 473
f 473 475 476
f 473 476 477
f 477 476 478
f 480 481 479
f 479 481 482
f 483 484 474
f 474 484 475
f 486 487 485
f 485 487 488
f 489 490 77
f 77 490 142
f 491 489 248
f 248 489 77
f 493 494 492
f 492 494 495
f 496 480 484
f 484 480 475
f 486 497 487
f 487 497 471
f 498 496 472
f 472 496 484
f 499 493 478
f 478 493 500
f 501 502 504
f 504 502 503
f 493 492 500
f 500 492 505
f 506 477 500
f 500 477 478
f 499 478 479
f 479 478 476
f 469 507 470
f 470 507 508
f 483 509 469
f 469 509 507
f 479 482 499
f 499 482 510
f 492 495 485
f 485 495 511
f 483 469 484
f 484 469 472
f 473 512 474
f 474 512 513
f 497 498 471
f 471 498 472
f 475 480 476
f 476 480 479
f 470 508 514
f 514 508 515
f 506 502 516
f 516 502 501
f 503 502 488
f 488 502 505
f 514 515 503
f 503 515 504
f 485 488 492
f 492 488 505
f 477 506 517
f 517 506 516
f 474 513 483
f 483 513 509
f 510 292 494
f 494 292 164
f 512 473 517
f 517 473 477
f 491 481 496
f 496 481 480
f 502 506 505
f 505 506 500
f 503 488 514
f 514 488 487
f 514 487 470
f 470 487 471
f 517 516 519
f 519 516 518
f 517 519 512
f 512 519 520
f 512 520 513
f 513 520 521
f 513 521 509
f 509 521 522
f 516 501 518
f 518 501 523
f 501 504 523
f 523 504 524
f 524 504 525
f 525 504 515
f 526 527 523
f 523 527 518
f 529 530 528
f 528 530 531
f 532 533 529
f 529 533 530
f 530 533 535
f 535 533 534
f 536 537 535
f 535 537 538
f 534 539 535
f 535 539 536
f 538 531 535
f 535 531 530
f 540 541 531
f 531 541 528
f 533 532 534
f 534 532 542
f 532 520 542
f 542 520 519
f 532 543 520
f 520 543 521
f 529 544 532
f 532 544 543
f 544 529 545
f 545 529 528
f 534 542 539
f 539 542 527
f 527 542 518
f 518 542 519
f 541 546 528
f 528 546 545
f 547 544 548
f 548 544 545
f 546 549 545
f 545 549 548
f 550 547 551
f 551 547 548
f 547 550 553
f 553 550 552
f 549 554 548
f 548 554 551
f 544 547 543
f 543 547 553
f 543 553 521
f 521 553 522
f 546 541 556
f 556 541 555
f 541 540 555
f 555 540 557
f 536 539 558
f 558 539 527
f 537 536 559
f 559 536 558
f 527 526 558
f 558 526 560
f 559 558 561
f 561 558 560
f 559 562 537
f 537 562 563
f 557 563 555
f 555 563 562
f 509 522 507
f 507 522 564
f 508 565 515
f 515 565 525
f 565 508 564
f 564 508 507
f 564 552 565
f 565 552 566
f 552 550 566
f 566 550 567
f 565 566 525
f 525 566 568
f 564 522 552
f 552 522 553
f 569 524 568
f 568 524 525
f 569 526 524
f 524 526 523
f 570 560 569
f 569 560 526
f 570 569 571
f 571 569 568
f 572 570 573
f 573 570 571
f 566 567 568
f 568 567 571
f 567 574 571
f 571 574 573
f 570 572 560
f 560 572 561
f 576 561 575
f 575 561 572
f 575 578 577
f 577 578 579
f 575 572 578
f 578 572 573
f 575 577 576
f 576 577 556
f 576 556 562
f 562 556 555
f 562 559 576
f 576 559 561
f 550 551 567
f 567 551 574
f 579 574 554
f 554 574 551
f 579 578 574
f 574 578 573
f 579 554 577
f 577 554 549
f 549 546 577
f 577 546 556
f 531 538 540
f 540 538 557
f 557 538 563
f 563 538 537
f 481 294 482
f 482 294 293
f 580 486 511
f 511 486 485
f 490 489 497
f 497 489 498
f 489 491 498
f 498 491 496
f 163 495 164
f 164 495 494
f 580 490 486
f 486 490 497
f 482 293 510
f 510 293 292
f 495 163 511
f 511 163 199
f 494 493 510
f 510 493 499
f 481 491 294
f 294 491 248
f 582 583 581
f 581 583 584
f 586 587 585
f 585 587 588
f 585 588 589
f 589 588 590
f 592 593 591
f 591 593 594
f 595 596 598
f 598 596 597
f 599 600 586
f 586 600 587
f 601 602 604
f 604 602 603
f 605 606 608
f 608 606 607
f 609 607 200
f 200 607 606
f 610 611 613
f 613 611 612
f 600 614 587
f 587 614 592
f 596 605 597
f 597 605 608
f 602 615 603
f 603 615 583
f 616 614 584
f 584 614 600
f 611 618 617
f 617 618 590
f 620 621 619
f 619 621 622
f 610 623 611
f 611 623 618
f 624 589 618
f 618 589 590
f 617 590 591
f 591 590 588
f 581 625 582
f 582 625 626
f 599 627 581
f 581 627 625
f 591 594 617
f 617 594 628
f 601 610 598
f 598 610 613
f 581 584 599
f 599 584 600
f 585 629 586
f 586 629 630
f 615 616 583
f 583 616 584
f 587 592 588
f 588 592 591
f 582 626 631
f 631 626 632
f 624 620 633
f 633 620 619
f 621 620 604
f 604 620 623
f 631 632 621
f 621 632 622
f 610 601 623
f 623 601 604
f 589 624 634
f 634 624 633
f 586 630 599
f 599 630 627
f 203 202 628
f 628 202 612
f 629 585 634
f 634 585 589
f 609 593 614
f 614 593 592
f 620 624 623
f 623 624 618
f 631 621 603
f 603 621 604
f 582 631 583
f 583 631 603
f 634 633 636
f 636 633 635
f 634 636 629
f 629 636 637
f 629 637 630
f 630 637 638
f 630 638 627
f 627 638 639
f 633 619 635
f 635 619 640
f 619 622 640
f 640 622 641
f 641 622 642
f 642 622 632
f 644 635 643
f 643 635 640
f 645 646 648
f 648 646 647
f 649 650 646
f 646 650 647
f 647 650 652
f 652 650 651
f 652 653 655
f 655 653 654
f 651 656 652
f 652 656 653
f 655 648 652
f 652 648 647
f 648 657 645
f 645 657 658
f 650 649 651
f 651 649 659
f 649 637 659
f 659 637 636
f 649 660 637
f 637 660 638
f 661 660 646
f 646 660 649
f 662 661 645
f 645 661 646
f 651 659 656
f 656 659 644
f 644 659 635
f 635 659 636
f 663 662 658
f 658 662 645
f 664 661 665
f 665 661 662
f 663 666 662
f 662 666 665
f 667 664 668
f 668 664 665
f 664 667 670
f 670 667 669
f 666 671 665
f 665 671 668
f 661 664 660
f 660 664 670
f 660 670 638
f 638 670 639
f 658 672 663
f 663 672 673
f 658 657 672
f 672 657 674
f 653 656 675
f 675 656 644
f 653 675 654
f 654 675 676
f 675 644 677
f 677 644 643
f 676 675 678
f 678 675 677
f 679 680 676
f 676 680 654
f 674 680 672
f 672 680 679
f 627 639 625
f 625 639 681
f 626 682 632
f 632 682 642
f 681 682 625
f 625 682 626
f 669 683 681
f 681 683 682
f 667 684 669
f 669 684 683
f 682 683 642
f 642 683 685
f 681 639 669
f 669 639 670
f 686 641 685
f 685 641 642
f 641 686 640
f 640 686 643
f 686 687 643
f 643 687 677
f 687 686 688
f 688 686 685
f 689 687 690
f 690 687 688
f 683 684 685
f 685 684 688
f 684 691 688
f 688 691 690
f 687 689 677
f 677 689 678
f 693 678 692
f 692 678 689
f 692 695 694
f 694 695 696
f 692 689 695
f 695 689 690
f 692 694 693
f 693 694 673
f 693 673 679
f 679 673 672
f 679 676 693
f 693 676 678
f 684 667 691
f 691 667 668
f 696 691 671
f 671 691 668
f 696 695 691
f 691 695 690
f 694 696 666
f 666 696 671
f 666 663 694
f 694 663 673
f 648 655 657
f 657 655 674
f 674 655 680
f 680 655 654
f 593 162 594
f 594 162 290
f 598 597 601
f 601 597 602
f 615 608 616
f 616 608 607
f 607 609 616
f 616 609 614
f 697 595 613
f 613 595 598
f 597 608 602
f 602 608 615
f 594 290 628
f 628 290 203
f 628 612 617
f 617 612 611
f 593 609 162
f 162 609 200
f 105 29 698
f 698 29 699
f 268 126 701
f 701 126 700
f 126 125 700
f 700 125 702
f 252 703 250
f 250 703 704
f 32 268 705
f 705 268 701
f 288 105 706
f 706 105 698
f 29 32 699
f 699 32 705
f 707 251 706
f 706 251 288
f 250 704 125
f 125 704 702
f 703 252 707
f 707 252 251
f 706 708 707
f 707 708 709
f 707 709 703
f 703 709 710
f 703 710 704
f 704 710 711
f 704 711 702
f 702 711 712
f 706 698 708
f 708 698 713
f 698 699 713
f 713 699 714
f 699 705 714
f 714 705 715
f 717 708 716
f 716 708 713
f 719 720 718
f 718 720 721
f 722 723 719
f 719 723 720
f 724 725 723
f 723 725 720
f 724 726 725
f 725 726 727
f 728 721 725
f 725 721 720
f 721 728 729
f 729 728 730
f 729 731 721
f 721 731 718
f 724 723 732
f 732 723 722
f 722 710 732
f 732 710 709
f 722 733 710
f 710 733 711
f 719 734 722
f 722 734 733
f 734 719 735
f 735 719 718
f 724 732 726
f 726 732 717
f 717 732 708
f 708 732 709
f 731 736 718
f 718 736 735
f 737 734 738
f 738 734 735
f 736 739 735
f 735 739 738
f 740 737 741
f 741 737 738
f 737 740 743
f 743 740 742
f 739 744 738
f 738 744 741
f 734 737 733
f 733 737 743
f 733 743 711
f 711 743 712
f 736 731 746
f 746 731 745
f 731 729 745
f 745 729 730
f 727 726 747
f 747 726 717
f 748 727 749
f 749 727 747
f 747 717 750
f 750 717 716
f 749 747 751
f 751 747 750
f 749 752 748
f 748 752 753
f 730 753 745
f 745 753 752
f 728 725 748
f 748 725 727
f 730 728 753
f 753 728 748
f 700 702 754
f 754 702 712
f 705 701 715
f 715 701 755
f 754 755 700
f 700 755 701
f 742 756 754
f 754 756 755
f 740 757 742
f 742 757 756
f 755 756 715
f 715 756 758
f 754 712 742
f 742 712 743
f 759 714 758
f 758 714 715
f 714 759 713
f 713 759 716
f 759 760 716
f 716 760 750
f 760 759 761
f 761 759 758
f 762 760 763
f 763 760 761
f 756 757 758
f 758 757 761
f 757 764 761
f 761 764 763
f 760 762 750
f 750 762 751
f 766 751 765
f 765 751 762
f 767 765 769
f 769 765 768
f 765 762 768
f 768 762 763
f 765 767 766
f 766 767 746
f 766 746 752
f 752 746 745
f 752 749 766
f 766 749 751
f 757 740 764
f 764 740 741
f 769 764 744
f 744 764 741
f 769 768 764
f 764 768 763
f 767 769 739
f 739 769 744
f 739 736 767
f 767 736 746
f 219 217 208
f 208 217 209
f 209 217 210
f 210 217 193
f 198 580 199
f 199 580 511
f 76 75 289
f 289 75 272
f 277 207 291
f 291 207 184
f 290 183 203
f 203 183 84
f 490 580 142
f 142 580 198
f 142 198 143
f 143 198 197
f 149 276 72
f 72 276 73
f 104 103 279
f 279 103 770
f 770 596 279
f 279 596 595
f 605 596 771
f 771 596 770
f 771 770 772
f 772 770 103
f 772 103 773
f 773 103 102
f 155 774 101
f 101 774 102
f 773 102 97
f 97 102 774
f 775 773 100
f 100 773 97
f 773 775 772
f 772 775 776
f 772 776 771
f 771 776 777
f 200 606 197
f 197 606 777
f 189 71 778
f 778 71 74
f 97 774 98
f 98 774 155
f 183 161 184
f 184 161 291
f 777 276 197
f 197 276 143
f 777 606 771
f 771 606 605
f 613 612 697
f 697 612 202
f 595 697 279
f 279 697 202
f 73 276 776
f 776 276 777
f 776 775 73
f 73 775 74
f 100 778 775
f 775 778 74
f 778 100 189
f 189 100 99
f 245 242 99
f 99 242 189
f 131 33 256
f 28 1 95
f 95 1 62
f 27 2 28
f 28 2 1
f 265 115 266
f 266 115 114
f 95 62 69
f 69 62 64
f 62 61 64
f 64 61 65
f 61 13 65
f 65 13 130
f 13 12 130
f 130 12 14
f 31 11 32
f 32 11 268
f 15 12 31
f 31 12 11
f 31 30 15
f 15 30 231
f 30 106 231
f 231 106 232
f 287 237 106
f 106 237 232
f 254 90 287
f 287 90 237
f 253 44 254
f 254 44 90
f 253 249 44
f 44 249 7
f 267 127 268
f 268 127 126
f 10 3 241
f 241 3 116
f 3 2 116
f 116 2 114
f 2 27 114
f 114 27 266
f 27 26 266
f 266 26 113
f 26 286 113
f 113 286 110
f 286 243 110
f 110 243 255
f 243 242 255
f 255 242 256
f 242 245 256
f 256 245 131
f 245 244 131
f 131 244 132
f 265 37 115
f 115 37 41
f 41 37 42
f 42 37 40
f 92 91 40
f 40 91 42
f 236 233 92
f 92 233 91
f 191 194 236
f 236 194 233
f 258 285 244
f 244 285 132
f 257 55 258
f 258 55 285
f 257 154 201
f 201 154 185
f 56 201 204
f 204 201 180
f 55 257 56
f 56 257 201
f 204 85 56
f 56 85 52
f 86 122 53
f 53 122 79
f 212 215 86
f 86 215 122
f 211 216 212
f 212 216 215
f 192 280 211
f 211 280 216
f 191 240 192
f 192 240 280
f 249 124 7
f 7 124 8
f 124 127 8
f 8 127 241
f 127 267 241
f 241 267 10
f 10 267 9
f 9 267 11
f 93 39 235
f 235 39 240
f 39 123 240
f 240 123 280
f 123 119 280
f 280 119 216
f 119 118 216
f 216 118 215
f 118 120 215
f 215 120 122
f 120 121 122
f 122 121 79
f 121 109 79
f 79 109 80

