# https://github.com/mikedh/trimesh
v -0.11299536 0.19632477 -13.51369762 0.25098039 0.27450980 0.65882353
v -0.12107415 0.19999203 -13.51915550 0.25098039 0.27450980 0.65882353
v -0.11432880 0.19589835 -13.52796173 0.25098039 0.27450980 0.65882353
v -0.10573845 0.19227323 -13.52029610 0.25098039 0.27450980 0.65882353
v -0.13176534 0.20839719 -13.53861904 0.25098039 0.27450980 0.65882353
v -0.13063729 0.21953495 -13.54467869 0.25098039 0.27450980 0.65882353
v -0.12017769 0.21006033 -13.55197716 0.25098039 0.27450980 0.65882353
v -0.12342280 0.20218831 -13.54662514 0.25098039 0.27450980 0.65882353
v -0.09915361 0.19112265 -13.52501965 0.25098039 0.27450980 0.65882353
v -0.10905860 0.19207972 -13.53418350 0.25098039 0.27450980 0.65882353
v -0.09553646 0.19560945 -13.52809048 0.25098039 0.27450980 0.65882353
v -0.08514705 0.19800045 -13.51436043 0.25098039 0.27450980 0.65882353
v -0.09037203 0.19317114 -13.51503372 0.25098039 0.27450980 0.65882353
v -0.08007382 0.19645055 -13.50574780 0.25098039 0.27450980 0.65882353
v -0.08571035 0.20797978 -13.51062298 0.25098039 0.27450980 0.65882353
v -0.08105518 0.20060721 -13.49689293 0.25098039 0.27450980 0.65882353
v -0.10402666 0.21269566 -13.48335838 0.25098039 0.27450980 0.65882353
v -0.11512208 0.21065098 -13.47651672 0.25098039 0.27450980 0.65882353
v -0.10671097 0.19892436 -13.47088528 0.25098039 0.27450980 0.65882353
v -0.09634322 0.20184128 -13.47897339 0.25098039 0.27450980 0.65882353
v -0.12632003 0.19626708 -13.46758556 0.25098039 0.27450980 0.65882353
v -0.11508954 0.19716011 -13.46872902 0.25098039 0.27450980 0.65882353
v -0.12324329 0.20972067 -13.47365665 0.25098039 0.27450980 0.65882353
v -0.13305831 0.20846842 -13.47225285 0.25098039 0.27450980 0.65882353
v -0.12731144 0.20001867 -13.50507355 0.25098039 0.27450980 0.65882353
v -0.13536173 0.20478648 -13.50894737 0.25098039 0.27450980 0.65882353
v -0.12976849 0.20386586 -13.51091957 0.25098039 0.27450980 0.65882353
v -0.12226161 0.19997349 -13.50776672 0.25098039 0.27450980 0.65882353
v -0.09361647 0.20159182 -13.54162216 0.25098039 0.27450980 0.65882353
v -0.09304900 0.21105886 -13.53139305 0.25098039 0.27450980 0.65882353
v -0.09187551 0.20368356 -13.52840614 0.25098039 0.27450980 0.65882353
v -0.09639668 0.19694003 -13.54106426 0.25098039 0.27450980 0.65882353
v -0.15997721 0.21649577 -13.51692772 0.25098039 0.27450980 0.65882353
v -0.16415891 0.22971264 -13.51783466 0.25098039 0.27450980 0.65882353
v -0.15934524 0.23166537 -13.52041245 0.25098039 0.27450980 0.65882353
v -0.15671882 0.21920700 -13.51857567 0.25098039 0.27450980 0.65882353
v -0.14300835 0.23001063 -13.53426933 0.25098039 0.27450980 0.65882353
v -0.14647603 0.23821536 -13.53029251 0.25098039 0.27450980 0.65882353
v -0.13899302 0.25041854 -13.53071880 0.25098039 0.27450980 0.65882353
v -0.13308430 0.24367441 -13.53355217 0.25098039 0.27450980 0.65882353
v -0.13714105 0.22367589 -13.53944874 0.25098039 0.27450980 0.65882353
v -0.12962933 0.23524371 -13.54002094 0.25098039 0.27450980 0.65882353
v -0.12393223 0.22907780 -13.54553127 0.25098039 0.27450980 0.65882353
v -0.11462896 0.21739224 -13.55349541 0.25098039 0.27450980 0.65882353
v -0.17306042 0.22704557 -13.50921440 0.25098039 0.27450980 0.65882353
v -0.17200810 0.21722245 -13.50739479 0.25098039 0.27450980 0.65882353
v -0.05524239 0.15685263 -13.49641895 0.25098039 0.27450980 0.65882353
v -0.05927402 0.15359910 -13.49382877 0.25098039 0.27450980 0.65882353
v -0.06125109 0.15713553 -13.49379444 0.25098039 0.27450980 0.65882353
v -0.05697647 0.15987791 -13.49602509 0.25098039 0.27450980 0.65882353
v -0.17287636 0.22645083 -13.48924255 0.25098039 0.27450980 0.65882353
v -0.16757983 0.23152384 -13.48215580 0.25098039 0.27450980 0.65882353
v -0.17223085 0.23560885 -13.48486042 0.25098039 0.27450980 0.65882353
v -0.17574704 0.23214409 -13.49251270 0.25098039 0.27450980 0.65882353
v -0.16866712 0.21891256 -13.48465729 0.25098039 0.27450980 0.65882353
v -0.16103159 0.22539729 -13.47887421 0.25098039 0.27450980 0.65882353
v -0.04600342 0.15815338 -13.48819923 0.25098039 0.27450980 0.65882353
v -0.04748830 0.15853710 -13.49302101 0.25098039 0.27450980 0.65882353
v -0.04897924 0.16290349 -13.49128628 0.25098039 0.27450980 0.65882353
v -0.04811029 0.16295621 -13.48601913 0.25098039 0.27450980 0.65882353
v -0.09752396 0.19124696 -13.51341534 0.25098039 0.27450980 0.65882353
v -0.10613438 0.19147742 -13.50965405 0.25098039 0.27450980 0.65882353
v -0.08611186 0.17941639 -13.50295448 0.25098039 0.27450980 0.65882353
v -0.09471034 0.18482798 -13.50446129 0.25098039 0.27450980 0.65882353
v -0.08971781 0.18850204 -13.50827694 0.25098039 0.27450980 0.65882353
v -0.08261041 0.18483731 -13.50551987 0.25098039 0.27450980 0.65882353
v -0.11559996 0.18337658 -13.49386215 0.25098039 0.27450980 0.65882353
v -0.12261189 0.19181068 -13.49849796 0.25098039 0.27450980 0.65882353
v -0.11644891 0.19262040 -13.50077915 0.25098039 0.27450980 0.65882353
v -0.10781169 0.18304348 -13.49730015 0.25098039 0.27450980 0.65882353
v -0.13508222 0.18736753 -13.49425220 0.25098039 0.27450980 0.65882353
v -0.12720729 0.17969327 -13.48998547 0.25098039 0.27450980 0.65882353
v -0.13543577 0.17816290 -13.48827553 0.25098039 0.27450980 0.65882353
v -0.13994256 0.18340585 -13.49221325 0.25098039 0.27450980 0.65882353
v -0.11038144 0.16747591 -13.48233223 0.25098039 0.27450980 0.65882353
v -0.10401630 0.16399163 -13.47683239 0.25098039 0.27450980 0.65882353
v -0.10624743 0.16297506 -13.47476292 0.25098039 0.27450980 0.65882353
v -0.11333439 0.16702013 -13.48093128 0.25098039 0.27450980 0.65882353
v -0.17597204 0.24060297 -13.48644257 0.25098039 0.27450980 0.65882353
v -0.17723066 0.23807642 -13.49525356 0.25098039 0.27450980 0.65882353
v -0.14598477 0.19137594 -13.46658707 0.25098039 0.27450980 0.65882353
v -0.15558721 0.18921921 -13.47141743 0.25098039 0.27450980 0.65882353
v -0.15117164 0.17821020 -13.46663666 0.25098039 0.27450980 0.65882353
v -0.14275466 0.18340424 -13.46299267 0.25098039 0.27450980 0.65882353
v -0.15871343 0.23585498 -13.47930431 0.25098039 0.27450980 0.65882353
v -0.16448885 0.23991290 -13.48022079 0.25098039 0.27450980 0.65882353
v -0.04741827 0.15595841 -13.48281765 0.25098039 0.27450980 0.65882353
v -0.04938468 0.16063985 -13.48063087 0.25098039 0.27450980 0.65882353
v -0.11577642 0.23591661 -13.53743839 0.25098039 0.27450980 0.65882353
v -0.10707006 0.22215375 -13.54907322 0.25098039 0.27450980 0.65882353
v -0.12298526 0.24483567 -13.52999496 0.25098039 0.27450980 0.65882353
v -0.12760922 0.25112897 -13.52486134 0.25098039 0.27450980 0.65882353
v -0.13191724 0.25721827 -13.52325916 0.25098039 0.27450980 0.65882353
v -0.09663454 0.17977770 -13.49979401 0.25098039 0.27450980 0.65882353
v -0.11433299 0.19475740 -13.50609398 0.25098039 0.27450980 0.65882353
v -0.13190484 0.19887221 -13.50280285 0.25098039 0.27450980 0.65882353
v -0.15761581 0.18627650 -13.49243164 0.25098039 0.27450980 0.65882353
v -0.16376297 0.19426270 -13.49671268 0.25098039 0.27450980 0.65882353
v -0.15347363 0.19360209 -13.50063324 0.25098039 0.27450980 0.65882353
v -0.15018195 0.18687588 -13.49555492 0.25098039 0.27450980 0.65882353
v -0.15923905 0.18340760 -13.47737980 0.25098039 0.27450980 0.65882353
v -0.15605405 0.17951791 -13.48319340 0.25098039 0.27450980 0.65882353
v -0.15115564 0.17236905 -13.47994137 0.25098039 0.27450980 0.65882353
v -0.15404445 0.17513871 -13.47377968 0.25098039 0.27450980 0.65882353
v -0.09228255 0.20623435 -13.54679298 0.25098039 0.27450980 0.65882353
v -0.09427318 0.21682791 -13.53464413 0.25098039 0.27450980 0.65882353
v -0.17509879 0.22198126 -13.49825001 0.25098039 0.27450980 0.65882353
v -0.17593621 0.22860168 -13.50200462 0.25098039 0.27450980 0.65882353
v -0.17703016 0.23716304 -13.50246239 0.25098039 0.27450980 0.65882353
v -0.14735386 0.21030182 -13.51373196 0.25098039 0.27450980 0.65882353
v -0.15460213 0.22098705 -13.51979256 0.25098039 0.27450980 0.65882353
v -0.15169242 0.22083527 -13.52220917 0.25098039 0.27450980 0.65882353
v -0.14456698 0.21011221 -13.51434517 0.25098039 0.27450980 0.65882353
v -0.13165486 0.20404062 -13.52440453 0.25098039 0.27450980 0.65882353
v -0.14009316 0.21343255 -13.53015518 0.25098039 0.27450980 0.65882353
v -0.12517366 0.19917153 -13.53361511 0.25098039 0.27450980 0.65882353
v -0.15419915 0.23553315 -13.52465153 0.25098039 0.27450980 0.65882353
v -0.16295078 0.24112323 -13.52238560 0.25098039 0.27450980 0.65882353
v -0.15607154 0.24470010 -13.52626514 0.25098039 0.27450980 0.65882353
v -0.16988413 0.23885038 -13.51624298 0.25098039 0.27450980 0.65882353
v -0.17455932 0.23713562 -13.50911045 0.25098039 0.27450980 0.65882353
v -0.16883340 0.24564509 -13.47857571 0.25098039 0.27450980 0.65882353
v -0.14888336 0.24800819 -13.52887154 0.25098039 0.27450980 0.65882353
v -0.11656635 0.19752812 -13.55131340 0.25098039 0.27450980 0.65882353
v -0.11065458 0.19303069 -13.55480003 0.25098039 0.27450980 0.65882353
v -0.10808775 0.19034873 -13.54827023 0.25098039 0.27450980 0.65882353
v -0.11351098 0.19357093 -13.54446983 0.25098039 0.27450980 0.65882353
v -0.07438000 0.19233531 -13.49886131 0.25098039 0.27450980 0.65882353
v -0.07767031 0.18811321 -13.50399303 0.25098039 0.27450980 0.65882353
v -0.08409148 0.19288857 -13.51022148 0.25098039 0.27450980 0.65882353
v -0.15831244 0.20740390 -13.51060390 0.25098039 0.27450980 0.65882353
v -0.16932461 0.20803021 -13.50270367 0.25098039 0.27450980 0.65882353
v -0.08706069 0.17474169 -13.49780464 0.25098039 0.27450980 0.65882353
v -0.05141814 0.16766909 -13.48579597 0.25098039 0.27450980 0.65882353
v -0.05210693 0.16752672 -13.49151707 0.25098039 0.27450980 0.65882353
v -0.06469971 0.18133050 -13.49496746 0.25098039 0.27450980 0.65882353
v -0.06372200 0.18188600 -13.48810291 0.25098039 0.27450980 0.65882353
v -0.08099854 0.17103952 -13.48782730 0.25098039 0.27450980 0.65882353
v -0.08242887 0.17162043 -13.49459362 0.25098039 0.27450980 0.65882353
v -0.07962899 0.17067963 -13.49236870 0.25098039 0.27450980 0.65882353
v -0.07865396 0.16769315 -13.48652744 0.25098039 0.27450980 0.65882353
v -0.11526021 0.16236117 -13.47522354 0.25098039 0.27450980 0.65882353
v -0.12140127 0.16618109 -13.48003960 0.25098039 0.27450980 0.65882353
v -0.08904633 0.18802519 -13.47562122 0.25098039 0.27450980 0.65882353
v -0.08047254 0.19606499 -13.48217392 0.25098039 0.27450980 0.65882353
v -0.08736159 0.20392706 -13.48667431 0.25098039 0.27450980 0.65882353
v -0.12253820 0.18212648 -13.49166870 0.25098039 0.27450980 0.65882353
v -0.11669719 0.17400086 -13.48723507 0.25098039 0.27450980 0.65882353
v -0.12022863 0.17296210 -13.48566818 0.25098039 0.27450980 0.65882353
v -0.09627540 0.17646918 -13.49595833 0.25098039 0.27450980 0.65882353
v -0.08881901 0.17215222 -13.49261951 0.25098039 0.27450980 0.65882353
v -0.09487326 0.17283577 -13.49121189 0.25098039 0.27450980 0.65882353
v -0.10136470 0.17710361 -13.49351311 0.25098039 0.27450980 0.65882353
v -0.16091204 0.20068376 -13.47498989 0.25098039 0.27450980 0.65882353
v -0.16552846 0.19397154 -13.48168564 0.25098039 0.27450980 0.65882353
v -0.05090146 0.15831645 -13.49607944 0.25098039 0.27450980 0.65882353
v -0.05241479 0.16205710 -13.49501514 0.25098039 0.27450980 0.65882353
v -0.12909235 0.19048402 -13.49588776 0.25098039 0.27450980 0.65882353
v -0.09520254 0.21287090 -13.49234104 0.25098039 0.27450980 0.65882353
v -0.13661213 0.19727923 -13.50116634 0.25098039 0.27450980 0.65882353
v -0.12606856 0.17519611 -13.46157265 0.25098039 0.27450980 0.65882353
v -0.12867834 0.16881037 -13.46555138 0.25098039 0.27450980 0.65882353
v -0.12394367 0.16493194 -13.46374035 0.25098039 0.27450980 0.65882353
v -0.12184851 0.16875994 -13.45898914 0.25098039 0.27450980 0.65882353
v -0.06765205 0.15706694 -13.48364162 0.25098039 0.27450980 0.65882353
v -0.06760864 0.15673527 -13.48930931 0.25098039 0.27450980 0.65882353
v -0.06394632 0.15440097 -13.48876572 0.25098039 0.27450980 0.65882353
v -0.06352027 0.15386039 -13.48301125 0.25098039 0.27450980 0.65882353
v -0.08074920 0.17470944 -13.49926949 0.25098039 0.27450980 0.65882353
v -0.07757008 0.17978340 -13.50220966 0.25098039 0.27450980 0.65882353
v -0.07369711 0.17487222 -13.50002289 0.25098039 0.27450980 0.65882353
v -0.07698891 0.17198837 -13.49629688 0.25098039 0.27450980 0.65882353
v -0.07255958 0.18339281 -13.50044441 0.25098039 0.27450980 0.65882353
v -0.06874569 0.17885730 -13.49946976 0.25098039 0.27450980 0.65882353
v -0.06414253 0.15952399 -13.47872734 0.25098039 0.27450980 0.65882353
v -0.05789080 0.16333166 -13.47716904 0.25098039 0.27450980 0.65882353
v -0.07041873 0.17553440 -13.47839737 0.25098039 0.27450980 0.65882353
v -0.07427962 0.16914496 -13.48070335 0.25098039 0.27450980 0.65882353
v -0.13870028 0.22098935 -13.47613239 0.25098039 0.27450980 0.65882353
v -0.14886004 0.21775508 -13.47427750 0.25098039 0.27450980 0.65882353
v -0.14308512 0.20510936 -13.47060013 0.25098039 0.27450980 0.65882353
v -0.13767913 0.19320135 -13.46631241 0.25098039 0.27450980 0.65882353
v -0.13192269 0.18127638 -13.46297455 0.25098039 0.27450980 0.65882353
v -0.12138397 0.18601969 -13.46237659 0.25098039 0.27450980 0.65882353
v -0.15077013 0.20356745 -13.47077274 0.25098039 0.27450980 0.65882353
v -0.08446501 0.17519692 -13.47996712 0.25098039 0.27450980 0.65882353
v -0.07970776 0.18330964 -13.47914314 0.25098039 0.27450980 0.65882353
v -0.08558741 0.18128189 -13.47650051 0.25098039 0.27450980 0.65882353
v -0.14311427 0.19416042 -13.49979210 0.25098039 0.27450980 0.65882353
v -0.05535190 0.16589731 -13.49592018 0.25098039 0.27450980 0.65882353
v -0.12752742 0.25271744 -13.50163937 0.25098039 0.27450980 0.65882353
v -0.13504803 0.25069487 -13.49077034 0.25098039 0.27450980 0.65882353
v -0.13084555 0.24413490 -13.49127865 0.25098039 0.27450980 0.65882353
v -0.12239794 0.24614260 -13.50374126 0.25098039 0.27450980 0.65882353
v -0.06498663 0.15900703 -13.49512100 0.25098039 0.27450980 0.65882353
v -0.06027198 0.16243330 -13.49807549 0.25098039 0.27450980 0.65882353
v -0.12636042 0.16346680 -13.47725391 0.25098039 0.27450980 0.65882353
v -0.12044037 0.16116387 -13.47313595 0.25098039 0.27450980 0.65882353
v -0.12195557 0.16090000 -13.46926403 0.25098039 0.27450980 0.65882353
v -0.12927368 0.16033946 -13.47365379 0.25098039 0.27450980 0.65882353
v -0.15459979 0.21709186 -13.47444916 0.25098039 0.27450980 0.65882353
v -0.14925283 0.17086112 -13.46522236 0.25098039 0.27450980 0.65882353
v -0.14182714 0.17581919 -13.46110821 0.25098039 0.27450980 0.65882353
v -0.15338057 0.22899896 -13.47756195 0.25098039 0.27450980 0.65882353
v -0.14444053 0.23188379 -13.47873402 0.25098039 0.27450980 0.65882353
v -0.14870156 0.23957962 -13.48005486 0.25098039 0.27450980 0.65882353
v -0.10596512 0.18347141 -13.46471882 0.25098039 0.27450980 0.65882353
v -0.13082010 0.22135851 -13.47795391 0.25098039 0.27450980 0.65882353
v -0.13754913 0.23230064 -13.48116302 0.25098039 0.27450980 0.65882353
v -0.14232321 0.24169889 -13.48266888 0.25098039 0.27450980 0.65882353
v -0.14542295 0.24856368 -13.48267937 0.25098039 0.27450980 0.65882353
v -0.15237178 0.24507335 -13.48039818 0.25098039 0.27450980 0.65882353
v -0.05342342 0.16536188 -13.48032951 0.25098039 0.27450980 0.65882353
v -0.05381553 0.15743172 -13.47686481 0.25098039 0.27450980 0.65882353
v -0.15612619 0.25143057 -13.47890282 0.25098039 0.27450980 0.65882353
v -0.14806840 0.25456166 -13.48205090 0.25098039 0.27450980 0.65882353
v -0.12951596 0.23322740 -13.48497677 0.25098039 0.27450980 0.65882353
v -0.12095229 0.23381430 -13.49074364 0.25098039 0.27450980 0.65882353
v -0.12316526 0.22286549 -13.48091030 0.25098039 0.27450980 0.65882353
v -0.11348628 0.22296958 -13.48633957 0.25098039 0.27450980 0.65882353
v -0.09853837 0.19023246 -13.46682549 0.25098039 0.27450980 0.65882353
v -0.05164856 0.14113441 -13.48299599 0.25098039 0.27450980 0.65882353
v -0.05703555 0.15024668 -13.47951603 0.25098039 0.27450980 0.65882353
v -0.06109433 0.14979243 -13.48351479 0.25098039 0.27450980 0.65882353
v -0.05559315 0.14031088 -13.48483467 0.25098039 0.27450980 0.65882353
v -0.06004891 0.15508117 -13.47860813 0.25098039 0.27450980 0.65882353
v -0.05183581 0.15300985 -13.47898960 0.25098039 0.27450980 0.65882353
v -0.10358909 0.22304276 -13.49779606 0.25098039 0.27450980 0.65882353
v -0.08848457 0.16959943 -13.48666382 0.25098039 0.27450980 0.65882353
v -0.11148612 0.23470828 -13.50595856 0.25098039 0.27450980 0.65882353
v -0.09271237 0.21840478 -13.51316452 0.25098039 0.27450980 0.65882353
v -0.10001661 0.22599262 -13.52064610 0.25098039 0.27450980 0.65882353
v -0.11869189 0.24711104 -13.51545238 0.25098039 0.27450980 0.65882353
v -0.10946055 0.23789687 -13.52506256 0.25098039 0.27450980 0.65882353
v -0.12962240 0.25879005 -13.51292038 0.25098039 0.27450980 0.65882353
v -0.12446675 0.25266433 -13.51293373 0.25098039 0.27450980 0.65882353
v -0.10215445 0.22780505 -13.53659344 0.25098039 0.27450980 0.65882353
v -0.05359626 0.14670020 -13.49781799 0.25098039 0.27450980 0.65882353
v -0.05759631 0.14431998 -13.49447060 0.25098039 0.27450980 0.65882353
v -0.13139708 0.25908664 -13.50139046 0.25098039 0.27450980 0.65882353
v -0.11843035 0.19604382 -13.54021072 0.25098039 0.27450980 0.65882353
v -0.14799401 0.20160407 -13.50573444 0.25098039 0.27450980 0.65882353
v -0.14274910 0.20299065 -13.50704956 0.25098039 0.27450980 0.65882353
v -0.16654977 0.19973604 -13.49864578 0.25098039 0.27450980 0.65882353
v -0.15534835 0.20022835 -13.50476646 0.25098039 0.27450980 0.65882353
v -0.04854614 0.14855495 -13.49825287 0.25098039 0.27450980 0.65882353
v -0.10019284 0.16389854 -13.47090435 0.25098039 0.27450980 0.65882353
v -0.10277160 0.16542947 -13.47055721 0.25098039 0.27450980 0.65882353
v -0.11460191 0.20367110 -13.55647945 0.25098039 0.27450980 0.65882353
v -0.11009705 0.19882558 -13.55951405 0.25098039 0.27450980 0.65882353
v -0.09916642 0.20585029 -13.55930233 0.25098039 0.27450980 0.65882353
v -0.10520399 0.20308816 -13.56171989 0.25098039 0.27450980 0.65882353
v -0.10922331 0.21005030 -13.55825615 0.25098039 0.27450980 0.65882353
v -0.10307017 0.21348467 -13.55572033 0.25098039 0.27450980 0.65882353
v -0.14925510 0.20945188 -13.51341438 0.25098039 0.27450980 0.65882353
v -0.15239349 0.20824844 -13.51234341 0.25098039 0.27450980 0.65882353
v -0.16525064 0.21038997 -13.47988987 0.25098039 0.27450980 0.65882353
v -0.16913028 0.20357399 -13.48713684 0.25098039 0.27450980 0.65882353
v -0.06978729 0.18667519 -13.49561119 0.25098039 0.27450980 0.65882353
v -0.07478857 0.19438210 -13.49052715 0.25098039 0.27450980 0.65882353
v -0.06962150 0.18775161 -13.48854542 0.25098039 0.27450980 0.65882353
v -0.06686932 0.18105169 -13.48178577 0.25098039 0.27450980 0.65882353
v -0.08431822 0.17032778 -13.48250294 0.25098039 0.27450980 0.65882353
v -0.07978892 0.17355260 -13.48281097 0.25098039 0.27450980 0.65882353
v -0.14640580 0.21629785 -13.52569771 0.25098039 0.27450980 0.65882353
v -0.13853604 0.20775165 -13.51707745 0.25098039 0.27450980 0.65882353
v -0.10628361 0.19239651 -13.53861618 0.25098039 0.27450980 0.65882353
v -0.10246898 0.19153753 -13.54269218 0.25098039 0.27450980 0.65882353
v -0.10901707 0.17715475 -13.49100876 0.25098039 0.27450980 0.65882353
v -0.09715541 0.17520407 -13.46380424 0.25098039 0.27450980 0.65882353
v -0.09143226 0.18061879 -13.46568298 0.25098039 0.27450980 0.65882353
v -0.10257457 0.17117597 -13.48708248 0.25098039 0.27450980 0.65882353
v -0.04256946 0.14771894 -13.49188423 0.25098039 0.27450980 0.65882353
v -0.04509307 0.14858322 -13.49628448 0.25098039 0.27450980 0.65882353
v -0.07317482 0.18746211 -13.48214722 0.25098039 0.27450980 0.65882353
v -0.12813896 0.17044471 -13.48466396 0.25098039 0.27450980 0.65882353
v -0.10607973 0.17687967 -13.46411228 0.25098039 0.27450980 0.65882353
v -0.09922042 0.16859570 -13.46528721 0.25098039 0.27450980 0.65882353
v -0.15089542 0.17014961 -13.47284317 0.25098039 0.27450980 0.65882353
v -0.13888174 0.25731850 -13.49121284 0.25098039 0.27450980 0.65882353
v -0.06210551 0.15036453 -13.48905373 0.25098039 0.27450980 0.65882353
v -0.05911171 0.14233574 -13.48996258 0.25098039 0.27450980 0.65882353
v -0.04795721 0.14334550 -13.48296833 0.25098039 0.27450980 0.65882353
v -0.04390278 0.14655477 -13.48601246 0.25098039 0.27450980 0.65882353
v -0.17185417 0.21178590 -13.49327374 0.25098039 0.27450980 0.65882353
v -0.13956296 0.20405908 -13.50730610 0.25098039 0.27450980 0.65882353
v -0.09795325 0.21771248 -13.54628468 0.25098039 0.27450980 0.65882353
v -0.09455040 0.20731027 -13.55367184 0.25098039 0.27450980 0.65882353
v -0.09816241 0.16736165 -13.48368454 0.25098039 0.27450980 0.65882353
v -0.13348269 0.17399877 -13.46296310 0.25098039 0.27450980 0.65882353
v -0.11769000 0.17838876 -13.45932484 0.25098039 0.27450980 0.65882353
v -0.11421210 0.17191279 -13.45604706 0.25098039 0.27450980 0.65882353
v -0.10696423 0.17074984 -13.45849991 0.25098039 0.27450980 0.65882353
v -0.10240069 0.16687311 -13.46333694 0.25098039 0.27450980 0.65882353
v -0.04692139 0.13809969 -13.48530579 0.25098039 0.27450980 0.65882353
v -0.04287262 0.14140037 -13.48812294 0.25098039 0.27450980 0.65882353
v -0.04165410 0.14297822 -13.49379539 0.25098039 0.27450980 0.65882353
v -0.04386017 0.14456244 -13.49757767 0.25098039 0.27450980 0.65882353
v -0.04798652 0.14525217 -13.49900246 0.25098039 0.27450980 0.65882353
v -0.05066130 0.13579206 -13.48575974 0.25098039 0.27450980 0.65882353
v -0.05413608 0.13552450 -13.48772144 0.25098039 0.27450980 0.65882353
v -0.05780166 0.13908434 -13.49098682 0.25098039 0.27450980 0.65882353
v -0.05144545 0.13191533 -13.48911190 0.25098039 0.27450980 0.65882353
v -0.04640168 0.13073395 -13.49030209 0.25098039 0.27450980 0.65882353
v -0.04291511 0.13254598 -13.50364113 0.25098039 0.27450980 0.65882353
v -0.04154705 0.13567343 -13.49863911 0.25098039 0.27450980 0.65882353
v -0.04174967 0.13294193 -13.49876213 0.25098039 0.27450980 0.65882353
v -0.04288574 0.12963805 -13.50245571 0.25098039 0.27450980 0.65882353
v -0.04366505 0.12511210 -13.50502014 0.25098039 0.27450980 0.65882353
v -0.04371686 0.12789916 -13.50712681 0.25098039 0.27450980 0.65882353
v -0.04286055 0.13269386 -13.49421692 0.25098039 0.27450980 0.65882353
v -0.04418175 0.12757231 -13.49856472 0.25098039 0.27450980 0.65882353
v -0.04689771 0.12584464 -13.49597645 0.25098039 0.27450980 0.65882353
v -0.04708320 0.12142366 -13.49960518 0.25098039 0.27450980 0.65882353
v -0.04455122 0.12275814 -13.50187492 0.25098039 0.27450980 0.65882353
v -0.04566059 0.12935634 -13.49312019 0.25098039 0.27450980 0.65882353
v -0.04219399 0.13445739 -13.49235630 0.25098039 0.27450980 0.65882353
v -0.04493137 0.12339966 -13.50805187 0.25098039 0.27450980 0.65882353
v -0.04403530 0.12219598 -13.50609112 0.25098039 0.27450980 0.65882353
v -0.04532427 0.12040645 -13.50398731 0.25098039 0.27450980 0.65882353
v -0.04691461 0.11914174 -13.50634193 0.25098039 0.27450980 0.65882353
v -0.04402609 0.14065014 -13.50021458 0.25098039 0.27450980 0.65882353
v -0.04442060 0.13393305 -13.50525379 0.25098039 0.27450980 0.65882353
v -0.04648106 0.12888272 -13.50803947 0.25098039 0.27450980 0.65882353
v -0.04748593 0.12434076 -13.50881386 0.25098039 0.27450980 0.65882353
v -0.04839940 0.13359204 -13.50609589 0.25098039 0.27450980 0.65882353
v -0.04937479 0.12918715 -13.50780487 0.25098039 0.27450980 0.65882353
v -0.05054377 0.12531149 -13.50809193 0.25098039 0.27450980 0.65882353
v -0.05237481 0.13249421 -13.50546741 0.25098039 0.27450980 0.65882353
v -0.05230577 0.12857623 -13.50681686 0.25098039 0.27450980 0.65882353
v -0.05173339 0.14198835 -13.49953842 0.25098039 0.27450980 0.65882353
v -0.04782087 0.14328296 -13.50037766 0.25098039 0.27450980 0.65882353
v -0.05256306 0.12610592 -13.50766945 0.25098039 0.27450980 0.65882353
v -0.04910146 0.11957366 -13.50684071 0.25098039 0.27450980 0.65882353
v -0.04983495 0.12657773 -13.49389744 0.25098039 0.27450980 0.65882353
v -0.05027932 0.12179703 -13.49935055 0.25098039 0.27450980 0.65882353
v -0.05224064 0.12690648 -13.49405193 0.25098039 0.27450980 0.65882353
v -0.05267610 0.12191556 -13.49910069 0.25098039 0.27450980 0.65882353
v -0.04953761 0.11834784 -13.50241756 0.25098039 0.27450980 0.65882353
v -0.04730929 0.11959618 -13.50209427 0.25098039 0.27450980 0.65882353
v -0.05303419 0.14453766 -13.49783325 0.25098039 0.27450980 0.65882353
v -0.05704141 0.14186636 -13.49438572 0.25098039 0.27450980 0.65882353
v -0.05611998 0.13949360 -13.49589634 0.25098039 0.27450980 0.65882353
v -0.05585814 0.13078822 -13.50273609 0.25098039 0.27450980 0.65882353
v -0.05728076 0.13647775 -13.49321365 0.25098039 0.27450980 0.65882353
v -0.05476893 0.13215061 -13.49113369 0.25098039 0.27450980 0.65882353
v -0.05468479 0.12692128 -13.49583817 0.25098039 0.27450980 0.65882353
v -0.05640489 0.12824570 -13.49841404 0.25098039 0.27450980 0.65882353
v -0.05459835 0.12319557 -13.49991226 0.25098039 0.27450980 0.65882353
v -0.05525793 0.12491080 -13.50158691 0.25098039 0.27450980 0.65882353
v -0.05482146 0.12693655 -13.50477600 0.25098039 0.27450980 0.65882353
v -0.05358066 0.12123761 -13.50349426 0.25098039 0.27450980 0.65882353
v -0.05154130 0.11920832 -13.50287628 0.25098039 0.27450980 0.65882353
v -0.05173652 0.12185938 -13.50664425 0.25098039 0.27450980 0.65882353
v -0.05459476 0.12296610 -13.50364590 0.25098039 0.27450980 0.65882353
v -0.05310987 0.12413394 -13.50594807 0.25098039 0.27450980 0.65882353
v -0.07379565 0.14073029 -13.47483730 0.25098039 0.27450980 0.65882353
v -0.07881810 0.13822214 -13.47167015 0.25098039 0.27450980 0.65882353
v -0.07961620 0.14326987 -13.47109604 0.25098039 0.27450980 0.65882353
v -0.07535398 0.14493464 -13.47395039 0.25098039 0.27450980 0.65882353
v -0.06445509 0.14412053 -13.46564102 0.25098039 0.27450980 0.65882353
v -0.06625797 0.14328498 -13.47115135 0.25098039 0.27450980 0.65882353
v -0.06706688 0.14846110 -13.46987915 0.25098039 0.27450980 0.65882353
v -0.06632321 0.14949520 -13.46347618 0.25098039 0.27450980 0.65882353
v -0.06742224 0.14329542 -13.45952988 0.25098039 0.27450980 0.65882353
v -0.06960182 0.14889669 -13.45744896 0.25098039 0.27450980 0.65882353
v -0.06822190 0.15468042 -13.46369934 0.25098039 0.27450980 0.65882353
v -0.06951773 0.15340871 -13.47058201 0.25098039 0.27450980 0.65882353
v -0.08113590 0.16996771 -13.47637653 0.25098039 0.27450980 0.65882353
v -0.08023664 0.17209531 -13.46956158 0.25098039 0.27450980 0.65882353
v -0.09659027 0.16136511 -13.47485733 0.25098039 0.27450980 0.65882353
v -0.09606102 0.16123392 -13.47089100 0.25098039 0.27450980 0.65882353
v -0.07008368 0.14202169 -13.47426605 0.25098039 0.27450980 0.65882353
v -0.07105571 0.14663506 -13.47307587 0.25098039 0.27450980 0.65882353
v -0.08634533 0.14499526 -13.46479321 0.25098039 0.27450980 0.65882353
v -0.08539414 0.14495523 -13.47010899 0.25098039 0.27450980 0.65882353
v -0.08292142 0.14128070 -13.46826458 0.25098039 0.27450980 0.65882353
v -0.08309397 0.14109235 -13.46264935 0.25098039 0.27450980 0.65882353
v -0.08773574 0.16640334 -13.48104000 0.25098039 0.27450980 0.65882353
v -0.09320834 0.16421866 -13.47861767 0.25098039 0.27450980 0.65882353
v -0.08408491 0.16759703 -13.47974777 0.25098039 0.27450980 0.65882353
v -0.08438864 0.14674586 -13.45871067 0.25098039 0.27450980 0.65882353
v -0.07935013 0.15014333 -13.45526600 0.25098039 0.27450980 0.65882353
v -0.08986554 0.16708583 -13.46001434 0.25098039 0.27450980 0.65882353
v -0.09393795 0.16296783 -13.46284294 0.25098039 0.27450980 0.65882353
v -0.07267512 0.15103936 -13.47454166 0.25098039 0.27450980 0.65882353
v -0.08177580 0.14620714 -13.47400093 0.25098039 0.27450980 0.65882353
v -0.07738194 0.14826354 -13.47605133 0.25098039 0.27450980 0.65882353
v -0.07281953 0.15380663 -13.45799160 0.25098039 0.27450980 0.65882353
v -0.07569782 0.14451131 -13.45519257 0.25098039 0.27450980 0.65882353
v -0.07385848 0.12498131 -13.46136189 0.25098039 0.27450980 0.65882353
v -0.07831852 0.13644712 -13.45852375 0.25098039 0.27450980 0.65882353
v -0.08093931 0.13565408 -13.46285915 0.25098039 0.27450980 0.65882353
v -0.07720049 0.12371185 -13.46478558 0.25098039 0.27450980 0.65882353
v -0.08072825 0.14188589 -13.45768166 0.25098039 0.27450980 0.65882353
v -0.07325423 0.13937694 -13.45700645 0.25098039 0.27450980 0.65882353
v -0.07159586 0.12614745 -13.47739220 0.25098039 0.27450980 0.65882353
v -0.07663743 0.12390080 -13.47403908 0.25098039 0.27450980 0.65882353
v -0.06714793 0.12750617 -13.47751331 0.25098039 0.27450980 0.65882353
v -0.08402763 0.17133619 -13.46258926 0.25098039 0.27450980 0.65882353
v -0.06124996 0.13081126 -13.46947002 0.25098039 0.27450980 0.65882353
v -0.06374137 0.12928076 -13.47542763 0.25098039 0.27450980 0.65882353
v -0.08168320 0.13638939 -13.46782112 0.25098039 0.27450980 0.65882353
v -0.07838270 0.12293853 -13.46940422 0.25098039 0.27450980 0.65882353
v -0.06964733 0.12684755 -13.46050549 0.25098039 0.27450980 0.65882353
v -0.06396806 0.13081969 -13.46315289 0.25098039 0.27450980 0.65882353
v -0.06821008 0.12115787 -13.46259785 0.25098039 0.27450980 0.65882353
v -0.06293443 0.12393683 -13.46530151 0.25098039 0.27450980 0.65882353
v -0.06052293 0.12450956 -13.47144032 0.25098039 0.27450980 0.65882353
v -0.06345738 0.12442546 -13.47650623 0.25098039 0.27450980 0.65882353
v -0.06694439 0.12407488 -13.47824860 0.25098039 0.27450980 0.65882353
v -0.07217616 0.11948302 -13.46344757 0.25098039 0.27450980 0.65882353
v -0.07564870 0.11869211 -13.46643543 0.25098039 0.27450980 0.65882353
v -0.07729369 0.12040468 -13.47067070 0.25098039 0.27450980 0.65882353
v -0.07292387 0.11313958 -13.46739388 0.25098039 0.27450980 0.65882353
v -0.06841199 0.11280245 -13.46677399 0.25098039 0.27450980 0.65882353
v -0.06332724 0.10662550 -13.48340988 0.25098039 0.27450980 0.65882353
v -0.06230487 0.11167824 -13.48010254 0.25098039 0.27450980 0.65882353
v -0.06230909 0.11000456 -13.47803402 0.25098039 0.27450980 0.65882353
v -0.06331943 0.10534483 -13.48086357 0.25098039 0.27450980 0.65882353
v -0.06059577 0.11556807 -13.47531796 0.25098039 0.27450980 0.65882353
v -0.06142981 0.11317545 -13.47465038 0.25098039 0.27450980 0.65882353
v -0.06359020 0.11283749 -13.47053814 0.25098039 0.27450980 0.65882353
v -0.06476240 0.10792926 -13.47429371 0.25098039 0.27450980 0.65882353
v -0.06855038 0.10745187 -13.47144127 0.25098039 0.27450980 0.65882353
v -0.06880881 0.10218599 -13.47400284 0.25098039 0.27450980 0.65882353
v -0.06497870 0.10262531 -13.47689056 0.25098039 0.27450980 0.65882353
v -0.06673649 0.11082591 -13.46923828 0.25098039 0.27450980 0.65882353
v -0.06422670 0.10190544 -13.48194218 0.25098039 0.27450980 0.65882353
v -0.06532262 0.10126849 -13.48423672 0.25098039 0.27450980 0.65882353
v -0.06253582 0.11538911 -13.46870041 0.25098039 0.27450980 0.65882353
v -0.06276929 0.12053478 -13.47790146 0.25098039 0.27450980 0.65882353
v -0.06397174 0.11275171 -13.48246956 0.25098039 0.27450980 0.65882353
v -0.06574437 0.10697277 -13.48556232 0.25098039 0.27450980 0.65882353
v -0.06823827 0.10121608 -13.48524666 0.25098039 0.27450980 0.65882353
v -0.06791331 0.11275163 -13.48404217 0.25098039 0.27450980 0.65882353
v -0.06897795 0.10705996 -13.48616219 0.25098039 0.27450980 0.65882353
v -0.07075569 0.10236678 -13.48512268 0.25098039 0.27450980 0.65882353
v -0.07265267 0.11233929 -13.48405743 0.25098039 0.27450980 0.65882353
v -0.07312219 0.10664432 -13.48536587 0.25098039 0.27450980 0.65882353
v -0.07157972 0.12174907 -13.47893238 0.25098039 0.27450980 0.65882353
v -0.06692874 0.12193520 -13.47977257 0.25098039 0.27450980 0.65882353
v -0.07265207 0.10390842 -13.48489380 0.25098039 0.27450980 0.65882353
v -0.06703292 0.09789908 -13.48098087 0.25098039 0.27450980 0.65882353
v -0.07006972 0.09838639 -13.48264790 0.25098039 0.27450980 0.65882353
v -0.06611197 0.09933525 -13.47969818 0.25098039 0.27450980 0.65882353
v -0.07061772 0.10747623 -13.47088242 0.25098039 0.27450980 0.65882353
v -0.07109532 0.10210483 -13.47464085 0.25098039 0.27450980 0.65882353
v -0.07344444 0.10746497 -13.47152424 0.25098039 0.27450980 0.65882353
v -0.07334326 0.10186116 -13.47584248 0.25098039 0.27450980 0.65882353
v -0.07032821 0.09841281 -13.47765541 0.25098039 0.27450980 0.65882353
v -0.06865124 0.09877650 -13.47727966 0.25098039 0.27450980 0.65882353
v -0.07120633 0.12349318 -13.47731304 0.25098039 0.27450980 0.65882353
v -0.07576382 0.12191419 -13.47422504 0.25098039 0.27450980 0.65882353
v -0.07601304 0.12046973 -13.47568226 0.25098039 0.27450980 0.65882353
v -0.07641087 0.11093406 -13.48057461 0.25098039 0.27450980 0.65882353
v -0.07753722 0.11833157 -13.47180271 0.25098039 0.27450980 0.65882353
v -0.07582581 0.11450192 -13.46905994 0.25098039 0.27450980 0.65882353
v -0.07586738 0.10831873 -13.47275639 0.25098039 0.27450980 0.65882353
v -0.07740931 0.10925256 -13.47631550 0.25098039 0.27450980 0.65882353
v -0.07560128 0.10216340 -13.47620678 0.25098039 0.27450980 0.65882353
v -0.07680334 0.10460207 -13.47793484 0.25098039 0.27450980 0.65882353
v -0.07605326 0.10605016 -13.48253536 0.25098039 0.27450980 0.65882353
v -0.07426088 0.09889385 -13.47934723 0.25098039 0.27450980 0.65882353
v -0.07203546 0.09820408 -13.47846317 0.25098039 0.27450980 0.65882353
v -0.07191996 0.09975463 -13.48305607 0.25098039 0.27450980 0.65882353
v -0.07571229 0.10146084 -13.48005390 0.25098039 0.27450980 0.65882353
v -0.07408251 0.10226232 -13.48321915 0.25098039 0.27450980 0.65882353
v -0.09692353 0.14060339 -13.46223927 0.25098039 0.27450980 0.65882353
v -0.10261148 0.13917933 -13.46321774 0.25098039 0.27450980 0.65882353
v -0.10359699 0.14250895 -13.46313381 0.25098039 0.27450980 0.65882353
v -0.09809642 0.14402820 -13.46207237 0.25098039 0.27450980 0.65882353
v -0.09562372 0.14163098 -13.44977951 0.25098039 0.27450980 0.65882353
v -0.09319827 0.14128062 -13.45406342 0.25098039 0.27450980 0.65882353
v -0.09438784 0.14608221 -13.45377731 0.25098039 0.27450980 0.65882353
v -0.09701553 0.14786214 -13.44921207 0.25098039 0.27450980 0.65882353
v -0.10011712 0.13913964 -13.44756794 0.25098039 0.27450980 0.65882353
v -0.10238516 0.14724176 -13.44605827 0.25098039 0.27450980 0.65882353
v -0.09825368 0.15371802 -13.44971657 0.25098039 0.27450980 0.65882353
v -0.09551582 0.15068163 -13.45447826 0.25098039 0.27450980 0.65882353
v -0.10105574 0.16348986 -13.46101475 0.25098039 0.27450980 0.65882353
v -0.10392568 0.16582713 -13.45514584 0.25098039 0.27450980 0.65882353
v -0.09406860 0.14100321 -13.45863914 0.25098039 0.27450980 0.65882353
v -0.09513061 0.14481947 -13.45860767 0.25098039 0.27450980 0.65882353
v -0.11260019 0.14345774 -13.46016312 0.25098039 0.27450980 0.65882353
v -0.10925573 0.14360034 -13.46358013 0.25098039 0.27450980 0.65882353
v -0.10847658 0.14091790 -13.46150208 0.25098039 0.27450980 0.65882353
v -0.11107244 0.14047632 -13.45817184 0.25098039 0.27450980 0.65882353
v -0.10599951 0.16055158 -13.47079277 0.25098039 0.27450980 0.65882353
v -0.11204915 0.16023037 -13.47078705 0.25098039 0.27450980 0.65882353
v -0.10197957 0.16074157 -13.46678066 0.25098039 0.27450980 0.65882353
v -0.11335051 0.14508477 -13.45384598 0.25098039 0.27450980 0.65882353
v -0.11077167 0.14926960 -13.44815826 0.25098039 0.27450980 0.65882353
v -0.11751507 0.16143286 -13.45441628 0.25098039 0.27450980 0.65882353
v -0.11947638 0.15898569 -13.46001625 0.25098039 0.27450980 0.65882353
v -0.09598151 0.14833388 -13.45933247 0.25098039 0.27450980 0.65882353
v -0.10446256 0.14523408 -13.46518707 0.25098039 0.27450980 0.65882353
v -0.09895599 0.14649613 -13.46373177 0.25098039 0.27450980 0.65882353
v -0.10422277 0.15307945 -13.44752502 0.25098039 0.27450980 0.65882353
v -0.10818683 0.14346069 -13.44789600 0.25098039 0.27450980 0.65882353
v -0.10494614 0.12097611 -13.45340824 0.25098039 0.27450980 0.65882353
v -0.11008471 0.13682203 -13.45235062 0.25098039 0.27450980 0.65882353
v -0.11000863 0.13680212 -13.45810509 0.25098039 0.27450980 0.65882353
v -0.10628991 0.12118792 -13.45763969 0.25098039 0.27450980 0.65882353
v -0.11146490 0.14065443 -13.45275497 0.25098039 0.27450980 0.65882353
v -0.10638043 0.13800484 -13.44825745 0.25098039 0.27450980 0.65882353
v -0.09445719 0.12540084 -13.46461487 0.25098039 0.27450980 0.65882353
v -0.10013701 0.12463292 -13.46470356 0.25098039 0.27450980 0.65882353
v -0.09155622 0.12662622 -13.46141911 0.25098039 0.27450980 0.65882353
v -0.11050442 0.16552287 -13.45189476 0.25098039 0.27450980 0.65882353
v -0.11778274 0.15867451 -13.46675968 0.25098039 0.27450980 0.65882353
v -0.09071276 0.12539926 -13.45390797 0.25098039 0.27450980 0.65882353
v -0.09016080 0.12629044 -13.45824432 0.25098039 0.27450980 0.65882353
v -0.10755937 0.13790466 -13.46147537 0.25098039 0.27450980 0.65882353
v -0.10485956 0.12259243 -13.46187782 0.25098039 0.27450980 0.65882353
v -0.10140719 0.12249534 -13.45034122 0.25098039 0.27450980 0.65882353
v -0.09549630 0.12498120 -13.45000744 0.25098039 0.27450980 0.65882353
v -0.10065709 0.11630856 -13.45249462 0.25098039 0.27450980 0.65882353
v -0.09461367 0.11818191 -13.45236588 0.25098039 0.27450980 0.65882353
v -0.09009667 0.11897096 -13.45616341 0.25098039 0.27450980 0.65882353
v -0.08982183 0.12084985 -13.46028328 0.25098039 0.27450980 0.65882353
v -0.09122267 0.12190144 -13.46318626 0.25098039 0.27450980 0.65882353
v -0.10422325 0.11598659 -13.45608807 0.25098039 0.27450980 0.65882353
v -0.10516807 0.11716360 -13.45979118 0.25098039 0.27450980 0.65882353
v -0.10378705 0.12089059 -13.46231270 0.25098039 0.27450980 0.65882353
v -0.10453357 0.11278248 -13.45948792 0.25098039 0.27450980 0.65882353
v -0.10014984 0.11019406 -13.45702839 0.25098039 0.27450980 0.65882353
v -0.09126171 0.10371397 -13.47017574 0.25098039 0.27450980 0.65882353
v -0.09091537 0.10836172 -13.46633148 0.25098039 0.27450980 0.65882353
v -0.09151430 0.10750234 -13.46555614 0.25098039 0.27450980 0.65882353
v -0.09170942 0.10255791 -13.46881199 0.25098039 0.27450980 0.65882353
v -0.09068553 0.11204931 -13.46032906 0.25098039 0.27450980 0.65882353
v -0.09158918 0.11023159 -13.46107006 0.25098039 0.27450980 0.65882353
v -0.09460831 0.10972990 -13.45852184 0.25098039 0.27450980 0.65882353
v -0.09509750 0.10467786 -13.46288681 0.25098039 0.27450980 0.65882353
v -0.10096672 0.10597837 -13.46304417 0.25098039 0.27450980 0.65882353
v -0.10026726 0.10228333 -13.46665478 0.25098039 0.27450980 0.65882353
v -0.09515657 0.10053006 -13.46649170 0.25098039 0.27450980 0.65882353
v -0.09904823 0.10904215 -13.45867252 0.25098039 0.27450980 0.65882353
v -0.09279436 0.09991011 -13.47039413 0.25098039 0.27450980 0.65882353
v -0.09125821 0.09955901 -13.47208500 0.25098039 0.27450980 0.65882353
v -0.09431425 0.11144298 -13.45634270 0.25098039 0.27450980 0.65882353
v -0.08911213 0.11579551 -13.46320343 0.25098039 0.27450980 0.65882353
v -0.08997101 0.11007388 -13.46856022 0.25098039 0.27450980 0.65882353
v -0.09004873 0.10555270 -13.47291756 0.25098039 0.27450980 0.65882353
v -0.09216556 0.10191847 -13.47497559 0.25098039 0.27450980 0.65882353
v -0.09181158 0.11213525 -13.47109890 0.25098039 0.27450980 0.65882353
v -0.09211342 0.10756204 -13.47436714 0.25098039 0.27450980 0.65882353
v -0.09391807 0.10435313 -13.47628975 0.25098039 0.27450980 0.65882353
v -0.09455089 0.11330415 -13.47246170 0.25098039 0.27450980 0.65882353
v -0.09497933 0.10907152 -13.47516060 0.25098039 0.27450980 0.65882353
v -0.09427588 0.12077965 -13.46625423 0.25098039 0.27450980 0.65882353
v -0.09096956 0.11876449 -13.46518230 0.25098039 0.27450980 0.65882353
v -0.09560777 0.10604146 -13.47627354 0.25098039 0.27450980 0.65882353
v -0.09556799 0.09739769 -13.47138691 0.25098039 0.27450980 0.65882353
v -0.09737439 0.09954141 -13.47485542 0.25098039 0.27450980 0.65882353
v -0.09549437 0.09887467 -13.46972847 0.25098039 0.27450980 0.65882353
v -0.10268098 0.10696976 -13.46301842 0.25098039 0.27450980 0.65882353
v -0.10240798 0.10222492 -13.46789265 0.25098039 0.27450980 0.65882353
v -0.10447766 0.10856371 -13.46473598 0.25098039 0.27450980 0.65882353
v -0.10416070 0.10374902 -13.46940804 0.25098039 0.27450980 0.65882353
v -0.10043433 0.09891830 -13.47011471 0.25098039 0.27450980 0.65882353
v -0.09943372 0.09937295 -13.46923637 0.25098039 0.27450980 0.65882353
v -0.09475356 0.12291298 -13.46467209 0.25098039 0.27450980 0.65882353
v -0.09984431 0.12257181 -13.46462631 0.25098039 0.27450980 0.65882353
v -0.09908579 0.12102158 -13.46619797 0.25098039 0.27450980 0.65882353
v -0.09920928 0.11329040 -13.47299957 0.25098039 0.27450980 0.65882353
v -0.10315053 0.11956376 -13.46435165 0.25098039 0.27450980 0.65882353
v -0.10501520 0.11437353 -13.46299076 0.25098039 0.27450980 0.65882353
v -0.10456061 0.11035086 -13.46756172 0.25098039 0.27450980 0.65882353
v -0.10298394 0.11176802 -13.47080898 0.25098039 0.27450980 0.65882353
v -0.10422963 0.10578792 -13.47134590 0.25098039 0.27450980 0.65882353
v -0.10273331 0.10794316 -13.47260094 0.25098039 0.27450980 0.65882353
v -0.09909427 0.10930970 -13.47562504 0.25098039 0.27450980 0.65882353
v -0.10182481 0.10302307 -13.47357082 0.25098039 0.27450980 0.65882353
v -0.10187382 0.10038255 -13.47211075 0.25098039 0.27450980 0.65882353
v -0.09805998 0.10258177 -13.47617912 0.25098039 0.27450980 0.65882353
v -0.10141532 0.10536891 -13.47453022 0.25098039 0.27450980 0.65882353
v -0.09855238 0.10521165 -13.47647190 0.25098039 0.27450980 0.65882353
v -0.11598513 0.15939379 -13.46979713 0.25098039 0.27450980 0.65882353
v -0.13430081 0.13722473 -13.46926117 0.25098039 0.27450980 0.65882353
v -0.13803658 0.13747787 -13.47081375 0.25098039 0.27450980 0.65882353
v -0.13879997 0.14025187 -13.46958351 0.25098039 0.27450980 0.65882353
v -0.13486943 0.14099164 -13.46876717 0.25098039 0.27450980 0.65882353
v -0.13421337 0.13663852 -13.45821095 0.25098039 0.27450980 0.65882353
v -0.13213442 0.13636908 -13.46215534 0.25098039 0.27450980 0.65882353
v -0.13186938 0.14110009 -13.46057224 0.25098039 0.27450980 0.65882353
v -0.13391548 0.14163652 -13.45671463 0.25098039 0.27450980 0.65882353
v -0.13882892 0.13659540 -13.45651340 0.25098039 0.27450980 0.65882353
v -0.13899514 0.14141525 -13.45524693 0.25098039 0.27450980 0.65882353
v -0.13375498 0.14544991 -13.45648479 0.25098039 0.27450980 0.65882353
v -0.13151979 0.14495006 -13.46070290 0.25098039 0.27450980 0.65882353
v -0.13058963 0.16150701 -13.46417904 0.25098039 0.27450980 0.65882353
v -0.13386559 0.16429536 -13.46040535 0.25098039 0.27450980 0.65882353
v -0.14904350 0.16445969 -13.47150517 0.25098039 0.27450980 0.65882353
v -0.14514318 0.16455984 -13.47706318 0.25098039 0.27450980 0.65882353
v -0.14472698 0.15642062 -13.47260189 0.25098039 0.27450980 0.65882353
v -0.14791420 0.15794519 -13.46867085 0.25098039 0.27450980 0.65882353
v -0.13246951 0.13669632 -13.46604061 0.25098039 0.27450980 0.65882353
v -0.13218534 0.14094956 -13.46561337 0.25098039 0.27450980 0.65882353
v -0.14725384 0.14404947 -13.46586132 0.25098039 0.27450980 0.65882353
v -0.14387378 0.14342907 -13.46906185 0.25098039 0.27450980 0.65882353
v -0.14279592 0.14038016 -13.46957207 0.25098039 0.27450980 0.65882353
v -0.14655402 0.13982448 -13.46712208 0.25098039 0.27450980 0.65882353
v -0.13955800 0.16317168 -13.47823620 0.25098039 0.27450980 0.65882353
v -0.13457538 0.16285124 -13.47705841 0.25098039 0.27450980 0.65882353
v -0.13454008 0.15834460 -13.47537994 0.25098039 0.27450980 0.65882353
v -0.13997294 0.15555063 -13.47414684 0.25098039 0.27450980 0.65882353
v -0.13074005 0.15862143 -13.47135925 0.25098039 0.27450980 0.65882353
v -0.14786275 0.14440627 -13.46188831 0.25098039 0.27450980 0.65882353
v -0.14527296 0.14492875 -13.45678425 0.25098039 0.27450980 0.65882353
v -0.14778285 0.16263983 -13.46002293 0.25098039 0.27450980 0.65882353
v -0.14901097 0.16114135 -13.46434021 0.25098039 0.27450980 0.65882353
v -0.13173775 0.14362742 -13.46501637 0.25098039 0.27450980 0.65882353
v -0.13956243 0.14310074 -13.46974182 0.25098039 0.27450980 0.65882353
v -0.13519152 0.14293455 -13.46870613 0.25098039 0.27450980 0.65882353
v -0.13925055 0.14563656 -13.45453548 0.25098039 0.27450980 0.65882353
v -0.14470291 0.14022347 -13.45763206 0.25098039 0.27450980 0.65882353
v -0.14658035 0.12727574 -13.46681118 0.25098039 0.27450980 0.65882353
v -0.14731042 0.13640836 -13.46380234 0.25098039 0.27450980 0.65882353
v -0.14603594 0.13676548 -13.46849251 0.25098039 0.27450980 0.65882353
v -0.14591534 0.12791628 -13.46964931 0.25098039 0.27450980 0.65882353
v -0.14732818 0.13983686 -13.46272182 0.25098039 0.27450980 0.65882353
v -0.14459762 0.13579826 -13.45900726 0.25098039 0.27450980 0.65882353
v -0.13415891 0.12873745 -13.47196770 0.25098039 0.27450980 0.65882353
v -0.13914570 0.12946920 -13.47310257 0.25098039 0.27450980 0.65882353
v -0.13242112 0.12813686 -13.46939278 0.25098039 0.27450980 0.65882353
v -0.14042902 0.16433918 -13.45767212 0.25098039 0.27450980 0.65882353
v -0.13416095 0.12647976 -13.46233273 0.25098039 0.27450980 0.65882353
v -0.13205619 0.12680635 -13.46612644 0.25098039 0.27450980 0.65882353
v -0.14208470 0.13722439 -13.47068977 0.25098039 0.27450980 0.65882353
v -0.14334095 0.12903944 -13.47202206 0.25098039 0.27450980 0.65882353
v -0.14465955 0.12655419 -13.46310139 0.25098039 0.27450980 0.65882353
v -0.13924575 0.12662867 -13.46032238 0.25098039 0.27450980 0.65882353
v -0.14404735 0.12196243 -13.46538544 0.25098039 0.27450980 0.65882353
v -0.13846070 0.12215425 -13.46260548 0.25098039 0.27450980 0.65882353
v -0.13326824 0.12238456 -13.46517372 0.25098039 0.27450980 0.65882353
v -0.13196735 0.12421122 -13.46814060 0.25098039 0.27450980 0.65882353
v -0.13217118 0.12556948 -13.47099686 0.25098039 0.27450980 0.65882353
v -0.14605638 0.12333106 -13.46900082 0.25098039 0.27450980 0.65882353
v -0.14542577 0.12466758 -13.47168446 0.25098039 0.27450980 0.65882353
v -0.14310096 0.12670165 -13.47372723 0.25098039 0.27450980 0.65882353
v -0.14539562 0.11952853 -13.47149563 0.25098039 0.27450980 0.65882353
v -0.14285088 0.11653695 -13.46881199 0.25098039 0.27450980 0.65882353
v -0.13273436 0.11143287 -13.47648621 0.25098039 0.27450980 0.65882353
v -0.13258076 0.11470035 -13.47377014 0.25098039 0.27450980 0.65882353
v -0.13328156 0.11400650 -13.47294807 0.25098039 0.27450980 0.65882353
v -0.13277271 0.11067651 -13.47554207 0.25098039 0.27450980 0.65882353
v -0.13326812 0.11771245 -13.46914864 0.25098039 0.27450980 0.65882353
v -0.13424975 0.11632679 -13.46945095 0.25098039 0.27450980 0.65882353
v -0.13741890 0.11666685 -13.46785545 0.25098039 0.27450980 0.65882353
v -0.13688199 0.11245365 -13.47130013 0.25098039 0.27450980 0.65882353
v -0.14201510 0.11242934 -13.47297668 0.25098039 0.27450980 0.65882353
v -0.14098267 0.10909404 -13.47552681 0.25098039 0.27450980 0.65882353
v -0.13658838 0.10927497 -13.47359943 0.25098039 0.27450980 0.65882353
v -0.14125043 0.11514682 -13.46917820 0.25098039 0.27450980 0.65882353
v -0.13332433 0.10809267 -13.47659206 0.25098039 0.27450980 0.65882353
v -0.13275632 0.10752349 -13.47788525 0.25098039 0.27450980 0.65882353
v -0.13755804 0.11779137 -13.46625233 0.25098039 0.27450980 0.65882353
v -0.13157028 0.12089416 -13.47130394 0.25098039 0.27450980 0.65882353
v -0.13159300 0.11551353 -13.47594929 0.25098039 0.27450980 0.65882353
v -0.13202824 0.11117774 -13.47882462 0.25098039 0.27450980 0.65882353
v -0.13354197 0.10781480 -13.48017025 0.25098039 0.27450980 0.65882353
v -0.13217369 0.11768471 -13.47755623 0.25098039 0.27450980 0.65882353
v -0.13243559 0.11253329 -13.48091888 0.25098039 0.27450980 0.65882353
v -0.13421923 0.10948633 -13.48219204 0.25098039 0.27450980 0.65882353
v -0.13420077 0.11965999 -13.47958660 0.25098039 0.27450980 0.65882353
v -0.13440025 0.11432047 -13.48201656 0.25098039 0.27450980 0.65882353
v -0.13469970 0.12525105 -13.47547531 0.25098039 0.27450980 0.65882353
v -0.13244288 0.12323735 -13.47357941 0.25098039 0.27450980 0.65882353
v -0.13521095 0.11122917 -13.48244762 0.25098039 0.27450980 0.65882353
v -0.13616070 0.10577793 -13.47750378 0.25098039 0.27450980 0.65882353
v -0.13666248 0.10662092 -13.48047638 0.25098039 0.27450980 0.65882353
v -0.13641463 0.10643651 -13.47616005 0.25098039 0.27450980 0.65882353
v -0.14327081 0.11297697 -13.47360992 0.25098039 0.27450980 0.65882353
v -0.14214557 0.10900097 -13.47684860 0.25098039 0.27450980 0.65882353
v -0.14447306 0.11445728 -13.47542381 0.25098039 0.27450980 0.65882353
v -0.14258572 0.11000845 -13.47884369 0.25098039 0.27450980 0.65882353
v -0.13989869 0.10637373 -13.47813988 0.25098039 0.27450980 0.65882353
v -0.13912567 0.10699056 -13.47633362 0.25098039 0.27450980 0.65882353
v -0.13463698 0.12679076 -13.47400379 0.25098039 0.27450980 0.65882353
v -0.13889503 0.12751617 -13.47435284 0.25098039 0.27450980 0.65882353
v -0.13896954 0.12571497 -13.47600651 0.25098039 0.27450980 0.65882353
v -0.13801518 0.12030365 -13.48034286 0.25098039 0.27450980 0.65882353
v -0.14302632 0.12459853 -13.47533512 0.25098039 0.27450980 0.65882353
v -0.14506872 0.12203764 -13.47342587 0.25098039 0.27450980 0.65882353
v -0.14396578 0.11646186 -13.47747803 0.25098039 0.27450980 0.65882353
v -0.14206944 0.11854599 -13.47954369 0.25098039 0.27450980 0.65882353
v -0.14201283 0.11129625 -13.48073006 0.25098039 0.27450980 0.65882353
v -0.14043187 0.11357321 -13.48224258 0.25098039 0.27450980 0.65882353
v -0.13748348 0.11494003 -13.48289299 0.25098039 0.27450980 0.65882353
v -0.13930187 0.10871458 -13.48170853 0.25098039 0.27450980 0.65882353
v -0.13979176 0.10719806 -13.48046398 0.25098039 0.27450980 0.65882353
v -0.13697797 0.10845055 -13.48198128 0.25098039 0.27450980 0.65882353
v -0.13874029 0.11052591 -13.48263931 0.25098039 0.27450980 0.65882353
v -0.13711372 0.11092243 -13.48275375 0.25098039 0.27450980 0.65882353
v -0.14937297 0.16422933 -13.46719170 0.25098039 0.27450980 0.65882353
v -0.08773510 0.19373277 -13.55437565 0.25098039 0.27450980 0.65882353
v -0.08933660 0.19036633 -13.54998779 0.25098039 0.27450980 0.65882353
v -0.10240321 0.18220937 -13.55631447 0.25098039 0.27450980 0.65882353
v -0.09774897 0.18231072 -13.55085659 0.25098039 0.27450980 0.65882353
v -0.10363942 0.18450007 -13.56249809 0.25098039 0.27450980 0.65882353
v -0.09864584 0.19281387 -13.56717110 0.25098039 0.27450980 0.65882353
v -0.10270178 0.18923119 -13.56567764 0.25098039 0.27450980 0.65882353
v -0.09305838 0.18550438 -13.54883671 0.25098039 0.27450980 0.65882353
v -0.08863965 0.19627428 -13.55949879 0.25098039 0.27450980 0.65882353
v -0.09322524 0.19648188 -13.56507778 0.25098039 0.27450980 0.65882353
v -0.08303936 0.19035642 -13.56310272 0.25098039 0.27450980 0.65882353
v -0.08804686 0.18997855 -13.56919956 0.25098039 0.27450980 0.65882353
v -0.09365907 0.18623377 -13.57166576 0.25098039 0.27450980 0.65882353
v -0.09905270 0.18297884 -13.56885338 0.25098039 0.27450980 0.65882353
v -0.10103692 0.18005928 -13.56545258 0.25098039 0.27450980 0.65882353
v -0.08453447 0.18806553 -13.55620193 0.25098039 0.27450980 0.65882353
v -0.08686738 0.18493043 -13.55199051 0.25098039 0.27450980 0.65882353
v -0.09203957 0.18112594 -13.55072594 0.25098039 0.27450980 0.65882353
v -0.08140354 0.18023096 -13.55698490 0.25098039 0.27450980 0.65882353
v -0.07906716 0.17284437 -13.56374454 0.25098039 0.27450980 0.65882353
v -0.08595765 0.15867463 -13.57420254 0.25098039 0.27450980 0.65882353
v -0.08914757 0.16461389 -13.57328320 0.25098039 0.27450980 0.65882353
v -0.08627370 0.16509762 -13.57327366 0.25098039 0.27450980 0.65882353
v -0.08355987 0.15986899 -13.57475376 0.25098039 0.27450980 0.65882353
v -0.08884864 0.17014450 -13.57287312 0.25098039 0.27450980 0.65882353
v -0.08676381 0.16916318 -13.57209873 0.25098039 0.27450980 0.65882353
v -0.08304670 0.17149791 -13.56927586 0.25098039 0.27450980 0.65882353
v -0.08050239 0.16670279 -13.57099628 0.25098039 0.27450980 0.65882353
v -0.07988960 0.17074117 -13.56551933 0.25098039 0.27450980 0.65882353
v -0.07819295 0.16701473 -13.56518936 0.25098039 0.27450980 0.65882353
v -0.07824031 0.16180521 -13.57200432 0.25098039 0.27450980 0.65882353
v -0.08023471 0.15735406 -13.57519722 0.25098039 0.27450980 0.65882353
v -0.07650986 0.15733893 -13.57267475 0.25098039 0.27450980 0.65882353
v -0.08201700 0.15509430 -13.57395458 0.25098039 0.27450980 0.65882353
v -0.08182105 0.17350745 -13.57080650 0.25098039 0.27450980 0.65882353
v -0.09498125 0.17374629 -13.57156086 0.25098039 0.27450980 0.65882353
v -0.09270354 0.16497219 -13.57155514 0.25098039 0.27450980 0.65882353
v -0.08879453 0.15798488 -13.57171822 0.25098039 0.27450980 0.65882353
v -0.08381264 0.15409543 -13.57138729 0.25098039 0.27450980 0.65882353
v -0.09504130 0.16455016 -13.56764030 0.25098039 0.27450980 0.65882353
v -0.09061985 0.15844950 -13.56750202 0.25098039 0.27450980 0.65882353
v -0.08575492 0.15519646 -13.56665993 0.25098039 0.27450980 0.65882353
v -0.09481986 0.16442040 -13.56283188 0.25098039 0.27450980 0.65882353
v -0.09022044 0.15915810 -13.56355476 0.25098039 0.27450980 0.65882353
v -0.09932351 0.17606327 -13.56057453 0.25098039 0.27450980 0.65882353
v -0.09924583 0.17525725 -13.56685448 0.25098039 0.27450980 0.65882353
v -0.08660991 0.15667957 -13.56426907 0.25098039 0.27450980 0.65882353
v -0.07621612 0.15485308 -13.57182884 0.25098039 0.27450980 0.65882353
v -0.07839364 0.15381709 -13.56860256 0.25098039 0.27450980 0.65882353
v -0.07765388 0.16784756 -13.56171608 0.25098039 0.27450980 0.65882353
v -0.07538038 0.16266805 -13.56644344 0.25098039 0.27450980 0.65882353
v -0.07571076 0.16223523 -13.56324196 0.25098039 0.27450980 0.65882353
v -0.07890999 0.16884701 -13.55784893 0.25098039 0.27450980 0.65882353
v -0.07663161 0.16168383 -13.56033993 0.25098039 0.27450980 0.65882353
v -0.07451811 0.15773517 -13.56668472 0.25098039 0.27450980 0.65882353
v -0.07479097 0.15941940 -13.56900215 0.25098039 0.27450980 0.65882353
v -0.10091522 0.17902564 -13.55930710 0.25098039 0.27450980 0.65882353
v -0.09746790 0.17965421 -13.55356789 0.25098039 0.27450980 0.65882353
v -0.09567143 0.17714503 -13.55493927 0.25098039 0.27450980 0.65882353
v -0.09158435 0.16615257 -13.55755043 0.25098039 0.27450980 0.65882353
v -0.09033585 0.17757304 -13.55202770 0.25098039 0.27450980 0.65882353
v -0.08469267 0.17906360 -13.55353165 0.25098039 0.27450980 0.65882353
v -0.08171433 0.16826242 -13.55516148 0.25098039 0.27450980 0.65882353
v -0.08649379 0.16735367 -13.55461025 0.25098039 0.27450980 0.65882353
v -0.07983261 0.16100660 -13.55838490 0.25098039 0.27450980 0.65882353
v -0.08299384 0.16065812 -13.55811882 0.25098039 0.27450980 0.65882353
v -0.08746096 0.15943608 -13.56008911 0.25098039 0.27450980 0.65882353
v -0.07932311 0.15701455 -13.56182384 0.25098039 0.27450980 0.65882353
v -0.07613932 0.15699911 -13.56372547 0.25098039 0.27450980 0.65882353
v -0.08145568 0.15480621 -13.56487370 0.25098039 0.27450980 0.65882353
v -0.08193646 0.15799069 -13.56078243 0.25098039 0.27450980 0.65882353
v -0.08398128 0.15673193 -13.56266594 0.25098039 0.27450980 0.65882353
v -0.14753276 0.16874839 -13.47847080 0.25098039 0.27450980 0.65882353
v -0.14151843 0.16814667 -13.48131847 0.25098039 0.27450980 0.65882353
v -0.14652662 0.17207447 -13.48347187 0.25098039 0.27450980 0.65882353
v -0.15194365 0.17912757 -13.48713493 0.25098039 0.27450980 0.65882353
v -0.16079696 0.18594728 -13.48726654 0.25098039 0.27450980 0.65882353
v -0.14603999 0.18051399 -13.49009800 0.25098039 0.27450980 0.65882353
v -0.14068893 0.17344396 -13.48567772 0.25098039 0.27450980 0.65882353
v -0.13376641 0.16740921 -13.48134041 0.25098039 0.27450980 0.65882353
v -0.14403266 0.18860957 -13.49606228 0.25098039 0.27450980 0.65882353
f 2 3 1
f 1 3 4
f 5 6 8
f 8 6 7
f 9 4 10
f 10 4 3
f 12 13 11
f 11 13 9
f 14 12 16
f 16 12 15
f 18 19 17
f 17 19 20
f 22 23 21
f 21 23 24
f 26 27 25
f 25 27 28
f 30 31 29
f 29 31 32
f 33 34 36
f 36 34 35
f 37 38 40
f 40 38 39
f 41 42 6
f 6 42 43
f 6 43 7
f 7 43 44
f 45 34 46
f 46 34 33
f 48 49 47
f 47 49 50
f 52 53 51
f 51 53 54
f 56 52 55
f 55 52 51
f 58 59 57
f 57 59 60
f 61 62 4
f 4 62 1
f 64 65 63
f 63 65 66
f 68 69 67
f 67 69 70
f 72 73 71
f 71 73 74
f 76 77 75
f 75 77 78
f 53 79 54
f 54 79 80
f 82 83 81
f 81 83 84
f 85 86 52
f 52 86 53
f 57 60 87
f 87 60 88
f 89 90 43
f 43 90 44
f 43 42 89
f 89 42 91
f 40 39 92
f 92 39 93
f 94 70 64
f 64 70 69
f 13 61 9
f 9 61 4
f 25 28 69
f 69 28 95
f 96 25 68
f 68 25 69
f 98 99 97
f 97 99 100
f 101 102 104
f 104 102 103
f 106 30 105
f 105 30 29
f 51 54 107
f 107 54 108
f 54 80 108
f 108 80 109
f 111 112 110
f 110 112 113
f 115 5 114
f 114 5 116
f 115 41 5
f 5 41 6
f 36 35 111
f 111 35 117
f 35 118 117
f 117 118 119
f 34 120 35
f 35 120 118
f 34 45 120
f 120 45 121
f 125 126 124
f 124 126 127
f 128 129 14
f 14 129 130
f 33 131 46
f 46 131 132
f 133 94 63
f 63 94 64
f 134 135 137
f 137 135 136
f 139 140 138
f 138 140 141
f 77 142 78
f 78 142 143
f 144 145 20
f 20 145 146
f 148 149 147
f 147 149 72
f 151 152 150
f 150 152 153
f 82 101 83
f 83 101 104
f 101 82 155
f 155 82 154
f 156 157 58
f 58 157 59
f 158 68 147
f 147 68 67
f 159 146 15
f 15 146 16
f 68 158 96
f 96 158 160
f 129 66 130
f 130 66 65
f 162 163 161
f 161 163 164
f 166 167 165
f 165 167 168
f 170 171 169
f 169 171 172
f 174 171 173
f 173 171 170
f 176 177 175
f 175 177 178
f 180 181 179
f 179 181 24
f 182 183 21
f 21 183 184
f 81 185 82
f 82 185 154
f 186 187 188
f 188 187 144
f 158 71 160
f 160 71 189
f 190 135 157
f 157 135 59
f 169 172 139
f 139 172 140
f 147 72 158
f 158 72 71
f 192 193 191
f 191 193 194
f 167 166 49
f 49 166 195
f 196 190 50
f 50 190 157
f 197 198 200
f 200 198 199
f 21 24 182
f 182 24 181
f 146 159 20
f 20 159 17
f 182 181 81
f 81 181 185
f 201 185 180
f 180 185 181
f 202 203 83
f 83 203 84
f 205 206 204
f 204 206 85
f 207 22 184
f 184 22 21
f 179 24 208
f 208 24 23
f 208 209 179
f 179 209 205
f 209 210 205
f 205 210 206
f 212 206 211
f 211 206 210
f 179 205 180
f 180 205 204
f 213 176 88
f 88 176 214
f 86 85 212
f 212 85 206
f 193 217 218
f 217 219 218
f 218 219 220
f 219 18 220
f 220 18 17
f 19 221 20
f 20 221 144
f 222 223 225
f 225 223 224
f 175 226 176
f 176 226 214
f 227 87 214
f 214 87 88
f 220 17 228
f 228 17 159
f 134 213 60
f 60 213 88
f 138 229 151
f 151 229 152
f 193 192 210
f 210 192 211
f 230 194 218
f 218 194 193
f 231 232 228
f 228 232 230
f 233 234 91
f 91 234 89
f 235 236 93
f 93 236 92
f 230 232 234
f 234 232 237
f 47 238 48
f 48 238 239
f 240 191 235
f 235 191 236
f 5 8 116
f 116 8 241
f 242 243 189
f 189 243 160
f 244 245 98
f 98 245 99
f 156 246 47
f 47 246 238
f 76 247 77
f 77 247 248
f 250 125 249
f 249 125 124
f 252 253 251
f 251 253 254
f 111 110 36
f 36 110 255
f 256 33 255
f 255 33 36
f 257 258 154
f 154 258 155
f 63 169 133
f 133 169 139
f 66 170 63
f 63 170 169
f 173 170 129
f 129 170 66
f 129 128 173
f 173 128 259
f 128 260 259
f 259 260 261
f 213 134 262
f 262 134 137
f 263 264 186
f 186 264 187
f 112 265 113
f 113 265 266
f 11 267 268
f 234 233 230
f 230 233 194
f 153 269 70
f 70 269 67
f 175 178 165
f 165 178 141
f 150 153 94
f 94 153 70
f 271 221 270
f 270 221 207
f 269 153 272
f 272 153 152
f 121 45 109
f 109 45 108
f 47 50 156
f 156 50 157
f 57 273 58
f 58 273 274
f 145 275 260
f 260 275 261
f 276 149 143
f 143 149 78
f 148 269 75
f 75 269 272
f 207 277 270
f 270 277 278
f 195 196 49
f 49 196 50
f 59 135 60
f 60 135 134
f 83 104 202
f 202 104 279
f 149 148 78
f 78 148 75
f 247 278 248
f 248 278 277
f 183 182 84
f 84 182 81
f 48 239 281
f 281 239 282
f 227 223 283
f 283 223 222
f 223 226 224
f 224 226 168
f 281 282 224
f 224 282 225
f 165 168 175
f 175 168 226
f 264 263 138
f 138 263 229
f 14 16 128
f 128 16 260
f 220 228 218
f 218 228 230
f 87 227 284
f 284 227 283
f 260 16 145
f 145 16 146
f 244 98 258
f 258 98 155
f 58 274 156
f 156 274 246
f 107 285 51
f 51 285 55
f 243 286 160
f 160 286 96
f 234 237 89
f 89 237 90
f 46 132 107
f 107 132 285
f 253 252 249
f 249 252 250
f 286 26 96
f 96 26 25
f 106 105 287
f 287 105 288
f 272 152 289
f 289 152 229
f 138 151 139
f 139 151 133
f 183 290 161
f 161 290 162
f 291 292 277
f 277 292 293
f 151 150 133
f 133 150 94
f 262 275 177
f 177 275 187
f 144 187 145
f 145 187 275
f 273 57 284
f 284 57 87
f 174 136 190
f 190 136 135
f 111 117 112
f 112 117 38
f 117 119 38
f 38 119 123
f 112 38 265
f 265 38 37
f 287 288 254
f 254 288 251
f 228 159 231
f 231 159 15
f 223 227 226
f 226 227 214
f 147 67 148
f 148 67 269
f 224 168 281
f 281 168 167
f 199 163 200
f 200 163 162
f 45 46 108
f 108 46 107
f 281 167 48
f 48 167 49
f 161 164 291
f 291 164 292
f 38 123 39
f 293 294 277
f 277 294 248
f 284 283 296
f 296 283 295
f 284 296 273
f 273 296 297
f 274 273 298
f 298 273 297
f 246 274 299
f 299 274 298
f 283 222 295
f 295 222 300
f 222 225 300
f 300 225 301
f 301 225 302
f 302 225 282
f 303 304 300
f 300 304 295
f 306 307 305
f 305 307 308
f 309 310 308
f 308 310 305
f 308 307 312
f 312 307 311
f 313 314 312
f 312 314 315
f 311 316 312
f 312 316 313
f 317 304 311
f 311 304 316
f 315 309 312
f 312 309 308
f 318 319 321
f 321 319 320
f 319 318 309
f 309 318 310
f 311 307 317
f 317 307 306
f 306 297 317
f 317 297 296
f 306 322 297
f 297 322 298
f 305 323 306
f 306 323 322
f 323 305 324
f 324 305 310
f 304 317 295
f 295 317 296
f 318 325 310
f 310 325 324
f 323 324 326
f 326 324 327
f 324 325 327
f 327 325 328
f 326 327 329
f 329 327 330
f 329 331 326
f 326 331 332
f 333 330 328
f 328 330 327
f 323 326 322
f 322 326 332
f 322 332 298
f 298 332 299
f 325 318 334
f 334 318 321
f 313 316 335
f 335 316 304
f 335 336 313
f 313 336 314
f 304 303 335
f 335 303 337
f 336 335 338
f 338 335 337
f 336 339 314
f 314 339 340
f 246 299 238
f 238 299 341
f 239 342 282
f 282 342 302
f 342 239 341
f 341 239 238
f 341 331 342
f 342 331 343
f 331 329 343
f 343 329 344
f 342 343 302
f 302 343 345
f 341 299 331
f 331 299 332
f 346 301 345
f 345 301 302
f 346 303 301
f 301 303 300
f 347 337 346
f 346 337 303
f 347 346 348
f 348 346 345
f 349 347 350
f 350 347 348
f 343 344 345
f 345 344 348
f 344 351 348
f 348 351 350
f 337 347 338
f 338 347 349
f 353 338 352
f 352 338 349
f 352 355 354
f 354 355 356
f 352 349 355
f 355 349 350
f 352 354 353
f 353 354 334
f 353 334 339
f 339 334 321
f 339 336 353
f 353 336 338
f 329 330 344
f 344 330 351
f 356 351 333
f 333 351 330
f 356 355 351
f 351 355 350
f 354 356 328
f 328 356 333
f 328 325 354
f 354 325 334
f 309 315 319
f 319 315 320
f 320 340 321
f 321 340 339
f 320 315 340
f 340 315 314
f 137 136 261
f 261 136 259
f 140 166 141
f 141 166 165
f 172 171 195
f 195 171 196
f 171 174 196
f 196 174 190
f 178 177 264
f 264 177 187
f 172 195 140
f 140 195 166
f 137 261 262
f 262 261 275
f 178 264 141
f 141 264 138
f 262 177 213
f 213 177 176
f 136 174 259
f 259 174 173
f 358 359 357
f 357 359 360
f 362 363 361
f 361 363 364
f 361 364 365
f 365 364 366
f 367 368 370
f 370 368 369
f 76 371 247
f 247 371 372
f 373 374 362
f 362 374 363
f 376 377 375
f 375 377 378
f 289 229 380
f 380 229 379
f 381 379 263
f 263 379 229
f 383 384 382
f 382 384 385
f 386 368 374
f 374 368 363
f 76 289 371
f 371 289 380
f 377 376 359
f 359 376 387
f 388 386 360
f 360 386 374
f 389 383 366
f 366 383 390
f 392 393 391
f 391 393 394
f 383 382 390
f 390 382 395
f 396 365 390
f 390 365 366
f 389 366 367
f 367 366 364
f 357 397 358
f 358 397 398
f 373 399 357
f 357 399 397
f 389 367 400
f 400 367 370
f 382 385 375
f 375 385 372
f 357 360 373
f 373 360 374
f 361 401 362
f 362 401 402
f 387 388 359
f 359 388 360
f 363 368 364
f 364 368 367
f 358 398 403
f 403 398 404
f 396 392 405
f 405 392 391
f 392 395 393
f 393 395 378
f 393 403 394
f 394 403 404
f 375 378 382
f 382 378 395
f 365 396 406
f 406 396 405
f 362 402 373
f 373 402 399
f 271 270 400
f 400 270 384
f 401 361 406
f 406 361 365
f 381 369 386
f 386 369 368
f 392 396 395
f 395 396 390
f 393 378 403
f 403 378 377
f 403 377 358
f 358 377 359
f 406 405 408
f 408 405 407
f 406 408 401
f 401 408 409
f 401 409 402
f 402 409 410
f 402 410 399
f 399 410 411
f 405 391 407
f 407 391 412
f 391 394 412
f 412 394 413
f 394 404 413
f 413 404 414
f 415 416 412
f 412 416 407
f 418 419 417
f 417 419 420
f 421 422 418
f 418 422 419
f 419 422 424
f 424 422 423
f 425 426 424
f 424 426 427
f 423 428 424
f 424 428 425
f 427 420 424
f 424 420 419
f 420 429 417
f 417 429 430
f 423 422 431
f 431 422 421
f 421 409 431
f 431 409 408
f 421 432 409
f 409 432 410
f 418 433 421
f 421 433 432
f 434 433 417
f 417 433 418
f 431 416 423
f 423 416 428
f 416 431 407
f 407 431 408
f 435 434 430
f 430 434 417
f 433 434 436
f 436 434 437
f 434 435 437
f 437 435 438
f 436 437 439
f 439 437 440
f 439 441 436
f 436 441 442
f 438 443 437
f 437 443 440
f 436 442 433
f 433 442 432
f 432 442 410
f 410 442 411
f 435 430 445
f 445 430 444
f 430 429 444
f 444 429 446
f 425 428 447
f 447 428 416
f 426 425 448
f 448 425 447
f 416 415 447
f 447 415 449
f 447 449 448
f 448 449 450
f 451 452 448
f 448 452 426
f 446 452 444
f 444 452 451
f 399 411 397
f 397 411 453
f 398 454 404
f 404 454 414
f 454 398 453
f 453 398 397
f 453 441 454
f 454 441 455
f 441 439 455
f 455 439 456
f 454 455 414
f 414 455 457
f 441 453 442
f 442 453 411
f 458 413 457
f 457 413 414
f 458 415 413
f 413 415 412
f 458 459 415
f 415 459 449
f 459 458 460
f 460 458 457
f 461 459 462
f 462 459 460
f 455 456 457
f 457 456 460
f 456 463 460
f 460 463 462
f 459 461 449
f 449 461 450
f 465 450 464
f 464 450 461
f 464 467 466
f 466 467 468
f 464 461 467
f 467 461 462
f 464 466 465
f 465 466 445
f 465 445 451
f 451 445 444
f 451 448 465
f 465 448 450
f 439 440 456
f 456 440 463
f 468 463 443
f 443 463 440
f 468 467 463
f 463 467 462
f 466 468 438
f 438 468 443
f 438 435 466
f 466 435 445
f 420 427 429
f 429 427 446
f 446 427 452
f 452 427 426
f 370 369 188
f 188 369 186
f 371 376 372
f 372 376 375
f 380 379 387
f 387 379 388
f 379 381 388
f 388 381 386
f 385 384 278
f 278 384 270
f 380 387 371
f 371 387 376
f 400 370 271
f 271 370 188
f 385 278 372
f 372 278 247
f 400 384 389
f 389 384 383
f 369 381 186
f 186 381 263
f 221 271 144
f 144 271 188
f 221 19 207
f 207 19 22
f 19 18 22
f 22 18 23
f 18 219 23
f 23 219 208
f 469 470 472
f 472 470 471
f 474 475 473
f 473 475 476
f 473 476 477
f 477 476 478
f 480 481 479
f 479 481 482
f 483 484 474
f 474 484 475
f 486 487 485
f 485 487 488
f 489 490 77
f 77 490 142
f 491 489 248
f 248 489 77
f 493 494 492
f 492 494 495
f 496 480 484
f 484 480 475
f 486 497 487
f 487 497 471
f 498 496 472
f 472 496 484
f 499 493 478
f 478 493 500
f 501 502 504
f 504 502 503
f 493 492 500
f 500 492 505
f 506 477 500
f 500 477 478
f 499 478 479
f 479 478 476
f 469 507 470
f 470 507 508
f 483 509 469
f 469 509 507
f 479 482 499
f 499 482 510
f 492 495 485
f 485 495 511
f 483 469 484
f 484 469 472
f 473 512 474
f 474 512 513
f 497 498 471
f 471 498 472
f 475 480 476
f 476 480 479
f 470 508 514
f 514 508 515
f 506 502 516
f 516 502 501
f 503 502 488
f 488 502 505
f 514 515 503
f 503 515 504
f 485 488 492
f 492 488 505
f 477 506 517
f 517 506 516
f 474 513 483
f 483 513 509
f 510 292 494
f 494 292 164
f 512 473 517
f 517 473 477
f 491 481 496
f 496 481 480
f 502 506 505
f 505 506 500
f 503 488 514
f 514 488 487
f 514 487 470
f 470 487 471
f 517 516 519
f 519 516 518
f 517 519 512
f 512 519 520
f 512 520 513
f 513 520 521
f 513 521 509
f 509 521 522
f 516 501 518
f 518 501 523
f 501 504 523
f 523 504 524
f 524 504 525
f 525 504 515
f 526 527 523
f 523 527 518
f 529 530 528
f 528 530 531
f 532 533 529
f 529 533 530
f 530 533 535
f 535 533 534
f 536 537 535
f 535 537 538
f 534 539 535
f 535 539 536
f 538 531 535
f 535 531 530
f 540 541 531
f 531 541 528
f 533 532 534
f 534 532 542
f 532 520 542
f 542 520 519
f 532 543 520
f 520 543 521
f 529 544 532
f 532 544 543
f 544 529 545
f 545 529 528
f 534 542 539
f 539 542 527
f 527 542 518
f 518 542 519
f 541 546 528
f 528 546 545
f 547 544 548
f 548 544 545
f 546 549 545
f 545 549 548
f 550 547 551
f 551 547 548
f 547 550 553
f 553 550 552
f 549 554 548
f 548 554 551
f 544 547 543
f 543 547 553
f 543 553 521
f 521 553 522
f 546 541 556
f 556 541 555
f 541 540 555
f 555 540 557
f 536 539 558
f 558 539 527
f 537 536 559
f 559 536 558
f 527 526 558
f 558 526 560
f 559 558 561
f 561 558 560
f 559 562 537
f 537 562 563
f 557 563 555
f 555 563 562
f 509 522 507
f 507 522 564
f 508 565 515
f 515 565 525
f 565 508 564
f 564 508 507
f 564 552 565
f 565 552 566
f 552 550 566
f 566 550 567
f 565 566 525
f 525 566 568
f 564 522 552
f 552 522 553
f 569 524 568
f 568 524 525
f 569 526 524
f 524 526 523
f 570 560 569
f 569 560 526
f 570 569 571
f 571 569 568
f 572 570 573
f 573 570 571
f 566 567 568
f 568 567 571
f 567 574 571
f 571 574 573
f 570 572 560
f 560 572 561
f 576 561 575
f 575 561 572
f 575 578 577
f 577 578 579
f 575 572 578
f 578 572 573
f 575 577 576
f 576 577 556
f 576 556 562
f 562 556 555
f 562 559 576
f 576 559 561
f 550 551 567
f 567 551 574
f 579 574 554
f 554 574 551
f 579 578 574
f 574 578 573
f 579 554 577
f 577 554 549
f 549 546 577
f 577 546 556
f 531 538 540
f 540 538 557
f 557 538 563
f 563 538 537
f 481 294 482
f 482 294 293
f 580 486 511
f 511 486 485
f 490 489 497
f 497 489 498
f 489 491 498
f 498 491 496
f 163 495 164
f 164 495 494
f 580 490 486
f 486 490 497
f 482 293 510
f 510 293 292
f 495 163 511
f 511 163 199
f 494 493 510
f 510 493 499
f 481 491 294
f 294 491 248
f 582 583 581
f 581 583 584
f 586 587 585
f 585 587 588
f 585 588 589
f 589 588 590
f 592 593 591
f 591 593 594
f 595 596 598
f 598 596 597
f 599 600 586
f 586 600 587
f 601 602 604
f 604 602 603
f 605 606 608
f 608 606 607
f 609 607 200
f 200 607 606
f 610 611 613
f 613 611 612
f 600 614 587
f 587 614 592
f 596 605 597
f 597 605 608
f 602 615 603
f 603 615 583
f 616 614 584
f 584 614 600
f 611 618 617
f 617 618 590
f 620 621 619
f 619 621 622
f 610 623 611
f 611 623 618
f 624 589 618
f 618 589 590
f 617 590 591
f 591 590 588
f 581 625 582
f 582 625 626
f 599 627 581
f 581 627 625
f 591 594 617
f 617 594 628
f 601 610 598
f 598 610 613
f 581 584 599
f 599 584 600
f 585 629 586
f 586 629 630
f 615 616 583
f 583 616 584
f 587 592 588
f 588 592 591
f 582 626 631
f 631 626 632
f 624 620 633
f 633 620 619
f 621 620 604
f 604 620 623
f 631 632 621
f 621 632 622
f 610 601 623
f 623 601 604
f 589 624 634
f 634 624 633
f 586 630 599
f 599 630 627
f 203 202 628
f 628 202 612
f 629 585 634
f 634 585 589
f 609 593 614
f 614 593 592
f 620 624 623
f 623 624 618
f 631 621 603
f 603 621 604
f 582 631 583
f 583 631 603
f 634 633 636
f 636 633 635
f 634 636 629
f 629 636 637
f 629 637 630
f 630 637 638
f 630 638 627
f 627 638 639
f 633 619 635
f 635 619 640
f 619 622 640
f 640 622 641
f 641 622 642
f 642 622 632
f 644 635 643
f 643 635 640
f 645 646 648
f 648 646 647
f 649 650 646
f 646 650 647
f 647 650 652
f 652 650 651
f 652 653 655
f 655 653 654
f 651 656 652
f 652 656 653
f 655 648 652
f 652 648 647
f 648 657 645
f 645 657 658
f 650 649 651
f 651 649 659
f 649 637 659
f 659 637 636
f 649 660 637
f 637 660 638
f 661 660 646
f 646 660 649
f 662 661 645
f 645 661 646
f 651 659 656
f 656 659 644
f 644 659 635
f 635 659 636
f 663 662 658
f 658 662 645
f 664 661 665
f 665 661 662
f 663 666 662
f 662 666 665
f 667 664 668
f 668 664 665
f 664 667 670
f 670 667 669
f 666 671 665
f 665 671 668
f 661 664 660
f 660 664 670
f 660 670 638
f 638 670 639
f 658 672 663
f 663 672 673
f 658 657 672
f 672 657 674
f 653 656 675
f 675 656 644
f 653 675 654
f 654 675 676
f 675 644 677
f 677 644 643
f 676 675 678
f 678 675 677
f 679 680 676
f 676 680 654
f 674 680 672
f 672 680 679
f 627 639 625
f 625 639 681
f 626 682 632
f 632 682 642
f 681 682 625
f 625 682 626
f 669 683 681
f 681 683 682
f 667 684 669
f 669 684 683
f 682 683 642
f 642 683 685
f 681 639 669
f 669 639 670
f 686 641 685
f 685 641 642
f 641 686 640
f 640 686 643
f 686 687 643
f 643 687 677
f 687 686 688
f 688 686 685
f 689 687 690
f 690 687 688
f 683 684 685
f 685 684 688
f 684 691 688
f 688 691 690
f 687 689 677
f 677 689 678
f 693 678 692
f 692 678 689
f 692 695 694
f 694 695 696
f 692 689 695
f 695 689 690
f 692 694 693
f 693 694 673
f 693 673 679
f 679 673 672
f 679 676 693
f 693 676 678
f 684 667 691
f 691 667 668
f 696 691 671
f 671 691 668
f 696 695 691
f 691 695 690
f 694 696 666
f 666 696 671
f 666 663 694
f 694 663 673
f 648 655 657
f 657 655 674
f 674 655 680
f 680 655 654
f 593 162 594
f 594 162 290
f 598 597 601
f 601 597 602
f 615 608 616
f 616 608 607
f 607 609 616
f 616 609 614
f 697 595 613
f 613 595 598
f 597 608 602
f 602 608 615
f 594 290 628
f 628 290 203
f 628 612 617
f 617 612 611
f 593 609 162
f 162 609 200
f 105 29 698
f 698 29 699
f 268 126 701
f 701 126 700
f 126 125 700
f 700 125 702
f 252 703 250
f 250 703 704
f 32 268 705
f 705 268 701
f 288 105 706
f 706 105 698
f 29 32 699
f 699 32 705
f 707 251 706
f 706 251 288
f 250 704 125
f 125 704 702
f 703 252 707
f 707 252 251
f 706 708 707
f 707 708 709
f 707 709 703
f 703 709 710
f 703 710 704
f 704 710 711
f 704 711 702
f 702 711 712
f 706 698 708
f 708 698 713
f 698 699 713
f 713 699 714
f 699 705 714
f 714 705 715
f 717 708 716
f 716 708 713
f 719 720 718
f 718 720 721
f 722 723 719
f 719 723 720
f 724 725 723
f 723 725 720
f 724 726 725
f 725 726 727
f 728 721 725
f 725 721 720
f 721 728 729
f 729 728 730
f 729 731 721
f 721 731 718
f 724 723 732
f 732 723 722
f 722 710 732
f 732 710 709
f 722 733 710
f 710 733 711
f 719 734 722
f 722 734 733
f 734 719 735
f 735 719 718
f 724 732 726
f 726 732 717
f 717 732 708
f 708 732 709
f 731 736 718
f 718 736 735
f 737 734 738
f 738 734 735
f 736 739 735
f 735 739 738
f 740 737 741
f 741 737 738
f 737 740 743
f 743 740 742
f 739 744 738
f 738 744 741
f 734 737 733
f 733 737 743
f 733 743 711
f 711 743 712
f 736 731 746
f 746 731 745
f 731 729 745
f 745 729 730
f 727 726 747
f 747 726 717
f 748 727 749
f 749 727 747
f 747 717 750
f 750 717 716
f 749 747 751
f 751 747 750
f 749 752 748
f 748 752 753
f 730 753 745
f 745 753 752
f 728 725 748
f 748 725 727
f 730 728 753
f 753 728 748
f 700 702 754
f 754 702 712
f 705 701 715
f 715 701 755
f 754 755 700
f 700 755 701
f 742 756 754
f 754 756 755
f 740 757 742
f 742 757 756
f 755 756 715
f 715 756 758
f 754 712 742
f 742 712 743
f 759 714 758
f 758 714 715
f 714 759 713
f 713 759 716
f 759 760 716
f 716 760 750
f 760 759 761
f 761 759 758
f 762 760 763
f 763 760 761
f 756 757 758
f 758 757 761
f 757 764 761
f 761 764 763
f 760 762 750
f 750 762 751
f 766 751 765
f 765 751 762
f 767 765 769
f 769 765 768
f 765 762 768
f 768 762 763
f 765 767 766
f 766 767 746
f 766 746 752
f 752 746 745
f 752 749 766
f 766 749 751
f 757 740 764
f 764 740 741
f 769 764 744
f 744 764 741
f 769 768 764
f 764 768 763
f 767 769 739
f 739 769 744
f 739 736 767
f 767 736 746
f 219 217 208
f 208 217 209
f 209 217 210
f 210 217 193
f 198 580 199
f 199 580 511
f 76 75 289
f 289 75 272
f 277 207 291
f 291 207 184
f 290 183 203
f 203 183 84
f 490 580 142
f 142 580 198
f 142 198 143
f 143 198 197
f 149 276 72
f 72 276 73
f 104 103 279
f 279 103 770
f 770 596 279
f 279 596 595
f 605 596 771
f 771 596 770
f 771 770 772
f 772 770 103
f 772 103 773
f 773 103 102
f 155 774 101
f 101 774 102
f 773 102 97
f 97 102 774
f 775 773 100
f 100 773 97
f 773 775 772
f 772 775 776
f 772 776 771
f 771 776 777
f 200 606 197
f 197 606 777
f 189 71 778
f 778 71 74
f 97 774 98
f 98 774 155
f 183 161 184
f 184 161 291
f 777 276 197
f 197 276 143
f 777 606 771
f 771 606 605
f 613 612 697
f 697 612 202
f 595 697 279
f 279 697 202
f 73 276 776
f 776 276 777
f 776 775 73
f 73 775 74
f 100 778 775
f 775 778 74
f 778 100 189
f 189 100 99
f 245 242 99
f 99 242 189
f 131 33 256
f 28 1 95
f 95 1 62
f 27 2 28
f 28 2 1
f 265 115 266
f 266 115 114
f 95 62 69
f 69 62 64
f 62 61 64
f 64 61 65
f 61 13 65
f 65 13 130
f 13 12 130
f 130 12 14
f 31 11 32
f 32 11 268
f 15 12 31
f 31 12 11
f 31 30 15
f 15 30 231
f 30 106 231
f 231 106 232
f 287 237 106
f 106 237 232
f 254 90 287
f 287 90 237
f 253 44 254
f 254 44 90
f 253 249 44
f 44 249 7
f 267 127 268
f 268 127 126
f 10 3 241
f 241 3 116
f 3 2 116
f 116 2 114
f 2 27 114
f 114 27 266
f 27 26 266
f 266 26 113
f 26 286 113
f 113 286 110
f 286 243 110
f 110 243 255
f 243 242 255
f 255 242 256
f 242 245 256
f 256 245 131
f 245 244 131
f 131 244 132
f 265 37 115
f 115 37 41
f 41 37 42
f 42 37 40
f 92 91 40
f 40 91 42
f 236 233 92
f 92 233 91
f 191 194 236
f 236 194 233
f 258 285 244
f 244 285 132
f 257 55 258
f 258 55 285
f 257 154 201
f 201 154 185
f 56 201 204
f 204 201 180
f 55 257 56
f 56 257 201
f 204 85 56
f 56 85 52
f 86 122 53
f 53 122 79
f 212 215 86
f 86 215 122
f 211 216 212
f 212 216 215
f 192 280 211
f 211 280 216
f 191 240 192
f 192 240 280
f 249 124 7
f 7 124 8
f 124 127 8
f 8 127 241
f 127 267 241
f 241 267 10
f 10 267 9
f 9 267 11
f 93 39 235
f 235 39 240
f 39 123 240
f 240 123 280
f 123 119 280
f 280 119 216
f 119 118 216
f 216 118 215
f 118 120 215
f 215 120 122
f 120 121 122
f 122 121 79
f 121 109 79
f 79 109 80

