# https://github.com/mikedh/trimesh
v -0.11373004 0.19885325 -13.50730038 0.25098039 0.27450980 0.65882353
v -0.12185045 0.20247793 -13.51284981 0.25098039 0.27450980 0.65882353
v -0.11522402 0.19847549 -13.52169800 0.25098039 0.27450980 0.65882353
v -0.10649188 0.19484451 -13.51390266 0.25098039 0.27450980 0.65882353
v -0.13265251 0.21135277 -13.53214931 0.25098039 0.27450980 0.65882353
v -0.13136154 0.22260630 -13.53809643 0.25098039 0.27450980 0.65882353
v -0.12119257 0.21314676 -13.54543209 0.25098039 0.27450980 0.65882353
v -0.12465373 0.20527413 -13.54003716 0.25098039 0.27450980 0.65882353
v -0.09999157 0.19378093 -13.51859665 0.25098039 0.27450980 0.65882353
v -0.11008166 0.19477651 -13.52790165 0.25098039 0.27450980 0.65882353
v -0.09645434 0.19835830 -13.52165413 0.25098039 0.27450980 0.65882353
v -0.08595979 0.20067178 -13.50780869 0.25098039 0.27450980 0.65882353
v -0.09113026 0.19585717 -13.50847244 0.25098039 0.27450980 0.65882353
v -0.08088516 0.19917266 -13.49908066 0.25098039 0.27450980 0.65882353
v -0.08654341 0.21062088 -13.50408840 0.25098039 0.27450980 0.65882353
v -0.08192170 0.20330130 -13.49020958 0.25098039 0.27450980 0.65882353
v -0.10505909 0.21529435 -13.47679901 0.25098039 0.27450980 0.65882353
v -0.11620809 0.21319611 -13.47004128 0.25098039 0.27450980 0.65882353
v -0.10773653 0.20151173 -13.46428871 0.25098039 0.27450980 0.65882353
v -0.09732425 0.20449458 -13.47231007 0.25098039 0.27450980 0.65882353
v -0.12738729 0.19873101 -13.46120071 0.25098039 0.27450980 0.65882353
v -0.11613928 0.19969432 -13.46222687 0.25098039 0.27450980 0.65882353
v -0.12435038 0.21221198 -13.46725655 0.25098039 0.27450980 0.65882353
v -0.13417307 0.21089281 -13.46594429 0.25098039 0.27450980 0.65882353
v -0.12808858 0.20250620 -13.49872684 0.25098039 0.27450980 0.65882353
v -0.13612467 0.20720427 -13.50266647 0.25098039 0.27450980 0.65882353
v -0.13051528 0.20628977 -13.50461197 0.25098039 0.27450980 0.65882353
v -0.12301983 0.20247358 -13.50139427 0.25098039 0.27450980 0.65882353
v -0.09465082 0.20407069 -13.53544044 0.25098039 0.27450980 0.65882353
v -0.09377721 0.21370411 -13.52512455 0.25098039 0.27450980 0.65882353
v -0.09269717 0.20634668 -13.52208424 0.25098039 0.27450980 0.65882353
v -0.09757383 0.19950044 -13.53471088 0.25098039 0.27450980 0.65882353
v -0.16075453 0.21878698 -13.51084900 0.25098039 0.27450980 0.65882353
v -0.16501561 0.23197755 -13.51178169 0.25098039 0.27450980 0.65882353
v -0.16018474 0.23396899 -13.51430893 0.25098039 0.27450980 0.65882353
v -0.15748730 0.22152552 -13.51245689 0.25098039 0.27450980 0.65882353
v -0.14369565 0.23257323 -13.52787399 0.25098039 0.27450980 0.65882353
v -0.14723808 0.24066541 -13.52400970 0.25098039 0.27450980 0.65882353
v -0.13983387 0.25289467 -13.52438450 0.25098039 0.27450980 0.65882353
v -0.13385089 0.24624762 -13.52713394 0.25098039 0.27450980 0.65882353
v -0.13782071 0.22647341 -13.53295517 0.25098039 0.27450980 0.65882353
v -0.13029307 0.23801579 -13.53349400 0.25098039 0.27450980 0.65882353
v -0.12451982 0.23209047 -13.53897190 0.25098039 0.27450980 0.65882353
v -0.11547121 0.22027251 -13.54720116 0.25098039 0.27450980 0.65882353
v -0.17397493 0.22924107 -13.50323868 0.25098039 0.27450980 0.65882353
v -0.17287382 0.21942553 -13.50142097 0.25098039 0.27450980 0.65882353
v -0.05581278 0.15964006 -13.48966026 0.25098039 0.27450980 0.65882353
v -0.05982897 0.15635636 -13.48707867 0.25098039 0.27450980 0.65882353
v -0.06185463 0.15992956 -13.48711014 0.25098039 0.27450980 0.65882353
v -0.05758779 0.16270825 -13.48930264 0.25098039 0.27450980 0.65882353
v -0.17395705 0.22863220 -13.48326874 0.25098039 0.27450980 0.65882353
v -0.16875365 0.23373285 -13.47613144 0.25098039 0.27450980 0.65882353
v -0.17340785 0.23778842 -13.47887135 0.25098039 0.27450980 0.65882353
v -0.17683637 0.23430808 -13.48655701 0.25098039 0.27450980 0.65882353
v -0.16973421 0.22111800 -13.47865582 0.25098039 0.27450980 0.65882353
v -0.16219461 0.22764730 -13.47279930 0.25098039 0.27450980 0.65882353
v -0.04665735 0.16108316 -13.48136330 0.25098039 0.27450980 0.65882353
v -0.04810551 0.16143338 -13.48620415 0.25098039 0.27450980 0.65882353
v -0.04968084 0.16582163 -13.48450375 0.25098039 0.27450980 0.65882353
v -0.04888043 0.16589177 -13.47923088 0.25098039 0.27450980 0.65882353
v -0.09822980 0.19390310 -13.50687408 0.25098039 0.27450980 0.65882353
v -0.10683884 0.19408837 -13.50315666 0.25098039 0.27450980 0.65882353
v -0.08680326 0.18222779 -13.49628448 0.25098039 0.27450980 0.65882353
v -0.09540123 0.18754575 -13.49784374 0.25098039 0.27450980 0.65882353
v -0.09041643 0.19125138 -13.50162506 0.25098039 0.27450980 0.65882353
v -0.08331688 0.18766366 -13.49881077 0.25098039 0.27450980 0.65882353
v -0.11636667 0.18594679 -13.48741913 0.25098039 0.27450980 0.65882353
v -0.12339205 0.19433543 -13.49210930 0.25098039 0.27450980 0.65882353
v -0.11721489 0.19518396 -13.49434280 0.25098039 0.27450980 0.65882353
v -0.10854551 0.18567085 -13.49079227 0.25098039 0.27450980 0.65882353
v -0.13586865 0.18980047 -13.48797894 0.25098039 0.27450980 0.65882353
v -0.12798220 0.18217820 -13.48364925 0.25098039 0.27450980 0.65882353
v -0.13621467 0.18058437 -13.48201561 0.25098039 0.27450980 0.65882353
v -0.14071999 0.18579970 -13.48598957 0.25098039 0.27450980 0.65882353
v -0.11117055 0.17013122 -13.47585487 0.25098039 0.27450980 0.65882353
v -0.10488878 0.16667059 -13.47038269 0.25098039 0.27450980 0.65882353
v -0.10707393 0.16558126 -13.46834660 0.25098039 0.27450980 0.65882353
v -0.11411989 0.16962987 -13.47449875 0.25098039 0.27450980 0.65882353
v -0.17716633 0.24275832 -13.48047924 0.25098039 0.27450980 0.65882353
v -0.17833176 0.24023274 -13.48930264 0.25098039 0.27450980 0.65882353
v -0.14703843 0.19371600 -13.46043110 0.25098039 0.27450980 0.65882353
v -0.15658511 0.19149536 -13.46535015 0.25098039 0.27450980 0.65882353
v -0.15214828 0.18053517 -13.46056652 0.25098039 0.27450980 0.65882353
v -0.14379314 0.18577449 -13.45682526 0.25098039 0.27450980 0.65882353
v -0.15994006 0.23811910 -13.47319889 0.25098039 0.27450980 0.65882353
v -0.16573359 0.24213848 -13.47416115 0.25098039 0.27450980 0.65882353
v -0.04809204 0.15889199 -13.47597980 0.25098039 0.27450980 0.65882353
v -0.05020542 0.16357692 -13.47386837 0.25098039 0.27450980 0.65882353
v -0.11636518 0.23868461 -13.53090286 0.25098039 0.27450980 0.65882353
v -0.10772488 0.22485825 -13.54281044 0.25098039 0.27450980 0.65882353
v -0.12370582 0.24746846 -13.52347660 0.25098039 0.27450980 0.65882353
v -0.12845327 0.25367996 -13.51840878 0.25098039 0.27450980 0.65882353
v -0.13285547 0.25971082 -13.51686954 0.25098039 0.27450980 0.65882353
v -0.09733273 0.18249334 -13.49319649 0.25098039 0.27450980 0.65882353
v -0.11507252 0.19732462 -13.49965000 0.25098039 0.27450980 0.65882353
v -0.13269432 0.20133442 -13.49649143 0.25098039 0.27450980 0.65882353
v -0.15840788 0.18855423 -13.48636436 0.25098039 0.27450980 0.65882353
v -0.16456796 0.19650884 -13.49069118 0.25098039 0.27450980 0.65882353
v -0.15424353 0.19591933 -13.49451828 0.25098039 0.27450980 0.65882353
v -0.15095215 0.18920508 -13.48941994 0.25098039 0.27450980 0.65882353
v -0.16014434 0.18566179 -13.47134686 0.25098039 0.27450980 0.65882353
v -0.15688096 0.18179144 -13.47712803 0.25098039 0.27450980 0.65882353
v -0.15196015 0.17466240 -13.47385025 0.25098039 0.27450980 0.65882353
v -0.15493058 0.17742738 -13.46773243 0.25098039 0.27450980 0.65882353
v -0.09326161 0.20857252 -13.54070759 0.25098039 0.27450980 0.65882353
v -0.09492700 0.21949108 -13.52834034 0.25098039 0.27450980 0.65882353
v -0.17607629 0.22415549 -13.49229908 0.25098039 0.27450980 0.65882353
v -0.17692468 0.23077154 -13.49605274 0.25098039 0.27450980 0.65882353
v -0.17806430 0.23932770 -13.49650955 0.25098039 0.27450980 0.65882353
v -0.14809747 0.21266642 -13.50753307 0.25098039 0.27450980 0.65882353
v -0.15535647 0.22332823 -13.51363754 0.25098039 0.27450980 0.65882353
v -0.15240964 0.22321664 -13.51599026 0.25098039 0.27450980 0.65882353
v -0.14529106 0.21249138 -13.50810623 0.25098039 0.27450980 0.65882353
v -0.13246092 0.20663697 -13.51809311 0.25098039 0.27450980 0.65882353
v -0.14081119 0.21610099 -13.52375984 0.25098039 0.27450980 0.65882353
v -0.12619072 0.20193180 -13.52732277 0.25098039 0.27450980 0.65882353
v -0.15500690 0.23788910 -13.51847553 0.25098039 0.27450980 0.65882353
v -0.16383624 0.24340431 -13.51630497 0.25098039 0.27450980 0.65882353
v -0.15693976 0.24703528 -13.52011490 0.25098039 0.27450980 0.65882353
v -0.17080964 0.24107742 -13.51022625 0.25098039 0.27450980 0.65882353
v -0.17553447 0.23932266 -13.50313568 0.25098039 0.27450980 0.65882353
v -0.17012742 0.24783795 -13.47254562 0.25098039 0.27450980 0.65882353
v -0.14974749 0.25039607 -13.52265453 0.25098039 0.27450980 0.65882353
v -0.11803363 0.20048684 -13.54470348 0.25098039 0.27450980 0.65882353
v -0.11227512 0.19559932 -13.54796314 0.25098039 0.27450980 0.65882353
v -0.10966516 0.19301131 -13.54149723 0.25098039 0.27450980 0.65882353
v -0.11496544 0.19654125 -13.53788567 0.25098039 0.27450980 0.65882353
v -0.07520154 0.19513074 -13.49210358 0.25098039 0.27450980 0.65882353
v -0.07842742 0.19093826 -13.49726105 0.25098039 0.27450980 0.65882353
v -0.08483778 0.19563527 -13.50356102 0.25098039 0.27450980 0.65882353
v -0.15908235 0.20970224 -13.50451851 0.25098039 0.27450980 0.65882353
v -0.17016670 0.21024910 -13.49671364 0.25098039 0.27450980 0.65882353
v -0.08777519 0.17752716 -13.49117279 0.25098039 0.27450980 0.65882353
v -0.05221547 0.17056072 -13.47899914 0.25098039 0.27450980 0.65882353
v -0.05283688 0.17043892 -13.48472118 0.25098039 0.27450980 0.65882353
v -0.06548283 0.18422702 -13.48816586 0.25098039 0.27450980 0.65882353
v -0.06456459 0.18473022 -13.48128891 0.25098039 0.27450980 0.65882353
v -0.08181098 0.17380857 -13.48120785 0.25098039 0.27450980 0.65882353
v -0.08316575 0.17441818 -13.48797703 0.25098039 0.27450980 0.65882353
v -0.08037996 0.17347711 -13.48575115 0.25098039 0.27450980 0.65882353
v -0.07944076 0.17044373 -13.47992706 0.25098039 0.27450980 0.65882353
v -0.11607417 0.16494094 -13.46888828 0.25098039 0.27450980 0.65882353
v -0.12218504 0.16874596 -13.47368240 0.25098039 0.27450980 0.65882353
v -0.08996703 0.19073005 -13.46888924 0.25098039 0.27450980 0.65882353
v -0.08137928 0.19881158 -13.47537136 0.25098039 0.27450980 0.65882353
v -0.08829266 0.20660108 -13.47999477 0.25098039 0.27450980 0.65882353
v -0.12331477 0.18464874 -13.48528481 0.25098039 0.27450980 0.65882353
v -0.11746219 0.17657304 -13.48080349 0.25098039 0.27450980 0.65882353
v -0.12099913 0.17550427 -13.47927380 0.25098039 0.27450980 0.65882353
v -0.09699182 0.17918625 -13.48936844 0.25098039 0.27450980 0.65882353
v -0.08956653 0.17491287 -13.48600960 0.25098039 0.27450980 0.65882353
v -0.09563297 0.17558861 -13.48462200 0.25098039 0.27450980 0.65882353
v -0.10209921 0.17978410 -13.48695755 0.25098039 0.27450980 0.65882353
v -0.16195181 0.20292889 -13.46894646 0.25098039 0.27450980 0.65882353
v -0.16646114 0.19619298 -13.47568226 0.25098039 0.27450980 0.65882353
v -0.05149089 0.16115776 -13.48929214 0.25098039 0.27450980 0.65882353
v -0.05306545 0.16493824 -13.48825455 0.25098039 0.27450980 0.65882353
v -0.12988606 0.19296263 -13.48955536 0.25098039 0.27450980 0.65882353
v -0.09614971 0.21548124 -13.48575687 0.25098039 0.27450980 0.65882353
v -0.13740367 0.19970757 -13.49489784 0.25098039 0.27450980 0.65882353
v -0.12705541 0.17765969 -13.45521736 0.25098039 0.27450980 0.65882353
v -0.12959853 0.17127559 -13.45923996 0.25098039 0.27450980 0.65882353
v -0.12487813 0.16739301 -13.45745659 0.25098039 0.27450980 0.65882353
v -0.12282766 0.17117530 -13.45266438 0.25098039 0.27450980 0.65882353
v -0.06836887 0.15982375 -13.47703171 0.25098039 0.27450980 0.65882353
v -0.06826594 0.15952876 -13.48270798 0.25098039 0.27450980 0.65882353
v -0.06457755 0.15715617 -13.48211288 0.25098039 0.27450980 0.65882353
v -0.06421240 0.15661883 -13.47636032 0.25098039 0.27450980 0.65882353
v -0.08146596 0.17754835 -13.49262047 0.25098039 0.27450980 0.65882353
v -0.07829008 0.18265244 -13.49550247 0.25098039 0.27450980 0.65882353
v -0.07440835 0.17775770 -13.49333668 0.25098039 0.27450980 0.65882353
v -0.07771540 0.17482680 -13.48965359 0.25098039 0.27450980 0.65882353
v -0.07331704 0.18627673 -13.49369144 0.25098039 0.27450980 0.65882353
v -0.06948085 0.18176673 -13.49272060 0.25098039 0.27450980 0.65882353
v -0.06492600 0.16229747 -13.47208309 0.25098039 0.27450980 0.65882353
v -0.05873460 0.16616735 -13.47045612 0.25098039 0.27450980 0.65882353
v -0.07130063 0.17827800 -13.47167873 0.25098039 0.27450980 0.65882353
v -0.07511260 0.17187077 -13.47406483 0.25098039 0.27450980 0.65882353
v -0.13986267 0.22338143 -13.46986771 0.25098039 0.27450980 0.65882353
v -0.15001668 0.22007996 -13.46810436 0.25098039 0.27450980 0.65882353
v -0.14419253 0.20746726 -13.46438980 0.25098039 0.27450980 0.65882353
v -0.13874471 0.19559461 -13.46006107 0.25098039 0.27450980 0.65882353
v -0.13293770 0.18370968 -13.45667267 0.25098039 0.27450980 0.65882353
v -0.12241230 0.18850487 -13.45591354 0.25098039 0.27450980 0.65882353
v -0.15186648 0.20587604 -13.46463490 0.25098039 0.27450980 0.65882353
v -0.08540413 0.17789739 -13.47341537 0.25098039 0.27450980 0.65882353
v -0.08060208 0.18603531 -13.47240829 0.25098039 0.27450980 0.65882353
v -0.08650544 0.18394762 -13.46988392 0.25098039 0.27450980 0.65882353
v -0.14389651 0.19654366 -13.49358654 0.25098039 0.27450980 0.65882353
v -0.05602001 0.16881023 -13.48915482 0.25098039 0.27450980 0.65882353
v -0.12864551 0.25519511 -13.49524593 0.25098039 0.27450980 0.65882353
v -0.13626997 0.25311923 -13.48444939 0.25098039 0.27450980 0.65882353
v -0.13201788 0.24658418 -13.48492718 0.25098039 0.27450980 0.65882353
v -0.12343094 0.24864030 -13.49730873 0.25098039 0.27450980 0.65882353
v -0.06561467 0.16186115 -13.48848534 0.25098039 0.27450980 0.65882353
v -0.06089200 0.16532406 -13.49137402 0.25098039 0.27450980 0.65882353
v -0.12714823 0.16598390 -13.47093964 0.25098039 0.27450980 0.65882353
v -0.12126802 0.16370369 -13.46684837 0.25098039 0.27450980 0.65882353
v -0.12282638 0.16340439 -13.46299744 0.25098039 0.27450980 0.65882353
v -0.13008320 0.16283074 -13.46738052 0.25098039 0.27450980 0.65882353
v -0.15574968 0.21938032 -13.46832561 0.25098039 0.27450980 0.65882353
v -0.15019907 0.17326695 -13.45912457 0.25098039 0.27450980 0.65882353
v -0.14284003 0.17824197 -13.45492649 0.25098039 0.27450980 0.65882353
v -0.15458012 0.23129766 -13.47141647 0.25098039 0.27450980 0.65882353
v -0.14565036 0.23424034 -13.47250938 0.25098039 0.27450980 0.65882353
v -0.14994773 0.24190840 -13.47386169 0.25098039 0.27450980 0.65882353
v -0.10694802 0.18603557 -13.45813179 0.25098039 0.27450980 0.65882353
v -0.13196921 0.22380446 -13.47161961 0.25098039 0.27450980 0.65882353
v -0.13874060 0.23470432 -13.47487926 0.25098039 0.27450980 0.65882353
v -0.14356118 0.24407233 -13.47641659 0.25098039 0.27450980 0.65882353
v -0.14670184 0.25091654 -13.47644711 0.25098039 0.27450980 0.65882353
v -0.15364762 0.24737716 -13.47423077 0.25098039 0.27450980 0.65882353
v -0.05426672 0.16823132 -13.47357178 0.25098039 0.27450980 0.65882353
v -0.05462278 0.16033131 -13.47014427 0.25098039 0.27450980 0.65882353
v -0.15745257 0.25370625 -13.47276115 0.25098039 0.27450980 0.65882353
v -0.14938785 0.25689265 -13.47583389 0.25098039 0.27450980 0.65882353
v -0.13067840 0.23568647 -13.47862148 0.25098039 0.27450980 0.65882353
v -0.12204783 0.23630886 -13.48431683 0.25098039 0.27450980 0.65882353
v -0.12429553 0.22536319 -13.47450542 0.25098039 0.27450980 0.65882353
v -0.11456206 0.22551766 -13.47985744 0.25098039 0.27450980 0.65882353
v -0.09947731 0.19283268 -13.46008873 0.25098039 0.27450980 0.65882353
v -0.05211446 0.14400385 -13.47607994 0.25098039 0.27450980 0.65882353
v -0.05764532 0.15309212 -13.47271919 0.25098039 0.27450980 0.65882353
v -0.06168120 0.15256867 -13.47674274 0.25098039 0.27450980 0.65882353
v -0.05606155 0.14315686 -13.47792816 0.25098039 0.27450980 0.65882353
v -0.06080069 0.15789828 -13.47193336 0.25098039 0.27450980 0.65882353
v -0.05248669 0.15591356 -13.47217274 0.25098039 0.27450980 0.65882353
v -0.10453780 0.22559401 -13.49127483 0.25098039 0.27450980 0.65882353
v -0.08935644 0.17237619 -13.48012066 0.25098039 0.27450980 0.65882353
v -0.11238687 0.23721036 -13.49947548 0.25098039 0.27450980 0.65882353
v -0.09351538 0.22099866 -13.50670433 0.25098039 0.27450980 0.65882353
v -0.10076997 0.22855857 -13.51419163 0.25098039 0.27450980 0.65882353
v -0.11955743 0.24963874 -13.50896072 0.25098039 0.27450980 0.65882353
v -0.11016811 0.24046621 -13.51854420 0.25098039 0.27450980 0.65882353
v -0.13068119 0.26126912 -13.50653267 0.25098039 0.27450980 0.65882353
v -0.12544775 0.25517169 -13.50649548 0.25098039 0.27450980 0.65882353
v -0.10273069 0.23041283 -13.53024769 0.25098039 0.27450980 0.65882353
v -0.05407888 0.14950168 -13.49096489 0.25098039 0.27450980 0.65882353
v -0.05807248 0.14710832 -13.48760986 0.25098039 0.27450980 0.65882353
v -0.13257357 0.26154348 -13.49502659 0.25098039 0.27450980 0.65882353
v -0.11967464 0.19892079 -13.53383350 0.25098039 0.27450980 0.65882353
v -0.14877173 0.20396188 -13.49956322 0.25098039 0.27450980 0.65882353
v -0.14352171 0.20537791 -13.50083256 0.25098039 0.27450980 0.65882353
v -0.16737312 0.20196855 -13.49264240 0.25098039 0.27450980 0.65882353
v -0.15612395 0.20254147 -13.49866104 0.25098039 0.27450980 0.65882353
v -0.04903360 0.15139504 -13.49138546 0.25098039 0.27450980 0.65882353
v -0.10110693 0.16648012 -13.46448135 0.25098039 0.27450980 0.65882353
v -0.10363163 0.16798568 -13.46410465 0.25098039 0.27450980 0.65882353
v -0.11596768 0.20646401 -13.54999256 0.25098039 0.27450980 0.65882353
v -0.11167493 0.20123902 -13.55277729 0.25098039 0.27450980 0.65882353
v -0.10061666 0.20791626 -13.55295753 0.25098039 0.27450980 0.65882353
v -0.10675688 0.20531172 -13.55513954 0.25098039 0.27450980 0.65882353
v -0.11045282 0.21252431 -13.55199051 0.25098039 0.27450980 0.65882353
v -0.10413744 0.21577144 -13.54959202 0.25098039 0.27450980 0.65882353
v -0.15000920 0.21180584 -13.50724506 0.25098039 0.27450980 0.65882353
v -0.15315577 0.21058422 -13.50620651 0.25098039 0.27450980 0.65882353
v -0.16630532 0.21261355 -13.47386932 0.25098039 0.27450980 0.65882353
v -0.17007491 0.20578064 -13.48115540 0.25098039 0.27450980 0.65882353
v -0.07059394 0.18954301 -13.48881531 0.25098039 0.27450980 0.65882353
v -0.07565579 0.19716924 -13.48372459 0.25098039 0.27450980 0.65882353
v -0.07048200 0.19058123 -13.48173046 0.25098039 0.27450980 0.65882353
v -0.06775409 0.18383604 -13.47499752 0.25098039 0.27450980 0.65882353
v -0.08523738 0.17305276 -13.47599602 0.25098039 0.27450980 0.65882353
v -0.08065473 0.17628801 -13.47616959 0.25098039 0.27450980 0.65882353
v -0.14709395 0.21876334 -13.51939011 0.25098039 0.27450980 0.65882353
v -0.13924897 0.21018501 -13.51078033 0.25098039 0.27450980 0.65882353
v -0.10751367 0.19521689 -13.53222275 0.25098039 0.27450980 0.65882353
v -0.10382807 0.19420308 -13.53608418 0.25098039 0.27450980 0.65882353
v -0.10977110 0.17978132 -13.48450947 0.25098039 0.27450980 0.65882353
v -0.09809449 0.17766571 -13.45730877 0.25098039 0.27450980 0.65882353
v -0.09238094 0.18311073 -13.45913219 0.25098039 0.27450980 0.65882353
v -0.10334665 0.17387256 -13.48054028 0.25098039 0.27450980 0.65882353
v -0.04306002 0.15063289 -13.48496819 0.25098039 0.27450980 0.65882353
v -0.04558079 0.15146245 -13.48939323 0.25098039 0.27450980 0.65882353
v -0.07407370 0.19023624 -13.47535229 0.25098039 0.27450980 0.65882353
v -0.12889943 0.17292716 -13.47834206 0.25098039 0.27450980 0.65882353
v -0.10700411 0.17938015 -13.45756626 0.25098039 0.27450980 0.65882353
v -0.10014123 0.17107281 -13.45882320 0.25098039 0.27450980 0.65882353
v -0.15175411 0.17247623 -13.46676350 0.25098039 0.27450980 0.65882353
v -0.14014189 0.25971827 -13.48491764 0.25098039 0.27450980 0.65882353
v -0.06265242 0.15310976 -13.48230171 0.25098039 0.27450980 0.65882353
v -0.05958883 0.14513609 -13.48308277 0.25098039 0.27450980 0.65882353
v -0.04843268 0.14624223 -13.47605133 0.25098039 0.27450980 0.65882353
v -0.04440306 0.14948489 -13.47909164 0.25098039 0.27450980 0.65882353
v -0.17279887 0.21398047 -13.48730659 0.25098039 0.27450980 0.65882353
v -0.14033923 0.20646265 -13.50105858 0.25098039 0.27450980 0.65882353
v -0.09863436 0.22014065 -13.54022598 0.25098039 0.27450980 0.65882353
v -0.09575824 0.20935024 -13.54760742 0.25098039 0.27450980 0.65882353
v -0.09902264 0.17013015 -13.47716713 0.25098039 0.27450980 0.65882353
v -0.13445765 0.17645153 -13.45668793 0.25098039 0.27450980 0.65882353
v -0.11869462 0.18084529 -13.45287418 0.25098039 0.27450980 0.65882353
v -0.11520587 0.17428303 -13.44962692 0.25098039 0.27450980 0.65882353
v -0.10792373 0.17313509 -13.45202637 0.25098039 0.27450980 0.65882353
v -0.10331528 0.16932136 -13.45686722 0.25098039 0.27450980 0.65882353
v -0.04738139 0.14096177 -13.47835922 0.25098039 0.27450980 0.65882353
v -0.04332611 0.14430642 -13.48118591 0.25098039 0.27450980 0.65882353
v -0.04209198 0.14587831 -13.48687363 0.25098039 0.27450980 0.65882353
v -0.04431093 0.14747310 -13.49066830 0.25098039 0.27450980 0.65882353
v -0.04843935 0.14814255 -13.49210835 0.25098039 0.27450980 0.65882353
v -0.05114308 0.13866954 -13.47883606 0.25098039 0.27450980 0.65882353
v -0.05462630 0.13841888 -13.48081970 0.25098039 0.27450980 0.65882353
v -0.05827297 0.14195664 -13.48409462 0.25098039 0.27450980 0.65882353
v -0.05197816 0.13483480 -13.48222733 0.25098039 0.27450980 0.65882353
v -0.04693279 0.13361794 -13.48340797 0.25098039 0.27450980 0.65882353
v -0.04345335 0.13550517 -13.49678230 0.25098039 0.27450980 0.65882353
v -0.04203869 0.13858989 -13.49174690 0.25098039 0.27450980 0.65882353
v -0.04228178 0.13585131 -13.49188995 0.25098039 0.27450980 0.65882353
v -0.04346082 0.13258901 -13.49561882 0.25098039 0.27450980 0.65882353
v -0.04428940 0.12808856 -13.49822712 0.25098039 0.27450980 0.65882353
v -0.04431041 0.13088909 -13.50031567 0.25098039 0.27450980 0.65882353
v -0.04338202 0.13558275 -13.48733330 0.25098039 0.27450980 0.65882353
v -0.04477116 0.13050216 -13.49173641 0.25098039 0.27450980 0.65882353
v -0.04750276 0.12878402 -13.48915768 0.25098039 0.27450980 0.65882353
v -0.04773849 0.12438954 -13.49283600 0.25098039 0.27450980 0.65882353
v -0.04519598 0.12571475 -13.49509907 0.25098039 0.27450980 0.65882353
v -0.04622154 0.13225982 -13.48626137 0.25098039 0.27450980 0.65882353
v -0.04266228 0.13734506 -13.48543835 0.25098039 0.27450980 0.65882353
v -0.04557274 0.12640619 -13.50127983 0.25098039 0.27450980 0.65882353
v -0.04469013 0.12517966 -13.49932766 0.25098039 0.27450980 0.65882353
v -0.04599456 0.12338239 -13.49723816 0.25098039 0.27450980 0.65882353
v -0.04759948 0.12215523 -13.49960232 0.25098039 0.27450980 0.65882353
v -0.04448801 0.14357883 -13.49331474 0.25098039 0.27450980 0.65882353
v -0.04494852 0.13690811 -13.49839211 0.25098039 0.27450980 0.65882353
v -0.04706362 0.13189900 -13.50122452 0.25098039 0.27450980 0.65882353
v -0.04811767 0.12737535 -13.50203419 0.25098039 0.27450980 0.65882353
v -0.04892991 0.13659580 -13.49924850 0.25098039 0.27450980 0.65882353
v -0.04995729 0.13222620 -13.50099087 0.25098039 0.27450980 0.65882353
v -0.05116743 0.12836578 -13.50130558 0.25098039 0.27450980 0.65882353
v -0.05292322 0.13552783 -13.49863625 0.25098039 0.27450980 0.65882353
v -0.05289711 0.13163252 -13.50000763 0.25098039 0.27450980 0.65882353
v -0.05218628 0.14492759 -13.49266434 0.25098039 0.27450980 0.65882353
v -0.04827109 0.14621404 -13.49348450 0.25098039 0.27450980 0.65882353
v -0.05317861 0.12917456 -13.50087261 0.25098039 0.27450980 0.65882353
v -0.04977970 0.12260989 -13.50009537 0.25098039 0.27450980 0.65882353
v -0.05042684 0.12952763 -13.48706341 0.25098039 0.27450980 0.65882353
v -0.05092879 0.12479298 -13.49256992 0.25098039 0.27450980 0.65882353
v -0.05283242 0.12987880 -13.48722076 0.25098039 0.27450980 0.65882353
v -0.05332145 0.12493098 -13.49231815 0.25098039 0.27450980 0.65882353
v -0.05022557 0.12135889 -13.49567604 0.25098039 0.27450980 0.65882353
v -0.04798622 0.12257872 -13.49534607 0.25098039 0.27450980 0.65882353
v -0.05349478 0.14739360 -13.49095726 0.25098039 0.27450980 0.65882353
v -0.05750115 0.14472952 -13.48750305 0.25098039 0.27450980 0.65882353
v -0.05659665 0.14244454 -13.48902225 0.25098039 0.27450980 0.65882353
v -0.05642150 0.13383788 -13.49590206 0.25098039 0.27450980 0.65882353
v -0.05777939 0.13943559 -13.48633766 0.25098039 0.27450980 0.65882353
v -0.05530724 0.13510895 -13.48427296 0.25098039 0.27450980 0.65882353
v -0.05527872 0.12992579 -13.48901749 0.25098039 0.27450980 0.65882353
v -0.05699070 0.13127521 -13.49158955 0.25098039 0.27450980 0.65882353
v -0.05523258 0.12622786 -13.49312401 0.25098039 0.27450980 0.65882353
v -0.05588078 0.12795565 -13.49479008 0.25098039 0.27450980 0.65882353
v -0.05542627 0.12999992 -13.49797153 0.25098039 0.27450980 0.65882353
v -0.05423842 0.12429026 -13.49672508 0.25098039 0.27450980 0.65882353
v -0.05221911 0.12224010 -13.49612427 0.25098039 0.27450980 0.65882353
v -0.05239175 0.12491572 -13.49987793 0.25098039 0.27450980 0.65882353
v -0.05523668 0.12602386 -13.49686623 0.25098039 0.27450980 0.65882353
v -0.05374254 0.12719387 -13.49916553 0.25098039 0.27450980 0.65882353
v -0.07476531 0.14310263 -13.46886253 0.25098039 0.27450980 0.65882353
v -0.07976049 0.14057297 -13.46568680 0.25098039 0.27450980 0.65882353
v -0.08061650 0.14568119 -13.46514893 0.25098039 0.27450980 0.65882353
v -0.07635222 0.14735606 -13.46799278 0.25098039 0.27450980 0.65882353
v -0.06540924 0.14648491 -13.45972443 0.25098039 0.27450980 0.65882353
v -0.06721452 0.14567983 -13.46521568 0.25098039 0.27450980 0.65882353
v -0.06806715 0.15083921 -13.46394157 0.25098039 0.27450980 0.65882353
v -0.06734991 0.15180993 -13.45755386 0.25098039 0.27450980 0.65882353
v -0.06834809 0.14559889 -13.45363045 0.25098039 0.27450980 0.65882353
v -0.07061724 0.15114799 -13.45158100 0.25098039 0.27450980 0.65882353
v -0.06923924 0.15697965 -13.45767975 0.25098039 0.27450980 0.65882353
v -0.07053199 0.15582716 -13.46456909 0.25098039 0.27450980 0.65882353
v -0.08208878 0.17256626 -13.46998596 0.25098039 0.27450980 0.65882353
v -0.08118658 0.17457199 -13.46315765 0.25098039 0.27450980 0.65882353
v -0.09755667 0.16400445 -13.46849632 0.25098039 0.27450980 0.65882353
v -0.09702857 0.16379632 -13.46454144 0.25098039 0.27450980 0.65882353
v -0.07104418 0.14440611 -13.46830559 0.25098039 0.27450980 0.65882353
v -0.07204552 0.14903688 -13.46712112 0.25098039 0.27450980 0.65882353
v -0.08737883 0.14736825 -13.45885468 0.25098039 0.27450980 0.65882353
v -0.08643807 0.14743605 -13.46417141 0.25098039 0.27450980 0.65882353
v -0.08390293 0.14364533 -13.46231842 0.25098039 0.27450980 0.65882353
v -0.08405226 0.14339590 -13.45670891 0.25098039 0.27450980 0.65882353
v -0.08869360 0.16909556 -13.47463894 0.25098039 0.27450980 0.65882353
v -0.09415381 0.16690081 -13.47220039 0.25098039 0.27450980 0.65882353
v -0.08504565 0.17026031 -13.47337437 0.25098039 0.27450980 0.65882353
v -0.08539085 0.14901340 -13.45277023 0.25098039 0.27450980 0.65882353
v -0.08033755 0.15234157 -13.44930172 0.25098039 0.27450980 0.65882353
v -0.09080148 0.16943079 -13.45365334 0.25098039 0.27450980 0.65882353
v -0.09488519 0.16536818 -13.45649910 0.25098039 0.27450980 0.65882353
v -0.07369420 0.15353057 -13.46855831 0.25098039 0.27450980 0.65882353
v -0.08283426 0.14875621 -13.46805191 0.25098039 0.27450980 0.65882353
v -0.07842897 0.15080650 -13.47007847 0.25098039 0.27450980 0.65882353
v -0.07381891 0.15601866 -13.45199394 0.25098039 0.27450980 0.65882353
v -0.07665622 0.14676161 -13.44930840 0.25098039 0.27450980 0.65882353
v -0.07466653 0.12724654 -13.45534897 0.25098039 0.27450980 0.65882353
v -0.07919213 0.13876289 -13.45253944 0.25098039 0.27450980 0.65882353
v -0.08182541 0.13795936 -13.45686054 0.25098039 0.27450980 0.65882353
v -0.07803603 0.12597306 -13.45875645 0.25098039 0.27450980 0.65882353
v -0.08166692 0.14416105 -13.45174313 0.25098039 0.27450980 0.65882353
v -0.07413019 0.14169595 -13.45106506 0.25098039 0.27450980 0.65882353
v -0.07247679 0.12846774 -13.47140789 0.25098039 0.27450980 0.65882353
v -0.07750110 0.12619434 -13.46802711 0.25098039 0.27450980 0.65882353
v -0.06802531 0.12984121 -13.47155380 0.25098039 0.27450980 0.65882353
v -0.08496657 0.17370898 -13.45621014 0.25098039 0.27450980 0.65882353
v -0.06209491 0.13315101 -13.46355152 0.25098039 0.27450980 0.65882353
v -0.06460761 0.13162144 -13.46949387 0.25098039 0.27450980 0.65882353
v -0.08258279 0.13870125 -13.46181774 0.25098039 0.27450980 0.65882353
v -0.07923548 0.12522081 -13.46337509 0.25098039 0.27450980 0.65882353
v -0.07044888 0.12913066 -13.45452595 0.25098039 0.27450980 0.65882353
v -0.06478813 0.13314211 -13.45722294 0.25098039 0.27450980 0.65882353
v -0.06901653 0.12343126 -13.45661736 0.25098039 0.27450980 0.65882353
v -0.06375858 0.12623841 -13.45938301 0.25098039 0.27450980 0.65882353
v -0.06138332 0.12684037 -13.46554756 0.25098039 0.27450980 0.65882353
v -0.06434877 0.12678964 -13.47060490 0.25098039 0.27450980 0.65882353
v -0.06784505 0.12645003 -13.47231483 0.25098039 0.27450980 0.65882353
v -0.07300229 0.12175597 -13.45744419 0.25098039 0.27450980 0.65882353
v -0.07649411 0.12100202 -13.46042061 0.25098039 0.27450980 0.65882353
v -0.07815780 0.12273213 -13.46465111 0.25098039 0.27450980 0.65882353
v -0.07383908 0.11549211 -13.46146488 0.25098039 0.27450980 0.65882353
v -0.06930177 0.11513022 -13.46085548 0.25098039 0.27450980 0.65882353
v -0.06448859 0.10917887 -13.47776985 0.25098039 0.27450980 0.65882353
v -0.06336409 0.11416776 -13.47437096 0.25098039 0.27450980 0.65882353
v -0.06336600 0.11246023 -13.47232533 0.25098039 0.27450980 0.65882353
v -0.06446959 0.10786322 -13.47524166 0.25098039 0.27450980 0.65882353
v -0.06155017 0.11797123 -13.46952629 0.25098039 0.27450980 0.65882353
v -0.06240004 0.11557177 -13.46887875 0.25098039 0.27450980 0.65882353
v -0.06450693 0.11518657 -13.46472168 0.25098039 0.27450980 0.65882353
v -0.06578429 0.11034229 -13.46857834 0.25098039 0.27450980 0.65882353
v -0.06954388 0.10984561 -13.46567917 0.25098039 0.27450980 0.65882353
v -0.06989402 0.10463685 -13.46836281 0.25098039 0.27450980 0.65882353
v -0.06610405 0.10509442 -13.47129917 0.25098039 0.27450980 0.65882353
v -0.06766427 0.11317250 -13.46341515 0.25098039 0.27450980 0.65882353
v -0.06542295 0.10444787 -13.47637939 0.25098039 0.27450980 0.65882353
v -0.06654908 0.10384795 -13.47867489 0.25098039 0.27450980 0.65882353
v -0.06339210 0.11772022 -13.46282387 0.25098039 0.27450980 0.65882353
v -0.06371720 0.12296009 -13.47204399 0.25098039 0.27450980 0.65882353
v -0.06504877 0.11528289 -13.47671700 0.25098039 0.27450980 0.65882353
v -0.06692693 0.10957564 -13.47989845 0.25098039 0.27450980 0.65882353
v -0.06947930 0.10383430 -13.47965145 0.25098039 0.27450980 0.65882353
v -0.06901631 0.11533108 -13.47825909 0.25098039 0.27450980 0.65882353
v -0.07017203 0.10969765 -13.48046017 0.25098039 0.27450980 0.65882353
v -0.07198599 0.10500517 -13.47947216 0.25098039 0.27450980 0.65882353
v -0.07376941 0.11495708 -13.47822475 0.25098039 0.27450980 0.65882353
v -0.07431409 0.10930064 -13.47961235 0.25098039 0.27450980 0.65882353
v -0.07252508 0.12420872 -13.47297192 0.25098039 0.27450980 0.65882353
v -0.06788410 0.12439069 -13.47386169 0.25098039 0.27450980 0.65882353
v -0.07386665 0.10655993 -13.47918987 0.25098039 0.27450980 0.65882353
v -0.06825437 0.10044509 -13.47545433 0.25098039 0.27450980 0.65882353
v -0.07130711 0.10097943 -13.47707558 0.25098039 0.27450980 0.65882353
v -0.06730549 0.10185927 -13.47415638 0.25098039 0.27450980 0.65882353
v -0.07160640 0.10988051 -13.46508121 0.25098039 0.27450980 0.65882353
v -0.07218617 0.10458502 -13.46897125 0.25098039 0.27450980 0.65882353
v -0.07445177 0.10989258 -13.46570873 0.25098039 0.27450980 0.65882353
v -0.07445405 0.10437192 -13.47015095 0.25098039 0.27450980 0.65882353
v -0.07149652 0.10093588 -13.47207451 0.25098039 0.27450980 0.65882353
v -0.06981508 0.10128339 -13.47171402 0.25098039 0.27450980 0.65882353
v -0.07210109 0.12585641 -13.47134876 0.25098039 0.27450980 0.65882353
v -0.07664280 0.12425697 -13.46822166 0.25098039 0.27450980 0.65882353
v -0.07693996 0.12291329 -13.46967888 0.25098039 0.27450980 0.65882353
v -0.07750289 0.11351632 -13.47469902 0.25098039 0.27450980 0.65882353
v -0.07845004 0.12074754 -13.46579742 0.25098039 0.27450980 0.65882353
v -0.07674521 0.11689299 -13.46310902 0.25098039 0.27450980 0.65882353
v -0.07688592 0.11078267 -13.46690655 0.25098039 0.27450980 0.65882353
v -0.07846418 0.11177875 -13.47044277 0.25098039 0.27450980 0.65882353
v -0.07671563 0.10469267 -13.47047806 0.25098039 0.27450980 0.65882353
v -0.07792258 0.10716774 -13.47214985 0.25098039 0.27450980 0.65882353
v -0.07721883 0.10868305 -13.47674465 0.25098039 0.27450980 0.65882353
v -0.07544906 0.10146728 -13.47370148 0.25098039 0.27450980 0.65882353
v -0.07321657 0.10074884 -13.47286224 0.25098039 0.27450980 0.65882353
v -0.07314917 0.10237005 -13.47743511 0.25098039 0.27450980 0.65882353
v -0.07688718 0.10405578 -13.47434425 0.25098039 0.27450980 0.65882353
v -0.07529150 0.10489680 -13.47752285 0.25098039 0.27450980 0.65882353
v -0.09778856 0.14294067 -13.45595360 0.25098039 0.27450980 0.65882353
v -0.10346279 0.14150301 -13.45699120 0.25098039 0.27450980 0.65882353
v -0.10448889 0.14489517 -13.45694256 0.25098039 0.27450980 0.65882353
v -0.09899519 0.14641592 -13.45581532 0.25098039 0.27450980 0.65882353
v -0.09659359 0.14395159 -13.44349289 0.25098039 0.27450980 0.65882353
v -0.09413128 0.14363253 -13.44775009 0.25098039 0.27450980 0.65882353
v -0.09536794 0.14842674 -13.44749451 0.25098039 0.27450980 0.65882353
v -0.09804970 0.15016770 -13.44295311 0.25098039 0.27450980 0.65882353
v -0.10108839 0.14143589 -13.44132042 0.25098039 0.27450980 0.65882353
v -0.10343069 0.14951828 -13.43986988 0.25098039 0.27450980 0.65882353
v -0.09930424 0.15601605 -13.44340706 0.25098039 0.27450980 0.65882353
v -0.09651108 0.15302648 -13.44816208 0.25098039 0.27450980 0.65882353
v -0.10200220 0.16590647 -13.45458508 0.25098039 0.27450980 0.65882353
v -0.10492294 0.16816685 -13.44871235 0.25098039 0.27450980 0.65882353
v -0.09496155 0.14335291 -13.45233059 0.25098039 0.27450980 0.65882353
v -0.09605545 0.14718716 -13.45232010 0.25098039 0.27450980 0.65882353
v -0.11353934 0.14584324 -13.45406437 0.25098039 0.27450980 0.65882353
v -0.11016490 0.14603269 -13.45746708 0.25098039 0.27450980 0.65882353
v -0.10937820 0.14328827 -13.45535755 0.25098039 0.27450980 0.65882353
v -0.11200194 0.14281386 -13.45204544 0.25098039 0.27450980 0.65882353
v -0.10685320 0.16310018 -13.46442032 0.25098039 0.27450980 0.65882353
v -0.11290322 0.16277471 -13.46447086 0.25098039 0.27450980 0.65882353
v -0.10286656 0.16323419 -13.46038818 0.25098039 0.27450980 0.65882353
v -0.11434469 0.14740235 -13.44774246 0.25098039 0.27450980 0.65882353
v -0.11182395 0.15154505 -13.44201660 0.25098039 0.27450980 0.65882353
v -0.11852001 0.16377169 -13.44816303 0.25098039 0.27450980 0.65882353
v -0.12043370 0.16139396 -13.45380688 0.25098039 0.27450980 0.65882353
v -0.09691280 0.15071838 -13.45303631 0.25098039 0.27450980 0.65882353
v -0.10536344 0.14768553 -13.45899868 0.25098039 0.27450980 0.65882353
v -0.09985815 0.14892456 -13.45747852 0.25098039 0.27450980 0.65882353
v -0.10528457 0.15534313 -13.44128418 0.25098039 0.27450980 0.65882353
v -0.10920279 0.14575386 -13.44175053 0.25098039 0.27450980 0.65882353
v -0.10578233 0.12322360 -13.44711399 0.25098039 0.27450980 0.65882353
v -0.11101374 0.13907865 -13.44619179 0.25098039 0.27450980 0.65882353
v -0.11087637 0.13906302 -13.45193863 0.25098039 0.27450980 0.65882353
v -0.10709088 0.12345204 -13.45134640 0.25098039 0.27450980 0.65882353
v -0.11243583 0.14294904 -13.44663715 0.25098039 0.27450980 0.65882353
v -0.10734007 0.14027199 -13.44206619 0.25098039 0.27450980 0.65882353
v -0.09518656 0.12771754 -13.45824337 0.25098039 0.27450980 0.65882353
v -0.10087445 0.12692736 -13.45837116 0.25098039 0.27450980 0.65882353
v -0.09230578 0.12893443 -13.45503902 0.25098039 0.27450980 0.65882353
v -0.11153199 0.16782261 -13.44552612 0.25098039 0.27450980 0.65882353
v -0.11867975 0.16116171 -13.46052647 0.25098039 0.27450980 0.65882353
v -0.09150273 0.12767990 -13.44754314 0.25098039 0.27450980 0.65882353
v -0.09092340 0.12858456 -13.45186424 0.25098039 0.27450980 0.65882353
v -0.10841265 0.14019512 -13.45529366 0.25098039 0.27450980 0.65882353
v -0.10561927 0.12486964 -13.45557880 0.25098039 0.27450980 0.65882353
v -0.10225181 0.12474246 -13.44403362 0.25098039 0.27450980 0.65882353
v -0.09632851 0.12725163 -13.44367981 0.25098039 0.27450980 0.65882353
v -0.10151532 0.11852440 -13.44620132 0.25098039 0.27450980 0.65882353
v -0.09544794 0.12037149 -13.44607067 0.25098039 0.27450980 0.65882353
v -0.09089406 0.12116364 -13.44985390 0.25098039 0.27450980 0.65882353
v -0.09059076 0.12309435 -13.45395851 0.25098039 0.27450980 0.65882353
v -0.09197696 0.12418441 -13.45684338 0.25098039 0.27450980 0.65882353
v -0.10508627 0.11827411 -13.44981003 0.25098039 0.27450980 0.65882353
v -0.10598920 0.11951501 -13.45350361 0.25098039 0.27450980 0.65882353
v -0.10455911 0.12321755 -13.45598030 0.25098039 0.27450980 0.65882353
v -0.10544668 0.11517350 -13.45326710 0.25098039 0.27450980 0.65882353
v -0.10108481 0.11249647 -13.45083237 0.25098039 0.27450980 0.65882353
v -0.09230384 0.10616946 -13.46416664 0.25098039 0.27450980 0.65882353
v -0.09187354 0.11073256 -13.46021938 0.25098039 0.27450980 0.65882353
v -0.09248714 0.10986824 -13.45946407 0.25098039 0.27450980 0.65882353
v -0.09276837 0.10499907 -13.46282387 0.25098039 0.27450980 0.65882353
v -0.09157564 0.11429751 -13.45412636 0.25098039 0.27450980 0.65882353
v -0.09251097 0.11250547 -13.45490932 0.25098039 0.27450980 0.65882353
v -0.09554237 0.11199942 -13.45235252 0.25098039 0.27450980 0.65882353
v -0.09611882 0.10705397 -13.45684719 0.25098039 0.27450980 0.65882353
v -0.10197641 0.10843612 -13.45696545 0.25098039 0.27450980 0.65882353
v -0.10133341 0.10482739 -13.46066284 0.25098039 0.27450980 0.65882353
v -0.09624846 0.10299370 -13.46054268 0.25098039 0.27450980 0.65882353
v -0.10000576 0.11137310 -13.45251465 0.25098039 0.27450980 0.65882353
v -0.09389831 0.10240382 -13.46445560 0.25098039 0.27450980 0.65882353
v -0.09236722 0.10204899 -13.46615410 0.25098039 0.27450980 0.65882353
v -0.09521145 0.11366233 -13.45011902 0.25098039 0.27450980 0.65882353
v -0.08992884 0.11806774 -13.45695210 0.25098039 0.27450980 0.65882353
v -0.09089406 0.11246210 -13.46242142 0.25098039 0.27450980 0.65882353
v -0.09105144 0.10803157 -13.46687794 0.25098039 0.27450980 0.65882353
v -0.09323670 0.10447389 -13.46900463 0.25098039 0.27450980 0.65882353
v -0.09270969 0.11458564 -13.46492481 0.25098039 0.27450980 0.65882353
v -0.09308772 0.11009419 -13.46828842 0.25098039 0.27450980 0.65882353
v -0.09495126 0.10695359 -13.47027397 0.25098039 0.27450980 0.65882353
v -0.09543468 0.11580978 -13.46626663 0.25098039 0.27450980 0.65882353
v -0.09593591 0.11165445 -13.46905041 0.25098039 0.27450980 0.65882353
v -0.09502925 0.12313084 -13.45992756 0.25098039 0.27450980 0.65882353
v -0.09175846 0.12107797 -13.45888615 0.25098039 0.27450980 0.65882353
v -0.09661710 0.10866529 -13.47022057 0.25098039 0.27450980 0.65882353
v -0.09671713 0.09994905 -13.46549034 0.25098039 0.27450980 0.65882353
v -0.09849399 0.10218331 -13.46891594 0.25098039 0.27450980 0.65882353
v -0.09661941 0.10140537 -13.46380997 0.25098039 0.27450980 0.65882353
v -0.10367937 0.10944587 -13.45691395 0.25098039 0.27450980 0.65882353
v -0.10347851 0.10481192 -13.46188927 0.25098039 0.27450980 0.65882353
v -0.10546200 0.11108869 -13.45861053 0.25098039 0.27450980 0.65882353
v -0.10521919 0.10638216 -13.46337318 0.25098039 0.27450980 0.65882353
v -0.10156040 0.10152933 -13.46417809 0.25098039 0.27450980 0.65882353
v -0.10055038 0.10195772 -13.46330070 0.25098039 0.27450980 0.65882353
v -0.09549960 0.12522018 -13.45831203 0.25098039 0.27450980 0.65882353
v -0.10059312 0.12489215 -13.45827579 0.25098039 0.27450980 0.65882353
v -0.09984307 0.12342703 -13.45986748 0.25098039 0.27450980 0.65882353
v -0.10010421 0.11588319 -13.46681213 0.25098039 0.27450980 0.65882353
v -0.10393663 0.12199423 -13.45804214 0.25098039 0.27450980 0.65882353
v -0.10589099 0.11683440 -13.45676041 0.25098039 0.27450980 0.65882353
v -0.10551775 0.11292808 -13.46141624 0.25098039 0.27450980 0.65882353
v -0.10391004 0.11437422 -13.46464539 0.25098039 0.27450980 0.65882353
v -0.10526308 0.10845408 -13.46528435 0.25098039 0.27450980 0.65882353
v -0.10372730 0.11060551 -13.46650505 0.25098039 0.27450980 0.65882353
v -0.10005806 0.11196855 -13.46951103 0.25098039 0.27450980 0.65882353
v -0.10289180 0.10570431 -13.46755886 0.25098039 0.27450980 0.65882353
v -0.10298198 0.10304396 -13.46614361 0.25098039 0.27450980 0.65882353
v -0.09913081 0.10525264 -13.47018433 0.25098039 0.27450980 0.65882353
v -0.10244749 0.10805346 -13.46848297 0.25098039 0.27450980 0.65882353
v -0.09958264 0.10788685 -13.47043419 0.25098039 0.27450980 0.65882353
v -0.11685011 0.16192314 -13.46353054 0.25098039 0.27450980 0.65882353
v -0.13515049 0.13963795 -13.46234989 0.25098039 0.27450980 0.65882353
v -0.13886350 0.13982104 -13.46399784 0.25098039 0.27450980 0.65882353
v -0.13965139 0.14271465 -13.46293068 0.25098039 0.27450980 0.65882353
v -0.13574666 0.14348233 -13.46205044 0.25098039 0.27450980 0.65882353
v -0.13525912 0.13934684 -13.45130539 0.25098039 0.27450980 0.65882353
v -0.13309653 0.13898255 -13.45519257 0.25098039 0.27450980 0.65882353
v -0.13292941 0.14374736 -13.45382595 0.25098039 0.27450980 0.65882353
v -0.13506070 0.14436334 -13.45003223 0.25098039 0.27450980 0.65882353
v -0.13991779 0.13933825 -13.44970131 0.25098039 0.27450980 0.65882353
v -0.14015970 0.14416587 -13.44867039 0.25098039 0.27450980 0.65882353
v -0.13489076 0.14814299 -13.44986343 0.25098039 0.27450980 0.65882353
v -0.13257104 0.14756562 -13.45402908 0.25098039 0.27450980 0.65882353
v -0.13153104 0.16395940 -13.45777702 0.25098039 0.27450980 0.65882353
v -0.13485745 0.16678889 -13.45405674 0.25098039 0.27450980 0.65882353
v -0.14988089 0.16683631 -13.46537399 0.25098039 0.27450980 0.65882353
v -0.14590827 0.16690414 -13.47089672 0.25098039 0.27450980 0.65882353
v -0.14550257 0.15883376 -13.46633816 0.25098039 0.27450980 0.65882353
v -0.14875311 0.16041192 -13.46246910 0.25098039 0.27450980 0.65882353
v -0.13336305 0.13921016 -13.45908451 0.25098039 0.27450980 0.65882353
v -0.13313821 0.14347500 -13.45885754 0.25098039 0.27450980 0.65882353
v -0.14815101 0.14667225 -13.45953083 0.25098039 0.27450980 0.65882353
v -0.14471376 0.14598010 -13.46263599 0.25098039 0.27450980 0.65882353
v -0.14364100 0.14283346 -13.46301842 0.25098039 0.27450980 0.65882353
v -0.14744274 0.14232868 -13.46063614 0.25098039 0.27450980 0.65882353
v -0.14030327 0.16553091 -13.47199535 0.25098039 0.27450980 0.65882353
v -0.13534561 0.16527838 -13.47078133 0.25098039 0.27450980 0.65882353
v -0.13530977 0.16074334 -13.46904087 0.25098039 0.27450980 0.65882353
v -0.14073792 0.15794122 -13.46781921 0.25098039 0.27450980 0.65882353
v -0.13156441 0.16103618 -13.46498489 0.25098039 0.27450980 0.65882353
v -0.14885728 0.14707741 -13.45559025 0.25098039 0.27450980 0.65882353
v -0.14638579 0.14766917 -13.45043278 0.25098039 0.27450980 0.65882353
v -0.14876607 0.16518486 -13.45385361 0.25098039 0.27450980 0.65882353
v -0.14992234 0.16365746 -13.45818520 0.25098039 0.27450980 0.65882353
v -0.13268074 0.14620441 -13.45834255 0.25098039 0.27450980 0.65882353
v -0.14040966 0.14560288 -13.46321011 0.25098039 0.27450980 0.65882353
v -0.13604677 0.14548537 -13.46208763 0.25098039 0.27450980 0.65882353
v -0.14042069 0.14836876 -13.44804955 0.25098039 0.27450980 0.65882353
v -0.14580280 0.14293037 -13.45113277 0.25098039 0.27450980 0.65882353
v -0.14748311 0.12971660 -13.45970631 0.25098039 0.27450980 0.65882353
v -0.14828779 0.13888559 -13.45713711 0.25098039 0.27450980 0.65882353
v -0.14692274 0.13912492 -13.46179867 0.25098039 0.27450980 0.65882353
v -0.14679776 0.13032493 -13.46257591 0.25098039 0.27450980 0.65882353
v -0.14831190 0.14245644 -13.45626450 0.25098039 0.27450980 0.65882353
v -0.14564750 0.13842812 -13.45226955 0.25098039 0.27450980 0.65882353
v -0.13492674 0.13120700 -13.46472836 0.25098039 0.27450980 0.65882353
v -0.13992651 0.13184834 -13.46598244 0.25098039 0.27450980 0.65882353
v -0.13319018 0.13067183 -13.46211243 0.25098039 0.27450980 0.65882353
v -0.14145219 0.16686556 -13.45139599 0.25098039 0.27450980 0.65882353
v -0.13499910 0.12913808 -13.45501614 0.25098039 0.27450980 0.65882353
v -0.13285373 0.12940720 -13.45880222 0.25098039 0.27450980 0.65882353
v -0.14291558 0.13954976 -13.46393681 0.25098039 0.27450980 0.65882353
v -0.14417669 0.13141419 -13.46496487 0.25098039 0.27450980 0.65882353
v -0.14556706 0.12907952 -13.45591640 0.25098039 0.27450980 0.65882353
v -0.14015362 0.12930024 -13.45306683 0.25098039 0.27450980 0.65882353
v -0.14484578 0.12444972 -13.45810986 0.25098039 0.27450980 0.65882353
v -0.13928747 0.12475217 -13.45528221 0.25098039 0.27450980 0.65882353
v -0.13404047 0.12499348 -13.45788479 0.25098039 0.27450980 0.65882353
v -0.13277201 0.12682232 -13.46088886 0.25098039 0.27450980 0.65882353
v -0.13300616 0.12815854 -13.46375751 0.25098039 0.27450980 0.65882353
v -0.14689073 0.12579447 -13.46179771 0.25098039 0.27450980 0.65882353
v -0.14629224 0.12712289 -13.46450138 0.25098039 0.27450980 0.65882353
v -0.14394869 0.12914717 -13.46654987 0.25098039 0.27450980 0.65882353
v -0.14622077 0.12201177 -13.46425152 0.25098039 0.27450980 0.65882353
v -0.14357574 0.11905020 -13.46163845 0.25098039 0.27450980 0.65882353
v -0.13358264 0.11414731 -13.46957111 0.25098039 0.27450980 0.65882353
v -0.13339686 0.11738156 -13.46680069 0.25098039 0.27450980 0.65882353
v -0.13408135 0.11667189 -13.46599388 0.25098039 0.27450980 0.65882353
v -0.13360950 0.11338796 -13.46864128 0.25098039 0.27450980 0.65882353
v -0.13400967 0.12032636 -13.46209145 0.25098039 0.27450980 0.65882353
v -0.13498417 0.11892796 -13.46244621 0.25098039 0.27450980 0.65882353
v -0.13813035 0.11922774 -13.46076965 0.25098039 0.27450980 0.65882353
v -0.13764533 0.11507200 -13.46430111 0.25098039 0.27450980 0.65882353
v -0.14281282 0.11504129 -13.46589565 0.25098039 0.27450980 0.65882353
v -0.14181569 0.11175513 -13.46851158 0.25098039 0.27450980 0.65882353
v -0.13738452 0.11193715 -13.46665287 0.25098039 0.27450980 0.65882353
v -0.14198349 0.11769806 -13.46206951 0.25098039 0.27450980 0.65882353
v -0.13416296 0.11080667 -13.46971416 0.25098039 0.27450980 0.65882353
v -0.13361803 0.11025085 -13.47102737 0.25098039 0.27450980 0.65882353
v -0.13826233 0.12035429 -13.45905876 0.25098039 0.27450980 0.65882353
v -0.13239384 0.12352771 -13.46424770 0.25098039 0.27450980 0.65882353
v -0.13245842 0.11822298 -13.46900654 0.25098039 0.27450980 0.65882353
v -0.13291815 0.11391728 -13.47193813 0.25098039 0.27450980 0.65882353
v -0.13444191 0.11055452 -13.47330761 0.25098039 0.27450980 0.65882353
v -0.13309622 0.12038556 -13.47058392 0.25098039 0.27450980 0.65882353
v -0.13337760 0.11528300 -13.47401047 0.25098039 0.27450980 0.65882353
v -0.13516513 0.11223555 -13.47529507 0.25098039 0.27450980 0.65882353
v -0.13519366 0.12234472 -13.47256088 0.25098039 0.27450980 0.65882353
v -0.13537672 0.11705042 -13.47506237 0.25098039 0.27450980 0.65882353
v -0.13564683 0.12782545 -13.46835804 0.25098039 0.27450980 0.65882353
v -0.13333215 0.12585312 -13.46650982 0.25098039 0.27450980 0.65882353
v -0.13617414 0.11396635 -13.47552395 0.25098039 0.27450980 0.65882353
v -0.13701376 0.10847403 -13.47061157 0.25098039 0.27450980 0.65882353
v -0.13756932 0.10935022 -13.47357082 0.25098039 0.27450980 0.65882353
v -0.13724861 0.10912085 -13.46924400 0.25098039 0.27450980 0.65882353
v -0.14408669 0.11557449 -13.46649742 0.25098039 0.27450980 0.65882353
v -0.14300519 0.11165881 -13.46981716 0.25098039 0.27450980 0.65882353
v -0.14533888 0.11704242 -13.46826267 0.25098039 0.27450980 0.65882353
v -0.14349446 0.11268055 -13.47179127 0.25098039 0.27450980 0.65882353
v -0.14076549 0.10906334 -13.47117996 0.25098039 0.27450980 0.65882353
v -0.13996954 0.10966571 -13.46937275 0.25098039 0.27450980 0.65882353
v -0.13548958 0.12931556 -13.46679974 0.25098039 0.27450980 0.65882353
v -0.13970073 0.12997675 -13.46716404 0.25098039 0.27450980 0.65882353
v -0.13990501 0.12823910 -13.46884441 0.25098039 0.27450980 0.65882353
v -0.13904259 0.12294898 -13.47324562 0.25098039 0.27450980 0.65882353
v -0.14398161 0.12709236 -13.46812630 0.25098039 0.27450980 0.65882353
v -0.14597909 0.12451759 -13.46618938 0.25098039 0.27450980 0.65882353
v -0.14491794 0.11904982 -13.47031212 0.25098039 0.27450980 0.65882353
v -0.14309096 0.12115726 -13.47239971 0.25098039 0.27450980 0.65882353
v -0.14297052 0.11398049 -13.47367382 0.25098039 0.27450980 0.65882353
v -0.14144246 0.11627784 -13.47519588 0.25098039 0.27450980 0.65882353
v -0.13850027 0.11765951 -13.47588348 0.25098039 0.27450980 0.65882353
v -0.14024681 0.11143358 -13.47473812 0.25098039 0.27450980 0.65882353
v -0.14070427 0.10990509 -13.47350121 0.25098039 0.27450980 0.65882353
v -0.13792117 0.11118121 -13.47505760 0.25098039 0.27450980 0.65882353
v -0.13971907 0.11325185 -13.47566032 0.25098039 0.27450980 0.65882353
v -0.13808924 0.11365223 -13.47580242 0.25098039 0.27450980 0.65882353
v -0.15026818 0.16664228 -13.46105289 0.25098039 0.27450980 0.65882353
v -0.08926190 0.19565782 -13.54813862 0.25098039 0.27450980 0.65882353
v -0.09070168 0.19225082 -13.54361725 0.25098039 0.27450980 0.65882353
v -0.10395867 0.18418452 -13.54939079 0.25098039 0.27450980 0.65882353
v -0.09927940 0.18427143 -13.54410839 0.25098039 0.27450980 0.65882353
v -0.10530505 0.18634677 -13.55546093 0.25098039 0.27450980 0.65882353
v -0.10048765 0.19470336 -13.56006527 0.25098039 0.27450980 0.65882353
v -0.10444602 0.19108979 -13.55858898 0.25098039 0.27450980 0.65882353
v -0.09448490 0.18735966 -13.54219341 0.25098039 0.27450980 0.65882353
v -0.09026681 0.19826041 -13.55321217 0.25098039 0.27450980 0.65882353
v -0.09503640 0.19837946 -13.55837440 0.25098039 0.27450980 0.65882353
v -0.08529155 0.19267888 -13.55629444 0.25098039 0.27450980 0.65882353
v -0.09029034 0.19225651 -13.56199265 0.25098039 0.27450980 0.65882353
v -0.09571514 0.18837011 -13.56418991 0.25098039 0.27450980 0.65882353
v -0.10069360 0.18486625 -13.56182480 0.25098039 0.27450980 0.65882353
v -0.10250345 0.18180412 -13.55856133 0.25098039 0.27450980 0.65882353
v -0.08612910 0.19010422 -13.54977131 0.25098039 0.27450980 0.65882353
v -0.08822165 0.18675448 -13.54545784 0.25098039 0.27450980 0.65882353
v -0.09334423 0.18287471 -13.54407501 0.25098039 0.27450980 0.65882353
v -0.08286941 0.18255626 -13.55055904 0.25098039 0.27450980 0.65882353
v -0.07989937 0.17579585 -13.55775642 0.25098039 0.27450980 0.65882353
v -0.08528511 0.16213822 -13.56917763 0.25098039 0.27450980 0.65882353
v -0.08914068 0.16754855 -13.56778717 0.25098039 0.27450980 0.65882353
v -0.08627015 0.16829085 -13.56783199 0.25098039 0.27450980 0.65882353
v -0.08298421 0.16361484 -13.56974506 0.25098039 0.27450980 0.65882353
v -0.08943512 0.17292503 -13.56688213 0.25098039 0.27450980 0.65882353
v -0.08718355 0.17203756 -13.56631660 0.25098039 0.27450980 0.65882353
v -0.08362539 0.17441887 -13.56338596 0.25098039 0.27450980 0.65882353
v -0.08056818 0.17035033 -13.56555748 0.25098039 0.27450980 0.65882353
v -0.08031996 0.17379311 -13.55972958 0.25098039 0.27450980 0.65882353
v -0.07819706 0.17046744 -13.55970955 0.25098039 0.27450980 0.65882353
v -0.07777458 0.16598298 -13.56698895 0.25098039 0.27450980 0.65882353
v -0.07937241 0.16159806 -13.57042694 0.25098039 0.27450980 0.65882353
v -0.07555924 0.16186944 -13.56799984 0.25098039 0.27450980 0.65882353
v -0.08090162 0.15904027 -13.56923485 0.25098039 0.27450980 0.65882353
v -0.08294117 0.17639500 -13.56450558 0.25098039 0.27450980 0.65882353
v -0.09595983 0.17598027 -13.56507778 0.25098039 0.27450980 0.65882353
v -0.09271841 0.16754431 -13.56580448 0.25098039 0.27450980 0.65882353
v -0.08799307 0.16105685 -13.56656075 0.25098039 0.27450980 0.65882353
v -0.08252323 0.15769245 -13.56665802 0.25098039 0.27450980 0.65882353
v -0.09497210 0.16678298 -13.56177521 0.25098039 0.27450980 0.65882353
v -0.08979610 0.16113357 -13.56220818 0.25098039 0.27450980 0.65882353
v -0.08453324 0.15833643 -13.56174660 0.25098039 0.27450980 0.65882353
v -0.09473002 0.16644350 -13.55696297 0.25098039 0.27450980 0.65882353
v -0.08945855 0.16165261 -13.55821228 0.25098039 0.27450980 0.65882353
v -0.10048610 0.17774893 -13.55392265 0.25098039 0.27450980 0.65882353
v -0.10029808 0.17707770 -13.56028175 0.25098039 0.27450980 0.65882353
v -0.08554512 0.15957633 -13.55920410 0.25098039 0.27450980 0.65882353
v -0.07498664 0.15934253 -13.56728554 0.25098039 0.27450980 0.65882353
v -0.07698204 0.15780219 -13.56403446 0.25098039 0.27450980 0.65882353
v -0.07772775 0.17106700 -13.55612278 0.25098039 0.27450980 0.65882353
v -0.07486676 0.16671553 -13.56136322 0.25098039 0.27450980 0.65882353
v -0.07512525 0.16597332 -13.55809402 0.25098039 0.27450980 0.65882353
v -0.07907242 0.17172050 -13.55214596 0.25098039 0.27450980 0.65882353
v -0.07597920 0.16514164 -13.55516815 0.25098039 0.27450980 0.65882353
v -0.07346988 0.16197851 -13.56192875 0.25098039 0.27450980 0.65882353
v -0.07396090 0.16382077 -13.56419086 0.25098039 0.27450980 0.65882353
v -0.10224926 0.18085970 -13.55249977 0.25098039 0.27450980 0.65882353
v -0.09880547 0.18150735 -13.54683590 0.25098039 0.27450980 0.65882353
v -0.09677966 0.17878160 -13.54826546 0.25098039 0.27450980 0.65882353
v -0.09167361 0.16811934 -13.55156708 0.25098039 0.27450980 0.65882353
v -0.09138098 0.17930570 -13.54540157 0.25098039 0.27450980 0.65882353
v -0.08583027 0.18108398 -13.54702377 0.25098039 0.27450980 0.65882353
v -0.08179973 0.17077997 -13.54938126 0.25098039 0.27450980 0.65882353
v -0.08653285 0.16950041 -13.54869080 0.25098039 0.27450980 0.65882353
v -0.07911402 0.16403633 -13.55317497 0.25098039 0.27450980 0.65882353
v -0.08225149 0.16338569 -13.55284214 0.25098039 0.27450980 0.65882353
v -0.08667582 0.16193232 -13.55478382 0.25098039 0.27450980 0.65882353
v -0.07819554 0.16041279 -13.55691910 0.25098039 0.27450980 0.65882353
v -0.07498999 0.16085207 -13.55893612 0.25098039 0.27450980 0.65882353
v -0.08011852 0.15822233 -13.56011391 0.25098039 0.27450980 0.65882353
v -0.08094576 0.16105413 -13.55572891 0.25098039 0.27450980 0.65882353
v -0.08287573 0.15975881 -13.55767059 0.25098039 0.27450980 0.65882353
v -0.14832404 0.17106649 -13.47233772 0.25098039 0.27450980 0.65882353
v -0.14227705 0.17050564 -13.47511959 0.25098039 0.27450980 0.65882353
v -0.14729963 0.17439857 -13.47732639 0.25098039 0.27450980 0.65882353
v -0.15273440 0.18143122 -13.48102665 0.25098039 0.27450980 0.65882353
v -0.16163014 0.18819854 -13.48123169 0.25098039 0.27450980 0.65882353
v -0.14681648 0.18286134 -13.48393250 0.25098039 0.27450980 0.65882353
v -0.14145581 0.17581755 -13.47947121 0.25098039 0.27450980 0.65882353
v -0.13452923 0.16984087 -13.47506142 0.25098039 0.27450980 0.65882353
v -0.14481011 0.19097966 -13.48987293 0.25098039 0.27450980 0.65882353
f 2 3 1
f 1 3 4
f 5 6 8
f 8 6 7
f 9 4 10
f 10 4 3
f 12 13 11
f 11 13 9
f 14 12 16
f 16 12 15
f 18 19 17
f 17 19 20
f 22 23 21
f 21 23 24
f 26 27 25
f 25 27 28
f 30 31 29
f 29 31 32
f 33 34 36
f 36 34 35
f 37 38 40
f 40 38 39
f 41 42 6
f 6 42 43
f 6 43 7
f 7 43 44
f 45 34 46
f 46 34 33
f 48 49 47
f 47 49 50
f 52 53 51
f 51 53 54
f 56 52 55
f 55 52 51
f 58 59 57
f 57 59 60
f 61 62 4
f 4 62 1
f 64 65 63
f 63 65 66
f 68 69 67
f 67 69 70
f 72 73 71
f 71 73 74
f 76 77 75
f 75 77 78
f 53 79 54
f 54 79 80
f 82 83 81
f 81 83 84
f 85 86 52
f 52 86 53
f 57 60 87
f 87 60 88
f 89 90 43
f 43 90 44
f 43 42 89
f 89 42 91
f 40 39 92
f 92 39 93
f 94 70 64
f 64 70 69
f 13 61 9
f 9 61 4
f 25 28 69
f 69 28 95
f 96 25 68
f 68 25 69
f 98 99 97
f 97 99 100
f 101 102 104
f 104 102 103
f 106 30 105
f 105 30 29
f 51 54 107
f 107 54 108
f 54 80 108
f 108 80 109
f 111 112 110
f 110 112 113
f 115 5 114
f 114 5 116
f 115 41 5
f 5 41 6
f 36 35 111
f 111 35 117
f 35 118 117
f 117 118 119
f 34 120 35
f 35 120 118
f 34 45 120
f 120 45 121
f 125 126 124
f 124 126 127
f 128 129 14
f 14 129 130
f 33 131 46
f 46 131 132
f 133 94 63
f 63 94 64
f 134 135 137
f 137 135 136
f 139 140 138
f 138 140 141
f 77 142 78
f 78 142 143
f 144 145 20
f 20 145 146
f 148 149 147
f 147 149 72
f 151 152 150
f 150 152 153
f 82 101 83
f 83 101 104
f 101 82 155
f 155 82 154
f 156 157 58
f 58 157 59
f 158 68 147
f 147 68 67
f 159 146 15
f 15 146 16
f 68 158 96
f 96 158 160
f 129 66 130
f 130 66 65
f 162 163 161
f 161 163 164
f 166 167 165
f 165 167 168
f 170 171 169
f 169 171 172
f 174 171 173
f 173 171 170
f 176 177 175
f 175 177 178
f 180 181 179
f 179 181 24
f 182 183 21
f 21 183 184
f 81 185 82
f 82 185 154
f 186 187 188
f 188 187 144
f 158 71 160
f 160 71 189
f 190 135 157
f 157 135 59
f 169 172 139
f 139 172 140
f 147 72 158
f 158 72 71
f 192 193 191
f 191 193 194
f 167 166 49
f 49 166 195
f 196 190 50
f 50 190 157
f 197 198 200
f 200 198 199
f 21 24 182
f 182 24 181
f 146 159 20
f 20 159 17
f 182 181 81
f 81 181 185
f 201 185 180
f 180 185 181
f 202 203 83
f 83 203 84
f 205 206 204
f 204 206 85
f 207 22 184
f 184 22 21
f 179 24 208
f 208 24 23
f 208 209 179
f 179 209 205
f 209 210 205
f 205 210 206
f 212 206 211
f 211 206 210
f 179 205 180
f 180 205 204
f 213 176 88
f 88 176 214
f 86 85 212
f 212 85 206
f 193 217 218
f 217 219 218
f 218 219 220
f 219 18 220
f 220 18 17
f 19 221 20
f 20 221 144
f 222 223 225
f 225 223 224
f 175 226 176
f 176 226 214
f 227 87 214
f 214 87 88
f 220 17 228
f 228 17 159
f 134 213 60
f 60 213 88
f 138 229 151
f 151 229 152
f 193 192 210
f 210 192 211
f 230 194 218
f 218 194 193
f 231 232 228
f 228 232 230
f 233 234 91
f 91 234 89
f 235 236 93
f 93 236 92
f 230 232 234
f 234 232 237
f 47 238 48
f 48 238 239
f 240 191 235
f 235 191 236
f 5 8 116
f 116 8 241
f 242 243 189
f 189 243 160
f 244 245 98
f 98 245 99
f 156 246 47
f 47 246 238
f 76 247 77
f 77 247 248
f 250 125 249
f 249 125 124
f 252 253 251
f 251 253 254
f 111 110 36
f 36 110 255
f 256 33 255
f 255 33 36
f 257 258 154
f 154 258 155
f 63 169 133
f 133 169 139
f 66 170 63
f 63 170 169
f 173 170 129
f 129 170 66
f 129 128 173
f 173 128 259
f 128 260 259
f 259 260 261
f 213 134 262
f 262 134 137
f 263 264 186
f 186 264 187
f 112 265 113
f 113 265 266
f 11 267 268
f 234 233 230
f 230 233 194
f 153 269 70
f 70 269 67
f 175 178 165
f 165 178 141
f 150 153 94
f 94 153 70
f 271 221 270
f 270 221 207
f 269 153 272
f 272 153 152
f 121 45 109
f 109 45 108
f 47 50 156
f 156 50 157
f 57 273 58
f 58 273 274
f 145 275 260
f 260 275 261
f 276 149 143
f 143 149 78
f 148 269 75
f 75 269 272
f 207 277 270
f 270 277 278
f 195 196 49
f 49 196 50
f 59 135 60
f 60 135 134
f 83 104 202
f 202 104 279
f 149 148 78
f 78 148 75
f 247 278 248
f 248 278 277
f 183 182 84
f 84 182 81
f 48 239 281
f 281 239 282
f 227 223 283
f 283 223 222
f 223 226 224
f 224 226 168
f 281 282 224
f 224 282 225
f 165 168 175
f 175 168 226
f 264 263 138
f 138 263 229
f 14 16 128
f 128 16 260
f 220 228 218
f 218 228 230
f 87 227 284
f 284 227 283
f 260 16 145
f 145 16 146
f 244 98 258
f 258 98 155
f 58 274 156
f 156 274 246
f 107 285 51
f 51 285 55
f 243 286 160
f 160 286 96
f 234 237 89
f 89 237 90
f 46 132 107
f 107 132 285
f 253 252 249
f 249 252 250
f 286 26 96
f 96 26 25
f 106 105 287
f 287 105 288
f 272 152 289
f 289 152 229
f 138 151 139
f 139 151 133
f 183 290 161
f 161 290 162
f 291 292 277
f 277 292 293
f 151 150 133
f 133 150 94
f 262 275 177
f 177 275 187
f 144 187 145
f 145 187 275
f 273 57 284
f 284 57 87
f 174 136 190
f 190 136 135
f 111 117 112
f 112 117 38
f 117 119 38
f 38 119 123
f 112 38 265
f 265 38 37
f 287 288 254
f 254 288 251
f 228 159 231
f 231 159 15
f 223 227 226
f 226 227 214
f 147 67 148
f 148 67 269
f 224 168 281
f 281 168 167
f 199 163 200
f 200 163 162
f 45 46 108
f 108 46 107
f 281 167 48
f 48 167 49
f 161 164 291
f 291 164 292
f 38 123 39
f 293 294 277
f 277 294 248
f 284 283 296
f 296 283 295
f 284 296 273
f 273 296 297
f 274 273 298
f 298 273 297
f 246 274 299
f 299 274 298
f 283 222 295
f 295 222 300
f 222 225 300
f 300 225 301
f 301 225 302
f 302 225 282
f 303 304 300
f 300 304 295
f 306 307 305
f 305 307 308
f 309 310 308
f 308 310 305
f 308 307 312
f 312 307 311
f 313 314 312
f 312 314 315
f 311 316 312
f 312 316 313
f 317 304 311
f 311 304 316
f 315 309 312
f 312 309 308
f 318 319 321
f 321 319 320
f 319 318 309
f 309 318 310
f 311 307 317
f 317 307 306
f 306 297 317
f 317 297 296
f 306 322 297
f 297 322 298
f 305 323 306
f 306 323 322
f 323 305 324
f 324 305 310
f 304 317 295
f 295 317 296
f 318 325 310
f 310 325 324
f 323 324 326
f 326 324 327
f 324 325 327
f 327 325 328
f 326 327 329
f 329 327 330
f 329 331 326
f 326 331 332
f 333 330 328
f 328 330 327
f 323 326 322
f 322 326 332
f 322 332 298
f 298 332 299
f 325 318 334
f 334 318 321
f 313 316 335
f 335 316 304
f 335 336 313
f 313 336 314
f 304 303 335
f 335 303 337
f 336 335 338
f 338 335 337
f 336 339 314
f 314 339 340
f 246 299 238
f 238 299 341
f 239 342 282
f 282 342 302
f 342 239 341
f 341 239 238
f 341 331 342
f 342 331 343
f 331 329 343
f 343 329 344
f 342 343 302
f 302 343 345
f 341 299 331
f 331 299 332
f 346 301 345
f 345 301 302
f 346 303 301
f 301 303 300
f 347 337 346
f 346 337 303
f 347 346 348
f 348 346 345
f 349 347 350
f 350 347 348
f 343 344 345
f 345 344 348
f 344 351 348
f 348 351 350
f 337 347 338
f 338 347 349
f 353 338 352
f 352 338 349
f 352 355 354
f 354 355 356
f 352 349 355
f 355 349 350
f 352 354 353
f 353 354 334
f 353 334 339
f 339 334 321
f 339 336 353
f 353 336 338
f 329 330 344
f 344 330 351
f 356 351 333
f 333 351 330
f 356 355 351
f 351 355 350
f 354 356 328
f 328 356 333
f 328 325 354
f 354 325 334
f 309 315 319
f 319 315 320
f 320 340 321
f 321 340 339
f 320 315 340
f 340 315 314
f 137 136 261
f 261 136 259
f 140 166 141
f 141 166 165
f 172 171 195
f 195 171 196
f 171 174 196
f 196 174 190
f 178 177 264
f 264 177 187
f 172 195 140
f 140 195 166
f 137 261 262
f 262 261 275
f 178 264 141
f 141 264 138
f 262 177 213
f 213 177 176
f 136 174 259
f 259 174 173
f 358 359 357
f 357 359 360
f 362 363 361
f 361 363 364
f 361 364 365
f 365 364 366
f 367 368 370
f 370 368 369
f 76 371 247
f 247 371 372
f 373 374 362
f 362 374 363
f 376 377 375
f 375 377 378
f 289 229 380
f 380 229 379
f 381 379 263
f 263 379 229
f 383 384 382
f 382 384 385
f 386 368 374
f 374 368 363
f 76 289 371
f 371 289 380
f 377 376 359
f 359 376 387
f 388 386 360
f 360 386 374
f 389 383 366
f 366 383 390
f 392 393 391
f 391 393 394
f 383 382 390
f 390 382 395
f 396 365 390
f 390 365 366
f 389 366 367
f 367 366 364
f 357 397 358
f 358 397 398
f 373 399 357
f 357 399 397
f 389 367 400
f 400 367 370
f 382 385 375
f 375 385 372
f 357 360 373
f 373 360 374
f 361 401 362
f 362 401 402
f 387 388 359
f 359 388 360
f 363 368 364
f 364 368 367
f 358 398 403
f 403 398 404
f 396 392 405
f 405 392 391
f 392 395 393
f 393 395 378
f 393 403 394
f 394 403 404
f 375 378 382
f 382 378 395
f 365 396 406
f 406 396 405
f 362 402 373
f 373 402 399
f 271 270 400
f 400 270 384
f 401 361 406
f 406 361 365
f 381 369 386
f 386 369 368
f 392 396 395
f 395 396 390
f 393 378 403
f 403 378 377
f 403 377 358
f 358 377 359
f 406 405 408
f 408 405 407
f 406 408 401
f 401 408 409
f 401 409 402
f 402 409 410
f 402 410 399
f 399 410 411
f 405 391 407
f 407 391 412
f 391 394 412
f 412 394 413
f 394 404 413
f 413 404 414
f 415 416 412
f 412 416 407
f 418 419 417
f 417 419 420
f 421 422 418
f 418 422 419
f 419 422 424
f 424 422 423
f 425 426 424
f 424 426 427
f 423 428 424
f 424 428 425
f 427 420 424
f 424 420 419
f 420 429 417
f 417 429 430
f 423 422 431
f 431 422 421
f 421 409 431
f 431 409 408
f 421 432 409
f 409 432 410
f 418 433 421
f 421 433 432
f 434 433 417
f 417 433 418
f 431 416 423
f 423 416 428
f 416 431 407
f 407 431 408
f 435 434 430
f 430 434 417
f 433 434 436
f 436 434 437
f 434 435 437
f 437 435 438
f 436 437 439
f 439 437 440
f 439 441 436
f 436 441 442
f 438 443 437
f 437 443 440
f 436 442 433
f 433 442 432
f 432 442 410
f 410 442 411
f 435 430 445
f 445 430 444
f 430 429 444
f 444 429 446
f 425 428 447
f 447 428 416
f 426 425 448
f 448 425 447
f 416 415 447
f 447 415 449
f 447 449 448
f 448 449 450
f 451 452 448
f 448 452 426
f 446 452 444
f 444 452 451
f 399 411 397
f 397 411 453
f 398 454 404
f 404 454 414
f 454 398 453
f 453 398 397
f 453 441 454
f 454 441 455
f 441 439 455
f 455 439 456
f 454 455 414
f 414 455 457
f 441 453 442
f 442 453 411
f 458 413 457
f 457 413 414
f 458 415 413
f 413 415 412
f 458 459 415
f 415 459 449
f 459 458 460
f 460 458 457
f 461 459 462
f 462 459 460
f 455 456 457
f 457 456 460
f 456 463 460
f 460 463 462
f 459 461 449
f 449 461 450
f 465 450 464
f 464 450 461
f 464 467 466
f 466 467 468
f 464 461 467
f 467 461 462
f 464 466 465
f 465 466 445
f 465 445 451
f 451 445 444
f 451 448 465
f 465 448 450
f 439 440 456
f 456 440 463
f 468 463 443
f 443 463 440
f 468 467 463
f 463 467 462
f 466 468 438
f 438 468 443
f 438 435 466
f 466 435 445
f 420 427 429
f 429 427 446
f 446 427 452
f 452 427 426
f 370 369 188
f 188 369 186
f 371 376 372
f 372 376 375
f 380 379 387
f 387 379 388
f 379 381 388
f 388 381 386
f 385 384 278
f 278 384 270
f 380 387 371
f 371 387 376
f 400 370 271
f 271 370 188
f 385 278 372
f 372 278 247
f 400 384 389
f 389 384 383
f 369 381 186
f 186 381 263
f 221 271 144
f 144 271 188
f 221 19 207
f 207 19 22
f 19 18 22
f 22 18 23
f 18 219 23
f 23 219 208
f 469 470 472
f 472 470 471
f 474 475 473
f 473 475 476
f 473 476 477
f 477 476 478
f 480 481 479
f 479 481 482
f 483 484 474
f 474 484 475
f 486 487 485
f 485 487 488
f 489 490 77
f 77 490 142
f 491 489 248
f 248 489 77
f 493 494 492
f 492 494 495
f 496 480 484
f 484 480 475
f 486 497 487
f 487 497 471
f 498 496 472
f 472 496 484
f 499 493 478
f 478 493 500
f 501 502 504
f 504 502 503
f 493 492 500
f 500 492 505
f 506 477 500
f 500 477 478
f 499 478 479
f 479 478 476
f 469 507 470
f 470 507 508
f 483 509 469
f 469 509 507
f 479 482 499
f 499 482 510
f 492 495 485
f 485 495 511
f 483 469 484
f 484 469 472
f 473 512 474
f 474 512 513
f 497 498 471
f 471 498 472
f 475 480 476
f 476 480 479
f 470 508 514
f 514 508 515
f 506 502 516
f 516 502 501
f 503 502 488
f 488 502 505
f 514 515 503
f 503 515 504
f 485 488 492
f 492 488 505
f 477 506 517
f 517 506 516
f 474 513 483
f 483 513 509
f 510 292 494
f 494 292 164
f 512 473 517
f 517 473 477
f 491 481 496
f 496 481 480
f 502 506 505
f 505 506 500
f 503 488 514
f 514 488 487
f 514 487 470
f 470 487 471
f 517 516 519
f 519 516 518
f 517 519 512
f 512 519 520
f 512 520 513
f 513 520 521
f 513 521 509
f 509 521 522
f 516 501 518
f 518 501 523
f 501 504 523
f 523 504 524
f 524 504 525
f 525 504 515
f 526 527 523
f 523 527 518
f 529 530 528
f 528 530 531
f 532 533 529
f 529 533 530
f 530 533 535
f 535 533 534
f 536 537 535
f 535 537 538
f 534 539 535
f 535 539 536
f 538 531 535
f 535 531 530
f 540 541 531
f 531 541 528
f 533 532 534
f 534 532 542
f 532 520 542
f 542 520 519
f 532 543 520
f 520 543 521
f 529 544 532
f 532 544 543
f 544 529 545
f 545 529 528
f 534 542 539
f 539 542 527
f 527 542 518
f 518 542 519
f 541 546 528
f 528 546 545
f 547 544 548
f 548 544 545
f 546 549 545
f 545 549 548
f 550 547 551
f 551 547 548
f 547 550 553
f 553 550 552
f 549 554 548
f 548 554 551
f 544 547 543
f 543 547 553
f 543 553 521
f 521 553 522
f 546 541 556
f 556 541 555
f 541 540 555
f 555 540 557
f 536 539 558
f 558 539 527
f 537 536 559
f 559 536 558
f 527 526 558
f 558 526 560
f 559 558 561
f 561 558 560
f 559 562 537
f 537 562 563
f 557 563 555
f 555 563 562
f 509 522 507
f 507 522 564
f 508 565 515
f 515 565 525
f 565 508 564
f 564 508 507
f 564 552 565
f 565 552 566
f 552 550 566
f 566 550 567
f 565 566 525
f 525 566 568
f 564 522 552
f 552 522 553
f 569 524 568
f 568 524 525
f 569 526 524
f 524 526 523
f 570 560 569
f 569 560 526
f 570 569 571
f 571 569 568
f 572 570 573
f 573 570 571
f 566 567 568
f 568 567 571
f 567 574 571
f 571 574 573
f 570 572 560
f 560 572 561
f 576 561 575
f 575 561 572
f 575 578 577
f 577 578 579
f 575 572 578
f 578 572 573
f 575 577 576
f 576 577 556
f 576 556 562
f 562 556 555
f 562 559 576
f 576 559 561
f 550 551 567
f 567 551 574
f 579 574 554
f 554 574 551
f 579 578 574
f 574 578 573
f 579 554 577
f 577 554 549
f 549 546 577
f 577 546 556
f 531 538 540
f 540 538 557
f 557 538 563
f 563 538 537
f 481 294 482
f 482 294 293
f 580 486 511
f 511 486 485
f 490 489 497
f 497 489 498
f 489 491 498
f 498 491 496
f 163 495 164
f 164 495 494
f 580 490 486
f 486 490 497
f 482 293 510
f 510 293 292
f 495 163 511
f 511 163 199
f 494 493 510
f 510 493 499
f 481 491 294
f 294 491 248
f 582 583 581
f 581 583 584
f 586 587 585
f 585 587 588
f 585 588 589
f 589 588 590
f 592 593 591
f 591 593 594
f 595 596 598
f 598 596 597
f 599 600 586
f 586 600 587
f 601 602 604
f 604 602 603
f 605 606 608
f 608 606 607
f 609 607 200
f 200 607 606
f 610 611 613
f 613 611 612
f 600 614 587
f 587 614 592
f 596 605 597
f 597 605 608
f 602 615 603
f 603 615 583
f 616 614 584
f 584 614 600
f 611 618 617
f 617 618 590
f 620 621 619
f 619 621 622
f 610 623 611
f 611 623 618
f 624 589 618
f 618 589 590
f 617 590 591
f 591 590 588
f 581 625 582
f 582 625 626
f 599 627 581
f 581 627 625
f 591 594 617
f 617 594 628
f 601 610 598
f 598 610 613
f 581 584 599
f 599 584 600
f 585 629 586
f 586 629 630
f 615 616 583
f 583 616 584
f 587 592 588
f 588 592 591
f 582 626 631
f 631 626 632
f 624 620 633
f 633 620 619
f 621 620 604
f 604 620 623
f 631 632 621
f 621 632 622
f 610 601 623
f 623 601 604
f 589 624 634
f 634 624 633
f 586 630 599
f 599 630 627
f 203 202 628
f 628 202 612
f 629 585 634
f 634 585 589
f 609 593 614
f 614 593 592
f 620 624 623
f 623 624 618
f 631 621 603
f 603 621 604
f 582 631 583
f 583 631 603
f 634 633 636
f 636 633 635
f 634 636 629
f 629 636 637
f 629 637 630
f 630 637 638
f 630 638 627
f 627 638 639
f 633 619 635
f 635 619 640
f 619 622 640
f 640 622 641
f 641 622 642
f 642 622 632
f 644 635 643
f 643 635 640
f 645 646 648
f 648 646 647
f 649 650 646
f 646 650 647
f 647 650 652
f 652 650 651
f 652 653 655
f 655 653 654
f 651 656 652
f 652 656 653
f 655 648 652
f 652 648 647
f 648 657 645
f 645 657 658
f 650 649 651
f 651 649 659
f 649 637 659
f 659 637 636
f 649 660 637
f 637 660 638
f 661 660 646
f 646 660 649
f 662 661 645
f 645 661 646
f 651 659 656
f 656 659 644
f 644 659 635
f 635 659 636
f 663 662 658
f 658 662 645
f 664 661 665
f 665 661 662
f 663 666 662
f 662 666 665
f 667 664 668
f 668 664 665
f 664 667 670
f 670 667 669
f 666 671 665
f 665 671 668
f 661 664 660
f 660 664 670
f 660 670 638
f 638 670 639
f 658 672 663
f 663 672 673
f 658 657 672
f 672 657 674
f 653 656 675
f 675 656 644
f 653 675 654
f 654 675 676
f 675 644 677
f 677 644 643
f 676 675 678
f 678 675 677
f 679 680 676
f 676 680 654
f 674 680 672
f 672 680 679
f 627 639 625
f 625 639 681
f 626 682 632
f 632 682 642
f 681 682 625
f 625 682 626
f 669 683 681
f 681 683 682
f 667 684 669
f 669 684 683
f 682 683 642
f 642 683 685
f 681 639 669
f 669 639 670
f 686 641 685
f 685 641 642
f 641 686 640
f 640 686 643
f 686 687 643
f 643 687 677
f 687 686 688
f 688 686 685
f 689 687 690
f 690 687 688
f 683 684 685
f 685 684 688
f 684 691 688
f 688 691 690
f 687 689 677
f 677 689 678
f 693 678 692
f 692 678 689
f 692 695 694
f 694 695 696
f 692 689 695
f 695 689 690
f 692 694 693
f 693 694 673
f 693 673 679
f 679 673 672
f 679 676 693
f 693 676 678
f 684 667 691
f 691 667 668
f 696 691 671
f 671 691 668
f 696 695 691
f 691 695 690
f 694 696 666
f 666 696 671
f 666 663 694
f 694 663 673
f 648 655 657
f 657 655 674
f 674 655 680
f 680 655 654
f 593 162 594
f 594 162 290
f 598 597 601
f 601 597 602
f 615 608 616
f 616 608 607
f 607 609 616
f 616 609 614
f 697 595 613
f 613 595 598
f 597 608 602
f 602 608 615
f 594 290 628
f 628 290 203
f 628 612 617
f 617 612 611
f 593 609 162
f 162 609 200
f 105 29 698
f 698 29 699
f 268 126 701
f 701 126 700
f 126 125 700
f 700 125 702
f 252 703 250
f 250 703 704
f 32 268 705
f 705 268 701
f 288 105 706
f 706 105 698
f 29 32 699
f 699 32 705
f 707 251 706
f 706 251 288
f 250 704 125
f 125 704 702
f 703 252 707
f 707 252 251
f 706 708 707
f 707 708 709
f 707 709 703
f 703 709 710
f 703 710 704
f 704 710 711
f 704 711 702
f 702 711 712
f 706 698 708
f 708 698 713
f 698 699 713
f 713 699 714
f 699 705 714
f 714 705 715
f 717 708 716
f 716 708 713
f 719 720 718
f 718 720 721
f 722 723 719
f 719 723 720
f 724 725 723
f 723 725 720
f 724 726 725
f 725 726 727
f 728 721 725
f 725 721 720
f 721 728 729
f 729 728 730
f 729 731 721
f 721 731 718
f 724 723 732
f 732 723 722
f 722 710 732
f 732 710 709
f 722 733 710
f 710 733 711
f 719 734 722
f 722 734 733
f 734 719 735
f 735 719 718
f 724 732 726
f 726 732 717
f 717 732 708
f 708 732 709
f 731 736 718
f 718 736 735
f 737 734 738
f 738 734 735
f 736 739 735
f 735 739 738
f 740 737 741
f 741 737 738
f 737 740 743
f 743 740 742
f 739 744 738
f 738 744 741
f 734 737 733
f 733 737 743
f 733 743 711
f 711 743 712
f 736 731 746
f 746 731 745
f 731 729 745
f 745 729 730
f 727 726 747
f 747 726 717
f 748 727 749
f 749 727 747
f 747 717 750
f 750 717 716
f 749 747 751
f 751 747 750
f 749 752 748
f 748 752 753
f 730 753 745
f 745 753 752
f 728 725 748
f 748 725 727
f 730 728 753
f 753 728 748
f 700 702 754
f 754 702 712
f 705 701 715
f 715 701 755
f 754 755 700
f 700 755 701
f 742 756 754
f 754 756 755
f 740 757 742
f 742 757 756
f 755 756 715
f 715 756 758
f 754 712 742
f 742 712 743
f 759 714 758
f 758 714 715
f 714 759 713
f 713 759 716
f 759 760 716
f 716 760 750
f 760 759 761
f 761 759 758
f 762 760 763
f 763 760 761
f 756 757 758
f 758 757 761
f 757 764 761
f 761 764 763
f 760 762 750
f 750 762 751
f 766 751 765
f 765 751 762
f 767 765 769
f 769 765 768
f 765 762 768
f 768 762 763
f 765 767 766
f 766 767 746
f 766 746 752
f 752 746 745
f 752 749 766
f 766 749 751
f 757 740 764
f 764 740 741
f 769 764 744
f 744 764 741
f 769 768 764
f 764 768 763
f 767 769 739
f 739 769 744
f 739 736 767
f 767 736 746
f 219 217 208
f 208 217 209
f 209 217 210
f 210 217 193
f 198 580 199
f 199 580 511
f 76 75 289
f 289 75 272
f 277 207 291
f 291 207 184
f 290 183 203
f 203 183 84
f 490 580 142
f 142 580 198
f 142 198 143
f 143 198 197
f 149 276 72
f 72 276 73
f 104 103 279
f 279 103 770
f 770 596 279
f 279 596 595
f 605 596 771
f 771 596 770
f 771 770 772
f 772 770 103
f 772 103 773
f 773 103 102
f 155 774 101
f 101 774 102
f 773 102 97
f 97 102 774
f 775 773 100
f 100 773 97
f 773 775 772
f 772 775 776
f 772 776 771
f 771 776 777
f 200 606 197
f 197 606 777
f 189 71 778
f 778 71 74
f 97 774 98
f 98 774 155
f 183 161 184
f 184 161 291
f 777 276 197
f 197 276 143
f 777 606 771
f 771 606 605
f 613 612 697
f 697 612 202
f 595 697 279
f 279 697 202
f 73 276 776
f 776 276 777
f 776 775 73
f 73 775 74
f 100 778 775
f 775 778 74
f 778 100 189
f 189 100 99
f 245 242 99
f 99 242 189
f 131 33 256
f 28 1 95
f 95 1 62
f 27 2 28
f 28 2 1
f 265 115 266
f 266 115 114
f 95 62 69
f 69 62 64
f 62 61 64
f 64 61 65
f 61 13 65
f 65 13 130
f 13 12 130
f 130 12 14
f 31 11 32
f 32 11 268
f 15 12 31
f 31 12 11
f 31 30 15
f 15 30 231
f 30 106 231
f 231 106 232
f 287 237 106
f 106 237 232
f 254 90 287
f 287 90 237
f 253 44 254
f 254 44 90
f 253 249 44
f 44 249 7
f 267 127 268
f 268 127 126
f 10 3 241
f 241 3 116
f 3 2 116
f 116 2 114
f 2 27 114
f 114 27 266
f 27 26 266
f 266 26 113
f 26 286 113
f 113 286 110
f 286 243 110
f 110 243 255
f 243 242 255
f 255 242 256
f 242 245 256
f 256 245 131
f 245 244 131
f 131 244 132
f 265 37 115
f 115 37 41
f 41 37 42
f 42 37 40
f 92 91 40
f 40 91 42
f 236 233 92
f 92 233 91
f 191 194 236
f 236 194 233
f 258 285 244
f 244 285 132
f 257 55 258
f 258 55 285
f 257 154 201
f 201 154 185
f 56 201 204
f 204 201 180
f 55 257 56
f 56 257 201
f 204 85 56
f 56 85 52
f 86 122 53
f 53 122 79
f 212 215 86
f 86 215 122
f 211 216 212
f 212 216 215
f 192 280 211
f 211 280 216
f 191 240 192
f 192 240 280
f 249 124 7
f 7 124 8
f 124 127 8
f 8 127 241
f 127 267 241
f 241 267 10
f 10 267 9
f 9 267 11
f 93 39 235
f 235 39 240
f 39 123 240
f 240 123 280
f 123 119 280
f 280 119 216
f 119 118 216
f 216 118 215
f 118 120 215
f 215 120 122
f 120 121 122
f 122 121 79
f 121 109 79
f 79 109 80

