# https://github.com/mikedh/trimesh
v -0.11104001 0.17850758 -13.57465839 0.25098039 0.27450980 0.65882353
v -0.11916547 0.18232661 -13.58021450 0.25098039 0.27450980 0.65882353
v -0.11255811 0.17839284 -13.58911705 0.25098039 0.27450980 0.65882353
v -0.10387093 0.17448047 -13.58131123 0.25098039 0.27450980 0.65882353
v -0.12958196 0.19197501 -13.59943771 0.25098039 0.27450980 0.65882353
v -0.12790836 0.20338286 -13.60519791 0.25098039 0.27450980 0.65882353
v -0.11785018 0.19379517 -13.61253357 0.25098039 0.27450980 0.65882353
v -0.12172422 0.18594539 -13.60718918 0.25098039 0.27450980 0.65882353
v -0.09739991 0.17346978 -13.58592987 0.25098039 0.27450980 0.65882353
v -0.10746446 0.17480701 -13.59529400 0.25098039 0.27450980 0.65882353
v -0.09379837 0.17817113 -13.58875275 0.25098039 0.27450980 0.65882353
v -0.08321908 0.17993936 -13.57504559 0.25098039 0.27450980 0.65882353
v -0.08846895 0.17521343 -13.57581711 0.25098039 0.27450980 0.65882353
v -0.07815297 0.17822210 -13.56640911 0.25098039 0.27450980 0.65882353
v -0.08361086 0.18983594 -13.57121754 0.25098039 0.27450980 0.65882353
v -0.07914037 0.18227002 -13.55749512 0.25098039 0.27450980 0.65882353
v -0.10203843 0.19448753 -13.54397202 0.25098039 0.27450980 0.65882353
v -0.11319438 0.19251043 -13.53724003 0.25098039 0.27450980 0.65882353
v -0.10493892 0.18064716 -13.53166389 0.25098039 0.27450980 0.65882353
v -0.09449749 0.18353552 -13.53965092 0.25098039 0.27450980 0.65882353
v -0.12459510 0.17812416 -13.52852154 0.25098039 0.27450980 0.65882353
v -0.11334993 0.17893492 -13.52957916 0.25098039 0.27450980 0.65882353
v -0.12134241 0.19162527 -13.53445339 0.25098039 0.27450980 0.65882353
v -0.13117729 0.19044749 -13.53313828 0.25098039 0.27450980 0.65882353
v -0.12529260 0.18232496 -13.56603241 0.25098039 0.27450980 0.65882353
v -0.13329303 0.18717463 -13.56992340 0.25098039 0.27450980 0.65882353
v -0.12775180 0.18617266 -13.57189178 0.25098039 0.27450980 0.65882353
v -0.12024693 0.18222930 -13.56870270 0.25098039 0.27450980 0.65882353
v -0.09175619 0.18373586 -13.60230827 0.25098039 0.27450980 0.65882353
v -0.09059227 0.19335334 -13.59217358 0.25098039 0.27450980 0.65882353
v -0.08978300 0.18599269 -13.58915520 0.25098039 0.27450980 0.65882353
v -0.09491278 0.17933169 -13.60151863 0.25098039 0.27450980 0.65882353
v -0.15768063 0.19928306 -13.57794285 0.25098039 0.27450980 0.65882353
v -0.16171637 0.21255872 -13.57873154 0.25098039 0.27450980 0.65882353
v -0.15685020 0.21449555 -13.58124256 0.25098039 0.27450980 0.65882353
v -0.15437773 0.20198366 -13.57953072 0.25098039 0.27450980 0.65882353
v -0.14034581 0.21310072 -13.59492207 0.25098039 0.27450980 0.65882353
v -0.14378853 0.22110355 -13.59089947 0.25098039 0.27450980 0.65882353
v -0.13615045 0.23321320 -13.59111977 0.25098039 0.27450980 0.65882353
v -0.13024431 0.22657338 -13.59394550 0.25098039 0.27450980 0.65882353
v -0.13446800 0.20712936 -13.60010529 0.25098039 0.27450980 0.65882353
v -0.12670863 0.21852633 -13.60041714 0.25098039 0.27450980 0.65882353
v -0.12074593 0.21270260 -13.60594368 0.25098039 0.27450980 0.65882353
v -0.11180697 0.20064613 -13.61437893 0.25098039 0.27450980 0.65882353
v -0.17071357 0.20987999 -13.57020664 0.25098039 0.27450980 0.65882353
v -0.16978276 0.20002589 -13.56848526 0.25098039 0.27450980 0.65882353
v -0.05347587 0.13802105 -13.55708694 0.25098039 0.27450980 0.65882353
v -0.05750750 0.13481450 -13.55443001 0.25098039 0.27450980 0.65882353
v -0.05953045 0.13848276 -13.55458641 0.25098039 0.27450980 0.65882353
v -0.05525215 0.14119552 -13.55681133 0.25098039 0.27450980 0.65882353
v -0.17068064 0.20905437 -13.55023098 0.25098039 0.27450980 0.65882353
v -0.16537109 0.21398455 -13.54304886 0.25098039 0.27450980 0.65882353
v -0.16995370 0.21814670 -13.54574108 0.25098039 0.27450980 0.65882353
v -0.17345780 0.21481672 -13.55345631 0.25098039 0.27450980 0.65882353
v -0.16659246 0.20141938 -13.54569244 0.25098039 0.27450980 0.65882353
v -0.15892273 0.20775372 -13.53978252 0.25098039 0.27450980 0.65882353
v -0.04434595 0.13961849 -13.54879570 0.25098039 0.27450980 0.65882353
v -0.04577634 0.13987406 -13.55365181 0.25098039 0.27450980 0.65882353
v -0.04737437 0.14434561 -13.55205917 0.25098039 0.27450980 0.65882353
v -0.04661991 0.14450625 -13.54678726 0.25098039 0.27450980 0.65882353
v -0.09558763 0.17332727 -13.57428455 0.25098039 0.27450980 0.65882353
v -0.10418847 0.17360386 -13.57057190 0.25098039 0.27450980 0.65882353
v -0.08429019 0.16132101 -13.56383133 0.25098039 0.27450980 0.65882353
v -0.09283066 0.16682036 -13.56534290 0.25098039 0.27450980 0.65882353
v -0.08779140 0.17048235 -13.56908607 0.25098039 0.27450980 0.65882353
v -0.08072406 0.16673176 -13.56631088 0.25098039 0.27450980 0.65882353
v -0.11380951 0.16545907 -13.55491161 0.25098039 0.27450980 0.65882353
v -0.12070614 0.17401113 -13.55950737 0.25098039 0.27450980 0.65882353
v -0.11452179 0.17478488 -13.56173515 0.25098039 0.27450980 0.65882353
v -0.10599606 0.16508850 -13.55829620 0.25098039 0.27450980 0.65882353
v -0.13325143 0.16964450 -13.55541229 0.25098039 0.27450980 0.65882353
v -0.12548402 0.16185613 -13.55117130 0.25098039 0.27450980 0.65882353
v -0.13374600 0.16040266 -13.54955673 0.25098039 0.27450980 0.65882353
v -0.13817048 0.16571297 -13.55346680 0.25098039 0.27450980 0.65882353
v -0.10884801 0.14939845 -13.54348660 0.25098039 0.27450980 0.65882353
v -0.10257356 0.14579681 -13.53790379 0.25098039 0.27450980 0.65882353
v -0.10478993 0.14478423 -13.53597260 0.25098039 0.27450980 0.65882353
v -0.11180004 0.14896467 -13.54216862 0.25098039 0.27450980 0.65882353
v -0.17362213 0.22319707 -13.54728222 0.25098039 0.27450980 0.65882353
v -0.17484431 0.22079773 -13.55612850 0.25098039 0.27450980 0.65882353
v -0.14431325 0.17340130 -13.52774715 0.25098039 0.27450980 0.65882353
v -0.15389514 0.17144310 -13.53269100 0.25098039 0.27450980 0.65882353
v -0.14961083 0.16028987 -13.52808666 0.25098039 0.27450980 0.65882353
v -0.14117943 0.16532205 -13.52423668 0.25098039 0.27450980 0.65882353
v -0.15647893 0.21818137 -13.54008007 0.25098039 0.27450980 0.65882353
v -0.16219723 0.22230479 -13.54099464 0.25098039 0.27450980 0.65882353
v -0.04580243 0.13754502 -13.54336548 0.25098039 0.27450980 0.65882353
v -0.04800612 0.14230278 -13.54141617 0.25098039 0.27450980 0.65882353
v -0.11260901 0.21886006 -13.59773254 0.25098039 0.27450980 0.65882353
v -0.10394038 0.20490384 -13.60986519 0.25098039 0.27450980 0.65882353
v -0.12001878 0.22757301 -13.59021473 0.25098039 0.27450980 0.65882353
v -0.12473328 0.23375125 -13.58510113 0.25098039 0.27450980 0.65882353
v -0.12905359 0.23981012 -13.58351994 0.25098039 0.27450980 0.65882353
v -0.09482829 0.16174382 -13.56074429 0.25098039 0.27450980 0.65882353
v -0.11236241 0.17694162 -13.56702232 0.25098039 0.27450980 0.65882353
v -0.12990552 0.18120539 -13.56380367 0.25098039 0.27450980 0.65882353
v -0.15582302 0.16877052 -13.55377865 0.25098039 0.27450980 0.65882353
v -0.16185755 0.17686091 -13.55800438 0.25098039 0.27450980 0.65882353
v -0.15154126 0.17613967 -13.56186104 0.25098039 0.27450980 0.65882353
v -0.14835568 0.16932333 -13.55684471 0.25098039 0.27450980 0.65882353
v -0.15757108 0.16575491 -13.53876877 0.25098039 0.27450980 0.65882353
v -0.15440014 0.16191666 -13.54461765 0.25098039 0.27450980 0.65882353
v -0.14960323 0.15472969 -13.54149532 0.25098039 0.27450980 0.65882353
v -0.15247890 0.15740833 -13.53530979 0.25098039 0.27450980 0.65882353
v -0.09009303 0.18806854 -13.60759163 0.25098039 0.27450980 0.65882353
v -0.09150171 0.19918357 -13.59531403 0.25098039 0.27450980 0.65882353
v -0.17289414 0.20471242 -13.55930614 0.25098039 0.27450980 0.65882353
v -0.17362893 0.21138433 -13.56299305 0.25098039 0.27450980 0.65882353
v -0.17460419 0.21997198 -13.56334305 0.25098039 0.27450980 0.65882353
v -0.14516702 0.19290015 -13.57472324 0.25098039 0.27450980 0.65882353
v -0.15222764 0.20376472 -13.58070374 0.25098039 0.27450980 0.65882353
v -0.14930499 0.20364162 -13.58309269 0.25098039 0.27450980 0.65882353
v -0.14240457 0.19267413 -13.57532978 0.25098039 0.27450980 0.65882353
v -0.12970789 0.18681508 -13.58552265 0.25098039 0.27450980 0.65882353
v -0.13779655 0.19659485 -13.59107876 0.25098039 0.27450980 0.65882353
v -0.12342983 0.18222612 -13.59475899 0.25098039 0.27450980 0.65882353
v -0.15161002 0.21837658 -13.58537865 0.25098039 0.27450980 0.65882353
v -0.16033238 0.22401500 -13.58312035 0.25098039 0.27450980 0.65882353
v -0.15337647 0.22756903 -13.58690071 0.25098039 0.27450980 0.65882353
v -0.16734004 0.22174422 -13.57705879 0.25098039 0.27450980 0.65882353
v -0.17207892 0.21999559 -13.56997490 0.25098039 0.27450980 0.65882353
v -0.16648170 0.22805190 -13.53930378 0.25098039 0.27450980 0.65882353
v -0.14612539 0.23083746 -13.58941460 0.25098039 0.27450980 0.65882353
v -0.11527111 0.18105587 -13.61175346 0.25098039 0.27450980 0.65882353
v -0.10970466 0.17578705 -13.61460018 0.25098039 0.27450980 0.65882353
v -0.10729870 0.17324306 -13.60812473 0.25098039 0.27450980 0.65882353
v -0.11242424 0.17708388 -13.60490513 0.25098039 0.27450980 0.65882353
v -0.07250912 0.17401779 -13.55951500 0.25098039 0.27450980 0.65882353
v -0.07579000 0.16991773 -13.56471825 0.25098039 0.27450980 0.65882353
v -0.08215372 0.17479973 -13.57095432 0.25098039 0.27450980 0.65882353
v -0.15615329 0.19010612 -13.57170486 0.25098039 0.27450980 0.65882353
v -0.16722915 0.19075513 -13.56387043 0.25098039 0.27450980 0.65882353
v -0.08532111 0.15658993 -13.55874634 0.25098039 0.27450980 0.65882353
v -0.04987612 0.14916208 -13.54656029 0.25098039 0.27450980 0.65882353
v -0.05046266 0.14900798 -13.55227375 0.25098039 0.27450980 0.65882353
v -0.06291516 0.16293722 -13.55568218 0.25098039 0.27450980 0.65882353
v -0.06199734 0.16341272 -13.54880905 0.25098039 0.27450980 0.65882353
v -0.07939015 0.15269616 -13.54878998 0.25098039 0.27450980 0.65882353
v -0.08074066 0.15338081 -13.55554008 0.25098039 0.27450980 0.65882353
v -0.07794546 0.15238741 -13.55330086 0.25098039 0.27450980 0.65882353
v -0.07703646 0.14931887 -13.54749298 0.25098039 0.27450980 0.65882353
v -0.11379442 0.14422959 -13.53663921 0.25098039 0.27450980 0.65882353
v -0.11987989 0.14821175 -13.54143238 0.25098039 0.27450980 0.65882353
v -0.08735955 0.16961356 -13.53642654 0.25098039 0.27450980 0.65882353
v -0.07866134 0.17763612 -13.54280090 0.25098039 0.27450980 0.65882353
v -0.08545882 0.18556029 -13.54726601 0.25098039 0.27450980 0.65882353
v -0.12077687 0.16425678 -13.55278492 0.25098039 0.27450980 0.65882353
v -0.11504708 0.15603133 -13.54839802 0.25098039 0.27450980 0.65882353
v -0.11860014 0.15502010 -13.54688454 0.25098039 0.27450980 0.65882353
v -0.09453188 0.15838599 -13.55694485 0.25098039 0.27450980 0.65882353
v -0.08715267 0.15395132 -13.55360317 0.25098039 0.27450980 0.65882353
v -0.09323311 0.15467925 -13.55222416 0.25098039 0.27450980 0.65882353
v -0.09963545 0.15904596 -13.55452442 0.25098039 0.27450980 0.65882353
v -0.15909505 0.18300068 -13.53616238 0.25098039 0.27450980 0.65882353
v -0.16372599 0.17642549 -13.54297161 0.25098039 0.27450980 0.65882353
v -0.04915299 0.13953650 -13.55674362 0.25098039 0.27450980 0.65882353
v -0.05073901 0.14342250 -13.55579185 0.25098039 0.27450980 0.65882353
v -0.12721799 0.17272051 -13.55695820 0.25098039 0.27450980 0.65882353
v -0.09314659 0.19462153 -13.55289650 0.25098039 0.27450980 0.65882353
v -0.13463533 0.17963873 -13.56222439 0.25098039 0.27450980 0.65882353
v -0.12464215 0.15699326 -13.52284718 0.25098039 0.27450980 0.65882353
v -0.12726752 0.15071046 -13.52708721 0.25098039 0.27450980 0.65882353
v -0.12259331 0.14671946 -13.52527618 0.25098039 0.27450980 0.65882353
v -0.12052365 0.15043704 -13.52037907 0.25098039 0.27450980 0.65882353
v -0.06608108 0.13856116 -13.54456425 0.25098039 0.27450980 0.65882353
v -0.06595536 0.13824859 -13.55024052 0.25098039 0.27450980 0.65882353
v -0.06229523 0.13577414 -13.54957199 0.25098039 0.27450980 0.65882353
v -0.06197429 0.13531636 -13.54382610 0.25098039 0.27450980 0.65882353
v -0.07899922 0.15651187 -13.56016731 0.25098039 0.27450980 0.65882353
v -0.07575358 0.16159607 -13.56302357 0.25098039 0.27450980 0.65882353
v -0.07192266 0.15661228 -13.56086922 0.25098039 0.27450980 0.65882353
v -0.07526453 0.15371491 -13.55719471 0.25098039 0.27450980 0.65882353
v -0.07072921 0.16512829 -13.56118965 0.25098039 0.27450980 0.65882353
v -0.06694224 0.16054502 -13.56024456 0.25098039 0.27450980 0.65882353
v -0.06264211 0.14106074 -13.53963280 0.25098039 0.27450980 0.65882353
v -0.05645250 0.14492890 -13.53801632 0.25098039 0.27450980 0.65882353
v -0.06880429 0.15703936 -13.53922558 0.25098039 0.27450980 0.65882353
v -0.07268712 0.15067522 -13.54163647 0.25098039 0.27450980 0.65882353
v -0.13665774 0.20307247 -13.53693008 0.25098039 0.27450980 0.65882353
v -0.14686313 0.19992608 -13.53518105 0.25098039 0.27450980 0.65882353
v -0.14124097 0.18717293 -13.53159237 0.25098039 0.27450980 0.65882353
v -0.13598211 0.17514181 -13.52738285 0.25098039 0.27450980 0.65882353
v -0.13038890 0.16313159 -13.52413559 0.25098039 0.27450980 0.65882353
v -0.11980944 0.16777691 -13.52337551 0.25098039 0.27450980 0.65882353
v -0.14894313 0.18571529 -13.53184319 0.25098039 0.27450980 0.65882353
v -0.08294831 0.15669867 -13.54101467 0.25098039 0.27450980 0.65882353
v -0.07803781 0.16484678 -13.53997707 0.25098039 0.27450980 0.65882353
v -0.08397868 0.16279057 -13.53749561 0.25098039 0.27450980 0.65882353
v -0.14117962 0.17657426 -13.56093979 0.25098039 0.27450980 0.65882353
v -0.05363189 0.14738977 -13.55669212 0.25098039 0.27450980 0.65882353
v -0.12492290 0.23494866 -13.56195927 0.25098039 0.27450980 0.65882353
v -0.13256258 0.23288631 -13.55118275 0.25098039 0.27450980 0.65882353
v -0.12844501 0.22628358 -13.55173874 0.25098039 0.27450980 0.65882353
v -0.11983807 0.22832580 -13.56408119 0.25098039 0.27450980 0.65882353
v -0.06328250 0.14055179 -13.55602360 0.25098039 0.27450980 0.65882353
v -0.05851842 0.14394136 -13.55890846 0.25098039 0.27450980 0.65882353
v -0.12488998 0.14552304 -13.53882980 0.25098039 0.27450980 0.65882353
v -0.11901131 0.14303568 -13.53469086 0.25098039 0.27450980 0.65882353
v -0.12057324 0.14270657 -13.53085899 0.25098039 0.27450980 0.65882353
v -0.12785095 0.14239165 -13.53544235 0.25098039 0.27450980 0.65882353
v -0.15261191 0.19932872 -13.53539467 0.25098039 0.27450980 0.65882353
v -0.14781418 0.15285915 -13.52700329 0.25098039 0.27450980 0.65882353
v -0.14036983 0.15768041 -13.52260780 0.25098039 0.27450980 0.65882353
v -0.15123963 0.21125242 -13.53837490 0.25098039 0.27450980 0.65882353
v -0.14226213 0.21405073 -13.53945160 0.25098039 0.27450980 0.65882353
v -0.14642298 0.22180085 -13.54071331 0.25098039 0.27450980 0.65882353
v -0.10437366 0.16512224 -13.52565002 0.25098039 0.27450980 0.65882353
v -0.12876742 0.20338273 -13.53869152 0.25098039 0.27450980 0.65882353
v -0.13535191 0.21442091 -13.54182720 0.25098039 0.27450980 0.65882353
v -0.14000404 0.22388351 -13.54325008 0.25098039 0.27450980 0.65882353
v -0.14301434 0.23077714 -13.54319572 0.25098039 0.27450980 0.65882353
v -0.15001713 0.22732982 -13.54101753 0.25098039 0.27450980 0.65882353
v -0.05198202 0.14691609 -13.54113865 0.25098039 0.27450980 0.65882353
v -0.05242656 0.13914010 -13.53766346 0.25098039 0.27450980 0.65882353
v -0.15369564 0.23369592 -13.53946781 0.25098039 0.27450980 0.65882353
v -0.14557892 0.23677725 -13.54250431 0.25098039 0.27450980 0.65882353
v -0.12728338 0.21530530 -13.54556274 0.25098039 0.27450980 0.65882353
v -0.11866957 0.21583098 -13.55124092 0.25098039 0.27450980 0.65882353
v -0.12107608 0.20484367 -13.54155922 0.25098039 0.27450980 0.65882353
v -0.11135890 0.20488824 -13.54691219 0.25098039 0.27450980 0.65882353
v -0.09685034 0.17180735 -13.52765083 0.25098039 0.27450980 0.65882353
v -0.04983564 0.12266226 -13.54309559 0.25098039 0.27450980 0.65882353
v -0.05534112 0.13185418 -13.53999233 0.25098039 0.27450980 0.65882353
v -0.05938837 0.13124812 -13.54400253 0.25098039 0.27450980 0.65882353
v -0.05380286 0.12182416 -13.54491901 0.25098039 0.27450980 0.65882353
v -0.05858499 0.13668093 -13.53942013 0.25098039 0.27450980 0.65882353
v -0.05018476 0.13466513 -13.53950596 0.25098039 0.27450980 0.65882353
v -0.10135838 0.20491056 -13.55827904 0.25098039 0.27450980 0.65882353
v -0.08700404 0.15128145 -13.54769993 0.25098039 0.27450980 0.65882353
v -0.10899949 0.21672821 -13.56632423 0.25098039 0.27450980 0.65882353
v -0.09036316 0.20034604 -13.57371902 0.25098039 0.27450980 0.65882353
v -0.09743077 0.20809935 -13.58110714 0.25098039 0.27450980 0.65882353
v -0.11590928 0.22940916 -13.57565308 0.25098039 0.27450980 0.65882353
v -0.10657397 0.22021264 -13.58528328 0.25098039 0.27450980 0.65882353
v -0.12685883 0.24119392 -13.57317543 0.25098039 0.27450980 0.65882353
v -0.12172419 0.23501323 -13.57318401 0.25098039 0.27450980 0.65882353
v -0.09903301 0.21021111 -13.59714317 0.25098039 0.27450980 0.65882353
v -0.05179031 0.12786472 -13.55811024 0.25098039 0.27450980 0.65882353
v -0.05579168 0.12557530 -13.55469131 0.25098039 0.27450980 0.65882353
v -0.12872991 0.24135903 -13.56167126 0.25098039 0.27450980 0.65882353
v -0.11699523 0.17932895 -13.60112381 0.25098039 0.27450980 0.65882353
v -0.14594075 0.18413481 -13.56682682 0.25098039 0.27450980 0.65882353
v -0.14067508 0.18546681 -13.56809616 0.25098039 0.27450980 0.65882353
v -0.16457181 0.18238518 -13.55988598 0.25098039 0.27450980 0.65882353
v -0.15331146 0.18283816 -13.56592560 0.25098039 0.27450980 0.65882353
v -0.04672441 0.12971753 -13.55857372 0.25098039 0.27450980 0.65882353
v -0.09874111 0.14559647 -13.53195667 0.25098039 0.27450980 0.65882353
v -0.10130566 0.14714825 -13.53167439 0.25098039 0.27450980 0.65882353
v -0.11288036 0.18682632 -13.61705685 0.25098039 0.27450980 0.65882353
v -0.10880882 0.18125957 -13.61947727 0.25098039 0.27450980 0.65882353
v -0.09751153 0.18737614 -13.61967945 0.25098039 0.27450980 0.65882353
v -0.10372385 0.18504110 -13.62184715 0.25098039 0.27450980 0.65882353
v -0.10709685 0.19249012 -13.61908150 0.25098039 0.27450980 0.65882353
v -0.10065569 0.19543514 -13.61664486 0.25098039 0.27450980 0.65882353
v -0.14706424 0.19207585 -13.57442951 0.25098039 0.27450980 0.65882353
v -0.15021752 0.19090217 -13.57339668 0.25098039 0.27450980 0.65882353
v -0.16329914 0.19281119 -13.54098320 0.25098039 0.27450980 0.65882353
v -0.16718508 0.18612623 -13.54833984 0.25098039 0.27450980 0.65882353
v -0.06795849 0.16832536 -13.55629826 0.25098039 0.27450980 0.65882353
v -0.07293569 0.17599042 -13.55114746 0.25098039 0.27450980 0.65882353
v -0.06782860 0.16932189 -13.54921627 0.25098039 0.27450980 0.65882353
v -0.06519094 0.16254526 -13.54252148 0.25098039 0.27450980 0.65882353
v -0.08285350 0.15187442 -13.54357719 0.25098039 0.27450980 0.65882353
v -0.07819785 0.15512691 -13.54376316 0.25098039 0.27450980 0.65882353
v -0.14408097 0.19918901 -13.58661079 0.25098039 0.27450980 0.65882353
v -0.13645411 0.19031149 -13.57809353 0.25098039 0.27450980 0.65882353
v -0.10496591 0.17543614 -13.59936714 0.25098039 0.27450980 0.65882353
v -0.10139105 0.17430958 -13.60278130 0.25098039 0.27450980 0.65882353
v -0.10730803 0.15914552 -13.55207253 0.25098039 0.27450980 0.65882353
v -0.09555496 0.15672737 -13.52481842 0.25098039 0.27450980 0.65882353
v -0.08982073 0.16204289 -13.52670479 0.25098039 0.27450980 0.65882353
v -0.10097250 0.15305829 -13.54815483 0.25098039 0.27450980 0.65882353
v -0.04073739 0.12906635 -13.55210686 0.25098039 0.27450980 0.65882353
v -0.04326025 0.12981755 -13.55656624 0.25098039 0.27450980 0.65882353
v -0.07143368 0.16899091 -13.54284477 0.25098039 0.27450980 0.65882353
v -0.12654538 0.15259711 -13.54601765 0.25098039 0.27450980 0.65882353
v -0.10454157 0.15852500 -13.52509594 0.25098039 0.27450980 0.65882353
v -0.09767310 0.15021695 -13.52630520 0.25098039 0.27450980 0.65882353
v -0.14938390 0.15239523 -13.53457451 0.25098039 0.27450980 0.65882353
v -0.13630754 0.23954946 -13.55156994 0.25098039 0.27450980 0.65882353
v -0.06033604 0.13167968 -13.54958153 0.25098039 0.27450980 0.65882353
v -0.05731963 0.12372080 -13.55011082 0.25098039 0.27450980 0.65882353
v -0.04613003 0.12487644 -13.54312134 0.25098039 0.27450980 0.65882353
v -0.04209170 0.12805307 -13.54621792 0.25098039 0.27450980 0.65882353
v -0.16978350 0.19443139 -13.55441380 0.25098039 0.27450980 0.65882353
v -0.13749008 0.18649730 -13.56831455 0.25098039 0.27450980 0.65882353
v -0.09497854 0.19976561 -13.60725784 0.25098039 0.27450980 0.65882353
v -0.09257743 0.18868642 -13.61444664 0.25098039 0.27450980 0.65882353
v -0.09669971 0.14915299 -13.54472351 0.25098039 0.27450980 0.65882353
v -0.13204212 0.15584110 -13.52442455 0.25098039 0.27450980 0.65882353
v -0.11623806 0.16005728 -13.52044010 0.25098039 0.27450980 0.65882353
v -0.11288050 0.15345134 -13.51724911 0.25098039 0.27450980 0.65882353
v -0.10559924 0.15224302 -13.51960468 0.25098039 0.27450980 0.65882353
v -0.10101706 0.14842233 -13.52445316 0.25098039 0.27450980 0.65882353
v -0.04516257 0.11950840 -13.54530621 0.25098039 0.27450980 0.65882353
v -0.04104356 0.12282728 -13.54819298 0.25098039 0.27450980 0.65882353
v -0.03974941 0.12429471 -13.55391502 0.25098039 0.27450980 0.65882353
v -0.04197432 0.12587880 -13.55774021 0.25098039 0.27450980 0.65882353
v -0.04610491 0.12655252 -13.55920124 0.25098039 0.27450980 0.65882353
v -0.04900075 0.11729970 -13.54578114 0.25098039 0.27450980 0.65882353
v -0.05249988 0.11710614 -13.54778862 0.25098039 0.27450980 0.65882353
v -0.05605972 0.12061729 -13.55109310 0.25098039 0.27450980 0.65882353
v -0.04997244 0.11350481 -13.54920959 0.25098039 0.27450980 0.65882353
v -0.04494008 0.11213367 -13.55037212 0.25098039 0.27450980 0.65882353
v -0.04145759 0.11398876 -13.56383324 0.25098039 0.27450980 0.65882353
v -0.03990415 0.11701363 -13.55876923 0.25098039 0.27450980 0.65882353
v -0.04026133 0.11426441 -13.55892086 0.25098039 0.27450980 0.65882353
v -0.04157484 0.11106761 -13.56268311 0.25098039 0.27450980 0.65882353
v -0.04256968 0.10660826 -13.56533241 0.25098039 0.27450980 0.65882353
v -0.04249176 0.10941550 -13.56741047 0.25098039 0.27450980 0.65882353
v -0.04134235 0.11400916 -13.55433846 0.25098039 0.27450980 0.65882353
v -0.04293989 0.10899192 -13.55879593 0.25098039 0.27450980 0.65882353
v -0.04572304 0.10735768 -13.55621815 0.25098039 0.27450980 0.65882353
v -0.04612750 0.10299195 -13.55995560 0.25098039 0.27450980 0.65882353
v -0.04355028 0.10423920 -13.56221581 0.25098039 0.27450980 0.65882353
v -0.04430360 0.11076938 -13.55327988 0.25098039 0.27450980 0.65882353
v -0.04050224 0.11578055 -13.55240154 0.25098039 0.27450980 0.65882353
v -0.04390931 0.10497572 -13.56841087 0.25098039 0.27450980 0.65882353
v -0.04307185 0.10371047 -13.56646442 0.25098039 0.27450980 0.65882353
v -0.04443088 0.10193661 -13.56438732 0.25098039 0.27450980 0.65882353
v -0.04607908 0.10078253 -13.56675816 0.25098039 0.27450980 0.65882353
v -0.04222704 0.12203661 -13.56036186 0.25098039 0.27450980 0.65882353
v -0.04291357 0.11543116 -13.56545067 0.25098039 0.27450980 0.65882353
v -0.04520749 0.11051077 -13.56832218 0.25098039 0.27450980 0.65882353
v -0.04641980 0.10603026 -13.56915951 0.25098039 0.27450980 0.65882353
v -0.04690501 0.11522509 -13.56632805 0.25098039 0.27450980 0.65882353
v -0.04809411 0.11092631 -13.56809425 0.25098039 0.27450980 0.65882353
v -0.04943649 0.10711011 -13.56842327 0.25098039 0.27450980 0.65882353
v -0.05094464 0.11428005 -13.56573105 0.25098039 0.27450980 0.65882353
v -0.05105655 0.11041709 -13.56711197 0.25098039 0.27450980 0.65882353
v -0.04989363 0.12351428 -13.55975628 0.25098039 0.27450980 0.65882353
v -0.04595031 0.12471996 -13.56056404 0.25098039 0.27450980 0.65882353
v -0.05141817 0.10797932 -13.56798077 0.25098039 0.27450980 0.65882353
v -0.04824033 0.10130717 -13.56724644 0.25098039 0.27450980 0.65882353
v -0.04860854 0.10818302 -13.55410004 0.25098039 0.27450980 0.65882353
v -0.04929537 0.10350306 -13.55967045 0.25098039 0.27450980 0.65882353
v -0.05101039 0.10861236 -13.55426502 0.25098039 0.27450980 0.65882353
v -0.05167706 0.10371582 -13.55941772 0.25098039 0.27450980 0.65882353
v -0.04872030 0.10006019 -13.56282425 0.25098039 0.27450980 0.65882353
v -0.04644418 0.10119575 -13.56248856 0.25098039 0.27450980 0.65882353
v -0.05118297 0.12584256 -13.55805111 0.25098039 0.27450980 0.65882353
v -0.05522345 0.12331071 -13.55454731 0.25098039 0.27450980 0.65882353
v -0.05438425 0.12116946 -13.55608559 0.25098039 0.27450980 0.65882353
v -0.05449337 0.11269686 -13.56297779 0.25098039 0.27450980 0.65882353
v -0.05564705 0.11822483 -13.55337048 0.25098039 0.27450980 0.65882353
v -0.05330713 0.11388110 -13.55130196 0.25098039 0.27450980 0.65882353
v -0.05346100 0.10874253 -13.55607986 0.25098039 0.27450980 0.65882353
v -0.05513944 0.11014433 -13.55865765 0.25098039 0.27450980 0.65882353
v -0.05354907 0.10506313 -13.56022263 0.25098039 0.27450980 0.65882353
v -0.05415034 0.10680907 -13.56188583 0.25098039 0.27450980 0.65882353
v -0.05363241 0.10885136 -13.56507301 0.25098039 0.27450980 0.65882353
v -0.05262943 0.10311766 -13.56384563 0.25098039 0.27450980 0.65882353
v -0.05067989 0.10100445 -13.56326103 0.25098039 0.27450980 0.65882353
v -0.05076998 0.10369390 -13.56700802 0.25098039 0.27450980 0.65882353
v -0.05357176 0.10487378 -13.56398106 0.25098039 0.27450980 0.65882353
v -0.05204405 0.10600446 -13.56628323 0.25098039 0.27450980 0.65882353
v -0.07233302 0.12171265 -13.53588295 0.25098039 0.27450980 0.65882353
v -0.07728447 0.11927916 -13.53258610 0.25098039 0.27450980 0.65882353
v -0.07823786 0.12446319 -13.53229618 0.25098039 0.27450980 0.65882353
v -0.07398905 0.12603414 -13.53521347 0.25098039 0.27450980 0.65882353
v -0.06296524 0.12549558 -13.52698326 0.25098039 0.27450980 0.65882353
v -0.06478320 0.12448872 -13.53240299 0.25098039 0.27450980 0.65882353
v -0.06570350 0.12965193 -13.53136158 0.25098039 0.27450980 0.65882353
v -0.06497723 0.13082781 -13.52504349 0.25098039 0.27450980 0.65882353
v -0.06584948 0.12479658 -13.52087688 0.25098039 0.27450980 0.65882353
v -0.06819299 0.13034907 -13.51907730 0.25098039 0.27450980 0.65882353
v -0.06682852 0.13594499 -13.52525139 0.25098039 0.27450980 0.65882353
v -0.06818242 0.13463363 -13.53209114 0.25098039 0.27450980 0.65882353
v -0.07967307 0.15138014 -13.53760052 0.25098039 0.27450980 0.65882353
v -0.07866636 0.15346834 -13.53079128 0.25098039 0.27450980 0.65882353
v -0.09521626 0.14304563 -13.53589821 0.25098039 0.27450980 0.65882353
v -0.09462878 0.14288099 -13.53194427 0.25098039 0.27450980 0.65882353
v -0.06861354 0.12306374 -13.53540421 0.25098039 0.27450980 0.65882353
v -0.06967965 0.12773851 -13.53442669 0.25098039 0.27450980 0.65882353
v -0.08499792 0.12638876 -13.52603912 0.25098039 0.27450980 0.65882353
v -0.08411406 0.12634602 -13.53136253 0.25098039 0.27450980 0.65882353
v -0.08147793 0.12249127 -13.52936935 0.25098039 0.27450980 0.65882353
v -0.08157700 0.12242106 -13.52375603 0.25098039 0.27450980 0.65882353
v -0.08637679 0.14796013 -13.54216480 0.25098039 0.27450980 0.65882353
v -0.09184010 0.14586845 -13.53966999 0.25098039 0.27450980 0.65882353
v -0.08269623 0.14906529 -13.54094124 0.25098039 0.27450980 0.65882353
v -0.08294617 0.12816876 -13.52003002 0.25098039 0.27450980 0.65882353
v -0.07785867 0.13155822 -13.51669216 0.25098039 0.27450980 0.65882353
v -0.08823657 0.14855924 -13.52115631 0.25098039 0.27450980 0.65882353
v -0.09238094 0.14452809 -13.52393436 0.25098039 0.27450980 0.65882353
v -0.07138728 0.13225070 -13.53600597 0.25098039 0.27450980 0.65882353
v -0.08056502 0.12757900 -13.53530121 0.25098039 0.27450980 0.65882353
v -0.07616153 0.12953210 -13.53740692 0.25098039 0.27450980 0.65882353
v -0.07134546 0.13511509 -13.51951599 0.25098039 0.27450980 0.65882353
v -0.07416405 0.12605654 -13.51658821 0.25098039 0.27450980 0.65882353
v -0.07194526 0.10635492 -13.52168083 0.25098039 0.27450980 0.65882353
v -0.07660779 0.11799939 -13.51937866 0.25098039 0.27450980 0.65882353
v -0.07925317 0.11699277 -13.52364063 0.25098039 0.27450980 0.65882353
v -0.07533441 0.10491289 -13.52499771 0.25098039 0.27450980 0.65882353
v -0.07916093 0.12336695 -13.51883698 0.25098039 0.27450980 0.65882353
v -0.07155591 0.12101690 -13.51808548 0.25098039 0.27450980 0.65882353
v -0.06986664 0.10694742 -13.53779221 0.25098039 0.27450980 0.65882353
v -0.07485625 0.10476378 -13.53428173 0.25098039 0.27450980 0.65882353
v -0.06542218 0.10835534 -13.53803539 0.25098039 0.27450980 0.65882353
v -0.08238672 0.15271330 -13.52378273 0.25098039 0.27450980 0.65882353
v -0.05946770 0.11204158 -13.53024483 0.25098039 0.27450980 0.65882353
v -0.06200230 0.11024639 -13.53609276 0.25098039 0.27450980 0.65882353
v -0.08003902 0.11752497 -13.52861691 0.25098039 0.27450980 0.65882353
v -0.07655820 0.10397120 -13.52957058 0.25098039 0.27450980 0.65882353
v -0.06773260 0.10831273 -13.52099419 0.25098039 0.27450980 0.65882353
v -0.06211847 0.11226673 -13.52391529 0.25098039 0.27450980 0.65882353
v -0.06624499 0.10252984 -13.52286243 0.25098039 0.27450980 0.65882353
v -0.06104660 0.10529412 -13.52580357 0.25098039 0.27450980 0.65882353
v -0.05872723 0.10569680 -13.53198719 0.25098039 0.27450980 0.65882353
v -0.06172588 0.10544680 -13.53700447 0.25098039 0.27450980 0.65882353
v -0.06523290 0.10501280 -13.53865623 0.25098039 0.27450980 0.65882353
v -0.07022239 0.10078570 -13.52357292 0.25098039 0.27450980 0.65882353
v -0.07373692 0.09991443 -13.52646828 0.25098039 0.27450980 0.65882353
v -0.07546034 0.10146505 -13.53073788 0.25098039 0.27450980 0.65882353
v -0.07109429 0.09441435 -13.52745152 0.25098039 0.27450980 0.65882353
v -0.06652135 0.09409547 -13.52686691 0.25098039 0.27450980 0.65882353
v -0.06194220 0.08786771 -13.54384041 0.25098039 0.27450980 0.65882353
v -0.06077087 0.09291756 -13.54052162 0.25098039 0.27450980 0.65882353
v -0.06074135 0.09124489 -13.53844452 0.25098039 0.27450980 0.65882353
v -0.06189609 0.08660379 -13.54128742 0.25098039 0.27450980 0.65882353
v -0.05889225 0.09680690 -13.53575325 0.25098039 0.27450980 0.65882353
v -0.05972163 0.09441757 -13.53504562 0.25098039 0.27450980 0.65882353
v -0.06176497 0.09409858 -13.53083229 0.25098039 0.27450980 0.65882353
v -0.06310381 0.08918434 -13.53462410 0.25098039 0.27450980 0.65882353
v -0.06681830 0.08871789 -13.53165722 0.25098039 0.27450980 0.65882353
v -0.06720835 0.08347467 -13.53428745 0.25098039 0.27450980 0.65882353
v -0.06347169 0.08390078 -13.53728867 0.25098039 0.27450980 0.65882353
v -0.06490566 0.09209077 -13.52944946 0.25098039 0.27450980 0.65882353
v -0.06285985 0.08316603 -13.54237080 0.25098039 0.27450980 0.65882353
v -0.06400600 0.08251119 -13.54464340 0.25098039 0.27450980 0.65882353
v -0.06062101 0.09668040 -13.52896976 0.25098039 0.27450980 0.65882353
v -0.06111225 0.10169129 -13.53835487 0.25098039 0.27450980 0.65882353
v -0.06249076 0.09397534 -13.54288101 0.25098039 0.27450980 0.65882353
v -0.06440739 0.08821365 -13.54595470 0.25098039 0.27450980 0.65882353
v -0.06694856 0.08246788 -13.54558277 0.25098039 0.27450980 0.65882353
v -0.06648412 0.09397303 -13.54438591 0.25098039 0.27450980 0.65882353
v -0.06766415 0.08831444 -13.54648113 0.25098039 0.27450980 0.65882353
v -0.06945448 0.08363500 -13.54538727 0.25098039 0.27450980 0.65882353
v -0.07124330 0.09358215 -13.54428291 0.25098039 0.27450980 0.65882353
v -0.07179496 0.08791584 -13.54556561 0.25098039 0.27450980 0.65882353
v -0.06993237 0.10283826 -13.53918934 0.25098039 0.27450980 0.65882353
v -0.06530218 0.10303740 -13.54015446 0.25098039 0.27450980 0.65882353
v -0.07133578 0.08518982 -13.54510212 0.25098039 0.27450980 0.65882353
v -0.06566291 0.07916275 -13.54135036 0.25098039 0.27450980 0.65882353
v -0.06873628 0.07965402 -13.54294014 0.25098039 0.27450980 0.65882353
v -0.06470673 0.08061418 -13.54008865 0.25098039 0.27450980 0.65882353
v -0.06887740 0.08876047 -13.53102589 0.25098039 0.27450980 0.65882353
v -0.06950492 0.08340901 -13.53486729 0.25098039 0.27450980 0.65882353
v -0.07174173 0.08874561 -13.53163433 0.25098039 0.27450980 0.65882353
v -0.07178745 0.08316517 -13.53602219 0.25098039 0.27450980 0.65882353
v -0.06885287 0.07970938 -13.53793907 0.25098039 0.27450980 0.65882353
v -0.06717393 0.08007182 -13.53760624 0.25098039 0.27450980 0.65882353
v -0.06947568 0.10440494 -13.53761101 0.25098039 0.27450980 0.65882353
v -0.07398693 0.10286774 -13.53438091 0.25098039 0.27450980 0.65882353
v -0.07430874 0.10159510 -13.53580093 0.25098039 0.27450980 0.65882353
v -0.07492830 0.09218015 -13.54066181 0.25098039 0.27450980 0.65882353
v -0.07577197 0.09952354 -13.53184700 0.25098039 0.27450980 0.65882353
v -0.07402635 0.09576869 -13.52910805 0.25098039 0.27450980 0.65882353
v -0.07420169 0.08959988 -13.53282166 0.25098039 0.27450980 0.65882353
v -0.07583116 0.09052004 -13.53636169 0.25098039 0.27450980 0.65882353
v -0.07405940 0.08346048 -13.53631306 0.25098039 0.27450980 0.65882353
v -0.07529998 0.08589831 -13.53800583 0.25098039 0.27450980 0.65882353
v -0.07466398 0.08733562 -13.54264164 0.25098039 0.27450980 0.65882353
v -0.07283174 0.08018479 -13.53951263 0.25098039 0.27450980 0.65882353
v -0.07058249 0.07949609 -13.53869820 0.25098039 0.27450980 0.65882353
v -0.07058412 0.08103281 -13.54329300 0.25098039 0.27450980 0.65882353
v -0.07428598 0.08275476 -13.54017448 0.25098039 0.27450980 0.65882353
v -0.07273471 0.08354844 -13.54338932 0.25098039 0.27450980 0.65882353
v -0.09544034 0.12172858 -13.52324772 0.25098039 0.27450980 0.65882353
v -0.10109144 0.12026751 -13.52435684 0.25098039 0.27450980 0.65882353
v -0.10218750 0.12380329 -13.52451324 0.25098039 0.27450980 0.65882353
v -0.09669811 0.12532267 -13.52332592 0.25098039 0.27450980 0.65882353
v -0.09446967 0.12313140 -13.51082325 0.25098039 0.27450980 0.65882353
v -0.09193096 0.12271293 -13.51501274 0.25098039 0.27450980 0.65882353
v -0.09321478 0.12748176 -13.51501274 0.25098039 0.27450980 0.65882353
v -0.09598921 0.12930715 -13.51056957 0.25098039 0.27450980 0.65882353
v -0.09897661 0.12067073 -13.50864220 0.25098039 0.27450980 0.65882353
v -0.10139415 0.12872273 -13.50760746 0.25098039 0.27450980 0.65882353
v -0.09723303 0.13512009 -13.51107597 0.25098039 0.27450980 0.65882353
v -0.09437098 0.13206813 -13.51574707 0.25098039 0.27450980 0.65882353
v -0.09975387 0.14498185 -13.52220821 0.25098039 0.27450980 0.65882353
v -0.10268639 0.14725330 -13.51633263 0.25098039 0.27450980 0.65882353
v -0.09267619 0.12227707 -13.51958847 0.25098039 0.27450980 0.65882353
v -0.09380333 0.12614134 -13.51978588 0.25098039 0.27450980 0.65882353
v -0.11136264 0.12493404 -13.52179718 0.25098039 0.27450980 0.65882353
v -0.10795280 0.12511036 -13.52518940 0.25098039 0.27450980 0.65882353
v -0.10710391 0.12224723 -13.52296257 0.25098039 0.27450980 0.65882353
v -0.10978784 0.12183215 -13.51969242 0.25098039 0.27450980 0.65882353
v -0.10457359 0.14228845 -13.53207493 0.25098039 0.27450980 0.65882353
v -0.11062807 0.14200789 -13.53218651 0.25098039 0.27450980 0.65882353
v -0.10059340 0.14234492 -13.52802372 0.25098039 0.27450980 0.65882353
v -0.11223121 0.12652102 -13.51551723 0.25098039 0.27450980 0.65882353
v -0.10976797 0.13073032 -13.50983906 0.25098039 0.27450980 0.65882353
v -0.11632165 0.14298463 -13.51593208 0.25098039 0.27450980 0.65882353
v -0.11821339 0.14063756 -13.52162266 0.25098039 0.27450980 0.65882353
v -0.09467889 0.12970535 -13.52060509 0.25098039 0.27450980 0.65882353
v -0.10313331 0.12672772 -13.52663898 0.25098039 0.27450980 0.65882353
v -0.09760530 0.12790731 -13.52506542 0.25098039 0.27450980 0.65882353
v -0.10322049 0.13447496 -13.50903416 0.25098039 0.27450980 0.65882353
v -0.10713212 0.12497483 -13.50945282 0.25098039 0.27450980 0.65882353
v -0.10344662 0.10220673 -13.51371479 0.25098039 0.27450980 0.65882353
v -0.10882416 0.11812057 -13.51363277 0.25098039 0.27450980 0.65882353
v -0.10855106 0.11791696 -13.51935482 0.25098039 0.27450980 0.65882353
v -0.10467009 0.10230286 -13.51795578 0.25098039 0.27450980 0.65882353
v -0.11030543 0.12204503 -13.51430798 0.25098039 0.27450980 0.65882353
v -0.10521062 0.11945830 -13.50947189 0.25098039 0.27450980 0.65882353
v -0.09261984 0.10642119 -13.52477741 0.25098039 0.27450980 0.65882353
v -0.09830971 0.10557351 -13.52497959 0.25098039 0.27450980 0.65882353
v -0.08979256 0.10775843 -13.52158642 0.25098039 0.27450980 0.65882353
v -0.10932253 0.14695960 -13.51319790 0.25098039 0.27450980 0.65882353
v -0.11642951 0.14041027 -13.52832985 0.25098039 0.27450980 0.65882353
v -0.08909790 0.10675137 -13.51406765 0.25098039 0.27450980 0.65882353
v -0.08845377 0.10751487 -13.51839256 0.25098039 0.27450980 0.65882353
v -0.10604683 0.11897793 -13.52270889 0.25098039 0.27450980 0.65882353
v -0.10310461 0.10358969 -13.52220249 0.25098039 0.27450980 0.65882353
v -0.09996113 0.10384943 -13.51063251 0.25098039 0.27450980 0.65882353
v -0.09401792 0.10642928 -13.51028728 0.25098039 0.27450980 0.65882353
v -0.09917232 0.09752440 -13.51260948 0.25098039 0.27450980 0.65882353
v -0.09306887 0.09938604 -13.51246929 0.25098039 0.27450980 0.65882353
v -0.08842269 0.10010265 -13.51622105 0.25098039 0.27450980 0.65882353
v -0.08806284 0.10198186 -13.52037239 0.25098039 0.27450980 0.65882353
v -0.08941673 0.10300884 -13.52327251 0.25098039 0.27450980 0.65882353
v -0.10271601 0.09724557 -13.51628780 0.25098039 0.27450980 0.65882353
v -0.10353374 0.09845039 -13.52001572 0.25098039 0.27450980 0.65882353
v -0.10204062 0.10203324 -13.52251244 0.25098039 0.27450980 0.65882353
v -0.10306771 0.09419657 -13.51975822 0.25098039 0.27450980 0.65882353
v -0.09874278 0.09149732 -13.51723194 0.25098039 0.27450980 0.65882353
v -0.08989851 0.08514234 -13.53061581 0.25098039 0.27450980 0.65882353
v -0.08943760 0.08968326 -13.52660751 0.25098039 0.27450980 0.65882353
v -0.09006917 0.08882725 -13.52586651 0.25098039 0.27450980 0.65882353
v -0.09038995 0.08398068 -13.52927780 0.25098039 0.27450980 0.65882353
v -0.08913715 0.09321843 -13.52046204 0.25098039 0.27450980 0.65882353
v -0.09009309 0.09144351 -13.52126789 0.25098039 0.27450980 0.65882353
v -0.09316556 0.09096311 -13.51872158 0.25098039 0.27450980 0.65882353
v -0.09376597 0.08605352 -13.52329254 0.25098039 0.27450980 0.65882353
v -0.09962182 0.08749500 -13.52345085 0.25098039 0.27450980 0.65882353
v -0.09898125 0.08391860 -13.52719593 0.25098039 0.27450980 0.65882353
v -0.09391665 0.08202310 -13.52704239 0.25098039 0.27450980 0.65882353
v -0.09765416 0.09038292 -13.51893139 0.25098039 0.27450980 0.65882353
v -0.09153473 0.08140633 -13.53094006 0.25098039 0.27450980 0.65882353
v -0.08998990 0.08102390 -13.53262711 0.25098039 0.27450980 0.65882353
v -0.09282407 0.09260532 -13.51643848 0.25098039 0.27450980 0.65882353
v -0.08739913 0.09696120 -13.52330589 0.25098039 0.27450980 0.65882353
v -0.08839786 0.09139192 -13.52880669 0.25098039 0.27450980 0.65882353
v -0.08857924 0.08698577 -13.53331089 0.25098039 0.27450980 0.65882353
v -0.09079498 0.08346403 -13.53548622 0.25098039 0.27450980 0.65882353
v -0.09016408 0.09352210 -13.53133392 0.25098039 0.27450980 0.65882353
v -0.09057470 0.08906743 -13.53473568 0.25098039 0.27450980 0.65882353
v -0.09246731 0.08595873 -13.53676224 0.25098039 0.27450980 0.65882353
v -0.09286754 0.09475830 -13.53271103 0.25098039 0.27450980 0.65882353
v -0.09340371 0.09064949 -13.53552246 0.25098039 0.27450980 0.65882353
v -0.09242815 0.10197120 -13.52637196 0.25098039 0.27450980 0.65882353
v -0.08919415 0.09995119 -13.52528286 0.25098039 0.27450980 0.65882353
v -0.09411843 0.08768758 -13.53670883 0.25098039 0.27450980 0.65882353
v -0.09437592 0.07897535 -13.53201485 0.25098039 0.27450980 0.65882353
v -0.09609589 0.08124077 -13.53544617 0.25098039 0.27450980 0.65882353
v -0.09427999 0.08044295 -13.53033161 0.25098039 0.27450980 0.65882353
v -0.10132064 0.08851393 -13.52340889 0.25098039 0.27450980 0.65882353
v -0.10111602 0.08391400 -13.52842808 0.25098039 0.27450980 0.65882353
v -0.10308088 0.09016350 -13.52513981 0.25098039 0.27450980 0.65882353
v -0.10283756 0.08549286 -13.52992344 0.25098039 0.27450980 0.65882353
v -0.09921575 0.08062115 -13.53072929 0.25098039 0.27450980 0.65882353
v -0.09820974 0.08104616 -13.52985001 0.25098039 0.27450980 0.65882353
v -0.09292515 0.10397422 -13.52478504 0.25098039 0.27450980 0.65882353
v -0.09802575 0.10363361 -13.52478886 0.25098039 0.27450980 0.65882353
v -0.09725024 0.10231480 -13.52635860 0.25098039 0.27450980 0.65882353
v -0.09755497 0.09490986 -13.53332138 0.25098039 0.27450980 0.65882353
v -0.10139604 0.10094593 -13.52457428 0.25098039 0.27450980 0.65882353
v -0.10344152 0.09585726 -13.52329254 0.25098039 0.27450980 0.65882353
v -0.10308596 0.09200877 -13.52796555 0.25098039 0.27450980 0.65882353
v -0.10141972 0.09343792 -13.53119564 0.25098039 0.27450980 0.65882353
v -0.10284591 0.08756621 -13.53184414 0.25098039 0.27450980 0.65882353
v -0.10127047 0.08970261 -13.53305340 0.25098039 0.27450980 0.65882353
v -0.09753810 0.09102426 -13.53602600 0.25098039 0.27450980 0.65882353
v -0.10047174 0.08480527 -13.53410530 0.25098039 0.27450980 0.65882353
v -0.10060550 0.08214557 -13.53269672 0.25098039 0.27450980 0.65882353
v -0.09668279 0.08431761 -13.53670788 0.25098039 0.27450980 0.65882353
v -0.09999503 0.08714429 -13.53502846 0.25098039 0.27450980 0.65882353
v -0.09710386 0.08694783 -13.53695965 0.25098039 0.27450980 0.65882353
v -0.11458504 0.14117798 -13.53130150 0.25098039 0.27450980 0.65882353
v -0.13284233 0.11936111 -13.53135300 0.25098039 0.27450980 0.65882353
v -0.13651025 0.11957867 -13.53305531 0.25098039 0.27450980 0.65882353
v -0.13729571 0.12262204 -13.53194809 0.25098039 0.27450980 0.65882353
v -0.13342102 0.12332874 -13.53099632 0.25098039 0.27450980 0.65882353
v -0.13315006 0.11885191 -13.52035427 0.25098039 0.27450980 0.65882353
v -0.13091916 0.11857709 -13.52419567 0.25098039 0.27450980 0.65882353
v -0.13076210 0.12330386 -13.52280045 0.25098039 0.27450980 0.65882353
v -0.13295975 0.12379099 -13.51905441 0.25098039 0.27450980 0.65882353
v -0.13781101 0.11878010 -13.51884365 0.25098039 0.27450980 0.65882353
v -0.13803607 0.12355882 -13.51779747 0.25098039 0.27450980 0.65882353
v -0.13273361 0.12754422 -13.51869106 0.25098039 0.27450980 0.65882353
v -0.13035767 0.12710604 -13.52282524 0.25098039 0.27450980 0.65882353
v -0.12921757 0.14342868 -13.52593994 0.25098039 0.27450980 0.65882353
v -0.13254243 0.14612746 -13.52216625 0.25098039 0.27450980 0.65882353
v -0.14759520 0.14659272 -13.53353119 0.25098039 0.27450980 0.65882353
v -0.14363311 0.14689755 -13.53901100 0.25098039 0.27450980 0.65882353
v -0.14323997 0.13862850 -13.53480148 0.25098039 0.27450980 0.65882353
v -0.14647898 0.14010000 -13.53086948 0.25098039 0.27450980 0.65882353
v -0.13110934 0.11887750 -13.52807903 0.25098039 0.27450980 0.65882353
v -0.13087283 0.12317908 -13.52781487 0.25098039 0.27450980 0.65882353
v -0.14582451 0.12656982 -13.52856541 0.25098039 0.27450980 0.65882353
v -0.14236099 0.12594044 -13.53162670 0.25098039 0.27450980 0.65882353
v -0.14127532 0.12277788 -13.53208160 0.25098039 0.27450980 0.65882353
v -0.14509434 0.12225450 -13.52974319 0.25098039 0.27450980 0.65882353
v -0.13804294 0.14548525 -13.54015064 0.25098039 0.27450980 0.65882353
v -0.13309434 0.14505816 -13.53886318 0.25098039 0.27450980 0.65882353
v -0.13304599 0.14053847 -13.53738689 0.25098039 0.27450980 0.65882353
v -0.13847381 0.13774705 -13.53632832 0.25098039 0.27450980 0.65882353
v -0.12929487 0.14070161 -13.53328037 0.25098039 0.27450980 0.65882353
v -0.14657384 0.12681440 -13.52465057 0.25098039 0.27450980 0.65882353
v -0.14415996 0.12718150 -13.51946640 0.25098039 0.27450980 0.65882353
v -0.14644773 0.14456758 -13.52206612 0.25098039 0.27450980 0.65882353
v -0.14761528 0.14320216 -13.52645016 0.25098039 0.27450980 0.65882353
v -0.13038169 0.12592725 -13.52718830 0.25098039 0.27450980 0.65882353
v -0.13806573 0.12550572 -13.53216362 0.25098039 0.27450980 0.65882353
v -0.13371146 0.12537399 -13.53099442 0.25098039 0.27450980 0.65882353
v -0.13825998 0.12769729 -13.51698303 0.25098039 0.27450980 0.65882353
v -0.14361259 0.12251943 -13.52029610 0.25098039 0.27450980 0.65882353
v -0.14520475 0.10940247 -13.52890873 0.25098039 0.27450980 0.65882353
v -0.14600557 0.11863510 -13.52634144 0.25098039 0.27450980 0.65882353
v -0.14456105 0.11891210 -13.53096294 0.25098039 0.27450980 0.65882353
v -0.14447398 0.10996725 -13.53175735 0.25098039 0.27450980 0.65882353
v -0.14603689 0.12227519 -13.52540112 0.25098039 0.27450980 0.65882353
v -0.14346477 0.11804990 -13.52144146 0.25098039 0.27450980 0.65882353
v -0.13263816 0.11078130 -13.53376102 0.25098039 0.27450980 0.65882353
v -0.13757995 0.11144520 -13.53510284 0.25098039 0.27450980 0.65882353
v -0.13094679 0.11025891 -13.53111267 0.25098039 0.27450980 0.65882353
v -0.13913909 0.14614493 -13.51953983 0.25098039 0.27450980 0.65882353
v -0.13286752 0.10873248 -13.52405739 0.25098039 0.27450980 0.65882353
v -0.13065904 0.10899793 -13.52779770 0.25098039 0.27450980 0.65882353
v -0.14054309 0.11933935 -13.53304863 0.25098039 0.27450980 0.65882353
v -0.14183123 0.11102463 -13.53412056 0.25098039 0.27450980 0.65882353
v -0.14336489 0.10875406 -13.52510357 0.25098039 0.27450980 0.65882353
v -0.13803339 0.10888547 -13.52218342 0.25098039 0.27450980 0.65882353
v -0.14264116 0.10415771 -13.52715302 0.25098039 0.27450980 0.65882353
v -0.13714184 0.10444203 -13.52431297 0.25098039 0.27450980 0.65882353
v -0.13187502 0.10458740 -13.52685547 0.25098039 0.27450980 0.65882353
v -0.13055970 0.10634048 -13.52986336 0.25098039 0.27450980 0.65882353
v -0.13075718 0.10763437 -13.53276062 0.25098039 0.27450980 0.65882353
v -0.14460880 0.10542433 -13.53085518 0.25098039 0.27450980 0.65882353
v -0.14396161 0.10668379 -13.53357124 0.25098039 0.27450980 0.65882353
v -0.14160040 0.10866124 -13.53565979 0.25098039 0.27450980 0.65882353
v -0.14394543 0.10153431 -13.53316116 0.25098039 0.27450980 0.65882353
v -0.14137129 0.09861144 -13.53043365 0.25098039 0.27450980 0.65882353
v -0.13136014 0.09327580 -13.53806782 0.25098039 0.27450980 0.65882353
v -0.13119018 0.09661926 -13.53546333 0.25098039 0.27450980 0.65882353
v -0.13187712 0.09595536 -13.53462696 0.25098039 0.27450980 0.65882353
v -0.13139844 0.09255700 -13.53710556 0.25098039 0.27450980 0.65882353
v -0.13181898 0.09975840 -13.53091145 0.25098039 0.27450980 0.65882353
v -0.13279796 0.09836391 -13.53120518 0.25098039 0.27450980 0.65882353
v -0.13594756 0.09874725 -13.52957439 0.25098039 0.27450980 0.65882353
v -0.13545951 0.09444840 -13.53287315 0.25098039 0.27450980 0.65882353
v -0.14060897 0.09440094 -13.53451061 0.25098039 0.27450980 0.65882353
v -0.13961662 0.09099482 -13.53695011 0.25098039 0.27450980 0.65882353
v -0.13519961 0.09121564 -13.53505802 0.25098039 0.27450980 0.65882353
v -0.13979343 0.09721433 -13.53080654 0.25098039 0.27450980 0.65882353
v -0.13194939 0.08993562 -13.53804779 0.25098039 0.27450980 0.65882353
v -0.13140133 0.08932658 -13.53933525 0.25098039 0.27450980 0.65882353
v -0.13607249 0.09992564 -13.52792740 0.25098039 0.27450980 0.65882353
v -0.13017283 0.10288032 -13.53315067 0.25098039 0.27450980 0.65882353
v -0.13023852 0.09737070 -13.53768539 0.25098039 0.27450980 0.65882353
v -0.13069035 0.09294891 -13.54040813 0.25098039 0.27450980 0.65882353
v -0.13220888 0.08954300 -13.54162598 0.25098039 0.27450980 0.65882353
v -0.13086617 0.09949336 -13.53933239 0.25098039 0.27450980 0.65882353
v -0.13113669 0.09423596 -13.54253483 0.25098039 0.27450980 0.65882353
v -0.13291758 0.09115037 -13.54369164 0.25098039 0.27450980 0.65882353
v -0.13293132 0.10141093 -13.54137897 0.25098039 0.27450980 0.65882353
v -0.13311578 0.09598868 -13.54366493 0.25098039 0.27450980 0.65882353
v -0.13335937 0.10712955 -13.53736401 0.25098039 0.27450980 0.65882353
v -0.13108698 0.10516393 -13.53545856 0.25098039 0.27450980 0.65882353
v -0.13391685 0.09288059 -13.54399490 0.25098039 0.27450980 0.65882353
v -0.13481243 0.08759651 -13.53885651 0.25098039 0.27450980 0.65882353
v -0.13534150 0.08834906 -13.54186058 0.25098039 0.27450980 0.65882353
v -0.13505524 0.08829008 -13.53751469 0.25098039 0.27450980 0.65882353
v -0.14187551 0.09493221 -13.53514290 0.25098039 0.27450980 0.65882353
v -0.14079677 0.09086069 -13.53826809 0.25098039 0.27450980 0.65882353
v -0.14309376 0.09635769 -13.53697395 0.25098039 0.27450980 0.65882353
v -0.14126435 0.09180979 -13.54028988 0.25098039 0.27450980 0.65882353
v -0.13855931 0.08819416 -13.53948689 0.25098039 0.27450980 0.65882353
v -0.13777453 0.08885729 -13.53769779 0.25098039 0.27450980 0.65882353
v -0.13318472 0.10874539 -13.53582954 0.25098039 0.27450980 0.65882353
v -0.13736109 0.10946739 -13.53624821 0.25098039 0.27450980 0.65882353
v -0.13756996 0.10759865 -13.53788471 0.25098039 0.27450980 0.65882353
v -0.13673656 0.10203992 -13.54210377 0.25098039 0.27450980 0.65882353
v -0.14164421 0.10649268 -13.53716660 0.25098039 0.27450980 0.65882353
v -0.14366116 0.10398769 -13.53516102 0.25098039 0.27450980 0.65882353
v -0.14262995 0.09829861 -13.53907776 0.25098039 0.27450980 0.65882353
v -0.14077547 0.10031276 -13.54121685 0.25098039 0.27450980 0.65882353
v -0.14071026 0.09303820 -13.54221439 0.25098039 0.27450980 0.65882353
v -0.13915193 0.09526253 -13.54380989 0.25098039 0.27450980 0.65882353
v -0.13621153 0.09659632 -13.54452896 0.25098039 0.27450980 0.65882353
v -0.13799635 0.09040913 -13.54313850 0.25098039 0.27450980 0.65882353
v -0.13847694 0.08893426 -13.54184151 0.25098039 0.27450980 0.65882353
v -0.13567173 0.09012714 -13.54342461 0.25098039 0.27450980 0.65882353
v -0.13744922 0.09218962 -13.54413128 0.25098039 0.27450980 0.65882353
v -0.13582139 0.09257397 -13.54427719 0.25098039 0.27450980 0.65882353
v -0.14797045 0.14625375 -13.52921009 0.25098039 0.27450980 0.65882353
v -0.08668801 0.17472586 -13.61461258 0.25098039 0.27450980 0.65882353
v -0.08820511 0.17135689 -13.61001205 0.25098039 0.27450980 0.65882353
v -0.10171585 0.16373831 -13.61562443 0.25098039 0.27450980 0.65882353
v -0.09713604 0.16370788 -13.61036396 0.25098039 0.27450980 0.65882353
v -0.10293132 0.16581762 -13.62165260 0.25098039 0.27450980 0.65882353
v -0.09788007 0.17405301 -13.62612915 0.25098039 0.27450980 0.65882353
v -0.10190767 0.17053150 -13.62474442 0.25098039 0.27450980 0.65882353
v -0.09222052 0.16658440 -13.60844231 0.25098039 0.27450980 0.65882353
v -0.08756869 0.17737453 -13.61967278 0.25098039 0.27450980 0.65882353
v -0.09235336 0.17756280 -13.62462521 0.25098039 0.27450980 0.65882353
v -0.08322711 0.17184354 -13.62229824 0.25098039 0.27450980 0.65882353
v -0.08811852 0.17153466 -13.62779331 0.25098039 0.27450980 0.65882353
v -0.09353036 0.16768900 -13.62985611 0.25098039 0.27450980 0.65882353
v -0.09832434 0.16420221 -13.62790680 0.25098039 0.27450980 0.65882353
v -0.10014902 0.16111882 -13.62477589 0.25098039 0.27450980 0.65882353
v -0.08377428 0.16915792 -13.61604786 0.25098039 0.27450980 0.65882353
v -0.08585937 0.16572714 -13.61166763 0.25098039 0.27450980 0.65882353
v -0.09108658 0.16197522 -13.61028099 0.25098039 0.27450980 0.65882353
v -0.08060779 0.16176887 -13.61684227 0.25098039 0.27450980 0.65882353
v -0.07731320 0.15539744 -13.62429142 0.25098039 0.27450980 0.65882353
v -0.08190019 0.14236350 -13.63638401 0.25098039 0.27450980 0.65882353
v -0.08606832 0.14744122 -13.63474464 0.25098039 0.27450980 0.65882353
v -0.08318955 0.14830306 -13.63479424 0.25098039 0.27450980 0.65882353
v -0.07963800 0.14398092 -13.63693714 0.25098039 0.27450980 0.65882353
v -0.08664633 0.15265246 -13.63351440 0.25098039 0.27450980 0.65882353
v -0.08429630 0.15180601 -13.63307667 0.25098039 0.27450980 0.65882353
v -0.08081299 0.15412110 -13.63003159 0.25098039 0.27450980 0.65882353
v -0.07752849 0.15054289 -13.63244820 0.25098039 0.27450980 0.65882353
v -0.07747479 0.15352213 -13.62640381 0.25098039 0.27450980 0.65882353
v -0.07516925 0.15046728 -13.62654781 0.25098039 0.27450980 0.65882353
v -0.07450332 0.14652096 -13.63410759 0.25098039 0.27450980 0.65882353
v -0.07590377 0.14224339 -13.63771629 0.25098039 0.27450980 0.65882353
v -0.07207379 0.14263193 -13.63530350 0.25098039 0.27450980 0.65882353
v -0.07731459 0.13953465 -13.63657856 0.25098039 0.27450980 0.65882353
v -0.08044571 0.15597512 -13.63084602 0.25098039 0.27450980 0.65882353
v -0.09337375 0.15545234 -13.63144302 0.25098039 0.27450980 0.65882353
v -0.08967407 0.14726099 -13.63261509 0.25098039 0.27450980 0.65882353
v -0.08455363 0.14108613 -13.63370323 0.25098039 0.27450980 0.65882353
v -0.07885502 0.13800113 -13.63402176 0.25098039 0.27450980 0.65882353
v -0.09192580 0.14632601 -13.62853050 0.25098039 0.27450980 0.65882353
v -0.08637755 0.14093901 -13.62928295 0.25098039 0.27450980 0.65882353
v -0.08093356 0.13837184 -13.62901306 0.25098039 0.27450980 0.65882353
v -0.09173223 0.14583750 -13.62371540 0.25098039 0.27450980 0.65882353
v -0.08611149 0.14131349 -13.62525558 0.25098039 0.27450980 0.65882353
v -0.09812438 0.15695512 -13.62024498 0.25098039 0.27450980 0.65882353
v -0.09778255 0.15638398 -13.62666130 0.25098039 0.27450980 0.65882353
v -0.08204442 0.13945027 -13.62638378 0.25098039 0.27450980 0.65882353
v -0.07136545 0.14008795 -13.63467789 0.25098039 0.27450980 0.65882353
v -0.07327509 0.13826005 -13.63144493 0.25098039 0.27450980 0.65882353
v -0.07476234 0.15087943 -13.62288475 0.25098039 0.27450980 0.65882353
v -0.07159270 0.14709641 -13.62841129 0.25098039 0.27450980 0.65882353
v -0.07183905 0.14614362 -13.62510967 0.25098039 0.27450980 0.65882353
v -0.07618093 0.15132262 -13.61885738 0.25098039 0.27450980 0.65882353
v -0.07268327 0.14514039 -13.62217808 0.25098039 0.27450980 0.65882353
v -0.06995246 0.14250058 -13.62917233 0.25098039 0.27450980 0.65882353
v -0.07053953 0.14444898 -13.63139629 0.25098039 0.27450980 0.65882353
v -0.09993377 0.16025525 -13.61876297 0.25098039 0.27450980 0.65882353
v -0.09656437 0.16084066 -13.61308193 0.25098039 0.27450980 0.65882353
v -0.09442125 0.15787572 -13.61450958 0.25098039 0.27450980 0.65882353
v -0.08882843 0.14738187 -13.61820412 0.25098039 0.27450980 0.65882353
v -0.08896986 0.15833801 -13.61160374 0.25098039 0.27450980 0.65882353
v -0.08341381 0.16018544 -13.61326027 0.25098039 0.27450980 0.65882353
v -0.07890184 0.15020713 -13.61606216 0.25098039 0.27450980 0.65882353
v -0.08363979 0.14878067 -13.61532021 0.25098039 0.27450980 0.65882353
v -0.07580669 0.14382082 -13.62019157 0.25098039 0.27450980 0.65882353
v -0.07893881 0.14303687 -13.61984921 0.25098039 0.27450980 0.65882353
v -0.08334461 0.14152536 -13.62182236 0.25098039 0.27450980 0.65882353
v -0.07467183 0.14046392 -13.62412262 0.25098039 0.27450980 0.65882353
v -0.07143924 0.14114600 -13.62618065 0.25098039 0.27450980 0.65882353
v -0.07646884 0.13835321 -13.62743759 0.25098039 0.27450980 0.65882353
v -0.07750577 0.14092894 -13.62286186 0.25098039 0.27450980 0.65882353
v -0.07936366 0.13966632 -13.62486649 0.25098039 0.27450980 0.65882353
v -0.14601347 0.15108122 -13.54015064 0.25098039 0.27450980 0.65882353
v -0.13997948 0.15047938 -13.54295444 0.25098039 0.27450980 0.65882353
v -0.14494367 0.15443256 -13.54498482 0.25098039 0.27450980 0.65882353
v -0.15026268 0.16152534 -13.54853630 0.25098039 0.27450980 0.65882353
v -0.15904322 0.16842313 -13.54863548 0.25098039 0.27450980 0.65882353
v -0.14431855 0.16287385 -13.55143738 0.25098039 0.27450980 0.65882353
v -0.13906720 0.15575057 -13.54710007 0.25098039 0.27450980 0.65882353
v -0.13222969 0.14961949 -13.54289055 0.25098039 0.27450980 0.65882353
v -0.14218107 0.17099255 -13.55728626 0.25098039 0.27450980 0.65882353
f 2 3 1
f 1 3 4
f 5 6 8
f 8 6 7
f 9 4 10
f 10 4 3
f 12 13 11
f 11 13 9
f 14 12 16
f 16 12 15
f 18 19 17
f 17 19 20
f 22 23 21
f 21 23 24
f 26 27 25
f 25 27 28
f 30 31 29
f 29 31 32
f 33 34 36
f 36 34 35
f 37 38 40
f 40 38 39
f 41 42 6
f 6 42 43
f 6 43 7
f 7 43 44
f 45 34 46
f 46 34 33
f 48 49 47
f 47 49 50
f 52 53 51
f 51 53 54
f 56 52 55
f 55 52 51
f 58 59 57
f 57 59 60
f 61 62 4
f 4 62 1
f 64 65 63
f 63 65 66
f 68 69 67
f 67 69 70
f 72 73 71
f 71 73 74
f 76 77 75
f 75 77 78
f 53 79 54
f 54 79 80
f 82 83 81
f 81 83 84
f 85 86 52
f 52 86 53
f 57 60 87
f 87 60 88
f 89 90 43
f 43 90 44
f 43 42 89
f 89 42 91
f 40 39 92
f 92 39 93
f 94 70 64
f 64 70 69
f 13 61 9
f 9 61 4
f 25 28 69
f 69 28 95
f 96 25 68
f 68 25 69
f 98 99 97
f 97 99 100
f 101 102 104
f 104 102 103
f 106 30 105
f 105 30 29
f 51 54 107
f 107 54 108
f 54 80 108
f 108 80 109
f 111 112 110
f 110 112 113
f 115 5 114
f 114 5 116
f 115 41 5
f 5 41 6
f 36 35 111
f 111 35 117
f 35 118 117
f 117 118 119
f 34 120 35
f 35 120 118
f 34 45 120
f 120 45 121
f 125 126 124
f 124 126 127
f 128 129 14
f 14 129 130
f 33 131 46
f 46 131 132
f 133 94 63
f 63 94 64
f 134 135 137
f 137 135 136
f 139 140 138
f 138 140 141
f 77 142 78
f 78 142 143
f 144 145 20
f 20 145 146
f 148 149 147
f 147 149 72
f 151 152 150
f 150 152 153
f 82 101 83
f 83 101 104
f 101 82 155
f 155 82 154
f 156 157 58
f 58 157 59
f 158 68 147
f 147 68 67
f 159 146 15
f 15 146 16
f 68 158 96
f 96 158 160
f 129 66 130
f 130 66 65
f 162 163 161
f 161 163 164
f 166 167 165
f 165 167 168
f 170 171 169
f 169 171 172
f 174 171 173
f 173 171 170
f 176 177 175
f 175 177 178
f 180 181 179
f 179 181 24
f 182 183 21
f 21 183 184
f 81 185 82
f 82 185 154
f 186 187 188
f 188 187 144
f 158 71 160
f 160 71 189
f 190 135 157
f 157 135 59
f 169 172 139
f 139 172 140
f 147 72 158
f 158 72 71
f 192 193 191
f 191 193 194
f 167 166 49
f 49 166 195
f 196 190 50
f 50 190 157
f 197 198 200
f 200 198 199
f 21 24 182
f 182 24 181
f 146 159 20
f 20 159 17
f 182 181 81
f 81 181 185
f 201 185 180
f 180 185 181
f 202 203 83
f 83 203 84
f 205 206 204
f 204 206 85
f 207 22 184
f 184 22 21
f 179 24 208
f 208 24 23
f 208 209 179
f 179 209 205
f 209 210 205
f 205 210 206
f 212 206 211
f 211 206 210
f 179 205 180
f 180 205 204
f 213 176 88
f 88 176 214
f 86 85 212
f 212 85 206
f 193 217 218
f 217 219 218
f 218 219 220
f 219 18 220
f 220 18 17
f 19 221 20
f 20 221 144
f 222 223 225
f 225 223 224
f 175 226 176
f 176 226 214
f 227 87 214
f 214 87 88
f 220 17 228
f 228 17 159
f 134 213 60
f 60 213 88
f 138 229 151
f 151 229 152
f 193 192 210
f 210 192 211
f 230 194 218
f 218 194 193
f 231 232 228
f 228 232 230
f 233 234 91
f 91 234 89
f 235 236 93
f 93 236 92
f 230 232 234
f 234 232 237
f 47 238 48
f 48 238 239
f 240 191 235
f 235 191 236
f 5 8 116
f 116 8 241
f 242 243 189
f 189 243 160
f 244 245 98
f 98 245 99
f 156 246 47
f 47 246 238
f 76 247 77
f 77 247 248
f 250 125 249
f 249 125 124
f 252 253 251
f 251 253 254
f 111 110 36
f 36 110 255
f 256 33 255
f 255 33 36
f 257 258 154
f 154 258 155
f 63 169 133
f 133 169 139
f 66 170 63
f 63 170 169
f 173 170 129
f 129 170 66
f 129 128 173
f 173 128 259
f 128 260 259
f 259 260 261
f 213 134 262
f 262 134 137
f 263 264 186
f 186 264 187
f 112 265 113
f 113 265 266
f 11 267 268
f 234 233 230
f 230 233 194
f 153 269 70
f 70 269 67
f 175 178 165
f 165 178 141
f 150 153 94
f 94 153 70
f 271 221 270
f 270 221 207
f 269 153 272
f 272 153 152
f 121 45 109
f 109 45 108
f 47 50 156
f 156 50 157
f 57 273 58
f 58 273 274
f 145 275 260
f 260 275 261
f 276 149 143
f 143 149 78
f 148 269 75
f 75 269 272
f 207 277 270
f 270 277 278
f 195 196 49
f 49 196 50
f 59 135 60
f 60 135 134
f 83 104 202
f 202 104 279
f 149 148 78
f 78 148 75
f 247 278 248
f 248 278 277
f 183 182 84
f 84 182 81
f 48 239 281
f 281 239 282
f 227 223 283
f 283 223 222
f 223 226 224
f 224 226 168
f 281 282 224
f 224 282 225
f 165 168 175
f 175 168 226
f 264 263 138
f 138 263 229
f 14 16 128
f 128 16 260
f 220 228 218
f 218 228 230
f 87 227 284
f 284 227 283
f 260 16 145
f 145 16 146
f 244 98 258
f 258 98 155
f 58 274 156
f 156 274 246
f 107 285 51
f 51 285 55
f 243 286 160
f 160 286 96
f 234 237 89
f 89 237 90
f 46 132 107
f 107 132 285
f 253 252 249
f 249 252 250
f 286 26 96
f 96 26 25
f 106 105 287
f 287 105 288
f 272 152 289
f 289 152 229
f 138 151 139
f 139 151 133
f 183 290 161
f 161 290 162
f 291 292 277
f 277 292 293
f 151 150 133
f 133 150 94
f 262 275 177
f 177 275 187
f 144 187 145
f 145 187 275
f 273 57 284
f 284 57 87
f 174 136 190
f 190 136 135
f 111 117 112
f 112 117 38
f 117 119 38
f 38 119 123
f 112 38 265
f 265 38 37
f 287 288 254
f 254 288 251
f 228 159 231
f 231 159 15
f 223 227 226
f 226 227 214
f 147 67 148
f 148 67 269
f 224 168 281
f 281 168 167
f 199 163 200
f 200 163 162
f 45 46 108
f 108 46 107
f 281 167 48
f 48 167 49
f 161 164 291
f 291 164 292
f 38 123 39
f 293 294 277
f 277 294 248
f 284 283 296
f 296 283 295
f 284 296 273
f 273 296 297
f 274 273 298
f 298 273 297
f 246 274 299
f 299 274 298
f 283 222 295
f 295 222 300
f 222 225 300
f 300 225 301
f 301 225 302
f 302 225 282
f 303 304 300
f 300 304 295
f 306 307 305
f 305 307 308
f 309 310 308
f 308 310 305
f 308 307 312
f 312 307 311
f 313 314 312
f 312 314 315
f 311 316 312
f 312 316 313
f 317 304 311
f 311 304 316
f 315 309 312
f 312 309 308
f 318 319 321
f 321 319 320
f 319 318 309
f 309 318 310
f 311 307 317
f 317 307 306
f 306 297 317
f 317 297 296
f 306 322 297
f 297 322 298
f 305 323 306
f 306 323 322
f 323 305 324
f 324 305 310
f 304 317 295
f 295 317 296
f 318 325 310
f 310 325 324
f 323 324 326
f 326 324 327
f 324 325 327
f 327 325 328
f 326 327 329
f 329 327 330
f 329 331 326
f 326 331 332
f 333 330 328
f 328 330 327
f 323 326 322
f 322 326 332
f 322 332 298
f 298 332 299
f 325 318 334
f 334 318 321
f 313 316 335
f 335 316 304
f 335 336 313
f 313 336 314
f 304 303 335
f 335 303 337
f 336 335 338
f 338 335 337
f 336 339 314
f 314 339 340
f 246 299 238
f 238 299 341
f 239 342 282
f 282 342 302
f 342 239 341
f 341 239 238
f 341 331 342
f 342 331 343
f 331 329 343
f 343 329 344
f 342 343 302
f 302 343 345
f 341 299 331
f 331 299 332
f 346 301 345
f 345 301 302
f 346 303 301
f 301 303 300
f 347 337 346
f 346 337 303
f 347 346 348
f 348 346 345
f 349 347 350
f 350 347 348
f 343 344 345
f 345 344 348
f 344 351 348
f 348 351 350
f 337 347 338
f 338 347 349
f 353 338 352
f 352 338 349
f 352 355 354
f 354 355 356
f 352 349 355
f 355 349 350
f 352 354 353
f 353 354 334
f 353 334 339
f 339 334 321
f 339 336 353
f 353 336 338
f 329 330 344
f 344 330 351
f 356 351 333
f 333 351 330
f 356 355 351
f 351 355 350
f 354 356 328
f 328 356 333
f 328 325 354
f 354 325 334
f 309 315 319
f 319 315 320
f 320 340 321
f 321 340 339
f 320 315 340
f 340 315 314
f 137 136 261
f 261 136 259
f 140 166 141
f 141 166 165
f 172 171 195
f 195 171 196
f 171 174 196
f 196 174 190
f 178 177 264
f 264 177 187
f 172 195 140
f 140 195 166
f 137 261 262
f 262 261 275
f 178 264 141
f 141 264 138
f 262 177 213
f 213 177 176
f 136 174 259
f 259 174 173
f 358 359 357
f 357 359 360
f 362 363 361
f 361 363 364
f 361 364 365
f 365 364 366
f 367 368 370
f 370 368 369
f 76 371 247
f 247 371 372
f 373 374 362
f 362 374 363
f 376 377 375
f 375 377 378
f 289 229 380
f 380 229 379
f 381 379 263
f 263 379 229
f 383 384 382
f 382 384 385
f 386 368 374
f 374 368 363
f 76 289 371
f 371 289 380
f 377 376 359
f 359 376 387
f 388 386 360
f 360 386 374
f 389 383 366
f 366 383 390
f 392 393 391
f 391 393 394
f 383 382 390
f 390 382 395
f 396 365 390
f 390 365 366
f 389 366 367
f 367 366 364
f 357 397 358
f 358 397 398
f 373 399 357
f 357 399 397
f 389 367 400
f 400 367 370
f 382 385 375
f 375 385 372
f 357 360 373
f 373 360 374
f 361 401 362
f 362 401 402
f 387 388 359
f 359 388 360
f 363 368 364
f 364 368 367
f 358 398 403
f 403 398 404
f 396 392 405
f 405 392 391
f 392 395 393
f 393 395 378
f 393 403 394
f 394 403 404
f 375 378 382
f 382 378 395
f 365 396 406
f 406 396 405
f 362 402 373
f 373 402 399
f 271 270 400
f 400 270 384
f 401 361 406
f 406 361 365
f 381 369 386
f 386 369 368
f 392 396 395
f 395 396 390
f 393 378 403
f 403 378 377
f 403 377 358
f 358 377 359
f 406 405 408
f 408 405 407
f 406 408 401
f 401 408 409
f 401 409 402
f 402 409 410
f 402 410 399
f 399 410 411
f 405 391 407
f 407 391 412
f 391 394 412
f 412 394 413
f 394 404 413
f 413 404 414
f 415 416 412
f 412 416 407
f 418 419 417
f 417 419 420
f 421 422 418
f 418 422 419
f 419 422 424
f 424 422 423
f 425 426 424
f 424 426 427
f 423 428 424
f 424 428 425
f 427 420 424
f 424 420 419
f 420 429 417
f 417 429 430
f 423 422 431
f 431 422 421
f 421 409 431
f 431 409 408
f 421 432 409
f 409 432 410
f 418 433 421
f 421 433 432
f 434 433 417
f 417 433 418
f 431 416 423
f 423 416 428
f 416 431 407
f 407 431 408
f 435 434 430
f 430 434 417
f 433 434 436
f 436 434 437
f 434 435 437
f 437 435 438
f 436 437 439
f 439 437 440
f 439 441 436
f 436 441 442
f 438 443 437
f 437 443 440
f 436 442 433
f 433 442 432
f 432 442 410
f 410 442 411
f 435 430 445
f 445 430 444
f 430 429 444
f 444 429 446
f 425 428 447
f 447 428 416
f 426 425 448
f 448 425 447
f 416 415 447
f 447 415 449
f 447 449 448
f 448 449 450
f 451 452 448
f 448 452 426
f 446 452 444
f 444 452 451
f 399 411 397
f 397 411 453
f 398 454 404
f 404 454 414
f 454 398 453
f 453 398 397
f 453 441 454
f 454 441 455
f 441 439 455
f 455 439 456
f 454 455 414
f 414 455 457
f 441 453 442
f 442 453 411
f 458 413 457
f 457 413 414
f 458 415 413
f 413 415 412
f 458 459 415
f 415 459 449
f 459 458 460
f 460 458 457
f 461 459 462
f 462 459 460
f 455 456 457
f 457 456 460
f 456 463 460
f 460 463 462
f 459 461 449
f 449 461 450
f 465 450 464
f 464 450 461
f 464 467 466
f 466 467 468
f 464 461 467
f 467 461 462
f 464 466 465
f 465 466 445
f 465 445 451
f 451 445 444
f 451 448 465
f 465 448 450
f 439 440 456
f 456 440 463
f 468 463 443
f 443 463 440
f 468 467 463
f 463 467 462
f 466 468 438
f 438 468 443
f 438 435 466
f 466 435 445
f 420 427 429
f 429 427 446
f 446 427 452
f 452 427 426
f 370 369 188
f 188 369 186
f 371 376 372
f 372 376 375
f 380 379 387
f 387 379 388
f 379 381 388
f 388 381 386
f 385 384 278
f 278 384 270
f 380 387 371
f 371 387 376
f 400 370 271
f 271 370 188
f 385 278 372
f 372 278 247
f 400 384 389
f 389 384 383
f 369 381 186
f 186 381 263
f 221 271 144
f 144 271 188
f 221 19 207
f 207 19 22
f 19 18 22
f 22 18 23
f 18 219 23
f 23 219 208
f 469 470 472
f 472 470 471
f 474 475 473
f 473 475 476
f 473 476 477
f 477 476 478
f 480 481 479
f 479 481 482
f 483 484 474
f 474 484 475
f 486 487 485
f 485 487 488
f 489 490 77
f 77 490 142
f 491 489 248
f 248 489 77
f 493 494 492
f 492 494 495
f 496 480 484
f 484 480 475
f 486 497 487
f 487 497 471
f 498 496 472
f 472 496 484
f 499 493 478
f 478 493 500
f 501 502 504
f 504 502 503
f 493 492 500
f 500 492 505
f 506 477 500
f 500 477 478
f 499 478 479
f 479 478 476
f 469 507 470
f 470 507 508
f 483 509 469
f 469 509 507
f 479 482 499
f 499 482 510
f 492 495 485
f 485 495 511
f 483 469 484
f 484 469 472
f 473 512 474
f 474 512 513
f 497 498 471
f 471 498 472
f 475 480 476
f 476 480 479
f 470 508 514
f 514 508 515
f 506 502 516
f 516 502 501
f 503 502 488
f 488 502 505
f 514 515 503
f 503 515 504
f 485 488 492
f 492 488 505
f 477 506 517
f 517 506 516
f 474 513 483
f 483 513 509
f 510 292 494
f 494 292 164
f 512 473 517
f 517 473 477
f 491 481 496
f 496 481 480
f 502 506 505
f 505 506 500
f 503 488 514
f 514 488 487
f 514 487 470
f 470 487 471
f 517 516 519
f 519 516 518
f 517 519 512
f 512 519 520
f 512 520 513
f 513 520 521
f 513 521 509
f 509 521 522
f 516 501 518
f 518 501 523
f 501 504 523
f 523 504 524
f 524 504 525
f 525 504 515
f 526 527 523
f 523 527 518
f 529 530 528
f 528 530 531
f 532 533 529
f 529 533 530
f 530 533 535
f 535 533 534
f 536 537 535
f 535 537 538
f 534 539 535
f 535 539 536
f 538 531 535
f 535 531 530
f 540 541 531
f 531 541 528
f 533 532 534
f 534 532 542
f 532 520 542
f 542 520 519
f 532 543 520
f 520 543 521
f 529 544 532
f 532 544 543
f 544 529 545
f 545 529 528
f 534 542 539
f 539 542 527
f 527 542 518
f 518 542 519
f 541 546 528
f 528 546 545
f 547 544 548
f 548 544 545
f 546 549 545
f 545 549 548
f 550 547 551
f 551 547 548
f 547 550 553
f 553 550 552
f 549 554 548
f 548 554 551
f 544 547 543
f 543 547 553
f 543 553 521
f 521 553 522
f 546 541 556
f 556 541 555
f 541 540 555
f 555 540 557
f 536 539 558
f 558 539 527
f 537 536 559
f 559 536 558
f 527 526 558
f 558 526 560
f 559 558 561
f 561 558 560
f 559 562 537
f 537 562 563
f 557 563 555
f 555 563 562
f 509 522 507
f 507 522 564
f 508 565 515
f 515 565 525
f 565 508 564
f 564 508 507
f 564 552 565
f 565 552 566
f 552 550 566
f 566 550 567
f 565 566 525
f 525 566 568
f 564 522 552
f 552 522 553
f 569 524 568
f 568 524 525
f 569 526 524
f 524 526 523
f 570 560 569
f 569 560 526
f 570 569 571
f 571 569 568
f 572 570 573
f 573 570 571
f 566 567 568
f 568 567 571
f 567 574 571
f 571 574 573
f 570 572 560
f 560 572 561
f 576 561 575
f 575 561 572
f 575 578 577
f 577 578 579
f 575 572 578
f 578 572 573
f 575 577 576
f 576 577 556
f 576 556 562
f 562 556 555
f 562 559 576
f 576 559 561
f 550 551 567
f 567 551 574
f 579 574 554
f 554 574 551
f 579 578 574
f 574 578 573
f 579 554 577
f 577 554 549
f 549 546 577
f 577 546 556
f 531 538 540
f 540 538 557
f 557 538 563
f 563 538 537
f 481 294 482
f 482 294 293
f 580 486 511
f 511 486 485
f 490 489 497
f 497 489 498
f 489 491 498
f 498 491 496
f 163 495 164
f 164 495 494
f 580 490 486
f 486 490 497
f 482 293 510
f 510 293 292
f 495 163 511
f 511 163 199
f 494 493 510
f 510 493 499
f 481 491 294
f 294 491 248
f 582 583 581
f 581 583 584
f 586 587 585
f 585 587 588
f 585 588 589
f 589 588 590
f 592 593 591
f 591 593 594
f 595 596 598
f 598 596 597
f 599 600 586
f 586 600 587
f 601 602 604
f 604 602 603
f 605 606 608
f 608 606 607
f 609 607 200
f 200 607 606
f 610 611 613
f 613 611 612
f 600 614 587
f 587 614 592
f 596 605 597
f 597 605 608
f 602 615 603
f 603 615 583
f 616 614 584
f 584 614 600
f 611 618 617
f 617 618 590
f 620 621 619
f 619 621 622
f 610 623 611
f 611 623 618
f 624 589 618
f 618 589 590
f 617 590 591
f 591 590 588
f 581 625 582
f 582 625 626
f 599 627 581
f 581 627 625
f 591 594 617
f 617 594 628
f 601 610 598
f 598 610 613
f 581 584 599
f 599 584 600
f 585 629 586
f 586 629 630
f 615 616 583
f 583 616 584
f 587 592 588
f 588 592 591
f 582 626 631
f 631 626 632
f 624 620 633
f 633 620 619
f 621 620 604
f 604 620 623
f 631 632 621
f 621 632 622
f 610 601 623
f 623 601 604
f 589 624 634
f 634 624 633
f 586 630 599
f 599 630 627
f 203 202 628
f 628 202 612
f 629 585 634
f 634 585 589
f 609 593 614
f 614 593 592
f 620 624 623
f 623 624 618
f 631 621 603
f 603 621 604
f 582 631 583
f 583 631 603
f 634 633 636
f 636 633 635
f 634 636 629
f 629 636 637
f 629 637 630
f 630 637 638
f 630 638 627
f 627 638 639
f 633 619 635
f 635 619 640
f 619 622 640
f 640 622 641
f 641 622 642
f 642 622 632
f 644 635 643
f 643 635 640
f 645 646 648
f 648 646 647
f 649 650 646
f 646 650 647
f 647 650 652
f 652 650 651
f 652 653 655
f 655 653 654
f 651 656 652
f 652 656 653
f 655 648 652
f 652 648 647
f 648 657 645
f 645 657 658
f 650 649 651
f 651 649 659
f 649 637 659
f 659 637 636
f 649 660 637
f 637 660 638
f 661 660 646
f 646 660 649
f 662 661 645
f 645 661 646
f 651 659 656
f 656 659 644
f 644 659 635
f 635 659 636
f 663 662 658
f 658 662 645
f 664 661 665
f 665 661 662
f 663 666 662
f 662 666 665
f 667 664 668
f 668 664 665
f 664 667 670
f 670 667 669
f 666 671 665
f 665 671 668
f 661 664 660
f 660 664 670
f 660 670 638
f 638 670 639
f 658 672 663
f 663 672 673
f 658 657 672
f 672 657 674
f 653 656 675
f 675 656 644
f 653 675 654
f 654 675 676
f 675 644 677
f 677 644 643
f 676 675 678
f 678 675 677
f 679 680 676
f 676 680 654
f 674 680 672
f 672 680 679
f 627 639 625
f 625 639 681
f 626 682 632
f 632 682 642
f 681 682 625
f 625 682 626
f 669 683 681
f 681 683 682
f 667 684 669
f 669 684 683
f 682 683 642
f 642 683 685
f 681 639 669
f 669 639 670
f 686 641 685
f 685 641 642
f 641 686 640
f 640 686 643
f 686 687 643
f 643 687 677
f 687 686 688
f 688 686 685
f 689 687 690
f 690 687 688
f 683 684 685
f 685 684 688
f 684 691 688
f 688 691 690
f 687 689 677
f 677 689 678
f 693 678 692
f 692 678 689
f 692 695 694
f 694 695 696
f 692 689 695
f 695 689 690
f 692 694 693
f 693 694 673
f 693 673 679
f 679 673 672
f 679 676 693
f 693 676 678
f 684 667 691
f 691 667 668
f 696 691 671
f 671 691 668
f 696 695 691
f 691 695 690
f 694 696 666
f 666 696 671
f 666 663 694
f 694 663 673
f 648 655 657
f 657 655 674
f 674 655 680
f 680 655 654
f 593 162 594
f 594 162 290
f 598 597 601
f 601 597 602
f 615 608 616
f 616 608 607
f 607 609 616
f 616 609 614
f 697 595 613
f 613 595 598
f 597 608 602
f 602 608 615
f 594 290 628
f 628 290 203
f 628 612 617
f 617 612 611
f 593 609 162
f 162 609 200
f 105 29 698
f 698 29 699
f 268 126 701
f 701 126 700
f 126 125 700
f 700 125 702
f 252 703 250
f 250 703 704
f 32 268 705
f 705 268 701
f 288 105 706
f 706 105 698
f 29 32 699
f 699 32 705
f 707 251 706
f 706 251 288
f 250 704 125
f 125 704 702
f 703 252 707
f 707 252 251
f 706 708 707
f 707 708 709
f 707 709 703
f 703 709 710
f 703 710 704
f 704 710 711
f 704 711 702
f 702 711 712
f 706 698 708
f 708 698 713
f 698 699 713
f 713 699 714
f 699 705 714
f 714 705 715
f 717 708 716
f 716 708 713
f 719 720 718
f 718 720 721
f 722 723 719
f 719 723 720
f 724 725 723
f 723 725 720
f 724 726 725
f 725 726 727
f 728 721 725
f 725 721 720
f 721 728 729
f 729 728 730
f 729 731 721
f 721 731 718
f 724 723 732
f 732 723 722
f 722 710 732
f 732 710 709
f 722 733 710
f 710 733 711
f 719 734 722
f 722 734 733
f 734 719 735
f 735 719 718
f 724 732 726
f 726 732 717
f 717 732 708
f 708 732 709
f 731 736 718
f 718 736 735
f 737 734 738
f 738 734 735
f 736 739 735
f 735 739 738
f 740 737 741
f 741 737 738
f 737 740 743
f 743 740 742
f 739 744 738
f 738 744 741
f 734 737 733
f 733 737 743
f 733 743 711
f 711 743 712
f 736 731 746
f 746 731 745
f 731 729 745
f 745 729 730
f 727 726 747
f 747 726 717
f 748 727 749
f 749 727 747
f 747 717 750
f 750 717 716
f 749 747 751
f 751 747 750
f 749 752 748
f 748 752 753
f 730 753 745
f 745 753 752
f 728 725 748
f 748 725 727
f 730 728 753
f 753 728 748
f 700 702 754
f 754 702 712
f 705 701 715
f 715 701 755
f 754 755 700
f 700 755 701
f 742 756 754
f 754 756 755
f 740 757 742
f 742 757 756
f 755 756 715
f 715 756 758
f 754 712 742
f 742 712 743
f 759 714 758
f 758 714 715
f 714 759 713
f 713 759 716
f 759 760 716
f 716 760 750
f 760 759 761
f 761 759 758
f 762 760 763
f 763 760 761
f 756 757 758
f 758 757 761
f 757 764 761
f 761 764 763
f 760 762 750
f 750 762 751
f 766 751 765
f 765 751 762
f 767 765 769
f 769 765 768
f 765 762 768
f 768 762 763
f 765 767 766
f 766 767 746
f 766 746 752
f 752 746 745
f 752 749 766
f 766 749 751
f 757 740 764
f 764 740 741
f 769 764 744
f 744 764 741
f 769 768 764
f 764 768 763
f 767 769 739
f 739 769 744
f 739 736 767
f 767 736 746
f 219 217 208
f 208 217 209
f 209 217 210
f 210 217 193
f 198 580 199
f 199 580 511
f 76 75 289
f 289 75 272
f 277 207 291
f 291 207 184
f 290 183 203
f 203 183 84
f 490 580 142
f 142 580 198
f 142 198 143
f 143 198 197
f 149 276 72
f 72 276 73
f 104 103 279
f 279 103 770
f 770 596 279
f 279 596 595
f 605 596 771
f 771 596 770
f 771 770 772
f 772 770 103
f 772 103 773
f 773 103 102
f 155 774 101
f 101 774 102
f 773 102 97
f 97 102 774
f 775 773 100
f 100 773 97
f 773 775 772
f 772 775 776
f 772 776 771
f 771 776 777
f 200 606 197
f 197 606 777
f 189 71 778
f 778 71 74
f 97 774 98
f 98 774 155
f 183 161 184
f 184 161 291
f 777 276 197
f 197 276 143
f 777 606 771
f 771 606 605
f 613 612 697
f 697 612 202
f 595 697 279
f 279 697 202
f 73 276 776
f 776 276 777
f 776 775 73
f 73 775 74
f 100 778 775
f 775 778 74
f 778 100 189
f 189 100 99
f 245 242 99
f 99 242 189
f 131 33 256
f 28 1 95
f 95 1 62
f 27 2 28
f 28 2 1
f 265 115 266
f 266 115 114
f 95 62 69
f 69 62 64
f 62 61 64
f 64 61 65
f 61 13 65
f 65 13 130
f 13 12 130
f 130 12 14
f 31 11 32
f 32 11 268
f 15 12 31
f 31 12 11
f 31 30 15
f 15 30 231
f 30 106 231
f 231 106 232
f 287 237 106
f 106 237 232
f 254 90 287
f 287 90 237
f 253 44 254
f 254 44 90
f 253 249 44
f 44 249 7
f 267 127 268
f 268 127 126
f 10 3 241
f 241 3 116
f 3 2 116
f 116 2 114
f 2 27 114
f 114 27 266
f 27 26 266
f 266 26 113
f 26 286 113
f 113 286 110
f 286 243 110
f 110 243 255
f 243 242 255
f 255 242 256
f 242 245 256
f 256 245 131
f 245 244 131
f 131 244 132
f 265 37 115
f 115 37 41
f 41 37 42
f 42 37 40
f 92 91 40
f 40 91 42
f 236 233 92
f 92 233 91
f 191 194 236
f 236 194 233
f 258 285 244
f 244 285 132
f 257 55 258
f 258 55 285
f 257 154 201
f 201 154 185
f 56 201 204
f 204 201 180
f 55 257 56
f 56 257 201
f 204 85 56
f 56 85 52
f 86 122 53
f 53 122 79
f 212 215 86
f 86 215 122
f 211 216 212
f 212 216 215
f 192 280 211
f 211 280 216
f 191 240 192
f 192 240 280
f 249 124 7
f 7 124 8
f 124 127 8
f 8 127 241
f 127 267 241
f 241 267 10
f 10 267 9
f 9 267 11
f 93 39 235
f 235 39 240
f 39 123 240
f 240 123 280
f 123 119 280
f 280 119 216
f 119 118 216
f 216 118 215
f 118 120 215
f 215 120 122
f 120 121 122
f 122 121 79
f 121 109 79
f 79 109 80

