# https://github.com/mikedh/trimesh
v -0.17859702 0.08967582 -14.95347977 0.25098039 0.27450980 0.65882353
v -0.18323553 0.09226301 -14.96288013 0.25098039 0.27450980 0.65882353
v -0.17255595 0.08838175 -14.96239853 0.25098039 0.27450980 0.65882353
v -0.16920829 0.08660029 -14.95274353 0.25098039 0.27450980 0.65882353
v -0.17601058 0.09473763 -14.98354149 0.25098039 0.27450980 0.65882353
v -0.17095354 0.10463531 -14.98975468 0.25098039 0.27450980 0.65882353
v -0.15847656 0.09616894 -14.98229599 0.25098039 0.27450980 0.65882353
v -0.16467988 0.08891296 -14.97873783 0.25098039 0.27450980 0.65882353
v -0.16163355 0.08620851 -14.95020390 0.25098039 0.27450980 0.65882353
v -0.16429037 0.08463433 -14.96083450 0.25098039 0.27450980 0.65882353
v -0.15777676 0.09109356 -14.94829369 0.25098039 0.27450980 0.65882353
v -0.15653360 0.09568252 -14.93588924 0.25098039 0.27450980 0.65882353
v -0.15930104 0.08985139 -14.93997288 0.25098039 0.27450980 0.65882353
v -0.15617749 0.09496339 -14.92767143 0.25098039 0.27450980 0.65882353
v -0.16001225 0.10566721 -14.93473244 0.25098039 0.27450980 0.65882353
v -0.16232684 0.09936873 -14.92185974 0.25098039 0.27450980 0.65882353
v -0.18864557 0.10809365 -14.92609215 0.25098039 0.27450980 0.65882353
v -0.20107165 0.10450464 -14.92644405 0.25098039 0.27450980 0.65882353
v -0.19619220 0.09436916 -14.91582966 0.25098039 0.27450980 0.65882353
v -0.18362142 0.09857507 -14.91698742 0.25098039 0.27450980 0.65882353
v -0.21391255 0.08896396 -14.92359352 0.25098039 0.27450980 0.65882353
v -0.20413129 0.09144866 -14.91840744 0.25098039 0.27450980 0.65882353
v -0.20926672 0.10246743 -14.92846680 0.25098039 0.27450980 0.65882353
v -0.21797854 0.09985568 -14.93261337 0.25098039 0.27450980 0.65882353
v -0.19418657 0.09098285 -14.95558834 0.25098039 0.27450980 0.65882353
v -0.19945844 0.09463127 -14.96426010 0.25098039 0.27450980 0.65882353
v -0.19459437 0.09497947 -14.96295834 0.25098039 0.27450980 0.65882353
v -0.18905045 0.09183706 -14.95495701 0.25098039 0.27450980 0.65882353
v -0.14872472 0.09661833 -14.95397091 0.25098039 0.27450980 0.65882353
v -0.15463014 0.10627940 -14.95196152 0.25098039 0.27450980 0.65882353
v -0.15539214 0.09969953 -14.94756222 0.25098039 0.27450980 0.65882353
v -0.15073079 0.09142508 -14.95408821 0.25098039 0.27450980 0.65882353
v -0.21551974 0.10177213 -14.98533249 0.25098039 0.27450980 0.65882353
v -0.21975553 0.11420758 -14.98983955 0.25098039 0.27450980 0.65882353
v -0.21452521 0.11671320 -14.98970509 0.25098039 0.27450980 0.65882353
v -0.21219233 0.10492850 -14.98553276 0.25098039 0.27450980 0.65882353
v -0.19104338 0.11608623 -14.99350643 0.25098039 0.27450980 0.65882353
v -0.19836539 0.12434387 -14.99234390 0.25098039 0.27450980 0.65882353
v -0.19336592 0.13744774 -14.98947048 0.25098039 0.27450980 0.65882353
v -0.18552750 0.13110453 -14.98787785 0.25098039 0.27450980 0.65882353
v -0.18067782 0.10922150 -14.99273014 0.25098039 0.27450980 0.65882353
v -0.17630048 0.12207796 -14.98988247 0.25098039 0.27450980 0.65882353
v -0.16617525 0.11498892 -14.98763752 0.25098039 0.27450980 0.65882353
v -0.15400232 0.10420593 -14.98121452 0.25098039 0.27450980 0.65882353
v -0.23163408 0.11064246 -14.98732567 0.25098039 0.27450980 0.65882353
v -0.23083107 0.10113029 -14.98411751 0.25098039 0.27450980 0.65882353
v -0.13393177 0.05954754 -14.90054131 0.25098039 0.27450980 0.65882353
v -0.13781279 0.05554774 -14.89949417 0.25098039 0.27450980 0.65882353
v -0.14074726 0.05891842 -14.90272331 0.25098039 0.27450980 0.65882353
v -0.13656904 0.06244352 -14.90292263 0.25098039 0.27450980 0.65882353
v -0.24279584 0.11092971 -14.97076511 0.25098039 0.27450980 0.65882353
v -0.24296783 0.11705765 -14.96259880 0.25098039 0.27450980 0.65882353
v -0.24564871 0.12026580 -14.96789837 0.25098039 0.27450980 0.65882353
v -0.24387455 0.11595374 -14.97574711 0.25098039 0.27450980 0.65882353
v -0.24114497 0.10433452 -14.96376228 0.25098039 0.27450980 0.65882353
v -0.23882006 0.11213559 -14.95554256 0.25098039 0.27450980 0.65882353
v -0.13340127 0.06634226 -14.89057446 0.25098039 0.27450980 0.65882353
v -0.13127042 0.06510571 -14.89486790 0.25098039 0.27450980 0.65882353
v -0.13431981 0.06872441 -14.89634895 0.25098039 0.27450980 0.65882353
v -0.13721870 0.06979812 -14.89226151 0.25098039 0.27450980 0.65882353
v -0.16513106 0.08672450 -14.94374943 0.25098039 0.27450980 0.65882353
v -0.17387135 0.08569036 -14.94616890 0.25098039 0.27450980 0.65882353
v -0.15932307 0.07683223 -14.92855263 0.25098039 0.27450980 0.65882353
v -0.16627930 0.08081248 -14.93509769 0.25098039 0.27450980 0.65882353
v -0.16070056 0.08514024 -14.93559551 0.25098039 0.27450980 0.65882353
v -0.15578383 0.08267729 -14.92921638 0.25098039 0.27450980 0.65882353
v -0.18904303 0.07664888 -14.93791389 0.25098039 0.27450980 0.65882353
v -0.19299072 0.08372448 -14.94658184 0.25098039 0.27450980 0.65882353
v -0.18688329 0.08540845 -14.94510937 0.25098039 0.27450980 0.65882353
v -0.18070701 0.07733023 -14.93640041 0.25098039 0.27450980 0.65882353
v -0.20518285 0.07769140 -14.94943333 0.25098039 0.27450980 0.65882353
v -0.20039847 0.07143886 -14.94069004 0.25098039 0.27450980 0.65882353
v -0.20801277 0.06876612 -14.94355679 0.25098039 0.27450980 0.65882353
v -0.20997474 0.07316335 -14.94991207 0.25098039 0.27450980 0.65882353
v -0.18975934 0.06221119 -14.92384911 0.25098039 0.27450980 0.65882353
v -0.18719900 0.05986869 -14.91551304 0.25098039 0.27450980 0.65882353
v -0.19013941 0.05882634 -14.91562462 0.25098039 0.27450980 0.65882353
v -0.19307283 0.06146602 -14.92435074 0.25098039 0.27450980 0.65882353
v -0.24828792 0.12455060 -14.97190380 0.25098039 0.27450980 0.65882353
v -0.24412614 0.12144059 -14.97957706 0.25098039 0.27450980 0.65882353
v -0.23010921 0.08140785 -14.93307590 0.25098039 0.27450980 0.65882353
v -0.23516206 0.07751989 -14.94203758 0.25098039 0.27450980 0.65882353
v -0.23330399 0.06751157 -14.93393803 0.25098039 0.27450980 0.65882353
v -0.22870944 0.07426707 -14.92730808 0.25098039 0.27450980 0.65882353
v -0.23772022 0.12281039 -14.95584583 0.25098039 0.27450980 0.65882353
v -0.24234217 0.12591180 -14.96028519 0.25098039 0.27450980 0.65882353
v -0.13749778 0.06475840 -14.88659859 0.25098039 0.27450980 0.65882353
v -0.14129618 0.06810601 -14.88852406 0.25098039 0.27450980 0.65882353
v -0.16721593 0.12476844 -14.97810078 0.25098039 0.27450980 0.65882353
v -0.15274414 0.11158682 -14.97468090 0.25098039 0.27450980 0.65882353
v -0.17902926 0.13367987 -14.97928047 0.25098039 0.27450980 0.65882353
v -0.18719149 0.13997844 -14.97854137 0.25098039 0.27450980 0.65882353
v -0.19261706 0.14569578 -14.98012161 0.25098039 0.27450980 0.65882353
v -0.16981176 0.07563828 -14.93188000 0.25098039 0.27450980 0.65882353
v -0.18266524 0.08775387 -14.94844723 0.25098039 0.27450980 0.65882353
v -0.19888759 0.08916525 -14.95610809 0.25098039 0.27450980 0.65882353
v -0.22456053 0.07336116 -14.96018791 0.25098039 0.27450980 0.65882353
v -0.22791651 0.08016093 -14.96809578 0.25098039 0.27450980 0.65882353
v -0.21721473 0.08086583 -14.96555042 0.25098039 0.27450980 0.65882353
v -0.21676707 0.07493114 -14.95872498 0.25098039 0.27450980 0.65882353
v -0.23423526 0.07092130 -14.94822025 0.25098039 0.27450980 0.65882353
v -0.22791010 0.06723635 -14.95076942 0.25098039 0.27450980 0.65882353
v -0.22524597 0.06083043 -14.94411373 0.25098039 0.27450980 0.65882353
v -0.23140305 0.06350154 -14.94094849 0.25098039 0.27450980 0.65882353
v -0.14438249 0.10065354 -14.95770168 0.25098039 0.27450980 0.65882353
v -0.15370876 0.11124159 -14.95622158 0.25098039 0.27450980 0.65882353
v -0.23902422 0.10579827 -14.97885704 0.25098039 0.27450980 0.65882353
v -0.23823661 0.11205037 -14.98317814 0.25098039 0.27450980 0.65882353
v -0.23973486 0.12027854 -14.98526764 0.25098039 0.27450980 0.65882353
v -0.20669782 0.09795395 -14.97577858 0.25098039 0.27450980 0.65882353
v -0.20990264 0.10697364 -14.98602104 0.25098039 0.27450980 0.65882353
v -0.20591728 0.10717085 -14.98718452 0.25098039 0.27450980 0.65882353
v -0.20433120 0.09843615 -14.97547531 0.25098039 0.27450980 0.65882353
v -0.18745261 0.09373936 -14.97460175 0.25098039 0.27450980 0.65882353
v -0.18932939 0.10037649 -14.98660660 0.25098039 0.27450980 0.65882353
v -0.17602839 0.08841461 -14.97290897 0.25098039 0.27450980 0.65882353
v -0.20811516 0.12104927 -14.99122143 0.25098039 0.27450980 0.65882353
v -0.21730343 0.12542340 -14.99434090 0.25098039 0.27450980 0.65882353
v -0.20977771 0.12976432 -14.99426651 0.25098039 0.27450980 0.65882353
v -0.22623116 0.12243509 -14.99283123 0.25098039 0.27450980 0.65882353
v -0.23391807 0.12034589 -14.98934460 0.25098039 0.27450980 0.65882353
v -0.24737030 0.13099566 -14.96209431 0.25098039 0.27450980 0.65882353
v -0.20268783 0.13392048 -14.99286938 0.25098039 0.27450980 0.65882353
v -0.15669823 0.08500933 -14.97433662 0.25098039 0.27450980 0.65882353
v -0.14979295 0.08168621 -14.97046471 0.25098039 0.27450980 0.65882353
v -0.15294969 0.08102544 -14.96352768 0.25098039 0.27450980 0.65882353
v -0.16015045 0.08323418 -14.96664238 0.25098039 0.27450980 0.65882353
v -0.15431172 0.09190056 -14.91937447 0.25098039 0.27450980 0.65882353
v -0.15331586 0.08690281 -14.92519093 0.25098039 0.27450980 0.65882353
v -0.15609600 0.09048239 -14.93366051 0.25098039 0.27450980 0.65882353
v -0.21686999 0.09331987 -14.97809696 0.25098039 0.27450980 0.65882353
v -0.23041488 0.09266169 -14.97773075 0.25098039 0.27450980 0.65882353
v -0.16245437 0.07224321 -14.92433262 0.25098039 0.27450980 0.65882353
v -0.14038910 0.07304321 -14.89409542 0.25098039 0.27450980 0.65882353
v -0.13730557 0.07222027 -14.89869022 0.25098039 0.27450980 0.65882353
v -0.14680268 0.08287372 -14.91025448 0.25098039 0.27450980 0.65882353
v -0.15014042 0.08377720 -14.90430164 0.25098039 0.27450980 0.65882353
v -0.16265349 0.06986363 -14.91236877 0.25098039 0.27450980 0.65882353
v -0.15996295 0.07007711 -14.91877937 0.25098039 0.27450980 0.65882353
v -0.15873185 0.06958725 -14.91526031 0.25098039 0.27450980 0.65882353
v -0.16086766 0.06693158 -14.90961838 0.25098039 0.27450980 0.65882353
v -0.19754151 0.05687765 -14.92064285 0.25098039 0.27450980 0.65882353
v -0.20038238 0.05954264 -14.92779160 0.25098039 0.27450980 0.65882353
v -0.17803301 0.08602984 -14.90871334 0.25098039 0.27450980 0.65882353
v -0.16848472 0.09503546 -14.91023350 0.25098039 0.27450980 0.65882353
v -0.17299941 0.10198991 -14.91811085 0.25098039 0.27450980 0.65882353
v -0.19583818 0.07445963 -14.93980694 0.25098039 0.27450980 0.65882353
v -0.19278753 0.06748858 -14.93202019 0.25098039 0.27450980 0.65882353
v -0.19651790 0.06601516 -14.93253803 0.25098039 0.27450980 0.65882353
v -0.17134562 0.07257400 -14.92814827 0.25098039 0.27450980 0.65882353
v -0.16656980 0.06956790 -14.92076874 0.25098039 0.27450980 0.65882353
v -0.17250009 0.06939137 -14.92304516 0.25098039 0.27450980 0.65882353
v -0.17696729 0.07256278 -14.92903709 0.25098039 0.27450980 0.65882353
v -0.23847228 0.08791833 -14.94936943 0.25098039 0.27450980 0.65882353
v -0.23783948 0.08026645 -14.95666695 0.25098039 0.27450980 0.65882353
v -0.13146660 0.06281188 -14.89867592 0.25098039 0.27450980 0.65882353
v -0.13435788 0.06620011 -14.90052700 0.25098039 0.27450980 0.65882353
v -0.19962513 0.08156519 -14.94787216 0.25098039 0.27450980 0.65882353
v -0.17735216 0.10954107 -14.92805386 0.25098039 0.27450980 0.65882353
v -0.20346354 0.08696334 -14.95715809 0.25098039 0.27450980 0.65882353
v -0.21505043 0.06862746 -14.91568947 0.25098039 0.27450980 0.65882353
v -0.21452016 0.06243195 -14.91937065 0.25098039 0.27450980 0.65882353
v -0.21091577 0.05880347 -14.91522312 0.25098039 0.27450980 0.65882353
v -0.21186453 0.06275835 -14.91047668 0.25098039 0.27450980 0.65882353
v -0.15226877 0.05868509 -14.89885044 0.25098039 0.27450980 0.65882353
v -0.14858545 0.05802420 -14.90320301 0.25098039 0.27450980 0.65882353
v -0.14550163 0.05594859 -14.89968014 0.25098039 0.27450980 0.65882353
v -0.14884734 0.05644366 -14.89516354 0.25098039 0.27450980 0.65882353
v -0.15632902 0.07333171 -14.92199802 0.25098039 0.27450980 0.65882353
v -0.15276371 0.07877144 -14.92320538 0.25098039 0.27450980 0.65882353
v -0.15008299 0.07472609 -14.91858387 0.25098039 0.27450980 0.65882353
v -0.15448470 0.07132420 -14.91707993 0.25098039 0.27450980 0.65882353
v -0.15024550 0.08330627 -14.91928577 0.25098039 0.27450980 0.65882353
v -0.14699523 0.07956007 -14.91584778 0.25098039 0.27450980 0.65882353
v -0.15296514 0.06271076 -14.89375210 0.25098039 0.27450980 0.65882353
v -0.14997245 0.06854258 -14.89011574 0.25098039 0.27450980 0.65882353
v -0.16014238 0.07674253 -14.89936161 0.25098039 0.27450980 0.65882353
v -0.16080566 0.06942773 -14.90266037 0.25098039 0.27450980 0.65882353
v -0.22165594 0.11124107 -14.94037342 0.25098039 0.27450980 0.65882353
v -0.23070264 0.10661963 -14.94410038 0.25098039 0.27450980 0.65882353
v -0.22681704 0.09515911 -14.93641090 0.25098039 0.27450980 0.65882353
v -0.22370449 0.08442753 -14.92845345 0.25098039 0.27450980 0.65882353
v -0.21978736 0.07377525 -14.92099476 0.25098039 0.27450980 0.65882353
v -0.21177639 0.07980351 -14.91523457 0.25098039 0.27450980 0.65882353
v -0.23285317 0.09247832 -14.94064522 0.25098039 0.27450980 0.65882353
v -0.17060198 0.07396913 -14.90811634 0.25098039 0.27450980 0.65882353
v -0.16809657 0.08260036 -14.90594292 0.25098039 0.27450980 0.65882353
v -0.17414221 0.07998882 -14.90662384 0.25098039 0.27450980 0.65882353
v -0.20926440 0.08299001 -14.95921898 0.25098039 0.27450980 0.65882353
v -0.13672619 0.06950066 -14.90332985 0.25098039 0.27450980 0.65882353
v -0.20120379 0.14319614 -14.95916653 0.25098039 0.27450980 0.65882353
v -0.21330822 0.14056030 -14.95398235 0.25098039 0.27450980 0.65882353
v -0.20892559 0.13470878 -14.95133781 0.25098039 0.27450980 0.65882353
v -0.19524366 0.13745438 -14.95738411 0.25098039 0.27450980 0.65882353
v -0.14347143 0.06060939 -14.90684509 0.25098039 0.27450980 0.65882353
v -0.13854229 0.06473524 -14.90701866 0.25098039 0.27450980 0.65882353
v -0.20584950 0.05628272 -14.92759800 0.25098039 0.27450980 0.65882353
v -0.20283628 0.05507696 -14.92120361 0.25098039 0.27450980 0.65882353
v -0.20597206 0.05475464 -14.91860962 0.25098039 0.27450980 0.65882353
v -0.20982814 0.05334159 -14.92541313 0.25098039 0.27450980 0.65882353
v -0.23522761 0.10508975 -14.94736671 0.25098039 0.27450980 0.65882353
v -0.23167942 0.06074847 -14.92972565 0.25098039 0.27450980 0.65882353
v -0.22836873 0.06717539 -14.92379570 0.25098039 0.27450980 0.65882353
v -0.23365472 0.11690448 -14.95064163 0.25098039 0.27450980 0.65882353
v -0.22596037 0.12105158 -14.94696903 0.25098039 0.27450980 0.65882353
v -0.22948232 0.12797844 -14.95132351 0.25098039 0.27450980 0.65882353
v -0.19753943 0.07946092 -14.90858459 0.25098039 0.27450980 0.65882353
v -0.21419697 0.11268862 -14.93754292 0.25098039 0.27450980 0.65882353
v -0.21897683 0.12237545 -14.94523048 0.25098039 0.27450980 0.65882353
v -0.22296125 0.13089290 -14.95022774 0.25098039 0.27450980 0.65882353
v -0.22618344 0.13722715 -14.95277309 0.25098039 0.27450980 0.65882353
v -0.23284903 0.13284390 -14.95431232 0.25098039 0.27450980 0.65882353
v -0.14506958 0.07105268 -14.89068508 0.25098039 0.27450980 0.65882353
v -0.14639029 0.06463102 -14.88696480 0.25098039 0.27450980 0.65882353
v -0.23739511 0.13862139 -14.95600510 0.25098039 0.27450980 0.65882353
v -0.22931349 0.14277963 -14.95453930 0.25098039 0.27450980 0.65882353
v -0.21031781 0.12433834 -14.94406128 0.25098039 0.27450980 0.65882353
v -0.20033109 0.12615564 -14.94423771 0.25098039 0.27450980 0.65882353
v -0.20638168 0.11521118 -14.93596840 0.25098039 0.27450980 0.65882353
v -0.19560167 0.11666511 -14.93507767 0.25098039 0.27450980 0.65882353
v -0.19095084 0.08718066 -14.90712166 0.25098039 0.27450980 0.65882353
v -0.13755380 0.05096990 -14.88188267 0.25098039 0.27450980 0.65882353
v -0.14541698 0.05663573 -14.88732624 0.25098039 0.27450980 0.65882353
v -0.14536604 0.05334169 -14.89188385 0.25098039 0.27450980 0.65882353
v -0.13851082 0.04780329 -14.88463974 0.25098039 0.27450980 0.65882353
v -0.14935178 0.05983845 -14.89055920 0.25098039 0.27450980 0.65882353
v -0.14271644 0.06151679 -14.88523102 0.25098039 0.27450980 0.65882353
v -0.18199965 0.11811274 -14.93861866 0.25098039 0.27450980 0.65882353
v -0.16945212 0.06740392 -14.91528130 0.25098039 0.27450980 0.65882353
v -0.18465111 0.12804917 -14.95152664 0.25098039 0.27450980 0.65882353
v -0.16509664 0.11469517 -14.94227600 0.25098039 0.27450980 0.65882353
v -0.16672724 0.12042476 -14.95359993 0.25098039 0.27450980 0.65882353
v -0.18532345 0.13821204 -14.96528339 0.25098039 0.27450980 0.65882353
v -0.17147604 0.12975472 -14.96533394 0.25098039 0.27450980 0.65882353
v -0.19696891 0.14831603 -14.97034073 0.25098039 0.27450980 0.65882353
v -0.19204159 0.14299205 -14.96698093 0.25098039 0.27450980 0.65882353
v -0.15842867 0.11994690 -14.96546268 0.25098039 0.27450980 0.65882353
v -0.12940258 0.05099454 -14.89469147 0.25098039 0.27450980 0.65882353
v -0.13380238 0.04790211 -14.89363289 0.25098039 0.27450980 0.65882353
v -0.20513189 0.14889726 -14.96179008 0.25098039 0.27450980 0.65882353
v -0.16672572 0.08547311 -14.96976757 0.25098039 0.27450980 0.65882353
v -0.21064314 0.08938733 -14.96774006 0.25098039 0.27450980 0.65882353
v -0.20585108 0.09154887 -14.96619034 0.25098039 0.27450980 0.65882353
v -0.22964771 0.08506930 -14.97188568 0.25098039 0.27450980 0.65882353
v -0.21704216 0.08694562 -14.97078133 0.25098039 0.27450980 0.65882353
v -0.12616739 0.05482375 -14.89335442 0.25098039 0.27450980 0.65882353
v -0.18733308 0.06065445 -14.90868187 0.25098039 0.27450980 0.65882353
v -0.18962926 0.06198195 -14.91068459 0.25098039 0.27450980 0.65882353
v -0.15155333 0.09052384 -14.97827244 0.25098039 0.27450980 0.65882353
v -0.14621702 0.08649479 -14.97507191 0.25098039 0.27450980 0.65882353
v -0.13981627 0.09646853 -14.96965694 0.25098039 0.27450980 0.65882353
v -0.14174576 0.09169843 -14.97446632 0.25098039 0.27450980 0.65882353
v -0.14711288 0.09777168 -14.97760105 0.25098039 0.27450980 0.65882353
v -0.14537990 0.10328906 -14.97280598 0.25098039 0.27450980 0.65882353
v -0.20814897 0.09666970 -14.97595024 0.25098039 0.27450980 0.65882353
v -0.21112709 0.09496998 -14.97641087 0.25098039 0.27450980 0.65882353
v -0.24016257 0.09663860 -14.95697689 0.25098039 0.27450980 0.65882353
v -0.23860125 0.08898728 -14.96430683 0.25098039 0.27450980 0.65882353
v -0.15123352 0.08716537 -14.91418171 0.25098039 0.27450980 0.65882353
v -0.15926556 0.09405500 -14.91350174 0.25098039 0.27450980 0.65882353
v -0.15519691 0.08842197 -14.90857697 0.25098039 0.27450980 0.65882353
v -0.15614642 0.08257485 -14.90080357 0.25098039 0.27450980 0.65882353
v -0.16847926 0.06899834 -14.90956306 0.25098039 0.27450980 0.65882353
v -0.16482194 0.07278834 -14.90790272 0.25098039 0.27450980 0.65882353
v -0.19863968 0.10325342 -14.98724651 0.25098039 0.27450980 0.65882353
v -0.19795898 0.09718041 -14.97471714 0.25098039 0.27450980 0.65882353
v -0.15937364 0.08474688 -14.95934582 0.25098039 0.27450980 0.65882353
v -0.15352187 0.08444263 -14.95703983 0.25098039 0.27450980 0.65882353
v -0.18464857 0.07158744 -14.93123722 0.25098039 0.27450980 0.65882353
v -0.19015655 0.07282326 -14.90212822 0.25098039 0.27450980 0.65882353
v -0.18498118 0.07904104 -14.90099335 0.25098039 0.27450980 0.65882353
v -0.18099621 0.06677094 -14.92375755 0.25098039 0.27450980 0.65882353
v -0.12673612 0.05862658 -14.88573170 0.25098039 0.27450980 0.65882353
v -0.12533432 0.05700611 -14.89034748 0.25098039 0.27450980 0.65882353
v -0.16165215 0.08765949 -14.90529823 0.25098039 0.27450980 0.65882353
v -0.20346271 0.06236983 -14.93564034 0.25098039 0.27450980 0.65882353
v -0.19713897 0.07295752 -14.90765381 0.25098039 0.27450980 0.65882353
v -0.19021517 0.06583004 -14.90391827 0.25098039 0.27450980 0.65882353
v -0.22906105 0.05888927 -14.93716240 0.25098039 0.27450980 0.65882353
v -0.21686617 0.14649105 -14.95728302 0.25098039 0.27450980 0.65882353
v -0.14230072 0.05238470 -14.89628887 0.25098039 0.27450980 0.65882353
v -0.13746318 0.04652404 -14.89067268 0.25098039 0.27450980 0.65882353
v -0.13570850 0.05462578 -14.88077354 0.25098039 0.27450980 0.65882353
v -0.13150352 0.05845548 -14.88189888 0.25098039 0.27450980 0.65882353
v -0.23818518 0.09642310 -14.97180939 0.25098039 0.27450980 0.65882353
v -0.20334858 0.09313481 -14.96489811 0.25098039 0.27450980 0.65882353
v -0.14911090 0.11023800 -14.96516418 0.25098039 0.27450980 0.65882353
v -0.14117129 0.10002904 -14.96340370 0.25098039 0.27450980 0.65882353
v -0.17887017 0.06381330 -14.91803265 0.25098039 0.27450980 0.65882353
v -0.22041391 0.06702114 -14.92033291 0.25098039 0.27450980 0.65882353
v -0.20944127 0.07284719 -14.90982246 0.25098039 0.27450980 0.65882353
v -0.20707391 0.06693022 -14.90441990 0.25098039 0.27450980 0.65882353
v -0.19939949 0.06683992 -14.90293217 0.25098039 0.27450980 0.65882353
v -0.19274285 0.06365890 -14.90476990 0.25098039 0.27450980 0.65882353
v -0.13271302 0.05071574 -14.87907028 0.25098039 0.27450980 0.65882353
v -0.12869671 0.05457404 -14.88005161 0.25098039 0.27450980 0.65882353
v -0.12388873 0.05475296 -14.88348866 0.25098039 0.27450980 0.65882353
v -0.12253726 0.05365160 -14.88769531 0.25098039 0.27450980 0.65882353
v -0.12428135 0.05178062 -14.89133549 0.25098039 0.27450980 0.65882353
v -0.13411839 0.04688153 -14.87986946 0.25098039 0.27450980 0.65882353
v -0.13459674 0.04415465 -14.88240719 0.25098039 0.27450980 0.65882353
v -0.13495617 0.04401017 -14.88848209 0.25098039 0.27450980 0.65882353
v -0.13139193 0.04275727 -14.87893677 0.25098039 0.27450980 0.65882353
v -0.12753738 0.04458961 -14.87612438 0.25098039 0.27450980 0.65882353
v -0.11515386 0.04376313 -14.88070774 0.25098039 0.27450980 0.65882353
v -0.11891159 0.04820749 -14.88029766 0.25098039 0.27450980 0.65882353
v -0.11856258 0.04638383 -14.87850380 0.25098039 0.27450980 0.65882353
v -0.11575930 0.04235096 -14.87796116 0.25098039 0.27450980 0.65882353
v -0.11362740 0.03814366 -14.87593460 0.25098039 0.27450980 0.65882353
v -0.11229967 0.03916704 -14.87902546 0.25098039 0.27450980 0.65882353
v -0.12282321 0.04688746 -14.87713146 0.25098039 0.27450980 0.65882353
v -0.11944270 0.04149579 -14.87556839 0.25098039 0.27450980 0.65882353
v -0.12287652 0.03945328 -14.87461472 0.25098039 0.27450980 0.65882353
v -0.11966127 0.03538753 -14.87264252 0.25098039 0.27450980 0.65882353
v -0.11649457 0.03717683 -14.87328434 0.25098039 0.27450980 0.65882353
v -0.12484765 0.04337943 -14.87566662 0.25098039 0.27450980 0.65882353
v -0.12414719 0.04865859 -14.87741947 0.25098039 0.27450980 0.65882353
v -0.11178216 0.03521498 -14.87660217 0.25098039 0.27450980 0.65882353
v -0.11272499 0.03572141 -14.87436295 0.25098039 0.27450980 0.65882353
v -0.11501069 0.03448147 -14.87275600 0.25098039 0.27450980 0.65882353
v -0.11384986 0.03177392 -14.87364006 0.25098039 0.27450980 0.65882353
v -0.11968632 0.04978916 -14.88597107 0.25098039 0.27450980 0.65882353
v -0.11491759 0.04324742 -14.88321590 0.25098039 0.27450980 0.65882353
v -0.11325455 0.03773193 -14.88158035 0.25098039 0.27450980 0.65882353
v -0.11269613 0.03389852 -14.87894821 0.25098039 0.27450980 0.65882353
v -0.11650114 0.04031663 -14.88543510 0.25098039 0.27450980 0.65882353
v -0.11511694 0.03619099 -14.88316345 0.25098039 0.27450980 0.65882353
v -0.11505507 0.03280003 -14.88095284 0.25098039 0.27450980 0.65882353
v -0.11912078 0.03733176 -14.88639927 0.25098039 0.27450980 0.65882353
v -0.11743689 0.03424975 -14.88382149 0.25098039 0.27450980 0.65882353
v -0.12514438 0.04668721 -14.89116383 0.25098039 0.27450980 0.65882353
v -0.12222673 0.04949084 -14.89010143 0.25098039 0.27450980 0.65882353
v -0.11654849 0.03214744 -14.88239861 0.25098039 0.27450980 0.65882353
v -0.11473472 0.03049085 -14.87535381 0.25098039 0.27450980 0.65882353
v -0.12617600 0.03864803 -14.87594795 0.25098039 0.27450980 0.65882353
v -0.12158963 0.03349954 -14.87453365 0.25098039 0.27450980 0.65882353
v -0.12738985 0.03732873 -14.87745380 0.25098039 0.27450980 0.65882353
v -0.12311421 0.03209296 -14.87583637 0.25098039 0.27450980 0.65882353
v -0.11841059 0.03081481 -14.87273407 0.25098039 0.27450980 0.65882353
v -0.11757499 0.03326018 -14.87236595 0.25098039 0.27450980 0.65882353
v -0.12823911 0.04909363 -14.89304066 0.25098039 0.27450980 0.65882353
v -0.13261412 0.04574084 -14.89167118 0.25098039 0.27450980 0.65882353
v -0.13005026 0.04336409 -14.89002895 0.25098039 0.27450980 0.65882353
v -0.12292105 0.03480726 -14.88575935 0.25098039 0.27450980 0.65882353
v -0.13229778 0.04124244 -14.88718605 0.25098039 0.27450980 0.65882353
v -0.13179985 0.04029678 -14.88153076 0.25098039 0.27450980 0.65882353
v -0.12736535 0.03521614 -14.87939167 0.25098039 0.27450980 0.65882353
v -0.12641841 0.03417709 -14.88235092 0.25098039 0.27450980 0.65882353
v -0.12367983 0.03148614 -14.87814426 0.25098039 0.27450980 0.65882353
v -0.12284897 0.03166707 -14.88049412 0.25098039 0.27450980 0.65882353
v -0.12024897 0.03221627 -14.88306332 0.25098039 0.27450980 0.65882353
v -0.11999941 0.02966356 -14.87755394 0.25098039 0.27450980 0.65882353
v -0.11920300 0.02989000 -14.87468624 0.25098039 0.27450980 0.65882353
v -0.11651361 0.03026054 -14.87837315 0.25098039 0.27450980 0.65882353
v -0.12061456 0.03014532 -14.87946701 0.25098039 0.27450980 0.65882353
v -0.11807223 0.03109443 -14.88052654 0.25098039 0.27450980 0.65882353
v -0.16069147 0.04174244 -14.89026928 0.25098039 0.27450980 0.65882353
v -0.16620891 0.03857681 -14.89024448 0.25098039 0.27450980 0.65882353
v -0.16787460 0.04331613 -14.89268494 0.25098039 0.27450980 0.65882353
v -0.16291693 0.04548253 -14.89259243 0.25098039 0.27450980 0.65882353
v -0.16038363 0.04953216 -14.87954235 0.25098039 0.27450980 0.65882353
v -0.15796265 0.04731290 -14.88424301 0.25098039 0.27450980 0.65882353
v -0.15962331 0.05152434 -14.88586807 0.25098039 0.27450980 0.65882353
v -0.16328888 0.05370638 -14.88101196 0.25098039 0.27450980 0.65882353
v -0.16628252 0.04888552 -14.87675285 0.25098039 0.27450980 0.65882353
v -0.16939151 0.05323828 -14.87845421 0.25098039 0.27450980 0.65882353
v -0.16505930 0.05791453 -14.88308907 0.25098039 0.27450980 0.65882353
v -0.16167291 0.05567259 -14.88883781 0.25098039 0.27450980 0.65882353
v -0.16947058 0.06964706 -14.90258217 0.25098039 0.27450980 0.65882353
v -0.17293181 0.07233666 -14.89683437 0.25098039 0.27450980 0.65882353
v -0.18189822 0.05854858 -14.90916061 0.25098039 0.27450980 0.65882353
v -0.18369362 0.05871187 -14.90565109 0.25098039 0.27450980 0.65882353
v -0.15850759 0.04425970 -14.88814259 0.25098039 0.27450980 0.65882353
v -0.16038764 0.04832721 -14.88986206 0.25098039 0.27450980 0.65882353
v -0.17755039 0.04454370 -14.89241600 0.25098039 0.27450980 0.65882353
v -0.17354223 0.04427752 -14.89604282 0.25098039 0.27450980 0.65882353
v -0.17198920 0.04101498 -14.89173889 0.25098039 0.27450980 0.65882353
v -0.17571922 0.04170642 -14.88768864 0.25098039 0.27450980 0.65882353
v -0.17168202 0.06469126 -14.90969086 0.25098039 0.27450980 0.65882353
v -0.17730163 0.06173537 -14.91058159 0.25098039 0.27450980 0.65882353
v -0.16962212 0.06655729 -14.90668964 0.25098039 0.27450980 0.65882353
v -0.17976855 0.04734517 -14.88697910 0.25098039 0.27450980 0.65882353
v -0.17834280 0.05205986 -14.88210773 0.25098039 0.27450980 0.65882353
v -0.18571694 0.06628777 -14.89401150 0.25098039 0.27450980 0.65882353
v -0.18682560 0.06128717 -14.89811802 0.25098039 0.27450980 0.65882353
v -0.16138117 0.05224215 -14.89330769 0.25098039 0.27450980 0.65882353
v -0.16856323 0.04595933 -14.89733887 0.25098039 0.27450980 0.65882353
v -0.16400383 0.04850665 -14.89667606 0.25098039 0.27450980 0.65882353
v -0.17191362 0.05658059 -14.88110924 0.25098039 0.27450980 0.65882353
v -0.17513698 0.04816186 -14.87897873 0.25098039 0.27450980 0.65882353
v -0.16819113 0.03101219 -14.87425041 0.25098039 0.27450980 0.65882353
v -0.17454720 0.04014716 -14.88021755 0.25098039 0.27450980 0.65882353
v -0.17338291 0.03755867 -14.88440323 0.25098039 0.27450980 0.65882353
v -0.16789985 0.02756932 -14.87771797 0.25098039 0.27450980 0.65882353
v -0.17722674 0.04394515 -14.88291550 0.25098039 0.27450980 0.65882353
v -0.17207001 0.04466172 -14.87705708 0.25098039 0.27450980 0.65882353
v -0.15561077 0.02818301 -14.88346672 0.25098039 0.27450980 0.65882353
v -0.16105460 0.02516375 -14.88317013 0.25098039 0.27450980 0.65882353
v -0.15265988 0.03113370 -14.88166237 0.25098039 0.27450980 0.65882353
v -0.17995553 0.07131898 -14.89326572 0.25098039 0.27450980 0.65882353
v -0.15450464 0.03860570 -14.87470341 0.25098039 0.27450980 0.65882353
v -0.15194973 0.03469566 -14.87929344 0.25098039 0.27450980 0.65882353
v -0.17058514 0.03673495 -14.88844013 0.25098039 0.27450980 0.65882353
v -0.16531383 0.02503507 -14.88073158 0.25098039 0.27450980 0.65882353
v -0.16611996 0.03448963 -14.87199688 0.25098039 0.27450980 0.65882353
v -0.16076729 0.03918983 -14.87198067 0.25098039 0.27450980 0.65882353
v -0.16312531 0.02994224 -14.86991501 0.25098039 0.27450980 0.65882353
v -0.15797929 0.03376479 -14.86983395 0.25098039 0.27450980 0.65882353
v -0.15186340 0.03332457 -14.87267113 0.25098039 0.27450980 0.65882353
v -0.15025820 0.03012918 -14.87719345 0.25098039 0.27450980 0.65882353
v -0.15131167 0.02754493 -14.87995243 0.25098039 0.27450980 0.65882353
v -0.16499229 0.02655998 -14.87174416 0.25098039 0.27450980 0.65882353
v -0.16510707 0.02316002 -14.87488937 0.25098039 0.27450980 0.65882353
v -0.16333733 0.02246001 -14.87933826 0.25098039 0.27450980 0.65882353
v -0.16217057 0.01990591 -14.86988544 0.25098039 0.27450980 0.65882353
v -0.15952297 0.02199063 -14.86708832 0.25098039 0.27450980 0.65882353
v -0.14384829 0.01354824 -14.86791420 0.25098039 0.27450980 0.65882353
v -0.14581272 0.01905908 -14.86937523 0.25098039 0.27450980 0.65882353
v -0.14727280 0.01874419 -14.86716366 0.25098039 0.27450980 0.65882353
v -0.14560369 0.01371635 -14.86567116 0.25098039 0.27450980 0.65882353
v -0.14845012 0.02479534 -14.86888790 0.25098039 0.27450980 0.65882353
v -0.14935614 0.02282773 -14.86736679 0.25098039 0.27450980 0.65882353
v -0.15376468 0.02304928 -14.86630440 0.25098039 0.27450980 0.65882353
v -0.15158576 0.01749475 -14.86517620 0.25098039 0.27450980 0.65882353
v -0.15616438 0.01629119 -14.86551857 0.25098039 0.27450980 0.65882353
v -0.15431012 0.01138633 -14.86298847 0.25098039 0.27450980 0.65882353
v -0.14962731 0.01259153 -14.86263657 0.25098039 0.27450980 0.65882353
v -0.15669209 0.02052769 -14.86594963 0.25098039 0.27450980 0.65882353
v -0.14531583 0.01034665 -14.86423588 0.25098039 0.27450980 0.65882353
v -0.14434239 0.00834378 -14.86558723 0.25098039 0.27450980 0.65882353
v -0.15452284 0.02600486 -14.86675262 0.25098039 0.27450980 0.65882353
v -0.14834480 0.02655318 -14.87483025 0.25098039 0.27450980 0.65882353
v -0.14531972 0.01805818 -14.87220287 0.25098039 0.27450980 0.65882353
v -0.14393376 0.01163165 -14.87049961 0.25098039 0.27450980 0.65882353
v -0.14548744 0.00631054 -14.86758614 0.25098039 0.27450980 0.65882353
v -0.14682996 0.01540604 -14.87504959 0.25098039 0.27450980 0.65882353
v -0.14560539 0.00973744 -14.87253284 0.25098039 0.27450980 0.65882353
v -0.14726636 0.00581627 -14.86966610 0.25098039 0.27450980 0.65882353
v -0.14988047 0.01260331 -14.87723446 0.25098039 0.27450980 0.65882353
v -0.14883587 0.00755125 -14.87407398 0.25098039 0.27450980 0.65882353
v -0.15357840 0.02267845 -14.88110256 0.25098039 0.27450980 0.65882353
v -0.14990684 0.02482911 -14.87905502 0.25098039 0.27450980 0.65882353
v -0.14872277 0.00598893 -14.87163067 0.25098039 0.27450980 0.65882353
v -0.14775592 0.00641325 -14.86245728 0.25098039 0.27450980 0.65882353
v -0.14851320 0.00440452 -14.86525345 0.25098039 0.27450980 0.65882353
v -0.14814906 0.00846252 -14.86226559 0.25098039 0.27450980 0.65882353
v -0.15787712 0.01538973 -14.86635876 0.25098039 0.27450980 0.65882353
v -0.15534073 0.00978355 -14.86445332 0.25098039 0.27450980 0.65882353
v -0.15931752 0.01374853 -14.86810684 0.25098039 0.27450980 0.65882353
v -0.15592435 0.00792445 -14.86608601 0.25098039 0.27450980 0.65882353
v -0.15247039 0.00635005 -14.86289406 0.25098039 0.27450980 0.65882353
v -0.15165162 0.00768700 -14.86203003 0.25098039 0.27450980 0.65882353
v -0.15481749 0.02547696 -14.88161564 0.25098039 0.27450980 0.65882353
v -0.15991095 0.02318835 -14.88150120 0.25098039 0.27450980 0.65882353
v -0.15876447 0.02072696 -14.88094330 0.25098039 0.27450980 0.65882353
v -0.15473950 0.01106300 -14.87663460 0.25098039 0.27450980 0.65882353
v -0.16242491 0.01980995 -14.87822437 0.25098039 0.27450980 0.65882353
v -0.16304363 0.01879760 -14.87312317 0.25098039 0.27450980 0.65882353
v -0.16003615 0.01261859 -14.87057400 0.25098039 0.27450980 0.65882353
v -0.15846679 0.01106167 -14.87382984 0.25098039 0.27450980 0.65882353
v -0.15707633 0.00680265 -14.86774158 0.25098039 0.27450980 0.65882353
v -0.15663916 0.00720604 -14.87093353 0.25098039 0.27450980 0.65882353
v -0.15277946 0.00675015 -14.87381363 0.25098039 0.27450980 0.65882353
v -0.15373319 0.00387588 -14.86623478 0.25098039 0.27450980 0.65882353
v -0.15295875 0.00494550 -14.86409092 0.25098039 0.27450980 0.65882353
v -0.14947084 0.00418914 -14.86741066 0.25098039 0.27450980 0.65882353
v -0.15423845 0.00463915 -14.86916637 0.25098039 0.27450980 0.65882353
v -0.15084210 0.00475871 -14.87041473 0.25098039 0.27450980 0.65882353
v -0.18467307 0.03774115 -14.89631462 0.25098039 0.27450980 0.65882353
v -0.18875079 0.03505787 -14.89956760 0.25098039 0.27450980 0.65882353
v -0.18992326 0.03860416 -14.90184498 0.25098039 0.27450980 0.65882353
v -0.18591428 0.04127077 -14.89848042 0.25098039 0.27450980 0.65882353
v -0.19078234 0.04238749 -14.88621712 0.25098039 0.27450980 0.65882353
v -0.18640266 0.04158685 -14.88830757 0.25098039 0.27450980 0.65882353
v -0.18748702 0.04540560 -14.89048290 0.25098039 0.27450980 0.65882353
v -0.19231099 0.04733570 -14.88862991 0.25098039 0.27450980 0.65882353
v -0.19551912 0.03966257 -14.88573265 0.25098039 0.27450980 0.65882353
v -0.19812933 0.04619150 -14.88870144 0.25098039 0.27450980 0.65882353
v -0.19374347 0.05233044 -14.89043713 0.25098039 0.27450980 0.65882353
v -0.18865106 0.04937106 -14.89250183 0.25098039 0.27450980 0.65882353
v -0.19200850 0.06054473 -14.90216351 0.25098039 0.27450980 0.65882353
v -0.19756636 0.06264222 -14.89844131 0.25098039 0.27450980 0.65882353
v -0.18446618 0.03984521 -14.89222336 0.25098039 0.27450980 0.65882353
v -0.18538386 0.04321638 -14.89422226 0.25098039 0.27450980 0.65882353
v -0.19984028 0.03882439 -14.90421677 0.25098039 0.27450980 0.65882353
v -0.19517285 0.03934100 -14.90580845 0.25098039 0.27450980 0.65882353
v -0.19490853 0.03646927 -14.90245438 0.25098039 0.27450980 0.65882353
v -0.19891083 0.03606784 -14.90094280 0.25098039 0.27450980 0.65882353
v -0.19141234 0.05670425 -14.91255188 0.25098039 0.27450980 0.65882353
v -0.19665411 0.05541173 -14.91538334 0.25098039 0.27450980 0.65882353
v -0.18973476 0.05756323 -14.90727615 0.25098039 0.27450980 0.65882353
v -0.20376658 0.04082379 -14.89954662 0.25098039 0.27450980 0.65882353
v -0.20469177 0.04609184 -14.89441872 0.25098039 0.27450980 0.65882353
v -0.20919564 0.05627540 -14.90370655 0.25098039 0.27450980 0.65882353
v -0.20790145 0.05337454 -14.90934086 0.25098039 0.27450980 0.65882353
v -0.18607183 0.04649032 -14.89626598 0.25098039 0.27450980 0.65882353
v -0.19048066 0.04162565 -14.90502262 0.25098039 0.27450980 0.65882353
v -0.18632793 0.04377612 -14.90122700 0.25098039 0.27450980 0.65882353
v -0.19972289 0.05081083 -14.89123631 0.25098039 0.27450980 0.65882353
v -0.20200475 0.04148417 -14.89193249 0.25098039 0.27450980 0.65882353
v -0.19512467 0.02063739 -14.88504314 0.25098039 0.27450980 0.65882353
v -0.20087084 0.03383203 -14.89422703 0.25098039 0.27450980 0.65882353
v -0.19742367 0.03223639 -14.89841747 0.25098039 0.27450980 0.65882353
v -0.19357730 0.01882997 -14.88875103 0.25098039 0.27450980 0.65882353
v -0.20212200 0.03705005 -14.89677906 0.25098039 0.27450980 0.65882353
v -0.20022333 0.03692842 -14.88925076 0.25098039 0.27450980 0.65882353
v -0.18052427 0.02362373 -14.88947296 0.25098039 0.27450980 0.65882353
v -0.18479916 0.02126654 -14.89221191 0.25098039 0.27450980 0.65882353
v -0.18028119 0.02682368 -14.88639545 0.25098039 0.27450980 0.65882353
v -0.20483655 0.06141188 -14.89857960 0.25098039 0.27450980 0.65882353
v -0.20325828 0.05310124 -14.91442776 0.25098039 0.27450980 0.65882353
v -0.18409479 0.02867310 -14.88011742 0.25098039 0.27450980 0.65882353
v -0.18112051 0.02810205 -14.88332462 0.25098039 0.27450980 0.65882353
v -0.19366737 0.03307761 -14.90023041 0.25098039 0.27450980 0.65882353
v -0.18999414 0.01901785 -14.89165020 0.25098039 0.27450980 0.65882353
v -0.19437858 0.02408473 -14.88169289 0.25098039 0.27450980 0.65882353
v -0.19013709 0.02811088 -14.87935829 0.25098039 0.27450980 0.65882353
v -0.19222976 0.01867649 -14.87997723 0.25098039 0.27450980 0.65882353
v -0.18788457 0.02244525 -14.87769222 0.25098039 0.27450980 0.65882353
v -0.18207437 0.02307969 -14.87842941 0.25098039 0.27450980 0.65882353
v -0.17940263 0.02296182 -14.88183594 0.25098039 0.27450980 0.65882353
v -0.17867281 0.02209899 -14.88501930 0.25098039 0.27450980 0.65882353
v -0.19273771 0.01554919 -14.88366127 0.25098039 0.27450980 0.65882353
v -0.19123144 0.01439294 -14.88712215 0.25098039 0.27450980 0.65882353
v -0.18867125 0.01710627 -14.89047050 0.25098039 0.27450980 0.65882353
v -0.19081825 0.01116356 -14.88351059 0.25098039 0.27450980 0.65882353
v -0.18898517 0.01198309 -14.87837315 0.25098039 0.27450980 0.65882353
v -0.17410415 0.00439260 -14.87678814 0.25098039 0.27450980 0.65882353
v -0.17621076 0.00988974 -14.87766075 0.25098039 0.27450980 0.65882353
v -0.17717974 0.00938822 -14.87692356 0.25098039 0.27450980 0.65882353
v -0.17533851 0.00401297 -14.87544155 0.25098039 0.27450980 0.65882353
v -0.17980854 0.01562737 -14.87680340 0.25098039 0.27450980 0.65882353
v -0.18005846 0.01360796 -14.87637424 0.25098039 0.27450980 0.65882353
v -0.18390751 0.01319352 -14.87611198 0.25098039 0.27450980 0.65882353
v -0.18165272 0.00713579 -14.87517834 0.25098039 0.27450980 0.65882353
v -0.18596493 0.00557406 -14.87903976 0.25098039 0.27450980 0.65882353
v -0.18329164 0.00126486 -14.87811184 0.25098039 0.27450980 0.65882353
v -0.17949966 0.00221618 -14.87435532 0.25098039 0.27450980 0.65882353
v -0.18717274 0.01082850 -14.87783241 0.25098039 0.27450980 0.65882353
v -0.17521037 0.00078961 -14.87506676 0.25098039 0.27450980 0.65882353
v -0.17302224 0.00036237 -14.87512398 0.25098039 0.27450980 0.65882353
v -0.18500021 0.01547776 -14.87609386 0.25098039 0.27450980 0.65882353
v -0.17696527 0.01777461 -14.88015079 0.25098039 0.27450980 0.65882353
v -0.17416576 0.01047972 -14.87967205 0.25098039 0.27450980 0.65882353
v -0.17154136 0.00488392 -14.87906456 0.25098039 0.27450980 0.65882353
v -0.17187709 0.00028796 -14.87877178 0.25098039 0.27450980 0.65882353
v -0.17400900 0.01007557 -14.88340664 0.25098039 0.27450980 0.65882353
v -0.17218292 0.00481724 -14.88223743 0.25098039 0.27450980 0.65882353
v -0.17235617 0.00073075 -14.88201141 0.25098039 0.27450980 0.65882353
v -0.17525114 0.00923485 -14.88630676 0.25098039 0.27450980 0.65882353
v -0.17381647 0.00440724 -14.88512325 0.25098039 0.27450980 0.65882353
v -0.17903394 0.01847375 -14.88782024 0.25098039 0.27450980 0.65882353
v -0.17716219 0.01856166 -14.88413811 0.25098039 0.27450980 0.65882353
v -0.17359307 0.00128037 -14.88396454 0.25098039 0.27450980 0.65882353
v -0.17675777 -0.00269262 -14.87535667 0.25098039 0.27450980 0.65882353
v -0.17588821 -0.00359593 -14.87962437 0.25098039 0.27450980 0.65882353
v -0.17771466 -0.00078599 -14.87523365 0.25098039 0.27450980 0.65882353
v -0.18727294 0.00563818 -14.88052750 0.25098039 0.27450980 0.65882353
v -0.18407544 -0.00027496 -14.87992001 0.25098039 0.27450980 0.65882353
v -0.18755123 0.00534434 -14.88341236 0.25098039 0.27450980 0.65882353
v -0.18435937 -0.00055917 -14.88266468 0.25098039 0.27450980 0.65882353
v -0.18122897 -0.00299279 -14.87799072 0.25098039 0.27450980 0.65882353
v -0.18104844 -0.00182524 -14.87722683 0.25098039 0.27450980 0.65882353
v -0.18037251 0.02114543 -14.88847446 0.25098039 0.27450980 0.65882353
v -0.18427493 0.01906876 -14.89090729 0.25098039 0.27450980 0.65882353
v -0.18270606 0.01674506 -14.89027596 0.25098039 0.27450980 0.65882353
v -0.17841910 0.00701392 -14.88872242 0.25098039 0.27450980 0.65882353
v -0.18691231 0.01476817 -14.89018726 0.25098039 0.27450980 0.65882353
v -0.18913276 0.01050213 -14.88675976 0.25098039 0.27450980 0.65882353
v -0.18585408 0.00529425 -14.88619900 0.25098039 0.27450980 0.65882353
v -0.18265188 0.00542068 -14.88825130 0.25098039 0.27450980 0.65882353
v -0.18316320 0.00002630 -14.88508987 0.25098039 0.27450980 0.65882353
v -0.18126689 0.00163610 -14.88653755 0.25098039 0.27450980 0.65882353
v -0.17661759 0.00263642 -14.88744831 0.25098039 0.27450980 0.65882353
v -0.18001042 -0.00223216 -14.88339710 0.25098039 0.27450980 0.65882353
v -0.18100645 -0.00348134 -14.88082600 0.25098039 0.27450980 0.65882353
v -0.17553000 -0.00229660 -14.88274479 0.25098039 0.27450980 0.65882353
v -0.17906988 -0.00074394 -14.88529778 0.25098039 0.27450980 0.65882353
v -0.17569782 -0.00063173 -14.88490200 0.25098039 0.27450980 0.65882353
v -0.20041265 0.05401558 -14.91628075 0.25098039 0.27450980 0.65882353
v -0.21127702 0.03173650 -14.91448402 0.25098039 0.27450980 0.65882353
v -0.21344444 0.03021307 -14.91746807 0.25098039 0.27450980 0.65882353
v -0.21491212 0.03369655 -14.91903782 0.25098039 0.27450980 0.65882353
v -0.21218202 0.03560945 -14.91693878 0.25098039 0.27450980 0.65882353
v -0.21744566 0.03550081 -14.90625954 0.25098039 0.27450980 0.65882353
v -0.21347755 0.03452703 -14.90800381 0.25098039 0.27450980 0.65882353
v -0.21407765 0.03900547 -14.90952969 0.25098039 0.27450980 0.65882353
v -0.21791565 0.03985343 -14.90772057 0.25098039 0.27450980 0.65882353
v -0.22203812 0.03439666 -14.90704060 0.25098039 0.27450980 0.65882353
v -0.22263438 0.03843653 -14.90875149 0.25098039 0.27450980 0.65882353
v -0.21857339 0.04324866 -14.90858841 0.25098039 0.27450980 0.65882353
v -0.21437579 0.04263314 -14.91085052 0.25098039 0.27450980 0.65882353
v -0.21519223 0.05694023 -14.91772461 0.25098039 0.27450980 0.65882353
v -0.22031040 0.05914129 -14.91648006 0.25098039 0.27450980 0.65882353
v -0.22725351 0.05401871 -14.93338585 0.25098039 0.27450980 0.65882353
v -0.22148833 0.05400338 -14.93622017 0.25098039 0.27450980 0.65882353
v -0.22142822 0.04735335 -14.93014145 0.25098039 0.27450980 0.65882353
v -0.22620827 0.04840389 -14.92893124 0.25098039 0.27450980 0.65882353
v -0.21150514 0.03317609 -14.91107655 0.25098039 0.27450980 0.65882353
v -0.21153228 0.03722385 -14.91333485 0.25098039 0.27450980 0.65882353
v -0.22441128 0.03631184 -14.92183590 0.25098039 0.27450980 0.65882353
v -0.21990868 0.03589537 -14.92251396 0.25098039 0.27450980 0.65882353
v -0.21824025 0.03276049 -14.92098236 0.25098039 0.27450980 0.65882353
v -0.22264662 0.03221931 -14.92053986 0.25098039 0.27450980 0.65882353
v -0.21618634 0.05362743 -14.93413258 0.25098039 0.27450980 0.65882353
v -0.21270068 0.05440986 -14.93100166 0.25098039 0.27450980 0.65882353
v -0.21252544 0.05101088 -14.92812061 0.25098039 0.27450980 0.65882353
v -0.21665296 0.04756851 -14.92897224 0.25098039 0.27450980 0.65882353
v -0.21126626 0.05280696 -14.92332840 0.25098039 0.27450980 0.65882353
v -0.22697034 0.03723244 -14.91903877 0.25098039 0.27450980 0.65882353
v -0.22750004 0.03948278 -14.91403961 0.25098039 0.27450980 0.65882353
v -0.23140071 0.05386375 -14.92283726 0.25098039 0.27450980 0.65882353
v -0.22987697 0.05160335 -14.92673397 0.25098039 0.27450980 0.65882353
v -0.21188509 0.04042487 -14.91402626 0.25098039 0.27450980 0.65882353
v -0.21596536 0.03648183 -14.92093563 0.25098039 0.27450980 0.65882353
v -0.21287070 0.03799983 -14.91835690 0.25098039 0.27450980 0.65882353
v -0.22396770 0.04172511 -14.90953922 0.25098039 0.27450980 0.65882353
v -0.22611462 0.03568394 -14.91268635 0.25098039 0.27450980 0.65882353
v -0.22292793 0.02079386 -14.91257668 0.25098039 0.27450980 0.65882353
v -0.22489503 0.02979185 -14.91644573 0.25098039 0.27450980 0.65882353
v -0.22119015 0.02842577 -14.91924191 0.25098039 0.27450980 0.65882353
v -0.22078750 0.01999547 -14.91430950 0.25098039 0.27450980 0.65882353
v -0.22571567 0.03337666 -14.91758060 0.25098039 0.27450980 0.65882353
v -0.22546306 0.03182966 -14.91124344 0.25098039 0.27450980 0.65882353
v -0.21001223 0.02285689 -14.91069794 0.25098039 0.27450980 0.65882353
v -0.21328497 0.02139734 -14.91428757 0.25098039 0.27450980 0.65882353
v -0.21008539 0.02426494 -14.90785789 0.25098039 0.27450980 0.65882353
v -0.22714348 0.05763882 -14.91747093 0.25098039 0.27450980 0.65882353
v -0.21559268 0.02585526 -14.90320683 0.25098039 0.27450980 0.65882353
v -0.21168035 0.02497457 -14.90476990 0.25098039 0.27450980 0.65882353
v -0.21678863 0.02896830 -14.91918468 0.25098039 0.27450980 0.65882353
v -0.21736424 0.02040187 -14.91525364 0.25098039 0.27450980 0.65882353
v -0.22355552 0.02254871 -14.90888119 0.25098039 0.27450980 0.65882353
v -0.22085005 0.02527672 -14.90433598 0.25098039 0.27450980 0.65882353
v -0.22224876 0.01824535 -14.90719509 0.25098039 0.27450980 0.65882353
v -0.21923973 0.02142408 -14.90294647 0.25098039 0.27450980 0.65882353
v -0.21359596 0.02170613 -14.90206337 0.25098039 0.27450980 0.65882353
v -0.21071839 0.02182200 -14.90427494 0.25098039 0.27450980 0.65882353
v -0.20916583 0.02119182 -14.90697861 0.25098039 0.27450980 0.65882353
v -0.22175606 0.01669907 -14.91099262 0.25098039 0.27450980 0.65882353
v -0.21960911 0.01637466 -14.91307068 0.25098039 0.27450980 0.65882353
v -0.21637882 0.01741398 -14.91454983 0.25098039 0.27450980 0.65882353
v -0.22033662 0.01253450 -14.90948296 0.25098039 0.27450980 0.65882353
v -0.22019902 0.01264355 -14.90472126 0.25098039 0.27450980 0.65882353
v -0.20847417 0.00716500 -14.90038204 0.25098039 0.27450980 0.65882353
v -0.20936203 0.01113299 -14.90116978 0.25098039 0.27450980 0.65882353
v -0.21047340 0.01100247 -14.90058136 0.25098039 0.27450980 0.65882353
v -0.20912199 0.00722195 -14.89936924 0.25098039 0.27450980 0.65882353
v -0.21197757 0.01589945 -14.90112686 0.25098039 0.27450980 0.65882353
v -0.21283942 0.01450085 -14.90081501 0.25098039 0.27450980 0.65882353
v -0.21623053 0.01474577 -14.90169811 0.25098039 0.27450980 0.65882353
v -0.21459016 0.00990395 -14.90027523 0.25098039 0.27450980 0.65882353
v -0.21786173 0.00729499 -14.90364838 0.25098039 0.27450980 0.65882353
v -0.21615180 0.00368671 -14.90215397 0.25098039 0.27450980 0.65882353
v -0.21358943 0.00636859 -14.89911366 0.25098039 0.27450980 0.65882353
v -0.21890189 0.01182950 -14.90316486 0.25098039 0.27450980 0.65882353
v -0.20938700 0.00464255 -14.89834213 0.25098039 0.27450980 0.65882353
v -0.20830013 0.00361902 -14.89840794 0.25098039 0.27450980 0.65882353
v -0.21695884 0.01642970 -14.90165138 0.25098039 0.27450980 0.65882353
v -0.20902884 0.01743857 -14.90365314 0.25098039 0.27450980 0.65882353
v -0.20728958 0.01066504 -14.90245152 0.25098039 0.27450980 0.65882353
v -0.20671155 0.00575782 -14.90113640 0.25098039 0.27450980 0.65882353
v -0.20768422 0.00217384 -14.90020561 0.25098039 0.27450980 0.65882353
v -0.20666566 0.01110292 -14.90511799 0.25098039 0.27450980 0.65882353
v -0.20575291 0.00527439 -14.90341377 0.25098039 0.27450980 0.65882353
v -0.20692837 0.00184593 -14.90279198 0.25098039 0.27450980 0.65882353
v -0.20697719 0.01074225 -14.90854740 0.25098039 0.27450980 0.65882353
v -0.20653018 0.00530636 -14.90618229 0.25098039 0.27450980 0.65882353
v -0.20885617 0.01744818 -14.91044521 0.25098039 0.27450980 0.65882353
v -0.20828962 0.01763694 -14.90692043 0.25098039 0.27450980 0.65882353
v -0.20738082 0.00262234 -14.90459633 0.25098039 0.27450980 0.65882353
v -0.21157542 0.00163537 -14.89859009 0.25098039 0.27450980 0.65882353
v -0.21024153 0.00020020 -14.90101910 0.25098039 0.27450980 0.65882353
v -0.21245049 0.00283682 -14.89839840 0.25098039 0.27450980 0.65882353
v -0.21846288 0.00694387 -14.90501499 0.25098039 0.27450980 0.65882353
v -0.21637143 0.00245145 -14.90339279 0.25098039 0.27450980 0.65882353
v -0.21820807 0.00655709 -14.90763378 0.25098039 0.27450980 0.65882353
v -0.21548203 0.00177440 -14.90539455 0.25098039 0.27450980 0.65882353
v -0.21420181 0.00051527 -14.90115738 0.25098039 0.27450980 0.65882353
v -0.21448131 0.00228892 -14.90022659 0.25098039 0.27450980 0.65882353
v -0.20939872 0.01974631 -14.91067696 0.25098039 0.27450980 0.65882353
v -0.21255177 0.01895092 -14.91346931 0.25098039 0.27450980 0.65882353
v -0.21192229 0.01636054 -14.91311455 0.25098039 0.27450980 0.65882353
v -0.20951968 0.00970526 -14.91122246 0.25098039 0.27450980 0.65882353
v -0.21570385 0.01470570 -14.91391563 0.25098039 0.27450980 0.65882353
v -0.21870965 0.01337168 -14.91206932 0.25098039 0.27450980 0.65882353
v -0.21638359 0.00695835 -14.90985394 0.25098039 0.27450980 0.65882353
v -0.21344054 0.00777280 -14.91147137 0.25098039 0.27450980 0.65882353
v -0.21378468 0.00171925 -14.90701866 0.25098039 0.27450980 0.65882353
v -0.21134989 0.00288226 -14.90862656 0.25098039 0.27450980 0.65882353
v -0.20844606 0.00432093 -14.90854263 0.25098039 0.27450980 0.65882353
v -0.21142210 0.00009172 -14.90439224 0.25098039 0.27450980 0.65882353
v -0.21272638 -0.00034583 -14.90291309 0.25098039 0.27450980 0.65882353
v -0.20942709 0.00045095 -14.90324688 0.25098039 0.27450980 0.65882353
v -0.21020281 0.00096329 -14.90588570 0.25098039 0.27450980 0.65882353
v -0.20877384 0.00165853 -14.90546036 0.25098039 0.27450980 0.65882353
v -0.22963218 0.05427195 -14.92987633 0.25098039 0.27450980 0.65882353
v -0.13497567 0.08942938 -14.95441246 0.25098039 0.27450980 0.65882353
v -0.13897020 0.08640956 -14.95144367 0.25098039 0.27450980 0.65882353
v -0.14183553 0.07362458 -14.96138191 0.25098039 0.27450980 0.65882353
v -0.14298759 0.07608472 -14.95479202 0.25098039 0.27450980 0.65882353
v -0.13830207 0.07427987 -14.96695423 0.25098039 0.27450980 0.65882353
v -0.13262074 0.08300579 -14.96947098 0.25098039 0.27450980 0.65882353
v -0.13588768 0.07850760 -14.97004223 0.25098039 0.27450980 0.65882353
v -0.14185590 0.08083533 -14.95140362 0.25098039 0.27450980 0.65882353
v -0.13201231 0.09078811 -14.95919704 0.25098039 0.27450980 0.65882353
v -0.13093516 0.08852905 -14.96584797 0.25098039 0.27450980 0.65882353
v -0.12553869 0.08705139 -14.95548058 0.25098039 0.27450980 0.65882353
v -0.12424368 0.08397491 -14.96240902 0.25098039 0.27450980 0.65882353
v -0.12555952 0.07815465 -14.96614647 0.25098039 0.27450980 0.65882353
v -0.13024600 0.07349558 -14.96677589 0.25098039 0.27450980 0.65882353
v -0.13358122 0.07053111 -14.96488857 0.25098039 0.27450980 0.65882353
v -0.13093714 0.08536258 -14.95105362 0.25098039 0.27450980 0.65882353
v -0.13520998 0.08219066 -14.94864845 0.25098039 0.27450980 0.65882353
v -0.13903207 0.07697945 -14.94994831 0.25098039 0.27450980 0.65882353
v -0.12745409 0.07960458 -14.94656086 0.25098039 0.27450980 0.65882353
v -0.11955947 0.07315630 -14.94651508 0.25098039 0.27450980 0.65882353
v -0.11327365 0.05672424 -14.95226192 0.25098039 0.27450980 0.65882353
v -0.11718714 0.06063487 -14.95608521 0.25098039 0.27450980 0.65882353
v -0.11540917 0.06228873 -14.95442104 0.25098039 0.27450980 0.65882353
v -0.11152288 0.05875161 -14.95158005 0.25098039 0.27450980 0.65882353
v -0.11844687 0.06566322 -14.95773792 0.25098039 0.27450980 0.65882353
v -0.11740080 0.06570917 -14.95551205 0.25098039 0.27450980 0.65882353
v -0.11758539 0.06965535 -14.95212078 0.25098039 0.27450980 0.65882353
v -0.11370151 0.06651834 -14.94984627 0.25098039 0.27450980 0.65882353
v -0.11820512 0.07083623 -14.94734764 0.25098039 0.27450980 0.65882353
v -0.11665012 0.06848720 -14.94466209 0.25098039 0.27450980 0.65882353
v -0.11055070 0.06316551 -14.94717789 0.25098039 0.27450980 0.65882353
v -0.10859987 0.05801721 -14.94875908 0.25098039 0.27450980 0.65882353
v -0.10808642 0.05996381 -14.94475937 0.25098039 0.27450980 0.65882353
v -0.11023989 0.05539415 -14.94812679 0.25098039 0.27450980 0.65882353
v -0.11632939 0.07153019 -14.95304298 0.25098039 0.27450980 0.65882353
v -0.12414156 0.06658370 -14.96226597 0.25098039 0.27450980 0.65882353
v -0.12090814 0.05976020 -14.95734978 0.25098039 0.27450980 0.65882353
v -0.11684127 0.05526670 -14.95212841 0.25098039 0.27450980 0.65882353
v -0.11307307 0.05405224 -14.94717216 0.25098039 0.27450980 0.65882353
v -0.12526332 0.05898170 -14.95615864 0.25098039 0.27450980 0.65882353
v -0.12125747 0.05547145 -14.95075035 0.25098039 0.27450980 0.65882353
v -0.11807276 0.05479867 -14.94579697 0.25098039 0.27450980 0.65882353
v -0.12871309 0.05956265 -14.95289612 0.25098039 0.27450980 0.65882353
v -0.12409991 0.05676048 -14.94825554 0.25098039 0.27450980 0.65882353
v -0.13556817 0.06839544 -14.95913029 0.25098039 0.27450980 0.65882353
v -0.13060851 0.06686792 -14.96267033 0.25098039 0.27450980 0.65882353
v -0.12072529 0.05602953 -14.94539261 0.25098039 0.27450980 0.65882353
v -0.10804176 0.05803035 -14.94301605 0.25098039 0.27450980 0.65882353
v -0.11158697 0.05652734 -14.94181442 0.25098039 0.27450980 0.65882353
v -0.11910084 0.06981088 -14.94233894 0.25098039 0.27450980 0.65882353
v -0.11301391 0.06586808 -14.94201565 0.25098039 0.27450980 0.65882353
v -0.11557116 0.06566068 -14.93992233 0.25098039 0.27450980 0.65882353
v -0.12300090 0.07065298 -14.94103909 0.25098039 0.27450980 0.65882353
v -0.11824287 0.06513472 -14.93839931 0.25098039 0.27450980 0.65882353
v -0.11133371 0.06189654 -14.93968678 0.25098039 0.27450980 0.65882353
v -0.11010988 0.06299295 -14.94207668 0.25098039 0.27450980 0.65882353
v -0.13797574 0.07065855 -14.96063614 0.25098039 0.27450980 0.65882353
v -0.14020653 0.07332530 -14.95498085 0.25098039 0.27450980 0.65882353
v -0.13758594 0.07152715 -14.95342541 0.25098039 0.27450980 0.65882353
v -0.13101599 0.06304565 -14.94808006 0.25098039 0.27450980 0.65882353
v -0.13644287 0.07436812 -14.94810009 0.25098039 0.27450980 0.65882353
v -0.13190430 0.07773791 -14.94591141 0.25098039 0.27450980 0.65882353
v -0.12672049 0.06930293 -14.94085121 0.25098039 0.27450980 0.65882353
v -0.13009845 0.06660166 -14.94324493 0.25098039 0.27450980 0.65882353
v -0.12161720 0.06339347 -14.93891048 0.25098039 0.27450980 0.65882353
v -0.12377836 0.06177526 -14.94062996 0.25098039 0.27450980 0.65882353
v -0.12497538 0.05857217 -14.94432449 0.25098039 0.27450980 0.65882353
v -0.11790755 0.05973402 -14.93924809 0.25098039 0.27450980 0.65882353
v -0.11443125 0.06088553 -14.93846607 0.25098039 0.27450980 0.65882353
v -0.11653410 0.05651721 -14.94172001 0.25098039 0.27450980 0.65882353
v -0.12058432 0.05958178 -14.94065094 0.25098039 0.27450980 0.65882353
v -0.12022570 0.05739641 -14.94269085 0.25098039 0.27450980 0.65882353
v -0.22295879 0.05777781 -14.94007492 0.25098039 0.27450980 0.65882353
v -0.21644524 0.05798128 -14.93923283 0.25098039 0.27450980 0.65882353
v -0.21941312 0.06111698 -14.94459248 0.25098039 0.27450980 0.65882353
v -0.22227213 0.06730113 -14.95175457 0.25098039 0.27450980 0.65882353
v -0.23007095 0.07276301 -14.95763779 0.25098039 0.27450980 0.65882353
v -0.21588960 0.06945840 -14.95114803 0.25098039 0.27450980 0.65882353
v -0.21346918 0.06333154 -14.94354439 0.25098039 0.27450980 0.65882353
v -0.20992184 0.05863611 -14.93524361 0.25098039 0.27450980 0.65882353
v -0.21161276 0.07753408 -14.95597839 0.25098039 0.27450980 0.65882353
f 2 3 1
f 1 3 4
f 5 6 8
f 8 6 7
f 9 4 10
f 10 4 3
f 12 13 11
f 11 13 9
f 14 12 16
f 16 12 15
f 18 19 17
f 17 19 20
f 22 23 21
f 21 23 24
f 26 27 25
f 25 27 28
f 30 31 29
f 29 31 32
f 33 34 36
f 36 34 35
f 37 38 40
f 40 38 39
f 41 42 6
f 6 42 43
f 6 43 7
f 7 43 44
f 45 34 46
f 46 34 33
f 48 49 47
f 47 49 50
f 52 53 51
f 51 53 54
f 56 52 55
f 55 52 51
f 58 59 57
f 57 59 60
f 61 62 4
f 4 62 1
f 64 65 63
f 63 65 66
f 68 69 67
f 67 69 70
f 72 73 71
f 71 73 74
f 76 77 75
f 75 77 78
f 53 79 54
f 54 79 80
f 82 83 81
f 81 83 84
f 85 86 52
f 52 86 53
f 57 60 87
f 87 60 88
f 89 90 43
f 43 90 44
f 43 42 89
f 89 42 91
f 40 39 92
f 92 39 93
f 94 70 64
f 64 70 69
f 13 61 9
f 9 61 4
f 25 28 69
f 69 28 95
f 96 25 68
f 68 25 69
f 98 99 97
f 97 99 100
f 101 102 104
f 104 102 103
f 106 30 105
f 105 30 29
f 51 54 107
f 107 54 108
f 54 80 108
f 108 80 109
f 111 112 110
f 110 112 113
f 115 5 114
f 114 5 116
f 115 41 5
f 5 41 6
f 36 35 111
f 111 35 117
f 35 118 117
f 117 118 119
f 34 120 35
f 35 120 118
f 34 45 120
f 120 45 121
f 125 126 124
f 124 126 127
f 128 129 14
f 14 129 130
f 33 131 46
f 46 131 132
f 133 94 63
f 63 94 64
f 134 135 137
f 137 135 136
f 139 140 138
f 138 140 141
f 77 142 78
f 78 142 143
f 144 145 20
f 20 145 146
f 148 149 147
f 147 149 72
f 151 152 150
f 150 152 153
f 82 101 83
f 83 101 104
f 101 82 155
f 155 82 154
f 156 157 58
f 58 157 59
f 158 68 147
f 147 68 67
f 159 146 15
f 15 146 16
f 68 158 96
f 96 158 160
f 129 66 130
f 130 66 65
f 162 163 161
f 161 163 164
f 166 167 165
f 165 167 168
f 170 171 169
f 169 171 172
f 174 171 173
f 173 171 170
f 176 177 175
f 175 177 178
f 180 181 179
f 179 181 24
f 182 183 21
f 21 183 184
f 81 185 82
f 82 185 154
f 186 187 188
f 188 187 144
f 158 71 160
f 160 71 189
f 190 135 157
f 157 135 59
f 169 172 139
f 139 172 140
f 147 72 158
f 158 72 71
f 192 193 191
f 191 193 194
f 167 166 49
f 49 166 195
f 196 190 50
f 50 190 157
f 197 198 200
f 200 198 199
f 21 24 182
f 182 24 181
f 146 159 20
f 20 159 17
f 182 181 81
f 81 181 185
f 201 185 180
f 180 185 181
f 202 203 83
f 83 203 84
f 205 206 204
f 204 206 85
f 207 22 184
f 184 22 21
f 179 24 208
f 208 24 23
f 208 209 179
f 179 209 205
f 209 210 205
f 205 210 206
f 212 206 211
f 211 206 210
f 179 205 180
f 180 205 204
f 213 176 88
f 88 176 214
f 86 85 212
f 212 85 206
f 193 217 218
f 217 219 218
f 218 219 220
f 219 18 220
f 220 18 17
f 19 221 20
f 20 221 144
f 222 223 225
f 225 223 224
f 175 226 176
f 176 226 214
f 227 87 214
f 214 87 88
f 220 17 228
f 228 17 159
f 134 213 60
f 60 213 88
f 138 229 151
f 151 229 152
f 193 192 210
f 210 192 211
f 230 194 218
f 218 194 193
f 231 232 228
f 228 232 230
f 233 234 91
f 91 234 89
f 235 236 93
f 93 236 92
f 230 232 234
f 234 232 237
f 47 238 48
f 48 238 239
f 240 191 235
f 235 191 236
f 5 8 116
f 116 8 241
f 242 243 189
f 189 243 160
f 244 245 98
f 98 245 99
f 156 246 47
f 47 246 238
f 76 247 77
f 77 247 248
f 250 125 249
f 249 125 124
f 252 253 251
f 251 253 254
f 111 110 36
f 36 110 255
f 256 33 255
f 255 33 36
f 257 258 154
f 154 258 155
f 63 169 133
f 133 169 139
f 66 170 63
f 63 170 169
f 173 170 129
f 129 170 66
f 129 128 173
f 173 128 259
f 128 260 259
f 259 260 261
f 213 134 262
f 262 134 137
f 263 264 186
f 186 264 187
f 112 265 113
f 113 265 266
f 11 267 268
f 234 233 230
f 230 233 194
f 153 269 70
f 70 269 67
f 175 178 165
f 165 178 141
f 150 153 94
f 94 153 70
f 271 221 270
f 270 221 207
f 269 153 272
f 272 153 152
f 121 45 109
f 109 45 108
f 47 50 156
f 156 50 157
f 57 273 58
f 58 273 274
f 145 275 260
f 260 275 261
f 276 149 143
f 143 149 78
f 148 269 75
f 75 269 272
f 207 277 270
f 270 277 278
f 195 196 49
f 49 196 50
f 59 135 60
f 60 135 134
f 83 104 202
f 202 104 279
f 149 148 78
f 78 148 75
f 247 278 248
f 248 278 277
f 183 182 84
f 84 182 81
f 48 239 281
f 281 239 282
f 227 223 283
f 283 223 222
f 223 226 224
f 224 226 168
f 281 282 224
f 224 282 225
f 165 168 175
f 175 168 226
f 264 263 138
f 138 263 229
f 14 16 128
f 128 16 260
f 220 228 218
f 218 228 230
f 87 227 284
f 284 227 283
f 260 16 145
f 145 16 146
f 244 98 258
f 258 98 155
f 58 274 156
f 156 274 246
f 107 285 51
f 51 285 55
f 243 286 160
f 160 286 96
f 234 237 89
f 89 237 90
f 46 132 107
f 107 132 285
f 253 252 249
f 249 252 250
f 286 26 96
f 96 26 25
f 106 105 287
f 287 105 288
f 272 152 289
f 289 152 229
f 138 151 139
f 139 151 133
f 183 290 161
f 161 290 162
f 291 292 277
f 277 292 293
f 151 150 133
f 133 150 94
f 262 275 177
f 177 275 187
f 144 187 145
f 145 187 275
f 273 57 284
f 284 57 87
f 174 136 190
f 190 136 135
f 111 117 112
f 112 117 38
f 117 119 38
f 38 119 123
f 112 38 265
f 265 38 37
f 287 288 254
f 254 288 251
f 228 159 231
f 231 159 15
f 223 227 226
f 226 227 214
f 147 67 148
f 148 67 269
f 224 168 281
f 281 168 167
f 199 163 200
f 200 163 162
f 45 46 108
f 108 46 107
f 281 167 48
f 48 167 49
f 161 164 291
f 291 164 292
f 38 123 39
f 293 294 277
f 277 294 248
f 284 283 296
f 296 283 295
f 284 296 273
f 273 296 297
f 274 273 298
f 298 273 297
f 246 274 299
f 299 274 298
f 283 222 295
f 295 222 300
f 222 225 300
f 300 225 301
f 301 225 302
f 302 225 282
f 303 304 300
f 300 304 295
f 306 307 305
f 305 307 308
f 309 310 308
f 308 310 305
f 308 307 312
f 312 307 311
f 313 314 312
f 312 314 315
f 311 316 312
f 312 316 313
f 317 304 311
f 311 304 316
f 315 309 312
f 312 309 308
f 318 319 321
f 321 319 320
f 319 318 309
f 309 318 310
f 311 307 317
f 317 307 306
f 306 297 317
f 317 297 296
f 306 322 297
f 297 322 298
f 305 323 306
f 306 323 322
f 323 305 324
f 324 305 310
f 304 317 295
f 295 317 296
f 318 325 310
f 310 325 324
f 323 324 326
f 326 324 327
f 324 325 327
f 327 325 328
f 326 327 329
f 329 327 330
f 329 331 326
f 326 331 332
f 333 330 328
f 328 330 327
f 323 326 322
f 322 326 332
f 322 332 298
f 298 332 299
f 325 318 334
f 334 318 321
f 313 316 335
f 335 316 304
f 335 336 313
f 313 336 314
f 304 303 335
f 335 303 337
f 336 335 338
f 338 335 337
f 336 339 314
f 314 339 340
f 246 299 238
f 238 299 341
f 239 342 282
f 282 342 302
f 342 239 341
f 341 239 238
f 341 331 342
f 342 331 343
f 331 329 343
f 343 329 344
f 342 343 302
f 302 343 345
f 341 299 331
f 331 299 332
f 346 301 345
f 345 301 302
f 346 303 301
f 301 303 300
f 347 337 346
f 346 337 303
f 347 346 348
f 348 346 345
f 349 347 350
f 350 347 348
f 343 344 345
f 345 344 348
f 344 351 348
f 348 351 350
f 337 347 338
f 338 347 349
f 353 338 352
f 352 338 349
f 352 355 354
f 354 355 356
f 352 349 355
f 355 349 350
f 352 354 353
f 353 354 334
f 353 334 339
f 339 334 321
f 339 336 353
f 353 336 338
f 329 330 344
f 344 330 351
f 356 351 333
f 333 351 330
f 356 355 351
f 351 355 350
f 354 356 328
f 328 356 333
f 328 325 354
f 354 325 334
f 309 315 319
f 319 315 320
f 320 340 321
f 321 340 339
f 320 315 340
f 340 315 314
f 137 136 261
f 261 136 259
f 140 166 141
f 141 166 165
f 172 171 195
f 195 171 196
f 171 174 196
f 196 174 190
f 178 177 264
f 264 177 187
f 172 195 140
f 140 195 166
f 137 261 262
f 262 261 275
f 178 264 141
f 141 264 138
f 262 177 213
f 213 177 176
f 136 174 259
f 259 174 173
f 358 359 357
f 357 359 360
f 362 363 361
f 361 363 364
f 361 364 365
f 365 364 366
f 367 368 370
f 370 368 369
f 76 371 247
f 247 371 372
f 373 374 362
f 362 374 363
f 376 377 375
f 375 377 378
f 289 229 380
f 380 229 379
f 381 379 263
f 263 379 229
f 383 384 382
f 382 384 385
f 386 368 374
f 374 368 363
f 76 289 371
f 371 289 380
f 377 376 359
f 359 376 387
f 388 386 360
f 360 386 374
f 389 383 366
f 366 383 390
f 392 393 391
f 391 393 394
f 383 382 390
f 390 382 395
f 396 365 390
f 390 365 366
f 389 366 367
f 367 366 364
f 357 397 358
f 358 397 398
f 373 399 357
f 357 399 397
f 389 367 400
f 400 367 370
f 382 385 375
f 375 385 372
f 357 360 373
f 373 360 374
f 361 401 362
f 362 401 402
f 387 388 359
f 359 388 360
f 363 368 364
f 364 368 367
f 358 398 403
f 403 398 404
f 396 392 405
f 405 392 391
f 392 395 393
f 393 395 378
f 393 403 394
f 394 403 404
f 375 378 382
f 382 378 395
f 365 396 406
f 406 396 405
f 362 402 373
f 373 402 399
f 271 270 400
f 400 270 384
f 401 361 406
f 406 361 365
f 381 369 386
f 386 369 368
f 392 396 395
f 395 396 390
f 393 378 403
f 403 378 377
f 403 377 358
f 358 377 359
f 406 405 408
f 408 405 407
f 406 408 401
f 401 408 409
f 401 409 402
f 402 409 410
f 402 410 399
f 399 410 411
f 405 391 407
f 407 391 412
f 391 394 412
f 412 394 413
f 394 404 413
f 413 404 414
f 415 416 412
f 412 416 407
f 418 419 417
f 417 419 420
f 421 422 418
f 418 422 419
f 419 422 424
f 424 422 423
f 425 426 424
f 424 426 427
f 423 428 424
f 424 428 425
f 427 420 424
f 424 420 419
f 420 429 417
f 417 429 430
f 423 422 431
f 431 422 421
f 421 409 431
f 431 409 408
f 421 432 409
f 409 432 410
f 418 433 421
f 421 433 432
f 434 433 417
f 417 433 418
f 431 416 423
f 423 416 428
f 416 431 407
f 407 431 408
f 435 434 430
f 430 434 417
f 433 434 436
f 436 434 437
f 434 435 437
f 437 435 438
f 436 437 439
f 439 437 440
f 439 441 436
f 436 441 442
f 438 443 437
f 437 443 440
f 436 442 433
f 433 442 432
f 432 442 410
f 410 442 411
f 435 430 445
f 445 430 444
f 430 429 444
f 444 429 446
f 425 428 447
f 447 428 416
f 426 425 448
f 448 425 447
f 416 415 447
f 447 415 449
f 447 449 448
f 448 449 450
f 451 452 448
f 448 452 426
f 446 452 444
f 444 452 451
f 399 411 397
f 397 411 453
f 398 454 404
f 404 454 414
f 454 398 453
f 453 398 397
f 453 441 454
f 454 441 455
f 441 439 455
f 455 439 456
f 454 455 414
f 414 455 457
f 441 453 442
f 442 453 411
f 458 413 457
f 457 413 414
f 458 415 413
f 413 415 412
f 458 459 415
f 415 459 449
f 459 458 460
f 460 458 457
f 461 459 462
f 462 459 460
f 455 456 457
f 457 456 460
f 456 463 460
f 460 463 462
f 459 461 449
f 449 461 450
f 465 450 464
f 464 450 461
f 464 467 466
f 466 467 468
f 464 461 467
f 467 461 462
f 464 466 465
f 465 466 445
f 465 445 451
f 451 445 444
f 451 448 465
f 465 448 450
f 439 440 456
f 456 440 463
f 468 463 443
f 443 463 440
f 468 467 463
f 463 467 462
f 466 468 438
f 438 468 443
f 438 435 466
f 466 435 445
f 420 427 429
f 429 427 446
f 446 427 452
f 452 427 426
f 370 369 188
f 188 369 186
f 371 376 372
f 372 376 375
f 380 379 387
f 387 379 388
f 379 381 388
f 388 381 386
f 385 384 278
f 278 384 270
f 380 387 371
f 371 387 376
f 400 370 271
f 271 370 188
f 385 278 372
f 372 278 247
f 400 384 389
f 389 384 383
f 369 381 186
f 186 381 263
f 221 271 144
f 144 271 188
f 221 19 207
f 207 19 22
f 19 18 22
f 22 18 23
f 18 219 23
f 23 219 208
f 469 470 472
f 472 470 471
f 474 475 473
f 473 475 476
f 473 476 477
f 477 476 478
f 480 481 479
f 479 481 482
f 483 484 474
f 474 484 475
f 486 487 485
f 485 487 488
f 489 490 77
f 77 490 142
f 491 489 248
f 248 489 77
f 493 494 492
f 492 494 495
f 496 480 484
f 484 480 475
f 486 497 487
f 487 497 471
f 498 496 472
f 472 496 484
f 499 493 478
f 478 493 500
f 501 502 504
f 504 502 503
f 493 492 500
f 500 492 505
f 506 477 500
f 500 477 478
f 499 478 479
f 479 478 476
f 469 507 470
f 470 507 508
f 483 509 469
f 469 509 507
f 479 482 499
f 499 482 510
f 492 495 485
f 485 495 511
f 483 469 484
f 484 469 472
f 473 512 474
f 474 512 513
f 497 498 471
f 471 498 472
f 475 480 476
f 476 480 479
f 470 508 514
f 514 508 515
f 506 502 516
f 516 502 501
f 503 502 488
f 488 502 505
f 514 515 503
f 503 515 504
f 485 488 492
f 492 488 505
f 477 506 517
f 517 506 516
f 474 513 483
f 483 513 509
f 510 292 494
f 494 292 164
f 512 473 517
f 517 473 477
f 491 481 496
f 496 481 480
f 502 506 505
f 505 506 500
f 503 488 514
f 514 488 487
f 514 487 470
f 470 487 471
f 517 516 519
f 519 516 518
f 517 519 512
f 512 519 520
f 512 520 513
f 513 520 521
f 513 521 509
f 509 521 522
f 516 501 518
f 518 501 523
f 501 504 523
f 523 504 524
f 524 504 525
f 525 504 515
f 526 527 523
f 523 527 518
f 529 530 528
f 528 530 531
f 532 533 529
f 529 533 530
f 530 533 535
f 535 533 534
f 536 537 535
f 535 537 538
f 534 539 535
f 535 539 536
f 538 531 535
f 535 531 530
f 540 541 531
f 531 541 528
f 533 532 534
f 534 532 542
f 532 520 542
f 542 520 519
f 532 543 520
f 520 543 521
f 529 544 532
f 532 544 543
f 544 529 545
f 545 529 528
f 534 542 539
f 539 542 527
f 527 542 518
f 518 542 519
f 541 546 528
f 528 546 545
f 547 544 548
f 548 544 545
f 546 549 545
f 545 549 548
f 550 547 551
f 551 547 548
f 547 550 553
f 553 550 552
f 549 554 548
f 548 554 551
f 544 547 543
f 543 547 553
f 543 553 521
f 521 553 522
f 546 541 556
f 556 541 555
f 541 540 555
f 555 540 557
f 536 539 558
f 558 539 527
f 537 536 559
f 559 536 558
f 527 526 558
f 558 526 560
f 559 558 561
f 561 558 560
f 559 562 537
f 537 562 563
f 557 563 555
f 555 563 562
f 509 522 507
f 507 522 564
f 508 565 515
f 515 565 525
f 565 508 564
f 564 508 507
f 564 552 565
f 565 552 566
f 552 550 566
f 566 550 567
f 565 566 525
f 525 566 568
f 564 522 552
f 552 522 553
f 569 524 568
f 568 524 525
f 569 526 524
f 524 526 523
f 570 560 569
f 569 560 526
f 570 569 571
f 571 569 568
f 572 570 573
f 573 570 571
f 566 567 568
f 568 567 571
f 567 574 571
f 571 574 573
f 570 572 560
f 560 572 561
f 576 561 575
f 575 561 572
f 575 578 577
f 577 578 579
f 575 572 578
f 578 572 573
f 575 577 576
f 576 577 556
f 576 556 562
f 562 556 555
f 562 559 576
f 576 559 561
f 550 551 567
f 567 551 574
f 579 574 554
f 554 574 551
f 579 578 574
f 574 578 573
f 579 554 577
f 577 554 549
f 549 546 577
f 577 546 556
f 531 538 540
f 540 538 557
f 557 538 563
f 563 538 537
f 481 294 482
f 482 294 293
f 580 486 511
f 511 486 485
f 490 489 497
f 497 489 498
f 489 491 498
f 498 491 496
f 163 495 164
f 164 495 494
f 580 490 486
f 486 490 497
f 482 293 510
f 510 293 292
f 495 163 511
f 511 163 199
f 494 493 510
f 510 493 499
f 481 491 294
f 294 491 248
f 582 583 581
f 581 583 584
f 586 587 585
f 585 587 588
f 585 588 589
f 589 588 590
f 592 593 591
f 591 593 594
f 595 596 598
f 598 596 597
f 599 600 586
f 586 600 587
f 601 602 604
f 604 602 603
f 605 606 608
f 608 606 607
f 609 607 200
f 200 607 606
f 610 611 613
f 613 611 612
f 600 614 587
f 587 614 592
f 596 605 597
f 597 605 608
f 602 615 603
f 603 615 583
f 616 614 584
f 584 614 600
f 611 618 617
f 617 618 590
f 620 621 619
f 619 621 622
f 610 623 611
f 611 623 618
f 624 589 618
f 618 589 590
f 617 590 591
f 591 590 588
f 581 625 582
f 582 625 626
f 599 627 581
f 581 627 625
f 591 594 617
f 617 594 628
f 601 610 598
f 598 610 613
f 581 584 599
f 599 584 600
f 585 629 586
f 586 629 630
f 615 616 583
f 583 616 584
f 587 592 588
f 588 592 591
f 582 626 631
f 631 626 632
f 624 620 633
f 633 620 619
f 621 620 604
f 604 620 623
f 631 632 621
f 621 632 622
f 610 601 623
f 623 601 604
f 589 624 634
f 634 624 633
f 586 630 599
f 599 630 627
f 203 202 628
f 628 202 612
f 629 585 634
f 634 585 589
f 609 593 614
f 614 593 592
f 620 624 623
f 623 624 618
f 631 621 603
f 603 621 604
f 582 631 583
f 583 631 603
f 634 633 636
f 636 633 635
f 634 636 629
f 629 636 637
f 629 637 630
f 630 637 638
f 630 638 627
f 627 638 639
f 633 619 635
f 635 619 640
f 619 622 640
f 640 622 641
f 641 622 642
f 642 622 632
f 644 635 643
f 643 635 640
f 645 646 648
f 648 646 647
f 649 650 646
f 646 650 647
f 647 650 652
f 652 650 651
f 652 653 655
f 655 653 654
f 651 656 652
f 652 656 653
f 655 648 652
f 652 648 647
f 648 657 645
f 645 657 658
f 650 649 651
f 651 649 659
f 649 637 659
f 659 637 636
f 649 660 637
f 637 660 638
f 661 660 646
f 646 660 649
f 662 661 645
f 645 661 646
f 651 659 656
f 656 659 644
f 644 659 635
f 635 659 636
f 663 662 658
f 658 662 645
f 664 661 665
f 665 661 662
f 663 666 662
f 662 666 665
f 667 664 668
f 668 664 665
f 664 667 670
f 670 667 669
f 666 671 665
f 665 671 668
f 661 664 660
f 660 664 670
f 660 670 638
f 638 670 639
f 658 672 663
f 663 672 673
f 658 657 672
f 672 657 674
f 653 656 675
f 675 656 644
f 653 675 654
f 654 675 676
f 675 644 677
f 677 644 643
f 676 675 678
f 678 675 677
f 679 680 676
f 676 680 654
f 674 680 672
f 672 680 679
f 627 639 625
f 625 639 681
f 626 682 632
f 632 682 642
f 681 682 625
f 625 682 626
f 669 683 681
f 681 683 682
f 667 684 669
f 669 684 683
f 682 683 642
f 642 683 685
f 681 639 669
f 669 639 670
f 686 641 685
f 685 641 642
f 641 686 640
f 640 686 643
f 686 687 643
f 643 687 677
f 687 686 688
f 688 686 685
f 689 687 690
f 690 687 688
f 683 684 685
f 685 684 688
f 684 691 688
f 688 691 690
f 687 689 677
f 677 689 678
f 693 678 692
f 692 678 689
f 692 695 694
f 694 695 696
f 692 689 695
f 695 689 690
f 692 694 693
f 693 694 673
f 693 673 679
f 679 673 672
f 679 676 693
f 693 676 678
f 684 667 691
f 691 667 668
f 696 691 671
f 671 691 668
f 696 695 691
f 691 695 690
f 694 696 666
f 666 696 671
f 666 663 694
f 694 663 673
f 648 655 657
f 657 655 674
f 674 655 680
f 680 655 654
f 593 162 594
f 594 162 290
f 598 597 601
f 601 597 602
f 615 608 616
f 616 608 607
f 607 609 616
f 616 609 614
f 697 595 613
f 613 595 598
f 597 608 602
f 602 608 615
f 594 290 628
f 628 290 203
f 628 612 617
f 617 612 611
f 593 609 162
f 162 609 200
f 105 29 698
f 698 29 699
f 268 126 701
f 701 126 700
f 126 125 700
f 700 125 702
f 252 703 250
f 250 703 704
f 32 268 705
f 705 268 701
f 288 105 706
f 706 105 698
f 29 32 699
f 699 32 705
f 707 251 706
f 706 251 288
f 250 704 125
f 125 704 702
f 703 252 707
f 707 252 251
f 706 708 707
f 707 708 709
f 707 709 703
f 703 709 710
f 703 710 704
f 704 710 711
f 704 711 702
f 702 711 712
f 706 698 708
f 708 698 713
f 698 699 713
f 713 699 714
f 699 705 714
f 714 705 715
f 717 708 716
f 716 708 713
f 719 720 718
f 718 720 721
f 722 723 719
f 719 723 720
f 724 725 723
f 723 725 720
f 724 726 725
f 725 726 727
f 728 721 725
f 725 721 720
f 721 728 729
f 729 728 730
f 729 731 721
f 721 731 718
f 724 723 732
f 732 723 722
f 722 710 732
f 732 710 709
f 722 733 710
f 710 733 711
f 719 734 722
f 722 734 733
f 734 719 735
f 735 719 718
f 724 732 726
f 726 732 717
f 717 732 708
f 708 732 709
f 731 736 718
f 718 736 735
f 737 734 738
f 738 734 735
f 736 739 735
f 735 739 738
f 740 737 741
f 741 737 738
f 737 740 743
f 743 740 742
f 739 744 738
f 738 744 741
f 734 737 733
f 733 737 743
f 733 743 711
f 711 743 712
f 736 731 746
f 746 731 745
f 731 729 745
f 745 729 730
f 727 726 747
f 747 726 717
f 748 727 749
f 749 727 747
f 747 717 750
f 750 717 716
f 749 747 751
f 751 747 750
f 749 752 748
f 748 752 753
f 730 753 745
f 745 753 752
f 728 725 748
f 748 725 727
f 730 728 753
f 753 728 748
f 700 702 754
f 754 702 712
f 705 701 715
f 715 701 755
f 754 755 700
f 700 755 701
f 742 756 754
f 754 756 755
f 740 757 742
f 742 757 756
f 755 756 715
f 715 756 758
f 754 712 742
f 742 712 743
f 759 714 758
f 758 714 715
f 714 759 713
f 713 759 716
f 759 760 716
f 716 760 750
f 760 759 761
f 761 759 758
f 762 760 763
f 763 760 761
f 756 757 758
f 758 757 761
f 757 764 761
f 761 764 763
f 760 762 750
f 750 762 751
f 766 751 765
f 765 751 762
f 767 765 769
f 769 765 768
f 765 762 768
f 768 762 763
f 765 767 766
f 766 767 746
f 766 746 752
f 752 746 745
f 752 749 766
f 766 749 751
f 757 740 764
f 764 740 741
f 769 764 744
f 744 764 741
f 769 768 764
f 764 768 763
f 767 769 739
f 739 769 744
f 739 736 767
f 767 736 746
f 219 217 208
f 208 217 209
f 209 217 210
f 210 217 193
f 198 580 199
f 199 580 511
f 76 75 289
f 289 75 272
f 277 207 291
f 291 207 184
f 290 183 203
f 203 183 84
f 490 580 142
f 142 580 198
f 142 198 143
f 143 198 197
f 149 276 72
f 72 276 73
f 104 103 279
f 279 103 770
f 770 596 279
f 279 596 595
f 605 596 771
f 771 596 770
f 771 770 772
f 772 770 103
f 772 103 773
f 773 103 102
f 155 774 101
f 101 774 102
f 773 102 97
f 97 102 774
f 775 773 100
f 100 773 97
f 773 775 772
f 772 775 776
f 772 776 771
f 771 776 777
f 200 606 197
f 197 606 777
f 189 71 778
f 778 71 74
f 97 774 98
f 98 774 155
f 183 161 184
f 184 161 291
f 777 276 197
f 197 276 143
f 777 606 771
f 771 606 605
f 613 612 697
f 697 612 202
f 595 697 279
f 279 697 202
f 73 276 776
f 776 276 777
f 776 775 73
f 73 775 74
f 100 778 775
f 775 778 74
f 778 100 189
f 189 100 99
f 245 242 99
f 99 242 189
f 131 33 256
f 28 1 95
f 95 1 62
f 27 2 28
f 28 2 1
f 265 115 266
f 266 115 114
f 95 62 69
f 69 62 64
f 62 61 64
f 64 61 65
f 61 13 65
f 65 13 130
f 13 12 130
f 130 12 14
f 31 11 32
f 32 11 268
f 15 12 31
f 31 12 11
f 31 30 15
f 15 30 231
f 30 106 231
f 231 106 232
f 287 237 106
f 106 237 232
f 254 90 287
f 287 90 237
f 253 44 254
f 254 44 90
f 253 249 44
f 44 249 7
f 267 127 268
f 268 127 126
f 10 3 241
f 241 3 116
f 3 2 116
f 116 2 114
f 2 27 114
f 114 27 266
f 27 26 266
f 266 26 113
f 26 286 113
f 113 286 110
f 286 243 110
f 110 243 255
f 243 242 255
f 255 242 256
f 242 245 256
f 256 245 131
f 245 244 131
f 131 244 132
f 265 37 115
f 115 37 41
f 41 37 42
f 42 37 40
f 92 91 40
f 40 91 42
f 236 233 92
f 92 233 91
f 191 194 236
f 236 194 233
f 258 285 244
f 244 285 132
f 257 55 258
f 258 55 285
f 257 154 201
f 201 154 185
f 56 201 204
f 204 201 180
f 55 257 56
f 56 257 201
f 204 85 56
f 56 85 52
f 86 122 53
f 53 122 79
f 212 215 86
f 86 215 122
f 211 216 212
f 212 216 215
f 192 280 211
f 211 280 216
f 191 240 192
f 192 240 280
f 249 124 7
f 7 124 8
f 124 127 8
f 8 127 241
f 127 267 241
f 241 267 10
f 10 267 9
f 9 267 11
f 93 39 235
f 235 39 240
f 39 123 240
f 240 123 280
f 123 119 280
f 280 119 216
f 119 118 216
f 216 118 215
f 118 120 215
f 215 120 122
f 120 121 122
f 122 121 79
f 121 109 79
f 79 109 80

