# https://github.com/mikedh/trimesh
v -0.11004423 0.17200802 -13.72752953 0.25098039 0.27450980 0.65882353
v -0.11799654 0.17605738 -13.73286247 0.25098039 0.27450980 0.65882353
v -0.11134824 0.17183384 -13.74140072 0.25098039 0.27450980 0.65882353
v -0.10282987 0.16791381 -13.73393726 0.25098039 0.27450980 0.65882353
v -0.12829225 0.18483716 -13.75206947 0.25098039 0.27450980 0.65882353
v -0.12669730 0.19600438 -13.75810242 0.25098039 0.27450980 0.65882353
v -0.11665517 0.18610762 -13.76504135 0.25098039 0.27450980 0.65882353
v -0.12030754 0.17839134 -13.75957012 0.25098039 0.27450980 0.65882353
v -0.09627117 0.16667071 -13.73833847 0.25098039 0.27450980 0.65882353
v -0.10619000 0.16788989 -13.74739933 0.25098039 0.27450980 0.65882353
v -0.09251623 0.17112781 -13.74108315 0.25098039 0.27450980 0.65882353
v -0.08222109 0.17299068 -13.72752285 0.25098039 0.27450980 0.65882353
v -0.08751445 0.16835231 -13.72843170 0.25098039 0.27450980 0.65882353
v -0.07732259 0.17115077 -13.71897316 0.25098039 0.27450980 0.65882353
v -0.08260067 0.18286696 -13.72367096 0.25098039 0.27450980 0.65882353
v -0.07837935 0.17509970 -13.71006870 0.25098039 0.27450980 0.65882353
v -0.10133114 0.18729815 -13.69670200 0.25098039 0.27450980 0.65882353
v -0.11260213 0.18527876 -13.69014740 0.25098039 0.27450980 0.65882353
v -0.10453352 0.17323565 -13.68466759 0.25098039 0.27450980 0.65882353
v -0.09395535 0.17617926 -13.69246006 0.25098039 0.27450980 0.65882353
v -0.12425350 0.17086443 -13.68185902 0.25098039 0.27450980 0.65882353
v -0.11298835 0.17157237 -13.68274212 0.25098039 0.27450980 0.65882353
v -0.12079358 0.18442360 -13.68748856 0.25098039 0.27450980 0.65882353
v -0.13065247 0.18332404 -13.68632698 0.25098039 0.27450980 0.65882353
v -0.12439359 0.17573889 -13.71922874 0.25098039 0.27450980 0.65882353
v -0.13226134 0.18082541 -13.72310925 0.25098039 0.27450980 0.65882353
v -0.12666526 0.17993361 -13.72490692 0.25098039 0.27450980 0.65882353
v -0.11930146 0.17569637 -13.72178173 0.25098039 0.27450980 0.65882353
v -0.09036359 0.17673482 -13.75458336 0.25098039 0.27450980 0.65882353
v -0.08947870 0.18637140 -13.74452400 0.25098039 0.27450980 0.65882353
v -0.08858386 0.17900993 -13.74146271 0.25098039 0.27450980 0.65882353
v -0.09336102 0.17221321 -13.75380993 0.25098039 0.27450980 0.65882353
v -0.15645051 0.19317681 -13.73128128 0.25098039 0.27450980 0.65882353
v -0.16035047 0.20649619 -13.73187828 0.25098039 0.27450980 0.65882353
v -0.15544674 0.20843519 -13.73429966 0.25098039 0.27450980 0.65882353
v -0.15310389 0.19589862 -13.73278713 0.25098039 0.27450980 0.65882353
v -0.13891813 0.20674671 -13.74789429 0.25098039 0.27450980 0.65882353
v -0.14225215 0.21499373 -13.74378777 0.25098039 0.27450980 0.65882353
v -0.13451639 0.22698170 -13.74371147 0.25098039 0.27450980 0.65882353
v -0.12871397 0.22012180 -13.74670124 0.25098039 0.27450980 0.65882353
v -0.13313009 0.20025657 -13.75306225 0.25098039 0.27450980 0.65882353
v -0.12532130 0.21166986 -13.75334835 0.25098039 0.27450980 0.65882353
v -0.11966459 0.20531183 -13.75892830 0.25098039 0.27450980 0.65882353
v -0.11079553 0.19307156 -13.76682854 0.25098039 0.27450980 0.65882353
v -0.16947231 0.20376016 -13.72352505 0.25098039 0.27450980 0.65882353
v -0.16865586 0.19386953 -13.72197342 0.25098039 0.27450980 0.65882353
v -0.05315693 0.13067365 -13.71020699 0.25098039 0.27450980 0.65882353
v -0.05722745 0.12745148 -13.70763779 0.25098039 0.27450980 0.65882353
v -0.05920488 0.13111363 -13.70773506 0.25098039 0.27450980 0.65882353
v -0.05489616 0.13383414 -13.70987892 0.25098039 0.27450980 0.65882353
v -0.16971716 0.20258911 -13.70359039 0.25098039 0.27450980 0.65882353
v -0.16446632 0.20734447 -13.69625759 0.25098039 0.27450980 0.65882353
v -0.16897252 0.21159555 -13.69893360 0.25098039 0.27450980 0.65882353
v -0.17240018 0.20842983 -13.70674706 0.25098039 0.27450980 0.65882353
v -0.16575643 0.19484118 -13.69914150 0.25098039 0.27450980 0.65882353
v -0.15811898 0.20099792 -13.69302273 0.25098039 0.27450980 0.65882353
v -0.04404801 0.13203374 -13.70183659 0.25098039 0.27450980 0.65882353
v -0.04545532 0.13239303 -13.70669365 0.25098039 0.27450980 0.65882353
v -0.04701951 0.13683444 -13.70502472 0.25098039 0.27450980 0.65882353
v -0.04628631 0.13688771 -13.69975567 0.25098039 0.27450980 0.65882353
v -0.09468628 0.16657671 -13.72710133 0.25098039 0.27450980 0.65882353
v -0.10332707 0.16690280 -13.72357178 0.25098039 0.27450980 0.65882353
v -0.08368538 0.15425475 -13.71685410 0.25098039 0.27450980 0.65882353
v -0.09212840 0.15988326 -13.71838284 0.25098039 0.27450980 0.65882353
v -0.08701327 0.16355316 -13.72195816 0.25098039 0.27450980 0.65882353
v -0.08003998 0.15967342 -13.71918964 0.25098039 0.27450980 0.65882353
v -0.11324197 0.15854374 -13.70828533 0.25098039 0.27450980 0.65882353
v -0.11998884 0.16723907 -13.71281528 0.25098039 0.27450980 0.65882353
v -0.11376874 0.16800302 -13.71493435 0.25098039 0.27450980 0.65882353
v -0.10539380 0.15815689 -13.71156979 0.25098039 0.27450980 0.65882353
v -0.13262106 0.16292405 -13.70896339 0.25098039 0.27450980 0.65882353
v -0.12499195 0.15498468 -13.70476246 0.25098039 0.27450980 0.65882353
v -0.13328147 0.15357599 -13.70327091 0.25098039 0.27450980 0.65882353
v -0.13759899 0.15900692 -13.70714474 0.25098039 0.27450980 0.65882353
v -0.10859410 0.14225464 -13.69709587 0.25098039 0.27450980 0.65882353
v -0.10244836 0.13849664 -13.69154453 0.25098039 0.27450980 0.65882353
v -0.10470375 0.13743263 -13.68962669 0.25098039 0.27450980 0.65882353
v -0.11157115 0.14180703 -13.69580841 0.25098039 0.27450980 0.65882353
v -0.17257372 0.21670552 -13.70043755 0.25098039 0.27450980 0.65882353
v -0.17369995 0.21446714 -13.70933437 0.25098039 0.27450980 0.65882353
v -0.14401565 0.16634089 -13.68142414 0.25098039 0.27450980 0.65882353
v -0.15354623 0.16453473 -13.68651485 0.25098039 0.27450980 0.65882353
v -0.14944291 0.15329500 -13.68201160 0.25098039 0.27450980 0.65882353
v -0.14101648 0.15819815 -13.67801189 0.25098039 0.27450980 0.65882353
v -0.15558110 0.21140605 -13.69310474 0.25098039 0.27450980 0.65882353
v -0.16124658 0.21560062 -13.69401932 0.25098039 0.27450980 0.65882353
v -0.04554437 0.12987085 -13.69645691 0.25098039 0.27450980 0.65882353
v -0.04771516 0.13459754 -13.69443703 0.25098039 0.27450980 0.65882353
v -0.11144018 0.21184674 -13.75068760 0.25098039 0.27450980 0.65882353
v -0.10301363 0.19761202 -13.76239681 0.25098039 0.27450980 0.65882353
v -0.11858569 0.22095393 -13.74307442 0.25098039 0.27450980 0.65882353
v -0.12318392 0.22728625 -13.73772526 0.25098039 0.27450980 0.65882353
v -0.12741932 0.23342180 -13.73592854 0.25098039 0.27450980 0.65882353
v -0.09423755 0.15474232 -13.71391582 0.25098039 0.27450980 0.65882353
v -0.11151221 0.17025530 -13.72011566 0.25098039 0.27450980 0.65882353
v -0.12904984 0.17460151 -13.71710014 0.25098039 0.27450980 0.65882353
v -0.15520039 0.16224061 -13.70763683 0.25098039 0.27450980 0.65882353
v -0.16109687 0.17046277 -13.71180344 0.25098039 0.27450980 0.65882353
v -0.15074435 0.16970819 -13.71553135 0.25098039 0.27450980 0.65882353
v -0.14769375 0.16277620 -13.71058941 0.25098039 0.27450980 0.65882353
v -0.15718666 0.15897894 -13.69271946 0.25098039 0.27450980 0.65882353
v -0.15396458 0.15520188 -13.69857788 0.25098039 0.27450980 0.65882353
v -0.14927921 0.14788465 -13.69547558 0.25098039 0.27450980 0.65882353
v -0.15222821 0.15051711 -13.68930054 0.25098039 0.27450980 0.65882353
v -0.08886352 0.18111211 -13.75988960 0.25098039 0.27450980 0.65882353
v -0.09047431 0.19214636 -13.74774647 0.25098039 0.27450980 0.65882353
v -0.17184183 0.19842690 -13.71276093 0.25098039 0.27450980 0.65882353
v -0.17246597 0.20516610 -13.71633434 0.25098039 0.27450980 0.65882353
v -0.17336959 0.21376240 -13.71655369 0.25098039 0.27450980 0.65882353
v -0.14402160 0.18671969 -13.72799587 0.25098039 0.27450980 0.65882353
v -0.15092617 0.19770060 -13.73391342 0.25098039 0.27450980 0.65882353
v -0.14797844 0.19759609 -13.73625946 0.25098039 0.27450980 0.65882353
v -0.14122874 0.18656626 -13.72852421 0.25098039 0.27450980 0.65882353
v -0.12841117 0.18049079 -13.73809052 0.25098039 0.27450980 0.65882353
v -0.13647205 0.19008228 -13.74395847 0.25098039 0.27450980 0.65882353
v -0.12211144 0.17541873 -13.74697304 0.25098039 0.27450980 0.65882353
v -0.15013331 0.21233158 -13.73832893 0.25098039 0.27450980 0.65882353
v -0.15881225 0.21801503 -13.73605061 0.25098039 0.27450980 0.65882353
v -0.15178424 0.22155619 -13.73968601 0.25098039 0.27450980 0.65882353
v -0.16591212 0.21570662 -13.73012447 0.25098039 0.27450980 0.65882353
v -0.17075917 0.21387744 -13.72314548 0.25098039 0.27450980 0.65882353
v -0.16550064 0.22136125 -13.69228840 0.25098039 0.27450980 0.65882353
v -0.14448573 0.22476974 -13.74206924 0.25098039 0.27450980 0.65882353
v -0.11372490 0.17334473 -13.76396370 0.25098039 0.27450980 0.65882353
v -0.10796604 0.16826457 -13.76701450 0.25098039 0.27450980 0.65882353
v -0.10544851 0.16576296 -13.76048470 0.25098039 0.27450980 0.65882353
v -0.11080176 0.16947231 -13.75705719 0.25098039 0.27450980 0.65882353
v -0.07182431 0.16678539 -13.71216965 0.25098039 0.27450980 0.65882353
v -0.07509379 0.16278556 -13.71746635 0.25098039 0.27450980 0.65882353
v -0.08130442 0.16783015 -13.72361755 0.25098039 0.27450980 0.65882353
v -0.15509462 0.18387847 -13.72519016 0.25098039 0.27450980 0.65882353
v -0.16625619 0.18450056 -13.71749496 0.25098039 0.27450980 0.65882353
v -0.08481574 0.14945908 -13.71185589 0.25098039 0.27450980 0.65882353
v -0.04951581 0.14156312 -13.69949627 0.25098039 0.27450980 0.65882353
v -0.05007327 0.14150450 -13.70520687 0.25098039 0.27450980 0.65882353
v -0.06239878 0.15556824 -13.70851803 0.25098039 0.27450980 0.65882353
v -0.06152204 0.15594301 -13.70163631 0.25098039 0.27450980 0.65882353
v -0.07901584 0.14537460 -13.70189953 0.25098039 0.27450980 0.65882353
v -0.08029988 0.14616287 -13.70863628 0.25098039 0.27450980 0.65882353
v -0.07752986 0.14511380 -13.70638943 0.25098039 0.27450980 0.65882353
v -0.07668437 0.14196172 -13.70062256 0.25098039 0.27450980 0.65882353
v -0.11370791 0.13700414 -13.69035244 0.25098039 0.27450980 0.65882353
v -0.11966582 0.14111423 -13.69514370 0.25098039 0.27450980 0.65882353
v -0.08698554 0.16213104 -13.68937397 0.25098039 0.27450980 0.65882353
v -0.07813491 0.17019245 -13.69551849 0.25098039 0.27450980 0.65882353
v -0.08479635 0.17829344 -13.69991112 0.25098039 0.27450980 0.65882353
v -0.12024450 0.15736981 -13.70627403 0.25098039 0.27450980 0.65882353
v -0.11465849 0.14901599 -13.70195961 0.25098039 0.27450980 0.65882353
v -0.11823901 0.14800555 -13.70050621 0.25098039 0.27450980 0.65882353
v -0.09402111 0.15132259 -13.71017361 0.25098039 0.27450980 0.65882353
v -0.08672455 0.14676765 -13.70679092 0.25098039 0.27450980 0.65882353
v -0.09281434 0.14753959 -13.70551586 0.25098039 0.27450980 0.65882353
v -0.09914617 0.15199265 -13.70782471 0.25098039 0.27450980 0.65882353
v -0.15857281 0.17619750 -13.68985558 0.25098039 0.27450980 0.65882353
v -0.16317329 0.16978191 -13.69682693 0.25098039 0.27450980 0.65882353
v -0.04882084 0.13214499 -13.70981026 0.25098039 0.27450980 0.65882353
v -0.05037048 0.13600482 -13.70879173 0.25098039 0.27450980 0.65882353
v -0.12654229 0.16596678 -13.71037960 0.25098039 0.27450980 0.65882353
v -0.09231761 0.18754032 -13.70550632 0.25098039 0.27450980 0.65882353
v -0.13381375 0.17304964 -13.71561432 0.25098039 0.27450980 0.65882353
v -0.12455153 0.14965449 -13.67649841 0.25098039 0.27450980 0.65882353
v -0.12719324 0.14347106 -13.68078136 0.25098039 0.27450980 0.65882353
v -0.12258851 0.13941678 -13.67900276 0.25098039 0.27450980 0.65882353
v -0.12051797 0.14303261 -13.67406464 0.25098039 0.27450980 0.65882353
v -0.06581770 0.13107854 -13.69777393 0.25098039 0.27450980 0.65882353
v -0.06566490 0.13084924 -13.70344830 0.25098039 0.27450980 0.65882353
v -0.06201309 0.12834710 -13.70278358 0.25098039 0.27450980 0.65882353
v -0.06172164 0.12778777 -13.69704437 0.25098039 0.27450980 0.65882353
v -0.07849523 0.14934066 -13.71319962 0.25098039 0.27450980 0.65882353
v -0.07517785 0.15443127 -13.71595097 0.25098039 0.27450980 0.65882353
v -0.07142092 0.14938940 -13.71384811 0.25098039 0.27450980 0.65882353
v -0.07481074 0.14647326 -13.71024227 0.25098039 0.27450980 0.65882353
v -0.07014064 0.15789074 -13.71402168 0.25098039 0.27450980 0.65882353
v -0.06641360 0.15327102 -13.71313667 0.25098039 0.27450980 0.65882353
v -0.06238551 0.13346744 -13.69278526 0.25098039 0.27450980 0.65882353
v -0.05617298 0.13724971 -13.69106674 0.25098039 0.27450980 0.65882353
v -0.06844601 0.14949040 -13.69220066 0.25098039 0.27450980 0.65882353
v -0.07235871 0.14320567 -13.69472313 0.25098039 0.27450980 0.65882353
v -0.13595703 0.19605985 -13.68995953 0.25098039 0.27450980 0.65882353
v -0.14620826 0.19298276 -13.68840504 0.25098039 0.27450980 0.65882353
v -0.14076434 0.18012433 -13.68497658 0.25098039 0.27450980 0.65882353
v -0.13568512 0.16798967 -13.68092060 0.25098039 0.27450980 0.65882353
v -0.13024470 0.15587503 -13.67780876 0.25098039 0.27450980 0.65882353
v -0.11962469 0.16038212 -13.67683220 0.25098039 0.27450980 0.65882353
v -0.14846914 0.17874587 -13.68535233 0.25098039 0.27450980 0.65882353
v -0.08265258 0.14927593 -13.69412899 0.25098039 0.27450980 0.65882353
v -0.07764411 0.15735884 -13.69289017 0.25098039 0.27450980 0.65882353
v -0.08366616 0.15528980 -13.69050217 0.25098039 0.27450980 0.65882353
v -0.14039980 0.17002602 -13.71446896 0.25098039 0.27450980 0.65882353
v -0.05322857 0.13997860 -13.70967197 0.25098039 0.27450980 0.65882353
v -0.12358151 0.22824636 -13.71432018 0.25098039 0.27450980 0.65882353
v -0.13138822 0.22607124 -13.70363808 0.25098039 0.27450980 0.65882353
v -0.12732068 0.21945119 -13.70426655 0.25098039 0.27450980 0.65882353
v -0.11853079 0.22164159 -13.71656322 0.25098039 0.27450980 0.65882353
v -0.06293882 0.13321181 -13.70917416 0.25098039 0.27450980 0.65882353
v -0.05813012 0.13660513 -13.71197224 0.25098039 0.27450980 0.65882353
v -0.12473185 0.13842803 -13.69258404 0.25098039 0.27450980 0.65882353
v -0.11895308 0.13585305 -13.68843746 0.25098039 0.27450980 0.65882353
v -0.12056147 0.13549489 -13.68461800 0.25098039 0.27450980 0.65882353
v -0.12777153 0.13527355 -13.68920517 0.25098039 0.27450980 0.65882353
v -0.15195236 0.19244316 -13.68870831 0.25098039 0.27450980 0.65882353
v -0.14770733 0.14587265 -13.68088245 0.25098039 0.27450980 0.65882353
v -0.14029402 0.15055160 -13.67640686 0.25098039 0.27450980 0.65882353
v -0.15043114 0.20439994 -13.69145393 0.25098039 0.27450980 0.65882353
v -0.14141876 0.20713158 -13.69235802 0.25098039 0.27450980 0.65882353
v -0.14548931 0.21494173 -13.69353867 0.25098039 0.27450980 0.65882353
v -0.10419615 0.15759906 -13.67893410 0.25098039 0.27450980 0.65882353
v -0.12804319 0.19632329 -13.69160748 0.25098039 0.27450980 0.65882353
v -0.13447793 0.20747638 -13.69463348 0.25098039 0.27450980 0.65882353
v -0.13902152 0.21700326 -13.69595623 0.25098039 0.27450980 0.65882353
v -0.14196895 0.22392416 -13.69582272 0.25098039 0.27450980 0.65882353
v -0.14903036 0.22051021 -13.69379520 0.25098039 0.27450980 0.65882353
v -0.05166781 0.13924581 -13.69412327 0.25098039 0.27450980 0.65882353
v -0.05217734 0.13141513 -13.69076157 0.25098039 0.27450980 0.65882353
v -0.15267432 0.22688687 -13.69218922 0.25098039 0.27450980 0.65882353
v -0.14449374 0.22994095 -13.69507027 0.25098039 0.27450980 0.65882353
v -0.12635396 0.20834801 -13.69825268 0.25098039 0.27450980 0.65882353
v -0.11764754 0.20893657 -13.70385170 0.25098039 0.27450980 0.65882353
v -0.12030289 0.19776198 -13.69435310 0.25098039 0.27450980 0.65882353
v -0.11050978 0.19783215 -13.69958782 0.25098039 0.27450980 0.65882353
v -0.09657121 0.16424802 -13.68068123 0.25098039 0.27450980 0.65882353
v -0.04971273 0.11503927 -13.69650745 0.25098039 0.27450980 0.65882353
v -0.05515283 0.12420758 -13.69324112 0.25098039 0.27450980 0.65882353
v -0.05918300 0.12371145 -13.69728565 0.25098039 0.27450980 0.65882353
v -0.05367556 0.11426425 -13.69836807 0.25098039 0.27450980 0.65882353
v -0.05834424 0.12904346 -13.69259644 0.25098039 0.27450980 0.65882353
v -0.04997279 0.12696376 -13.69267559 0.25098039 0.27450980 0.65882353
v -0.10035470 0.19801188 -13.71088600 0.25098039 0.27450980 0.65882353
v -0.08667135 0.14402303 -13.70097542 0.25098039 0.27450980 0.65882353
v -0.10778488 0.21004421 -13.71897697 0.25098039 0.27450980 0.65882353
v -0.08927567 0.19346765 -13.72621155 0.25098039 0.27450980 0.65882353
v -0.09624140 0.20132113 -13.73371029 0.25098039 0.27450980 0.65882353
v -0.11451969 0.22282133 -13.72834301 0.25098039 0.27450980 0.65882353
v -0.10529973 0.21350183 -13.73813438 0.25098039 0.27450980 0.65882353
v -0.12531132 0.23466168 -13.72547626 0.25098039 0.27450980 0.65882353
v -0.12026144 0.22843614 -13.72564507 0.25098039 0.27450980 0.65882353
v -0.09802550 0.20322122 -13.74982929 0.25098039 0.27450980 0.65882353
v -0.05153957 0.12054713 -13.71142864 0.25098039 0.27450980 0.65882353
v -0.05557798 0.11822106 -13.70807838 0.25098039 0.27450980 0.65882353
v -0.12733059 0.23467489 -13.71393681 0.25098039 0.27450980 0.65882353
v -0.11555064 0.17208619 -13.75323868 0.25098039 0.27450980 0.65882353
v -0.14500415 0.17773917 -13.72028255 0.25098039 0.27450980 0.65882353
v -0.13970725 0.17906372 -13.72145176 0.25098039 0.27450980 0.65882353
v -0.16373444 0.17604282 -13.71362591 0.25098039 0.27450980 0.65882353
v -0.15239629 0.17648783 -13.71950340 0.25098039 0.27450980 0.65882353
v -0.04645529 0.12236737 -13.71182632 0.25098039 0.27450980 0.65882353
v -0.09871922 0.13812044 -13.68556786 0.25098039 0.27450980 0.65882353
v -0.10125138 0.13966992 -13.68526745 0.25098039 0.27450980 0.65882353
v -0.11150090 0.17919487 -13.76932335 0.25098039 0.27450980 0.65882353
v -0.10724911 0.17380193 -13.77192783 0.25098039 0.27450980 0.65882353
v -0.09611565 0.18032415 -13.77215004 0.25098039 0.27450980 0.65882353
v -0.10226883 0.17776266 -13.77431774 0.25098039 0.27450980 0.65882353
v -0.10587376 0.18511538 -13.77136803 0.25098039 0.27450980 0.65882353
v -0.09953943 0.18831620 -13.76897144 0.25098039 0.27450980 0.65882353
v -0.14594650 0.18584415 -13.72775650 0.25098039 0.27450980 0.65882353
v -0.14913030 0.18465178 -13.72678852 0.25098039 0.27450980 0.65882353
v -0.16261080 0.18612416 -13.69455528 0.25098039 0.27450980 0.65882353
v -0.16646284 0.17960559 -13.70206928 0.25098039 0.27450980 0.65882353
v -0.06738029 0.16099779 -13.70906830 0.25098039 0.27450980 0.65882353
v -0.07233001 0.16863465 -13.70382404 0.25098039 0.27450980 0.65882353
v -0.06729810 0.16189444 -13.70198727 0.25098039 0.27450980 0.65882353
v -0.06476508 0.15501106 -13.69538975 0.25098039 0.27450980 0.65882353
v -0.08257116 0.14450297 -13.69677925 0.25098039 0.27450980 0.65882353
v -0.07784067 0.14772330 -13.69682598 0.25098039 0.27450980 0.65882353
v -0.14276014 0.19303523 -13.73968506 0.25098039 0.27450980 0.65882353
v -0.13522351 0.18423021 -13.73106861 0.25098039 0.27450980 0.65882353
v -0.10348393 0.16814572 -13.75147533 0.25098039 0.27450980 0.65882353
v -0.09966749 0.16697988 -13.75510311 0.25098039 0.27450980 0.65882353
v -0.10684417 0.15212259 -13.70547581 0.25098039 0.27450980 0.65882353
v -0.09551512 0.14907558 -13.67815208 0.25098039 0.27450980 0.65882353
v -0.08968210 0.15438074 -13.67982578 0.25098039 0.27450980 0.65882353
v -0.10062265 0.14591944 -13.70158863 0.25098039 0.27450980 0.65882353
v -0.04051192 0.12154406 -13.70534039 0.25098039 0.27450980 0.65882353
v -0.04300088 0.12239988 -13.70979500 0.25098039 0.27450980 0.65882353
v -0.07096179 0.16149522 -13.69564915 0.25098039 0.27450980 0.65882353
v -0.12621430 0.14562967 -13.69975471 0.25098039 0.27450980 0.65882353
v -0.10442656 0.15097722 -13.67852402 0.25098039 0.27450980 0.65882353
v -0.09769028 0.14260381 -13.67980766 0.25098039 0.27450980 0.65882353
v -0.14919367 0.14545316 -13.68851471 0.25098039 0.27450980 0.65882353
v -0.13506863 0.23277247 -13.70395947 0.25098039 0.27450980 0.65882353
v -0.06010580 0.12425271 -13.70286179 0.25098039 0.27450980 0.65882353
v -0.05714610 0.11628829 -13.70354176 0.25098039 0.27450980 0.65882353
v -0.04599217 0.11722593 -13.69647694 0.25098039 0.27450980 0.65882353
v -0.04190689 0.12042634 -13.69948578 0.25098039 0.27450980 0.65882353
v -0.16889811 0.18803616 -13.70802021 0.25098039 0.27450980 0.65882353
v -0.13650289 0.18009399 -13.72160149 0.25098039 0.27450980 0.65882353
v -0.09406286 0.19278005 -13.75963879 0.25098039 0.27450980 0.65882353
v -0.09127972 0.18178719 -13.76681042 0.25098039 0.27450980 0.65882353
v -0.09643435 0.14193688 -13.69820118 0.25098039 0.27450980 0.65882353
v -0.13195081 0.14864451 -13.67812729 0.25098039 0.27450980 0.65882353
v -0.11614510 0.15258303 -13.67396450 0.25098039 0.27450980 0.65882353
v -0.11287037 0.14589953 -13.67084217 0.25098039 0.27450980 0.65882353
v -0.10558666 0.14463750 -13.67316341 0.25098039 0.27450980 0.65882353
v -0.10100994 0.14082718 -13.67802620 0.25098039 0.27450980 0.65882353
v -0.04503493 0.11190642 -13.69878006 0.25098039 0.27450980 0.65882353
v -0.04089502 0.11526537 -13.70156860 0.25098039 0.27450980 0.65882353
v -0.03955746 0.11686394 -13.70723629 0.25098039 0.27450980 0.65882353
v -0.04174583 0.11853054 -13.71102810 0.25098039 0.27450980 0.65882353
v -0.04585905 0.11923736 -13.71249962 0.25098039 0.27450980 0.65882353
v -0.04888344 0.10972096 -13.69930744 0.25098039 0.27450980 0.65882353
v -0.05237554 0.10958779 -13.70132637 0.25098039 0.27450980 0.65882353
v -0.05589798 0.11318444 -13.70456696 0.25098039 0.27450980 0.65882353
v -0.04985388 0.10600951 -13.70283985 0.25098039 0.27450980 0.65882353
v -0.04481733 0.10465479 -13.70403671 0.25098039 0.27450980 0.65882353
v -0.04131006 0.10688855 -13.71743870 0.25098039 0.27450980 0.65882353
v -0.03974701 0.10975440 -13.71229076 0.25098039 0.27450980 0.65882353
v -0.04011387 0.10701337 -13.71251869 0.25098039 0.27450980 0.65882353
v -0.04144377 0.10393876 -13.71637249 0.25098039 0.27450980 0.65882353
v -0.04246181 0.09956801 -13.71915245 0.25098039 0.27450980 0.65882353
v -0.04236205 0.10243057 -13.72114849 0.25098039 0.27450980 0.65882353
v -0.04120210 0.10662797 -13.70794678 0.25098039 0.27450980 0.65882353
v -0.04282488 0.10175537 -13.71255302 0.25098039 0.27450980 0.65882353
v -0.04561888 0.10006061 -13.71002960 0.25098039 0.27450980 0.65882353
v -0.04604694 0.09581655 -13.71390057 0.25098039 0.27450980 0.65882353
v -0.04346262 0.09711566 -13.71611500 0.25098039 0.27450980 0.65882353
v -0.04418145 0.10337207 -13.70698738 0.25098039 0.27450980 0.65882353
v -0.04035813 0.10833926 -13.70595646 0.25098039 0.27450980 0.65882353
v -0.04380162 0.09803441 -13.72228050 0.25098039 0.27450980 0.65882353
v -0.04297718 0.09671052 -13.72037125 0.25098039 0.27450980 0.65882353
v -0.04435152 0.09488571 -13.71835423 0.25098039 0.27450980 0.65882353
v -0.04599631 0.09381228 -13.72075939 0.25098039 0.27450980 0.65882353
v -0.04204026 0.11481638 -13.71374607 0.25098039 0.27450980 0.65882353
v -0.04275379 0.10838193 -13.71902370 0.25098039 0.27450980 0.65882353
v -0.04506852 0.10356321 -13.72203827 0.25098039 0.27450980 0.65882353
v -0.04630259 0.09911960 -13.72300911 0.25098039 0.27450980 0.65882353
v -0.04674549 0.10821916 -13.71991825 0.25098039 0.27450980 0.65882353
v -0.04795296 0.10398571 -13.72180939 0.25098039 0.27450980 0.65882353
v -0.04931383 0.10019092 -13.72225094 0.25098039 0.27450980 0.65882353
v -0.05079032 0.10727419 -13.71935749 0.25098039 0.27450980 0.65882353
v -0.05091862 0.10346147 -13.72084713 0.25098039 0.27450980 0.65882353
v -0.04968858 0.11627825 -13.71311855 0.25098039 0.27450980 0.65882353
v -0.04574051 0.11750657 -13.71388626 0.25098039 0.27450980 0.65882353
v -0.05129303 0.10105637 -13.72178841 0.25098039 0.27450980 0.65882353
v -0.04815073 0.09435727 -13.72124004 0.25098039 0.27450980 0.65882353
v -0.04850213 0.10083481 -13.70789146 0.25098039 0.27450980 0.65882353
v -0.04920726 0.09633483 -13.71360493 0.25098039 0.27450980 0.65882353
v -0.05090475 0.10127681 -13.70804691 0.25098039 0.27450980 0.65882353
v -0.05158727 0.09654725 -13.71334934 0.25098039 0.27450980 0.65882353
v -0.04864714 0.09298749 -13.71685886 0.25098039 0.27450980 0.65882353
v -0.04637054 0.09410097 -13.71648598 0.25098039 0.27450980 0.65882353
v -0.05094571 0.11852685 -13.71139240 0.25098039 0.27450980 0.65882353
v -0.05502498 0.11594299 -13.70795918 0.25098039 0.27450980 0.65882353
v -0.05420513 0.11386211 -13.70952320 0.25098039 0.27450980 0.65882353
v -0.05435362 0.10563064 -13.71665668 0.25098039 0.27450980 0.65882353
v -0.05549036 0.11085660 -13.70689011 0.25098039 0.27450980 0.65882353
v -0.05318311 0.10645916 -13.70493317 0.25098039 0.27450980 0.65882353
v -0.05335180 0.10147290 -13.70986652 0.25098039 0.27450980 0.65882353
v -0.05501704 0.10295642 -13.71240997 0.25098039 0.27450980 0.65882353
v -0.05345167 0.09792402 -13.71412182 0.25098039 0.27450980 0.65882353
v -0.05403966 0.09971826 -13.71573448 0.25098039 0.27450980 0.65882353
v -0.05350642 0.10185038 -13.71886063 0.25098039 0.27450980 0.65882353
v -0.05253454 0.09608616 -13.71780014 0.25098039 0.27450980 0.65882353
v -0.05059664 0.09395143 -13.71727180 0.25098039 0.27450980 0.65882353
v -0.05066694 0.09674476 -13.72093868 0.25098039 0.27450980 0.65882353
v -0.05346979 0.09784581 -13.71788597 0.25098039 0.27450980 0.65882353
v -0.05193050 0.09903600 -13.72014999 0.25098039 0.27450980 0.65882353
v -0.07265267 0.11410296 -13.68973732 0.25098039 0.27450980 0.65882353
v -0.07771893 0.11165302 -13.68662739 0.25098039 0.27450980 0.65882353
v -0.07857144 0.11680101 -13.68615723 0.25098039 0.27450980 0.65882353
v -0.07424685 0.11839714 -13.68894482 0.25098039 0.27450980 0.65882353
v -0.06337832 0.11736159 -13.68052769 0.25098039 0.27450980 0.65882353
v -0.06511766 0.11657894 -13.68601799 0.25098039 0.27450980 0.65882353
v -0.06596075 0.12173557 -13.68481541 0.25098039 0.27450980 0.65882353
v -0.06531040 0.12269982 -13.67843914 0.25098039 0.27450980 0.65882353
v -0.06640486 0.11652799 -13.67447853 0.25098039 0.27450980 0.65882353
v -0.06864819 0.12209131 -13.67251968 0.25098039 0.27450980 0.65882353
v -0.06709591 0.12787917 -13.67855549 0.25098039 0.27450980 0.65882353
v -0.06835234 0.12678209 -13.68545055 0.25098039 0.27450980 0.65882353
v -0.07950838 0.14381856 -13.69076729 0.25098039 0.27450980 0.65882353
v -0.07860041 0.14572576 -13.68390274 0.25098039 0.27450980 0.65882353
v -0.09517621 0.13562623 -13.68952751 0.25098039 0.27450980 0.65882353
v -0.09466872 0.13536061 -13.68556786 0.25098039 0.27450980 0.65882353
v -0.06892216 0.11535385 -13.68913651 0.25098039 0.27450980 0.65882353
v -0.06992464 0.12000301 -13.68801785 0.25098039 0.27450980 0.65882353
v -0.08539088 0.11863531 -13.67992210 0.25098039 0.27450980 0.65882353
v -0.08441174 0.11871896 -13.68522930 0.25098039 0.27450980 0.65882353
v -0.08190258 0.11480852 -13.68335438 0.25098039 0.27450980 0.65882353
v -0.08211613 0.11456033 -13.67774773 0.25098039 0.27450980 0.65882353
v -0.08616754 0.14058276 -13.69552231 0.25098039 0.27450980 0.65882353
v -0.09169585 0.13849452 -13.69317245 0.25098039 0.27450980 0.65882353
v -0.08249971 0.14162438 -13.69420815 0.25098039 0.27450980 0.65882353
v -0.08342175 0.12021279 -13.67382622 0.25098039 0.27450980 0.65882353
v -0.07834058 0.12342577 -13.67030621 0.25098039 0.27450980 0.65882353
v -0.08839540 0.14070931 -13.67454815 0.25098039 0.27450980 0.65882353
v -0.09254378 0.13679343 -13.67748547 0.25098039 0.27450980 0.65882353
v -0.07152601 0.12456430 -13.68947983 0.25098039 0.27450980 0.65882353
v -0.08076799 0.11999737 -13.68906975 0.25098039 0.27450980 0.65882353
v -0.07630549 0.12195399 -13.69104576 0.25098039 0.27450980 0.65882353
v -0.07172844 0.12696970 -13.67291927 0.25098039 0.27450980 0.65882353
v -0.07476258 0.11781473 -13.67029858 0.25098039 0.27450980 0.65882353
v -0.07293443 0.09821073 -13.67612457 0.25098039 0.27450980 0.65882353
v -0.07734030 0.10985620 -13.67345905 0.25098039 0.27450980 0.65882353
v -0.07992704 0.10907929 -13.67780685 0.25098039 0.27450980 0.65882353
v -0.07630397 0.09700088 -13.67955685 0.25098039 0.27450980 0.65882353
v -0.07977787 0.11528758 -13.67275810 0.25098039 0.27450980 0.65882353
v -0.07225597 0.11272214 -13.67195129 0.25098039 0.27450980 0.65882353
v -0.07053530 0.09944023 -13.69217682 0.25098039 0.27450980 0.65882353
v -0.07564910 0.09724763 -13.68883801 0.25098039 0.27450980 0.65882353
v -0.06604755 0.10073557 -13.69228363 0.25098039 0.27450980 0.65882353
v -0.08244976 0.14485782 -13.67698669 0.25098039 0.27450980 0.65882353
v -0.06014892 0.10393868 -13.68424129 0.25098039 0.27450980 0.65882353
v -0.06261612 0.10244730 -13.69019985 0.25098039 0.27450980 0.65882353
v -0.08059931 0.10982545 -13.68277836 0.25098039 0.27450980 0.65882353
v -0.07747257 0.09629913 -13.68419456 0.25098039 0.27450980 0.65882353
v -0.06869037 0.10003619 -13.67528725 0.25098039 0.27450980 0.65882353
v -0.06292379 0.10398406 -13.67795563 0.25098039 0.27450980 0.65882353
v -0.06731141 0.09429273 -13.67736053 0.25098039 0.27450980 0.65882353
v -0.06199163 0.09704541 -13.68011856 0.25098039 0.27450980 0.65882353
v -0.05955043 0.09765953 -13.68624496 0.25098039 0.27450980 0.65882353
v -0.06246710 0.09772804 -13.69131660 0.25098039 0.27450980 0.65882353
v -0.06595729 0.09747185 -13.69303513 0.25098039 0.27450980 0.65882353
v -0.07133354 0.09269375 -13.67820835 0.25098039 0.27450980 0.65882353
v -0.07482456 0.09207344 -13.68119717 0.25098039 0.27450980 0.65882353
v -0.07642417 0.09385882 -13.68542957 0.25098039 0.27450980 0.65882353
v -0.07235518 0.08658054 -13.68241119 0.25098039 0.27450980 0.65882353
v -0.06779166 0.08608650 -13.68176365 0.25098039 0.27450980 0.65882353
v -0.06321509 0.08061689 -13.69905090 0.25098039 0.27450980 0.65882353
v -0.06190446 0.08543512 -13.69544411 0.25098039 0.27450980 0.65882353
v -0.06196535 0.08365589 -13.69345760 0.25098039 0.27450980 0.65882353
v -0.06325015 0.07922179 -13.69656754 0.25098039 0.27450980 0.65882353
v -0.05995210 0.08899969 -13.69044781 0.25098039 0.27450980 0.65882353
v -0.06087364 0.08660704 -13.68987179 0.25098039 0.27450980 0.65882353
v -0.06297760 0.08613718 -13.68569374 0.25098039 0.27450980 0.65882353
v -0.06444305 0.08147997 -13.68977642 0.25098039 0.27450980 0.65882353
v -0.06820917 0.08098139 -13.68687630 0.25098039 0.27450980 0.65882353
v -0.06875180 0.07591423 -13.68981171 0.25098039 0.27450980 0.65882353
v -0.06497014 0.07637027 -13.69274521 0.25098039 0.27450980 0.65882353
v -0.06620601 0.08416554 -13.68445492 0.25098039 0.27450980 0.65882353
v -0.06431916 0.07588494 -13.69785213 0.25098039 0.27450980 0.65882353
v -0.06545493 0.07538885 -13.70016861 0.25098039 0.27450980 0.65882353
v -0.06176154 0.08858386 -13.68366623 0.25098039 0.27450980 0.65882353
v -0.06196982 0.09406279 -13.69283581 0.25098039 0.27450980 0.65882353
v -0.06355494 0.08666874 -13.69777393 0.25098039 0.27450980 0.65882353
v -0.06563693 0.08115724 -13.70117664 0.25098039 0.27450980 0.65882353
v -0.06838353 0.07549635 -13.70114231 0.25098039 0.27450980 0.65882353
v -0.06752855 0.08687855 -13.69933033 0.25098039 0.27450980 0.65882353
v -0.06888212 0.08139651 -13.70173454 0.25098039 0.27450980 0.65882353
v -0.07084906 0.07673578 -13.70091057 0.25098039 0.27450980 0.65882353
v -0.07230395 0.08664735 -13.69930172 0.25098039 0.27450980 0.65882353
v -0.07303584 0.08109030 -13.70088387 0.25098039 0.27450980 0.65882353
v -0.07073106 0.09552206 -13.69372272 0.25098039 0.27450980 0.65882353
v -0.06608416 0.09562378 -13.69462013 0.25098039 0.27450980 0.65882353
v -0.07267912 0.07833618 -13.70056152 0.25098039 0.27450980 0.65882353
v -0.06726974 0.07193586 -13.69708443 0.25098039 0.27450980 0.65882353
v -0.07030086 0.07261430 -13.69867611 0.25098039 0.27450980 0.65882353
v -0.06628269 0.07328339 -13.69573689 0.25098039 0.27450980 0.65882353
v -0.07027328 0.08106241 -13.68625927 0.25098039 0.27450980 0.65882353
v -0.07103807 0.07595804 -13.69041538 0.25098039 0.27450980 0.65882353
v -0.07313298 0.08117354 -13.68690968 0.25098039 0.27450980 0.65882353
v -0.07331215 0.07585046 -13.69160557 0.25098039 0.27450980 0.65882353
v -0.07047720 0.07241020 -13.69368362 0.25098039 0.27450980 0.65882353
v -0.06879517 0.07269803 -13.69331455 0.25098039 0.27450980 0.65882353
v -0.07023038 0.09693420 -13.69208336 0.25098039 0.27450980 0.65882353
v -0.07484037 0.09538220 -13.68898869 0.25098039 0.27450980 0.65882353
v -0.07519877 0.09425436 -13.69045067 0.25098039 0.27450980 0.65882353
v -0.07608528 0.08517821 -13.69579315 0.25098039 0.27450980 0.65882353
v -0.07679412 0.09204352 -13.68661880 0.25098039 0.27450980 0.65882353
v -0.07521598 0.08811313 -13.68404484 0.25098039 0.27450980 0.65882353
v -0.07554802 0.08217068 -13.68808270 0.25098039 0.27450980 0.65882353
v -0.07709987 0.08332790 -13.69159317 0.25098039 0.27450980 0.65882353
v -0.07556790 0.07623503 -13.69190407 0.25098039 0.27450980 0.65882353
v -0.07670514 0.07879777 -13.69347668 0.25098039 0.27450980 0.65882353
v -0.07596189 0.08045423 -13.69802380 0.25098039 0.27450980 0.65882353
v -0.07441452 0.07310003 -13.69526768 0.25098039 0.27450980 0.65882353
v -0.07220140 0.07229541 -13.69447041 0.25098039 0.27450980 0.65882353
v -0.07209377 0.07406989 -13.69897366 0.25098039 0.27450980 0.65882353
v -0.07577221 0.07574569 -13.69580364 0.25098039 0.27450980 0.65882353
v -0.07415493 0.07665563 -13.69895554 0.25098039 0.27450980 0.65882353
v -0.09588397 0.11417152 -13.67732430 0.25098039 0.27450980 0.65882353
v -0.10155766 0.11282891 -13.67850304 0.25098039 0.27450980 0.65882353
v -0.10256915 0.11631058 -13.67852497 0.25098039 0.27450980 0.65882353
v -0.09706889 0.11772166 -13.67727375 0.25098039 0.27450980 0.65882353
v -0.09494206 0.11513418 -13.66487122 0.25098039 0.27450980 0.65882353
v -0.09238984 0.11480199 -13.66905880 0.25098039 0.27450980 0.65882353
v -0.09359033 0.11960803 -13.66888046 0.25098039 0.27450980 0.65882353
v -0.09634925 0.12135807 -13.66439819 0.25098039 0.27450980 0.65882353
v -0.09951496 0.11268495 -13.66280174 0.25098039 0.27450980 0.65882353
v -0.10179108 0.12077780 -13.66145802 0.25098039 0.27450980 0.65882353
v -0.09749986 0.12722084 -13.66480160 0.25098039 0.27450980 0.65882353
v -0.09466362 0.12423168 -13.66952515 0.25098039 0.27450980 0.65882353
v -0.09980862 0.13733509 -13.67581558 0.25098039 0.27450980 0.65882353
v -0.10275716 0.13955121 -13.66993427 0.25098039 0.27450980 0.65882353
v -0.09312387 0.11454099 -13.67364311 0.25098039 0.27450980 0.65882353
v -0.09418464 0.11840925 -13.67370510 0.25098039 0.27450980 0.65882353
v -0.11171359 0.11746784 -13.67582989 0.25098039 0.27450980 0.65882353
v -0.10828263 0.11765379 -13.67917824 0.25098039 0.27450980 0.65882353
v -0.10751602 0.11478210 -13.67705059 0.25098039 0.27450980 0.65882353
v -0.11022097 0.11432449 -13.67380714 0.25098039 0.27450980 0.65882353
v -0.10458139 0.13485202 -13.68576622 0.25098039 0.27450980 0.65882353
v -0.11063655 0.13466179 -13.68591785 0.25098039 0.27450980 0.65882353
v -0.10064237 0.13479987 -13.68167877 0.25098039 0.27450980 0.65882353
v -0.11260130 0.11894046 -13.66951847 0.25098039 0.27450980 0.65882353
v -0.11010997 0.12298100 -13.66371918 0.25098039 0.27450980 0.65882353
v -0.11644736 0.13545915 -13.66968155 0.25098039 0.27450980 0.65882353
v -0.11832902 0.13323352 -13.67541027 0.25098039 0.27450980 0.65882353
v -0.09499346 0.12198522 -13.67443466 0.25098039 0.27450980 0.65882353
v -0.10342547 0.11923089 -13.68058109 0.25098039 0.27450980 0.65882353
v -0.09790573 0.12031715 -13.67894936 0.25098039 0.27450980 0.65882353
v -0.10351473 0.12662894 -13.66280651 0.25098039 0.27450980 0.65882353
v -0.10758071 0.11714580 -13.66345978 0.25098039 0.27450980 0.65882353
v -0.10436198 0.09450449 -13.66860008 0.25098039 0.27450980 0.65882353
v -0.10937783 0.11046526 -13.66788483 0.25098039 0.27450980 0.65882353
v -0.10909657 0.11046317 -13.67361355 0.25098039 0.27450980 0.65882353
v -0.10557687 0.09480913 -13.67283154 0.25098039 0.27450980 0.65882353
v -0.11076729 0.11441223 -13.66841888 0.25098039 0.27450980 0.65882353
v -0.10576326 0.11160637 -13.66368484 0.25098039 0.27450980 0.65882353
v -0.09340294 0.09894590 -13.67947292 0.25098039 0.27450980 0.65882353
v -0.09911728 0.09822340 -13.67970753 0.25098039 0.27450980 0.65882353
v -0.09054916 0.10007774 -13.67622757 0.25098039 0.27450980 0.65882353
v -0.10941547 0.13929681 -13.66685104 0.25098039 0.27450980 0.65882353
v -0.11649102 0.13309574 -13.68210602 0.25098039 0.27450980 0.65882353
v -0.08989720 0.09874335 -13.66875935 0.25098039 0.27450980 0.65882353
v -0.08922151 0.09967072 -13.67304611 0.25098039 0.27450980 0.65882353
v -0.10654959 0.11157984 -13.67691803 0.25098039 0.27450980 0.65882353
v -0.10397241 0.09623427 -13.67702103 0.25098039 0.27450980 0.65882353
v -0.10084127 0.09594550 -13.66545677 0.25098039 0.27450980 0.65882353
v -0.09484088 0.09838627 -13.66501141 0.25098039 0.27450980 0.65882353
v -0.10020596 0.08968264 -13.66770554 0.25098039 0.27450980 0.65882353
v -0.09405412 0.09138344 -13.66749382 0.25098039 0.27450980 0.65882353
v -0.08937965 0.09215592 -13.67119789 0.25098039 0.27450980 0.65882353
v -0.08896109 0.09422275 -13.67525959 0.25098039 0.27450980 0.65882353
v -0.09028485 0.09541541 -13.67810631 0.25098039 0.27450980 0.65882353
v -0.10375711 0.08967675 -13.67139244 0.25098039 0.27450980 0.65882353
v -0.10453139 0.09108879 -13.67505264 0.25098039 0.27450980 0.65882353
v -0.10293753 0.09471281 -13.67737293 0.25098039 0.27450980 0.65882353
v -0.10419820 0.08685261 -13.67501926 0.25098039 0.27450980 0.65882353
v -0.09994996 0.08390871 -13.67263412 0.25098039 0.27450980 0.65882353
v -0.09129174 0.07803668 -13.68637276 0.25098039 0.27450980 0.65882353
v -0.09069562 0.08233207 -13.68212032 0.25098039 0.27450980 0.65882353
v -0.09135373 0.08145753 -13.68142700 0.25098039 0.27450980 0.65882353
v -0.09181753 0.07682204 -13.68510056 0.25098039 0.27450980 0.65882353
v -0.09029028 0.08552259 -13.67578411 0.25098039 0.27450980 0.65882353
v -0.09130050 0.08381718 -13.67668819 0.25098039 0.27450980 0.65882353
v -0.09438907 0.08329387 -13.67416382 0.25098039 0.27450980 0.65882353
v -0.09513475 0.07866569 -13.67900944 0.25098039 0.27450980 0.65882353
v -0.10094605 0.08027890 -13.67907906 0.25098039 0.27450980 0.65882353
v -0.10040528 0.07690474 -13.68302059 0.25098039 0.27450980 0.65882353
v -0.09540160 0.07485798 -13.68297672 0.25098039 0.27450980 0.65882353
v -0.09889734 0.08285540 -13.67440319 0.25098039 0.27450980 0.65882353
v -0.09303597 0.07438014 -13.68690109 0.25098039 0.27450980 0.65882353
v -0.09149984 0.07404062 -13.68860817 0.25098039 0.27450980 0.65882353
v -0.09399378 0.08480805 -13.67178059 0.25098039 0.27450980 0.65882353
v -0.08843262 0.08935243 -13.67843628 0.25098039 0.27450980 0.65882353
v -0.08960000 0.08412129 -13.68422985 0.25098039 0.27450980 0.65882353
v -0.08991048 0.07997927 -13.68896770 0.25098039 0.27450980 0.65882353
v -0.09223114 0.07665253 -13.69132900 0.25098039 0.27450980 0.65882353
v -0.09130034 0.08642846 -13.68664074 0.25098039 0.27450980 0.65882353
v -0.09184246 0.08218908 -13.69027805 0.25098039 0.27450980 0.65882353
v -0.09382722 0.07925436 -13.69246769 0.25098039 0.27450980 0.65882353
v -0.09396711 0.08781122 -13.68795109 0.25098039 0.27450980 0.65882353
v -0.09462604 0.08388729 -13.69097328 0.25098039 0.27450980 0.65882353
v -0.09331469 0.09462617 -13.68123817 0.25098039 0.27450980 0.65882353
v -0.09014151 0.09247905 -13.68025970 0.25098039 0.27450980 0.65882353
v -0.09542792 0.08102317 -13.69231606 0.25098039 0.27450980 0.65882353
v -0.09594443 0.07209481 -13.68810081 0.25098039 0.27450980 0.65882353
v -0.09759551 0.07458958 -13.69140053 0.25098039 0.27450980 0.65882353
v -0.09580904 0.07347128 -13.68634415 0.25098039 0.27450980 0.65882353
v -0.10261543 0.08134119 -13.67897892 0.25098039 0.27450980 0.65882353
v -0.10253933 0.07702146 -13.68424225 0.25098039 0.27450980 0.65882353
v -0.10432898 0.08312780 -13.68062115 0.25098039 0.27450980 0.65882353
v -0.10421771 0.07872331 -13.68564701 0.25098039 0.27450980 0.65882353
v -0.10073376 0.07380894 -13.68672180 0.25098039 0.27450980 0.65882353
v -0.09971702 0.07416022 -13.68582726 0.25098039 0.27450980 0.65882353
v -0.09377183 0.09652342 -13.67956448 0.25098039 0.27450980 0.65882353
v -0.09888005 0.09630792 -13.67957783 0.25098039 0.27450980 0.65882353
v -0.09812859 0.09510599 -13.68120384 0.25098039 0.27450980 0.65882353
v -0.09865338 0.08813927 -13.68855000 0.25098039 0.27450980 0.65882353
v -0.10231729 0.09377227 -13.67948437 0.25098039 0.27450980 0.65882353
v -0.10451467 0.08870684 -13.67846966 0.25098039 0.27450980 0.65882353
v -0.10427792 0.08512065 -13.68334961 0.25098039 0.27450980 0.65882353
v -0.10256450 0.08667058 -13.68650150 0.25098039 0.27450980 0.65882353
v -0.10416780 0.08089587 -13.68745708 0.25098039 0.27450980 0.65882353
v -0.10252568 0.08304423 -13.68855190 0.25098039 0.27450980 0.65882353
v -0.09875035 0.08441304 -13.69145298 0.25098039 0.27450980 0.65882353
v -0.10186605 0.07819635 -13.68986320 0.25098039 0.27450980 0.65882353
v -0.10207756 0.07547343 -13.68860054 0.25098039 0.27450980 0.65882353
v -0.09809102 0.07774086 -13.69249344 0.25098039 0.27450980 0.65882353
v -0.10132244 0.08056286 -13.69066143 0.25098039 0.27450980 0.65882353
v -0.09843621 0.08038676 -13.69260597 0.25098039 0.27450980 0.65882353
v -0.11461042 0.13387983 -13.68506241 0.25098039 0.27450980 0.65882353
v -0.13306427 0.11217346 -13.68519020 0.25098039 0.27450980 0.65882353
v -0.13672814 0.11245672 -13.68691635 0.25098039 0.27450980 0.65882353
v -0.13749528 0.11544859 -13.68581009 0.25098039 0.27450980 0.65882353
v -0.13361335 0.11611234 -13.68483162 0.25098039 0.27450980 0.65882353
v -0.13343647 0.11157759 -13.67419529 0.25098039 0.27450980 0.65882353
v -0.13118517 0.11129737 -13.67802429 0.25098039 0.27450980 0.65882353
v -0.13099033 0.11603045 -13.67659664 0.25098039 0.27450980 0.65882353
v -0.13319880 0.11653061 -13.67285252 0.25098039 0.27450980 0.65882353
v -0.13811700 0.11156840 -13.67271233 0.25098039 0.27450980 0.65882353
v -0.13829754 0.11635385 -13.67162132 0.25098039 0.27450980 0.65882353
v -0.13295706 0.12028826 -13.67250061 0.25098039 0.27450980 0.65882353
v -0.13056031 0.11984413 -13.67662716 0.25098039 0.27450980 0.65882353
v -0.12922712 0.13622461 -13.67967510 0.25098039 0.27450980 0.65882353
v -0.13255650 0.13894090 -13.67590523 0.25098039 0.27450980 0.65882353
v -0.14745419 0.13966995 -13.68740845 0.25098039 0.27450980 0.65882353
v -0.14343968 0.13991386 -13.69284821 0.25098039 0.27450980 0.65882353
v -0.14317051 0.13165915 -13.68866539 0.25098039 0.27450980 0.65882353
v -0.14643660 0.13313895 -13.68477917 0.25098039 0.27450980 0.65882353
v -0.13135359 0.11163449 -13.68190575 0.25098039 0.27450980 0.65882353
v -0.13107923 0.11593115 -13.68161869 0.25098039 0.27450980 0.65882353
v -0.14599586 0.11946480 -13.68246841 0.25098039 0.27450980 0.65882353
v -0.14251649 0.11882456 -13.68551159 0.25098039 0.27450980 0.65882353
v -0.14147109 0.11564622 -13.68597412 0.25098039 0.27450980 0.65882353
v -0.14531483 0.11514193 -13.68367767 0.25098039 0.27450980 0.65882353
v -0.13785823 0.13845406 -13.69393253 0.25098039 0.27450980 0.65882353
v -0.13293460 0.13799635 -13.69263172 0.25098039 0.27450980 0.65882353
v -0.13295369 0.13346298 -13.69112301 0.25098039 0.27450980 0.65882353
v -0.13840763 0.13073695 -13.69012833 0.25098039 0.27450980 0.65882353
v -0.12925088 0.13355274 -13.68700409 0.25098039 0.27450980 0.65882353
v -0.14677224 0.11970820 -13.67855167 0.25098039 0.27450980 0.65882353
v -0.14439476 0.12003770 -13.67334366 0.25098039 0.27450980 0.65882353
v -0.14647481 0.13754757 -13.67597103 0.25098039 0.27450980 0.65882353
v -0.14760110 0.13622352 -13.68037510 0.25098039 0.27450980 0.65882353
v -0.13058192 0.11867220 -13.68099403 0.25098039 0.27450980 0.65882353
v -0.13822260 0.11836804 -13.68601704 0.25098039 0.27450980 0.65882353
v -0.13388847 0.11816705 -13.68482018 0.25098039 0.27450980 0.65882353
v -0.13850015 0.12049550 -13.67081738 0.25098039 0.27450980 0.65882353
v -0.14387983 0.11535640 -13.67419052 0.25098039 0.27450980 0.65882353
v -0.14559552 0.10235203 -13.68299007 0.25098039 0.27450980 0.65882353
v -0.14630049 0.11152975 -13.68029499 0.25098039 0.27450980 0.65882353
v -0.14482136 0.11185156 -13.68490696 0.25098039 0.27450980 0.65882353
v -0.14483730 0.10299372 -13.68582630 0.25098039 0.27450980 0.65882353
v -0.14628081 0.11514169 -13.67933941 0.25098039 0.27450980 0.65882353
v -0.14378467 0.11088017 -13.67538357 0.25098039 0.27450980 0.65882353
v -0.13292342 0.10371929 -13.68768501 0.25098039 0.27450980 0.65882353
v -0.13787392 0.10446293 -13.68905163 0.25098039 0.27450980 0.65882353
v -0.13125147 0.10311174 -13.68503952 0.25098039 0.27450980 0.65882353
v -0.13918129 0.13901408 -13.67334747 0.25098039 0.27450980 0.65882353
v -0.13324645 0.10146916 -13.67802334 0.25098039 0.27450980 0.65882353
v -0.13100618 0.10177933 -13.68174458 0.25098039 0.27450980 0.65882353
v -0.14077231 0.11226025 -13.68694687 0.25098039 0.27450980 0.65882353
v -0.14215161 0.10408008 -13.68813419 0.25098039 0.27450980 0.65882353
v -0.14378129 0.10160675 -13.67917156 0.25098039 0.27450980 0.65882353
v -0.13844201 0.10166603 -13.67619610 0.25098039 0.27450980 0.65882353
v -0.14307657 0.09700772 -13.68140984 0.25098039 0.27450980 0.65882353
v -0.13759428 0.09717721 -13.67845917 0.25098039 0.27450980 0.65882353
v -0.13228720 0.09737110 -13.68094349 0.25098039 0.27450980 0.65882353
v -0.13093138 0.09922708 -13.68388844 0.25098039 0.27450980 0.65882353
v -0.13109048 0.10061450 -13.68673801 0.25098039 0.27450980 0.65882353
v -0.14501867 0.09844314 -13.68511391 0.25098039 0.27450980 0.65882353
v -0.14434670 0.09980214 -13.68777752 0.25098039 0.27450980 0.65882353
v -0.14193320 0.10182150 -13.68974590 0.25098039 0.27450980 0.65882353
v -0.14436080 0.09467997 -13.68759918 0.25098039 0.27450980 0.65882353
v -0.14180921 0.09163688 -13.68499088 0.25098039 0.27450980 0.65882353
v -0.13176119 0.08670352 -13.69281483 0.25098039 0.27450980 0.65882353
v -0.13157973 0.08989066 -13.68999863 0.25098039 0.27450980 0.65882353
v -0.13228557 0.08918038 -13.68921566 0.25098039 0.27450980 0.65882353
v -0.13181528 0.08593258 -13.69189739 0.25098039 0.27450980 0.65882353
v -0.13223141 0.09276912 -13.68525791 0.25098039 0.27450980 0.65882353
v -0.13321704 0.09139298 -13.68565750 0.25098039 0.27450980 0.65882353
v -0.13638505 0.09171425 -13.68403339 0.25098039 0.27450980 0.65882353
v -0.13589904 0.08760762 -13.68760395 0.25098039 0.27450980 0.65882353
v -0.14103380 0.08768362 -13.68929291 0.25098039 0.27450980 0.65882353
v -0.14004150 0.08442378 -13.69193363 0.25098039 0.27450980 0.65882353
v -0.13564421 0.08450855 -13.68999195 0.25098039 0.27450980 0.65882353
v -0.14023322 0.09026732 -13.68541813 0.25098039 0.27450980 0.65882353
v -0.13238508 0.08337574 -13.69301319 0.25098039 0.27450980 0.65882353
v -0.13182738 0.08283231 -13.69432449 0.25098039 0.27450980 0.65882353
v -0.13653114 0.09281586 -13.68229675 0.25098039 0.27450980 0.65882353
v -0.13053906 0.09597693 -13.68733025 0.25098039 0.27450980 0.65882353
v -0.13059551 0.09075205 -13.69217491 0.25098039 0.27450980 0.65882353
v -0.13106319 0.08649999 -13.69517326 0.25098039 0.27450980 0.65882353
v -0.13260579 0.08318128 -13.69661331 0.25098039 0.27450980 0.65882353
v -0.13118061 0.09294678 -13.69372654 0.25098039 0.27450980 0.65882353
v -0.13146943 0.08790168 -13.69723034 0.25098039 0.27450980 0.65882353
v -0.13327244 0.08490112 -13.69858837 0.25098039 0.27450980 0.65882353
v -0.13321623 0.09496643 -13.69570351 0.25098039 0.27450980 0.65882353
v -0.13342366 0.08971277 -13.69828987 0.25098039 0.27450980 0.65882353
v -0.13365823 0.10038839 -13.69141388 0.25098039 0.27450980 0.65882353
v -0.13140872 0.09835111 -13.68956375 0.25098039 0.27450980 0.65882353
v -0.13425279 0.08664824 -13.69880962 0.25098039 0.27450980 0.65882353
v -0.13525397 0.08110052 -13.69399166 0.25098039 0.27450980 0.65882353
v -0.13574412 0.08202913 -13.69694805 0.25098039 0.27450980 0.65882353
v -0.13550355 0.08172819 -13.69261742 0.25098039 0.27450980 0.65882353
v -0.14229020 0.08824654 -13.68990898 0.25098039 0.27450980 0.65882353
v -0.14120916 0.08436576 -13.69326401 0.25098039 0.27450980 0.65882353
v -0.14348942 0.08975926 -13.69167137 0.25098039 0.27450980 0.65882353
v -0.14165051 0.08542389 -13.69523048 0.25098039 0.27450980 0.65882353
v -0.13898441 0.08175787 -13.69462013 0.25098039 0.27450980 0.65882353
v -0.13821292 0.08231907 -13.69279099 0.25098039 0.27450980 0.65882353
v -0.13348731 0.10185554 -13.68980980 0.25098039 0.27450980 0.65882353
v -0.13766129 0.10259330 -13.69025421 0.25098039 0.27450980 0.65882353
v -0.13788372 0.10087913 -13.69197083 0.25098039 0.27450980 0.65882353
v -0.13703619 0.09564063 -13.69644451 0.25098039 0.27450980 0.65882353
v -0.14198853 0.09978395 -13.69134808 0.25098039 0.27450980 0.65882353
v -0.14405301 0.09721097 -13.68948936 0.25098039 0.27450980 0.65882353
v -0.14300780 0.09179020 -13.69367790 0.25098039 0.27450980 0.65882353
v -0.14111909 0.09389921 -13.69569874 0.25098039 0.27450980 0.65882353
v -0.14107528 0.08674313 -13.69708157 0.25098039 0.27450980 0.65882353
v -0.13949060 0.08903795 -13.69854069 0.25098039 0.27450980 0.65882353
v -0.13652036 0.09038341 -13.69915581 0.25098039 0.27450980 0.65882353
v -0.13836946 0.08416875 -13.69813442 0.25098039 0.27450980 0.65882353
v -0.13887089 0.08262987 -13.69692802 0.25098039 0.27450980 0.65882353
v -0.13604359 0.08388543 -13.69841576 0.25098039 0.27450980 0.65882353
v -0.13780117 0.08599161 -13.69901943 0.25098039 0.27450980 0.65882353
v -0.13616459 0.08636856 -13.69912720 0.25098039 0.27450980 0.65882353
v -0.14788628 0.13931131 -13.68310356 0.25098039 0.27450980 0.65882353
v -0.08496012 0.16802870 -13.76700497 0.25098039 0.27450980 0.65882353
v -0.08644533 0.16471280 -13.76242447 0.25098039 0.27450980 0.65882353
v -0.09969364 0.15663800 -13.76812077 0.25098039 0.27450980 0.65882353
v -0.09507515 0.15679130 -13.76280975 0.25098039 0.27450980 0.65882353
v -0.10098127 0.15868121 -13.77422237 0.25098039 0.27450980 0.65882353
v -0.09608813 0.16693127 -13.77891350 0.25098039 0.27450980 0.65882353
v -0.10007107 0.16336277 -13.77742290 0.25098039 0.27450980 0.65882353
v -0.09027535 0.15987062 -13.76091766 0.25098039 0.27450980 0.65882353
v -0.08589801 0.17055097 -13.77212811 0.25098039 0.27450980 0.65882353
v -0.09063156 0.17059448 -13.77728748 0.25098039 0.27450980 0.65882353
v -0.08102626 0.16493317 -13.77497578 0.25098039 0.27450980 0.65882353
v -0.08595374 0.16442376 -13.78066063 0.25098039 0.27450980 0.65882353
v -0.09135076 0.16050768 -13.78280067 0.25098039 0.27450980 0.65882353
v -0.09630617 0.15704072 -13.78050232 0.25098039 0.27450980 0.65882353
v -0.09813857 0.15403295 -13.77722645 0.25098039 0.27450980 0.65882353
v -0.08184993 0.16244934 -13.76847935 0.25098039 0.27450980 0.65882353
v -0.08396694 0.15916377 -13.76411533 0.25098039 0.27450980 0.65882353
v -0.08911079 0.15533185 -13.76270199 0.25098039 0.27450980 0.65882353
v -0.07859835 0.15492883 -13.76911163 0.25098039 0.27450980 0.65882353
v -0.07549271 0.14812708 -13.77621937 0.25098039 0.27450980 0.65882353
v -0.08059436 0.13439447 -13.78758240 0.25098039 0.27450980 0.65882353
v -0.08453406 0.13975456 -13.78626347 0.25098039 0.27450980 0.65882353
v -0.08166222 0.14052391 -13.78630161 0.25098039 0.27450980 0.65882353
v -0.07829902 0.13589227 -13.78815651 0.25098039 0.27450980 0.65882353
v -0.08490409 0.14511222 -13.78538513 0.25098039 0.27450980 0.65882353
v -0.08263467 0.14424539 -13.78481674 0.25098039 0.27450980 0.65882353
v -0.07912065 0.14666785 -13.78187752 0.25098039 0.27450980 0.65882353
v -0.07599106 0.14266764 -13.78400803 0.25098039 0.27450980 0.65882353
v -0.07583740 0.14611469 -13.77819252 0.25098039 0.27450980 0.65882353
v -0.07367179 0.14284883 -13.77813435 0.25098039 0.27450980 0.65882353
v -0.07313214 0.13835029 -13.78538990 0.25098039 0.27450980 0.65882353
v -0.07465377 0.13392562 -13.78879738 0.25098039 0.27450980 0.65882353
v -0.07085814 0.13426743 -13.78635025 0.25098039 0.27450980 0.65882353
v -0.07616429 0.13135695 -13.78758240 0.25098039 0.27450980 0.65882353
v -0.07850185 0.14859936 -13.78295708 0.25098039 0.27450980 0.65882353
v -0.09148946 0.14813827 -13.78362465 0.25098039 0.27450980 0.65882353
v -0.08813380 0.13974383 -13.78427792 0.25098039 0.27450980 0.65882353
v -0.08331063 0.13331507 -13.78495598 0.25098039 0.27450980 0.65882353
v -0.07778840 0.13001442 -13.78500080 0.25098039 0.27450980 0.65882353
v -0.09041631 0.13901429 -13.78024197 0.25098039 0.27450980 0.65882353
v -0.08515230 0.13341826 -13.78060627 0.25098039 0.27450980 0.65882353
v -0.07985260 0.13068467 -13.78009701 0.25098039 0.27450980 0.65882353
v -0.09021975 0.13872854 -13.77542210 0.25098039 0.27450980 0.65882353
v -0.08486202 0.13397655 -13.77660942 0.25098039 0.27450980 0.65882353
v -0.09614348 0.15004942 -13.77252865 0.25098039 0.27450980 0.65882353
v -0.09587733 0.14928158 -13.77888298 0.25098039 0.27450980 0.65882353
v -0.08090699 0.13193312 -13.77756500 0.25098039 0.27450980 0.65882353
v -0.07025920 0.13175173 -13.78560829 0.25098039 0.27450980 0.65882353
v -0.07226203 0.13020681 -13.78234863 0.25098039 0.27450980 0.65882353
v -0.07324803 0.14347203 -13.77453709 0.25098039 0.27450980 0.65882353
v -0.07027251 0.13915083 -13.77974224 0.25098039 0.27450980 0.65882353
v -0.07055622 0.13842168 -13.77645397 0.25098039 0.27450980 0.65882353
v -0.07463872 0.14414993 -13.77057266 0.25098039 0.27450980 0.65882353
v -0.07142834 0.13760476 -13.77351952 0.25098039 0.27450980 0.65882353
v -0.06881462 0.13443583 -13.78025532 0.25098039 0.27450980 0.65882353
v -0.06930898 0.13625929 -13.78254414 0.25098039 0.27450980 0.65882353
v -0.09793216 0.15321714 -13.77116203 0.25098039 0.27450980 0.65882353
v -0.09454942 0.15395594 -13.76548576 0.25098039 0.27450980 0.65882353
v -0.09248540 0.15116255 -13.76685047 0.25098039 0.27450980 0.65882353
v -0.08724014 0.14047733 -13.77001190 0.25098039 0.27450980 0.65882353
v -0.08710492 0.15172899 -13.76395130 0.25098039 0.27450980 0.65882353
v -0.08154938 0.15349415 -13.76556969 0.25098039 0.27450980 0.65882353
v -0.07738444 0.14321907 -13.76780796 0.25098039 0.27450980 0.65882353
v -0.08211918 0.14191613 -13.76712132 0.25098039 0.27450980 0.65882353
v -0.07457323 0.13648525 -13.77153206 0.25098039 0.27450980 0.65882353
v -0.07771045 0.13580862 -13.77120972 0.25098039 0.27450980 0.65882353
v -0.08211145 0.13430503 -13.77316570 0.25098039 0.27450980 0.65882353
v -0.07357463 0.13285396 -13.77524567 0.25098039 0.27450980 0.65882353
v -0.07034934 0.13331258 -13.77725506 0.25098039 0.27450980 0.65882353
v -0.07544169 0.13062336 -13.77844143 0.25098039 0.27450980 0.65882353
v -0.07635167 0.13347599 -13.77407265 0.25098039 0.27450980 0.65882353
v -0.07824838 0.13215211 -13.77601910 0.25098039 0.27450980 0.65882353
v -0.14575139 0.14416382 -13.69408035 0.25098039 0.27450980 0.65882353
v -0.13969427 0.14353642 -13.69681263 0.25098039 0.27450980 0.65882353
v -0.14458337 0.14759976 -13.69890785 0.25098039 0.27450980 0.65882353
v -0.14978263 0.15484092 -13.70244217 0.25098039 0.27450980 0.65882353
v -0.15849239 0.16183119 -13.70254993 0.25098039 0.27450980 0.65882353
v -0.14379445 0.15618613 -13.70524216 0.25098039 0.27450980 0.65882353
v -0.13867606 0.14890838 -13.70093822 0.25098039 0.27450980 0.65882353
v -0.13196436 0.14263126 -13.69668007 0.25098039 0.27450980 0.65882353
v -0.14150351 0.16439331 -13.71092415 0.25098039 0.27450980 0.65882353
f 2 3 1
f 1 3 4
f 5 6 8
f 8 6 7
f 9 4 10
f 10 4 3
f 12 13 11
f 11 13 9
f 14 12 16
f 16 12 15
f 18 19 17
f 17 19 20
f 22 23 21
f 21 23 24
f 26 27 25
f 25 27 28
f 30 31 29
f 29 31 32
f 33 34 36
f 36 34 35
f 37 38 40
f 40 38 39
f 41 42 6
f 6 42 43
f 6 43 7
f 7 43 44
f 45 34 46
f 46 34 33
f 48 49 47
f 47 49 50
f 52 53 51
f 51 53 54
f 56 52 55
f 55 52 51
f 58 59 57
f 57 59 60
f 61 62 4
f 4 62 1
f 64 65 63
f 63 65 66
f 68 69 67
f 67 69 70
f 72 73 71
f 71 73 74
f 76 77 75
f 75 77 78
f 53 79 54
f 54 79 80
f 82 83 81
f 81 83 84
f 85 86 52
f 52 86 53
f 57 60 87
f 87 60 88
f 89 90 43
f 43 90 44
f 43 42 89
f 89 42 91
f 40 39 92
f 92 39 93
f 94 70 64
f 64 70 69
f 13 61 9
f 9 61 4
f 25 28 69
f 69 28 95
f 96 25 68
f 68 25 69
f 98 99 97
f 97 99 100
f 101 102 104
f 104 102 103
f 106 30 105
f 105 30 29
f 51 54 107
f 107 54 108
f 54 80 108
f 108 80 109
f 111 112 110
f 110 112 113
f 115 5 114
f 114 5 116
f 115 41 5
f 5 41 6
f 36 35 111
f 111 35 117
f 35 118 117
f 117 118 119
f 34 120 35
f 35 120 118
f 34 45 120
f 120 45 121
f 125 126 124
f 124 126 127
f 128 129 14
f 14 129 130
f 33 131 46
f 46 131 132
f 133 94 63
f 63 94 64
f 134 135 137
f 137 135 136
f 139 140 138
f 138 140 141
f 77 142 78
f 78 142 143
f 144 145 20
f 20 145 146
f 148 149 147
f 147 149 72
f 151 152 150
f 150 152 153
f 82 101 83
f 83 101 104
f 101 82 155
f 155 82 154
f 156 157 58
f 58 157 59
f 158 68 147
f 147 68 67
f 159 146 15
f 15 146 16
f 68 158 96
f 96 158 160
f 129 66 130
f 130 66 65
f 162 163 161
f 161 163 164
f 166 167 165
f 165 167 168
f 170 171 169
f 169 171 172
f 174 171 173
f 173 171 170
f 176 177 175
f 175 177 178
f 180 181 179
f 179 181 24
f 182 183 21
f 21 183 184
f 81 185 82
f 82 185 154
f 186 187 188
f 188 187 144
f 158 71 160
f 160 71 189
f 190 135 157
f 157 135 59
f 169 172 139
f 139 172 140
f 147 72 158
f 158 72 71
f 192 193 191
f 191 193 194
f 167 166 49
f 49 166 195
f 196 190 50
f 50 190 157
f 197 198 200
f 200 198 199
f 21 24 182
f 182 24 181
f 146 159 20
f 20 159 17
f 182 181 81
f 81 181 185
f 201 185 180
f 180 185 181
f 202 203 83
f 83 203 84
f 205 206 204
f 204 206 85
f 207 22 184
f 184 22 21
f 179 24 208
f 208 24 23
f 208 209 179
f 179 209 205
f 209 210 205
f 205 210 206
f 212 206 211
f 211 206 210
f 179 205 180
f 180 205 204
f 213 176 88
f 88 176 214
f 86 85 212
f 212 85 206
f 193 217 218
f 217 219 218
f 218 219 220
f 219 18 220
f 220 18 17
f 19 221 20
f 20 221 144
f 222 223 225
f 225 223 224
f 175 226 176
f 176 226 214
f 227 87 214
f 214 87 88
f 220 17 228
f 228 17 159
f 134 213 60
f 60 213 88
f 138 229 151
f 151 229 152
f 193 192 210
f 210 192 211
f 230 194 218
f 218 194 193
f 231 232 228
f 228 232 230
f 233 234 91
f 91 234 89
f 235 236 93
f 93 236 92
f 230 232 234
f 234 232 237
f 47 238 48
f 48 238 239
f 240 191 235
f 235 191 236
f 5 8 116
f 116 8 241
f 242 243 189
f 189 243 160
f 244 245 98
f 98 245 99
f 156 246 47
f 47 246 238
f 76 247 77
f 77 247 248
f 250 125 249
f 249 125 124
f 252 253 251
f 251 253 254
f 111 110 36
f 36 110 255
f 256 33 255
f 255 33 36
f 257 258 154
f 154 258 155
f 63 169 133
f 133 169 139
f 66 170 63
f 63 170 169
f 173 170 129
f 129 170 66
f 129 128 173
f 173 128 259
f 128 260 259
f 259 260 261
f 213 134 262
f 262 134 137
f 263 264 186
f 186 264 187
f 112 265 113
f 113 265 266
f 11 267 268
f 234 233 230
f 230 233 194
f 153 269 70
f 70 269 67
f 175 178 165
f 165 178 141
f 150 153 94
f 94 153 70
f 271 221 270
f 270 221 207
f 269 153 272
f 272 153 152
f 121 45 109
f 109 45 108
f 47 50 156
f 156 50 157
f 57 273 58
f 58 273 274
f 145 275 260
f 260 275 261
f 276 149 143
f 143 149 78
f 148 269 75
f 75 269 272
f 207 277 270
f 270 277 278
f 195 196 49
f 49 196 50
f 59 135 60
f 60 135 134
f 83 104 202
f 202 104 279
f 149 148 78
f 78 148 75
f 247 278 248
f 248 278 277
f 183 182 84
f 84 182 81
f 48 239 281
f 281 239 282
f 227 223 283
f 283 223 222
f 223 226 224
f 224 226 168
f 281 282 224
f 224 282 225
f 165 168 175
f 175 168 226
f 264 263 138
f 138 263 229
f 14 16 128
f 128 16 260
f 220 228 218
f 218 228 230
f 87 227 284
f 284 227 283
f 260 16 145
f 145 16 146
f 244 98 258
f 258 98 155
f 58 274 156
f 156 274 246
f 107 285 51
f 51 285 55
f 243 286 160
f 160 286 96
f 234 237 89
f 89 237 90
f 46 132 107
f 107 132 285
f 253 252 249
f 249 252 250
f 286 26 96
f 96 26 25
f 106 105 287
f 287 105 288
f 272 152 289
f 289 152 229
f 138 151 139
f 139 151 133
f 183 290 161
f 161 290 162
f 291 292 277
f 277 292 293
f 151 150 133
f 133 150 94
f 262 275 177
f 177 275 187
f 144 187 145
f 145 187 275
f 273 57 284
f 284 57 87
f 174 136 190
f 190 136 135
f 111 117 112
f 112 117 38
f 117 119 38
f 38 119 123
f 112 38 265
f 265 38 37
f 287 288 254
f 254 288 251
f 228 159 231
f 231 159 15
f 223 227 226
f 226 227 214
f 147 67 148
f 148 67 269
f 224 168 281
f 281 168 167
f 199 163 200
f 200 163 162
f 45 46 108
f 108 46 107
f 281 167 48
f 48 167 49
f 161 164 291
f 291 164 292
f 38 123 39
f 293 294 277
f 277 294 248
f 284 283 296
f 296 283 295
f 284 296 273
f 273 296 297
f 274 273 298
f 298 273 297
f 246 274 299
f 299 274 298
f 283 222 295
f 295 222 300
f 222 225 300
f 300 225 301
f 301 225 302
f 302 225 282
f 303 304 300
f 300 304 295
f 306 307 305
f 305 307 308
f 309 310 308
f 308 310 305
f 308 307 312
f 312 307 311
f 313 314 312
f 312 314 315
f 311 316 312
f 312 316 313
f 317 304 311
f 311 304 316
f 315 309 312
f 312 309 308
f 318 319 321
f 321 319 320
f 319 318 309
f 309 318 310
f 311 307 317
f 317 307 306
f 306 297 317
f 317 297 296
f 306 322 297
f 297 322 298
f 305 323 306
f 306 323 322
f 323 305 324
f 324 305 310
f 304 317 295
f 295 317 296
f 318 325 310
f 310 325 324
f 323 324 326
f 326 324 327
f 324 325 327
f 327 325 328
f 326 327 329
f 329 327 330
f 329 331 326
f 326 331 332
f 333 330 328
f 328 330 327
f 323 326 322
f 322 326 332
f 322 332 298
f 298 332 299
f 325 318 334
f 334 318 321
f 313 316 335
f 335 316 304
f 335 336 313
f 313 336 314
f 304 303 335
f 335 303 337
f 336 335 338
f 338 335 337
f 336 339 314
f 314 339 340
f 246 299 238
f 238 299 341
f 239 342 282
f 282 342 302
f 342 239 341
f 341 239 238
f 341 331 342
f 342 331 343
f 331 329 343
f 343 329 344
f 342 343 302
f 302 343 345
f 341 299 331
f 331 299 332
f 346 301 345
f 345 301 302
f 346 303 301
f 301 303 300
f 347 337 346
f 346 337 303
f 347 346 348
f 348 346 345
f 349 347 350
f 350 347 348
f 343 344 345
f 345 344 348
f 344 351 348
f 348 351 350
f 337 347 338
f 338 347 349
f 353 338 352
f 352 338 349
f 352 355 354
f 354 355 356
f 352 349 355
f 355 349 350
f 352 354 353
f 353 354 334
f 353 334 339
f 339 334 321
f 339 336 353
f 353 336 338
f 329 330 344
f 344 330 351
f 356 351 333
f 333 351 330
f 356 355 351
f 351 355 350
f 354 356 328
f 328 356 333
f 328 325 354
f 354 325 334
f 309 315 319
f 319 315 320
f 320 340 321
f 321 340 339
f 320 315 340
f 340 315 314
f 137 136 261
f 261 136 259
f 140 166 141
f 141 166 165
f 172 171 195
f 195 171 196
f 171 174 196
f 196 174 190
f 178 177 264
f 264 177 187
f 172 195 140
f 140 195 166
f 137 261 262
f 262 261 275
f 178 264 141
f 141 264 138
f 262 177 213
f 213 177 176
f 136 174 259
f 259 174 173
f 358 359 357
f 357 359 360
f 362 363 361
f 361 363 364
f 361 364 365
f 365 364 366
f 367 368 370
f 370 368 369
f 76 371 247
f 247 371 372
f 373 374 362
f 362 374 363
f 376 377 375
f 375 377 378
f 289 229 380
f 380 229 379
f 381 379 263
f 263 379 229
f 383 384 382
f 382 384 385
f 386 368 374
f 374 368 363
f 76 289 371
f 371 289 380
f 377 376 359
f 359 376 387
f 388 386 360
f 360 386 374
f 389 383 366
f 366 383 390
f 392 393 391
f 391 393 394
f 383 382 390
f 390 382 395
f 396 365 390
f 390 365 366
f 389 366 367
f 367 366 364
f 357 397 358
f 358 397 398
f 373 399 357
f 357 399 397
f 389 367 400
f 400 367 370
f 382 385 375
f 375 385 372
f 357 360 373
f 373 360 374
f 361 401 362
f 362 401 402
f 387 388 359
f 359 388 360
f 363 368 364
f 364 368 367
f 358 398 403
f 403 398 404
f 396 392 405
f 405 392 391
f 392 395 393
f 393 395 378
f 393 403 394
f 394 403 404
f 375 378 382
f 382 378 395
f 365 396 406
f 406 396 405
f 362 402 373
f 373 402 399
f 271 270 400
f 400 270 384
f 401 361 406
f 406 361 365
f 381 369 386
f 386 369 368
f 392 396 395
f 395 396 390
f 393 378 403
f 403 378 377
f 403 377 358
f 358 377 359
f 406 405 408
f 408 405 407
f 406 408 401
f 401 408 409
f 401 409 402
f 402 409 410
f 402 410 399
f 399 410 411
f 405 391 407
f 407 391 412
f 391 394 412
f 412 394 413
f 394 404 413
f 413 404 414
f 415 416 412
f 412 416 407
f 418 419 417
f 417 419 420
f 421 422 418
f 418 422 419
f 419 422 424
f 424 422 423
f 425 426 424
f 424 426 427
f 423 428 424
f 424 428 425
f 427 420 424
f 424 420 419
f 420 429 417
f 417 429 430
f 423 422 431
f 431 422 421
f 421 409 431
f 431 409 408
f 421 432 409
f 409 432 410
f 418 433 421
f 421 433 432
f 434 433 417
f 417 433 418
f 431 416 423
f 423 416 428
f 416 431 407
f 407 431 408
f 435 434 430
f 430 434 417
f 433 434 436
f 436 434 437
f 434 435 437
f 437 435 438
f 436 437 439
f 439 437 440
f 439 441 436
f 436 441 442
f 438 443 437
f 437 443 440
f 436 442 433
f 433 442 432
f 432 442 410
f 410 442 411
f 435 430 445
f 445 430 444
f 430 429 444
f 444 429 446
f 425 428 447
f 447 428 416
f 426 425 448
f 448 425 447
f 416 415 447
f 447 415 449
f 447 449 448
f 448 449 450
f 451 452 448
f 448 452 426
f 446 452 444
f 444 452 451
f 399 411 397
f 397 411 453
f 398 454 404
f 404 454 414
f 454 398 453
f 453 398 397
f 453 441 454
f 454 441 455
f 441 439 455
f 455 439 456
f 454 455 414
f 414 455 457
f 441 453 442
f 442 453 411
f 458 413 457
f 457 413 414
f 458 415 413
f 413 415 412
f 458 459 415
f 415 459 449
f 459 458 460
f 460 458 457
f 461 459 462
f 462 459 460
f 455 456 457
f 457 456 460
f 456 463 460
f 460 463 462
f 459 461 449
f 449 461 450
f 465 450 464
f 464 450 461
f 464 467 466
f 466 467 468
f 464 461 467
f 467 461 462
f 464 466 465
f 465 466 445
f 465 445 451
f 451 445 444
f 451 448 465
f 465 448 450
f 439 440 456
f 456 440 463
f 468 463 443
f 443 463 440
f 468 467 463
f 463 467 462
f 466 468 438
f 438 468 443
f 438 435 466
f 466 435 445
f 420 427 429
f 429 427 446
f 446 427 452
f 452 427 426
f 370 369 188
f 188 369 186
f 371 376 372
f 372 376 375
f 380 379 387
f 387 379 388
f 379 381 388
f 388 381 386
f 385 384 278
f 278 384 270
f 380 387 371
f 371 387 376
f 400 370 271
f 271 370 188
f 385 278 372
f 372 278 247
f 400 384 389
f 389 384 383
f 369 381 186
f 186 381 263
f 221 271 144
f 144 271 188
f 221 19 207
f 207 19 22
f 19 18 22
f 22 18 23
f 18 219 23
f 23 219 208
f 469 470 472
f 472 470 471
f 474 475 473
f 473 475 476
f 473 476 477
f 477 476 478
f 480 481 479
f 479 481 482
f 483 484 474
f 474 484 475
f 486 487 485
f 485 487 488
f 489 490 77
f 77 490 142
f 491 489 248
f 248 489 77
f 493 494 492
f 492 494 495
f 496 480 484
f 484 480 475
f 486 497 487
f 487 497 471
f 498 496 472
f 472 496 484
f 499 493 478
f 478 493 500
f 501 502 504
f 504 502 503
f 493 492 500
f 500 492 505
f 506 477 500
f 500 477 478
f 499 478 479
f 479 478 476
f 469 507 470
f 470 507 508
f 483 509 469
f 469 509 507
f 479 482 499
f 499 482 510
f 492 495 485
f 485 495 511
f 483 469 484
f 484 469 472
f 473 512 474
f 474 512 513
f 497 498 471
f 471 498 472
f 475 480 476
f 476 480 479
f 470 508 514
f 514 508 515
f 506 502 516
f 516 502 501
f 503 502 488
f 488 502 505
f 514 515 503
f 503 515 504
f 485 488 492
f 492 488 505
f 477 506 517
f 517 506 516
f 474 513 483
f 483 513 509
f 510 292 494
f 494 292 164
f 512 473 517
f 517 473 477
f 491 481 496
f 496 481 480
f 502 506 505
f 505 506 500
f 503 488 514
f 514 488 487
f 514 487 470
f 470 487 471
f 517 516 519
f 519 516 518
f 517 519 512
f 512 519 520
f 512 520 513
f 513 520 521
f 513 521 509
f 509 521 522
f 516 501 518
f 518 501 523
f 501 504 523
f 523 504 524
f 524 504 525
f 525 504 515
f 526 527 523
f 523 527 518
f 529 530 528
f 528 530 531
f 532 533 529
f 529 533 530
f 530 533 535
f 535 533 534
f 536 537 535
f 535 537 538
f 534 539 535
f 535 539 536
f 538 531 535
f 535 531 530
f 540 541 531
f 531 541 528
f 533 532 534
f 534 532 542
f 532 520 542
f 542 520 519
f 532 543 520
f 520 543 521
f 529 544 532
f 532 544 543
f 544 529 545
f 545 529 528
f 534 542 539
f 539 542 527
f 527 542 518
f 518 542 519
f 541 546 528
f 528 546 545
f 547 544 548
f 548 544 545
f 546 549 545
f 545 549 548
f 550 547 551
f 551 547 548
f 547 550 553
f 553 550 552
f 549 554 548
f 548 554 551
f 544 547 543
f 543 547 553
f 543 553 521
f 521 553 522
f 546 541 556
f 556 541 555
f 541 540 555
f 555 540 557
f 536 539 558
f 558 539 527
f 537 536 559
f 559 536 558
f 527 526 558
f 558 526 560
f 559 558 561
f 561 558 560
f 559 562 537
f 537 562 563
f 557 563 555
f 555 563 562
f 509 522 507
f 507 522 564
f 508 565 515
f 515 565 525
f 565 508 564
f 564 508 507
f 564 552 565
f 565 552 566
f 552 550 566
f 566 550 567
f 565 566 525
f 525 566 568
f 564 522 552
f 552 522 553
f 569 524 568
f 568 524 525
f 569 526 524
f 524 526 523
f 570 560 569
f 569 560 526
f 570 569 571
f 571 569 568
f 572 570 573
f 573 570 571
f 566 567 568
f 568 567 571
f 567 574 571
f 571 574 573
f 570 572 560
f 560 572 561
f 576 561 575
f 575 561 572
f 575 578 577
f 577 578 579
f 575 572 578
f 578 572 573
f 575 577 576
f 576 577 556
f 576 556 562
f 562 556 555
f 562 559 576
f 576 559 561
f 550 551 567
f 567 551 574
f 579 574 554
f 554 574 551
f 579 578 574
f 574 578 573
f 579 554 577
f 577 554 549
f 549 546 577
f 577 546 556
f 531 538 540
f 540 538 557
f 557 538 563
f 563 538 537
f 481 294 482
f 482 294 293
f 580 486 511
f 511 486 485
f 490 489 497
f 497 489 498
f 489 491 498
f 498 491 496
f 163 495 164
f 164 495 494
f 580 490 486
f 486 490 497
f 482 293 510
f 510 293 292
f 495 163 511
f 511 163 199
f 494 493 510
f 510 493 499
f 481 491 294
f 294 491 248
f 582 583 581
f 581 583 584
f 586 587 585
f 585 587 588
f 585 588 589
f 589 588 590
f 592 593 591
f 591 593 594
f 595 596 598
f 598 596 597
f 599 600 586
f 586 600 587
f 601 602 604
f 604 602 603
f 605 606 608
f 608 606 607
f 609 607 200
f 200 607 606
f 610 611 613
f 613 611 612
f 600 614 587
f 587 614 592
f 596 605 597
f 597 605 608
f 602 615 603
f 603 615 583
f 616 614 584
f 584 614 600
f 611 618 617
f 617 618 590
f 620 621 619
f 619 621 622
f 610 623 611
f 611 623 618
f 624 589 618
f 618 589 590
f 617 590 591
f 591 590 588
f 581 625 582
f 582 625 626
f 599 627 581
f 581 627 625
f 591 594 617
f 617 594 628
f 601 610 598
f 598 610 613
f 581 584 599
f 599 584 600
f 585 629 586
f 586 629 630
f 615 616 583
f 583 616 584
f 587 592 588
f 588 592 591
f 582 626 631
f 631 626 632
f 624 620 633
f 633 620 619
f 621 620 604
f 604 620 623
f 631 632 621
f 621 632 622
f 610 601 623
f 623 601 604
f 589 624 634
f 634 624 633
f 586 630 599
f 599 630 627
f 203 202 628
f 628 202 612
f 629 585 634
f 634 585 589
f 609 593 614
f 614 593 592
f 620 624 623
f 623 624 618
f 631 621 603
f 603 621 604
f 582 631 583
f 583 631 603
f 634 633 636
f 636 633 635
f 634 636 629
f 629 636 637
f 629 637 630
f 630 637 638
f 630 638 627
f 627 638 639
f 633 619 635
f 635 619 640
f 619 622 640
f 640 622 641
f 641 622 642
f 642 622 632
f 644 635 643
f 643 635 640
f 645 646 648
f 648 646 647
f 649 650 646
f 646 650 647
f 647 650 652
f 652 650 651
f 652 653 655
f 655 653 654
f 651 656 652
f 652 656 653
f 655 648 652
f 652 648 647
f 648 657 645
f 645 657 658
f 650 649 651
f 651 649 659
f 649 637 659
f 659 637 636
f 649 660 637
f 637 660 638
f 661 660 646
f 646 660 649
f 662 661 645
f 645 661 646
f 651 659 656
f 656 659 644
f 644 659 635
f 635 659 636
f 663 662 658
f 658 662 645
f 664 661 665
f 665 661 662
f 663 666 662
f 662 666 665
f 667 664 668
f 668 664 665
f 664 667 670
f 670 667 669
f 666 671 665
f 665 671 668
f 661 664 660
f 660 664 670
f 660 670 638
f 638 670 639
f 658 672 663
f 663 672 673
f 658 657 672
f 672 657 674
f 653 656 675
f 675 656 644
f 653 675 654
f 654 675 676
f 675 644 677
f 677 644 643
f 676 675 678
f 678 675 677
f 679 680 676
f 676 680 654
f 674 680 672
f 672 680 679
f 627 639 625
f 625 639 681
f 626 682 632
f 632 682 642
f 681 682 625
f 625 682 626
f 669 683 681
f 681 683 682
f 667 684 669
f 669 684 683
f 682 683 642
f 642 683 685
f 681 639 669
f 669 639 670
f 686 641 685
f 685 641 642
f 641 686 640
f 640 686 643
f 686 687 643
f 643 687 677
f 687 686 688
f 688 686 685
f 689 687 690
f 690 687 688
f 683 684 685
f 685 684 688
f 684 691 688
f 688 691 690
f 687 689 677
f 677 689 678
f 693 678 692
f 692 678 689
f 692 695 694
f 694 695 696
f 692 689 695
f 695 689 690
f 692 694 693
f 693 694 673
f 693 673 679
f 679 673 672
f 679 676 693
f 693 676 678
f 684 667 691
f 691 667 668
f 696 691 671
f 671 691 668
f 696 695 691
f 691 695 690
f 694 696 666
f 666 696 671
f 666 663 694
f 694 663 673
f 648 655 657
f 657 655 674
f 674 655 680
f 680 655 654
f 593 162 594
f 594 162 290
f 598 597 601
f 601 597 602
f 615 608 616
f 616 608 607
f 607 609 616
f 616 609 614
f 697 595 613
f 613 595 598
f 597 608 602
f 602 608 615
f 594 290 628
f 628 290 203
f 628 612 617
f 617 612 611
f 593 609 162
f 162 609 200
f 105 29 698
f 698 29 699
f 268 126 701
f 701 126 700
f 126 125 700
f 700 125 702
f 252 703 250
f 250 703 704
f 32 268 705
f 705 268 701
f 288 105 706
f 706 105 698
f 29 32 699
f 699 32 705
f 707 251 706
f 706 251 288
f 250 704 125
f 125 704 702
f 703 252 707
f 707 252 251
f 706 708 707
f 707 708 709
f 707 709 703
f 703 709 710
f 703 710 704
f 704 710 711
f 704 711 702
f 702 711 712
f 706 698 708
f 708 698 713
f 698 699 713
f 713 699 714
f 699 705 714
f 714 705 715
f 717 708 716
f 716 708 713
f 719 720 718
f 718 720 721
f 722 723 719
f 719 723 720
f 724 725 723
f 723 725 720
f 724 726 725
f 725 726 727
f 728 721 725
f 725 721 720
f 721 728 729
f 729 728 730
f 729 731 721
f 721 731 718
f 724 723 732
f 732 723 722
f 722 710 732
f 732 710 709
f 722 733 710
f 710 733 711
f 719 734 722
f 722 734 733
f 734 719 735
f 735 719 718
f 724 732 726
f 726 732 717
f 717 732 708
f 708 732 709
f 731 736 718
f 718 736 735
f 737 734 738
f 738 734 735
f 736 739 735
f 735 739 738
f 740 737 741
f 741 737 738
f 737 740 743
f 743 740 742
f 739 744 738
f 738 744 741
f 734 737 733
f 733 737 743
f 733 743 711
f 711 743 712
f 736 731 746
f 746 731 745
f 731 729 745
f 745 729 730
f 727 726 747
f 747 726 717
f 748 727 749
f 749 727 747
f 747 717 750
f 750 717 716
f 749 747 751
f 751 747 750
f 749 752 748
f 748 752 753
f 730 753 745
f 745 753 752
f 728 725 748
f 748 725 727
f 730 728 753
f 753 728 748
f 700 702 754
f 754 702 712
f 705 701 715
f 715 701 755
f 754 755 700
f 700 755 701
f 742 756 754
f 754 756 755
f 740 757 742
f 742 757 756
f 755 756 715
f 715 756 758
f 754 712 742
f 742 712 743
f 759 714 758
f 758 714 715
f 714 759 713
f 713 759 716
f 759 760 716
f 716 760 750
f 760 759 761
f 761 759 758
f 762 760 763
f 763 760 761
f 756 757 758
f 758 757 761
f 757 764 761
f 761 764 763
f 760 762 750
f 750 762 751
f 766 751 765
f 765 751 762
f 767 765 769
f 769 765 768
f 765 762 768
f 768 762 763
f 765 767 766
f 766 767 746
f 766 746 752
f 752 746 745
f 752 749 766
f 766 749 751
f 757 740 764
f 764 740 741
f 769 764 744
f 744 764 741
f 769 768 764
f 764 768 763
f 767 769 739
f 739 769 744
f 739 736 767
f 767 736 746
f 219 217 208
f 208 217 209
f 209 217 210
f 210 217 193
f 198 580 199
f 199 580 511
f 76 75 289
f 289 75 272
f 277 207 291
f 291 207 184
f 290 183 203
f 203 183 84
f 490 580 142
f 142 580 198
f 142 198 143
f 143 198 197
f 149 276 72
f 72 276 73
f 104 103 279
f 279 103 770
f 770 596 279
f 279 596 595
f 605 596 771
f 771 596 770
f 771 770 772
f 772 770 103
f 772 103 773
f 773 103 102
f 155 774 101
f 101 774 102
f 773 102 97
f 97 102 774
f 775 773 100
f 100 773 97
f 773 775 772
f 772 775 776
f 772 776 771
f 771 776 777
f 200 606 197
f 197 606 777
f 189 71 778
f 778 71 74
f 97 774 98
f 98 774 155
f 183 161 184
f 184 161 291
f 777 276 197
f 197 276 143
f 777 606 771
f 771 606 605
f 613 612 697
f 697 612 202
f 595 697 279
f 279 697 202
f 73 276 776
f 776 276 777
f 776 775 73
f 73 775 74
f 100 778 775
f 775 778 74
f 778 100 189
f 189 100 99
f 245 242 99
f 99 242 189
f 131 33 256
f 28 1 95
f 95 1 62
f 27 2 28
f 28 2 1
f 265 115 266
f 266 115 114
f 95 62 69
f 69 62 64
f 62 61 64
f 64 61 65
f 61 13 65
f 65 13 130
f 13 12 130
f 130 12 14
f 31 11 32
f 32 11 268
f 15 12 31
f 31 12 11
f 31 30 15
f 15 30 231
f 30 106 231
f 231 106 232
f 287 237 106
f 106 237 232
f 254 90 287
f 287 90 237
f 253 44 254
f 254 44 90
f 253 249 44
f 44 249 7
f 267 127 268
f 268 127 126
f 10 3 241
f 241 3 116
f 3 2 116
f 116 2 114
f 2 27 114
f 114 27 266
f 27 26 266
f 266 26 113
f 26 286 113
f 113 286 110
f 286 243 110
f 110 243 255
f 243 242 255
f 255 242 256
f 242 245 256
f 256 245 131
f 245 244 131
f 131 244 132
f 265 37 115
f 115 37 41
f 41 37 42
f 42 37 40
f 92 91 40
f 40 91 42
f 236 233 92
f 92 233 91
f 191 194 236
f 236 194 233
f 258 285 244
f 244 285 132
f 257 55 258
f 258 55 285
f 257 154 201
f 201 154 185
f 56 201 204
f 204 201 180
f 55 257 56
f 56 257 201
f 204 85 56
f 56 85 52
f 86 122 53
f 53 122 79
f 212 215 86
f 86 215 122
f 211 216 212
f 212 216 215
f 192 280 211
f 211 280 216
f 191 240 192
f 192 240 280
f 249 124 7
f 7 124 8
f 124 127 8
f 8 127 241
f 127 267 241
f 241 267 10
f 10 267 9
f 9 267 11
f 93 39 235
f 235 39 240
f 39 123 240
f 240 123 280
f 123 119 280
f 280 119 216
f 119 118 216
f 216 118 215
f 118 120 215
f 215 120 122
f 120 121 122
f 122 121 79
f 121 109 79
f 79 109 80

