# https://github.com/mikedh/trimesh
v -0.10102203 0.09367467 -14.33438206 0.25098039 0.27450980 0.65882353
v -0.10898536 0.09823090 -14.33903599 0.25098039 0.27450980 0.65882353
v -0.10248114 0.09384042 -14.34702492 0.25098039 0.27450980 0.65882353
v -0.09385915 0.08979429 -14.34051609 0.25098039 0.27450980 0.65882353
v -0.11934271 0.10625772 -14.35766697 0.25098039 0.27450980 0.65882353
v -0.11782113 0.11723249 -14.36378288 0.25098039 0.27450980 0.65882353
v -0.10800205 0.10700309 -14.37017918 0.25098039 0.27450980 0.65882353
v -0.11137241 0.09935568 -14.36460018 0.25098039 0.27450980 0.65882353
v -0.08725382 0.08832792 -14.34451675 0.25098039 0.27450980 0.65882353
v -0.09729296 0.08949986 -14.35274220 0.25098039 0.27450980 0.65882353
v -0.08325577 0.09236961 -14.34687233 0.25098039 0.27450980 0.65882353
v -0.07323161 0.09413978 -14.33393574 0.25098039 0.27450980 0.65882353
v -0.07851037 0.08971826 -14.33522797 0.25098039 0.27450980 0.65882353
v -0.06841668 0.09194207 -14.32576656 0.25098039 0.27450980 0.65882353
v -0.07364857 0.10377542 -14.32972813 0.25098039 0.27450980 0.65882353
v -0.06955720 0.09539567 -14.31678104 0.25098039 0.27450980 0.65882353
v -0.09255508 0.10679179 -14.30306244 0.25098039 0.27450980 0.65882353
v -0.10389176 0.10429032 -14.29675961 0.25098039 0.27450980 0.65882353
v -0.09587532 0.09192450 -14.29203701 0.25098039 0.27450980 0.65882353
v -0.08523388 0.09541343 -14.29950714 0.25098039 0.27450980 0.65882353
v -0.11556722 0.08933184 -14.28952980 0.25098039 0.27450980 0.65882353
v -0.10432254 0.09011745 -14.29030037 0.25098039 0.27450980 0.65882353
v -0.11208934 0.10324362 -14.29424477 0.25098039 0.27450980 0.65882353
v -0.12192917 0.10205664 -14.29323864 0.25098039 0.27450980 0.65882353
v -0.11535227 0.09673079 -14.32640934 0.25098039 0.27450980 0.65882353
v -0.12316041 0.10223972 -14.32997227 0.25098039 0.27450980 0.65882353
v -0.11757234 0.10171963 -14.33156109 0.25098039 0.27450980 0.65882353
v -0.11025824 0.09694986 -14.32880592 0.25098039 0.27450980 0.65882353
v -0.08122727 0.09809443 -14.36018658 0.25098039 0.27450980 0.65882353
v -0.08056909 0.10766821 -14.35005474 0.25098039 0.27450980 0.65882353
v -0.07947004 0.10028081 -14.34712505 0.25098039 0.27450980 0.65882353
v -0.08396392 0.09342288 -14.35938549 0.25098039 0.27450980 0.65882353
v -0.14726517 0.11481094 -14.33765316 0.25098039 0.27450980 0.65882353
v -0.15119798 0.12810934 -14.33736801 0.25098039 0.27450980 0.65882353
v -0.14630923 0.13023420 -14.33963680 0.25098039 0.27450980 0.65882353
v -0.14392051 0.11770509 -14.33896923 0.25098039 0.27450980 0.65882353
v -0.12981597 0.12900186 -14.35333157 0.25098039 0.27450980 0.65882353
v -0.13308874 0.13734807 -14.34873867 0.25098039 0.27450980 0.65882353
v -0.12541988 0.14916334 -14.34781742 0.25098039 0.27450980 0.65882353
v -0.11965489 0.14216447 -14.35140324 0.25098039 0.27450980 0.65882353
v -0.12408558 0.12202146 -14.35876846 0.25098039 0.27450980 0.65882353
v -0.11630394 0.13343206 -14.35865021 0.25098039 0.27450980 0.65882353
v -0.11091992 0.12647802 -14.36451435 0.25098039 0.27450980 0.65882353
v -0.10235424 0.11405209 -14.37193775 0.25098039 0.27450980 0.65882353
v -0.16036227 0.12481622 -14.32931519 0.25098039 0.27450980 0.65882353
v -0.15951474 0.11484731 -14.32845116 0.25098039 0.27450980 0.65882353
v -0.04428132 0.05121914 -14.31877995 0.25098039 0.27450980 0.65882353
v -0.04840997 0.04786277 -14.31650734 0.25098039 0.27450980 0.65882353
v -0.05038816 0.05149586 -14.31645966 0.25098039 0.27450980 0.65882353
v -0.04602619 0.05432014 -14.31835079 0.25098039 0.27450980 0.65882353
v -0.16081351 0.12232795 -14.30955410 0.25098039 0.27450980 0.65882353
v -0.15567687 0.12660144 -14.30188942 0.25098039 0.27450980 0.65882353
v -0.16017300 0.13100657 -14.30431461 0.25098039 0.27450980 0.65882353
v -0.16350453 0.12834369 -14.31233883 0.25098039 0.27450980 0.65882353
v -0.15685593 0.11433136 -14.30560398 0.25098039 0.27450980 0.65882353
v -0.14933033 0.12007724 -14.29903221 0.25098039 0.27450980 0.65882353
v -0.03541479 0.05216318 -14.31012917 0.25098039 0.27450980 0.65882353
v -0.03669003 0.05276520 -14.31498623 0.25098039 0.27450980 0.65882353
v -0.03828603 0.05709036 -14.31314468 0.25098039 0.27450980 0.65882353
v -0.03769822 0.05688697 -14.30786324 0.25098039 0.27450980 0.65882353
v -0.08567379 0.08805367 -14.33428288 0.25098039 0.27450980 0.65882353
v -0.09429663 0.08823051 -14.33098125 0.25098039 0.27450980 0.65882353
v -0.07457419 0.07508089 -14.32511616 0.25098039 0.27450980 0.65882353
v -0.08311982 0.08084358 -14.32633305 0.25098039 0.27450980 0.65882353
v -0.07798493 0.08469898 -14.32953548 0.25098039 0.27450980 0.65882353
v -0.07093602 0.08062328 -14.32700443 0.25098039 0.27450980 0.65882353
v -0.10430455 0.07884239 -14.31660652 0.25098039 0.27450980 0.65882353
v -0.11100713 0.08780191 -14.32058907 0.25098039 0.27450980 0.65882353
v -0.10478029 0.08871403 -14.32256603 0.25098039 0.27450980 0.65882353
v -0.09643139 0.07867655 -14.31982327 0.25098039 0.27450980 0.65882353
v -0.12365492 0.08325580 -14.31717682 0.25098039 0.27450980 0.65882353
v -0.11606859 0.07508058 -14.31344795 0.25098039 0.27450980 0.65882353
v -0.12435607 0.07359687 -14.31213284 0.25098039 0.27450980 0.65882353
v -0.12863158 0.07924163 -14.31567478 0.25098039 0.27450980 0.65882353
v -0.09973443 0.06187174 -14.30653954 0.25098039 0.27450980 0.65882353
v -0.09363763 0.05773830 -14.30116272 0.25098039 0.27450980 0.65882353
v -0.09589615 0.05658884 -14.29933643 0.25098039 0.27450980 0.65882353
v -0.10270694 0.06138821 -14.30531597 0.25098039 0.27450980 0.65882353
v -0.16378415 0.13619275 -14.30553055 0.25098039 0.27450980 0.65882353
v -0.16482803 0.13452515 -14.31455326 0.25098039 0.27450980 0.65882353
v -0.13529310 0.08476053 -14.28954887 0.25098039 0.27450980 0.65882353
v -0.14471039 0.08334080 -14.29485321 0.25098039 0.27450980 0.65882353
v -0.14064562 0.07181375 -14.29113293 0.25098039 0.27450980 0.65882353
v -0.13229494 0.07639769 -14.28666878 0.25098039 0.27450980 0.65882353
v -0.14685494 0.13047194 -14.29840374 0.25098039 0.27450980 0.65882353
v -0.15252751 0.13470587 -14.29908562 0.25098039 0.27450980 0.65882353
v -0.03705813 0.04973234 -14.30492115 0.25098039 0.27450980 0.65882353
v -0.03927901 0.05433729 -14.30270672 0.25098039 0.27450980 0.65882353
v -0.10255751 0.13326719 -14.35613060 0.25098039 0.27450980 0.65882353
v -0.09456527 0.11889090 -14.36761475 0.25098039 0.27450980 0.65882353
v -0.10948385 0.14269879 -14.34805202 0.25098039 0.27450980 0.65882353
v -0.11407542 0.14902583 -14.34203243 0.25098039 0.27450980 0.65882353
v -0.11834953 0.15513900 -14.33959770 0.25098039 0.27450980 0.65882353
v -0.08524458 0.07542047 -14.32230091 0.25098039 0.27450980 0.65882353
v -0.10248895 0.09133779 -14.32747459 0.25098039 0.27450980 0.65882353
v -0.12001373 0.09542106 -14.32445908 0.25098039 0.27450980 0.65882353
v -0.14618000 0.08246043 -14.31613922 0.25098039 0.27450980 0.65882353
v -0.15202349 0.09089014 -14.31980896 0.25098039 0.27450980 0.65882353
v -0.14166871 0.09039916 -14.32346725 0.25098039 0.27450980 0.65882353
v -0.13866515 0.08320320 -14.31896973 0.25098039 0.27450980 0.65882353
v -0.14830343 0.07823017 -14.30149078 0.25098039 0.27450980 0.65882353
v -0.14505081 0.07488777 -14.30757046 0.25098039 0.27450980 0.65882353
v -0.14041904 0.06748483 -14.30496407 0.25098039 0.27450980 0.65882353
v -0.14338683 0.06960931 -14.29863644 0.25098039 0.27450980 0.65882353
v -0.08014672 0.10257883 -14.36548996 0.25098039 0.27450980 0.65882353
v -0.08177897 0.11342832 -14.35317230 0.25098039 0.27450980 0.65882353
v -0.16280399 0.11877924 -14.31898689 0.25098039 0.27450980 0.65882353
v -0.16343063 0.12572834 -14.32209682 0.25098039 0.27450980 0.65882353
v -0.16440812 0.13429444 -14.32179928 0.25098039 0.27450980 0.65882353
v -0.13485809 0.10840388 -14.33466721 0.25098039 0.27450980 0.65882353
v -0.14174566 0.11964567 -14.33998966 0.25098039 0.27450980 0.65882353
v -0.13878724 0.11976644 -14.34230518 0.25098039 0.27450980 0.65882353
v -0.13205829 0.10849917 -14.33509541 0.25098039 0.27450980 0.65882353
v -0.11935177 0.10279074 -14.34389496 0.25098039 0.27450980 0.65882353
v -0.12736838 0.11217827 -14.34991932 0.25098039 0.27450980 0.65882353
v -0.11321948 0.09719275 -14.35220814 0.25098039 0.27450980 0.65882353
v -0.14098187 0.13441414 -14.34340763 0.25098039 0.27450980 0.65882353
v -0.14968526 0.13987824 -14.34077835 0.25098039 0.27450980 0.65882353
v -0.14264578 0.14365633 -14.34411430 0.25098039 0.27450980 0.65882353
v -0.15681946 0.13716049 -14.33510017 0.25098039 0.27450980 0.65882353
v -0.16173369 0.13485347 -14.32833195 0.25098039 0.27450980 0.65882353
v -0.15683010 0.14034876 -14.29705143 0.25098039 0.27450980 0.65882353
v -0.13535702 0.14698878 -14.34623718 0.25098039 0.27450980 0.65882353
v -0.10475969 0.09409048 -14.36872482 0.25098039 0.27450980 0.65882353
v -0.09893709 0.08915845 -14.37217522 0.25098039 0.27450980 0.65882353
v -0.09596090 0.08661880 -14.36569405 0.25098039 0.27450980 0.65882353
v -0.10154960 0.09020063 -14.36184311 0.25098039 0.27450980 0.65882353
v -0.06290734 0.08723795 -14.31929111 0.25098039 0.27450980 0.65882353
v -0.06603849 0.08358903 -14.32491493 0.25098039 0.27450980 0.65882353
v -0.07231492 0.08898519 -14.33067989 0.25098039 0.27450980 0.65882353
v -0.14596093 0.10512984 -14.33220005 0.25098039 0.27450980 0.65882353
v -0.15714487 0.10521911 -14.32461643 0.25098039 0.27450980 0.65882353
v -0.07577103 0.07000182 -14.32043457 0.25098039 0.27450980 0.65882353
v -0.04090701 0.06152524 -14.30742359 0.25098039 0.27450980 0.65882353
v -0.04130435 0.06173158 -14.31314850 0.25098039 0.27450980 0.65882353
v -0.05342087 0.07586622 -14.31603718 0.25098039 0.27450980 0.65882353
v -0.05274653 0.07590739 -14.30914593 0.25098039 0.27450980 0.65882353
v -0.07017472 0.06534194 -14.31056976 0.25098039 0.27450980 0.65882353
v -0.07129179 0.06652488 -14.31724739 0.25098039 0.27450980 0.65882353
v -0.06860383 0.06532963 -14.31495857 0.25098039 0.27450980 0.65882353
v -0.06792694 0.06191297 -14.30933666 0.25098039 0.27450980 0.65882353
v -0.10485472 0.05625035 -14.30034161 0.25098039 0.27450980 0.65882353
v -0.11078814 0.06070662 -14.30486202 0.25098039 0.27450980 0.65882353
v -0.07830034 0.08122759 -14.29732037 0.25098039 0.27450980 0.65882353
v -0.06949368 0.08969105 -14.30281353 0.25098039 0.27450980 0.65882353
v -0.07605080 0.09800197 -14.30665016 0.25098039 0.27450980 0.65882353
v -0.11131503 0.07754508 -14.31474876 0.25098039 0.27450980 0.65882353
v -0.10577190 0.06894027 -14.31097126 0.25098039 0.27450980 0.65882353
v -0.10935774 0.06786048 -14.30963135 0.25098039 0.27450980 0.65882353
v -0.08506411 0.07176831 -14.31879044 0.25098039 0.27450980 0.65882353
v -0.07778396 0.06701868 -14.31559658 0.25098039 0.27450980 0.65882353
v -0.08388522 0.06766864 -14.31438351 0.25098039 0.27450980 0.65882353
v -0.09021999 0.07227498 -14.31645966 0.25098039 0.27450980 0.65882353
v -0.14971480 0.09516074 -14.29748344 0.25098039 0.27450980 0.65882353
v -0.15425029 0.08922480 -14.30494404 0.25098039 0.27450980 0.65882353
v -0.03996633 0.05267283 -14.31819439 0.25098039 0.27450980 0.65882353
v -0.04153274 0.05643617 -14.31703949 0.25098039 0.27450980 0.65882353
v -0.11757453 0.08637399 -14.31833076 0.25098039 0.27450980 0.65882353
v -0.08348909 0.10759005 -14.31169128 0.25098039 0.27450980 0.65882353
v -0.12478375 0.09377155 -14.32314014 0.25098039 0.27450980 0.65882353
v -0.11596145 0.06786044 -14.28581619 0.25098039 0.27450980 0.65882353
v -0.11851089 0.06205419 -14.29069996 0.25098039 0.27450980 0.65882353
v -0.11401958 0.05784369 -14.28920650 0.25098039 0.27450980 0.65882353
v -0.11209656 0.06102532 -14.28392029 0.25098039 0.27450980 0.65882353
v -0.05722553 0.05097459 -14.30668259 0.25098039 0.27450980 0.65882353
v -0.05690397 0.05100559 -14.31233692 0.25098039 0.27450980 0.65882353
v -0.05332540 0.04850210 -14.31174088 0.25098039 0.27450980 0.65882353
v -0.05318308 0.04766440 -14.30603409 0.25098039 0.27450980 0.65882353
v -0.06936008 0.06994068 -14.32156372 0.25098039 0.27450980 0.65882353
v -0.06599846 0.07517748 -14.32394123 0.25098039 0.27450980 0.65882353
v -0.06225604 0.06999148 -14.32195377 0.25098039 0.27450980 0.65882353
v -0.06575499 0.06689332 -14.31863213 0.25098039 0.27450980 0.65882353
v -0.06101966 0.07849673 -14.32164192 0.25098039 0.27450980 0.65882353
v -0.05728738 0.07381023 -14.32087231 0.25098039 0.27450980 0.65882353
v -0.05395903 0.05311368 -14.30148792 0.25098039 0.27450980 0.65882353
v -0.04780775 0.05680240 -14.29941750 0.25098039 0.27450980 0.65882353
v -0.05994447 0.06901101 -14.30027962 0.25098039 0.27450980 0.65882353
v -0.06378651 0.06288540 -14.30324554 0.25098039 0.27450980 0.65882353
v -0.12723710 0.11499612 -14.29605961 0.25098039 0.27450980 0.65882353
v -0.13746928 0.11180548 -14.29482937 0.25098039 0.27450980 0.65882353
v -0.13203010 0.09875512 -14.29219723 0.25098039 0.27450980 0.65882353
v -0.12697242 0.08636787 -14.28888702 0.25098039 0.27450980 0.65882353
v -0.12157039 0.07411827 -14.28656864 0.25098039 0.27450980 0.65882353
v -0.11099696 0.07856072 -14.28517342 0.25098039 0.27450980 0.65882353
v -0.13970858 0.09740283 -14.29272842 0.25098039 0.27450980 0.65882353
v -0.07383296 0.06871762 -14.30267620 0.25098039 0.27450980 0.65882353
v -0.06902090 0.07679759 -14.30089760 0.25098039 0.27450980 0.65882353
v -0.07493506 0.07448680 -14.29873276 0.25098039 0.27450980 0.65882353
v -0.13136429 0.09067559 -14.32226372 0.25098039 0.27450980 0.65882353
v -0.04432078 0.06041802 -14.31774712 0.25098039 0.27450980 0.65882353
v -0.11470102 0.14874271 -14.31821918 0.25098039 0.27450980 0.65882353
v -0.12265103 0.14585656 -14.30772972 0.25098039 0.27450980 0.65882353
v -0.11851465 0.13932529 -14.30876446 0.25098039 0.27450980 0.65882353
v -0.10955421 0.14233741 -14.32095146 0.25098039 0.27450980 0.65882353
v -0.05400021 0.05363127 -14.31784630 0.25098039 0.27450980 0.65882353
v -0.04914148 0.05716114 -14.32033062 0.25098039 0.27450980 0.65882353
v -0.11590552 0.05789015 -14.30268383 0.25098039 0.27450980 0.65882353
v -0.11015789 0.05496907 -14.29871464 0.25098039 0.27450980 0.65882353
v -0.11187749 0.05431972 -14.29506016 0.25098039 0.27450980 0.65882353
v -0.11897068 0.05455063 -14.29979324 0.25098039 0.27450980 0.65882353
v -0.14319062 0.11127453 -14.29522896 0.25098039 0.27450980 0.65882353
v -0.13894270 0.06429284 -14.29075336 0.25098039 0.27450980 0.65882353
v -0.13158201 0.06864180 -14.28577805 0.25098039 0.27450980 0.65882353
v -0.14169694 0.12338506 -14.29716778 0.25098039 0.27450980 0.65882353
v -0.13270222 0.12619381 -14.29778194 0.25098039 0.27450980 0.65882353
v -0.13679504 0.13405666 -14.29849434 0.25098039 0.27450980 0.65882353
v -0.09559208 0.07594205 -14.28732586 0.25098039 0.27450980 0.65882353
v -0.11931324 0.11537966 -14.29761410 0.25098039 0.27450980 0.65882353
v -0.12575144 0.12670466 -14.29995918 0.25098039 0.27450980 0.65882353
v -0.13032430 0.13627967 -14.30071545 0.25098039 0.27450980 0.65882353
v -0.13331197 0.14316833 -14.30017090 0.25098039 0.27450980 0.65882353
v -0.14036795 0.13962451 -14.29842758 0.25098039 0.27450980 0.65882353
v -0.04322115 0.05896035 -14.30224514 0.25098039 0.27450980 0.65882353
v -0.04383487 0.05096894 -14.29932213 0.25098039 0.27450980 0.65882353
v -0.14407799 0.14589258 -14.29646969 0.25098039 0.27450980 0.65882353
v -0.13590214 0.14914289 -14.29908562 0.25098039 0.27450980 0.65882353
v -0.11759660 0.12783606 -14.30344772 0.25098039 0.27450980 0.65882353
v -0.10879092 0.12887502 -14.30897045 0.25098039 0.27450980 0.65882353
v -0.11156055 0.11702178 -14.30020809 0.25098039 0.27450980 0.65882353
v -0.10171261 0.11748546 -14.30533695 0.25098039 0.27450980 0.65882353
v -0.08799598 0.08275263 -14.28863430 0.25098039 0.27450980 0.65882353
v -0.04120199 0.03491268 -14.30588341 0.25098039 0.27450980 0.65882353
v -0.04671888 0.04388408 -14.30227852 0.25098039 0.27450980 0.65882353
v -0.05062349 0.04360393 -14.30644608 0.25098039 0.27450980 0.65882353
v -0.04508868 0.03421358 -14.30788136 0.25098039 0.27450980 0.65882353
v -0.04993448 0.04868732 -14.30143642 0.25098039 0.27450980 0.65882353
v -0.04158378 0.04661780 -14.30143166 0.25098039 0.27450980 0.65882353
v -0.09143373 0.11840998 -14.31656551 0.25098039 0.27450980 0.65882353
v -0.07773761 0.06385656 -14.30994225 0.25098039 0.27450980 0.65882353
v -0.09872955 0.13093993 -14.32418156 0.25098039 0.27450980 0.65882353
v -0.08030823 0.11445871 -14.33188248 0.25098039 0.27450980 0.65882353
v -0.08724499 0.12261858 -14.33915615 0.25098039 0.27450980 0.65882353
v -0.10544811 0.14411160 -14.33307457 0.25098039 0.27450980 0.65882353
v -0.09626342 0.13496527 -14.34348106 0.25098039 0.27450980 0.65882353
v -0.11632599 0.15579882 -14.32897663 0.25098039 0.27450980 0.65882353
v -0.11124062 0.14958605 -14.32971287 0.25098039 0.27450980 0.65882353
v -0.08935598 0.12456059 -14.35524940 0.25098039 0.27450980 0.65882353
v -0.04260769 0.04118310 -14.32049370 0.25098039 0.27450980 0.65882353
v -0.04672384 0.03866963 -14.31739235 0.25098039 0.27450980 0.65882353
v -0.11850727 0.15511268 -14.31739902 0.25098039 0.27450980 0.65882353
v -0.10655576 0.09328325 -14.35816288 0.25098039 0.27450980 0.65882353
v -0.13591211 0.09874424 -14.32760048 0.25098039 0.27450980 0.65882353
v -0.13061613 0.10019831 -14.32860088 0.25098039 0.27450980 0.65882353
v -0.15464750 0.09654533 -14.32129383 0.25098039 0.27450980 0.65882353
v -0.14329854 0.09739363 -14.32699680 0.25098039 0.27450980 0.65882353
v -0.03753348 0.04303607 -14.32065773 0.25098039 0.27450980 0.65882353
v -0.09003341 0.05700224 -14.29511929 0.25098039 0.27450980 0.65882353
v -0.09254211 0.05847671 -14.29469395 0.25098039 0.27450980 0.65882353
v -0.10292259 0.10009868 -14.37423706 0.25098039 0.27450980 0.65882353
v -0.09864379 0.09479571 -14.37715340 0.25098039 0.27450980 0.65882353
v -0.08770360 0.10177958 -14.37782669 0.25098039 0.27450980 0.65882353
v -0.09386982 0.09898616 -14.37975693 0.25098039 0.27450980 0.65882353
v -0.09754136 0.10627007 -14.37644100 0.25098039 0.27450980 0.65882353
v -0.09125064 0.10973804 -14.37423515 0.25098039 0.27450980 0.65882353
v -0.13679223 0.10737126 -14.33453178 0.25098039 0.27450980 0.65882353
v -0.13998565 0.10603976 -14.33367062 0.25098039 0.27450980 0.65882353
v -0.15373288 0.10534890 -14.30158138 0.25098039 0.27450980 0.65882353
v -0.15750208 0.09932983 -14.30955505 0.25098039 0.27450980 0.65882353
v -0.05841206 0.08130899 -14.31645870 0.25098039 0.27450980 0.65882353
v -0.06355304 0.08863356 -14.31097507 0.25098039 0.27450980 0.65882353
v -0.05850376 0.08183251 -14.30937672 0.25098039 0.27450980 0.65882353
v -0.05617084 0.07467329 -14.30307770 0.25098039 0.27450980 0.65882353
v -0.07371500 0.06410889 -14.30558681 0.25098039 0.27450980 0.65882353
v -0.06912564 0.06744329 -14.30533314 0.25098039 0.27450980 0.65882353
v -0.13360211 0.11534887 -14.34580326 0.25098039 0.27450980 0.65882353
v -0.12606941 0.10650191 -14.33742523 0.25098039 0.27450980 0.65882353
v -0.09426026 0.08920839 -14.35658073 0.25098039 0.27450980 0.65882353
v -0.09008783 0.08794112 -14.36051655 0.25098039 0.27450980 0.65882353
v -0.09793998 0.07224991 -14.31419849 0.25098039 0.27450980 0.65882353
v -0.08697683 0.06753057 -14.28690624 0.25098039 0.27450980 0.65882353
v -0.08111300 0.07297194 -14.28818607 0.25098039 0.27450980 0.65882353
v -0.09174189 0.06579103 -14.31068325 0.25098039 0.27450980 0.65882353
v -0.03179221 0.04189318 -14.31409264 0.25098039 0.27450980 0.65882353
v -0.03414677 0.04296985 -14.31854534 0.25098039 0.27450980 0.65882353
v -0.06232123 0.08109698 -14.30320740 0.25098039 0.27450980 0.65882353
v -0.11732665 0.06549913 -14.30913734 0.25098039 0.27450980 0.65882353
v -0.09584399 0.06924106 -14.28722858 0.25098039 0.27450980 0.65882353
v -0.08912264 0.06116786 -14.28905106 0.25098039 0.27450980 0.65882353
v -0.14038715 0.06454292 -14.29831219 0.25098039 0.27450980 0.65882353
v -0.12637591 0.15255453 -14.30765343 0.25098039 0.27450980 0.65882353
v -0.05140720 0.04442681 -14.31199455 0.25098039 0.27450980 0.65882353
v -0.04840586 0.03649309 -14.31302738 0.25098039 0.27450980 0.65882353
v -0.03750753 0.03711104 -14.30564499 0.25098039 0.27450980 0.65882353
v -0.03334773 0.04046635 -14.30836391 0.25098039 0.27450980 0.65882353
v -0.15988353 0.10812103 -14.31494141 0.25098039 0.27450980 0.65882353
v -0.12740955 0.10128126 -14.32863331 0.25098039 0.27450980 0.65882353
v -0.08570403 0.11428820 -14.36499691 0.25098039 0.27450980 0.65882353
v -0.08274481 0.10333811 -14.37247562 0.25098039 0.27450980 0.65882353
v -0.08752847 0.06156141 -14.30749321 0.25098039 0.27450980 0.65882353
v -0.12327078 0.06690900 -14.28761482 0.25098039 0.27450980 0.65882353
v -0.10764121 0.07054350 -14.28288460 0.25098039 0.27450980 0.65882353
v -0.10456692 0.06352343 -14.28021240 0.25098039 0.27450980 0.65882353
v -0.09722815 0.06235544 -14.28232002 0.25098039 0.27450980 0.65882353
v -0.09252036 0.05894224 -14.28731441 0.25098039 0.27450980 0.65882353
v -0.03641827 0.03195870 -14.30820847 0.25098039 0.27450980 0.65882353
v -0.03225817 0.03547399 -14.31068611 0.25098039 0.27450980 0.65882353
v -0.03077509 0.03739710 -14.31619453 0.25098039 0.27450980 0.65882353
v -0.03285438 0.03920221 -14.31993961 0.25098039 0.27450980 0.65882353
v -0.03692225 0.03993241 -14.32148457 0.25098039 0.27450980 0.65882353
v -0.04021366 0.02973802 -14.30892658 0.25098039 0.27450980 0.65882353
v -0.04363880 0.02965281 -14.31103516 0.25098039 0.27450980 0.65882353
v -0.04711796 0.03338569 -14.31417751 0.25098039 0.27450980 0.65882353
v -0.04097880 0.02616638 -14.31266689 0.25098039 0.27450980 0.65882353
v -0.03588079 0.02498412 -14.31381321 0.25098039 0.27450980 0.65882353
v -0.03205313 0.02801573 -14.32695007 0.25098039 0.27450980 0.65882353
v -0.03069672 0.03061901 -14.32162857 0.25098039 0.27450980 0.65882353
v -0.03098936 0.02789211 -14.32200623 0.25098039 0.27450980 0.65882353
v -0.03214836 0.02500885 -14.32604599 0.25098039 0.27450980 0.65882353
v -0.03300588 0.02078667 -14.32907867 0.25098039 0.27450980 0.65882353
v -0.03291069 0.02375682 -14.33090878 0.25098039 0.27450980 0.65882353
v -0.03219602 0.02723046 -14.31750298 0.25098039 0.27450980 0.65882353
v -0.03359321 0.02259541 -14.32239819 0.25098039 0.27450980 0.65882353
v -0.03642029 0.02071449 -14.32005501 0.25098039 0.27450980 0.65882353
v -0.03666335 0.01669186 -14.32415581 0.25098039 0.27450980 0.65882353
v -0.03404675 0.01815630 -14.32621574 0.25098039 0.27450980 0.65882353
v -0.03512882 0.02387251 -14.31680107 0.25098039 0.27450980 0.65882353
v -0.03146677 0.02884321 -14.31541443 0.25098039 0.27450980 0.65882353
v -0.03423020 0.01941249 -14.33231640 0.25098039 0.27450980 0.65882353
v -0.03343029 0.01799968 -14.33046150 0.25098039 0.27450980 0.65882353
v -0.03482717 0.01603763 -14.32858944 0.25098039 0.27450980 0.65882353
v -0.03638031 0.01507809 -14.33109379 0.25098039 0.27450980 0.65882353
v -0.03304227 0.03570013 -14.32286072 0.25098039 0.27450980 0.65882353
v -0.03348196 0.02957134 -14.32849312 0.25098039 0.27450980 0.65882353
v -0.03561564 0.02488887 -14.33182049 0.25098039 0.27450980 0.65882353
v -0.03673068 0.02048745 -14.33306408 0.25098039 0.27450980 0.65882353
v -0.03744607 0.02938811 -14.32950497 0.25098039 0.27450980 0.65882353
v -0.03851223 0.02524310 -14.33165169 0.25098039 0.27450980 0.65882353
v -0.03978235 0.02145746 -14.33233833 0.25098039 0.27450980 0.65882353
v -0.04148197 0.02833530 -14.32910347 0.25098039 0.27450980 0.65882353
v -0.04148833 0.02460943 -14.33080292 0.25098039 0.27450980 0.65882353
v -0.04073264 0.03697534 -14.32235050 0.25098039 0.27450980 0.65882353
v -0.03678259 0.03832138 -14.32295132 0.25098039 0.27450980 0.65882353
v -0.04178993 0.02225647 -14.33188534 0.25098039 0.27450980 0.65882353
v -0.03852957 0.01560754 -14.33161259 0.25098039 0.27450980 0.65882353
v -0.03937370 0.02130778 -14.31795692 0.25098039 0.27450980 0.65882353
v -0.03983501 0.01712959 -14.32392025 0.25098039 0.27450980 0.65882353
v -0.04178151 0.02170818 -14.31814861 0.25098039 0.27450980 0.65882353
v -0.04222384 0.01727700 -14.32371712 0.25098039 0.27450980 0.65882353
v -0.03911939 0.01398498 -14.32733154 0.25098039 0.27450980 0.65882353
v -0.03688131 0.01511648 -14.32683086 0.25098039 0.27450980 0.65882353
v -0.04202117 0.03913069 -14.32055283 0.25098039 0.27450980 0.65882353
v -0.04617941 0.03632556 -14.31738472 0.25098039 0.27450980 0.65882353
v -0.04530244 0.03430307 -14.31902885 0.25098039 0.27450980 0.65882353
v -0.04508203 0.02647711 -14.32660198 0.25098039 0.27450980 0.65882353
v -0.04659899 0.03113557 -14.31660271 0.25098039 0.27450980 0.65882353
v -0.04425512 0.02666740 -14.31481647 0.25098039 0.27450980 0.65882353
v -0.04418264 0.02196104 -14.32002163 0.25098039 0.27450980 0.65882353
v -0.04580553 0.02355775 -14.32252789 0.25098039 0.27450980 0.65882353
v -0.04409496 0.01866268 -14.32446957 0.25098039 0.27450980 0.65882353
v -0.04467316 0.02053268 -14.32599640 0.25098039 0.27450980 0.65882353
v -0.04409619 0.02284388 -14.32898521 0.25098039 0.27450980 0.65882353
v -0.04303943 0.01705474 -14.32821465 0.25098039 0.27450980 0.65882353
v -0.04107265 0.01493476 -14.32774353 0.25098039 0.27450980 0.65882353
v -0.04110035 0.01792268 -14.33125591 0.25098039 0.27450980 0.65882353
v -0.04400824 0.01879597 -14.32823277 0.25098039 0.27450980 0.65882353
v -0.04243171 0.02013972 -14.33038235 0.25098039 0.27450980 0.65882353
v -0.06366079 0.03331130 -14.29963017 0.25098039 0.27450980 0.65882353
v -0.06879160 0.03069194 -14.29680920 0.25098039 0.27450980 0.65882353
v -0.06972907 0.03580023 -14.29616737 0.25098039 0.27450980 0.65882353
v -0.06533761 0.03753910 -14.29873657 0.25098039 0.27450980 0.65882353
v -0.05474992 0.03631444 -14.28998089 0.25098039 0.27450980 0.65882353
v -0.05630249 0.03574095 -14.29555511 0.25098039 0.27450980 0.65882353
v -0.05723406 0.04078313 -14.29421711 0.25098039 0.27450980 0.65882353
v -0.05677821 0.04149216 -14.28778744 0.25098039 0.27450980 0.65882353
v -0.05796054 0.03520773 -14.28409195 0.25098039 0.27450980 0.65882353
v -0.06029080 0.04061857 -14.28201962 0.25098039 0.27450980 0.65882353
v -0.05858427 0.04663105 -14.28772926 0.25098039 0.27450980 0.65882353
v -0.05964100 0.04582140 -14.29468536 0.25098039 0.27450980 0.65882353
v -0.07072701 0.06306939 -14.29946709 0.25098039 0.27450980 0.65882353
v -0.06996781 0.06462976 -14.29248905 0.25098039 0.27450980 0.65882353
v -0.08638792 0.05476506 -14.29913807 0.25098039 0.27450980 0.65882353
v -0.08597124 0.05429447 -14.29517555 0.25098039 0.27450980 0.65882353
v -0.05997875 0.03458658 -14.29884815 0.25098039 0.27450980 0.65882353
v -0.06107137 0.03914987 -14.29760361 0.25098039 0.27450980 0.65882353
v -0.07673994 0.03735421 -14.29005051 0.25098039 0.27450980 0.65882353
v -0.07561240 0.03767200 -14.29531288 0.25098039 0.27450980 0.65882353
v -0.07311246 0.03367105 -14.29354572 0.25098039 0.27450980 0.65882353
v -0.07350500 0.03320499 -14.28797626 0.25098039 0.27450980 0.65882353
v -0.07725750 0.06006195 -14.30460548 0.25098039 0.27450980 0.65882353
v -0.08283873 0.05783524 -14.30254841 0.25098039 0.27450980 0.65882353
v -0.07362725 0.06104562 -14.30310154 0.25098039 0.27450980 0.65882353
v -0.07495350 0.03868286 -14.28385067 0.25098039 0.27450980 0.65882353
v -0.07002015 0.04176351 -14.28003979 0.25098039 0.27450980 0.65882353
v -0.07997148 0.05911560 -14.28367424 0.25098039 0.27450980 0.65882353
v -0.08403167 0.05534832 -14.28696537 0.25098039 0.27450980 0.65882353
v -0.06268546 0.04376090 -14.29889679 0.25098039 0.27450980 0.65882353
v -0.07187903 0.03914061 -14.29898262 0.25098039 0.27450980 0.65882353
v -0.06738919 0.04120438 -14.30072689 0.25098039 0.27450980 0.65882353
v -0.06335616 0.04544422 -14.28228474 0.25098039 0.27450980 0.65882353
v -0.06643552 0.03622672 -14.28016472 0.25098039 0.27450980 0.65882353
v -0.06410423 0.01701116 -14.28662014 0.25098039 0.27450980 0.65882353
v -0.06883207 0.02842277 -14.28372860 0.25098039 0.27450980 0.65882353
v -0.07125279 0.02777755 -14.28818703 0.25098039 0.27450980 0.65882353
v -0.06730004 0.01582351 -14.29021358 0.25098039 0.27450980 0.65882353
v -0.07133986 0.03374857 -14.28289318 0.25098039 0.27450980 0.65882353
v -0.06384708 0.03127810 -14.28191757 0.25098039 0.27450980 0.65882353
v -0.06117275 0.01873724 -14.30247974 0.25098039 0.27450980 0.65882353
v -0.06631488 0.01633942 -14.29941940 0.25098039 0.27450980 0.65882353
v -0.05674179 0.02013406 -14.30237007 0.25098039 0.27450980 0.65882353
v -0.07397479 0.06339148 -14.28571510 0.25098039 0.27450980 0.65882353
v -0.05123478 0.02321935 -14.29402351 0.25098039 0.27450980 0.65882353
v -0.05344912 0.02186476 -14.30010414 0.25098039 0.27450980 0.65882353
v -0.07176490 0.02868290 -14.29313946 0.25098039 0.27450980 0.65882353
v -0.06826322 0.01521356 -14.29489803 0.25098039 0.27450980 0.65882353
v -0.05995691 0.01889063 -14.28554726 0.25098039 0.27450980 0.65882353
v -0.05421582 0.02299484 -14.28784561 0.25098039 0.27450980 0.65882353
v -0.05831212 0.01330195 -14.28769779 0.25098039 0.27450980 0.65882353
v -0.05299383 0.01626275 -14.29016209 0.25098039 0.27450980 0.65882353
v -0.05035782 0.01709104 -14.29620743 0.25098039 0.27450980 0.65882353
v -0.05310740 0.01715328 -14.30137634 0.25098039 0.27450980 0.65882353
v -0.05651699 0.01681483 -14.30323696 0.25098039 0.27450980 0.65882353
v -0.06224915 0.01160176 -14.28874207 0.25098039 0.27450980 0.65882353
v -0.06560843 0.01090996 -14.29188633 0.25098039 0.27450980 0.65882353
v -0.06710820 0.01275197 -14.29614830 0.25098039 0.27450980 0.65882353
v -0.06280972 0.00546660 -14.29297066 0.25098039 0.27450980 0.65882353
v -0.05828205 0.00515315 -14.29219055 0.25098039 0.27450980 0.65882353
v -0.05278797 -0.00011496 -14.30915737 0.25098039 0.27450980 0.65882353
v -0.05184688 0.00475682 -14.30554390 0.25098039 0.27450980 0.65882353
v -0.05190443 0.00297730 -14.30356026 0.25098039 0.27450980 0.65882353
v -0.05284128 -0.00152132 -14.30668163 0.25098039 0.27450980 0.65882353
v -0.05026107 0.00840729 -14.30049896 0.25098039 0.27450980 0.65882353
v -0.05110569 0.00597842 -14.29996777 0.25098039 0.27450980 0.65882353
v -0.05334881 0.00541334 -14.29590130 0.25098039 0.27450980 0.65882353
v -0.05442135 0.00069852 -14.29998493 0.25098039 0.27450980 0.65882353
v -0.05827466 0.00004306 -14.29724693 0.25098039 0.27450980 0.65882353
v -0.05845508 -0.00505926 -14.30014610 0.25098039 0.27450980 0.65882353
v -0.05457771 -0.00444472 -14.30291748 0.25098039 0.27450980 0.65882353
v -0.05651896 0.00331378 -14.29478455 0.25098039 0.27450980 0.65882353
v -0.05370419 -0.00490163 -14.30797863 0.25098039 0.27450980 0.65882353
v -0.05473581 -0.00543068 -14.31032848 0.25098039 0.27450980 0.65882353
v -0.05233391 0.00789016 -14.29384899 0.25098039 0.27450980 0.65882353
v -0.05240151 0.01342759 -14.30292892 0.25098039 0.27450980 0.65882353
v -0.05346343 0.00592889 -14.30791187 0.25098039 0.27450980 0.65882353
v -0.05515122 0.00032382 -14.31135845 0.25098039 0.27450980 0.65882353
v -0.05762160 -0.00545201 -14.31141090 0.25098039 0.27450980 0.65882353
v -0.05737422 0.00597334 -14.30959511 0.25098039 0.27450980 0.65882353
v -0.05837068 0.00041623 -14.31203175 0.25098039 0.27450980 0.65882353
v -0.06014733 -0.00432797 -14.31128311 0.25098039 0.27450980 0.65882353
v -0.06211828 0.00553165 -14.30974388 0.25098039 0.27450980 0.65882353
v -0.06252824 -0.00007150 -14.31134987 0.25098039 0.27450980 0.65882353
v -0.06118342 0.01457451 -14.30414486 0.25098039 0.27450980 0.65882353
v -0.05651610 0.01485091 -14.30484867 0.25098039 0.27450980 0.65882353
v -0.06205815 -0.00281402 -14.31101322 0.25098039 0.27450980 0.65882353
v -0.05649985 -0.00896186 -14.30730629 0.25098039 0.27450980 0.65882353
v -0.05949362 -0.00841670 -14.30901432 0.25098039 0.27450980 0.65882353
v -0.05562109 -0.00759526 -14.30593109 0.25098039 0.27450980 0.65882353
v -0.06035335 0.00002626 -14.29671574 0.25098039 0.27450980 0.65882353
v -0.06071614 -0.00512469 -14.30083084 0.25098039 0.27450980 0.65882353
v -0.06317562 0.00001629 -14.29744720 0.25098039 0.27450980 0.65882353
v -0.06293589 -0.00533295 -14.30209160 0.25098039 0.27450980 0.65882353
v -0.05986235 -0.00864644 -14.30403900 0.25098039 0.27450980 0.65882353
v -0.05820596 -0.00828563 -14.30360889 0.25098039 0.27450980 0.65882353
v -0.06080334 0.01614721 -14.30248356 0.25098039 0.27450980 0.65882353
v -0.06544894 0.01440894 -14.29960918 0.25098039 0.27450980 0.65882353
v -0.06570312 0.01311354 -14.30107021 0.25098039 0.27450980 0.65882353
v -0.06595324 0.00391257 -14.30641079 0.25098039 0.27450980 0.65882353
v -0.06733581 0.01080106 -14.29731941 0.25098039 0.27450980 0.65882353
v -0.06567305 0.00688073 -14.29468346 0.25098039 0.27450980 0.65882353
v -0.06557773 0.00091013 -14.29870129 0.25098039 0.27450980 0.65882353
v -0.06704117 0.00200920 -14.30225658 0.25098039 0.27450980 0.65882353
v -0.06518289 -0.00503588 -14.30248928 0.25098039 0.27450980 0.65882353
v -0.06636828 -0.00252390 -14.30411243 0.25098039 0.27450980 0.65882353
v -0.06552149 -0.00083490 -14.30861664 0.25098039 0.27450980 0.65882353
v -0.06375246 -0.00811572 -14.30578327 0.25098039 0.27450980 0.65882353
v -0.06154487 -0.00882871 -14.30489254 0.25098039 0.27450980 0.65882353
v -0.06134093 -0.00704719 -14.30939102 0.25098039 0.27450980 0.65882353
v -0.06520835 -0.00553405 -14.30638123 0.25098039 0.27450980 0.65882353
v -0.06351395 -0.00455470 -14.30946350 0.25098039 0.27450980 0.65882353
v -0.08755253 0.03207852 -14.28849888 0.25098039 0.27450980 0.65882353
v -0.09315136 0.03085969 -14.29001331 0.25098039 0.27450980 0.65882353
v -0.09417726 0.03440785 -14.28987408 0.25098039 0.27450980 0.65882353
v -0.08873072 0.03567085 -14.28829288 0.25098039 0.27450980 0.65882353
v -0.08718494 0.03226584 -14.27597046 0.25098039 0.27450980 0.65882353
v -0.08446212 0.03219814 -14.28005314 0.25098039 0.27450980 0.65882353
v -0.08563131 0.03691267 -14.27966690 0.25098039 0.27450980 0.65882353
v -0.08857405 0.03834694 -14.27520657 0.25098039 0.27450980 0.65882353
v -0.09182122 0.02970922 -14.27425289 0.25098039 0.27450980 0.65882353
v -0.09411535 0.03760386 -14.27259541 0.25098039 0.27450980 0.65882353
v -0.08969505 0.04419372 -14.27520180 0.25098039 0.27450980 0.65882353
v -0.08666979 0.04155592 -14.28000546 0.25098039 0.27450980 0.65882353
v -0.09146200 0.05519876 -14.28535461 0.25098039 0.27450980 0.65882353
v -0.09460440 0.05694108 -14.27942944 0.25098039 0.27450980 0.65882353
v -0.08498482 0.03222586 -14.28467464 0.25098039 0.27450980 0.65882353
v -0.08600800 0.03606765 -14.28455734 0.25098039 0.27450980 0.65882353
v -0.10346559 0.03551561 -14.28750038 0.25098039 0.27450980 0.65882353
v -0.09991348 0.03594758 -14.29069328 0.25098039 0.27450980 0.65882353
v -0.09918861 0.03282709 -14.28871918 0.25098039 0.27450980 0.65882353
v -0.10203280 0.03216119 -14.28564548 0.25098039 0.27450980 0.65882353
v -0.09584813 0.05368322 -14.29565907 0.25098039 0.27450980 0.65882353
v -0.10189608 0.05355019 -14.29604816 0.25098039 0.27450980 0.65882353
v -0.09207530 0.05322367 -14.29144382 0.25098039 0.27450980 0.65882353
v -0.10459870 0.03648588 -14.28115749 0.25098039 0.27450980 0.65882353
v -0.10233770 0.04005786 -14.27500153 0.25098039 0.27450980 0.65882353
v -0.10830762 0.05305551 -14.28008652 0.25098039 0.27450980 0.65882353
v -0.10998297 0.05133599 -14.28604889 0.25098039 0.27450980 0.65882353
v -0.08677727 0.03970338 -14.28507900 0.25098039 0.27450980 0.65882353
v -0.09499007 0.03757009 -14.29174900 0.25098039 0.27450980 0.65882353
v -0.08951959 0.03844244 -14.28981781 0.25098039 0.27450980 0.65882353
v -0.09576927 0.04351504 -14.27353001 0.25098039 0.27450980 0.65882353
v -0.09983432 0.03421568 -14.27504063 0.25098039 0.27450980 0.65882353
v -0.09625414 0.01198576 -14.28128242 0.25098039 0.27450980 0.65882353
v -0.10145120 0.02786374 -14.27995872 0.25098039 0.27450980 0.65882353
v -0.10087411 0.02820212 -14.28565025 0.25098039 0.27450980 0.65882353
v -0.09723277 0.01245952 -14.28556061 0.25098039 0.27450980 0.65882353
v -0.10282305 0.03185187 -14.28030205 0.25098039 0.27450980 0.65882353
v -0.09803119 0.02871813 -14.27550507 0.25098039 0.27450980 0.65882353
v -0.08484708 0.01696843 -14.29129696 0.25098039 0.27450980 0.65882353
v -0.09049547 0.01622938 -14.29188633 0.25098039 0.27450980 0.65882353
v -0.08220668 0.01799430 -14.28784943 0.25098039 0.27450980 0.65882353
v -0.10137270 0.05652419 -14.27666092 0.25098039 0.27450980 0.65882353
v -0.10792686 0.05171018 -14.29264832 0.25098039 0.27450980 0.65882353
v -0.08194743 0.01633760 -14.28042984 0.25098039 0.27450980 0.65882353
v -0.08106358 0.01746499 -14.28462315 0.25098039 0.27450980 0.65882353
v -0.09819062 0.02952003 -14.28874683 0.25098039 0.27450980 0.65882353
v -0.09543422 0.01408443 -14.28957367 0.25098039 0.27450980 0.65882353
v -0.09295529 0.01329593 -14.27786827 0.25098039 0.27450980 0.65882353
v -0.08703944 0.01573251 -14.27695656 0.25098039 0.27450980 0.65882353
v -0.09207690 0.00722197 -14.28031445 0.25098039 0.27450980 0.65882353
v -0.08601016 0.00902122 -14.27964687 0.25098039 0.27450980 0.65882353
v -0.08117689 0.01000269 -14.28305244 0.25098039 0.27450980 0.65882353
v -0.08058202 0.01217444 -14.28701115 0.25098039 0.27450980 0.65882353
v -0.08175954 0.01342739 -14.28990555 0.25098039 0.27450980 0.65882353
v -0.09538902 0.00721967 -14.28418636 0.25098039 0.27450980 0.65882353
v -0.09600614 0.00868347 -14.28785515 0.25098039 0.27450980 0.65882353
v -0.09437403 0.01249439 -14.28999901 0.25098039 0.27450980 0.65882353
v -0.09549737 0.00436203 -14.28783131 0.25098039 0.27450980 0.65882353
v -0.09132558 0.00151408 -14.28525925 0.25098039 0.27450980 0.65882353
v -0.08162977 -0.00395979 -14.29833508 0.25098039 0.27450980 0.65882353
v -0.08145566 0.00032027 -14.29406643 0.25098039 0.27450980 0.65882353
v -0.08212823 -0.00057845 -14.29341793 0.25098039 0.27450980 0.65882353
v -0.08219713 -0.00520420 -14.29710865 0.25098039 0.27450980 0.65882353
v -0.08157870 0.00345843 -14.28775883 0.25098039 0.27450980 0.65882353
v -0.08246101 0.00174733 -14.28870964 0.25098039 0.27450980 0.65882353
v -0.08567047 0.00109307 -14.28641319 0.25098039 0.27450980 0.65882353
v -0.08594397 -0.00352153 -14.29125500 0.25098039 0.27450980 0.65882353
v -0.09178029 -0.00210190 -14.29168415 0.25098039 0.27450980 0.65882353
v -0.09088840 -0.00545141 -14.29556561 0.25098039 0.27450980 0.65882353
v -0.08582874 -0.00732286 -14.29521847 0.25098039 0.27450980 0.65882353
v -0.09011817 0.00051178 -14.28692245 0.25098039 0.27450980 0.65882353
v -0.08321078 -0.00767849 -14.29898548 0.25098039 0.27450980 0.65882353
v -0.08157913 -0.00792700 -14.30058002 0.25098039 0.27450980 0.65882353
v -0.08550386 0.00257760 -14.28406143 0.25098039 0.27450980 0.65882353
v -0.07972880 0.00738253 -14.29023170 0.25098039 0.27450980 0.65882353
v -0.08031623 0.00217746 -14.29608345 0.25098039 0.27450980 0.65882353
v -0.08019091 -0.00194028 -14.30081463 0.25098039 0.27450980 0.65882353
v -0.08222790 -0.00532243 -14.30331802 0.25098039 0.27450980 0.65882353
v -0.08194812 0.00446115 -14.29856491 0.25098039 0.27450980 0.65882353
v -0.08210684 0.00021693 -14.30222893 0.25098039 0.27450980 0.65882353
v -0.08383687 -0.00276582 -14.30453777 0.25098039 0.27450980 0.65882353
v -0.08457370 0.00577261 -14.30001736 0.25098039 0.27450980 0.65882353
v -0.08489068 0.00183384 -14.30308533 0.25098039 0.27450980 0.65882353
v -0.08458751 0.01261310 -14.29325676 0.25098039 0.27450980 0.65882353
v -0.08140990 0.01050676 -14.29210567 0.25098039 0.27450980 0.65882353
v -0.08549917 -0.00105485 -14.30448437 0.25098039 0.27450980 0.65882353
v -0.08595954 -0.01002668 -14.30036354 0.25098039 0.27450980 0.65882353
v -0.08748059 -0.00756727 -14.30374146 0.25098039 0.27450980 0.65882353
v -0.08597286 -0.00870527 -14.29859924 0.25098039 0.27450980 0.65882353
v -0.09348594 -0.00109933 -14.29168129 0.25098039 0.27450980 0.65882353
v -0.09293796 -0.00537987 -14.29692650 0.25098039 0.27450980 0.65882353
v -0.09514475 0.00065205 -14.29339600 0.25098039 0.27450980 0.65882353
v -0.09456697 -0.00371446 -14.29841900 0.25098039 0.27450980 0.65882353
v -0.09087043 -0.00850374 -14.29929066 0.25098039 0.27450980 0.65882353
v -0.08992957 -0.00814798 -14.29832649 0.25098039 0.27450980 0.65882353
v -0.08515227 0.01454390 -14.29155827 0.25098039 0.27450980 0.65882353
v -0.09023570 0.01424928 -14.29189205 0.25098039 0.27450980 0.65882353
v -0.08939536 0.01294751 -14.29350948 0.25098039 0.27450980 0.65882353
v -0.08920281 0.00593078 -14.30088902 0.25098039 0.27450980 0.65882353
v -0.09362337 0.01144652 -14.29207611 0.25098039 0.27450980 0.65882353
v -0.09568948 0.00624260 -14.29124355 0.25098039 0.27450980 0.65882353
v -0.09499505 0.00267012 -14.29608250 0.25098039 0.27450980 0.65882353
v -0.09316266 0.00431132 -14.29909897 0.25098039 0.27450980 0.65882353
v -0.09447019 -0.00152676 -14.30019379 0.25098039 0.27450980 0.65882353
v -0.09285849 0.00069018 -14.30116749 0.25098039 0.27450980 0.65882353
v -0.08897600 0.00221203 -14.30380917 0.25098039 0.27450980 0.65882353
v -0.09195364 -0.00412595 -14.30246925 0.25098039 0.27450980 0.65882353
v -0.09214403 -0.00686316 -14.30123711 0.25098039 0.27450980 0.65882353
v -0.08801851 -0.00442943 -14.30484676 0.25098039 0.27450980 0.65882353
v -0.09144430 -0.00173189 -14.30321026 0.25098039 0.27450980 0.65882353
v -0.08844592 -0.00179259 -14.30495548 0.25098039 0.27450980 0.65882353
v -0.10591544 0.05272679 -14.29542160 0.25098039 0.27450980 0.65882353
v -0.12384967 0.03092759 -14.29740334 0.25098039 0.27450980 0.65882353
v -0.12744802 0.03121381 -14.29918480 0.25098039 0.27450980 0.65882353
v -0.12825337 0.03455308 -14.29806042 0.25098039 0.27450980 0.65882353
v -0.12442368 0.03517116 -14.29701996 0.25098039 0.27450980 0.65882353
v -0.12446594 0.03009875 -14.28652287 0.25098039 0.27450980 0.65882353
v -0.12213359 0.02993991 -14.29026699 0.25098039 0.27450980 0.65882353
v -0.12197226 0.03470916 -14.28890419 0.25098039 0.27450980 0.65882353
v -0.12425229 0.03498788 -14.28522587 0.25098039 0.27450980 0.65882353
v -0.12910986 0.02993200 -14.28517056 0.25098039 0.27450980 0.65882353
v -0.12928006 0.03468923 -14.28411293 0.25098039 0.27450980 0.65882353
v -0.12400910 0.03868022 -14.28456879 0.25098039 0.27450980 0.65882353
v -0.12156048 0.03853430 -14.28865147 0.25098039 0.27450980 0.65882353
v -0.12046677 0.05485834 -14.29029369 0.25098039 0.27450980 0.65882353
v -0.12382514 0.05719219 -14.28634548 0.25098039 0.27450980 0.65882353
v -0.13865533 0.05863898 -14.29784679 0.25098039 0.27450980 0.65882353
v -0.13462384 0.05945180 -14.30315876 0.25098039 0.27450980 0.65882353
v -0.13427603 0.05081633 -14.29976845 0.25098039 0.27450980 0.65882353
v -0.13756301 0.05194626 -14.29577827 0.25098039 0.27450980 0.65882353
v -0.12219878 0.03034370 -14.29411983 0.25098039 0.27450980 0.65882353
v -0.12194683 0.03481221 -14.29386520 0.25098039 0.27450980 0.65882353
v -0.13684034 0.03848410 -14.29460716 0.25098039 0.27450980 0.65882353
v -0.13334695 0.03801417 -14.29763222 0.25098039 0.27450980 0.65882353
v -0.13222525 0.03475213 -14.29823875 0.25098039 0.27450980 0.65882353
v -0.13606797 0.03418438 -14.29595280 0.25098039 0.27450980 0.65882353
v -0.12903893 0.05810954 -14.30430889 0.25098039 0.27450980 0.65882353
v -0.12412456 0.05752390 -14.30297470 0.25098039 0.27450980 0.65882353
v -0.12410055 0.05295141 -14.30201340 0.25098039 0.27450980 0.65882353
v -0.12950116 0.05006544 -14.30131435 0.25098039 0.27450980 0.65882353
v -0.12041879 0.05275810 -14.29788685 0.25098039 0.27450980 0.65882353
v -0.13763574 0.03843874 -14.29073429 0.25098039 0.27450980 0.65882353
v -0.13529323 0.03842885 -14.28555965 0.25098039 0.27450980 0.65882353
v -0.13763252 0.05562074 -14.28661156 0.25098039 0.27450980 0.65882353
v -0.13873276 0.05464423 -14.29110909 0.25098039 0.27450980 0.65882353
v -0.12146379 0.03769055 -14.29308891 0.25098039 0.27450980 0.65882353
v -0.12906149 0.03755088 -14.29815483 0.25098039 0.27450980 0.65882353
v -0.12473526 0.03741319 -14.29695892 0.25098039 0.27450980 0.65882353
v -0.12950996 0.03865111 -14.28299332 0.25098039 0.27450980 0.65882353
v -0.13476546 0.03392784 -14.28663063 0.25098039 0.27450980 0.65882353
v -0.13629252 0.02083380 -14.29542828 0.25098039 0.27450980 0.65882353
v -0.13707316 0.03024299 -14.29275227 0.25098039 0.27450980 0.65882353
v -0.13548866 0.03058986 -14.29729939 0.25098039 0.27450980 0.65882353
v -0.13545695 0.02139860 -14.29820919 0.25098039 0.27450980 0.65882353
v -0.13710681 0.03402823 -14.29165268 0.25098039 0.27450980 0.65882353
v -0.13466607 0.02945252 -14.28781891 0.25098039 0.27450980 0.65882353
v -0.12362350 0.02211575 -14.29976845 0.25098039 0.27450980 0.65882353
v -0.12849942 0.02283395 -14.30127716 0.25098039 0.27450980 0.65882353
v -0.12202451 0.02156471 -14.29707432 0.25098039 0.27450980 0.65882353
v -0.13043486 0.05697174 -14.28383446 0.25098039 0.27450980 0.65882353
v -0.12419639 0.02000106 -14.29012871 0.25098039 0.27450980 0.65882353
v -0.12184448 0.02028167 -14.29376411 0.25098039 0.27450980 0.65882353
v -0.13144898 0.03102590 -14.29926682 0.25098039 0.27450980 0.65882353
v -0.13275203 0.02244854 -14.30043221 0.25098039 0.27450980 0.65882353
v -0.13461253 0.02012791 -14.29158497 0.25098039 0.27450980 0.65882353
v -0.12940344 0.02016050 -14.28846741 0.25098039 0.27450980 0.65882353
v -0.13383847 0.01548303 -14.29367733 0.25098039 0.27450980 0.65882353
v -0.12846979 0.01575720 -14.29056835 0.25098039 0.27450980 0.65882353
v -0.12311184 0.01591524 -14.29284477 0.25098039 0.27450980 0.65882353
v -0.12166828 0.01768913 -14.29578495 0.25098039 0.27450980 0.65882353
v -0.12175889 0.01899926 -14.29867268 0.25098039 0.27450980 0.65882353
v -0.13565132 0.01678411 -14.29742718 0.25098039 0.27450980 0.65882353
v -0.13490069 0.01805857 -14.30007839 0.25098039 0.27450980 0.65882353
v -0.13247064 0.02005075 -14.30202961 0.25098039 0.27450980 0.65882353
v -0.13487020 0.01292492 -14.29976463 0.25098039 0.27450980 0.65882353
v -0.13240573 0.00999747 -14.29695225 0.25098039 0.27450980 0.65882353
v -0.12201085 0.00485335 -14.30413055 0.25098039 0.27450980 0.65882353
v -0.12198053 0.00815159 -14.30146313 0.25098039 0.27450980 0.65882353
v -0.12270717 0.00746980 -14.30067348 0.25098039 0.27450980 0.65882353
v -0.12209024 0.00411648 -14.30318451 0.25098039 0.27450980 0.65882353
v -0.12286149 0.01120722 -14.29690075 0.25098039 0.27450980 0.65882353
v -0.12381402 0.00981852 -14.29726601 0.25098039 0.27450980 0.65882353
v -0.12703958 0.01016361 -14.29579735 0.25098039 0.27450980 0.65882353
v -0.12635630 0.00591908 -14.29913521 0.25098039 0.27450980 0.65882353
v -0.13140944 0.00584988 -14.30101585 0.25098039 0.27450980 0.65882353
v -0.13027656 0.00248863 -14.30345821 0.25098039 0.27450980 0.65882353
v -0.12596965 0.00271760 -14.30135632 0.25098039 0.27450980 0.65882353
v -0.13079888 0.00861868 -14.29724884 0.25098039 0.27450980 0.65882353
v -0.12258537 0.00151213 -14.30419922 0.25098039 0.27450980 0.65882353
v -0.12197161 0.00093457 -14.30545712 0.25098039 0.27450980 0.65882353
v -0.12726337 0.01131743 -14.29416275 0.25098039 0.27450980 0.65882353
v -0.12112073 0.01435441 -14.29901886 0.25098039 0.27450980 0.65882353
v -0.12092753 0.00894299 -14.30361843 0.25098039 0.27450980 0.65882353
v -0.12122616 0.00457080 -14.30643272 0.25098039 0.27450980 0.65882353
v -0.12266369 0.00118142 -14.30777168 0.25098039 0.27450980 0.65882353
v -0.12147516 0.01107608 -14.30526924 0.25098039 0.27450980 0.65882353
v -0.12156872 0.00588308 -14.30855370 0.25098039 0.27450980 0.65882353
v -0.12327407 0.00280792 -14.30983925 0.25098039 0.27450980 0.65882353
v -0.12344658 0.01299635 -14.30738735 0.25098039 0.27450980 0.65882353
v -0.12349406 0.00762641 -14.30975533 0.25098039 0.27450980 0.65882353
v -0.12412404 0.01861580 -14.30334854 0.25098039 0.27450980 0.65882353
v -0.12192979 0.01664947 -14.30135536 0.25098039 0.27450980 0.65882353
v -0.12426240 0.00452743 -14.31017113 0.25098039 0.27450980 0.65882353
v -0.12537670 -0.00083475 -14.30517578 0.25098039 0.27450980 0.65882353
v -0.12576057 -0.00003117 -14.30817509 0.25098039 0.27450980 0.65882353
v -0.12568714 -0.00016482 -14.30384350 0.25098039 0.27450980 0.65882353
v -0.13264564 0.00638258 -14.30170822 0.25098039 0.27450980 0.65882353
v -0.13138449 0.00237179 -14.30482960 0.25098039 0.27450980 0.65882353
v -0.13378808 0.00781986 -14.30357933 0.25098039 0.27450980 0.65882353
v -0.13175626 0.00334404 -14.30685425 0.25098039 0.27450980 0.65882353
v -0.12908003 -0.00026062 -14.30597687 0.25098039 0.27450980 0.65882353
v -0.12838963 0.00038216 -14.30415058 0.25098039 0.27450980 0.65882353
v -0.12405889 0.02013980 -14.30182457 0.25098039 0.27450980 0.65882353
v -0.12822478 0.02084640 -14.30243874 0.25098039 0.27450980 0.65882353
v -0.12832510 0.01904786 -14.30407715 0.25098039 0.27450980 0.65882353
v -0.12722388 0.01360281 -14.30830097 0.25098039 0.27450980 0.65882353
v -0.13240883 0.01792747 -14.30356979 0.25098039 0.27450980 0.65882353
v -0.13450858 0.01539372 -14.30171108 0.25098039 0.27450980 0.65882353
v -0.13323718 0.00978708 -14.30563354 0.25098039 0.27450980 0.65882353
v -0.13128810 0.01184189 -14.30764675 0.25098039 0.27450980 0.65882353
v -0.13112046 0.00459996 -14.30872917 0.25098039 0.27450980 0.65882353
v -0.12950477 0.00685439 -14.31021309 0.25098039 0.27450980 0.65882353
v -0.12654462 0.00821722 -14.31076622 0.25098039 0.27450980 0.65882353
v -0.12835109 0.00201571 -14.30955410 0.25098039 0.27450980 0.65882353
v -0.12888063 0.00052159 -14.30830574 0.25098039 0.27450980 0.65882353
v -0.12602310 0.00175890 -14.30972767 0.25098039 0.27450980 0.65882353
v -0.12777114 0.00380966 -14.31049156 0.25098039 0.27450980 0.65882353
v -0.12614650 0.00420824 -14.31055069 0.25098039 0.27450980 0.65882353
v -0.13908204 0.05791955 -14.29358864 0.25098039 0.27450980 0.65882353
v -0.07600151 0.08977817 -14.37319851 0.25098039 0.27450980 0.65882353
v -0.07723749 0.08650888 -14.36861515 0.25098039 0.27450980 0.65882353
v -0.09040198 0.07792396 -14.37385559 0.25098039 0.27450980 0.65882353
v -0.08548324 0.07825944 -14.36873150 0.25098039 0.27450980 0.65882353
v -0.09208149 0.07998580 -14.37994671 0.25098039 0.27450980 0.65882353
v -0.08759961 0.08828023 -14.38509560 0.25098039 0.27450980 0.65882353
v -0.09146048 0.08464886 -14.38329792 0.25098039 0.27450980 0.65882353
v -0.08075282 0.08157847 -14.36706161 0.25098039 0.27450980 0.65882353
v -0.07723707 0.09218062 -14.37836170 0.25098039 0.27450980 0.65882353
v -0.08215372 0.09209555 -14.38355732 0.25098039 0.27450980 0.65882353
v -0.07184638 0.08648536 -14.38170242 0.25098039 0.27450980 0.65882353
v -0.07706690 0.08575660 -14.38740826 0.25098039 0.27450980 0.65882353
v -0.08255103 0.08176347 -14.38941860 0.25098039 0.27450980 0.65882353
v -0.08760726 0.07832676 -14.38648224 0.25098039 0.27450980 0.65882353
v -0.08929184 0.07539289 -14.38296890 0.25098039 0.27450980 0.65882353
v -0.07272805 0.08420645 -14.37488174 0.25098039 0.27450980 0.65882353
v -0.07468578 0.08107379 -14.37048626 0.25098039 0.27450980 0.65882353
v -0.07964879 0.07712910 -14.36885929 0.25098039 0.27450980 0.65882353
v -0.06940117 0.07659270 -14.37549019 0.25098039 0.27450980 0.65882353
v -0.06678900 0.06940520 -14.38234615 0.25098039 0.27450980 0.65882353
v -0.07290579 0.05498388 -14.39267921 0.25098039 0.27450980 0.65882353
v -0.07652996 0.06062824 -14.39155960 0.25098039 0.27450980 0.65882353
v -0.07367818 0.06129750 -14.39168262 0.25098039 0.27450980 0.65882353
v -0.07060641 0.05634740 -14.39334202 0.25098039 0.27450980 0.65882353
v -0.07663901 0.06612286 -14.39104939 0.25098039 0.27450980 0.65882353
v -0.07443731 0.06524596 -14.39042377 0.25098039 0.27450980 0.65882353
v -0.07078342 0.06777440 -14.38775063 0.25098039 0.27450980 0.65882353
v -0.06793067 0.06332081 -14.38964653 0.25098039 0.27450980 0.65882353
v -0.06742185 0.06726146 -14.38413239 0.25098039 0.27450980 0.65882353
v -0.06541814 0.06376400 -14.38392735 0.25098039 0.27450980 0.65882353
v -0.06530991 0.05869787 -14.39082813 0.25098039 0.27450980 0.65882353
v -0.06709291 0.05413897 -14.39396572 0.25098039 0.27450980 0.65882353
v -0.06323788 0.05442013 -14.39162445 0.25098039 0.27450980 0.65882353
v -0.06865975 0.05171818 -14.39263725 0.25098039 0.27450980 0.65882353
v -0.06992874 0.06979447 -14.38915730 0.25098039 0.27450980 0.65882353
v -0.08300614 0.06932195 -14.38938618 0.25098039 0.27450980 0.65882353
v -0.08003998 0.06076358 -14.38962173 0.25098039 0.27450980 0.65882353
v -0.07559139 0.05409223 -14.39004135 0.25098039 0.27450980 0.65882353
v -0.07027622 0.05057828 -14.38998699 0.25098039 0.27450980 0.65882353
v -0.08219354 0.06021784 -14.38557053 0.25098039 0.27450980 0.65882353
v -0.07726879 0.05443957 -14.38572025 0.25098039 0.27450980 0.65882353
v -0.07212396 0.05154545 -14.38514233 0.25098039 0.27450980 0.65882353
v -0.08179936 0.06012346 -14.38076401 0.25098039 0.27450980 0.65882353
v -0.07678126 0.05517388 -14.38178062 0.25098039 0.27450980 0.65882353
v -0.08710220 0.07154802 -14.37820721 0.25098039 0.27450980 0.65882353
v -0.08719321 0.07063173 -14.38450909 0.25098039 0.27450980 0.65882353
v -0.07300490 0.05296136 -14.38268948 0.25098039 0.27450980 0.65882353
v -0.06274487 0.05193237 -14.39077473 0.25098039 0.27450980 0.65882353
v -0.06471756 0.05069335 -14.38744450 0.25098039 0.27450980 0.65882353
v -0.06483044 0.06460549 -14.38043785 0.25098039 0.27450980 0.65882353
v -0.06229401 0.05972368 -14.38535976 0.25098039 0.27450980 0.65882353
v -0.06248060 0.05923010 -14.38210011 0.25098039 0.27450980 0.65882353
v -0.06602886 0.06551185 -14.37651157 0.25098039 0.27450980 0.65882353
v -0.06326589 0.05860496 -14.37915707 0.25098039 0.27450980 0.65882353
v -0.06105302 0.05489290 -14.38565826 0.25098039 0.27450980 0.65882353
v -0.06152929 0.05658580 -14.38798618 0.25098039 0.27450980 0.65882353
v -0.08880444 0.07458170 -14.37687778 0.25098039 0.27450980 0.65882353
v -0.08514492 0.07547149 -14.37138653 0.25098039 0.27450980 0.65882353
v -0.08326173 0.07287481 -14.37276745 0.25098039 0.27450980 0.65882353
v -0.07851106 0.06205797 -14.37558365 0.25098039 0.27450980 0.65882353
v -0.07784609 0.07356687 -14.37010288 0.25098039 0.27450980 0.65882353
v -0.07237291 0.07528455 -14.37188339 0.25098039 0.27450980 0.65882353
v -0.06867680 0.06475914 -14.37369442 0.25098039 0.27450980 0.65882353
v -0.07335693 0.06355936 -14.37289524 0.25098039 0.27450980 0.65882353
v -0.06634502 0.05769729 -14.37707138 0.25098039 0.27450980 0.65882353
v -0.06946445 0.05713431 -14.37666416 0.25098039 0.27450980 0.65882353
v -0.07391325 0.05563197 -14.37844181 0.25098039 0.27450980 0.65882353
v -0.06565414 0.05379093 -14.38056660 0.25098039 0.27450980 0.65882353
v -0.06252028 0.05401312 -14.38262081 0.25098039 0.27450980 0.65882353
v -0.06771936 0.05144531 -14.38355637 0.25098039 0.27450980 0.65882353
v -0.06830880 0.05457202 -14.37940025 0.25098039 0.27450980 0.65882353
v -0.07032260 0.05318655 -14.38120842 0.25098039 0.27450980 0.65882353
v -0.13692538 0.06371715 -14.30390072 0.25098039 0.27450980 0.65882353
v -0.13085513 0.06330311 -14.30661106 0.25098039 0.27450980 0.65882353
v -0.13569348 0.06744073 -14.30835152 0.25098039 0.27450980 0.65882353
v -0.14083439 0.07478508 -14.31141949 0.25098039 0.27450980 0.65882353
v -0.14951125 0.08171953 -14.31112766 0.25098039 0.27450980 0.65882353
v -0.13482550 0.07631133 -14.31404686 0.25098039 0.27450980 0.65882353
v -0.12976962 0.06885161 -14.31020546 0.25098039 0.27450980 0.65882353
v -0.12311403 0.06235717 -14.30646324 0.25098039 0.27450980 0.65882353
v -0.13249698 0.08484313 -14.31911755 0.25098039 0.27450980 0.65882353
f 2 3 1
f 1 3 4
f 5 6 8
f 8 6 7
f 9 4 10
f 10 4 3
f 12 13 11
f 11 13 9
f 14 12 16
f 16 12 15
f 18 19 17
f 17 19 20
f 22 23 21
f 21 23 24
f 26 27 25
f 25 27 28
f 30 31 29
f 29 31 32
f 33 34 36
f 36 34 35
f 37 38 40
f 40 38 39
f 41 42 6
f 6 42 43
f 6 43 7
f 7 43 44
f 45 34 46
f 46 34 33
f 48 49 47
f 47 49 50
f 52 53 51
f 51 53 54
f 56 52 55
f 55 52 51
f 58 59 57
f 57 59 60
f 61 62 4
f 4 62 1
f 64 65 63
f 63 65 66
f 68 69 67
f 67 69 70
f 72 73 71
f 71 73 74
f 76 77 75
f 75 77 78
f 53 79 54
f 54 79 80
f 82 83 81
f 81 83 84
f 85 86 52
f 52 86 53
f 57 60 87
f 87 60 88
f 89 90 43
f 43 90 44
f 43 42 89
f 89 42 91
f 40 39 92
f 92 39 93
f 94 70 64
f 64 70 69
f 13 61 9
f 9 61 4
f 25 28 69
f 69 28 95
f 96 25 68
f 68 25 69
f 98 99 97
f 97 99 100
f 101 102 104
f 104 102 103
f 106 30 105
f 105 30 29
f 51 54 107
f 107 54 108
f 54 80 108
f 108 80 109
f 111 112 110
f 110 112 113
f 115 5 114
f 114 5 116
f 115 41 5
f 5 41 6
f 36 35 111
f 111 35 117
f 35 118 117
f 117 118 119
f 34 120 35
f 35 120 118
f 34 45 120
f 120 45 121
f 125 126 124
f 124 126 127
f 128 129 14
f 14 129 130
f 33 131 46
f 46 131 132
f 133 94 63
f 63 94 64
f 134 135 137
f 137 135 136
f 139 140 138
f 138 140 141
f 77 142 78
f 78 142 143
f 144 145 20
f 20 145 146
f 148 149 147
f 147 149 72
f 151 152 150
f 150 152 153
f 82 101 83
f 83 101 104
f 101 82 155
f 155 82 154
f 156 157 58
f 58 157 59
f 158 68 147
f 147 68 67
f 159 146 15
f 15 146 16
f 68 158 96
f 96 158 160
f 129 66 130
f 130 66 65
f 162 163 161
f 161 163 164
f 166 167 165
f 165 167 168
f 170 171 169
f 169 171 172
f 174 171 173
f 173 171 170
f 176 177 175
f 175 177 178
f 180 181 179
f 179 181 24
f 182 183 21
f 21 183 184
f 81 185 82
f 82 185 154
f 186 187 188
f 188 187 144
f 158 71 160
f 160 71 189
f 190 135 157
f 157 135 59
f 169 172 139
f 139 172 140
f 147 72 158
f 158 72 71
f 192 193 191
f 191 193 194
f 167 166 49
f 49 166 195
f 196 190 50
f 50 190 157
f 197 198 200
f 200 198 199
f 21 24 182
f 182 24 181
f 146 159 20
f 20 159 17
f 182 181 81
f 81 181 185
f 201 185 180
f 180 185 181
f 202 203 83
f 83 203 84
f 205 206 204
f 204 206 85
f 207 22 184
f 184 22 21
f 179 24 208
f 208 24 23
f 208 209 179
f 179 209 205
f 209 210 205
f 205 210 206
f 212 206 211
f 211 206 210
f 179 205 180
f 180 205 204
f 213 176 88
f 88 176 214
f 86 85 212
f 212 85 206
f 193 217 218
f 217 219 218
f 218 219 220
f 219 18 220
f 220 18 17
f 19 221 20
f 20 221 144
f 222 223 225
f 225 223 224
f 175 226 176
f 176 226 214
f 227 87 214
f 214 87 88
f 220 17 228
f 228 17 159
f 134 213 60
f 60 213 88
f 138 229 151
f 151 229 152
f 193 192 210
f 210 192 211
f 230 194 218
f 218 194 193
f 231 232 228
f 228 232 230
f 233 234 91
f 91 234 89
f 235 236 93
f 93 236 92
f 230 232 234
f 234 232 237
f 47 238 48
f 48 238 239
f 240 191 235
f 235 191 236
f 5 8 116
f 116 8 241
f 242 243 189
f 189 243 160
f 244 245 98
f 98 245 99
f 156 246 47
f 47 246 238
f 76 247 77
f 77 247 248
f 250 125 249
f 249 125 124
f 252 253 251
f 251 253 254
f 111 110 36
f 36 110 255
f 256 33 255
f 255 33 36
f 257 258 154
f 154 258 155
f 63 169 133
f 133 169 139
f 66 170 63
f 63 170 169
f 173 170 129
f 129 170 66
f 129 128 173
f 173 128 259
f 128 260 259
f 259 260 261
f 213 134 262
f 262 134 137
f 263 264 186
f 186 264 187
f 112 265 113
f 113 265 266
f 11 267 268
f 234 233 230
f 230 233 194
f 153 269 70
f 70 269 67
f 175 178 165
f 165 178 141
f 150 153 94
f 94 153 70
f 271 221 270
f 270 221 207
f 269 153 272
f 272 153 152
f 121 45 109
f 109 45 108
f 47 50 156
f 156 50 157
f 57 273 58
f 58 273 274
f 145 275 260
f 260 275 261
f 276 149 143
f 143 149 78
f 148 269 75
f 75 269 272
f 207 277 270
f 270 277 278
f 195 196 49
f 49 196 50
f 59 135 60
f 60 135 134
f 83 104 202
f 202 104 279
f 149 148 78
f 78 148 75
f 247 278 248
f 248 278 277
f 183 182 84
f 84 182 81
f 48 239 281
f 281 239 282
f 227 223 283
f 283 223 222
f 223 226 224
f 224 226 168
f 281 282 224
f 224 282 225
f 165 168 175
f 175 168 226
f 264 263 138
f 138 263 229
f 14 16 128
f 128 16 260
f 220 228 218
f 218 228 230
f 87 227 284
f 284 227 283
f 260 16 145
f 145 16 146
f 244 98 258
f 258 98 155
f 58 274 156
f 156 274 246
f 107 285 51
f 51 285 55
f 243 286 160
f 160 286 96
f 234 237 89
f 89 237 90
f 46 132 107
f 107 132 285
f 253 252 249
f 249 252 250
f 286 26 96
f 96 26 25
f 106 105 287
f 287 105 288
f 272 152 289
f 289 152 229
f 138 151 139
f 139 151 133
f 183 290 161
f 161 290 162
f 291 292 277
f 277 292 293
f 151 150 133
f 133 150 94
f 262 275 177
f 177 275 187
f 144 187 145
f 145 187 275
f 273 57 284
f 284 57 87
f 174 136 190
f 190 136 135
f 111 117 112
f 112 117 38
f 117 119 38
f 38 119 123
f 112 38 265
f 265 38 37
f 287 288 254
f 254 288 251
f 228 159 231
f 231 159 15
f 223 227 226
f 226 227 214
f 147 67 148
f 148 67 269
f 224 168 281
f 281 168 167
f 199 163 200
f 200 163 162
f 45 46 108
f 108 46 107
f 281 167 48
f 48 167 49
f 161 164 291
f 291 164 292
f 38 123 39
f 293 294 277
f 277 294 248
f 284 283 296
f 296 283 295
f 284 296 273
f 273 296 297
f 274 273 298
f 298 273 297
f 246 274 299
f 299 274 298
f 283 222 295
f 295 222 300
f 222 225 300
f 300 225 301
f 301 225 302
f 302 225 282
f 303 304 300
f 300 304 295
f 306 307 305
f 305 307 308
f 309 310 308
f 308 310 305
f 308 307 312
f 312 307 311
f 313 314 312
f 312 314 315
f 311 316 312
f 312 316 313
f 317 304 311
f 311 304 316
f 315 309 312
f 312 309 308
f 318 319 321
f 321 319 320
f 319 318 309
f 309 318 310
f 311 307 317
f 317 307 306
f 306 297 317
f 317 297 296
f 306 322 297
f 297 322 298
f 305 323 306
f 306 323 322
f 323 305 324
f 324 305 310
f 304 317 295
f 295 317 296
f 318 325 310
f 310 325 324
f 323 324 326
f 326 324 327
f 324 325 327
f 327 325 328
f 326 327 329
f 329 327 330
f 329 331 326
f 326 331 332
f 333 330 328
f 328 330 327
f 323 326 322
f 322 326 332
f 322 332 298
f 298 332 299
f 325 318 334
f 334 318 321
f 313 316 335
f 335 316 304
f 335 336 313
f 313 336 314
f 304 303 335
f 335 303 337
f 336 335 338
f 338 335 337
f 336 339 314
f 314 339 340
f 246 299 238
f 238 299 341
f 239 342 282
f 282 342 302
f 342 239 341
f 341 239 238
f 341 331 342
f 342 331 343
f 331 329 343
f 343 329 344
f 342 343 302
f 302 343 345
f 341 299 331
f 331 299 332
f 346 301 345
f 345 301 302
f 346 303 301
f 301 303 300
f 347 337 346
f 346 337 303
f 347 346 348
f 348 346 345
f 349 347 350
f 350 347 348
f 343 344 345
f 345 344 348
f 344 351 348
f 348 351 350
f 337 347 338
f 338 347 349
f 353 338 352
f 352 338 349
f 352 355 354
f 354 355 356
f 352 349 355
f 355 349 350
f 352 354 353
f 353 354 334
f 353 334 339
f 339 334 321
f 339 336 353
f 353 336 338
f 329 330 344
f 344 330 351
f 356 351 333
f 333 351 330
f 356 355 351
f 351 355 350
f 354 356 328
f 328 356 333
f 328 325 354
f 354 325 334
f 309 315 319
f 319 315 320
f 320 340 321
f 321 340 339
f 320 315 340
f 340 315 314
f 137 136 261
f 261 136 259
f 140 166 141
f 141 166 165
f 172 171 195
f 195 171 196
f 171 174 196
f 196 174 190
f 178 177 264
f 264 177 187
f 172 195 140
f 140 195 166
f 137 261 262
f 262 261 275
f 178 264 141
f 141 264 138
f 262 177 213
f 213 177 176
f 136 174 259
f 259 174 173
f 358 359 357
f 357 359 360
f 362 363 361
f 361 363 364
f 361 364 365
f 365 364 366
f 367 368 370
f 370 368 369
f 76 371 247
f 247 371 372
f 373 374 362
f 362 374 363
f 376 377 375
f 375 377 378
f 289 229 380
f 380 229 379
f 381 379 263
f 263 379 229
f 383 384 382
f 382 384 385
f 386 368 374
f 374 368 363
f 76 289 371
f 371 289 380
f 377 376 359
f 359 376 387
f 388 386 360
f 360 386 374
f 389 383 366
f 366 383 390
f 392 393 391
f 391 393 394
f 383 382 390
f 390 382 395
f 396 365 390
f 390 365 366
f 389 366 367
f 367 366 364
f 357 397 358
f 358 397 398
f 373 399 357
f 357 399 397
f 389 367 400
f 400 367 370
f 382 385 375
f 375 385 372
f 357 360 373
f 373 360 374
f 361 401 362
f 362 401 402
f 387 388 359
f 359 388 360
f 363 368 364
f 364 368 367
f 358 398 403
f 403 398 404
f 396 392 405
f 405 392 391
f 392 395 393
f 393 395 378
f 393 403 394
f 394 403 404
f 375 378 382
f 382 378 395
f 365 396 406
f 406 396 405
f 362 402 373
f 373 402 399
f 271 270 400
f 400 270 384
f 401 361 406
f 406 361 365
f 381 369 386
f 386 369 368
f 392 396 395
f 395 396 390
f 393 378 403
f 403 378 377
f 403 377 358
f 358 377 359
f 406 405 408
f 408 405 407
f 406 408 401
f 401 408 409
f 401 409 402
f 402 409 410
f 402 410 399
f 399 410 411
f 405 391 407
f 407 391 412
f 391 394 412
f 412 394 413
f 394 404 413
f 413 404 414
f 415 416 412
f 412 416 407
f 418 419 417
f 417 419 420
f 421 422 418
f 418 422 419
f 419 422 424
f 424 422 423
f 425 426 424
f 424 426 427
f 423 428 424
f 424 428 425
f 427 420 424
f 424 420 419
f 420 429 417
f 417 429 430
f 423 422 431
f 431 422 421
f 421 409 431
f 431 409 408
f 421 432 409
f 409 432 410
f 418 433 421
f 421 433 432
f 434 433 417
f 417 433 418
f 431 416 423
f 423 416 428
f 416 431 407
f 407 431 408
f 435 434 430
f 430 434 417
f 433 434 436
f 436 434 437
f 434 435 437
f 437 435 438
f 436 437 439
f 439 437 440
f 439 441 436
f 436 441 442
f 438 443 437
f 437 443 440
f 436 442 433
f 433 442 432
f 432 442 410
f 410 442 411
f 435 430 445
f 445 430 444
f 430 429 444
f 444 429 446
f 425 428 447
f 447 428 416
f 426 425 448
f 448 425 447
f 416 415 447
f 447 415 449
f 447 449 448
f 448 449 450
f 451 452 448
f 448 452 426
f 446 452 444
f 444 452 451
f 399 411 397
f 397 411 453
f 398 454 404
f 404 454 414
f 454 398 453
f 453 398 397
f 453 441 454
f 454 441 455
f 441 439 455
f 455 439 456
f 454 455 414
f 414 455 457
f 441 453 442
f 442 453 411
f 458 413 457
f 457 413 414
f 458 415 413
f 413 415 412
f 458 459 415
f 415 459 449
f 459 458 460
f 460 458 457
f 461 459 462
f 462 459 460
f 455 456 457
f 457 456 460
f 456 463 460
f 460 463 462
f 459 461 449
f 449 461 450
f 465 450 464
f 464 450 461
f 464 467 466
f 466 467 468
f 464 461 467
f 467 461 462
f 464 466 465
f 465 466 445
f 465 445 451
f 451 445 444
f 451 448 465
f 465 448 450
f 439 440 456
f 456 440 463
f 468 463 443
f 443 463 440
f 468 467 463
f 463 467 462
f 466 468 438
f 438 468 443
f 438 435 466
f 466 435 445
f 420 427 429
f 429 427 446
f 446 427 452
f 452 427 426
f 370 369 188
f 188 369 186
f 371 376 372
f 372 376 375
f 380 379 387
f 387 379 388
f 379 381 388
f 388 381 386
f 385 384 278
f 278 384 270
f 380 387 371
f 371 387 376
f 400 370 271
f 271 370 188
f 385 278 372
f 372 278 247
f 400 384 389
f 389 384 383
f 369 381 186
f 186 381 263
f 221 271 144
f 144 271 188
f 221 19 207
f 207 19 22
f 19 18 22
f 22 18 23
f 18 219 23
f 23 219 208
f 469 470 472
f 472 470 471
f 474 475 473
f 473 475 476
f 473 476 477
f 477 476 478
f 480 481 479
f 479 481 482
f 483 484 474
f 474 484 475
f 486 487 485
f 485 487 488
f 489 490 77
f 77 490 142
f 491 489 248
f 248 489 77
f 493 494 492
f 492 494 495
f 496 480 484
f 484 480 475
f 486 497 487
f 487 497 471
f 498 496 472
f 472 496 484
f 499 493 478
f 478 493 500
f 501 502 504
f 504 502 503
f 493 492 500
f 500 492 505
f 506 477 500
f 500 477 478
f 499 478 479
f 479 478 476
f 469 507 470
f 470 507 508
f 483 509 469
f 469 509 507
f 479 482 499
f 499 482 510
f 492 495 485
f 485 495 511
f 483 469 484
f 484 469 472
f 473 512 474
f 474 512 513
f 497 498 471
f 471 498 472
f 475 480 476
f 476 480 479
f 470 508 514
f 514 508 515
f 506 502 516
f 516 502 501
f 503 502 488
f 488 502 505
f 514 515 503
f 503 515 504
f 485 488 492
f 492 488 505
f 477 506 517
f 517 506 516
f 474 513 483
f 483 513 509
f 510 292 494
f 494 292 164
f 512 473 517
f 517 473 477
f 491 481 496
f 496 481 480
f 502 506 505
f 505 506 500
f 503 488 514
f 514 488 487
f 514 487 470
f 470 487 471
f 517 516 519
f 519 516 518
f 517 519 512
f 512 519 520
f 512 520 513
f 513 520 521
f 513 521 509
f 509 521 522
f 516 501 518
f 518 501 523
f 501 504 523
f 523 504 524
f 524 504 525
f 525 504 515
f 526 527 523
f 523 527 518
f 529 530 528
f 528 530 531
f 532 533 529
f 529 533 530
f 530 533 535
f 535 533 534
f 536 537 535
f 535 537 538
f 534 539 535
f 535 539 536
f 538 531 535
f 535 531 530
f 540 541 531
f 531 541 528
f 533 532 534
f 534 532 542
f 532 520 542
f 542 520 519
f 532 543 520
f 520 543 521
f 529 544 532
f 532 544 543
f 544 529 545
f 545 529 528
f 534 542 539
f 539 542 527
f 527 542 518
f 518 542 519
f 541 546 528
f 528 546 545
f 547 544 548
f 548 544 545
f 546 549 545
f 545 549 548
f 550 547 551
f 551 547 548
f 547 550 553
f 553 550 552
f 549 554 548
f 548 554 551
f 544 547 543
f 543 547 553
f 543 553 521
f 521 553 522
f 546 541 556
f 556 541 555
f 541 540 555
f 555 540 557
f 536 539 558
f 558 539 527
f 537 536 559
f 559 536 558
f 527 526 558
f 558 526 560
f 559 558 561
f 561 558 560
f 559 562 537
f 537 562 563
f 557 563 555
f 555 563 562
f 509 522 507
f 507 522 564
f 508 565 515
f 515 565 525
f 565 508 564
f 564 508 507
f 564 552 565
f 565 552 566
f 552 550 566
f 566 550 567
f 565 566 525
f 525 566 568
f 564 522 552
f 552 522 553
f 569 524 568
f 568 524 525
f 569 526 524
f 524 526 523
f 570 560 569
f 569 560 526
f 570 569 571
f 571 569 568
f 572 570 573
f 573 570 571
f 566 567 568
f 568 567 571
f 567 574 571
f 571 574 573
f 570 572 560
f 560 572 561
f 576 561 575
f 575 561 572
f 575 578 577
f 577 578 579
f 575 572 578
f 578 572 573
f 575 577 576
f 576 577 556
f 576 556 562
f 562 556 555
f 562 559 576
f 576 559 561
f 550 551 567
f 567 551 574
f 579 574 554
f 554 574 551
f 579 578 574
f 574 578 573
f 579 554 577
f 577 554 549
f 549 546 577
f 577 546 556
f 531 538 540
f 540 538 557
f 557 538 563
f 563 538 537
f 481 294 482
f 482 294 293
f 580 486 511
f 511 486 485
f 490 489 497
f 497 489 498
f 489 491 498
f 498 491 496
f 163 495 164
f 164 495 494
f 580 490 486
f 486 490 497
f 482 293 510
f 510 293 292
f 495 163 511
f 511 163 199
f 494 493 510
f 510 493 499
f 481 491 294
f 294 491 248
f 582 583 581
f 581 583 584
f 586 587 585
f 585 587 588
f 585 588 589
f 589 588 590
f 592 593 591
f 591 593 594
f 595 596 598
f 598 596 597
f 599 600 586
f 586 600 587
f 601 602 604
f 604 602 603
f 605 606 608
f 608 606 607
f 609 607 200
f 200 607 606
f 610 611 613
f 613 611 612
f 600 614 587
f 587 614 592
f 596 605 597
f 597 605 608
f 602 615 603
f 603 615 583
f 616 614 584
f 584 614 600
f 611 618 617
f 617 618 590
f 620 621 619
f 619 621 622
f 610 623 611
f 611 623 618
f 624 589 618
f 618 589 590
f 617 590 591
f 591 590 588
f 581 625 582
f 582 625 626
f 599 627 581
f 581 627 625
f 591 594 617
f 617 594 628
f 601 610 598
f 598 610 613
f 581 584 599
f 599 584 600
f 585 629 586
f 586 629 630
f 615 616 583
f 583 616 584
f 587 592 588
f 588 592 591
f 582 626 631
f 631 626 632
f 624 620 633
f 633 620 619
f 621 620 604
f 604 620 623
f 631 632 621
f 621 632 622
f 610 601 623
f 623 601 604
f 589 624 634
f 634 624 633
f 586 630 599
f 599 630 627
f 203 202 628
f 628 202 612
f 629 585 634
f 634 585 589
f 609 593 614
f 614 593 592
f 620 624 623
f 623 624 618
f 631 621 603
f 603 621 604
f 582 631 583
f 583 631 603
f 634 633 636
f 636 633 635
f 634 636 629
f 629 636 637
f 629 637 630
f 630 637 638
f 630 638 627
f 627 638 639
f 633 619 635
f 635 619 640
f 619 622 640
f 640 622 641
f 641 622 642
f 642 622 632
f 644 635 643
f 643 635 640
f 645 646 648
f 648 646 647
f 649 650 646
f 646 650 647
f 647 650 652
f 652 650 651
f 652 653 655
f 655 653 654
f 651 656 652
f 652 656 653
f 655 648 652
f 652 648 647
f 648 657 645
f 645 657 658
f 650 649 651
f 651 649 659
f 649 637 659
f 659 637 636
f 649 660 637
f 637 660 638
f 661 660 646
f 646 660 649
f 662 661 645
f 645 661 646
f 651 659 656
f 656 659 644
f 644 659 635
f 635 659 636
f 663 662 658
f 658 662 645
f 664 661 665
f 665 661 662
f 663 666 662
f 662 666 665
f 667 664 668
f 668 664 665
f 664 667 670
f 670 667 669
f 666 671 665
f 665 671 668
f 661 664 660
f 660 664 670
f 660 670 638
f 638 670 639
f 658 672 663
f 663 672 673
f 658 657 672
f 672 657 674
f 653 656 675
f 675 656 644
f 653 675 654
f 654 675 676
f 675 644 677
f 677 644 643
f 676 675 678
f 678 675 677
f 679 680 676
f 676 680 654
f 674 680 672
f 672 680 679
f 627 639 625
f 625 639 681
f 626 682 632
f 632 682 642
f 681 682 625
f 625 682 626
f 669 683 681
f 681 683 682
f 667 684 669
f 669 684 683
f 682 683 642
f 642 683 685
f 681 639 669
f 669 639 670
f 686 641 685
f 685 641 642
f 641 686 640
f 640 686 643
f 686 687 643
f 643 687 677
f 687 686 688
f 688 686 685
f 689 687 690
f 690 687 688
f 683 684 685
f 685 684 688
f 684 691 688
f 688 691 690
f 687 689 677
f 677 689 678
f 693 678 692
f 692 678 689
f 692 695 694
f 694 695 696
f 692 689 695
f 695 689 690
f 692 694 693
f 693 694 673
f 693 673 679
f 679 673 672
f 679 676 693
f 693 676 678
f 684 667 691
f 691 667 668
f 696 691 671
f 671 691 668
f 696 695 691
f 691 695 690
f 694 696 666
f 666 696 671
f 666 663 694
f 694 663 673
f 648 655 657
f 657 655 674
f 674 655 680
f 680 655 654
f 593 162 594
f 594 162 290
f 598 597 601
f 601 597 602
f 615 608 616
f 616 608 607
f 607 609 616
f 616 609 614
f 697 595 613
f 613 595 598
f 597 608 602
f 602 608 615
f 594 290 628
f 628 290 203
f 628 612 617
f 617 612 611
f 593 609 162
f 162 609 200
f 105 29 698
f 698 29 699
f 268 126 701
f 701 126 700
f 126 125 700
f 700 125 702
f 252 703 250
f 250 703 704
f 32 268 705
f 705 268 701
f 288 105 706
f 706 105 698
f 29 32 699
f 699 32 705
f 707 251 706
f 706 251 288
f 250 704 125
f 125 704 702
f 703 252 707
f 707 252 251
f 706 708 707
f 707 708 709
f 707 709 703
f 703 709 710
f 703 710 704
f 704 710 711
f 704 711 702
f 702 711 712
f 706 698 708
f 708 698 713
f 698 699 713
f 713 699 714
f 699 705 714
f 714 705 715
f 717 708 716
f 716 708 713
f 719 720 718
f 718 720 721
f 722 723 719
f 719 723 720
f 724 725 723
f 723 725 720
f 724 726 725
f 725 726 727
f 728 721 725
f 725 721 720
f 721 728 729
f 729 728 730
f 729 731 721
f 721 731 718
f 724 723 732
f 732 723 722
f 722 710 732
f 732 710 709
f 722 733 710
f 710 733 711
f 719 734 722
f 722 734 733
f 734 719 735
f 735 719 718
f 724 732 726
f 726 732 717
f 717 732 708
f 708 732 709
f 731 736 718
f 718 736 735
f 737 734 738
f 738 734 735
f 736 739 735
f 735 739 738
f 740 737 741
f 741 737 738
f 737 740 743
f 743 740 742
f 739 744 738
f 738 744 741
f 734 737 733
f 733 737 743
f 733 743 711
f 711 743 712
f 736 731 746
f 746 731 745
f 731 729 745
f 745 729 730
f 727 726 747
f 747 726 717
f 748 727 749
f 749 727 747
f 747 717 750
f 750 717 716
f 749 747 751
f 751 747 750
f 749 752 748
f 748 752 753
f 730 753 745
f 745 753 752
f 728 725 748
f 748 725 727
f 730 728 753
f 753 728 748
f 700 702 754
f 754 702 712
f 705 701 715
f 715 701 755
f 754 755 700
f 700 755 701
f 742 756 754
f 754 756 755
f 740 757 742
f 742 757 756
f 755 756 715
f 715 756 758
f 754 712 742
f 742 712 743
f 759 714 758
f 758 714 715
f 714 759 713
f 713 759 716
f 759 760 716
f 716 760 750
f 760 759 761
f 761 759 758
f 762 760 763
f 763 760 761
f 756 757 758
f 758 757 761
f 757 764 761
f 761 764 763
f 760 762 750
f 750 762 751
f 766 751 765
f 765 751 762
f 767 765 769
f 769 765 768
f 765 762 768
f 768 762 763
f 765 767 766
f 766 767 746
f 766 746 752
f 752 746 745
f 752 749 766
f 766 749 751
f 757 740 764
f 764 740 741
f 769 764 744
f 744 764 741
f 769 768 764
f 764 768 763
f 767 769 739
f 739 769 744
f 739 736 767
f 767 736 746
f 219 217 208
f 208 217 209
f 209 217 210
f 210 217 193
f 198 580 199
f 199 580 511
f 76 75 289
f 289 75 272
f 277 207 291
f 291 207 184
f 290 183 203
f 203 183 84
f 490 580 142
f 142 580 198
f 142 198 143
f 143 198 197
f 149 276 72
f 72 276 73
f 104 103 279
f 279 103 770
f 770 596 279
f 279 596 595
f 605 596 771
f 771 596 770
f 771 770 772
f 772 770 103
f 772 103 773
f 773 103 102
f 155 774 101
f 101 774 102
f 773 102 97
f 97 102 774
f 775 773 100
f 100 773 97
f 773 775 772
f 772 775 776
f 772 776 771
f 771 776 777
f 200 606 197
f 197 606 777
f 189 71 778
f 778 71 74
f 97 774 98
f 98 774 155
f 183 161 184
f 184 161 291
f 777 276 197
f 197 276 143
f 777 606 771
f 771 606 605
f 613 612 697
f 697 612 202
f 595 697 279
f 279 697 202
f 73 276 776
f 776 276 777
f 776 775 73
f 73 775 74
f 100 778 775
f 775 778 74
f 778 100 189
f 189 100 99
f 245 242 99
f 99 242 189
f 131 33 256
f 28 1 95
f 95 1 62
f 27 2 28
f 28 2 1
f 265 115 266
f 266 115 114
f 95 62 69
f 69 62 64
f 62 61 64
f 64 61 65
f 61 13 65
f 65 13 130
f 13 12 130
f 130 12 14
f 31 11 32
f 32 11 268
f 15 12 31
f 31 12 11
f 31 30 15
f 15 30 231
f 30 106 231
f 231 106 232
f 287 237 106
f 106 237 232
f 254 90 287
f 287 90 237
f 253 44 254
f 254 44 90
f 253 249 44
f 44 249 7
f 267 127 268
f 268 127 126
f 10 3 241
f 241 3 116
f 3 2 116
f 116 2 114
f 2 27 114
f 114 27 266
f 27 26 266
f 266 26 113
f 26 286 113
f 113 286 110
f 286 243 110
f 110 243 255
f 243 242 255
f 255 242 256
f 242 245 256
f 256 245 131
f 245 244 131
f 131 244 132
f 265 37 115
f 115 37 41
f 41 37 42
f 42 37 40
f 92 91 40
f 40 91 42
f 236 233 92
f 92 233 91
f 191 194 236
f 236 194 233
f 258 285 244
f 244 285 132
f 257 55 258
f 258 55 285
f 257 154 201
f 201 154 185
f 56 201 204
f 204 201 180
f 55 257 56
f 56 257 201
f 204 85 56
f 56 85 52
f 86 122 53
f 53 122 79
f 212 215 86
f 86 215 122
f 211 216 212
f 212 216 215
f 192 280 211
f 211 280 216
f 191 240 192
f 192 240 280
f 249 124 7
f 7 124 8
f 124 127 8
f 8 127 241
f 127 267 241
f 241 267 10
f 10 267 9
f 9 267 11
f 93 39 235
f 235 39 240
f 39 123 240
f 240 123 280
f 123 119 280
f 280 119 216
f 119 118 216
f 216 118 215
f 118 120 215
f 215 120 122
f 120 121 122
f 122 121 79
f 121 109 79
f 79 109 80

