# https://github.com/mikedh/trimesh
v -0.11127019 0.18592396 -13.57588768 0.25098039 0.27450980 0.65882353
v -0.11942385 0.18971494 -13.58128357 0.25098039 0.27450980 0.65882353
v -0.11282109 0.18552716 -13.58996201 0.25098039 0.27450980 0.65882353
v -0.10410367 0.18183568 -13.58240986 0.25098039 0.27450980 0.65882353
v -0.12999237 0.19837515 -13.60066605 0.25098039 0.27450980 0.65882353
v -0.12852158 0.20951419 -13.60680199 0.25098039 0.27450980 0.65882353
v -0.11832551 0.19968590 -13.61388206 0.25098039 0.27450980 0.65882353
v -0.12196483 0.19197388 -13.60836220 0.25098039 0.27450980 0.65882353
v -0.09764259 0.18064655 -13.58697224 0.25098039 0.27450980 0.65882353
v -0.10770199 0.18166655 -13.59604931 0.25098039 0.27450980 0.65882353
v -0.09410463 0.18506849 -13.58984756 0.25098039 0.27450980 0.65882353
v -0.08347934 0.18734691 -13.57635784 0.25098039 0.27450980 0.65882353
v -0.08869332 0.18262383 -13.57711411 0.25098039 0.27450980 0.65882353
v -0.07835159 0.18579155 -13.56783772 0.25098039 0.27450980 0.65882353
v -0.08393800 0.19729063 -13.57262897 0.25098039 0.27450980 0.65882353
v -0.07931507 0.18991804 -13.55898285 0.25098039 0.27450980 0.65882353
v -0.10222359 0.20211011 -13.54549980 0.25098039 0.27450980 0.65882353
v -0.11334214 0.20008416 -13.53870296 0.25098039 0.27450980 0.65882353
v -0.10499628 0.18829358 -13.53311825 0.25098039 0.27450980 0.65882353
v -0.09459741 0.19120598 -13.54116058 0.25098039 0.27450980 0.65882353
v -0.12461894 0.18567714 -13.52985859 0.25098039 0.27450980 0.65882353
v -0.11338714 0.18654571 -13.53099060 0.25098039 0.27450980 0.65882353
v -0.12147394 0.19916540 -13.53586769 0.25098039 0.27450980 0.65882353
v -0.13129419 0.19793871 -13.53448963 0.25098039 0.27450980 0.65882353
v -0.12550655 0.18965699 -13.56735229 0.25098039 0.27450980 0.65882353
v -0.13354316 0.19450995 -13.57121754 0.25098039 0.27450980 0.65882353
v -0.12800163 0.19361031 -13.57314491 0.25098039 0.27450980 0.65882353
v -0.12047425 0.18960743 -13.57001209 0.25098039 0.27450980 0.65882353
v -0.09212014 0.19041465 -13.60328865 0.25098039 0.27450980 0.65882353
v -0.09114066 0.20029032 -13.59337521 0.25098039 0.27450980 0.65882353
v -0.09021640 0.19296074 -13.59027958 0.25098039 0.27450980 0.65882353
v -0.09515421 0.18591094 -13.60253716 0.25098039 0.27450980 0.65882353
v -0.15806362 0.20633464 -13.57922173 0.25098039 0.27450980 0.65882353
v -0.16219041 0.21957546 -13.58006001 0.25098039 0.27450980 0.65882353
v -0.15736060 0.22153333 -13.58261776 0.25098039 0.27450980 0.65882353
v -0.15478709 0.20906651 -13.58085060 0.25098039 0.27450980 0.65882353
v -0.14094570 0.21995635 -13.59646893 0.25098039 0.27450980 0.65882353
v -0.14440253 0.22812596 -13.59244823 0.25098039 0.27450980 0.65882353
v -0.13686654 0.24025367 -13.59277821 0.25098039 0.27450980 0.65882353
v -0.13094196 0.23349591 -13.59566879 0.25098039 0.27450980 0.65882353
v -0.13505346 0.21364689 -13.60167122 0.25098039 0.27450980 0.65882353
v -0.12740427 0.22511098 -13.60219955 0.25098039 0.27450980 0.65882353
v -0.12153892 0.21887337 -13.60774708 0.25098039 0.27450980 0.65882353
v -0.11245371 0.20666088 -13.61567783 0.25098039 0.27450980 0.65882353
v -0.17112441 0.21689402 -13.57147789 0.25098039 0.27450980 0.65882353
v -0.17011878 0.20704898 -13.56971550 0.25098039 0.27450980 0.65882353
v -0.05363703 0.14600505 -13.55867863 0.25098039 0.27450980 0.65882353
v -0.05766414 0.14276864 -13.55604744 0.25098039 0.27450980 0.65882353
v -0.05962639 0.14633955 -13.55609989 0.25098039 0.27450980 0.65882353
v -0.05535389 0.14907564 -13.55833054 0.25098039 0.27450980 0.65882353
v -0.17100409 0.21618363 -13.55150604 0.25098039 0.27450980 0.65882353
v -0.16570699 0.22119710 -13.54438019 0.25098039 0.27450980 0.65882353
v -0.17033288 0.22531867 -13.54707527 0.25098039 0.27450980 0.65882353
v -0.17384191 0.22190920 -13.55475330 0.25098039 0.27450980 0.65882353
v -0.16684496 0.20860212 -13.54694366 0.25098039 0.27450980 0.65882353
v -0.15919445 0.21502358 -13.54111004 0.25098039 0.27450980 0.65882353
v -0.04436693 0.14737861 -13.55046844 0.25098039 0.27450980 0.65882353
v -0.04586601 0.14772967 -13.55530071 0.25098039 0.27450980 0.65882353
v -0.04738347 0.15213557 -13.55360508 0.25098039 0.27450980 0.65882353
v -0.04654461 0.15221408 -13.54833984 0.25098039 0.27450980 0.65882353
v -0.09579177 0.18076769 -13.57560062 0.25098039 0.27450980 0.65882353
v -0.10437782 0.18103936 -13.57189655 0.25098039 0.27450980 0.65882353
v -0.08438766 0.16889399 -13.56524277 0.25098039 0.27450980 0.65882353
v -0.09296185 0.17433555 -13.56673336 0.25098039 0.27450980 0.65882353
v -0.08796182 0.17799494 -13.57049847 0.25098039 0.27450980 0.65882353
v -0.08086678 0.17430343 -13.56776047 0.25098039 0.27450980 0.65882353
v -0.11388044 0.17291370 -13.55620956 0.25098039 0.27450980 0.65882353
v -0.12084684 0.18139595 -13.56081772 0.25098039 0.27450980 0.65882353
v -0.11467990 0.18219161 -13.56307220 0.25098039 0.27450980 0.65882353
v -0.10608284 0.17256786 -13.55962753 0.25098039 0.27450980 0.65882353
v -0.13335045 0.17698672 -13.55663776 0.25098039 0.27450980 0.65882353
v -0.12551776 0.16927071 -13.55238819 0.25098039 0.27450980 0.65882353
v -0.13376248 0.16778359 -13.55071926 0.25098039 0.27450980 0.65882353
v -0.13823515 0.17304260 -13.55463982 0.25098039 0.27450980 0.65882353
v -0.10876551 0.15693034 -13.54474258 0.25098039 0.27450980 0.65882353
v -0.10243061 0.15339544 -13.53918839 0.25098039 0.27450980 0.65882353
v -0.10464424 0.15239094 -13.53717041 0.25098039 0.27450980 0.65882353
v -0.11171740 0.15648280 -13.54338360 0.25098039 0.27450980 0.65882353
v -0.17405143 0.23033804 -13.54864025 0.25098039 0.27450980 0.65882353
v -0.17529866 0.22786388 -13.55746746 0.25098039 0.27450980 0.65882353
v -0.14430907 0.18083385 -13.52890301 0.25098039 0.27450980 0.65882353
v -0.15389693 0.17879020 -13.53379154 0.25098039 0.27450980 0.65882353
v -0.14952350 0.16768107 -13.52912140 0.25098039 0.27450980 0.65882353
v -0.14110231 0.17278785 -13.52534389 0.25098039 0.27450980 0.65882353
v -0.15683386 0.22547668 -13.54148102 0.25098039 0.27450980 0.65882353
v -0.16258901 0.22956541 -13.54239178 0.25098039 0.27450980 0.65882353
v -0.04577160 0.14522001 -13.54506207 0.25098039 0.27450980 0.65882353
v -0.04786079 0.14992870 -13.54296398 0.25098039 0.27450980 0.65882353
v -0.11337778 0.22551987 -13.59964180 0.25098039 0.27450980 0.65882353
v -0.10471943 0.21122800 -13.61129570 0.25098039 0.27450980 0.65882353
v -0.12071767 0.23456483 -13.59213161 0.25098039 0.27450980 0.65882353
v -0.12542453 0.24088025 -13.58692074 0.25098039 0.27450980 0.65882353
v -0.12977217 0.24697833 -13.58525944 0.25098039 0.27450980 0.65882353
v -0.09491126 0.16927575 -13.56210804 0.25098039 0.27450980 0.65882353
v -0.11255619 0.18434298 -13.56835556 0.25098039 0.27450980 0.65882353
v -0.13010195 0.18851477 -13.56511116 0.25098039 0.27450980 0.65882353
v -0.15590334 0.17598249 -13.55488586 0.25098039 0.27450980 0.65882353
v -0.16200343 0.18400083 -13.55913448 0.25098039 0.27450980 0.65882353
v -0.15170234 0.18331993 -13.56303883 0.25098039 0.27450980 0.65882353
v -0.14845455 0.17656575 -13.55799294 0.25098039 0.27450980 0.65882353
v -0.15757419 0.17304531 -13.53982830 0.25098039 0.27450980 0.65882353
v -0.15440786 0.16920051 -13.54568100 0.25098039 0.27450980 0.65882353
v -0.14956406 0.16208307 -13.54252625 0.25098039 0.27450980 0.65882353
v -0.15241835 0.16475776 -13.53632164 0.25098039 0.27450980 0.65882353
v -0.09053722 0.19478306 -13.60859108 0.25098039 0.27450980 0.65882353
v -0.09215799 0.20604326 -13.59667301 0.25098039 0.27450980 0.65882353
v -0.17321566 0.21177173 -13.56054592 0.25098039 0.27450980 0.65882353
v -0.17401488 0.21842016 -13.56426525 0.25098039 0.27450980 0.65882353
v -0.17507896 0.22698970 -13.56468201 0.25098039 0.27450980 0.65882353
v -0.14548284 0.20011896 -13.57602596 0.25098039 0.27450980 0.65882353
v -0.15265609 0.21087049 -13.58205795 0.25098039 0.27450980 0.65882353
v -0.14973983 0.21076623 -13.58446884 0.25098039 0.27450980 0.65882353
v -0.14271362 0.19997522 -13.57662296 0.25098039 0.27450980 0.65882353
v -0.12999809 0.19398522 -13.58654976 0.25098039 0.27450980 0.65882353
v -0.13821676 0.20346305 -13.59239101 0.25098039 0.27450980 0.65882353
v -0.12369972 0.18899342 -13.59556675 0.25098039 0.27450980 0.65882353
v -0.15217322 0.22542466 -13.58682537 0.25098039 0.27450980 0.65882353
v -0.16092250 0.23101304 -13.58454132 0.25098039 0.27450980 0.65882353
v -0.15401179 0.23458831 -13.58838081 0.25098039 0.27450980 0.65882353
v -0.16788501 0.22872886 -13.57843399 0.25098039 0.27450980 0.65882353
v -0.17258817 0.22699033 -13.57132530 0.25098039 0.27450980 0.65882353
v -0.16691768 0.23530869 -13.54072666 0.25098039 0.27450980 0.65882353
v -0.14679979 0.23787761 -13.59095192 0.25098039 0.27450980 0.65882353
v -0.11535566 0.18698381 -13.61287975 0.25098039 0.27450980 0.65882353
v -0.10960381 0.18193996 -13.61592579 0.25098039 0.27450980 0.65882353
v -0.10721731 0.17945172 -13.60936832 0.25098039 0.27450980 0.65882353
v -0.11249763 0.18316151 -13.60594368 0.25098039 0.27450980 0.65882353
v -0.07264994 0.18167213 -13.56101036 0.25098039 0.27450980 0.65882353
v -0.07593735 0.17752054 -13.56618595 0.25098039 0.27450980 0.65882353
v -0.08235689 0.18231890 -13.57235909 0.25098039 0.27450980 0.65882353
v -0.15645659 0.19719116 -13.57294559 0.25098039 0.27450980 0.65882353
v -0.16749150 0.19781628 -13.56506824 0.25098039 0.27450980 0.65882353
v -0.08537236 0.16419506 -13.56012440 0.25098039 0.27450980 0.65882353
v -0.04982176 0.15690093 -13.54809284 0.25098039 0.27450980 0.65882353
v -0.05048050 0.15676829 -13.55381203 0.25098039 0.27450980 0.65882353
v -0.06299345 0.17065091 -13.55720806 0.25098039 0.27450980 0.65882353
v -0.06203143 0.17116283 -13.55034065 0.25098039 0.27450980 0.65882353
v -0.07936835 0.16039094 -13.55016708 0.25098039 0.27450980 0.65882353
v -0.08077058 0.16103238 -13.55692482 0.25098039 0.27450980 0.65882353
v -0.07798064 0.16005743 -13.55470371 0.25098039 0.27450980 0.65882353
v -0.07703167 0.15702984 -13.54887867 0.25098039 0.27450980 0.65882353
v -0.11365071 0.15175816 -13.53773975 0.25098039 0.27450980 0.65882353
v -0.11979439 0.15566906 -13.54258442 0.25098039 0.27450980 0.65882353
v -0.08736186 0.17734361 -13.53788757 0.25098039 0.27450980 0.65882353
v -0.07873848 0.18537644 -13.54434872 0.25098039 0.27450980 0.65882353
v -0.08560637 0.19325244 -13.54879761 0.25098039 0.27450980 0.65882353
v -0.12083177 0.17168295 -13.55404472 0.25098039 0.27450980 0.65882353
v -0.11503689 0.16351262 -13.54964352 0.25098039 0.27450980 0.65882353
v -0.11857876 0.16249046 -13.54810238 0.25098039 0.27450980 0.65882353
v -0.09457855 0.16594318 -13.55829144 0.25098039 0.27450980 0.65882353
v -0.08715899 0.16157782 -13.55495739 0.25098039 0.27450980 0.65882353
v -0.09321676 0.16226834 -13.55355930 0.25098039 0.27450980 0.65882353
v -0.09967291 0.16658087 -13.55585766 0.25098039 0.27450980 0.65882353
v -0.15918073 0.19029066 -13.53732395 0.25098039 0.27450980 0.65882353
v -0.16381292 0.18364024 -13.54408836 0.25098039 0.27450980 0.65882353
v -0.04929106 0.14748013 -13.55835629 0.25098039 0.27450980 0.65882353
v -0.05080260 0.15126771 -13.55732632 0.25098039 0.27450980 0.65882353
v -0.12734133 0.18008319 -13.55823803 0.25098039 0.27450980 0.65882353
v -0.09339041 0.20224571 -13.55443859 0.25098039 0.27450980 0.65882353
v -0.13481924 0.18693089 -13.56350040 0.25098039 0.27450980 0.65882353
v -0.12451463 0.16456746 -13.52406120 0.25098039 0.27450980 0.65882353
v -0.12713003 0.15820405 -13.52822113 0.25098039 0.27450980 0.65882353
v -0.12240013 0.15429513 -13.52635193 0.25098039 0.27450980 0.65882353
v -0.12033571 0.15810946 -13.52151680 0.25098039 0.27450980 0.65882353
v -0.06606627 0.14632371 -13.54600430 0.25098039 0.27450980 0.65882353
v -0.06599918 0.14600927 -13.55167484 0.25098039 0.27450980 0.65882353
v -0.06233938 0.14360923 -13.55107594 0.25098039 0.27450980 0.65882353
v -0.06193510 0.14308468 -13.54532337 0.25098039 0.27450980 0.65882353
v -0.07906568 0.16414157 -13.56157875 0.25098039 0.27450980 0.65882353
v -0.07585669 0.16921446 -13.56448174 0.25098039 0.27450980 0.65882353
v -0.07200903 0.16426823 -13.56232071 0.25098039 0.27450980 0.65882353
v -0.07532439 0.16137683 -13.55861855 0.25098039 0.27450980 0.65882353
v -0.07083884 0.17278090 -13.56268215 0.25098039 0.27450980 0.65882353
v -0.06703976 0.16822277 -13.56173420 0.25098039 0.27450980 0.65882353
v -0.06257376 0.14877844 -13.54108047 0.25098039 0.27450980 0.65882353
v -0.05633560 0.15259522 -13.53949833 0.25098039 0.27450980 0.65882353
v -0.06877865 0.16479582 -13.54068756 0.25098039 0.27450980 0.65882353
v -0.07266019 0.15842833 -13.54304218 0.25098039 0.27450980 0.65882353
v -0.13688350 0.21051070 -13.53832150 0.25098039 0.27450980 0.65882353
v -0.14706078 0.20730481 -13.53651142 0.25098039 0.27450980 0.65882353
v -0.14133659 0.19460598 -13.53286934 0.25098039 0.27450980 0.65882353
v -0.13598244 0.18262421 -13.52861404 0.25098039 0.27450980 0.65882353
v -0.13029942 0.17066029 -13.52533817 0.25098039 0.27450980 0.65882353
v -0.11975680 0.17539333 -13.52471352 0.25098039 0.27450980 0.65882353
v -0.14903273 0.19309643 -13.53306866 0.25098039 0.27450980 0.65882353
v -0.08285575 0.16448027 -13.54232597 0.25098039 0.27450980 0.65882353
v -0.07804084 0.17260471 -13.54142475 0.25098039 0.27450980 0.65882353
v -0.08394122 0.17057323 -13.53883839 0.25098039 0.27450980 0.65882353
v -0.14133979 0.18383127 -13.56216526 0.25098039 0.27450980 0.65882353
v -0.05370289 0.15515476 -13.55821800 0.25098039 0.27450980 0.65882353
v -0.12549587 0.24234533 -13.56363583 0.25098039 0.27450980 0.65882353
v -0.13307628 0.24029574 -13.55279160 0.25098039 0.27450980 0.65882353
v -0.12889190 0.23372167 -13.55332470 0.25098039 0.27450980 0.65882353
v -0.12035730 0.23575217 -13.56577301 0.25098039 0.27450980 0.65882353
v -0.06335543 0.14830020 -13.55747414 0.25098039 0.27450980 0.65882353
v -0.05862045 0.15170994 -13.56039619 0.25098039 0.27450980 0.65882353
v -0.12478192 0.15297307 -13.53993225 0.25098039 0.27450980 0.65882353
v -0.11885116 0.15054691 -13.53573990 0.25098039 0.27450980 0.65882353
v -0.12038226 0.15024944 -13.53188705 0.25098039 0.27450980 0.65882353
v -0.12770751 0.14982516 -13.53649044 0.25098039 0.27450980 0.65882353
v -0.15280576 0.20666334 -13.53670120 0.25098039 0.27450980 0.65882353
v -0.14768824 0.16021824 -13.52801704 0.25098039 0.27450980 0.65882353
v -0.14023690 0.16511685 -13.52368736 0.25098039 0.27450980 0.65882353
v -0.15153155 0.21858671 -13.53975868 0.25098039 0.27450980 0.65882353
v -0.14257704 0.22144532 -13.54088688 0.25098039 0.27450980 0.65882353
v -0.14680642 0.22916770 -13.54218006 0.25098039 0.27450980 0.65882353
v -0.10433000 0.17282018 -13.52703476 0.25098039 0.27450980 0.65882353
v -0.12899600 0.21086107 -13.54012012 0.25098039 0.27450980 0.65882353
v -0.13567710 0.22185075 -13.54329300 0.25098039 0.27450980 0.65882353
v -0.14041232 0.23127782 -13.54476261 0.25098039 0.27450980 0.65882353
v -0.14348873 0.23815501 -13.54474735 0.25098039 0.27450980 0.65882353
v -0.15045603 0.23467939 -13.54250526 0.25098039 0.27450980 0.65882353
v -0.05187006 0.15461138 -13.54264736 0.25098039 0.27450980 0.65882353
v -0.05227236 0.14673294 -13.53919220 0.25098039 0.27450980 0.65882353
v -0.15419324 0.24104585 -13.54098606 0.25098039 0.27450980 0.65882353
v -0.14611788 0.24416293 -13.54409599 0.25098039 0.27450980 0.65882353
v -0.12762973 0.22277060 -13.54707718 0.25098039 0.27450980 0.65882353
v -0.11902997 0.22334962 -13.55282402 0.25098039 0.27450980 0.65882353
v -0.12132820 0.21235743 -13.54305077 0.25098039 0.27450980 0.65882353
v -0.11163071 0.21244776 -13.54845333 0.25098039 0.27450980 0.65882353
v -0.09686574 0.17954831 -13.52910709 0.25098039 0.27450980 0.65882353
v -0.04995854 0.13035652 -13.54509258 0.25098039 0.27450980 0.65882353
v -0.05533439 0.13951251 -13.54168129 0.25098039 0.27450980 0.65882353
v -0.05942766 0.13903001 -13.54566193 0.25098039 0.27450980 0.65882353
v -0.05395374 0.12958997 -13.54689026 0.25098039 0.27450980 0.65882353
v -0.05848104 0.14434677 -13.54092503 0.25098039 0.27450980 0.65882353
v -0.05014981 0.14228156 -13.54120255 0.25098039 0.27450980 0.65882353
v -0.10168839 0.21248420 -13.55988216 0.25098039 0.27450980 0.65882353
v -0.08689329 0.15895735 -13.54901695 0.25098039 0.27450980 0.65882353
v -0.10944708 0.22422393 -13.56804180 0.25098039 0.27450980 0.65882353
v -0.09078686 0.20775132 -13.57521629 0.25098039 0.27450980 0.65882353
v -0.09793994 0.21539080 -13.58272648 0.25098039 0.27450980 0.65882353
v -0.11651903 0.23673353 -13.57753277 0.25098039 0.27450980 0.65882353
v -0.10720968 0.22738186 -13.58718109 0.25098039 0.27450980 0.65882353
v -0.12752375 0.24848619 -13.57489395 0.25098039 0.27450980 0.65882353
v -0.12235055 0.24232915 -13.57495594 0.25098039 0.27450980 0.65882353
v -0.09979795 0.21702373 -13.59877491 0.25098039 0.27450980 0.65882353
v -0.05206650 0.13591163 -13.55997944 0.25098039 0.27450980 0.65882353
v -0.05604891 0.13357095 -13.55656242 0.25098039 0.27450980 0.65882353
v -0.12935798 0.24873224 -13.56335545 0.25098039 0.27450980 0.65882353
v -0.11717728 0.18573931 -13.60195637 0.25098039 0.27450980 0.65882353
v -0.14617352 0.19132660 -13.56808090 0.25098039 0.27450980 0.65882353
v -0.14092149 0.19270721 -13.56937027 0.25098039 0.27450980 0.65882353
v -0.16476175 0.18948825 -13.56104565 0.25098039 0.27450980 0.65882353
v -0.15353806 0.18997043 -13.56714058 0.25098039 0.27450980 0.65882353
v -0.04698932 0.13773659 -13.56045532 0.25098039 0.27450980 0.65882353
v -0.09860140 0.15327846 -13.53323746 0.25098039 0.27450980 0.65882353
v -0.10117072 0.15483931 -13.53291225 0.25098039 0.27450980 0.65882353
v -0.11307025 0.19280253 -13.61821270 0.25098039 0.27450980 0.65882353
v -0.10879156 0.18747611 -13.62080002 0.25098039 0.27450980 0.65882353
v -0.09764312 0.19395129 -13.62083626 0.25098039 0.27450980 0.65882353
v -0.10377127 0.19141485 -13.62309647 0.25098039 0.27450980 0.65882353
v -0.10741878 0.19872947 -13.62020016 0.25098039 0.27450980 0.65882353
v -0.10109892 0.20192231 -13.61775684 0.25098039 0.27450980 0.65882353
v -0.14738213 0.19924065 -13.57572079 0.25098039 0.27450980 0.65882353
v -0.15052684 0.19802624 -13.57466507 0.25098039 0.27450980 0.65882353
v -0.16347557 0.20003946 -13.54219723 0.25098039 0.27450980 0.65882353
v -0.16736169 0.19327742 -13.54950047 0.25098039 0.27450980 0.65882353
v -0.06806158 0.17601840 -13.55782223 0.25098039 0.27450980 0.65882353
v -0.07304426 0.18370318 -13.55268574 0.25098039 0.27450980 0.65882353
v -0.06790137 0.17705913 -13.55075645 0.25098039 0.27450980 0.65882353
v -0.06519617 0.17031011 -13.54403591 0.25098039 0.27450980 0.65882353
v -0.08273500 0.15962981 -13.54486847 0.25098039 0.27450980 0.65882353
v -0.07816194 0.16286632 -13.54514503 0.25098039 0.27450980 0.65882353
v -0.14450103 0.20627388 -13.58795071 0.25098039 0.27450980 0.65882353
v -0.13675325 0.19767088 -13.57931519 0.25098039 0.27450980 0.65882353
v -0.10514948 0.18192235 -13.60025311 0.25098039 0.27450980 0.65882353
v -0.10149381 0.18068397 -13.60389709 0.25098039 0.27450980 0.65882353
v -0.10733247 0.16665041 -13.55337429 0.25098039 0.27450980 0.65882353
v -0.09551312 0.16452789 -13.52613258 0.25098039 0.27450980 0.65882353
v -0.08978195 0.16989186 -13.52802467 0.25098039 0.27450980 0.65882353
v -0.10093160 0.16061921 -13.54945564 0.25098039 0.27450980 0.65882353
v -0.04092443 0.13688643 -13.55409718 0.25098039 0.27450980 0.65882353
v -0.04350026 0.13775901 -13.55849457 0.25098039 0.27450980 0.65882353
v -0.07147244 0.17675057 -13.54436874 0.25098039 0.27450980 0.65882353
v -0.12650788 0.16003200 -13.54716969 0.25098039 0.27450980 0.65882353
v -0.10448934 0.16625835 -13.52644157 0.25098039 0.27450980 0.65882353
v -0.09759305 0.15796459 -13.52761078 0.25098039 0.27450980 0.65882353
v -0.14930552 0.15976140 -13.53557682 0.25098039 0.27450980 0.65882353
v -0.13688862 0.24693708 -13.55321026 0.25098039 0.27450980 0.65882353
v -0.06046556 0.13956764 -13.55122471 0.25098039 0.27450980 0.65882353
v -0.05753309 0.13162577 -13.55200005 0.25098039 0.27450980 0.65882353
v -0.04623871 0.13254523 -13.54511929 0.25098039 0.27450980 0.65882353
v -0.04221340 0.13575836 -13.54821110 0.25098039 0.27450980 0.65882353
v -0.17003304 0.20153263 -13.55561161 0.25098039 0.27450980 0.65882353
v -0.13773502 0.19377171 -13.56960583 0.25098039 0.27450980 0.65882353
v -0.09571095 0.20642544 -13.60844994 0.25098039 0.27450980 0.65882353
v -0.09288703 0.19541790 -13.61546135 0.25098039 0.27450980 0.65882353
v -0.09657322 0.15675709 -13.54603386 0.25098039 0.27450980 0.65882353
v -0.13192305 0.16331166 -13.52556515 0.25098039 0.27450980 0.65882353
v -0.11613317 0.16774638 -13.52172565 0.25098039 0.27450980 0.65882353
v -0.11272010 0.16126676 -13.51847649 0.25098039 0.27450980 0.65882353
v -0.10545518 0.16011965 -13.52086544 0.25098039 0.27450980 0.65882353
v -0.10085365 0.15626442 -13.52568245 0.25098039 0.27450980 0.65882353
v -0.04533078 0.12721193 -13.54743576 0.25098039 0.27450980 0.65882353
v -0.04123199 0.13054706 -13.55032253 0.25098039 0.27450980 0.65882353
v -0.04001935 0.13213217 -13.55602741 0.25098039 0.27450980 0.65882353
v -0.04228529 0.13382328 -13.55978298 0.25098039 0.27450980 0.65882353
v -0.04642804 0.13456699 -13.56116772 0.25098039 0.27450980 0.65882353
v -0.04919210 0.12503943 -13.54789639 0.25098039 0.27450980 0.65882353
v -0.05272314 0.12492037 -13.54984856 0.25098039 0.27450980 0.65882353
v -0.05631052 0.12853509 -13.55304241 0.25098039 0.27450980 0.65882353
v -0.05024190 0.12132408 -13.55136013 0.25098039 0.27450980 0.65882353
v -0.04524465 0.11994432 -13.55263519 0.25098039 0.27450980 0.65882353
v -0.04195964 0.12201530 -13.56609726 0.25098039 0.27450980 0.65882353
v -0.04030779 0.12493789 -13.56101131 0.25098039 0.27450980 0.65882353
v -0.04068266 0.12219757 -13.56120491 0.25098039 0.27450980 0.65882353
v -0.04207520 0.11907550 -13.56499577 0.25098039 0.27450980 0.65882353
v -0.04314272 0.11467257 -13.56770134 0.25098039 0.27450980 0.65882353
v -0.04308236 0.11751656 -13.56973076 0.25098039 0.27450980 0.65882353
v -0.04169449 0.12186964 -13.55661488 0.25098039 0.27450980 0.65882353
v -0.04339470 0.11694548 -13.56112671 0.25098039 0.27450980 0.65882353
v -0.04614829 0.11528284 -13.55853367 0.25098039 0.27450980 0.65882353
v -0.04664119 0.11098927 -13.56233025 0.25098039 0.27450980 0.65882353
v -0.04409128 0.11225951 -13.56461143 0.25098039 0.27450980 0.65882353
v -0.04465938 0.11863117 -13.55556393 0.25098039 0.27450980 0.65882353
v -0.04082170 0.12359001 -13.55466938 0.25098039 0.27450980 0.65882353
v -0.04454961 0.11310975 -13.57077980 0.25098039 0.27450980 0.65882353
v -0.04368560 0.11180437 -13.56887054 0.25098039 0.27450980 0.65882353
v -0.04502486 0.11000437 -13.56680012 0.25098039 0.27450980 0.65882353
v -0.04672155 0.10890786 -13.56915951 0.25098039 0.27450980 0.65882353
v -0.04261507 0.13001531 -13.56247139 0.25098039 0.27450980 0.65882353
v -0.04343207 0.12349876 -13.56766224 0.25098039 0.27450980 0.65882353
v -0.04580756 0.11864595 -13.57057476 0.25098039 0.27450980 0.65882353
v -0.04706535 0.11419291 -13.57146549 0.25098039 0.27450980 0.65882353
v -0.04744011 0.12333877 -13.56847286 0.25098039 0.27450980 0.65882353
v -0.04868732 0.11907695 -13.57028961 0.25098039 0.27450980 0.65882353
v -0.05006294 0.11527918 -13.57066250 0.25098039 0.27450980 0.65882353
v -0.05147578 0.12241066 -13.56782246 0.25098039 0.27450980 0.65882353
v -0.05163701 0.11857155 -13.56926632 0.25098039 0.27450980 0.65882353
v -0.05026010 0.13154982 -13.56171131 0.25098039 0.27450980 0.65882353
v -0.04632053 0.13274010 -13.56255722 0.25098039 0.27450980 0.65882353
v -0.05203217 0.11615354 -13.57017136 0.25098039 0.27450980 0.65882353
v -0.04888590 0.10945508 -13.56960106 0.25098039 0.27450980 0.65882353
v -0.04899324 0.11608672 -13.55635548 0.25098039 0.27450980 0.65882353
v -0.04980108 0.11151181 -13.56198120 0.25098039 0.27450980 0.65882353
v -0.05139300 0.11653362 -13.55646992 0.25098039 0.27450980 0.65882353
v -0.05217755 0.11173459 -13.56168365 0.25098039 0.27450980 0.65882353
v -0.04930089 0.10812789 -13.56519699 0.25098039 0.27450980 0.65882353
v -0.04701167 0.10924186 -13.56488228 0.25098039 0.27450980 0.65882353
v -0.05149361 0.13387853 -13.55996513 0.25098039 0.27450980 0.65882353
v -0.05550811 0.13129865 -13.55645561 0.25098039 0.27450980 0.65882353
v -0.05470653 0.12916289 -13.55801582 0.25098039 0.27450980 0.65882353
v -0.05499175 0.12080316 -13.56504154 0.25098039 0.27450980 0.65882353
v -0.05594844 0.12617084 -13.55533695 0.25098039 0.27450980 0.65882353
v -0.05360523 0.12176481 -13.55338001 0.25098039 0.27450980 0.65882353
v -0.05387151 0.11671392 -13.55823517 0.25098039 0.27450980 0.65882353
v -0.05558264 0.11817495 -13.56075954 0.25098039 0.27450980 0.65882353
v -0.05405247 0.11311311 -13.56243420 0.25098039 0.27450980 0.65882353
v -0.05466959 0.11489385 -13.56405544 0.25098039 0.27450980 0.65882353
v -0.05419211 0.11699033 -13.56721210 0.25098039 0.27450980 0.65882353
v -0.05320713 0.11122866 -13.56610107 0.25098039 0.27450980 0.65882353
v -0.05126211 0.10909217 -13.56558323 0.25098039 0.27450980 0.65882353
v -0.05139713 0.11185052 -13.56928158 0.25098039 0.27450980 0.65882353
v -0.05413975 0.11299335 -13.56619072 0.25098039 0.27450980 0.65882353
v -0.05264390 0.11415573 -13.56849766 0.25098039 0.27450980 0.65882353
v -0.07208259 0.12972021 -13.53694916 0.25098039 0.27450980 0.65882353
v -0.07705666 0.12725854 -13.53369904 0.25098039 0.27450980 0.65882353
v -0.07797737 0.13239482 -13.53335476 0.25098039 0.27450980 0.65882353
v -0.07372142 0.13400295 -13.53624153 0.25098039 0.27450980 0.65882353
v -0.06276512 0.13346964 -13.52793121 0.25098039 0.27450980 0.65882353
v -0.06455344 0.13247699 -13.53338814 0.25098039 0.27450980 0.65882353
v -0.06546275 0.13765790 -13.53230095 0.25098039 0.27450980 0.65882353
v -0.06476654 0.13882747 -13.52595425 0.25098039 0.27450980 0.65882353
v -0.06570318 0.13275269 -13.52182484 0.25098039 0.27450980 0.65882353
v -0.06803414 0.13832593 -13.51998234 0.25098039 0.27450980 0.65882353
v -0.06665732 0.14395934 -13.52619934 0.25098039 0.27450980 0.65882353
v -0.06795555 0.14261755 -13.53305244 0.25098039 0.27450980 0.65882353
v -0.07954933 0.15922567 -13.53878593 0.25098039 0.27450980 0.65882353
v -0.07860214 0.16136298 -13.53197765 0.25098039 0.27450980 0.65882353
v -0.09503174 0.15072158 -13.53718472 0.25098039 0.27450980 0.65882353
v -0.09447372 0.15059096 -13.53322124 0.25098039 0.27450980 0.65882353
v -0.06837058 0.13107023 -13.53643322 0.25098039 0.27450980 0.65882353
v -0.06942409 0.13573465 -13.53541756 0.25098039 0.27450980 0.65882353
v -0.08476059 0.13425604 -13.52712536 0.25098039 0.27450980 0.65882353
v -0.08382656 0.13418898 -13.53244305 0.25098039 0.27450980 0.65882353
v -0.08124350 0.13041945 -13.53045940 0.25098039 0.27450980 0.65882353
v -0.08139309 0.13034046 -13.52484608 0.25098039 0.27450980 0.65882353
v -0.08618724 0.15570253 -13.54340839 0.25098039 0.27450980 0.65882353
v -0.09165563 0.15355673 -13.54095840 0.25098039 0.27450980 0.65882353
v -0.08252636 0.15686400 -13.54214096 0.25098039 0.27450980 0.65882353
v -0.08277573 0.13607204 -13.52109146 0.25098039 0.27450980 0.65882353
v -0.07773840 0.13950747 -13.51770973 0.25098039 0.27450980 0.65882353
v -0.08820438 0.15641785 -13.52238655 0.25098039 0.27450980 0.65882353
v -0.09229891 0.15232101 -13.52519226 0.25098039 0.27450980 0.65882353
v -0.07111692 0.14020066 -13.53698349 0.25098039 0.27450980 0.65882353
v -0.08023950 0.13542582 -13.53635597 0.25098039 0.27450980 0.65882353
v -0.07584520 0.13742864 -13.53843307 0.25098039 0.27450980 0.65882353
v -0.07122321 0.14312068 -13.52048588 0.25098039 0.27450980 0.65882353
v -0.07403535 0.13398501 -13.51756859 0.25098039 0.27450980 0.65882353
v -0.07185355 0.11429688 -13.52288055 0.25098039 0.27450980 0.65882353
v -0.07648250 0.12588596 -13.52049255 0.25098039 0.27450980 0.65882353
v -0.07910357 0.12491754 -13.52478600 0.25098039 0.27450980 0.65882353
v -0.07522005 0.11289164 -13.52624130 0.25098039 0.27450980 0.65882353
v -0.07901625 0.13127708 -13.51990414 0.25098039 0.27450980 0.65882353
v -0.07144782 0.12890348 -13.51912308 0.25098039 0.27450980 0.65882353
v -0.06966408 0.11502789 -13.53897858 0.25098039 0.27450980 0.65882353
v -0.07467705 0.11282887 -13.53552151 0.25098039 0.27450980 0.65882353
v -0.06521860 0.11642628 -13.53917122 0.25098039 0.27450980 0.65882353
v -0.08236356 0.16062051 -13.52498817 0.25098039 0.27450980 0.65882353
v -0.05931790 0.12003411 -13.53129005 0.25098039 0.27450980 0.65882353
v -0.06181382 0.11829263 -13.53717518 0.25098039 0.27450980 0.65882353
v -0.07985832 0.12549070 -13.52976513 0.25098039 0.27450980 0.65882353
v -0.07641545 0.11199346 -13.53083611 0.25098039 0.27450980 0.65882353
v -0.06764935 0.11624050 -13.52213001 0.25098039 0.27450980 0.65882353
v -0.06201594 0.12021375 -13.52497005 0.25098039 0.27450980 0.65882353
v -0.06617406 0.11048167 -13.52402592 0.25098039 0.27450980 0.65882353
v -0.06094079 0.11324309 -13.52690411 0.25098039 0.27450980 0.65882353
v -0.05857255 0.11367841 -13.53308582 0.25098039 0.27450980 0.65882353
v -0.06153573 0.11346899 -13.53813553 0.25098039 0.27450980 0.65882353
v -0.06503117 0.11306006 -13.53982258 0.25098039 0.27450980 0.65882353
v -0.07015556 0.10875772 -13.52479172 0.25098039 0.27450980 0.65882353
v -0.07364956 0.10791229 -13.52773666 0.25098039 0.27450980 0.65882353
v -0.07532424 0.10950133 -13.53202152 0.25098039 0.27450980 0.65882353
v -0.07099979 0.10241282 -13.52866364 0.25098039 0.27450980 0.65882353
v -0.06644632 0.10208037 -13.52804470 0.25098039 0.27450980 0.65882353
v -0.06171484 0.09579550 -13.54491806 0.25098039 0.27450980 0.65882353
v -0.06056735 0.10084888 -13.54161453 0.25098039 0.27450980 0.65882353
v -0.06056266 0.09918380 -13.53953266 0.25098039 0.27450980 0.65882353
v -0.06168845 0.09453467 -13.54236221 0.25098039 0.27450980 0.65882353
v -0.05873014 0.10475054 -13.53684807 0.25098039 0.27450980 0.65882353
v -0.05957492 0.10236514 -13.53614235 0.25098039 0.27450980 0.65882353
v -0.06165951 0.10206327 -13.53195667 0.25098039 0.27450980 0.65882353
v -0.06296226 0.09714234 -13.53572941 0.25098039 0.27450980 0.65882353
v -0.06670737 0.09669599 -13.53279781 0.25098039 0.27450980 0.65882353
v -0.06707653 0.09144655 -13.53540039 0.25098039 0.27450980 0.65882353
v -0.06330660 0.09184879 -13.53836632 0.25098039 0.27450980 0.65882353
v -0.06481329 0.10006963 -13.53059483 0.25098039 0.27450980 0.65882353
v -0.06264898 0.09109963 -13.54343510 0.25098039 0.27450980 0.65882353
v -0.06378193 0.09044918 -13.54571247 0.25098039 0.27450980 0.65882353
v -0.06053013 0.10464382 -13.53009987 0.25098039 0.27450980 0.65882353
v -0.06091215 0.10965595 -13.53948021 0.25098039 0.27450980 0.65882353
v -0.06226239 0.10190812 -13.54398632 0.25098039 0.27450980 0.65882353
v -0.06416105 0.09614496 -13.54704952 0.25098039 0.27450980 0.65882353
v -0.06671551 0.09041269 -13.54667377 0.25098039 0.27450980 0.65882353
v -0.06623991 0.10191610 -13.54551983 0.25098039 0.27450980 0.65882353
v -0.06741025 0.09625165 -13.54759884 0.25098039 0.27450980 0.65882353
v -0.06922047 0.09158394 -13.54650593 0.25098039 0.27450980 0.65882353
v -0.07099810 0.10153854 -13.54545498 0.25098039 0.27450980 0.65882353
v -0.07154873 0.09586643 -13.54671955 0.25098039 0.27450980 0.65882353
v -0.06972255 0.11084339 -13.54040241 0.25098039 0.27450980 0.65882353
v -0.06508523 0.11102258 -13.54131699 0.25098039 0.27450980 0.65882353
v -0.07110018 0.09314230 -13.54624367 0.25098039 0.27450980 0.65882353
v -0.06547363 0.08711761 -13.54242134 0.25098039 0.27450980 0.65882353
v -0.06853110 0.08761370 -13.54403591 0.25098039 0.27450980 0.65882353
v -0.06452242 0.08855812 -13.54115772 0.25098039 0.27450980 0.65882353
v -0.06876847 0.09674232 -13.53218460 0.25098039 0.27450980 0.65882353
v -0.06936820 0.09138066 -13.53599358 0.25098039 0.27450980 0.65882353
v -0.07162161 0.09673454 -13.53280830 0.25098039 0.27450980 0.65882353
v -0.07164034 0.09113804 -13.53715801 0.25098039 0.27450980 0.65882353
v -0.06869476 0.08767420 -13.53903770 0.25098039 0.27450980 0.65882353
v -0.06701633 0.08803141 -13.53869343 0.25098039 0.27450980 0.65882353
v -0.06928203 0.11246450 -13.53882885 0.25098039 0.27450980 0.65882353
v -0.07381526 0.11092755 -13.53564358 0.25098039 0.27450980 0.65882353
v -0.07412849 0.10961397 -13.53705788 0.25098039 0.27450980 0.65882353
v -0.07471846 0.10016081 -13.54187298 0.25098039 0.27450980 0.65882353
v -0.07562938 0.10754329 -13.53311539 0.25098039 0.27450980 0.65882353
v -0.07391362 0.10377069 -13.53034210 0.25098039 0.27450980 0.65882353
v -0.07406433 0.09759459 -13.53401947 0.25098039 0.27450980 0.65882353
v -0.07566011 0.09851229 -13.53757477 0.25098039 0.27450980 0.65882353
v -0.07390387 0.09144536 -13.53747749 0.25098039 0.27450980 0.65882353
v -0.07512237 0.09388290 -13.53919220 0.25098039 0.27450980 0.65882353
v -0.07444185 0.09530379 -13.54382229 0.25098039 0.27450980 0.65882353
v -0.07265328 0.08816239 -13.54064941 0.25098039 0.27450980 0.65882353
v -0.07041644 0.08746724 -13.53981113 0.25098039 0.27450980 0.65882353
v -0.07037312 0.08899271 -13.54441166 0.25098039 0.27450980 0.65882353
v -0.07409599 0.09073262 -13.54133415 0.25098039 0.27450980 0.65882353
v -0.07251643 0.09151173 -13.54453754 0.25098039 0.27450980 0.65882353
v -0.09517561 0.12981567 -13.52433109 0.25098039 0.27450980 0.65882353
v -0.10083677 0.12834191 -13.52537537 0.25098039 0.27450980 0.65882353
v -0.10189338 0.13177338 -13.52544880 0.25098039 0.27450980 0.65882353
v -0.09641099 0.13332769 -13.52433014 0.25098039 0.27450980 0.65882353
v -0.09405039 0.13111039 -13.51189709 0.25098039 0.27450980 0.65882353
v -0.09155922 0.13070792 -13.51612854 0.25098039 0.27450980 0.65882353
v -0.09282912 0.13550802 -13.51602364 0.25098039 0.27450980 0.65882353
v -0.09554538 0.13733327 -13.51153278 0.25098039 0.27450980 0.65882353
v -0.09855284 0.12863079 -13.50968838 0.25098039 0.27450980 0.65882353
v -0.10094349 0.13672334 -13.50847721 0.25098039 0.27450980 0.65882353
v -0.09681927 0.14316070 -13.51208019 0.25098039 0.27450980 0.65882353
v -0.09399486 0.14009640 -13.51677608 0.25098039 0.27450980 0.65882353
v -0.09953031 0.15288496 -13.52336884 0.25098039 0.27450980 0.65882353
v -0.10245472 0.15521249 -13.51751614 0.25098039 0.27450980 0.65882353
v -0.09236652 0.13031977 -13.52069855 0.25098039 0.27450980 0.65882353
v -0.09348759 0.13416974 -13.52082443 0.25098039 0.27450980 0.65882353
v -0.11098252 0.13277598 -13.52261925 0.25098039 0.27450980 0.65882353
v -0.10760000 0.13292961 -13.52601433 0.25098039 0.27450980 0.65882353
v -0.10678518 0.13018450 -13.52385139 0.25098039 0.27450980 0.65882353
v -0.10942659 0.12976635 -13.52055359 0.25098039 0.27450980 0.65882353
v -0.10438161 0.14996339 -13.53319359 0.25098039 0.27450980 0.65882353
v -0.11043341 0.14962094 -13.53325272 0.25098039 0.27450980 0.65882353
v -0.10038936 0.15014386 -13.52914715 0.25098039 0.27450980 0.65882353
v -0.11181253 0.13442715 -13.51633072 0.25098039 0.27450980 0.65882353
v -0.10932525 0.13867778 -13.51066780 0.25098039 0.27450980 0.65882353
v -0.11603644 0.15079156 -13.51694584 0.25098039 0.27450980 0.65882353
v -0.11794068 0.14834006 -13.52258205 0.25098039 0.27450980 0.65882353
v -0.09436987 0.13770707 -13.52161884 0.25098039 0.27450980 0.65882353
v -0.10279949 0.13457346 -13.52755356 0.25098039 0.27450980 0.65882353
v -0.09729898 0.13584110 -13.52604103 0.25098039 0.27450980 0.65882353
v -0.10280129 0.14250043 -13.50996590 0.25098039 0.27450980 0.65882353
v -0.10669313 0.13291243 -13.51030445 0.25098039 0.27450980 0.65882353
v -0.10318887 0.11025312 -13.51499939 0.25098039 0.27450980 0.65882353
v -0.10844305 0.12612647 -13.51455498 0.25098039 0.27450980 0.65882353
v -0.10826506 0.12598532 -13.52029705 0.25098039 0.27450980 0.65882353
v -0.10448115 0.11041446 -13.51922894 0.25098039 0.27450980 0.65882353
v -0.10989593 0.12999856 -13.51514721 0.25098039 0.27450980 0.65882353
v -0.10479353 0.12742575 -13.51043797 0.25098039 0.27450980 0.65882353
v -0.09251781 0.11456037 -13.52618885 0.25098039 0.27450980 0.65882353
v -0.09821197 0.11374661 -13.52631092 0.25098039 0.27450980 0.65882353
v -0.08963856 0.11583328 -13.52301216 0.25098039 0.27450980 0.65882353
v -0.10906327 0.15489051 -13.51433277 0.25098039 0.27450980 0.65882353
v -0.11620022 0.14803135 -13.52931023 0.25098039 0.27450980 0.65882353
v -0.08884582 0.11471947 -13.51550579 0.25098039 0.27450980 0.65882353
v -0.08825853 0.11554066 -13.51983547 0.25098039 0.27450980 0.65882353
v -0.10578506 0.12705164 -13.52367020 0.25098039 0.27450980 0.65882353
v -0.10298111 0.11174959 -13.52348804 0.25098039 0.27450980 0.65882353
v -0.09965165 0.11183475 -13.51194668 0.25098039 0.27450980 0.65882353
v -0.09370425 0.11437382 -13.51165390 0.25098039 0.27450980 0.65882353
v -0.09892686 0.10554704 -13.51401234 0.25098039 0.27450980 0.65882353
v -0.09282249 0.10737856 -13.51393509 0.25098039 0.27450980 0.65882353
v -0.08823955 0.10812211 -13.51774120 0.25098039 0.27450980 0.65882353
v -0.08793393 0.11003697 -13.52187729 0.25098039 0.27450980 0.65882353
v -0.08932312 0.11110283 -13.52475548 0.25098039 0.27450980 0.65882353
v -0.10252471 0.10531342 -13.51763153 0.25098039 0.27450980 0.65882353
v -0.10340317 0.10655726 -13.52133083 0.25098039 0.27450980 0.65882353
v -0.10193525 0.11017952 -13.52382755 0.25098039 0.27450980 0.65882353
v -0.10293135 0.10227644 -13.52110386 0.25098039 0.27450980 0.65882353
v -0.09857690 0.09955205 -13.51867390 0.25098039 0.27450980 0.65882353
v -0.08993618 0.09325740 -13.53219223 0.25098039 0.27450980 0.65882353
v -0.08941513 0.09777266 -13.52817726 0.25098039 0.27450980 0.65882353
v -0.09003943 0.09691414 -13.52743053 0.25098039 0.27450980 0.65882353
v -0.09041256 0.09208798 -13.53085804 0.25098039 0.27450980 0.65882353
v -0.08902581 0.10127804 -13.52202606 0.25098039 0.27450980 0.65882353
v -0.08999580 0.09950393 -13.52282715 0.25098039 0.27450980 0.65882353
v -0.09302828 0.09901397 -13.52024460 0.25098039 0.27450980 0.65882353
v -0.09370160 0.09412915 -13.52482224 0.25098039 0.27450980 0.65882353
v -0.09955482 0.09557548 -13.52488422 0.25098039 0.27450980 0.65882353
v -0.09897541 0.09201193 -13.52864838 0.25098039 0.27450980 0.65882353
v -0.09390856 0.09011453 -13.52858162 0.25098039 0.27450980 0.65882353
v -0.09751715 0.09843899 -13.52039051 0.25098039 0.27450980 0.65882353
v -0.09158331 0.08952384 -13.53251553 0.25098039 0.27450980 0.65882353
v -0.09006563 0.08915715 -13.53422356 0.25098039 0.27450980 0.65882353
v -0.09265481 0.10065141 -13.51796532 0.25098039 0.27450980 0.65882353
v -0.08733314 0.10503906 -13.52486420 0.25098039 0.27450980 0.65882353
v -0.08841325 0.09949937 -13.53038025 0.25098039 0.27450980 0.65882353
v -0.08866386 0.09511945 -13.53489399 0.25098039 0.27450980 0.65882353
v -0.09091307 0.09161542 -13.53705120 0.25098039 0.27450980 0.65882353
v -0.09021655 0.10165079 -13.53286743 0.25098039 0.27450980 0.65882353
v -0.09067895 0.09721263 -13.53627777 0.25098039 0.27450980 0.65882353
v -0.09260173 0.09411737 -13.53828716 0.25098039 0.27450980 0.65882353
v -0.09293982 0.10290271 -13.53419495 0.25098039 0.27450980 0.65882353
v -0.09351799 0.09880246 -13.53701019 0.25098039 0.27450980 0.65882353
v -0.09239353 0.11009772 -13.52781963 0.25098039 0.27450980 0.65882353
v -0.08914594 0.10805118 -13.52679348 0.25098039 0.27450980 0.65882353
v -0.09424989 0.09584644 -13.53820133 0.25098039 0.27450980 0.65882353
v -0.09444164 0.08710890 -13.53355694 0.25098039 0.27450980 0.65882353
v -0.09620933 0.08939475 -13.53694725 0.25098039 0.27450980 0.65882353
v -0.09431955 0.08855563 -13.53186989 0.25098039 0.27450980 0.65882353
v -0.10125035 0.09659597 -13.52481079 0.25098039 0.27450980 0.65882353
v -0.10112780 0.09201945 -13.52984905 0.25098039 0.27450980 0.65882353
v -0.10303161 0.09826127 -13.52649879 0.25098039 0.27450980 0.65882353
v -0.10286587 0.09361230 -13.53130913 0.25098039 0.27450980 0.65882353
v -0.09926096 0.08874135 -13.53219318 0.25098039 0.27450980 0.65882353
v -0.09824318 0.08915558 -13.53132629 0.25098039 0.27450980 0.65882353
v -0.09284694 0.11210670 -13.52621365 0.25098039 0.27450980 0.65882353
v -0.09794946 0.11179399 -13.52614975 0.25098039 0.27450980 0.65882353
v -0.09721637 0.11044954 -13.52773190 0.25098039 0.27450980 0.65882353
v -0.09763354 0.10305732 -13.53472519 0.25098039 0.27450980 0.65882353
v -0.10133462 0.10907093 -13.52589035 0.25098039 0.27450980 0.65882353
v -0.10336246 0.10396156 -13.52461147 0.25098039 0.27450980 0.65882353
v -0.10307820 0.10012442 -13.52930832 0.25098039 0.27450980 0.65882353
v -0.10146271 0.10157621 -13.53254890 0.25098039 0.27450980 0.65882353
v -0.10289897 0.09569883 -13.53321362 0.25098039 0.27450980 0.65882353
v -0.10134208 0.09784204 -13.53443050 0.25098039 0.27450980 0.65882353
v -0.09765530 0.09918067 -13.53744698 0.25098039 0.27450980 0.65882353
v -0.10056257 0.09294952 -13.53552628 0.25098039 0.27450980 0.65882353
v -0.10067636 0.09028202 -13.53413105 0.25098039 0.27450980 0.65882353
v -0.09681381 0.09247716 -13.53818226 0.25098039 0.27450980 0.65882353
v -0.10009788 0.09529491 -13.53643894 0.25098039 0.27450980 0.65882353
v -0.09723668 0.09510921 -13.53841019 0.25098039 0.27450980 0.65882353
v -0.11437988 0.14876568 -13.53231621 0.25098039 0.27450980 0.65882353
v -0.13259566 0.12690818 -13.53296947 0.25098039 0.27450980 0.65882353
v -0.13630190 0.12717840 -13.53458595 0.25098039 0.27450980 0.65882353
v -0.13707814 0.13002041 -13.53334045 0.25098039 0.27450980 0.65882353
v -0.13317212 0.13072860 -13.53243637 0.25098039 0.27450980 0.65882353
v -0.13269800 0.12606385 -13.52196121 0.25098039 0.27450980 0.65882353
v -0.13054091 0.12590232 -13.52586269 0.25098039 0.27450980 0.65882353
v -0.13033870 0.13057208 -13.52423859 0.25098039 0.27450980 0.65882353
v -0.13246557 0.13097781 -13.52042866 0.25098039 0.27450980 0.65882353
v -0.13733760 0.12595443 -13.52036095 0.25098039 0.27450980 0.65882353
v -0.13754547 0.13070562 -13.51908207 0.25098039 0.27450980 0.65882353
v -0.13228682 0.13476551 -13.52004623 0.25098039 0.27450980 0.65882353
v -0.12997830 0.13440387 -13.52422333 0.25098039 0.27450980 0.65882353
v -0.12902786 0.15090191 -13.52713394 0.25098039 0.27450980 0.65882353
v -0.13234374 0.15355584 -13.52333736 0.25098039 0.27450980 0.65882353
v -0.14749445 0.15396357 -13.53454590 0.25098039 0.27450980 0.65882353
v -0.14357769 0.15429577 -13.54003906 0.25098039 0.27450980 0.65882353
v -0.14314859 0.14600784 -13.53589821 0.25098039 0.27450980 0.65882353
v -0.14636099 0.14741749 -13.53192806 0.25098039 0.27450980 0.65882353
v -0.13080719 0.12632026 -13.52973843 0.25098039 0.27450980 0.65882353
v -0.13054907 0.13056642 -13.52926922 0.25098039 0.27450980 0.65882353
v -0.14561257 0.13372566 -13.52969170 0.25098039 0.27450980 0.65882353
v -0.14218260 0.13319364 -13.53283978 0.25098039 0.27450980 0.65882353
v -0.14107341 0.13015153 -13.53339291 0.25098039 0.27450980 0.65882353
v -0.14486614 0.12954259 -13.53101349 0.25098039 0.27450980 0.65882353
v -0.13798565 0.15292230 -13.54122353 0.25098039 0.27450980 0.65882353
v -0.13300845 0.15248580 -13.53994846 0.25098039 0.27450980 0.65882353
v -0.13294289 0.14799231 -13.53851318 0.25098039 0.27450980 0.65882353
v -0.13837457 0.14517581 -13.53745556 0.25098039 0.27450980 0.65882353
v -0.12915510 0.14818184 -13.53441906 0.25098039 0.27450980 0.65882353
v -0.14628348 0.13393261 -13.52573872 0.25098039 0.27450980 0.65882353
v -0.14376161 0.13427019 -13.52058983 0.25098039 0.27450980 0.65882353
v -0.14625716 0.15184931 -13.52311134 0.25098039 0.27450980 0.65882353
v -0.14746910 0.15048064 -13.52748299 0.25098039 0.27450980 0.65882353
v -0.13009846 0.13325101 -13.52858067 0.25098039 0.27450980 0.65882353
v -0.13786435 0.13284889 -13.53346157 0.25098039 0.27450980 0.65882353
v -0.13349827 0.13268979 -13.53235054 0.25098039 0.27450980 0.65882353
v -0.13779479 0.13486640 -13.51821804 0.25098039 0.27450980 0.65882353
v -0.14318679 0.12964064 -13.52155018 0.25098039 0.27450980 0.65882353
v -0.14490500 0.11689779 -13.53075409 0.25098039 0.27450980 0.65882353
v -0.14568368 0.12596714 -13.52774334 0.25098039 0.27450980 0.65882353
v -0.14432919 0.12641260 -13.53238869 0.25098039 0.27450980 0.65882353
v -0.14421558 0.11757506 -13.53358650 0.25098039 0.27450980 0.65882353
v -0.14572233 0.12944186 -13.52664566 0.25098039 0.27450980 0.65882353
v -0.14304750 0.12524590 -13.52291965 0.25098039 0.27450980 0.65882353
v -0.13242602 0.11847085 -13.53576565 0.25098039 0.27450980 0.65882353
v -0.13739212 0.11919008 -13.53697205 0.25098039 0.27450980 0.65882353
v -0.13070112 0.11784677 -13.53317356 0.25098039 0.27450980 0.65882353
v -0.13892090 0.15351528 -13.52067089 0.25098039 0.27450980 0.65882353
v -0.13250777 0.11606340 -13.52615547 0.25098039 0.27450980 0.65882353
v -0.13036241 0.11646507 -13.52992153 0.25098039 0.27450980 0.65882353
v -0.14034380 0.12691960 -13.53452110 0.25098039 0.27450980 0.65882353
v -0.14161175 0.11872689 -13.53593731 0.25098039 0.27450980 0.65882353
v -0.14301094 0.11611611 -13.52701950 0.25098039 0.27450980 0.65882353
v -0.13763154 0.11614891 -13.52418995 0.25098039 0.27450980 0.65882353
v -0.14234781 0.11160396 -13.52927780 0.25098039 0.27450980 0.65882353
v -0.13679184 0.11177197 -13.52650547 0.25098039 0.27450980 0.65882353
v -0.13157205 0.11201996 -13.52909279 0.25098039 0.27450980 0.65882353
v -0.13027784 0.11387999 -13.53203964 0.25098039 0.27450980 0.65882353
v -0.13049600 0.11527782 -13.53488064 0.25098039 0.27450980 0.65882353
v -0.14435412 0.11300541 -13.53289318 0.25098039 0.27450980 0.65882353
v -0.14372674 0.11436860 -13.53556633 0.25098039 0.27450980 0.65882353
v -0.14138886 0.11642294 -13.53760242 0.25098039 0.27450980 0.65882353
v -0.14371750 0.10921481 -13.53536701 0.25098039 0.27450980 0.65882353
v -0.14114404 0.10619297 -13.53274727 0.25098039 0.27450980 0.65882353
v -0.13115659 0.10111856 -13.54059124 0.25098039 0.27450980 0.65882353
v -0.13096863 0.10436553 -13.53787041 0.25098039 0.27450980 0.65882353
v -0.13165674 0.10367312 -13.53705215 0.25098039 0.27450980 0.65882353
v -0.13118917 0.10036206 -13.53965473 0.25098039 0.27450980 0.65882353
v -0.13158244 0.10734691 -13.53322220 0.25098039 0.27450980 0.65882353
v -0.13256776 0.10596615 -13.53354168 0.25098039 0.27450980 0.65882353
v -0.13571337 0.10629591 -13.53189373 0.25098039 0.27450980 0.65882353
v -0.13523518 0.10211331 -13.53534794 0.25098039 0.27450980 0.65882353
v -0.14039022 0.10212041 -13.53695869 0.25098039 0.27450980 0.65882353
v -0.13940415 0.09880531 -13.53952694 0.25098039 0.27450980 0.65882353
v -0.13498226 0.09895805 -13.53765202 0.25098039 0.27450980 0.65882353
v -0.13956398 0.10480481 -13.53316212 0.25098039 0.27450980 0.65882353
v -0.13175246 0.09778330 -13.54069424 0.25098039 0.27450980 0.65882353
v -0.13120763 0.09722143 -13.54199982 0.25098039 0.27450980 0.65882353
v -0.13582703 0.10741130 -13.53024483 0.25098039 0.27450980 0.65882353
v -0.12992105 0.11054453 -13.53535748 0.25098039 0.27450980 0.65882353
v -0.13001588 0.10519323 -13.54006100 0.25098039 0.27450980 0.65882353
v -0.13048944 0.10087521 -13.54293919 0.25098039 0.27450980 0.65882353
v -0.13202263 0.09752449 -13.54427147 0.25098039 0.27450980 0.65882353
v -0.13063166 0.10737664 -13.54163074 0.25098039 0.27450980 0.65882353
v -0.13093327 0.10223979 -13.54501534 0.25098039 0.27450980 0.65882353
v -0.13272910 0.09920476 -13.54627323 0.25098039 0.27450980 0.65882353
v -0.13269006 0.10937148 -13.54360485 0.25098039 0.27450980 0.65882353
v -0.13290948 0.10403723 -13.54607201 0.25098039 0.27450980 0.65882353
v -0.13310114 0.11495271 -13.53941822 0.25098039 0.27450980 0.65882353
v -0.13082728 0.11291329 -13.53758430 0.25098039 0.27450980 0.65882353
v -0.13372262 0.10094722 -13.54650784 0.25098039 0.27450980 0.65882353
v -0.13461441 0.09548315 -13.54157543 0.25098039 0.27450980 0.65882353
v -0.13515238 0.09634392 -13.54453850 0.25098039 0.27450980 0.65882353
v -0.13485049 0.09612949 -13.54021645 0.25098039 0.27450980 0.65882353
v -0.14165346 0.10267706 -13.53756809 0.25098039 0.27450980 0.65882353
v -0.14058408 0.09872296 -13.54083729 0.25098039 0.27450980 0.65882353
v -0.14287305 0.10417259 -13.53934860 0.25098039 0.27450980 0.65882353
v -0.14105099 0.09974343 -13.54282093 0.25098039 0.27450980 0.65882353
v -0.13835827 0.09610145 -13.54216385 0.25098039 0.27450980 0.65882353
v -0.13756514 0.09670123 -13.54036236 0.25098039 0.27450980 0.65882353
v -0.13295686 0.11651353 -13.53787327 0.25098039 0.27450980 0.65882353
v -0.13716649 0.11725347 -13.53821564 0.25098039 0.27450980 0.65882353
v -0.13733548 0.11544199 -13.53990078 0.25098039 0.27450980 0.65882353
v -0.13649920 0.11003287 -13.54429913 0.25098039 0.27450980 0.65882353
v -0.14140154 0.11431648 -13.53919888 0.25098039 0.27450980 0.65882353
v -0.14342228 0.11174121 -13.53728008 0.25098039 0.27450980 0.65882353
v -0.14240044 0.10618867 -13.54138660 0.25098039 0.27450980 0.65882353
v -0.14053926 0.10827908 -13.54345894 0.25098039 0.27450980 0.65882353
v -0.14050005 0.10103907 -13.54470253 0.25098039 0.27450980 0.65882353
v -0.13893913 0.10331745 -13.54622078 0.25098039 0.27450980 0.65882353
v -0.13600175 0.10467567 -13.54689980 0.25098039 0.27450980 0.65882353
v -0.13780177 0.09844899 -13.54572773 0.25098039 0.27450980 0.65882353
v -0.13827983 0.09692985 -13.54448509 0.25098039 0.27450980 0.65882353
v -0.13548297 0.09817761 -13.54603195 0.25098039 0.27450980 0.65882353
v -0.13725212 0.10026237 -13.54665565 0.25098039 0.27450980 0.65882353
v -0.13562739 0.10065180 -13.54679203 0.25098039 0.27450980 0.65882353
v -0.14783001 0.15360954 -13.53023529 0.25098039 0.27450980 0.65882353
v -0.08661087 0.18165126 -13.61550236 0.25098039 0.27450980 0.65882353
v -0.08820002 0.17830680 -13.61097050 0.25098039 0.27450980 0.65882353
v -0.10139267 0.17036594 -13.61694813 0.25098039 0.27450980 0.65882353
v -0.09688595 0.17045766 -13.61155605 0.25098039 0.27450980 0.65882353
v -0.10254437 0.17243654 -13.62306213 0.25098039 0.27450980 0.65882353
v -0.09751436 0.18068835 -13.62758541 0.25098039 0.27450980 0.65882353
v -0.10154065 0.17712998 -13.62620258 0.25098039 0.27450980 0.65882353
v -0.09209785 0.17347950 -13.60955048 0.25098039 0.27450980 0.65882353
v -0.08743539 0.18422130 -13.62061024 0.25098039 0.27450980 0.65882353
v -0.09206721 0.18432164 -13.62583733 0.25098039 0.27450980 0.65882353
v -0.08258703 0.17864046 -13.62336063 0.25098039 0.27450980 0.65882353
v -0.08740558 0.17822215 -13.62912750 0.25098039 0.27450980 0.65882353
v -0.09277572 0.17435744 -13.63139534 0.25098039 0.27450980 0.65882353
v -0.09776863 0.17088649 -13.62925148 0.25098039 0.27450980 0.65882353
v -0.09967908 0.16785137 -13.62605000 0.25098039 0.27450980 0.65882353
v -0.08351490 0.17608884 -13.61692429 0.25098039 0.27450980 0.65882353
v -0.08573042 0.17276195 -13.61262226 0.25098039 0.27450980 0.65882353
v -0.09093085 0.16894981 -13.61134052 0.25098039 0.27450980 0.65882353
v -0.08029361 0.16857481 -13.61755848 0.25098039 0.27450980 0.65882353
v -0.07706684 0.16185966 -13.62469482 0.25098039 0.27450980 0.65882353
v -0.08198260 0.14830822 -13.63633442 0.25098039 0.27450980 0.65882353
v -0.08594111 0.15365244 -13.63501835 0.25098039 0.27450980 0.65882353
v -0.08306411 0.15441668 -13.63499546 0.25098039 0.27450980 0.65882353
v -0.07967193 0.14981033 -13.63684940 0.25098039 0.27450980 0.65882353
v -0.08631843 0.15899327 -13.63407230 0.25098039 0.27450980 0.65882353
v -0.08405653 0.15811160 -13.63347816 0.25098039 0.27450980 0.65882353
v -0.08058703 0.16048428 -13.63044071 0.25098039 0.27450980 0.65882353
v -0.07742646 0.15652116 -13.63256836 0.25098039 0.27450980 0.65882353
v -0.07736938 0.15987983 -13.62670231 0.25098039 0.27450980 0.65882353
v -0.07521057 0.15662125 -13.62664795 0.25098039 0.27450980 0.65882353
v -0.07454857 0.15222633 -13.63395596 0.25098039 0.27450980 0.65882353
v -0.07601838 0.14785422 -13.63744640 0.25098039 0.27450980 0.65882353
v -0.07226615 0.14815982 -13.63492775 0.25098039 0.27450980 0.65882353
v -0.07755427 0.14526825 -13.63629055 0.25098039 0.27450980 0.65882353
v -0.07996209 0.16241208 -13.63147259 0.25098039 0.27450980 0.65882353
v -0.09293538 0.16201688 -13.63238335 0.25098039 0.27450980 0.65882353
v -0.08957851 0.15362903 -13.63309002 0.25098039 0.27450980 0.65882353
v -0.08474752 0.14720151 -13.63376427 0.25098039 0.27450980 0.65882353
v -0.07922547 0.14389277 -13.63375473 0.25098039 0.27450980 0.65882353
v -0.09193990 0.15285823 -13.62910080 0.25098039 0.27450980 0.65882353
v -0.08667004 0.14725515 -13.62944317 0.25098039 0.27450980 0.65882353
v -0.08137925 0.14450589 -13.62887669 0.25098039 0.27450980 0.65882353
v -0.09183827 0.15251249 -13.62427998 0.25098039 0.27450980 0.65882353
v -0.08645439 0.14776377 -13.62543583 0.25098039 0.27450980 0.65882353
v -0.09780651 0.16381538 -13.62135410 0.25098039 0.27450980 0.65882353
v -0.09741107 0.16312131 -13.62771320 0.25098039 0.27450980 0.65882353
v -0.08247975 0.14572479 -13.62634659 0.25098039 0.27450980 0.65882353
v -0.07168360 0.14563265 -13.63420486 0.25098039 0.27450980 0.65882353
v -0.07374316 0.14404309 -13.63100243 0.25098039 0.27450980 0.65882353
v -0.07485160 0.15719274 -13.62303352 0.25098039 0.27450980 0.65882353
v -0.07178393 0.15294895 -13.62824440 0.25098039 0.27450980 0.65882353
v -0.07212879 0.15217225 -13.62496853 0.25098039 0.27450980 0.65882353
v -0.07631855 0.15782252 -13.61908436 0.25098039 0.27450980 0.65882353
v -0.07306018 0.15131921 -13.62205887 0.25098039 0.27450980 0.65882353
v -0.07032485 0.14824054 -13.62879181 0.25098039 0.27450980 0.65882353
v -0.07077664 0.15009686 -13.63106823 0.25098039 0.27450980 0.65882353
v -0.09959897 0.16698195 -13.61999130 0.25098039 0.27450980 0.65882353
v -0.09632634 0.16764796 -13.61424255 0.25098039 0.27450980 0.65882353
v -0.09424624 0.16484281 -13.61559010 0.25098039 0.27450980 0.65882353
v -0.08896092 0.15417972 -13.61878586 0.25098039 0.27450980 0.65882353
v -0.08890864 0.16534925 -13.61257839 0.25098039 0.27450980 0.65882353
v -0.08330797 0.16710933 -13.61407661 0.25098039 0.27450980 0.65882353
v -0.07911946 0.15686411 -13.61637592 0.25098039 0.27450980 0.65882353
v -0.08387680 0.15556809 -13.61578560 0.25098039 0.27450980 0.65882353
v -0.07624671 0.15018094 -13.62014198 0.25098039 0.27450980 0.65882353
v -0.07939257 0.14950833 -13.61988354 0.25098039 0.27450980 0.65882353
v -0.08376470 0.14804079 -13.62193680 0.25098039 0.27450980 0.65882353
v -0.07518314 0.14659935 -13.62388515 0.25098039 0.27450980 0.65882353
v -0.07191725 0.14707926 -13.62583256 0.25098039 0.27450980 0.65882353
v -0.07699488 0.14441417 -13.62714481 0.25098039 0.27450980 0.65882353
v -0.07798448 0.14721161 -13.62275219 0.25098039 0.27450980 0.65882353
v -0.07984735 0.14591801 -13.62475109 0.25098039 0.27450980 0.65882353
v -0.14596087 0.15846273 -13.54118919 0.25098039 0.27450980 0.65882353
v -0.13993645 0.15787616 -13.54402733 0.25098039 0.27450980 0.65882353
v -0.14491625 0.16179574 -13.54604816 0.25098039 0.27450980 0.65882353
v -0.15028292 0.16881146 -13.54962826 0.25098039 0.27450980 0.65882353
v -0.15910031 0.17564625 -13.54972172 0.25098039 0.27450980 0.65882353
v -0.14435560 0.17017989 -13.55256557 0.25098039 0.27450980 0.65882353
v -0.13905178 0.16312571 -13.54820442 0.25098039 0.27450980 0.65882353
v -0.13217069 0.15704268 -13.54400635 0.25098039 0.27450980 0.65882353
v -0.14229392 0.17827284 -13.55847073 0.25098039 0.27450980 0.65882353
f 2 3 1
f 1 3 4
f 5 6 8
f 8 6 7
f 9 4 10
f 10 4 3
f 12 13 11
f 11 13 9
f 14 12 16
f 16 12 15
f 18 19 17
f 17 19 20
f 22 23 21
f 21 23 24
f 26 27 25
f 25 27 28
f 30 31 29
f 29 31 32
f 33 34 36
f 36 34 35
f 37 38 40
f 40 38 39
f 41 42 6
f 6 42 43
f 6 43 7
f 7 43 44
f 45 34 46
f 46 34 33
f 48 49 47
f 47 49 50
f 52 53 51
f 51 53 54
f 56 52 55
f 55 52 51
f 58 59 57
f 57 59 60
f 61 62 4
f 4 62 1
f 64 65 63
f 63 65 66
f 68 69 67
f 67 69 70
f 72 73 71
f 71 73 74
f 76 77 75
f 75 77 78
f 53 79 54
f 54 79 80
f 82 83 81
f 81 83 84
f 85 86 52
f 52 86 53
f 57 60 87
f 87 60 88
f 89 90 43
f 43 90 44
f 43 42 89
f 89 42 91
f 40 39 92
f 92 39 93
f 94 70 64
f 64 70 69
f 13 61 9
f 9 61 4
f 25 28 69
f 69 28 95
f 96 25 68
f 68 25 69
f 98 99 97
f 97 99 100
f 101 102 104
f 104 102 103
f 106 30 105
f 105 30 29
f 51 54 107
f 107 54 108
f 54 80 108
f 108 80 109
f 111 112 110
f 110 112 113
f 115 5 114
f 114 5 116
f 115 41 5
f 5 41 6
f 36 35 111
f 111 35 117
f 35 118 117
f 117 118 119
f 34 120 35
f 35 120 118
f 34 45 120
f 120 45 121
f 125 126 124
f 124 126 127
f 128 129 14
f 14 129 130
f 33 131 46
f 46 131 132
f 133 94 63
f 63 94 64
f 134 135 137
f 137 135 136
f 139 140 138
f 138 140 141
f 77 142 78
f 78 142 143
f 144 145 20
f 20 145 146
f 148 149 147
f 147 149 72
f 151 152 150
f 150 152 153
f 82 101 83
f 83 101 104
f 101 82 155
f 155 82 154
f 156 157 58
f 58 157 59
f 158 68 147
f 147 68 67
f 159 146 15
f 15 146 16
f 68 158 96
f 96 158 160
f 129 66 130
f 130 66 65
f 162 163 161
f 161 163 164
f 166 167 165
f 165 167 168
f 170 171 169
f 169 171 172
f 174 171 173
f 173 171 170
f 176 177 175
f 175 177 178
f 180 181 179
f 179 181 24
f 182 183 21
f 21 183 184
f 81 185 82
f 82 185 154
f 186 187 188
f 188 187 144
f 158 71 160
f 160 71 189
f 190 135 157
f 157 135 59
f 169 172 139
f 139 172 140
f 147 72 158
f 158 72 71
f 192 193 191
f 191 193 194
f 167 166 49
f 49 166 195
f 196 190 50
f 50 190 157
f 197 198 200
f 200 198 199
f 21 24 182
f 182 24 181
f 146 159 20
f 20 159 17
f 182 181 81
f 81 181 185
f 201 185 180
f 180 185 181
f 202 203 83
f 83 203 84
f 205 206 204
f 204 206 85
f 207 22 184
f 184 22 21
f 179 24 208
f 208 24 23
f 208 209 179
f 179 209 205
f 209 210 205
f 205 210 206
f 212 206 211
f 211 206 210
f 179 205 180
f 180 205 204
f 213 176 88
f 88 176 214
f 86 85 212
f 212 85 206
f 193 217 218
f 217 219 218
f 218 219 220
f 219 18 220
f 220 18 17
f 19 221 20
f 20 221 144
f 222 223 225
f 225 223 224
f 175 226 176
f 176 226 214
f 227 87 214
f 214 87 88
f 220 17 228
f 228 17 159
f 134 213 60
f 60 213 88
f 138 229 151
f 151 229 152
f 193 192 210
f 210 192 211
f 230 194 218
f 218 194 193
f 231 232 228
f 228 232 230
f 233 234 91
f 91 234 89
f 235 236 93
f 93 236 92
f 230 232 234
f 234 232 237
f 47 238 48
f 48 238 239
f 240 191 235
f 235 191 236
f 5 8 116
f 116 8 241
f 242 243 189
f 189 243 160
f 244 245 98
f 98 245 99
f 156 246 47
f 47 246 238
f 76 247 77
f 77 247 248
f 250 125 249
f 249 125 124
f 252 253 251
f 251 253 254
f 111 110 36
f 36 110 255
f 256 33 255
f 255 33 36
f 257 258 154
f 154 258 155
f 63 169 133
f 133 169 139
f 66 170 63
f 63 170 169
f 173 170 129
f 129 170 66
f 129 128 173
f 173 128 259
f 128 260 259
f 259 260 261
f 213 134 262
f 262 134 137
f 263 264 186
f 186 264 187
f 112 265 113
f 113 265 266
f 11 267 268
f 234 233 230
f 230 233 194
f 153 269 70
f 70 269 67
f 175 178 165
f 165 178 141
f 150 153 94
f 94 153 70
f 271 221 270
f 270 221 207
f 269 153 272
f 272 153 152
f 121 45 109
f 109 45 108
f 47 50 156
f 156 50 157
f 57 273 58
f 58 273 274
f 145 275 260
f 260 275 261
f 276 149 143
f 143 149 78
f 148 269 75
f 75 269 272
f 207 277 270
f 270 277 278
f 195 196 49
f 49 196 50
f 59 135 60
f 60 135 134
f 83 104 202
f 202 104 279
f 149 148 78
f 78 148 75
f 247 278 248
f 248 278 277
f 183 182 84
f 84 182 81
f 48 239 281
f 281 239 282
f 227 223 283
f 283 223 222
f 223 226 224
f 224 226 168
f 281 282 224
f 224 282 225
f 165 168 175
f 175 168 226
f 264 263 138
f 138 263 229
f 14 16 128
f 128 16 260
f 220 228 218
f 218 228 230
f 87 227 284
f 284 227 283
f 260 16 145
f 145 16 146
f 244 98 258
f 258 98 155
f 58 274 156
f 156 274 246
f 107 285 51
f 51 285 55
f 243 286 160
f 160 286 96
f 234 237 89
f 89 237 90
f 46 132 107
f 107 132 285
f 253 252 249
f 249 252 250
f 286 26 96
f 96 26 25
f 106 105 287
f 287 105 288
f 272 152 289
f 289 152 229
f 138 151 139
f 139 151 133
f 183 290 161
f 161 290 162
f 291 292 277
f 277 292 293
f 151 150 133
f 133 150 94
f 262 275 177
f 177 275 187
f 144 187 145
f 145 187 275
f 273 57 284
f 284 57 87
f 174 136 190
f 190 136 135
f 111 117 112
f 112 117 38
f 117 119 38
f 38 119 123
f 112 38 265
f 265 38 37
f 287 288 254
f 254 288 251
f 228 159 231
f 231 159 15
f 223 227 226
f 226 227 214
f 147 67 148
f 148 67 269
f 224 168 281
f 281 168 167
f 199 163 200
f 200 163 162
f 45 46 108
f 108 46 107
f 281 167 48
f 48 167 49
f 161 164 291
f 291 164 292
f 38 123 39
f 293 294 277
f 277 294 248
f 284 283 296
f 296 283 295
f 284 296 273
f 273 296 297
f 274 273 298
f 298 273 297
f 246 274 299
f 299 274 298
f 283 222 295
f 295 222 300
f 222 225 300
f 300 225 301
f 301 225 302
f 302 225 282
f 303 304 300
f 300 304 295
f 306 307 305
f 305 307 308
f 309 310 308
f 308 310 305
f 308 307 312
f 312 307 311
f 313 314 312
f 312 314 315
f 311 316 312
f 312 316 313
f 317 304 311
f 311 304 316
f 315 309 312
f 312 309 308
f 318 319 321
f 321 319 320
f 319 318 309
f 309 318 310
f 311 307 317
f 317 307 306
f 306 297 317
f 317 297 296
f 306 322 297
f 297 322 298
f 305 323 306
f 306 323 322
f 323 305 324
f 324 305 310
f 304 317 295
f 295 317 296
f 318 325 310
f 310 325 324
f 323 324 326
f 326 324 327
f 324 325 327
f 327 325 328
f 326 327 329
f 329 327 330
f 329 331 326
f 326 331 332
f 333 330 328
f 328 330 327
f 323 326 322
f 322 326 332
f 322 332 298
f 298 332 299
f 325 318 334
f 334 318 321
f 313 316 335
f 335 316 304
f 335 336 313
f 313 336 314
f 304 303 335
f 335 303 337
f 336 335 338
f 338 335 337
f 336 339 314
f 314 339 340
f 246 299 238
f 238 299 341
f 239 342 282
f 282 342 302
f 342 239 341
f 341 239 238
f 341 331 342
f 342 331 343
f 331 329 343
f 343 329 344
f 342 343 302
f 302 343 345
f 341 299 331
f 331 299 332
f 346 301 345
f 345 301 302
f 346 303 301
f 301 303 300
f 347 337 346
f 346 337 303
f 347 346 348
f 348 346 345
f 349 347 350
f 350 347 348
f 343 344 345
f 345 344 348
f 344 351 348
f 348 351 350
f 337 347 338
f 338 347 349
f 353 338 352
f 352 338 349
f 352 355 354
f 354 355 356
f 352 349 355
f 355 349 350
f 352 354 353
f 353 354 334
f 353 334 339
f 339 334 321
f 339 336 353
f 353 336 338
f 329 330 344
f 344 330 351
f 356 351 333
f 333 351 330
f 356 355 351
f 351 355 350
f 354 356 328
f 328 356 333
f 328 325 354
f 354 325 334
f 309 315 319
f 319 315 320
f 320 340 321
f 321 340 339
f 320 315 340
f 340 315 314
f 137 136 261
f 261 136 259
f 140 166 141
f 141 166 165
f 172 171 195
f 195 171 196
f 171 174 196
f 196 174 190
f 178 177 264
f 264 177 187
f 172 195 140
f 140 195 166
f 137 261 262
f 262 261 275
f 178 264 141
f 141 264 138
f 262 177 213
f 213 177 176
f 136 174 259
f 259 174 173
f 358 359 357
f 357 359 360
f 362 363 361
f 361 363 364
f 361 364 365
f 365 364 366
f 367 368 370
f 370 368 369
f 76 371 247
f 247 371 372
f 373 374 362
f 362 374 363
f 376 377 375
f 375 377 378
f 289 229 380
f 380 229 379
f 381 379 263
f 263 379 229
f 383 384 382
f 382 384 385
f 386 368 374
f 374 368 363
f 76 289 371
f 371 289 380
f 377 376 359
f 359 376 387
f 388 386 360
f 360 386 374
f 389 383 366
f 366 383 390
f 392 393 391
f 391 393 394
f 383 382 390
f 390 382 395
f 396 365 390
f 390 365 366
f 389 366 367
f 367 366 364
f 357 397 358
f 358 397 398
f 373 399 357
f 357 399 397
f 389 367 400
f 400 367 370
f 382 385 375
f 375 385 372
f 357 360 373
f 373 360 374
f 361 401 362
f 362 401 402
f 387 388 359
f 359 388 360
f 363 368 364
f 364 368 367
f 358 398 403
f 403 398 404
f 396 392 405
f 405 392 391
f 392 395 393
f 393 395 378
f 393 403 394
f 394 403 404
f 375 378 382
f 382 378 395
f 365 396 406
f 406 396 405
f 362 402 373
f 373 402 399
f 271 270 400
f 400 270 384
f 401 361 406
f 406 361 365
f 381 369 386
f 386 369 368
f 392 396 395
f 395 396 390
f 393 378 403
f 403 378 377
f 403 377 358
f 358 377 359
f 406 405 408
f 408 405 407
f 406 408 401
f 401 408 409
f 401 409 402
f 402 409 410
f 402 410 399
f 399 410 411
f 405 391 407
f 407 391 412
f 391 394 412
f 412 394 413
f 394 404 413
f 413 404 414
f 415 416 412
f 412 416 407
f 418 419 417
f 417 419 420
f 421 422 418
f 418 422 419
f 419 422 424
f 424 422 423
f 425 426 424
f 424 426 427
f 423 428 424
f 424 428 425
f 427 420 424
f 424 420 419
f 420 429 417
f 417 429 430
f 423 422 431
f 431 422 421
f 421 409 431
f 431 409 408
f 421 432 409
f 409 432 410
f 418 433 421
f 421 433 432
f 434 433 417
f 417 433 418
f 431 416 423
f 423 416 428
f 416 431 407
f 407 431 408
f 435 434 430
f 430 434 417
f 433 434 436
f 436 434 437
f 434 435 437
f 437 435 438
f 436 437 439
f 439 437 440
f 439 441 436
f 436 441 442
f 438 443 437
f 437 443 440
f 436 442 433
f 433 442 432
f 432 442 410
f 410 442 411
f 435 430 445
f 445 430 444
f 430 429 444
f 444 429 446
f 425 428 447
f 447 428 416
f 426 425 448
f 448 425 447
f 416 415 447
f 447 415 449
f 447 449 448
f 448 449 450
f 451 452 448
f 448 452 426
f 446 452 444
f 444 452 451
f 399 411 397
f 397 411 453
f 398 454 404
f 404 454 414
f 454 398 453
f 453 398 397
f 453 441 454
f 454 441 455
f 441 439 455
f 455 439 456
f 454 455 414
f 414 455 457
f 441 453 442
f 442 453 411
f 458 413 457
f 457 413 414
f 458 415 413
f 413 415 412
f 458 459 415
f 415 459 449
f 459 458 460
f 460 458 457
f 461 459 462
f 462 459 460
f 455 456 457
f 457 456 460
f 456 463 460
f 460 463 462
f 459 461 449
f 449 461 450
f 465 450 464
f 464 450 461
f 464 467 466
f 466 467 468
f 464 461 467
f 467 461 462
f 464 466 465
f 465 466 445
f 465 445 451
f 451 445 444
f 451 448 465
f 465 448 450
f 439 440 456
f 456 440 463
f 468 463 443
f 443 463 440
f 468 467 463
f 463 467 462
f 466 468 438
f 438 468 443
f 438 435 466
f 466 435 445
f 420 427 429
f 429 427 446
f 446 427 452
f 452 427 426
f 370 369 188
f 188 369 186
f 371 376 372
f 372 376 375
f 380 379 387
f 387 379 388
f 379 381 388
f 388 381 386
f 385 384 278
f 278 384 270
f 380 387 371
f 371 387 376
f 400 370 271
f 271 370 188
f 385 278 372
f 372 278 247
f 400 384 389
f 389 384 383
f 369 381 186
f 186 381 263
f 221 271 144
f 144 271 188
f 221 19 207
f 207 19 22
f 19 18 22
f 22 18 23
f 18 219 23
f 23 219 208
f 469 470 472
f 472 470 471
f 474 475 473
f 473 475 476
f 473 476 477
f 477 476 478
f 480 481 479
f 479 481 482
f 483 484 474
f 474 484 475
f 486 487 485
f 485 487 488
f 489 490 77
f 77 490 142
f 491 489 248
f 248 489 77
f 493 494 492
f 492 494 495
f 496 480 484
f 484 480 475
f 486 497 487
f 487 497 471
f 498 496 472
f 472 496 484
f 499 493 478
f 478 493 500
f 501 502 504
f 504 502 503
f 493 492 500
f 500 492 505
f 506 477 500
f 500 477 478
f 499 478 479
f 479 478 476
f 469 507 470
f 470 507 508
f 483 509 469
f 469 509 507
f 479 482 499
f 499 482 510
f 492 495 485
f 485 495 511
f 483 469 484
f 484 469 472
f 473 512 474
f 474 512 513
f 497 498 471
f 471 498 472
f 475 480 476
f 476 480 479
f 470 508 514
f 514 508 515
f 506 502 516
f 516 502 501
f 503 502 488
f 488 502 505
f 514 515 503
f 503 515 504
f 485 488 492
f 492 488 505
f 477 506 517
f 517 506 516
f 474 513 483
f 483 513 509
f 510 292 494
f 494 292 164
f 512 473 517
f 517 473 477
f 491 481 496
f 496 481 480
f 502 506 505
f 505 506 500
f 503 488 514
f 514 488 487
f 514 487 470
f 470 487 471
f 517 516 519
f 519 516 518
f 517 519 512
f 512 519 520
f 512 520 513
f 513 520 521
f 513 521 509
f 509 521 522
f 516 501 518
f 518 501 523
f 501 504 523
f 523 504 524
f 524 504 525
f 525 504 515
f 526 527 523
f 523 527 518
f 529 530 528
f 528 530 531
f 532 533 529
f 529 533 530
f 530 533 535
f 535 533 534
f 536 537 535
f 535 537 538
f 534 539 535
f 535 539 536
f 538 531 535
f 535 531 530
f 540 541 531
f 531 541 528
f 533 532 534
f 534 532 542
f 532 520 542
f 542 520 519
f 532 543 520
f 520 543 521
f 529 544 532
f 532 544 543
f 544 529 545
f 545 529 528
f 534 542 539
f 539 542 527
f 527 542 518
f 518 542 519
f 541 546 528
f 528 546 545
f 547 544 548
f 548 544 545
f 546 549 545
f 545 549 548
f 550 547 551
f 551 547 548
f 547 550 553
f 553 550 552
f 549 554 548
f 548 554 551
f 544 547 543
f 543 547 553
f 543 553 521
f 521 553 522
f 546 541 556
f 556 541 555
f 541 540 555
f 555 540 557
f 536 539 558
f 558 539 527
f 537 536 559
f 559 536 558
f 527 526 558
f 558 526 560
f 559 558 561
f 561 558 560
f 559 562 537
f 537 562 563
f 557 563 555
f 555 563 562
f 509 522 507
f 507 522 564
f 508 565 515
f 515 565 525
f 565 508 564
f 564 508 507
f 564 552 565
f 565 552 566
f 552 550 566
f 566 550 567
f 565 566 525
f 525 566 568
f 564 522 552
f 552 522 553
f 569 524 568
f 568 524 525
f 569 526 524
f 524 526 523
f 570 560 569
f 569 560 526
f 570 569 571
f 571 569 568
f 572 570 573
f 573 570 571
f 566 567 568
f 568 567 571
f 567 574 571
f 571 574 573
f 570 572 560
f 560 572 561
f 576 561 575
f 575 561 572
f 575 578 577
f 577 578 579
f 575 572 578
f 578 572 573
f 575 577 576
f 576 577 556
f 576 556 562
f 562 556 555
f 562 559 576
f 576 559 561
f 550 551 567
f 567 551 574
f 579 574 554
f 554 574 551
f 579 578 574
f 574 578 573
f 579 554 577
f 577 554 549
f 549 546 577
f 577 546 556
f 531 538 540
f 540 538 557
f 557 538 563
f 563 538 537
f 481 294 482
f 482 294 293
f 580 486 511
f 511 486 485
f 490 489 497
f 497 489 498
f 489 491 498
f 498 491 496
f 163 495 164
f 164 495 494
f 580 490 486
f 486 490 497
f 482 293 510
f 510 293 292
f 495 163 511
f 511 163 199
f 494 493 510
f 510 493 499
f 481 491 294
f 294 491 248
f 582 583 581
f 581 583 584
f 586 587 585
f 585 587 588
f 585 588 589
f 589 588 590
f 592 593 591
f 591 593 594
f 595 596 598
f 598 596 597
f 599 600 586
f 586 600 587
f 601 602 604
f 604 602 603
f 605 606 608
f 608 606 607
f 609 607 200
f 200 607 606
f 610 611 613
f 613 611 612
f 600 614 587
f 587 614 592
f 596 605 597
f 597 605 608
f 602 615 603
f 603 615 583
f 616 614 584
f 584 614 600
f 611 618 617
f 617 618 590
f 620 621 619
f 619 621 622
f 610 623 611
f 611 623 618
f 624 589 618
f 618 589 590
f 617 590 591
f 591 590 588
f 581 625 582
f 582 625 626
f 599 627 581
f 581 627 625
f 591 594 617
f 617 594 628
f 601 610 598
f 598 610 613
f 581 584 599
f 599 584 600
f 585 629 586
f 586 629 630
f 615 616 583
f 583 616 584
f 587 592 588
f 588 592 591
f 582 626 631
f 631 626 632
f 624 620 633
f 633 620 619
f 621 620 604
f 604 620 623
f 631 632 621
f 621 632 622
f 610 601 623
f 623 601 604
f 589 624 634
f 634 624 633
f 586 630 599
f 599 630 627
f 203 202 628
f 628 202 612
f 629 585 634
f 634 585 589
f 609 593 614
f 614 593 592
f 620 624 623
f 623 624 618
f 631 621 603
f 603 621 604
f 582 631 583
f 583 631 603
f 634 633 636
f 636 633 635
f 634 636 629
f 629 636 637
f 629 637 630
f 630 637 638
f 630 638 627
f 627 638 639
f 633 619 635
f 635 619 640
f 619 622 640
f 640 622 641
f 641 622 642
f 642 622 632
f 644 635 643
f 643 635 640
f 645 646 648
f 648 646 647
f 649 650 646
f 646 650 647
f 647 650 652
f 652 650 651
f 652 653 655
f 655 653 654
f 651 656 652
f 652 656 653
f 655 648 652
f 652 648 647
f 648 657 645
f 645 657 658
f 650 649 651
f 651 649 659
f 649 637 659
f 659 637 636
f 649 660 637
f 637 660 638
f 661 660 646
f 646 660 649
f 662 661 645
f 645 661 646
f 651 659 656
f 656 659 644
f 644 659 635
f 635 659 636
f 663 662 658
f 658 662 645
f 664 661 665
f 665 661 662
f 663 666 662
f 662 666 665
f 667 664 668
f 668 664 665
f 664 667 670
f 670 667 669
f 666 671 665
f 665 671 668
f 661 664 660
f 660 664 670
f 660 670 638
f 638 670 639
f 658 672 663
f 663 672 673
f 658 657 672
f 672 657 674
f 653 656 675
f 675 656 644
f 653 675 654
f 654 675 676
f 675 644 677
f 677 644 643
f 676 675 678
f 678 675 677
f 679 680 676
f 676 680 654
f 674 680 672
f 672 680 679
f 627 639 625
f 625 639 681
f 626 682 632
f 632 682 642
f 681 682 625
f 625 682 626
f 669 683 681
f 681 683 682
f 667 684 669
f 669 684 683
f 682 683 642
f 642 683 685
f 681 639 669
f 669 639 670
f 686 641 685
f 685 641 642
f 641 686 640
f 640 686 643
f 686 687 643
f 643 687 677
f 687 686 688
f 688 686 685
f 689 687 690
f 690 687 688
f 683 684 685
f 685 684 688
f 684 691 688
f 688 691 690
f 687 689 677
f 677 689 678
f 693 678 692
f 692 678 689
f 692 695 694
f 694 695 696
f 692 689 695
f 695 689 690
f 692 694 693
f 693 694 673
f 693 673 679
f 679 673 672
f 679 676 693
f 693 676 678
f 684 667 691
f 691 667 668
f 696 691 671
f 671 691 668
f 696 695 691
f 691 695 690
f 694 696 666
f 666 696 671
f 666 663 694
f 694 663 673
f 648 655 657
f 657 655 674
f 674 655 680
f 680 655 654
f 593 162 594
f 594 162 290
f 598 597 601
f 601 597 602
f 615 608 616
f 616 608 607
f 607 609 616
f 616 609 614
f 697 595 613
f 613 595 598
f 597 608 602
f 602 608 615
f 594 290 628
f 628 290 203
f 628 612 617
f 617 612 611
f 593 609 162
f 162 609 200
f 105 29 698
f 698 29 699
f 268 126 701
f 701 126 700
f 126 125 700
f 700 125 702
f 252 703 250
f 250 703 704
f 32 268 705
f 705 268 701
f 288 105 706
f 706 105 698
f 29 32 699
f 699 32 705
f 707 251 706
f 706 251 288
f 250 704 125
f 125 704 702
f 703 252 707
f 707 252 251
f 706 708 707
f 707 708 709
f 707 709 703
f 703 709 710
f 703 710 704
f 704 710 711
f 704 711 702
f 702 711 712
f 706 698 708
f 708 698 713
f 698 699 713
f 713 699 714
f 699 705 714
f 714 705 715
f 717 708 716
f 716 708 713
f 719 720 718
f 718 720 721
f 722 723 719
f 719 723 720
f 724 725 723
f 723 725 720
f 724 726 725
f 725 726 727
f 728 721 725
f 725 721 720
f 721 728 729
f 729 728 730
f 729 731 721
f 721 731 718
f 724 723 732
f 732 723 722
f 722 710 732
f 732 710 709
f 722 733 710
f 710 733 711
f 719 734 722
f 722 734 733
f 734 719 735
f 735 719 718
f 724 732 726
f 726 732 717
f 717 732 708
f 708 732 709
f 731 736 718
f 718 736 735
f 737 734 738
f 738 734 735
f 736 739 735
f 735 739 738
f 740 737 741
f 741 737 738
f 737 740 743
f 743 740 742
f 739 744 738
f 738 744 741
f 734 737 733
f 733 737 743
f 733 743 711
f 711 743 712
f 736 731 746
f 746 731 745
f 731 729 745
f 745 729 730
f 727 726 747
f 747 726 717
f 748 727 749
f 749 727 747
f 747 717 750
f 750 717 716
f 749 747 751
f 751 747 750
f 749 752 748
f 748 752 753
f 730 753 745
f 745 753 752
f 728 725 748
f 748 725 727
f 730 728 753
f 753 728 748
f 700 702 754
f 754 702 712
f 705 701 715
f 715 701 755
f 754 755 700
f 700 755 701
f 742 756 754
f 754 756 755
f 740 757 742
f 742 757 756
f 755 756 715
f 715 756 758
f 754 712 742
f 742 712 743
f 759 714 758
f 758 714 715
f 714 759 713
f 713 759 716
f 759 760 716
f 716 760 750
f 760 759 761
f 761 759 758
f 762 760 763
f 763 760 761
f 756 757 758
f 758 757 761
f 757 764 761
f 761 764 763
f 760 762 750
f 750 762 751
f 766 751 765
f 765 751 762
f 767 765 769
f 769 765 768
f 765 762 768
f 768 762 763
f 765 767 766
f 766 767 746
f 766 746 752
f 752 746 745
f 752 749 766
f 766 749 751
f 757 740 764
f 764 740 741
f 769 764 744
f 744 764 741
f 769 768 764
f 764 768 763
f 767 769 739
f 739 769 744
f 739 736 767
f 767 736 746
f 219 217 208
f 208 217 209
f 209 217 210
f 210 217 193
f 198 580 199
f 199 580 511
f 76 75 289
f 289 75 272
f 277 207 291
f 291 207 184
f 290 183 203
f 203 183 84
f 490 580 142
f 142 580 198
f 142 198 143
f 143 198 197
f 149 276 72
f 72 276 73
f 104 103 279
f 279 103 770
f 770 596 279
f 279 596 595
f 605 596 771
f 771 596 770
f 771 770 772
f 772 770 103
f 772 103 773
f 773 103 102
f 155 774 101
f 101 774 102
f 773 102 97
f 97 102 774
f 775 773 100
f 100 773 97
f 773 775 772
f 772 775 776
f 772 776 771
f 771 776 777
f 200 606 197
f 197 606 777
f 189 71 778
f 778 71 74
f 97 774 98
f 98 774 155
f 183 161 184
f 184 161 291
f 777 276 197
f 197 276 143
f 777 606 771
f 771 606 605
f 613 612 697
f 697 612 202
f 595 697 279
f 279 697 202
f 73 276 776
f 776 276 777
f 776 775 73
f 73 775 74
f 100 778 775
f 775 778 74
f 778 100 189
f 189 100 99
f 245 242 99
f 99 242 189
f 131 33 256
f 28 1 95
f 95 1 62
f 27 2 28
f 28 2 1
f 265 115 266
f 266 115 114
f 95 62 69
f 69 62 64
f 62 61 64
f 64 61 65
f 61 13 65
f 65 13 130
f 13 12 130
f 130 12 14
f 31 11 32
f 32 11 268
f 15 12 31
f 31 12 11
f 31 30 15
f 15 30 231
f 30 106 231
f 231 106 232
f 287 237 106
f 106 237 232
f 254 90 287
f 287 90 237
f 253 44 254
f 254 44 90
f 253 249 44
f 44 249 7
f 267 127 268
f 268 127 126
f 10 3 241
f 241 3 116
f 3 2 116
f 116 2 114
f 2 27 114
f 114 27 266
f 27 26 266
f 266 26 113
f 26 286 113
f 113 286 110
f 286 243 110
f 110 243 255
f 243 242 255
f 255 242 256
f 242 245 256
f 256 245 131
f 245 244 131
f 131 244 132
f 265 37 115
f 115 37 41
f 41 37 42
f 42 37 40
f 92 91 40
f 40 91 42
f 236 233 92
f 92 233 91
f 191 194 236
f 236 194 233
f 258 285 244
f 244 285 132
f 257 55 258
f 258 55 285
f 257 154 201
f 201 154 185
f 56 201 204
f 204 201 180
f 55 257 56
f 56 257 201
f 204 85 56
f 56 85 52
f 86 122 53
f 53 122 79
f 212 215 86
f 86 215 122
f 211 216 212
f 212 216 215
f 192 280 211
f 211 280 216
f 191 240 192
f 192 240 280
f 249 124 7
f 7 124 8
f 124 127 8
f 8 127 241
f 127 267 241
f 241 267 10
f 10 267 9
f 9 267 11
f 93 39 235
f 235 39 240
f 39 123 240
f 240 123 280
f 123 119 280
f 280 119 216
f 119 118 216
f 216 118 215
f 118 120 215
f 215 120 122
f 120 121 122
f 122 121 79
f 121 109 79
f 79 109 80

