# https://github.com/mikedh/trimesh
v -0.11331657 0.01023038 -15.74111080 0.25098039 0.27450980 0.65882353
v -0.11918849 0.01543782 -15.74738693 0.25098039 0.27450980 0.65882353
v -0.10960066 0.01183832 -15.75333405 0.25098039 0.27450980 0.65882353
v -0.10434796 0.00672050 -15.74538708 0.25098039 0.27450980 0.65882353
v -0.12233970 0.02514445 -15.76742363 0.25098039 0.27450980 0.65882353
v -0.11940768 0.03690064 -15.77227974 0.25098039 0.27450980 0.65882353
v -0.10680054 0.02759892 -15.77576160 0.25098039 0.27450980 0.65882353
v -0.11188595 0.01949251 -15.77167320 0.25098039 0.27450980 0.65882353
v -0.09635782 0.00608410 -15.74717140 0.25098039 0.27450980 0.65882353
v -0.10245010 0.00862878 -15.75724506 0.25098039 0.27450980 0.65882353
v -0.09163547 0.01137156 -15.74711323 0.25098039 0.27450980 0.65882353
v -0.08604740 0.01016990 -15.73331738 0.25098039 0.27450980 0.65882353
v -0.09114575 0.00555125 -15.73656082 0.25098039 0.27450980 0.65882353
v -0.08378319 0.00648901 -15.72499943 0.25098039 0.27450980 0.65882353
v -0.08728456 0.01973684 -15.72875118 0.25098039 0.27450980 0.65882353
v -0.08694915 0.00960445 -15.71636486 0.25098039 0.27450980 0.65882353
v -0.11196437 0.02138408 -15.70818710 0.25098039 0.27450980 0.65882353
v -0.12447637 0.01929016 -15.70480728 0.25098039 0.27450980 0.65882353
v -0.11844316 0.00621495 -15.69911289 0.25098039 0.27450980 0.65882353
v -0.10624760 0.00928618 -15.70374012 0.25098039 0.27450980 0.65882353
v -0.13831064 0.00493041 -15.70111084 0.25098039 0.27450980 0.65882353
v -0.12714355 0.00492246 -15.69929695 0.25098039 0.27450980 0.65882353
v -0.13309485 0.01871584 -15.70420933 0.25098039 0.27450980 0.65882353
v -0.14297184 0.01818356 -15.70550251 0.25098039 0.27450980 0.65882353
v -0.12933812 0.01358678 -15.73655319 0.25098039 0.27450980 0.65882353
v -0.13588497 0.01972064 -15.74155140 0.25098039 0.27450980 0.65882353
v -0.13005805 0.01885444 -15.74201202 0.25098039 0.27450980 0.65882353
v -0.12379558 0.01360554 -15.73773098 0.25098039 0.27450980 0.65882353
v -0.08517163 0.01854029 -15.75726223 0.25098039 0.27450980 0.65882353
v -0.08755074 0.02659171 -15.74862671 0.25098039 0.27450980 0.65882353
v -0.08771658 0.01911137 -15.74587154 0.25098039 0.27450980 0.65882353
v -0.08829658 0.01411523 -15.75739765 0.25098039 0.27450980 0.65882353
v -0.15680093 0.03413512 -15.75378513 0.25098039 0.27450980 0.65882353
v -0.15991107 0.04761979 -15.75375366 0.25098039 0.27450980 0.65882353
v -0.15453885 0.04944986 -15.75480080 0.25098039 0.27450980 0.65882353
v -0.15313862 0.03675042 -15.75421333 0.25098039 0.27450980 0.65882353
v -0.13498482 0.04789959 -15.76500893 0.25098039 0.27450980 0.65882353
v -0.13930729 0.05596219 -15.76038456 0.25098039 0.27450980 0.65882353
v -0.13142607 0.06757320 -15.75699234 0.25098039 0.27450980 0.65882353
v -0.12521385 0.06080254 -15.75929546 0.25098039 0.27450980 0.65882353
v -0.12764499 0.04120962 -15.76927948 0.25098039 0.27450980 0.65882353
v -0.12013589 0.05278426 -15.76613045 0.25098039 0.27450980 0.65882353
v -0.11255711 0.04635537 -15.77048969 0.25098039 0.27450980 0.65882353
v -0.10062781 0.03466648 -15.77576733 0.25098039 0.27450980 0.65882353
v -0.17088982 0.04467275 -15.74818325 0.25098039 0.27450980 0.65882353
v -0.17080641 0.03465332 -15.74762154 0.25098039 0.27450980 0.65882353
v -0.06189099 -0.03797881 -15.71375370 0.25098039 0.27450980 0.65882353
v -0.06615037 -0.04152270 -15.71242809 0.25098039 0.27450980 0.65882353
v -0.06901312 -0.03710694 -15.71397209 0.25098039 0.27450980 0.65882353
v -0.06443717 -0.03420300 -15.71462631 0.25098039 0.27450980 0.65882353
v -0.17604005 0.04151779 -15.72916031 0.25098039 0.27450980 0.65882353
v -0.17259842 0.04518500 -15.72032166 0.25098039 0.27450980 0.65882353
v -0.17618622 0.04996843 -15.72352600 0.25098039 0.27450980 0.65882353
v -0.17770642 0.04778377 -15.73223877 0.25098039 0.27450980 0.65882353
v -0.17351648 0.03314768 -15.72479248 0.25098039 0.27450980 0.65882353
v -0.16741297 0.03815826 -15.71640587 0.25098039 0.27450980 0.65882353
v -0.05730063 -0.03420520 -15.70310211 0.25098039 0.27450980 0.65882353
v -0.05667193 -0.03453503 -15.70806217 0.25098039 0.27450980 0.65882353
v -0.05930665 -0.03018541 -15.70781612 0.25098039 0.27450980 0.65882353
v -0.06072956 -0.02986184 -15.70286369 0.25098039 0.27450980 0.65882353
v -0.09871499 0.00366919 -15.73779488 0.25098039 0.27450980 0.65882353
v -0.10813107 0.00399024 -15.73667240 0.25098039 0.27450980 0.65882353
v -0.09118722 -0.01066802 -15.72739124 0.25098039 0.27450980 0.65882353
v -0.09892379 -0.00445325 -15.73009109 0.25098039 0.27450980 0.65882353
v -0.09286240 -0.00066733 -15.73177719 0.25098039 0.27450980 0.65882353
v -0.08691771 -0.00525170 -15.72801113 0.25098039 0.27450980 0.65882353
v -0.12188764 -0.00541345 -15.72545433 0.25098039 0.27450980 0.65882353
v -0.12696986 0.00414201 -15.73037052 0.25098039 0.27450980 0.65882353
v -0.12041183 0.00468819 -15.73087692 0.25098039 0.27450980 0.65882353
v -0.11351791 -0.00600446 -15.72684765 0.25098039 0.27450980 0.65882353
v -0.14033380 0.00035105 -15.73005295 0.25098039 0.27450980 0.65882353
v -0.13427696 -0.00850875 -15.72515678 0.25098039 0.27450980 0.65882353
v -0.14272791 -0.00951637 -15.72573090 0.25098039 0.27450980 0.65882353
v -0.14574696 -0.00339085 -15.72985935 0.25098039 0.27450980 0.65882353
v -0.12078615 -0.02304507 -15.71545601 0.25098039 0.27450980 0.65882353
v -0.11630270 -0.02782132 -15.70900059 0.25098039 0.27450980 0.65882353
v -0.11906429 -0.02857999 -15.70814610 0.25098039 0.27450980 0.65882353
v -0.12403881 -0.02327022 -15.71493340 0.25098039 0.27450980 0.65882353
v -0.17914328 0.05542654 -15.72533131 0.25098039 0.27450980 0.65882353
v -0.17817904 0.05410259 -15.73445988 0.25098039 0.27450980 0.65882353
v -0.15779945 0.00178020 -15.70573997 0.25098039 0.27450980 0.65882353
v -0.16592744 0.00104491 -15.71303272 0.25098039 0.27450980 0.65882353
v -0.16352078 -0.01076883 -15.70869064 0.25098039 0.27450980 0.65882353
v -0.15599754 -0.00674627 -15.70252800 0.25098039 0.27450980 0.65882353
v -0.16459599 0.04836941 -15.71474361 0.25098039 0.27450980 0.65882353
v -0.16975601 0.05300266 -15.71651745 0.25098039 0.27450980 0.65882353
v -0.06046867 -0.03615398 -15.69839573 0.25098039 0.27450980 0.65882353
v -0.06389938 -0.03198225 -15.69847012 0.25098039 0.27450980 0.65882353
v -0.10754409 0.05232769 -15.75980091 0.25098039 0.27450980 0.65882353
v -0.09488247 0.03917580 -15.76894283 0.25098039 0.27450980 0.65882353
v -0.11670285 0.06068281 -15.75342846 0.25098039 0.27450980 0.65882353
v -0.12229462 0.06665702 -15.74857521 0.25098039 0.27450980 0.65882353
v -0.12644702 0.07288755 -15.74706364 0.25098039 0.27450980 0.65882353
v -0.10226987 -0.00992450 -15.72695541 0.25098039 0.27450980 0.65882353
v -0.11684951 0.00739875 -15.73498631 0.25098039 0.27450980 0.65882353
v -0.13438390 0.01253100 -15.73576260 0.25098039 0.27450980 0.65882353
v -0.16246590 0.00098593 -15.73413563 0.25098039 0.27450980 0.65882353
v -0.16680853 0.00993560 -15.73865032 0.25098039 0.27450980 0.65882353
v -0.15595599 0.00890090 -15.73987865 0.25098039 0.27450980 0.65882353
v -0.15448552 0.00135118 -15.73514271 0.25098039 0.27450980 0.65882353
v -0.16817898 -0.00363497 -15.72051430 0.25098039 0.27450980 0.65882353
v -0.16377565 -0.00704762 -15.72584820 0.25098039 0.27450980 0.65882353
v -0.16037184 -0.01505001 -15.72229099 0.25098039 0.27450980 0.65882353
v -0.16464782 -0.01280261 -15.71669865 0.25098039 0.27450980 0.65882353
v -0.08191386 0.02292540 -15.76170731 0.25098039 0.27450980 0.65882353
v -0.08751805 0.03269779 -15.75157452 0.25098039 0.27450980 0.65882353
v -0.17596887 0.03844410 -15.73898220 0.25098039 0.27450980 0.65882353
v -0.17549232 0.04552552 -15.74182892 0.25098039 0.27450980 0.65882353
v -0.17608009 0.05407735 -15.74144173 0.25098039 0.27450980 0.65882353
v -0.14590175 0.02668478 -15.74854088 0.25098039 0.27450980 0.65882353
v -0.15074082 0.03847558 -15.75472069 0.25098039 0.27450980 0.65882353
v -0.14731044 0.03837585 -15.75656223 0.25098039 0.27450980 0.65882353
v -0.14312573 0.02647237 -15.74853802 0.25098039 0.27450980 0.65882353
v -0.12731357 0.02022386 -15.75485897 0.25098039 0.27450980 0.65882353
v -0.13356942 0.03044321 -15.76228714 0.25098039 0.27450980 0.65882353
v -0.11758451 0.01553581 -15.76094627 0.25098039 0.27450980 0.65882353
v -0.14833833 0.05334077 -15.75717258 0.25098039 0.27450980 0.65882353
v -0.15703434 0.05929574 -15.75628281 0.25098039 0.27450980 0.65882353
v -0.14924635 0.06274685 -15.75778389 0.25098039 0.27450980 0.65882353
v -0.16543832 0.05686651 -15.75248528 0.25098039 0.27450980 0.65882353
v -0.17195044 0.05467622 -15.74716091 0.25098039 0.27450980 0.65882353
v -0.17412256 0.05890426 -15.71530819 0.25098039 0.27450980 0.65882353
v -0.14150152 0.06575790 -15.75793648 0.25098039 0.27450980 0.65882353
v -0.10409513 0.01514931 -15.77352428 0.25098039 0.27450980 0.65882353
v -0.09787218 0.01017556 -15.77389050 0.25098039 0.27450980 0.65882353
v -0.09766476 0.00800657 -15.76681423 0.25098039 0.27450980 0.65882353
v -0.10349379 0.01152728 -15.76592827 0.25098039 0.27450980 0.65882353
v -0.08050935 0.00082050 -15.71797085 0.25098039 0.27450980 0.65882353
v -0.08238137 -0.00248350 -15.72454071 0.25098039 0.27450980 0.65882353
v -0.08661078 0.00371578 -15.73106194 0.25098039 0.27450980 0.65882353
v -0.15733629 0.02419162 -15.74867630 0.25098039 0.27450980 0.65882353
v -0.16989926 0.02474721 -15.74384212 0.25098039 0.27450980 0.65882353
v -0.09365100 -0.01592277 -15.72352219 0.25098039 0.27450980 0.65882353
v -0.06366171 -0.02595476 -15.70293427 0.25098039 0.27450980 0.65882353
v -0.06220187 -0.02575397 -15.70831585 0.25098039 0.27450980 0.65882353
v -0.07284108 -0.01132788 -15.71340275 0.25098039 0.27450980 0.65882353
v -0.07406163 -0.01186434 -15.70668888 0.25098039 0.27450980 0.65882353
v -0.09066388 -0.02162593 -15.71323967 0.25098039 0.27450980 0.65882353
v -0.08997978 -0.01977587 -15.71992302 0.25098039 0.27450980 0.65882353
v -0.08779767 -0.02138494 -15.71726322 0.25098039 0.27450980 0.65882353
v -0.08860387 -0.02533862 -15.71208477 0.25098039 0.27450980 0.65882353
v -0.12771037 -0.02821246 -15.71091652 0.25098039 0.27450980 0.65882353
v -0.13214722 -0.02340076 -15.71610546 0.25098039 0.27450980 0.65882353
v -0.10089476 -0.00556562 -15.70093346 0.25098039 0.27450980 0.65882353
v -0.09068741 0.00253162 -15.70361710 0.25098039 0.27450980 0.65882353
v -0.09555803 0.01189532 -15.70818996 0.25098039 0.27450980 0.65882353
v -0.12920545 -0.00630839 -15.72526836 0.25098039 0.27450980 0.65882353
v -0.12520427 -0.01542025 -15.72077656 0.25098039 0.27450980 0.65882353
v -0.12907857 -0.01630370 -15.72028542 0.25098039 0.27450980 0.65882353
v -0.10311030 -0.01373525 -15.72370720 0.25098039 0.27450980 0.65882353
v -0.09694029 -0.01910274 -15.71944809 0.25098039 0.27450980 0.65882353
v -0.10323565 -0.01810188 -15.71932602 0.25098039 0.27450980 0.65882353
v -0.10863759 -0.01296775 -15.72253323 0.25098039 0.27450980 0.65882353
v -0.16946799 0.01325826 -15.71621513 0.25098039 0.27450980 0.65882353
v -0.17251061 0.00787868 -15.72482395 0.25098039 0.27450980 0.65882353
v -0.05836630 -0.03568721 -15.71205044 0.25098039 0.27450980 0.65882353
v -0.06096575 -0.03149742 -15.71225929 0.25098039 0.27450980 0.65882353
v -0.13395956 0.00308093 -15.72970963 0.25098039 0.27450980 0.65882353
v -0.10127246 0.02236946 -15.71416664 0.25098039 0.27450980 0.65882353
v -0.13944811 0.01118950 -15.73558903 0.25098039 0.27450980 0.65882353
v -0.14069340 -0.01655186 -15.69836044 0.25098039 0.27450980 0.65882353
v -0.14250466 -0.02178975 -15.70357609 0.25098039 0.27450980 0.65882353
v -0.13862197 -0.02648298 -15.70163536 0.25098039 0.27450980 0.65882353
v -0.13756219 -0.02379368 -15.69599724 0.25098039 0.27450980 0.65882353
v -0.07877608 -0.03711879 -15.70692158 0.25098039 0.27450980 0.65882353
v -0.07666776 -0.03687556 -15.71226978 0.25098039 0.27450980 0.65882353
v -0.07324474 -0.04018527 -15.71033669 0.25098039 0.27450980 0.65882353
v -0.07511094 -0.04056467 -15.70504570 0.25098039 0.27450980 0.65882353
v -0.08694284 -0.01609011 -15.72329903 0.25098039 0.27450980 0.65882353
v -0.08298156 -0.01091158 -15.72434044 0.25098039 0.27450980 0.65882353
v -0.07975487 -0.01634302 -15.72189236 0.25098039 0.27450980 0.65882353
v -0.08404826 -0.01960402 -15.71990490 0.25098039 0.27450980 0.65882353
v -0.07858500 -0.00792224 -15.72059822 0.25098039 0.27450980 0.65882353
v -0.07522038 -0.01283685 -15.71921825 0.25098039 0.27450980 0.65882353
v -0.07725197 -0.03462743 -15.70104694 0.25098039 0.27450980 0.65882353
v -0.07236916 -0.03035988 -15.69722080 0.25098039 0.27450980 0.65882353
v -0.08321144 -0.01900266 -15.70061207 0.25098039 0.27450980 0.65882353
v -0.08605765 -0.02497390 -15.70517254 0.25098039 0.27450980 0.65882353
v -0.14681348 0.03154552 -15.70878887 0.25098039 0.27450980 0.65882353
v -0.15725239 0.02899292 -15.71004868 0.25098039 0.27450980 0.65882353
v -0.15326864 0.01554295 -15.70692348 0.25098039 0.27450980 0.65882353
v -0.14978381 0.00279562 -15.70313549 0.25098039 0.27450980 0.65882353
v -0.14568216 -0.00981721 -15.70018959 0.25098039 0.27450980 0.65882353
v -0.13539413 -0.00629139 -15.69627953 0.25098039 0.27450980 0.65882353
v -0.16070482 0.01471362 -15.70922661 0.25098039 0.27450980 0.65882353
v -0.09608784 -0.01813724 -15.70573521 0.25098039 0.27450980 0.65882353
v -0.09151490 -0.01069123 -15.70268440 0.25098039 0.27450980 0.65882353
v -0.09773296 -0.01234164 -15.70186710 0.25098039 0.27450980 0.65882353
v -0.14622591 0.00850220 -15.73633957 0.25098039 0.27450980 0.65882353
v -0.06349543 -0.02710732 -15.71339989 0.25098039 0.27450980 0.65882353
v -0.12810978 0.06540330 -15.72586823 0.25098039 0.27450980 0.65882353
v -0.13816017 0.06257650 -15.71763134 0.25098039 0.27450980 0.65882353
v -0.13423617 0.05581957 -15.71794891 0.25098039 0.27450980 0.65882353
v -0.12301269 0.05883902 -15.72752094 0.25098039 0.27450980 0.65882353
v -0.07246190 -0.03388497 -15.71665478 0.25098039 0.27450980 0.65882353
v -0.06711778 -0.03041944 -15.71734142 0.25098039 0.27450980 0.65882353
v -0.13783185 -0.02598869 -15.71498585 0.25098039 0.27450980 0.65882353
v -0.13326359 -0.02922322 -15.71033287 0.25098039 0.27450980 0.65882353
v -0.13565399 -0.02993394 -15.70716572 0.25098039 0.27450980 0.65882353
v -0.14164463 -0.02910418 -15.71263790 0.25098039 0.27450980 0.65882353
v -0.16276468 0.02884630 -15.71175957 0.25098039 0.27450980 0.65882353
v -0.16218755 -0.01827985 -15.70732021 0.25098039 0.27450980 0.65882353
v -0.15588446 -0.01446082 -15.70126915 0.25098039 0.27450980 0.65882353
v -0.16021723 0.04090839 -15.71270466 0.25098039 0.27450980 0.65882353
v -0.15115157 0.04316574 -15.71112728 0.25098039 0.27450980 0.65882353
v -0.15457900 0.05132657 -15.71239853 0.25098039 0.27450980 0.65882353
v -0.12011421 -0.00989800 -15.69518185 0.25098039 0.27450980 0.65882353
v -0.13870886 0.03145419 -15.70845795 0.25098039 0.27450980 0.65882353
v -0.14385679 0.04330714 -15.71163750 0.25098039 0.27450980 0.65882353
v -0.14763850 0.05321134 -15.71297932 0.25098039 0.27450980 0.65882353
v -0.15036163 0.06027280 -15.71287346 0.25098039 0.27450980 0.65882353
v -0.15782186 0.05713807 -15.71291542 0.25098039 0.27450980 0.65882353
v -0.06749092 -0.02830308 -15.69873524 0.25098039 0.27450980 0.65882353
v -0.06894253 -0.03511757 -15.69624996 0.25098039 0.27450980 0.65882353
v -0.16161042 0.06362818 -15.71159935 0.25098039 0.27450980 0.65882353
v -0.15289398 0.06644489 -15.71218491 0.25098039 0.27450980 0.65882353
v -0.13508315 0.04404688 -15.71313381 0.25098039 0.27450980 0.65882353
v -0.12538573 0.04482759 -15.71641064 0.25098039 0.27450980 0.65882353
v -0.13050024 0.03268015 -15.70921898 0.25098039 0.27450980 0.65882353
v -0.11980730 0.03275589 -15.71192265 0.25098039 0.27450980 0.65882353
v -0.11214864 -0.00353425 -15.69465828 0.25098039 0.27450980 0.65882353
v -0.06216785 -0.05075395 -15.69694519 0.25098039 0.27450980 0.65882353
v -0.06979106 -0.04268887 -15.69830799 0.25098039 0.27450980 0.65882353
v -0.07172051 -0.04463830 -15.70334435 0.25098039 0.27450980 0.65882353
v -0.06462440 -0.05277440 -15.69993973 0.25098039 0.27450980 0.65882353
v -0.07367362 -0.03846509 -15.69984818 0.25098039 0.27450980 0.65882353
v -0.06565581 -0.03898616 -15.69614029 0.25098039 0.27450980 0.65882353
v -0.10752478 0.03396882 -15.72010708 0.25098039 0.27450980 0.65882353
v -0.09848970 -0.02251357 -15.71385098 0.25098039 0.27450980 0.65882353
v -0.11267146 0.04733029 -15.72843170 0.25098039 0.27450980 0.65882353
v -0.09292762 0.03115479 -15.73178005 0.25098039 0.27450980 0.65882353
v -0.09771186 0.04008850 -15.73997974 0.25098039 0.27450980 0.65882353
v -0.11659157 0.06112149 -15.73788834 0.25098039 0.27450980 0.65882353
v -0.10543489 0.05274206 -15.74575710 0.25098039 0.27450980 0.65882353
v -0.12685788 0.07302421 -15.73625374 0.25098039 0.27450980 0.65882353
v -0.12231560 0.06660073 -15.73598194 0.25098039 0.27450980 0.65882353
v -0.09455860 0.04390898 -15.75534248 0.25098039 0.27450980 0.65882353
v -0.05804880 -0.04822686 -15.71165752 0.25098039 0.27450980 0.65882353
v -0.06264679 -0.05078622 -15.70987988 0.25098039 0.27450980 0.65882353
v -0.13158137 0.07197113 -15.72568321 0.25098039 0.27450980 0.65882353
v -0.10916802 0.01312573 -15.76438522 0.25098039 0.27450980 0.65882353
v -0.14897045 0.01702997 -15.74220943 0.25098039 0.27450980 0.65882353
v -0.14355330 0.01818648 -15.74188805 0.25098039 0.27450980 0.65882353
v -0.16867442 0.01581050 -15.74046135 0.25098039 0.27450980 0.65882353
v -0.15635705 0.01609801 -15.74338913 0.25098039 0.27450980 0.65882353
v -0.05372016 -0.04545293 -15.71053600 0.25098039 0.27450980 0.65882353
v -0.11413831 -0.02887657 -15.70240593 0.25098039 0.27450980 0.65882353
v -0.11662142 -0.02706326 -15.70291901 0.25098039 0.27450980 0.65882353
v -0.10030380 0.02084745 -15.77809238 0.25098039 0.27450980 0.65882353
v -0.09552698 0.01541846 -15.77854347 0.25098039 0.27450980 0.65882353
v -0.08492331 0.02200304 -15.77528858 0.25098039 0.27450980 0.65882353
v -0.08996399 0.01927850 -15.77933502 0.25098039 0.27450980 0.65882353
v -0.09434357 0.02663328 -15.77833366 0.25098039 0.27450980 0.65882353
v -0.08919418 0.02989530 -15.77396202 0.25098039 0.27450980 0.65882353
v -0.14780489 0.02590085 -15.74875355 0.25098039 0.27450980 0.65882353
v -0.15113546 0.02478724 -15.74866676 0.25098039 0.27450980 0.65882353
v -0.17188083 0.02382788 -15.72062206 0.25098039 0.27450980 0.65882353
v -0.17407554 0.01833708 -15.72955894 0.25098039 0.27450980 0.65882353
v -0.07733695 -0.00561094 -15.71470547 0.25098039 0.27450980 0.65882353
v -0.08321032 0.00160926 -15.71004963 0.25098039 0.27450980 0.65882353
v -0.07925518 -0.00565793 -15.70790100 0.25098039 0.27450980 0.65882353
v -0.07888766 -0.01342130 -15.70183182 0.25098039 0.27450980 0.65882353
v -0.09551752 -0.02271629 -15.70879364 0.25098039 0.27450980 0.65882353
v -0.09082292 -0.01989391 -15.70784378 0.25098039 0.27450980 0.65882353
v -0.14123312 0.03381128 -15.75937462 0.25098039 0.27450980 0.65882353
v -0.13657697 0.02405776 -15.74992657 0.25098039 0.27450980 0.65882353
v -0.09839450 0.00977572 -15.75913906 0.25098039 0.27450980 0.65882353
v -0.09382008 0.00924728 -15.76023006 0.25098039 0.27450980 0.65882353
v -0.11665669 -0.01253988 -15.72204208 0.25098039 0.27450980 0.65882353
v -0.11234240 -0.01868629 -15.69318581 0.25098039 0.27450980 0.65882353
v -0.10609165 -0.01358930 -15.69296646 0.25098039 0.27450980 0.65882353
v -0.11181748 -0.01956180 -15.71752834 0.25098039 0.27450980 0.65882353
v -0.05132072 -0.04390153 -15.70234680 0.25098039 0.27450980 0.65882353
v -0.05160686 -0.04434178 -15.70747280 0.25098039 0.27450980 0.65882353
v -0.08442132 -0.00668448 -15.70297337 0.25098039 0.27450980 0.65882353
v -0.13713026 -0.01819988 -15.72154236 0.25098039 0.27450980 0.65882353
v -0.12074763 -0.01652636 -15.69553375 0.25098039 0.27450980 0.65882353
v -0.11427103 -0.02483425 -15.69605637 0.25098039 0.27450980 0.65882353
v -0.16219646 -0.01821100 -15.71534824 0.25098039 0.27450980 0.65882353
v -0.14148638 0.06953901 -15.71812630 0.25098039 0.27450980 0.65882353
v -0.07020709 -0.04476566 -15.70864487 0.25098039 0.27450980 0.65882353
v -0.06564681 -0.05239357 -15.70621204 0.25098039 0.27450980 0.65882353
v -0.05926266 -0.04785718 -15.69572449 0.25098039 0.27450980 0.65882353
v -0.05480620 -0.04443082 -15.69729328 0.25098039 0.27450980 0.65882353
v -0.17466255 0.02747480 -15.73489189 0.25098039 0.27450980 0.65882353
v -0.14035401 0.01902140 -15.74119186 0.25098039 0.27450980 0.65882353
v -0.08702768 0.03433872 -15.76343441 0.25098039 0.27450980 0.65882353
v -0.08206832 0.02370280 -15.76873493 0.25098039 0.27450980 0.65882353
v -0.10871986 -0.02423855 -15.71356869 0.25098039 0.27450980 0.65882353
v -0.14746356 -0.01662138 -15.70129395 0.25098039 0.27450980 0.65882353
v -0.13301107 -0.01464744 -15.69366360 0.25098039 0.27450980 0.65882353
v -0.13074446 -0.02203077 -15.69079685 0.25098039 0.27450980 0.65882353
v -0.12318140 -0.02355419 -15.69158936 0.25098039 0.27450980 0.65882353
v -0.11788990 -0.02693636 -15.69590569 0.25098039 0.27450980 0.65882353
v -0.05682126 -0.05270241 -15.69617558 0.25098039 0.27450980 0.65882353
v -0.05248588 -0.04917502 -15.69756031 0.25098039 0.27450980 0.65882353
v -0.04898067 -0.04850930 -15.70238590 0.25098039 0.27450980 0.65882353
v -0.04918809 -0.04838206 -15.70694256 0.25098039 0.27450980 0.65882353
v -0.05220728 -0.04886679 -15.71010685 0.25098039 0.27450980 0.65882353
v -0.05935512 -0.05588982 -15.69743252 0.25098039 0.27450980 0.65882353
v -0.06123096 -0.05753567 -15.70040894 0.25098039 0.27450980 0.65882353
v -0.06332991 -0.05566671 -15.70576763 0.25098039 0.27450980 0.65882353
v -0.05763780 -0.06044785 -15.69906044 0.25098039 0.27450980 0.65882353
v -0.05269082 -0.06024842 -15.69744778 0.25098039 0.27450980 0.65882353
v -0.04305166 -0.06068971 -15.70697403 0.25098039 0.27450980 0.65882353
v -0.04514295 -0.05627846 -15.70361996 0.25098039 0.27450980 0.65882353
v -0.04476106 -0.05876655 -15.70279121 0.25098039 0.27450980 0.65882353
v -0.04313938 -0.06301093 -15.70486736 0.25098039 0.27450980 0.65882353
v -0.04165593 -0.06794244 -15.70543098 0.25098039 0.27450980 0.65882353
v -0.04110037 -0.06594071 -15.70824242 0.25098039 0.27450980 0.65882353
v -0.04805796 -0.05829508 -15.69963837 0.25098039 0.27450980 0.65882353
v -0.04594748 -0.06433563 -15.70157337 0.25098039 0.27450980 0.65882353
v -0.04929426 -0.06616165 -15.70004559 0.25098039 0.27450980 0.65882353
v -0.04679789 -0.07107452 -15.70115280 0.25098039 0.27450980 0.65882353
v -0.04367685 -0.06957823 -15.70236015 0.25098039 0.27450980 0.65882353
v -0.05037513 -0.06190130 -15.69870567 0.25098039 0.27450980 0.65882353
v -0.04884583 -0.05621272 -15.69863415 0.25098039 0.27450980 0.65882353
v -0.04088154 -0.07059368 -15.70773029 0.25098039 0.27450980 0.65882353
v -0.04093659 -0.07091531 -15.70528221 0.25098039 0.27450980 0.65882353
v -0.04283728 -0.07244189 -15.70342636 0.25098039 0.27450980 0.65882353
v -0.04274157 -0.07465991 -15.70555019 0.25098039 0.27450980 0.65882353
v -0.04720637 -0.05275035 -15.70778942 0.25098039 0.27450980 0.65882353
v -0.04371303 -0.06026785 -15.70942402 0.25098039 0.27450980 0.65882353
v -0.04310216 -0.06616534 -15.71055126 0.25098039 0.27450980 0.65882353
v -0.04276572 -0.07077441 -15.70982075 0.25098039 0.27450980 0.65882353
v -0.04654610 -0.06198579 -15.71169090 0.25098039 0.27450980 0.65882353
v -0.04567941 -0.06675634 -15.71171665 0.25098039 0.27450980 0.65882353
v -0.04583085 -0.07072558 -15.71096992 0.25098039 0.27450980 0.65882353
v -0.05000298 -0.06407690 -15.71249390 0.25098039 0.27450980 0.65882353
v -0.04851344 -0.06801462 -15.71198273 0.25098039 0.27450980 0.65882353
v -0.05438879 -0.05337081 -15.71116161 0.25098039 0.27450980 0.65882353
v -0.05079293 -0.05137469 -15.71053886 0.25098039 0.27450980 0.65882353
v -0.04783350 -0.07057215 -15.71181965 0.25098039 0.27450980 0.65882353
v -0.04438087 -0.07507908 -15.70707893 0.25098039 0.27450980 0.65882353
v -0.05294681 -0.06596570 -15.70003033 0.25098039 0.27450980 0.65882353
v -0.04964617 -0.07177818 -15.70254612 0.25098039 0.27450980 0.65882353
v -0.05489151 -0.06646340 -15.70131493 0.25098039 0.27450980 0.65882353
v -0.05179816 -0.07238322 -15.70348263 0.25098039 0.27450980 0.65882353
v -0.04685660 -0.07534313 -15.70325756 0.25098039 0.27450980 0.65882353
v -0.04536457 -0.07339096 -15.70247936 0.25098039 0.27450980 0.65882353
v -0.05701171 -0.05043010 -15.71097851 0.25098039 0.27450980 0.65882353
v -0.06156749 -0.05338461 -15.70904255 0.25098039 0.27450980 0.65882353
v -0.05944668 -0.05621288 -15.70927715 0.25098039 0.27450980 0.65882353
v -0.05397987 -0.06614389 -15.71122074 0.25098039 0.27450980 0.65882353
v -0.06124063 -0.05884203 -15.70652866 0.25098039 0.27450980 0.65882353
v -0.05940957 -0.06172517 -15.70211124 0.25098039 0.27450980 0.65882353
v -0.05599339 -0.06765962 -15.70377064 0.25098039 0.27450980 0.65882353
v -0.05629620 -0.06760773 -15.70707321 0.25098039 0.27450980 0.65882353
v -0.05317003 -0.07199821 -15.70547295 0.25098039 0.27450980 0.65882353
v -0.05310634 -0.07103941 -15.70777130 0.25098039 0.27450980 0.65882353
v -0.05138370 -0.06983444 -15.71086311 0.25098039 0.27450980 0.65882353
v -0.05010700 -0.07431830 -15.70708561 0.25098039 0.27450980 0.65882353
v -0.04842424 -0.07532939 -15.70487785 0.25098039 0.27450980 0.65882353
v -0.04701960 -0.07388112 -15.70900631 0.25098039 0.27450980 0.65882353
v -0.05113904 -0.07308866 -15.70832157 0.25098039 0.27450980 0.65882353
v -0.04889511 -0.07210355 -15.70994568 0.25098039 0.27450980 0.65882353
v -0.08755693 -0.05456603 -15.69962406 0.25098039 0.27450980 0.65882353
v -0.09321079 -0.05694741 -15.69800758 0.25098039 0.27450980 0.65882353
v -0.09447828 -0.05161161 -15.69849205 0.25098039 0.27450980 0.65882353
v -0.08951801 -0.05013845 -15.69993591 0.25098039 0.27450980 0.65882353
v -0.08159398 -0.05020096 -15.68855000 0.25098039 0.27450980 0.65882353
v -0.08161059 -0.05132707 -15.69418240 0.25098039 0.27450980 0.65882353
v -0.08282122 -0.04653778 -15.69397545 0.25098039 0.27450980 0.65882353
v -0.08398730 -0.04533824 -15.68776512 0.25098039 0.27450980 0.65882353
v -0.08608940 -0.05087889 -15.68376541 0.25098039 0.27450980 0.65882353
v -0.08874826 -0.04576525 -15.68318176 0.25098039 0.27450980 0.65882353
v -0.08552471 -0.04046405 -15.68817902 0.25098039 0.27450980 0.65882353
v -0.08493307 -0.04153485 -15.69511700 0.25098039 0.27450980 0.65882353
v -0.09405982 -0.02381700 -15.70198250 0.25098039 0.27450980 0.65882353
v -0.09471774 -0.02227289 -15.69494915 0.25098039 0.27450980 0.65882353
v -0.10975711 -0.03130959 -15.70532990 0.25098039 0.27450980 0.65882353
v -0.11016531 -0.03182826 -15.70141315 0.25098039 0.27450980 0.65882353
v -0.08422898 -0.05304919 -15.69808197 0.25098039 0.27450980 0.65882353
v -0.08564247 -0.04845248 -15.69792938 0.25098039 0.27450980 0.65882353
v -0.10286207 -0.04941678 -15.69437885 0.25098039 0.27450980 0.65882353
v -0.10053451 -0.04924143 -15.69923973 0.25098039 0.27450980 0.65882353
v -0.09836818 -0.05358380 -15.69651508 0.25098039 0.27450980 0.65882353
v -0.10013326 -0.05358837 -15.69125271 0.25098039 0.27450980 0.65882353
v -0.09942217 -0.02644139 -15.70849895 0.25098039 0.27450980 0.65882353
v -0.10541475 -0.02838194 -15.70777225 0.25098039 0.27450980 0.65882353
v -0.09617884 -0.02570106 -15.70621586 0.25098039 0.27450980 0.65882353
v -0.10245030 -0.04787506 -15.68805695 0.25098039 0.27450980 0.65882353
v -0.09851173 -0.04477340 -15.68330193 0.25098039 0.27450980 0.65882353
v -0.10661289 -0.02732146 -15.68871593 0.25098039 0.27450980 0.65882353
v -0.10996915 -0.03089397 -15.69293308 0.25098039 0.27450980 0.65882353
v -0.08693743 -0.04371148 -15.69989967 0.25098039 0.27450980 0.65882353
v -0.09608655 -0.04790404 -15.70198822 0.25098039 0.27450980 0.65882353
v -0.09123141 -0.04613462 -15.70265770 0.25098039 0.27450980 0.65882353
v -0.09138967 -0.04142353 -15.68400955 0.25098039 0.27450980 0.65882353
v -0.09520079 -0.04984270 -15.68238735 0.25098039 0.27450980 0.65882353
v -0.09091501 -0.06871168 -15.68475628 0.25098039 0.27450980 0.65882353
v -0.09668860 -0.05740641 -15.68532467 0.25098039 0.27450980 0.65882353
v -0.09776327 -0.05878003 -15.69008160 0.25098039 0.27450980 0.65882353
v -0.09281401 -0.07084554 -15.68876266 0.25098039 0.27450980 0.65882353
v -0.09931925 -0.05255463 -15.68588734 0.25098039 0.27450980 0.65882353
v -0.09234521 -0.05427273 -15.68261528 0.25098039 0.27450980 0.65882353
v -0.08371434 -0.06979652 -15.69893742 0.25098039 0.27450980 0.65882353
v -0.08927467 -0.07207309 -15.69708347 0.25098039 0.27450980 0.65882353
v -0.07965869 -0.06797962 -15.69788456 0.25098039 0.27450980 0.65882353
v -0.10014495 -0.02337530 -15.68925476 0.25098039 0.27450980 0.65882353
v -0.07695064 -0.06298541 -15.68920231 0.25098039 0.27450980 0.65882353
v -0.07728440 -0.06552546 -15.69523907 0.25098039 0.27450980 0.65882353
v -0.09691963 -0.05867091 -15.69499779 0.25098039 0.27450980 0.65882353
v -0.09228362 -0.07248870 -15.69317627 0.25098039 0.27450980 0.65882353
v -0.08737300 -0.06637709 -15.68287849 0.25098039 0.27450980 0.65882353
v -0.08143851 -0.06248243 -15.68409634 0.25098039 0.27450980 0.65882353
v -0.08497918 -0.07186554 -15.68336201 0.25098039 0.27450980 0.65882353
v -0.07939768 -0.06892760 -15.68463993 0.25098039 0.27450980 0.65882353
v -0.07513204 -0.06910710 -15.68979073 0.25098039 0.27450980 0.65882353
v -0.07619157 -0.07060067 -15.69530106 0.25098039 0.27450980 0.65882353
v -0.07881387 -0.07182615 -15.69791031 0.25098039 0.27450980 0.65882353
v -0.08823743 -0.07417436 -15.68503761 0.25098039 0.27450980 0.65882353
v -0.09040229 -0.07609840 -15.68867207 0.25098039 0.27450980 0.65882353
v -0.09065649 -0.07539839 -15.69348240 0.25098039 0.27450980 0.65882353
v -0.08688930 -0.08128715 -15.68693924 0.25098039 0.27450980 0.65882353
v -0.08290356 -0.08072555 -15.68501663 0.25098039 0.27450980 0.65882353
v -0.07174945 -0.08967254 -15.69616413 0.25098039 0.27450980 0.65882353
v -0.07248302 -0.08388041 -15.69450283 0.25098039 0.27450980 0.65882353
v -0.07303019 -0.08495125 -15.69212914 0.25098039 0.27450980 0.65882353
v -0.07244730 -0.09027290 -15.69347858 0.25098039 0.27450980 0.65882353
v -0.07299222 -0.07865797 -15.69089508 0.25098039 0.27450980 0.65882353
v -0.07376364 -0.08095041 -15.68986702 0.25098039 0.27450980 0.65882353
v -0.07717691 -0.08070809 -15.68680954 0.25098039 0.27450980 0.65882353
v -0.07641821 -0.08646101 -15.68892670 0.25098039 0.27450980 0.65882353
v -0.08090688 -0.08693437 -15.68744278 0.25098039 0.27450980 0.65882353
v -0.07970446 -0.09260532 -15.68807125 0.25098039 0.27450980 0.65882353
v -0.07514477 -0.09216787 -15.68956661 0.25098039 0.27450980 0.65882353
v -0.08033581 -0.08285892 -15.68601131 0.25098039 0.27450980 0.65882353
v -0.07258430 -0.09395674 -15.69362545 0.25098039 0.27450980 0.65882353
v -0.07276520 -0.09531361 -15.69584560 0.25098039 0.27450980 0.65882353
v -0.07714462 -0.07770206 -15.68569565 0.25098039 0.27450980 0.65882353
v -0.07463551 -0.07479265 -15.69531536 0.25098039 0.27450980 0.65882353
v -0.07335433 -0.08370471 -15.69741917 0.25098039 0.27450980 0.65882353
v -0.07330343 -0.09031838 -15.69891644 0.25098039 0.27450980 0.65882353
v -0.07510489 -0.09617823 -15.69763756 0.25098039 0.27450980 0.65882353
v -0.07648061 -0.08479372 -15.69999409 0.25098039 0.27450980 0.65882353
v -0.07608910 -0.09100315 -15.70045662 0.25098039 0.27450980 0.65882353
v -0.07760069 -0.09555538 -15.69866943 0.25098039 0.27450980 0.65882353
v -0.08080137 -0.08609018 -15.70132637 0.25098039 0.27450980 0.65882353
v -0.08014907 -0.09199336 -15.70092773 0.25098039 0.27450980 0.65882353
v -0.08262983 -0.07533295 -15.69936943 0.25098039 0.27450980 0.65882353
v -0.07803969 -0.07455911 -15.69867706 0.25098039 0.27450980 0.65882353
v -0.07958703 -0.09441167 -15.69953156 0.25098039 0.27450980 0.65882353
v -0.07515182 -0.09801143 -15.69239426 0.25098039 0.27450980 0.65882353
v -0.07743190 -0.09856677 -15.69499302 0.25098039 0.27450980 0.65882353
v -0.07486618 -0.09620154 -15.69137764 0.25098039 0.27450980 0.65882353
v -0.08300436 -0.08718991 -15.68760300 0.25098039 0.27450980 0.65882353
v -0.08160537 -0.09330641 -15.68931103 0.25098039 0.27450980 0.65882353
v -0.08539625 -0.08784574 -15.68898296 0.25098039 0.27450980 0.65882353
v -0.08325623 -0.09425625 -15.69098949 0.25098039 0.27450980 0.65882353
v -0.07946041 -0.09738314 -15.69058228 0.25098039 0.27450980 0.65882353
v -0.07805265 -0.09662277 -15.68982792 0.25098039 0.27450980 0.65882353
v -0.08307470 -0.07277563 -15.69834232 0.25098039 0.27450980 0.65882353
v -0.08818699 -0.07435769 -15.69662094 0.25098039 0.27450980 0.65882353
v -0.08771583 -0.07659976 -15.69748783 0.25098039 0.27450980 0.65882353
v -0.08532417 -0.08725175 -15.69903660 0.25098039 0.27450980 0.65882353
v -0.09022489 -0.07807498 -15.69384384 0.25098039 0.27450980 0.65882353
v -0.08916570 -0.08089840 -15.68966389 0.25098039 0.27450980 0.65882353
v -0.08728430 -0.08777373 -15.69107628 0.25098039 0.27450980 0.65882353
v -0.08756429 -0.08801544 -15.69500828 0.25098039 0.27450980 0.65882353
v -0.08522102 -0.09446442 -15.69215775 0.25098039 0.27450980 0.65882353
v -0.08595143 -0.09280559 -15.69483089 0.25098039 0.27450980 0.65882353
v -0.08377407 -0.09241676 -15.69914055 0.25098039 0.27450980 0.65882353
v -0.08253825 -0.09808293 -15.69351578 0.25098039 0.27450980 0.65882353
v -0.08073585 -0.09809880 -15.69178963 0.25098039 0.27450980 0.65882353
v -0.07914791 -0.09774286 -15.69636822 0.25098039 0.27450980 0.65882353
v -0.08388828 -0.09610605 -15.69540310 0.25098039 0.27450980 0.65882353
v -0.08133893 -0.09582239 -15.69797230 0.25098039 0.27450980 0.65882353
v -0.11373635 -0.05473183 -15.69686604 0.25098039 0.27450980 0.65882353
v -0.11894833 -0.05577720 -15.69930077 0.25098039 0.27450980 0.65882353
v -0.11989652 -0.05172053 -15.69985390 0.25098039 0.27450980 0.65882353
v -0.11476496 -0.05072392 -15.69727898 0.25098039 0.27450980 0.65882353
v -0.11578573 -0.05328450 -15.68448162 0.25098039 0.27450980 0.65882353
v -0.11239576 -0.05375341 -15.68799400 0.25098039 0.27450980 0.65882353
v -0.11329965 -0.04926370 -15.68836689 0.25098039 0.27450980 0.65882353
v -0.11696734 -0.04755097 -15.68463612 0.25098039 0.27450980 0.65882353
v -0.12067660 -0.05553675 -15.68337059 0.25098039 0.27450980 0.65882353
v -0.12275205 -0.04795400 -15.68320274 0.25098039 0.27450980 0.65882353
v -0.11786515 -0.04196519 -15.68472195 0.25098039 0.27450980 0.65882353
v -0.11413367 -0.04474447 -15.68886757 0.25098039 0.27450980 0.65882353
v -0.11732340 -0.03083554 -15.69424248 0.25098039 0.27450980 0.65882353
v -0.12132691 -0.02917336 -15.68880367 0.25098039 0.27450980 0.65882353
v -0.11200763 -0.05421045 -15.69264698 0.25098039 0.27450980 0.65882353
v -0.11277075 -0.05033301 -15.69306850 0.25098039 0.27450980 0.65882353
v -0.12956667 -0.04976610 -15.69921398 0.25098039 0.27450980 0.65882353
v -0.12545358 -0.04940990 -15.70184135 0.25098039 0.27450980 0.65882353
v -0.12513241 -0.05297319 -15.69951057 0.25098039 0.27450980 0.65882353
v -0.12855431 -0.05341258 -15.69697475 0.25098039 0.27450980 0.65882353
v -0.11985959 -0.03151820 -15.70506001 0.25098039 0.27450980 0.65882353
v -0.12575856 -0.03125897 -15.70654297 0.25098039 0.27450980 0.65882353
v -0.11692090 -0.03245181 -15.70036030 0.25098039 0.27450980 0.65882353
v -0.13176438 -0.04880950 -15.69320965 0.25098039 0.27450980 0.65882353
v -0.13044140 -0.04533472 -15.68685341 0.25098039 0.27450980 0.65882353
v -0.13481411 -0.03215529 -15.69203854 0.25098039 0.27450980 0.65882353
v -0.13546462 -0.03347679 -15.69829559 0.25098039 0.27450980 0.65882353
v -0.11326165 -0.04661820 -15.69383430 0.25098039 0.27450980 0.65882353
v -0.12039658 -0.04807208 -15.70189667 0.25098039 0.27450980 0.65882353
v -0.11521168 -0.04765420 -15.69901562 0.25098039 0.27450980 0.65882353
v -0.12406831 -0.04238987 -15.68417358 0.25098039 0.27450980 0.65882353
v -0.12816125 -0.05095578 -15.68628693 0.25098039 0.27450980 0.65882353
v -0.12394340 -0.07362096 -15.68882465 0.25098039 0.27450980 0.65882353
v -0.12910056 -0.05755480 -15.69093704 0.25098039 0.27450980 0.65882353
v -0.12732947 -0.05790677 -15.69632530 0.25098039 0.27450980 0.65882353
v -0.12389743 -0.07401635 -15.69321251 0.25098039 0.27450980 0.65882353
v -0.13031045 -0.05350197 -15.69188309 0.25098039 0.27450980 0.65882353
v -0.12658045 -0.05642786 -15.68582153 0.25098039 0.27450980 0.65882353
v -0.11081743 -0.07053442 -15.69666672 0.25098039 0.27450980 0.65882353
v -0.11608255 -0.07132609 -15.69841290 0.25098039 0.27450980 0.65882353
v -0.10906751 -0.06878954 -15.69298077 0.25098039 0.27450980 0.65882353
v -0.12848571 -0.02931206 -15.68725967 0.25098039 0.27450980 0.65882353
v -0.13231450 -0.03290115 -15.70439529 0.25098039 0.27450980 0.65882353
v -0.11051346 -0.06908366 -15.68556213 0.25098039 0.27450980 0.65882353
v -0.10872550 -0.06869271 -15.68956852 0.25098039 0.27450980 0.65882353
v -0.12412981 -0.05689418 -15.69892979 0.25098039 0.27450980 0.65882353
v -0.12129245 -0.07310787 -15.69692135 0.25098039 0.27450980 0.65882353
v -0.12157553 -0.07174663 -15.68500710 0.25098039 0.27450980 0.65882353
v -0.11610472 -0.06925993 -15.68310642 0.25098039 0.27450980 0.65882353
v -0.12026141 -0.07775453 -15.68595695 0.25098039 0.27450980 0.65882353
v -0.11470109 -0.07561523 -15.68420982 0.25098039 0.27450980 0.65882353
v -0.10931265 -0.07530242 -15.68657398 0.25098039 0.27450980 0.65882353
v -0.10779266 -0.07426557 -15.69055367 0.25098039 0.27450980 0.65882353
v -0.10819045 -0.07383540 -15.69388199 0.25098039 0.27450980 0.65882353
v -0.12246072 -0.07903963 -15.69015026 0.25098039 0.27450980 0.65882353
v -0.12224260 -0.07878464 -15.69409561 0.25098039 0.27450980 0.65882353
v -0.12016721 -0.07527807 -15.69690323 0.25098039 0.27450980 0.65882353
v -0.12163131 -0.08316197 -15.69234276 0.25098039 0.27450980 0.65882353
v -0.11829799 -0.08474445 -15.68820190 0.25098039 0.27450980 0.65882353
v -0.10568658 -0.09352052 -15.69511700 0.25098039 0.27450980 0.65882353
v -0.10663451 -0.08803385 -15.69297886 0.25098039 0.27450980 0.65882353
v -0.10744880 -0.08870900 -15.69221783 0.25098039 0.27450980 0.65882353
v -0.10655615 -0.09432203 -15.69369411 0.25098039 0.27450980 0.65882353
v -0.10843028 -0.08294953 -15.68872452 0.25098039 0.27450980 0.65882353
v -0.10900459 -0.08491994 -15.68907833 0.25098039 0.27450980 0.65882353
v -0.11263552 -0.08505444 -15.68762875 0.25098039 0.27450980 0.65882353
v -0.11165959 -0.09106770 -15.69005871 0.25098039 0.27450980 0.65882353
v -0.11713070 -0.09042642 -15.69240475 0.25098039 0.27450980 0.65882353
v -0.11534984 -0.09490128 -15.69425106 0.25098039 0.27450980 0.65882353
v -0.11054650 -0.09601955 -15.69201756 0.25098039 0.27450980 0.65882353
v -0.11672346 -0.08615361 -15.68887615 0.25098039 0.27450980 0.65882353
v -0.10706371 -0.09738646 -15.69465637 0.25098039 0.27450980 0.65882353
v -0.10512525 -0.09795989 -15.69561386 0.25098039 0.27450980 0.65882353
v -0.11312048 -0.08291546 -15.68627071 0.25098039 0.27450980 0.65882353
v -0.10618216 -0.07986821 -15.69181442 0.25098039 0.27450980 0.65882353
v -0.10512841 -0.08684117 -15.69519138 0.25098039 0.27450980 0.65882353
v -0.10378659 -0.09234113 -15.69775486 0.25098039 0.27450980 0.65882353
v -0.10507829 -0.09655535 -15.69916344 0.25098039 0.27450980 0.65882353
v -0.10611118 -0.08564043 -15.69860363 0.25098039 0.27450980 0.65882353
v -0.10528162 -0.09098499 -15.70027065 0.25098039 0.27450980 0.65882353
v -0.10632417 -0.09472834 -15.70158958 0.25098039 0.27450980 0.65882353
v -0.10826963 -0.08507359 -15.70097256 0.25098039 0.27450980 0.65882353
v -0.10771531 -0.08998457 -15.70230484 0.25098039 0.27450980 0.65882353
v -0.11009789 -0.07591900 -15.69746876 0.25098039 0.27450980 0.65882353
v -0.10731491 -0.07750285 -15.69491100 0.25098039 0.27450980 0.65882353
v -0.10790737 -0.09328137 -15.70260429 0.25098039 0.27450980 0.65882353
v -0.10938163 -0.10025288 -15.69568062 0.25098039 0.27450980 0.65882353
v -0.10996899 -0.09929621 -15.69997025 0.25098039 0.27450980 0.65882353
v -0.10981490 -0.09849788 -15.69454098 0.25098039 0.27450980 0.65882353
v -0.11875015 -0.08962274 -15.69318104 0.25098039 0.27450980 0.65882353
v -0.11694790 -0.09544897 -15.69606495 0.25098039 0.27450980 0.65882353
v -0.11988553 -0.08865076 -15.69568157 0.25098039 0.27450980 0.65882353
v -0.11806010 -0.09450962 -15.69841862 0.25098039 0.27450980 0.65882353
v -0.11436808 -0.09897096 -15.69647026 0.25098039 0.27450980 0.65882353
v -0.11371753 -0.09826323 -15.69546032 0.25098039 0.27450980 0.65882353
v -0.11096510 -0.07318327 -15.69662571 0.25098039 0.27450980 0.65882353
v -0.11574620 -0.07375331 -15.69812202 0.25098039 0.27450980 0.65882353
v -0.11460920 -0.07609816 -15.69894791 0.25098039 0.27450980 0.65882353
v -0.11242548 -0.08572164 -15.70279884 0.25098039 0.27450980 0.65882353
v -0.11897328 -0.07750393 -15.69813442 0.25098039 0.27450980 0.65882353
v -0.12107711 -0.08253030 -15.69600868 0.25098039 0.27450980 0.65882353
v -0.11908373 -0.08765940 -15.69870377 0.25098039 0.27450980 0.65882353
v -0.11662216 -0.08697325 -15.70153046 0.25098039 0.27450980 0.65882353
v -0.11749029 -0.09305824 -15.70071316 0.25098039 0.27450980 0.65882353
v -0.11573957 -0.09116803 -15.70199776 0.25098039 0.27450980 0.65882353
v -0.11140184 -0.09030575 -15.70400143 0.25098039 0.27450980 0.65882353
v -0.11456814 -0.09607747 -15.70121765 0.25098039 0.27450980 0.65882353
v -0.11506948 -0.09821239 -15.69914627 0.25098039 0.27450980 0.65882353
v -0.11020654 -0.09682174 -15.70226002 0.25098039 0.27450980 0.65882353
v -0.11388236 -0.09402525 -15.70261192 0.25098039 0.27450980 0.65882353
v -0.11058523 -0.09440467 -15.70341110 0.25098039 0.27450980 0.65882353
v -0.12984091 -0.03186625 -15.70668602 0.25098039 0.27450980 0.65882353
v -0.14720967 -0.05296497 -15.70849800 0.25098039 0.27450980 0.65882353
v -0.15040612 -0.05298645 -15.71086788 0.25098039 0.27450980 0.65882353
v -0.15116915 -0.04889470 -15.71080875 0.25098039 0.27450980 0.65882353
v -0.14758912 -0.04830773 -15.70929241 0.25098039 0.27450980 0.65882353
v -0.14967969 -0.05142604 -15.69798470 0.25098039 0.27450980 0.65882353
v -0.14674592 -0.05236962 -15.70118713 0.25098039 0.27450980 0.65882353
v -0.14650655 -0.04759377 -15.70110226 0.25098039 0.27450980 0.65882353
v -0.14936209 -0.04676857 -15.69791985 0.25098039 0.27450980 0.65882353
v -0.15445277 -0.05135512 -15.69740486 0.25098039 0.27450980 0.65882353
v -0.15440774 -0.04687072 -15.69759941 0.25098039 0.27450980 0.65882353
v -0.14914635 -0.04326775 -15.69748497 0.25098039 0.27450980 0.65882353
v -0.14604735 -0.04382996 -15.70110321 0.25098039 0.27450980 0.65882353
v -0.14446256 -0.02814792 -15.70332050 0.25098039 0.27450980 0.65882353
v -0.14831512 -0.02563212 -15.69991493 0.25098039 0.27450980 0.65882353
v -0.16068345 -0.02399011 -15.71393585 0.25098039 0.27450980 0.65882353
v -0.15586647 -0.02379585 -15.71847343 0.25098039 0.27450980 0.65882353
v -0.15614834 -0.03197917 -15.71467972 0.25098039 0.27450980 0.65882353
v -0.15999411 -0.03056077 -15.71156502 0.25098039 0.27450980 0.65882353
v -0.14611617 -0.05282581 -15.70497704 0.25098039 0.27450980 0.65882353
v -0.14564598 -0.04831802 -15.70586300 0.25098039 0.27450980 0.65882353
v -0.15984532 -0.04381877 -15.70935822 0.25098039 0.27450980 0.65882353
v -0.15599662 -0.04479790 -15.71162987 0.25098039 0.27450980 0.65882353
v -0.15500528 -0.04851943 -15.71166515 0.25098039 0.27450980 0.65882353
v -0.15911335 -0.04843823 -15.70988560 0.25098039 0.27450980 0.65882353
v -0.15032953 -0.02543435 -15.71845627 0.25098039 0.27450980 0.65882353
v -0.14585075 -0.02606990 -15.71646118 0.25098039 0.27450980 0.65882353
v -0.14608353 -0.03044394 -15.71506691 0.25098039 0.27450980 0.65882353
v -0.15132123 -0.03295307 -15.71529007 0.25098039 0.27450980 0.65882353
v -0.14317644 -0.03060932 -15.71066380 0.25098039 0.27450980 0.65882353
v -0.16126053 -0.04351474 -15.70572090 0.25098039 0.27450980 0.65882353
v -0.15985909 -0.04314544 -15.70037937 0.25098039 0.27450980 0.65882353
v -0.16162443 -0.02661682 -15.70278263 0.25098039 0.27450980 0.65882353
v -0.16188826 -0.02766068 -15.70738983 0.25098039 0.27450980 0.65882353
v -0.14514592 -0.04508379 -15.70539570 0.25098039 0.27450980 0.65882353
v -0.15180919 -0.04558344 -15.71140957 0.25098039 0.27450980 0.65882353
v -0.14777356 -0.04558065 -15.70959949 0.25098039 0.27450980 0.65882353
v -0.15477881 -0.04325626 -15.69692898 0.25098039 0.27450980 0.65882353
v -0.15939859 -0.04745502 -15.70069981 0.25098039 0.27450980 0.65882353
v -0.16044125 -0.06182818 -15.70586300 0.25098039 0.27450980 0.65882353
v -0.16085461 -0.05189913 -15.70610428 0.25098039 0.27450980 0.65882353
v -0.15855016 -0.05274698 -15.71023655 0.25098039 0.27450980 0.65882353
v -0.15916112 -0.06225345 -15.70843124 0.25098039 0.27450980 0.65882353
v -0.16087130 -0.04784494 -15.70585728 0.25098039 0.27450980 0.65882353
v -0.15943269 -0.05175161 -15.70070839 0.25098039 0.27450980 0.65882353
v -0.14740884 -0.06257659 -15.70813179 0.25098039 0.27450980 0.65882353
v -0.15180129 -0.06214842 -15.71062851 0.25098039 0.27450980 0.65882353
v -0.14630044 -0.06230862 -15.70515919 0.25098039 0.27450980 0.65882353
v -0.15520987 -0.02558280 -15.69863129 0.25098039 0.27450980 0.65882353
v -0.14966470 -0.06168443 -15.69861698 0.25098039 0.27450980 0.65882353
v -0.14673451 -0.06254195 -15.70165157 0.25098039 0.27450980 0.65882353
v -0.15429825 -0.05297931 -15.71156788 0.25098039 0.27450980 0.65882353
v -0.15612844 -0.06208580 -15.71037388 0.25098039 0.27450980 0.65882353
v -0.15950339 -0.06145677 -15.70179844 0.25098039 0.27450980 0.65882353
v -0.15500182 -0.06095511 -15.69793510 0.25098039 0.27450980 0.65882353
v -0.15891856 -0.06626904 -15.70201778 0.25098039 0.27450980 0.65882353
v -0.15412688 -0.06535423 -15.69842529 0.25098039 0.27450980 0.65882353
v -0.14855489 -0.06629728 -15.69964123 0.25098039 0.27450980 0.65882353
v -0.14653121 -0.06577626 -15.70263100 0.25098039 0.27450980 0.65882353
v -0.14607945 -0.06554566 -15.70576954 0.25098039 0.27450980 0.65882353
v -0.15998149 -0.06632173 -15.70608521 0.25098039 0.27450980 0.65882353
v -0.15870968 -0.06614929 -15.70880508 0.25098039 0.27450980 0.65882353
v -0.15586855 -0.06512058 -15.71094418 0.25098039 0.27450980 0.65882353
v -0.15935165 -0.07088102 -15.70654678 0.25098039 0.27450980 0.65882353
v -0.15771258 -0.07266156 -15.70245361 0.25098039 0.27450980 0.65882353
v -0.14724165 -0.08099283 -15.70498657 0.25098039 0.27450980 0.65882353
v -0.14719522 -0.07694849 -15.70404053 0.25098039 0.27450980 0.65882353
v -0.14807355 -0.07715397 -15.70317364 0.25098039 0.27450980 0.65882353
v -0.14753112 -0.08124793 -15.70385933 0.25098039 0.27450980 0.65882353
v -0.14825660 -0.07226732 -15.70143700 0.25098039 0.27450980 0.65882353
v -0.14931823 -0.07356861 -15.70133114 0.25098039 0.27450980 0.65882353
v -0.15260999 -0.07250366 -15.70069313 0.25098039 0.27450980 0.65882353
v -0.15204348 -0.07768692 -15.70169163 0.25098039 0.27450980 0.65882353
v -0.15676022 -0.07823850 -15.70419693 0.25098039 0.27450980 0.65882353
v -0.15576035 -0.08234289 -15.70472813 0.25098039 0.27450980 0.65882353
v -0.15177387 -0.08149356 -15.70220661 0.25098039 0.27450980 0.65882353
v -0.15629461 -0.07419163 -15.70190048 0.25098039 0.27450980 0.65882353
v -0.14817771 -0.08396563 -15.70369148 0.25098039 0.27450980 0.65882353
v -0.14748424 -0.08502382 -15.70449543 0.25098039 0.27450980 0.65882353
v -0.15283671 -0.07083771 -15.69975662 0.25098039 0.27450980 0.65882353
v -0.14593078 -0.07030502 -15.70425701 0.25098039 0.27450980 0.65882353
v -0.14581846 -0.07716675 -15.70610619 0.25098039 0.27450980 0.65882353
v -0.14624217 -0.08223072 -15.70677280 0.25098039 0.27450980 0.65882353
v -0.14785071 -0.08572337 -15.70675564 0.25098039 0.27450980 0.65882353
v -0.14595154 -0.07581761 -15.70850563 0.25098039 0.27450980 0.65882353
v -0.14619505 -0.08190650 -15.70925903 0.25098039 0.27450980 0.65882353
v -0.14802739 -0.08510411 -15.70937634 0.25098039 0.27450980 0.65882353
v -0.14739451 -0.07475729 -15.71145821 0.25098039 0.27450980 0.65882353
v -0.14773315 -0.08068734 -15.71134663 0.25098039 0.27450980 0.65882353
v -0.14784789 -0.06770253 -15.71020508 0.25098039 0.27450980 0.65882353
v -0.14619753 -0.06897332 -15.70731640 0.25098039 0.27450980 0.65882353
v -0.14876826 -0.08363421 -15.71052361 0.25098039 0.27450980 0.65882353
v -0.15108763 -0.08629398 -15.70404625 0.25098039 0.27450980 0.65882353
v -0.15098312 -0.08682013 -15.70712376 0.25098039 0.27450980 0.65882353
v -0.15150690 -0.08514528 -15.70314217 0.25098039 0.27450980 0.65882353
v -0.15781379 -0.07793701 -15.70525074 0.25098039 0.27450980 0.65882353
v -0.15667218 -0.08294928 -15.70611382 0.25098039 0.27450980 0.65882353
v -0.15849128 -0.07729881 -15.70771694 0.25098039 0.27450980 0.65882353
v -0.15665703 -0.08289875 -15.70839787 0.25098039 0.27450980 0.65882353
v -0.15455610 -0.08590570 -15.70563030 0.25098039 0.27450980 0.65882353
v -0.15405822 -0.08462003 -15.70414066 0.25098039 0.27450980 0.65882353
v -0.14774860 -0.06546587 -15.70938015 0.25098039 0.27450980 0.65882353
v -0.15160699 -0.06470051 -15.71090126 0.25098039 0.27450980 0.65882353
v -0.15172166 -0.06723039 -15.71170330 0.25098039 0.27450980 0.65882353
v -0.15082386 -0.07429360 -15.71312332 0.25098039 0.27450980 0.65882353
v -0.15589043 -0.06787075 -15.71148968 0.25098039 0.27450980 0.65882353
v -0.15845236 -0.06936108 -15.70916557 0.25098039 0.27450980 0.65882353
v -0.15742749 -0.07633395 -15.71020985 0.25098039 0.27450980 0.65882353
v -0.15502404 -0.07538600 -15.71247292 0.25098039 0.27450980 0.65882353
v -0.15561840 -0.08255379 -15.71046257 0.25098039 0.27450980 0.65882353
v -0.15356810 -0.08121583 -15.71241283 0.25098039 0.27450980 0.65882353
v -0.15048416 -0.08037302 -15.71297741 0.25098039 0.27450980 0.65882353
v -0.15310211 -0.08541517 -15.70962334 0.25098039 0.27450980 0.65882353
v -0.15396753 -0.08620776 -15.70798588 0.25098039 0.27450980 0.65882353
v -0.15083426 -0.08583999 -15.70927811 0.25098039 0.27450980 0.65882353
v -0.15220360 -0.08421129 -15.71109962 0.25098039 0.27450980 0.65882353
v -0.15057388 -0.08396547 -15.71105289 0.25098039 0.27450980 0.65882353
v -0.16188726 -0.02453398 -15.70983791 0.25098039 0.27450980 0.65882353
v -0.07615224 0.00992730 -15.76625252 0.25098039 0.27450980 0.65882353
v -0.07915691 0.00683177 -15.76231575 0.25098039 0.27450980 0.65882353
v -0.09007454 -0.00136675 -15.77156162 0.25098039 0.27450980 0.65882353
v -0.08740026 -0.00099086 -15.76510143 0.25098039 0.27450980 0.65882353
v -0.08919801 0.00041030 -15.77781773 0.25098039 0.27450980 0.65882353
v -0.08280867 0.00834211 -15.78100491 0.25098039 0.27450980 0.65882353
v -0.08714214 0.00489930 -15.78073215 0.25098039 0.27450980 0.65882353
v -0.08339955 0.00212852 -15.76190186 0.25098039 0.27450980 0.65882353
v -0.07532948 0.01222396 -15.77148628 0.25098039 0.27450980 0.65882353
v -0.07812664 0.01204972 -15.77787495 0.25098039 0.27450980 0.65882353
v -0.06999861 0.00624133 -15.77232456 0.25098039 0.27450980 0.65882353
v -0.07280205 0.00554587 -15.77927494 0.25098039 0.27450980 0.65882353
v -0.07728398 0.00160854 -15.78291416 0.25098039 0.27450980 0.65882353
v -0.08287543 -0.00159429 -15.78216743 0.25098039 0.27450980 0.65882353
v -0.08580650 -0.00438305 -15.77953529 0.25098039 0.27450980 0.65882353
v -0.07297628 0.00416473 -15.76635933 0.25098039 0.27450980 0.65882353
v -0.07651882 0.00117647 -15.76279926 0.25098039 0.27450980 0.65882353
v -0.08197093 -0.00250166 -15.76295567 0.25098039 0.27450980 0.65882353
v -0.07001507 -0.00353424 -15.76548004 0.25098039 0.27450980 0.65882353
v -0.06502737 -0.01076307 -15.77084255 0.25098039 0.27450980 0.65882353
v -0.06678355 -0.02504924 -15.78259373 0.25098039 0.27450980 0.65882353
v -0.07066274 -0.01949522 -15.78288460 0.25098039 0.27450980 0.65882353
v -0.06792122 -0.01882406 -15.78199482 0.25098039 0.27450980 0.65882353
v -0.06437470 -0.02367669 -15.78241920 0.25098039 0.27450980 0.65882353
v -0.07102937 -0.01406933 -15.78244209 0.25098039 0.27450980 0.65882353
v -0.06913102 -0.01497025 -15.78110981 0.25098039 0.27450980 0.65882353
v -0.06667182 -0.01246503 -15.77730751 0.25098039 0.27450980 0.65882353
v -0.06326009 -0.01673337 -15.77804756 0.25098039 0.27450980 0.65882353
v -0.06481950 -0.01289714 -15.77271271 0.25098039 0.27450980 0.65882353
v -0.06297103 -0.01625760 -15.77178097 0.25098039 0.27450980 0.65882353
v -0.06030825 -0.02123329 -15.77820492 0.25098039 0.27450980 0.65882353
v -0.06082931 -0.02578730 -15.78173447 0.25098039 0.27450980 0.65882353
v -0.05802761 -0.02543799 -15.77818108 0.25098039 0.27450980 0.65882353
v -0.06276298 -0.02825244 -15.78100014 0.25098039 0.27450980 0.65882353
v -0.06561539 -0.01054906 -15.77822781 0.25098039 0.27450980 0.65882353
v -0.07766041 -0.01083061 -15.78310490 0.25098039 0.27450980 0.65882353
v -0.07468341 -0.01932283 -15.78223801 0.25098039 0.27450980 0.65882353
v -0.07024987 -0.02592676 -15.78100014 0.25098039 0.27450980 0.65882353
v -0.06520963 -0.02940061 -15.77906036 0.25098039 0.27450980 0.65882353
v -0.07818180 -0.01979521 -15.77917385 0.25098039 0.27450980 0.65882353
v -0.07338114 -0.02553434 -15.77752686 0.25098039 0.27450980 0.65882353
v -0.06870568 -0.02838586 -15.77516747 0.25098039 0.27450980 0.65882353
v -0.07958874 -0.01981934 -15.77454853 0.25098039 0.27450980 0.65882353
v -0.07437618 -0.02476162 -15.77368927 0.25098039 0.27450980 0.65882353
v -0.08562046 -0.00826485 -15.77425575 0.25098039 0.27450980 0.65882353
v -0.08331200 -0.00935312 -15.78013992 0.25098039 0.27450980 0.65882353
v -0.07044931 -0.02695447 -15.77319145 0.25098039 0.27450980 0.65882353
v -0.05785681 -0.02794775 -15.77716160 0.25098039 0.27450980 0.65882353
v -0.06087628 -0.02923559 -15.77471542 0.25098039 0.27450980 0.65882353
v -0.06372333 -0.01542265 -15.76830006 0.25098039 0.27450980 0.65882353
v -0.05943628 -0.02018103 -15.77198982 0.25098039 0.27450980 0.65882353
v -0.06081335 -0.02069591 -15.76897144 0.25098039 0.27450980 0.65882353
v -0.06629673 -0.01447957 -15.76506805 0.25098039 0.27450980 0.65882353
v -0.06263222 -0.02130449 -15.76649094 0.25098039 0.27450980 0.65882353
v -0.05811115 -0.02497902 -15.77176952 0.25098039 0.27450980 0.65882353
v -0.05772968 -0.02327332 -15.77416325 0.25098039 0.27450980 0.65882353
v -0.08764939 -0.00494226 -15.77369595 0.25098039 0.27450980 0.65882353
v -0.08625054 -0.00395253 -15.76727962 0.25098039 0.27450980 0.65882353
v -0.08401084 -0.00690025 -15.76776886 0.25098039 0.27450980 0.65882353
v -0.07846703 -0.01785615 -15.76852703 0.25098039 0.27450980 0.65882353
v -0.07985832 -0.00626734 -15.76330948 0.25098039 0.27450980 0.65882353
v -0.07402536 -0.00470717 -15.76305676 0.25098039 0.27450980 0.65882353
v -0.06981212 -0.01518780 -15.76334000 0.25098039 0.27450980 0.65882353
v -0.07453220 -0.01634732 -15.76420116 0.25098039 0.27450980 0.65882353
v -0.06627510 -0.02221083 -15.76562119 0.25098039 0.27450980 0.65882353
v -0.06934874 -0.02277326 -15.76633549 0.25098039 0.27450980 0.65882353
v -0.07289451 -0.02428391 -15.76955986 0.25098039 0.27450980 0.65882353
v -0.06430128 -0.02610378 -15.76860809 0.25098039 0.27450980 0.65882353
v -0.06059429 -0.02587145 -15.76943111 0.25098039 0.27450980 0.65882353
v -0.06511886 -0.02847665 -15.77213001 0.25098039 0.27450980 0.65882353
v -0.06724399 -0.02532896 -15.76846218 0.25098039 0.27450980 0.65882353
v -0.06845658 -0.02672138 -15.77086067 0.25098039 0.27450980 0.65882353
v -0.15756378 -0.01919026 -15.72026443 0.25098039 0.27450980 0.65882353
v -0.15112250 -0.01992875 -15.72164059 0.25098039 0.27450980 0.65882353
v -0.15502490 -0.01526995 -15.72460461 0.25098039 0.27450980 0.65882353
v -0.15881133 -0.00728395 -15.72867107 0.25098039 0.27450980 0.65882353
v -0.16689491 0.00025909 -15.73005772 0.25098039 0.27450980 0.65882353
v -0.15229127 -0.00601933 -15.72980309 0.25098039 0.27450980 0.65882353
v -0.14876354 -0.01410628 -15.72513199 0.25098039 0.27450980 0.65882353
v -0.14366478 -0.02117071 -15.71999645 0.25098039 0.27450980 0.65882353
v -0.14838383 0.00261397 -15.73381233 0.25098039 0.27450980 0.65882353
f 2 3 1
f 1 3 4
f 5 6 8
f 8 6 7
f 9 4 10
f 10 4 3
f 12 13 11
f 11 13 9
f 14 12 16
f 16 12 15
f 18 19 17
f 17 19 20
f 22 23 21
f 21 23 24
f 26 27 25
f 25 27 28
f 30 31 29
f 29 31 32
f 33 34 36
f 36 34 35
f 37 38 40
f 40 38 39
f 41 42 6
f 6 42 43
f 6 43 7
f 7 43 44
f 45 34 46
f 46 34 33
f 48 49 47
f 47 49 50
f 52 53 51
f 51 53 54
f 56 52 55
f 55 52 51
f 58 59 57
f 57 59 60
f 61 62 4
f 4 62 1
f 64 65 63
f 63 65 66
f 68 69 67
f 67 69 70
f 72 73 71
f 71 73 74
f 76 77 75
f 75 77 78
f 53 79 54
f 54 79 80
f 82 83 81
f 81 83 84
f 85 86 52
f 52 86 53
f 57 60 87
f 87 60 88
f 89 90 43
f 43 90 44
f 43 42 89
f 89 42 91
f 40 39 92
f 92 39 93
f 94 70 64
f 64 70 69
f 13 61 9
f 9 61 4
f 25 28 69
f 69 28 95
f 96 25 68
f 68 25 69
f 98 99 97
f 97 99 100
f 101 102 104
f 104 102 103
f 106 30 105
f 105 30 29
f 51 54 107
f 107 54 108
f 54 80 108
f 108 80 109
f 111 112 110
f 110 112 113
f 115 5 114
f 114 5 116
f 115 41 5
f 5 41 6
f 36 35 111
f 111 35 117
f 35 118 117
f 117 118 119
f 34 120 35
f 35 120 118
f 34 45 120
f 120 45 121
f 125 126 124
f 124 126 127
f 128 129 14
f 14 129 130
f 33 131 46
f 46 131 132
f 133 94 63
f 63 94 64
f 134 135 137
f 137 135 136
f 139 140 138
f 138 140 141
f 77 142 78
f 78 142 143
f 144 145 20
f 20 145 146
f 148 149 147
f 147 149 72
f 151 152 150
f 150 152 153
f 82 101 83
f 83 101 104
f 101 82 155
f 155 82 154
f 156 157 58
f 58 157 59
f 158 68 147
f 147 68 67
f 159 146 15
f 15 146 16
f 68 158 96
f 96 158 160
f 129 66 130
f 130 66 65
f 162 163 161
f 161 163 164
f 166 167 165
f 165 167 168
f 170 171 169
f 169 171 172
f 174 171 173
f 173 171 170
f 176 177 175
f 175 177 178
f 180 181 179
f 179 181 24
f 182 183 21
f 21 183 184
f 81 185 82
f 82 185 154
f 186 187 188
f 188 187 144
f 158 71 160
f 160 71 189
f 190 135 157
f 157 135 59
f 169 172 139
f 139 172 140
f 147 72 158
f 158 72 71
f 192 193 191
f 191 193 194
f 167 166 49
f 49 166 195
f 196 190 50
f 50 190 157
f 197 198 200
f 200 198 199
f 21 24 182
f 182 24 181
f 146 159 20
f 20 159 17
f 182 181 81
f 81 181 185
f 201 185 180
f 180 185 181
f 202 203 83
f 83 203 84
f 205 206 204
f 204 206 85
f 207 22 184
f 184 22 21
f 179 24 208
f 208 24 23
f 208 209 179
f 179 209 205
f 209 210 205
f 205 210 206
f 212 206 211
f 211 206 210
f 179 205 180
f 180 205 204
f 213 176 88
f 88 176 214
f 86 85 212
f 212 85 206
f 193 217 218
f 217 219 218
f 218 219 220
f 219 18 220
f 220 18 17
f 19 221 20
f 20 221 144
f 222 223 225
f 225 223 224
f 175 226 176
f 176 226 214
f 227 87 214
f 214 87 88
f 220 17 228
f 228 17 159
f 134 213 60
f 60 213 88
f 138 229 151
f 151 229 152
f 193 192 210
f 210 192 211
f 230 194 218
f 218 194 193
f 231 232 228
f 228 232 230
f 233 234 91
f 91 234 89
f 235 236 93
f 93 236 92
f 230 232 234
f 234 232 237
f 47 238 48
f 48 238 239
f 240 191 235
f 235 191 236
f 5 8 116
f 116 8 241
f 242 243 189
f 189 243 160
f 244 245 98
f 98 245 99
f 156 246 47
f 47 246 238
f 76 247 77
f 77 247 248
f 250 125 249
f 249 125 124
f 252 253 251
f 251 253 254
f 111 110 36
f 36 110 255
f 256 33 255
f 255 33 36
f 257 258 154
f 154 258 155
f 63 169 133
f 133 169 139
f 66 170 63
f 63 170 169
f 173 170 129
f 129 170 66
f 129 128 173
f 173 128 259
f 128 260 259
f 259 260 261
f 213 134 262
f 262 134 137
f 263 264 186
f 186 264 187
f 112 265 113
f 113 265 266
f 11 267 268
f 234 233 230
f 230 233 194
f 153 269 70
f 70 269 67
f 175 178 165
f 165 178 141
f 150 153 94
f 94 153 70
f 271 221 270
f 270 221 207
f 269 153 272
f 272 153 152
f 121 45 109
f 109 45 108
f 47 50 156
f 156 50 157
f 57 273 58
f 58 273 274
f 145 275 260
f 260 275 261
f 276 149 143
f 143 149 78
f 148 269 75
f 75 269 272
f 207 277 270
f 270 277 278
f 195 196 49
f 49 196 50
f 59 135 60
f 60 135 134
f 83 104 202
f 202 104 279
f 149 148 78
f 78 148 75
f 247 278 248
f 248 278 277
f 183 182 84
f 84 182 81
f 48 239 281
f 281 239 282
f 227 223 283
f 283 223 222
f 223 226 224
f 224 226 168
f 281 282 224
f 224 282 225
f 165 168 175
f 175 168 226
f 264 263 138
f 138 263 229
f 14 16 128
f 128 16 260
f 220 228 218
f 218 228 230
f 87 227 284
f 284 227 283
f 260 16 145
f 145 16 146
f 244 98 258
f 258 98 155
f 58 274 156
f 156 274 246
f 107 285 51
f 51 285 55
f 243 286 160
f 160 286 96
f 234 237 89
f 89 237 90
f 46 132 107
f 107 132 285
f 253 252 249
f 249 252 250
f 286 26 96
f 96 26 25
f 106 105 287
f 287 105 288
f 272 152 289
f 289 152 229
f 138 151 139
f 139 151 133
f 183 290 161
f 161 290 162
f 291 292 277
f 277 292 293
f 151 150 133
f 133 150 94
f 262 275 177
f 177 275 187
f 144 187 145
f 145 187 275
f 273 57 284
f 284 57 87
f 174 136 190
f 190 136 135
f 111 117 112
f 112 117 38
f 117 119 38
f 38 119 123
f 112 38 265
f 265 38 37
f 287 288 254
f 254 288 251
f 228 159 231
f 231 159 15
f 223 227 226
f 226 227 214
f 147 67 148
f 148 67 269
f 224 168 281
f 281 168 167
f 199 163 200
f 200 163 162
f 45 46 108
f 108 46 107
f 281 167 48
f 48 167 49
f 161 164 291
f 291 164 292
f 38 123 39
f 293 294 277
f 277 294 248
f 284 283 296
f 296 283 295
f 284 296 273
f 273 296 297
f 274 273 298
f 298 273 297
f 246 274 299
f 299 274 298
f 283 222 295
f 295 222 300
f 222 225 300
f 300 225 301
f 301 225 302
f 302 225 282
f 303 304 300
f 300 304 295
f 306 307 305
f 305 307 308
f 309 310 308
f 308 310 305
f 308 307 312
f 312 307 311
f 313 314 312
f 312 314 315
f 311 316 312
f 312 316 313
f 317 304 311
f 311 304 316
f 315 309 312
f 312 309 308
f 318 319 321
f 321 319 320
f 319 318 309
f 309 318 310
f 311 307 317
f 317 307 306
f 306 297 317
f 317 297 296
f 306 322 297
f 297 322 298
f 305 323 306
f 306 323 322
f 323 305 324
f 324 305 310
f 304 317 295
f 295 317 296
f 318 325 310
f 310 325 324
f 323 324 326
f 326 324 327
f 324 325 327
f 327 325 328
f 326 327 329
f 329 327 330
f 329 331 326
f 326 331 332
f 333 330 328
f 328 330 327
f 323 326 322
f 322 326 332
f 322 332 298
f 298 332 299
f 325 318 334
f 334 318 321
f 313 316 335
f 335 316 304
f 335 336 313
f 313 336 314
f 304 303 335
f 335 303 337
f 336 335 338
f 338 335 337
f 336 339 314
f 314 339 340
f 246 299 238
f 238 299 341
f 239 342 282
f 282 342 302
f 342 239 341
f 341 239 238
f 341 331 342
f 342 331 343
f 331 329 343
f 343 329 344
f 342 343 302
f 302 343 345
f 341 299 331
f 331 299 332
f 346 301 345
f 345 301 302
f 346 303 301
f 301 303 300
f 347 337 346
f 346 337 303
f 347 346 348
f 348 346 345
f 349 347 350
f 350 347 348
f 343 344 345
f 345 344 348
f 344 351 348
f 348 351 350
f 337 347 338
f 338 347 349
f 353 338 352
f 352 338 349
f 352 355 354
f 354 355 356
f 352 349 355
f 355 349 350
f 352 354 353
f 353 354 334
f 353 334 339
f 339 334 321
f 339 336 353
f 353 336 338
f 329 330 344
f 344 330 351
f 356 351 333
f 333 351 330
f 356 355 351
f 351 355 350
f 354 356 328
f 328 356 333
f 328 325 354
f 354 325 334
f 309 315 319
f 319 315 320
f 320 340 321
f 321 340 339
f 320 315 340
f 340 315 314
f 137 136 261
f 261 136 259
f 140 166 141
f 141 166 165
f 172 171 195
f 195 171 196
f 171 174 196
f 196 174 190
f 178 177 264
f 264 177 187
f 172 195 140
f 140 195 166
f 137 261 262
f 262 261 275
f 178 264 141
f 141 264 138
f 262 177 213
f 213 177 176
f 136 174 259
f 259 174 173
f 358 359 357
f 357 359 360
f 362 363 361
f 361 363 364
f 361 364 365
f 365 364 366
f 367 368 370
f 370 368 369
f 76 371 247
f 247 371 372
f 373 374 362
f 362 374 363
f 376 377 375
f 375 377 378
f 289 229 380
f 380 229 379
f 381 379 263
f 263 379 229
f 383 384 382
f 382 384 385
f 386 368 374
f 374 368 363
f 76 289 371
f 371 289 380
f 377 376 359
f 359 376 387
f 388 386 360
f 360 386 374
f 389 383 366
f 366 383 390
f 392 393 391
f 391 393 394
f 383 382 390
f 390 382 395
f 396 365 390
f 390 365 366
f 389 366 367
f 367 366 364
f 357 397 358
f 358 397 398
f 373 399 357
f 357 399 397
f 389 367 400
f 400 367 370
f 382 385 375
f 375 385 372
f 357 360 373
f 373 360 374
f 361 401 362
f 362 401 402
f 387 388 359
f 359 388 360
f 363 368 364
f 364 368 367
f 358 398 403
f 403 398 404
f 396 392 405
f 405 392 391
f 392 395 393
f 393 395 378
f 393 403 394
f 394 403 404
f 375 378 382
f 382 378 395
f 365 396 406
f 406 396 405
f 362 402 373
f 373 402 399
f 271 270 400
f 400 270 384
f 401 361 406
f 406 361 365
f 381 369 386
f 386 369 368
f 392 396 395
f 395 396 390
f 393 378 403
f 403 378 377
f 403 377 358
f 358 377 359
f 406 405 408
f 408 405 407
f 406 408 401
f 401 408 409
f 401 409 402
f 402 409 410
f 402 410 399
f 399 410 411
f 405 391 407
f 407 391 412
f 391 394 412
f 412 394 413
f 394 404 413
f 413 404 414
f 415 416 412
f 412 416 407
f 418 419 417
f 417 419 420
f 421 422 418
f 418 422 419
f 419 422 424
f 424 422 423
f 425 426 424
f 424 426 427
f 423 428 424
f 424 428 425
f 427 420 424
f 424 420 419
f 420 429 417
f 417 429 430
f 423 422 431
f 431 422 421
f 421 409 431
f 431 409 408
f 421 432 409
f 409 432 410
f 418 433 421
f 421 433 432
f 434 433 417
f 417 433 418
f 431 416 423
f 423 416 428
f 416 431 407
f 407 431 408
f 435 434 430
f 430 434 417
f 433 434 436
f 436 434 437
f 434 435 437
f 437 435 438
f 436 437 439
f 439 437 440
f 439 441 436
f 436 441 442
f 438 443 437
f 437 443 440
f 436 442 433
f 433 442 432
f 432 442 410
f 410 442 411
f 435 430 445
f 445 430 444
f 430 429 444
f 444 429 446
f 425 428 447
f 447 428 416
f 426 425 448
f 448 425 447
f 416 415 447
f 447 415 449
f 447 449 448
f 448 449 450
f 451 452 448
f 448 452 426
f 446 452 444
f 444 452 451
f 399 411 397
f 397 411 453
f 398 454 404
f 404 454 414
f 454 398 453
f 453 398 397
f 453 441 454
f 454 441 455
f 441 439 455
f 455 439 456
f 454 455 414
f 414 455 457
f 441 453 442
f 442 453 411
f 458 413 457
f 457 413 414
f 458 415 413
f 413 415 412
f 458 459 415
f 415 459 449
f 459 458 460
f 460 458 457
f 461 459 462
f 462 459 460
f 455 456 457
f 457 456 460
f 456 463 460
f 460 463 462
f 459 461 449
f 449 461 450
f 465 450 464
f 464 450 461
f 464 467 466
f 466 467 468
f 464 461 467
f 467 461 462
f 464 466 465
f 465 466 445
f 465 445 451
f 451 445 444
f 451 448 465
f 465 448 450
f 439 440 456
f 456 440 463
f 468 463 443
f 443 463 440
f 468 467 463
f 463 467 462
f 466 468 438
f 438 468 443
f 438 435 466
f 466 435 445
f 420 427 429
f 429 427 446
f 446 427 452
f 452 427 426
f 370 369 188
f 188 369 186
f 371 376 372
f 372 376 375
f 380 379 387
f 387 379 388
f 379 381 388
f 388 381 386
f 385 384 278
f 278 384 270
f 380 387 371
f 371 387 376
f 400 370 271
f 271 370 188
f 385 278 372
f 372 278 247
f 400 384 389
f 389 384 383
f 369 381 186
f 186 381 263
f 221 271 144
f 144 271 188
f 221 19 207
f 207 19 22
f 19 18 22
f 22 18 23
f 18 219 23
f 23 219 208
f 469 470 472
f 472 470 471
f 474 475 473
f 473 475 476
f 473 476 477
f 477 476 478
f 480 481 479
f 479 481 482
f 483 484 474
f 474 484 475
f 486 487 485
f 485 487 488
f 489 490 77
f 77 490 142
f 491 489 248
f 248 489 77
f 493 494 492
f 492 494 495
f 496 480 484
f 484 480 475
f 486 497 487
f 487 497 471
f 498 496 472
f 472 496 484
f 499 493 478
f 478 493 500
f 501 502 504
f 504 502 503
f 493 492 500
f 500 492 505
f 506 477 500
f 500 477 478
f 499 478 479
f 479 478 476
f 469 507 470
f 470 507 508
f 483 509 469
f 469 509 507
f 479 482 499
f 499 482 510
f 492 495 485
f 485 495 511
f 483 469 484
f 484 469 472
f 473 512 474
f 474 512 513
f 497 498 471
f 471 498 472
f 475 480 476
f 476 480 479
f 470 508 514
f 514 508 515
f 506 502 516
f 516 502 501
f 503 502 488
f 488 502 505
f 514 515 503
f 503 515 504
f 485 488 492
f 492 488 505
f 477 506 517
f 517 506 516
f 474 513 483
f 483 513 509
f 510 292 494
f 494 292 164
f 512 473 517
f 517 473 477
f 491 481 496
f 496 481 480
f 502 506 505
f 505 506 500
f 503 488 514
f 514 488 487
f 514 487 470
f 470 487 471
f 517 516 519
f 519 516 518
f 517 519 512
f 512 519 520
f 512 520 513
f 513 520 521
f 513 521 509
f 509 521 522
f 516 501 518
f 518 501 523
f 501 504 523
f 523 504 524
f 524 504 525
f 525 504 515
f 526 527 523
f 523 527 518
f 529 530 528
f 528 530 531
f 532 533 529
f 529 533 530
f 530 533 535
f 535 533 534
f 536 537 535
f 535 537 538
f 534 539 535
f 535 539 536
f 538 531 535
f 535 531 530
f 540 541 531
f 531 541 528
f 533 532 534
f 534 532 542
f 532 520 542
f 542 520 519
f 532 543 520
f 520 543 521
f 529 544 532
f 532 544 543
f 544 529 545
f 545 529 528
f 534 542 539
f 539 542 527
f 527 542 518
f 518 542 519
f 541 546 528
f 528 546 545
f 547 544 548
f 548 544 545
f 546 549 545
f 545 549 548
f 550 547 551
f 551 547 548
f 547 550 553
f 553 550 552
f 549 554 548
f 548 554 551
f 544 547 543
f 543 547 553
f 543 553 521
f 521 553 522
f 546 541 556
f 556 541 555
f 541 540 555
f 555 540 557
f 536 539 558
f 558 539 527
f 537 536 559
f 559 536 558
f 527 526 558
f 558 526 560
f 559 558 561
f 561 558 560
f 559 562 537
f 537 562 563
f 557 563 555
f 555 563 562
f 509 522 507
f 507 522 564
f 508 565 515
f 515 565 525
f 565 508 564
f 564 508 507
f 564 552 565
f 565 552 566
f 552 550 566
f 566 550 567
f 565 566 525
f 525 566 568
f 564 522 552
f 552 522 553
f 569 524 568
f 568 524 525
f 569 526 524
f 524 526 523
f 570 560 569
f 569 560 526
f 570 569 571
f 571 569 568
f 572 570 573
f 573 570 571
f 566 567 568
f 568 567 571
f 567 574 571
f 571 574 573
f 570 572 560
f 560 572 561
f 576 561 575
f 575 561 572
f 575 578 577
f 577 578 579
f 575 572 578
f 578 572 573
f 575 577 576
f 576 577 556
f 576 556 562
f 562 556 555
f 562 559 576
f 576 559 561
f 550 551 567
f 567 551 574
f 579 574 554
f 554 574 551
f 579 578 574
f 574 578 573
f 579 554 577
f 577 554 549
f 549 546 577
f 577 546 556
f 531 538 540
f 540 538 557
f 557 538 563
f 563 538 537
f 481 294 482
f 482 294 293
f 580 486 511
f 511 486 485
f 490 489 497
f 497 489 498
f 489 491 498
f 498 491 496
f 163 495 164
f 164 495 494
f 580 490 486
f 486 490 497
f 482 293 510
f 510 293 292
f 495 163 511
f 511 163 199
f 494 493 510
f 510 493 499
f 481 491 294
f 294 491 248
f 582 583 581
f 581 583 584
f 586 587 585
f 585 587 588
f 585 588 589
f 589 588 590
f 592 593 591
f 591 593 594
f 595 596 598
f 598 596 597
f 599 600 586
f 586 600 587
f 601 602 604
f 604 602 603
f 605 606 608
f 608 606 607
f 609 607 200
f 200 607 606
f 610 611 613
f 613 611 612
f 600 614 587
f 587 614 592
f 596 605 597
f 597 605 608
f 602 615 603
f 603 615 583
f 616 614 584
f 584 614 600
f 611 618 617
f 617 618 590
f 620 621 619
f 619 621 622
f 610 623 611
f 611 623 618
f 624 589 618
f 618 589 590
f 617 590 591
f 591 590 588
f 581 625 582
f 582 625 626
f 599 627 581
f 581 627 625
f 591 594 617
f 617 594 628
f 601 610 598
f 598 610 613
f 581 584 599
f 599 584 600
f 585 629 586
f 586 629 630
f 615 616 583
f 583 616 584
f 587 592 588
f 588 592 591
f 582 626 631
f 631 626 632
f 624 620 633
f 633 620 619
f 621 620 604
f 604 620 623
f 631 632 621
f 621 632 622
f 610 601 623
f 623 601 604
f 589 624 634
f 634 624 633
f 586 630 599
f 599 630 627
f 203 202 628
f 628 202 612
f 629 585 634
f 634 585 589
f 609 593 614
f 614 593 592
f 620 624 623
f 623 624 618
f 631 621 603
f 603 621 604
f 582 631 583
f 583 631 603
f 634 633 636
f 636 633 635
f 634 636 629
f 629 636 637
f 629 637 630
f 630 637 638
f 630 638 627
f 627 638 639
f 633 619 635
f 635 619 640
f 619 622 640
f 640 622 641
f 641 622 642
f 642 622 632
f 644 635 643
f 643 635 640
f 645 646 648
f 648 646 647
f 649 650 646
f 646 650 647
f 647 650 652
f 652 650 651
f 652 653 655
f 655 653 654
f 651 656 652
f 652 656 653
f 655 648 652
f 652 648 647
f 648 657 645
f 645 657 658
f 650 649 651
f 651 649 659
f 649 637 659
f 659 637 636
f 649 660 637
f 637 660 638
f 661 660 646
f 646 660 649
f 662 661 645
f 645 661 646
f 651 659 656
f 656 659 644
f 644 659 635
f 635 659 636
f 663 662 658
f 658 662 645
f 664 661 665
f 665 661 662
f 663 666 662
f 662 666 665
f 667 664 668
f 668 664 665
f 664 667 670
f 670 667 669
f 666 671 665
f 665 671 668
f 661 664 660
f 660 664 670
f 660 670 638
f 638 670 639
f 658 672 663
f 663 672 673
f 658 657 672
f 672 657 674
f 653 656 675
f 675 656 644
f 653 675 654
f 654 675 676
f 675 644 677
f 677 644 643
f 676 675 678
f 678 675 677
f 679 680 676
f 676 680 654
f 674 680 672
f 672 680 679
f 627 639 625
f 625 639 681
f 626 682 632
f 632 682 642
f 681 682 625
f 625 682 626
f 669 683 681
f 681 683 682
f 667 684 669
f 669 684 683
f 682 683 642
f 642 683 685
f 681 639 669
f 669 639 670
f 686 641 685
f 685 641 642
f 641 686 640
f 640 686 643
f 686 687 643
f 643 687 677
f 687 686 688
f 688 686 685
f 689 687 690
f 690 687 688
f 683 684 685
f 685 684 688
f 684 691 688
f 688 691 690
f 687 689 677
f 677 689 678
f 693 678 692
f 692 678 689
f 692 695 694
f 694 695 696
f 692 689 695
f 695 689 690
f 692 694 693
f 693 694 673
f 693 673 679
f 679 673 672
f 679 676 693
f 693 676 678
f 684 667 691
f 691 667 668
f 696 691 671
f 671 691 668
f 696 695 691
f 691 695 690
f 694 696 666
f 666 696 671
f 666 663 694
f 694 663 673
f 648 655 657
f 657 655 674
f 674 655 680
f 680 655 654
f 593 162 594
f 594 162 290
f 598 597 601
f 601 597 602
f 615 608 616
f 616 608 607
f 607 609 616
f 616 609 614
f 697 595 613
f 613 595 598
f 597 608 602
f 602 608 615
f 594 290 628
f 628 290 203
f 628 612 617
f 617 612 611
f 593 609 162
f 162 609 200
f 105 29 698
f 698 29 699
f 268 126 701
f 701 126 700
f 126 125 700
f 700 125 702
f 252 703 250
f 250 703 704
f 32 268 705
f 705 268 701
f 288 105 706
f 706 105 698
f 29 32 699
f 699 32 705
f 707 251 706
f 706 251 288
f 250 704 125
f 125 704 702
f 703 252 707
f 707 252 251
f 706 708 707
f 707 708 709
f 707 709 703
f 703 709 710
f 703 710 704
f 704 710 711
f 704 711 702
f 702 711 712
f 706 698 708
f 708 698 713
f 698 699 713
f 713 699 714
f 699 705 714
f 714 705 715
f 717 708 716
f 716 708 713
f 719 720 718
f 718 720 721
f 722 723 719
f 719 723 720
f 724 725 723
f 723 725 720
f 724 726 725
f 725 726 727
f 728 721 725
f 725 721 720
f 721 728 729
f 729 728 730
f 729 731 721
f 721 731 718
f 724 723 732
f 732 723 722
f 722 710 732
f 732 710 709
f 722 733 710
f 710 733 711
f 719 734 722
f 722 734 733
f 734 719 735
f 735 719 718
f 724 732 726
f 726 732 717
f 717 732 708
f 708 732 709
f 731 736 718
f 718 736 735
f 737 734 738
f 738 734 735
f 736 739 735
f 735 739 738
f 740 737 741
f 741 737 738
f 737 740 743
f 743 740 742
f 739 744 738
f 738 744 741
f 734 737 733
f 733 737 743
f 733 743 711
f 711 743 712
f 736 731 746
f 746 731 745
f 731 729 745
f 745 729 730
f 727 726 747
f 747 726 717
f 748 727 749
f 749 727 747
f 747 717 750
f 750 717 716
f 749 747 751
f 751 747 750
f 749 752 748
f 748 752 753
f 730 753 745
f 745 753 752
f 728 725 748
f 748 725 727
f 730 728 753
f 753 728 748
f 700 702 754
f 754 702 712
f 705 701 715
f 715 701 755
f 754 755 700
f 700 755 701
f 742 756 754
f 754 756 755
f 740 757 742
f 742 757 756
f 755 756 715
f 715 756 758
f 754 712 742
f 742 712 743
f 759 714 758
f 758 714 715
f 714 759 713
f 713 759 716
f 759 760 716
f 716 760 750
f 760 759 761
f 761 759 758
f 762 760 763
f 763 760 761
f 756 757 758
f 758 757 761
f 757 764 761
f 761 764 763
f 760 762 750
f 750 762 751
f 766 751 765
f 765 751 762
f 767 765 769
f 769 765 768
f 765 762 768
f 768 762 763
f 765 767 766
f 766 767 746
f 766 746 752
f 752 746 745
f 752 749 766
f 766 749 751
f 757 740 764
f 764 740 741
f 769 764 744
f 744 764 741
f 769 768 764
f 764 768 763
f 767 769 739
f 739 769 744
f 739 736 767
f 767 736 746
f 219 217 208
f 208 217 209
f 209 217 210
f 210 217 193
f 198 580 199
f 199 580 511
f 76 75 289
f 289 75 272
f 277 207 291
f 291 207 184
f 290 183 203
f 203 183 84
f 490 580 142
f 142 580 198
f 142 198 143
f 143 198 197
f 149 276 72
f 72 276 73
f 104 103 279
f 279 103 770
f 770 596 279
f 279 596 595
f 605 596 771
f 771 596 770
f 771 770 772
f 772 770 103
f 772 103 773
f 773 103 102
f 155 774 101
f 101 774 102
f 773 102 97
f 97 102 774
f 775 773 100
f 100 773 97
f 773 775 772
f 772 775 776
f 772 776 771
f 771 776 777
f 200 606 197
f 197 606 777
f 189 71 778
f 778 71 74
f 97 774 98
f 98 774 155
f 183 161 184
f 184 161 291
f 777 276 197
f 197 276 143
f 777 606 771
f 771 606 605
f 613 612 697
f 697 612 202
f 595 697 279
f 279 697 202
f 73 276 776
f 776 276 777
f 776 775 73
f 73 775 74
f 100 778 775
f 775 778 74
f 778 100 189
f 189 100 99
f 245 242 99
f 99 242 189
f 131 33 256
f 28 1 95
f 95 1 62
f 27 2 28
f 28 2 1
f 265 115 266
f 266 115 114
f 95 62 69
f 69 62 64
f 62 61 64
f 64 61 65
f 61 13 65
f 65 13 130
f 13 12 130
f 130 12 14
f 31 11 32
f 32 11 268
f 15 12 31
f 31 12 11
f 31 30 15
f 15 30 231
f 30 106 231
f 231 106 232
f 287 237 106
f 106 237 232
f 254 90 287
f 287 90 237
f 253 44 254
f 254 44 90
f 253 249 44
f 44 249 7
f 267 127 268
f 268 127 126
f 10 3 241
f 241 3 116
f 3 2 116
f 116 2 114
f 2 27 114
f 114 27 266
f 27 26 266
f 266 26 113
f 26 286 113
f 113 286 110
f 286 243 110
f 110 243 255
f 243 242 255
f 255 242 256
f 242 245 256
f 256 245 131
f 245 244 131
f 131 244 132
f 265 37 115
f 115 37 41
f 41 37 42
f 42 37 40
f 92 91 40
f 40 91 42
f 236 233 92
f 92 233 91
f 191 194 236
f 236 194 233
f 258 285 244
f 244 285 132
f 257 55 258
f 258 55 285
f 257 154 201
f 201 154 185
f 56 201 204
f 204 201 180
f 55 257 56
f 56 257 201
f 204 85 56
f 56 85 52
f 86 122 53
f 53 122 79
f 212 215 86
f 86 215 122
f 211 216 212
f 212 216 215
f 192 280 211
f 211 280 216
f 191 240 192
f 192 240 280
f 249 124 7
f 7 124 8
f 124 127 8
f 8 127 241
f 127 267 241
f 241 267 10
f 10 267 9
f 9 267 11
f 93 39 235
f 235 39 240
f 39 123 240
f 240 123 280
f 123 119 280
f 280 119 216
f 119 118 216
f 216 118 215
f 118 120 215
f 215 120 122
f 120 121 122
f 122 121 79
f 121 109 79
f 79 109 80

