# https://github.com/mikedh/trimesh
v -0.10772304 0.16148293 -13.87737274 0.25098039 0.27450980 0.65882353
v -0.11559268 0.16559304 -13.88264275 0.25098039 0.27450980 0.65882353
v -0.10879429 0.16115853 -13.89088535 0.25098039 0.27450980 0.65882353
v -0.10044028 0.15730833 -13.88357925 0.25098039 0.27450980 0.65882353
v -0.12560186 0.17364340 -13.90203953 0.25098039 0.27450980 0.65882353
v -0.12399804 0.18461177 -13.90840054 0.25098039 0.27450980 0.65882353
v -0.11372802 0.17443457 -13.91494656 0.25098039 0.27450980 0.65882353
v -0.11741471 0.16689578 -13.90930271 0.25098039 0.27450980 0.65882353
v -0.09382725 0.15594353 -13.88779545 0.25098039 0.27450980 0.65882353
v -0.10354720 0.15701666 -13.89670563 0.25098039 0.27450980 0.65882353
v -0.09007910 0.16025230 -13.89043427 0.25098039 0.27450980 0.65882353
v -0.07988694 0.16227785 -13.87708569 0.25098039 0.27450980 0.65882353
v -0.08519517 0.15765928 -13.87807560 0.25098039 0.27450980 0.65882353
v -0.07505824 0.16046230 -13.86864758 0.25098039 0.27450980 0.65882353
v -0.08028126 0.17218259 -13.87332249 0.25098039 0.27450980 0.65882353
v -0.07614988 0.16446194 -13.85979271 0.25098039 0.27450980 0.65882353
v -0.09913643 0.17677316 -13.84671211 0.25098039 0.27450980 0.65882353
v -0.11044076 0.17480306 -13.84021378 0.25098039 0.27450980 0.65882353
v -0.10245042 0.16274387 -13.83463383 0.25098039 0.27450980 0.65882353
v -0.09182848 0.16562279 -13.84238911 0.25098039 0.27450980 0.65882353
v -0.12218217 0.16046253 -13.83189011 0.25098039 0.27450980 0.65882353
v -0.11091381 0.16111749 -13.83273220 0.25098039 0.27450980 0.65882353
v -0.11864368 0.17399207 -13.83759403 0.25098039 0.27450980 0.65882353
v -0.12850744 0.17294320 -13.83647633 0.25098039 0.27450980 0.65882353
v -0.12213066 0.16524041 -13.86929893 0.25098039 0.27450980 0.65882353
v -0.12996536 0.17039660 -13.87323189 0.25098039 0.27450980 0.65882353
v -0.12436207 0.16955389 -13.87493896 0.25098039 0.27450980 0.65882353
v -0.11702326 0.16520295 -13.87179184 0.25098039 0.27450980 0.65882353
v -0.08768058 0.16552493 -13.90368176 0.25098039 0.27450980 0.65882353
v -0.08696611 0.17540710 -13.89401627 0.25098039 0.27450980 0.65882353
v -0.08613621 0.16810250 -13.89083862 0.25098039 0.27450980 0.65882353
v -0.09070289 0.16099897 -13.90290546 0.25098039 0.27450980 0.65882353
v -0.15403864 0.18275610 -13.88158894 0.25098039 0.27450980 0.65882353
v -0.15787536 0.19608298 -13.88225651 0.25098039 0.27450980 0.65882353
v -0.15296057 0.19798838 -13.88467121 0.25098039 0.27450980 0.65882353
v -0.15068716 0.18546577 -13.88310337 0.25098039 0.27450980 0.65882353
v -0.13640004 0.19598013 -13.89835835 0.25098039 0.27450980 0.65882353
v -0.13972490 0.20438106 -13.89422226 0.25098039 0.27450980 0.65882353
v -0.13193095 0.21632619 -13.89413548 0.25098039 0.27450980 0.65882353
v -0.12614375 0.20933929 -13.89714813 0.25098039 0.27450980 0.65882353
v -0.13053909 0.18917949 -13.90347576 0.25098039 0.27450980 0.65882353
v -0.12272341 0.20061925 -13.90384483 0.25098039 0.27450980 0.65882353
v -0.11699805 0.19389583 -13.90936565 0.25098039 0.27450980 0.65882353
v -0.10788080 0.18137385 -13.91676807 0.25098039 0.27450980 0.65882353
v -0.16704702 0.19342604 -13.87394333 0.25098039 0.27450980 0.65882353
v -0.16628063 0.18353923 -13.87234783 0.25098039 0.27450980 0.65882353
v -0.05120489 0.11977914 -13.86001682 0.25098039 0.27450980 0.65882353
v -0.05530241 0.11659493 -13.85744572 0.25098039 0.27450980 0.65882353
v -0.05726075 0.12028491 -13.85756397 0.25098039 0.27450980 0.65882353
v -0.05293199 0.12297100 -13.85970116 0.25098039 0.27450980 0.65882353
v -0.16739050 0.19233099 -13.85401249 0.25098039 0.27450980 0.65882353
v -0.16215584 0.19708693 -13.84667492 0.25098039 0.27450980 0.65882353
v -0.16662759 0.20134918 -13.84938812 0.25098039 0.27450980 0.65882353
v -0.17003077 0.19817187 -13.85720348 0.25098039 0.27450980 0.65882353
v -0.16348866 0.18458362 -13.84951401 0.25098039 0.27450980 0.65882353
v -0.15585543 0.19072419 -13.84338474 0.25098039 0.27450980 0.65882353
v -0.04211129 0.12110625 -13.85163212 0.25098039 0.27450980 0.65882353
v -0.04350297 0.12146009 -13.85649395 0.25098039 0.27450980 0.65882353
v -0.04505019 0.12593105 -13.85483932 0.25098039 0.27450980 0.65882353
v -0.04433048 0.12599376 -13.84956837 0.25098039 0.27450980 0.65882353
v -0.09239778 0.15592800 -13.87687111 0.25098039 0.27450980 0.65882353
v -0.10107148 0.15630589 -13.87344933 0.25098039 0.27450980 0.65882353
v -0.08157703 0.14357749 -13.86666107 0.25098039 0.27450980 0.65882353
v -0.08995105 0.14922917 -13.86822891 0.25098039 0.27450980 0.65882353
v -0.08479725 0.15287052 -13.87175751 0.25098039 0.27450980 0.65882353
v -0.07788935 0.14897132 -13.86897850 0.25098039 0.27450980 0.65882353
v -0.11111552 0.14802179 -13.85825253 0.25098039 0.27450980 0.65882353
v -0.11779755 0.15672755 -13.86284637 0.25098039 0.27450980 0.65882353
v -0.11156367 0.15746243 -13.86492729 0.25098039 0.27450980 0.65882353
v -0.10325435 0.14758509 -13.86149406 0.25098039 0.27450980 0.65882353
v -0.13046613 0.15249088 -13.85904694 0.25098039 0.27450980 0.65882353
v -0.12289715 0.14453861 -13.85478020 0.25098039 0.27450980 0.65882353
v -0.13119887 0.14318056 -13.85332775 0.25098039 0.27450980 0.65882353
v -0.13546990 0.14860798 -13.85724163 0.25098039 0.27450980 0.65882353
v -0.10660838 0.13177755 -13.84701443 0.25098039 0.27450980 0.65882353
v -0.10051966 0.12799713 -13.84145451 0.25098039 0.27450980 0.65882353
v -0.10282379 0.12696555 -13.83963680 0.25098039 0.27450980 0.65882353
v -0.10960694 0.13137761 -13.84575462 0.25098039 0.27450980 0.65882353
v -0.17019635 0.20647040 -13.85093021 0.25098039 0.27450980 0.65882353
v -0.17129079 0.20420438 -13.85982037 0.25098039 0.27450980 0.65882353
v -0.14196971 0.15604477 -13.83156109 0.25098039 0.27450980 0.65882353
v -0.15147553 0.15428105 -13.83670330 0.25098039 0.27450980 0.65882353
v -0.14744146 0.14303584 -13.83215332 0.25098039 0.27450980 0.65882353
v -0.13901499 0.14789619 -13.82809830 0.25098039 0.27450980 0.65882353
v -0.15327130 0.20111626 -13.84349728 0.25098039 0.27450980 0.65882353
v -0.15891095 0.20533389 -13.84445477 0.25098039 0.27450980 0.65882353
v -0.04363415 0.11897233 -13.84624577 0.25098039 0.27450980 0.65882353
v -0.04578747 0.12372646 -13.84425068 0.25098039 0.27450980 0.65882353
v -0.10887684 0.20073995 -13.90112782 0.25098039 0.27450980 0.65882353
v -0.10022968 0.18609041 -13.91236591 0.25098039 0.27450980 0.65882353
v -0.11606707 0.21012408 -13.89356899 0.25098039 0.27450980 0.65882353
v -0.12065355 0.21658753 -13.88817406 0.25098039 0.27450980 0.65882353
v -0.12484424 0.22278993 -13.88634109 0.25098039 0.27450980 0.65882353
v -0.09211043 0.14411491 -13.86376667 0.25098039 0.27450980 0.65882353
v -0.10926706 0.15970245 -13.87007904 0.25098039 0.27450980 0.65882353
v -0.12680143 0.16411684 -13.86720181 0.25098039 0.27450980 0.65882353
v -0.15304634 0.15192002 -13.85783195 0.25098039 0.27450980 0.65882353
v -0.15888126 0.16014610 -13.86205578 0.25098039 0.27450980 0.65882353
v -0.14851810 0.15933001 -13.86572838 0.25098039 0.27450980 0.65882353
v -0.14552574 0.15240940 -13.86074924 0.25098039 0.27450980 0.65882353
v -0.15511651 0.14872524 -13.84291458 0.25098039 0.27450980 0.65882353
v -0.15189065 0.14491938 -13.84874630 0.25098039 0.27450980 0.65882353
v -0.14725918 0.13761103 -13.84560966 0.25098039 0.27450980 0.65882353
v -0.15021402 0.14026344 -13.83945465 0.25098039 0.27450980 0.65882353
v -0.08603592 0.16979882 -13.90903378 0.25098039 0.27450980 0.65882353
v -0.08789133 0.18110916 -13.89739799 0.25098039 0.27450980 0.65882353
v -0.16949034 0.18814537 -13.86317348 0.25098039 0.27450980 0.65882353
v -0.17006706 0.19487321 -13.86677551 0.25098039 0.27450980 0.65882353
v -0.17092916 0.20347023 -13.86703396 0.25098039 0.27450980 0.65882353
v -0.14168012 0.17630425 -13.87823009 0.25098039 0.27450980 0.65882353
v -0.14851055 0.18726064 -13.88424683 0.25098039 0.27450980 0.65882353
v -0.14556772 0.18713178 -13.88661766 0.25098039 0.27450980 0.65882353
v -0.13889891 0.17618097 -13.87874794 0.25098039 0.27450980 0.65882353
v -0.12592389 0.16989015 -13.88796997 0.25098039 0.27450980 0.65882353
v -0.13396630 0.17929628 -13.89419174 0.25098039 0.27450980 0.65882353
v -0.11942974 0.16448785 -13.89651871 0.25098039 0.27450980 0.65882353
v -0.14762801 0.20183346 -13.88872337 0.25098039 0.27450980 0.65882353
v -0.15626729 0.20757213 -13.88646889 0.25098039 0.27450980 0.65882353
v -0.14921404 0.21105650 -13.89009476 0.25098039 0.27450980 0.65882353
v -0.16340065 0.20532468 -13.88056850 0.25098039 0.27450980 0.65882353
v -0.16828857 0.20354736 -13.87361050 0.25098039 0.27450980 0.65882353
v -0.16314527 0.21112251 -13.84276962 0.25098039 0.27450980 0.65882353
v -0.14189708 0.21421199 -13.89246464 0.25098039 0.27450980 0.65882353
v -0.11068685 0.16171910 -13.91354561 0.25098039 0.27450980 0.65882353
v -0.10478696 0.15662679 -13.91640282 0.25098039 0.27450980 0.65882353
v -0.10249473 0.15430015 -13.90977097 0.25098039 0.27450980 0.65882353
v -0.10795423 0.15808892 -13.90647602 0.25098039 0.27450980 0.65882353
v -0.06964457 0.15607545 -13.86190224 0.25098039 0.27450980 0.65882353
v -0.07292573 0.15207067 -13.86721706 0.25098039 0.27450980 0.65882353
v -0.07904077 0.15712379 -13.87333202 0.25098039 0.27450980 0.65882353
v -0.15275426 0.17347568 -13.87545776 0.25098039 0.27450980 0.65882353
v -0.16394578 0.17417848 -13.86782551 0.25098039 0.27450980 0.65882353
v -0.08275133 0.13880271 -13.86166191 0.25098039 0.27450980 0.65882353
v -0.04753688 0.13069029 -13.84931469 0.25098039 0.27450980 0.65882353
v -0.04808196 0.13063514 -13.85502243 0.25098039 0.27450980 0.65882353
v -0.06033765 0.14478928 -13.85833168 0.25098039 0.27450980 0.65882353
v -0.05946547 0.14514925 -13.85145092 0.25098039 0.27450980 0.65882353
v -0.07699634 0.13468480 -13.85170174 0.25098039 0.27450980 0.65882353
v -0.07827701 0.13548788 -13.85845184 0.25098039 0.27450980 0.65882353
v -0.07552050 0.13441940 -13.85621738 0.25098039 0.27450980 0.65882353
v -0.07469590 0.13125455 -13.85045624 0.25098039 0.27450980 0.65882353
v -0.11183538 0.12660976 -13.84043312 0.25098039 0.27450980 0.65882353
v -0.11772113 0.13076176 -13.84514999 0.25098039 0.27450980 0.65882353
v -0.08493204 0.15153794 -13.83923244 0.25098039 0.27450980 0.65882353
v -0.07600217 0.15953842 -13.84532642 0.25098039 0.27450980 0.65882353
v -0.08261563 0.16771612 -13.84974480 0.25098039 0.27450980 0.65882353
v -0.11813145 0.14689191 -13.85627365 0.25098039 0.27450980 0.65882353
v -0.11260857 0.13853887 -13.85190582 0.25098039 0.27450980 0.65882353
v -0.11620341 0.13756195 -13.85047054 0.25098039 0.27450980 0.65882353
v -0.09192742 0.14070822 -13.86001587 0.25098039 0.27450980 0.65882353
v -0.08467756 0.13612922 -13.85659504 0.25098039 0.27450980 0.65882353
v -0.09075265 0.13693111 -13.85534668 0.25098039 0.27450980 0.65882353
v -0.09705539 0.14140767 -13.85769939 0.25098039 0.27450980 0.65882353
v -0.15643433 0.16594730 -13.84011555 0.25098039 0.27450980 0.65882353
v -0.16103338 0.15953192 -13.84708977 0.25098039 0.27450980 0.65882353
v -0.04686189 0.12122320 -13.85961437 0.25098039 0.27450980 0.65882353
v -0.04839793 0.12511599 -13.85860920 0.25098039 0.27450980 0.65882353
v -0.12436758 0.15549648 -13.86044312 0.25098039 0.27450980 0.65882353
v -0.09008668 0.17699370 -13.85541630 0.25098039 0.27450980 0.65882353
v -0.13157840 0.16259058 -13.86573792 0.25098039 0.27450980 0.65882353
v -0.12260778 0.13925180 -13.82649422 0.25098039 0.27450980 0.65882353
v -0.12526788 0.13311185 -13.83085442 0.25098039 0.27450980 0.65882353
v -0.12072030 0.12896392 -13.82912254 0.25098039 0.27450980 0.65882353
v -0.11861341 0.13249590 -13.82414055 0.25098039 0.27450980 0.65882353
v -0.06388900 0.12030221 -13.84761906 0.25098039 0.27450980 0.65882353
v -0.06372903 0.12007745 -13.85329247 0.25098039 0.27450980 0.65882353
v -0.06009607 0.11754158 -13.85261917 0.25098039 0.27450980 0.65882353
v -0.05982499 0.11698803 -13.84688473 0.25098039 0.27450980 0.65882353
v -0.07645355 0.13865316 -13.86301517 0.25098039 0.27450980 0.65882353
v -0.07310137 0.14371702 -13.86575794 0.25098039 0.27450980 0.65882353
v -0.06938671 0.13866553 -13.86367130 0.25098039 0.27450980 0.65882353
v -0.07279439 0.13576543 -13.86006832 0.25098039 0.27450980 0.65882353
v -0.06804879 0.14715552 -13.86382103 0.25098039 0.27450980 0.65882353
v -0.06435886 0.14252037 -13.86295414 0.25098039 0.27450980 0.65882353
v -0.06045155 0.12267078 -13.84262657 0.25098039 0.27450980 0.65882353
v -0.05422512 0.12642059 -13.84089661 0.25098039 0.27450980 0.65882353
v -0.06642719 0.13872617 -13.84202766 0.25098039 0.27450980 0.65882353
v -0.07036659 0.13246183 -13.84455967 0.25098039 0.27450980 0.65882353
v -0.13373876 0.18569100 -13.84019089 0.25098039 0.27450980 0.65882353
v -0.14400783 0.18267015 -13.83867645 0.25098039 0.27450980 0.65882353
v -0.13863763 0.16979772 -13.83516598 0.25098039 0.27450980 0.65882353
v -0.13362932 0.15764698 -13.83101654 0.25098039 0.27450980 0.65882353
v -0.12825677 0.14552644 -13.82780457 0.25098039 0.27450980 0.65882353
v -0.11760861 0.14996564 -13.82674885 0.25098039 0.27450980 0.65882353
v -0.14634565 0.16845913 -13.83557320 0.25098039 0.27450980 0.65882353
v -0.08061986 0.13864142 -13.84390163 0.25098039 0.27450980 0.65882353
v -0.07558747 0.14667581 -13.84270573 0.25098039 0.27450980 0.65882353
v -0.08163083 0.14467815 -13.84030533 0.25098039 0.27450980 0.65882353
v -0.13818203 0.15960413 -13.86461449 0.25098039 0.27450980 0.65882353
v -0.05123889 0.12913267 -13.85948849 0.25098039 0.27450980 0.65882353
v -0.12111428 0.21772462 -13.86463928 0.25098039 0.27450980 0.65882353
v -0.12897167 0.21561992 -13.85397053 0.25098039 0.27450980 0.65882353
v -0.12493551 0.20898575 -13.85455418 0.25098039 0.27450980 0.65882353
v -0.11609995 0.21110648 -13.86685658 0.25098039 0.27450980 0.65882353
v -0.06098697 0.12242934 -13.85901070 0.25098039 0.27450980 0.65882353
v -0.05615538 0.12579215 -13.86179638 0.25098039 0.27450980 0.65882353
v -0.12281434 0.12810335 -13.84264851 0.25098039 0.27450980 0.65882353
v -0.11708851 0.12546271 -13.83856297 0.25098039 0.27450980 0.65882353
v -0.11871359 0.12507564 -13.83477020 0.25098039 0.27450980 0.65882353
v -0.12587856 0.12496339 -13.83934689 0.25098039 0.27450980 0.65882353
v -0.14975111 0.18215808 -13.83900452 0.25098039 0.27450980 0.65882353
v -0.14574981 0.13560894 -13.83105564 0.25098039 0.27450980 0.65882353
v -0.13833395 0.14025432 -13.82651424 0.25098039 0.27450980 0.65882353
v -0.14816335 0.19409320 -13.84179306 0.25098039 0.27450980 0.65882353
v -0.13913724 0.19677734 -13.84266186 0.25098039 0.27450980 0.65882353
v -0.14316525 0.20460016 -13.84389591 0.25098039 0.27450980 0.65882353
v -0.10221176 0.14711431 -13.82884598 0.25098039 0.27450980 0.65882353
v -0.12581825 0.18591014 -13.84179974 0.25098039 0.27450980 0.65882353
v -0.13218662 0.19707994 -13.84490395 0.25098039 0.27450980 0.65882353
v -0.13667968 0.20661986 -13.84628868 0.25098039 0.27450980 0.65882353
v -0.13959484 0.21355364 -13.84619808 0.25098039 0.27450980 0.65882353
v -0.14667769 0.21018401 -13.84419250 0.25098039 0.27450980 0.65882353
v -0.04971036 0.12838924 -13.84394836 0.25098039 0.27450980 0.65882353
v -0.05027491 0.12057520 -13.84058475 0.25098039 0.27450980 0.65882353
v -0.15029949 0.21658498 -13.84263039 0.25098039 0.27450980 0.65882353
v -0.14209497 0.21958664 -13.84548378 0.25098039 0.27450980 0.65882353
v -0.12404591 0.19789851 -13.84848595 0.25098039 0.27450980 0.65882353
v -0.11532482 0.19845647 -13.85405350 0.25098039 0.27450980 0.65882353
v -0.11806417 0.18730283 -13.84451103 0.25098039 0.27450980 0.65882353
v -0.10825302 0.18732831 -13.84969616 0.25098039 0.27450980 0.65882353
v -0.09455264 0.15374006 -13.83058643 0.25098039 0.27450980 0.65882353
v -0.04789288 0.10416653 -13.84624863 0.25098039 0.27450980 0.65882353
v -0.05327532 0.11338121 -13.84303665 0.25098039 0.27450980 0.65882353
v -0.05730385 0.11289886 -13.84708595 0.25098039 0.27450980 0.65882353
v -0.05186050 0.10341734 -13.84810829 0.25098039 0.27450980 0.65882353
v -0.05645095 0.11823352 -13.84243202 0.25098039 0.27450980 0.65882353
v -0.04808311 0.11610177 -13.84246635 0.25098039 0.27450980 0.65882353
v -0.09806125 0.18748319 -13.86091614 0.25098039 0.27450980 0.65882353
v -0.08463095 0.13338473 -13.85076046 0.25098039 0.27450980 0.65882353
v -0.10542186 0.19951171 -13.86917305 0.25098039 0.27450980 0.65882353
v -0.08691961 0.18279640 -13.87600803 0.25098039 0.27450980 0.65882353
v -0.09379952 0.19060144 -13.88369370 0.25098039 0.27450980 0.65882353
v -0.11206917 0.21219669 -13.87872887 0.25098039 0.27450980 0.65882353
v -0.10282958 0.20272081 -13.88844681 0.25098039 0.27450980 0.65882353
v -0.12276376 0.22408816 -13.87584019 0.25098039 0.27450980 0.65882353
v -0.11776832 0.21784167 -13.87601089 0.25098039 0.27450980 0.65882353
v -0.09543572 0.19214548 -13.89986515 0.25098039 0.27450980 0.65882353
v -0.04966594 0.10963209 -13.86118984 0.25098039 0.27450980 0.65882353
v -0.05372420 0.10735141 -13.85783291 0.25098039 0.27450980 0.65882353
v -0.12482551 0.22416371 -13.86428356 0.25098039 0.27450980 0.65882353
v -0.11276430 0.16091952 -13.90265179 0.25098039 0.27450980 0.65882353
v -0.14272138 0.16731624 -13.87047863 0.25098039 0.27450980 0.65882353
v -0.13741711 0.16862211 -13.87162399 0.25098039 0.27450980 0.65882353
v -0.16148180 0.16572651 -13.86391068 0.25098039 0.27450980 0.65882353
v -0.15011887 0.16609748 -13.86973190 0.25098039 0.27450980 0.65882353
v -0.04456812 0.11141190 -13.86158752 0.25098039 0.27450980 0.65882353
v -0.09684037 0.12760875 -13.83547306 0.25098039 0.27450980 0.65882353
v -0.09937267 0.12914856 -13.83526802 0.25098039 0.27450980 0.65882353
v -0.10834497 0.16743580 -13.91894913 0.25098039 0.27450980 0.65882353
v -0.10396396 0.16208665 -13.92134953 0.25098039 0.27450980 0.65882353
v -0.09292588 0.16869572 -13.92133236 0.25098039 0.27450980 0.65882353
v -0.09898274 0.16605324 -13.92360687 0.25098039 0.27450980 0.65882353
v -0.10272810 0.17337954 -13.92096424 0.25098039 0.27450980 0.65882353
v -0.09649174 0.17669354 -13.91850853 0.25098039 0.27450980 0.65882353
v -0.14359653 0.17540675 -13.87798882 0.25098039 0.27450980 0.65882353
v -0.14678225 0.17421840 -13.87702847 0.25098039 0.27450980 0.65882353
v -0.16040531 0.17587206 -13.84487629 0.25098039 0.27450980 0.65882353
v -0.16425095 0.16934465 -13.85238361 0.25098039 0.27450980 0.65882353
v -0.06527805 0.15025315 -13.85886574 0.25098039 0.27450980 0.65882353
v -0.07017678 0.15793267 -13.85360241 0.25098039 0.27450980 0.65882353
v -0.06520729 0.15114629 -13.85179710 0.25098039 0.27450980 0.65882353
v -0.06271762 0.14422947 -13.84520721 0.25098039 0.27450980 0.65882353
v -0.08054751 0.13385025 -13.84653759 0.25098039 0.27450980 0.65882353
v -0.07581632 0.13702452 -13.84663296 0.25098039 0.27450980 0.65882353
v -0.14033809 0.18248038 -13.89000797 0.25098039 0.27450980 0.65882353
v -0.13287532 0.17383604 -13.88119984 0.25098039 0.27450980 0.65882353
v -0.10081486 0.15704645 -13.90074444 0.25098039 0.27450980 0.65882353
v -0.09694891 0.15569203 -13.90424538 0.25098039 0.27450980 0.65882353
v -0.10476315 0.14158462 -13.85539246 0.25098039 0.27450980 0.65882353
v -0.09359801 0.13857672 -13.82800865 0.25098039 0.27450980 0.65882353
v -0.08772661 0.14386287 -13.82964802 0.25098039 0.27450980 0.65882353
v -0.09858914 0.13536692 -13.85146141 0.25098039 0.27450980 0.65882353
v -0.03864144 0.11056793 -13.85509205 0.25098039 0.27450980 0.65882353
v -0.04111728 0.11142616 -13.85955334 0.25098039 0.27450980 0.65882353
v -0.06888273 0.15076889 -13.84546185 0.25098039 0.27450980 0.65882353
v -0.12419543 0.13524777 -13.84975719 0.25098039 0.27450980 0.65882353
v -0.10245632 0.14042312 -13.82843971 0.25098039 0.27450980 0.65882353
v -0.09581150 0.13210553 -13.82970238 0.25098039 0.27450980 0.65882353
v -0.14720888 0.13520032 -13.83867550 0.25098039 0.27450980 0.65882353
v -0.13261692 0.22233596 -13.85433674 0.25098039 0.27450980 0.65882353
v -0.05820863 0.11343084 -13.85266399 0.25098039 0.27450980 0.65882353
v -0.05531184 0.10544844 -13.85329056 0.25098039 0.27450980 0.65882353
v -0.04415679 0.10632307 -13.84622097 0.25098039 0.27450980 0.65882353
v -0.04004969 0.10948285 -13.84923458 0.25098039 0.27450980 0.65882353
v -0.16661748 0.17776208 -13.85837841 0.25098039 0.27450980 0.65882353
v -0.13421184 0.16965228 -13.87175655 0.25098039 0.27450980 0.65882353
v -0.09129339 0.18142423 -13.90923977 0.25098039 0.27450980 0.65882353
v -0.08827575 0.17030039 -13.91595268 0.25098039 0.27450980 0.65882353
v -0.09442563 0.13136590 -13.84804821 0.25098039 0.27450980 0.65882353
v -0.12999529 0.13830151 -13.82818508 0.25098039 0.27450980 0.65882353
v -0.11418495 0.14207990 -13.82392216 0.25098039 0.27450980 0.65882353
v -0.11092634 0.13521551 -13.82085896 0.25098039 0.27450980 0.65882353
v -0.10364123 0.13390264 -13.82316780 0.25098039 0.27450980 0.65882353
v -0.09911492 0.13014480 -13.82807922 0.25098039 0.27450980 0.65882353
v -0.04324433 0.10098584 -13.84850216 0.25098039 0.27450980 0.65882353
v -0.03907569 0.10430251 -13.85130024 0.25098039 0.27450980 0.65882353
v -0.03772262 0.10586748 -13.85697460 0.25098039 0.27450980 0.65882353
v -0.03989515 0.10754012 -13.86077213 0.25098039 0.27450980 0.65882353
v -0.04399881 0.10827708 -13.86224842 0.25098039 0.27450980 0.65882353
v -0.04711185 0.09883565 -13.84902477 0.25098039 0.27450980 0.65882353
v -0.05060355 0.09872694 -13.85104656 0.25098039 0.27450980 0.65882353
v -0.05408914 0.10233938 -13.85430145 0.25098039 0.27450980 0.65882353
v -0.04811943 0.09512600 -13.85254478 0.25098039 0.27450980 0.65882353
v -0.04309671 0.09371871 -13.85373306 0.25098039 0.27450980 0.65882353
v -0.03956671 0.09587285 -13.86714077 0.25098039 0.27450980 0.65882353
v -0.03797691 0.09874122 -13.86200237 0.25098039 0.27450980 0.65882353
v -0.03837202 0.09600264 -13.86222076 0.25098039 0.27450980 0.65882353
v -0.03973030 0.09292869 -13.86606503 0.25098039 0.27450980 0.65882353
v -0.04078959 0.08855954 -13.86883068 0.25098039 0.27450980 0.65882353
v -0.04066123 0.09141357 -13.87083626 0.25098039 0.27450980 0.65882353
v -0.03946362 0.09564447 -13.85764885 0.25098039 0.27450980 0.65882353
v -0.04113179 0.09077166 -13.86223793 0.25098039 0.27450980 0.65882353
v -0.04394230 0.08911355 -13.85971165 0.25098039 0.27450980 0.65882353
v -0.04441030 0.08486104 -13.86356831 0.25098039 0.27450980 0.65882353
v -0.04181333 0.08612671 -13.86578560 0.25098039 0.27450980 0.65882353
v -0.04247420 0.09242120 -13.85667896 0.25098039 0.27450980 0.65882353
v -0.03860055 0.09735543 -13.85566235 0.25098039 0.27450980 0.65882353
v -0.04214272 0.08702842 -13.87195492 0.25098039 0.27450980 0.65882353
v -0.04133201 0.08570288 -13.87004089 0.25098039 0.27450980 0.65882353
v -0.04272324 0.08389733 -13.86801815 0.25098039 0.27450980 0.65882353
v -0.04437831 0.08283369 -13.87041950 0.25098039 0.27450980 0.65882353
v -0.04022205 0.10381803 -13.86347771 0.25098039 0.27450980 0.65882353
v -0.04099578 0.09737331 -13.86873055 0.25098039 0.27450980 0.65882353
v -0.04335548 0.09256807 -13.87173080 0.25098039 0.27450980 0.65882353
v -0.04463223 0.08813488 -13.87268639 0.25098039 0.27450980 0.65882353
v -0.04498698 0.09724497 -13.86962700 0.25098039 0.27450980 0.65882353
v -0.04623513 0.09301889 -13.87150383 0.25098039 0.27450980 0.65882353
v -0.04763266 0.08923711 -13.87193298 0.25098039 0.27450980 0.65882353
v -0.04904082 0.09634154 -13.86906528 0.25098039 0.27450980 0.65882353
v -0.04920559 0.09252666 -13.87054157 0.25098039 0.27450980 0.65882353
v -0.04785356 0.10535274 -13.86286163 0.25098039 0.27450980 0.65882353
v -0.04389648 0.10654031 -13.86363029 0.25098039 0.27450980 0.65882353
v -0.04960251 0.09012279 -13.87147236 0.25098039 0.27450980 0.65882353
v -0.04652618 0.08339855 -13.87090206 0.25098039 0.27450980 0.65882353
v -0.04681748 0.08992320 -13.85757732 0.25098039 0.27450980 0.65882353
v -0.04756483 0.08541115 -13.86327457 0.25098039 0.27450980 0.65882353
v -0.04921523 0.09038806 -13.85773563 0.25098039 0.27450980 0.65882353
v -0.04994215 0.08564794 -13.86302090 0.25098039 0.27450980 0.65882353
v -0.04703678 0.08204819 -13.86651802 0.25098039 0.27450980 0.65882353
v -0.04474984 0.08313918 -13.86614704 0.25098039 0.27450980 0.65882353
v -0.04909016 0.10761160 -13.86114311 0.25098039 0.27450980 0.65882353
v -0.05319013 0.10507692 -13.85770226 0.25098039 0.27450980 0.65882353
v -0.05239283 0.10299191 -13.85925961 0.25098039 0.27450980 0.65882353
v -0.05261938 0.09474245 -13.86635971 0.25098039 0.27450980 0.65882353
v -0.05370666 0.10000893 -13.85661602 0.25098039 0.27450980 0.65882353
v -0.05144317 0.09559998 -13.85464287 0.25098039 0.27450980 0.65882353
v -0.05165944 0.09060093 -13.85955715 0.25098039 0.27450980 0.65882353
v -0.05330981 0.09209030 -13.86210537 0.25098039 0.27450980 0.65882353
v -0.05179249 0.08703893 -13.86379814 0.25098039 0.27450980 0.65882353
v -0.05236329 0.08883235 -13.86541748 0.25098039 0.27450980 0.65882353
v -0.05180851 0.09094806 -13.86854935 0.25098039 0.27450980 0.65882353
v -0.05089255 0.08518054 -13.86746883 0.25098039 0.27450980 0.65882353
v -0.04897614 0.08302966 -13.86693287 0.25098039 0.27450980 0.65882353
v -0.04901876 0.08581001 -13.87060928 0.25098039 0.27450980 0.65882353
v -0.05181055 0.08694801 -13.86756134 0.25098039 0.27450980 0.65882353
v -0.05026016 0.08811497 -13.86982918 0.25098039 0.27450980 0.65882353
v -0.07083280 0.10340862 -13.83913231 0.25098039 0.27450980 0.65882353
v -0.07594483 0.10101491 -13.83606243 0.25098039 0.27450980 0.65882353
v -0.07679309 0.10617287 -13.83566189 0.25098039 0.27450980 0.65882353
v -0.07242985 0.10771950 -13.83841133 0.25098039 0.27450980 0.65882353
v -0.06166311 0.10672254 -13.82984734 0.25098039 0.27450980 0.65882353
v -0.06333920 0.10589442 -13.83534908 0.25098039 0.27450980 0.65882353
v -0.06417856 0.11105805 -13.83422184 0.25098039 0.27450980 0.65882353
v -0.06359102 0.11208217 -13.82784557 0.25098039 0.27450980 0.65882353
v -0.06476653 0.10596430 -13.82382774 0.25098039 0.27450980 0.65882353
v -0.06700002 0.11154751 -13.82195854 0.25098039 0.27450980 0.65882353
v -0.06534559 0.11726042 -13.82802105 0.25098039 0.27450980 0.65882353
v -0.06653492 0.11611365 -13.83491707 0.25098039 0.27450980 0.65882353
v -0.07753396 0.13318497 -13.84045696 0.25098039 0.27450980 0.65882353
v -0.07667714 0.13513035 -13.83359528 0.25098039 0.27450980 0.65882353
v -0.09326336 0.12509029 -13.83933353 0.25098039 0.27450980 0.65882353
v -0.09279688 0.12484574 -13.83537483 0.25098039 0.27450980 0.65882353
v -0.06710868 0.10465117 -13.83849812 0.25098039 0.27450980 0.65882353
v -0.06811257 0.10931537 -13.83744812 0.25098039 0.27450980 0.65882353
v -0.08366950 0.10810828 -13.82950592 0.25098039 0.27450980 0.65882353
v -0.08263293 0.10814456 -13.83480072 0.25098039 0.27450980 0.65882353
v -0.08016019 0.10422449 -13.83287430 0.25098039 0.27450980 0.65882353
v -0.08044274 0.10403392 -13.82727242 0.25098039 0.27450980 0.65882353
v -0.08416657 0.12995738 -13.84526157 0.25098039 0.27450980 0.65882353
v -0.08973017 0.12791634 -13.84295654 0.25098039 0.27450980 0.65882353
v -0.08050515 0.13098612 -13.84391308 0.25098039 0.27450980 0.65882353
v -0.08175421 0.10972657 -13.82340813 0.25098039 0.27450980 0.65882353
v -0.07669529 0.11293964 -13.81986046 0.25098039 0.27450980 0.65882353
v -0.08658388 0.13022977 -13.82431316 0.25098039 0.27450980 0.65882353
v -0.09073140 0.12632224 -13.82727814 0.25098039 0.27450980 0.65882353
v -0.06967832 0.11388050 -13.83895969 0.25098039 0.27450980 0.65882353
v -0.07894650 0.10937256 -13.83861160 0.25098039 0.27450980 0.65882353
v -0.07445525 0.11128621 -13.84055424 0.25098039 0.27450980 0.65882353
v -0.07003884 0.11642171 -13.82242966 0.25098039 0.27450980 0.65882353
v -0.07316057 0.10732434 -13.81976795 0.25098039 0.27450980 0.65882353
v -0.07133345 0.08767579 -13.82534790 0.25098039 0.27450980 0.65882353
v -0.07573874 0.09935899 -13.82287788 0.25098039 0.27450980 0.65882353
v -0.07827289 0.09854680 -13.82724667 0.25098039 0.27450980 0.65882353
v -0.07465923 0.08643064 -13.82880688 0.25098039 0.27450980 0.65882353
v -0.07816130 0.10479638 -13.82226467 0.25098039 0.27450980 0.65882353
v -0.07066259 0.10221572 -13.82133293 0.25098039 0.27450980 0.65882353
v -0.06872807 0.08869670 -13.84137154 0.25098039 0.27450980 0.65882353
v -0.07388227 0.08655864 -13.83807468 0.25098039 0.27450980 0.65882353
v -0.06424138 0.08997952 -13.84143448 0.25098039 0.27450980 0.65882353
v -0.08059199 0.13432917 -13.82670784 0.25098039 0.27450980 0.65882353
v -0.05844104 0.09326687 -13.83335972 0.25098039 0.27450980 0.65882353
v -0.06083608 0.09171000 -13.83932877 0.25098039 0.27450980 0.65882353
v -0.07887685 0.09923877 -13.83223152 0.25098039 0.27450980 0.65882353
v -0.07576557 0.08567172 -13.83344746 0.25098039 0.27450980 0.65882353
v -0.06709926 0.08949921 -13.82447529 0.25098039 0.27450980 0.65882353
v -0.06129435 0.09339234 -13.82711124 0.25098039 0.27450980 0.65882353
v -0.06569459 0.08373567 -13.82645226 0.25098039 0.27450980 0.65882353
v -0.06034037 0.08644553 -13.82917690 0.25098039 0.27450980 0.65882353
v -0.05782278 0.08697561 -13.83528519 0.25098039 0.27450980 0.65882353
v -0.06068031 0.08697259 -13.84039116 0.25098039 0.27450980 0.65882353
v -0.06414701 0.08669372 -13.84215069 0.25098039 0.27450980 0.65882353
v -0.06970879 0.08212829 -13.82733059 0.25098039 0.27450980 0.65882353
v -0.07316324 0.08146605 -13.83035564 0.25098039 0.27450980 0.65882353
v -0.07470801 0.08319871 -13.83463383 0.25098039 0.27450980 0.65882353
v -0.07066551 0.07594466 -13.83144093 0.25098039 0.27450980 0.65882353
v -0.06611252 0.07546425 -13.83073425 0.25098039 0.27450980 0.65882353
v -0.06132218 0.06971148 -13.84786034 0.25098039 0.27450980 0.65882353
v -0.06006129 0.07459144 -13.84432125 0.25098039 0.27450980 0.65882353
v -0.06014457 0.07284459 -13.84230614 0.25098039 0.27450980 0.65882353
v -0.06138410 0.06835607 -13.84535503 0.25098039 0.27450980 0.65882353
v -0.05817287 0.07824224 -13.83936310 0.25098039 0.27450980 0.65882353
v -0.05910072 0.07585770 -13.83876038 0.25098039 0.27450980 0.65882353
v -0.06125419 0.07545421 -13.83460331 0.25098039 0.27450980 0.65882353
v -0.06266166 0.07072589 -13.83861923 0.25098039 0.27450980 0.65882353
v -0.06646305 0.07027286 -13.83576107 0.25098039 0.27450980 0.65882353
v -0.06696190 0.06515394 -13.83861351 0.25098039 0.27450980 0.65882353
v -0.06314521 0.06556545 -13.84150600 0.25098039 0.27450980 0.65882353
v -0.06449354 0.07350117 -13.83337116 0.25098039 0.27450980 0.65882353
v -0.06243242 0.06499606 -13.84659576 0.25098039 0.27450980 0.65882353
v -0.06353995 0.06446216 -13.84891701 0.25098039 0.27450980 0.65882353
v -0.06006673 0.07793431 -13.83260155 0.25098039 0.27450980 0.65882353
v -0.06016642 0.08327016 -13.84185219 0.25098039 0.27450980 0.65882353
v -0.06168559 0.07578622 -13.84668636 0.25098039 0.27450980 0.65882353
v -0.06371890 0.07021420 -13.85002136 0.25098039 0.27450980 0.65882353
v -0.06645598 0.06455007 -13.84992599 0.25098039 0.27450980 0.65882353
v -0.06563956 0.07596652 -13.84829140 0.25098039 0.27450980 0.65882353
v -0.06695603 0.07043977 -13.85062027 0.25098039 0.27450980 0.65882353
v -0.06892590 0.06578968 -13.84974575 0.25098039 0.27450980 0.65882353
v -0.07041267 0.07573013 -13.84831619 0.25098039 0.27450980 0.65882353
v -0.07111800 0.07014279 -13.84981632 0.25098039 0.27450980 0.65882353
v -0.06891698 0.08471428 -13.84286880 0.25098039 0.27450980 0.65882353
v -0.06426063 0.08480246 -13.84370899 0.25098039 0.27450980 0.65882353
v -0.07076186 0.06739293 -13.84944439 0.25098039 0.27450980 0.65882353
v -0.06538591 0.06105673 -13.84579754 0.25098039 0.27450980 0.65882353
v -0.06839854 0.06170538 -13.84743690 0.25098039 0.27450980 0.65882353
v -0.06441607 0.06242564 -13.84446049 0.25098039 0.27450980 0.65882353
v -0.06853308 0.07036152 -13.83517075 0.25098039 0.27450980 0.65882353
v -0.06924058 0.06518438 -13.83924484 0.25098039 0.27450980 0.65882353
v -0.07138342 0.07045908 -13.83585548 0.25098039 0.27450980 0.65882353
v -0.07150082 0.06505439 -13.84045982 0.25098039 0.27450980 0.65882353
v -0.06863561 0.06158184 -13.84244442 0.25098039 0.27450980 0.65882353
v -0.06695776 0.06187844 -13.84206009 0.25098039 0.27450980 0.65882353
v -0.06843193 0.08617643 -13.84124947 0.25098039 0.27450980 0.65882353
v -0.07307805 0.08467451 -13.83819294 0.25098039 0.27450980 0.65882353
v -0.07342154 0.08349627 -13.83963490 0.25098039 0.27450980 0.65882353
v -0.07423274 0.07431626 -13.84483337 0.25098039 0.27450980 0.65882353
v -0.07506065 0.08134256 -13.83578873 0.25098039 0.27450980 0.65882353
v -0.07350779 0.07744747 -13.83313084 0.25098039 0.27450980 0.65882353
v -0.07378438 0.07143418 -13.83707047 0.25098039 0.27450980 0.65882353
v -0.07529487 0.07253283 -13.84061623 0.25098039 0.27450980 0.65882353
v -0.07375202 0.06543243 -13.84079361 0.25098039 0.27450980 0.65882353
v -0.07487290 0.06796765 -13.84242153 0.25098039 0.27450980 0.65882353
v -0.07407616 0.06955035 -13.84698296 0.25098039 0.27450980 0.65882353
v -0.07255369 0.06224278 -13.84408855 0.25098039 0.27450980 0.65882353
v -0.07035016 0.06145291 -13.84325027 0.25098039 0.27450980 0.65882353
v -0.07019034 0.06315368 -13.84778023 0.25098039 0.27450980 0.65882353
v -0.07390837 0.06487767 -13.84468460 0.25098039 0.27450980 0.65882353
v -0.07225437 0.06573753 -13.84782982 0.25098039 0.27450980 0.65882353
v -0.09426065 0.10334864 -13.82790184 0.25098039 0.27450980 0.65882353
v -0.09994660 0.10208735 -13.82910728 0.25098039 0.27450980 0.65882353
v -0.10093115 0.10559876 -13.82908535 0.25098039 0.27450980 0.65882353
v -0.09541337 0.10692686 -13.82780743 0.25098039 0.27450980 0.65882353
v -0.09332114 0.10411148 -13.81544113 0.25098039 0.27450980 0.65882353
v -0.09077063 0.10382044 -13.81962872 0.25098039 0.27450980 0.65882353
v -0.09192149 0.10862395 -13.81939220 0.25098039 0.27450980 0.65882353
v -0.09466444 0.11032373 -13.81488514 0.25098039 0.27450980 0.65882353
v -0.09791599 0.10167834 -13.81340885 0.25098039 0.27450980 0.65882353
v -0.10011047 0.10975165 -13.81196690 0.25098039 0.27450980 0.65882353
v -0.09575529 0.11620048 -13.81517792 0.25098039 0.27450980 0.65882353
v -0.09295046 0.11327189 -13.81994820 0.25098039 0.27450980 0.65882353
v -0.09795266 0.12656498 -13.82596684 0.25098039 0.27450980 0.65882353
v -0.10086362 0.12869090 -13.82004547 0.25098039 0.27450980 0.65882353
v -0.09150170 0.10363705 -13.82421398 0.25098039 0.27450980 0.65882353
v -0.09252249 0.10751712 -13.82422543 0.25098039 0.27450980 0.65882353
v -0.11008205 0.10682961 -13.82636166 0.25098039 0.27450980 0.65882353
v -0.10665393 0.10704472 -13.82971573 0.25098039 0.27450980 0.65882353
v -0.10589509 0.10410234 -13.82763577 0.25098039 0.27450980 0.65882353
v -0.10860832 0.10362104 -13.82440376 0.25098039 0.27450980 0.65882353
v -0.10276265 0.12434512 -13.83592415 0.25098039 0.27450980 0.65882353
v -0.10881160 0.12420573 -13.83608150 0.25098039 0.27450980 0.65882353
v -0.09882323 0.12417217 -13.83186340 0.25098039 0.27450980 0.65882353
v -0.11094774 0.10818837 -13.82003307 0.25098039 0.27450980 0.65882353
v -0.10840724 0.11209646 -13.81417561 0.25098039 0.27450980 0.65882353
v -0.11460495 0.12476275 -13.81988144 0.25098039 0.27450980 0.65882353
v -0.11652172 0.12266222 -13.82564354 0.25098039 0.27450980 0.65882353
v -0.09329943 0.11112308 -13.82489586 0.25098039 0.27450980 0.65882353
v -0.10177878 0.10859179 -13.83108711 0.25098039 0.27450980 0.65882353
v -0.09624040 0.10957869 -13.82943916 0.25098039 0.27450980 0.65882353
v -0.10177203 0.11564083 -13.81319809 0.25098039 0.27450980 0.65882353
v -0.10593991 0.10623250 -13.81401539 0.25098039 0.27450980 0.65882353
v -0.10291657 0.08363534 -13.81945038 0.25098039 0.27450980 0.65882353
v -0.10780117 0.09963387 -13.81854153 0.25098039 0.27450980 0.65882353
v -0.10750526 0.09971629 -13.82426357 0.25098039 0.27450980 0.65882353
v -0.10411789 0.08400895 -13.82367516 0.25098039 0.27450980 0.65882353
v -0.10915853 0.10361563 -13.81901932 0.25098039 0.27450980 0.65882353
v -0.10417593 0.10067675 -13.81431675 0.25098039 0.27450980 0.65882353
v -0.09189871 0.08813296 -13.83023453 0.25098039 0.27450980 0.65882353
v -0.09761493 0.08745898 -13.83048916 0.25098039 0.27450980 0.65882353
v -0.08904210 0.08919904 -13.82697296 0.25098039 0.27450980 0.65882353
v -0.10752369 0.12845561 -13.81697559 0.25098039 0.27450980 0.65882353
v -0.11469303 0.12261173 -13.83232403 0.25098039 0.27450980 0.65882353
v -0.08841279 0.08776030 -13.81952953 0.25098039 0.27450980 0.65882353
v -0.08772522 0.08873864 -13.82379818 0.25098039 0.27450980 0.65882353
v -0.10494605 0.10086088 -13.82754707 0.25098039 0.27450980 0.65882353
v -0.10249007 0.08547692 -13.82783890 0.25098039 0.27450980 0.65882353
v -0.09939015 0.08500387 -13.81628036 0.25098039 0.27450980 0.65882353
v -0.09336570 0.08739042 -13.81579304 0.25098039 0.27450980 0.65882353
v -0.09879695 0.07876986 -13.81861115 0.25098039 0.27450980 0.65882353
v -0.09262790 0.08042188 -13.81836891 0.25098039 0.27450980 0.65882353
v -0.08793963 0.08121285 -13.82206249 0.25098039 0.27450980 0.65882353
v -0.08750315 0.08333448 -13.82609558 0.25098039 0.27450980 0.65882353
v -0.08881533 0.08457514 -13.82892323 0.25098039 0.27450980 0.65882353
v -0.10234624 0.07884449 -13.82230186 0.25098039 0.27450980 0.65882353
v -0.10310219 0.08031322 -13.82594204 0.25098039 0.27450980 0.65882353
v -0.10147423 0.08395933 -13.82821274 0.25098039 0.27450980 0.65882353
v -0.10280041 0.07607587 -13.82596493 0.25098039 0.27450980 0.65882353
v -0.09857526 0.07306677 -13.82361889 0.25098039 0.27450980 0.65882353
v -0.08995272 0.06734204 -13.83745098 0.25098039 0.27450980 0.65882353
v -0.08932346 0.07156804 -13.83312988 0.25098039 0.27450980 0.65882353
v -0.08998914 0.07068877 -13.83244991 0.25098039 0.27450980 0.65882353
v -0.09048954 0.06611323 -13.83619690 0.25098039 0.27450980 0.65882353
v -0.08889675 0.07465783 -13.82674408 0.25098039 0.27450980 0.65882353
v -0.08991911 0.07297625 -13.82767391 0.25098039 0.27450980 0.65882353
v -0.09301275 0.07243671 -13.82515717 0.25098039 0.27450980 0.65882353
v -0.09379131 0.06788780 -13.83007336 0.25098039 0.27450980 0.65882353
v -0.09959230 0.06954566 -13.83012009 0.25098039 0.27450980 0.65882353
v -0.09907664 0.06622821 -13.83411407 0.25098039 0.27450980 0.65882353
v -0.09408739 0.06414317 -13.83410168 0.25098039 0.27450980 0.65882353
v -0.09752505 0.07203504 -13.82540321 0.25098039 0.27450980 0.65882353
v -0.09172471 0.06370637 -13.83803558 0.25098039 0.27450980 0.65882353
v -0.09019376 0.06338277 -13.83974457 0.25098039 0.27450980 0.65882353
v -0.09261084 0.07390749 -13.82274914 0.25098039 0.27450980 0.65882353
v -0.08701289 0.07851417 -13.82934189 0.25098039 0.27450980 0.65882353
v -0.08821459 0.07338133 -13.83521175 0.25098039 0.27450980 0.65882353
v -0.08855861 0.06931326 -13.84001350 0.25098039 0.27450980 0.65882353
v -0.09090197 0.06604022 -13.84242725 0.25098039 0.27450980 0.65882353
v -0.08989885 0.07573617 -13.83758831 0.25098039 0.27450980 0.65882353
v -0.09047210 0.07155627 -13.84129047 0.25098039 0.27450980 0.65882353
v -0.09247816 0.06867063 -13.84352589 0.25098039 0.27450980 0.65882353
v -0.09255588 0.07715538 -13.83887863 0.25098039 0.27450980 0.65882353
v -0.09324265 0.07328492 -13.84196091 0.25098039 0.27450980 0.65882353
v -0.09185253 0.08385821 -13.83207035 0.25098039 0.27450980 0.65882353
v -0.08869834 0.08167829 -13.83112049 0.25098039 0.27450980 0.65882353
v -0.09406614 0.07044840 -13.84334660 0.25098039 0.27450980 0.65882353
v -0.09465122 0.06146280 -13.83927059 0.25098039 0.27450980 0.65882353
v -0.09628209 0.06401980 -13.84253025 0.25098039 0.27450980 0.65882353
v -0.09450492 0.06280655 -13.83749390 0.25098039 0.27450980 0.65882353
v -0.10125497 0.07061647 -13.83000278 0.25098039 0.27450980 0.65882353
v -0.10120809 0.06637974 -13.83533478 0.25098039 0.27450980 0.65882353
v -0.10295586 0.07243809 -13.83161926 0.25098039 0.27450980 0.65882353
v -0.10287437 0.06811303 -13.83671284 0.25098039 0.27450980 0.65882353
v -0.09942710 0.06319270 -13.83786488 0.25098039 0.27450980 0.65882353
v -0.09840870 0.06352074 -13.83696461 0.25098039 0.27450980 0.65882353
v -0.09228775 0.08572666 -13.83036900 0.25098039 0.27450980 0.65882353
v -0.09739812 0.08555102 -13.83038807 0.25098039 0.27450980 0.65882353
v -0.09666382 0.08437444 -13.83202934 0.25098039 0.27450980 0.65882353
v -0.09724168 0.07752919 -13.83947563 0.25098039 0.27450980 0.65882353
v -0.10086478 0.08304770 -13.83033276 0.25098039 0.27450980 0.65882353
v -0.10310282 0.07798238 -13.82938862 0.25098039 0.27450980 0.65882353
v -0.10288909 0.07447168 -13.83431911 0.25098039 0.27450980 0.65882353
v -0.10116516 0.07605731 -13.83745003 0.25098039 0.27450980 0.65882353
v -0.10280713 0.07031143 -13.83849049 0.25098039 0.27450980 0.65882353
v -0.10115246 0.07246542 -13.83955383 0.25098039 0.27450980 0.65882353
v -0.09736472 0.07384886 -13.84243298 0.25098039 0.27450980 0.65882353
v -0.10052735 0.06763378 -13.84093952 0.25098039 0.27450980 0.65882353
v -0.10075846 0.06489408 -13.83971691 0.25098039 0.27450980 0.65882353
v -0.09675406 0.06719059 -13.84357548 0.25098039 0.27450980 0.65882353
v -0.09996645 0.07000785 -13.84170246 0.25098039 0.27450980 0.65882353
v -0.09707959 0.06983945 -13.84364605 0.25098039 0.27450980 0.65882353
v -0.11279294 0.12343612 -13.83524609 0.25098039 0.27450980 0.65882353
v -0.13120100 0.10179110 -13.83508778 0.25098039 0.27450980 0.65882353
v -0.13483661 0.10204426 -13.83685207 0.25098039 0.27450980 0.65882353
v -0.13559309 0.10519113 -13.83583927 0.25098039 0.27450980 0.65882353
v -0.13173005 0.10583919 -13.83484745 0.25098039 0.27450980 0.65882353
v -0.13168260 0.10145608 -13.82411480 0.25098039 0.27450980 0.65882353
v -0.12939537 0.10108688 -13.82790279 0.25098039 0.27450980 0.65882353
v -0.12919350 0.10585293 -13.82664394 0.25098039 0.27450980 0.65882353
v -0.13143538 0.10640684 -13.82294273 0.25098039 0.27450980 0.65882353
v -0.13636017 0.10147206 -13.82268333 0.25098039 0.27450980 0.65882353
v -0.13651595 0.10626254 -13.82176018 0.25098039 0.27450980 0.65882353
v -0.13116132 0.11014306 -13.82259464 0.25098039 0.27450980 0.65882353
v -0.12873590 0.10965305 -13.82669067 0.25098039 0.27450980 0.65882353
v -0.12732348 0.12590489 -13.82978058 0.25098039 0.27450980 0.65882353
v -0.13064973 0.12863825 -13.82602024 0.25098039 0.27450980 0.65882353
v -0.14550066 0.12939446 -13.83760548 0.25098039 0.27450980 0.65882353
v -0.14146288 0.12964714 -13.84302235 0.25098039 0.27450980 0.65882353
v -0.14122681 0.12137155 -13.83883572 0.25098039 0.27450980 0.65882353
v -0.14450154 0.12288410 -13.83495998 0.25098039 0.27450980 0.65882353
v -0.12951964 0.10132966 -13.83178520 0.25098039 0.27450980 0.65882353
v -0.12923028 0.10567085 -13.83164406 0.25098039 0.27450980 0.65882353
v -0.14408463 0.10935603 -13.83263016 0.25098039 0.27450980 0.65882353
v -0.14059806 0.10864853 -13.83563042 0.25098039 0.27450980 0.65882353
v -0.13955930 0.10541520 -13.83603191 0.25098039 0.27450980 0.65882353
v -0.14340824 0.10498860 -13.83373737 0.25098039 0.27450980 0.65882353
v -0.13588718 0.12816405 -13.84408188 0.25098039 0.27450980 0.65882353
v -0.13098904 0.12769783 -13.84274769 0.25098039 0.27450980 0.65882353
v -0.13101816 0.12314954 -13.84128284 0.25098039 0.27450980 0.65882353
v -0.13646817 0.12041992 -13.84029579 0.25098039 0.27450980 0.65882353
v -0.12733418 0.12322064 -13.83715343 0.25098039 0.27450980 0.65882353
v -0.14488587 0.10962445 -13.82873821 0.25098039 0.27450980 0.65882353
v -0.14254607 0.10997294 -13.82353306 0.25098039 0.27450980 0.65882353
v -0.14455009 0.12731493 -13.82615089 0.25098039 0.27450980 0.65882353
v -0.14566243 0.12598862 -13.83055687 0.25098039 0.27450980 0.65882353
v -0.12870736 0.10845926 -13.83105564 0.25098039 0.27450980 0.65882353
v -0.13631892 0.10813120 -13.83610439 0.25098039 0.27450980 0.65882353
v -0.13199028 0.10794969 -13.83489227 0.25098039 0.27450980 0.65882353
v -0.13669832 0.11036974 -13.82097435 0.25098039 0.27450980 0.65882353
v -0.14206067 0.10531619 -13.82430172 0.25098039 0.27450980 0.65882353
v -0.14377683 0.09205890 -13.83264732 0.25098039 0.27450980 0.65882353
v -0.14444378 0.10137638 -13.83028603 0.25098039 0.27450980 0.65882353
v -0.14291854 0.10155195 -13.83488083 0.25098039 0.27450980 0.65882353
v -0.14299069 0.09257515 -13.83548832 0.25098039 0.27450980 0.65882353
v -0.14441517 0.10507533 -13.82941818 0.25098039 0.27450980 0.65882353
v -0.14198561 0.10081602 -13.82533741 0.25098039 0.27450980 0.65882353
v -0.13109575 0.09315544 -13.83727455 0.25098039 0.27450980 0.65882353
v -0.13601086 0.09387816 -13.83871937 0.25098039 0.27450980 0.65882353
v -0.12945026 0.09264336 -13.83459282 0.25098039 0.27450980 0.65882353
v -0.13728003 0.12874758 -13.82349205 0.25098039 0.27450980 0.65882353
v -0.13151510 0.09126239 -13.82754993 0.25098039 0.27450980 0.65882353
v -0.12923658 0.09143012 -13.83125114 0.25098039 0.27450980 0.65882353
v -0.13886625 0.10187820 -13.83690357 0.25098039 0.27450980 0.65882353
v -0.14028904 0.09355193 -13.83781338 0.25098039 0.27450980 0.65882353
v -0.14201015 0.09143590 -13.82879448 0.25098039 0.27450980 0.65882353
v -0.13671735 0.09153683 -13.82577991 0.25098039 0.27450980 0.65882353
v -0.14131917 0.08676742 -13.83079910 0.25098039 0.27450980 0.65882353
v -0.13587300 0.08701731 -13.82783794 0.25098039 0.27450980 0.65882353
v -0.13054995 0.08705713 -13.83028698 0.25098039 0.27450980 0.65882353
v -0.12916206 0.08876897 -13.83329487 0.25098039 0.27450980 0.65882353
v -0.12929794 0.09003631 -13.83620262 0.25098039 0.27450980 0.65882353
v -0.14321509 0.08804486 -13.83456135 0.25098039 0.27450980 0.65882353
v -0.14251319 0.08927507 -13.83727264 0.25098039 0.27450980 0.65882353
v -0.14008027 0.09119209 -13.83932209 0.25098039 0.27450980 0.65882353
v -0.14257404 0.08414643 -13.83684254 0.25098039 0.27450980 0.65882353
v -0.14006633 0.08120632 -13.83407879 0.25098039 0.27450980 0.65882353
v -0.13003056 0.07578382 -13.84158230 0.25098039 0.27450980 0.65882353
v -0.12984353 0.07911150 -13.83895111 0.25098039 0.27450980 0.65882353
v -0.13055444 0.07845178 -13.83813286 0.25098039 0.27450980 0.65882353
v -0.13009435 0.07506350 -13.84062672 0.25098039 0.27450980 0.65882353
v -0.13049366 0.08223765 -13.83438206 0.25098039 0.27450980 0.65882353
v -0.13148588 0.08085474 -13.83471107 0.25098039 0.27450980 0.65882353
v -0.13465449 0.08127990 -13.83312321 0.25098039 0.27450980 0.65882353
v -0.13418268 0.07699059 -13.83644676 0.25098039 0.27450980 0.65882353
v -0.13930619 0.07701893 -13.83815956 0.25098039 0.27450980 0.65882353
v -0.13832884 0.07361624 -13.84060764 0.25098039 0.27450980 0.65882353
v -0.13394073 0.07376929 -13.83865166 0.25098039 0.27450980 0.65882353
v -0.13850309 0.07979913 -13.83443165 0.25098039 0.27450980 0.65882353
v -0.13067374 0.07245575 -13.84159470 0.25098039 0.27450980 0.65882353
v -0.13011655 0.07184237 -13.84287453 0.25098039 0.27450980 0.65882353
v -0.13479581 0.08246461 -13.83145046 0.25098039 0.27450980 0.65882353
v -0.12877509 0.08532862 -13.83659649 0.25098039 0.27450980 0.65882353
v -0.12884969 0.07985410 -13.84116173 0.25098039 0.27450980 0.65882353
v -0.12933025 0.07545394 -13.84391785 0.25098039 0.27450980 0.65882353
v -0.13088410 0.07207571 -13.84517765 0.25098039 0.27450980 0.65882353
v -0.12942125 0.08197649 -13.84281731 0.25098039 0.27450980 0.65882353
v -0.12972398 0.07674900 -13.84604549 0.25098039 0.27450980 0.65882353
v -0.13153519 0.07369453 -13.84724426 0.25098039 0.27450980 0.65882353
v -0.13143413 0.08391317 -13.84489346 0.25098039 0.27450980 0.65882353
v -0.13166055 0.07852092 -13.84720230 0.25098039 0.27450980 0.65882353
v -0.13184583 0.08958189 -13.84087658 0.25098039 0.27450980 0.65882353
v -0.12962393 0.08760678 -13.83893204 0.25098039 0.27450980 0.65882353
v -0.13250333 0.07543442 -13.84755993 0.25098039 0.27450980 0.65882353
v -0.13355576 0.07015577 -13.84245872 0.25098039 0.27450980 0.65882353
v -0.13402805 0.07092971 -13.84546185 0.25098039 0.27450980 0.65882353
v -0.13380720 0.07085247 -13.84111786 0.25098039 0.27450980 0.65882353
v -0.14055613 0.07756349 -13.83880997 0.25098039 0.27450980 0.65882353
v -0.13949098 0.07349999 -13.84194088 0.25098039 0.27450980 0.65882353
v -0.14173368 0.07899824 -13.84065247 0.25098039 0.27450980 0.65882353
v -0.13991724 0.07445814 -13.84396267 0.25098039 0.27450980 0.65882353
v -0.13727896 0.07080846 -13.84313965 0.25098039 0.27450980 0.65882353
v -0.13651180 0.07145688 -13.84133911 0.25098039 0.27450980 0.65882353
v -0.13165921 0.09115487 -13.83933163 0.25098039 0.27450980 0.65882353
v -0.13580894 0.09191769 -13.83983612 0.25098039 0.27450980 0.65882353
v -0.13604480 0.09009124 -13.84147263 0.25098039 0.27450980 0.65882353
v -0.13523111 0.08458494 -13.84567833 0.25098039 0.27450980 0.65882353
v -0.14015350 0.08905222 -13.84081936 0.25098039 0.27450980 0.65882353
v -0.14223835 0.08658475 -13.83884621 0.25098039 0.27450980 0.65882353
v -0.14122626 0.08092566 -13.84275055 0.25098039 0.27450980 0.65882353
v -0.13931668 0.08291444 -13.84486103 0.25098039 0.27450980 0.65882353
v -0.13932303 0.07567739 -13.84587479 0.25098039 0.27450980 0.65882353
v -0.13771588 0.07788076 -13.84744263 0.25098039 0.27450980 0.65882353
v -0.13474131 0.07917121 -13.84811306 0.25098039 0.27450980 0.65882353
v -0.13663165 0.07302396 -13.84677315 0.25098039 0.27450980 0.65882353
v -0.13714999 0.07155450 -13.84548855 0.25098039 0.27450980 0.65882353
v -0.13430880 0.07270965 -13.84702682 0.25098039 0.27450980 0.65882353
v -0.13604754 0.07479492 -13.84775066 0.25098039 0.27450980 0.65882353
v -0.13441107 0.07515439 -13.84787083 0.25098039 0.27450980 0.65882353
v -0.14594825 0.12904246 -13.83329487 0.25098039 0.27450980 0.65882353
v -0.08185470 0.15668993 -13.91555691 0.25098039 0.27450980 0.65882353
v -0.08341837 0.15334007 -13.91100502 0.25098039 0.27450980 0.65882353
v -0.09629114 0.14509071 -13.91709423 0.25098039 0.27450980 0.65882353
v -0.09192488 0.14533162 -13.91164017 0.25098039 0.27450980 0.65882353
v -0.09738718 0.14703979 -13.92321396 0.25098039 0.27450980 0.65882353
v -0.09249802 0.15539776 -13.92765999 0.25098039 0.27450980 0.65882353
v -0.09644383 0.15173526 -13.92635632 0.25098039 0.27450980 0.65882353
v -0.08724165 0.14844124 -13.90957642 0.25098039 0.27450980 0.65882353
v -0.08262338 0.15922830 -13.92068958 0.25098039 0.27450980 0.65882353
v -0.08717088 0.15916339 -13.92591763 0.25098039 0.27450980 0.65882353
v -0.07783423 0.15386900 -13.92313004 0.25098039 0.27450980 0.65882353
v -0.08248889 0.15330230 -13.92887783 0.25098039 0.27450980 0.65882353
v -0.08767290 0.14926434 -13.93115520 0.25098039 0.27450980 0.65882353
v -0.09247343 0.14561425 -13.92926788 0.25098039 0.27450980 0.65882353
v -0.09431522 0.14251356 -13.92614460 0.25098039 0.27450980 0.65882353
v -0.07863508 0.15125617 -13.91682529 0.25098039 0.27450980 0.65882353
v -0.08077943 0.14783733 -13.91252899 0.25098039 0.27450980 0.65882353
v -0.08588551 0.14390266 -13.91131973 0.25098039 0.27450980 0.65882353
v -0.07516450 0.14395493 -13.91741562 0.25098039 0.27450980 0.65882353
v -0.07142705 0.13753910 -13.92460632 0.25098039 0.27450980 0.65882353
v -0.07527390 0.12409803 -13.93659306 0.25098039 0.27450980 0.65882353
v -0.07959300 0.12913147 -13.93523312 0.25098039 0.27450980 0.65882353
v -0.07674494 0.13005961 -13.93517113 0.25098039 0.27450980 0.65882353
v -0.07303365 0.12575090 -13.93707085 0.25098039 0.27450980 0.65882353
v -0.08032356 0.13437189 -13.93415260 0.25098039 0.27450980 0.65882353
v -0.07798952 0.13360193 -13.93358421 0.25098039 0.27450980 0.65882353
v -0.07469620 0.13607629 -13.93044853 0.25098039 0.27450980 0.65882353
v -0.07125260 0.13246185 -13.93263626 0.25098039 0.27450980 0.65882353
v -0.07150014 0.13560963 -13.92667675 0.25098039 0.27450980 0.65882353
v -0.06913552 0.13256249 -13.92666054 0.25098039 0.27450980 0.65882353
v -0.06808749 0.12843981 -13.93407726 0.25098039 0.27450980 0.65882353
v -0.06924678 0.12406164 -13.93765640 0.25098039 0.27450980 0.65882353
v -0.06554055 0.12456638 -13.93509197 0.25098039 0.27450980 0.65882353
v -0.07064512 0.12135530 -13.93654156 0.25098039 0.27450980 0.65882353
v -0.07428771 0.13795385 -13.93132973 0.25098039 0.27450980 0.65882353
v -0.08717109 0.13702261 -13.93244171 0.25098039 0.27450980 0.65882353
v -0.08326991 0.12889078 -13.93329144 0.25098039 0.27450980 0.65882353
v -0.07800739 0.12280294 -13.93403244 0.25098039 0.27450980 0.65882353
v -0.07226117 0.11983796 -13.93403625 0.25098039 0.27450980 0.65882353
v -0.08565670 0.12795755 -13.92931080 0.25098039 0.27450980 0.65882353
v -0.08000231 0.12268575 -13.92970943 0.25098039 0.27450980 0.65882353
v -0.07453893 0.12024832 -13.92914677 0.25098039 0.27450980 0.65882353
v -0.08563216 0.12755382 -13.92448616 0.25098039 0.27450980 0.65882353
v -0.07989636 0.12313940 -13.92568493 0.25098039 0.27450980 0.65882353
v -0.09236076 0.13854051 -13.92146683 0.25098039 0.27450980 0.65882353
v -0.09178297 0.13788903 -13.92784309 0.25098039 0.27450980 0.65882353
v -0.07576677 0.12135157 -13.92659664 0.25098039 0.27450980 0.65882353
v -0.06481236 0.12205821 -13.93439674 0.25098039 0.27450980 0.65882353
v -0.06681570 0.12026561 -13.93122673 0.25098039 0.27450980 0.65882353
v -0.06888255 0.13306513 -13.92300701 0.25098039 0.27450980 0.65882353
v -0.06543857 0.12919813 -13.92829609 0.25098039 0.27450980 0.65882353
v -0.06579551 0.12831795 -13.92500687 0.25098039 0.27450980 0.65882353
v -0.07046299 0.13354579 -13.91905975 0.25098039 0.27450980 0.65882353
v -0.06673008 0.12735420 -13.92210674 0.25098039 0.27450980 0.65882353
v -0.06368302 0.12461670 -13.92890072 0.25098039 0.27450980 0.65882353
v -0.06421448 0.12649862 -13.93117046 0.25098039 0.27450980 0.65882353
v -0.09430271 0.14171290 -13.92011452 0.25098039 0.27450980 0.65882353
v -0.09118070 0.14249335 -13.91431522 0.25098039 0.27450980 0.65882353
v -0.08893044 0.13966438 -13.91562366 0.25098039 0.27450980 0.65882353
v -0.08297148 0.12927756 -13.91890526 0.25098039 0.27450980 0.65882353
v -0.08364484 0.14034621 -13.91252136 0.25098039 0.27450980 0.65882353
v -0.07809822 0.14233711 -13.91395760 0.25098039 0.27450980 0.65882353
v -0.07326163 0.13240829 -13.91637897 0.25098039 0.27450980 0.65882353
v -0.07797228 0.13086787 -13.91583252 0.25098039 0.27450980 0.65882353
v -0.06989138 0.12600073 -13.92023659 0.25098039 0.27450980 0.65882353
v -0.07300867 0.12514949 -13.92001915 0.25098039 0.27450980 0.65882353
v -0.07727939 0.12349071 -13.92214680 0.25098039 0.27450980 0.65882353
v -0.06853920 0.12258361 -13.92404079 0.25098039 0.27450980 0.65882353
v -0.06525549 0.12329565 -13.92596149 0.25098039 0.27450980 0.65882353
v -0.07015879 0.12036726 -13.92737675 0.25098039 0.27450980 0.65882353
v -0.07141492 0.12300949 -13.92291832 0.25098039 0.27450980 0.65882353
v -0.07316318 0.12166104 -13.92496967 0.25098039 0.27450980 0.65882353
v -0.14375731 0.13389036 -13.84421158 0.25098039 0.27450980 0.65882353
v -0.13769487 0.13323507 -13.84691334 0.25098039 0.27450980 0.65882353
v -0.14254975 0.13729380 -13.84901714 0.25098039 0.27450980 0.65882353
v -0.14769289 0.14452416 -13.85258961 0.25098039 0.27450980 0.65882353
v -0.15636361 0.15154646 -13.85276031 0.25098039 0.27450980 0.65882353
v -0.14168620 0.14582846 -13.85536194 0.25098039 0.27450980 0.65882353
v -0.13662699 0.13856286 -13.85101509 0.25098039 0.27450980 0.65882353
v -0.12997615 0.13229892 -13.84673786 0.25098039 0.27450980 0.65882353
v -0.13932943 0.15399447 -13.86105728 0.25098039 0.27450980 0.65882353
f 2 3 1
f 1 3 4
f 5 6 8
f 8 6 7
f 9 4 10
f 10 4 3
f 12 13 11
f 11 13 9
f 14 12 16
f 16 12 15
f 18 19 17
f 17 19 20
f 22 23 21
f 21 23 24
f 26 27 25
f 25 27 28
f 30 31 29
f 29 31 32
f 33 34 36
f 36 34 35
f 37 38 40
f 40 38 39
f 41 42 6
f 6 42 43
f 6 43 7
f 7 43 44
f 45 34 46
f 46 34 33
f 48 49 47
f 47 49 50
f 52 53 51
f 51 53 54
f 56 52 55
f 55 52 51
f 58 59 57
f 57 59 60
f 61 62 4
f 4 62 1
f 64 65 63
f 63 65 66
f 68 69 67
f 67 69 70
f 72 73 71
f 71 73 74
f 76 77 75
f 75 77 78
f 53 79 54
f 54 79 80
f 82 83 81
f 81 83 84
f 85 86 52
f 52 86 53
f 57 60 87
f 87 60 88
f 89 90 43
f 43 90 44
f 43 42 89
f 89 42 91
f 40 39 92
f 92 39 93
f 94 70 64
f 64 70 69
f 13 61 9
f 9 61 4
f 25 28 69
f 69 28 95
f 96 25 68
f 68 25 69
f 98 99 97
f 97 99 100
f 101 102 104
f 104 102 103
f 106 30 105
f 105 30 29
f 51 54 107
f 107 54 108
f 54 80 108
f 108 80 109
f 111 112 110
f 110 112 113
f 115 5 114
f 114 5 116
f 115 41 5
f 5 41 6
f 36 35 111
f 111 35 117
f 35 118 117
f 117 118 119
f 34 120 35
f 35 120 118
f 34 45 120
f 120 45 121
f 125 126 124
f 124 126 127
f 128 129 14
f 14 129 130
f 33 131 46
f 46 131 132
f 133 94 63
f 63 94 64
f 134 135 137
f 137 135 136
f 139 140 138
f 138 140 141
f 77 142 78
f 78 142 143
f 144 145 20
f 20 145 146
f 148 149 147
f 147 149 72
f 151 152 150
f 150 152 153
f 82 101 83
f 83 101 104
f 101 82 155
f 155 82 154
f 156 157 58
f 58 157 59
f 158 68 147
f 147 68 67
f 159 146 15
f 15 146 16
f 68 158 96
f 96 158 160
f 129 66 130
f 130 66 65
f 162 163 161
f 161 163 164
f 166 167 165
f 165 167 168
f 170 171 169
f 169 171 172
f 174 171 173
f 173 171 170
f 176 177 175
f 175 177 178
f 180 181 179
f 179 181 24
f 182 183 21
f 21 183 184
f 81 185 82
f 82 185 154
f 186 187 188
f 188 187 144
f 158 71 160
f 160 71 189
f 190 135 157
f 157 135 59
f 169 172 139
f 139 172 140
f 147 72 158
f 158 72 71
f 192 193 191
f 191 193 194
f 167 166 49
f 49 166 195
f 196 190 50
f 50 190 157
f 197 198 200
f 200 198 199
f 21 24 182
f 182 24 181
f 146 159 20
f 20 159 17
f 182 181 81
f 81 181 185
f 201 185 180
f 180 185 181
f 202 203 83
f 83 203 84
f 205 206 204
f 204 206 85
f 207 22 184
f 184 22 21
f 179 24 208
f 208 24 23
f 208 209 179
f 179 209 205
f 209 210 205
f 205 210 206
f 212 206 211
f 211 206 210
f 179 205 180
f 180 205 204
f 213 176 88
f 88 176 214
f 86 85 212
f 212 85 206
f 193 217 218
f 217 219 218
f 218 219 220
f 219 18 220
f 220 18 17
f 19 221 20
f 20 221 144
f 222 223 225
f 225 223 224
f 175 226 176
f 176 226 214
f 227 87 214
f 214 87 88
f 220 17 228
f 228 17 159
f 134 213 60
f 60 213 88
f 138 229 151
f 151 229 152
f 193 192 210
f 210 192 211
f 230 194 218
f 218 194 193
f 231 232 228
f 228 232 230
f 233 234 91
f 91 234 89
f 235 236 93
f 93 236 92
f 230 232 234
f 234 232 237
f 47 238 48
f 48 238 239
f 240 191 235
f 235 191 236
f 5 8 116
f 116 8 241
f 242 243 189
f 189 243 160
f 244 245 98
f 98 245 99
f 156 246 47
f 47 246 238
f 76 247 77
f 77 247 248
f 250 125 249
f 249 125 124
f 252 253 251
f 251 253 254
f 111 110 36
f 36 110 255
f 256 33 255
f 255 33 36
f 257 258 154
f 154 258 155
f 63 169 133
f 133 169 139
f 66 170 63
f 63 170 169
f 173 170 129
f 129 170 66
f 129 128 173
f 173 128 259
f 128 260 259
f 259 260 261
f 213 134 262
f 262 134 137
f 263 264 186
f 186 264 187
f 112 265 113
f 113 265 266
f 11 267 268
f 234 233 230
f 230 233 194
f 153 269 70
f 70 269 67
f 175 178 165
f 165 178 141
f 150 153 94
f 94 153 70
f 271 221 270
f 270 221 207
f 269 153 272
f 272 153 152
f 121 45 109
f 109 45 108
f 47 50 156
f 156 50 157
f 57 273 58
f 58 273 274
f 145 275 260
f 260 275 261
f 276 149 143
f 143 149 78
f 148 269 75
f 75 269 272
f 207 277 270
f 270 277 278
f 195 196 49
f 49 196 50
f 59 135 60
f 60 135 134
f 83 104 202
f 202 104 279
f 149 148 78
f 78 148 75
f 247 278 248
f 248 278 277
f 183 182 84
f 84 182 81
f 48 239 281
f 281 239 282
f 227 223 283
f 283 223 222
f 223 226 224
f 224 226 168
f 281 282 224
f 224 282 225
f 165 168 175
f 175 168 226
f 264 263 138
f 138 263 229
f 14 16 128
f 128 16 260
f 220 228 218
f 218 228 230
f 87 227 284
f 284 227 283
f 260 16 145
f 145 16 146
f 244 98 258
f 258 98 155
f 58 274 156
f 156 274 246
f 107 285 51
f 51 285 55
f 243 286 160
f 160 286 96
f 234 237 89
f 89 237 90
f 46 132 107
f 107 132 285
f 253 252 249
f 249 252 250
f 286 26 96
f 96 26 25
f 106 105 287
f 287 105 288
f 272 152 289
f 289 152 229
f 138 151 139
f 139 151 133
f 183 290 161
f 161 290 162
f 291 292 277
f 277 292 293
f 151 150 133
f 133 150 94
f 262 275 177
f 177 275 187
f 144 187 145
f 145 187 275
f 273 57 284
f 284 57 87
f 174 136 190
f 190 136 135
f 111 117 112
f 112 117 38
f 117 119 38
f 38 119 123
f 112 38 265
f 265 38 37
f 287 288 254
f 254 288 251
f 228 159 231
f 231 159 15
f 223 227 226
f 226 227 214
f 147 67 148
f 148 67 269
f 224 168 281
f 281 168 167
f 199 163 200
f 200 163 162
f 45 46 108
f 108 46 107
f 281 167 48
f 48 167 49
f 161 164 291
f 291 164 292
f 38 123 39
f 293 294 277
f 277 294 248
f 284 283 296
f 296 283 295
f 284 296 273
f 273 296 297
f 274 273 298
f 298 273 297
f 246 274 299
f 299 274 298
f 283 222 295
f 295 222 300
f 222 225 300
f 300 225 301
f 301 225 302
f 302 225 282
f 303 304 300
f 300 304 295
f 306 307 305
f 305 307 308
f 309 310 308
f 308 310 305
f 308 307 312
f 312 307 311
f 313 314 312
f 312 314 315
f 311 316 312
f 312 316 313
f 317 304 311
f 311 304 316
f 315 309 312
f 312 309 308
f 318 319 321
f 321 319 320
f 319 318 309
f 309 318 310
f 311 307 317
f 317 307 306
f 306 297 317
f 317 297 296
f 306 322 297
f 297 322 298
f 305 323 306
f 306 323 322
f 323 305 324
f 324 305 310
f 304 317 295
f 295 317 296
f 318 325 310
f 310 325 324
f 323 324 326
f 326 324 327
f 324 325 327
f 327 325 328
f 326 327 329
f 329 327 330
f 329 331 326
f 326 331 332
f 333 330 328
f 328 330 327
f 323 326 322
f 322 326 332
f 322 332 298
f 298 332 299
f 325 318 334
f 334 318 321
f 313 316 335
f 335 316 304
f 335 336 313
f 313 336 314
f 304 303 335
f 335 303 337
f 336 335 338
f 338 335 337
f 336 339 314
f 314 339 340
f 246 299 238
f 238 299 341
f 239 342 282
f 282 342 302
f 342 239 341
f 341 239 238
f 341 331 342
f 342 331 343
f 331 329 343
f 343 329 344
f 342 343 302
f 302 343 345
f 341 299 331
f 331 299 332
f 346 301 345
f 345 301 302
f 346 303 301
f 301 303 300
f 347 337 346
f 346 337 303
f 347 346 348
f 348 346 345
f 349 347 350
f 350 347 348
f 343 344 345
f 345 344 348
f 344 351 348
f 348 351 350
f 337 347 338
f 338 347 349
f 353 338 352
f 352 338 349
f 352 355 354
f 354 355 356
f 352 349 355
f 355 349 350
f 352 354 353
f 353 354 334
f 353 334 339
f 339 334 321
f 339 336 353
f 353 336 338
f 329 330 344
f 344 330 351
f 356 351 333
f 333 351 330
f 356 355 351
f 351 355 350
f 354 356 328
f 328 356 333
f 328 325 354
f 354 325 334
f 309 315 319
f 319 315 320
f 320 340 321
f 321 340 339
f 320 315 340
f 340 315 314
f 137 136 261
f 261 136 259
f 140 166 141
f 141 166 165
f 172 171 195
f 195 171 196
f 171 174 196
f 196 174 190
f 178 177 264
f 264 177 187
f 172 195 140
f 140 195 166
f 137 261 262
f 262 261 275
f 178 264 141
f 141 264 138
f 262 177 213
f 213 177 176
f 136 174 259
f 259 174 173
f 358 359 357
f 357 359 360
f 362 363 361
f 361 363 364
f 361 364 365
f 365 364 366
f 367 368 370
f 370 368 369
f 76 371 247
f 247 371 372
f 373 374 362
f 362 374 363
f 376 377 375
f 375 377 378
f 289 229 380
f 380 229 379
f 381 379 263
f 263 379 229
f 383 384 382
f 382 384 385
f 386 368 374
f 374 368 363
f 76 289 371
f 371 289 380
f 377 376 359
f 359 376 387
f 388 386 360
f 360 386 374
f 389 383 366
f 366 383 390
f 392 393 391
f 391 393 394
f 383 382 390
f 390 382 395
f 396 365 390
f 390 365 366
f 389 366 367
f 367 366 364
f 357 397 358
f 358 397 398
f 373 399 357
f 357 399 397
f 389 367 400
f 400 367 370
f 382 385 375
f 375 385 372
f 357 360 373
f 373 360 374
f 361 401 362
f 362 401 402
f 387 388 359
f 359 388 360
f 363 368 364
f 364 368 367
f 358 398 403
f 403 398 404
f 396 392 405
f 405 392 391
f 392 395 393
f 393 395 378
f 393 403 394
f 394 403 404
f 375 378 382
f 382 378 395
f 365 396 406
f 406 396 405
f 362 402 373
f 373 402 399
f 271 270 400
f 400 270 384
f 401 361 406
f 406 361 365
f 381 369 386
f 386 369 368
f 392 396 395
f 395 396 390
f 393 378 403
f 403 378 377
f 403 377 358
f 358 377 359
f 406 405 408
f 408 405 407
f 406 408 401
f 401 408 409
f 401 409 402
f 402 409 410
f 402 410 399
f 399 410 411
f 405 391 407
f 407 391 412
f 391 394 412
f 412 394 413
f 394 404 413
f 413 404 414
f 415 416 412
f 412 416 407
f 418 419 417
f 417 419 420
f 421 422 418
f 418 422 419
f 419 422 424
f 424 422 423
f 425 426 424
f 424 426 427
f 423 428 424
f 424 428 425
f 427 420 424
f 424 420 419
f 420 429 417
f 417 429 430
f 423 422 431
f 431 422 421
f 421 409 431
f 431 409 408
f 421 432 409
f 409 432 410
f 418 433 421
f 421 433 432
f 434 433 417
f 417 433 418
f 431 416 423
f 423 416 428
f 416 431 407
f 407 431 408
f 435 434 430
f 430 434 417
f 433 434 436
f 436 434 437
f 434 435 437
f 437 435 438
f 436 437 439
f 439 437 440
f 439 441 436
f 436 441 442
f 438 443 437
f 437 443 440
f 436 442 433
f 433 442 432
f 432 442 410
f 410 442 411
f 435 430 445
f 445 430 444
f 430 429 444
f 444 429 446
f 425 428 447
f 447 428 416
f 426 425 448
f 448 425 447
f 416 415 447
f 447 415 449
f 447 449 448
f 448 449 450
f 451 452 448
f 448 452 426
f 446 452 444
f 444 452 451
f 399 411 397
f 397 411 453
f 398 454 404
f 404 454 414
f 454 398 453
f 453 398 397
f 453 441 454
f 454 441 455
f 441 439 455
f 455 439 456
f 454 455 414
f 414 455 457
f 441 453 442
f 442 453 411
f 458 413 457
f 457 413 414
f 458 415 413
f 413 415 412
f 458 459 415
f 415 459 449
f 459 458 460
f 460 458 457
f 461 459 462
f 462 459 460
f 455 456 457
f 457 456 460
f 456 463 460
f 460 463 462
f 459 461 449
f 449 461 450
f 465 450 464
f 464 450 461
f 464 467 466
f 466 467 468
f 464 461 467
f 467 461 462
f 464 466 465
f 465 466 445
f 465 445 451
f 451 445 444
f 451 448 465
f 465 448 450
f 439 440 456
f 456 440 463
f 468 463 443
f 443 463 440
f 468 467 463
f 463 467 462
f 466 468 438
f 438 468 443
f 438 435 466
f 466 435 445
f 420 427 429
f 429 427 446
f 446 427 452
f 452 427 426
f 370 369 188
f 188 369 186
f 371 376 372
f 372 376 375
f 380 379 387
f 387 379 388
f 379 381 388
f 388 381 386
f 385 384 278
f 278 384 270
f 380 387 371
f 371 387 376
f 400 370 271
f 271 370 188
f 385 278 372
f 372 278 247
f 400 384 389
f 389 384 383
f 369 381 186
f 186 381 263
f 221 271 144
f 144 271 188
f 221 19 207
f 207 19 22
f 19 18 22
f 22 18 23
f 18 219 23
f 23 219 208
f 469 470 472
f 472 470 471
f 474 475 473
f 473 475 476
f 473 476 477
f 477 476 478
f 480 481 479
f 479 481 482
f 483 484 474
f 474 484 475
f 486 487 485
f 485 487 488
f 489 490 77
f 77 490 142
f 491 489 248
f 248 489 77
f 493 494 492
f 492 494 495
f 496 480 484
f 484 480 475
f 486 497 487
f 487 497 471
f 498 496 472
f 472 496 484
f 499 493 478
f 478 493 500
f 501 502 504
f 504 502 503
f 493 492 500
f 500 492 505
f 506 477 500
f 500 477 478
f 499 478 479
f 479 478 476
f 469 507 470
f 470 507 508
f 483 509 469
f 469 509 507
f 479 482 499
f 499 482 510
f 492 495 485
f 485 495 511
f 483 469 484
f 484 469 472
f 473 512 474
f 474 512 513
f 497 498 471
f 471 498 472
f 475 480 476
f 476 480 479
f 470 508 514
f 514 508 515
f 506 502 516
f 516 502 501
f 503 502 488
f 488 502 505
f 514 515 503
f 503 515 504
f 485 488 492
f 492 488 505
f 477 506 517
f 517 506 516
f 474 513 483
f 483 513 509
f 510 292 494
f 494 292 164
f 512 473 517
f 517 473 477
f 491 481 496
f 496 481 480
f 502 506 505
f 505 506 500
f 503 488 514
f 514 488 487
f 514 487 470
f 470 487 471
f 517 516 519
f 519 516 518
f 517 519 512
f 512 519 520
f 512 520 513
f 513 520 521
f 513 521 509
f 509 521 522
f 516 501 518
f 518 501 523
f 501 504 523
f 523 504 524
f 524 504 525
f 525 504 515
f 526 527 523
f 523 527 518
f 529 530 528
f 528 530 531
f 532 533 529
f 529 533 530
f 530 533 535
f 535 533 534
f 536 537 535
f 535 537 538
f 534 539 535
f 535 539 536
f 538 531 535
f 535 531 530
f 540 541 531
f 531 541 528
f 533 532 534
f 534 532 542
f 532 520 542
f 542 520 519
f 532 543 520
f 520 543 521
f 529 544 532
f 532 544 543
f 544 529 545
f 545 529 528
f 534 542 539
f 539 542 527
f 527 542 518
f 518 542 519
f 541 546 528
f 528 546 545
f 547 544 548
f 548 544 545
f 546 549 545
f 545 549 548
f 550 547 551
f 551 547 548
f 547 550 553
f 553 550 552
f 549 554 548
f 548 554 551
f 544 547 543
f 543 547 553
f 543 553 521
f 521 553 522
f 546 541 556
f 556 541 555
f 541 540 555
f 555 540 557
f 536 539 558
f 558 539 527
f 537 536 559
f 559 536 558
f 527 526 558
f 558 526 560
f 559 558 561
f 561 558 560
f 559 562 537
f 537 562 563
f 557 563 555
f 555 563 562
f 509 522 507
f 507 522 564
f 508 565 515
f 515 565 525
f 565 508 564
f 564 508 507
f 564 552 565
f 565 552 566
f 552 550 566
f 566 550 567
f 565 566 525
f 525 566 568
f 564 522 552
f 552 522 553
f 569 524 568
f 568 524 525
f 569 526 524
f 524 526 523
f 570 560 569
f 569 560 526
f 570 569 571
f 571 569 568
f 572 570 573
f 573 570 571
f 566 567 568
f 568 567 571
f 567 574 571
f 571 574 573
f 570 572 560
f 560 572 561
f 576 561 575
f 575 561 572
f 575 578 577
f 577 578 579
f 575 572 578
f 578 572 573
f 575 577 576
f 576 577 556
f 576 556 562
f 562 556 555
f 562 559 576
f 576 559 561
f 550 551 567
f 567 551 574
f 579 574 554
f 554 574 551
f 579 578 574
f 574 578 573
f 579 554 577
f 577 554 549
f 549 546 577
f 577 546 556
f 531 538 540
f 540 538 557
f 557 538 563
f 563 538 537
f 481 294 482
f 482 294 293
f 580 486 511
f 511 486 485
f 490 489 497
f 497 489 498
f 489 491 498
f 498 491 496
f 163 495 164
f 164 495 494
f 580 490 486
f 486 490 497
f 482 293 510
f 510 293 292
f 495 163 511
f 511 163 199
f 494 493 510
f 510 493 499
f 481 491 294
f 294 491 248
f 582 583 581
f 581 583 584
f 586 587 585
f 585 587 588
f 585 588 589
f 589 588 590
f 592 593 591
f 591 593 594
f 595 596 598
f 598 596 597
f 599 600 586
f 586 600 587
f 601 602 604
f 604 602 603
f 605 606 608
f 608 606 607
f 609 607 200
f 200 607 606
f 610 611 613
f 613 611 612
f 600 614 587
f 587 614 592
f 596 605 597
f 597 605 608
f 602 615 603
f 603 615 583
f 616 614 584
f 584 614 600
f 611 618 617
f 617 618 590
f 620 621 619
f 619 621 622
f 610 623 611
f 611 623 618
f 624 589 618
f 618 589 590
f 617 590 591
f 591 590 588
f 581 625 582
f 582 625 626
f 599 627 581
f 581 627 625
f 591 594 617
f 617 594 628
f 601 610 598
f 598 610 613
f 581 584 599
f 599 584 600
f 585 629 586
f 586 629 630
f 615 616 583
f 583 616 584
f 587 592 588
f 588 592 591
f 582 626 631
f 631 626 632
f 624 620 633
f 633 620 619
f 621 620 604
f 604 620 623
f 631 632 621
f 621 632 622
f 610 601 623
f 623 601 604
f 589 624 634
f 634 624 633
f 586 630 599
f 599 630 627
f 203 202 628
f 628 202 612
f 629 585 634
f 634 585 589
f 609 593 614
f 614 593 592
f 620 624 623
f 623 624 618
f 631 621 603
f 603 621 604
f 582 631 583
f 583 631 603
f 634 633 636
f 636 633 635
f 634 636 629
f 629 636 637
f 629 637 630
f 630 637 638
f 630 638 627
f 627 638 639
f 633 619 635
f 635 619 640
f 619 622 640
f 640 622 641
f 641 622 642
f 642 622 632
f 644 635 643
f 643 635 640
f 645 646 648
f 648 646 647
f 649 650 646
f 646 650 647
f 647 650 652
f 652 650 651
f 652 653 655
f 655 653 654
f 651 656 652
f 652 656 653
f 655 648 652
f 652 648 647
f 648 657 645
f 645 657 658
f 650 649 651
f 651 649 659
f 649 637 659
f 659 637 636
f 649 660 637
f 637 660 638
f 661 660 646
f 646 660 649
f 662 661 645
f 645 661 646
f 651 659 656
f 656 659 644
f 644 659 635
f 635 659 636
f 663 662 658
f 658 662 645
f 664 661 665
f 665 661 662
f 663 666 662
f 662 666 665
f 667 664 668
f 668 664 665
f 664 667 670
f 670 667 669
f 666 671 665
f 665 671 668
f 661 664 660
f 660 664 670
f 660 670 638
f 638 670 639
f 658 672 663
f 663 672 673
f 658 657 672
f 672 657 674
f 653 656 675
f 675 656 644
f 653 675 654
f 654 675 676
f 675 644 677
f 677 644 643
f 676 675 678
f 678 675 677
f 679 680 676
f 676 680 654
f 674 680 672
f 672 680 679
f 627 639 625
f 625 639 681
f 626 682 632
f 632 682 642
f 681 682 625
f 625 682 626
f 669 683 681
f 681 683 682
f 667 684 669
f 669 684 683
f 682 683 642
f 642 683 685
f 681 639 669
f 669 639 670
f 686 641 685
f 685 641 642
f 641 686 640
f 640 686 643
f 686 687 643
f 643 687 677
f 687 686 688
f 688 686 685
f 689 687 690
f 690 687 688
f 683 684 685
f 685 684 688
f 684 691 688
f 688 691 690
f 687 689 677
f 677 689 678
f 693 678 692
f 692 678 689
f 692 695 694
f 694 695 696
f 692 689 695
f 695 689 690
f 692 694 693
f 693 694 673
f 693 673 679
f 679 673 672
f 679 676 693
f 693 676 678
f 684 667 691
f 691 667 668
f 696 691 671
f 671 691 668
f 696 695 691
f 691 695 690
f 694 696 666
f 666 696 671
f 666 663 694
f 694 663 673
f 648 655 657
f 657 655 674
f 674 655 680
f 680 655 654
f 593 162 594
f 594 162 290
f 598 597 601
f 601 597 602
f 615 608 616
f 616 608 607
f 607 609 616
f 616 609 614
f 697 595 613
f 613 595 598
f 597 608 602
f 602 608 615
f 594 290 628
f 628 290 203
f 628 612 617
f 617 612 611
f 593 609 162
f 162 609 200
f 105 29 698
f 698 29 699
f 268 126 701
f 701 126 700
f 126 125 700
f 700 125 702
f 252 703 250
f 250 703 704
f 32 268 705
f 705 268 701
f 288 105 706
f 706 105 698
f 29 32 699
f 699 32 705
f 707 251 706
f 706 251 288
f 250 704 125
f 125 704 702
f 703 252 707
f 707 252 251
f 706 708 707
f 707 708 709
f 707 709 703
f 703 709 710
f 703 710 704
f 704 710 711
f 704 711 702
f 702 711 712
f 706 698 708
f 708 698 713
f 698 699 713
f 713 699 714
f 699 705 714
f 714 705 715
f 717 708 716
f 716 708 713
f 719 720 718
f 718 720 721
f 722 723 719
f 719 723 720
f 724 725 723
f 723 725 720
f 724 726 725
f 725 726 727
f 728 721 725
f 725 721 720
f 721 728 729
f 729 728 730
f 729 731 721
f 721 731 718
f 724 723 732
f 732 723 722
f 722 710 732
f 732 710 709
f 722 733 710
f 710 733 711
f 719 734 722
f 722 734 733
f 734 719 735
f 735 719 718
f 724 732 726
f 726 732 717
f 717 732 708
f 708 732 709
f 731 736 718
f 718 736 735
f 737 734 738
f 738 734 735
f 736 739 735
f 735 739 738
f 740 737 741
f 741 737 738
f 737 740 743
f 743 740 742
f 739 744 738
f 738 744 741
f 734 737 733
f 733 737 743
f 733 743 711
f 711 743 712
f 736 731 746
f 746 731 745
f 731 729 745
f 745 729 730
f 727 726 747
f 747 726 717
f 748 727 749
f 749 727 747
f 747 717 750
f 750 717 716
f 749 747 751
f 751 747 750
f 749 752 748
f 748 752 753
f 730 753 745
f 745 753 752
f 728 725 748
f 748 725 727
f 730 728 753
f 753 728 748
f 700 702 754
f 754 702 712
f 705 701 715
f 715 701 755
f 754 755 700
f 700 755 701
f 742 756 754
f 754 756 755
f 740 757 742
f 742 757 756
f 755 756 715
f 715 756 758
f 754 712 742
f 742 712 743
f 759 714 758
f 758 714 715
f 714 759 713
f 713 759 716
f 759 760 716
f 716 760 750
f 760 759 761
f 761 759 758
f 762 760 763
f 763 760 761
f 756 757 758
f 758 757 761
f 757 764 761
f 761 764 763
f 760 762 750
f 750 762 751
f 766 751 765
f 765 751 762
f 767 765 769
f 769 765 768
f 765 762 768
f 768 762 763
f 765 767 766
f 766 767 746
f 766 746 752
f 752 746 745
f 752 749 766
f 766 749 751
f 757 740 764
f 764 740 741
f 769 764 744
f 744 764 741
f 769 768 764
f 764 768 763
f 767 769 739
f 739 769 744
f 739 736 767
f 767 736 746
f 219 217 208
f 208 217 209
f 209 217 210
f 210 217 193
f 198 580 199
f 199 580 511
f 76 75 289
f 289 75 272
f 277 207 291
f 291 207 184
f 290 183 203
f 203 183 84
f 490 580 142
f 142 580 198
f 142 198 143
f 143 198 197
f 149 276 72
f 72 276 73
f 104 103 279
f 279 103 770
f 770 596 279
f 279 596 595
f 605 596 771
f 771 596 770
f 771 770 772
f 772 770 103
f 772 103 773
f 773 103 102
f 155 774 101
f 101 774 102
f 773 102 97
f 97 102 774
f 775 773 100
f 100 773 97
f 773 775 772
f 772 775 776
f 772 776 771
f 771 776 777
f 200 606 197
f 197 606 777
f 189 71 778
f 778 71 74
f 97 774 98
f 98 774 155
f 183 161 184
f 184 161 291
f 777 276 197
f 197 276 143
f 777 606 771
f 771 606 605
f 613 612 697
f 697 612 202
f 595 697 279
f 279 697 202
f 73 276 776
f 776 276 777
f 776 775 73
f 73 775 74
f 100 778 775
f 775 778 74
f 778 100 189
f 189 100 99
f 245 242 99
f 99 242 189
f 131 33 256
f 28 1 95
f 95 1 62
f 27 2 28
f 28 2 1
f 265 115 266
f 266 115 114
f 95 62 69
f 69 62 64
f 62 61 64
f 64 61 65
f 61 13 65
f 65 13 130
f 13 12 130
f 130 12 14
f 31 11 32
f 32 11 268
f 15 12 31
f 31 12 11
f 31 30 15
f 15 30 231
f 30 106 231
f 231 106 232
f 287 237 106
f 106 237 232
f 254 90 287
f 287 90 237
f 253 44 254
f 254 44 90
f 253 249 44
f 44 249 7
f 267 127 268
f 268 127 126
f 10 3 241
f 241 3 116
f 3 2 116
f 116 2 114
f 2 27 114
f 114 27 266
f 27 26 266
f 266 26 113
f 26 286 113
f 113 286 110
f 286 243 110
f 110 243 255
f 243 242 255
f 255 242 256
f 242 245 256
f 256 245 131
f 245 244 131
f 131 244 132
f 265 37 115
f 115 37 41
f 41 37 42
f 42 37 40
f 92 91 40
f 40 91 42
f 236 233 92
f 92 233 91
f 191 194 236
f 236 194 233
f 258 285 244
f 244 285 132
f 257 55 258
f 258 55 285
f 257 154 201
f 201 154 185
f 56 201 204
f 204 201 180
f 55 257 56
f 56 257 201
f 204 85 56
f 56 85 52
f 86 122 53
f 53 122 79
f 212 215 86
f 86 215 122
f 211 216 212
f 212 216 215
f 192 280 211
f 211 280 216
f 191 240 192
f 192 240 280
f 249 124 7
f 7 124 8
f 124 127 8
f 8 127 241
f 127 267 241
f 241 267 10
f 10 267 9
f 9 267 11
f 93 39 235
f 235 39 240
f 39 123 240
f 240 123 280
f 123 119 280
f 280 119 216
f 119 118 216
f 216 118 215
f 118 120 215
f 215 120 122
f 120 121 122
f 122 121 79
f 121 109 79
f 79 109 80

