# https://github.com/mikedh/trimesh
v -0.12160386 0.02556041 -15.32236385 0.25098039 0.27450980 0.65882353
v -0.12721431 0.02995708 -15.32954502 0.25098039 0.27450980 0.65882353
v -0.11699183 0.02632036 -15.33431530 0.25098039 0.27450980 0.65882353
v -0.11220953 0.02206632 -15.32553959 0.25098039 0.27450980 0.65882353
v -0.12861280 0.03794320 -15.35065937 0.25098039 0.27450980 0.65882353
v -0.12551829 0.04937480 -15.35608482 0.25098039 0.27450980 0.65882353
v -0.11208972 0.04017360 -15.35756683 0.25098039 0.27450980 0.65882353
v -0.11731385 0.03221384 -15.35353947 0.25098039 0.27450980 0.65882353
v -0.10411987 0.02148298 -15.32658958 0.25098039 0.27450980 0.65882353
v -0.10933682 0.02292673 -15.33737373 0.25098039 0.27450980 0.65882353
v -0.09967388 0.02663944 -15.32664585 0.25098039 0.27450980 0.65882353
v -0.09520578 0.02719138 -15.31214333 0.25098039 0.27450980 0.65882353
v -0.09977935 0.02224138 -15.31548786 0.25098039 0.27450980 0.65882353
v -0.09349257 0.02445275 -15.30339336 0.25098039 0.27450980 0.65882353
v -0.09726171 0.03692555 -15.30838299 0.25098039 0.27450980 0.65882353
v -0.09760694 0.02793334 -15.29531193 0.25098039 0.27450980 0.65882353
v -0.12370506 0.03898564 -15.29034615 0.25098039 0.27450980 0.65882353
v -0.13630940 0.03653249 -15.28796196 0.25098039 0.27450980 0.65882353
v -0.13029718 0.02428057 -15.28085899 0.25098039 0.27450980 0.65882353
v -0.11790574 0.02761288 -15.28457069 0.25098039 0.27450980 0.65882353
v -0.14975557 0.02179820 -15.28451538 0.25098039 0.27450980 0.65882353
v -0.13885508 0.02252437 -15.28173351 0.25098039 0.27450980 0.65882353
v -0.14487004 0.03556659 -15.28810978 0.25098039 0.27450980 0.65882353
v -0.15453377 0.03443839 -15.29023361 0.25098039 0.27450980 0.65882353
v -0.13800293 0.02848684 -15.31953716 0.25098039 0.27450980 0.65882353
v -0.14440522 0.03385626 -15.32557106 0.25098039 0.27450980 0.65882353
v -0.13862322 0.03325268 -15.32542419 0.25098039 0.27450980 0.65882353
v -0.13241936 0.02870494 -15.32019997 0.25098039 0.27450980 0.65882353
v -0.09248610 0.03315579 -15.33647537 0.25098039 0.27450980 0.65882353
v -0.09611496 0.04191203 -15.32858276 0.25098039 0.27450980 0.65882353
v -0.09621477 0.03460093 -15.32544231 0.25098039 0.27450980 0.65882353
v -0.09532709 0.02854420 -15.33683681 0.25098039 0.27450980 0.65882353
v -0.16462360 0.04640503 -15.34046364 0.25098039 0.27450980 0.65882353
v -0.16828427 0.05969542 -15.34170151 0.25098039 0.27450980 0.65882353
v -0.16292229 0.06170184 -15.34238911 0.25098039 0.27450980 0.65882353
v -0.16108561 0.04915169 -15.34079742 0.25098039 0.27450980 0.65882353
v -0.14239605 0.06028037 -15.35103130 0.25098039 0.27450980 0.65882353
v -0.14751561 0.06844281 -15.34728050 0.25098039 0.27450980 0.65882353
v -0.14040156 0.08058622 -15.34395981 0.25098039 0.27450980 0.65882353
v -0.13366760 0.07392044 -15.34534740 0.25098039 0.27450980 0.65882353
v -0.13428997 0.05362471 -15.35419083 0.25098039 0.27450980 0.65882353
v -0.12755686 0.06560685 -15.35118866 0.25098039 0.27450980 0.65882353
v -0.11922312 0.05914091 -15.35427952 0.25098039 0.27450980 0.65882353
v -0.10633583 0.04753327 -15.35724831 0.25098039 0.27450980 0.65882353
v -0.17955843 0.05660416 -15.33688354 0.25098039 0.27450980 0.65882353
v -0.17914291 0.04668655 -15.33556652 0.25098039 0.27450980 0.65882353
v -0.07063955 -0.01811582 -15.28767109 0.25098039 0.27450980 0.65882353
v -0.07478033 -0.02178761 -15.28641510 0.25098039 0.27450980 0.65882353
v -0.07782625 -0.01757185 -15.28847599 0.25098039 0.27450980 0.65882353
v -0.07335272 -0.01450955 -15.28899860 0.25098039 0.27450980 0.65882353
v -0.18617414 0.05451635 -15.31819248 0.25098039 0.27450980 0.65882353
v -0.18364082 0.05890283 -15.30936718 0.25098039 0.27450980 0.65882353
v -0.18710347 0.06326874 -15.31316566 0.25098039 0.27450980 0.65882353
v -0.18778194 0.06048434 -15.32178974 0.25098039 0.27450980 0.65882353
v -0.18373621 0.04657973 -15.31305981 0.25098039 0.27450980 0.65882353
v -0.17858589 0.05241740 -15.30455112 0.25098039 0.27450980 0.65882353
v -0.06718092 -0.01340641 -15.27705765 0.25098039 0.27450980 0.65882353
v -0.06613086 -0.01402577 -15.28189373 0.25098039 0.27450980 0.65882353
v -0.06899816 -0.00986581 -15.28215408 0.25098039 0.27450980 0.65882353
v -0.07082538 -0.00931349 -15.27737999 0.25098039 0.27450980 0.65882353
v -0.10706840 0.02001843 -15.31725597 0.25098039 0.27450980 0.65882353
v -0.11649978 0.01997309 -15.31703472 0.25098039 0.27450980 0.65882353
v -0.09985889 0.00696120 -15.30530453 0.25098039 0.27450980 0.65882353
v -0.10751648 0.01252912 -15.30907154 0.25098039 0.27450980 0.65882353
v -0.10153657 0.01651106 -15.31045246 0.25098039 0.27450980 0.65882353
v -0.09578344 0.01253192 -15.30590343 0.25098039 0.27450980 0.65882353
v -0.13070257 0.01067946 -15.30644417 0.25098039 0.27450980 0.65882353
v -0.13574161 0.01959900 -15.31248951 0.25098039 0.27450980 0.65882353
v -0.12920848 0.02048932 -15.31243038 0.25098039 0.27450980 0.65882353
v -0.12222786 0.01043334 -15.30704308 0.25098039 0.27450980 0.65882353
v -0.14885776 0.01513037 -15.31308746 0.25098039 0.27450980 0.65882353
v -0.14288586 0.00697251 -15.30704498 0.25098039 0.27450980 0.65882353
v -0.15118530 0.00550095 -15.30833149 0.25098039 0.27450980 0.65882353
v -0.15409684 0.01114214 -15.31312752 0.25098039 0.27450980 0.65882353
v -0.12967415 -0.00616881 -15.29508781 0.25098039 0.27450980 0.65882353
v -0.12554950 -0.01015121 -15.28783607 0.25098039 0.27450980 0.65882353
v -0.12838848 -0.01098710 -15.28713608 0.25098039 0.27450980 0.65882353
v -0.13294946 -0.00654241 -15.29484558 0.25098039 0.27450980 0.65882353
v -0.19009341 0.06843737 -15.31552505 0.25098039 0.27450980 0.65882353
v -0.18826193 0.06662006 -15.32438755 0.25098039 0.27450980 0.65882353
v -0.16847575 0.01732456 -15.29060078 0.25098039 0.27450980 0.65882353
v -0.17587906 0.01573558 -15.29849148 0.25098039 0.27450980 0.65882353
v -0.17328650 0.00427400 -15.29316425 0.25098039 0.27450980 0.65882353
v -0.16659883 0.00906851 -15.28669357 0.25098039 0.27450980 0.65882353
v -0.17631240 0.06279282 -15.30335808 0.25098039 0.27450980 0.65882353
v -0.18144020 0.06702233 -15.30586720 0.25098039 0.27450980 0.65882353
v -0.07059020 -0.01522323 -15.27249527 0.25098039 0.27450980 0.65882353
v -0.07418138 -0.01127884 -15.27306938 0.25098039 0.27450980 0.65882353
v -0.11554396 0.06607340 -15.34354496 0.25098039 0.27450980 0.65882353
v -0.10157634 0.05269596 -15.35026073 0.25098039 0.27450980 0.65882353
v -0.12566683 0.07457943 -15.33871269 0.25098039 0.27450980 0.65882353
v -0.13194159 0.08063523 -15.33476925 0.25098039 0.27450980 0.65882353
v -0.13647299 0.08674319 -15.33400536 0.25098039 0.27450980 0.65882353
v -0.11086318 0.00713325 -15.30585289 0.25098039 0.27450980 0.65882353
v -0.12544790 0.02308214 -15.31639767 0.25098039 0.27450980 0.65882353
v -0.14303875 0.02719900 -15.31909847 0.25098039 0.27450980 0.65882353
v -0.17060187 0.01443432 -15.31909275 0.25098039 0.27450980 0.65882353
v -0.17494085 0.02285518 -15.32456779 0.25098039 0.27450980 0.65882353
v -0.16395622 0.02226715 -15.32478333 0.25098039 0.27450980 0.65882353
v -0.16257173 0.01509905 -15.31944180 0.25098039 0.27450980 0.65882353
v -0.17724277 0.01047022 -15.30573845 0.25098039 0.27450980 0.65882353
v -0.17225432 0.00694074 -15.31040382 0.25098039 0.27450980 0.65882353
v -0.16878255 -0.00061620 -15.30610943 0.25098039 0.27450980 0.65882353
v -0.17359915 0.00176141 -15.30106068 0.25098039 0.27450980 0.65882353
v -0.08897391 0.03752846 -15.34071922 0.25098039 0.27450980 0.65882353
v -0.09596887 0.04774508 -15.33192158 0.25098039 0.27450980 0.65882353
v -0.18517902 0.05080132 -15.32771873 0.25098039 0.27450980 0.65882353
v -0.18471797 0.05768128 -15.33100224 0.25098039 0.27450980 0.65882353
v -0.18561769 0.06624831 -15.33112717 0.25098039 0.27450980 0.65882353
v -0.15402709 0.03984270 -15.33385658 0.25098039 0.27450980 0.65882353
v -0.15875411 0.05095743 -15.34125042 0.25098039 0.27450980 0.65882353
v -0.15520850 0.05088150 -15.34288216 0.25098039 0.27450980 0.65882353
v -0.15131149 0.03973483 -15.33369350 0.25098039 0.27450980 0.65882353
v -0.13480932 0.03380529 -15.33820057 0.25098039 0.27450980 0.65882353
v -0.14060844 0.04319730 -15.34697628 0.25098039 0.27450980 0.65882353
v -0.12431410 0.02906196 -15.34300041 0.25098039 0.27450980 0.65882353
v -0.15671362 0.06569400 -15.34453106 0.25098039 0.27450980 0.65882353
v -0.16565795 0.07132069 -15.34468746 0.25098039 0.27450980 0.65882353
v -0.15792087 0.07499238 -15.34577370 0.25098039 0.27450980 0.65882353
v -0.17423421 0.06877986 -15.34145069 0.25098039 0.27450980 0.65882353
v -0.18103741 0.06665412 -15.33650494 0.25098039 0.27450980 0.65882353
v -0.18609869 0.07269868 -15.30535507 0.25098039 0.27450980 0.65882353
v -0.15031290 0.07830868 -15.34553623 0.25098039 0.27450980 0.65882353
v -0.10895728 0.02793411 -15.35447788 0.25098039 0.27450980 0.65882353
v -0.10232185 0.02332771 -15.35424995 0.25098039 0.27450980 0.65882353
v -0.10288660 0.02139384 -15.34713840 0.25098039 0.27450980 0.65882353
v -0.10921687 0.02469586 -15.34668732 0.25098039 0.27450980 0.65882353
v -0.09057562 0.01948322 -15.29580688 0.25098039 0.27450980 0.65882353
v -0.09174252 0.01570763 -15.30225372 0.25098039 0.27450980 0.65882353
v -0.09560949 0.02115070 -15.30950737 0.25098039 0.27450980 0.65882353
v -0.16515955 0.03685908 -15.33467388 0.25098039 0.27450980 0.65882353
v -0.17817749 0.03713677 -15.33098030 0.25098039 0.27450980 0.65882353
v -0.10241748 0.00186139 -15.30128574 0.25098039 0.27450980 0.65882353
v -0.07385741 -0.00558250 -15.27790451 0.25098039 0.27450980 0.65882353
v -0.07201838 -0.00563991 -15.28315926 0.25098039 0.27450980 0.65882353
v -0.08275273 0.00796399 -15.29007149 0.25098039 0.27450980 0.65882353
v -0.08447000 0.00780602 -15.28343868 0.25098039 0.27450980 0.65882353
v -0.10003679 -0.00296725 -15.29035950 0.25098039 0.27450980 0.65882353
v -0.09898086 -0.00158329 -15.29715633 0.25098039 0.27450980 0.65882353
v -0.09696442 -0.00288128 -15.29420853 0.25098039 0.27450980 0.65882353
v -0.09799939 -0.00653711 -15.28884220 0.25098039 0.27450980 0.65882353
v -0.13668586 -0.01141641 -15.29075146 0.25098039 0.27450980 0.65882353
v -0.14085457 -0.00720077 -15.29680061 0.25098039 0.27450980 0.65882353
v -0.11211663 0.01329559 -15.28020477 0.25098039 0.27450980 0.65882353
v -0.10206048 0.02164083 -15.28248882 0.25098039 0.27450980 0.65882353
v -0.10703105 0.03039764 -15.28811932 0.25098039 0.27450980 0.65882353
v -0.13794759 0.00942390 -15.30684471 0.25098039 0.27450980 0.65882353
v -0.13394439 0.00085666 -15.30135250 0.25098039 0.27450980 0.65882353
v -0.13779114 -0.00019599 -15.30115986 0.25098039 0.27450980 0.65882353
v -0.11180684 0.00351551 -15.30240917 0.25098039 0.27450980 0.65882353
v -0.10583633 -0.00120506 -15.29722691 0.25098039 0.27450980 0.65882353
v -0.11209516 -0.00058197 -15.29773998 0.25098039 0.27450980 0.65882353
v -0.11743425 0.00406463 -15.30177402 0.25098039 0.27450980 0.65882353
v -0.17967106 0.02753792 -15.30281925 0.25098039 0.27450980 0.65882353
v -0.18169613 0.02146912 -15.31115150 0.25098039 0.27450980 0.65882353
v -0.06740551 -0.01552694 -15.28588867 0.25098039 0.27450980 0.65882353
v -0.07023314 -0.01150628 -15.28658104 0.25098039 0.27450980 0.65882353
v -0.14269744 0.01822127 -15.31234741 0.25098039 0.27450980 0.65882353
v -0.11257270 0.04007627 -15.29534340 0.25098039 0.27450980 0.65882353
v -0.14799465 0.02558385 -15.31928539 0.25098039 0.27450980 0.65882353
v -0.15141499 0.00048131 -15.28040314 0.25098039 0.27450980 0.65882353
v -0.15239468 -0.00516549 -15.28547764 0.25098039 0.27450980 0.65882353
v -0.14848348 -0.00951226 -15.28267956 0.25098039 0.27450980 0.65882353
v -0.14814276 -0.00630922 -15.27715778 0.25098039 0.27450980 0.65882353
v -0.08812818 -0.01759896 -15.28217220 0.25098039 0.27450980 0.65882353
v -0.08562846 -0.01758831 -15.28736305 0.25098039 0.27450980 0.65882353
v -0.08218683 -0.02064438 -15.28495312 0.25098039 0.27450980 0.65882353
v -0.08444269 -0.02077689 -15.27980518 0.25098039 0.27450980 0.65882353
v -0.09585553 0.00198788 -15.30056572 0.25098039 0.27450980 0.65882353
v -0.09203500 0.00727790 -15.30163288 0.25098039 0.27450980 0.65882353
v -0.08883741 0.00212359 -15.29863834 0.25098039 0.27450980 0.65882353
v -0.09312330 -0.00115039 -15.29670525 0.25098039 0.27450980 0.65882353
v -0.08808759 0.01066860 -15.29781818 0.25098039 0.27450980 0.65882353
v -0.08464010 0.00598119 -15.29593086 0.25098039 0.27450980 0.65882353
v -0.08713208 -0.01466770 -15.27639771 0.25098039 0.27450980 0.65882353
v -0.08272640 -0.00995334 -15.27254200 0.25098039 0.27450980 0.65882353
v -0.09373809 0.00073101 -15.27752686 0.25098039 0.27450980 0.65882353
v -0.09600869 -0.00565903 -15.28183270 0.25098039 0.27450980 0.65882353
v -0.15855226 0.04731163 -15.29478645 0.25098039 0.27450980 0.65882353
v -0.16869718 0.04418962 -15.29674530 0.25098039 0.27450980 0.65882353
v -0.16447300 0.03120695 -15.29235077 0.25098039 0.27450980 0.65882353
v -0.16081852 0.01893513 -15.28739738 0.25098039 0.27450980 0.65882353
v -0.15651000 0.00675010 -15.28318596 0.25098039 0.27450980 0.65882353
v -0.14684409 0.01110586 -15.27871609 0.25098039 0.27450980 0.65882353
v -0.17160767 0.02986346 -15.29522896 0.25098039 0.27450980 0.65882353
v -0.10617062 0.00068834 -15.28351784 0.25098039 0.27450980 0.65882353
v -0.10223286 0.00852966 -15.28074837 0.25098039 0.27450980 0.65882353
v -0.10846917 0.00668438 -15.28031731 0.25098039 0.27450980 0.65882353
v -0.15454130 0.02252420 -15.32044220 0.25098039 0.27450980 0.65882353
v -0.07284085 -0.00736338 -15.28822136 0.25098039 0.27450980 0.65882353
v -0.13969974 0.08060668 -15.31244946 0.25098039 0.27450980 0.65882353
v -0.15032654 0.07788411 -15.30490303 0.25098039 0.27450980 0.65882353
v -0.14622056 0.07132106 -15.30448341 0.25098039 0.27450980 0.65882353
v -0.13429505 0.07421280 -15.31325626 0.25098039 0.27450980 0.65882353
v -0.08125177 -0.01470710 -15.29164028 0.25098039 0.27450980 0.65882353
v -0.07599345 -0.01107994 -15.29218483 0.25098039 0.27450980 0.65882353
v -0.14642575 -0.00996784 -15.29608345 0.25098039 0.27450980 0.65882353
v -0.14217395 -0.01266773 -15.29063225 0.25098039 0.27450980 0.65882353
v -0.14478853 -0.01324583 -15.28759480 0.25098039 0.27450980 0.65882353
v -0.15022084 -0.01308387 -15.29395008 0.25098039 0.27450980 0.65882353
v -0.17401785 0.04368019 -15.29888916 0.25098039 0.27450980 0.65882353
v -0.17169780 -0.00321154 -15.29144859 0.25098039 0.27450980 0.65882353
v -0.16624208 0.00139065 -15.28504562 0.25098039 0.27450980 0.65882353
v -0.17187479 0.05572385 -15.30045414 0.25098039 0.27450980 0.65882353
v -0.16310452 0.05847590 -15.29828835 0.25098039 0.27450980 0.65882353
v -0.16668713 0.06632540 -15.30037022 0.25098039 0.27450980 0.65882353
v -0.13157016 0.00846714 -15.27598381 0.25098039 0.27450980 0.65882353
v -0.15055647 0.04763734 -15.29378128 0.25098039 0.27450980 0.65882353
v -0.15582702 0.05891255 -15.29819298 0.25098039 0.27450980 0.65882353
v -0.15983397 0.06848320 -15.30047798 0.25098039 0.27450980 0.65882353
v -0.16276309 0.07538549 -15.30100727 0.25098039 0.27450980 0.65882353
v -0.17003429 0.07189490 -15.30152035 0.25098039 0.27450980 0.65882353
v -0.07785058 -0.00782306 -15.27383327 0.25098039 0.27450980 0.65882353
v -0.07923160 -0.01447561 -15.27099609 0.25098039 0.27450980 0.65882353
v -0.17409167 0.07819136 -15.30089951 0.25098039 0.27450980 0.65882353
v -0.16548499 0.08136249 -15.30085564 0.25098039 0.27450980 0.65882353
v -0.14701465 0.05993741 -15.29896927 0.25098039 0.27450980 0.65882353
v -0.13720053 0.06092205 -15.30143738 0.25098039 0.27450980 0.65882353
v -0.14240491 0.04919029 -15.29382610 0.25098039 0.27450980 0.65882353
v -0.13157362 0.04958927 -15.29558754 0.25098039 0.27450980 0.65882353
v -0.12398411 0.01520237 -15.27519035 0.25098039 0.27450980 0.65882353
v -0.07158485 -0.02960391 -15.27009869 0.25098039 0.27450980 0.65882353
v -0.07955648 -0.02221343 -15.27269363 0.25098039 0.27450980 0.65882353
v -0.08093017 -0.02464069 -15.27766895 0.25098039 0.27450980 0.65882353
v -0.07359415 -0.03204313 -15.27309132 0.25098039 0.27450980 0.65882353
v -0.08349910 -0.01826735 -15.27469921 0.25098039 0.27450980 0.65882353
v -0.07580924 -0.01810989 -15.27046013 0.25098039 0.27450980 0.65882353
v -0.11872134 0.05080141 -15.30264473 0.25098039 0.27450980 0.65882353
v -0.10760540 -0.00436570 -15.29146767 0.25098039 0.27450980 0.65882353
v -0.12357238 0.06320034 -15.31237507 0.25098039 0.27450980 0.65882353
v -0.10311434 0.04770009 -15.31266975 0.25098039 0.27450980 0.65882353
v -0.10737565 0.05574436 -15.32194805 0.25098039 0.27450980 0.65882353
v -0.12704849 0.07606401 -15.32311726 0.25098039 0.27450980 0.65882353
v -0.11485717 0.06762615 -15.32934570 0.25098039 0.27450980 0.65882353
v -0.13784912 0.08754043 -15.32325554 0.25098039 0.27450980 0.65882353
v -0.13312410 0.08138857 -15.32215786 0.25098039 0.27450980 0.65882353
v -0.10284115 0.05847427 -15.33706474 0.25098039 0.27450980 0.65882353
v -0.06629352 -0.02797110 -15.28441429 0.25098039 0.27450980 0.65882353
v -0.07083341 -0.03068250 -15.28287029 0.25098039 0.27450980 0.65882353
v -0.14337309 0.08696907 -15.31297207 0.25098039 0.27450980 0.65882353
v -0.11536032 0.02656405 -15.34552956 0.25098039 0.27450980 0.65882353
v -0.15714301 0.03051261 -15.32707119 0.25098039 0.27450980 0.65882353
v -0.15182345 0.03190629 -15.32642365 0.25098039 0.27450980 0.65882353
v -0.17691246 0.02851889 -15.32689190 0.25098039 0.27450980 0.65882353
v -0.16433288 0.02922199 -15.32876778 0.25098039 0.27450980 0.65882353
v -0.06228195 -0.02485108 -15.28319645 0.25098039 0.27450980 0.65882353
v -0.12393673 -0.01051868 -15.28100395 0.25098039 0.27450980 0.65882353
v -0.12650634 -0.00886433 -15.28190231 0.25098039 0.27450980 0.65882353
v -0.10491924 0.03363789 -15.35881424 0.25098039 0.27450980 0.65882353
v -0.09978169 0.02862525 -15.35873127 0.25098039 0.27450980 0.65882353
v -0.09013516 0.03598922 -15.35442543 0.25098039 0.27450980 0.65882353
v -0.09446719 0.03286379 -15.35894012 0.25098039 0.27450980 0.65882353
v -0.09934351 0.03986514 -15.35864353 0.25098039 0.27450980 0.65882353
v -0.09495813 0.04361499 -15.35393238 0.25098039 0.27450980 0.65882353
v -0.15580332 0.03894599 -15.33412457 0.25098039 0.27450980 0.65882353
v -0.15903986 0.03770901 -15.33422947 0.25098039 0.27450980 0.65882353
v -0.18210623 0.03766799 -15.30811596 0.25098039 0.27450980 0.65882353
v -0.18324810 0.03152651 -15.31673336 0.25098039 0.27450980 0.65882353
v -0.08736217 0.01340871 -15.29202747 0.25098039 0.27450980 0.65882353
v -0.09393710 0.02064016 -15.28825378 0.25098039 0.27450980 0.65882353
v -0.08979039 0.01370233 -15.28540993 0.25098039 0.27450980 0.65882353
v -0.08956918 0.00637323 -15.27881718 0.25098039 0.27450980 0.65882353
v -0.10509977 -0.00405809 -15.28614044 0.25098039 0.27450980 0.65882353
v -0.10070479 -0.00096776 -15.28515816 0.25098039 0.27450980 0.65882353
v -0.14873916 0.04638213 -15.34493732 0.25098039 0.27450980 0.65882353
v -0.14462955 0.03752980 -15.33437538 0.25098039 0.27450980 0.65882353
v -0.10508150 0.02375628 -15.33917522 0.25098039 0.27450980 0.65882353
v -0.10015462 0.02312617 -15.34012699 0.25098039 0.27450980 0.65882353
v -0.12546657 0.00409394 -15.30203819 0.25098039 0.27450980 0.65882353
v -0.12354387 0.00034669 -15.27257061 0.25098039 0.27450980 0.65882353
v -0.11762249 0.00567795 -15.27213287 0.25098039 0.27450980 0.65882353
v -0.12072815 -0.00235653 -15.29661179 0.25098039 0.27450980 0.65882353
v -0.06076211 -0.02250892 -15.27501869 0.25098039 0.27450980 0.65882353
v -0.06053941 -0.02337460 -15.28008747 0.25098039 0.27450980 0.65882353
v -0.09532067 0.01279027 -15.28079700 0.25098039 0.27450980 0.65882353
v -0.14556436 -0.00259111 -15.30306721 0.25098039 0.27450980 0.65882353
v -0.13183597 0.00198235 -15.27594662 0.25098039 0.27450980 0.65882353
v -0.12489666 -0.00602373 -15.27511024 0.25098039 0.27450980 0.65882353
v -0.17092901 -0.00342760 -15.29930782 0.25098039 0.27450980 0.65882353
v -0.15378739 0.08459023 -15.30609512 0.25098039 0.27450980 0.65882353
v -0.07894592 -0.02501909 -15.28276348 0.25098039 0.27450980 0.65882353
v -0.07402493 -0.03220952 -15.27938271 0.25098039 0.27450980 0.65882353
v -0.06901664 -0.02643846 -15.26884747 0.25098039 0.27450980 0.65882353
v -0.06464688 -0.02288795 -15.27026081 0.25098039 0.27450980 0.65882353
v -0.18376246 0.04022059 -15.32275105 0.25098039 0.27450980 0.65882353
v -0.14880396 0.03297079 -15.32551670 0.25098039 0.27450980 0.65882353
v -0.09433407 0.04862370 -15.34358978 0.25098039 0.27450980 0.65882353
v -0.08827272 0.03803280 -15.34767723 0.25098039 0.27450980 0.65882353
v -0.11773372 -0.00659532 -15.29202938 0.25098039 0.27450980 0.65882353
v -0.15778252 -0.00020720 -15.28408813 0.25098039 0.27450980 0.65882353
v -0.14431979 0.00319567 -15.27525139 0.25098039 0.27450980 0.65882353
v -0.14197111 -0.00364664 -15.27156258 0.25098039 0.27450980 0.65882353
v -0.13430372 -0.00473829 -15.27158642 0.25098039 0.27450980 0.65882353
v -0.12845774 -0.00815712 -15.27507782 0.25098039 0.27450980 0.65882353
v -0.06627889 -0.03103758 -15.26863480 0.25098039 0.27450980 0.65882353
v -0.06206363 -0.02741284 -15.26986027 0.25098039 0.27450980 0.65882353
v -0.05814131 -0.02698573 -15.27431488 0.25098039 0.27450980 0.65882353
v -0.05786866 -0.02729043 -15.27886009 0.25098039 0.27450980 0.65882353
v -0.06053796 -0.02822129 -15.28225899 0.25098039 0.27450980 0.65882353
v -0.06839466 -0.03447848 -15.26978302 0.25098039 0.27450980 0.65882353
v -0.06981951 -0.03654183 -15.27267742 0.25098039 0.27450980 0.65882353
v -0.07149018 -0.03532036 -15.27837658 0.25098039 0.27450980 0.65882353
v -0.06620750 -0.03902214 -15.27057648 0.25098039 0.27450980 0.65882353
v -0.06155872 -0.03827951 -15.26847172 0.25098039 0.27450980 0.65882353
v -0.05084202 -0.03912915 -15.27648067 0.25098039 0.27450980 0.65882353
v -0.05365032 -0.03454744 -15.27405834 0.25098039 0.27450980 0.65882353
v -0.05318414 -0.03683893 -15.27287197 0.25098039 0.27450980 0.65882353
v -0.05102183 -0.04115117 -15.27409840 0.25098039 0.27450980 0.65882353
v -0.04915100 -0.04595543 -15.27375126 0.25098039 0.27450980 0.65882353
v -0.04838866 -0.04430143 -15.27674007 0.25098039 0.27450980 0.65882353
v -0.05687331 -0.03625988 -15.27027225 0.25098039 0.27450980 0.65882353
v -0.05411729 -0.04225101 -15.27102089 0.25098039 0.27450980 0.65882353
v -0.05749106 -0.04413192 -15.26964855 0.25098039 0.27450980 0.65882353
v -0.05455418 -0.04889839 -15.26968288 0.25098039 0.27450980 0.65882353
v -0.05141336 -0.04731333 -15.27072430 0.25098039 0.27450980 0.65882353
v -0.05902296 -0.03986228 -15.26913452 0.25098039 0.27450980 0.65882353
v -0.05792932 -0.03422929 -15.26971149 0.25098039 0.27450980 0.65882353
v -0.04791632 -0.04880633 -15.27552509 0.25098039 0.27450980 0.65882353
v -0.04825686 -0.04880547 -15.27307701 0.25098039 0.27450980 0.65882353
v -0.05026037 -0.05019864 -15.27126503 0.25098039 0.27450980 0.65882353
v -0.04973754 -0.05269470 -15.27300167 0.25098039 0.27450980 0.65882353
v -0.05544004 -0.03164480 -15.27884674 0.25098039 0.27450980 0.65882353
v -0.05123758 -0.03904439 -15.27901173 0.25098039 0.27450980 0.65882353
v -0.05008712 -0.04495768 -15.27920151 0.25098039 0.27450980 0.65882353
v -0.04952076 -0.04939501 -15.27777481 0.25098039 0.27450980 0.65882353
v -0.05367738 -0.04120513 -15.28132820 0.25098039 0.27450980 0.65882353
v -0.05246034 -0.04588019 -15.28055000 0.25098039 0.27450980 0.65882353
v -0.05241796 -0.04972377 -15.27926636 0.25098039 0.27450980 0.65882353
v -0.05685227 -0.04362230 -15.28221226 0.25098039 0.27450980 0.65882353
v -0.05513978 -0.04737333 -15.28097248 0.25098039 0.27450980 0.65882353
v -0.06218429 -0.03303552 -15.28292751 0.25098039 0.27450980 0.65882353
v -0.05878472 -0.03078226 -15.28213787 0.25098039 0.27450980 0.65882353
v -0.05429679 -0.04984292 -15.28036880 0.25098039 0.27450980 0.65882353
v -0.05115972 -0.05343112 -15.27465248 0.25098039 0.27450980 0.65882353
v -0.06110671 -0.04423953 -15.27015495 0.25098039 0.27450980 0.65882353
v -0.05713598 -0.05002185 -15.27134037 0.25098039 0.27450980 0.65882353
v -0.06282696 -0.04503327 -15.27156544 0.25098039 0.27450980 0.65882353
v -0.05911455 -0.05090932 -15.27245045 0.25098039 0.27450980 0.65882353
v -0.05405980 -0.05340431 -15.27115440 0.25098039 0.27450980 0.65882353
v -0.05280711 -0.05122947 -15.27049446 0.25098039 0.27450980 0.65882353
v -0.06512488 -0.03012990 -15.28343296 0.25098039 0.27450980 0.65882353
v -0.06960079 -0.03321628 -15.28167725 0.25098039 0.27450980 0.65882353
v -0.06717989 -0.03603540 -15.28127766 0.25098039 0.27450980 0.65882353
v -0.06076863 -0.04584563 -15.28115559 0.25098039 0.27450980 0.65882353
v -0.06906328 -0.03850793 -15.27846432 0.25098039 0.27450980 0.65882353
v -0.06753077 -0.04076811 -15.27353859 0.25098039 0.27450980 0.65882353
v -0.06354706 -0.04660440 -15.27390766 0.25098039 0.27450980 0.65882353
v -0.06345430 -0.04696804 -15.27717018 0.25098039 0.27450980 0.65882353
v -0.06026743 -0.05087904 -15.27460194 0.25098039 0.27450980 0.65882353
v -0.05997713 -0.05019697 -15.27697659 0.25098039 0.27450980 0.65882353
v -0.05798498 -0.04926264 -15.27996254 0.25098039 0.27450980 0.65882353
v -0.05687149 -0.05314118 -15.27546883 0.25098039 0.27450980 0.65882353
v -0.05540702 -0.05373077 -15.27295876 0.25098039 0.27450980 0.65882353
v -0.05361359 -0.05269905 -15.27703953 0.25098039 0.27450980 0.65882353
v -0.05783081 -0.05214495 -15.27698135 0.25098039 0.27450980 0.65882353
v -0.05547801 -0.05119702 -15.27843666 0.25098039 0.27450980 0.65882353
v -0.09643215 -0.03469575 -15.27316761 0.25098039 0.27450980 0.65882353
v -0.10210626 -0.03722044 -15.27192307 0.25098039 0.27450980 0.65882353
v -0.10368566 -0.03198112 -15.27323723 0.25098039 0.27450980 0.65882353
v -0.09865612 -0.03040034 -15.27430248 0.25098039 0.27450980 0.65882353
v -0.09213565 -0.02873172 -15.26219749 0.25098039 0.27450980 0.65882353
v -0.09141448 -0.03045540 -15.26757812 0.25098039 0.27450980 0.65882353
v -0.09288059 -0.02585066 -15.26813602 0.25098039 0.27450980 0.65882353
v -0.09476210 -0.02408769 -15.26226521 0.25098039 0.27450980 0.65882353
v -0.09705393 -0.02918230 -15.25793648 0.25098039 0.27450980 0.65882353
v -0.09992202 -0.02430851 -15.25816631 0.25098039 0.27450980 0.65882353
v -0.09643112 -0.01948036 -15.26324081 0.25098039 0.27450980 0.65882353
v -0.09506655 -0.02113394 -15.26993465 0.25098039 0.27450980 0.65882353
v -0.10423201 -0.00453937 -15.27914619 0.25098039 0.27450980 0.65882353
v -0.10567789 -0.00248177 -15.27236557 0.25098039 0.27450980 0.65882353
v -0.11917453 -0.01296082 -15.28329182 0.25098039 0.27450980 0.65882353
v -0.11992383 -0.01318219 -15.27943039 0.25098039 0.27450980 0.65882353
v -0.09341437 -0.03279161 -15.27147579 0.25098039 0.27450980 0.65882353
v -0.09512745 -0.02831139 -15.27208805 0.25098039 0.27450980 0.65882353
v -0.11259089 -0.02982774 -15.27021313 0.25098039 0.27450980 0.65882353
v -0.10979792 -0.02993722 -15.27481079 0.25098039 0.27450980 0.65882353
v -0.10764769 -0.03398399 -15.27145863 0.25098039 0.27450980 0.65882353
v -0.10997851 -0.03354076 -15.26644707 0.25098039 0.27450980 0.65882353
v -0.10882896 -0.00790538 -15.28587055 0.25098039 0.27450980 0.65882353
v -0.11477661 -0.01004217 -15.28556442 0.25098039 0.27450980 0.65882353
v -0.10584739 -0.00686403 -15.28337765 0.25098039 0.27450980 0.65882353
v -0.11289597 -0.02771112 -15.26408768 0.25098039 0.27450980 0.65882353
v -0.10959835 -0.02398027 -15.25930119 0.25098039 0.27450980 0.65882353
v -0.11788689 -0.00756444 -15.26691151 0.25098039 0.27450980 0.65882353
v -0.12064311 -0.01160499 -15.27111912 0.25098039 0.27450980 0.65882353
v -0.09644966 -0.02384130 -15.27466393 0.25098039 0.27450980 0.65882353
v -0.10520400 -0.02860210 -15.27722740 0.25098039 0.27450980 0.65882353
v -0.10036501 -0.02670195 -15.27756596 0.25098039 0.27450980 0.65882353
v -0.10260810 -0.02038390 -15.25961304 0.25098039 0.27450980 0.65882353
v -0.10621196 -0.02861827 -15.25761223 0.25098039 0.27450980 0.65882353
v -0.10066923 -0.04702682 -15.25708771 0.25098039 0.27450980 0.65882353
v -0.10705167 -0.03636738 -15.25983429 0.25098039 0.27450980 0.65882353
v -0.10744053 -0.03838595 -15.26443100 0.25098039 0.27450980 0.65882353
v -0.10185874 -0.04984739 -15.26089001 0.25098039 0.27450980 0.65882353
v -0.10983269 -0.03190795 -15.26120758 0.25098039 0.27450980 0.65882353
v -0.10320552 -0.03267056 -15.25705338 0.25098039 0.27450980 0.65882353
v -0.09167027 -0.04957541 -15.26985550 0.25098039 0.27450980 0.65882353
v -0.09722185 -0.05201518 -15.26837349 0.25098039 0.27450980 0.65882353
v -0.08793455 -0.04730196 -15.26863384 0.25098039 0.27450980 0.65882353
v -0.11159736 -0.00338405 -15.26711941 0.25098039 0.27450980 0.65882353
v -0.08668211 -0.04093849 -15.26056480 0.25098039 0.27450980 0.65882353
v -0.08608294 -0.04429411 -15.26614952 0.25098039 0.27450980 0.65882353
v -0.10600892 -0.03885259 -15.26915932 0.25098039 0.27450980 0.65882353
v -0.10063009 -0.05208949 -15.26483250 0.25098039 0.27450980 0.65882353
v -0.09755684 -0.04420064 -15.25514412 0.25098039 0.27450980 0.65882353
v -0.09178969 -0.04013559 -15.25613308 0.25098039 0.27450980 0.65882353
v -0.09478554 -0.04942849 -15.25458336 0.25098039 0.27450980 0.65882353
v -0.08932389 -0.04623935 -15.25553608 0.25098039 0.27450980 0.65882353
v -0.08440541 -0.04682545 -15.26002407 0.25098039 0.27450980 0.65882353
v -0.08461389 -0.04929333 -15.26523781 0.25098039 0.27450980 0.65882353
v -0.08674480 -0.05118028 -15.26789856 0.25098039 0.27450980 0.65882353
v -0.09757820 -0.05222674 -15.25622272 0.25098039 0.27450980 0.65882353
v -0.09906656 -0.05494341 -15.25964642 0.25098039 0.27450980 0.65882353
v -0.09874479 -0.05501365 -15.26445961 0.25098039 0.27450980 0.65882353
v -0.09541160 -0.05942897 -15.25644302 0.25098039 0.27450980 0.65882353
v -0.09181145 -0.05818393 -15.25423336 0.25098039 0.27450980 0.65882353
v -0.07853322 -0.06784710 -15.26143265 0.25098039 0.27450980 0.65882353
v -0.07996628 -0.06196214 -15.26120758 0.25098039 0.27450980 0.65882353
v -0.08076027 -0.06259788 -15.25874901 0.25098039 0.27450980 0.65882353
v -0.07955995 -0.06798161 -15.25878620 0.25098039 0.27450980 0.65882353
v -0.08141147 -0.05621815 -15.25891781 0.25098039 0.27450980 0.65882353
v -0.08213612 -0.05835321 -15.25754452 0.25098039 0.27450980 0.65882353
v -0.08596723 -0.05790322 -15.25513077 0.25098039 0.27450980 0.65882353
v -0.08445606 -0.06381194 -15.25576782 0.25098039 0.27450980 0.65882353
v -0.08905730 -0.06444659 -15.25486183 0.25098039 0.27450980 0.65882353
v -0.08734949 -0.06996401 -15.25397873 0.25098039 0.27450980 0.65882353
v -0.08265446 -0.06933159 -15.25490475 0.25098039 0.27450980 0.65882353
v -0.08902484 -0.06016011 -15.25432968 0.25098039 0.27450980 0.65882353
v -0.07938570 -0.07160967 -15.25812626 0.25098039 0.27450980 0.65882353
v -0.07912154 -0.07338681 -15.26002312 0.25098039 0.27450980 0.65882353
v -0.08634283 -0.05480848 -15.25476074 0.25098039 0.27450980 0.65882353
v -0.08271752 -0.05335768 -15.26420212 0.25098039 0.27450980 0.65882353
v -0.08043322 -0.06241535 -15.26416969 0.25098039 0.27450980 0.65882353
v -0.07961145 -0.06917389 -15.26415730 0.25098039 0.27450980 0.65882353
v -0.08108495 -0.07483467 -15.26189613 0.25098039 0.27450980 0.65882353
v -0.08304991 -0.06427716 -15.26682854 0.25098039 0.27450980 0.65882353
v -0.08206092 -0.07043140 -15.26588154 0.25098039 0.27450980 0.65882353
v -0.08343825 -0.07469239 -15.26336956 0.25098039 0.27450980 0.65882353
v -0.08697683 -0.06625383 -15.26842213 0.25098039 0.27450980 0.65882353
v -0.08589667 -0.07191750 -15.26669216 0.25098039 0.27450980 0.65882353
v -0.08997713 -0.05538284 -15.26908493 0.25098039 0.27450980 0.65882353
v -0.08561358 -0.05405425 -15.26796055 0.25098039 0.27450980 0.65882353
v -0.08534876 -0.07396264 -15.26472282 0.25098039 0.27450980 0.65882353
v -0.08177146 -0.07560460 -15.25638580 0.25098039 0.27450980 0.65882353
v -0.08358839 -0.07689672 -15.25911617 0.25098039 0.27450980 0.65882353
v -0.08179022 -0.07358431 -15.25574780 0.25098039 0.27450980 0.65882353
v -0.09105971 -0.06496402 -15.25527668 0.25098039 0.27450980 0.65882353
v -0.08897713 -0.07110547 -15.25532150 0.25098039 0.27450980 0.65882353
v -0.09315373 -0.06609137 -15.25677967 0.25098039 0.27450980 0.65882353
v -0.09026583 -0.07252314 -15.25700378 0.25098039 0.27450980 0.65882353
v -0.08635494 -0.07509104 -15.25536060 0.25098039 0.27450980 0.65882353
v -0.08513649 -0.07404243 -15.25457859 0.25098039 0.27450980 0.65882353
v -0.09083472 -0.05254138 -15.26869202 0.25098039 0.27450980 0.65882353
v -0.09598592 -0.05427840 -15.26739788 0.25098039 0.27450980 0.65882353
v -0.09513931 -0.05679213 -15.26766968 0.25098039 0.27450980 0.65882353
v -0.09165031 -0.06740185 -15.26659107 0.25098039 0.27450980 0.65882353
v -0.09798729 -0.05784645 -15.26416492 0.25098039 0.27450980 0.65882353
v -0.09730284 -0.05977177 -15.25941372 0.25098039 0.27450980 0.65882353
v -0.09470919 -0.06660772 -15.25905704 0.25098039 0.27450980 0.65882353
v -0.09438422 -0.06761187 -15.26283741 0.25098039 0.27450980 0.65882353
v -0.09201735 -0.07316148 -15.25836372 0.25098039 0.27450980 0.65882353
v -0.09244925 -0.07213994 -15.26139927 0.25098039 0.27450980 0.65882353
v -0.08968857 -0.07236370 -15.26536465 0.25098039 0.27450980 0.65882353
v -0.08889234 -0.07668207 -15.25850773 0.25098039 0.27450980 0.65882353
v -0.08737724 -0.07616635 -15.25656796 0.25098039 0.27450980 0.65882353
v -0.08513975 -0.07654256 -15.26087189 0.25098039 0.27450980 0.65882353
v -0.09008098 -0.07525862 -15.26095104 0.25098039 0.27450980 0.65882353
v -0.08720194 -0.07521441 -15.26314735 0.25098039 0.27450980 0.65882353
v -0.12253100 -0.03566702 -15.27252007 0.25098039 0.27450980 0.65882353
v -0.12739776 -0.03730409 -15.27527332 0.25098039 0.27450980 0.65882353
v -0.12853391 -0.03328720 -15.27650928 0.25098039 0.27450980 0.65882353
v -0.12374735 -0.03169039 -15.27358627 0.25098039 0.27450980 0.65882353
v -0.12600370 -0.03269237 -15.26073360 0.25098039 0.27450980 0.65882353
v -0.12223504 -0.03338950 -15.26379299 0.25098039 0.27450980 0.65882353
v -0.12331730 -0.02908072 -15.26489162 0.25098039 0.27450980 0.65882353
v -0.12745951 -0.02717562 -15.26179981 0.25098039 0.27450980 0.65882353
v -0.13082562 -0.03507887 -15.25978279 0.25098039 0.27450980 0.65882353
v -0.13327384 -0.02775961 -15.26088333 0.25098039 0.27450980 0.65882353
v -0.12862758 -0.02177500 -15.26252174 0.25098039 0.27450980 0.65882353
v -0.12434690 -0.02473377 -15.26594925 0.25098039 0.27450980 0.65882353
v -0.12779742 -0.01176871 -15.27298260 0.25098039 0.27450980 0.65882353
v -0.13240111 -0.00984803 -15.26810837 0.25098039 0.27450980 0.65882353
v -0.12129569 -0.03446964 -15.26827431 0.25098039 0.27450980 0.65882353
v -0.12221491 -0.03068072 -15.26929569 0.25098039 0.27450980 0.65882353
v -0.13837335 -0.03183616 -15.27700233 0.25098039 0.27450980 0.65882353
v -0.13402076 -0.03146857 -15.27928066 0.25098039 0.27450980 0.65882353
v -0.13371298 -0.03480745 -15.27649784 0.25098039 0.27450980 0.65882353
v -0.13736145 -0.03517213 -15.27427101 0.25098039 0.27450980 0.65882353
v -0.12929994 -0.01365379 -15.28382492 0.25098039 0.27450980 0.65882353
v -0.13500008 -0.01391920 -15.28585815 0.25098039 0.27450980 0.65882353
v -0.12672424 -0.01397290 -15.27882767 0.25098039 0.27450980 0.65882353
v -0.14118485 -0.03039908 -15.27140141 0.25098039 0.27450980 0.65882353
v -0.14067736 -0.02617207 -15.26541042 0.25098039 0.27450980 0.65882353
v -0.14530011 -0.01402576 -15.27221584 0.25098039 0.27450980 0.65882353
v -0.14525160 -0.01598641 -15.27836704 0.25098039 0.27450980 0.65882353
v -0.12284185 -0.02709085 -15.27053356 0.25098039 0.27450980 0.65882353
v -0.12910831 -0.02981010 -15.27899170 0.25098039 0.27450980 0.65882353
v -0.12423855 -0.02879678 -15.27571297 0.25098039 0.27450980 0.65882353
v -0.13479410 -0.02257138 -15.26248264 0.25098039 0.27450980 0.65882353
v -0.13812885 -0.03141153 -15.26405430 0.25098039 0.27450980 0.65882353
v -0.13244188 -0.05387676 -15.26274967 0.25098039 0.27450980 0.65882353
v -0.13824928 -0.03860183 -15.26783657 0.25098039 0.27450980 0.65882353
v -0.13589947 -0.03959508 -15.27286434 0.25098039 0.27450980 0.65882353
v -0.13187550 -0.05498577 -15.26696491 0.25098039 0.27450980 0.65882353
v -0.13957703 -0.03477515 -15.26943779 0.25098039 0.27450980 0.65882353
v -0.13635172 -0.03665400 -15.26268291 0.25098039 0.27450980 0.65882353
v -0.11878064 -0.05121488 -15.26954651 0.25098039 0.27450980 0.65882353
v -0.12373683 -0.05257477 -15.27170467 0.25098039 0.27450980 0.65882353
v -0.11757629 -0.04877871 -15.26604939 0.25098039 0.27450980 0.65882353
v -0.13965116 -0.01030899 -15.26718616 0.25098039 0.27450980 0.65882353
v -0.14154311 -0.01577016 -15.28415966 0.25098039 0.27450980 0.65882353
v -0.11985028 -0.04799640 -15.25889397 0.25098039 0.27450980 0.65882353
v -0.11764124 -0.04811969 -15.26269245 0.25098039 0.27450980 0.65882353
v -0.13252246 -0.03869627 -15.27525997 0.25098039 0.27450980 0.65882353
v -0.12893513 -0.05447756 -15.27047157 0.25098039 0.27450980 0.65882353
v -0.13065434 -0.05128396 -15.25907612 0.25098039 0.27450980 0.65882353
v -0.12563460 -0.04820200 -15.25700092 0.25098039 0.27450980 0.65882353
v -0.12893400 -0.05714469 -15.25887394 0.25098039 0.27450980 0.65882353
v -0.12381716 -0.05434720 -15.25693035 0.25098039 0.27450980 0.65882353
v -0.11825402 -0.05408459 -15.25874233 0.25098039 0.27450980 0.65882353
v -0.11633135 -0.05370029 -15.26258278 0.25098039 0.27450980 0.65882353
v -0.11633456 -0.05390712 -15.26594067 0.25098039 0.27450980 0.65882353
v -0.13050959 -0.05935291 -15.26287746 0.25098039 0.27450980 0.65882353
v -0.12985086 -0.05987024 -15.26672077 0.25098039 0.27450980 0.65882353
v -0.12767376 -0.05672643 -15.26994991 0.25098039 0.27450980 0.65882353
v -0.12919042 -0.06383415 -15.26398373 0.25098039 0.27450980 0.65882353
v -0.12634176 -0.06430607 -15.25929737 0.25098039 0.27450980 0.65882353
v -0.11259598 -0.07341357 -15.26246929 0.25098039 0.27450980 0.65882353
v -0.11409053 -0.06767610 -15.26180172 0.25098039 0.27450980 0.65882353
v -0.11494377 -0.06824443 -15.26098061 0.25098039 0.27450980 0.65882353
v -0.11358041 -0.07395925 -15.26097584 0.25098039 0.27450980 0.65882353
v -0.11667895 -0.06193355 -15.25908756 0.25098039 0.27450980 0.65882353
v -0.11708239 -0.06398699 -15.25902462 0.25098039 0.27450980 0.65882353
v -0.12082930 -0.06408400 -15.25800896 0.25098039 0.27450980 0.65882353
v -0.11924657 -0.07040169 -15.25876904 0.25098039 0.27450980 0.65882353
v -0.12435867 -0.07069085 -15.26184559 0.25098039 0.27450980 0.65882353
v -0.12215593 -0.07532210 -15.26235867 0.25098039 0.27450980 0.65882353
v -0.11765136 -0.07555718 -15.25938511 0.25098039 0.27450980 0.65882353
v -0.12462553 -0.06572285 -15.25940800 0.25098039 0.27450980 0.65882353
v -0.11381625 -0.07719003 -15.26125908 0.25098039 0.27450980 0.65882353
v -0.11173323 -0.07780948 -15.26186275 0.25098039 0.27450980 0.65882353
v -0.12160069 -0.06174592 -15.25729847 0.25098039 0.27450980 0.65882353
v -0.11428295 -0.05937589 -15.26248455 0.25098039 0.27450980 0.65882353
v -0.11241531 -0.06685372 -15.26404476 0.25098039 0.27450980 0.65882353
v -0.11045161 -0.07268091 -15.26509857 0.25098039 0.27450980 0.65882353
v -0.11132148 -0.07720544 -15.26562309 0.25098039 0.27450980 0.65882353
v -0.11302966 -0.06645284 -15.26771832 0.25098039 0.27450980 0.65882353
v -0.11169672 -0.07200042 -15.26801014 0.25098039 0.27450980 0.65882353
v -0.11234939 -0.07601633 -15.26854897 0.25098039 0.27450980 0.65882353
v -0.11488758 -0.06652137 -15.27037144 0.25098039 0.27450980 0.65882353
v -0.11388204 -0.07162038 -15.27049732 0.25098039 0.27450980 0.65882353
v -0.11766735 -0.05683211 -15.26921844 0.25098039 0.27450980 0.65882353
v -0.11514708 -0.05772682 -15.26609421 0.25098039 0.27450980 0.65882353
v -0.11384788 -0.07494526 -15.27004814 0.25098039 0.27450980 0.65882353
v -0.11581674 -0.08039605 -15.26187515 0.25098039 0.27450980 0.65882353
v -0.11590131 -0.08043440 -15.26633072 0.25098039 0.27450980 0.65882353
v -0.11648458 -0.07844964 -15.26119328 0.25098039 0.27450980 0.65882353
v -0.12589435 -0.07017694 -15.26297665 0.25098039 0.27450980 0.65882353
v -0.12345958 -0.07635664 -15.26422596 0.25098039 0.27450980 0.65882353
v -0.12674342 -0.06981304 -15.26572895 0.25098039 0.27450980 0.65882353
v -0.12429971 -0.07601614 -15.26684856 0.25098039 0.27450980 0.65882353
v -0.12070382 -0.07969569 -15.26350594 0.25098039 0.27450980 0.65882353
v -0.12022462 -0.07872779 -15.26258564 0.25098039 0.27450980 0.65882353
v -0.11876062 -0.05391423 -15.26906490 0.25098039 0.27450980 0.65882353
v -0.12325697 -0.05509003 -15.27095413 0.25098039 0.27450980 0.65882353
v -0.12190180 -0.05767093 -15.27110863 0.25098039 0.27450980 0.65882353
v -0.11869176 -0.06788649 -15.27241421 0.25098039 0.27450980 0.65882353
v -0.12620182 -0.05924875 -15.27048683 0.25098039 0.27450980 0.65882353
v -0.12824558 -0.06393034 -15.26756859 0.25098039 0.27450980 0.65882353
v -0.12563549 -0.06941796 -15.26875591 0.25098039 0.27450980 0.65882353
v -0.12290661 -0.06915043 -15.27136230 0.25098039 0.27450980 0.65882353
v -0.12352215 -0.07503552 -15.26930904 0.25098039 0.27450980 0.65882353
v -0.12173176 -0.07333333 -15.27077770 0.25098039 0.27450980 0.65882353
v -0.11726819 -0.07259347 -15.27245808 0.25098039 0.27450980 0.65882353
v -0.12044135 -0.07789508 -15.26879978 0.25098039 0.27450980 0.65882353
v -0.12109399 -0.07958245 -15.26636982 0.25098039 0.27450980 0.65882353
v -0.11597230 -0.07851905 -15.26914978 0.25098039 0.27450980 0.65882353
v -0.11968738 -0.07612007 -15.27052879 0.25098039 0.27450980 0.65882353
v -0.11632296 -0.07641279 -15.27086067 0.25098039 0.27450980 0.65882353
v -0.13896541 -0.01479488 -15.28632832 0.25098039 0.27450980 0.65882353
v -0.15443237 -0.03684518 -15.28941154 0.25098039 0.27450980 0.65882353
v -0.15733570 -0.03718408 -15.29209328 0.25098039 0.27450980 0.65882353
v -0.15836322 -0.03308752 -15.29228210 0.25098039 0.27450980 0.65882353
v -0.15502322 -0.03220158 -15.29043007 0.25098039 0.27450980 0.65882353
v -0.15810367 -0.03512779 -15.27931690 0.25098039 0.27450980 0.65882353
v -0.15480223 -0.03595392 -15.28214169 0.25098039 0.27450980 0.65882353
v -0.15488517 -0.03115152 -15.28222466 0.25098039 0.27450980 0.65882353
v -0.15809627 -0.03044828 -15.27941990 0.25098039 0.27450980 0.65882353
v -0.16287172 -0.03540370 -15.27923393 0.25098039 0.27450980 0.65882353
v -0.16309229 -0.03092167 -15.27962589 0.25098039 0.27450980 0.65882353
v -0.15815921 -0.02692289 -15.27909279 0.25098039 0.27450980 0.65882353
v -0.15466236 -0.02737640 -15.28231430 0.25098039 0.27450980 0.65882353
v -0.15392768 -0.01169068 -15.28509521 0.25098039 0.27450980 0.65882353
v -0.15825605 -0.00930517 -15.28229427 0.25098039 0.27450980 0.65882353
v -0.16925150 -0.00922599 -15.29761791 0.25098039 0.27450980 0.65882353
v -0.16400577 -0.00878961 -15.30168343 0.25098039 0.27450980 0.65882353
v -0.16418217 -0.01696538 -15.29747772 0.25098039 0.27450980 0.65882353
v -0.16839537 -0.01567407 -15.29476547 0.25098039 0.27450980 0.65882353
v -0.15374315 -0.03650304 -15.28581333 0.25098039 0.27450980 0.65882353
v -0.15346719 -0.03197622 -15.28683186 0.25098039 0.27450980 0.65882353
v -0.16747463 -0.02860653 -15.29190540 0.25098039 0.27450980 0.65882353
v -0.16335452 -0.02939121 -15.29371643 0.25098039 0.27450980 0.65882353
v -0.16209370 -0.03300019 -15.29355145 0.25098039 0.27450980 0.65882353
v -0.16635588 -0.03314225 -15.29220867 0.25098039 0.27450980 0.65882353
v -0.15841055 -0.01008870 -15.30105209 0.25098039 0.27450980 0.65882353
v -0.15415023 -0.01042314 -15.29849720 0.25098039 0.27450980 0.65882353
v -0.15421459 -0.01470599 -15.29697609 0.25098039 0.27450980 0.65882353
v -0.15925172 -0.01761507 -15.29759026 0.25098039 0.27450980 0.65882353
v -0.15180069 -0.01442642 -15.29222012 0.25098039 0.27450980 0.65882353
v -0.16925855 -0.02829921 -15.28846741 0.25098039 0.27450980 0.65882353
v -0.16843605 -0.02767494 -15.28307533 0.25098039 0.27450980 0.65882353
v -0.17113382 -0.01143843 -15.28640461 0.25098039 0.27450980 0.65882353
v -0.17087589 -0.01271202 -15.29092216 0.25098039 0.27450980 0.65882353
v -0.15322500 -0.02869394 -15.28640938 0.25098039 0.27450980 0.65882353
v -0.15918061 -0.02988776 -15.29304028 0.25098039 0.27450980 0.65882353
v -0.15537325 -0.02952129 -15.29083633 0.25098039 0.27450980 0.65882353
v -0.16377939 -0.02731133 -15.27915382 0.25098039 0.27450980 0.65882353
v -0.16765435 -0.03193683 -15.28317547 0.25098039 0.27450980 0.65882353
v -0.16717857 -0.04659121 -15.28773403 0.25098039 0.27450980 0.65882353
v -0.16823259 -0.03664754 -15.28848267 0.25098039 0.27450980 0.65882353
v -0.16545781 -0.03748845 -15.29230976 0.25098039 0.27450980 0.65882353
v -0.16561794 -0.04703470 -15.29011059 0.25098039 0.27450980 0.65882353
v -0.16855112 -0.03255442 -15.28841591 0.25098039 0.27450980 0.65882353
v -0.16741398 -0.03622042 -15.28299427 0.25098039 0.27450980 0.65882353
v -0.15402678 -0.04650832 -15.28861523 0.25098039 0.27450980 0.65882353
v -0.15812477 -0.04649353 -15.29155922 0.25098039 0.27450980 0.65882353
v -0.15327057 -0.04603590 -15.28556919 0.25098039 0.27450980 0.65882353
v -0.16524380 -0.00972445 -15.28174210 0.25098039 0.27450980 0.65882353
v -0.15733024 -0.04539575 -15.27944851 0.25098039 0.27450980 0.65882353
v -0.15404989 -0.04615765 -15.28211308 0.25098039 0.27450980 0.65882353
v -0.16110280 -0.03746766 -15.29319191 0.25098039 0.27450980 0.65882353
v -0.16243562 -0.04671786 -15.29173660 0.25098039 0.27450980 0.65882353
v -0.16670907 -0.04599653 -15.28364563 0.25098039 0.27450980 0.65882353
v -0.16271456 -0.04504030 -15.27936745 0.25098039 0.27450980 0.65882353
v -0.16578162 -0.05075029 -15.28354263 0.25098039 0.27450980 0.65882353
v -0.16147378 -0.04935859 -15.27953053 0.25098039 0.27450980 0.65882353
v -0.15578951 -0.04994561 -15.28009415 0.25098039 0.27450980 0.65882353
v -0.15351191 -0.04941404 -15.28287983 0.25098039 0.27450980 0.65882353
v -0.15273851 -0.04929624 -15.28596210 0.25098039 0.27450980 0.65882353
v -0.16639721 -0.05105524 -15.28765488 0.25098039 0.27450980 0.65882353
v -0.16486202 -0.05092031 -15.29022312 0.25098039 0.27450980 0.65882353
v -0.16190556 -0.04978568 -15.29213428 0.25098039 0.27450980 0.65882353
v -0.16541362 -0.05559271 -15.28779697 0.25098039 0.27450980 0.65882353
v -0.16414779 -0.05706134 -15.28345680 0.25098039 0.27450980 0.65882353
v -0.15293974 -0.06478492 -15.28433990 0.25098039 0.27450980 0.65882353
v -0.15326518 -0.06069233 -15.28365803 0.25098039 0.27450980 0.65882353
v -0.15421078 -0.06091183 -15.28285789 0.25098039 0.27450980 0.65882353
v -0.15332314 -0.06499595 -15.28322124 0.25098039 0.27450980 0.65882353
v -0.15490457 -0.05595993 -15.28147030 0.25098039 0.27450980 0.65882353
v -0.15588623 -0.05732217 -15.28138542 0.25098039 0.27450980 0.65882353
v -0.15928368 -0.05645940 -15.28117466 0.25098039 0.27450980 0.65882353
v -0.15827490 -0.06164316 -15.28177071 0.25098039 0.27450980 0.65882353
v -0.16263494 -0.06266346 -15.28473282 0.25098039 0.27450980 0.65882353
v -0.16131695 -0.06672176 -15.28488636 0.25098039 0.27450980 0.65882353
v -0.15769820 -0.06544923 -15.28201008 0.25098039 0.27450980 0.65882353
v -0.16269720 -0.05846455 -15.28265476 0.25098039 0.27450980 0.65882353
v -0.15379985 -0.06774432 -15.28294754 0.25098039 0.27450980 0.65882353
v -0.15295158 -0.06880804 -15.28360844 0.25098039 0.27450980 0.65882353
v -0.15971151 -0.05477369 -15.28038120 0.25098039 0.27450980 0.65882353
v -0.15242952 -0.05397657 -15.28415680 0.25098039 0.27450980 0.65882353
v -0.15166776 -0.06092275 -15.28555489 0.25098039 0.27450980 0.65882353
v -0.15167533 -0.06604674 -15.28594017 0.25098039 0.27450980 0.65882353
v -0.15302622 -0.06966091 -15.28585815 0.25098039 0.27450980 0.65882353
v -0.15163246 -0.05970351 -15.28804588 0.25098039 0.27450980 0.65882353
v -0.15137413 -0.06585266 -15.28843880 0.25098039 0.27450980 0.65882353
v -0.15295944 -0.06918859 -15.28854656 0.25098039 0.27450980 0.65882353
v -0.15280432 -0.05889615 -15.29120350 0.25098039 0.27450980 0.65882353
v -0.15275952 -0.06484254 -15.29076195 0.25098039 0.27450980 0.65882353
v -0.15386546 -0.05179115 -15.29041386 0.25098039 0.27450980 0.65882353
v -0.15246964 -0.05280600 -15.28730106 0.25098039 0.27450980 0.65882353
v -0.15367576 -0.06782144 -15.28986263 0.25098039 0.27450980 0.65882353
v -0.15649348 -0.07029323 -15.28345966 0.25098039 0.27450980 0.65882353
v -0.15602553 -0.07100258 -15.28648376 0.25098039 0.27450980 0.65882353
v -0.15707913 -0.06912554 -15.28268909 0.25098039 0.27450980 0.65882353
v -0.16358818 -0.06249378 -15.28591728 0.25098039 0.27450980 0.65882353
v -0.16203892 -0.06747220 -15.28633213 0.25098039 0.27450980 0.65882353
v -0.16402695 -0.06203052 -15.28848267 0.25098039 0.27450980 0.65882353
v -0.16178036 -0.06754152 -15.28861046 0.25098039 0.27450980 0.65882353
v -0.15979907 -0.07025171 -15.28543663 0.25098039 0.27450980 0.65882353
v -0.15953977 -0.06884224 -15.28397274 0.25098039 0.27450980 0.65882353
v -0.15401077 -0.04949064 -15.28972721 0.25098039 0.27450980 0.65882353
v -0.15773004 -0.04905982 -15.29167747 0.25098039 0.27450980 0.65882353
v -0.15756744 -0.05165523 -15.29232979 0.25098039 0.27450980 0.65882353
v -0.15603900 -0.05875384 -15.29323864 0.25098039 0.27450980 0.65882353
v -0.16166022 -0.05258366 -15.29251480 0.25098039 0.27450980 0.65882353
v -0.16433164 -0.05413495 -15.29037571 0.25098039 0.27450980 0.65882353
v -0.16275170 -0.06110536 -15.29090405 0.25098039 0.27450980 0.65882353
v -0.16018853 -0.06010536 -15.29295921 0.25098039 0.27450980 0.65882353
v -0.16054514 -0.06722935 -15.29058743 0.25098039 0.27450980 0.65882353
v -0.15838474 -0.06585100 -15.29239845 0.25098039 0.27450980 0.65882353
v -0.15532154 -0.06481365 -15.29269409 0.25098039 0.27450980 0.65882353
v -0.15796077 -0.06987467 -15.28930187 0.25098039 0.27450980 0.65882353
v -0.15894954 -0.07064334 -15.28770924 0.25098039 0.27450980 0.65882353
v -0.15571380 -0.07011684 -15.28868961 0.25098039 0.27450980 0.65882353
v -0.15698238 -0.06868418 -15.29075813 0.25098039 0.27450980 0.65882353
v -0.15538414 -0.06831258 -15.29055595 0.25098039 0.27450980 0.65882353
v -0.17082949 -0.00966976 -15.29361534 0.25098039 0.27450980 0.65882353
v -0.08192755 0.02488245 -15.34394741 0.25098039 0.27450980 0.65882353
v -0.08515413 0.02159397 -15.34036636 0.25098039 0.27450980 0.65882353
v -0.09407024 0.01255334 -15.35083580 0.25098039 0.27450980 0.65882353
v -0.09234059 0.01317696 -15.34408760 0.25098039 0.27450980 0.65882353
v -0.09255010 0.01429611 -15.35694695 0.25098039 0.27450980 0.65882353
v -0.08647411 0.02271506 -15.35937691 0.25098039 0.27450980 0.65882353
v -0.09051874 0.01892404 -15.35963535 0.25098039 0.27450980 0.65882353
v -0.08904472 0.01658956 -15.34044933 0.25098039 0.27450980 0.65882353
v -0.08059934 0.02722178 -15.34903622 0.25098039 0.27450980 0.65882353
v -0.08252516 0.02680629 -15.35571194 0.25098039 0.27450980 0.65882353
v -0.07488373 0.02183735 -15.34912014 0.25098039 0.27450980 0.65882353
v -0.07671447 0.02093324 -15.35631847 0.25098039 0.27450980 0.65882353
v -0.08038177 0.01665548 -15.36043167 0.25098039 0.27450980 0.65882353
v -0.08563691 0.01296197 -15.36044121 0.25098039 0.27450980 0.65882353
v -0.08859278 0.00992084 -15.35819817 0.25098039 0.27450980 0.65882353
v -0.07836476 0.01946414 -15.34359264 0.25098039 0.27450980 0.65882353
v -0.08205853 0.01616092 -15.34047604 0.25098039 0.27450980 0.65882353
v -0.08711077 0.01207445 -15.34130859 0.25098039 0.27450980 0.65882353
v -0.07487327 0.01209540 -15.34235477 0.25098039 0.27450980 0.65882353
v -0.06858537 0.00537500 -15.34701920 0.25098039 0.27450980 0.65882353
v -0.06737286 -0.00881402 -15.35884762 0.25098039 0.27450980 0.65882353
v -0.07173562 -0.00368410 -15.35964489 0.25098039 0.27450980 0.65882353
v -0.06918786 -0.00275224 -15.35843372 0.25098039 0.27450980 0.65882353
v -0.06513415 -0.00719826 -15.35840225 0.25098039 0.27450980 0.65882353
v -0.07272220 0.00164600 -15.35924625 0.25098039 0.27450980 0.65882353
v -0.07090276 0.00092106 -15.35769844 0.25098039 0.27450980 0.65882353
v -0.06919464 0.00359031 -15.35361671 0.25098039 0.27450980 0.65882353
v -0.06525414 -0.00023688 -15.35395432 0.25098039 0.27450980 0.65882353
v -0.06789309 0.00330188 -15.34884167 0.25098039 0.27450980 0.65882353
v -0.06582481 0.00017761 -15.34768581 0.25098039 0.27450980 0.65882353
v -0.06187022 -0.00439102 -15.35373878 0.25098039 0.27450980 0.65882353
v -0.06149220 -0.00895232 -15.35727692 0.25098039 0.27450980 0.65882353
v -0.05920503 -0.00834432 -15.35341549 0.25098039 0.27450980 0.65882353
v -0.06326739 -0.01159054 -15.35675621 0.25098039 0.27450980 0.65882353
v -0.06828623 0.00554628 -15.35437965 0.25098039 0.27450980 0.65882353
v -0.07953282 0.00429080 -15.36071301 0.25098039 0.27450980 0.65882353
v -0.07584223 -0.00387742 -15.35946465 0.25098039 0.27450980 0.65882353
v -0.07092695 -0.01000901 -15.35766315 0.25098039 0.27450980 0.65882353
v -0.06581542 -0.01298023 -15.35511398 0.25098039 0.27450980 0.65882353
v -0.07965764 -0.00467073 -15.35683823 0.25098039 0.27450980 0.65882353
v -0.07452127 -0.00993774 -15.35459518 0.25098039 0.27450980 0.65882353
v -0.06988789 -0.01234240 -15.35167408 0.25098039 0.27450980 0.65882353
v -0.08163188 -0.00485702 -15.35243607 0.25098039 0.27450980 0.65882353
v -0.07608083 -0.00929654 -15.35091972 0.25098039 0.27450980 0.65882353
v -0.08875032 0.00613999 -15.35296535 0.25098039 0.27450980 0.65882353
v -0.08561946 0.00526334 -15.35848618 0.25098039 0.27450980 0.65882353
v -0.07202315 -0.01111411 -15.34993267 0.25098039 0.27450980 0.65882353
v -0.05888930 -0.01081536 -15.35237694 0.25098039 0.27450980 0.65882353
v -0.06207353 -0.01242339 -15.35029030 0.25098039 0.27450980 0.65882353
v -0.06709936 0.00088957 -15.34431267 0.25098039 0.27450980 0.65882353
v -0.06189023 -0.00333608 -15.34745121 0.25098039 0.27450980 0.65882353
v -0.06359094 -0.00402293 -15.34460926 0.25098039 0.27450980 0.65882353
v -0.07015118 0.00155678 -15.34142113 0.25098039 0.27450980 0.65882353
v -0.06564569 -0.00483663 -15.34234333 0.25098039 0.27450980 0.65882353
v -0.06012931 -0.00796364 -15.34705830 0.25098039 0.27450980 0.65882353
v -0.05962519 -0.00620746 -15.34940338 0.25098039 0.27450980 0.65882353
v -0.09109184 0.00925268 -15.35266209 0.25098039 0.27450980 0.65882353
v -0.09064478 0.01032583 -15.34612942 0.25098039 0.27450980 0.65882353
v -0.08808938 0.00758267 -15.34632397 0.25098039 0.27450980 0.65882353
v -0.08148147 -0.00283998 -15.34635162 0.25098039 0.27450980 0.65882353
v -0.08461183 0.00852364 -15.34138012 0.25098039 0.27450980 0.65882353
v -0.07901315 0.01056907 -15.34043503 0.25098039 0.27450980 0.65882353
v -0.07379863 0.00052085 -15.34013271 0.25098039 0.27450980 0.65882353
v -0.07827081 -0.00104725 -15.34156322 0.25098039 0.27450980 0.65882353
v -0.06928983 -0.00609892 -15.34191799 0.25098039 0.27450980 0.65882353
v -0.07220247 -0.00695086 -15.34299660 0.25098039 0.27450980 0.65882353
v -0.07518314 -0.00874536 -15.34663773 0.25098039 0.27450980 0.65882353
v -0.06656066 -0.00972876 -15.34463596 0.25098039 0.27450980 0.65882353
v -0.06279723 -0.00912274 -15.34501457 0.25098039 0.27450980 0.65882353
v -0.06668696 -0.01212219 -15.34822941 0.25098039 0.27450980 0.65882353
v -0.06959368 -0.00924855 -15.34484863 0.25098039 0.27450980 0.65882353
v -0.07035145 -0.01071567 -15.34737682 0.25098039 0.27450980 0.65882353
v -0.16587722 -0.00442164 -15.30365562 0.25098039 0.27450980 0.65882353
v -0.15931295 -0.00489345 -15.30442238 0.25098039 0.27450980 0.65882353
v -0.16322704 -0.00072529 -15.30794525 0.25098039 0.27450980 0.65882353
v -0.16706036 0.00676152 -15.31274986 0.25098039 0.27450980 0.65882353
v -0.17533989 0.01377943 -15.31536674 0.25098039 0.27450980 0.65882353
v -0.16052346 0.00823479 -15.31343365 0.25098039 0.27450980 0.65882353
v -0.15700114 0.00069987 -15.30798721 0.25098039 0.27450980 0.65882353
v -0.15200514 -0.00572051 -15.30199337 0.25098039 0.27450980 0.65882353
v -0.15664318 0.01672015 -15.31770420 0.25098039 0.27450980 0.65882353
f 2 3 1
f 1 3 4
f 5 6 8
f 8 6 7
f 9 4 10
f 10 4 3
f 12 13 11
f 11 13 9
f 14 12 16
f 16 12 15
f 18 19 17
f 17 19 20
f 22 23 21
f 21 23 24
f 26 27 25
f 25 27 28
f 30 31 29
f 29 31 32
f 33 34 36
f 36 34 35
f 37 38 40
f 40 38 39
f 41 42 6
f 6 42 43
f 6 43 7
f 7 43 44
f 45 34 46
f 46 34 33
f 48 49 47
f 47 49 50
f 52 53 51
f 51 53 54
f 56 52 55
f 55 52 51
f 58 59 57
f 57 59 60
f 61 62 4
f 4 62 1
f 64 65 63
f 63 65 66
f 68 69 67
f 67 69 70
f 72 73 71
f 71 73 74
f 76 77 75
f 75 77 78
f 53 79 54
f 54 79 80
f 82 83 81
f 81 83 84
f 85 86 52
f 52 86 53
f 57 60 87
f 87 60 88
f 89 90 43
f 43 90 44
f 43 42 89
f 89 42 91
f 40 39 92
f 92 39 93
f 94 70 64
f 64 70 69
f 13 61 9
f 9 61 4
f 25 28 69
f 69 28 95
f 96 25 68
f 68 25 69
f 98 99 97
f 97 99 100
f 101 102 104
f 104 102 103
f 106 30 105
f 105 30 29
f 51 54 107
f 107 54 108
f 54 80 108
f 108 80 109
f 111 112 110
f 110 112 113
f 115 5 114
f 114 5 116
f 115 41 5
f 5 41 6
f 36 35 111
f 111 35 117
f 35 118 117
f 117 118 119
f 34 120 35
f 35 120 118
f 34 45 120
f 120 45 121
f 125 126 124
f 124 126 127
f 128 129 14
f 14 129 130
f 33 131 46
f 46 131 132
f 133 94 63
f 63 94 64
f 134 135 137
f 137 135 136
f 139 140 138
f 138 140 141
f 77 142 78
f 78 142 143
f 144 145 20
f 20 145 146
f 148 149 147
f 147 149 72
f 151 152 150
f 150 152 153
f 82 101 83
f 83 101 104
f 101 82 155
f 155 82 154
f 156 157 58
f 58 157 59
f 158 68 147
f 147 68 67
f 159 146 15
f 15 146 16
f 68 158 96
f 96 158 160
f 129 66 130
f 130 66 65
f 162 163 161
f 161 163 164
f 166 167 165
f 165 167 168
f 170 171 169
f 169 171 172
f 174 171 173
f 173 171 170
f 176 177 175
f 175 177 178
f 180 181 179
f 179 181 24
f 182 183 21
f 21 183 184
f 81 185 82
f 82 185 154
f 186 187 188
f 188 187 144
f 158 71 160
f 160 71 189
f 190 135 157
f 157 135 59
f 169 172 139
f 139 172 140
f 147 72 158
f 158 72 71
f 192 193 191
f 191 193 194
f 167 166 49
f 49 166 195
f 196 190 50
f 50 190 157
f 197 198 200
f 200 198 199
f 21 24 182
f 182 24 181
f 146 159 20
f 20 159 17
f 182 181 81
f 81 181 185
f 201 185 180
f 180 185 181
f 202 203 83
f 83 203 84
f 205 206 204
f 204 206 85
f 207 22 184
f 184 22 21
f 179 24 208
f 208 24 23
f 208 209 179
f 179 209 205
f 209 210 205
f 205 210 206
f 212 206 211
f 211 206 210
f 179 205 180
f 180 205 204
f 213 176 88
f 88 176 214
f 86 85 212
f 212 85 206
f 193 217 218
f 217 219 218
f 218 219 220
f 219 18 220
f 220 18 17
f 19 221 20
f 20 221 144
f 222 223 225
f 225 223 224
f 175 226 176
f 176 226 214
f 227 87 214
f 214 87 88
f 220 17 228
f 228 17 159
f 134 213 60
f 60 213 88
f 138 229 151
f 151 229 152
f 193 192 210
f 210 192 211
f 230 194 218
f 218 194 193
f 231 232 228
f 228 232 230
f 233 234 91
f 91 234 89
f 235 236 93
f 93 236 92
f 230 232 234
f 234 232 237
f 47 238 48
f 48 238 239
f 240 191 235
f 235 191 236
f 5 8 116
f 116 8 241
f 242 243 189
f 189 243 160
f 244 245 98
f 98 245 99
f 156 246 47
f 47 246 238
f 76 247 77
f 77 247 248
f 250 125 249
f 249 125 124
f 252 253 251
f 251 253 254
f 111 110 36
f 36 110 255
f 256 33 255
f 255 33 36
f 257 258 154
f 154 258 155
f 63 169 133
f 133 169 139
f 66 170 63
f 63 170 169
f 173 170 129
f 129 170 66
f 129 128 173
f 173 128 259
f 128 260 259
f 259 260 261
f 213 134 262
f 262 134 137
f 263 264 186
f 186 264 187
f 112 265 113
f 113 265 266
f 11 267 268
f 234 233 230
f 230 233 194
f 153 269 70
f 70 269 67
f 175 178 165
f 165 178 141
f 150 153 94
f 94 153 70
f 271 221 270
f 270 221 207
f 269 153 272
f 272 153 152
f 121 45 109
f 109 45 108
f 47 50 156
f 156 50 157
f 57 273 58
f 58 273 274
f 145 275 260
f 260 275 261
f 276 149 143
f 143 149 78
f 148 269 75
f 75 269 272
f 207 277 270
f 270 277 278
f 195 196 49
f 49 196 50
f 59 135 60
f 60 135 134
f 83 104 202
f 202 104 279
f 149 148 78
f 78 148 75
f 247 278 248
f 248 278 277
f 183 182 84
f 84 182 81
f 48 239 281
f 281 239 282
f 227 223 283
f 283 223 222
f 223 226 224
f 224 226 168
f 281 282 224
f 224 282 225
f 165 168 175
f 175 168 226
f 264 263 138
f 138 263 229
f 14 16 128
f 128 16 260
f 220 228 218
f 218 228 230
f 87 227 284
f 284 227 283
f 260 16 145
f 145 16 146
f 244 98 258
f 258 98 155
f 58 274 156
f 156 274 246
f 107 285 51
f 51 285 55
f 243 286 160
f 160 286 96
f 234 237 89
f 89 237 90
f 46 132 107
f 107 132 285
f 253 252 249
f 249 252 250
f 286 26 96
f 96 26 25
f 106 105 287
f 287 105 288
f 272 152 289
f 289 152 229
f 138 151 139
f 139 151 133
f 183 290 161
f 161 290 162
f 291 292 277
f 277 292 293
f 151 150 133
f 133 150 94
f 262 275 177
f 177 275 187
f 144 187 145
f 145 187 275
f 273 57 284
f 284 57 87
f 174 136 190
f 190 136 135
f 111 117 112
f 112 117 38
f 117 119 38
f 38 119 123
f 112 38 265
f 265 38 37
f 287 288 254
f 254 288 251
f 228 159 231
f 231 159 15
f 223 227 226
f 226 227 214
f 147 67 148
f 148 67 269
f 224 168 281
f 281 168 167
f 199 163 200
f 200 163 162
f 45 46 108
f 108 46 107
f 281 167 48
f 48 167 49
f 161 164 291
f 291 164 292
f 38 123 39
f 293 294 277
f 277 294 248
f 284 283 296
f 296 283 295
f 284 296 273
f 273 296 297
f 274 273 298
f 298 273 297
f 246 274 299
f 299 274 298
f 283 222 295
f 295 222 300
f 222 225 300
f 300 225 301
f 301 225 302
f 302 225 282
f 303 304 300
f 300 304 295
f 306 307 305
f 305 307 308
f 309 310 308
f 308 310 305
f 308 307 312
f 312 307 311
f 313 314 312
f 312 314 315
f 311 316 312
f 312 316 313
f 317 304 311
f 311 304 316
f 315 309 312
f 312 309 308
f 318 319 321
f 321 319 320
f 319 318 309
f 309 318 310
f 311 307 317
f 317 307 306
f 306 297 317
f 317 297 296
f 306 322 297
f 297 322 298
f 305 323 306
f 306 323 322
f 323 305 324
f 324 305 310
f 304 317 295
f 295 317 296
f 318 325 310
f 310 325 324
f 323 324 326
f 326 324 327
f 324 325 327
f 327 325 328
f 326 327 329
f 329 327 330
f 329 331 326
f 326 331 332
f 333 330 328
f 328 330 327
f 323 326 322
f 322 326 332
f 322 332 298
f 298 332 299
f 325 318 334
f 334 318 321
f 313 316 335
f 335 316 304
f 335 336 313
f 313 336 314
f 304 303 335
f 335 303 337
f 336 335 338
f 338 335 337
f 336 339 314
f 314 339 340
f 246 299 238
f 238 299 341
f 239 342 282
f 282 342 302
f 342 239 341
f 341 239 238
f 341 331 342
f 342 331 343
f 331 329 343
f 343 329 344
f 342 343 302
f 302 343 345
f 341 299 331
f 331 299 332
f 346 301 345
f 345 301 302
f 346 303 301
f 301 303 300
f 347 337 346
f 346 337 303
f 347 346 348
f 348 346 345
f 349 347 350
f 350 347 348
f 343 344 345
f 345 344 348
f 344 351 348
f 348 351 350
f 337 347 338
f 338 347 349
f 353 338 352
f 352 338 349
f 352 355 354
f 354 355 356
f 352 349 355
f 355 349 350
f 352 354 353
f 353 354 334
f 353 334 339
f 339 334 321
f 339 336 353
f 353 336 338
f 329 330 344
f 344 330 351
f 356 351 333
f 333 351 330
f 356 355 351
f 351 355 350
f 354 356 328
f 328 356 333
f 328 325 354
f 354 325 334
f 309 315 319
f 319 315 320
f 320 340 321
f 321 340 339
f 320 315 340
f 340 315 314
f 137 136 261
f 261 136 259
f 140 166 141
f 141 166 165
f 172 171 195
f 195 171 196
f 171 174 196
f 196 174 190
f 178 177 264
f 264 177 187
f 172 195 140
f 140 195 166
f 137 261 262
f 262 261 275
f 178 264 141
f 141 264 138
f 262 177 213
f 213 177 176
f 136 174 259
f 259 174 173
f 358 359 357
f 357 359 360
f 362 363 361
f 361 363 364
f 361 364 365
f 365 364 366
f 367 368 370
f 370 368 369
f 76 371 247
f 247 371 372
f 373 374 362
f 362 374 363
f 376 377 375
f 375 377 378
f 289 229 380
f 380 229 379
f 381 379 263
f 263 379 229
f 383 384 382
f 382 384 385
f 386 368 374
f 374 368 363
f 76 289 371
f 371 289 380
f 377 376 359
f 359 376 387
f 388 386 360
f 360 386 374
f 389 383 366
f 366 383 390
f 392 393 391
f 391 393 394
f 383 382 390
f 390 382 395
f 396 365 390
f 390 365 366
f 389 366 367
f 367 366 364
f 357 397 358
f 358 397 398
f 373 399 357
f 357 399 397
f 389 367 400
f 400 367 370
f 382 385 375
f 375 385 372
f 357 360 373
f 373 360 374
f 361 401 362
f 362 401 402
f 387 388 359
f 359 388 360
f 363 368 364
f 364 368 367
f 358 398 403
f 403 398 404
f 396 392 405
f 405 392 391
f 392 395 393
f 393 395 378
f 393 403 394
f 394 403 404
f 375 378 382
f 382 378 395
f 365 396 406
f 406 396 405
f 362 402 373
f 373 402 399
f 271 270 400
f 400 270 384
f 401 361 406
f 406 361 365
f 381 369 386
f 386 369 368
f 392 396 395
f 395 396 390
f 393 378 403
f 403 378 377
f 403 377 358
f 358 377 359
f 406 405 408
f 408 405 407
f 406 408 401
f 401 408 409
f 401 409 402
f 402 409 410
f 402 410 399
f 399 410 411
f 405 391 407
f 407 391 412
f 391 394 412
f 412 394 413
f 394 404 413
f 413 404 414
f 415 416 412
f 412 416 407
f 418 419 417
f 417 419 420
f 421 422 418
f 418 422 419
f 419 422 424
f 424 422 423
f 425 426 424
f 424 426 427
f 423 428 424
f 424 428 425
f 427 420 424
f 424 420 419
f 420 429 417
f 417 429 430
f 423 422 431
f 431 422 421
f 421 409 431
f 431 409 408
f 421 432 409
f 409 432 410
f 418 433 421
f 421 433 432
f 434 433 417
f 417 433 418
f 431 416 423
f 423 416 428
f 416 431 407
f 407 431 408
f 435 434 430
f 430 434 417
f 433 434 436
f 436 434 437
f 434 435 437
f 437 435 438
f 436 437 439
f 439 437 440
f 439 441 436
f 436 441 442
f 438 443 437
f 437 443 440
f 436 442 433
f 433 442 432
f 432 442 410
f 410 442 411
f 435 430 445
f 445 430 444
f 430 429 444
f 444 429 446
f 425 428 447
f 447 428 416
f 426 425 448
f 448 425 447
f 416 415 447
f 447 415 449
f 447 449 448
f 448 449 450
f 451 452 448
f 448 452 426
f 446 452 444
f 444 452 451
f 399 411 397
f 397 411 453
f 398 454 404
f 404 454 414
f 454 398 453
f 453 398 397
f 453 441 454
f 454 441 455
f 441 439 455
f 455 439 456
f 454 455 414
f 414 455 457
f 441 453 442
f 442 453 411
f 458 413 457
f 457 413 414
f 458 415 413
f 413 415 412
f 458 459 415
f 415 459 449
f 459 458 460
f 460 458 457
f 461 459 462
f 462 459 460
f 455 456 457
f 457 456 460
f 456 463 460
f 460 463 462
f 459 461 449
f 449 461 450
f 465 450 464
f 464 450 461
f 464 467 466
f 466 467 468
f 464 461 467
f 467 461 462
f 464 466 465
f 465 466 445
f 465 445 451
f 451 445 444
f 451 448 465
f 465 448 450
f 439 440 456
f 456 440 463
f 468 463 443
f 443 463 440
f 468 467 463
f 463 467 462
f 466 468 438
f 438 468 443
f 438 435 466
f 466 435 445
f 420 427 429
f 429 427 446
f 446 427 452
f 452 427 426
f 370 369 188
f 188 369 186
f 371 376 372
f 372 376 375
f 380 379 387
f 387 379 388
f 379 381 388
f 388 381 386
f 385 384 278
f 278 384 270
f 380 387 371
f 371 387 376
f 400 370 271
f 271 370 188
f 385 278 372
f 372 278 247
f 400 384 389
f 389 384 383
f 369 381 186
f 186 381 263
f 221 271 144
f 144 271 188
f 221 19 207
f 207 19 22
f 19 18 22
f 22 18 23
f 18 219 23
f 23 219 208
f 469 470 472
f 472 470 471
f 474 475 473
f 473 475 476
f 473 476 477
f 477 476 478
f 480 481 479
f 479 481 482
f 483 484 474
f 474 484 475
f 486 487 485
f 485 487 488
f 489 490 77
f 77 490 142
f 491 489 248
f 248 489 77
f 493 494 492
f 492 494 495
f 496 480 484
f 484 480 475
f 486 497 487
f 487 497 471
f 498 496 472
f 472 496 484
f 499 493 478
f 478 493 500
f 501 502 504
f 504 502 503
f 493 492 500
f 500 492 505
f 506 477 500
f 500 477 478
f 499 478 479
f 479 478 476
f 469 507 470
f 470 507 508
f 483 509 469
f 469 509 507
f 479 482 499
f 499 482 510
f 492 495 485
f 485 495 511
f 483 469 484
f 484 469 472
f 473 512 474
f 474 512 513
f 497 498 471
f 471 498 472
f 475 480 476
f 476 480 479
f 470 508 514
f 514 508 515
f 506 502 516
f 516 502 501
f 503 502 488
f 488 502 505
f 514 515 503
f 503 515 504
f 485 488 492
f 492 488 505
f 477 506 517
f 517 506 516
f 474 513 483
f 483 513 509
f 510 292 494
f 494 292 164
f 512 473 517
f 517 473 477
f 491 481 496
f 496 481 480
f 502 506 505
f 505 506 500
f 503 488 514
f 514 488 487
f 514 487 470
f 470 487 471
f 517 516 519
f 519 516 518
f 517 519 512
f 512 519 520
f 512 520 513
f 513 520 521
f 513 521 509
f 509 521 522
f 516 501 518
f 518 501 523
f 501 504 523
f 523 504 524
f 524 504 525
f 525 504 515
f 526 527 523
f 523 527 518
f 529 530 528
f 528 530 531
f 532 533 529
f 529 533 530
f 530 533 535
f 535 533 534
f 536 537 535
f 535 537 538
f 534 539 535
f 535 539 536
f 538 531 535
f 535 531 530
f 540 541 531
f 531 541 528
f 533 532 534
f 534 532 542
f 532 520 542
f 542 520 519
f 532 543 520
f 520 543 521
f 529 544 532
f 532 544 543
f 544 529 545
f 545 529 528
f 534 542 539
f 539 542 527
f 527 542 518
f 518 542 519
f 541 546 528
f 528 546 545
f 547 544 548
f 548 544 545
f 546 549 545
f 545 549 548
f 550 547 551
f 551 547 548
f 547 550 553
f 553 550 552
f 549 554 548
f 548 554 551
f 544 547 543
f 543 547 553
f 543 553 521
f 521 553 522
f 546 541 556
f 556 541 555
f 541 540 555
f 555 540 557
f 536 539 558
f 558 539 527
f 537 536 559
f 559 536 558
f 527 526 558
f 558 526 560
f 559 558 561
f 561 558 560
f 559 562 537
f 537 562 563
f 557 563 555
f 555 563 562
f 509 522 507
f 507 522 564
f 508 565 515
f 515 565 525
f 565 508 564
f 564 508 507
f 564 552 565
f 565 552 566
f 552 550 566
f 566 550 567
f 565 566 525
f 525 566 568
f 564 522 552
f 552 522 553
f 569 524 568
f 568 524 525
f 569 526 524
f 524 526 523
f 570 560 569
f 569 560 526
f 570 569 571
f 571 569 568
f 572 570 573
f 573 570 571
f 566 567 568
f 568 567 571
f 567 574 571
f 571 574 573
f 570 572 560
f 560 572 561
f 576 561 575
f 575 561 572
f 575 578 577
f 577 578 579
f 575 572 578
f 578 572 573
f 575 577 576
f 576 577 556
f 576 556 562
f 562 556 555
f 562 559 576
f 576 559 561
f 550 551 567
f 567 551 574
f 579 574 554
f 554 574 551
f 579 578 574
f 574 578 573
f 579 554 577
f 577 554 549
f 549 546 577
f 577 546 556
f 531 538 540
f 540 538 557
f 557 538 563
f 563 538 537
f 481 294 482
f 482 294 293
f 580 486 511
f 511 486 485
f 490 489 497
f 497 489 498
f 489 491 498
f 498 491 496
f 163 495 164
f 164 495 494
f 580 490 486
f 486 490 497
f 482 293 510
f 510 293 292
f 495 163 511
f 511 163 199
f 494 493 510
f 510 493 499
f 481 491 294
f 294 491 248
f 582 583 581
f 581 583 584
f 586 587 585
f 585 587 588
f 585 588 589
f 589 588 590
f 592 593 591
f 591 593 594
f 595 596 598
f 598 596 597
f 599 600 586
f 586 600 587
f 601 602 604
f 604 602 603
f 605 606 608
f 608 606 607
f 609 607 200
f 200 607 606
f 610 611 613
f 613 611 612
f 600 614 587
f 587 614 592
f 596 605 597
f 597 605 608
f 602 615 603
f 603 615 583
f 616 614 584
f 584 614 600
f 611 618 617
f 617 618 590
f 620 621 619
f 619 621 622
f 610 623 611
f 611 623 618
f 624 589 618
f 618 589 590
f 617 590 591
f 591 590 588
f 581 625 582
f 582 625 626
f 599 627 581
f 581 627 625
f 591 594 617
f 617 594 628
f 601 610 598
f 598 610 613
f 581 584 599
f 599 584 600
f 585 629 586
f 586 629 630
f 615 616 583
f 583 616 584
f 587 592 588
f 588 592 591
f 582 626 631
f 631 626 632
f 624 620 633
f 633 620 619
f 621 620 604
f 604 620 623
f 631 632 621
f 621 632 622
f 610 601 623
f 623 601 604
f 589 624 634
f 634 624 633
f 586 630 599
f 599 630 627
f 203 202 628
f 628 202 612
f 629 585 634
f 634 585 589
f 609 593 614
f 614 593 592
f 620 624 623
f 623 624 618
f 631 621 603
f 603 621 604
f 582 631 583
f 583 631 603
f 634 633 636
f 636 633 635
f 634 636 629
f 629 636 637
f 629 637 630
f 630 637 638
f 630 638 627
f 627 638 639
f 633 619 635
f 635 619 640
f 619 622 640
f 640 622 641
f 641 622 642
f 642 622 632
f 644 635 643
f 643 635 640
f 645 646 648
f 648 646 647
f 649 650 646
f 646 650 647
f 647 650 652
f 652 650 651
f 652 653 655
f 655 653 654
f 651 656 652
f 652 656 653
f 655 648 652
f 652 648 647
f 648 657 645
f 645 657 658
f 650 649 651
f 651 649 659
f 649 637 659
f 659 637 636
f 649 660 637
f 637 660 638
f 661 660 646
f 646 660 649
f 662 661 645
f 645 661 646
f 651 659 656
f 656 659 644
f 644 659 635
f 635 659 636
f 663 662 658
f 658 662 645
f 664 661 665
f 665 661 662
f 663 666 662
f 662 666 665
f 667 664 668
f 668 664 665
f 664 667 670
f 670 667 669
f 666 671 665
f 665 671 668
f 661 664 660
f 660 664 670
f 660 670 638
f 638 670 639
f 658 672 663
f 663 672 673
f 658 657 672
f 672 657 674
f 653 656 675
f 675 656 644
f 653 675 654
f 654 675 676
f 675 644 677
f 677 644 643
f 676 675 678
f 678 675 677
f 679 680 676
f 676 680 654
f 674 680 672
f 672 680 679
f 627 639 625
f 625 639 681
f 626 682 632
f 632 682 642
f 681 682 625
f 625 682 626
f 669 683 681
f 681 683 682
f 667 684 669
f 669 684 683
f 682 683 642
f 642 683 685
f 681 639 669
f 669 639 670
f 686 641 685
f 685 641 642
f 641 686 640
f 640 686 643
f 686 687 643
f 643 687 677
f 687 686 688
f 688 686 685
f 689 687 690
f 690 687 688
f 683 684 685
f 685 684 688
f 684 691 688
f 688 691 690
f 687 689 677
f 677 689 678
f 693 678 692
f 692 678 689
f 692 695 694
f 694 695 696
f 692 689 695
f 695 689 690
f 692 694 693
f 693 694 673
f 693 673 679
f 679 673 672
f 679 676 693
f 693 676 678
f 684 667 691
f 691 667 668
f 696 691 671
f 671 691 668
f 696 695 691
f 691 695 690
f 694 696 666
f 666 696 671
f 666 663 694
f 694 663 673
f 648 655 657
f 657 655 674
f 674 655 680
f 680 655 654
f 593 162 594
f 594 162 290
f 598 597 601
f 601 597 602
f 615 608 616
f 616 608 607
f 607 609 616
f 616 609 614
f 697 595 613
f 613 595 598
f 597 608 602
f 602 608 615
f 594 290 628
f 628 290 203
f 628 612 617
f 617 612 611
f 593 609 162
f 162 609 200
f 105 29 698
f 698 29 699
f 268 126 701
f 701 126 700
f 126 125 700
f 700 125 702
f 252 703 250
f 250 703 704
f 32 268 705
f 705 268 701
f 288 105 706
f 706 105 698
f 29 32 699
f 699 32 705
f 707 251 706
f 706 251 288
f 250 704 125
f 125 704 702
f 703 252 707
f 707 252 251
f 706 708 707
f 707 708 709
f 707 709 703
f 703 709 710
f 703 710 704
f 704 710 711
f 704 711 702
f 702 711 712
f 706 698 708
f 708 698 713
f 698 699 713
f 713 699 714
f 699 705 714
f 714 705 715
f 717 708 716
f 716 708 713
f 719 720 718
f 718 720 721
f 722 723 719
f 719 723 720
f 724 725 723
f 723 725 720
f 724 726 725
f 725 726 727
f 728 721 725
f 725 721 720
f 721 728 729
f 729 728 730
f 729 731 721
f 721 731 718
f 724 723 732
f 732 723 722
f 722 710 732
f 732 710 709
f 722 733 710
f 710 733 711
f 719 734 722
f 722 734 733
f 734 719 735
f 735 719 718
f 724 732 726
f 726 732 717
f 717 732 708
f 708 732 709
f 731 736 718
f 718 736 735
f 737 734 738
f 738 734 735
f 736 739 735
f 735 739 738
f 740 737 741
f 741 737 738
f 737 740 743
f 743 740 742
f 739 744 738
f 738 744 741
f 734 737 733
f 733 737 743
f 733 743 711
f 711 743 712
f 736 731 746
f 746 731 745
f 731 729 745
f 745 729 730
f 727 726 747
f 747 726 717
f 748 727 749
f 749 727 747
f 747 717 750
f 750 717 716
f 749 747 751
f 751 747 750
f 749 752 748
f 748 752 753
f 730 753 745
f 745 753 752
f 728 725 748
f 748 725 727
f 730 728 753
f 753 728 748
f 700 702 754
f 754 702 712
f 705 701 715
f 715 701 755
f 754 755 700
f 700 755 701
f 742 756 754
f 754 756 755
f 740 757 742
f 742 757 756
f 755 756 715
f 715 756 758
f 754 712 742
f 742 712 743
f 759 714 758
f 758 714 715
f 714 759 713
f 713 759 716
f 759 760 716
f 716 760 750
f 760 759 761
f 761 759 758
f 762 760 763
f 763 760 761
f 756 757 758
f 758 757 761
f 757 764 761
f 761 764 763
f 760 762 750
f 750 762 751
f 766 751 765
f 765 751 762
f 767 765 769
f 769 765 768
f 765 762 768
f 768 762 763
f 765 767 766
f 766 767 746
f 766 746 752
f 752 746 745
f 752 749 766
f 766 749 751
f 757 740 764
f 764 740 741
f 769 764 744
f 744 764 741
f 769 768 764
f 764 768 763
f 767 769 739
f 739 769 744
f 739 736 767
f 767 736 746
f 219 217 208
f 208 217 209
f 209 217 210
f 210 217 193
f 198 580 199
f 199 580 511
f 76 75 289
f 289 75 272
f 277 207 291
f 291 207 184
f 290 183 203
f 203 183 84
f 490 580 142
f 142 580 198
f 142 198 143
f 143 198 197
f 149 276 72
f 72 276 73
f 104 103 279
f 279 103 770
f 770 596 279
f 279 596 595
f 605 596 771
f 771 596 770
f 771 770 772
f 772 770 103
f 772 103 773
f 773 103 102
f 155 774 101
f 101 774 102
f 773 102 97
f 97 102 774
f 775 773 100
f 100 773 97
f 773 775 772
f 772 775 776
f 772 776 771
f 771 776 777
f 200 606 197
f 197 606 777
f 189 71 778
f 778 71 74
f 97 774 98
f 98 774 155
f 183 161 184
f 184 161 291
f 777 276 197
f 197 276 143
f 777 606 771
f 771 606 605
f 613 612 697
f 697 612 202
f 595 697 279
f 279 697 202
f 73 276 776
f 776 276 777
f 776 775 73
f 73 775 74
f 100 778 775
f 775 778 74
f 778 100 189
f 189 100 99
f 245 242 99
f 99 242 189
f 131 33 256
f 28 1 95
f 95 1 62
f 27 2 28
f 28 2 1
f 265 115 266
f 266 115 114
f 95 62 69
f 69 62 64
f 62 61 64
f 64 61 65
f 61 13 65
f 65 13 130
f 13 12 130
f 130 12 14
f 31 11 32
f 32 11 268
f 15 12 31
f 31 12 11
f 31 30 15
f 15 30 231
f 30 106 231
f 231 106 232
f 287 237 106
f 106 237 232
f 254 90 287
f 287 90 237
f 253 44 254
f 254 44 90
f 253 249 44
f 44 249 7
f 267 127 268
f 268 127 126
f 10 3 241
f 241 3 116
f 3 2 116
f 116 2 114
f 2 27 114
f 114 27 266
f 27 26 266
f 266 26 113
f 26 286 113
f 113 286 110
f 286 243 110
f 110 243 255
f 243 242 255
f 255 242 256
f 242 245 256
f 256 245 131
f 245 244 131
f 131 244 132
f 265 37 115
f 115 37 41
f 41 37 42
f 42 37 40
f 92 91 40
f 40 91 42
f 236 233 92
f 92 233 91
f 191 194 236
f 236 194 233
f 258 285 244
f 244 285 132
f 257 55 258
f 258 55 285
f 257 154 201
f 201 154 185
f 56 201 204
f 204 201 180
f 55 257 56
f 56 257 201
f 204 85 56
f 56 85 52
f 86 122 53
f 53 122 79
f 212 215 86
f 86 215 122
f 211 216 212
f 212 216 215
f 192 280 211
f 211 280 216
f 191 240 192
f 192 240 280
f 249 124 7
f 7 124 8
f 124 127 8
f 8 127 241
f 127 267 241
f 241 267 10
f 10 267 9
f 9 267 11
f 93 39 235
f 235 39 240
f 39 123 240
f 240 123 280
f 123 119 280
f 280 119 216
f 119 118 216
f 216 118 215
f 118 120 215
f 215 120 122
f 120 121 122
f 122 121 79
f 121 109 79
f 79 109 80

