# https://github.com/mikedh/trimesh
v -0.22950232 0.13065924 -15.97899437 0.25098039 0.27450980 0.65882353
v -0.23379304 0.13459350 -15.98854542 0.25098039 0.27450980 0.65882353
v -0.22346371 0.13004243 -15.98802280 0.25098039 0.27450980 0.65882353
v -0.21984436 0.12774226 -15.97831059 0.25098039 0.27450980 0.65882353
v -0.22643133 0.13757533 -16.00957298 0.25098039 0.27450980 0.65882353
v -0.22162016 0.14702098 -16.01534271 0.25098039 0.27450980 0.65882353
v -0.20872760 0.13830425 -16.00923347 0.25098039 0.27450980 0.65882353
v -0.21433182 0.13062736 -16.00582504 0.25098039 0.27450980 0.65882353
v -0.21168031 0.12651244 -15.97610092 0.25098039 0.27450980 0.65882353
v -0.21511531 0.12651360 -15.98684120 0.25098039 0.27450980 0.65882353
v -0.20778100 0.13009948 -15.97381592 0.25098039 0.27450980 0.65882353
v -0.20689540 0.13427627 -15.96096802 0.25098039 0.27450980 0.65882353
v -0.20930873 0.12833714 -15.96534634 0.25098039 0.27450980 0.65882353
v -0.20660658 0.13293707 -15.95259666 0.25098039 0.27450980 0.65882353
v -0.21094634 0.14503451 -15.95915318 0.25098039 0.27450980 0.65882353
v -0.21221238 0.13835345 -15.94640732 0.25098039 0.27450980 0.65882353
v -0.23970643 0.14905477 -15.95145321 0.25098039 0.27450980 0.65882353
v -0.25320533 0.14557107 -15.95222378 0.25098039 0.27450980 0.65882353
v -0.24828084 0.13421725 -15.94110489 0.25098039 0.27450980 0.65882353
v -0.23486726 0.13820437 -15.94193459 0.25098039 0.27450980 0.65882353
v -0.26709679 0.12999374 -15.94975567 0.25098039 0.27450980 0.65882353
v -0.25667855 0.13167939 -15.94412327 0.25098039 0.27450980 0.65882353
v -0.26198524 0.14384642 -15.95448112 0.25098039 0.27450980 0.65882353
v -0.27109131 0.14160174 -15.95899391 0.25098039 0.27450980 0.65882353
v -0.24585569 0.13227549 -15.98134708 0.25098039 0.27450980 0.65882353
v -0.25054368 0.13742563 -15.98989773 0.25098039 0.27450980 0.65882353
v -0.24482980 0.13758254 -15.98873615 0.25098039 0.27450980 0.65882353
v -0.24024439 0.13278961 -15.98072624 0.25098039 0.27450980 0.65882353
v -0.19955391 0.13646165 -15.97865582 0.25098039 0.27450980 0.65882353
v -0.20558189 0.14653142 -15.97580051 0.25098039 0.27450980 0.65882353
v -0.20631166 0.13913305 -15.97196865 0.25098039 0.27450980 0.65882353
v -0.20112155 0.13083336 -15.97937202 0.25098039 0.27450980 0.65882353
v -0.26669174 0.14435966 -16.01367950 0.25098039 0.27450980 0.65882353
v -0.27088010 0.15677948 -16.01832771 0.25098039 0.27450980 0.65882353
v -0.26546627 0.15936178 -16.01810646 0.25098039 0.27450980 0.65882353
v -0.26305518 0.14774716 -16.01333046 0.25098039 0.27450980 0.65882353
v -0.24218731 0.16032629 -16.01840210 0.25098039 0.27450980 0.65882353
v -0.24928412 0.16836479 -16.01831818 0.25098039 0.27450980 0.65882353
v -0.24451847 0.18139681 -16.01634789 0.25098039 0.27450980 0.65882353
v -0.23674592 0.17534785 -16.01322937 0.25098039 0.27450980 0.65882353
v -0.23177665 0.15307252 -16.01761818 0.25098039 0.27450980 0.65882353
v -0.22715794 0.16610919 -16.01442909 0.25098039 0.27450980 0.65882353
v -0.21720313 0.15770334 -16.01235390 0.25098039 0.27450980 0.65882353
v -0.20516467 0.14680097 -16.00656509 0.25098039 0.27450980 0.65882353
v -0.28342757 0.15315086 -16.01686859 0.25098039 0.27450980 0.65882353
v -0.28212947 0.14321993 -16.01363945 0.25098039 0.27450980 0.65882353
v -0.18762101 0.09557901 -15.92487526 0.25098039 0.27450980 0.65882353
v -0.19156866 0.09121606 -15.92450333 0.25098039 0.27450980 0.65882353
v -0.19419417 0.09440647 -15.92744255 0.25098039 0.27450980 0.65882353
v -0.18985644 0.09822732 -15.92709064 0.25098039 0.27450980 0.65882353
v -0.29591531 0.15297864 -16.00055885 0.25098039 0.27450980 0.65882353
v -0.29715687 0.15932471 -15.99249649 0.25098039 0.27450980 0.65882353
v -0.29980242 0.16286160 -15.99848175 0.25098039 0.27450980 0.65882353
v -0.29702699 0.15802693 -16.00627899 0.25098039 0.27450980 0.65882353
v -0.29434669 0.14627475 -15.99307537 0.25098039 0.27450980 0.65882353
v -0.29277816 0.15422925 -15.98468208 0.25098039 0.27450980 0.65882353
v -0.18749535 0.10275504 -15.91387558 0.25098039 0.27450980 0.65882353
v -0.18507427 0.10142377 -15.91834545 0.25098039 0.27450980 0.65882353
v -0.18774951 0.10523567 -15.91964817 0.25098039 0.27450980 0.65882353
v -0.19071069 0.10633964 -15.91539288 0.25098039 0.27450980 0.65882353
v -0.21567768 0.12581933 -15.96923351 0.25098039 0.27450980 0.65882353
v -0.22511132 0.12563194 -15.97165966 0.25098039 0.27450980 0.65882353
v -0.21123131 0.11512008 -15.95359039 0.25098039 0.27450980 0.65882353
v -0.21803766 0.11990134 -15.96055317 0.25098039 0.27450980 0.65882353
v -0.21177819 0.12346917 -15.96095562 0.25098039 0.27450980 0.65882353
v -0.20717406 0.12046448 -15.95433807 0.25098039 0.27450980 0.65882353
v -0.24185655 0.11717875 -15.96406078 0.25098039 0.27450980 0.65882353
v -0.24547736 0.12492003 -15.97257996 0.25098039 0.27450980 0.65882353
v -0.23892683 0.12567258 -15.97103119 0.25098039 0.27450980 0.65882353
v -0.23318556 0.11742745 -15.96223831 0.25098039 0.27450980 0.65882353
v -0.25837710 0.11946586 -15.97642231 0.25098039 0.27450980 0.65882353
v -0.25387359 0.11247938 -15.96741772 0.25098039 0.27450980 0.65882353
v -0.26163965 0.11002046 -15.97060680 0.25098039 0.27450980 0.65882353
v -0.26320481 0.11487642 -15.97713184 0.25098039 0.27450980 0.65882353
v -0.24367344 0.10198957 -15.95089912 0.25098039 0.27450980 0.65882353
v -0.24147603 0.09831814 -15.94296551 0.25098039 0.27450980 0.65882353
v -0.24447593 0.09773319 -15.94330788 0.25098039 0.27450980 0.65882353
v -0.24725221 0.10146695 -15.95148945 0.25098039 0.27450980 0.65882353
v -0.30226931 0.16730657 -16.00362396 0.25098039 0.27450980 0.65882353
v -0.29740429 0.16336340 -16.01144981 0.25098039 0.27450980 0.65882353
v -0.28469300 0.12260309 -15.96033859 0.25098039 0.27450980 0.65882353
v -0.28933856 0.11875722 -15.96991539 0.25098039 0.27450980 0.65882353
v -0.28816617 0.10877039 -15.96225739 0.25098039 0.27450980 0.65882353
v -0.28361875 0.11552284 -15.95424271 0.25098039 0.27450980 0.65882353
v -0.29219300 0.16558020 -15.98543644 0.25098039 0.27450980 0.65882353
v -0.29714042 0.16901462 -15.99069309 0.25098039 0.27450980 0.65882353
v -0.19211745 0.10102952 -15.91005421 0.25098039 0.27450980 0.65882353
v -0.19547500 0.10419723 -15.91211224 0.25098039 0.27450980 0.65882353
v -0.21812826 0.16790876 -16.00264168 0.25098039 0.27450980 0.65882353
v -0.20415336 0.15397467 -15.99947262 0.25098039 0.27450980 0.65882353
v -0.23009785 0.17758311 -16.00430679 0.25098039 0.27450980 0.65882353
v -0.23917621 0.18385406 -16.00486755 0.25098039 0.27450980 0.65882353
v -0.24500796 0.18991138 -16.00768852 0.25098039 0.27450980 0.65882353
v -0.22223054 0.11489661 -15.95751572 0.25098039 0.27450980 0.65882353
v -0.23417306 0.12792894 -15.97408199 0.25098039 0.27450980 0.65882353
v -0.25070935 0.13103461 -15.98241234 0.25098039 0.27450980 0.65882353
v -0.27679926 0.11477222 -15.98859978 0.25098039 0.27450980 0.65882353
v -0.27934250 0.12160267 -15.99674416 0.25098039 0.27450980 0.65882353
v -0.26900017 0.12223014 -15.99361324 0.25098039 0.27450980 0.65882353
v -0.26910913 0.11655856 -15.98667908 0.25098039 0.27450980 0.65882353
v -0.28794181 0.11202747 -15.97711563 0.25098039 0.27450980 0.65882353
v -0.28119749 0.10828476 -15.97967052 0.25098039 0.27450980 0.65882353
v -0.27938756 0.10191227 -15.97262955 0.25098039 0.27450980 0.65882353
v -0.28594917 0.10424322 -15.96974468 0.25098039 0.27450980 0.65882353
v -0.19525678 0.14206697 -15.98178864 0.25098039 0.27450980 0.65882353
v -0.20460550 0.15258521 -15.98058605 0.25098039 0.27450980 0.65882353
v -0.29102880 0.14776191 -16.00865555 0.25098039 0.27450980 0.65882353
v -0.29039383 0.15427928 -16.01327133 0.25098039 0.27450980 0.65882353
v -0.29192990 0.16186750 -16.01707077 0.25098039 0.27450980 0.65882353
v -0.25733870 0.14092872 -16.00247383 0.25098039 0.27450980 0.65882353
v -0.26042035 0.15001057 -16.01325035 0.25098039 0.27450980 0.65882353
v -0.25605661 0.15077952 -16.01324654 0.25098039 0.27450980 0.65882353
v -0.25482994 0.14223364 -16.00119209 0.25098039 0.27450980 0.65882353
v -0.23789179 0.13742808 -16.00009346 0.25098039 0.27450980 0.65882353
v -0.23988993 0.14427467 -16.01189423 0.25098039 0.27450980 0.65882353
v -0.22688028 0.13098779 -15.99883270 0.25098039 0.27450980 0.65882353
v -0.25872219 0.16414249 -16.01888275 0.25098039 0.27450980 0.65882353
v -0.26804137 0.16768385 -16.02397346 0.25098039 0.27450980 0.65882353
v -0.26037711 0.17248453 -16.02337456 0.25098039 0.27450980 0.65882353
v -0.27739692 0.16434586 -16.02302170 0.25098039 0.27450980 0.65882353
v -0.28588641 0.16199447 -16.02089691 0.25098039 0.27450980 0.65882353
v -0.30234909 0.17504457 -15.99426365 0.25098039 0.27450980 0.65882353
v -0.25355324 0.17710979 -16.02103806 0.25098039 0.27450980 0.65882353
v -0.20613392 0.12712936 -16.00180054 0.25098039 0.27450980 0.65882353
v -0.19861230 0.12464789 -15.99818039 0.25098039 0.27450980 0.65882353
v -0.20222065 0.12236305 -15.99152374 0.25098039 0.27450980 0.65882353
v -0.20930904 0.12430941 -15.99425793 0.25098039 0.27450980 0.65882353
v -0.20507127 0.12967587 -15.94402409 0.25098039 0.27450980 0.65882353
v -0.20399950 0.12446203 -15.95017338 0.25098039 0.27450980 0.65882353
v -0.20677675 0.12878369 -15.95867538 0.25098039 0.27450980 0.65882353
v -0.26836580 0.13490935 -16.00685883 0.25098039 0.27450980 0.65882353
v -0.28125322 0.13415229 -16.00738525 0.25098039 0.27450980 0.65882353
v -0.21494852 0.11058371 -15.94970322 0.25098039 0.27450980 0.65882353
v -0.19379276 0.10956447 -15.91766739 0.25098039 0.27450980 0.65882353
v -0.19042611 0.10852397 -15.92216682 0.25098039 0.27450980 0.65882353
v -0.19930811 0.12025701 -15.93383312 0.25098039 0.27450980 0.65882353
v -0.20285705 0.12122921 -15.92807102 0.25098039 0.27450980 0.65882353
v -0.21587721 0.10683358 -15.93825436 0.25098039 0.27450980 0.65882353
v -0.21251407 0.10811612 -15.94413090 0.25098039 0.27450980 0.65882353
v -0.21132466 0.10679725 -15.94081783 0.25098039 0.27450980 0.65882353
v -0.21397279 0.10426901 -15.93541145 0.25098039 0.27450980 0.65882353
v -0.25275972 0.09666017 -15.94809437 0.25098039 0.27450980 0.65882353
v -0.25524974 0.09978805 -15.95485497 0.25098039 0.27450980 0.65882353
v -0.22990556 0.12494735 -15.93443680 0.25098039 0.27450980 0.65882353
v -0.21936217 0.13421097 -15.93492603 0.25098039 0.27450980 0.65882353
v -0.22290257 0.14125438 -15.94291019 0.25098039 0.27450980 0.65882353
v -0.24897072 0.11535165 -15.96625137 0.25098039 0.27450980 0.65882353
v -0.24647993 0.10784234 -15.95866585 0.25098039 0.27450980 0.65882353
v -0.25045800 0.10649543 -15.95941639 0.25098039 0.27450980 0.65882353
v -0.22411658 0.11165743 -15.95411015 0.25098039 0.27450980 0.65882353
v -0.21968086 0.10785888 -15.94689846 0.25098039 0.27450980 0.65882353
v -0.22566098 0.10835588 -15.94924355 0.25098039 0.27450980 0.65882353
v -0.22974144 0.11179923 -15.95538139 0.25098039 0.27450980 0.65882353
v -0.29217774 0.12926897 -15.97747517 0.25098039 0.27450980 0.65882353
v -0.29087254 0.12125097 -15.98617935 0.25098039 0.27450980 0.65882353
v -0.18520546 0.09904885 -15.92247391 0.25098039 0.27450980 0.65882353
v -0.18755654 0.10226817 -15.92421627 0.25098039 0.27450980 0.65882353
v -0.25233731 0.12299888 -15.97459126 0.25098039 0.27450980 0.65882353
v -0.22809649 0.14960495 -15.95314884 0.25098039 0.27450980 0.65882353
v -0.25584450 0.12924105 -15.98386288 0.25098039 0.27450980 0.65882353
v -0.26881674 0.10921372 -15.94334507 0.25098039 0.27450980 0.65882353
v -0.26921424 0.10281108 -15.94701481 0.25098039 0.27450980 0.65882353
v -0.26555994 0.09917746 -15.94255352 0.25098039 0.27450980 0.65882353
v -0.26620364 0.10312653 -15.93782043 0.25098039 0.27450980 0.65882353
v -0.20628011 0.09505792 -15.92420864 0.25098039 0.27450980 0.65882353
v -0.20237319 0.09405684 -15.92840385 0.25098039 0.27450980 0.65882353
v -0.19934504 0.09167328 -15.92480659 0.25098039 0.27450980 0.65882353
v -0.20299466 0.09227175 -15.92016983 0.25098039 0.27450980 0.65882353
v -0.20836502 0.11144212 -15.94693375 0.25098039 0.27450980 0.65882353
v -0.20414798 0.11644980 -15.94790840 0.25098039 0.27450980 0.65882353
v -0.20188875 0.11236551 -15.94295120 0.25098039 0.27450980 0.65882353
v -0.20665415 0.10867535 -15.94224453 0.25098039 0.27450980 0.65882353
v -0.20150161 0.12105885 -15.94347668 0.25098039 0.27450980 0.65882353
v -0.19906951 0.11712554 -15.93946457 0.25098039 0.27450980 0.65882353
v -0.20736292 0.09893166 -15.91869545 0.25098039 0.27450980 0.65882353
v -0.20443311 0.10472549 -15.91425800 0.25098039 0.27450980 0.65882353
v -0.21364976 0.11417860 -15.92424011 0.25098039 0.27450980 0.65882353
v -0.21415147 0.10700302 -15.92807961 0.25098039 0.27450980 0.65882353
v -0.27547261 0.15357101 -15.96747017 0.25098039 0.27450980 0.65882353
v -0.28466040 0.14869753 -15.97202969 0.25098039 0.27450980 0.65882353
v -0.28059793 0.13663873 -15.96374416 0.25098039 0.27450980 0.65882353
v -0.27770749 0.12538207 -15.95518017 0.25098039 0.27450980 0.65882353
v -0.27353978 0.11467882 -15.94807339 0.25098039 0.27450980 0.65882353
v -0.26504809 0.12070983 -15.94126034 0.25098039 0.27450980 0.65882353
v -0.28701609 0.13396952 -15.96831512 0.25098039 0.27450980 0.65882353
v -0.22423260 0.11223905 -15.93451118 0.25098039 0.27450980 0.65882353
v -0.22103305 0.12072444 -15.93151093 0.25098039 0.27450980 0.65882353
v -0.22742674 0.11834785 -15.93258762 0.25098039 0.27450980 0.65882353
v -0.26178822 0.12513795 -15.98632526 0.25098039 0.27450980 0.65882353
v -0.18975587 0.10561730 -15.92694283 0.25098039 0.27450980 0.65882353
v -0.25471222 0.18785335 -15.98768997 0.25098039 0.27450980 0.65882353
v -0.26732254 0.18483621 -15.98355579 0.25098039 0.27450980 0.65882353
v -0.26209703 0.17920661 -15.97901249 0.25098039 0.27450980 0.65882353
v -0.24779947 0.18187860 -15.98423862 0.25098039 0.27450980 0.65882353
v -0.19671510 0.09661212 -15.93146801 0.25098039 0.27450980 0.65882353
v -0.19172809 0.10085122 -15.93101883 0.25098039 0.27450980 0.65882353
v -0.26132596 0.09665299 -15.95481682 0.25098039 0.27450980 0.65882353
v -0.25849774 0.09495700 -15.94851589 0.25098039 0.27450980 0.65882353
v -0.26156497 0.09433659 -15.94617367 0.25098039 0.27450980 0.65882353
v -0.26588917 0.09377407 -15.95247555 0.25098039 0.27450980 0.65882353
v -0.28914210 0.14692749 -15.97580910 0.25098039 0.27450980 0.65882353
v -0.28717300 0.10252763 -15.95756626 0.25098039 0.27450980 0.65882353
v -0.28351694 0.10888837 -15.95056248 0.25098039 0.27450980 0.65882353
v -0.28777760 0.15940884 -15.97934532 0.25098039 0.27450980 0.65882353
v -0.28004217 0.16409287 -15.97503948 0.25098039 0.27450980 0.65882353
v -0.28377974 0.17133892 -15.98074150 0.25098039 0.27450980 0.65882353
v -0.25067627 0.11888682 -15.93478775 0.25098039 0.27450980 0.65882353
v -0.26756170 0.15511629 -15.96363640 0.25098039 0.27450980 0.65882353
v -0.27279490 0.16578466 -15.97254372 0.25098039 0.27450980 0.65882353
v -0.27692640 0.17453963 -15.97920036 0.25098039 0.27450980 0.65882353
v -0.28071228 0.18075135 -15.98361969 0.25098039 0.27450980 0.65882353
v -0.28780890 0.17658985 -15.98486233 0.25098039 0.27450980 0.65882353
v -0.19923846 0.10755602 -15.91457748 0.25098039 0.27450980 0.65882353
v -0.20104501 0.10054328 -15.91086006 0.25098039 0.27450980 0.65882353
v -0.29324394 0.18328321 -15.98846531 0.25098039 0.27450980 0.65882353
v -0.28480339 0.18741474 -15.98743916 0.25098039 0.27450980 0.65882353
v -0.26382777 0.16813870 -15.97088051 0.25098039 0.27450980 0.65882353
v -0.25242358 0.17023538 -15.97035789 0.25098039 0.27450980 0.65882353
v -0.25904319 0.15761565 -15.96253777 0.25098039 0.27450980 0.65882353
v -0.24745670 0.15901341 -15.96106243 0.25098039 0.27450980 0.65882353
v -0.24365526 0.12679546 -15.93292522 0.25098039 0.27450980 0.65882353
v -0.19270946 0.08587857 -15.90649700 0.25098039 0.27450980 0.65882353
v -0.20009218 0.09221737 -15.91186619 0.25098039 0.27450980 0.65882353
v -0.19968036 0.08910533 -15.91692543 0.25098039 0.27450980 0.65882353
v -0.19331327 0.08289529 -15.90958595 0.25098039 0.27450980 0.65882353
v -0.20396286 0.09556476 -15.91486835 0.25098039 0.27450980 0.65882353
v -0.19764078 0.09710205 -15.90924740 0.25098039 0.27450980 0.65882353
v -0.23270109 0.16001940 -15.96423340 0.25098039 0.27450980 0.65882353
v -0.22314066 0.10560378 -15.94181347 0.25098039 0.27450980 0.65882353
v -0.23566537 0.17119762 -15.97721577 0.25098039 0.27450980 0.65882353
v -0.21550880 0.15583323 -15.96668148 0.25098039 0.27450980 0.65882353
v -0.21745715 0.16296363 -15.97809505 0.25098039 0.27450980 0.65882353
v -0.23669009 0.18228304 -15.99195576 0.25098039 0.27450980 0.65882353
v -0.22227232 0.17327142 -15.99041462 0.25098039 0.27450980 0.65882353
v -0.25021297 0.19308341 -15.99849319 0.25098039 0.27450980 0.65882353
v -0.24472535 0.18737879 -15.99414825 0.25098039 0.27450980 0.65882353
v -0.20970857 0.16192974 -15.99026775 0.25098039 0.27450980 0.65882353
v -0.18328585 0.08648128 -15.91915417 0.25098039 0.27450980 0.65882353
v -0.18787205 0.08318634 -15.91855717 0.25098039 0.27450980 0.65882353
v -0.25938016 0.19389834 -15.99158287 0.25098039 0.27450980 0.65882353
v -0.21701755 0.12683168 -15.99624729 0.25098039 0.27450980 0.65882353
v -0.26231998 0.13140339 -15.99549294 0.25098039 0.27450980 0.65882353
v -0.25786313 0.13425314 -15.99307823 0.25098039 0.27450980 0.65882353
v -0.28029054 0.12630355 -16.00118065 0.25098039 0.27450980 0.65882353
v -0.26866847 0.12793072 -15.99942684 0.25098039 0.27450980 0.65882353
v -0.18030536 0.09046299 -15.91718102 0.25098039 0.27450980 0.65882353
v -0.24216038 0.09852265 -15.93627167 0.25098039 0.27450980 0.65882353
v -0.24399972 0.10035893 -15.93814373 0.25098039 0.27450980 0.65882353
v -0.20145965 0.13371506 -16.00510025 0.25098039 0.27450980 0.65882353
v -0.19533342 0.13075541 -16.00177193 0.25098039 0.27450980 0.65882353
v -0.19006094 0.14056575 -15.99439240 0.25098039 0.27450980 0.65882353
v -0.19151480 0.13613963 -16.00000572 0.25098039 0.27450980 0.65882353
v -0.19775206 0.14161909 -16.00296211 0.25098039 0.27450980 0.65882353
v -0.19642606 0.14694674 -15.99716187 0.25098039 0.27450980 0.65882353
v -0.25933617 0.13938813 -16.00339127 0.25098039 0.27450980 0.65882353
v -0.26264584 0.13721418 -16.00421524 0.25098039 0.27450980 0.65882353
v -0.29362956 0.13810384 -15.98585224 0.25098039 0.27450980 0.65882353
v -0.29168323 0.12978381 -15.99403381 0.25098039 0.27450980 0.65882353
v -0.20298755 0.12500387 -15.93820763 0.25098039 0.27450980 0.65882353
v -0.21032874 0.13269594 -15.93780518 0.25098039 0.27450980 0.65882353
v -0.20745595 0.12659702 -15.93277359 0.25098039 0.27450980 0.65882353
v -0.20927452 0.12020552 -15.92524338 0.25098039 0.27450980 0.65882353
v -0.22236754 0.10688648 -15.93602562 0.25098039 0.27450980 0.65882353
v -0.21818607 0.11070873 -15.93360901 0.25098039 0.27450980 0.65882353
v -0.24878508 0.14756303 -16.01246834 0.25098039 0.27450980 0.65882353
v -0.24820092 0.14139101 -16.00017548 0.25098039 0.27450980 0.65882353
v -0.20912471 0.12557127 -15.98602295 0.25098039 0.27450980 0.65882353
v -0.20330831 0.12438168 -15.98424149 0.25098039 0.27450980 0.65882353
v -0.23777863 0.11136288 -15.95780754 0.25098039 0.27450980 0.65882353
v -0.24461275 0.11185066 -15.92857075 0.25098039 0.27450980 0.65882353
v -0.23871124 0.11839281 -15.92681026 0.25098039 0.27450980 0.65882353
v -0.23443459 0.10603373 -15.95029640 0.25098039 0.27450980 0.65882353
v -0.18136218 0.09388071 -15.90942192 0.25098039 0.27450980 0.65882353
v -0.17965664 0.09254248 -15.91399193 0.25098039 0.27450980 0.65882353
v -0.21401964 0.12601681 -15.92990589 0.25098039 0.27450980 0.65882353
v -0.25793743 0.10333425 -15.96254063 0.25098039 0.27450980 0.65882353
v -0.25101620 0.11193813 -15.93454361 0.25098039 0.27450980 0.65882353
v -0.24470088 0.10439921 -15.93111706 0.25098039 0.27450980 0.65882353
v -0.28462681 0.09953921 -15.96554279 0.25098039 0.27450980 0.65882353
v -0.27163544 0.19126907 -15.98844242 0.25098039 0.27450980 0.65882353
v -0.19643621 0.08798271 -15.92154121 0.25098039 0.27450980 0.65882353
v -0.19184959 0.08164656 -15.91592216 0.25098039 0.27450980 0.65882353
v -0.19095130 0.08961081 -15.90493202 0.25098039 0.27450980 0.65882353
v -0.18654527 0.09363580 -15.90573120 0.25098039 0.27450980 0.65882353
v -0.29063821 0.13794638 -16.00140572 0.25098039 0.27450980 0.65882353
v -0.25477463 0.13570057 -15.99122047 0.25098039 0.27450980 0.65882353
v -0.20044538 0.15231410 -15.98917866 0.25098039 0.27450980 0.65882353
v -0.19211426 0.14314684 -15.98759747 0.25098039 0.27450980 0.65882353
v -0.23276640 0.10251389 -15.94457436 0.25098039 0.27450980 0.65882353
v -0.27522987 0.10778821 -15.94770050 0.25098039 0.27450980 0.65882353
v -0.26325405 0.11331950 -15.93615627 0.25098039 0.27450980 0.65882353
v -0.26126069 0.10708522 -15.93128586 0.25098039 0.27450980 0.65882353
v -0.25360191 0.10628009 -15.92988682 0.25098039 0.27450980 0.65882353
v -0.24719545 0.10227579 -15.93200302 0.25098039 0.27450980 0.65882353
v -0.18817523 0.08550880 -15.90312576 0.25098039 0.27450980 0.65882353
v -0.18382758 0.08949744 -15.90389633 0.25098039 0.27450980 0.65882353
v -0.17845626 0.08988875 -15.90727234 0.25098039 0.27450980 0.65882353
v -0.17686221 0.08877082 -15.91145325 0.25098039 0.27450980 0.65882353
v -0.17845663 0.08706266 -15.91535282 0.25098039 0.27450980 0.65882353
v -0.18984911 0.08154196 -15.90430641 0.25098039 0.27450980 0.65882353
v -0.19012062 0.07890159 -15.90715599 0.25098039 0.27450980 0.65882353
v -0.18972842 0.07889920 -15.91366577 0.25098039 0.27450980 0.65882353
v -0.18716359 0.07745242 -15.90302181 0.25098039 0.27450980 0.65882353
v -0.18313345 0.07926274 -15.89995384 0.25098039 0.27450980 0.65882353
v -0.16994132 0.07856667 -15.90417385 0.25098039 0.27450980 0.65882353
v -0.17364295 0.08318894 -15.90382099 0.25098039 0.27450980 0.65882353
v -0.17354640 0.08118736 -15.90196991 0.25098039 0.27450980 0.65882353
v -0.17075044 0.07705158 -15.90128517 0.25098039 0.27450980 0.65882353
v -0.16876660 0.07260749 -15.89936161 0.25098039 0.27450980 0.65882353
v -0.16735673 0.07375152 -15.90254211 0.25098039 0.27450980 0.65882353
v -0.17803031 0.08173162 -15.90069199 0.25098039 0.27450980 0.65882353
v -0.17481086 0.07596169 -15.89922523 0.25098039 0.27450980 0.65882353
v -0.17851090 0.07379291 -15.89866257 0.25098039 0.27450980 0.65882353
v -0.17553048 0.06947337 -15.89675140 0.25098039 0.27450980 0.65882353
v -0.17208242 0.07133907 -15.89698029 0.25098039 0.27450980 0.65882353
v -0.18037589 0.07802384 -15.89941025 0.25098039 0.27450980 0.65882353
v -0.17933625 0.08357866 -15.90104389 0.25098039 0.27450980 0.65882353
v -0.16717060 0.06952497 -15.90045357 0.25098039 0.27450980 0.65882353
v -0.16814438 0.07002462 -15.89804935 0.25098039 0.27450980 0.65882353
v -0.17082748 0.06851721 -15.89642143 0.25098039 0.27450980 0.65882353
v -0.16981521 0.06585865 -15.89786434 0.25098039 0.27450980 0.65882353
v -0.17396078 0.08489972 -15.90982246 0.25098039 0.27450980 0.65882353
v -0.16964148 0.07805110 -15.90680885 0.25098039 0.27450980 0.65882353
v -0.16829926 0.07225214 -15.90532017 0.25098039 0.27450980 0.65882353
v -0.16806740 0.06820350 -15.90292454 0.25098039 0.27450980 0.65882353
v -0.17114940 0.07502276 -15.90933800 0.25098039 0.27450980 0.65882353
v -0.17018102 0.07069586 -15.90711308 0.25098039 0.27450980 0.65882353
v -0.17040837 0.06704434 -15.90514946 0.25098039 0.27450980 0.65882353
v -0.17399269 0.07192985 -15.91060638 0.25098039 0.27450980 0.65882353
v -0.17264935 0.06872034 -15.90796757 0.25098039 0.27450980 0.65882353
v -0.17953235 0.08164611 -15.91574955 0.25098039 0.27450980 0.65882353
v -0.17658189 0.08451699 -15.91424084 0.25098039 0.27450980 0.65882353
v -0.17194724 0.06649382 -15.90660477 0.25098039 0.27450980 0.65882353
v -0.17064174 0.06459583 -15.89964485 0.25098039 0.27450980 0.65882353
v -0.18202230 0.07312649 -15.89988804 0.25098039 0.27450980 0.65882353
v -0.17771734 0.06764650 -15.89850807 0.25098039 0.27450980 0.65882353
v -0.18328981 0.07182860 -15.90155506 0.25098039 0.27450980 0.65882353
v -0.17927733 0.06629027 -15.89991093 0.25098039 0.27450980 0.65882353
v -0.17460620 0.06484646 -15.89690304 0.25098039 0.27450980 0.65882353
v -0.17363875 0.06726076 -15.89626503 0.25098039 0.27450980 0.65882353
v -0.18229786 0.08435577 -15.91756821 0.25098039 0.27450980 0.65882353
v -0.18699859 0.08081362 -15.91664410 0.25098039 0.27450980 0.65882353
v -0.18478709 0.07821584 -15.91509533 0.25098039 0.27450980 0.65882353
v -0.17816082 0.06941083 -15.91019821 0.25098039 0.27450980 0.65882353
v -0.18750854 0.07604019 -15.91219139 0.25098039 0.27450980 0.65882353
v -0.18746342 0.07501178 -15.90596581 0.25098039 0.27450980 0.65882353
v -0.18322614 0.06971459 -15.90372849 0.25098039 0.27450980 0.65882353
v -0.18211734 0.06862026 -15.90689087 0.25098039 0.27450980 0.65882353
v -0.17963222 0.06578553 -15.90251541 0.25098039 0.27450980 0.65882353
v -0.17867109 0.06591778 -15.90498543 0.25098039 0.27450980 0.65882353
v -0.17570180 0.06661681 -15.90747738 0.25098039 0.27450980 0.65882353
v -0.17603284 0.06378064 -15.90196896 0.25098039 0.27450980 0.65882353
v -0.17548168 0.06392934 -15.89893627 0.25098039 0.27450980 0.65882353
v -0.17229319 0.06438185 -15.90273380 0.25098039 0.27450980 0.65882353
v -0.17644019 0.06436364 -15.90390778 0.25098039 0.27450980 0.65882353
v -0.17369747 0.06529106 -15.90494156 0.25098039 0.27450980 0.65882353
v -0.21718657 0.07808892 -15.91494656 0.25098039 0.27450980 0.65882353
v -0.22270137 0.07478578 -15.91582298 0.25098039 0.27450980 0.65882353
v -0.22391680 0.07921682 -15.91870594 0.25098039 0.27450980 0.65882353
v -0.21893616 0.08151191 -15.91783142 0.25098039 0.27450980 0.65882353
v -0.21805196 0.08629499 -15.90336418 0.25098039 0.27450980 0.65882353
v -0.21493903 0.08384712 -15.90830612 0.25098039 0.27450980 0.65882353
v -0.21599215 0.08786041 -15.91045666 0.25098039 0.27450980 0.65882353
v -0.22023177 0.09042045 -15.90536690 0.25098039 0.27450980 0.65882353
v -0.22477165 0.08587866 -15.90109634 0.25098039 0.27450980 0.65882353
v -0.22703528 0.09009684 -15.90359974 0.25098039 0.27450980 0.65882353
v -0.22172190 0.09491008 -15.90816212 0.25098039 0.27450980 0.65882353
v -0.21791252 0.09220947 -15.91386700 0.25098039 0.27450980 0.65882353
v -0.22445364 0.10725063 -15.92846680 0.25098039 0.27450980 0.65882353
v -0.22789323 0.11040047 -15.92257214 0.25098039 0.27450980 0.65882353
v -0.23662841 0.09606958 -15.93656158 0.25098039 0.27450980 0.65882353
v -0.23868133 0.09632031 -15.93300533 0.25098039 0.27450980 0.65882353
v -0.21522540 0.08070017 -15.91243362 0.25098039 0.27450980 0.65882353
v -0.21647143 0.08459212 -15.91478252 0.25098039 0.27450980 0.65882353
v -0.23409970 0.08136909 -15.91906166 0.25098039 0.27450980 0.65882353
v -0.22954883 0.08069129 -15.92235565 0.25098039 0.27450980 0.65882353
v -0.22843306 0.07731175 -15.91797924 0.25098039 0.27450980 0.65882353
v -0.23279321 0.07808542 -15.91443634 0.25098039 0.27450980 0.65882353
v -0.22589596 0.10222531 -15.93609810 0.25098039 0.27450980 0.65882353
v -0.23152561 0.09925376 -15.93749237 0.25098039 0.27450980 0.65882353
v -0.22423303 0.10419951 -15.93274498 0.25098039 0.27450980 0.65882353
v -0.23666047 0.08453137 -15.91359425 0.25098039 0.27450980 0.65882353
v -0.23585287 0.08927450 -15.90833664 0.25098039 0.27450980 0.65882353
v -0.24116281 0.10468531 -15.92065811 0.25098039 0.27450980 0.65882353
v -0.24195345 0.09946757 -15.92509556 0.25098039 0.27450980 0.65882353
v -0.21740115 0.08856931 -15.91847420 0.25098039 0.27450980 0.65882353
v -0.22414201 0.08215908 -15.92309856 0.25098039 0.27450980 0.65882353
v -0.21968736 0.08479917 -15.92217731 0.25098039 0.27450980 0.65882353
v -0.22910361 0.09393308 -15.90670872 0.25098039 0.27450980 0.65882353
v -0.23355065 0.08497004 -15.90493584 0.25098039 0.27450980 0.65882353
v -0.22740903 0.06731022 -15.89964867 0.25098039 0.27450980 0.65882353
v -0.23261817 0.07628948 -15.90645885 0.25098039 0.27450980 0.65882353
v -0.23091391 0.07377441 -15.91083908 0.25098039 0.27450980 0.65882353
v -0.22661285 0.06375629 -15.90332413 0.25098039 0.27450980 0.65882353
v -0.23488186 0.08036034 -15.90947056 0.25098039 0.27450980 0.65882353
v -0.23095967 0.08096714 -15.90260601 0.25098039 0.27450980 0.65882353
v -0.21348885 0.06451175 -15.90753651 0.25098039 0.27450980 0.65882353
v -0.21895096 0.06149273 -15.90805244 0.25098039 0.27450980 0.65882353
v -0.21093419 0.06750765 -15.90510559 0.25098039 0.27450980 0.65882353
v -0.23517929 0.10961920 -15.91944599 0.25098039 0.27450980 0.65882353
v -0.21407869 0.07489569 -15.89826679 0.25098039 0.27450980 0.65882353
v -0.21080576 0.07101963 -15.90254498 0.25098039 0.27450980 0.65882353
v -0.22748673 0.07303158 -15.91461754 0.25098039 0.27450980 0.65882353
v -0.22356138 0.06121163 -15.90626907 0.25098039 0.27450980 0.65882353
v -0.22590995 0.07085687 -15.89696980 0.25098039 0.27450980 0.65882353
v -0.22066970 0.07573427 -15.89620399 0.25098039 0.27450980 0.65882353
v -0.22343096 0.06623520 -15.89453030 0.25098039 0.27450980 0.65882353
v -0.21833850 0.07001072 -15.89361095 0.25098039 0.27450980 0.65882353
v -0.21167794 0.06950712 -15.89565849 0.25098039 0.27450980 0.65882353
v -0.20917594 0.06645893 -15.90007687 0.25098039 0.27450980 0.65882353
v -0.20985694 0.06385729 -15.90315247 0.25098039 0.27450980 0.65882353
v -0.22507571 0.06282375 -15.89679718 0.25098039 0.27450980 0.65882353
v -0.22468789 0.05938476 -15.90033054 0.25098039 0.27450980 0.65882353
v -0.22192943 0.05865856 -15.90466213 0.25098039 0.27450980 0.65882353
v -0.22279245 0.05618922 -15.89467144 0.25098039 0.27450980 0.65882353
v -0.22058697 0.05826978 -15.89131451 0.25098039 0.27450980 0.65882353
v -0.20438299 0.04979290 -15.88950348 0.25098039 0.27450980 0.65882353
v -0.20616864 0.05535059 -15.89112473 0.25098039 0.27450980 0.65882353
v -0.20804764 0.05502057 -15.88920593 0.25098039 0.27450980 0.65882353
v -0.20652005 0.04993202 -15.88753605 0.25098039 0.27450980 0.65882353
v -0.20898111 0.06108543 -15.89114475 0.25098039 0.27450980 0.65882353
v -0.21018843 0.05911337 -15.88979912 0.25098039 0.27450980 0.65882353
v -0.21485309 0.05930304 -15.88949680 0.25098039 0.27450980 0.65882353
v -0.21272583 0.05370349 -15.88829994 0.25098039 0.27450980 0.65882353
v -0.21737860 0.05239502 -15.88943768 0.25098039 0.27450980 0.65882353
v -0.21581309 0.04738805 -15.88700485 0.25098039 0.27450980 0.65882353
v -0.21118948 0.04855605 -15.88556671 0.25098039 0.27450980 0.65882353
v -0.21786724 0.05675354 -15.88969612 0.25098039 0.27450980 0.65882353
v -0.20655265 0.04648720 -15.88628387 0.25098039 0.27450980 0.65882353
v -0.20542908 0.04446550 -15.88764763 0.25098039 0.27450980 0.65882353
v -0.21552254 0.06226939 -15.89005756 0.25098039 0.27450980 0.65882353
v -0.20761201 0.06292033 -15.89715576 0.25098039 0.27450980 0.65882353
v -0.20510127 0.05436742 -15.89391804 0.25098039 0.27450980 0.65882353
v -0.20405802 0.04791330 -15.89225101 0.25098039 0.27450980 0.65882353
v -0.20629841 0.04247266 -15.88991833 0.25098039 0.27450980 0.65882353
v -0.20608538 0.05174795 -15.89716530 0.25098039 0.27450980 0.65882353
v -0.20548841 0.04604323 -15.89456177 0.25098039 0.27450980 0.65882353
v -0.20772809 0.04194988 -15.89230156 0.25098039 0.27450980 0.65882353
v -0.20895153 0.04900762 -15.89990425 0.25098039 0.27450980 0.65882353
v -0.20857388 0.04386279 -15.89668179 0.25098039 0.27450980 0.65882353
v -0.21179749 0.05902661 -15.90467834 0.25098039 0.27450980 0.65882353
v -0.20851147 0.06119756 -15.90179729 0.25098039 0.27450980 0.65882353
v -0.20886685 0.04218680 -15.89449215 0.25098039 0.27450980 0.65882353
v -0.20953107 0.04255290 -15.88548565 0.25098039 0.27450980 0.65882353
v -0.20979741 0.04050516 -15.88829422 0.25098039 0.27450980 0.65882353
v -0.20987168 0.04438254 -15.88497353 0.25098039 0.27450980 0.65882353
v -0.21910937 0.05156567 -15.89044952 0.25098039 0.27450980 0.65882353
v -0.21684398 0.04586960 -15.88842583 0.25098039 0.27450980 0.65882353
v -0.22034231 0.04995430 -15.89247608 0.25098039 0.27450980 0.65882353
v -0.21747461 0.04398154 -15.88995838 0.25098039 0.27450980 0.65882353
v -0.21433306 0.04233935 -15.88648891 0.25098039 0.27450980 0.65882353
v -0.21352510 0.04362875 -15.88551235 0.25098039 0.27450980 0.65882353
v -0.21295382 0.06173305 -15.90558720 0.25098039 0.27450980 0.65882353
v -0.21808846 0.05948606 -15.90627956 0.25098039 0.27450980 0.65882353
v -0.21704821 0.05703454 -15.90558434 0.25098039 0.27450980 0.65882353
v -0.21395423 0.04734073 -15.90040874 0.25098039 0.27450980 0.65882353
v -0.22129284 0.05610320 -15.90352440 0.25098039 0.27450980 0.65882353
v -0.22304039 0.05505888 -15.89825344 0.25098039 0.27450980 0.65882353
v -0.22049141 0.04887073 -15.89517021 0.25098039 0.27450980 0.65882353
v -0.21828586 0.04731378 -15.89823437 0.25098039 0.27450980 0.65882353
v -0.21807246 0.04299325 -15.89192200 0.25098039 0.27450980 0.65882353
v -0.21698457 0.04345430 -15.89512253 0.25098039 0.27450980 0.65882353
v -0.21258129 0.04302765 -15.89722919 0.25098039 0.27450980 0.65882353
v -0.21493004 0.04005174 -15.89003277 0.25098039 0.27450980 0.65882353
v -0.21461564 0.04102232 -15.88777637 0.25098039 0.27450980 0.65882353
v -0.21038115 0.04026394 -15.89054585 0.25098039 0.27450980 0.65882353
v -0.21491528 0.04081798 -15.89304352 0.25098039 0.27450980 0.65882353
v -0.21122256 0.04090740 -15.89371490 0.25098039 0.27450980 0.65882353
v -0.24126990 0.07469266 -15.92248821 0.25098039 0.27450980 0.65882353
v -0.24534945 0.07211883 -15.92611885 0.25098039 0.27450980 0.65882353
v -0.24589063 0.07540336 -15.92866039 0.25098039 0.27450980 0.65882353
v -0.24173085 0.07787936 -15.92511463 0.25098039 0.27450980 0.65882353
v -0.24748415 0.08013892 -15.91209030 0.25098039 0.27450980 0.65882353
v -0.24303901 0.07871567 -15.91419411 0.25098039 0.27450980 0.65882353
v -0.24325091 0.08249918 -15.91630268 0.25098039 0.27450980 0.65882353
v -0.24796706 0.08513258 -15.91435719 0.25098039 0.27450980 0.65882353
v -0.25282985 0.07774094 -15.91187859 0.25098039 0.27450980 0.65882353
v -0.25434557 0.08418630 -15.91485405 0.25098039 0.27450980 0.65882353
v -0.24902208 0.09001824 -15.91676998 0.25098039 0.27450980 0.65882353
v -0.24400142 0.08649720 -15.91882038 0.25098039 0.27450980 0.65882353
v -0.24677734 0.09866969 -15.92921352 0.25098039 0.27450980 0.65882353
v -0.25199854 0.10136508 -15.92539692 0.25098039 0.27450980 0.65882353
v -0.24124169 0.07687280 -15.91823196 0.25098039 0.27450980 0.65882353
v -0.24134243 0.07994007 -15.92045593 0.25098039 0.27450980 0.65882353
v -0.25601700 0.07709749 -15.93116665 0.25098039 0.27450980 0.65882353
v -0.25153017 0.07711143 -15.93262768 0.25098039 0.27450980 0.65882353
v -0.25112918 0.07363807 -15.92934418 0.25098039 0.27450980 0.65882353
v -0.25518084 0.07362249 -15.92799282 0.25098039 0.27450980 0.65882353
v -0.24594602 0.09517567 -15.94002914 0.25098039 0.27450980 0.65882353
v -0.25152770 0.09430113 -15.94301891 0.25098039 0.27450980 0.65882353
v -0.24471515 0.09588321 -15.93453979 0.25098039 0.27450980 0.65882353
v -0.26011205 0.07939263 -15.92650986 0.25098039 0.27450980 0.65882353
v -0.26090139 0.08480590 -15.92111397 0.25098039 0.27450980 0.65882353
v -0.26406637 0.09631009 -15.93075657 0.25098039 0.27450980 0.65882353
v -0.26308104 0.09345441 -15.93637180 0.25098039 0.27450980 0.65882353
v -0.24173471 0.08341694 -15.92293358 0.25098039 0.27450980 0.65882353
v -0.24625555 0.07876670 -15.93191624 0.25098039 0.27450980 0.65882353
v -0.24202560 0.08077706 -15.92804718 0.25098039 0.27450980 0.65882353
v -0.25533146 0.08911672 -15.91781616 0.25098039 0.27450980 0.65882353
v -0.25920522 0.07955965 -15.91837406 0.25098039 0.27450980 0.65882353
v -0.25429481 0.05860372 -15.91191196 0.25098039 0.27450980 0.65882353
v -0.25835428 0.07206144 -15.92107582 0.25098039 0.27450980 0.65882353
v -0.25447023 0.07025129 -15.92543983 0.25098039 0.27450980 0.65882353
v -0.25252181 0.05669309 -15.91562176 0.25098039 0.27450980 0.65882353
v -0.25919935 0.07503034 -15.92370319 0.25098039 0.27450980 0.65882353
v -0.25797474 0.07527451 -15.91577625 0.25098039 0.27450980 0.65882353
v -0.23900455 0.06033337 -15.91545200 0.25098039 0.27450980 0.65882353
v -0.24329013 0.05813697 -15.91840744 0.25098039 0.27450980 0.65882353
v -0.23877335 0.06361077 -15.91228390 0.25098039 0.27450980 0.65882353
v -0.25929213 0.10083608 -15.92560005 0.25098039 0.27450980 0.65882353
v -0.25882900 0.09254070 -15.94208717 0.25098039 0.27450980 0.65882353
v -0.24301621 0.06571555 -15.90620422 0.25098039 0.27450980 0.65882353
v -0.23982584 0.06499031 -15.90924454 0.25098039 0.27450980 0.65882353
v -0.25041091 0.07053790 -15.92693424 0.25098039 0.27450980 0.65882353
v -0.24870777 0.05642281 -15.91834354 0.25098039 0.27450980 0.65882353
v -0.25357375 0.06202313 -15.90834999 0.25098039 0.27450980 0.65882353
v -0.24910578 0.06571957 -15.90569210 0.25098039 0.27450980 0.65882353
v -0.25208235 0.05666335 -15.90661526 0.25098039 0.27450980 0.65882353
v -0.24751677 0.06029020 -15.90389729 0.25098039 0.27450980 0.65882353
v -0.24151315 0.06068963 -15.90393543 0.25098039 0.27450980 0.65882353
v -0.23841408 0.06031167 -15.90731716 0.25098039 0.27450980 0.65882353
v -0.23744488 0.05921240 -15.91063881 0.25098039 0.27450980 0.65882353
v -0.25257725 0.05343423 -15.91038990 0.25098039 0.27450980 0.65882353
v -0.25074735 0.05212723 -15.91384602 0.25098039 0.27450980 0.65882353
v -0.24753603 0.05462924 -15.91719246 0.25098039 0.27450980 0.65882353
v -0.25089073 0.04900934 -15.90996742 0.25098039 0.27450980 0.65882353
v -0.24950138 0.04987204 -15.90456963 0.25098039 0.27450980 0.65882353
v -0.23461299 0.04209130 -15.90112972 0.25098039 0.27450980 0.65882353
v -0.23652419 0.04760058 -15.90217781 0.25098039 0.27450980 0.65882353
v -0.23765010 0.04717329 -15.90174389 0.25098039 0.27450980 0.65882353
v -0.23610464 0.04167236 -15.90020180 0.25098039 0.27450980 0.65882353
v -0.24000031 0.05341418 -15.90189934 0.25098039 0.27450980 0.65882353
v -0.24048938 0.05147712 -15.90148258 0.25098039 0.27450980 0.65882353
v -0.24443853 0.05109476 -15.90175152 0.25098039 0.27450980 0.65882353
v -0.24247719 0.04491986 -15.90086842 0.25098039 0.27450980 0.65882353
v -0.24685425 0.04331912 -15.90492630 0.25098039 0.27450980 0.65882353
v -0.24450883 0.03878543 -15.90361786 0.25098039 0.27450980 0.65882353
v -0.24061713 0.03983843 -15.89954853 0.25098039 0.27450980 0.65882353
v -0.24784024 0.04870597 -15.90382957 0.25098039 0.27450980 0.65882353
v -0.23608929 0.03840090 -15.89973640 0.25098039 0.27450980 0.65882353
v -0.23411399 0.03811665 -15.89957142 0.25098039 0.27450980 0.65882353
v -0.24534877 0.05333766 -15.90191269 0.25098039 0.27450980 0.65882353
v -0.23659763 0.05533163 -15.90508366 0.25098039 0.27450980 0.65882353
v -0.23421490 0.04803860 -15.90410805 0.25098039 0.27450980 0.65882353
v -0.23203328 0.04243641 -15.90323162 0.25098039 0.27450980 0.65882353
v -0.23263213 0.03793724 -15.90305996 0.25098039 0.27450980 0.65882353
v -0.23365887 0.04743540 -15.90792561 0.25098039 0.27450980 0.65882353
v -0.23227380 0.04221511 -15.90649128 0.25098039 0.27450980 0.65882353
v -0.23281527 0.03815539 -15.90621471 0.25098039 0.27450980 0.65882353
v -0.23473679 0.04640476 -15.91099834 0.25098039 0.27450980 0.65882353
v -0.23380202 0.04168446 -15.90943909 0.25098039 0.27450980 0.65882353
v -0.23772885 0.05564803 -15.91346359 0.25098039 0.27450980 0.65882353
v -0.23617551 0.05594848 -15.90932178 0.25098039 0.27450980 0.65882353
v -0.23389824 0.03864381 -15.90826607 0.25098039 0.27450980 0.65882353
v -0.23802114 0.03518803 -15.90025139 0.25098039 0.27450980 0.65882353
v -0.23683009 0.03409271 -15.90427494 0.25098039 0.27450980 0.65882353
v -0.23884654 0.03672467 -15.90006065 0.25098039 0.27450980 0.65882353
v -0.24805488 0.04332116 -15.90645695 0.25098039 0.27450980 0.65882353
v -0.24536148 0.03721748 -15.90529346 0.25098039 0.27450980 0.65882353
v -0.24806531 0.04292762 -15.90939808 0.25098039 0.27450980 0.65882353
v -0.24528016 0.03686659 -15.90813160 0.25098039 0.27450980 0.65882353
v -0.24253890 0.03468713 -15.90311527 0.25098039 0.27450980 0.65882353
v -0.24235474 0.03570212 -15.90237617 0.25098039 0.27450980 0.65882353
v -0.23892790 0.05806605 -15.91444778 0.25098039 0.27450980 0.65882353
v -0.24290176 0.05624942 -15.91722488 0.25098039 0.27450980 0.65882353
v -0.24144462 0.05409633 -15.91637516 0.25098039 0.27450980 0.65882353
v -0.23804162 0.04428671 -15.91378784 0.25098039 0.27450980 0.65882353
v -0.24601072 0.05232930 -15.91673565 0.25098039 0.27450980 0.65882353
v -0.24892990 0.04814406 -15.91319561 0.25098039 0.27450980 0.65882353
v -0.24601054 0.04275198 -15.91209030 0.25098039 0.27450980 0.65882353
v -0.24253470 0.04275896 -15.91384220 0.25098039 0.27450980 0.65882353
v -0.24369773 0.03735070 -15.91052628 0.25098039 0.27450980 0.65882353
v -0.24158280 0.03893319 -15.91187859 0.25098039 0.27450980 0.65882353
v -0.23666218 0.03993882 -15.91204166 0.25098039 0.27450980 0.65882353
v -0.24071845 0.03515927 -15.90844059 0.25098039 0.27450980 0.65882353
v -0.24207611 0.03412409 -15.90587139 0.25098039 0.27450980 0.65882353
v -0.23616168 0.03514941 -15.90729141 0.25098039 0.27450980 0.65882353
v -0.23952404 0.03654066 -15.91029167 0.25098039 0.27450980 0.65882353
v -0.23610184 0.03670512 -15.90939999 0.25098039 0.27450980 0.65882353
v -0.25579250 0.09319449 -15.94381332 0.25098039 0.27450980 0.65882353
v -0.26882061 0.07126507 -15.94062805 0.25098039 0.27450980 0.65882353
v -0.27119875 0.06974635 -15.94366932 0.25098039 0.27450980 0.65882353
v -0.27241635 0.07287043 -15.94547558 0.25098039 0.27450980 0.65882353
v -0.26940098 0.07489242 -15.94335747 0.25098039 0.27450980 0.65882353
v -0.27509791 0.07643063 -15.93246460 0.25098039 0.27450980 0.65882353
v -0.27096987 0.07475028 -15.93410301 0.25098039 0.27450980 0.65882353
v -0.27093983 0.07955276 -15.93586826 0.25098039 0.27450980 0.65882353
v -0.27503645 0.08130136 -15.93399811 0.25098039 0.27450980 0.65882353
v -0.28008533 0.07581092 -15.93345356 0.25098039 0.27450980 0.65882353
v -0.28036571 0.08036155 -15.93522739 0.25098039 0.27450980 0.65882353
v -0.27531299 0.08472226 -15.93557358 0.25098039 0.27450980 0.65882353
v -0.27108234 0.08331577 -15.93797016 0.25098039 0.27450980 0.65882353
v -0.27112895 0.09783926 -15.94570160 0.25098039 0.27450980 0.65882353
v -0.27597171 0.10064448 -15.94431305 0.25098039 0.27450980 0.65882353
v -0.28306484 0.09575970 -15.96130753 0.25098039 0.27450980 0.65882353
v -0.27763432 0.09478330 -15.96361256 0.25098039 0.27450980 0.65882353
v -0.27765033 0.08870734 -15.95801735 0.25098039 0.27450980 0.65882353
v -0.28236729 0.08977062 -15.95713615 0.25098039 0.27450980 0.65882353
v -0.26896882 0.07297384 -15.93714905 0.25098039 0.27450980 0.65882353
v -0.26859158 0.07712311 -15.93965816 0.25098039 0.27450980 0.65882353
v -0.28222969 0.07600214 -15.94870663 0.25098039 0.27450980 0.65882353
v -0.27748039 0.07509296 -15.94956207 0.25098039 0.27450980 0.65882353
v -0.27612272 0.07195184 -15.94731045 0.25098039 0.27450980 0.65882353
v -0.28087854 0.07180966 -15.94688797 0.25098039 0.27450980 0.65882353
v -0.27238876 0.09425064 -15.96124554 0.25098039 0.27450980 0.65882353
v -0.26873487 0.09473971 -15.95820141 0.25098039 0.27450980 0.65882353
v -0.26889962 0.09168828 -15.95513439 0.25098039 0.27450980 0.65882353
v -0.27285922 0.08878563 -15.95655155 0.25098039 0.27450980 0.65882353
v -0.26719120 0.09343849 -15.95020390 0.25098039 0.27450980 0.65882353
v -0.28495884 0.07774183 -15.94575214 0.25098039 0.27450980 0.65882353
v -0.28536355 0.08110254 -15.94066811 0.25098039 0.27450980 0.65882353
v -0.28717983 0.09606802 -15.95105457 0.25098039 0.27450980 0.65882353
v -0.28573233 0.09323152 -15.95498085 0.25098039 0.27450980 0.65882353
v -0.26888269 0.08034664 -15.94116592 0.25098039 0.27450980 0.65882353
v -0.27308327 0.07576226 -15.94812107 0.25098039 0.27450980 0.65882353
v -0.26989341 0.07734597 -15.94543457 0.25098039 0.27450980 0.65882353
v -0.28118670 0.08394098 -15.93638611 0.25098039 0.27450980 0.65882353
v -0.28441578 0.07711358 -15.93919086 0.25098039 0.27450980 0.65882353
v -0.28180450 0.06058530 -15.93926620 0.25098039 0.27450980 0.65882353
v -0.28332752 0.07009675 -15.94302750 0.25098039 0.27450980 0.65882353
v -0.27946308 0.06827024 -15.94570541 0.25098039 0.27450980 0.65882353
v -0.27939028 0.05960725 -15.94085598 0.25098039 0.27450980 0.65882353
v -0.28415403 0.07377174 -15.94399261 0.25098039 0.27450980 0.65882353
v -0.28378794 0.07269505 -15.93779278 0.25098039 0.27450980 0.65882353
v -0.26827165 0.06202000 -15.93619633 0.25098039 0.27450980 0.65882353
v -0.27164614 0.06068135 -15.94015121 0.25098039 0.27450980 0.65882353
v -0.26846224 0.06354705 -15.93331337 0.25098039 0.27450980 0.65882353
v -0.28273791 0.10016423 -15.94541168 0.25098039 0.27450980 0.65882353
v -0.27444842 0.06572114 -15.92925453 0.25098039 0.27450980 0.65882353
v -0.27029797 0.06443278 -15.93044090 0.25098039 0.27450980 0.65882353
v -0.27481237 0.06853952 -15.94540882 0.25098039 0.27450980 0.65882353
v -0.27573174 0.05980618 -15.94139576 0.25098039 0.27450980 0.65882353
v -0.28264499 0.06261209 -15.93556499 0.25098039 0.27450980 0.65882353
v -0.27984390 0.06556579 -15.93081379 0.25098039 0.27450980 0.65882353
v -0.28201687 0.05762913 -15.93368912 0.25098039 0.27450980 0.65882353
v -0.27907866 0.06122275 -15.92915154 0.25098039 0.27450980 0.65882353
v -0.27321351 0.06142674 -15.92755413 0.25098039 0.27450980 0.65882353
v -0.26976258 0.06144196 -15.92940903 0.25098039 0.27450980 0.65882353
v -0.26789296 0.06070168 -15.93200588 0.25098039 0.27450980 0.65882353
v -0.28102073 0.05584481 -15.93763924 0.25098039 0.27450980 0.65882353
v -0.27844307 0.05550036 -15.93949413 0.25098039 0.27450980 0.65882353
v -0.27483648 0.05661182 -15.94042397 0.25098039 0.27450980 0.65882353
v -0.27981251 0.05157983 -15.93582439 0.25098039 0.27450980 0.65882353
v -0.28016326 0.05204461 -15.93085384 0.25098039 0.27450980 0.65882353
v -0.26838791 0.04718535 -15.92501831 0.25098039 0.27450980 0.65882353
v -0.26934969 0.05120143 -15.92581367 0.25098039 0.27450980 0.65882353
v -0.27058870 0.05094890 -15.92553425 0.25098039 0.27450980 0.65882353
v -0.26925358 0.04710799 -15.92420006 0.25098039 0.27450980 0.65882353
v -0.27219594 0.05591492 -15.92626572 0.25098039 0.27450980 0.65882353
v -0.27310944 0.05447315 -15.92606640 0.25098039 0.27450980 0.65882353
v -0.27658558 0.05456020 -15.92734623 0.25098039 0.27450980 0.65882353
v -0.27477378 0.04963031 -15.92578602 0.25098039 0.27450980 0.65882353
v -0.27785105 0.04677933 -15.92938519 0.25098039 0.27450980 0.65882353
v -0.27609098 0.04321347 -15.92775726 0.25098039 0.27450980 0.65882353
v -0.27377009 0.04602343 -15.92448521 0.25098039 0.27450980 0.65882353
v -0.27903882 0.05138409 -15.92910099 0.25098039 0.27450980 0.65882353
v -0.26955473 0.04446702 -15.92330837 0.25098039 0.27450980 0.65882353
v -0.26838404 0.04359125 -15.92327785 0.25098039 0.27450980 0.65882353
v -0.27732217 0.05613104 -15.92751408 0.25098039 0.27450980 0.65882353
v -0.26868200 0.05757555 -15.92829132 0.25098039 0.27450980 0.65882353
v -0.26698929 0.05087900 -15.92676449 0.25098039 0.27450980 0.65882353
v -0.26640069 0.04588313 -15.92547035 0.25098039 0.27450980 0.65882353
v -0.26750761 0.04220602 -15.92495060 0.25098039 0.27450980 0.65882353
v -0.26592222 0.05133523 -15.92921257 0.25098039 0.27450980 0.65882353
v -0.26522067 0.04544111 -15.92753410 0.25098039 0.27450980 0.65882353
v -0.26650983 0.04194222 -15.92717552 0.25098039 0.27450980 0.65882353
v -0.26583463 0.05087502 -15.93260860 0.25098039 0.27450980 0.65882353
v -0.26564741 0.04539758 -15.93025398 0.25098039 0.27450980 0.65882353
v -0.26731485 0.05728282 -15.93516350 0.25098039 0.27450980 0.65882353
v -0.26716289 0.05768510 -15.93142414 0.25098039 0.27450980 0.65882353
v -0.26670358 0.04262757 -15.92890739 0.25098039 0.27450980 0.65882353
v -0.27159071 0.04131778 -15.92385006 0.25098039 0.27450980 0.65882353
v -0.26992959 0.04009175 -15.92607784 0.25098039 0.27450980 0.65882353
v -0.27266455 0.04252093 -15.92366791 0.25098039 0.27450980 0.65882353
v -0.27826768 0.04640622 -15.93080235 0.25098039 0.27450980 0.65882353
v -0.27608511 0.04202233 -15.92897606 0.25098039 0.27450980 0.65882353
v -0.27766901 0.04592109 -15.93343639 0.25098039 0.27450980 0.65882353
v -0.27490738 0.04136936 -15.93078899 0.25098039 0.27450980 0.65882353
v -0.27396303 0.04019524 -15.92657089 0.25098039 0.27450980 0.65882353
v -0.27448520 0.04191270 -15.92576218 0.25098039 0.27450980 0.65882353
v -0.26783550 0.05913813 -15.93569565 0.25098039 0.27450980 0.65882353
v -0.27087009 0.05810758 -15.93903732 0.25098039 0.27450980 0.65882353
v -0.27025744 0.05580053 -15.93834209 0.25098039 0.27450980 0.65882353
v -0.26816523 0.04951766 -15.93572140 0.25098039 0.27450980 0.65882353
v -0.27417275 0.05399123 -15.93962193 0.25098039 0.27450980 0.65882353
v -0.27767584 0.05238643 -15.93832779 0.25098039 0.27450980 0.65882353
v -0.27548254 0.04626095 -15.93543720 0.25098039 0.27450980 0.65882353
v -0.27217886 0.04727872 -15.93658352 0.25098039 0.27450980 0.65882353
v -0.27298433 0.04137896 -15.93211651 0.25098039 0.27450980 0.65882353
v -0.27032220 0.04269311 -15.93333912 0.25098039 0.27450980 0.65882353
v -0.26741993 0.04429343 -15.93280792 0.25098039 0.27450980 0.65882353
v -0.27075678 0.03997202 -15.92929554 0.25098039 0.27450980 0.65882353
v -0.27219701 0.03951040 -15.92802811 0.25098039 0.27450980 0.65882353
v -0.26889011 0.04038495 -15.92798233 0.25098039 0.27450980 0.65882353
v -0.26940954 0.04089212 -15.93056202 0.25098039 0.27450980 0.65882353
v -0.26804414 0.04160272 -15.92996883 0.25098039 0.27450980 0.65882353
v -0.28527051 0.09633759 -15.95781231 0.25098039 0.27450980 0.65882353
v -0.18566389 0.13064623 -15.98023510 0.25098039 0.27450980 0.65882353
v -0.18925807 0.12672669 -15.97801685 0.25098039 0.27450980 0.65882353
v -0.19102560 0.11611588 -15.99047565 0.25098039 0.27450980 0.65882353
v -0.19234668 0.11715592 -15.98345089 0.25098039 0.27450980 0.65882353
v -0.18716447 0.11846316 -15.99581242 0.25098039 0.27450980 0.65882353
v -0.18173365 0.12799427 -15.99627113 0.25098039 0.27450980 0.65882353
v -0.18462488 0.12350424 -15.99771309 0.25098039 0.27450980 0.65882353
v -0.19156846 0.12113719 -15.97906113 0.25098039 0.27450980 0.65882353
v -0.18262410 0.13338734 -15.98458195 0.25098039 0.27450980 0.65882353
v -0.18070966 0.13278255 -15.99152565 0.25098039 0.27450980 0.65882353
v -0.17552258 0.12827887 -15.98210239 0.25098039 0.27450980 0.65882353
v -0.17412719 0.12715651 -15.98954964 0.25098039 0.27450980 0.65882353
v -0.17511304 0.12224980 -15.99474812 0.25098039 0.27450980 0.65882353
v -0.17959207 0.11767852 -15.99616146 0.25098039 0.27450980 0.65882353
v -0.18298577 0.11417602 -15.99505615 0.25098039 0.27450980 0.65882353
v -0.18060803 0.12571865 -15.97776890 0.25098039 0.27450980 0.65882353
v -0.18460216 0.12192991 -15.97596741 0.25098039 0.27450980 0.65882353
v -0.18840666 0.11698220 -15.97827625 0.25098039 0.27450980 0.65882353
v -0.17593348 0.11925544 -15.97461700 0.25098039 0.27450980 0.65882353
v -0.16735241 0.11340225 -15.97685146 0.25098039 0.27450980 0.65882353
v -0.16172454 0.09796203 -15.98768044 0.25098039 0.27450980 0.65882353
v -0.16594587 0.10271970 -15.99005795 0.25098039 0.27450980 0.65882353
v -0.16413808 0.10408286 -15.98799419 0.25098039 0.27450980 0.65882353
v -0.16003050 0.09988342 -15.98642731 0.25098039 0.27450980 0.65882353
v -0.16718207 0.10813224 -15.99034691 0.25098039 0.27450980 0.65882353
v -0.16592787 0.10788400 -15.98816586 0.25098039 0.27450980 0.65882353
v -0.16593081 0.11129695 -15.98372078 0.25098039 0.27450980 0.65882353
v -0.16226485 0.10722058 -15.98235989 0.25098039 0.27450980 0.65882353
v -0.16615020 0.11139171 -15.97841930 0.25098039 0.27450980 0.65882353
v -0.16450615 0.10821649 -15.97637844 0.25098039 0.27450980 0.65882353
v -0.15876552 0.10322773 -15.98076630 0.25098039 0.27450980 0.65882353
v -0.15707012 0.09861424 -15.98409081 0.25098039 0.27450980 0.65882353
v -0.15615763 0.09954851 -15.97950077 0.25098039 0.27450980 0.65882353
v -0.15844567 0.09557503 -15.98412895 0.25098039 0.27450980 0.65882353
v -0.16465385 0.11321103 -15.98418045 0.25098039 0.27450980 0.65882353
v -0.17339624 0.10958907 -15.99414158 0.25098039 0.27450980 0.65882353
v -0.16962218 0.10183673 -15.99130440 0.25098039 0.27450980 0.65882353
v -0.16519447 0.09617359 -15.98758030 0.25098039 0.27450980 0.65882353
v -0.16111746 0.09377349 -15.98324203 0.25098039 0.27450980 0.65882353
v -0.17384499 0.10039301 -15.98994350 0.25098039 0.27450980 0.65882353
v -0.16941918 0.09583550 -15.98569202 0.25098039 0.27450980 0.65882353
v -0.16586758 0.09410944 -15.98114681 0.25098039 0.27450980 0.65882353
v -0.17714770 0.10014324 -15.98609638 0.25098039 0.27450980 0.65882353
v -0.17198814 0.09655993 -15.98253155 0.25098039 0.27450980 0.65882353
v -0.18507668 0.11003873 -15.98956013 0.25098039 0.27450980 0.65882353
v -0.18008244 0.10957785 -15.99403858 0.25098039 0.27450980 0.65882353
v -0.16838598 0.09532333 -15.98016644 0.25098039 0.27450980 0.65882353
v -0.15611792 0.09684490 -15.97828102 0.25098039 0.27450980 0.65882353
v -0.15920372 0.09492749 -15.97721100 0.25098039 0.27450980 0.65882353
v -0.16663691 0.10900536 -15.97360134 0.25098039 0.27450980 0.65882353
v -0.16065624 0.10482354 -15.97471333 0.25098039 0.27450980 0.65882353
v -0.16287886 0.10413440 -15.97243595 0.25098039 0.27450980 0.65882353
v -0.17048383 0.10929542 -15.97189808 0.25098039 0.27450980 0.65882353
v -0.16545801 0.10315154 -15.97107697 0.25098039 0.27450980 0.65882353
v -0.15877320 0.10013879 -15.97349262 0.25098039 0.27450980 0.65882353
v -0.15779352 0.10190970 -15.97570705 0.25098039 0.27450980 0.65882353
v -0.18754864 0.11286014 -15.99060631 0.25098039 0.27450980 0.65882353
v -0.18975525 0.11437935 -15.98415375 0.25098039 0.27450980 0.65882353
v -0.18701555 0.11186602 -15.98295498 0.25098039 0.27450980 0.65882353
v -0.17927286 0.10244785 -15.97997952 0.25098039 0.27450980 0.65882353
v -0.18537797 0.11369649 -15.97676659 0.25098039 0.27450980 0.65882353
v -0.18055686 0.11695148 -15.97387791 0.25098039 0.27450980 0.65882353
v -0.17416979 0.10769781 -15.97169304 0.25098039 0.27450980 0.65882353
v -0.17779548 0.10530546 -15.97445107 0.25098039 0.27450980 0.65882353
v -0.16882312 0.10140695 -15.97181225 0.25098039 0.27450980 0.65882353
v -0.17105253 0.10018183 -15.97379398 0.25098039 0.27450980 0.65882353
v -0.17249896 0.09769236 -15.97807789 0.25098039 0.27450980 0.65882353
v -0.16518711 0.09771677 -15.97332382 0.25098039 0.27450980 0.65882353
v -0.16170301 0.09876256 -15.97243309 0.25098039 0.27450980 0.65882353
v -0.16407365 0.09494770 -15.97673130 0.25098039 0.27450980 0.65882353
v -0.16790277 0.09790214 -15.97452164 0.25098039 0.27450980 0.65882353
v -0.16772920 0.09609237 -15.97713852 0.25098039 0.27450980 0.65882353
v -0.27802217 0.09844735 -15.96851635 0.25098039 0.27450980 0.65882353
v -0.27139658 0.09852968 -15.96710873 0.25098039 0.27450980 0.65882353
v -0.27363834 0.10235020 -15.97264862 0.25098039 0.27450980 0.65882353
v -0.27517739 0.10829435 -15.98046684 0.25098039 0.27450980 0.65882353
v -0.28256267 0.11402434 -15.98637867 0.25098039 0.27450980 0.65882353
v -0.26883727 0.11085945 -15.97900963 0.25098039 0.27450980 0.65882353
v -0.26757139 0.10449360 -15.97107315 0.25098039 0.27450980 0.65882353
v -0.26483953 0.09928881 -15.96266365 0.25098039 0.27450980 0.65882353
v -0.26445380 0.11952636 -15.98334217 0.25098039 0.27450980 0.65882353
f 2 3 1
f 1 3 4
f 5 6 8
f 8 6 7
f 9 4 10
f 10 4 3
f 12 13 11
f 11 13 9
f 14 12 16
f 16 12 15
f 18 19 17
f 17 19 20
f 22 23 21
f 21 23 24
f 26 27 25
f 25 27 28
f 30 31 29
f 29 31 32
f 33 34 36
f 36 34 35
f 37 38 40
f 40 38 39
f 41 42 6
f 6 42 43
f 6 43 7
f 7 43 44
f 45 34 46
f 46 34 33
f 48 49 47
f 47 49 50
f 52 53 51
f 51 53 54
f 56 52 55
f 55 52 51
f 58 59 57
f 57 59 60
f 61 62 4
f 4 62 1
f 64 65 63
f 63 65 66
f 68 69 67
f 67 69 70
f 72 73 71
f 71 73 74
f 76 77 75
f 75 77 78
f 53 79 54
f 54 79 80
f 82 83 81
f 81 83 84
f 85 86 52
f 52 86 53
f 57 60 87
f 87 60 88
f 89 90 43
f 43 90 44
f 43 42 89
f 89 42 91
f 40 39 92
f 92 39 93
f 94 70 64
f 64 70 69
f 13 61 9
f 9 61 4
f 25 28 69
f 69 28 95
f 96 25 68
f 68 25 69
f 98 99 97
f 97 99 100
f 101 102 104
f 104 102 103
f 106 30 105
f 105 30 29
f 51 54 107
f 107 54 108
f 54 80 108
f 108 80 109
f 111 112 110
f 110 112 113
f 115 5 114
f 114 5 116
f 115 41 5
f 5 41 6
f 36 35 111
f 111 35 117
f 35 118 117
f 117 118 119
f 34 120 35
f 35 120 118
f 34 45 120
f 120 45 121
f 125 126 124
f 124 126 127
f 128 129 14
f 14 129 130
f 33 131 46
f 46 131 132
f 133 94 63
f 63 94 64
f 134 135 137
f 137 135 136
f 139 140 138
f 138 140 141
f 77 142 78
f 78 142 143
f 144 145 20
f 20 145 146
f 148 149 147
f 147 149 72
f 151 152 150
f 150 152 153
f 82 101 83
f 83 101 104
f 101 82 155
f 155 82 154
f 156 157 58
f 58 157 59
f 158 68 147
f 147 68 67
f 159 146 15
f 15 146 16
f 68 158 96
f 96 158 160
f 129 66 130
f 130 66 65
f 162 163 161
f 161 163 164
f 166 167 165
f 165 167 168
f 170 171 169
f 169 171 172
f 174 171 173
f 173 171 170
f 176 177 175
f 175 177 178
f 180 181 179
f 179 181 24
f 182 183 21
f 21 183 184
f 81 185 82
f 82 185 154
f 186 187 188
f 188 187 144
f 158 71 160
f 160 71 189
f 190 135 157
f 157 135 59
f 169 172 139
f 139 172 140
f 147 72 158
f 158 72 71
f 192 193 191
f 191 193 194
f 167 166 49
f 49 166 195
f 196 190 50
f 50 190 157
f 197 198 200
f 200 198 199
f 21 24 182
f 182 24 181
f 146 159 20
f 20 159 17
f 182 181 81
f 81 181 185
f 201 185 180
f 180 185 181
f 202 203 83
f 83 203 84
f 205 206 204
f 204 206 85
f 207 22 184
f 184 22 21
f 179 24 208
f 208 24 23
f 208 209 179
f 179 209 205
f 209 210 205
f 205 210 206
f 212 206 211
f 211 206 210
f 179 205 180
f 180 205 204
f 213 176 88
f 88 176 214
f 86 85 212
f 212 85 206
f 193 217 218
f 217 219 218
f 218 219 220
f 219 18 220
f 220 18 17
f 19 221 20
f 20 221 144
f 222 223 225
f 225 223 224
f 175 226 176
f 176 226 214
f 227 87 214
f 214 87 88
f 220 17 228
f 228 17 159
f 134 213 60
f 60 213 88
f 138 229 151
f 151 229 152
f 193 192 210
f 210 192 211
f 230 194 218
f 218 194 193
f 231 232 228
f 228 232 230
f 233 234 91
f 91 234 89
f 235 236 93
f 93 236 92
f 230 232 234
f 234 232 237
f 47 238 48
f 48 238 239
f 240 191 235
f 235 191 236
f 5 8 116
f 116 8 241
f 242 243 189
f 189 243 160
f 244 245 98
f 98 245 99
f 156 246 47
f 47 246 238
f 76 247 77
f 77 247 248
f 250 125 249
f 249 125 124
f 252 253 251
f 251 253 254
f 111 110 36
f 36 110 255
f 256 33 255
f 255 33 36
f 257 258 154
f 154 258 155
f 63 169 133
f 133 169 139
f 66 170 63
f 63 170 169
f 173 170 129
f 129 170 66
f 129 128 173
f 173 128 259
f 128 260 259
f 259 260 261
f 213 134 262
f 262 134 137
f 263 264 186
f 186 264 187
f 112 265 113
f 113 265 266
f 11 267 268
f 234 233 230
f 230 233 194
f 153 269 70
f 70 269 67
f 175 178 165
f 165 178 141
f 150 153 94
f 94 153 70
f 271 221 270
f 270 221 207
f 269 153 272
f 272 153 152
f 121 45 109
f 109 45 108
f 47 50 156
f 156 50 157
f 57 273 58
f 58 273 274
f 145 275 260
f 260 275 261
f 276 149 143
f 143 149 78
f 148 269 75
f 75 269 272
f 207 277 270
f 270 277 278
f 195 196 49
f 49 196 50
f 59 135 60
f 60 135 134
f 83 104 202
f 202 104 279
f 149 148 78
f 78 148 75
f 247 278 248
f 248 278 277
f 183 182 84
f 84 182 81
f 48 239 281
f 281 239 282
f 227 223 283
f 283 223 222
f 223 226 224
f 224 226 168
f 281 282 224
f 224 282 225
f 165 168 175
f 175 168 226
f 264 263 138
f 138 263 229
f 14 16 128
f 128 16 260
f 220 228 218
f 218 228 230
f 87 227 284
f 284 227 283
f 260 16 145
f 145 16 146
f 244 98 258
f 258 98 155
f 58 274 156
f 156 274 246
f 107 285 51
f 51 285 55
f 243 286 160
f 160 286 96
f 234 237 89
f 89 237 90
f 46 132 107
f 107 132 285
f 253 252 249
f 249 252 250
f 286 26 96
f 96 26 25
f 106 105 287
f 287 105 288
f 272 152 289
f 289 152 229
f 138 151 139
f 139 151 133
f 183 290 161
f 161 290 162
f 291 292 277
f 277 292 293
f 151 150 133
f 133 150 94
f 262 275 177
f 177 275 187
f 144 187 145
f 145 187 275
f 273 57 284
f 284 57 87
f 174 136 190
f 190 136 135
f 111 117 112
f 112 117 38
f 117 119 38
f 38 119 123
f 112 38 265
f 265 38 37
f 287 288 254
f 254 288 251
f 228 159 231
f 231 159 15
f 223 227 226
f 226 227 214
f 147 67 148
f 148 67 269
f 224 168 281
f 281 168 167
f 199 163 200
f 200 163 162
f 45 46 108
f 108 46 107
f 281 167 48
f 48 167 49
f 161 164 291
f 291 164 292
f 38 123 39
f 293 294 277
f 277 294 248
f 284 283 296
f 296 283 295
f 284 296 273
f 273 296 297
f 274 273 298
f 298 273 297
f 246 274 299
f 299 274 298
f 283 222 295
f 295 222 300
f 222 225 300
f 300 225 301
f 301 225 302
f 302 225 282
f 303 304 300
f 300 304 295
f 306 307 305
f 305 307 308
f 309 310 308
f 308 310 305
f 308 307 312
f 312 307 311
f 313 314 312
f 312 314 315
f 311 316 312
f 312 316 313
f 317 304 311
f 311 304 316
f 315 309 312
f 312 309 308
f 318 319 321
f 321 319 320
f 319 318 309
f 309 318 310
f 311 307 317
f 317 307 306
f 306 297 317
f 317 297 296
f 306 322 297
f 297 322 298
f 305 323 306
f 306 323 322
f 323 305 324
f 324 305 310
f 304 317 295
f 295 317 296
f 318 325 310
f 310 325 324
f 323 324 326
f 326 324 327
f 324 325 327
f 327 325 328
f 326 327 329
f 329 327 330
f 329 331 326
f 326 331 332
f 333 330 328
f 328 330 327
f 323 326 322
f 322 326 332
f 322 332 298
f 298 332 299
f 325 318 334
f 334 318 321
f 313 316 335
f 335 316 304
f 335 336 313
f 313 336 314
f 304 303 335
f 335 303 337
f 336 335 338
f 338 335 337
f 336 339 314
f 314 339 340
f 246 299 238
f 238 299 341
f 239 342 282
f 282 342 302
f 342 239 341
f 341 239 238
f 341 331 342
f 342 331 343
f 331 329 343
f 343 329 344
f 342 343 302
f 302 343 345
f 341 299 331
f 331 299 332
f 346 301 345
f 345 301 302
f 346 303 301
f 301 303 300
f 347 337 346
f 346 337 303
f 347 346 348
f 348 346 345
f 349 347 350
f 350 347 348
f 343 344 345
f 345 344 348
f 344 351 348
f 348 351 350
f 337 347 338
f 338 347 349
f 353 338 352
f 352 338 349
f 352 355 354
f 354 355 356
f 352 349 355
f 355 349 350
f 352 354 353
f 353 354 334
f 353 334 339
f 339 334 321
f 339 336 353
f 353 336 338
f 329 330 344
f 344 330 351
f 356 351 333
f 333 351 330
f 356 355 351
f 351 355 350
f 354 356 328
f 328 356 333
f 328 325 354
f 354 325 334
f 309 315 319
f 319 315 320
f 320 340 321
f 321 340 339
f 320 315 340
f 340 315 314
f 137 136 261
f 261 136 259
f 140 166 141
f 141 166 165
f 172 171 195
f 195 171 196
f 171 174 196
f 196 174 190
f 178 177 264
f 264 177 187
f 172 195 140
f 140 195 166
f 137 261 262
f 262 261 275
f 178 264 141
f 141 264 138
f 262 177 213
f 213 177 176
f 136 174 259
f 259 174 173
f 358 359 357
f 357 359 360
f 362 363 361
f 361 363 364
f 361 364 365
f 365 364 366
f 367 368 370
f 370 368 369
f 76 371 247
f 247 371 372
f 373 374 362
f 362 374 363
f 376 377 375
f 375 377 378
f 289 229 380
f 380 229 379
f 381 379 263
f 263 379 229
f 383 384 382
f 382 384 385
f 386 368 374
f 374 368 363
f 76 289 371
f 371 289 380
f 377 376 359
f 359 376 387
f 388 386 360
f 360 386 374
f 389 383 366
f 366 383 390
f 392 393 391
f 391 393 394
f 383 382 390
f 390 382 395
f 396 365 390
f 390 365 366
f 389 366 367
f 367 366 364
f 357 397 358
f 358 397 398
f 373 399 357
f 357 399 397
f 389 367 400
f 400 367 370
f 382 385 375
f 375 385 372
f 357 360 373
f 373 360 374
f 361 401 362
f 362 401 402
f 387 388 359
f 359 388 360
f 363 368 364
f 364 368 367
f 358 398 403
f 403 398 404
f 396 392 405
f 405 392 391
f 392 395 393
f 393 395 378
f 393 403 394
f 394 403 404
f 375 378 382
f 382 378 395
f 365 396 406
f 406 396 405
f 362 402 373
f 373 402 399
f 271 270 400
f 400 270 384
f 401 361 406
f 406 361 365
f 381 369 386
f 386 369 368
f 392 396 395
f 395 396 390
f 393 378 403
f 403 378 377
f 403 377 358
f 358 377 359
f 406 405 408
f 408 405 407
f 406 408 401
f 401 408 409
f 401 409 402
f 402 409 410
f 402 410 399
f 399 410 411
f 405 391 407
f 407 391 412
f 391 394 412
f 412 394 413
f 394 404 413
f 413 404 414
f 415 416 412
f 412 416 407
f 418 419 417
f 417 419 420
f 421 422 418
f 418 422 419
f 419 422 424
f 424 422 423
f 425 426 424
f 424 426 427
f 423 428 424
f 424 428 425
f 427 420 424
f 424 420 419
f 420 429 417
f 417 429 430
f 423 422 431
f 431 422 421
f 421 409 431
f 431 409 408
f 421 432 409
f 409 432 410
f 418 433 421
f 421 433 432
f 434 433 417
f 417 433 418
f 431 416 423
f 423 416 428
f 416 431 407
f 407 431 408
f 435 434 430
f 430 434 417
f 433 434 436
f 436 434 437
f 434 435 437
f 437 435 438
f 436 437 439
f 439 437 440
f 439 441 436
f 436 441 442
f 438 443 437
f 437 443 440
f 436 442 433
f 433 442 432
f 432 442 410
f 410 442 411
f 435 430 445
f 445 430 444
f 430 429 444
f 444 429 446
f 425 428 447
f 447 428 416
f 426 425 448
f 448 425 447
f 416 415 447
f 447 415 449
f 447 449 448
f 448 449 450
f 451 452 448
f 448 452 426
f 446 452 444
f 444 452 451
f 399 411 397
f 397 411 453
f 398 454 404
f 404 454 414
f 454 398 453
f 453 398 397
f 453 441 454
f 454 441 455
f 441 439 455
f 455 439 456
f 454 455 414
f 414 455 457
f 441 453 442
f 442 453 411
f 458 413 457
f 457 413 414
f 458 415 413
f 413 415 412
f 458 459 415
f 415 459 449
f 459 458 460
f 460 458 457
f 461 459 462
f 462 459 460
f 455 456 457
f 457 456 460
f 456 463 460
f 460 463 462
f 459 461 449
f 449 461 450
f 465 450 464
f 464 450 461
f 464 467 466
f 466 467 468
f 464 461 467
f 467 461 462
f 464 466 465
f 465 466 445
f 465 445 451
f 451 445 444
f 451 448 465
f 465 448 450
f 439 440 456
f 456 440 463
f 468 463 443
f 443 463 440
f 468 467 463
f 463 467 462
f 466 468 438
f 438 468 443
f 438 435 466
f 466 435 445
f 420 427 429
f 429 427 446
f 446 427 452
f 452 427 426
f 370 369 188
f 188 369 186
f 371 376 372
f 372 376 375
f 380 379 387
f 387 379 388
f 379 381 388
f 388 381 386
f 385 384 278
f 278 384 270
f 380 387 371
f 371 387 376
f 400 370 271
f 271 370 188
f 385 278 372
f 372 278 247
f 400 384 389
f 389 384 383
f 369 381 186
f 186 381 263
f 221 271 144
f 144 271 188
f 221 19 207
f 207 19 22
f 19 18 22
f 22 18 23
f 18 219 23
f 23 219 208
f 469 470 472
f 472 470 471
f 474 475 473
f 473 475 476
f 473 476 477
f 477 476 478
f 480 481 479
f 479 481 482
f 483 484 474
f 474 484 475
f 486 487 485
f 485 487 488
f 489 490 77
f 77 490 142
f 491 489 248
f 248 489 77
f 493 494 492
f 492 494 495
f 496 480 484
f 484 480 475
f 486 497 487
f 487 497 471
f 498 496 472
f 472 496 484
f 499 493 478
f 478 493 500
f 501 502 504
f 504 502 503
f 493 492 500
f 500 492 505
f 506 477 500
f 500 477 478
f 499 478 479
f 479 478 476
f 469 507 470
f 470 507 508
f 483 509 469
f 469 509 507
f 479 482 499
f 499 482 510
f 492 495 485
f 485 495 511
f 483 469 484
f 484 469 472
f 473 512 474
f 474 512 513
f 497 498 471
f 471 498 472
f 475 480 476
f 476 480 479
f 470 508 514
f 514 508 515
f 506 502 516
f 516 502 501
f 503 502 488
f 488 502 505
f 514 515 503
f 503 515 504
f 485 488 492
f 492 488 505
f 477 506 517
f 517 506 516
f 474 513 483
f 483 513 509
f 510 292 494
f 494 292 164
f 512 473 517
f 517 473 477
f 491 481 496
f 496 481 480
f 502 506 505
f 505 506 500
f 503 488 514
f 514 488 487
f 514 487 470
f 470 487 471
f 517 516 519
f 519 516 518
f 517 519 512
f 512 519 520
f 512 520 513
f 513 520 521
f 513 521 509
f 509 521 522
f 516 501 518
f 518 501 523
f 501 504 523
f 523 504 524
f 524 504 525
f 525 504 515
f 526 527 523
f 523 527 518
f 529 530 528
f 528 530 531
f 532 533 529
f 529 533 530
f 530 533 535
f 535 533 534
f 536 537 535
f 535 537 538
f 534 539 535
f 535 539 536
f 538 531 535
f 535 531 530
f 540 541 531
f 531 541 528
f 533 532 534
f 534 532 542
f 532 520 542
f 542 520 519
f 532 543 520
f 520 543 521
f 529 544 532
f 532 544 543
f 544 529 545
f 545 529 528
f 534 542 539
f 539 542 527
f 527 542 518
f 518 542 519
f 541 546 528
f 528 546 545
f 547 544 548
f 548 544 545
f 546 549 545
f 545 549 548
f 550 547 551
f 551 547 548
f 547 550 553
f 553 550 552
f 549 554 548
f 548 554 551
f 544 547 543
f 543 547 553
f 543 553 521
f 521 553 522
f 546 541 556
f 556 541 555
f 541 540 555
f 555 540 557
f 536 539 558
f 558 539 527
f 537 536 559
f 559 536 558
f 527 526 558
f 558 526 560
f 559 558 561
f 561 558 560
f 559 562 537
f 537 562 563
f 557 563 555
f 555 563 562
f 509 522 507
f 507 522 564
f 508 565 515
f 515 565 525
f 565 508 564
f 564 508 507
f 564 552 565
f 565 552 566
f 552 550 566
f 566 550 567
f 565 566 525
f 525 566 568
f 564 522 552
f 552 522 553
f 569 524 568
f 568 524 525
f 569 526 524
f 524 526 523
f 570 560 569
f 569 560 526
f 570 569 571
f 571 569 568
f 572 570 573
f 573 570 571
f 566 567 568
f 568 567 571
f 567 574 571
f 571 574 573
f 570 572 560
f 560 572 561
f 576 561 575
f 575 561 572
f 575 578 577
f 577 578 579
f 575 572 578
f 578 572 573
f 575 577 576
f 576 577 556
f 576 556 562
f 562 556 555
f 562 559 576
f 576 559 561
f 550 551 567
f 567 551 574
f 579 574 554
f 554 574 551
f 579 578 574
f 574 578 573
f 579 554 577
f 577 554 549
f 549 546 577
f 577 546 556
f 531 538 540
f 540 538 557
f 557 538 563
f 563 538 537
f 481 294 482
f 482 294 293
f 580 486 511
f 511 486 485
f 490 489 497
f 497 489 498
f 489 491 498
f 498 491 496
f 163 495 164
f 164 495 494
f 580 490 486
f 486 490 497
f 482 293 510
f 510 293 292
f 495 163 511
f 511 163 199
f 494 493 510
f 510 493 499
f 481 491 294
f 294 491 248
f 582 583 581
f 581 583 584
f 586 587 585
f 585 587 588
f 585 588 589
f 589 588 590
f 592 593 591
f 591 593 594
f 595 596 598
f 598 596 597
f 599 600 586
f 586 600 587
f 601 602 604
f 604 602 603
f 605 606 608
f 608 606 607
f 609 607 200
f 200 607 606
f 610 611 613
f 613 611 612
f 600 614 587
f 587 614 592
f 596 605 597
f 597 605 608
f 602 615 603
f 603 615 583
f 616 614 584
f 584 614 600
f 611 618 617
f 617 618 590
f 620 621 619
f 619 621 622
f 610 623 611
f 611 623 618
f 624 589 618
f 618 589 590
f 617 590 591
f 591 590 588
f 581 625 582
f 582 625 626
f 599 627 581
f 581 627 625
f 591 594 617
f 617 594 628
f 601 610 598
f 598 610 613
f 581 584 599
f 599 584 600
f 585 629 586
f 586 629 630
f 615 616 583
f 583 616 584
f 587 592 588
f 588 592 591
f 582 626 631
f 631 626 632
f 624 620 633
f 633 620 619
f 621 620 604
f 604 620 623
f 631 632 621
f 621 632 622
f 610 601 623
f 623 601 604
f 589 624 634
f 634 624 633
f 586 630 599
f 599 630 627
f 203 202 628
f 628 202 612
f 629 585 634
f 634 585 589
f 609 593 614
f 614 593 592
f 620 624 623
f 623 624 618
f 631 621 603
f 603 621 604
f 582 631 583
f 583 631 603
f 634 633 636
f 636 633 635
f 634 636 629
f 629 636 637
f 629 637 630
f 630 637 638
f 630 638 627
f 627 638 639
f 633 619 635
f 635 619 640
f 619 622 640
f 640 622 641
f 641 622 642
f 642 622 632
f 644 635 643
f 643 635 640
f 645 646 648
f 648 646 647
f 649 650 646
f 646 650 647
f 647 650 652
f 652 650 651
f 652 653 655
f 655 653 654
f 651 656 652
f 652 656 653
f 655 648 652
f 652 648 647
f 648 657 645
f 645 657 658
f 650 649 651
f 651 649 659
f 649 637 659
f 659 637 636
f 649 660 637
f 637 660 638
f 661 660 646
f 646 660 649
f 662 661 645
f 645 661 646
f 651 659 656
f 656 659 644
f 644 659 635
f 635 659 636
f 663 662 658
f 658 662 645
f 664 661 665
f 665 661 662
f 663 666 662
f 662 666 665
f 667 664 668
f 668 664 665
f 664 667 670
f 670 667 669
f 666 671 665
f 665 671 668
f 661 664 660
f 660 664 670
f 660 670 638
f 638 670 639
f 658 672 663
f 663 672 673
f 658 657 672
f 672 657 674
f 653 656 675
f 675 656 644
f 653 675 654
f 654 675 676
f 675 644 677
f 677 644 643
f 676 675 678
f 678 675 677
f 679 680 676
f 676 680 654
f 674 680 672
f 672 680 679
f 627 639 625
f 625 639 681
f 626 682 632
f 632 682 642
f 681 682 625
f 625 682 626
f 669 683 681
f 681 683 682
f 667 684 669
f 669 684 683
f 682 683 642
f 642 683 685
f 681 639 669
f 669 639 670
f 686 641 685
f 685 641 642
f 641 686 640
f 640 686 643
f 686 687 643
f 643 687 677
f 687 686 688
f 688 686 685
f 689 687 690
f 690 687 688
f 683 684 685
f 685 684 688
f 684 691 688
f 688 691 690
f 687 689 677
f 677 689 678
f 693 678 692
f 692 678 689
f 692 695 694
f 694 695 696
f 692 689 695
f 695 689 690
f 692 694 693
f 693 694 673
f 693 673 679
f 679 673 672
f 679 676 693
f 693 676 678
f 684 667 691
f 691 667 668
f 696 691 671
f 671 691 668
f 696 695 691
f 691 695 690
f 694 696 666
f 666 696 671
f 666 663 694
f 694 663 673
f 648 655 657
f 657 655 674
f 674 655 680
f 680 655 654
f 593 162 594
f 594 162 290
f 598 597 601
f 601 597 602
f 615 608 616
f 616 608 607
f 607 609 616
f 616 609 614
f 697 595 613
f 613 595 598
f 597 608 602
f 602 608 615
f 594 290 628
f 628 290 203
f 628 612 617
f 617 612 611
f 593 609 162
f 162 609 200
f 105 29 698
f 698 29 699
f 268 126 701
f 701 126 700
f 126 125 700
f 700 125 702
f 252 703 250
f 250 703 704
f 32 268 705
f 705 268 701
f 288 105 706
f 706 105 698
f 29 32 699
f 699 32 705
f 707 251 706
f 706 251 288
f 250 704 125
f 125 704 702
f 703 252 707
f 707 252 251
f 706 708 707
f 707 708 709
f 707 709 703
f 703 709 710
f 703 710 704
f 704 710 711
f 704 711 702
f 702 711 712
f 706 698 708
f 708 698 713
f 698 699 713
f 713 699 714
f 699 705 714
f 714 705 715
f 717 708 716
f 716 708 713
f 719 720 718
f 718 720 721
f 722 723 719
f 719 723 720
f 724 725 723
f 723 725 720
f 724 726 725
f 725 726 727
f 728 721 725
f 725 721 720
f 721 728 729
f 729 728 730
f 729 731 721
f 721 731 718
f 724 723 732
f 732 723 722
f 722 710 732
f 732 710 709
f 722 733 710
f 710 733 711
f 719 734 722
f 722 734 733
f 734 719 735
f 735 719 718
f 724 732 726
f 726 732 717
f 717 732 708
f 708 732 709
f 731 736 718
f 718 736 735
f 737 734 738
f 738 734 735
f 736 739 735
f 735 739 738
f 740 737 741
f 741 737 738
f 737 740 743
f 743 740 742
f 739 744 738
f 738 744 741
f 734 737 733
f 733 737 743
f 733 743 711
f 711 743 712
f 736 731 746
f 746 731 745
f 731 729 745
f 745 729 730
f 727 726 747
f 747 726 717
f 748 727 749
f 749 727 747
f 747 717 750
f 750 717 716
f 749 747 751
f 751 747 750
f 749 752 748
f 748 752 753
f 730 753 745
f 745 753 752
f 728 725 748
f 748 725 727
f 730 728 753
f 753 728 748
f 700 702 754
f 754 702 712
f 705 701 715
f 715 701 755
f 754 755 700
f 700 755 701
f 742 756 754
f 754 756 755
f 740 757 742
f 742 757 756
f 755 756 715
f 715 756 758
f 754 712 742
f 742 712 743
f 759 714 758
f 758 714 715
f 714 759 713
f 713 759 716
f 759 760 716
f 716 760 750
f 760 759 761
f 761 759 758
f 762 760 763
f 763 760 761
f 756 757 758
f 758 757 761
f 757 764 761
f 761 764 763
f 760 762 750
f 750 762 751
f 766 751 765
f 765 751 762
f 767 765 769
f 769 765 768
f 765 762 768
f 768 762 763
f 765 767 766
f 766 767 746
f 766 746 752
f 752 746 745
f 752 749 766
f 766 749 751
f 757 740 764
f 764 740 741
f 769 764 744
f 744 764 741
f 769 768 764
f 764 768 763
f 767 769 739
f 739 769 744
f 739 736 767
f 767 736 746
f 219 217 208
f 208 217 209
f 209 217 210
f 210 217 193
f 198 580 199
f 199 580 511
f 76 75 289
f 289 75 272
f 277 207 291
f 291 207 184
f 290 183 203
f 203 183 84
f 490 580 142
f 142 580 198
f 142 198 143
f 143 198 197
f 149 276 72
f 72 276 73
f 104 103 279
f 279 103 770
f 770 596 279
f 279 596 595
f 605 596 771
f 771 596 770
f 771 770 772
f 772 770 103
f 772 103 773
f 773 103 102
f 155 774 101
f 101 774 102
f 773 102 97
f 97 102 774
f 775 773 100
f 100 773 97
f 773 775 772
f 772 775 776
f 772 776 771
f 771 776 777
f 200 606 197
f 197 606 777
f 189 71 778
f 778 71 74
f 97 774 98
f 98 774 155
f 183 161 184
f 184 161 291
f 777 276 197
f 197 276 143
f 777 606 771
f 771 606 605
f 613 612 697
f 697 612 202
f 595 697 279
f 279 697 202
f 73 276 776
f 776 276 777
f 776 775 73
f 73 775 74
f 100 778 775
f 775 778 74
f 778 100 189
f 189 100 99
f 245 242 99
f 99 242 189
f 131 33 256
f 28 1 95
f 95 1 62
f 27 2 28
f 28 2 1
f 265 115 266
f 266 115 114
f 95 62 69
f 69 62 64
f 62 61 64
f 64 61 65
f 61 13 65
f 65 13 130
f 13 12 130
f 130 12 14
f 31 11 32
f 32 11 268
f 15 12 31
f 31 12 11
f 31 30 15
f 15 30 231
f 30 106 231
f 231 106 232
f 287 237 106
f 106 237 232
f 254 90 287
f 287 90 237
f 253 44 254
f 254 44 90
f 253 249 44
f 44 249 7
f 267 127 268
f 268 127 126
f 10 3 241
f 241 3 116
f 3 2 116
f 116 2 114
f 2 27 114
f 114 27 266
f 27 26 266
f 266 26 113
f 26 286 113
f 113 286 110
f 286 243 110
f 110 243 255
f 243 242 255
f 255 242 256
f 242 245 256
f 256 245 131
f 245 244 131
f 131 244 132
f 265 37 115
f 115 37 41
f 41 37 42
f 42 37 40
f 92 91 40
f 40 91 42
f 236 233 92
f 92 233 91
f 191 194 236
f 236 194 233
f 258 285 244
f 244 285 132
f 257 55 258
f 258 55 285
f 257 154 201
f 201 154 185
f 56 201 204
f 204 201 180
f 55 257 56
f 56 257 201
f 204 85 56
f 56 85 52
f 86 122 53
f 53 122 79
f 212 215 86
f 86 215 122
f 211 216 212
f 212 216 215
f 192 280 211
f 211 280 216
f 191 240 192
f 192 240 280
f 249 124 7
f 7 124 8
f 124 127 8
f 8 127 241
f 127 267 241
f 241 267 10
f 10 267 9
f 9 267 11
f 93 39 235
f 235 39 240
f 39 123 240
f 240 123 280
f 123 119 280
f 280 119 216
f 119 118 216
f 216 118 215
f 118 120 215
f 215 120 122
f 120 121 122
f 122 121 79
f 121 109 79
f 79 109 80

