# https://github.com/mikedh/trimesh
v -0.09569721 0.06838341 -14.52276707 0.25098039 0.27450980 0.65882353
v -0.10350346 0.07338200 -14.52716827 0.25098039 0.27450980 0.65882353
v -0.09698334 0.06860551 -14.53432941 0.25098039 0.27450980 0.65882353
v -0.08843967 0.06460755 -14.52840996 0.25098039 0.27450980 0.65882353
v -0.11349782 0.08023740 -14.54571056 0.25098039 0.27450980 0.65882353
v -0.11188589 0.09077296 -14.55226707 0.25098039 0.27450980 0.65882353
v -0.10215564 0.08013227 -14.55797482 0.25098039 0.27450980 0.65882353
v -0.10559559 0.07276491 -14.55205536 0.25098039 0.27450980 0.65882353
v -0.08180757 0.06283371 -14.53197479 0.25098039 0.27450980 0.65882353
v -0.09177627 0.06402993 -14.53954697 0.25098039 0.27450980 0.65882353
v -0.07782362 0.06617793 -14.53392220 0.25098039 0.27450980 0.65882353
v -0.06807186 0.06816462 -14.52150726 0.25098039 0.27450980 0.65882353
v -0.07324077 0.06388746 -14.52314949 0.25098039 0.27450980 0.65882353
v -0.06339081 0.06589478 -14.51363850 0.25098039 0.27450980 0.65882353
v -0.06854403 0.07783218 -14.51727962 0.25098039 0.27450980 0.65882353
v -0.06444938 0.06939887 -14.50473022 0.25098039 0.27450980 0.65882353
v -0.08784665 0.08098365 -14.49160385 0.25098039 0.27450980 0.65882353
v -0.09941901 0.07838279 -14.48554230 0.25098039 0.27450980 0.65882353
v -0.09139842 0.06574222 -14.48071480 0.25098039 0.27450980 0.65882353
v -0.08052349 0.06930241 -14.48792267 0.25098039 0.27450980 0.65882353
v -0.11125740 0.06334414 -14.47859955 0.25098039 0.27450980 0.65882353
v -0.09993143 0.06400339 -14.47918224 0.25098039 0.27450980 0.65882353
v -0.10772588 0.07734323 -14.48314667 0.25098039 0.27450980 0.65882353
v -0.11760494 0.07619736 -14.48232746 0.25098039 0.27450980 0.65882353
v -0.11017387 0.07117547 -14.51535892 0.25098039 0.27450980 0.65882353
v -0.11774871 0.07711391 -14.51896954 0.25098039 0.27450980 0.65882353
v -0.11209317 0.07681607 -14.52042007 0.25098039 0.27450980 0.65882353
v -0.10503424 0.07146264 -14.51761246 0.25098039 0.27450980 0.65882353
v -0.07560706 0.07122597 -14.54691315 0.25098039 0.27450980 0.65882353
v -0.07495372 0.08136755 -14.53714752 0.25098039 0.27450980 0.65882353
v -0.07405077 0.07398963 -14.53406715 0.25098039 0.27450980 0.65882353
v -0.07838257 0.06654616 -14.54603100 0.25098039 0.27450980 0.65882353
v -0.14192450 0.08942824 -14.52739239 0.25098039 0.27450980 0.65882353
v -0.14591973 0.10265235 -14.52702045 0.25098039 0.27450980 0.65882353
v -0.14101055 0.10485331 -14.52920151 0.25098039 0.27450980 0.65882353
v -0.13848296 0.09242891 -14.52858925 0.25098039 0.27450980 0.65882353
v -0.12403402 0.10371453 -14.54217625 0.25098039 0.27450980 0.65882353
v -0.12747085 0.11222458 -14.53770065 0.25098039 0.27450980 0.65882353
v -0.12009429 0.12397043 -14.53660774 0.25098039 0.27450980 0.65882353
v -0.11411981 0.11680866 -14.54003811 0.25098039 0.27450980 0.65882353
v -0.11816473 0.09622870 -14.54743290 0.25098039 0.27450980 0.65882353
v -0.11043015 0.10765718 -14.54730129 0.25098039 0.27450980 0.65882353
v -0.10496438 0.09992665 -14.55307674 0.25098039 0.27450980 0.65882353
v -0.09638460 0.08703904 -14.55977917 0.25098039 0.27450980 0.65882353
v -0.15535124 0.09926019 -14.51930332 0.25098039 0.27450980 0.65882353
v -0.15438120 0.08924002 -14.51862049 0.25098039 0.27450980 0.65882353
v -0.04033180 0.02485871 -14.50871944 0.25098039 0.27450980 0.65882353
v -0.04450051 0.02145341 -14.50658226 0.25098039 0.27450980 0.65882353
v -0.04640278 0.02502722 -14.50639248 0.25098039 0.27450980 0.65882353
v -0.04199529 0.02789982 -14.50817013 0.25098039 0.27450980 0.65882353
v -0.15644875 0.09649712 -14.49957943 0.25098039 0.27450980 0.65882353
v -0.15169972 0.10076611 -14.49172688 0.25098039 0.27450980 0.65882353
v -0.15623131 0.10522443 -14.49428749 0.25098039 0.27450980 0.65882353
v -0.15922831 0.10251416 -14.50247002 0.25098039 0.27450980 0.65882353
v -0.15247113 0.08850132 -14.49556732 0.25098039 0.27450980 0.65882353
v -0.14526428 0.09422411 -14.48874283 0.25098039 0.27450980 0.65882353
v -0.03122923 0.02542745 -14.50009823 0.25098039 0.27450980 0.65882353
v -0.03259179 0.02621126 -14.50493431 0.25098039 0.27450980 0.65882353
v -0.03405145 0.03049424 -14.50290203 0.25098039 0.27450980 0.65882353
v -0.03336163 0.03007044 -14.49766827 0.25098039 0.27450980 0.65882353
v -0.08040200 0.06238539 -14.52256584 0.25098039 0.27450980 0.65882353
v -0.08909988 0.06263749 -14.51952171 0.25098039 0.27450980 0.65882353
v -0.06991938 0.04928650 -14.51349258 0.25098039 0.27450980 0.65882353
v -0.07815298 0.05507158 -14.51480675 0.25098039 0.27450980 0.65882353
v -0.07297425 0.05885176 -14.51782608 0.25098039 0.27450980 0.65882353
v -0.06622945 0.05473107 -14.51529789 0.25098039 0.27450980 0.65882353
v -0.09953541 0.05313639 -14.50559044 0.25098039 0.27450980 0.65882353
v -0.10608027 0.06218356 -14.50956726 0.25098039 0.27450980 0.65882353
v -0.09982175 0.06296904 -14.51144886 0.25098039 0.27450980 0.65882353
v -0.09159173 0.05294485 -14.50863934 0.25098039 0.27450980 0.65882353
v -0.11888327 0.05774719 -14.50645733 0.25098039 0.27450980 0.65882353
v -0.11140961 0.04944494 -14.50265408 0.25098039 0.27450980 0.65882353
v -0.11970882 0.04800917 -14.50145245 0.25098039 0.27450980 0.65882353
v -0.12386837 0.05374477 -14.50506687 0.25098039 0.27450980 0.65882353
v -0.09542592 0.03615869 -14.49571133 0.25098039 0.27450980 0.65882353
v -0.08968006 0.03176636 -14.49055862 0.25098039 0.27450980 0.65882353
v -0.09187259 0.03059111 -14.48887444 0.25098039 0.27450980 0.65882353
v -0.09844354 0.03566754 -14.49455833 0.25098039 0.27450980 0.65882353
v -0.15994194 0.11044558 -14.49572372 0.25098039 0.27450980 0.65882353
v -0.16073948 0.10869993 -14.50486279 0.25098039 0.27450980 0.65882353
v -0.13119254 0.05883539 -14.47889614 0.25098039 0.27450980 0.65882353
v -0.14042228 0.05747560 -14.48449516 0.25098039 0.27450980 0.65882353
v -0.13654515 0.04601267 -14.48069191 0.25098039 0.27450980 0.65882353
v -0.12818708 0.05050258 -14.47585678 0.25098039 0.27450980 0.65882353
v -0.14301638 0.10473172 -14.48798752 0.25098039 0.27450980 0.65882353
v -0.14881629 0.10901230 -14.48880959 0.25098039 0.27450980 0.65882353
v -0.03285241 0.02282128 -14.49492741 0.25098039 0.27450980 0.65882353
v -0.03502679 0.02730130 -14.49263191 0.25098039 0.27450980 0.65882353
v -0.09677453 0.10723403 -14.54474258 0.25098039 0.27450980 0.65882353
v -0.08866031 0.09212123 -14.55551720 0.25098039 0.27450980 0.65882353
v -0.10394558 0.11722028 -14.53676224 0.25098039 0.27450980 0.65882353
v -0.10892664 0.12375796 -14.53066444 0.25098039 0.27450980 0.65882353
v -0.11346404 0.13002837 -14.52818966 0.25098039 0.27450980 0.65882353
v -0.08045061 0.04966479 -14.51085949 0.25098039 0.27450980 0.65882353
v -0.09736757 0.06566921 -14.51620770 0.25098039 0.27450980 0.65882353
v -0.11488862 0.06992532 -14.51360130 0.25098039 0.27450980 0.65882353
v -0.14126247 0.05685356 -14.50610638 0.25098039 0.27450980 0.65882353
v -0.14694080 0.06522703 -14.50993443 0.25098039 0.27450980 0.65882353
v -0.13658009 0.06480657 -14.51327610 0.25098039 0.27450980 0.65882353
v -0.13371387 0.05768966 -14.50869179 0.25098039 0.27450980 0.65882353
v -0.14388981 0.05245755 -14.49145317 0.25098039 0.27450980 0.65882353
v -0.14048198 0.04920867 -14.49754524 0.25098039 0.27450980 0.65882353
v -0.13599943 0.04188509 -14.49468708 0.25098039 0.27450980 0.65882353
v -0.13916066 0.04383162 -14.48838043 0.25098039 0.27450980 0.65882353
v -0.07432826 0.07571937 -14.55234909 0.25098039 0.27450980 0.65882353
v -0.07613645 0.08722341 -14.54057217 0.25098039 0.27450980 0.65882353
v -0.15799585 0.09303305 -14.50916290 0.25098039 0.27450980 0.65882353
v -0.15867299 0.10003443 -14.51222229 0.25098039 0.27450980 0.65882353
v -0.15999027 0.10848062 -14.51218033 0.25098039 0.27450980 0.65882353
v -0.12936234 0.08329548 -14.52406406 0.25098039 0.27450980 0.65882353
v -0.13622043 0.09444720 -14.52954578 0.25098039 0.27450980 0.65882353
v -0.13306236 0.09473196 -14.53167248 0.25098039 0.27450980 0.65882353
v -0.12643310 0.08369301 -14.52426720 0.25098039 0.27450980 0.65882353
v -0.11363810 0.07799815 -14.53201866 0.25098039 0.27450980 0.65882353
v -0.12150055 0.08696894 -14.53858948 0.25098039 0.27450980 0.65882353
v -0.10756463 0.07166524 -14.53944874 0.25098039 0.27450980 0.65882353
v -0.13555160 0.10915666 -14.53278255 0.25098039 0.27450980 0.65882353
v -0.14452296 0.11440690 -14.53051758 0.25098039 0.27450980 0.65882353
v -0.13739914 0.11832061 -14.53359413 0.25098039 0.27450980 0.65882353
v -0.15184781 0.11153731 -14.52509022 0.25098039 0.27450980 0.65882353
v -0.15712953 0.10912646 -14.51861286 0.25098039 0.27450980 0.65882353
v -0.15338157 0.11483879 -14.48705482 0.25098039 0.27450980 0.65882353
v -0.13007113 0.12174565 -14.53536224 0.25098039 0.27450980 0.65882353
v -0.09900993 0.06722648 -14.55583191 0.25098039 0.27450980 0.65882353
v -0.09314378 0.06223384 -14.55926228 0.25098039 0.27450980 0.65882353
v -0.09034513 0.05981124 -14.55258656 0.25098039 0.27450980 0.65882353
v -0.09595709 0.06358959 -14.54869938 0.25098039 0.27450980 0.65882353
v -0.05809447 0.06110460 -14.50744343 0.25098039 0.27450980 0.65882353
v -0.06127939 0.05757099 -14.51318550 0.25098039 0.27450980 0.65882353
v -0.06724744 0.06309710 -14.51863289 0.25098039 0.27450980 0.65882353
v -0.14082149 0.07956187 -14.52209759 0.25098039 0.27450980 0.65882353
v -0.15203229 0.07952216 -14.51493835 0.25098039 0.27450980 0.65882353
v -0.07127512 0.04416519 -14.50895691 0.25098039 0.27450980 0.65882353
v -0.03655396 0.03472916 -14.49700832 0.25098039 0.27450980 0.65882353
v -0.03702450 0.03513420 -14.50269985 0.25098039 0.27450980 0.65882353
v -0.04902247 0.04965648 -14.50477123 0.25098039 0.27450980 0.65882353
v -0.04822186 0.04942775 -14.49792099 0.25098039 0.27450980 0.65882353
v -0.06598291 0.03901514 -14.49946308 0.25098039 0.27450980 0.65882353
v -0.06696711 0.04058271 -14.50603485 0.25098039 0.27450980 0.65882353
v -0.06436768 0.03917591 -14.50398159 0.25098039 0.27450980 0.65882353
v -0.06369601 0.03557065 -14.49853230 0.25098039 0.27450980 0.65882353
v -0.10089056 0.03044699 -14.48978424 0.25098039 0.27450980 0.65882353
v -0.10660376 0.03502134 -14.49412251 0.25098039 0.27450980 0.65882353
v -0.07374622 0.05500425 -14.48579979 0.25098039 0.27450980 0.65882353
v -0.06457675 0.06349216 -14.49094677 0.25098039 0.27450980 0.65882353
v -0.07107781 0.07195373 -14.49489784 0.25098039 0.27450980 0.65882353
v -0.10659988 0.05187257 -14.50388145 0.25098039 0.27450980 0.65882353
v -0.10125425 0.04321523 -14.50009537 0.25098039 0.27450980 0.65882353
v -0.10489495 0.04215969 -14.49882317 0.25098039 0.27450980 0.65882353
v -0.08041507 0.04597182 -14.50743771 0.25098039 0.27450980 0.65882353
v -0.07341218 0.04110652 -14.50427628 0.25098039 0.27450980 0.65882353
v -0.07940458 0.04188168 -14.50312710 0.25098039 0.27450980 0.65882353
v -0.08558168 0.04643854 -14.50531578 0.25098039 0.27450980 0.65882353
v -0.14534651 0.06925406 -14.48726273 0.25098039 0.27450980 0.65882353
v -0.14974576 0.06337272 -14.49516582 0.25098039 0.27450980 0.65882353
v -0.03595702 0.02626154 -14.50809574 0.25098039 0.27450980 0.65882353
v -0.03740920 0.02995437 -14.50681114 0.25098039 0.27450980 0.65882353
v -0.11273689 0.06078934 -14.50753593 0.25098039 0.27450980 0.65882353
v -0.07865591 0.08174519 -14.49996853 0.25098039 0.27450980 0.65882353
v -0.11976787 0.06835732 -14.51236057 0.25098039 0.27450980 0.65882353
v -0.11182469 0.04181591 -14.47530842 0.25098039 0.27450980 0.65882353
v -0.11446575 0.03600937 -14.48016262 0.25098039 0.27450980 0.65882353
v -0.11001608 0.03180381 -14.47876740 0.25098039 0.27450980 0.65882353
v -0.10803719 0.03486376 -14.47348213 0.25098039 0.27450980 0.65882353
v -0.05309246 0.02433101 -14.49654102 0.25098039 0.27450980 0.65882353
v -0.05286674 0.02454877 -14.50218678 0.25098039 0.27450980 0.65882353
v -0.04931676 0.02194180 -14.50177479 0.25098039 0.27450980 0.65882353
v -0.04908842 0.02088919 -14.49610138 0.25098039 0.27450980 0.65882353
v -0.06500432 0.04411715 -14.51025009 0.25098039 0.27450980 0.65882353
v -0.06154819 0.04925683 -14.51254177 0.25098039 0.27450980 0.65882353
v -0.05794959 0.04409578 -14.51084042 0.25098039 0.27450980 0.65882353
v -0.06151000 0.04087473 -14.50764275 0.25098039 0.27450980 0.65882353
v -0.05650710 0.05249919 -14.51019859 0.25098039 0.27450980 0.65882353
v -0.05293176 0.04782952 -14.50961018 0.25098039 0.27450980 0.65882353
v -0.04972874 0.02618340 -14.49126911 0.25098039 0.27450980 0.65882353
v -0.04348481 0.02969923 -14.48907089 0.25098039 0.27450980 0.65882353
v -0.05546610 0.04223202 -14.48928261 0.25098039 0.27450980 0.65882353
v -0.05939811 0.03629825 -14.49247074 0.25098039 0.27450980 0.65882353
v -0.12308040 0.08923054 -14.48512554 0.25098039 0.27450980 0.65882353
v -0.13337488 0.08596814 -14.48423004 0.25098039 0.27450980 0.65882353
v -0.12786153 0.07285090 -14.48152542 0.25098039 0.27450980 0.65882353
v -0.12278581 0.06038013 -14.47809982 0.25098039 0.27450980 0.65882353
v -0.11734404 0.04816473 -14.47585011 0.25098039 0.27450980 0.65882353
v -0.10668813 0.05253305 -14.47421932 0.25098039 0.27450980 0.65882353
v -0.13555831 0.07149737 -14.48220730 0.25098039 0.27450980 0.65882353
v -0.06977099 0.04252879 -14.49148655 0.25098039 0.27450980 0.65882353
v -0.06458269 0.05032359 -14.48941803 0.25098039 0.27450980 0.65882353
v -0.07072043 0.04815659 -14.48732567 0.25098039 0.27450980 0.65882353
v -0.12637600 0.06524177 -14.51164627 0.25098039 0.27450980 0.65882353
v -0.04014359 0.03401679 -14.50728226 0.25098039 0.27450980 0.65882353
v -0.11049037 0.12368172 -14.50683975 0.25098039 0.27450980 0.65882353
v -0.11877486 0.12061917 -14.49664307 0.25098039 0.27450980 0.65882353
v -0.11423276 0.11412054 -14.49748135 0.25098039 0.27450980 0.65882353
v -0.10492004 0.11727071 -14.50945091 0.25098039 0.27450980 0.65882353
v -0.04995690 0.02735421 -14.50758743 0.25098039 0.27450980 0.65882353
v -0.04508640 0.03093610 -14.50991821 0.25098039 0.27450980 0.65882353
v -0.11185420 0.03219502 -14.49200344 0.25098039 0.27450980 0.65882353
v -0.10625335 0.02912113 -14.48817062 0.25098039 0.27450980 0.65882353
v -0.10803886 0.02833592 -14.48465347 0.25098039 0.27450980 0.65882353
v -0.11504373 0.02876057 -14.48914433 0.25098039 0.27450980 0.65882353
v -0.13909526 0.08538716 -14.48482132 0.25098039 0.27450980 0.65882353
v -0.13484876 0.03854606 -14.48014069 0.25098039 0.27450980 0.65882353
v -0.12744850 0.04271933 -14.47497654 0.25098039 0.27450980 0.65882353
v -0.13771090 0.09760504 -14.48663712 0.25098039 0.27450980 0.65882353
v -0.12868012 0.10054816 -14.48693180 0.25098039 0.27450980 0.65882353
v -0.13297582 0.10848099 -14.48780537 0.25098039 0.27450980 0.65882353
v -0.09135276 0.04968818 -14.47618294 0.25098039 0.27450980 0.65882353
v -0.11500293 0.08964344 -14.48641872 0.25098039 0.27450980 0.65882353
v -0.12161522 0.10115719 -14.48886585 0.25098039 0.27450980 0.65882353
v -0.12641285 0.11078463 -14.48983860 0.25098039 0.27450980 0.65882353
v -0.12974522 0.11768109 -14.48952389 0.25098039 0.27450980 0.65882353
v -0.13681115 0.11412021 -14.48786545 0.25098039 0.27450980 0.65882353
v -0.03892154 0.03198554 -14.49188709 0.25098039 0.27450980 0.65882353
v -0.03959003 0.02384955 -14.48930073 0.25098039 0.27450980 0.65882353
v -0.14092858 0.12057662 -14.48610687 0.25098039 0.27450980 0.65882353
v -0.13276336 0.12391386 -14.48864937 0.25098039 0.27450980 0.65882353
v -0.11333978 0.10243045 -14.49214268 0.25098039 0.27450980 0.65882353
v -0.10415876 0.10366298 -14.49753284 0.25098039 0.27450980 0.65882353
v -0.10719747 0.09136949 -14.48901558 0.25098039 0.27450980 0.65882353
v -0.09712149 0.09193838 -14.49391270 0.25098039 0.27450980 0.65882353
v -0.08365062 0.05650596 -14.47718048 0.25098039 0.27450980 0.65882353
v -0.03730759 0.00801519 -14.49645329 0.25098039 0.27450980 0.65882353
v -0.04255110 0.01691941 -14.49244690 0.25098039 0.27450980 0.65882353
v -0.04653490 0.01687197 -14.49660873 0.25098039 0.27450980 0.65882353
v -0.04121219 0.00748025 -14.49842739 0.25098039 0.27450980 0.65882353
v -0.04575221 0.02166854 -14.49142456 0.25098039 0.27450980 0.65882353
v -0.03741178 0.01954759 -14.49154186 0.25098039 0.27450980 0.65882353
v -0.08652006 0.09294471 -14.50498295 0.25098039 0.27450980 0.65882353
v -0.07361925 0.03793924 -14.49883652 0.25098039 0.27450980 0.65882353
v -0.09368014 0.10574947 -14.51270676 0.25098039 0.27450980 0.65882353
v -0.07501888 0.08876966 -14.51966763 0.25098039 0.27450980 0.65882353
v -0.08178848 0.09713393 -14.52713108 0.25098039 0.27450980 0.65882353
v -0.10041599 0.11899544 -14.52186298 0.25098039 0.27450980 0.65882353
v -0.09081860 0.10950851 -14.53203011 0.25098039 0.27450980 0.65882353
v -0.11181208 0.13080519 -14.51749039 0.25098039 0.27450980 0.65882353
v -0.10650268 0.12452334 -14.51827145 0.25098039 0.27450980 0.65882353
v -0.08370894 0.09837501 -14.54329777 0.25098039 0.27450980 0.65882353
v -0.03886460 0.01488363 -14.51082420 0.25098039 0.27450980 0.65882353
v -0.04297481 0.01230429 -14.50774956 0.25098039 0.27450980 0.65882353
v -0.11459351 0.13010460 -14.50610733 0.25098039 0.27450980 0.65882353
v -0.10094090 0.06715025 -14.54497719 0.25098039 0.27450980 0.65882353
v -0.13077025 0.07331339 -14.51717281 0.25098039 0.27450980 0.65882353
v -0.12545370 0.07493833 -14.51785946 0.25098039 0.27450980 0.65882353
v -0.14949858 0.07082368 -14.51161385 0.25098039 0.27450980 0.65882353
v -0.13821882 0.07171923 -14.51690197 0.25098039 0.27450980 0.65882353
v -0.03376497 0.01667398 -14.51094341 0.25098039 0.27450980 0.65882353
v -0.08633305 0.03068531 -14.48458481 0.25098039 0.27450980 0.65882353
v -0.08858486 0.03224163 -14.48414993 0.25098039 0.27450980 0.65882353
v -0.09706491 0.07307408 -14.56162167 0.25098039 0.27450980 0.65882353
v -0.09270020 0.06778044 -14.56437778 0.25098039 0.27450980 0.65882353
v -0.08167376 0.07469681 -14.56494236 0.25098039 0.27450980 0.65882353
v -0.08783381 0.07188196 -14.56691742 0.25098039 0.27450980 0.65882353
v -0.09157096 0.07921387 -14.56387234 0.25098039 0.27450980 0.65882353
v -0.08525361 0.08276321 -14.56162453 0.25098039 0.27450980 0.65882353
v -0.13144532 0.08213171 -14.52402210 0.25098039 0.27450980 0.65882353
v -0.13472810 0.08063846 -14.52325916 0.25098039 0.27450980 0.65882353
v -0.14938118 0.07944441 -14.49150467 0.25098039 0.27450980 0.65882353
v -0.15298536 0.07340674 -14.49977684 0.25098039 0.27450980 0.65882353
v -0.05386558 0.05517448 -14.50491524 0.25098039 0.27450980 0.65882353
v -0.05869728 0.06246198 -14.49910355 0.25098039 0.27450980 0.65882353
v -0.05392346 0.05555156 -14.49784946 0.25098039 0.27450980 0.65882353
v -0.05163349 0.04801241 -14.49190521 0.25098039 0.27450980 0.65882353
v -0.06971096 0.03795410 -14.49453831 0.25098039 0.27450980 0.65882353
v -0.06484599 0.04109026 -14.49414825 0.25098039 0.27450980 0.65882353
v -0.12772021 0.09046081 -14.53485870 0.25098039 0.27450980 0.65882353
v -0.12037815 0.08197825 -14.52627754 0.25098039 0.27450980 0.65882353
v -0.08872400 0.06303035 -14.54326248 0.25098039 0.27450980 0.65882353
v -0.08459054 0.06115945 -14.54723358 0.25098039 0.27450980 0.65882353
v -0.09334402 0.04646631 -14.50319099 0.25098039 0.27450980 0.65882353
v -0.08310032 0.04101232 -14.47589779 0.25098039 0.27450980 0.65882353
v -0.07705352 0.04650787 -14.47697544 0.25098039 0.27450980 0.65882353
v -0.08730654 0.03999921 -14.49961853 0.25098039 0.27450980 0.65882353
v -0.02796087 0.01518711 -14.50456810 0.25098039 0.27450980 0.65882353
v -0.03035359 0.01647660 -14.50890255 0.25098039 0.27450980 0.65882353
v -0.05768801 0.05466299 -14.49168682 0.25098039 0.27450980 0.65882353
v -0.11289777 0.03990273 -14.49835205 0.25098039 0.27450980 0.65882353
v -0.09174462 0.04280754 -14.47624111 0.25098039 0.27450980 0.65882353
v -0.08533175 0.03466809 -14.47831059 0.25098039 0.27450980 0.65882353
v -0.13632515 0.03877875 -14.48784065 0.25098039 0.27450980 0.65882353
v -0.12282450 0.12741703 -14.49673176 0.25098039 0.27450980 0.65882353
v -0.04745981 0.01789298 -14.50212860 0.25098039 0.27450980 0.65882353
v -0.04462700 0.00999137 -14.50344849 0.25098039 0.27450980 0.65882353
v -0.03356914 0.01014432 -14.49617958 0.25098039 0.27450980 0.65882353
v -0.02941872 0.01357147 -14.49884701 0.25098039 0.27450980 0.65882353
v -0.15517777 0.08231532 -14.50513268 0.25098039 0.27450980 0.65882353
v -0.12211517 0.07600786 -14.51782990 0.25098039 0.27450980 0.65882353
v -0.07988064 0.08757573 -14.55246258 0.25098039 0.27450980 0.65882353
v -0.07683587 0.07635975 -14.55944824 0.25098039 0.27450980 0.65882353
v -0.08335865 0.03578685 -14.49647903 0.25098039 0.27450980 0.65882353
v -0.11920322 0.04083583 -14.47693634 0.25098039 0.27450980 0.65882353
v -0.10346887 0.04435550 -14.47207451 0.25098039 0.27450980 0.65882353
v -0.10048531 0.03713893 -14.46961689 0.25098039 0.27450980 0.65882353
v -0.09316412 0.03590462 -14.47167873 0.25098039 0.27450980 0.65882353
v -0.08852996 0.03253813 -14.47676945 0.25098039 0.27450980 0.65882353
v -0.03263488 0.00506443 -14.49897289 0.25098039 0.27450980 0.65882353
v -0.02848046 0.00866051 -14.50142860 0.25098039 0.27450980 0.65882353
v -0.02708302 0.01082661 -14.50692368 0.25098039 0.27450980 0.65882353
v -0.02921757 0.01277918 -14.51052475 0.25098039 0.27450980 0.65882353
v -0.03328398 0.01362537 -14.51194477 0.25098039 0.27450980 0.65882353
v -0.03653803 0.00293686 -14.49965763 0.25098039 0.27450980 0.65882353
v -0.04001299 0.00301503 -14.50170612 0.25098039 0.27450980 0.65882353
v -0.04347880 0.00693060 -14.50469494 0.25098039 0.27450980 0.65882353
v -0.03742518 -0.00047442 -14.50349236 0.25098039 0.27450980 0.65882353
v -0.03235729 -0.00165149 -14.50488186 0.25098039 0.27450980 0.65882353
v -0.02888201 0.00201729 -14.51802635 0.25098039 0.27450980 0.65882353
v -0.02729002 0.00433579 -14.51264954 0.25098039 0.27450980 0.65882353
v -0.02766579 0.00161840 -14.51312923 0.25098039 0.27450980 0.65882353
v -0.02899961 -0.00104724 -14.51725483 0.25098039 0.27450980 0.65882353
v -0.03005426 -0.00507464 -14.52046871 0.25098039 0.27450980 0.65882353
v -0.02997150 -0.00200248 -14.52213192 0.25098039 0.27450980 0.65882353
v -0.02872694 0.00074197 -14.50860786 0.25098039 0.27450980 0.65882353
v -0.03041773 -0.00360487 -14.51368523 0.25098039 0.27450980 0.65882353
v -0.03323297 -0.00552934 -14.51134396 0.25098039 0.27450980 0.65882353
v -0.03372355 -0.00931168 -14.51562405 0.25098039 0.27450980 0.65882353
v -0.03111802 -0.00782341 -14.51770401 0.25098039 0.27450980 0.65882353
v -0.03172028 -0.00260672 -14.50795841 0.25098039 0.27450980 0.65882353
v -0.02789184 0.00225721 -14.50645924 0.25098039 0.27450980 0.65882353
v -0.03146695 -0.00619712 -14.52369881 0.25098039 0.27450980 0.65882353
v -0.03061636 -0.00773704 -14.52195930 0.25098039 0.27450980 0.65882353
v -0.03203164 -0.00980961 -14.52011967 0.25098039 0.27450980 0.65882353
v -0.03371519 -0.01050749 -14.52258778 0.25098039 0.27450980 0.65882353
v -0.02958624 0.00950001 -14.51361275 0.25098039 0.27450980 0.65882353
v -0.03033991 0.00366734 -14.51945400 0.25098039 0.27450980 0.65882353
v -0.03269896 -0.00078594 -14.52291203 0.25098039 0.27450980 0.65882353
v -0.03397109 -0.00505526 -14.52431297 0.25098039 0.27450980 0.65882353
v -0.03434183 0.00359312 -14.52037334 0.25098039 0.27450980 0.65882353
v -0.03558964 -0.00039261 -14.52263832 0.25098039 0.27450980 0.65882353
v -0.03699359 -0.00408453 -14.52345848 0.25098039 0.27450980 0.65882353
v -0.03841403 0.00259085 -14.51988411 0.25098039 0.27450980 0.65882353
v -0.03855789 -0.00102324 -14.52171135 0.25098039 0.27450980 0.65882353
v -0.03728364 0.01082534 -14.51284885 0.25098039 0.27450980 0.65882353
v -0.03332618 0.01214039 -14.51347256 0.25098039 0.27450980 0.65882353
v -0.03895976 -0.00329198 -14.52288246 0.25098039 0.27450980 0.65882353
v -0.03584865 -0.00992117 -14.52300262 0.25098039 0.27450980 0.65882353
v -0.03607745 -0.00504524 -14.50906467 0.25098039 0.27450980 0.65882353
v -0.03686276 -0.00888160 -14.51519203 0.25098039 0.27450980 0.65882353
v -0.03849080 -0.00459889 -14.50914860 0.25098039 0.27450980 0.65882353
v -0.03922755 -0.00871516 -14.51489067 0.25098039 0.27450980 0.65882353
v -0.03634022 -0.01179670 -14.51879215 0.25098039 0.27450980 0.65882353
v -0.03406467 -0.01076920 -14.51832581 0.25098039 0.27450980 0.65882353
v -0.03836456 0.01284985 -14.51096344 0.25098039 0.27450980 0.65882353
v -0.04253198 0.00997609 -14.50780773 0.25098039 0.27450980 0.65882353
v -0.04182857 0.00809474 -14.50950718 0.25098039 0.27450980 0.65882353
v -0.04197772 0.00067663 -14.51731777 0.25098039 0.27450980 0.65882353
v -0.04310337 0.00482608 -14.50712395 0.25098039 0.27450980 0.65882353
v -0.04076567 0.00021431 -14.50553799 0.25098039 0.27450980 0.65882353
v -0.04095137 -0.00419095 -14.51093769 0.25098039 0.27450980 0.65882353
v -0.04264417 -0.00243638 -14.51333714 0.25098039 0.27450980 0.65882353
v -0.04108532 -0.00722936 -14.51554489 0.25098039 0.27450980 0.65882353
v -0.04170217 -0.00527516 -14.51697636 0.25098039 0.27450980 0.65882353
v -0.04115620 -0.00281966 -14.51988792 0.25098039 0.27450980 0.65882353
v -0.04021925 -0.00862812 -14.51939011 0.25098039 0.27450980 0.65882353
v -0.03828578 -0.01080106 -14.51905918 0.25098039 0.27450980 0.65882353
v -0.03836264 -0.00762142 -14.52246761 0.25098039 0.27450980 0.65882353
v -0.04113834 -0.00688748 -14.51931286 0.25098039 0.27450980 0.65882353
v -0.03961794 -0.00545149 -14.52146339 0.25098039 0.27450980 0.65882353
v -0.06043927 0.00675967 -14.48967266 0.25098039 0.27450980 0.65882353
v -0.06575081 0.00414477 -14.48726463 0.25098039 0.27450980 0.65882353
v -0.06664662 0.00908996 -14.48647976 0.25098039 0.27450980 0.65882353
v -0.06212306 0.01085997 -14.48875618 0.25098039 0.27450980 0.65882353
v -0.05174637 0.00897791 -14.47949505 0.25098039 0.27450980 0.65882353
v -0.05316174 0.00876847 -14.48521423 0.25098039 0.27450980 0.65882353
v -0.05403295 0.01369010 -14.48384571 0.25098039 0.27450980 0.65882353
v -0.05365458 0.01408280 -14.47727776 0.25098039 0.27450980 0.65882353
v -0.05524679 0.00769239 -14.47369766 0.25098039 0.27450980 0.65882353
v -0.05743502 0.01303482 -14.47163677 0.25098039 0.27450980 0.65882353
v -0.05541657 0.01935544 -14.47712231 0.25098039 0.27450980 0.65882353
v -0.05637650 0.01884194 -14.48413467 0.25098039 0.27450980 0.65882353
v -0.06697154 0.03661174 -14.48834419 0.25098039 0.27450980 0.65882353
v -0.06622359 0.03791896 -14.48133087 0.25098039 0.27450980 0.65882353
v -0.08277434 0.02852253 -14.48865795 0.25098039 0.27450980 0.65882353
v -0.08244906 0.02789029 -14.48468494 0.25098039 0.27450980 0.65882353
v -0.05677366 0.00789630 -14.48866463 0.25098039 0.27450980 0.65882353
v -0.05784160 0.01235428 -14.48741245 0.25098039 0.27450980 0.65882353
v -0.07375820 0.01058611 -14.48024654 0.25098039 0.27450980 0.65882353
v -0.07248592 0.01107650 -14.48548031 0.25098039 0.27450980 0.65882353
v -0.07012725 0.00698915 -14.48397827 0.25098039 0.27450980 0.65882353
v -0.07076703 0.00627808 -14.47847652 0.25098039 0.27450980 0.65882353
v -0.07337701 0.03389449 -14.49374866 0.25098039 0.27450980 0.65882353
v -0.07900719 0.03166534 -14.49184036 0.25098039 0.27450980 0.65882353
v -0.06980617 0.03480283 -14.49211597 0.25098039 0.27450980 0.65882353
v -0.07202980 0.01161368 -14.47395992 0.25098039 0.27450980 0.65882353
v -0.06716107 0.01437406 -14.46986198 0.25098039 0.27450980 0.65882353
v -0.07645501 0.03224275 -14.47288990 0.25098039 0.27450980 0.65882353
v -0.08051780 0.02864228 -14.47638798 0.25098039 0.27450980 0.65882353
v -0.05939983 0.01704464 -14.48849201 0.25098039 0.27450980 0.65882353
v -0.06860280 0.01260077 -14.48901081 0.25098039 0.27450980 0.65882353
v -0.06407873 0.01468911 -14.49055767 0.25098039 0.27450980 0.65882353
v -0.06034286 0.01805864 -14.47180557 0.25098039 0.27450980 0.65882353
v -0.06387441 0.00871911 -14.47014523 0.25098039 0.27450980 0.65882353
v -0.06188832 -0.01014724 -14.47743320 0.25098039 0.27450980 0.65882353
v -0.06640691 0.00114650 -14.47429276 0.25098039 0.27450980 0.65882353
v -0.06867735 0.00086594 -14.47889423 0.25098039 0.27450980 0.65882353
v -0.06497997 -0.01105818 -14.48124790 0.25098039 0.27450980 0.65882353
v -0.06875060 0.00646711 -14.47328091 0.25098039 0.27450980 0.65882353
v -0.06145766 0.00372707 -14.47202110 0.25098039 0.27450980 0.65882353
v -0.05829142 -0.00764306 -14.49306297 0.25098039 0.27450980 0.65882353
v -0.06358173 -0.01003882 -14.49035835 0.25098039 0.27450980 0.65882353
v -0.05385561 -0.00639296 -14.49265099 0.25098039 0.27450980 0.65882353
v -0.07034600 0.03650645 -14.47474957 0.25098039 0.27450980 0.65882353
v -0.04870050 -0.00391240 -14.48392487 0.25098039 0.27450980 0.65882353
v -0.05067362 -0.00489111 -14.49013519 0.25098039 0.27450980 0.65882353
v -0.06893317 0.00206469 -14.48381805 0.25098039 0.27450980 0.65882353
v -0.06577326 -0.01136176 -14.48602581 0.25098039 0.27450980 0.65882353
v -0.05779423 -0.00843677 -14.47603893 0.25098039 0.27450980 0.65882353
v -0.05190079 -0.00435086 -14.47786617 0.25098039 0.27450980 0.65882353
v -0.05614337 -0.01390375 -14.47832870 0.25098039 0.27450980 0.65882353
v -0.05070600 -0.01094954 -14.48046780 0.25098039 0.27450980 0.65882353
v -0.04782884 -0.00987797 -14.48644066 0.25098039 0.27450980 0.65882353
v -0.05036262 -0.00947434 -14.49171162 0.25098039 0.27450980 0.65882353
v -0.05371256 -0.00963663 -14.49370193 0.25098039 0.27450980 0.65882353
v -0.06010959 -0.01544988 -14.47961044 0.25098039 0.27450980 0.65882353
v -0.06340191 -0.01585673 -14.48294926 0.25098039 0.27450980 0.65882353
v -0.06466439 -0.01376070 -14.48726082 0.25098039 0.27450980 0.65882353
v -0.06064710 -0.02130412 -14.48405552 0.25098039 0.27450980 0.65882353
v -0.05614364 -0.02176389 -14.48314571 0.25098039 0.27450980 0.65882353
v -0.05028248 -0.02632895 -14.50027561 0.25098039 0.27450980 0.65882353
v -0.04930738 -0.02169533 -14.49639893 0.25098039 0.27450980 0.65882353
v -0.04948282 -0.02355710 -14.49450111 0.25098039 0.27450980 0.65882353
v -0.05043051 -0.02785812 -14.49788570 0.25098039 0.27450980 0.65882353
v -0.04779534 -0.01832865 -14.49113369 0.25098039 0.27450980 0.65882353
v -0.04872766 -0.02074654 -14.49074078 0.25098039 0.27450980 0.65882353
v -0.05109552 -0.02145346 -14.48675919 0.25098039 0.27450980 0.65882353
v -0.05217870 -0.02588783 -14.49113464 0.25098039 0.27450980 0.65882353
v -0.05613856 -0.02659340 -14.48852730 0.25098039 0.27450980 0.65882353
v -0.05638756 -0.03147541 -14.49173641 0.25098039 0.27450980 0.65882353
v -0.05241300 -0.03087674 -14.49435520 0.25098039 0.27450980 0.65882353
v -0.05434273 -0.02351062 -14.48582840 0.25098039 0.27450980 0.65882353
v -0.05137163 -0.03111579 -14.49937057 0.25098039 0.27450980 0.65882353
v -0.05237299 -0.03147647 -14.50174809 0.25098039 0.27450980 0.65882353
v -0.05007085 -0.01910813 -14.48452568 0.25098039 0.27450980 0.65882353
v -0.04971059 -0.01315232 -14.49342728 0.25098039 0.27450980 0.65882353
v -0.05081668 -0.02036911 -14.49876022 0.25098039 0.27450980 0.65882353
v -0.05257410 -0.02570422 -14.50250149 0.25098039 0.27450980 0.65882353
v -0.05521953 -0.03136180 -14.50288677 0.25098039 0.27450980 0.65882353
v -0.05467203 -0.02013226 -14.50054169 0.25098039 0.27450980 0.65882353
v -0.05576283 -0.02550912 -14.50322819 0.25098039 0.27450980 0.65882353
v -0.05771343 -0.03019492 -14.50277710 0.25098039 0.27450980 0.65882353
v -0.05942340 -0.02044074 -14.50080013 0.25098039 0.27450980 0.65882353
v -0.05994244 -0.02592590 -14.50266266 0.25098039 0.27450980 0.65882353
v -0.05843130 -0.01170354 -14.49487114 0.25098039 0.27450980 0.65882353
v -0.05373678 -0.01153590 -14.49538994 0.25098039 0.27450980 0.65882353
v -0.05958326 -0.02865206 -14.50247478 0.25098039 0.27450980 0.65882353
v -0.05433756 -0.03503613 -14.49895763 0.25098039 0.27450980 0.65882353
v -0.05724441 -0.03435655 -14.50069904 0.25098039 0.27450980 0.65882353
v -0.05345044 -0.03385349 -14.49752712 0.25098039 0.27450980 0.65882353
v -0.05821648 -0.02659978 -14.48800373 0.25098039 0.27450980 0.65882353
v -0.05861256 -0.03148602 -14.49241161 0.25098039 0.27450980 0.65882353
v -0.06101578 -0.02650912 -14.48878479 0.25098039 0.27450980 0.65882353
v -0.06080326 -0.03162260 -14.49366570 0.25098039 0.27450980 0.65882353
v -0.05777639 -0.03485501 -14.49575901 0.25098039 0.27450980 0.65882353
v -0.05613172 -0.03455494 -14.49530506 0.25098039 0.27450980 0.65882353
v -0.05803426 -0.01021232 -14.49320889 0.25098039 0.27450980 0.65882353
v -0.06280261 -0.01195578 -14.49058628 0.25098039 0.27450980 0.65882353
v -0.06309815 -0.01316772 -14.49201965 0.25098039 0.27450980 0.65882353
v -0.06341720 -0.02209613 -14.49767590 0.25098039 0.27450980 0.65882353
v -0.06492685 -0.01560339 -14.48840332 0.25098039 0.27450980 0.65882353
v -0.06343243 -0.01972908 -14.48581123 0.25098039 0.27450980 0.65882353
v -0.06334271 -0.02548411 -14.49007702 0.25098039 0.27450980 0.65882353
v -0.06467435 -0.02417411 -14.49362373 0.25098039 0.27450980 0.65882353
v -0.06298289 -0.03121546 -14.49413967 0.25098039 0.27450980 0.65882353
v -0.06405732 -0.02859256 -14.49567795 0.25098039 0.27450980 0.65882353
v -0.06302945 -0.02673122 -14.50005722 0.25098039 0.27450980 0.65882353
v -0.06154399 -0.03412353 -14.49755383 0.25098039 0.27450980 0.65882353
v -0.05941404 -0.03494091 -14.49664688 0.25098039 0.27450980 0.65882353
v -0.05903539 -0.03294867 -14.50105476 0.25098039 0.27450980 0.65882353
v -0.06292233 -0.03149860 -14.49806023 0.25098039 0.27450980 0.65882353
v -0.06112631 -0.03041771 -14.50105476 0.25098039 0.27450980 0.65882353
v -0.08389689 0.00551634 -14.47856522 0.25098039 0.27450980 0.65882353
v -0.08947529 0.00441757 -14.48024940 0.25098039 0.27450980 0.65882353
v -0.09041722 0.00786763 -14.48012257 0.25098039 0.27450980 0.65882353
v -0.08498254 0.00902167 -14.47846222 0.25098039 0.27450980 0.65882353
v -0.08369176 0.00537887 -14.46601009 0.25098039 0.27450980 0.65882353
v -0.08093782 0.00533451 -14.47007561 0.25098039 0.27450980 0.65882353
v -0.08193240 0.00997254 -14.46966743 0.25098039 0.27450980 0.65882353
v -0.08486316 0.01136547 -14.46518421 0.25098039 0.27450980 0.65882353
v -0.08845328 0.00287633 -14.46441364 0.25098039 0.27450980 0.65882353
v -0.09053874 0.01061621 -14.46269321 0.25098039 0.27450980 0.65882353
v -0.08595811 0.01721098 -14.46512699 0.25098039 0.27450980 0.65882353
v -0.08293591 0.01464304 -14.46997452 0.25098039 0.27450980 0.65882353
v -0.08758315 0.02865849 -14.47497082 0.25098039 0.27450980 0.65882353
v -0.09064892 0.03028443 -14.46902084 0.25098039 0.27450980 0.65882353
v -0.08142348 0.00552904 -14.47467136 0.25098039 0.27450980 0.65882353
v -0.08232138 0.00927702 -14.47461605 0.25098039 0.27450980 0.65882353
v -0.09975192 0.00916385 -14.47770023 0.25098039 0.27450980 0.65882353
v -0.09624231 0.00960216 -14.48081684 0.25098039 0.27450980 0.65882353
v -0.09546210 0.00633532 -14.47906494 0.25098039 0.27450980 0.65882353
v -0.09835343 0.00568411 -14.47608852 0.25098039 0.27450980 0.65882353
v -0.09186777 0.02755389 -14.48535252 0.25098039 0.27450980 0.65882353
v -0.09796689 0.02752472 -14.48572254 0.25098039 0.27450980 0.65882353
v -0.08820726 0.02694947 -14.48110199 0.25098039 0.27450980 0.65882353
v -0.10094444 0.00996549 -14.47136879 0.25098039 0.27450980 0.65882353
v -0.09868871 0.01333754 -14.46508789 0.25098039 0.27450980 0.65882353
v -0.10434984 0.02671275 -14.46978664 0.25098039 0.27450980 0.65882353
v -0.10606321 0.02520343 -14.47574139 0.25098039 0.27450980 0.65882353
v -0.08306424 0.01297002 -14.47511578 0.25098039 0.27450980 0.65882353
v -0.09123546 0.01113439 -14.48187160 0.25098039 0.27450980 0.65882353
v -0.08577166 0.01190232 -14.47990227 0.25098039 0.27450980 0.65882353
v -0.09205481 0.01662856 -14.46352482 0.25098039 0.27450980 0.65882353
v -0.09639603 0.00738686 -14.46523952 0.25098039 0.27450980 0.65882353
v -0.09318390 -0.01441775 -14.47196007 0.25098039 0.27450980 0.65882353
v -0.09805238 0.00133570 -14.47037792 0.25098039 0.27450980 0.65882353
v -0.09731719 0.00186464 -14.47609138 0.25098039 0.27450980 0.65882353
v -0.09403601 -0.01379727 -14.47623920 0.25098039 0.27450980 0.65882353
v -0.09934041 0.00525713 -14.47068501 0.25098039 0.27450980 0.65882353
v -0.09471475 0.00201932 -14.46577835 0.25098039 0.27450980 0.65882353
v -0.08148734 -0.00940929 -14.48159504 0.25098039 0.27450980 0.65882353
v -0.08710368 -0.01008989 -14.48231030 0.25098039 0.27450980 0.65882353
v -0.07891549 -0.00850841 -14.47806644 0.25098039 0.27450980 0.65882353
v -0.09739485 0.02991205 -14.46629429 0.25098039 0.27450980 0.65882353
v -0.10414675 0.02568482 -14.48236465 0.25098039 0.27450980 0.65882353
v -0.07885408 -0.01034600 -14.47072124 0.25098039 0.27450980 0.65882353
v -0.07787341 -0.00912565 -14.47484303 0.25098039 0.27450980 0.65882353
v -0.09452592 0.00313590 -14.47909641 0.25098039 0.27450980 0.65882353
v -0.09212938 -0.01214266 -14.48017979 0.25098039 0.27450980 0.65882353
v -0.08995022 -0.01326804 -14.46841049 0.25098039 0.27450980 0.65882353
v -0.08399449 -0.01095330 -14.46733952 0.25098039 0.27450980 0.65882353
v -0.08910735 -0.01920488 -14.47097015 0.25098039 0.27450980 0.65882353
v -0.08299869 -0.01749730 -14.47014141 0.25098039 0.27450980 0.65882353
v -0.07804511 -0.01647958 -14.47340870 0.25098039 0.27450980 0.65882353
v -0.07735884 -0.01419695 -14.47732353 0.25098039 0.27450980 0.65882353
v -0.07847658 -0.01286387 -14.48022079 0.25098039 0.27450980 0.65882353
v -0.09236795 -0.01905666 -14.47489834 0.25098039 0.27450980 0.65882353
v -0.09287921 -0.01746912 -14.47853661 0.25098039 0.27450980 0.65882353
v -0.09112866 -0.01361398 -14.48060513 0.25098039 0.27450980 0.65882353
v -0.09240422 -0.02178386 -14.47855568 0.25098039 0.27450980 0.65882353
v -0.08831090 -0.02473693 -14.47599983 0.25098039 0.27450980 0.65882353
v -0.07832609 -0.02978688 -14.48903275 0.25098039 0.27450980 0.65882353
v -0.07818826 -0.02570921 -14.48460770 0.25098039 0.27450980 0.65882353
v -0.07891740 -0.02657680 -14.48401642 0.25098039 0.27450980 0.65882353
v -0.07898572 -0.03102779 -14.48789787 0.25098039 0.27450980 0.65882353
v -0.07842310 -0.02280021 -14.47823906 0.25098039 0.27450980 0.65882353
v -0.07931805 -0.02444382 -14.47924232 0.25098039 0.27450980 0.65882353
v -0.08259861 -0.02514280 -14.47705460 0.25098039 0.27450980 0.65882353
v -0.08285569 -0.02950372 -14.48208714 0.25098039 0.27450980 0.65882353
v -0.08870226 -0.02808450 -14.48251724 0.25098039 0.27450980 0.65882353
v -0.08778889 -0.03130907 -14.48650169 0.25098039 0.27450980 0.65882353
v -0.08269693 -0.03319336 -14.48616982 0.25098039 0.27450980 0.65882353
v -0.08707559 -0.02567510 -14.47765160 0.25098039 0.27450980 0.65882353
v -0.07997072 -0.03342880 -14.48988438 0.25098039 0.27450980 0.65882353
v -0.07834913 -0.03361182 -14.49138355 0.25098039 0.27450980 0.65882353
v -0.08247481 -0.02376373 -14.47467136 0.25098039 0.27450980 0.65882353
v -0.07650471 -0.01882340 -14.48058510 0.25098039 0.27450980 0.65882353
v -0.07700951 -0.02379079 -14.48655224 0.25098039 0.27450980 0.65882353
v -0.07688145 -0.02770889 -14.49137020 0.25098039 0.27450980 0.65882353
v -0.07890840 -0.03092636 -14.49401379 0.25098039 0.27450980 0.65882353
v -0.07859172 -0.02142864 -14.48900318 0.25098039 0.27450980 0.65882353
v -0.07873233 -0.02550992 -14.49276447 0.25098039 0.27450980 0.65882353
v -0.08046123 -0.02838099 -14.49516773 0.25098039 0.27450980 0.65882353
v -0.08120489 -0.02008253 -14.49047661 0.25098039 0.27450980 0.65882353
v -0.08149725 -0.02388826 -14.49360180 0.25098039 0.27450980 0.65882353
v -0.08126087 -0.01349398 -14.48363972 0.25098039 0.27450980 0.65882353
v -0.07811175 -0.01563747 -14.48244286 0.25098039 0.27450980 0.65882353
v -0.08211537 -0.02668160 -14.49508190 0.25098039 0.27450980 0.65882353
v -0.08274528 -0.03565149 -14.49132729 0.25098039 0.27450980 0.65882353
v -0.08416983 -0.03309561 -14.49460220 0.25098039 0.27450980 0.65882353
v -0.08277647 -0.03448696 -14.48958778 0.25098039 0.27450980 0.65882353
v -0.09040000 -0.02711242 -14.48249817 0.25098039 0.27450980 0.65882353
v -0.08980848 -0.03120978 -14.48784447 0.25098039 0.27450980 0.65882353
v -0.09201615 -0.02531354 -14.48418331 0.25098039 0.27450980 0.65882353
v -0.09137438 -0.02948567 -14.48931217 0.25098039 0.27450980 0.65882353
v -0.08767822 -0.03419591 -14.49028015 0.25098039 0.27450980 0.65882353
v -0.08677585 -0.03390926 -14.48933029 0.25098039 0.27450980 0.65882353
v -0.08181565 -0.01170287 -14.48194885 0.25098039 0.27450980 0.65882353
v -0.08690812 -0.01190327 -14.48236465 0.25098039 0.27450980 0.65882353
v -0.08609267 -0.01307516 -14.48394585 0.25098039 0.27450980 0.65882353
v -0.08586016 -0.01982638 -14.49139690 0.25098039 0.27450980 0.65882353
v -0.09040214 -0.01455340 -14.48261547 0.25098039 0.27450980 0.65882353
v -0.09254178 -0.01979440 -14.48192215 0.25098039 0.27450980 0.65882353
v -0.09179340 -0.02320389 -14.48681068 0.25098039 0.27450980 0.65882353
v -0.08989388 -0.02146932 -14.48974037 0.25098039 0.27450980 0.65882353
v -0.09121422 -0.02724256 -14.49102211 0.25098039 0.27450980 0.65882353
v -0.08958861 -0.02499917 -14.49188614 0.25098039 0.27450980 0.65882353
v -0.08559327 -0.02345006 -14.49435806 0.25098039 0.27450980 0.65882353
v -0.08866489 -0.02974258 -14.49331856 0.25098039 0.27450980 0.65882353
v -0.08888601 -0.03249398 -14.49216175 0.25098039 0.27450980 0.65882353
v -0.08466649 -0.02997446 -14.49560738 0.25098039 0.27450980 0.65882353
v -0.08813402 -0.02734961 -14.49397564 0.25098039 0.27450980 0.65882353
v -0.08507334 -0.02737908 -14.49562931 0.25098039 0.27450980 0.65882353
v -0.10206597 0.02673249 -14.48507309 0.25098039 0.27450980 0.65882353
v -0.12016225 0.00522017 -14.48701382 0.25098039 0.27450980 0.65882353
v -0.12378867 0.00557727 -14.48878670 0.25098039 0.27450980 0.65882353
v -0.12457351 0.00890177 -14.48781109 0.25098039 0.27450980 0.65882353
v -0.12070766 0.00945865 -14.48678589 0.25098039 0.27450980 0.65882353
v -0.12075998 0.00450161 -14.47610474 0.25098039 0.27450980 0.65882353
v -0.11840831 0.00423820 -14.47987270 0.25098039 0.27450980 0.65882353
v -0.11816597 0.00902813 -14.47868061 0.25098039 0.27450980 0.65882353
v -0.12043570 0.00938438 -14.47492886 0.25098039 0.27450980 0.65882353
v -0.12545320 0.00447270 -14.47473335 0.25098039 0.27450980 0.65882353
v -0.12550917 0.00921068 -14.47377300 0.25098039 0.27450980 0.65882353
v -0.12016502 0.01307748 -14.47433090 0.25098039 0.27450980 0.65882353
v -0.11776044 0.01289178 -14.47845840 0.25098039 0.27450980 0.65882353
v -0.11654219 0.02905319 -14.47990322 0.25098039 0.27450980 0.65882353
v -0.11982504 0.03136010 -14.47587490 0.25098039 0.27450980 0.65882353
v -0.13455175 0.03309619 -14.48728752 0.25098039 0.27450980 0.65882353
v -0.13057995 0.03376663 -14.49247551 0.25098039 0.27450980 0.65882353
v -0.13025010 0.02535895 -14.48931599 0.25098039 0.27450980 0.65882353
v -0.13354999 0.02648244 -14.48541164 0.25098039 0.27450980 0.65882353
v -0.11847211 0.00462090 -14.48372936 0.25098039 0.27450980 0.65882353
v -0.11817259 0.00909938 -14.48362064 0.25098039 0.27450980 0.65882353
v -0.13312854 0.01297304 -14.48437786 0.25098039 0.27450980 0.65882353
v -0.12965369 0.01246308 -14.48744965 0.25098039 0.27450980 0.65882353
v -0.12856756 0.00915248 -14.48795414 0.25098039 0.27450980 0.65882353
v -0.13242382 0.00867371 -14.48563194 0.25098039 0.27450980 0.65882353
v -0.12501661 0.03241365 -14.49357796 0.25098039 0.27450980 0.65882353
v -0.12012777 0.03176520 -14.49226093 0.25098039 0.27450980 0.65882353
v -0.12015211 0.02725530 -14.49135971 0.25098039 0.27450980 0.65882353
v -0.12549436 0.02453646 -14.49081421 0.25098039 0.27450980 0.65882353
v -0.11642598 0.02696019 -14.48732662 0.25098039 0.27450980 0.65882353
v -0.13390714 0.01296425 -14.48043823 0.25098039 0.27450980 0.65882353
v -0.13150340 0.01297600 -14.47521687 0.25098039 0.27450980 0.65882353
v -0.13354991 0.03003689 -14.47618198 0.25098039 0.27450980 0.65882353
v -0.13467443 0.02911466 -14.48073196 0.25098039 0.27450980 0.65882353
v -0.11772049 0.01202790 -14.48291397 0.25098039 0.27450980 0.65882353
v -0.12534125 0.01197273 -14.48801327 0.25098039 0.27450980 0.65882353
v -0.12100329 0.01176444 -14.48677444 0.25098039 0.27450980 0.65882353
v -0.12565827 0.01312544 -14.47268867 0.25098039 0.27450980 0.65882353
v -0.13106982 0.00853466 -14.47626686 0.25098039 0.27450980 0.65882353
v -0.13299799 -0.00449822 -14.48493767 0.25098039 0.27450980 0.65882353
v -0.13352235 0.00482802 -14.48235893 0.25098039 0.27450980 0.65882353
v -0.13191810 0.00512572 -14.48690510 0.25098039 0.27450980 0.65882353
v -0.13213794 -0.00390591 -14.48774624 0.25098039 0.27450980 0.65882353
v -0.13346320 0.00859313 -14.48130322 0.25098039 0.27450980 0.65882353
v -0.13108151 0.00403178 -14.47740555 0.25098039 0.27450980 0.65882353
v -0.12013955 -0.00349005 -14.48919487 0.25098039 0.27450980 0.65882353
v -0.12505768 -0.00265727 -14.49073219 0.25098039 0.27450980 0.65882353
v -0.11852048 -0.00410244 -14.48649502 0.25098039 0.27450980 0.65882353
v -0.12635288 0.03128988 -14.47335339 0.25098039 0.27450980 0.65882353
v -0.12077662 -0.00560434 -14.47956276 0.25098039 0.27450980 0.65882353
v -0.11839042 -0.00539025 -14.48319530 0.25098039 0.27450980 0.65882353
v -0.12782641 0.00545855 -14.48885345 0.25098039 0.27450980 0.65882353
v -0.12935710 -0.00293953 -14.48994732 0.25098039 0.27450980 0.65882353
v -0.13131812 -0.00525719 -14.48103428 0.25098039 0.27450980 0.65882353
v -0.12604660 -0.00528589 -14.47789288 0.25098039 0.27450980 0.65882353
v -0.13067099 -0.00996824 -14.48326588 0.25098039 0.27450980 0.65882353
v -0.12529564 -0.00980236 -14.48007011 0.25098039 0.27450980 0.65882353
v -0.11984649 -0.00971235 -14.48236942 0.25098039 0.27450980 0.65882353
v -0.11833126 -0.00789294 -14.48528099 0.25098039 0.27450980 0.65882353
v -0.11841555 -0.00651595 -14.48812485 0.25098039 0.27450980 0.65882353
v -0.13248739 -0.00849782 -14.48707581 0.25098039 0.27450980 0.65882353
v -0.13171226 -0.00715087 -14.48970127 0.25098039 0.27450980 0.65882353
v -0.12915656 -0.00520708 -14.49153042 0.25098039 0.27450980 0.65882353
v -0.13181582 -0.01223083 -14.48952675 0.25098039 0.27450980 0.65882353
v -0.12930864 -0.01527034 -14.48686886 0.25098039 0.27450980 0.65882353
v -0.11908718 -0.02003619 -14.49442768 0.25098039 0.27450980 0.65882353
v -0.11894412 -0.01694821 -14.49151993 0.25098039 0.27450980 0.65882353
v -0.11971195 -0.01764935 -14.49081421 0.25098039 0.27450980 0.65882353
v -0.11921037 -0.02081938 -14.49355698 0.25098039 0.27450980 0.65882353
v -0.11973906 -0.01417699 -14.48674965 0.25098039 0.27450980 0.65882353
v -0.12072597 -0.01552239 -14.48724747 0.25098039 0.27450980 0.65882353
v -0.12394884 -0.01522106 -14.48570633 0.25098039 0.27450980 0.65882353
v -0.12338841 -0.01921703 -14.48937225 0.25098039 0.27450980 0.65882353
v -0.12846689 -0.01910493 -14.49117661 0.25098039 0.27450980 0.65882353
v -0.12742773 -0.02227588 -14.49386406 0.25098039 0.27450980 0.65882353
v -0.12310024 -0.02225524 -14.49181938 0.25098039 0.27450980 0.65882353
v -0.12774864 -0.01661812 -14.48725605 0.25098039 0.27450980 0.65882353
v -0.11978956 -0.02332477 -14.49475384 0.25098039 0.27450980 0.65882353
v -0.11919816 -0.02381070 -14.49602699 0.25098039 0.27450980 0.65882353
v -0.12416051 -0.01413985 -14.48394585 0.25098039 0.27450980 0.65882353
v -0.11791175 -0.01099554 -14.48869705 0.25098039 0.27450980 0.65882353
v -0.11786795 -0.01605366 -14.49363041 0.25098039 0.27450980 0.65882353
v -0.11830597 -0.02019677 -14.49673843 0.25098039 0.27450980 0.65882353
v -0.11988320 -0.02340925 -14.49829578 0.25098039 0.27450980 0.65882353
v -0.11835381 -0.01387562 -14.49514580 0.25098039 0.27450980 0.65882353
v -0.11863081 -0.01878342 -14.49873829 0.25098039 0.27450980 0.65882353
v -0.12044153 -0.02171095 -14.50019932 0.25098039 0.27450980 0.65882353
v -0.12031319 -0.01185629 -14.49712658 0.25098039 0.27450980 0.65882353
v -0.12050292 -0.01699950 -14.49981499 0.25098039 0.27450980 0.65882353
v -0.12083865 -0.00658759 -14.49286747 0.25098039 0.27450980 0.65882353
v -0.11863877 -0.00863067 -14.49096203 0.25098039 0.27450980 0.65882353
v -0.12136818 -0.02000368 -14.50043011 0.25098039 0.27450980 0.65882353
v -0.12263601 -0.02554721 -14.49586391 0.25098039 0.27450980 0.65882353
v -0.12299909 -0.02451760 -14.49874592 0.25098039 0.27450980 0.65882353
v -0.12292703 -0.02497125 -14.49446678 0.25098039 0.27450980 0.65882353
v -0.12967885 -0.01852797 -14.49181461 0.25098039 0.27450980 0.65882353
v -0.12851976 -0.02228899 -14.49520588 0.25098039 0.27450980 0.65882353
v -0.13081899 -0.01700333 -14.49357986 0.25098039 0.27450980 0.65882353
v -0.12887435 -0.02121100 -14.49714375 0.25098039 0.27450980 0.65882353
v -0.12628880 -0.02485232 -14.49655056 0.25098039 0.27450980 0.65882353
v -0.12560865 -0.02434149 -14.49472427 0.25098039 0.27450980 0.65882353
v -0.12069858 -0.00527190 -14.49126434 0.25098039 0.27450980 0.65882353
v -0.12483293 -0.00451823 -14.49190426 0.25098039 0.27450980 0.65882353
v -0.12506703 -0.00610268 -14.49359989 0.25098039 0.27450980 0.65882353
v -0.12414120 -0.01116764 -14.49800301 0.25098039 0.27450980 0.65882353
v -0.12924002 -0.00714397 -14.49312782 0.25098039 0.27450980 0.65882353
v -0.13145131 -0.00970043 -14.49140167 0.25098039 0.27450980 0.65882353
v -0.13028556 -0.01498879 -14.49554729 0.25098039 0.27450980 0.65882353
v -0.12829491 -0.01287620 -14.49745178 0.25098039 0.27450980 0.65882353
v -0.12822708 -0.01989613 -14.49892139 0.25098039 0.27450980 0.65882353
v -0.12657988 -0.01761234 -14.50026989 0.25098039 0.27450980 0.65882353
v -0.12357787 -0.01630716 -14.50075054 0.25098039 0.27450980 0.65882353
v -0.12550551 -0.02240838 -14.49993992 0.25098039 0.27450980 0.65882353
v -0.12605193 -0.02393839 -14.49879646 0.25098039 0.27450980 0.65882353
v -0.12320633 -0.02269801 -14.50016117 0.25098039 0.27450980 0.65882353
v -0.12490292 -0.02060720 -14.50075531 0.25098039 0.27450980 0.65882353
v -0.12327591 -0.02025762 -14.50081062 0.25098039 0.27450980 0.65882353
v -0.13494739 0.03236374 -14.48306370 0.25098039 0.27450980 0.65882353
v -0.07021104 0.06263857 -14.55972099 0.25098039 0.27450980 0.65882353
v -0.07162483 0.05944233 -14.55516243 0.25098039 0.27450980 0.65882353
v -0.08463643 0.05103992 -14.56063366 0.25098039 0.27450980 0.65882353
v -0.07985738 0.05139086 -14.55543804 0.25098039 0.27450980 0.65882353
v -0.08612861 0.05303821 -14.56681538 0.25098039 0.27450980 0.65882353
v -0.08140256 0.06113343 -14.57200432 0.25098039 0.27450980 0.65882353
v -0.08531632 0.05760615 -14.57023335 0.25098039 0.27450980 0.65882353
v -0.07517122 0.05462302 -14.55364799 0.25098039 0.27450980 0.65882353
v -0.07126726 0.06501905 -14.56496906 0.25098039 0.27450980 0.65882353
v -0.07597426 0.06491285 -14.57035637 0.25098039 0.27450980 0.65882353
v -0.06577943 0.05918699 -14.56801891 0.25098039 0.27450980 0.65882353
v -0.07084765 0.05847818 -14.57386303 0.25098039 0.27450980 0.65882353
v -0.07628156 0.05456167 -14.57598591 0.25098039 0.27450980 0.65882353
v -0.08142480 0.05121885 -14.57307434 0.25098039 0.27450980 0.65882353
v -0.08328801 0.04835645 -14.56956196 0.25098039 0.27450980 0.65882353
v -0.06681500 0.05703171 -14.56119728 0.25098039 0.27450980 0.65882353
v -0.06893119 0.05400855 -14.55684566 0.25098039 0.27450980 0.65882353
v -0.07398605 0.05014817 -14.55529785 0.25098039 0.27450980 0.65882353
v -0.06354716 0.04946511 -14.56153584 0.25098039 0.27450980 0.65882353
v -0.06089966 0.04224706 -14.56824398 0.25098039 0.27450980 0.65882353
v -0.06724627 0.02773265 -14.57839775 0.25098039 0.27450980 0.65882353
v -0.07075086 0.03345758 -14.57745838 0.25098039 0.27450980 0.65882353
v -0.06789404 0.03407137 -14.57750416 0.25098039 0.27450980 0.65882353
v -0.06491263 0.02902612 -14.57898808 0.25098039 0.27450980 0.65882353
v -0.07071768 0.03897066 -14.57709312 0.25098039 0.27450980 0.65882353
v -0.06855251 0.03807291 -14.57640171 0.25098039 0.27450980 0.65882353
v -0.06488454 0.04062529 -14.57369995 0.25098039 0.27450980 0.65882353
v -0.06216791 0.03601711 -14.57534313 0.25098039 0.27450980 0.65882353
v -0.06158136 0.04011551 -14.56998634 0.25098039 0.27450980 0.65882353
v -0.05970033 0.03656255 -14.56963634 0.25098039 0.27450980 0.65882353
v -0.05962615 0.03131133 -14.57637024 0.25098039 0.27450980 0.65882353
v -0.06146368 0.02678771 -14.57946682 0.25098039 0.27450980 0.65882353
v -0.05764744 0.02701882 -14.57704258 0.25098039 0.27450980 0.65882353
v -0.06308720 0.02438598 -14.57817841 0.25098039 0.27450980 0.65882353
v -0.06393167 0.04259010 -14.57515144 0.25098039 0.27450980 0.65882353
v -0.07704012 0.04222993 -14.57562828 0.25098039 0.27450980 0.65882353
v -0.07426618 0.03365514 -14.57566071 0.25098039 0.27450980 0.65882353
v -0.06998171 0.02688928 -14.57584095 0.25098039 0.27450980 0.65882353
v -0.06476961 0.02328711 -14.57557774 0.25098039 0.27450980 0.65882353
v -0.07649557 0.03316817 -14.57170391 0.25098039 0.27450980 0.65882353
v -0.07170710 0.02732049 -14.57160759 0.25098039 0.27450980 0.65882353
v -0.06665091 0.02436627 -14.57084846 0.25098039 0.27450980 0.65882353
v -0.07619448 0.03313514 -14.56688595 0.25098039 0.27450980 0.65882353
v -0.07124940 0.02812027 -14.56769753 0.25098039 0.27450980 0.65882353
v -0.08134942 0.04454726 -14.56457996 0.25098039 0.27450980 0.65882353
v -0.08130936 0.04360978 -14.57087326 0.25098039 0.27450980 0.65882353
v -0.06751771 0.02585718 -14.56847095 0.25098039 0.27450980 0.65882353
v -0.05725531 0.02452372 -14.57611847 0.25098039 0.27450980 0.65882353
v -0.05926245 0.02335303 -14.57289219 0.25098039 0.27450980 0.65882353
v -0.05915102 0.03745311 -14.56620026 0.25098039 0.27450980 0.65882353
v -0.05666853 0.03242344 -14.57090664 0.25098039 0.27450980 0.65882353
v -0.05691044 0.03198878 -14.56769085 0.25098039 0.27450980 0.65882353
v -0.06041279 0.03842445 -14.56234932 0.25098039 0.27450980 0.65882353
v -0.05779271 0.03144522 -14.56480885 0.25098039 0.27450980 0.65882353
v -0.05553295 0.02755821 -14.57108116 0.25098039 0.27450980 0.65882353
v -0.05593164 0.02921575 -14.57342720 0.25098039 0.27450980 0.65882353
v -0.08301227 0.04758123 -14.56344032 0.25098039 0.27450980 0.65882353
v -0.07945980 0.04853214 -14.55791569 0.25098039 0.27450980 0.65882353
v -0.07760516 0.04588338 -14.55909729 0.25098039 0.27450980 0.65882353
v -0.07297042 0.03506236 -14.56163025 0.25098039 0.27450980 0.65882353
v -0.07220149 0.04655585 -14.55632019 0.25098039 0.27450980 0.65882353
v -0.06662369 0.04820991 -14.55795097 0.25098039 0.27450980 0.65882353
v -0.06310020 0.03772854 -14.55959511 0.25098039 0.27450980 0.65882353
v -0.06780797 0.03659237 -14.55888748 0.25098039 0.27450980 0.65882353
v -0.06090543 0.03062395 -14.56281662 0.25098039 0.27450980 0.65882353
v -0.06401742 0.03012913 -14.56249523 0.25098039 0.27450980 0.65882353
v -0.06842554 0.02863768 -14.56432819 0.25098039 0.27450980 0.65882353
v -0.06023969 0.02662943 -14.56618023 0.25098039 0.27450980 0.65882353
v -0.05707522 0.02676323 -14.56811905 0.25098039 0.27450980 0.65882353
v -0.06229874 0.02424330 -14.56914234 0.25098039 0.27450980 0.65882353
v -0.06287420 0.02747915 -14.56511879 0.25098039 0.27450980 0.65882353
v -0.06487857 0.02607747 -14.56692886 0.25098039 0.27450980 0.65882353
v -0.13272233 0.03805449 -14.49349117 0.25098039 0.27450980 0.65882353
v -0.12658955 0.03762981 -14.49604893 0.25098039 0.27450980 0.65882353
v -0.13120899 0.04189772 -14.49791813 0.25098039 0.27450980 0.65882353
v -0.13614994 0.04914573 -14.50134277 0.25098039 0.27450980 0.65882353
v -0.14472786 0.05603627 -14.50119972 0.25098039 0.27450980 0.65882353
v -0.13005339 0.05075657 -14.50370502 0.25098039 0.27450980 0.65882353
v -0.12523688 0.04328074 -14.49962044 0.25098039 0.27450980 0.65882353
v -0.11884400 0.03671267 -14.49580956 0.25098039 0.27450980 0.65882353
v -0.12761624 0.05939493 -14.50856876 0.25098039 0.27450980 0.65882353
f 2 3 1
f 1 3 4
f 5 6 8
f 8 6 7
f 9 4 10
f 10 4 3
f 12 13 11
f 11 13 9
f 14 12 16
f 16 12 15
f 18 19 17
f 17 19 20
f 22 23 21
f 21 23 24
f 26 27 25
f 25 27 28
f 30 31 29
f 29 31 32
f 33 34 36
f 36 34 35
f 37 38 40
f 40 38 39
f 41 42 6
f 6 42 43
f 6 43 7
f 7 43 44
f 45 34 46
f 46 34 33
f 48 49 47
f 47 49 50
f 52 53 51
f 51 53 54
f 56 52 55
f 55 52 51
f 58 59 57
f 57 59 60
f 61 62 4
f 4 62 1
f 64 65 63
f 63 65 66
f 68 69 67
f 67 69 70
f 72 73 71
f 71 73 74
f 76 77 75
f 75 77 78
f 53 79 54
f 54 79 80
f 82 83 81
f 81 83 84
f 85 86 52
f 52 86 53
f 57 60 87
f 87 60 88
f 89 90 43
f 43 90 44
f 43 42 89
f 89 42 91
f 40 39 92
f 92 39 93
f 94 70 64
f 64 70 69
f 13 61 9
f 9 61 4
f 25 28 69
f 69 28 95
f 96 25 68
f 68 25 69
f 98 99 97
f 97 99 100
f 101 102 104
f 104 102 103
f 106 30 105
f 105 30 29
f 51 54 107
f 107 54 108
f 54 80 108
f 108 80 109
f 111 112 110
f 110 112 113
f 115 5 114
f 114 5 116
f 115 41 5
f 5 41 6
f 36 35 111
f 111 35 117
f 35 118 117
f 117 118 119
f 34 120 35
f 35 120 118
f 34 45 120
f 120 45 121
f 125 126 124
f 124 126 127
f 128 129 14
f 14 129 130
f 33 131 46
f 46 131 132
f 133 94 63
f 63 94 64
f 134 135 137
f 137 135 136
f 139 140 138
f 138 140 141
f 77 142 78
f 78 142 143
f 144 145 20
f 20 145 146
f 148 149 147
f 147 149 72
f 151 152 150
f 150 152 153
f 82 101 83
f 83 101 104
f 101 82 155
f 155 82 154
f 156 157 58
f 58 157 59
f 158 68 147
f 147 68 67
f 159 146 15
f 15 146 16
f 68 158 96
f 96 158 160
f 129 66 130
f 130 66 65
f 162 163 161
f 161 163 164
f 166 167 165
f 165 167 168
f 170 171 169
f 169 171 172
f 174 171 173
f 173 171 170
f 176 177 175
f 175 177 178
f 180 181 179
f 179 181 24
f 182 183 21
f 21 183 184
f 81 185 82
f 82 185 154
f 186 187 188
f 188 187 144
f 158 71 160
f 160 71 189
f 190 135 157
f 157 135 59
f 169 172 139
f 139 172 140
f 147 72 158
f 158 72 71
f 192 193 191
f 191 193 194
f 167 166 49
f 49 166 195
f 196 190 50
f 50 190 157
f 197 198 200
f 200 198 199
f 21 24 182
f 182 24 181
f 146 159 20
f 20 159 17
f 182 181 81
f 81 181 185
f 201 185 180
f 180 185 181
f 202 203 83
f 83 203 84
f 205 206 204
f 204 206 85
f 207 22 184
f 184 22 21
f 179 24 208
f 208 24 23
f 208 209 179
f 179 209 205
f 209 210 205
f 205 210 206
f 212 206 211
f 211 206 210
f 179 205 180
f 180 205 204
f 213 176 88
f 88 176 214
f 86 85 212
f 212 85 206
f 193 217 218
f 217 219 218
f 218 219 220
f 219 18 220
f 220 18 17
f 19 221 20
f 20 221 144
f 222 223 225
f 225 223 224
f 175 226 176
f 176 226 214
f 227 87 214
f 214 87 88
f 220 17 228
f 228 17 159
f 134 213 60
f 60 213 88
f 138 229 151
f 151 229 152
f 193 192 210
f 210 192 211
f 230 194 218
f 218 194 193
f 231 232 228
f 228 232 230
f 233 234 91
f 91 234 89
f 235 236 93
f 93 236 92
f 230 232 234
f 234 232 237
f 47 238 48
f 48 238 239
f 240 191 235
f 235 191 236
f 5 8 116
f 116 8 241
f 242 243 189
f 189 243 160
f 244 245 98
f 98 245 99
f 156 246 47
f 47 246 238
f 76 247 77
f 77 247 248
f 250 125 249
f 249 125 124
f 252 253 251
f 251 253 254
f 111 110 36
f 36 110 255
f 256 33 255
f 255 33 36
f 257 258 154
f 154 258 155
f 63 169 133
f 133 169 139
f 66 170 63
f 63 170 169
f 173 170 129
f 129 170 66
f 129 128 173
f 173 128 259
f 128 260 259
f 259 260 261
f 213 134 262
f 262 134 137
f 263 264 186
f 186 264 187
f 112 265 113
f 113 265 266
f 11 267 268
f 234 233 230
f 230 233 194
f 153 269 70
f 70 269 67
f 175 178 165
f 165 178 141
f 150 153 94
f 94 153 70
f 271 221 270
f 270 221 207
f 269 153 272
f 272 153 152
f 121 45 109
f 109 45 108
f 47 50 156
f 156 50 157
f 57 273 58
f 58 273 274
f 145 275 260
f 260 275 261
f 276 149 143
f 143 149 78
f 148 269 75
f 75 269 272
f 207 277 270
f 270 277 278
f 195 196 49
f 49 196 50
f 59 135 60
f 60 135 134
f 83 104 202
f 202 104 279
f 149 148 78
f 78 148 75
f 247 278 248
f 248 278 277
f 183 182 84
f 84 182 81
f 48 239 281
f 281 239 282
f 227 223 283
f 283 223 222
f 223 226 224
f 224 226 168
f 281 282 224
f 224 282 225
f 165 168 175
f 175 168 226
f 264 263 138
f 138 263 229
f 14 16 128
f 128 16 260
f 220 228 218
f 218 228 230
f 87 227 284
f 284 227 283
f 260 16 145
f 145 16 146
f 244 98 258
f 258 98 155
f 58 274 156
f 156 274 246
f 107 285 51
f 51 285 55
f 243 286 160
f 160 286 96
f 234 237 89
f 89 237 90
f 46 132 107
f 107 132 285
f 253 252 249
f 249 252 250
f 286 26 96
f 96 26 25
f 106 105 287
f 287 105 288
f 272 152 289
f 289 152 229
f 138 151 139
f 139 151 133
f 183 290 161
f 161 290 162
f 291 292 277
f 277 292 293
f 151 150 133
f 133 150 94
f 262 275 177
f 177 275 187
f 144 187 145
f 145 187 275
f 273 57 284
f 284 57 87
f 174 136 190
f 190 136 135
f 111 117 112
f 112 117 38
f 117 119 38
f 38 119 123
f 112 38 265
f 265 38 37
f 287 288 254
f 254 288 251
f 228 159 231
f 231 159 15
f 223 227 226
f 226 227 214
f 147 67 148
f 148 67 269
f 224 168 281
f 281 168 167
f 199 163 200
f 200 163 162
f 45 46 108
f 108 46 107
f 281 167 48
f 48 167 49
f 161 164 291
f 291 164 292
f 38 123 39
f 293 294 277
f 277 294 248
f 284 283 296
f 296 283 295
f 284 296 273
f 273 296 297
f 274 273 298
f 298 273 297
f 246 274 299
f 299 274 298
f 283 222 295
f 295 222 300
f 222 225 300
f 300 225 301
f 301 225 302
f 302 225 282
f 303 304 300
f 300 304 295
f 306 307 305
f 305 307 308
f 309 310 308
f 308 310 305
f 308 307 312
f 312 307 311
f 313 314 312
f 312 314 315
f 311 316 312
f 312 316 313
f 317 304 311
f 311 304 316
f 315 309 312
f 312 309 308
f 318 319 321
f 321 319 320
f 319 318 309
f 309 318 310
f 311 307 317
f 317 307 306
f 306 297 317
f 317 297 296
f 306 322 297
f 297 322 298
f 305 323 306
f 306 323 322
f 323 305 324
f 324 305 310
f 304 317 295
f 295 317 296
f 318 325 310
f 310 325 324
f 323 324 326
f 326 324 327
f 324 325 327
f 327 325 328
f 326 327 329
f 329 327 330
f 329 331 326
f 326 331 332
f 333 330 328
f 328 330 327
f 323 326 322
f 322 326 332
f 322 332 298
f 298 332 299
f 325 318 334
f 334 318 321
f 313 316 335
f 335 316 304
f 335 336 313
f 313 336 314
f 304 303 335
f 335 303 337
f 336 335 338
f 338 335 337
f 336 339 314
f 314 339 340
f 246 299 238
f 238 299 341
f 239 342 282
f 282 342 302
f 342 239 341
f 341 239 238
f 341 331 342
f 342 331 343
f 331 329 343
f 343 329 344
f 342 343 302
f 302 343 345
f 341 299 331
f 331 299 332
f 346 301 345
f 345 301 302
f 346 303 301
f 301 303 300
f 347 337 346
f 346 337 303
f 347 346 348
f 348 346 345
f 349 347 350
f 350 347 348
f 343 344 345
f 345 344 348
f 344 351 348
f 348 351 350
f 337 347 338
f 338 347 349
f 353 338 352
f 352 338 349
f 352 355 354
f 354 355 356
f 352 349 355
f 355 349 350
f 352 354 353
f 353 354 334
f 353 334 339
f 339 334 321
f 339 336 353
f 353 336 338
f 329 330 344
f 344 330 351
f 356 351 333
f 333 351 330
f 356 355 351
f 351 355 350
f 354 356 328
f 328 356 333
f 328 325 354
f 354 325 334
f 309 315 319
f 319 315 320
f 320 340 321
f 321 340 339
f 320 315 340
f 340 315 314
f 137 136 261
f 261 136 259
f 140 166 141
f 141 166 165
f 172 171 195
f 195 171 196
f 171 174 196
f 196 174 190
f 178 177 264
f 264 177 187
f 172 195 140
f 140 195 166
f 137 261 262
f 262 261 275
f 178 264 141
f 141 264 138
f 262 177 213
f 213 177 176
f 136 174 259
f 259 174 173
f 358 359 357
f 357 359 360
f 362 363 361
f 361 363 364
f 361 364 365
f 365 364 366
f 367 368 370
f 370 368 369
f 76 371 247
f 247 371 372
f 373 374 362
f 362 374 363
f 376 377 375
f 375 377 378
f 289 229 380
f 380 229 379
f 381 379 263
f 263 379 229
f 383 384 382
f 382 384 385
f 386 368 374
f 374 368 363
f 76 289 371
f 371 289 380
f 377 376 359
f 359 376 387
f 388 386 360
f 360 386 374
f 389 383 366
f 366 383 390
f 392 393 391
f 391 393 394
f 383 382 390
f 390 382 395
f 396 365 390
f 390 365 366
f 389 366 367
f 367 366 364
f 357 397 358
f 358 397 398
f 373 399 357
f 357 399 397
f 389 367 400
f 400 367 370
f 382 385 375
f 375 385 372
f 357 360 373
f 373 360 374
f 361 401 362
f 362 401 402
f 387 388 359
f 359 388 360
f 363 368 364
f 364 368 367
f 358 398 403
f 403 398 404
f 396 392 405
f 405 392 391
f 392 395 393
f 393 395 378
f 393 403 394
f 394 403 404
f 375 378 382
f 382 378 395
f 365 396 406
f 406 396 405
f 362 402 373
f 373 402 399
f 271 270 400
f 400 270 384
f 401 361 406
f 406 361 365
f 381 369 386
f 386 369 368
f 392 396 395
f 395 396 390
f 393 378 403
f 403 378 377
f 403 377 358
f 358 377 359
f 406 405 408
f 408 405 407
f 406 408 401
f 401 408 409
f 401 409 402
f 402 409 410
f 402 410 399
f 399 410 411
f 405 391 407
f 407 391 412
f 391 394 412
f 412 394 413
f 394 404 413
f 413 404 414
f 415 416 412
f 412 416 407
f 418 419 417
f 417 419 420
f 421 422 418
f 418 422 419
f 419 422 424
f 424 422 423
f 425 426 424
f 424 426 427
f 423 428 424
f 424 428 425
f 427 420 424
f 424 420 419
f 420 429 417
f 417 429 430
f 423 422 431
f 431 422 421
f 421 409 431
f 431 409 408
f 421 432 409
f 409 432 410
f 418 433 421
f 421 433 432
f 434 433 417
f 417 433 418
f 431 416 423
f 423 416 428
f 416 431 407
f 407 431 408
f 435 434 430
f 430 434 417
f 433 434 436
f 436 434 437
f 434 435 437
f 437 435 438
f 436 437 439
f 439 437 440
f 439 441 436
f 436 441 442
f 438 443 437
f 437 443 440
f 436 442 433
f 433 442 432
f 432 442 410
f 410 442 411
f 435 430 445
f 445 430 444
f 430 429 444
f 444 429 446
f 425 428 447
f 447 428 416
f 426 425 448
f 448 425 447
f 416 415 447
f 447 415 449
f 447 449 448
f 448 449 450
f 451 452 448
f 448 452 426
f 446 452 444
f 444 452 451
f 399 411 397
f 397 411 453
f 398 454 404
f 404 454 414
f 454 398 453
f 453 398 397
f 453 441 454
f 454 441 455
f 441 439 455
f 455 439 456
f 454 455 414
f 414 455 457
f 441 453 442
f 442 453 411
f 458 413 457
f 457 413 414
f 458 415 413
f 413 415 412
f 458 459 415
f 415 459 449
f 459 458 460
f 460 458 457
f 461 459 462
f 462 459 460
f 455 456 457
f 457 456 460
f 456 463 460
f 460 463 462
f 459 461 449
f 449 461 450
f 465 450 464
f 464 450 461
f 464 467 466
f 466 467 468
f 464 461 467
f 467 461 462
f 464 466 465
f 465 466 445
f 465 445 451
f 451 445 444
f 451 448 465
f 465 448 450
f 439 440 456
f 456 440 463
f 468 463 443
f 443 463 440
f 468 467 463
f 463 467 462
f 466 468 438
f 438 468 443
f 438 435 466
f 466 435 445
f 420 427 429
f 429 427 446
f 446 427 452
f 452 427 426
f 370 369 188
f 188 369 186
f 371 376 372
f 372 376 375
f 380 379 387
f 387 379 388
f 379 381 388
f 388 381 386
f 385 384 278
f 278 384 270
f 380 387 371
f 371 387 376
f 400 370 271
f 271 370 188
f 385 278 372
f 372 278 247
f 400 384 389
f 389 384 383
f 369 381 186
f 186 381 263
f 221 271 144
f 144 271 188
f 221 19 207
f 207 19 22
f 19 18 22
f 22 18 23
f 18 219 23
f 23 219 208
f 469 470 472
f 472 470 471
f 474 475 473
f 473 475 476
f 473 476 477
f 477 476 478
f 480 481 479
f 479 481 482
f 483 484 474
f 474 484 475
f 486 487 485
f 485 487 488
f 489 490 77
f 77 490 142
f 491 489 248
f 248 489 77
f 493 494 492
f 492 494 495
f 496 480 484
f 484 480 475
f 486 497 487
f 487 497 471
f 498 496 472
f 472 496 484
f 499 493 478
f 478 493 500
f 501 502 504
f 504 502 503
f 493 492 500
f 500 492 505
f 506 477 500
f 500 477 478
f 499 478 479
f 479 478 476
f 469 507 470
f 470 507 508
f 483 509 469
f 469 509 507
f 479 482 499
f 499 482 510
f 492 495 485
f 485 495 511
f 483 469 484
f 484 469 472
f 473 512 474
f 474 512 513
f 497 498 471
f 471 498 472
f 475 480 476
f 476 480 479
f 470 508 514
f 514 508 515
f 506 502 516
f 516 502 501
f 503 502 488
f 488 502 505
f 514 515 503
f 503 515 504
f 485 488 492
f 492 488 505
f 477 506 517
f 517 506 516
f 474 513 483
f 483 513 509
f 510 292 494
f 494 292 164
f 512 473 517
f 517 473 477
f 491 481 496
f 496 481 480
f 502 506 505
f 505 506 500
f 503 488 514
f 514 488 487
f 514 487 470
f 470 487 471
f 517 516 519
f 519 516 518
f 517 519 512
f 512 519 520
f 512 520 513
f 513 520 521
f 513 521 509
f 509 521 522
f 516 501 518
f 518 501 523
f 501 504 523
f 523 504 524
f 524 504 525
f 525 504 515
f 526 527 523
f 523 527 518
f 529 530 528
f 528 530 531
f 532 533 529
f 529 533 530
f 530 533 535
f 535 533 534
f 536 537 535
f 535 537 538
f 534 539 535
f 535 539 536
f 538 531 535
f 535 531 530
f 540 541 531
f 531 541 528
f 533 532 534
f 534 532 542
f 532 520 542
f 542 520 519
f 532 543 520
f 520 543 521
f 529 544 532
f 532 544 543
f 544 529 545
f 545 529 528
f 534 542 539
f 539 542 527
f 527 542 518
f 518 542 519
f 541 546 528
f 528 546 545
f 547 544 548
f 548 544 545
f 546 549 545
f 545 549 548
f 550 547 551
f 551 547 548
f 547 550 553
f 553 550 552
f 549 554 548
f 548 554 551
f 544 547 543
f 543 547 553
f 543 553 521
f 521 553 522
f 546 541 556
f 556 541 555
f 541 540 555
f 555 540 557
f 536 539 558
f 558 539 527
f 537 536 559
f 559 536 558
f 527 526 558
f 558 526 560
f 559 558 561
f 561 558 560
f 559 562 537
f 537 562 563
f 557 563 555
f 555 563 562
f 509 522 507
f 507 522 564
f 508 565 515
f 515 565 525
f 565 508 564
f 564 508 507
f 564 552 565
f 565 552 566
f 552 550 566
f 566 550 567
f 565 566 525
f 525 566 568
f 564 522 552
f 552 522 553
f 569 524 568
f 568 524 525
f 569 526 524
f 524 526 523
f 570 560 569
f 569 560 526
f 570 569 571
f 571 569 568
f 572 570 573
f 573 570 571
f 566 567 568
f 568 567 571
f 567 574 571
f 571 574 573
f 570 572 560
f 560 572 561
f 576 561 575
f 575 561 572
f 575 578 577
f 577 578 579
f 575 572 578
f 578 572 573
f 575 577 576
f 576 577 556
f 576 556 562
f 562 556 555
f 562 559 576
f 576 559 561
f 550 551 567
f 567 551 574
f 579 574 554
f 554 574 551
f 579 578 574
f 574 578 573
f 579 554 577
f 577 554 549
f 549 546 577
f 577 546 556
f 531 538 540
f 540 538 557
f 557 538 563
f 563 538 537
f 481 294 482
f 482 294 293
f 580 486 511
f 511 486 485
f 490 489 497
f 497 489 498
f 489 491 498
f 498 491 496
f 163 495 164
f 164 495 494
f 580 490 486
f 486 490 497
f 482 293 510
f 510 293 292
f 495 163 511
f 511 163 199
f 494 493 510
f 510 493 499
f 481 491 294
f 294 491 248
f 582 583 581
f 581 583 584
f 586 587 585
f 585 587 588
f 585 588 589
f 589 588 590
f 592 593 591
f 591 593 594
f 595 596 598
f 598 596 597
f 599 600 586
f 586 600 587
f 601 602 604
f 604 602 603
f 605 606 608
f 608 606 607
f 609 607 200
f 200 607 606
f 610 611 613
f 613 611 612
f 600 614 587
f 587 614 592
f 596 605 597
f 597 605 608
f 602 615 603
f 603 615 583
f 616 614 584
f 584 614 600
f 611 618 617
f 617 618 590
f 620 621 619
f 619 621 622
f 610 623 611
f 611 623 618
f 624 589 618
f 618 589 590
f 617 590 591
f 591 590 588
f 581 625 582
f 582 625 626
f 599 627 581
f 581 627 625
f 591 594 617
f 617 594 628
f 601 610 598
f 598 610 613
f 581 584 599
f 599 584 600
f 585 629 586
f 586 629 630
f 615 616 583
f 583 616 584
f 587 592 588
f 588 592 591
f 582 626 631
f 631 626 632
f 624 620 633
f 633 620 619
f 621 620 604
f 604 620 623
f 631 632 621
f 621 632 622
f 610 601 623
f 623 601 604
f 589 624 634
f 634 624 633
f 586 630 599
f 599 630 627
f 203 202 628
f 628 202 612
f 629 585 634
f 634 585 589
f 609 593 614
f 614 593 592
f 620 624 623
f 623 624 618
f 631 621 603
f 603 621 604
f 582 631 583
f 583 631 603
f 634 633 636
f 636 633 635
f 634 636 629
f 629 636 637
f 629 637 630
f 630 637 638
f 630 638 627
f 627 638 639
f 633 619 635
f 635 619 640
f 619 622 640
f 640 622 641
f 641 622 642
f 642 622 632
f 644 635 643
f 643 635 640
f 645 646 648
f 648 646 647
f 649 650 646
f 646 650 647
f 647 650 652
f 652 650 651
f 652 653 655
f 655 653 654
f 651 656 652
f 652 656 653
f 655 648 652
f 652 648 647
f 648 657 645
f 645 657 658
f 650 649 651
f 651 649 659
f 649 637 659
f 659 637 636
f 649 660 637
f 637 660 638
f 661 660 646
f 646 660 649
f 662 661 645
f 645 661 646
f 651 659 656
f 656 659 644
f 644 659 635
f 635 659 636
f 663 662 658
f 658 662 645
f 664 661 665
f 665 661 662
f 663 666 662
f 662 666 665
f 667 664 668
f 668 664 665
f 664 667 670
f 670 667 669
f 666 671 665
f 665 671 668
f 661 664 660
f 660 664 670
f 660 670 638
f 638 670 639
f 658 672 663
f 663 672 673
f 658 657 672
f 672 657 674
f 653 656 675
f 675 656 644
f 653 675 654
f 654 675 676
f 675 644 677
f 677 644 643
f 676 675 678
f 678 675 677
f 679 680 676
f 676 680 654
f 674 680 672
f 672 680 679
f 627 639 625
f 625 639 681
f 626 682 632
f 632 682 642
f 681 682 625
f 625 682 626
f 669 683 681
f 681 683 682
f 667 684 669
f 669 684 683
f 682 683 642
f 642 683 685
f 681 639 669
f 669 639 670
f 686 641 685
f 685 641 642
f 641 686 640
f 640 686 643
f 686 687 643
f 643 687 677
f 687 686 688
f 688 686 685
f 689 687 690
f 690 687 688
f 683 684 685
f 685 684 688
f 684 691 688
f 688 691 690
f 687 689 677
f 677 689 678
f 693 678 692
f 692 678 689
f 692 695 694
f 694 695 696
f 692 689 695
f 695 689 690
f 692 694 693
f 693 694 673
f 693 673 679
f 679 673 672
f 679 676 693
f 693 676 678
f 684 667 691
f 691 667 668
f 696 691 671
f 671 691 668
f 696 695 691
f 691 695 690
f 694 696 666
f 666 696 671
f 666 663 694
f 694 663 673
f 648 655 657
f 657 655 674
f 674 655 680
f 680 655 654
f 593 162 594
f 594 162 290
f 598 597 601
f 601 597 602
f 615 608 616
f 616 608 607
f 607 609 616
f 616 609 614
f 697 595 613
f 613 595 598
f 597 608 602
f 602 608 615
f 594 290 628
f 628 290 203
f 628 612 617
f 617 612 611
f 593 609 162
f 162 609 200
f 105 29 698
f 698 29 699
f 268 126 701
f 701 126 700
f 126 125 700
f 700 125 702
f 252 703 250
f 250 703 704
f 32 268 705
f 705 268 701
f 288 105 706
f 706 105 698
f 29 32 699
f 699 32 705
f 707 251 706
f 706 251 288
f 250 704 125
f 125 704 702
f 703 252 707
f 707 252 251
f 706 708 707
f 707 708 709
f 707 709 703
f 703 709 710
f 703 710 704
f 704 710 711
f 704 711 702
f 702 711 712
f 706 698 708
f 708 698 713
f 698 699 713
f 713 699 714
f 699 705 714
f 714 705 715
f 717 708 716
f 716 708 713
f 719 720 718
f 718 720 721
f 722 723 719
f 719 723 720
f 724 725 723
f 723 725 720
f 724 726 725
f 725 726 727
f 728 721 725
f 725 721 720
f 721 728 729
f 729 728 730
f 729 731 721
f 721 731 718
f 724 723 732
f 732 723 722
f 722 710 732
f 732 710 709
f 722 733 710
f 710 733 711
f 719 734 722
f 722 734 733
f 734 719 735
f 735 719 718
f 724 732 726
f 726 732 717
f 717 732 708
f 708 732 709
f 731 736 718
f 718 736 735
f 737 734 738
f 738 734 735
f 736 739 735
f 735 739 738
f 740 737 741
f 741 737 738
f 737 740 743
f 743 740 742
f 739 744 738
f 738 744 741
f 734 737 733
f 733 737 743
f 733 743 711
f 711 743 712
f 736 731 746
f 746 731 745
f 731 729 745
f 745 729 730
f 727 726 747
f 747 726 717
f 748 727 749
f 749 727 747
f 747 717 750
f 750 717 716
f 749 747 751
f 751 747 750
f 749 752 748
f 748 752 753
f 730 753 745
f 745 753 752
f 728 725 748
f 748 725 727
f 730 728 753
f 753 728 748
f 700 702 754
f 754 702 712
f 705 701 715
f 715 701 755
f 754 755 700
f 700 755 701
f 742 756 754
f 754 756 755
f 740 757 742
f 742 757 756
f 755 756 715
f 715 756 758
f 754 712 742
f 742 712 743
f 759 714 758
f 758 714 715
f 714 759 713
f 713 759 716
f 759 760 716
f 716 760 750
f 760 759 761
f 761 759 758
f 762 760 763
f 763 760 761
f 756 757 758
f 758 757 761
f 757 764 761
f 761 764 763
f 760 762 750
f 750 762 751
f 766 751 765
f 765 751 762
f 767 765 769
f 769 765 768
f 765 762 768
f 768 762 763
f 765 767 766
f 766 767 746
f 766 746 752
f 752 746 745
f 752 749 766
f 766 749 751
f 757 740 764
f 764 740 741
f 769 764 744
f 744 764 741
f 769 768 764
f 764 768 763
f 767 769 739
f 739 769 744
f 739 736 767
f 767 736 746
f 219 217 208
f 208 217 209
f 209 217 210
f 210 217 193
f 198 580 199
f 199 580 511
f 76 75 289
f 289 75 272
f 277 207 291
f 291 207 184
f 290 183 203
f 203 183 84
f 490 580 142
f 142 580 198
f 142 198 143
f 143 198 197
f 149 276 72
f 72 276 73
f 104 103 279
f 279 103 770
f 770 596 279
f 279 596 595
f 605 596 771
f 771 596 770
f 771 770 772
f 772 770 103
f 772 103 773
f 773 103 102
f 155 774 101
f 101 774 102
f 773 102 97
f 97 102 774
f 775 773 100
f 100 773 97
f 773 775 772
f 772 775 776
f 772 776 771
f 771 776 777
f 200 606 197
f 197 606 777
f 189 71 778
f 778 71 74
f 97 774 98
f 98 774 155
f 183 161 184
f 184 161 291
f 777 276 197
f 197 276 143
f 777 606 771
f 771 606 605
f 613 612 697
f 697 612 202
f 595 697 279
f 279 697 202
f 73 276 776
f 776 276 777
f 776 775 73
f 73 775 74
f 100 778 775
f 775 778 74
f 778 100 189
f 189 100 99
f 245 242 99
f 99 242 189
f 131 33 256
f 28 1 95
f 95 1 62
f 27 2 28
f 28 2 1
f 265 115 266
f 266 115 114
f 95 62 69
f 69 62 64
f 62 61 64
f 64 61 65
f 61 13 65
f 65 13 130
f 13 12 130
f 130 12 14
f 31 11 32
f 32 11 268
f 15 12 31
f 31 12 11
f 31 30 15
f 15 30 231
f 30 106 231
f 231 106 232
f 287 237 106
f 106 237 232
f 254 90 287
f 287 90 237
f 253 44 254
f 254 44 90
f 253 249 44
f 44 249 7
f 267 127 268
f 268 127 126
f 10 3 241
f 241 3 116
f 3 2 116
f 116 2 114
f 2 27 114
f 114 27 266
f 27 26 266
f 266 26 113
f 26 286 113
f 113 286 110
f 286 243 110
f 110 243 255
f 243 242 255
f 255 242 256
f 242 245 256
f 256 245 131
f 245 244 131
f 131 244 132
f 265 37 115
f 115 37 41
f 41 37 42
f 42 37 40
f 92 91 40
f 40 91 42
f 236 233 92
f 92 233 91
f 191 194 236
f 236 194 233
f 258 285 244
f 244 285 132
f 257 55 258
f 258 55 285
f 257 154 201
f 201 154 185
f 56 201 204
f 204 201 180
f 55 257 56
f 56 257 201
f 204 85 56
f 56 85 52
f 86 122 53
f 53 122 79
f 212 215 86
f 86 215 122
f 211 216 212
f 212 216 215
f 192 280 211
f 211 280 216
f 191 240 192
f 192 240 280
f 249 124 7
f 7 124 8
f 124 127 8
f 8 127 241
f 127 267 241
f 241 267 10
f 10 267 9
f 9 267 11
f 93 39 235
f 235 39 240
f 39 123 240
f 240 123 280
f 123 119 280
f 280 119 216
f 119 118 216
f 216 118 215
f 118 120 215
f 215 120 122
f 120 121 122
f 122 121 79
f 121 109 79
f 79 109 80

