# https://github.com/mikedh/trimesh
v -0.12278131 0.01047712 -16.01452637 0.25098039 0.27450980 0.65882353
v -0.12937512 0.01610699 -16.01999283 0.25098039 0.27450980 0.65882353
v -0.12201524 0.01190171 -16.02760696 0.25098039 0.27450980 0.65882353
v -0.11509848 0.00640271 -16.02012634 0.25098039 0.27450980 0.65882353
v -0.13599516 0.02718853 -16.03887177 0.25098039 0.27450980 0.65882353
v -0.13269441 0.03861418 -16.04352760 0.25098039 0.27450980 0.65882353
v -0.12296934 0.02842404 -16.04959869 0.25098039 0.27450980 0.65882353
v -0.12785207 0.02063564 -16.04519653 0.25098039 0.27450980 0.65882353
v -0.10797615 0.00485089 -16.02340317 0.25098039 0.27450980 0.65882353
v -0.11637017 0.00792763 -16.03293800 0.25098039 0.27450980 0.65882353
v -0.10311508 0.00910567 -16.02475548 0.25098039 0.27450980 0.65882353
v -0.09526902 0.00822779 -16.01058769 0.25098039 0.27450980 0.65882353
v -0.10079513 0.00432008 -16.01286507 0.25098039 0.27450980 0.65882353
v -0.09205487 0.00474545 -16.00203705 0.25098039 0.27450980 0.65882353
v -0.09529638 0.01762019 -16.00573349 0.25098039 0.27450980 0.65882353
v -0.09410253 0.00783533 -15.99305153 0.25098039 0.27450980 0.65882353
v -0.11732562 0.02080473 -15.98141479 0.25098039 0.27450980 0.65882353
v -0.12958534 0.01922948 -15.97673416 0.25098039 0.27450980 0.65882353
v -0.12358792 0.00572890 -15.97183704 0.25098039 0.27450980 0.65882353
v -0.11179197 0.00844102 -15.97777081 0.25098039 0.27450980 0.65882353
v -0.14359272 0.00521001 -15.97182751 0.25098039 0.27450980 0.65882353
v -0.13232362 0.00477818 -15.97121811 0.25098039 0.27450980 0.65882353
v -0.13811335 0.01896714 -15.97529125 0.25098039 0.27450980 0.65882353
v -0.14806329 0.01883417 -15.97556019 0.25098039 0.27450980 0.65882353
v -0.13779032 0.01464233 -16.00802994 0.25098039 0.27450980 0.65882353
v -0.14440700 0.02114371 -16.01215363 0.25098039 0.27450980 0.65882353
v -0.13867933 0.01998875 -16.01319695 0.25098039 0.27450980 0.65882353
v -0.13240232 0.01438545 -16.00980949 0.25098039 0.27450980 0.65882353
v -0.09858245 0.01592450 -16.03728485 0.25098039 0.27450980 0.65882353
v -0.09847330 0.02424041 -16.02646065 0.25098039 0.27450980 0.65882353
v -0.09856249 0.01658687 -16.02398872 0.25098039 0.27450980 0.65882353
v -0.10189718 0.01157218 -16.03702927 0.25098039 0.27450980 0.65882353
v -0.16589810 0.03681655 -16.02193069 0.25098039 0.27450980 0.65882353
v -0.16841960 0.05042745 -16.02122116 0.25098039 0.27450980 0.65882353
v -0.16307592 0.05210577 -16.02271080 0.25098039 0.27450980 0.65882353
v -0.16211009 0.03935133 -16.02259254 0.25098039 0.27450980 0.65882353
v -0.14503136 0.05008496 -16.03398705 0.25098039 0.27450980 0.65882353
v -0.14809465 0.05827330 -16.02933693 0.25098039 0.27450980 0.65882353
v -0.13946275 0.06920199 -16.02667046 0.25098039 0.27450980 0.65882353
v -0.13399267 0.06203972 -16.02974319 0.25098039 0.27450980 0.65882353
v -0.13926157 0.04323307 -16.03908348 0.25098039 0.27450980 0.65882353
v -0.13052945 0.05384526 -16.03695869 0.25098039 0.27450980 0.65882353
v -0.12488630 0.04723303 -16.04252052 0.25098039 0.27450980 0.65882353
v -0.11641370 0.03491023 -16.05028915 0.25098039 0.27450980 0.65882353
v -0.17889008 0.04775404 -16.01464844 0.25098039 0.27450980 0.65882353
v -0.17918564 0.03770659 -16.01438522 0.25098039 0.27450980 0.65882353
v -0.07183920 -0.03697212 -15.99410534 0.25098039 0.27450980 0.65882353
v -0.07644971 -0.04020167 -15.99266052 0.25098039 0.27450980 0.65882353
v -0.07815808 -0.03662777 -15.99271488 0.25098039 0.27450980 0.65882353
v -0.07343805 -0.03395614 -15.99378204 0.25098039 0.27450980 0.65882353
v -0.18225715 0.04424233 -15.99529076 0.25098039 0.27450980 0.65882353
v -0.17778958 0.04750432 -15.98677826 0.25098039 0.27450980 0.65882353
v -0.18145941 0.05252521 -15.98946762 0.25098039 0.27450980 0.65882353
v -0.18394318 0.05066549 -15.99801922 0.25098039 0.27450980 0.65882353
v -0.17969723 0.03565843 -15.99138737 0.25098039 0.27450980 0.65882353
v -0.17256330 0.04016035 -15.98357487 0.25098039 0.27450980 0.65882353
v -0.06421812 -0.03718098 -15.98430634 0.25098039 0.27450980 0.65882353
v -0.06475943 -0.03618309 -15.98923683 0.25098039 0.27450980 0.65882353
v -0.06637381 -0.03192495 -15.98732376 0.25098039 0.27450980 0.65882353
v -0.06656881 -0.03243460 -15.98198986 0.25098039 0.27450980 0.65882353
v -0.10826969 0.00321725 -16.01289940 0.25098039 0.27450980 0.65882353
v -0.11727914 0.00410724 -16.01061630 0.25098039 0.27450980 0.65882353
v -0.09984362 -0.01170479 -16.00312042 0.25098039 0.27450980 0.65882353
v -0.10772301 -0.00482364 -16.00509071 0.25098039 0.27450980 0.65882353
v -0.10179491 -0.00140143 -16.00741196 0.25098039 0.27450980 0.65882353
v -0.09551667 -0.00641188 -16.00418472 0.25098039 0.27450980 0.65882353
v -0.13011189 -0.00484670 -15.99817371 0.25098039 0.27450980 0.65882353
v -0.13524473 0.00501755 -16.00231934 0.25098039 0.27450980 0.65882353
v -0.12875035 0.00527820 -16.00347900 0.25098039 0.27450980 0.65882353
v -0.12194827 -0.00575284 -16.00040627 0.25098039 0.27450980 0.65882353
v -0.14865410 0.00181968 -16.00079346 0.25098039 0.27450980 0.65882353
v -0.14252524 -0.00734214 -15.99671459 0.25098039 0.27450980 0.65882353
v -0.15102154 -0.00786861 -15.99651337 0.25098039 0.27450980 0.65882353
v -0.15417415 -0.00164429 -16.00018501 0.25098039 0.27450980 0.65882353
v -0.12876371 -0.02268794 -15.98886395 0.25098039 0.27450980 0.65882353
v -0.12391709 -0.02791346 -15.98322773 0.25098039 0.27450980 0.65882353
v -0.12635702 -0.02873887 -15.98185349 0.25098039 0.27450980 0.65882353
v -0.13185824 -0.02277608 -15.98810482 0.25098039 0.27450980 0.65882353
v -0.18433827 0.05815538 -15.99081993 0.25098039 0.27450980 0.65882353
v -0.18435918 0.05707202 -16.00001526 0.25098039 0.27450980 0.65882353
v -0.16361029 0.00288789 -15.97450066 0.25098039 0.27450980 0.65882353
v -0.17229155 0.00297347 -15.98106956 0.25098039 0.27450980 0.65882353
v -0.16995563 -0.00921908 -15.97770977 0.25098039 0.27450980 0.65882353
v -0.16182898 -0.00601995 -15.97170639 0.25098039 0.27450980 0.65882353
v -0.16915283 0.05018553 -15.98197269 0.25098039 0.27450980 0.65882353
v -0.17424175 0.05507709 -15.98308659 0.25098039 0.27450980 0.65882353
v -0.06674601 -0.03980384 -15.97954082 0.25098039 0.27450980 0.65882353
v -0.06902109 -0.03519656 -15.97725582 0.25098039 0.27450980 0.65882353
v -0.11732388 0.05223664 -16.03267097 0.25098039 0.27450980 0.65882353
v -0.10882342 0.03845069 -16.04453468 0.25098039 0.27450980 0.65882353
v -0.12449874 0.06132011 -16.02494049 0.25098039 0.27450980 0.65882353
v -0.12921284 0.06756024 -16.01933479 0.25098039 0.27450980 0.65882353
v -0.13309439 0.07391211 -16.01723671 0.25098039 0.27450980 0.65882353
v -0.11092208 -0.01025553 -16.00172234 0.25098039 0.27450980 0.65882353
v -0.12553419 0.00788680 -16.00790024 0.25098039 0.27450980 0.65882353
v -0.14278506 0.01380570 -16.00676346 0.25098039 0.27450980 0.65882353
v -0.17104577 0.00351022 -16.00263786 0.25098039 0.27450980 0.65882353
v -0.17542093 0.01265402 -16.00645256 0.25098039 0.27450980 0.65882353
v -0.16479927 0.01121824 -16.00882149 0.25098039 0.27450980 0.65882353
v -0.16318938 0.00356620 -16.00445747 0.25098039 0.27450980 0.65882353
v -0.17552221 -0.00124165 -15.98855686 0.25098039 0.27450980 0.65882353
v -0.17190273 -0.00449939 -15.99447918 0.25098039 0.27450980 0.65882353
v -0.16848838 -0.01227991 -15.99186707 0.25098039 0.27450980 0.65882353
v -0.17196706 -0.01042280 -15.98571110 0.25098039 0.27450980 0.65882353
v -0.09631856 0.02055142 -16.04210854 0.25098039 0.27450980 0.65882353
v -0.09867139 0.03042173 -16.02912712 0.25098039 0.27450980 0.65882353
v -0.18329524 0.04145231 -16.00513840 0.25098039 0.27450980 0.65882353
v -0.18280184 0.04859712 -16.00783730 0.25098039 0.27450980 0.65882353
v -0.18297507 0.05717325 -16.00716782 0.25098039 0.27450980 0.65882353
v -0.15470034 0.02882118 -16.01783562 0.25098039 0.27450980 0.65882353
v -0.15962310 0.04104963 -16.02317429 0.25098039 0.27450980 0.65882353
v -0.15635639 0.04093786 -16.02504349 0.25098039 0.27450980 0.65882353
v -0.15184492 0.02854382 -16.01790047 0.25098039 0.27450980 0.65882353
v -0.13838333 0.02207229 -16.02580452 0.25098039 0.27450980 0.65882353
v -0.14464994 0.03283436 -16.03174019 0.25098039 0.27450980 0.65882353
v -0.13143578 0.01691435 -16.03383636 0.25098039 0.27450980 0.65882353
v -0.15689009 0.05586428 -16.02544022 0.25098039 0.27450980 0.65882353
v -0.16527954 0.06209899 -16.02367592 0.25098039 0.27450980 0.65882353
v -0.15750246 0.06527296 -16.02580833 0.25098039 0.27450980 0.65882353
v -0.17336914 0.05988089 -16.01914787 0.25098039 0.27450980 0.65882353
v -0.17940225 0.05778305 -16.01325607 0.25098039 0.27450980 0.65882353
v -0.17819798 0.06110841 -15.98128796 0.25098039 0.27450980 0.65882353
v -0.14968412 0.06793228 -16.02668762 0.25098039 0.27450980 0.65882353
v -0.12131850 0.01527421 -16.04878044 0.25098039 0.27450980 0.65882353
v -0.11568469 0.00978799 -16.05142021 0.25098039 0.27450980 0.65882353
v -0.11378050 0.00668622 -16.04485703 0.25098039 0.27450980 0.65882353
v -0.11932656 0.01066174 -16.04190254 0.25098039 0.27450980 0.65882353
v -0.08809339 -0.00078246 -15.99505424 0.25098039 0.27450980 0.65882353
v -0.09065671 -0.00393584 -16.00127983 0.25098039 0.27450980 0.65882353
v -0.09553057 0.00244305 -16.00757599 0.25098039 0.27450980 0.65882353
v -0.16637458 0.02675451 -16.01705551 0.25098039 0.27450980 0.65882353
v -0.17834800 0.02766841 -16.01096344 0.25098039 0.27450980 0.65882353
v -0.10204807 -0.01691949 -15.99898720 0.25098039 0.27450980 0.65882353
v -0.06957273 -0.02765377 -15.98159981 0.25098039 0.27450980 0.65882353
v -0.06911446 -0.02711603 -15.98734474 0.25098039 0.27450980 0.65882353
v -0.07995680 -0.01245822 -15.99076843 0.25098039 0.27450980 0.65882353
v -0.08035791 -0.01285413 -15.98388672 0.25098039 0.27450980 0.65882353
v -0.09814230 -0.02250518 -15.98882771 0.25098039 0.27450980 0.65882353
v -0.09797469 -0.02090481 -15.99542999 0.25098039 0.27450980 0.65882353
v -0.09555745 -0.02238896 -15.99286938 0.25098039 0.27450980 0.65882353
v -0.09589216 -0.02614906 -15.98747158 0.25098039 0.27450980 0.65882353
v -0.13501853 -0.02787514 -15.98417950 0.25098039 0.27450980 0.65882353
v -0.13992669 -0.02242986 -15.98885441 0.25098039 0.27450980 0.65882353
v -0.10683519 -0.00653939 -15.97570038 0.25098039 0.27450980 0.65882353
v -0.09672987 0.00130739 -15.97960472 0.25098039 0.27450980 0.65882353
v -0.10155937 0.01046208 -15.98364353 0.25098039 0.27450980 0.65882353
v -0.13740239 -0.00540991 -15.99727535 0.25098039 0.27450980 0.65882353
v -0.13336009 -0.01475432 -15.99345207 0.25098039 0.27450980 0.65882353
v -0.13718060 -0.01542389 -15.99264526 0.25098039 0.27450980 0.65882353
v -0.11158444 -0.01408070 -15.99847507 0.25098039 0.27450980 0.65882353
v -0.10510996 -0.01988773 -15.99472904 0.25098039 0.27450980 0.65882353
v -0.11149079 -0.01838635 -15.99422169 0.25098039 0.27450980 0.65882353
v -0.11696354 -0.01300343 -15.99676704 0.25098039 0.27450980 0.65882353
v -0.17567575 0.01538560 -15.98360062 0.25098039 0.27450980 0.65882353
v -0.17978856 0.01045101 -15.99206352 0.25098039 0.27450980 0.65882353
v -0.06757031 -0.03585431 -15.99284363 0.25098039 0.27450980 0.65882353
v -0.06906399 -0.03218821 -15.99171066 0.25098039 0.27450980 0.65882353
v -0.14216825 0.00424806 -16.00100327 0.25098039 0.27450980 0.65882353
v -0.10718726 0.02113065 -15.98880100 0.25098039 0.27450980 0.65882353
v -0.14785476 0.01267237 -16.00614166 0.25098039 0.27450980 0.65882353
v -0.14683208 -0.01633108 -15.97008133 0.25098039 0.27450980 0.65882353
v -0.14924821 -0.02143583 -15.97605324 0.25098039 0.27450980 0.65882353
v -0.14551049 -0.02630627 -15.97456074 0.25098039 0.27450980 0.65882353
v -0.14408788 -0.02390484 -15.96867752 0.25098039 0.27450980 0.65882353
v -0.08624646 -0.03749828 -15.98399639 0.25098039 0.27450980 0.65882353
v -0.08505820 -0.03716057 -15.98951340 0.25098039 0.27450980 0.65882353
v -0.08188210 -0.03969553 -15.98868465 0.25098039 0.27450980 0.65882353
v -0.08262417 -0.04090525 -15.98308277 0.25098039 0.27450980 0.65882353
v -0.09519565 -0.01734188 -15.99912643 0.25098039 0.27450980 0.65882353
v -0.09125192 -0.01223508 -16.00064468 0.25098039 0.27450980 0.65882353
v -0.08796966 -0.01756606 -15.99838734 0.25098039 0.27450980 0.65882353
v -0.09208025 -0.02070267 -15.99591446 0.25098039 0.27450980 0.65882353
v -0.08644241 -0.00930308 -15.99737358 0.25098039 0.27450980 0.65882353
v -0.08308241 -0.01403936 -15.99625969 0.25098039 0.27450980 0.65882353
v -0.08375944 -0.03585212 -15.97822952 0.25098039 0.27450980 0.65882353
v -0.07783879 -0.03260593 -15.97503757 0.25098039 0.27450980 0.65882353
v -0.08915119 -0.01998116 -15.97680092 0.25098039 0.27450980 0.65882353
v -0.09269242 -0.02568625 -15.98075008 0.25098039 0.27450980 0.65882353
v -0.15164119 0.03247194 -15.97817802 0.25098039 0.27450980 0.65882353
v -0.16223758 0.03038206 -15.97844410 0.25098039 0.27450980 0.65882353
v -0.15853754 0.01663128 -15.97594929 0.25098039 0.27450980 0.65882353
v -0.15524158 0.00347669 -15.97274780 0.25098039 0.27450980 0.65882353
v -0.15148869 -0.00942634 -15.97057724 0.25098039 0.27450980 0.65882353
v -0.14080839 -0.00627187 -15.96758080 0.25098039 0.27450980 0.65882353
v -0.16620168 0.01619556 -15.97750568 0.25098039 0.27450980 0.65882353
v -0.10308820 -0.01899162 -15.98140907 0.25098039 0.27450980 0.65882353
v -0.09771255 -0.01164870 -15.97831345 0.25098039 0.27450980 0.65882353
v -0.10412547 -0.01345900 -15.97717476 0.25098039 0.27450980 0.65882353
v -0.15478869 0.01030719 -16.00628662 0.25098039 0.27450980 0.65882353
v -0.07146642 -0.02801110 -15.99238682 0.25098039 0.27450980 0.65882353
v -0.13303608 0.06592478 -15.99623394 0.25098039 0.27450980 0.65882353
v -0.14251533 0.06334044 -15.98711872 0.25098039 0.27450980 0.65882353
v -0.13891186 0.05644080 -15.98801517 0.25098039 0.27450980 0.65882353
v -0.12824029 0.05913464 -15.99862671 0.25098039 0.27450980 0.65882353
v -0.08121385 -0.03435873 -15.99432850 0.25098039 0.27450980 0.65882353
v -0.07596357 -0.03087275 -15.99583244 0.25098039 0.27450980 0.65882353
v -0.14556330 -0.02471771 -15.98783684 0.25098039 0.27450980 0.65882353
v -0.14061722 -0.02873115 -15.98360729 0.25098039 0.27450980 0.65882353
v -0.14289188 -0.02953995 -15.98043919 0.25098039 0.27450980 0.65882353
v -0.14922887 -0.02787291 -15.98601532 0.25098039 0.27450980 0.65882353
v -0.16789691 0.03051338 -15.97958660 0.25098039 0.27450980 0.65882353
v -0.16915886 -0.01699137 -15.97825432 0.25098039 0.27450980 0.65882353
v -0.16200712 -0.01398272 -15.97173882 0.25098039 0.27450980 0.65882353
v -0.16493014 0.04249167 -15.98056221 0.25098039 0.27450980 0.65882353
v -0.15567893 0.04432708 -15.97984314 0.25098039 0.27450980 0.65882353
v -0.15884873 0.05265170 -15.98056889 0.25098039 0.27450980 0.65882353
v -0.12568559 -0.01049491 -15.96813679 0.25098039 0.27450980 0.65882353
v -0.14356571 0.03204720 -15.97869492 0.25098039 0.27450980 0.65882353
v -0.14847746 0.04418630 -15.98108006 0.25098039 0.27450980 0.65882353
v -0.15193643 0.05426214 -15.98179531 0.25098039 0.27450980 0.65882353
v -0.15430805 0.06141629 -15.98121929 0.25098039 0.27450980 0.65882353
v -0.16185488 0.05859700 -15.98059654 0.25098039 0.27450980 0.65882353
v -0.07277340 -0.03041631 -15.97701263 0.25098039 0.27450980 0.65882353
v -0.07420951 -0.03859425 -15.97485542 0.25098039 0.27450980 0.65882353
v -0.16519015 0.06518507 -15.97873783 0.25098039 0.27450980 0.65882353
v -0.15646370 0.06764913 -15.98011303 0.25098039 0.27450980 0.65882353
v -0.13986257 0.04461024 -15.98342609 0.25098039 0.27450980 0.65882353
v -0.13033257 0.04497739 -15.98768139 0.25098039 0.27450980 0.65882353
v -0.13541871 0.03296785 -15.98023796 0.25098039 0.27450980 0.65882353
v -0.12497991 0.03262004 -15.98404026 0.25098039 0.27450980 0.65882353
v -0.11729893 -0.00449471 -15.96804810 0.25098039 0.27450980 0.65882353
v -0.07160968 -0.05436129 -15.98227024 0.25098039 0.27450980 0.65882353
v -0.07692143 -0.04531806 -15.97867298 0.25098039 0.27450980 0.65882353
v -0.08023515 -0.04498603 -15.98331928 0.25098039 0.27450980 0.65882353
v -0.07527630 -0.05454136 -15.98474121 0.25098039 0.27450980 0.65882353
v -0.08005512 -0.04040169 -15.97800255 0.25098039 0.27450980 0.65882353
v -0.07186767 -0.04298794 -15.97697353 0.25098039 0.27450980 0.65882353
v -0.11328942 0.03309428 -15.99378204 0.25098039 0.27450980 0.65882353
v -0.10643430 -0.02300419 -15.98940945 0.25098039 0.27450980 0.65882353
v -0.11828791 0.04684135 -16.00119209 0.25098039 0.27450980 0.65882353
v -0.10046746 0.02920902 -16.00785255 0.25098039 0.27450980 0.65882353
v -0.10558690 0.03859526 -16.01514626 0.25098039 0.27450980 0.65882353
v -0.12245718 0.06124397 -16.00973892 0.25098039 0.27450980 0.65882353
v -0.11285207 0.05206842 -16.01936340 0.25098039 0.27450980 0.65882353
v -0.13246563 0.07374500 -16.00651932 0.25098039 0.27450980 0.65882353
v -0.12800576 0.06707051 -16.00691986 0.25098039 0.27450980 0.65882353
v -0.10503985 0.04230925 -16.03108978 0.25098039 0.27450980 0.65882353
v -0.07081048 -0.04678234 -15.99640846 0.25098039 0.27450980 0.65882353
v -0.07545993 -0.04921902 -15.99399567 0.25098039 0.27450980 0.65882353
v -0.13626567 0.07264453 -15.99552250 0.25098039 0.27450980 0.65882353
v -0.12440680 0.01337126 -16.03903961 0.25098039 0.27450980 0.65882353
v -0.15771422 0.01907808 -16.01163292 0.25098039 0.27450980 0.65882353
v -0.15221272 0.01998483 -16.01183128 0.25098039 0.27450980 0.65882353
v -0.17720380 0.01860586 -16.00791931 0.25098039 0.27450980 0.65882353
v -0.16522948 0.01849203 -16.01208305 0.25098039 0.27450980 0.65882353
v -0.06562367 -0.04532424 -15.99579048 0.25098039 0.27450980 0.65882353
v -0.12121354 -0.02954990 -15.97691154 0.25098039 0.27450980 0.65882353
v -0.12350960 -0.02767294 -15.97656059 0.25098039 0.27450980 0.65882353
v -0.11821905 0.02130201 -16.05364990 0.25098039 0.27450980 0.65882353
v -0.11422221 0.01548982 -16.05602074 0.25098039 0.27450980 0.65882353
v -0.10263853 0.02116196 -16.05510712 0.25098039 0.27450980 0.65882353
v -0.10877046 0.01918631 -16.05784988 0.25098039 0.27450980 0.65882353
v -0.11200190 0.02675344 -16.05484962 0.25098039 0.27450980 0.65882353
v -0.10569006 0.02926454 -16.05164146 0.25098039 0.27450980 0.65882353
v -0.15675488 0.02808781 -16.01801300 0.25098039 0.27450980 0.65882353
v -0.16016950 0.02709283 -16.01765633 0.25098039 0.27450980 0.65882353
v -0.17807648 0.02616763 -15.98755455 0.25098039 0.27450980 0.65882353
v -0.18136612 0.02103720 -15.99638367 0.25098039 0.27450980 0.65882353
v -0.08455554 -0.00692325 -15.99168777 0.25098039 0.27450980 0.65882353
v -0.08995467 0.00026791 -15.98678875 0.25098039 0.27450980 0.65882353
v -0.08573389 -0.00674508 -15.98465729 0.25098039 0.27450980 0.65882353
v -0.08475873 -0.01432252 -15.97856140 0.25098039 0.27450980 0.65882353
v -0.10295321 -0.02340891 -15.98464012 0.25098039 0.27450980 0.65882353
v -0.09770735 -0.02070370 -15.98336411 0.25098039 0.27450980 0.65882353
v -0.15112767 0.03624113 -16.02817535 0.25098039 0.27450980 0.65882353
v -0.14574851 0.02596290 -16.01973343 0.25098039 0.27450980 0.65882353
v -0.11281560 0.00820142 -16.03610039 0.25098039 0.27450980 0.65882353
v -0.10834146 0.00702790 -16.03909302 0.25098039 0.27450980 0.65882353
v -0.12487827 -0.01224099 -15.99547195 0.25098039 0.27450980 0.65882353
v -0.11817837 -0.02000364 -15.96748161 0.25098039 0.27450980 0.65882353
v -0.11162917 -0.01503852 -15.96766472 0.25098039 0.27450980 0.65882353
v -0.11993848 -0.01952559 -15.99166965 0.25098039 0.27450980 0.65882353
v -0.06081657 -0.04745748 -15.98876190 0.25098039 0.27450980 0.65882353
v -0.06253709 -0.04583260 -15.99331665 0.25098039 0.27450980 0.65882353
v -0.09044796 -0.00770308 -15.97926235 0.25098039 0.27450980 0.65882353
v -0.14533925 -0.01674099 -15.99333668 0.25098039 0.27450980 0.65882353
v -0.12675402 -0.01735379 -15.96847343 0.25098039 0.27450980 0.65882353
v -0.12066051 -0.02602947 -15.97039795 0.25098039 0.27450980 0.65882353
v -0.16960526 -0.01569071 -15.98569393 0.25098039 0.27450980 0.65882353
v -0.14556210 0.07043426 -15.98709393 0.25098039 0.27450980 0.65882353
v -0.08023553 -0.04372053 -15.98885632 0.25098039 0.27450980 0.65882353
v -0.07781616 -0.05159310 -15.99002838 0.25098039 0.27450980 0.65882353
v -0.06782852 -0.05247470 -15.98144436 0.25098039 0.27450980 0.65882353
v -0.06317282 -0.04919053 -15.98339939 0.25098039 0.27450980 0.65882353
v -0.18206418 0.03032994 -16.00146103 0.25098039 0.27450980 0.65882353
v -0.14889959 0.02065161 -16.01141167 0.25098039 0.27450980 0.65882353
v -0.10073860 0.03263073 -16.04142380 0.25098039 0.27450980 0.65882353
v -0.09809399 0.02189334 -16.04927444 0.25098039 0.27450980 0.65882353
v -0.11671048 -0.02434215 -15.98833370 0.25098039 0.27450980 0.65882353
v -0.15382332 -0.01650969 -15.97291088 0.25098039 0.27450980 0.65882353
v -0.13881490 -0.01493307 -15.96579933 0.25098039 0.27450980 0.65882353
v -0.13701692 -0.02278315 -15.96359158 0.25098039 0.27450980 0.65882353
v -0.12960428 -0.02461352 -15.96460629 0.25098039 0.27450980 0.65882353
v -0.12451774 -0.02795706 -15.96922016 0.25098039 0.27450980 0.65882353
v -0.06683142 -0.05757153 -15.98433971 0.25098039 0.27450980 0.65882353
v -0.06214260 -0.05416645 -15.98607540 0.25098039 0.27450980 0.65882353
v -0.05989352 -0.05189342 -15.99119854 0.25098039 0.27450980 0.65882353
v -0.06142552 -0.04953479 -15.99492550 0.25098039 0.27450980 0.65882353
v -0.06521699 -0.04832022 -15.99680710 0.25098039 0.27450980 0.65882353
v -0.07075009 -0.05931272 -15.98566151 0.25098039 0.27450980 0.65882353
v -0.07393287 -0.05882421 -15.98809814 0.25098039 0.27450980 0.65882353
v -0.07669973 -0.05454624 -15.99122047 0.25098039 0.27450980 0.65882353
v -0.07149309 -0.06233973 -15.98982143 0.25098039 0.27450980 0.65882353
v -0.06643218 -0.06394392 -15.99063683 0.25098039 0.27450980 0.65882353
v -0.06109022 -0.05990726 -16.00302124 0.25098039 0.27450980 0.65882353
v -0.05996014 -0.05805892 -15.99731827 0.25098039 0.27450980 0.65882353
v -0.06052026 -0.06069565 -15.99804020 0.25098039 0.27450980 0.65882353
v -0.06158879 -0.06296358 -16.00249100 0.25098039 0.27450980 0.65882353
v -0.06259270 -0.06669283 -16.00608635 0.25098039 0.27450980 0.65882353
v -0.06201658 -0.06357528 -16.00753021 0.25098039 0.27450980 0.65882353
v -0.06219576 -0.06170777 -15.99373817 0.25098039 0.27450980 0.65882353
v -0.06361884 -0.06558472 -15.99928474 0.25098039 0.27450980 0.65882353
v -0.06683934 -0.06737125 -15.99742603 0.25098039 0.27450980 0.65882353
v -0.06711899 -0.07085024 -16.00201035 0.25098039 0.27450980 0.65882353
v -0.06418142 -0.06948365 -16.00366020 0.25098039 0.27450980 0.65882353
v -0.06552704 -0.06477790 -15.99369335 0.25098039 0.27450980 0.65882353
v -0.06146261 -0.06040095 -15.99138260 0.25098039 0.27450980 0.65882353
v -0.06365031 -0.06754339 -16.00956154 0.25098039 0.27450980 0.65882353
v -0.06318119 -0.06923459 -16.00783539 0.25098039 0.27450980 0.65882353
v -0.06495358 -0.07122914 -16.00633621 0.25098039 0.27450980 0.65882353
v -0.06635813 -0.07169804 -16.00904655 0.25098039 0.27450980 0.65882353
v -0.06166412 -0.05267011 -15.99819851 0.25098039 0.27450980 0.65882353
v -0.06220195 -0.05805703 -16.00449944 0.25098039 0.27450980 0.65882353
v -0.06448933 -0.06206474 -16.00853539 0.25098039 0.27450980 0.65882353
v -0.06594121 -0.06612505 -16.01038170 0.25098039 0.27450980 0.65882353
v -0.06604476 -0.05770478 -16.00588799 0.25098039 0.27450980 0.65882353
v -0.06734033 -0.06140840 -16.00858116 0.25098039 0.27450980 0.65882353
v -0.06893557 -0.06491053 -16.00981140 0.25098039 0.27450980 0.65882353
v -0.07020105 -0.05833152 -16.00597191 0.25098039 0.27450980 0.65882353
v -0.07044011 -0.06179411 -16.00806808 0.25098039 0.27450980 0.65882353
v -0.06920440 -0.05070262 -15.99830055 0.25098039 0.27450980 0.65882353
v -0.06511757 -0.04970757 -15.99835587 0.25098039 0.27450980 0.65882353
v -0.07088368 -0.06395042 -16.00942993 0.25098039 0.27450980 0.65882353
v -0.06837089 -0.07088055 -16.00966835 0.25098039 0.27450980 0.65882353
v -0.06989206 -0.06670424 -15.99550247 0.25098039 0.27450980 0.65882353
v -0.07023136 -0.07009910 -16.00196075 0.25098039 0.27450980 0.65882353
v -0.07222107 -0.06601916 -15.99585533 0.25098039 0.27450980 0.65882353
v -0.07258998 -0.06971256 -16.00193977 0.25098039 0.27450980 0.65882353
v -0.06953180 -0.07288842 -16.00567436 0.25098039 0.27450980 0.65882353
v -0.06725077 -0.07209307 -16.00486565 0.25098039 0.27450980 0.65882353
v -0.07043961 -0.04877775 -15.99652100 0.25098039 0.27450980 0.65882353
v -0.07515520 -0.05144735 -15.99403954 0.25098039 0.27450980 0.65882353
v -0.07433607 -0.05319405 -15.99569321 0.25098039 0.27450980 0.65882353
v -0.07420233 -0.06002617 -16.00398827 0.25098039 0.27450980 0.65882353
v -0.07617275 -0.05642239 -15.99371815 0.25098039 0.27450980 0.65882353
v -0.07447831 -0.06123764 -15.99221134 0.25098039 0.27450980 0.65882353
v -0.07439098 -0.06529132 -15.99789619 0.25098039 0.27450980 0.65882353
v -0.07560533 -0.06326970 -16.00034332 0.25098039 0.27450980 0.65882353
v -0.07422411 -0.06805693 -16.00268936 0.25098039 0.27450980 0.65882353
v -0.07447386 -0.06598660 -16.00403786 0.25098039 0.27450980 0.65882353
v -0.07337874 -0.06343931 -16.00668335 0.25098039 0.27450980 0.65882353
v -0.07300334 -0.06933306 -16.00649834 0.25098039 0.27450980 0.65882353
v -0.07132290 -0.07169250 -16.00611687 0.25098039 0.27450980 0.65882353
v -0.07070948 -0.06835820 -16.00925446 0.25098039 0.27450980 0.65882353
v -0.07378028 -0.06751676 -16.00639915 0.25098039 0.27450980 0.65882353
v -0.07188228 -0.06612843 -16.00824547 0.25098039 0.27450980 0.65882353
v -0.09690319 -0.05484471 -15.98115253 0.25098039 0.27450980 0.65882353
v -0.10253781 -0.05721912 -15.97918701 0.25098039 0.27450980 0.65882353
v -0.10290734 -0.05227124 -15.97789288 0.25098039 0.27450980 0.65882353
v -0.09812807 -0.05069025 -15.97977066 0.25098039 0.27450980 0.65882353
v -0.08874957 -0.05411800 -15.97036076 0.25098039 0.27450980 0.65882353
v -0.08977537 -0.05383249 -15.97612381 0.25098039 0.27450980 0.65882353
v -0.09027515 -0.04887762 -15.97407246 0.25098039 0.27450980 0.65882353
v -0.09046991 -0.04899244 -15.96756744 0.25098039 0.27450980 0.65882353
v -0.09267920 -0.05556865 -15.96494007 0.25098039 0.27450980 0.65882353
v -0.09469438 -0.05015782 -15.96232224 0.25098039 0.27450980 0.65882353
v -0.09181535 -0.04363422 -15.96712399 0.25098039 0.27450980 0.65882353
v -0.09212792 -0.04361416 -15.97421265 0.25098039 0.27450980 0.65882353
v -0.10100046 -0.02506861 -15.97844028 0.25098039 0.27450980 0.65882353
v -0.10095705 -0.02418758 -15.97132969 0.25098039 0.27450980 0.65882353
v -0.11729734 -0.03188675 -15.98069572 0.25098039 0.27450980 0.65882353
v -0.11741291 -0.03273897 -15.97677994 0.25098039 0.27450980 0.65882353
v -0.09320344 -0.05411566 -15.97987556 0.25098039 0.27450980 0.65882353
v -0.09386958 -0.04967712 -15.97804642 0.25098039 0.27450980 0.65882353
v -0.11034036 -0.05077564 -15.97243595 0.25098039 0.27450980 0.65882353
v -0.10856916 -0.05006909 -15.97747707 0.25098039 0.27450980 0.65882353
v -0.10677253 -0.05428461 -15.97592545 0.25098039 0.27450980 0.65882353
v -0.10782164 -0.05536451 -15.97053623 0.25098039 0.27450980 0.65882353
v -0.10709153 -0.02701390 -15.98453617 0.25098039 0.27450980 0.65882353
v -0.11306737 -0.02889905 -15.98333740 0.25098039 0.27450980 0.65882353
v -0.10359725 -0.02647569 -15.98254585 0.25098039 0.27450980 0.65882353
v -0.10919026 -0.05027463 -15.96594715 0.25098039 0.27450980 0.65882353
v -0.10449764 -0.04812124 -15.96129322 0.25098039 0.27450980 0.65882353
v -0.11242633 -0.02948910 -15.96428585 0.25098039 0.27450980 0.65882353
v -0.11636856 -0.03258261 -15.96834183 0.25098039 0.27450980 0.65882353
v -0.09483124 -0.04490924 -15.97891808 0.25098039 0.27450980 0.65882353
v -0.10427396 -0.04863876 -15.98054028 0.25098039 0.27450980 0.65882353
v -0.09946303 -0.04680954 -15.98154545 0.25098039 0.27450980 0.65882353
v -0.09731527 -0.04486847 -15.96237659 0.25098039 0.27450980 0.65882353
v -0.10141873 -0.05407718 -15.96169662 0.25098039 0.27450980 0.65882353
v -0.10049322 -0.07250746 -15.97076797 0.25098039 0.27450980 0.65882353
v -0.10417187 -0.06117008 -15.96661472 0.25098039 0.27450980 0.65882353
v -0.10618553 -0.06092552 -15.97132111 0.25098039 0.27450980 0.65882353
v -0.10343297 -0.07274878 -15.97476768 0.25098039 0.27450980 0.65882353
v -0.10617368 -0.05566268 -15.96523190 0.25098039 0.27450980 0.65882353
v -0.09916992 -0.05914536 -15.96396255 0.25098039 0.27450980 0.65882353
v -0.09580126 -0.06886360 -15.98591137 0.25098039 0.27450980 0.65882353
v -0.10146473 -0.07100391 -15.98367310 0.25098039 0.27450980 0.65882353
v -0.09127438 -0.06807595 -15.98520947 0.25098039 0.27450980 0.65882353
v -0.10585213 -0.02560231 -15.96525002 0.25098039 0.27450980 0.65882353
v -0.08634108 -0.06692596 -15.97603798 0.25098039 0.27450980 0.65882353
v -0.08806497 -0.06712891 -15.98242283 0.25098039 0.27450980 0.65882353
v -0.10609783 -0.05929546 -15.97611713 0.25098039 0.27450980 0.65882353
v -0.10399383 -0.07252024 -15.97957039 0.25098039 0.27450980 0.65882353
v -0.09630875 -0.07132171 -15.96905994 0.25098039 0.27450980 0.65882353
v -0.08994558 -0.06762172 -15.97022247 0.25098039 0.27450980 0.65882353
v -0.09514813 -0.07671365 -15.97189140 0.25098039 0.27450980 0.65882353
v -0.08928721 -0.07415627 -15.97345924 0.25098039 0.27450980 0.65882353
v -0.08597618 -0.07281174 -15.97909737 0.25098039 0.27450980 0.65882353
v -0.08815272 -0.07160288 -15.98440742 0.25098039 0.27450980 0.65882353
v -0.09137128 -0.07118832 -15.98655796 0.25098039 0.27450980 0.65882353
v -0.09914958 -0.07768969 -15.97352028 0.25098039 0.27450980 0.65882353
v -0.10222510 -0.07741818 -15.97701359 0.25098039 0.27450980 0.65882353
v -0.10302210 -0.07479151 -15.98106766 0.25098039 0.27450980 0.65882353
v -0.10008232 -0.08290155 -15.97866058 0.25098039 0.27450980 0.65882353
v -0.09573908 -0.08397231 -15.97756577 0.25098039 0.27450980 0.65882353
v -0.08939324 -0.08738707 -15.99475670 0.25098039 0.27450980 0.65882353
v -0.08815366 -0.08331572 -15.99034119 0.25098039 0.27450980 0.65882353
v -0.08865122 -0.08533514 -15.98867798 0.25098039 0.27450980 0.65882353
v -0.08987035 -0.08911867 -15.99255371 0.25098039 0.27450980 0.65882353
v -0.08659074 -0.08072196 -15.98466969 0.25098039 0.27450980 0.65882353
v -0.08780357 -0.08305146 -15.98459244 0.25098039 0.27450980 0.65882353
v -0.09047401 -0.08388019 -15.98083687 0.25098039 0.27450980 0.65882353
v -0.09176679 -0.08771935 -15.98570633 0.25098039 0.27450980 0.65882353
v -0.09591956 -0.08820873 -15.98339748 0.25098039 0.27450980 0.65882353
v -0.09650214 -0.09270450 -15.98710728 0.25098039 0.27450980 0.65882353
v -0.09233798 -0.09227194 -15.98945427 0.25098039 0.27450980 0.65882353
v -0.09398842 -0.08563745 -15.98030663 0.25098039 0.27450980 0.65882353
v -0.09105290 -0.09209266 -15.99444103 0.25098039 0.27450980 0.65882353
v -0.09192349 -0.09210475 -15.99690533 0.25098039 0.27450980 0.65882353
v -0.08933118 -0.08190005 -15.97832680 0.25098039 0.27450980 0.65882353
v -0.08779471 -0.07514633 -15.98645782 0.25098039 0.27450980 0.65882353
v -0.08935630 -0.08158787 -15.99261379 0.25098039 0.27450980 0.65882353
v -0.09145059 -0.08628310 -15.99702168 0.25098039 0.27450980 0.65882353
v -0.09466654 -0.09153889 -15.99817085 0.25098039 0.27450980 0.65882353
v -0.09304388 -0.08072439 -15.99455547 0.25098039 0.27450980 0.65882353
v -0.09454878 -0.08562653 -15.99789524 0.25098039 0.27450980 0.65882353
v -0.09701578 -0.09009437 -15.99804783 0.25098039 0.27450980 0.65882353
v -0.09777111 -0.08043732 -15.99511433 0.25098039 0.27450980 0.65882353
v -0.09877712 -0.08559878 -15.99759769 0.25098039 0.27450980 0.65882353
v -0.09616891 -0.07259138 -15.98815441 0.25098039 0.27450980 0.65882353
v -0.09147263 -0.07288633 -15.98843765 0.25098039 0.27450980 0.65882353
v -0.09872079 -0.08837803 -15.99767303 0.25098039 0.27450980 0.65882353
v -0.09442750 -0.09573030 -15.99463081 0.25098039 0.27450980 0.65882353
v -0.09713832 -0.09450789 -15.99642754 0.25098039 0.27450980 0.65882353
v -0.09350641 -0.09474532 -15.99300385 0.25098039 0.27450980 0.65882353
v -0.09801859 -0.08800475 -15.98301220 0.25098039 0.27450980 0.65882353
v -0.09867120 -0.09234719 -15.98793602 0.25098039 0.27450980 0.65882353
v -0.10073380 -0.08749795 -15.98394394 0.25098039 0.27450980 0.65882353
v -0.10077098 -0.09205389 -15.98935223 0.25098039 0.27450980 0.65882353
v -0.09800190 -0.09542604 -15.99160099 0.25098039 0.27450980 0.65882353
v -0.09636621 -0.09537788 -15.99101162 0.25098039 0.27450980 0.65882353
v -0.09574409 -0.07137786 -15.98628426 0.25098039 0.27450980 0.65882353
v -0.10082145 -0.07288048 -15.98408127 0.25098039 0.27450980 0.65882353
v -0.10111849 -0.07382299 -15.98570347 0.25098039 0.27450980 0.65882353
v -0.10209352 -0.08195296 -15.99237633 0.25098039 0.27450980 0.65882353
v -0.10340601 -0.07639258 -15.98249054 0.25098039 0.27450980 0.65882353
v -0.10254630 -0.08085503 -15.98035526 0.25098039 0.27450980 0.65882353
v -0.10285546 -0.08608474 -15.98522091 0.25098039 0.27450980 0.65882353
v -0.10381284 -0.08427222 -15.98865700 0.25098039 0.27450980 0.65882353
v -0.10289362 -0.09136729 -15.98986530 0.25098039 0.27450980 0.65882353
v -0.10357456 -0.08849783 -15.99114513 0.25098039 0.27450980 0.65882353
v -0.10208762 -0.08631030 -15.99524403 0.25098039 0.27450980 0.65882353
v -0.10158443 -0.09407568 -15.99349689 0.25098039 0.27450980 0.65882353
v -0.09959747 -0.09522964 -15.99258327 0.25098039 0.27450980 0.65882353
v -0.09873526 -0.09284970 -15.99670792 0.25098039 0.27450980 0.65882353
v -0.10262053 -0.09126100 -15.99377346 0.25098039 0.27450980 0.65882353
v -0.10053398 -0.09009357 -15.99653149 0.25098039 0.27450980 0.65882353
v -0.12221588 -0.05477215 -15.97350693 0.25098039 0.27450980 0.65882353
v -0.12760270 -0.05515696 -15.97591591 0.25098039 0.27450980 0.65882353
v -0.12829116 -0.05157102 -15.97541428 0.25098039 0.27450980 0.65882353
v -0.12306046 -0.05115851 -15.97292328 0.25098039 0.27450980 0.65882353
v -0.12367640 -0.05623717 -15.96114635 0.25098039 0.27450980 0.65882353
v -0.12041616 -0.05607210 -15.96479988 0.25098039 0.27450980 0.65882353
v -0.12118623 -0.05139810 -15.96389484 0.25098039 0.27450980 0.65882353
v -0.12461114 -0.05024515 -15.95972919 0.25098039 0.27450980 0.65882353
v -0.12873103 -0.05846282 -15.96044636 0.25098039 0.27450980 0.65882353
v -0.13051318 -0.05068019 -15.95806122 0.25098039 0.27450980 0.65882353
v -0.12519297 -0.04437317 -15.95907402 0.25098039 0.27450980 0.65882353
v -0.12172422 -0.04670395 -15.96370983 0.25098039 0.27450980 0.65882353
v -0.12421726 -0.03202547 -15.96767044 0.25098039 0.27450980 0.65882353
v -0.12807742 -0.03067683 -15.96212006 0.25098039 0.27450980 0.65882353
v -0.12025180 -0.05538786 -15.96940041 0.25098039 0.27450980 0.65882353
v -0.12091014 -0.05155605 -15.96884346 0.25098039 0.27450980 0.65882353
v -0.13765632 -0.04974294 -15.97430325 0.25098039 0.27450980 0.65882353
v -0.13361077 -0.04932081 -15.97686100 0.25098039 0.27450980 0.65882353
v -0.13354455 -0.05269942 -15.97519302 0.25098039 0.27450980 0.65882353
v -0.13687083 -0.05343897 -15.97264481 0.25098039 0.27450980 0.65882353
v -0.12701626 -0.03179312 -15.97860909 0.25098039 0.27450980 0.65882353
v -0.13291329 -0.03120784 -15.97990227 0.25098039 0.27450980 0.65882353
v -0.12403397 -0.03313380 -15.97398949 0.25098039 0.27450980 0.65882353
v -0.13965827 -0.04943759 -15.96811199 0.25098039 0.27450980 0.65882353
v -0.13805357 -0.04695215 -15.96127605 0.25098039 0.27450980 0.65882353
v -0.14181384 -0.03276476 -15.96540451 0.25098039 0.27450980 0.65882353
v -0.14269105 -0.03357426 -15.97172356 0.25098039 0.27450980 0.65882353
v -0.12121356 -0.04786688 -15.96894264 0.25098039 0.27450980 0.65882353
v -0.12843961 -0.04817427 -15.97695637 0.25098039 0.27450980 0.65882353
v -0.12328495 -0.04818318 -15.97415352 0.25098039 0.27450980 0.65882353
v -0.13149528 -0.04451947 -15.95842075 0.25098039 0.27450980 0.65882353
v -0.13611361 -0.05302321 -15.96166229 0.25098039 0.27450980 0.65882353
v -0.13365328 -0.07447952 -15.97041988 0.25098039 0.27450980 0.65882353
v -0.13753320 -0.05845976 -15.96762180 0.25098039 0.27450980 0.65882353
v -0.13607821 -0.05747120 -15.97307777 0.25098039 0.27450980 0.65882353
v -0.13391334 -0.07339016 -15.97468185 0.25098039 0.27450980 0.65882353
v -0.13847946 -0.05433949 -15.96755409 0.25098039 0.27450980 0.65882353
v -0.13475688 -0.05858029 -15.96266460 0.25098039 0.27450980 0.65882353
v -0.12049182 -0.06966412 -15.97802258 0.25098039 0.27450980 0.65882353
v -0.12601326 -0.06967582 -15.97946358 0.25098039 0.27450980 0.65882353
v -0.11833319 -0.06936812 -15.97415066 0.25098039 0.27450980 0.65882353
v -0.13521427 -0.03060462 -15.96052265 0.25098039 0.27450980 0.65882353
v -0.13963823 -0.03274767 -15.97783184 0.25098039 0.27450980 0.65882353
v -0.11935152 -0.07194108 -15.96709442 0.25098039 0.27450980 0.65882353
v -0.11774667 -0.07041444 -15.97091579 0.25098039 0.27450980 0.65882353
v -0.13286492 -0.05608035 -15.97555351 0.25098039 0.27450980 0.65882353
v -0.13139631 -0.07151364 -15.97816658 0.25098039 0.27450980 0.65882353
v -0.13080022 -0.07398996 -15.96645546 0.25098039 0.27450980 0.65882353
v -0.12490867 -0.07239704 -15.96443939 0.25098039 0.27450980 0.65882353
v -0.13020650 -0.07973626 -15.96952438 0.25098039 0.27450980 0.65882353
v -0.12419443 -0.07876138 -15.96784973 0.25098039 0.27450980 0.65882353
v -0.11886996 -0.07800634 -15.97042847 0.25098039 0.27450980 0.65882353
v -0.11747587 -0.07552727 -15.97393131 0.25098039 0.27450980 0.65882353
v -0.11806540 -0.07381824 -15.97676754 0.25098039 0.27450980 0.65882353
v -0.13289593 -0.07897405 -15.97371197 0.25098039 0.27450980 0.65882353
v -0.13281490 -0.07707340 -15.97720814 0.25098039 0.27450980 0.65882353
v -0.13049403 -0.07321820 -15.97865868 0.25098039 0.27450980 0.65882353
v -0.13280691 -0.08144738 -15.97758579 0.25098039 0.27450980 0.65882353
v -0.12937385 -0.08499543 -15.97486019 0.25098039 0.27450980 0.65882353
v -0.11858624 -0.09036337 -15.98696041 0.25098039 0.27450980 0.65882353
v -0.11855610 -0.08654600 -15.98231697 0.25098039 0.27450980 0.65882353
v -0.11941434 -0.08740628 -15.98186874 0.25098039 0.27450980 0.65882353
v -0.11945982 -0.09162796 -15.98596954 0.25098039 0.27450980 0.65882353
v -0.11925842 -0.08399454 -15.97582531 0.25098039 0.27450980 0.65882353
v -0.12016693 -0.08549501 -15.97705555 0.25098039 0.27450980 0.65882353
v -0.12371716 -0.08596532 -15.97529316 0.25098039 0.27450980 0.65882353
v -0.12379335 -0.09004180 -15.98055744 0.25098039 0.27450980 0.65882353
v -0.12931997 -0.08791251 -15.98158264 0.25098039 0.27450980 0.65882353
v -0.12826398 -0.09097080 -15.98560715 0.25098039 0.27450980 0.65882353
v -0.12353012 -0.09345409 -15.98480225 0.25098039 0.27450980 0.65882353
v -0.12807682 -0.08597052 -15.97642899 0.25098039 0.27450980 0.65882353
v -0.12046310 -0.09377822 -15.98819256 0.25098039 0.27450980 0.65882353
v -0.11867592 -0.09407444 -15.98955727 0.25098039 0.27450980 0.65882353
v -0.12373580 -0.08472952 -15.97283936 0.25098039 0.27450980 0.65882353
v -0.11667569 -0.08010425 -15.97756672 0.25098039 0.27450980 0.65882353
v -0.11696832 -0.08466129 -15.98394680 0.25098039 0.27450980 0.65882353
v -0.11662729 -0.08832081 -15.98899078 0.25098039 0.27450980 0.65882353
v -0.11865060 -0.09117936 -15.99205017 0.25098039 0.27450980 0.65882353
v -0.11799708 -0.08198063 -15.98634624 0.25098039 0.27450980 0.65882353
v -0.11808176 -0.08583447 -15.99040318 0.25098039 0.27450980 0.65882353
v -0.11977804 -0.08836187 -15.99319267 0.25098039 0.27450980 0.65882353
v -0.12023281 -0.08023418 -15.98795986 0.25098039 0.27450980 0.65882353
v -0.12052204 -0.08382709 -15.99143028 0.25098039 0.27450980 0.65882353
v -0.12044825 -0.07399525 -15.98056316 0.25098039 0.27450980 0.65882353
v -0.11773251 -0.07661824 -15.97925854 0.25098039 0.27450980 0.65882353
v -0.12122998 -0.08648053 -15.99318409 0.25098039 0.27450980 0.65882353
v -0.12323999 -0.09562390 -15.99013042 0.25098039 0.27450980 0.65882353
v -0.12398897 -0.09271024 -15.99337769 0.25098039 0.27450980 0.65882353
v -0.12334780 -0.09449607 -15.98827839 0.25098039 0.27450980 0.65882353
v -0.13088650 -0.08672501 -15.98168755 0.25098039 0.27450980 0.65882353
v -0.13008079 -0.09053148 -15.98719692 0.25098039 0.27450980 0.65882353
v -0.13208602 -0.08463995 -15.98338223 0.25098039 0.27450980 0.65882353
v -0.13128030 -0.08854821 -15.98869991 0.25098039 0.27450980 0.65882353
v -0.12805194 -0.09362595 -15.98955345 0.25098039 0.27450980 0.65882353
v -0.12722421 -0.09348918 -15.98845959 0.25098039 0.27450980 0.65882353
v -0.12101598 -0.07208255 -15.97869396 0.25098039 0.27450980 0.65882353
v -0.12597680 -0.07173727 -15.97974777 0.25098039 0.27450980 0.65882353
v -0.12509932 -0.07308200 -15.98141289 0.25098039 0.27450980 0.65882353
v -0.12463173 -0.07946491 -15.98939323 0.25098039 0.27450980 0.65882353
v -0.12961289 -0.07423234 -15.98071957 0.25098039 0.27450980 0.65882353
v -0.13231769 -0.07924664 -15.98073673 0.25098039 0.27450980 0.65882353
v -0.13134111 -0.08242399 -15.98577785 0.25098039 0.27450980 0.65882353
v -0.12893778 -0.08075906 -15.98831749 0.25098039 0.27450980 0.65882353
v -0.13069353 -0.08624639 -15.99019909 0.25098039 0.27450980 0.65882353
v -0.12873468 -0.08417256 -15.99070454 0.25098039 0.27450980 0.65882353
v -0.12438613 -0.08290721 -15.99262810 0.25098039 0.27450980 0.65882353
v -0.12818606 -0.08890034 -15.99236774 0.25098039 0.27450980 0.65882353
v -0.12884443 -0.09167701 -15.99145699 0.25098039 0.27450980 0.65882353
v -0.12401944 -0.08946525 -15.99421597 0.25098039 0.27450980 0.65882353
v -0.12732062 -0.08654159 -15.99278069 0.25098039 0.27450980 0.65882353
v -0.12413454 -0.08681093 -15.99410534 0.25098039 0.27450980 0.65882353
v -0.13707383 -0.03166320 -15.98003578 0.25098039 0.27450980 0.65882353
v -0.15641257 -0.04980916 -15.98768711 0.25098039 0.27450980 0.65882353
v -0.15966497 -0.04890251 -15.98989296 0.25098039 0.27450980 0.65882353
v -0.16029310 -0.04565620 -15.98843288 0.25098039 0.27450980 0.65882353
v -0.15662715 -0.04563763 -15.98677254 0.25098039 0.27450980 0.65882353
v -0.15874684 -0.05205258 -15.97728157 0.25098039 0.27450980 0.65882353
v -0.15587765 -0.05194892 -15.98064423 0.25098039 0.27450980 0.65882353
v -0.15552571 -0.04753147 -15.97865772 0.25098039 0.27450980 0.65882353
v -0.15832378 -0.04751358 -15.97535229 0.25098039 0.27450980 0.65882353
v -0.16354626 -0.05187612 -15.97662449 0.25098039 0.27450980 0.65882353
v -0.16345105 -0.04738361 -15.97500706 0.25098039 0.27450980 0.65882353
v -0.15777856 -0.04407753 -15.97407722 0.25098039 0.27450980 0.65882353
v -0.15477346 -0.04397928 -15.97774220 0.25098039 0.27450980 0.65882353
v -0.15187456 -0.02826889 -15.97697735 0.25098039 0.27450980 0.65882353
v -0.15550341 -0.02609876 -15.97321415 0.25098039 0.27450980 0.65882353
v -0.16857825 -0.02174101 -15.98609638 0.25098039 0.27450980 0.65882353
v -0.16383561 -0.02069045 -15.99062252 0.25098039 0.27450980 0.65882353
v -0.16474771 -0.02954358 -15.98862076 0.25098039 0.27450980 0.65882353
v -0.16842093 -0.02853391 -15.98489189 0.25098039 0.27450980 0.65882353
v -0.15531304 -0.05100723 -15.98434544 0.25098039 0.27450980 0.65882353
v -0.15470915 -0.04674650 -15.98344803 0.25098039 0.27450980 0.65882353
v -0.16891453 -0.04133097 -15.98570824 0.25098039 0.27450980 0.65882353
v -0.16506705 -0.04181423 -15.98826504 0.25098039 0.27450980 0.65882353
v -0.16416226 -0.04497716 -15.98912811 0.25098039 0.27450980 0.65882353
v -0.16835123 -0.04539857 -15.98749638 0.25098039 0.27450980 0.65882353
v -0.15829167 -0.02250984 -15.99128532 0.25098039 0.27450980 0.65882353
v -0.15368032 -0.02395758 -15.98936749 0.25098039 0.27450980 0.65882353
v -0.15415451 -0.02840941 -15.98928928 0.25098039 0.27450980 0.65882353
v -0.15987578 -0.03068573 -15.98970413 0.25098039 0.27450980 0.65882353
v -0.15106834 -0.02949460 -15.98475838 0.25098039 0.27450980 0.65882353
v -0.17028619 -0.04182455 -15.98202229 0.25098039 0.27450980 0.65882353
v -0.16873538 -0.04283493 -15.97663403 0.25098039 0.27450980 0.65882353
v -0.16926722 -0.02606064 -15.97527122 0.25098039 0.27450980 0.65882353
v -0.16989946 -0.02634014 -15.97998810 0.25098039 0.27450980 0.65882353
v -0.15405798 -0.04419861 -15.98218441 0.25098039 0.27450980 0.65882353
v -0.16080597 -0.04275277 -15.98827744 0.25098039 0.27450980 0.65882353
v -0.15672228 -0.04355628 -15.98645973 0.25098039 0.27450980 0.65882353
v -0.16339277 -0.04364422 -15.97329044 0.25098039 0.27450980 0.65882353
v -0.16852081 -0.04711224 -15.97830009 0.25098039 0.27450980 0.65882353
v -0.16995305 -0.05856394 -15.98875618 0.25098039 0.27450980 0.65882353
v -0.17022738 -0.04966162 -15.98505116 0.25098039 0.27450980 0.65882353
v -0.16796094 -0.04887830 -15.98921013 0.25098039 0.27450980 0.65882353
v -0.16869684 -0.05771747 -15.99133205 0.25098039 0.27450980 0.65882353
v -0.17004171 -0.04600360 -15.98346233 0.25098039 0.27450980 0.65882353
v -0.16865653 -0.05137151 -15.98002243 0.25098039 0.27450980 0.65882353
v -0.15669678 -0.05804632 -15.99122429 0.25098039 0.27450980 0.65882353
v -0.16121992 -0.05664755 -15.99326992 0.25098039 0.27450980 0.65882353
v -0.15551966 -0.05911920 -15.98843765 0.25098039 0.27450980 0.65882353
v -0.16234529 -0.02579507 -15.97154999 0.25098039 0.27450980 0.65882353
v -0.15877724 -0.06137445 -15.98213100 0.25098039 0.27450980 0.65882353
v -0.15592518 -0.06084767 -15.98536205 0.25098039 0.27450980 0.65882353
v -0.16362345 -0.04863681 -15.99052525 0.25098039 0.27450980 0.65882353
v -0.16560549 -0.05669374 -15.99306297 0.25098039 0.27450980 0.65882353
v -0.16887149 -0.05997177 -15.98483276 0.25098039 0.27450980 0.65882353
v -0.16416818 -0.06089435 -15.98111725 0.25098039 0.27450980 0.65882353
v -0.16818497 -0.06430639 -15.98734760 0.25098039 0.27450980 0.65882353
v -0.16330576 -0.06497607 -15.98368263 0.25098039 0.27450980 0.65882353
v -0.15765336 -0.06509505 -15.98534298 0.25098039 0.27450980 0.65882353
v -0.15571620 -0.06310533 -15.98782825 0.25098039 0.27450980 0.65882353
v -0.15536091 -0.06139791 -15.99048424 0.25098039 0.27450980 0.65882353
v -0.16939840 -0.06233585 -15.99108791 0.25098039 0.27450980 0.65882353
v -0.16822825 -0.06080661 -15.99343491 0.25098039 0.27450980 0.65882353
v -0.16538066 -0.05884301 -15.99480534 0.25098039 0.27450980 0.65882353
v -0.16870023 -0.06593657 -15.99375725 0.25098039 0.27450980 0.65882353
v -0.16677159 -0.06944342 -15.99121761 0.25098039 0.27450980 0.65882353
v -0.15625036 -0.07457086 -15.99813175 0.25098039 0.27450980 0.65882353
v -0.15620860 -0.07169303 -15.99504185 0.25098039 0.27450980 0.65882353
v -0.15706511 -0.07238512 -15.99444675 0.25098039 0.27450980 0.65882353
v -0.15650696 -0.07540223 -15.99732590 0.25098039 0.27450980 0.65882353
v -0.15726650 -0.06922048 -15.99018574 0.25098039 0.27450980 0.65882353
v -0.15828113 -0.07043698 -15.99087238 0.25098039 0.27450980 0.65882353
v -0.16158903 -0.06998329 -15.98963833 0.25098039 0.27450980 0.65882353
v -0.16097018 -0.07376221 -15.99344921 0.25098039 0.27450980 0.65882353
v -0.16578496 -0.07304212 -15.99575233 0.25098039 0.27450980 0.65882353
v -0.16473472 -0.07612835 -15.99852562 0.25098039 0.27450980 0.65882353
v -0.16066308 -0.07664354 -15.99603939 0.25098039 0.27450980 0.65882353
v -0.16529535 -0.07090595 -15.99160480 0.25098039 0.27450980 0.65882353
v -0.15711914 -0.07778937 -15.99871922 0.25098039 0.27450980 0.65882353
v -0.15644297 -0.07823913 -15.99998856 0.25098039 0.27450980 0.65882353
v -0.16189188 -0.06904982 -15.98780537 0.25098039 0.27450980 0.65882353
v -0.15508182 -0.06601709 -15.99164009 0.25098039 0.27450980 0.65882353
v -0.15488800 -0.07072294 -15.99696541 0.25098039 0.27450980 0.65882353
v -0.15527877 -0.07461630 -16.00036812 0.25098039 0.27450980 0.65882353
v -0.15686807 -0.07761772 -16.00229073 0.25098039 0.27450980 0.65882353
v -0.15510650 -0.06835561 -15.99831104 0.25098039 0.27450980 0.65882353
v -0.15531167 -0.07301426 -16.00228691 0.25098039 0.27450980 0.65882353
v -0.15713018 -0.07569359 -16.00413132 0.25098039 0.27450980 0.65882353
v -0.15669972 -0.06598912 -16.00026512 0.25098039 0.27450980 0.65882353
v -0.15693893 -0.07095848 -16.00338364 0.25098039 0.27450980 0.65882353
v -0.15726151 -0.06093742 -15.99550438 0.25098039 0.27450980 0.65882353
v -0.15545399 -0.06336448 -15.99366093 0.25098039 0.27450980 0.65882353
v -0.15792049 -0.07387365 -16.00430679 0.25098039 0.27450980 0.65882353
v -0.16000962 -0.07968150 -16.00026321 0.25098039 0.27450980 0.65882353
v -0.16000505 -0.07843402 -16.00312805 0.25098039 0.27450980 0.65882353
v -0.16040009 -0.07918897 -15.99885464 0.25098039 0.27450980 0.65882353
v -0.16689065 -0.07229976 -15.99645519 0.25098039 0.27450980 0.65882353
v -0.16569722 -0.07594472 -15.99999523 0.25098039 0.27450980 0.65882353
v -0.16770756 -0.07052647 -15.99817085 0.25098039 0.27450980 0.65882353
v -0.16578045 -0.07467794 -16.00187874 0.25098039 0.27450980 0.65882353
v -0.16353145 -0.07860948 -16.00128746 0.25098039 0.27450980 0.65882353
v -0.16299661 -0.07830654 -15.99934006 0.25098039 0.27450980 0.65882353
v -0.15714261 -0.05965395 -15.99366188 0.25098039 0.27450980 0.65882353
v -0.16103727 -0.05844514 -15.99461269 0.25098039 0.27450980 0.65882353
v -0.16124624 -0.05997802 -15.99653721 0.25098039 0.27450980 0.65882353
v -0.16028605 -0.06488889 -16.00139427 0.25098039 0.27450980 0.65882353
v -0.16546968 -0.06074547 -15.99657822 0.25098039 0.27450980 0.65882353
v -0.16796583 -0.06327933 -15.99529648 0.25098039 0.27450980 0.65882353
v -0.16681837 -0.06838122 -15.99985218 0.25098039 0.27450980 0.65882353
v -0.16452880 -0.06629470 -16.00136375 0.25098039 0.27450980 0.65882353
v -0.16485107 -0.07326362 -16.00347519 0.25098039 0.27450980 0.65882353
v -0.16291368 -0.07101855 -16.00446510 0.25098039 0.27450980 0.65882353
v -0.15981066 -0.06992219 -16.00455475 0.25098039 0.27450980 0.65882353
v -0.16223890 -0.07598388 -16.00441742 0.25098039 0.27450980 0.65882353
v -0.16302210 -0.07756057 -16.00345039 0.25098039 0.27450980 0.65882353
v -0.15994328 -0.07645707 -16.00442314 0.25098039 0.27450980 0.65882353
v -0.16142118 -0.07415867 -16.00502777 0.25098039 0.27450980 0.65882353
v -0.15977287 -0.07393515 -16.00489426 0.25098039 0.27450980 0.65882353
v -0.16958645 -0.02290358 -15.98202991 0.25098039 0.27450980 0.65882353
v -0.09278780 0.00766392 -16.05001640 0.25098039 0.27450980 0.65882353
v -0.09478651 0.00426830 -16.04571724 0.25098039 0.27450980 0.65882353
v -0.10811283 -0.00259363 -16.05254555 0.25098039 0.27450980 0.65882353
v -0.10382181 -0.00301121 -16.04701996 0.25098039 0.27450980 0.65882353
v -0.10887781 -0.00015191 -16.05858040 0.25098039 0.27450980 0.65882353
v -0.10315782 0.00790969 -16.06260872 0.25098039 0.27450980 0.65882353
v -0.10744558 0.00458273 -16.06151199 0.25098039 0.27450980 0.65882353
v -0.09897326 -0.00035780 -16.04467964 0.25098039 0.27450980 0.65882353
v -0.09322257 0.01048141 -16.05509949 0.25098039 0.27450980 0.65882353
v -0.09760438 0.01108234 -16.06052399 0.25098039 0.27450980 0.65882353
v -0.08855674 0.00458202 -16.05780983 0.25098039 0.27450980 0.65882353
v -0.09310062 0.00463401 -16.06380081 0.25098039 0.27450980 0.65882353
v -0.09854564 0.00119491 -16.06645012 0.25098039 0.27450980 0.65882353
v -0.10387790 -0.00199284 -16.06460762 0.25098039 0.27450980 0.65882353
v -0.10613135 -0.00498969 -16.06158066 0.25098039 0.27450980 0.65882353
v -0.08994871 0.00191126 -16.05152130 0.25098039 0.27450980 0.65882353
v -0.09255053 -0.00136128 -16.04747772 0.25098039 0.27450980 0.65882353
v -0.09800190 -0.00489770 -16.04655457 0.25098039 0.27450980 0.65882353
v -0.08719979 -0.00578119 -16.05217552 0.25098039 0.27450980 0.65882353
v -0.08402684 -0.01242440 -16.05934334 0.25098039 0.27450980 0.65882353
v -0.08919770 -0.02531756 -16.07161522 0.25098039 0.27450980 0.65882353
v -0.09285457 -0.01975999 -16.07031441 0.25098039 0.27450980 0.65882353
v -0.08995129 -0.01920190 -16.07011414 0.25098039 0.27450980 0.65882353
v -0.08677930 -0.02397871 -16.07194519 0.25098039 0.27450980 0.65882353
v -0.09292573 -0.01442387 -16.06922531 0.25098039 0.27450980 0.65882353
v -0.09077074 -0.01547680 -16.06854820 0.25098039 0.27450980 0.65882353
v -0.08732845 -0.01341374 -16.06529045 0.25098039 0.27450980 0.65882353
v -0.08435188 -0.01755393 -16.06734085 0.25098039 0.27450980 0.65882353
v -0.08435971 -0.01433517 -16.06141281 0.25098039 0.27450980 0.65882353
v -0.08243383 -0.01775132 -16.06135178 0.25098039 0.27450980 0.65882353
v -0.08167577 -0.02199664 -16.06872749 0.25098039 0.27450980 0.65882353
v -0.08323602 -0.02614971 -16.07243156 0.25098039 0.27450980 0.65882353
v -0.07959081 -0.02617668 -16.06972504 0.25098039 0.27450980 0.65882353
v -0.08499140 -0.02867194 -16.07146072 0.25098039 0.27450980 0.65882353
v -0.08652483 -0.01146034 -16.06622314 0.25098039 0.27450980 0.65882353
v -0.09940889 -0.01107924 -16.06778717 0.25098039 0.27450980 0.65882353
v -0.09656475 -0.01962375 -16.06861115 0.25098039 0.27450980 0.65882353
v -0.09215930 -0.02633610 -16.06925964 0.25098039 0.27450980 0.65882353
v -0.08688533 -0.03000854 -16.06907272 0.25098039 0.27450980 0.65882353
v -0.09916268 -0.02038218 -16.06479454 0.25098039 0.27450980 0.65882353
v -0.09427035 -0.02629103 -16.06506157 0.25098039 0.27450980 0.65882353
v -0.08922799 -0.02939303 -16.06431580 0.25098039 0.27450980 0.65882353
v -0.09932588 -0.02088114 -16.05998993 0.25098039 0.27450980 0.65882353
v -0.09421338 -0.02592076 -16.06103897 0.25098039 0.27450980 0.65882353
v -0.10470350 -0.00936297 -16.05694771 0.25098039 0.27450980 0.65882353
v -0.10404637 -0.00986800 -16.06331062 0.25098039 0.27450980 0.65882353
v -0.09035864 -0.02817236 -16.06181526 0.25098039 0.27450980 0.65882353
v -0.07924418 -0.02877746 -16.06904030 0.25098039 0.27450980 0.65882353
v -0.08156630 -0.03031253 -16.06602478 0.25098039 0.27450980 0.65882353
v -0.08223338 -0.01729492 -16.05772209 0.25098039 0.27450980 0.65882353
v -0.07918738 -0.02161572 -16.06287766 0.25098039 0.27450980 0.65882353
v -0.07975166 -0.02244989 -16.05966377 0.25098039 0.27450980 0.65882353
v -0.08385284 -0.01668841 -16.05385399 0.25098039 0.27450980 0.65882353
v -0.08088903 -0.02331193 -16.05686569 0.25098039 0.27450980 0.65882353
v -0.07799841 -0.02640199 -16.06349373 0.25098039 0.27450980 0.65882353
v -0.07819431 -0.02445210 -16.06572533 0.25098039 0.27450980 0.65882353
v -0.10638033 -0.00608440 -16.05557060 0.25098039 0.27450980 0.65882353
v -0.10332043 -0.00579685 -16.04971504 0.25098039 0.27450980 0.65882353
v -0.10139155 -0.00871061 -16.05102730 0.25098039 0.27450980 0.65882353
v -0.09662305 -0.01957493 -16.05430412 0.25098039 0.27450980 0.65882353
v -0.09620689 -0.00861399 -16.04777527 0.25098039 0.27450980 0.65882353
v -0.09046175 -0.00716472 -16.04891777 0.25098039 0.27450980 0.65882353
v -0.08681892 -0.01754986 -16.05134392 0.25098039 0.27450980 0.65882353
v -0.09163694 -0.01857308 -16.05103683 0.25098039 0.27450980 0.65882353
v -0.08421580 -0.02429007 -16.05517006 0.25098039 0.27450980 0.65882353
v -0.08738837 -0.02475813 -16.05510521 0.25098039 0.27450980 0.65882353
v -0.09169744 -0.02589245 -16.05741882 0.25098039 0.27450980 0.65882353
v -0.08320352 -0.02783978 -16.05894661 0.25098039 0.27450980 0.65882353
v -0.07982081 -0.02753251 -16.06068611 0.25098039 0.27450980 0.65882353
v -0.08497520 -0.02981987 -16.06235313 0.25098039 0.27450980 0.65882353
v -0.08598992 -0.02707437 -16.05795670 0.25098039 0.27450980 0.65882353
v -0.08782364 -0.02819539 -16.06007957 0.25098039 0.27450980 0.65882353
v -0.16559686 -0.01636842 -15.99089432 0.25098039 0.27450980 0.65882353
v -0.15928404 -0.01726554 -15.99289131 0.25098039 0.27450980 0.65882353
v -0.16336757 -0.01264657 -15.99466038 0.25098039 0.27450980 0.65882353
v -0.16723569 -0.00487024 -15.99783516 0.25098039 0.27450980 0.65882353
v -0.17506246 0.00288770 -15.99811172 0.25098039 0.27450980 0.65882353
v -0.16078842 -0.00390473 -15.99956512 0.25098039 0.27450980 0.65882353
v -0.15711907 -0.01190227 -15.99563980 0.25098039 0.27450980 0.65882353
v -0.15173177 -0.01919882 -15.99191093 0.25098039 0.27450980 0.65882353
v -0.15693983 0.00450855 -16.00370026 0.25098039 0.27450980 0.65882353
f 2 3 1
f 1 3 4
f 5 6 8
f 8 6 7
f 9 4 10
f 10 4 3
f 12 13 11
f 11 13 9
f 14 12 16
f 16 12 15
f 18 19 17
f 17 19 20
f 22 23 21
f 21 23 24
f 26 27 25
f 25 27 28
f 30 31 29
f 29 31 32
f 33 34 36
f 36 34 35
f 37 38 40
f 40 38 39
f 41 42 6
f 6 42 43
f 6 43 7
f 7 43 44
f 45 34 46
f 46 34 33
f 48 49 47
f 47 49 50
f 52 53 51
f 51 53 54
f 56 52 55
f 55 52 51
f 58 59 57
f 57 59 60
f 61 62 4
f 4 62 1
f 64 65 63
f 63 65 66
f 68 69 67
f 67 69 70
f 72 73 71
f 71 73 74
f 76 77 75
f 75 77 78
f 53 79 54
f 54 79 80
f 82 83 81
f 81 83 84
f 85 86 52
f 52 86 53
f 57 60 87
f 87 60 88
f 89 90 43
f 43 90 44
f 43 42 89
f 89 42 91
f 40 39 92
f 92 39 93
f 94 70 64
f 64 70 69
f 13 61 9
f 9 61 4
f 25 28 69
f 69 28 95
f 96 25 68
f 68 25 69
f 98 99 97
f 97 99 100
f 101 102 104
f 104 102 103
f 106 30 105
f 105 30 29
f 51 54 107
f 107 54 108
f 54 80 108
f 108 80 109
f 111 112 110
f 110 112 113
f 115 5 114
f 114 5 116
f 115 41 5
f 5 41 6
f 36 35 111
f 111 35 117
f 35 118 117
f 117 118 119
f 34 120 35
f 35 120 118
f 34 45 120
f 120 45 121
f 125 126 124
f 124 126 127
f 128 129 14
f 14 129 130
f 33 131 46
f 46 131 132
f 133 94 63
f 63 94 64
f 134 135 137
f 137 135 136
f 139 140 138
f 138 140 141
f 77 142 78
f 78 142 143
f 144 145 20
f 20 145 146
f 148 149 147
f 147 149 72
f 151 152 150
f 150 152 153
f 82 101 83
f 83 101 104
f 101 82 155
f 155 82 154
f 156 157 58
f 58 157 59
f 158 68 147
f 147 68 67
f 159 146 15
f 15 146 16
f 68 158 96
f 96 158 160
f 129 66 130
f 130 66 65
f 162 163 161
f 161 163 164
f 166 167 165
f 165 167 168
f 170 171 169
f 169 171 172
f 174 171 173
f 173 171 170
f 176 177 175
f 175 177 178
f 180 181 179
f 179 181 24
f 182 183 21
f 21 183 184
f 81 185 82
f 82 185 154
f 186 187 188
f 188 187 144
f 158 71 160
f 160 71 189
f 190 135 157
f 157 135 59
f 169 172 139
f 139 172 140
f 147 72 158
f 158 72 71
f 192 193 191
f 191 193 194
f 167 166 49
f 49 166 195
f 196 190 50
f 50 190 157
f 197 198 200
f 200 198 199
f 21 24 182
f 182 24 181
f 146 159 20
f 20 159 17
f 182 181 81
f 81 181 185
f 201 185 180
f 180 185 181
f 202 203 83
f 83 203 84
f 205 206 204
f 204 206 85
f 207 22 184
f 184 22 21
f 179 24 208
f 208 24 23
f 208 209 179
f 179 209 205
f 209 210 205
f 205 210 206
f 212 206 211
f 211 206 210
f 179 205 180
f 180 205 204
f 213 176 88
f 88 176 214
f 86 85 212
f 212 85 206
f 193 217 218
f 217 219 218
f 218 219 220
f 219 18 220
f 220 18 17
f 19 221 20
f 20 221 144
f 222 223 225
f 225 223 224
f 175 226 176
f 176 226 214
f 227 87 214
f 214 87 88
f 220 17 228
f 228 17 159
f 134 213 60
f 60 213 88
f 138 229 151
f 151 229 152
f 193 192 210
f 210 192 211
f 230 194 218
f 218 194 193
f 231 232 228
f 228 232 230
f 233 234 91
f 91 234 89
f 235 236 93
f 93 236 92
f 230 232 234
f 234 232 237
f 47 238 48
f 48 238 239
f 240 191 235
f 235 191 236
f 5 8 116
f 116 8 241
f 242 243 189
f 189 243 160
f 244 245 98
f 98 245 99
f 156 246 47
f 47 246 238
f 76 247 77
f 77 247 248
f 250 125 249
f 249 125 124
f 252 253 251
f 251 253 254
f 111 110 36
f 36 110 255
f 256 33 255
f 255 33 36
f 257 258 154
f 154 258 155
f 63 169 133
f 133 169 139
f 66 170 63
f 63 170 169
f 173 170 129
f 129 170 66
f 129 128 173
f 173 128 259
f 128 260 259
f 259 260 261
f 213 134 262
f 262 134 137
f 263 264 186
f 186 264 187
f 112 265 113
f 113 265 266
f 11 267 268
f 234 233 230
f 230 233 194
f 153 269 70
f 70 269 67
f 175 178 165
f 165 178 141
f 150 153 94
f 94 153 70
f 271 221 270
f 270 221 207
f 269 153 272
f 272 153 152
f 121 45 109
f 109 45 108
f 47 50 156
f 156 50 157
f 57 273 58
f 58 273 274
f 145 275 260
f 260 275 261
f 276 149 143
f 143 149 78
f 148 269 75
f 75 269 272
f 207 277 270
f 270 277 278
f 195 196 49
f 49 196 50
f 59 135 60
f 60 135 134
f 83 104 202
f 202 104 279
f 149 148 78
f 78 148 75
f 247 278 248
f 248 278 277
f 183 182 84
f 84 182 81
f 48 239 281
f 281 239 282
f 227 223 283
f 283 223 222
f 223 226 224
f 224 226 168
f 281 282 224
f 224 282 225
f 165 168 175
f 175 168 226
f 264 263 138
f 138 263 229
f 14 16 128
f 128 16 260
f 220 228 218
f 218 228 230
f 87 227 284
f 284 227 283
f 260 16 145
f 145 16 146
f 244 98 258
f 258 98 155
f 58 274 156
f 156 274 246
f 107 285 51
f 51 285 55
f 243 286 160
f 160 286 96
f 234 237 89
f 89 237 90
f 46 132 107
f 107 132 285
f 253 252 249
f 249 252 250
f 286 26 96
f 96 26 25
f 106 105 287
f 287 105 288
f 272 152 289
f 289 152 229
f 138 151 139
f 139 151 133
f 183 290 161
f 161 290 162
f 291 292 277
f 277 292 293
f 151 150 133
f 133 150 94
f 262 275 177
f 177 275 187
f 144 187 145
f 145 187 275
f 273 57 284
f 284 57 87
f 174 136 190
f 190 136 135
f 111 117 112
f 112 117 38
f 117 119 38
f 38 119 123
f 112 38 265
f 265 38 37
f 287 288 254
f 254 288 251
f 228 159 231
f 231 159 15
f 223 227 226
f 226 227 214
f 147 67 148
f 148 67 269
f 224 168 281
f 281 168 167
f 199 163 200
f 200 163 162
f 45 46 108
f 108 46 107
f 281 167 48
f 48 167 49
f 161 164 291
f 291 164 292
f 38 123 39
f 293 294 277
f 277 294 248
f 284 283 296
f 296 283 295
f 284 296 273
f 273 296 297
f 274 273 298
f 298 273 297
f 246 274 299
f 299 274 298
f 283 222 295
f 295 222 300
f 222 225 300
f 300 225 301
f 301 225 302
f 302 225 282
f 303 304 300
f 300 304 295
f 306 307 305
f 305 307 308
f 309 310 308
f 308 310 305
f 308 307 312
f 312 307 311
f 313 314 312
f 312 314 315
f 311 316 312
f 312 316 313
f 317 304 311
f 311 304 316
f 315 309 312
f 312 309 308
f 318 319 321
f 321 319 320
f 319 318 309
f 309 318 310
f 311 307 317
f 317 307 306
f 306 297 317
f 317 297 296
f 306 322 297
f 297 322 298
f 305 323 306
f 306 323 322
f 323 305 324
f 324 305 310
f 304 317 295
f 295 317 296
f 318 325 310
f 310 325 324
f 323 324 326
f 326 324 327
f 324 325 327
f 327 325 328
f 326 327 329
f 329 327 330
f 329 331 326
f 326 331 332
f 333 330 328
f 328 330 327
f 323 326 322
f 322 326 332
f 322 332 298
f 298 332 299
f 325 318 334
f 334 318 321
f 313 316 335
f 335 316 304
f 335 336 313
f 313 336 314
f 304 303 335
f 335 303 337
f 336 335 338
f 338 335 337
f 336 339 314
f 314 339 340
f 246 299 238
f 238 299 341
f 239 342 282
f 282 342 302
f 342 239 341
f 341 239 238
f 341 331 342
f 342 331 343
f 331 329 343
f 343 329 344
f 342 343 302
f 302 343 345
f 341 299 331
f 331 299 332
f 346 301 345
f 345 301 302
f 346 303 301
f 301 303 300
f 347 337 346
f 346 337 303
f 347 346 348
f 348 346 345
f 349 347 350
f 350 347 348
f 343 344 345
f 345 344 348
f 344 351 348
f 348 351 350
f 337 347 338
f 338 347 349
f 353 338 352
f 352 338 349
f 352 355 354
f 354 355 356
f 352 349 355
f 355 349 350
f 352 354 353
f 353 354 334
f 353 334 339
f 339 334 321
f 339 336 353
f 353 336 338
f 329 330 344
f 344 330 351
f 356 351 333
f 333 351 330
f 356 355 351
f 351 355 350
f 354 356 328
f 328 356 333
f 328 325 354
f 354 325 334
f 309 315 319
f 319 315 320
f 320 340 321
f 321 340 339
f 320 315 340
f 340 315 314
f 137 136 261
f 261 136 259
f 140 166 141
f 141 166 165
f 172 171 195
f 195 171 196
f 171 174 196
f 196 174 190
f 178 177 264
f 264 177 187
f 172 195 140
f 140 195 166
f 137 261 262
f 262 261 275
f 178 264 141
f 141 264 138
f 262 177 213
f 213 177 176
f 136 174 259
f 259 174 173
f 358 359 357
f 357 359 360
f 362 363 361
f 361 363 364
f 361 364 365
f 365 364 366
f 367 368 370
f 370 368 369
f 76 371 247
f 247 371 372
f 373 374 362
f 362 374 363
f 376 377 375
f 375 377 378
f 289 229 380
f 380 229 379
f 381 379 263
f 263 379 229
f 383 384 382
f 382 384 385
f 386 368 374
f 374 368 363
f 76 289 371
f 371 289 380
f 377 376 359
f 359 376 387
f 388 386 360
f 360 386 374
f 389 383 366
f 366 383 390
f 392 393 391
f 391 393 394
f 383 382 390
f 390 382 395
f 396 365 390
f 390 365 366
f 389 366 367
f 367 366 364
f 357 397 358
f 358 397 398
f 373 399 357
f 357 399 397
f 389 367 400
f 400 367 370
f 382 385 375
f 375 385 372
f 357 360 373
f 373 360 374
f 361 401 362
f 362 401 402
f 387 388 359
f 359 388 360
f 363 368 364
f 364 368 367
f 358 398 403
f 403 398 404
f 396 392 405
f 405 392 391
f 392 395 393
f 393 395 378
f 393 403 394
f 394 403 404
f 375 378 382
f 382 378 395
f 365 396 406
f 406 396 405
f 362 402 373
f 373 402 399
f 271 270 400
f 400 270 384
f 401 361 406
f 406 361 365
f 381 369 386
f 386 369 368
f 392 396 395
f 395 396 390
f 393 378 403
f 403 378 377
f 403 377 358
f 358 377 359
f 406 405 408
f 408 405 407
f 406 408 401
f 401 408 409
f 401 409 402
f 402 409 410
f 402 410 399
f 399 410 411
f 405 391 407
f 407 391 412
f 391 394 412
f 412 394 413
f 394 404 413
f 413 404 414
f 415 416 412
f 412 416 407
f 418 419 417
f 417 419 420
f 421 422 418
f 418 422 419
f 419 422 424
f 424 422 423
f 425 426 424
f 424 426 427
f 423 428 424
f 424 428 425
f 427 420 424
f 424 420 419
f 420 429 417
f 417 429 430
f 423 422 431
f 431 422 421
f 421 409 431
f 431 409 408
f 421 432 409
f 409 432 410
f 418 433 421
f 421 433 432
f 434 433 417
f 417 433 418
f 431 416 423
f 423 416 428
f 416 431 407
f 407 431 408
f 435 434 430
f 430 434 417
f 433 434 436
f 436 434 437
f 434 435 437
f 437 435 438
f 436 437 439
f 439 437 440
f 439 441 436
f 436 441 442
f 438 443 437
f 437 443 440
f 436 442 433
f 433 442 432
f 432 442 410
f 410 442 411
f 435 430 445
f 445 430 444
f 430 429 444
f 444 429 446
f 425 428 447
f 447 428 416
f 426 425 448
f 448 425 447
f 416 415 447
f 447 415 449
f 447 449 448
f 448 449 450
f 451 452 448
f 448 452 426
f 446 452 444
f 444 452 451
f 399 411 397
f 397 411 453
f 398 454 404
f 404 454 414
f 454 398 453
f 453 398 397
f 453 441 454
f 454 441 455
f 441 439 455
f 455 439 456
f 454 455 414
f 414 455 457
f 441 453 442
f 442 453 411
f 458 413 457
f 457 413 414
f 458 415 413
f 413 415 412
f 458 459 415
f 415 459 449
f 459 458 460
f 460 458 457
f 461 459 462
f 462 459 460
f 455 456 457
f 457 456 460
f 456 463 460
f 460 463 462
f 459 461 449
f 449 461 450
f 465 450 464
f 464 450 461
f 464 467 466
f 466 467 468
f 464 461 467
f 467 461 462
f 464 466 465
f 465 466 445
f 465 445 451
f 451 445 444
f 451 448 465
f 465 448 450
f 439 440 456
f 456 440 463
f 468 463 443
f 443 463 440
f 468 467 463
f 463 467 462
f 466 468 438
f 438 468 443
f 438 435 466
f 466 435 445
f 420 427 429
f 429 427 446
f 446 427 452
f 452 427 426
f 370 369 188
f 188 369 186
f 371 376 372
f 372 376 375
f 380 379 387
f 387 379 388
f 379 381 388
f 388 381 386
f 385 384 278
f 278 384 270
f 380 387 371
f 371 387 376
f 400 370 271
f 271 370 188
f 385 278 372
f 372 278 247
f 400 384 389
f 389 384 383
f 369 381 186
f 186 381 263
f 221 271 144
f 144 271 188
f 221 19 207
f 207 19 22
f 19 18 22
f 22 18 23
f 18 219 23
f 23 219 208
f 469 470 472
f 472 470 471
f 474 475 473
f 473 475 476
f 473 476 477
f 477 476 478
f 480 481 479
f 479 481 482
f 483 484 474
f 474 484 475
f 486 487 485
f 485 487 488
f 489 490 77
f 77 490 142
f 491 489 248
f 248 489 77
f 493 494 492
f 492 494 495
f 496 480 484
f 484 480 475
f 486 497 487
f 487 497 471
f 498 496 472
f 472 496 484
f 499 493 478
f 478 493 500
f 501 502 504
f 504 502 503
f 493 492 500
f 500 492 505
f 506 477 500
f 500 477 478
f 499 478 479
f 479 478 476
f 469 507 470
f 470 507 508
f 483 509 469
f 469 509 507
f 479 482 499
f 499 482 510
f 492 495 485
f 485 495 511
f 483 469 484
f 484 469 472
f 473 512 474
f 474 512 513
f 497 498 471
f 471 498 472
f 475 480 476
f 476 480 479
f 470 508 514
f 514 508 515
f 506 502 516
f 516 502 501
f 503 502 488
f 488 502 505
f 514 515 503
f 503 515 504
f 485 488 492
f 492 488 505
f 477 506 517
f 517 506 516
f 474 513 483
f 483 513 509
f 510 292 494
f 494 292 164
f 512 473 517
f 517 473 477
f 491 481 496
f 496 481 480
f 502 506 505
f 505 506 500
f 503 488 514
f 514 488 487
f 514 487 470
f 470 487 471
f 517 516 519
f 519 516 518
f 517 519 512
f 512 519 520
f 512 520 513
f 513 520 521
f 513 521 509
f 509 521 522
f 516 501 518
f 518 501 523
f 501 504 523
f 523 504 524
f 524 504 525
f 525 504 515
f 526 527 523
f 523 527 518
f 529 530 528
f 528 530 531
f 532 533 529
f 529 533 530
f 530 533 535
f 535 533 534
f 536 537 535
f 535 537 538
f 534 539 535
f 535 539 536
f 538 531 535
f 535 531 530
f 540 541 531
f 531 541 528
f 533 532 534
f 534 532 542
f 532 520 542
f 542 520 519
f 532 543 520
f 520 543 521
f 529 544 532
f 532 544 543
f 544 529 545
f 545 529 528
f 534 542 539
f 539 542 527
f 527 542 518
f 518 542 519
f 541 546 528
f 528 546 545
f 547 544 548
f 548 544 545
f 546 549 545
f 545 549 548
f 550 547 551
f 551 547 548
f 547 550 553
f 553 550 552
f 549 554 548
f 548 554 551
f 544 547 543
f 543 547 553
f 543 553 521
f 521 553 522
f 546 541 556
f 556 541 555
f 541 540 555
f 555 540 557
f 536 539 558
f 558 539 527
f 537 536 559
f 559 536 558
f 527 526 558
f 558 526 560
f 559 558 561
f 561 558 560
f 559 562 537
f 537 562 563
f 557 563 555
f 555 563 562
f 509 522 507
f 507 522 564
f 508 565 515
f 515 565 525
f 565 508 564
f 564 508 507
f 564 552 565
f 565 552 566
f 552 550 566
f 566 550 567
f 565 566 525
f 525 566 568
f 564 522 552
f 552 522 553
f 569 524 568
f 568 524 525
f 569 526 524
f 524 526 523
f 570 560 569
f 569 560 526
f 570 569 571
f 571 569 568
f 572 570 573
f 573 570 571
f 566 567 568
f 568 567 571
f 567 574 571
f 571 574 573
f 570 572 560
f 560 572 561
f 576 561 575
f 575 561 572
f 575 578 577
f 577 578 579
f 575 572 578
f 578 572 573
f 575 577 576
f 576 577 556
f 576 556 562
f 562 556 555
f 562 559 576
f 576 559 561
f 550 551 567
f 567 551 574
f 579 574 554
f 554 574 551
f 579 578 574
f 574 578 573
f 579 554 577
f 577 554 549
f 549 546 577
f 577 546 556
f 531 538 540
f 540 538 557
f 557 538 563
f 563 538 537
f 481 294 482
f 482 294 293
f 580 486 511
f 511 486 485
f 490 489 497
f 497 489 498
f 489 491 498
f 498 491 496
f 163 495 164
f 164 495 494
f 580 490 486
f 486 490 497
f 482 293 510
f 510 293 292
f 495 163 511
f 511 163 199
f 494 493 510
f 510 493 499
f 481 491 294
f 294 491 248
f 582 583 581
f 581 583 584
f 586 587 585
f 585 587 588
f 585 588 589
f 589 588 590
f 592 593 591
f 591 593 594
f 595 596 598
f 598 596 597
f 599 600 586
f 586 600 587
f 601 602 604
f 604 602 603
f 605 606 608
f 608 606 607
f 609 607 200
f 200 607 606
f 610 611 613
f 613 611 612
f 600 614 587
f 587 614 592
f 596 605 597
f 597 605 608
f 602 615 603
f 603 615 583
f 616 614 584
f 584 614 600
f 611 618 617
f 617 618 590
f 620 621 619
f 619 621 622
f 610 623 611
f 611 623 618
f 624 589 618
f 618 589 590
f 617 590 591
f 591 590 588
f 581 625 582
f 582 625 626
f 599 627 581
f 581 627 625
f 591 594 617
f 617 594 628
f 601 610 598
f 598 610 613
f 581 584 599
f 599 584 600
f 585 629 586
f 586 629 630
f 615 616 583
f 583 616 584
f 587 592 588
f 588 592 591
f 582 626 631
f 631 626 632
f 624 620 633
f 633 620 619
f 621 620 604
f 604 620 623
f 631 632 621
f 621 632 622
f 610 601 623
f 623 601 604
f 589 624 634
f 634 624 633
f 586 630 599
f 599 630 627
f 203 202 628
f 628 202 612
f 629 585 634
f 634 585 589
f 609 593 614
f 614 593 592
f 620 624 623
f 623 624 618
f 631 621 603
f 603 621 604
f 582 631 583
f 583 631 603
f 634 633 636
f 636 633 635
f 634 636 629
f 629 636 637
f 629 637 630
f 630 637 638
f 630 638 627
f 627 638 639
f 633 619 635
f 635 619 640
f 619 622 640
f 640 622 641
f 641 622 642
f 642 622 632
f 644 635 643
f 643 635 640
f 645 646 648
f 648 646 647
f 649 650 646
f 646 650 647
f 647 650 652
f 652 650 651
f 652 653 655
f 655 653 654
f 651 656 652
f 652 656 653
f 655 648 652
f 652 648 647
f 648 657 645
f 645 657 658
f 650 649 651
f 651 649 659
f 649 637 659
f 659 637 636
f 649 660 637
f 637 660 638
f 661 660 646
f 646 660 649
f 662 661 645
f 645 661 646
f 651 659 656
f 656 659 644
f 644 659 635
f 635 659 636
f 663 662 658
f 658 662 645
f 664 661 665
f 665 661 662
f 663 666 662
f 662 666 665
f 667 664 668
f 668 664 665
f 664 667 670
f 670 667 669
f 666 671 665
f 665 671 668
f 661 664 660
f 660 664 670
f 660 670 638
f 638 670 639
f 658 672 663
f 663 672 673
f 658 657 672
f 672 657 674
f 653 656 675
f 675 656 644
f 653 675 654
f 654 675 676
f 675 644 677
f 677 644 643
f 676 675 678
f 678 675 677
f 679 680 676
f 676 680 654
f 674 680 672
f 672 680 679
f 627 639 625
f 625 639 681
f 626 682 632
f 632 682 642
f 681 682 625
f 625 682 626
f 669 683 681
f 681 683 682
f 667 684 669
f 669 684 683
f 682 683 642
f 642 683 685
f 681 639 669
f 669 639 670
f 686 641 685
f 685 641 642
f 641 686 640
f 640 686 643
f 686 687 643
f 643 687 677
f 687 686 688
f 688 686 685
f 689 687 690
f 690 687 688
f 683 684 685
f 685 684 688
f 684 691 688
f 688 691 690
f 687 689 677
f 677 689 678
f 693 678 692
f 692 678 689
f 692 695 694
f 694 695 696
f 692 689 695
f 695 689 690
f 692 694 693
f 693 694 673
f 693 673 679
f 679 673 672
f 679 676 693
f 693 676 678
f 684 667 691
f 691 667 668
f 696 691 671
f 671 691 668
f 696 695 691
f 691 695 690
f 694 696 666
f 666 696 671
f 666 663 694
f 694 663 673
f 648 655 657
f 657 655 674
f 674 655 680
f 680 655 654
f 593 162 594
f 594 162 290
f 598 597 601
f 601 597 602
f 615 608 616
f 616 608 607
f 607 609 616
f 616 609 614
f 697 595 613
f 613 595 598
f 597 608 602
f 602 608 615
f 594 290 628
f 628 290 203
f 628 612 617
f 617 612 611
f 593 609 162
f 162 609 200
f 105 29 698
f 698 29 699
f 268 126 701
f 701 126 700
f 126 125 700
f 700 125 702
f 252 703 250
f 250 703 704
f 32 268 705
f 705 268 701
f 288 105 706
f 706 105 698
f 29 32 699
f 699 32 705
f 707 251 706
f 706 251 288
f 250 704 125
f 125 704 702
f 703 252 707
f 707 252 251
f 706 708 707
f 707 708 709
f 707 709 703
f 703 709 710
f 703 710 704
f 704 710 711
f 704 711 702
f 702 711 712
f 706 698 708
f 708 698 713
f 698 699 713
f 713 699 714
f 699 705 714
f 714 705 715
f 717 708 716
f 716 708 713
f 719 720 718
f 718 720 721
f 722 723 719
f 719 723 720
f 724 725 723
f 723 725 720
f 724 726 725
f 725 726 727
f 728 721 725
f 725 721 720
f 721 728 729
f 729 728 730
f 729 731 721
f 721 731 718
f 724 723 732
f 732 723 722
f 722 710 732
f 732 710 709
f 722 733 710
f 710 733 711
f 719 734 722
f 722 734 733
f 734 719 735
f 735 719 718
f 724 732 726
f 726 732 717
f 717 732 708
f 708 732 709
f 731 736 718
f 718 736 735
f 737 734 738
f 738 734 735
f 736 739 735
f 735 739 738
f 740 737 741
f 741 737 738
f 737 740 743
f 743 740 742
f 739 744 738
f 738 744 741
f 734 737 733
f 733 737 743
f 733 743 711
f 711 743 712
f 736 731 746
f 746 731 745
f 731 729 745
f 745 729 730
f 727 726 747
f 747 726 717
f 748 727 749
f 749 727 747
f 747 717 750
f 750 717 716
f 749 747 751
f 751 747 750
f 749 752 748
f 748 752 753
f 730 753 745
f 745 753 752
f 728 725 748
f 748 725 727
f 730 728 753
f 753 728 748
f 700 702 754
f 754 702 712
f 705 701 715
f 715 701 755
f 754 755 700
f 700 755 701
f 742 756 754
f 754 756 755
f 740 757 742
f 742 757 756
f 755 756 715
f 715 756 758
f 754 712 742
f 742 712 743
f 759 714 758
f 758 714 715
f 714 759 713
f 713 759 716
f 759 760 716
f 716 760 750
f 760 759 761
f 761 759 758
f 762 760 763
f 763 760 761
f 756 757 758
f 758 757 761
f 757 764 761
f 761 764 763
f 760 762 750
f 750 762 751
f 766 751 765
f 765 751 762
f 767 765 769
f 769 765 768
f 765 762 768
f 768 762 763
f 765 767 766
f 766 767 746
f 766 746 752
f 752 746 745
f 752 749 766
f 766 749 751
f 757 740 764
f 764 740 741
f 769 764 744
f 744 764 741
f 769 768 764
f 764 768 763
f 767 769 739
f 739 769 744
f 739 736 767
f 767 736 746
f 219 217 208
f 208 217 209
f 209 217 210
f 210 217 193
f 198 580 199
f 199 580 511
f 76 75 289
f 289 75 272
f 277 207 291
f 291 207 184
f 290 183 203
f 203 183 84
f 490 580 142
f 142 580 198
f 142 198 143
f 143 198 197
f 149 276 72
f 72 276 73
f 104 103 279
f 279 103 770
f 770 596 279
f 279 596 595
f 605 596 771
f 771 596 770
f 771 770 772
f 772 770 103
f 772 103 773
f 773 103 102
f 155 774 101
f 101 774 102
f 773 102 97
f 97 102 774
f 775 773 100
f 100 773 97
f 773 775 772
f 772 775 776
f 772 776 771
f 771 776 777
f 200 606 197
f 197 606 777
f 189 71 778
f 778 71 74
f 97 774 98
f 98 774 155
f 183 161 184
f 184 161 291
f 777 276 197
f 197 276 143
f 777 606 771
f 771 606 605
f 613 612 697
f 697 612 202
f 595 697 279
f 279 697 202
f 73 276 776
f 776 276 777
f 776 775 73
f 73 775 74
f 100 778 775
f 775 778 74
f 778 100 189
f 189 100 99
f 245 242 99
f 99 242 189
f 131 33 256
f 28 1 95
f 95 1 62
f 27 2 28
f 28 2 1
f 265 115 266
f 266 115 114
f 95 62 69
f 69 62 64
f 62 61 64
f 64 61 65
f 61 13 65
f 65 13 130
f 13 12 130
f 130 12 14
f 31 11 32
f 32 11 268
f 15 12 31
f 31 12 11
f 31 30 15
f 15 30 231
f 30 106 231
f 231 106 232
f 287 237 106
f 106 237 232
f 254 90 287
f 287 90 237
f 253 44 254
f 254 44 90
f 253 249 44
f 44 249 7
f 267 127 268
f 268 127 126
f 10 3 241
f 241 3 116
f 3 2 116
f 116 2 114
f 2 27 114
f 114 27 266
f 27 26 266
f 266 26 113
f 26 286 113
f 113 286 110
f 286 243 110
f 110 243 255
f 243 242 255
f 255 242 256
f 242 245 256
f 256 245 131
f 245 244 131
f 131 244 132
f 265 37 115
f 115 37 41
f 41 37 42
f 42 37 40
f 92 91 40
f 40 91 42
f 236 233 92
f 92 233 91
f 191 194 236
f 236 194 233
f 258 285 244
f 244 285 132
f 257 55 258
f 258 55 285
f 257 154 201
f 201 154 185
f 56 201 204
f 204 201 180
f 55 257 56
f 56 257 201
f 204 85 56
f 56 85 52
f 86 122 53
f 53 122 79
f 212 215 86
f 86 215 122
f 211 216 212
f 212 216 215
f 192 280 211
f 211 280 216
f 191 240 192
f 192 240 280
f 249 124 7
f 7 124 8
f 124 127 8
f 8 127 241
f 127 267 241
f 241 267 10
f 10 267 9
f 9 267 11
f 93 39 235
f 235 39 240
f 39 123 240
f 240 123 280
f 123 119 280
f 280 119 216
f 119 118 216
f 216 118 215
f 118 120 215
f 215 120 122
f 120 121 122
f 122 121 79
f 121 109 79
f 79 109 80

