# https://github.com/mikedh/trimesh
v -0.11736065 -0.01519801 -16.31941986 0.25098039 0.27450980 0.65882353
v -0.12367909 -0.00879685 -16.32481766 0.25098039 0.27450980 0.65882353
v -0.11647044 -0.01192153 -16.33339882 0.25098039 0.27450980 0.65882353
v -0.10989471 -0.01890771 -16.32579803 0.25098039 0.27450980 0.65882353
v -0.12928711 0.00645029 -16.34203911 0.25098039 0.27450980 0.65882353
v -0.12502660 0.01832116 -16.34462929 0.25098039 0.27450980 0.65882353
v -0.11580852 0.00895341 -16.35255051 0.25098039 0.27450980 0.65882353
v -0.12156962 0.00095015 -16.34959984 0.25098039 0.27450980 0.65882353
v -0.10294217 -0.02005698 -16.32954216 0.25098039 0.27450980 0.65882353
v -0.11106858 -0.01493851 -16.33938980 0.25098039 0.27450980 0.65882353
v -0.09807271 -0.01554095 -16.33050728 0.25098039 0.27450980 0.65882353
v -0.09010415 -0.01891676 -16.31586075 0.25098039 0.27450980 0.65882353
v -0.09576920 -0.02231590 -16.31840134 0.25098039 0.27450980 0.65882353
v -0.08702952 -0.02343958 -16.30735970 0.25098039 0.27450980 0.65882353
v -0.08958869 -0.01015165 -16.30997276 0.25098039 0.27450980 0.65882353
v -0.08895566 -0.02119311 -16.29803658 0.25098039 0.27450980 0.65882353
v -0.11145189 -0.00807469 -16.28506660 0.25098039 0.27450980 0.65882353
v -0.12374375 -0.00932155 -16.28051186 0.25098039 0.27450980 0.65882353
v -0.11855280 -0.02335078 -16.27708435 0.25098039 0.27450980 0.65882353
v -0.10662881 -0.02087114 -16.28266716 0.25098039 0.27450980 0.65882353
v -0.13847202 -0.02286489 -16.27695274 0.25098039 0.27450980 0.65882353
v -0.12728050 -0.02391547 -16.27643776 0.25098039 0.27450980 0.65882353
v -0.13226449 -0.00925283 -16.27906227 0.25098039 0.27450980 0.65882353
v -0.14220570 -0.00884070 -16.27932549 0.25098039 0.27450980 0.65882353
v -0.13209172 -0.01076345 -16.31209564 0.25098039 0.27450980 0.65882353
v -0.13838069 -0.00374370 -16.31568527 0.25098039 0.27450980 0.65882353
v -0.13277793 -0.00529953 -16.31708908 0.25098039 0.27450980 0.65882353
v -0.12674668 -0.01122609 -16.31402397 0.25098039 0.27450980 0.65882353
v -0.09311664 -0.00754019 -16.34218407 0.25098039 0.27450980 0.65882353
v -0.09215511 -0.00080264 -16.33018494 0.25098039 0.27450980 0.65882353
v -0.09295347 -0.00864125 -16.32875824 0.25098039 0.27450980 0.65882353
v -0.09693654 -0.01139335 -16.34255981 0.25098039 0.27450980 0.65882353
v -0.15892071 0.01406245 -16.32383537 0.25098039 0.27450980 0.65882353
v -0.16069226 0.02768013 -16.32192421 0.25098039 0.27450980 0.65882353
v -0.15523894 0.02917879 -16.32323265 0.25098039 0.27450980 0.65882353
v -0.15499184 0.01638464 -16.32425308 0.25098039 0.27450980 0.65882353
v -0.13710681 0.02772904 -16.33420753 0.25098039 0.27450980 0.65882353
v -0.13986635 0.03519924 -16.32901573 0.25098039 0.27450980 0.65882353
v -0.13064860 0.04542585 -16.32539749 0.25098039 0.27450980 0.65882353
v -0.12547234 0.03857076 -16.32881355 0.25098039 0.27450980 0.65882353
v -0.13154563 0.02199391 -16.33975983 0.25098039 0.27450980 0.65882353
v -0.12222102 0.03159849 -16.33637810 0.25098039 0.27450980 0.65882353
v -0.11651443 0.02612988 -16.34231567 0.25098039 0.27450980 0.65882353
v -0.10856710 0.01481029 -16.35228539 0.25098039 0.27450980 0.65882353
v -0.17131923 0.02498501 -16.31559563 0.25098039 0.27450980 0.65882353
v -0.17217143 0.01499869 -16.31620789 0.25098039 0.27450980 0.65882353
v -0.06803460 -0.06789264 -16.30254364 0.25098039 0.27450980 0.65882353
v -0.07255152 -0.07121079 -16.30130196 0.25098039 0.27450980 0.65882353
v -0.07455058 -0.06702335 -16.30134964 0.25098039 0.27450980 0.65882353
v -0.06984885 -0.06434484 -16.30215836 0.25098039 0.27450980 0.65882353
v -0.17491999 0.01995515 -16.29660034 0.25098039 0.27450980 0.65882353
v -0.17029017 0.02219492 -16.28783607 0.25098039 0.27450980 0.65882353
v -0.17367429 0.02761405 -16.29006767 0.25098039 0.27450980 0.65882353
v -0.17623635 0.02667096 -16.29874611 0.25098039 0.27450980 0.65882353
v -0.17284252 0.01093422 -16.29347420 0.25098039 0.27450980 0.65882353
v -0.16548944 0.01433412 -16.28530312 0.25098039 0.27450980 0.65882353
v -0.06109194 -0.06764725 -16.29233742 0.25098039 0.27450980 0.65882353
v -0.06136288 -0.06672859 -16.29728317 0.25098039 0.27450980 0.65882353
v -0.06322177 -0.06238428 -16.29551506 0.25098039 0.27450980 0.65882353
v -0.06374305 -0.06302351 -16.29034805 0.25098039 0.27450980 0.65882353
v -0.10323325 -0.02315619 -16.31832504 0.25098039 0.27450980 0.65882353
v -0.11217852 -0.02208287 -16.31580544 0.25098039 0.27450980 0.65882353
v -0.09561309 -0.03920088 -16.30959892 0.25098039 0.27450980 0.65882353
v -0.10310201 -0.03191068 -16.31093788 0.25098039 0.27450980 0.65882353
v -0.09700488 -0.02855343 -16.31301689 0.25098039 0.27450980 0.65882353
v -0.09102696 -0.03407317 -16.31019592 0.25098039 0.27450980 0.65882353
v -0.12546042 -0.03141944 -16.30396652 0.25098039 0.27450980 0.65882353
v -0.13005604 -0.02095221 -16.30721664 0.25098039 0.27450980 0.65882353
v -0.12356418 -0.02093354 -16.30839157 0.25098039 0.27450980 0.65882353
v -0.11735946 -0.03254868 -16.30629349 0.25098039 0.27450980 0.65882353
v -0.14360598 -0.02358409 -16.30593491 0.25098039 0.27450980 0.65882353
v -0.13798103 -0.03340125 -16.30270386 0.25098039 0.27450980 0.65882353
v -0.14648961 -0.03350073 -16.30253220 0.25098039 0.27450980 0.65882353
v -0.14930663 -0.02679606 -16.30562019 0.25098039 0.27450980 0.65882353
v -0.12502016 -0.05033610 -16.29619980 0.25098039 0.27450980 0.65882353
v -0.12029660 -0.05628310 -16.29053879 0.25098039 0.27450980 0.65882353
v -0.12294606 -0.05686832 -16.28917313 0.25098039 0.27450980 0.65882353
v -0.12813728 -0.05027690 -16.29536057 0.25098039 0.27450980 0.65882353
v -0.17623629 0.03347583 -16.29089355 0.25098039 0.27450980 0.65882353
v -0.17627952 0.03323205 -16.30014229 0.25098039 0.27450980 0.65882353
v -0.15852776 -0.02395158 -16.27969933 0.25098039 0.27450980 0.65882353
v -0.16720071 -0.02286311 -16.28617668 0.25098039 0.27450980 0.65882353
v -0.16549130 -0.03539209 -16.28389931 0.25098039 0.27450980 0.65882353
v -0.15723449 -0.03311446 -16.27777100 0.25098039 0.27450980 0.65882353
v -0.16153273 0.02396214 -16.28282547 0.25098039 0.27450980 0.65882353
v -0.16634274 0.02918653 -16.28349686 0.25098039 0.27450980 0.65882353
v -0.06375793 -0.07036316 -16.28773499 0.25098039 0.27450980 0.65882353
v -0.06647055 -0.06580839 -16.28597832 0.25098039 0.27450980 0.65882353
v -0.10895687 0.02879417 -16.33204842 0.25098039 0.27450980 0.65882353
v -0.10083704 0.01653051 -16.34602737 0.25098039 0.27450980 0.65882353
v -0.11600700 0.03686154 -16.32370949 0.25098039 0.27450980 0.65882353
v -0.12051767 0.04257549 -16.31795502 0.25098039 0.27450980 0.65882353
v -0.12410968 0.04885294 -16.31559563 0.25098039 0.27450980 0.65882353
v -0.10657714 -0.03745544 -16.30801773 0.25098039 0.27450980 0.65882353
v -0.12021760 -0.01813855 -16.31265640 0.25098039 0.27450980 0.65882353
v -0.13711666 -0.01141978 -16.31084633 0.25098039 0.27450980 0.65882353
v -0.16589072 -0.02052772 -16.30755424 0.25098039 0.27450980 0.65882353
v -0.16977426 -0.01084257 -16.31052589 0.25098039 0.27450980 0.65882353
v -0.15922740 -0.01262656 -16.31303596 0.25098039 0.27450980 0.65882353
v -0.15803501 -0.02073805 -16.30937576 0.25098039 0.27450980 0.65882353
v -0.17062159 -0.02624482 -16.29396629 0.25098039 0.27450980 0.65882353
v -0.16716975 -0.02918291 -16.30014610 0.25098039 0.27450980 0.65882353
v -0.16415510 -0.03735923 -16.29824448 0.25098039 0.27450980 0.65882353
v -0.16754365 -0.03581871 -16.29194832 0.25098039 0.27450980 0.65882353
v -0.09016836 -0.00264465 -16.34626770 0.25098039 0.27450980 0.65882353
v -0.09172831 0.00565083 -16.33193207 0.25098039 0.27450980 0.65882353
v -0.17609338 0.01811683 -16.30665779 0.25098039 0.27450980 0.65882353
v -0.17519704 0.02542906 -16.30871773 0.25098039 0.27450980 0.65882353
v -0.17488503 0.03390345 -16.30725098 0.25098039 0.27450980 0.65882353
v -0.14821206 0.00497627 -16.32052803 0.25098039 0.27450980 0.65882353
v -0.15241139 0.01794432 -16.32464981 0.25098039 0.27450980 0.65882353
v -0.14914484 0.01780667 -16.32648277 0.25098039 0.27450980 0.65882353
v -0.14540806 0.00440139 -16.32071304 0.25098039 0.27450980 0.65882353
v -0.13231334 -0.00139442 -16.33006096 0.25098039 0.27450980 0.65882353
v -0.13777299 0.01061520 -16.33406830 0.25098039 0.27450980 0.65882353
v -0.12554669 -0.00502219 -16.33913994 0.25098039 0.27450980 0.65882353
v -0.14883231 0.03282047 -16.32553673 0.25098039 0.27450980 0.65882353
v -0.15689896 0.03932596 -16.32329750 0.25098039 0.27450980 0.65882353
v -0.14894596 0.04226834 -16.32512283 0.25098039 0.27450980 0.65882353
v -0.16511945 0.03715087 -16.31897545 0.25098039 0.27450980 0.65882353
v -0.17126557 0.03485906 -16.31326866 0.25098039 0.27450980 0.65882353
v -0.16996498 0.03520367 -16.28114128 0.25098039 0.27450980 0.65882353
v -0.14097650 0.04460764 -16.32573891 0.25098039 0.27450980 0.65882353
v -0.11550100 -0.00395177 -16.35405540 0.25098039 0.27450980 0.65882353
v -0.11057180 -0.00957824 -16.35713768 0.25098039 0.27450980 0.65882353
v -0.10929430 -0.01369344 -16.35111618 0.25098039 0.27450980 0.65882353
v -0.11411293 -0.00967729 -16.34802055 0.25098039 0.27450980 0.65882353
v -0.08340414 -0.02978475 -16.30072403 0.25098039 0.27450980 0.65882353
v -0.08608758 -0.03213662 -16.30716705 0.25098039 0.27450980 0.65882353
v -0.09057862 -0.02500945 -16.31302261 0.25098039 0.27450980 0.65882353
v -0.15994075 0.00365588 -16.31985474 0.25098039 0.27450980 0.65882353
v -0.17188564 0.00466537 -16.31366348 0.25098039 0.27450980 0.65882353
v -0.09808011 -0.04468499 -16.30599785 0.25098039 0.27450980 0.65882353
v -0.06653306 -0.05855180 -16.28966522 0.25098039 0.27450980 0.65882353
v -0.06580231 -0.05766866 -16.29520226 0.25098039 0.27450980 0.65882353
v -0.07593164 -0.04224537 -16.29744339 0.25098039 0.27450980 0.65882353
v -0.07647799 -0.04335370 -16.29067993 0.25098039 0.27450980 0.65882353
v -0.09441441 -0.05155965 -16.29647636 0.25098039 0.27450980 0.65882353
v -0.09422833 -0.04918263 -16.30299377 0.25098039 0.27450980 0.65882353
v -0.09185115 -0.05109616 -16.30064392 0.25098039 0.27450980 0.65882353
v -0.09238440 -0.05544508 -16.29573822 0.25098039 0.27450980 0.65882353
v -0.13157380 -0.05555838 -16.29145622 0.25098039 0.27450980 0.65882353
v -0.13617058 -0.04952092 -16.29603195 0.25098039 0.27450980 0.65882353
v -0.10248333 -0.03622409 -16.28200340 0.25098039 0.27450980 0.65882353
v -0.09198396 -0.02874632 -16.28505516 0.25098039 0.27450980 0.65882353
v -0.09631106 -0.01905258 -16.28834915 0.25098039 0.27450980 0.65882353
v -0.13276884 -0.03168872 -16.30310822 0.25098039 0.27450980 0.65882353
v -0.12922817 -0.04160158 -16.30014038 0.25098039 0.27450980 0.65882353
v -0.13307433 -0.04214880 -16.29935837 0.25098039 0.27450980 0.65882353
v -0.10743494 -0.04155893 -16.30511856 0.25098039 0.27450980 0.65882353
v -0.10125244 -0.04800503 -16.30197716 0.25098039 0.27450980 0.65882353
v -0.10753448 -0.04642865 -16.30124474 0.25098039 0.27450980 0.65882353
v -0.11275889 -0.04039704 -16.30330658 0.25098039 0.27450980 0.65882353
v -0.16993010 -0.01011976 -16.28756332 0.25098039 0.27450980 0.65882353
v -0.17426446 -0.01406954 -16.29638100 0.25098039 0.27450980 0.65882353
v -0.06392121 -0.06657636 -16.30105591 0.25098039 0.27450980 0.65882353
v -0.06568202 -0.06256512 -16.29989052 0.25098039 0.27450980 0.65882353
v -0.13700673 -0.02148184 -16.30594254 0.25098039 0.27450980 0.65882353
v -0.10129933 -0.00773487 -16.29249191 0.25098039 0.27450980 0.65882353
v -0.14223245 -0.01233545 -16.31030083 0.25098039 0.27450980 0.65882353
v -0.14281394 -0.04416719 -16.27694511 0.25098039 0.27450980 0.65882353
v -0.14546308 -0.04867135 -16.28320694 0.25098039 0.27450980 0.65882353
v -0.14189512 -0.05381297 -16.28170586 0.25098039 0.27450980 0.65882353
v -0.14042488 -0.05168651 -16.27567482 0.25098039 0.27450980 0.65882353
v -0.08310302 -0.06784275 -16.29315186 0.25098039 0.27450980 0.65882353
v -0.08171000 -0.06708498 -16.29858780 0.25098039 0.27450980 0.65882353
v -0.07846762 -0.07031636 -16.29765701 0.25098039 0.27450980 0.65882353
v -0.07949147 -0.07162245 -16.29222107 0.25098039 0.27450980 0.65882353
v -0.09127492 -0.04537531 -16.30630112 0.25098039 0.27450980 0.65882353
v -0.08709565 -0.04035136 -16.30727386 0.25098039 0.27450980 0.65882353
v -0.08402601 -0.04608710 -16.30558777 0.25098039 0.27450980 0.65882353
v -0.08828568 -0.04927042 -16.30347252 0.25098039 0.27450980 0.65882353
v -0.08218165 -0.03803304 -16.30375862 0.25098039 0.27450980 0.65882353
v -0.07901724 -0.04307293 -16.30309868 0.25098039 0.27450980 0.65882353
v -0.08074185 -0.06649733 -16.28726578 0.25098039 0.27450980 0.65882353
v -0.07499550 -0.06340167 -16.28366852 0.25098039 0.27450980 0.65882353
v -0.08553900 -0.05066765 -16.28443146 0.25098039 0.27450980 0.65882353
v -0.08921583 -0.05588404 -16.28907776 0.25098039 0.27450980 0.65882353
v -0.14501712 0.00510751 -16.28069687 0.25098039 0.27450980 0.65882353
v -0.15571395 0.00361423 -16.28110123 0.25098039 0.27450980 0.65882353
v -0.15276551 -0.01044522 -16.27986526 0.25098039 0.27450980 0.65882353
v -0.15017942 -0.02391934 -16.27792931 0.25098039 0.27450980 0.65882353
v -0.14712390 -0.03710926 -16.27701950 0.25098039 0.27450980 0.65882353
v -0.13633795 -0.03467276 -16.27393532 0.25098039 0.27450980 0.65882353
v -0.16042781 -0.01034747 -16.28144264 0.25098039 0.27450980 0.65882353
v -0.09906006 -0.04844393 -16.28821945 0.25098039 0.27450980 0.65882353
v -0.09361370 -0.04170704 -16.28503799 0.25098039 0.27450980 0.65882353
v -0.09998856 -0.04296129 -16.28374672 0.25098039 0.27450980 0.65882353
v -0.14927776 -0.01430679 -16.31063271 0.25098039 0.27450980 0.65882353
v -0.06792946 -0.05816195 -16.30029297 0.25098039 0.27450980 0.65882353
v -0.12460755 0.03891012 -16.29559898 0.25098039 0.27450980 0.65882353
v -0.13420910 0.03606100 -16.28678513 0.25098039 0.27450980 0.65882353
v -0.13101646 0.02907657 -16.28830910 0.25098039 0.27450980 0.65882353
v -0.12020260 0.03205525 -16.29850388 0.25098039 0.27450980 0.65882353
v -0.07775328 -0.06393483 -16.30305481 0.25098039 0.27450980 0.65882353
v -0.07232770 -0.06063603 -16.30408859 0.25098039 0.27450980 0.65882353
v -0.14190304 -0.05155205 -16.29513931 0.25098039 0.27450980 0.65882353
v -0.13718641 -0.05613570 -16.29089928 0.25098039 0.27450980 0.65882353
v -0.13947126 -0.05701042 -16.28772354 0.25098039 0.27450980 0.65882353
v -0.14575776 -0.05458207 -16.29346466 0.25098039 0.27450980 0.65882353
v -0.16135550 0.00414811 -16.28220558 0.25098039 0.27450980 0.65882353
v -0.16503794 -0.04305324 -16.28503227 0.25098039 0.27450980 0.65882353
v -0.15780106 -0.04097830 -16.27840614 0.25098039 0.27450980 0.65882353
v -0.15774176 0.01597236 -16.28211594 0.25098039 0.27450980 0.65882353
v -0.14840475 0.01723668 -16.28126717 0.25098039 0.27450980 0.65882353
v -0.15111072 0.02573350 -16.28122520 0.25098039 0.27450980 0.65882353
v -0.12142830 -0.03957450 -16.27473259 0.25098039 0.27450980 0.65882353
v -0.13698879 0.00430936 -16.28126335 0.25098039 0.27450980 0.65882353
v -0.14122404 0.01682305 -16.28253174 0.25098039 0.27450980 0.65882353
v -0.14411739 0.02707903 -16.28230858 0.25098039 0.27450980 0.65882353
v -0.14608514 0.03425588 -16.28107452 0.25098039 0.27450980 0.65882353
v -0.15377979 0.03179205 -16.28071785 0.25098039 0.27450980 0.65882353
v -0.06997997 -0.06137388 -16.28540421 0.25098039 0.27450980 0.65882353
v -0.07158712 -0.06909236 -16.28374863 0.25098039 0.27450980 0.65882353
v -0.15673953 0.03832015 -16.27824974 0.25098039 0.27450980 0.65882353
v -0.14788276 0.04042757 -16.27939034 0.25098039 0.27450980 0.65882353
v -0.13260528 0.01698939 -16.28483772 0.25098039 0.27450980 0.65882353
v -0.12309451 0.01712415 -16.28902435 0.25098039 0.27450980 0.65882353
v -0.12881130 0.00491466 -16.28271675 0.25098039 0.27450980 0.65882353
v -0.11841609 0.00429345 -16.28656197 0.25098039 0.27450980 0.65882353
v -0.11295059 -0.03395904 -16.27454185 0.25098039 0.27450980 0.65882353
v -0.06767318 -0.08488207 -16.28996658 0.25098039 0.27450980 0.65882353
v -0.07378796 -0.07587649 -16.28736496 0.25098039 0.27450980 0.65882353
v -0.07680292 -0.07594496 -16.29220772 0.25098039 0.27450980 0.65882353
v -0.07106456 -0.08544974 -16.29273224 0.25098039 0.27450980 0.65882353
v -0.07715657 -0.07099649 -16.28705406 0.25098039 0.27450980 0.65882353
v -0.06887797 -0.07336351 -16.28535652 0.25098039 0.27450980 0.65882353
v -0.10672866 0.00485536 -16.29622650 0.25098039 0.27450980 0.65882353
v -0.10254394 -0.05184845 -16.29656410 0.25098039 0.27450980 0.65882353
v -0.11093941 0.01937931 -16.30208206 0.25098039 0.27450980 0.65882353
v -0.09403794 0.00178467 -16.31078911 0.25098039 0.27450980 0.65882353
v -0.09851429 0.01212830 -16.31687737 0.25098039 0.27450980 0.65882353
v -0.11419336 0.03483674 -16.30890274 0.25098039 0.27450980 0.65882353
v -0.10491523 0.02631676 -16.31912804 0.25098039 0.27450980 0.65882353
v -0.12357295 0.04762726 -16.30508804 0.25098039 0.27450980 0.65882353
v -0.11945319 0.04075028 -16.30589676 0.25098039 0.27450980 0.65882353
v -0.09719583 0.01793931 -16.33204842 0.25098039 0.27450980 0.65882353
v -0.06608135 -0.07820894 -16.30420494 0.25098039 0.27450980 0.65882353
v -0.07072178 -0.08068590 -16.30211449 0.25098039 0.27450980 0.65882353
v -0.12745579 0.04572178 -16.29433060 0.25098039 0.27450980 0.65882353
v -0.11879117 -0.00762347 -16.34490395 0.25098039 0.27450980 0.65882353
v -0.15172639 -0.00494993 -16.31516457 0.25098039 0.27450980 0.65882353
v -0.14619111 -0.00436516 -16.31532478 0.25098039 0.27450980 0.65882353
v -0.17123590 -0.00468276 -16.31143761 0.25098039 0.27450980 0.65882353
v -0.15925182 -0.00506242 -16.31563187 0.25098039 0.27450980 0.65882353
v -0.06109743 -0.07646661 -16.30331993 0.25098039 0.27450980 0.65882353
v -0.11761953 -0.05811111 -16.28407669 0.25098039 0.27450980 0.65882353
v -0.12005155 -0.05604874 -16.28379440 0.25098039 0.27450980 0.65882353
v -0.11163490 0.00223897 -16.35783768 0.25098039 0.27450980 0.65882353
v -0.10826889 -0.00359624 -16.36083794 0.25098039 0.27450980 0.65882353
v -0.09614107 0.00032539 -16.35897827 0.25098039 0.27450980 0.65882353
v -0.10236616 -0.00045456 -16.36208725 0.25098039 0.27450980 0.65882353
v -0.10481989 0.00693370 -16.35816956 0.25098039 0.27450980 0.65882353
v -0.09834707 0.00810034 -16.35456848 0.25098039 0.27450980 0.65882353
v -0.15027910 0.00448187 -16.32072830 0.25098039 0.27450980 0.65882353
v -0.15372965 0.00370048 -16.32044983 0.25098039 0.27450980 0.65882353
v -0.17174214 0.00107519 -16.29050636 0.25098039 0.27450980 0.65882353
v -0.17526408 -0.00306097 -16.29973030 0.25098039 0.27450980 0.65882353
v -0.08022223 -0.03637877 -16.29786301 0.25098039 0.27450980 0.65882353
v -0.08523487 -0.02948950 -16.29228592 0.25098039 0.27450980 0.65882353
v -0.08145724 -0.03690672 -16.29085159 0.25098039 0.27450980 0.65882353
v -0.08094457 -0.04515656 -16.28554726 0.25098039 0.27450980 0.65882353
v -0.09908205 -0.05271203 -16.29170990 0.25098039 0.27450980 0.65882353
v -0.09392621 -0.05035957 -16.29093933 0.25098039 0.27450980 0.65882353
v -0.14413618 0.01334340 -16.33009148 0.25098039 0.27450980 0.65882353
v -0.13949427 0.00164999 -16.32306290 0.25098039 0.27450980 0.65882353
v -0.10775739 -0.01384594 -16.34251213 0.25098039 0.27450980 0.65882353
v -0.10384734 -0.01476452 -16.34532928 0.25098039 0.27450980 0.65882353
v -0.12062154 -0.03934782 -16.30195045 0.25098039 0.27450980 0.65882353
v -0.11432552 -0.04898081 -16.27421570 0.25098039 0.27450980 0.65882353
v -0.10763206 -0.04440546 -16.27419090 0.25098039 0.27450980 0.65882353
v -0.11604111 -0.04733520 -16.29878235 0.25098039 0.27450980 0.65882353
v -0.05683199 -0.07792509 -16.29579353 0.25098039 0.27450980 0.65882353
v -0.05822207 -0.07665962 -16.30060005 0.25098039 0.27450980 0.65882353
v -0.08624080 -0.03816423 -16.28559685 0.25098039 0.27450980 0.65882353
v -0.14128131 -0.04300415 -16.30015373 0.25098039 0.27450980 0.65882353
v -0.12289000 -0.04592093 -16.27540970 0.25098039 0.27450980 0.65882353
v -0.11698808 -0.05465597 -16.27741623 0.25098039 0.27450980 0.65882353
v -0.16543031 -0.04118154 -16.29236794 0.25098039 0.27450980 0.65882353
v -0.13685055 0.04325951 -16.28611565 0.25098039 0.27450980 0.65882353
v -0.07638916 -0.07481526 -16.29768562 0.25098039 0.27450980 0.65882353
v -0.07324255 -0.08295695 -16.29831314 0.25098039 0.27450980 0.65882353
v -0.06407592 -0.08282250 -16.28884125 0.25098039 0.27450980 0.65882353
v -0.05944467 -0.07952307 -16.29049492 0.25098039 0.27450980 0.65882353
v -0.17546396 0.00666523 -16.30397224 0.25098039 0.27450980 0.65882353
v -0.14286554 -0.00395361 -16.31488609 0.25098039 0.27450980 0.65882353
v -0.09325609 0.00940429 -16.34388542 0.25098039 0.27450980 0.65882353
v -0.09166577 -0.00026359 -16.35312271 0.25098039 0.27450980 0.65882353
v -0.11291018 -0.05285241 -16.29558754 0.25098039 0.27450980 0.65882353
v -0.14978662 -0.04376409 -16.27980042 0.25098039 0.27450980 0.65882353
v -0.13475962 -0.04329593 -16.27256012 0.25098039 0.27450980 0.65882353
v -0.13336121 -0.05085603 -16.27054787 0.25098039 0.27450980 0.65882353
v -0.12605226 -0.05290123 -16.27167320 0.25098039 0.27450980 0.65882353
v -0.12112901 -0.05637187 -16.27640343 0.25098039 0.27450980 0.65882353
v -0.06268692 -0.08782901 -16.29127884 0.25098039 0.27450980 0.65882353
v -0.05803873 -0.08443314 -16.29271317 0.25098039 0.27450980 0.65882353
v -0.05547020 -0.08250955 -16.29781532 0.25098039 0.27450980 0.65882353
v -0.05667193 -0.08063003 -16.30188942 0.25098039 0.27450980 0.65882353
v -0.06031589 -0.07970044 -16.30419159 0.25098039 0.27450980 0.65882353
v -0.06620629 -0.08994696 -16.29282570 0.25098039 0.27450980 0.65882353
v -0.06906407 -0.08998924 -16.29561806 0.25098039 0.27450980 0.65882353
v -0.07174325 -0.08613256 -16.29935074 0.25098039 0.27450980 0.65882353
v -0.06617625 -0.09353203 -16.29656029 0.25098039 0.27450980 0.65882353
v -0.06103285 -0.09477352 -16.29650307 0.25098039 0.27450980 0.65882353
v -0.05425127 -0.09220418 -16.30831337 0.25098039 0.27450980 0.65882353
v -0.05418824 -0.08945976 -16.30294228 0.25098039 0.27450980 0.65882353
v -0.05439030 -0.09215999 -16.30331039 0.25098039 0.27450980 0.65882353
v -0.05455385 -0.09517826 -16.30737114 0.25098039 0.27450980 0.65882353
v -0.05467327 -0.09949081 -16.31034279 0.25098039 0.27450980 0.65882353
v -0.05417193 -0.09657066 -16.31217957 0.25098039 0.27450980 0.65882353
v -0.05661875 -0.09267297 -16.29924393 0.25098039 0.27450980 0.65882353
v -0.05681445 -0.09745201 -16.30410385 0.25098039 0.27450980 0.65882353
v -0.06011353 -0.09924898 -16.30242729 0.25098039 0.27450980 0.65882353
v -0.05939469 -0.10341866 -16.30625725 0.25098039 0.27450980 0.65882353
v -0.05635276 -0.10202548 -16.30770493 0.25098039 0.27450980 0.65882353
v -0.05962175 -0.09597525 -16.29913139 0.25098039 0.27450980 0.65882353
v -0.05641472 -0.09104955 -16.29714584 0.25098039 0.27450980 0.65882353
v -0.05514044 -0.10094450 -16.31368446 0.25098039 0.27450980 0.65882353
v -0.05478074 -0.10230701 -16.31166649 0.25098039 0.27450980 0.65882353
v -0.05657609 -0.10420977 -16.31008720 0.25098039 0.27450980 0.65882353
v -0.05753079 -0.10523050 -16.31283569 0.25098039 0.27450980 0.65882353
v -0.05614117 -0.08434623 -16.30475426 0.25098039 0.27450980 0.65882353
v -0.05528276 -0.09068763 -16.31014061 0.25098039 0.27450980 0.65882353
v -0.05659053 -0.09546411 -16.31368637 0.25098039 0.27450980 0.65882353
v -0.05739859 -0.09989177 -16.31499290 0.25098039 0.27450980 0.65882353
v -0.05888990 -0.09087023 -16.31198311 0.25098039 0.27450980 0.65882353
v -0.05943297 -0.09509864 -16.31417084 0.25098039 0.27450980 0.65882353
v -0.06051791 -0.09889680 -16.31501770 0.25098039 0.27450980 0.65882353
v -0.06289676 -0.09188153 -16.31247330 0.25098039 0.27450980 0.65882353
v -0.06251168 -0.09569202 -16.31401253 0.25098039 0.27450980 0.65882353
v -0.06374857 -0.08281431 -16.30597305 0.25098039 0.27450980 0.65882353
v -0.05975769 -0.08162038 -16.30570221 0.25098039 0.27450980 0.65882353
v -0.06255472 -0.09808670 -16.31506157 0.25098039 0.27450980 0.65882353
v -0.05949979 -0.10469593 -16.31382179 0.25098039 0.27450980 0.65882353
v -0.06346521 -0.09857319 -16.30111885 0.25098039 0.27450980 0.65882353
v -0.06254157 -0.10297893 -16.30678940 0.25098039 0.27450980 0.65882353
v -0.06573279 -0.09816398 -16.30185890 0.25098039 0.27450980 0.65882353
v -0.06490774 -0.10280158 -16.30715370 0.25098039 0.27450980 0.65882353
v -0.06106724 -0.10621828 -16.30978966 0.25098039 0.27450980 0.65882353
v -0.05898820 -0.10507987 -16.30882454 0.25098039 0.27450980 0.65882353
v -0.06547382 -0.08036035 -16.30431175 0.25098039 0.27450980 0.65882353
v -0.07015999 -0.08314452 -16.30218315 0.25098039 0.27450980 0.65882353
v -0.06891094 -0.08540939 -16.30375671 0.25098039 0.27450980 0.65882353
v -0.06695242 -0.09366076 -16.31085014 0.25098039 0.27450980 0.65882353
v -0.07072160 -0.08855903 -16.30166626 0.25098039 0.27450980 0.65882353
v -0.06885545 -0.09307374 -16.29933929 0.25098039 0.27450980 0.65882353
v -0.06762381 -0.09796648 -16.30419350 0.25098039 0.27450980 0.65882353
v -0.06861478 -0.09644328 -16.30701447 0.25098039 0.27450980 0.65882353
v -0.06652983 -0.10141866 -16.30833626 0.25098039 0.27450980 0.65882353
v -0.06672816 -0.09958890 -16.30999947 0.25098039 0.27450980 0.65882353
v -0.06546360 -0.09738725 -16.31281090 0.25098039 0.27450980 0.65882353
v -0.06465396 -0.10315779 -16.31164932 0.25098039 0.27450980 0.65882353
v -0.06286955 -0.10526901 -16.31067085 0.25098039 0.27450980 0.65882353
v -0.06206404 -0.10238194 -16.31415939 0.25098039 0.27450980 0.65882353
v -0.06556785 -0.10140665 -16.31193542 0.25098039 0.27450980 0.65882353
v -0.06354442 -0.10013843 -16.31369019 0.25098039 0.27450980 0.65882353
v -0.09315406 -0.08505878 -16.28645897 0.25098039 0.27450980 0.65882353
v -0.09882656 -0.08724323 -16.28451920 0.25098039 0.27450980 0.65882353
v -0.09944554 -0.08198647 -16.28390694 0.25098039 0.27450980 0.65882353
v -0.09458171 -0.08064303 -16.28571892 0.25098039 0.27450980 0.65882353
v -0.08557898 -0.08304241 -16.27556038 0.25098039 0.27450980 0.65882353
v -0.08632261 -0.08332421 -16.28129387 0.25098039 0.27450980 0.65882353
v -0.08700015 -0.07836115 -16.28001022 0.25098039 0.27450980 0.65882353
v -0.08745387 -0.07792258 -16.27359772 0.25098039 0.27450980 0.65882353
v -0.08965831 -0.08403237 -16.27033043 0.25098039 0.27450980 0.65882353
v -0.09180455 -0.07863250 -16.26852989 0.25098039 0.27450980 0.65882353
v -0.08866170 -0.07277597 -16.27337837 0.25098039 0.27450980 0.65882353
v -0.08879507 -0.07312065 -16.28044128 0.25098039 0.27450980 0.65882353
v -0.09718046 -0.05442050 -16.28507805 0.25098039 0.27450980 0.65882353
v -0.09714496 -0.05349870 -16.27787590 0.25098039 0.27450980 0.65882353
v -0.11361636 -0.06058152 -16.28775406 0.25098039 0.27450980 0.65882353
v -0.11372875 -0.06142073 -16.28383446 0.25098039 0.27450980 0.65882353
v -0.08953778 -0.08411825 -16.28511620 0.25098039 0.27450980 0.65882353
v -0.09040272 -0.07951127 -16.28393745 0.25098039 0.27450980 0.65882353
v -0.10710013 -0.07986881 -16.27883339 0.25098039 0.27450980 0.65882353
v -0.10521863 -0.07938938 -16.28385544 0.25098039 0.27450980 0.65882353
v -0.10332413 -0.08388950 -16.28187561 0.25098039 0.27450980 0.65882353
v -0.10454582 -0.08448587 -16.27646828 0.25098039 0.27450980 0.65882353
v -0.10327296 -0.05606852 -16.29137802 0.25098039 0.27450980 0.65882353
v -0.10933262 -0.05770197 -16.29037857 0.25098039 0.27450980 0.65882353
v -0.09979101 -0.05575481 -16.28927612 0.25098039 0.27450980 0.65882353
v -0.10608520 -0.07904929 -16.27239990 0.25098039 0.27450980 0.65882353
v -0.10150909 -0.07673475 -16.26774216 0.25098039 0.27450980 0.65882353
v -0.10887118 -0.05833231 -16.27108192 0.25098039 0.27450980 0.65882353
v -0.11280896 -0.06125643 -16.27532387 0.25098039 0.27450980 0.65882353
v -0.09139192 -0.07462819 -16.28518677 0.25098039 0.27450980 0.65882353
v -0.10090362 -0.07811190 -16.28686142 0.25098039 0.27450980 0.65882353
v -0.09603107 -0.07651301 -16.28781128 0.25098039 0.27450980 0.65882353
v -0.09423257 -0.07376094 -16.26875496 0.25098039 0.27450980 0.65882353
v -0.09849097 -0.08238611 -16.26769638 0.25098039 0.27450980 0.65882353
v -0.09664758 -0.10134503 -16.27401352 0.25098039 0.27450980 0.65882353
v -0.10095613 -0.08964176 -16.27169991 0.25098039 0.27450980 0.65882353
v -0.10270675 -0.09003885 -16.27646828 0.25098039 0.27450980 0.65882353
v -0.09929301 -0.10233496 -16.27807236 0.25098039 0.27450980 0.65882353
v -0.10311656 -0.08428636 -16.27111816 0.25098039 0.27450980 0.65882353
v -0.09607679 -0.08730200 -16.26909447 0.25098039 0.27450980 0.65882353
v -0.09124421 -0.09997055 -16.28912926 0.25098039 0.27450980 0.65882353
v -0.09688613 -0.10199411 -16.28695488 0.25098039 0.27450980 0.65882353
v -0.08684045 -0.09887414 -16.28831863 0.25098039 0.27450980 0.65882353
v -0.10217568 -0.05477748 -16.27179909 0.25098039 0.27450980 0.65882353
v -0.08250825 -0.09614982 -16.27921486 0.25098039 0.27450980 0.65882353
v -0.08385345 -0.09734516 -16.28556442 0.25098039 0.27450980 0.65882353
v -0.10241626 -0.08907308 -16.28139305 0.25098039 0.27450980 0.65882353
v -0.09953278 -0.10294597 -16.28281784 0.25098039 0.27450980 0.65882353
v -0.09262083 -0.09978889 -16.27225304 0.25098039 0.27450980 0.65882353
v -0.08636330 -0.09619325 -16.27355766 0.25098039 0.27450980 0.65882353
v -0.09107821 -0.10539620 -16.27415276 0.25098039 0.27450980 0.65882353
v -0.08527324 -0.10285963 -16.27568626 0.25098039 0.27450980 0.65882353
v -0.08168350 -0.10230993 -16.28129005 0.25098039 0.27450980 0.65882353
v -0.08357650 -0.10222614 -16.28681946 0.25098039 0.27450980 0.65882353
v -0.08664051 -0.10241234 -16.28920555 0.25098039 0.27450980 0.65882353
v -0.09486763 -0.10685295 -16.27581787 0.25098039 0.27450980 0.65882353
v -0.09769860 -0.10746399 -16.27946091 0.25098039 0.27450980 0.65882353
v -0.09837294 -0.10561039 -16.28392410 0.25098039 0.27450980 0.65882353
v -0.09502773 -0.11314948 -16.27975273 0.25098039 0.27450980 0.65882353
v -0.09076892 -0.11365399 -16.27828789 0.25098039 0.27450980 0.65882353
v -0.08283176 -0.12025005 -16.29351044 0.25098039 0.27450980 0.65882353
v -0.08227217 -0.11519860 -16.29013252 0.25098039 0.27450980 0.65882353
v -0.08274101 -0.11684017 -16.28809547 0.25098039 0.27450980 0.65882353
v -0.08333550 -0.12150337 -16.29101562 0.25098039 0.27450980 0.65882353
v -0.08136997 -0.11129391 -16.28514099 0.25098039 0.27450980 0.65882353
v -0.08241957 -0.11364855 -16.28464699 0.25098039 0.27450980 0.65882353
v -0.08533081 -0.11385772 -16.28104782 0.25098039 0.27450980 0.65882353
v -0.08591996 -0.11876856 -16.28488731 0.25098039 0.27450980 0.65882353
v -0.09020343 -0.11906283 -16.28283501 0.25098039 0.27450980 0.65882353
v -0.09015055 -0.12434606 -16.28533173 0.25098039 0.27450980 0.65882353
v -0.08582675 -0.12409708 -16.28741837 0.25098039 0.27450980 0.65882353
v -0.08872886 -0.11572103 -16.28036499 0.25098039 0.27450980 0.65882353
v -0.08414873 -0.12491548 -16.29220581 0.25098039 0.27450980 0.65882353
v -0.08482112 -0.12552913 -16.29465103 0.25098039 0.27450980 0.65882353
v -0.08457012 -0.11132227 -16.27906036 0.25098039 0.27450980 0.65882353
v -0.08281121 -0.10624515 -16.28810692 0.25098039 0.27450980 0.65882353
v -0.08341785 -0.11408699 -16.29275322 0.25098039 0.27450980 0.65882353
v -0.08477698 -0.11983939 -16.29606438 0.25098039 0.27450980 0.65882353
v -0.08747809 -0.12548842 -16.29619026 0.25098039 0.27450980 0.65882353
v -0.08697650 -0.11395599 -16.29502487 0.25098039 0.27450980 0.65882353
v -0.08781615 -0.11964731 -16.29725838 0.25098039 0.27450980 0.65882353
v -0.08992200 -0.12425046 -16.29656219 0.25098039 0.27450980 0.65882353
v -0.09161666 -0.11419274 -16.29593849 0.25098039 0.27450980 0.65882353
v -0.09202866 -0.11989714 -16.29727745 0.25098039 0.27450980 0.65882353
v -0.09117605 -0.10466298 -16.29082870 0.25098039 0.27450980 0.65882353
v -0.08647327 -0.10468280 -16.29072571 0.25098039 0.27450980 0.65882353
v -0.09176111 -0.12264149 -16.29671288 0.25098039 0.27450980 0.65882353
v -0.08723494 -0.12877791 -16.29175949 0.25098039 0.27450980 0.65882353
v -0.08986847 -0.12820755 -16.29397392 0.25098039 0.27450980 0.65882353
v -0.08651628 -0.12738512 -16.29034233 0.25098039 0.27450980 0.65882353
v -0.09232503 -0.11895923 -16.28267670 0.25098039 0.27450980 0.65882353
v -0.09227031 -0.12436502 -16.28637695 0.25098039 0.27450980 0.65882353
v -0.09496015 -0.11887254 -16.28382683 0.25098039 0.27450980 0.65882353
v -0.09425236 -0.12454724 -16.28796196 0.25098039 0.27450980 0.65882353
v -0.09107892 -0.12811674 -16.28913689 0.25098039 0.27450980 0.65882353
v -0.08949341 -0.12781076 -16.28845406 0.25098039 0.27450980 0.65882353
v -0.09101130 -0.10276674 -16.28917694 0.25098039 0.27450980 0.65882353
v -0.09611022 -0.10413256 -16.28708076 0.25098039 0.27450980 0.65882353
v -0.09617713 -0.10573409 -16.28851891 0.25098039 0.27450980 0.65882353
v -0.09599763 -0.11539657 -16.29327011 0.25098039 0.27450980 0.65882353
v -0.09849641 -0.10779001 -16.28500938 0.25098039 0.27450980 0.65882353
v -0.09748957 -0.11170526 -16.28193855 0.25098039 0.27450980 0.65882353
v -0.09705320 -0.11794326 -16.28549576 0.25098039 0.27450980 0.65882353
v -0.09784564 -0.11699283 -16.28927040 0.25098039 0.27450980 0.65882353
v -0.09636219 -0.12415127 -16.28876877 0.25098039 0.27450980 0.65882353
v -0.09711522 -0.12169611 -16.29070663 0.25098039 0.27450980 0.65882353
v -0.09544531 -0.12034272 -16.29506683 0.25098039 0.27450980 0.65882353
v -0.09457110 -0.12750110 -16.29155159 0.25098039 0.27450980 0.65882353
v -0.09259847 -0.12826808 -16.29025078 0.25098039 0.27450980 0.65882353
v -0.09155081 -0.12678438 -16.29474068 0.25098039 0.27450980 0.65882353
v -0.09576273 -0.12490006 -16.29254150 0.25098039 0.27450980 0.65882353
v -0.09353857 -0.12420519 -16.29533386 0.25098039 0.27450980 0.65882353
v -0.11940778 -0.08394797 -16.27969360 0.25098039 0.27450980 0.65882353
v -0.12473653 -0.08431961 -16.28212357 0.25098039 0.27450980 0.65882353
v -0.12535003 -0.08034168 -16.28210640 0.25098039 0.27450980 0.65882353
v -0.12013024 -0.07999897 -16.27957535 0.25098039 0.27450980 0.65882353
v -0.12112945 -0.08397697 -16.26723671 0.25098039 0.27450980 0.65882353
v -0.11782534 -0.08426641 -16.27083397 0.25098039 0.27450980 0.65882353
v -0.11841953 -0.07962996 -16.27058029 0.25098039 0.27450980 0.65882353
v -0.12188537 -0.07805839 -16.26661110 0.25098039 0.27450980 0.65882353
v -0.12619603 -0.08596392 -16.26634026 0.25098039 0.27450980 0.65882353
v -0.12770392 -0.07816006 -16.26507378 0.25098039 0.27450980 0.65882353
v -0.12230505 -0.07231669 -16.26618958 0.25098039 0.27450980 0.65882353
v -0.11886223 -0.07499208 -16.27066040 0.25098039 0.27450980 0.65882353
v -0.12091769 -0.06040906 -16.27487755 0.25098039 0.27450980 0.65882353
v -0.12471550 -0.05885465 -16.26926804 0.25098039 0.27450980 0.65882353
v -0.11755222 -0.08413272 -16.27549744 0.25098039 0.27450980 0.65882353
v -0.11804865 -0.08020589 -16.27542114 0.25098039 0.27450980 0.65882353
v -0.13477594 -0.07784025 -16.28119469 0.25098039 0.27450980 0.65882353
v -0.13068351 -0.07759398 -16.28379059 0.25098039 0.27450980 0.65882353
v -0.13064998 -0.08122928 -16.28182793 0.25098039 0.27450980 0.65882353
v -0.13404943 -0.08167760 -16.27929688 0.25098039 0.27450980 0.65882353
v -0.12370292 -0.06003736 -16.28581238 0.25098039 0.27450980 0.65882353
v -0.12958059 -0.05918602 -16.28712463 0.25098039 0.27450980 0.65882353
v -0.12075175 -0.06157391 -16.28118324 0.25098039 0.27450980 0.65882353
v -0.13680410 -0.07725918 -16.27508163 0.25098039 0.27450980 0.65882353
v -0.13514970 -0.07449639 -16.26841354 0.25098039 0.27450980 0.65882353
v -0.13845909 -0.06045665 -16.27252007 0.25098039 0.27450980 0.65882353
v -0.13931331 -0.06124164 -16.27889061 0.25098039 0.27450980 0.65882353
v -0.11824827 -0.07644984 -16.27580833 0.25098039 0.27450980 0.65882353
v -0.12552732 -0.07665189 -16.28382492 0.25098039 0.27450980 0.65882353
v -0.12032867 -0.07686394 -16.28100967 0.25098039 0.27450980 0.65882353
v -0.12854508 -0.07226843 -16.26558113 0.25098039 0.27450980 0.65882353
v -0.13333221 -0.08045654 -16.26843452 0.25098039 0.27450980 0.65882353
v -0.13118982 -0.10288653 -16.27415085 0.25098039 0.27450980 0.65882353
v -0.13486743 -0.08637936 -16.27377701 0.25098039 0.27450980 0.65882353
v -0.13324758 -0.08612609 -16.27922630 0.25098039 0.27450980 0.65882353
v -0.13128860 -0.10252385 -16.27853966 0.25098039 0.27450980 0.65882353
v -0.13572669 -0.08218110 -16.27421379 0.25098039 0.27450980 0.65882353
v -0.13217500 -0.08609565 -16.26869965 0.25098039 0.27450980 0.65882353
v -0.11788426 -0.09965004 -16.28191185 0.25098039 0.27450980 0.65882353
v -0.12329273 -0.09971850 -16.28354836 0.25098039 0.27450980 0.65882353
v -0.11586687 -0.09874095 -16.27807236 0.25098039 0.27450980 0.65882353
v -0.13183910 -0.05851431 -16.26762199 0.25098039 0.27450980 0.65882353
v -0.13623676 -0.06047402 -16.28502464 0.25098039 0.27450980 0.65882353
v -0.11714692 -0.10014696 -16.27074814 0.25098039 0.27450980 0.65882353
v -0.11540964 -0.09926319 -16.27470207 0.25098039 0.27450980 0.65882353
v -0.12999862 -0.08505605 -16.28177071 0.25098039 0.27450980 0.65882353
v -0.12866451 -0.10125385 -16.28216171 0.25098039 0.27450980 0.65882353
v -0.12850854 -0.10186310 -16.27020645 0.25098039 0.27450980 0.65882353
v -0.12272657 -0.10015693 -16.26819992 0.25098039 0.27450980 0.65882353
v -0.12788348 -0.10790570 -16.27223587 0.25098039 0.27450980 0.65882353
v -0.12202169 -0.10670492 -16.27046013 0.25098039 0.27450980 0.65882353
v -0.11665882 -0.10650609 -16.27293777 0.25098039 0.27450980 0.65882353
v -0.11511779 -0.10481031 -16.27673149 0.25098039 0.27450980 0.65882353
v -0.11555809 -0.10367225 -16.27987480 0.25098039 0.27450980 0.65882353
v -0.13034649 -0.10802354 -16.27654076 0.25098039 0.27450980 0.65882353
v -0.13015325 -0.10692556 -16.28035164 0.25098039 0.27450980 0.65882353
v -0.12776469 -0.10330310 -16.28245354 0.25098039 0.27450980 0.65882353
v -0.13010755 -0.11145176 -16.27971077 0.25098039 0.27450980 0.65882353
v -0.12686099 -0.11430047 -16.27615738 0.25098039 0.27450980 0.65882353
v -0.11564054 -0.12243216 -16.28583908 0.25098039 0.27450980 0.65882353
v -0.11581373 -0.11758585 -16.28235054 0.25098039 0.27450980 0.65882353
v -0.11668755 -0.11832596 -16.28173447 0.25098039 0.27450980 0.65882353
v -0.11655815 -0.12343976 -16.28460312 0.25098039 0.27450980 0.65882353
v -0.11681584 -0.11354804 -16.27682304 0.25098039 0.27450980 0.65882353
v -0.11765973 -0.11529094 -16.27764130 0.25098039 0.27450980 0.65882353
v -0.12125895 -0.11534812 -16.27602959 0.25098039 0.27450980 0.65882353
v -0.12111603 -0.12060742 -16.27999687 0.25098039 0.27450980 0.65882353
v -0.12653250 -0.11879596 -16.28179550 0.25098039 0.27450980 0.65882353
v -0.12534310 -0.12278244 -16.28481865 0.25098039 0.27450980 0.65882353
v -0.12068526 -0.12497084 -16.28319550 0.25098039 0.27450980 0.65882353
v -0.12551296 -0.11563604 -16.27730370 0.25098039 0.27450980 0.65882353
v -0.11747892 -0.12607256 -16.28625488 0.25098039 0.27450980 0.65882353
v -0.11563610 -0.12666459 -16.28742790 0.25098039 0.27450980 0.65882353
v -0.12139442 -0.11357512 -16.27407646 0.25098039 0.27450980 0.65882353
v -0.11419642 -0.11013918 -16.27924919 0.25098039 0.27450980 0.65882353
v -0.11418045 -0.11611797 -16.28429222 0.25098039 0.27450980 0.65882353
v -0.11361080 -0.12091337 -16.28821564 0.25098039 0.27450980 0.65882353
v -0.11548901 -0.12445804 -16.29054260 0.25098039 0.27450980 0.65882353
v -0.11507978 -0.11406028 -16.28727722 0.25098039 0.27450980 0.65882353
v -0.11498365 -0.11883494 -16.29024887 0.25098039 0.27450980 0.65882353
v -0.11654204 -0.12198174 -16.29239082 0.25098039 0.27450980 0.65882353
v -0.11720794 -0.11272264 -16.28933907 0.25098039 0.27450980 0.65882353
v -0.11733353 -0.11711632 -16.29184532 0.25098039 0.27450980 0.65882353
v -0.11776698 -0.10470624 -16.28367615 0.25098039 0.27450980 0.65882353
v -0.11513731 -0.10706349 -16.28168869 0.25098039 0.27450980 0.65882353
v -0.11796109 -0.12015757 -16.29292679 0.25098039 0.27450980 0.65882353
v -0.12016589 -0.12833719 -16.28781128 0.25098039 0.27450980 0.65882353
v -0.12073433 -0.12630199 -16.29170799 0.25098039 0.27450980 0.65882353
v -0.12034542 -0.12680960 -16.28628349 0.25098039 0.27450980 0.65882353
v -0.12806246 -0.11765507 -16.28226662 0.25098039 0.27450980 0.65882353
v -0.12706086 -0.12271346 -16.28658867 0.25098039 0.27450980 0.65882353
v -0.12914330 -0.11600994 -16.28443336 0.25098039 0.27450980 0.65882353
v -0.12813574 -0.12113005 -16.28858376 0.25098039 0.27450980 0.65882353
v -0.12496461 -0.12629144 -16.28798485 0.25098039 0.27450980 0.65882353
v -0.12419237 -0.12590462 -16.28689766 0.25098039 0.27450980 0.65882353
v -0.11835903 -0.10224065 -16.28225327 0.25098039 0.27450980 0.65882353
v -0.12322649 -0.10204791 -16.28359032 0.25098039 0.27450980 0.65882353
v -0.12231866 -0.10403286 -16.28492355 0.25098039 0.27450980 0.65882353
v -0.12147464 -0.11238797 -16.29108047 0.25098039 0.27450980 0.65882353
v -0.12682025 -0.10505152 -16.28421021 0.25098039 0.27450980 0.65882353
v -0.12950629 -0.11004001 -16.28320122 0.25098039 0.27450980 0.65882353
v -0.12828544 -0.11442837 -16.28720474 0.25098039 0.27450980 0.65882353
v -0.12578863 -0.11340469 -16.28992653 0.25098039 0.27450980 0.65882353
v -0.12745571 -0.11925299 -16.29052925 0.25098039 0.27450980 0.65882353
v -0.12547794 -0.11735050 -16.29141617 0.25098039 0.27450980 0.65882353
v -0.12108786 -0.11655779 -16.29339218 0.25098039 0.27450980 0.65882353
v -0.12491442 -0.12236208 -16.29187584 0.25098039 0.27450980 0.65882353
v -0.12563774 -0.12484732 -16.29035568 0.25098039 0.27450980 0.65882353
v -0.12070055 -0.12334616 -16.29331970 0.25098039 0.27450980 0.65882353
v -0.12400821 -0.12015375 -16.29278946 0.25098039 0.27450980 0.65882353
v -0.12079443 -0.12072001 -16.29385376 0.25098039 0.27450980 0.65882353
v -0.13371512 -0.05945863 -16.28726959 0.25098039 0.27450980 0.65882353
v -0.15430850 -0.07663612 -16.29606438 0.25098039 0.27450980 0.65882353
v -0.15750644 -0.07561696 -16.29818535 0.25098039 0.27450980 0.65882353
v -0.15767452 -0.07164703 -16.29688263 0.25098039 0.27450980 0.65882353
v -0.15401742 -0.07194889 -16.29539871 0.25098039 0.27450980 0.65882353
v -0.15646051 -0.07801674 -16.28555679 0.25098039 0.27450980 0.65882353
v -0.15371305 -0.07829124 -16.28898048 0.25098039 0.27450980 0.65882353
v -0.15284523 -0.07383338 -16.28748703 0.25098039 0.27450980 0.65882353
v -0.15553743 -0.07363282 -16.28415871 0.25098039 0.27450980 0.65882353
v -0.16113010 -0.07758650 -16.28478241 0.25098039 0.27450980 0.65882353
v -0.16050589 -0.07322022 -16.28367996 0.25098039 0.27450980 0.65882353
v -0.15477777 -0.07047300 -16.28273010 0.25098039 0.27450980 0.65882353
v -0.15183492 -0.07040937 -16.28642464 0.25098039 0.27450980 0.65882353
v -0.14834790 -0.05508016 -16.28460884 0.25098039 0.27450980 0.65882353
v -0.15182146 -0.05302991 -16.28068733 0.25098039 0.27450980 0.65882353
v -0.16471115 -0.04723814 -16.29318810 0.25098039 0.27450980 0.65882353
v -0.15989408 -0.04608255 -16.29769516 0.25098039 0.27450980 0.65882353
v -0.16125190 -0.05504724 -16.29618454 0.25098039 0.27450980 0.65882353
v -0.16480273 -0.05408603 -16.29233932 0.25098039 0.27450980 0.65882353
v -0.15317607 -0.07767409 -16.29272842 0.25098039 0.27450980 0.65882353
v -0.15209067 -0.07323977 -16.29224777 0.25098039 0.27450980 0.65882353
v -0.16576786 -0.06638929 -16.29362297 0.25098039 0.27450980 0.65882353
v -0.16208379 -0.06714670 -16.29629898 0.25098039 0.27450980 0.65882353
v -0.16148096 -0.07057860 -16.29740143 0.25098039 0.27450980 0.65882353
v -0.16556114 -0.07052927 -16.29547119 0.25098039 0.27450980 0.65882353
v -0.15448192 -0.04816594 -16.29845810 0.25098039 0.27450980 0.65882353
v -0.14995857 -0.05004404 -16.29665375 0.25098039 0.27450980 0.65882353
v -0.15067092 -0.05438526 -16.29683113 0.25098039 0.27450980 0.65882353
v -0.15647037 -0.05631844 -16.29743576 0.25098039 0.27450980 0.65882353
v -0.14761239 -0.05588585 -16.29246140 0.25098039 0.27450980 0.65882353
v -0.16704187 -0.06698012 -16.28997993 0.25098039 0.27450980 0.65882353
v -0.16542269 -0.06832771 -16.28488541 0.25098039 0.27450980 0.65882353
v -0.16539437 -0.05224294 -16.28256989 0.25098039 0.27450980 0.65882353
v -0.16606745 -0.05214849 -16.28725624 0.25098039 0.27450980 0.65882353
v -0.15110552 -0.07046916 -16.29084396 0.25098039 0.27450980 0.65882353
v -0.15797098 -0.06849597 -16.29657364 0.25098039 0.27450980 0.65882353
v -0.15384454 -0.06946430 -16.29493332 0.25098039 0.27450980 0.65882353
v -0.16029191 -0.06987844 -16.28191566 0.25098039 0.27450980 0.65882353
v -0.16554961 -0.07230040 -16.28652000 0.25098039 0.27450980 0.65882353
v -0.16849542 -0.08438121 -16.29550171 0.25098039 0.27450980 0.65882353
v -0.16768919 -0.07483259 -16.29281998 0.25098039 0.27450980 0.65882353
v -0.16556710 -0.07466564 -16.29708862 0.25098039 0.27450980 0.65882353
v -0.16732842 -0.08414572 -16.29814339 0.25098039 0.27450980 0.65882353
v -0.16715005 -0.07091235 -16.29137039 0.25098039 0.27450980 0.65882353
v -0.16615066 -0.07645302 -16.28775978 0.25098039 0.27450980 0.65882353
v -0.15571097 -0.08573425 -16.29857826 0.25098039 0.27450980 0.65882353
v -0.16005808 -0.08415493 -16.30060577 0.25098039 0.27450980 0.65882353
v -0.15451607 -0.08648600 -16.29572105 0.25098039 0.27450980 0.65882353
v -0.15859509 -0.05261282 -16.27892876 0.25098039 0.27450980 0.65882353
v -0.15763101 -0.08752634 -16.28911972 0.25098039 0.27450980 0.65882353
v -0.15489475 -0.08771974 -16.29243088 0.25098039 0.27450980 0.65882353
v -0.16137844 -0.07496764 -16.29863358 0.25098039 0.27450980 0.65882353
v -0.16433746 -0.08372180 -16.30011177 0.25098039 0.27450980 0.65882353
v -0.16742159 -0.08535607 -16.29156685 0.25098039 0.27450980 0.65882353
v -0.16281980 -0.08648112 -16.28798294 0.25098039 0.27450980 0.65882353
v -0.16733414 -0.08991680 -16.29318047 0.25098039 0.27450980 0.65882353
v -0.16238809 -0.09059037 -16.28978539 0.25098039 0.27450980 0.65882353
v -0.15698215 -0.09166025 -16.29155159 0.25098039 0.27450980 0.65882353
v -0.15501073 -0.09044220 -16.29437637 0.25098039 0.27450980 0.65882353
v -0.15464182 -0.08930057 -16.29732323 0.25098039 0.27450980 0.65882353
v -0.16852187 -0.08862390 -16.29700470 0.25098039 0.27450980 0.65882353
v -0.16733076 -0.08775677 -16.29960823 0.25098039 0.27450980 0.65882353
v -0.16445510 -0.08639394 -16.30151558 0.25098039 0.27450980 0.65882353
v -0.16838427 -0.09284060 -16.29882050 0.25098039 0.27450980 0.65882353
v -0.16680296 -0.09594259 -16.29559708 0.25098039 0.27450980 0.65882353
v -0.15742579 -0.10402088 -16.30125999 0.25098039 0.27450980 0.65882353
v -0.15689950 -0.10048653 -16.29912186 0.25098039 0.27450980 0.65882353
v -0.15776114 -0.10087442 -16.29830360 0.25098039 0.27450980 0.65882353
v -0.15770209 -0.10458702 -16.30024338 0.25098039 0.27450980 0.65882353
v -0.15734895 -0.09677143 -16.29513168 0.25098039 0.27450980 0.65882353
v -0.15853634 -0.09793974 -16.29537392 0.25098039 0.27450980 0.65882353
v -0.16166118 -0.09681475 -16.29421616 0.25098039 0.27450980 0.65882353
v -0.16170889 -0.10146309 -16.29678917 0.25098039 0.27450980 0.65882353
v -0.16653517 -0.10075933 -16.29902267 0.25098039 0.27450980 0.65882353
v -0.16602211 -0.10457619 -16.30084801 0.25098039 0.27450980 0.65882353
v -0.16188343 -0.10493213 -16.29845810 0.25098039 0.27450980 0.65882353
v -0.16554466 -0.09768802 -16.29564095 0.25098039 0.27450980 0.65882353
v -0.15863845 -0.10715254 -16.30087090 0.25098039 0.27450980 0.65882353
v -0.15809768 -0.10797282 -16.30200577 0.25098039 0.27450980 0.65882353
v -0.16169028 -0.09549949 -16.29278755 0.25098039 0.27450980 0.65882353
v -0.15493143 -0.09425746 -16.29736900 0.25098039 0.27450980 0.65882353
v -0.15563397 -0.10017787 -16.30124855 0.25098039 0.27450980 0.65882353
v -0.15663928 -0.10472831 -16.30340767 0.25098039 0.27450980 0.65882353
v -0.15861869 -0.10789920 -16.30434990 0.25098039 0.27450980 0.65882353
v -0.15570377 -0.09814298 -16.30310822 0.25098039 0.27450980 0.65882353
v -0.15664470 -0.10365491 -16.30567551 0.25098039 0.27450980 0.65882353
v -0.15881938 -0.10647866 -16.30664253 0.25098039 0.27450980 0.65882353
v -0.15712522 -0.09609064 -16.30549240 0.25098039 0.27450980 0.65882353
v -0.15810657 -0.10170929 -16.30718613 0.25098039 0.27450980 0.65882353
v -0.15676434 -0.08977778 -16.30210304 0.25098039 0.27450980 0.65882353
v -0.15516375 -0.09202403 -16.29985809 0.25098039 0.27450980 0.65882353
v -0.15943132 -0.10466044 -16.30723953 0.25098039 0.27450980 0.65882353
v -0.16180110 -0.10896659 -16.30171967 0.25098039 0.27450980 0.65882353
v -0.16186410 -0.10852705 -16.30482101 0.25098039 0.27450980 0.65882353
v -0.16205485 -0.10812543 -16.30047989 0.25098039 0.27450980 0.65882353
v -0.16758676 -0.10004734 -16.29986382 0.25098039 0.27450980 0.65882353
v -0.16704476 -0.10463263 -16.30229568 0.25098039 0.27450980 0.65882353
v -0.16827543 -0.09861791 -16.30195999 0.25098039 0.27450980 0.65882353
v -0.16710588 -0.10387477 -16.30445290 0.25098039 0.27450980 0.65882353
v -0.16525555 -0.10778080 -16.30288124 0.25098039 0.27450980 0.65882353
v -0.16456673 -0.10707769 -16.30109978 0.25098039 0.27450980 0.65882353
v -0.15639779 -0.08796968 -16.30062866 0.25098039 0.27450980 0.65882353
v -0.16017076 -0.08642854 -16.30162048 0.25098039 0.27450980 0.65882353
v -0.16060546 -0.08851653 -16.30313110 0.25098039 0.27450980 0.65882353
v -0.16053864 -0.09481922 -16.30670166 0.25098039 0.27450980 0.65882353
v -0.16480675 -0.08879679 -16.30283356 0.25098039 0.27450980 0.65882353
v -0.16742860 -0.09068495 -16.30090141 0.25098039 0.27450980 0.65882353
v -0.16720611 -0.09702884 -16.30410576 0.25098039 0.27450980 0.65882353
v -0.16480479 -0.09565733 -16.30613327 0.25098039 0.27450980 0.65882353
v -0.16610955 -0.10300504 -16.30638504 0.25098039 0.27450980 0.65882353
v -0.16399950 -0.10132797 -16.30797386 0.25098039 0.27450980 0.65882353
v -0.16086176 -0.10065053 -16.30846024 0.25098039 0.27450980 0.65882353
v -0.16390049 -0.10621743 -16.30663300 0.25098039 0.27450980 0.65882353
v -0.16479132 -0.10739370 -16.30525780 0.25098039 0.27450980 0.65882353
v -0.16168317 -0.10694346 -16.30658722 0.25098039 0.27450980 0.65882353
v -0.16292803 -0.10470533 -16.30773163 0.25098039 0.27450980 0.65882353
v -0.16127887 -0.10464236 -16.30772400 0.25098039 0.27450980 0.65882353
v -0.16576067 -0.04863964 -16.28918648 0.25098039 0.27450980 0.65882353
v -0.08815324 -0.01485885 -16.35573769 0.25098039 0.27450980 0.65882353
v -0.09071651 -0.01849707 -16.35193062 0.25098039 0.27450980 0.65882353
v -0.10473071 -0.02255702 -16.35970116 0.25098039 0.27450980 0.65882353
v -0.10069416 -0.02425958 -16.35424042 0.25098039 0.27450980 0.65882353
v -0.10494758 -0.01929094 -16.36536217 0.25098039 0.27450980 0.65882353
v -0.09809229 -0.01162894 -16.36816978 0.25098039 0.27450980 0.65882353
v -0.10280350 -0.01446033 -16.36759186 0.25098039 0.27450980 0.65882353
v -0.09557356 -0.02261293 -16.35153008 0.25098039 0.27450980 0.65882353
v -0.08809422 -0.01139034 -16.36037636 0.25098039 0.27450980 0.65882353
v -0.09223804 -0.00952092 -16.36565590 0.25098039 0.27450980 0.65882353
v -0.08429469 -0.01750546 -16.36384773 0.25098039 0.27450980 0.65882353
v -0.08863281 -0.01605209 -16.36977768 0.25098039 0.27450980 0.65882353
v -0.09442534 -0.01837155 -16.37289047 0.25098039 0.27450980 0.65882353
v -0.10014136 -0.02098927 -16.37154961 0.25098039 0.27450980 0.65882353
v -0.10285442 -0.02400945 -16.36897659 0.25098039 0.27450980 0.65882353
v -0.08614886 -0.02073612 -16.35798836 0.25098039 0.27450980 0.65882353
v -0.08928159 -0.02414085 -16.35440254 0.25098039 0.27450980 0.65882353
v -0.09520067 -0.02697810 -16.35397530 0.25098039 0.27450980 0.65882353
v -0.08445996 -0.02862960 -16.35965157 0.25098039 0.27450980 0.65882353
v -0.08203554 -0.03468531 -16.36759758 0.25098039 0.27450980 0.65882353
v -0.08855288 -0.04506042 -16.38145447 0.25098039 0.27450980 0.65882353
v -0.09147292 -0.03928022 -16.37947083 0.25098039 0.27450980 0.65882353
v -0.08852513 -0.03914784 -16.37919235 0.25098039 0.27450980 0.65882353
v -0.08597076 -0.04402598 -16.38160515 0.25098039 0.27450980 0.65882353
v -0.09086783 -0.03417685 -16.37770271 0.25098039 0.27450980 0.65882353
v -0.08888707 -0.03559007 -16.37715912 0.25098039 0.27450980 0.65882353
v -0.08528048 -0.03445589 -16.37364197 0.25098039 0.27450980 0.65882353
v -0.08281994 -0.03863889 -16.37620163 0.25098039 0.27450980 0.65882353
v -0.08255774 -0.03625392 -16.36990166 0.25098039 0.27450980 0.65882353
v -0.08109927 -0.03986673 -16.37026978 0.25098039 0.27450980 0.65882353
v -0.08072902 -0.04317793 -16.37813377 0.25098039 0.27450980 0.65882353
v -0.08273652 -0.04657523 -16.38235092 0.25098039 0.27450980 0.65882353
v -0.07919721 -0.04743787 -16.37965202 0.25098039 0.27450980 0.65882353
v -0.08483136 -0.04893751 -16.38171196 0.25098039 0.27450980 0.65882353
v -0.08420834 -0.03252585 -16.37430382 0.25098039 0.27450980 0.65882353
v -0.09686932 -0.03018549 -16.37587166 0.25098039 0.27450980 0.65882353
v -0.09517145 -0.03885931 -16.37776375 0.25098039 0.27450980 0.65882353
v -0.09167074 -0.04595723 -16.37924957 0.25098039 0.27450980 0.65882353
v -0.08693531 -0.05029922 -16.37952042 0.25098039 0.27450980 0.65882353
v -0.09793466 -0.03973276 -16.37408257 0.25098039 0.27450980 0.65882353
v -0.09385929 -0.04616140 -16.37508774 0.25098039 0.27450980 0.65882353
v -0.08928922 -0.04998567 -16.37473106 0.25098039 0.27450980 0.65882353
v -0.09828080 -0.04081031 -16.36938858 0.25098039 0.27450980 0.65882353
v -0.09386031 -0.04631918 -16.37105370 0.25098039 0.27450980 0.65882353
v -0.10214850 -0.02913206 -16.36495209 0.25098039 0.27450980 0.65882353
v -0.10139252 -0.02891619 -16.37131500 0.25098039 0.27450980 0.65882353
v -0.09031524 -0.04895584 -16.37209892 0.25098039 0.27450980 0.65882353
v -0.07920042 -0.05012343 -16.37931061 0.25098039 0.27450980 0.65882353
v -0.08177592 -0.05170744 -16.37652206 0.25098039 0.27450980 0.65882353
v -0.08093035 -0.03991476 -16.36660957 0.25098039 0.27450980 0.65882353
v -0.07835031 -0.04389696 -16.37226868 0.25098039 0.27450980 0.65882353
v -0.07910262 -0.04505404 -16.36919022 0.25098039 0.27450980 0.65882353
v -0.08254273 -0.03958915 -16.36269760 0.25098039 0.27450980 0.65882353
v -0.08040705 -0.04610780 -16.36652565 0.25098039 0.27450980 0.65882353
v -0.07779108 -0.04867492 -16.37349510 0.25098039 0.27450980 0.65882353
v -0.07767957 -0.04644712 -16.37545776 0.25098039 0.27450980 0.65882353
v -0.10342203 -0.02582375 -16.36315346 0.25098039 0.27450980 0.65882353
v -0.10051364 -0.02671459 -16.35726738 0.25098039 0.27450980 0.65882353
v -0.09894012 -0.02970601 -16.35895729 0.25098039 0.27450980 0.65882353
v -0.09557775 -0.04061588 -16.36357498 0.25098039 0.27450980 0.65882353
v -0.09385937 -0.03073391 -16.35568619 0.25098039 0.27450980 0.65882353
v -0.08794321 -0.02994923 -16.35660744 0.25098039 0.27450980 0.65882353
v -0.08566010 -0.04034991 -16.36032677 0.25098039 0.27450980 0.65882353
v -0.09058438 -0.04073272 -16.36017609 0.25098039 0.27450980 0.65882353
v -0.08387183 -0.04683590 -16.36498260 0.25098039 0.27450980 0.65882353
v -0.08708097 -0.04687539 -16.36499023 0.25098039 0.27450980 0.65882353
v -0.09145556 -0.04710486 -16.36744881 0.25098039 0.27450980 0.65882353
v -0.08324212 -0.04997222 -16.36918449 0.25098039 0.27450980 0.65882353
v -0.07981148 -0.04990182 -16.37086105 0.25098039 0.27450980 0.65882353
v -0.08517641 -0.05123672 -16.37282753 0.25098039 0.27450980 0.65882353
v -0.08593032 -0.04897026 -16.36811256 0.25098039 0.27450980 0.65882353
v -0.08784282 -0.04954754 -16.37037277 0.25098039 0.27450980 0.65882353
v -0.16145349 -0.04167188 -16.29761124 0.25098039 0.27450980 0.65882353
v -0.15519916 -0.04274272 -16.29968452 0.25098039 0.27450980 0.65882353
v -0.15905511 -0.03777269 -16.30106926 0.25098039 0.27450980 0.65882353
v -0.16252492 -0.02951112 -16.30352020 0.25098039 0.27450980 0.65882353
v -0.16994357 -0.02133184 -16.30309677 0.25098039 0.27450980 0.65882353
v -0.15603566 -0.02874939 -16.30518341 0.25098039 0.27450980 0.65882353
v -0.15278302 -0.03728376 -16.30199814 0.25098039 0.27450980 0.65882353
v -0.14778003 -0.04522342 -16.29887199 0.25098039 0.27450980 0.65882353
v -0.15173642 -0.02020505 -16.30856514 0.25098039 0.27450980 0.65882353
f 2 3 1
f 1 3 4
f 5 6 8
f 8 6 7
f 9 4 10
f 10 4 3
f 12 13 11
f 11 13 9
f 14 12 16
f 16 12 15
f 18 19 17
f 17 19 20
f 22 23 21
f 21 23 24
f 26 27 25
f 25 27 28
f 30 31 29
f 29 31 32
f 33 34 36
f 36 34 35
f 37 38 40
f 40 38 39
f 41 42 6
f 6 42 43
f 6 43 7
f 7 43 44
f 45 34 46
f 46 34 33
f 48 49 47
f 47 49 50
f 52 53 51
f 51 53 54
f 56 52 55
f 55 52 51
f 58 59 57
f 57 59 60
f 61 62 4
f 4 62 1
f 64 65 63
f 63 65 66
f 68 69 67
f 67 69 70
f 72 73 71
f 71 73 74
f 76 77 75
f 75 77 78
f 53 79 54
f 54 79 80
f 82 83 81
f 81 83 84
f 85 86 52
f 52 86 53
f 57 60 87
f 87 60 88
f 89 90 43
f 43 90 44
f 43 42 89
f 89 42 91
f 40 39 92
f 92 39 93
f 94 70 64
f 64 70 69
f 13 61 9
f 9 61 4
f 25 28 69
f 69 28 95
f 96 25 68
f 68 25 69
f 98 99 97
f 97 99 100
f 101 102 104
f 104 102 103
f 106 30 105
f 105 30 29
f 51 54 107
f 107 54 108
f 54 80 108
f 108 80 109
f 111 112 110
f 110 112 113
f 115 5 114
f 114 5 116
f 115 41 5
f 5 41 6
f 36 35 111
f 111 35 117
f 35 118 117
f 117 118 119
f 34 120 35
f 35 120 118
f 34 45 120
f 120 45 121
f 125 126 124
f 124 126 127
f 128 129 14
f 14 129 130
f 33 131 46
f 46 131 132
f 133 94 63
f 63 94 64
f 134 135 137
f 137 135 136
f 139 140 138
f 138 140 141
f 77 142 78
f 78 142 143
f 144 145 20
f 20 145 146
f 148 149 147
f 147 149 72
f 151 152 150
f 150 152 153
f 82 101 83
f 83 101 104
f 101 82 155
f 155 82 154
f 156 157 58
f 58 157 59
f 158 68 147
f 147 68 67
f 159 146 15
f 15 146 16
f 68 158 96
f 96 158 160
f 129 66 130
f 130 66 65
f 162 163 161
f 161 163 164
f 166 167 165
f 165 167 168
f 170 171 169
f 169 171 172
f 174 171 173
f 173 171 170
f 176 177 175
f 175 177 178
f 180 181 179
f 179 181 24
f 182 183 21
f 21 183 184
f 81 185 82
f 82 185 154
f 186 187 188
f 188 187 144
f 158 71 160
f 160 71 189
f 190 135 157
f 157 135 59
f 169 172 139
f 139 172 140
f 147 72 158
f 158 72 71
f 192 193 191
f 191 193 194
f 167 166 49
f 49 166 195
f 196 190 50
f 50 190 157
f 197 198 200
f 200 198 199
f 21 24 182
f 182 24 181
f 146 159 20
f 20 159 17
f 182 181 81
f 81 181 185
f 201 185 180
f 180 185 181
f 202 203 83
f 83 203 84
f 205 206 204
f 204 206 85
f 207 22 184
f 184 22 21
f 179 24 208
f 208 24 23
f 208 209 179
f 179 209 205
f 209 210 205
f 205 210 206
f 212 206 211
f 211 206 210
f 179 205 180
f 180 205 204
f 213 176 88
f 88 176 214
f 86 85 212
f 212 85 206
f 193 217 218
f 217 219 218
f 218 219 220
f 219 18 220
f 220 18 17
f 19 221 20
f 20 221 144
f 222 223 225
f 225 223 224
f 175 226 176
f 176 226 214
f 227 87 214
f 214 87 88
f 220 17 228
f 228 17 159
f 134 213 60
f 60 213 88
f 138 229 151
f 151 229 152
f 193 192 210
f 210 192 211
f 230 194 218
f 218 194 193
f 231 232 228
f 228 232 230
f 233 234 91
f 91 234 89
f 235 236 93
f 93 236 92
f 230 232 234
f 234 232 237
f 47 238 48
f 48 238 239
f 240 191 235
f 235 191 236
f 5 8 116
f 116 8 241
f 242 243 189
f 189 243 160
f 244 245 98
f 98 245 99
f 156 246 47
f 47 246 238
f 76 247 77
f 77 247 248
f 250 125 249
f 249 125 124
f 252 253 251
f 251 253 254
f 111 110 36
f 36 110 255
f 256 33 255
f 255 33 36
f 257 258 154
f 154 258 155
f 63 169 133
f 133 169 139
f 66 170 63
f 63 170 169
f 173 170 129
f 129 170 66
f 129 128 173
f 173 128 259
f 128 260 259
f 259 260 261
f 213 134 262
f 262 134 137
f 263 264 186
f 186 264 187
f 112 265 113
f 113 265 266
f 11 267 268
f 234 233 230
f 230 233 194
f 153 269 70
f 70 269 67
f 175 178 165
f 165 178 141
f 150 153 94
f 94 153 70
f 271 221 270
f 270 221 207
f 269 153 272
f 272 153 152
f 121 45 109
f 109 45 108
f 47 50 156
f 156 50 157
f 57 273 58
f 58 273 274
f 145 275 260
f 260 275 261
f 276 149 143
f 143 149 78
f 148 269 75
f 75 269 272
f 207 277 270
f 270 277 278
f 195 196 49
f 49 196 50
f 59 135 60
f 60 135 134
f 83 104 202
f 202 104 279
f 149 148 78
f 78 148 75
f 247 278 248
f 248 278 277
f 183 182 84
f 84 182 81
f 48 239 281
f 281 239 282
f 227 223 283
f 283 223 222
f 223 226 224
f 224 226 168
f 281 282 224
f 224 282 225
f 165 168 175
f 175 168 226
f 264 263 138
f 138 263 229
f 14 16 128
f 128 16 260
f 220 228 218
f 218 228 230
f 87 227 284
f 284 227 283
f 260 16 145
f 145 16 146
f 244 98 258
f 258 98 155
f 58 274 156
f 156 274 246
f 107 285 51
f 51 285 55
f 243 286 160
f 160 286 96
f 234 237 89
f 89 237 90
f 46 132 107
f 107 132 285
f 253 252 249
f 249 252 250
f 286 26 96
f 96 26 25
f 106 105 287
f 287 105 288
f 272 152 289
f 289 152 229
f 138 151 139
f 139 151 133
f 183 290 161
f 161 290 162
f 291 292 277
f 277 292 293
f 151 150 133
f 133 150 94
f 262 275 177
f 177 275 187
f 144 187 145
f 145 187 275
f 273 57 284
f 284 57 87
f 174 136 190
f 190 136 135
f 111 117 112
f 112 117 38
f 117 119 38
f 38 119 123
f 112 38 265
f 265 38 37
f 287 288 254
f 254 288 251
f 228 159 231
f 231 159 15
f 223 227 226
f 226 227 214
f 147 67 148
f 148 67 269
f 224 168 281
f 281 168 167
f 199 163 200
f 200 163 162
f 45 46 108
f 108 46 107
f 281 167 48
f 48 167 49
f 161 164 291
f 291 164 292
f 38 123 39
f 293 294 277
f 277 294 248
f 284 283 296
f 296 283 295
f 284 296 273
f 273 296 297
f 274 273 298
f 298 273 297
f 246 274 299
f 299 274 298
f 283 222 295
f 295 222 300
f 222 225 300
f 300 225 301
f 301 225 302
f 302 225 282
f 303 304 300
f 300 304 295
f 306 307 305
f 305 307 308
f 309 310 308
f 308 310 305
f 308 307 312
f 312 307 311
f 313 314 312
f 312 314 315
f 311 316 312
f 312 316 313
f 317 304 311
f 311 304 316
f 315 309 312
f 312 309 308
f 318 319 321
f 321 319 320
f 319 318 309
f 309 318 310
f 311 307 317
f 317 307 306
f 306 297 317
f 317 297 296
f 306 322 297
f 297 322 298
f 305 323 306
f 306 323 322
f 323 305 324
f 324 305 310
f 304 317 295
f 295 317 296
f 318 325 310
f 310 325 324
f 323 324 326
f 326 324 327
f 324 325 327
f 327 325 328
f 326 327 329
f 329 327 330
f 329 331 326
f 326 331 332
f 333 330 328
f 328 330 327
f 323 326 322
f 322 326 332
f 322 332 298
f 298 332 299
f 325 318 334
f 334 318 321
f 313 316 335
f 335 316 304
f 335 336 313
f 313 336 314
f 304 303 335
f 335 303 337
f 336 335 338
f 338 335 337
f 336 339 314
f 314 339 340
f 246 299 238
f 238 299 341
f 239 342 282
f 282 342 302
f 342 239 341
f 341 239 238
f 341 331 342
f 342 331 343
f 331 329 343
f 343 329 344
f 342 343 302
f 302 343 345
f 341 299 331
f 331 299 332
f 346 301 345
f 345 301 302
f 346 303 301
f 301 303 300
f 347 337 346
f 346 337 303
f 347 346 348
f 348 346 345
f 349 347 350
f 350 347 348
f 343 344 345
f 345 344 348
f 344 351 348
f 348 351 350
f 337 347 338
f 338 347 349
f 353 338 352
f 352 338 349
f 352 355 354
f 354 355 356
f 352 349 355
f 355 349 350
f 352 354 353
f 353 354 334
f 353 334 339
f 339 334 321
f 339 336 353
f 353 336 338
f 329 330 344
f 344 330 351
f 356 351 333
f 333 351 330
f 356 355 351
f 351 355 350
f 354 356 328
f 328 356 333
f 328 325 354
f 354 325 334
f 309 315 319
f 319 315 320
f 320 340 321
f 321 340 339
f 320 315 340
f 340 315 314
f 137 136 261
f 261 136 259
f 140 166 141
f 141 166 165
f 172 171 195
f 195 171 196
f 171 174 196
f 196 174 190
f 178 177 264
f 264 177 187
f 172 195 140
f 140 195 166
f 137 261 262
f 262 261 275
f 178 264 141
f 141 264 138
f 262 177 213
f 213 177 176
f 136 174 259
f 259 174 173
f 358 359 357
f 357 359 360
f 362 363 361
f 361 363 364
f 361 364 365
f 365 364 366
f 367 368 370
f 370 368 369
f 76 371 247
f 247 371 372
f 373 374 362
f 362 374 363
f 376 377 375
f 375 377 378
f 289 229 380
f 380 229 379
f 381 379 263
f 263 379 229
f 383 384 382
f 382 384 385
f 386 368 374
f 374 368 363
f 76 289 371
f 371 289 380
f 377 376 359
f 359 376 387
f 388 386 360
f 360 386 374
f 389 383 366
f 366 383 390
f 392 393 391
f 391 393 394
f 383 382 390
f 390 382 395
f 396 365 390
f 390 365 366
f 389 366 367
f 367 366 364
f 357 397 358
f 358 397 398
f 373 399 357
f 357 399 397
f 389 367 400
f 400 367 370
f 382 385 375
f 375 385 372
f 357 360 373
f 373 360 374
f 361 401 362
f 362 401 402
f 387 388 359
f 359 388 360
f 363 368 364
f 364 368 367
f 358 398 403
f 403 398 404
f 396 392 405
f 405 392 391
f 392 395 393
f 393 395 378
f 393 403 394
f 394 403 404
f 375 378 382
f 382 378 395
f 365 396 406
f 406 396 405
f 362 402 373
f 373 402 399
f 271 270 400
f 400 270 384
f 401 361 406
f 406 361 365
f 381 369 386
f 386 369 368
f 392 396 395
f 395 396 390
f 393 378 403
f 403 378 377
f 403 377 358
f 358 377 359
f 406 405 408
f 408 405 407
f 406 408 401
f 401 408 409
f 401 409 402
f 402 409 410
f 402 410 399
f 399 410 411
f 405 391 407
f 407 391 412
f 391 394 412
f 412 394 413
f 394 404 413
f 413 404 414
f 415 416 412
f 412 416 407
f 418 419 417
f 417 419 420
f 421 422 418
f 418 422 419
f 419 422 424
f 424 422 423
f 425 426 424
f 424 426 427
f 423 428 424
f 424 428 425
f 427 420 424
f 424 420 419
f 420 429 417
f 417 429 430
f 423 422 431
f 431 422 421
f 421 409 431
f 431 409 408
f 421 432 409
f 409 432 410
f 418 433 421
f 421 433 432
f 434 433 417
f 417 433 418
f 431 416 423
f 423 416 428
f 416 431 407
f 407 431 408
f 435 434 430
f 430 434 417
f 433 434 436
f 436 434 437
f 434 435 437
f 437 435 438
f 436 437 439
f 439 437 440
f 439 441 436
f 436 441 442
f 438 443 437
f 437 443 440
f 436 442 433
f 433 442 432
f 432 442 410
f 410 442 411
f 435 430 445
f 445 430 444
f 430 429 444
f 444 429 446
f 425 428 447
f 447 428 416
f 426 425 448
f 448 425 447
f 416 415 447
f 447 415 449
f 447 449 448
f 448 449 450
f 451 452 448
f 448 452 426
f 446 452 444
f 444 452 451
f 399 411 397
f 397 411 453
f 398 454 404
f 404 454 414
f 454 398 453
f 453 398 397
f 453 441 454
f 454 441 455
f 441 439 455
f 455 439 456
f 454 455 414
f 414 455 457
f 441 453 442
f 442 453 411
f 458 413 457
f 457 413 414
f 458 415 413
f 413 415 412
f 458 459 415
f 415 459 449
f 459 458 460
f 460 458 457
f 461 459 462
f 462 459 460
f 455 456 457
f 457 456 460
f 456 463 460
f 460 463 462
f 459 461 449
f 449 461 450
f 465 450 464
f 464 450 461
f 464 467 466
f 466 467 468
f 464 461 467
f 467 461 462
f 464 466 465
f 465 466 445
f 465 445 451
f 451 445 444
f 451 448 465
f 465 448 450
f 439 440 456
f 456 440 463
f 468 463 443
f 443 463 440
f 468 467 463
f 463 467 462
f 466 468 438
f 438 468 443
f 438 435 466
f 466 435 445
f 420 427 429
f 429 427 446
f 446 427 452
f 452 427 426
f 370 369 188
f 188 369 186
f 371 376 372
f 372 376 375
f 380 379 387
f 387 379 388
f 379 381 388
f 388 381 386
f 385 384 278
f 278 384 270
f 380 387 371
f 371 387 376
f 400 370 271
f 271 370 188
f 385 278 372
f 372 278 247
f 400 384 389
f 389 384 383
f 369 381 186
f 186 381 263
f 221 271 144
f 144 271 188
f 221 19 207
f 207 19 22
f 19 18 22
f 22 18 23
f 18 219 23
f 23 219 208
f 469 470 472
f 472 470 471
f 474 475 473
f 473 475 476
f 473 476 477
f 477 476 478
f 480 481 479
f 479 481 482
f 483 484 474
f 474 484 475
f 486 487 485
f 485 487 488
f 489 490 77
f 77 490 142
f 491 489 248
f 248 489 77
f 493 494 492
f 492 494 495
f 496 480 484
f 484 480 475
f 486 497 487
f 487 497 471
f 498 496 472
f 472 496 484
f 499 493 478
f 478 493 500
f 501 502 504
f 504 502 503
f 493 492 500
f 500 492 505
f 506 477 500
f 500 477 478
f 499 478 479
f 479 478 476
f 469 507 470
f 470 507 508
f 483 509 469
f 469 509 507
f 479 482 499
f 499 482 510
f 492 495 485
f 485 495 511
f 483 469 484
f 484 469 472
f 473 512 474
f 474 512 513
f 497 498 471
f 471 498 472
f 475 480 476
f 476 480 479
f 470 508 514
f 514 508 515
f 506 502 516
f 516 502 501
f 503 502 488
f 488 502 505
f 514 515 503
f 503 515 504
f 485 488 492
f 492 488 505
f 477 506 517
f 517 506 516
f 474 513 483
f 483 513 509
f 510 292 494
f 494 292 164
f 512 473 517
f 517 473 477
f 491 481 496
f 496 481 480
f 502 506 505
f 505 506 500
f 503 488 514
f 514 488 487
f 514 487 470
f 470 487 471
f 517 516 519
f 519 516 518
f 517 519 512
f 512 519 520
f 512 520 513
f 513 520 521
f 513 521 509
f 509 521 522
f 516 501 518
f 518 501 523
f 501 504 523
f 523 504 524
f 524 504 525
f 525 504 515
f 526 527 523
f 523 527 518
f 529 530 528
f 528 530 531
f 532 533 529
f 529 533 530
f 530 533 535
f 535 533 534
f 536 537 535
f 535 537 538
f 534 539 535
f 535 539 536
f 538 531 535
f 535 531 530
f 540 541 531
f 531 541 528
f 533 532 534
f 534 532 542
f 532 520 542
f 542 520 519
f 532 543 520
f 520 543 521
f 529 544 532
f 532 544 543
f 544 529 545
f 545 529 528
f 534 542 539
f 539 542 527
f 527 542 518
f 518 542 519
f 541 546 528
f 528 546 545
f 547 544 548
f 548 544 545
f 546 549 545
f 545 549 548
f 550 547 551
f 551 547 548
f 547 550 553
f 553 550 552
f 549 554 548
f 548 554 551
f 544 547 543
f 543 547 553
f 543 553 521
f 521 553 522
f 546 541 556
f 556 541 555
f 541 540 555
f 555 540 557
f 536 539 558
f 558 539 527
f 537 536 559
f 559 536 558
f 527 526 558
f 558 526 560
f 559 558 561
f 561 558 560
f 559 562 537
f 537 562 563
f 557 563 555
f 555 563 562
f 509 522 507
f 507 522 564
f 508 565 515
f 515 565 525
f 565 508 564
f 564 508 507
f 564 552 565
f 565 552 566
f 552 550 566
f 566 550 567
f 565 566 525
f 525 566 568
f 564 522 552
f 552 522 553
f 569 524 568
f 568 524 525
f 569 526 524
f 524 526 523
f 570 560 569
f 569 560 526
f 570 569 571
f 571 569 568
f 572 570 573
f 573 570 571
f 566 567 568
f 568 567 571
f 567 574 571
f 571 574 573
f 570 572 560
f 560 572 561
f 576 561 575
f 575 561 572
f 575 578 577
f 577 578 579
f 575 572 578
f 578 572 573
f 575 577 576
f 576 577 556
f 576 556 562
f 562 556 555
f 562 559 576
f 576 559 561
f 550 551 567
f 567 551 574
f 579 574 554
f 554 574 551
f 579 578 574
f 574 578 573
f 579 554 577
f 577 554 549
f 549 546 577
f 577 546 556
f 531 538 540
f 540 538 557
f 557 538 563
f 563 538 537
f 481 294 482
f 482 294 293
f 580 486 511
f 511 486 485
f 490 489 497
f 497 489 498
f 489 491 498
f 498 491 496
f 163 495 164
f 164 495 494
f 580 490 486
f 486 490 497
f 482 293 510
f 510 293 292
f 495 163 511
f 511 163 199
f 494 493 510
f 510 493 499
f 481 491 294
f 294 491 248
f 582 583 581
f 581 583 584
f 586 587 585
f 585 587 588
f 585 588 589
f 589 588 590
f 592 593 591
f 591 593 594
f 595 596 598
f 598 596 597
f 599 600 586
f 586 600 587
f 601 602 604
f 604 602 603
f 605 606 608
f 608 606 607
f 609 607 200
f 200 607 606
f 610 611 613
f 613 611 612
f 600 614 587
f 587 614 592
f 596 605 597
f 597 605 608
f 602 615 603
f 603 615 583
f 616 614 584
f 584 614 600
f 611 618 617
f 617 618 590
f 620 621 619
f 619 621 622
f 610 623 611
f 611 623 618
f 624 589 618
f 618 589 590
f 617 590 591
f 591 590 588
f 581 625 582
f 582 625 626
f 599 627 581
f 581 627 625
f 591 594 617
f 617 594 628
f 601 610 598
f 598 610 613
f 581 584 599
f 599 584 600
f 585 629 586
f 586 629 630
f 615 616 583
f 583 616 584
f 587 592 588
f 588 592 591
f 582 626 631
f 631 626 632
f 624 620 633
f 633 620 619
f 621 620 604
f 604 620 623
f 631 632 621
f 621 632 622
f 610 601 623
f 623 601 604
f 589 624 634
f 634 624 633
f 586 630 599
f 599 630 627
f 203 202 628
f 628 202 612
f 629 585 634
f 634 585 589
f 609 593 614
f 614 593 592
f 620 624 623
f 623 624 618
f 631 621 603
f 603 621 604
f 582 631 583
f 583 631 603
f 634 633 636
f 636 633 635
f 634 636 629
f 629 636 637
f 629 637 630
f 630 637 638
f 630 638 627
f 627 638 639
f 633 619 635
f 635 619 640
f 619 622 640
f 640 622 641
f 641 622 642
f 642 622 632
f 644 635 643
f 643 635 640
f 645 646 648
f 648 646 647
f 649 650 646
f 646 650 647
f 647 650 652
f 652 650 651
f 652 653 655
f 655 653 654
f 651 656 652
f 652 656 653
f 655 648 652
f 652 648 647
f 648 657 645
f 645 657 658
f 650 649 651
f 651 649 659
f 649 637 659
f 659 637 636
f 649 660 637
f 637 660 638
f 661 660 646
f 646 660 649
f 662 661 645
f 645 661 646
f 651 659 656
f 656 659 644
f 644 659 635
f 635 659 636
f 663 662 658
f 658 662 645
f 664 661 665
f 665 661 662
f 663 666 662
f 662 666 665
f 667 664 668
f 668 664 665
f 664 667 670
f 670 667 669
f 666 671 665
f 665 671 668
f 661 664 660
f 660 664 670
f 660 670 638
f 638 670 639
f 658 672 663
f 663 672 673
f 658 657 672
f 672 657 674
f 653 656 675
f 675 656 644
f 653 675 654
f 654 675 676
f 675 644 677
f 677 644 643
f 676 675 678
f 678 675 677
f 679 680 676
f 676 680 654
f 674 680 672
f 672 680 679
f 627 639 625
f 625 639 681
f 626 682 632
f 632 682 642
f 681 682 625
f 625 682 626
f 669 683 681
f 681 683 682
f 667 684 669
f 669 684 683
f 682 683 642
f 642 683 685
f 681 639 669
f 669 639 670
f 686 641 685
f 685 641 642
f 641 686 640
f 640 686 643
f 686 687 643
f 643 687 677
f 687 686 688
f 688 686 685
f 689 687 690
f 690 687 688
f 683 684 685
f 685 684 688
f 684 691 688
f 688 691 690
f 687 689 677
f 677 689 678
f 693 678 692
f 692 678 689
f 692 695 694
f 694 695 696
f 692 689 695
f 695 689 690
f 692 694 693
f 693 694 673
f 693 673 679
f 679 673 672
f 679 676 693
f 693 676 678
f 684 667 691
f 691 667 668
f 696 691 671
f 671 691 668
f 696 695 691
f 691 695 690
f 694 696 666
f 666 696 671
f 666 663 694
f 694 663 673
f 648 655 657
f 657 655 674
f 674 655 680
f 680 655 654
f 593 162 594
f 594 162 290
f 598 597 601
f 601 597 602
f 615 608 616
f 616 608 607
f 607 609 616
f 616 609 614
f 697 595 613
f 613 595 598
f 597 608 602
f 602 608 615
f 594 290 628
f 628 290 203
f 628 612 617
f 617 612 611
f 593 609 162
f 162 609 200
f 105 29 698
f 698 29 699
f 268 126 701
f 701 126 700
f 126 125 700
f 700 125 702
f 252 703 250
f 250 703 704
f 32 268 705
f 705 268 701
f 288 105 706
f 706 105 698
f 29 32 699
f 699 32 705
f 707 251 706
f 706 251 288
f 250 704 125
f 125 704 702
f 703 252 707
f 707 252 251
f 706 708 707
f 707 708 709
f 707 709 703
f 703 709 710
f 703 710 704
f 704 710 711
f 704 711 702
f 702 711 712
f 706 698 708
f 708 698 713
f 698 699 713
f 713 699 714
f 699 705 714
f 714 705 715
f 717 708 716
f 716 708 713
f 719 720 718
f 718 720 721
f 722 723 719
f 719 723 720
f 724 725 723
f 723 725 720
f 724 726 725
f 725 726 727
f 728 721 725
f 725 721 720
f 721 728 729
f 729 728 730
f 729 731 721
f 721 731 718
f 724 723 732
f 732 723 722
f 722 710 732
f 732 710 709
f 722 733 710
f 710 733 711
f 719 734 722
f 722 734 733
f 734 719 735
f 735 719 718
f 724 732 726
f 726 732 717
f 717 732 708
f 708 732 709
f 731 736 718
f 718 736 735
f 737 734 738
f 738 734 735
f 736 739 735
f 735 739 738
f 740 737 741
f 741 737 738
f 737 740 743
f 743 740 742
f 739 744 738
f 738 744 741
f 734 737 733
f 733 737 743
f 733 743 711
f 711 743 712
f 736 731 746
f 746 731 745
f 731 729 745
f 745 729 730
f 727 726 747
f 747 726 717
f 748 727 749
f 749 727 747
f 747 717 750
f 750 717 716
f 749 747 751
f 751 747 750
f 749 752 748
f 748 752 753
f 730 753 745
f 745 753 752
f 728 725 748
f 748 725 727
f 730 728 753
f 753 728 748
f 700 702 754
f 754 702 712
f 705 701 715
f 715 701 755
f 754 755 700
f 700 755 701
f 742 756 754
f 754 756 755
f 740 757 742
f 742 757 756
f 755 756 715
f 715 756 758
f 754 712 742
f 742 712 743
f 759 714 758
f 758 714 715
f 714 759 713
f 713 759 716
f 759 760 716
f 716 760 750
f 760 759 761
f 761 759 758
f 762 760 763
f 763 760 761
f 756 757 758
f 758 757 761
f 757 764 761
f 761 764 763
f 760 762 750
f 750 762 751
f 766 751 765
f 765 751 762
f 767 765 769
f 769 765 768
f 765 762 768
f 768 762 763
f 765 767 766
f 766 767 746
f 766 746 752
f 752 746 745
f 752 749 766
f 766 749 751
f 757 740 764
f 764 740 741
f 769 764 744
f 744 764 741
f 769 768 764
f 764 768 763
f 767 769 739
f 739 769 744
f 739 736 767
f 767 736 746
f 219 217 208
f 208 217 209
f 209 217 210
f 210 217 193
f 198 580 199
f 199 580 511
f 76 75 289
f 289 75 272
f 277 207 291
f 291 207 184
f 290 183 203
f 203 183 84
f 490 580 142
f 142 580 198
f 142 198 143
f 143 198 197
f 149 276 72
f 72 276 73
f 104 103 279
f 279 103 770
f 770 596 279
f 279 596 595
f 605 596 771
f 771 596 770
f 771 770 772
f 772 770 103
f 772 103 773
f 773 103 102
f 155 774 101
f 101 774 102
f 773 102 97
f 97 102 774
f 775 773 100
f 100 773 97
f 773 775 772
f 772 775 776
f 772 776 771
f 771 776 777
f 200 606 197
f 197 606 777
f 189 71 778
f 778 71 74
f 97 774 98
f 98 774 155
f 183 161 184
f 184 161 291
f 777 276 197
f 197 276 143
f 777 606 771
f 771 606 605
f 613 612 697
f 697 612 202
f 595 697 279
f 279 697 202
f 73 276 776
f 776 276 777
f 776 775 73
f 73 775 74
f 100 778 775
f 775 778 74
f 778 100 189
f 189 100 99
f 245 242 99
f 99 242 189
f 131 33 256
f 28 1 95
f 95 1 62
f 27 2 28
f 28 2 1
f 265 115 266
f 266 115 114
f 95 62 69
f 69 62 64
f 62 61 64
f 64 61 65
f 61 13 65
f 65 13 130
f 13 12 130
f 130 12 14
f 31 11 32
f 32 11 268
f 15 12 31
f 31 12 11
f 31 30 15
f 15 30 231
f 30 106 231
f 231 106 232
f 287 237 106
f 106 237 232
f 254 90 287
f 287 90 237
f 253 44 254
f 254 44 90
f 253 249 44
f 44 249 7
f 267 127 268
f 268 127 126
f 10 3 241
f 241 3 116
f 3 2 116
f 116 2 114
f 2 27 114
f 114 27 266
f 27 26 266
f 266 26 113
f 26 286 113
f 113 286 110
f 286 243 110
f 110 243 255
f 243 242 255
f 255 242 256
f 242 245 256
f 256 245 131
f 245 244 131
f 131 244 132
f 265 37 115
f 115 37 41
f 41 37 42
f 42 37 40
f 92 91 40
f 40 91 42
f 236 233 92
f 92 233 91
f 191 194 236
f 236 194 233
f 258 285 244
f 244 285 132
f 257 55 258
f 258 55 285
f 257 154 201
f 201 154 185
f 56 201 204
f 204 201 180
f 55 257 56
f 56 257 201
f 204 85 56
f 56 85 52
f 86 122 53
f 53 122 79
f 212 215 86
f 86 215 122
f 211 216 212
f 212 216 215
f 192 280 211
f 211 280 216
f 191 240 192
f 192 240 280
f 249 124 7
f 7 124 8
f 124 127 8
f 8 127 241
f 127 267 241
f 241 267 10
f 10 267 9
f 9 267 11
f 93 39 235
f 235 39 240
f 39 123 240
f 240 123 280
f 123 119 280
f 280 119 216
f 119 118 216
f 216 118 215
f 118 120 215
f 215 120 122
f 120 121 122
f 122 121 79
f 121 109 79
f 79 109 80

