# https://github.com/mikedh/trimesh
v -0.20839778 0.11843541 -15.60287857 0.25098039 0.27450980 0.65882353
v -0.21275158 0.12223250 -15.61240292 0.25098039 0.27450980 0.65882353
v -0.20245075 0.11790112 -15.61165047 0.25098039 0.27450980 0.65882353
v -0.19879493 0.11569636 -15.60206985 0.25098039 0.27450980 0.65882353
v -0.20525068 0.12532327 -15.63305283 0.25098039 0.27450980 0.65882353
v -0.20041348 0.13493893 -15.63885307 0.25098039 0.27450980 0.65882353
v -0.18789205 0.12641324 -15.63233757 0.25098039 0.27450980 0.65882353
v -0.19368438 0.11877529 -15.62883949 0.25098039 0.27450980 0.65882353
v -0.19083661 0.11481033 -15.59955597 0.25098039 0.27450980 0.65882353
v -0.19423153 0.11458571 -15.61016369 0.25098039 0.27450980 0.65882353
v -0.18714714 0.11885662 -15.59693241 0.25098039 0.27450980 0.65882353
v -0.18608241 0.12280261 -15.58455181 0.25098039 0.27450980 0.65882353
v -0.18841729 0.11677705 -15.58903599 0.25098039 0.27450980 0.65882353
v -0.18570998 0.12142350 -15.57636452 0.25098039 0.27450980 0.65882353
v -0.19006442 0.13351381 -15.58281040 0.25098039 0.27450980 0.65882353
v -0.19136155 0.12665990 -15.57021904 0.25098039 0.27450980 0.65882353
v -0.21872988 0.13686210 -15.57523251 0.25098039 0.27450980 0.65882353
v -0.23207434 0.13319458 -15.57600021 0.25098039 0.27450980 0.65882353
v -0.22704533 0.12200661 -15.56490803 0.25098039 0.27450980 0.65882353
v -0.21375601 0.12617257 -15.56570816 0.25098039 0.27450980 0.65882353
v -0.24582392 0.11739713 -15.57345104 0.25098039 0.27450980 0.65882353
v -0.23544374 0.11933848 -15.56785011 0.25098039 0.27450980 0.65882353
v -0.24084106 0.13131461 -15.57823753 0.25098039 0.27450980 0.65882353
v -0.24991287 0.12890707 -15.58272648 0.25098039 0.27450980 0.65882353
v -0.22454463 0.11975674 -15.60529327 0.25098039 0.27450980 0.65882353
v -0.22930624 0.12472992 -15.61386871 0.25098039 0.27450980 0.65882353
v -0.22376725 0.12502408 -15.61268425 0.25098039 0.27450980 0.65882353
v -0.21905160 0.12040903 -15.60464001 0.25098039 0.27450980 0.65882353
v -0.17892195 0.12532119 -15.60170555 0.25098039 0.27450980 0.65882353
v -0.18462633 0.13529089 -15.59922886 0.25098039 0.27450980 0.65882353
v -0.18548003 0.12796028 -15.59529114 0.25098039 0.27450980 0.65882353
v -0.18073510 0.11972402 -15.60218143 0.25098039 0.27450980 0.65882353
v -0.24537143 0.13147217 -15.63739204 0.25098039 0.27450980 0.65882353
v -0.24969402 0.14389677 -15.64193821 0.25098039 0.27450980 0.65882353
v -0.24432346 0.14654963 -15.64170933 0.25098039 0.27450980 0.65882353
v -0.24176726 0.13490388 -15.63708305 0.25098039 0.27450980 0.65882353
v -0.22098792 0.14777857 -15.64230537 0.25098039 0.27450980 0.65882353
v -0.22821561 0.15575303 -15.64206982 0.25098039 0.27450980 0.65882353
v -0.22367506 0.16882765 -15.63994122 0.25098039 0.27450980 0.65882353
v -0.21587956 0.16283624 -15.63698483 0.25098039 0.27450980 0.65882353
v -0.21049504 0.14066319 -15.64141941 0.25098039 0.27450980 0.65882353
v -0.20614582 0.15381068 -15.63819981 0.25098039 0.27450980 0.65882353
v -0.19602789 0.14566365 -15.63596344 0.25098039 0.27450980 0.65882353
v -0.18405394 0.13485774 -15.62997723 0.25098039 0.27450980 0.65882353
v -0.26212502 0.14012022 -15.64035130 0.25098039 0.27450980 0.65882353
v -0.26078898 0.13021019 -15.63722229 0.25098039 0.27450980 0.65882353
v -0.16546197 0.08428298 -15.54966545 0.25098039 0.27450980 0.65882353
v -0.16937792 0.07990843 -15.54921246 0.25098039 0.27450980 0.65882353
v -0.17207643 0.08314006 -15.55219173 0.25098039 0.27450980 0.65882353
v -0.16780283 0.08699188 -15.55189705 0.25098039 0.27450980 0.65882353
v -0.27470613 0.13984928 -15.62410736 0.25098039 0.27450980 0.65882353
v -0.27592880 0.14620396 -15.61603737 0.25098039 0.27450980 0.65882353
v -0.27858797 0.14964591 -15.62197304 0.25098039 0.27450980 0.65882353
v -0.27584803 0.14484033 -15.62977695 0.25098039 0.27450980 0.65882353
v -0.27308097 0.13322294 -15.61665154 0.25098039 0.27450980 0.65882353
v -0.27154911 0.14119902 -15.60826969 0.25098039 0.27450980 0.65882353
v -0.16535245 0.09135559 -15.53875923 0.25098039 0.27450980 0.65882353
v -0.16295682 0.09010344 -15.54322147 0.25098039 0.27450980 0.65882353
v -0.16572611 0.09388652 -15.54452991 0.25098039 0.27450980 0.65882353
v -0.16869049 0.09488568 -15.54028606 0.25098039 0.27450980 0.65882353
v -0.19458827 0.11402328 -15.59305382 0.25098039 0.27450980 0.65882353
v -0.20388427 0.11358300 -15.59556293 0.25098039 0.27450980 0.65882353
v -0.18996908 0.10346846 -15.57760239 0.25098039 0.27450980 0.65882353
v -0.19674008 0.10804488 -15.58444118 0.25098039 0.27450980 0.65882353
v -0.19065413 0.11180893 -15.58480740 0.25098039 0.27450980 0.65882353
v -0.18604681 0.10893247 -15.57832909 0.25098039 0.27450980 0.65882353
v -0.22036768 0.10487501 -15.58797550 0.25098039 0.27450980 0.65882353
v -0.22403759 0.11243863 -15.59651661 0.25098039 0.27450980 0.65882353
v -0.21757603 0.11337093 -15.59495068 0.25098039 0.27450980 0.65882353
v -0.21175176 0.10524845 -15.58618069 0.25098039 0.27450980 0.65882353
v -0.23682259 0.10684106 -15.60027122 0.25098039 0.27450980 0.65882353
v -0.23229638 0.10005105 -15.59128094 0.25098039 0.27450980 0.65882353
v -0.24004488 0.09754702 -15.59444618 0.25098039 0.27450980 0.65882353
v -0.24164163 0.10226019 -15.60095406 0.25098039 0.27450980 0.65882353
v -0.22201386 0.08982909 -15.57481098 0.25098039 0.27450980 0.65882353
v -0.21977428 0.08627523 -15.56690788 0.25098039 0.27450980 0.65882353
v -0.22263856 0.08569406 -15.56722832 0.25098039 0.27450980 0.65882353
v -0.22553942 0.08928213 -15.57542515 0.25098039 0.27450980 0.65882353
v -0.28110778 0.15400417 -15.62703609 0.25098039 0.27450980 0.65882353
v -0.27626050 0.15015285 -15.63484669 0.25098039 0.27450980 0.65882353
v -0.26325065 0.10978884 -15.58397198 0.25098039 0.27450980 0.65882353
v -0.26784909 0.10595652 -15.59354019 0.25098039 0.27450980 0.65882353
v -0.26648945 0.09594536 -15.58592606 0.25098039 0.27450980 0.65882353
v -0.26204741 0.10269761 -15.57787895 0.25098039 0.27450980 0.65882353
v -0.27103275 0.15250047 -15.60895824 0.25098039 0.27450980 0.65882353
v -0.27595973 0.15582825 -15.61415577 0.25098039 0.27450980 0.65882353
v -0.16987775 0.08956559 -15.53491116 0.25098039 0.27450980 0.65882353
v -0.17332643 0.09268542 -15.53697109 0.25098039 0.27450980 0.65882353
v -0.19716206 0.15584655 -15.62631798 0.25098039 0.27450980 0.65882353
v -0.18307820 0.14220722 -15.62292480 0.25098039 0.27450980 0.65882353
v -0.20922635 0.16524842 -15.62801266 0.25098039 0.27450980 0.65882353
v -0.21829212 0.17146036 -15.62843609 0.25098039 0.27450980 0.65882353
v -0.22417766 0.17737937 -15.63113594 0.25098039 0.27450980 0.65882353
v -0.20083061 0.10294607 -15.58144474 0.25098039 0.27450980 0.65882353
v -0.21290693 0.11570878 -15.59800148 0.25098039 0.27450980 0.65882353
v -0.22932912 0.11839222 -15.60632133 0.25098039 0.27450980 0.65882353
v -0.25530997 0.10200028 -15.61234760 0.25098039 0.27450980 0.65882353
v -0.25794530 0.10874001 -15.62045670 0.25098039 0.27450980 0.65882353
v -0.24754721 0.10948592 -15.61737919 0.25098039 0.27450980 0.65882353
v -0.24760835 0.10384141 -15.61045170 0.25098039 0.27450980 0.65882353
v -0.26640019 0.09925449 -15.60074234 0.25098039 0.27450980 0.65882353
v -0.25964612 0.09560816 -15.60336685 0.25098039 0.27450980 0.65882353
v -0.25770625 0.08944498 -15.59646893 0.25098039 0.27450980 0.65882353
v -0.26425558 0.09163642 -15.59345150 0.25098039 0.27450980 0.65882353
v -0.17449461 0.13057631 -15.60507107 0.25098039 0.27450980 0.65882353
v -0.18366432 0.14122680 -15.60399151 0.25098039 0.27450980 0.65882353
v -0.26974589 0.13469425 -15.63215733 0.25098039 0.27450980 0.65882353
v -0.26913261 0.14117824 -15.63671303 0.25098039 0.27450980 0.65882353
v -0.27080467 0.14877474 -15.64042473 0.25098039 0.27450980 0.65882353
v -0.23607254 0.12814915 -15.62636471 0.25098039 0.27450980 0.65882353
v -0.23918396 0.13718253 -15.63706589 0.25098039 0.27450980 0.65882353
v -0.23487061 0.13800220 -15.63714409 0.25098039 0.27450980 0.65882353
v -0.23362003 0.12944549 -15.62517834 0.25098039 0.27450980 0.65882353
v -0.21675834 0.12494341 -15.62395191 0.25098039 0.27450980 0.65882353
v -0.21861838 0.13174459 -15.63576889 0.25098039 0.27450980 0.65882353
v -0.20579657 0.11876278 -15.62231731 0.25098039 0.27450980 0.65882353
v -0.23765582 0.15141512 -15.64251709 0.25098039 0.27450980 0.65882353
v -0.24701391 0.15488730 -15.64744377 0.25098039 0.27450980 0.65882353
v -0.23941998 0.15977412 -15.64685822 0.25098039 0.27450980 0.65882353
v -0.25630358 0.15143350 -15.64650154 0.25098039 0.27450980 0.65882353
v -0.26471281 0.14899161 -15.64423370 0.25098039 0.27450980 0.65882353
v -0.28120869 0.16166030 -15.61761093 0.25098039 0.27450980 0.65882353
v -0.23263158 0.16447088 -15.64457607 0.25098039 0.27450980 0.65882353
v -0.18596932 0.11513989 -15.62454796 0.25098039 0.27450980 0.65882353
v -0.17884032 0.11239529 -15.62064743 0.25098039 0.27450980 0.65882353
v -0.18244205 0.11060472 -15.61380005 0.25098039 0.27450980 0.65882353
v -0.18924130 0.11263107 -15.61686516 0.25098039 0.27450980 0.65882353
v -0.18407628 0.11815546 -15.56800842 0.25098039 0.27450980 0.65882353
v -0.18299446 0.11299328 -15.57418060 0.25098039 0.27450980 0.65882353
v -0.18581271 0.11722724 -15.58246803 0.25098039 0.27450980 0.65882353
v -0.24698590 0.12208761 -15.63056564 0.25098039 0.27450980 0.65882353
v -0.25996253 0.12121660 -15.63099766 0.25098039 0.27450980 0.65882353
v -0.19355687 0.09883735 -15.57373428 0.25098039 0.27450980 0.65882353
v -0.17185259 0.09811458 -15.54239941 0.25098039 0.27450980 0.65882353
v -0.16851357 0.09724140 -15.54695225 0.25098039 0.27450980 0.65882353
v -0.17783988 0.10886861 -15.55833530 0.25098039 0.27450980 0.65882353
v -0.18131356 0.10967239 -15.55244255 0.25098039 0.27450980 0.65882353
v -0.19428323 0.09510945 -15.56235409 0.25098039 0.27450980 0.65882353
v -0.19102576 0.09641097 -15.56831551 0.25098039 0.27450980 0.65882353
v -0.18977746 0.09516340 -15.56509399 0.25098039 0.27450980 0.65882353
v -0.19226900 0.09247149 -15.55965042 0.25098039 0.27450980 0.65882353
v -0.23078609 0.08439061 -15.57211208 0.25098039 0.27450980 0.65882353
v -0.23342696 0.08752134 -15.57888031 0.25098039 0.27450980 0.65882353
v -0.20865455 0.11298445 -15.55811977 0.25098039 0.27450980 0.65882353
v -0.19825816 0.12229854 -15.55877113 0.25098039 0.27450980 0.65882353
v -0.20200840 0.12938213 -15.56674862 0.25098039 0.27450980 0.65882353
v -0.22742562 0.10293451 -15.59015942 0.25098039 0.27450980 0.65882353
v -0.22485134 0.09555234 -15.58257961 0.25098039 0.27450980 0.65882353
v -0.22881398 0.09420151 -15.58330059 0.25098039 0.27450980 0.65882353
v -0.20266111 0.09969590 -15.57802773 0.25098039 0.27450980 0.65882353
v -0.19817032 0.09600003 -15.57085514 0.25098039 0.27450980 0.65882353
v -0.20415109 0.09640156 -15.57318401 0.25098039 0.27450980 0.65882353
v -0.20826730 0.09975500 -15.57928276 0.25098039 0.27450980 0.65882353
v -0.27079019 0.11638478 -15.60110378 0.25098039 0.27450980 0.65882353
v -0.26940286 0.10838786 -15.60974598 0.25098039 0.27450980 0.65882353
v -0.16307878 0.08775780 -15.54731750 0.25098039 0.27450980 0.65882353
v -0.16554800 0.09101858 -15.54906940 0.25098039 0.27450980 0.65882353
v -0.23085003 0.11044195 -15.59847069 0.25098039 0.27450980 0.65882353
v -0.20718929 0.13764362 -15.57695675 0.25098039 0.27450980 0.65882353
v -0.23437877 0.11651086 -15.60774231 0.25098039 0.27450980 0.65882353
v -0.24731451 0.09651008 -15.56711864 0.25098039 0.27450980 0.65882353
v -0.24745896 0.09002125 -15.57091618 0.25098039 0.27450980 0.65882353
v -0.24377760 0.08637910 -15.56665421 0.25098039 0.27450980 0.65882353
v -0.24455439 0.09026311 -15.56182003 0.25098039 0.27450980 0.65882353
v -0.18409956 0.08339816 -15.54875469 0.25098039 0.27450980 0.65882353
v -0.18022279 0.08259407 -15.55305195 0.25098039 0.27450980 0.65882353
v -0.17712672 0.08026087 -15.54949474 0.25098039 0.27450980 0.65882353
v -0.18073435 0.08072565 -15.54486656 0.25098039 0.27450980 0.65882353
v -0.18702279 0.09985808 -15.57117462 0.25098039 0.27450980 0.65882353
v -0.18295746 0.10497936 -15.57216454 0.25098039 0.27450980 0.65882353
v -0.18051653 0.10095400 -15.56744862 0.25098039 0.27450980 0.65882353
v -0.18519092 0.09716479 -15.56662178 0.25098039 0.27450980 0.65882353
v -0.18035029 0.10962686 -15.56779289 0.25098039 0.27450980 0.65882353
v -0.17767568 0.10576977 -15.56404018 0.25098039 0.27450980 0.65882353
v -0.18513998 0.08724078 -15.54323006 0.25098039 0.27450980 0.65882353
v -0.18226697 0.09307111 -15.53886032 0.25098039 0.27450980 0.65882353
v -0.19190611 0.10226534 -15.54840755 0.25098039 0.27450980 0.65882353
v -0.19236730 0.09507318 -15.55230427 0.25098039 0.27450980 0.65882353
v -0.25431263 0.14077297 -15.59115410 0.25098039 0.27450980 0.65882353
v -0.26345164 0.13581122 -15.59563828 0.25098039 0.27450980 0.65882353
v -0.25935534 0.12389039 -15.58732605 0.25098039 0.27450980 0.65882353
v -0.25634325 0.11268063 -15.57878685 0.25098039 0.27450980 0.65882353
v -0.25212932 0.10201612 -15.57168484 0.25098039 0.27450980 0.65882353
v -0.24371579 0.10815471 -15.56502438 0.25098039 0.27450980 0.65882353
v -0.26568770 0.12112091 -15.59193802 0.25098039 0.27450980 0.65882353
v -0.20272547 0.10033563 -15.55835533 0.25098039 0.27450980 0.65882353
v -0.19960515 0.10876691 -15.55533981 0.25098039 0.27450980 0.65882353
v -0.20601214 0.10641292 -15.55634689 0.25098039 0.27450980 0.65882353
v -0.24028097 0.11237280 -15.61016846 0.25098039 0.27450980 0.65882353
v -0.16784908 0.09443912 -15.55176353 0.25098039 0.27450980 0.65882353
v -0.23389056 0.17518452 -15.61113071 0.25098039 0.27450980 0.65882353
v -0.24644932 0.17205414 -15.60689163 0.25098039 0.27450980 0.65882353
v -0.24119723 0.16646619 -15.60255623 0.25098039 0.27450980 0.65882353
v -0.22696161 0.16936134 -15.60782337 0.25098039 0.27450980 0.65882353
v -0.17469278 0.08534825 -15.55623055 0.25098039 0.27450980 0.65882353
v -0.16977657 0.08967978 -15.55584717 0.25098039 0.27450980 0.65882353
v -0.23935275 0.08425859 -15.57899284 0.25098039 0.27450980 0.65882353
v -0.23641941 0.08245846 -15.57266903 0.25098039 0.27450980 0.65882353
v -0.23950653 0.08172059 -15.57033730 0.25098039 0.27450980 0.65882353
v -0.24371976 0.08117185 -15.57684708 0.25098039 0.27450980 0.65882353
v -0.26790050 0.13397993 -15.59942532 0.25098039 0.27450980 0.65882353
v -0.26526392 0.08943845 -15.58161068 0.25098039 0.27450980 0.65882353
v -0.26175654 0.09579664 -15.57446098 0.25098039 0.27450980 0.65882353
v -0.26660436 0.14641346 -15.60293865 0.25098039 0.27450980 0.65882353
v -0.25893110 0.15115799 -15.59865665 0.25098039 0.27450980 0.65882353
v -0.26274827 0.15834418 -15.60419655 0.25098039 0.27450980 0.65882353
v -0.22932495 0.10668727 -15.55842876 0.25098039 0.27450980 0.65882353
v -0.24645710 0.14241484 -15.58739948 0.25098039 0.27450980 0.65882353
v -0.25172269 0.15291902 -15.59622192 0.25098039 0.27450980 0.65882353
v -0.25593391 0.16161641 -15.60269451 0.25098039 0.27450980 0.65882353
v -0.25975871 0.16780272 -15.60690784 0.25098039 0.27450980 0.65882353
v -0.26677510 0.16349652 -15.60822773 0.25098039 0.27450980 0.65882353
v -0.17716509 0.09595290 -15.53923702 0.25098039 0.27450980 0.65882353
v -0.17875867 0.08898568 -15.53569698 0.25098039 0.27450980 0.65882353
v -0.27220240 0.16999349 -15.61168194 0.25098039 0.27450980 0.65882353
v -0.26384568 0.17426604 -15.61057281 0.25098039 0.27450980 0.65882353
v -0.24279951 0.15537654 -15.59458065 0.25098039 0.27450980 0.65882353
v -0.23153099 0.15765402 -15.59407806 0.25098039 0.27450980 0.65882353
v -0.23798330 0.14503217 -15.58626080 0.25098039 0.27450980 0.65882353
v -0.22649282 0.14661346 -15.58479023 0.25098039 0.27450980 0.65882353
v -0.22234310 0.11462663 -15.55669022 0.25098039 0.27450980 0.65882353
v -0.17034006 0.07459918 -15.53119850 0.25098039 0.27450980 0.65882353
v -0.17778561 0.08079420 -15.53655434 0.25098039 0.27450980 0.65882353
v -0.17741525 0.07765780 -15.54158020 0.25098039 0.27450980 0.65882353
v -0.17099360 0.07162559 -15.53430557 0.25098039 0.27450980 0.65882353
v -0.18165104 0.08400340 -15.53964615 0.25098039 0.27450980 0.65882353
v -0.17531255 0.08567299 -15.53400230 0.25098039 0.27450980 0.65882353
v -0.21186072 0.14788570 -15.58796787 0.25098039 0.27450980 0.65882353
v -0.20157464 0.09373805 -15.56580257 0.25098039 0.27450980 0.65882353
v -0.21482348 0.15901801 -15.60092163 0.25098039 0.27450980 0.65882353
v -0.19466457 0.14412348 -15.59037590 0.25098039 0.27450980 0.65882353
v -0.19655916 0.15114713 -15.60173607 0.25098039 0.27450980 0.65882353
v -0.21585964 0.16996516 -15.61556530 0.25098039 0.27450980 0.65882353
v -0.20145658 0.16116187 -15.61408424 0.25098039 0.27450980 0.65882353
v -0.22935559 0.18048216 -15.62191486 0.25098039 0.27450980 0.65882353
v -0.22381026 0.17492518 -15.61769104 0.25098039 0.27450980 0.65882353
v -0.18872179 0.15022880 -15.61379433 0.25098039 0.27450980 0.65882353
v -0.16109581 0.07532031 -15.54400826 0.25098039 0.27450980 0.65882353
v -0.16565910 0.07200111 -15.54333782 0.25098039 0.27450980 0.65882353
v -0.23855932 0.18111116 -15.61491871 0.25098039 0.27450980 0.65882353
v -0.19630197 0.11495908 -15.61932945 0.25098039 0.27450980 0.65882353
v -0.24091136 0.11863631 -15.61927223 0.25098039 0.27450980 0.65882353
v -0.23646306 0.12147485 -15.61693287 0.25098039 0.27450980 0.65882353
v -0.25901350 0.11342520 -15.62483406 0.25098039 0.27450980 0.65882353
v -0.24724017 0.11518872 -15.62312889 0.25098039 0.27450980 0.65882353
v -0.15808940 0.07930802 -15.54209137 0.25098039 0.27450980 0.65882353
v -0.22043920 0.08650283 -15.56015205 0.25098039 0.27450980 0.65882353
v -0.22228353 0.08845194 -15.56192970 0.25098039 0.27450980 0.65882353
v -0.18100770 0.12148301 -15.62812328 0.25098039 0.27450980 0.65882353
v -0.17524420 0.11813548 -15.62458038 0.25098039 0.27450980 0.65882353
v -0.16947244 0.12807575 -15.61769676 0.25098039 0.27450980 0.65882353
v -0.17110041 0.12345994 -15.62310505 0.25098039 0.27450980 0.65882353
v -0.17697527 0.12925363 -15.62629986 0.25098039 0.27450980 0.65882353
v -0.17555641 0.13475898 -15.62064075 0.25098039 0.27450980 0.65882353
v -0.23800024 0.12659431 -15.62720394 0.25098039 0.27450980 0.65882353
v -0.24126908 0.12440172 -15.62799454 0.25098039 0.27450980 0.65882353
v -0.27229965 0.12513849 -15.60945797 0.25098039 0.27450980 0.65882353
v -0.27024391 0.11687845 -15.61758518 0.25098039 0.27450980 0.65882353
v -0.18177903 0.11350095 -15.56248379 0.25098039 0.27450980 0.65882353
v -0.18927750 0.12097050 -15.56177425 0.25098039 0.27450980 0.65882353
v -0.18614517 0.11492245 -15.55695152 0.25098039 0.27450980 0.65882353
v -0.18764439 0.10841347 -15.54944324 0.25098039 0.27450980 0.65882353
v -0.20076664 0.09504253 -15.56000614 0.25098039 0.27450980 0.65882353
v -0.19662145 0.09880395 -15.55760765 0.25098039 0.27450980 0.65882353
v -0.22757018 0.13489012 -15.63640213 0.25098039 0.27450980 0.65882353
v -0.22706358 0.12870502 -15.62417316 0.25098039 0.27450980 0.65882353
v -0.18868321 0.11403058 -15.60885620 0.25098039 0.27450980 0.65882353
v -0.18323416 0.11308485 -15.60661697 0.25098039 0.27450980 0.65882353
v -0.21624771 0.09921116 -15.58168221 0.25098039 0.27450980 0.65882353
v -0.22307555 0.09959465 -15.55233669 0.25098039 0.27450980 0.65882353
v -0.21719734 0.10615133 -15.55069160 0.25098039 0.27450980 0.65882353
v -0.21287172 0.09398960 -15.57419968 0.25098039 0.27450980 0.65882353
v -0.15909109 0.08271575 -15.53427601 0.25098039 0.27450980 0.65882353
v -0.15742755 0.08139913 -15.53890133 0.25098039 0.27450980 0.65882353
v -0.19263713 0.11415595 -15.55395126 0.25098039 0.27450980 0.65882353
v -0.23620234 0.09098490 -15.58648586 0.25098039 0.27450980 0.65882353
v -0.22969313 0.09972190 -15.55803490 0.25098039 0.27450980 0.65882353
v -0.22314301 0.09220523 -15.55483246 0.25098039 0.27450980 0.65882353
v -0.26270086 0.08694047 -15.58956623 0.25098039 0.27450980 0.65882353
v -0.25077766 0.17833841 -15.61164570 0.25098039 0.27450980 0.65882353
v -0.17418735 0.07661490 -15.54619408 0.25098039 0.27450980 0.65882353
v -0.16960014 0.07041941 -15.54064846 0.25098039 0.27450980 0.65882353
v -0.16856475 0.07833326 -15.52966309 0.25098039 0.27450980 0.65882353
v -0.16421112 0.08239773 -15.53052807 0.25098039 0.27450980 0.65882353
v -0.26927122 0.12493619 -15.62499142 0.25098039 0.27450980 0.65882353
v -0.23343670 0.12296150 -15.61513424 0.25098039 0.27450980 0.65882353
v -0.17944515 0.14066218 -15.61268139 0.25098039 0.27450980 0.65882353
v -0.17133678 0.13106512 -15.61098385 0.25098039 0.27450980 0.65882353
v -0.21117789 0.09058798 -15.56854534 0.25098039 0.27450980 0.65882353
v -0.25354564 0.09481379 -15.57154083 0.25098039 0.27450980 0.65882353
v -0.24182749 0.10065493 -15.56004047 0.25098039 0.27450980 0.65882353
v -0.23975345 0.09424968 -15.55518532 0.25098039 0.27450980 0.65882353
v -0.23209582 0.09380729 -15.55362892 0.25098039 0.27450980 0.65882353
v -0.22548902 0.09023216 -15.55575752 0.25098039 0.27450980 0.65882353
v -0.16576099 0.07421917 -15.52795219 0.25098039 0.27450980 0.65882353
v -0.16144259 0.07828528 -15.52875042 0.25098039 0.27450980 0.65882353
v -0.15615904 0.07874492 -15.53221226 0.25098039 0.27450980 0.65882353
v -0.15462050 0.07772218 -15.53646660 0.25098039 0.27450980 0.65882353
v -0.15624894 0.07603599 -15.54034138 0.25098039 0.27450980 0.65882353
v -0.16740803 0.07026541 -15.52920341 0.25098039 0.27450980 0.65882353
v -0.16770773 0.06767345 -15.53212738 0.25098039 0.27450980 0.65882353
v -0.16743200 0.06776576 -15.53856087 0.25098039 0.27450980 0.65882353
v -0.16471435 0.06614567 -15.52821827 0.25098039 0.27450980 0.65882353
v -0.16068250 0.06789333 -15.52517128 0.25098039 0.27450980 0.65882353
v -0.14761755 0.06738967 -15.52972412 0.25098039 0.27450980 0.65882353
v -0.15131617 0.07196821 -15.52910995 0.25098039 0.27450980 0.65882353
v -0.15118513 0.06990486 -15.52736092 0.25098039 0.27450980 0.65882353
v -0.14837390 0.06577285 -15.52691460 0.25098039 0.27450980 0.65882353
v -0.14633378 0.06130050 -15.52520657 0.25098039 0.27450980 0.65882353
v -0.14499240 0.06255710 -15.52833652 0.25098039 0.27450980 0.65882353
v -0.15562275 0.07038494 -15.52596569 0.25098039 0.27450980 0.65882353
v -0.15236002 0.06461783 -15.52479839 0.25098039 0.27450980 0.65882353
v -0.15601605 0.06242725 -15.52422905 0.25098039 0.27450980 0.65882353
v -0.15296721 0.05808559 -15.52255249 0.25098039 0.27450980 0.65882353
v -0.14956100 0.05995497 -15.52281094 0.25098039 0.27450980 0.65882353
v -0.15791371 0.06663921 -15.52478504 0.25098039 0.27450980 0.65882353
v -0.15692918 0.07228776 -15.52617359 0.25098039 0.27450980 0.65882353
v -0.14474408 0.05830181 -15.52640343 0.25098039 0.27450980 0.65882353
v -0.14566542 0.05869654 -15.52399921 0.25098039 0.27450980 0.65882353
v -0.14827035 0.05714221 -15.52239704 0.25098039 0.27450980 0.65882353
v -0.14727907 0.05457512 -15.52390480 0.25098039 0.27450980 0.65882353
v -0.15173738 0.07382900 -15.53499031 0.25098039 0.27450980 0.65882353
v -0.14735000 0.06695888 -15.53235245 0.25098039 0.27450980 0.65882353
v -0.14595300 0.06116220 -15.53111744 0.25098039 0.27450980 0.65882353
v -0.14566576 0.05707498 -15.52887917 0.25098039 0.27450980 0.65882353
v -0.14887255 0.06401631 -15.53491402 0.25098039 0.27450980 0.65882353
v -0.14784583 0.05966344 -15.53291512 0.25098039 0.27450980 0.65882353
v -0.14801902 0.05599050 -15.53107738 0.25098039 0.27450980 0.65882353
v -0.15169288 0.06095943 -15.53624344 0.25098039 0.27450980 0.65882353
v -0.15029956 0.05770921 -15.53378677 0.25098039 0.27450980 0.65882353
v -0.15728569 0.07067497 -15.54084110 0.25098039 0.27450980 0.65882353
v -0.15435812 0.07353036 -15.53934574 0.25098039 0.27450980 0.65882353
v -0.14957033 0.05547749 -15.53251839 0.25098039 0.27450980 0.65882353
v -0.14813134 0.05339061 -15.52568626 0.25098039 0.27450980 0.65882353
v -0.15952404 0.06178193 -15.52540684 0.25098039 0.27450980 0.65882353
v -0.15515774 0.05631911 -15.52433300 0.25098039 0.27450980 0.65882353
v -0.16080159 0.06053104 -15.52707577 0.25098039 0.27450980 0.65882353
v -0.15672192 0.05501118 -15.52573490 0.25098039 0.27450980 0.65882353
v -0.15200558 0.05351044 -15.52290535 0.25098039 0.27450980 0.65882353
v -0.15105164 0.05588247 -15.52221584 0.25098039 0.27450980 0.65882353
v -0.16010281 0.07330054 -15.54248714 0.25098039 0.27450980 0.65882353
v -0.16475914 0.06973744 -15.54153347 0.25098039 0.27450980 0.65882353
v -0.16250536 0.06721663 -15.54017735 0.25098039 0.27450980 0.65882353
v -0.15582430 0.05842562 -15.53584862 0.25098039 0.27450980 0.65882353
v -0.16516568 0.06497603 -15.53731918 0.25098039 0.27450980 0.65882353
v -0.16503631 0.06379567 -15.53122902 0.25098039 0.27450980 0.65882353
v -0.16075628 0.05850646 -15.52930641 0.25098039 0.27450980 0.65882353
v -0.15969133 0.05752771 -15.53250122 0.25098039 0.27450980 0.65882353
v -0.15711978 0.05459149 -15.52831459 0.25098039 0.27450980 0.65882353
v -0.15620938 0.05480973 -15.53077602 0.25098039 0.27450980 0.65882353
v -0.15331814 0.05559324 -15.53329563 0.25098039 0.27450980 0.65882353
v -0.15351130 0.05262923 -15.52791882 0.25098039 0.27450980 0.65882353
v -0.15289462 0.05268285 -15.52492523 0.25098039 0.27450980 0.65882353
v -0.14982319 0.05327086 -15.52872467 0.25098039 0.27450980 0.65882353
v -0.15396273 0.05325156 -15.52980900 0.25098039 0.27450980 0.65882353
v -0.15126690 0.05422743 -15.53085613 0.25098039 0.27450980 0.65882353
v -0.19503659 0.06626967 -15.54013062 0.25098039 0.27450980 0.65882353
v -0.20056704 0.06294932 -15.54090405 0.25098039 0.27450980 0.65882353
v -0.20184937 0.06745757 -15.54343700 0.25098039 0.27450980 0.65882353
v -0.19687039 0.06978627 -15.54267120 0.25098039 0.27450980 0.65882353
v -0.19558105 0.07398392 -15.52828789 0.25098039 0.27450980 0.65882353
v -0.19261934 0.07178304 -15.53336143 0.25098039 0.27450980 0.65882353
v -0.19382206 0.07590806 -15.53522778 0.25098039 0.27450980 0.65882353
v -0.19797920 0.07818461 -15.53007507 0.25098039 0.27450980 0.65882353
v -0.20217454 0.07337758 -15.52587032 0.25098039 0.27450980 0.65882353
v -0.20466565 0.07768670 -15.52817154 0.25098039 0.27450980 0.65882353
v -0.19957095 0.08276201 -15.53263760 0.25098039 0.27450980 0.65882353
v -0.19580019 0.08030687 -15.53843307 0.25098039 0.27450980 0.65882353
v -0.20269975 0.09539444 -15.55250645 0.25098039 0.27450980 0.65882353
v -0.20614965 0.09834836 -15.54654217 0.25098039 0.27450980 0.65882353
v -0.21493334 0.08409757 -15.56057453 0.25098039 0.27450980 0.65882353
v -0.21699524 0.08427196 -15.55698204 0.25098039 0.27450980 0.65882353
v -0.19300056 0.06879970 -15.53759766 0.25098039 0.27450980 0.65882353
v -0.19435933 0.07277669 -15.53962040 0.25098039 0.27450980 0.65882353
v -0.21198875 0.06930338 -15.54355621 0.25098039 0.27450980 0.65882353
v -0.20750315 0.06880394 -15.54693985 0.25098039 0.27450980 0.65882353
v -0.20631394 0.06543286 -15.54271030 0.25098039 0.27450980 0.65882353
v -0.21056345 0.06602430 -15.53902435 0.25098039 0.27450980 0.65882353
v -0.20422609 0.09041771 -15.56018734 0.25098039 0.27450980 0.65882353
v -0.20988463 0.08737527 -15.56150627 0.25098039 0.27450980 0.65882353
v -0.20251012 0.09238969 -15.55684757 0.25098039 0.27450980 0.65882353
v -0.21449773 0.07227459 -15.53798962 0.25098039 0.27450980 0.65882353
v -0.21360071 0.07688218 -15.53267860 0.25098039 0.27450980 0.65882353
v -0.21941486 0.09236988 -15.54452229 0.25098039 0.27450980 0.65882353
v -0.22026563 0.08721668 -15.54902077 0.25098039 0.27450980 0.65882353
v -0.19531685 0.07681132 -15.54312325 0.25098039 0.27450980 0.65882353
v -0.20211546 0.07038842 -15.54775047 0.25098039 0.27450980 0.65882353
v -0.19763345 0.07308515 -15.54684830 0.25098039 0.27450980 0.65882353
v -0.20688900 0.08159906 -15.53106117 0.25098039 0.27450980 0.65882353
v -0.21104778 0.07254215 -15.52945423 0.25098039 0.27450980 0.65882353
v -0.20468786 0.05478181 -15.52493095 0.25098039 0.27450980 0.65882353
v -0.21015932 0.06401196 -15.53115368 0.25098039 0.27450980 0.65882353
v -0.20860568 0.06166694 -15.53567028 0.25098039 0.27450980 0.65882353
v -0.20404121 0.05141895 -15.52882195 0.25098039 0.27450980 0.65882353
v -0.21250771 0.06813768 -15.53398514 0.25098039 0.27450980 0.65882353
v -0.20832089 0.06851635 -15.52726460 0.25098039 0.27450980 0.65882353
v -0.19104134 0.05253106 -15.53358936 0.25098039 0.27450980 0.65882353
v -0.19653951 0.04949275 -15.53401184 0.25098039 0.27450980 0.65882353
v -0.18835600 0.05542374 -15.53114128 0.25098039 0.27450980 0.65882353
v -0.21338230 0.09738620 -15.54335785 0.25098039 0.27450980 0.65882353
v -0.19119234 0.06245321 -15.52379894 0.25098039 0.27450980 0.65882353
v -0.18809132 0.05880313 -15.52840614 0.25098039 0.27450980 0.65882353
v -0.20531584 0.06110947 -15.53961372 0.25098039 0.27450980 0.65882353
v -0.20109713 0.04907650 -15.53204632 0.25098039 0.27450980 0.65882353
v -0.20304498 0.05821377 -15.52218056 0.25098039 0.27450980 0.65882353
v -0.19772945 0.06310747 -15.52145576 0.25098039 0.27450980 0.65882353
v -0.20041084 0.05356510 -15.52000713 0.25098039 0.27450980 0.65882353
v -0.19521354 0.05732711 -15.51922035 0.25098039 0.27450980 0.65882353
v -0.18863638 0.05697979 -15.52165031 0.25098039 0.27450980 0.65882353
v -0.18638243 0.05419336 -15.52639484 0.25098039 0.27450980 0.65882353
v -0.18723580 0.05178689 -15.52956104 0.25098039 0.27450980 0.65882353
v -0.20217715 0.05024362 -15.52239799 0.25098039 0.27450980 0.65882353
v -0.20196150 0.04704409 -15.52616692 0.25098039 0.27450980 0.65882353
v -0.19942129 0.04656251 -15.53067493 0.25098039 0.27450980 0.65882353
v -0.19972047 0.04354925 -15.52095032 0.25098039 0.27450980 0.65882353
v -0.19730556 0.04543637 -15.51759338 0.25098039 0.27450980 0.65882353
v -0.18097091 0.03689779 -15.51779556 0.25098039 0.27450980 0.65882353
v -0.18283728 0.04255870 -15.51878738 0.25098039 0.27450980 0.65882353
v -0.18458623 0.04206733 -15.51678848 0.25098039 0.27450980 0.65882353
v -0.18295482 0.03687598 -15.51568413 0.25098039 0.27450980 0.65882353
v -0.18563072 0.04826456 -15.51808262 0.25098039 0.27450980 0.65882353
v -0.18674986 0.04619324 -15.51684952 0.25098039 0.27450980 0.65882353
v -0.19138557 0.04635274 -15.51617241 0.25098039 0.27450980 0.65882353
v -0.18918458 0.04067621 -15.51563168 0.25098039 0.27450980 0.65882353
v -0.19389960 0.03943996 -15.51651573 0.25098039 0.27450980 0.65882353
v -0.19215679 0.03427337 -15.51465321 0.25098039 0.27450980 0.65882353
v -0.18744454 0.03533879 -15.51350975 0.25098039 0.27450980 0.65882353
v -0.19441143 0.04380799 -15.51636696 0.25098039 0.27450980 0.65882353
v -0.18289110 0.03335227 -15.51473427 0.25098039 0.27450980 0.65882353
v -0.18189132 0.03146280 -15.51631451 0.25098039 0.27450980 0.65882353
v -0.19212191 0.04939801 -15.51634979 0.25098039 0.27450980 0.65882353
v -0.18466683 0.05049264 -15.52396107 0.25098039 0.27450980 0.65882353
v -0.18195944 0.04178405 -15.52170944 0.25098039 0.27450980 0.65882353
v -0.18084697 0.03524306 -15.52068996 0.25098039 0.27450980 0.65882353
v -0.18291983 0.02966061 -15.51864624 0.25098039 0.27450980 0.65882353
v -0.18318000 0.03940360 -15.52507019 0.25098039 0.27450980 0.65882353
v -0.18243060 0.03355485 -15.52303123 0.25098039 0.27450980 0.65882353
v -0.18450508 0.02932627 -15.52094078 0.25098039 0.27450980 0.65882353
v -0.18623576 0.03686567 -15.52781582 0.25098039 0.27450980 0.65882353
v -0.18565436 0.03153913 -15.52507687 0.25098039 0.27450980 0.65882353
v -0.18934414 0.04710479 -15.53139019 0.25098039 0.27450980 0.65882353
v -0.18586366 0.04908706 -15.52861309 0.25098039 0.27450980 0.65882353
v -0.18579607 0.02972770 -15.52300739 0.25098039 0.27450980 0.65882353
v -0.18578728 0.02936926 -15.51401615 0.25098039 0.27450980 0.65882353
v -0.18626615 0.02757253 -15.51693916 0.25098039 0.27450980 0.65882353
v -0.18608822 0.03115675 -15.51338482 0.25098039 0.27450980 0.65882353
v -0.19570252 0.03868474 -15.51745892 0.25098039 0.27450980 0.65882353
v -0.19327615 0.03287096 -15.51611710 0.25098039 0.27450980 0.65882353
v -0.19708185 0.03722183 -15.51950073 0.25098039 0.27450980 0.65882353
v -0.19399095 0.03111877 -15.51774502 0.25098039 0.27450980 0.65882353
v -0.19061229 0.02923413 -15.51469326 0.25098039 0.27450980 0.65882353
v -0.18974946 0.03043117 -15.51368809 0.25098039 0.27450980 0.65882353
v -0.19046764 0.04976732 -15.53191376 0.25098039 0.27450980 0.65882353
v -0.19564477 0.04751839 -15.53244400 0.25098039 0.27450980 0.65882353
v -0.19466594 0.04515921 -15.53207397 0.25098039 0.27450980 0.65882353
v -0.19128749 0.03522269 -15.52804184 0.25098039 0.27450980 0.65882353
v -0.19879520 0.04407254 -15.52982044 0.25098039 0.27450980 0.65882353
v -0.20019941 0.04267392 -15.52457142 0.25098039 0.27450980 0.65882353
v -0.19744064 0.03632426 -15.52224159 0.25098039 0.27450980 0.65882353
v -0.19546132 0.03500783 -15.52556992 0.25098039 0.27450980 0.65882353
v -0.19475421 0.03027393 -15.51970863 0.25098039 0.27450980 0.65882353
v -0.19392648 0.03098059 -15.52291393 0.25098039 0.27450980 0.65882353
v -0.18969445 0.03073844 -15.52537060 0.25098039 0.27450980 0.65882353
v -0.19148032 0.02723399 -15.51831341 0.25098039 0.27450980 0.65882353
v -0.19098791 0.02802400 -15.51603413 0.25098039 0.27450980 0.65882353
v -0.18700901 0.02751338 -15.51913643 0.25098039 0.27450980 0.65882353
v -0.19169423 0.02822332 -15.52122211 0.25098039 0.27450980 0.65882353
v -0.18808095 0.02838846 -15.52215767 0.25098039 0.27450980 0.65882353
v -0.21847805 0.06285924 -15.54739571 0.25098039 0.27450980 0.65882353
v -0.22249788 0.06020474 -15.55101299 0.25098039 0.27450980 0.65882353
v -0.22319955 0.06357750 -15.55346966 0.25098039 0.27450980 0.65882353
v -0.21911751 0.06613132 -15.54988766 0.25098039 0.27450980 0.65882353
v -0.22479990 0.06782927 -15.53690243 0.25098039 0.27450980 0.65882353
v -0.22033536 0.06667282 -15.53905487 0.25098039 0.27450980 0.65882353
v -0.22078067 0.07043253 -15.54110718 0.25098039 0.27450980 0.65882353
v -0.22557676 0.07274488 -15.53912926 0.25098039 0.27450980 0.65882353
v -0.23000723 0.06522124 -15.53667927 0.25098039 0.27450980 0.65882353
v -0.23180340 0.07156313 -15.53960896 0.25098039 0.27450980 0.65882353
v -0.22685573 0.07762183 -15.54126930 0.25098039 0.27450980 0.65882353
v -0.22171304 0.07441078 -15.54341030 0.25098039 0.27450980 0.65882353
v -0.22492644 0.08662953 -15.55320930 0.25098039 0.27450980 0.65882353
v -0.23032707 0.08892918 -15.54934311 0.25098039 0.27450980 0.65882353
v -0.21848403 0.06497253 -15.54312801 0.25098039 0.27450980 0.65882353
v -0.21877103 0.06809438 -15.54524708 0.25098039 0.27450980 0.65882353
v -0.23336998 0.06470715 -15.55592918 0.25098039 0.27450980 0.65882353
v -0.22880438 0.06500180 -15.55740166 0.25098039 0.27450980 0.65882353
v -0.22838514 0.06160599 -15.55418301 0.25098039 0.27450980 0.65882353
v -0.23245662 0.06136403 -15.55279350 0.25098039 0.27450980 0.65882353
v -0.22393095 0.08329177 -15.56404591 0.25098039 0.27450980 0.65882353
v -0.22949916 0.08220643 -15.56705475 0.25098039 0.27450980 0.65882353
v -0.22270346 0.08401348 -15.55857658 0.25098039 0.27450980 0.65882353
v -0.23753735 0.06674797 -15.55123043 0.25098039 0.27450980 0.65882353
v -0.23847875 0.07200476 -15.54576111 0.25098039 0.27450980 0.65882353
v -0.24220556 0.08335921 -15.55496502 0.25098039 0.27450980 0.65882353
v -0.24107501 0.08063581 -15.56066608 0.25098039 0.27450980 0.65882353
v -0.21927258 0.07155193 -15.54752541 0.25098039 0.27450980 0.65882353
v -0.22362757 0.06692051 -15.55660343 0.25098039 0.27450980 0.65882353
v -0.21944684 0.06901436 -15.55268669 0.25098039 0.27450980 0.65882353
v -0.23309767 0.07644574 -15.54231644 0.25098039 0.27450980 0.65882353
v -0.23644990 0.06692012 -15.54314995 0.25098039 0.27450980 0.65882353
v -0.23080596 0.04616190 -15.53690720 0.25098039 0.27450980 0.65882353
v -0.23542440 0.05951139 -15.54590034 0.25098039 0.27450980 0.65882353
v -0.23155098 0.05790405 -15.55029011 0.25098039 0.27450980 0.65882353
v -0.22902074 0.04439397 -15.54067135 0.25098039 0.27450980 0.65882353
v -0.23639703 0.06252255 -15.54848385 0.25098039 0.27450980 0.65882353
v -0.23505241 0.06262192 -15.54055309 0.25098039 0.27450980 0.65882353
v -0.21558939 0.04857565 -15.54062557 0.25098039 0.27450980 0.65882353
v -0.21983697 0.04625734 -15.54355526 0.25098039 0.27450980 0.65882353
v -0.21542135 0.05179225 -15.53741264 0.25098039 0.27450980 0.65882353
v -0.23763572 0.08800242 -15.54962635 0.25098039 0.27450980 0.65882353
v -0.23674297 0.08003016 -15.56628418 0.25098039 0.27450980 0.65882353
v -0.21961206 0.05363944 -15.53122425 0.25098039 0.27450980 0.65882353
v -0.21646401 0.05307505 -15.53433895 0.25098039 0.27450980 0.65882353
v -0.22751871 0.05841657 -15.55182552 0.25098039 0.27450980 0.65882353
v -0.22520952 0.04432547 -15.54345036 0.25098039 0.27450980 0.65882353
v -0.23015603 0.04955018 -15.53328228 0.25098039 0.27450980 0.65882353
v -0.22573406 0.05338976 -15.53062344 0.25098039 0.27450980 0.65882353
v -0.22840826 0.04424737 -15.53166389 0.25098039 0.27450980 0.65882353
v -0.22389171 0.04796465 -15.52898312 0.25098039 0.27450980 0.65882353
v -0.21787368 0.04856060 -15.52922535 0.25098039 0.27450980 0.65882353
v -0.21487354 0.04836318 -15.53268909 0.25098039 0.27450980 0.65882353
v -0.21395637 0.04738814 -15.53601933 0.25098039 0.27450980 0.65882353
v -0.22890610 0.04109909 -15.53551579 0.25098039 0.27450980 0.65882353
v -0.22714010 0.03995524 -15.53903675 0.25098039 0.27450980 0.65882353
v -0.22406179 0.04260676 -15.54239178 0.25098039 0.27450980 0.65882353
v -0.22710535 0.03678424 -15.53524113 0.25098039 0.27450980 0.65882353
v -0.22553098 0.03756218 -15.52989864 0.25098039 0.27450980 0.65882353
v -0.21033597 0.03015643 -15.52735329 0.25098039 0.27450980 0.65882353
v -0.21241295 0.03562772 -15.52814198 0.25098039 0.27450980 0.65882353
v -0.21351179 0.03515843 -15.52768612 0.25098039 0.27450980 0.65882353
v -0.21176594 0.02967925 -15.52637863 0.25098039 0.27450980 0.65882353
v -0.21603589 0.04131041 -15.52751255 0.25098039 0.27450980 0.65882353
v -0.21644223 0.03935488 -15.52716541 0.25098039 0.27450980 0.65882353
v -0.22038837 0.03886610 -15.52726269 0.25098039 0.27450980 0.65882353
v -0.21822433 0.03276321 -15.52665329 0.25098039 0.27450980 0.65882353
v -0.22270076 0.03115867 -15.53058338 0.25098039 0.27450980 0.65882353
v -0.22017990 0.02668768 -15.52953911 0.25098039 0.27450980 0.65882353
v -0.21617490 0.02771981 -15.52560902 0.25098039 0.27450980 0.65882353
v -0.22379407 0.03645127 -15.52927113 0.25098039 0.27450980 0.65882353
v -0.21165074 0.02641463 -15.52602863 0.25098039 0.27450980 0.65882353
v -0.20967953 0.02615859 -15.52594662 0.25098039 0.27450980 0.65882353
v -0.22140440 0.04106800 -15.52728558 0.25098039 0.27450980 0.65882353
v -0.21282111 0.04339412 -15.53076458 0.25098039 0.27450980 0.65882353
v -0.21020256 0.03618003 -15.53013229 0.25098039 0.27450980 0.65882353
v -0.20786962 0.03062920 -15.52952862 0.25098039 0.27450980 0.65882353
v -0.20834483 0.02613449 -15.52947617 0.25098039 0.27450980 0.65882353
v -0.20979759 0.03568662 -15.53397369 0.25098039 0.27450980 0.65882353
v -0.20824032 0.03049897 -15.53276062 0.25098039 0.27450980 0.65882353
v -0.20865223 0.02644180 -15.53258991 0.25098039 0.27450980 0.65882353
v -0.21096194 0.03470495 -15.53702354 0.25098039 0.27450980 0.65882353
v -0.20984608 0.03000781 -15.53566742 0.25098039 0.27450980 0.65882353
v -0.21424948 0.04387000 -15.53898430 0.25098039 0.27450980 0.65882353
v -0.21258330 0.04410827 -15.53495598 0.25098039 0.27450980 0.65882353
v -0.20982194 0.02696037 -15.53458118 0.25098039 0.27450980 0.65882353
v -0.21350592 0.02315259 -15.52654839 0.25098039 0.27450980 0.65882353
v -0.21245569 0.02223635 -15.53063965 0.25098039 0.27450980 0.65882353
v -0.21434480 0.02467923 -15.52630806 0.25098039 0.27450980 0.65882353
v -0.22397241 0.03116158 -15.53204918 0.25098039 0.27450980 0.65882353
v -0.22104296 0.02515417 -15.53122807 0.25098039 0.27450980 0.65882353
v -0.22410530 0.03083509 -15.53498363 0.25098039 0.27450980 0.65882353
v -0.22107249 0.02488980 -15.53404617 0.25098039 0.27450980 0.65882353
v -0.21808088 0.02264462 -15.52925587 0.25098039 0.27450980 0.65882353
v -0.21789862 0.02363908 -15.52850533 0.25098039 0.27450980 0.65882353
v -0.21547261 0.04628593 -15.53975010 0.25098039 0.27450980 0.65882353
v -0.21945873 0.04438736 -15.54247761 0.25098039 0.27450980 0.65882353
v -0.21802720 0.04227670 -15.54180813 0.25098039 0.27450980 0.65882353
v -0.21430740 0.03257902 -15.53976250 0.25098039 0.27450980 0.65882353
v -0.22254974 0.04039471 -15.54206657 0.25098039 0.27450980 0.65882353
v -0.22525051 0.03606398 -15.53855610 0.25098039 0.27450980 0.65882353
v -0.22215958 0.03078675 -15.53775597 0.25098039 0.27450980 0.65882353
v -0.21875399 0.03093448 -15.53965569 0.25098039 0.27450980 0.65882353
v -0.21961789 0.02547880 -15.53646755 0.25098039 0.27450980 0.65882353
v -0.21761987 0.02713954 -15.53785801 0.25098039 0.27450980 0.65882353
v -0.21275064 0.02827126 -15.53820801 0.25098039 0.27450980 0.65882353
v -0.21650821 0.02333090 -15.53459167 0.25098039 0.27450980 0.65882353
v -0.21771371 0.02218750 -15.53202438 0.25098039 0.27450980 0.65882353
v -0.21193898 0.02340743 -15.53363132 0.25098039 0.27450980 0.65882353
v -0.21543340 0.02477983 -15.53643799 0.25098039 0.27450980 0.65882353
v -0.21199943 0.02500886 -15.53568745 0.25098039 0.27450980 0.65882353
v -0.23370385 0.08088795 -15.56793976 0.25098039 0.27450980 0.65882353
v -0.24575293 0.05885921 -15.56654358 0.25098039 0.27450980 0.65882353
v -0.24803364 0.05733530 -15.56965065 0.25098039 0.27450980 0.65882353
v -0.24933553 0.06053282 -15.57137108 0.25098039 0.27450980 0.65882353
v -0.24644390 0.06256692 -15.56911278 0.25098039 0.27450980 0.65882353
v -0.25229156 0.06331236 -15.55827141 0.25098039 0.27450980 0.65882353
v -0.24808618 0.06195632 -15.55993938 0.25098039 0.27450980 0.65882353
v -0.24829909 0.06659393 -15.56150341 0.25098039 0.27450980 0.65882353
v -0.25245136 0.06794924 -15.55965710 0.25098039 0.27450980 0.65882353
v -0.25719100 0.06246470 -15.55932045 0.25098039 0.27450980 0.65882353
v -0.25762558 0.06680444 -15.56096458 0.25098039 0.27450980 0.65882353
v -0.25285998 0.07140940 -15.56083202 0.25098039 0.27450980 0.65882353
v -0.24856094 0.07036791 -15.56318760 0.25098039 0.27450980 0.65882353
v -0.24897128 0.08490845 -15.56984138 0.25098039 0.27450980 0.65882353
v -0.25397202 0.08742489 -15.56842995 0.25098039 0.27450980 0.65882353
v -0.26093894 0.08284179 -15.58566952 0.25098039 0.27450980 0.65882353
v -0.25548983 0.08230278 -15.58808327 0.25098039 0.27450980 0.65882353
v -0.25527525 0.07593489 -15.58273315 0.25098039 0.27450980 0.65882353
v -0.26006502 0.07687180 -15.58180141 0.25098039 0.27450980 0.65882353
v -0.24598414 0.06043008 -15.56302547 0.25098039 0.27450980 0.65882353
v -0.24576744 0.06453150 -15.56532478 0.25098039 0.27450980 0.65882353
v -0.25921714 0.06336731 -15.57457638 0.25098039 0.27450980 0.65882353
v -0.25444940 0.06272166 -15.57535553 0.25098039 0.27450980 0.65882353
v -0.25296831 0.05954966 -15.57332706 0.25098039 0.27450980 0.65882353
v -0.25770786 0.05918145 -15.57298183 0.25098039 0.27450980 0.65882353
v -0.25021285 0.08184379 -15.58576393 0.25098039 0.27450980 0.65882353
v -0.24661274 0.08233403 -15.58259010 0.25098039 0.27450980 0.65882353
v -0.24654548 0.07908194 -15.57976532 0.25098039 0.27450980 0.65882353
v -0.25044388 0.07607310 -15.58125114 0.25098039 0.27450980 0.65882353
v -0.24490875 0.08074093 -15.57470226 0.25098039 0.27450980 0.65882353
v -0.26202154 0.06475066 -15.57159710 0.25098039 0.27450980 0.65882353
v -0.26256877 0.06767494 -15.56636047 0.25098039 0.27450980 0.65882353
v -0.26509860 0.08272883 -15.57536602 0.25098039 0.27450980 0.65882353
v -0.26357892 0.08014686 -15.57945824 0.25098039 0.27450980 0.65882353
v -0.24613830 0.06777442 -15.56645775 0.25098039 0.27450980 0.65882353
v -0.25011432 0.06342774 -15.57376671 0.25098039 0.27450980 0.65882353
v -0.24700511 0.06503322 -15.57090664 0.25098039 0.27450980 0.65882353
v -0.25862241 0.07035439 -15.56179714 0.25098039 0.27450980 0.65882353
v -0.26144284 0.06372722 -15.56511974 0.25098039 0.27450980 0.65882353
v -0.25843871 0.04798679 -15.56546593 0.25098039 0.27450980 0.65882353
v -0.26014799 0.05716870 -15.56908703 0.25098039 0.27450980 0.65882353
v -0.25623941 0.05562508 -15.57178783 0.25098039 0.27450980 0.65882353
v -0.25603408 0.04709304 -15.56713676 0.25098039 0.27450980 0.65882353
v -0.26105237 0.06081881 -15.57005787 0.25098039 0.27450980 0.65882353
v -0.26073229 0.05950468 -15.56375980 0.25098039 0.27450980 0.65882353
v -0.24493967 0.04977129 -15.56258678 0.25098039 0.27450980 0.65882353
v -0.24826503 0.04836716 -15.56650734 0.25098039 0.27450980 0.65882353
v -0.24512349 0.05123907 -15.55965328 0.25098039 0.27450980 0.65882353
v -0.26073715 0.08668911 -15.56959438 0.25098039 0.27450980 0.65882353
v -0.25108451 0.05308792 -15.55540180 0.25098039 0.27450980 0.65882353
v -0.24693561 0.05200172 -15.55672264 0.25098039 0.27450980 0.65882353
v -0.25159663 0.05606713 -15.57145596 0.25098039 0.27450980 0.65882353
v -0.25236529 0.04737564 -15.56773663 0.25098039 0.27450980 0.65882353
v -0.25928050 0.04989699 -15.56165981 0.25098039 0.27450980 0.65882353
v -0.25654039 0.05275898 -15.55685234 0.25098039 0.27450980 0.65882353
v -0.25844368 0.04525185 -15.55994320 0.25098039 0.27450980 0.65882353
v -0.25546548 0.04869905 -15.55540562 0.25098039 0.27450980 0.65882353
v -0.24955271 0.04892112 -15.55401707 0.25098039 0.27450980 0.65882353
v -0.24621099 0.04899982 -15.55595303 0.25098039 0.27450980 0.65882353
v -0.24443349 0.04832384 -15.55861855 0.25098039 0.27450980 0.65882353
v -0.25756252 0.04352695 -15.56389141 0.25098039 0.27450980 0.65882353
v -0.25507116 0.04321050 -15.56583500 0.25098039 0.27450980 0.65882353
v -0.25150496 0.04433991 -15.56684971 0.25098039 0.27450980 0.65882353
v -0.25636977 0.03934094 -15.56221771 0.25098039 0.27450980 0.65882353
v -0.25654358 0.03969780 -15.55726528 0.25098039 0.27450980 0.65882353
v -0.24475980 0.03456046 -15.55189419 0.25098039 0.27450980 0.65882353
v -0.24566844 0.03854857 -15.55263424 0.25098039 0.27450980 0.65882353
v -0.24687998 0.03832815 -15.55231857 0.25098039 0.27450980 0.65882353
v -0.24558221 0.03449509 -15.55105782 0.25098039 0.27450980 0.65882353
v -0.24841747 0.04328140 -15.55291939 0.25098039 0.27450980 0.65882353
v -0.24932870 0.04185242 -15.55272484 0.25098039 0.27450980 0.65882353
v -0.25282043 0.04200580 -15.55387020 0.25098039 0.27450980 0.65882353
v -0.25110054 0.03710703 -15.55241489 0.25098039 0.27450980 0.65882353
v -0.25428706 0.03438249 -15.55597115 0.25098039 0.27450980 0.65882353
v -0.25257334 0.03079970 -15.55443001 0.25098039 0.27450980 0.65882353
v -0.25013721 0.03351592 -15.55118752 0.25098039 0.27450980 0.65882353
v -0.25537631 0.03896210 -15.55558681 0.25098039 0.27450980 0.65882353
v -0.24591215 0.03188607 -15.55014896 0.25098039 0.27450980 0.65882353
v -0.24478498 0.03099723 -15.55018520 0.25098039 0.27450980 0.65882353
v -0.25353688 0.04361704 -15.55396461 0.25098039 0.27450980 0.65882353
v -0.24501665 0.04493456 -15.55503750 0.25098039 0.27450980 0.65882353
v -0.24337271 0.03819823 -15.55367851 0.25098039 0.27450980 0.65882353
v -0.24285328 0.03323980 -15.55244160 0.25098039 0.27450980 0.65882353
v -0.24400173 0.02963497 -15.55189896 0.25098039 0.27450980 0.65882353
v -0.24242979 0.03867477 -15.55616379 0.25098039 0.27450980 0.65882353
v -0.24177170 0.03279807 -15.55454922 0.25098039 0.27450980 0.65882353
v -0.24308778 0.02935530 -15.55415630 0.25098039 0.27450980 0.65882353
v -0.24247877 0.03828190 -15.55957127 0.25098039 0.27450980 0.65882353
v -0.24228537 0.03279474 -15.55724525 0.25098039 0.27450980 0.65882353
v -0.24396640 0.04480123 -15.56192112 0.25098039 0.27450980 0.65882353
v -0.24366987 0.04510461 -15.55820465 0.25098039 0.27450980 0.65882353
v -0.24333160 0.03005968 -15.55586720 0.25098039 0.27450980 0.65882353
v -0.24804769 0.02882212 -15.55067539 0.25098039 0.27450980 0.65882353
v -0.24648124 0.02759862 -15.55296516 0.25098039 0.27450980 0.65882353
v -0.24908513 0.03000726 -15.55041790 0.25098039 0.27450980 0.65882353
v -0.25475919 0.03405021 -15.55737782 0.25098039 0.27450980 0.65882353
v -0.25262141 0.02963632 -15.55566216 0.25098039 0.27450980 0.65882353
v -0.25426286 0.03361739 -15.56001282 0.25098039 0.27450980 0.65882353
v -0.25152063 0.02898946 -15.55752373 0.25098039 0.27450980 0.65882353
v -0.25048476 0.02778451 -15.55334187 0.25098039 0.27450980 0.65882353
v -0.25095603 0.02945258 -15.55248928 0.25098039 0.27450980 0.65882353
v -0.24446960 0.04681262 -15.56231308 0.25098039 0.27450980 0.65882353
v -0.24751347 0.04586839 -15.56551933 0.25098039 0.27450980 0.65882353
v -0.24696165 0.04345886 -15.56498528 0.25098039 0.27450980 0.65882353
v -0.24490249 0.03704218 -15.56259823 0.25098039 0.27450980 0.65882353
v -0.25092155 0.04170072 -15.56616974 0.25098039 0.27450980 0.65882353
v -0.25436056 0.04015045 -15.56476498 0.25098039 0.27450980 0.65882353
v -0.25217757 0.03395739 -15.56206608 0.25098039 0.27450980 0.65882353
v -0.24894267 0.03491526 -15.56332207 0.25098039 0.27450980 0.65882353
v -0.24965772 0.02899122 -15.55890083 0.25098039 0.27450980 0.65882353
v -0.24704370 0.03025921 -15.56019878 0.25098039 0.27450980 0.65882353
v -0.24412772 0.03177123 -15.55975437 0.25098039 0.27450980 0.65882353
v -0.24738708 0.02751228 -15.55615425 0.25098039 0.27450980 0.65882353
v -0.24878958 0.02706425 -15.55485439 0.25098039 0.27450980 0.65882353
v -0.24549332 0.02787600 -15.55489349 0.25098039 0.27450980 0.65882353
v -0.24607942 0.02841343 -15.55745411 0.25098039 0.27450980 0.65882353
v -0.24469391 0.02908015 -15.55689621 0.25098039 0.27450980 0.65882353
v -0.26317197 0.08322631 -15.58213997 0.25098039 0.27450980 0.65882353
v -0.16530323 0.11889818 -15.60286617 0.25098039 0.27450980 0.65882353
v -0.16914882 0.11528035 -15.60044765 0.25098039 0.27450980 0.65882353
v -0.17146610 0.10387044 -15.61227036 0.25098039 0.27450980 0.65882353
v -0.17272037 0.10540863 -15.60529041 0.25098039 0.27450980 0.65882353
v -0.16754971 0.10567310 -15.61774540 0.25098039 0.27450980 0.65882353
v -0.16161710 0.11490413 -15.61880875 0.25098039 0.27450980 0.65882353
v -0.16478273 0.11043938 -15.62000275 0.25098039 0.27450980 0.65882353
v -0.17178285 0.10966728 -15.60111237 0.25098039 0.27450980 0.65882353
v -0.16211666 0.12117113 -15.60742760 0.25098039 0.27450980 0.65882353
v -0.16032089 0.11996149 -15.61434746 0.25098039 0.27450980 0.65882353
v -0.15547608 0.11617219 -15.60420036 0.25098039 0.27450980 0.65882353
v -0.15391779 0.11440332 -15.61161327 0.25098039 0.27450980 0.65882353
v -0.15497799 0.10921371 -15.61648655 0.25098039 0.27450980 0.65882353
v -0.15977366 0.10467291 -15.61777687 0.25098039 0.27450980 0.65882353
v -0.16336977 0.10138394 -15.61648846 0.25098039 0.27450980 0.65882353
v -0.16079874 0.11403757 -15.59988022 0.25098039 0.27450980 0.65882353
v -0.16503628 0.11053079 -15.59796906 0.25098039 0.27450980 0.65882353
v -0.16898786 0.10551472 -15.60004997 0.25098039 0.27450980 0.65882353
v -0.15688783 0.10757207 -15.59613800 0.25098039 0.27450980 0.65882353
v -0.14856026 0.10134299 -15.59756565 0.25098039 0.27450980 0.65882353
v -0.14296518 0.08519725 -15.60698318 0.25098039 0.27450980 0.65882353
v -0.14689097 0.08991128 -15.60987663 0.25098039 0.27450980 0.65882353
v -0.14513750 0.09131089 -15.60783768 0.25098039 0.27450980 0.65882353
v -0.14126720 0.08710020 -15.60578918 0.25098039 0.27450980 0.65882353
v -0.14792231 0.09533133 -15.61057091 0.25098039 0.27450980 0.65882353
v -0.14681262 0.09512237 -15.60832310 0.25098039 0.27450980 0.65882353
v -0.14687480 0.09874083 -15.60415268 0.25098039 0.27450980 0.65882353
v -0.14343233 0.09470076 -15.60236359 0.25098039 0.27450980 0.65882353
v -0.14736907 0.09917665 -15.59891891 0.25098039 0.27450980 0.65882353
v -0.14594206 0.09612411 -15.59662533 0.25098039 0.27450980 0.65882353
v -0.14017399 0.09074423 -15.60034657 0.25098039 0.27450980 0.65882353
v -0.13845715 0.08589379 -15.60322952 0.25098039 0.27450980 0.65882353
v -0.13774380 0.08709338 -15.59868908 0.25098039 0.27450980 0.65882353
v -0.13994865 0.08294409 -15.60313225 0.25098039 0.27450980 0.65882353
v -0.14553761 0.10065280 -15.60471535 0.25098039 0.27450980 0.65882353
v -0.15383437 0.09671489 -15.61478996 0.25098039 0.27450980 0.65882353
v -0.15049705 0.08907861 -15.61125946 0.25098039 0.27450980 0.65882353
v -0.14648385 0.08353382 -15.60697746 0.25098039 0.27450980 0.65882353
v -0.14272603 0.08131199 -15.60230064 0.25098039 0.27450980 0.65882353
v -0.15481225 0.08786143 -15.61003971 0.25098039 0.27450980 0.65882353
v -0.15077887 0.08345550 -15.60531139 0.25098039 0.27450980 0.65882353
v -0.14754294 0.08191082 -15.60051537 0.25098039 0.27450980 0.65882353
v -0.15829846 0.08793435 -15.60638046 0.25098039 0.27450980 0.65882353
v -0.15346867 0.08443057 -15.60235214 0.25098039 0.27450980 0.65882353
v -0.16566022 0.09775551 -15.61079311 0.25098039 0.27450980 0.65882353
v -0.16052587 0.09687309 -15.61500645 0.25098039 0.27450980 0.65882353
v -0.15005773 0.08324114 -15.59974957 0.25098039 0.27450980 0.65882353
v -0.13788676 0.08451886 -15.59730911 0.25098039 0.27450980 0.65882353
v -0.14110979 0.08279230 -15.59630394 0.25098039 0.27450980 0.65882353
v -0.14818141 0.09715173 -15.59401321 0.25098039 0.27450980 0.65882353
v -0.14232454 0.09276080 -15.59454727 0.25098039 0.27450980 0.65882353
v -0.14469734 0.09228306 -15.59236622 0.25098039 0.27450980 0.65882353
v -0.15206847 0.09769616 -15.59252167 0.25098039 0.27450980 0.65882353
v -0.14734907 0.09147895 -15.59108829 0.25098039 0.27450980 0.65882353
v -0.14069167 0.08815716 -15.59294128 0.25098039 0.27450980 0.65882353
v -0.13952488 0.08974183 -15.59518623 0.25098039 0.27450980 0.65882353
v -0.16803196 0.10054787 -15.61206150 0.25098039 0.27450980 0.65882353
v -0.17026924 0.10254845 -15.60579872 0.25098039 0.27450980 0.65882353
v -0.16773979 0.10009329 -15.60443783 0.25098039 0.27450980 0.65882353
v -0.16060251 0.09066032 -15.60054207 0.25098039 0.27450980 0.65882353
v -0.16632418 0.10225597 -15.59837341 0.25098039 0.27450980 0.65882353
v -0.16156764 0.10549032 -15.59550476 0.25098039 0.27450980 0.65882353
v -0.15577906 0.09623735 -15.59240341 0.25098039 0.27450980 0.65882353
v -0.15931234 0.09379645 -15.59515285 0.25098039 0.27450980 0.65882353
v -0.15070744 0.08981504 -15.59187603 0.25098039 0.27450980 0.65882353
v -0.15286849 0.08854210 -15.59387589 0.25098039 0.27450980 0.65882353
v -0.15416375 0.08584335 -15.59804058 0.25098039 0.27450980 0.65882353
v -0.14715479 0.08595488 -15.59296322 0.25098039 0.27450980 0.65882353
v -0.14369999 0.08693917 -15.59196377 0.25098039 0.27450980 0.65882353
v -0.14596732 0.08297303 -15.59609985 0.25098039 0.27450980 0.65882353
v -0.14977448 0.08613686 -15.59430218 0.25098039 0.27450980 0.65882353
v -0.14953776 0.08417424 -15.59677410 0.25098039 0.27450980 0.65882353
v -0.25615293 0.08602545 -15.59255314 0.25098039 0.27450980 0.65882353
v -0.24953350 0.08622714 -15.59118176 0.25098039 0.27450980 0.65882353
v -0.25193924 0.08992835 -15.59648800 0.25098039 0.27450980 0.65882353
v -0.25361854 0.09566613 -15.60419559 0.25098039 0.27450980 0.65882353
v -0.26107401 0.10123950 -15.61007881 0.25098039 0.27450980 0.65882353
v -0.24726908 0.09824654 -15.60279274 0.25098039 0.27450980 0.65882353
v -0.24589899 0.09209166 -15.59492016 0.25098039 0.27450980 0.65882353
v -0.24297780 0.08696163 -15.58673954 0.25098039 0.27450980 0.65882353
v -0.24291973 0.10680772 -15.60715961 0.25098039 0.27450980 0.65882353
f 2 3 1
f 1 3 4
f 5 6 8
f 8 6 7
f 9 4 10
f 10 4 3
f 12 13 11
f 11 13 9
f 14 12 16
f 16 12 15
f 18 19 17
f 17 19 20
f 22 23 21
f 21 23 24
f 26 27 25
f 25 27 28
f 30 31 29
f 29 31 32
f 33 34 36
f 36 34 35
f 37 38 40
f 40 38 39
f 41 42 6
f 6 42 43
f 6 43 7
f 7 43 44
f 45 34 46
f 46 34 33
f 48 49 47
f 47 49 50
f 52 53 51
f 51 53 54
f 56 52 55
f 55 52 51
f 58 59 57
f 57 59 60
f 61 62 4
f 4 62 1
f 64 65 63
f 63 65 66
f 68 69 67
f 67 69 70
f 72 73 71
f 71 73 74
f 76 77 75
f 75 77 78
f 53 79 54
f 54 79 80
f 82 83 81
f 81 83 84
f 85 86 52
f 52 86 53
f 57 60 87
f 87 60 88
f 89 90 43
f 43 90 44
f 43 42 89
f 89 42 91
f 40 39 92
f 92 39 93
f 94 70 64
f 64 70 69
f 13 61 9
f 9 61 4
f 25 28 69
f 69 28 95
f 96 25 68
f 68 25 69
f 98 99 97
f 97 99 100
f 101 102 104
f 104 102 103
f 106 30 105
f 105 30 29
f 51 54 107
f 107 54 108
f 54 80 108
f 108 80 109
f 111 112 110
f 110 112 113
f 115 5 114
f 114 5 116
f 115 41 5
f 5 41 6
f 36 35 111
f 111 35 117
f 35 118 117
f 117 118 119
f 34 120 35
f 35 120 118
f 34 45 120
f 120 45 121
f 125 126 124
f 124 126 127
f 128 129 14
f 14 129 130
f 33 131 46
f 46 131 132
f 133 94 63
f 63 94 64
f 134 135 137
f 137 135 136
f 139 140 138
f 138 140 141
f 77 142 78
f 78 142 143
f 144 145 20
f 20 145 146
f 148 149 147
f 147 149 72
f 151 152 150
f 150 152 153
f 82 101 83
f 83 101 104
f 101 82 155
f 155 82 154
f 156 157 58
f 58 157 59
f 158 68 147
f 147 68 67
f 159 146 15
f 15 146 16
f 68 158 96
f 96 158 160
f 129 66 130
f 130 66 65
f 162 163 161
f 161 163 164
f 166 167 165
f 165 167 168
f 170 171 169
f 169 171 172
f 174 171 173
f 173 171 170
f 176 177 175
f 175 177 178
f 180 181 179
f 179 181 24
f 182 183 21
f 21 183 184
f 81 185 82
f 82 185 154
f 186 187 188
f 188 187 144
f 158 71 160
f 160 71 189
f 190 135 157
f 157 135 59
f 169 172 139
f 139 172 140
f 147 72 158
f 158 72 71
f 192 193 191
f 191 193 194
f 167 166 49
f 49 166 195
f 196 190 50
f 50 190 157
f 197 198 200
f 200 198 199
f 21 24 182
f 182 24 181
f 146 159 20
f 20 159 17
f 182 181 81
f 81 181 185
f 201 185 180
f 180 185 181
f 202 203 83
f 83 203 84
f 205 206 204
f 204 206 85
f 207 22 184
f 184 22 21
f 179 24 208
f 208 24 23
f 208 209 179
f 179 209 205
f 209 210 205
f 205 210 206
f 212 206 211
f 211 206 210
f 179 205 180
f 180 205 204
f 213 176 88
f 88 176 214
f 86 85 212
f 212 85 206
f 193 217 218
f 217 219 218
f 218 219 220
f 219 18 220
f 220 18 17
f 19 221 20
f 20 221 144
f 222 223 225
f 225 223 224
f 175 226 176
f 176 226 214
f 227 87 214
f 214 87 88
f 220 17 228
f 228 17 159
f 134 213 60
f 60 213 88
f 138 229 151
f 151 229 152
f 193 192 210
f 210 192 211
f 230 194 218
f 218 194 193
f 231 232 228
f 228 232 230
f 233 234 91
f 91 234 89
f 235 236 93
f 93 236 92
f 230 232 234
f 234 232 237
f 47 238 48
f 48 238 239
f 240 191 235
f 235 191 236
f 5 8 116
f 116 8 241
f 242 243 189
f 189 243 160
f 244 245 98
f 98 245 99
f 156 246 47
f 47 246 238
f 76 247 77
f 77 247 248
f 250 125 249
f 249 125 124
f 252 253 251
f 251 253 254
f 111 110 36
f 36 110 255
f 256 33 255
f 255 33 36
f 257 258 154
f 154 258 155
f 63 169 133
f 133 169 139
f 66 170 63
f 63 170 169
f 173 170 129
f 129 170 66
f 129 128 173
f 173 128 259
f 128 260 259
f 259 260 261
f 213 134 262
f 262 134 137
f 263 264 186
f 186 264 187
f 112 265 113
f 113 265 266
f 11 267 268
f 234 233 230
f 230 233 194
f 153 269 70
f 70 269 67
f 175 178 165
f 165 178 141
f 150 153 94
f 94 153 70
f 271 221 270
f 270 221 207
f 269 153 272
f 272 153 152
f 121 45 109
f 109 45 108
f 47 50 156
f 156 50 157
f 57 273 58
f 58 273 274
f 145 275 260
f 260 275 261
f 276 149 143
f 143 149 78
f 148 269 75
f 75 269 272
f 207 277 270
f 270 277 278
f 195 196 49
f 49 196 50
f 59 135 60
f 60 135 134
f 83 104 202
f 202 104 279
f 149 148 78
f 78 148 75
f 247 278 248
f 248 278 277
f 183 182 84
f 84 182 81
f 48 239 281
f 281 239 282
f 227 223 283
f 283 223 222
f 223 226 224
f 224 226 168
f 281 282 224
f 224 282 225
f 165 168 175
f 175 168 226
f 264 263 138
f 138 263 229
f 14 16 128
f 128 16 260
f 220 228 218
f 218 228 230
f 87 227 284
f 284 227 283
f 260 16 145
f 145 16 146
f 244 98 258
f 258 98 155
f 58 274 156
f 156 274 246
f 107 285 51
f 51 285 55
f 243 286 160
f 160 286 96
f 234 237 89
f 89 237 90
f 46 132 107
f 107 132 285
f 253 252 249
f 249 252 250
f 286 26 96
f 96 26 25
f 106 105 287
f 287 105 288
f 272 152 289
f 289 152 229
f 138 151 139
f 139 151 133
f 183 290 161
f 161 290 162
f 291 292 277
f 277 292 293
f 151 150 133
f 133 150 94
f 262 275 177
f 177 275 187
f 144 187 145
f 145 187 275
f 273 57 284
f 284 57 87
f 174 136 190
f 190 136 135
f 111 117 112
f 112 117 38
f 117 119 38
f 38 119 123
f 112 38 265
f 265 38 37
f 287 288 254
f 254 288 251
f 228 159 231
f 231 159 15
f 223 227 226
f 226 227 214
f 147 67 148
f 148 67 269
f 224 168 281
f 281 168 167
f 199 163 200
f 200 163 162
f 45 46 108
f 108 46 107
f 281 167 48
f 48 167 49
f 161 164 291
f 291 164 292
f 38 123 39
f 293 294 277
f 277 294 248
f 284 283 296
f 296 283 295
f 284 296 273
f 273 296 297
f 274 273 298
f 298 273 297
f 246 274 299
f 299 274 298
f 283 222 295
f 295 222 300
f 222 225 300
f 300 225 301
f 301 225 302
f 302 225 282
f 303 304 300
f 300 304 295
f 306 307 305
f 305 307 308
f 309 310 308
f 308 310 305
f 308 307 312
f 312 307 311
f 313 314 312
f 312 314 315
f 311 316 312
f 312 316 313
f 317 304 311
f 311 304 316
f 315 309 312
f 312 309 308
f 318 319 321
f 321 319 320
f 319 318 309
f 309 318 310
f 311 307 317
f 317 307 306
f 306 297 317
f 317 297 296
f 306 322 297
f 297 322 298
f 305 323 306
f 306 323 322
f 323 305 324
f 324 305 310
f 304 317 295
f 295 317 296
f 318 325 310
f 310 325 324
f 323 324 326
f 326 324 327
f 324 325 327
f 327 325 328
f 326 327 329
f 329 327 330
f 329 331 326
f 326 331 332
f 333 330 328
f 328 330 327
f 323 326 322
f 322 326 332
f 322 332 298
f 298 332 299
f 325 318 334
f 334 318 321
f 313 316 335
f 335 316 304
f 335 336 313
f 313 336 314
f 304 303 335
f 335 303 337
f 336 335 338
f 338 335 337
f 336 339 314
f 314 339 340
f 246 299 238
f 238 299 341
f 239 342 282
f 282 342 302
f 342 239 341
f 341 239 238
f 341 331 342
f 342 331 343
f 331 329 343
f 343 329 344
f 342 343 302
f 302 343 345
f 341 299 331
f 331 299 332
f 346 301 345
f 345 301 302
f 346 303 301
f 301 303 300
f 347 337 346
f 346 337 303
f 347 346 348
f 348 346 345
f 349 347 350
f 350 347 348
f 343 344 345
f 345 344 348
f 344 351 348
f 348 351 350
f 337 347 338
f 338 347 349
f 353 338 352
f 352 338 349
f 352 355 354
f 354 355 356
f 352 349 355
f 355 349 350
f 352 354 353
f 353 354 334
f 353 334 339
f 339 334 321
f 339 336 353
f 353 336 338
f 329 330 344
f 344 330 351
f 356 351 333
f 333 351 330
f 356 355 351
f 351 355 350
f 354 356 328
f 328 356 333
f 328 325 354
f 354 325 334
f 309 315 319
f 319 315 320
f 320 340 321
f 321 340 339
f 320 315 340
f 340 315 314
f 137 136 261
f 261 136 259
f 140 166 141
f 141 166 165
f 172 171 195
f 195 171 196
f 171 174 196
f 196 174 190
f 178 177 264
f 264 177 187
f 172 195 140
f 140 195 166
f 137 261 262
f 262 261 275
f 178 264 141
f 141 264 138
f 262 177 213
f 213 177 176
f 136 174 259
f 259 174 173
f 358 359 357
f 357 359 360
f 362 363 361
f 361 363 364
f 361 364 365
f 365 364 366
f 367 368 370
f 370 368 369
f 76 371 247
f 247 371 372
f 373 374 362
f 362 374 363
f 376 377 375
f 375 377 378
f 289 229 380
f 380 229 379
f 381 379 263
f 263 379 229
f 383 384 382
f 382 384 385
f 386 368 374
f 374 368 363
f 76 289 371
f 371 289 380
f 377 376 359
f 359 376 387
f 388 386 360
f 360 386 374
f 389 383 366
f 366 383 390
f 392 393 391
f 391 393 394
f 383 382 390
f 390 382 395
f 396 365 390
f 390 365 366
f 389 366 367
f 367 366 364
f 357 397 358
f 358 397 398
f 373 399 357
f 357 399 397
f 389 367 400
f 400 367 370
f 382 385 375
f 375 385 372
f 357 360 373
f 373 360 374
f 361 401 362
f 362 401 402
f 387 388 359
f 359 388 360
f 363 368 364
f 364 368 367
f 358 398 403
f 403 398 404
f 396 392 405
f 405 392 391
f 392 395 393
f 393 395 378
f 393 403 394
f 394 403 404
f 375 378 382
f 382 378 395
f 365 396 406
f 406 396 405
f 362 402 373
f 373 402 399
f 271 270 400
f 400 270 384
f 401 361 406
f 406 361 365
f 381 369 386
f 386 369 368
f 392 396 395
f 395 396 390
f 393 378 403
f 403 378 377
f 403 377 358
f 358 377 359
f 406 405 408
f 408 405 407
f 406 408 401
f 401 408 409
f 401 409 402
f 402 409 410
f 402 410 399
f 399 410 411
f 405 391 407
f 407 391 412
f 391 394 412
f 412 394 413
f 394 404 413
f 413 404 414
f 415 416 412
f 412 416 407
f 418 419 417
f 417 419 420
f 421 422 418
f 418 422 419
f 419 422 424
f 424 422 423
f 425 426 424
f 424 426 427
f 423 428 424
f 424 428 425
f 427 420 424
f 424 420 419
f 420 429 417
f 417 429 430
f 423 422 431
f 431 422 421
f 421 409 431
f 431 409 408
f 421 432 409
f 409 432 410
f 418 433 421
f 421 433 432
f 434 433 417
f 417 433 418
f 431 416 423
f 423 416 428
f 416 431 407
f 407 431 408
f 435 434 430
f 430 434 417
f 433 434 436
f 436 434 437
f 434 435 437
f 437 435 438
f 436 437 439
f 439 437 440
f 439 441 436
f 436 441 442
f 438 443 437
f 437 443 440
f 436 442 433
f 433 442 432
f 432 442 410
f 410 442 411
f 435 430 445
f 445 430 444
f 430 429 444
f 444 429 446
f 425 428 447
f 447 428 416
f 426 425 448
f 448 425 447
f 416 415 447
f 447 415 449
f 447 449 448
f 448 449 450
f 451 452 448
f 448 452 426
f 446 452 444
f 444 452 451
f 399 411 397
f 397 411 453
f 398 454 404
f 404 454 414
f 454 398 453
f 453 398 397
f 453 441 454
f 454 441 455
f 441 439 455
f 455 439 456
f 454 455 414
f 414 455 457
f 441 453 442
f 442 453 411
f 458 413 457
f 457 413 414
f 458 415 413
f 413 415 412
f 458 459 415
f 415 459 449
f 459 458 460
f 460 458 457
f 461 459 462
f 462 459 460
f 455 456 457
f 457 456 460
f 456 463 460
f 460 463 462
f 459 461 449
f 449 461 450
f 465 450 464
f 464 450 461
f 464 467 466
f 466 467 468
f 464 461 467
f 467 461 462
f 464 466 465
f 465 466 445
f 465 445 451
f 451 445 444
f 451 448 465
f 465 448 450
f 439 440 456
f 456 440 463
f 468 463 443
f 443 463 440
f 468 467 463
f 463 467 462
f 466 468 438
f 438 468 443
f 438 435 466
f 466 435 445
f 420 427 429
f 429 427 446
f 446 427 452
f 452 427 426
f 370 369 188
f 188 369 186
f 371 376 372
f 372 376 375
f 380 379 387
f 387 379 388
f 379 381 388
f 388 381 386
f 385 384 278
f 278 384 270
f 380 387 371
f 371 387 376
f 400 370 271
f 271 370 188
f 385 278 372
f 372 278 247
f 400 384 389
f 389 384 383
f 369 381 186
f 186 381 263
f 221 271 144
f 144 271 188
f 221 19 207
f 207 19 22
f 19 18 22
f 22 18 23
f 18 219 23
f 23 219 208
f 469 470 472
f 472 470 471
f 474 475 473
f 473 475 476
f 473 476 477
f 477 476 478
f 480 481 479
f 479 481 482
f 483 484 474
f 474 484 475
f 486 487 485
f 485 487 488
f 489 490 77
f 77 490 142
f 491 489 248
f 248 489 77
f 493 494 492
f 492 494 495
f 496 480 484
f 484 480 475
f 486 497 487
f 487 497 471
f 498 496 472
f 472 496 484
f 499 493 478
f 478 493 500
f 501 502 504
f 504 502 503
f 493 492 500
f 500 492 505
f 506 477 500
f 500 477 478
f 499 478 479
f 479 478 476
f 469 507 470
f 470 507 508
f 483 509 469
f 469 509 507
f 479 482 499
f 499 482 510
f 492 495 485
f 485 495 511
f 483 469 484
f 484 469 472
f 473 512 474
f 474 512 513
f 497 498 471
f 471 498 472
f 475 480 476
f 476 480 479
f 470 508 514
f 514 508 515
f 506 502 516
f 516 502 501
f 503 502 488
f 488 502 505
f 514 515 503
f 503 515 504
f 485 488 492
f 492 488 505
f 477 506 517
f 517 506 516
f 474 513 483
f 483 513 509
f 510 292 494
f 494 292 164
f 512 473 517
f 517 473 477
f 491 481 496
f 496 481 480
f 502 506 505
f 505 506 500
f 503 488 514
f 514 488 487
f 514 487 470
f 470 487 471
f 517 516 519
f 519 516 518
f 517 519 512
f 512 519 520
f 512 520 513
f 513 520 521
f 513 521 509
f 509 521 522
f 516 501 518
f 518 501 523
f 501 504 523
f 523 504 524
f 524 504 525
f 525 504 515
f 526 527 523
f 523 527 518
f 529 530 528
f 528 530 531
f 532 533 529
f 529 533 530
f 530 533 535
f 535 533 534
f 536 537 535
f 535 537 538
f 534 539 535
f 535 539 536
f 538 531 535
f 535 531 530
f 540 541 531
f 531 541 528
f 533 532 534
f 534 532 542
f 532 520 542
f 542 520 519
f 532 543 520
f 520 543 521
f 529 544 532
f 532 544 543
f 544 529 545
f 545 529 528
f 534 542 539
f 539 542 527
f 527 542 518
f 518 542 519
f 541 546 528
f 528 546 545
f 547 544 548
f 548 544 545
f 546 549 545
f 545 549 548
f 550 547 551
f 551 547 548
f 547 550 553
f 553 550 552
f 549 554 548
f 548 554 551
f 544 547 543
f 543 547 553
f 543 553 521
f 521 553 522
f 546 541 556
f 556 541 555
f 541 540 555
f 555 540 557
f 536 539 558
f 558 539 527
f 537 536 559
f 559 536 558
f 527 526 558
f 558 526 560
f 559 558 561
f 561 558 560
f 559 562 537
f 537 562 563
f 557 563 555
f 555 563 562
f 509 522 507
f 507 522 564
f 508 565 515
f 515 565 525
f 565 508 564
f 564 508 507
f 564 552 565
f 565 552 566
f 552 550 566
f 566 550 567
f 565 566 525
f 525 566 568
f 564 522 552
f 552 522 553
f 569 524 568
f 568 524 525
f 569 526 524
f 524 526 523
f 570 560 569
f 569 560 526
f 570 569 571
f 571 569 568
f 572 570 573
f 573 570 571
f 566 567 568
f 568 567 571
f 567 574 571
f 571 574 573
f 570 572 560
f 560 572 561
f 576 561 575
f 575 561 572
f 575 578 577
f 577 578 579
f 575 572 578
f 578 572 573
f 575 577 576
f 576 577 556
f 576 556 562
f 562 556 555
f 562 559 576
f 576 559 561
f 550 551 567
f 567 551 574
f 579 574 554
f 554 574 551
f 579 578 574
f 574 578 573
f 579 554 577
f 577 554 549
f 549 546 577
f 577 546 556
f 531 538 540
f 540 538 557
f 557 538 563
f 563 538 537
f 481 294 482
f 482 294 293
f 580 486 511
f 511 486 485
f 490 489 497
f 497 489 498
f 489 491 498
f 498 491 496
f 163 495 164
f 164 495 494
f 580 490 486
f 486 490 497
f 482 293 510
f 510 293 292
f 495 163 511
f 511 163 199
f 494 493 510
f 510 493 499
f 481 491 294
f 294 491 248
f 582 583 581
f 581 583 584
f 586 587 585
f 585 587 588
f 585 588 589
f 589 588 590
f 592 593 591
f 591 593 594
f 595 596 598
f 598 596 597
f 599 600 586
f 586 600 587
f 601 602 604
f 604 602 603
f 605 606 608
f 608 606 607
f 609 607 200
f 200 607 606
f 610 611 613
f 613 611 612
f 600 614 587
f 587 614 592
f 596 605 597
f 597 605 608
f 602 615 603
f 603 615 583
f 616 614 584
f 584 614 600
f 611 618 617
f 617 618 590
f 620 621 619
f 619 621 622
f 610 623 611
f 611 623 618
f 624 589 618
f 618 589 590
f 617 590 591
f 591 590 588
f 581 625 582
f 582 625 626
f 599 627 581
f 581 627 625
f 591 594 617
f 617 594 628
f 601 610 598
f 598 610 613
f 581 584 599
f 599 584 600
f 585 629 586
f 586 629 630
f 615 616 583
f 583 616 584
f 587 592 588
f 588 592 591
f 582 626 631
f 631 626 632
f 624 620 633
f 633 620 619
f 621 620 604
f 604 620 623
f 631 632 621
f 621 632 622
f 610 601 623
f 623 601 604
f 589 624 634
f 634 624 633
f 586 630 599
f 599 630 627
f 203 202 628
f 628 202 612
f 629 585 634
f 634 585 589
f 609 593 614
f 614 593 592
f 620 624 623
f 623 624 618
f 631 621 603
f 603 621 604
f 582 631 583
f 583 631 603
f 634 633 636
f 636 633 635
f 634 636 629
f 629 636 637
f 629 637 630
f 630 637 638
f 630 638 627
f 627 638 639
f 633 619 635
f 635 619 640
f 619 622 640
f 640 622 641
f 641 622 642
f 642 622 632
f 644 635 643
f 643 635 640
f 645 646 648
f 648 646 647
f 649 650 646
f 646 650 647
f 647 650 652
f 652 650 651
f 652 653 655
f 655 653 654
f 651 656 652
f 652 656 653
f 655 648 652
f 652 648 647
f 648 657 645
f 645 657 658
f 650 649 651
f 651 649 659
f 649 637 659
f 659 637 636
f 649 660 637
f 637 660 638
f 661 660 646
f 646 660 649
f 662 661 645
f 645 661 646
f 651 659 656
f 656 659 644
f 644 659 635
f 635 659 636
f 663 662 658
f 658 662 645
f 664 661 665
f 665 661 662
f 663 666 662
f 662 666 665
f 667 664 668
f 668 664 665
f 664 667 670
f 670 667 669
f 666 671 665
f 665 671 668
f 661 664 660
f 660 664 670
f 660 670 638
f 638 670 639
f 658 672 663
f 663 672 673
f 658 657 672
f 672 657 674
f 653 656 675
f 675 656 644
f 653 675 654
f 654 675 676
f 675 644 677
f 677 644 643
f 676 675 678
f 678 675 677
f 679 680 676
f 676 680 654
f 674 680 672
f 672 680 679
f 627 639 625
f 625 639 681
f 626 682 632
f 632 682 642
f 681 682 625
f 625 682 626
f 669 683 681
f 681 683 682
f 667 684 669
f 669 684 683
f 682 683 642
f 642 683 685
f 681 639 669
f 669 639 670
f 686 641 685
f 685 641 642
f 641 686 640
f 640 686 643
f 686 687 643
f 643 687 677
f 687 686 688
f 688 686 685
f 689 687 690
f 690 687 688
f 683 684 685
f 685 684 688
f 684 691 688
f 688 691 690
f 687 689 677
f 677 689 678
f 693 678 692
f 692 678 689
f 692 695 694
f 694 695 696
f 692 689 695
f 695 689 690
f 692 694 693
f 693 694 673
f 693 673 679
f 679 673 672
f 679 676 693
f 693 676 678
f 684 667 691
f 691 667 668
f 696 691 671
f 671 691 668
f 696 695 691
f 691 695 690
f 694 696 666
f 666 696 671
f 666 663 694
f 694 663 673
f 648 655 657
f 657 655 674
f 674 655 680
f 680 655 654
f 593 162 594
f 594 162 290
f 598 597 601
f 601 597 602
f 615 608 616
f 616 608 607
f 607 609 616
f 616 609 614
f 697 595 613
f 613 595 598
f 597 608 602
f 602 608 615
f 594 290 628
f 628 290 203
f 628 612 617
f 617 612 611
f 593 609 162
f 162 609 200
f 105 29 698
f 698 29 699
f 268 126 701
f 701 126 700
f 126 125 700
f 700 125 702
f 252 703 250
f 250 703 704
f 32 268 705
f 705 268 701
f 288 105 706
f 706 105 698
f 29 32 699
f 699 32 705
f 707 251 706
f 706 251 288
f 250 704 125
f 125 704 702
f 703 252 707
f 707 252 251
f 706 708 707
f 707 708 709
f 707 709 703
f 703 709 710
f 703 710 704
f 704 710 711
f 704 711 702
f 702 711 712
f 706 698 708
f 708 698 713
f 698 699 713
f 713 699 714
f 699 705 714
f 714 705 715
f 717 708 716
f 716 708 713
f 719 720 718
f 718 720 721
f 722 723 719
f 719 723 720
f 724 725 723
f 723 725 720
f 724 726 725
f 725 726 727
f 728 721 725
f 725 721 720
f 721 728 729
f 729 728 730
f 729 731 721
f 721 731 718
f 724 723 732
f 732 723 722
f 722 710 732
f 732 710 709
f 722 733 710
f 710 733 711
f 719 734 722
f 722 734 733
f 734 719 735
f 735 719 718
f 724 732 726
f 726 732 717
f 717 732 708
f 708 732 709
f 731 736 718
f 718 736 735
f 737 734 738
f 738 734 735
f 736 739 735
f 735 739 738
f 740 737 741
f 741 737 738
f 737 740 743
f 743 740 742
f 739 744 738
f 738 744 741
f 734 737 733
f 733 737 743
f 733 743 711
f 711 743 712
f 736 731 746
f 746 731 745
f 731 729 745
f 745 729 730
f 727 726 747
f 747 726 717
f 748 727 749
f 749 727 747
f 747 717 750
f 750 717 716
f 749 747 751
f 751 747 750
f 749 752 748
f 748 752 753
f 730 753 745
f 745 753 752
f 728 725 748
f 748 725 727
f 730 728 753
f 753 728 748
f 700 702 754
f 754 702 712
f 705 701 715
f 715 701 755
f 754 755 700
f 700 755 701
f 742 756 754
f 754 756 755
f 740 757 742
f 742 757 756
f 755 756 715
f 715 756 758
f 754 712 742
f 742 712 743
f 759 714 758
f 758 714 715
f 714 759 713
f 713 759 716
f 759 760 716
f 716 760 750
f 760 759 761
f 761 759 758
f 762 760 763
f 763 760 761
f 756 757 758
f 758 757 761
f 757 764 761
f 761 764 763
f 760 762 750
f 750 762 751
f 766 751 765
f 765 751 762
f 767 765 769
f 769 765 768
f 765 762 768
f 768 762 763
f 765 767 766
f 766 767 746
f 766 746 752
f 752 746 745
f 752 749 766
f 766 749 751
f 757 740 764
f 764 740 741
f 769 764 744
f 744 764 741
f 769 768 764
f 764 768 763
f 767 769 739
f 739 769 744
f 739 736 767
f 767 736 746
f 219 217 208
f 208 217 209
f 209 217 210
f 210 217 193
f 198 580 199
f 199 580 511
f 76 75 289
f 289 75 272
f 277 207 291
f 291 207 184
f 290 183 203
f 203 183 84
f 490 580 142
f 142 580 198
f 142 198 143
f 143 198 197
f 149 276 72
f 72 276 73
f 104 103 279
f 279 103 770
f 770 596 279
f 279 596 595
f 605 596 771
f 771 596 770
f 771 770 772
f 772 770 103
f 772 103 773
f 773 103 102
f 155 774 101
f 101 774 102
f 773 102 97
f 97 102 774
f 775 773 100
f 100 773 97
f 773 775 772
f 772 775 776
f 772 776 771
f 771 776 777
f 200 606 197
f 197 606 777
f 189 71 778
f 778 71 74
f 97 774 98
f 98 774 155
f 183 161 184
f 184 161 291
f 777 276 197
f 197 276 143
f 777 606 771
f 771 606 605
f 613 612 697
f 697 612 202
f 595 697 279
f 279 697 202
f 73 276 776
f 776 276 777
f 776 775 73
f 73 775 74
f 100 778 775
f 775 778 74
f 778 100 189
f 189 100 99
f 245 242 99
f 99 242 189
f 131 33 256
f 28 1 95
f 95 1 62
f 27 2 28
f 28 2 1
f 265 115 266
f 266 115 114
f 95 62 69
f 69 62 64
f 62 61 64
f 64 61 65
f 61 13 65
f 65 13 130
f 13 12 130
f 130 12 14
f 31 11 32
f 32 11 268
f 15 12 31
f 31 12 11
f 31 30 15
f 15 30 231
f 30 106 231
f 231 106 232
f 287 237 106
f 106 237 232
f 254 90 287
f 287 90 237
f 253 44 254
f 254 44 90
f 253 249 44
f 44 249 7
f 267 127 268
f 268 127 126
f 10 3 241
f 241 3 116
f 3 2 116
f 116 2 114
f 2 27 114
f 114 27 266
f 27 26 266
f 266 26 113
f 26 286 113
f 113 286 110
f 286 243 110
f 110 243 255
f 243 242 255
f 255 242 256
f 242 245 256
f 256 245 131
f 245 244 131
f 131 244 132
f 265 37 115
f 115 37 41
f 41 37 42
f 42 37 40
f 92 91 40
f 40 91 42
f 236 233 92
f 92 233 91
f 191 194 236
f 236 194 233
f 258 285 244
f 244 285 132
f 257 55 258
f 258 55 285
f 257 154 201
f 201 154 185
f 56 201 204
f 204 201 180
f 55 257 56
f 56 257 201
f 204 85 56
f 56 85 52
f 86 122 53
f 53 122 79
f 212 215 86
f 86 215 122
f 211 216 212
f 212 216 215
f 192 280 211
f 211 280 216
f 191 240 192
f 192 240 280
f 249 124 7
f 7 124 8
f 124 127 8
f 8 127 241
f 127 267 241
f 241 267 10
f 10 267 9
f 9 267 11
f 93 39 235
f 235 39 240
f 39 123 240
f 240 123 280
f 123 119 280
f 280 119 216
f 119 118 216
f 216 118 215
f 118 120 215
f 215 120 122
f 120 121 122
f 122 121 79
f 121 109 79
f 79 109 80

