# https://github.com/mikedh/trimesh
v -0.12584391 -0.00733580 -16.29277802 0.25098039 0.27450980 0.65882353
v -0.13195544 -0.00127888 -16.29826546 0.25098039 0.27450980 0.65882353
v -0.12447196 -0.00510016 -16.30596924 0.25098039 0.27450980 0.65882353
v -0.11799462 -0.01113079 -16.29843521 0.25098039 0.27450980 0.65882353
v -0.13802560 0.01123631 -16.31651115 0.25098039 0.27450980 0.65882353
v -0.13455935 0.02287621 -16.32035637 0.25098039 0.27450980 0.65882353
v -0.12500988 0.01333961 -16.32706833 0.25098039 0.27450980 0.65882353
v -0.13007103 0.00529603 -16.32319832 0.25098039 0.27450980 0.65882353
v -0.11078346 -0.01246044 -16.30172729 0.25098039 0.27450980 0.65882353
v -0.11881183 -0.00849174 -16.31133461 0.25098039 0.27450980 0.65882353
v -0.10591948 -0.00810552 -16.30270958 0.25098039 0.27450980 0.65882353
v -0.09860091 -0.01018399 -16.28832245 0.25098039 0.27450980 0.65882353
v -0.10411309 -0.01399085 -16.29089165 0.25098039 0.27450980 0.65882353
v -0.09574157 -0.01427897 -16.27980804 0.25098039 0.27450980 0.65882353
v -0.09854104 -0.00090942 -16.28301811 0.25098039 0.27450980 0.65882353
v -0.09773229 -0.01143609 -16.27071381 0.25098039 0.27450980 0.65882353
v -0.12109153 0.00175229 -16.25909042 0.25098039 0.27450980 0.65882353
v -0.13363320 0.00026631 -16.25475121 0.25098039 0.27450980 0.65882353
v -0.12799798 -0.01371065 -16.25014687 0.25098039 0.27450980 0.65882353
v -0.11589330 -0.01107112 -16.25566101 0.25098039 0.27450980 0.65882353
v -0.14814445 -0.01364402 -16.25058937 0.25098039 0.27450980 0.65882353
v -0.13682790 -0.01443724 -16.24975777 0.25098039 0.27450980 0.65882353
v -0.14228275 0.00015459 -16.25348282 0.25098039 0.27450980 0.65882353
v -0.15226406 0.00027345 -16.25398827 0.25098039 0.27450980 0.65882353
v -0.14107643 -0.00316261 -16.28637314 0.25098039 0.27450980 0.65882353
v -0.14725819 0.00370687 -16.29039001 0.25098039 0.27450980 0.65882353
v -0.14140284 0.00242343 -16.29146576 0.25098039 0.27450980 0.65882353
v -0.13560110 -0.00350314 -16.28808784 0.25098039 0.27450980 0.65882353
v -0.10106623 -0.00054363 -16.31485558 0.25098039 0.27450980 0.65882353
v -0.10086977 0.00709909 -16.30355453 0.25098039 0.27450980 0.65882353
v -0.10130192 -0.00071922 -16.30142784 0.25098039 0.27450980 0.65882353
v -0.10456823 -0.00478923 -16.31481552 0.25098039 0.27450980 0.65882353
v -0.16833547 0.02014265 -16.30047035 0.25098039 0.27450980 0.65882353
v -0.17060962 0.03375081 -16.29928017 0.25098039 0.27450980 0.65882353
v -0.16519330 0.03539148 -16.30058861 0.25098039 0.27450980 0.65882353
v -0.16439337 0.02261640 -16.30085373 0.25098039 0.27450980 0.65882353
v -0.14675450 0.03369139 -16.31066132 0.25098039 0.27450980 0.65882353
v -0.14980331 0.04168102 -16.30606270 0.25098039 0.27450980 0.65882353
v -0.14124134 0.05245431 -16.30294418 0.25098039 0.27450980 0.65882353
v -0.13580097 0.04539071 -16.30575752 0.25098039 0.27450980 0.65882353
v -0.14106107 0.02715756 -16.31574249 0.25098039 0.27450980 0.65882353
v -0.13223585 0.03760919 -16.31294823 0.25098039 0.27450980 0.65882353
v -0.12663996 0.03138250 -16.31867027 0.25098039 0.27450980 0.65882353
v -0.11820503 0.01971267 -16.32732391 0.25098039 0.27450980 0.65882353
v -0.18139592 0.03108591 -16.29316902 0.25098039 0.27450980 0.65882353
v -0.18182836 0.02099868 -16.29336548 0.25098039 0.27450980 0.65882353
v -0.07719578 -0.05680700 -16.27435875 0.25098039 0.27450980 0.65882353
v -0.08188789 -0.06005113 -16.27318573 0.25098039 0.27450980 0.65882353
v -0.08351530 -0.05648804 -16.27302551 0.25098039 0.27450980 0.65882353
v -0.07871412 -0.05381998 -16.27385712 0.25098039 0.27450980 0.65882353
v -0.18562907 0.02700754 -16.27405167 0.25098039 0.27450980 0.65882353
v -0.18148163 0.02998324 -16.26529503 0.25098039 0.27450980 0.65882353
v -0.18502602 0.03520165 -16.26799583 0.25098039 0.27450980 0.65882353
v -0.18721031 0.03354246 -16.27672386 0.25098039 0.27450980 0.65882353
v -0.18325682 0.01826745 -16.27030373 0.25098039 0.27450980 0.65882353
v -0.17638469 0.02241488 -16.26214027 0.25098039 0.27450980 0.65882353
v -0.06953493 -0.05772008 -16.26449966 0.25098039 0.27450980 0.65882353
v -0.07006449 -0.05641384 -16.26938057 0.25098039 0.27450980 0.65882353
v -0.07155608 -0.05225471 -16.26720238 0.25098039 0.27450980 0.65882353
v -0.07175992 -0.05311504 -16.26193810 0.25098039 0.27450980 0.65882353
v -0.11163640 -0.01502513 -16.29107666 0.25098039 0.27450980 0.65882353
v -0.12073332 -0.01404056 -16.28889847 0.25098039 0.27450980 0.65882353
v -0.10426134 -0.03048228 -16.28149414 0.25098039 0.27450980 0.65882353
v -0.11169820 -0.02341423 -16.28339005 0.25098039 0.27450980 0.65882353
v -0.10564505 -0.02006715 -16.28548622 0.25098039 0.27450980 0.65882353
v -0.09977692 -0.02530390 -16.28234100 0.25098039 0.27450980 0.65882353
v -0.13427535 -0.02308246 -16.27703285 0.25098039 0.27450980 0.65882353
v -0.13901898 -0.01295966 -16.28092194 0.25098039 0.27450980 0.65882353
v -0.13248797 -0.01291402 -16.28197479 0.25098039 0.27450980 0.65882353
v -0.12607411 -0.02413126 -16.27910614 0.25098039 0.27450980 0.65882353
v -0.15260410 -0.01579272 -16.27982140 0.25098039 0.27450980 0.65882353
v -0.14682692 -0.02527363 -16.27590752 0.25098039 0.27450980 0.65882353
v -0.15534464 -0.02557034 -16.27585411 0.25098039 0.27450980 0.65882353
v -0.15820697 -0.01913515 -16.27943611 0.25098039 0.27450980 0.65882353
v -0.13375965 -0.04117434 -16.26844025 0.25098039 0.27450980 0.65882353
v -0.12934788 -0.04681284 -16.26309204 0.25098039 0.27450980 0.65882353
v -0.13173246 -0.04766054 -16.26181221 0.25098039 0.27450980 0.65882353
v -0.13688296 -0.04122214 -16.26774406 0.25098039 0.27450980 0.65882353
v -0.18782187 0.04096867 -16.26941681 0.25098039 0.27450980 0.65882353
v -0.18760036 0.04003530 -16.27871895 0.25098039 0.27450980 0.65882353
v -0.16837537 -0.01538650 -16.25370026 0.25098039 0.27450980 0.65882353
v -0.17681621 -0.01487795 -16.26055717 0.25098039 0.27450980 0.65882353
v -0.17495555 -0.02715652 -16.25742912 0.25098039 0.27450980 0.65882353
v -0.16681993 -0.02441129 -16.25095558 0.25098039 0.27450980 0.65882353
v -0.17294195 0.03243569 -16.26014137 0.25098039 0.27450980 0.65882353
v -0.17799768 0.03752250 -16.26128960 0.25098039 0.27450980 0.65882353
v -0.07214147 -0.06060218 -16.25989914 0.25098039 0.27450980 0.65882353
v -0.07437909 -0.05614876 -16.25746346 0.25098039 0.27450980 0.65882353
v -0.11925063 0.03576210 -16.30854416 0.25098039 0.27450980 0.65882353
v -0.11061063 0.02271878 -16.32120895 0.25098039 0.27450980 0.65882353
v -0.12651658 0.04438557 -16.30067062 0.25098039 0.27450980 0.65882353
v -0.13137282 0.05045395 -16.29519653 0.25098039 0.27450980 0.65882353
v -0.13528639 0.05686382 -16.29320526 0.25098039 0.27450980 0.65882353
v -0.11520270 -0.02884986 -16.28027916 0.25098039 0.27450980 0.65882353
v -0.12901364 -0.01023470 -16.28622437 0.25098039 0.27450980 0.65882353
v -0.14612970 -0.00383832 -16.28529549 0.25098039 0.27450980 0.65882353
v -0.17477742 -0.01362929 -16.28234673 0.25098039 0.27450980 0.65882353
v -0.17875481 -0.00435371 -16.28607559 0.25098039 0.27450980 0.65882353
v -0.16816221 -0.00591647 -16.28814316 0.25098039 0.27450980 0.65882353
v -0.16688296 -0.01364244 -16.28390121 0.25098039 0.27450980 0.65882353
v -0.17993498 -0.01873257 -16.26842690 0.25098039 0.27450980 0.65882353
v -0.17619401 -0.02184484 -16.27442741 0.25098039 0.27450980 0.65882353
v -0.17313689 -0.02967553 -16.27179337 0.25098039 0.27450980 0.65882353
v -0.17680523 -0.02805432 -16.26562500 0.25098039 0.27450980 0.65882353
v -0.09843501 0.00434145 -16.31943703 0.25098039 0.27450980 0.65882353
v -0.10083744 0.01360876 -16.30595207 0.25098039 0.27450980 0.65882353
v -0.18623388 0.02452064 -16.28406906 0.25098039 0.27450980 0.65882353
v -0.18558525 0.03175647 -16.28651428 0.25098039 0.27450980 0.65882353
v -0.18585148 0.04027489 -16.28587914 0.25098039 0.27450980 0.65882353
v -0.15722790 0.01178347 -16.29617500 0.25098039 0.27450980 0.65882353
v -0.16179129 0.02426089 -16.30124283 0.25098039 0.27450980 0.65882353
v -0.15835041 0.02415767 -16.30281067 0.25098039 0.27450980 0.65882353
v -0.15425295 0.01146302 -16.29601097 0.25098039 0.27450980 0.65882353
v -0.14058706 0.00518510 -16.30387115 0.25098039 0.27450980 0.65882353
v -0.14661381 0.01632041 -16.30920792 0.25098039 0.27450980 0.65882353
v -0.13363282 0.00054893 -16.31208611 0.25098039 0.27450980 0.65882353
v -0.15879773 0.03916149 -16.30288887 0.25098039 0.27450980 0.65882353
v -0.16728303 0.04542784 -16.30148888 0.25098039 0.27450980 0.65882353
v -0.15936066 0.04860458 -16.30321121 0.25098039 0.27450980 0.65882353
v -0.17561550 0.04317106 -16.29731750 0.25098039 0.27450980 0.65882353
v -0.18203203 0.04100921 -16.29181099 0.25098039 0.27450980 0.65882353
v -0.18200201 0.04377556 -16.25961685 0.25098039 0.27450980 0.65882353
v -0.15146795 0.05122815 -16.30359650 0.25098039 0.27450980 0.65882353
v -0.12375711 0.00027506 -16.32693291 0.25098039 0.27450980 0.65882353
v -0.11833066 -0.00513591 -16.32958412 0.25098039 0.27450980 0.65882353
v -0.11668520 -0.00862297 -16.32310486 0.25098039 0.27450980 0.65882353
v -0.12187621 -0.00473953 -16.32030106 0.25098039 0.27450980 0.65882353
v -0.09218843 -0.02021802 -16.27300453 0.25098039 0.27450980 0.65882353
v -0.09481579 -0.02306395 -16.27939606 0.25098039 0.27450980 0.65882353
v -0.09921391 -0.01628168 -16.28539276 0.25098039 0.27450980 0.65882353
v -0.16924801 0.00988024 -16.29604340 0.25098039 0.27450980 0.65882353
v -0.18126659 0.01081391 -16.29034805 0.25098039 0.27450980 0.65882353
v -0.10672706 -0.03579131 -16.27769089 0.25098039 0.27450980 0.65882353
v -0.07468253 -0.04830830 -16.26122856 0.25098039 0.27450980 0.65882353
v -0.07418489 -0.04742734 -16.26691818 0.25098039 0.27450980 0.65882353
v -0.08466074 -0.03221176 -16.26930428 0.25098039 0.27450980 0.65882353
v -0.08506781 -0.03305402 -16.26246071 0.25098039 0.27450980 0.65882353
v -0.10324992 -0.04208208 -16.26802635 0.25098039 0.27450980 0.65882353
v -0.10285842 -0.03999322 -16.27446938 0.25098039 0.27450980 0.65882353
v -0.10056941 -0.04175394 -16.27216148 0.25098039 0.27450980 0.65882353
v -0.10103783 -0.04582944 -16.26702499 0.25098039 0.27450980 0.65882353
v -0.14039779 -0.04641220 -16.26410866 0.25098039 0.27450980 0.65882353
v -0.14499645 -0.04065074 -16.26855278 0.25098039 0.27450980 0.65882353
v -0.11142591 -0.02626776 -16.25402832 0.25098039 0.27450980 0.65882353
v -0.10086754 -0.01855062 -16.25737953 0.25098039 0.27450980 0.65882353
v -0.10533284 -0.00904449 -16.26138878 0.25098039 0.27450980 0.65882353
v -0.14161700 -0.02347920 -16.27632332 0.25098039 0.27450980 0.65882353
v -0.13798042 -0.03303366 -16.27276611 0.25098039 0.27450980 0.65882353
v -0.14185821 -0.03361532 -16.27205086 0.25098039 0.27450980 0.65882353
v -0.11608766 -0.03277216 -16.27724648 0.25098039 0.27450980 0.65882353
v -0.10997939 -0.03887886 -16.27369308 0.25098039 0.27450980 0.65882353
v -0.11624555 -0.03718460 -16.27321815 0.25098039 0.27450980 0.65882353
v -0.12144686 -0.03164941 -16.27570915 0.25098039 0.27450980 0.65882353
v -0.17981616 -0.00235705 -16.26289940 0.25098039 0.27450980 0.65882353
v -0.18378496 -0.00691704 -16.27186775 0.25098039 0.27450980 0.65882353
v -0.07289006 -0.05582537 -16.27297592 0.25098039 0.27450980 0.65882353
v -0.07427514 -0.05223663 -16.27163696 0.25098039 0.27450980 0.65882353
v -0.14601871 -0.01356862 -16.27985573 0.25098039 0.27450980 0.65882353
v -0.11077756 0.00206556 -16.26628494 0.25098039 0.27450980 0.65882353
v -0.15129976 -0.00479803 -16.28480911 0.25098039 0.27450980 0.65882353
v -0.15200643 -0.03512368 -16.24982452 0.25098039 0.27450980 0.65882353
v -0.15456104 -0.04003285 -16.25596237 0.25098039 0.27450980 0.65882353
v -0.15097395 -0.04496590 -16.25462532 0.25098039 0.27450980 0.65882353
v -0.14954466 -0.04283318 -16.24865532 0.25098039 0.27450980 0.65882353
v -0.09164959 -0.05766806 -16.26436424 0.25098039 0.27450980 0.65882353
v -0.09045058 -0.05701211 -16.26986313 0.25098039 0.27450980 0.65882353
v -0.08731255 -0.05970408 -16.26922035 0.25098039 0.27450980 0.65882353
v -0.08808368 -0.06125214 -16.26369476 0.25098039 0.27450980 0.65882353
v -0.09995033 -0.03627846 -16.27792549 0.25098039 0.27450980 0.65882353
v -0.09583190 -0.03128372 -16.27917671 0.25098039 0.27450980 0.65882353
v -0.09275204 -0.03668012 -16.27730370 0.25098039 0.27450980 0.65882353
v -0.09700342 -0.03992074 -16.27509308 0.25098039 0.27450980 0.65882353
v -0.09093684 -0.02858583 -16.27573967 0.25098039 0.27450980 0.65882353
v -0.08778450 -0.03337604 -16.27490044 0.25098039 0.27450980 0.65882353
v -0.08914395 -0.05647149 -16.25845718 0.25098039 0.27450980 0.65882353
v -0.08315724 -0.05356220 -16.25501251 0.25098039 0.27450980 0.65882353
v -0.09413747 -0.04048892 -16.25589561 0.25098039 0.27450980 0.65882353
v -0.09779464 -0.04584822 -16.26025963 0.25098039 0.27450980 0.65882353
v -0.15564469 0.01416264 -16.25624084 0.25098039 0.27450980 0.65882353
v -0.16631904 0.01227571 -16.25691032 0.25098039 0.27450980 0.65882353
v -0.16289976 -0.00169319 -16.25470543 0.25098039 0.27450980 0.65882353
v -0.15993252 -0.01508864 -16.25174522 0.25098039 0.27450980 0.65882353
v -0.15644534 -0.02809440 -16.24994469 0.25098039 0.27450980 0.65882353
v -0.14566623 -0.02530211 -16.24664116 0.25098039 0.27450980 0.65882353
v -0.17057785 -0.00191486 -16.25647354 0.25098039 0.27450980 0.65882353
v -0.10828426 -0.03854546 -16.26039886 0.25098039 0.27450980 0.65882353
v -0.10254498 -0.03169310 -16.25680542 0.25098039 0.27450980 0.65882353
v -0.10912867 -0.03324335 -16.25581741 0.25098039 0.27450980 0.65882353
v -0.15829767 -0.00700979 -16.28521347 0.25098039 0.27450980 0.65882353
v -0.07655595 -0.04795897 -16.27201080 0.25098039 0.27450980 0.65882353
v -0.13611540 0.04830667 -16.27269936 0.25098039 0.27450980 0.65882353
v -0.14594293 0.04557521 -16.26406860 0.25098039 0.27450980 0.65882353
v -0.14217353 0.03858064 -16.26493263 0.25098039 0.27450980 0.65882353
v -0.13114226 0.04142094 -16.27501678 0.25098039 0.27450980 0.65882353
v -0.08648448 -0.05397001 -16.27444839 0.25098039 0.27450980 0.65882353
v -0.08115093 -0.05048779 -16.27565384 0.25098039 0.27450980 0.65882353
v -0.15080801 -0.04282873 -16.26770592 0.25098039 0.27450980 0.65882353
v -0.14608586 -0.04717136 -16.26363754 0.25098039 0.27450980 0.65882353
v -0.14847502 -0.04807906 -16.26062012 0.25098039 0.27450980 0.65882353
v -0.15467528 -0.04600227 -16.26604080 0.25098039 0.27450980 0.65882353
v -0.17196028 0.01252302 -16.25826645 0.25098039 0.27450980 0.65882353
v -0.17437032 -0.03493451 -16.25808907 0.25098039 0.27450980 0.65882353
v -0.16715762 -0.03242646 -16.25125694 0.25098039 0.27450980 0.65882353
v -0.16879807 0.02455975 -16.25880241 0.25098039 0.27450980 0.65882353
v -0.15949786 0.02626924 -16.25767517 0.25098039 0.27450980 0.65882353
v -0.16261914 0.03477550 -16.25833130 0.25098039 0.27450980 0.65882353
v -0.13068405 -0.03001246 -16.24703789 0.25098039 0.27450980 0.65882353
v -0.14746454 0.01358072 -16.25646973 0.25098039 0.27450980 0.65882353
v -0.15220758 0.02606980 -16.25865173 0.25098039 0.27450980 0.65882353
v -0.15558615 0.03632299 -16.25929642 0.25098039 0.27450980 0.65882353
v -0.15805897 0.04357665 -16.25874519 0.25098039 0.27450980 0.65882353
v -0.16568962 0.04087893 -16.25834465 0.25098039 0.27450980 0.65882353
v -0.07803592 -0.05129874 -16.25684166 0.25098039 0.27450980 0.65882353
v -0.07965055 -0.05958911 -16.25527382 0.25098039 0.27450980 0.65882353
v -0.16919300 0.04769019 -16.25653839 0.25098039 0.27450980 0.65882353
v -0.16040432 0.05008620 -16.25770569 0.25098039 0.27450980 0.65882353
v -0.14346343 0.02647828 -16.26071358 0.25098039 0.27450980 0.65882353
v -0.13357629 0.02684904 -16.26466942 0.25098039 0.27450980 0.65882353
v -0.13921174 0.01444631 -16.25792313 0.25098039 0.27450980 0.65882353
v -0.12855875 0.01402197 -16.26142883 0.25098039 0.27450980 0.65882353
v -0.12208600 -0.02420523 -16.24651337 0.25098039 0.27450980 0.65882353
v -0.07732442 -0.07491551 -16.26355171 0.25098039 0.27450980 0.65882353
v -0.08242409 -0.06601450 -16.25944901 0.25098039 0.27450980 0.65882353
v -0.08572435 -0.06532544 -16.26410866 0.25098039 0.27450980 0.65882353
v -0.08096988 -0.07485351 -16.26605034 0.25098039 0.27450980 0.65882353
v -0.08552065 -0.06113232 -16.25852203 0.25098039 0.27450980 0.65882353
v -0.07736397 -0.06388839 -16.25757980 0.25098039 0.27450980 0.65882353
v -0.11651590 0.01458504 -16.27093506 0.25098039 0.27450980 0.65882353
v -0.11160305 -0.04209945 -16.26864243 0.25098039 0.27450980 0.65882353
v -0.12110783 0.02889298 -16.27780151 0.25098039 0.27450980 0.65882353
v -0.10330805 0.01108671 -16.28481102 0.25098039 0.27450980 0.65882353
v -0.10808516 0.02108553 -16.29167366 0.25098039 0.27450980 0.65882353
v -0.12495208 0.04382096 -16.28583527 0.25098039 0.27450980 0.65882353
v -0.11518356 0.03490698 -16.29536057 0.25098039 0.27450980 0.65882353
v -0.13504359 0.05646570 -16.28258896 0.25098039 0.27450980 0.65882353
v -0.13056721 0.04966437 -16.28298950 0.25098039 0.27450980 0.65882353
v -0.10712090 0.02568240 -16.30745125 0.25098039 0.27450980 0.65882353
v -0.07636176 -0.06647111 -16.27724648 0.25098039 0.27450980 0.65882353
v -0.08107242 -0.06897882 -16.27499390 0.25098039 0.27450980 0.65882353
v -0.13942572 0.05516167 -16.27198601 0.25098039 0.27450980 0.65882353
v -0.12672351 -0.00251874 -16.31738472 0.25098039 0.27450980 0.65882353
v -0.16082829 0.00194639 -16.29047966 0.25098039 0.27450980 0.65882353
v -0.15529820 0.00281024 -16.29035187 0.25098039 0.27450980 0.65882353
v -0.18033168 0.00163094 -16.28754044 0.25098039 0.27450980 0.65882353
v -0.16839193 0.00139382 -16.29129219 0.25098039 0.27450980 0.65882353
v -0.07115099 -0.06514339 -16.27648735 0.25098039 0.27450980 0.65882353
v -0.12694716 -0.04888626 -16.25683022 0.25098039 0.27450980 0.65882353
v -0.12899125 -0.04695388 -16.25634956 0.25098039 0.27450980 0.65882353
v -0.12041770 0.00647722 -16.33148575 0.25098039 0.27450980 0.65882353
v -0.11650805 0.00069600 -16.33392715 0.25098039 0.27450980 0.65882353
v -0.10464950 0.00584156 -16.33254433 0.25098039 0.27450980 0.65882353
v -0.11084098 0.00420614 -16.33550644 0.25098039 0.27450980 0.65882353
v -0.11393358 0.01173507 -16.33230400 0.25098039 0.27450980 0.65882353
v -0.10751313 0.01383482 -16.32881165 0.25098039 0.27450980 0.65882353
v -0.15941888 0.01115366 -16.29650879 0.25098039 0.27450980 0.65882353
v -0.16294578 0.01017768 -16.29631615 0.25098039 0.27450980 0.65882353
v -0.18192063 0.00859154 -16.26670074 0.25098039 0.27450980 0.65882353
v -0.18506426 0.00375862 -16.27593040 0.25098039 0.27450980 0.65882353
v -0.08904779 -0.02652952 -16.26988602 0.25098039 0.27450980 0.65882353
v -0.09411471 -0.01945879 -16.26457024 0.25098039 0.27450980 0.65882353
v -0.09029135 -0.02668038 -16.26284218 0.25098039 0.27450980 0.65882353
v -0.08956441 -0.03477014 -16.25728035 0.25098039 0.27450980 0.65882353
v -0.10826220 -0.04284138 -16.26389313 0.25098039 0.27450980 0.65882353
v -0.10278298 -0.04048173 -16.26240158 0.25098039 0.27450980 0.65882353
v -0.15300359 0.01959438 -16.30575752 0.25098039 0.27450980 0.65882353
v -0.14804801 0.00885946 -16.29776192 0.25098039 0.27450980 0.65882353
v -0.11531204 -0.00782179 -16.31445503 0.25098039 0.27450980 0.65882353
v -0.11117887 -0.00883203 -16.31726265 0.25098039 0.27450980 0.65882353
v -0.12937272 -0.03070337 -16.27454376 0.25098039 0.27450980 0.65882353
v -0.12369849 -0.03983312 -16.24672890 0.25098039 0.27450980 0.65882353
v -0.11686827 -0.03498458 -16.24658775 0.25098039 0.27450980 0.65882353
v -0.12476578 -0.03820554 -16.27090454 0.25098039 0.27450980 0.65882353
v -0.06640978 -0.06779829 -16.26962471 0.25098039 0.27450980 0.65882353
v -0.06808427 -0.06585488 -16.27404976 0.25098039 0.27450980 0.65882353
v -0.09504400 -0.02784310 -16.25753593 0.25098039 0.27450980 0.65882353
v -0.15006638 -0.03465272 -16.27285385 0.25098039 0.27450980 0.65882353
v -0.13205753 -0.03694921 -16.24766922 0.25098039 0.27450980 0.65882353
v -0.12634437 -0.04569852 -16.25001907 0.25098039 0.27450980 0.65882353
v -0.17473970 -0.03335875 -16.26561165 0.25098039 0.27450980 0.65882353
v -0.14908221 0.05285501 -16.26404381 0.25098039 0.27450980 0.65882353
v -0.08573903 -0.06373447 -16.26958656 0.25098039 0.27450980 0.65882353
v -0.08348708 -0.07154758 -16.27118492 0.25098039 0.27450980 0.65882353
v -0.07350032 -0.07316107 -16.26259041 0.25098039 0.27450980 0.65882353
v -0.06878522 -0.06982404 -16.26434708 0.25098039 0.27450980 0.65882353
v -0.18534735 0.01325860 -16.28072166 0.25098039 0.27450980 0.65882353
v -0.15187098 0.00331068 -16.28984070 0.25098039 0.27450980 0.65882353
v -0.10255520 0.01645944 -16.31830978 0.25098039 0.27450980 0.65882353
v -0.10012296 0.00616272 -16.32658577 0.25098039 0.27450980 0.65882353
v -0.12187946 -0.04314678 -16.26772881 0.25098039 0.27450980 0.65882353
v -0.15907130 -0.03517296 -16.25259018 0.25098039 0.27450980 0.65882353
v -0.14400893 -0.03413338 -16.24520493 0.25098039 0.27450980 0.65882353
v -0.14251707 -0.04216710 -16.24335289 0.25098039 0.27450980 0.65882353
v -0.13514194 -0.04420252 -16.24428177 0.25098039 0.27450980 0.65882353
v -0.13009036 -0.04751510 -16.24898720 0.25098039 0.27450980 0.65882353
v -0.07263085 -0.07808471 -16.26580048 0.25098039 0.27450980 0.65882353
v -0.06787118 -0.07463217 -16.26736259 0.25098039 0.27450980 0.65882353
v -0.06558676 -0.07204905 -16.27238274 0.25098039 0.27450980 0.65882353
v -0.06708772 -0.06945308 -16.27594757 0.25098039 0.27450980 0.65882353
v -0.07084879 -0.06805314 -16.27772903 0.25098039 0.27450980 0.65882353
v -0.07663178 -0.07965471 -16.26719666 0.25098039 0.27450980 0.65882353
v -0.07980829 -0.07893352 -16.26960182 0.25098039 0.27450980 0.65882353
v -0.08247826 -0.07440954 -16.27252197 0.25098039 0.27450980 0.65882353
v -0.07742912 -0.08241288 -16.27148819 0.25098039 0.27450980 0.65882353
v -0.07238300 -0.08402723 -16.27246094 0.25098039 0.27450980 0.65882353
v -0.06702445 -0.07928155 -16.28462601 0.25098039 0.27450980 0.65882353
v -0.06581180 -0.07781534 -16.27884865 0.25098039 0.27450980 0.65882353
v -0.06644365 -0.08039741 -16.27971268 0.25098039 0.27450980 0.65882353
v -0.06757148 -0.08237278 -16.28427124 0.25098039 0.27450980 0.65882353
v -0.06867975 -0.08582707 -16.28808212 0.25098039 0.27450980 0.65882353
v -0.06807433 -0.08262061 -16.28931427 0.25098039 0.27450980 0.65882353
v -0.06810555 -0.08165836 -16.27546120 0.25098039 0.27450980 0.65882353
v -0.06966184 -0.08514094 -16.28121948 0.25098039 0.27450980 0.65882353
v -0.07292989 -0.08695857 -16.27944946 0.25098039 0.27450980 0.65882353
v -0.07333076 -0.09011903 -16.28422165 0.25098039 0.27450980 0.65882353
v -0.07035604 -0.08872779 -16.28582001 0.25098039 0.27450980 0.65882353
v -0.07150988 -0.08466688 -16.27556610 0.25098039 0.27450980 0.65882353
v -0.06732914 -0.08051150 -16.27303886 0.25098039 0.27450980 0.65882353
v -0.06983189 -0.08637591 -16.29155540 0.25098039 0.27450980 0.65882353
v -0.06936172 -0.08819938 -16.28996086 0.25098039 0.27450980 0.65882353
v -0.07119758 -0.09028830 -16.28856277 0.25098039 0.27450980 0.65882353
v -0.07265426 -0.09046848 -16.29124451 0.25098039 0.27450980 0.65882353
v -0.06741549 -0.07234013 -16.27941895 0.25098039 0.27450980 0.65882353
v -0.06812367 -0.07732306 -16.28598213 0.25098039 0.27450980 0.65882353
v -0.07054144 -0.08100657 -16.29021072 0.25098039 0.27450980 0.65882353
v -0.07210647 -0.08487676 -16.29226494 0.25098039 0.27450980 0.65882353
v -0.07197398 -0.07681707 -16.28732872 0.25098039 0.27450980 0.65882353
v -0.07338759 -0.08029616 -16.29019165 0.25098039 0.27450980 0.65882353
v -0.07508327 -0.08365330 -16.29161263 0.25098039 0.27450980 0.65882353
v -0.07617295 -0.07734957 -16.28741074 0.25098039 0.27450980 0.65882353
v -0.07650094 -0.08065739 -16.28967094 0.25098039 0.27450980 0.65882353
v -0.07496525 -0.07023512 -16.27937698 0.25098039 0.27450980 0.65882353
v -0.07085621 -0.06932364 -16.27937889 0.25098039 0.27450980 0.65882353
v -0.07700428 -0.08270106 -16.29113960 0.25098039 0.27450980 0.65882353
v -0.07463875 -0.08958231 -16.29178429 0.25098039 0.27450980 0.65882353
v -0.07594682 -0.08640563 -16.27742386 0.25098039 0.27450980 0.65882353
v -0.07643330 -0.08936422 -16.28404808 0.25098039 0.27450980 0.65882353
v -0.07827117 -0.08566140 -16.27770424 0.25098039 0.27450980 0.65882353
v -0.07877563 -0.08894463 -16.28397179 0.25098039 0.27450980 0.65882353
v -0.07581928 -0.09186289 -16.28793144 0.25098039 0.27450980 0.65882353
v -0.07351777 -0.09119520 -16.28711319 0.25098039 0.27450980 0.65882353
v -0.07607198 -0.06843849 -16.27747917 0.25098039 0.27450980 0.65882353
v -0.08085902 -0.07117464 -16.27515030 0.25098039 0.27450980 0.65882353
v -0.08014894 -0.07277909 -16.27688217 0.25098039 0.27450980 0.65882353
v -0.08019991 -0.07909259 -16.28546906 0.25098039 0.27450980 0.65882353
v -0.08203618 -0.07611279 -16.27504539 0.25098039 0.27450980 0.65882353
v -0.08041006 -0.08108449 -16.27378654 0.25098039 0.27450980 0.65882353
v -0.08044250 -0.08474970 -16.27967453 0.25098039 0.27450980 0.65882353
v -0.08165227 -0.08254313 -16.28200150 0.25098039 0.27450980 0.65882353
v -0.08037017 -0.08718283 -16.28462029 0.25098039 0.27450980 0.65882353
v -0.08061254 -0.08502077 -16.28584862 0.25098039 0.27450980 0.65882353
v -0.07946967 -0.08232448 -16.28835297 0.25098039 0.27450980 0.65882353
v -0.07922414 -0.08820404 -16.28849602 0.25098039 0.27450980 0.65882353
v -0.07759035 -0.09061377 -16.28825378 0.25098039 0.27450980 0.65882353
v -0.07692927 -0.08707920 -16.29121780 0.25098039 0.27450980 0.65882353
v -0.07995380 -0.08639559 -16.28829765 0.25098039 0.27450980 0.65882353
v -0.07805151 -0.08491337 -16.29008102 0.25098039 0.27450980 0.65882353
v -0.10346976 -0.07466654 -16.26195717 0.25098039 0.27450980 0.65882353
v -0.10928075 -0.07693736 -16.26041031 0.25098039 0.27450980 0.65882353
v -0.10953708 -0.07216989 -16.25887871 0.25098039 0.27450980 0.65882353
v -0.10461572 -0.07065305 -16.26044655 0.25098039 0.27450980 0.65882353
v -0.09561859 -0.07502201 -16.25079918 0.25098039 0.27450980 0.65882353
v -0.09645650 -0.07427710 -16.25661850 0.25098039 0.27450980 0.65882353
v -0.09684928 -0.06949931 -16.25440788 0.25098039 0.27450980 0.65882353
v -0.09722769 -0.07003012 -16.24787140 0.25098039 0.27450980 0.65882353
v -0.09983090 -0.07665946 -16.24556351 0.25098039 0.27450980 0.65882353
v -0.10170706 -0.07134786 -16.24285126 0.25098039 0.27450980 0.65882353
v -0.09842184 -0.06453876 -16.24722481 0.25098039 0.27450980 0.65882353
v -0.09855536 -0.06411667 -16.25432014 0.25098039 0.27450980 0.65882353
v -0.10659026 -0.04493375 -16.25764847 0.25098039 0.27450980 0.65882353
v -0.10661651 -0.04443022 -16.25049591 0.25098039 0.27450980 0.65882353
v -0.12311864 -0.05114078 -16.26071739 0.25098039 0.27450980 0.65882353
v -0.12337896 -0.05220920 -16.25680733 0.25098039 0.27450980 0.65882353
v -0.09978525 -0.07416755 -16.26048470 0.25098039 0.27450980 0.65882353
v -0.10035813 -0.06988817 -16.25853157 0.25098039 0.27450980 0.65882353
v -0.11712316 -0.07068786 -16.25342941 0.25098039 0.27450980 0.65882353
v -0.11517672 -0.06978244 -16.25840950 0.25098039 0.27450980 0.65882353
v -0.11353335 -0.07412457 -16.25709534 0.25098039 0.27450980 0.65882353
v -0.11482963 -0.07549192 -16.25182533 0.25098039 0.27450980 0.65882353
v -0.11257704 -0.04638236 -16.26404190 0.25098039 0.27450980 0.65882353
v -0.11864072 -0.04816629 -16.26306534 0.25098039 0.27450980 0.65882353
v -0.10913387 -0.04601628 -16.26191330 0.25098039 0.27450980 0.65882353
v -0.11608869 -0.07059874 -16.24687195 0.25098039 0.27450980 0.65882353
v -0.11148083 -0.06891820 -16.24195671 0.25098039 0.27450980 0.65882353
v -0.11847246 -0.04973945 -16.24396706 0.25098039 0.27450980 0.65882353
v -0.12244195 -0.05250862 -16.24828339 0.25098039 0.27450980 0.65882353
v -0.10119422 -0.06503056 -16.25917625 0.25098039 0.27450980 0.65882353
v -0.11069676 -0.06834464 -16.26128960 0.25098039 0.27450980 0.65882353
v -0.10580240 -0.06659572 -16.26205635 0.25098039 0.27450980 0.65882353
v -0.10410702 -0.06583259 -16.24267197 0.25098039 0.27450980 0.65882353
v -0.10868461 -0.07500976 -16.24263382 0.25098039 0.27450980 0.65882353
v -0.10817313 -0.09284708 -16.25278854 0.25098039 0.27450980 0.65882353
v -0.11155805 -0.08169122 -16.24813080 0.25098039 0.27450980 0.65882353
v -0.11339419 -0.08101062 -16.25290489 0.25098039 0.27450980 0.65882353
v -0.11099027 -0.09268475 -16.25694275 0.25098039 0.27450980 0.65882353
v -0.11336324 -0.07621397 -16.24647331 0.25098039 0.27450980 0.65882353
v -0.10660459 -0.08006752 -16.24510193 0.25098039 0.27450980 0.65882353
v -0.10276757 -0.08830127 -16.26751900 0.25098039 0.27450980 0.65882353
v -0.10858235 -0.09035933 -16.26564217 0.25098039 0.27450980 0.65882353
v -0.09824203 -0.08775884 -16.26656532 0.25098039 0.27450980 0.65882353
v -0.11169535 -0.04600218 -16.24465370 0.25098039 0.27450980 0.65882353
v -0.09367375 -0.08744900 -16.25713730 0.25098039 0.27450980 0.65882353
v -0.09514025 -0.08714966 -16.26358032 0.25098039 0.27450980 0.65882353
v -0.11304578 -0.07905053 -16.25759506 0.25098039 0.27450980 0.65882353
v -0.11135684 -0.09205793 -16.26177216 0.25098039 0.27450980 0.65882353
v -0.10404199 -0.09194095 -16.25080872 0.25098039 0.27450980 0.65882353
v -0.09750019 -0.08838190 -16.25148010 0.25098039 0.27450980 0.65882353
v -0.10297880 -0.09715450 -16.25389671 0.25098039 0.27450980 0.65882353
v -0.09696692 -0.09471883 -16.25512886 0.25098039 0.27450980 0.65882353
v -0.09339181 -0.09310727 -16.26062012 0.25098039 0.27450980 0.65882353
v -0.09530129 -0.09141804 -16.26592636 0.25098039 0.27450980 0.65882353
v -0.09843847 -0.09071837 -16.26813889 0.25098039 0.27450980 0.65882353
v -0.10698789 -0.09783792 -16.25573921 0.25098039 0.27450980 0.65882353
v -0.10993819 -0.09713791 -16.25934792 0.25098039 0.27450980 0.65882353
v -0.11044101 -0.09419848 -16.26331902 0.25098039 0.27450980 0.65882353
v -0.10797700 -0.10255417 -16.26118279 0.25098039 0.27450980 0.65882353
v -0.10370398 -0.10389878 -16.26001740 0.25098039 0.27450980 0.65882353
v -0.09698665 -0.10631222 -16.27734756 0.25098039 0.27450980 0.65882353
v -0.09566826 -0.10266986 -16.27261353 0.25098039 0.27450980 0.65882353
v -0.09632443 -0.10476805 -16.27110481 0.25098039 0.27450980 0.65882353
v -0.09759733 -0.10817549 -16.27529335 0.25098039 0.27450980 0.65882353
v -0.09416831 -0.10056348 -16.26672173 0.25098039 0.27450980 0.65882353
v -0.09550104 -0.10282393 -16.26683235 0.25098039 0.27450980 0.65882353
v -0.09831659 -0.10380416 -16.26319504 0.25098039 0.27450980 0.65882353
v -0.09964357 -0.10716699 -16.26839066 0.25098039 0.27450980 0.65882353
v -0.10390465 -0.10764648 -16.26622009 0.25098039 0.27450980 0.65882353
v -0.10459296 -0.11174576 -16.27030563 0.25098039 0.27450980 0.65882353
v -0.10034648 -0.11137596 -16.27251816 0.25098039 0.27450980 0.65882353
v -0.10192783 -0.10542604 -16.26287460 0.25098039 0.27450980 0.65882353
v -0.09888582 -0.11090989 -16.27742004 0.25098039 0.27450980 0.65882353
v -0.09971124 -0.11068641 -16.27988052 0.25098039 0.27450980 0.65882353
v -0.09714946 -0.10207047 -16.26048660 0.25098039 0.27450980 0.65882353
v -0.09504075 -0.09482777 -16.26820374 0.25098039 0.27450980 0.65882353
v -0.09671785 -0.10072681 -16.27480507 0.25098039 0.27450980 0.65882353
v -0.09893435 -0.10493751 -16.27956963 0.25098039 0.27450980 0.65882353
v -0.10238928 -0.10990119 -16.28115082 0.25098039 0.27450980 0.65882353
v -0.10031663 -0.09954248 -16.27677536 0.25098039 0.27450980 0.65882353
v -0.10197937 -0.10408805 -16.28044701 0.25098039 0.27450980 0.65882353
v -0.10467264 -0.10837010 -16.28098488 0.25098039 0.27450980 0.65882353
v -0.10502978 -0.09899405 -16.27739525 0.25098039 0.27450980 0.65882353
v -0.10621420 -0.10388988 -16.28023338 0.25098039 0.27450980 0.65882353
v -0.10326029 -0.09176309 -16.26996994 0.25098039 0.27450980 0.65882353
v -0.09856835 -0.09227017 -16.27012253 0.25098039 0.27450980 0.65882353
v -0.10630281 -0.10661271 -16.28051758 0.25098039 0.27450980 0.65882353
v -0.10245930 -0.11427912 -16.27792549 0.25098039 0.27450980 0.65882353
v -0.10505009 -0.11283655 -16.27968597 0.25098039 0.27450980 0.65882353
v -0.10153393 -0.11352704 -16.27625084 0.25098039 0.27450980 0.65882353
v -0.10600379 -0.10739689 -16.26582909 0.25098039 0.27450980 0.65882353
v -0.10672021 -0.11127336 -16.27110291 0.25098039 0.27450980 0.65882353
v -0.10867724 -0.10670631 -16.26677704 0.25098039 0.27450980 0.65882353
v -0.10878304 -0.11083186 -16.27249146 0.25098039 0.27450980 0.65882353
v -0.10610251 -0.11408064 -16.27496338 0.25098039 0.27450980 0.65882353
v -0.10448626 -0.11414383 -16.27436447 0.25098039 0.27450980 0.65882353
v -0.10282129 -0.09072740 -16.26807594 0.25098039 0.27450980 0.65882353
v -0.10802369 -0.09216557 -16.26613045 0.25098039 0.27450980 0.65882353
v -0.10835536 -0.09291889 -16.26774788 0.25098039 0.27450980 0.65882353
v -0.10952078 -0.10048048 -16.27488899 0.25098039 0.27450980 0.65882353
v -0.11088036 -0.09559061 -16.26475334 0.25098039 0.27450980 0.65882353
v -0.11029811 -0.10026668 -16.26283073 0.25098039 0.27450980 0.65882353
v -0.11068416 -0.10509497 -16.26802254 0.25098039 0.27450980 0.65882353
v -0.11145906 -0.10298903 -16.27136230 0.25098039 0.27450980 0.65882353
v -0.11081582 -0.10998541 -16.27302361 0.25098039 0.27450980 0.65882353
v -0.11133115 -0.10699442 -16.27412033 0.25098039 0.27450980 0.65882353
v -0.10962181 -0.10460632 -16.27801323 0.25098039 0.27450980 0.65882353
v -0.10952652 -0.11243628 -16.27681732 0.25098039 0.27450980 0.65882353
v -0.10764310 -0.11374074 -16.27594948 0.25098039 0.27450980 0.65882353
v -0.10655732 -0.11111273 -16.27988434 0.25098039 0.27450980 0.65882353
v -0.11043385 -0.10958049 -16.27691650 0.25098039 0.27450980 0.65882353
v -0.10822484 -0.10831322 -16.27954674 0.25098039 0.27450980 0.65882353
v -0.12860757 -0.07429601 -16.25433540 0.25098039 0.27450980 0.65882353
v -0.13394226 -0.07441716 -16.25693321 0.25098039 0.27450980 0.65882353
v -0.13449994 -0.07090783 -16.25638580 0.25098039 0.27450980 0.65882353
v -0.12930471 -0.07075274 -16.25376320 0.25098039 0.27450980 0.65882353
v -0.13039052 -0.07622311 -16.24205589 0.25098039 0.27450980 0.65882353
v -0.12705794 -0.07602891 -16.24564362 0.25098039 0.27450980 0.65882353
v -0.12763000 -0.07144342 -16.24463463 0.25098039 0.27450980 0.65882353
v -0.13107961 -0.07034278 -16.24048615 0.25098039 0.27450980 0.65882353
v -0.13557987 -0.07829067 -16.24156380 0.25098039 0.27450980 0.65882353
v -0.13708954 -0.07065731 -16.23901558 0.25098039 0.27450980 0.65882353
v -0.13152280 -0.06447694 -16.23966599 0.25098039 0.27450980 0.65882353
v -0.12803513 -0.06674224 -16.24433517 0.25098039 0.27450980 0.65882353
v -0.12999780 -0.05169773 -16.24767876 0.25098039 0.27450980 0.65882353
v -0.13387784 -0.05046528 -16.24212456 0.25098039 0.27450980 0.65882353
v -0.12678717 -0.07513043 -16.25018883 0.25098039 0.27450980 0.65882353
v -0.12727919 -0.07138781 -16.24960518 0.25098039 0.27450980 0.65882353
v -0.14388986 -0.06876296 -16.25534630 0.25098039 0.27450980 0.65882353
v -0.13981721 -0.06837426 -16.25779343 0.25098039 0.27450980 0.65882353
v -0.13980806 -0.07187720 -16.25632286 0.25098039 0.27450980 0.65882353
v -0.14321864 -0.07258327 -16.25390053 0.25098039 0.27450980 0.65882353
v -0.13252068 -0.05087891 -16.25868797 0.25098039 0.27450980 0.65882353
v -0.13844532 -0.05003760 -16.26002502 0.25098039 0.27450980 0.65882353
v -0.12972882 -0.05247910 -16.25403976 0.25098039 0.27450980 0.65882353
v -0.14602999 -0.06864522 -16.24918556 0.25098039 0.27450980 0.65882353
v -0.14447200 -0.06648234 -16.24219894 0.25098039 0.27450980 0.65882353
v -0.14762914 -0.05190917 -16.24568939 0.25098039 0.27450980 0.65882353
v -0.14845026 -0.05240882 -16.25203323 0.25098039 0.27450980 0.65882353
v -0.12745890 -0.06767093 -16.24961662 0.25098039 0.27450980 0.65882353
v -0.13453826 -0.06742398 -16.25778961 0.25098039 0.27450980 0.65882353
v -0.12941591 -0.06768891 -16.25488663 0.25098039 0.27450980 0.65882353
v -0.13784432 -0.06440589 -16.23914337 0.25098039 0.27450980 0.65882353
v -0.14279372 -0.07265328 -16.24278641 0.25098039 0.27450980 0.65882353
v -0.14089651 -0.09358452 -16.25229263 0.25098039 0.27450980 0.65882353
v -0.14425996 -0.07770287 -16.24899292 0.25098039 0.27450980 0.65882353
v -0.14258495 -0.07650642 -16.25440025 0.25098039 0.27450980 0.65882353
v -0.14097680 -0.09228662 -16.25650978 0.25098039 0.27450980 0.65882353
v -0.14506622 -0.07361807 -16.24883080 0.25098039 0.27450980 0.65882353
v -0.14161202 -0.07812078 -16.24392700 0.25098039 0.27450980 0.65882353
v -0.12731518 -0.08892699 -16.25932121 0.25098039 0.27450980 0.65882353
v -0.13280275 -0.08872740 -16.26091385 0.25098039 0.27450980 0.65882353
v -0.12525406 -0.08887757 -16.25538445 0.25098039 0.27450980 0.65882353
v -0.14103663 -0.05022006 -16.24064445 0.25098039 0.27450980 0.65882353
v -0.14537030 -0.05143138 -16.25812340 0.25098039 0.27450980 0.65882353
v -0.12656873 -0.09172179 -16.24849319 0.25098039 0.27450980 0.65882353
v -0.12480083 -0.09008093 -16.25218391 0.25098039 0.27450980 0.65882353
v -0.13923547 -0.07518253 -16.25673866 0.25098039 0.27450980 0.65882353
v -0.13829523 -0.09037903 -16.25985718 0.25098039 0.27450980 0.65882353
v -0.13813612 -0.09338425 -16.24821854 0.25098039 0.27450980 0.65882353
v -0.13220605 -0.09208514 -16.24599838 0.25098039 0.27450980 0.65882353
v -0.13767548 -0.09895010 -16.25152588 0.25098039 0.27450980 0.65882353
v -0.13164146 -0.09828830 -16.24966240 0.25098039 0.27450980 0.65882353
v -0.12618472 -0.09762652 -16.25202560 0.25098039 0.27450980 0.65882353
v -0.12458588 -0.09500384 -16.25537682 0.25098039 0.27450980 0.65882353
v -0.12504320 -0.09313317 -16.25815582 0.25098039 0.27450980 0.65882353
v -0.14024632 -0.09785892 -16.25573730 0.25098039 0.27450980 0.65882353
v -0.13997298 -0.09575601 -16.25911903 0.25098039 0.27450980 0.65882353
v -0.13744077 -0.09197044 -16.26034546 0.25098039 0.27450980 0.65882353
v -0.14014462 -0.10003865 -16.25970268 0.25098039 0.27450980 0.65882353
v -0.13691829 -0.10387208 -16.25708961 0.25098039 0.27450980 0.65882353
v -0.12591621 -0.10883971 -16.26915550 0.25098039 0.27450980 0.65882353
v -0.12586859 -0.10538450 -16.26428413 0.25098039 0.27450980 0.65882353
v -0.12679818 -0.10619183 -16.26392174 0.25098039 0.27450980 0.65882353
v -0.12689945 -0.11008319 -16.26830482 0.25098039 0.27450980 0.65882353
v -0.12667023 -0.10323490 -16.25769806 0.25098039 0.27450980 0.65882353
v -0.12762091 -0.10459776 -16.25902367 0.25098039 0.27450980 0.65882353
v -0.13126078 -0.10502160 -16.25741577 0.25098039 0.27450980 0.65882353
v -0.13135345 -0.10865059 -16.26295853 0.25098039 0.27450980 0.65882353
v -0.13680956 -0.10630144 -16.26395798 0.25098039 0.27450980 0.65882353
v -0.13575536 -0.10911104 -16.26814651 0.25098039 0.27450980 0.65882353
v -0.13109472 -0.11179483 -16.26739693 0.25098039 0.27450980 0.65882353
v -0.13562396 -0.10477737 -16.25866890 0.25098039 0.27450980 0.65882353
v -0.12791079 -0.11203350 -16.27068520 0.25098039 0.27450980 0.65882353
v -0.12612638 -0.11231230 -16.27196121 0.25098039 0.27450980 0.65882353
v -0.13129321 -0.10395919 -16.25490570 0.25098039 0.27450980 0.65882353
v -0.12385596 -0.09936754 -16.25915718 0.25098039 0.27450980 0.65882353
v -0.12415466 -0.10347335 -16.26576042 0.25098039 0.27450980 0.65882353
v -0.12385011 -0.10677254 -16.27097702 0.25098039 0.27450980 0.65882353
v -0.12591067 -0.10928939 -16.27424240 0.25098039 0.27450980 0.65882353
v -0.12501471 -0.10062209 -16.26804161 0.25098039 0.27450980 0.65882353
v -0.12515080 -0.10416509 -16.27228737 0.25098039 0.27450980 0.65882353
v -0.12688662 -0.10642506 -16.27524567 0.25098039 0.27450980 0.65882353
v -0.12715811 -0.09870717 -16.26963043 0.25098039 0.27450980 0.65882353
v -0.12750320 -0.10203932 -16.27324867 0.25098039 0.27450980 0.65882353
v -0.12731045 -0.09297155 -16.26198959 0.25098039 0.27450980 0.65882353
v -0.12472072 -0.09575363 -16.26071739 0.25098039 0.27450980 0.65882353
v -0.12827229 -0.10450947 -16.27515411 0.25098039 0.27450980 0.65882353
v -0.13073123 -0.11360174 -16.27274704 0.25098039 0.27450980 0.65882353
v -0.13126925 -0.11049961 -16.27579498 0.25098039 0.27450980 0.65882353
v -0.13084590 -0.11263822 -16.27090263 0.25098039 0.27450980 0.65882353
v -0.13833421 -0.10508008 -16.26403046 0.25098039 0.27450980 0.65882353
v -0.13752714 -0.10854952 -16.26971054 0.25098039 0.27450980 0.65882353
v -0.13941416 -0.10286044 -16.26563644 0.25098039 0.27450980 0.65882353
v -0.13859072 -0.10643551 -16.27112007 0.25098039 0.27450980 0.65882353
v -0.13550057 -0.11150524 -16.27217865 0.25098039 0.27450980 0.65882353
v -0.13471174 -0.11147512 -16.27110291 0.25098039 0.27450980 0.65882353
v -0.12789376 -0.09122807 -16.26009750 0.25098039 0.27450980 0.65882353
v -0.13282579 -0.09064247 -16.26124573 0.25098039 0.27450980 0.65882353
v -0.13192922 -0.09179984 -16.26289368 0.25098039 0.27450980 0.65882353
v -0.13152045 -0.09763396 -16.27111816 0.25098039 0.27450980 0.65882353
v -0.13654995 -0.09277657 -16.26237106 0.25098039 0.27450980 0.65882353
v -0.13947769 -0.09766056 -16.26272011 0.25098039 0.27450980 0.65882353
v -0.13849925 -0.10052532 -16.26788521 0.25098039 0.27450980 0.65882353
v -0.13593738 -0.09880652 -16.27025032 0.25098039 0.27450980 0.65882353
v -0.13786276 -0.10406867 -16.27247620 0.25098039 0.27450980 0.65882353
v -0.13581051 -0.10204951 -16.27279282 0.25098039 0.27450980 0.65882353
v -0.13131739 -0.10087997 -16.27447701 0.25098039 0.27450980 0.65882353
v -0.13536793 -0.10665607 -16.27469635 0.25098039 0.27450980 0.65882353
v -0.13615108 -0.10943286 -16.27395821 0.25098039 0.27450980 0.65882353
v -0.13115385 -0.10726202 -16.27643967 0.25098039 0.27450980 0.65882353
v -0.13440822 -0.10433288 -16.27495384 0.25098039 0.27450980 0.65882353
v -0.13117406 -0.10465856 -16.27618027 0.25098039 0.27450980 0.65882353
v -0.14268889 -0.05035579 -16.26021194 0.25098039 0.27450980 0.65882353
v -0.16227892 -0.06744468 -16.26893425 0.25098039 0.27450980 0.65882353
v -0.16554531 -0.06640550 -16.27111626 0.25098039 0.27450980 0.65882353
v -0.16614348 -0.06323326 -16.26963997 0.25098039 0.27450980 0.65882353
v -0.16244397 -0.06331280 -16.26795769 0.25098039 0.27450980 0.65882353
v -0.16466320 -0.07001093 -16.25858498 0.25098039 0.27450980 0.65882353
v -0.16176400 -0.06986031 -16.26195908 0.25098039 0.27450980 0.65882353
v -0.16134483 -0.06548695 -16.25989151 0.25098039 0.27450980 0.65882353
v -0.16416639 -0.06551544 -16.25653839 0.25098039 0.27450980 0.65882353
v -0.16950452 -0.06974062 -16.25792122 0.25098039 0.27450980 0.65882353
v -0.16934192 -0.06528680 -16.25616646 0.25098039 0.27450980 0.65882353
v -0.16355807 -0.06212911 -16.25515938 0.25098039 0.27450980 0.65882353
v -0.16056201 -0.06196122 -16.25885010 0.25098039 0.27450980 0.65882353
v -0.15736488 -0.04656320 -16.25729561 0.25098039 0.27450980 0.65882353
v -0.16095223 -0.04449971 -16.25340462 0.25098039 0.27450980 0.65882353
v -0.17381971 -0.03928016 -16.26612854 0.25098039 0.27450980 0.65882353
v -0.16907755 -0.03826310 -16.27052116 0.25098039 0.27450980 0.65882353
v -0.17019060 -0.04698340 -16.26899529 0.25098039 0.27450980 0.65882353
v -0.17387912 -0.04604101 -16.26531982 0.25098039 0.27450980 0.65882353
v -0.16117403 -0.06878896 -16.26562500 0.25098039 0.27450980 0.65882353
v -0.16051681 -0.06455894 -16.26464272 0.25098039 0.27450980 0.65882353
v -0.17476234 -0.05885047 -16.26679420 0.25098039 0.27450980 0.65882353
v -0.17090350 -0.05929002 -16.26939774 0.25098039 0.27450980 0.65882353
v -0.17005047 -0.06249933 -16.27030754 0.25098039 0.27450980 0.65882353
v -0.17428908 -0.06291777 -16.26868820 0.25098039 0.27450980 0.65882353
v -0.16356918 -0.04018343 -16.27116585 0.25098039 0.27450980 0.65882353
v -0.15899161 -0.04185282 -16.26927185 0.25098039 0.27450980 0.65882353
v -0.15961587 -0.04621809 -16.26940918 0.25098039 0.27450980 0.65882353
v -0.16533035 -0.04822810 -16.27004242 0.25098039 0.27450980 0.65882353
v -0.15652581 -0.04757536 -16.26496124 0.25098039 0.27450980 0.65882353
v -0.17614937 -0.05943402 -16.26306534 0.25098039 0.27450980 0.65882353
v -0.17457977 -0.06062702 -16.25764656 0.25098039 0.27450980 0.65882353
v -0.17468017 -0.04399930 -16.25554085 0.25098039 0.27450980 0.65882353
v -0.17532176 -0.04405914 -16.26032639 0.25098039 0.27450980 0.65882353
v -0.15987104 -0.06204646 -16.26330757 0.25098039 0.27450980 0.65882353
v -0.16658649 -0.06026807 -16.26944923 0.25098039 0.27450980 0.65882353
v -0.16252053 -0.06123121 -16.26758766 0.25098039 0.27450980 0.65882353
v -0.16917229 -0.06160263 -16.25430107 0.25098039 0.27450980 0.65882353
v -0.17445573 -0.06485803 -16.25948715 0.25098039 0.27450980 0.65882353
v -0.17611572 -0.07587039 -16.27037811 0.25098039 0.27450980 0.65882353
v -0.17625105 -0.06721847 -16.26635742 0.25098039 0.27450980 0.65882353
v -0.17394787 -0.06629825 -16.27047157 0.25098039 0.27450980 0.65882353
v -0.17481506 -0.07487416 -16.27292824 0.25098039 0.27450980 0.65882353
v -0.17599702 -0.06359372 -16.26464272 0.25098039 0.27450980 0.65882353
v -0.17465979 -0.06911853 -16.26137161 0.25098039 0.27450980 0.65882353
v -0.16267851 -0.07539272 -16.27268600 0.25098039 0.27450980 0.65882353
v -0.16723830 -0.07384308 -16.27470779 0.25098039 0.27450980 0.65882353
v -0.16150117 -0.07663490 -16.26993942 0.25098039 0.27450980 0.65882353
v -0.16774461 -0.04403519 -16.25173950 0.25098039 0.27450980 0.65882353
v -0.16484925 -0.07912856 -16.26374817 0.25098039 0.27450980 0.65882353
v -0.16195814 -0.07849418 -16.26695442 0.25098039 0.27450980 0.65882353
v -0.16954720 -0.06607933 -16.27174187 0.25098039 0.27450980 0.65882353
v -0.17165589 -0.07383156 -16.27457809 0.25098039 0.27450980 0.65882353
v -0.17504905 -0.07749248 -16.26646042 0.25098039 0.27450980 0.65882353
v -0.17030045 -0.07858798 -16.26272202 0.25098039 0.27450980 0.65882353
v -0.17438474 -0.08173162 -16.26930237 0.25098039 0.27450980 0.65882353
v -0.16951966 -0.08261284 -16.26554871 0.25098039 0.27450980 0.65882353
v -0.16377419 -0.08265081 -16.26718140 0.25098039 0.27450980 0.65882353
v -0.16176978 -0.08050112 -16.26953697 0.25098039 0.27450980 0.65882353
v -0.16140176 -0.07862629 -16.27207375 0.25098039 0.27450980 0.65882353
v -0.17557901 -0.07946303 -16.27299309 0.25098039 0.27450980 0.65882353
v -0.17438298 -0.07776423 -16.27522850 0.25098039 0.27450980 0.65882353
v -0.17145258 -0.07577734 -16.27637672 0.25098039 0.27450980 0.65882353
v -0.17487313 -0.08279373 -16.27590561 0.25098039 0.27450980 0.65882353
v -0.17287746 -0.08645838 -16.27363014 0.25098039 0.27450980 0.65882353
v -0.16226332 -0.09073514 -16.28089142 0.25098039 0.27450980 0.65882353
v -0.16224042 -0.08822355 -16.27748871 0.25098039 0.27450980 0.65882353
v -0.16312441 -0.08895639 -16.27701187 0.25098039 0.27450980 0.65882353
v -0.16255060 -0.09163225 -16.28020096 0.25098039 0.27450980 0.65882353
v -0.16336560 -0.08626528 -16.27240181 0.25098039 0.27450980 0.65882353
v -0.16437051 -0.08740526 -16.27325630 0.25098039 0.27450980 0.65882353
v -0.16771269 -0.08709799 -16.27199745 0.25098039 0.27450980 0.65882353
v -0.16704176 -0.09043300 -16.27621841 0.25098039 0.27450980 0.65882353
v -0.17185941 -0.08953081 -16.27846909 0.25098039 0.27450980 0.65882353
v -0.17077324 -0.09227021 -16.28155708 0.25098039 0.27450980 0.65882353
v -0.16670933 -0.09301065 -16.27911568 0.25098039 0.27450980 0.65882353
v -0.17139855 -0.08783999 -16.27412796 0.25098039 0.27450980 0.65882353
v -0.16316044 -0.09384422 -16.28186226 0.25098039 0.27450980 0.65882353
v -0.16247444 -0.09413993 -16.28313828 0.25098039 0.27450980 0.65882353
v -0.16806278 -0.08633049 -16.27004623 0.25098039 0.27450980 0.65882353
v -0.16113609 -0.08297323 -16.27353859 0.25098039 0.27450980 0.65882353
v -0.16088262 -0.08706731 -16.27929497 0.25098039 0.27450980 0.65882353
v -0.16125682 -0.09055533 -16.28310394 0.25098039 0.27450980 0.65882353
v -0.16286701 -0.09329183 -16.28535271 0.25098039 0.27450980 0.65882353
v -0.16106263 -0.08462830 -16.28042030 0.25098039 0.27450980 0.65882353
v -0.16127339 -0.08879891 -16.28483200 0.25098039 0.27450980 0.65882353
v -0.16309860 -0.09125578 -16.28695869 0.25098039 0.27450980 0.65882353
v -0.16265717 -0.08213273 -16.28216934 0.25098039 0.27450980 0.65882353
v -0.16287480 -0.08670565 -16.28575134 0.25098039 0.27450980 0.65882353
v -0.16326813 -0.07765791 -16.27707291 0.25098039 0.27450980 0.65882353
v -0.16144031 -0.08019266 -16.27538490 0.25098039 0.27450980 0.65882353
v -0.16386701 -0.08946945 -16.28697777 0.25098039 0.27450980 0.65882353
v -0.16603234 -0.09556974 -16.28362656 0.25098039 0.27450980 0.65882353
v -0.16598701 -0.09401654 -16.28629684 0.25098039 0.27450980 0.65882353
v -0.16644022 -0.09524950 -16.28216743 0.25098039 0.27450980 0.65882353
v -0.17295508 -0.08874319 -16.27910233 0.25098039 0.27450980 0.65882353
v -0.17170310 -0.09194714 -16.28298759 0.25098039 0.27450980 0.65882353
v -0.17377821 -0.08684576 -16.28065109 0.25098039 0.27450980 0.65882353
v -0.17176495 -0.09051815 -16.28472519 0.25098039 0.27450980 0.65882353
v -0.16951750 -0.09442306 -16.28453445 0.25098039 0.27450980 0.65882353
v -0.16902892 -0.09431839 -16.28258896 0.25098039 0.27450980 0.65882353
v -0.16316348 -0.07667688 -16.27516556 0.25098039 0.27450980 0.65882353
v -0.16705298 -0.07544202 -16.27611542 0.25098039 0.27450980 0.65882353
v -0.16729486 -0.07666780 -16.27811623 0.25098039 0.27450980 0.65882353
v -0.16629758 -0.08096358 -16.28326988 0.25098039 0.27450980 0.65882353
v -0.17157990 -0.07741047 -16.27825928 0.25098039 0.27450980 0.65882353
v -0.17414969 -0.08002223 -16.27724838 0.25098039 0.27450980 0.65882353
v -0.17290874 -0.08458208 -16.28215218 0.25098039 0.27450980 0.65882353
v -0.17059252 -0.08236356 -16.28344154 0.25098039 0.27450980 0.65882353
v -0.17082861 -0.08898269 -16.28615570 0.25098039 0.27450980 0.65882353
v -0.16889110 -0.08666216 -16.28689957 0.25098039 0.27450980 0.65882353
v -0.16577101 -0.08558117 -16.28684235 0.25098039 0.27450980 0.65882353
v -0.16818246 -0.09152326 -16.28733826 0.25098039 0.27450980 0.65882353
v -0.16896212 -0.09316814 -16.28654671 0.25098039 0.27450980 0.65882353
v -0.16589972 -0.09197995 -16.28738022 0.25098039 0.27450980 0.65882353
v -0.16737294 -0.08967364 -16.28775024 0.25098039 0.27450980 0.65882353
v -0.16572864 -0.08947386 -16.28758812 0.25098039 0.27450980 0.65882353
v -0.17484821 -0.04056954 -16.26212502 0.25098039 0.27450980 0.65882353
v -0.09550317 -0.00837218 -16.32781601 0.25098039 0.27450980 0.65882353
v -0.09779099 -0.01182530 -16.32370377 0.25098039 0.27450980 0.65882353
v -0.11145449 -0.01765215 -16.33094788 0.25098039 0.27450980 0.65882353
v -0.10721453 -0.01852833 -16.32540703 0.25098039 0.27450980 0.65882353
v -0.11195292 -0.01488959 -16.33693886 0.25098039 0.27450980 0.65882353
v -0.10563481 -0.00706422 -16.34064484 0.25098039 0.27450980 0.65882353
v -0.11013566 -0.01017330 -16.33970261 0.25098039 0.27450980 0.65882353
v -0.10223866 -0.01624858 -16.32288933 0.25098039 0.27450980 0.65882353
v -0.09571519 -0.00532499 -16.33282661 0.25098039 0.27450980 0.65882353
v -0.09994623 -0.00428184 -16.33833885 0.25098039 0.27450980 0.65882353
v -0.09139185 -0.01159308 -16.33573532 0.25098039 0.27450980 0.65882353
v -0.09583175 -0.01099597 -16.34182549 0.25098039 0.27450980 0.65882353
v -0.10144372 -0.01396070 -16.34473419 0.25098039 0.27450980 0.65882353
v -0.10705487 -0.01683292 -16.34296036 0.25098039 0.27450980 0.65882353
v -0.10959867 -0.01976076 -16.34003067 0.25098039 0.27450980 0.65882353
v -0.09300475 -0.01433117 -16.32952118 0.25098039 0.27450980 0.65882353
v -0.09587918 -0.01754480 -16.32563019 0.25098039 0.27450980 0.65882353
v -0.10158253 -0.02076946 -16.32486343 0.25098039 0.27450980 0.65882353
v -0.09078087 -0.02224937 -16.33040428 0.25098039 0.27450980 0.65882353
v -0.08804210 -0.02881210 -16.33780289 0.25098039 0.27450980 0.65882353
v -0.09431674 -0.04095185 -16.35049248 0.25098039 0.27450980 0.65882353
v -0.09747861 -0.03515239 -16.34903336 0.25098039 0.27450980 0.65882353
v -0.09454942 -0.03483883 -16.34877396 0.25098039 0.27450980 0.65882353
v -0.09179968 -0.03982684 -16.35072708 0.25098039 0.27450980 0.65882353
v -0.09707589 -0.02984033 -16.34782410 0.25098039 0.27450980 0.65882353
v -0.09502330 -0.03106936 -16.34715080 0.25098039 0.27450980 0.65882353
v -0.09143224 -0.02934607 -16.34381104 0.25098039 0.27450980 0.65882353
v -0.08888334 -0.03375396 -16.34588051 0.25098039 0.27450980 0.65882353
v -0.08855788 -0.03062540 -16.33991814 0.25098039 0.27450980 0.65882353
v -0.08696598 -0.03423892 -16.33992386 0.25098039 0.27450980 0.65882353
v -0.08657441 -0.03838855 -16.34738541 0.25098039 0.27450980 0.65882353
v -0.08847569 -0.04224919 -16.35124207 0.25098039 0.27450980 0.65882353
v -0.08484685 -0.04268355 -16.34850502 0.25098039 0.27450980 0.65882353
v -0.09043446 -0.04467365 -16.35040474 0.25098039 0.27450980 0.65882353
v -0.09042035 -0.02739988 -16.34470749 0.25098039 0.27450980 0.65882353
v -0.10328950 -0.02613219 -16.34636497 0.25098039 0.27450980 0.65882353
v -0.10116145 -0.03482035 -16.34742546 0.25098039 0.27450980 0.65882353
v -0.09736496 -0.04184916 -16.34823418 0.25098039 0.27450980 0.65882353
v -0.09244914 -0.04594747 -16.34809875 0.25098039 0.27450980 0.65882353
v -0.10383281 -0.03555358 -16.34369659 0.25098039 0.27450980 0.65882353
v -0.09946114 -0.04179555 -16.34408188 0.25098039 0.27450980 0.65882353
v -0.09472045 -0.04530408 -16.34337616 0.25098039 0.27450980 0.65882353
v -0.10405970 -0.03621158 -16.33889008 0.25098039 0.27450980 0.65882353
v -0.09936595 -0.04156433 -16.34005356 0.25098039 0.27450980 0.65882353
v -0.10855806 -0.02451118 -16.33547211 0.25098039 0.27450980 0.65882353
v -0.10789308 -0.02478764 -16.34188271 0.25098039 0.27450980 0.65882353
v -0.09572494 -0.04406294 -16.34086227 0.25098039 0.27450980 0.65882353
v -0.08477962 -0.04535633 -16.34787750 0.25098039 0.27450980 0.65882353
v -0.08720103 -0.04679171 -16.34499359 0.25098039 0.27450980 0.65882353
v -0.08673641 -0.03389582 -16.33630943 0.25098039 0.27450980 0.65882353
v -0.08407965 -0.03835441 -16.34153557 0.25098039 0.27450980 0.65882353
v -0.08471450 -0.03922531 -16.33837700 0.25098039 0.27450980 0.65882353
v -0.08832465 -0.03329213 -16.33245850 0.25098039 0.27450980 0.65882353
v -0.08595340 -0.04006050 -16.33566475 0.25098039 0.27450980 0.65882353
v -0.08330844 -0.04322657 -16.34228325 0.25098039 0.27450980 0.65882353
v -0.08331652 -0.04119867 -16.34444046 0.25098039 0.27450980 0.65882353
v -0.11002581 -0.02113363 -16.33401299 0.25098039 0.27450980 0.65882353
v -0.10695933 -0.02123517 -16.32810593 0.25098039 0.27450980 0.65882353
v -0.10526986 -0.02426811 -16.32949257 0.25098039 0.27450980 0.65882353
v -0.10127461 -0.03532581 -16.33310509 0.25098039 0.27450980 0.65882353
v -0.10007438 -0.02462335 -16.32619286 0.25098039 0.27450980 0.65882353
v -0.09419027 -0.02352593 -16.32719994 0.25098039 0.27450980 0.65882353
v -0.09134781 -0.03403054 -16.33001709 0.25098039 0.27450980 0.65882353
v -0.09622452 -0.03472898 -16.32979393 0.25098039 0.27450980 0.65882353
v -0.08933565 -0.04082732 -16.33404922 0.25098039 0.27450980 0.65882353
v -0.09251550 -0.04103727 -16.33404541 0.25098039 0.27450980 0.65882353
v -0.09686100 -0.04179687 -16.33642387 0.25098039 0.27450980 0.65882353
v -0.08862551 -0.04436501 -16.33790398 0.25098039 0.27450980 0.65882353
v -0.08523574 -0.04428132 -16.33957481 0.25098039 0.27450980 0.65882353
v -0.09054957 -0.04611375 -16.34136963 0.25098039 0.27450980 0.65882353
v -0.09130934 -0.04340680 -16.33693314 0.25098039 0.27450980 0.65882353
v -0.09322618 -0.04433185 -16.33909798 0.25098039 0.27450980 0.65882353
v -0.17054540 -0.03388580 -16.27085686 0.25098039 0.27450980 0.65882353
v -0.16418463 -0.03488651 -16.27270699 0.25098039 0.27450980 0.65882353
v -0.16793746 -0.03004641 -16.27442551 0.25098039 0.27450980 0.65882353
v -0.17140266 -0.02221483 -16.27771950 0.25098039 0.27450980 0.65882353
v -0.17895570 -0.01432202 -16.27795982 0.25098039 0.27450980 0.65882353
v -0.16485408 -0.02130114 -16.27915192 0.25098039 0.27450980 0.65882353
v -0.16163188 -0.02945024 -16.27521706 0.25098039 0.27450980 0.65882353
v -0.15665932 -0.03701270 -16.27166557 0.25098039 0.27450980 0.65882353
v -0.16069052 -0.01281997 -16.28286552 0.25098039 0.27450980 0.65882353
f 2 3 1
f 1 3 4
f 5 6 8
f 8 6 7
f 9 4 10
f 10 4 3
f 12 13 11
f 11 13 9
f 14 12 16
f 16 12 15
f 18 19 17
f 17 19 20
f 22 23 21
f 21 23 24
f 26 27 25
f 25 27 28
f 30 31 29
f 29 31 32
f 33 34 36
f 36 34 35
f 37 38 40
f 40 38 39
f 41 42 6
f 6 42 43
f 6 43 7
f 7 43 44
f 45 34 46
f 46 34 33
f 48 49 47
f 47 49 50
f 52 53 51
f 51 53 54
f 56 52 55
f 55 52 51
f 58 59 57
f 57 59 60
f 61 62 4
f 4 62 1
f 64 65 63
f 63 65 66
f 68 69 67
f 67 69 70
f 72 73 71
f 71 73 74
f 76 77 75
f 75 77 78
f 53 79 54
f 54 79 80
f 82 83 81
f 81 83 84
f 85 86 52
f 52 86 53
f 57 60 87
f 87 60 88
f 89 90 43
f 43 90 44
f 43 42 89
f 89 42 91
f 40 39 92
f 92 39 93
f 94 70 64
f 64 70 69
f 13 61 9
f 9 61 4
f 25 28 69
f 69 28 95
f 96 25 68
f 68 25 69
f 98 99 97
f 97 99 100
f 101 102 104
f 104 102 103
f 106 30 105
f 105 30 29
f 51 54 107
f 107 54 108
f 54 80 108
f 108 80 109
f 111 112 110
f 110 112 113
f 115 5 114
f 114 5 116
f 115 41 5
f 5 41 6
f 36 35 111
f 111 35 117
f 35 118 117
f 117 118 119
f 34 120 35
f 35 120 118
f 34 45 120
f 120 45 121
f 125 126 124
f 124 126 127
f 128 129 14
f 14 129 130
f 33 131 46
f 46 131 132
f 133 94 63
f 63 94 64
f 134 135 137
f 137 135 136
f 139 140 138
f 138 140 141
f 77 142 78
f 78 142 143
f 144 145 20
f 20 145 146
f 148 149 147
f 147 149 72
f 151 152 150
f 150 152 153
f 82 101 83
f 83 101 104
f 101 82 155
f 155 82 154
f 156 157 58
f 58 157 59
f 158 68 147
f 147 68 67
f 159 146 15
f 15 146 16
f 68 158 96
f 96 158 160
f 129 66 130
f 130 66 65
f 162 163 161
f 161 163 164
f 166 167 165
f 165 167 168
f 170 171 169
f 169 171 172
f 174 171 173
f 173 171 170
f 176 177 175
f 175 177 178
f 180 181 179
f 179 181 24
f 182 183 21
f 21 183 184
f 81 185 82
f 82 185 154
f 186 187 188
f 188 187 144
f 158 71 160
f 160 71 189
f 190 135 157
f 157 135 59
f 169 172 139
f 139 172 140
f 147 72 158
f 158 72 71
f 192 193 191
f 191 193 194
f 167 166 49
f 49 166 195
f 196 190 50
f 50 190 157
f 197 198 200
f 200 198 199
f 21 24 182
f 182 24 181
f 146 159 20
f 20 159 17
f 182 181 81
f 81 181 185
f 201 185 180
f 180 185 181
f 202 203 83
f 83 203 84
f 205 206 204
f 204 206 85
f 207 22 184
f 184 22 21
f 179 24 208
f 208 24 23
f 208 209 179
f 179 209 205
f 209 210 205
f 205 210 206
f 212 206 211
f 211 206 210
f 179 205 180
f 180 205 204
f 213 176 88
f 88 176 214
f 86 85 212
f 212 85 206
f 193 217 218
f 217 219 218
f 218 219 220
f 219 18 220
f 220 18 17
f 19 221 20
f 20 221 144
f 222 223 225
f 225 223 224
f 175 226 176
f 176 226 214
f 227 87 214
f 214 87 88
f 220 17 228
f 228 17 159
f 134 213 60
f 60 213 88
f 138 229 151
f 151 229 152
f 193 192 210
f 210 192 211
f 230 194 218
f 218 194 193
f 231 232 228
f 228 232 230
f 233 234 91
f 91 234 89
f 235 236 93
f 93 236 92
f 230 232 234
f 234 232 237
f 47 238 48
f 48 238 239
f 240 191 235
f 235 191 236
f 5 8 116
f 116 8 241
f 242 243 189
f 189 243 160
f 244 245 98
f 98 245 99
f 156 246 47
f 47 246 238
f 76 247 77
f 77 247 248
f 250 125 249
f 249 125 124
f 252 253 251
f 251 253 254
f 111 110 36
f 36 110 255
f 256 33 255
f 255 33 36
f 257 258 154
f 154 258 155
f 63 169 133
f 133 169 139
f 66 170 63
f 63 170 169
f 173 170 129
f 129 170 66
f 129 128 173
f 173 128 259
f 128 260 259
f 259 260 261
f 213 134 262
f 262 134 137
f 263 264 186
f 186 264 187
f 112 265 113
f 113 265 266
f 11 267 268
f 234 233 230
f 230 233 194
f 153 269 70
f 70 269 67
f 175 178 165
f 165 178 141
f 150 153 94
f 94 153 70
f 271 221 270
f 270 221 207
f 269 153 272
f 272 153 152
f 121 45 109
f 109 45 108
f 47 50 156
f 156 50 157
f 57 273 58
f 58 273 274
f 145 275 260
f 260 275 261
f 276 149 143
f 143 149 78
f 148 269 75
f 75 269 272
f 207 277 270
f 270 277 278
f 195 196 49
f 49 196 50
f 59 135 60
f 60 135 134
f 83 104 202
f 202 104 279
f 149 148 78
f 78 148 75
f 247 278 248
f 248 278 277
f 183 182 84
f 84 182 81
f 48 239 281
f 281 239 282
f 227 223 283
f 283 223 222
f 223 226 224
f 224 226 168
f 281 282 224
f 224 282 225
f 165 168 175
f 175 168 226
f 264 263 138
f 138 263 229
f 14 16 128
f 128 16 260
f 220 228 218
f 218 228 230
f 87 227 284
f 284 227 283
f 260 16 145
f 145 16 146
f 244 98 258
f 258 98 155
f 58 274 156
f 156 274 246
f 107 285 51
f 51 285 55
f 243 286 160
f 160 286 96
f 234 237 89
f 89 237 90
f 46 132 107
f 107 132 285
f 253 252 249
f 249 252 250
f 286 26 96
f 96 26 25
f 106 105 287
f 287 105 288
f 272 152 289
f 289 152 229
f 138 151 139
f 139 151 133
f 183 290 161
f 161 290 162
f 291 292 277
f 277 292 293
f 151 150 133
f 133 150 94
f 262 275 177
f 177 275 187
f 144 187 145
f 145 187 275
f 273 57 284
f 284 57 87
f 174 136 190
f 190 136 135
f 111 117 112
f 112 117 38
f 117 119 38
f 38 119 123
f 112 38 265
f 265 38 37
f 287 288 254
f 254 288 251
f 228 159 231
f 231 159 15
f 223 227 226
f 226 227 214
f 147 67 148
f 148 67 269
f 224 168 281
f 281 168 167
f 199 163 200
f 200 163 162
f 45 46 108
f 108 46 107
f 281 167 48
f 48 167 49
f 161 164 291
f 291 164 292
f 38 123 39
f 293 294 277
f 277 294 248
f 284 283 296
f 296 283 295
f 284 296 273
f 273 296 297
f 274 273 298
f 298 273 297
f 246 274 299
f 299 274 298
f 283 222 295
f 295 222 300
f 222 225 300
f 300 225 301
f 301 225 302
f 302 225 282
f 303 304 300
f 300 304 295
f 306 307 305
f 305 307 308
f 309 310 308
f 308 310 305
f 308 307 312
f 312 307 311
f 313 314 312
f 312 314 315
f 311 316 312
f 312 316 313
f 317 304 311
f 311 304 316
f 315 309 312
f 312 309 308
f 318 319 321
f 321 319 320
f 319 318 309
f 309 318 310
f 311 307 317
f 317 307 306
f 306 297 317
f 317 297 296
f 306 322 297
f 297 322 298
f 305 323 306
f 306 323 322
f 323 305 324
f 324 305 310
f 304 317 295
f 295 317 296
f 318 325 310
f 310 325 324
f 323 324 326
f 326 324 327
f 324 325 327
f 327 325 328
f 326 327 329
f 329 327 330
f 329 331 326
f 326 331 332
f 333 330 328
f 328 330 327
f 323 326 322
f 322 326 332
f 322 332 298
f 298 332 299
f 325 318 334
f 334 318 321
f 313 316 335
f 335 316 304
f 335 336 313
f 313 336 314
f 304 303 335
f 335 303 337
f 336 335 338
f 338 335 337
f 336 339 314
f 314 339 340
f 246 299 238
f 238 299 341
f 239 342 282
f 282 342 302
f 342 239 341
f 341 239 238
f 341 331 342
f 342 331 343
f 331 329 343
f 343 329 344
f 342 343 302
f 302 343 345
f 341 299 331
f 331 299 332
f 346 301 345
f 345 301 302
f 346 303 301
f 301 303 300
f 347 337 346
f 346 337 303
f 347 346 348
f 348 346 345
f 349 347 350
f 350 347 348
f 343 344 345
f 345 344 348
f 344 351 348
f 348 351 350
f 337 347 338
f 338 347 349
f 353 338 352
f 352 338 349
f 352 355 354
f 354 355 356
f 352 349 355
f 355 349 350
f 352 354 353
f 353 354 334
f 353 334 339
f 339 334 321
f 339 336 353
f 353 336 338
f 329 330 344
f 344 330 351
f 356 351 333
f 333 351 330
f 356 355 351
f 351 355 350
f 354 356 328
f 328 356 333
f 328 325 354
f 354 325 334
f 309 315 319
f 319 315 320
f 320 340 321
f 321 340 339
f 320 315 340
f 340 315 314
f 137 136 261
f 261 136 259
f 140 166 141
f 141 166 165
f 172 171 195
f 195 171 196
f 171 174 196
f 196 174 190
f 178 177 264
f 264 177 187
f 172 195 140
f 140 195 166
f 137 261 262
f 262 261 275
f 178 264 141
f 141 264 138
f 262 177 213
f 213 177 176
f 136 174 259
f 259 174 173
f 358 359 357
f 357 359 360
f 362 363 361
f 361 363 364
f 361 364 365
f 365 364 366
f 367 368 370
f 370 368 369
f 76 371 247
f 247 371 372
f 373 374 362
f 362 374 363
f 376 377 375
f 375 377 378
f 289 229 380
f 380 229 379
f 381 379 263
f 263 379 229
f 383 384 382
f 382 384 385
f 386 368 374
f 374 368 363
f 76 289 371
f 371 289 380
f 377 376 359
f 359 376 387
f 388 386 360
f 360 386 374
f 389 383 366
f 366 383 390
f 392 393 391
f 391 393 394
f 383 382 390
f 390 382 395
f 396 365 390
f 390 365 366
f 389 366 367
f 367 366 364
f 357 397 358
f 358 397 398
f 373 399 357
f 357 399 397
f 389 367 400
f 400 367 370
f 382 385 375
f 375 385 372
f 357 360 373
f 373 360 374
f 361 401 362
f 362 401 402
f 387 388 359
f 359 388 360
f 363 368 364
f 364 368 367
f 358 398 403
f 403 398 404
f 396 392 405
f 405 392 391
f 392 395 393
f 393 395 378
f 393 403 394
f 394 403 404
f 375 378 382
f 382 378 395
f 365 396 406
f 406 396 405
f 362 402 373
f 373 402 399
f 271 270 400
f 400 270 384
f 401 361 406
f 406 361 365
f 381 369 386
f 386 369 368
f 392 396 395
f 395 396 390
f 393 378 403
f 403 378 377
f 403 377 358
f 358 377 359
f 406 405 408
f 408 405 407
f 406 408 401
f 401 408 409
f 401 409 402
f 402 409 410
f 402 410 399
f 399 410 411
f 405 391 407
f 407 391 412
f 391 394 412
f 412 394 413
f 394 404 413
f 413 404 414
f 415 416 412
f 412 416 407
f 418 419 417
f 417 419 420
f 421 422 418
f 418 422 419
f 419 422 424
f 424 422 423
f 425 426 424
f 424 426 427
f 423 428 424
f 424 428 425
f 427 420 424
f 424 420 419
f 420 429 417
f 417 429 430
f 423 422 431
f 431 422 421
f 421 409 431
f 431 409 408
f 421 432 409
f 409 432 410
f 418 433 421
f 421 433 432
f 434 433 417
f 417 433 418
f 431 416 423
f 423 416 428
f 416 431 407
f 407 431 408
f 435 434 430
f 430 434 417
f 433 434 436
f 436 434 437
f 434 435 437
f 437 435 438
f 436 437 439
f 439 437 440
f 439 441 436
f 436 441 442
f 438 443 437
f 437 443 440
f 436 442 433
f 433 442 432
f 432 442 410
f 410 442 411
f 435 430 445
f 445 430 444
f 430 429 444
f 444 429 446
f 425 428 447
f 447 428 416
f 426 425 448
f 448 425 447
f 416 415 447
f 447 415 449
f 447 449 448
f 448 449 450
f 451 452 448
f 448 452 426
f 446 452 444
f 444 452 451
f 399 411 397
f 397 411 453
f 398 454 404
f 404 454 414
f 454 398 453
f 453 398 397
f 453 441 454
f 454 441 455
f 441 439 455
f 455 439 456
f 454 455 414
f 414 455 457
f 441 453 442
f 442 453 411
f 458 413 457
f 457 413 414
f 458 415 413
f 413 415 412
f 458 459 415
f 415 459 449
f 459 458 460
f 460 458 457
f 461 459 462
f 462 459 460
f 455 456 457
f 457 456 460
f 456 463 460
f 460 463 462
f 459 461 449
f 449 461 450
f 465 450 464
f 464 450 461
f 464 467 466
f 466 467 468
f 464 461 467
f 467 461 462
f 464 466 465
f 465 466 445
f 465 445 451
f 451 445 444
f 451 448 465
f 465 448 450
f 439 440 456
f 456 440 463
f 468 463 443
f 443 463 440
f 468 467 463
f 463 467 462
f 466 468 438
f 438 468 443
f 438 435 466
f 466 435 445
f 420 427 429
f 429 427 446
f 446 427 452
f 452 427 426
f 370 369 188
f 188 369 186
f 371 376 372
f 372 376 375
f 380 379 387
f 387 379 388
f 379 381 388
f 388 381 386
f 385 384 278
f 278 384 270
f 380 387 371
f 371 387 376
f 400 370 271
f 271 370 188
f 385 278 372
f 372 278 247
f 400 384 389
f 389 384 383
f 369 381 186
f 186 381 263
f 221 271 144
f 144 271 188
f 221 19 207
f 207 19 22
f 19 18 22
f 22 18 23
f 18 219 23
f 23 219 208
f 469 470 472
f 472 470 471
f 474 475 473
f 473 475 476
f 473 476 477
f 477 476 478
f 480 481 479
f 479 481 482
f 483 484 474
f 474 484 475
f 486 487 485
f 485 487 488
f 489 490 77
f 77 490 142
f 491 489 248
f 248 489 77
f 493 494 492
f 492 494 495
f 496 480 484
f 484 480 475
f 486 497 487
f 487 497 471
f 498 496 472
f 472 496 484
f 499 493 478
f 478 493 500
f 501 502 504
f 504 502 503
f 493 492 500
f 500 492 505
f 506 477 500
f 500 477 478
f 499 478 479
f 479 478 476
f 469 507 470
f 470 507 508
f 483 509 469
f 469 509 507
f 479 482 499
f 499 482 510
f 492 495 485
f 485 495 511
f 483 469 484
f 484 469 472
f 473 512 474
f 474 512 513
f 497 498 471
f 471 498 472
f 475 480 476
f 476 480 479
f 470 508 514
f 514 508 515
f 506 502 516
f 516 502 501
f 503 502 488
f 488 502 505
f 514 515 503
f 503 515 504
f 485 488 492
f 492 488 505
f 477 506 517
f 517 506 516
f 474 513 483
f 483 513 509
f 510 292 494
f 494 292 164
f 512 473 517
f 517 473 477
f 491 481 496
f 496 481 480
f 502 506 505
f 505 506 500
f 503 488 514
f 514 488 487
f 514 487 470
f 470 487 471
f 517 516 519
f 519 516 518
f 517 519 512
f 512 519 520
f 512 520 513
f 513 520 521
f 513 521 509
f 509 521 522
f 516 501 518
f 518 501 523
f 501 504 523
f 523 504 524
f 524 504 525
f 525 504 515
f 526 527 523
f 523 527 518
f 529 530 528
f 528 530 531
f 532 533 529
f 529 533 530
f 530 533 535
f 535 533 534
f 536 537 535
f 535 537 538
f 534 539 535
f 535 539 536
f 538 531 535
f 535 531 530
f 540 541 531
f 531 541 528
f 533 532 534
f 534 532 542
f 532 520 542
f 542 520 519
f 532 543 520
f 520 543 521
f 529 544 532
f 532 544 543
f 544 529 545
f 545 529 528
f 534 542 539
f 539 542 527
f 527 542 518
f 518 542 519
f 541 546 528
f 528 546 545
f 547 544 548
f 548 544 545
f 546 549 545
f 545 549 548
f 550 547 551
f 551 547 548
f 547 550 553
f 553 550 552
f 549 554 548
f 548 554 551
f 544 547 543
f 543 547 553
f 543 553 521
f 521 553 522
f 546 541 556
f 556 541 555
f 541 540 555
f 555 540 557
f 536 539 558
f 558 539 527
f 537 536 559
f 559 536 558
f 527 526 558
f 558 526 560
f 559 558 561
f 561 558 560
f 559 562 537
f 537 562 563
f 557 563 555
f 555 563 562
f 509 522 507
f 507 522 564
f 508 565 515
f 515 565 525
f 565 508 564
f 564 508 507
f 564 552 565
f 565 552 566
f 552 550 566
f 566 550 567
f 565 566 525
f 525 566 568
f 564 522 552
f 552 522 553
f 569 524 568
f 568 524 525
f 569 526 524
f 524 526 523
f 570 560 569
f 569 560 526
f 570 569 571
f 571 569 568
f 572 570 573
f 573 570 571
f 566 567 568
f 568 567 571
f 567 574 571
f 571 574 573
f 570 572 560
f 560 572 561
f 576 561 575
f 575 561 572
f 575 578 577
f 577 578 579
f 575 572 578
f 578 572 573
f 575 577 576
f 576 577 556
f 576 556 562
f 562 556 555
f 562 559 576
f 576 559 561
f 550 551 567
f 567 551 574
f 579 574 554
f 554 574 551
f 579 578 574
f 574 578 573
f 579 554 577
f 577 554 549
f 549 546 577
f 577 546 556
f 531 538 540
f 540 538 557
f 557 538 563
f 563 538 537
f 481 294 482
f 482 294 293
f 580 486 511
f 511 486 485
f 490 489 497
f 497 489 498
f 489 491 498
f 498 491 496
f 163 495 164
f 164 495 494
f 580 490 486
f 486 490 497
f 482 293 510
f 510 293 292
f 495 163 511
f 511 163 199
f 494 493 510
f 510 493 499
f 481 491 294
f 294 491 248
f 582 583 581
f 581 583 584
f 586 587 585
f 585 587 588
f 585 588 589
f 589 588 590
f 592 593 591
f 591 593 594
f 595 596 598
f 598 596 597
f 599 600 586
f 586 600 587
f 601 602 604
f 604 602 603
f 605 606 608
f 608 606 607
f 609 607 200
f 200 607 606
f 610 611 613
f 613 611 612
f 600 614 587
f 587 614 592
f 596 605 597
f 597 605 608
f 602 615 603
f 603 615 583
f 616 614 584
f 584 614 600
f 611 618 617
f 617 618 590
f 620 621 619
f 619 621 622
f 610 623 611
f 611 623 618
f 624 589 618
f 618 589 590
f 617 590 591
f 591 590 588
f 581 625 582
f 582 625 626
f 599 627 581
f 581 627 625
f 591 594 617
f 617 594 628
f 601 610 598
f 598 610 613
f 581 584 599
f 599 584 600
f 585 629 586
f 586 629 630
f 615 616 583
f 583 616 584
f 587 592 588
f 588 592 591
f 582 626 631
f 631 626 632
f 624 620 633
f 633 620 619
f 621 620 604
f 604 620 623
f 631 632 621
f 621 632 622
f 610 601 623
f 623 601 604
f 589 624 634
f 634 624 633
f 586 630 599
f 599 630 627
f 203 202 628
f 628 202 612
f 629 585 634
f 634 585 589
f 609 593 614
f 614 593 592
f 620 624 623
f 623 624 618
f 631 621 603
f 603 621 604
f 582 631 583
f 583 631 603
f 634 633 636
f 636 633 635
f 634 636 629
f 629 636 637
f 629 637 630
f 630 637 638
f 630 638 627
f 627 638 639
f 633 619 635
f 635 619 640
f 619 622 640
f 640 622 641
f 641 622 642
f 642 622 632
f 644 635 643
f 643 635 640
f 645 646 648
f 648 646 647
f 649 650 646
f 646 650 647
f 647 650 652
f 652 650 651
f 652 653 655
f 655 653 654
f 651 656 652
f 652 656 653
f 655 648 652
f 652 648 647
f 648 657 645
f 645 657 658
f 650 649 651
f 651 649 659
f 649 637 659
f 659 637 636
f 649 660 637
f 637 660 638
f 661 660 646
f 646 660 649
f 662 661 645
f 645 661 646
f 651 659 656
f 656 659 644
f 644 659 635
f 635 659 636
f 663 662 658
f 658 662 645
f 664 661 665
f 665 661 662
f 663 666 662
f 662 666 665
f 667 664 668
f 668 664 665
f 664 667 670
f 670 667 669
f 666 671 665
f 665 671 668
f 661 664 660
f 660 664 670
f 660 670 638
f 638 670 639
f 658 672 663
f 663 672 673
f 658 657 672
f 672 657 674
f 653 656 675
f 675 656 644
f 653 675 654
f 654 675 676
f 675 644 677
f 677 644 643
f 676 675 678
f 678 675 677
f 679 680 676
f 676 680 654
f 674 680 672
f 672 680 679
f 627 639 625
f 625 639 681
f 626 682 632
f 632 682 642
f 681 682 625
f 625 682 626
f 669 683 681
f 681 683 682
f 667 684 669
f 669 684 683
f 682 683 642
f 642 683 685
f 681 639 669
f 669 639 670
f 686 641 685
f 685 641 642
f 641 686 640
f 640 686 643
f 686 687 643
f 643 687 677
f 687 686 688
f 688 686 685
f 689 687 690
f 690 687 688
f 683 684 685
f 685 684 688
f 684 691 688
f 688 691 690
f 687 689 677
f 677 689 678
f 693 678 692
f 692 678 689
f 692 695 694
f 694 695 696
f 692 689 695
f 695 689 690
f 692 694 693
f 693 694 673
f 693 673 679
f 679 673 672
f 679 676 693
f 693 676 678
f 684 667 691
f 691 667 668
f 696 691 671
f 671 691 668
f 696 695 691
f 691 695 690
f 694 696 666
f 666 696 671
f 666 663 694
f 694 663 673
f 648 655 657
f 657 655 674
f 674 655 680
f 680 655 654
f 593 162 594
f 594 162 290
f 598 597 601
f 601 597 602
f 615 608 616
f 616 608 607
f 607 609 616
f 616 609 614
f 697 595 613
f 613 595 598
f 597 608 602
f 602 608 615
f 594 290 628
f 628 290 203
f 628 612 617
f 617 612 611
f 593 609 162
f 162 609 200
f 105 29 698
f 698 29 699
f 268 126 701
f 701 126 700
f 126 125 700
f 700 125 702
f 252 703 250
f 250 703 704
f 32 268 705
f 705 268 701
f 288 105 706
f 706 105 698
f 29 32 699
f 699 32 705
f 707 251 706
f 706 251 288
f 250 704 125
f 125 704 702
f 703 252 707
f 707 252 251
f 706 708 707
f 707 708 709
f 707 709 703
f 703 709 710
f 703 710 704
f 704 710 711
f 704 711 702
f 702 711 712
f 706 698 708
f 708 698 713
f 698 699 713
f 713 699 714
f 699 705 714
f 714 705 715
f 717 708 716
f 716 708 713
f 719 720 718
f 718 720 721
f 722 723 719
f 719 723 720
f 724 725 723
f 723 725 720
f 724 726 725
f 725 726 727
f 728 721 725
f 725 721 720
f 721 728 729
f 729 728 730
f 729 731 721
f 721 731 718
f 724 723 732
f 732 723 722
f 722 710 732
f 732 710 709
f 722 733 710
f 710 733 711
f 719 734 722
f 722 734 733
f 734 719 735
f 735 719 718
f 724 732 726
f 726 732 717
f 717 732 708
f 708 732 709
f 731 736 718
f 718 736 735
f 737 734 738
f 738 734 735
f 736 739 735
f 735 739 738
f 740 737 741
f 741 737 738
f 737 740 743
f 743 740 742
f 739 744 738
f 738 744 741
f 734 737 733
f 733 737 743
f 733 743 711
f 711 743 712
f 736 731 746
f 746 731 745
f 731 729 745
f 745 729 730
f 727 726 747
f 747 726 717
f 748 727 749
f 749 727 747
f 747 717 750
f 750 717 716
f 749 747 751
f 751 747 750
f 749 752 748
f 748 752 753
f 730 753 745
f 745 753 752
f 728 725 748
f 748 725 727
f 730 728 753
f 753 728 748
f 700 702 754
f 754 702 712
f 705 701 715
f 715 701 755
f 754 755 700
f 700 755 701
f 742 756 754
f 754 756 755
f 740 757 742
f 742 757 756
f 755 756 715
f 715 756 758
f 754 712 742
f 742 712 743
f 759 714 758
f 758 714 715
f 714 759 713
f 713 759 716
f 759 760 716
f 716 760 750
f 760 759 761
f 761 759 758
f 762 760 763
f 763 760 761
f 756 757 758
f 758 757 761
f 757 764 761
f 761 764 763
f 760 762 750
f 750 762 751
f 766 751 765
f 765 751 762
f 767 765 769
f 769 765 768
f 765 762 768
f 768 762 763
f 765 767 766
f 766 767 746
f 766 746 752
f 752 746 745
f 752 749 766
f 766 749 751
f 757 740 764
f 764 740 741
f 769 764 744
f 744 764 741
f 769 768 764
f 764 768 763
f 767 769 739
f 739 769 744
f 739 736 767
f 767 736 746
f 219 217 208
f 208 217 209
f 209 217 210
f 210 217 193
f 198 580 199
f 199 580 511
f 76 75 289
f 289 75 272
f 277 207 291
f 291 207 184
f 290 183 203
f 203 183 84
f 490 580 142
f 142 580 198
f 142 198 143
f 143 198 197
f 149 276 72
f 72 276 73
f 104 103 279
f 279 103 770
f 770 596 279
f 279 596 595
f 605 596 771
f 771 596 770
f 771 770 772
f 772 770 103
f 772 103 773
f 773 103 102
f 155 774 101
f 101 774 102
f 773 102 97
f 97 102 774
f 775 773 100
f 100 773 97
f 773 775 772
f 772 775 776
f 772 776 771
f 771 776 777
f 200 606 197
f 197 606 777
f 189 71 778
f 778 71 74
f 97 774 98
f 98 774 155
f 183 161 184
f 184 161 291
f 777 276 197
f 197 276 143
f 777 606 771
f 771 606 605
f 613 612 697
f 697 612 202
f 595 697 279
f 279 697 202
f 73 276 776
f 776 276 777
f 776 775 73
f 73 775 74
f 100 778 775
f 775 778 74
f 778 100 189
f 189 100 99
f 245 242 99
f 99 242 189
f 131 33 256
f 28 1 95
f 95 1 62
f 27 2 28
f 28 2 1
f 265 115 266
f 266 115 114
f 95 62 69
f 69 62 64
f 62 61 64
f 64 61 65
f 61 13 65
f 65 13 130
f 13 12 130
f 130 12 14
f 31 11 32
f 32 11 268
f 15 12 31
f 31 12 11
f 31 30 15
f 15 30 231
f 30 106 231
f 231 106 232
f 287 237 106
f 106 237 232
f 254 90 287
f 287 90 237
f 253 44 254
f 254 44 90
f 253 249 44
f 44 249 7
f 267 127 268
f 268 127 126
f 10 3 241
f 241 3 116
f 3 2 116
f 116 2 114
f 2 27 114
f 114 27 266
f 27 26 266
f 266 26 113
f 26 286 113
f 113 286 110
f 286 243 110
f 110 243 255
f 243 242 255
f 255 242 256
f 242 245 256
f 256 245 131
f 245 244 131
f 131 244 132
f 265 37 115
f 115 37 41
f 41 37 42
f 42 37 40
f 92 91 40
f 40 91 42
f 236 233 92
f 92 233 91
f 191 194 236
f 236 194 233
f 258 285 244
f 244 285 132
f 257 55 258
f 258 55 285
f 257 154 201
f 201 154 185
f 56 201 204
f 204 201 180
f 55 257 56
f 56 257 201
f 204 85 56
f 56 85 52
f 86 122 53
f 53 122 79
f 212 215 86
f 86 215 122
f 211 216 212
f 212 216 215
f 192 280 211
f 211 280 216
f 191 240 192
f 192 240 280
f 249 124 7
f 7 124 8
f 124 127 8
f 8 127 241
f 127 267 241
f 241 267 10
f 10 267 9
f 9 267 11
f 93 39 235
f 235 39 240
f 39 123 240
f 240 123 280
f 123 119 280
f 280 119 216
f 119 118 216
f 216 118 215
f 118 120 215
f 215 120 122
f 120 121 122
f 122 121 79
f 121 109 79
f 79 109 80

