# https://github.com/mikedh/trimesh
v -0.10575464 0.14127764 -13.81651211 0.25098039 0.27450980 0.65882353
v -0.11381663 0.14519900 -13.82150936 0.25098039 0.27450980 0.65882353
v -0.10729125 0.14062685 -13.82966995 0.25098039 0.27450980 0.65882353
v -0.09856319 0.13716458 -13.82271862 0.25098039 0.27450980 0.65882353
v -0.12478789 0.15215194 -13.84065437 0.25098039 0.27450980 0.65882353
v -0.12368190 0.16282609 -13.84731960 0.25098039 0.27450980 0.65882353
v -0.11355701 0.15259592 -13.85398674 0.25098039 0.27450980 0.65882353
v -0.11670122 0.14511551 -13.84817600 0.25098039 0.27450980 0.65882353
v -0.09209758 0.13564938 -13.82707596 0.25098039 0.27450980 0.65882353
v -0.10218723 0.13623130 -13.83556080 0.25098039 0.27450980 0.65882353
v -0.08859298 0.13956536 -13.83003044 0.25098039 0.27450980 0.65882353
v -0.07807446 0.14251043 -13.81678486 0.25098039 0.27450980 0.65882353
v -0.08323473 0.13786316 -13.81760216 0.25098039 0.27450980 0.65882353
v -0.07299669 0.14106213 -13.80837822 0.25098039 0.27450980 0.65882353
v -0.07865958 0.15241636 -13.81310081 0.25098039 0.27450980 0.65882353
v -0.07397407 0.14507383 -13.79954338 0.25098039 0.27450980 0.65882353
v -0.09711351 0.15691765 -13.78616142 0.25098039 0.27450980 0.65882353
v -0.10829431 0.15465912 -13.77946949 0.25098039 0.27450980 0.65882353
v -0.09989128 0.14284533 -13.77398586 0.25098039 0.27450980 0.65882353
v -0.08942665 0.14597927 -13.78187656 0.25098039 0.27450980 0.65882353
v -0.11953285 0.14003643 -13.77098846 0.25098039 0.27450980 0.65882353
v -0.10829586 0.14099927 -13.77199078 0.25098039 0.27450980 0.65882353
v -0.11644000 0.15362862 -13.77673531 0.25098039 0.27450980 0.65882353
v -0.12625267 0.15230878 -13.77547264 0.25098039 0.27450980 0.65882353
v -0.12010390 0.14465216 -13.80832481 0.25098039 0.27450980 0.65882353
v -0.12808321 0.14963108 -13.81214333 0.25098039 0.27450980 0.65882353
v -0.12245242 0.14901149 -13.81386948 0.25098039 0.27450980 0.65882353
v -0.11502680 0.14477018 -13.81087208 0.25098039 0.27450980 0.65882353
v -0.08688073 0.14465493 -13.84357738 0.25098039 0.27450980 0.65882353
v -0.08615875 0.15482807 -13.83368301 0.25098039 0.27450980 0.65882353
v -0.08496524 0.14755265 -13.83051395 0.25098039 0.27450980 0.65882353
v -0.08964165 0.13996640 -13.84282017 0.25098039 0.27450980 0.65882353
v -0.15265596 0.16119534 -13.82023335 0.25098039 0.27450980 0.65882353
v -0.15688381 0.17440058 -13.82087135 0.25098039 0.27450980 0.65882353
v -0.15206909 0.17644399 -13.82336712 0.25098039 0.27450980 0.65882353
v -0.14939018 0.16401953 -13.82180214 0.25098039 0.27450980 0.65882353
v -0.13573468 0.17464079 -13.83715343 0.25098039 0.27450980 0.65882353
v -0.13915831 0.18314573 -13.83314037 0.25098039 0.27450980 0.65882353
v -0.13175267 0.19523051 -13.83325005 0.25098039 0.27450980 0.65882353
v -0.12587160 0.18820401 -13.83636379 0.25098039 0.27450980 0.65882353
v -0.12994976 0.16764808 -13.84224319 0.25098039 0.27450980 0.65882353
v -0.12244771 0.17919996 -13.84302902 0.25098039 0.27450980 0.65882353
v -0.11704881 0.17221704 -13.84860420 0.25098039 0.27450980 0.65882353
v -0.10807455 0.15978894 -13.85584354 0.25098039 0.27450980 0.65882353
v -0.16584346 0.17151757 -13.81242085 0.25098039 0.27450980 0.65882353
v -0.16476825 0.16166008 -13.81082535 0.25098039 0.27450980 0.65882353
v -0.04842570 0.10084780 -13.80069065 0.25098039 0.27450980 0.65882353
v -0.05243124 0.09756008 -13.79812431 0.25098039 0.27450980 0.65882353
v -0.05443609 0.10122314 -13.79805946 0.25098039 0.27450980 0.65882353
v -0.05017701 0.10400093 -13.80023384 0.25098039 0.27450980 0.65882353
v -0.16589344 0.17048982 -13.79250240 0.25098039 0.27450980 0.65882353
v -0.16070728 0.17542805 -13.78526020 0.25098039 0.27450980 0.65882353
v -0.16533908 0.17954791 -13.78792191 0.25098039 0.27450980 0.65882353
v -0.16875480 0.17623238 -13.79567242 0.25098039 0.27450980 0.65882353
v -0.16169868 0.16288331 -13.78804493 0.25098039 0.27450980 0.65882353
v -0.15417363 0.16926411 -13.78204346 0.25098039 0.27450980 0.65882353
v -0.03916131 0.10208619 -13.79247475 0.25098039 0.27450980 0.65882353
v -0.04066752 0.10253096 -13.79728889 0.25098039 0.27450980 0.65882353
v -0.04219209 0.10693116 -13.79549503 0.25098039 0.27450980 0.65882353
v -0.04132867 0.10687044 -13.79025936 0.25098039 0.27450980 0.65882353
v -0.09031609 0.13608775 -13.81625271 0.25098039 0.27450980 0.65882353
v -0.09890105 0.13629556 -13.81272221 0.25098039 0.27450980 0.65882353
v -0.07909383 0.12423219 -13.80623531 0.25098039 0.27450980 0.65882353
v -0.08752404 0.12957567 -13.80766010 0.25098039 0.27450980 0.65882353
v -0.08255292 0.13333178 -13.81125641 0.25098039 0.27450980 0.65882353
v -0.07557820 0.12967896 -13.80861187 0.25098039 0.27450980 0.65882353
v -0.10848032 0.12779763 -13.79740238 0.25098039 0.27450980 0.65882353
v -0.11546086 0.13628854 -13.80192089 0.25098039 0.27450980 0.65882353
v -0.10928050 0.13719033 -13.80408669 0.25098039 0.27450980 0.65882353
v -0.10066125 0.12757269 -13.80074978 0.25098039 0.27450980 0.65882353
v -0.12795031 0.13171668 -13.79793930 0.25098039 0.27450980 0.65882353
v -0.12010768 0.12399828 -13.79375744 0.25098039 0.27450980 0.65882353
v -0.12834288 0.12241326 -13.79218292 0.25098039 0.27450980 0.65882353
v -0.13281348 0.12770426 -13.79605007 0.25098039 0.27450980 0.65882353
v -0.10335951 0.11171776 -13.78617477 0.25098039 0.27450980 0.65882353
v -0.09709302 0.10813779 -13.78066826 0.25098039 0.27450980 0.65882353
v -0.09931456 0.10700901 -13.77870560 0.25098039 0.27450980 0.65882353
v -0.10631534 0.11120319 -13.78485489 0.25098039 0.27450980 0.65882353
v -0.16908219 0.18455434 -13.78943920 0.25098039 0.27450980 0.65882353
v -0.17024073 0.18220901 -13.79830170 0.25098039 0.27450980 0.65882353
v -0.13916928 0.13505746 -13.77031994 0.25098039 0.27450980 0.65882353
v -0.14867565 0.13300417 -13.77530956 0.25098039 0.27450980 0.65882353
v -0.14428575 0.12190272 -13.77078438 0.25098039 0.27450980 0.65882353
v -0.13594884 0.12701739 -13.76688862 0.25098039 0.27450980 0.65882353
v -0.15190408 0.17973094 -13.78222275 0.25098039 0.27450980 0.65882353
v -0.15767863 0.18378180 -13.78311348 0.25098039 0.27450980 0.65882353
v -0.04053530 0.09981021 -13.78711605 0.25098039 0.27450980 0.65882353
v -0.04262456 0.10446507 -13.78496170 0.25098039 0.27450980 0.65882353
v -0.10871819 0.17963493 -13.84073734 0.25098039 0.27450980 0.65882353
v -0.10044643 0.16487074 -13.85180569 0.25098039 0.27450980 0.65882353
v -0.11574043 0.18925971 -13.83311558 0.25098039 0.27450980 0.65882353
v -0.12035172 0.19579355 -13.82758713 0.25098039 0.27450980 0.65882353
v -0.12469955 0.20194969 -13.82561493 0.25098039 0.27450980 0.65882353
v -0.08948585 0.12444834 -13.80315781 0.25098039 0.27450980 0.65882353
v -0.10711914 0.13947731 -13.80925941 0.25098039 0.27450980 0.65882353
v -0.12471503 0.14340043 -13.80617428 0.25098039 0.27450980 0.65882353
v -0.15046732 0.13050780 -13.79641342 0.25098039 0.27450980 0.65882353
v -0.15657781 0.13854109 -13.80058193 0.25098039 0.27450980 0.65882353
v -0.14625970 0.13800175 -13.80439377 0.25098039 0.27450980 0.65882353
v -0.14301026 0.13120039 -13.79943466 0.25098039 0.27450980 0.65882353
v -0.15225102 0.12732035 -13.78145790 0.25098039 0.27450980 0.65882353
v -0.14900318 0.12358601 -13.78732586 0.25098039 0.27450980 0.65882353
v -0.14413834 0.11643831 -13.78422642 0.25098039 0.27450980 0.65882353
v -0.14708059 0.11902247 -13.77803230 0.25098039 0.27450980 0.65882353
v -0.08566254 0.14909700 -13.84895039 0.25098039 0.27450980 0.65882353
v -0.08741903 0.16043684 -13.83716679 0.25098039 0.27450980 0.65882353
v -0.16797990 0.16621028 -13.80161572 0.25098039 0.27450980 0.65882353
v -0.16880473 0.17290094 -13.80522251 0.25098039 0.27450980 0.65882353
v -0.16994750 0.18145439 -13.80551815 0.25098039 0.27450980 0.65882353
v -0.14002001 0.15518585 -13.81700706 0.25098039 0.27450980 0.65882353
v -0.14726545 0.16589303 -13.82297611 0.25098039 0.27450980 0.65882353
v -0.14432761 0.16586028 -13.82532787 0.25098039 0.27450980 0.65882353
v -0.13719781 0.15521085 -13.81750298 0.25098039 0.27450980 0.65882353
v -0.12437472 0.14915673 -13.82647991 0.25098039 0.27450980 0.65882353
v -0.13278873 0.15808550 -13.83272743 0.25098039 0.27450980 0.65882353
v -0.11823893 0.14347686 -13.83498478 0.25098039 0.27450980 0.65882353
v -0.14689755 0.18043289 -13.82750416 0.25098039 0.27450980 0.65882353
v -0.15568256 0.18591738 -13.82515526 0.25098039 0.27450980 0.65882353
v -0.14878657 0.18958658 -13.82888985 0.25098039 0.27450980 0.65882353
v -0.16266111 0.18348169 -13.81915283 0.25098039 0.27450980 0.65882353
v -0.16740127 0.18158433 -13.81212997 0.25098039 0.27450980 0.65882353
v -0.16206464 0.18946004 -13.78140450 0.25098039 0.27450980 0.65882353
v -0.14160819 0.19292063 -13.83138466 0.25098039 0.27450980 0.65882353
v -0.10991965 0.13995340 -13.85270119 0.25098039 0.27450980 0.65882353
v -0.10394931 0.13526368 -13.85627174 0.25098039 0.27450980 0.65882353
v -0.10128990 0.13284454 -13.84970284 0.25098039 0.27450980 0.65882353
v -0.10682093 0.13634625 -13.84571934 0.25098039 0.27450980 0.65882353
v -0.06736261 0.13687542 -13.80174351 0.25098039 0.27450980 0.65882353
v -0.07067570 0.13284454 -13.80697250 0.25098039 0.27450980 0.65882353
v -0.07697159 0.13765353 -13.81293869 0.25098039 0.27450980 0.65882353
v -0.15103467 0.15197188 -13.81410408 0.25098039 0.27450980 0.65882353
v -0.16211307 0.15238722 -13.80632496 0.25098039 0.27450980 0.65882353
v -0.08009496 0.11944187 -13.80123615 0.25098039 0.27450980 0.65882353
v -0.04461004 0.11155412 -13.78989792 0.25098039 0.27450980 0.65882353
v -0.04530357 0.11159048 -13.79558086 0.25098039 0.27450980 0.65882353
v -0.05785356 0.12571925 -13.79851341 0.25098039 0.27450980 0.65882353
v -0.05680357 0.12601675 -13.79164410 0.25098039 0.27450980 0.65882353
v -0.07412563 0.11536572 -13.79145527 0.25098039 0.27450980 0.65882353
v -0.07560663 0.11620713 -13.79819584 0.25098039 0.27450980 0.65882353
v -0.07285093 0.11514605 -13.79607296 0.25098039 0.27450980 0.65882353
v -0.07185023 0.11193774 -13.79035759 0.25098039 0.27450980 0.65882353
v -0.10831811 0.10637134 -13.77934551 0.25098039 0.27450980 0.65882353
v -0.11438887 0.11033227 -13.78411579 0.25098039 0.27450980 0.65882353
v -0.08210376 0.13209310 -13.77876472 0.25098039 0.27450980 0.65882353
v -0.07340148 0.14026186 -13.78498268 0.25098039 0.27450980 0.65882353
v -0.08034790 0.14825165 -13.78941154 0.25098039 0.27450980 0.65882353
v -0.11543155 0.12647694 -13.79532528 0.25098039 0.27450980 0.65882353
v -0.10962188 0.11829311 -13.79101562 0.25098039 0.27450980 0.65882353
v -0.11316443 0.11721250 -13.78952694 0.25098039 0.27450980 0.65882353
v -0.08916298 0.12105674 -13.79941082 0.25098039 0.27450980 0.65882353
v -0.08182685 0.11670242 -13.79612827 0.25098039 0.27450980 0.65882353
v -0.08780879 0.11730264 -13.79476547 0.25098039 0.27450980 0.65882353
v -0.09425217 0.12158510 -13.79703522 0.25098039 0.27450980 0.65882353
v -0.15399025 0.14450362 -13.77869320 0.25098039 0.27450980 0.65882353
v -0.15851182 0.13792670 -13.78559303 0.25098039 0.27450980 0.65882353
v -0.04408978 0.10233109 -13.80034065 0.25098039 0.27450980 0.65882353
v -0.04563028 0.10616618 -13.79919910 0.25098039 0.27450980 0.65882353
v -0.12195958 0.13488296 -13.79943180 0.25098039 0.27450980 0.65882353
v -0.08819517 0.15728414 -13.79504681 0.25098039 0.27450980 0.65882353
v -0.12942880 0.14174807 -13.80464268 0.25098039 0.27450980 0.65882353
v -0.11930493 0.11890116 -13.76553726 0.25098039 0.27450980 0.65882353
v -0.12184895 0.11263954 -13.76977730 0.25098039 0.27450980 0.65882353
v -0.11715791 0.10871625 -13.76798058 0.25098039 0.27450980 0.65882353
v -0.11512543 0.11242499 -13.76308537 0.25098039 0.27450980 0.65882353
v -0.06084257 0.10101605 -13.78795147 0.25098039 0.27450980 0.65882353
v -0.06084034 0.10087276 -13.79363060 0.25098039 0.27450980 0.65882353
v -0.05711839 0.09836300 -13.79309940 0.25098039 0.27450980 0.65882353
v -0.05668671 0.09770457 -13.78738213 0.25098039 0.27450980 0.65882353
v -0.07395248 0.11942071 -13.80279160 0.25098039 0.27450980 0.65882353
v -0.07073557 0.12452831 -13.80558395 0.25098039 0.27450980 0.65882353
v -0.06696619 0.11952877 -13.80366898 0.25098039 0.27450980 0.65882353
v -0.07024747 0.11655252 -13.79999352 0.25098039 0.27450980 0.65882353
v -0.06571335 0.12803194 -13.80377293 0.25098039 0.27450980 0.65882353
v -0.06196904 0.12344307 -13.80305290 0.25098039 0.27450980 0.65882353
v -0.05728208 0.10332658 -13.78301048 0.25098039 0.27450980 0.65882353
v -0.05103120 0.10708334 -13.78137589 0.25098039 0.27450980 0.65882353
v -0.06345056 0.11942090 -13.78208637 0.25098039 0.27450980 0.65882353
v -0.06738859 0.11312221 -13.78456402 0.25098039 0.27450980 0.65882353
v -0.13189572 0.16488674 -13.77913475 0.25098039 0.27450980 0.65882353
v -0.14204575 0.16157821 -13.77747345 0.25098039 0.27450980 0.65882353
v -0.13626975 0.14887972 -13.77400780 0.25098039 0.27450980 0.65882353
v -0.13087831 0.13689703 -13.76991940 0.25098039 0.27450980 0.65882353
v -0.12514056 0.12495608 -13.76679802 0.25098039 0.27450980 0.65882353
v -0.11461996 0.12971956 -13.76596165 0.25098039 0.27450980 0.65882353
v -0.14393677 0.14731969 -13.77429962 0.25098039 0.27450980 0.65882353
v -0.07755926 0.11929821 -13.78347301 0.25098039 0.27450980 0.65882353
v -0.07271761 0.12735772 -13.78243351 0.25098039 0.27450980 0.65882353
v -0.07866488 0.12533012 -13.77985668 0.25098039 0.27450980 0.65882353
v -0.13592774 0.13858044 -13.80341721 0.25098039 0.27450980 0.65882353
v -0.04857007 0.11012514 -13.79999828 0.25098039 0.27450980 0.65882353
v -0.12050717 0.19717187 -13.80391502 0.25098039 0.27450980 0.65882353
v -0.12818357 0.19489795 -13.79310417 0.25098039 0.27450980 0.65882353
v -0.12393771 0.18838604 -13.79372883 0.25098039 0.27450980 0.65882353
v -0.11529090 0.19068891 -13.80623341 0.25098039 0.27450980 0.65882353
v -0.05826810 0.10332577 -13.79937935 0.25098039 0.27450980 0.65882353
v -0.05352756 0.10677346 -13.80223465 0.25098039 0.27450980 0.65882353
v -0.11938125 0.10756697 -13.78151321 0.25098039 0.27450980 0.65882353
v -0.11352714 0.10513274 -13.77738571 0.25098039 0.27450980 0.65882353
v -0.11511223 0.10477024 -13.77356625 0.25098039 0.27450980 0.65882353
v -0.12233131 0.10437958 -13.77813053 0.25098039 0.27450980 0.65882353
v -0.14777119 0.16089568 -13.77772617 0.25098039 0.27450980 0.65882353
v -0.14237511 0.11452940 -13.76967430 0.25098039 0.27450980 0.65882353
v -0.13503405 0.11940189 -13.76528358 0.25098039 0.27450980 0.65882353
v -0.14656973 0.17286380 -13.78056717 0.25098039 0.27450980 0.65882353
v -0.13764110 0.17580727 -13.78156471 0.25098039 0.27450980 0.65882353
v -0.14191514 0.18350939 -13.78276920 0.25098039 0.27450980 0.65882353
v -0.09915854 0.12726979 -13.76817799 0.25098039 0.27450980 0.65882353
v -0.12400246 0.16532618 -13.78085518 0.25098039 0.27450980 0.65882353
v -0.13073336 0.17630355 -13.78390503 0.25098039 0.27450980 0.65882353
v -0.13552535 0.18570372 -13.78526878 0.25098039 0.27450980 0.65882353
v -0.13864918 0.19255114 -13.78516865 0.25098039 0.27450980 0.65882353
v -0.14560245 0.18899131 -13.78304100 0.25098039 0.27450980 0.65882353
v -0.04660937 0.10913359 -13.78450489 0.25098039 0.27450980 0.65882353
v -0.04699804 0.10122494 -13.78124046 0.25098039 0.27450980 0.65882353
v -0.14940418 0.19529945 -13.78146648 0.25098039 0.27450980 0.65882353
v -0.14133660 0.19852370 -13.78445911 0.25098039 0.27450980 0.65882353
v -0.12266542 0.17734346 -13.78761578 0.25098039 0.27450980 0.65882353
v -0.11399193 0.17814055 -13.79335403 0.25098039 0.27450980 0.65882353
v -0.11632615 0.16692950 -13.78369999 0.25098039 0.27450980 0.65882353
v -0.10657243 0.16721380 -13.78904247 0.25098039 0.27450980 0.65882353
v -0.09170258 0.13409206 -13.77003384 0.25098039 0.27450980 0.65882353
v -0.04466324 0.08501726 -13.78737736 0.25098039 0.27450980 0.65882353
v -0.05009031 0.09407599 -13.78384209 0.25098039 0.27450980 0.65882353
v -0.05418207 0.09362654 -13.78782654 0.25098039 0.27450980 0.65882353
v -0.04862028 0.08420381 -13.78919983 0.25098039 0.27450980 0.65882353
v -0.05320349 0.09888214 -13.78298092 0.25098039 0.27450980 0.65882353
v -0.04489823 0.09684125 -13.78330708 0.25098039 0.27450980 0.65882353
v -0.09651427 0.16754556 -13.80051041 0.25098039 0.27450980 0.65882353
v -0.08154206 0.11392467 -13.79027271 0.25098039 0.27450980 0.65882353
v -0.10428302 0.17933486 -13.80878925 0.25098039 0.27450980 0.65882353
v -0.08563170 0.16279088 -13.81577396 0.25098039 0.27450980 0.65882353
v -0.09285140 0.17036040 -13.82345963 0.25098039 0.27450980 0.65882353
v -0.11146899 0.19173102 -13.81837463 0.25098039 0.27450980 0.65882353
v -0.10225853 0.18222754 -13.82828903 0.25098039 0.27450980 0.65882353
v -0.12249372 0.20340359 -13.81512928 0.25098039 0.27450980 0.65882353
v -0.11730140 0.19727784 -13.81543541 0.25098039 0.27450980 0.65882353
v -0.09523937 0.17135704 -13.83963776 0.25098039 0.27450980 0.65882353
v -0.04669890 0.09070498 -13.80213833 0.25098039 0.27450980 0.65882353
v -0.05066760 0.08828756 -13.79879379 0.25098039 0.27450980 0.65882353
v -0.12442446 0.20350550 -13.80351067 0.25098039 0.27450980 0.65882353
v -0.11168063 0.13954839 -13.84139347 0.25098039 0.27450980 0.65882353
v -0.14075564 0.14613518 -13.80924511 0.25098039 0.27450980 0.65882353
v -0.13550021 0.14760540 -13.81045628 0.25098039 0.27450980 0.65882353
v -0.15936020 0.14402807 -13.80242348 0.25098039 0.27450980 0.65882353
v -0.14810976 0.14469263 -13.80839729 0.25098039 0.27450980 0.65882353
v -0.04165329 0.09258030 -13.80257797 0.25098039 0.27450980 0.65882353
v -0.09334095 0.10788966 -13.77471352 0.25098039 0.27450980 0.65882353
v -0.09588550 0.10934372 -13.77438831 0.25098039 0.27450980 0.65882353
v -0.10803902 0.14587711 -13.85814095 0.25098039 0.27450980 0.65882353
v -0.10353896 0.14092712 -13.86113358 0.25098039 0.27450980 0.65882353
v -0.09274840 0.14807008 -13.86132240 0.25098039 0.27450980 0.65882353
v -0.09879045 0.14518842 -13.86346531 0.25098039 0.27450980 0.65882353
v -0.10276525 0.15223394 -13.86025143 0.25098039 0.27450980 0.65882353
v -0.09660719 0.15584397 -13.85801315 0.25098039 0.27450980 0.65882353
v -0.14194673 0.15418729 -13.81676197 0.25098039 0.27450980 0.65882353
v -0.14510319 0.15288664 -13.81575489 0.25098039 0.27450980 0.65882353
v -0.15830496 0.15428376 -13.78343582 0.25098039 0.27450980 0.65882353
v -0.16207525 0.14761338 -13.79086971 0.25098039 0.27450980 0.65882353
v -0.06286666 0.13114581 -13.79887009 0.25098039 0.27450980 0.65882353
v -0.06771524 0.13873580 -13.79341507 0.25098039 0.27450980 0.65882353
v -0.06263749 0.13200082 -13.79180145 0.25098039 0.27450980 0.65882353
v -0.05988570 0.12500504 -13.78532314 0.25098039 0.27450980 0.65882353
v -0.07742311 0.11449386 -13.78611660 0.25098039 0.27450980 0.65882353
v -0.07288292 0.11769301 -13.78639603 0.25098039 0.27450980 0.65882353
v -0.13904551 0.16129704 -13.82862854 0.25098039 0.27450980 0.65882353
v -0.13113366 0.15307611 -13.81987762 0.25098039 0.27450980 0.65882353
v -0.09954706 0.13578999 -13.83996868 0.25098039 0.27450980 0.65882353
v -0.09570450 0.13434777 -13.84418297 0.25098039 0.27450980 0.65882353
v -0.10191950 0.12155076 -13.79462147 0.25098039 0.27450980 0.65882353
v -0.09032822 0.11900149 -13.76737499 0.25098039 0.27450980 0.65882353
v -0.08460473 0.12442711 -13.76911736 0.25098039 0.27450980 0.65882353
v -0.09552328 0.11552319 -13.79075813 0.25098039 0.27450980 0.65882353
v -0.03564477 0.09172476 -13.79620361 0.25098039 0.27450980 0.65882353
v -0.03818513 0.09261531 -13.80060387 0.25098039 0.27450980 0.65882353
v -0.06615157 0.13155308 -13.78536987 0.25098039 0.27450980 0.65882353
v -0.12107459 0.11467485 -13.78868580 0.25098039 0.27450980 0.65882353
v -0.09923816 0.12063973 -13.76771641 0.25098039 0.27450980 0.65882353
v -0.09237917 0.11246618 -13.76898956 0.25098039 0.27450980 0.65882353
v -0.14394131 0.11404810 -13.77727222 0.25098039 0.27450980 0.65882353
v -0.13204560 0.20150411 -13.79344654 0.25098039 0.27450980 0.65882353
v -0.05520871 0.09426038 -13.79336071 0.25098039 0.27450980 0.65882353
v -0.05215886 0.08626222 -13.79429340 0.25098039 0.27450980 0.65882353
v -0.04097277 0.08723845 -13.78734970 0.25098039 0.27450980 0.65882353
v -0.03694379 0.09049740 -13.79035091 0.25098039 0.27450980 0.65882353
v -0.16475499 0.15593496 -13.79684544 0.25098039 0.27450980 0.65882353
v -0.13231039 0.14873530 -13.81063271 0.25098039 0.27450980 0.65882353
v -0.09137769 0.16062576 -13.84888649 0.25098039 0.27450980 0.65882353
v -0.08807366 0.14975661 -13.85589314 0.25098039 0.27450980 0.65882353
v -0.09119792 0.11165734 -13.78738880 0.25098039 0.27450980 0.65882353
v -0.12668994 0.11768561 -13.76709270 0.25098039 0.27450980 0.65882353
v -0.11094448 0.12204111 -13.76308441 0.25098039 0.27450980 0.65882353
v -0.10751691 0.11547462 -13.75993919 0.25098039 0.27450980 0.65882353
v -0.10022809 0.11431988 -13.76229286 0.25098039 0.27450980 0.65882353
v -0.09562171 0.11054495 -13.76714516 0.25098039 0.27450980 0.65882353
v -0.03994974 0.08203128 -13.78975296 0.25098039 0.27450980 0.65882353
v -0.03591979 0.08544134 -13.79251862 0.25098039 0.27450980 0.65882353
v -0.03468941 0.08713095 -13.79816437 0.25098039 0.27450980 0.65882353
v -0.03691453 0.08875152 -13.80190945 0.25098039 0.27450980 0.65882353
v -0.04104312 0.08940192 -13.80332470 0.25098039 0.27450980 0.65882353
v -0.04371637 0.07973561 -13.79023552 0.25098039 0.27450980 0.65882353
v -0.04720657 0.07950515 -13.79220581 0.25098039 0.27450980 0.65882353
v -0.05085558 0.08307847 -13.79537964 0.25098039 0.27450980 0.65882353
v -0.04454629 0.07596502 -13.79374123 0.25098039 0.27450980 0.65882353
v -0.03948629 0.07480402 -13.79499340 0.25098039 0.27450980 0.65882353
v -0.03611346 0.07712822 -13.80834961 0.25098039 0.27450980 0.65882353
v -0.03466137 0.08005115 -13.80323792 0.25098039 0.27450980 0.65882353
v -0.03490070 0.07731541 -13.80345345 0.25098039 0.27450980 0.65882353
v -0.03611189 0.07417848 -13.80727386 0.25098039 0.27450980 0.65882353
v -0.03696404 0.06977023 -13.81001949 0.25098039 0.27450980 0.65882353
v -0.03699474 0.07263212 -13.81201744 0.25098039 0.27450980 0.65882353
v -0.03596410 0.07689490 -13.79889774 0.25098039 0.27450980 0.65882353
v -0.03739227 0.07195999 -13.80345249 0.25098039 0.27450980 0.65882353
v -0.04010491 0.07016114 -13.80091476 0.25098039 0.27450980 0.65882353
v -0.04037613 0.06589965 -13.80474472 0.25098039 0.27450980 0.65882353
v -0.03785375 0.06729514 -13.80697250 0.25098039 0.27450980 0.65882353
v -0.03879532 0.07353482 -13.79790974 0.25098039 0.27450980 0.65882353
v -0.03522791 0.07861169 -13.79694557 0.25098039 0.27450980 0.65882353
v -0.03826049 0.06818801 -13.81311893 0.25098039 0.27450980 0.65882353
v -0.03736986 0.06690182 -13.81121445 0.25098039 0.27450980 0.65882353
v -0.03866203 0.06503275 -13.80918407 0.25098039 0.27450980 0.65882353
v -0.04027428 0.06389137 -13.81157303 0.25098039 0.27450980 0.65882353
v -0.03713310 0.08504346 -13.80464935 0.25098039 0.27450980 0.65882353
v -0.03762025 0.07857278 -13.80991840 0.25098039 0.27450980 0.65882353
v -0.03975110 0.07366264 -13.81289101 0.25098039 0.27450980 0.65882353
v -0.04080632 0.06917217 -13.81383896 0.25098039 0.27450980 0.65882353
v -0.04160731 0.07827309 -13.81077194 0.25098039 0.27450980 0.65882353
v -0.04264373 0.07397529 -13.81264019 0.25098039 0.27450980 0.65882353
v -0.04385073 0.07012962 -13.81306648 0.25098039 0.27450980 0.65882353
v -0.04559873 0.07717599 -13.81017113 0.25098039 0.27450980 0.65882353
v -0.04557529 0.07334149 -13.81165791 0.25098039 0.27450980 0.65882353
v -0.04481922 0.08628628 -13.80392456 0.25098039 0.27450980 0.65882353
v -0.04091454 0.08763360 -13.80473709 0.25098039 0.27450980 0.65882353
v -0.04585862 0.07091834 -13.81259632 0.25098039 0.27450980 0.65882353
v -0.04245210 0.06435129 -13.81204700 0.25098039 0.27450980 0.65882353
v -0.04301085 0.07082693 -13.79877186 0.25098039 0.27450980 0.65882353
v -0.04355448 0.06628890 -13.80444050 0.25098039 0.27450980 0.65882353
v -0.04542547 0.07117373 -13.79890442 0.25098039 0.27450980 0.65882353
v -0.04594301 0.06640822 -13.80417061 0.25098039 0.27450980 0.65882353
v -0.04287255 0.06296596 -13.80766964 0.25098039 0.27450980 0.65882353
v -0.04064019 0.06417197 -13.80731010 0.25098039 0.27450980 0.65882353
v -0.04608960 0.08861654 -13.80216122 0.25098039 0.27450980 0.65882353
v -0.05008410 0.08589861 -13.79873562 0.25098039 0.27450980 0.65882353
v -0.04921745 0.08371241 -13.80032539 0.25098039 0.27450980 0.65882353
v -0.04907835 0.07539631 -13.80746460 0.25098039 0.27450980 0.65882353
v -0.05037782 0.08064272 -13.79770851 0.25098039 0.27450980 0.65882353
v -0.04789220 0.07628845 -13.79577732 0.25098039 0.27450980 0.65882353
v -0.04788581 0.07127477 -13.80069447 0.25098039 0.27450980 0.65882353
v -0.04961570 0.07270008 -13.80322266 0.25098039 0.27450980 0.65882353
v -0.04786283 0.06772047 -13.80493069 0.25098039 0.27450980 0.65882353
v -0.04852320 0.06949408 -13.80653954 0.25098039 0.27450980 0.65882353
v -0.04808828 0.07163870 -13.80966187 0.25098039 0.27450980 0.65882353
v -0.04688653 0.06591052 -13.80860233 0.25098039 0.27450980 0.65882353
v -0.04486173 0.06385376 -13.80807590 0.25098039 0.27450980 0.65882353
v -0.04506041 0.06663780 -13.81174278 0.25098039 0.27450980 0.65882353
v -0.04789007 0.06763725 -13.80868435 0.25098039 0.27450980 0.65882353
v -0.04640965 0.06888247 -13.81095314 0.25098039 0.27450980 0.65882353
v -0.06658188 0.08437900 -13.77849293 0.25098039 0.27450980 0.65882353
v -0.07160951 0.08184461 -13.77541447 0.25098039 0.27450980 0.65882353
v -0.07267651 0.08696492 -13.77507496 0.25098039 0.27450980 0.65882353
v -0.06836742 0.08861767 -13.77784824 0.25098039 0.27450980 0.65882353
v -0.05756488 0.08814809 -13.76924229 0.25098039 0.27450980 0.65882353
v -0.05921236 0.08720913 -13.77473354 0.25098039 0.27450980 0.65882353
v -0.06023730 0.09227417 -13.77373695 0.25098039 0.27450980 0.65882353
v -0.05964261 0.09338959 -13.76737022 0.25098039 0.27450980 0.65882353
v -0.06063041 0.08734515 -13.76323795 0.25098039 0.27450980 0.65882353
v -0.06300260 0.09281225 -13.76146793 0.25098039 0.27450980 0.65882353
v -0.06155074 0.09848614 -13.76759338 0.25098039 0.27450980 0.65882353
v -0.06275600 0.09723633 -13.77446079 0.25098039 0.27450980 0.65882353
v -0.07427973 0.11396728 -13.77999973 0.25098039 0.27450980 0.65882353
v -0.07339422 0.11598255 -13.77315235 0.25098039 0.27450980 0.65882353
v -0.08976439 0.10545392 -13.77867222 0.25098039 0.27450980 0.65882353
v -0.08924659 0.10524466 -13.77470684 0.25098039 0.27450980 0.65882353
v -0.06291921 0.08577636 -13.77786827 0.25098039 0.27450980 0.65882353
v -0.06411205 0.09037053 -13.77691460 0.25098039 0.27450980 0.65882353
v -0.07959400 0.08878115 -13.76885509 0.25098039 0.27450980 0.65882353
v -0.07860179 0.08880568 -13.77415848 0.25098039 0.27450980 0.65882353
v -0.07595409 0.08494093 -13.77224255 0.25098039 0.27450980 0.65882353
v -0.07621944 0.08481634 -13.76664352 0.25098039 0.27450980 0.65882353
v -0.08086905 0.11052644 -13.78473473 0.25098039 0.27450980 0.65882353
v -0.08634914 0.10835423 -13.78235531 0.25098039 0.27450980 0.65882353
v -0.07722503 0.11166327 -13.78342247 0.25098039 0.27450980 0.65882353
v -0.07767713 0.09051193 -13.76279736 0.25098039 0.27450980 0.65882353
v -0.07270011 0.09390458 -13.75931454 0.25098039 0.27450980 0.65882353
v -0.08307071 0.11087304 -13.76373386 0.25098039 0.27450980 0.65882353
v -0.08713774 0.10683037 -13.76664257 0.25098039 0.27450980 0.65882353
v -0.06586219 0.09487103 -13.77846432 0.25098039 0.27450980 0.65882353
v -0.07499240 0.09011385 -13.77800655 0.25098039 0.27450980 0.65882353
v -0.07057275 0.09213311 -13.77999783 0.25098039 0.27450980 0.65882353
v -0.06616217 0.09755294 -13.76196194 0.25098039 0.27450980 0.65882353
v -0.06902918 0.08843793 -13.75919628 0.25098039 0.27450980 0.65882353
v -0.06640835 0.06895492 -13.76445961 0.25098039 0.27450980 0.65882353
v -0.07136677 0.08042261 -13.76222038 0.25098039 0.27450980 0.65882353
v -0.07384779 0.07944315 -13.76658249 0.25098039 0.27450980 0.65882353
v -0.06962010 0.06744598 -13.76791382 0.25098039 0.27450980 0.65882353
v -0.07396068 0.08570834 -13.76165390 0.25098039 0.27450980 0.65882353
v -0.06639689 0.08347715 -13.76068497 0.25098039 0.27450980 0.65882353
v -0.06376196 0.06963977 -13.78043175 0.25098039 0.27450980 0.65882353
v -0.06878909 0.06733131 -13.77713871 0.25098039 0.27450980 0.65882353
v -0.05937025 0.07115042 -13.78049088 0.25098039 0.27450980 0.65882353
v -0.07721162 0.11511531 -13.76621819 0.25098039 0.27450980 0.65882353
v -0.05381238 0.07492735 -13.77246761 0.25098039 0.27450980 0.65882353
v -0.05608967 0.07311729 -13.77840614 0.25098039 0.27450980 0.65882353
v -0.07446566 0.08000712 -13.77157307 0.25098039 0.27450980 0.65882353
v -0.07062887 0.06647767 -13.77252293 0.25098039 0.27450980 0.65882353
v -0.06228720 0.07099161 -13.76357460 0.25098039 0.27450980 0.65882353
v -0.05668190 0.07504130 -13.76623058 0.25098039 0.27450980 0.65882353
v -0.06056131 0.06531858 -13.76538086 0.25098039 0.27450980 0.65882353
v -0.05534306 0.06821452 -13.76809788 0.25098039 0.27450980 0.65882353
v -0.05281080 0.06866643 -13.77422810 0.25098039 0.27450980 0.65882353
v -0.05562498 0.06827377 -13.77934837 0.25098039 0.27450980 0.65882353
v -0.05904521 0.06771250 -13.78113842 0.25098039 0.27450980 0.65882353
v -0.06445375 0.06345399 -13.76625156 0.25098039 0.27450980 0.65882353
v -0.06782368 0.06242773 -13.76928902 0.25098039 0.27450980 0.65882353
v -0.06942704 0.06392133 -13.77364254 0.25098039 0.27450980 0.65882353
v -0.06486274 0.05697016 -13.76996422 0.25098039 0.27450980 0.65882353
v -0.06033807 0.05684462 -13.76923084 0.25098039 0.27450980 0.65882353
v -0.05476974 0.05032852 -13.78566360 0.25098039 0.27450980 0.65882353
v -0.05397391 0.05551954 -13.78249931 0.25098039 0.27450980 0.65882353
v -0.05395623 0.05391322 -13.78037167 0.25098039 0.27450980 0.65882353
v -0.05475532 0.04913369 -13.78307724 0.25098039 0.27450980 0.65882353
v -0.05247971 0.05963278 -13.77780533 0.25098039 0.27450980 0.65882353
v -0.05324145 0.05722961 -13.77706814 0.25098039 0.27450980 0.65882353
v -0.05544628 0.05694039 -13.77296257 0.25098039 0.27450980 0.65882353
v -0.05637810 0.05186601 -13.77659321 0.25098039 0.27450980 0.65882353
v -0.06019521 0.05133159 -13.77378178 0.25098039 0.27450980 0.65882353
v -0.06021932 0.04599011 -13.77620220 0.25098039 0.27450980 0.65882353
v -0.05637236 0.04648644 -13.77904987 0.25098039 0.27450980 0.65882353
v -0.05853871 0.05485001 -13.77164364 0.25098039 0.27450980 0.65882353
v -0.05551536 0.04562965 -13.78406334 0.25098039 0.27450980 0.65882353
v -0.05654836 0.04487395 -13.78635120 0.25098039 0.27450980 0.65882353
v -0.05451030 0.05960329 -13.77116203 0.25098039 0.27450980 0.65882353
v -0.05479810 0.06439924 -13.78060913 0.25098039 0.27450980 0.65882353
v -0.05564439 0.05644563 -13.78493214 0.25098039 0.27450980 0.65882353
v -0.05716302 0.05050892 -13.78786564 0.25098039 0.27450980 0.65882353
v -0.05944069 0.04467276 -13.78740215 0.25098039 0.27450980 0.65882353
v -0.05956458 0.05623552 -13.78656769 0.25098039 0.27450980 0.65882353
v -0.06038742 0.05044773 -13.78851414 0.25098039 0.27450980 0.65882353
v -0.06200223 0.04572701 -13.78734970 0.25098039 0.27450980 0.65882353
v -0.06428868 0.05563843 -13.78663826 0.25098039 0.27450980 0.65882353
v -0.06452334 0.04989526 -13.78776169 0.25098039 0.27450980 0.65882353
v -0.06362577 0.06521051 -13.78182697 0.25098039 0.27450980 0.65882353
v -0.05897425 0.06555657 -13.78259277 0.25098039 0.27450980 0.65882353
v -0.06395923 0.04719974 -13.78719521 0.25098039 0.27450980 0.65882353
v -0.05817755 0.04155439 -13.78301620 0.25098039 0.27450980 0.65882353
v -0.06120153 0.04186216 -13.78473949 0.25098039 0.27450980 0.65882353
v -0.05733249 0.04306303 -13.78176785 0.25098039 0.27450980 0.65882353
v -0.06227025 0.05129477 -13.77324200 0.25098039 0.27450980 0.65882353
v -0.06248629 0.04579660 -13.77686405 0.25098039 0.27450980 0.65882353
v -0.06508981 0.05114473 -13.77393436 0.25098039 0.27450980 0.65882353
v -0.06470631 0.04541948 -13.77808571 0.25098039 0.27450980 0.65882353
v -0.06153497 0.04204357 -13.77975655 0.25098039 0.27450980 0.65882353
v -0.05988337 0.04248859 -13.77937031 0.25098039 0.27450980 0.65882353
v -0.06330530 0.06700009 -13.78028297 0.25098039 0.27450980 0.65882353
v -0.06786416 0.06536139 -13.77723122 0.25098039 0.27450980 0.65882353
v -0.06806840 0.06387135 -13.77860355 0.25098039 0.27450980 0.65882353
v -0.06804603 0.05419619 -13.78315735 0.25098039 0.27450980 0.65882353
v -0.06959003 0.06181470 -13.77466679 0.25098039 0.27450980 0.65882353
v -0.06778148 0.05815507 -13.77174282 0.25098039 0.27450980 0.65882353
v -0.06752563 0.05185978 -13.77523422 0.25098039 0.27450980 0.65882353
v -0.06904575 0.05261496 -13.77884960 0.25098039 0.27450980 0.65882353
v -0.06696597 0.04561785 -13.77849293 0.25098039 0.27450980 0.65882353
v -0.06823802 0.04794854 -13.78031445 0.25098039 0.27450980 0.65882353
v -0.06747192 0.04927655 -13.78495026 0.25098039 0.27450980 0.65882353
v -0.06545456 0.04230919 -13.78151321 0.25098039 0.27450980 0.65882353
v -0.06321867 0.04173887 -13.78057957 0.25098039 0.27450980 0.65882353
v -0.06309645 0.04314023 -13.78521729 0.25098039 0.27450980 0.65882353
v -0.06699474 0.04478900 -13.78232098 0.25098039 0.27450980 0.65882353
v -0.06534971 0.04555343 -13.78548908 0.25098039 0.27450980 0.65882353
v -0.08997819 0.08394767 -13.76610184 0.25098039 0.27450980 0.65882353
v -0.09561364 0.08247127 -13.76722908 0.25098039 0.27450980 0.65882353
v -0.09670235 0.08594426 -13.76730919 0.25098039 0.27450980 0.65882353
v -0.09122741 0.08747986 -13.76611137 0.25098039 0.27450980 0.65882353
v -0.08904471 0.08523102 -13.75365067 0.25098039 0.27450980 0.65882353
v -0.08650573 0.08485709 -13.75784588 0.25098039 0.27450980 0.65882353
v -0.08776835 0.08958302 -13.75777054 0.25098039 0.27450980 0.65882353
v -0.09053954 0.09135593 -13.75331211 0.25098039 0.27450980 0.65882353
v -0.09353808 0.08273069 -13.75150299 0.25098039 0.27450980 0.65882353
v -0.09594797 0.09072438 -13.75035954 0.25098039 0.27450980 0.65882353
v -0.09180827 0.09717073 -13.75379944 0.25098039 0.27450980 0.65882353
v -0.08893691 0.09415983 -13.75848484 0.25098039 0.27450980 0.65882353
v -0.09435210 0.10708281 -13.76490784 0.25098039 0.27450980 0.65882353
v -0.09729674 0.10932213 -13.75903416 0.25098039 0.27450980 0.65882353
v -0.08723983 0.08447384 -13.76243019 0.25098039 0.27450980 0.65882353
v -0.08835116 0.08828627 -13.76256275 0.25098039 0.27450980 0.65882353
v -0.10587648 0.08700261 -13.76459026 0.25098039 0.27450980 0.65882353
v -0.10247363 0.08720335 -13.76796436 0.25098039 0.27450980 0.65882353
v -0.10161467 0.08435246 -13.76578426 0.25098039 0.27450980 0.65882353
v -0.10429876 0.08390636 -13.76253033 0.25098039 0.27450980 0.65882353
v -0.09912160 0.10441841 -13.77480602 0.25098039 0.27450980 0.65882353
v -0.10518138 0.10411129 -13.77491283 0.25098039 0.27450980 0.65882353
v -0.09516704 0.10447527 -13.77073860 0.25098039 0.27450980 0.65882353
v -0.10676265 0.08855091 -13.75830841 0.25098039 0.27450980 0.65882353
v -0.10432369 0.09273644 -13.75259972 0.25098039 0.27450980 0.65882353
v -0.11090183 0.10500635 -13.75865173 0.25098039 0.27450980 0.65882353
v -0.11277817 0.10267434 -13.76434231 0.25098039 0.27450980 0.65882353
v -0.08923425 0.09183115 -13.76335621 0.25098039 0.27450980 0.65882353
v -0.09764932 0.08884436 -13.76941204 0.25098039 0.27450980 0.65882353
v -0.09213541 0.09004613 -13.76782894 0.25098039 0.27450980 0.65882353
v -0.09779052 0.09650265 -13.75177383 0.25098039 0.27450980 0.65882353
v -0.10168098 0.08696693 -13.75224876 0.25098039 0.27450980 0.65882353
v -0.09785150 0.06437948 -13.75687695 0.25098039 0.27450980 0.65882353
v -0.10336523 0.08019608 -13.75655746 0.25098039 0.27450980 0.65882353
v -0.10307738 0.08005302 -13.76228809 0.25098039 0.27450980 0.65882353
v -0.09904602 0.06445142 -13.76113892 0.25098039 0.27450980 0.65882353
v -0.10483529 0.08407858 -13.75714207 0.25098039 0.27450980 0.65882353
v -0.09977278 0.08150418 -13.75236416 0.25098039 0.27450980 0.65882353
v -0.08707142 0.06871498 -13.76782417 0.25098039 0.27450980 0.65882353
v -0.09272069 0.06781510 -13.76808071 0.25098039 0.27450980 0.65882353
v -0.08430342 0.07009746 -13.76459312 0.25098039 0.27450980 0.65882353
v -0.10392624 0.10899258 -13.75590992 0.25098039 0.27450980 0.65882353
v -0.11099362 0.10248250 -13.77104759 0.25098039 0.27450980 0.65882353
v -0.08366694 0.06910058 -13.75705624 0.25098039 0.27450980 0.65882353
v -0.08300459 0.06987954 -13.76138115 0.25098039 0.27450980 0.65882353
v -0.10056698 0.08114678 -13.76561069 0.25098039 0.27450980 0.65882353
v -0.09748846 0.06576563 -13.76535892 0.25098039 0.27450980 0.65882353
v -0.09444305 0.06605344 -13.75373745 0.25098039 0.27450980 0.65882353
v -0.08857009 0.06868067 -13.75329781 0.25098039 0.27450980 0.65882353
v -0.09348871 0.05982867 -13.75569057 0.25098039 0.27450980 0.65882353
v -0.08746786 0.06183895 -13.75543594 0.25098039 0.27450980 0.65882353
v -0.08283436 0.06263719 -13.75913334 0.25098039 0.27450980 0.65882353
v -0.08248085 0.06443681 -13.76329517 0.25098039 0.27450980 0.65882353
v -0.08381860 0.06538394 -13.76624870 0.25098039 0.27450980 0.65882353
v -0.09695144 0.05936375 -13.75939274 0.25098039 0.27450980 0.65882353
v -0.09779158 0.06044441 -13.76315117 0.25098039 0.27450980 0.65882353
v -0.09639110 0.06411937 -13.76571465 0.25098039 0.27450980 0.65882353
v -0.09709565 0.05611575 -13.76273060 0.25098039 0.27450980 0.65882353
v -0.09272861 0.05366299 -13.76008797 0.25098039 0.27450980 0.65882353
v -0.08335215 0.04718636 -13.77291965 0.25098039 0.27450980 0.65882353
v -0.08318283 0.05188969 -13.76912308 0.25098039 0.27450980 0.65882353
v -0.08379176 0.05103633 -13.76835442 0.25098039 0.27450980 0.65882353
v -0.08382127 0.04604918 -13.77155018 0.25098039 0.27450980 0.65882353
v -0.08318178 0.05565350 -13.76317120 0.25098039 0.27450980 0.65882353
v -0.08403265 0.05382317 -13.76390457 0.25098039 0.27450980 0.65882353
v -0.08711743 0.05329838 -13.76142597 0.25098039 0.27450980 0.65882353
v -0.08739913 0.04819125 -13.76573944 0.25098039 0.27450980 0.65882353
v -0.09329374 0.04937288 -13.76606941 0.25098039 0.27450980 0.65882353
v -0.09242971 0.04565465 -13.76961708 0.25098039 0.27450980 0.65882353
v -0.08729185 0.04399997 -13.76929569 0.25098039 0.27450980 0.65882353
v -0.09154783 0.05252478 -13.76168346 0.25098039 0.27450980 0.65882353
v -0.08481272 0.04335982 -13.77312374 0.25098039 0.27450980 0.65882353
v -0.08323385 0.04301108 -13.77475929 0.25098039 0.27450980 0.65882353
v -0.08692057 0.05502567 -13.75925636 0.25098039 0.27450980 0.65882353
v -0.08159520 0.05937633 -13.76608372 0.25098039 0.27450980 0.65882353
v -0.08220321 0.05357940 -13.77135944 0.25098039 0.27450980 0.65882353
v -0.08209786 0.04899977 -13.77565002 0.25098039 0.27450980 0.65882353
v -0.08409353 0.04530455 -13.77771282 0.25098039 0.27450980 0.65882353
v -0.08401510 0.05555674 -13.77398205 0.25098039 0.27450980 0.65882353
v -0.08415179 0.05094260 -13.77718830 0.25098039 0.27450980 0.65882353
v -0.08584973 0.04767807 -13.77910995 0.25098039 0.27450980 0.65882353
v -0.08674251 0.05663793 -13.77544308 0.25098039 0.27450980 0.65882353
v -0.08702442 0.05237916 -13.77808475 0.25098039 0.27450980 0.65882353
v -0.08676277 0.06416050 -13.76938438 0.25098039 0.27450980 0.65882353
v -0.08345732 0.06225935 -13.76817608 0.25098039 0.27450980 0.65882353
v -0.08757180 0.04933193 -13.77916241 0.25098039 0.27450980 0.65882353
v -0.08751751 0.04078737 -13.77414703 0.25098039 0.27450980 0.65882353
v -0.08926411 0.04284157 -13.77769184 0.25098039 0.27450980 0.65882353
v -0.08751263 0.04228027 -13.77251720 0.25098039 0.27450980 0.65882353
v -0.09503202 0.05032115 -13.76609898 0.25098039 0.27450980 0.65882353
v -0.09453207 0.04553041 -13.77090359 0.25098039 0.27450980 0.65882353
v -0.09681733 0.05184335 -13.76789951 0.25098039 0.27450980 0.65882353
v -0.09627448 0.04698840 -13.77248573 0.25098039 0.27450980 0.65882353
v -0.09243961 0.04223976 -13.77302742 0.25098039 0.27450980 0.65882353
v -0.09147497 0.04272288 -13.77213478 0.25098039 0.27450980 0.65882353
v -0.08731356 0.06626381 -13.76785564 0.25098039 0.27450980 0.65882353
v -0.09239835 0.06581239 -13.76794243 0.25098039 0.27450980 0.65882353
v -0.09158258 0.06431561 -13.76946068 0.25098039 0.27450980 0.65882353
v -0.09139721 0.05654216 -13.77611732 0.25098039 0.27450980 0.65882353
v -0.09568419 0.06282306 -13.76770687 0.25098039 0.27450980 0.65882353
v -0.09750627 0.05763754 -13.76628685 0.25098039 0.27450980 0.65882353
v -0.09685320 0.05358522 -13.77076817 0.25098039 0.27450980 0.65882353
v -0.09521246 0.05498013 -13.77400494 0.25098039 0.27450980 0.65882353
v -0.09632805 0.04899178 -13.77446365 0.25098039 0.27450980 0.65882353
v -0.09484471 0.05115631 -13.77571869 0.25098039 0.27450980 0.65882353
v -0.09113903 0.05253908 -13.77866364 0.25098039 0.27450980 0.65882353
v -0.09381282 0.04625034 -13.77657986 0.25098039 0.27450980 0.65882353
v -0.09385031 0.04363832 -13.77507687 0.25098039 0.27450980 0.65882353
v -0.08996710 0.04584120 -13.77907944 0.25098039 0.27450980 0.65882353
v -0.09342274 0.04858238 -13.77757072 0.25098039 0.27450980 0.65882353
v -0.09049916 0.04844815 -13.77942753 0.25098039 0.27450980 0.65882353
v -0.10914133 0.10326735 -13.77401829 0.25098039 0.27450980 0.65882353
v -0.12692279 0.08097365 -13.77395821 0.25098039 0.27450980 0.65882353
v -0.13057929 0.08111915 -13.77563477 0.25098039 0.27450980 0.65882353
v -0.13141187 0.08430508 -13.77458668 0.25098039 0.27450980 0.65882353
v -0.12755229 0.08506031 -13.77369499 0.25098039 0.27450980 0.65882353
v -0.12721056 0.08075876 -13.76297379 0.25098039 0.27450980 0.65882353
v -0.12499524 0.08041164 -13.76680088 0.25098039 0.27450980 0.65882353
v -0.12484332 0.08522674 -13.76556206 0.25098039 0.27450980 0.65882353
v -0.12701689 0.08574194 -13.76181889 0.25098039 0.27450980 0.65882353
v -0.13182953 0.08063087 -13.76145458 0.25098039 0.27450980 0.65882353
v -0.13204804 0.08545801 -13.76052189 0.25098039 0.27450980 0.65882353
v -0.12684134 0.08951320 -13.76147175 0.25098039 0.27450980 0.65882353
v -0.12449797 0.08907999 -13.76561642 0.25098039 0.27450980 0.65882353
v -0.12368312 0.10541896 -13.76869202 0.25098039 0.27450980 0.65882353
v -0.12701856 0.10805270 -13.76489067 0.25098039 0.27450980 0.65882353
v -0.14206423 0.10830452 -13.77619648 0.25098039 0.27450980 0.65882353
v -0.13812172 0.10864552 -13.78167057 0.25098039 0.27450980 0.65882353
v -0.13760272 0.10039455 -13.77747726 0.25098039 0.27450980 0.65882353
v -0.14084801 0.10180893 -13.77355194 0.25098039 0.27450980 0.65882353
v -0.12518549 0.08059518 -13.77068615 0.25098039 0.27450980 0.65882353
v -0.12497795 0.08500497 -13.77055264 0.25098039 0.27450980 0.65882353
v -0.13996765 0.08824641 -13.77115250 0.25098039 0.27450980 0.65882353
v -0.13653359 0.08762179 -13.77423763 0.25098039 0.27450980 0.65882353
v -0.13539034 0.08442435 -13.77467060 0.25098039 0.27450980 0.65882353
v -0.13916843 0.08392580 -13.77226543 0.25098039 0.27450980 0.65882353
v -0.13252334 0.10731715 -13.78280163 0.25098039 0.27450980 0.65882353
v -0.12757757 0.10697045 -13.78153324 0.25098039 0.27450980 0.65882353
v -0.12747687 0.10246955 -13.78006268 0.25098039 0.27450980 0.65882353
v -0.13283873 0.09959372 -13.77901745 0.25098039 0.27450980 0.65882353
v -0.12372468 0.10268361 -13.77600861 0.25098039 0.27450980 0.65882353
v -0.14067230 0.08852258 -13.76724625 0.25098039 0.27450980 0.65882353
v -0.13821499 0.08897854 -13.76211929 0.25098039 0.27450980 0.65882353
v -0.14084396 0.10626810 -13.76476097 0.25098039 0.27450980 0.65882353
v -0.14200433 0.10488600 -13.76913643 0.25098039 0.27450980 0.65882353
v -0.12453233 0.08784869 -13.76996803 0.25098039 0.27450980 0.65882353
v -0.13224360 0.08723595 -13.77482414 0.25098039 0.27450980 0.65882353
v -0.12789136 0.08719665 -13.77372646 0.25098039 0.27450980 0.65882353
v -0.13233575 0.08955426 -13.75971985 0.25098039 0.27450980 0.65882353
v -0.13761604 0.08436770 -13.76289558 0.25098039 0.27450980 0.65882353
v -0.13911057 0.07087624 -13.77123642 0.25098039 0.27450980 0.65882353
v -0.13999900 0.08034342 -13.76886749 0.25098039 0.27450980 0.65882353
v -0.13856080 0.08047222 -13.77349663 0.25098039 0.27450980 0.65882353
v -0.13835075 0.07128844 -13.77406025 0.25098039 0.27450980 0.65882353
v -0.14008415 0.08402152 -13.76791859 0.25098039 0.27450980 0.65882353
v -0.13745612 0.07987913 -13.76396275 0.25098039 0.27450980 0.65882353
v -0.12661648 0.07205521 -13.77602863 0.25098039 0.27450980 0.65882353
v -0.13152906 0.07265795 -13.77740383 0.25098039 0.27450980 0.65882353
v -0.12496293 0.07166722 -13.77335930 0.25098039 0.27450980 0.65882353
v -0.13359201 0.10794763 -13.76224518 0.25098039 0.27450980 0.65882353
v -0.12693495 0.07045545 -13.76628971 0.25098039 0.27450980 0.65882353
v -0.12468750 0.07056607 -13.76999855 0.25098039 0.27450980 0.65882353
v -0.13458826 0.08085968 -13.77560520 0.25098039 0.27450980 0.65882353
v -0.13573095 0.07225663 -13.77641010 0.25098039 0.27450980 0.65882353
v -0.13733877 0.07040738 -13.76743603 0.25098039 0.27450980 0.65882353
v -0.13206889 0.07063776 -13.76447964 0.25098039 0.27450980 0.65882353
v -0.13661097 0.06570230 -13.76927185 0.25098039 0.27450980 0.65882353
v -0.13115466 0.06616785 -13.76634884 0.25098039 0.27450980 0.65882353
v -0.12589037 0.06623161 -13.76873302 0.25098039 0.27450980 0.65882353
v -0.12450443 0.06780778 -13.77178955 0.25098039 0.27450980 0.65882353
v -0.12463736 0.06892514 -13.77475548 0.25098039 0.27450980 0.65882353
v -0.13848299 0.06671980 -13.77301502 0.25098039 0.27450980 0.65882353
v -0.13777190 0.06781776 -13.77576256 0.25098039 0.27450980 0.65882353
v -0.13541983 0.06970327 -13.77791023 0.25098039 0.27450980 0.65882353
v -0.13770744 0.06268554 -13.77509975 0.25098039 0.27450980 0.65882353
v -0.13523804 0.05997810 -13.77206516 0.25098039 0.27450980 0.65882353
v -0.12482952 0.05424351 -13.77882671 0.25098039 0.27450980 0.65882353
v -0.12481511 0.05776377 -13.77648163 0.25098039 0.27450980 0.65882353
v -0.12552792 0.05715473 -13.77561283 0.25098039 0.27450980 0.65882353
v -0.12488966 0.05358824 -13.77781200 0.25098039 0.27450980 0.65882353
v -0.12569229 0.06121047 -13.77223969 0.25098039 0.27450980 0.65882353
v -0.12664367 0.05979976 -13.77242661 0.25098039 0.27450980 0.65882353
v -0.12985976 0.06024723 -13.77098465 0.25098039 0.27450980 0.65882353
v -0.12915596 0.05572325 -13.77391052 0.25098039 0.27450980 0.65882353
v -0.13422008 0.05545995 -13.77573967 0.25098039 0.27450980 0.65882353
v -0.13306889 0.05189539 -13.77787304 0.25098039 0.27450980 0.65882353
v -0.12874940 0.05233365 -13.77583122 0.25098039 0.27450980 0.65882353
v -0.13361636 0.05856618 -13.77223873 0.25098039 0.27450980 0.65882353
v -0.12536788 0.05090582 -13.77858448 0.25098039 0.27450980 0.65882353
v -0.12475612 0.05022693 -13.77979279 0.25098039 0.27450980 0.65882353
v -0.13005757 0.06151268 -13.76952553 0.25098039 0.27450980 0.65882353
v -0.12397153 0.06419581 -13.77462769 0.25098039 0.27450980 0.65882353
v -0.12377765 0.05837518 -13.77869225 0.25098039 0.27450980 0.65882353
v -0.12405749 0.05377126 -13.78109169 0.25098039 0.27450980 0.65882353
v -0.12547091 0.05027440 -13.78210831 0.25098039 0.27450980 0.65882353
v -0.12434588 0.06037867 -13.78051186 0.25098039 0.27450980 0.65882353
v -0.12442270 0.05490236 -13.78331947 0.25098039 0.27450980 0.65882353
v -0.12611116 0.05171965 -13.78431129 0.25098039 0.27450980 0.65882353
v -0.12632856 0.06212605 -13.78277302 0.25098039 0.27450980 0.65882353
v -0.12636977 0.05654570 -13.78464699 0.25098039 0.27450980 0.65882353
v -0.12701595 0.06814288 -13.77924538 0.25098039 0.27450980 0.65882353
v -0.12480644 0.06631935 -13.77711868 0.25098039 0.27450980 0.65882353
v -0.12711634 0.05340883 -13.78477383 0.25098039 0.27450980 0.65882353
v -0.12814440 0.04847676 -13.77932739 0.25098039 0.27450980 0.65882353
v -0.12855865 0.04900740 -13.78238297 0.25098039 0.27450980 0.65882353
v -0.12845194 0.04925169 -13.77806282 0.25098039 0.27450980 0.65882353
v -0.13546330 0.05593511 -13.77646828 0.25098039 0.27450980 0.65882353
v -0.13418415 0.05166012 -13.77921963 0.25098039 0.27450980 0.65882353
v -0.13661721 0.05722246 -13.77845955 0.25098039 0.27450980 0.65882353
v -0.13457143 0.05245624 -13.78132248 0.25098039 0.27450980 0.65882353
v -0.13186303 0.04895109 -13.78014660 0.25098039 0.27450980 0.65882353
v -0.13116091 0.04975185 -13.77839088 0.25098039 0.27450980 0.65882353
v -0.12700069 0.06985405 -13.77791023 0.25098039 0.27450980 0.65882353
v -0.13122436 0.07052103 -13.77847195 0.25098039 0.27450980 0.65882353
v -0.13123640 0.06852266 -13.77994633 0.25098039 0.27450980 0.65882353
v -0.13009641 0.06265430 -13.78370285 0.25098039 0.27450980 0.65882353
v -0.13528201 0.06741319 -13.77930450 0.25098039 0.27450980 0.65882353
v -0.13734418 0.06501258 -13.77723026 0.25098039 0.27450980 0.65882353
v -0.13606025 0.05903254 -13.78067017 0.25098039 0.27450980 0.65882353
v -0.13412538 0.06092931 -13.78285885 0.25098039 0.27450980 0.65882353
v -0.13394877 0.05356151 -13.78330421 0.25098039 0.27450980 0.65882353
v -0.13234788 0.05569637 -13.78498363 0.25098039 0.27450980 0.65882353
v -0.12941387 0.05703415 -13.78567600 0.25098039 0.27450980 0.65882353
v -0.13117611 0.05092196 -13.78391171 0.25098039 0.27450980 0.65882353
v -0.13168877 0.04953323 -13.78253460 0.25098039 0.27450980 0.65882353
v -0.12884784 0.05066930 -13.78407764 0.25098039 0.27450980 0.65882353
v -0.13060953 0.05263960 -13.78500462 0.25098039 0.27450980 0.65882353
v -0.12899308 0.05304788 -13.78510857 0.25098039 0.27450980 0.65882353
v -0.14242521 0.10795591 -13.77188683 0.25098039 0.27450980 0.65882353
v -0.08106001 0.13644049 -13.85610390 0.25098039 0.27450980 0.65882353
v -0.08247058 0.13302958 -13.85163975 0.25098039 0.27450980 0.65882353
v -0.09520689 0.12443255 -13.85774803 0.25098039 0.27450980 0.65882353
v -0.09062336 0.12473313 -13.85234642 0.25098039 0.27450980 0.65882353
v -0.09657583 0.12652403 -13.86387825 0.25098039 0.27450980 0.65882353
v -0.09197395 0.13501807 -13.86850834 0.25098039 0.27450980 0.65882353
v -0.09585050 0.13126639 -13.86704731 0.25098039 0.27450980 0.65882353
v -0.08602636 0.12802610 -13.85034561 0.25098039 0.27450980 0.65882353
v -0.08204591 0.13897154 -13.86122799 0.25098039 0.27450980 0.65882353
v -0.08667101 0.13891347 -13.86661720 0.25098039 0.27450980 0.65882353
v -0.07658488 0.13362537 -13.86428738 0.25098039 0.27450980 0.65882353
v -0.08147562 0.13300842 -13.87019920 0.25098039 0.27450980 0.65882353
v -0.08675098 0.12898190 -13.87256050 0.25098039 0.27450980 0.65882353
v -0.09176067 0.12531090 -13.87013912 0.25098039 0.27450980 0.65882353
v -0.09354626 0.12221359 -13.86686230 0.25098039 0.27450980 0.65882353
v -0.07763344 0.13106678 -13.85767937 0.25098039 0.27450980 0.65882353
v -0.07973310 0.12770820 -13.85345554 0.25098039 0.27450980 0.65882353
v -0.08471909 0.12364871 -13.85220623 0.25098039 0.27450980 0.65882353
v -0.07411882 0.12362572 -13.85839272 0.25098039 0.27450980 0.65882353
v -0.07093734 0.11682787 -13.86541939 0.25098039 0.27450980 0.65882353
v -0.07601166 0.10282635 -13.87667847 0.25098039 0.27450980 0.65882353
v -0.07991640 0.10824315 -13.87548256 0.25098039 0.27450980 0.65882353
v -0.07707225 0.10902195 -13.87545776 0.25098039 0.27450980 0.65882353
v -0.07372834 0.10431164 -13.87719631 0.25098039 0.27450980 0.65882353
v -0.08026607 0.11366098 -13.87471008 0.25098039 0.27450980 0.65882353
v -0.07803977 0.11282850 -13.87405205 0.25098039 0.27450980 0.65882353
v -0.07458545 0.11532960 -13.87108707 0.25098039 0.27450980 0.65882353
v -0.07147191 0.11116539 -13.87308025 0.25098039 0.27450980 0.65882353
v -0.07136126 0.11478034 -13.86734962 0.25098039 0.27450980 0.65882353
v -0.06923068 0.11141971 -13.86721230 0.25098039 0.27450980 0.65882353
v -0.06863129 0.10675069 -13.87434673 0.25098039 0.27450980 0.65882353
v -0.07010581 0.10229559 -13.87774563 0.25098039 0.27450980 0.65882353
v -0.06637660 0.10262460 -13.87522793 0.25098039 0.27450980 0.65882353
v -0.07163142 0.09976104 -13.87657547 0.25098039 0.27450980 0.65882353
v -0.07381308 0.11734625 -13.87230301 0.25098039 0.27450980 0.65882353
v -0.08682975 0.11661495 -13.87315273 0.25098039 0.27450980 0.65882353
v -0.08352378 0.10819987 -13.87364864 0.25098039 0.27450980 0.65882353
v -0.07876727 0.10174205 -13.87416458 0.25098039 0.27450980 0.65882353
v -0.07330385 0.09844051 -13.87404442 0.25098039 0.27450980 0.65882353
v -0.08584394 0.10743761 -13.86970425 0.25098039 0.27450980 0.65882353
v -0.08066103 0.10184825 -13.86989307 0.25098039 0.27450980 0.65882353
v -0.07541247 0.09912370 -13.86923313 0.25098039 0.27450980 0.65882353
v -0.08568081 0.10715409 -13.86489391 0.25098039 0.27450980 0.65882353
v -0.08039607 0.10242729 -13.86590862 0.25098039 0.27450980 0.65882353
v -0.09155132 0.11832854 -13.86212826 0.25098039 0.27450980 0.65882353
v -0.09127221 0.11763927 -13.86844730 0.25098039 0.27450980 0.65882353
v -0.07647270 0.10038982 -13.86675358 0.25098039 0.27450980 0.65882353
v -0.06580462 0.10013612 -13.87447453 0.25098039 0.27450980 0.65882353
v -0.06785485 0.09865248 -13.87127781 0.25098039 0.27450980 0.65882353
v -0.06883392 0.11209515 -13.86365223 0.25098039 0.27450980 0.65882353
v -0.06587408 0.10762469 -13.86870003 0.25098039 0.27450980 0.65882353
v -0.06618896 0.10695282 -13.86546135 0.25098039 0.27450980 0.65882353
v -0.07025187 0.11278334 -13.85973549 0.25098039 0.27450980 0.65882353
v -0.06708609 0.10616188 -13.86256599 0.25098039 0.27450980 0.65882353
v -0.06444204 0.10288742 -13.86915779 0.25098039 0.27450980 0.65882353
v -0.06489487 0.10466815 -13.87143421 0.25098039 0.27450980 0.65882353
v -0.09337474 0.12126140 -13.86079597 0.25098039 0.27450980 0.65882353
v -0.09005353 0.12203694 -13.85507584 0.25098039 0.27450980 0.65882353
v -0.08799210 0.11950004 -13.85643864 0.25098039 0.27450980 0.65882353
v -0.08273306 0.10895055 -13.85947895 0.25098039 0.27450980 0.65882353
v -0.08270264 0.12019408 -13.85347462 0.25098039 0.27450980 0.65882353
v -0.07717907 0.12210375 -13.85495186 0.25098039 0.27450980 0.65882353
v -0.07301331 0.11182803 -13.85705280 0.25098039 0.27450980 0.65882353
v -0.07771671 0.11046891 -13.85649395 0.25098039 0.27450980 0.65882353
v -0.07023323 0.10505024 -13.86064720 0.25098039 0.27450980 0.65882353
v -0.07335682 0.10436322 -13.86039352 0.25098039 0.27450980 0.65882353
v -0.07769544 0.10280909 -13.86242294 0.25098039 0.27450980 0.65882353
v -0.06922241 0.10136583 -13.86429119 0.25098039 0.27450980 0.65882353
v -0.06600334 0.10180616 -13.86621189 0.25098039 0.27450980 0.65882353
v -0.07105969 0.09910178 -13.86747742 0.25098039 0.27450980 0.65882353
v -0.07197875 0.10199315 -13.86319447 0.25098039 0.27450980 0.65882353
v -0.07385412 0.10063699 -13.86515331 0.25098039 0.27450980 0.65882353
v -0.14052917 0.11281861 -13.78286457 0.25098039 0.27450980 0.65882353
v -0.13448784 0.11231656 -13.78564644 0.25098039 0.27450980 0.65882353
v -0.13946790 0.11623789 -13.78769684 0.25098039 0.27450980 0.65882353
v -0.14484826 0.12329166 -13.79122925 0.25098039 0.27450980 0.65882353
v -0.15370163 0.13006195 -13.79129791 0.25098039 0.27450980 0.65882353
v -0.13891825 0.12475581 -13.79408264 0.25098039 0.27450980 0.65882353
v -0.13360970 0.11765816 -13.78978062 0.25098039 0.27450980 0.65882353
v -0.12673321 0.11158120 -13.78557110 0.25098039 0.27450980 0.65882353
v -0.13687095 0.13296127 -13.79982662 0.25098039 0.27450980 0.65882353
f 2 3 1
f 1 3 4
f 5 6 8
f 8 6 7
f 9 4 10
f 10 4 3
f 12 13 11
f 11 13 9
f 14 12 16
f 16 12 15
f 18 19 17
f 17 19 20
f 22 23 21
f 21 23 24
f 26 27 25
f 25 27 28
f 30 31 29
f 29 31 32
f 33 34 36
f 36 34 35
f 37 38 40
f 40 38 39
f 41 42 6
f 6 42 43
f 6 43 7
f 7 43 44
f 45 34 46
f 46 34 33
f 48 49 47
f 47 49 50
f 52 53 51
f 51 53 54
f 56 52 55
f 55 52 51
f 58 59 57
f 57 59 60
f 61 62 4
f 4 62 1
f 64 65 63
f 63 65 66
f 68 69 67
f 67 69 70
f 72 73 71
f 71 73 74
f 76 77 75
f 75 77 78
f 53 79 54
f 54 79 80
f 82 83 81
f 81 83 84
f 85 86 52
f 52 86 53
f 57 60 87
f 87 60 88
f 89 90 43
f 43 90 44
f 43 42 89
f 89 42 91
f 40 39 92
f 92 39 93
f 94 70 64
f 64 70 69
f 13 61 9
f 9 61 4
f 25 28 69
f 69 28 95
f 96 25 68
f 68 25 69
f 98 99 97
f 97 99 100
f 101 102 104
f 104 102 103
f 106 30 105
f 105 30 29
f 51 54 107
f 107 54 108
f 54 80 108
f 108 80 109
f 111 112 110
f 110 112 113
f 115 5 114
f 114 5 116
f 115 41 5
f 5 41 6
f 36 35 111
f 111 35 117
f 35 118 117
f 117 118 119
f 34 120 35
f 35 120 118
f 34 45 120
f 120 45 121
f 125 126 124
f 124 126 127
f 128 129 14
f 14 129 130
f 33 131 46
f 46 131 132
f 133 94 63
f 63 94 64
f 134 135 137
f 137 135 136
f 139 140 138
f 138 140 141
f 77 142 78
f 78 142 143
f 144 145 20
f 20 145 146
f 148 149 147
f 147 149 72
f 151 152 150
f 150 152 153
f 82 101 83
f 83 101 104
f 101 82 155
f 155 82 154
f 156 157 58
f 58 157 59
f 158 68 147
f 147 68 67
f 159 146 15
f 15 146 16
f 68 158 96
f 96 158 160
f 129 66 130
f 130 66 65
f 162 163 161
f 161 163 164
f 166 167 165
f 165 167 168
f 170 171 169
f 169 171 172
f 174 171 173
f 173 171 170
f 176 177 175
f 175 177 178
f 180 181 179
f 179 181 24
f 182 183 21
f 21 183 184
f 81 185 82
f 82 185 154
f 186 187 188
f 188 187 144
f 158 71 160
f 160 71 189
f 190 135 157
f 157 135 59
f 169 172 139
f 139 172 140
f 147 72 158
f 158 72 71
f 192 193 191
f 191 193 194
f 167 166 49
f 49 166 195
f 196 190 50
f 50 190 157
f 197 198 200
f 200 198 199
f 21 24 182
f 182 24 181
f 146 159 20
f 20 159 17
f 182 181 81
f 81 181 185
f 201 185 180
f 180 185 181
f 202 203 83
f 83 203 84
f 205 206 204
f 204 206 85
f 207 22 184
f 184 22 21
f 179 24 208
f 208 24 23
f 208 209 179
f 179 209 205
f 209 210 205
f 205 210 206
f 212 206 211
f 211 206 210
f 179 205 180
f 180 205 204
f 213 176 88
f 88 176 214
f 86 85 212
f 212 85 206
f 193 217 218
f 217 219 218
f 218 219 220
f 219 18 220
f 220 18 17
f 19 221 20
f 20 221 144
f 222 223 225
f 225 223 224
f 175 226 176
f 176 226 214
f 227 87 214
f 214 87 88
f 220 17 228
f 228 17 159
f 134 213 60
f 60 213 88
f 138 229 151
f 151 229 152
f 193 192 210
f 210 192 211
f 230 194 218
f 218 194 193
f 231 232 228
f 228 232 230
f 233 234 91
f 91 234 89
f 235 236 93
f 93 236 92
f 230 232 234
f 234 232 237
f 47 238 48
f 48 238 239
f 240 191 235
f 235 191 236
f 5 8 116
f 116 8 241
f 242 243 189
f 189 243 160
f 244 245 98
f 98 245 99
f 156 246 47
f 47 246 238
f 76 247 77
f 77 247 248
f 250 125 249
f 249 125 124
f 252 253 251
f 251 253 254
f 111 110 36
f 36 110 255
f 256 33 255
f 255 33 36
f 257 258 154
f 154 258 155
f 63 169 133
f 133 169 139
f 66 170 63
f 63 170 169
f 173 170 129
f 129 170 66
f 129 128 173
f 173 128 259
f 128 260 259
f 259 260 261
f 213 134 262
f 262 134 137
f 263 264 186
f 186 264 187
f 112 265 113
f 113 265 266
f 11 267 268
f 234 233 230
f 230 233 194
f 153 269 70
f 70 269 67
f 175 178 165
f 165 178 141
f 150 153 94
f 94 153 70
f 271 221 270
f 270 221 207
f 269 153 272
f 272 153 152
f 121 45 109
f 109 45 108
f 47 50 156
f 156 50 157
f 57 273 58
f 58 273 274
f 145 275 260
f 260 275 261
f 276 149 143
f 143 149 78
f 148 269 75
f 75 269 272
f 207 277 270
f 270 277 278
f 195 196 49
f 49 196 50
f 59 135 60
f 60 135 134
f 83 104 202
f 202 104 279
f 149 148 78
f 78 148 75
f 247 278 248
f 248 278 277
f 183 182 84
f 84 182 81
f 48 239 281
f 281 239 282
f 227 223 283
f 283 223 222
f 223 226 224
f 224 226 168
f 281 282 224
f 224 282 225
f 165 168 175
f 175 168 226
f 264 263 138
f 138 263 229
f 14 16 128
f 128 16 260
f 220 228 218
f 218 228 230
f 87 227 284
f 284 227 283
f 260 16 145
f 145 16 146
f 244 98 258
f 258 98 155
f 58 274 156
f 156 274 246
f 107 285 51
f 51 285 55
f 243 286 160
f 160 286 96
f 234 237 89
f 89 237 90
f 46 132 107
f 107 132 285
f 253 252 249
f 249 252 250
f 286 26 96
f 96 26 25
f 106 105 287
f 287 105 288
f 272 152 289
f 289 152 229
f 138 151 139
f 139 151 133
f 183 290 161
f 161 290 162
f 291 292 277
f 277 292 293
f 151 150 133
f 133 150 94
f 262 275 177
f 177 275 187
f 144 187 145
f 145 187 275
f 273 57 284
f 284 57 87
f 174 136 190
f 190 136 135
f 111 117 112
f 112 117 38
f 117 119 38
f 38 119 123
f 112 38 265
f 265 38 37
f 287 288 254
f 254 288 251
f 228 159 231
f 231 159 15
f 223 227 226
f 226 227 214
f 147 67 148
f 148 67 269
f 224 168 281
f 281 168 167
f 199 163 200
f 200 163 162
f 45 46 108
f 108 46 107
f 281 167 48
f 48 167 49
f 161 164 291
f 291 164 292
f 38 123 39
f 293 294 277
f 277 294 248
f 284 283 296
f 296 283 295
f 284 296 273
f 273 296 297
f 274 273 298
f 298 273 297
f 246 274 299
f 299 274 298
f 283 222 295
f 295 222 300
f 222 225 300
f 300 225 301
f 301 225 302
f 302 225 282
f 303 304 300
f 300 304 295
f 306 307 305
f 305 307 308
f 309 310 308
f 308 310 305
f 308 307 312
f 312 307 311
f 313 314 312
f 312 314 315
f 311 316 312
f 312 316 313
f 317 304 311
f 311 304 316
f 315 309 312
f 312 309 308
f 318 319 321
f 321 319 320
f 319 318 309
f 309 318 310
f 311 307 317
f 317 307 306
f 306 297 317
f 317 297 296
f 306 322 297
f 297 322 298
f 305 323 306
f 306 323 322
f 323 305 324
f 324 305 310
f 304 317 295
f 295 317 296
f 318 325 310
f 310 325 324
f 323 324 326
f 326 324 327
f 324 325 327
f 327 325 328
f 326 327 329
f 329 327 330
f 329 331 326
f 326 331 332
f 333 330 328
f 328 330 327
f 323 326 322
f 322 326 332
f 322 332 298
f 298 332 299
f 325 318 334
f 334 318 321
f 313 316 335
f 335 316 304
f 335 336 313
f 313 336 314
f 304 303 335
f 335 303 337
f 336 335 338
f 338 335 337
f 336 339 314
f 314 339 340
f 246 299 238
f 238 299 341
f 239 342 282
f 282 342 302
f 342 239 341
f 341 239 238
f 341 331 342
f 342 331 343
f 331 329 343
f 343 329 344
f 342 343 302
f 302 343 345
f 341 299 331
f 331 299 332
f 346 301 345
f 345 301 302
f 346 303 301
f 301 303 300
f 347 337 346
f 346 337 303
f 347 346 348
f 348 346 345
f 349 347 350
f 350 347 348
f 343 344 345
f 345 344 348
f 344 351 348
f 348 351 350
f 337 347 338
f 338 347 349
f 353 338 352
f 352 338 349
f 352 355 354
f 354 355 356
f 352 349 355
f 355 349 350
f 352 354 353
f 353 354 334
f 353 334 339
f 339 334 321
f 339 336 353
f 353 336 338
f 329 330 344
f 344 330 351
f 356 351 333
f 333 351 330
f 356 355 351
f 351 355 350
f 354 356 328
f 328 356 333
f 328 325 354
f 354 325 334
f 309 315 319
f 319 315 320
f 320 340 321
f 321 340 339
f 320 315 340
f 340 315 314
f 137 136 261
f 261 136 259
f 140 166 141
f 141 166 165
f 172 171 195
f 195 171 196
f 171 174 196
f 196 174 190
f 178 177 264
f 264 177 187
f 172 195 140
f 140 195 166
f 137 261 262
f 262 261 275
f 178 264 141
f 141 264 138
f 262 177 213
f 213 177 176
f 136 174 259
f 259 174 173
f 358 359 357
f 357 359 360
f 362 363 361
f 361 363 364
f 361 364 365
f 365 364 366
f 367 368 370
f 370 368 369
f 76 371 247
f 247 371 372
f 373 374 362
f 362 374 363
f 376 377 375
f 375 377 378
f 289 229 380
f 380 229 379
f 381 379 263
f 263 379 229
f 383 384 382
f 382 384 385
f 386 368 374
f 374 368 363
f 76 289 371
f 371 289 380
f 377 376 359
f 359 376 387
f 388 386 360
f 360 386 374
f 389 383 366
f 366 383 390
f 392 393 391
f 391 393 394
f 383 382 390
f 390 382 395
f 396 365 390
f 390 365 366
f 389 366 367
f 367 366 364
f 357 397 358
f 358 397 398
f 373 399 357
f 357 399 397
f 389 367 400
f 400 367 370
f 382 385 375
f 375 385 372
f 357 360 373
f 373 360 374
f 361 401 362
f 362 401 402
f 387 388 359
f 359 388 360
f 363 368 364
f 364 368 367
f 358 398 403
f 403 398 404
f 396 392 405
f 405 392 391
f 392 395 393
f 393 395 378
f 393 403 394
f 394 403 404
f 375 378 382
f 382 378 395
f 365 396 406
f 406 396 405
f 362 402 373
f 373 402 399
f 271 270 400
f 400 270 384
f 401 361 406
f 406 361 365
f 381 369 386
f 386 369 368
f 392 396 395
f 395 396 390
f 393 378 403
f 403 378 377
f 403 377 358
f 358 377 359
f 406 405 408
f 408 405 407
f 406 408 401
f 401 408 409
f 401 409 402
f 402 409 410
f 402 410 399
f 399 410 411
f 405 391 407
f 407 391 412
f 391 394 412
f 412 394 413
f 394 404 413
f 413 404 414
f 415 416 412
f 412 416 407
f 418 419 417
f 417 419 420
f 421 422 418
f 418 422 419
f 419 422 424
f 424 422 423
f 425 426 424
f 424 426 427
f 423 428 424
f 424 428 425
f 427 420 424
f 424 420 419
f 420 429 417
f 417 429 430
f 423 422 431
f 431 422 421
f 421 409 431
f 431 409 408
f 421 432 409
f 409 432 410
f 418 433 421
f 421 433 432
f 434 433 417
f 417 433 418
f 431 416 423
f 423 416 428
f 416 431 407
f 407 431 408
f 435 434 430
f 430 434 417
f 433 434 436
f 436 434 437
f 434 435 437
f 437 435 438
f 436 437 439
f 439 437 440
f 439 441 436
f 436 441 442
f 438 443 437
f 437 443 440
f 436 442 433
f 433 442 432
f 432 442 410
f 410 442 411
f 435 430 445
f 445 430 444
f 430 429 444
f 444 429 446
f 425 428 447
f 447 428 416
f 426 425 448
f 448 425 447
f 416 415 447
f 447 415 449
f 447 449 448
f 448 449 450
f 451 452 448
f 448 452 426
f 446 452 444
f 444 452 451
f 399 411 397
f 397 411 453
f 398 454 404
f 404 454 414
f 454 398 453
f 453 398 397
f 453 441 454
f 454 441 455
f 441 439 455
f 455 439 456
f 454 455 414
f 414 455 457
f 441 453 442
f 442 453 411
f 458 413 457
f 457 413 414
f 458 415 413
f 413 415 412
f 458 459 415
f 415 459 449
f 459 458 460
f 460 458 457
f 461 459 462
f 462 459 460
f 455 456 457
f 457 456 460
f 456 463 460
f 460 463 462
f 459 461 449
f 449 461 450
f 465 450 464
f 464 450 461
f 464 467 466
f 466 467 468
f 464 461 467
f 467 461 462
f 464 466 465
f 465 466 445
f 465 445 451
f 451 445 444
f 451 448 465
f 465 448 450
f 439 440 456
f 456 440 463
f 468 463 443
f 443 463 440
f 468 467 463
f 463 467 462
f 466 468 438
f 438 468 443
f 438 435 466
f 466 435 445
f 420 427 429
f 429 427 446
f 446 427 452
f 452 427 426
f 370 369 188
f 188 369 186
f 371 376 372
f 372 376 375
f 380 379 387
f 387 379 388
f 379 381 388
f 388 381 386
f 385 384 278
f 278 384 270
f 380 387 371
f 371 387 376
f 400 370 271
f 271 370 188
f 385 278 372
f 372 278 247
f 400 384 389
f 389 384 383
f 369 381 186
f 186 381 263
f 221 271 144
f 144 271 188
f 221 19 207
f 207 19 22
f 19 18 22
f 22 18 23
f 18 219 23
f 23 219 208
f 469 470 472
f 472 470 471
f 474 475 473
f 473 475 476
f 473 476 477
f 477 476 478
f 480 481 479
f 479 481 482
f 483 484 474
f 474 484 475
f 486 487 485
f 485 487 488
f 489 490 77
f 77 490 142
f 491 489 248
f 248 489 77
f 493 494 492
f 492 494 495
f 496 480 484
f 484 480 475
f 486 497 487
f 487 497 471
f 498 496 472
f 472 496 484
f 499 493 478
f 478 493 500
f 501 502 504
f 504 502 503
f 493 492 500
f 500 492 505
f 506 477 500
f 500 477 478
f 499 478 479
f 479 478 476
f 469 507 470
f 470 507 508
f 483 509 469
f 469 509 507
f 479 482 499
f 499 482 510
f 492 495 485
f 485 495 511
f 483 469 484
f 484 469 472
f 473 512 474
f 474 512 513
f 497 498 471
f 471 498 472
f 475 480 476
f 476 480 479
f 470 508 514
f 514 508 515
f 506 502 516
f 516 502 501
f 503 502 488
f 488 502 505
f 514 515 503
f 503 515 504
f 485 488 492
f 492 488 505
f 477 506 517
f 517 506 516
f 474 513 483
f 483 513 509
f 510 292 494
f 494 292 164
f 512 473 517
f 517 473 477
f 491 481 496
f 496 481 480
f 502 506 505
f 505 506 500
f 503 488 514
f 514 488 487
f 514 487 470
f 470 487 471
f 517 516 519
f 519 516 518
f 517 519 512
f 512 519 520
f 512 520 513
f 513 520 521
f 513 521 509
f 509 521 522
f 516 501 518
f 518 501 523
f 501 504 523
f 523 504 524
f 524 504 525
f 525 504 515
f 526 527 523
f 523 527 518
f 529 530 528
f 528 530 531
f 532 533 529
f 529 533 530
f 530 533 535
f 535 533 534
f 536 537 535
f 535 537 538
f 534 539 535
f 535 539 536
f 538 531 535
f 535 531 530
f 540 541 531
f 531 541 528
f 533 532 534
f 534 532 542
f 532 520 542
f 542 520 519
f 532 543 520
f 520 543 521
f 529 544 532
f 532 544 543
f 544 529 545
f 545 529 528
f 534 542 539
f 539 542 527
f 527 542 518
f 518 542 519
f 541 546 528
f 528 546 545
f 547 544 548
f 548 544 545
f 546 549 545
f 545 549 548
f 550 547 551
f 551 547 548
f 547 550 553
f 553 550 552
f 549 554 548
f 548 554 551
f 544 547 543
f 543 547 553
f 543 553 521
f 521 553 522
f 546 541 556
f 556 541 555
f 541 540 555
f 555 540 557
f 536 539 558
f 558 539 527
f 537 536 559
f 559 536 558
f 527 526 558
f 558 526 560
f 559 558 561
f 561 558 560
f 559 562 537
f 537 562 563
f 557 563 555
f 555 563 562
f 509 522 507
f 507 522 564
f 508 565 515
f 515 565 525
f 565 508 564
f 564 508 507
f 564 552 565
f 565 552 566
f 552 550 566
f 566 550 567
f 565 566 525
f 525 566 568
f 564 522 552
f 552 522 553
f 569 524 568
f 568 524 525
f 569 526 524
f 524 526 523
f 570 560 569
f 569 560 526
f 570 569 571
f 571 569 568
f 572 570 573
f 573 570 571
f 566 567 568
f 568 567 571
f 567 574 571
f 571 574 573
f 570 572 560
f 560 572 561
f 576 561 575
f 575 561 572
f 575 578 577
f 577 578 579
f 575 572 578
f 578 572 573
f 575 577 576
f 576 577 556
f 576 556 562
f 562 556 555
f 562 559 576
f 576 559 561
f 550 551 567
f 567 551 574
f 579 574 554
f 554 574 551
f 579 578 574
f 574 578 573
f 579 554 577
f 577 554 549
f 549 546 577
f 577 546 556
f 531 538 540
f 540 538 557
f 557 538 563
f 563 538 537
f 481 294 482
f 482 294 293
f 580 486 511
f 511 486 485
f 490 489 497
f 497 489 498
f 489 491 498
f 498 491 496
f 163 495 164
f 164 495 494
f 580 490 486
f 486 490 497
f 482 293 510
f 510 293 292
f 495 163 511
f 511 163 199
f 494 493 510
f 510 493 499
f 481 491 294
f 294 491 248
f 582 583 581
f 581 583 584
f 586 587 585
f 585 587 588
f 585 588 589
f 589 588 590
f 592 593 591
f 591 593 594
f 595 596 598
f 598 596 597
f 599 600 586
f 586 600 587
f 601 602 604
f 604 602 603
f 605 606 608
f 608 606 607
f 609 607 200
f 200 607 606
f 610 611 613
f 613 611 612
f 600 614 587
f 587 614 592
f 596 605 597
f 597 605 608
f 602 615 603
f 603 615 583
f 616 614 584
f 584 614 600
f 611 618 617
f 617 618 590
f 620 621 619
f 619 621 622
f 610 623 611
f 611 623 618
f 624 589 618
f 618 589 590
f 617 590 591
f 591 590 588
f 581 625 582
f 582 625 626
f 599 627 581
f 581 627 625
f 591 594 617
f 617 594 628
f 601 610 598
f 598 610 613
f 581 584 599
f 599 584 600
f 585 629 586
f 586 629 630
f 615 616 583
f 583 616 584
f 587 592 588
f 588 592 591
f 582 626 631
f 631 626 632
f 624 620 633
f 633 620 619
f 621 620 604
f 604 620 623
f 631 632 621
f 621 632 622
f 610 601 623
f 623 601 604
f 589 624 634
f 634 624 633
f 586 630 599
f 599 630 627
f 203 202 628
f 628 202 612
f 629 585 634
f 634 585 589
f 609 593 614
f 614 593 592
f 620 624 623
f 623 624 618
f 631 621 603
f 603 621 604
f 582 631 583
f 583 631 603
f 634 633 636
f 636 633 635
f 634 636 629
f 629 636 637
f 629 637 630
f 630 637 638
f 630 638 627
f 627 638 639
f 633 619 635
f 635 619 640
f 619 622 640
f 640 622 641
f 641 622 642
f 642 622 632
f 644 635 643
f 643 635 640
f 645 646 648
f 648 646 647
f 649 650 646
f 646 650 647
f 647 650 652
f 652 650 651
f 652 653 655
f 655 653 654
f 651 656 652
f 652 656 653
f 655 648 652
f 652 648 647
f 648 657 645
f 645 657 658
f 650 649 651
f 651 649 659
f 649 637 659
f 659 637 636
f 649 660 637
f 637 660 638
f 661 660 646
f 646 660 649
f 662 661 645
f 645 661 646
f 651 659 656
f 656 659 644
f 644 659 635
f 635 659 636
f 663 662 658
f 658 662 645
f 664 661 665
f 665 661 662
f 663 666 662
f 662 666 665
f 667 664 668
f 668 664 665
f 664 667 670
f 670 667 669
f 666 671 665
f 665 671 668
f 661 664 660
f 660 664 670
f 660 670 638
f 638 670 639
f 658 672 663
f 663 672 673
f 658 657 672
f 672 657 674
f 653 656 675
f 675 656 644
f 653 675 654
f 654 675 676
f 675 644 677
f 677 644 643
f 676 675 678
f 678 675 677
f 679 680 676
f 676 680 654
f 674 680 672
f 672 680 679
f 627 639 625
f 625 639 681
f 626 682 632
f 632 682 642
f 681 682 625
f 625 682 626
f 669 683 681
f 681 683 682
f 667 684 669
f 669 684 683
f 682 683 642
f 642 683 685
f 681 639 669
f 669 639 670
f 686 641 685
f 685 641 642
f 641 686 640
f 640 686 643
f 686 687 643
f 643 687 677
f 687 686 688
f 688 686 685
f 689 687 690
f 690 687 688
f 683 684 685
f 685 684 688
f 684 691 688
f 688 691 690
f 687 689 677
f 677 689 678
f 693 678 692
f 692 678 689
f 692 695 694
f 694 695 696
f 692 689 695
f 695 689 690
f 692 694 693
f 693 694 673
f 693 673 679
f 679 673 672
f 679 676 693
f 693 676 678
f 684 667 691
f 691 667 668
f 696 691 671
f 671 691 668
f 696 695 691
f 691 695 690
f 694 696 666
f 666 696 671
f 666 663 694
f 694 663 673
f 648 655 657
f 657 655 674
f 674 655 680
f 680 655 654
f 593 162 594
f 594 162 290
f 598 597 601
f 601 597 602
f 615 608 616
f 616 608 607
f 607 609 616
f 616 609 614
f 697 595 613
f 613 595 598
f 597 608 602
f 602 608 615
f 594 290 628
f 628 290 203
f 628 612 617
f 617 612 611
f 593 609 162
f 162 609 200
f 105 29 698
f 698 29 699
f 268 126 701
f 701 126 700
f 126 125 700
f 700 125 702
f 252 703 250
f 250 703 704
f 32 268 705
f 705 268 701
f 288 105 706
f 706 105 698
f 29 32 699
f 699 32 705
f 707 251 706
f 706 251 288
f 250 704 125
f 125 704 702
f 703 252 707
f 707 252 251
f 706 708 707
f 707 708 709
f 707 709 703
f 703 709 710
f 703 710 704
f 704 710 711
f 704 711 702
f 702 711 712
f 706 698 708
f 708 698 713
f 698 699 713
f 713 699 714
f 699 705 714
f 714 705 715
f 717 708 716
f 716 708 713
f 719 720 718
f 718 720 721
f 722 723 719
f 719 723 720
f 724 725 723
f 723 725 720
f 724 726 725
f 725 726 727
f 728 721 725
f 725 721 720
f 721 728 729
f 729 728 730
f 729 731 721
f 721 731 718
f 724 723 732
f 732 723 722
f 722 710 732
f 732 710 709
f 722 733 710
f 710 733 711
f 719 734 722
f 722 734 733
f 734 719 735
f 735 719 718
f 724 732 726
f 726 732 717
f 717 732 708
f 708 732 709
f 731 736 718
f 718 736 735
f 737 734 738
f 738 734 735
f 736 739 735
f 735 739 738
f 740 737 741
f 741 737 738
f 737 740 743
f 743 740 742
f 739 744 738
f 738 744 741
f 734 737 733
f 733 737 743
f 733 743 711
f 711 743 712
f 736 731 746
f 746 731 745
f 731 729 745
f 745 729 730
f 727 726 747
f 747 726 717
f 748 727 749
f 749 727 747
f 747 717 750
f 750 717 716
f 749 747 751
f 751 747 750
f 749 752 748
f 748 752 753
f 730 753 745
f 745 753 752
f 728 725 748
f 748 725 727
f 730 728 753
f 753 728 748
f 700 702 754
f 754 702 712
f 705 701 715
f 715 701 755
f 754 755 700
f 700 755 701
f 742 756 754
f 754 756 755
f 740 757 742
f 742 757 756
f 755 756 715
f 715 756 758
f 754 712 742
f 742 712 743
f 759 714 758
f 758 714 715
f 714 759 713
f 713 759 716
f 759 760 716
f 716 760 750
f 760 759 761
f 761 759 758
f 762 760 763
f 763 760 761
f 756 757 758
f 758 757 761
f 757 764 761
f 761 764 763
f 760 762 750
f 750 762 751
f 766 751 765
f 765 751 762
f 767 765 769
f 769 765 768
f 765 762 768
f 768 762 763
f 765 767 766
f 766 767 746
f 766 746 752
f 752 746 745
f 752 749 766
f 766 749 751
f 757 740 764
f 764 740 741
f 769 764 744
f 744 764 741
f 769 768 764
f 764 768 763
f 767 769 739
f 739 769 744
f 739 736 767
f 767 736 746
f 219 217 208
f 208 217 209
f 209 217 210
f 210 217 193
f 198 580 199
f 199 580 511
f 76 75 289
f 289 75 272
f 277 207 291
f 291 207 184
f 290 183 203
f 203 183 84
f 490 580 142
f 142 580 198
f 142 198 143
f 143 198 197
f 149 276 72
f 72 276 73
f 104 103 279
f 279 103 770
f 770 596 279
f 279 596 595
f 605 596 771
f 771 596 770
f 771 770 772
f 772 770 103
f 772 103 773
f 773 103 102
f 155 774 101
f 101 774 102
f 773 102 97
f 97 102 774
f 775 773 100
f 100 773 97
f 773 775 772
f 772 775 776
f 772 776 771
f 771 776 777
f 200 606 197
f 197 606 777
f 189 71 778
f 778 71 74
f 97 774 98
f 98 774 155
f 183 161 184
f 184 161 291
f 777 276 197
f 197 276 143
f 777 606 771
f 771 606 605
f 613 612 697
f 697 612 202
f 595 697 279
f 279 697 202
f 73 276 776
f 776 276 777
f 776 775 73
f 73 775 74
f 100 778 775
f 775 778 74
f 778 100 189
f 189 100 99
f 245 242 99
f 99 242 189
f 131 33 256
f 28 1 95
f 95 1 62
f 27 2 28
f 28 2 1
f 265 115 266
f 266 115 114
f 95 62 69
f 69 62 64
f 62 61 64
f 64 61 65
f 61 13 65
f 65 13 130
f 13 12 130
f 130 12 14
f 31 11 32
f 32 11 268
f 15 12 31
f 31 12 11
f 31 30 15
f 15 30 231
f 30 106 231
f 231 106 232
f 287 237 106
f 106 237 232
f 254 90 287
f 287 90 237
f 253 44 254
f 254 44 90
f 253 249 44
f 44 249 7
f 267 127 268
f 268 127 126
f 10 3 241
f 241 3 116
f 3 2 116
f 116 2 114
f 2 27 114
f 114 27 266
f 27 26 266
f 266 26 113
f 26 286 113
f 113 286 110
f 286 243 110
f 110 243 255
f 243 242 255
f 255 242 256
f 242 245 256
f 256 245 131
f 245 244 131
f 131 244 132
f 265 37 115
f 115 37 41
f 41 37 42
f 42 37 40
f 92 91 40
f 40 91 42
f 236 233 92
f 92 233 91
f 191 194 236
f 236 194 233
f 258 285 244
f 244 285 132
f 257 55 258
f 258 55 285
f 257 154 201
f 201 154 185
f 56 201 204
f 204 201 180
f 55 257 56
f 56 257 201
f 204 85 56
f 56 85 52
f 86 122 53
f 53 122 79
f 212 215 86
f 86 215 122
f 211 216 212
f 212 216 215
f 192 280 211
f 211 280 216
f 191 240 192
f 192 240 280
f 249 124 7
f 7 124 8
f 124 127 8
f 8 127 241
f 127 267 241
f 241 267 10
f 10 267 9
f 9 267 11
f 93 39 235
f 235 39 240
f 39 123 240
f 240 123 280
f 123 119 280
f 280 119 216
f 119 118 216
f 216 118 215
f 118 120 215
f 215 120 122
f 120 121 122
f 122 121 79
f 121 109 79
f 79 109 80

