# https://github.com/mikedh/trimesh
v -0.11635053 0.01597524 -15.43290520 0.25098039 0.27450980 0.65882353
v -0.12198058 0.02054188 -15.43989849 0.25098039 0.27450980 0.65882353
v -0.11184308 0.01703022 -15.44526005 0.25098039 0.27450980 0.65882353
v -0.10704246 0.01243997 -15.43658924 0.25098039 0.27450980 0.65882353
v -0.12412369 0.02938567 -15.46067142 0.25098039 0.27450980 0.65882353
v -0.12125617 0.04107794 -15.46587276 0.25098039 0.27450980 0.65882353
v -0.10802005 0.03208678 -15.46814728 0.25098039 0.27450980 0.65882353
v -0.11310655 0.02398410 -15.46405506 0.25098039 0.27450980 0.65882353
v -0.09889396 0.01201966 -15.43796253 0.25098039 0.27450980 0.65882353
v -0.10430241 0.01388348 -15.44866180 0.25098039 0.27450980 0.65882353
v -0.09424677 0.01763495 -15.43800163 0.25098039 0.27450980 0.65882353
v -0.08944938 0.01724633 -15.42376137 0.25098039 0.27450980 0.65882353
v -0.09431066 0.01228537 -15.42696571 0.25098039 0.27450980 0.65882353
v -0.08757044 0.01411842 -15.41509247 0.25098039 0.27450980 0.65882353
v -0.09114949 0.02699859 -15.41981888 0.25098039 0.27450980 0.65882353
v -0.09130743 0.01758920 -15.40680599 0.25098039 0.27450980 0.65882353
v -0.11691520 0.02912566 -15.40059376 0.25098039 0.27450980 0.65882353
v -0.12946171 0.02696815 -15.39770222 0.25098039 0.27450980 0.65882353
v -0.12348339 0.01449240 -15.39098167 0.25098039 0.27450980 0.65882353
v -0.11117952 0.01754460 -15.39519405 0.25098039 0.27450980 0.65882353
v -0.14313698 0.01255073 -15.39381599 0.25098039 0.27450980 0.65882353
v -0.13211481 0.01296628 -15.39148426 0.25098039 0.27450980 0.65882353
v -0.13804908 0.02622465 -15.39748859 0.25098039 0.27450980 0.65882353
v -0.14782390 0.02536688 -15.39921093 0.25098039 0.27450980 0.65882353
v -0.13266715 0.01926223 -15.42927170 0.25098039 0.27450980 0.65882353
v -0.13914822 0.02480130 -15.43498421 0.25098039 0.27450980 0.65882353
v -0.13330795 0.02397821 -15.43513870 0.25098039 0.27450980 0.65882353
v -0.12707987 0.01932704 -15.43019104 0.25098039 0.27450980 0.65882353
v -0.08731374 0.02466999 -15.44809151 0.25098039 0.27450980 0.65882353
v -0.09048942 0.03287701 -15.44007015 0.25098039 0.27450980 0.65882353
v -0.09057422 0.02554835 -15.43695927 0.25098039 0.27450980 0.65882353
v -0.09027550 0.02015672 -15.44822407 0.25098039 0.27450980 0.65882353
v -0.15967792 0.03808290 -15.44888210 0.25098039 0.27450980 0.65882353
v -0.16303533 0.05147612 -15.44984722 0.25098039 0.27450980 0.65882353
v -0.15765205 0.05334393 -15.45073318 0.25098039 0.27450980 0.65882353
v -0.15608035 0.04071123 -15.44932747 0.25098039 0.27450980 0.65882353
v -0.13755862 0.05167243 -15.46012402 0.25098039 0.27450980 0.65882353
v -0.14232473 0.05978047 -15.45611000 0.25098039 0.27450980 0.65882353
v -0.13477843 0.07178326 -15.45296955 0.25098039 0.27450980 0.65882353
v -0.12833101 0.06512439 -15.45460415 0.25098039 0.27450980 0.65882353
v -0.12981580 0.04513735 -15.46362877 0.25098039 0.27450980 0.65882353
v -0.12276973 0.05703406 -15.46069717 0.25098039 0.27450980 0.65882353
v -0.11477152 0.05082443 -15.46416855 0.25098039 0.27450980 0.65882353
v -0.10209996 0.03937805 -15.46813679 0.25098039 0.27450980 0.65882353
v -0.17418224 0.04862243 -15.44459057 0.25098039 0.27450980 0.65882353
v -0.17397279 0.03868662 -15.44338417 0.25098039 0.27450980 0.65882353
v -0.06506564 -0.02902788 -15.40039730 0.25098039 0.27450980 0.65882353
v -0.06928746 -0.03259946 -15.39906979 0.25098039 0.27450980 0.65882353
v -0.07222518 -0.02831964 -15.40097618 0.25098039 0.27450980 0.65882353
v -0.06770253 -0.02534753 -15.40159130 0.25098039 0.27450980 0.65882353
v -0.18008474 0.04651454 -15.42565060 0.25098039 0.27450980 0.65882353
v -0.17707744 0.05074942 -15.41689682 0.25098039 0.27450980 0.65882353
v -0.18058316 0.05523912 -15.42051315 0.25098039 0.27450980 0.65882353
v -0.18168733 0.05255472 -15.42913055 0.25098039 0.27450980 0.65882353
v -0.17763968 0.03846968 -15.42069244 0.25098039 0.27450980 0.65882353
v -0.17199185 0.04408986 -15.41235256 0.25098039 0.27450980 0.65882353
v -0.06114039 -0.02460424 -15.38980103 0.25098039 0.27450980 0.65882353
v -0.06025036 -0.02516722 -15.39468288 0.25098039 0.27450980 0.65882353
v -0.06302412 -0.02089779 -15.39480209 0.25098039 0.27450980 0.65882353
v -0.06469594 -0.02035750 -15.38995075 0.25098039 0.27450980 0.65882353
v -0.10179366 0.01008597 -15.42843914 0.25098039 0.27450980 0.65882353
v -0.11126402 0.01020438 -15.42779255 0.25098039 0.27450980 0.65882353
v -0.09447929 -0.00336280 -15.41683388 0.25098039 0.27450980 0.65882353
v -0.10219681 0.00243521 -15.42024899 0.25098039 0.27450980 0.65882353
v -0.09614518 0.00630732 -15.42185879 0.25098039 0.27450980 0.65882353
v -0.09030183 0.00213655 -15.41754818 0.25098039 0.27450980 0.65882353
v -0.12531358 0.00115367 -15.41664886 0.25098039 0.27450980 0.65882353
v -0.13036399 0.01026015 -15.42239761 0.25098039 0.27450980 0.65882353
v -0.12380712 0.01097565 -15.42261314 0.25098039 0.27450980 0.65882353
v -0.11688206 0.00069273 -15.41760921 0.25098039 0.27450980 0.65882353
v -0.14360943 0.00614146 -15.42247105 0.25098039 0.27450980 0.65882353
v -0.13760614 -0.00222960 -15.41675758 0.25098039 0.27450980 0.65882353
v -0.14598766 -0.00347276 -15.41769981 0.25098039 0.27450980 0.65882353
v -0.14895020 0.00229254 -15.42231941 0.25098039 0.27450980 0.65882353
v -0.12424926 -0.01584898 -15.40544891 0.25098039 0.27450980 0.65882353
v -0.11992510 -0.02002032 -15.39832306 0.25098039 0.27450980 0.65882353
v -0.12268651 -0.02072171 -15.39745331 0.25098039 0.27450980 0.65882353
v -0.12748431 -0.01610621 -15.40506554 0.25098039 0.27450980 0.65882353
v -0.18353637 0.06050375 -15.42270660 0.25098039 0.27450980 0.65882353
v -0.18211862 0.05872385 -15.43165970 0.25098039 0.27450980 0.65882353
v -0.16220881 0.00862728 -15.39916039 0.25098039 0.27450980 0.65882353
v -0.16997600 0.00729835 -15.40674973 0.25098039 0.27450980 0.65882353
v -0.16746679 -0.00425613 -15.40165710 0.25098039 0.27450980 0.65882353
v -0.16038552 0.00029833 -15.39543629 0.25098039 0.27450980 0.65882353
v -0.16940561 0.05439430 -15.41116142 0.25098039 0.27450980 0.65882353
v -0.17452654 0.05877897 -15.41341877 0.25098039 0.27450980 0.65882353
v -0.06447171 -0.02639141 -15.38515949 0.25098039 0.27450980 0.65882353
v -0.06797267 -0.02230934 -15.38556576 0.25098039 0.27450980 0.65882353
v -0.11055483 0.05730994 -15.45353413 0.25098039 0.27450980 0.65882353
v -0.09694803 0.04432143 -15.46120739 0.25098039 0.27450980 0.65882353
v -0.12021467 0.06555812 -15.44821739 0.25098039 0.27450980 0.65882353
v -0.12607718 0.07157208 -15.44404984 0.25098039 0.27450980 0.65882353
v -0.13033454 0.07772920 -15.44312954 0.25098039 0.27450980 0.65882353
v -0.10555372 -0.00292723 -15.41693974 0.25098039 0.27450980 0.65882353
v -0.12012377 0.01351229 -15.42672920 0.25098039 0.27450980 0.65882353
v -0.13772315 0.01811174 -15.42862415 0.25098039 0.27450980 0.65882353
v -0.16559879 0.00606370 -15.42755985 0.25098039 0.27450980 0.65882353
v -0.16994236 0.01464572 -15.43277454 0.25098039 0.27450980 0.65882353
v -0.15899318 0.01378119 -15.43345642 0.25098039 0.27450980 0.65882353
v -0.15757552 0.00652820 -15.42823601 0.25098039 0.27450980 0.65882353
v -0.17177635 0.00213917 -15.41398239 0.25098039 0.27450980 0.65882353
v -0.16707994 -0.00147411 -15.41887951 0.25098039 0.27450980 0.65882353
v -0.16362257 -0.00915987 -15.41479778 0.25098039 0.27450980 0.65882353
v -0.16816631 -0.00669809 -15.40954685 0.25098039 0.27450980 0.65882353
v -0.08395432 0.02891854 -15.45251179 0.25098039 0.27450980 0.65882353
v -0.09045953 0.03878524 -15.44325542 0.25098039 0.27450980 0.65882353
v -0.17957173 0.04287184 -15.43524647 0.25098039 0.27450980 0.65882353
v -0.17906795 0.04976927 -15.43848705 0.25098039 0.27450980 0.65882353
v -0.17976055 0.05835148 -15.43850899 0.25098039 0.27450980 0.65882353
v -0.14896877 0.03110758 -15.44278145 0.25098039 0.27450980 0.65882353
v -0.15372163 0.04242976 -15.44984913 0.25098039 0.27450980 0.65882353
v -0.15023245 0.04224854 -15.45161533 0.25098039 0.27450980 0.65882353
v -0.14621812 0.03085371 -15.44274235 0.25098039 0.27450980 0.65882353
v -0.12978910 0.02465465 -15.44818211 0.25098039 0.27450980 0.65882353
v -0.13592108 0.03443248 -15.45640087 0.25098039 0.27450980 0.65882353
v -0.11940093 0.02015398 -15.45359325 0.25098039 0.27450980 0.65882353
v -0.15144375 0.05718981 -15.45307732 0.25098039 0.27450980 0.65882353
v -0.16023469 0.06305210 -15.45284462 0.25098039 0.27450980 0.65882353
v -0.15245771 0.06654774 -15.45421219 0.25098039 0.27450980 0.65882353
v -0.16874053 0.06069506 -15.44927883 0.25098039 0.27450980 0.65882353
v -0.17539416 0.05869566 -15.44407082 0.25098039 0.27450980 0.65882353
v -0.17901608 0.06456780 -15.41266918 0.25098039 0.27450980 0.65882353
v -0.14476404 0.06969577 -15.45423412 0.25098039 0.27450980 0.65882353
v -0.10498902 0.01989290 -15.46525192 0.25098039 0.27450980 0.65882353
v -0.09860925 0.01512058 -15.46496487 0.25098039 0.27450980 0.65882353
v -0.09876893 0.01329682 -15.45782566 0.25098039 0.27450980 0.65882353
v -0.10477434 0.01662669 -15.45749187 0.25098039 0.27450980 0.65882353
v -0.08455110 0.00894437 -15.40759563 0.25098039 0.27450980 0.65882353
v -0.08603020 0.00523132 -15.41402817 0.25098039 0.27450980 0.65882353
v -0.09001802 0.01088535 -15.42113876 0.25098039 0.27450980 0.65882353
v -0.16022810 0.02849707 -15.44316483 0.25098039 0.27450980 0.65882353
v -0.17307043 0.02906875 -15.43892479 0.25098039 0.27450980 0.65882353
v -0.09698075 -0.00845532 -15.41277409 0.25098039 0.27450980 0.65882353
v -0.06770548 -0.01653912 -15.39036942 0.25098039 0.27450980 0.65882353
v -0.06601362 -0.01656192 -15.39568138 0.25098039 0.27450980 0.65882353
v -0.07678865 -0.00273307 -15.40208721 0.25098039 0.27450980 0.65882353
v -0.07830946 -0.00295016 -15.39540863 0.25098039 0.27450980 0.65882353
v -0.09428021 -0.01344333 -15.40200520 0.25098039 0.27450980 0.65882353
v -0.09338810 -0.01199714 -15.40881348 0.25098039 0.27450980 0.65882353
v -0.09126861 -0.01335319 -15.40594864 0.25098039 0.27450980 0.65882353
v -0.09219380 -0.01706209 -15.40059757 0.25098039 0.27450980 0.65882353
v -0.13106588 -0.02085705 -15.40082836 0.25098039 0.27450980 0.65882353
v -0.13543949 -0.01652469 -15.40671444 0.25098039 0.27450980 0.65882353
v -0.10561883 0.00301835 -15.39121914 0.25098039 0.27450980 0.65882353
v -0.09549984 0.01115269 -15.39386559 0.25098039 0.27450980 0.65882353
v -0.10038868 0.02013471 -15.39919472 0.25098039 0.27450980 0.65882353
v -0.13260007 0.00008850 -15.41675186 0.25098039 0.27450980 0.65882353
v -0.12859695 -0.00863598 -15.41150475 0.25098039 0.27450980 0.65882353
v -0.13245225 -0.00958369 -15.41114902 0.25098039 0.27450980 0.65882353
v -0.10644741 -0.00655759 -15.41348934 0.25098039 0.27450980 0.65882353
v -0.10034399 -0.01149591 -15.40861988 0.25098039 0.27450980 0.65882353
v -0.10667050 -0.01069468 -15.40883255 0.25098039 0.27450980 0.65882353
v -0.11204438 -0.00585647 -15.41260147 0.25098039 0.27450980 0.65882353
v -0.17364237 0.01923261 -15.41079807 0.25098039 0.27450980 0.65882353
v -0.17616780 0.01329883 -15.41910172 0.25098039 0.27450980 0.65882353
v -0.06169757 -0.02656547 -15.39866829 0.25098039 0.27450980 0.65882353
v -0.06443146 -0.02244919 -15.39922523 0.25098039 0.27450980 0.65882353
v -0.13734269 0.00906216 -15.42197037 0.25098039 0.27450980 0.65882353
v -0.10596341 0.03005369 -15.40606689 0.25098039 0.27450980 0.65882353
v -0.14272884 0.01663201 -15.42860985 0.25098039 0.27450980 0.65882353
v -0.14521538 -0.00878107 -15.38990498 0.25098039 0.27450980 0.65882353
v -0.14651793 -0.01435534 -15.39497280 0.25098039 0.27450980 0.65882353
v -0.14263158 -0.01883164 -15.39245892 0.25098039 0.27450980 0.65882353
v -0.14209569 -0.01573955 -15.38692665 0.25098039 0.27450980 0.65882353
v -0.08229940 -0.02828249 -15.39437389 0.25098039 0.27450980 0.65882353
v -0.07995476 -0.02824220 -15.39963245 0.25098039 0.27450980 0.65882353
v -0.07654193 -0.03133889 -15.39736843 0.25098039 0.27450980 0.65882353
v -0.07864955 -0.03150090 -15.39216614 0.25098039 0.27450980 0.65882353
v -0.09031180 -0.00842611 -15.41227150 0.25098039 0.27450980 0.65882353
v -0.08645211 -0.00318718 -15.41341019 0.25098039 0.27450980 0.65882353
v -0.08320409 -0.00838876 -15.41054630 0.25098039 0.27450980 0.65882353
v -0.08747676 -0.01163379 -15.40853214 0.25098039 0.27450980 0.65882353
v -0.08231549 0.00011719 -15.40967464 0.25098039 0.27450980 0.65882353
v -0.07887514 -0.00461707 -15.40791035 0.25098039 0.27450980 0.65882353
v -0.08109410 -0.02544222 -15.38859749 0.25098039 0.27450980 0.65882353
v -0.07649998 -0.02085042 -15.38481140 0.25098039 0.27450980 0.65882353
v -0.08750477 -0.00998698 -15.38931942 0.25098039 0.27450980 0.65882353
v -0.08998851 -0.01629217 -15.39363766 0.25098039 0.27450980 0.65882353
v -0.15169682 0.03838271 -15.40347672 0.25098039 0.27450980 0.65882353
v -0.16199845 0.03553847 -15.40503407 0.25098039 0.27450980 0.65882353
v -0.15793180 0.02241429 -15.40093040 0.25098039 0.27450980 0.65882353
v -0.15438621 0.01000836 -15.39625931 0.25098039 0.27450980 0.65882353
v -0.15022191 -0.00233356 -15.39237976 0.25098039 0.27450980 0.65882353
v -0.14029270 0.00171920 -15.38824272 0.25098039 0.27450980 0.65882353
v -0.16521367 0.02128029 -15.40352345 0.25098039 0.27450980 0.65882353
v -0.10014461 -0.00969261 -15.39489651 0.25098039 0.27450980 0.65882353
v -0.09593830 -0.00198875 -15.39221478 0.25098039 0.27450980 0.65882353
v -0.10215904 -0.00365558 -15.39155769 0.25098039 0.27450980 0.65882353
v -0.14939882 0.01375394 -15.42951298 0.25098039 0.27450980 0.65882353
v -0.06703059 -0.01820219 -15.40074348 0.25098039 0.27450980 0.65882353
v -0.13280322 0.07139713 -15.42158699 0.25098039 0.27450980 0.65882353
v -0.14313383 0.06885807 -15.41364288 0.25098039 0.27450980 0.65882353
v -0.13918054 0.06218414 -15.41344929 0.25098039 0.27450980 0.65882353
v -0.12763479 0.06487739 -15.42264175 0.25098039 0.27450980 0.65882353
v -0.07565671 -0.02537284 -15.40399837 0.25098039 0.27450980 0.65882353
v -0.07036680 -0.02181334 -15.40465546 0.25098039 0.27450980 0.65882353
v -0.14105402 -0.01916866 -15.40581799 0.25098039 0.27450980 0.65882353
v -0.13659322 -0.02199177 -15.40059280 0.25098039 0.27450980 0.65882353
v -0.13913050 -0.02254736 -15.39752483 0.25098039 0.27450980 0.65882353
v -0.14483437 -0.02221379 -15.40360069 0.25098039 0.27450980 0.65882353
v -0.16741642 0.03518425 -15.40696144 0.25098039 0.27450980 0.65882353
v -0.16602886 -0.01176435 -15.40004349 0.25098039 0.27450980 0.65882353
v -0.16017389 -0.00738566 -15.39386082 0.25098039 0.27450980 0.65882353
v -0.16503000 0.04718537 -15.40850830 0.25098039 0.27450980 0.65882353
v -0.15610482 0.04969508 -15.40668678 0.25098039 0.27450980 0.65882353
v -0.15957348 0.05765692 -15.40854263 0.25098039 0.27450980 0.65882353
v -0.12498957 -0.00134246 -15.38611031 0.25098039 0.27450980 0.65882353
v -0.14365764 0.03849454 -15.40280342 0.25098039 0.27450980 0.65882353
v -0.14881846 0.04994826 -15.40689087 0.25098039 0.27450980 0.65882353
v -0.15267375 0.05964432 -15.40891838 0.25098039 0.27450980 0.65882353
v -0.15545267 0.06662570 -15.40926361 0.25098039 0.27450980 0.65882353
v -0.16282903 0.06332304 -15.40950394 0.25098039 0.27450980 0.65882353
v -0.07161939 -0.01877226 -15.38621140 0.25098039 0.27450980 0.65882353
v -0.07302994 -0.02544937 -15.38341904 0.25098039 0.27450980 0.65882353
v -0.16670243 0.06971563 -15.40866184 0.25098039 0.27450980 0.65882353
v -0.15802109 0.07267195 -15.40894985 0.25098039 0.27450980 0.65882353
v -0.14002338 0.05076101 -15.40802479 0.25098039 0.27450980 0.65882353
v -0.13032103 0.05152005 -15.41087532 0.25098039 0.27450980 0.65882353
v -0.13547581 0.03983988 -15.40318394 0.25098039 0.27450980 0.65882353
v -0.12472700 0.03998259 -15.40538979 0.25098039 0.27450980 0.65882353
v -0.11720154 0.00519256 -15.38568592 0.25098039 0.27450980 0.65882353
v -0.06585006 -0.04084723 -15.38297462 0.25098039 0.27450980 0.65882353
v -0.07362668 -0.03313806 -15.38516903 0.25098039 0.27450980 0.65882353
v -0.07524456 -0.03541927 -15.39015484 0.25098039 0.27450980 0.65882353
v -0.06806789 -0.04312621 -15.38596249 0.25098039 0.27450980 0.65882353
v -0.07750121 -0.02909111 -15.38705921 0.25098039 0.27450980 0.65882353
v -0.06968951 -0.02920097 -15.38300133 0.25098039 0.27450980 0.65882353
v -0.11217611 0.04100902 -15.41296482 0.25098039 0.27450980 0.65882353
v -0.10203776 -0.01465107 -15.40279293 0.25098039 0.27450980 0.65882353
v -0.11720511 0.05364238 -15.42229271 0.25098039 0.27450980 0.65882353
v -0.09695537 0.03800496 -15.42373943 0.25098039 0.27450980 0.65882353
v -0.10152325 0.04626166 -15.43265820 0.25098039 0.27450980 0.65882353
v -0.12087826 0.06673948 -15.43265152 0.25098039 0.27450980 0.65882353
v -0.10921906 0.05834236 -15.43943119 0.25098039 0.27450980 0.65882353
v -0.13122879 0.07842176 -15.43236828 0.25098039 0.27450980 0.65882353
v -0.12667370 0.07215890 -15.43147182 0.25098039 0.27450980 0.65882353
v -0.09758309 0.04957796 -15.44787693 0.25098039 0.27450980 0.65882353
v -0.06100839 -0.03904067 -15.39750099 0.25098039 0.27450980 0.65882353
v -0.06560075 -0.04163326 -15.39583778 0.25098039 0.27450980 0.65882353
v -0.13631484 0.07785697 -15.42191601 0.25098039 0.27450980 0.65882353
v -0.11063273 0.01800010 -15.45642662 0.25098039 0.27450980 0.65882353
v -0.15206283 0.02186822 -15.43595791 0.25098039 0.27450980 0.65882353
v -0.14668252 0.02310867 -15.43552017 0.25098039 0.27450980 0.65882353
v -0.17186144 0.02038147 -15.43496609 0.25098039 0.27450980 0.65882353
v -0.15935372 0.02078061 -15.43736458 0.25098039 0.27450980 0.65882353
v -0.05683506 -0.03608159 -15.39634228 0.25098039 0.27450980 0.65882353
v -0.11801921 -0.02046813 -15.39149570 0.25098039 0.27450980 0.65882353
v -0.12059665 -0.01870488 -15.39217472 0.25098039 0.27450980 0.65882353
v -0.10111420 0.02549374 -15.46979141 0.25098039 0.27450980 0.65882353
v -0.09616919 0.02021598 -15.46969318 0.25098039 0.27450980 0.65882353
v -0.08604847 0.02731074 -15.46610928 0.25098039 0.27450980 0.65882353
v -0.09071045 0.02423917 -15.47033119 0.25098039 0.27450980 0.65882353
v -0.09537417 0.03145415 -15.46994305 0.25098039 0.27450980 0.65882353
v -0.09064907 0.03506439 -15.46543598 0.25098039 0.27450980 0.65882353
v -0.15079340 0.03031633 -15.44297981 0.25098039 0.27450980 0.65882353
v -0.15406933 0.02918581 -15.44296360 0.25098039 0.27450980 0.65882353
v -0.17603745 0.02947006 -15.41589928 0.25098039 0.27450980 0.65882353
v -0.17769590 0.02344443 -15.42452145 0.25098039 0.27450980 0.65882353
v -0.08137414 0.00277849 -15.40388489 0.25098039 0.27450980 0.65882353
v -0.08766039 0.01006431 -15.39989185 0.25098039 0.27450980 0.65882353
v -0.08359945 0.00303097 -15.39718342 0.25098039 0.27450980 0.65882353
v -0.08329384 -0.00438024 -15.39066219 0.25098039 0.27450980 0.65882353
v -0.09929140 -0.01443697 -15.39759541 0.25098039 0.27450980 0.65882353
v -0.09473707 -0.01148639 -15.39677334 0.25098039 0.27450980 0.65882353
v -0.14389917 0.03765022 -15.45398712 0.25098039 0.27450980 0.65882353
v -0.13952945 0.02843627 -15.44378185 0.25098039 0.27450980 0.65882353
v -0.10013199 0.01524488 -15.45036125 0.25098039 0.27450980 0.65882353
v -0.09542292 0.01497002 -15.45111084 0.25098039 0.27450980 0.65882353
v -0.12007724 -0.00561420 -15.41252327 0.25098039 0.27450980 0.65882353
v -0.11700483 -0.00968791 -15.38307953 0.25098039 0.27450980 0.65882353
v -0.11093096 -0.00449723 -15.38296986 0.25098039 0.27450980 0.65882353
v -0.11529355 -0.01225099 -15.40734482 0.25098039 0.27450980 0.65882353
v -0.05494432 -0.03398030 -15.38814640 0.25098039 0.27450980 0.65882353
v -0.05493027 -0.03473042 -15.39324951 0.25098039 0.27450980 0.65882353
v -0.08897546 0.00214100 -15.39242458 0.25098039 0.27450980 0.65882353
v -0.14035095 -0.01175712 -15.41274738 0.25098039 0.27450980 0.65882353
v -0.12551065 -0.00784038 -15.38596153 0.25098039 0.27450980 0.65882353
v -0.11861990 -0.01600300 -15.38553429 0.25098039 0.27450980 0.65882353
v -0.16557218 -0.01196451 -15.40793419 0.25098039 0.27450980 0.65882353
v -0.14647396 0.07566291 -15.41463375 0.25098039 0.27450980 0.65882353
v -0.07343857 -0.03576377 -15.39533138 0.25098039 0.27450980 0.65882353
v -0.06873721 -0.04312658 -15.39225960 0.25098039 0.27450980 0.65882353
v -0.06311701 -0.03779754 -15.38175964 0.25098039 0.27450980 0.65882353
v -0.05868559 -0.03434169 -15.38327217 0.25098039 0.27450980 0.65882353
v -0.17823157 0.03220866 -15.43043804 0.25098039 0.27450980 0.65882353
v -0.14358787 0.02406761 -15.43473911 0.25098039 0.27450980 0.65882353
v -0.08930692 0.04001498 -15.45503712 0.25098039 0.27450980 0.65882353
v -0.08367863 0.02938835 -15.45950508 0.25098039 0.27450980 0.65882353
v -0.11224329 -0.01663351 -15.40288162 0.25098039 0.27450980 0.65882353
v -0.15172230 -0.00924687 -15.39329529 0.25098039 0.27450980 0.65882353
v -0.13792469 -0.00632800 -15.38495541 0.25098039 0.27450980 0.65882353
v -0.13577092 -0.01333735 -15.38142586 0.25098039 0.27450980 0.65882353
v -0.12815446 -0.01459680 -15.38156700 0.25098039 0.27450980 0.65882353
v -0.12241663 -0.01806169 -15.38521194 0.25098039 0.27450980 0.65882353
v -0.06054088 -0.04254616 -15.38176155 0.25098039 0.27450980 0.65882353
v -0.05622819 -0.03899598 -15.38307285 0.25098039 0.27450980 0.65882353
v -0.05245769 -0.03855242 -15.38768291 0.25098039 0.27450980 0.65882353
v -0.05238385 -0.03870723 -15.39226151 0.25098039 0.27450980 0.65882353
v -0.05520737 -0.03945443 -15.39557743 0.25098039 0.27450980 0.65882353
v -0.06285638 -0.04587265 -15.38296890 0.25098039 0.27450980 0.65882353
v -0.06448321 -0.04776898 -15.38591480 0.25098039 0.27450980 0.65882353
v -0.06631525 -0.04629939 -15.39148617 0.25098039 0.27450980 0.65882353
v -0.06091495 -0.05046401 -15.38412285 0.25098039 0.27450980 0.65882353
v -0.05614045 -0.05000285 -15.38217831 0.25098039 0.27450980 0.65882353
v -0.04582866 -0.05086790 -15.39082050 0.25098039 0.27450980 0.65882353
v -0.04830660 -0.04629012 -15.38800621 0.25098039 0.27450980 0.65882353
v -0.04790434 -0.04868239 -15.38696575 0.25098039 0.27450980 0.65882353
v -0.04600240 -0.05301518 -15.38855076 0.25098039 0.27450980 0.65882353
v -0.04433313 -0.05791688 -15.38857460 0.25098039 0.27450980 0.65882353
v -0.04362415 -0.05613162 -15.39149666 0.25098039 0.27450980 0.65882353
v -0.05144089 -0.04808166 -15.38413715 0.25098039 0.27450980 0.65882353
v -0.04900062 -0.05415924 -15.38537693 0.25098039 0.27450980 0.65882353
v -0.05239071 -0.05596988 -15.38394642 0.25098039 0.27450980 0.65882353
v -0.04966855 -0.06085981 -15.38441944 0.25098039 0.27450980 0.65882353
v -0.04651490 -0.05935470 -15.38552284 0.25098039 0.27450980 0.65882353
v -0.05370399 -0.05166456 -15.38309288 0.25098039 0.27450980 0.65882353
v -0.05236204 -0.04598520 -15.38338280 0.25098039 0.27450980 0.65882353
v -0.04329696 -0.06072176 -15.39056396 0.25098039 0.27450980 0.65882353
v -0.04353242 -0.06084447 -15.38811111 0.25098039 0.27450980 0.65882353
v -0.04551074 -0.06225980 -15.38628483 0.25098039 0.27450980 0.65882353
v -0.04517630 -0.06466803 -15.38818073 0.25098039 0.27450980 0.65882353
v -0.05016755 -0.04312058 -15.39256763 0.25098039 0.27450980 0.65882353
v -0.04632334 -0.05064565 -15.39332771 0.25098039 0.27450980 0.65882353
v -0.04544708 -0.05658957 -15.39390755 0.25098039 0.27450980 0.65882353
v -0.04502001 -0.06112034 -15.39276218 0.25098039 0.27450980 0.65882353
v -0.04893999 -0.05260334 -15.39563751 0.25098039 0.27450980 0.65882353
v -0.04791301 -0.05734711 -15.39519596 0.25098039 0.27450980 0.65882353
v -0.04799096 -0.06125284 -15.39412785 0.25098039 0.27450980 0.65882353
v -0.05225423 -0.05485089 -15.39650917 0.25098039 0.27450980 0.65882353
v -0.05067442 -0.05871048 -15.39556789 0.25098039 0.27450980 0.65882353
v -0.05709372 -0.04413208 -15.39639664 0.25098039 0.27450980 0.65882353
v -0.05359264 -0.04201991 -15.39566517 0.25098039 0.27450980 0.65882353
v -0.04992332 -0.06123366 -15.39514065 0.25098039 0.27450980 0.65882353
v -0.04669547 -0.06525663 -15.38979340 0.25098039 0.27450980 0.65882353
v -0.05602950 -0.05589563 -15.38425922 0.25098039 0.27450980 0.65882353
v -0.05237286 -0.06177247 -15.38599205 0.25098039 0.27450980 0.65882353
v -0.05784637 -0.05654753 -15.38563538 0.25098039 0.27450980 0.65882353
v -0.05443132 -0.06251656 -15.38704491 0.25098039 0.27450980 0.65882353
v -0.04943755 -0.06529364 -15.38616371 0.25098039 0.27450980 0.65882353
v -0.04806474 -0.06321988 -15.38544750 0.25098039 0.27450980 0.65882353
v -0.05990648 -0.04119544 -15.39662838 0.25098039 0.27450980 0.65882353
v -0.06444924 -0.04416448 -15.39478874 0.25098039 0.27450980 0.65882353
v -0.06215976 -0.04699999 -15.39465523 0.25098039 0.27450980 0.65882353
v -0.05622977 -0.05695459 -15.39537811 0.25098039 0.27450980 0.65882353
v -0.06404537 -0.04949972 -15.39187050 0.25098039 0.27450980 0.65882353
v -0.06242847 -0.05201728 -15.38714504 0.25098039 0.27450980 0.65882353
v -0.05873014 -0.05796569 -15.38803768 0.25098039 0.27450980 0.65882353
v -0.05879171 -0.05816992 -15.39132404 0.25098039 0.27450980 0.65882353
v -0.05566981 -0.06233205 -15.38913727 0.25098039 0.27450980 0.65882353
v -0.05545782 -0.06154452 -15.39148617 0.25098039 0.27450980 0.65882353
v -0.05355661 -0.06053362 -15.39451885 0.25098039 0.27450980 0.65882353
v -0.05242184 -0.06467849 -15.39030266 0.25098039 0.27450980 0.65882353
v -0.05087492 -0.06546330 -15.38790512 0.25098039 0.27450980 0.65882353
v -0.04921865 -0.06429164 -15.39200783 0.25098039 0.27450980 0.65882353
v -0.05340010 -0.06357273 -15.39170837 0.25098039 0.27450980 0.65882353
v -0.05107337 -0.06264555 -15.39322758 0.25098039 0.27450980 0.65882353
v -0.09093180 -0.04515651 -15.38556767 0.25098039 0.27450980 0.65882353
v -0.09658250 -0.04754521 -15.38395023 0.25098039 0.27450980 0.65882353
v -0.09796476 -0.04226133 -15.38489628 0.25098039 0.27450980 0.65882353
v -0.09299235 -0.04078328 -15.38628578 0.25098039 0.27450980 0.65882353
v -0.08557428 -0.03970075 -15.37471962 0.25098039 0.27450980 0.65882353
v -0.08532012 -0.04129868 -15.38020420 0.25098039 0.27450980 0.65882353
v -0.08666843 -0.03651775 -15.38039684 0.25098039 0.27450980 0.65882353
v -0.08813557 -0.03484930 -15.37438965 0.25098039 0.27450980 0.65882353
v -0.09021197 -0.04011783 -15.37009716 0.25098039 0.27450980 0.65882353
v -0.09304205 -0.03503678 -15.36996937 0.25098039 0.27450980 0.65882353
v -0.08976255 -0.03011272 -15.37521458 0.25098039 0.27450980 0.65882353
v -0.08883283 -0.03170712 -15.38200760 0.25098039 0.27450980 0.65882353
v -0.09811024 -0.01492744 -15.39065552 0.25098039 0.27450980 0.65882353
v -0.09915470 -0.01287166 -15.38379192 0.25098039 0.27450980 0.65882353
v -0.11342353 -0.02302585 -15.39405537 0.25098039 0.27450980 0.65882353
v -0.11398079 -0.02324594 -15.39013958 0.25098039 0.27450980 0.65882353
v -0.08771203 -0.04342373 -15.38404369 0.25098039 0.27450980 0.65882353
v -0.08925940 -0.03884175 -15.38427830 0.25098039 0.27450980 0.65882353
v -0.10654014 -0.04001759 -15.38137245 0.25098039 0.27450980 0.65882353
v -0.10402033 -0.04015266 -15.38612270 0.25098039 0.27450980 0.65882353
v -0.10187709 -0.04420084 -15.38294601 0.25098039 0.27450980 0.65882353
v -0.10384168 -0.04382005 -15.37776756 0.25098039 0.27450980 0.65882353
v -0.10312110 -0.01815930 -15.39715672 0.25098039 0.27450980 0.65882353
v -0.10908957 -0.02018389 -15.39655685 0.25098039 0.27450980 0.65882353
v -0.09999351 -0.01719140 -15.39481258 0.25098039 0.27450980 0.65882353
v -0.10646474 -0.03797212 -15.37519455 0.25098039 0.27450980 0.65882353
v -0.10280447 -0.03437760 -15.37056541 0.25098039 0.27450980 0.65882353
v -0.11118375 -0.01774023 -15.37771988 0.25098039 0.27450980 0.65882353
v -0.11424066 -0.02169034 -15.38178730 0.25098039 0.27450980 0.65882353
v -0.09055822 -0.03431730 -15.38667107 0.25098039 0.27450980 0.65882353
v -0.09951630 -0.03890670 -15.38877773 0.25098039 0.27450980 0.65882353
v -0.09467645 -0.03707678 -15.38938618 0.25098039 0.27450980 0.65882353
v -0.09576276 -0.03091379 -15.37123775 0.25098039 0.27450980 0.65882353
v -0.09937160 -0.03922385 -15.36910248 0.25098039 0.27450980 0.65882353
v -0.09446734 -0.05805710 -15.36975956 0.25098039 0.27450980 0.65882353
v -0.10054094 -0.04700984 -15.37145710 0.25098039 0.27450980 0.65882353
v -0.10137521 -0.04882765 -15.37609673 0.25098039 0.27450980 0.65882353
v -0.09611604 -0.06059076 -15.37360764 0.25098039 0.27450980 0.65882353
v -0.10328414 -0.04231413 -15.37249947 0.25098039 0.27450980 0.65882353
v -0.09637658 -0.04353314 -15.36888409 0.25098039 0.27450980 0.65882353
v -0.08665051 -0.06020893 -15.38342857 0.25098039 0.27450980 0.65882353
v -0.09221300 -0.06248580 -15.38160706 0.25098039 0.27450980 0.65882353
v -0.08269891 -0.05817886 -15.38240051 0.25098039 0.27450980 0.65882353
v -0.10481891 -0.01368720 -15.37824631 0.25098039 0.27450980 0.65882353
v -0.08048131 -0.05234506 -15.37410831 0.25098039 0.27450980 0.65882353
v -0.08049628 -0.05541647 -15.37990475 0.25098039 0.27450980 0.65882353
v -0.10035101 -0.04912776 -15.38095665 0.25098039 0.27450980 0.65882353
v -0.09534706 -0.06262681 -15.37779427 0.25098039 0.27450980 0.65882353
v -0.09106195 -0.05547065 -15.36795616 0.25098039 0.27450980 0.65882353
v -0.08519055 -0.05154986 -15.36925220 0.25098039 0.27450980 0.65882353
v -0.08853152 -0.06091944 -15.36790752 0.25098039 0.27450980 0.65882353
v -0.08298425 -0.05793994 -15.36915398 0.25098039 0.27450980 0.65882353
v -0.07849395 -0.05845503 -15.37404060 0.25098039 0.27450980 0.65882353
v -0.07925360 -0.06050106 -15.37940121 0.25098039 0.27450980 0.65882353
v -0.08170265 -0.06205567 -15.38199997 0.25098039 0.27450980 0.65882353
v -0.09161282 -0.06346118 -15.36948967 0.25098039 0.27450980 0.65882353
v -0.09352942 -0.06581134 -15.37297440 0.25098039 0.27450980 0.65882353
v -0.09359947 -0.06555882 -15.37779236 0.25098039 0.27450980 0.65882353
v -0.08994266 -0.07070972 -15.37055683 0.25098039 0.27450980 0.65882353
v -0.08610016 -0.06983660 -15.36853981 0.25098039 0.27450980 0.65882353
v -0.07409514 -0.07948080 -15.37786865 0.25098039 0.27450980 0.65882353
v -0.07512191 -0.07357663 -15.37694168 0.25098039 0.27450980 0.65882353
v -0.07575339 -0.07440209 -15.37449551 0.25098039 0.27450980 0.65882353
v -0.07491894 -0.07980999 -15.37516975 0.25098039 0.27450980 0.65882353
v -0.07599984 -0.06802180 -15.37399292 0.25098039 0.27450980 0.65882353
v -0.07674296 -0.07022275 -15.37275887 0.25098039 0.27450980 0.65882353
v -0.08032553 -0.06978662 -15.36996269 0.25098039 0.27450980 0.65882353
v -0.07925916 -0.07569081 -15.37132168 0.25098039 0.27450980 0.65882353
v -0.08379734 -0.07615733 -15.37005234 0.25098039 0.27450980 0.65882353
v -0.08238105 -0.08181512 -15.36989880 0.25098039 0.27450980 0.65882353
v -0.07775617 -0.08136135 -15.37118912 0.25098039 0.27450980 0.65882353
v -0.08344688 -0.07194951 -15.36910152 0.25098039 0.27450980 0.65882353
v -0.07492134 -0.08349007 -15.37488842 0.25098039 0.27450980 0.65882353
v -0.07492512 -0.08509046 -15.37695122 0.25098039 0.27450980 0.65882353
v -0.08045672 -0.06670703 -15.36924267 0.25098039 0.27450980 0.65882353
v -0.07754193 -0.06466588 -15.37887001 0.25098039 0.27450980 0.65882353
v -0.07584323 -0.07373628 -15.37988758 0.25098039 0.27450980 0.65882353
v -0.07546808 -0.08048171 -15.38060284 0.25098039 0.27450980 0.65882353
v -0.07712707 -0.08623692 -15.37876415 0.25098039 0.27450980 0.65882353
v -0.07877834 -0.07520345 -15.38247490 0.25098039 0.27450980 0.65882353
v -0.07813159 -0.08143139 -15.38221359 0.25098039 0.27450980 0.65882353
v -0.07957861 -0.08582078 -15.37999725 0.25098039 0.27450980 0.65882353
v -0.08295228 -0.07680085 -15.38389206 0.25098039 0.27450980 0.65882353
v -0.08211555 -0.08261809 -15.38280201 0.25098039 0.27450980 0.65882353
v -0.08527607 -0.06588639 -15.38324261 0.25098039 0.27450980 0.65882353
v -0.08076173 -0.06488717 -15.38240814 0.25098039 0.27450980 0.65882353
v -0.08154555 -0.08485672 -15.38109493 0.25098039 0.27450980 0.65882353
v -0.07740533 -0.08749892 -15.37332916 0.25098039 0.27450980 0.65882353
v -0.07951981 -0.08841313 -15.37598515 0.25098039 0.27450980 0.65882353
v -0.07724528 -0.08555019 -15.37251377 0.25098039 0.27450980 0.65882353
v -0.08586305 -0.07651573 -15.37032413 0.25098039 0.27450980 0.65882353
v -0.08418223 -0.08272296 -15.37118530 0.25098039 0.27450980 0.65882353
v -0.08814222 -0.07739325 -15.37174416 0.25098039 0.27450980 0.65882353
v -0.08569133 -0.08390152 -15.37286568 0.25098039 0.27450980 0.65882353
v -0.08183464 -0.08682574 -15.37185287 0.25098039 0.27450980 0.65882353
v -0.08049637 -0.08593062 -15.37109661 0.25098039 0.27450980 0.65882353
v -0.08591110 -0.06316715 -15.38251305 0.25098039 0.27450980 0.65882353
v -0.09104306 -0.06474847 -15.38089180 0.25098039 0.27450980 0.65882353
v -0.09039228 -0.06713903 -15.38149643 0.25098039 0.27450980 0.65882353
v -0.08753537 -0.07786921 -15.38174152 0.25098039 0.27450980 0.65882353
v -0.09301686 -0.06833264 -15.37785912 0.25098039 0.27450980 0.65882353
v -0.09208229 -0.07068318 -15.37338924 0.25098039 0.27450980 0.65882353
v -0.08991168 -0.07761237 -15.37391853 0.25098039 0.27450980 0.65882353
v -0.08996315 -0.07827960 -15.37779331 0.25098039 0.27450980 0.65882353
v -0.08759114 -0.08431217 -15.37410450 0.25098039 0.27450980 0.65882353
v -0.08821365 -0.08298251 -15.37697792 0.25098039 0.27450980 0.65882353
v -0.08581258 -0.08298025 -15.38118076 0.25098039 0.27450980 0.65882353
v -0.08472353 -0.08796278 -15.37487411 0.25098039 0.27450980 0.65882353
v -0.08301942 -0.08772090 -15.37304974 0.25098039 0.27450980 0.65882353
v -0.08118200 -0.08780342 -15.37754536 0.25098039 0.27450980 0.65882353
v -0.08601904 -0.08624950 -15.37704849 0.25098039 0.27450980 0.65882353
v -0.08333760 -0.08615227 -15.37948322 0.25098039 0.27450980 0.65882353
v -0.11723837 -0.04557622 -15.38379288 0.25098039 0.27450980 0.65882353
v -0.12222366 -0.04699087 -15.38645267 0.25098039 0.27450980 0.65882353
v -0.12329685 -0.04296346 -15.38734341 0.25098039 0.27450980 0.65882353
v -0.11841159 -0.04158759 -15.38450336 0.25098039 0.27450980 0.65882353
v -0.12020005 -0.04329370 -15.37172890 0.25098039 0.27450980 0.65882353
v -0.11655544 -0.04386741 -15.37495708 0.25098039 0.27450980 0.65882353
v -0.11763865 -0.03942479 -15.37570000 0.25098039 0.27450980 0.65882353
v -0.12163638 -0.03760828 -15.37238026 0.25098039 0.27450980 0.65882353
v -0.12504101 -0.04566036 -15.37076378 0.25098039 0.27450980 0.65882353
v -0.12745175 -0.03812211 -15.37129879 0.25098039 0.27450980 0.65882353
v -0.12272806 -0.03208134 -15.37290096 0.25098039 0.27450980 0.65882353
v -0.11859588 -0.03499439 -15.37654877 0.25098039 0.27450980 0.65882353
v -0.12184493 -0.02173981 -15.38315582 0.25098039 0.27450980 0.65882353
v -0.12634718 -0.01985536 -15.37818432 0.25098039 0.27450980 0.65882353
v -0.11581491 -0.04467631 -15.37953281 0.25098039 0.27450980 0.65882353
v -0.11672375 -0.04081615 -15.38023758 0.25098039 0.27450980 0.65882353
v -0.13298723 -0.04142620 -15.38756943 0.25098039 0.27450980 0.65882353
v -0.12867102 -0.04108521 -15.38991070 0.25098039 0.27450980 0.65882353
v -0.12848780 -0.04439350 -15.38726616 0.25098039 0.27450980 0.65882353
v -0.13205978 -0.04480242 -15.38492203 0.25098039 0.27450980 0.65882353
v -0.12353528 -0.02335862 -15.39406109 0.25098039 0.27450980 0.65882353
v -0.12927753 -0.02345131 -15.39600086 0.25098039 0.27450980 0.65882353
v -0.12090129 -0.02382426 -15.38909054 0.25098039 0.27450980 0.65882353
v -0.13565338 -0.04011147 -15.38181973 0.25098039 0.27450980 0.65882353
v -0.13494402 -0.03614114 -15.37567902 0.25098039 0.27450980 0.65882353
v -0.13940287 -0.02366767 -15.38221455 0.25098039 0.27450980 0.65882353
v -0.13949087 -0.02547479 -15.38840008 0.25098039 0.27450980 0.65882353
v -0.11728424 -0.03720153 -15.38126183 0.25098039 0.27450980 0.65882353
v -0.12372053 -0.03952939 -15.38967991 0.25098039 0.27450980 0.65882353
v -0.11880277 -0.03870156 -15.38646793 0.25098039 0.27450980 0.65882353
v -0.12893301 -0.03274107 -15.37276649 0.25098039 0.27450980 0.65882353
v -0.13245447 -0.04155337 -15.37450981 0.25098039 0.27450980 0.65882353
v -0.12719995 -0.06424166 -15.37496948 0.25098039 0.27450980 0.65882353
v -0.13281247 -0.04855027 -15.37867165 0.25098039 0.27450980 0.65882353
v -0.13069102 -0.04925978 -15.38386917 0.25098039 0.27450980 0.65882353
v -0.12684889 -0.06501094 -15.37929153 0.25098039 0.27450980 0.65882353
v -0.13411041 -0.04459831 -15.37998772 0.25098039 0.27450980 0.65882353
v -0.13069189 -0.04696310 -15.37352371 0.25098039 0.27450980 0.65882353
v -0.11373320 -0.06130711 -15.38216782 0.25098039 0.27450980 0.65882353
v -0.11882934 -0.06240660 -15.38419533 0.25098039 0.27450980 0.65882353
v -0.11230773 -0.05920075 -15.37853909 0.25098039 0.27450980 0.65882353
v -0.13359699 -0.02019224 -15.37718391 0.25098039 0.27450980 0.65882353
v -0.13586038 -0.02520222 -15.39424419 0.25098039 0.27450980 0.65882353
v -0.11424977 -0.05895076 -15.37123489 0.25098039 0.27450980 0.65882353
v -0.11220075 -0.05881584 -15.37513161 0.25098039 0.27450980 0.65882353
v -0.12737969 -0.04828627 -15.38634109 0.25098039 0.27450980 0.65882353
v -0.12404179 -0.06429066 -15.38288498 0.25098039 0.27450980 0.65882353
v -0.12516880 -0.06197963 -15.37119579 0.25098039 0.27450980 0.65882353
v -0.11997092 -0.05915898 -15.36914062 0.25098039 0.27450980 0.65882353
v -0.12361220 -0.06796627 -15.37154198 0.25098039 0.27450980 0.65882353
v -0.11830723 -0.06548548 -15.36962414 0.25098039 0.27450980 0.65882353
v -0.11281456 -0.06519674 -15.37164211 0.25098039 0.27450980 0.65882353
v -0.11104888 -0.06448260 -15.37554264 0.25098039 0.27450980 0.65882353
v -0.11121139 -0.06436533 -15.37890720 0.25098039 0.27450980 0.65882353
v -0.12544341 -0.06972584 -15.37569141 0.25098039 0.27450980 0.65882353
v -0.12496493 -0.06985649 -15.37960243 0.25098039 0.27450980 0.65882353
v -0.12283351 -0.06651926 -15.38258648 0.25098039 0.27450980 0.65882353
v -0.12433684 -0.07405575 -15.37737370 0.25098039 0.27450980 0.65882353
v -0.12128296 -0.07509524 -15.37288761 0.25098039 0.27450980 0.65882353
v -0.10800315 -0.08413322 -15.37782383 0.25098039 0.27450980 0.65882353
v -0.10926796 -0.07847738 -15.37641907 0.25098039 0.27450980 0.65882353
v -0.11010338 -0.07910810 -15.37562847 0.25098039 0.27450980 0.65882353
v -0.10893360 -0.08481407 -15.37636185 0.25098039 0.27450980 0.65882353
v -0.11152634 -0.07301864 -15.37290955 0.25098039 0.27450980 0.65882353
v -0.11200094 -0.07505083 -15.37307644 0.25098039 0.27450980 0.65882353
v -0.11570744 -0.07515754 -15.37187958 0.25098039 0.27450980 0.65882353
v -0.11437367 -0.08137740 -15.37348557 0.25098039 0.27450980 0.65882353
v -0.11963755 -0.08117846 -15.37629986 0.25098039 0.27450980 0.65882353
v -0.11760314 -0.08576146 -15.37747383 0.25098039 0.27450980 0.65882353
v -0.11297883 -0.08646017 -15.37477970 0.25098039 0.27450980 0.65882353
v -0.11962861 -0.07652770 -15.37327671 0.25098039 0.27450980 0.65882353
v -0.10929023 -0.08797733 -15.37700367 0.25098039 0.27450980 0.65882353
v -0.10725127 -0.08859369 -15.37776661 0.25098039 0.27450980 0.65882353
v -0.11635441 -0.07289097 -15.37082958 0.25098039 0.27450980 0.65882353
v -0.10917056 -0.07018067 -15.37612057 0.25098039 0.27450980 0.65882353
v -0.10765249 -0.07746592 -15.37862873 0.25098039 0.27450980 0.65882353
v -0.10593706 -0.08317503 -15.38044930 0.25098039 0.27450980 0.65882353
v -0.10699137 -0.08757883 -15.38144875 0.25098039 0.27450980 0.65882353
v -0.10841408 -0.07665306 -15.38220215 0.25098039 0.27450980 0.65882353
v -0.10729034 -0.08214113 -15.38319874 0.25098039 0.27450980 0.65882353
v -0.10810800 -0.08604805 -15.38416195 0.25098039 0.27450980 0.65882353
v -0.11039379 -0.07638860 -15.38475609 0.25098039 0.27450980 0.65882353
v -0.10958065 -0.08143325 -15.38550854 0.25098039 0.27450980 0.65882353
v -0.11278020 -0.06689419 -15.38237858 0.25098039 0.27450980 0.65882353
v -0.11014915 -0.06815538 -15.37949657 0.25098039 0.27450980 0.65882353
v -0.10964225 -0.08477239 -15.38544846 0.25098039 0.27450980 0.65882353
v -0.11142164 -0.09104188 -15.37787151 0.25098039 0.27450980 0.65882353
v -0.11171393 -0.09057212 -15.38228989 0.25098039 0.27450980 0.65882353
v -0.11199513 -0.08915278 -15.37696171 0.25098039 0.27450980 0.65882353
v -0.12120707 -0.08050421 -15.37728691 0.25098039 0.27450980 0.65882353
v -0.11903401 -0.08654979 -15.37935925 0.25098039 0.27450980 0.65882353
v -0.12217376 -0.07982542 -15.37994385 0.25098039 0.27450980 0.65882353
v -0.11999227 -0.08590011 -15.38187885 0.25098039 0.27450980 0.65882353
v -0.11635585 -0.09001899 -15.37916660 0.25098039 0.27450980 0.65882353
v -0.11579983 -0.08916932 -15.37818241 0.25098039 0.27450980 0.65882353
v -0.11379549 -0.06402989 -15.38188457 0.25098039 0.27450980 0.65882353
v -0.11841272 -0.06491938 -15.38365364 0.25098039 0.27450980 0.65882353
v -0.11713184 -0.06740808 -15.38414097 0.25098039 0.27450980 0.65882353
v -0.11434381 -0.07740009 -15.38676548 0.25098039 0.27450980 0.65882353
v -0.12146264 -0.06890927 -15.38348198 0.25098039 0.27450980 0.65882353
v -0.12353731 -0.07378308 -15.38100815 0.25098039 0.27450980 0.65882353
v -0.12118818 -0.07912968 -15.38297081 0.25098039 0.27450980 0.65882353
v -0.11855772 -0.07865711 -15.38565922 0.25098039 0.27450980 0.65882353
v -0.11929993 -0.08467779 -15.38426018 0.25098039 0.27450980 0.65882353
v -0.11750998 -0.08287588 -15.38560867 0.25098039 0.27450980 0.65882353
v -0.11309226 -0.08207753 -15.38740921 0.25098039 0.27450980 0.65882353
v -0.11627856 -0.08764710 -15.38421917 0.25098039 0.27450980 0.65882353
v -0.11687507 -0.08957586 -15.38197041 0.25098039 0.27450980 0.65882353
v -0.11184803 -0.08835320 -15.38486290 0.25098039 0.27450980 0.65882353
v -0.11554649 -0.08572069 -15.38577461 0.25098039 0.27450980 0.65882353
v -0.11220551 -0.08607079 -15.38630676 0.25098039 0.27450980 0.65882353
v -0.13328025 -0.02423402 -15.39642906 0.25098039 0.27450980 0.65882353
v -0.14983362 -0.04588087 -15.39904594 0.25098039 0.27450980 0.65882353
v -0.15286498 -0.04607010 -15.40160561 0.25098039 0.27450980 0.65882353
v -0.15378299 -0.04204752 -15.40160561 0.25098039 0.27450980 0.65882353
v -0.15033826 -0.04128645 -15.39987850 0.25098039 0.27450980 0.65882353
v -0.15300757 -0.04431763 -15.38874340 0.25098039 0.27450980 0.65882353
v -0.14985706 -0.04517237 -15.39173508 0.25098039 0.27450980 0.65882353
v -0.14982814 -0.04038135 -15.39164734 0.25098039 0.27450980 0.65882353
v -0.15289806 -0.03962214 -15.38869953 0.25098039 0.27450980 0.65882353
v -0.15779094 -0.04443606 -15.38846207 0.25098039 0.27450980 0.65882353
v -0.15793259 -0.03992440 -15.38870907 0.25098039 0.27450980 0.65882353
v -0.15283906 -0.03607346 -15.38834572 0.25098039 0.27450980 0.65882353
v -0.14949244 -0.03661059 -15.39171600 0.25098039 0.27450980 0.65882353
v -0.14829220 -0.02088565 -15.39449501 0.25098039 0.27450980 0.65882353
v -0.15243727 -0.01837094 -15.39150429 0.25098039 0.27450980 0.65882353
v -0.16401607 -0.01779189 -15.40632153 0.25098039 0.27450980 0.65882353
v -0.15891114 -0.01750426 -15.41059685 0.25098039 0.27450980 0.65882353
v -0.15921348 -0.02568567 -15.40643501 0.25098039 0.27450980 0.65882353
v -0.16327500 -0.02428078 -15.40355206 0.25098039 0.27450980 0.65882353
v -0.14898166 -0.04565096 -15.39546967 0.25098039 0.27450980 0.65882353
v -0.14863372 -0.04115373 -15.39633560 0.25098039 0.27450980 0.65882353
v -0.16272329 -0.03736010 -15.40082264 0.25098039 0.27450980 0.65882353
v -0.15870166 -0.03823817 -15.40280914 0.25098039 0.27450980 0.65882353
v -0.15755768 -0.04184591 -15.40271664 0.25098039 0.27450980 0.65882353
v -0.16176611 -0.04191392 -15.40121460 0.25098039 0.27450980 0.65882353
v -0.15333018 -0.01897396 -15.41020870 0.25098039 0.27450980 0.65882353
v -0.14894436 -0.01943268 -15.40787411 0.25098039 0.27450980 0.65882353
v -0.14911649 -0.02375290 -15.40636349 0.25098039 0.27450980 0.65882353
v -0.15431303 -0.02649620 -15.40674686 0.25098039 0.27450980 0.65882353
v -0.14650437 -0.02360256 -15.40171814 0.25098039 0.27450980 0.65882353
v -0.16436689 -0.03702282 -15.39731312 0.25098039 0.27450980 0.65882353
v -0.16332379 -0.03646794 -15.39192104 0.25098039 0.27450980 0.65882353
v -0.16555180 -0.02002742 -15.39506912 0.25098039 0.27450980 0.65882353
v -0.16550946 -0.02127215 -15.39960384 0.25098039 0.27450980 0.65882353
v -0.14827648 -0.03793997 -15.39588737 0.25098039 0.27450980 0.65882353
v -0.15451780 -0.03884907 -15.40229511 0.25098039 0.27450980 0.65882353
v -0.15061361 -0.03865251 -15.40024185 0.25098039 0.27450980 0.65882353
v -0.15848500 -0.03624958 -15.38816738 0.25098039 0.27450980 0.65882353
v -0.16266876 -0.04079086 -15.39210129 0.25098039 0.27450980 0.65882353
v -0.16275951 -0.05527962 -15.39710999 0.25098039 0.27450980 0.65882353
v -0.16359095 -0.04537401 -15.39749908 0.25098039 0.27450980 0.65882353
v -0.16101080 -0.04617392 -15.40147209 0.25098039 0.27450980 0.65882353
v -0.16132195 -0.05567906 -15.39958572 0.25098039 0.27450980 0.65882353
v -0.16378629 -0.04133528 -15.39732933 0.25098039 0.27450980 0.65882353
v -0.16252047 -0.04509500 -15.39204693 0.25098039 0.27450980 0.65882353
v -0.14964114 -0.05548364 -15.39863300 0.25098039 0.27450980 0.65882353
v -0.15387550 -0.05527171 -15.40137386 0.25098039 0.27450980 0.65882353
v -0.14873096 -0.05513372 -15.39561176 0.25098039 0.27450980 0.65882353
v -0.15941390 -0.01855225 -15.39064503 0.25098039 0.27450980 0.65882353
v -0.15248027 -0.05459806 -15.38928127 0.25098039 0.27450980 0.65882353
v -0.14935441 -0.05535354 -15.39213181 0.25098039 0.27450980 0.65882353
v -0.15669003 -0.04623813 -15.40254593 0.25098039 0.27450980 0.65882353
v -0.15820125 -0.05539183 -15.40135956 0.25098039 0.27450980 0.65882353
v -0.16207656 -0.05482839 -15.39302254 0.25098039 0.27450980 0.65882353
v -0.15785453 -0.05410112 -15.38892078 0.25098039 0.27450980 0.65882353
v -0.16126871 -0.05958007 -15.39312172 0.25098039 0.27450980 0.65882353
v -0.15673417 -0.05845417 -15.38929367 0.25098039 0.27450980 0.65882353
v -0.15109533 -0.05917329 -15.39017200 0.25098039 0.27450980 0.65882353
v -0.14894244 -0.05860606 -15.39304447 0.25098039 0.27450980 0.65882353
v -0.14831403 -0.05839989 -15.39615345 0.25098039 0.27450980 0.65882353
v -0.16209051 -0.05972832 -15.39721394 0.25098039 0.27450980 0.65882353
v -0.16067523 -0.05954446 -15.39985371 0.25098039 0.27450980 0.65882353
v -0.15777706 -0.05842832 -15.40186882 0.25098039 0.27450980 0.65882353
v -0.16124895 -0.06427082 -15.39754772 0.25098039 0.27450980 0.65882353
v -0.15981260 -0.06592466 -15.39333248 0.25098039 0.27450980 0.65882353
v -0.14891511 -0.07393548 -15.39504242 0.25098039 0.27450980 0.65882353
v -0.14907956 -0.06986621 -15.39421463 0.25098039 0.27450980 0.65882353
v -0.14999026 -0.07008362 -15.39337730 0.25098039 0.27450980 0.65882353
v -0.14924985 -0.07417268 -15.39391518 0.25098039 0.27450980 0.65882353
v -0.15045635 -0.06516917 -15.39179611 0.25098039 0.27450980 0.65882353
v -0.15147501 -0.06650305 -15.39170647 0.25098039 0.27450980 0.65882353
v -0.15482777 -0.06555013 -15.39129162 0.25098039 0.27450980 0.65882353
v -0.15401503 -0.07073085 -15.39210701 0.25098039 0.27450980 0.65882353
v -0.15854490 -0.07151626 -15.39487648 0.25098039 0.27450980 0.65882353
v -0.15736482 -0.07559869 -15.39523029 0.25098039 0.27450980 0.65882353
v -0.15357101 -0.07453616 -15.39249992 0.25098039 0.27450980 0.65882353
v -0.15837097 -0.06739686 -15.39265919 0.25098039 0.27450980 0.65882353
v -0.14979734 -0.07691036 -15.39370728 0.25098039 0.27450980 0.65882353
v -0.14901803 -0.07797392 -15.39444447 0.25098039 0.27450980 0.65882353
v -0.15516165 -0.06388329 -15.39041519 0.25098039 0.27450980 0.65882353
v -0.14805961 -0.06316666 -15.39453316 0.25098039 0.27450980 0.65882353
v -0.14758575 -0.07007872 -15.39619446 0.25098039 0.27450980 0.65882353
v -0.14777255 -0.07517798 -15.39674282 0.25098039 0.27450980 0.65882353
v -0.14923102 -0.07874453 -15.39671230 0.25098039 0.27450980 0.65882353
v -0.14763869 -0.06877582 -15.39863873 0.25098039 0.27450980 0.65882353
v -0.14759201 -0.07490730 -15.39924335 0.25098039 0.27450980 0.65882353
v -0.14928289 -0.07818475 -15.39937973 0.25098039 0.27450980 0.65882353
v -0.14894032 -0.06782424 -15.40170193 0.25098039 0.27450980 0.65882353
v -0.14905751 -0.07377794 -15.40145588 0.25098039 0.27450980 0.65882353
v -0.14973524 -0.06072197 -15.40062523 0.25098039 0.27450980 0.65882353
v -0.14821941 -0.06188573 -15.39762497 0.25098039 0.27450980 0.65882353
v -0.15001966 -0.07675399 -15.40060902 0.25098039 0.27450980 0.65882353
v -0.15259281 -0.07935484 -15.39416695 0.25098039 0.27450980 0.65882353
v -0.15229657 -0.07997218 -15.39722919 0.25098039 0.27450980 0.65882353
v -0.15310323 -0.07820022 -15.39332771 0.25098039 0.27450980 0.65882353
v -0.15954791 -0.07127687 -15.39600086 0.25098039 0.27450980 0.65882353
v -0.15817851 -0.07627606 -15.39665794 0.25098039 0.27450980 0.65882353
v -0.16009702 -0.07071169 -15.39852047 0.25098039 0.27450980 0.65882353
v -0.15803492 -0.07627456 -15.39894581 0.25098039 0.27450980 0.65882353
v -0.15598577 -0.07914473 -15.39596939 0.25098039 0.27450980 0.65882353
v -0.15561323 -0.07779935 -15.39447784 0.25098039 0.27450980 0.65882353
v -0.14977114 -0.05843125 -15.39985180 0.25098039 0.27450980 0.65882353
v -0.15356228 -0.05782910 -15.40159512 0.25098039 0.27450980 0.65882353
v -0.15351689 -0.06040878 -15.40234375 0.25098039 0.27450980 0.65882353
v -0.15226327 -0.06751454 -15.40356255 0.25098039 0.27450980 0.65882353
v -0.15764347 -0.06121266 -15.40235043 0.25098039 0.27450980 0.65882353
v -0.16025341 -0.06275719 -15.40013123 0.25098039 0.27450980 0.65882353
v -0.15891752 -0.06974350 -15.40096760 0.25098039 0.27450980 0.65882353
v -0.15643279 -0.06875081 -15.40311527 0.25098039 0.27450980 0.65882353
v -0.15689021 -0.07593183 -15.40096760 0.25098039 0.27450980 0.65882353
v -0.15478188 -0.07455778 -15.40283680 0.25098039 0.27450980 0.65882353
v -0.15170865 -0.07360426 -15.40325260 0.25098039 0.27450980 0.65882353
v -0.15433037 -0.07869259 -15.39990330 0.25098039 0.27450980 0.65882353
v -0.15526246 -0.07948463 -15.39829159 0.25098039 0.27450980 0.65882353
v -0.15206620 -0.07902287 -15.39941406 0.25098039 0.27450980 0.65882353
v -0.15338948 -0.07748365 -15.40136528 0.25098039 0.27450980 0.65882353
v -0.15177330 -0.07716852 -15.40123177 0.25098039 0.27450980 0.65882353
v -0.16545242 -0.01821741 -15.40226936 0.25098039 0.27450980 0.65882353
v -0.07742743 0.01602217 -15.45602608 0.25098039 0.27450980 0.65882353
v -0.08055818 0.01299878 -15.45212555 0.25098039 0.27450980 0.65882353
v -0.09057370 0.00396485 -15.46162701 0.25098039 0.27450980 0.65882353
v -0.08834511 0.00473929 -15.45503521 0.25098039 0.27450980 0.65882353
v -0.08937240 0.00547553 -15.46787643 0.25098039 0.27450980 0.65882353
v -0.08311771 0.01351866 -15.47102451 0.25098039 0.27450980 0.65882353
v -0.08732904 0.00991856 -15.47086525 0.25098039 0.27450980 0.65882353
v -0.08466500 0.00815813 -15.45175648 0.25098039 0.27450980 0.65882353
v -0.07636642 0.01810420 -15.46128750 0.25098039 0.27450980 0.65882353
v -0.07877432 0.01754008 -15.46780205 0.25098039 0.27450980 0.65882353
v -0.07078373 0.01234600 -15.46153831 0.25098039 0.27450980 0.65882353
v -0.07312776 0.01121813 -15.46859074 0.25098039 0.27450980 0.65882353
v -0.07723679 0.00693440 -15.47228718 0.25098039 0.27450980 0.65882353
v -0.08271965 0.00354483 -15.47175694 0.25098039 0.27450980 0.65882353
v -0.08568062 0.00075812 -15.46918297 0.25098039 0.27450980 0.65882353
v -0.07406804 0.01040795 -15.45568466 0.25098039 0.27450980 0.65882353
v -0.07771519 0.00743550 -15.45220089 0.25098039 0.27450980 0.65882353
v -0.08300024 0.00354457 -15.45252323 0.25098039 0.27450980 0.65882353
v -0.07087958 0.00288253 -15.45427704 0.25098039 0.27450980 0.65882353
v -0.06529035 -0.00439640 -15.45894718 0.25098039 0.27450980 0.65882353
v -0.06563835 -0.01923061 -15.47006702 0.25098039 0.27450980 0.65882353
v -0.06972706 -0.01387477 -15.47087193 0.25098039 0.27450980 0.65882353
v -0.06707326 -0.01304389 -15.46985722 0.25098039 0.27450980 0.65882353
v -0.06329864 -0.01774075 -15.46982670 0.25098039 0.27450980 0.65882353
v -0.07036510 -0.00846419 -15.47070694 0.25098039 0.27450980 0.65882353
v -0.06852001 -0.00922311 -15.46922016 0.25098039 0.27450980 0.65882353
v -0.06642270 -0.00646077 -15.46539783 0.25098039 0.27450980 0.65882353
v -0.06275403 -0.01056922 -15.46574593 0.25098039 0.27450980 0.65882353
v -0.06486028 -0.00660444 -15.46069527 0.25098039 0.27450980 0.65882353
v -0.06291847 -0.00981822 -15.45949650 0.25098039 0.27450980 0.65882353
v -0.05961347 -0.01492741 -15.46550560 0.25098039 0.27450980 0.65882353
v -0.05970570 -0.01967004 -15.46882439 0.25098039 0.27450980 0.65882353
v -0.05716217 -0.01902844 -15.46513271 0.25098039 0.27450980 0.65882353
v -0.06158930 -0.02216674 -15.46807957 0.25098039 0.27450980 0.65882353
v -0.06539717 -0.00454777 -15.46633720 0.25098039 0.27450980 0.65882353
v -0.07706469 -0.00551527 -15.47193336 0.25098039 0.27450980 0.65882353
v -0.07380091 -0.01382985 -15.47046471 0.25098039 0.27450980 0.65882353
v -0.06916939 -0.02016417 -15.46863842 0.25098039 0.27450980 0.65882353
v -0.06411090 -0.02332034 -15.46623230 0.25098039 0.27450980 0.65882353
v -0.07747810 -0.01428989 -15.46759510 0.25098039 0.27450980 0.65882353
v -0.07255022 -0.01974164 -15.46538544 0.25098039 0.27450980 0.65882353
v -0.06791225 -0.02228224 -15.46261120 0.25098039 0.27450980 0.65882353
v -0.07918146 -0.01415921 -15.46308231 0.25098039 0.27450980 0.65882353
v -0.07383862 -0.01884061 -15.46166229 0.25098039 0.27450980 0.65882353
v -0.08566251 -0.00284093 -15.46375275 0.25098039 0.27450980 0.65882353
v -0.08293970 -0.00411877 -15.46940327 0.25098039 0.27450980 0.65882353
v -0.06985463 -0.02084685 -15.46081734 0.25098039 0.27450980 0.65882353
v -0.05693252 -0.02146486 -15.46398926 0.25098039 0.27450980 0.65882353
v -0.06007317 -0.02276694 -15.46165657 0.25098039 0.27450980 0.65882353
v -0.06393671 -0.00886339 -15.45610428 0.25098039 0.27450980 0.65882353
v -0.05920172 -0.01357241 -15.45929813 0.25098039 0.27450980 0.65882353
v -0.06075858 -0.01401179 -15.45634365 0.25098039 0.27450980 0.65882353
v -0.06675440 -0.00788071 -15.45308113 0.25098039 0.27450980 0.65882353
v -0.06270754 -0.01459042 -15.45393276 0.25098039 0.27450980 0.65882353
v -0.05768880 -0.01828285 -15.45876884 0.25098039 0.27450980 0.65882353
v -0.05722530 -0.01667506 -15.46121883 0.25098039 0.27450980 0.65882353
v -0.08785605 0.00041168 -15.46346188 0.25098039 0.27450980 0.65882353
v -0.08692501 0.00173469 -15.45702744 0.25098039 0.27450980 0.65882353
v -0.08452727 -0.00112382 -15.45725155 0.25098039 0.27450980 0.65882353
v -0.07853550 -0.01187005 -15.45712852 0.25098039 0.27450980 0.65882353
v -0.08071202 -0.00012597 -15.45258331 0.25098039 0.27450980 0.65882353
v -0.07498010 0.00167017 -15.45206356 0.25098039 0.27450980 0.65882353
v -0.07035467 -0.00864734 -15.45153999 0.25098039 0.27450980 0.65882353
v -0.07496548 -0.01003015 -15.45263481 0.25098039 0.27450980 0.65882353
v -0.06637120 -0.01561102 -15.45324039 0.25098039 0.27450980 0.65882353
v -0.06937748 -0.01634001 -15.45410919 0.25098039 0.27450980 0.65882353
v -0.07265523 -0.01813341 -15.45747566 0.25098039 0.27450980 0.65882353
v -0.06403491 -0.01953386 -15.45591545 0.25098039 0.27450980 0.65882353
v -0.06028554 -0.01917754 -15.45653057 0.25098039 0.27450980 0.65882353
v -0.06451763 -0.02208739 -15.45936584 0.25098039 0.27450980 0.65882353
v -0.06702635 -0.01888342 -15.45598412 0.25098039 0.27450980 0.65882353
v -0.06801976 -0.02042663 -15.45838451 0.25098039 0.27450980 0.65882353
v -0.16072649 -0.01307030 -15.41249180 0.25098039 0.27450980 0.65882353
v -0.15421093 -0.01371106 -15.41352940 0.25098039 0.27450980 0.65882353
v -0.15815872 -0.00939657 -15.41685486 0.25098039 0.27450980 0.65882353
v -0.16199498 -0.00176262 -15.42143917 0.25098039 0.27450980 0.65882353
v -0.17019299 0.00549155 -15.42364597 0.25098039 0.27450980 0.65882353
v -0.15545638 -0.00044819 -15.42238045 0.25098039 0.27450980 0.65882353
v -0.15190822 -0.00812994 -15.41714764 0.25098039 0.27450980 0.65882353
v -0.14682300 -0.01473996 -15.41142464 0.25098039 0.27450980 0.65882353
v -0.15153864 0.00798079 -15.42673492 0.25098039 0.27450980 0.65882353
f 2 3 1
f 1 3 4
f 5 6 8
f 8 6 7
f 9 4 10
f 10 4 3
f 12 13 11
f 11 13 9
f 14 12 16
f 16 12 15
f 18 19 17
f 17 19 20
f 22 23 21
f 21 23 24
f 26 27 25
f 25 27 28
f 30 31 29
f 29 31 32
f 33 34 36
f 36 34 35
f 37 38 40
f 40 38 39
f 41 42 6
f 6 42 43
f 6 43 7
f 7 43 44
f 45 34 46
f 46 34 33
f 48 49 47
f 47 49 50
f 52 53 51
f 51 53 54
f 56 52 55
f 55 52 51
f 58 59 57
f 57 59 60
f 61 62 4
f 4 62 1
f 64 65 63
f 63 65 66
f 68 69 67
f 67 69 70
f 72 73 71
f 71 73 74
f 76 77 75
f 75 77 78
f 53 79 54
f 54 79 80
f 82 83 81
f 81 83 84
f 85 86 52
f 52 86 53
f 57 60 87
f 87 60 88
f 89 90 43
f 43 90 44
f 43 42 89
f 89 42 91
f 40 39 92
f 92 39 93
f 94 70 64
f 64 70 69
f 13 61 9
f 9 61 4
f 25 28 69
f 69 28 95
f 96 25 68
f 68 25 69
f 98 99 97
f 97 99 100
f 101 102 104
f 104 102 103
f 106 30 105
f 105 30 29
f 51 54 107
f 107 54 108
f 54 80 108
f 108 80 109
f 111 112 110
f 110 112 113
f 115 5 114
f 114 5 116
f 115 41 5
f 5 41 6
f 36 35 111
f 111 35 117
f 35 118 117
f 117 118 119
f 34 120 35
f 35 120 118
f 34 45 120
f 120 45 121
f 125 126 124
f 124 126 127
f 128 129 14
f 14 129 130
f 33 131 46
f 46 131 132
f 133 94 63
f 63 94 64
f 134 135 137
f 137 135 136
f 139 140 138
f 138 140 141
f 77 142 78
f 78 142 143
f 144 145 20
f 20 145 146
f 148 149 147
f 147 149 72
f 151 152 150
f 150 152 153
f 82 101 83
f 83 101 104
f 101 82 155
f 155 82 154
f 156 157 58
f 58 157 59
f 158 68 147
f 147 68 67
f 159 146 15
f 15 146 16
f 68 158 96
f 96 158 160
f 129 66 130
f 130 66 65
f 162 163 161
f 161 163 164
f 166 167 165
f 165 167 168
f 170 171 169
f 169 171 172
f 174 171 173
f 173 171 170
f 176 177 175
f 175 177 178
f 180 181 179
f 179 181 24
f 182 183 21
f 21 183 184
f 81 185 82
f 82 185 154
f 186 187 188
f 188 187 144
f 158 71 160
f 160 71 189
f 190 135 157
f 157 135 59
f 169 172 139
f 139 172 140
f 147 72 158
f 158 72 71
f 192 193 191
f 191 193 194
f 167 166 49
f 49 166 195
f 196 190 50
f 50 190 157
f 197 198 200
f 200 198 199
f 21 24 182
f 182 24 181
f 146 159 20
f 20 159 17
f 182 181 81
f 81 181 185
f 201 185 180
f 180 185 181
f 202 203 83
f 83 203 84
f 205 206 204
f 204 206 85
f 207 22 184
f 184 22 21
f 179 24 208
f 208 24 23
f 208 209 179
f 179 209 205
f 209 210 205
f 205 210 206
f 212 206 211
f 211 206 210
f 179 205 180
f 180 205 204
f 213 176 88
f 88 176 214
f 86 85 212
f 212 85 206
f 193 217 218
f 217 219 218
f 218 219 220
f 219 18 220
f 220 18 17
f 19 221 20
f 20 221 144
f 222 223 225
f 225 223 224
f 175 226 176
f 176 226 214
f 227 87 214
f 214 87 88
f 220 17 228
f 228 17 159
f 134 213 60
f 60 213 88
f 138 229 151
f 151 229 152
f 193 192 210
f 210 192 211
f 230 194 218
f 218 194 193
f 231 232 228
f 228 232 230
f 233 234 91
f 91 234 89
f 235 236 93
f 93 236 92
f 230 232 234
f 234 232 237
f 47 238 48
f 48 238 239
f 240 191 235
f 235 191 236
f 5 8 116
f 116 8 241
f 242 243 189
f 189 243 160
f 244 245 98
f 98 245 99
f 156 246 47
f 47 246 238
f 76 247 77
f 77 247 248
f 250 125 249
f 249 125 124
f 252 253 251
f 251 253 254
f 111 110 36
f 36 110 255
f 256 33 255
f 255 33 36
f 257 258 154
f 154 258 155
f 63 169 133
f 133 169 139
f 66 170 63
f 63 170 169
f 173 170 129
f 129 170 66
f 129 128 173
f 173 128 259
f 128 260 259
f 259 260 261
f 213 134 262
f 262 134 137
f 263 264 186
f 186 264 187
f 112 265 113
f 113 265 266
f 11 267 268
f 234 233 230
f 230 233 194
f 153 269 70
f 70 269 67
f 175 178 165
f 165 178 141
f 150 153 94
f 94 153 70
f 271 221 270
f 270 221 207
f 269 153 272
f 272 153 152
f 121 45 109
f 109 45 108
f 47 50 156
f 156 50 157
f 57 273 58
f 58 273 274
f 145 275 260
f 260 275 261
f 276 149 143
f 143 149 78
f 148 269 75
f 75 269 272
f 207 277 270
f 270 277 278
f 195 196 49
f 49 196 50
f 59 135 60
f 60 135 134
f 83 104 202
f 202 104 279
f 149 148 78
f 78 148 75
f 247 278 248
f 248 278 277
f 183 182 84
f 84 182 81
f 48 239 281
f 281 239 282
f 227 223 283
f 283 223 222
f 223 226 224
f 224 226 168
f 281 282 224
f 224 282 225
f 165 168 175
f 175 168 226
f 264 263 138
f 138 263 229
f 14 16 128
f 128 16 260
f 220 228 218
f 218 228 230
f 87 227 284
f 284 227 283
f 260 16 145
f 145 16 146
f 244 98 258
f 258 98 155
f 58 274 156
f 156 274 246
f 107 285 51
f 51 285 55
f 243 286 160
f 160 286 96
f 234 237 89
f 89 237 90
f 46 132 107
f 107 132 285
f 253 252 249
f 249 252 250
f 286 26 96
f 96 26 25
f 106 105 287
f 287 105 288
f 272 152 289
f 289 152 229
f 138 151 139
f 139 151 133
f 183 290 161
f 161 290 162
f 291 292 277
f 277 292 293
f 151 150 133
f 133 150 94
f 262 275 177
f 177 275 187
f 144 187 145
f 145 187 275
f 273 57 284
f 284 57 87
f 174 136 190
f 190 136 135
f 111 117 112
f 112 117 38
f 117 119 38
f 38 119 123
f 112 38 265
f 265 38 37
f 287 288 254
f 254 288 251
f 228 159 231
f 231 159 15
f 223 227 226
f 226 227 214
f 147 67 148
f 148 67 269
f 224 168 281
f 281 168 167
f 199 163 200
f 200 163 162
f 45 46 108
f 108 46 107
f 281 167 48
f 48 167 49
f 161 164 291
f 291 164 292
f 38 123 39
f 293 294 277
f 277 294 248
f 284 283 296
f 296 283 295
f 284 296 273
f 273 296 297
f 274 273 298
f 298 273 297
f 246 274 299
f 299 274 298
f 283 222 295
f 295 222 300
f 222 225 300
f 300 225 301
f 301 225 302
f 302 225 282
f 303 304 300
f 300 304 295
f 306 307 305
f 305 307 308
f 309 310 308
f 308 310 305
f 308 307 312
f 312 307 311
f 313 314 312
f 312 314 315
f 311 316 312
f 312 316 313
f 317 304 311
f 311 304 316
f 315 309 312
f 312 309 308
f 318 319 321
f 321 319 320
f 319 318 309
f 309 318 310
f 311 307 317
f 317 307 306
f 306 297 317
f 317 297 296
f 306 322 297
f 297 322 298
f 305 323 306
f 306 323 322
f 323 305 324
f 324 305 310
f 304 317 295
f 295 317 296
f 318 325 310
f 310 325 324
f 323 324 326
f 326 324 327
f 324 325 327
f 327 325 328
f 326 327 329
f 329 327 330
f 329 331 326
f 326 331 332
f 333 330 328
f 328 330 327
f 323 326 322
f 322 326 332
f 322 332 298
f 298 332 299
f 325 318 334
f 334 318 321
f 313 316 335
f 335 316 304
f 335 336 313
f 313 336 314
f 304 303 335
f 335 303 337
f 336 335 338
f 338 335 337
f 336 339 314
f 314 339 340
f 246 299 238
f 238 299 341
f 239 342 282
f 282 342 302
f 342 239 341
f 341 239 238
f 341 331 342
f 342 331 343
f 331 329 343
f 343 329 344
f 342 343 302
f 302 343 345
f 341 299 331
f 331 299 332
f 346 301 345
f 345 301 302
f 346 303 301
f 301 303 300
f 347 337 346
f 346 337 303
f 347 346 348
f 348 346 345
f 349 347 350
f 350 347 348
f 343 344 345
f 345 344 348
f 344 351 348
f 348 351 350
f 337 347 338
f 338 347 349
f 353 338 352
f 352 338 349
f 352 355 354
f 354 355 356
f 352 349 355
f 355 349 350
f 352 354 353
f 353 354 334
f 353 334 339
f 339 334 321
f 339 336 353
f 353 336 338
f 329 330 344
f 344 330 351
f 356 351 333
f 333 351 330
f 356 355 351
f 351 355 350
f 354 356 328
f 328 356 333
f 328 325 354
f 354 325 334
f 309 315 319
f 319 315 320
f 320 340 321
f 321 340 339
f 320 315 340
f 340 315 314
f 137 136 261
f 261 136 259
f 140 166 141
f 141 166 165
f 172 171 195
f 195 171 196
f 171 174 196
f 196 174 190
f 178 177 264
f 264 177 187
f 172 195 140
f 140 195 166
f 137 261 262
f 262 261 275
f 178 264 141
f 141 264 138
f 262 177 213
f 213 177 176
f 136 174 259
f 259 174 173
f 358 359 357
f 357 359 360
f 362 363 361
f 361 363 364
f 361 364 365
f 365 364 366
f 367 368 370
f 370 368 369
f 76 371 247
f 247 371 372
f 373 374 362
f 362 374 363
f 376 377 375
f 375 377 378
f 289 229 380
f 380 229 379
f 381 379 263
f 263 379 229
f 383 384 382
f 382 384 385
f 386 368 374
f 374 368 363
f 76 289 371
f 371 289 380
f 377 376 359
f 359 376 387
f 388 386 360
f 360 386 374
f 389 383 366
f 366 383 390
f 392 393 391
f 391 393 394
f 383 382 390
f 390 382 395
f 396 365 390
f 390 365 366
f 389 366 367
f 367 366 364
f 357 397 358
f 358 397 398
f 373 399 357
f 357 399 397
f 389 367 400
f 400 367 370
f 382 385 375
f 375 385 372
f 357 360 373
f 373 360 374
f 361 401 362
f 362 401 402
f 387 388 359
f 359 388 360
f 363 368 364
f 364 368 367
f 358 398 403
f 403 398 404
f 396 392 405
f 405 392 391
f 392 395 393
f 393 395 378
f 393 403 394
f 394 403 404
f 375 378 382
f 382 378 395
f 365 396 406
f 406 396 405
f 362 402 373
f 373 402 399
f 271 270 400
f 400 270 384
f 401 361 406
f 406 361 365
f 381 369 386
f 386 369 368
f 392 396 395
f 395 396 390
f 393 378 403
f 403 378 377
f 403 377 358
f 358 377 359
f 406 405 408
f 408 405 407
f 406 408 401
f 401 408 409
f 401 409 402
f 402 409 410
f 402 410 399
f 399 410 411
f 405 391 407
f 407 391 412
f 391 394 412
f 412 394 413
f 394 404 413
f 413 404 414
f 415 416 412
f 412 416 407
f 418 419 417
f 417 419 420
f 421 422 418
f 418 422 419
f 419 422 424
f 424 422 423
f 425 426 424
f 424 426 427
f 423 428 424
f 424 428 425
f 427 420 424
f 424 420 419
f 420 429 417
f 417 429 430
f 423 422 431
f 431 422 421
f 421 409 431
f 431 409 408
f 421 432 409
f 409 432 410
f 418 433 421
f 421 433 432
f 434 433 417
f 417 433 418
f 431 416 423
f 423 416 428
f 416 431 407
f 407 431 408
f 435 434 430
f 430 434 417
f 433 434 436
f 436 434 437
f 434 435 437
f 437 435 438
f 436 437 439
f 439 437 440
f 439 441 436
f 436 441 442
f 438 443 437
f 437 443 440
f 436 442 433
f 433 442 432
f 432 442 410
f 410 442 411
f 435 430 445
f 445 430 444
f 430 429 444
f 444 429 446
f 425 428 447
f 447 428 416
f 426 425 448
f 448 425 447
f 416 415 447
f 447 415 449
f 447 449 448
f 448 449 450
f 451 452 448
f 448 452 426
f 446 452 444
f 444 452 451
f 399 411 397
f 397 411 453
f 398 454 404
f 404 454 414
f 454 398 453
f 453 398 397
f 453 441 454
f 454 441 455
f 441 439 455
f 455 439 456
f 454 455 414
f 414 455 457
f 441 453 442
f 442 453 411
f 458 413 457
f 457 413 414
f 458 415 413
f 413 415 412
f 458 459 415
f 415 459 449
f 459 458 460
f 460 458 457
f 461 459 462
f 462 459 460
f 455 456 457
f 457 456 460
f 456 463 460
f 460 463 462
f 459 461 449
f 449 461 450
f 465 450 464
f 464 450 461
f 464 467 466
f 466 467 468
f 464 461 467
f 467 461 462
f 464 466 465
f 465 466 445
f 465 445 451
f 451 445 444
f 451 448 465
f 465 448 450
f 439 440 456
f 456 440 463
f 468 463 443
f 443 463 440
f 468 467 463
f 463 467 462
f 466 468 438
f 438 468 443
f 438 435 466
f 466 435 445
f 420 427 429
f 429 427 446
f 446 427 452
f 452 427 426
f 370 369 188
f 188 369 186
f 371 376 372
f 372 376 375
f 380 379 387
f 387 379 388
f 379 381 388
f 388 381 386
f 385 384 278
f 278 384 270
f 380 387 371
f 371 387 376
f 400 370 271
f 271 370 188
f 385 278 372
f 372 278 247
f 400 384 389
f 389 384 383
f 369 381 186
f 186 381 263
f 221 271 144
f 144 271 188
f 221 19 207
f 207 19 22
f 19 18 22
f 22 18 23
f 18 219 23
f 23 219 208
f 469 470 472
f 472 470 471
f 474 475 473
f 473 475 476
f 473 476 477
f 477 476 478
f 480 481 479
f 479 481 482
f 483 484 474
f 474 484 475
f 486 487 485
f 485 487 488
f 489 490 77
f 77 490 142
f 491 489 248
f 248 489 77
f 493 494 492
f 492 494 495
f 496 480 484
f 484 480 475
f 486 497 487
f 487 497 471
f 498 496 472
f 472 496 484
f 499 493 478
f 478 493 500
f 501 502 504
f 504 502 503
f 493 492 500
f 500 492 505
f 506 477 500
f 500 477 478
f 499 478 479
f 479 478 476
f 469 507 470
f 470 507 508
f 483 509 469
f 469 509 507
f 479 482 499
f 499 482 510
f 492 495 485
f 485 495 511
f 483 469 484
f 484 469 472
f 473 512 474
f 474 512 513
f 497 498 471
f 471 498 472
f 475 480 476
f 476 480 479
f 470 508 514
f 514 508 515
f 506 502 516
f 516 502 501
f 503 502 488
f 488 502 505
f 514 515 503
f 503 515 504
f 485 488 492
f 492 488 505
f 477 506 517
f 517 506 516
f 474 513 483
f 483 513 509
f 510 292 494
f 494 292 164
f 512 473 517
f 517 473 477
f 491 481 496
f 496 481 480
f 502 506 505
f 505 506 500
f 503 488 514
f 514 488 487
f 514 487 470
f 470 487 471
f 517 516 519
f 519 516 518
f 517 519 512
f 512 519 520
f 512 520 513
f 513 520 521
f 513 521 509
f 509 521 522
f 516 501 518
f 518 501 523
f 501 504 523
f 523 504 524
f 524 504 525
f 525 504 515
f 526 527 523
f 523 527 518
f 529 530 528
f 528 530 531
f 532 533 529
f 529 533 530
f 530 533 535
f 535 533 534
f 536 537 535
f 535 537 538
f 534 539 535
f 535 539 536
f 538 531 535
f 535 531 530
f 540 541 531
f 531 541 528
f 533 532 534
f 534 532 542
f 532 520 542
f 542 520 519
f 532 543 520
f 520 543 521
f 529 544 532
f 532 544 543
f 544 529 545
f 545 529 528
f 534 542 539
f 539 542 527
f 527 542 518
f 518 542 519
f 541 546 528
f 528 546 545
f 547 544 548
f 548 544 545
f 546 549 545
f 545 549 548
f 550 547 551
f 551 547 548
f 547 550 553
f 553 550 552
f 549 554 548
f 548 554 551
f 544 547 543
f 543 547 553
f 543 553 521
f 521 553 522
f 546 541 556
f 556 541 555
f 541 540 555
f 555 540 557
f 536 539 558
f 558 539 527
f 537 536 559
f 559 536 558
f 527 526 558
f 558 526 560
f 559 558 561
f 561 558 560
f 559 562 537
f 537 562 563
f 557 563 555
f 555 563 562
f 509 522 507
f 507 522 564
f 508 565 515
f 515 565 525
f 565 508 564
f 564 508 507
f 564 552 565
f 565 552 566
f 552 550 566
f 566 550 567
f 565 566 525
f 525 566 568
f 564 522 552
f 552 522 553
f 569 524 568
f 568 524 525
f 569 526 524
f 524 526 523
f 570 560 569
f 569 560 526
f 570 569 571
f 571 569 568
f 572 570 573
f 573 570 571
f 566 567 568
f 568 567 571
f 567 574 571
f 571 574 573
f 570 572 560
f 560 572 561
f 576 561 575
f 575 561 572
f 575 578 577
f 577 578 579
f 575 572 578
f 578 572 573
f 575 577 576
f 576 577 556
f 576 556 562
f 562 556 555
f 562 559 576
f 576 559 561
f 550 551 567
f 567 551 574
f 579 574 554
f 554 574 551
f 579 578 574
f 574 578 573
f 579 554 577
f 577 554 549
f 549 546 577
f 577 546 556
f 531 538 540
f 540 538 557
f 557 538 563
f 563 538 537
f 481 294 482
f 482 294 293
f 580 486 511
f 511 486 485
f 490 489 497
f 497 489 498
f 489 491 498
f 498 491 496
f 163 495 164
f 164 495 494
f 580 490 486
f 486 490 497
f 482 293 510
f 510 293 292
f 495 163 511
f 511 163 199
f 494 493 510
f 510 493 499
f 481 491 294
f 294 491 248
f 582 583 581
f 581 583 584
f 586 587 585
f 585 587 588
f 585 588 589
f 589 588 590
f 592 593 591
f 591 593 594
f 595 596 598
f 598 596 597
f 599 600 586
f 586 600 587
f 601 602 604
f 604 602 603
f 605 606 608
f 608 606 607
f 609 607 200
f 200 607 606
f 610 611 613
f 613 611 612
f 600 614 587
f 587 614 592
f 596 605 597
f 597 605 608
f 602 615 603
f 603 615 583
f 616 614 584
f 584 614 600
f 611 618 617
f 617 618 590
f 620 621 619
f 619 621 622
f 610 623 611
f 611 623 618
f 624 589 618
f 618 589 590
f 617 590 591
f 591 590 588
f 581 625 582
f 582 625 626
f 599 627 581
f 581 627 625
f 591 594 617
f 617 594 628
f 601 610 598
f 598 610 613
f 581 584 599
f 599 584 600
f 585 629 586
f 586 629 630
f 615 616 583
f 583 616 584
f 587 592 588
f 588 592 591
f 582 626 631
f 631 626 632
f 624 620 633
f 633 620 619
f 621 620 604
f 604 620 623
f 631 632 621
f 621 632 622
f 610 601 623
f 623 601 604
f 589 624 634
f 634 624 633
f 586 630 599
f 599 630 627
f 203 202 628
f 628 202 612
f 629 585 634
f 634 585 589
f 609 593 614
f 614 593 592
f 620 624 623
f 623 624 618
f 631 621 603
f 603 621 604
f 582 631 583
f 583 631 603
f 634 633 636
f 636 633 635
f 634 636 629
f 629 636 637
f 629 637 630
f 630 637 638
f 630 638 627
f 627 638 639
f 633 619 635
f 635 619 640
f 619 622 640
f 640 622 641
f 641 622 642
f 642 622 632
f 644 635 643
f 643 635 640
f 645 646 648
f 648 646 647
f 649 650 646
f 646 650 647
f 647 650 652
f 652 650 651
f 652 653 655
f 655 653 654
f 651 656 652
f 652 656 653
f 655 648 652
f 652 648 647
f 648 657 645
f 645 657 658
f 650 649 651
f 651 649 659
f 649 637 659
f 659 637 636
f 649 660 637
f 637 660 638
f 661 660 646
f 646 660 649
f 662 661 645
f 645 661 646
f 651 659 656
f 656 659 644
f 644 659 635
f 635 659 636
f 663 662 658
f 658 662 645
f 664 661 665
f 665 661 662
f 663 666 662
f 662 666 665
f 667 664 668
f 668 664 665
f 664 667 670
f 670 667 669
f 666 671 665
f 665 671 668
f 661 664 660
f 660 664 670
f 660 670 638
f 638 670 639
f 658 672 663
f 663 672 673
f 658 657 672
f 672 657 674
f 653 656 675
f 675 656 644
f 653 675 654
f 654 675 676
f 675 644 677
f 677 644 643
f 676 675 678
f 678 675 677
f 679 680 676
f 676 680 654
f 674 680 672
f 672 680 679
f 627 639 625
f 625 639 681
f 626 682 632
f 632 682 642
f 681 682 625
f 625 682 626
f 669 683 681
f 681 683 682
f 667 684 669
f 669 684 683
f 682 683 642
f 642 683 685
f 681 639 669
f 669 639 670
f 686 641 685
f 685 641 642
f 641 686 640
f 640 686 643
f 686 687 643
f 643 687 677
f 687 686 688
f 688 686 685
f 689 687 690
f 690 687 688
f 683 684 685
f 685 684 688
f 684 691 688
f 688 691 690
f 687 689 677
f 677 689 678
f 693 678 692
f 692 678 689
f 692 695 694
f 694 695 696
f 692 689 695
f 695 689 690
f 692 694 693
f 693 694 673
f 693 673 679
f 679 673 672
f 679 676 693
f 693 676 678
f 684 667 691
f 691 667 668
f 696 691 671
f 671 691 668
f 696 695 691
f 691 695 690
f 694 696 666
f 666 696 671
f 666 663 694
f 694 663 673
f 648 655 657
f 657 655 674
f 674 655 680
f 680 655 654
f 593 162 594
f 594 162 290
f 598 597 601
f 601 597 602
f 615 608 616
f 616 608 607
f 607 609 616
f 616 609 614
f 697 595 613
f 613 595 598
f 597 608 602
f 602 608 615
f 594 290 628
f 628 290 203
f 628 612 617
f 617 612 611
f 593 609 162
f 162 609 200
f 105 29 698
f 698 29 699
f 268 126 701
f 701 126 700
f 126 125 700
f 700 125 702
f 252 703 250
f 250 703 704
f 32 268 705
f 705 268 701
f 288 105 706
f 706 105 698
f 29 32 699
f 699 32 705
f 707 251 706
f 706 251 288
f 250 704 125
f 125 704 702
f 703 252 707
f 707 252 251
f 706 708 707
f 707 708 709
f 707 709 703
f 703 709 710
f 703 710 704
f 704 710 711
f 704 711 702
f 702 711 712
f 706 698 708
f 708 698 713
f 698 699 713
f 713 699 714
f 699 705 714
f 714 705 715
f 717 708 716
f 716 708 713
f 719 720 718
f 718 720 721
f 722 723 719
f 719 723 720
f 724 725 723
f 723 725 720
f 724 726 725
f 725 726 727
f 728 721 725
f 725 721 720
f 721 728 729
f 729 728 730
f 729 731 721
f 721 731 718
f 724 723 732
f 732 723 722
f 722 710 732
f 732 710 709
f 722 733 710
f 710 733 711
f 719 734 722
f 722 734 733
f 734 719 735
f 735 719 718
f 724 732 726
f 726 732 717
f 717 732 708
f 708 732 709
f 731 736 718
f 718 736 735
f 737 734 738
f 738 734 735
f 736 739 735
f 735 739 738
f 740 737 741
f 741 737 738
f 737 740 743
f 743 740 742
f 739 744 738
f 738 744 741
f 734 737 733
f 733 737 743
f 733 743 711
f 711 743 712
f 736 731 746
f 746 731 745
f 731 729 745
f 745 729 730
f 727 726 747
f 747 726 717
f 748 727 749
f 749 727 747
f 747 717 750
f 750 717 716
f 749 747 751
f 751 747 750
f 749 752 748
f 748 752 753
f 730 753 745
f 745 753 752
f 728 725 748
f 748 725 727
f 730 728 753
f 753 728 748
f 700 702 754
f 754 702 712
f 705 701 715
f 715 701 755
f 754 755 700
f 700 755 701
f 742 756 754
f 754 756 755
f 740 757 742
f 742 757 756
f 755 756 715
f 715 756 758
f 754 712 742
f 742 712 743
f 759 714 758
f 758 714 715
f 714 759 713
f 713 759 716
f 759 760 716
f 716 760 750
f 760 759 761
f 761 759 758
f 762 760 763
f 763 760 761
f 756 757 758
f 758 757 761
f 757 764 761
f 761 764 763
f 760 762 750
f 750 762 751
f 766 751 765
f 765 751 762
f 767 765 769
f 769 765 768
f 765 762 768
f 768 762 763
f 765 767 766
f 766 767 746
f 766 746 752
f 752 746 745
f 752 749 766
f 766 749 751
f 757 740 764
f 764 740 741
f 769 764 744
f 744 764 741
f 769 768 764
f 764 768 763
f 767 769 739
f 739 769 744
f 739 736 767
f 767 736 746
f 219 217 208
f 208 217 209
f 209 217 210
f 210 217 193
f 198 580 199
f 199 580 511
f 76 75 289
f 289 75 272
f 277 207 291
f 291 207 184
f 290 183 203
f 203 183 84
f 490 580 142
f 142 580 198
f 142 198 143
f 143 198 197
f 149 276 72
f 72 276 73
f 104 103 279
f 279 103 770
f 770 596 279
f 279 596 595
f 605 596 771
f 771 596 770
f 771 770 772
f 772 770 103
f 772 103 773
f 773 103 102
f 155 774 101
f 101 774 102
f 773 102 97
f 97 102 774
f 775 773 100
f 100 773 97
f 773 775 772
f 772 775 776
f 772 776 771
f 771 776 777
f 200 606 197
f 197 606 777
f 189 71 778
f 778 71 74
f 97 774 98
f 98 774 155
f 183 161 184
f 184 161 291
f 777 276 197
f 197 276 143
f 777 606 771
f 771 606 605
f 613 612 697
f 697 612 202
f 595 697 279
f 279 697 202
f 73 276 776
f 776 276 777
f 776 775 73
f 73 775 74
f 100 778 775
f 775 778 74
f 778 100 189
f 189 100 99
f 245 242 99
f 99 242 189
f 131 33 256
f 28 1 95
f 95 1 62
f 27 2 28
f 28 2 1
f 265 115 266
f 266 115 114
f 95 62 69
f 69 62 64
f 62 61 64
f 64 61 65
f 61 13 65
f 65 13 130
f 13 12 130
f 130 12 14
f 31 11 32
f 32 11 268
f 15 12 31
f 31 12 11
f 31 30 15
f 15 30 231
f 30 106 231
f 231 106 232
f 287 237 106
f 106 237 232
f 254 90 287
f 287 90 237
f 253 44 254
f 254 44 90
f 253 249 44
f 44 249 7
f 267 127 268
f 268 127 126
f 10 3 241
f 241 3 116
f 3 2 116
f 116 2 114
f 2 27 114
f 114 27 266
f 27 26 266
f 266 26 113
f 26 286 113
f 113 286 110
f 286 243 110
f 110 243 255
f 243 242 255
f 255 242 256
f 242 245 256
f 256 245 131
f 245 244 131
f 131 244 132
f 265 37 115
f 115 37 41
f 41 37 42
f 42 37 40
f 92 91 40
f 40 91 42
f 236 233 92
f 92 233 91
f 191 194 236
f 236 194 233
f 258 285 244
f 244 285 132
f 257 55 258
f 258 55 285
f 257 154 201
f 201 154 185
f 56 201 204
f 204 201 180
f 55 257 56
f 56 257 201
f 204 85 56
f 56 85 52
f 86 122 53
f 53 122 79
f 212 215 86
f 86 215 122
f 211 216 212
f 212 216 215
f 192 280 211
f 211 280 216
f 191 240 192
f 192 240 280
f 249 124 7
f 7 124 8
f 124 127 8
f 8 127 241
f 127 267 241
f 241 267 10
f 10 267 9
f 9 267 11
f 93 39 235
f 235 39 240
f 39 123 240
f 240 123 280
f 123 119 280
f 280 119 216
f 119 118 216
f 216 118 215
f 118 120 215
f 215 120 122
f 120 121 122
f 122 121 79
f 121 109 79
f 79 109 80

