# https://github.com/mikedh/trimesh
v -0.09337315 0.04803649 -14.71509743 0.25098039 0.27450980 0.65882353
v -0.10129437 0.05278068 -14.71964169 0.25098039 0.27450980 0.65882353
v -0.09495024 0.04796014 -14.72694397 0.25098039 0.27450980 0.65882353
v -0.08620159 0.04410888 -14.72076511 0.25098039 0.27450980 0.65882353
v -0.11165918 0.05967069 -14.73826122 0.25098039 0.27450980 0.65882353
v -0.11000149 0.07020164 -14.74485016 0.25098039 0.27450980 0.65882353
v -0.10047577 0.05943986 -14.75055408 0.25098039 0.27450980 0.65882353
v -0.10388674 0.05211044 -14.74464989 0.25098039 0.27450980 0.65882353
v -0.07967831 0.04227227 -14.72440815 0.25098039 0.27450980 0.65882353
v -0.08986054 0.04320386 -14.73224735 0.25098039 0.27450980 0.65882353
v -0.07576209 0.04565887 -14.72665882 0.25098039 0.27450980 0.65882353
v -0.06581467 0.04805906 -14.71392345 0.25098039 0.27450980 0.65882353
v -0.07095022 0.04379291 -14.71537304 0.25098039 0.27450980 0.65882353
v -0.06108336 0.04607759 -14.70581341 0.25098039 0.27450980 0.65882353
v -0.06631581 0.05770471 -14.70987034 0.25098039 0.27450980 0.65882353
v -0.06230716 0.04962319 -14.69693565 0.25098039 0.27450980 0.65882353
v -0.08566189 0.06114442 -14.68391991 0.25098039 0.27450980 0.65882353
v -0.09718405 0.05857253 -14.67787457 0.25098039 0.27450980 0.65882353
v -0.08915539 0.04615188 -14.67285347 0.25098039 0.27450980 0.65882353
v -0.07833529 0.04970205 -14.68008709 0.25098039 0.27450980 0.65882353
v -0.10891813 0.04351975 -14.67079639 0.25098039 0.27450980 0.65882353
v -0.09764467 0.04432472 -14.67132950 0.25098039 0.27450980 0.65882353
v -0.10545495 0.05748606 -14.67553425 0.25098039 0.27450980 0.65882353
v -0.11530331 0.05625959 -14.67475224 0.25098039 0.27450980 0.65882353
v -0.10781737 0.05094554 -14.70771217 0.25098039 0.27450980 0.65882353
v -0.11547291 0.05662746 -14.71144581 0.25098039 0.27450980 0.65882353
v -0.10983221 0.05629733 -14.71282387 0.25098039 0.27450980 0.65882353
v -0.10267982 0.05122403 -14.70994473 0.25098039 0.27450980 0.65882353
v -0.07380261 0.05055664 -14.74007320 0.25098039 0.27450980 0.65882353
v -0.07303324 0.06079819 -14.73012352 0.25098039 0.27450980 0.65882353
v -0.07200581 0.05348291 -14.72698975 0.25098039 0.27450980 0.65882353
v -0.07653311 0.04587913 -14.73915577 0.25098039 0.27450980 0.65882353
v -0.13957547 0.06881526 -14.71993732 0.25098039 0.27450980 0.65882353
v -0.14363120 0.08206018 -14.71974850 0.25098039 0.27450980 0.65882353
v -0.13871321 0.08424800 -14.72191811 0.25098039 0.27450980 0.65882353
v -0.13617498 0.07180320 -14.72117138 0.25098039 0.27450980 0.65882353
v -0.12184905 0.08294812 -14.73496437 0.25098039 0.27450980 0.65882353
v -0.12524611 0.09148486 -14.73062611 0.25098039 0.27450980 0.65882353
v -0.11780941 0.10323698 -14.72961330 0.25098039 0.27450980 0.65882353
v -0.11189396 0.09603627 -14.73305321 0.25098039 0.27450980 0.65882353
v -0.11610482 0.07554252 -14.74008656 0.25098039 0.27450980 0.65882353
v -0.10833812 0.08687341 -14.74014950 0.25098039 0.27450980 0.65882353
v -0.10306738 0.07929756 -14.74580193 0.25098039 0.27450980 0.65882353
v -0.09476119 0.06633547 -14.75244808 0.25098039 0.27450980 0.65882353
v -0.15300851 0.07871047 -14.71197414 0.25098039 0.27450980 0.65882353
v -0.15204877 0.06872104 -14.71111679 0.25098039 0.27450980 0.65882353
v -0.03684437 0.00603516 -14.69940281 0.25098039 0.27450980 0.65882353
v -0.04095989 0.00257428 -14.69726849 0.25098039 0.27450980 0.65882353
v -0.04295714 0.00610982 -14.69714165 0.25098039 0.27450980 0.65882353
v -0.03860709 0.00903707 -14.69891357 0.25098039 0.27450980 0.65882353
v -0.15403095 0.07620547 -14.69223118 0.25098039 0.27450980 0.65882353
v -0.14921677 0.08055227 -14.68444252 0.25098039 0.27450980 0.65882353
v -0.15371671 0.08493647 -14.68702126 0.25098039 0.27450980 0.65882353
v -0.15675747 0.08218886 -14.69514275 0.25098039 0.27450980 0.65882353
v -0.15008268 0.06826074 -14.68813515 0.25098039 0.27450980 0.65882353
v -0.14283785 0.07408090 -14.68138790 0.25098039 0.27450980 0.65882353
v -0.02797779 0.00687141 -14.69066906 0.25098039 0.27450980 0.65882353
v -0.02925216 0.00757308 -14.69552231 0.25098039 0.27450980 0.65882353
v -0.03087033 0.01182337 -14.69357204 0.25098039 0.27450980 0.65882353
v -0.03027570 0.01150121 -14.68830681 0.25098039 0.27450980 0.65882353
v -0.07803430 0.04228975 -14.71470070 0.25098039 0.27450980 0.65882353
v -0.08668023 0.04252048 -14.71168041 0.25098039 0.27450980 0.65882353
v -0.06717026 0.02944853 -14.70536900 0.25098039 0.27450980 0.65882353
v -0.07560688 0.03515862 -14.70680046 0.25098039 0.27450980 0.65882353
v -0.07046644 0.03896685 -14.70985126 0.25098039 0.27450980 0.65882353
v -0.06355156 0.03495971 -14.70719147 0.25098039 0.27450980 0.65882353
v -0.09699228 0.03312479 -14.69764996 0.25098039 0.27450980 0.65882353
v -0.10362001 0.04205112 -14.70178795 0.25098039 0.27450980 0.65882353
v -0.09736036 0.04293098 -14.70362282 0.25098039 0.27450980 0.65882353
v -0.08904007 0.03297733 -14.70065975 0.25098039 0.27450980 0.65882353
v -0.11635198 0.03750778 -14.69868374 0.25098039 0.27450980 0.65882353
v -0.10882370 0.02935750 -14.69475079 0.25098039 0.27450980 0.65882353
v -0.11712469 0.02787407 -14.69359875 0.25098039 0.27450980 0.65882353
v -0.12132706 0.03349040 -14.69727898 0.25098039 0.27450980 0.65882353
v -0.09269716 0.01628520 -14.68752575 0.25098039 0.27450980 0.65882353
v -0.08684656 0.01206926 -14.68220997 0.25098039 0.27450980 0.65882353
v -0.08908421 0.01089903 -14.68057251 0.25098039 0.27450980 0.65882353
v -0.09570636 0.01580871 -14.68641663 0.25098039 0.27450980 0.65882353
v -0.15738314 0.09010944 -14.68842316 0.25098039 0.27450980 0.65882353
v -0.15817192 0.08835150 -14.69749451 0.25098039 0.27450980 0.65882353
v -0.12870391 0.03885658 -14.67117786 0.25098039 0.27450980 0.65882353
v -0.13792685 0.03741750 -14.67676830 0.25098039 0.27450980 0.65882353
v -0.13391203 0.02593157 -14.67282677 0.25098039 0.27450980 0.65882353
v -0.12565641 0.03051150 -14.66804695 0.25098039 0.27450980 0.65882353
v -0.14054245 0.08453881 -14.68074131 0.25098039 0.27450980 0.65882353
v -0.14628311 0.08875058 -14.68159866 0.25098039 0.27450980 0.65882353
v -0.02962835 0.00429954 -14.68551636 0.25098039 0.27450980 0.65882353
v -0.03188875 0.00879011 -14.68322945 0.25098039 0.27450980 0.65882353
v -0.09469786 0.08652896 -14.73757172 0.25098039 0.27450980 0.65882353
v -0.08693455 0.07138281 -14.74830627 0.25098039 0.27450980 0.65882353
v -0.10169924 0.09654975 -14.72972965 0.25098039 0.27450980 0.65882353
v -0.10655969 0.10311972 -14.72369766 0.25098039 0.27450980 0.65882353
v -0.11105045 0.10933714 -14.72125721 0.25098039 0.27450980 0.65882353
v -0.07782024 0.02975336 -14.70281219 0.25098039 0.27450980 0.65882353
v -0.09495254 0.04557188 -14.70842648 0.25098039 0.27450980 0.65882353
v -0.11252104 0.04964080 -14.70592403 0.25098039 0.27450980 0.65882353
v -0.13880169 0.03653636 -14.69828510 0.25098039 0.27450980 0.65882353
v -0.14456618 0.04485705 -14.70217419 0.25098039 0.27450980 0.65882353
v -0.13415672 0.04444633 -14.70553303 0.25098039 0.27450980 0.65882353
v -0.13123871 0.03735237 -14.70090294 0.25098039 0.27450980 0.65882353
v -0.14133741 0.03230787 -14.68359280 0.25098039 0.27450980 0.65882353
v -0.13791901 0.02902092 -14.68962860 0.25098039 0.27450980 0.65882353
v -0.13337219 0.02176239 -14.68678665 0.25098039 0.27450980 0.65882353
v -0.13649973 0.02375922 -14.68047047 0.25098039 0.27450980 0.65882353
v -0.07271573 0.05495320 -14.74552059 0.25098039 0.27450980 0.65882353
v -0.07425424 0.06649984 -14.73350620 0.25098039 0.27450980 0.65882353
v -0.15565220 0.07262753 -14.70173359 0.25098039 0.27450980 0.65882353
v -0.15630387 0.07958049 -14.70487404 0.25098039 0.27450980 0.65882353
v -0.15749133 0.08809007 -14.70476055 0.25098039 0.27450980 0.65882353
v -0.12707856 0.06270688 -14.71655273 0.25098039 0.27450980 0.65882353
v -0.13394535 0.07381482 -14.72214413 0.25098039 0.27450980 0.65882353
v -0.13085502 0.07404861 -14.72430134 0.25098039 0.27450980 0.65882353
v -0.12419187 0.06302623 -14.71680164 0.25098039 0.27450980 0.65882353
v -0.11156712 0.05734115 -14.72452831 0.25098039 0.27450980 0.65882353
v -0.11941760 0.06631716 -14.73110390 0.25098039 0.27450980 0.65882353
v -0.10572837 0.05104237 -14.73212051 0.25098039 0.27450980 0.65882353
v -0.13328442 0.08850319 -14.72554970 0.25098039 0.27450980 0.65882353
v -0.14218965 0.09382145 -14.72323799 0.25098039 0.27450980 0.65882353
v -0.13508241 0.09767801 -14.72636986 0.25098039 0.27450980 0.65882353
v -0.14947382 0.09102029 -14.71777439 0.25098039 0.27450980 0.65882353
v -0.15463610 0.08866943 -14.71120644 0.25098039 0.27450980 0.65882353
v -0.15076604 0.09446044 -14.67979240 0.25098039 0.27450980 0.65882353
v -0.12777132 0.10106148 -14.72826195 0.25098039 0.27450980 0.65882353
v -0.09736212 0.04645418 -14.74848938 0.25098039 0.27450980 0.65882353
v -0.09157124 0.04138411 -14.75202751 0.25098039 0.27450980 0.65882353
v -0.08857888 0.03895304 -14.74545479 0.25098039 0.27450980 0.65882353
v -0.09419774 0.04276542 -14.74143982 0.25098039 0.27450980 0.65882353
v -0.05570103 0.04154260 -14.69934750 0.25098039 0.27450980 0.65882353
v -0.05872065 0.03790260 -14.70503521 0.25098039 0.27450980 0.65882353
v -0.06484467 0.04319298 -14.71077728 0.25098039 0.27450980 0.65882353
v -0.13838953 0.05909042 -14.71447277 0.25098039 0.27450980 0.65882353
v -0.14968860 0.05909131 -14.70725250 0.25098039 0.27450980 0.65882353
v -0.06844376 0.02435930 -14.70075512 0.25098039 0.27450980 0.65882353
v -0.03357765 0.01610523 -14.68780327 0.25098039 0.27450980 0.65882353
v -0.03395970 0.01640537 -14.69351673 0.25098039 0.27450980 0.65882353
v -0.04625478 0.03047610 -14.69618034 0.25098039 0.27450980 0.65882353
v -0.04561052 0.03041273 -14.68930149 0.25098039 0.27450980 0.65882353
v -0.06304537 0.01958790 -14.69099617 0.25098039 0.27450980 0.65882353
v -0.06399152 0.02090435 -14.69763470 0.25098039 0.27450980 0.65882353
v -0.06132250 0.01966774 -14.69542980 0.25098039 0.27450980 0.65882353
v -0.06065558 0.01618251 -14.68988228 0.25098039 0.27450980 0.65882353
v -0.09805024 0.01062996 -14.68171978 0.25098039 0.27450980 0.65882353
v -0.10383396 0.01513727 -14.68614674 0.25098039 0.27450980 0.65882353
v -0.07141913 0.03553041 -14.67771530 0.25098039 0.27450980 0.65882353
v -0.06245765 0.04403300 -14.68297672 0.25098039 0.27450980 0.65882353
v -0.06896439 0.05228970 -14.68705845 0.25098039 0.27450980 0.65882353
v -0.10404278 0.03181554 -14.69596291 0.25098039 0.27450980 0.65882353
v -0.09859595 0.02326189 -14.69204617 0.25098039 0.27450980 0.65882353
v -0.10222101 0.02219588 -14.69079590 0.25098039 0.27450980 0.65882353
v -0.07773229 0.02611018 -14.69932175 0.25098039 0.27450980 0.65882353
v -0.07056762 0.02135822 -14.69601536 0.25098039 0.27450980 0.65882353
v -0.07668577 0.02208392 -14.69492531 0.25098039 0.27450980 0.65882353
v -0.08293205 0.02659776 -14.69717598 0.25098039 0.27450980 0.65882353
v -0.14293891 0.04916145 -14.67966080 0.25098039 0.27450980 0.65882353
v -0.14726284 0.04318519 -14.68736267 0.25098039 0.27450980 0.65882353
v -0.03253423 0.00752312 -14.69874096 0.25098039 0.27450980 0.65882353
v -0.03411914 0.01118763 -14.69751644 0.25098039 0.27450980 0.65882353
v -0.11024673 0.04061409 -14.69973278 0.25098039 0.27450980 0.65882353
v -0.07642518 0.06185607 -14.69233036 0.25098039 0.27450980 0.65882353
v -0.11734721 0.04800846 -14.70470715 0.25098039 0.27450980 0.65882353
v -0.10930997 0.02199090 -14.66723156 0.25098039 0.27450980 0.65882353
v -0.11179864 0.01616491 -14.67226315 0.25098039 0.27450980 0.65882353
v -0.10736305 0.01194502 -14.67082024 0.25098039 0.27450980 0.65882353
v -0.10547426 0.01502435 -14.66545486 0.25098039 0.27450980 0.65882353
v -0.04981185 0.00533107 -14.68741035 0.25098039 0.27450980 0.65882353
v -0.04947402 0.00546178 -14.69305038 0.25098039 0.27450980 0.65882353
v -0.04587589 0.00300828 -14.69252014 0.25098039 0.27450980 0.65882353
v -0.04573342 0.00204326 -14.68683052 0.25098039 0.27450980 0.65882353
v -0.06204300 0.02439864 -14.70188046 0.25098039 0.27450980 0.65882353
v -0.05869235 0.02962441 -14.70418072 0.25098039 0.27450980 0.65882353
v -0.05494179 0.02456339 -14.70227528 0.25098039 0.27450980 0.65882353
v -0.05845061 0.02134726 -14.69905758 0.25098039 0.27450980 0.65882353
v -0.05377059 0.03300065 -14.70180607 0.25098039 0.27450980 0.65882353
v -0.05003855 0.02844511 -14.70106316 0.25098039 0.27450980 0.65882353
v -0.04659714 0.00737401 -14.68213463 0.25098039 0.27450980 0.65882353
v -0.04048792 0.01107536 -14.67992306 0.25098039 0.27450980 0.65882353
v -0.05281149 0.02323760 -14.68064594 0.25098039 0.27450980 0.65882353
v -0.05653149 0.01713381 -14.68375683 0.25098039 0.27450980 0.65882353
v -0.12073113 0.06919432 -14.67774391 0.25098039 0.27450980 0.65882353
v -0.13097978 0.06591444 -14.67680550 0.25098039 0.27450980 0.65882353
v -0.12545860 0.05287955 -14.67394257 0.25098039 0.27450980 0.65882353
v -0.12035227 0.04048074 -14.67036343 0.25098039 0.27450980 0.65882353
v -0.11487208 0.02828886 -14.66785717 0.25098039 0.27450980 0.65882353
v -0.10432839 0.03276414 -14.66623116 0.25098039 0.27450980 0.65882353
v -0.13312218 0.05148255 -14.67464447 0.25098039 0.27450980 0.65882353
v -0.06704034 0.02304918 -14.68317032 0.25098039 0.27450980 0.65882353
v -0.06208283 0.03103236 -14.68116856 0.25098039 0.27450980 0.65882353
v -0.06815851 0.02874201 -14.67914200 0.25098039 0.27450980 0.65882353
v -0.12392989 0.04487307 -14.70398045 0.25098039 0.27450980 0.65882353
v -0.03695130 0.01513692 -14.69814682 0.25098039 0.27450980 0.65882353
v -0.10800619 0.10316186 -14.69976425 0.25098039 0.27450980 0.65882353
v -0.11628366 0.10022607 -14.68949127 0.25098039 0.27450980 0.65882353
v -0.11191031 0.09373558 -14.69034004 0.25098039 0.27450980 0.65882353
v -0.10256326 0.09675822 -14.70237255 0.25098039 0.27450980 0.65882353
v -0.04655366 0.00822551 -14.69846630 0.25098039 0.27450980 0.65882353
v -0.04173739 0.01187913 -14.70081711 0.25098039 0.27450980 0.65882353
v -0.10903807 0.01230021 -14.68414211 0.25098039 0.27450980 0.65882353
v -0.10339759 0.00927377 -14.68023396 0.25098039 0.27450980 0.65882353
v -0.10520057 0.00851803 -14.67669964 0.25098039 0.27450980 0.65882353
v -0.11217883 0.00888012 -14.68142128 0.25098039 0.27450980 0.65882353
v -0.13668707 0.06532542 -14.67736912 0.25098039 0.27450980 0.65882353
v -0.13219106 0.01837671 -14.67245483 0.25098039 0.27450980 0.65882353
v -0.12486981 0.02267720 -14.66722298 0.25098039 0.27450980 0.65882353
v -0.13529572 0.07747611 -14.67932701 0.25098039 0.27450980 0.65882353
v -0.12630032 0.08039790 -14.67967319 0.25098039 0.27450980 0.65882353
v -0.13052133 0.08825618 -14.68057919 0.25098039 0.27450980 0.65882353
v -0.08894530 0.03013590 -14.66812515 0.25098039 0.27450980 0.65882353
v -0.11272652 0.06962937 -14.67906666 0.25098039 0.27450980 0.65882353
v -0.11927682 0.08098075 -14.68163776 0.25098039 0.27450980 0.65882353
v -0.12399629 0.09053786 -14.68262672 0.25098039 0.27450980 0.65882353
v -0.12718454 0.09740823 -14.68227863 0.25098039 0.27450980 0.65882353
v -0.13424246 0.09382836 -14.68066025 0.25098039 0.27450980 0.65882353
v -0.03591678 0.01339309 -14.68268394 0.25098039 0.27450980 0.65882353
v -0.03643475 0.00528039 -14.67994213 0.25098039 0.27450980 0.65882353
v -0.13819985 0.10016666 -14.67889118 0.25098039 0.27450980 0.65882353
v -0.13001490 0.10348611 -14.68136883 0.25098039 0.27450980 0.65882353
v -0.11102629 0.08220579 -14.68491077 0.25098039 0.27450980 0.65882353
v -0.10194788 0.08334371 -14.69027519 0.25098039 0.27450980 0.65882353
v -0.10492640 0.07134577 -14.68154812 0.25098039 0.27450980 0.65882353
v -0.09489577 0.07188465 -14.68643093 0.25098039 0.27450980 0.65882353
v -0.08131225 0.03699797 -14.66916752 0.25098039 0.27450980 0.65882353
v -0.03368159 -0.01057123 -14.68693924 0.25098039 0.27450980 0.65882353
v -0.03924268 -0.00175324 -14.68310833 0.25098039 0.27450980 0.65882353
v -0.04312949 -0.00194377 -14.68731880 0.25098039 0.27450980 0.65882353
v -0.03753856 -0.01124513 -14.68897247 0.25098039 0.27450980 0.65882353
v -0.04250847 0.00296681 -14.68215084 0.25098039 0.27450980 0.65882353
v -0.03416167 0.00100461 -14.68215466 0.25098039 0.27450980 0.65882353
v -0.08428483 0.07275024 -14.69750881 0.25098039 0.27450980 0.65882353
v -0.07077529 0.01828290 -14.69048786 0.25098039 0.27450980 0.65882353
v -0.09140477 0.08527876 -14.70546055 0.25098039 0.27450980 0.65882353
v -0.07287297 0.06839244 -14.71237564 0.25098039 0.27450980 0.65882353
v -0.07964653 0.07650546 -14.71996403 0.25098039 0.27450980 0.65882353
v -0.09805708 0.09836460 -14.71474457 0.25098039 0.27450980 0.65882353
v -0.08857532 0.08880596 -14.72490978 0.25098039 0.27450980 0.65882353
v -0.10936221 0.11015106 -14.71055698 0.25098039 0.27450980 0.65882353
v -0.10410136 0.10390807 -14.71126747 0.25098039 0.27450980 0.65882353
v -0.08170865 0.07762823 -14.73618317 0.25098039 0.27450980 0.65882353
v -0.03509496 -0.00392531 -14.70138550 0.25098039 0.27450980 0.65882353
v -0.03920197 -0.00656182 -14.69836807 0.25098039 0.27450980 0.65882353
v -0.11200697 0.10953985 -14.69906044 0.25098039 0.27450980 0.65882353
v -0.09917571 0.04643674 -14.73774433 0.25098039 0.27450980 0.65882353
v -0.12837145 0.05287573 -14.70952702 0.25098039 0.27450980 0.65882353
v -0.12305872 0.05444511 -14.71031570 0.25098039 0.27450980 0.65882353
v -0.14716966 0.05044878 -14.70382500 0.25098039 0.27450980 0.65882353
v -0.13578093 0.05136269 -14.70917606 0.25098039 0.27450980 0.65882353
v -0.03004101 -0.00202150 -14.70145702 0.25098039 0.27450980 0.65882353
v -0.08344443 0.01114454 -14.67619133 0.25098039 0.27450980 0.65882353
v -0.08582936 0.01264115 -14.67584324 0.25098039 0.27450980 0.65882353
v -0.09551564 0.05231053 -14.75425148 0.25098039 0.27450980 0.65882353
v -0.09127887 0.04693671 -14.75713921 0.25098039 0.27450980 0.65882353
v -0.08029850 0.05386882 -14.75799847 0.25098039 0.27450980 0.65882353
v -0.08649524 0.05105925 -14.75981331 0.25098039 0.27450980 0.65882353
v -0.09009327 0.05844235 -14.75661945 0.25098039 0.27450980 0.65882353
v -0.08375804 0.06198733 -14.75453377 0.25098039 0.27450980 0.65882353
v -0.12909648 0.06155558 -14.71649742 0.25098039 0.27450980 0.65882353
v -0.13234481 0.06011225 -14.71571922 0.25098039 0.27450980 0.65882353
v -0.14697494 0.05929458 -14.68397236 0.25098039 0.27450980 0.65882353
v -0.15050237 0.05319409 -14.69210052 0.25098039 0.27450980 0.65882353
v -0.05126722 0.03581630 -14.69655418 0.25098039 0.27450980 0.65882353
v -0.05645193 0.04300926 -14.69103909 0.25098039 0.27450980 0.65882353
v -0.05144584 0.03631230 -14.68948364 0.25098039 0.27450980 0.65882353
v -0.04908557 0.02902844 -14.68330860 0.25098039 0.27450980 0.65882353
v -0.06685814 0.01845114 -14.68613911 0.25098039 0.27450980 0.65882353
v -0.06205210 0.02171030 -14.68572903 0.25098039 0.27450980 0.65882353
v -0.12557936 0.06970044 -14.72744083 0.25098039 0.27450980 0.65882353
v -0.11815780 0.06125263 -14.71875477 0.25098039 0.27450980 0.65882353
v -0.08688021 0.04219700 -14.73607159 0.25098039 0.27450980 0.65882353
v -0.08272068 0.04036663 -14.74022198 0.25098039 0.27450980 0.65882353
v -0.09070429 0.02656282 -14.69510460 0.25098039 0.27450980 0.65882353
v -0.08045381 0.02157658 -14.66769600 0.25098039 0.27450980 0.65882353
v -0.07453078 0.02710773 -14.66880131 0.25098039 0.27450980 0.65882353
v -0.08460614 0.02017930 -14.69143295 0.25098039 0.27450980 0.65882353
v -0.02433090 -0.00329126 -14.69494152 0.25098039 0.27450980 0.65882353
v -0.02666929 -0.00211759 -14.69934750 0.25098039 0.27450980 0.65882353
v -0.05531187 0.03543945 -14.68337154 0.25098039 0.27450980 0.65882353
v -0.11019959 0.01987772 -14.69043636 0.25098039 0.27450980 0.65882353
v -0.08918069 0.02323762 -14.66811275 0.25098039 0.27450980 0.65882353
v -0.08257467 0.01518905 -14.67000389 0.25098039 0.27450980 0.65882353
v -0.13356546 0.01874556 -14.68005753 0.25098039 0.27450980 0.65882353
v -0.12019269 0.10694104 -14.68958855 0.25098039 0.27450980 0.65882353
v -0.04393721 -0.00099869 -14.69285107 0.25098039 0.27450980 0.65882353
v -0.04088086 -0.00886770 -14.69407463 0.25098039 0.27450980 0.65882353
v -0.03001207 -0.00834696 -14.68662739 0.25098039 0.27450980 0.65882353
v -0.02588040 -0.00487656 -14.68924809 0.25098039 0.27450980 0.65882353
v -0.15277423 0.06198646 -14.69757462 0.25098039 0.27450980 0.65882353
v -0.11979581 0.05555248 -14.71027470 0.25098039 0.27450980 0.65882353
v -0.07821056 0.06682283 -14.74543667 0.25098039 0.27450980 0.65882353
v -0.07533483 0.05551833 -14.75262833 0.25098039 0.27450980 0.65882353
v -0.08057393 0.01601991 -14.68821812 0.25098039 0.27450980 0.65882353
v -0.11657795 0.02091938 -14.66907120 0.25098039 0.27450980 0.65882353
v -0.10103058 0.02461515 -14.66404533 0.25098039 0.27450980 0.65882353
v -0.09796961 0.01734833 -14.66152668 0.25098039 0.27450980 0.65882353
v -0.09059678 0.01617435 -14.66350460 0.25098039 0.27450980 0.65882353
v -0.08586362 0.01288540 -14.66852188 0.25098039 0.27450980 0.65882353
v -0.02886185 -0.01341426 -14.68933868 0.25098039 0.27450980 0.65882353
v -0.02475652 -0.00978819 -14.69173050 0.25098039 0.27450980 0.65882353
v -0.02330206 -0.00768087 -14.69718838 0.25098039 0.27450980 0.65882353
v -0.02539040 -0.00582825 -14.70086861 0.25098039 0.27450980 0.65882353
v -0.02944832 -0.00510582 -14.70239258 0.25098039 0.27450980 0.65882353
v -0.03264280 -0.01567206 -14.69008732 0.25098039 0.27450980 0.65882353
v -0.03606375 -0.01574253 -14.69219589 0.25098039 0.27450980 0.65882353
v -0.03958482 -0.01195973 -14.69527340 0.25098039 0.27450980 0.65882353
v -0.03333531 -0.01917650 -14.69389153 0.25098039 0.27450980 0.65882353
v -0.02821764 -0.02022888 -14.69511127 0.25098039 0.27450980 0.65882353
v -0.02449374 -0.01676002 -14.70817661 0.25098039 0.27450980 0.65882353
v -0.02315129 -0.01428370 -14.70280552 0.25098039 0.27450980 0.65882353
v -0.02340402 -0.01700532 -14.70324707 0.25098039 0.27450980 0.65882353
v -0.02453080 -0.01979795 -14.70734978 0.25098039 0.27450980 0.65882353
v -0.02534401 -0.02393672 -14.71049500 0.25098039 0.27450980 0.65882353
v -0.02530964 -0.02090973 -14.71223164 0.25098039 0.27450980 0.65882353
v -0.02457538 -0.01781429 -14.69875717 0.25098039 0.27450980 0.65882353
v -0.02593939 -0.02232641 -14.70376968 0.25098039 0.27450980 0.65882353
v -0.02873567 -0.02430747 -14.70147038 0.25098039 0.27450980 0.65882353
v -0.02895211 -0.02820742 -14.70567226 0.25098039 0.27450980 0.65882353
v -0.02635649 -0.02665873 -14.70770359 0.25098039 0.27450980 0.65882353
v -0.02745557 -0.02123953 -14.69812870 0.25098039 0.27450980 0.65882353
v -0.02387480 -0.01624789 -14.69663525 0.25098039 0.27450980 0.65882353
v -0.02658734 -0.02520958 -14.71374989 0.25098039 0.27450980 0.65882353
v -0.02574730 -0.02667090 -14.71194553 0.25098039 0.27450980 0.65882353
v -0.02712184 -0.02872384 -14.71011353 0.25098039 0.27450980 0.65882353
v -0.02868746 -0.02959099 -14.71262646 0.25098039 0.27450980 0.65882353
v -0.02557452 -0.00921012 -14.70389462 0.25098039 0.27450980 0.65882353
v -0.02595605 -0.01518479 -14.70967102 0.25098039 0.27450980 0.65882353
v -0.02804264 -0.01979691 -14.71310520 0.25098039 0.27450980 0.65882353
v -0.02910805 -0.02415877 -14.71445847 0.25098039 0.27450980 0.65882353
v -0.02992168 -0.01540124 -14.71067905 0.25098039 0.27450980 0.65882353
v -0.03094466 -0.01949275 -14.71291637 0.25098039 0.27450980 0.65882353
v -0.03217547 -0.02326228 -14.71369934 0.25098039 0.27450980 0.65882353
v -0.03394717 -0.01652792 -14.71028233 0.25098039 0.27450980 0.65882353
v -0.03390789 -0.02019750 -14.71206570 0.25098039 0.27450980 0.65882353
v -0.03329244 -0.00807856 -14.70332527 0.25098039 0.27450980 0.65882353
v -0.02936511 -0.00665611 -14.70389175 0.25098039 0.27450980 0.65882353
v -0.03418863 -0.02251376 -14.71320915 0.25098039 0.27450980 0.65882353
v -0.03083809 -0.02908024 -14.71311855 0.25098039 0.27450980 0.65882353
v -0.03167625 -0.02384041 -14.69932079 0.25098039 0.27450980 0.65882353
v -0.03212273 -0.02784436 -14.70538330 0.25098039 0.27450980 0.65882353
v -0.03409283 -0.02347555 -14.69948387 0.25098039 0.27450980 0.65882353
v -0.03450730 -0.02774522 -14.70515919 0.25098039 0.27450980 0.65882353
v -0.03138557 -0.03085504 -14.70888710 0.25098039 0.27450980 0.65882353
v -0.02916142 -0.02971950 -14.70836926 0.25098039 0.27450980 0.65882353
v -0.03452761 -0.00598411 -14.70149517 0.25098039 0.27450980 0.65882353
v -0.03867196 -0.00892701 -14.69840145 0.25098039 0.27450980 0.65882353
v -0.03781763 -0.01089814 -14.70006657 0.25098039 0.27450980 0.65882353
v -0.03751014 -0.01850776 -14.70780563 0.25098039 0.27450980 0.65882353
v -0.03905505 -0.01415744 -14.69770241 0.25098039 0.27450980 0.65882353
v -0.03662810 -0.01865599 -14.69601440 0.25098039 0.27450980 0.65882353
v -0.03650816 -0.02319949 -14.70133877 0.25098039 0.27450980 0.65882353
v -0.03817455 -0.02155443 -14.70380211 0.25098039 0.27450980 0.65882353
v -0.03639784 -0.02635403 -14.70587635 0.25098039 0.27450980 0.65882353
v -0.03702115 -0.02445047 -14.70735359 0.25098039 0.27450980 0.65882353
v -0.03648622 -0.02204518 -14.71028519 0.25098039 0.27450980 0.65882353
v -0.03535275 -0.02782475 -14.70966530 0.25098039 0.27450980 0.65882353
v -0.03335442 -0.02992525 -14.70924854 0.25098039 0.27450980 0.65882353
v -0.03344233 -0.02683292 -14.71269512 0.25098039 0.27450980 0.65882353
v -0.03634052 -0.02610476 -14.70963764 0.25098039 0.27450980 0.65882353
v -0.03480083 -0.02467195 -14.71176243 0.25098039 0.27450980 0.65882353
v -0.05716746 -0.01235501 -14.68095207 0.25098039 0.27450980 0.65882353
v -0.06241046 -0.01502994 -14.67843342 0.25098039 0.27450980 0.65882353
v -0.06333323 -0.01005217 -14.67761612 0.25098039 0.27450980 0.65882353
v -0.05886523 -0.00824326 -14.67997932 0.25098039 0.27450980 0.65882353
v -0.04846251 -0.00989720 -14.67090416 0.25098039 0.27450980 0.65882353
v -0.04990228 -0.01020124 -14.67657471 0.25098039 0.27450980 0.65882353
v -0.05081663 -0.00524781 -14.67514229 0.25098039 0.27450980 0.65882353
v -0.05043441 -0.00478190 -14.66862106 0.25098039 0.27450980 0.65882353
v -0.05187200 -0.01118588 -14.66509628 0.25098039 0.27450980 0.65882353
v -0.05412392 -0.00583303 -14.66293240 0.25098039 0.27450980 0.65882353
v -0.05225514 0.00043459 -14.66849995 0.25098039 0.27450980 0.65882353
v -0.05320793 -0.00016577 -14.67549610 0.25098039 0.27450980 0.65882353
v -0.06409985 0.01728746 -14.68000793 0.25098039 0.27450980 0.65882353
v -0.06343874 0.01869582 -14.67301464 0.25098039 0.27450980 0.65882353
v -0.07978062 0.00898127 -14.68016529 0.25098039 0.27450980 0.65882353
v -0.07945390 0.00841241 -14.67620468 0.25098039 0.27450980 0.65882353
v -0.05351284 -0.01115780 -14.67999935 0.25098039 0.27450980 0.65882353
v -0.05461325 -0.00669074 -14.67867756 0.25098039 0.27450980 0.65882353
v -0.07043613 -0.00864518 -14.67145443 0.25098039 0.27450980 0.65882353
v -0.06919482 -0.00818995 -14.67668629 0.25098039 0.27450980 0.65882353
v -0.06678198 -0.01220258 -14.67511940 0.25098039 0.27450980 0.65882353
v -0.06734772 -0.01286662 -14.66959667 0.25098039 0.27450980 0.65882353
v -0.07049254 0.01439500 -14.68533421 0.25098039 0.27450980 0.65882353
v -0.07610145 0.01212155 -14.68340111 0.25098039 0.27450980 0.65882353
v -0.06691414 0.01536822 -14.68373871 0.25098039 0.27450980 0.65882353
v -0.06873900 -0.00752196 -14.66518497 0.25098039 0.27450980 0.65882353
v -0.06388094 -0.00461493 -14.66116238 0.25098039 0.27450980 0.65882353
v -0.07359777 0.01299040 -14.66450977 0.25098039 0.27450980 0.65882353
v -0.07760109 0.00929102 -14.66794109 0.25098039 0.27450980 0.65882353
v -0.05619827 -0.00206400 -14.67981720 0.25098039 0.27450980 0.65882353
v -0.06536315 -0.00664961 -14.68024158 0.25098039 0.27450980 0.65882353
v -0.06085482 -0.00452778 -14.68183041 0.25098039 0.27450980 0.65882353
v -0.05714835 -0.00087219 -14.66316891 0.25098039 0.27450980 0.65882353
v -0.06043479 -0.01023845 -14.66139889 0.25098039 0.27450980 0.65882353
v -0.05821933 -0.02915521 -14.66866779 0.25098039 0.27450980 0.65882353
v -0.06288247 -0.01789225 -14.66546535 0.25098039 0.27450980 0.65882353
v -0.06518409 -0.01827349 -14.67002773 0.25098039 0.27450980 0.65882353
v -0.06131758 -0.03014931 -14.67242432 0.25098039 0.27450980 0.65882353
v -0.06530628 -0.01257721 -14.66443634 0.25098039 0.27450980 0.65882353
v -0.05793928 -0.01519664 -14.66331387 0.25098039 0.27450980 0.65882353
v -0.05480602 -0.02676025 -14.68433762 0.25098039 0.27450980 0.65882353
v -0.06003438 -0.02922012 -14.68155003 0.25098039 0.27450980 0.65882353
v -0.05038522 -0.02542998 -14.68400478 0.25098039 0.27450980 0.65882353
v -0.06756173 0.01731966 -14.66639519 0.25098039 0.27450980 0.65882353
v -0.04514538 -0.02278082 -14.67535686 0.25098039 0.27450980 0.65882353
v -0.04717933 -0.02384470 -14.68154526 0.25098039 0.27450980 0.65882353
v -0.06552355 -0.01713583 -14.67494965 0.25098039 0.27450980 0.65882353
v -0.06214230 -0.03053050 -14.67717361 0.25098039 0.27450980 0.65882353
v -0.05412114 -0.02737173 -14.66734791 0.25098039 0.27450980 0.65882353
v -0.04830067 -0.02322985 -14.66926956 0.25098039 0.27450980 0.65882353
v -0.05243200 -0.03284182 -14.66964245 0.25098039 0.27450980 0.65882353
v -0.04703765 -0.02983388 -14.67183685 0.25098039 0.27450980 0.65882353
v -0.04422213 -0.02878019 -14.67782021 0.25098039 0.27450980 0.65882353
v -0.04682301 -0.02848828 -14.68306637 0.25098039 0.27450980 0.65882353
v -0.05017872 -0.02872433 -14.68503475 0.25098039 0.27450980 0.65882353
v -0.05636890 -0.03446107 -14.67088127 0.25098039 0.27450980 0.65882353
v -0.05965526 -0.03498389 -14.67417526 0.25098039 0.27450980 0.65882353
v -0.06099464 -0.03294802 -14.67844963 0.25098039 0.27450980 0.65882353
v -0.05682445 -0.04041307 -14.67526340 0.25098039 0.27450980 0.65882353
v -0.05232799 -0.04078417 -14.67437935 0.25098039 0.27450980 0.65882353
v -0.04644470 -0.04558022 -14.69136238 0.25098039 0.27450980 0.65882353
v -0.04555625 -0.04083849 -14.68758774 0.25098039 0.27450980 0.65882353
v -0.04568502 -0.04267307 -14.68565845 0.25098039 0.27450980 0.65882353
v -0.04655884 -0.04706748 -14.68894100 0.25098039 0.27450980 0.65882353
v -0.04408045 -0.03734504 -14.68239594 0.25098039 0.27450980 0.65882353
v -0.04496512 -0.03977947 -14.68196297 0.25098039 0.27450980 0.65882353
v -0.04730833 -0.04045169 -14.67797661 0.25098039 0.27450980 0.65882353
v -0.04830575 -0.04501998 -14.68222713 0.25098039 0.27450980 0.65882353
v -0.05223756 -0.04573143 -14.67960739 0.25098039 0.27450980 0.65882353
v -0.05238286 -0.05072282 -14.68267632 0.25098039 0.27450980 0.65882353
v -0.04842986 -0.05007796 -14.68532276 0.25098039 0.27450980 0.65882353
v -0.05051285 -0.04255199 -14.67699909 0.25098039 0.27450980 0.65882353
v -0.04742204 -0.05038960 -14.69035530 0.25098039 0.27450980 0.65882353
v -0.04841287 -0.05082114 -14.69273186 0.25098039 0.27450980 0.65882353
v -0.04632722 -0.03804725 -14.67581272 0.25098039 0.27450980 0.65882353
v -0.04611193 -0.03222047 -14.68473721 0.25098039 0.27450980 0.65882353
v -0.04710273 -0.03958006 -14.68995190 0.25098039 0.27450980 0.65882353
v -0.04875168 -0.04504751 -14.69359207 0.25098039 0.27450980 0.65882353
v -0.05126674 -0.05078222 -14.69387150 0.25098039 0.27450980 0.65882353
v -0.05096596 -0.03944892 -14.69171715 0.25098039 0.27450980 0.65882353
v -0.05194625 -0.04491745 -14.69432259 0.25098039 0.27450980 0.65882353
v -0.05378443 -0.04965161 -14.69377327 0.25098039 0.27450980 0.65882353
v -0.05570427 -0.03984778 -14.69197655 0.25098039 0.27450980 0.65882353
v -0.05611627 -0.04539526 -14.69375134 0.25098039 0.27450980 0.65882353
v -0.05485192 -0.03094244 -14.68615150 0.25098039 0.27450980 0.65882353
v -0.05017027 -0.03069691 -14.68670464 0.25098039 0.27450980 0.65882353
v -0.05568652 -0.04813555 -14.69349957 0.25098039 0.27450980 0.65882353
v -0.05028053 -0.05440561 -14.68986607 0.25098039 0.27450980 0.65882353
v -0.05321874 -0.05379261 -14.69161701 0.25098039 0.27450980 0.65882353
v -0.04941699 -0.05313511 -14.68844223 0.25098039 0.27450980 0.65882353
v -0.05431725 -0.04575680 -14.67910671 0.25098039 0.27450980 0.65882353
v -0.05461890 -0.05076714 -14.68338490 0.25098039 0.27450980 0.65882353
v -0.05711530 -0.04572566 -14.67988777 0.25098039 0.27450980 0.65882353
v -0.05681036 -0.05093965 -14.68466568 0.25098039 0.27450980 0.65882353
v -0.05371757 -0.05419427 -14.68666649 0.25098039 0.27450980 0.65882353
v -0.05207150 -0.05385885 -14.68620205 0.25098039 0.27450980 0.65882353
v -0.05448481 -0.02936388 -14.68447399 0.25098039 0.27450980 0.65882353
v -0.05920593 -0.03115520 -14.68179893 0.25098039 0.27450980 0.65882353
v -0.05946223 -0.03245297 -14.68325424 0.25098039 0.27450980 0.65882353
v -0.05963746 -0.04152350 -14.68880749 0.25098039 0.27450980 0.65882353
v -0.06121440 -0.03487292 -14.67961216 0.25098039 0.27450980 0.65882353
v -0.05963652 -0.03892462 -14.67700768 0.25098039 0.27450980 0.65882353
v -0.05946898 -0.04477060 -14.68117428 0.25098039 0.27450980 0.65882353
v -0.06083617 -0.04354915 -14.68472767 0.25098039 0.27450980 0.65882353
v -0.05902058 -0.05059436 -14.68512535 0.25098039 0.27450980 0.65882353
v -0.06014735 -0.04802214 -14.68670273 0.25098039 0.27450980 0.65882353
v -0.05917490 -0.04621257 -14.69112110 0.25098039 0.27450980 0.65882353
v -0.05753317 -0.05356483 -14.68847561 0.25098039 0.27450980 0.65882353
v -0.05536936 -0.05432840 -14.68755722 0.25098039 0.27450980 0.65882353
v -0.05504350 -0.05240947 -14.69199562 0.25098039 0.27450980 0.65882353
v -0.05895868 -0.05096363 -14.68902779 0.25098039 0.27450980 0.65882353
v -0.05718936 -0.04990579 -14.69204044 0.25098039 0.27450980 0.65882353
v -0.08109039 -0.01396723 -14.67063332 0.25098039 0.27450980 0.65882353
v -0.08666411 -0.01508023 -14.67231178 0.25098039 0.27450980 0.65882353
v -0.08764058 -0.01162232 -14.67206097 0.25098039 0.27450980 0.65882353
v -0.08221675 -0.01045565 -14.67035580 0.25098039 0.27450980 0.65882353
v -0.08093154 -0.01430941 -14.65809917 0.25098039 0.27450980 0.65882353
v -0.07815574 -0.01425192 -14.66214657 0.25098039 0.27450980 0.65882353
v -0.07922995 -0.00959973 -14.66160297 0.25098039 0.27450980 0.65882353
v -0.08220585 -0.00831135 -14.65712261 0.25098039 0.27450980 0.65882353
v -0.08564328 -0.01688404 -14.65656471 0.25098039 0.27450980 0.65882353
v -0.08784012 -0.00912507 -14.65464020 0.25098039 0.27450980 0.65882353
v -0.08331208 -0.00245821 -14.65696049 0.25098039 0.27450980 0.65882353
v -0.08024213 -0.00493510 -14.66181183 0.25098039 0.27450980 0.65882353
v -0.08489065 0.00901706 -14.66672421 0.25098039 0.27450980 0.65882353
v -0.08805841 0.01056696 -14.66080284 0.25098039 0.27450980 0.65882353
v -0.07861120 -0.01400184 -14.66675472 0.25098039 0.27450980 0.65882353
v -0.07956471 -0.01023069 -14.66654110 0.25098039 0.27450980 0.65882353
v -0.09697589 -0.01050537 -14.66973114 0.25098039 0.27450980 0.65882353
v -0.09341373 -0.00999662 -14.67283535 0.25098039 0.27450980 0.65882353
v -0.09267849 -0.01320697 -14.67105103 0.25098039 0.27450980 0.65882353
v -0.09557615 -0.01394202 -14.66807461 0.25098039 0.27450980 0.65882353
v -0.08911856 0.00791241 -14.67711353 0.25098039 0.27450980 0.65882353
v -0.09517369 0.00781370 -14.67757034 0.25098039 0.27450980 0.65882353
v -0.08544637 0.00731140 -14.67286873 0.25098039 0.27450980 0.65882353
v -0.09819630 -0.00977205 -14.66339302 0.25098039 0.27450980 0.65882353
v -0.09599818 -0.00645337 -14.65707016 0.25098039 0.27450980 0.65882353
v -0.10176347 0.00686110 -14.66176987 0.25098039 0.27450980 0.65882353
v -0.10339878 0.00535384 -14.66777611 0.25098039 0.27450980 0.65882353
v -0.08031146 -0.00656731 -14.66695976 0.25098039 0.27450980 0.65882353
v -0.08843473 -0.00839380 -14.67380238 0.25098039 0.27450980 0.65882353
v -0.08299075 -0.00761464 -14.67177582 0.25098039 0.27450980 0.65882353
v -0.08941694 -0.00311754 -14.65540695 0.25098039 0.27450980 0.65882353
v -0.09359981 -0.01236305 -14.65728664 0.25098039 0.27450980 0.65882353
v -0.09012893 -0.03414597 -14.66444778 0.25098039 0.27450980 0.65882353
v -0.09519611 -0.01840220 -14.66254234 0.25098039 0.27450980 0.65882353
v -0.09448624 -0.01780103 -14.66821957 0.25098039 0.27450980 0.65882353
v -0.09099308 -0.03349508 -14.66872311 0.25098039 0.27450980 0.65882353
v -0.09651379 -0.01445647 -14.66273022 0.25098039 0.27450980 0.65882353
v -0.09186460 -0.01776400 -14.65796375 0.25098039 0.27450980 0.65882353
v -0.07849745 -0.02889512 -14.67400455 0.25098039 0.27450980 0.65882353
v -0.08410965 -0.02958300 -14.67473793 0.25098039 0.27450980 0.65882353
v -0.07594231 -0.02801614 -14.67045689 0.25098039 0.27450980 0.65882353
v -0.09484936 0.01012096 -14.65815735 0.25098039 0.27450980 0.65882353
v -0.10133561 0.00588423 -14.67433739 0.25098039 0.27450980 0.65882353
v -0.07587133 -0.02995093 -14.66312027 0.25098039 0.27450980 0.65882353
v -0.07489434 -0.02866897 -14.66723633 0.25098039 0.27450980 0.65882353
v -0.09171951 -0.01642143 -14.67119408 0.25098039 0.27450980 0.65882353
v -0.08910306 -0.03174973 -14.67263317 0.25098039 0.27450980 0.65882353
v -0.08691500 -0.03300546 -14.66089344 0.25098039 0.27450980 0.65882353
v -0.08101137 -0.03066369 -14.65975952 0.25098039 0.27450980 0.65882353
v -0.08600661 -0.03891809 -14.66351986 0.25098039 0.27450980 0.65882353
v -0.07995532 -0.03716330 -14.66264629 0.25098039 0.27450980 0.65882353
v -0.07504484 -0.03608300 -14.66590881 0.25098039 0.27450980 0.65882353
v -0.07436605 -0.03380170 -14.66978550 0.25098039 0.27450980 0.65882353
v -0.07547577 -0.03245746 -14.67267323 0.25098039 0.27450980 0.65882353
v -0.08923276 -0.03881498 -14.66744041 0.25098039 0.27450980 0.65882353
v -0.08976817 -0.03724952 -14.67107391 0.25098039 0.27450980 0.65882353
v -0.08807480 -0.03332403 -14.67310715 0.25098039 0.27450980 0.65882353
v -0.08923022 -0.04161453 -14.67109776 0.25098039 0.27450980 0.65882353
v -0.08511689 -0.04450540 -14.66852570 0.25098039 0.27450980 0.65882353
v -0.07507595 -0.04964739 -14.68142891 0.25098039 0.27450980 0.65882353
v -0.07501540 -0.04547532 -14.67707825 0.25098039 0.27450980 0.65882353
v -0.07571520 -0.04637282 -14.67647076 0.25098039 0.27450980 0.65882353
v -0.07569252 -0.05090730 -14.68025875 0.25098039 0.27450980 0.65882353
v -0.07531264 -0.04247633 -14.67074585 0.25098039 0.27450980 0.65882353
v -0.07616772 -0.04415815 -14.67174149 0.25098039 0.27450980 0.65882353
v -0.07942800 -0.04487310 -14.66955090 0.25098039 0.27450980 0.65882353
v -0.07958303 -0.04936184 -14.67447948 0.25098039 0.27450980 0.65882353
v -0.08542085 -0.04797612 -14.67498970 0.25098039 0.27450980 0.65882353
v -0.08444388 -0.05125274 -14.67890453 0.25098039 0.27450980 0.65882353
v -0.07936244 -0.05309691 -14.67849827 0.25098039 0.27450980 0.65882353
v -0.08386423 -0.04546347 -14.67016029 0.25098039 0.27450980 0.65882353
v -0.07664578 -0.05335118 -14.68220711 0.25098039 0.27450980 0.65882353
v -0.07500316 -0.05353634 -14.68373585 0.25098039 0.27450980 0.65882353
v -0.07933825 -0.04344921 -14.66719437 0.25098039 0.27450980 0.65882353
v -0.07344796 -0.03848805 -14.67308712 0.25098039 0.27450980 0.65882353
v -0.07385740 -0.04356043 -14.67902756 0.25098039 0.27450980 0.65882353
v -0.07363063 -0.04756840 -14.68380642 0.25098039 0.27450980 0.65882353
v -0.07559469 -0.05088115 -14.68641472 0.25098039 0.27450980 0.65882353
v -0.07545595 -0.04122953 -14.68149185 0.25098039 0.27450980 0.65882353
v -0.07551448 -0.04539448 -14.68522072 0.25098039 0.27450980 0.65882353
v -0.07718135 -0.04832757 -14.68760777 0.25098039 0.27450980 0.65882353
v -0.07806279 -0.03990635 -14.68297100 0.25098039 0.27450980 0.65882353
v -0.07828502 -0.04378386 -14.68609524 0.25098039 0.27450980 0.65882353
v -0.07824457 -0.03317386 -14.67611980 0.25098039 0.27450980 0.65882353
v -0.07508647 -0.03531547 -14.67493153 0.25098039 0.27450980 0.65882353
v -0.07885090 -0.04663375 -14.68755722 0.25098039 0.27450980 0.65882353
v -0.07936989 -0.05564679 -14.68366623 0.25098039 0.27450980 0.65882353
v -0.08081768 -0.05312987 -14.68700218 0.25098039 0.27450980 0.65882353
v -0.07941987 -0.05442435 -14.68190289 0.25098039 0.27450980 0.65882353
v -0.08712874 -0.04699840 -14.67499352 0.25098039 0.27450980 0.65882353
v -0.08645773 -0.05116324 -14.68029213 0.25098039 0.27450980 0.65882353
v -0.08875258 -0.04522191 -14.67669201 0.25098039 0.27450980 0.65882353
v -0.08804439 -0.04946883 -14.68178272 0.25098039 0.27450980 0.65882353
v -0.08431092 -0.05419736 -14.68266964 0.25098039 0.27450980 0.65882353
v -0.08340341 -0.05388315 -14.68169117 0.25098039 0.27450980 0.65882353
v -0.07880923 -0.03127422 -14.67439079 0.25098039 0.27450980 0.65882353
v -0.08388464 -0.03152663 -14.67484283 0.25098039 0.27450980 0.65882353
v -0.08305506 -0.03283559 -14.67646217 0.25098039 0.27450980 0.65882353
v -0.08267979 -0.03974733 -14.68392086 0.25098039 0.27450980 0.65882353
v -0.08731608 -0.03438453 -14.67515182 0.25098039 0.27450980 0.65882353
v -0.08937651 -0.03966087 -14.67445660 0.25098039 0.27450980 0.65882353
v -0.08855091 -0.04314408 -14.67932320 0.25098039 0.27450980 0.65882353
v -0.08667062 -0.04142334 -14.68225574 0.25098039 0.27450980 0.65882353
v -0.08790731 -0.04724510 -14.68350220 0.25098039 0.27450980 0.65882353
v -0.08630311 -0.04499629 -14.68438816 0.25098039 0.27450980 0.65882353
v -0.08235797 -0.04341228 -14.68688583 0.25098039 0.27450980 0.65882353
v -0.08533919 -0.04976724 -14.68577194 0.25098039 0.27450980 0.65882353
v -0.08553866 -0.05252059 -14.68459320 0.25098039 0.27450980 0.65882353
v -0.08134679 -0.04999405 -14.68805027 0.25098039 0.27450980 0.65882353
v -0.08482787 -0.04736216 -14.68644810 0.25098039 0.27450980 0.65882353
v -0.08178264 -0.04737388 -14.68810463 0.25098039 0.27450980 0.65882353
v -0.09923935 0.00697359 -14.67701054 0.25098039 0.27450980 0.65882353
v -0.11709699 -0.01455698 -14.67995644 0.25098039 0.27450980 0.65882353
v -0.12069882 -0.01418234 -14.68173409 0.25098039 0.27450980 0.65882353
v -0.12151220 -0.01092208 -14.68056011 0.25098039 0.27450980 0.65882353
v -0.11767061 -0.01035826 -14.67949390 0.25098039 0.27450980 0.65882353
v -0.11776093 -0.01569030 -14.66911125 0.25098039 0.27450980 0.65882353
v -0.11540072 -0.01577306 -14.67285252 0.25098039 0.27450980 0.65882353
v -0.11520839 -0.01103714 -14.67139912 0.25098039 0.27450980 0.65882353
v -0.11749712 -0.01084238 -14.66769600 0.25098039 0.27450980 0.65882353
v -0.12242497 -0.01584746 -14.66778088 0.25098039 0.27450980 0.65882353
v -0.12254322 -0.01112764 -14.66659832 0.25098039 0.27450980 0.65882353
v -0.11725720 -0.00715134 -14.66696358 0.25098039 0.27450980 0.65882353
v -0.11481190 -0.00720219 -14.67104721 0.25098039 0.27450980 0.65882353
v -0.11375196 0.00904571 -14.67217636 0.25098039 0.27450980 0.65882353
v -0.11711586 0.01126544 -14.66817379 0.25098039 0.27450980 0.65882353
v -0.13184232 0.01292292 -14.67969799 0.25098039 0.27450980 0.65882353
v -0.12777358 0.01381622 -14.68488884 0.25098039 0.27450980 0.65882353
v -0.12749195 0.00521205 -14.68180656 0.25098039 0.27450980 0.65882353
v -0.13081604 0.00624809 -14.67782784 0.25098039 0.27450980 0.65882353
v -0.11544484 -0.01525471 -14.67668915 0.25098039 0.27450980 0.65882353
v -0.11517382 -0.01079455 -14.67633820 0.25098039 0.27450980 0.65882353
v -0.13013278 -0.00712626 -14.67704201 0.25098039 0.27450980 0.65882353
v -0.12663271 -0.00751793 -14.68008804 0.25098039 0.27450980 0.65882353
v -0.12549418 -0.01070084 -14.68072987 0.25098039 0.27450980 0.65882353
v -0.12935001 -0.01130427 -14.67846394 0.25098039 0.27450980 0.65882353
v -0.12217684 0.01252726 -14.68600273 0.25098039 0.27450980 0.65882353
v -0.11727566 0.01188312 -14.68458557 0.25098039 0.27450980 0.65882353
v -0.11729490 0.00734726 -14.68385220 0.25098039 0.27450980 0.65882353
v -0.12270010 0.00447156 -14.68332672 0.25098039 0.27450980 0.65882353
v -0.11363996 0.00706655 -14.67972565 0.25098039 0.27450980 0.65882353
v -0.13092431 -0.00725514 -14.67313957 0.25098039 0.27450980 0.65882353
v -0.12855582 -0.00737568 -14.66794395 0.25098039 0.27450980 0.65882353
v -0.13088709 0.00970761 -14.66853714 0.25098039 0.27450980 0.65882353
v -0.13198894 0.00882307 -14.67308235 0.25098039 0.27450980 0.65882353
v -0.11472620 -0.00795341 -14.67550182 0.25098039 0.27450980 0.65882353
v -0.12232351 -0.00795622 -14.68062592 0.25098039 0.27450980 0.65882353
v -0.11799625 -0.00815536 -14.67938614 0.25098039 0.27450980 0.65882353
v -0.12274861 -0.00720682 -14.66537952 0.25098039 0.27450980 0.65882353
v -0.12805063 -0.01178622 -14.66914272 0.25098039 0.27450980 0.65882353
v -0.12970302 -0.02455646 -14.67836761 0.25098039 0.27450980 0.65882353
v -0.13039351 -0.01527048 -14.67539310 0.25098039 0.27450980 0.65882353
v -0.12877965 -0.01479533 -14.67991734 0.25098039 0.27450980 0.65882353
v -0.12883838 -0.02389370 -14.68112755 0.25098039 0.27450980 0.65882353
v -0.13040248 -0.01156501 -14.67416668 0.25098039 0.27450980 0.65882353
v -0.12799510 -0.01622417 -14.67047787 0.25098039 0.27450980 0.65882353
v -0.11694328 -0.02326935 -14.68254280 0.25098039 0.27450980 0.65882353
v -0.12182344 -0.02244508 -14.68406296 0.25098039 0.27450980 0.65882353
v -0.11535594 -0.02393419 -14.67985916 0.25098039 0.27450980 0.65882353
v -0.12370238 0.01104735 -14.66571045 0.25098039 0.27450980 0.65882353
v -0.11761206 -0.02568842 -14.67299747 0.25098039 0.27450980 0.65882353
v -0.11521912 -0.02532457 -14.67659950 0.25098039 0.27450980 0.65882353
v -0.12471274 -0.01433942 -14.68183613 0.25098039 0.27450980 0.65882353
v -0.12609243 -0.02281066 -14.68328190 0.25098039 0.27450980 0.65882353
v -0.12805568 -0.02540822 -14.67452240 0.25098039 0.27450980 0.65882353
v -0.12284824 -0.02551065 -14.67136574 0.25098039 0.27450980 0.65882353
v -0.12733343 -0.03001797 -14.67682648 0.25098039 0.27450980 0.65882353
v -0.12198999 -0.02989583 -14.67363167 0.25098039 0.27450980 0.65882353
v -0.11658272 -0.02970046 -14.67585564 0.25098039 0.27450980 0.65882353
v -0.11507883 -0.02782165 -14.67870808 0.25098039 0.27450980 0.65882353
v -0.11514022 -0.02639464 -14.68153095 0.25098039 0.27450980 0.65882353
v -0.12910978 -0.02853070 -14.68056107 0.25098039 0.27450980 0.65882353
v -0.12832272 -0.02714598 -14.68314838 0.25098039 0.27450980 0.65882353
v -0.12582758 -0.02511545 -14.68496132 0.25098039 0.27450980 0.65882353
v -0.12835407 -0.03226622 -14.68306160 0.25098039 0.27450980 0.65882353
v -0.12590952 -0.03532538 -14.68037796 0.25098039 0.27450980 0.65882353
v -0.11550877 -0.04010637 -14.68773556 0.25098039 0.27450980 0.65882353
v -0.11546177 -0.03697762 -14.68487072 0.25098039 0.27450980 0.65882353
v -0.11621476 -0.03769088 -14.68414497 0.25098039 0.27450980 0.65882353
v -0.11561648 -0.04089221 -14.68684387 0.25098039 0.27450980 0.65882353
v -0.11636272 -0.03417706 -14.68015099 0.25098039 0.27450980 0.65882353
v -0.11732525 -0.03553413 -14.68061829 0.25098039 0.27450980 0.65882353
v -0.12056485 -0.03524737 -14.67915154 0.25098039 0.27450980 0.65882353
v -0.11989026 -0.03928916 -14.68273926 0.25098039 0.27450980 0.65882353
v -0.12492931 -0.03922479 -14.68464470 0.25098039 0.27450980 0.65882353
v -0.12380602 -0.04243392 -14.68727398 0.25098039 0.27450980 0.65882353
v -0.11951739 -0.04235740 -14.68514252 0.25098039 0.27450980 0.65882353
v -0.12431969 -0.03668469 -14.68073082 0.25098039 0.27450980 0.65882353
v -0.11613591 -0.04342146 -14.68802071 0.25098039 0.27450980 0.65882353
v -0.11551666 -0.04392262 -14.68929195 0.25098039 0.27450980 0.65882353
v -0.12080097 -0.03417461 -14.67744923 0.25098039 0.27450980 0.65882353
v -0.11455669 -0.03095680 -14.68207741 0.25098039 0.27450980 0.65882353
v -0.11437377 -0.03608021 -14.68696404 0.25098039 0.27450980 0.65882353
v -0.11469901 -0.04026844 -14.69003391 0.25098039 0.27450980 0.65882353
v -0.11617874 -0.04354005 -14.69158268 0.25098039 0.27450980 0.65882353
v -0.11487252 -0.03387937 -14.68849564 0.25098039 0.27450980 0.65882353
v -0.11500774 -0.03885022 -14.69206429 0.25098039 0.27450980 0.65882353
v -0.11674243 -0.04182051 -14.69353390 0.25098039 0.27450980 0.65882353
v -0.11680953 -0.03185420 -14.69051743 0.25098039 0.27450980 0.65882353
v -0.11689375 -0.03705354 -14.69318008 0.25098039 0.27450980 0.65882353
v -0.11747121 -0.02650137 -14.68623829 0.25098039 0.27450980 0.65882353
v -0.11530073 -0.02856276 -14.68431854 0.25098039 0.27450980 0.65882353
v -0.11769880 -0.04009724 -14.69378185 0.25098039 0.27450980 0.65882353
v -0.11893448 -0.04568619 -14.68915367 0.25098039 0.27450980 0.65882353
v -0.11927576 -0.04469472 -14.69207668 0.25098039 0.27450980 0.65882353
v -0.11925124 -0.04509291 -14.68777847 0.25098039 0.27450980 0.65882353
v -0.12614498 -0.03865130 -14.68531132 0.25098039 0.27450980 0.65882353
v -0.12488988 -0.04246414 -14.68864536 0.25098039 0.27450980 0.65882353
v -0.12726343 -0.03712018 -14.68710709 0.25098039 0.27450980 0.65882353
v -0.12522912 -0.04138707 -14.69060612 0.25098039 0.27450980 0.65882353
v -0.12260609 -0.04503545 -14.68992805 0.25098039 0.27450980 0.65882353
v -0.12193994 -0.04450208 -14.68807983 0.25098039 0.27450980 0.65882353
v -0.11740242 -0.02510868 -14.68465328 0.25098039 0.27450980 0.65882353
v -0.12155387 -0.02435511 -14.68529606 0.25098039 0.27450980 0.65882353
v -0.12167688 -0.02602032 -14.68700314 0.25098039 0.27450980 0.65882353
v -0.12059369 -0.03118257 -14.69144154 0.25098039 0.27450980 0.65882353
v -0.12579687 -0.02711759 -14.68659115 0.25098039 0.27450980 0.65882353
v -0.12796459 -0.02971438 -14.68489456 0.25098039 0.27450980 0.65882353
v -0.12669250 -0.03507258 -14.68905544 0.25098039 0.27450980 0.65882353
v -0.12470025 -0.03293574 -14.69093323 0.25098039 0.27450980 0.65882353
v -0.12456663 -0.04005109 -14.69239235 0.25098039 0.27450980 0.65882353
v -0.12291988 -0.03774291 -14.69372940 0.25098039 0.27450980 0.65882353
v -0.11993859 -0.03638975 -14.69417477 0.25098039 0.27450980 0.65882353
v -0.12181140 -0.04257989 -14.69334316 0.25098039 0.27450980 0.65882353
v -0.12236214 -0.04412556 -14.69219208 0.25098039 0.27450980 0.65882353
v -0.11949635 -0.04284556 -14.69351768 0.25098039 0.27450980 0.65882353
v -0.12121083 -0.04075630 -14.69416618 0.25098039 0.27450980 0.65882353
v -0.11958684 -0.04037710 -14.69419289 0.25098039 0.27450980 0.65882353
v -0.13227940 0.01212595 -14.67546272 0.25098039 0.27450980 0.65882353
v -0.06866701 0.04189018 -14.75311565 0.25098039 0.27450980 0.65882353
v -0.06992425 0.03870487 -14.74850464 0.25098039 0.27450980 0.65882353
v -0.08300054 0.03011597 -14.75366020 0.25098039 0.27450980 0.65882353
v -0.07810189 0.03051876 -14.74856186 0.25098039 0.27450980 0.65882353
v -0.08468942 0.03208530 -14.75978279 0.25098039 0.27450980 0.65882353
v -0.08019395 0.04024606 -14.76508522 0.25098039 0.27450980 0.65882353
v -0.08404584 0.03667364 -14.76321697 0.25098039 0.27450980 0.65882353
v -0.07339767 0.03383049 -14.74690723 0.25098039 0.27450980 0.65882353
v -0.06987405 0.04422712 -14.75834084 0.25098039 0.27450980 0.65882353
v -0.07474504 0.04407088 -14.76358700 0.25098039 0.27450980 0.65882353
v -0.06438582 0.03851677 -14.76152134 0.25098039 0.27450980 0.65882353
v -0.06958561 0.03770974 -14.76724529 0.25098039 0.27450980 0.65882353
v -0.07503127 0.03371600 -14.76922035 0.25098039 0.27450980 0.65882353
v -0.08009402 0.03031366 -14.76621246 0.25098039 0.27450980 0.65882353
v -0.08181192 0.02743146 -14.76265812 0.25098039 0.27450980 0.65882353
v -0.06529033 0.03633872 -14.75466919 0.25098039 0.27450980 0.65882353
v -0.06726958 0.03329319 -14.75026608 0.25098039 0.27450980 0.65882353
v -0.07223125 0.02936902 -14.74861240 0.25098039 0.27450980 0.65882353
v -0.06195895 0.02879465 -14.75507927 0.25098039 0.27450980 0.65882353
v -0.05933788 0.02155719 -14.76180744 0.25098039 0.27450980 0.65882353
v -0.06553270 0.00696450 -14.77187347 0.25098039 0.27450980 0.65882353
v -0.06912906 0.01263878 -14.77086830 0.25098039 0.27450980 0.65882353
v -0.06628233 0.01329346 -14.77097797 0.25098039 0.27450980 0.65882353
v -0.06323181 0.00829928 -14.77252769 0.25098039 0.27450980 0.65882353
v -0.06920075 0.01815130 -14.77047443 0.25098039 0.27450980 0.65882353
v -0.06701139 0.01727679 -14.76982403 0.25098039 0.27450980 0.65882353
v -0.06335266 0.01986048 -14.76718903 0.25098039 0.27450980 0.65882353
v -0.06054743 0.01533177 -14.76894283 0.25098039 0.27450980 0.65882353
v -0.05999555 0.01939914 -14.76354599 0.25098039 0.27450980 0.65882353
v -0.05802962 0.01588807 -14.76325512 0.25098039 0.27450980 0.65882353
v -0.05794354 0.01067299 -14.77002430 0.25098039 0.27450980 0.65882353
v -0.05973592 0.00609161 -14.77308655 0.25098039 0.27450980 0.65882353
v -0.05588879 0.00639336 -14.77073574 0.25098039 0.27450980 0.65882353
v -0.06130549 0.00368550 -14.77174568 0.25098039 0.27450980 0.65882353
v -0.06247154 0.02185303 -14.76864529 0.25098039 0.27450980 0.65882353
v -0.07555310 0.02135721 -14.76889610 0.25098039 0.27450980 0.65882353
v -0.07262824 0.01280337 -14.76898098 0.25098039 0.27450980 0.65882353
v -0.06822257 0.00610477 -14.76925564 0.25098039 0.27450980 0.65882353
v -0.06293342 0.00258192 -14.76910210 0.25098039 0.27450980 0.65882353
v -0.07478811 0.01231118 -14.76496220 0.25098039 0.27450980 0.65882353
v -0.06989905 0.00652266 -14.76497459 0.25098039 0.27450980 0.65882353
v -0.06477740 0.00363635 -14.76431561 0.25098039 0.27450980 0.65882353
v -0.07440816 0.01228811 -14.76015759 0.25098039 0.27450980 0.65882353
v -0.06940585 0.00732523 -14.76106262 0.25098039 0.27450980 0.65882353
v -0.07967965 0.02368611 -14.75778008 0.25098039 0.27450980 0.65882353
v -0.07975022 0.02271190 -14.76405811 0.25098039 0.27450980 0.65882353
v -0.06564586 0.00510368 -14.76190853 0.25098039 0.27450980 0.65882353
v -0.05542164 0.00391803 -14.76983070 0.25098039 0.27450980 0.65882353
v -0.05738734 0.00273293 -14.76652718 0.25098039 0.27450980 0.65882353
v -0.05744645 0.01678784 -14.75980473 0.25098039 0.27450980 0.65882353
v -0.05493532 0.01180779 -14.76459026 0.25098039 0.27450980 0.65882353
v -0.05512726 0.01137116 -14.76134872 0.25098039 0.27450980 0.65882353
v -0.05865352 0.01775216 -14.75591755 0.25098039 0.27450980 0.65882353
v -0.05593476 0.01080859 -14.75842571 0.25098039 0.27450980 0.65882353
v -0.05371171 0.00696855 -14.76479244 0.25098039 0.27450980 0.65882353
v -0.05417450 0.00861872 -14.76714039 0.25098039 0.27450980 0.65882353
v -0.08136289 0.02669543 -14.75656605 0.25098039 0.27450980 0.65882353
v -0.07771996 0.02767742 -14.75111771 0.25098039 0.27450980 0.65882353
v -0.07585166 0.02507995 -14.75237846 0.25098039 0.27450980 0.65882353
v -0.07112962 0.01427922 -14.75498772 0.25098039 0.27450980 0.65882353
v -0.07044247 0.02581549 -14.74971008 0.25098039 0.27450980 0.65882353
v -0.06495097 0.02751906 -14.75146389 0.25098039 0.27450980 0.65882353
v -0.06129412 0.01703511 -14.75311184 0.25098039 0.27450980 0.65882353
v -0.06596860 0.01584465 -14.75232029 0.25098039 0.27450980 0.65882353
v -0.05901034 0.00994331 -14.75636196 0.25098039 0.27450980 0.65882353
v -0.06211863 0.00939738 -14.75597191 0.25098039 0.27450980 0.65882353
v -0.06654382 0.00785796 -14.75773335 0.25098039 0.27450980 0.65882353
v -0.05832799 0.00597082 -14.75975895 0.25098039 0.27450980 0.65882353
v -0.05519141 0.00614981 -14.76177597 0.25098039 0.27450980 0.65882353
v -0.06038995 0.00356721 -14.76269817 0.25098039 0.27450980 0.65882353
v -0.06097074 0.00677819 -14.75863647 0.25098039 0.27450980 0.65882353
v -0.06298010 0.00535692 -14.76041889 0.25098039 0.27450980 0.65882353
v -0.12998341 0.01802617 -14.68565845 0.25098039 0.27450980 0.65882353
v -0.12384763 0.01764511 -14.68824100 0.25098039 0.27450980 0.65882353
v -0.12856317 0.02175992 -14.69006443 0.25098039 0.27450980 0.65882353
v -0.13359429 0.02894049 -14.69340992 0.25098039 0.27450980 0.65882353
v -0.14226088 0.03577519 -14.69335556 0.25098039 0.27450980 0.65882353
v -0.12751806 0.03052016 -14.69584370 0.25098039 0.27450980 0.65882353
v -0.12259288 0.02316220 -14.69177437 0.25098039 0.27450980 0.65882353
v -0.11609250 0.01673422 -14.68797016 0.25098039 0.27450980 0.65882353
v -0.12512043 0.03905714 -14.70084381 0.25098039 0.27450980 0.65882353
f 2 3 1
f 1 3 4
f 5 6 8
f 8 6 7
f 9 4 10
f 10 4 3
f 12 13 11
f 11 13 9
f 14 12 16
f 16 12 15
f 18 19 17
f 17 19 20
f 22 23 21
f 21 23 24
f 26 27 25
f 25 27 28
f 30 31 29
f 29 31 32
f 33 34 36
f 36 34 35
f 37 38 40
f 40 38 39
f 41 42 6
f 6 42 43
f 6 43 7
f 7 43 44
f 45 34 46
f 46 34 33
f 48 49 47
f 47 49 50
f 52 53 51
f 51 53 54
f 56 52 55
f 55 52 51
f 58 59 57
f 57 59 60
f 61 62 4
f 4 62 1
f 64 65 63
f 63 65 66
f 68 69 67
f 67 69 70
f 72 73 71
f 71 73 74
f 76 77 75
f 75 77 78
f 53 79 54
f 54 79 80
f 82 83 81
f 81 83 84
f 85 86 52
f 52 86 53
f 57 60 87
f 87 60 88
f 89 90 43
f 43 90 44
f 43 42 89
f 89 42 91
f 40 39 92
f 92 39 93
f 94 70 64
f 64 70 69
f 13 61 9
f 9 61 4
f 25 28 69
f 69 28 95
f 96 25 68
f 68 25 69
f 98 99 97
f 97 99 100
f 101 102 104
f 104 102 103
f 106 30 105
f 105 30 29
f 51 54 107
f 107 54 108
f 54 80 108
f 108 80 109
f 111 112 110
f 110 112 113
f 115 5 114
f 114 5 116
f 115 41 5
f 5 41 6
f 36 35 111
f 111 35 117
f 35 118 117
f 117 118 119
f 34 120 35
f 35 120 118
f 34 45 120
f 120 45 121
f 125 126 124
f 124 126 127
f 128 129 14
f 14 129 130
f 33 131 46
f 46 131 132
f 133 94 63
f 63 94 64
f 134 135 137
f 137 135 136
f 139 140 138
f 138 140 141
f 77 142 78
f 78 142 143
f 144 145 20
f 20 145 146
f 148 149 147
f 147 149 72
f 151 152 150
f 150 152 153
f 82 101 83
f 83 101 104
f 101 82 155
f 155 82 154
f 156 157 58
f 58 157 59
f 158 68 147
f 147 68 67
f 159 146 15
f 15 146 16
f 68 158 96
f 96 158 160
f 129 66 130
f 130 66 65
f 162 163 161
f 161 163 164
f 166 167 165
f 165 167 168
f 170 171 169
f 169 171 172
f 174 171 173
f 173 171 170
f 176 177 175
f 175 177 178
f 180 181 179
f 179 181 24
f 182 183 21
f 21 183 184
f 81 185 82
f 82 185 154
f 186 187 188
f 188 187 144
f 158 71 160
f 160 71 189
f 190 135 157
f 157 135 59
f 169 172 139
f 139 172 140
f 147 72 158
f 158 72 71
f 192 193 191
f 191 193 194
f 167 166 49
f 49 166 195
f 196 190 50
f 50 190 157
f 197 198 200
f 200 198 199
f 21 24 182
f 182 24 181
f 146 159 20
f 20 159 17
f 182 181 81
f 81 181 185
f 201 185 180
f 180 185 181
f 202 203 83
f 83 203 84
f 205 206 204
f 204 206 85
f 207 22 184
f 184 22 21
f 179 24 208
f 208 24 23
f 208 209 179
f 179 209 205
f 209 210 205
f 205 210 206
f 212 206 211
f 211 206 210
f 179 205 180
f 180 205 204
f 213 176 88
f 88 176 214
f 86 85 212
f 212 85 206
f 193 217 218
f 217 219 218
f 218 219 220
f 219 18 220
f 220 18 17
f 19 221 20
f 20 221 144
f 222 223 225
f 225 223 224
f 175 226 176
f 176 226 214
f 227 87 214
f 214 87 88
f 220 17 228
f 228 17 159
f 134 213 60
f 60 213 88
f 138 229 151
f 151 229 152
f 193 192 210
f 210 192 211
f 230 194 218
f 218 194 193
f 231 232 228
f 228 232 230
f 233 234 91
f 91 234 89
f 235 236 93
f 93 236 92
f 230 232 234
f 234 232 237
f 47 238 48
f 48 238 239
f 240 191 235
f 235 191 236
f 5 8 116
f 116 8 241
f 242 243 189
f 189 243 160
f 244 245 98
f 98 245 99
f 156 246 47
f 47 246 238
f 76 247 77
f 77 247 248
f 250 125 249
f 249 125 124
f 252 253 251
f 251 253 254
f 111 110 36
f 36 110 255
f 256 33 255
f 255 33 36
f 257 258 154
f 154 258 155
f 63 169 133
f 133 169 139
f 66 170 63
f 63 170 169
f 173 170 129
f 129 170 66
f 129 128 173
f 173 128 259
f 128 260 259
f 259 260 261
f 213 134 262
f 262 134 137
f 263 264 186
f 186 264 187
f 112 265 113
f 113 265 266
f 11 267 268
f 234 233 230
f 230 233 194
f 153 269 70
f 70 269 67
f 175 178 165
f 165 178 141
f 150 153 94
f 94 153 70
f 271 221 270
f 270 221 207
f 269 153 272
f 272 153 152
f 121 45 109
f 109 45 108
f 47 50 156
f 156 50 157
f 57 273 58
f 58 273 274
f 145 275 260
f 260 275 261
f 276 149 143
f 143 149 78
f 148 269 75
f 75 269 272
f 207 277 270
f 270 277 278
f 195 196 49
f 49 196 50
f 59 135 60
f 60 135 134
f 83 104 202
f 202 104 279
f 149 148 78
f 78 148 75
f 247 278 248
f 248 278 277
f 183 182 84
f 84 182 81
f 48 239 281
f 281 239 282
f 227 223 283
f 283 223 222
f 223 226 224
f 224 226 168
f 281 282 224
f 224 282 225
f 165 168 175
f 175 168 226
f 264 263 138
f 138 263 229
f 14 16 128
f 128 16 260
f 220 228 218
f 218 228 230
f 87 227 284
f 284 227 283
f 260 16 145
f 145 16 146
f 244 98 258
f 258 98 155
f 58 274 156
f 156 274 246
f 107 285 51
f 51 285 55
f 243 286 160
f 160 286 96
f 234 237 89
f 89 237 90
f 46 132 107
f 107 132 285
f 253 252 249
f 249 252 250
f 286 26 96
f 96 26 25
f 106 105 287
f 287 105 288
f 272 152 289
f 289 152 229
f 138 151 139
f 139 151 133
f 183 290 161
f 161 290 162
f 291 292 277
f 277 292 293
f 151 150 133
f 133 150 94
f 262 275 177
f 177 275 187
f 144 187 145
f 145 187 275
f 273 57 284
f 284 57 87
f 174 136 190
f 190 136 135
f 111 117 112
f 112 117 38
f 117 119 38
f 38 119 123
f 112 38 265
f 265 38 37
f 287 288 254
f 254 288 251
f 228 159 231
f 231 159 15
f 223 227 226
f 226 227 214
f 147 67 148
f 148 67 269
f 224 168 281
f 281 168 167
f 199 163 200
f 200 163 162
f 45 46 108
f 108 46 107
f 281 167 48
f 48 167 49
f 161 164 291
f 291 164 292
f 38 123 39
f 293 294 277
f 277 294 248
f 284 283 296
f 296 283 295
f 284 296 273
f 273 296 297
f 274 273 298
f 298 273 297
f 246 274 299
f 299 274 298
f 283 222 295
f 295 222 300
f 222 225 300
f 300 225 301
f 301 225 302
f 302 225 282
f 303 304 300
f 300 304 295
f 306 307 305
f 305 307 308
f 309 310 308
f 308 310 305
f 308 307 312
f 312 307 311
f 313 314 312
f 312 314 315
f 311 316 312
f 312 316 313
f 317 304 311
f 311 304 316
f 315 309 312
f 312 309 308
f 318 319 321
f 321 319 320
f 319 318 309
f 309 318 310
f 311 307 317
f 317 307 306
f 306 297 317
f 317 297 296
f 306 322 297
f 297 322 298
f 305 323 306
f 306 323 322
f 323 305 324
f 324 305 310
f 304 317 295
f 295 317 296
f 318 325 310
f 310 325 324
f 323 324 326
f 326 324 327
f 324 325 327
f 327 325 328
f 326 327 329
f 329 327 330
f 329 331 326
f 326 331 332
f 333 330 328
f 328 330 327
f 323 326 322
f 322 326 332
f 322 332 298
f 298 332 299
f 325 318 334
f 334 318 321
f 313 316 335
f 335 316 304
f 335 336 313
f 313 336 314
f 304 303 335
f 335 303 337
f 336 335 338
f 338 335 337
f 336 339 314
f 314 339 340
f 246 299 238
f 238 299 341
f 239 342 282
f 282 342 302
f 342 239 341
f 341 239 238
f 341 331 342
f 342 331 343
f 331 329 343
f 343 329 344
f 342 343 302
f 302 343 345
f 341 299 331
f 331 299 332
f 346 301 345
f 345 301 302
f 346 303 301
f 301 303 300
f 347 337 346
f 346 337 303
f 347 346 348
f 348 346 345
f 349 347 350
f 350 347 348
f 343 344 345
f 345 344 348
f 344 351 348
f 348 351 350
f 337 347 338
f 338 347 349
f 353 338 352
f 352 338 349
f 352 355 354
f 354 355 356
f 352 349 355
f 355 349 350
f 352 354 353
f 353 354 334
f 353 334 339
f 339 334 321
f 339 336 353
f 353 336 338
f 329 330 344
f 344 330 351
f 356 351 333
f 333 351 330
f 356 355 351
f 351 355 350
f 354 356 328
f 328 356 333
f 328 325 354
f 354 325 334
f 309 315 319
f 319 315 320
f 320 340 321
f 321 340 339
f 320 315 340
f 340 315 314
f 137 136 261
f 261 136 259
f 140 166 141
f 141 166 165
f 172 171 195
f 195 171 196
f 171 174 196
f 196 174 190
f 178 177 264
f 264 177 187
f 172 195 140
f 140 195 166
f 137 261 262
f 262 261 275
f 178 264 141
f 141 264 138
f 262 177 213
f 213 177 176
f 136 174 259
f 259 174 173
f 358 359 357
f 357 359 360
f 362 363 361
f 361 363 364
f 361 364 365
f 365 364 366
f 367 368 370
f 370 368 369
f 76 371 247
f 247 371 372
f 373 374 362
f 362 374 363
f 376 377 375
f 375 377 378
f 289 229 380
f 380 229 379
f 381 379 263
f 263 379 229
f 383 384 382
f 382 384 385
f 386 368 374
f 374 368 363
f 76 289 371
f 371 289 380
f 377 376 359
f 359 376 387
f 388 386 360
f 360 386 374
f 389 383 366
f 366 383 390
f 392 393 391
f 391 393 394
f 383 382 390
f 390 382 395
f 396 365 390
f 390 365 366
f 389 366 367
f 367 366 364
f 357 397 358
f 358 397 398
f 373 399 357
f 357 399 397
f 389 367 400
f 400 367 370
f 382 385 375
f 375 385 372
f 357 360 373
f 373 360 374
f 361 401 362
f 362 401 402
f 387 388 359
f 359 388 360
f 363 368 364
f 364 368 367
f 358 398 403
f 403 398 404
f 396 392 405
f 405 392 391
f 392 395 393
f 393 395 378
f 393 403 394
f 394 403 404
f 375 378 382
f 382 378 395
f 365 396 406
f 406 396 405
f 362 402 373
f 373 402 399
f 271 270 400
f 400 270 384
f 401 361 406
f 406 361 365
f 381 369 386
f 386 369 368
f 392 396 395
f 395 396 390
f 393 378 403
f 403 378 377
f 403 377 358
f 358 377 359
f 406 405 408
f 408 405 407
f 406 408 401
f 401 408 409
f 401 409 402
f 402 409 410
f 402 410 399
f 399 410 411
f 405 391 407
f 407 391 412
f 391 394 412
f 412 394 413
f 394 404 413
f 413 404 414
f 415 416 412
f 412 416 407
f 418 419 417
f 417 419 420
f 421 422 418
f 418 422 419
f 419 422 424
f 424 422 423
f 425 426 424
f 424 426 427
f 423 428 424
f 424 428 425
f 427 420 424
f 424 420 419
f 420 429 417
f 417 429 430
f 423 422 431
f 431 422 421
f 421 409 431
f 431 409 408
f 421 432 409
f 409 432 410
f 418 433 421
f 421 433 432
f 434 433 417
f 417 433 418
f 431 416 423
f 423 416 428
f 416 431 407
f 407 431 408
f 435 434 430
f 430 434 417
f 433 434 436
f 436 434 437
f 434 435 437
f 437 435 438
f 436 437 439
f 439 437 440
f 439 441 436
f 436 441 442
f 438 443 437
f 437 443 440
f 436 442 433
f 433 442 432
f 432 442 410
f 410 442 411
f 435 430 445
f 445 430 444
f 430 429 444
f 444 429 446
f 425 428 447
f 447 428 416
f 426 425 448
f 448 425 447
f 416 415 447
f 447 415 449
f 447 449 448
f 448 449 450
f 451 452 448
f 448 452 426
f 446 452 444
f 444 452 451
f 399 411 397
f 397 411 453
f 398 454 404
f 404 454 414
f 454 398 453
f 453 398 397
f 453 441 454
f 454 441 455
f 441 439 455
f 455 439 456
f 454 455 414
f 414 455 457
f 441 453 442
f 442 453 411
f 458 413 457
f 457 413 414
f 458 415 413
f 413 415 412
f 458 459 415
f 415 459 449
f 459 458 460
f 460 458 457
f 461 459 462
f 462 459 460
f 455 456 457
f 457 456 460
f 456 463 460
f 460 463 462
f 459 461 449
f 449 461 450
f 465 450 464
f 464 450 461
f 464 467 466
f 466 467 468
f 464 461 467
f 467 461 462
f 464 466 465
f 465 466 445
f 465 445 451
f 451 445 444
f 451 448 465
f 465 448 450
f 439 440 456
f 456 440 463
f 468 463 443
f 443 463 440
f 468 467 463
f 463 467 462
f 466 468 438
f 438 468 443
f 438 435 466
f 466 435 445
f 420 427 429
f 429 427 446
f 446 427 452
f 452 427 426
f 370 369 188
f 188 369 186
f 371 376 372
f 372 376 375
f 380 379 387
f 387 379 388
f 379 381 388
f 388 381 386
f 385 384 278
f 278 384 270
f 380 387 371
f 371 387 376
f 400 370 271
f 271 370 188
f 385 278 372
f 372 278 247
f 400 384 389
f 389 384 383
f 369 381 186
f 186 381 263
f 221 271 144
f 144 271 188
f 221 19 207
f 207 19 22
f 19 18 22
f 22 18 23
f 18 219 23
f 23 219 208
f 469 470 472
f 472 470 471
f 474 475 473
f 473 475 476
f 473 476 477
f 477 476 478
f 480 481 479
f 479 481 482
f 483 484 474
f 474 484 475
f 486 487 485
f 485 487 488
f 489 490 77
f 77 490 142
f 491 489 248
f 248 489 77
f 493 494 492
f 492 494 495
f 496 480 484
f 484 480 475
f 486 497 487
f 487 497 471
f 498 496 472
f 472 496 484
f 499 493 478
f 478 493 500
f 501 502 504
f 504 502 503
f 493 492 500
f 500 492 505
f 506 477 500
f 500 477 478
f 499 478 479
f 479 478 476
f 469 507 470
f 470 507 508
f 483 509 469
f 469 509 507
f 479 482 499
f 499 482 510
f 492 495 485
f 485 495 511
f 483 469 484
f 484 469 472
f 473 512 474
f 474 512 513
f 497 498 471
f 471 498 472
f 475 480 476
f 476 480 479
f 470 508 514
f 514 508 515
f 506 502 516
f 516 502 501
f 503 502 488
f 488 502 505
f 514 515 503
f 503 515 504
f 485 488 492
f 492 488 505
f 477 506 517
f 517 506 516
f 474 513 483
f 483 513 509
f 510 292 494
f 494 292 164
f 512 473 517
f 517 473 477
f 491 481 496
f 496 481 480
f 502 506 505
f 505 506 500
f 503 488 514
f 514 488 487
f 514 487 470
f 470 487 471
f 517 516 519
f 519 516 518
f 517 519 512
f 512 519 520
f 512 520 513
f 513 520 521
f 513 521 509
f 509 521 522
f 516 501 518
f 518 501 523
f 501 504 523
f 523 504 524
f 524 504 525
f 525 504 515
f 526 527 523
f 523 527 518
f 529 530 528
f 528 530 531
f 532 533 529
f 529 533 530
f 530 533 535
f 535 533 534
f 536 537 535
f 535 537 538
f 534 539 535
f 535 539 536
f 538 531 535
f 535 531 530
f 540 541 531
f 531 541 528
f 533 532 534
f 534 532 542
f 532 520 542
f 542 520 519
f 532 543 520
f 520 543 521
f 529 544 532
f 532 544 543
f 544 529 545
f 545 529 528
f 534 542 539
f 539 542 527
f 527 542 518
f 518 542 519
f 541 546 528
f 528 546 545
f 547 544 548
f 548 544 545
f 546 549 545
f 545 549 548
f 550 547 551
f 551 547 548
f 547 550 553
f 553 550 552
f 549 554 548
f 548 554 551
f 544 547 543
f 543 547 553
f 543 553 521
f 521 553 522
f 546 541 556
f 556 541 555
f 541 540 555
f 555 540 557
f 536 539 558
f 558 539 527
f 537 536 559
f 559 536 558
f 527 526 558
f 558 526 560
f 559 558 561
f 561 558 560
f 559 562 537
f 537 562 563
f 557 563 555
f 555 563 562
f 509 522 507
f 507 522 564
f 508 565 515
f 515 565 525
f 565 508 564
f 564 508 507
f 564 552 565
f 565 552 566
f 552 550 566
f 566 550 567
f 565 566 525
f 525 566 568
f 564 522 552
f 552 522 553
f 569 524 568
f 568 524 525
f 569 526 524
f 524 526 523
f 570 560 569
f 569 560 526
f 570 569 571
f 571 569 568
f 572 570 573
f 573 570 571
f 566 567 568
f 568 567 571
f 567 574 571
f 571 574 573
f 570 572 560
f 560 572 561
f 576 561 575
f 575 561 572
f 575 578 577
f 577 578 579
f 575 572 578
f 578 572 573
f 575 577 576
f 576 577 556
f 576 556 562
f 562 556 555
f 562 559 576
f 576 559 561
f 550 551 567
f 567 551 574
f 579 574 554
f 554 574 551
f 579 578 574
f 574 578 573
f 579 554 577
f 577 554 549
f 549 546 577
f 577 546 556
f 531 538 540
f 540 538 557
f 557 538 563
f 563 538 537
f 481 294 482
f 482 294 293
f 580 486 511
f 511 486 485
f 490 489 497
f 497 489 498
f 489 491 498
f 498 491 496
f 163 495 164
f 164 495 494
f 580 490 486
f 486 490 497
f 482 293 510
f 510 293 292
f 495 163 511
f 511 163 199
f 494 493 510
f 510 493 499
f 481 491 294
f 294 491 248
f 582 583 581
f 581 583 584
f 586 587 585
f 585 587 588
f 585 588 589
f 589 588 590
f 592 593 591
f 591 593 594
f 595 596 598
f 598 596 597
f 599 600 586
f 586 600 587
f 601 602 604
f 604 602 603
f 605 606 608
f 608 606 607
f 609 607 200
f 200 607 606
f 610 611 613
f 613 611 612
f 600 614 587
f 587 614 592
f 596 605 597
f 597 605 608
f 602 615 603
f 603 615 583
f 616 614 584
f 584 614 600
f 611 618 617
f 617 618 590
f 620 621 619
f 619 621 622
f 610 623 611
f 611 623 618
f 624 589 618
f 618 589 590
f 617 590 591
f 591 590 588
f 581 625 582
f 582 625 626
f 599 627 581
f 581 627 625
f 591 594 617
f 617 594 628
f 601 610 598
f 598 610 613
f 581 584 599
f 599 584 600
f 585 629 586
f 586 629 630
f 615 616 583
f 583 616 584
f 587 592 588
f 588 592 591
f 582 626 631
f 631 626 632
f 624 620 633
f 633 620 619
f 621 620 604
f 604 620 623
f 631 632 621
f 621 632 622
f 610 601 623
f 623 601 604
f 589 624 634
f 634 624 633
f 586 630 599
f 599 630 627
f 203 202 628
f 628 202 612
f 629 585 634
f 634 585 589
f 609 593 614
f 614 593 592
f 620 624 623
f 623 624 618
f 631 621 603
f 603 621 604
f 582 631 583
f 583 631 603
f 634 633 636
f 636 633 635
f 634 636 629
f 629 636 637
f 629 637 630
f 630 637 638
f 630 638 627
f 627 638 639
f 633 619 635
f 635 619 640
f 619 622 640
f 640 622 641
f 641 622 642
f 642 622 632
f 644 635 643
f 643 635 640
f 645 646 648
f 648 646 647
f 649 650 646
f 646 650 647
f 647 650 652
f 652 650 651
f 652 653 655
f 655 653 654
f 651 656 652
f 652 656 653
f 655 648 652
f 652 648 647
f 648 657 645
f 645 657 658
f 650 649 651
f 651 649 659
f 649 637 659
f 659 637 636
f 649 660 637
f 637 660 638
f 661 660 646
f 646 660 649
f 662 661 645
f 645 661 646
f 651 659 656
f 656 659 644
f 644 659 635
f 635 659 636
f 663 662 658
f 658 662 645
f 664 661 665
f 665 661 662
f 663 666 662
f 662 666 665
f 667 664 668
f 668 664 665
f 664 667 670
f 670 667 669
f 666 671 665
f 665 671 668
f 661 664 660
f 660 664 670
f 660 670 638
f 638 670 639
f 658 672 663
f 663 672 673
f 658 657 672
f 672 657 674
f 653 656 675
f 675 656 644
f 653 675 654
f 654 675 676
f 675 644 677
f 677 644 643
f 676 675 678
f 678 675 677
f 679 680 676
f 676 680 654
f 674 680 672
f 672 680 679
f 627 639 625
f 625 639 681
f 626 682 632
f 632 682 642
f 681 682 625
f 625 682 626
f 669 683 681
f 681 683 682
f 667 684 669
f 669 684 683
f 682 683 642
f 642 683 685
f 681 639 669
f 669 639 670
f 686 641 685
f 685 641 642
f 641 686 640
f 640 686 643
f 686 687 643
f 643 687 677
f 687 686 688
f 688 686 685
f 689 687 690
f 690 687 688
f 683 684 685
f 685 684 688
f 684 691 688
f 688 691 690
f 687 689 677
f 677 689 678
f 693 678 692
f 692 678 689
f 692 695 694
f 694 695 696
f 692 689 695
f 695 689 690
f 692 694 693
f 693 694 673
f 693 673 679
f 679 673 672
f 679 676 693
f 693 676 678
f 684 667 691
f 691 667 668
f 696 691 671
f 671 691 668
f 696 695 691
f 691 695 690
f 694 696 666
f 666 696 671
f 666 663 694
f 694 663 673
f 648 655 657
f 657 655 674
f 674 655 680
f 680 655 654
f 593 162 594
f 594 162 290
f 598 597 601
f 601 597 602
f 615 608 616
f 616 608 607
f 607 609 616
f 616 609 614
f 697 595 613
f 613 595 598
f 597 608 602
f 602 608 615
f 594 290 628
f 628 290 203
f 628 612 617
f 617 612 611
f 593 609 162
f 162 609 200
f 105 29 698
f 698 29 699
f 268 126 701
f 701 126 700
f 126 125 700
f 700 125 702
f 252 703 250
f 250 703 704
f 32 268 705
f 705 268 701
f 288 105 706
f 706 105 698
f 29 32 699
f 699 32 705
f 707 251 706
f 706 251 288
f 250 704 125
f 125 704 702
f 703 252 707
f 707 252 251
f 706 708 707
f 707 708 709
f 707 709 703
f 703 709 710
f 703 710 704
f 704 710 711
f 704 711 702
f 702 711 712
f 706 698 708
f 708 698 713
f 698 699 713
f 713 699 714
f 699 705 714
f 714 705 715
f 717 708 716
f 716 708 713
f 719 720 718
f 718 720 721
f 722 723 719
f 719 723 720
f 724 725 723
f 723 725 720
f 724 726 725
f 725 726 727
f 728 721 725
f 725 721 720
f 721 728 729
f 729 728 730
f 729 731 721
f 721 731 718
f 724 723 732
f 732 723 722
f 722 710 732
f 732 710 709
f 722 733 710
f 710 733 711
f 719 734 722
f 722 734 733
f 734 719 735
f 735 719 718
f 724 732 726
f 726 732 717
f 717 732 708
f 708 732 709
f 731 736 718
f 718 736 735
f 737 734 738
f 738 734 735
f 736 739 735
f 735 739 738
f 740 737 741
f 741 737 738
f 737 740 743
f 743 740 742
f 739 744 738
f 738 744 741
f 734 737 733
f 733 737 743
f 733 743 711
f 711 743 712
f 736 731 746
f 746 731 745
f 731 729 745
f 745 729 730
f 727 726 747
f 747 726 717
f 748 727 749
f 749 727 747
f 747 717 750
f 750 717 716
f 749 747 751
f 751 747 750
f 749 752 748
f 748 752 753
f 730 753 745
f 745 753 752
f 728 725 748
f 748 725 727
f 730 728 753
f 753 728 748
f 700 702 754
f 754 702 712
f 705 701 715
f 715 701 755
f 754 755 700
f 700 755 701
f 742 756 754
f 754 756 755
f 740 757 742
f 742 757 756
f 755 756 715
f 715 756 758
f 754 712 742
f 742 712 743
f 759 714 758
f 758 714 715
f 714 759 713
f 713 759 716
f 759 760 716
f 716 760 750
f 760 759 761
f 761 759 758
f 762 760 763
f 763 760 761
f 756 757 758
f 758 757 761
f 757 764 761
f 761 764 763
f 760 762 750
f 750 762 751
f 766 751 765
f 765 751 762
f 767 765 769
f 769 765 768
f 765 762 768
f 768 762 763
f 765 767 766
f 766 767 746
f 766 746 752
f 752 746 745
f 752 749 766
f 766 749 751
f 757 740 764
f 764 740 741
f 769 764 744
f 744 764 741
f 769 768 764
f 764 768 763
f 767 769 739
f 739 769 744
f 739 736 767
f 767 736 746
f 219 217 208
f 208 217 209
f 209 217 210
f 210 217 193
f 198 580 199
f 199 580 511
f 76 75 289
f 289 75 272
f 277 207 291
f 291 207 184
f 290 183 203
f 203 183 84
f 490 580 142
f 142 580 198
f 142 198 143
f 143 198 197
f 149 276 72
f 72 276 73
f 104 103 279
f 279 103 770
f 770 596 279
f 279 596 595
f 605 596 771
f 771 596 770
f 771 770 772
f 772 770 103
f 772 103 773
f 773 103 102
f 155 774 101
f 101 774 102
f 773 102 97
f 97 102 774
f 775 773 100
f 100 773 97
f 773 775 772
f 772 775 776
f 772 776 771
f 771 776 777
f 200 606 197
f 197 606 777
f 189 71 778
f 778 71 74
f 97 774 98
f 98 774 155
f 183 161 184
f 184 161 291
f 777 276 197
f 197 276 143
f 777 606 771
f 771 606 605
f 613 612 697
f 697 612 202
f 595 697 279
f 279 697 202
f 73 276 776
f 776 276 777
f 776 775 73
f 73 775 74
f 100 778 775
f 775 778 74
f 778 100 189
f 189 100 99
f 245 242 99
f 99 242 189
f 131 33 256
f 28 1 95
f 95 1 62
f 27 2 28
f 28 2 1
f 265 115 266
f 266 115 114
f 95 62 69
f 69 62 64
f 62 61 64
f 64 61 65
f 61 13 65
f 65 13 130
f 13 12 130
f 130 12 14
f 31 11 32
f 32 11 268
f 15 12 31
f 31 12 11
f 31 30 15
f 15 30 231
f 30 106 231
f 231 106 232
f 287 237 106
f 106 237 232
f 254 90 287
f 287 90 237
f 253 44 254
f 254 44 90
f 253 249 44
f 44 249 7
f 267 127 268
f 268 127 126
f 10 3 241
f 241 3 116
f 3 2 116
f 116 2 114
f 2 27 114
f 114 27 266
f 27 26 266
f 266 26 113
f 26 286 113
f 113 286 110
f 286 243 110
f 110 243 255
f 243 242 255
f 255 242 256
f 242 245 256
f 256 245 131
f 245 244 131
f 131 244 132
f 265 37 115
f 115 37 41
f 41 37 42
f 42 37 40
f 92 91 40
f 40 91 42
f 236 233 92
f 92 233 91
f 191 194 236
f 236 194 233
f 258 285 244
f 244 285 132
f 257 55 258
f 258 55 285
f 257 154 201
f 201 154 185
f 56 201 204
f 204 201 180
f 55 257 56
f 56 257 201
f 204 85 56
f 56 85 52
f 86 122 53
f 53 122 79
f 212 215 86
f 86 215 122
f 211 216 212
f 212 216 215
f 192 280 211
f 211 280 216
f 191 240 192
f 192 240 280
f 249 124 7
f 7 124 8
f 124 127 8
f 8 127 241
f 127 267 241
f 241 267 10
f 10 267 9
f 9 267 11
f 93 39 235
f 235 39 240
f 39 123 240
f 240 123 280
f 123 119 280
f 280 119 216
f 119 118 216
f 216 118 215
f 118 120 215
f 215 120 122
f 120 121 122
f 122 121 79
f 121 109 79
f 79 109 80

