# https://github.com/mikedh/trimesh
v -0.14518525 0.05934480 -15.27490330 0.25098039 0.27450980 0.65882353
v -0.15044838 0.06229866 -15.28357887 0.25098039 0.27450980 0.65882353
v -0.13912202 0.05940466 -15.28532887 0.25098039 0.27450980 0.65882353
v -0.13532291 0.05662463 -15.27584362 0.25098039 0.27450980 0.65882353
v -0.14661786 0.06839423 -15.30496597 0.25098039 0.27450980 0.65882353
v -0.14320767 0.07966291 -15.31067181 0.25098039 0.27450980 0.65882353
v -0.12911664 0.07189319 -15.30649471 0.25098039 0.27450980 0.65882353
v -0.13462757 0.06374307 -15.30300713 0.25098039 0.27450980 0.65882353
v -0.12730020 0.05696085 -15.27467251 0.25098039 0.27450980 0.65882353
v -0.13054296 0.05665005 -15.28559303 0.25098039 0.27450980 0.65882353
v -0.12351282 0.06292445 -15.27329731 0.25098039 0.27450980 0.65882353
v -0.12109652 0.06520926 -15.26012897 0.25098039 0.27450980 0.65882353
v -0.12437703 0.05938150 -15.26406670 0.25098039 0.27450980 0.65882353
v -0.12006178 0.06352429 -15.25173092 0.25098039 0.27450980 0.65882353
v -0.12465133 0.07498267 -15.25782299 0.25098039 0.27450980 0.65882353
v -0.12565048 0.06726676 -15.24481392 0.25098039 0.27450980 0.65882353
v -0.15262198 0.07565149 -15.24523449 0.25098039 0.27450980 0.65882353
v -0.16494335 0.07202233 -15.24431896 0.25098039 0.27450980 0.65882353
v -0.15881926 0.06132425 -15.23499012 0.25098039 0.27450980 0.65882353
v -0.14650685 0.06567824 -15.23743629 0.25098039 0.27450980 0.65882353
v -0.17723340 0.05621104 -15.24089718 0.25098039 0.27450980 0.65882353
v -0.16696101 0.05849168 -15.23678493 0.25098039 0.27450980 0.65882353
v -0.17324437 0.07005715 -15.24548149 0.25098039 0.27450980 0.65882353
v -0.18235341 0.06760219 -15.24871349 0.25098039 0.27450980 0.65882353
v -0.16145441 0.06068528 -15.27483463 0.25098039 0.27450980 0.65882353
v -0.16768339 0.06459941 -15.28249264 0.25098039 0.27450980 0.65882353
v -0.16240659 0.06465985 -15.28174496 0.25098039 0.27450980 0.65882353
v -0.15612626 0.06146820 -15.27478600 0.25098039 0.27450980 0.65882353
v -0.11524504 0.06963292 -15.28010082 0.25098039 0.27450980 0.65882353
v -0.12083305 0.07827479 -15.27615547 0.25098039 0.27450980 0.65882353
v -0.12097737 0.07139243 -15.27227783 0.25098039 0.27450980 0.65882353
v -0.11750513 0.06466769 -15.28040218 0.25098039 0.27450980 0.65882353
v -0.18637231 0.07323648 -15.30093193 0.25098039 0.27450980 0.65882353
v -0.19111948 0.08582853 -15.30413723 0.25098039 0.27450980 0.65882353
v -0.18592949 0.08835274 -15.30439568 0.25098039 0.27450980 0.65882353
v -0.18313695 0.07632282 -15.30127525 0.25098039 0.27450980 0.65882353
v -0.16332375 0.08880208 -15.31084347 0.25098039 0.27450980 0.65882353
v -0.17044991 0.09634317 -15.30830669 0.25098039 0.27450980 0.65882353
v -0.16515672 0.10947959 -15.30515480 0.25098039 0.27450980 0.65882353
v -0.15732989 0.10368863 -15.30486393 0.25098039 0.27450980 0.65882353
v -0.15316993 0.08305637 -15.31185818 0.25098039 0.27450980 0.65882353
v -0.14872153 0.09591848 -15.30861855 0.25098039 0.27450980 0.65882353
v -0.13838173 0.09018965 -15.30834103 0.25098039 0.27450980 0.65882353
v -0.12420997 0.07982318 -15.30556202 0.25098039 0.27450980 0.65882353
v -0.20259368 0.08196755 -15.30046940 0.25098039 0.27450980 0.65882353
v -0.20140454 0.07234886 -15.29798412 0.25098039 0.27450980 0.65882353
v -0.09421267 0.02621927 -15.23051548 0.25098039 0.27450980 0.65882353
v -0.09794965 0.02209091 -15.22945404 0.25098039 0.27450980 0.65882353
v -0.10126440 0.02572816 -15.23207760 0.25098039 0.27450980 0.65882353
v -0.09717573 0.02933175 -15.23234749 0.25098039 0.27450980 0.65882353
v -0.21154436 0.08103467 -15.28267574 0.25098039 0.27450980 0.65882353
v -0.21071029 0.08654545 -15.27414417 0.25098039 0.27450980 0.65882353
v -0.21401258 0.09008007 -15.27882195 0.25098039 0.27450980 0.65882353
v -0.21320552 0.08639175 -15.28709030 0.25098039 0.27450980 0.65882353
v -0.20907763 0.07398140 -15.27640438 0.25098039 0.27450980 0.65882353
v -0.20577863 0.08119543 -15.26800919 0.25098039 0.27450980 0.65882353
v -0.09267454 0.03193870 -15.22001553 0.25098039 0.27450980 0.65882353
v -0.09099290 0.03119901 -15.22462177 0.25098039 0.27450980 0.65882353
v -0.09430411 0.03492656 -15.22544193 0.25098039 0.27450980 0.65882353
v -0.09677324 0.03553727 -15.22095585 0.25098039 0.27450980 0.65882353
v -0.13080181 0.05612167 -15.26709652 0.25098039 0.27450980 0.65882353
v -0.13994157 0.05500793 -15.26839161 0.25098039 0.27450980 0.65882353
v -0.12360807 0.04537069 -15.25337696 0.25098039 0.27450980 0.65882353
v -0.13124475 0.04953253 -15.25861835 0.25098039 0.27450980 0.65882353
v -0.12569258 0.05404283 -15.25951576 0.25098039 0.27450980 0.65882353
v -0.12017885 0.05131257 -15.25397015 0.25098039 0.27450980 0.65882353
v -0.15420030 0.04528005 -15.25888538 0.25098039 0.27450980 0.65882353
v -0.15919524 0.05288302 -15.26653194 0.25098039 0.27450980 0.65882353
v -0.15292221 0.05454273 -15.26571083 0.25098039 0.27450980 0.65882353
v -0.14574210 0.04596104 -15.25834656 0.25098039 0.27450980 0.65882353
v -0.17156741 0.04687624 -15.26832771 0.25098039 0.27450980 0.65882353
v -0.16573590 0.04014415 -15.26065636 0.25098039 0.27450980 0.65882353
v -0.17357130 0.03758448 -15.26286507 0.25098039 0.27450980 0.65882353
v -0.17631999 0.04231752 -15.26860905 0.25098039 0.27450980 0.65882353
v -0.15310594 0.03000493 -15.24571896 0.25098039 0.27450980 0.65882353
v -0.14958172 0.02721242 -15.23783970 0.25098039 0.27450980 0.65882353
v -0.15234177 0.02623606 -15.23739529 0.25098039 0.27450980 0.65882353
v -0.15632319 0.02932417 -15.24587250 0.25098039 0.27450980 0.65882353
v -0.21713790 0.09460516 -15.28209972 0.25098039 0.27450980 0.65882353
v -0.21390799 0.09214643 -15.29037857 0.25098039 0.27450980 0.65882353
v -0.19426888 0.04902827 -15.24901581 0.25098039 0.27450980 0.65882353
v -0.20029746 0.04582330 -15.25758553 0.25098039 0.27450980 0.65882353
v -0.19726351 0.03527328 -15.25081062 0.25098039 0.27450980 0.65882353
v -0.19211254 0.04144525 -15.24407387 0.25098039 0.27450980 0.65882353
v -0.20472576 0.09182450 -15.26770401 0.25098039 0.27450980 0.65882353
v -0.20982936 0.09516159 -15.27131557 0.25098039 0.27450980 0.65882353
v -0.09632930 0.02990784 -15.21578312 0.25098039 0.27450980 0.65882353
v -0.10035983 0.03339938 -15.21693611 0.25098039 0.27450980 0.65882353
v -0.13835013 0.09826706 -15.29802418 0.25098039 0.27450980 0.65882353
v -0.12214561 0.08625263 -15.29837132 0.25098039 0.27450980 0.65882353
v -0.15037233 0.10583460 -15.29688644 0.25098039 0.27450980 0.65882353
v -0.15810491 0.11140912 -15.29483795 0.25098039 0.27450980 0.65882353
v -0.16339289 0.11696042 -15.29546642 0.25098039 0.27450980 0.65882353
v -0.13438214 0.04413187 -15.25533009 0.25098039 0.27450980 0.65882353
v -0.14905587 0.05712641 -15.26939964 0.25098039 0.27450980 0.65882353
v -0.16624843 0.05886618 -15.27488136 0.25098039 0.27450980 0.65882353
v -0.19209056 0.04307703 -15.27700710 0.25098039 0.27450980 0.65882353
v -0.19644696 0.05037083 -15.28391266 0.25098039 0.27450980 0.65882353
v -0.18552276 0.05102633 -15.28262997 0.25098039 0.27450980 0.65882353
v -0.18418920 0.04461662 -15.27638149 0.25098039 0.27450980 0.65882353
v -0.20009053 0.03973139 -15.26428986 0.25098039 0.27450980 0.65882353
v -0.19416726 0.03634098 -15.26782417 0.25098039 0.27450980 0.65882353
v -0.19053161 0.02966018 -15.26233768 0.25098039 0.27450980 0.65882353
v -0.19620077 0.03196800 -15.25831032 0.25098039 0.27450980 0.65882353
v -0.11124063 0.07381754 -15.28386974 0.25098039 0.27450980 0.65882353
v -0.12061004 0.08370627 -15.27984524 0.25098039 0.27450980 0.65882353
v -0.20886819 0.07651749 -15.29150772 0.25098039 0.27450980 0.65882353
v -0.20862028 0.08303894 -15.29545784 0.25098039 0.27450980 0.65882353
v -0.21032661 0.09141307 -15.29662895 0.25098039 0.27450980 0.65882353
v -0.17641145 0.06860972 -15.29269791 0.25098039 0.27450980 0.65882353
v -0.18095501 0.07834110 -15.30182266 0.25098039 0.27450980 0.65882353
v -0.17713144 0.07856148 -15.30338383 0.25098039 0.27450980 0.65882353
v -0.17390832 0.06883100 -15.29261017 0.25098039 0.27450980 0.65882353
v -0.15617247 0.06455135 -15.29451656 0.25098039 0.27450980 0.65882353
v -0.16040027 0.07260822 -15.30531502 0.25098039 0.27450980 0.65882353
v -0.14401269 0.06057891 -15.29548073 0.25098039 0.27450980 0.65882353
v -0.17983705 0.09280401 -15.30632210 0.25098039 0.27450980 0.65882353
v -0.18925728 0.09732348 -15.30803013 0.25098039 0.27450980 0.65882353
v -0.18182346 0.10172071 -15.30855942 0.25098039 0.27450980 0.65882353
v -0.19791187 0.09416967 -15.30565071 0.25098039 0.27450980 0.65882353
v -0.20508769 0.09179803 -15.30138016 0.25098039 0.27450980 0.65882353
v -0.21504681 0.10026272 -15.27203083 0.25098039 0.27450980 0.65882353
v -0.17465785 0.10588939 -15.30772591 0.25098039 0.27450980 0.65882353
v -0.12621182 0.06034882 -15.30043697 0.25098039 0.27450980 0.65882353
v -0.11963439 0.05650384 -15.29732037 0.25098039 0.27450980 0.65882353
v -0.12185743 0.05545064 -15.29028606 0.25098039 0.27450980 0.65882353
v -0.12839490 0.05792871 -15.29257298 0.25098039 0.27450980 0.65882353
v -0.11751138 0.05976800 -15.24377537 0.25098039 0.27450980 0.65882353
v -0.11721373 0.05529649 -15.25002193 0.25098039 0.27450980 0.65882353
v -0.12071431 0.05940665 -15.25794220 0.25098039 0.27450980 0.65882353
v -0.18675534 0.06433642 -15.29416084 0.25098039 0.27450980 0.65882353
v -0.20016117 0.06349045 -15.29224491 0.25098039 0.27450980 0.65882353
v -0.12611209 0.04038827 -15.24922371 0.25098039 0.27450980 0.65882353
v -0.10025479 0.03886014 -15.22210407 0.25098039 0.27450980 0.65882353
v -0.09772182 0.03865563 -15.22708988 0.25098039 0.27450980 0.65882353
v -0.10900840 0.05015457 -15.23636627 0.25098039 0.27450980 0.65882353
v -0.11161445 0.05027151 -15.23000240 0.25098039 0.27450980 0.65882353
v -0.12469675 0.03697613 -15.23768044 0.25098039 0.27450980 0.65882353
v -0.12281254 0.03783039 -15.24442577 0.25098039 0.27450980 0.65882353
v -0.12105651 0.03710102 -15.24117279 0.25098039 0.27450980 0.65882353
v -0.12237999 0.03376243 -15.23564911 0.25098039 0.27450980 0.65882353
v -0.15989731 0.02457966 -15.24207306 0.25098039 0.27450980 0.65882353
v -0.16373822 0.02762989 -15.24881554 0.25098039 0.27450980 0.65882353
v -0.13992244 0.05263709 -15.23072910 0.25098039 0.27450980 0.65882353
v -0.13065268 0.06177105 -15.23258686 0.25098039 0.27450980 0.65882353
v -0.13597122 0.06933884 -15.23955822 0.25098039 0.27450980 0.65882353
v -0.16115312 0.04316218 -15.26008129 0.25098039 0.27450980 0.65882353
v -0.15713158 0.03575434 -15.25316811 0.25098039 0.27450980 0.65882353
v -0.16084036 0.03429987 -15.25336838 0.25098039 0.27450980 0.65882353
v -0.13542946 0.04079966 -15.25165749 0.25098039 0.27450980 0.65882353
v -0.12972876 0.03733683 -15.24531078 0.25098039 0.27450980 0.65882353
v -0.13597360 0.03726593 -15.24664783 0.25098039 0.27450980 0.65882353
v -0.14113118 0.04078416 -15.25180054 0.25098039 0.27450980 0.65882353
v -0.20462784 0.05664141 -15.26364899 0.25098039 0.27450980 0.65882353
v -0.20484073 0.04957942 -15.27140045 0.25098039 0.27450980 0.65882353
v -0.09157878 0.02930749 -15.22860146 0.25098039 0.27450980 0.65882353
v -0.09477441 0.03286508 -15.22982788 0.25098039 0.27450980 0.65882353
v -0.16592893 0.05073156 -15.26713276 0.25098039 0.27450980 0.65882353
v -0.14150178 0.07752838 -15.24845505 0.25098039 0.27450980 0.65882353
v -0.17090073 0.05666591 -15.27552319 0.25098039 0.27450980 0.65882353
v -0.17731276 0.03526475 -15.23474121 0.25098039 0.27450980 0.65882353
v -0.17687133 0.02924825 -15.23932076 0.25098039 0.27450980 0.65882353
v -0.17287770 0.02541986 -15.23591232 0.25098039 0.27450980 0.65882353
v -0.17370191 0.02884999 -15.23067856 0.25098039 0.27450980 0.65882353
v -0.11223444 0.02472139 -15.22696209 0.25098039 0.27450980 0.65882353
v -0.10908441 0.02468844 -15.23177528 0.25098039 0.27450980 0.65882353
v -0.10559964 0.02232532 -15.22885704 0.25098039 0.27450980 0.65882353
v -0.10843535 0.02223407 -15.22399998 0.25098039 0.27450980 0.65882353
v -0.11969455 0.04149242 -15.24775505 0.25098039 0.27450980 0.65882353
v -0.11644906 0.04711793 -15.24883175 0.25098039 0.27450980 0.65882353
v -0.11307240 0.04281340 -15.24502659 0.25098039 0.27450980 0.65882353
v -0.11714672 0.03913847 -15.24333096 0.25098039 0.27450980 0.65882353
v -0.11353743 0.05136164 -15.24487686 0.25098039 0.27450980 0.65882353
v -0.10980350 0.04745486 -15.24220562 0.25098039 0.27450980 0.65882353
v -0.11240605 0.02814818 -15.22141361 0.25098039 0.27450980 0.65882353
v -0.10914643 0.03366297 -15.21753979 0.25098039 0.27450980 0.65882353
v -0.12068333 0.04242145 -15.22464752 0.25098039 0.27450980 0.65882353
v -0.12152931 0.03543787 -15.22856331 0.25098039 0.27450980 0.65882353
v -0.18692696 0.07941353 -15.25520992 0.25098039 0.27450980 0.65882353
v -0.19633034 0.07497261 -15.25809669 0.25098039 0.27450980 0.65882353
v -0.19150008 0.06305924 -15.25173569 0.25098039 0.27450980 0.65882353
v -0.18738091 0.05182439 -15.24496555 0.25098039 0.27450980 0.65882353
v -0.18257800 0.04069194 -15.23882675 0.25098039 0.27450980 0.65882353
v -0.17418455 0.04649236 -15.23343563 0.25098039 0.27450980 0.65882353
v -0.19798118 0.06061903 -15.25537395 0.25098039 0.27450980 0.65882353
v -0.13228023 0.04064067 -15.23202705 0.25098039 0.27450980 0.65882353
v -0.12956610 0.04892386 -15.22954655 0.25098039 0.27450980 0.65882353
v -0.13564333 0.04653260 -15.22968864 0.25098039 0.27450980 0.65882353
v -0.17686750 0.05277166 -15.27716923 0.25098039 0.27450980 0.65882353
v -0.09765641 0.03648360 -15.23204136 0.25098039 0.27450980 0.65882353
v -0.16916904 0.11267599 -15.27393246 0.25098039 0.27450980 0.65882353
v -0.18040340 0.10953414 -15.26755810 0.25098039 0.27450980 0.65882353
v -0.17581007 0.10355141 -15.26589966 0.25098039 0.27450980 0.65882353
v -0.16320583 0.10689433 -15.27326584 0.25098039 0.27450980 0.65882353
v -0.10455440 0.02782130 -15.23571110 0.25098039 0.27450980 0.65882353
v -0.09977101 0.03209169 -15.23599625 0.25098039 0.27450980 0.65882353
v -0.16896652 0.02426141 -15.24860191 0.25098039 0.27450980 0.65882353
v -0.16512716 0.02261072 -15.24262238 0.25098039 0.27450980 0.65882353
v -0.16802588 0.02191664 -15.23996925 0.25098039 0.27450980 0.65882353
v -0.17251831 0.02096785 -15.24674225 0.25098039 0.27450980 0.65882353
v -0.20121984 0.07364506 -15.26084709 0.25098039 0.27450980 0.65882353
v -0.19511892 0.02815577 -15.24815369 0.25098039 0.27450980 0.65882353
v -0.19123235 0.03407741 -15.24164200 0.25098039 0.27450980 0.65882353
v -0.20007508 0.08563770 -15.26347160 0.25098039 0.27450980 0.65882353
v -0.19201453 0.08956576 -15.26052284 0.25098039 0.27450980 0.65882353
v -0.19601898 0.09670463 -15.26390839 0.25098039 0.27450980 0.65882353
v -0.15924639 0.04594674 -15.22854328 0.25098039 0.27450980 0.65882353
v -0.17923029 0.08075593 -15.25322819 0.25098039 0.27450980 0.65882353
v -0.18490148 0.09083684 -15.25954247 0.25098039 0.27450980 0.65882353
v -0.18946899 0.09960984 -15.26337528 0.25098039 0.27450980 0.65882353
v -0.19294766 0.10605133 -15.26501846 0.25098039 0.27450980 0.65882353
v -0.19968711 0.10170700 -15.26608658 0.25098039 0.27450980 0.65882353
v -0.10441804 0.03637116 -15.21840096 0.25098039 0.27450980 0.65882353
v -0.10517575 0.02962545 -15.21524143 0.25098039 0.27450980 0.65882353
v -0.20436850 0.10750356 -15.26668644 0.25098039 0.27450980 0.65882353
v -0.19621342 0.11163004 -15.26586151 0.25098039 0.27450980 0.65882353
v -0.17621234 0.09277406 -15.25927925 0.25098039 0.27450980 0.65882353
v -0.16648743 0.09460716 -15.26052094 0.25098039 0.27450980 0.65882353
v -0.17135742 0.08322186 -15.25236702 0.25098039 0.27450980 0.65882353
v -0.16060612 0.08467604 -15.25270653 0.25098039 0.27450980 0.65882353
v -0.15251070 0.05359629 -15.22735977 0.25098039 0.27450980 0.65882353
v -0.09573697 0.01565212 -15.21248245 0.25098039 0.27450980 0.65882353
v -0.10418718 0.02174523 -15.21645737 0.25098039 0.27450980 0.65882353
v -0.10463949 0.01893236 -15.22132683 0.25098039 0.27450980 0.65882353
v -0.09702852 0.01280452 -15.21547031 0.25098039 0.27450980 0.65882353
v -0.10845543 0.02512496 -15.21905422 0.25098039 0.27450980 0.65882353
v -0.10130711 0.02643143 -15.21416283 0.25098039 0.27450980 0.65882353
v -0.14758267 0.08664595 -15.25771809 0.25098039 0.27450980 0.65882353
v -0.13199508 0.03473982 -15.23958015 0.25098039 0.27450980 0.65882353
v -0.15212895 0.09733889 -15.26937389 0.25098039 0.27450980 0.65882353
v -0.13084227 0.08448495 -15.26402092 0.25098039 0.27450980 0.65882353
v -0.13419516 0.09096988 -15.27454281 0.25098039 0.27450980 0.65882353
v -0.15481436 0.10857435 -15.28192997 0.25098039 0.27450980 0.65882353
v -0.14103559 0.10106626 -15.28445339 0.25098039 0.27450980 0.65882353
v -0.16645834 0.11865852 -15.28513241 0.25098039 0.27450980 0.65882353
v -0.16137731 0.11323549 -15.28267002 0.25098039 0.27450980 0.65882353
v -0.12710819 0.09286787 -15.28745174 0.25098039 0.27450980 0.65882353
v -0.08908707 0.01718014 -15.22611713 0.25098039 0.27450980 0.65882353
v -0.09335488 0.01395945 -15.22489834 0.25098039 0.27450980 0.65882353
v -0.17330092 0.11848590 -15.27563953 0.25098039 0.27450980 0.65882353
v -0.13454652 0.05894555 -15.29440117 0.25098039 0.27450980 0.65882353
v -0.17932650 0.05971473 -15.28495598 0.25098039 0.27450980 0.65882353
v -0.17436263 0.06174714 -15.28385448 0.25098039 0.27450980 0.65882353
v -0.19864729 0.05552180 -15.28708363 0.25098039 0.27450980 0.65882353
v -0.18602321 0.05747762 -15.28737450 0.25098039 0.27450980 0.65882353
v -0.08570725 0.02087718 -15.22473240 0.25098039 0.27450980 0.65882353
v -0.14887890 0.02750604 -15.23093891 0.25098039 0.27450980 0.65882353
v -0.15146267 0.02893625 -15.23215485 0.25098039 0.27450980 0.65882353
v -0.12154996 0.06596912 -15.30443382 0.25098039 0.27450980 0.65882353
v -0.11639124 0.06137479 -15.30188370 0.25098039 0.27450980 0.65882353
v -0.10882571 0.07037350 -15.29658413 0.25098039 0.27450980 0.65882353
v -0.11152810 0.06617960 -15.30147076 0.25098039 0.27450980 0.65882353
v -0.11672412 0.07265791 -15.30371189 0.25098039 0.27450980 0.65882353
v -0.11419541 0.07743727 -15.29862309 0.25098039 0.27450980 0.65882353
v -0.17790389 0.06749177 -15.29281235 0.25098039 0.27450980 0.65882353
v -0.18089008 0.06590053 -15.29307175 0.25098039 0.27450980 0.65882353
v -0.20728499 0.06585675 -15.27031612 0.25098039 0.27450980 0.65882353
v -0.20657933 0.05880401 -15.27823925 0.25098039 0.27450980 0.65882353
v -0.11397010 0.05467632 -15.23934174 0.25098039 0.27450980 0.65882353
v -0.12187552 0.06121572 -15.23708248 0.25098039 0.27450980 0.65882353
v -0.11729360 0.05521466 -15.23319340 0.25098039 0.27450980 0.65882353
v -0.11710308 0.04849650 -15.22593880 0.25098039 0.27450980 0.65882353
v -0.13027887 0.03582677 -15.23406601 0.25098039 0.27450980 0.65882353
v -0.12632941 0.03928865 -15.23281193 0.25098039 0.27450980 0.65882353
v -0.16974172 0.07483675 -15.30456448 0.25098039 0.27450980 0.65882353
v -0.16715820 0.06741225 -15.29270363 0.25098039 0.27450980 0.65882353
v -0.12608165 0.05808546 -15.28511715 0.25098039 0.27450980 0.65882353
v -0.12102969 0.05832595 -15.28350258 0.25098039 0.27450980 0.65882353
v -0.14901058 0.03985925 -15.25309658 0.25098039 0.27450980 0.65882353
v -0.15090148 0.03891643 -15.22349930 0.25098039 0.27450980 0.65882353
v -0.14566830 0.04503304 -15.22273350 0.25098039 0.27450980 0.65882353
v -0.14446893 0.03462505 -15.24644279 0.25098039 0.27450980 0.65882353
v -0.08543630 0.02385126 -15.21667004 0.25098039 0.27450980 0.65882353
v -0.08454224 0.02274324 -15.22159481 0.25098039 0.27450980 0.65882353
v -0.12325746 0.05395445 -15.22923279 0.25098039 0.27450980 0.65882353
v -0.16796298 0.03084063 -15.25603294 0.25098039 0.27450980 0.65882353
v -0.15885001 0.03933245 -15.22780800 0.25098039 0.27450980 0.65882353
v -0.15118198 0.03216045 -15.22562981 0.25098039 0.27450980 0.65882353
v -0.19320899 0.02727126 -15.25568676 0.25098039 0.27450980 0.65882353
v -0.18428433 0.11563806 -15.26991177 0.25098039 0.27450980 0.65882353
v -0.10204253 0.01853606 -15.22610855 0.25098039 0.27450980 0.65882353
v -0.09667946 0.01222574 -15.22170067 0.25098039 0.27450980 0.65882353
v -0.09377986 0.01919685 -15.21119118 0.25098039 0.27450980 0.65882353
v -0.08976251 0.02320296 -15.21238232 0.25098039 0.27450980 0.65882353
v -0.20710854 0.06672574 -15.28522873 0.25098039 0.27450980 0.65882353
v -0.17172754 0.06323965 -15.28275681 0.25098039 0.27450980 0.65882353
v -0.11670160 0.08378133 -15.28963947 0.25098039 0.27450980 0.65882353
v -0.10895522 0.07346683 -15.29000092 0.25098039 0.27450980 0.65882353
v -0.14169155 0.03131915 -15.24124050 0.25098039 0.27450980 0.65882353
v -0.18291831 0.03367314 -15.23920345 0.25098039 0.27450980 0.65882353
v -0.17136011 0.03904350 -15.22899437 0.25098039 0.27450980 0.65882353
v -0.16874608 0.03244761 -15.22445965 0.25098039 0.27450980 0.65882353
v -0.16108817 0.03238136 -15.22327423 0.25098039 0.27450980 0.65882353
v -0.15440601 0.02970978 -15.22569561 0.25098039 0.27450980 0.65882353
v -0.09060630 0.01505201 -15.21026039 0.25098039 0.27450980 0.65882353
v -0.08670981 0.01909669 -15.21123886 0.25098039 0.27450980 0.65882353
v -0.08231732 0.01970548 -15.21516991 0.25098039 0.27450980 0.65882353
v -0.08146413 0.01916010 -15.21966457 0.25098039 0.27450980 0.65882353
v -0.08360779 0.01772597 -15.22330284 0.25098039 0.27450980 0.65882353
v -0.09209616 0.01132014 -15.21141815 0.25098039 0.27450980 0.65882353
v -0.09287295 0.00892258 -15.21426201 0.25098039 0.27450980 0.65882353
v -0.09394071 0.00954895 -15.22020626 0.25098039 0.27450980 0.65882353
v -0.08934020 0.00708148 -15.21146393 0.25098039 0.27450980 0.65882353
v -0.08519536 0.00852577 -15.20882225 0.25098039 0.27450980 0.65882353
v -0.07339595 0.00839728 -15.21500778 0.25098039 0.27450980 0.65882353
v -0.07704940 0.01276081 -15.21349335 0.25098039 0.27450980 0.65882353
v -0.07650726 0.01065264 -15.21203804 0.25098039 0.27450980 0.65882353
v -0.07369745 0.00657391 -15.21246719 0.25098039 0.27450980 0.65882353
v -0.07137483 0.00210144 -15.21134758 0.25098039 0.27450980 0.65882353
v -0.07037435 0.00357804 -15.21437740 0.25098039 0.27450980 0.65882353
v -0.08058468 0.01095969 -15.21008587 0.25098039 0.27450980 0.65882353
v -0.07708699 0.00536031 -15.20977783 0.25098039 0.27450980 0.65882353
v -0.08040577 0.00319168 -15.20871544 0.25098039 0.27450980 0.65882353
v -0.07699311 -0.00113037 -15.20778561 0.25098039 0.27450980 0.65882353
v -0.07391334 0.00074522 -15.20853424 0.25098039 0.27450980 0.65882353
v -0.08246130 0.00724074 -15.20891476 0.25098039 0.27450980 0.65882353
v -0.08191958 0.01284400 -15.20991325 0.25098039 0.27450980 0.65882353
v -0.06959423 -0.00071234 -15.21262836 0.25098039 0.27450980 0.65882353
v -0.07029167 -0.00054245 -15.21025276 0.25098039 0.27450980 0.65882353
v -0.07238047 -0.00200714 -15.20859718 0.25098039 0.27450980 0.65882353
v -0.07132837 -0.00457500 -15.20996952 0.25098039 0.27450980 0.65882353
v -0.07844909 0.01508330 -15.21877098 0.25098039 0.27450980 0.65882353
v -0.07344429 0.00824316 -15.21756840 0.25098039 0.27450980 0.65882353
v -0.07162863 0.00252777 -15.21697521 0.25098039 0.27450980 0.65882353
v -0.07078891 -0.00167218 -15.21501637 0.25098039 0.27450980 0.65882353
v -0.07528216 0.00563635 -15.21997738 0.25098039 0.27450980 0.65882353
v -0.07367060 0.00121558 -15.21853542 0.25098039 0.27450980 0.65882353
v -0.07338464 -0.00247639 -15.21686172 0.25098039 0.27450980 0.65882353
v -0.07800677 0.00279360 -15.22104931 0.25098039 0.27450980 0.65882353
v -0.07607171 -0.00062676 -15.21918392 0.25098039 0.27450980 0.65882353
v -0.08442672 0.01264600 -15.22367573 0.25098039 0.27450980 0.65882353
v -0.08141668 0.01531130 -15.22258854 0.25098039 0.27450980 0.65882353
v -0.07504755 -0.00291940 -15.21820068 0.25098039 0.27450980 0.65882353
v -0.07241672 -0.00561208 -15.21173668 0.25098039 0.27450980 0.65882353
v -0.08385378 0.00258277 -15.20974445 0.25098039 0.27450980 0.65882353
v -0.07915027 -0.00272198 -15.20968723 0.25098039 0.27450980 0.65882353
v -0.08523740 0.00148597 -15.21129322 0.25098039 0.27450980 0.65882353
v -0.08082910 -0.00393197 -15.21098900 0.25098039 0.27450980 0.65882353
v -0.07578701 -0.00565647 -15.20868874 0.25098039 0.27450980 0.65882353
v -0.07488990 -0.00328109 -15.20808411 0.25098039 0.27450980 0.65882353
v -0.08774601 0.01519269 -15.22486019 0.25098039 0.27450980 0.65882353
v -0.09195425 0.01167272 -15.22341633 0.25098039 0.27450980 0.65882353
v -0.08920397 0.00917001 -15.22243404 0.25098039 0.27450980 0.65882353
v -0.08174075 0.00018471 -15.22033215 0.25098039 0.27450980 0.65882353
v -0.09114534 0.00667904 -15.21967983 0.25098039 0.27450980 0.65882353
v -0.09003688 0.00498156 -15.21435642 0.25098039 0.27450980 0.65882353
v -0.08543839 -0.00033964 -15.21352005 0.25098039 0.27450980 0.65882353
v -0.08483982 -0.00094303 -15.21667957 0.25098039 0.27450980 0.65882353
v -0.08165762 -0.00421278 -15.21327209 0.25098039 0.27450980 0.65882353
v -0.08109777 -0.00369085 -15.21564484 0.25098039 0.27450980 0.65882353
v -0.07880063 -0.00276825 -15.21839523 0.25098039 0.27450980 0.65882353
v -0.07794131 -0.00610408 -15.21339226 0.25098039 0.27450980 0.65882353
v -0.07680780 -0.00630382 -15.21064472 0.25098039 0.27450980 0.65882353
v -0.07455501 -0.00538865 -15.21452332 0.25098039 0.27450980 0.65882353
v -0.07877037 -0.00534965 -15.21512794 0.25098039 0.27450980 0.65882353
v -0.07634969 -0.00424440 -15.21632767 0.25098039 0.27450980 0.65882353
v -0.12019382 0.00732308 -15.21829510 0.25098039 0.27450980 0.65882353
v -0.12566705 0.00421195 -15.21751213 0.25098039 0.27450980 0.65882353
v -0.12757908 0.00923911 -15.21921349 0.25098039 0.27450980 0.65882353
v -0.12266506 0.01136927 -15.21976948 0.25098039 0.27450980 0.65882353
v -0.11791348 0.01424686 -15.20725822 0.25098039 0.27450980 0.65882353
v -0.11635134 0.01237652 -15.21240425 0.25098039 0.27450980 0.65882353
v -0.11829248 0.01685049 -15.21322918 0.25098039 0.27450980 0.65882353
v -0.12115625 0.01857555 -15.20780373 0.25098039 0.27450980 0.65882353
v -0.12319638 0.01336826 -15.20357418 0.25098039 0.27450980 0.65882353
v -0.12670685 0.01787541 -15.20441818 0.25098039 0.27450980 0.65882353
v -0.12323660 0.02292959 -15.20924473 0.25098039 0.27450980 0.65882353
v -0.12073886 0.02119305 -15.21557617 0.25098039 0.27450980 0.65882353
v -0.13037533 0.03601293 -15.22704887 0.25098039 0.27450980 0.65882353
v -0.13304292 0.03822766 -15.22073078 0.25098039 0.27450980 0.65882353
v -0.14355789 0.02546942 -15.23244476 0.25098039 0.27450980 0.65882353
v -0.14483488 0.02536189 -15.22875023 0.25098039 0.27450980 0.65882353
v -0.11759467 0.00964215 -15.21637917 0.25098039 0.27450980 0.65882353
v -0.11969012 0.01394187 -15.21728230 0.25098039 0.27450980 0.65882353
v -0.13692781 0.01029667 -15.21763611 0.25098039 0.27450980 0.65882353
v -0.13352260 0.01035674 -15.22179794 0.25098039 0.27450980 0.65882353
v -0.13149042 0.00680536 -15.21786499 0.25098039 0.27450980 0.65882353
v -0.13444871 0.00715616 -15.21318722 0.25098039 0.27450980 0.65882353
v -0.13355806 0.03164618 -15.23399925 0.25098039 0.27450980 0.65882353
v -0.13922797 0.02876969 -15.23428249 0.25098039 0.27450980 0.65882353
v -0.13108811 0.03325158 -15.23125362 0.25098039 0.27450980 0.65882353
v -0.13833754 0.01262574 -15.21173954 0.25098039 0.27450980 0.65882353
v -0.13618563 0.01696219 -15.20681000 0.25098039 0.27450980 0.65882353
v -0.14526369 0.03190660 -15.21658516 0.25098039 0.27450980 0.65882353
v -0.14692204 0.02726746 -15.22078705 0.25098039 0.27450980 0.65882353
v -0.12110418 0.01813215 -15.22026062 0.25098039 0.27450980 0.65882353
v -0.12880623 0.01216616 -15.22365761 0.25098039 0.27450980 0.65882353
v -0.12421626 0.01465124 -15.22346783 0.25098039 0.27450980 0.65882353
v -0.12971644 0.02140911 -15.20643806 0.25098039 0.27450980 0.65882353
v -0.13240796 0.01286653 -15.20434284 0.25098039 0.27450980 0.65882353
v -0.12482975 -0.00475223 -15.20215797 0.25098039 0.27450980 0.65882353
v -0.13202277 0.00502004 -15.20610332 0.25098039 0.27450980 0.65882353
v -0.13165686 0.00274567 -15.21058655 0.25098039 0.27450980 0.65882353
v -0.12527284 -0.00784241 -15.20591259 0.25098039 0.27450980 0.65882353
v -0.13514000 0.00905907 -15.20807171 0.25098039 0.27450980 0.65882353
v -0.12894517 0.00925224 -15.20317745 0.25098039 0.27450980 0.65882353
v -0.11421868 -0.00676625 -15.21375656 0.25098039 0.27450980 0.65882353
v -0.11961703 -0.00977039 -15.21274662 0.25098039 0.27450980 0.65882353
v -0.11090168 -0.00402813 -15.21226788 0.25098039 0.27450980 0.65882353
v -0.13950528 0.03689945 -15.21630001 0.25098039 0.27450980 0.65882353
v -0.11125205 0.00277014 -15.20444298 0.25098039 0.27450980 0.65882353
v -0.10966328 -0.00072293 -15.20975685 0.25098039 0.27450980 0.65882353
v -0.12966800 0.00224479 -15.21510315 0.25098039 0.27450980 0.65882353
v -0.12337588 -0.01008810 -15.20957756 0.25098039 0.27450980 0.65882353
v -0.12226675 -0.00150995 -15.20004654 0.25098039 0.27450980 0.65882353
v -0.11688922 0.00315258 -15.20063400 0.25098039 0.27450980 0.65882353
v -0.11903949 -0.00639305 -15.19894123 0.25098039 0.27450980 0.65882353
v -0.11386548 -0.00264139 -15.19945335 0.25098039 0.27450980 0.65882353
v -0.10843594 -0.00284268 -15.20334435 0.25098039 0.27450980 0.65882353
v -0.10778323 -0.00551528 -15.20842648 0.25098039 0.27450980 0.65882353
v -0.10938622 -0.00772657 -15.21121025 0.25098039 0.27450980 0.65882353
v -0.12130961 -0.00954811 -15.20073318 0.25098039 0.27450980 0.65882353
v -0.12209214 -0.01254433 -15.20415401 0.25098039 0.27450980 0.65882353
v -0.12122402 -0.01275644 -15.20888710 0.25098039 0.27450980 0.65882353
v -0.11838543 -0.01646787 -15.20036125 0.25098039 0.27450980 0.65882353
v -0.11522035 -0.01474705 -15.19783211 0.25098039 0.27450980 0.65882353
v -0.10024917 -0.02314368 -15.20299721 0.25098039 0.27450980 0.65882353
v -0.10231034 -0.01744834 -15.20323849 0.25098039 0.27450980 0.65882353
v -0.10331500 -0.01807223 -15.20085335 0.25098039 0.27450980 0.65882353
v -0.10156086 -0.02328583 -15.20047569 0.25098039 0.27450980 0.65882353
v -0.10460973 -0.01181482 -15.20142269 0.25098039 0.27450980 0.65882353
v -0.10526042 -0.01396378 -15.20002747 0.25098039 0.27450980 0.65882353
v -0.10937464 -0.01384792 -15.19808102 0.25098039 0.27450980 0.65882353
v -0.10718609 -0.01957220 -15.19823265 0.25098039 0.27450980 0.65882353
v -0.11177012 -0.02067512 -15.19781494 0.25098039 0.27450980 0.65882353
v -0.10960770 -0.02592814 -15.19645214 0.25098039 0.27450980 0.65882353
v -0.10492590 -0.02481358 -15.19688797 0.25098039 0.27450980 0.65882353
v -0.11225283 -0.01639941 -15.19750977 0.25098039 0.27450980 0.65882353
v -0.10108140 -0.02684319 -15.19961071 0.25098039 0.27450980 0.65882353
v -0.10041048 -0.02865699 -15.20137310 0.25098039 0.27450980 0.65882353
v -0.11011150 -0.01080355 -15.19792461 0.25098039 0.27450980 0.65882353
v -0.10559091 -0.00931661 -15.20696545 0.25098039 0.27450980 0.65882353
v -0.10237762 -0.01806428 -15.20620918 0.25098039 0.27450980 0.65882353
v -0.10085675 -0.02468971 -15.20575428 0.25098039 0.27450980 0.65882353
v -0.10197973 -0.03038792 -15.20337772 0.25098039 0.27450980 0.65882353
v -0.10445899 -0.02030827 -15.20904732 0.25098039 0.27450980 0.65882353
v -0.10294372 -0.02627739 -15.20767879 0.25098039 0.27450980 0.65882353
v -0.10414955 -0.03056286 -15.20511246 0.25098039 0.27450980 0.65882353
v -0.10794425 -0.02277127 -15.21096897 0.25098039 0.27450980 0.65882353
v -0.10648382 -0.02821004 -15.20883751 0.25098039 0.27450980 0.65882353
v -0.11198291 -0.01232337 -15.21251488 0.25098039 0.27450980 0.65882353
v -0.10794131 -0.01047362 -15.21098518 0.25098039 0.27450980 0.65882353
v -0.10595670 -0.03010282 -15.20670795 0.25098039 0.27450980 0.65882353
v -0.10321757 -0.03101376 -15.19793510 0.25098039 0.27450980 0.65882353
v -0.10456057 -0.03260499 -15.20078564 0.25098039 0.27450980 0.65882353
v -0.10352749 -0.02897222 -15.19741249 0.25098039 0.27450980 0.65882353
v -0.11364542 -0.02143002 -15.19842815 0.25098039 0.27450980 0.65882353
v -0.11093834 -0.02729692 -15.19791603 0.25098039 0.27450980 0.65882353
v -0.11542064 -0.02284093 -15.20009613 0.25098039 0.27450980 0.65882353
v -0.11186263 -0.02891311 -15.19966507 0.25098039 0.27450980 0.65882353
v -0.10792173 -0.03096354 -15.19745827 0.25098039 0.27450980 0.65882353
v -0.10692039 -0.02975494 -15.19659615 0.25098039 0.27450980 0.65882353
v -0.11319509 -0.00957037 -15.21236324 0.25098039 0.27450980 0.65882353
v -0.11824836 -0.01183007 -15.21154404 0.25098039 0.27450980 0.65882353
v -0.11709744 -0.01424609 -15.21160316 0.25098039 0.27450980 0.65882353
v -0.11265489 -0.02435834 -15.20960712 0.25098039 0.27450980 0.65882353
v -0.12020108 -0.01547748 -15.20838356 0.25098039 0.27450980 0.65882353
v -0.11987123 -0.01713189 -15.20350075 0.25098039 0.27450980 0.65882353
v -0.11663893 -0.02361528 -15.20250607 0.25098039 0.27450980 0.65882353
v -0.11577111 -0.02472399 -15.20617390 0.25098039 0.27450980 0.65882353
v -0.11337292 -0.02979709 -15.20117664 0.25098039 0.27450980 0.65882353
v -0.11355370 -0.02894911 -15.20429230 0.25098039 0.27450980 0.65882353
v -0.11033982 -0.02902088 -15.20791531 0.25098039 0.27450980 0.65882353
v -0.10989760 -0.03295368 -15.20078754 0.25098039 0.27450980 0.65882353
v -0.10867868 -0.03219584 -15.19871712 0.25098039 0.27450980 0.65882353
v -0.10592701 -0.03249142 -15.20272255 0.25098039 0.27450980 0.65882353
v -0.11093584 -0.03176630 -15.20342159 0.25098039 0.27450980 0.65882353
v -0.10784003 -0.03148946 -15.20528316 0.25098039 0.27450980 0.65882353
v -0.14548516 0.00326995 -15.22153568 0.25098039 0.27450980 0.65882353
v -0.14976034 0.00095733 -15.22469616 0.25098039 0.27450980 0.65882353
v -0.15126738 0.00489047 -15.22626019 0.25098039 0.27450980 0.65882353
v -0.14711402 0.00715719 -15.22284412 0.25098039 0.27450980 0.65882353
v -0.15063706 0.00621282 -15.21034336 0.25098039 0.27450980 0.65882353
v -0.14648856 0.00591943 -15.21295071 0.25098039 0.27450980 0.65882353
v -0.14802665 0.01003074 -15.21434212 0.25098039 0.27450980 0.65882353
v -0.15272288 0.01144832 -15.21183014 0.25098039 0.27450980 0.65882353
v -0.15518355 0.00326176 -15.20978069 0.25098039 0.27450980 0.65882353
v -0.15843646 0.01016705 -15.21155453 0.25098039 0.27450980 0.65882353
v -0.15451734 0.01658698 -15.21282578 0.25098039 0.27450980 0.65882353
v -0.14948836 0.01415832 -15.21558380 0.25098039 0.27450980 0.65882353
v -0.15359195 0.02629556 -15.22338295 0.25098039 0.27450980 0.65882353
v -0.15906277 0.02765786 -15.21928596 0.25098039 0.27450980 0.65882353
v -0.14489841 0.00477500 -15.21725750 0.25098039 0.27450980 0.65882353
v -0.14621888 0.00846796 -15.21847343 0.25098039 0.27450980 0.65882353
v -0.16096270 0.00493965 -15.22798157 0.25098039 0.27450980 0.65882353
v -0.15636584 0.00584844 -15.22973537 0.25098039 0.27450980 0.65882353
v -0.15619503 0.00272529 -15.22675991 0.25098039 0.27450980 0.65882353
v -0.16002139 0.00193113 -15.22488594 0.25098039 0.27450980 0.65882353
v -0.15331332 0.02386079 -15.23418331 0.25098039 0.27450980 0.65882353
v -0.15856722 0.02272135 -15.23694897 0.25098039 0.27450980 0.65882353
v -0.15142544 0.02409266 -15.22891045 0.25098039 0.27450980 0.65882353
v -0.16464505 0.00618640 -15.22280979 0.25098039 0.27450980 0.65882353
v -0.16543461 0.01057075 -15.21701336 0.25098039 0.27450980 0.65882353
v -0.17059921 0.02161294 -15.22498989 0.25098039 0.27450980 0.65882353
v -0.16943133 0.01949051 -15.23097038 0.25098039 0.27450980 0.65882353
v -0.14712326 0.01191097 -15.21981049 0.25098039 0.27450980 0.65882353
v -0.15181941 0.00816548 -15.22888565 0.25098039 0.27450980 0.65882353
v -0.14760104 0.00989899 -15.22505665 0.25098039 0.27450980 0.65882353
v -0.16049469 0.01496124 -15.21351910 0.25098039 0.27450980 0.65882353
v -0.16238436 0.00589530 -15.21504784 0.25098039 0.27450980 0.65882353
v -0.15409848 -0.01567996 -15.21182156 0.25098039 0.27450980 0.65882353
v -0.16113272 -0.00143839 -15.21841431 0.25098039 0.27450980 0.65882353
v -0.15813133 -0.00235496 -15.22308445 0.25098039 0.27450980 0.65882353
v -0.15292266 -0.01692145 -15.21587372 0.25098039 0.27450980 0.65882353
v -0.16277242 0.00219475 -15.22034645 0.25098039 0.27450980 0.65882353
v -0.16008404 0.00089560 -15.21318817 0.25098039 0.27450980 0.65882353
v -0.14017561 -0.01168434 -15.21725464 0.25098039 0.27450980 0.65882353
v -0.14465117 -0.01372022 -15.21986961 0.25098039 0.27450980 0.65882353
v -0.13968682 -0.00895920 -15.21380806 0.25098039 0.27450980 0.65882353
v -0.16625410 0.02620840 -15.21938419 0.25098039 0.27450980 0.65882353
v -0.16498591 0.02000396 -15.23614407 0.25098039 0.27450980 0.65882353
v -0.14284332 -0.00814601 -15.20700264 0.25098039 0.27450980 0.65882353
v -0.14021188 -0.00816222 -15.21052265 0.25098039 0.27450980 0.65882353
v -0.15465373 -0.00108956 -15.22516823 0.25098039 0.27450980 0.65882353
v -0.14968057 -0.01621094 -15.21907616 0.25098039 0.27450980 0.65882353
v -0.15305719 -0.01273230 -15.20814896 0.25098039 0.27450980 0.65882353
v -0.14872944 -0.00898906 -15.20571995 0.25098039 0.27450980 0.65882353
v -0.15074308 -0.01828574 -15.20742035 0.25098039 0.27450980 0.65882353
v -0.14626706 -0.01481707 -15.20511246 0.25098039 0.27450980 0.65882353
v -0.14061522 -0.01400595 -15.20631695 0.25098039 0.27450980 0.65882353
v -0.13830739 -0.01361074 -15.20989704 0.25098039 0.27450980 0.65882353
v -0.13787971 -0.01399166 -15.21320724 0.25098039 0.27450980 0.65882353
v -0.15157619 -0.02089092 -15.21136189 0.25098039 0.27450980 0.65882353
v -0.15041627 -0.02156109 -15.21504688 0.25098039 0.27450980 0.65882353
v -0.14824146 -0.01835117 -15.21824741 0.25098039 0.27450980 0.65882353
v -0.14966722 -0.02526790 -15.21193314 0.25098039 0.27450980 0.65882353
v -0.14737557 -0.02510671 -15.20694637 0.25098039 0.27450980 0.65882353
v -0.13249743 -0.03277014 -15.20767975 0.25098039 0.27450980 0.65882353
v -0.13465258 -0.02721696 -15.20771027 0.25098039 0.27450980 0.65882353
v -0.13553286 -0.02782416 -15.20693684 0.25098039 0.27450980 0.65882353
v -0.13358833 -0.03331797 -15.20625687 0.25098039 0.27450980 0.65882353
v -0.13815624 -0.02163021 -15.20583534 0.25098039 0.27450980 0.65882353
v -0.13833533 -0.02371507 -15.20563316 0.25098039 0.27450980 0.65882353
v -0.14213914 -0.02417026 -15.20504951 0.25098039 0.27450980 0.65882353
v -0.13982017 -0.03029725 -15.20503616 0.25098039 0.27450980 0.65882353
v -0.14444086 -0.03139079 -15.20865345 0.25098039 0.27450980 0.65882353
v -0.14172927 -0.03575340 -15.20848751 0.25098039 0.27450980 0.65882353
v -0.13763449 -0.03525089 -15.20500278 0.25098039 0.27450980 0.65882353
v -0.14552759 -0.02632748 -15.20672131 0.25098039 0.27450980 0.65882353
v -0.13345778 -0.03655946 -15.20628357 0.25098039 0.27450980 0.65882353
v -0.13125674 -0.03698173 -15.20659256 0.25098039 0.27450980 0.65882353
v -0.14323238 -0.02189450 -15.20466709 0.25098039 0.27450980 0.65882353
v -0.13566758 -0.01903629 -15.20912457 0.25098039 0.27450980 0.65882353
v -0.13282508 -0.02636254 -15.20981121 0.25098039 0.27450980 0.65882353
v -0.13013649 -0.03198752 -15.21011066 0.25098039 0.27450980 0.65882353
v -0.13046134 -0.03660637 -15.21032524 0.25098039 0.27450980 0.65882353
v -0.13303199 -0.02628285 -15.21355247 0.25098039 0.27450980 0.65882353
v -0.13108729 -0.03166071 -15.21319771 0.25098039 0.27450980 0.65882353
v -0.13123918 -0.03575085 -15.21345329 0.25098039 0.27450980 0.65882353
v -0.13453321 -0.02672587 -15.21638393 0.25098039 0.27450980 0.65882353
v -0.13297260 -0.03170061 -15.21595097 0.25098039 0.27450980 0.65882353
v -0.13847211 -0.01728038 -15.21637535 0.25098039 0.27450980 0.65882353
v -0.13626529 -0.01771215 -15.21292210 0.25098039 0.27450980 0.65882353
v -0.13263810 -0.03496902 -15.21520519 0.25098039 0.27450980 0.65882353
v -0.13501605 -0.04001240 -15.20684624 0.25098039 0.27450980 0.65882353
v -0.13454659 -0.04038024 -15.21127033 0.25098039 0.27450980 0.65882353
v -0.13596311 -0.03810000 -15.20641422 0.25098039 0.27450980 0.65882353
v -0.14586830 -0.03113037 -15.20999813 0.25098039 0.27450980 0.65882353
v -0.14267164 -0.03706050 -15.21041298 0.25098039 0.27450980 0.65882353
v -0.14640847 -0.03104369 -15.21284676 0.25098039 0.27450980 0.65882353
v -0.14320944 -0.03699937 -15.21314049 0.25098039 0.27450980 0.65882353
v -0.13970473 -0.03999448 -15.20908737 0.25098039 0.27450980 0.65882353
v -0.13944504 -0.03891072 -15.20819664 0.25098039 0.27450980 0.65882353
v -0.13989657 -0.01442587 -15.21658516 0.25098039 0.27450980 0.65882353
v -0.14396027 -0.01623736 -15.21888161 0.25098039 0.27450980 0.65882353
v -0.14231348 -0.01874310 -15.21865845 0.25098039 0.27450980 0.65882353
v -0.13787439 -0.02866946 -15.21869850 0.25098039 0.27450980 0.65882353
v -0.14644319 -0.02078533 -15.21838760 0.25098039 0.27450980 0.65882353
v -0.14829877 -0.02548630 -15.21534729 0.25098039 0.27450980 0.65882353
v -0.14499243 -0.03073111 -15.21574020 0.25098039 0.27450980 0.65882353
v -0.14201550 -0.03032887 -15.21802235 0.25098039 0.27450980 0.65882353
v -0.14224550 -0.03610882 -15.21556473 0.25098039 0.27450980 0.65882353
v -0.14047694 -0.03431979 -15.21695232 0.25098039 0.27450980 0.65882353
v -0.13595624 -0.03319679 -15.21818542 0.25098039 0.27450980 0.65882353
v -0.13897683 -0.03855775 -15.21445942 0.25098039 0.27450980 0.65882353
v -0.13974458 -0.04013228 -15.21198654 0.25098039 0.27450980 0.65882353
v -0.13446657 -0.03869244 -15.21424007 0.25098039 0.27450980 0.65882353
v -0.13820451 -0.03683025 -15.21623611 0.25098039 0.27450980 0.65882353
v -0.13481948 -0.03676148 -15.21616077 0.25098039 0.27450980 0.65882353
v -0.16226631 0.02126843 -15.23793411 0.25098039 0.27450980 0.65882353
v -0.17456689 -0.00247321 -15.23914814 0.25098039 0.27450980 0.65882353
v -0.17690775 -0.00345641 -15.24219894 0.25098039 0.27450980 0.65882353
v -0.17837033 0.00036176 -15.24298477 0.25098039 0.27450980 0.65882353
v -0.17552722 0.00185712 -15.24073505 0.25098039 0.27450980 0.65882353
v -0.18012831 -0.00027370 -15.23002625 0.25098039 0.27450980 0.65882353
v -0.17630279 -0.00091281 -15.23217964 0.25098039 0.27450980 0.65882353
v -0.17695087 0.00375918 -15.23278427 0.25098039 0.27450980 0.65882353
v -0.18065640 0.00427846 -15.23064423 0.25098039 0.27450980 0.65882353
v -0.18477359 -0.00118695 -15.23067951 0.25098039 0.27450980 0.65882353
v -0.18543622 0.00310123 -15.23160839 0.25098039 0.27450980 0.65882353
v -0.18119290 0.00779185 -15.23079205 0.25098039 0.27450980 0.65882353
v -0.17715645 0.00749946 -15.23332310 0.25098039 0.27450980 0.65882353
v -0.17772815 0.02272949 -15.23813820 0.25098039 0.27450980 0.65882353
v -0.18271330 0.02481590 -15.23634624 0.25098039 0.27450980 0.65882353
v -0.19107141 0.02181163 -15.25310612 0.25098039 0.27450980 0.65882353
v -0.18541825 0.02254038 -15.25642872 0.25098039 0.27450980 0.65882353
v -0.18514203 0.01482131 -15.25119019 0.25098039 0.27450980 0.65882353
v -0.18986005 0.01582473 -15.24932575 0.25098039 0.27450980 0.65882353
v -0.17456043 -0.00167935 -15.23555374 0.25098039 0.27450980 0.65882353
v -0.17465952 0.00268161 -15.23698044 0.25098039 0.27450980 0.65882353
v -0.18787712 0.00351416 -15.24463367 0.25098039 0.27450980 0.65882353
v -0.18343706 0.00312831 -15.24563217 0.25098039 0.27450980 0.65882353
v -0.18179989 -0.00017548 -15.24485302 0.25098039 0.27450980 0.65882353
v -0.18617651 -0.00075659 -15.24422169 0.25098039 0.27450980 0.65882353
v -0.17988291 0.02202602 -15.25489140 0.25098039 0.27450980 0.65882353
v -0.17608190 0.02256462 -15.25184631 0.25098039 0.27450980 0.65882353
v -0.17574631 0.01844978 -15.24970627 0.25098039 0.27450980 0.65882353
v -0.18021604 0.01482760 -15.25049210 0.25098039 0.27450980 0.65882353
v -0.17415068 0.01954778 -15.24468327 0.25098039 0.27450980 0.65882353
v -0.19025230 0.00392985 -15.24159622 0.25098039 0.27450980 0.65882353
v -0.19045505 0.00521140 -15.23626709 0.25098039 0.27450980 0.65882353
v -0.19444889 0.02053031 -15.24212742 0.25098039 0.27450980 0.65882353
v -0.19328338 0.01881967 -15.24634361 0.25098039 0.27450980 0.65882353
v -0.17486691 0.00594133 -15.23695469 0.25098039 0.27450980 0.65882353
v -0.17942576 0.00329052 -15.24422264 0.25098039 0.27450980 0.65882353
v -0.17610765 0.00436241 -15.24154472 0.25098039 0.27450980 0.65882353
v -0.18663925 0.00660785 -15.23171806 0.25098039 0.27450980 0.65882353
v -0.18915308 0.00115011 -15.23571587 0.25098039 0.27450980 0.65882353
v -0.18621874 -0.01349930 -15.23834896 0.25098039 0.27450980 0.65882353
v -0.18824364 -0.00399496 -15.24046516 0.25098039 0.27450980 0.65882353
v -0.18477388 -0.00484616 -15.24368286 0.25098039 0.27450980 0.65882353
v -0.18424048 -0.01401241 -15.24036312 0.25098039 0.27450980 0.65882353
v -0.18904340 -0.00012294 -15.24092674 0.25098039 0.27450980 0.65882353
v -0.18846090 -0.00292752 -15.23499870 0.25098039 0.27450980 0.65882353
v -0.17321426 -0.01189858 -15.23719311 0.25098039 0.27450980 0.65882353
v -0.17670803 -0.01270214 -15.24070644 0.25098039 0.27450980 0.65882353
v -0.17305192 -0.01100106 -15.23415756 0.25098039 0.27450980 0.65882353
v -0.18964159 0.02352152 -15.23684502 0.25098039 0.27450980 0.65882353
v -0.17813876 -0.01025373 -15.22888470 0.25098039 0.27450980 0.65882353
v -0.17439178 -0.01085615 -15.23088169 0.25098039 0.27450980 0.65882353
v -0.18036611 -0.00434431 -15.24385452 0.25098039 0.27450980 0.65882353
v -0.18088323 -0.01348819 -15.24150467 0.25098039 0.27450980 0.65882353
v -0.18651921 -0.01242910 -15.23436642 0.25098039 0.27450980 0.65882353
v -0.18346196 -0.01059883 -15.22966671 0.25098039 0.27450980 0.65882353
v -0.18518841 -0.01685758 -15.23348331 0.25098039 0.27450980 0.65882353
v -0.18176003 -0.01462200 -15.22909737 0.25098039 0.27450980 0.65882353
v -0.17604905 -0.01461632 -15.22867680 0.25098039 0.27450980 0.65882353
v -0.17340577 -0.01416533 -15.23108292 0.25098039 0.27450980 0.65882353
v -0.17211831 -0.01432276 -15.23398972 0.25098039 0.27450980 0.65882353
v -0.18506041 -0.01771669 -15.23750877 0.25098039 0.27450980 0.65882353
v -0.18311375 -0.01772664 -15.23978710 0.25098039 0.27450980 0.65882353
v -0.17998749 -0.01652195 -15.24137115 0.25098039 0.27450980 0.65882353
v -0.18370828 -0.02210119 -15.23676968 0.25098039 0.27450980 0.65882353
v -0.18313640 -0.02285924 -15.23210430 0.25098039 0.27450980 0.65882353
v -0.17144127 -0.02952668 -15.22989368 0.25098039 0.27450980 0.65882353
v -0.17217088 -0.02545930 -15.22998810 0.25098039 0.27450980 0.65882353
v -0.17321675 -0.02563315 -15.22931576 0.25098039 0.27450980 0.65882353
v -0.17199090 -0.02960019 -15.22882652 0.25098039 0.27450980 0.65882353
v -0.17446709 -0.02065678 -15.22891235 0.25098039 0.27450980 0.65882353
v -0.17536521 -0.02206033 -15.22875404 0.25098039 0.27450980 0.65882353
v -0.17878789 -0.02152780 -15.22922516 0.25098039 0.27450980 0.65882353
v -0.17735022 -0.02657709 -15.22876263 0.25098039 0.27450980 0.65882353
v -0.18104078 -0.02843991 -15.23218441 0.25098039 0.27450980 0.65882353
v -0.17944421 -0.03231066 -15.23143005 0.25098039 0.27450980 0.65882353
v -0.17647836 -0.03027572 -15.22825623 0.25098039 0.27450980 0.65882353
v -0.18175614 -0.02400984 -15.23086452 0.25098039 0.27450980 0.65882353
v -0.17230816 -0.03228885 -15.22815704 0.25098039 0.27450980 0.65882353
v -0.17128551 -0.03335348 -15.22849464 0.25098039 0.27450980 0.65882353
v -0.17942551 -0.01982269 -15.22878551 0.25098039 0.27450980 0.65882353
v -0.17173837 -0.01880995 -15.23145008 0.25098039 0.27450980 0.65882353
v -0.17026925 -0.02580240 -15.23154163 0.25098039 0.27450980 0.65882353
v -0.16984557 -0.03087571 -15.23103905 0.25098039 0.27450980 0.65882353
v -0.17091815 -0.03453214 -15.23055458 0.25098039 0.27450980 0.65882353
v -0.16991554 -0.02493484 -15.23416328 0.25098039 0.27450980 0.65882353
v -0.16913942 -0.03102565 -15.23346519 0.25098039 0.27450980 0.65882353
v -0.17042713 -0.03446530 -15.23325634 0.25098039 0.27450980 0.65882353
v -0.17058092 -0.02467811 -15.23755360 0.25098039 0.27450980 0.65882353
v -0.17017856 -0.03048615 -15.23611832 0.25098039 0.27450980 0.65882353
v -0.17226475 -0.01756101 -15.23810291 0.25098039 0.27450980 0.65882353
v -0.17135808 -0.01804142 -15.23469067 0.25098039 0.27450980 0.65882353
v -0.17101330 -0.03337418 -15.23487568 0.25098039 0.27450980 0.65882353
v -0.17469117 -0.03511994 -15.22866535 0.25098039 0.27450980 0.65882353
v -0.17366067 -0.03623885 -15.23141956 0.25098039 0.27450980 0.65882353
v -0.17548466 -0.03392255 -15.22819901 0.25098039 0.27450980 0.65882353
v -0.18178362 -0.02852708 -15.23352242 0.25098039 0.27450980 0.65882353
v -0.17984703 -0.03333274 -15.23283768 0.25098039 0.27450980 0.65882353
v -0.18178464 -0.02846621 -15.23617554 0.25098039 0.27450980 0.65882353
v -0.17918931 -0.03371109 -15.23501015 0.25098039 0.27450980 0.65882353
v -0.17760375 -0.03570308 -15.23113537 0.25098039 0.27450980 0.65882353
v -0.17770121 -0.03407595 -15.22989655 0.25098039 0.27450980 0.65882353
v -0.17270237 -0.01509541 -15.23782635 0.25098039 0.27450980 0.65882353
v -0.17605293 -0.01526903 -15.24037647 0.25098039 0.27450980 0.65882353
v -0.17555818 -0.01800191 -15.24057293 0.25098039 0.27450980 0.65882353
v -0.17338577 -0.02510962 -15.24006367 0.25098039 0.27450980 0.65882353
v -0.17945769 -0.01937817 -15.24125195 0.25098039 0.27450980 0.65882353
v -0.18231277 -0.02088410 -15.23932934 0.25098039 0.27450980 0.65882353
v -0.18017262 -0.02774702 -15.23846436 0.25098039 0.27450980 0.65882353
v -0.17738414 -0.02679686 -15.24021149 0.25098039 0.27450980 0.65882353
v -0.17765003 -0.03356326 -15.23678875 0.25098039 0.27450980 0.65882353
v -0.17531429 -0.03225686 -15.23842716 0.25098039 0.27450980 0.65882353
v -0.17234808 -0.03097695 -15.23840523 0.25098039 0.27450980 0.65882353
v -0.17515758 -0.03573319 -15.23466969 0.25098039 0.27450980 0.65882353
v -0.17635341 -0.03635103 -15.23314857 0.25098039 0.27450980 0.65882353
v -0.17304124 -0.03565633 -15.23367119 0.25098039 0.27450980 0.65882353
v -0.17402808 -0.03467715 -15.23612976 0.25098039 0.27450980 0.65882353
v -0.17252463 -0.03412238 -15.23574162 0.25098039 0.27450980 0.65882353
v -0.19319262 0.02158908 -15.24935246 0.25098039 0.27450980 0.65882353
v -0.10266228 0.06180154 -15.28274155 0.25098039 0.27450980 0.65882353
v -0.10639538 0.05870508 -15.27949524 0.25098039 0.27450980 0.65882353
v -0.11161594 0.04711123 -15.28996468 0.25098039 0.27450980 0.65882353
v -0.11171223 0.04892801 -15.28320599 0.25098039 0.27450980 0.65882353
v -0.10877137 0.04813477 -15.29573822 0.25098039 0.27450980 0.65882353
v -0.10302120 0.05683852 -15.29812050 0.25098039 0.27450980 0.65882353
v -0.10653129 0.05255330 -15.29866886 0.25098039 0.27450980 0.65882353
v -0.10973467 0.05326053 -15.27955723 0.25098039 0.27450980 0.65882353
v -0.10027649 0.06351428 -15.28770161 0.25098039 0.27450980 0.65882353
v -0.10045597 0.06186221 -15.29444027 0.25098039 0.27450980 0.65882353
v -0.09446459 0.05896636 -15.28537369 0.25098039 0.27450980 0.65882353
v -0.09428729 0.05673616 -15.29247093 0.25098039 0.27450980 0.65882353
v -0.09637326 0.05142680 -15.29646683 0.25098039 0.27450980 0.65882353
v -0.10103621 0.04709666 -15.29714775 0.25098039 0.27450980 0.65882353
v -0.10416809 0.04405641 -15.29516029 0.25098039 0.27450980 0.65882353
v -0.09894495 0.05698131 -15.28051472 0.25098039 0.27450980 0.65882353
v -0.10300493 0.05372248 -15.27780628 0.25098039 0.27450980 0.65882353
v -0.10728952 0.04891634 -15.27907658 0.25098039 0.27450980 0.65882353
v -0.09533587 0.05042649 -15.27712440 0.25098039 0.27450980 0.65882353
v -0.08733457 0.04411021 -15.27878666 0.25098039 0.27450980 0.65882353
v -0.08135159 0.02877136 -15.28717232 0.25098039 0.27450980 0.65882353
v -0.08591841 0.03298029 -15.28993320 0.25098039 0.27450980 0.65882353
v -0.08388945 0.03445473 -15.28832340 0.25098039 0.27450980 0.65882353
v -0.07949106 0.03076219 -15.28649616 0.25098039 0.27450980 0.65882353
v -0.08760102 0.03808093 -15.29074287 0.25098039 0.27450980 0.65882353
v -0.08616589 0.03786033 -15.28869343 0.25098039 0.27450980 0.65882353
v -0.08590665 0.04129767 -15.28487110 0.25098039 0.27450980 0.65882353
v -0.08158651 0.03818079 -15.28354645 0.25098039 0.27450980 0.65882353
v -0.08590853 0.04192825 -15.27995014 0.25098039 0.27450980 0.65882353
v -0.08386616 0.03940236 -15.27777958 0.25098039 0.27450980 0.65882353
v -0.07790819 0.03471593 -15.28176498 0.25098039 0.27450980 0.65882353
v -0.07608037 0.02978893 -15.28421497 0.25098039 0.27450980 0.65882353
v -0.07496929 0.03132481 -15.28007984 0.25098039 0.27450980 0.65882353
v -0.07763989 0.02699829 -15.28366566 0.25098039 0.27450980 0.65882353
v -0.08514750 0.04321146 -15.28571987 0.25098039 0.27450980 0.65882353
v -0.09407774 0.03941872 -15.29429245 0.25098039 0.27450980 0.65882353
v -0.08991373 0.03219782 -15.29071712 0.25098039 0.27450980 0.65882353
v -0.08496624 0.02723302 -15.28668690 0.25098039 0.27450980 0.65882353
v -0.08038151 0.02549043 -15.28246498 0.25098039 0.27450980 0.65882353
v -0.09422152 0.03123961 -15.28898907 0.25098039 0.27450980 0.65882353
v -0.08925863 0.02721102 -15.28463936 0.25098039 0.27450980 0.65882353
v -0.08530749 0.02599561 -15.28028965 0.25098039 0.27450980 0.65882353
v -0.09729023 0.03141245 -15.28524303 0.25098039 0.27450980 0.65882353
v -0.09182276 0.02813331 -15.28163242 0.25098039 0.27450980 0.65882353
v -0.10523054 0.04106411 -15.28951263 0.25098039 0.27450980 0.65882353
v -0.10063826 0.03981079 -15.29385662 0.25098039 0.27450980 0.65882353
v -0.08797416 0.02712062 -15.27937126 0.25098039 0.27450980 0.65882353
v -0.07468084 0.02908771 -15.27855301 0.25098039 0.27450980 0.65882353
v -0.07813756 0.02731827 -15.27704525 0.25098039 0.27450980 0.65882353
v -0.08609101 0.04039101 -15.27499676 0.25098039 0.27450980 0.65882353
v -0.07973985 0.03664445 -15.27595043 0.25098039 0.27450980 0.65882353
v -0.08207712 0.03611715 -15.27351570 0.25098039 0.27450980 0.65882353
v -0.08987910 0.04100352 -15.27311230 0.25098039 0.27450980 0.65882353
v -0.08457312 0.03533009 -15.27170849 0.25098039 0.27450980 0.65882353
v -0.07763183 0.03245926 -15.27429008 0.25098039 0.27450980 0.65882353
v -0.07670124 0.03392824 -15.27673340 0.25098039 0.27450980 0.65882353
v -0.10791321 0.04393296 -15.29036427 0.25098039 0.27450980 0.65882353
v -0.10926968 0.04601935 -15.28422832 0.25098039 0.27450980 0.65882353
v -0.10649496 0.04357994 -15.28327942 0.25098039 0.27450980 0.65882353
v -0.09900460 0.03430465 -15.27976608 0.25098039 0.27450980 0.65882353
v -0.10456239 0.04572150 -15.27788162 0.25098039 0.27450980 0.65882353
v -0.09963547 0.04864506 -15.27600098 0.25098039 0.27450980 0.65882353
v -0.09361948 0.03964026 -15.27258587 0.25098039 0.27450980 0.65882353
v -0.09737572 0.03723141 -15.27473927 0.25098039 0.27450980 0.65882353
v -0.08805451 0.03359925 -15.27196693 0.25098039 0.27450980 0.65882353
v -0.09047632 0.03216367 -15.27355003 0.25098039 0.27450980 0.65882353
v -0.09216712 0.02942990 -15.27743053 0.25098039 0.27450980 0.65882353
v -0.08429262 0.03008165 -15.27323437 0.25098039 0.27450980 0.65882353
v -0.08062430 0.03119951 -15.27278233 0.25098039 0.27450980 0.65882353
v -0.08317111 0.02719940 -15.27626038 0.25098039 0.27450980 0.65882353
v -0.08721064 0.03005166 -15.27426529 0.25098039 0.27450980 0.65882353
v -0.08709466 0.02813536 -15.27659798 0.25098039 0.27450980 0.65882353
v -0.18757352 0.02647657 -15.25911522 0.25098039 0.27450980 0.65882353
v -0.18098393 0.02674259 -15.25894642 0.25098039 0.27450980 0.65882353
v -0.18481278 0.03003359 -15.26338577 0.25098039 0.27450980 0.65882353
v -0.18871193 0.03653150 -15.26942348 0.25098039 0.27450980 0.65882353
v -0.19721639 0.04226084 -15.27388000 0.25098039 0.27450980 0.65882353
v -0.18232399 0.03867280 -15.26941776 0.25098039 0.27450980 0.65882353
v -0.17883986 0.03219197 -15.26276112 0.25098039 0.27450980 0.65882353
v -0.17409214 0.02708771 -15.25549603 0.25098039 0.27450980 0.65882353
v -0.17873967 0.04706802 -15.27408695 0.25098039 0.27450980 0.65882353
f 2 3 1
f 1 3 4
f 5 6 8
f 8 6 7
f 9 4 10
f 10 4 3
f 12 13 11
f 11 13 9
f 14 12 16
f 16 12 15
f 18 19 17
f 17 19 20
f 22 23 21
f 21 23 24
f 26 27 25
f 25 27 28
f 30 31 29
f 29 31 32
f 33 34 36
f 36 34 35
f 37 38 40
f 40 38 39
f 41 42 6
f 6 42 43
f 6 43 7
f 7 43 44
f 45 34 46
f 46 34 33
f 48 49 47
f 47 49 50
f 52 53 51
f 51 53 54
f 56 52 55
f 55 52 51
f 58 59 57
f 57 59 60
f 61 62 4
f 4 62 1
f 64 65 63
f 63 65 66
f 68 69 67
f 67 69 70
f 72 73 71
f 71 73 74
f 76 77 75
f 75 77 78
f 53 79 54
f 54 79 80
f 82 83 81
f 81 83 84
f 85 86 52
f 52 86 53
f 57 60 87
f 87 60 88
f 89 90 43
f 43 90 44
f 43 42 89
f 89 42 91
f 40 39 92
f 92 39 93
f 94 70 64
f 64 70 69
f 13 61 9
f 9 61 4
f 25 28 69
f 69 28 95
f 96 25 68
f 68 25 69
f 98 99 97
f 97 99 100
f 101 102 104
f 104 102 103
f 106 30 105
f 105 30 29
f 51 54 107
f 107 54 108
f 54 80 108
f 108 80 109
f 111 112 110
f 110 112 113
f 115 5 114
f 114 5 116
f 115 41 5
f 5 41 6
f 36 35 111
f 111 35 117
f 35 118 117
f 117 118 119
f 34 120 35
f 35 120 118
f 34 45 120
f 120 45 121
f 125 126 124
f 124 126 127
f 128 129 14
f 14 129 130
f 33 131 46
f 46 131 132
f 133 94 63
f 63 94 64
f 134 135 137
f 137 135 136
f 139 140 138
f 138 140 141
f 77 142 78
f 78 142 143
f 144 145 20
f 20 145 146
f 148 149 147
f 147 149 72
f 151 152 150
f 150 152 153
f 82 101 83
f 83 101 104
f 101 82 155
f 155 82 154
f 156 157 58
f 58 157 59
f 158 68 147
f 147 68 67
f 159 146 15
f 15 146 16
f 68 158 96
f 96 158 160
f 129 66 130
f 130 66 65
f 162 163 161
f 161 163 164
f 166 167 165
f 165 167 168
f 170 171 169
f 169 171 172
f 174 171 173
f 173 171 170
f 176 177 175
f 175 177 178
f 180 181 179
f 179 181 24
f 182 183 21
f 21 183 184
f 81 185 82
f 82 185 154
f 186 187 188
f 188 187 144
f 158 71 160
f 160 71 189
f 190 135 157
f 157 135 59
f 169 172 139
f 139 172 140
f 147 72 158
f 158 72 71
f 192 193 191
f 191 193 194
f 167 166 49
f 49 166 195
f 196 190 50
f 50 190 157
f 197 198 200
f 200 198 199
f 21 24 182
f 182 24 181
f 146 159 20
f 20 159 17
f 182 181 81
f 81 181 185
f 201 185 180
f 180 185 181
f 202 203 83
f 83 203 84
f 205 206 204
f 204 206 85
f 207 22 184
f 184 22 21
f 179 24 208
f 208 24 23
f 208 209 179
f 179 209 205
f 209 210 205
f 205 210 206
f 212 206 211
f 211 206 210
f 179 205 180
f 180 205 204
f 213 176 88
f 88 176 214
f 86 85 212
f 212 85 206
f 193 217 218
f 217 219 218
f 218 219 220
f 219 18 220
f 220 18 17
f 19 221 20
f 20 221 144
f 222 223 225
f 225 223 224
f 175 226 176
f 176 226 214
f 227 87 214
f 214 87 88
f 220 17 228
f 228 17 159
f 134 213 60
f 60 213 88
f 138 229 151
f 151 229 152
f 193 192 210
f 210 192 211
f 230 194 218
f 218 194 193
f 231 232 228
f 228 232 230
f 233 234 91
f 91 234 89
f 235 236 93
f 93 236 92
f 230 232 234
f 234 232 237
f 47 238 48
f 48 238 239
f 240 191 235
f 235 191 236
f 5 8 116
f 116 8 241
f 242 243 189
f 189 243 160
f 244 245 98
f 98 245 99
f 156 246 47
f 47 246 238
f 76 247 77
f 77 247 248
f 250 125 249
f 249 125 124
f 252 253 251
f 251 253 254
f 111 110 36
f 36 110 255
f 256 33 255
f 255 33 36
f 257 258 154
f 154 258 155
f 63 169 133
f 133 169 139
f 66 170 63
f 63 170 169
f 173 170 129
f 129 170 66
f 129 128 173
f 173 128 259
f 128 260 259
f 259 260 261
f 213 134 262
f 262 134 137
f 263 264 186
f 186 264 187
f 112 265 113
f 113 265 266
f 11 267 268
f 234 233 230
f 230 233 194
f 153 269 70
f 70 269 67
f 175 178 165
f 165 178 141
f 150 153 94
f 94 153 70
f 271 221 270
f 270 221 207
f 269 153 272
f 272 153 152
f 121 45 109
f 109 45 108
f 47 50 156
f 156 50 157
f 57 273 58
f 58 273 274
f 145 275 260
f 260 275 261
f 276 149 143
f 143 149 78
f 148 269 75
f 75 269 272
f 207 277 270
f 270 277 278
f 195 196 49
f 49 196 50
f 59 135 60
f 60 135 134
f 83 104 202
f 202 104 279
f 149 148 78
f 78 148 75
f 247 278 248
f 248 278 277
f 183 182 84
f 84 182 81
f 48 239 281
f 281 239 282
f 227 223 283
f 283 223 222
f 223 226 224
f 224 226 168
f 281 282 224
f 224 282 225
f 165 168 175
f 175 168 226
f 264 263 138
f 138 263 229
f 14 16 128
f 128 16 260
f 220 228 218
f 218 228 230
f 87 227 284
f 284 227 283
f 260 16 145
f 145 16 146
f 244 98 258
f 258 98 155
f 58 274 156
f 156 274 246
f 107 285 51
f 51 285 55
f 243 286 160
f 160 286 96
f 234 237 89
f 89 237 90
f 46 132 107
f 107 132 285
f 253 252 249
f 249 252 250
f 286 26 96
f 96 26 25
f 106 105 287
f 287 105 288
f 272 152 289
f 289 152 229
f 138 151 139
f 139 151 133
f 183 290 161
f 161 290 162
f 291 292 277
f 277 292 293
f 151 150 133
f 133 150 94
f 262 275 177
f 177 275 187
f 144 187 145
f 145 187 275
f 273 57 284
f 284 57 87
f 174 136 190
f 190 136 135
f 111 117 112
f 112 117 38
f 117 119 38
f 38 119 123
f 112 38 265
f 265 38 37
f 287 288 254
f 254 288 251
f 228 159 231
f 231 159 15
f 223 227 226
f 226 227 214
f 147 67 148
f 148 67 269
f 224 168 281
f 281 168 167
f 199 163 200
f 200 163 162
f 45 46 108
f 108 46 107
f 281 167 48
f 48 167 49
f 161 164 291
f 291 164 292
f 38 123 39
f 293 294 277
f 277 294 248
f 284 283 296
f 296 283 295
f 284 296 273
f 273 296 297
f 274 273 298
f 298 273 297
f 246 274 299
f 299 274 298
f 283 222 295
f 295 222 300
f 222 225 300
f 300 225 301
f 301 225 302
f 302 225 282
f 303 304 300
f 300 304 295
f 306 307 305
f 305 307 308
f 309 310 308
f 308 310 305
f 308 307 312
f 312 307 311
f 313 314 312
f 312 314 315
f 311 316 312
f 312 316 313
f 317 304 311
f 311 304 316
f 315 309 312
f 312 309 308
f 318 319 321
f 321 319 320
f 319 318 309
f 309 318 310
f 311 307 317
f 317 307 306
f 306 297 317
f 317 297 296
f 306 322 297
f 297 322 298
f 305 323 306
f 306 323 322
f 323 305 324
f 324 305 310
f 304 317 295
f 295 317 296
f 318 325 310
f 310 325 324
f 323 324 326
f 326 324 327
f 324 325 327
f 327 325 328
f 326 327 329
f 329 327 330
f 329 331 326
f 326 331 332
f 333 330 328
f 328 330 327
f 323 326 322
f 322 326 332
f 322 332 298
f 298 332 299
f 325 318 334
f 334 318 321
f 313 316 335
f 335 316 304
f 335 336 313
f 313 336 314
f 304 303 335
f 335 303 337
f 336 335 338
f 338 335 337
f 336 339 314
f 314 339 340
f 246 299 238
f 238 299 341
f 239 342 282
f 282 342 302
f 342 239 341
f 341 239 238
f 341 331 342
f 342 331 343
f 331 329 343
f 343 329 344
f 342 343 302
f 302 343 345
f 341 299 331
f 331 299 332
f 346 301 345
f 345 301 302
f 346 303 301
f 301 303 300
f 347 337 346
f 346 337 303
f 347 346 348
f 348 346 345
f 349 347 350
f 350 347 348
f 343 344 345
f 345 344 348
f 344 351 348
f 348 351 350
f 337 347 338
f 338 347 349
f 353 338 352
f 352 338 349
f 352 355 354
f 354 355 356
f 352 349 355
f 355 349 350
f 352 354 353
f 353 354 334
f 353 334 339
f 339 334 321
f 339 336 353
f 353 336 338
f 329 330 344
f 344 330 351
f 356 351 333
f 333 351 330
f 356 355 351
f 351 355 350
f 354 356 328
f 328 356 333
f 328 325 354
f 354 325 334
f 309 315 319
f 319 315 320
f 320 340 321
f 321 340 339
f 320 315 340
f 340 315 314
f 137 136 261
f 261 136 259
f 140 166 141
f 141 166 165
f 172 171 195
f 195 171 196
f 171 174 196
f 196 174 190
f 178 177 264
f 264 177 187
f 172 195 140
f 140 195 166
f 137 261 262
f 262 261 275
f 178 264 141
f 141 264 138
f 262 177 213
f 213 177 176
f 136 174 259
f 259 174 173
f 358 359 357
f 357 359 360
f 362 363 361
f 361 363 364
f 361 364 365
f 365 364 366
f 367 368 370
f 370 368 369
f 76 371 247
f 247 371 372
f 373 374 362
f 362 374 363
f 376 377 375
f 375 377 378
f 289 229 380
f 380 229 379
f 381 379 263
f 263 379 229
f 383 384 382
f 382 384 385
f 386 368 374
f 374 368 363
f 76 289 371
f 371 289 380
f 377 376 359
f 359 376 387
f 388 386 360
f 360 386 374
f 389 383 366
f 366 383 390
f 392 393 391
f 391 393 394
f 383 382 390
f 390 382 395
f 396 365 390
f 390 365 366
f 389 366 367
f 367 366 364
f 357 397 358
f 358 397 398
f 373 399 357
f 357 399 397
f 389 367 400
f 400 367 370
f 382 385 375
f 375 385 372
f 357 360 373
f 373 360 374
f 361 401 362
f 362 401 402
f 387 388 359
f 359 388 360
f 363 368 364
f 364 368 367
f 358 398 403
f 403 398 404
f 396 392 405
f 405 392 391
f 392 395 393
f 393 395 378
f 393 403 394
f 394 403 404
f 375 378 382
f 382 378 395
f 365 396 406
f 406 396 405
f 362 402 373
f 373 402 399
f 271 270 400
f 400 270 384
f 401 361 406
f 406 361 365
f 381 369 386
f 386 369 368
f 392 396 395
f 395 396 390
f 393 378 403
f 403 378 377
f 403 377 358
f 358 377 359
f 406 405 408
f 408 405 407
f 406 408 401
f 401 408 409
f 401 409 402
f 402 409 410
f 402 410 399
f 399 410 411
f 405 391 407
f 407 391 412
f 391 394 412
f 412 394 413
f 394 404 413
f 413 404 414
f 415 416 412
f 412 416 407
f 418 419 417
f 417 419 420
f 421 422 418
f 418 422 419
f 419 422 424
f 424 422 423
f 425 426 424
f 424 426 427
f 423 428 424
f 424 428 425
f 427 420 424
f 424 420 419
f 420 429 417
f 417 429 430
f 423 422 431
f 431 422 421
f 421 409 431
f 431 409 408
f 421 432 409
f 409 432 410
f 418 433 421
f 421 433 432
f 434 433 417
f 417 433 418
f 431 416 423
f 423 416 428
f 416 431 407
f 407 431 408
f 435 434 430
f 430 434 417
f 433 434 436
f 436 434 437
f 434 435 437
f 437 435 438
f 436 437 439
f 439 437 440
f 439 441 436
f 436 441 442
f 438 443 437
f 437 443 440
f 436 442 433
f 433 442 432
f 432 442 410
f 410 442 411
f 435 430 445
f 445 430 444
f 430 429 444
f 444 429 446
f 425 428 447
f 447 428 416
f 426 425 448
f 448 425 447
f 416 415 447
f 447 415 449
f 447 449 448
f 448 449 450
f 451 452 448
f 448 452 426
f 446 452 444
f 444 452 451
f 399 411 397
f 397 411 453
f 398 454 404
f 404 454 414
f 454 398 453
f 453 398 397
f 453 441 454
f 454 441 455
f 441 439 455
f 455 439 456
f 454 455 414
f 414 455 457
f 441 453 442
f 442 453 411
f 458 413 457
f 457 413 414
f 458 415 413
f 413 415 412
f 458 459 415
f 415 459 449
f 459 458 460
f 460 458 457
f 461 459 462
f 462 459 460
f 455 456 457
f 457 456 460
f 456 463 460
f 460 463 462
f 459 461 449
f 449 461 450
f 465 450 464
f 464 450 461
f 464 467 466
f 466 467 468
f 464 461 467
f 467 461 462
f 464 466 465
f 465 466 445
f 465 445 451
f 451 445 444
f 451 448 465
f 465 448 450
f 439 440 456
f 456 440 463
f 468 463 443
f 443 463 440
f 468 467 463
f 463 467 462
f 466 468 438
f 438 468 443
f 438 435 466
f 466 435 445
f 420 427 429
f 429 427 446
f 446 427 452
f 452 427 426
f 370 369 188
f 188 369 186
f 371 376 372
f 372 376 375
f 380 379 387
f 387 379 388
f 379 381 388
f 388 381 386
f 385 384 278
f 278 384 270
f 380 387 371
f 371 387 376
f 400 370 271
f 271 370 188
f 385 278 372
f 372 278 247
f 400 384 389
f 389 384 383
f 369 381 186
f 186 381 263
f 221 271 144
f 144 271 188
f 221 19 207
f 207 19 22
f 19 18 22
f 22 18 23
f 18 219 23
f 23 219 208
f 469 470 472
f 472 470 471
f 474 475 473
f 473 475 476
f 473 476 477
f 477 476 478
f 480 481 479
f 479 481 482
f 483 484 474
f 474 484 475
f 486 487 485
f 485 487 488
f 489 490 77
f 77 490 142
f 491 489 248
f 248 489 77
f 493 494 492
f 492 494 495
f 496 480 484
f 484 480 475
f 486 497 487
f 487 497 471
f 498 496 472
f 472 496 484
f 499 493 478
f 478 493 500
f 501 502 504
f 504 502 503
f 493 492 500
f 500 492 505
f 506 477 500
f 500 477 478
f 499 478 479
f 479 478 476
f 469 507 470
f 470 507 508
f 483 509 469
f 469 509 507
f 479 482 499
f 499 482 510
f 492 495 485
f 485 495 511
f 483 469 484
f 484 469 472
f 473 512 474
f 474 512 513
f 497 498 471
f 471 498 472
f 475 480 476
f 476 480 479
f 470 508 514
f 514 508 515
f 506 502 516
f 516 502 501
f 503 502 488
f 488 502 505
f 514 515 503
f 503 515 504
f 485 488 492
f 492 488 505
f 477 506 517
f 517 506 516
f 474 513 483
f 483 513 509
f 510 292 494
f 494 292 164
f 512 473 517
f 517 473 477
f 491 481 496
f 496 481 480
f 502 506 505
f 505 506 500
f 503 488 514
f 514 488 487
f 514 487 470
f 470 487 471
f 517 516 519
f 519 516 518
f 517 519 512
f 512 519 520
f 512 520 513
f 513 520 521
f 513 521 509
f 509 521 522
f 516 501 518
f 518 501 523
f 501 504 523
f 523 504 524
f 524 504 525
f 525 504 515
f 526 527 523
f 523 527 518
f 529 530 528
f 528 530 531
f 532 533 529
f 529 533 530
f 530 533 535
f 535 533 534
f 536 537 535
f 535 537 538
f 534 539 535
f 535 539 536
f 538 531 535
f 535 531 530
f 540 541 531
f 531 541 528
f 533 532 534
f 534 532 542
f 532 520 542
f 542 520 519
f 532 543 520
f 520 543 521
f 529 544 532
f 532 544 543
f 544 529 545
f 545 529 528
f 534 542 539
f 539 542 527
f 527 542 518
f 518 542 519
f 541 546 528
f 528 546 545
f 547 544 548
f 548 544 545
f 546 549 545
f 545 549 548
f 550 547 551
f 551 547 548
f 547 550 553
f 553 550 552
f 549 554 548
f 548 554 551
f 544 547 543
f 543 547 553
f 543 553 521
f 521 553 522
f 546 541 556
f 556 541 555
f 541 540 555
f 555 540 557
f 536 539 558
f 558 539 527
f 537 536 559
f 559 536 558
f 527 526 558
f 558 526 560
f 559 558 561
f 561 558 560
f 559 562 537
f 537 562 563
f 557 563 555
f 555 563 562
f 509 522 507
f 507 522 564
f 508 565 515
f 515 565 525
f 565 508 564
f 564 508 507
f 564 552 565
f 565 552 566
f 552 550 566
f 566 550 567
f 565 566 525
f 525 566 568
f 564 522 552
f 552 522 553
f 569 524 568
f 568 524 525
f 569 526 524
f 524 526 523
f 570 560 569
f 569 560 526
f 570 569 571
f 571 569 568
f 572 570 573
f 573 570 571
f 566 567 568
f 568 567 571
f 567 574 571
f 571 574 573
f 570 572 560
f 560 572 561
f 576 561 575
f 575 561 572
f 575 578 577
f 577 578 579
f 575 572 578
f 578 572 573
f 575 577 576
f 576 577 556
f 576 556 562
f 562 556 555
f 562 559 576
f 576 559 561
f 550 551 567
f 567 551 574
f 579 574 554
f 554 574 551
f 579 578 574
f 574 578 573
f 579 554 577
f 577 554 549
f 549 546 577
f 577 546 556
f 531 538 540
f 540 538 557
f 557 538 563
f 563 538 537
f 481 294 482
f 482 294 293
f 580 486 511
f 511 486 485
f 490 489 497
f 497 489 498
f 489 491 498
f 498 491 496
f 163 495 164
f 164 495 494
f 580 490 486
f 486 490 497
f 482 293 510
f 510 293 292
f 495 163 511
f 511 163 199
f 494 493 510
f 510 493 499
f 481 491 294
f 294 491 248
f 582 583 581
f 581 583 584
f 586 587 585
f 585 587 588
f 585 588 589
f 589 588 590
f 592 593 591
f 591 593 594
f 595 596 598
f 598 596 597
f 599 600 586
f 586 600 587
f 601 602 604
f 604 602 603
f 605 606 608
f 608 606 607
f 609 607 200
f 200 607 606
f 610 611 613
f 613 611 612
f 600 614 587
f 587 614 592
f 596 605 597
f 597 605 608
f 602 615 603
f 603 615 583
f 616 614 584
f 584 614 600
f 611 618 617
f 617 618 590
f 620 621 619
f 619 621 622
f 610 623 611
f 611 623 618
f 624 589 618
f 618 589 590
f 617 590 591
f 591 590 588
f 581 625 582
f 582 625 626
f 599 627 581
f 581 627 625
f 591 594 617
f 617 594 628
f 601 610 598
f 598 610 613
f 581 584 599
f 599 584 600
f 585 629 586
f 586 629 630
f 615 616 583
f 583 616 584
f 587 592 588
f 588 592 591
f 582 626 631
f 631 626 632
f 624 620 633
f 633 620 619
f 621 620 604
f 604 620 623
f 631 632 621
f 621 632 622
f 610 601 623
f 623 601 604
f 589 624 634
f 634 624 633
f 586 630 599
f 599 630 627
f 203 202 628
f 628 202 612
f 629 585 634
f 634 585 589
f 609 593 614
f 614 593 592
f 620 624 623
f 623 624 618
f 631 621 603
f 603 621 604
f 582 631 583
f 583 631 603
f 634 633 636
f 636 633 635
f 634 636 629
f 629 636 637
f 629 637 630
f 630 637 638
f 630 638 627
f 627 638 639
f 633 619 635
f 635 619 640
f 619 622 640
f 640 622 641
f 641 622 642
f 642 622 632
f 644 635 643
f 643 635 640
f 645 646 648
f 648 646 647
f 649 650 646
f 646 650 647
f 647 650 652
f 652 650 651
f 652 653 655
f 655 653 654
f 651 656 652
f 652 656 653
f 655 648 652
f 652 648 647
f 648 657 645
f 645 657 658
f 650 649 651
f 651 649 659
f 649 637 659
f 659 637 636
f 649 660 637
f 637 660 638
f 661 660 646
f 646 660 649
f 662 661 645
f 645 661 646
f 651 659 656
f 656 659 644
f 644 659 635
f 635 659 636
f 663 662 658
f 658 662 645
f 664 661 665
f 665 661 662
f 663 666 662
f 662 666 665
f 667 664 668
f 668 664 665
f 664 667 670
f 670 667 669
f 666 671 665
f 665 671 668
f 661 664 660
f 660 664 670
f 660 670 638
f 638 670 639
f 658 672 663
f 663 672 673
f 658 657 672
f 672 657 674
f 653 656 675
f 675 656 644
f 653 675 654
f 654 675 676
f 675 644 677
f 677 644 643
f 676 675 678
f 678 675 677
f 679 680 676
f 676 680 654
f 674 680 672
f 672 680 679
f 627 639 625
f 625 639 681
f 626 682 632
f 632 682 642
f 681 682 625
f 625 682 626
f 669 683 681
f 681 683 682
f 667 684 669
f 669 684 683
f 682 683 642
f 642 683 685
f 681 639 669
f 669 639 670
f 686 641 685
f 685 641 642
f 641 686 640
f 640 686 643
f 686 687 643
f 643 687 677
f 687 686 688
f 688 686 685
f 689 687 690
f 690 687 688
f 683 684 685
f 685 684 688
f 684 691 688
f 688 691 690
f 687 689 677
f 677 689 678
f 693 678 692
f 692 678 689
f 692 695 694
f 694 695 696
f 692 689 695
f 695 689 690
f 692 694 693
f 693 694 673
f 693 673 679
f 679 673 672
f 679 676 693
f 693 676 678
f 684 667 691
f 691 667 668
f 696 691 671
f 671 691 668
f 696 695 691
f 691 695 690
f 694 696 666
f 666 696 671
f 666 663 694
f 694 663 673
f 648 655 657
f 657 655 674
f 674 655 680
f 680 655 654
f 593 162 594
f 594 162 290
f 598 597 601
f 601 597 602
f 615 608 616
f 616 608 607
f 607 609 616
f 616 609 614
f 697 595 613
f 613 595 598
f 597 608 602
f 602 608 615
f 594 290 628
f 628 290 203
f 628 612 617
f 617 612 611
f 593 609 162
f 162 609 200
f 105 29 698
f 698 29 699
f 268 126 701
f 701 126 700
f 126 125 700
f 700 125 702
f 252 703 250
f 250 703 704
f 32 268 705
f 705 268 701
f 288 105 706
f 706 105 698
f 29 32 699
f 699 32 705
f 707 251 706
f 706 251 288
f 250 704 125
f 125 704 702
f 703 252 707
f 707 252 251
f 706 708 707
f 707 708 709
f 707 709 703
f 703 709 710
f 703 710 704
f 704 710 711
f 704 711 702
f 702 711 712
f 706 698 708
f 708 698 713
f 698 699 713
f 713 699 714
f 699 705 714
f 714 705 715
f 717 708 716
f 716 708 713
f 719 720 718
f 718 720 721
f 722 723 719
f 719 723 720
f 724 725 723
f 723 725 720
f 724 726 725
f 725 726 727
f 728 721 725
f 725 721 720
f 721 728 729
f 729 728 730
f 729 731 721
f 721 731 718
f 724 723 732
f 732 723 722
f 722 710 732
f 732 710 709
f 722 733 710
f 710 733 711
f 719 734 722
f 722 734 733
f 734 719 735
f 735 719 718
f 724 732 726
f 726 732 717
f 717 732 708
f 708 732 709
f 731 736 718
f 718 736 735
f 737 734 738
f 738 734 735
f 736 739 735
f 735 739 738
f 740 737 741
f 741 737 738
f 737 740 743
f 743 740 742
f 739 744 738
f 738 744 741
f 734 737 733
f 733 737 743
f 733 743 711
f 711 743 712
f 736 731 746
f 746 731 745
f 731 729 745
f 745 729 730
f 727 726 747
f 747 726 717
f 748 727 749
f 749 727 747
f 747 717 750
f 750 717 716
f 749 747 751
f 751 747 750
f 749 752 748
f 748 752 753
f 730 753 745
f 745 753 752
f 728 725 748
f 748 725 727
f 730 728 753
f 753 728 748
f 700 702 754
f 754 702 712
f 705 701 715
f 715 701 755
f 754 755 700
f 700 755 701
f 742 756 754
f 754 756 755
f 740 757 742
f 742 757 756
f 755 756 715
f 715 756 758
f 754 712 742
f 742 712 743
f 759 714 758
f 758 714 715
f 714 759 713
f 713 759 716
f 759 760 716
f 716 760 750
f 760 759 761
f 761 759 758
f 762 760 763
f 763 760 761
f 756 757 758
f 758 757 761
f 757 764 761
f 761 764 763
f 760 762 750
f 750 762 751
f 766 751 765
f 765 751 762
f 767 765 769
f 769 765 768
f 765 762 768
f 768 762 763
f 765 767 766
f 766 767 746
f 766 746 752
f 752 746 745
f 752 749 766
f 766 749 751
f 757 740 764
f 764 740 741
f 769 764 744
f 744 764 741
f 769 768 764
f 764 768 763
f 767 769 739
f 739 769 744
f 739 736 767
f 767 736 746
f 219 217 208
f 208 217 209
f 209 217 210
f 210 217 193
f 198 580 199
f 199 580 511
f 76 75 289
f 289 75 272
f 277 207 291
f 291 207 184
f 290 183 203
f 203 183 84
f 490 580 142
f 142 580 198
f 142 198 143
f 143 198 197
f 149 276 72
f 72 276 73
f 104 103 279
f 279 103 770
f 770 596 279
f 279 596 595
f 605 596 771
f 771 596 770
f 771 770 772
f 772 770 103
f 772 103 773
f 773 103 102
f 155 774 101
f 101 774 102
f 773 102 97
f 97 102 774
f 775 773 100
f 100 773 97
f 773 775 772
f 772 775 776
f 772 776 771
f 771 776 777
f 200 606 197
f 197 606 777
f 189 71 778
f 778 71 74
f 97 774 98
f 98 774 155
f 183 161 184
f 184 161 291
f 777 276 197
f 197 276 143
f 777 606 771
f 771 606 605
f 613 612 697
f 697 612 202
f 595 697 279
f 279 697 202
f 73 276 776
f 776 276 777
f 776 775 73
f 73 775 74
f 100 778 775
f 775 778 74
f 778 100 189
f 189 100 99
f 245 242 99
f 99 242 189
f 131 33 256
f 28 1 95
f 95 1 62
f 27 2 28
f 28 2 1
f 265 115 266
f 266 115 114
f 95 62 69
f 69 62 64
f 62 61 64
f 64 61 65
f 61 13 65
f 65 13 130
f 13 12 130
f 130 12 14
f 31 11 32
f 32 11 268
f 15 12 31
f 31 12 11
f 31 30 15
f 15 30 231
f 30 106 231
f 231 106 232
f 287 237 106
f 106 237 232
f 254 90 287
f 287 90 237
f 253 44 254
f 254 44 90
f 253 249 44
f 44 249 7
f 267 127 268
f 268 127 126
f 10 3 241
f 241 3 116
f 3 2 116
f 116 2 114
f 2 27 114
f 114 27 266
f 27 26 266
f 266 26 113
f 26 286 113
f 113 286 110
f 286 243 110
f 110 243 255
f 243 242 255
f 255 242 256
f 242 245 256
f 256 245 131
f 245 244 131
f 131 244 132
f 265 37 115
f 115 37 41
f 41 37 42
f 42 37 40
f 92 91 40
f 40 91 42
f 236 233 92
f 92 233 91
f 191 194 236
f 236 194 233
f 258 285 244
f 244 285 132
f 257 55 258
f 258 55 285
f 257 154 201
f 201 154 185
f 56 201 204
f 204 201 180
f 55 257 56
f 56 257 201
f 204 85 56
f 56 85 52
f 86 122 53
f 53 122 79
f 212 215 86
f 86 215 122
f 211 216 212
f 212 216 215
f 192 280 211
f 211 280 216
f 191 240 192
f 192 240 280
f 249 124 7
f 7 124 8
f 124 127 8
f 8 127 241
f 127 267 241
f 241 267 10
f 10 267 9
f 9 267 11
f 93 39 235
f 235 39 240
f 39 123 240
f 240 123 280
f 123 119 280
f 280 119 216
f 119 118 216
f 216 118 215
f 118 120 215
f 215 120 122
f 120 121 122
f 122 121 79
f 121 109 79
f 79 109 80

