# https://github.com/mikedh/trimesh
v -0.08525544 -0.03139612 -16.22531509 0.25098039 0.27450980 0.65882353
v -0.09283569 -0.02560675 -16.22972870 0.25098039 0.27450980 0.65882353
v -0.08656061 -0.02986176 -16.23742104 0.25098039 0.27450980 0.65882353
v -0.07812601 -0.03497326 -16.23124504 0.25098039 0.27450980 0.65882353
v -0.10163294 -0.01513948 -16.24787903 0.25098039 0.27450980 0.65882353
v -0.09892164 -0.00400860 -16.25271797 0.25098039 0.27450980 0.65882353
v -0.08999203 -0.01427123 -16.25924301 0.25098039 0.27450980 0.65882353
v -0.09414742 -0.02219550 -16.25464630 0.25098039 0.27450980 0.65882353
v -0.07151280 -0.03675364 -16.23495102 0.25098039 0.27450980 0.65882353
v -0.08143666 -0.03404741 -16.24303246 0.25098039 0.27450980 0.65882353
v -0.06708057 -0.03343569 -16.23656273 0.25098039 0.27450980 0.65882353
v -0.05770271 -0.03317492 -16.22325325 0.25098039 0.27450980 0.65882353
v -0.06301171 -0.03695879 -16.22542572 0.25098039 0.27450980 0.65882353
v -0.05340064 -0.03636302 -16.21529388 0.25098039 0.27450980 0.65882353
v -0.05772693 -0.02393981 -16.21800041 0.25098039 0.27450980 0.65882353
v -0.05461283 -0.03362734 -16.20610809 0.25098039 0.27450980 0.65882353
v -0.07769223 -0.02197377 -16.19251633 0.25098039 0.27450980 0.65882353
v -0.08966273 -0.02451785 -16.18710136 0.25098039 0.27450980 0.65882353
v -0.08241798 -0.03802959 -16.18313980 0.25098039 0.27450980 0.65882353
v -0.07109642 -0.03434292 -16.18967438 0.25098039 0.27450980 0.65882353
v -0.10256070 -0.03969987 -16.18179893 0.25098039 0.27450980 0.65882353
v -0.09114139 -0.03950744 -16.18200302 0.25098039 0.27450980 0.65882353
v -0.09816261 -0.02538839 -16.18506241 0.25098039 0.27450980 0.65882353
v -0.10815032 -0.02613679 -16.18466759 0.25098039 0.27450980 0.65882353
v -0.09969284 -0.02845983 -16.21801186 0.25098039 0.27450980 0.65882353
v -0.10682754 -0.02189336 -16.22133446 0.25098039 0.27450980 0.65882353
v -0.10123901 -0.02243786 -16.22270393 0.25098039 0.27450980 0.65882353
v -0.09450136 -0.02828297 -16.22008705 0.25098039 0.27450980 0.65882353
v -0.06409055 -0.02665511 -16.24905968 0.25098039 0.27450980 0.65882353
v -0.06317610 -0.01790599 -16.23779488 0.25098039 0.27450980 0.65882353
v -0.06281507 -0.02573901 -16.23563004 0.25098039 0.27450980 0.65882353
v -0.06714788 -0.03134854 -16.24886131 0.25098039 0.27450980 0.65882353
v -0.13001171 -0.00750655 -16.22951317 0.25098039 0.27450980 0.65882353
v -0.13335341 0.00585652 -16.22792435 0.25098039 0.27450980 0.65882353
v -0.12822801 0.00801937 -16.22970581 0.25098039 0.27450980 0.65882353
v -0.12631562 -0.00456905 -16.23025131 0.25098039 0.27450980 0.65882353
v -0.11062302 0.00773902 -16.24168396 0.25098039 0.27450980 0.65882353
v -0.11382319 0.01570600 -16.23666763 0.25098039 0.27450980 0.65882353
v -0.10600154 0.02686755 -16.23422432 0.25098039 0.27450980 0.65882353
v -0.10022567 0.01986678 -16.23790932 0.25098039 0.27450980 0.65882353
v -0.10497258 0.00095432 -16.24751282 0.25098039 0.27450980 0.65882353
v -0.09659176 0.01164136 -16.24570084 0.25098039 0.27450980 0.65882353
v -0.09130800 0.00464437 -16.25191307 0.25098039 0.27450980 0.65882353
v -0.08366311 -0.00758922 -16.25977516 0.25098039 0.27450980 0.65882353
v -0.14328711 0.00222486 -16.22090340 0.25098039 0.27450980 0.65882353
v -0.14284979 -0.00790025 -16.22122765 0.25098039 0.27450980 0.65882353
v -0.03155734 -0.07772668 -16.21202469 0.25098039 0.27450980 0.65882353
v -0.03599100 -0.08120359 -16.21053123 0.25098039 0.27450980 0.65882353
v -0.03781274 -0.07769053 -16.21017265 0.25098039 0.27450980 0.65882353
v -0.03319362 -0.07478638 -16.21138000 0.25098039 0.27450980 0.65882353
v -0.14547411 -0.00231106 -16.20150757 0.25098039 0.27450980 0.65882353
v -0.14085478 0.00100375 -16.19309998 0.25098039 0.27450980 0.65882353
v -0.14507814 0.00591867 -16.19542122 0.25098039 0.27450980 0.65882353
v -0.14787227 0.00408104 -16.20396423 0.25098039 0.27450980 0.65882353
v -0.14201380 -0.01083011 -16.19807816 0.25098039 0.27450980 0.65882353
v -0.13482907 -0.00611519 -16.19048500 0.25098039 0.27450980 0.65882353
v -0.02314763 -0.07818723 -16.20273209 0.25098039 0.27450980 0.65882353
v -0.02410106 -0.07693748 -16.20756531 0.25098039 0.27450980 0.65882353
v -0.02558759 -0.07284953 -16.20529175 0.25098039 0.27450980 0.65882353
v -0.02533258 -0.07372365 -16.20003128 0.25098039 0.27450980 0.65882353
v -0.07019718 -0.03808729 -16.22511673 0.25098039 0.27450980 0.65882353
v -0.07893045 -0.03763489 -16.22228050 0.25098039 0.27450980 0.65882353
v -0.06029341 -0.05249875 -16.21680450 0.25098039 0.27450980 0.65882353
v -0.06847164 -0.04613021 -16.21787643 0.25098039 0.27450980 0.65882353
v -0.06300916 -0.04238645 -16.22038651 0.25098039 0.27450980 0.65882353
v -0.05635421 -0.04706398 -16.21794128 0.25098039 0.27450980 0.65882353
v -0.09034222 -0.04774877 -16.20958519 0.25098039 0.27450980 0.65882353
v -0.09627043 -0.03807125 -16.21292114 0.25098039 0.27450980 0.65882353
v -0.08990851 -0.03747583 -16.21452141 0.25098039 0.27450980 0.65882353
v -0.08228348 -0.04808040 -16.21238899 0.25098039 0.27450980 0.65882353
v -0.10944259 -0.04204794 -16.21068192 0.25098039 0.27450980 0.65882353
v -0.10254101 -0.05099703 -16.20738029 0.25098039 0.27450980 0.65882353
v -0.11097815 -0.05201089 -16.20659256 0.25098039 0.27450980 0.65882353
v -0.11468765 -0.04585749 -16.20984459 0.25098039 0.27450980 0.65882353
v -0.08756103 -0.06569554 -16.20131111 0.25098039 0.27450980 0.65882353
v -0.08228616 -0.07095660 -16.19653893 0.25098039 0.27450980 0.65882353
v -0.08440696 -0.07201578 -16.19508362 0.25098039 0.27450980 0.65882353
v -0.09060958 -0.06603615 -16.20037651 0.25098039 0.27450980 0.65882353
v -0.14849956 0.01144198 -16.19655609 0.25098039 0.27450980 0.65882353
v -0.14903954 0.01053772 -16.20588112 0.25098039 0.27450980 0.65882353
v -0.12283832 -0.04320113 -16.18313408 0.25098039 0.27450980 0.65882353
v -0.13185184 -0.04334916 -16.18925285 0.25098039 0.27450980 0.65882353
v -0.12867737 -0.05543553 -16.18658066 0.25098039 0.27450980 0.65882353
v -0.12025835 -0.05209902 -16.18068123 0.25098039 0.27450980 0.65882353
v -0.13212049 0.00419734 -16.18867111 0.25098039 0.27450980 0.65882353
v -0.13770345 0.00884443 -16.18931007 0.25098039 0.27450980 0.65882353
v -0.02526253 -0.08118850 -16.19795609 0.25098039 0.27450980 0.65882353
v -0.02747257 -0.07687876 -16.19537163 0.25098039 0.27450980 0.65882353
v -0.08298174 0.01009780 -16.24246788 0.25098039 0.27450980 0.65882353
v -0.07567634 -0.00372562 -16.25452423 0.25098039 0.27450980 0.65882353
v -0.08994290 0.01942735 -16.23402786 0.25098039 0.27450980 0.65882353
v -0.09497026 0.02554932 -16.22770500 0.25098039 0.27450980 0.65882353
v -0.09945122 0.03174631 -16.22499657 0.25098039 0.27450980 0.65882353
v -0.07118380 -0.05178185 -16.21459389 0.25098039 0.27450980 0.65882353
v -0.08714573 -0.03450765 -16.21894264 0.25098039 0.27450980 0.65882353
v -0.10451180 -0.02957739 -16.21656036 0.25098039 0.27450980 0.65882353
v -0.13188133 -0.04183068 -16.21125793 0.25098039 0.27450980 0.65882353
v -0.13694932 -0.03294503 -16.21452332 0.25098039 0.27450980 0.65882353
v -0.12648411 -0.03357403 -16.21753883 0.25098039 0.27450980 0.65882353
v -0.12417238 -0.04114370 -16.21350479 0.25098039 0.27450980 0.65882353
v -0.13535005 -0.04740623 -16.19695091 0.25098039 0.27450980 0.65882353
v -0.13191497 -0.05012654 -16.20333290 0.25098039 0.27450980 0.65882353
v -0.12797579 -0.05755742 -16.20112991 0.25098039 0.27450980 0.65882353
v -0.13118879 -0.05637366 -16.19462585 0.25098039 0.27450980 0.65882353
v -0.06253488 -0.02143328 -16.25377655 0.25098039 0.27450980 0.65882353
v -0.06395717 -0.01153164 -16.24035454 0.25098039 0.27450980 0.65882353
v -0.14671262 -0.00481111 -16.21148872 0.25098039 0.27450980 0.65882353
v -0.14692691 0.00248408 -16.21389198 0.25098039 0.27450980 0.65882353
v -0.14792497 0.01095647 -16.21318817 0.25098039 0.27450980 0.65882353
v -0.11785303 -0.01460587 -16.22627449 0.25098039 0.27450980 0.65882353
v -0.12387704 -0.00257657 -16.23088264 0.25098039 0.27450980 0.65882353
v -0.12057763 -0.00219420 -16.23274231 0.25098039 0.27450980 0.65882353
v -0.11491711 -0.01436111 -16.22627449 0.25098039 0.27450980 0.65882353
v -0.10253403 -0.01950819 -16.23456573 0.25098039 0.27450980 0.65882353
v -0.10934739 -0.00920781 -16.24010658 0.25098039 0.27450980 0.65882353
v -0.09678555 -0.02507876 -16.24274826 0.25098039 0.27450980 0.65882353
v -0.12233570 0.01242124 -16.23256302 0.25098039 0.27450980 0.65882353
v -0.13125966 0.01783791 -16.23027802 0.25098039 0.27450980 0.65882353
v -0.12378927 0.02170701 -16.23266411 0.25098039 0.27450980 0.65882353
v -0.13898587 0.01481732 -16.22543526 0.25098039 0.27450980 0.65882353
v -0.14470813 0.01206325 -16.21942711 0.25098039 0.27450980 0.65882353
v -0.14210358 0.01476479 -16.18725967 0.25098039 0.27450980 0.65882353
v -0.11620301 0.02495350 -16.23377037 0.25098039 0.27450980 0.65882353
v -0.08790663 -0.02777845 -16.25868416 0.25098039 0.27450980 0.65882353
v -0.08227205 -0.03271495 -16.26259041 0.25098039 0.27450980 0.65882353
v -0.07956496 -0.03639418 -16.25635147 0.25098039 0.27450980 0.65882353
v -0.08520463 -0.03280010 -16.25217056 0.25098039 0.27450980 0.65882353
v -0.04848567 -0.04178061 -16.20908737 0.25098039 0.27450980 0.65882353
v -0.05141705 -0.04463886 -16.21532822 0.25098039 0.27450980 0.65882353
v -0.05713090 -0.03840227 -16.22063255 0.25098039 0.27450980 0.65882353
v -0.12965146 -0.01789167 -16.22514915 0.25098039 0.27450980 0.65882353
v -0.14113784 -0.01803446 -16.21841812 0.25098039 0.27450980 0.65882353
v -0.06208070 -0.05796856 -16.21286201 0.25098039 0.27450980 0.65882353
v -0.02841276 -0.06904966 -16.19909859 0.25098039 0.27450980 0.65882353
v -0.02840783 -0.06816495 -16.20481491 0.25098039 0.27450980 0.65882353
v -0.03971504 -0.05336122 -16.20633888 0.25098039 0.27450980 0.65882353
v -0.03949547 -0.05420037 -16.19947433 0.25098039 0.27450980 0.65882353
v -0.05756125 -0.06408086 -16.20357513 0.25098039 0.27450980 0.65882353
v -0.05785158 -0.06193373 -16.20998764 0.25098039 0.27450980 0.65882353
v -0.05541597 -0.06360969 -16.20787239 0.25098039 0.27450980 0.65882353
v -0.05529322 -0.06767891 -16.20269775 0.25098039 0.27450980 0.65882353
v -0.09335531 -0.07158878 -16.19657135 0.25098039 0.27450980 0.65882353
v -0.09882201 -0.06618158 -16.20048714 0.25098039 0.27450980 0.65882353
v -0.06522401 -0.04905417 -16.18868065 0.25098039 0.27450980 0.65882353
v -0.05562867 -0.04052838 -16.19282532 0.25098039 0.27450980 0.65882353
v -0.06137463 -0.03163463 -16.19623756 0.25098039 0.27450980 0.65882353
v -0.09754589 -0.04877354 -16.20823669 0.25098039 0.27450980 0.65882353
v -0.09281248 -0.05797546 -16.20513153 0.25098039 0.27450980 0.65882353
v -0.09656440 -0.05888256 -16.20409203 0.25098039 0.27450980 0.65882353
v -0.07148974 -0.05577248 -16.21154976 0.25098039 0.27450980 0.65882353
v -0.06474467 -0.06130800 -16.20864105 0.25098039 0.27450980 0.65882353
v -0.07093072 -0.06020547 -16.20758629 0.25098039 0.27450980 0.65882353
v -0.07675666 -0.05517912 -16.20952797 0.25098039 0.27450980 0.65882353
v -0.13612890 -0.03113423 -16.19117737 0.25098039 0.27450980 0.65882353
v -0.14050262 -0.03598734 -16.19990921 0.25098039 0.27450980 0.65882353
v -0.02721013 -0.07651255 -16.21095085 0.25098039 0.27450980 0.65882353
v -0.02865556 -0.07297582 -16.20950890 0.25098039 0.27450980 0.65882353
v -0.10308525 -0.03927363 -16.21127319 0.25098039 0.27450980 0.65882353
v -0.06821720 -0.02108031 -16.20052719 0.25098039 0.27450980 0.65882353
v -0.10952139 -0.03097814 -16.21565056 0.25098039 0.27450980 0.65882353
v -0.10454961 -0.06144231 -16.18111420 0.25098039 0.27450980 0.65882353
v -0.10722899 -0.06653243 -16.18718910 0.25098039 0.27450980 0.65882353
v -0.10309178 -0.07117043 -16.18616867 0.25098039 0.27450980 0.65882353
v -0.10130513 -0.06893624 -16.18027496 0.25098039 0.27450980 0.65882353
v -0.04521230 -0.07916068 -16.20083046 0.25098039 0.27450980 0.65882353
v -0.04450075 -0.07847945 -16.20642471 0.25098039 0.27450980 0.65882353
v -0.04115924 -0.08107046 -16.20607185 0.25098039 0.27450980 0.65882353
v -0.04141168 -0.08262532 -16.20048904 0.25098039 0.27450980 0.65882353
v -0.05543326 -0.05807252 -16.21366692 0.25098039 0.27450980 0.65882353
v -0.05170749 -0.05284835 -16.21524239 0.25098039 0.27450980 0.65882353
v -0.04824665 -0.05818368 -16.21366119 0.25098039 0.27450980 0.65882353
v -0.05217274 -0.06162409 -16.21110535 0.25098039 0.27450980 0.65882353
v -0.04672499 -0.04994864 -16.21218681 0.25098039 0.27450980 0.65882353
v -0.04325101 -0.05467469 -16.21165848 0.25098039 0.27450980 0.65882353
v -0.04227023 -0.07782959 -16.19513893 0.25098039 0.27450980 0.65882353
v -0.03613716 -0.07464544 -16.19218063 0.25098039 0.27450980 0.65882353
v -0.04767013 -0.06199501 -16.19212532 0.25098039 0.27450980 0.65882353
v -0.05149208 -0.06752689 -16.19619370 0.25098039 0.27450980 0.65882353
v -0.11295153 -0.01254799 -16.18645477 0.25098039 0.27450980 0.65882353
v -0.12346213 -0.01536828 -16.18622589 0.25098039 0.27450980 0.65882353
v -0.11864021 -0.02903348 -16.18446541 0.25098039 0.27450980 0.65882353
v -0.11426823 -0.04219018 -16.18192482 0.25098039 0.27450980 0.65882353
v -0.10954308 -0.05484727 -16.18064880 0.25098039 0.27450980 0.65882353
v -0.09875778 -0.05110052 -16.17825699 0.25098039 0.27450980 0.65882353
v -0.12642606 -0.02991878 -16.18556213 0.25098039 0.27450980 0.65882353
v -0.06184484 -0.06101162 -16.19560814 0.25098039 0.27450980 0.65882353
v -0.05638123 -0.05371144 -16.19229889 0.25098039 0.27450980 0.65882353
v -0.06260468 -0.05586227 -16.19084930 0.25098039 0.27450980 0.65882353
v -0.11632323 -0.03379511 -16.21546936 0.25098039 0.27450980 0.65882353
v -0.03116927 -0.06882392 -16.20970345 0.25098039 0.27450980 0.65882353
v -0.09780721 0.02329652 -16.20435524 0.25098039 0.27450980 0.65882353
v -0.10672357 0.01973037 -16.19483757 0.25098039 0.27450980 0.65882353
v -0.10237032 0.01309534 -16.19610596 0.25098039 0.27450980 0.65882353
v -0.09230937 0.01682418 -16.20728874 0.25098039 0.27450980 0.65882353
v -0.04104215 -0.07527874 -16.21132469 0.25098039 0.27450980 0.65882353
v -0.03595628 -0.07156958 -16.21296120 0.25098039 0.27450980 0.65882353
v -0.10433217 -0.06884201 -16.19923782 0.25098039 0.27450980 0.65882353
v -0.09890127 -0.07289986 -16.19562721 0.25098039 0.27450980 0.65882353
v -0.10091133 -0.07407718 -16.19243050 0.25098039 0.27450980 0.65882353
v -0.10773619 -0.07236084 -16.19738388 0.25098039 0.27450980 0.65882353
v -0.12921959 -0.01561924 -16.18710709 0.25098039 0.27450980 0.65882353
v -0.12753733 -0.06309812 -16.18767548 0.25098039 0.27450980 0.65882353
v -0.11995223 -0.06010818 -16.18126297 0.25098039 0.27450980 0.65882353
v -0.12717837 -0.00331228 -16.18778038 0.25098039 0.27450980 0.65882353
v -0.11797659 -0.00078165 -16.18743896 0.25098039 0.27450980 0.65882353
v -0.12189826 0.00744903 -16.18773651 0.25098039 0.27450980 0.65882353
v -0.08349074 -0.05449847 -16.18006325 0.25098039 0.27450980 0.65882353
v -0.10476078 -0.01241386 -16.18740654 0.25098039 0.27450980 0.65882353
v -0.11077867 -0.00032781 -16.18904877 0.25098039 0.27450980 0.65882353
v -0.11511158 0.00961988 -16.18931389 0.25098039 0.27450980 0.65882353
v -0.11819105 0.01664113 -16.18848801 0.25098039 0.27450980 0.65882353
v -0.12551175 0.01328472 -16.18741226 0.25098039 0.27450980 0.65882353
v -0.03127635 -0.07217352 -16.19443130 0.25098039 0.27450980 0.65882353
v -0.03240234 -0.08052959 -16.19274902 0.25098039 0.27450980 0.65882353
v -0.12947252 0.01980502 -16.18526077 0.25098039 0.27450980 0.65882353
v -0.12104611 0.02297181 -16.18720436 0.25098039 0.27450980 0.65882353
v -0.10227893 0.00086887 -16.19187355 0.25098039 0.27450980 0.65882353
v -0.09270132 0.00210826 -16.19675636 0.25098039 0.27450980 0.65882353
v -0.09673922 -0.01080900 -16.18962097 0.25098039 0.27450980 0.65882353
v -0.08638327 -0.01030985 -16.19407082 0.25098039 0.27450980 0.65882353
v -0.07531470 -0.04800460 -16.18015480 0.25098039 0.27450980 0.65882353
v -0.03000551 -0.09573378 -16.20117188 0.25098039 0.27450980 0.65882353
v -0.03526086 -0.08707918 -16.19676781 0.25098039 0.27450980 0.65882353
v -0.03890961 -0.08660401 -16.20119858 0.25098039 0.27450980 0.65882353
v -0.03376012 -0.09592891 -16.20346832 0.25098039 0.27450980 0.65882353
v -0.03844087 -0.08236364 -16.19550896 0.25098039 0.27450980 0.65882353
v -0.03017139 -0.08468768 -16.19525337 0.25098039 0.27450980 0.65882353
v -0.07526878 -0.00901006 -16.20464516 0.25098039 0.27450980 0.65882353
v -0.06561910 -0.06472434 -16.20358086 0.25098039 0.27450980 0.65882353
v -0.08137381 0.00488237 -16.21120262 0.25098039 0.27450980 0.65882353
v -0.06343518 -0.01248383 -16.21940231 0.25098039 0.27450980 0.65882353
v -0.06939757 -0.00296302 -16.22598648 0.25098039 0.27450980 0.65882353
v -0.08701244 0.01945860 -16.21916580 0.25098039 0.27450980 0.65882353
v -0.07743204 0.01043619 -16.22964096 0.25098039 0.27450980 0.65882353
v -0.09827913 0.03146661 -16.21430588 0.25098039 0.27450980 0.65882353
v -0.09310511 0.02499237 -16.21539307 0.25098039 0.27450980 0.65882353
v -0.07071860 0.00026321 -16.24170876 0.25098039 0.27450980 0.65882353
v -0.03029007 -0.08745727 -16.21493149 0.25098039 0.27450980 0.65882353
v -0.03470618 -0.09019646 -16.21240807 0.25098039 0.27450980 0.65882353
v -0.10172200 0.02986667 -16.20322418 0.25098039 0.27450980 0.65882353
v -0.09021585 -0.02939793 -16.24847412 0.25098039 0.27450980 0.65882353
v -0.12008234 -0.02505673 -16.22042084 0.25098039 0.27450980 0.65882353
v -0.11465868 -0.02365283 -16.22073174 0.25098039 0.27450980 0.65882353
v -0.13916376 -0.02712700 -16.21580315 0.25098039 0.27450980 0.65882353
v -0.12763840 -0.02631409 -16.22058868 0.25098039 0.27450980 0.65882353
v -0.02514006 -0.08582088 -16.21450424 0.25098039 0.27450980 0.65882353
v -0.07919514 -0.07290067 -16.19060326 0.25098039 0.27450980 0.65882353
v -0.08123966 -0.07108121 -16.18986893 0.25098039 0.27450980 0.65882353
v -0.08549750 -0.02112081 -16.26353836 0.25098039 0.27450980 0.65882353
v -0.08146615 -0.02644150 -16.26687241 0.25098039 0.27450980 0.65882353
v -0.06996723 -0.02012848 -16.26647568 0.25098039 0.27450980 0.65882353
v -0.07632150 -0.02225859 -16.26879883 0.25098039 0.27450980 0.65882353
v -0.07954468 -0.01509873 -16.26476097 0.25098039 0.27450980 0.65882353
v -0.07299215 -0.01231555 -16.26187897 0.25098039 0.27450980 0.65882353
v -0.12000969 -0.01562037 -16.22646141 0.25098039 0.27450980 0.65882353
v -0.12342687 -0.01701419 -16.22596359 0.25098039 0.27450980 0.65882353
v -0.13952567 -0.02038734 -16.19469833 0.25098039 0.27450980 0.65882353
v -0.14307505 -0.02546715 -16.20372772 0.25098039 0.27450980 0.65882353
v -0.04445264 -0.04783044 -16.20648384 0.25098039 0.27450980 0.65882353
v -0.04950497 -0.04104323 -16.20059776 0.25098039 0.27450980 0.65882353
v -0.04502693 -0.04803299 -16.19937897 0.25098039 0.27450980 0.65882353
v -0.04346018 -0.05607475 -16.19391441 0.25098039 0.27450980 0.65882353
v -0.06187575 -0.06524681 -16.19917870 0.25098039 0.27450980 0.65882353
v -0.05672586 -0.06243394 -16.19793320 0.25098039 0.27450980 0.65882353
v -0.11537036 -0.00619648 -16.23610306 0.25098039 0.27450980 0.65882353
v -0.10900153 -0.01611792 -16.22832870 0.25098039 0.27450980 0.65882353
v -0.07809415 -0.03471037 -16.24678230 0.25098039 0.27450980 0.65882353
v -0.07368155 -0.03624058 -16.25088310 0.25098039 0.27450980 0.65882353
v -0.08461075 -0.05491597 -16.20764351 0.25098039 0.27450980 0.65882353
v -0.07574046 -0.06375104 -16.18063164 0.25098039 0.27450980 0.65882353
v -0.06929961 -0.05836337 -16.18102264 0.25098039 0.27450980 0.65882353
v -0.07908601 -0.06198624 -16.20452309 0.25098039 0.27450980 0.65882353
v -0.01987246 -0.08810189 -16.20792389 0.25098039 0.27450980 0.65882353
v -0.02190405 -0.08631583 -16.21225929 0.25098039 0.27450980 0.65882353
v -0.04922870 -0.04938921 -16.19366646 0.25098039 0.27450980 0.65882353
v -0.10471117 -0.06057886 -16.20419693 0.25098039 0.27450980 0.65882353
v -0.08437331 -0.06147777 -16.18072128 0.25098039 0.27450980 0.65882353
v -0.07819879 -0.06976593 -16.18378830 0.25098039 0.27450980 0.65882353
v -0.12869895 -0.06140930 -16.19502831 0.25098039 0.27450980 0.65882353
v -0.11052595 0.02673082 -16.19446945 0.25098039 0.27450980 0.65882353
v -0.03939337 -0.08506197 -16.20665932 0.25098039 0.27450980 0.65882353
v -0.03674644 -0.09284811 -16.20847511 0.25098039 0.27450980 0.65882353
v -0.02623512 -0.09376235 -16.20042229 0.25098039 0.27450980 0.65882353
v -0.02180992 -0.09020484 -16.20248413 0.25098039 0.27450980 0.65882353
v -0.14458090 -0.01598719 -16.20837212 0.25098039 0.27450980 0.65882353
v -0.11125634 -0.02281567 -16.22048378 0.25098039 0.27450980 0.65882353
v -0.06740715 -0.00926913 -16.25206184 0.25098039 0.27450980 0.65882353
v -0.06499042 -0.01966255 -16.26078606 0.25098039 0.27450980 0.65882353
v -0.07557721 -0.06661996 -16.20172310 0.25098039 0.27450980 0.65882353
v -0.11184109 -0.06215173 -16.18336868 0.25098039 0.27450980 0.65882353
v -0.09625345 -0.05975938 -16.17714882 0.25098039 0.27450980 0.65882353
v -0.09388672 -0.06761442 -16.17558289 0.25098039 0.27450980 0.65882353
v -0.08645885 -0.06891311 -16.17721176 0.25098039 0.27450980 0.65882353
v -0.08157395 -0.07170732 -16.18242645 0.25098039 0.27450980 0.65882353
v -0.02527677 -0.09862005 -16.20357323 0.25098039 0.27450980 0.65882353
v -0.02080166 -0.09497131 -16.20544243 0.25098039 0.27450980 0.65882353
v -0.01894501 -0.09237728 -16.21064949 0.25098039 0.27450980 0.65882353
v -0.02077153 -0.08998571 -16.21421051 0.25098039 0.27450980 0.65882353
v -0.02471344 -0.08881523 -16.21579361 0.25098039 0.27450980 0.65882353
v -0.02921110 -0.10048642 -16.20473862 0.25098039 0.27450980 0.65882353
v -0.03252372 -0.10005821 -16.20701790 0.25098039 0.27450980 0.65882353
v -0.03563784 -0.09574375 -16.20990944 0.25098039 0.27450980 0.65882353
v -0.02994123 -0.10349843 -16.20885849 0.25098039 0.27450980 0.65882353
v -0.02484292 -0.10478461 -16.20997047 0.25098039 0.27450980 0.65882353
v -0.02020662 -0.10031409 -16.22248840 0.25098039 0.27450980 0.65882353
v -0.01894768 -0.09846844 -16.21685028 0.25098039 0.27450980 0.65882353
v -0.01940146 -0.10112117 -16.21755791 0.25098039 0.27450980 0.65882353
v -0.02049169 -0.10343100 -16.22195625 0.25098039 0.27450980 0.65882353
v -0.02144454 -0.10715802 -16.22553062 0.25098039 0.27450980 0.65882353
v -0.02114518 -0.10396567 -16.22693443 0.25098039 0.27450980 0.65882353
v -0.02084421 -0.10228139 -16.21321106 0.25098039 0.27450980 0.65882353
v -0.02228481 -0.10617442 -16.21869850 0.25098039 0.27450980 0.65882353
v -0.02536356 -0.10813493 -16.21672058 0.25098039 0.27450980 0.65882353
v -0.02565973 -0.11158060 -16.22127342 0.25098039 0.27450980 0.65882353
v -0.02283302 -0.11005648 -16.22305489 0.25098039 0.27450980 0.65882353
v -0.02400886 -0.10552967 -16.21303368 0.25098039 0.27450980 0.65882353
v -0.02011982 -0.10097316 -16.21091652 0.25098039 0.27450980 0.65882353
v -0.02268659 -0.10795629 -16.22890663 0.25098039 0.27450980 0.65882353
v -0.02200975 -0.10966340 -16.22724152 0.25098039 0.27450980 0.65882353
v -0.02364175 -0.11182411 -16.22566032 0.25098039 0.27450980 0.65882353
v -0.02518398 -0.11223711 -16.22827339 0.25098039 0.27450980 0.65882353
v -0.02096729 -0.09311014 -16.21758270 0.25098039 0.27450980 0.65882353
v -0.02150311 -0.09849897 -16.22387123 0.25098039 0.27450980 0.65882353
v -0.02377146 -0.10257728 -16.22780228 0.25098039 0.27450980 0.65882353
v -0.02510180 -0.10666533 -16.22959518 0.25098039 0.27450980 0.65882353
v -0.02543017 -0.09833436 -16.22506905 0.25098039 0.27450980 0.65882353
v -0.02666508 -0.10208142 -16.22769737 0.25098039 0.27450980 0.65882353
v -0.02814770 -0.10563173 -16.22888947 0.25098039 0.27450980 0.65882353
v -0.02958290 -0.09917733 -16.22494888 0.25098039 0.27450980 0.65882353
v -0.02972658 -0.10264389 -16.22703934 0.25098039 0.27450980 0.65882353
v -0.02870701 -0.09144258 -16.21727180 0.25098039 0.27450980 0.65882353
v -0.02464743 -0.09029924 -16.21749878 0.25098039 0.27450980 0.65882353
v -0.03011611 -0.10480505 -16.22838974 0.25098039 0.27450980 0.65882353
v -0.02725600 -0.11152479 -16.22877693 0.25098039 0.27450980 0.65882353
v -0.02835545 -0.10770407 -16.21461868 0.25098039 0.27450980 0.65882353
v -0.02881944 -0.11106442 -16.22102356 0.25098039 0.27450980 0.65882353
v -0.03073314 -0.10714617 -16.21483421 0.25098039 0.27450980 0.65882353
v -0.03118958 -0.11080974 -16.22088051 0.25098039 0.27450980 0.65882353
v -0.02813114 -0.11370620 -16.22477722 0.25098039 0.27450980 0.65882353
v -0.02584943 -0.11282875 -16.22408104 0.25098039 0.27450980 0.65882353
v -0.02988227 -0.08947681 -16.21523857 0.25098039 0.27450980 0.65882353
v -0.03436550 -0.09246097 -16.21265602 0.25098039 0.27450980 0.65882353
v -0.03359304 -0.09423910 -16.21448517 0.25098039 0.27450980 0.65882353
v -0.03340080 -0.10111947 -16.22278976 0.25098039 0.27450980 0.65882353
v -0.03516029 -0.09764272 -16.21245384 0.25098039 0.27450980 0.65882353
v -0.03308983 -0.10250445 -16.21105576 0.25098039 0.27450980 0.65882353
v -0.03303488 -0.10649949 -16.21674156 0.25098039 0.27450980 0.65882353
v -0.03448817 -0.10449380 -16.21911621 0.25098039 0.27450980 0.65882353
v -0.03293411 -0.10918513 -16.22154617 0.25098039 0.27450980 0.65882353
v -0.03338344 -0.10710005 -16.22286797 0.25098039 0.27450980 0.65882353
v -0.03252189 -0.10445698 -16.22553825 0.25098039 0.27450980 0.65882353
v -0.03183788 -0.11032631 -16.22540283 0.25098039 0.27450980 0.65882353
v -0.03001477 -0.11260384 -16.22509766 0.25098039 0.27450980 0.65882353
v -0.02971835 -0.10916863 -16.22825623 0.25098039 0.27450980 0.65882353
v -0.03269058 -0.10855745 -16.22526360 0.25098039 0.27450980 0.65882353
v -0.03096834 -0.10702799 -16.22718811 0.25098039 0.27450980 0.65882353
v -0.05413254 -0.09720013 -16.19825554 0.25098039 0.27450980 0.65882353
v -0.05956626 -0.09991781 -16.19621277 0.25098039 0.27450980 0.65882353
v -0.06025067 -0.09501356 -16.19488716 0.25098039 0.27450980 0.65882353
v -0.05559061 -0.09314524 -16.19685555 0.25098039 0.27450980 0.65882353
v -0.04550888 -0.09638648 -16.18773460 0.25098039 0.27450980 0.65882353
v -0.04682769 -0.09587842 -16.19348335 0.25098039 0.27450980 0.65882353
v -0.04752359 -0.09117424 -16.19153404 0.25098039 0.27450980 0.65882353
v -0.04735777 -0.09160534 -16.18497658 0.25098039 0.27450980 0.65882353
v -0.04913412 -0.09826679 -16.18222809 0.25098039 0.27450980 0.65882353
v -0.05130684 -0.09318535 -16.17967606 0.25098039 0.27450980 0.65882353
v -0.04889907 -0.08635180 -16.18415451 0.25098039 0.27450980 0.65882353
v -0.04964182 -0.08594558 -16.19120598 0.25098039 0.27450980 0.65882353
v -0.05939308 -0.06735077 -16.19324875 0.25098039 0.27450980 0.65882353
v -0.05878268 -0.06695016 -16.18611145 0.25098039 0.27450980 0.65882353
v -0.07564387 -0.07479477 -16.19492340 0.25098039 0.27450980 0.65882353
v -0.07546020 -0.07594258 -16.19103050 0.25098039 0.27450980 0.65882353
v -0.05041459 -0.09627612 -16.19707870 0.25098039 0.27450980 0.65882353
v -0.05126671 -0.09196822 -16.19530678 0.25098039 0.27450980 0.65882353
v -0.06752980 -0.09401753 -16.18876839 0.25098039 0.27450980 0.65882353
v -0.06607971 -0.09290809 -16.19388771 0.25098039 0.27450980 0.65882353
v -0.06387973 -0.09730092 -16.19270897 0.25098039 0.27450980 0.65882353
v -0.06465182 -0.09865338 -16.18734932 0.25098039 0.27450980 0.65882353
v -0.06580643 -0.06918903 -16.19911003 0.25098039 0.27450980 0.65882353
v -0.07160422 -0.07145844 -16.19758224 0.25098039 0.27450980 0.65882353
v -0.06222220 -0.06857421 -16.19730186 0.25098039 0.27450980 0.65882353
v -0.06590404 -0.09383252 -16.18235779 0.25098039 0.27450980 0.65882353
v -0.06105378 -0.09179223 -16.17783928 0.25098039 0.27450980 0.65882353
v -0.06956007 -0.07327154 -16.17863655 0.25098039 0.27450980 0.65882353
v -0.07369071 -0.07629981 -16.18264389 0.25098039 0.27450980 0.65882353
v -0.05259754 -0.08707137 -16.19585037 0.25098039 0.27450980 0.65882353
v -0.06200838 -0.09106982 -16.19712830 0.25098039 0.27450980 0.65882353
v -0.05733117 -0.08897573 -16.19830322 0.25098039 0.27450980 0.65882353
v -0.05402832 -0.08814228 -16.17916107 0.25098039 0.27450980 0.65882353
v -0.05786538 -0.09739721 -16.17874718 0.25098039 0.27450980 0.65882353
v -0.05613096 -0.11524870 -16.18786812 0.25098039 0.27450980 0.65882353
v -0.06047802 -0.10427156 -16.18362045 0.25098039 0.27450980 0.65882353
v -0.06269477 -0.10401147 -16.18827057 0.25098039 0.27450980 0.65882353
v -0.05915925 -0.11572818 -16.19183540 0.25098039 0.27450980 0.65882353
v -0.06270938 -0.09910575 -16.18212509 0.25098039 0.27450980 0.65882353
v -0.05547968 -0.10212002 -16.18103218 0.25098039 0.27450980 0.65882353
v -0.05220468 -0.11135262 -16.20312500 0.25098039 0.27450980 0.65882353
v -0.05757371 -0.11389993 -16.20078087 0.25098039 0.27450980 0.65882353
v -0.04775679 -0.11022408 -16.20250130 0.25098039 0.27450980 0.65882353
v -0.06316477 -0.06900234 -16.17988586 0.25098039 0.27450980 0.65882353
v -0.04271707 -0.10871886 -16.19345665 0.25098039 0.27450980 0.65882353
v -0.04459359 -0.10902187 -16.19977951 0.25098039 0.27450980 0.65882353
v -0.06286195 -0.10229788 -16.19304848 0.25098039 0.27450980 0.65882353
v -0.05984318 -0.11558504 -16.19663811 0.25098039 0.27450980 0.65882353
v -0.05202600 -0.11379680 -16.18620682 0.25098039 0.27450980 0.65882353
v -0.04600613 -0.10972720 -16.18749809 0.25098039 0.27450980 0.65882353
v -0.05051588 -0.11898859 -16.18898964 0.25098039 0.27450980 0.65882353
v -0.04494151 -0.11602016 -16.19067574 0.25098039 0.27450980 0.65882353
v -0.04189827 -0.11449681 -16.19650459 0.25098039 0.27450980 0.65882353
v -0.04427955 -0.11361237 -16.20180702 0.25098039 0.27450980 0.65882353
v -0.04759161 -0.11354473 -16.20390701 0.25098039 0.27450980 0.65882353
v -0.05445389 -0.12031707 -16.19051933 0.25098039 0.27450980 0.65882353
v -0.05765262 -0.12042248 -16.19399643 0.25098039 0.27450980 0.65882353
v -0.05875297 -0.11794336 -16.19815254 0.25098039 0.27450980 0.65882353
v -0.05489060 -0.12588194 -16.19528389 0.25098039 0.27450980 0.65882353
v -0.05046842 -0.12645730 -16.19430733 0.25098039 0.27450980 0.65882353
v -0.04386364 -0.13033485 -16.21114159 0.25098039 0.27450980 0.65882353
v -0.04303828 -0.12588310 -16.20708847 0.25098039 0.27450980 0.65882353
v -0.04330231 -0.12782000 -16.20527649 0.25098039 0.27450980 0.65882353
v -0.04409364 -0.13197766 -16.20882988 0.25098039 0.27450980 0.65882353
v -0.04175933 -0.12275980 -16.20165825 0.25098039 0.27450980 0.65882353
v -0.04272996 -0.12518002 -16.20142174 0.25098039 0.27450980 0.65882353
v -0.04528734 -0.12604085 -16.19761848 0.25098039 0.27450980 0.65882353
v -0.04617304 -0.13025808 -16.20213318 0.25098039 0.27450980 0.65882353
v -0.05026586 -0.13103135 -16.19973946 0.25098039 0.27450980 0.65882353
v -0.05038996 -0.13577999 -16.20307350 0.25098039 0.27450980 0.65882353
v -0.04627073 -0.13512267 -16.20549202 0.25098039 0.27450980 0.65882353
v -0.04858071 -0.12809223 -16.19690514 0.25098039 0.27450980 0.65882353
v -0.04500349 -0.13515131 -16.21045113 0.25098039 0.27450980 0.65882353
v -0.04594012 -0.13537909 -16.21286964 0.25098039 0.27450980 0.65882353
v -0.04437076 -0.12383020 -16.19532394 0.25098039 0.27450980 0.65882353
v -0.04353543 -0.11736879 -16.20373917 0.25098039 0.27450980 0.65882353
v -0.04444486 -0.12441538 -16.20941925 0.25098039 0.27450980 0.65882353
v -0.04607664 -0.12957817 -16.21340561 0.25098039 0.27450980 0.65882353
v -0.04873994 -0.13518471 -16.21410942 0.25098039 0.27450980 0.65882353
v -0.04823124 -0.12403780 -16.21130753 0.25098039 0.27450980 0.65882353
v -0.04923013 -0.12931868 -16.21423721 0.25098039 0.27450980 0.65882353
v -0.05123191 -0.13399822 -16.21406555 0.25098039 0.27450980 0.65882353
v -0.05296975 -0.12428412 -16.21175957 0.25098039 0.27450980 0.65882353
v -0.05343492 -0.12970676 -16.21387100 0.25098039 0.27450980 0.65882353
v -0.05221921 -0.11564885 -16.20543098 0.25098039 0.27450980 0.65882353
v -0.04749554 -0.11554863 -16.20574570 0.25098039 0.27450980 0.65882353
v -0.05310018 -0.13244943 -16.21378326 0.25098039 0.27450980 0.65882353
v -0.04804777 -0.13902937 -16.21029282 0.25098039 0.27450980 0.65882353
v -0.05087790 -0.13824913 -16.21212196 0.25098039 0.27450980 0.65882353
v -0.04719444 -0.13794732 -16.20878983 0.25098039 0.27450980 0.65882353
v -0.05236411 -0.13105157 -16.19931412 0.25098039 0.27450980 0.65882353
v -0.05259694 -0.13575630 -16.20382690 0.25098039 0.27450980 0.65882353
v -0.05511922 -0.13088353 -16.20015144 0.25098039 0.27450980 0.65882353
v -0.05474135 -0.13581872 -16.20514679 0.25098039 0.27450980 0.65882353
v -0.05163471 -0.13897385 -16.20722771 0.25098039 0.27450980 0.65882353
v -0.04999669 -0.13871975 -16.20670319 0.25098039 0.27450980 0.65882353
v -0.05194578 -0.11405027 -16.20359993 0.25098039 0.27450980 0.65882353
v -0.05679376 -0.11590548 -16.20125961 0.25098039 0.27450980 0.65882353
v -0.05699685 -0.11720651 -16.20285606 0.25098039 0.27450980 0.65882353
v -0.05710284 -0.12600487 -16.20891953 0.25098039 0.27450980 0.65882353
v -0.05896437 -0.11983982 -16.19945908 0.25098039 0.27450980 0.65882353
v -0.05759951 -0.12418395 -16.19702339 0.25098039 0.27450980 0.65882353
v -0.05737515 -0.12976483 -16.20148849 0.25098039 0.27450980 0.65882353
v -0.05854683 -0.12826419 -16.20501518 0.25098039 0.27450980 0.65882353
v -0.05688220 -0.13533577 -16.20571899 0.25098039 0.27450980 0.65882353
v -0.05786571 -0.13262495 -16.20720100 0.25098039 0.27450980 0.65882353
v -0.05662912 -0.13058595 -16.21144485 0.25098039 0.27450980 0.65882353
v -0.05530742 -0.13810334 -16.20915794 0.25098039 0.27450980 0.65882353
v -0.05323263 -0.13899544 -16.20818520 0.25098039 0.27450980 0.65882353
v -0.05264583 -0.13681233 -16.21250343 0.25098039 0.27450980 0.65882353
v -0.05664611 -0.13544276 -16.20962906 0.25098039 0.27450980 0.65882353
v -0.05471548 -0.13425598 -16.21249962 0.25098039 0.27450980 0.65882353
v -0.07805033 -0.09841519 -16.18814659 0.25098039 0.27450980 0.65882353
v -0.08356121 -0.09906467 -16.19019890 0.25098039 0.27450980 0.65882353
v -0.08439888 -0.09547903 -16.18967819 0.25098039 0.27450980 0.65882353
v -0.07900734 -0.09481677 -16.18757629 0.25098039 0.27450980 0.65882353
v -0.07848786 -0.10011487 -16.17562866 0.25098039 0.27450980 0.65882353
v -0.07554612 -0.09971906 -16.17955399 0.25098039 0.27450980 0.65882353
v -0.07641175 -0.09520839 -16.17862320 0.25098039 0.27450980 0.65882353
v -0.07954398 -0.09434588 -16.17415810 0.25098039 0.27450980 0.65882353
v -0.08338374 -0.10264140 -16.17456055 0.25098039 0.27450980 0.65882353
v -0.08532436 -0.09517743 -16.17214394 0.25098039 0.27450980 0.65882353
v -0.08046550 -0.08860546 -16.17326546 0.25098039 0.27450980 0.65882353
v -0.07722761 -0.09057773 -16.17826462 0.25098039 0.27450980 0.65882353
v -0.08095239 -0.07582573 -16.18121719 0.25098039 0.27450980 0.65882353
v -0.08439475 -0.07498333 -16.17528915 0.25098039 0.27450980 0.65882353
v -0.07579449 -0.09894563 -16.18415070 0.25098039 0.27450980 0.65882353
v -0.07654329 -0.09521013 -16.18360138 0.25098039 0.27450980 0.65882353
v -0.09382305 -0.09418112 -16.18768883 0.25098039 0.27450980 0.65882353
v -0.09003612 -0.09341279 -16.19054413 0.25098039 0.27450980 0.65882353
v -0.08958176 -0.09692793 -16.18906212 0.25098039 0.27450980 0.65882353
v -0.09267401 -0.09790128 -16.18630791 0.25098039 0.27450980 0.65882353
v -0.08454919 -0.07526965 -16.19194794 0.25098039 0.27450980 0.65882353
v -0.09065510 -0.07502624 -16.19272614 0.25098039 0.27450980 0.65882353
v -0.08119552 -0.07657809 -16.18758774 0.25098039 0.27450980 0.65882353
v -0.09538084 -0.09420027 -16.18133926 0.25098039 0.27450980 0.65882353
v -0.09336735 -0.09182046 -16.17454529 0.25098039 0.27450980 0.65882353
v -0.09822998 -0.07776943 -16.17758942 0.25098039 0.27450980 0.65882353
v -0.09959418 -0.07835501 -16.18385696 0.25098039 0.27450980 0.65882353
v -0.07705662 -0.09149313 -16.18358231 0.25098039 0.27450980 0.65882353
v -0.08488664 -0.09196477 -16.19104195 0.25098039 0.27450980 0.65882353
v -0.07949455 -0.09173089 -16.18865013 0.25098039 0.27450980 0.65882353
v -0.08668920 -0.08913928 -16.17212868 0.25098039 0.27450980 0.65882353
v -0.09118168 -0.09772269 -16.17526627 0.25098039 0.27450980 0.65882353
v -0.08815077 -0.11869003 -16.18423271 0.25098039 0.27450980 0.65882353
v -0.09275644 -0.10301501 -16.18118286 0.25098039 0.27450980 0.65882353
v -0.09169636 -0.10186704 -16.18677711 0.25098039 0.27450980 0.65882353
v -0.08872285 -0.11765233 -16.18850327 0.25098039 0.27450980 0.65882353
v -0.09394202 -0.09901690 -16.18104935 0.25098039 0.27450980 0.65882353
v -0.08961794 -0.10307547 -16.17634201 0.25098039 0.27450980 0.65882353
v -0.07583107 -0.11320901 -16.19270325 0.25098039 0.27450980 0.65882353
v -0.08140093 -0.11358429 -16.19380569 0.25098039 0.27450980 0.65882353
v -0.07346652 -0.11272705 -16.18895721 0.25098039 0.27450980 0.65882353
v -0.09138637 -0.07545257 -16.17314720 0.25098039 0.27450980 0.65882353
v -0.09724564 -0.07710074 -16.19022560 0.25098039 0.27450980 0.65882353
v -0.07389547 -0.11530158 -16.18182373 0.25098039 0.27450980 0.65882353
v -0.07263456 -0.11369514 -16.18574524 0.25098039 0.27450980 0.65882353
v -0.08872011 -0.10031443 -16.18946457 0.25098039 0.27450980 0.65882353
v -0.08656341 -0.11568455 -16.19217300 0.25098039 0.27450980 0.65882353
v -0.08511010 -0.11803353 -16.18041420 0.25098039 0.27450980 0.65882353
v -0.07919377 -0.11610922 -16.17877388 0.25098039 0.27450980 0.65882353
v -0.08433016 -0.12362143 -16.18342590 0.25098039 0.27450980 0.65882353
v -0.07829638 -0.12222764 -16.18207932 0.25098039 0.27450980 0.65882353
v -0.07316935 -0.12118024 -16.18496132 0.25098039 0.27450980 0.65882353
v -0.07215147 -0.11870110 -16.18861389 0.25098039 0.27450980 0.65882353
v -0.07302685 -0.11710291 -16.19149208 0.25098039 0.27450980 0.65882353
v -0.08731565 -0.12317789 -16.18745613 0.25098039 0.27450980 0.65882353
v -0.08758010 -0.12137441 -16.19102097 0.25098039 0.27450980 0.65882353
v -0.08559905 -0.11733817 -16.19274902 0.25098039 0.27450980 0.65882353
v -0.08722034 -0.12582567 -16.19118309 0.25098039 0.27450980 0.65882353
v -0.08338639 -0.12900208 -16.18854713 0.25098039 0.27450980 0.65882353
v -0.07270753 -0.13402435 -16.20077896 0.25098039 0.27450980 0.65882353
v -0.07275896 -0.13006052 -16.19634056 0.25098039 0.27450980 0.65882353
v -0.07356048 -0.13091950 -16.19581604 0.25098039 0.27450980 0.65882353
v -0.07348090 -0.13527478 -16.19973564 0.25098039 0.27450980 0.65882353
v -0.07337567 -0.12730350 -16.19002533 0.25098039 0.27450980 0.65882353
v -0.07424015 -0.12888934 -16.19109344 0.25098039 0.27450980 0.65882353
v -0.07767087 -0.12955154 -16.18918991 0.25098039 0.27450980 0.65882353
v -0.07770568 -0.13377532 -16.19423866 0.25098039 0.27450980 0.65882353
v -0.08346635 -0.13218336 -16.19502068 0.25098039 0.27450980 0.65882353
v -0.08239070 -0.13535517 -16.19893837 0.25098039 0.27450980 0.65882353
v -0.07737060 -0.13737950 -16.19830894 0.25098039 0.27450980 0.65882353
v -0.08209780 -0.12993780 -16.19008064 0.25098039 0.27450980 0.65882353
v -0.07440796 -0.13758840 -16.20180893 0.25098039 0.27450980 0.65882353
v -0.07271232 -0.13776968 -16.20318031 0.25098039 0.27450980 0.65882353
v -0.07767618 -0.12823761 -16.18688011 0.25098039 0.27450980 0.65882353
v -0.07120600 -0.12330163 -16.19205284 0.25098039 0.27450980 0.65882353
v -0.07142724 -0.12811419 -16.19813156 0.25098039 0.27450980 0.65882353
v -0.07109067 -0.13192406 -16.20295715 0.25098039 0.27450980 0.65882353
v -0.07303727 -0.13500643 -16.20575333 0.25098039 0.27450980 0.65882353
v -0.07279354 -0.12561719 -16.20059586 0.25098039 0.27450980 0.65882353
v -0.07278915 -0.12963164 -16.20441437 0.25098039 0.27450980 0.65882353
v -0.07443070 -0.13239619 -16.20695686 0.25098039 0.27450980 0.65882353
v -0.07526785 -0.12412427 -16.20217705 0.25098039 0.27450980 0.65882353
v -0.07544267 -0.12789255 -16.20538712 0.25098039 0.27450980 0.65882353
v -0.07559967 -0.11754349 -16.19515419 0.25098039 0.27450980 0.65882353
v -0.07258987 -0.11993964 -16.19384956 0.25098039 0.27450980 0.65882353
v -0.07602789 -0.13065046 -16.20695686 0.25098039 0.27450980 0.65882353
v -0.07716116 -0.13966581 -16.20344925 0.25098039 0.27450980 0.65882353
v -0.07828669 -0.13700075 -16.20673943 0.25098039 0.27450980 0.65882353
v -0.07725763 -0.13857380 -16.20171356 0.25098039 0.27450980 0.65882353
v -0.08512829 -0.13115591 -16.19509315 0.25098039 0.27450980 0.65882353
v -0.08431855 -0.13515064 -16.20041275 0.25098039 0.27450980 0.65882353
v -0.08657329 -0.12924321 -16.19679260 0.25098039 0.27450980 0.65882353
v -0.08570682 -0.13331759 -16.20193863 0.25098039 0.27450980 0.65882353
v -0.08210741 -0.13810989 -16.20271873 0.25098039 0.27450980 0.65882353
v -0.08126119 -0.13789457 -16.20171165 0.25098039 0.27450980 0.65882353
v -0.07619885 -0.11561430 -16.19334793 0.25098039 0.27450980 0.65882353
v -0.08124290 -0.11559993 -16.19411469 0.25098039 0.27450980 0.65882353
v -0.08037902 -0.11698382 -16.19576836 0.25098039 0.27450980 0.65882353
v -0.07981683 -0.12374720 -16.20337105 0.25098039 0.27450980 0.65882353
v -0.08479522 -0.11843100 -16.19478226 0.25098039 0.27450980 0.65882353
v -0.08710484 -0.12371272 -16.19442749 0.25098039 0.27450980 0.65882353
v -0.08611721 -0.12707038 -16.19930840 0.25098039 0.27450980 0.65882353
v -0.08397613 -0.12531954 -16.20202827 0.25098039 0.27450980 0.65882353
v -0.08536077 -0.13103756 -16.20355988 0.25098039 0.27450980 0.65882353
v -0.08361836 -0.12882768 -16.20424271 0.25098039 0.27450980 0.65882353
v -0.07943940 -0.12733442 -16.20639229 0.25098039 0.27450980 0.65882353
v -0.08274639 -0.13355678 -16.20571709 0.25098039 0.27450980 0.65882353
v -0.08312359 -0.13631788 -16.20463753 0.25098039 0.27450980 0.65882353
v -0.07862274 -0.13385783 -16.20771790 0.25098039 0.27450980 0.65882353
v -0.08209933 -0.13116752 -16.20627403 0.25098039 0.27450980 0.65882353
v -0.07894516 -0.13125005 -16.20770645 0.25098039 0.27450980 0.65882353
v -0.09487566 -0.07576904 -16.19252586 0.25098039 0.27450980 0.65882353
v -0.11383384 -0.09419245 -16.20048904 0.25098039 0.27450980 0.65882353
v -0.11731122 -0.09332253 -16.20238304 0.25098039 0.27450980 0.65882353
v -0.11797914 -0.09011278 -16.20077705 0.25098039 0.27450980 0.65882353
v -0.11415473 -0.09002755 -16.19939995 0.25098039 0.27450980 0.65882353
v -0.11529814 -0.09698711 -16.19000816 0.25098039 0.27450980 0.65882353
v -0.11266568 -0.09661624 -16.19359207 0.25098039 0.27450980 0.65882353
v -0.11229555 -0.09227683 -16.19152641 0.25098039 0.27450980 0.65882353
v -0.11485163 -0.09257033 -16.18798828 0.25098039 0.27450980 0.65882353
v -0.12006225 -0.09705701 -16.18899918 0.25098039 0.27450980 0.65882353
v -0.11996014 -0.09268205 -16.18723679 0.25098039 0.27450980 0.65882353
v -0.11434914 -0.08919396 -16.18651581 0.25098039 0.27450980 0.65882353
v -0.11166117 -0.08871526 -16.19040489 0.25098039 0.27450980 0.65882353
v -0.10958695 -0.07319622 -16.18856239 0.25098039 0.27450980 0.65882353
v -0.11302032 -0.07153922 -16.18437195 0.25098039 0.27450980 0.65882353
v -0.12733302 -0.06718792 -16.19594955 0.25098039 0.27450980 0.65882353
v -0.12306490 -0.06562124 -16.20062065 0.25098039 0.27450980 0.65882353
v -0.12329145 -0.07442334 -16.19936562 0.25098039 0.27450980 0.65882353
v -0.12675978 -0.07387741 -16.19536209 0.25098039 0.27450980 0.65882353
v -0.11239962 -0.09548863 -16.19729042 0.25098039 0.27450980 0.65882353
v -0.11188038 -0.09121032 -16.19628716 0.25098039 0.27450980 0.65882353
v -0.12667868 -0.08638068 -16.19711113 0.25098039 0.27450980 0.65882353
v -0.12300075 -0.08650790 -16.20002937 0.25098039 0.27450980 0.65882353
v -0.12198581 -0.08958095 -16.20109558 0.25098039 0.27450980 0.65882353
v -0.12605265 -0.09025122 -16.19911194 0.25098039 0.27450980 0.65882353
v -0.11747049 -0.06705028 -16.20175743 0.25098039 0.27450980 0.65882353
v -0.11264601 -0.06844098 -16.20022774 0.25098039 0.27450980 0.65882353
v -0.11284985 -0.07279143 -16.20053864 0.25098039 0.27450980 0.65882353
v -0.11841035 -0.07523882 -16.20085144 0.25098039 0.27450980 0.65882353
v -0.10926371 -0.07399151 -16.19633865 0.25098039 0.27450980 0.65882353
v -0.12770922 -0.08716378 -16.19329643 0.25098039 0.27450980 0.65882353
v -0.12559506 -0.08839025 -16.18808937 0.25098039 0.27450980 0.65882353
v -0.12687822 -0.07215180 -16.18541908 0.25098039 0.27450980 0.65882353
v -0.12791955 -0.07215293 -16.19016647 0.25098039 0.27450980 0.65882353
v -0.11127533 -0.08863948 -16.19491196 0.25098039 0.27450980 0.65882353
v -0.11862541 -0.08720939 -16.20046997 0.25098039 0.27450980 0.65882353
v -0.11432193 -0.08790946 -16.19896317 0.25098039 0.27450980 0.65882353
v -0.11990478 -0.08913504 -16.18524933 0.25098039 0.27450980 0.65882353
v -0.12534422 -0.09240727 -16.19004250 0.25098039 0.27450980 0.65882353
v -0.12724920 -0.10339658 -16.20081139 0.25098039 0.27450980 0.65882353
v -0.12753572 -0.09466799 -16.19675827 0.25098039 0.27450980 0.65882353
v -0.12561159 -0.09363320 -16.20104980 0.25098039 0.27450980 0.65882353
v -0.12619650 -0.10245027 -16.20346260 0.25098039 0.27450980 0.65882353
v -0.12739854 -0.09111150 -16.19495010 0.25098039 0.27450980 0.65882353
v -0.12547213 -0.09656306 -16.19193077 0.25098039 0.27450980 0.65882353
v -0.11415472 -0.10241348 -16.20425034 0.25098039 0.27450980 0.65882353
v -0.11889531 -0.10110337 -16.20591164 0.25098039 0.27450980 0.65882353
v -0.11271802 -0.10352484 -16.20157623 0.25098039 0.27450980 0.65882353
v -0.11967159 -0.07167149 -16.18217278 0.25098039 0.27450980 0.65882353
v -0.11546111 -0.10604770 -16.19511414 0.25098039 0.27450980 0.65882353
v -0.11284402 -0.10533596 -16.19853401 0.25098039 0.27450980 0.65882353
v -0.12135848 -0.09319230 -16.20267677 0.25098039 0.27450980 0.65882353
v -0.12325500 -0.10131730 -16.20538521 0.25098039 0.27450980 0.65882353
v -0.12583429 -0.10488701 -16.19699669 0.25098039 0.27450980 0.65882353
v -0.12081338 -0.10579818 -16.19366264 0.25098039 0.27450980 0.65882353
v -0.12524337 -0.10910582 -16.19964981 0.25098039 0.27450980 0.65882353
v -0.12005602 -0.10968237 -16.19634438 0.25098039 0.27450980 0.65882353
v -0.11449082 -0.10958353 -16.19841194 0.25098039 0.27450980 0.65882353
v -0.11274418 -0.10750772 -16.20098877 0.25098039 0.27450980 0.65882353
v -0.11264512 -0.10573455 -16.20363617 0.25098039 0.27450980 0.65882353
v -0.12678610 -0.10712783 -16.20327187 0.25098039 0.27450980 0.65882353
v -0.12580979 -0.10551744 -16.20567131 0.25098039 0.27450980 0.65882353
v -0.12308503 -0.10345696 -16.20718002 0.25098039 0.27450980 0.65882353
v -0.12617245 -0.11065777 -16.20601273 0.25098039 0.27450980 0.65882353
v -0.12392788 -0.11411759 -16.20362473 0.25098039 0.27450980 0.65882353
v -0.11369133 -0.11879162 -16.21123505 0.25098039 0.27450980 0.65882353
v -0.11353493 -0.11597630 -16.20812798 0.25098039 0.27450980 0.65882353
v -0.11435378 -0.11667573 -16.20750618 0.25098039 0.27450980 0.65882353
v -0.11389647 -0.11963473 -16.21044731 0.25098039 0.27450980 0.65882353
v -0.11437091 -0.11358646 -16.20322418 0.25098039 0.27450980 0.65882353
v -0.11540015 -0.11481012 -16.20384789 0.25098039 0.27450980 0.65882353
v -0.11864925 -0.11450210 -16.20239639 0.25098039 0.27450980 0.65882353
v -0.11815049 -0.11819892 -16.20627022 0.25098039 0.27450980 0.65882353
v -0.12314726 -0.11764999 -16.20821762 0.25098039 0.27450980 0.65882353
v -0.12218209 -0.12064816 -16.21108246 0.25098039 0.27450980 0.65882353
v -0.11792496 -0.12104174 -16.20889854 0.25098039 0.27450980 0.65882353
v -0.12244295 -0.11552770 -16.20411110 0.25098039 0.27450980 0.65882353
v -0.11453214 -0.12200958 -16.21181870 0.25098039 0.27450980 0.65882353
v -0.11392906 -0.12238249 -16.21310616 0.25098039 0.27450980 0.65882353
v -0.11885332 -0.11360393 -16.20058823 0.25098039 0.27450980 0.65882353
v -0.11233082 -0.11031645 -16.20475388 0.25098039 0.27450980 0.65882353
v -0.11235372 -0.11493757 -16.21009827 0.25098039 0.27450980 0.65882353
v -0.11286153 -0.11877523 -16.21349716 0.25098039 0.27450980 0.65882353
v -0.11451780 -0.12174469 -16.21533012 0.25098039 0.27450980 0.65882353
v -0.11270858 -0.11258166 -16.21138000 0.25098039 0.27450980 0.65882353
v -0.11307899 -0.11717469 -16.21535873 0.25098039 0.27450980 0.65882353
v -0.11494811 -0.11986904 -16.21708870 0.25098039 0.27450980 0.65882353
v -0.11450044 -0.11026274 -16.21317482 0.25098039 0.27450980 0.65882353
v -0.11481390 -0.11519909 -16.21631241 0.25098039 0.27450980 0.65882353
v -0.11488626 -0.10524828 -16.20841789 0.25098039 0.27450980 0.65882353
v -0.11286350 -0.10765443 -16.20672226 0.25098039 0.27450980 0.65882353
v -0.11578259 -0.11811481 -16.21719551 0.25098039 0.27450980 0.65882353
v -0.11745933 -0.12395926 -16.21317863 0.25098039 0.27450980 0.65882353
v -0.11766383 -0.12265484 -16.21596909 0.25098039 0.27450980 0.65882353
v -0.11777884 -0.12354293 -16.21172905 0.25098039 0.27450980 0.65882353
v -0.12430922 -0.11692946 -16.20882797 0.25098039 0.27450980 0.65882353
v -0.12321588 -0.12046583 -16.21246338 0.25098039 0.27450980 0.65882353
v -0.12529215 -0.11516251 -16.21047020 0.25098039 0.27450980 0.65882353
v -0.12344521 -0.11919269 -16.21431541 0.25098039 0.27450980 0.65882353
v -0.12104415 -0.12300587 -16.21392441 0.25098039 0.27450980 0.65882353
v -0.12042800 -0.12272231 -16.21204567 0.25098039 0.27450980 0.65882353
v -0.11471193 -0.10400721 -16.20662689 0.25098039 0.27450980 0.65882353
v -0.11872929 -0.10290685 -16.20730782 0.25098039 0.27450980 0.65882353
v -0.11900037 -0.10441591 -16.20919418 0.25098039 0.27450980 0.65882353
v -0.11821266 -0.10926852 -16.21407890 0.25098039 0.27450980 0.65882353
v -0.12322713 -0.10532471 -16.20895958 0.25098039 0.27450980 0.65882353
v -0.12561825 -0.10795301 -16.20757675 0.25098039 0.27450980 0.65882353
v -0.12457591 -0.11298838 -16.21218681 0.25098039 0.27450980 0.65882353
v -0.12242056 -0.11081401 -16.21379852 0.25098039 0.27450980 0.65882353
v -0.12265372 -0.11774898 -16.21592903 0.25098039 0.27450980 0.65882353
v -0.12084433 -0.11544381 -16.21699715 0.25098039 0.27450980 0.65882353
v -0.11779379 -0.11425927 -16.21726418 0.25098039 0.27450980 0.65882353
v -0.12001158 -0.12033129 -16.21705627 0.25098039 0.27450980 0.65882353
v -0.12067617 -0.12192276 -16.21606827 0.25098039 0.27450980 0.65882353
v -0.11772864 -0.12071542 -16.21721840 0.25098039 0.27450980 0.65882353
v -0.11929779 -0.11849484 -16.21768379 0.25098039 0.27450980 0.65882353
v -0.11766637 -0.11822568 -16.21766090 0.25098039 0.27450980 0.65882353
v -0.12789991 -0.06865178 -16.19190407 0.25098039 0.27450980 0.65882353
v -0.05917382 -0.03357531 -16.26325607 0.25098039 0.27450980 0.65882353
v -0.06068447 -0.03738374 -16.25918007 0.25098039 0.27450980 0.65882353
v -0.07420592 -0.04435257 -16.26565933 0.25098039 0.27450980 0.65882353
v -0.06933033 -0.04502487 -16.26052856 0.25098039 0.27450980 0.65882353
v -0.07567793 -0.04134043 -16.27144432 0.25098039 0.27450980 0.65882353
v -0.07057843 -0.03271178 -16.27544785 0.25098039 0.27450980 0.65882353
v -0.07466730 -0.03632375 -16.27418137 0.25098039 0.27450980 0.65882353
v -0.06443843 -0.04229650 -16.25830841 0.25098039 0.27450980 0.65882353
v -0.06016001 -0.03035617 -16.26813698 0.25098039 0.27450980 0.65882353
v -0.06494097 -0.02947052 -16.27339554 0.25098039 0.27450980 0.65882353
v -0.05508755 -0.03590146 -16.27185631 0.25098039 0.27450980 0.65882353
v -0.06017724 -0.03554715 -16.27766800 0.25098039 0.27450980 0.65882353
v -0.06574906 -0.03890882 -16.28029633 0.25098039 0.27450980 0.65882353
v -0.07100052 -0.04249454 -16.27798843 0.25098039 0.27450980 0.65882353
v -0.07296313 -0.04580367 -16.27493286 0.25098039 0.27450980 0.65882353
v -0.05603069 -0.03907142 -16.26551819 0.25098039 0.27450980 0.65882353
v -0.05821720 -0.04267940 -16.26163101 0.25098039 0.27450980 0.65882353
v -0.06343821 -0.04656664 -16.26060677 0.25098039 0.27450980 0.65882353
v -0.05308464 -0.04659528 -16.26696587 0.25098039 0.27450980 0.65882353
v -0.05054085 -0.05262740 -16.27482033 0.25098039 0.27450980 0.65882353
v -0.05709827 -0.06502474 -16.28730583 0.25098039 0.27450980 0.65882353
v -0.06053656 -0.05951528 -16.28538895 0.25098039 0.27450980 0.65882353
v -0.05764964 -0.05895597 -16.28534508 0.25098039 0.27450980 0.65882353
v -0.05472519 -0.06369218 -16.28768539 0.25098039 0.27450980 0.65882353
v -0.06041679 -0.05417103 -16.28407097 0.25098039 0.27450980 0.65882353
v -0.05824329 -0.05522475 -16.28357887 0.25098039 0.27450980 0.65882353
v -0.05451557 -0.05325243 -16.28050041 0.25098039 0.27450980 0.65882353
v -0.05186820 -0.05749252 -16.28289604 0.25098039 0.27450980 0.65882353
v -0.05119559 -0.05441545 -16.27691650 0.25098039 0.27450980 0.65882353
v -0.04936115 -0.05794878 -16.27717400 0.25098039 0.27450980 0.65882353
v -0.04936691 -0.06193636 -16.28473091 0.25098039 0.27450980 0.65882353
v -0.05129948 -0.06583305 -16.28854561 0.25098039 0.27450980 0.65882353
v -0.04743125 -0.06605593 -16.28613281 0.25098039 0.27450980 0.65882353
v -0.05296578 -0.06842074 -16.28766441 0.25098039 0.27450980 0.65882353
v -0.05363593 -0.05115004 -16.28151131 0.25098039 0.27450980 0.65882353
v -0.06674500 -0.05110033 -16.28202629 0.25098039 0.27450980 0.65882353
v -0.06406093 -0.05956773 -16.28354645 0.25098039 0.27450980 0.65882353
v -0.05985042 -0.06625877 -16.28489113 0.25098039 0.27450980 0.65882353
v -0.05466101 -0.06992868 -16.28527069 0.25098039 0.27450980 0.65882353
v -0.06630531 -0.06067969 -16.27968597 0.25098039 0.27450980 0.65882353
v -0.06155393 -0.06652243 -16.28061676 0.25098039 0.27450980 0.65882353
v -0.05652353 -0.06963394 -16.28039932 0.25098039 0.27450980 0.65882353
v -0.06601393 -0.06152408 -16.27490997 0.25098039 0.27450980 0.65882353
v -0.06108126 -0.06640594 -16.27661514 0.25098039 0.27450980 0.65882353
v -0.07105519 -0.05049422 -16.27065277 0.25098039 0.27450980 0.65882353
v -0.07102925 -0.05041993 -16.27707863 0.25098039 0.27450980 0.65882353
v -0.05736814 -0.06855301 -16.27778816 0.25098039 0.27450980 0.65882353
v -0.04710943 -0.06871200 -16.28561401 0.25098039 0.27450980 0.65882353
v -0.04912423 -0.07040323 -16.28262520 0.25098039 0.27450980 0.65882353
v -0.04880051 -0.05767471 -16.27361488 0.25098039 0.27450980 0.65882353
v -0.04636230 -0.06181818 -16.27914619 0.25098039 0.27450980 0.65882353
v -0.04661283 -0.06280691 -16.27601624 0.25098039 0.27450980 0.65882353
v -0.05005702 -0.05733884 -16.26964188 0.25098039 0.27450980 0.65882353
v -0.04752527 -0.06381786 -16.27326775 0.25098039 0.27450980 0.65882353
v -0.04529850 -0.06659590 -16.28012848 0.25098039 0.27450980 0.65882353
v -0.04566413 -0.06453597 -16.28217888 0.25098039 0.27450980 0.65882353
v -0.07265987 -0.04750906 -16.26899147 0.25098039 0.27450980 0.65882353
v -0.06902832 -0.04753695 -16.26341248 0.25098039 0.27450980 0.65882353
v -0.06724054 -0.05013967 -16.26502037 0.25098039 0.27450980 0.65882353
v -0.06274931 -0.06057832 -16.26936531 0.25098039 0.27450980 0.65882353
v -0.06177516 -0.05008200 -16.26218605 0.25098039 0.27450980 0.65882353
v -0.05613305 -0.04834346 -16.26358414 0.25098039 0.27450980 0.65882353
v -0.05275752 -0.05844142 -16.26701546 0.25098039 0.27450980 0.65882353
v -0.05750211 -0.05960331 -16.26645088 0.25098039 0.27450980 0.65882353
v -0.05066210 -0.06492244 -16.27142715 0.25098039 0.27450980 0.65882353
v -0.05379190 -0.06541046 -16.27117920 0.25098039 0.27450980 0.65882353
v -0.05823749 -0.06650128 -16.27321625 0.25098039 0.27450980 0.65882353
v -0.05005690 -0.06829464 -16.27542877 0.25098039 0.27450980 0.65882353
v -0.04686825 -0.06787495 -16.27733994 0.25098039 0.27450980 0.65882353
v -0.05215549 -0.07011360 -16.27875519 0.25098039 0.27450980 0.65882353
v -0.05268641 -0.06759991 -16.27422333 0.25098039 0.27450980 0.65882353
v -0.05472015 -0.06863984 -16.27624130 0.25098039 0.27450980 0.65882353
v -0.12497221 -0.06148852 -16.20059776 0.25098039 0.27450980 0.65882353
v -0.11871273 -0.06191091 -16.20298958 0.25098039 0.27450980 0.65882353
v -0.12300467 -0.05746394 -16.20418930 0.25098039 0.27450980 0.65882353
v -0.12740028 -0.05007096 -16.20706177 0.25098039 0.27450980 0.65882353
v -0.13558859 -0.04289473 -16.20651245 0.25098039 0.27450980 0.65882353
v -0.12108034 -0.04858510 -16.20902634 0.25098039 0.27450980 0.65882353
v -0.11684767 -0.05635532 -16.20549011 0.25098039 0.27450980 0.65882353
v -0.11095920 -0.06344897 -16.20259476 0.25098039 0.27450980 0.65882353
v -0.11800067 -0.03978202 -16.21298027 0.25098039 0.27450980 0.65882353
f 2 3 1
f 1 3 4
f 5 6 8
f 8 6 7
f 9 4 10
f 10 4 3
f 12 13 11
f 11 13 9
f 14 12 16
f 16 12 15
f 18 19 17
f 17 19 20
f 22 23 21
f 21 23 24
f 26 27 25
f 25 27 28
f 30 31 29
f 29 31 32
f 33 34 36
f 36 34 35
f 37 38 40
f 40 38 39
f 41 42 6
f 6 42 43
f 6 43 7
f 7 43 44
f 45 34 46
f 46 34 33
f 48 49 47
f 47 49 50
f 52 53 51
f 51 53 54
f 56 52 55
f 55 52 51
f 58 59 57
f 57 59 60
f 61 62 4
f 4 62 1
f 64 65 63
f 63 65 66
f 68 69 67
f 67 69 70
f 72 73 71
f 71 73 74
f 76 77 75
f 75 77 78
f 53 79 54
f 54 79 80
f 82 83 81
f 81 83 84
f 85 86 52
f 52 86 53
f 57 60 87
f 87 60 88
f 89 90 43
f 43 90 44
f 43 42 89
f 89 42 91
f 40 39 92
f 92 39 93
f 94 70 64
f 64 70 69
f 13 61 9
f 9 61 4
f 25 28 69
f 69 28 95
f 96 25 68
f 68 25 69
f 98 99 97
f 97 99 100
f 101 102 104
f 104 102 103
f 106 30 105
f 105 30 29
f 51 54 107
f 107 54 108
f 54 80 108
f 108 80 109
f 111 112 110
f 110 112 113
f 115 5 114
f 114 5 116
f 115 41 5
f 5 41 6
f 36 35 111
f 111 35 117
f 35 118 117
f 117 118 119
f 34 120 35
f 35 120 118
f 34 45 120
f 120 45 121
f 125 126 124
f 124 126 127
f 128 129 14
f 14 129 130
f 33 131 46
f 46 131 132
f 133 94 63
f 63 94 64
f 134 135 137
f 137 135 136
f 139 140 138
f 138 140 141
f 77 142 78
f 78 142 143
f 144 145 20
f 20 145 146
f 148 149 147
f 147 149 72
f 151 152 150
f 150 152 153
f 82 101 83
f 83 101 104
f 101 82 155
f 155 82 154
f 156 157 58
f 58 157 59
f 158 68 147
f 147 68 67
f 159 146 15
f 15 146 16
f 68 158 96
f 96 158 160
f 129 66 130
f 130 66 65
f 162 163 161
f 161 163 164
f 166 167 165
f 165 167 168
f 170 171 169
f 169 171 172
f 174 171 173
f 173 171 170
f 176 177 175
f 175 177 178
f 180 181 179
f 179 181 24
f 182 183 21
f 21 183 184
f 81 185 82
f 82 185 154
f 186 187 188
f 188 187 144
f 158 71 160
f 160 71 189
f 190 135 157
f 157 135 59
f 169 172 139
f 139 172 140
f 147 72 158
f 158 72 71
f 192 193 191
f 191 193 194
f 167 166 49
f 49 166 195
f 196 190 50
f 50 190 157
f 197 198 200
f 200 198 199
f 21 24 182
f 182 24 181
f 146 159 20
f 20 159 17
f 182 181 81
f 81 181 185
f 201 185 180
f 180 185 181
f 202 203 83
f 83 203 84
f 205 206 204
f 204 206 85
f 207 22 184
f 184 22 21
f 179 24 208
f 208 24 23
f 208 209 179
f 179 209 205
f 209 210 205
f 205 210 206
f 212 206 211
f 211 206 210
f 179 205 180
f 180 205 204
f 213 176 88
f 88 176 214
f 86 85 212
f 212 85 206
f 193 217 218
f 217 219 218
f 218 219 220
f 219 18 220
f 220 18 17
f 19 221 20
f 20 221 144
f 222 223 225
f 225 223 224
f 175 226 176
f 176 226 214
f 227 87 214
f 214 87 88
f 220 17 228
f 228 17 159
f 134 213 60
f 60 213 88
f 138 229 151
f 151 229 152
f 193 192 210
f 210 192 211
f 230 194 218
f 218 194 193
f 231 232 228
f 228 232 230
f 233 234 91
f 91 234 89
f 235 236 93
f 93 236 92
f 230 232 234
f 234 232 237
f 47 238 48
f 48 238 239
f 240 191 235
f 235 191 236
f 5 8 116
f 116 8 241
f 242 243 189
f 189 243 160
f 244 245 98
f 98 245 99
f 156 246 47
f 47 246 238
f 76 247 77
f 77 247 248
f 250 125 249
f 249 125 124
f 252 253 251
f 251 253 254
f 111 110 36
f 36 110 255
f 256 33 255
f 255 33 36
f 257 258 154
f 154 258 155
f 63 169 133
f 133 169 139
f 66 170 63
f 63 170 169
f 173 170 129
f 129 170 66
f 129 128 173
f 173 128 259
f 128 260 259
f 259 260 261
f 213 134 262
f 262 134 137
f 263 264 186
f 186 264 187
f 112 265 113
f 113 265 266
f 11 267 268
f 234 233 230
f 230 233 194
f 153 269 70
f 70 269 67
f 175 178 165
f 165 178 141
f 150 153 94
f 94 153 70
f 271 221 270
f 270 221 207
f 269 153 272
f 272 153 152
f 121 45 109
f 109 45 108
f 47 50 156
f 156 50 157
f 57 273 58
f 58 273 274
f 145 275 260
f 260 275 261
f 276 149 143
f 143 149 78
f 148 269 75
f 75 269 272
f 207 277 270
f 270 277 278
f 195 196 49
f 49 196 50
f 59 135 60
f 60 135 134
f 83 104 202
f 202 104 279
f 149 148 78
f 78 148 75
f 247 278 248
f 248 278 277
f 183 182 84
f 84 182 81
f 48 239 281
f 281 239 282
f 227 223 283
f 283 223 222
f 223 226 224
f 224 226 168
f 281 282 224
f 224 282 225
f 165 168 175
f 175 168 226
f 264 263 138
f 138 263 229
f 14 16 128
f 128 16 260
f 220 228 218
f 218 228 230
f 87 227 284
f 284 227 283
f 260 16 145
f 145 16 146
f 244 98 258
f 258 98 155
f 58 274 156
f 156 274 246
f 107 285 51
f 51 285 55
f 243 286 160
f 160 286 96
f 234 237 89
f 89 237 90
f 46 132 107
f 107 132 285
f 253 252 249
f 249 252 250
f 286 26 96
f 96 26 25
f 106 105 287
f 287 105 288
f 272 152 289
f 289 152 229
f 138 151 139
f 139 151 133
f 183 290 161
f 161 290 162
f 291 292 277
f 277 292 293
f 151 150 133
f 133 150 94
f 262 275 177
f 177 275 187
f 144 187 145
f 145 187 275
f 273 57 284
f 284 57 87
f 174 136 190
f 190 136 135
f 111 117 112
f 112 117 38
f 117 119 38
f 38 119 123
f 112 38 265
f 265 38 37
f 287 288 254
f 254 288 251
f 228 159 231
f 231 159 15
f 223 227 226
f 226 227 214
f 147 67 148
f 148 67 269
f 224 168 281
f 281 168 167
f 199 163 200
f 200 163 162
f 45 46 108
f 108 46 107
f 281 167 48
f 48 167 49
f 161 164 291
f 291 164 292
f 38 123 39
f 293 294 277
f 277 294 248
f 284 283 296
f 296 283 295
f 284 296 273
f 273 296 297
f 274 273 298
f 298 273 297
f 246 274 299
f 299 274 298
f 283 222 295
f 295 222 300
f 222 225 300
f 300 225 301
f 301 225 302
f 302 225 282
f 303 304 300
f 300 304 295
f 306 307 305
f 305 307 308
f 309 310 308
f 308 310 305
f 308 307 312
f 312 307 311
f 313 314 312
f 312 314 315
f 311 316 312
f 312 316 313
f 317 304 311
f 311 304 316
f 315 309 312
f 312 309 308
f 318 319 321
f 321 319 320
f 319 318 309
f 309 318 310
f 311 307 317
f 317 307 306
f 306 297 317
f 317 297 296
f 306 322 297
f 297 322 298
f 305 323 306
f 306 323 322
f 323 305 324
f 324 305 310
f 304 317 295
f 295 317 296
f 318 325 310
f 310 325 324
f 323 324 326
f 326 324 327
f 324 325 327
f 327 325 328
f 326 327 329
f 329 327 330
f 329 331 326
f 326 331 332
f 333 330 328
f 328 330 327
f 323 326 322
f 322 326 332
f 322 332 298
f 298 332 299
f 325 318 334
f 334 318 321
f 313 316 335
f 335 316 304
f 335 336 313
f 313 336 314
f 304 303 335
f 335 303 337
f 336 335 338
f 338 335 337
f 336 339 314
f 314 339 340
f 246 299 238
f 238 299 341
f 239 342 282
f 282 342 302
f 342 239 341
f 341 239 238
f 341 331 342
f 342 331 343
f 331 329 343
f 343 329 344
f 342 343 302
f 302 343 345
f 341 299 331
f 331 299 332
f 346 301 345
f 345 301 302
f 346 303 301
f 301 303 300
f 347 337 346
f 346 337 303
f 347 346 348
f 348 346 345
f 349 347 350
f 350 347 348
f 343 344 345
f 345 344 348
f 344 351 348
f 348 351 350
f 337 347 338
f 338 347 349
f 353 338 352
f 352 338 349
f 352 355 354
f 354 355 356
f 352 349 355
f 355 349 350
f 352 354 353
f 353 354 334
f 353 334 339
f 339 334 321
f 339 336 353
f 353 336 338
f 329 330 344
f 344 330 351
f 356 351 333
f 333 351 330
f 356 355 351
f 351 355 350
f 354 356 328
f 328 356 333
f 328 325 354
f 354 325 334
f 309 315 319
f 319 315 320
f 320 340 321
f 321 340 339
f 320 315 340
f 340 315 314
f 137 136 261
f 261 136 259
f 140 166 141
f 141 166 165
f 172 171 195
f 195 171 196
f 171 174 196
f 196 174 190
f 178 177 264
f 264 177 187
f 172 195 140
f 140 195 166
f 137 261 262
f 262 261 275
f 178 264 141
f 141 264 138
f 262 177 213
f 213 177 176
f 136 174 259
f 259 174 173
f 358 359 357
f 357 359 360
f 362 363 361
f 361 363 364
f 361 364 365
f 365 364 366
f 367 368 370
f 370 368 369
f 76 371 247
f 247 371 372
f 373 374 362
f 362 374 363
f 376 377 375
f 375 377 378
f 289 229 380
f 380 229 379
f 381 379 263
f 263 379 229
f 383 384 382
f 382 384 385
f 386 368 374
f 374 368 363
f 76 289 371
f 371 289 380
f 377 376 359
f 359 376 387
f 388 386 360
f 360 386 374
f 389 383 366
f 366 383 390
f 392 393 391
f 391 393 394
f 383 382 390
f 390 382 395
f 396 365 390
f 390 365 366
f 389 366 367
f 367 366 364
f 357 397 358
f 358 397 398
f 373 399 357
f 357 399 397
f 389 367 400
f 400 367 370
f 382 385 375
f 375 385 372
f 357 360 373
f 373 360 374
f 361 401 362
f 362 401 402
f 387 388 359
f 359 388 360
f 363 368 364
f 364 368 367
f 358 398 403
f 403 398 404
f 396 392 405
f 405 392 391
f 392 395 393
f 393 395 378
f 393 403 394
f 394 403 404
f 375 378 382
f 382 378 395
f 365 396 406
f 406 396 405
f 362 402 373
f 373 402 399
f 271 270 400
f 400 270 384
f 401 361 406
f 406 361 365
f 381 369 386
f 386 369 368
f 392 396 395
f 395 396 390
f 393 378 403
f 403 378 377
f 403 377 358
f 358 377 359
f 406 405 408
f 408 405 407
f 406 408 401
f 401 408 409
f 401 409 402
f 402 409 410
f 402 410 399
f 399 410 411
f 405 391 407
f 407 391 412
f 391 394 412
f 412 394 413
f 394 404 413
f 413 404 414
f 415 416 412
f 412 416 407
f 418 419 417
f 417 419 420
f 421 422 418
f 418 422 419
f 419 422 424
f 424 422 423
f 425 426 424
f 424 426 427
f 423 428 424
f 424 428 425
f 427 420 424
f 424 420 419
f 420 429 417
f 417 429 430
f 423 422 431
f 431 422 421
f 421 409 431
f 431 409 408
f 421 432 409
f 409 432 410
f 418 433 421
f 421 433 432
f 434 433 417
f 417 433 418
f 431 416 423
f 423 416 428
f 416 431 407
f 407 431 408
f 435 434 430
f 430 434 417
f 433 434 436
f 436 434 437
f 434 435 437
f 437 435 438
f 436 437 439
f 439 437 440
f 439 441 436
f 436 441 442
f 438 443 437
f 437 443 440
f 436 442 433
f 433 442 432
f 432 442 410
f 410 442 411
f 435 430 445
f 445 430 444
f 430 429 444
f 444 429 446
f 425 428 447
f 447 428 416
f 426 425 448
f 448 425 447
f 416 415 447
f 447 415 449
f 447 449 448
f 448 449 450
f 451 452 448
f 448 452 426
f 446 452 444
f 444 452 451
f 399 411 397
f 397 411 453
f 398 454 404
f 404 454 414
f 454 398 453
f 453 398 397
f 453 441 454
f 454 441 455
f 441 439 455
f 455 439 456
f 454 455 414
f 414 455 457
f 441 453 442
f 442 453 411
f 458 413 457
f 457 413 414
f 458 415 413
f 413 415 412
f 458 459 415
f 415 459 449
f 459 458 460
f 460 458 457
f 461 459 462
f 462 459 460
f 455 456 457
f 457 456 460
f 456 463 460
f 460 463 462
f 459 461 449
f 449 461 450
f 465 450 464
f 464 450 461
f 464 467 466
f 466 467 468
f 464 461 467
f 467 461 462
f 464 466 465
f 465 466 445
f 465 445 451
f 451 445 444
f 451 448 465
f 465 448 450
f 439 440 456
f 456 440 463
f 468 463 443
f 443 463 440
f 468 467 463
f 463 467 462
f 466 468 438
f 438 468 443
f 438 435 466
f 466 435 445
f 420 427 429
f 429 427 446
f 446 427 452
f 452 427 426
f 370 369 188
f 188 369 186
f 371 376 372
f 372 376 375
f 380 379 387
f 387 379 388
f 379 381 388
f 388 381 386
f 385 384 278
f 278 384 270
f 380 387 371
f 371 387 376
f 400 370 271
f 271 370 188
f 385 278 372
f 372 278 247
f 400 384 389
f 389 384 383
f 369 381 186
f 186 381 263
f 221 271 144
f 144 271 188
f 221 19 207
f 207 19 22
f 19 18 22
f 22 18 23
f 18 219 23
f 23 219 208
f 469 470 472
f 472 470 471
f 474 475 473
f 473 475 476
f 473 476 477
f 477 476 478
f 480 481 479
f 479 481 482
f 483 484 474
f 474 484 475
f 486 487 485
f 485 487 488
f 489 490 77
f 77 490 142
f 491 489 248
f 248 489 77
f 493 494 492
f 492 494 495
f 496 480 484
f 484 480 475
f 486 497 487
f 487 497 471
f 498 496 472
f 472 496 484
f 499 493 478
f 478 493 500
f 501 502 504
f 504 502 503
f 493 492 500
f 500 492 505
f 506 477 500
f 500 477 478
f 499 478 479
f 479 478 476
f 469 507 470
f 470 507 508
f 483 509 469
f 469 509 507
f 479 482 499
f 499 482 510
f 492 495 485
f 485 495 511
f 483 469 484
f 484 469 472
f 473 512 474
f 474 512 513
f 497 498 471
f 471 498 472
f 475 480 476
f 476 480 479
f 470 508 514
f 514 508 515
f 506 502 516
f 516 502 501
f 503 502 488
f 488 502 505
f 514 515 503
f 503 515 504
f 485 488 492
f 492 488 505
f 477 506 517
f 517 506 516
f 474 513 483
f 483 513 509
f 510 292 494
f 494 292 164
f 512 473 517
f 517 473 477
f 491 481 496
f 496 481 480
f 502 506 505
f 505 506 500
f 503 488 514
f 514 488 487
f 514 487 470
f 470 487 471
f 517 516 519
f 519 516 518
f 517 519 512
f 512 519 520
f 512 520 513
f 513 520 521
f 513 521 509
f 509 521 522
f 516 501 518
f 518 501 523
f 501 504 523
f 523 504 524
f 524 504 525
f 525 504 515
f 526 527 523
f 523 527 518
f 529 530 528
f 528 530 531
f 532 533 529
f 529 533 530
f 530 533 535
f 535 533 534
f 536 537 535
f 535 537 538
f 534 539 535
f 535 539 536
f 538 531 535
f 535 531 530
f 540 541 531
f 531 541 528
f 533 532 534
f 534 532 542
f 532 520 542
f 542 520 519
f 532 543 520
f 520 543 521
f 529 544 532
f 532 544 543
f 544 529 545
f 545 529 528
f 534 542 539
f 539 542 527
f 527 542 518
f 518 542 519
f 541 546 528
f 528 546 545
f 547 544 548
f 548 544 545
f 546 549 545
f 545 549 548
f 550 547 551
f 551 547 548
f 547 550 553
f 553 550 552
f 549 554 548
f 548 554 551
f 544 547 543
f 543 547 553
f 543 553 521
f 521 553 522
f 546 541 556
f 556 541 555
f 541 540 555
f 555 540 557
f 536 539 558
f 558 539 527
f 537 536 559
f 559 536 558
f 527 526 558
f 558 526 560
f 559 558 561
f 561 558 560
f 559 562 537
f 537 562 563
f 557 563 555
f 555 563 562
f 509 522 507
f 507 522 564
f 508 565 515
f 515 565 525
f 565 508 564
f 564 508 507
f 564 552 565
f 565 552 566
f 552 550 566
f 566 550 567
f 565 566 525
f 525 566 568
f 564 522 552
f 552 522 553
f 569 524 568
f 568 524 525
f 569 526 524
f 524 526 523
f 570 560 569
f 569 560 526
f 570 569 571
f 571 569 568
f 572 570 573
f 573 570 571
f 566 567 568
f 568 567 571
f 567 574 571
f 571 574 573
f 570 572 560
f 560 572 561
f 576 561 575
f 575 561 572
f 575 578 577
f 577 578 579
f 575 572 578
f 578 572 573
f 575 577 576
f 576 577 556
f 576 556 562
f 562 556 555
f 562 559 576
f 576 559 561
f 550 551 567
f 567 551 574
f 579 574 554
f 554 574 551
f 579 578 574
f 574 578 573
f 579 554 577
f 577 554 549
f 549 546 577
f 577 546 556
f 531 538 540
f 540 538 557
f 557 538 563
f 563 538 537
f 481 294 482
f 482 294 293
f 580 486 511
f 511 486 485
f 490 489 497
f 497 489 498
f 489 491 498
f 498 491 496
f 163 495 164
f 164 495 494
f 580 490 486
f 486 490 497
f 482 293 510
f 510 293 292
f 495 163 511
f 511 163 199
f 494 493 510
f 510 493 499
f 481 491 294
f 294 491 248
f 582 583 581
f 581 583 584
f 586 587 585
f 585 587 588
f 585 588 589
f 589 588 590
f 592 593 591
f 591 593 594
f 595 596 598
f 598 596 597
f 599 600 586
f 586 600 587
f 601 602 604
f 604 602 603
f 605 606 608
f 608 606 607
f 609 607 200
f 200 607 606
f 610 611 613
f 613 611 612
f 600 614 587
f 587 614 592
f 596 605 597
f 597 605 608
f 602 615 603
f 603 615 583
f 616 614 584
f 584 614 600
f 611 618 617
f 617 618 590
f 620 621 619
f 619 621 622
f 610 623 611
f 611 623 618
f 624 589 618
f 618 589 590
f 617 590 591
f 591 590 588
f 581 625 582
f 582 625 626
f 599 627 581
f 581 627 625
f 591 594 617
f 617 594 628
f 601 610 598
f 598 610 613
f 581 584 599
f 599 584 600
f 585 629 586
f 586 629 630
f 615 616 583
f 583 616 584
f 587 592 588
f 588 592 591
f 582 626 631
f 631 626 632
f 624 620 633
f 633 620 619
f 621 620 604
f 604 620 623
f 631 632 621
f 621 632 622
f 610 601 623
f 623 601 604
f 589 624 634
f 634 624 633
f 586 630 599
f 599 630 627
f 203 202 628
f 628 202 612
f 629 585 634
f 634 585 589
f 609 593 614
f 614 593 592
f 620 624 623
f 623 624 618
f 631 621 603
f 603 621 604
f 582 631 583
f 583 631 603
f 634 633 636
f 636 633 635
f 634 636 629
f 629 636 637
f 629 637 630
f 630 637 638
f 630 638 627
f 627 638 639
f 633 619 635
f 635 619 640
f 619 622 640
f 640 622 641
f 641 622 642
f 642 622 632
f 644 635 643
f 643 635 640
f 645 646 648
f 648 646 647
f 649 650 646
f 646 650 647
f 647 650 652
f 652 650 651
f 652 653 655
f 655 653 654
f 651 656 652
f 652 656 653
f 655 648 652
f 652 648 647
f 648 657 645
f 645 657 658
f 650 649 651
f 651 649 659
f 649 637 659
f 659 637 636
f 649 660 637
f 637 660 638
f 661 660 646
f 646 660 649
f 662 661 645
f 645 661 646
f 651 659 656
f 656 659 644
f 644 659 635
f 635 659 636
f 663 662 658
f 658 662 645
f 664 661 665
f 665 661 662
f 663 666 662
f 662 666 665
f 667 664 668
f 668 664 665
f 664 667 670
f 670 667 669
f 666 671 665
f 665 671 668
f 661 664 660
f 660 664 670
f 660 670 638
f 638 670 639
f 658 672 663
f 663 672 673
f 658 657 672
f 672 657 674
f 653 656 675
f 675 656 644
f 653 675 654
f 654 675 676
f 675 644 677
f 677 644 643
f 676 675 678
f 678 675 677
f 679 680 676
f 676 680 654
f 674 680 672
f 672 680 679
f 627 639 625
f 625 639 681
f 626 682 632
f 632 682 642
f 681 682 625
f 625 682 626
f 669 683 681
f 681 683 682
f 667 684 669
f 669 684 683
f 682 683 642
f 642 683 685
f 681 639 669
f 669 639 670
f 686 641 685
f 685 641 642
f 641 686 640
f 640 686 643
f 686 687 643
f 643 687 677
f 687 686 688
f 688 686 685
f 689 687 690
f 690 687 688
f 683 684 685
f 685 684 688
f 684 691 688
f 688 691 690
f 687 689 677
f 677 689 678
f 693 678 692
f 692 678 689
f 692 695 694
f 694 695 696
f 692 689 695
f 695 689 690
f 692 694 693
f 693 694 673
f 693 673 679
f 679 673 672
f 679 676 693
f 693 676 678
f 684 667 691
f 691 667 668
f 696 691 671
f 671 691 668
f 696 695 691
f 691 695 690
f 694 696 666
f 666 696 671
f 666 663 694
f 694 663 673
f 648 655 657
f 657 655 674
f 674 655 680
f 680 655 654
f 593 162 594
f 594 162 290
f 598 597 601
f 601 597 602
f 615 608 616
f 616 608 607
f 607 609 616
f 616 609 614
f 697 595 613
f 613 595 598
f 597 608 602
f 602 608 615
f 594 290 628
f 628 290 203
f 628 612 617
f 617 612 611
f 593 609 162
f 162 609 200
f 105 29 698
f 698 29 699
f 268 126 701
f 701 126 700
f 126 125 700
f 700 125 702
f 252 703 250
f 250 703 704
f 32 268 705
f 705 268 701
f 288 105 706
f 706 105 698
f 29 32 699
f 699 32 705
f 707 251 706
f 706 251 288
f 250 704 125
f 125 704 702
f 703 252 707
f 707 252 251
f 706 708 707
f 707 708 709
f 707 709 703
f 703 709 710
f 703 710 704
f 704 710 711
f 704 711 702
f 702 711 712
f 706 698 708
f 708 698 713
f 698 699 713
f 713 699 714
f 699 705 714
f 714 705 715
f 717 708 716
f 716 708 713
f 719 720 718
f 718 720 721
f 722 723 719
f 719 723 720
f 724 725 723
f 723 725 720
f 724 726 725
f 725 726 727
f 728 721 725
f 725 721 720
f 721 728 729
f 729 728 730
f 729 731 721
f 721 731 718
f 724 723 732
f 732 723 722
f 722 710 732
f 732 710 709
f 722 733 710
f 710 733 711
f 719 734 722
f 722 734 733
f 734 719 735
f 735 719 718
f 724 732 726
f 726 732 717
f 717 732 708
f 708 732 709
f 731 736 718
f 718 736 735
f 737 734 738
f 738 734 735
f 736 739 735
f 735 739 738
f 740 737 741
f 741 737 738
f 737 740 743
f 743 740 742
f 739 744 738
f 738 744 741
f 734 737 733
f 733 737 743
f 733 743 711
f 711 743 712
f 736 731 746
f 746 731 745
f 731 729 745
f 745 729 730
f 727 726 747
f 747 726 717
f 748 727 749
f 749 727 747
f 747 717 750
f 750 717 716
f 749 747 751
f 751 747 750
f 749 752 748
f 748 752 753
f 730 753 745
f 745 753 752
f 728 725 748
f 748 725 727
f 730 728 753
f 753 728 748
f 700 702 754
f 754 702 712
f 705 701 715
f 715 701 755
f 754 755 700
f 700 755 701
f 742 756 754
f 754 756 755
f 740 757 742
f 742 757 756
f 755 756 715
f 715 756 758
f 754 712 742
f 742 712 743
f 759 714 758
f 758 714 715
f 714 759 713
f 713 759 716
f 759 760 716
f 716 760 750
f 760 759 761
f 761 759 758
f 762 760 763
f 763 760 761
f 756 757 758
f 758 757 761
f 757 764 761
f 761 764 763
f 760 762 750
f 750 762 751
f 766 751 765
f 765 751 762
f 767 765 769
f 769 765 768
f 765 762 768
f 768 762 763
f 765 767 766
f 766 767 746
f 766 746 752
f 752 746 745
f 752 749 766
f 766 749 751
f 757 740 764
f 764 740 741
f 769 764 744
f 744 764 741
f 769 768 764
f 764 768 763
f 767 769 739
f 739 769 744
f 739 736 767
f 767 736 746
f 219 217 208
f 208 217 209
f 209 217 210
f 210 217 193
f 198 580 199
f 199 580 511
f 76 75 289
f 289 75 272
f 277 207 291
f 291 207 184
f 290 183 203
f 203 183 84
f 490 580 142
f 142 580 198
f 142 198 143
f 143 198 197
f 149 276 72
f 72 276 73
f 104 103 279
f 279 103 770
f 770 596 279
f 279 596 595
f 605 596 771
f 771 596 770
f 771 770 772
f 772 770 103
f 772 103 773
f 773 103 102
f 155 774 101
f 101 774 102
f 773 102 97
f 97 102 774
f 775 773 100
f 100 773 97
f 773 775 772
f 772 775 776
f 772 776 771
f 771 776 777
f 200 606 197
f 197 606 777
f 189 71 778
f 778 71 74
f 97 774 98
f 98 774 155
f 183 161 184
f 184 161 291
f 777 276 197
f 197 276 143
f 777 606 771
f 771 606 605
f 613 612 697
f 697 612 202
f 595 697 279
f 279 697 202
f 73 276 776
f 776 276 777
f 776 775 73
f 73 775 74
f 100 778 775
f 775 778 74
f 778 100 189
f 189 100 99
f 245 242 99
f 99 242 189
f 131 33 256
f 28 1 95
f 95 1 62
f 27 2 28
f 28 2 1
f 265 115 266
f 266 115 114
f 95 62 69
f 69 62 64
f 62 61 64
f 64 61 65
f 61 13 65
f 65 13 130
f 13 12 130
f 130 12 14
f 31 11 32
f 32 11 268
f 15 12 31
f 31 12 11
f 31 30 15
f 15 30 231
f 30 106 231
f 231 106 232
f 287 237 106
f 106 237 232
f 254 90 287
f 287 90 237
f 253 44 254
f 254 44 90
f 253 249 44
f 44 249 7
f 267 127 268
f 268 127 126
f 10 3 241
f 241 3 116
f 3 2 116
f 116 2 114
f 2 27 114
f 114 27 266
f 27 26 266
f 266 26 113
f 26 286 113
f 113 286 110
f 286 243 110
f 110 243 255
f 243 242 255
f 255 242 256
f 242 245 256
f 256 245 131
f 245 244 131
f 131 244 132
f 265 37 115
f 115 37 41
f 41 37 42
f 42 37 40
f 92 91 40
f 40 91 42
f 236 233 92
f 92 233 91
f 191 194 236
f 236 194 233
f 258 285 244
f 244 285 132
f 257 55 258
f 258 55 285
f 257 154 201
f 201 154 185
f 56 201 204
f 204 201 180
f 55 257 56
f 56 257 201
f 204 85 56
f 56 85 52
f 86 122 53
f 53 122 79
f 212 215 86
f 86 215 122
f 211 216 212
f 212 216 215
f 192 280 211
f 211 280 216
f 191 240 192
f 192 240 280
f 249 124 7
f 7 124 8
f 124 127 8
f 8 127 241
f 127 267 241
f 241 267 10
f 10 267 9
f 9 267 11
f 93 39 235
f 235 39 240
f 39 123 240
f 240 123 280
f 123 119 280
f 280 119 216
f 119 118 216
f 216 118 215
f 118 120 215
f 215 120 122
f 120 121 122
f 122 121 79
f 121 109 79
f 79 109 80

