# https://github.com/mikedh/trimesh
v -0.18669336 0.09507290 -15.00477314 0.25098039 0.27450980 0.65882353
v -0.19109678 0.09757020 -15.01422501 0.25098039 0.27450980 0.65882353
v -0.18006942 0.09395261 -15.01411438 0.25098039 0.27450980 0.65882353
v -0.17709377 0.09202524 -15.00419903 0.25098039 0.27450980 0.65882353
v -0.18409657 0.10110697 -15.03517342 0.25098039 0.27450980 0.65882353
v -0.17944774 0.11141786 -15.04116535 0.25098039 0.27450980 0.65882353
v -0.16656414 0.10326212 -15.03424931 0.25098039 0.27450980 0.65882353
v -0.17248502 0.09570326 -15.03085995 0.25098039 0.27450980 0.65882353
v -0.16934992 0.09184867 -15.00187206 0.25098039 0.27450980 0.65882353
v -0.17160757 0.09048688 -15.01284218 0.25098039 0.27450980 0.65882353
v -0.16545118 0.09714179 -15.00016308 0.25098039 0.27450980 0.65882353
v -0.16456454 0.10123900 -14.98732471 0.25098039 0.27450980 0.65882353
v -0.16737919 0.09536202 -14.99134636 0.25098039 0.27450980 0.65882353
v -0.16443750 0.10039692 -14.97895241 0.25098039 0.27450980 0.65882353
v -0.16815671 0.11120333 -14.98608875 0.25098039 0.27450980 0.65882353
v -0.17072012 0.10470350 -14.97311592 0.25098039 0.27450980 0.65882353
v -0.19715388 0.11337487 -14.97730350 0.25098039 0.27450980 0.65882353
v -0.20955119 0.10984730 -14.97770596 0.25098039 0.27450980 0.65882353
v -0.20471412 0.09970856 -14.96713543 0.25098039 0.27450980 0.65882353
v -0.19216011 0.10387097 -14.96826363 0.25098039 0.27450980 0.65882353
v -0.22234711 0.09433609 -14.97498417 0.25098039 0.27450980 0.65882353
v -0.21261847 0.09680536 -14.96974564 0.25098039 0.27450980 0.65882353
v -0.21770331 0.10783838 -14.97976780 0.25098039 0.27450980 0.65882353
v -0.22638789 0.10523666 -14.98396587 0.25098039 0.27450980 0.65882353
v -0.20251007 0.09650234 -15.00684071 0.25098039 0.27450980 0.65882353
v -0.20773815 0.10007361 -15.01547241 0.25098039 0.27450980 0.65882353
v -0.20276272 0.10027158 -15.01412678 0.25098039 0.27450980 0.65882353
v -0.19731094 0.09729578 -15.00618839 0.25098039 0.27450980 0.65882353
v -0.15638517 0.10322338 -15.00608158 0.25098039 0.27450980 0.65882353
v -0.16249308 0.11244222 -15.00367832 0.25098039 0.27450980 0.65882353
v -0.16312103 0.10578491 -14.99935627 0.25098039 0.27450980 0.65882353
v -0.15833206 0.09805121 -15.00627613 0.25098039 0.27450980 0.65882353
v -0.22382106 0.10747577 -15.03655529 0.25098039 0.27450980 0.65882353
v -0.22801065 0.11989224 -15.04106617 0.25098039 0.27450980 0.65882353
v -0.22279213 0.12239201 -15.04086208 0.25098039 0.27450980 0.65882353
v -0.22051269 0.11058246 -15.03671074 0.25098039 0.27450980 0.65882353
v -0.19945404 0.12204762 -15.04454422 0.25098039 0.27450980 0.65882353
v -0.20673554 0.13005570 -15.04336739 0.25098039 0.27450980 0.65882353
v -0.20171858 0.14320727 -15.04039669 0.25098039 0.27450980 0.65882353
v -0.19396803 0.13708772 -15.03881645 0.25098039 0.27450980 0.65882353
v -0.18918458 0.11559965 -15.04390144 0.25098039 0.27450980 0.65882353
v -0.18490835 0.12846458 -15.04092312 0.25098039 0.27450980 0.65882353
v -0.17484033 0.12187386 -15.03891182 0.25098039 0.27450980 0.65882353
v -0.16220278 0.11136520 -15.03308296 0.25098039 0.27450980 0.65882353
v -0.23988889 0.11631602 -15.03860474 0.25098039 0.27450980 0.65882353
v -0.23912297 0.10683326 -15.03541660 0.25098039 0.27450980 0.65882353
v -0.14170772 0.06565119 -14.95197201 0.25098039 0.27450980 0.65882353
v -0.14554346 0.06159900 -14.95094967 0.25098039 0.27450980 0.65882353
v -0.14849599 0.06492251 -14.95408249 0.25098039 0.27450980 0.65882353
v -0.14439516 0.06851876 -14.95427608 0.25098039 0.27450980 0.65882353
v -0.25102717 0.11653481 -15.02205467 0.25098039 0.27450980 0.65882353
v -0.25120753 0.12259714 -15.01384735 0.25098039 0.27450980 0.65882353
v -0.25386882 0.12583536 -15.01911736 0.25098039 0.27450980 0.65882353
v -0.25207892 0.12159893 -15.02698135 0.25098039 0.27450980 0.65882353
v -0.24941242 0.10988858 -15.01510143 0.25098039 0.27450980 0.65882353
v -0.24710666 0.11763125 -15.00682259 0.25098039 0.27450980 0.65882353
v -0.14116821 0.07226545 -14.94187355 0.25098039 0.27450980 0.65882353
v -0.13905135 0.07113479 -14.94621086 0.25098039 0.27450980 0.65882353
v -0.14220081 0.07474288 -14.94762897 0.25098039 0.27450980 0.65882353
v -0.14508606 0.07573967 -14.94348717 0.25098039 0.27450980 0.65882353
v -0.17332357 0.09217936 -14.99503326 0.25098039 0.27450980 0.65882353
v -0.18214208 0.09113443 -14.99742222 0.25098039 0.27450980 0.65882353
v -0.16773710 0.08225474 -14.97975636 0.25098039 0.27450980 0.65882353
v -0.17466687 0.08623627 -14.98632240 0.25098039 0.27450980 0.65882353
v -0.16904759 0.09058225 -14.98680401 0.25098039 0.27450980 0.65882353
v -0.16420943 0.08813610 -14.98039722 0.25098039 0.27450980 0.65882353
v -0.19743237 0.08209810 -14.98919487 0.25098039 0.27450980 0.65882353
v -0.20135254 0.08921494 -14.99785614 0.25098039 0.27450980 0.65882353
v -0.19523868 0.09089980 -14.99636364 0.25098039 0.27450980 0.65882353
v -0.18910410 0.08277721 -14.98765564 0.25098039 0.27450980 0.65882353
v -0.21350223 0.08315688 -15.00076771 0.25098039 0.27450980 0.65882353
v -0.20874383 0.07687236 -14.99203587 0.25098039 0.27450980 0.65882353
v -0.21631949 0.07417771 -14.99496078 0.25098039 0.27450980 0.65882353
v -0.21827485 0.07860877 -15.00130177 0.25098039 0.27450980 0.65882353
v -0.19819066 0.06760354 -14.97509956 0.25098039 0.27450980 0.65882353
v -0.19566642 0.06528270 -14.96669292 0.25098039 0.27450980 0.65882353
v -0.19860691 0.06426258 -14.96680164 0.25098039 0.27450980 0.65882353
v -0.20147935 0.06687005 -14.97561169 0.25098039 0.27450980 0.65882353
v -0.25650510 0.13014731 -15.02306175 0.25098039 0.27450980 0.65882353
v -0.25230667 0.12712348 -15.03072262 0.25098039 0.27450980 0.65882353
v -0.23842922 0.08679831 -14.98458290 0.25098039 0.27450980 0.65882353
v -0.24348992 0.08292990 -14.99356174 0.25098039 0.27450980 0.65882353
v -0.24163868 0.07290101 -14.98546124 0.25098039 0.27450980 0.65882353
v -0.23704797 0.07963315 -14.97885799 0.25098039 0.27450980 0.65882353
v -0.24599308 0.12828267 -15.00704575 0.25098039 0.27450980 0.65882353
v -0.25058585 0.13140531 -15.01146698 0.25098039 0.27450980 0.65882353
v -0.14522170 0.07057593 -14.93788433 0.25098039 0.27450980 0.65882353
v -0.14908905 0.07395005 -14.93970871 0.25098039 0.27450980 0.65882353
v -0.17593297 0.13118619 -15.02917576 0.25098039 0.27450980 0.65882353
v -0.16103128 0.11849633 -15.02633095 0.25098039 0.27450980 0.65882353
v -0.18771881 0.13965507 -15.03015518 0.25098039 0.27450980 0.65882353
v -0.19572926 0.14571276 -15.02941036 0.25098039 0.27450980 0.65882353
v -0.20100388 0.15133625 -15.03100777 0.25098039 0.27450980 0.65882353
v -0.17822008 0.08104026 -14.98310089 0.25098039 0.27450980 0.65882353
v -0.19097269 0.09323369 -14.99969387 0.25098039 0.27450980 0.65882353
v -0.20724288 0.09469505 -15.00736809 0.25098039 0.27450980 0.65882353
v -0.23287648 0.07888728 -15.01160812 0.25098039 0.27450980 0.65882353
v -0.23624110 0.08576153 -15.01948452 0.25098039 0.27450980 0.65882353
v -0.22553574 0.08645555 -15.01690006 0.25098039 0.27450980 0.65882353
v -0.22508505 0.08044316 -15.01011276 0.25098039 0.27450980 0.65882353
v -0.24254000 0.07636736 -14.99971581 0.25098039 0.27450980 0.65882353
v -0.23621000 0.07268572 -15.00223064 0.25098039 0.27450980 0.65882353
v -0.23353815 0.06619515 -14.99557400 0.25098039 0.27450980 0.65882353
v -0.23971501 0.06890035 -14.99244595 0.25098039 0.27450980 0.65882353
v -0.15213847 0.10733575 -15.00974560 0.25098039 0.27450980 0.65882353
v -0.16172901 0.11750714 -15.00780582 0.25098039 0.27450980 0.65882353
v -0.24729133 0.11145280 -15.03017426 0.25098039 0.27450980 0.65882353
v -0.24647963 0.11771907 -15.03445625 0.25098039 0.27450980 0.65882353
v -0.24795341 0.12598857 -15.03641415 0.25098039 0.27450980 0.65882353
v -0.21502125 0.10348183 -15.02694035 0.25098039 0.27450980 0.65882353
v -0.21824187 0.11260092 -15.03714371 0.25098039 0.27450980 0.65882353
v -0.21426180 0.11277002 -15.03826141 0.25098039 0.27450980 0.65882353
v -0.21261096 0.10383686 -15.02659988 0.25098039 0.27450980 0.65882353
v -0.19534871 0.09917997 -15.02597237 0.25098039 0.27450980 0.65882353
v -0.19760738 0.10624866 -15.03778648 0.25098039 0.27450980 0.65882353
v -0.18353760 0.09430432 -15.02479839 0.25098039 0.27450980 0.65882353
v -0.21641769 0.12672095 -15.04230976 0.25098039 0.27450980 0.65882353
v -0.22554892 0.13113153 -15.04543400 0.25098039 0.27450980 0.65882353
v -0.21803816 0.13546258 -15.04531193 0.25098039 0.27450980 0.65882353
v -0.23447081 0.12815022 -15.04396534 0.25098039 0.27450980 0.65882353
v -0.24215081 0.12606545 -15.04048729 0.25098039 0.27450980 0.65882353
v -0.25561112 0.13647628 -15.01318550 0.25098039 0.27450980 0.65882353
v -0.21096039 0.13961901 -15.04387188 0.25098039 0.27450980 0.65882353
v -0.16441399 0.09204037 -15.02669525 0.25098039 0.27450980 0.65882353
v -0.15762047 0.08872759 -15.02283573 0.25098039 0.27450980 0.65882353
v -0.16066952 0.08790983 -15.01592445 0.25098039 0.27450980 0.65882353
v -0.16764446 0.09000732 -15.01901627 0.25098039 0.27450980 0.65882353
v -0.16276060 0.09735183 -14.97060871 0.25098039 0.27450980 0.65882353
v -0.16174515 0.09237813 -14.97639751 0.25098039 0.27450980 0.65882353
v -0.16434348 0.09592533 -14.98492622 0.25098039 0.27450980 0.65882353
v -0.22516340 0.09900426 -15.02934456 0.25098039 0.27450980 0.65882353
v -0.23872554 0.09834398 -15.02903843 0.25098039 0.27450980 0.65882353
v -0.17080320 0.07762814 -14.97552681 0.25098039 0.27450980 0.65882353
v -0.14836921 0.07893465 -14.94536304 0.25098039 0.27450980 0.65882353
v -0.14530866 0.07821293 -14.94998932 0.25098039 0.27450980 0.65882353
v -0.15521498 0.08862120 -14.96150684 0.25098039 0.27450980 0.65882353
v -0.15854183 0.08942530 -14.95553970 0.25098039 0.27450980 0.65882353
v -0.17085417 0.07527462 -14.96354294 0.25098039 0.27450980 0.65882353
v -0.16816239 0.07550171 -14.96996593 0.25098039 0.27450980 0.65882353
v -0.16681869 0.07509395 -14.96641922 0.25098039 0.27450980 0.65882353
v -0.16882835 0.07237185 -14.96077156 0.25098039 0.27450980 0.65882353
v -0.20592326 0.06233096 -14.97189617 0.25098039 0.27450980 0.65882353
v -0.20872805 0.06495903 -14.97909927 0.25098039 0.27450980 0.65882353
v -0.18659329 0.09129511 -14.95999527 0.25098039 0.27450980 0.65882353
v -0.17707232 0.10029212 -14.96145344 0.25098039 0.27450980 0.65882353
v -0.18149598 0.10726017 -14.96933270 0.25098039 0.27450980 0.65882353
v -0.20421129 0.07991239 -14.99111366 0.25098039 0.27450980 0.65882353
v -0.20117959 0.07291592 -14.98331833 0.25098039 0.27450980 0.65882353
v -0.20489030 0.07143277 -14.98385429 0.25098039 0.27450980 0.65882353
v -0.17975110 0.07796836 -14.97936630 0.25098039 0.27450980 0.65882353
v -0.17491491 0.07492540 -14.97194958 0.25098039 0.27450980 0.65882353
v -0.18094110 0.07478611 -14.97426128 0.25098039 0.27450980 0.65882353
v -0.18539254 0.07799534 -14.98027515 0.25098039 0.27450980 0.65882353
v -0.24679413 0.09337834 -15.00084209 0.25098039 0.27450980 0.65882353
v -0.24614736 0.08578862 -15.00810432 0.25098039 0.27450980 0.65882353
v -0.13925728 0.06890303 -14.95006561 0.25098039 0.27450980 0.65882353
v -0.14222832 0.07227488 -14.95184612 0.25098039 0.27450980 0.65882353
v -0.20798308 0.08705083 -14.99915600 0.25098039 0.27450980 0.65882353
v -0.18576796 0.11485752 -14.97923088 0.25098039 0.27450980 0.65882353
v -0.21180549 0.09248318 -15.00843811 0.25098039 0.27450980 0.65882353
v -0.22349289 0.07397620 -14.96709442 0.25098039 0.27450980 0.65882353
v -0.22292356 0.06781068 -14.97077751 0.25098039 0.27450980 0.65882353
v -0.21932977 0.06417903 -14.96662140 0.25098039 0.27450980 0.65882353
v -0.22034149 0.06810574 -14.96188164 0.25098039 0.27450980 0.65882353
v -0.15992381 0.06435981 -14.95011425 0.25098039 0.27450980 0.65882353
v -0.15627003 0.06381368 -14.95449352 0.25098039 0.27450980 0.65882353
v -0.15316337 0.06184451 -14.95102406 0.25098039 0.27450980 0.65882353
v -0.15647851 0.06222023 -14.94647980 0.25098039 0.27450980 0.65882353
v -0.16461225 0.07882929 -14.97320271 0.25098039 0.27450980 0.65882353
v -0.16116695 0.08432949 -14.97440720 0.25098039 0.27450980 0.65882353
v -0.15834977 0.08040636 -14.96980476 0.25098039 0.27450980 0.65882353
v -0.16264576 0.07692194 -14.96826744 0.25098039 0.27450980 0.65882353
v -0.15869966 0.08891343 -14.97050858 0.25098039 0.27450980 0.65882353
v -0.15535995 0.08531419 -14.96709633 0.25098039 0.27450980 0.65882353
v -0.16067740 0.06831844 -14.94499779 0.25098039 0.27450980 0.65882353
v -0.15779173 0.07417761 -14.94134808 0.25098039 0.27450980 0.65882353
v -0.16830185 0.08213493 -14.95056343 0.25098039 0.27450980 0.65882353
v -0.16878511 0.07482816 -14.95383263 0.25098039 0.27450980 0.65882353
v -0.23000330 0.11663248 -14.99166775 0.25098039 0.27450980 0.65882353
v -0.23903410 0.11203988 -14.99543381 0.25098039 0.27450980 0.65882353
v -0.23517445 0.10055564 -14.98782158 0.25098039 0.27450980 0.65882353
v -0.23207167 0.08981299 -14.97993469 0.25098039 0.27450980 0.65882353
v -0.22818524 0.07910730 -14.97247696 0.25098039 0.27450980 0.65882353
v -0.22024542 0.08512592 -14.96664524 0.25098039 0.27450980 0.65882353
v -0.24118941 0.09789652 -14.99207878 0.25098039 0.27450980 0.65882353
v -0.17906524 0.07929559 -14.95939827 0.25098039 0.27450980 0.65882353
v -0.17652395 0.08788194 -14.95717335 0.25098039 0.27450980 0.65882353
v -0.18264320 0.08531279 -14.95794773 0.25098039 0.27450980 0.65882353
v -0.21758345 0.08851462 -15.01054382 0.25098039 0.27450980 0.65882353
v -0.14471459 0.07553606 -14.95466805 0.25098039 0.27450980 0.65882353
v -0.20955563 0.14860606 -15.01010513 0.25098039 0.27450980 0.65882353
v -0.22161543 0.14594451 -15.00498295 0.25098039 0.27450980 0.65882353
v -0.21729341 0.14006725 -15.00238800 0.25098039 0.27450980 0.65882353
v -0.20368767 0.14285159 -15.00833893 0.25098039 0.27450980 0.65882353
v -0.15126559 0.06651882 -14.95816612 0.25098039 0.27450980 0.65882353
v -0.14644073 0.07075690 -14.95836639 0.25098039 0.27450980 0.65882353
v -0.21417943 0.06168830 -14.97893047 0.25098039 0.27450980 0.65882353
v -0.21119183 0.06052763 -14.97252083 0.25098039 0.27450980 0.65882353
v -0.21433918 0.06020805 -14.96995068 0.25098039 0.27450980 0.65882353
v -0.21817987 0.05872899 -14.97676849 0.25098039 0.27450980 0.65882353
v -0.24354839 0.11054170 -14.99870396 0.25098039 0.27450980 0.65882353
v -0.24006298 0.06617786 -14.98117447 0.25098039 0.27450980 0.65882353
v -0.23675486 0.07255955 -14.97529602 0.25098039 0.27450980 0.65882353
v -0.24196143 0.12235538 -15.00188732 0.25098039 0.27450980 0.65882353
v -0.23427832 0.12645492 -14.99819088 0.25098039 0.27450980 0.65882353
v -0.23776701 0.13339284 -15.00248337 0.25098039 0.27450980 0.65882353
v -0.20604324 0.08478875 -14.95991993 0.25098039 0.27450980 0.65882353
v -0.22257954 0.11806750 -14.98881531 0.25098039 0.27450980 0.65882353
v -0.22731355 0.12776351 -14.99641895 0.25098039 0.27450980 0.65882353
v -0.23127224 0.13630149 -15.00134087 0.25098039 0.27450980 0.65882353
v -0.23446184 0.14264679 -15.00381565 0.25098039 0.27450980 0.65882353
v -0.24109793 0.13826783 -15.00542355 0.25098039 0.27450980 0.65882353
v -0.15295082 0.07681039 -14.94191837 0.25098039 0.27450980 0.65882353
v -0.15409361 0.07033059 -14.93817520 0.25098039 0.27450980 0.65882353
v -0.24561286 0.14403701 -15.00701237 0.25098039 0.27450980 0.65882353
v -0.23755130 0.14818478 -15.00546360 0.25098039 0.27450980 0.65882353
v -0.21868031 0.12969503 -14.99520779 0.25098039 0.27450980 0.65882353
v -0.20876570 0.13144836 -14.99533844 0.25098039 0.27450980 0.65882353
v -0.21480952 0.12056091 -14.98716354 0.25098039 0.27450980 0.65882353
v -0.20405234 0.12196765 -14.98624325 0.25098039 0.27450980 0.65882353
v -0.19948168 0.09246945 -14.95843029 0.25098039 0.27450980 0.65882353
v -0.14505520 0.05664257 -14.93340778 0.25098039 0.27450980 0.65882353
v -0.15303579 0.06235749 -14.93865967 0.25098039 0.27450980 0.65882353
v -0.15300509 0.05916177 -14.94329262 0.25098039 0.27450980 0.65882353
v -0.14604570 0.05354154 -14.93624783 0.25098039 0.27450980 0.65882353
v -0.15700124 0.06553295 -14.94184494 0.25098039 0.27450980 0.65882353
v -0.15036522 0.06722520 -14.93650532 0.25098039 0.27450980 0.65882353
v -0.19044924 0.12343971 -14.98970985 0.25098039 0.27450980 0.65882353
v -0.17789595 0.07279113 -14.96648788 0.25098039 0.27450980 0.65882353
v -0.19319533 0.13342588 -15.00249481 0.25098039 0.27450980 0.65882353
v -0.17333573 0.12029008 -14.99355698 0.25098039 0.27450980 0.65882353
v -0.17509995 0.12609892 -15.00480652 0.25098039 0.27450980 0.65882353
v -0.19397780 0.14377423 -15.01607800 0.25098039 0.27450980 0.65882353
v -0.18013531 0.13558826 -15.01627541 0.25098039 0.27450980 0.65882353
v -0.20534065 0.15380369 -15.02124310 0.25098039 0.27450980 0.65882353
v -0.20053549 0.14849569 -15.01785946 0.25098039 0.27450980 0.65882353
v -0.16681765 0.12629779 -15.01679325 0.25098039 0.27450980 0.65882353
v -0.13707691 0.05704398 -14.94638348 0.25098039 0.27450980 0.65882353
v -0.14145097 0.05389789 -14.94532967 0.25098039 0.27450980 0.65882353
v -0.21342345 0.15431553 -15.01268768 0.25098039 0.27450980 0.65882353
v -0.17408969 0.09180132 -15.02198410 0.25098039 0.27450980 0.65882353
v -0.21896715 0.09496847 -15.01901340 0.25098039 0.27450980 0.65882353
v -0.21416456 0.09708196 -15.01744270 0.25098039 0.27450980 0.65882353
v -0.23797047 0.09071442 -15.02323914 0.25098039 0.27450980 0.65882353
v -0.22535503 0.09258833 -15.02208424 0.25098039 0.27450980 0.65882353
v -0.13384157 0.06086902 -14.94498539 0.25098039 0.27450980 0.65882353
v -0.19577576 0.06608149 -14.95985413 0.25098039 0.27450980 0.65882353
v -0.19811893 0.06739656 -14.96188068 0.25098039 0.27450980 0.65882353
v -0.15944988 0.09769656 -15.03051090 0.25098039 0.27450980 0.65882353
v -0.15410608 0.09361949 -15.02736092 0.25098039 0.27450980 0.65882353
v -0.14769995 0.10347936 -15.02181721 0.25098039 0.27450980 0.65882353
v -0.14961392 0.09879887 -15.02670670 0.25098039 0.27450980 0.65882353
v -0.15507752 0.10490774 -15.02969837 0.25098039 0.27450980 0.65882353
v -0.15337841 0.11027129 -15.02478123 0.25098039 0.27450980 0.65882353
v -0.21648221 0.10227064 -15.02714157 0.25098039 0.27450980 0.65882353
v -0.21944106 0.10062151 -15.02764416 0.25098039 0.27450980 0.65882353
v -0.24846350 0.10215344 -15.00836754 0.25098039 0.27450980 0.65882353
v -0.24689092 0.09457715 -15.01569653 0.25098039 0.27450980 0.65882353
v -0.15973659 0.09275346 -14.96540737 0.25098039 0.27450980 0.65882353
v -0.16783313 0.09942782 -14.96472454 0.25098039 0.27450980 0.65882353
v -0.16373247 0.09392519 -14.95978928 0.25098039 0.27450980 0.65882353
v -0.16449089 0.08805908 -14.95200729 0.25098039 0.27450980 0.65882353
v -0.17688502 0.07435759 -14.96080303 0.25098039 0.27450980 0.65882353
v -0.17302012 0.07810161 -14.95910549 0.25098039 0.27450980 0.65882353
v -0.20693809 0.10889334 -15.03832626 0.25098039 0.27450980 0.65882353
v -0.20611604 0.10247372 -15.02582169 0.25098039 0.27450980 0.65882353
v -0.16672647 0.09109329 -15.01156712 0.25098039 0.27450980 0.65882353
v -0.16109245 0.09117688 -15.00934887 0.25098039 0.27450980 0.65882353
v -0.19306163 0.07701989 -14.98249531 0.25098039 0.27450980 0.65882353
v -0.19859211 0.07815625 -14.95340919 0.25098039 0.27450980 0.65882353
v -0.19346637 0.08433263 -14.95229626 0.25098039 0.27450980 0.65882353
v -0.18943574 0.07218024 -14.97500420 0.25098039 0.27450980 0.65882353
v -0.13433661 0.06449886 -14.93723011 0.25098039 0.27450980 0.65882353
v -0.13298072 0.06299360 -14.94192028 0.25098039 0.27450980 0.65882353
v -0.17015983 0.09300255 -14.95649052 0.25098039 0.27450980 0.65882353
v -0.21178646 0.06776057 -14.98700714 0.25098039 0.27450980 0.65882353
v -0.20563993 0.07832837 -14.95897293 0.25098039 0.27450980 0.65882353
v -0.19865200 0.07121001 -14.95515251 0.25098039 0.27450980 0.65882353
v -0.23737726 0.06429476 -14.98860168 0.25098039 0.27450980 0.65882353
v -0.22512725 0.15189242 -15.00820923 0.25098039 0.27450980 0.65882353
v -0.14996676 0.05833311 -14.94775391 0.25098039 0.27450980 0.65882353
v -0.14507698 0.05242635 -14.94234276 0.25098039 0.27450980 0.65882353
v -0.14321627 0.06028943 -14.93224430 0.25098039 0.27450980 0.65882353
v -0.13906534 0.06419040 -14.93335915 0.25098039 0.27450980 0.65882353
v -0.24646018 0.10204834 -15.02316189 0.25098039 0.27450980 0.65882353
v -0.21167442 0.09865251 -15.01613235 0.25098039 0.27450980 0.65882353
v -0.15713236 0.11694294 -15.01689148 0.25098039 0.27450980 0.65882353
v -0.14898491 0.10690773 -15.01548958 0.25098039 0.27450980 0.65882353
v -0.18734273 0.06920150 -14.96924877 0.25098039 0.27450980 0.65882353
v -0.22880518 0.07241602 -14.97178078 0.25098039 0.27450980 0.65882353
v -0.21794373 0.07817495 -14.96120167 0.25098039 0.27450980 0.65882353
v -0.21564190 0.07226037 -14.95578861 0.25098039 0.27450980 0.65882353
v -0.20800278 0.07217343 -14.95423985 0.25098039 0.27450980 0.65882353
v -0.20132197 0.06901940 -14.95600510 0.25098039 0.27450980 0.65882353
v -0.14015169 0.05629529 -14.93065548 0.25098039 0.27450980 0.65882353
v -0.13616458 0.06023698 -14.93159771 0.25098039 0.27450980 0.65882353
v -0.13141240 0.06054499 -14.93511391 0.25098039 0.27450980 0.65882353
v -0.13012896 0.05960410 -14.93941593 0.25098039 0.27450980 0.65882353
v -0.13191457 0.05783275 -14.94309235 0.25098039 0.27450980 0.65882353
v -0.14154387 0.05246738 -14.93159103 0.25098039 0.27450980 0.65882353
v -0.14205405 0.04982360 -14.93425274 0.25098039 0.27450980 0.65882353
v -0.14252569 0.04989413 -14.94031525 0.25098039 0.27450980 0.65882353
v -0.13879761 0.04828428 -14.93094730 0.25098039 0.27450980 0.65882353
v -0.13490860 0.05000446 -14.92809486 0.25098039 0.27450980 0.65882353
v -0.12258646 0.04940795 -14.93304348 0.25098039 0.27450980 0.65882353
v -0.12635136 0.05384834 -14.93231678 0.25098039 0.27450980 0.65882353
v -0.12596133 0.05191110 -14.93062115 0.25098039 0.27450980 0.65882353
v -0.12313581 0.04784285 -14.93037319 0.25098039 0.27450980 0.65882353
v -0.12094611 0.04352553 -14.92861366 0.25098039 0.27450980 0.65882353
v -0.11966608 0.04471199 -14.93166542 0.25098039 0.27450980 0.65882353
v -0.13020188 0.05235492 -14.92911816 0.25098039 0.27450980 0.65882353
v -0.12676933 0.04686102 -14.92792892 0.25098039 0.27450980 0.65882353
v -0.13017848 0.04476948 -14.92699528 0.25098039 0.27450980 0.65882353
v -0.12689230 0.04059613 -14.92532635 0.25098039 0.27450980 0.65882353
v -0.12375002 0.04241999 -14.92595005 0.25098039 0.27450980 0.65882353
v -0.13219056 0.04875547 -14.92778587 0.25098039 0.27450980 0.65882353
v -0.13153858 0.05419867 -14.92926502 0.25098039 0.27450980 0.65882353
v -0.11907718 0.04062556 -14.92945290 0.25098039 0.27450980 0.65882353
v -0.11999080 0.04101560 -14.92718029 0.25098039 0.27450980 0.65882353
v -0.12223457 0.03969441 -14.92560005 0.25098039 0.27450980 0.65882353
v -0.12106919 0.03702626 -14.92662239 0.25098039 0.27450980 0.65882353
v -0.12723507 0.05566598 -14.93789482 0.25098039 0.27450980 0.65882353
v -0.12239039 0.04901244 -14.93557549 0.25098039 0.27450980 0.65882353
v -0.12066567 0.04340588 -14.93426418 0.25098039 0.27450980 0.65882353
v -0.12003556 0.03942987 -14.93184185 0.25098039 0.27450980 0.65882353
v -0.12399988 0.04617672 -14.93789577 0.25098039 0.27450980 0.65882353
v -0.12255210 0.04193520 -14.93588257 0.25098039 0.27450980 0.65882353
v -0.12243755 0.03842922 -14.93384552 0.25098039 0.27450980 0.65882353
v -0.12662086 0.04322536 -14.93894958 0.25098039 0.27450980 0.65882353
v -0.12488215 0.04001963 -14.93658352 0.25098039 0.27450980 0.65882353
v -0.13273889 0.05274142 -14.94309521 0.25098039 0.27450980 0.65882353
v -0.12983111 0.05552288 -14.94198036 0.25098039 0.27450980 0.65882353
v -0.12396207 0.03784531 -14.93529129 0.25098039 0.27450980 0.65882353
v -0.12198272 0.03581966 -14.92837715 0.25098039 0.27450980 0.65882353
v -0.13350828 0.04403083 -14.92829132 0.25098039 0.27450980 0.65882353
v -0.12885650 0.03880869 -14.92726612 0.25098039 0.27450980 0.65882353
v -0.13474402 0.04277933 -14.92984486 0.25098039 0.27450980 0.65882353
v -0.13040370 0.03746478 -14.92860126 0.25098039 0.27450980 0.65882353
v -0.12562002 0.03602459 -14.92567635 0.25098039 0.27450980 0.65882353
v -0.12478361 0.03845231 -14.92521286 0.25098039 0.27450980 0.65882353
v -0.13588634 0.05515261 -14.94482040 0.25098039 0.27450980 0.65882353
v -0.14022982 0.05173740 -14.94349003 0.25098039 0.27450980 0.65882353
v -0.13762134 0.04935572 -14.94200516 0.25098039 0.27450980 0.65882353
v -0.13040993 0.04066333 -14.93835449 0.25098039 0.27450980 0.65882353
v -0.13982110 0.04711246 -14.93922806 0.25098039 0.27450980 0.65882353
v -0.13923046 0.04592635 -14.93367004 0.25098039 0.27450980 0.65882353
v -0.13474102 0.04075499 -14.93189430 0.25098039 0.27450980 0.65882353
v -0.13384384 0.03986127 -14.93491554 0.25098039 0.27450980 0.65882353
v -0.13101107 0.03696395 -14.93091965 0.25098039 0.27450980 0.65882353
v -0.13022642 0.03726256 -14.93326855 0.25098039 0.27450980 0.65882353
v -0.12767735 0.03794037 -14.93586445 0.25098039 0.27450980 0.65882353
v -0.12730828 0.03511232 -14.93050194 0.25098039 0.27450980 0.65882353
v -0.12644815 0.03519009 -14.92764950 0.25098039 0.27450980 0.65882353
v -0.12383398 0.03574993 -14.93136406 0.25098039 0.27450980 0.65882353
v -0.12796454 0.03568691 -14.93237400 0.25098039 0.27450980 0.65882353
v -0.12544200 0.03669453 -14.93343639 0.25098039 0.27450980 0.65882353
v -0.16896865 0.04721271 -14.94164085 0.25098039 0.27450980 0.65882353
v -0.17448816 0.04407211 -14.94152260 0.25098039 0.27450980 0.65882353
v -0.17618650 0.04883949 -14.94392776 0.25098039 0.27450980 0.65882353
v -0.17123431 0.05099207 -14.94391251 0.25098039 0.27450980 0.65882353
v -0.16850449 0.05500326 -14.93095207 0.25098039 0.27450980 0.65882353
v -0.16614859 0.05277164 -14.93566036 0.25098039 0.27450980 0.65882353
v -0.16786550 0.05703394 -14.93724346 0.25098039 0.27450980 0.65882353
v -0.17147183 0.05921170 -14.93236923 0.25098039 0.27450980 0.65882353
v -0.17434323 0.05436587 -14.92808342 0.25098039 0.27450980 0.65882353
v -0.17752598 0.05874649 -14.92973137 0.25098039 0.27450980 0.65882353
v -0.17328437 0.06340329 -14.93442249 0.25098039 0.27450980 0.65882353
v -0.16995126 0.06117254 -14.94020176 0.25098039 0.27450980 0.65882353
v -0.17790224 0.07504091 -14.95392609 0.25098039 0.27450980 0.65882353
v -0.18134423 0.07772543 -14.94817448 0.25098039 0.27450980 0.65882353
v -0.19033071 0.06398379 -14.96033001 0.25098039 0.27450980 0.65882353
v -0.19207501 0.06415024 -14.95683002 0.25098039 0.27450980 0.65882353
v -0.16674626 0.04971822 -14.93954659 0.25098039 0.27450980 0.65882353
v -0.16867489 0.05382395 -14.94121933 0.25098039 0.27450980 0.65882353
v -0.18579683 0.05002617 -14.94359112 0.25098039 0.27450980 0.65882353
v -0.18183887 0.04977054 -14.94724941 0.25098039 0.27450980 0.65882353
v -0.18027210 0.04652185 -14.94294643 0.25098039 0.27450980 0.65882353
v -0.18393442 0.04721992 -14.93883896 0.25098039 0.27450980 0.65882353
v -0.18017052 0.07012122 -14.96095467 0.25098039 0.27450980 0.65882353
v -0.18577635 0.06717272 -14.96180248 0.25098039 0.27450980 0.65882353
v -0.17808187 0.07195723 -14.95799828 0.25098039 0.27450980 0.65882353
v -0.18797944 0.05281727 -14.93814468 0.25098039 0.27450980 0.65882353
v -0.18650852 0.05754500 -14.93330574 0.25098039 0.27450980 0.65882353
v -0.19405474 0.07166965 -14.94526100 0.25098039 0.27450980 0.65882353
v -0.19517484 0.06668894 -14.94932079 0.25098039 0.27450980 0.65882353
v -0.16969383 0.05774203 -14.94465542 0.25098039 0.27450980 0.65882353
v -0.17689911 0.05145763 -14.94859219 0.25098039 0.27450980 0.65882353
v -0.17235059 0.05399844 -14.94798088 0.25098039 0.27450980 0.65882353
v -0.18010224 0.06206355 -14.93238449 0.25098039 0.27450980 0.65882353
v -0.18324177 0.05366620 -14.93016624 0.25098039 0.27450980 0.65882353
v -0.17620669 0.03646673 -14.92556763 0.25098039 0.27450980 0.65882353
v -0.18264940 0.04566324 -14.93139744 0.25098039 0.27450980 0.65882353
v -0.18154810 0.04306918 -14.93558311 0.25098039 0.27450980 0.65882353
v -0.17597172 0.03304826 -14.92903996 0.25098039 0.27450980 0.65882353
v -0.18538554 0.04946968 -14.93405819 0.25098039 0.27450980 0.65882353
v -0.18011284 0.05017103 -14.92829037 0.25098039 0.27450980 0.65882353
v -0.16377896 0.03361998 -14.93493271 0.25098039 0.27450980 0.65882353
v -0.16922718 0.03061822 -14.93457890 0.25098039 0.27450980 0.65882353
v -0.16079403 0.03654967 -14.93316269 0.25098039 0.27450980 0.65882353
v -0.18833736 0.07670012 -14.94455624 0.25098039 0.27450980 0.65882353
v -0.16250993 0.04400251 -14.92616081 0.25098039 0.27450980 0.65882353
v -0.16003256 0.04009940 -14.93079567 0.25098039 0.27450980 0.65882353
v -0.17882597 0.04223576 -14.93965626 0.25098039 0.27450980 0.65882353
v -0.17344566 0.03051157 -14.93208218 0.25098039 0.27450980 0.65882353
v -0.17408565 0.03992360 -14.92332268 0.25098039 0.27450980 0.65882353
v -0.16872315 0.04459905 -14.92336273 0.25098039 0.27450980 0.65882353
v -0.17110798 0.03526935 -14.92134094 0.25098039 0.27450980 0.65882353
v -0.16595729 0.03906362 -14.92125034 0.25098039 0.27450980 0.65882353
v -0.15990204 0.03860740 -14.92411423 0.25098039 0.27450980 0.65882353
v -0.15834714 0.03545058 -14.92866421 0.25098039 0.27450980 0.65882353
v -0.15942273 0.03290892 -14.93143940 0.25098039 0.27450980 0.65882353
v -0.17299426 0.03193028 -14.92317104 0.25098039 0.27450980 0.65882353
v -0.17314188 0.02856167 -14.92631817 0.25098039 0.27450980 0.65882353
v -0.17143403 0.02790257 -14.93076324 0.25098039 0.27450980 0.65882353
v -0.17021476 0.02523074 -14.92138004 0.25098039 0.27450980 0.65882353
v -0.16756561 0.02726513 -14.91857910 0.25098039 0.27450980 0.65882353
v -0.15199365 0.01876053 -14.91942024 0.25098039 0.27450980 0.65882353
v -0.15393460 0.02428379 -14.92086029 0.25098039 0.27450980 0.65882353
v -0.15538502 0.02396379 -14.91864872 0.25098039 0.27450980 0.65882353
v -0.15375087 0.01892529 -14.91718006 0.25098039 0.27450980 0.65882353
v -0.15653118 0.03002250 -14.92034531 0.25098039 0.27450980 0.65882353
v -0.15744048 0.02805294 -14.91882610 0.25098039 0.27450980 0.65882353
v -0.16183828 0.02829163 -14.91777134 0.25098039 0.27450980 0.65882353
v -0.15969677 0.02272546 -14.91666222 0.25098039 0.27450980 0.65882353
v -0.16427332 0.02156365 -14.91701508 0.25098039 0.27450980 0.65882353
v -0.16246259 0.01664038 -14.91449547 0.25098039 0.27450980 0.65882353
v -0.15777440 0.01781364 -14.91413689 0.25098039 0.27450980 0.65882353
v -0.16477427 0.02578592 -14.91743088 0.25098039 0.27450980 0.65882353
v -0.15348049 0.01554878 -14.91575718 0.25098039 0.27450980 0.65882353
v -0.15250620 0.01354517 -14.91711617 0.25098039 0.27450980 0.65882353
v -0.16256456 0.03124110 -14.91823101 0.25098039 0.27450980 0.65882353
v -0.15643571 0.03183420 -14.92628098 0.25098039 0.27450980 0.65882353
v -0.15344810 0.02330589 -14.92368698 0.25098039 0.27450980 0.65882353
v -0.15208060 0.01686265 -14.92201233 0.25098039 0.27450980 0.65882353
v -0.15366034 0.01153187 -14.91913319 0.25098039 0.27450980 0.65882353
v -0.15496361 0.02068861 -14.92654610 0.25098039 0.27450980 0.65882353
v -0.15375727 0.01499431 -14.92406559 0.25098039 0.27450980 0.65882353
v -0.15544239 0.01106765 -14.92121983 0.25098039 0.27450980 0.65882353
v -0.15801291 0.01792027 -14.92875099 0.25098039 0.27450980 0.65882353
v -0.15699586 0.01284146 -14.92562485 0.25098039 0.27450980 0.65882353
v -0.16167764 0.02805100 -14.93256378 0.25098039 0.27450980 0.65882353
v -0.15800221 0.03016049 -14.93051624 0.25098039 0.27450980 0.65882353
v -0.15689418 0.01126222 -14.92318630 0.25098039 0.27450980 0.65882353
v -0.15593664 0.01161180 -14.91399002 0.25098039 0.27450980 0.65882353
v -0.15670338 0.00962868 -14.91681004 0.25098039 0.27450980 0.65882353
v -0.15632495 0.01367836 -14.91379833 0.25098039 0.27450980 0.65882353
v -0.16598107 0.02067509 -14.91787338 0.25098039 0.27450980 0.65882353
v -0.16349429 0.01505017 -14.91598415 0.25098039 0.27450980 0.65882353
v -0.16741894 0.01905498 -14.91963387 0.25098039 0.27450980 0.65882353
v -0.16407311 0.01320737 -14.91764355 0.25098039 0.27450980 0.65882353
v -0.16064975 0.01158983 -14.91444206 0.25098039 0.27450980 0.65882353
v -0.15982667 0.01292130 -14.91356277 0.25098039 0.27450980 0.65882353
v -0.16295050 0.03088206 -14.93307590 0.25098039 0.27450980 0.65882353
v -0.16804484 0.02861767 -14.93293953 0.25098039 0.27450980 0.65882353
v -0.16685674 0.02612846 -14.93240166 0.25098039 0.27450980 0.65882353
v -0.16286905 0.01641192 -14.92815876 0.25098039 0.27450980 0.65882353
v -0.17049550 0.02521200 -14.92968273 0.25098039 0.27450980 0.65882353
v -0.17109820 0.02415894 -14.92461300 0.25098039 0.27450980 0.65882353
v -0.16814183 0.01795465 -14.92210674 0.25098039 0.27450980 0.65882353
v -0.16658551 0.01641583 -14.92536259 0.25098039 0.27450980 0.65882353
v -0.16523881 0.01210350 -14.91930771 0.25098039 0.27450980 0.65882353
v -0.16479416 0.01252938 -14.92249107 0.25098039 0.27450980 0.65882353
v -0.16094057 0.01206613 -14.92537403 0.25098039 0.27450980 0.65882353
v -0.16192612 0.00914064 -14.91780949 0.25098039 0.27450980 0.65882353
v -0.16114639 0.01019198 -14.91565228 0.25098039 0.27450980 0.65882353
v -0.15765995 0.00943968 -14.91897488 0.25098039 0.27450980 0.65882353
v -0.16241811 0.00993365 -14.92073822 0.25098039 0.27450980 0.65882353
v -0.15902242 0.01003776 -14.92197990 0.25098039 0.27450980 0.65882353
v -0.19329336 0.04313547 -14.94779682 0.25098039 0.27450980 0.65882353
v -0.19736388 0.04050798 -14.95106983 0.25098039 0.27450980 0.65882353
v -0.19857563 0.04409750 -14.95321560 0.25098039 0.27450980 0.65882353
v -0.19459626 0.04671883 -14.94981575 0.25098039 0.27450980 0.65882353
v -0.19937316 0.04755920 -14.93760014 0.25098039 0.27450980 0.65882353
v -0.19500089 0.04682259 -14.93972015 0.25098039 0.27450980 0.65882353
v -0.19615856 0.05071837 -14.94178295 0.25098039 0.27450980 0.65882353
v -0.20098725 0.05259273 -14.93989849 0.25098039 0.27450980 0.65882353
v -0.20407727 0.04480624 -14.93714046 0.25098039 0.27450980 0.65882353
v -0.20679858 0.05145225 -14.93996525 0.25098039 0.27450980 0.65882353
v -0.20244431 0.05763958 -14.94167805 0.25098039 0.27450980 0.65882353
v -0.19734091 0.05471890 -14.94374275 0.25098039 0.27450980 0.65882353
v -0.20062059 0.06592123 -14.95336914 0.25098039 0.27450980 0.65882353
v -0.20622253 0.06797520 -14.94971561 0.25098039 0.27450980 0.65882353
v -0.19306715 0.04515236 -14.94367409 0.25098039 0.27450980 0.65882353
v -0.19405392 0.04859075 -14.94555283 0.25098039 0.27450980 0.65882353
v -0.20837545 0.04427186 -14.95560932 0.25098039 0.27450980 0.65882353
v -0.20369767 0.04480769 -14.95715523 0.25098039 0.27450980 0.65882353
v -0.20353015 0.04196570 -14.95386410 0.25098039 0.27450980 0.65882353
v -0.20752069 0.04153104 -14.95233822 0.25098039 0.27450980 0.65882353
v -0.19991650 0.06213776 -14.96373558 0.25098039 0.27450980 0.65882353
v -0.20509255 0.06086016 -14.96662712 0.25098039 0.27450980 0.65882353
v -0.19828948 0.06295892 -14.95845222 0.25098039 0.27450980 0.65882353
v -0.21233228 0.04621666 -14.95093441 0.25098039 0.27450980 0.65882353
v -0.21331598 0.05139545 -14.94577026 0.25098039 0.27450980 0.65882353
v -0.21773422 0.06159827 -14.95512486 0.25098039 0.27450980 0.65882353
v -0.21636590 0.05874199 -14.96074295 0.25098039 0.27450980 0.65882353
v -0.19475591 0.05187719 -14.94751453 0.25098039 0.27450980 0.65882353
v -0.19906297 0.04709742 -14.95632553 0.25098039 0.27450980 0.65882353
v -0.19497654 0.04920983 -14.95248985 0.25098039 0.27450980 0.65882353
v -0.20841095 0.05610507 -14.94253159 0.25098039 0.27450980 0.65882353
v -0.21061325 0.04677831 -14.94326305 0.25098039 0.27450980 0.65882353
v -0.20351332 0.02576587 -14.93685150 0.25098039 0.27450980 0.65882353
v -0.20940675 0.03915015 -14.94569683 0.25098039 0.27450980 0.65882353
v -0.20599177 0.03763613 -14.94992638 0.25098039 0.27450980 0.65882353
v -0.20198154 0.02401186 -14.94058895 0.25098039 0.27450980 0.65882353
v -0.21069971 0.04243602 -14.94815254 0.25098039 0.27450980 0.65882353
v -0.20875967 0.04213377 -14.94068623 0.25098039 0.27450980 0.65882353
v -0.18899909 0.02883662 -14.94128704 0.25098039 0.27450980 0.65882353
v -0.19326739 0.02654491 -14.94406319 0.25098039 0.27450980 0.65882353
v -0.18876228 0.03197869 -14.93815804 0.25098039 0.27450980 0.65882353
v -0.21346876 0.06672701 -14.94993877 0.25098039 0.27450980 0.65882353
v -0.21165238 0.05853871 -14.96574306 0.25098039 0.27450980 0.65882353
v -0.19256246 0.03370295 -14.93184757 0.25098039 0.27450980 0.65882353
v -0.18959503 0.03319938 -14.93506527 0.25098039 0.27450980 0.65882353
v -0.20226711 0.03852952 -14.95175648 0.25098039 0.27450980 0.65882353
v -0.19842944 0.02426521 -14.94350147 0.25098039 0.27450980 0.65882353
v -0.20277017 0.02914402 -14.93346310 0.25098039 0.27450980 0.65882353
v -0.19857755 0.03311256 -14.93106937 0.25098039 0.27450980 0.65882353
v -0.20062467 0.02373403 -14.93185139 0.25098039 0.27450980 0.65882353
v -0.19632614 0.02745897 -14.92952919 0.25098039 0.27450980 0.65882353
v -0.19055231 0.02809451 -14.93025303 0.25098039 0.27450980 0.65882353
v -0.18788518 0.02801450 -14.93362236 0.25098039 0.27450980 0.65882353
v -0.18714438 0.02719237 -14.93680763 0.25098039 0.27450980 0.65882353
v -0.20110938 0.02064887 -14.93552780 0.25098039 0.27450980 0.65882353
v -0.19960886 0.01950737 -14.93897820 0.25098039 0.27450980 0.65882353
v -0.19707532 0.02226952 -14.94231033 0.25098039 0.27450980 0.65882353
v -0.19919288 0.01623230 -14.93537045 0.25098039 0.27450980 0.65882353
v -0.19739939 0.01701668 -14.93023491 0.25098039 0.27450980 0.65882353
v -0.18258740 0.00937918 -14.92850208 0.25098039 0.27450980 0.65882353
v -0.18467873 0.01487232 -14.92942333 0.25098039 0.27450980 0.65882353
v -0.18564561 0.01437096 -14.92867756 0.25098039 0.27450980 0.65882353
v -0.18382223 0.00900421 -14.92714596 0.25098039 0.27450980 0.65882353
v -0.18828011 0.02062313 -14.92861557 0.25098039 0.27450980 0.65882353
v -0.18852110 0.01859543 -14.92817593 0.25098039 0.27450980 0.65882353
v -0.19236152 0.01819409 -14.92793846 0.25098039 0.27450980 0.65882353
v -0.19012532 0.01213244 -14.92694187 0.25098039 0.27450980 0.65882353
v -0.19438231 0.01058399 -14.93084145 0.25098039 0.27450980 0.65882353
v -0.19173589 0.00627045 -14.92986393 0.25098039 0.27450980 0.65882353
v -0.18799175 0.00721723 -14.92607880 0.25098039 0.27450980 0.65882353
v -0.19559568 0.01584262 -14.92967129 0.25098039 0.27450980 0.65882353
v -0.18370976 0.00578327 -14.92676544 0.25098039 0.27450980 0.65882353
v -0.18150145 0.00534414 -14.92680550 0.25098039 0.27450980 0.65882353
v -0.19345102 0.02048979 -14.92794991 0.25098039 0.27450980 0.65882353
v -0.18544102 0.02278319 -14.93193436 0.25098039 0.27450980 0.65882353
v -0.18263578 0.01546404 -14.93142223 0.25098039 0.27450980 0.65882353
v -0.17999832 0.00986399 -14.93076801 0.25098039 0.27450980 0.65882353
v -0.18033765 0.00526188 -14.93045330 0.25098039 0.27450980 0.65882353
v -0.18245588 0.01507720 -14.93515205 0.25098039 0.27450980 0.65882353
v -0.18062627 0.00980218 -14.93395042 0.25098039 0.27450980 0.65882353
v -0.18079415 0.00571421 -14.93371487 0.25098039 0.27450980 0.65882353
v -0.18367264 0.01426701 -14.93805790 0.25098039 0.27450980 0.65882353
v -0.18223098 0.00940825 -14.93685436 0.25098039 0.27450980 0.65882353
v -0.18748417 0.02357352 -14.93960667 0.25098039 0.27450980 0.65882353
v -0.18562618 0.02360915 -14.93591499 0.25098039 0.27450980 0.65882353
v -0.18200767 0.00626704 -14.93568134 0.25098039 0.27450980 0.65882353
v -0.18523966 0.00229153 -14.92705536 0.25098039 0.27450980 0.65882353
v -0.18433696 0.00138223 -14.93132687 0.25098039 0.27450980 0.65882353
v -0.18620577 0.00422391 -14.92695236 0.25098039 0.27450980 0.65882353
v -0.19566637 0.01066308 -14.93234825 0.25098039 0.27450980 0.65882353
v -0.19249497 0.00473259 -14.93169689 0.25098039 0.27450980 0.65882353
v -0.19592047 0.01038943 -14.93523026 0.25098039 0.27450980 0.65882353
v -0.19275425 0.00445613 -14.93445015 0.25098039 0.27450980 0.65882353
v -0.18968298 0.00199972 -14.92972946 0.25098039 0.27450980 0.65882353
v -0.18950832 0.00318092 -14.92895985 0.25098039 0.27450980 0.65882353
v -0.18883535 0.02630153 -14.94028568 0.25098039 0.27450980 0.65882353
v -0.19270635 0.02424885 -14.94274521 0.25098039 0.27450980 0.65882353
v -0.19111480 0.02185167 -14.94207478 0.25098039 0.27450980 0.65882353
v -0.18680154 0.01204994 -14.94046021 0.25098039 0.27450980 0.65882353
v -0.19529203 0.01986860 -14.94199085 0.25098039 0.27450980 0.65882353
v -0.19749847 0.01558355 -14.93859196 0.25098039 0.27450980 0.65882353
v -0.19421685 0.01034436 -14.93799210 0.25098039 0.27450980 0.65882353
v -0.19101842 0.01047179 -14.94001102 0.25098039 0.27450980 0.65882353
v -0.19154587 0.00504616 -14.93686104 0.25098039 0.27450980 0.65882353
v -0.18963611 0.00665674 -14.93828392 0.25098039 0.27450980 0.65882353
v -0.18499857 0.00764117 -14.93918133 0.25098039 0.27450980 0.65882353
v -0.18841760 0.00276741 -14.93513966 0.25098039 0.27450980 0.65882353
v -0.18943492 0.00150898 -14.93257523 0.25098039 0.27450980 0.65882353
v -0.18395221 0.00268671 -14.93445587 0.25098039 0.27450980 0.65882353
v -0.18746190 0.00426477 -14.93703175 0.25098039 0.27450980 0.65882353
v -0.18410048 0.00436157 -14.93662357 0.25098039 0.27450980 0.65882353
v -0.20880547 0.05946277 -14.96757889 0.25098039 0.27450980 0.65882353
v -0.21985434 0.03709010 -14.96598530 0.25098039 0.27450980 0.65882353
v -0.22202277 0.03559028 -14.96896172 0.25098039 0.27450980 0.65882353
v -0.22355457 0.03906476 -14.97039318 0.25098039 0.27450980 0.65882353
v -0.22083995 0.04098062 -14.96829987 0.25098039 0.27450980 0.65882353
v -0.22597867 0.04068903 -14.95764160 0.25098039 0.27450980 0.65882353
v -0.22202449 0.03976630 -14.95944786 0.25098039 0.27450980 0.65882353
v -0.22272593 0.04430003 -14.96083546 0.25098039 0.27450980 0.65882353
v -0.22655857 0.04512334 -14.95899582 0.25098039 0.27450980 0.65882353
v -0.23058258 0.03957349 -14.95839119 0.25098039 0.27450980 0.65882353
v -0.23129722 0.04369785 -14.96000862 0.25098039 0.27450980 0.65882353
v -0.22722521 0.04854478 -14.95983791 0.25098039 0.27450980 0.65882353
v -0.22302553 0.04792589 -14.96211147 0.25098039 0.27450980 0.65882353
v -0.22366464 0.06226469 -14.96906948 0.25098039 0.27450980 0.65882353
v -0.22877523 0.06449927 -14.96784782 0.25098039 0.27450980 0.65882353
v -0.23566355 0.05945279 -14.98474693 0.25098039 0.27450980 0.65882353
v -0.22983381 0.05938311 -14.98757267 0.25098039 0.27450980 0.65882353
v -0.22992736 0.05276480 -14.98144627 0.25098039 0.27450980 0.65882353
v -0.23469558 0.05384884 -14.98024273 0.25098039 0.27450980 0.65882353
v -0.22007740 0.03847326 -14.96256351 0.25098039 0.27450980 0.65882353
v -0.22019666 0.04256151 -14.96469307 0.25098039 0.27450980 0.65882353
v -0.23301579 0.04166786 -14.97310734 0.25098039 0.27450980 0.65882353
v -0.22852685 0.04125862 -14.97379780 0.25098039 0.27450980 0.65882353
v -0.22686487 0.03812445 -14.97231674 0.25098039 0.27450980 0.65882353
v -0.23125067 0.03753620 -14.97184467 0.25098039 0.27450980 0.65882353
v -0.22454335 0.05899179 -14.98546219 0.25098039 0.27450980 0.65882353
v -0.22104633 0.05979226 -14.98233986 0.25098039 0.27450980 0.65882353
v -0.22097434 0.05637370 -14.97941971 0.25098039 0.27450980 0.65882353
v -0.22517045 0.05295007 -14.98027325 0.25098039 0.27450980 0.65882353
v -0.21974778 0.05813815 -14.97464561 0.25098039 0.27450980 0.65882353
v -0.23557392 0.04257429 -14.97031975 0.25098039 0.27450980 0.65882353
v -0.23614863 0.04479931 -14.96530151 0.25098039 0.27450980 0.65882353
v -0.23987442 0.05930929 -14.97421265 0.25098039 0.27450980 0.65882353
v -0.23835114 0.05706415 -14.97808361 0.25098039 0.27450980 0.65882353
v -0.22055832 0.04571883 -14.96530437 0.25098039 0.27450980 0.65882353
v -0.22461319 0.04184338 -14.97222328 0.25098039 0.27450980 0.65882353
v -0.22153670 0.04332440 -14.96963596 0.25098039 0.27450980 0.65882353
v -0.23263231 0.04706012 -14.96080112 0.25098039 0.27450980 0.65882353
v -0.23475629 0.04091924 -14.96393776 0.25098039 0.27450980 0.65882353
v -0.23126352 0.02598105 -14.96414185 0.25098039 0.27450980 0.65882353
v -0.23342729 0.03504986 -14.96780300 0.25098039 0.27450980 0.65882353
v -0.22973977 0.03375513 -14.97066021 0.25098039 0.27450980 0.65882353
v -0.22914085 0.02521976 -14.96589661 0.25098039 0.27450980 0.65882353
v -0.23431486 0.03864401 -14.96885490 0.25098039 0.27450980 0.65882353
v -0.23399523 0.03701140 -14.96258640 0.25098039 0.27450980 0.65882353
v -0.21839294 0.02810285 -14.96239948 0.25098039 0.27450980 0.65882353
v -0.22167218 0.02669033 -14.96596146 0.25098039 0.27450980 0.65882353
v -0.21846205 0.02946332 -14.95955563 0.25098039 0.27450980 0.65882353
v -0.23560815 0.06302959 -14.96883965 0.25098039 0.27450980 0.65882353
v -0.22392315 0.03092439 -14.95483208 0.25098039 0.27450980 0.65882353
v -0.22002912 0.03010494 -14.95644569 0.25098039 0.27450980 0.65882353
v -0.22535458 0.03433444 -14.97066021 0.25098039 0.27450980 0.65882353
v -0.22574237 0.02567525 -14.96688080 0.25098039 0.27450980 0.65882353
v -0.23186842 0.02766416 -14.96044254 0.25098039 0.27450980 0.65882353
v -0.22916323 0.03031961 -14.95589638 0.25098039 0.27450980 0.65882353
v -0.23053913 0.02337740 -14.95884705 0.25098039 0.27450980 0.65882353
v -0.22750154 0.02647422 -14.95458126 0.25098039 0.27450980 0.65882353
v -0.22189501 0.02677846 -14.95373726 0.25098039 0.27450980 0.65882353
v -0.21904063 0.02693348 -14.95594311 0.25098039 0.27450980 0.65882353
v -0.21748722 0.02634130 -14.95865154 0.25098039 0.27450980 0.65882353
v -0.23005542 0.02188620 -14.96261787 0.25098039 0.27450980 0.65882353
v -0.22791040 0.02158866 -14.96469498 0.25098039 0.27450980 0.65882353
v -0.22470458 0.02264539 -14.96620083 0.25098039 0.27450980 0.65882353
v -0.22861964 0.01769613 -14.96112537 0.25098039 0.27450980 0.65882353
v -0.22853720 0.01777477 -14.95635891 0.25098039 0.27450980 0.65882353
v -0.21684605 0.01228081 -14.95187759 0.25098039 0.27450980 0.65882353
v -0.21772629 0.01623452 -14.95271873 0.25098039 0.27450980 0.65882353
v -0.21884134 0.01611948 -14.95212555 0.25098039 0.27450980 0.65882353
v -0.21749575 0.01234989 -14.95086098 0.25098039 0.27450980 0.65882353
v -0.22032253 0.02099735 -14.95273685 0.25098039 0.27450980 0.65882353
v -0.22120492 0.01961821 -14.95240593 0.25098039 0.27450980 0.65882353
v -0.22457924 0.01985584 -14.95331478 0.25098039 0.27450980 0.65882353
v -0.22296228 0.01503155 -14.95183754 0.25098039 0.27450980 0.65882353
v -0.22620614 0.01241131 -14.95521736 0.25098039 0.27450980 0.65882353
v -0.22451258 0.00881164 -14.95366859 0.25098039 0.27450980 0.65882353
v -0.22197331 0.01150756 -14.95062828 0.25098039 0.27450980 0.65882353
v -0.22725168 0.01695339 -14.95477390 0.25098039 0.27450980 0.65882353
v -0.21776670 0.00978447 -14.94980717 0.25098039 0.27450980 0.65882353
v -0.21667388 0.00875251 -14.94985962 0.25098039 0.27450980 0.65882353
v -0.22527406 0.02151898 -14.95329094 0.25098039 0.27450980 0.65882353
v -0.21736547 0.02254190 -14.95526505 0.25098039 0.27450980 0.65882353
v -0.21565312 0.01576196 -14.95398331 0.25098039 0.27450980 0.65882353
v -0.21508083 0.01086825 -14.95261383 0.25098039 0.27450980 0.65882353
v -0.21605170 0.00729254 -14.95164776 0.25098039 0.27450980 0.65882353
v -0.21502328 0.01620287 -14.95666122 0.25098039 0.27450980 0.65882353
v -0.21410663 0.01037237 -14.95489502 0.25098039 0.27450980 0.65882353
v -0.21527934 0.00694820 -14.95424938 0.25098039 0.27450980 0.65882353
v -0.21530905 0.01584888 -14.96009922 0.25098039 0.27450980 0.65882353
v -0.21487659 0.01040775 -14.95768452 0.25098039 0.27450980 0.65882353
v -0.21718036 0.02260677 -14.96206284 0.25098039 0.27450980 0.65882353
v -0.21663404 0.02276760 -14.95853424 0.25098039 0.27450980 0.65882353
v -0.21573260 0.00772817 -14.95607090 0.25098039 0.27450980 0.65882353
v -0.21995288 0.00678502 -14.95005417 0.25098039 0.27450980 0.65882353
v -0.21860597 0.00531229 -14.95246506 0.25098039 0.27450980 0.65882353
v -0.22082916 0.00798301 -14.94987965 0.25098039 0.27450980 0.65882353
v -0.22679594 0.01205947 -14.95659256 0.25098039 0.27450980 0.65882353
v -0.22472544 0.00756696 -14.95490837 0.25098039 0.27450980 0.65882353
v -0.22651312 0.01167408 -14.95921803 0.25098039 0.27450980 0.65882353
v -0.22382250 0.00687939 -14.95690727 0.25098039 0.27450980 0.65882353
v -0.22257027 0.00564077 -14.95263672 0.25098039 0.27450980 0.65882353
v -0.22285244 0.00742832 -14.95171261 0.25098039 0.27450980 0.65882353
v -0.21773121 0.02494417 -14.96235180 0.25098039 0.27450980 0.65882353
v -0.22090560 0.02418782 -14.96514320 0.25098039 0.27450980 0.65882353
v -0.22023262 0.02155504 -14.96474361 0.25098039 0.27450980 0.65882353
v -0.21781909 0.01483066 -14.96278000 0.25098039 0.27450980 0.65882353
v -0.22398487 0.01989494 -14.96554375 0.25098039 0.27450980 0.65882353
v -0.22697735 0.01855892 -14.96369553 0.25098039 0.27450980 0.65882353
v -0.22466603 0.01209398 -14.96142578 0.25098039 0.27450980 0.65882353
v -0.22172058 0.01290968 -14.96302700 0.25098039 0.27450980 0.65882353
v -0.22211008 0.00682259 -14.95852852 0.25098039 0.27450980 0.65882353
v -0.21966365 0.00798126 -14.96012878 0.25098039 0.27450980 0.65882353
v -0.21676897 0.00942117 -14.96004581 0.25098039 0.27450980 0.65882353
v -0.21977447 0.00519376 -14.95586300 0.25098039 0.27450980 0.65882353
v -0.22109096 0.00476152 -14.95438385 0.25098039 0.27450980 0.65882353
v -0.21778330 0.00555928 -14.95470428 0.25098039 0.27450980 0.65882353
v -0.21854116 0.00606182 -14.95736122 0.25098039 0.27450980 0.65882353
v -0.21711579 0.00676277 -14.95693398 0.25098039 0.27450980 0.65882353
v -0.23807243 0.05970653 -14.98125553 0.25098039 0.27450980 0.65882353
v -0.14271793 0.09608552 -15.00682259 0.25098039 0.27450980 0.65882353
v -0.14669518 0.09306388 -15.00387764 0.25098039 0.27450980 0.65882353
v -0.14981388 0.08045219 -15.01401711 0.25098039 0.27450980 0.65882353
v -0.15086143 0.08280676 -15.00737000 0.25098039 0.27450980 0.65882353
v -0.14631714 0.08121537 -15.01959896 0.25098039 0.27450980 0.65882353
v -0.14056288 0.08992544 -15.02202225 0.25098039 0.27450980 0.65882353
v -0.14388396 0.08547926 -15.02263451 0.25098039 0.27450980 0.65882353
v -0.14961797 0.08751202 -15.00393581 0.25098039 0.27450980 0.65882353
v -0.13979889 0.09747584 -15.01159477 0.25098039 0.27450980 0.65882353
v -0.13881244 0.09534491 -15.01831150 0.25098039 0.27450980 0.65882353
v -0.13323015 0.09338983 -15.00810528 0.25098039 0.27450980 0.65882353
v -0.13203971 0.09045964 -15.01512527 0.25098039 0.27450980 0.65882353
v -0.13348302 0.08473249 -15.01902103 0.25098039 0.27450980 0.65882353
v -0.13832259 0.08022094 -15.01971912 0.25098039 0.27450980 0.65882353
v -0.14170402 0.07729812 -15.01785278 0.25098039 0.27450980 0.65882353
v -0.13867947 0.09172358 -15.00370598 0.25098039 0.27450980 0.65882353
v -0.14297189 0.08859996 -15.00133705 0.25098039 0.27450980 0.65882353
v -0.14689384 0.08351661 -15.00268936 0.25098039 0.27450980 0.65882353
v -0.13516781 0.08564270 -14.99938679 0.25098039 0.27450980 0.65882353
v -0.12741849 0.07894856 -14.99957561 0.25098039 0.27450980 0.65882353
v -0.12160011 0.06243876 -15.00581646 0.25098039 0.27450980 0.65882353
v -0.12543218 0.06660300 -15.00948906 0.25098039 0.27450980 0.65882353
v -0.12360337 0.06815899 -15.00779057 0.25098039 0.27450980 0.65882353
v -0.11979283 0.06439872 -15.00508595 0.25098039 0.27450980 0.65882353
v -0.12657037 0.07172179 -15.01099777 0.25098039 0.27450980 0.65882353
v -0.12552492 0.07169189 -15.00877762 0.25098039 0.27450980 0.65882353
v -0.12558517 0.07554579 -15.00528812 0.25098039 0.27450980 0.65882353
v -0.12175676 0.07218893 -15.00310993 0.25098039 0.27450980 0.65882353
v -0.12614898 0.07658712 -15.00047970 0.25098039 0.27450980 0.65882353
v -0.12462248 0.07407246 -14.99784756 0.25098039 0.27450980 0.65882353
v -0.11866781 0.06863299 -15.00055313 0.25098039 0.27450980 0.65882353
v -0.11685508 0.06345409 -15.00230408 0.25098039 0.27450980 0.65882353
v -0.11626247 0.06525265 -14.99824047 0.25098039 0.27450980 0.65882353
v -0.11856505 0.06085826 -15.00175381 0.25098039 0.27450980 0.65882353
v -0.12424590 0.07745900 -15.00617599 0.25098039 0.27450980 0.65882353
v -0.13226424 0.07291567 -15.01544762 0.25098039 0.27450980 0.65882353
v -0.12918471 0.06585040 -15.01075172 0.25098039 0.27450980 0.65882353
v -0.12520923 0.06107219 -15.00570774 0.25098039 0.27450980 0.65882353
v -0.12144281 0.05957323 -15.00082111 0.25098039 0.27450980 0.65882353
v -0.13356803 0.06514421 -15.00953579 0.25098039 0.27450980 0.65882353
v -0.12962283 0.06135232 -15.00428009 0.25098039 0.27450980 0.65882353
v -0.12642777 0.06042047 -14.99937057 0.25098039 0.27450980 0.65882353
v -0.13697684 0.06573427 -15.00621605 0.25098039 0.27450980 0.65882353
v -0.13242133 0.06264527 -15.00171280 0.25098039 0.27450980 0.65882353
v -0.14363173 0.07498503 -15.01211834 0.25098039 0.27450980 0.65882353
v -0.13874216 0.07339340 -15.01577473 0.25098039 0.27450980 0.65882353
v -0.12904733 0.06171789 -14.99890423 0.25098039 0.27450980 0.65882353
v -0.11624832 0.06324590 -14.99655628 0.25098039 0.27450980 0.65882353
v -0.11985800 0.06181645 -14.99538803 0.25098039 0.27450980 0.65882353
v -0.12702121 0.07541363 -14.99547672 0.25098039 0.27450980 0.65882353
v -0.12103899 0.07122502 -14.99529076 0.25098039 0.27450980 0.65882353
v -0.12358610 0.07104510 -14.99319077 0.25098039 0.27450980 0.65882353
v -0.13089530 0.07632814 -14.99411869 0.25098039 0.27450980 0.65882353
v -0.12626326 0.07054520 -14.99165440 0.25098039 0.27450980 0.65882353
v -0.11943844 0.06711391 -14.99308586 0.25098039 0.27450980 0.65882353
v -0.11819822 0.06825303 -14.99544811 0.25098039 0.27450980 0.65882353
v -0.14605318 0.07739798 -15.01351547 0.25098039 0.27450980 0.65882353
v -0.14817855 0.07998420 -15.00775051 0.25098039 0.27450980 0.65882353
v -0.14555913 0.07803485 -15.00633907 0.25098039 0.27450980 0.65882353
v -0.13913153 0.06917308 -15.00128555 0.25098039 0.27450980 0.65882353
v -0.14429204 0.08071102 -15.00098228 0.25098039 0.27450980 0.65882353
v -0.13965601 0.08389021 -14.99876785 0.25098039 0.27450980 0.65882353
v -0.13465291 0.07508349 -14.99394894 0.25098039 0.27450980 0.65882353
v -0.13810900 0.07254644 -14.99638653 0.25098039 0.27450980 0.65882353
v -0.12969795 0.06892180 -14.99218845 0.25098039 0.27450980 0.65882353
v -0.13191938 0.06741732 -14.99393749 0.25098039 0.27450980 0.65882353
v -0.13322219 0.06436297 -14.99772167 0.25098039 0.27450980 0.65882353
v -0.12608600 0.06514235 -14.99266529 0.25098039 0.27450980 0.65882353
v -0.12256685 0.06615841 -14.99187374 0.25098039 0.27450980 0.65882353
v -0.12481624 0.06195603 -14.99525166 0.25098039 0.27450980 0.65882353
v -0.12877753 0.06512076 -14.99404526 0.25098039 0.27450980 0.65882353
v -0.12849264 0.06298106 -14.99615669 0.25098039 0.27450980 0.65882353
v -0.23125635 0.06315444 -14.99147892 0.25098039 0.27450980 0.65882353
v -0.22473989 0.06334931 -14.99062443 0.25098039 0.27450980 0.65882353
v -0.22768566 0.06647757 -14.99604988 0.25098039 0.27450980 0.65882353
v -0.23058262 0.07276431 -15.00318432 0.25098039 0.27450980 0.65882353
v -0.23838377 0.07826747 -15.00908661 0.25098039 0.27450980 0.65882353
v -0.22419925 0.07490768 -15.00256729 0.25098039 0.27450980 0.65882353
v -0.22174607 0.06870622 -14.99498463 0.25098039 0.27450980 0.65882353
v -0.21823846 0.06401425 -14.98660946 0.25098039 0.27450980 0.65882353
v -0.21991873 0.08302526 -15.00734138 0.25098039 0.27450980 0.65882353
f 2 3 1
f 1 3 4
f 5 6 8
f 8 6 7
f 9 4 10
f 10 4 3
f 12 13 11
f 11 13 9
f 14 12 16
f 16 12 15
f 18 19 17
f 17 19 20
f 22 23 21
f 21 23 24
f 26 27 25
f 25 27 28
f 30 31 29
f 29 31 32
f 33 34 36
f 36 34 35
f 37 38 40
f 40 38 39
f 41 42 6
f 6 42 43
f 6 43 7
f 7 43 44
f 45 34 46
f 46 34 33
f 48 49 47
f 47 49 50
f 52 53 51
f 51 53 54
f 56 52 55
f 55 52 51
f 58 59 57
f 57 59 60
f 61 62 4
f 4 62 1
f 64 65 63
f 63 65 66
f 68 69 67
f 67 69 70
f 72 73 71
f 71 73 74
f 76 77 75
f 75 77 78
f 53 79 54
f 54 79 80
f 82 83 81
f 81 83 84
f 85 86 52
f 52 86 53
f 57 60 87
f 87 60 88
f 89 90 43
f 43 90 44
f 43 42 89
f 89 42 91
f 40 39 92
f 92 39 93
f 94 70 64
f 64 70 69
f 13 61 9
f 9 61 4
f 25 28 69
f 69 28 95
f 96 25 68
f 68 25 69
f 98 99 97
f 97 99 100
f 101 102 104
f 104 102 103
f 106 30 105
f 105 30 29
f 51 54 107
f 107 54 108
f 54 80 108
f 108 80 109
f 111 112 110
f 110 112 113
f 115 5 114
f 114 5 116
f 115 41 5
f 5 41 6
f 36 35 111
f 111 35 117
f 35 118 117
f 117 118 119
f 34 120 35
f 35 120 118
f 34 45 120
f 120 45 121
f 125 126 124
f 124 126 127
f 128 129 14
f 14 129 130
f 33 131 46
f 46 131 132
f 133 94 63
f 63 94 64
f 134 135 137
f 137 135 136
f 139 140 138
f 138 140 141
f 77 142 78
f 78 142 143
f 144 145 20
f 20 145 146
f 148 149 147
f 147 149 72
f 151 152 150
f 150 152 153
f 82 101 83
f 83 101 104
f 101 82 155
f 155 82 154
f 156 157 58
f 58 157 59
f 158 68 147
f 147 68 67
f 159 146 15
f 15 146 16
f 68 158 96
f 96 158 160
f 129 66 130
f 130 66 65
f 162 163 161
f 161 163 164
f 166 167 165
f 165 167 168
f 170 171 169
f 169 171 172
f 174 171 173
f 173 171 170
f 176 177 175
f 175 177 178
f 180 181 179
f 179 181 24
f 182 183 21
f 21 183 184
f 81 185 82
f 82 185 154
f 186 187 188
f 188 187 144
f 158 71 160
f 160 71 189
f 190 135 157
f 157 135 59
f 169 172 139
f 139 172 140
f 147 72 158
f 158 72 71
f 192 193 191
f 191 193 194
f 167 166 49
f 49 166 195
f 196 190 50
f 50 190 157
f 197 198 200
f 200 198 199
f 21 24 182
f 182 24 181
f 146 159 20
f 20 159 17
f 182 181 81
f 81 181 185
f 201 185 180
f 180 185 181
f 202 203 83
f 83 203 84
f 205 206 204
f 204 206 85
f 207 22 184
f 184 22 21
f 179 24 208
f 208 24 23
f 208 209 179
f 179 209 205
f 209 210 205
f 205 210 206
f 212 206 211
f 211 206 210
f 179 205 180
f 180 205 204
f 213 176 88
f 88 176 214
f 86 85 212
f 212 85 206
f 193 217 218
f 217 219 218
f 218 219 220
f 219 18 220
f 220 18 17
f 19 221 20
f 20 221 144
f 222 223 225
f 225 223 224
f 175 226 176
f 176 226 214
f 227 87 214
f 214 87 88
f 220 17 228
f 228 17 159
f 134 213 60
f 60 213 88
f 138 229 151
f 151 229 152
f 193 192 210
f 210 192 211
f 230 194 218
f 218 194 193
f 231 232 228
f 228 232 230
f 233 234 91
f 91 234 89
f 235 236 93
f 93 236 92
f 230 232 234
f 234 232 237
f 47 238 48
f 48 238 239
f 240 191 235
f 235 191 236
f 5 8 116
f 116 8 241
f 242 243 189
f 189 243 160
f 244 245 98
f 98 245 99
f 156 246 47
f 47 246 238
f 76 247 77
f 77 247 248
f 250 125 249
f 249 125 124
f 252 253 251
f 251 253 254
f 111 110 36
f 36 110 255
f 256 33 255
f 255 33 36
f 257 258 154
f 154 258 155
f 63 169 133
f 133 169 139
f 66 170 63
f 63 170 169
f 173 170 129
f 129 170 66
f 129 128 173
f 173 128 259
f 128 260 259
f 259 260 261
f 213 134 262
f 262 134 137
f 263 264 186
f 186 264 187
f 112 265 113
f 113 265 266
f 11 267 268
f 234 233 230
f 230 233 194
f 153 269 70
f 70 269 67
f 175 178 165
f 165 178 141
f 150 153 94
f 94 153 70
f 271 221 270
f 270 221 207
f 269 153 272
f 272 153 152
f 121 45 109
f 109 45 108
f 47 50 156
f 156 50 157
f 57 273 58
f 58 273 274
f 145 275 260
f 260 275 261
f 276 149 143
f 143 149 78
f 148 269 75
f 75 269 272
f 207 277 270
f 270 277 278
f 195 196 49
f 49 196 50
f 59 135 60
f 60 135 134
f 83 104 202
f 202 104 279
f 149 148 78
f 78 148 75
f 247 278 248
f 248 278 277
f 183 182 84
f 84 182 81
f 48 239 281
f 281 239 282
f 227 223 283
f 283 223 222
f 223 226 224
f 224 226 168
f 281 282 224
f 224 282 225
f 165 168 175
f 175 168 226
f 264 263 138
f 138 263 229
f 14 16 128
f 128 16 260
f 220 228 218
f 218 228 230
f 87 227 284
f 284 227 283
f 260 16 145
f 145 16 146
f 244 98 258
f 258 98 155
f 58 274 156
f 156 274 246
f 107 285 51
f 51 285 55
f 243 286 160
f 160 286 96
f 234 237 89
f 89 237 90
f 46 132 107
f 107 132 285
f 253 252 249
f 249 252 250
f 286 26 96
f 96 26 25
f 106 105 287
f 287 105 288
f 272 152 289
f 289 152 229
f 138 151 139
f 139 151 133
f 183 290 161
f 161 290 162
f 291 292 277
f 277 292 293
f 151 150 133
f 133 150 94
f 262 275 177
f 177 275 187
f 144 187 145
f 145 187 275
f 273 57 284
f 284 57 87
f 174 136 190
f 190 136 135
f 111 117 112
f 112 117 38
f 117 119 38
f 38 119 123
f 112 38 265
f 265 38 37
f 287 288 254
f 254 288 251
f 228 159 231
f 231 159 15
f 223 227 226
f 226 227 214
f 147 67 148
f 148 67 269
f 224 168 281
f 281 168 167
f 199 163 200
f 200 163 162
f 45 46 108
f 108 46 107
f 281 167 48
f 48 167 49
f 161 164 291
f 291 164 292
f 38 123 39
f 293 294 277
f 277 294 248
f 284 283 296
f 296 283 295
f 284 296 273
f 273 296 297
f 274 273 298
f 298 273 297
f 246 274 299
f 299 274 298
f 283 222 295
f 295 222 300
f 222 225 300
f 300 225 301
f 301 225 302
f 302 225 282
f 303 304 300
f 300 304 295
f 306 307 305
f 305 307 308
f 309 310 308
f 308 310 305
f 308 307 312
f 312 307 311
f 313 314 312
f 312 314 315
f 311 316 312
f 312 316 313
f 317 304 311
f 311 304 316
f 315 309 312
f 312 309 308
f 318 319 321
f 321 319 320
f 319 318 309
f 309 318 310
f 311 307 317
f 317 307 306
f 306 297 317
f 317 297 296
f 306 322 297
f 297 322 298
f 305 323 306
f 306 323 322
f 323 305 324
f 324 305 310
f 304 317 295
f 295 317 296
f 318 325 310
f 310 325 324
f 323 324 326
f 326 324 327
f 324 325 327
f 327 325 328
f 326 327 329
f 329 327 330
f 329 331 326
f 326 331 332
f 333 330 328
f 328 330 327
f 323 326 322
f 322 326 332
f 322 332 298
f 298 332 299
f 325 318 334
f 334 318 321
f 313 316 335
f 335 316 304
f 335 336 313
f 313 336 314
f 304 303 335
f 335 303 337
f 336 335 338
f 338 335 337
f 336 339 314
f 314 339 340
f 246 299 238
f 238 299 341
f 239 342 282
f 282 342 302
f 342 239 341
f 341 239 238
f 341 331 342
f 342 331 343
f 331 329 343
f 343 329 344
f 342 343 302
f 302 343 345
f 341 299 331
f 331 299 332
f 346 301 345
f 345 301 302
f 346 303 301
f 301 303 300
f 347 337 346
f 346 337 303
f 347 346 348
f 348 346 345
f 349 347 350
f 350 347 348
f 343 344 345
f 345 344 348
f 344 351 348
f 348 351 350
f 337 347 338
f 338 347 349
f 353 338 352
f 352 338 349
f 352 355 354
f 354 355 356
f 352 349 355
f 355 349 350
f 352 354 353
f 353 354 334
f 353 334 339
f 339 334 321
f 339 336 353
f 353 336 338
f 329 330 344
f 344 330 351
f 356 351 333
f 333 351 330
f 356 355 351
f 351 355 350
f 354 356 328
f 328 356 333
f 328 325 354
f 354 325 334
f 309 315 319
f 319 315 320
f 320 340 321
f 321 340 339
f 320 315 340
f 340 315 314
f 137 136 261
f 261 136 259
f 140 166 141
f 141 166 165
f 172 171 195
f 195 171 196
f 171 174 196
f 196 174 190
f 178 177 264
f 264 177 187
f 172 195 140
f 140 195 166
f 137 261 262
f 262 261 275
f 178 264 141
f 141 264 138
f 262 177 213
f 213 177 176
f 136 174 259
f 259 174 173
f 358 359 357
f 357 359 360
f 362 363 361
f 361 363 364
f 361 364 365
f 365 364 366
f 367 368 370
f 370 368 369
f 76 371 247
f 247 371 372
f 373 374 362
f 362 374 363
f 376 377 375
f 375 377 378
f 289 229 380
f 380 229 379
f 381 379 263
f 263 379 229
f 383 384 382
f 382 384 385
f 386 368 374
f 374 368 363
f 76 289 371
f 371 289 380
f 377 376 359
f 359 376 387
f 388 386 360
f 360 386 374
f 389 383 366
f 366 383 390
f 392 393 391
f 391 393 394
f 383 382 390
f 390 382 395
f 396 365 390
f 390 365 366
f 389 366 367
f 367 366 364
f 357 397 358
f 358 397 398
f 373 399 357
f 357 399 397
f 389 367 400
f 400 367 370
f 382 385 375
f 375 385 372
f 357 360 373
f 373 360 374
f 361 401 362
f 362 401 402
f 387 388 359
f 359 388 360
f 363 368 364
f 364 368 367
f 358 398 403
f 403 398 404
f 396 392 405
f 405 392 391
f 392 395 393
f 393 395 378
f 393 403 394
f 394 403 404
f 375 378 382
f 382 378 395
f 365 396 406
f 406 396 405
f 362 402 373
f 373 402 399
f 271 270 400
f 400 270 384
f 401 361 406
f 406 361 365
f 381 369 386
f 386 369 368
f 392 396 395
f 395 396 390
f 393 378 403
f 403 378 377
f 403 377 358
f 358 377 359
f 406 405 408
f 408 405 407
f 406 408 401
f 401 408 409
f 401 409 402
f 402 409 410
f 402 410 399
f 399 410 411
f 405 391 407
f 407 391 412
f 391 394 412
f 412 394 413
f 394 404 413
f 413 404 414
f 415 416 412
f 412 416 407
f 418 419 417
f 417 419 420
f 421 422 418
f 418 422 419
f 419 422 424
f 424 422 423
f 425 426 424
f 424 426 427
f 423 428 424
f 424 428 425
f 427 420 424
f 424 420 419
f 420 429 417
f 417 429 430
f 423 422 431
f 431 422 421
f 421 409 431
f 431 409 408
f 421 432 409
f 409 432 410
f 418 433 421
f 421 433 432
f 434 433 417
f 417 433 418
f 431 416 423
f 423 416 428
f 416 431 407
f 407 431 408
f 435 434 430
f 430 434 417
f 433 434 436
f 436 434 437
f 434 435 437
f 437 435 438
f 436 437 439
f 439 437 440
f 439 441 436
f 436 441 442
f 438 443 437
f 437 443 440
f 436 442 433
f 433 442 432
f 432 442 410
f 410 442 411
f 435 430 445
f 445 430 444
f 430 429 444
f 444 429 446
f 425 428 447
f 447 428 416
f 426 425 448
f 448 425 447
f 416 415 447
f 447 415 449
f 447 449 448
f 448 449 450
f 451 452 448
f 448 452 426
f 446 452 444
f 444 452 451
f 399 411 397
f 397 411 453
f 398 454 404
f 404 454 414
f 454 398 453
f 453 398 397
f 453 441 454
f 454 441 455
f 441 439 455
f 455 439 456
f 454 455 414
f 414 455 457
f 441 453 442
f 442 453 411
f 458 413 457
f 457 413 414
f 458 415 413
f 413 415 412
f 458 459 415
f 415 459 449
f 459 458 460
f 460 458 457
f 461 459 462
f 462 459 460
f 455 456 457
f 457 456 460
f 456 463 460
f 460 463 462
f 459 461 449
f 449 461 450
f 465 450 464
f 464 450 461
f 464 467 466
f 466 467 468
f 464 461 467
f 467 461 462
f 464 466 465
f 465 466 445
f 465 445 451
f 451 445 444
f 451 448 465
f 465 448 450
f 439 440 456
f 456 440 463
f 468 463 443
f 443 463 440
f 468 467 463
f 463 467 462
f 466 468 438
f 438 468 443
f 438 435 466
f 466 435 445
f 420 427 429
f 429 427 446
f 446 427 452
f 452 427 426
f 370 369 188
f 188 369 186
f 371 376 372
f 372 376 375
f 380 379 387
f 387 379 388
f 379 381 388
f 388 381 386
f 385 384 278
f 278 384 270
f 380 387 371
f 371 387 376
f 400 370 271
f 271 370 188
f 385 278 372
f 372 278 247
f 400 384 389
f 389 384 383
f 369 381 186
f 186 381 263
f 221 271 144
f 144 271 188
f 221 19 207
f 207 19 22
f 19 18 22
f 22 18 23
f 18 219 23
f 23 219 208
f 469 470 472
f 472 470 471
f 474 475 473
f 473 475 476
f 473 476 477
f 477 476 478
f 480 481 479
f 479 481 482
f 483 484 474
f 474 484 475
f 486 487 485
f 485 487 488
f 489 490 77
f 77 490 142
f 491 489 248
f 248 489 77
f 493 494 492
f 492 494 495
f 496 480 484
f 484 480 475
f 486 497 487
f 487 497 471
f 498 496 472
f 472 496 484
f 499 493 478
f 478 493 500
f 501 502 504
f 504 502 503
f 493 492 500
f 500 492 505
f 506 477 500
f 500 477 478
f 499 478 479
f 479 478 476
f 469 507 470
f 470 507 508
f 483 509 469
f 469 509 507
f 479 482 499
f 499 482 510
f 492 495 485
f 485 495 511
f 483 469 484
f 484 469 472
f 473 512 474
f 474 512 513
f 497 498 471
f 471 498 472
f 475 480 476
f 476 480 479
f 470 508 514
f 514 508 515
f 506 502 516
f 516 502 501
f 503 502 488
f 488 502 505
f 514 515 503
f 503 515 504
f 485 488 492
f 492 488 505
f 477 506 517
f 517 506 516
f 474 513 483
f 483 513 509
f 510 292 494
f 494 292 164
f 512 473 517
f 517 473 477
f 491 481 496
f 496 481 480
f 502 506 505
f 505 506 500
f 503 488 514
f 514 488 487
f 514 487 470
f 470 487 471
f 517 516 519
f 519 516 518
f 517 519 512
f 512 519 520
f 512 520 513
f 513 520 521
f 513 521 509
f 509 521 522
f 516 501 518
f 518 501 523
f 501 504 523
f 523 504 524
f 524 504 525
f 525 504 515
f 526 527 523
f 523 527 518
f 529 530 528
f 528 530 531
f 532 533 529
f 529 533 530
f 530 533 535
f 535 533 534
f 536 537 535
f 535 537 538
f 534 539 535
f 535 539 536
f 538 531 535
f 535 531 530
f 540 541 531
f 531 541 528
f 533 532 534
f 534 532 542
f 532 520 542
f 542 520 519
f 532 543 520
f 520 543 521
f 529 544 532
f 532 544 543
f 544 529 545
f 545 529 528
f 534 542 539
f 539 542 527
f 527 542 518
f 518 542 519
f 541 546 528
f 528 546 545
f 547 544 548
f 548 544 545
f 546 549 545
f 545 549 548
f 550 547 551
f 551 547 548
f 547 550 553
f 553 550 552
f 549 554 548
f 548 554 551
f 544 547 543
f 543 547 553
f 543 553 521
f 521 553 522
f 546 541 556
f 556 541 555
f 541 540 555
f 555 540 557
f 536 539 558
f 558 539 527
f 537 536 559
f 559 536 558
f 527 526 558
f 558 526 560
f 559 558 561
f 561 558 560
f 559 562 537
f 537 562 563
f 557 563 555
f 555 563 562
f 509 522 507
f 507 522 564
f 508 565 515
f 515 565 525
f 565 508 564
f 564 508 507
f 564 552 565
f 565 552 566
f 552 550 566
f 566 550 567
f 565 566 525
f 525 566 568
f 564 522 552
f 552 522 553
f 569 524 568
f 568 524 525
f 569 526 524
f 524 526 523
f 570 560 569
f 569 560 526
f 570 569 571
f 571 569 568
f 572 570 573
f 573 570 571
f 566 567 568
f 568 567 571
f 567 574 571
f 571 574 573
f 570 572 560
f 560 572 561
f 576 561 575
f 575 561 572
f 575 578 577
f 577 578 579
f 575 572 578
f 578 572 573
f 575 577 576
f 576 577 556
f 576 556 562
f 562 556 555
f 562 559 576
f 576 559 561
f 550 551 567
f 567 551 574
f 579 574 554
f 554 574 551
f 579 578 574
f 574 578 573
f 579 554 577
f 577 554 549
f 549 546 577
f 577 546 556
f 531 538 540
f 540 538 557
f 557 538 563
f 563 538 537
f 481 294 482
f 482 294 293
f 580 486 511
f 511 486 485
f 490 489 497
f 497 489 498
f 489 491 498
f 498 491 496
f 163 495 164
f 164 495 494
f 580 490 486
f 486 490 497
f 482 293 510
f 510 293 292
f 495 163 511
f 511 163 199
f 494 493 510
f 510 493 499
f 481 491 294
f 294 491 248
f 582 583 581
f 581 583 584
f 586 587 585
f 585 587 588
f 585 588 589
f 589 588 590
f 592 593 591
f 591 593 594
f 595 596 598
f 598 596 597
f 599 600 586
f 586 600 587
f 601 602 604
f 604 602 603
f 605 606 608
f 608 606 607
f 609 607 200
f 200 607 606
f 610 611 613
f 613 611 612
f 600 614 587
f 587 614 592
f 596 605 597
f 597 605 608
f 602 615 603
f 603 615 583
f 616 614 584
f 584 614 600
f 611 618 617
f 617 618 590
f 620 621 619
f 619 621 622
f 610 623 611
f 611 623 618
f 624 589 618
f 618 589 590
f 617 590 591
f 591 590 588
f 581 625 582
f 582 625 626
f 599 627 581
f 581 627 625
f 591 594 617
f 617 594 628
f 601 610 598
f 598 610 613
f 581 584 599
f 599 584 600
f 585 629 586
f 586 629 630
f 615 616 583
f 583 616 584
f 587 592 588
f 588 592 591
f 582 626 631
f 631 626 632
f 624 620 633
f 633 620 619
f 621 620 604
f 604 620 623
f 631 632 621
f 621 632 622
f 610 601 623
f 623 601 604
f 589 624 634
f 634 624 633
f 586 630 599
f 599 630 627
f 203 202 628
f 628 202 612
f 629 585 634
f 634 585 589
f 609 593 614
f 614 593 592
f 620 624 623
f 623 624 618
f 631 621 603
f 603 621 604
f 582 631 583
f 583 631 603
f 634 633 636
f 636 633 635
f 634 636 629
f 629 636 637
f 629 637 630
f 630 637 638
f 630 638 627
f 627 638 639
f 633 619 635
f 635 619 640
f 619 622 640
f 640 622 641
f 641 622 642
f 642 622 632
f 644 635 643
f 643 635 640
f 645 646 648
f 648 646 647
f 649 650 646
f 646 650 647
f 647 650 652
f 652 650 651
f 652 653 655
f 655 653 654
f 651 656 652
f 652 656 653
f 655 648 652
f 652 648 647
f 648 657 645
f 645 657 658
f 650 649 651
f 651 649 659
f 649 637 659
f 659 637 636
f 649 660 637
f 637 660 638
f 661 660 646
f 646 660 649
f 662 661 645
f 645 661 646
f 651 659 656
f 656 659 644
f 644 659 635
f 635 659 636
f 663 662 658
f 658 662 645
f 664 661 665
f 665 661 662
f 663 666 662
f 662 666 665
f 667 664 668
f 668 664 665
f 664 667 670
f 670 667 669
f 666 671 665
f 665 671 668
f 661 664 660
f 660 664 670
f 660 670 638
f 638 670 639
f 658 672 663
f 663 672 673
f 658 657 672
f 672 657 674
f 653 656 675
f 675 656 644
f 653 675 654
f 654 675 676
f 675 644 677
f 677 644 643
f 676 675 678
f 678 675 677
f 679 680 676
f 676 680 654
f 674 680 672
f 672 680 679
f 627 639 625
f 625 639 681
f 626 682 632
f 632 682 642
f 681 682 625
f 625 682 626
f 669 683 681
f 681 683 682
f 667 684 669
f 669 684 683
f 682 683 642
f 642 683 685
f 681 639 669
f 669 639 670
f 686 641 685
f 685 641 642
f 641 686 640
f 640 686 643
f 686 687 643
f 643 687 677
f 687 686 688
f 688 686 685
f 689 687 690
f 690 687 688
f 683 684 685
f 685 684 688
f 684 691 688
f 688 691 690
f 687 689 677
f 677 689 678
f 693 678 692
f 692 678 689
f 692 695 694
f 694 695 696
f 692 689 695
f 695 689 690
f 692 694 693
f 693 694 673
f 693 673 679
f 679 673 672
f 679 676 693
f 693 676 678
f 684 667 691
f 691 667 668
f 696 691 671
f 671 691 668
f 696 695 691
f 691 695 690
f 694 696 666
f 666 696 671
f 666 663 694
f 694 663 673
f 648 655 657
f 657 655 674
f 674 655 680
f 680 655 654
f 593 162 594
f 594 162 290
f 598 597 601
f 601 597 602
f 615 608 616
f 616 608 607
f 607 609 616
f 616 609 614
f 697 595 613
f 613 595 598
f 597 608 602
f 602 608 615
f 594 290 628
f 628 290 203
f 628 612 617
f 617 612 611
f 593 609 162
f 162 609 200
f 105 29 698
f 698 29 699
f 268 126 701
f 701 126 700
f 126 125 700
f 700 125 702
f 252 703 250
f 250 703 704
f 32 268 705
f 705 268 701
f 288 105 706
f 706 105 698
f 29 32 699
f 699 32 705
f 707 251 706
f 706 251 288
f 250 704 125
f 125 704 702
f 703 252 707
f 707 252 251
f 706 708 707
f 707 708 709
f 707 709 703
f 703 709 710
f 703 710 704
f 704 710 711
f 704 711 702
f 702 711 712
f 706 698 708
f 708 698 713
f 698 699 713
f 713 699 714
f 699 705 714
f 714 705 715
f 717 708 716
f 716 708 713
f 719 720 718
f 718 720 721
f 722 723 719
f 719 723 720
f 724 725 723
f 723 725 720
f 724 726 725
f 725 726 727
f 728 721 725
f 725 721 720
f 721 728 729
f 729 728 730
f 729 731 721
f 721 731 718
f 724 723 732
f 732 723 722
f 722 710 732
f 732 710 709
f 722 733 710
f 710 733 711
f 719 734 722
f 722 734 733
f 734 719 735
f 735 719 718
f 724 732 726
f 726 732 717
f 717 732 708
f 708 732 709
f 731 736 718
f 718 736 735
f 737 734 738
f 738 734 735
f 736 739 735
f 735 739 738
f 740 737 741
f 741 737 738
f 737 740 743
f 743 740 742
f 739 744 738
f 738 744 741
f 734 737 733
f 733 737 743
f 733 743 711
f 711 743 712
f 736 731 746
f 746 731 745
f 731 729 745
f 745 729 730
f 727 726 747
f 747 726 717
f 748 727 749
f 749 727 747
f 747 717 750
f 750 717 716
f 749 747 751
f 751 747 750
f 749 752 748
f 748 752 753
f 730 753 745
f 745 753 752
f 728 725 748
f 748 725 727
f 730 728 753
f 753 728 748
f 700 702 754
f 754 702 712
f 705 701 715
f 715 701 755
f 754 755 700
f 700 755 701
f 742 756 754
f 754 756 755
f 740 757 742
f 742 757 756
f 755 756 715
f 715 756 758
f 754 712 742
f 742 712 743
f 759 714 758
f 758 714 715
f 714 759 713
f 713 759 716
f 759 760 716
f 716 760 750
f 760 759 761
f 761 759 758
f 762 760 763
f 763 760 761
f 756 757 758
f 758 757 761
f 757 764 761
f 761 764 763
f 760 762 750
f 750 762 751
f 766 751 765
f 765 751 762
f 767 765 769
f 769 765 768
f 765 762 768
f 768 762 763
f 765 767 766
f 766 767 746
f 766 746 752
f 752 746 745
f 752 749 766
f 766 749 751
f 757 740 764
f 764 740 741
f 769 764 744
f 744 764 741
f 769 768 764
f 764 768 763
f 767 769 739
f 739 769 744
f 739 736 767
f 767 736 746
f 219 217 208
f 208 217 209
f 209 217 210
f 210 217 193
f 198 580 199
f 199 580 511
f 76 75 289
f 289 75 272
f 277 207 291
f 291 207 184
f 290 183 203
f 203 183 84
f 490 580 142
f 142 580 198
f 142 198 143
f 143 198 197
f 149 276 72
f 72 276 73
f 104 103 279
f 279 103 770
f 770 596 279
f 279 596 595
f 605 596 771
f 771 596 770
f 771 770 772
f 772 770 103
f 772 103 773
f 773 103 102
f 155 774 101
f 101 774 102
f 773 102 97
f 97 102 774
f 775 773 100
f 100 773 97
f 773 775 772
f 772 775 776
f 772 776 771
f 771 776 777
f 200 606 197
f 197 606 777
f 189 71 778
f 778 71 74
f 97 774 98
f 98 774 155
f 183 161 184
f 184 161 291
f 777 276 197
f 197 276 143
f 777 606 771
f 771 606 605
f 613 612 697
f 697 612 202
f 595 697 279
f 279 697 202
f 73 276 776
f 776 276 777
f 776 775 73
f 73 775 74
f 100 778 775
f 775 778 74
f 778 100 189
f 189 100 99
f 245 242 99
f 99 242 189
f 131 33 256
f 28 1 95
f 95 1 62
f 27 2 28
f 28 2 1
f 265 115 266
f 266 115 114
f 95 62 69
f 69 62 64
f 62 61 64
f 64 61 65
f 61 13 65
f 65 13 130
f 13 12 130
f 130 12 14
f 31 11 32
f 32 11 268
f 15 12 31
f 31 12 11
f 31 30 15
f 15 30 231
f 30 106 231
f 231 106 232
f 287 237 106
f 106 237 232
f 254 90 287
f 287 90 237
f 253 44 254
f 254 44 90
f 253 249 44
f 44 249 7
f 267 127 268
f 268 127 126
f 10 3 241
f 241 3 116
f 3 2 116
f 116 2 114
f 2 27 114
f 114 27 266
f 27 26 266
f 266 26 113
f 26 286 113
f 113 286 110
f 286 243 110
f 110 243 255
f 243 242 255
f 255 242 256
f 242 245 256
f 256 245 131
f 245 244 131
f 131 244 132
f 265 37 115
f 115 37 41
f 41 37 42
f 42 37 40
f 92 91 40
f 40 91 42
f 236 233 92
f 92 233 91
f 191 194 236
f 236 194 233
f 258 285 244
f 244 285 132
f 257 55 258
f 258 55 285
f 257 154 201
f 201 154 185
f 56 201 204
f 204 201 180
f 55 257 56
f 56 257 201
f 204 85 56
f 56 85 52
f 86 122 53
f 53 122 79
f 212 215 86
f 86 215 122
f 211 216 212
f 212 216 215
f 192 280 211
f 211 280 216
f 191 240 192
f 192 240 280
f 249 124 7
f 7 124 8
f 124 127 8
f 8 127 241
f 127 267 241
f 241 267 10
f 10 267 9
f 9 267 11
f 93 39 235
f 235 39 240
f 39 123 240
f 240 123 280
f 123 119 280
f 280 119 216
f 119 118 216
f 216 118 215
f 118 120 215
f 215 120 122
f 120 121 122
f 122 121 79
f 121 109 79
f 79 109 80

