# https://github.com/mikedh/trimesh
v -0.09141645 0.03654139 -14.95478725 0.25098039 0.27450980 0.65882353
v -0.09929817 0.04126732 -14.95924282 0.25098039 0.27450980 0.65882353
v -0.09296446 0.03638640 -14.96659565 0.25098039 0.27450980 0.65882353
v -0.08427688 0.03251327 -14.96050262 0.25098039 0.27450980 0.65882353
v -0.10983939 0.04786968 -14.97779846 0.25098039 0.27450980 0.65882353
v -0.10830250 0.05833951 -14.98449612 0.25098039 0.27450980 0.65882353
v -0.09874977 0.04749025 -14.99029160 0.25098039 0.27450980 0.65882353
v -0.10201304 0.04018660 -14.98436165 0.25098039 0.27450980 0.65882353
v -0.07774723 0.03059191 -14.96423435 0.25098039 0.27450980 0.65882353
v -0.08790222 0.03147687 -14.97198772 0.25098039 0.27450980 0.65882353
v -0.07380497 0.03391600 -14.96668339 0.25098039 0.27450980 0.65882353
v -0.06380822 0.03645283 -14.95389080 0.25098039 0.27450980 0.65882353
v -0.06901546 0.03221310 -14.95524216 0.25098039 0.27450980 0.65882353
v -0.05907165 0.03449897 -14.94576740 0.25098039 0.27450980 0.65882353
v -0.06423962 0.04608363 -14.94986439 0.25098039 0.27450980 0.65882353
v -0.06028540 0.03802437 -14.93688965 0.25098039 0.27450980 0.65882353
v -0.08341138 0.04958145 -14.92366314 0.25098039 0.27450980 0.65882353
v -0.09487382 0.04706867 -14.91752625 0.25098039 0.27450980 0.65882353
v -0.08691864 0.03465484 -14.91257191 0.25098039 0.27450980 0.65882353
v -0.07615891 0.03814954 -14.91989899 0.25098039 0.27450980 0.65882353
v -0.10664606 0.03208166 -14.91034889 0.25098039 0.27450980 0.65882353
v -0.09539680 0.03285728 -14.91097546 0.25098039 0.27450980 0.65882353
v -0.10311440 0.04602360 -14.91513348 0.25098039 0.27450980 0.65882353
v -0.11295535 0.04484437 -14.91427326 0.25098039 0.27450980 0.65882353
v -0.10582873 0.03953116 -14.94730759 0.25098039 0.27450980 0.65882353
v -0.11350553 0.04519223 -14.95098877 0.25098039 0.27450980 0.65882353
v -0.10785583 0.04484823 -14.95236683 0.25098039 0.27450980 0.65882353
v -0.10069101 0.03980290 -14.94956684 0.25098039 0.27450980 0.65882353
v -0.07192834 0.03893311 -14.98024464 0.25098039 0.27450980 0.65882353
v -0.07118808 0.04909005 -14.97010803 0.25098039 0.27450980 0.65882353
v -0.07007618 0.04176368 -14.96703053 0.25098039 0.27450980 0.65882353
v -0.07459396 0.03419837 -14.97939873 0.25098039 0.27450980 0.65882353
v -0.13753431 0.05757216 -14.95919895 0.25098039 0.27450980 0.65882353
v -0.14147007 0.07086402 -14.95896816 0.25098039 0.27450980 0.65882353
v -0.13655144 0.07300209 -14.96117210 0.25098039 0.27450980 0.65882353
v -0.13414389 0.06051704 -14.96047401 0.25098039 0.27450980 0.65882353
v -0.11993328 0.07138008 -14.97456169 0.25098039 0.27450980 0.65882353
v -0.12317868 0.08003039 -14.97014427 0.25098039 0.27450980 0.65882353
v -0.11558179 0.09173319 -14.96916294 0.25098039 0.27450980 0.65882353
v -0.10982080 0.08442635 -14.97274780 0.25098039 0.27450980 0.65882353
v -0.11430988 0.06380659 -14.97970200 0.25098039 0.27450980 0.65882353
v -0.10650067 0.07511670 -14.97990417 0.25098039 0.27450980 0.65882353
v -0.10145216 0.06743509 -14.98556328 0.25098039 0.27450980 0.65882353
v -0.09318914 0.05450268 -14.99218369 0.25098039 0.27450980 0.65882353
v -0.15077692 0.06758678 -14.95109081 0.25098039 0.27450980 0.65882353
v -0.14992702 0.05760307 -14.95022297 0.25098039 0.27450980 0.65882353
v -0.03462519 -0.00557435 -14.93896961 0.25098039 0.27450980 0.65882353
v -0.03872964 -0.00900609 -14.93677235 0.25098039 0.27450980 0.65882353
v -0.04075207 -0.00542967 -14.93671322 0.25098039 0.27450980 0.65882353
v -0.03641991 -0.00252640 -14.93852806 0.25098039 0.27450980 0.65882353
v -0.15159707 0.06511319 -14.93134403 0.25098039 0.27450980 0.65882353
v -0.14662170 0.06940386 -14.92360878 0.25098039 0.27450980 0.65882353
v -0.15108511 0.07381297 -14.92612648 0.25098039 0.27450980 0.65882353
v -0.15426168 0.07112239 -14.93420315 0.25098039 0.27450980 0.65882353
v -0.14769378 0.05713236 -14.92729568 0.25098039 0.27450980 0.65882353
v -0.14030759 0.06288521 -14.92062473 0.25098039 0.27450980 0.65882353
v -0.02583115 -0.00459472 -14.93023586 0.25098039 0.27450980 0.65882353
v -0.02707741 -0.00396398 -14.93509769 0.25098039 0.27450980 0.65882353
v -0.02874644 0.00032251 -14.93322182 0.25098039 0.27450980 0.65882353
v -0.02818511 0.00008232 -14.92794418 0.25098039 0.27450980 0.65882353
v -0.07612713 0.03074230 -14.95449448 0.25098039 0.27450980 0.65882353
v -0.08475360 0.03100487 -14.95142269 0.25098039 0.27450980 0.65882353
v -0.06519106 0.01779144 -14.94528866 0.25098039 0.27450980 0.65882353
v -0.07368131 0.02356894 -14.94665051 0.25098039 0.27450980 0.65882353
v -0.06853051 0.02738471 -14.94972706 0.25098039 0.27450980 0.65882353
v -0.06155694 0.02332679 -14.94711399 0.25098039 0.27450980 0.65882353
v -0.09500469 0.02163357 -14.93732452 0.25098039 0.27450980 0.65882353
v -0.10161921 0.03059069 -14.94141769 0.25098039 0.27450980 0.65882353
v -0.09536262 0.03147979 -14.94328785 0.25098039 0.27450980 0.65882353
v -0.08708249 0.02144584 -14.94040585 0.25098039 0.27450980 0.65882353
v -0.11433050 0.02610236 -14.93820953 0.25098039 0.27450980 0.65882353
v -0.10682225 0.01793385 -14.93433952 0.25098039 0.27450980 0.65882353
v -0.11512958 0.01651005 -14.93314075 0.25098039 0.27450980 0.65882353
v -0.11932990 0.02212087 -14.93677616 0.25098039 0.27450980 0.65882353
v -0.09069067 0.00475274 -14.92721367 0.25098039 0.27450980 0.65882353
v -0.08476822 0.00054692 -14.92189121 0.25098039 0.27450980 0.65882353
v -0.08698568 -0.00059617 -14.92019939 0.25098039 0.27450980 0.65882353
v -0.09367992 0.00429607 -14.92609406 0.25098039 0.27450980 0.65882353
v -0.15468760 0.07900589 -14.92744446 0.25098039 0.27450980 0.65882353
v -0.15558162 0.07730114 -14.93648338 0.25098039 0.27450980 0.65882353
v -0.12641141 0.02752489 -14.91059303 0.25098039 0.27450980 0.65882353
v -0.13569911 0.02619265 -14.91610146 0.25098039 0.27450980 0.65882353
v -0.13169889 0.01462180 -14.91225910 0.25098039 0.27450980 0.65882353
v -0.12339952 0.01910853 -14.90751457 0.25098039 0.27450980 0.65882353
v -0.13787079 0.07328995 -14.91999531 0.25098039 0.27450980 0.65882353
v -0.14354607 0.07753339 -14.92078400 0.25098039 0.27450980 0.65882353
v -0.02748415 -0.00709192 -14.92505836 0.25098039 0.27450980 0.65882353
v -0.02977696 -0.00254225 -14.92283058 0.25098039 0.27450980 0.65882353
v -0.09292118 0.07476033 -14.97743607 0.25098039 0.27450980 0.65882353
v -0.08536787 0.05962807 -14.98815536 0.25098039 0.27450980 0.65882353
v -0.09966794 0.08488447 -14.96953201 0.25098039 0.27450980 0.65882353
v -0.10428832 0.09152159 -14.96341038 0.25098039 0.27450980 0.65882353
v -0.10861832 0.09776812 -14.96086693 0.25098039 0.27450980 0.65882353
v -0.07588015 0.01814903 -14.94266796 0.25098039 0.27450980 0.65882353
v -0.09298171 0.03411917 -14.94811249 0.25098039 0.27450980 0.65882353
v -0.11052752 0.03821692 -14.94546318 0.25098039 0.27450980 0.65882353
v -0.13682742 0.02532253 -14.93756676 0.25098039 0.27450980 0.65882353
v -0.14258069 0.03369509 -14.94137383 0.25098039 0.27450980 0.65882353
v -0.13218725 0.03320247 -14.94484997 0.25098039 0.27450980 0.65882353
v -0.12927371 0.02606396 -14.94027138 0.25098039 0.27450980 0.65882353
v -0.13920939 0.02112330 -14.92286015 0.25098039 0.27450980 0.65882353
v -0.13589016 0.01782518 -14.92892647 0.25098039 0.27450980 0.65882353
v -0.13136303 0.01056630 -14.92623234 0.25098039 0.27450980 0.65882353
v -0.13437647 0.01256312 -14.91986847 0.25098039 0.27450980 0.65882353
v -0.07098921 0.04341684 -14.98564720 0.25098039 0.27450980 0.65882353
v -0.07246529 0.05474727 -14.97347450 0.25098039 0.27450980 0.65882353
v -0.15339176 0.06154796 -14.94081211 0.25098039 0.27450980 0.65882353
v -0.15398428 0.06849759 -14.94394302 0.25098039 0.27450980 0.65882353
v -0.15501371 0.07705204 -14.94372845 0.25098039 0.27450980 0.65882353
v -0.12511128 0.05133574 -14.95595932 0.25098039 0.27450980 0.65882353
v -0.13193294 0.06250037 -14.96147537 0.25098039 0.27450980 0.65882353
v -0.12891063 0.06266728 -14.96370029 0.25098039 0.27450980 0.65882353
v -0.12224987 0.05159210 -14.95626736 0.25098039 0.27450980 0.65882353
v -0.10960144 0.04572797 -14.96401596 0.25098039 0.27450980 0.65882353
v -0.11754907 0.05467084 -14.97059059 0.25098039 0.27450980 0.65882353
v -0.10377192 0.03935790 -14.97166157 0.25098039 0.27450980 0.65882353
v -0.13114980 0.07718576 -14.96487904 0.25098039 0.27450980 0.65882353
v -0.13992199 0.08263169 -14.96240044 0.25098039 0.27450980 0.65882353
v -0.13282447 0.08640081 -14.96561813 0.25098039 0.27450980 0.65882353
v -0.14715597 0.07991176 -14.95685387 0.25098039 0.27450980 0.65882353
v -0.15221789 0.07760559 -14.95020485 0.25098039 0.27450980 0.65882353
v -0.14790806 0.08321780 -14.91887379 0.25098039 0.27450980 0.65882353
v -0.12551376 0.08969685 -14.96763325 0.25098039 0.27450980 0.65882353
v -0.09538706 0.03451357 -14.98845100 0.25098039 0.27450980 0.65882353
v -0.08954497 0.02961385 -14.99233913 0.25098039 0.27450980 0.65882353
v -0.08643720 0.02712279 -14.98583889 0.25098039 0.27450980 0.65882353
v -0.09214862 0.03080852 -14.98143005 0.25098039 0.27450980 0.65882353
v -0.05367273 0.02994481 -14.93928909 0.25098039 0.27450980 0.65882353
v -0.05671345 0.02628803 -14.94494724 0.25098039 0.27450980 0.65882353
v -0.06288195 0.03159231 -14.95071125 0.25098039 0.27450980 0.65882353
v -0.13634630 0.04788326 -14.95371628 0.25098039 0.27450980 0.65882353
v -0.14761853 0.04797899 -14.94634819 0.25098039 0.27450980 0.65882353
v -0.06643200 0.01270502 -14.94065094 0.25098039 0.27450980 0.65882353
v -0.03148605 0.00467833 -14.92750359 0.25098039 0.27450980 0.65882353
v -0.03184731 0.00492075 -14.93321991 0.25098039 0.27450980 0.65882353
v -0.04416701 0.01889060 -14.93605328 0.25098039 0.27450980 0.65882353
v -0.04354553 0.01888589 -14.92916775 0.25098039 0.27450980 0.65882353
v -0.06094593 0.00804894 -14.93082333 0.25098039 0.27450980 0.65882353
v -0.06191669 0.00926168 -14.93747139 0.25098039 0.27450980 0.65882353
v -0.05920623 0.00807887 -14.93520927 0.25098039 0.27450980 0.65882353
v -0.05852924 0.00463209 -14.92962837 0.25098039 0.27450980 0.65882353
v -0.09592701 -0.00088472 -14.92138672 0.25098039 0.27450980 0.65882353
v -0.10178751 0.00367162 -14.92584229 0.25098039 0.27450980 0.65882353
v -0.06930479 0.02395077 -14.91756058 0.25098039 0.27450980 0.65882353
v -0.06041262 0.03242026 -14.92293453 0.25098039 0.27450980 0.65882353
v -0.06686255 0.04071734 -14.92693138 0.25098039 0.27450980 0.65882353
v -0.10204294 0.02036440 -14.93557835 0.25098039 0.27450980 0.65882353
v -0.09659694 0.01178187 -14.93170834 0.25098039 0.27450980 0.65882353
v -0.10021067 0.01073878 -14.93043709 0.25098039 0.27450980 0.65882353
v -0.07576843 0.01450919 -14.93916702 0.25098039 0.27450980 0.65882353
v -0.06853822 0.00973210 -14.93587971 0.25098039 0.27450980 0.65882353
v -0.07470645 0.01048235 -14.93476200 0.25098039 0.27450980 0.65882353
v -0.08095841 0.01504790 -14.93694878 0.25098039 0.27450980 0.65882353
v -0.14066790 0.03798568 -14.91892338 0.25098039 0.27450980 0.65882353
v -0.14508790 0.03206015 -14.92650986 0.25098039 0.27450980 0.65882353
v -0.03033246 -0.00406980 -14.93832779 0.25098039 0.27450980 0.65882353
v -0.03196272 -0.00035424 -14.93715572 0.25098039 0.27450980 0.65882353
v -0.10822429 0.02918754 -14.93928337 0.25098039 0.27450980 0.65882353
v -0.07421844 0.05030128 -14.93215561 0.25098039 0.27450980 0.65882353
v -0.11532949 0.03658557 -14.94422150 0.25098039 0.27450980 0.65882353
v -0.10716882 0.01054049 -14.90679646 0.25098039 0.27450980 0.65882353
v -0.10968179 0.00473257 -14.91196251 0.25098039 0.27450980 0.65882353
v -0.10524105 0.00046914 -14.91047764 0.25098039 0.27450980 0.65882353
v -0.10335217 0.00355547 -14.90505981 0.25098039 0.27450980 0.65882353
v -0.04764135 -0.00614090 -14.92700577 0.25098039 0.27450980 0.65882353
v -0.04728280 -0.00605593 -14.93265057 0.25098039 0.27450980 0.65882353
v -0.04367304 -0.00849713 -14.93205547 0.25098039 0.27450980 0.65882353
v -0.04356040 -0.00938723 -14.92636204 0.25098039 0.27450980 0.65882353
v -0.05997577 0.01273006 -14.94173622 0.25098039 0.27450980 0.65882353
v -0.05664231 0.01797996 -14.94404984 0.25098039 0.27450980 0.65882353
v -0.05285250 0.01291080 -14.94209194 0.25098039 0.27450980 0.65882353
v -0.05634125 0.00972713 -14.93884087 0.25098039 0.27450980 0.65882353
v -0.05171871 0.02136540 -14.94168758 0.25098039 0.27450980 0.65882353
v -0.04795183 0.01680991 -14.94092941 0.25098039 0.27450980 0.65882353
v -0.04444893 -0.00400746 -14.92176437 0.25098039 0.27450980 0.65882353
v -0.03837503 -0.00024670 -14.91959858 0.25098039 0.27450980 0.65882353
v -0.05072115 0.01178724 -14.92045307 0.25098039 0.27450980 0.65882353
v -0.05442725 0.00563934 -14.92350864 0.25098039 0.27450980 0.65882353
v -0.11825232 0.05780497 -14.91722870 0.25098039 0.27450980 0.65882353
v -0.12850349 0.05461689 -14.91617393 0.25098039 0.27450980 0.65882353
v -0.12308432 0.04154721 -14.91336536 0.25098039 0.27450980 0.65882353
v -0.11805596 0.02910471 -14.90984440 0.25098039 0.27450980 0.65882353
v -0.11267604 0.01684784 -14.90736198 0.25098039 0.27450980 0.65882353
v -0.10213816 0.02129825 -14.90583324 0.25098039 0.27450980 0.65882353
v -0.13075748 0.04020970 -14.91400814 0.25098039 0.27450980 0.65882353
v -0.06493916 0.01147132 -14.92305279 0.25098039 0.27450980 0.65882353
v -0.05997677 0.01949599 -14.92105579 0.25098039 0.27450980 0.65882353
v -0.06602277 0.01717414 -14.91903591 0.25098039 0.27450980 0.65882353
v -0.12192588 0.03350197 -14.94344425 0.25098039 0.27450980 0.65882353
v -0.03481254 0.00360189 -14.93784714 0.25098039 0.27450980 0.65882353
v -0.10535182 0.09155131 -14.93933392 0.25098039 0.27450980 0.65882353
v -0.11353126 0.08869059 -14.92893791 0.25098039 0.27450980 0.65882353
v -0.10932487 0.08216899 -14.92988300 0.25098039 0.27450980 0.65882353
v -0.10009338 0.08513714 -14.94204998 0.25098039 0.27450980 0.65882353
v -0.04437765 -0.00333585 -14.93809986 0.25098039 0.27450980 0.65882353
v -0.03956567 0.00029819 -14.94049740 0.25098039 0.27450980 0.65882353
v -0.10697053 0.00087456 -14.92389011 0.25098039 0.27450980 0.65882353
v -0.10126622 -0.00222535 -14.91993523 0.25098039 0.27450980 0.65882353
v -0.10304214 -0.00296921 -14.91636944 0.25098039 0.27450980 0.65882353
v -0.11008713 -0.00252874 -14.92125988 0.25098039 0.27450980 0.65882353
v -0.13421765 0.05408425 -14.91666794 0.25098039 0.27450980 0.65882353
v -0.13008122 0.00701468 -14.91216564 0.25098039 0.27450980 0.65882353
v -0.12268710 0.01123548 -14.90685368 0.25098039 0.27450980 0.65882353
v -0.13271333 0.06619824 -14.91864395 0.25098039 0.27450980 0.65882353
v -0.12371004 0.06901892 -14.91909313 0.25098039 0.27450980 0.65882353
v -0.12781876 0.07688995 -14.91992092 0.25098039 0.27450980 0.65882353
v -0.08676165 0.01864342 -14.90783501 0.25098039 0.27450980 0.65882353
v -0.11029379 0.05818136 -14.91864491 0.25098039 0.27450980 0.65882353
v -0.11672106 0.06953087 -14.92114162 0.25098039 0.27450980 0.65882353
v -0.12130964 0.07910776 -14.92202950 0.25098039 0.27450980 0.65882353
v -0.12434735 0.08599977 -14.92158222 0.25098039 0.27450980 0.65882353
v -0.13142473 0.08246872 -14.91993809 0.25098039 0.27450980 0.65882353
v -0.03380600 0.00202495 -14.92236900 0.25098039 0.27450980 0.65882353
v -0.03431225 -0.00601473 -14.91952419 0.25098039 0.27450980 0.65882353
v -0.13521574 0.08877563 -14.91808605 0.25098039 0.27450980 0.65882353
v -0.12700999 0.09201964 -14.92058945 0.25098039 0.27450980 0.65882353
v -0.10850433 0.07066963 -14.92448997 0.25098039 0.27450980 0.65882353
v -0.09953600 0.07173789 -14.92993164 0.25098039 0.27450980 0.65882353
v -0.10250369 0.05983173 -14.92114067 0.25098039 0.27450980 0.65882353
v -0.09254159 0.06030872 -14.92611694 0.25098039 0.27450980 0.65882353
v -0.07908002 0.02543590 -14.90893555 0.25098039 0.27450980 0.65882353
v -0.03144437 -0.02196135 -14.92621994 0.25098039 0.27450980 0.65882353
v -0.03707863 -0.01310293 -14.92256355 0.25098039 0.27450980 0.65882353
v -0.04094896 -0.01338509 -14.92676926 0.25098039 0.27450980 0.65882353
v -0.03530367 -0.02269404 -14.92824268 0.25098039 0.27450980 0.65882353
v -0.04036219 -0.00837002 -14.92171574 0.25098039 0.27450980 0.65882353
v -0.03199732 -0.01031741 -14.92164707 0.25098039 0.27450980 0.65882353
v -0.08204412 0.06115501 -14.93728161 0.25098039 0.27450980 0.65882353
v -0.06874192 0.00668963 -14.93034077 0.25098039 0.27450980 0.65882353
v -0.08915551 0.07367246 -14.94523430 0.25098039 0.27450980 0.65882353
v -0.07081158 0.05673163 -14.95229340 0.25098039 0.27450980 0.65882353
v -0.07763144 0.06482185 -14.95987988 0.25098039 0.27450980 0.65882353
v -0.09576957 0.08672129 -14.95448112 0.25098039 0.27450980 0.65882353
v -0.08655535 0.07713002 -14.96481037 0.25098039 0.27450980 0.65882353
v -0.10676853 0.09854196 -14.95014954 0.25098039 0.27450980 0.65882353
v -0.10164093 0.09228434 -14.95094109 0.25098039 0.27450980 0.65882353
v -0.07992846 0.06593044 -14.97609806 0.25098039 0.27450980 0.65882353
v -0.03283146 -0.01556782 -14.94077301 0.25098039 0.27450980 0.65882353
v -0.03693826 -0.01816530 -14.93771935 0.25098039 0.27450980 0.65882353
v -0.10921390 0.09793241 -14.93855572 0.25098039 0.27450980 0.65882353
v -0.09721045 0.03465023 -14.97745228 0.25098039 0.27450980 0.65882353
v -0.12636364 0.04155247 -14.94890022 0.25098039 0.27450980 0.65882353
v -0.12104442 0.04304413 -14.94978809 0.25098039 0.27450980 0.65882353
v -0.14516768 0.03932090 -14.94294739 0.25098039 0.27450980 0.65882353
v -0.13376331 0.04015980 -14.94844151 0.25098039 0.27450980 0.65882353
v -0.02778025 -0.01365217 -14.94087982 0.25098039 0.27450980 0.65882353
v -0.08126608 -0.00035422 -14.91588497 0.25098039 0.27450980 0.65882353
v -0.08368357 0.00118566 -14.91547775 0.25098039 0.27450980 0.65882353
v -0.09369688 0.04047153 -14.99415207 0.25098039 0.27450980 0.65882353
v -0.08943526 0.03529022 -14.99731922 0.25098039 0.27450980 0.65882353
v -0.07862249 0.04248123 -14.99812412 0.25098039 0.27450980 0.65882353
v -0.08478238 0.03959373 -14.99992752 0.25098039 0.27450980 0.65882353
v -0.08845410 0.04679740 -14.99649239 0.25098039 0.27450980 0.65882353
v -0.08218563 0.05044845 -14.99445343 0.25098039 0.27450980 0.65882353
v -0.12709793 0.05020624 -14.95587635 0.25098039 0.27450980 0.65882353
v -0.13033137 0.04881735 -14.95506477 0.25098039 0.27450980 0.65882353
v -0.14463481 0.04815758 -14.92316723 0.25098039 0.27450980 0.65882353
v -0.14826688 0.04211514 -14.93122101 0.25098039 0.27450980 0.65882353
v -0.04920298 0.02420357 -14.93646717 0.25098039 0.27450980 0.65882353
v -0.05442660 0.03139769 -14.93100929 0.25098039 0.27450980 0.65882353
v -0.04937394 0.02472333 -14.92939663 0.25098039 0.27450980 0.65882353
v -0.04700974 0.01754051 -14.92315674 0.25098039 0.27450980 0.65882353
v -0.06477705 0.00688485 -14.92601299 0.25098039 0.27450980 0.65882353
v -0.05995260 0.01016674 -14.92557812 0.25098039 0.27450980 0.65882353
v -0.12370552 0.05818931 -14.96691132 0.25098039 0.27450980 0.65882353
v -0.11620903 0.04972951 -14.95824432 0.25098039 0.27450980 0.65882353
v -0.08490917 0.03034554 -14.97600174 0.25098039 0.27450980 0.65882353
v -0.08065856 0.02854890 -14.98053265 0.25098039 0.27450980 0.65882353
v -0.08871275 0.01504677 -14.93481445 0.25098039 0.27450980 0.65882353
v -0.07821783 0.01003288 -14.90748692 0.25098039 0.27450980 0.65882353
v -0.07230252 0.01551559 -14.90865040 0.25098039 0.27450980 0.65882353
v -0.08261837 0.00862150 -14.93119812 0.25098039 0.27450980 0.65882353
v -0.02208354 -0.01479027 -14.93430996 0.25098039 0.27450980 0.65882353
v -0.02441226 -0.01370163 -14.93875313 0.25098039 0.27450980 0.65882353
v -0.05323990 0.02387800 -14.92327690 0.25098039 0.27450980 0.65882353
v -0.10819642 0.00847142 -14.93008232 0.25098039 0.27450980 0.65882353
v -0.08702268 0.01180691 -14.90780163 0.25098039 0.27450980 0.65882353
v -0.08036476 0.00366497 -14.90973186 0.25098039 0.27450980 0.65882353
v -0.13144735 0.00755943 -14.91966343 0.25098039 0.27450980 0.65882353
v -0.11729652 0.09540320 -14.92895699 0.25098039 0.27450980 0.65882353
v -0.04171348 -0.01252162 -14.93231392 0.25098039 0.27450980 0.65882353
v -0.03862210 -0.02040868 -14.93338871 0.25098039 0.27450980 0.65882353
v -0.02778539 -0.01971898 -14.92594624 0.25098039 0.27450980 0.65882353
v -0.02365060 -0.01629157 -14.92860508 0.25098039 0.27450980 0.65882353
v -0.15053868 0.05090086 -14.93668652 0.25098039 0.27450980 0.65882353
v -0.11780932 0.04414716 -14.94976711 0.25098039 0.27450980 0.65882353
v -0.07663144 0.05522463 -14.98536587 0.25098039 0.27450980 0.65882353
v -0.07367416 0.04409979 -14.99274921 0.25098039 0.27450980 0.65882353
v -0.07856452 0.00444406 -14.92801285 0.25098039 0.27450980 0.65882353
v -0.11442085 0.00946312 -14.90874100 0.25098039 0.27450980 0.65882353
v -0.09888090 0.01315359 -14.90367699 0.25098039 0.27450980 0.65882353
v -0.09584382 0.00591292 -14.90114594 0.25098039 0.27450980 0.65882353
v -0.08847016 0.00476434 -14.90313339 0.25098039 0.27450980 0.65882353
v -0.08371435 0.00148094 -14.90813923 0.25098039 0.27450980 0.65882353
v -0.02658482 -0.02480867 -14.92858601 0.25098039 0.27450980 0.65882353
v -0.02250244 -0.02120820 -14.93100357 0.25098039 0.27450980 0.65882353
v -0.02103890 -0.01917522 -14.93646336 0.25098039 0.27450980 0.65882353
v -0.02311280 -0.01739315 -14.94017506 0.25098039 0.27450980 0.65882353
v -0.02716666 -0.01673556 -14.94173145 0.25098039 0.27450980 0.65882353
v -0.03033343 -0.02710870 -14.92930698 0.25098039 0.27450980 0.65882353
v -0.03374831 -0.02724203 -14.93141365 0.25098039 0.27450980 0.65882353
v -0.03728385 -0.02353351 -14.93453026 0.25098039 0.27450980 0.65882353
v -0.03099769 -0.03066872 -14.93309307 0.25098039 0.27450980 0.65882353
v -0.02586988 -0.03169928 -14.93428516 0.25098039 0.27450980 0.65882353
v -0.02215166 -0.02834677 -14.94736671 0.25098039 0.27450980 0.65882353
v -0.02084194 -0.02581140 -14.94201660 0.25098039 0.27450980 0.65882353
v -0.02106509 -0.02853178 -14.94243431 0.25098039 0.27450980 0.65882353
v -0.02217053 -0.03136710 -14.94651413 0.25098039 0.27450980 0.65882353
v -0.02294384 -0.03554526 -14.94961834 0.25098039 0.27450980 0.65882353
v -0.02291937 -0.03254578 -14.95138931 0.25098039 0.27450980 0.65882353
v -0.02224351 -0.02930279 -14.93794250 0.25098039 0.27450980 0.65882353
v -0.02355321 -0.03387476 -14.94291401 0.25098039 0.27450980 0.65882353
v -0.02633005 -0.03585846 -14.94060326 0.25098039 0.27450980 0.65882353
v -0.02650385 -0.03980032 -14.94477463 0.25098039 0.27450980 0.65882353
v -0.02392635 -0.03824481 -14.94680882 0.25098039 0.27450980 0.65882353
v -0.02509296 -0.03274032 -14.93729305 0.25098039 0.27450980 0.65882353
v -0.02156213 -0.02771556 -14.93583488 0.25098039 0.27450980 0.65882353
v -0.02414735 -0.03687824 -14.95287132 0.25098039 0.27450980 0.65882353
v -0.02331182 -0.03830617 -14.95104790 0.25098039 0.27450980 0.65882353
v -0.02466606 -0.04033365 -14.94921207 0.25098039 0.27450980 0.65882353
v -0.02620268 -0.04126830 -14.95172596 0.25098039 0.27450980 0.65882353
v -0.02329324 -0.02078030 -14.94315052 0.25098039 0.27450980 0.65882353
v -0.02361494 -0.02679970 -14.94888592 0.25098039 0.27450980 0.65882353
v -0.02564934 -0.03146221 -14.95228481 0.25098039 0.27450980 0.65882353
v -0.02666929 -0.03585260 -14.95360374 0.25098039 0.27450980 0.65882353
v -0.02757396 -0.02705424 -14.94989777 0.25098039 0.27450980 0.65882353
v -0.02854975 -0.03117620 -14.95210934 0.25098039 0.27450980 0.65882353
v -0.02973826 -0.03496721 -14.95285988 0.25098039 0.27450980 0.65882353
v -0.03158097 -0.02820773 -14.94950581 0.25098039 0.27450980 0.65882353
v -0.03150553 -0.03189248 -14.95126438 0.25098039 0.27450980 0.65882353
v -0.03098775 -0.01971730 -14.94260693 0.25098039 0.27450980 0.65882353
v -0.02707532 -0.01825546 -14.94319057 0.25098039 0.27450980 0.65882353
v -0.03176141 -0.03422354 -14.95238972 0.25098039 0.27450980 0.65882353
v -0.02835725 -0.04078107 -14.95223427 0.25098039 0.27450980 0.65882353
v -0.02928691 -0.03537821 -14.93848228 0.25098039 0.27450980 0.65882353
v -0.02967681 -0.03944204 -14.94452000 0.25098039 0.27450980 0.65882353
v -0.03170569 -0.03503518 -14.93865776 0.25098039 0.27450980 0.65882353
v -0.03206418 -0.03935859 -14.94430733 0.25098039 0.27450980 0.65882353
v -0.02890478 -0.04249693 -14.94798851 0.25098039 0.27450980 0.65882353
v -0.02669580 -0.04132895 -14.94747066 0.25098039 0.27450980 0.65882353
v -0.03224546 -0.01762910 -14.94083118 0.25098039 0.27450980 0.65882353
v -0.03638107 -0.02054589 -14.93770218 0.25098039 0.27450980 0.65882353
v -0.03549904 -0.02253168 -14.93933010 0.25098039 0.27450980 0.65882353
v -0.03513332 -0.03018778 -14.94702911 0.25098039 0.27450980 0.65882353
v -0.03672373 -0.02576377 -14.93694973 0.25098039 0.27450980 0.65882353
v -0.03428571 -0.03020502 -14.93522930 0.25098039 0.27450980 0.65882353
v -0.03411515 -0.03480006 -14.94052505 0.25098039 0.27450980 0.65882353
v -0.03577824 -0.03319591 -14.94300365 0.25098039 0.27450980 0.65882353
v -0.03396502 -0.03800162 -14.94503593 0.25098039 0.27450980 0.65882353
v -0.03458874 -0.03612044 -14.94652843 0.25098039 0.27450980 0.65882353
v -0.03406928 -0.03374343 -14.94947529 0.25098039 0.27450980 0.65882353
v -0.03288676 -0.03950775 -14.94881058 0.25098039 0.27450980 0.65882353
v -0.03087285 -0.04158502 -14.94837379 0.25098039 0.27450980 0.65882353
v -0.03097562 -0.03853995 -14.95183563 0.25098039 0.27450980 0.65882353
v -0.03389359 -0.03779521 -14.94879627 0.25098039 0.27450980 0.65882353
v -0.03235286 -0.03637650 -14.95092392 0.25098039 0.27450980 0.65882353
v -0.05498733 -0.02394511 -14.92103863 0.25098039 0.27450980 0.65882353
v -0.06018892 -0.02662556 -14.91843128 0.25098039 0.27450980 0.65882353
v -0.06113006 -0.02160566 -14.91760254 0.25098039 0.27450980 0.65882353
v -0.05669455 -0.01980361 -14.92004299 0.25098039 0.27450980 0.65882353
v -0.04620068 -0.02141669 -14.91113663 0.25098039 0.27450980 0.65882353
v -0.04769543 -0.02174347 -14.91676331 0.25098039 0.27450980 0.65882353
v -0.04861432 -0.01679414 -14.91532421 0.25098039 0.27450980 0.65882353
v -0.04816748 -0.01631839 -14.90883541 0.25098039 0.27450980 0.65882353
v -0.04951687 -0.02270644 -14.90531635 0.25098039 0.27450980 0.65882353
v -0.05175564 -0.01736852 -14.90310192 0.25098039 0.27450980 0.65882353
v -0.04997276 -0.01113752 -14.90867329 0.25098039 0.27450980 0.65882353
v -0.05099900 -0.01172082 -14.91565037 0.25098039 0.27450980 0.65882353
v -0.06193835 0.00572523 -14.91999722 0.25098039 0.27450980 0.65882353
v -0.06121980 0.00711223 -14.91301060 0.25098039 0.27450980 0.65882353
v -0.07763942 -0.00254270 -14.91992092 0.25098039 0.27450980 0.65882353
v -0.07726079 -0.00311849 -14.91597557 0.25098039 0.27450980 0.65882353
v -0.05132920 -0.02273022 -14.92014217 0.25098039 0.27450980 0.65882353
v -0.05243744 -0.01825506 -14.91879749 0.25098039 0.27450980 0.65882353
v -0.06817213 -0.02020889 -14.91138172 0.25098039 0.27450980 0.65882353
v -0.06700790 -0.01973332 -14.91662407 0.25098039 0.27450980 0.65882353
v -0.06454346 -0.02377748 -14.91507721 0.25098039 0.27450980 0.65882353
v -0.06502269 -0.02443223 -14.90954208 0.25098039 0.27450980 0.65882353
v -0.06842713 0.00284924 -14.92520809 0.25098039 0.27450980 0.65882353
v -0.07401870 0.00058650 -14.92320347 0.25098039 0.27450980 0.65882353
v -0.06481577 0.00380816 -14.92368317 0.25098039 0.27450980 0.65882353
v -0.06640267 -0.01909650 -14.90513992 0.25098039 0.27450980 0.65882353
v -0.06148160 -0.01618231 -14.90119934 0.25098039 0.27450980 0.65882353
v -0.07129145 0.00140894 -14.90438652 0.25098039 0.27450980 0.65882353
v -0.07533948 -0.00227783 -14.90775490 0.25098039 0.27450980 0.65882353
v -0.05403318 -0.01361503 -14.91993618 0.25098039 0.27450980 0.65882353
v -0.06323816 -0.01817770 -14.92022514 0.25098039 0.27450980 0.65882353
v -0.05873142 -0.01607454 -14.92187691 0.25098039 0.27450980 0.65882353
v -0.05478625 -0.01245615 -14.90329552 0.25098039 0.27450980 0.65882353
v -0.05800557 -0.02177497 -14.90148544 0.25098039 0.27450980 0.65882353
v -0.05576864 -0.04067580 -14.90869427 0.25098039 0.27450980 0.65882353
v -0.06048380 -0.02940965 -14.90546608 0.25098039 0.27450980 0.65882353
v -0.06283046 -0.02983820 -14.90998936 0.25098039 0.27450980 0.65882353
v -0.05888699 -0.04172958 -14.91239929 0.25098039 0.27450980 0.65882353
v -0.06292185 -0.02412020 -14.90442085 0.25098039 0.27450980 0.65882353
v -0.05550870 -0.02668329 -14.90341377 0.25098039 0.27450980 0.65882353
v -0.05253553 -0.03842164 -14.92439556 0.25098039 0.27450980 0.65882353
v -0.05771388 -0.04090150 -14.92153645 0.25098039 0.27450980 0.65882353
v -0.04812370 -0.03704780 -14.92413425 0.25098039 0.27450980 0.65882353
v -0.06527124 0.00573262 -14.90633392 0.25098039 0.27450980 0.65882353
v -0.04279022 -0.03427954 -14.91557407 0.25098039 0.27450980 0.65882353
v -0.04489182 -0.03540636 -14.92173195 0.25098039 0.27450980 0.65882353
v -0.06324051 -0.02874169 -14.91490936 0.25098039 0.27450980 0.65882353
v -0.05974723 -0.04218100 -14.91712093 0.25098039 0.27450980 0.65882353
v -0.05165827 -0.03885724 -14.90744209 0.25098039 0.27450980 0.65882353
v -0.04588035 -0.03471736 -14.90945435 0.25098039 0.27450980 0.65882353
v -0.04995202 -0.04432749 -14.90972805 0.25098039 0.27450980 0.65882353
v -0.04459722 -0.04129881 -14.91197872 0.25098039 0.27450980 0.65882353
v -0.04184642 -0.04028548 -14.91798115 0.25098039 0.27450980 0.65882353
v -0.04450795 -0.04009751 -14.92319965 0.25098039 0.27450980 0.65882353
v -0.04787539 -0.04039631 -14.92514133 0.25098039 0.27450980 0.65882353
v -0.05386958 -0.04599959 -14.91091442 0.25098039 0.27450980 0.65882353
v -0.05716585 -0.04662170 -14.91416073 0.25098039 0.27450980 0.65882353
v -0.05857785 -0.04464740 -14.91841602 0.25098039 0.27450980 0.65882353
v -0.05425915 -0.05206091 -14.91521168 0.25098039 0.27450980 0.65882353
v -0.04976453 -0.05235653 -14.91436768 0.25098039 0.27450980 0.65882353
v -0.04387398 -0.05739603 -14.93120861 0.25098039 0.27450980 0.65882353
v -0.04305835 -0.05255688 -14.92754173 0.25098039 0.27450980 0.65882353
v -0.04314145 -0.05435877 -14.92558002 0.25098039 0.27450980 0.65882353
v -0.04395099 -0.05883817 -14.92875767 0.25098039 0.27450980 0.65882353
v -0.04161417 -0.04894210 -14.92243195 0.25098039 0.27450980 0.65882353
v -0.04245579 -0.05138453 -14.92195511 0.25098039 0.27450980 0.65882353
v -0.04477456 -0.05201682 -14.91796017 0.25098039 0.27450980 0.65882353
v -0.04570206 -0.05669599 -14.92208862 0.25098039 0.27450980 0.65882353
v -0.04960908 -0.05741058 -14.91944790 0.25098039 0.27450980 0.65882353
v -0.04967102 -0.06248883 -14.92238235 0.25098039 0.27450980 0.65882353
v -0.04573789 -0.06181873 -14.92505741 0.25098039 0.27450980 0.65882353
v -0.04793853 -0.05414736 -14.91693020 0.25098039 0.27450980 0.65882353
v -0.04475442 -0.06221072 -14.93009567 0.25098039 0.27450980 0.65882353
v -0.04574347 -0.06270958 -14.93246460 0.25098039 0.27450980 0.65882353
v -0.04383269 -0.04956264 -14.91586781 0.25098039 0.27450980 0.65882353
v -0.04374684 -0.04387293 -14.92482471 0.25098039 0.27450980 0.65882353
v -0.04464027 -0.05136392 -14.92990875 0.25098039 0.27450980 0.65882353
v -0.04619920 -0.05694783 -14.93343544 0.25098039 0.27450980 0.65882353
v -0.04860309 -0.06274221 -14.93359947 0.25098039 0.27450980 0.65882353
v -0.04851203 -0.05132727 -14.93165016 0.25098039 0.27450980 0.65882353
v -0.04939793 -0.05687933 -14.93416214 0.25098039 0.27450980 0.65882353
v -0.05114113 -0.06164568 -14.93351364 0.25098039 0.27450980 0.65882353
v -0.05323769 -0.05180696 -14.93189335 0.25098039 0.27450980 0.65882353
v -0.05355662 -0.05740935 -14.93357468 0.25098039 0.27450980 0.65882353
v -0.05251291 -0.04273522 -14.92620182 0.25098039 0.27450980 0.65882353
v -0.04783918 -0.04243238 -14.92679119 0.25098039 0.27450980 0.65882353
v -0.05306931 -0.06015379 -14.93326569 0.25098039 0.27450980 0.65882353
v -0.04752845 -0.06628875 -14.92951679 0.25098039 0.27450980 0.65882353
v -0.05049077 -0.06575086 -14.93127537 0.25098039 0.27450980 0.65882353
v -0.04668340 -0.06495149 -14.92811394 0.25098039 0.27450980 0.65882353
v -0.05168918 -0.05745486 -14.91895771 0.25098039 0.27450980 0.65882353
v -0.05191547 -0.06257398 -14.92310333 0.25098039 0.27450980 0.65882353
v -0.05448683 -0.05747718 -14.91972637 0.25098039 0.27450980 0.65882353
v -0.05410862 -0.06279119 -14.92439270 0.25098039 0.27450980 0.65882353
v -0.05096166 -0.06605480 -14.92631340 0.25098039 0.27450980 0.65882353
v -0.04931498 -0.06568519 -14.92585087 0.25098039 0.27450980 0.65882353
v -0.05217247 -0.04107204 -14.92452145 0.25098039 0.27450980 0.65882353
v -0.05685212 -0.04288028 -14.92179394 0.25098039 0.27450980 0.65882353
v -0.05707456 -0.04426817 -14.92325687 0.25098039 0.27450980 0.65882353
v -0.05711810 -0.05348366 -14.92867947 0.25098039 0.27450980 0.65882353
v -0.05875710 -0.04666098 -14.91957951 0.25098039 0.27450980 0.65882353
v -0.05710046 -0.05064783 -14.91694641 0.25098039 0.27450980 0.65882353
v -0.05686374 -0.05658559 -14.92101002 0.25098039 0.27450980 0.65882353
v -0.05826548 -0.05545107 -14.92457008 0.25098039 0.27450980 0.65882353
v -0.05633782 -0.06249554 -14.92484379 0.25098039 0.27450980 0.65882353
v -0.05751209 -0.05997335 -14.92646313 0.25098039 0.27450980 0.65882353
v -0.05658866 -0.05822716 -14.93091774 0.25098039 0.27450980 0.65882353
v -0.05481000 -0.06552321 -14.92813206 0.25098039 0.27450980 0.65882353
v -0.05262184 -0.06623498 -14.92720222 0.25098039 0.27450980 0.65882353
v -0.05234450 -0.06439661 -14.93167591 0.25098039 0.27450980 0.65882353
v -0.05627973 -0.06294922 -14.92873192 0.25098039 0.27450980 0.65882353
v -0.05453646 -0.06192171 -14.93176556 0.25098039 0.27450980 0.65882353
v -0.07883598 -0.02530325 -14.91021538 0.25098039 0.27450980 0.65882353
v -0.08441272 -0.02644537 -14.91186237 0.25098039 0.27450980 0.65882353
v -0.08541825 -0.02296149 -14.91159439 0.25098039 0.27450980 0.65882353
v -0.07999304 -0.02177001 -14.90989590 0.25098039 0.27450980 0.65882353
v -0.07865973 -0.02560804 -14.89768887 0.25098039 0.27450980 0.65882353
v -0.07588449 -0.02553632 -14.90173340 0.25098039 0.27450980 0.65882353
v -0.07700995 -0.02087268 -14.90118313 0.25098039 0.27450980 0.65882353
v -0.07999876 -0.01959687 -14.89671230 0.25098039 0.27450980 0.65882353
v -0.08333586 -0.02820846 -14.89614391 0.25098039 0.27450980 0.65882353
v -0.08559577 -0.02042398 -14.89421463 0.25098039 0.27450980 0.65882353
v -0.08111204 -0.01374443 -14.89653397 0.25098039 0.27450980 0.65882353
v -0.07803315 -0.01621677 -14.90137959 0.25098039 0.27450980 0.65882353
v -0.08271734 -0.00233787 -14.90631580 0.25098039 0.27450980 0.65882353
v -0.08591357 -0.00079033 -14.90039539 0.25098039 0.27450980 0.65882353
v -0.07633869 -0.02531327 -14.90635014 0.25098039 0.27450980 0.65882353
v -0.07732950 -0.02152254 -14.90610600 0.25098039 0.27450980 0.65882353
v -0.09475848 -0.02191969 -14.90929031 0.25098039 0.27450980 0.65882353
v -0.09117503 -0.02138887 -14.91240788 0.25098039 0.27450980 0.65882353
v -0.09044994 -0.02456935 -14.91057396 0.25098039 0.27450980 0.65882353
v -0.09334299 -0.02532642 -14.90758133 0.25098039 0.27450980 0.65882353
v -0.08697557 -0.00352022 -14.91669178 0.25098039 0.27450980 0.65882353
v -0.09301504 -0.00364581 -14.91716003 0.25098039 0.27450980 0.65882353
v -0.08326632 -0.00409409 -14.91246033 0.25098039 0.27450980 0.65882353
v -0.09596850 -0.02117170 -14.90294838 0.25098039 0.27450980 0.65882353
v -0.09377183 -0.01782065 -14.89664173 0.25098039 0.27450980 0.65882353
v -0.09962267 -0.00458656 -14.90137577 0.25098039 0.27450980 0.65882353
v -0.10124598 -0.00612600 -14.90740204 0.25098039 0.27450980 0.65882353
v -0.07808422 -0.01787271 -14.90651608 0.25098039 0.27450980 0.65882353
v -0.08621614 -0.01975035 -14.91335583 0.25098039 0.27450980 0.65882353
v -0.08076945 -0.01894936 -14.91132832 0.25098039 0.27450980 0.65882353
v -0.08720995 -0.01444240 -14.89497662 0.25098039 0.27450980 0.65882353
v -0.09131116 -0.02369583 -14.89685535 0.25098039 0.27450980 0.65882353
v -0.08770409 -0.04555594 -14.90395546 0.25098039 0.27450980 0.65882353
v -0.09288804 -0.02979231 -14.90208054 0.25098039 0.27450980 0.65882353
v -0.09221004 -0.02922260 -14.90774822 0.25098039 0.27450980 0.65882353
v -0.08859073 -0.04493996 -14.90823364 0.25098039 0.27450980 0.65882353
v -0.09423251 -0.02583390 -14.90226173 0.25098039 0.27450980 0.65882353
v -0.08954027 -0.02912393 -14.89753056 0.25098039 0.27450980 0.65882353
v -0.07613535 -0.04028322 -14.91356850 0.25098039 0.27450980 0.65882353
v -0.08175275 -0.04098578 -14.91428757 0.25098039 0.27450980 0.65882353
v -0.07357420 -0.03937445 -14.91003418 0.25098039 0.27450980 0.65882353
v -0.09271407 -0.00126628 -14.89774990 0.25098039 0.27450980 0.65882353
v -0.09914275 -0.00560039 -14.91394997 0.25098039 0.27450980 0.65882353
v -0.07346861 -0.04127735 -14.90268135 0.25098039 0.27450980 0.65882353
v -0.07250717 -0.04001005 -14.90681076 0.25098039 0.27450980 0.65882353
v -0.08946741 -0.02781305 -14.91073227 0.25098039 0.27450980 0.65882353
v -0.08672214 -0.04319119 -14.91215324 0.25098039 0.27450980 0.65882353
v -0.08448543 -0.04437786 -14.90042591 0.25098039 0.27450980 0.65882353
v -0.07860078 -0.04200548 -14.89931011 0.25098039 0.27450980 0.65882353
v -0.08355765 -0.05031491 -14.90302467 0.25098039 0.27450980 0.65882353
v -0.07752997 -0.04853392 -14.90217590 0.25098039 0.27450980 0.65882353
v -0.07264976 -0.04746304 -14.90546227 0.25098039 0.27450980 0.65882353
v -0.07198323 -0.04521889 -14.90934181 0.25098039 0.27450980 0.65882353
v -0.07309933 -0.04389620 -14.91223240 0.25098039 0.27450980 0.65882353
v -0.08678171 -0.05026545 -14.90693188 0.25098039 0.27450980 0.65882353
v -0.08733810 -0.04874238 -14.91057587 0.25098039 0.27450980 0.65882353
v -0.08567624 -0.04481841 -14.91263103 0.25098039 0.27450980 0.65882353
v -0.08678626 -0.05312090 -14.91057014 0.25098039 0.27450980 0.65882353
v -0.08265868 -0.05596963 -14.90797710 0.25098039 0.27450980 0.65882353
v -0.07265742 -0.06127962 -14.92081261 0.25098039 0.27450980 0.65882353
v -0.07260531 -0.05703054 -14.91653347 0.25098039 0.27450980 0.65882353
v -0.07328987 -0.05793580 -14.91590786 0.25098039 0.27450980 0.65882353
v -0.07324931 -0.06253577 -14.91961193 0.25098039 0.27450980 0.65882353
v -0.07289788 -0.05393838 -14.91024208 0.25098039 0.27450980 0.65882353
v -0.07374346 -0.05564482 -14.91121578 0.25098039 0.27450980 0.65882353
v -0.07698801 -0.05634067 -14.90900421 0.25098039 0.27450980 0.65882353
v -0.07712466 -0.06092427 -14.91384697 0.25098039 0.27450980 0.65882353
v -0.08295599 -0.05954576 -14.91438580 0.25098039 0.27450980 0.65882353
v -0.08196920 -0.06287379 -14.91824436 0.25098039 0.27450980 0.65882353
v -0.07689948 -0.06470589 -14.91780758 0.25098039 0.27450980 0.65882353
v -0.08140965 -0.05695198 -14.90960026 0.25098039 0.27450980 0.65882353
v -0.07420307 -0.06500829 -14.92151737 0.25098039 0.27450980 0.65882353
v -0.07255341 -0.06521828 -14.92306519 0.25098039 0.27450980 0.65882353
v -0.07689711 -0.05487668 -14.90667248 0.25098039 0.27450980 0.65882353
v -0.07105045 -0.04997122 -14.91262245 0.25098039 0.27450980 0.65882353
v -0.07145749 -0.05514004 -14.91850567 0.25098039 0.27450980 0.65882353
v -0.07121056 -0.05922737 -14.92323303 0.25098039 0.27450980 0.65882353
v -0.07316495 -0.06260055 -14.92578793 0.25098039 0.27450980 0.65882353
v -0.07306540 -0.05284221 -14.92098999 0.25098039 0.27450980 0.65882353
v -0.07310985 -0.05707339 -14.92466927 0.25098039 0.27450980 0.65882353
v -0.07476413 -0.06005051 -14.92701912 0.25098039 0.27450980 0.65882353
v -0.07566975 -0.05153466 -14.92247391 0.25098039 0.27450980 0.65882353
v -0.07588188 -0.05546875 -14.92556572 0.25098039 0.27450980 0.65882353
v -0.07586862 -0.04468379 -14.91567230 0.25098039 0.27450980 0.65882353
v -0.07270698 -0.04681874 -14.91448116 0.25098039 0.27450980 0.65882353
v -0.07643582 -0.05835483 -14.92699337 0.25098039 0.27450980 0.65882353
v -0.07691303 -0.06734746 -14.92295456 0.25098039 0.27450980 0.65882353
v -0.07837805 -0.06487701 -14.92633533 0.25098039 0.27450980 0.65882353
v -0.07696311 -0.06607211 -14.92119026 0.25098039 0.27450980 0.65882353
v -0.08466515 -0.05855937 -14.91440582 0.25098039 0.27450980 0.65882353
v -0.08398661 -0.06279827 -14.91964626 0.25098039 0.27450980 0.65882353
v -0.08629511 -0.05680410 -14.91612053 0.25098039 0.27450980 0.65882353
v -0.08558552 -0.06112792 -14.92115688 0.25098039 0.27450980 0.65882353
v -0.08184941 -0.06587841 -14.92197514 0.25098039 0.27450980 0.65882353
v -0.08093396 -0.06554019 -14.92099190 0.25098039 0.27450980 0.65882353
v -0.07643957 -0.04271739 -14.91394043 0.25098039 0.27450980 0.65882353
v -0.08150734 -0.04299960 -14.91438961 0.25098039 0.27450980 0.65882353
v -0.08066823 -0.04437850 -14.91601753 0.25098039 0.27450980 0.65882353
v -0.08026947 -0.05141719 -14.92342472 0.25098039 0.27450980 0.65882353
v -0.08490497 -0.04593930 -14.91468906 0.25098039 0.27450980 0.65882353
v -0.08693953 -0.05121108 -14.91394329 0.25098039 0.27450980 0.65882353
v -0.08610721 -0.05476490 -14.91877365 0.25098039 0.27450980 0.65882353
v -0.08423816 -0.05308335 -14.92172813 0.25098039 0.27450980 0.65882353
v -0.08546148 -0.05892885 -14.92290211 0.25098039 0.27450980 0.65882353
v -0.08385995 -0.05669232 -14.92382240 0.25098039 0.27450980 0.65882353
v -0.07994407 -0.05512399 -14.92636204 0.25098039 0.27450980 0.65882353
v -0.08289637 -0.06148744 -14.92514324 0.25098039 0.27450980 0.65882353
v -0.08308953 -0.06422950 -14.92393112 0.25098039 0.27450980 0.65882353
v -0.07891676 -0.06174298 -14.92743015 0.25098039 0.27450980 0.65882353
v -0.08238943 -0.05908563 -14.92585182 0.25098039 0.27450980 0.65882353
v -0.07935882 -0.05911136 -14.92752361 0.25098039 0.27450980 0.65882353
v -0.09706111 -0.00450264 -14.91662407 0.25098039 0.27450980 0.65882353
v -0.11524545 -0.02570890 -14.92040062 0.25098039 0.27450980 0.65882353
v -0.11881810 -0.02525666 -14.92220688 0.25098039 0.27450980 0.65882353
v -0.11960171 -0.02197146 -14.92091942 0.25098039 0.27450980 0.65882353
v -0.11577180 -0.02147905 -14.91979885 0.25098039 0.27450980 0.65882353
v -0.11603758 -0.02716267 -14.90962887 0.25098039 0.27450980 0.65882353
v -0.11364416 -0.02714515 -14.91332817 0.25098039 0.27450980 0.65882353
v -0.11342667 -0.02244788 -14.91172981 0.25098039 0.27450980 0.65882353
v -0.11574928 -0.02235121 -14.90807915 0.25098039 0.27450980 0.65882353
v -0.12069590 -0.02733388 -14.90836239 0.25098039 0.27450980 0.65882353
v -0.12078141 -0.02263274 -14.90705204 0.25098039 0.27450980 0.65882353
v -0.11543874 -0.01869007 -14.90720940 0.25098039 0.27450980 0.65882353
v -0.11295363 -0.01865797 -14.91125202 0.25098039 0.27450980 0.65882353
v -0.11168360 -0.00245232 -14.91204262 0.25098039 0.27450980 0.65882353
v -0.11506011 -0.00028344 -14.90803432 0.25098039 0.27450980 0.65882353
v -0.12982489 0.00165085 -14.91955853 0.25098039 0.27450980 0.65882353
v -0.12571551 0.00269324 -14.92474270 0.25098039 0.27450980 0.65882353
v -0.12554097 -0.00602847 -14.92183685 0.25098039 0.27450980 0.65882353
v -0.12885848 -0.00503907 -14.91779137 0.25098039 0.27450980 0.65882353
v -0.11364161 -0.02651518 -14.91714287 0.25098039 0.27450980 0.65882353
v -0.11332743 -0.02205814 -14.91665363 0.25098039 0.27450980 0.65882353
v -0.12821047 -0.01819173 -14.91736031 0.25098039 0.27450980 0.65882353
v -0.12468949 -0.01854768 -14.92037773 0.25098039 0.27450980 0.65882353
v -0.12357400 -0.02169327 -14.92112732 0.25098039 0.27450980 0.65882353
v -0.12745339 -0.02232121 -14.91891766 0.25098039 0.27450980 0.65882353
v -0.12011577 0.00137680 -14.92590141 0.25098039 0.27450980 0.65882353
v -0.11520629 0.00061958 -14.92444134 0.25098039 0.27450980 0.65882353
v -0.11525416 -0.00391292 -14.92386246 0.25098039 0.27450980 0.65882353
v -0.12073699 -0.00677941 -14.92339516 0.25098039 0.27450980 0.65882353
v -0.11160925 -0.00428875 -14.91968441 0.25098039 0.27450980 0.65882353
v -0.12903208 -0.01843510 -14.91349125 0.25098039 0.27450980 0.65882353
v -0.12670645 -0.01875328 -14.90831184 0.25098039 0.27450980 0.65882353
v -0.12888579 -0.00175834 -14.90840912 0.25098039 0.27450980 0.65882353
v -0.13000418 -0.00254111 -14.91296291 0.25098039 0.27450980 0.65882353
v -0.11281526 -0.01926959 -14.91571236 0.25098039 0.27450980 0.65882353
v -0.12039012 -0.01904829 -14.92089081 0.25098039 0.27450980 0.65882353
v -0.11606056 -0.01931467 -14.91962242 0.25098039 0.27450980 0.65882353
v -0.12093184 -0.01872829 -14.90569592 0.25098039 0.27450980 0.65882353
v -0.12624633 -0.02314252 -14.90964699 0.25098039 0.27450980 0.65882353
v -0.12791240 -0.03568660 -14.91920853 0.25098039 0.27450980 0.65882353
v -0.12856144 -0.02643021 -14.91599178 0.25098039 0.27450980 0.65882353
v -0.12690350 -0.02584440 -14.92048073 0.25098039 0.27450980 0.65882353
v -0.12702076 -0.03496850 -14.92193317 0.25098039 0.27450980 0.65882353
v -0.12854183 -0.02270574 -14.91464996 0.25098039 0.27450980 0.65882353
v -0.12622446 -0.02755592 -14.91109371 0.25098039 0.27450980 0.65882353
v -0.11513859 -0.03438916 -14.92323780 0.25098039 0.27450980 0.65882353
v -0.11998403 -0.03349177 -14.92477989 0.25098039 0.27450980 0.65882353
v -0.11358569 -0.03513167 -14.92055702 0.25098039 0.27450980 0.65882353
v -0.12167156 -0.00051395 -14.90558434 0.25098039 0.27450980 0.65882353
v -0.11590786 -0.03705769 -14.91376400 0.25098039 0.27450980 0.65882353
v -0.11348352 -0.03661166 -14.91732979 0.25098039 0.27450980 0.65882353
v -0.12282332 -0.02536729 -14.92235184 0.25098039 0.27450980 0.65882353
v -0.12425841 -0.03384390 -14.92403603 0.25098039 0.27450980 0.65882353
v -0.12630859 -0.03665115 -14.91538525 0.25098039 0.27450980 0.65882353
v -0.12114529 -0.03689228 -14.91218662 0.25098039 0.27450980 0.65882353
v -0.12558502 -0.04120035 -14.91777325 0.25098039 0.27450980 0.65882353
v -0.12027479 -0.04120490 -14.91454411 0.25098039 0.27450980 0.65882353
v -0.11486390 -0.04100141 -14.91671085 0.25098039 0.27450980 0.65882353
v -0.11333522 -0.03906795 -14.91950703 0.25098039 0.27450980 0.65882353
v -0.11336168 -0.03757547 -14.92229939 0.25098039 0.27450980 0.65882353
v -0.12731460 -0.03962155 -14.92146778 0.25098039 0.27450980 0.65882353
v -0.12650043 -0.03819080 -14.92401314 0.25098039 0.27450980 0.65882353
v -0.12399541 -0.03612851 -14.92577457 0.25098039 0.27450980 0.65882353
v -0.12656087 -0.04332357 -14.92404270 0.25098039 0.27450980 0.65882353
v -0.12417566 -0.04646587 -14.92140675 0.25098039 0.27450980 0.65882353
v -0.11375624 -0.05122485 -14.92877197 0.25098039 0.27450980 0.65882353
v -0.11371383 -0.04813617 -14.92586040 0.25098039 0.27450980 0.65882353
v -0.11446758 -0.04886148 -14.92514229 0.25098039 0.27450980 0.65882353
v -0.11386729 -0.05202659 -14.92788792 0.25098039 0.27450980 0.65882353
v -0.11462522 -0.04540882 -14.92109776 0.25098039 0.27450980 0.65882353
v -0.11559164 -0.04675219 -14.92158985 0.25098039 0.27450980 0.65882353
v -0.11883593 -0.04646095 -14.92014694 0.25098039 0.27450980 0.65882353
v -0.11816320 -0.05045795 -14.92378426 0.25098039 0.27450980 0.65882353
v -0.12318399 -0.05031281 -14.92573643 0.25098039 0.27450980 0.65882353
v -0.12206553 -0.05349826 -14.92840481 0.25098039 0.27450980 0.65882353
v -0.11779225 -0.05349142 -14.92623234 0.25098039 0.27450980 0.65882353
v -0.12258985 -0.04783874 -14.92177391 0.25098039 0.27450980 0.65882353
v -0.11439034 -0.05453787 -14.92910576 0.25098039 0.27450980 0.65882353
v -0.11376525 -0.05502943 -14.93038845 0.25098039 0.27450980 0.65882353
v -0.11907475 -0.04541782 -14.91842842 0.25098039 0.27450980 0.65882353
v -0.11279657 -0.04215845 -14.92295551 0.25098039 0.27450980 0.65882353
v -0.11261220 -0.04720940 -14.92793465 0.25098039 0.27450980 0.65882353
v -0.11293729 -0.05135246 -14.93107319 0.25098039 0.27450980 0.65882353
v -0.11441223 -0.05460433 -14.93268585 0.25098039 0.27450980 0.65882353
v -0.11309429 -0.04496688 -14.92943382 0.25098039 0.27450980 0.65882353
v -0.11322369 -0.04989079 -14.93309116 0.25098039 0.27450980 0.65882353
v -0.11495896 -0.05283137 -14.93462658 0.25098039 0.27450980 0.65882353
v -0.11500195 -0.04288156 -14.93143463 0.25098039 0.27450980 0.65882353
v -0.11509550 -0.04804733 -14.93419170 0.25098039 0.27450980 0.65882353
v -0.11565796 -0.03758362 -14.92703342 0.25098039 0.27450980 0.65882353
v -0.11352374 -0.03970613 -14.92514515 0.25098039 0.27450980 0.65882353
v -0.11590942 -0.05108546 -14.93484974 0.25098039 0.27450980 0.65882353
v -0.11719787 -0.05676461 -14.93029594 0.25098039 0.27450980 0.65882353
v -0.11751711 -0.05573154 -14.93322277 0.25098039 0.27450980 0.65882353
v -0.11751882 -0.05618849 -14.92891788 0.25098039 0.27450980 0.65882353
v -0.12439719 -0.04971520 -14.92640591 0.25098039 0.27450980 0.65882353
v -0.12314795 -0.05349755 -14.92979431 0.25098039 0.27450980 0.65882353
v -0.12548971 -0.04813755 -14.92818356 0.25098039 0.27450980 0.65882353
v -0.12347020 -0.05237892 -14.93174362 0.25098039 0.27450980 0.65882353
v -0.12087045 -0.05607311 -14.93109989 0.25098039 0.27450980 0.65882353
v -0.12020458 -0.05557517 -14.92922688 0.25098039 0.27450980 0.65882353
v -0.11558734 -0.03619818 -14.92540932 0.25098039 0.27450980 0.65882353
v -0.11972342 -0.03539015 -14.92605686 0.25098039 0.27450980 0.65882353
v -0.11984140 -0.03704480 -14.92780781 0.25098039 0.27450980 0.65882353
v -0.11876187 -0.04215842 -14.93236637 0.25098039 0.27450980 0.65882353
v -0.12395827 -0.03812238 -14.92744827 0.25098039 0.27450980 0.65882353
v -0.12613688 -0.04073806 -14.92581177 0.25098039 0.27450980 0.65882353
v -0.12488483 -0.04604798 -14.93008518 0.25098039 0.27450980 0.65882353
v -0.12287129 -0.04389063 -14.93191338 0.25098039 0.27450980 0.65882353
v -0.12278660 -0.05100871 -14.93350887 0.25098039 0.27450980 0.65882353
v -0.12111511 -0.04868462 -14.93479824 0.25098039 0.27450980 0.65882353
v -0.11812346 -0.04733985 -14.93520164 0.25098039 0.27450980 0.65882353
v -0.12004367 -0.05355903 -14.93448162 0.25098039 0.27450980 0.65882353
v -0.12061460 -0.05512663 -14.93335629 0.25098039 0.27450980 0.65882353
v -0.11772244 -0.05384012 -14.93464088 0.25098039 0.27450980 0.65882353
v -0.11942332 -0.05171793 -14.93527412 0.25098039 0.27450980 0.65882353
v -0.11779366 -0.05134589 -14.93528080 0.25098039 0.27450980 0.65882353
v -0.13027307 0.00077246 -14.91532135 0.25098039 0.27450980 0.65882353
v -0.06662954 0.03073920 -14.99362087 0.25098039 0.27450980 0.65882353
v -0.06778461 0.02739769 -14.98907566 0.25098039 0.27450980 0.65882353
v -0.08065340 0.01862495 -14.99447250 0.25098039 0.27450980 0.65882353
v -0.07574983 0.01901756 -14.98935223 0.25098039 0.27450980 0.65882353
v -0.08244444 0.02069074 -15.00052643 0.25098039 0.27450980 0.65882353
v -0.07820958 0.02912592 -15.00559998 0.25098039 0.27450980 0.65882353
v -0.08197248 0.02539686 -15.00381851 0.25098039 0.27450980 0.65882353
v -0.07113475 0.02240036 -14.98760605 0.25098039 0.27450980 0.65882353
v -0.06792882 0.03319367 -14.99877548 0.25098039 0.27450980 0.65882353
v -0.07283284 0.03305811 -15.00400543 0.25098039 0.27450980 0.65882353
v -0.06220186 0.02786613 -15.00212479 0.25098039 0.27450980 0.65882353
v -0.06742768 0.02705050 -15.00786018 0.25098039 0.27450980 0.65882353
v -0.07276379 0.02295025 -15.00991535 0.25098039 0.27450980 0.65882353
v -0.07771842 0.01928587 -15.00699902 0.25098039 0.27450980 0.65882353
v -0.07932286 0.01624025 -15.00353718 0.25098039 0.27450980 0.65882353
v -0.06305546 0.02543225 -14.99530983 0.25098039 0.27450980 0.65882353
v -0.06494544 0.02219117 -14.99098778 0.25098039 0.27450980 0.65882353
v -0.06979470 0.01806352 -14.98946762 0.25098039 0.27450980 0.65882353
v -0.05951260 0.01807757 -14.99591923 0.25098039 0.27450980 0.65882353
v -0.05671048 0.01109402 -15.00279617 0.25098039 0.27450980 0.65882353
v -0.06242341 -0.00338048 -15.01321697 0.25098039 0.27450980 0.65882353
v -0.06620803 0.00213929 -15.01207638 0.25098039 0.27450980 0.65882353
v -0.06338800 0.00288986 -15.01218033 0.25098039 0.27450980 0.65882353
v -0.06017429 -0.00195031 -15.01385117 0.25098039 0.27450980 0.65882353
v -0.06646043 0.00763143 -15.01153851 0.25098039 0.27450980 0.65882353
v -0.06424849 0.00680395 -15.01091194 0.25098039 0.27450980 0.65882353
v -0.06067291 0.00942013 -15.00820923 0.25098039 0.27450980 0.65882353
v -0.05771372 0.00506441 -15.01010895 0.25098039 0.27450980 0.65882353
v -0.05730456 0.00897155 -15.00459480 0.25098039 0.27450980 0.65882353
v -0.05522743 0.00554219 -15.00440025 0.25098039 0.27450980 0.65882353
v -0.05497515 0.00053463 -15.01129913 0.25098039 0.27450980 0.65882353
v -0.05660400 -0.00402486 -15.01446342 0.25098039 0.27450980 0.65882353
v -0.05278680 -0.00364635 -15.01210880 0.25098039 0.27450980 0.65882353
v -0.05808760 -0.00649478 -15.01317024 0.25098039 0.27450980 0.65882353
v -0.05984493 0.01147252 -15.00962448 0.25098039 0.27450980 0.65882353
v -0.07289679 0.01062471 -15.00989056 0.25098039 0.27450980 0.65882353
v -0.06970878 0.00216400 -15.01017570 0.25098039 0.27450980 0.65882353
v -0.06507884 -0.00437319 -15.01061821 0.25098039 0.27450980 0.65882353
v -0.05967306 -0.00771001 -15.01055622 0.25098039 0.27450980 0.65882353
v -0.07184680 0.00152344 -15.00617886 0.25098039 0.27450980 0.65882353
v -0.06677726 -0.00410972 -15.00633335 0.25098039 0.27450980 0.65882353
v -0.06156158 -0.00684322 -15.00575066 0.25098039 0.27450980 0.65882353
v -0.07146962 0.00138631 -15.00139809 0.25098039 0.27450980 0.65882353
v -0.06632061 -0.00339356 -15.00241089 0.25098039 0.27450980 0.65882353
v -0.07707557 0.01252224 -14.99876976 0.25098039 0.27450980 0.65882353
v -0.07711656 0.01172264 -15.00502968 0.25098039 0.27450980 0.65882353
v -0.06248739 -0.00547580 -15.00330830 0.25098039 0.27450980 0.65882353
v -0.05222045 -0.00609679 -15.01128101 0.25098039 0.27450980 0.65882353
v -0.05414347 -0.00742682 -15.00799751 0.25098039 0.27450980 0.65882353
v -0.05466898 0.00635993 -15.00092506 0.25098039 0.27450980 0.65882353
v -0.05200456 0.00162592 -15.00584221 0.25098039 0.27450980 0.65882353
v -0.05218397 0.00109409 -15.00261402 0.25098039 0.27450980 0.65882353
v -0.05589689 0.00718568 -14.99701309 0.25098039 0.27450980 0.65882353
v -0.05295941 0.00042821 -14.99969578 0.25098039 0.27450980 0.65882353
v -0.05063133 -0.00314088 -15.00617313 0.25098039 0.27450980 0.65882353
v -0.05115508 -0.00145824 -15.00847340 0.25098039 0.27450980 0.65882353
v -0.07883953 0.01536617 -14.99749470 0.25098039 0.27450980 0.65882353
v -0.07523616 0.01628291 -14.99202824 0.25098039 0.27450980 0.65882353
v -0.07326712 0.01386239 -14.99335003 0.25098039 0.27450980 0.65882353
v -0.06826514 0.00333854 -14.99620438 0.25098039 0.27450980 0.65882353
v -0.06789860 0.01468428 -14.99065018 0.25098039 0.27450980 0.65882353
v -0.06247233 0.01660895 -14.99235535 0.25098039 0.27450980 0.65882353
v -0.05851480 0.00631373 -14.99422741 0.25098039 0.27450980 0.65882353
v -0.06315485 0.00496852 -14.99347401 0.25098039 0.27450980 0.65882353
v -0.05600502 -0.00059012 -14.99765110 0.25098039 0.27450980 0.65882353
v -0.05909668 -0.00125013 -14.99726963 0.25098039 0.27450980 0.65882353
v -0.06348138 -0.00287559 -14.99906635 0.25098039 0.27450980 0.65882353
v -0.05519260 -0.00442640 -15.00115204 0.25098039 0.27450980 0.65882353
v -0.05207062 -0.00408678 -15.00316906 0.25098039 0.27450980 0.65882353
v -0.05717193 -0.00680701 -15.00414753 0.25098039 0.27450980 0.65882353
v -0.05786888 -0.00374193 -15.00000477 0.25098039 0.27450980 0.65882353
v -0.05982880 -0.00517223 -15.00182152 0.25098039 0.27450980 0.65882353
v -0.12794131 0.00684944 -14.92525101 0.25098039 0.27450980 0.65882353
v -0.12182451 0.00644405 -14.92789459 0.25098039 0.27450980 0.65882353
v -0.12657112 0.01052485 -14.92956734 0.25098039 0.27450980 0.65882353
v -0.13160585 0.01771029 -14.93274403 0.25098039 0.27450980 0.65882353
v -0.14023973 0.02459969 -14.93259430 0.25098039 0.27450980 0.65882353
v -0.12554374 0.01922078 -14.93526268 0.25098039 0.27450980 0.65882353
v -0.12059957 0.01187248 -14.93131447 0.25098039 0.27450980 0.65882353
v -0.11406802 0.00541503 -14.92766190 0.25098039 0.27450980 0.65882353
v -0.12312308 0.02769938 -14.94030094 0.25098039 0.27450980 0.65882353
f 2 3 1
f 1 3 4
f 5 6 8
f 8 6 7
f 9 4 10
f 10 4 3
f 12 13 11
f 11 13 9
f 14 12 16
f 16 12 15
f 18 19 17
f 17 19 20
f 22 23 21
f 21 23 24
f 26 27 25
f 25 27 28
f 30 31 29
f 29 31 32
f 33 34 36
f 36 34 35
f 37 38 40
f 40 38 39
f 41 42 6
f 6 42 43
f 6 43 7
f 7 43 44
f 45 34 46
f 46 34 33
f 48 49 47
f 47 49 50
f 52 53 51
f 51 53 54
f 56 52 55
f 55 52 51
f 58 59 57
f 57 59 60
f 61 62 4
f 4 62 1
f 64 65 63
f 63 65 66
f 68 69 67
f 67 69 70
f 72 73 71
f 71 73 74
f 76 77 75
f 75 77 78
f 53 79 54
f 54 79 80
f 82 83 81
f 81 83 84
f 85 86 52
f 52 86 53
f 57 60 87
f 87 60 88
f 89 90 43
f 43 90 44
f 43 42 89
f 89 42 91
f 40 39 92
f 92 39 93
f 94 70 64
f 64 70 69
f 13 61 9
f 9 61 4
f 25 28 69
f 69 28 95
f 96 25 68
f 68 25 69
f 98 99 97
f 97 99 100
f 101 102 104
f 104 102 103
f 106 30 105
f 105 30 29
f 51 54 107
f 107 54 108
f 54 80 108
f 108 80 109
f 111 112 110
f 110 112 113
f 115 5 114
f 114 5 116
f 115 41 5
f 5 41 6
f 36 35 111
f 111 35 117
f 35 118 117
f 117 118 119
f 34 120 35
f 35 120 118
f 34 45 120
f 120 45 121
f 125 126 124
f 124 126 127
f 128 129 14
f 14 129 130
f 33 131 46
f 46 131 132
f 133 94 63
f 63 94 64
f 134 135 137
f 137 135 136
f 139 140 138
f 138 140 141
f 77 142 78
f 78 142 143
f 144 145 20
f 20 145 146
f 148 149 147
f 147 149 72
f 151 152 150
f 150 152 153
f 82 101 83
f 83 101 104
f 101 82 155
f 155 82 154
f 156 157 58
f 58 157 59
f 158 68 147
f 147 68 67
f 159 146 15
f 15 146 16
f 68 158 96
f 96 158 160
f 129 66 130
f 130 66 65
f 162 163 161
f 161 163 164
f 166 167 165
f 165 167 168
f 170 171 169
f 169 171 172
f 174 171 173
f 173 171 170
f 176 177 175
f 175 177 178
f 180 181 179
f 179 181 24
f 182 183 21
f 21 183 184
f 81 185 82
f 82 185 154
f 186 187 188
f 188 187 144
f 158 71 160
f 160 71 189
f 190 135 157
f 157 135 59
f 169 172 139
f 139 172 140
f 147 72 158
f 158 72 71
f 192 193 191
f 191 193 194
f 167 166 49
f 49 166 195
f 196 190 50
f 50 190 157
f 197 198 200
f 200 198 199
f 21 24 182
f 182 24 181
f 146 159 20
f 20 159 17
f 182 181 81
f 81 181 185
f 201 185 180
f 180 185 181
f 202 203 83
f 83 203 84
f 205 206 204
f 204 206 85
f 207 22 184
f 184 22 21
f 179 24 208
f 208 24 23
f 208 209 179
f 179 209 205
f 209 210 205
f 205 210 206
f 212 206 211
f 211 206 210
f 179 205 180
f 180 205 204
f 213 176 88
f 88 176 214
f 86 85 212
f 212 85 206
f 193 217 218
f 217 219 218
f 218 219 220
f 219 18 220
f 220 18 17
f 19 221 20
f 20 221 144
f 222 223 225
f 225 223 224
f 175 226 176
f 176 226 214
f 227 87 214
f 214 87 88
f 220 17 228
f 228 17 159
f 134 213 60
f 60 213 88
f 138 229 151
f 151 229 152
f 193 192 210
f 210 192 211
f 230 194 218
f 218 194 193
f 231 232 228
f 228 232 230
f 233 234 91
f 91 234 89
f 235 236 93
f 93 236 92
f 230 232 234
f 234 232 237
f 47 238 48
f 48 238 239
f 240 191 235
f 235 191 236
f 5 8 116
f 116 8 241
f 242 243 189
f 189 243 160
f 244 245 98
f 98 245 99
f 156 246 47
f 47 246 238
f 76 247 77
f 77 247 248
f 250 125 249
f 249 125 124
f 252 253 251
f 251 253 254
f 111 110 36
f 36 110 255
f 256 33 255
f 255 33 36
f 257 258 154
f 154 258 155
f 63 169 133
f 133 169 139
f 66 170 63
f 63 170 169
f 173 170 129
f 129 170 66
f 129 128 173
f 173 128 259
f 128 260 259
f 259 260 261
f 213 134 262
f 262 134 137
f 263 264 186
f 186 264 187
f 112 265 113
f 113 265 266
f 11 267 268
f 234 233 230
f 230 233 194
f 153 269 70
f 70 269 67
f 175 178 165
f 165 178 141
f 150 153 94
f 94 153 70
f 271 221 270
f 270 221 207
f 269 153 272
f 272 153 152
f 121 45 109
f 109 45 108
f 47 50 156
f 156 50 157
f 57 273 58
f 58 273 274
f 145 275 260
f 260 275 261
f 276 149 143
f 143 149 78
f 148 269 75
f 75 269 272
f 207 277 270
f 270 277 278
f 195 196 49
f 49 196 50
f 59 135 60
f 60 135 134
f 83 104 202
f 202 104 279
f 149 148 78
f 78 148 75
f 247 278 248
f 248 278 277
f 183 182 84
f 84 182 81
f 48 239 281
f 281 239 282
f 227 223 283
f 283 223 222
f 223 226 224
f 224 226 168
f 281 282 224
f 224 282 225
f 165 168 175
f 175 168 226
f 264 263 138
f 138 263 229
f 14 16 128
f 128 16 260
f 220 228 218
f 218 228 230
f 87 227 284
f 284 227 283
f 260 16 145
f 145 16 146
f 244 98 258
f 258 98 155
f 58 274 156
f 156 274 246
f 107 285 51
f 51 285 55
f 243 286 160
f 160 286 96
f 234 237 89
f 89 237 90
f 46 132 107
f 107 132 285
f 253 252 249
f 249 252 250
f 286 26 96
f 96 26 25
f 106 105 287
f 287 105 288
f 272 152 289
f 289 152 229
f 138 151 139
f 139 151 133
f 183 290 161
f 161 290 162
f 291 292 277
f 277 292 293
f 151 150 133
f 133 150 94
f 262 275 177
f 177 275 187
f 144 187 145
f 145 187 275
f 273 57 284
f 284 57 87
f 174 136 190
f 190 136 135
f 111 117 112
f 112 117 38
f 117 119 38
f 38 119 123
f 112 38 265
f 265 38 37
f 287 288 254
f 254 288 251
f 228 159 231
f 231 159 15
f 223 227 226
f 226 227 214
f 147 67 148
f 148 67 269
f 224 168 281
f 281 168 167
f 199 163 200
f 200 163 162
f 45 46 108
f 108 46 107
f 281 167 48
f 48 167 49
f 161 164 291
f 291 164 292
f 38 123 39
f 293 294 277
f 277 294 248
f 284 283 296
f 296 283 295
f 284 296 273
f 273 296 297
f 274 273 298
f 298 273 297
f 246 274 299
f 299 274 298
f 283 222 295
f 295 222 300
f 222 225 300
f 300 225 301
f 301 225 302
f 302 225 282
f 303 304 300
f 300 304 295
f 306 307 305
f 305 307 308
f 309 310 308
f 308 310 305
f 308 307 312
f 312 307 311
f 313 314 312
f 312 314 315
f 311 316 312
f 312 316 313
f 317 304 311
f 311 304 316
f 315 309 312
f 312 309 308
f 318 319 321
f 321 319 320
f 319 318 309
f 309 318 310
f 311 307 317
f 317 307 306
f 306 297 317
f 317 297 296
f 306 322 297
f 297 322 298
f 305 323 306
f 306 323 322
f 323 305 324
f 324 305 310
f 304 317 295
f 295 317 296
f 318 325 310
f 310 325 324
f 323 324 326
f 326 324 327
f 324 325 327
f 327 325 328
f 326 327 329
f 329 327 330
f 329 331 326
f 326 331 332
f 333 330 328
f 328 330 327
f 323 326 322
f 322 326 332
f 322 332 298
f 298 332 299
f 325 318 334
f 334 318 321
f 313 316 335
f 335 316 304
f 335 336 313
f 313 336 314
f 304 303 335
f 335 303 337
f 336 335 338
f 338 335 337
f 336 339 314
f 314 339 340
f 246 299 238
f 238 299 341
f 239 342 282
f 282 342 302
f 342 239 341
f 341 239 238
f 341 331 342
f 342 331 343
f 331 329 343
f 343 329 344
f 342 343 302
f 302 343 345
f 341 299 331
f 331 299 332
f 346 301 345
f 345 301 302
f 346 303 301
f 301 303 300
f 347 337 346
f 346 337 303
f 347 346 348
f 348 346 345
f 349 347 350
f 350 347 348
f 343 344 345
f 345 344 348
f 344 351 348
f 348 351 350
f 337 347 338
f 338 347 349
f 353 338 352
f 352 338 349
f 352 355 354
f 354 355 356
f 352 349 355
f 355 349 350
f 352 354 353
f 353 354 334
f 353 334 339
f 339 334 321
f 339 336 353
f 353 336 338
f 329 330 344
f 344 330 351
f 356 351 333
f 333 351 330
f 356 355 351
f 351 355 350
f 354 356 328
f 328 356 333
f 328 325 354
f 354 325 334
f 309 315 319
f 319 315 320
f 320 340 321
f 321 340 339
f 320 315 340
f 340 315 314
f 137 136 261
f 261 136 259
f 140 166 141
f 141 166 165
f 172 171 195
f 195 171 196
f 171 174 196
f 196 174 190
f 178 177 264
f 264 177 187
f 172 195 140
f 140 195 166
f 137 261 262
f 262 261 275
f 178 264 141
f 141 264 138
f 262 177 213
f 213 177 176
f 136 174 259
f 259 174 173
f 358 359 357
f 357 359 360
f 362 363 361
f 361 363 364
f 361 364 365
f 365 364 366
f 367 368 370
f 370 368 369
f 76 371 247
f 247 371 372
f 373 374 362
f 362 374 363
f 376 377 375
f 375 377 378
f 289 229 380
f 380 229 379
f 381 379 263
f 263 379 229
f 383 384 382
f 382 384 385
f 386 368 374
f 374 368 363
f 76 289 371
f 371 289 380
f 377 376 359
f 359 376 387
f 388 386 360
f 360 386 374
f 389 383 366
f 366 383 390
f 392 393 391
f 391 393 394
f 383 382 390
f 390 382 395
f 396 365 390
f 390 365 366
f 389 366 367
f 367 366 364
f 357 397 358
f 358 397 398
f 373 399 357
f 357 399 397
f 389 367 400
f 400 367 370
f 382 385 375
f 375 385 372
f 357 360 373
f 373 360 374
f 361 401 362
f 362 401 402
f 387 388 359
f 359 388 360
f 363 368 364
f 364 368 367
f 358 398 403
f 403 398 404
f 396 392 405
f 405 392 391
f 392 395 393
f 393 395 378
f 393 403 394
f 394 403 404
f 375 378 382
f 382 378 395
f 365 396 406
f 406 396 405
f 362 402 373
f 373 402 399
f 271 270 400
f 400 270 384
f 401 361 406
f 406 361 365
f 381 369 386
f 386 369 368
f 392 396 395
f 395 396 390
f 393 378 403
f 403 378 377
f 403 377 358
f 358 377 359
f 406 405 408
f 408 405 407
f 406 408 401
f 401 408 409
f 401 409 402
f 402 409 410
f 402 410 399
f 399 410 411
f 405 391 407
f 407 391 412
f 391 394 412
f 412 394 413
f 394 404 413
f 413 404 414
f 415 416 412
f 412 416 407
f 418 419 417
f 417 419 420
f 421 422 418
f 418 422 419
f 419 422 424
f 424 422 423
f 425 426 424
f 424 426 427
f 423 428 424
f 424 428 425
f 427 420 424
f 424 420 419
f 420 429 417
f 417 429 430
f 423 422 431
f 431 422 421
f 421 409 431
f 431 409 408
f 421 432 409
f 409 432 410
f 418 433 421
f 421 433 432
f 434 433 417
f 417 433 418
f 431 416 423
f 423 416 428
f 416 431 407
f 407 431 408
f 435 434 430
f 430 434 417
f 433 434 436
f 436 434 437
f 434 435 437
f 437 435 438
f 436 437 439
f 439 437 440
f 439 441 436
f 436 441 442
f 438 443 437
f 437 443 440
f 436 442 433
f 433 442 432
f 432 442 410
f 410 442 411
f 435 430 445
f 445 430 444
f 430 429 444
f 444 429 446
f 425 428 447
f 447 428 416
f 426 425 448
f 448 425 447
f 416 415 447
f 447 415 449
f 447 449 448
f 448 449 450
f 451 452 448
f 448 452 426
f 446 452 444
f 444 452 451
f 399 411 397
f 397 411 453
f 398 454 404
f 404 454 414
f 454 398 453
f 453 398 397
f 453 441 454
f 454 441 455
f 441 439 455
f 455 439 456
f 454 455 414
f 414 455 457
f 441 453 442
f 442 453 411
f 458 413 457
f 457 413 414
f 458 415 413
f 413 415 412
f 458 459 415
f 415 459 449
f 459 458 460
f 460 458 457
f 461 459 462
f 462 459 460
f 455 456 457
f 457 456 460
f 456 463 460
f 460 463 462
f 459 461 449
f 449 461 450
f 465 450 464
f 464 450 461
f 464 467 466
f 466 467 468
f 464 461 467
f 467 461 462
f 464 466 465
f 465 466 445
f 465 445 451
f 451 445 444
f 451 448 465
f 465 448 450
f 439 440 456
f 456 440 463
f 468 463 443
f 443 463 440
f 468 467 463
f 463 467 462
f 466 468 438
f 438 468 443
f 438 435 466
f 466 435 445
f 420 427 429
f 429 427 446
f 446 427 452
f 452 427 426
f 370 369 188
f 188 369 186
f 371 376 372
f 372 376 375
f 380 379 387
f 387 379 388
f 379 381 388
f 388 381 386
f 385 384 278
f 278 384 270
f 380 387 371
f 371 387 376
f 400 370 271
f 271 370 188
f 385 278 372
f 372 278 247
f 400 384 389
f 389 384 383
f 369 381 186
f 186 381 263
f 221 271 144
f 144 271 188
f 221 19 207
f 207 19 22
f 19 18 22
f 22 18 23
f 18 219 23
f 23 219 208
f 469 470 472
f 472 470 471
f 474 475 473
f 473 475 476
f 473 476 477
f 477 476 478
f 480 481 479
f 479 481 482
f 483 484 474
f 474 484 475
f 486 487 485
f 485 487 488
f 489 490 77
f 77 490 142
f 491 489 248
f 248 489 77
f 493 494 492
f 492 494 495
f 496 480 484
f 484 480 475
f 486 497 487
f 487 497 471
f 498 496 472
f 472 496 484
f 499 493 478
f 478 493 500
f 501 502 504
f 504 502 503
f 493 492 500
f 500 492 505
f 506 477 500
f 500 477 478
f 499 478 479
f 479 478 476
f 469 507 470
f 470 507 508
f 483 509 469
f 469 509 507
f 479 482 499
f 499 482 510
f 492 495 485
f 485 495 511
f 483 469 484
f 484 469 472
f 473 512 474
f 474 512 513
f 497 498 471
f 471 498 472
f 475 480 476
f 476 480 479
f 470 508 514
f 514 508 515
f 506 502 516
f 516 502 501
f 503 502 488
f 488 502 505
f 514 515 503
f 503 515 504
f 485 488 492
f 492 488 505
f 477 506 517
f 517 506 516
f 474 513 483
f 483 513 509
f 510 292 494
f 494 292 164
f 512 473 517
f 517 473 477
f 491 481 496
f 496 481 480
f 502 506 505
f 505 506 500
f 503 488 514
f 514 488 487
f 514 487 470
f 470 487 471
f 517 516 519
f 519 516 518
f 517 519 512
f 512 519 520
f 512 520 513
f 513 520 521
f 513 521 509
f 509 521 522
f 516 501 518
f 518 501 523
f 501 504 523
f 523 504 524
f 524 504 525
f 525 504 515
f 526 527 523
f 523 527 518
f 529 530 528
f 528 530 531
f 532 533 529
f 529 533 530
f 530 533 535
f 535 533 534
f 536 537 535
f 535 537 538
f 534 539 535
f 535 539 536
f 538 531 535
f 535 531 530
f 540 541 531
f 531 541 528
f 533 532 534
f 534 532 542
f 532 520 542
f 542 520 519
f 532 543 520
f 520 543 521
f 529 544 532
f 532 544 543
f 544 529 545
f 545 529 528
f 534 542 539
f 539 542 527
f 527 542 518
f 518 542 519
f 541 546 528
f 528 546 545
f 547 544 548
f 548 544 545
f 546 549 545
f 545 549 548
f 550 547 551
f 551 547 548
f 547 550 553
f 553 550 552
f 549 554 548
f 548 554 551
f 544 547 543
f 543 547 553
f 543 553 521
f 521 553 522
f 546 541 556
f 556 541 555
f 541 540 555
f 555 540 557
f 536 539 558
f 558 539 527
f 537 536 559
f 559 536 558
f 527 526 558
f 558 526 560
f 559 558 561
f 561 558 560
f 559 562 537
f 537 562 563
f 557 563 555
f 555 563 562
f 509 522 507
f 507 522 564
f 508 565 515
f 515 565 525
f 565 508 564
f 564 508 507
f 564 552 565
f 565 552 566
f 552 550 566
f 566 550 567
f 565 566 525
f 525 566 568
f 564 522 552
f 552 522 553
f 569 524 568
f 568 524 525
f 569 526 524
f 524 526 523
f 570 560 569
f 569 560 526
f 570 569 571
f 571 569 568
f 572 570 573
f 573 570 571
f 566 567 568
f 568 567 571
f 567 574 571
f 571 574 573
f 570 572 560
f 560 572 561
f 576 561 575
f 575 561 572
f 575 578 577
f 577 578 579
f 575 572 578
f 578 572 573
f 575 577 576
f 576 577 556
f 576 556 562
f 562 556 555
f 562 559 576
f 576 559 561
f 550 551 567
f 567 551 574
f 579 574 554
f 554 574 551
f 579 578 574
f 574 578 573
f 579 554 577
f 577 554 549
f 549 546 577
f 577 546 556
f 531 538 540
f 540 538 557
f 557 538 563
f 563 538 537
f 481 294 482
f 482 294 293
f 580 486 511
f 511 486 485
f 490 489 497
f 497 489 498
f 489 491 498
f 498 491 496
f 163 495 164
f 164 495 494
f 580 490 486
f 486 490 497
f 482 293 510
f 510 293 292
f 495 163 511
f 511 163 199
f 494 493 510
f 510 493 499
f 481 491 294
f 294 491 248
f 582 583 581
f 581 583 584
f 586 587 585
f 585 587 588
f 585 588 589
f 589 588 590
f 592 593 591
f 591 593 594
f 595 596 598
f 598 596 597
f 599 600 586
f 586 600 587
f 601 602 604
f 604 602 603
f 605 606 608
f 608 606 607
f 609 607 200
f 200 607 606
f 610 611 613
f 613 611 612
f 600 614 587
f 587 614 592
f 596 605 597
f 597 605 608
f 602 615 603
f 603 615 583
f 616 614 584
f 584 614 600
f 611 618 617
f 617 618 590
f 620 621 619
f 619 621 622
f 610 623 611
f 611 623 618
f 624 589 618
f 618 589 590
f 617 590 591
f 591 590 588
f 581 625 582
f 582 625 626
f 599 627 581
f 581 627 625
f 591 594 617
f 617 594 628
f 601 610 598
f 598 610 613
f 581 584 599
f 599 584 600
f 585 629 586
f 586 629 630
f 615 616 583
f 583 616 584
f 587 592 588
f 588 592 591
f 582 626 631
f 631 626 632
f 624 620 633
f 633 620 619
f 621 620 604
f 604 620 623
f 631 632 621
f 621 632 622
f 610 601 623
f 623 601 604
f 589 624 634
f 634 624 633
f 586 630 599
f 599 630 627
f 203 202 628
f 628 202 612
f 629 585 634
f 634 585 589
f 609 593 614
f 614 593 592
f 620 624 623
f 623 624 618
f 631 621 603
f 603 621 604
f 582 631 583
f 583 631 603
f 634 633 636
f 636 633 635
f 634 636 629
f 629 636 637
f 629 637 630
f 630 637 638
f 630 638 627
f 627 638 639
f 633 619 635
f 635 619 640
f 619 622 640
f 640 622 641
f 641 622 642
f 642 622 632
f 644 635 643
f 643 635 640
f 645 646 648
f 648 646 647
f 649 650 646
f 646 650 647
f 647 650 652
f 652 650 651
f 652 653 655
f 655 653 654
f 651 656 652
f 652 656 653
f 655 648 652
f 652 648 647
f 648 657 645
f 645 657 658
f 650 649 651
f 651 649 659
f 649 637 659
f 659 637 636
f 649 660 637
f 637 660 638
f 661 660 646
f 646 660 649
f 662 661 645
f 645 661 646
f 651 659 656
f 656 659 644
f 644 659 635
f 635 659 636
f 663 662 658
f 658 662 645
f 664 661 665
f 665 661 662
f 663 666 662
f 662 666 665
f 667 664 668
f 668 664 665
f 664 667 670
f 670 667 669
f 666 671 665
f 665 671 668
f 661 664 660
f 660 664 670
f 660 670 638
f 638 670 639
f 658 672 663
f 663 672 673
f 658 657 672
f 672 657 674
f 653 656 675
f 675 656 644
f 653 675 654
f 654 675 676
f 675 644 677
f 677 644 643
f 676 675 678
f 678 675 677
f 679 680 676
f 676 680 654
f 674 680 672
f 672 680 679
f 627 639 625
f 625 639 681
f 626 682 632
f 632 682 642
f 681 682 625
f 625 682 626
f 669 683 681
f 681 683 682
f 667 684 669
f 669 684 683
f 682 683 642
f 642 683 685
f 681 639 669
f 669 639 670
f 686 641 685
f 685 641 642
f 641 686 640
f 640 686 643
f 686 687 643
f 643 687 677
f 687 686 688
f 688 686 685
f 689 687 690
f 690 687 688
f 683 684 685
f 685 684 688
f 684 691 688
f 688 691 690
f 687 689 677
f 677 689 678
f 693 678 692
f 692 678 689
f 692 695 694
f 694 695 696
f 692 689 695
f 695 689 690
f 692 694 693
f 693 694 673
f 693 673 679
f 679 673 672
f 679 676 693
f 693 676 678
f 684 667 691
f 691 667 668
f 696 691 671
f 671 691 668
f 696 695 691
f 691 695 690
f 694 696 666
f 666 696 671
f 666 663 694
f 694 663 673
f 648 655 657
f 657 655 674
f 674 655 680
f 680 655 654
f 593 162 594
f 594 162 290
f 598 597 601
f 601 597 602
f 615 608 616
f 616 608 607
f 607 609 616
f 616 609 614
f 697 595 613
f 613 595 598
f 597 608 602
f 602 608 615
f 594 290 628
f 628 290 203
f 628 612 617
f 617 612 611
f 593 609 162
f 162 609 200
f 105 29 698
f 698 29 699
f 268 126 701
f 701 126 700
f 126 125 700
f 700 125 702
f 252 703 250
f 250 703 704
f 32 268 705
f 705 268 701
f 288 105 706
f 706 105 698
f 29 32 699
f 699 32 705
f 707 251 706
f 706 251 288
f 250 704 125
f 125 704 702
f 703 252 707
f 707 252 251
f 706 708 707
f 707 708 709
f 707 709 703
f 703 709 710
f 703 710 704
f 704 710 711
f 704 711 702
f 702 711 712
f 706 698 708
f 708 698 713
f 698 699 713
f 713 699 714
f 699 705 714
f 714 705 715
f 717 708 716
f 716 708 713
f 719 720 718
f 718 720 721
f 722 723 719
f 719 723 720
f 724 725 723
f 723 725 720
f 724 726 725
f 725 726 727
f 728 721 725
f 725 721 720
f 721 728 729
f 729 728 730
f 729 731 721
f 721 731 718
f 724 723 732
f 732 723 722
f 722 710 732
f 732 710 709
f 722 733 710
f 710 733 711
f 719 734 722
f 722 734 733
f 734 719 735
f 735 719 718
f 724 732 726
f 726 732 717
f 717 732 708
f 708 732 709
f 731 736 718
f 718 736 735
f 737 734 738
f 738 734 735
f 736 739 735
f 735 739 738
f 740 737 741
f 741 737 738
f 737 740 743
f 743 740 742
f 739 744 738
f 738 744 741
f 734 737 733
f 733 737 743
f 733 743 711
f 711 743 712
f 736 731 746
f 746 731 745
f 731 729 745
f 745 729 730
f 727 726 747
f 747 726 717
f 748 727 749
f 749 727 747
f 747 717 750
f 750 717 716
f 749 747 751
f 751 747 750
f 749 752 748
f 748 752 753
f 730 753 745
f 745 753 752
f 728 725 748
f 748 725 727
f 730 728 753
f 753 728 748
f 700 702 754
f 754 702 712
f 705 701 715
f 715 701 755
f 754 755 700
f 700 755 701
f 742 756 754
f 754 756 755
f 740 757 742
f 742 757 756
f 755 756 715
f 715 756 758
f 754 712 742
f 742 712 743
f 759 714 758
f 758 714 715
f 714 759 713
f 713 759 716
f 759 760 716
f 716 760 750
f 760 759 761
f 761 759 758
f 762 760 763
f 763 760 761
f 756 757 758
f 758 757 761
f 757 764 761
f 761 764 763
f 760 762 750
f 750 762 751
f 766 751 765
f 765 751 762
f 767 765 769
f 769 765 768
f 765 762 768
f 768 762 763
f 765 767 766
f 766 767 746
f 766 746 752
f 752 746 745
f 752 749 766
f 766 749 751
f 757 740 764
f 764 740 741
f 769 764 744
f 744 764 741
f 769 768 764
f 764 768 763
f 767 769 739
f 739 769 744
f 739 736 767
f 767 736 746
f 219 217 208
f 208 217 209
f 209 217 210
f 210 217 193
f 198 580 199
f 199 580 511
f 76 75 289
f 289 75 272
f 277 207 291
f 291 207 184
f 290 183 203
f 203 183 84
f 490 580 142
f 142 580 198
f 142 198 143
f 143 198 197
f 149 276 72
f 72 276 73
f 104 103 279
f 279 103 770
f 770 596 279
f 279 596 595
f 605 596 771
f 771 596 770
f 771 770 772
f 772 770 103
f 772 103 773
f 773 103 102
f 155 774 101
f 101 774 102
f 773 102 97
f 97 102 774
f 775 773 100
f 100 773 97
f 773 775 772
f 772 775 776
f 772 776 771
f 771 776 777
f 200 606 197
f 197 606 777
f 189 71 778
f 778 71 74
f 97 774 98
f 98 774 155
f 183 161 184
f 184 161 291
f 777 276 197
f 197 276 143
f 777 606 771
f 771 606 605
f 613 612 697
f 697 612 202
f 595 697 279
f 279 697 202
f 73 276 776
f 776 276 777
f 776 775 73
f 73 775 74
f 100 778 775
f 775 778 74
f 778 100 189
f 189 100 99
f 245 242 99
f 99 242 189
f 131 33 256
f 28 1 95
f 95 1 62
f 27 2 28
f 28 2 1
f 265 115 266
f 266 115 114
f 95 62 69
f 69 62 64
f 62 61 64
f 64 61 65
f 61 13 65
f 65 13 130
f 13 12 130
f 130 12 14
f 31 11 32
f 32 11 268
f 15 12 31
f 31 12 11
f 31 30 15
f 15 30 231
f 30 106 231
f 231 106 232
f 287 237 106
f 106 237 232
f 254 90 287
f 287 90 237
f 253 44 254
f 254 44 90
f 253 249 44
f 44 249 7
f 267 127 268
f 268 127 126
f 10 3 241
f 241 3 116
f 3 2 116
f 116 2 114
f 2 27 114
f 114 27 266
f 27 26 266
f 266 26 113
f 26 286 113
f 113 286 110
f 286 243 110
f 110 243 255
f 243 242 255
f 255 242 256
f 242 245 256
f 256 245 131
f 245 244 131
f 131 244 132
f 265 37 115
f 115 37 41
f 41 37 42
f 42 37 40
f 92 91 40
f 40 91 42
f 236 233 92
f 92 233 91
f 191 194 236
f 236 194 233
f 258 285 244
f 244 285 132
f 257 55 258
f 258 55 285
f 257 154 201
f 201 154 185
f 56 201 204
f 204 201 180
f 55 257 56
f 56 257 201
f 204 85 56
f 56 85 52
f 86 122 53
f 53 122 79
f 212 215 86
f 86 215 122
f 211 216 212
f 212 216 215
f 192 280 211
f 211 280 216
f 191 240 192
f 192 240 280
f 249 124 7
f 7 124 8
f 124 127 8
f 8 127 241
f 127 267 241
f 241 267 10
f 10 267 9
f 9 267 11
f 93 39 235
f 235 39 240
f 39 123 240
f 240 123 280
f 123 119 280
f 280 119 216
f 119 118 216
f 216 118 215
f 118 120 215
f 215 120 122
f 120 121 122
f 122 121 79
f 121 109 79
f 79 109 80

