# https://github.com/mikedh/trimesh
v -0.08307390 -0.02533074 -16.12966156 0.25098039 0.27450980 0.65882353
v -0.09070818 -0.01984058 -16.13425636 0.25098039 0.27450980 0.65882353
v -0.08428217 -0.02408700 -16.14203453 0.25098039 0.27450980 0.65882353
v -0.07590762 -0.02904708 -16.13558960 0.25098039 0.27450980 0.65882353
v -0.09953600 -0.00968352 -16.15265465 0.25098039 0.27450980 0.65882353
v -0.09691256 0.00147786 -16.15764427 0.25098039 0.27450980 0.65882353
v -0.08770584 -0.00885151 -16.16401100 0.25098039 0.27450980 0.65882353
v -0.09179987 -0.01672578 -16.15934563 0.25098039 0.27450980 0.65882353
v -0.06923737 -0.03078522 -16.13928795 0.25098039 0.27450980 0.65882353
v -0.07906520 -0.02839401 -16.14767838 0.25098039 0.27450980 0.65882353
v -0.06477323 -0.02722692 -16.14106750 0.25098039 0.27450980 0.65882353
v -0.05546083 -0.02669616 -16.12758636 0.25098039 0.27450980 0.65882353
v -0.06078824 -0.03057465 -16.12960434 0.25098039 0.27450980 0.65882353
v -0.05119580 -0.02968387 -16.11945915 0.25098039 0.27450980 0.65882353
v -0.05559923 -0.01744620 -16.12256050 0.25098039 0.27450980 0.65882353
v -0.05261385 -0.02688697 -16.11031723 0.25098039 0.27450980 0.65882353
v -0.07571080 -0.01536503 -16.09697151 0.25098039 0.27450980 0.65882353
v -0.08755946 -0.01785739 -16.09156609 0.25098039 0.27450980 0.65882353
v -0.08032681 -0.03110415 -16.08739471 0.25098039 0.27450980 0.65882353
v -0.06910001 -0.02747012 -16.09395981 0.25098039 0.27450980 0.65882353
v -0.10029800 -0.03294489 -16.08615875 0.25098039 0.27450980 0.65882353
v -0.08897233 -0.03263786 -16.08629036 0.25098039 0.27450980 0.65882353
v -0.09597573 -0.01874079 -16.08958244 0.25098039 0.27450980 0.65882353
v -0.10590464 -0.01954545 -16.08921432 0.25098039 0.27450980 0.65882353
v -0.09752165 -0.02228147 -16.12237930 0.25098039 0.27450980 0.65882353
v -0.10479805 -0.01597959 -16.12585449 0.25098039 0.27450980 0.65882353
v -0.09923750 -0.01657107 -16.12716293 0.25098039 0.27450980 0.65882353
v -0.09233966 -0.02211270 -16.12443924 0.25098039 0.27450980 0.65882353
v -0.06178458 -0.02051877 -16.15382195 0.25098039 0.27450980 0.65882353
v -0.06114145 -0.01176689 -16.14264679 0.25098039 0.27450980 0.65882353
v -0.06059735 -0.01949171 -16.14035797 0.25098039 0.27450980 0.65882353
v -0.06472872 -0.02521146 -16.15357780 0.25098039 0.27450980 0.65882353
v -0.12786965 -0.00175582 -16.13399315 0.25098039 0.27450980 0.65882353
v -0.13125823 0.01163212 -16.13268280 0.25098039 0.27450980 0.65882353
v -0.12614915 0.01375246 -16.13447952 0.25098039 0.27450980 0.65882353
v -0.12426822 0.00114498 -16.13482285 0.25098039 0.27450980 0.65882353
v -0.10875645 0.01314565 -16.14688492 0.25098039 0.27450980 0.65882353
v -0.11194734 0.02118227 -16.14188385 0.25098039 0.27450980 0.65882353
v -0.10398997 0.03239966 -16.13953781 0.25098039 0.27450980 0.65882353
v -0.09826674 0.02538754 -16.14328003 0.25098039 0.27450980 0.65882353
v -0.10306990 0.00634901 -16.15260696 0.25098039 0.27450980 0.65882353
v -0.09474747 0.01709505 -16.15097809 0.25098039 0.27450980 0.65882353
v -0.08941524 0.01020998 -16.15702629 0.25098039 0.27450980 0.65882353
v -0.08155337 -0.00207179 -16.16469193 0.25098039 0.27450980 0.65882353
v -0.14108932 0.00808024 -16.12555313 0.25098039 0.27450980 0.65882353
v -0.14066651 -0.00200036 -16.12561226 0.25098039 0.27450980 0.65882353
v -0.02867422 -0.07041301 -16.11508751 0.25098039 0.27450980 0.65882353
v -0.03304383 -0.07389969 -16.11351395 0.25098039 0.27450980 0.65882353
v -0.03490561 -0.07043140 -16.11317253 0.25098039 0.27450980 0.65882353
v -0.03034818 -0.06752418 -16.11446381 0.25098039 0.27450980 0.65882353
v -0.14303495 0.00387840 -16.10613251 0.25098039 0.27450980 0.65882353
v -0.13830121 0.00727348 -16.09782219 0.25098039 0.27450980 0.65882353
v -0.14248726 0.01210025 -16.10015488 0.25098039 0.27450980 0.65882353
v -0.14536352 0.01022803 -16.10859680 0.25098039 0.27450980 0.65882353
v -0.13962027 -0.00458761 -16.10262108 0.25098039 0.27450980 0.65882353
v -0.13235398 0.00023383 -16.09514618 0.25098039 0.27450980 0.65882353
v -0.02029036 -0.07078989 -16.10591698 0.25098039 0.27450980 0.65882353
v -0.02126226 -0.06957830 -16.11072731 0.25098039 0.27450980 0.65882353
v -0.02280669 -0.06552275 -16.10847473 0.25098039 0.27450980 0.65882353
v -0.02252920 -0.06631726 -16.10319519 0.25098039 0.27450980 0.65882353
v -0.06797771 -0.03178876 -16.12925148 0.25098039 0.27450980 0.65882353
v -0.07669988 -0.03138650 -16.12645340 0.25098039 0.27450980 0.65882353
v -0.05784112 -0.04600437 -16.12068367 0.25098039 0.27450980 0.65882353
v -0.06613557 -0.03970585 -16.12188339 0.25098039 0.27450980 0.65882353
v -0.06070352 -0.03591841 -16.12443352 0.25098039 0.27450980 0.65882353
v -0.05394599 -0.04050640 -16.12186432 0.25098039 0.27450980 0.65882353
v -0.08794262 -0.04140585 -16.11361504 0.25098039 0.27450980 0.65882353
v -0.09396704 -0.03182746 -16.11713600 0.25098039 0.27450980 0.65882353
v -0.08761370 -0.03112890 -16.11869049 0.25098039 0.27450980 0.65882353
v -0.07989745 -0.04170216 -16.11638260 0.25098039 0.27450980 0.65882353
v -0.10703082 -0.03593405 -16.11485863 0.25098039 0.27450980 0.65882353
v -0.10006064 -0.04475515 -16.11142731 0.25098039 0.27450980 0.65882353
v -0.10847636 -0.04584541 -16.11067772 0.25098039 0.27450980 0.65882353
v -0.11225326 -0.03977180 -16.11398697 0.25098039 0.27450980 0.65882353
v -0.08489704 -0.05925185 -16.10496330 0.25098039 0.27450980 0.65882353
v -0.07946372 -0.06427298 -16.09994507 0.25098039 0.27450980 0.65882353
v -0.08167695 -0.06536096 -16.09844971 0.25098039 0.27450980 0.65882353
v -0.08793831 -0.05962587 -16.10403633 0.25098039 0.27450980 0.65882353
v -0.14584956 0.01756041 -16.10122299 0.25098039 0.27450980 0.65882353
v -0.14640266 0.01664041 -16.11044693 0.25098039 0.27450980 0.65882353
v -0.12032091 -0.03657611 -16.08754158 0.25098039 0.27450980 0.65882353
v -0.12936214 -0.03690526 -16.09357834 0.25098039 0.27450980 0.65882353
v -0.12604508 -0.04896930 -16.09070206 0.25098039 0.27450980 0.65882353
v -0.11775106 -0.04541626 -16.08504868 0.25098039 0.27450980 0.65882353
v -0.12957358 0.01047399 -16.09349251 0.25098039 0.27450980 0.65882353
v -0.13507529 0.01504143 -16.09415817 0.25098039 0.27450980 0.65882353
v -0.02234602 -0.07375440 -16.10113335 0.25098039 0.27450980 0.65882353
v -0.02451047 -0.06942053 -16.09844017 0.25098039 0.27450980 0.65882353
v -0.08114946 0.01576040 -16.14763451 0.25098039 0.27450980 0.65882353
v -0.07366763 0.00193791 -16.15950775 0.25098039 0.27450980 0.65882353
v -0.08808559 0.02506382 -16.13934898 0.25098039 0.27450980 0.65882353
v -0.09294581 0.03119239 -16.13309479 0.25098039 0.27450980 0.65882353
v -0.09728823 0.03733774 -16.13041687 0.25098039 0.27450980 0.65882353
v -0.06874520 -0.04534960 -16.11850739 0.25098039 0.27450980 0.65882353
v -0.08491856 -0.02821819 -16.12317467 0.25098039 0.27450980 0.65882353
v -0.10232671 -0.02347090 -16.12087059 0.25098039 0.27450980 0.65882353
v -0.12952039 -0.03577074 -16.11529350 0.25098039 0.27450980 0.65882353
v -0.13470563 -0.02689888 -16.11861038 0.25098039 0.27450980 0.65882353
v -0.12420771 -0.02754065 -16.12166595 0.25098039 0.27450980 0.65882353
v -0.12182214 -0.03511888 -16.11759186 0.25098039 0.27450980 0.65882353
v -0.13280377 -0.04113754 -16.10103035 0.25098039 0.27450980 0.65882353
v -0.12936781 -0.04397596 -16.10729218 0.25098039 0.27450980 0.65882353
v -0.12532070 -0.05148007 -16.10507965 0.25098039 0.27450980 0.65882353
v -0.12850797 -0.05008075 -16.09863472 0.25098039 0.27450980 0.65882353
v -0.06036401 -0.01546675 -16.15859795 0.25098039 0.27450980 0.65882353
v -0.06197645 -0.00559949 -16.14524460 0.25098039 0.27450980 0.65882353
v -0.14444433 0.00124016 -16.11599159 0.25098039 0.27450980 0.65882353
v -0.14463404 0.00847389 -16.11850739 0.25098039 0.27450980 0.65882353
v -0.14543533 0.01699214 -16.11768913 0.25098039 0.27450980 0.65882353
v -0.11585911 -0.00884291 -16.13077545 0.25098039 0.27450980 0.65882353
v -0.12190566 0.00311172 -16.13551903 0.25098039 0.27450980 0.65882353
v -0.11873426 0.00340349 -16.13752365 0.25098039 0.27450980 0.65882353
v -0.11301301 -0.00870319 -16.13091660 0.25098039 0.27450980 0.65882353
v -0.10051826 -0.01403123 -16.13928032 0.25098039 0.27450980 0.65882353
v -0.10743953 -0.00379395 -16.14496231 0.25098039 0.27450980 0.65882353
v -0.09454602 -0.01953134 -16.14751434 0.25098039 0.27450980 0.65882353
v -0.12035564 0.01805916 -16.13748360 0.25098039 0.27450980 0.65882353
v -0.12911353 0.02357734 -16.13505173 0.25098039 0.27450980 0.65882353
v -0.12169761 0.02735297 -16.13756371 0.25098039 0.27450980 0.65882353
v -0.13674727 0.02066723 -16.13011169 0.25098039 0.27450980 0.65882353
v -0.14228605 0.01799913 -16.12396049 0.25098039 0.27450980 0.65882353
v -0.13935514 0.02080756 -16.09201813 0.25098039 0.27450980 0.65882353
v -0.11414506 0.03054414 -16.13886261 0.25098039 0.27450980 0.65882353
v -0.08536409 -0.02228542 -16.16337967 0.25098039 0.27450980 0.65882353
v -0.07963593 -0.02723429 -16.16721344 0.25098039 0.27450980 0.65882353
v -0.07686327 -0.03070402 -16.16095543 0.25098039 0.27450980 0.65882353
v -0.08264180 -0.02714169 -16.15679550 0.25098039 0.27450980 0.65882353
v -0.04625501 -0.03495182 -16.11308098 0.25098039 0.27450980 0.65882353
v -0.04909880 -0.03796054 -16.11923027 0.25098039 0.27450980 0.65882353
v -0.05487117 -0.03189655 -16.12480164 0.25098039 0.27450980 0.65882353
v -0.12738386 -0.01197848 -16.12940216 0.25098039 0.27450980 0.65882353
v -0.13893372 -0.01204421 -16.12257004 0.25098039 0.27450980 0.65882353
v -0.05951583 -0.05142846 -16.11660576 0.25098039 0.27450980 0.65882353
v -0.02566169 -0.06164310 -16.10235596 0.25098039 0.27450980 0.65882353
v -0.02570005 -0.06085119 -16.10809135 0.25098039 0.27450980 0.65882353
v -0.03723791 -0.04636445 -16.11007690 0.25098039 0.27450980 0.65882353
v -0.03704678 -0.04702018 -16.10319328 0.25098039 0.27450980 0.65882353
v -0.05479075 -0.05716326 -16.10703278 0.25098039 0.27450980 0.65882353
v -0.05519234 -0.05530028 -16.11354446 0.25098039 0.27450980 0.65882353
v -0.05266665 -0.05680190 -16.11128235 0.25098039 0.27450980 0.65882353
v -0.05247061 -0.06074496 -16.10600471 0.25098039 0.27450980 0.65882353
v -0.09056425 -0.06510997 -16.10005760 0.25098039 0.27450980 0.65882353
v -0.09609086 -0.05985916 -16.10421944 0.25098039 0.27450980 0.65882353
v -0.06304035 -0.04209498 -16.09265327 0.25098039 0.27450980 0.65882353
v -0.05362435 -0.03357596 -16.09692764 0.25098039 0.27450980 0.65882353
v -0.05944920 -0.02479002 -16.10043144 0.25098039 0.27450980 0.65882353
v -0.09511350 -0.04248018 -16.11227226 0.25098039 0.27450980 0.65882353
v -0.09025180 -0.05160454 -16.10899162 0.25098039 0.27450980 0.65882353
v -0.09397329 -0.05255152 -16.10796547 0.25098039 0.27450980 0.65882353
v -0.06897381 -0.04928522 -16.11536217 0.25098039 0.27450980 0.65882353
v -0.06208111 -0.05469828 -16.11227036 0.25098039 0.27450980 0.65882353
v -0.06834003 -0.05366518 -16.11129189 0.25098039 0.27450980 0.65882353
v -0.07425064 -0.04867565 -16.11331367 0.25098039 0.27450980 0.65882353
v -0.13371611 -0.02471576 -16.09559631 0.25098039 0.27450980 0.65882353
v -0.13804421 -0.02972463 -16.10400772 0.25098039 0.27450980 0.65882353
v -0.02436055 -0.06918316 -16.11408424 0.25098039 0.27450980 0.65882353
v -0.02585602 -0.06568731 -16.11264992 0.25098039 0.27450980 0.65882353
v -0.10073355 -0.03308386 -16.11543274 0.25098039 0.27450980 0.65882353
v -0.06619450 -0.01444750 -16.10496521 0.25098039 0.27450980 0.65882353
v -0.10726920 -0.02494265 -16.11996460 0.25098039 0.27450980 0.65882353
v -0.10201479 -0.05469449 -16.08487320 0.25098039 0.27450980 0.65882353
v -0.10454252 -0.05986476 -16.09083939 0.25098039 0.27450980 0.65882353
v -0.10035107 -0.06449157 -16.08962440 0.25098039 0.27450980 0.65882353
v -0.09862748 -0.06207516 -16.08378601 0.25098039 0.27450980 0.65882353
v -0.04224561 -0.07193834 -16.10381889 0.25098039 0.27450980 0.65882353
v -0.04154174 -0.07135223 -16.10940552 0.25098039 0.27450980 0.65882353
v -0.03819118 -0.07380261 -16.10901070 0.25098039 0.27450980 0.65882353
v -0.03840877 -0.07529186 -16.10341835 0.25098039 0.27450980 0.65882353
v -0.05285357 -0.05151177 -16.11732292 0.25098039 0.27450980 0.65882353
v -0.04923290 -0.04621803 -16.11896706 0.25098039 0.27450980 0.65882353
v -0.04567795 -0.05150077 -16.11722565 0.25098039 0.27450980 0.65882353
v -0.04949228 -0.05488712 -16.11454964 0.25098039 0.27450980 0.65882353
v -0.04433431 -0.04320676 -16.11598015 0.25098039 0.27450980 0.65882353
v -0.04075387 -0.04787032 -16.11535645 0.25098039 0.27450980 0.65882353
v -0.03932118 -0.07046704 -16.09819221 0.25098039 0.27450980 0.65882353
v -0.03322798 -0.06718118 -16.09535408 0.25098039 0.27450980 0.65882353
v -0.04504140 -0.05471206 -16.09566116 0.25098039 0.27450980 0.65882353
v -0.04874304 -0.06039934 -16.09952927 0.25098039 0.27450980 0.65882353
v -0.11060958 -0.00609418 -16.09121513 0.25098039 0.27450980 0.65882353
v -0.12104926 -0.00891740 -16.09089279 0.25098039 0.27450980 0.65882353
v -0.11625184 -0.02246360 -16.08899117 0.25098039 0.27450980 0.65882353
v -0.11187337 -0.03547058 -16.08633232 0.25098039 0.27450980 0.65882353
v -0.10712262 -0.04811953 -16.08478737 0.25098039 0.27450980 0.65882353
v -0.09647059 -0.04427942 -16.08244324 0.25098039 0.27450980 0.65882353
v -0.12397092 -0.02339227 -16.09007263 0.25098039 0.27450980 0.65882353
v -0.05917811 -0.05414472 -16.09922028 0.25098039 0.27450980 0.65882353
v -0.05393064 -0.04662924 -16.09611702 0.25098039 0.27450980 0.65882353
v -0.06013013 -0.04886483 -16.09465408 0.25098039 0.27450980 0.65882353
v -0.11402941 -0.02777797 -16.11973763 0.25098039 0.27450980 0.65882353
v -0.02844460 -0.06162864 -16.11296844 0.25098039 0.27450980 0.65882353
v -0.09544116 0.02907518 -16.10959053 0.25098039 0.27450980 0.65882353
v -0.10424416 0.02566678 -16.09994507 0.25098039 0.27450980 0.65882353
v -0.10013878 0.01905261 -16.10123062 0.25098039 0.27450980 0.65882353
v -0.09018622 0.02263563 -16.11251640 0.25098039 0.27450980 0.65882353
v -0.03816669 -0.06823815 -16.11438942 0.25098039 0.27450980 0.65882353
v -0.03315276 -0.06450416 -16.11615944 0.25098039 0.27450980 0.65882353
v -0.10150405 -0.06254798 -16.10289574 0.25098039 0.27450980 0.65882353
v -0.09604679 -0.06640029 -16.09907532 0.25098039 0.27450980 0.65882353
v -0.09801698 -0.06746851 -16.09576607 0.25098039 0.27450980 0.65882353
v -0.10484936 -0.06603126 -16.10092163 0.25098039 0.27450980 0.65882353
v -0.12677455 -0.00916671 -16.09169960 0.25098039 0.27450980 0.65882353
v -0.12480791 -0.05664052 -16.09159470 0.25098039 0.27450980 0.65882353
v -0.11739407 -0.05339536 -16.08537483 0.25098039 0.27450980 0.65882353
v -0.12471846 0.00304322 -16.09254265 0.25098039 0.27450980 0.65882353
v -0.11557202 0.00552979 -16.09231949 0.25098039 0.27450980 0.65882353
v -0.11938620 0.01365899 -16.09265327 0.25098039 0.27450980 0.65882353
v -0.08116366 -0.04749068 -16.08408928 0.25098039 0.27450980 0.65882353
v -0.10253319 -0.00594724 -16.09223366 0.25098039 0.27450980 0.65882353
v -0.10844991 0.00593374 -16.09399605 0.25098039 0.27450980 0.65882353
v -0.11267094 0.01578355 -16.09427261 0.25098039 0.27450980 0.65882353
v -0.11555335 0.02275751 -16.09340858 0.25098039 0.27450980 0.65882353
v -0.12284439 0.01940719 -16.09235382 0.25098039 0.27450980 0.65882353
v -0.02839838 -0.06472163 -16.09764290 0.25098039 0.27450980 0.65882353
v -0.02939636 -0.07309806 -16.09577560 0.25098039 0.27450980 0.65882353
v -0.12658066 0.02577119 -16.09016800 0.25098039 0.27450980 0.65882353
v -0.11815384 0.02888151 -16.09206772 0.25098039 0.27450980 0.65882353
v -0.10002089 0.00703774 -16.09686661 0.25098039 0.27450980 0.65882353
v -0.09067875 0.00816112 -16.10175133 0.25098039 0.27450980 0.65882353
v -0.09456015 -0.00440234 -16.09432030 0.25098039 0.27450980 0.65882353
v -0.08432715 -0.00395497 -16.09878159 0.25098039 0.27450980 0.65882353
v -0.07309800 -0.04099060 -16.08423424 0.25098039 0.27450980 0.65882353
v -0.02693781 -0.08830751 -16.10428810 0.25098039 0.27450980 0.65882353
v -0.03227557 -0.07969338 -16.09983063 0.25098039 0.27450980 0.65882353
v -0.03592320 -0.07926594 -16.10420799 0.25098039 0.27450980 0.65882353
v -0.03070594 -0.08856295 -16.10654640 0.25098039 0.27450980 0.65882353
v -0.03543065 -0.07495816 -16.09851265 0.25098039 0.27450980 0.65882353
v -0.02718899 -0.07724732 -16.09836769 0.25098039 0.27450980 0.65882353
v -0.07330075 -0.00273196 -16.10930061 0.25098039 0.27450980 0.65882353
v -0.06284998 -0.05805461 -16.10709190 0.25098039 0.27450980 0.65882353
v -0.07946564 0.01083595 -16.11614990 0.25098039 0.27450980 0.65882353
v -0.06149261 -0.00624408 -16.12412643 0.25098039 0.27450980 0.65882353
v -0.06753151 0.00294987 -16.13093567 0.25098039 0.27450980 0.65882353
v -0.08504331 0.02514336 -16.12429619 0.25098039 0.27450980 0.65882353
v -0.07556340 0.01616689 -16.13473701 0.25098039 0.27450980 0.65882353
v -0.09601313 0.03709162 -16.11971474 0.25098039 0.27450980 0.65882353
v -0.09098386 0.03067051 -16.12070847 0.25098039 0.27450980 0.65882353
v -0.06876387 0.00609881 -16.14670563 0.25098039 0.27450980 0.65882353
v -0.02734220 -0.08010431 -16.11800003 0.25098039 0.27450980 0.65882353
v -0.03171046 -0.08285941 -16.11545563 0.25098039 0.27450980 0.65882353
v -0.09917900 0.03557822 -16.10848618 0.25098039 0.27450980 0.65882353
v -0.08780839 -0.02375327 -16.15320778 0.25098039 0.27450980 0.65882353
v -0.11786398 -0.01911206 -16.12469482 0.25098039 0.27450980 0.65882353
v -0.11246204 -0.01776951 -16.12516212 0.25098039 0.27450980 0.65882353
v -0.13697103 -0.02107444 -16.11984444 0.25098039 0.27450980 0.65882353
v -0.12535268 -0.02026961 -16.12472916 0.25098039 0.27450980 0.65882353
v -0.02221601 -0.07843249 -16.11763954 0.25098039 0.27450980 0.65882353
v -0.07628570 -0.06598133 -16.09395599 0.25098039 0.27450980 0.65882353
v -0.07852373 -0.06421304 -16.09334946 0.25098039 0.27450980 0.65882353
v -0.08305444 -0.01572546 -16.16827202 0.25098039 0.27450980 0.65882353
v -0.07898615 -0.02105579 -16.17157745 0.25098039 0.27450980 0.65882353
v -0.06768413 -0.01452468 -16.17128944 0.25098039 0.27450980 0.65882353
v -0.07395011 -0.01679997 -16.17358780 0.25098039 0.27450980 0.65882353
v -0.07727320 -0.00963537 -16.16960907 0.25098039 0.27450980 0.65882353
v -0.07085396 -0.00670443 -16.16680908 0.25098039 0.27450980 0.65882353
v -0.11790089 -0.00984071 -16.13089180 0.25098039 0.27450980 0.65882353
v -0.12124015 -0.01116296 -16.13034821 0.25098039 0.27450980 0.65882353
v -0.13710740 -0.01403976 -16.09914780 0.25098039 0.27450980 0.65882353
v -0.14061664 -0.01920799 -16.10794449 0.25098039 0.27450980 0.65882353
v -0.04209274 -0.04093552 -16.11036110 0.25098039 0.27450980 0.65882353
v -0.04738131 -0.03413006 -16.10468292 0.25098039 0.27450980 0.65882353
v -0.04268523 -0.04101035 -16.10326958 0.25098039 0.27450980 0.65882353
v -0.04096544 -0.04881420 -16.09758377 0.25098039 0.27450980 0.65882353
v -0.05908313 -0.05843078 -16.10264587 0.25098039 0.27450980 0.65882353
v -0.05402811 -0.05548779 -16.10150909 0.25098039 0.27450980 0.65882353
v -0.11358202 -0.00076178 -16.14096642 0.25098039 0.27450980 0.65882353
v -0.10710795 -0.01059334 -16.13299751 0.25098039 0.27450980 0.65882353
v -0.07565199 -0.02893705 -16.15138626 0.25098039 0.27450980 0.65882353
v -0.07107531 -0.03030380 -16.15548897 0.25098039 0.27450980 0.65882353
v -0.08209388 -0.04847937 -16.11148453 0.25098039 0.27450980 0.65882353
v -0.07311684 -0.05662284 -16.08436966 0.25098039 0.27450980 0.65882353
v -0.06685509 -0.05126380 -16.08479500 0.25098039 0.27450980 0.65882353
v -0.07648191 -0.05546048 -16.10822678 0.25098039 0.27450980 0.65882353
v -0.01689765 -0.08064651 -16.11108017 0.25098039 0.27450980 0.65882353
v -0.01896961 -0.07890274 -16.11541367 0.25098039 0.27450980 0.65882353
v -0.04691455 -0.04229492 -16.09753036 0.25098039 0.27450980 0.65882353
v -0.10207290 -0.05437950 -16.10813713 0.25098039 0.27450980 0.65882353
v -0.08183672 -0.05435241 -16.08465576 0.25098039 0.27450980 0.65882353
v -0.07544126 -0.06268896 -16.08733559 0.25098039 0.27450980 0.65882353
v -0.12586583 -0.05513654 -16.09894753 0.25098039 0.27450980 0.65882353
v -0.10784356 0.03256204 -16.09957314 0.25098039 0.27450980 0.65882353
v -0.03640690 -0.07774793 -16.10964394 0.25098039 0.27450980 0.65882353
v -0.03369866 -0.08551449 -16.11151123 0.25098039 0.27450980 0.65882353
v -0.02320327 -0.08629507 -16.10358047 0.25098039 0.27450980 0.65882353
v -0.01881500 -0.08273411 -16.10566330 0.25098039 0.27450980 0.65882353
v -0.14224072 -0.00985787 -16.11271286 0.25098039 0.27450980 0.65882353
v -0.10916172 -0.01687573 -16.12492180 0.25098039 0.27450980 0.65882353
v -0.06539054 -0.00341581 -16.15700150 0.25098039 0.27450980 0.65882353
v -0.06276135 -0.01387116 -16.16563225 0.25098039 0.27450980 0.65882353
v -0.07284233 -0.06004120 -16.10531998 0.25098039 0.27450980 0.65882353
v -0.10920575 -0.05537038 -16.08724213 0.25098039 0.27450980 0.65882353
v -0.09378884 -0.05280498 -16.08105659 0.25098039 0.27450980 0.65882353
v -0.09125560 -0.06047862 -16.07920265 0.25098039 0.27450980 0.65882353
v -0.08382212 -0.06170132 -16.08085442 0.25098039 0.27450980 0.65882353
v -0.07889307 -0.06460136 -16.08594513 0.25098039 0.27450980 0.65882353
v -0.02216925 -0.09115218 -16.10672188 0.25098039 0.27450980 0.65882353
v -0.01775229 -0.08751774 -16.10858727 0.25098039 0.27450980 0.65882353
v -0.01593941 -0.08496302 -16.11375618 0.25098039 0.27450980 0.65882353
v -0.01778221 -0.08258988 -16.11731720 0.25098039 0.27450980 0.65882353
v -0.02173890 -0.08145931 -16.11890030 0.25098039 0.27450980 0.65882353
v -0.02603239 -0.09307593 -16.10788536 0.25098039 0.27450980 0.65882353
v -0.02934593 -0.09271428 -16.11013603 0.25098039 0.27450980 0.65882353
v -0.03252658 -0.08844593 -16.11296654 0.25098039 0.27450980 0.65882353
v -0.02674161 -0.09611814 -16.11200905 0.25098039 0.27450980 0.65882353
v -0.02165271 -0.09737702 -16.11309052 0.25098039 0.27450980 0.65882353
v -0.01706626 -0.09299113 -16.12557983 0.25098039 0.27450980 0.65882353
v -0.01585905 -0.09109156 -16.11994362 0.25098039 0.27450980 0.65882353
v -0.01625536 -0.09374434 -16.12064934 0.25098039 0.27450980 0.65882353
v -0.01731773 -0.09609017 -16.12504005 0.25098039 0.27450980 0.65882353
v -0.01820490 -0.09987077 -16.12858772 0.25098039 0.27450980 0.65882353
v -0.01792404 -0.09670006 -16.13002777 0.25098039 0.27450980 0.65882353
v -0.01769918 -0.09487726 -16.11631393 0.25098039 0.27450980 0.65882353
v -0.01904941 -0.09883590 -16.12177086 0.25098039 0.27450980 0.65882353
v -0.02207725 -0.10083492 -16.11978912 0.25098039 0.27450980 0.65882353
v -0.02229765 -0.10432939 -16.12432671 0.25098039 0.27450980 0.65882353
v -0.01951322 -0.10276644 -16.12609863 0.25098039 0.27450980 0.65882353
v -0.02080064 -0.09815633 -16.11613274 0.25098039 0.27450980 0.65882353
v -0.01701462 -0.09355019 -16.11403465 0.25098039 0.27450980 0.65882353
v -0.01937278 -0.10075894 -16.13198853 0.25098039 0.27450980 0.65882353
v -0.01869936 -0.10243011 -16.13029671 0.25098039 0.27450980 0.65882353
v -0.02027696 -0.10456116 -16.12871933 0.25098039 0.27450980 0.65882353
v -0.02177586 -0.10509337 -16.13136292 0.25098039 0.27450980 0.65882353
v -0.01793438 -0.08577247 -16.12066650 0.25098039 0.27450980 0.65882353
v -0.01836792 -0.09119810 -16.12697220 0.25098039 0.27450980 0.65882353
v -0.02054727 -0.09534492 -16.13090134 0.25098039 0.27450980 0.65882353
v -0.02179599 -0.09949173 -16.13269424 0.25098039 0.27450980 0.65882353
v -0.02228503 -0.09108211 -16.12816048 0.25098039 0.27450980 0.65882353
v -0.02343610 -0.09488182 -16.13080597 0.25098039 0.27450980 0.65882353
v -0.02484310 -0.09847970 -16.13198662 0.25098039 0.27450980 0.65882353
v -0.02639164 -0.09197798 -16.12804794 0.25098039 0.27450980 0.65882353
v -0.02647808 -0.09547175 -16.13015747 0.25098039 0.27450980 0.65882353
v -0.02563702 -0.08417144 -16.12033653 0.25098039 0.27450980 0.65882353
v -0.02160150 -0.08298075 -16.12058640 0.25098039 0.27450980 0.65882353
v -0.02682851 -0.09765768 -16.13151169 0.25098039 0.27450980 0.65882353
v -0.02386913 -0.10440141 -16.13188553 0.25098039 0.27450980 0.65882353
v -0.02509104 -0.10038154 -16.11774063 0.25098039 0.27450980 0.65882353
v -0.02546112 -0.10380436 -16.12413979 0.25098039 0.27450980 0.65882353
v -0.02746597 -0.09984797 -16.11797333 0.25098039 0.27450980 0.65882353
v -0.02784127 -0.10356943 -16.12401199 0.25098039 0.27450980 0.65882353
v -0.02472147 -0.10652226 -16.12786865 0.25098039 0.27450980 0.65882353
v -0.02245732 -0.10558371 -16.12715530 0.25098039 0.27450980 0.65882353
v -0.02689552 -0.08215079 -16.11831284 0.25098039 0.27450980 0.65882353
v -0.03131950 -0.08516073 -16.11572075 0.25098039 0.27450980 0.65882353
v -0.03046358 -0.08701110 -16.11755562 0.25098039 0.27450980 0.65882353
v -0.03017817 -0.09394737 -16.12592125 0.25098039 0.27450980 0.65882353
v -0.03199150 -0.09040084 -16.11556625 0.25098039 0.27450980 0.65882353
v -0.02988610 -0.09519981 -16.11420250 0.25098039 0.27450980 0.65882353
v -0.02976443 -0.09925787 -16.11988640 0.25098039 0.27450980 0.65882353
v -0.03121679 -0.09729578 -16.12225342 0.25098039 0.27450980 0.65882353
v -0.02960981 -0.10199885 -16.12467384 0.25098039 0.27450980 0.65882353
v -0.03005859 -0.09993279 -16.12599564 0.25098039 0.27450980 0.65882353
v -0.02924113 -0.09731056 -16.12866592 0.25098039 0.27450980 0.65882353
v -0.02846813 -0.10318542 -16.12852859 0.25098039 0.27450980 0.65882353
v -0.02661616 -0.10543819 -16.12822151 0.25098039 0.27450980 0.65882353
v -0.02635823 -0.10204200 -16.13136864 0.25098039 0.27450980 0.65882353
v -0.02935323 -0.10141511 -16.12838554 0.25098039 0.27450980 0.65882353
v -0.02763768 -0.09989320 -16.13030052 0.25098039 0.27450980 0.65882353
v -0.05083014 -0.08999933 -16.10099983 0.25098039 0.27450980 0.65882353
v -0.05620702 -0.09274375 -16.09886742 0.25098039 0.27450980 0.65882353
v -0.05694839 -0.08781077 -16.09754181 0.25098039 0.27450980 0.65882353
v -0.05235131 -0.08592594 -16.09959793 0.25098039 0.27450980 0.65882353
v -0.04226397 -0.08890586 -16.09058380 0.25098039 0.27450980 0.65882353
v -0.04358372 -0.08854094 -16.09628296 0.25098039 0.27450980 0.65882353
v -0.04433666 -0.08377375 -16.09432411 0.25098039 0.27450980 0.65882353
v -0.04414178 -0.08406204 -16.08780289 0.25098039 0.27450980 0.65882353
v -0.04582627 -0.09071994 -16.08505821 0.25098039 0.27450980 0.65882353
v -0.04800448 -0.08560051 -16.08241081 0.25098039 0.27450980 0.65882353
v -0.04574984 -0.07885133 -16.08709145 0.25098039 0.27450980 0.65882353
v -0.04650851 -0.07859774 -16.09412575 0.25098039 0.27450980 0.65882353
v -0.05657305 -0.06030608 -16.09674263 0.25098039 0.27450980 0.65882353
v -0.05605465 -0.05972939 -16.08963394 0.25098039 0.27450980 0.65882353
v -0.07262847 -0.06793471 -16.09816551 0.25098039 0.27450980 0.65882353
v -0.07243001 -0.06896988 -16.09428596 0.25098039 0.27450980 0.65882353
v -0.04714593 -0.08902527 -16.09986305 0.25098039 0.27450980 0.65882353
v -0.04807293 -0.08468986 -16.09807014 0.25098039 0.27450980 0.65882353
v -0.06418715 -0.08683474 -16.09148216 0.25098039 0.27450980 0.65882353
v -0.06278165 -0.08581050 -16.09659767 0.25098039 0.27450980 0.65882353
v -0.06053875 -0.09011258 -16.09537125 0.25098039 0.27450980 0.65882353
v -0.06125098 -0.09136854 -16.08997917 0.25098039 0.27450980 0.65882353
v -0.06295590 -0.06234954 -16.10248756 0.25098039 0.27450980 0.65882353
v -0.06871283 -0.06462017 -16.10092163 0.25098039 0.27450980 0.65882353
v -0.05937386 -0.06167797 -16.10073090 0.25098039 0.27450980 0.65882353
v -0.06260325 -0.08650336 -16.08509254 0.25098039 0.27450980 0.65882353
v -0.05775608 -0.08427301 -16.08065796 0.25098039 0.27450980 0.65882353
v -0.06670456 -0.06596901 -16.08205032 0.25098039 0.27450980 0.65882353
v -0.07076018 -0.06912525 -16.08595085 0.25098039 0.27450980 0.65882353
v -0.04943758 -0.07986598 -16.09871483 0.25098039 0.27450980 0.65882353
v -0.05878766 -0.08399884 -16.09987068 0.25098039 0.27450980 0.65882353
v -0.05414176 -0.08189368 -16.10110092 0.25098039 0.27450980 0.65882353
v -0.05083451 -0.08058755 -16.08207130 0.25098039 0.27450980 0.65882353
v -0.05445936 -0.08989224 -16.08146095 0.25098039 0.27450980 0.65882353
v -0.05258712 -0.10788424 -16.09052086 0.25098039 0.27450980 0.65882353
v -0.05702527 -0.09688951 -16.08628082 0.25098039 0.27450980 0.65882353
v -0.05923928 -0.09674086 -16.09090233 0.25098039 0.27450980 0.65882353
v -0.05560243 -0.10844174 -16.09443665 0.25098039 0.27450980 0.65882353
v -0.05931306 -0.09169962 -16.08477783 0.25098039 0.27450980 0.65882353
v -0.05204026 -0.09461872 -16.08378220 0.25098039 0.27450980 0.65882353
v -0.04874910 -0.10416931 -16.10579300 0.25098039 0.27450980 0.65882353
v -0.05408260 -0.10673954 -16.10338783 0.25098039 0.27450980 0.65882353
v -0.04431745 -0.10298754 -16.10523033 0.25098039 0.27450980 0.65882353
v -0.06042004 -0.06167314 -16.08333969 0.25098039 0.27450980 0.65882353
v -0.03922449 -0.10130993 -16.09625053 0.25098039 0.27450980 0.65882353
v -0.04113741 -0.10171342 -16.10255432 0.25098039 0.27450980 0.65882353
v -0.05945100 -0.09511265 -16.09568405 0.25098039 0.27450980 0.65882353
v -0.05630067 -0.10838681 -16.09920883 0.25098039 0.27450980 0.65882353
v -0.04847944 -0.10637155 -16.08892441 0.25098039 0.27450980 0.65882353
v -0.04251085 -0.10227713 -16.09029388 0.25098039 0.27450980 0.65882353
v -0.04693563 -0.11160247 -16.09169579 0.25098039 0.27450980 0.65882353
v -0.04139239 -0.10860606 -16.09342194 0.25098039 0.27450980 0.65882353
v -0.03838643 -0.10712731 -16.09923363 0.25098039 0.27450980 0.65882353
v -0.04081696 -0.10634568 -16.10451317 0.25098039 0.27450980 0.65882353
v -0.04411617 -0.10633145 -16.10660172 0.25098039 0.27450980 0.65882353
v -0.05084601 -0.11298802 -16.09319305 0.25098039 0.27450980 0.65882353
v -0.05402541 -0.11318958 -16.09662628 0.25098039 0.27450980 0.65882353
v -0.05518094 -0.11076649 -16.10074043 0.25098039 0.27450980 0.65882353
v -0.05123653 -0.11863963 -16.09793472 0.25098039 0.27450980 0.65882353
v -0.04682486 -0.11916336 -16.09696579 0.25098039 0.27450980 0.65882353
v -0.04027876 -0.12318936 -16.11373138 0.25098039 0.27450980 0.65882353
v -0.03949705 -0.11866309 -16.10972595 0.25098039 0.27450980 0.65882353
v -0.03972784 -0.12059093 -16.10790253 0.25098039 0.27450980 0.65882353
v -0.04049641 -0.12480615 -16.11140251 0.25098039 0.27450980 0.65882353
v -0.03821085 -0.11546706 -16.10433197 0.25098039 0.27450980 0.65882353
v -0.03915019 -0.11790447 -16.10407448 0.25098039 0.27450980 0.65882353
v -0.04167822 -0.11874188 -16.10026741 0.25098039 0.27450980 0.65882353
v -0.04252897 -0.12306313 -16.10471344 0.25098039 0.27450980 0.65882353
v -0.04658507 -0.12382969 -16.10231209 0.25098039 0.27450980 0.65882353
v -0.04665495 -0.12866880 -16.10556602 0.25098039 0.27450980 0.65882353
v -0.04256736 -0.12796699 -16.10800362 0.25098039 0.27450980 0.65882353
v -0.04494284 -0.12082233 -16.09952736 0.25098039 0.27450980 0.65882353
v -0.04134934 -0.12803321 -16.11299133 0.25098039 0.27450980 0.65882353
v -0.04226309 -0.12831092 -16.11541748 0.25098039 0.27450980 0.65882353
v -0.04077919 -0.11648613 -16.09800529 0.25098039 0.27450980 0.65882353
v -0.04006407 -0.11011584 -16.10642052 0.25098039 0.27450980 0.65882353
v -0.04092847 -0.11723845 -16.11205101 0.25098039 0.27450980 0.65882353
v -0.04249084 -0.12249370 -16.11600113 0.25098039 0.27450980 0.65882353
v -0.04506586 -0.12815996 -16.11666298 0.25098039 0.27450980 0.65882353
v -0.04471216 -0.11692990 -16.11392975 0.25098039 0.27450980 0.65882353
v -0.04564498 -0.12226658 -16.11684227 0.25098039 0.27450980 0.65882353
v -0.04756889 -0.12698972 -16.11661530 0.25098039 0.27450980 0.65882353
v -0.04943018 -0.11722642 -16.11439514 0.25098039 0.27450980 0.65882353
v -0.04983757 -0.12268858 -16.11647606 0.25098039 0.27450980 0.65882353
v -0.04872780 -0.10851543 -16.10807991 0.25098039 0.27450980 0.65882353
v -0.04402696 -0.10835804 -16.10842705 0.25098039 0.27450980 0.65882353
v -0.04945537 -0.12545487 -16.11634827 0.25098039 0.27450980 0.65882353
v -0.04429756 -0.13200699 -16.11280251 0.25098039 0.27450980 0.65882353
v -0.04715331 -0.13124897 -16.11463928 0.25098039 0.27450980 0.65882353
v -0.04346554 -0.13083982 -16.11128807 0.25098039 0.27450980 0.65882353
v -0.04868165 -0.12384801 -16.10191345 0.25098039 0.27450980 0.65882353
v -0.04886717 -0.12864350 -16.10636330 0.25098039 0.27450980 0.65882353
v -0.05143169 -0.12371264 -16.10276794 0.25098039 0.27450980 0.65882353
v -0.05100659 -0.12870385 -16.10772705 0.25098039 0.27450980 0.65882353
v -0.04787230 -0.13190690 -16.10974121 0.25098039 0.27450980 0.65882353
v -0.04623452 -0.13163295 -16.10919571 0.25098039 0.27450980 0.65882353
v -0.04845163 -0.10688144 -16.10623550 0.25098039 0.27450980 0.65882353
v -0.05327231 -0.10875420 -16.10386467 0.25098039 0.27450980 0.65882353
v -0.05345520 -0.11010356 -16.10547256 0.25098039 0.27450980 0.65882353
v -0.05350623 -0.11896992 -16.11151505 0.25098039 0.27450980 0.65882353
v -0.05536637 -0.11272301 -16.10206985 0.25098039 0.27450980 0.65882353
v -0.05395268 -0.11699946 -16.09966087 0.25098039 0.27450980 0.65882353
v -0.05370572 -0.12263869 -16.10408783 0.25098039 0.27450980 0.65882353
v -0.05490212 -0.12119398 -16.10760880 0.25098039 0.27450980 0.65882353
v -0.05318241 -0.12827428 -16.10827255 0.25098039 0.27450980 0.65882353
v -0.05419579 -0.12559746 -16.10976410 0.25098039 0.27450980 0.65882353
v -0.05300671 -0.12357943 -16.11402893 0.25098039 0.27450980 0.65882353
v -0.05159374 -0.13109757 -16.11168098 0.25098039 0.27450980 0.65882353
v -0.04948726 -0.13195749 -16.11070442 0.25098039 0.27450980 0.65882353
v -0.04894169 -0.12981449 -16.11502647 0.25098039 0.27450980 0.65882353
v -0.05295403 -0.12844247 -16.11216545 0.25098039 0.27450980 0.65882353
v -0.05104376 -0.12726739 -16.11504173 0.25098039 0.27450980 0.65882353
v -0.07481357 -0.09124020 -16.09073639 0.25098039 0.27450980 0.65882353
v -0.08031200 -0.09201247 -16.09276962 0.25098039 0.27450980 0.65882353
v -0.08122379 -0.08848430 -16.09224892 0.25098039 0.27450980 0.65882353
v -0.07586329 -0.08767819 -16.09015656 0.25098039 0.27450980 0.65882353
v -0.07530957 -0.09273124 -16.07826042 0.25098039 0.27450980 0.65882353
v -0.07233623 -0.09236443 -16.08215141 0.25098039 0.27450980 0.65882353
v -0.07332239 -0.08779070 -16.08124161 0.25098039 0.27450980 0.65882353
v -0.07650179 -0.08687268 -16.07682037 0.25098039 0.27450980 0.65882353
v -0.08014148 -0.09530818 -16.07719421 0.25098039 0.27450980 0.65882353
v -0.08224963 -0.08774605 -16.07475281 0.25098039 0.27450980 0.65882353
v -0.07747093 -0.08107559 -16.07607460 0.25098039 0.27450980 0.65882353
v -0.07419944 -0.08313558 -16.08099556 0.25098039 0.27450980 0.65882353
v -0.07815874 -0.06861556 -16.08453178 0.25098039 0.27450980 0.65882353
v -0.08163357 -0.06761867 -16.07864952 0.25098039 0.27450980 0.65882353
v -0.07254814 -0.09168750 -16.08675385 0.25098039 0.27450980 0.65882353
v -0.07340653 -0.08792377 -16.08621025 0.25098039 0.27450980 0.65882353
v -0.09065869 -0.08732998 -16.09033775 0.25098039 0.27450980 0.65882353
v -0.08688052 -0.08659019 -16.09320068 0.25098039 0.27450980 0.65882353
v -0.08636267 -0.09000179 -16.09163857 0.25098039 0.27450980 0.65882353
v -0.08944160 -0.09095591 -16.08888435 0.25098039 0.27450980 0.65882353
v -0.08183089 -0.06851111 -16.09522629 0.25098039 0.27450980 0.65882353
v -0.08787142 -0.06837140 -16.09602356 0.25098039 0.27450980 0.65882353
v -0.07840218 -0.06964764 -16.09086800 0.25098039 0.27450980 0.65882353
v -0.09220432 -0.08720249 -16.08401299 0.25098039 0.27450980 0.65882353
v -0.09025340 -0.08460654 -16.07728577 0.25098039 0.27450980 0.65882353
v -0.09539600 -0.07074739 -16.08082581 0.25098039 0.27450980 0.65882353
v -0.09673197 -0.07156414 -16.08707428 0.25098039 0.27450980 0.65882353
v -0.07400595 -0.08422545 -16.08627701 0.25098039 0.27450980 0.65882353
v -0.08180250 -0.08505255 -16.09370613 0.25098039 0.27450980 0.65882353
v -0.07644157 -0.08467165 -16.09132195 0.25098039 0.27450980 0.65882353
v -0.08367151 -0.08169930 -16.07493019 0.25098039 0.27450980 0.65882353
v -0.08795682 -0.09049332 -16.07792854 0.25098039 0.27450980 0.65882353
v -0.08458418 -0.11163792 -16.08671951 0.25098039 0.27450980 0.65882353
v -0.08942139 -0.09595375 -16.08378220 0.25098039 0.27450980 0.65882353
v -0.08839592 -0.09488977 -16.08934593 0.25098039 0.27450980 0.65882353
v -0.08518474 -0.11065654 -16.09098625 0.25098039 0.27450980 0.65882353
v -0.09065565 -0.09196915 -16.08366776 0.25098039 0.27450980 0.65882353
v -0.08630845 -0.09586254 -16.07898712 0.25098039 0.27450980 0.65882353
v -0.07235643 -0.10605632 -16.09523010 0.25098039 0.27450980 0.65882353
v -0.07792431 -0.10648799 -16.09631729 0.25098039 0.27450980 0.65882353
v -0.06999712 -0.10551855 -16.09149551 0.25098039 0.27450980 0.65882353
v -0.08860064 -0.06812796 -16.07646751 0.25098039 0.27450980 0.65882353
v -0.09430575 -0.07044777 -16.09342957 0.25098039 0.27450980 0.65882353
v -0.07038407 -0.10802318 -16.08434296 0.25098039 0.27450980 0.65882353
v -0.06914549 -0.10645026 -16.08828545 0.25098039 0.27450980 0.65882353
v -0.08545393 -0.09331265 -16.09203720 0.25098039 0.27450980 0.65882353
v -0.08305083 -0.10867549 -16.09465599 0.25098039 0.27450980 0.65882353
v -0.08154979 -0.11088580 -16.08293343 0.25098039 0.27450980 0.65882353
v -0.07568631 -0.10886155 -16.08130646 0.25098039 0.27450980 0.65882353
v -0.08069490 -0.11655538 -16.08591080 0.25098039 0.27450980 0.65882353
v -0.07470307 -0.11508077 -16.08459663 0.25098039 0.27450980 0.65882353
v -0.06962661 -0.11399476 -16.08751678 0.25098039 0.27450980 0.65882353
v -0.06864895 -0.11154918 -16.09116554 0.25098039 0.27450980 0.65882353
v -0.06953751 -0.10998242 -16.09402847 0.25098039 0.27450980 0.65882353
v -0.08367327 -0.11617878 -16.08993149 0.25098039 0.27450980 0.65882353
v -0.08396883 -0.11442156 -16.09349632 0.25098039 0.27450980 0.65882353
v -0.08205819 -0.11037722 -16.09522438 0.25098039 0.27450980 0.65882353
v -0.08357289 -0.11887096 -16.09366989 0.25098039 0.27450980 0.65882353
v -0.07970662 -0.12198995 -16.09103012 0.25098039 0.27450980 0.65882353
v -0.06913553 -0.12707551 -16.10334778 0.25098039 0.27450980 0.65882353
v -0.06919821 -0.12303261 -16.09893417 0.25098039 0.27450980 0.65882353
v -0.06996234 -0.12392859 -16.09839439 0.25098039 0.27450980 0.65882353
v -0.06985503 -0.12835179 -16.10225868 0.25098039 0.27450980 0.65882353
v -0.06978743 -0.12020902 -16.09259796 0.25098039 0.27450980 0.65882353
v -0.07062961 -0.12183481 -16.09367371 0.25098039 0.27450980 0.65882353
v -0.07402167 -0.12251018 -16.09171677 0.25098039 0.27450980 0.65882353
v -0.07402554 -0.12684892 -16.09671783 0.25098039 0.27450980 0.65882353
v -0.07976934 -0.12526102 -16.09751892 0.25098039 0.27450980 0.65882353
v -0.07867669 -0.12845549 -16.10141754 0.25098039 0.27450980 0.65882353
v -0.07368767 -0.13046996 -16.10077095 0.25098039 0.27450980 0.65882353
v -0.07841723 -0.12294139 -16.09258652 0.25098039 0.27450980 0.65882353
v -0.07077877 -0.13069916 -16.10430527 0.25098039 0.27450980 0.65882353
v -0.06906542 -0.13089086 -16.10573387 0.25098039 0.27450980 0.65882353
v -0.07402478 -0.12115611 -16.08938408 0.25098039 0.27450980 0.65882353
v -0.06767575 -0.11619928 -16.09464645 0.25098039 0.27450980 0.65882353
v -0.06788839 -0.12109302 -16.10073853 0.25098039 0.27450980 0.65882353
v -0.06750919 -0.12497404 -16.10557365 0.25098039 0.27450980 0.65882353
v -0.06942996 -0.12814221 -16.10835075 0.25098039 0.27450980 0.65882353
v -0.06928240 -0.11862418 -16.10319519 0.25098039 0.27450980 0.65882353
v -0.06924577 -0.12269597 -16.10702133 0.25098039 0.27450980 0.65882353
v -0.07085891 -0.12550448 -16.10956192 0.25098039 0.27450980 0.65882353
v -0.07175358 -0.11715180 -16.10475349 0.25098039 0.27450980 0.65882353
v -0.07190482 -0.12095864 -16.10799789 0.25098039 0.27450980 0.65882353
v -0.07211874 -0.11050847 -16.09768295 0.25098039 0.27450980 0.65882353
v -0.06910712 -0.11287080 -16.09642029 0.25098039 0.27450980 0.65882353
v -0.07246606 -0.12375827 -16.10956573 0.25098039 0.27450980 0.65882353
v -0.07349370 -0.13284774 -16.10596466 0.25098039 0.27450980 0.65882353
v -0.07466435 -0.13019325 -16.10929489 0.25098039 0.27450980 0.65882353
v -0.07359442 -0.13168468 -16.10418320 0.25098039 0.27450980 0.65882353
v -0.08143689 -0.12422204 -16.09759140 0.25098039 0.27450980 0.65882353
v -0.08060646 -0.12825087 -16.10291672 0.25098039 0.27450980 0.65882353
v -0.08289899 -0.12232886 -16.09929466 0.25098039 0.27450980 0.65882353
v -0.08203647 -0.12644668 -16.10444260 0.25098039 0.27450980 0.65882353
v -0.07842778 -0.13126726 -16.10521889 0.25098039 0.27450980 0.65882353
v -0.07756472 -0.13102297 -16.10418701 0.25098039 0.27450980 0.65882353
v -0.07271595 -0.10852210 -16.09584999 0.25098039 0.27450980 0.65882353
v -0.07774334 -0.10857885 -16.09661293 0.25098039 0.27450980 0.65882353
v -0.07687521 -0.11002000 -16.09829330 0.25098039 0.27450980 0.65882353
v -0.07627364 -0.11684451 -16.10594559 0.25098039 0.27450980 0.65882353
v -0.08123133 -0.11151853 -16.09728813 0.25098039 0.27450980 0.65882353
v -0.08347674 -0.11679418 -16.09691811 0.25098039 0.27450980 0.65882353
v -0.08248195 -0.12018140 -16.10181808 0.25098039 0.27450980 0.65882353
v -0.08038221 -0.11844288 -16.10456085 0.25098039 0.27450980 0.65882353
v -0.08172637 -0.12418212 -16.10607147 0.25098039 0.27450980 0.65882353
v -0.08000134 -0.12197074 -16.10678482 0.25098039 0.27450980 0.65882353
v -0.07588930 -0.12044404 -16.10900307 0.25098039 0.27450980 0.65882353
v -0.07912427 -0.12672150 -16.10824776 0.25098039 0.27450980 0.65882353
v -0.07948133 -0.12949076 -16.10716057 0.25098039 0.27450980 0.65882353
v -0.07502842 -0.12702151 -16.11028862 0.25098039 0.27450980 0.65882353
v -0.07849401 -0.12431975 -16.10881805 0.25098039 0.27450980 0.65882353
v -0.07537042 -0.12438634 -16.11029434 0.25098039 0.27450980 0.65882353
v -0.09200955 -0.06914850 -16.09581184 0.25098039 0.27450980 0.65882353
v -0.11086912 -0.08817509 -16.10336113 0.25098039 0.27450980 0.65882353
v -0.11432362 -0.08738202 -16.10526657 0.25098039 0.27450980 0.65882353
v -0.11500289 -0.08417617 -16.10365295 0.25098039 0.27450980 0.65882353
v -0.11121596 -0.08402540 -16.10228920 0.25098039 0.27450980 0.65882353
v -0.11229043 -0.09078076 -16.09286499 0.25098039 0.27450980 0.65882353
v -0.10969359 -0.09044042 -16.09644127 0.25098039 0.27450980 0.65882353
v -0.10937425 -0.08608250 -16.09437180 0.25098039 0.27450980 0.65882353
v -0.11190918 -0.08632506 -16.09086227 0.25098039 0.27450980 0.65882353
v -0.11701725 -0.09089388 -16.09184837 0.25098039 0.27450980 0.65882353
v -0.11698367 -0.08648250 -16.09012794 0.25098039 0.27450980 0.65882353
v -0.11146136 -0.08290750 -16.08947563 0.25098039 0.27450980 0.65882353
v -0.10876038 -0.08250208 -16.09334564 0.25098039 0.27450980 0.65882353
v -0.10680202 -0.06672519 -16.09198761 0.25098039 0.27450980 0.65882353
v -0.11028028 -0.06494750 -16.08789825 0.25098039 0.27450980 0.65882353
v -0.12449735 -0.06102548 -16.09968567 0.25098039 0.27450980 0.65882353
v -0.12015110 -0.05952275 -16.10444069 0.25098039 0.27450980 0.65882353
v -0.12040150 -0.06841730 -16.10280991 0.25098039 0.27450980 0.65882353
v -0.12387250 -0.06778254 -16.09880447 0.25098039 0.27450980 0.65882353
v -0.10945161 -0.08938843 -16.10015297 0.25098039 0.27450980 0.65882353
v -0.10896892 -0.08511353 -16.09916687 0.25098039 0.27450980 0.65882353
v -0.12365554 -0.08044629 -16.10009766 0.25098039 0.27450980 0.65882353
v -0.11999067 -0.08062389 -16.10297012 0.25098039 0.27450980 0.65882353
v -0.11896519 -0.08367883 -16.10400009 0.25098039 0.27450980 0.65882353
v -0.12298986 -0.08435102 -16.10203171 0.25098039 0.27450980 0.65882353
v -0.11455119 -0.06094811 -16.10552406 0.25098039 0.27450980 0.65882353
v -0.10974209 -0.06222385 -16.10392761 0.25098039 0.27450980 0.65882353
v -0.10993829 -0.06664047 -16.10405922 0.25098039 0.27450980 0.65882353
v -0.11553404 -0.06921308 -16.10426712 0.25098039 0.27450980 0.65882353
v -0.10645358 -0.06767939 -16.09979057 0.25098039 0.27450980 0.65882353
v -0.12469143 -0.08114263 -16.09632301 0.25098039 0.27450980 0.65882353
v -0.12263553 -0.08223392 -16.09112167 0.25098039 0.27450980 0.65882353
v -0.12412132 -0.06573172 -16.08899879 0.25098039 0.27450980 0.65882353
v -0.12509902 -0.06588276 -16.09369469 0.25098039 0.27450980 0.65882353
v -0.10836313 -0.08253676 -16.09783363 0.25098039 0.27450980 0.65882353
v -0.11567093 -0.08131120 -16.10336304 0.25098039 0.27450980 0.65882353
v -0.11139420 -0.08192584 -16.10188103 0.25098039 0.27450980 0.65882353
v -0.11701050 -0.08286603 -16.08825874 0.25098039 0.27450980 0.65882353
v -0.12231774 -0.08633506 -16.09295273 0.25098039 0.27450980 0.65882353
v -0.12401626 -0.09756598 -16.10354233 0.25098039 0.27450980 0.65882353
v -0.12442037 -0.08872493 -16.09961319 0.25098039 0.27450980 0.65882353
v -0.12252562 -0.08775988 -16.10391998 0.25098039 0.27450980 0.65882353
v -0.12299474 -0.09668690 -16.10619164 0.25098039 0.27450980 0.65882353
v -0.12432710 -0.08515728 -16.09789467 0.25098039 0.27450980 0.65882353
v -0.12238188 -0.09049536 -16.09477234 0.25098039 0.27450980 0.65882353
v -0.11107823 -0.09650332 -16.10706711 0.25098039 0.27450980 0.65882353
v -0.11578494 -0.09528160 -16.10872078 0.25098039 0.27450980 0.65882353
v -0.10964937 -0.09752738 -16.10438728 0.25098039 0.27450980 0.65882353
v -0.11697724 -0.06512775 -16.08575630 0.25098039 0.27450980 0.65882353
v -0.11231661 -0.09995407 -16.09788704 0.25098039 0.27450980 0.65882353
v -0.10973743 -0.09928095 -16.10131264 0.25098039 0.27450980 0.65882353
v -0.11832893 -0.08729316 -16.10556984 0.25098039 0.27450980 0.65882353
v -0.12010950 -0.09553888 -16.10814667 0.25098039 0.27450980 0.65882353
v -0.12259334 -0.09894511 -16.09975243 0.25098039 0.27450980 0.65882353
v -0.11761039 -0.09975190 -16.09644318 0.25098039 0.27450980 0.65882353
v -0.12195942 -0.10319035 -16.10226059 0.25098039 0.27450980 0.65882353
v -0.11677811 -0.10366791 -16.09902000 0.25098039 0.27450980 0.65882353
v -0.11129048 -0.10358451 -16.10109138 0.25098039 0.27450980 0.65882353
v -0.10960247 -0.10157883 -16.10371590 0.25098039 0.27450980 0.65882353
v -0.10951229 -0.09988831 -16.10640717 0.25098039 0.27450980 0.65882353
v -0.12350823 -0.10135980 -16.10586929 0.25098039 0.27450980 0.65882353
v -0.12255736 -0.09983163 -16.10830879 0.25098039 0.27450980 0.65882353
v -0.11991128 -0.09777100 -16.10992622 0.25098039 0.27450980 0.65882353
v -0.12287102 -0.10500981 -16.10850525 0.25098039 0.27450980 0.65882353
v -0.12067011 -0.10839087 -16.10600090 0.25098039 0.27450980 0.65882353
v -0.11045188 -0.11346565 -16.11340141 0.25098039 0.27450980 0.65882353
v -0.11031622 -0.11047141 -16.11046410 0.25098039 0.27450980 0.65882353
v -0.11110637 -0.11115728 -16.10977936 0.25098039 0.27450980 0.65882353
v -0.11062512 -0.11427549 -16.11255264 0.25098039 0.27450980 0.65882353
v -0.11114042 -0.10783622 -16.10569191 0.25098039 0.27450980 0.65882353
v -0.11216104 -0.10910036 -16.10622406 0.25098039 0.27450980 0.65882353
v -0.11538919 -0.10872120 -16.10479736 0.25098039 0.27450980 0.65882353
v -0.11487949 -0.11263065 -16.10844803 0.25098039 0.27450980 0.65882353
v -0.11986153 -0.11217634 -16.11042786 0.25098039 0.27450980 0.65882353
v -0.11888503 -0.11534113 -16.11312294 0.25098039 0.27450980 0.65882353
v -0.11463647 -0.11561279 -16.11091423 0.25098039 0.27450980 0.65882353
v -0.11917530 -0.10983969 -16.10642815 0.25098039 0.27450980 0.65882353
v -0.11123787 -0.11673237 -16.11379051 0.25098039 0.27450980 0.65882353
v -0.11063290 -0.11719103 -16.11507607 0.25098039 0.27450980 0.65882353
v -0.11557752 -0.10774453 -16.10305977 0.25098039 0.27450980 0.65882353
v -0.10915490 -0.10460547 -16.10737610 0.25098039 0.27450980 0.65882353
v -0.10916276 -0.10952654 -16.11248589 0.25098039 0.27450980 0.65882353
v -0.10963640 -0.11355920 -16.11567307 0.25098039 0.27450980 0.65882353
v -0.11123756 -0.11667052 -16.11734200 0.25098039 0.27450980 0.65882353
v -0.10955304 -0.10720436 -16.11387444 0.25098039 0.27450980 0.65882353
v -0.10986323 -0.11203267 -16.11763000 0.25098039 0.27450980 0.65882353
v -0.11169712 -0.11483727 -16.11922073 0.25098039 0.27450980 0.65882353
v -0.11134733 -0.10495064 -16.11577034 0.25098039 0.27450980 0.65882353
v -0.11162679 -0.11007118 -16.11867142 0.25098039 0.27450980 0.65882353
v -0.11175536 -0.09966080 -16.11117935 0.25098039 0.27450980 0.65882353
v -0.10974585 -0.10200676 -16.10941315 0.25098039 0.27450980 0.65882353
v -0.11255939 -0.11306030 -16.11940193 0.25098039 0.27450980 0.65882353
v -0.11414875 -0.11877213 -16.11503983 0.25098039 0.27450980 0.65882353
v -0.11438240 -0.11763227 -16.11792755 0.25098039 0.27450980 0.65882353
v -0.11446390 -0.11825682 -16.11362648 0.25098039 0.27450980 0.65882353
v -0.12103309 -0.11148380 -16.11107445 0.25098039 0.27450980 0.65882353
v -0.11993979 -0.11523530 -16.11452293 0.25098039 0.27450980 0.65882353
v -0.12201536 -0.10978138 -16.11279678 0.25098039 0.27450980 0.65882353
v -0.12018632 -0.11404350 -16.11644173 0.25098039 0.27450980 0.65882353
v -0.11776421 -0.11786832 -16.11585236 0.25098039 0.27450980 0.65882353
v -0.11711798 -0.11747734 -16.11396980 0.25098039 0.27450980 0.65882353
v -0.11159079 -0.09825791 -16.10942459 0.25098039 0.27450980 0.65882353
v -0.11560978 -0.09717929 -16.11009026 0.25098039 0.27450980 0.65882353
v -0.11583660 -0.09884632 -16.11194038 0.25098039 0.27450980 0.65882353
v -0.11501796 -0.10399525 -16.11668396 0.25098039 0.27450980 0.65882353
v -0.12000316 -0.09977467 -16.11166000 0.25098039 0.27450980 0.65882353
v -0.12231853 -0.10236458 -16.11014748 0.25098039 0.27450980 0.65882353
v -0.12129273 -0.10765785 -16.11458969 0.25098039 0.27450980 0.65882353
v -0.11917162 -0.10554680 -16.11630440 0.25098039 0.27450980 0.65882353
v -0.11940815 -0.11265466 -16.11813736 0.25098039 0.27450980 0.65882353
v -0.11761564 -0.11038476 -16.11932564 0.25098039 0.27450980 0.65882353
v -0.11458801 -0.10918163 -16.11966515 0.25098039 0.27450980 0.65882353
v -0.11677313 -0.11532392 -16.11914062 0.25098039 0.27450980 0.65882353
v -0.11743125 -0.11688553 -16.11806679 0.25098039 0.27450980 0.65882353
v -0.11447763 -0.11570996 -16.11928368 0.25098039 0.27450980 0.65882353
v -0.11606476 -0.11349565 -16.11986732 0.25098039 0.27450980 0.65882353
v -0.11443268 -0.11320642 -16.11985588 0.25098039 0.27450980 0.65882353
v -0.12512738 -0.06238741 -16.09560394 0.25098039 0.27450980 0.65882353
v -0.05660968 -0.02760040 -16.16790390 0.25098039 0.27450980 0.65882353
v -0.05802822 -0.03133618 -16.16374588 0.25098039 0.27450980 0.65882353
v -0.07130235 -0.03878595 -16.17012596 0.25098039 0.27450980 0.65882353
v -0.06646472 -0.03922341 -16.16495705 0.25098039 0.27450980 0.65882353
v -0.07283857 -0.03596318 -16.17594147 0.25098039 0.27450980 0.65882353
v -0.06800662 -0.02729351 -16.18005753 0.25098039 0.27450980 0.65882353
v -0.07200086 -0.03097139 -16.17874146 0.25098039 0.27450980 0.65882353
v -0.06167386 -0.03630553 -16.16280746 0.25098039 0.27450980 0.65882353
v -0.05765951 -0.02454541 -16.17281723 0.25098039 0.27450980 0.65882353
v -0.06246896 -0.02388014 -16.17806244 0.25098039 0.27450980 0.65882353
v -0.05238251 -0.02995991 -16.17650032 0.25098039 0.27450980 0.65882353
v -0.05747183 -0.02989356 -16.18231392 0.25098039 0.27450980 0.65882353
v -0.06295061 -0.03347022 -16.18485069 0.25098039 0.27450980 0.65882353
v -0.06811516 -0.03712050 -16.18248749 0.25098039 0.27450980 0.65882353
v -0.06996034 -0.04040727 -16.17938232 0.25098039 0.27450980 0.65882353
v -0.05335616 -0.03302089 -16.17008018 0.25098039 0.27450980 0.65882353
v -0.05546534 -0.03659005 -16.16612816 0.25098039 0.27450980 0.65882353
v -0.06055993 -0.04057616 -16.16505814 0.25098039 0.27450980 0.65882353
v -0.05020742 -0.04050210 -16.17138672 0.25098039 0.27450980 0.65882353
v -0.04749566 -0.04674542 -16.17902184 0.25098039 0.27450980 0.65882353
v -0.05354878 -0.05961462 -16.19119453 0.25098039 0.27450980 0.65882353
v -0.05714761 -0.05413195 -16.18945122 0.25098039 0.27450980 0.65882353
v -0.05428243 -0.05350181 -16.18942261 0.25098039 0.27450980 0.65882353
v -0.05121684 -0.05822467 -16.19162178 0.25098039 0.27450980 0.65882353
v -0.05719705 -0.04875577 -16.18825912 0.25098039 0.27450980 0.65882353
v -0.05501185 -0.04974880 -16.18772316 0.25098039 0.27450980 0.65882353
v -0.05137794 -0.04762599 -16.18468666 0.25098039 0.27450980 0.65882353
v -0.04855919 -0.05182364 -16.18701744 0.25098039 0.27450980 0.65882353
v -0.04808569 -0.04861877 -16.18107796 0.25098039 0.27450980 0.65882353
v -0.04614055 -0.05210738 -16.18125534 0.25098039 0.27450980 0.65882353
v -0.04594664 -0.05626043 -16.18871498 0.25098039 0.27450980 0.65882353
v -0.04771478 -0.06033578 -16.19242859 0.25098039 0.27450980 0.65882353
v -0.04388914 -0.06039255 -16.18999481 0.25098039 0.27450980 0.65882353
v -0.04932599 -0.06290752 -16.19145966 0.25098039 0.27450980 0.65882353
v -0.05052625 -0.04550324 -16.18576241 0.25098039 0.27450980 0.65882353
v -0.06358707 -0.04572890 -16.18632317 0.25098039 0.27450980 0.65882353
v -0.06068899 -0.05419485 -16.18759537 0.25098039 0.27450980 0.65882353
v -0.05629426 -0.06081278 -16.18875122 0.25098039 0.27450980 0.65882353
v -0.05100770 -0.06436445 -16.18902016 0.25098039 0.27450980 0.65882353
v -0.06293377 -0.05521904 -16.18370247 0.25098039 0.27450980 0.65882353
v -0.05804561 -0.06098601 -16.18446922 0.25098039 0.27450980 0.65882353
v -0.05294210 -0.06397928 -16.18415260 0.25098039 0.27450980 0.65882353
v -0.06265768 -0.05591836 -16.17893028 0.25098039 0.27450980 0.65882353
v -0.05762962 -0.06075296 -16.18046761 0.25098039 0.27450980 0.65882353
v -0.06794156 -0.04485941 -16.17504120 0.25098039 0.27450980 0.65882353
v -0.06788279 -0.04498301 -16.18142128 0.25098039 0.27450980 0.65882353
v -0.05385444 -0.06286225 -16.18156815 0.25098039 0.27450980 0.65882353
v -0.04346398 -0.06298999 -16.18942833 0.25098039 0.27450980 0.65882353
v -0.04549578 -0.06463033 -16.18635750 0.25098039 0.27450980 0.65882353
v -0.04562724 -0.05172563 -16.17768669 0.25098039 0.27450980 0.65882353
v -0.04302371 -0.05594683 -16.18311119 0.25098039 0.27450980 0.65882353
v -0.04328831 -0.05685321 -16.17994690 0.25098039 0.27450980 0.65882353
v -0.04691066 -0.05130434 -16.17371941 0.25098039 0.27450980 0.65882353
v -0.04416595 -0.05781863 -16.17714691 0.25098039 0.27450980 0.65882353
v -0.04181997 -0.06070823 -16.18396950 0.25098039 0.27450980 0.65882353
v -0.04222506 -0.05872438 -16.18607903 0.25098039 0.27450980 0.65882353
v -0.06962593 -0.04192853 -16.17343712 0.25098039 0.27450980 0.65882353
v -0.06606077 -0.04175997 -16.16785431 0.25098039 0.27450980 0.65882353
v -0.06418604 -0.04428159 -16.16942596 0.25098039 0.27450980 0.65882353
v -0.05947424 -0.05472232 -16.17345238 0.25098039 0.27450980 0.65882353
v -0.05880088 -0.04402831 -16.16658592 0.25098039 0.27450980 0.65882353
v -0.05324422 -0.04220945 -16.16801643 0.25098039 0.27450980 0.65882353
v -0.04961342 -0.05237731 -16.17107582 0.25098039 0.27450980 0.65882353
v -0.05432256 -0.05361032 -16.17051506 0.25098039 0.27450980 0.65882353
v -0.04729281 -0.05894173 -16.17527580 0.25098039 0.27450980 0.65882353
v -0.05041721 -0.05950440 -16.17501831 0.25098039 0.27450980 0.65882353
v -0.05482692 -0.06072819 -16.17704964 0.25098039 0.27450980 0.65882353
v -0.04656087 -0.06238512 -16.17919731 0.25098039 0.27450980 0.65882353
v -0.04337113 -0.06194529 -16.18112183 0.25098039 0.27450980 0.65882353
v -0.04857607 -0.06432335 -16.18249130 0.25098039 0.27450980 0.65882353
v -0.04922920 -0.06172369 -16.17801285 0.25098039 0.27450980 0.65882353
v -0.05121274 -0.06285162 -16.18001556 0.25098039 0.27450980 0.65882353
v -0.12216449 -0.05537312 -16.10444832 0.25098039 0.27450980 0.65882353
v -0.11593519 -0.05579877 -16.10685730 0.25098039 0.27450980 0.65882353
v -0.12036961 -0.05142849 -16.10818672 0.25098039 0.27450980 0.65882353
v -0.12489875 -0.04395190 -16.11097145 0.25098039 0.27450980 0.65882353
v -0.13319291 -0.03677037 -16.11053467 0.25098039 0.27450980 0.65882353
v -0.11863905 -0.04249788 -16.11304474 0.25098039 0.27450980 0.65882353
v -0.11424915 -0.05026570 -16.10952759 0.25098039 0.27450980 0.65882353
v -0.10821475 -0.05727920 -16.10641861 0.25098039 0.27450980 0.65882353
v -0.11563104 -0.03375484 -16.11717224 0.25098039 0.27450980 0.65882353
f 2 3 1
f 1 3 4
f 5 6 8
f 8 6 7
f 9 4 10
f 10 4 3
f 12 13 11
f 11 13 9
f 14 12 16
f 16 12 15
f 18 19 17
f 17 19 20
f 22 23 21
f 21 23 24
f 26 27 25
f 25 27 28
f 30 31 29
f 29 31 32
f 33 34 36
f 36 34 35
f 37 38 40
f 40 38 39
f 41 42 6
f 6 42 43
f 6 43 7
f 7 43 44
f 45 34 46
f 46 34 33
f 48 49 47
f 47 49 50
f 52 53 51
f 51 53 54
f 56 52 55
f 55 52 51
f 58 59 57
f 57 59 60
f 61 62 4
f 4 62 1
f 64 65 63
f 63 65 66
f 68 69 67
f 67 69 70
f 72 73 71
f 71 73 74
f 76 77 75
f 75 77 78
f 53 79 54
f 54 79 80
f 82 83 81
f 81 83 84
f 85 86 52
f 52 86 53
f 57 60 87
f 87 60 88
f 89 90 43
f 43 90 44
f 43 42 89
f 89 42 91
f 40 39 92
f 92 39 93
f 94 70 64
f 64 70 69
f 13 61 9
f 9 61 4
f 25 28 69
f 69 28 95
f 96 25 68
f 68 25 69
f 98 99 97
f 97 99 100
f 101 102 104
f 104 102 103
f 106 30 105
f 105 30 29
f 51 54 107
f 107 54 108
f 54 80 108
f 108 80 109
f 111 112 110
f 110 112 113
f 115 5 114
f 114 5 116
f 115 41 5
f 5 41 6
f 36 35 111
f 111 35 117
f 35 118 117
f 117 118 119
f 34 120 35
f 35 120 118
f 34 45 120
f 120 45 121
f 125 126 124
f 124 126 127
f 128 129 14
f 14 129 130
f 33 131 46
f 46 131 132
f 133 94 63
f 63 94 64
f 134 135 137
f 137 135 136
f 139 140 138
f 138 140 141
f 77 142 78
f 78 142 143
f 144 145 20
f 20 145 146
f 148 149 147
f 147 149 72
f 151 152 150
f 150 152 153
f 82 101 83
f 83 101 104
f 101 82 155
f 155 82 154
f 156 157 58
f 58 157 59
f 158 68 147
f 147 68 67
f 159 146 15
f 15 146 16
f 68 158 96
f 96 158 160
f 129 66 130
f 130 66 65
f 162 163 161
f 161 163 164
f 166 167 165
f 165 167 168
f 170 171 169
f 169 171 172
f 174 171 173
f 173 171 170
f 176 177 175
f 175 177 178
f 180 181 179
f 179 181 24
f 182 183 21
f 21 183 184
f 81 185 82
f 82 185 154
f 186 187 188
f 188 187 144
f 158 71 160
f 160 71 189
f 190 135 157
f 157 135 59
f 169 172 139
f 139 172 140
f 147 72 158
f 158 72 71
f 192 193 191
f 191 193 194
f 167 166 49
f 49 166 195
f 196 190 50
f 50 190 157
f 197 198 200
f 200 198 199
f 21 24 182
f 182 24 181
f 146 159 20
f 20 159 17
f 182 181 81
f 81 181 185
f 201 185 180
f 180 185 181
f 202 203 83
f 83 203 84
f 205 206 204
f 204 206 85
f 207 22 184
f 184 22 21
f 179 24 208
f 208 24 23
f 208 209 179
f 179 209 205
f 209 210 205
f 205 210 206
f 212 206 211
f 211 206 210
f 179 205 180
f 180 205 204
f 213 176 88
f 88 176 214
f 86 85 212
f 212 85 206
f 193 217 218
f 217 219 218
f 218 219 220
f 219 18 220
f 220 18 17
f 19 221 20
f 20 221 144
f 222 223 225
f 225 223 224
f 175 226 176
f 176 226 214
f 227 87 214
f 214 87 88
f 220 17 228
f 228 17 159
f 134 213 60
f 60 213 88
f 138 229 151
f 151 229 152
f 193 192 210
f 210 192 211
f 230 194 218
f 218 194 193
f 231 232 228
f 228 232 230
f 233 234 91
f 91 234 89
f 235 236 93
f 93 236 92
f 230 232 234
f 234 232 237
f 47 238 48
f 48 238 239
f 240 191 235
f 235 191 236
f 5 8 116
f 116 8 241
f 242 243 189
f 189 243 160
f 244 245 98
f 98 245 99
f 156 246 47
f 47 246 238
f 76 247 77
f 77 247 248
f 250 125 249
f 249 125 124
f 252 253 251
f 251 253 254
f 111 110 36
f 36 110 255
f 256 33 255
f 255 33 36
f 257 258 154
f 154 258 155
f 63 169 133
f 133 169 139
f 66 170 63
f 63 170 169
f 173 170 129
f 129 170 66
f 129 128 173
f 173 128 259
f 128 260 259
f 259 260 261
f 213 134 262
f 262 134 137
f 263 264 186
f 186 264 187
f 112 265 113
f 113 265 266
f 11 267 268
f 234 233 230
f 230 233 194
f 153 269 70
f 70 269 67
f 175 178 165
f 165 178 141
f 150 153 94
f 94 153 70
f 271 221 270
f 270 221 207
f 269 153 272
f 272 153 152
f 121 45 109
f 109 45 108
f 47 50 156
f 156 50 157
f 57 273 58
f 58 273 274
f 145 275 260
f 260 275 261
f 276 149 143
f 143 149 78
f 148 269 75
f 75 269 272
f 207 277 270
f 270 277 278
f 195 196 49
f 49 196 50
f 59 135 60
f 60 135 134
f 83 104 202
f 202 104 279
f 149 148 78
f 78 148 75
f 247 278 248
f 248 278 277
f 183 182 84
f 84 182 81
f 48 239 281
f 281 239 282
f 227 223 283
f 283 223 222
f 223 226 224
f 224 226 168
f 281 282 224
f 224 282 225
f 165 168 175
f 175 168 226
f 264 263 138
f 138 263 229
f 14 16 128
f 128 16 260
f 220 228 218
f 218 228 230
f 87 227 284
f 284 227 283
f 260 16 145
f 145 16 146
f 244 98 258
f 258 98 155
f 58 274 156
f 156 274 246
f 107 285 51
f 51 285 55
f 243 286 160
f 160 286 96
f 234 237 89
f 89 237 90
f 46 132 107
f 107 132 285
f 253 252 249
f 249 252 250
f 286 26 96
f 96 26 25
f 106 105 287
f 287 105 288
f 272 152 289
f 289 152 229
f 138 151 139
f 139 151 133
f 183 290 161
f 161 290 162
f 291 292 277
f 277 292 293
f 151 150 133
f 133 150 94
f 262 275 177
f 177 275 187
f 144 187 145
f 145 187 275
f 273 57 284
f 284 57 87
f 174 136 190
f 190 136 135
f 111 117 112
f 112 117 38
f 117 119 38
f 38 119 123
f 112 38 265
f 265 38 37
f 287 288 254
f 254 288 251
f 228 159 231
f 231 159 15
f 223 227 226
f 226 227 214
f 147 67 148
f 148 67 269
f 224 168 281
f 281 168 167
f 199 163 200
f 200 163 162
f 45 46 108
f 108 46 107
f 281 167 48
f 48 167 49
f 161 164 291
f 291 164 292
f 38 123 39
f 293 294 277
f 277 294 248
f 284 283 296
f 296 283 295
f 284 296 273
f 273 296 297
f 274 273 298
f 298 273 297
f 246 274 299
f 299 274 298
f 283 222 295
f 295 222 300
f 222 225 300
f 300 225 301
f 301 225 302
f 302 225 282
f 303 304 300
f 300 304 295
f 306 307 305
f 305 307 308
f 309 310 308
f 308 310 305
f 308 307 312
f 312 307 311
f 313 314 312
f 312 314 315
f 311 316 312
f 312 316 313
f 317 304 311
f 311 304 316
f 315 309 312
f 312 309 308
f 318 319 321
f 321 319 320
f 319 318 309
f 309 318 310
f 311 307 317
f 317 307 306
f 306 297 317
f 317 297 296
f 306 322 297
f 297 322 298
f 305 323 306
f 306 323 322
f 323 305 324
f 324 305 310
f 304 317 295
f 295 317 296
f 318 325 310
f 310 325 324
f 323 324 326
f 326 324 327
f 324 325 327
f 327 325 328
f 326 327 329
f 329 327 330
f 329 331 326
f 326 331 332
f 333 330 328
f 328 330 327
f 323 326 322
f 322 326 332
f 322 332 298
f 298 332 299
f 325 318 334
f 334 318 321
f 313 316 335
f 335 316 304
f 335 336 313
f 313 336 314
f 304 303 335
f 335 303 337
f 336 335 338
f 338 335 337
f 336 339 314
f 314 339 340
f 246 299 238
f 238 299 341
f 239 342 282
f 282 342 302
f 342 239 341
f 341 239 238
f 341 331 342
f 342 331 343
f 331 329 343
f 343 329 344
f 342 343 302
f 302 343 345
f 341 299 331
f 331 299 332
f 346 301 345
f 345 301 302
f 346 303 301
f 301 303 300
f 347 337 346
f 346 337 303
f 347 346 348
f 348 346 345
f 349 347 350
f 350 347 348
f 343 344 345
f 345 344 348
f 344 351 348
f 348 351 350
f 337 347 338
f 338 347 349
f 353 338 352
f 352 338 349
f 352 355 354
f 354 355 356
f 352 349 355
f 355 349 350
f 352 354 353
f 353 354 334
f 353 334 339
f 339 334 321
f 339 336 353
f 353 336 338
f 329 330 344
f 344 330 351
f 356 351 333
f 333 351 330
f 356 355 351
f 351 355 350
f 354 356 328
f 328 356 333
f 328 325 354
f 354 325 334
f 309 315 319
f 319 315 320
f 320 340 321
f 321 340 339
f 320 315 340
f 340 315 314
f 137 136 261
f 261 136 259
f 140 166 141
f 141 166 165
f 172 171 195
f 195 171 196
f 171 174 196
f 196 174 190
f 178 177 264
f 264 177 187
f 172 195 140
f 140 195 166
f 137 261 262
f 262 261 275
f 178 264 141
f 141 264 138
f 262 177 213
f 213 177 176
f 136 174 259
f 259 174 173
f 358 359 357
f 357 359 360
f 362 363 361
f 361 363 364
f 361 364 365
f 365 364 366
f 367 368 370
f 370 368 369
f 76 371 247
f 247 371 372
f 373 374 362
f 362 374 363
f 376 377 375
f 375 377 378
f 289 229 380
f 380 229 379
f 381 379 263
f 263 379 229
f 383 384 382
f 382 384 385
f 386 368 374
f 374 368 363
f 76 289 371
f 371 289 380
f 377 376 359
f 359 376 387
f 388 386 360
f 360 386 374
f 389 383 366
f 366 383 390
f 392 393 391
f 391 393 394
f 383 382 390
f 390 382 395
f 396 365 390
f 390 365 366
f 389 366 367
f 367 366 364
f 357 397 358
f 358 397 398
f 373 399 357
f 357 399 397
f 389 367 400
f 400 367 370
f 382 385 375
f 375 385 372
f 357 360 373
f 373 360 374
f 361 401 362
f 362 401 402
f 387 388 359
f 359 388 360
f 363 368 364
f 364 368 367
f 358 398 403
f 403 398 404
f 396 392 405
f 405 392 391
f 392 395 393
f 393 395 378
f 393 403 394
f 394 403 404
f 375 378 382
f 382 378 395
f 365 396 406
f 406 396 405
f 362 402 373
f 373 402 399
f 271 270 400
f 400 270 384
f 401 361 406
f 406 361 365
f 381 369 386
f 386 369 368
f 392 396 395
f 395 396 390
f 393 378 403
f 403 378 377
f 403 377 358
f 358 377 359
f 406 405 408
f 408 405 407
f 406 408 401
f 401 408 409
f 401 409 402
f 402 409 410
f 402 410 399
f 399 410 411
f 405 391 407
f 407 391 412
f 391 394 412
f 412 394 413
f 394 404 413
f 413 404 414
f 415 416 412
f 412 416 407
f 418 419 417
f 417 419 420
f 421 422 418
f 418 422 419
f 419 422 424
f 424 422 423
f 425 426 424
f 424 426 427
f 423 428 424
f 424 428 425
f 427 420 424
f 424 420 419
f 420 429 417
f 417 429 430
f 423 422 431
f 431 422 421
f 421 409 431
f 431 409 408
f 421 432 409
f 409 432 410
f 418 433 421
f 421 433 432
f 434 433 417
f 417 433 418
f 431 416 423
f 423 416 428
f 416 431 407
f 407 431 408
f 435 434 430
f 430 434 417
f 433 434 436
f 436 434 437
f 434 435 437
f 437 435 438
f 436 437 439
f 439 437 440
f 439 441 436
f 436 441 442
f 438 443 437
f 437 443 440
f 436 442 433
f 433 442 432
f 432 442 410
f 410 442 411
f 435 430 445
f 445 430 444
f 430 429 444
f 444 429 446
f 425 428 447
f 447 428 416
f 426 425 448
f 448 425 447
f 416 415 447
f 447 415 449
f 447 449 448
f 448 449 450
f 451 452 448
f 448 452 426
f 446 452 444
f 444 452 451
f 399 411 397
f 397 411 453
f 398 454 404
f 404 454 414
f 454 398 453
f 453 398 397
f 453 441 454
f 454 441 455
f 441 439 455
f 455 439 456
f 454 455 414
f 414 455 457
f 441 453 442
f 442 453 411
f 458 413 457
f 457 413 414
f 458 415 413
f 413 415 412
f 458 459 415
f 415 459 449
f 459 458 460
f 460 458 457
f 461 459 462
f 462 459 460
f 455 456 457
f 457 456 460
f 456 463 460
f 460 463 462
f 459 461 449
f 449 461 450
f 465 450 464
f 464 450 461
f 464 467 466
f 466 467 468
f 464 461 467
f 467 461 462
f 464 466 465
f 465 466 445
f 465 445 451
f 451 445 444
f 451 448 465
f 465 448 450
f 439 440 456
f 456 440 463
f 468 463 443
f 443 463 440
f 468 467 463
f 463 467 462
f 466 468 438
f 438 468 443
f 438 435 466
f 466 435 445
f 420 427 429
f 429 427 446
f 446 427 452
f 452 427 426
f 370 369 188
f 188 369 186
f 371 376 372
f 372 376 375
f 380 379 387
f 387 379 388
f 379 381 388
f 388 381 386
f 385 384 278
f 278 384 270
f 380 387 371
f 371 387 376
f 400 370 271
f 271 370 188
f 385 278 372
f 372 278 247
f 400 384 389
f 389 384 383
f 369 381 186
f 186 381 263
f 221 271 144
f 144 271 188
f 221 19 207
f 207 19 22
f 19 18 22
f 22 18 23
f 18 219 23
f 23 219 208
f 469 470 472
f 472 470 471
f 474 475 473
f 473 475 476
f 473 476 477
f 477 476 478
f 480 481 479
f 479 481 482
f 483 484 474
f 474 484 475
f 486 487 485
f 485 487 488
f 489 490 77
f 77 490 142
f 491 489 248
f 248 489 77
f 493 494 492
f 492 494 495
f 496 480 484
f 484 480 475
f 486 497 487
f 487 497 471
f 498 496 472
f 472 496 484
f 499 493 478
f 478 493 500
f 501 502 504
f 504 502 503
f 493 492 500
f 500 492 505
f 506 477 500
f 500 477 478
f 499 478 479
f 479 478 476
f 469 507 470
f 470 507 508
f 483 509 469
f 469 509 507
f 479 482 499
f 499 482 510
f 492 495 485
f 485 495 511
f 483 469 484
f 484 469 472
f 473 512 474
f 474 512 513
f 497 498 471
f 471 498 472
f 475 480 476
f 476 480 479
f 470 508 514
f 514 508 515
f 506 502 516
f 516 502 501
f 503 502 488
f 488 502 505
f 514 515 503
f 503 515 504
f 485 488 492
f 492 488 505
f 477 506 517
f 517 506 516
f 474 513 483
f 483 513 509
f 510 292 494
f 494 292 164
f 512 473 517
f 517 473 477
f 491 481 496
f 496 481 480
f 502 506 505
f 505 506 500
f 503 488 514
f 514 488 487
f 514 487 470
f 470 487 471
f 517 516 519
f 519 516 518
f 517 519 512
f 512 519 520
f 512 520 513
f 513 520 521
f 513 521 509
f 509 521 522
f 516 501 518
f 518 501 523
f 501 504 523
f 523 504 524
f 524 504 525
f 525 504 515
f 526 527 523
f 523 527 518
f 529 530 528
f 528 530 531
f 532 533 529
f 529 533 530
f 530 533 535
f 535 533 534
f 536 537 535
f 535 537 538
f 534 539 535
f 535 539 536
f 538 531 535
f 535 531 530
f 540 541 531
f 531 541 528
f 533 532 534
f 534 532 542
f 532 520 542
f 542 520 519
f 532 543 520
f 520 543 521
f 529 544 532
f 532 544 543
f 544 529 545
f 545 529 528
f 534 542 539
f 539 542 527
f 527 542 518
f 518 542 519
f 541 546 528
f 528 546 545
f 547 544 548
f 548 544 545
f 546 549 545
f 545 549 548
f 550 547 551
f 551 547 548
f 547 550 553
f 553 550 552
f 549 554 548
f 548 554 551
f 544 547 543
f 543 547 553
f 543 553 521
f 521 553 522
f 546 541 556
f 556 541 555
f 541 540 555
f 555 540 557
f 536 539 558
f 558 539 527
f 537 536 559
f 559 536 558
f 527 526 558
f 558 526 560
f 559 558 561
f 561 558 560
f 559 562 537
f 537 562 563
f 557 563 555
f 555 563 562
f 509 522 507
f 507 522 564
f 508 565 515
f 515 565 525
f 565 508 564
f 564 508 507
f 564 552 565
f 565 552 566
f 552 550 566
f 566 550 567
f 565 566 525
f 525 566 568
f 564 522 552
f 552 522 553
f 569 524 568
f 568 524 525
f 569 526 524
f 524 526 523
f 570 560 569
f 569 560 526
f 570 569 571
f 571 569 568
f 572 570 573
f 573 570 571
f 566 567 568
f 568 567 571
f 567 574 571
f 571 574 573
f 570 572 560
f 560 572 561
f 576 561 575
f 575 561 572
f 575 578 577
f 577 578 579
f 575 572 578
f 578 572 573
f 575 577 576
f 576 577 556
f 576 556 562
f 562 556 555
f 562 559 576
f 576 559 561
f 550 551 567
f 567 551 574
f 579 574 554
f 554 574 551
f 579 578 574
f 574 578 573
f 579 554 577
f 577 554 549
f 549 546 577
f 577 546 556
f 531 538 540
f 540 538 557
f 557 538 563
f 563 538 537
f 481 294 482
f 482 294 293
f 580 486 511
f 511 486 485
f 490 489 497
f 497 489 498
f 489 491 498
f 498 491 496
f 163 495 164
f 164 495 494
f 580 490 486
f 486 490 497
f 482 293 510
f 510 293 292
f 495 163 511
f 511 163 199
f 494 493 510
f 510 493 499
f 481 491 294
f 294 491 248
f 582 583 581
f 581 583 584
f 586 587 585
f 585 587 588
f 585 588 589
f 589 588 590
f 592 593 591
f 591 593 594
f 595 596 598
f 598 596 597
f 599 600 586
f 586 600 587
f 601 602 604
f 604 602 603
f 605 606 608
f 608 606 607
f 609 607 200
f 200 607 606
f 610 611 613
f 613 611 612
f 600 614 587
f 587 614 592
f 596 605 597
f 597 605 608
f 602 615 603
f 603 615 583
f 616 614 584
f 584 614 600
f 611 618 617
f 617 618 590
f 620 621 619
f 619 621 622
f 610 623 611
f 611 623 618
f 624 589 618
f 618 589 590
f 617 590 591
f 591 590 588
f 581 625 582
f 582 625 626
f 599 627 581
f 581 627 625
f 591 594 617
f 617 594 628
f 601 610 598
f 598 610 613
f 581 584 599
f 599 584 600
f 585 629 586
f 586 629 630
f 615 616 583
f 583 616 584
f 587 592 588
f 588 592 591
f 582 626 631
f 631 626 632
f 624 620 633
f 633 620 619
f 621 620 604
f 604 620 623
f 631 632 621
f 621 632 622
f 610 601 623
f 623 601 604
f 589 624 634
f 634 624 633
f 586 630 599
f 599 630 627
f 203 202 628
f 628 202 612
f 629 585 634
f 634 585 589
f 609 593 614
f 614 593 592
f 620 624 623
f 623 624 618
f 631 621 603
f 603 621 604
f 582 631 583
f 583 631 603
f 634 633 636
f 636 633 635
f 634 636 629
f 629 636 637
f 629 637 630
f 630 637 638
f 630 638 627
f 627 638 639
f 633 619 635
f 635 619 640
f 619 622 640
f 640 622 641
f 641 622 642
f 642 622 632
f 644 635 643
f 643 635 640
f 645 646 648
f 648 646 647
f 649 650 646
f 646 650 647
f 647 650 652
f 652 650 651
f 652 653 655
f 655 653 654
f 651 656 652
f 652 656 653
f 655 648 652
f 652 648 647
f 648 657 645
f 645 657 658
f 650 649 651
f 651 649 659
f 649 637 659
f 659 637 636
f 649 660 637
f 637 660 638
f 661 660 646
f 646 660 649
f 662 661 645
f 645 661 646
f 651 659 656
f 656 659 644
f 644 659 635
f 635 659 636
f 663 662 658
f 658 662 645
f 664 661 665
f 665 661 662
f 663 666 662
f 662 666 665
f 667 664 668
f 668 664 665
f 664 667 670
f 670 667 669
f 666 671 665
f 665 671 668
f 661 664 660
f 660 664 670
f 660 670 638
f 638 670 639
f 658 672 663
f 663 672 673
f 658 657 672
f 672 657 674
f 653 656 675
f 675 656 644
f 653 675 654
f 654 675 676
f 675 644 677
f 677 644 643
f 676 675 678
f 678 675 677
f 679 680 676
f 676 680 654
f 674 680 672
f 672 680 679
f 627 639 625
f 625 639 681
f 626 682 632
f 632 682 642
f 681 682 625
f 625 682 626
f 669 683 681
f 681 683 682
f 667 684 669
f 669 684 683
f 682 683 642
f 642 683 685
f 681 639 669
f 669 639 670
f 686 641 685
f 685 641 642
f 641 686 640
f 640 686 643
f 686 687 643
f 643 687 677
f 687 686 688
f 688 686 685
f 689 687 690
f 690 687 688
f 683 684 685
f 685 684 688
f 684 691 688
f 688 691 690
f 687 689 677
f 677 689 678
f 693 678 692
f 692 678 689
f 692 695 694
f 694 695 696
f 692 689 695
f 695 689 690
f 692 694 693
f 693 694 673
f 693 673 679
f 679 673 672
f 679 676 693
f 693 676 678
f 684 667 691
f 691 667 668
f 696 691 671
f 671 691 668
f 696 695 691
f 691 695 690
f 694 696 666
f 666 696 671
f 666 663 694
f 694 663 673
f 648 655 657
f 657 655 674
f 674 655 680
f 680 655 654
f 593 162 594
f 594 162 290
f 598 597 601
f 601 597 602
f 615 608 616
f 616 608 607
f 607 609 616
f 616 609 614
f 697 595 613
f 613 595 598
f 597 608 602
f 602 608 615
f 594 290 628
f 628 290 203
f 628 612 617
f 617 612 611
f 593 609 162
f 162 609 200
f 105 29 698
f 698 29 699
f 268 126 701
f 701 126 700
f 126 125 700
f 700 125 702
f 252 703 250
f 250 703 704
f 32 268 705
f 705 268 701
f 288 105 706
f 706 105 698
f 29 32 699
f 699 32 705
f 707 251 706
f 706 251 288
f 250 704 125
f 125 704 702
f 703 252 707
f 707 252 251
f 706 708 707
f 707 708 709
f 707 709 703
f 703 709 710
f 703 710 704
f 704 710 711
f 704 711 702
f 702 711 712
f 706 698 708
f 708 698 713
f 698 699 713
f 713 699 714
f 699 705 714
f 714 705 715
f 717 708 716
f 716 708 713
f 719 720 718
f 718 720 721
f 722 723 719
f 719 723 720
f 724 725 723
f 723 725 720
f 724 726 725
f 725 726 727
f 728 721 725
f 725 721 720
f 721 728 729
f 729 728 730
f 729 731 721
f 721 731 718
f 724 723 732
f 732 723 722
f 722 710 732
f 732 710 709
f 722 733 710
f 710 733 711
f 719 734 722
f 722 734 733
f 734 719 735
f 735 719 718
f 724 732 726
f 726 732 717
f 717 732 708
f 708 732 709
f 731 736 718
f 718 736 735
f 737 734 738
f 738 734 735
f 736 739 735
f 735 739 738
f 740 737 741
f 741 737 738
f 737 740 743
f 743 740 742
f 739 744 738
f 738 744 741
f 734 737 733
f 733 737 743
f 733 743 711
f 711 743 712
f 736 731 746
f 746 731 745
f 731 729 745
f 745 729 730
f 727 726 747
f 747 726 717
f 748 727 749
f 749 727 747
f 747 717 750
f 750 717 716
f 749 747 751
f 751 747 750
f 749 752 748
f 748 752 753
f 730 753 745
f 745 753 752
f 728 725 748
f 748 725 727
f 730 728 753
f 753 728 748
f 700 702 754
f 754 702 712
f 705 701 715
f 715 701 755
f 754 755 700
f 700 755 701
f 742 756 754
f 754 756 755
f 740 757 742
f 742 757 756
f 755 756 715
f 715 756 758
f 754 712 742
f 742 712 743
f 759 714 758
f 758 714 715
f 714 759 713
f 713 759 716
f 759 760 716
f 716 760 750
f 760 759 761
f 761 759 758
f 762 760 763
f 763 760 761
f 756 757 758
f 758 757 761
f 757 764 761
f 761 764 763
f 760 762 750
f 750 762 751
f 766 751 765
f 765 751 762
f 767 765 769
f 769 765 768
f 765 762 768
f 768 762 763
f 765 767 766
f 766 767 746
f 766 746 752
f 752 746 745
f 752 749 766
f 766 749 751
f 757 740 764
f 764 740 741
f 769 764 744
f 744 764 741
f 769 768 764
f 764 768 763
f 767 769 739
f 739 769 744
f 739 736 767
f 767 736 746
f 219 217 208
f 208 217 209
f 209 217 210
f 210 217 193
f 198 580 199
f 199 580 511
f 76 75 289
f 289 75 272
f 277 207 291
f 291 207 184
f 290 183 203
f 203 183 84
f 490 580 142
f 142 580 198
f 142 198 143
f 143 198 197
f 149 276 72
f 72 276 73
f 104 103 279
f 279 103 770
f 770 596 279
f 279 596 595
f 605 596 771
f 771 596 770
f 771 770 772
f 772 770 103
f 772 103 773
f 773 103 102
f 155 774 101
f 101 774 102
f 773 102 97
f 97 102 774
f 775 773 100
f 100 773 97
f 773 775 772
f 772 775 776
f 772 776 771
f 771 776 777
f 200 606 197
f 197 606 777
f 189 71 778
f 778 71 74
f 97 774 98
f 98 774 155
f 183 161 184
f 184 161 291
f 777 276 197
f 197 276 143
f 777 606 771
f 771 606 605
f 613 612 697
f 697 612 202
f 595 697 279
f 279 697 202
f 73 276 776
f 776 276 777
f 776 775 73
f 73 775 74
f 100 778 775
f 775 778 74
f 778 100 189
f 189 100 99
f 245 242 99
f 99 242 189
f 131 33 256
f 28 1 95
f 95 1 62
f 27 2 28
f 28 2 1
f 265 115 266
f 266 115 114
f 95 62 69
f 69 62 64
f 62 61 64
f 64 61 65
f 61 13 65
f 65 13 130
f 13 12 130
f 130 12 14
f 31 11 32
f 32 11 268
f 15 12 31
f 31 12 11
f 31 30 15
f 15 30 231
f 30 106 231
f 231 106 232
f 287 237 106
f 106 237 232
f 254 90 287
f 287 90 237
f 253 44 254
f 254 44 90
f 253 249 44
f 44 249 7
f 267 127 268
f 268 127 126
f 10 3 241
f 241 3 116
f 3 2 116
f 116 2 114
f 2 27 114
f 114 27 266
f 27 26 266
f 266 26 113
f 26 286 113
f 113 286 110
f 286 243 110
f 110 243 255
f 243 242 255
f 255 242 256
f 242 245 256
f 256 245 131
f 245 244 131
f 131 244 132
f 265 37 115
f 115 37 41
f 41 37 42
f 42 37 40
f 92 91 40
f 40 91 42
f 236 233 92
f 92 233 91
f 191 194 236
f 236 194 233
f 258 285 244
f 244 285 132
f 257 55 258
f 258 55 285
f 257 154 201
f 201 154 185
f 56 201 204
f 204 201 180
f 55 257 56
f 56 257 201
f 204 85 56
f 56 85 52
f 86 122 53
f 53 122 79
f 212 215 86
f 86 215 122
f 211 216 212
f 212 216 215
f 192 280 211
f 211 280 216
f 191 240 192
f 192 240 280
f 249 124 7
f 7 124 8
f 124 127 8
f 8 127 241
f 127 267 241
f 241 267 10
f 10 267 9
f 9 267 11
f 93 39 235
f 235 39 240
f 39 123 240
f 240 123 280
f 123 119 280
f 280 119 216
f 119 118 216
f 216 118 215
f 118 120 215
f 215 120 122
f 120 121 122
f 122 121 79
f 121 109 79
f 79 109 80

