# https://github.com/mikedh/trimesh
v -0.08437252 0.00606595 -15.57495975 0.25098039 0.27450980 0.65882353
v -0.09233355 0.01122234 -15.57949352 0.25098039 0.27450980 0.65882353
v -0.08618930 0.00668614 -15.58742809 0.25098039 0.27450980 0.65882353
v -0.07748654 0.00207997 -15.58108044 0.25098039 0.27450980 0.65882353
v -0.10192911 0.02055474 -15.59805298 0.25098039 0.27450980 0.65882353
v -0.09953862 0.03151264 -15.60370159 0.25098039 0.27450980 0.65882353
v -0.09039802 0.02086983 -15.60998631 0.25098039 0.27450980 0.65882353
v -0.09437940 0.01326100 -15.60475254 0.25098039 0.27450980 0.65882353
v -0.07100907 0.00025097 -15.58500385 0.25098039 0.27450980 0.65882353
v -0.08119375 0.00217612 -15.59311581 0.25098039 0.27450980 0.65882353
v -0.06672366 0.00381169 -15.58710003 0.25098039 0.27450980 0.65882353
v -0.05666511 0.00501944 -15.57420635 0.25098039 0.27450980 0.65882353
v -0.06205192 0.00101541 -15.57576942 0.25098039 0.27450980 0.65882353
v -0.05193478 0.00250423 -15.56619358 0.25098039 0.27450980 0.65882353
v -0.05663575 0.01449304 -15.56965446 0.25098039 0.27450980 0.65882353
v -0.05293536 0.00574113 -15.55712986 0.25098039 0.27450980 0.65882353
v -0.07541655 0.01779458 -15.54328728 0.25098039 0.27450980 0.65882353
v -0.08689129 0.01555297 -15.53715515 0.25098039 0.27450980 0.65882353
v -0.07936668 0.00265906 -15.53273296 0.25098039 0.27450980 0.65882353
v -0.06855953 0.00596937 -15.54003716 0.25098039 0.27450980 0.65882353
v -0.09916422 0.00076630 -15.53036785 0.25098039 0.27450980 0.65882353
v -0.08789657 0.00113525 -15.53109360 0.25098039 0.27450980 0.65882353
v -0.09515145 0.01473889 -15.53469944 0.25098039 0.27450980 0.65882353
v -0.10502544 0.01389861 -15.53377056 0.25098039 0.27450980 0.65882353
v -0.09841396 0.00944565 -15.56706429 0.25098039 0.27450980 0.65882353
v -0.10597743 0.01546518 -15.57048416 0.25098039 0.27450980 0.65882353
v -0.10053357 0.01480777 -15.57206726 0.25098039 0.27450980 0.65882353
v -0.09336799 0.00952407 -15.56940746 0.25098039 0.27450980 0.65882353
v -0.06426449 0.00968947 -15.60012913 0.25098039 0.27450980 0.65882353
v -0.06314623 0.01907490 -15.58964443 0.25098039 0.27450980 0.65882353
v -0.06250410 0.01151662 -15.58698940 0.25098039 0.27450980 0.65882353
v -0.06724317 0.00508320 -15.59952164 0.25098039 0.27450980 0.65882353
v -0.12950367 0.02913207 -15.57803440 0.25098039 0.27450980 0.65882353
v -0.13293937 0.04253394 -15.57730198 0.25098039 0.27450980 0.65882353
v -0.12795234 0.04457332 -15.57947254 0.25098039 0.27450980 0.65882353
v -0.12601052 0.03198570 -15.57922745 0.25098039 0.27450980 0.65882353
v -0.11122152 0.04343280 -15.59292030 0.25098039 0.27450980 0.65882353
v -0.11426727 0.05162777 -15.58809662 0.25098039 0.27450980 0.65882353
v -0.10623627 0.06300607 -15.58674526 0.25098039 0.27450980 0.65882353
v -0.10061762 0.05590263 -15.59044361 0.25098039 0.27450980 0.65882353
v -0.10565877 0.03650102 -15.59863663 0.25098039 0.27450980 0.65882353
v -0.09734721 0.04733988 -15.59791946 0.25098039 0.27450980 0.65882353
v -0.09202433 0.04026848 -15.60387039 0.25098039 0.27450980 0.65882353
v -0.08425280 0.02754976 -15.61131859 0.25098039 0.27450980 0.65882353
v -0.14232409 0.03931800 -15.56946850 0.25098039 0.27450980 0.65882353
v -0.14181787 0.02927920 -15.56897163 0.25098039 0.27450980 0.65882353
v -0.02877949 -0.03812940 -15.56098747 0.25098039 0.27450980 0.65882353
v -0.03301942 -0.04152374 -15.55897141 0.25098039 0.27450980 0.65882353
v -0.03490134 -0.03796745 -15.55874348 0.25098039 0.27450980 0.65882353
v -0.03045483 -0.03512947 -15.56042671 0.25098039 0.27450980 0.65882353
v -0.14311206 0.03615970 -15.54979229 0.25098039 0.27450980 0.65882353
v -0.13794655 0.03999845 -15.54195213 0.25098039 0.27450980 0.65882353
v -0.14228019 0.04466154 -15.54429054 0.25098039 0.27450980 0.65882353
v -0.14560059 0.04235658 -15.55243969 0.25098039 0.27450980 0.65882353
v -0.13945821 0.02790933 -15.54604435 0.25098039 0.27450980 0.65882353
v -0.13182925 0.03315068 -15.53924274 0.25098039 0.27450980 0.65882353
v -0.01995400 -0.03791020 -15.55224419 0.25098039 0.27450980 0.65882353
v -0.02117345 -0.03699424 -15.55706310 0.25098039 0.27450980 0.65882353
v -0.02266340 -0.03277927 -15.55497646 0.25098039 0.27450980 0.65882353
v -0.02211462 -0.03327398 -15.54969597 0.25098039 0.27450980 0.65882353
v -0.06919648 -0.00023918 -15.57499218 0.25098039 0.27450980 0.65882353
v -0.07776089 0.00024763 -15.57176495 0.25098039 0.27450980 0.65882353
v -0.05850373 -0.01386155 -15.56625748 0.25098039 0.27450980 0.65882353
v -0.06687656 -0.00772957 -15.56732941 0.25098039 0.27450980 0.65882353
v -0.06162141 -0.00403511 -15.57035637 0.25098039 0.27450980 0.65882353
v -0.05471383 -0.00841674 -15.56791878 0.25098039 0.27450980 0.65882353
v -0.08816741 -0.00914317 -15.55782318 0.25098039 0.27450980 0.65882353
v -0.09446767 0.00020238 -15.56152344 0.25098039 0.27450980 0.65882353
v -0.08821999 0.00087507 -15.56344700 0.25098039 0.27450980 0.65882353
v -0.08028480 -0.00953036 -15.56099415 0.25098039 0.27450980 0.65882353
v -0.10732657 -0.00388845 -15.55834103 0.25098039 0.27450980 0.65882353
v -0.10009751 -0.01247663 -15.55483532 0.25098039 0.27450980 0.65882353
v -0.10843970 -0.01360792 -15.55360126 0.25098039 0.27450980 0.65882353
v -0.11245549 -0.00772061 -15.55699825 0.25098039 0.27450980 0.65882353
v -0.08441140 -0.02654574 -15.54834747 0.25098039 0.27450980 0.65882353
v -0.07858275 -0.03120236 -15.54320812 0.25098039 0.27450980 0.65882353
v -0.08073024 -0.03219952 -15.54142761 0.25098039 0.27450980 0.65882353
v -0.08737391 -0.02688924 -15.54720402 0.25098039 0.27450980 0.65882353
v -0.14572075 0.05003124 -15.54542446 0.25098039 0.27450980 0.65882353
v -0.14675002 0.04865320 -15.55452728 0.25098039 0.27450980 0.65882353
v -0.11911637 -0.00305841 -15.53054237 0.25098039 0.27450980 0.65882353
v -0.12847415 -0.00381666 -15.53601551 0.25098039 0.27450980 0.65882353
v -0.12489371 -0.01566468 -15.53272343 0.25098039 0.27450980 0.65882353
v -0.11638939 -0.01169787 -15.52783012 0.25098039 0.27450980 0.65882353
v -0.12903252 0.04344867 -15.53828144 0.25098039 0.27450980 0.65882353
v -0.13457943 0.04793024 -15.53888226 0.25098039 0.27450980 0.65882353
v -0.02172473 -0.04059381 -15.54719257 0.25098039 0.27450980 0.65882353
v -0.02381793 -0.03609357 -15.54469013 0.25098039 0.27450980 0.65882353
v -0.08348066 0.04622251 -15.59511757 0.25098039 0.27450980 0.65882353
v -0.07622066 0.03176353 -15.60666847 0.25098039 0.27450980 0.65882353
v -0.09023518 0.05583004 -15.58697891 0.25098039 0.27450980 0.65882353
v -0.09485342 0.06219612 -15.58083344 0.25098039 0.27450980 0.65882353
v -0.09908445 0.06842531 -15.57827663 0.25098039 0.27450980 0.65882353
v -0.06923011 -0.01319317 -15.56350994 0.25098039 0.27450980 0.65882353
v -0.08581467 0.00355322 -15.56822205 0.25098039 0.27450980 0.65882353
v -0.10311227 0.00829675 -15.56522179 0.25098039 0.27450980 0.65882353
v -0.12981144 -0.00386770 -15.55754757 0.25098039 0.27450980 0.65882353
v -0.13526627 0.00481711 -15.56101513 0.25098039 0.27450980 0.65882353
v -0.12493932 0.00407008 -15.56459522 0.25098039 0.27450980 0.65882353
v -0.12226029 -0.00330142 -15.56028461 0.25098039 0.27450980 0.65882353
v -0.13224198 -0.00848867 -15.54297161 0.25098039 0.27450980 0.65882353
v -0.12911052 -0.01167114 -15.54919720 0.25098039 0.27450980 0.65882353
v -0.12484156 -0.01911938 -15.54684258 0.25098039 0.27450980 0.65882353
v -0.12771925 -0.01730170 -15.54039288 0.25098039 0.27450980 0.65882353
v -0.06293412 0.01439600 -15.60521984 0.25098039 0.27450980 0.65882353
v -0.06405425 0.02505988 -15.59251499 0.25098039 0.27450980 0.65882353
v -0.14507754 0.03300119 -15.55938244 0.25098039 0.27450980 0.65882353
v -0.14545698 0.04007928 -15.56226826 0.25098039 0.27450980 0.65882353
v -0.14621970 0.04863065 -15.56180000 0.25098039 0.27450980 0.65882353
v -0.11734679 0.02226366 -15.57513714 0.25098039 0.27450980 0.65882353
v -0.12372866 0.03391653 -15.58016968 0.25098039 0.27450980 0.65882353
v -0.12070604 0.03410512 -15.58241844 0.25098039 0.27450980 0.65882353
v -0.11456379 0.02237581 -15.57550335 0.25098039 0.27450980 0.65882353
v -0.10244924 0.01670839 -15.58442497 0.25098039 0.27450980 0.65882353
v -0.10968055 0.02667210 -15.59026814 0.25098039 0.27450980 0.65882353
v -0.09669630 0.01093023 -15.59270191 0.25098039 0.27450980 0.65882353
v -0.12238820 0.04872544 -15.58303261 0.25098039 0.27450980 0.65882353
v -0.13099900 0.05433489 -15.58037186 0.25098039 0.27450980 0.65882353
v -0.12377353 0.05799115 -15.58349323 0.25098039 0.27450980 0.65882353
v -0.13831070 0.05166883 -15.57487011 0.25098039 0.27450980 0.65882353
v -0.14344661 0.04931385 -15.56827736 0.25098039 0.27450980 0.65882353
v -0.13874975 0.05373825 -15.53677464 0.25098039 0.27450980 0.65882353
v -0.11633433 0.06113509 -15.58539200 0.25098039 0.27450980 0.65882353
v -0.08807299 0.00753547 -15.60880280 0.25098039 0.27450980 0.65882353
v -0.08249059 0.00230568 -15.61247253 0.25098039 0.27450980 0.65882353
v -0.07961439 -0.00075981 -15.60612202 0.25098039 0.27450980 0.65882353
v -0.08519357 0.00308539 -15.60204792 0.25098039 0.27450980 0.65882353
v -0.04662222 -0.00240506 -15.55985641 0.25098039 0.27450980 0.65882353
v -0.04976937 -0.00572231 -15.56567669 0.25098039 0.27450980 0.65882353
v -0.05585854 -0.00001805 -15.57124615 0.25098039 0.27450980 0.65882353
v -0.12864979 0.01919140 -15.57292461 0.25098039 0.27450980 0.65882353
v -0.13982552 0.01943171 -15.56547832 0.25098039 0.27450980 0.65882353
v -0.05989759 -0.01907307 -15.56181240 0.25098039 0.27450980 0.65882353
v -0.02524577 -0.02858439 -15.54898739 0.25098039 0.27450980 0.65882353
v -0.02558763 -0.02808831 -15.55471897 0.25098039 0.27450980 0.65882353
v -0.03738116 -0.01369952 -15.55687332 0.25098039 0.27450980 0.65882353
v -0.03680225 -0.01401456 -15.54999447 0.25098039 0.27450980 0.65882353
v -0.05456018 -0.02429880 -15.55221844 0.25098039 0.27450980 0.65882353
v -0.05541998 -0.02277390 -15.55882072 0.25098039 0.27450980 0.65882353
v -0.05274482 -0.02414278 -15.55662632 0.25098039 0.27450980 0.65882353
v -0.05221289 -0.02783025 -15.55119133 0.25098039 0.27450980 0.65882353
v -0.08964328 -0.03211468 -15.54264164 0.25098039 0.27450980 0.65882353
v -0.09547206 -0.02720989 -15.54694176 0.25098039 0.27450980 0.65882353
v -0.06226847 -0.00852621 -15.53828812 0.25098039 0.27450980 0.65882353
v -0.05315648 -0.00023934 -15.54343605 0.25098039 0.27450980 0.65882353
v -0.05929187 0.00832613 -15.54704475 0.25098039 0.27450980 0.65882353
v -0.09523567 -0.01019807 -15.55604649 0.25098039 0.27450980 0.65882353
v -0.09009553 -0.01911974 -15.55253792 0.25098039 0.27450980 0.65882353
v -0.09373239 -0.02005336 -15.55126572 0.25098039 0.27450980 0.65882353
v -0.06923676 -0.01696148 -15.56014252 0.25098039 0.27450980 0.65882353
v -0.06214133 -0.02214462 -15.55714226 0.25098039 0.27450980 0.65882353
v -0.06830969 -0.02116894 -15.55587196 0.25098039 0.27450980 0.65882353
v -0.07439560 -0.01629247 -15.55784225 0.25098039 0.27450980 0.65882353
v -0.13303503 0.00822862 -15.53837299 0.25098039 0.27450980 0.65882353
v -0.13774607 0.00274952 -15.54618645 0.25098039 0.27450980 0.65882353
v -0.02443476 -0.03681952 -15.56027985 0.25098039 0.27450980 0.65882353
v -0.02590935 -0.03317811 -15.55895424 0.25098039 0.27450980 0.65882353
v -0.10110998 -0.00101565 -15.55938339 0.25098039 0.27450980 0.65882353
v -0.06634083 0.01835290 -15.55175591 0.25098039 0.27450980 0.65882353
v -0.10796988 0.00683089 -15.56397629 0.25098039 0.27450980 0.65882353
v -0.10056721 -0.02083784 -15.52774048 0.25098039 0.27450980 0.65882353
v -0.10328955 -0.02634486 -15.53314400 0.25098039 0.27450980 0.65882353
v -0.09899095 -0.03083311 -15.53184319 0.25098039 0.27450980 0.65882353
v -0.09709851 -0.02802413 -15.52628899 0.25098039 0.27450980 0.65882353
v -0.04176767 -0.03894309 -15.54901314 0.25098039 0.27450980 0.65882353
v -0.04137491 -0.03863439 -15.55464554 0.25098039 0.27450980 0.65882353
v -0.03793846 -0.04112785 -15.55423737 0.25098039 0.27450980 0.65882353
v -0.03786302 -0.04229411 -15.54858208 0.25098039 0.27450980 0.65882353
v -0.05334076 -0.01918328 -15.56292439 0.25098039 0.27450980 0.65882353
v -0.04985553 -0.01396433 -15.56502724 0.25098039 0.27450980 0.65882353
v -0.04617985 -0.01917319 -15.56323719 0.25098039 0.27450980 0.65882353
v -0.04979549 -0.02240786 -15.56016445 0.25098039 0.27450980 0.65882353
v -0.04482947 -0.01081453 -15.56249523 0.25098039 0.27450980 0.65882353
v -0.04118243 -0.01546241 -15.56185341 0.25098039 0.27450980 0.65882353
v -0.03854984 -0.03716189 -15.54365540 0.25098039 0.27450980 0.65882353
v -0.03235483 -0.03370553 -15.54131794 0.25098039 0.27450980 0.65882353
v -0.04426801 -0.02129450 -15.54164314 0.25098039 0.27450980 0.65882353
v -0.04813416 -0.02718915 -15.54499340 0.25098039 0.27450980 0.65882353
v -0.10990445 0.02715714 -15.53621769 0.25098039 0.27450980 0.65882353
v -0.12026961 0.02430502 -15.53517628 0.25098039 0.27450980 0.65882353
v -0.11528654 0.01094009 -15.53286362 0.25098039 0.27450980 0.65882353
v -0.11068026 -0.00182040 -15.52982998 0.25098039 0.27450980 0.65882353
v -0.10576434 -0.01433175 -15.52791214 0.25098039 0.27450980 0.65882353
v -0.09507371 -0.01031267 -15.52631187 0.25098039 0.27450980 0.65882353
v -0.12301920 0.00990964 -15.53347206 0.25098039 0.27450980 0.65882353
v -0.05844954 -0.02090375 -15.54421902 0.25098039 0.27450980 0.65882353
v -0.05323316 -0.01321873 -15.54198647 0.25098039 0.27450980 0.65882353
v -0.05930181 -0.01531548 -15.53998184 0.25098039 0.27450980 0.65882353
v -0.11467081 0.00397153 -15.56323814 0.25098039 0.27450980 0.65882353
v -0.02858186 -0.02911665 -15.55939484 0.25098039 0.27450980 0.65882353
v -0.09602480 0.06125143 -15.55717278 0.25098039 0.27450980 0.65882353
v -0.10423727 0.05832307 -15.54690266 0.25098039 0.27450980 0.65882353
v -0.10021716 0.05167771 -15.54806805 0.25098039 0.27450980 0.65882353
v -0.09094702 0.05470153 -15.56002045 0.25098039 0.27450980 0.65882353
v -0.03833082 -0.03577265 -15.55995655 0.25098039 0.27450980 0.65882353
v -0.03342681 -0.03215623 -15.56218243 0.25098039 0.27450980 0.65882353
v -0.10075402 -0.02986171 -15.54513741 0.25098039 0.27450980 0.65882353
v -0.09505408 -0.03333895 -15.54131413 0.25098039 0.27450980 0.65882353
v -0.09686080 -0.03417386 -15.53785038 0.25098039 0.27450980 0.65882353
v -0.10394551 -0.03321526 -15.54272461 0.25098039 0.27450980 0.65882353
v -0.12601238 0.02399268 -15.53563976 0.25098039 0.27450980 0.65882353
v -0.12359285 -0.02332888 -15.53310299 0.25098039 0.27450980 0.65882353
v -0.11598916 -0.01961051 -15.52759933 0.25098039 0.27450980 0.65882353
v -0.12409852 0.03612192 -15.53721714 0.25098039 0.27450980 0.65882353
v -0.11499085 0.03864433 -15.53764439 0.25098039 0.27450980 0.65882353
v -0.11885165 0.04669910 -15.53818035 0.25098039 0.27450980 0.65882353
v -0.07982899 -0.01349184 -15.52849483 0.25098039 0.27450980 0.65882353
v -0.10192645 0.02729303 -15.53768444 0.25098039 0.27450980 0.65882353
v -0.10799021 0.03898476 -15.53972816 0.25098039 0.27450980 0.65882353
v -0.11226916 0.04876170 -15.54026604 0.25098039 0.27450980 0.65882353
v -0.11510730 0.05574216 -15.53958893 0.25098039 0.27450980 0.65882353
v -0.12229482 0.05241655 -15.53798580 0.25098039 0.27450980 0.65882353
v -0.02768987 -0.03140126 -15.54398155 0.25098039 0.27450980 0.65882353
v -0.02850579 -0.03960560 -15.54156876 0.25098039 0.27450980 0.65882353
v -0.12589827 0.05882655 -15.53590488 0.25098039 0.27450980 0.65882353
v -0.11760873 0.06186404 -15.53839207 0.25098039 0.27450980 0.65882353
v -0.09975891 0.03995543 -15.54310703 0.25098039 0.27450980 0.65882353
v -0.09077640 0.04083718 -15.54851437 0.25098039 0.27450980 0.65882353
v -0.09410658 0.02874693 -15.54023170 0.25098039 0.27450980 0.65882353
v -0.08417368 0.02899486 -15.54524899 0.25098039 0.27450980 0.65882353
v -0.07191968 -0.00695302 -15.52950859 0.25098039 0.27450980 0.65882353
v -0.02628857 -0.05529651 -15.54916859 0.25098039 0.27450980 0.65882353
v -0.03151864 -0.04644108 -15.54501724 0.25098039 0.27450980 0.65882353
v -0.03538962 -0.04632653 -15.54921913 0.25098039 0.27450980 0.65882353
v -0.03016712 -0.05573617 -15.55121326 0.25098039 0.27450980 0.65882353
v -0.03464358 -0.04164379 -15.54387951 0.25098039 0.27450980 0.65882353
v -0.02636917 -0.04389017 -15.54396725 0.25098039 0.27450980 0.65882353
v -0.07377167 0.02971651 -15.55630493 0.25098039 0.27450980 0.65882353
v -0.06246457 -0.02531599 -15.55165386 0.25098039 0.27450980 0.65882353
v -0.08040518 0.04280994 -15.56350231 0.25098039 0.27450980 0.65882353
v -0.06270494 0.02552688 -15.57146835 0.25098039 0.27450980 0.65882353
v -0.06913011 0.03426763 -15.57844067 0.25098039 0.27450980 0.65882353
v -0.08646125 0.05661627 -15.57205486 0.25098039 0.27450980 0.65882353
v -0.07739726 0.04720740 -15.58246708 0.25098039 0.27450980 0.65882353
v -0.09723101 0.06871283 -15.56766129 0.25098039 0.27450980 0.65882353
v -0.09224148 0.06228729 -15.56854725 0.25098039 0.27450980 0.65882353
v -0.07091449 0.03662445 -15.59424496 0.25098039 0.27450980 0.65882353
v -0.02745044 -0.04802644 -15.56333256 0.25098039 0.27450980 0.65882353
v -0.03165242 -0.05062871 -15.56040573 0.25098039 0.27450980 0.65882353
v -0.09970270 0.06776708 -15.55620766 0.25098039 0.27450980 0.65882353
v -0.09017852 0.00656979 -15.59846497 0.25098039 0.27450980 0.65882353
v -0.11885624 0.01234888 -15.56839943 0.25098039 0.27450980 0.65882353
v -0.11351325 0.01367420 -15.56925774 0.25098039 0.27450980 0.65882353
v -0.13764730 0.01057201 -15.56240082 0.25098039 0.27450980 0.65882353
v -0.12630412 0.01118226 -15.56794739 0.25098039 0.27450980 0.65882353
v -0.02233152 -0.04630692 -15.56334496 0.25098039 0.27450980 0.65882353
v -0.07506010 -0.03242520 -15.53722286 0.25098039 0.27450980 0.65882353
v -0.07737438 -0.03068595 -15.53655910 0.25098039 0.27450980 0.65882353
v -0.08585402 0.01372305 -15.61411095 0.25098039 0.27450980 0.65882353
v -0.08191127 0.00816822 -15.61719608 0.25098039 0.27450980 0.65882353
v -0.07059270 0.01455859 -15.61759567 0.25098039 0.27450980 0.65882353
v -0.07691245 0.01222558 -15.61959267 0.25098039 0.27450980 0.65882353
v -0.08009127 0.01963111 -15.61599255 0.25098039 0.27450980 0.65882353
v -0.07359912 0.02262772 -15.61357403 0.25098039 0.27450980 0.65882353
v -0.11933850 0.02126146 -15.57505989 0.25098039 0.27450980 0.65882353
v -0.12260102 0.01997337 -15.57426357 0.25098039 0.27450980 0.65882353
v -0.13668703 0.01867965 -15.54224205 0.25098039 0.27450980 0.65882353
v -0.14061248 0.01304974 -15.55050564 0.25098039 0.27450980 0.65882353
v -0.04227801 -0.00826829 -15.55714226 0.25098039 0.27450980 0.65882353
v -0.04729539 -0.00118416 -15.55149078 0.25098039 0.27450980 0.65882353
v -0.04246859 -0.00800600 -15.55004883 0.25098039 0.27450980 0.65882353
v -0.04036359 -0.01552018 -15.54408073 0.25098039 0.27450980 0.65882353
v -0.05845828 -0.02539765 -15.54736328 0.25098039 0.27450980 0.65882353
v -0.05351058 -0.02238298 -15.54687786 0.25098039 0.27450980 0.65882353
v -0.11572021 0.02979536 -15.58600903 0.25098039 0.27450980 0.65882353
v -0.10879981 0.02038734 -15.57787704 0.25098039 0.27450980 0.65882353
v -0.07801814 0.00154397 -15.59685326 0.25098039 0.27450980 0.65882353
v -0.07367626 -0.00004842 -15.60088825 0.25098039 0.27450980 0.65882353
v -0.08212639 -0.01606293 -15.55562210 0.25098039 0.27450980 0.65882353
v -0.07162832 -0.02241403 -15.52850151 0.25098039 0.27450980 0.65882353
v -0.06550467 -0.01708122 -15.52959156 0.25098039 0.27450980 0.65882353
v -0.07625224 -0.02285006 -15.55228424 0.25098039 0.27450980 0.65882353
v -0.01667303 -0.04804669 -15.55690575 0.25098039 0.27450980 0.65882353
v -0.01897028 -0.04661029 -15.56125164 0.25098039 0.27450980 0.65882353
v -0.04636629 -0.00899042 -15.54401112 0.25098039 0.27450980 0.65882353
v -0.10178886 -0.02199111 -15.55092049 0.25098039 0.27450980 0.65882353
v -0.08045577 -0.02027525 -15.52853394 0.25098039 0.27450980 0.65882353
v -0.07399265 -0.02864461 -15.53093147 0.25098039 0.27450980 0.65882353
v -0.12499678 -0.02239087 -15.54049397 0.25098039 0.27450980 0.65882353
v -0.10781021 0.06518836 -15.54667854 0.25098039 0.27450980 0.65882353
v -0.03613852 -0.04514663 -15.55470467 0.25098039 0.27450980 0.65882353
v -0.03341481 -0.05303489 -15.55620480 0.25098039 0.27450980 0.65882353
v -0.02254446 -0.05322080 -15.54878044 0.25098039 0.27450980 0.65882353
v -0.01829599 -0.04979224 -15.55128479 0.25098039 0.27450980 0.65882353
v -0.14259055 0.02211369 -15.55564690 0.25098039 0.27450980 0.65882353
v -0.11024472 0.01460966 -15.56924248 0.25098039 0.27450980 0.65882353
v -0.06782559 0.02648866 -15.60417843 0.25098039 0.27450980 0.65882353
v -0.06552295 0.01552607 -15.61218357 0.25098039 0.27450980 0.65882353
v -0.07232672 -0.02730247 -15.54926109 0.25098039 0.27450980 0.65882353
v -0.10784406 -0.02160987 -15.52968025 0.25098039 0.27450980 0.65882353
v -0.09223375 -0.01864375 -15.52446175 0.25098039 0.27450980 0.65882353
v -0.08962224 -0.02604406 -15.52215576 0.25098039 0.27450980 0.65882353
v -0.08227745 -0.02733668 -15.52401257 0.25098039 0.27450980 0.65882353
v -0.07750498 -0.03057350 -15.52905846 0.25098039 0.27450980 0.65882353
v -0.02159840 -0.05824392 -15.55167103 0.25098039 0.27450980 0.65882353
v -0.01733592 -0.05469940 -15.55394554 0.25098039 0.27450980 0.65882353
v -0.01580092 -0.05246143 -15.55932808 0.25098039 0.27450980 0.65882353
v -0.01782748 -0.05035602 -15.56293392 0.25098039 0.27450980 0.65882353
v -0.02186163 -0.04938869 -15.56440830 0.25098039 0.27450980 0.65882353
v -0.02547158 -0.06029135 -15.55251503 0.25098039 0.27450980 0.65882353
v -0.02889244 -0.06012286 -15.55461693 0.25098039 0.27450980 0.65882353
v -0.03225556 -0.05608231 -15.55753040 0.25098039 0.27450980 0.65882353
v -0.02633440 -0.06359847 -15.55643559 0.25098039 0.27450980 0.65882353
v -0.02128051 -0.06485566 -15.55768585 0.25098039 0.27450980 0.65882353
v -0.01738523 -0.06113419 -15.57061768 0.25098039 0.27450980 0.65882353
v -0.01593535 -0.05890357 -15.56516075 0.25098039 0.27450980 0.65882353
v -0.01631844 -0.06159526 -15.56569958 0.25098039 0.27450980 0.65882353
v -0.01756600 -0.06419300 -15.56989765 0.25098039 0.27450980 0.65882353
v -0.01856509 -0.06818298 -15.57318115 0.25098039 0.27450980 0.65882353
v -0.01839110 -0.06510440 -15.57481289 0.25098039 0.27450980 0.65882353
v -0.01753142 -0.06249683 -15.56124020 0.25098039 0.27450980 0.65882353
v -0.01908788 -0.06677338 -15.56640148 0.25098039 0.27450980 0.65882353
v -0.02197464 -0.06869841 -15.56416702 0.25098039 0.27450980 0.65882353
v -0.02236174 -0.07244402 -15.56849766 0.25098039 0.27450980 0.65882353
v -0.01969799 -0.07094748 -15.57047939 0.25098039 0.27450980 0.65882353
v -0.02056628 -0.06579994 -15.56072998 0.25098039 0.27450980 0.65882353
v -0.01675592 -0.06103351 -15.55906868 0.25098039 0.27450980 0.65882353
v -0.01986142 -0.06929249 -15.57647705 0.25098039 0.27450980 0.65882353
v -0.01909275 -0.07084958 -15.57472515 0.25098039 0.27450980 0.65882353
v -0.02055573 -0.07289314 -15.57296276 0.25098039 0.27450980 0.65882353
v -0.02215783 -0.07361467 -15.57550430 0.25098039 0.27450980 0.65882353
v -0.01812313 -0.05368028 -15.56607437 0.25098039 0.27450980 0.65882353
v -0.01877221 -0.05944285 -15.57205009 0.25098039 0.27450980 0.65882353
v -0.02106607 -0.06383561 -15.57563877 0.25098039 0.27450980 0.65882353
v -0.02232979 -0.06809856 -15.57714081 0.25098039 0.27450980 0.65882353
v -0.02273946 -0.05944264 -15.57305431 0.25098039 0.27450980 0.65882353
v -0.02394930 -0.06340341 -15.57543373 0.25098039 0.27450980 0.65882353
v -0.02534997 -0.06708480 -15.57634449 0.25098039 0.27450980 0.65882353
v -0.02681059 -0.06038831 -15.57269573 0.25098039 0.27450980 0.65882353
v -0.02694198 -0.06399515 -15.57460785 0.25098039 0.27450980 0.65882353
v -0.02579021 -0.05218961 -15.56546211 0.25098039 0.27450980 0.65882353
v -0.02180006 -0.05094579 -15.56598091 0.25098039 0.27450980 0.65882353
v -0.02732484 -0.06625889 -15.57582760 0.25098039 0.27450980 0.65882353
v -0.02428447 -0.07298388 -15.57597160 0.25098039 0.27450980 0.65882353
v -0.02489427 -0.06816006 -15.56200886 0.25098039 0.27450980 0.65882353
v -0.02551495 -0.07193895 -15.56819916 0.25098039 0.27450980 0.65882353
v -0.02728666 -0.06767263 -15.56215858 0.25098039 0.27450980 0.65882353
v -0.02789055 -0.07173002 -15.56797218 0.25098039 0.27450980 0.65882353
v -0.02491373 -0.07486710 -15.57180309 0.25098039 0.27450980 0.65882353
v -0.02263772 -0.07385179 -15.57124901 0.25098039 0.27450980 0.65882353
v -0.02697314 -0.05009161 -15.56352806 0.25098039 0.27450980 0.65882353
v -0.03122465 -0.05297156 -15.56054020 0.25098039 0.27450980 0.65882353
v -0.03043266 -0.05491587 -15.56229591 0.25098039 0.27450980 0.65882353
v -0.03045936 -0.06228101 -15.57028866 0.25098039 0.27450980 0.65882353
v -0.03181581 -0.05819291 -15.56005096 0.25098039 0.27450980 0.65882353
v -0.02959417 -0.06285451 -15.55853176 0.25098039 0.27450980 0.65882353
v -0.02968174 -0.06722407 -15.56399727 0.25098039 0.27450980 0.65882353
v -0.03126734 -0.06542319 -15.56639671 0.25098039 0.27450980 0.65882353
v -0.02971305 -0.07023205 -15.56863403 0.25098039 0.27450980 0.65882353
v -0.03024666 -0.06825364 -15.57004261 0.25098039 0.27450980 0.65882353
v -0.02960050 -0.06578100 -15.57288837 0.25098039 0.27450980 0.65882353
v -0.02873367 -0.07162683 -15.57246971 0.25098039 0.27450980 0.65882353
v -0.02683643 -0.07383217 -15.57213211 0.25098039 0.27450980 0.65882353
v -0.02677898 -0.07062639 -15.57546425 0.25098039 0.27450980 0.65882353
v -0.02964023 -0.06986269 -15.57238102 0.25098039 0.27450980 0.65882353
v -0.02803613 -0.06843483 -15.57445526 0.25098039 0.27450980 0.65882353
v -0.04946408 -0.05664469 -15.54344559 0.25098039 0.27450980 0.65882353
v -0.05465733 -0.05928698 -15.54081249 0.25098039 0.27450980 0.65882353
v -0.05544047 -0.05423244 -15.53986645 0.25098039 0.27450980 0.65882353
v -0.05099751 -0.05246306 -15.54230213 0.25098039 0.27450980 0.65882353
v -0.04047008 -0.05447420 -15.53361607 0.25098039 0.27450980 0.65882353
v -0.04205346 -0.05464324 -15.53923321 0.25098039 0.27450980 0.65882353
v -0.04281546 -0.04973223 -15.53762341 0.25098039 0.27450980 0.65882353
v -0.04232538 -0.04945618 -15.53114414 0.25098039 0.27450980 0.65882353
v -0.04370478 -0.05587110 -15.52781677 0.25098039 0.27450980 0.65882353
v -0.04587711 -0.05059081 -15.52547455 0.25098039 0.27450980 0.65882353
v -0.04398559 -0.04427212 -15.53077030 0.25098039 0.27450980 0.65882353
v -0.04507320 -0.04461590 -15.53775406 0.25098039 0.27450980 0.65882353
v -0.05560361 -0.02677252 -15.54136467 0.25098039 0.27450980 0.65882353
v -0.05476546 -0.02564042 -15.53433418 0.25098039 0.27450980 0.65882353
v -0.07153058 -0.03462933 -15.54146576 0.25098039 0.27450980 0.65882353
v -0.07111822 -0.03535407 -15.53754139 0.25098039 0.27450980 0.65882353
v -0.04575613 -0.05550936 -15.54258537 0.25098039 0.27450980 0.65882353
v -0.04669087 -0.05103957 -15.54109287 0.25098039 0.27450980 0.65882353
v -0.06240039 -0.05285553 -15.53364182 0.25098039 0.27450980 0.65882353
v -0.06125921 -0.05223764 -15.53887272 0.25098039 0.27450980 0.65882353
v -0.05887195 -0.05641464 -15.53736019 0.25098039 0.27450980 0.65882353
v -0.05928682 -0.05721461 -15.53185368 0.25098039 0.27450980 0.65882353
v -0.06220779 -0.02929002 -15.54663944 0.25098039 0.27450980 0.65882353
v -0.06784794 -0.03148111 -15.54466915 0.25098039 0.27450980 0.65882353
v -0.05855983 -0.02848091 -15.54510021 0.25098039 0.27450980 0.65882353
v -0.06055371 -0.05197253 -15.52738762 0.25098039 0.27450980 0.65882353
v -0.05555941 -0.04930034 -15.52338696 0.25098039 0.27450980 0.65882353
v -0.06493133 -0.03138281 -15.52583122 0.25098039 0.27450980 0.65882353
v -0.06909472 -0.03485357 -15.52931309 0.25098039 0.27450980 0.65882353
v -0.04817656 -0.04631097 -15.54207993 0.25098039 0.27450980 0.65882353
v -0.05747662 -0.05064402 -15.54245090 0.25098039 0.27450980 0.65882353
v -0.05294257 -0.04859723 -15.54406071 0.25098039 0.27450980 0.65882353
v -0.04879165 -0.04566457 -15.52540684 0.25098039 0.27450980 0.65882353
v -0.05215855 -0.05488997 -15.52386189 0.25098039 0.27450980 0.65882353
v -0.05024774 -0.07354966 -15.53143787 0.25098039 0.27450980 0.65882353
v -0.05476522 -0.06230859 -15.52791977 0.25098039 0.27450980 0.65882353
v -0.05718850 -0.06262335 -15.53241158 0.25098039 0.27450980 0.65882353
v -0.05341537 -0.07451931 -15.53511810 0.25098039 0.27450980 0.65882353
v -0.05710930 -0.05705344 -15.52674770 0.25098039 0.27450980 0.65882353
v -0.04972561 -0.05972572 -15.52589703 0.25098039 0.27450980 0.65882353
v -0.04723752 -0.07115451 -15.54711056 0.25098039 0.27450980 0.65882353
v -0.05238202 -0.07361165 -15.54423428 0.25098039 0.27450980 0.65882353
v -0.04282416 -0.06983212 -15.54688168 0.25098039 0.27450980 0.65882353
v -0.05879816 -0.02715034 -15.52768040 0.25098039 0.27450980 0.65882353
v -0.03735486 -0.06725110 -15.53836060 0.25098039 0.27450980 0.65882353
v -0.03955451 -0.06825474 -15.54450035 0.25098039 0.27450980 0.65882353
v -0.05767477 -0.06143453 -15.53728771 0.25098039 0.27450980 0.65882353
v -0.05434020 -0.07492056 -15.53981876 0.25098039 0.27450980 0.65882353
v -0.04610811 -0.07181768 -15.53019905 0.25098039 0.27450980 0.65882353
v -0.04032540 -0.06775790 -15.53220654 0.25098039 0.27450980 0.65882353
v -0.04454365 -0.07724315 -15.53259468 0.25098039 0.27450980 0.65882353
v -0.03918400 -0.07428688 -15.53482437 0.25098039 0.27450980 0.65882353
v -0.03650132 -0.07326457 -15.54084778 0.25098039 0.27450980 0.65882353
v -0.03919762 -0.07302275 -15.54603195 0.25098039 0.27450980 0.65882353
v -0.04258218 -0.07327598 -15.54795265 0.25098039 0.27450980 0.65882353
v -0.04846276 -0.07885146 -15.53375912 0.25098039 0.27450980 0.65882353
v -0.05178583 -0.07944845 -15.53697872 0.25098039 0.27450980 0.65882353
v -0.05321653 -0.07743192 -15.54119587 0.25098039 0.27450980 0.65882353
v -0.04889320 -0.08494553 -15.53799152 0.25098039 0.27450980 0.65882353
v -0.04443245 -0.08526754 -15.53720474 0.25098039 0.27450980 0.65882353
v -0.03853033 -0.09056488 -15.55381489 0.25098039 0.27450980 0.65882353
v -0.03772613 -0.08567938 -15.55025291 0.25098039 0.27450980 0.65882353
v -0.03780429 -0.08744904 -15.54826832 0.25098039 0.27450980 0.65882353
v -0.03859535 -0.09197724 -15.55134964 0.25098039 0.27450980 0.65882353
v -0.03629877 -0.08199605 -15.54522419 0.25098039 0.27450980 0.65882353
v -0.03714019 -0.08442749 -15.54472065 0.25098039 0.27450980 0.65882353
v -0.03946650 -0.08499812 -15.54074860 0.25098039 0.27450980 0.65882353
v -0.04037805 -0.08971763 -15.54475880 0.25098039 0.27450980 0.65882353
v -0.04428655 -0.09037904 -15.54211521 0.25098039 0.27450980 0.65882353
v -0.04434396 -0.09550065 -15.54492378 0.25098039 0.27450980 0.65882353
v -0.04039767 -0.09489332 -15.54759884 0.25098039 0.27450980 0.65882353
v -0.04262255 -0.08709452 -15.53968525 0.25098039 0.27450980 0.65882353
v -0.03940764 -0.09535977 -15.55261517 0.25098039 0.27450980 0.65882353
v -0.04040869 -0.09587768 -15.55496788 0.25098039 0.27450980 0.65882353
v -0.03854409 -0.08253396 -15.53874302 0.25098039 0.27450980 0.65882353
v -0.03841664 -0.07690269 -15.54764652 0.25098039 0.27450980 0.65882353
v -0.03930494 -0.08450292 -15.55261517 0.25098039 0.27450980 0.65882353
v -0.04085711 -0.09013468 -15.55603123 0.25098039 0.27450980 0.65882353
v -0.04326591 -0.09591466 -15.55609512 0.25098039 0.27450980 0.65882353
v -0.04316804 -0.08446597 -15.55433083 0.25098039 0.27450980 0.65882353
v -0.04404861 -0.09006667 -15.55674648 0.25098039 0.27450980 0.65882353
v -0.04579926 -0.09481198 -15.55602932 0.25098039 0.27450980 0.65882353
v -0.04788029 -0.08493388 -15.55455589 0.25098039 0.27450980 0.65882353
v -0.04820150 -0.09057039 -15.55615520 0.25098039 0.27450980 0.65882353
v -0.04717883 -0.07568797 -15.54901123 0.25098039 0.27450980 0.65882353
v -0.04251070 -0.07543312 -15.54960346 0.25098039 0.27450980 0.65882353
v -0.04772028 -0.09331232 -15.55580997 0.25098039 0.27450980 0.65882353
v -0.04220064 -0.09940109 -15.55195808 0.25098039 0.27450980 0.65882353
v -0.04515944 -0.09887932 -15.55372238 0.25098039 0.27450980 0.65882353
v -0.04134640 -0.09806550 -15.55058384 0.25098039 0.27450980 0.65882353
v -0.04636192 -0.09041615 -15.54163170 0.25098039 0.27450980 0.65882353
v -0.04659036 -0.09559797 -15.54563332 0.25098039 0.27450980 0.65882353
v -0.04914632 -0.09042960 -15.54236984 0.25098039 0.27450980 0.65882353
v -0.04878156 -0.09582549 -15.54690266 0.25098039 0.27450980 0.65882353
v -0.04563960 -0.09912220 -15.54876041 0.25098039 0.27450980 0.65882353
v -0.04398786 -0.09875536 -15.54830933 0.25098039 0.27450980 0.65882353
v -0.04687421 -0.07389650 -15.54731083 0.25098039 0.27450980 0.65882353
v -0.05152524 -0.07566653 -15.54456425 0.25098039 0.27450980 0.65882353
v -0.05172312 -0.07716957 -15.54605865 0.25098039 0.27450980 0.65882353
v -0.05175608 -0.08653294 -15.55135059 0.25098039 0.27450980 0.65882353
v -0.05338708 -0.07953432 -15.54236984 0.25098039 0.27450980 0.65882353
v -0.05173314 -0.08353555 -15.53970623 0.25098039 0.27450980 0.65882353
v -0.05151036 -0.08954021 -15.54366016 0.25098039 0.27450980 0.65882353
v -0.05290535 -0.08844304 -15.54722118 0.25098039 0.27450980 0.65882353
v -0.05099927 -0.09551315 -15.54737091 0.25098039 0.27450980 0.65882353
v -0.05215907 -0.09300797 -15.54903221 0.25098039 0.27450980 0.65882353
v -0.05122775 -0.09133379 -15.55350018 0.25098039 0.27450980 0.65882353
v -0.04947419 -0.09859048 -15.55059242 0.25098039 0.27450980 0.65882353
v -0.04729623 -0.09930253 -15.54964447 0.25098039 0.27450980 0.65882353
v -0.04700883 -0.09752849 -15.55414677 0.25098039 0.27450980 0.65882353
v -0.05093588 -0.09602144 -15.55123806 0.25098039 0.27450980 0.65882353
v -0.04919092 -0.09504883 -15.55428314 0.25098039 0.27450980 0.65882353
v -0.07334761 -0.05745352 -15.53188133 0.25098039 0.27450980 0.65882353
v -0.07889986 -0.05841854 -15.53362656 0.25098039 0.27450980 0.65882353
v -0.07983725 -0.05482513 -15.53333473 0.25098039 0.27450980 0.65882353
v -0.07442430 -0.05383451 -15.53150940 0.25098039 0.27450980 0.65882353
v -0.07335240 -0.05798215 -15.51933575 0.25098039 0.27450980 0.65882353
v -0.07053117 -0.05788417 -15.52334690 0.25098039 0.27450980 0.65882353
v -0.07156140 -0.05323579 -15.52273655 0.25098039 0.27450980 0.65882353
v -0.07459290 -0.05200874 -15.51828671 0.25098039 0.27450980 0.65882353
v -0.07809445 -0.06050974 -15.51789093 0.25098039 0.27450980 0.65882353
v -0.08022487 -0.05275473 -15.51593590 0.25098039 0.27450980 0.65882353
v -0.07559076 -0.04618752 -15.51794434 0.25098039 0.27450980 0.65882353
v -0.07247433 -0.04859132 -15.52280521 0.25098039 0.27450980 0.65882353
v -0.07667550 -0.03446260 -15.52731037 0.25098039 0.27450980 0.65882353
v -0.07996818 -0.03303573 -15.52140903 0.25098039 0.27450980 0.65882353
v -0.07092117 -0.05757746 -15.52797699 0.25098039 0.27450980 0.65882353
v -0.07181937 -0.05376017 -15.52766609 0.25098039 0.27450980 0.65882353
v -0.08915353 -0.05358515 -15.53121758 0.25098039 0.27450980 0.65882353
v -0.08548248 -0.05304231 -15.53425694 0.25098039 0.27450980 0.65882353
v -0.08491947 -0.05632168 -15.53242207 0.25098039 0.27450980 0.65882353
v -0.08787216 -0.05709800 -15.52947712 0.25098039 0.27450980 0.65882353
v -0.08070579 -0.03515949 -15.53786087 0.25098039 0.27450980 0.65882353
v -0.08675136 -0.03509396 -15.53845787 0.25098039 0.27450980 0.65882353
v -0.07711506 -0.03597936 -15.53354168 0.25098039 0.27450980 0.65882353
v -0.09047487 -0.05299050 -15.52486897 0.25098039 0.27450980 0.65882353
v -0.08833824 -0.04989462 -15.51844120 0.25098039 0.27450980 0.65882353
v -0.09372827 -0.03640043 -15.52286243 0.25098039 0.27450980 0.65882353
v -0.09524482 -0.03767713 -15.52897930 0.25098039 0.27450980 0.65882353
v -0.07245359 -0.05009177 -15.52798176 0.25098039 0.27450980 0.65882353
v -0.08047380 -0.05151669 -15.53504086 0.25098039 0.27450980 0.65882353
v -0.07505536 -0.05093926 -15.53287792 0.25098039 0.27450980 0.65882353
v -0.08173285 -0.04677327 -15.51653957 0.25098039 0.27450980 0.65882353
v -0.08597864 -0.05577984 -15.51868916 0.25098039 0.27450980 0.65882353
v -0.08267555 -0.07760619 -15.52596283 0.25098039 0.27450980 0.65882353
v -0.08757830 -0.06173553 -15.52402496 0.25098039 0.27450980 0.65882353
v -0.08679160 -0.06110452 -15.52967453 0.25098039 0.27450980 0.65882353
v -0.08346717 -0.07694495 -15.53025341 0.25098039 0.27450980 0.65882353
v -0.08885516 -0.05772244 -15.52417469 0.25098039 0.27450980 0.65882353
v -0.08429503 -0.06125027 -15.51939678 0.25098039 0.27450980 0.65882353
v -0.07087797 -0.07255359 -15.53534317 0.25098039 0.27450980 0.65882353
v -0.07648000 -0.07310599 -15.53616333 0.25098039 0.27450980 0.65882353
v -0.06837237 -0.07172804 -15.53176498 0.25098039 0.27450980 0.65882353
v -0.08683959 -0.03341496 -15.51895142 0.25098039 0.27450980 0.65882353
v -0.09301835 -0.03698957 -15.53547096 0.25098039 0.27450980 0.65882353
v -0.06843337 -0.07370216 -15.52444363 0.25098039 0.27450980 0.65882353
v -0.06737359 -0.07241671 -15.52853584 0.25098039 0.27450980 0.65882353
v -0.08398986 -0.05969721 -15.53259659 0.25098039 0.27450980 0.65882353
v -0.08150685 -0.07521471 -15.53413296 0.25098039 0.27450980 0.65882353
v -0.07949755 -0.07654659 -15.52238274 0.25098039 0.27450980 0.65882353
v -0.07360454 -0.07434912 -15.52115345 0.25098039 0.27450980 0.65882353
v -0.07870109 -0.08245273 -15.52498722 0.25098039 0.27450980 0.65882353
v -0.07267667 -0.08084066 -15.52403736 0.25098039 0.27450980 0.65882353
v -0.06773712 -0.07991810 -15.52723026 0.25098039 0.27450980 0.65882353
v -0.06693840 -0.07771081 -15.53107548 0.25098039 0.27450980 0.65882353
v -0.06796123 -0.07635102 -15.53398895 0.25098039 0.27450980 0.65882353
v -0.08184062 -0.08235210 -15.52891254 0.25098039 0.27450980 0.65882353
v -0.08229652 -0.08083391 -15.53256702 0.25098039 0.27450980 0.65882353
v -0.08050606 -0.07693031 -15.53461266 0.25098039 0.27450980 0.65882353
v -0.08187450 -0.08525568 -15.53250504 0.25098039 0.27450980 0.65882353
v -0.07788032 -0.08818516 -15.52982903 0.25098039 0.27450980 0.65882353
v -0.06780882 -0.09393783 -15.54231262 0.25098039 0.27450980 0.65882353
v -0.06772102 -0.08963606 -15.53812981 0.25098039 0.27450980 0.65882353
v -0.06844570 -0.09050913 -15.53750515 0.25098039 0.27450980 0.65882353
v -0.06846136 -0.09515573 -15.54111385 0.25098039 0.27450980 0.65882353
v -0.06805900 -0.08644569 -15.53192711 0.25098039 0.27450980 0.65882353
v -0.06892844 -0.08814076 -15.53287983 0.25098039 0.27450980 0.65882353
v -0.07222782 -0.08871663 -15.53073406 0.25098039 0.27450980 0.65882353
v -0.07240175 -0.09335203 -15.53548336 0.25098039 0.27450980 0.65882353
v -0.07817736 -0.09183697 -15.53614140 0.25098039 0.27450980 0.65882353
v -0.07721762 -0.09524560 -15.53990364 0.25098039 0.27450980 0.65882353
v -0.07220516 -0.09719877 -15.53934574 0.25098039 0.27450980 0.65882353
v -0.07664645 -0.08922127 -15.53139591 0.25098039 0.27450980 0.65882353
v -0.06945087 -0.09762536 -15.54298592 0.25098039 0.27450980 0.65882353
v -0.06778568 -0.09790124 -15.54448509 0.25098039 0.27450980 0.65882353
v -0.07214028 -0.08722349 -15.52846146 0.25098039 0.27450980 0.65882353
v -0.06606264 -0.08256017 -15.53430271 0.25098039 0.27450980 0.65882353
v -0.06649619 -0.08780575 -15.54009819 0.25098039 0.27450980 0.65882353
v -0.06627558 -0.09196480 -15.54473019 0.25098039 0.27450980 0.65882353
v -0.06827992 -0.09531251 -15.54724789 0.25098039 0.27450980 0.65882353
v -0.06800191 -0.08549957 -15.54263401 0.25098039 0.27450980 0.65882353
v -0.06808951 -0.08978519 -15.54623222 0.25098039 0.27450980 0.65882353
v -0.06978124 -0.09274867 -15.54854870 0.25098039 0.27450980 0.65882353
v -0.07053976 -0.08413865 -15.54417229 0.25098039 0.27450980 0.65882353
v -0.07079740 -0.08812168 -15.54719734 0.25098039 0.27450980 0.65882353
v -0.07067522 -0.07712343 -15.53748131 0.25098039 0.27450980 0.65882353
v -0.06759813 -0.07936724 -15.53621101 0.25098039 0.27450980 0.65882353
v -0.07140110 -0.09101205 -15.54858398 0.25098039 0.27450980 0.65882353
v -0.07220310 -0.09989896 -15.54441738 0.25098039 0.27450980 0.65882353
v -0.07353434 -0.09744674 -15.54785156 0.25098039 0.27450980 0.65882353
v -0.07224521 -0.09860842 -15.54269123 0.25098039 0.27450980 0.65882353
v -0.07985243 -0.09080715 -15.53620625 0.25098039 0.27450980 0.65882353
v -0.07920736 -0.09513831 -15.54133606 0.25098039 0.27450980 0.65882353
v -0.08139735 -0.08902867 -15.53796291 0.25098039 0.27450980 0.65882353
v -0.08072132 -0.09343983 -15.54290104 0.25098039 0.27450980 0.65882353
v -0.07711111 -0.09829041 -15.54355621 0.25098039 0.27450980 0.65882353
v -0.07620524 -0.09797022 -15.54257107 0.25098039 0.27450980 0.65882353
v -0.07123065 -0.07505193 -15.53575611 0.25098039 0.27450980 0.65882353
v -0.07627873 -0.07520391 -15.53630066 0.25098039 0.27450980 0.65882353
v -0.07544686 -0.07670282 -15.53792000 0.25098039 0.27450980 0.65882353
v -0.07510121 -0.08392477 -15.54519844 0.25098039 0.27450980 0.65882353
v -0.07973678 -0.07815421 -15.53664970 0.25098039 0.27450980 0.65882353
v -0.08191878 -0.08338186 -15.53588200 0.25098039 0.27450980 0.65882353
v -0.08110338 -0.08703606 -15.54062653 0.25098039 0.27450980 0.65882353
v -0.07913364 -0.08545692 -15.54355431 0.25098039 0.27450980 0.65882353
v -0.08050145 -0.09127483 -15.54467297 0.25098039 0.27450980 0.65882353
v -0.07881953 -0.08910303 -15.54558754 0.25098039 0.27450980 0.65882353
v -0.07482210 -0.08768617 -15.54806805 0.25098039 0.27450980 0.65882353
v -0.07797079 -0.09393036 -15.54681110 0.25098039 0.27450980 0.65882353
v -0.07826290 -0.09663765 -15.54555702 0.25098039 0.27450980 0.65882353
v -0.07396422 -0.09433100 -15.54901028 0.25098039 0.27450980 0.65882353
v -0.07738350 -0.09156115 -15.54754639 0.25098039 0.27450980 0.65882353
v -0.07432805 -0.09169753 -15.54915428 0.25098039 0.27450980 0.65882353
v -0.09084853 -0.03585780 -15.53804588 0.25098039 0.27450980 0.65882353
v -0.10984799 -0.05585795 -15.54280949 0.25098039 0.27450980 0.65882353
v -0.11337739 -0.05522613 -15.54463196 0.25098039 0.27450980 0.65882353
v -0.11404008 -0.05192776 -15.54322529 0.25098039 0.27450980 0.65882353
v -0.11021479 -0.05163337 -15.54203701 0.25098039 0.27450980 0.65882353
v -0.11081935 -0.05770208 -15.53210545 0.25098039 0.27450980 0.65882353
v -0.10837778 -0.05761011 -15.53579235 0.25098039 0.27450980 0.65882353
v -0.10802608 -0.05306027 -15.53403950 0.25098039 0.27450980 0.65882353
v -0.11040270 -0.05304842 -15.53041458 0.25098039 0.27450980 0.65882353
v -0.11550025 -0.05776926 -15.53089046 0.25098039 0.27450980 0.65882353
v -0.11544628 -0.05319261 -15.52945614 0.25098039 0.27450980 0.65882353
v -0.10994260 -0.04949588 -15.52934742 0.25098039 0.27450980 0.65882353
v -0.10741033 -0.04937195 -15.53335476 0.25098039 0.27450980 0.65882353
v -0.10554793 -0.03337521 -15.53347588 0.25098039 0.27450980 0.65882353
v -0.10885476 -0.03128620 -15.52939606 0.25098039 0.27450980 0.65882353
v -0.12356558 -0.02834145 -15.54077339 0.25098039 0.27450980 0.65882353
v -0.11947158 -0.02718862 -15.54586029 0.25098039 0.27450980 0.65882353
v -0.11950051 -0.03598383 -15.54343796 0.25098039 0.27450980 0.65882353
v -0.12278346 -0.03506078 -15.53935909 0.25098039 0.27450980 0.65882353
v -0.10830246 -0.05683063 -15.53957748 0.25098039 0.27450980 0.65882353
v -0.10783940 -0.05245801 -15.53892231 0.25098039 0.27450980 0.65882353
v -0.12253775 -0.04797930 -15.53960991 0.25098039 0.27450980 0.65882353
v -0.11899950 -0.04834413 -15.54260063 0.25098039 0.27450980 0.65882353
v -0.11799837 -0.05149337 -15.54345798 0.25098039 0.27450980 0.65882353
v -0.12192030 -0.05206088 -15.54129791 0.25098039 0.27450980 0.65882353
v -0.11392836 -0.02865996 -15.54709911 0.25098039 0.27450980 0.65882353
v -0.10903663 -0.02971495 -15.54570580 0.25098039 0.27450980 0.65882353
v -0.10917685 -0.03419923 -15.54536819 0.25098039 0.27450980 0.65882353
v -0.11472340 -0.03684096 -15.54504299 0.25098039 0.27450980 0.65882353
v -0.10550985 -0.03488722 -15.54121017 0.25098039 0.27450980 0.65882353
v -0.12342134 -0.04838263 -15.53576660 0.25098039 0.27450980 0.65882353
v -0.12117554 -0.04904521 -15.53057957 0.25098039 0.27450980 0.65882353
v -0.12269743 -0.03224036 -15.52981567 0.25098039 0.27450980 0.65882353
v -0.12383635 -0.03276153 -15.53440952 0.25098039 0.27450980 0.65882353
v -0.10721401 -0.04975652 -15.53784370 0.25098039 0.27450980 0.65882353
v -0.11471897 -0.04901419 -15.54310322 0.25098039 0.27450980 0.65882353
v -0.11040063 -0.04948195 -15.54178524 0.25098039 0.27450980 0.65882353
v -0.11544492 -0.04939675 -15.52790356 0.25098039 0.27450980 0.65882353
v -0.12088380 -0.05333991 -15.53209400 0.25098039 0.27450980 0.65882353
v -0.12286185 -0.06537783 -15.54191971 0.25098039 0.27450980 0.65882353
v -0.12321487 -0.05625949 -15.53852367 0.25098039 0.27450980 0.65882353
v -0.12149592 -0.05558256 -15.54296303 0.25098039 0.27450980 0.65882353
v -0.12194148 -0.06464662 -15.54464149 0.25098039 0.27450980 0.65882353
v -0.12308267 -0.05257276 -15.53706360 0.25098039 0.27450980 0.65882353
v -0.12098234 -0.05765303 -15.53364849 0.25098039 0.27450980 0.65882353
v -0.11006472 -0.06443222 -15.54592705 0.25098039 0.27450980 0.65882353
v -0.11484432 -0.06334475 -15.54747963 0.25098039 0.27450980 0.65882353
v -0.10854226 -0.06528080 -15.54324913 0.25098039 0.27450980 0.65882353
v -0.11545072 -0.03137450 -15.52693558 0.25098039 0.27450980 0.65882353
v -0.11095571 -0.06730433 -15.53652000 0.25098039 0.27450980 0.65882353
v -0.10850646 -0.06683984 -15.54006672 0.25098039 0.27450980 0.65882353
v -0.11738220 -0.05519089 -15.54479790 0.25098039 0.27450980 0.65882353
v -0.11913818 -0.06358622 -15.54674625 0.25098039 0.27450980 0.65882353
v -0.12130198 -0.06649776 -15.53810883 0.25098039 0.27450980 0.65882353
v -0.11619134 -0.06703059 -15.53492451 0.25098039 0.27450980 0.65882353
v -0.12072355 -0.07093564 -15.54045486 0.25098039 0.27450980 0.65882353
v -0.11543354 -0.07118349 -15.53732109 0.25098039 0.27450980 0.65882353
v -0.11002370 -0.07116711 -15.53954697 0.25098039 0.27450980 0.65882353
v -0.10844070 -0.06928064 -15.54232693 0.25098039 0.27450980 0.65882353
v -0.10843863 -0.06774642 -15.54510403 0.25098039 0.27450980 0.65882353
v -0.12239958 -0.06929195 -15.54411507 0.25098039 0.27450980 0.65882353
v -0.12154158 -0.06788161 -15.54665756 0.25098039 0.27450980 0.65882353
v -0.11897124 -0.06589241 -15.54844570 0.25098039 0.27450980 0.65882353
v -0.12181077 -0.07304588 -15.54663277 0.25098039 0.27450980 0.65882353
v -0.11951788 -0.07628515 -15.54403400 0.25098039 0.27450980 0.65882353
v -0.10943498 -0.08155604 -15.55149651 0.25098039 0.27450980 0.65882353
v -0.10924479 -0.07844102 -15.54866314 0.25098039 0.27450980 0.65882353
v -0.11001040 -0.07911423 -15.54792881 0.25098039 0.27450980 0.65882353
v -0.10957244 -0.08233507 -15.55060768 0.25098039 0.27450980 0.65882353
v -0.10997172 -0.07562353 -15.54395676 0.25098039 0.27450980 0.65882353
v -0.11099333 -0.07692410 -15.54441547 0.25098039 0.27450980 0.65882353
v -0.11419075 -0.07650539 -15.54292297 0.25098039 0.27450980 0.65882353
v -0.11373684 -0.08055763 -15.54646206 0.25098039 0.27450980 0.65882353
v -0.11877106 -0.08022694 -15.54833317 0.25098039 0.27450980 0.65882353
v -0.11782857 -0.08348760 -15.55094528 0.25098039 0.27450980 0.65882353
v -0.11352680 -0.08363254 -15.54883671 0.25098039 0.27450980 0.65882353
v -0.11801098 -0.07773151 -15.54443264 0.25098039 0.27450980 0.65882353
v -0.11019904 -0.08484307 -15.55174923 0.25098039 0.27450980 0.65882353
v -0.10961921 -0.08536030 -15.55303478 0.25098039 0.27450980 0.65882353
v -0.11435036 -0.07544953 -15.54121113 0.25098039 0.27450980 0.65882353
v -0.10806153 -0.07245414 -15.54584217 0.25098039 0.27450980 0.65882353
v -0.10814957 -0.07757467 -15.55075645 0.25098039 0.27450980 0.65882353
v -0.10867015 -0.08173837 -15.55379391 0.25098039 0.27450980 0.65882353
v -0.11028618 -0.08493793 -15.55531311 0.25098039 0.27450980 0.65882353
v -0.10859030 -0.07532075 -15.55224323 0.25098039 0.27450980 0.65882353
v -0.10895100 -0.08029212 -15.55581188 0.25098039 0.27450980 0.65882353
v -0.11080547 -0.08317715 -15.55725956 0.25098039 0.27450980 0.65882353
v -0.11045179 -0.07316934 -15.55420208 0.25098039 0.27450980 0.65882353
v -0.11076411 -0.07838750 -15.55689240 0.25098039 0.27450980 0.65882353
v -0.11080696 -0.06773952 -15.54982376 0.25098039 0.27450980 0.65882353
v -0.10873226 -0.06996663 -15.54799366 0.25098039 0.27450980 0.65882353
v -0.11169134 -0.08140755 -15.55748749 0.25098039 0.27450980 0.65882353
v -0.11311678 -0.08696182 -15.55285358 0.25098039 0.27450980 0.65882353
v -0.11343797 -0.08594796 -15.55578232 0.25098039 0.27450980 0.65882353
v -0.11339892 -0.08637705 -15.55146408 0.25098039 0.27450980 0.65882353
v -0.11996652 -0.07957929 -15.54898167 0.25098039 0.27450980 0.65882353
v -0.11892503 -0.08345366 -15.55231953 0.25098039 0.27450980 0.65882353
v -0.12101407 -0.07796596 -15.55074787 0.25098039 0.27450980 0.65882353
v -0.11923426 -0.08234382 -15.55427551 0.25098039 0.27450980 0.65882353
v -0.11676473 -0.08612575 -15.55360889 0.25098039 0.27450980 0.65882353
v -0.11606492 -0.08564498 -15.55175686 0.25098039 0.27450980 0.65882353
v -0.11062150 -0.06628358 -15.54815769 0.25098039 0.27450980 0.65882353
v -0.11468384 -0.06528817 -15.54875851 0.25098039 0.27450980 0.65882353
v -0.11492872 -0.06700961 -15.55052090 0.25098039 0.27450980 0.65882353
v -0.11416432 -0.07229277 -15.55506325 0.25098039 0.27450980 0.65882353
v -0.11907478 -0.06794603 -15.55009460 0.25098039 0.27450980 0.65882353
v -0.12132129 -0.07047740 -15.54840946 0.25098039 0.27450980 0.65882353
v -0.12035934 -0.07591543 -15.55265522 0.25098039 0.27450980 0.65882353
v -0.11830309 -0.07385981 -15.55451965 0.25098039 0.27450980 0.65882353
v -0.11851861 -0.08101933 -15.55605316 0.25098039 0.27450980 0.65882353
v -0.11678020 -0.07878228 -15.55738449 0.25098039 0.27450980 0.65882353
v -0.11376438 -0.07756567 -15.55785084 0.25098039 0.27450980 0.65882353
v -0.11588864 -0.08370036 -15.55702591 0.25098039 0.27450980 0.65882353
v -0.11650380 -0.08522639 -15.55587387 0.25098039 0.27450980 0.65882353
v -0.11358928 -0.08407480 -15.55721474 0.25098039 0.27450980 0.65882353
v -0.11521420 -0.08189559 -15.55784607 0.25098039 0.27450980 0.65882353
v -0.11357977 -0.08159108 -15.55788612 0.25098039 0.27450980 0.65882353
v -0.12401369 -0.02939601 -15.53658581 0.25098039 0.27450980 0.65882353
v -0.05952264 0.00165020 -15.61373138 0.25098039 0.27450980 0.65882353
v -0.06086008 -0.00182165 -15.60931396 0.25098039 0.27450980 0.65882353
v -0.07433344 -0.00949058 -15.61487389 0.25098039 0.27450980 0.65882353
v -0.06941096 -0.00966236 -15.60981750 0.25098039 0.27450980 0.65882353
v -0.07596597 -0.00703801 -15.62078953 0.25098039 0.27450980 0.65882353
v -0.07119760 0.00132447 -15.62547302 0.25098039 0.27450980 0.65882353
v -0.07516849 -0.00222846 -15.62386894 0.25098039 0.27450980 0.65882353
v -0.06454659 -0.00668343 -15.60797119 0.25098039 0.27450980 0.65882353
v -0.06066513 0.00441701 -15.61875725 0.25098039 0.27450980 0.65882353
v -0.06560250 0.00480472 -15.62384892 0.25098039 0.27450980 0.65882353
v -0.05558428 -0.00118722 -15.62218380 0.25098039 0.27450980 0.65882353
v -0.06079832 -0.00141983 -15.62781906 0.25098039 0.27450980 0.65882353
v -0.06633422 -0.00510845 -15.62997913 0.25098039 0.27450980 0.65882353
v -0.07141408 -0.00858138 -15.62735748 0.25098039 0.27450980 0.65882353
v -0.07318771 -0.01167855 -15.62405396 0.25098039 0.27450980 0.65882353
v -0.05639079 -0.00388720 -15.61562347 0.25098039 0.27450980 0.65882353
v -0.05841768 -0.00722324 -15.61140919 0.25098039 0.27450980 0.65882353
v -0.06351079 -0.01109078 -15.60999107 0.25098039 0.27450980 0.65882353
v -0.05331321 -0.01142926 -15.61655331 0.25098039 0.27450980 0.65882353
v -0.05075608 -0.01808557 -15.62388706 0.25098039 0.27450980 0.65882353
v -0.05697954 -0.03153018 -15.63524246 0.25098039 0.27450980 0.65882353
v -0.06057084 -0.02597845 -15.63370514 0.25098039 0.27450980 0.65882353
v -0.05770320 -0.02534622 -15.63378429 0.25098039 0.27450980 0.65882353
v -0.05465980 -0.03015550 -15.63580704 0.25098039 0.27450980 0.65882353
v -0.06062357 -0.02056219 -15.63277340 0.25098039 0.27450980 0.65882353
v -0.05841957 -0.02153184 -15.63224888 0.25098039 0.27450980 0.65882353
v -0.05472697 -0.01926765 -15.62940788 0.25098039 0.27450980 0.65882353
v -0.05192488 -0.02352941 -15.63161087 0.25098039 0.27450980 0.65882353
v -0.05135964 -0.02006162 -15.62583542 0.25098039 0.27450980 0.65882353
v -0.04939400 -0.02352444 -15.62588310 0.25098039 0.27450980 0.65882353
v -0.04933162 -0.02802380 -15.63313961 0.25098039 0.27450980 0.65882353
v -0.05115798 -0.03229522 -15.63659000 0.25098039 0.27450980 0.65882353
v -0.04728217 -0.03220785 -15.63424969 0.25098039 0.27450980 0.65882353
v -0.05274034 -0.03481385 -15.63543701 0.25098039 0.27450980 0.65882353
v -0.05393486 -0.01722400 -15.63058758 0.25098039 0.27450980 0.65882353
v -0.06697485 -0.01740942 -15.63083458 0.25098039 0.27450980 0.65882353
v -0.06407364 -0.02592672 -15.63173389 0.25098039 0.27450980 0.65882353
v -0.05966665 -0.03258520 -15.63265610 0.25098039 0.27450980 0.65882353
v -0.05436195 -0.03613872 -15.63287735 0.25098039 0.27450980 0.65882353
v -0.06623481 -0.02671802 -15.62772560 0.25098039 0.27450980 0.65882353
v -0.06133249 -0.03252105 -15.62831783 0.25098039 0.27450980 0.65882353
v -0.05620442 -0.03549212 -15.62797546 0.25098039 0.27450980 0.65882353
v -0.06586409 -0.02715172 -15.62293720 0.25098039 0.27450980 0.65882353
v -0.06084472 -0.03207198 -15.62434387 0.25098039 0.27450980 0.65882353
v -0.07109393 -0.01586613 -15.61954021 0.25098039 0.27450980 0.65882353
v -0.07115304 -0.01636289 -15.62589359 0.25098039 0.27450980 0.65882353
v -0.05707660 -0.03424229 -15.62542534 0.25098039 0.27450980 0.65882353
v -0.04682039 -0.03476692 -15.63356400 0.25098039 0.27450980 0.65882353
v -0.04878715 -0.03625384 -15.63034344 0.25098039 0.27450980 0.65882353
v -0.04881196 -0.02296123 -15.62234306 0.25098039 0.27450980 0.65882353
v -0.04628991 -0.02742607 -15.62761593 0.25098039 0.27450980 0.65882353
v -0.04648817 -0.02817237 -15.62439442 0.25098039 0.27450980 0.65882353
v -0.05001757 -0.02232837 -15.61836720 0.25098039 0.27450980 0.65882353
v -0.04730108 -0.02899322 -15.62151241 0.25098039 0.27450980 0.65882353
v -0.04507929 -0.03221425 -15.62825584 0.25098039 0.27450980 0.65882353
v -0.04554102 -0.03034168 -15.63046455 0.25098039 0.27450980 0.65882353
v -0.07273136 -0.01282686 -15.61805820 0.25098039 0.27450980 0.65882353
v -0.06906506 -0.01236734 -15.61258125 0.25098039 0.27450980 0.65882353
v -0.06721601 -0.01500478 -15.61405087 0.25098039 0.27450980 0.65882353
v -0.06258373 -0.02566310 -15.61760998 0.25098039 0.27450980 0.65882353
v -0.06177625 -0.01462783 -15.61135387 0.25098039 0.27450980 0.65882353
v -0.05625699 -0.01292703 -15.61302185 0.25098039 0.27450980 0.65882353
v -0.05266751 -0.02324625 -15.61559963 0.25098039 0.27450980 0.65882353
v -0.05736713 -0.02442747 -15.61485386 0.25098039 0.27450980 0.65882353
v -0.05039153 -0.03001523 -15.61950493 0.25098039 0.27450980 0.65882353
v -0.05351250 -0.03056485 -15.61913586 0.25098039 0.27450980 0.65882353
v -0.05797271 -0.03188097 -15.62099552 0.25098039 0.27450980 0.65882353
v -0.04972084 -0.03364662 -15.62326431 0.25098039 0.27450980 0.65882353
v -0.04656650 -0.03330571 -15.62529659 0.25098039 0.27450980 0.65882353
v -0.05179419 -0.03575277 -15.62641144 0.25098039 0.27450980 0.65882353
v -0.05237758 -0.03292622 -15.62204456 0.25098039 0.27450980 0.65882353
v -0.05439650 -0.03415317 -15.62394238 0.25098039 0.27450980 0.65882353
v -0.12157242 -0.02298159 -15.54609966 0.25098039 0.27450980 0.65882353
v -0.11548817 -0.02350992 -15.54878998 0.25098039 0.27450980 0.65882353
v -0.12008117 -0.01921358 -15.55018806 0.25098039 0.27450980 0.65882353
v -0.12485828 -0.01181342 -15.55306530 0.25098039 0.27450980 0.65882353
v -0.13320753 -0.00463842 -15.55257416 0.25098039 0.27450980 0.65882353
v -0.11875425 -0.01043789 -15.55555630 0.25098039 0.27450980 0.65882353
v -0.11407284 -0.01805621 -15.55191326 0.25098039 0.27450980 0.65882353
v -0.10775973 -0.02487691 -15.54864788 0.25098039 0.27450980 0.65882353
v -0.11606342 -0.00188507 -15.56028843 0.25098039 0.27450980 0.65882353
f 2 3 1
f 1 3 4
f 5 6 8
f 8 6 7
f 9 4 10
f 10 4 3
f 12 13 11
f 11 13 9
f 14 12 16
f 16 12 15
f 18 19 17
f 17 19 20
f 22 23 21
f 21 23 24
f 26 27 25
f 25 27 28
f 30 31 29
f 29 31 32
f 33 34 36
f 36 34 35
f 37 38 40
f 40 38 39
f 41 42 6
f 6 42 43
f 6 43 7
f 7 43 44
f 45 34 46
f 46 34 33
f 48 49 47
f 47 49 50
f 52 53 51
f 51 53 54
f 56 52 55
f 55 52 51
f 58 59 57
f 57 59 60
f 61 62 4
f 4 62 1
f 64 65 63
f 63 65 66
f 68 69 67
f 67 69 70
f 72 73 71
f 71 73 74
f 76 77 75
f 75 77 78
f 53 79 54
f 54 79 80
f 82 83 81
f 81 83 84
f 85 86 52
f 52 86 53
f 57 60 87
f 87 60 88
f 89 90 43
f 43 90 44
f 43 42 89
f 89 42 91
f 40 39 92
f 92 39 93
f 94 70 64
f 64 70 69
f 13 61 9
f 9 61 4
f 25 28 69
f 69 28 95
f 96 25 68
f 68 25 69
f 98 99 97
f 97 99 100
f 101 102 104
f 104 102 103
f 106 30 105
f 105 30 29
f 51 54 107
f 107 54 108
f 54 80 108
f 108 80 109
f 111 112 110
f 110 112 113
f 115 5 114
f 114 5 116
f 115 41 5
f 5 41 6
f 36 35 111
f 111 35 117
f 35 118 117
f 117 118 119
f 34 120 35
f 35 120 118
f 34 45 120
f 120 45 121
f 125 126 124
f 124 126 127
f 128 129 14
f 14 129 130
f 33 131 46
f 46 131 132
f 133 94 63
f 63 94 64
f 134 135 137
f 137 135 136
f 139 140 138
f 138 140 141
f 77 142 78
f 78 142 143
f 144 145 20
f 20 145 146
f 148 149 147
f 147 149 72
f 151 152 150
f 150 152 153
f 82 101 83
f 83 101 104
f 101 82 155
f 155 82 154
f 156 157 58
f 58 157 59
f 158 68 147
f 147 68 67
f 159 146 15
f 15 146 16
f 68 158 96
f 96 158 160
f 129 66 130
f 130 66 65
f 162 163 161
f 161 163 164
f 166 167 165
f 165 167 168
f 170 171 169
f 169 171 172
f 174 171 173
f 173 171 170
f 176 177 175
f 175 177 178
f 180 181 179
f 179 181 24
f 182 183 21
f 21 183 184
f 81 185 82
f 82 185 154
f 186 187 188
f 188 187 144
f 158 71 160
f 160 71 189
f 190 135 157
f 157 135 59
f 169 172 139
f 139 172 140
f 147 72 158
f 158 72 71
f 192 193 191
f 191 193 194
f 167 166 49
f 49 166 195
f 196 190 50
f 50 190 157
f 197 198 200
f 200 198 199
f 21 24 182
f 182 24 181
f 146 159 20
f 20 159 17
f 182 181 81
f 81 181 185
f 201 185 180
f 180 185 181
f 202 203 83
f 83 203 84
f 205 206 204
f 204 206 85
f 207 22 184
f 184 22 21
f 179 24 208
f 208 24 23
f 208 209 179
f 179 209 205
f 209 210 205
f 205 210 206
f 212 206 211
f 211 206 210
f 179 205 180
f 180 205 204
f 213 176 88
f 88 176 214
f 86 85 212
f 212 85 206
f 193 217 218
f 217 219 218
f 218 219 220
f 219 18 220
f 220 18 17
f 19 221 20
f 20 221 144
f 222 223 225
f 225 223 224
f 175 226 176
f 176 226 214
f 227 87 214
f 214 87 88
f 220 17 228
f 228 17 159
f 134 213 60
f 60 213 88
f 138 229 151
f 151 229 152
f 193 192 210
f 210 192 211
f 230 194 218
f 218 194 193
f 231 232 228
f 228 232 230
f 233 234 91
f 91 234 89
f 235 236 93
f 93 236 92
f 230 232 234
f 234 232 237
f 47 238 48
f 48 238 239
f 240 191 235
f 235 191 236
f 5 8 116
f 116 8 241
f 242 243 189
f 189 243 160
f 244 245 98
f 98 245 99
f 156 246 47
f 47 246 238
f 76 247 77
f 77 247 248
f 250 125 249
f 249 125 124
f 252 253 251
f 251 253 254
f 111 110 36
f 36 110 255
f 256 33 255
f 255 33 36
f 257 258 154
f 154 258 155
f 63 169 133
f 133 169 139
f 66 170 63
f 63 170 169
f 173 170 129
f 129 170 66
f 129 128 173
f 173 128 259
f 128 260 259
f 259 260 261
f 213 134 262
f 262 134 137
f 263 264 186
f 186 264 187
f 112 265 113
f 113 265 266
f 11 267 268
f 234 233 230
f 230 233 194
f 153 269 70
f 70 269 67
f 175 178 165
f 165 178 141
f 150 153 94
f 94 153 70
f 271 221 270
f 270 221 207
f 269 153 272
f 272 153 152
f 121 45 109
f 109 45 108
f 47 50 156
f 156 50 157
f 57 273 58
f 58 273 274
f 145 275 260
f 260 275 261
f 276 149 143
f 143 149 78
f 148 269 75
f 75 269 272
f 207 277 270
f 270 277 278
f 195 196 49
f 49 196 50
f 59 135 60
f 60 135 134
f 83 104 202
f 202 104 279
f 149 148 78
f 78 148 75
f 247 278 248
f 248 278 277
f 183 182 84
f 84 182 81
f 48 239 281
f 281 239 282
f 227 223 283
f 283 223 222
f 223 226 224
f 224 226 168
f 281 282 224
f 224 282 225
f 165 168 175
f 175 168 226
f 264 263 138
f 138 263 229
f 14 16 128
f 128 16 260
f 220 228 218
f 218 228 230
f 87 227 284
f 284 227 283
f 260 16 145
f 145 16 146
f 244 98 258
f 258 98 155
f 58 274 156
f 156 274 246
f 107 285 51
f 51 285 55
f 243 286 160
f 160 286 96
f 234 237 89
f 89 237 90
f 46 132 107
f 107 132 285
f 253 252 249
f 249 252 250
f 286 26 96
f 96 26 25
f 106 105 287
f 287 105 288
f 272 152 289
f 289 152 229
f 138 151 139
f 139 151 133
f 183 290 161
f 161 290 162
f 291 292 277
f 277 292 293
f 151 150 133
f 133 150 94
f 262 275 177
f 177 275 187
f 144 187 145
f 145 187 275
f 273 57 284
f 284 57 87
f 174 136 190
f 190 136 135
f 111 117 112
f 112 117 38
f 117 119 38
f 38 119 123
f 112 38 265
f 265 38 37
f 287 288 254
f 254 288 251
f 228 159 231
f 231 159 15
f 223 227 226
f 226 227 214
f 147 67 148
f 148 67 269
f 224 168 281
f 281 168 167
f 199 163 200
f 200 163 162
f 45 46 108
f 108 46 107
f 281 167 48
f 48 167 49
f 161 164 291
f 291 164 292
f 38 123 39
f 293 294 277
f 277 294 248
f 284 283 296
f 296 283 295
f 284 296 273
f 273 296 297
f 274 273 298
f 298 273 297
f 246 274 299
f 299 274 298
f 283 222 295
f 295 222 300
f 222 225 300
f 300 225 301
f 301 225 302
f 302 225 282
f 303 304 300
f 300 304 295
f 306 307 305
f 305 307 308
f 309 310 308
f 308 310 305
f 308 307 312
f 312 307 311
f 313 314 312
f 312 314 315
f 311 316 312
f 312 316 313
f 317 304 311
f 311 304 316
f 315 309 312
f 312 309 308
f 318 319 321
f 321 319 320
f 319 318 309
f 309 318 310
f 311 307 317
f 317 307 306
f 306 297 317
f 317 297 296
f 306 322 297
f 297 322 298
f 305 323 306
f 306 323 322
f 323 305 324
f 324 305 310
f 304 317 295
f 295 317 296
f 318 325 310
f 310 325 324
f 323 324 326
f 326 324 327
f 324 325 327
f 327 325 328
f 326 327 329
f 329 327 330
f 329 331 326
f 326 331 332
f 333 330 328
f 328 330 327
f 323 326 322
f 322 326 332
f 322 332 298
f 298 332 299
f 325 318 334
f 334 318 321
f 313 316 335
f 335 316 304
f 335 336 313
f 313 336 314
f 304 303 335
f 335 303 337
f 336 335 338
f 338 335 337
f 336 339 314
f 314 339 340
f 246 299 238
f 238 299 341
f 239 342 282
f 282 342 302
f 342 239 341
f 341 239 238
f 341 331 342
f 342 331 343
f 331 329 343
f 343 329 344
f 342 343 302
f 302 343 345
f 341 299 331
f 331 299 332
f 346 301 345
f 345 301 302
f 346 303 301
f 301 303 300
f 347 337 346
f 346 337 303
f 347 346 348
f 348 346 345
f 349 347 350
f 350 347 348
f 343 344 345
f 345 344 348
f 344 351 348
f 348 351 350
f 337 347 338
f 338 347 349
f 353 338 352
f 352 338 349
f 352 355 354
f 354 355 356
f 352 349 355
f 355 349 350
f 352 354 353
f 353 354 334
f 353 334 339
f 339 334 321
f 339 336 353
f 353 336 338
f 329 330 344
f 344 330 351
f 356 351 333
f 333 351 330
f 356 355 351
f 351 355 350
f 354 356 328
f 328 356 333
f 328 325 354
f 354 325 334
f 309 315 319
f 319 315 320
f 320 340 321
f 321 340 339
f 320 315 340
f 340 315 314
f 137 136 261
f 261 136 259
f 140 166 141
f 141 166 165
f 172 171 195
f 195 171 196
f 171 174 196
f 196 174 190
f 178 177 264
f 264 177 187
f 172 195 140
f 140 195 166
f 137 261 262
f 262 261 275
f 178 264 141
f 141 264 138
f 262 177 213
f 213 177 176
f 136 174 259
f 259 174 173
f 358 359 357
f 357 359 360
f 362 363 361
f 361 363 364
f 361 364 365
f 365 364 366
f 367 368 370
f 370 368 369
f 76 371 247
f 247 371 372
f 373 374 362
f 362 374 363
f 376 377 375
f 375 377 378
f 289 229 380
f 380 229 379
f 381 379 263
f 263 379 229
f 383 384 382
f 382 384 385
f 386 368 374
f 374 368 363
f 76 289 371
f 371 289 380
f 377 376 359
f 359 376 387
f 388 386 360
f 360 386 374
f 389 383 366
f 366 383 390
f 392 393 391
f 391 393 394
f 383 382 390
f 390 382 395
f 396 365 390
f 390 365 366
f 389 366 367
f 367 366 364
f 357 397 358
f 358 397 398
f 373 399 357
f 357 399 397
f 389 367 400
f 400 367 370
f 382 385 375
f 375 385 372
f 357 360 373
f 373 360 374
f 361 401 362
f 362 401 402
f 387 388 359
f 359 388 360
f 363 368 364
f 364 368 367
f 358 398 403
f 403 398 404
f 396 392 405
f 405 392 391
f 392 395 393
f 393 395 378
f 393 403 394
f 394 403 404
f 375 378 382
f 382 378 395
f 365 396 406
f 406 396 405
f 362 402 373
f 373 402 399
f 271 270 400
f 400 270 384
f 401 361 406
f 406 361 365
f 381 369 386
f 386 369 368
f 392 396 395
f 395 396 390
f 393 378 403
f 403 378 377
f 403 377 358
f 358 377 359
f 406 405 408
f 408 405 407
f 406 408 401
f 401 408 409
f 401 409 402
f 402 409 410
f 402 410 399
f 399 410 411
f 405 391 407
f 407 391 412
f 391 394 412
f 412 394 413
f 394 404 413
f 413 404 414
f 415 416 412
f 412 416 407
f 418 419 417
f 417 419 420
f 421 422 418
f 418 422 419
f 419 422 424
f 424 422 423
f 425 426 424
f 424 426 427
f 423 428 424
f 424 428 425
f 427 420 424
f 424 420 419
f 420 429 417
f 417 429 430
f 423 422 431
f 431 422 421
f 421 409 431
f 431 409 408
f 421 432 409
f 409 432 410
f 418 433 421
f 421 433 432
f 434 433 417
f 417 433 418
f 431 416 423
f 423 416 428
f 416 431 407
f 407 431 408
f 435 434 430
f 430 434 417
f 433 434 436
f 436 434 437
f 434 435 437
f 437 435 438
f 436 437 439
f 439 437 440
f 439 441 436
f 436 441 442
f 438 443 437
f 437 443 440
f 436 442 433
f 433 442 432
f 432 442 410
f 410 442 411
f 435 430 445
f 445 430 444
f 430 429 444
f 444 429 446
f 425 428 447
f 447 428 416
f 426 425 448
f 448 425 447
f 416 415 447
f 447 415 449
f 447 449 448
f 448 449 450
f 451 452 448
f 448 452 426
f 446 452 444
f 444 452 451
f 399 411 397
f 397 411 453
f 398 454 404
f 404 454 414
f 454 398 453
f 453 398 397
f 453 441 454
f 454 441 455
f 441 439 455
f 455 439 456
f 454 455 414
f 414 455 457
f 441 453 442
f 442 453 411
f 458 413 457
f 457 413 414
f 458 415 413
f 413 415 412
f 458 459 415
f 415 459 449
f 459 458 460
f 460 458 457
f 461 459 462
f 462 459 460
f 455 456 457
f 457 456 460
f 456 463 460
f 460 463 462
f 459 461 449
f 449 461 450
f 465 450 464
f 464 450 461
f 464 467 466
f 466 467 468
f 464 461 467
f 467 461 462
f 464 466 465
f 465 466 445
f 465 445 451
f 451 445 444
f 451 448 465
f 465 448 450
f 439 440 456
f 456 440 463
f 468 463 443
f 443 463 440
f 468 467 463
f 463 467 462
f 466 468 438
f 438 468 443
f 438 435 466
f 466 435 445
f 420 427 429
f 429 427 446
f 446 427 452
f 452 427 426
f 370 369 188
f 188 369 186
f 371 376 372
f 372 376 375
f 380 379 387
f 387 379 388
f 379 381 388
f 388 381 386
f 385 384 278
f 278 384 270
f 380 387 371
f 371 387 376
f 400 370 271
f 271 370 188
f 385 278 372
f 372 278 247
f 400 384 389
f 389 384 383
f 369 381 186
f 186 381 263
f 221 271 144
f 144 271 188
f 221 19 207
f 207 19 22
f 19 18 22
f 22 18 23
f 18 219 23
f 23 219 208
f 469 470 472
f 472 470 471
f 474 475 473
f 473 475 476
f 473 476 477
f 477 476 478
f 480 481 479
f 479 481 482
f 483 484 474
f 474 484 475
f 486 487 485
f 485 487 488
f 489 490 77
f 77 490 142
f 491 489 248
f 248 489 77
f 493 494 492
f 492 494 495
f 496 480 484
f 484 480 475
f 486 497 487
f 487 497 471
f 498 496 472
f 472 496 484
f 499 493 478
f 478 493 500
f 501 502 504
f 504 502 503
f 493 492 500
f 500 492 505
f 506 477 500
f 500 477 478
f 499 478 479
f 479 478 476
f 469 507 470
f 470 507 508
f 483 509 469
f 469 509 507
f 479 482 499
f 499 482 510
f 492 495 485
f 485 495 511
f 483 469 484
f 484 469 472
f 473 512 474
f 474 512 513
f 497 498 471
f 471 498 472
f 475 480 476
f 476 480 479
f 470 508 514
f 514 508 515
f 506 502 516
f 516 502 501
f 503 502 488
f 488 502 505
f 514 515 503
f 503 515 504
f 485 488 492
f 492 488 505
f 477 506 517
f 517 506 516
f 474 513 483
f 483 513 509
f 510 292 494
f 494 292 164
f 512 473 517
f 517 473 477
f 491 481 496
f 496 481 480
f 502 506 505
f 505 506 500
f 503 488 514
f 514 488 487
f 514 487 470
f 470 487 471
f 517 516 519
f 519 516 518
f 517 519 512
f 512 519 520
f 512 520 513
f 513 520 521
f 513 521 509
f 509 521 522
f 516 501 518
f 518 501 523
f 501 504 523
f 523 504 524
f 524 504 525
f 525 504 515
f 526 527 523
f 523 527 518
f 529 530 528
f 528 530 531
f 532 533 529
f 529 533 530
f 530 533 535
f 535 533 534
f 536 537 535
f 535 537 538
f 534 539 535
f 535 539 536
f 538 531 535
f 535 531 530
f 540 541 531
f 531 541 528
f 533 532 534
f 534 532 542
f 532 520 542
f 542 520 519
f 532 543 520
f 520 543 521
f 529 544 532
f 532 544 543
f 544 529 545
f 545 529 528
f 534 542 539
f 539 542 527
f 527 542 518
f 518 542 519
f 541 546 528
f 528 546 545
f 547 544 548
f 548 544 545
f 546 549 545
f 545 549 548
f 550 547 551
f 551 547 548
f 547 550 553
f 553 550 552
f 549 554 548
f 548 554 551
f 544 547 543
f 543 547 553
f 543 553 521
f 521 553 522
f 546 541 556
f 556 541 555
f 541 540 555
f 555 540 557
f 536 539 558
f 558 539 527
f 537 536 559
f 559 536 558
f 527 526 558
f 558 526 560
f 559 558 561
f 561 558 560
f 559 562 537
f 537 562 563
f 557 563 555
f 555 563 562
f 509 522 507
f 507 522 564
f 508 565 515
f 515 565 525
f 565 508 564
f 564 508 507
f 564 552 565
f 565 552 566
f 552 550 566
f 566 550 567
f 565 566 525
f 525 566 568
f 564 522 552
f 552 522 553
f 569 524 568
f 568 524 525
f 569 526 524
f 524 526 523
f 570 560 569
f 569 560 526
f 570 569 571
f 571 569 568
f 572 570 573
f 573 570 571
f 566 567 568
f 568 567 571
f 567 574 571
f 571 574 573
f 570 572 560
f 560 572 561
f 576 561 575
f 575 561 572
f 575 578 577
f 577 578 579
f 575 572 578
f 578 572 573
f 575 577 576
f 576 577 556
f 576 556 562
f 562 556 555
f 562 559 576
f 576 559 561
f 550 551 567
f 567 551 574
f 579 574 554
f 554 574 551
f 579 578 574
f 574 578 573
f 579 554 577
f 577 554 549
f 549 546 577
f 577 546 556
f 531 538 540
f 540 538 557
f 557 538 563
f 563 538 537
f 481 294 482
f 482 294 293
f 580 486 511
f 511 486 485
f 490 489 497
f 497 489 498
f 489 491 498
f 498 491 496
f 163 495 164
f 164 495 494
f 580 490 486
f 486 490 497
f 482 293 510
f 510 293 292
f 495 163 511
f 511 163 199
f 494 493 510
f 510 493 499
f 481 491 294
f 294 491 248
f 582 583 581
f 581 583 584
f 586 587 585
f 585 587 588
f 585 588 589
f 589 588 590
f 592 593 591
f 591 593 594
f 595 596 598
f 598 596 597
f 599 600 586
f 586 600 587
f 601 602 604
f 604 602 603
f 605 606 608
f 608 606 607
f 609 607 200
f 200 607 606
f 610 611 613
f 613 611 612
f 600 614 587
f 587 614 592
f 596 605 597
f 597 605 608
f 602 615 603
f 603 615 583
f 616 614 584
f 584 614 600
f 611 618 617
f 617 618 590
f 620 621 619
f 619 621 622
f 610 623 611
f 611 623 618
f 624 589 618
f 618 589 590
f 617 590 591
f 591 590 588
f 581 625 582
f 582 625 626
f 599 627 581
f 581 627 625
f 591 594 617
f 617 594 628
f 601 610 598
f 598 610 613
f 581 584 599
f 599 584 600
f 585 629 586
f 586 629 630
f 615 616 583
f 583 616 584
f 587 592 588
f 588 592 591
f 582 626 631
f 631 626 632
f 624 620 633
f 633 620 619
f 621 620 604
f 604 620 623
f 631 632 621
f 621 632 622
f 610 601 623
f 623 601 604
f 589 624 634
f 634 624 633
f 586 630 599
f 599 630 627
f 203 202 628
f 628 202 612
f 629 585 634
f 634 585 589
f 609 593 614
f 614 593 592
f 620 624 623
f 623 624 618
f 631 621 603
f 603 621 604
f 582 631 583
f 583 631 603
f 634 633 636
f 636 633 635
f 634 636 629
f 629 636 637
f 629 637 630
f 630 637 638
f 630 638 627
f 627 638 639
f 633 619 635
f 635 619 640
f 619 622 640
f 640 622 641
f 641 622 642
f 642 622 632
f 644 635 643
f 643 635 640
f 645 646 648
f 648 646 647
f 649 650 646
f 646 650 647
f 647 650 652
f 652 650 651
f 652 653 655
f 655 653 654
f 651 656 652
f 652 656 653
f 655 648 652
f 652 648 647
f 648 657 645
f 645 657 658
f 650 649 651
f 651 649 659
f 649 637 659
f 659 637 636
f 649 660 637
f 637 660 638
f 661 660 646
f 646 660 649
f 662 661 645
f 645 661 646
f 651 659 656
f 656 659 644
f 644 659 635
f 635 659 636
f 663 662 658
f 658 662 645
f 664 661 665
f 665 661 662
f 663 666 662
f 662 666 665
f 667 664 668
f 668 664 665
f 664 667 670
f 670 667 669
f 666 671 665
f 665 671 668
f 661 664 660
f 660 664 670
f 660 670 638
f 638 670 639
f 658 672 663
f 663 672 673
f 658 657 672
f 672 657 674
f 653 656 675
f 675 656 644
f 653 675 654
f 654 675 676
f 675 644 677
f 677 644 643
f 676 675 678
f 678 675 677
f 679 680 676
f 676 680 654
f 674 680 672
f 672 680 679
f 627 639 625
f 625 639 681
f 626 682 632
f 632 682 642
f 681 682 625
f 625 682 626
f 669 683 681
f 681 683 682
f 667 684 669
f 669 684 683
f 682 683 642
f 642 683 685
f 681 639 669
f 669 639 670
f 686 641 685
f 685 641 642
f 641 686 640
f 640 686 643
f 686 687 643
f 643 687 677
f 687 686 688
f 688 686 685
f 689 687 690
f 690 687 688
f 683 684 685
f 685 684 688
f 684 691 688
f 688 691 690
f 687 689 677
f 677 689 678
f 693 678 692
f 692 678 689
f 692 695 694
f 694 695 696
f 692 689 695
f 695 689 690
f 692 694 693
f 693 694 673
f 693 673 679
f 679 673 672
f 679 676 693
f 693 676 678
f 684 667 691
f 691 667 668
f 696 691 671
f 671 691 668
f 696 695 691
f 691 695 690
f 694 696 666
f 666 696 671
f 666 663 694
f 694 663 673
f 648 655 657
f 657 655 674
f 674 655 680
f 680 655 654
f 593 162 594
f 594 162 290
f 598 597 601
f 601 597 602
f 615 608 616
f 616 608 607
f 607 609 616
f 616 609 614
f 697 595 613
f 613 595 598
f 597 608 602
f 602 608 615
f 594 290 628
f 628 290 203
f 628 612 617
f 617 612 611
f 593 609 162
f 162 609 200
f 105 29 698
f 698 29 699
f 268 126 701
f 701 126 700
f 126 125 700
f 700 125 702
f 252 703 250
f 250 703 704
f 32 268 705
f 705 268 701
f 288 105 706
f 706 105 698
f 29 32 699
f 699 32 705
f 707 251 706
f 706 251 288
f 250 704 125
f 125 704 702
f 703 252 707
f 707 252 251
f 706 708 707
f 707 708 709
f 707 709 703
f 703 709 710
f 703 710 704
f 704 710 711
f 704 711 702
f 702 711 712
f 706 698 708
f 708 698 713
f 698 699 713
f 713 699 714
f 699 705 714
f 714 705 715
f 717 708 716
f 716 708 713
f 719 720 718
f 718 720 721
f 722 723 719
f 719 723 720
f 724 725 723
f 723 725 720
f 724 726 725
f 725 726 727
f 728 721 725
f 725 721 720
f 721 728 729
f 729 728 730
f 729 731 721
f 721 731 718
f 724 723 732
f 732 723 722
f 722 710 732
f 732 710 709
f 722 733 710
f 710 733 711
f 719 734 722
f 722 734 733
f 734 719 735
f 735 719 718
f 724 732 726
f 726 732 717
f 717 732 708
f 708 732 709
f 731 736 718
f 718 736 735
f 737 734 738
f 738 734 735
f 736 739 735
f 735 739 738
f 740 737 741
f 741 737 738
f 737 740 743
f 743 740 742
f 739 744 738
f 738 744 741
f 734 737 733
f 733 737 743
f 733 743 711
f 711 743 712
f 736 731 746
f 746 731 745
f 731 729 745
f 745 729 730
f 727 726 747
f 747 726 717
f 748 727 749
f 749 727 747
f 747 717 750
f 750 717 716
f 749 747 751
f 751 747 750
f 749 752 748
f 748 752 753
f 730 753 745
f 745 753 752
f 728 725 748
f 748 725 727
f 730 728 753
f 753 728 748
f 700 702 754
f 754 702 712
f 705 701 715
f 715 701 755
f 754 755 700
f 700 755 701
f 742 756 754
f 754 756 755
f 740 757 742
f 742 757 756
f 755 756 715
f 715 756 758
f 754 712 742
f 742 712 743
f 759 714 758
f 758 714 715
f 714 759 713
f 713 759 716
f 759 760 716
f 716 760 750
f 760 759 761
f 761 759 758
f 762 760 763
f 763 760 761
f 756 757 758
f 758 757 761
f 757 764 761
f 761 764 763
f 760 762 750
f 750 762 751
f 766 751 765
f 765 751 762
f 767 765 769
f 769 765 768
f 765 762 768
f 768 762 763
f 765 767 766
f 766 767 746
f 766 746 752
f 752 746 745
f 752 749 766
f 766 749 751
f 757 740 764
f 764 740 741
f 769 764 744
f 744 764 741
f 769 768 764
f 764 768 763
f 767 769 739
f 739 769 744
f 739 736 767
f 767 736 746
f 219 217 208
f 208 217 209
f 209 217 210
f 210 217 193
f 198 580 199
f 199 580 511
f 76 75 289
f 289 75 272
f 277 207 291
f 291 207 184
f 290 183 203
f 203 183 84
f 490 580 142
f 142 580 198
f 142 198 143
f 143 198 197
f 149 276 72
f 72 276 73
f 104 103 279
f 279 103 770
f 770 596 279
f 279 596 595
f 605 596 771
f 771 596 770
f 771 770 772
f 772 770 103
f 772 103 773
f 773 103 102
f 155 774 101
f 101 774 102
f 773 102 97
f 97 102 774
f 775 773 100
f 100 773 97
f 773 775 772
f 772 775 776
f 772 776 771
f 771 776 777
f 200 606 197
f 197 606 777
f 189 71 778
f 778 71 74
f 97 774 98
f 98 774 155
f 183 161 184
f 184 161 291
f 777 276 197
f 197 276 143
f 777 606 771
f 771 606 605
f 613 612 697
f 697 612 202
f 595 697 279
f 279 697 202
f 73 276 776
f 776 276 777
f 776 775 73
f 73 775 74
f 100 778 775
f 775 778 74
f 778 100 189
f 189 100 99
f 245 242 99
f 99 242 189
f 131 33 256
f 28 1 95
f 95 1 62
f 27 2 28
f 28 2 1
f 265 115 266
f 266 115 114
f 95 62 69
f 69 62 64
f 62 61 64
f 64 61 65
f 61 13 65
f 65 13 130
f 13 12 130
f 130 12 14
f 31 11 32
f 32 11 268
f 15 12 31
f 31 12 11
f 31 30 15
f 15 30 231
f 30 106 231
f 231 106 232
f 287 237 106
f 106 237 232
f 254 90 287
f 287 90 237
f 253 44 254
f 254 44 90
f 253 249 44
f 44 249 7
f 267 127 268
f 268 127 126
f 10 3 241
f 241 3 116
f 3 2 116
f 116 2 114
f 2 27 114
f 114 27 266
f 27 26 266
f 266 26 113
f 26 286 113
f 113 286 110
f 286 243 110
f 110 243 255
f 243 242 255
f 255 242 256
f 242 245 256
f 256 245 131
f 245 244 131
f 131 244 132
f 265 37 115
f 115 37 41
f 41 37 42
f 42 37 40
f 92 91 40
f 40 91 42
f 236 233 92
f 92 233 91
f 191 194 236
f 236 194 233
f 258 285 244
f 244 285 132
f 257 55 258
f 258 55 285
f 257 154 201
f 201 154 185
f 56 201 204
f 204 201 180
f 55 257 56
f 56 257 201
f 204 85 56
f 56 85 52
f 86 122 53
f 53 122 79
f 212 215 86
f 86 215 122
f 211 216 212
f 212 216 215
f 192 280 211
f 211 280 216
f 191 240 192
f 192 240 280
f 249 124 7
f 7 124 8
f 124 127 8
f 8 127 241
f 127 267 241
f 241 267 10
f 10 267 9
f 9 267 11
f 93 39 235
f 235 39 240
f 39 123 240
f 240 123 280
f 123 119 280
f 280 119 216
f 119 118 216
f 216 118 215
f 118 120 215
f 215 120 122
f 120 121 122
f 122 121 79
f 121 109 79
f 79 109 80

