# https://github.com/mikedh/trimesh
v -0.10630304 0.15449706 -13.98504734 0.25098039 0.27450980 0.65882353
v -0.11401622 0.15850544 -13.99034500 0.25098039 0.27450980 0.65882353
v -0.10707648 0.15411738 -13.99867249 0.25098039 0.27450980 0.65882353
v -0.09890193 0.15035585 -13.99130726 0.25098039 0.27450980 0.65882353
v -0.12425552 0.16600800 -14.00976944 0.25098039 0.27450980 0.65882353
v -0.12310141 0.17688426 -14.01613522 0.25098039 0.27450980 0.65882353
v -0.11257528 0.16704747 -14.02300549 0.25098039 0.27450980 0.65882353
v -0.11574489 0.15936804 -14.01751328 0.25098039 0.27450980 0.65882353
v -0.09216823 0.14898413 -13.99571705 0.25098039 0.27450980 0.65882353
v -0.10169940 0.14996284 -14.00466251 0.25098039 0.27450980 0.65882353
v -0.08839536 0.15325072 -13.99864006 0.25098039 0.27450980 0.65882353
v -0.07845184 0.15549530 -13.98495102 0.25098039 0.27450980 0.65882353
v -0.08375797 0.15076849 -13.98584461 0.25098039 0.27450980 0.65882353
v -0.07370417 0.15369430 -13.97638416 0.25098039 0.27450980 0.65882353
v -0.07898553 0.16544525 -13.98117542 0.25098039 0.27450980 0.65882353
v -0.07481329 0.15772848 -13.96754074 0.25098039 0.27450980 0.65882353
v -0.09792140 0.16994976 -13.95443916 0.25098039 0.27450980 0.65882353
v -0.10924660 0.16795760 -13.94791412 0.25098039 0.27450980 0.65882353
v -0.10123423 0.15595612 -13.94232559 0.25098039 0.27450980 0.65882353
v -0.09058119 0.15882689 -13.95006561 0.25098039 0.27450980 0.65882353
v -0.12097804 0.15365294 -13.93962479 0.25098039 0.27450980 0.65882353
v -0.10970566 0.15432432 -13.94044590 0.25098039 0.27450980 0.65882353
v -0.11745337 0.16714013 -13.94530106 0.25098039 0.27450980 0.65882353
v -0.12731773 0.16607456 -13.94418812 0.25098039 0.27450980 0.65882353
v -0.12085700 0.15818928 -13.97693062 0.25098039 0.27450980 0.65882353
v -0.12865841 0.16328561 -13.98088455 0.25098039 0.27450980 0.65882353
v -0.12295465 0.16244221 -13.98260880 0.25098039 0.27450980 0.65882353
v -0.11570518 0.15816671 -13.97944164 0.25098039 0.27450980 0.65882353
v -0.08613208 0.15918551 -14.01204491 0.25098039 0.27450980 0.65882353
v -0.08585393 0.16867337 -14.00192928 0.25098039 0.27450980 0.65882353
v -0.08474071 0.16130735 -13.99888802 0.25098039 0.27450980 0.65882353
v -0.08885935 0.15446618 -14.01151466 0.25098039 0.27450980 0.65882353
v -0.15282974 0.17552336 -13.98929596 0.25098039 0.27450980 0.65882353
v -0.15671906 0.18882549 -13.99003792 0.25098039 0.27450980 0.65882353
v -0.15182260 0.19072172 -13.99246502 0.25098039 0.27450980 0.65882353
v -0.14948842 0.17821352 -13.99081230 0.25098039 0.27450980 0.65882353
v -0.13532154 0.18853188 -14.00603867 0.25098039 0.27450980 0.65882353
v -0.13865551 0.19704729 -14.00201416 0.25098039 0.27450980 0.65882353
v -0.13093770 0.20907053 -14.00201988 0.25098039 0.27450980 0.65882353
v -0.12518205 0.20203744 -14.00495815 0.25098039 0.27450980 0.65882353
v -0.12953080 0.18158302 -14.01107216 0.25098039 0.27450980 0.65882353
v -0.12188385 0.19314542 -14.01156712 0.25098039 0.27450980 0.65882353
v -0.11647522 0.18637356 -14.01706982 0.25098039 0.27450980 0.65882353
v -0.10714824 0.17442147 -14.02450275 0.25098039 0.27450980 0.65882353
v -0.16587612 0.18619004 -13.98171139 0.25098039 0.27450980 0.65882353
v -0.16506988 0.17632215 -13.98006916 0.25098039 0.27450980 0.65882353
v -0.04991214 0.11313425 -13.96784973 0.25098039 0.27450980 0.65882353
v -0.05400677 0.10990836 -13.96533012 0.25098039 0.27450980 0.65882353
v -0.05592602 0.11353953 -13.96531773 0.25098039 0.27450980 0.65882353
v -0.05160704 0.11626150 -13.96743298 0.25098039 0.27450980 0.65882353
v -0.16623117 0.18520793 -13.96179199 0.25098039 0.27450980 0.65882353
v -0.16102540 0.19002691 -13.95447636 0.25098039 0.27450980 0.65882353
v -0.16551363 0.19425511 -13.95721245 0.25098039 0.27450980 0.65882353
v -0.16889878 0.19101435 -13.96501064 0.25098039 0.27450980 0.65882353
v -0.16229361 0.17750368 -13.95726967 0.25098039 0.27450980 0.65882353
v -0.15469521 0.18370660 -13.95115948 0.25098039 0.27450980 0.65882353
v -0.04072291 0.11424314 -13.95949268 0.25098039 0.27450980 0.65882353
v -0.04216149 0.11470088 -13.96433544 0.25098039 0.27450980 0.65882353
v -0.04365361 0.11911193 -13.96257019 0.25098039 0.27450980 0.65882353
v -0.04285742 0.11906452 -13.95731354 0.25098039 0.27450980 0.65882353
v -0.09102055 0.14898649 -13.98452854 0.25098039 0.27450980 0.65882353
v -0.09973677 0.14932948 -13.98106480 0.25098039 0.27450980 0.65882353
v -0.08032471 0.13667127 -13.97417831 0.25098039 0.27450980 0.65882353
v -0.08865739 0.14228816 -13.97578144 0.25098039 0.27450980 0.65882353
v -0.08349715 0.14594318 -13.97934532 0.25098039 0.27450980 0.65882353
v -0.07664120 0.14207177 -13.97654057 0.25098039 0.27450980 0.65882353
v -0.10982572 0.14105907 -13.96580124 0.25098039 0.27450980 0.65882353
v -0.11652794 0.14972278 -13.97043610 0.25098039 0.27450980 0.65882353
v -0.11028475 0.15046945 -13.97252083 0.25098039 0.27450980 0.65882353
v -0.10196288 0.14063220 -13.96903515 0.25098039 0.27450980 0.65882353
v -0.12918861 0.14546062 -13.96661949 0.25098039 0.27450980 0.65882353
v -0.12159988 0.13753866 -13.96231937 0.25098039 0.27450980 0.65882353
v -0.12989427 0.13613859 -13.96085072 0.25098039 0.27450980 0.65882353
v -0.13417767 0.14156176 -13.96478939 0.25098039 0.27450980 0.65882353
v -0.10525791 0.12483997 -13.95445919 0.25098039 0.27450980 0.65882353
v -0.09913433 0.12113315 -13.94881821 0.25098039 0.27450980 0.65882353
v -0.10147545 0.12007885 -13.94690228 0.25098039 0.27450980 0.65882353
v -0.10826433 0.12440185 -13.95315742 0.25098039 0.27450980 0.65882353
v -0.16910565 0.19934928 -13.95878887 0.25098039 0.27450980 0.65882353
v -0.17018962 0.19701976 -13.96766663 0.25098039 0.27450980 0.65882353
v -0.14073309 0.14918861 -13.93923759 0.25098039 0.27450980 0.65882353
v -0.15023968 0.14730799 -13.94433212 0.25098039 0.27450980 0.65882353
v -0.14620382 0.13615239 -13.93962669 0.25098039 0.27450980 0.65882353
v -0.13778283 0.14111404 -13.93572998 0.25098039 0.27450980 0.65882353
v -0.15215822 0.19411308 -13.95131302 0.25098039 0.27450980 0.65882353
v -0.15781647 0.19830373 -13.95229435 0.25098039 0.27450980 0.65882353
v -0.04220203 0.11200392 -13.95414257 0.25098039 0.27450980 0.65882353
v -0.04424787 0.11669375 -13.95201397 0.25098039 0.27450980 0.65882353
v -0.10831994 0.19357061 -14.00890732 0.25098039 0.27450980 0.65882353
v -0.09971215 0.17940414 -14.02011871 0.25098039 0.27450980 0.65882353
v -0.11528601 0.20291874 -14.00138855 0.25098039 0.27450980 0.65882353
v -0.11975807 0.20940894 -13.99605942 0.25098039 0.27450980 0.65882353
v -0.12389384 0.21563202 -13.99427414 0.25098039 0.27450980 0.65882353
v -0.09081909 0.13718589 -13.97127628 0.25098039 0.27450980 0.65882353
v -0.10796519 0.15269938 -13.97769356 0.25098039 0.27450980 0.65882353
v -0.12554213 0.15706249 -13.97482872 0.25098039 0.27450980 0.65882353
v -0.15175283 0.14481185 -13.96540737 0.25098039 0.27450980 0.65882353
v -0.15760620 0.15301172 -13.96967983 0.25098039 0.27450980 0.65882353
v -0.14724535 0.15220642 -13.97333717 0.25098039 0.27450980 0.65882353
v -0.14423710 0.14531466 -13.96831989 0.25098039 0.27450980 0.65882353
v -0.15384585 0.14168203 -13.95048237 0.25098039 0.27450980 0.65882353
v -0.15058032 0.13783021 -13.95627594 0.25098039 0.27450980 0.65882353
v -0.14592949 0.13048166 -13.95300102 0.25098039 0.27450980 0.65882353
v -0.14893869 0.13322830 -13.94687557 0.25098039 0.27450980 0.65882353
v -0.08476789 0.16380830 -14.01724434 0.25098039 0.27450980 0.65882353
v -0.08701529 0.17439981 -14.00532055 0.25098039 0.27450980 0.65882353
v -0.16830018 0.18096650 -13.97092628 0.25098039 0.27450980 0.65882353
v -0.16890235 0.18766610 -13.97455883 0.25098039 0.27450980 0.65882353
v -0.16981530 0.19624275 -13.97487831 0.25098039 0.27450980 0.65882353
v -0.14041585 0.16909774 -13.98589420 0.25098039 0.27450980 0.65882353
v -0.14731620 0.17998150 -13.99195385 0.25098039 0.27450980 0.65882353
v -0.14435269 0.17979351 -13.99429607 0.25098039 0.27450980 0.65882353
v -0.13758183 0.16893770 -13.98639202 0.25098039 0.27450980 0.65882353
v -0.12432645 0.16250695 -13.99556541 0.25098039 0.27450980 0.65882353
v -0.13264823 0.17172660 -14.00172806 0.25098039 0.27450980 0.65882353
v -0.11768985 0.15714198 -14.00429153 0.25098039 0.27450980 0.65882353
v -0.14652103 0.19453795 -13.99653244 0.25098039 0.27450980 0.65882353
v -0.15517209 0.20028222 -13.99433517 0.25098039 0.27450980 0.65882353
v -0.14814332 0.20376740 -13.99797916 0.25098039 0.27450980 0.65882353
v -0.16229232 0.19804521 -13.98842049 0.25098039 0.27450980 0.65882353
v -0.16717593 0.19629164 -13.98145485 0.25098039 0.27450980 0.65882353
v -0.16207995 0.20408833 -13.95065403 0.25098039 0.27450980 0.65882353
v -0.14084680 0.20693991 -14.00035667 0.25098039 0.27450980 0.65882353
v -0.10871036 0.15455863 -14.02208233 0.25098039 0.27450980 0.65882353
v -0.10257570 0.15014590 -14.02557278 0.25098039 0.27450980 0.65882353
v -0.10012317 0.14758179 -14.01897907 0.25098039 0.27450980 0.65882353
v -0.10576385 0.15079895 -14.01512814 0.25098039 0.27450980 0.65882353
v -0.06834869 0.14928886 -13.96958637 0.25098039 0.27450980 0.65882353
v -0.07165495 0.14522210 -13.97484684 0.25098039 0.27450980 0.65882353
v -0.07770109 0.15026346 -13.98100471 0.25098039 0.27450980 0.65882353
v -0.15152457 0.16628605 -13.98313141 0.25098039 0.27450980 0.65882353
v -0.16271012 0.16699535 -13.97551537 0.25098039 0.27450980 0.65882353
v -0.08147746 0.13191825 -13.96915722 0.25098039 0.27450980 0.65882353
v -0.04610790 0.12379016 -13.95706177 0.25098039 0.27450980 0.65882353
v -0.04671884 0.12379444 -13.96275997 0.25098039 0.27450980 0.65882353
v -0.05909377 0.13796742 -13.96602631 0.25098039 0.27450980 0.65882353
v -0.05816521 0.13831666 -13.95914459 0.25098039 0.27450980 0.65882353
v -0.07566071 0.12780941 -13.95922184 0.25098039 0.27450980 0.65882353
v -0.07700132 0.12862174 -13.96598721 0.25098039 0.27450980 0.65882353
v -0.07424277 0.12755004 -13.96379471 0.25098039 0.27450980 0.65882353
v -0.07336287 0.12438252 -13.95803833 0.25098039 0.27450980 0.65882353
v -0.11050124 0.11967692 -13.94758224 0.25098039 0.27450980 0.65882353
v -0.11637582 0.12371696 -13.95245361 0.25098039 0.27450980 0.65882353
v -0.08364764 0.14475018 -13.94682884 0.25098039 0.27450980 0.65882353
v -0.07470427 0.15275136 -13.95296001 0.25098039 0.27450980 0.65882353
v -0.08132836 0.16096343 -13.95747471 0.25098039 0.27450980 0.65882353
v -0.11683993 0.13991106 -13.96382141 0.25098039 0.27450980 0.65882353
v -0.11129476 0.13157851 -13.95941162 0.25098039 0.27450980 0.65882353
v -0.11488824 0.13057466 -13.95796204 0.25098039 0.27450980 0.65882353
v -0.09062387 0.13379584 -13.96750927 0.25098039 0.27450980 0.65882353
v -0.08336456 0.12924933 -13.96406841 0.25098039 0.27450980 0.65882353
v -0.08942042 0.13002032 -13.96282482 0.25098039 0.27450980 0.65882353
v -0.09575045 0.13448358 -13.96521091 0.25098039 0.27450980 0.65882353
v -0.15519536 0.15894434 -13.94781017 0.25098039 0.27450980 0.65882353
v -0.15977444 0.15246041 -13.95474243 0.25098039 0.27450980 0.65882353
v -0.04555191 0.11454962 -13.96743870 0.25098039 0.27450980 0.65882353
v -0.04704615 0.11837259 -13.96633434 0.25098039 0.27450980 0.65882353
v -0.12309883 0.14848036 -13.96803093 0.25098039 0.27450980 0.65882353
v -0.08885582 0.17021042 -13.96318722 0.25098039 0.27450980 0.65882353
v -0.13032162 0.15553190 -13.97335529 0.25098039 0.27450980 0.65882353
v -0.12129298 0.13252480 -13.93398762 0.25098039 0.27450980 0.65882353
v -0.12394181 0.12631708 -13.93805885 0.25098039 0.27450980 0.65882353
v -0.11935215 0.12230492 -13.93622208 0.25098039 0.27450980 0.65882353
v -0.11725518 0.12599665 -13.93139553 0.25098039 0.27450980 0.65882353
v -0.06248650 0.11342105 -13.95533466 0.25098039 0.27450980 0.65882353
v -0.06239378 0.11323440 -13.96100712 0.25098039 0.27450980 0.65882353
v -0.05871184 0.11074013 -13.96038151 0.25098039 0.27450980 0.65882353
v -0.05837116 0.11009745 -13.95464802 0.25098039 0.27450980 0.65882353
v -0.07522012 0.13178523 -13.97057056 0.25098039 0.27450980 0.65882353
v -0.07188895 0.13684215 -13.97334576 0.25098039 0.27450980 0.65882353
v -0.06817526 0.13182074 -13.97130203 0.25098039 0.27450980 0.65882353
v -0.07155171 0.12890752 -13.96767139 0.25098039 0.27450980 0.65882353
v -0.06682833 0.14031194 -13.97146416 0.25098039 0.27450980 0.65882353
v -0.06314778 0.13569361 -13.97062397 0.25098039 0.27450980 0.65882353
v -0.05898584 0.11572332 -13.95034122 0.25098039 0.27450980 0.65882353
v -0.05271538 0.11942025 -13.94861603 0.25098039 0.27450980 0.65882353
v -0.06504557 0.13185212 -13.94967175 0.25098039 0.27450980 0.65882353
v -0.06899002 0.12558356 -13.95217133 0.25098039 0.27450980 0.65882353
v -0.13258049 0.17877606 -13.94793701 0.25098039 0.27450980 0.65882353
v -0.14283571 0.17572743 -13.94641876 0.25098039 0.27450980 0.65882353
v -0.13744143 0.16290224 -13.94287777 0.25098039 0.27450980 0.65882353
v -0.13242222 0.15082322 -13.93871593 0.25098039 0.27450980 0.65882353
v -0.12701249 0.13873719 -13.93547726 0.25098039 0.27450980 0.65882353
v -0.11638442 0.14321387 -13.93451595 0.25098039 0.27450980 0.65882353
v -0.14513828 0.16153158 -13.94327545 0.25098039 0.27450980 0.65882353
v -0.07924159 0.13183917 -13.95131874 0.25098039 0.27450980 0.65882353
v -0.07426707 0.13984589 -13.95028400 0.25098039 0.27450980 0.65882353
v -0.08031440 0.13791746 -13.94778156 0.25098039 0.27450980 0.65882353
v -0.13691558 0.15252756 -13.97221661 0.25098039 0.27450980 0.65882353
v -0.04993175 0.12232787 -13.96722984 0.25098039 0.27450980 0.65882353
v -0.12009208 0.21073094 -13.97255421 0.25098039 0.27450980 0.65882353
v -0.12792073 0.20865113 -13.96188259 0.25098039 0.27450980 0.65882353
v -0.12384455 0.20202997 -13.96242619 0.25098039 0.27450980 0.65882353
v -0.11506729 0.20413342 -13.97473145 0.25098039 0.27450980 0.65882353
v -0.05970022 0.11561576 -13.96673107 0.25098039 0.27450980 0.65882353
v -0.05488335 0.11900633 -13.96952820 0.25098039 0.27450980 0.65882353
v -0.12146253 0.12107041 -13.94978333 0.25098039 0.27450980 0.65882353
v -0.11574370 0.11859623 -13.94559574 0.25098039 0.27450980 0.65882353
v -0.11735836 0.11831779 -13.94175816 0.25098039 0.27450980 0.65882353
v -0.12453770 0.11798009 -13.94624519 0.25098039 0.27450980 0.65882353
v -0.14857142 0.17518964 -13.94675446 0.25098039 0.27450980 0.65882353
v -0.14442377 0.12881619 -13.93815041 0.25098039 0.27450980 0.65882353
v -0.13705519 0.13353088 -13.93387222 0.25098039 0.27450980 0.65882353
v -0.14702454 0.18711838 -13.94957542 0.25098039 0.27450980 0.65882353
v -0.13800977 0.18983087 -13.95045280 0.25098039 0.27450980 0.65882353
v -0.14206758 0.19763473 -13.95172310 0.25098039 0.27450980 0.65882353
v -0.10095733 0.14037788 -13.93649578 0.25098039 0.27450980 0.65882353
v -0.12465455 0.17901203 -13.94954205 0.25098039 0.27450980 0.65882353
v -0.13105804 0.19014633 -13.95269585 0.25098039 0.27450980 0.65882353
v -0.13558964 0.19966219 -13.95413589 0.25098039 0.27450980 0.65882353
v -0.13853718 0.20658734 -13.95408726 0.25098039 0.27450980 0.65882353
v -0.14560802 0.20320705 -13.95205498 0.25098039 0.27450980 0.65882353
v -0.04821050 0.12141667 -13.95167923 0.25098039 0.27450980 0.65882353
v -0.04872361 0.11350838 -13.94834900 0.25098039 0.27450980 0.65882353
v -0.14926708 0.20960754 -13.95054150 0.25098039 0.27450980 0.65882353
v -0.14107631 0.21262285 -13.95341969 0.25098039 0.27450980 0.65882353
v -0.12291655 0.19097120 -13.95629215 0.25098039 0.27450980 0.65882353
v -0.11419708 0.19155195 -13.96186924 0.25098039 0.27450980 0.65882353
v -0.11690141 0.18041220 -13.95227051 0.25098039 0.27450980 0.65882353
v -0.10708471 0.18045312 -13.95746136 0.25098039 0.27450980 0.65882353
v -0.09334387 0.14702377 -13.93828297 0.25098039 0.27450980 0.65882353
v -0.04656719 0.09725590 -13.95447159 0.25098039 0.27450980 0.65882353
v -0.05188966 0.10639792 -13.95098114 0.25098039 0.27450980 0.65882353
v -0.05594280 0.10601586 -13.95502663 0.25098039 0.27450980 0.65882353
v -0.05053425 0.09652682 -13.95633888 0.25098039 0.27450980 0.65882353
v -0.05494127 0.11123903 -13.95019150 0.25098039 0.27450980 0.65882353
v -0.04666077 0.10908683 -13.95038414 0.25098039 0.27450980 0.65882353
v -0.09689526 0.18066236 -13.96872711 0.25098039 0.27450980 0.65882353
v -0.08323760 0.12649971 -13.95817375 0.25098039 0.27450980 0.65882353
v -0.10438004 0.19263949 -13.97702408 0.25098039 0.27450980 0.65882353
v -0.08579013 0.17603129 -13.98384190 0.25098039 0.27450980 0.65882353
v -0.09281348 0.18380605 -13.99154472 0.25098039 0.27450980 0.65882353
v -0.11118311 0.20518668 -13.98660755 0.25098039 0.27450980 0.65882353
v -0.10205716 0.19582176 -13.99631882 0.25098039 0.27450980 0.65882353
v -0.12178104 0.21701787 -13.98378563 0.25098039 0.27450980 0.65882353
v -0.11681185 0.21079546 -13.98391914 0.25098039 0.27450980 0.65882353
v -0.09485750 0.18543352 -14.00767612 0.25098039 0.27450980 0.65882353
v -0.04836605 0.10301655 -13.96929264 0.25098039 0.27450980 0.65882353
v -0.05242085 0.10066305 -13.96598053 0.25098039 0.27450980 0.65882353
v -0.12382291 0.21715435 -13.97224140 0.25098039 0.27450980 0.65882353
v -0.11082664 0.15361828 -14.01077461 0.25098039 0.27450980 0.65882353
v -0.14147018 0.16018850 -13.97812271 0.25098039 0.27450980 0.65882353
v -0.13616268 0.16150884 -13.97926426 0.25098039 0.27450980 0.65882353
v -0.16022408 0.15857437 -13.97156715 0.25098039 0.27450980 0.65882353
v -0.14886940 0.15894353 -13.97737598 0.25098039 0.27450980 0.65882353
v -0.04326758 0.10480105 -13.96966553 0.25098039 0.27450980 0.65882353
v -0.09547323 0.12086166 -13.94279480 0.25098039 0.27450980 0.65882353
v -0.09804472 0.12236340 -13.94259357 0.25098039 0.27450980 0.65882353
v -0.10675454 0.16066377 -14.02725506 0.25098039 0.27450980 0.65882353
v -0.10206121 0.15594505 -14.03026104 0.25098039 0.27450980 0.65882353
v -0.09135558 0.16323254 -14.02984810 0.25098039 0.27450980 0.65882353
v -0.09727030 0.16031782 -14.03232574 0.25098039 0.27450980 0.65882353
v -0.10150759 0.16717887 -14.02899170 0.25098039 0.27450980 0.65882353
v -0.09548773 0.17079848 -14.02643585 0.25098039 0.27450980 0.65882353
v -0.14235829 0.16822228 -13.98565960 0.25098039 0.27450980 0.65882353
v -0.14555232 0.16704032 -13.98469830 0.25098039 0.27450980 0.65882353
v -0.15918402 0.16882679 -13.95261669 0.25098039 0.27450980 0.65882353
v -0.16301517 0.16224118 -13.96008396 0.25098039 0.27450980 0.65882353
v -0.06403403 0.14343308 -13.96653366 0.25098039 0.27450980 0.65882353
v -0.06888489 0.15114018 -13.96125889 0.25098039 0.27450980 0.65882353
v -0.06393366 0.14432731 -13.95946026 0.25098039 0.27450980 0.65882353
v -0.06137130 0.13737656 -13.95287800 0.25098039 0.27450980 0.65882353
v -0.07914655 0.12701517 -13.95391750 0.25098039 0.27450980 0.65882353
v -0.07445790 0.13016000 -13.95416260 0.25098039 0.27450980 0.65882353
v -0.13903959 0.17505683 -13.99761677 0.25098039 0.27450980 0.65882353
v -0.13143240 0.16652988 -13.98880959 0.25098039 0.27450980 0.65882353
v -0.09878492 0.14993566 -14.00911045 0.25098039 0.27450980 0.65882353
v -0.09477463 0.14892572 -14.01324177 0.25098039 0.27450980 0.65882353
v -0.10345788 0.13464516 -13.96291351 0.25098039 0.27450980 0.65882353
v -0.09233077 0.13197522 -13.93546581 0.25098039 0.27450980 0.65882353
v -0.08646446 0.13725069 -13.93711948 0.25098039 0.27450980 0.65882353
v -0.09725505 0.12845090 -13.95893955 0.25098039 0.27450980 0.65882353
v -0.03732890 0.10382420 -13.96321392 0.25098039 0.27450980 0.65882353
v -0.03981233 0.10476879 -13.96764469 0.25098039 0.27450980 0.65882353
v -0.06757332 0.14394684 -13.95310116 0.25098039 0.27450980 0.65882353
v -0.12287339 0.12819338 -13.95718670 0.25098039 0.27450980 0.65882353
v -0.10119228 0.13378520 -13.93604755 0.25098039 0.27450980 0.65882353
v -0.09450562 0.12547827 -13.93709087 0.25098039 0.27450980 0.65882353
v -0.14592145 0.12815408 -13.94585323 0.25098039 0.27450980 0.65882353
v -0.13160209 0.21535298 -13.96228886 0.25098039 0.27450980 0.65882353
v -0.05689976 0.10665847 -13.96059036 0.25098039 0.27450980 0.65882353
v -0.05399768 0.09866020 -13.96147728 0.25098039 0.27450980 0.65882353
v -0.04283281 0.09941396 -13.95441151 0.25098039 0.27450980 0.65882353
v -0.03871694 0.10261671 -13.95737267 0.25098039 0.27450980 0.65882353
v -0.16540295 0.17062017 -13.96609688 0.25098039 0.27450980 0.65882353
v -0.13294233 0.16254270 -13.97940445 0.25098039 0.27450980 0.65882353
v -0.09063032 0.17521863 -14.01703644 0.25098039 0.27450980 0.65882353
v -0.08692205 0.16482142 -14.02418804 0.25098039 0.27450980 0.65882353
v -0.09303360 0.12446003 -13.95546818 0.25098039 0.27450980 0.65882353
v -0.12869784 0.13157637 -13.93552685 0.25098039 0.27450980 0.65882353
v -0.11288668 0.13548335 -13.93150330 0.25098039 0.27450980 0.65882353
v -0.10959266 0.12889999 -13.92826557 0.25098039 0.27450980 0.65882353
v -0.10232860 0.12756827 -13.93060493 0.25098039 0.27450980 0.65882353
v -0.09779735 0.12363644 -13.93540764 0.25098039 0.27450980 0.65882353
v -0.04188377 0.09416240 -13.95682716 0.25098039 0.27450980 0.65882353
v -0.03776158 0.09752586 -13.95955849 0.25098039 0.27450980 0.65882353
v -0.03644510 0.09922582 -13.96518612 0.25098039 0.27450980 0.65882353
v -0.03861544 0.10093026 -13.96893787 0.25098039 0.27450980 0.65882353
v -0.04271761 0.10165893 -13.97039127 0.25098039 0.27450980 0.65882353
v -0.04571651 0.09196199 -13.95735359 0.25098039 0.27450980 0.65882353
v -0.04920904 0.09184079 -13.95935154 0.25098039 0.27450980 0.65882353
v -0.05274709 0.09550163 -13.96253586 0.25098039 0.27450980 0.65882353
v -0.04665469 0.08827006 -13.96091747 0.25098039 0.27450980 0.65882353
v -0.04161569 0.08697993 -13.96216583 0.25098039 0.27450980 0.65882353
v -0.03816245 0.08941346 -13.97551727 0.25098039 0.27450980 0.65882353
v -0.03661773 0.09221760 -13.97035122 0.25098039 0.27450980 0.65882353
v -0.03694810 0.08948745 -13.97060871 0.25098039 0.27450980 0.65882353
v -0.03825964 0.08645162 -13.97448635 0.25098039 0.27450980 0.65882353
v -0.03924859 0.08211342 -13.97730923 0.25098039 0.27450980 0.65882353
v -0.03918156 0.08500059 -13.97926712 0.25098039 0.27450980 0.65882353
v -0.03802489 0.08903219 -13.96604919 0.25098039 0.27450980 0.65882353
v -0.03961283 0.08421239 -13.97069740 0.25098039 0.27450980 0.65882353
v -0.04238351 0.08245820 -13.96819115 0.25098039 0.27450980 0.65882353
v -0.04278657 0.07826799 -13.97210312 0.25098039 0.27450980 0.65882353
v -0.04022016 0.07961908 -13.97430420 0.25098039 0.27450980 0.65882353
v -0.04096748 0.08574034 -13.96511936 0.25098039 0.27450980 0.65882353
v -0.03721741 0.09070547 -13.96405506 0.25098039 0.27450980 0.65882353
v -0.04058604 0.08061419 -13.98044395 0.25098039 0.27450980 0.65882353
v -0.03974262 0.07927413 -13.97855759 0.25098039 0.27450980 0.65882353
v -0.04109621 0.07741543 -13.97656059 0.25098039 0.27450980 0.65882353
v -0.04273771 0.07636069 -13.97897053 0.25098039 0.27450980 0.65882353
v -0.03894268 0.09728546 -13.97171116 0.25098039 0.27450980 0.65882353
v -0.03962219 0.09091941 -13.97707558 0.25098039 0.27450980 0.65882353
v -0.04190211 0.08612262 -13.98013592 0.25098039 0.27450980 0.65882353
v -0.04309791 0.08168419 -13.98115540 0.25098039 0.27450980 0.65882353
v -0.04361700 0.09074469 -13.97795296 0.25098039 0.27450980 0.65882353
v -0.04478717 0.08651860 -13.97988987 0.25098039 0.27450980 0.65882353
v -0.04611455 0.08272022 -13.98037529 0.25098039 0.27450980 0.65882353
v -0.04764667 0.08975680 -13.97738361 0.25098039 0.27450980 0.65882353
v -0.04774223 0.08595785 -13.97892284 0.25098039 0.27450980 0.65882353
v -0.04658280 0.09869416 -13.97101593 0.25098039 0.27450980 0.65882353
v -0.04264469 0.09996302 -13.97178936 0.25098039 0.27450980 0.65882353
v -0.04810049 0.08356310 -13.97989655 0.25098039 0.27450980 0.65882353
v -0.04489720 0.07689044 -13.97944164 0.25098039 0.27450980 0.65882353
v -0.04526867 0.08317716 -13.96603680 0.25098039 0.27450980 0.65882353
v -0.04594941 0.07875153 -13.97179413 0.25098039 0.27450980 0.65882353
v -0.04767582 0.08359600 -13.96617317 0.25098039 0.27450980 0.65882353
v -0.04833275 0.07893588 -13.97152710 0.25098039 0.27450980 0.65882353
v -0.04536879 0.07545834 -13.97508335 0.25098039 0.27450980 0.65882353
v -0.04310265 0.07658856 -13.97470188 0.25098039 0.27450980 0.65882353
v -0.04779744 0.10095734 -13.96928406 0.25098039 0.27450980 0.65882353
v -0.05188213 0.09831581 -13.96588516 0.25098039 0.27450980 0.65882353
v -0.05107310 0.09620074 -13.96745300 0.25098039 0.27450980 0.65882353
v -0.05118883 0.08804655 -13.97469997 0.25098039 0.27450980 0.65882353
v -0.05233301 0.09314258 -13.96486568 0.25098039 0.27450980 0.65882353
v -0.04999103 0.08872117 -13.96297646 0.25098039 0.27450980 0.65882353
v -0.05013083 0.08379704 -13.96797562 0.25098039 0.27450980 0.65882353
v -0.05181375 0.08530562 -13.97049141 0.25098039 0.27450980 0.65882353
v -0.05021171 0.08031037 -13.97227287 0.25098039 0.27450980 0.65882353
v -0.05081613 0.08212318 -13.97385788 0.25098039 0.27450980 0.65882353
v -0.05031146 0.08430238 -13.97695255 0.25098039 0.27450980 0.65882353
v -0.04928640 0.07853165 -13.97597408 0.25098039 0.27450980 0.65882353
v -0.04732691 0.07640902 -13.97547722 0.25098039 0.27450980 0.65882353
v -0.04743439 0.07924864 -13.97910500 0.25098039 0.27450980 0.65882353
v -0.05023862 0.08028474 -13.97603321 0.25098039 0.27450980 0.65882353
v -0.04871540 0.08151852 -13.97828293 0.25098039 0.27450980 0.65882353
v -0.06930614 0.09692192 -13.94590473 0.25098039 0.27450980 0.65882353
v -0.07446101 0.09451587 -13.94289970 0.25098039 0.27450980 0.65882353
v -0.07530877 0.09961783 -13.94247627 0.25098039 0.27450980 0.65882353
v -0.07092416 0.10116984 -13.94519520 0.25098039 0.27450980 0.65882353
v -0.06025712 0.10029423 -13.93648434 0.25098039 0.27450980 0.65882353
v -0.06187597 0.09943655 -13.94201565 0.25098039 0.27450980 0.65882353
v -0.06272614 0.10457732 -13.94092560 0.25098039 0.27450980 0.65882353
v -0.06217355 0.10565978 -13.93453693 0.25098039 0.27450980 0.65882353
v -0.06343149 0.09956862 -13.93048668 0.25098039 0.27450980 0.65882353
v -0.06563166 0.10516857 -13.92863846 0.25098039 0.27450980 0.65882353
v -0.06396206 0.11085045 -13.93483543 0.25098039 0.27450980 0.65882353
v -0.06510177 0.10958925 -13.94172859 0.25098039 0.27450980 0.65882353
v -0.07615273 0.12648290 -13.94770050 0.25098039 0.27450980 0.65882353
v -0.07535122 0.12854809 -13.94084835 0.25098039 0.27450980 0.65882353
v -0.09184933 0.11831545 -13.94661999 0.25098039 0.27450980 0.65882353
v -0.09141098 0.11814239 -13.94263744 0.25098039 0.27450980 0.65882353
v -0.06560203 0.09817933 -13.94522190 0.25098039 0.27450980 0.65882353
v -0.06663111 0.10279894 -13.94419384 0.25098039 0.27450980 0.65882353
v -0.08223403 0.10158595 -13.93636513 0.25098039 0.27450980 0.65882353
v -0.08115652 0.10153078 -13.94165230 0.25098039 0.27450980 0.65882353
v -0.07870191 0.09769455 -13.93971348 0.25098039 0.27450980 0.65882353
v -0.07904637 0.09755939 -13.93410778 0.25098039 0.27450980 0.65882353
v -0.08273552 0.12314179 -13.95255089 0.25098039 0.27450980 0.65882353
v -0.08831473 0.12110738 -13.95027828 0.25098039 0.27450980 0.65882353
v -0.07908458 0.12421168 -13.95116138 0.25098039 0.27450980 0.65882353
v -0.08039004 0.10330327 -13.93026066 0.25098039 0.27450980 0.65882353
v -0.07538000 0.10659446 -13.92670441 0.25098039 0.27450980 0.65882353
v -0.08531493 0.12375075 -13.93157196 0.25098039 0.27450980 0.65882353
v -0.08942203 0.11977530 -13.93453026 0.25098039 0.27450980 0.65882353
v -0.06820820 0.10728002 -13.94576550 0.25098039 0.27450980 0.65882353
v -0.07743827 0.10270734 -13.94544697 0.25098039 0.27450980 0.65882353
v -0.07294540 0.10463168 -13.94737911 0.25098039 0.27450980 0.65882353
v -0.06870228 0.11008007 -13.92926216 0.25098039 0.27450980 0.65882353
v -0.07184464 0.10093483 -13.92650318 0.25098039 0.27450980 0.65882353
v -0.06994300 0.08128882 -13.93213272 0.25098039 0.27450980 0.65882353
v -0.07442419 0.09290354 -13.92970657 0.25098039 0.27450980 0.65882353
v -0.07689901 0.09207945 -13.93411350 0.25098039 0.27450980 0.65882353
v -0.07319924 0.08000883 -13.93564320 0.25098039 0.27450980 0.65882353
v -0.07682709 0.09835742 -13.92907810 0.25098039 0.27450980 0.65882353
v -0.06937651 0.09579214 -13.92807579 0.25098039 0.27450980 0.65882353
v -0.06712113 0.08225971 -13.94810963 0.25098039 0.27450980 0.65882353
v -0.07229610 0.08010195 -13.94488811 0.25098039 0.27450980 0.65882353
v -0.06265074 0.08357107 -13.94810581 0.25098039 0.27450980 0.65882353
v -0.07931828 0.12783799 -13.93396759 0.25098039 0.27450980 0.65882353
v -0.05699645 0.08691962 -13.93994141 0.25098039 0.27450980 0.65882353
v -0.05929622 0.08533192 -13.94594574 0.25098039 0.27450980 0.65882353
v -0.07744735 0.09275299 -13.93911171 0.25098039 0.27450980 0.65882353
v -0.07422990 0.07921569 -13.94029617 0.25098039 0.27450980 0.65882353
v -0.06574209 0.08313854 -13.93118572 0.25098039 0.27450980 0.65882353
v -0.05993409 0.08704373 -13.93372917 0.25098039 0.27450980 0.65882353
v -0.06425455 0.07740407 -13.93311882 0.25098039 0.27450980 0.65882353
v -0.05888239 0.08013537 -13.93575573 0.25098039 0.27450980 0.65882353
v -0.05627926 0.08064650 -13.94183922 0.25098039 0.27450980 0.65882353
v -0.05906783 0.08056784 -13.94698906 0.25098039 0.27450980 0.65882353
v -0.06250407 0.08024047 -13.94880867 0.25098039 0.27450980 0.65882353
v -0.06823747 0.07575451 -13.93405819 0.25098039 0.27450980 0.65882353
v -0.07163824 0.07501902 -13.93714142 0.25098039 0.27450980 0.65882353
v -0.07313465 0.07671230 -13.94145679 0.25098039 0.27450980 0.65882353
v -0.06901552 0.06948593 -13.93806648 0.25098039 0.27450980 0.65882353
v -0.06448628 0.06907818 -13.93729973 0.25098039 0.27450980 0.65882353
v -0.05927174 0.06305405 -13.95412445 0.25098039 0.27450980 0.65882353
v -0.05816658 0.06802571 -13.95068836 0.25098039 0.27450980 0.65882353
v -0.05825715 0.06632070 -13.94863987 0.25098039 0.27450980 0.65882353
v -0.05934958 0.06174313 -13.95159531 0.25098039 0.27450980 0.65882353
v -0.05643949 0.07180795 -13.94578743 0.25098039 0.27450980 0.65882353
v -0.05734248 0.06942312 -13.94515800 0.25098039 0.27450980 0.65882353
v -0.05957028 0.06906906 -13.94105148 0.25098039 0.27450980 0.65882353
v -0.06081013 0.06423984 -13.94496059 0.25098039 0.27450980 0.65882353
v -0.06465872 0.06378981 -13.94217205 0.25098039 0.27450980 0.65882353
v -0.06500785 0.05859576 -13.94488907 0.25098039 0.27450980 0.65882353
v -0.06113665 0.05900458 -13.94771290 0.25098039 0.27450980 0.65882353
v -0.06279351 0.06709619 -13.93983746 0.25098039 0.27450980 0.65882353
v -0.06031720 0.05834311 -13.95276833 0.25098039 0.27450980 0.65882353
v -0.06137936 0.05775446 -13.95509338 0.25098039 0.27450980 0.65882353
v -0.05846864 0.07159342 -13.93910027 0.25098039 0.27450980 0.65882353
v -0.05846435 0.07678679 -13.94839191 0.25098039 0.27450980 0.65882353
v -0.05976790 0.06915420 -13.95309353 0.25098039 0.27450980 0.65882353
v -0.06163982 0.06347856 -13.95632935 0.25098039 0.27450980 0.65882353
v -0.06427616 0.05777593 -13.95615482 0.25098039 0.27450980 0.65882353
v -0.06369200 0.06924605 -13.95475864 0.25098039 0.27450980 0.65882353
v -0.06486502 0.06363933 -13.95698643 0.25098039 0.27450980 0.65882353
v -0.06676930 0.05897605 -13.95604897 0.25098039 0.27450980 0.65882353
v -0.06845339 0.06893250 -13.95486259 0.25098039 0.27450980 0.65882353
v -0.06903341 0.06329285 -13.95625591 0.25098039 0.27450980 0.65882353
v -0.06722306 0.07811541 -13.94958878 0.25098039 0.27450980 0.65882353
v -0.06255327 0.07824470 -13.95034027 0.25098039 0.27450980 0.65882353
v -0.06863630 0.06055309 -13.95581913 0.25098039 0.27450980 0.65882353
v -0.06322178 0.05438180 -13.95193291 0.25098039 0.27450980 0.65882353
v -0.06621417 0.05495128 -13.95363808 0.25098039 0.27450980 0.65882353
v -0.06229624 0.05578300 -13.95061016 0.25098039 0.27450980 0.65882353
v -0.06673716 0.06385261 -13.94162655 0.25098039 0.27450980 0.65882353
v -0.06727703 0.05857292 -13.94556046 0.25098039 0.27450980 0.65882353
v -0.06956786 0.06389575 -13.94234562 0.25098039 0.27450980 0.65882353
v -0.06951177 0.05838379 -13.94680595 0.25098039 0.27450980 0.65882353
v -0.06654803 0.05491622 -13.94865322 0.25098039 0.27450980 0.65882353
v -0.06487909 0.05524567 -13.94824600 0.25098039 0.27450980 0.65882353
v -0.06679773 0.07969780 -13.94798279 0.25098039 0.27450980 0.65882353
v -0.07146682 0.07818238 -13.94499588 0.25098039 0.27450980 0.65882353
v -0.07175985 0.07688871 -13.94642162 0.25098039 0.27450980 0.65882353
v -0.07231049 0.06753701 -13.95143604 0.25098039 0.27450980 0.65882353
v -0.07342653 0.07476579 -13.94257355 0.25098039 0.27450980 0.65882353
v -0.07185340 0.07091549 -13.93981457 0.25098039 0.27450980 0.65882353
v -0.07195793 0.06480972 -13.94361782 0.25098039 0.27450980 0.65882353
v -0.07342015 0.06581807 -13.94720554 0.25098039 0.27450980 0.65882353
v -0.07175817 0.05872558 -13.94719505 0.25098039 0.27450980 0.65882353
v -0.07288687 0.06121014 -13.94889927 0.25098039 0.27450980 0.65882353
v -0.07202947 0.06271219 -13.95347214 0.25098039 0.27450980 0.65882353
v -0.07044052 0.05548921 -13.95038700 0.25098039 0.27450980 0.65882353
v -0.06824365 0.05474810 -13.94948864 0.25098039 0.27450980 0.65882353
v -0.06802478 0.05636039 -13.95404911 0.25098039 0.27450980 0.65882353
v -0.07182793 0.05808866 -13.95106792 0.25098039 0.27450980 0.65882353
v -0.07012965 0.05890931 -13.95419693 0.25098039 0.27450980 0.65882353
v -0.09285048 0.09711628 -13.93433475 0.25098039 0.27450980 0.65882353
v -0.09854518 0.09579699 -13.93548298 0.25098039 0.27450980 0.65882353
v -0.09949782 0.09917459 -13.93545341 0.25098039 0.27450980 0.65882353
v -0.09398727 0.10057471 -13.93424797 0.25098039 0.27450980 0.65882353
v -0.09185857 0.09809068 -13.92187977 0.25098039 0.27450980 0.65882353
v -0.08932877 0.09771341 -13.92608356 0.25098039 0.27450980 0.65882353
v -0.09045874 0.10251951 -13.92586803 0.25098039 0.27450980 0.65882353
v -0.09316777 0.10432877 -13.92137718 0.25098039 0.27450980 0.65882353
v -0.09645286 0.09568496 -13.91979408 0.25098039 0.27450980 0.65882353
v -0.09862009 0.10380820 -13.91838074 0.25098039 0.27450980 0.65882353
v -0.09427799 0.11021576 -13.92188168 0.25098039 0.27450980 0.65882353
v -0.09149688 0.10714310 -13.92658329 0.25098039 0.27450980 0.65882353
v -0.09659454 0.12016640 -13.93312931 0.25098039 0.27450980 0.65882353
v -0.09949574 0.12252129 -13.92728424 0.25098039 0.27450980 0.65882353
v -0.09008078 0.09746455 -13.93066406 0.25098039 0.27450980 0.65882353
v -0.09109336 0.10128864 -13.93070316 0.25098039 0.27450980 0.65882353
v -0.10861018 0.10038836 -13.93270779 0.25098039 0.27450980 0.65882353
v -0.10520546 0.10048686 -13.93605137 0.25098039 0.27450980 0.65882353
v -0.10445009 0.09768260 -13.93395710 0.25098039 0.27450980 0.65882353
v -0.10714455 0.09727993 -13.93070889 0.25098039 0.27450980 0.65882353
v -0.10141687 0.11751419 -13.94302082 0.25098039 0.27450980 0.65882353
v -0.10747771 0.11736181 -13.94313622 0.25098039 0.27450980 0.65882353
v -0.09747609 0.11752301 -13.93893814 0.25098039 0.27450980 0.65882353
v -0.10946813 0.10195977 -13.92641735 0.25098039 0.27450980 0.65882353
v -0.10692000 0.10606351 -13.92066288 0.25098039 0.27450980 0.65882353
v -0.11320283 0.11851420 -13.92685318 0.25098039 0.27450980 0.65882353
v -0.11512858 0.11619283 -13.93251228 0.25098039 0.27450980 0.65882353
v -0.09188390 0.10483392 -13.93146229 0.25098039 0.27450980 0.65882353
v -0.10033405 0.10200875 -13.93752480 0.25098039 0.27450980 0.65882353
v -0.09481268 0.10310889 -13.93593788 0.25098039 0.27450980 0.65882353
v -0.10029198 0.10970268 -13.91984558 0.25098039 0.27450980 0.65882353
v -0.10445897 0.10016536 -13.92036438 0.25098039 0.27450980 0.65882353
v -0.10147795 0.07759230 -13.92570782 0.25098039 0.27450980 0.65882353
v -0.10635535 0.09352744 -13.92483234 0.25098039 0.27450980 0.65882353
v -0.10610670 0.09352835 -13.93057346 0.25098039 0.27450980 0.65882353
v -0.10270406 0.07789290 -13.92994785 0.25098039 0.27450980 0.65882353
v -0.10767998 0.09743141 -13.92531300 0.25098039 0.27450980 0.65882353
v -0.10272187 0.09465408 -13.92065048 0.25098039 0.27450980 0.65882353
v -0.09054917 0.08195719 -13.93660164 0.25098039 0.27450980 0.65882353
v -0.09625706 0.08126810 -13.93682671 0.25098039 0.27450980 0.65882353
v -0.08769013 0.08308330 -13.93334579 0.25098039 0.27450980 0.65882353
v -0.10613102 0.12236811 -13.92415524 0.25098039 0.27450980 0.65882353
v -0.11331964 0.11592679 -13.93922424 0.25098039 0.27450980 0.65882353
v -0.08704455 0.08176357 -13.92585659 0.25098039 0.27450980 0.65882353
v -0.08637200 0.08268213 -13.93015575 0.25098039 0.27450980 0.65882353
v -0.10355075 0.09459992 -13.93387890 0.25098039 0.27450980 0.65882353
v -0.10111405 0.07930642 -13.93413639 0.25098039 0.27450980 0.65882353
v -0.09796187 0.07902027 -13.92255306 0.25098039 0.27450980 0.65882353
v -0.09196721 0.08142267 -13.92209339 0.25098039 0.27450980 0.65882353
v -0.09731005 0.07279050 -13.92478371 0.25098039 0.27450980 0.65882353
v -0.09117562 0.07450701 -13.92453861 0.25098039 0.27450980 0.65882353
v -0.08651894 0.07527578 -13.92823696 0.25098039 0.27450980 0.65882353
v -0.08611049 0.07729383 -13.93231773 0.25098039 0.27450980 0.65882353
v -0.08743201 0.07845579 -13.93519306 0.25098039 0.27450980 0.65882353
v -0.10084653 0.07272077 -13.92847538 0.25098039 0.27450980 0.65882353
v -0.10164675 0.07407577 -13.93215179 0.25098039 0.27450980 0.65882353
v -0.10007723 0.07773656 -13.93451786 0.25098039 0.27450980 0.65882353
v -0.10122356 0.06978150 -13.93203926 0.25098039 0.27450980 0.65882353
v -0.09695913 0.06692386 -13.92960644 0.25098039 0.27450980 0.65882353
v -0.08813998 0.06087598 -13.94311810 0.25098039 0.27450980 0.65882353
v -0.08763514 0.06526551 -13.93896770 0.25098039 0.27450980 0.65882353
v -0.08828554 0.06439652 -13.93825531 0.25098039 0.27450980 0.65882353
v -0.08865841 0.05967619 -13.94182682 0.25098039 0.27450980 0.65882353
v -0.08732173 0.06858797 -13.93271923 0.25098039 0.27450980 0.65882353
v -0.08829750 0.06685507 -13.93358612 0.25098039 0.27450980 0.65882353
v -0.09138545 0.06633826 -13.93108082 0.25098039 0.27450980 0.65882353
v -0.09203358 0.06159329 -13.93580055 0.25098039 0.27450980 0.65882353
v -0.09785971 0.06312923 -13.93593884 0.25098039 0.27450980 0.65882353
v -0.09725446 0.05966026 -13.93979073 0.25098039 0.27450980 0.65882353
v -0.09222153 0.05768837 -13.93967819 0.25098039 0.27450980 0.65882353
v -0.09587416 0.06583844 -13.93133068 0.25098039 0.27450980 0.65882353
v -0.08982827 0.05717582 -13.94358253 0.25098039 0.27450980 0.65882353
v -0.08828406 0.05684152 -13.94527054 0.25098039 0.27450980 0.65882353
v -0.09103949 0.06790577 -13.92875099 0.25098039 0.27450980 0.65882353
v -0.08552809 0.07239808 -13.93541908 0.25098039 0.27450980 0.65882353
v -0.08656681 0.06704146 -13.94110298 0.25098039 0.27450980 0.65882353
v -0.08679102 0.06279761 -13.94573879 0.25098039 0.27450980 0.65882353
v -0.08903959 0.05938993 -13.94804096 0.25098039 0.27450980 0.65882353
v -0.08828710 0.06928961 -13.94356346 0.25098039 0.27450980 0.65882353
v -0.08874553 0.06495777 -13.94710159 0.25098039 0.27450980 0.65882353
v -0.09066802 0.06194966 -13.94923592 0.25098039 0.27450980 0.65882353
v -0.09096725 0.07061788 -13.94490910 0.25098039 0.27450980 0.65882353
v -0.09154589 0.06660903 -13.94784546 0.25098039 0.27450980 0.65882353
v -0.09045956 0.07760285 -13.93832970 0.25098039 0.27450980 0.65882353
v -0.08725470 0.07548731 -13.93730164 0.25098039 0.27450980 0.65882353
v -0.09229334 0.06369868 -13.94913197 0.25098039 0.27450980 0.65882353
v -0.09269263 0.05483535 -13.94474983 0.25098039 0.27450980 0.65882353
v -0.09436020 0.05724102 -13.94810677 0.25098039 0.27450980 0.65882353
v -0.09258553 0.05622497 -13.94301796 0.25098039 0.27450980 0.65882353
v -0.09954329 0.06417274 -13.93587112 0.25098039 0.27450980 0.65882353
v -0.09937936 0.05973575 -13.94103527 0.25098039 0.27450980 0.65882353
v -0.10126680 0.06591107 -13.93754387 0.25098039 0.27450980 0.65882353
v -0.10106571 0.06139204 -13.94247913 0.25098039 0.27450980 0.65882353
v -0.09751113 0.05649474 -13.94343758 0.25098039 0.27450980 0.65882353
v -0.09650758 0.05686778 -13.94253635 0.25098039 0.27450980 0.65882353
v -0.09091355 0.07955110 -13.93668842 0.25098039 0.27450980 0.65882353
v -0.09602293 0.07933463 -13.93671989 0.25098039 0.27450980 0.65882353
v -0.09527594 0.07803244 -13.93832111 0.25098039 0.27450980 0.65882353
v -0.09564683 0.07085851 -13.94552422 0.25098039 0.27450980 0.65882353
v -0.09944883 0.07667483 -13.93659782 0.25098039 0.27450980 0.65882353
v -0.10156769 0.07156669 -13.93550396 0.25098039 0.27450980 0.65882353
v -0.10123253 0.06785268 -13.94029903 0.25098039 0.27450980 0.65882353
v -0.09953797 0.06937477 -13.94346523 0.25098039 0.27450980 0.65882353
v -0.10103254 0.06353235 -13.94432068 0.25098039 0.27450980 0.65882353
v -0.09942682 0.06568812 -13.94544601 0.25098039 0.27450980 0.65882353
v -0.09566554 0.06705973 -13.94834995 0.25098039 0.27450980 0.65882353
v -0.09869048 0.06081499 -13.94666767 0.25098039 0.27450980 0.65882353
v -0.09886569 0.05811016 -13.94535542 0.25098039 0.27450980 0.65882353
v -0.09489913 0.06036645 -13.94926167 0.25098039 0.27450980 0.65882353
v -0.09817705 0.06318010 -13.94750118 0.25098039 0.27450980 0.65882353
v -0.09528236 0.06301057 -13.94941902 0.25098039 0.27450980 0.65882353
v -0.11144993 0.11663268 -13.94222164 0.25098039 0.27450980 0.65882353
v -0.12975380 0.09493197 -13.94151115 0.25098039 0.27450980 0.65882353
v -0.13343194 0.09513854 -13.94320583 0.25098039 0.27450980 0.65882353
v -0.13423026 0.09815622 -13.94217491 0.25098039 0.27450980 0.65882353
v -0.13034567 0.09888617 -13.94126320 0.25098039 0.27450980 0.65882353
v -0.13002795 0.09470382 -13.93048668 0.25098039 0.27450980 0.65882353
v -0.12781686 0.09430677 -13.93433094 0.25098039 0.27450980 0.65882353
v -0.12763257 0.09911028 -13.93304539 0.25098039 0.27450980 0.65882353
v -0.12979788 0.09973217 -13.92927837 0.25098039 0.27450980 0.65882353
v -0.13469268 0.09471173 -13.92894936 0.25098039 0.27450980 0.65882353
v -0.13488686 0.09956516 -13.92796421 0.25098039 0.27450980 0.65882353
v -0.12958017 0.10349261 -13.92904377 0.25098039 0.27450980 0.65882353
v -0.12722883 0.10292456 -13.93319893 0.25098039 0.27450980 0.65882353
v -0.12595122 0.11920569 -13.93674469 0.25098039 0.27450980 0.65882353
v -0.12924802 0.12202164 -13.93300724 0.25098039 0.27450980 0.65882353
v -0.14414889 0.12249158 -13.94444466 0.25098039 0.27450980 0.65882353
v -0.14016396 0.12248068 -13.94990921 0.25098039 0.27450980 0.65882353
v -0.13986975 0.11444810 -13.94547844 0.25098039 0.27450980 0.65882353
v -0.14312196 0.11602623 -13.94165993 0.25098039 0.27450980 0.65882353
v -0.12801889 0.09451082 -13.93822384 0.25098039 0.27450980 0.65882353
v -0.12777925 0.09883939 -13.93806458 0.25098039 0.27450980 0.65882353
v -0.14269230 0.10226139 -13.93886185 0.25098039 0.27450980 0.65882353
v -0.13924691 0.10154136 -13.94192314 0.25098039 0.27450980 0.65882353
v -0.13820329 0.09832044 -13.94230366 0.25098039 0.27450980 0.65882353
v -0.14201659 0.09786209 -13.93994904 0.25098039 0.27450980 0.65882353
v -0.13459314 0.12098978 -13.95095444 0.25098039 0.27450980 0.65882353
v -0.12967172 0.12059205 -13.94970989 0.25098039 0.27450980 0.65882353
v -0.12970087 0.11614020 -13.94797802 0.25098039 0.27450980 0.65882353
v -0.13512811 0.11349020 -13.94691086 0.25098039 0.27450980 0.65882353
v -0.12599407 0.11633515 -13.94393635 0.25098039 0.27450980 0.65882353
v -0.14343826 0.10264074 -13.93493938 0.25098039 0.27450980 0.65882353
v -0.14103264 0.10316511 -13.92975712 0.25098039 0.27450980 0.65882353
v -0.14314671 0.12066031 -13.93300152 0.25098039 0.27450980 0.65882353
v -0.14428484 0.11922233 -13.93736553 0.25098039 0.27450980 0.65882353
v -0.12730326 0.10159653 -13.93752670 0.25098039 0.27450980 0.65882353
v -0.13496348 0.10110319 -13.94245338 0.25098039 0.27450980 0.65882353
v -0.13063741 0.10095043 -13.94129276 0.25098039 0.27450980 0.65882353
v -0.13511214 0.10373253 -13.92729568 0.25098039 0.27450980 0.65882353
v -0.14049767 0.09842323 -13.93045425 0.25098039 0.27450980 0.65882353
v -0.14216892 0.08506490 -13.93896770 0.25098039 0.27450980 0.65882353
v -0.14293692 0.09436491 -13.93647289 0.25098039 0.27450980 0.65882353
v -0.14149687 0.09454306 -13.94111443 0.25098039 0.27450980 0.65882353
v -0.14141962 0.08561400 -13.94181538 0.25098039 0.27450980 0.65882353
v -0.14294027 0.09800541 -13.93559074 0.25098039 0.27450980 0.65882353
v -0.14038201 0.09389475 -13.93155861 0.25098039 0.27450980 0.65882353
v -0.12953462 0.08634285 -13.94373512 0.25098039 0.27450980 0.65882353
v -0.13449755 0.08702406 -13.94509411 0.25098039 0.27450980 0.65882353
v -0.12786064 0.08582874 -13.94108105 0.25098039 0.27450980 0.65882353
v -0.13585478 0.12216413 -13.93042278 0.25098039 0.27450980 0.65882353
v -0.12983425 0.08441770 -13.93401051 0.25098039 0.27450980 0.65882353
v -0.12760219 0.08461232 -13.93774509 0.25098039 0.27450980 0.65882353
v -0.13747472 0.09491334 -13.94320107 0.25098039 0.27450980 0.65882353
v -0.13875632 0.08664665 -13.94415092 0.25098039 0.27450980 0.65882353
v -0.14035255 0.08446213 -13.93514347 0.25098039 0.27450980 0.65882353
v -0.13500941 0.08464678 -13.93218040 0.25098039 0.27450980 0.65882353
v -0.13963446 0.07976951 -13.93727875 0.25098039 0.27450980 0.65882353
v -0.13415211 0.08007222 -13.93429565 0.25098039 0.27450980 0.65882353
v -0.12885782 0.08024064 -13.93673706 0.25098039 0.27450980 0.65882353
v -0.12749249 0.08200225 -13.93973541 0.25098039 0.27450980 0.65882353
v -0.12763634 0.08328523 -13.94263172 0.25098039 0.27450980 0.65882353
v -0.14156312 0.08105811 -13.94102287 0.25098039 0.27450980 0.65882353
v -0.14088395 0.08233029 -13.94372463 0.25098039 0.27450980 0.65882353
v -0.13849151 0.08430442 -13.94573784 0.25098039 0.27450980 0.65882353
v -0.14083508 0.07722279 -13.94341469 0.25098039 0.27450980 0.65882353
v -0.13829789 0.07430173 -13.94065285 0.25098039 0.27450980 0.65882353
v -0.12805068 0.06920955 -13.94810677 0.25098039 0.27450980 0.65882353
v -0.12795097 0.07249385 -13.94539928 0.25098039 0.27450980 0.65882353
v -0.12866519 0.07180296 -13.94459820 0.25098039 0.27450980 0.65882353
v -0.12810948 0.06846760 -13.94716454 0.25098039 0.27450980 0.65882353
v -0.12872511 0.07552869 -13.94078541 0.25098039 0.27450980 0.65882353
v -0.12969027 0.07413156 -13.94113350 0.25098039 0.27450980 0.65882353
v -0.13288879 0.07447457 -13.93958569 0.25098039 0.27450980 0.65882353
v -0.13228872 0.07024708 -13.94300556 0.25098039 0.27450980 0.65882353
v -0.13738917 0.07019761 -13.94478321 0.25098039 0.27450980 0.65882353
v -0.13630894 0.06685491 -13.94729614 0.25098039 0.27450980 0.65882353
v -0.13195363 0.06706253 -13.94528389 0.25098039 0.27450980 0.65882353
v -0.13669190 0.07293077 -13.94098854 0.25098039 0.27450980 0.65882353
v -0.12863420 0.06586988 -13.94820690 0.25098039 0.27450980 0.65882353
v -0.12804645 0.06529263 -13.94948483 0.25098039 0.27450980 0.65882353
v -0.13307494 0.07562920 -13.93792915 0.25098039 0.27450980 0.65882353
v -0.12702110 0.07867762 -13.94295025 0.25098039 0.27450980 0.65882353
v -0.12693319 0.07329047 -13.94758129 0.25098039 0.27450980 0.65882353
v -0.12730576 0.06893629 -13.95043945 0.25098039 0.27450980 0.65882353
v -0.12878695 0.06555678 -13.95179176 0.25098039 0.27450980 0.65882353
v -0.12750277 0.07542391 -13.94922543 0.25098039 0.27450980 0.65882353
v -0.12768403 0.07026441 -13.95255089 0.25098039 0.27450980 0.65882353
v -0.12943411 0.06720012 -13.95383453 0.25098039 0.27450980 0.65882353
v -0.12951854 0.07735051 -13.95131493 0.25098039 0.27450980 0.65882353
v -0.12963755 0.07201324 -13.95370770 0.25098039 0.27450980 0.65882353
v -0.13011086 0.08290847 -13.94725513 0.25098039 0.27450980 0.65882353
v -0.12786961 0.08096067 -13.94528961 0.25098039 0.27450980 0.65882353
v -0.13042717 0.06892614 -13.95413208 0.25098039 0.27450980 0.65882353
v -0.13145146 0.06352621 -13.94915581 0.25098039 0.27450980 0.65882353
v -0.13189945 0.06435251 -13.95214176 0.25098039 0.27450980 0.65882353
v -0.13173226 0.06419902 -13.94781399 0.25098039 0.27450980 0.65882353
v -0.13864022 0.07072493 -13.94544315 0.25098039 0.27450980 0.65882353
v -0.13745055 0.06673931 -13.94863892 0.25098039 0.27450980 0.65882353
v -0.13982674 0.07216306 -13.94728279 0.25098039 0.27450980 0.65882353
v -0.13786668 0.06772336 -13.95064640 0.25098039 0.27450980 0.65882353
v -0.13517436 0.06411093 -13.94986725 0.25098039 0.27450980 0.65882353
v -0.13444075 0.06474575 -13.94805050 0.25098039 0.27450980 0.65882353
v -0.13002808 0.08441130 -13.94575405 0.25098039 0.27450980 0.65882353
v -0.13424042 0.08509178 -13.94625187 0.25098039 0.27450980 0.65882353
v -0.13435958 0.08332716 -13.94789314 0.25098039 0.27450980 0.65882353
v -0.13333766 0.07795411 -13.95215130 0.25098039 0.27450980 0.65882353
v -0.13844529 0.08221643 -13.94729137 0.25098039 0.27450980 0.65882353
v -0.14051361 0.07968880 -13.94538403 0.25098039 0.27450980 0.65882353
v -0.13932255 0.07412961 -13.94935417 0.25098039 0.27450980 0.65882353
v -0.13741216 0.07619157 -13.95141411 0.25098039 0.27450980 0.65882353
v -0.13727339 0.06898648 -13.95253181 0.25098039 0.27450980 0.65882353
v -0.13568605 0.07125011 -13.95403957 0.25098039 0.27450980 0.65882353
v -0.13272208 0.07261257 -13.95465183 0.25098039 0.27450980 0.65882353
v -0.13452435 0.06641537 -13.95344543 0.25098039 0.27450980 0.65882353
v -0.13502786 0.06491131 -13.95219803 0.25098039 0.27450980 0.65882353
v -0.13219348 0.06615494 -13.95367432 0.25098039 0.27450980 0.65882353
v -0.13396011 0.06821446 -13.95438099 0.25098039 0.27450980 0.65882353
v -0.13232860 0.06861001 -13.95447159 0.25098039 0.27450980 0.65882353
v -0.14457516 0.12225690 -13.94014645 0.25098039 0.27450980 0.65882353
v -0.07971436 0.15156609 -14.02453709 0.25098039 0.27450980 0.65882353
v -0.08130541 0.14808849 -14.02020741 0.25098039 0.27450980 0.65882353
v -0.09379776 0.13955453 -14.02696800 0.25098039 0.27450980 0.65882353
v -0.08937833 0.13978156 -14.02137852 0.25098039 0.27450980 0.65882353
v -0.09494224 0.14178759 -14.03313923 0.25098039 0.27450980 0.65882353
v -0.09016621 0.15034325 -14.03751659 0.25098039 0.27450980 0.65882353
v -0.09410654 0.14657778 -14.03622150 0.25098039 0.27450980 0.65882353
v -0.08488098 0.14307997 -14.01916981 0.25098039 0.27450980 0.65882353
v -0.08053440 0.15415891 -14.02965164 0.25098039 0.27450980 0.65882353
v -0.08494867 0.15421218 -14.03528881 0.25098039 0.27450980 0.65882353
v -0.07474138 0.14873096 -14.03284073 0.25098039 0.27450980 0.65882353
v -0.07947429 0.14820576 -14.03902626 0.25098039 0.27450980 0.65882353
v -0.08474232 0.14424212 -14.04167652 0.25098039 0.27450980 0.65882353
v -0.08996490 0.14062358 -14.03928375 0.25098039 0.27450980 0.65882353
v -0.09190214 0.13752936 -14.03605270 0.25098039 0.27450980 0.65882353
v -0.07620941 0.14617619 -14.02616405 0.25098039 0.27450980 0.65882353
v -0.07851017 0.14282957 -14.02207184 0.25098039 0.27450980 0.65882353
v -0.08354780 0.13877359 -14.02105045 0.25098039 0.27450980 0.65882353
v -0.07270348 0.13863692 -14.02687168 0.25098039 0.27450980 0.65882353
v -0.06955336 0.13168031 -14.03373909 0.25098039 0.27450980 0.65882353
v -0.07484637 0.11758657 -14.04496670 0.25098039 0.27450980 0.65882353
v -0.07855310 0.12318940 -14.04397392 0.25098039 0.27450980 0.65882353
v -0.07570732 0.12387801 -14.04384613 0.25098039 0.27450980 0.65882353
v -0.07251318 0.11898118 -14.04539967 0.25098039 0.27450980 0.65882353
v -0.07871354 0.12866603 -14.04331970 0.25098039 0.27450980 0.65882353
v -0.07656756 0.12778926 -14.04253578 0.25098039 0.27450980 0.65882353
v -0.07313903 0.13024621 -14.03948498 0.25098039 0.27450980 0.65882353
v -0.07014242 0.12583917 -14.04129314 0.25098039 0.27450980 0.65882353
v -0.07006940 0.12960908 -14.03563690 0.25098039 0.27450980 0.65882353
v -0.06808750 0.12609798 -14.03537655 0.25098039 0.27450980 0.65882353
v -0.06745127 0.12124081 -14.04239082 0.25098039 0.27450980 0.65882353
v -0.06897087 0.11678977 -14.04579544 0.25098039 0.27450980 0.65882353
v -0.06534064 0.11699046 -14.04314327 0.25098039 0.27450980 0.65882353
v -0.07062066 0.11434345 -14.04467869 0.25098039 0.27450980 0.65882353
v -0.07213065 0.13230690 -14.04080391 0.25098039 0.27450980 0.65882353
v -0.08517677 0.13180719 -14.04207706 0.25098039 0.27450980 0.65882353
v -0.08220217 0.12325583 -14.04232407 0.25098039 0.27450980 0.65882353
v -0.07771771 0.11661201 -14.04258442 0.25098039 0.27450980 0.65882353
v -0.07242666 0.11311559 -14.04221058 0.25098039 0.27450980 0.65882353
v -0.08466054 0.12257087 -14.03849220 0.25098039 0.27450980 0.65882353
v -0.07973929 0.11680990 -14.03841114 0.25098039 0.27450980 0.65882353
v -0.07464640 0.11390976 -14.03751183 0.25098039 0.27450980 0.65882353
v -0.08463913 0.12230972 -14.03368664 0.25098039 0.27450980 0.65882353
v -0.07956432 0.11741538 -14.03443146 0.25098039 0.27450980 0.65882353
v -0.09014282 0.13359019 -14.03122902 0.25098039 0.27450980 0.65882353
v -0.08972362 0.13292676 -14.03751659 0.25098039 0.27450980 0.65882353
v -0.07572155 0.11523803 -14.03509808 0.25098039 0.27450980 0.65882353
v -0.06488441 0.11450450 -14.04235935 0.25098039 0.27450980 0.65882353
v -0.06709296 0.11316128 -14.03924274 0.25098039 0.27450980 0.65882353
v -0.06776413 0.12681967 -14.03183746 0.25098039 0.27450980 0.65882353
v -0.06486697 0.12210052 -14.03668308 0.25098039 0.27450980 0.65882353
v -0.06529722 0.12150244 -14.03348541 0.25098039 0.27450980 0.65882353
v -0.06926109 0.12758902 -14.02798843 0.25098039 0.27450980 0.65882353
v -0.06629817 0.12077772 -14.03062916 0.25098039 0.27450980 0.65882353
v -0.06360774 0.11728957 -14.03704834 0.25098039 0.27450980 0.65882353
v -0.06392148 0.11904229 -14.03933430 0.25098039 0.27450980 0.65882353
v -0.09195039 0.13646148 -14.02996445 0.25098039 0.27450980 0.65882353
v -0.08878960 0.13715766 -14.02411556 0.25098039 0.27450980 0.65882353
v -0.08676194 0.13471225 -14.02543354 0.25098039 0.27450980 0.65882353
v -0.08177903 0.12407216 -14.02821350 0.25098039 0.27450980 0.65882353
v -0.08157583 0.13534272 -14.02229977 0.25098039 0.27450980 0.65882353
v -0.07597780 0.13717702 -14.02356339 0.25098039 0.27450980 0.65882353
v -0.07212608 0.12672752 -14.02541733 0.25098039 0.27450980 0.65882353
v -0.07686357 0.12549222 -14.02505016 0.25098039 0.27450980 0.65882353
v -0.06952551 0.11979415 -14.02882099 0.25098039 0.27450980 0.65882353
v -0.07266717 0.11920863 -14.02868080 0.25098039 0.27450980 0.65882353
v -0.07696845 0.11775691 -14.03085518 0.25098039 0.27450980 0.65882353
v -0.06855547 0.11601178 -14.03237629 0.25098039 0.27450980 0.65882353
v -0.06528845 0.11631254 -14.03416729 0.25098039 0.27450980 0.65882353
v -0.07038046 0.11377059 -14.03558826 0.25098039 0.27450980 0.65882353
v -0.07129680 0.11674683 -14.03139687 0.25098039 0.27450980 0.65882353
v -0.07315962 0.11542184 -14.03340244 0.25098039 0.27450980 0.65882353
v -0.14243388 0.12674725 -13.95143414 0.25098039 0.27450980 0.65882353
v -0.13637209 0.12606329 -13.95413876 0.25098039 0.27450980 0.65882353
v -0.14122234 0.13015297 -13.95642185 0.25098039 0.27450980 0.65882353
v -0.14638107 0.13743061 -13.96011066 0.25098039 0.27450980 0.65882353
v -0.15507510 0.14444539 -13.96034336 0.25098039 0.27450980 0.65882353
v -0.14038199 0.13875285 -13.96289062 0.25098039 0.27450980 0.65882353
v -0.13530889 0.13145529 -13.95846367 0.25098039 0.27450980 0.65882353
v -0.12864819 0.12519893 -13.95399189 0.25098039 0.27450980 0.65882353
v -0.13804857 0.14692649 -13.96863174 0.25098039 0.27450980 0.65882353
f 2 3 1
f 1 3 4
f 5 6 8
f 8 6 7
f 9 4 10
f 10 4 3
f 12 13 11
f 11 13 9
f 14 12 16
f 16 12 15
f 18 19 17
f 17 19 20
f 22 23 21
f 21 23 24
f 26 27 25
f 25 27 28
f 30 31 29
f 29 31 32
f 33 34 36
f 36 34 35
f 37 38 40
f 40 38 39
f 41 42 6
f 6 42 43
f 6 43 7
f 7 43 44
f 45 34 46
f 46 34 33
f 48 49 47
f 47 49 50
f 52 53 51
f 51 53 54
f 56 52 55
f 55 52 51
f 58 59 57
f 57 59 60
f 61 62 4
f 4 62 1
f 64 65 63
f 63 65 66
f 68 69 67
f 67 69 70
f 72 73 71
f 71 73 74
f 76 77 75
f 75 77 78
f 53 79 54
f 54 79 80
f 82 83 81
f 81 83 84
f 85 86 52
f 52 86 53
f 57 60 87
f 87 60 88
f 89 90 43
f 43 90 44
f 43 42 89
f 89 42 91
f 40 39 92
f 92 39 93
f 94 70 64
f 64 70 69
f 13 61 9
f 9 61 4
f 25 28 69
f 69 28 95
f 96 25 68
f 68 25 69
f 98 99 97
f 97 99 100
f 101 102 104
f 104 102 103
f 106 30 105
f 105 30 29
f 51 54 107
f 107 54 108
f 54 80 108
f 108 80 109
f 111 112 110
f 110 112 113
f 115 5 114
f 114 5 116
f 115 41 5
f 5 41 6
f 36 35 111
f 111 35 117
f 35 118 117
f 117 118 119
f 34 120 35
f 35 120 118
f 34 45 120
f 120 45 121
f 125 126 124
f 124 126 127
f 128 129 14
f 14 129 130
f 33 131 46
f 46 131 132
f 133 94 63
f 63 94 64
f 134 135 137
f 137 135 136
f 139 140 138
f 138 140 141
f 77 142 78
f 78 142 143
f 144 145 20
f 20 145 146
f 148 149 147
f 147 149 72
f 151 152 150
f 150 152 153
f 82 101 83
f 83 101 104
f 101 82 155
f 155 82 154
f 156 157 58
f 58 157 59
f 158 68 147
f 147 68 67
f 159 146 15
f 15 146 16
f 68 158 96
f 96 158 160
f 129 66 130
f 130 66 65
f 162 163 161
f 161 163 164
f 166 167 165
f 165 167 168
f 170 171 169
f 169 171 172
f 174 171 173
f 173 171 170
f 176 177 175
f 175 177 178
f 180 181 179
f 179 181 24
f 182 183 21
f 21 183 184
f 81 185 82
f 82 185 154
f 186 187 188
f 188 187 144
f 158 71 160
f 160 71 189
f 190 135 157
f 157 135 59
f 169 172 139
f 139 172 140
f 147 72 158
f 158 72 71
f 192 193 191
f 191 193 194
f 167 166 49
f 49 166 195
f 196 190 50
f 50 190 157
f 197 198 200
f 200 198 199
f 21 24 182
f 182 24 181
f 146 159 20
f 20 159 17
f 182 181 81
f 81 181 185
f 201 185 180
f 180 185 181
f 202 203 83
f 83 203 84
f 205 206 204
f 204 206 85
f 207 22 184
f 184 22 21
f 179 24 208
f 208 24 23
f 208 209 179
f 179 209 205
f 209 210 205
f 205 210 206
f 212 206 211
f 211 206 210
f 179 205 180
f 180 205 204
f 213 176 88
f 88 176 214
f 86 85 212
f 212 85 206
f 193 217 218
f 217 219 218
f 218 219 220
f 219 18 220
f 220 18 17
f 19 221 20
f 20 221 144
f 222 223 225
f 225 223 224
f 175 226 176
f 176 226 214
f 227 87 214
f 214 87 88
f 220 17 228
f 228 17 159
f 134 213 60
f 60 213 88
f 138 229 151
f 151 229 152
f 193 192 210
f 210 192 211
f 230 194 218
f 218 194 193
f 231 232 228
f 228 232 230
f 233 234 91
f 91 234 89
f 235 236 93
f 93 236 92
f 230 232 234
f 234 232 237
f 47 238 48
f 48 238 239
f 240 191 235
f 235 191 236
f 5 8 116
f 116 8 241
f 242 243 189
f 189 243 160
f 244 245 98
f 98 245 99
f 156 246 47
f 47 246 238
f 76 247 77
f 77 247 248
f 250 125 249
f 249 125 124
f 252 253 251
f 251 253 254
f 111 110 36
f 36 110 255
f 256 33 255
f 255 33 36
f 257 258 154
f 154 258 155
f 63 169 133
f 133 169 139
f 66 170 63
f 63 170 169
f 173 170 129
f 129 170 66
f 129 128 173
f 173 128 259
f 128 260 259
f 259 260 261
f 213 134 262
f 262 134 137
f 263 264 186
f 186 264 187
f 112 265 113
f 113 265 266
f 11 267 268
f 234 233 230
f 230 233 194
f 153 269 70
f 70 269 67
f 175 178 165
f 165 178 141
f 150 153 94
f 94 153 70
f 271 221 270
f 270 221 207
f 269 153 272
f 272 153 152
f 121 45 109
f 109 45 108
f 47 50 156
f 156 50 157
f 57 273 58
f 58 273 274
f 145 275 260
f 260 275 261
f 276 149 143
f 143 149 78
f 148 269 75
f 75 269 272
f 207 277 270
f 270 277 278
f 195 196 49
f 49 196 50
f 59 135 60
f 60 135 134
f 83 104 202
f 202 104 279
f 149 148 78
f 78 148 75
f 247 278 248
f 248 278 277
f 183 182 84
f 84 182 81
f 48 239 281
f 281 239 282
f 227 223 283
f 283 223 222
f 223 226 224
f 224 226 168
f 281 282 224
f 224 282 225
f 165 168 175
f 175 168 226
f 264 263 138
f 138 263 229
f 14 16 128
f 128 16 260
f 220 228 218
f 218 228 230
f 87 227 284
f 284 227 283
f 260 16 145
f 145 16 146
f 244 98 258
f 258 98 155
f 58 274 156
f 156 274 246
f 107 285 51
f 51 285 55
f 243 286 160
f 160 286 96
f 234 237 89
f 89 237 90
f 46 132 107
f 107 132 285
f 253 252 249
f 249 252 250
f 286 26 96
f 96 26 25
f 106 105 287
f 287 105 288
f 272 152 289
f 289 152 229
f 138 151 139
f 139 151 133
f 183 290 161
f 161 290 162
f 291 292 277
f 277 292 293
f 151 150 133
f 133 150 94
f 262 275 177
f 177 275 187
f 144 187 145
f 145 187 275
f 273 57 284
f 284 57 87
f 174 136 190
f 190 136 135
f 111 117 112
f 112 117 38
f 117 119 38
f 38 119 123
f 112 38 265
f 265 38 37
f 287 288 254
f 254 288 251
f 228 159 231
f 231 159 15
f 223 227 226
f 226 227 214
f 147 67 148
f 148 67 269
f 224 168 281
f 281 168 167
f 199 163 200
f 200 163 162
f 45 46 108
f 108 46 107
f 281 167 48
f 48 167 49
f 161 164 291
f 291 164 292
f 38 123 39
f 293 294 277
f 277 294 248
f 284 283 296
f 296 283 295
f 284 296 273
f 273 296 297
f 274 273 298
f 298 273 297
f 246 274 299
f 299 274 298
f 283 222 295
f 295 222 300
f 222 225 300
f 300 225 301
f 301 225 302
f 302 225 282
f 303 304 300
f 300 304 295
f 306 307 305
f 305 307 308
f 309 310 308
f 308 310 305
f 308 307 312
f 312 307 311
f 313 314 312
f 312 314 315
f 311 316 312
f 312 316 313
f 317 304 311
f 311 304 316
f 315 309 312
f 312 309 308
f 318 319 321
f 321 319 320
f 319 318 309
f 309 318 310
f 311 307 317
f 317 307 306
f 306 297 317
f 317 297 296
f 306 322 297
f 297 322 298
f 305 323 306
f 306 323 322
f 323 305 324
f 324 305 310
f 304 317 295
f 295 317 296
f 318 325 310
f 310 325 324
f 323 324 326
f 326 324 327
f 324 325 327
f 327 325 328
f 326 327 329
f 329 327 330
f 329 331 326
f 326 331 332
f 333 330 328
f 328 330 327
f 323 326 322
f 322 326 332
f 322 332 298
f 298 332 299
f 325 318 334
f 334 318 321
f 313 316 335
f 335 316 304
f 335 336 313
f 313 336 314
f 304 303 335
f 335 303 337
f 336 335 338
f 338 335 337
f 336 339 314
f 314 339 340
f 246 299 238
f 238 299 341
f 239 342 282
f 282 342 302
f 342 239 341
f 341 239 238
f 341 331 342
f 342 331 343
f 331 329 343
f 343 329 344
f 342 343 302
f 302 343 345
f 341 299 331
f 331 299 332
f 346 301 345
f 345 301 302
f 346 303 301
f 301 303 300
f 347 337 346
f 346 337 303
f 347 346 348
f 348 346 345
f 349 347 350
f 350 347 348
f 343 344 345
f 345 344 348
f 344 351 348
f 348 351 350
f 337 347 338
f 338 347 349
f 353 338 352
f 352 338 349
f 352 355 354
f 354 355 356
f 352 349 355
f 355 349 350
f 352 354 353
f 353 354 334
f 353 334 339
f 339 334 321
f 339 336 353
f 353 336 338
f 329 330 344
f 344 330 351
f 356 351 333
f 333 351 330
f 356 355 351
f 351 355 350
f 354 356 328
f 328 356 333
f 328 325 354
f 354 325 334
f 309 315 319
f 319 315 320
f 320 340 321
f 321 340 339
f 320 315 340
f 340 315 314
f 137 136 261
f 261 136 259
f 140 166 141
f 141 166 165
f 172 171 195
f 195 171 196
f 171 174 196
f 196 174 190
f 178 177 264
f 264 177 187
f 172 195 140
f 140 195 166
f 137 261 262
f 262 261 275
f 178 264 141
f 141 264 138
f 262 177 213
f 213 177 176
f 136 174 259
f 259 174 173
f 358 359 357
f 357 359 360
f 362 363 361
f 361 363 364
f 361 364 365
f 365 364 366
f 367 368 370
f 370 368 369
f 76 371 247
f 247 371 372
f 373 374 362
f 362 374 363
f 376 377 375
f 375 377 378
f 289 229 380
f 380 229 379
f 381 379 263
f 263 379 229
f 383 384 382
f 382 384 385
f 386 368 374
f 374 368 363
f 76 289 371
f 371 289 380
f 377 376 359
f 359 376 387
f 388 386 360
f 360 386 374
f 389 383 366
f 366 383 390
f 392 393 391
f 391 393 394
f 383 382 390
f 390 382 395
f 396 365 390
f 390 365 366
f 389 366 367
f 367 366 364
f 357 397 358
f 358 397 398
f 373 399 357
f 357 399 397
f 389 367 400
f 400 367 370
f 382 385 375
f 375 385 372
f 357 360 373
f 373 360 374
f 361 401 362
f 362 401 402
f 387 388 359
f 359 388 360
f 363 368 364
f 364 368 367
f 358 398 403
f 403 398 404
f 396 392 405
f 405 392 391
f 392 395 393
f 393 395 378
f 393 403 394
f 394 403 404
f 375 378 382
f 382 378 395
f 365 396 406
f 406 396 405
f 362 402 373
f 373 402 399
f 271 270 400
f 400 270 384
f 401 361 406
f 406 361 365
f 381 369 386
f 386 369 368
f 392 396 395
f 395 396 390
f 393 378 403
f 403 378 377
f 403 377 358
f 358 377 359
f 406 405 408
f 408 405 407
f 406 408 401
f 401 408 409
f 401 409 402
f 402 409 410
f 402 410 399
f 399 410 411
f 405 391 407
f 407 391 412
f 391 394 412
f 412 394 413
f 394 404 413
f 413 404 414
f 415 416 412
f 412 416 407
f 418 419 417
f 417 419 420
f 421 422 418
f 418 422 419
f 419 422 424
f 424 422 423
f 425 426 424
f 424 426 427
f 423 428 424
f 424 428 425
f 427 420 424
f 424 420 419
f 420 429 417
f 417 429 430
f 423 422 431
f 431 422 421
f 421 409 431
f 431 409 408
f 421 432 409
f 409 432 410
f 418 433 421
f 421 433 432
f 434 433 417
f 417 433 418
f 431 416 423
f 423 416 428
f 416 431 407
f 407 431 408
f 435 434 430
f 430 434 417
f 433 434 436
f 436 434 437
f 434 435 437
f 437 435 438
f 436 437 439
f 439 437 440
f 439 441 436
f 436 441 442
f 438 443 437
f 437 443 440
f 436 442 433
f 433 442 432
f 432 442 410
f 410 442 411
f 435 430 445
f 445 430 444
f 430 429 444
f 444 429 446
f 425 428 447
f 447 428 416
f 426 425 448
f 448 425 447
f 416 415 447
f 447 415 449
f 447 449 448
f 448 449 450
f 451 452 448
f 448 452 426
f 446 452 444
f 444 452 451
f 399 411 397
f 397 411 453
f 398 454 404
f 404 454 414
f 454 398 453
f 453 398 397
f 453 441 454
f 454 441 455
f 441 439 455
f 455 439 456
f 454 455 414
f 414 455 457
f 441 453 442
f 442 453 411
f 458 413 457
f 457 413 414
f 458 415 413
f 413 415 412
f 458 459 415
f 415 459 449
f 459 458 460
f 460 458 457
f 461 459 462
f 462 459 460
f 455 456 457
f 457 456 460
f 456 463 460
f 460 463 462
f 459 461 449
f 449 461 450
f 465 450 464
f 464 450 461
f 464 467 466
f 466 467 468
f 464 461 467
f 467 461 462
f 464 466 465
f 465 466 445
f 465 445 451
f 451 445 444
f 451 448 465
f 465 448 450
f 439 440 456
f 456 440 463
f 468 463 443
f 443 463 440
f 468 467 463
f 463 467 462
f 466 468 438
f 438 468 443
f 438 435 466
f 466 435 445
f 420 427 429
f 429 427 446
f 446 427 452
f 452 427 426
f 370 369 188
f 188 369 186
f 371 376 372
f 372 376 375
f 380 379 387
f 387 379 388
f 379 381 388
f 388 381 386
f 385 384 278
f 278 384 270
f 380 387 371
f 371 387 376
f 400 370 271
f 271 370 188
f 385 278 372
f 372 278 247
f 400 384 389
f 389 384 383
f 369 381 186
f 186 381 263
f 221 271 144
f 144 271 188
f 221 19 207
f 207 19 22
f 19 18 22
f 22 18 23
f 18 219 23
f 23 219 208
f 469 470 472
f 472 470 471
f 474 475 473
f 473 475 476
f 473 476 477
f 477 476 478
f 480 481 479
f 479 481 482
f 483 484 474
f 474 484 475
f 486 487 485
f 485 487 488
f 489 490 77
f 77 490 142
f 491 489 248
f 248 489 77
f 493 494 492
f 492 494 495
f 496 480 484
f 484 480 475
f 486 497 487
f 487 497 471
f 498 496 472
f 472 496 484
f 499 493 478
f 478 493 500
f 501 502 504
f 504 502 503
f 493 492 500
f 500 492 505
f 506 477 500
f 500 477 478
f 499 478 479
f 479 478 476
f 469 507 470
f 470 507 508
f 483 509 469
f 469 509 507
f 479 482 499
f 499 482 510
f 492 495 485
f 485 495 511
f 483 469 484
f 484 469 472
f 473 512 474
f 474 512 513
f 497 498 471
f 471 498 472
f 475 480 476
f 476 480 479
f 470 508 514
f 514 508 515
f 506 502 516
f 516 502 501
f 503 502 488
f 488 502 505
f 514 515 503
f 503 515 504
f 485 488 492
f 492 488 505
f 477 506 517
f 517 506 516
f 474 513 483
f 483 513 509
f 510 292 494
f 494 292 164
f 512 473 517
f 517 473 477
f 491 481 496
f 496 481 480
f 502 506 505
f 505 506 500
f 503 488 514
f 514 488 487
f 514 487 470
f 470 487 471
f 517 516 519
f 519 516 518
f 517 519 512
f 512 519 520
f 512 520 513
f 513 520 521
f 513 521 509
f 509 521 522
f 516 501 518
f 518 501 523
f 501 504 523
f 523 504 524
f 524 504 525
f 525 504 515
f 526 527 523
f 523 527 518
f 529 530 528
f 528 530 531
f 532 533 529
f 529 533 530
f 530 533 535
f 535 533 534
f 536 537 535
f 535 537 538
f 534 539 535
f 535 539 536
f 538 531 535
f 535 531 530
f 540 541 531
f 531 541 528
f 533 532 534
f 534 532 542
f 532 520 542
f 542 520 519
f 532 543 520
f 520 543 521
f 529 544 532
f 532 544 543
f 544 529 545
f 545 529 528
f 534 542 539
f 539 542 527
f 527 542 518
f 518 542 519
f 541 546 528
f 528 546 545
f 547 544 548
f 548 544 545
f 546 549 545
f 545 549 548
f 550 547 551
f 551 547 548
f 547 550 553
f 553 550 552
f 549 554 548
f 548 554 551
f 544 547 543
f 543 547 553
f 543 553 521
f 521 553 522
f 546 541 556
f 556 541 555
f 541 540 555
f 555 540 557
f 536 539 558
f 558 539 527
f 537 536 559
f 559 536 558
f 527 526 558
f 558 526 560
f 559 558 561
f 561 558 560
f 559 562 537
f 537 562 563
f 557 563 555
f 555 563 562
f 509 522 507
f 507 522 564
f 508 565 515
f 515 565 525
f 565 508 564
f 564 508 507
f 564 552 565
f 565 552 566
f 552 550 566
f 566 550 567
f 565 566 525
f 525 566 568
f 564 522 552
f 552 522 553
f 569 524 568
f 568 524 525
f 569 526 524
f 524 526 523
f 570 560 569
f 569 560 526
f 570 569 571
f 571 569 568
f 572 570 573
f 573 570 571
f 566 567 568
f 568 567 571
f 567 574 571
f 571 574 573
f 570 572 560
f 560 572 561
f 576 561 575
f 575 561 572
f 575 578 577
f 577 578 579
f 575 572 578
f 578 572 573
f 575 577 576
f 576 577 556
f 576 556 562
f 562 556 555
f 562 559 576
f 576 559 561
f 550 551 567
f 567 551 574
f 579 574 554
f 554 574 551
f 579 578 574
f 574 578 573
f 579 554 577
f 577 554 549
f 549 546 577
f 577 546 556
f 531 538 540
f 540 538 557
f 557 538 563
f 563 538 537
f 481 294 482
f 482 294 293
f 580 486 511
f 511 486 485
f 490 489 497
f 497 489 498
f 489 491 498
f 498 491 496
f 163 495 164
f 164 495 494
f 580 490 486
f 486 490 497
f 482 293 510
f 510 293 292
f 495 163 511
f 511 163 199
f 494 493 510
f 510 493 499
f 481 491 294
f 294 491 248
f 582 583 581
f 581 583 584
f 586 587 585
f 585 587 588
f 585 588 589
f 589 588 590
f 592 593 591
f 591 593 594
f 595 596 598
f 598 596 597
f 599 600 586
f 586 600 587
f 601 602 604
f 604 602 603
f 605 606 608
f 608 606 607
f 609 607 200
f 200 607 606
f 610 611 613
f 613 611 612
f 600 614 587
f 587 614 592
f 596 605 597
f 597 605 608
f 602 615 603
f 603 615 583
f 616 614 584
f 584 614 600
f 611 618 617
f 617 618 590
f 620 621 619
f 619 621 622
f 610 623 611
f 611 623 618
f 624 589 618
f 618 589 590
f 617 590 591
f 591 590 588
f 581 625 582
f 582 625 626
f 599 627 581
f 581 627 625
f 591 594 617
f 617 594 628
f 601 610 598
f 598 610 613
f 581 584 599
f 599 584 600
f 585 629 586
f 586 629 630
f 615 616 583
f 583 616 584
f 587 592 588
f 588 592 591
f 582 626 631
f 631 626 632
f 624 620 633
f 633 620 619
f 621 620 604
f 604 620 623
f 631 632 621
f 621 632 622
f 610 601 623
f 623 601 604
f 589 624 634
f 634 624 633
f 586 630 599
f 599 630 627
f 203 202 628
f 628 202 612
f 629 585 634
f 634 585 589
f 609 593 614
f 614 593 592
f 620 624 623
f 623 624 618
f 631 621 603
f 603 621 604
f 582 631 583
f 583 631 603
f 634 633 636
f 636 633 635
f 634 636 629
f 629 636 637
f 629 637 630
f 630 637 638
f 630 638 627
f 627 638 639
f 633 619 635
f 635 619 640
f 619 622 640
f 640 622 641
f 641 622 642
f 642 622 632
f 644 635 643
f 643 635 640
f 645 646 648
f 648 646 647
f 649 650 646
f 646 650 647
f 647 650 652
f 652 650 651
f 652 653 655
f 655 653 654
f 651 656 652
f 652 656 653
f 655 648 652
f 652 648 647
f 648 657 645
f 645 657 658
f 650 649 651
f 651 649 659
f 649 637 659
f 659 637 636
f 649 660 637
f 637 660 638
f 661 660 646
f 646 660 649
f 662 661 645
f 645 661 646
f 651 659 656
f 656 659 644
f 644 659 635
f 635 659 636
f 663 662 658
f 658 662 645
f 664 661 665
f 665 661 662
f 663 666 662
f 662 666 665
f 667 664 668
f 668 664 665
f 664 667 670
f 670 667 669
f 666 671 665
f 665 671 668
f 661 664 660
f 660 664 670
f 660 670 638
f 638 670 639
f 658 672 663
f 663 672 673
f 658 657 672
f 672 657 674
f 653 656 675
f 675 656 644
f 653 675 654
f 654 675 676
f 675 644 677
f 677 644 643
f 676 675 678
f 678 675 677
f 679 680 676
f 676 680 654
f 674 680 672
f 672 680 679
f 627 639 625
f 625 639 681
f 626 682 632
f 632 682 642
f 681 682 625
f 625 682 626
f 669 683 681
f 681 683 682
f 667 684 669
f 669 684 683
f 682 683 642
f 642 683 685
f 681 639 669
f 669 639 670
f 686 641 685
f 685 641 642
f 641 686 640
f 640 686 643
f 686 687 643
f 643 687 677
f 687 686 688
f 688 686 685
f 689 687 690
f 690 687 688
f 683 684 685
f 685 684 688
f 684 691 688
f 688 691 690
f 687 689 677
f 677 689 678
f 693 678 692
f 692 678 689
f 692 695 694
f 694 695 696
f 692 689 695
f 695 689 690
f 692 694 693
f 693 694 673
f 693 673 679
f 679 673 672
f 679 676 693
f 693 676 678
f 684 667 691
f 691 667 668
f 696 691 671
f 671 691 668
f 696 695 691
f 691 695 690
f 694 696 666
f 666 696 671
f 666 663 694
f 694 663 673
f 648 655 657
f 657 655 674
f 674 655 680
f 680 655 654
f 593 162 594
f 594 162 290
f 598 597 601
f 601 597 602
f 615 608 616
f 616 608 607
f 607 609 616
f 616 609 614
f 697 595 613
f 613 595 598
f 597 608 602
f 602 608 615
f 594 290 628
f 628 290 203
f 628 612 617
f 617 612 611
f 593 609 162
f 162 609 200
f 105 29 698
f 698 29 699
f 268 126 701
f 701 126 700
f 126 125 700
f 700 125 702
f 252 703 250
f 250 703 704
f 32 268 705
f 705 268 701
f 288 105 706
f 706 105 698
f 29 32 699
f 699 32 705
f 707 251 706
f 706 251 288
f 250 704 125
f 125 704 702
f 703 252 707
f 707 252 251
f 706 708 707
f 707 708 709
f 707 709 703
f 703 709 710
f 703 710 704
f 704 710 711
f 704 711 702
f 702 711 712
f 706 698 708
f 708 698 713
f 698 699 713
f 713 699 714
f 699 705 714
f 714 705 715
f 717 708 716
f 716 708 713
f 719 720 718
f 718 720 721
f 722 723 719
f 719 723 720
f 724 725 723
f 723 725 720
f 724 726 725
f 725 726 727
f 728 721 725
f 725 721 720
f 721 728 729
f 729 728 730
f 729 731 721
f 721 731 718
f 724 723 732
f 732 723 722
f 722 710 732
f 732 710 709
f 722 733 710
f 710 733 711
f 719 734 722
f 722 734 733
f 734 719 735
f 735 719 718
f 724 732 726
f 726 732 717
f 717 732 708
f 708 732 709
f 731 736 718
f 718 736 735
f 737 734 738
f 738 734 735
f 736 739 735
f 735 739 738
f 740 737 741
f 741 737 738
f 737 740 743
f 743 740 742
f 739 744 738
f 738 744 741
f 734 737 733
f 733 737 743
f 733 743 711
f 711 743 712
f 736 731 746
f 746 731 745
f 731 729 745
f 745 729 730
f 727 726 747
f 747 726 717
f 748 727 749
f 749 727 747
f 747 717 750
f 750 717 716
f 749 747 751
f 751 747 750
f 749 752 748
f 748 752 753
f 730 753 745
f 745 753 752
f 728 725 748
f 748 725 727
f 730 728 753
f 753 728 748
f 700 702 754
f 754 702 712
f 705 701 715
f 715 701 755
f 754 755 700
f 700 755 701
f 742 756 754
f 754 756 755
f 740 757 742
f 742 757 756
f 755 756 715
f 715 756 758
f 754 712 742
f 742 712 743
f 759 714 758
f 758 714 715
f 714 759 713
f 713 759 716
f 759 760 716
f 716 760 750
f 760 759 761
f 761 759 758
f 762 760 763
f 763 760 761
f 756 757 758
f 758 757 761
f 757 764 761
f 761 764 763
f 760 762 750
f 750 762 751
f 766 751 765
f 765 751 762
f 767 765 769
f 769 765 768
f 765 762 768
f 768 762 763
f 765 767 766
f 766 767 746
f 766 746 752
f 752 746 745
f 752 749 766
f 766 749 751
f 757 740 764
f 764 740 741
f 769 764 744
f 744 764 741
f 769 768 764
f 764 768 763
f 767 769 739
f 739 769 744
f 739 736 767
f 767 736 746
f 219 217 208
f 208 217 209
f 209 217 210
f 210 217 193
f 198 580 199
f 199 580 511
f 76 75 289
f 289 75 272
f 277 207 291
f 291 207 184
f 290 183 203
f 203 183 84
f 490 580 142
f 142 580 198
f 142 198 143
f 143 198 197
f 149 276 72
f 72 276 73
f 104 103 279
f 279 103 770
f 770 596 279
f 279 596 595
f 605 596 771
f 771 596 770
f 771 770 772
f 772 770 103
f 772 103 773
f 773 103 102
f 155 774 101
f 101 774 102
f 773 102 97
f 97 102 774
f 775 773 100
f 100 773 97
f 773 775 772
f 772 775 776
f 772 776 771
f 771 776 777
f 200 606 197
f 197 606 777
f 189 71 778
f 778 71 74
f 97 774 98
f 98 774 155
f 183 161 184
f 184 161 291
f 777 276 197
f 197 276 143
f 777 606 771
f 771 606 605
f 613 612 697
f 697 612 202
f 595 697 279
f 279 697 202
f 73 276 776
f 776 276 777
f 776 775 73
f 73 775 74
f 100 778 775
f 775 778 74
f 778 100 189
f 189 100 99
f 245 242 99
f 99 242 189
f 131 33 256
f 28 1 95
f 95 1 62
f 27 2 28
f 28 2 1
f 265 115 266
f 266 115 114
f 95 62 69
f 69 62 64
f 62 61 64
f 64 61 65
f 61 13 65
f 65 13 130
f 13 12 130
f 130 12 14
f 31 11 32
f 32 11 268
f 15 12 31
f 31 12 11
f 31 30 15
f 15 30 231
f 30 106 231
f 231 106 232
f 287 237 106
f 106 237 232
f 254 90 287
f 287 90 237
f 253 44 254
f 254 44 90
f 253 249 44
f 44 249 7
f 267 127 268
f 268 127 126
f 10 3 241
f 241 3 116
f 3 2 116
f 116 2 114
f 2 27 114
f 114 27 266
f 27 26 266
f 266 26 113
f 26 286 113
f 113 286 110
f 286 243 110
f 110 243 255
f 243 242 255
f 255 242 256
f 242 245 256
f 256 245 131
f 245 244 131
f 131 244 132
f 265 37 115
f 115 37 41
f 41 37 42
f 42 37 40
f 92 91 40
f 40 91 42
f 236 233 92
f 92 233 91
f 191 194 236
f 236 194 233
f 258 285 244
f 244 285 132
f 257 55 258
f 258 55 285
f 257 154 201
f 201 154 185
f 56 201 204
f 204 201 180
f 55 257 56
f 56 257 201
f 204 85 56
f 56 85 52
f 86 122 53
f 53 122 79
f 212 215 86
f 86 215 122
f 211 216 212
f 212 216 215
f 192 280 211
f 211 280 216
f 191 240 192
f 192 240 280
f 249 124 7
f 7 124 8
f 124 127 8
f 8 127 241
f 127 267 241
f 241 267 10
f 10 267 9
f 9 267 11
f 93 39 235
f 235 39 240
f 39 123 240
f 240 123 280
f 123 119 280
f 280 119 216
f 119 118 216
f 216 118 215
f 118 120 215
f 215 120 122
f 120 121 122
f 122 121 79
f 121 109 79
f 79 109 80

