# https://github.com/mikedh/trimesh
v -0.08092897 -0.01556025 -16.00500870 0.25098039 0.27450980 0.65882353
v -0.08880109 -0.00998544 -16.00944138 0.25098039 0.27450980 0.65882353
v -0.08280863 -0.01433129 -16.01745033 0.25098039 0.27450980 0.65882353
v -0.07411554 -0.01938482 -16.01118660 0.25098039 0.27450980 0.65882353
v -0.09790334 0.00059518 -16.02767944 0.25098039 0.27450980 0.65882353
v -0.09507620 0.01168242 -16.03268242 0.25098039 0.27450980 0.65882353
v -0.08632079 0.00114524 -16.03920746 0.25098039 0.27450980 0.65882353
v -0.09057544 -0.00661788 -16.03444672 0.25098039 0.27450980 0.65882353
v -0.06768426 -0.02122709 -16.01508522 0.25098039 0.27450980 0.65882353
v -0.07787777 -0.01869485 -16.02321053 0.25098039 0.27450980 0.65882353
v -0.06326033 -0.01779547 -16.01691437 0.25098039 0.27450980 0.65882353
v -0.05334206 -0.01728832 -16.00387383 0.25098039 0.27450980 0.65882353
v -0.05873099 -0.02106864 -16.00571632 0.25098039 0.27450980 0.65882353
v -0.04873896 -0.02021939 -15.99593258 0.25098039 0.27450980 0.65882353
v -0.05315709 -0.00802024 -15.99889183 0.25098039 0.27450980 0.65882353
v -0.04981880 -0.01729689 -15.98679161 0.25098039 0.27450980 0.65882353
v -0.07216583 -0.00532698 -15.97272491 0.25098039 0.27450980 0.65882353
v -0.08380634 -0.00762360 -15.96686554 0.25098039 0.27450980 0.65882353
v -0.07657230 -0.02088317 -15.96289349 0.25098039 0.27450980 0.65882353
v -0.06558497 -0.01744122 -15.96990204 0.25098039 0.27450980 0.65882353
v -0.09645927 -0.02254155 -15.96082687 0.25098039 0.27450980 0.65882353
v -0.08516176 -0.02233007 -15.96141815 0.25098039 0.27450980 0.65882353
v -0.09214285 -0.00840736 -15.96455097 0.25098039 0.27450980 0.65882353
v -0.10204953 -0.00911956 -15.96379375 0.25098039 0.27450980 0.65882353
v -0.09493034 -0.01226410 -15.99720478 0.25098039 0.27450980 0.65882353
v -0.10229068 -0.00591430 -16.00046921 0.25098039 0.27450980 0.65882353
v -0.09688066 -0.00659344 -16.00201225 0.25098039 0.27450980 0.65882353
v -0.08987408 -0.01218829 -15.99946308 0.25098039 0.27450980 0.65882353
v -0.06053251 -0.01137765 -16.02960777 0.25098039 0.27450980 0.65882353
v -0.05926998 -0.00246375 -16.01868439 0.25098039 0.27450980 0.65882353
v -0.05886841 -0.01017123 -16.01637268 0.25098039 0.27450980 0.65882353
v -0.06361744 -0.01596531 -16.02923203 0.25098039 0.27450980 0.65882353
v -0.12547287 0.00845885 -16.00790596 0.25098039 0.27450980 0.65882353
v -0.12869132 0.02187177 -16.00659752 0.25098039 0.27450980 0.65882353
v -0.12363139 0.02393652 -16.00859833 0.25098039 0.27450980 0.65882353
v -0.12187161 0.01132734 -16.00889397 0.25098039 0.27450980 0.65882353
v -0.10658199 0.02327497 -16.02154350 0.25098039 0.27450980 0.65882353
v -0.10957970 0.03124690 -16.01650047 0.25098039 0.27450980 0.65882353
v -0.10146794 0.04237545 -16.01455116 0.25098039 0.27450980 0.65882353
v -0.09587894 0.03533848 -16.01837349 0.25098039 0.27450980 0.65882353
v -0.10108370 0.01657481 -16.02747917 0.25098039 0.27450980 0.65882353
v -0.09255865 0.02709772 -16.02608871 0.25098039 0.27450980 0.65882353
v -0.08729818 0.02019235 -16.03223419 0.25098039 0.27450980 0.65882353
v -0.07993108 0.00768086 -16.04006004 0.25098039 0.27450980 0.65882353
v -0.13828924 0.01847631 -15.99909115 0.25098039 0.27450980 0.65882353
v -0.13794710 0.00839578 -15.99908161 0.25098039 0.27450980 0.65882353
v -0.02597307 -0.06081159 -15.99100494 0.25098039 0.27450980 0.65882353
v -0.03033748 -0.06422405 -15.98926258 0.25098039 0.27450980 0.65882353
v -0.03214644 -0.06077955 -15.98899746 0.25098039 0.27450980 0.65882353
v -0.02760893 -0.05792642 -15.99044228 0.25098039 0.27450980 0.65882353
v -0.13958177 0.01446892 -15.97957706 0.25098039 0.27450980 0.65882353
v -0.13453840 0.01790423 -15.97148418 0.25098039 0.27450980 0.65882353
v -0.13877034 0.02275062 -15.97371578 0.25098039 0.27450980 0.65882353
v -0.14195630 0.02081205 -15.98202896 0.25098039 0.27450980 0.65882353
v -0.13610674 0.00601370 -15.97610474 0.25098039 0.27450980 0.65882353
v -0.12854832 0.01083748 -15.96895313 0.25098039 0.27450980 0.65882353
v -0.01741740 -0.06099680 -15.98196697 0.25098039 0.27450980 0.65882353
v -0.01846892 -0.05991025 -15.98679352 0.25098039 0.27450980 0.65882353
v -0.01994643 -0.05578943 -15.98463154 0.25098039 0.27450980 0.65882353
v -0.01956782 -0.05643720 -15.97933197 0.25098039 0.27450980 0.65882353
v -0.06584756 -0.02216620 -16.00510406 0.25098039 0.27450980 0.65882353
v -0.07441625 -0.02162758 -16.00197983 0.25098039 0.27450980 0.65882353
v -0.05532056 -0.03644165 -15.99674606 0.25098039 0.27450980 0.65882353
v -0.06372567 -0.03001266 -15.99773979 0.25098039 0.27450980 0.65882353
v -0.05836290 -0.02633751 -16.00054169 0.25098039 0.27450980 0.65882353
v -0.05145535 -0.03099485 -15.99813271 0.25098039 0.27450980 0.65882353
v -0.08521155 -0.03137804 -15.98863220 0.25098039 0.27450980 0.65882353
v -0.09126467 -0.02177352 -15.99200916 0.25098039 0.27450980 0.65882353
v -0.08498392 -0.02117375 -15.99381542 0.25098039 0.27450980 0.65882353
v -0.07728282 -0.03178958 -15.99169636 0.25098039 0.27450980 0.65882353
v -0.10427323 -0.02570961 -15.98921204 0.25098039 0.27450980 0.65882353
v -0.09726723 -0.03456338 -15.98595715 0.25098039 0.27450980 0.65882353
v -0.10565301 -0.03554100 -15.98488903 0.25098039 0.27450980 0.65882353
v -0.10949028 -0.02947601 -15.98811150 0.25098039 0.27450980 0.65882353
v -0.08200693 -0.04921649 -15.97992229 0.25098039 0.27450980 0.65882353
v -0.07639305 -0.05427396 -15.97494602 0.25098039 0.27450980 0.65882353
v -0.07854261 -0.05520393 -15.97332954 0.25098039 0.27450980 0.65882353
v -0.08499956 -0.04949665 -15.97887039 0.25098039 0.27450980 0.65882353
v -0.14213380 0.02823277 -15.97473049 0.25098039 0.27450980 0.65882353
v -0.14302939 0.02721363 -15.98392296 0.25098039 0.27450980 0.65882353
v -0.11655311 -0.02602766 -15.96139622 0.25098039 0.27450980 0.65882353
v -0.12578760 -0.02628803 -15.96709728 0.25098039 0.27450980 0.65882353
v -0.12247758 -0.03837414 -15.96432590 0.25098039 0.27450980 0.65882353
v -0.11396287 -0.03489156 -15.95894623 0.25098039 0.27450980 0.65882353
v -0.12564121 0.02107485 -15.96750832 0.25098039 0.27450980 0.65882353
v -0.13113400 0.02569133 -15.96802425 0.25098039 0.27450980 0.65882353
v -0.01940484 -0.06381163 -15.97706127 0.25098039 0.27450980 0.65882353
v -0.02148207 -0.05940150 -15.97445297 0.25098039 0.27450980 0.65882353
v -0.07873796 0.02547534 -16.02309036 0.25098039 0.27450980 0.65882353
v -0.07181242 0.01143126 -16.03506851 0.25098039 0.27450980 0.65882353
v -0.08543958 0.03489874 -16.01473236 0.25098039 0.27450980 0.65882353
v -0.09015232 0.04111134 -16.00843239 0.25098039 0.27450980 0.65882353
v -0.09442930 0.04731883 -16.00572586 0.25098039 0.27450980 0.65882353
v -0.06623758 -0.03560507 -15.99421597 0.25098039 0.27450980 0.65882353
v -0.08245111 -0.01834535 -15.99841976 0.25098039 0.27450980 0.65882353
v -0.09966867 -0.01337304 -15.99551487 0.25098039 0.27450980 0.65882353
v -0.12674104 -0.02533569 -15.98884010 0.25098039 0.27450980 0.65882353
v -0.13195156 -0.01647283 -15.99205208 0.25098039 0.27450980 0.65882353
v -0.12159064 -0.01723827 -15.99547958 0.25098039 0.27450980 0.65882353
v -0.11913142 -0.02477412 -15.99141693 0.25098039 0.27450980 0.65882353
v -0.12955058 -0.03053003 -15.97441387 0.25098039 0.27450980 0.65882353
v -0.12638903 -0.03343180 -15.98078156 0.25098039 0.27450980 0.65882353
v -0.12234086 -0.04087612 -15.97869778 0.25098039 0.27450980 0.65882353
v -0.12525389 -0.03945921 -15.97215366 0.25098039 0.27450980 0.65882353
v -0.05906534 -0.00642488 -16.03444290 0.25098039 0.27450980 0.65882353
v -0.06002283 0.00371319 -16.02124405 0.25098039 0.27450980 0.65882353
v -0.14134933 0.01175185 -15.98935699 0.25098039 0.27450980 0.65882353
v -0.14157778 0.01896180 -15.99193382 0.25098039 0.27450980 0.65882353
v -0.14231059 0.02747967 -15.99120426 0.25098039 0.27450980 0.65882353
v -0.11342900 0.00130550 -16.00506210 0.25098039 0.27450980 0.65882353
v -0.11950989 0.01327691 -16.00969505 0.25098039 0.27450980 0.65882353
v -0.11639296 0.01356575 -16.01180458 0.25098039 0.27450980 0.65882353
v -0.11061678 0.00143882 -16.00531387 0.25098039 0.27450980 0.65882353
v -0.09870426 -0.00387933 -16.01428223 0.25098039 0.27450980 0.65882353
v -0.10548647 0.00650453 -16.01973152 0.25098039 0.27450980 0.65882353
v -0.09314636 -0.00944830 -16.02270508 0.25098039 0.27450980 0.65882353
v -0.11789203 0.02818330 -16.01183319 0.25098039 0.27450980 0.65882353
v -0.12654290 0.03376463 -16.00917625 0.25098039 0.27450980 0.65882353
v -0.11918543 0.03746463 -16.01197815 0.25098039 0.27450980 0.65882353
v -0.13402605 0.03096040 -16.00394630 0.25098039 0.27450980 0.65882353
v -0.13938245 0.02840015 -15.99759102 0.25098039 0.27450980 0.65882353
v -0.13530159 0.03153805 -15.96580696 0.25098039 0.27450980 0.65882353
v -0.11165240 0.04058678 -16.01355171 0.25098039 0.27450980 0.65882353
v -0.08446328 -0.01236926 -16.03850746 0.25098039 0.27450980 0.65882353
v -0.07902843 -0.01757847 -16.04232788 0.25098039 0.27450980 0.65882353
v -0.07621500 -0.02110280 -16.03611755 0.25098039 0.27450980 0.65882353
v -0.08173397 -0.01730524 -16.03199577 0.25098039 0.27450980 0.65882353
v -0.04353778 -0.02539651 -15.98962879 0.25098039 0.27450980 0.65882353
v -0.04653217 -0.02846447 -15.99566460 0.25098039 0.27450980 0.65882353
v -0.05257270 -0.02240320 -16.00113678 0.25098039 0.27450980 0.65882353
v -0.12492308 -0.00173698 -16.00325203 0.25098039 0.27450980 0.65882353
v -0.13619155 -0.00163634 -15.99602222 0.25098039 0.27450980 0.65882353
v -0.05688691 -0.04179288 -15.99252129 0.25098039 0.27450980 0.65882353
v -0.02267337 -0.05173224 -15.97858334 0.25098039 0.27450980 0.65882353
v -0.02281502 -0.05110078 -15.98433685 0.25098039 0.27450980 0.65882353
v -0.03435805 -0.03670453 -15.98645592 0.25098039 0.27450980 0.65882353
v -0.03403749 -0.03718223 -15.97957897 0.25098039 0.27450980 0.65882353
v -0.05190232 -0.04738973 -15.98294353 0.25098039 0.27450980 0.65882353
v -0.05242744 -0.04564304 -15.98945141 0.25098039 0.27450980 0.65882353
v -0.04982328 -0.04712360 -15.98718643 0.25098039 0.27450980 0.65882353
v -0.04952642 -0.05092649 -15.98182487 0.25098039 0.27450980 0.65882353
v -0.08744954 -0.05489153 -15.97473145 0.25098039 0.27450980 0.65882353
v -0.09313707 -0.04962971 -15.97880650 0.25098039 0.27450980 0.65882353
v -0.05964257 -0.03207090 -15.96870041 0.25098039 0.27450980 0.65882353
v -0.05040312 -0.02368195 -15.97342205 0.25098039 0.27450980 0.65882353
v -0.05623850 -0.01500848 -15.97672939 0.25098039 0.27450980 0.65882353
v -0.09233450 -0.03235982 -15.98701382 0.25098039 0.27450980 0.65882353
v -0.08744814 -0.04150826 -15.98383617 0.25098039 0.27450980 0.65882353
v -0.09113342 -0.04238684 -15.98265934 0.25098039 0.27450980 0.65882353
v -0.06638694 -0.03950890 -15.99101543 0.25098039 0.27450980 0.65882353
v -0.05938379 -0.04497009 -15.98807335 0.25098039 0.27450980 0.65882353
v -0.06564941 -0.04387259 -15.98690605 0.25098039 0.27450980 0.65882353
v -0.07160012 -0.03880886 -15.98878002 0.25098039 0.27450980 0.65882353
v -0.13011026 -0.01409342 -15.96907616 0.25098039 0.27450980 0.65882353
v -0.13479345 -0.01912802 -15.97730923 0.25098039 0.27450980 0.65882353
v -0.02163015 -0.05958557 -15.99010563 0.25098039 0.27450980 0.65882353
v -0.02307488 -0.05605957 -15.98875904 0.25098039 0.27450980 0.65882353
v -0.09797475 -0.02293917 -15.99005318 0.25098039 0.27450980 0.65882353
v -0.06300704 -0.00467159 -15.98103142 0.25098039 0.27450980 0.65882353
v -0.10458985 -0.01477487 -15.99440670 0.25098039 0.27450980 0.65882353
v -0.09838910 -0.04424538 -15.95940018 0.25098039 0.27450980 0.65882353
v -0.10114130 -0.04943035 -15.96530056 0.25098039 0.27450980 0.65882353
v -0.09694565 -0.05409399 -15.96415520 0.25098039 0.27450980 0.65882353
v -0.09509243 -0.05163558 -15.95836258 0.25098039 0.27450980 0.65882353
v -0.03929579 -0.06202953 -15.97949982 0.25098039 0.27450980 0.65882353
v -0.03869277 -0.06160147 -15.98510265 0.25098039 0.27450980 0.65882353
v -0.03536133 -0.06401071 -15.98468399 0.25098039 0.27450980 0.65882353
v -0.03548576 -0.06534542 -15.97905254 0.25098039 0.27450980 0.65882353
v -0.05014490 -0.04193976 -15.99334145 0.25098039 0.27450980 0.65882353
v -0.04655874 -0.03669391 -15.99518299 0.25098039 0.27450980 0.65882353
v -0.04292411 -0.04196876 -15.99333858 0.25098039 0.27450980 0.65882353
v -0.04669721 -0.04528284 -15.99053764 0.25098039 0.27450980 0.65882353
v -0.04158418 -0.03366242 -15.99233532 0.25098039 0.27450980 0.65882353
v -0.03796726 -0.03832446 -15.99162674 0.25098039 0.27450980 0.65882353
v -0.03627726 -0.06041395 -15.97396088 0.25098039 0.27450980 0.65882353
v -0.03013235 -0.05707048 -15.97130203 0.25098039 0.27450980 0.65882353
v -0.04190449 -0.04466049 -15.97174740 0.25098039 0.27450980 0.65882353
v -0.04567938 -0.05041177 -15.97542286 0.25098039 0.27450980 0.65882353
v -0.10672487 0.00435776 -15.96574879 0.25098039 0.27450980 0.65882353
v -0.11716802 0.00162923 -15.96501637 0.25098039 0.27450980 0.65882353
v -0.11241020 -0.01194723 -15.96314526 0.25098039 0.27450980 0.65882353
v -0.10804591 -0.02498870 -15.96052742 0.25098039 0.27450980 0.65882353
v -0.10337693 -0.03765664 -15.95908642 0.25098039 0.27450980 0.65882353
v -0.09263986 -0.03385194 -15.95718479 0.25098039 0.27450980 0.65882353
v -0.12017192 -0.01281524 -15.96392727 0.25098039 0.27450980 0.65882353
v -0.05605398 -0.04422308 -15.97507477 0.25098039 0.27450980 0.65882353
v -0.05075514 -0.03664103 -15.97230625 0.25098039 0.27450980 0.65882353
v -0.05685513 -0.03884847 -15.97060490 0.25098039 0.27450980 0.65882353
v -0.11136015 -0.01754057 -15.99390125 0.25098039 0.27450980 0.65882353
v -0.02565397 -0.05200411 -15.98913860 0.25098039 0.27450980 0.65882353
v -0.09197399 0.03924034 -15.98497105 0.25098039 0.27450980 0.65882353
v -0.10046409 0.03601128 -15.97501659 0.25098039 0.27450980 0.65882353
v -0.09642574 0.02934488 -15.97636700 0.25098039 0.27450980 0.65882353
v -0.08682881 0.03269791 -15.98797417 0.25098039 0.27450980 0.65882353
v -0.03540072 -0.05863114 -15.99022007 0.25098039 0.27450980 0.65882353
v -0.03042184 -0.05495200 -15.99216366 0.25098039 0.27450980 0.65882353
v -0.09852771 -0.05222151 -15.97736168 0.25098039 0.27450980 0.65882353
v -0.09291876 -0.05613926 -15.97364807 0.25098039 0.27450980 0.65882353
v -0.09479226 -0.05717622 -15.97032261 0.25098039 0.27450980 0.65882353
v -0.10180143 -0.05563582 -15.97536087 0.25098039 0.27450980 0.65882353
v -0.12292067 0.00141916 -15.96561241 0.25098039 0.27450980 0.65882353
v -0.12137996 -0.04607734 -15.96543312 0.25098039 0.27450980 0.65882353
v -0.11370593 -0.04288740 -15.95938683 0.25098039 0.27450980 0.65882353
v -0.12080414 0.01360714 -15.96665859 0.25098039 0.27450980 0.65882353
v -0.11163649 0.01602291 -15.96678829 0.25098039 0.27450980 0.65882353
v -0.11540923 0.02418969 -15.96707058 0.25098039 0.27450980 0.65882353
v -0.07744896 -0.03720856 -15.95933723 0.25098039 0.27450980 0.65882353
v -0.09868523 0.00442425 -15.96705723 0.25098039 0.27450980 0.65882353
v -0.10457517 0.01635431 -15.96871662 0.25098039 0.27450980 0.65882353
v -0.10873884 0.02624287 -15.96895123 0.25098039 0.27450980 0.65882353
v -0.11155974 0.03325266 -15.96807098 0.25098039 0.27450980 0.65882353
v -0.11883022 0.02997956 -15.96671391 0.25098039 0.27450980 0.65882353
v -0.02533805 -0.05467747 -15.97373486 0.25098039 0.27450980 0.65882353
v -0.02633518 -0.06298766 -15.97161484 0.25098039 0.27450980 0.65882353
v -0.12246296 0.03641891 -15.96446896 0.25098039 0.27450980 0.65882353
v -0.11409624 0.03944071 -15.96671486 0.25098039 0.27450980 0.65882353
v -0.09625049 0.01736318 -15.97190380 0.25098039 0.27450980 0.65882353
v -0.08706094 0.01833397 -15.97711086 0.25098039 0.27450980 0.65882353
v -0.09079086 0.00587989 -15.96947193 0.25098039 0.27450980 0.65882353
v -0.08072753 0.00617217 -15.97429752 0.25098039 0.27450980 0.65882353
v -0.06940258 -0.03074728 -15.95998383 0.25098039 0.27450980 0.65882353
v -0.02417195 -0.07840811 -15.97975349 0.25098039 0.27450980 0.65882353
v -0.02933717 -0.06965762 -15.97542763 0.25098039 0.27450980 0.65882353
v -0.03306508 -0.06931572 -15.97975349 0.25098039 0.27450980 0.65882353
v -0.02798337 -0.07868702 -15.98193359 0.25098039 0.27450980 0.65882353
v -0.03242570 -0.06489663 -15.97420597 0.25098039 0.27450980 0.65882353
v -0.02421585 -0.06721454 -15.97412395 0.25098039 0.27450980 0.65882353
v -0.07010856 0.00708986 -15.98516464 0.25098039 0.27450980 0.65882353
v -0.06000973 -0.04827002 -15.98277473 0.25098039 0.27450980 0.65882353
v -0.07631995 0.02065794 -15.99182987 0.25098039 0.27450980 0.65882353
v -0.05890056 0.00323172 -16.00029373 0.25098039 0.27450980 0.65882353
v -0.06498994 0.01245386 -16.00688744 0.25098039 0.27450980 0.65882353
v -0.08198415 0.03500536 -15.99986458 0.25098039 0.27450980 0.65882353
v -0.07286866 0.02576426 -16.01042747 0.25098039 0.27450980 0.65882353
v -0.09282076 0.04716930 -15.99511623 0.25098039 0.27450980 0.65882353
v -0.08782525 0.04067072 -15.99618721 0.25098039 0.27450980 0.65882353
v -0.06655134 0.01547995 -16.02248573 0.25098039 0.27450980 0.65882353
v -0.02477689 -0.07055539 -15.99367714 0.25098039 0.27450980 0.65882353
v -0.02911724 -0.07321124 -15.99097538 0.25098039 0.27450980 0.65882353
v -0.09565060 0.04580291 -15.98381901 0.25098039 0.27450980 0.65882353
v -0.08668928 -0.01383020 -16.02847099 0.25098039 0.27450980 0.65882353
v -0.11529449 -0.00889680 -15.99881363 0.25098039 0.27450980 0.65882353
v -0.10991273 -0.00760111 -15.99947262 0.25098039 0.27450980 0.65882353
v -0.13420403 -0.01065363 -15.99327946 0.25098039 0.27450980 0.65882353
v -0.12279125 -0.01000599 -15.99858093 0.25098039 0.27450980 0.65882353
v -0.01962942 -0.06891725 -15.99344826 0.25098039 0.27450980 0.65882353
v -0.07300237 -0.05585841 -15.96896553 0.25098039 0.27450980 0.65882353
v -0.07523526 -0.05398922 -15.96827316 0.25098039 0.27450980 0.65882353
v -0.08204368 -0.00592356 -16.04349518 0.25098039 0.27450980 0.65882353
v -0.07825285 -0.01148404 -16.04678726 0.25098039 0.27450980 0.65882353
v -0.06669661 -0.00540148 -16.04688263 0.25098039 0.27450980 0.65882353
v -0.07310124 -0.00746264 -16.04899979 0.25098039 0.27450980 0.65882353
v -0.07606341 -0.00011030 -16.04501915 0.25098039 0.27450980 0.65882353
v -0.06947154 0.00257868 -16.04238701 0.25098039 0.27450980 0.65882353
v -0.11547761 0.00032418 -16.00508690 0.25098039 0.27450980 0.65882353
v -0.11880387 -0.00097240 -16.00440979 0.25098039 0.27450980 0.65882353
v -0.13354996 -0.00342827 -15.97262192 0.25098039 0.27450980 0.65882353
v -0.13742700 -0.00865027 -15.98125076 0.25098039 0.27450980 0.65882353
v -0.03923681 -0.03130009 -15.98681641 0.25098039 0.27450980 0.65882353
v -0.04441297 -0.02439539 -15.98124123 0.25098039 0.27450980 0.65882353
v -0.03966799 -0.03120871 -15.97972298 0.25098039 0.27450980 0.65882353
v -0.03785340 -0.03883038 -15.97387886 0.25098039 0.27450980 0.65882353
v -0.05609043 -0.04856848 -15.97840214 0.25098039 0.27450980 0.65882353
v -0.05099568 -0.04557379 -15.97747707 0.25098039 0.27450980 0.65882353
v -0.11142980 0.00944303 -16.01542664 0.25098039 0.27450980 0.65882353
v -0.10490915 -0.00045916 -16.00766182 0.25098039 0.27450980 0.65882353
v -0.07459792 -0.01930564 -16.02687645 0.25098039 0.27450980 0.65882353
v -0.07021034 -0.02085045 -16.03088760 0.25098039 0.27450980 0.65882353
v -0.07936746 -0.03850561 -15.98666763 0.25098039 0.27450980 0.65882353
v -0.06948759 -0.04629929 -15.95965004 0.25098039 0.27450980 0.65882353
v -0.06321600 -0.04098210 -15.96044064 0.25098039 0.27450980 0.65882353
v -0.07369731 -0.04554415 -15.98353672 0.25098039 0.27450980 0.65882353
v -0.01420878 -0.07100107 -15.98693466 0.25098039 0.27450980 0.65882353
v -0.01634516 -0.06935555 -15.99127102 0.25098039 0.27450980 0.65882353
v -0.04376447 -0.03236835 -15.97391224 0.25098039 0.27450980 0.65882353
v -0.09924188 -0.04409243 -15.98253059 0.25098039 0.27450980 0.65882353
v -0.07827793 -0.04403152 -15.95965958 0.25098039 0.27450980 0.65882353
v -0.07192804 -0.05240081 -15.96242428 0.25098039 0.27450980 0.65882353
v -0.12268395 -0.04450593 -15.97264862 0.25098039 0.27450980 0.65882353
v -0.10401932 0.04295266 -15.97459602 0.25098039 0.27450980 0.65882353
v -0.03364980 -0.06794237 -15.98522091 0.25098039 0.27450980 0.65882353
v -0.03105223 -0.07574649 -15.98692322 0.25098039 0.27450980 0.65882353
v -0.02041034 -0.07640640 -15.97917461 0.25098039 0.27450980 0.65882353
v -0.01603922 -0.07293022 -15.98143482 0.25098039 0.27450980 0.65882353
v -0.13913102 0.00066993 -15.98605251 0.25098039 0.27450980 0.65882353
v -0.10659773 -0.00674961 -15.99936962 0.25098039 0.27450980 0.65882353
v -0.06365064 0.00577673 -16.03278160 0.25098039 0.27450980 0.65882353
v -0.06159297 -0.00487014 -16.04136848 0.25098039 0.27450980 0.65882353
v -0.06995316 -0.05019613 -15.98063946 0.25098039 0.27450980 0.65882353
v -0.10564223 -0.04492690 -15.96156311 0.25098039 0.27450980 0.65882353
v -0.09007172 -0.04237694 -15.95580959 0.25098039 0.27450980 0.65882353
v -0.08765162 -0.05002207 -15.95392132 0.25098039 0.27450980 0.65882353
v -0.08028208 -0.05129307 -15.95565605 0.25098039 0.27450980 0.65882353
v -0.07545659 -0.05426139 -15.96080208 0.25098039 0.27450980 0.65882353
v -0.01946743 -0.08134748 -15.98222351 0.25098039 0.27450980 0.65882353
v -0.01507178 -0.07777604 -15.98426151 0.25098039 0.27450980 0.65882353
v -0.01334050 -0.07534342 -15.98951626 0.25098039 0.27450980 0.65882353
v -0.01523700 -0.07304863 -15.99308491 0.25098039 0.27450980 0.65882353
v -0.01920913 -0.07194496 -15.99462414 0.25098039 0.27450980 0.65882353
v -0.02337846 -0.08326925 -15.98325253 0.25098039 0.27450980 0.65882353
v -0.02673768 -0.08292656 -15.98543930 0.25098039 0.27450980 0.65882353
v -0.02993692 -0.07871073 -15.98830795 0.25098039 0.27450980 0.65882353
v -0.02420430 -0.08638082 -15.98730564 0.25098039 0.27450980 0.65882353
v -0.01914346 -0.08769383 -15.98848915 0.25098039 0.27450980 0.65882353
v -0.01484260 -0.08351101 -16.00116539 0.25098039 0.27450980 0.65882353
v -0.01346853 -0.08154413 -15.99559307 0.25098039 0.27450980 0.65882353
v -0.01390928 -0.08420654 -15.99624634 0.25098039 0.27450980 0.65882353
v -0.01511019 -0.08659738 -16.00057411 0.25098039 0.27450980 0.65882353
v -0.01612766 -0.09041098 -16.00404930 0.25098039 0.27450980 0.65882353
v -0.01585047 -0.08726740 -16.00553703 0.25098039 0.27450980 0.65882353
v -0.01524825 -0.08526886 -15.99185562 0.25098039 0.27450980 0.65882353
v -0.01678622 -0.08928207 -15.99722767 0.25098039 0.27450980 0.65882353
v -0.01978081 -0.09122226 -15.99514580 0.25098039 0.27450980 0.65882353
v -0.02015829 -0.09476240 -15.99963570 0.25098039 0.27450980 0.65882353
v -0.01740718 -0.09325552 -16.00149345 0.25098039 0.27450980 0.65882353
v -0.01837717 -0.08851849 -15.99155140 0.25098039 0.27450980 0.65882353
v -0.01448683 -0.08391048 -15.98960686 0.25098039 0.27450980 0.65882353
v -0.01739070 -0.09132816 -16.00740433 0.25098039 0.27450980 0.65882353
v -0.01669315 -0.09298113 -16.00571060 0.25098039 0.27450980 0.65882353
v -0.01825525 -0.09507446 -16.00406837 0.25098039 0.27450980 0.65882353
v -0.01982224 -0.09561805 -16.00666046 0.25098039 0.27450980 0.65882353
v -0.01551695 -0.07623610 -15.99635887 0.25098039 0.27450980 0.65882353
v -0.01616065 -0.08173034 -16.00255966 0.25098039 0.27450980 0.65882353
v -0.01847929 -0.08590385 -16.00637245 0.25098039 0.27450980 0.65882353
v -0.01981458 -0.09005244 -16.00807190 0.25098039 0.27450980 0.65882353
v -0.02010319 -0.08159986 -16.00366211 0.25098039 0.27450980 0.65882353
v -0.02135932 -0.08541282 -16.00621605 0.25098039 0.27450980 0.65882353
v -0.02283214 -0.08900578 -16.00730896 0.25098039 0.27450980 0.65882353
v -0.02421540 -0.08245766 -16.00343895 0.25098039 0.27450980 0.65882353
v -0.02438866 -0.08596753 -16.00548553 0.25098039 0.27450980 0.65882353
v -0.02318625 -0.07460547 -15.99589539 0.25098039 0.27450980 0.65882353
v -0.01915407 -0.07343392 -15.99625015 0.25098039 0.27450980 0.65882353
v -0.02479677 -0.08816090 -16.00679970 0.25098039 0.27450980 0.65882353
v -0.02191462 -0.09491931 -16.00714302 0.25098039 0.27450980 0.65882353
v -0.02273232 -0.09072290 -15.99301910 0.25098039 0.27450980 0.65882353
v -0.02330373 -0.09421213 -15.99936771 0.25098039 0.27450980 0.65882353
v -0.02511068 -0.09017405 -15.99320221 0.25098039 0.27450980 0.65882353
v -0.02567370 -0.09395903 -15.99918365 0.25098039 0.27450980 0.65882353
v -0.02268808 -0.09697431 -16.00308037 0.25098039 0.27450980 0.65882353
v -0.02040361 -0.09605125 -16.00243759 0.25098039 0.27450980 0.65882353
v -0.02435587 -0.07259458 -15.99392605 0.25098039 0.27450980 0.65882353
v -0.02875438 -0.07550706 -15.99116611 0.25098039 0.27450980 0.65882353
v -0.02797468 -0.07734989 -15.99295044 0.25098039 0.27450980 0.65882353
v -0.02796742 -0.08435932 -16.00118637 0.25098039 0.27450980 0.65882353
v -0.02948332 -0.08068641 -15.99085522 0.25098039 0.27450980 0.65882353
v -0.02739407 -0.08546399 -15.98944855 0.25098039 0.27450980 0.65882353
v -0.02744989 -0.08958548 -15.99507523 0.25098039 0.27450980 0.65882353
v -0.02894345 -0.08764547 -15.99744034 0.25098039 0.27450980 0.65882353
v -0.02744165 -0.09238228 -15.99983025 0.25098039 0.27450980 0.65882353
v -0.02790625 -0.09033450 -16.00117111 0.25098039 0.27450980 0.65882353
v -0.02713111 -0.08775724 -16.00390053 0.25098039 0.27450980 0.65882353
v -0.02641183 -0.09362285 -16.00369263 0.25098039 0.27450980 0.65882353
v -0.02457562 -0.09588325 -16.00339890 0.25098039 0.27450980 0.65882353
v -0.02436514 -0.09253801 -16.00659943 0.25098039 0.27450980 0.65882353
v -0.02727671 -0.09184951 -16.00355721 0.25098039 0.27450980 0.65882353
v -0.02559625 -0.09036957 -16.00553703 0.25098039 0.27450980 0.65882353
v -0.04770039 -0.08011104 -15.97597599 0.25098039 0.27450980 0.65882353
v -0.05297495 -0.08279286 -15.97355652 0.25098039 0.27450980 0.65882353
v -0.05367140 -0.07781401 -15.97239685 0.25098039 0.27450980 0.65882353
v -0.04916358 -0.07598688 -15.97466564 0.25098039 0.27450980 0.65882353
v -0.03878336 -0.07858455 -15.96590519 0.25098039 0.27450980 0.65882353
v -0.04030021 -0.07844380 -15.97156811 0.25098039 0.27450980 0.65882353
v -0.04099350 -0.07360400 -15.96973991 0.25098039 0.27450980 0.65882353
v -0.04059258 -0.07365566 -15.96322823 0.25098039 0.27450980 0.65882353
v -0.04214284 -0.08020681 -15.96020699 0.25098039 0.27450980 0.65882353
v -0.04427487 -0.07501036 -15.95768261 0.25098039 0.27450980 0.65882353
v -0.04217830 -0.06845183 -15.96261787 0.25098039 0.27450980 0.65882353
v -0.04316702 -0.06844493 -15.96962929 0.25098039 0.27450980 0.65882353
v -0.05337574 -0.05028825 -15.97247696 0.25098039 0.27450980 0.65882353
v -0.05259663 -0.04950561 -15.96539211 0.25098039 0.27450980 0.65882353
v -0.06945305 -0.05795737 -15.97324276 0.25098039 0.27450980 0.65882353
v -0.06910574 -0.05887926 -15.96933651 0.25098039 0.27450980 0.65882353
v -0.04398310 -0.07908127 -15.97500515 0.25098039 0.27450980 0.65882353
v -0.04484394 -0.07467590 -15.97332954 0.25098039 0.27450980 0.65882353
v -0.06069179 -0.07664918 -15.96618080 0.25098039 0.27450980 0.65882353
v -0.05945361 -0.07580361 -15.97136784 0.25098039 0.27450980 0.65882353
v -0.05717541 -0.08004959 -15.97002792 0.25098039 0.27450980 0.65882353
v -0.05770090 -0.08110954 -15.96458244 0.25098039 0.27450980 0.65882353
v -0.05994378 -0.05247071 -15.97799397 0.25098039 0.27450980 0.65882353
v -0.06565003 -0.05470274 -15.97622299 0.25098039 0.27450980 0.65882353
v -0.05630691 -0.05176768 -15.97634125 0.25098039 0.27450980 0.65882353
v -0.05891298 -0.07608611 -15.95985889 0.25098039 0.27450980 0.65882353
v -0.05395633 -0.07369362 -15.95564842 0.25098039 0.27450980 0.65882353
v -0.06298834 -0.05552921 -15.95732212 0.25098039 0.27450980 0.65882353
v -0.06715527 -0.05878447 -15.96103859 0.25098039 0.27450980 0.65882353
v -0.04623535 -0.06988314 -15.97408009 0.25098039 0.27450980 0.65882353
v -0.05557294 -0.07408883 -15.97481632 0.25098039 0.27450980 0.65882353
v -0.05099219 -0.07200614 -15.97625732 0.25098039 0.27450980 0.65882353
v -0.04709198 -0.07004195 -15.95738697 0.25098039 0.27450980 0.65882353
v -0.05066074 -0.07928768 -15.95635986 0.25098039 0.27450980 0.65882353
v -0.04899290 -0.09756775 -15.96477985 0.25098039 0.27450980 0.65882353
v -0.05332564 -0.08645893 -15.96081161 0.25098039 0.27450980 0.65882353
v -0.05570012 -0.08649541 -15.96535301 0.25098039 0.27450980 0.65882353
v -0.05213757 -0.09828182 -15.96855736 0.25098039 0.27450980 0.65882353
v -0.05559021 -0.08123401 -15.95944023 0.25098039 0.27450980 0.65882353
v -0.04828233 -0.08408024 -15.95857716 0.25098039 0.27450980 0.65882353
v -0.04572777 -0.09442730 -15.98028755 0.25098039 0.27450980 0.65882353
v -0.05095658 -0.09691845 -15.97760487 0.25098039 0.27450980 0.65882353
v -0.04129125 -0.09321184 -15.97992516 0.25098039 0.27450980 0.65882353
v -0.05674808 -0.05128576 -15.95890045 0.25098039 0.27450980 0.65882353
v -0.03590269 -0.09118104 -15.97120762 0.25098039 0.27450980 0.65882353
v -0.03803198 -0.09182930 -15.97741604 0.25098039 0.27450980 0.65882353
v -0.05609262 -0.08504897 -15.97017384 0.25098039 0.27450980 0.65882353
v -0.05301015 -0.09841257 -15.97329235 0.25098039 0.27450980 0.65882353
v -0.04484634 -0.09598634 -15.96339035 0.25098039 0.27450980 0.65882353
v -0.03895818 -0.09193294 -15.96511650 0.25098039 0.27450980 0.65882353
v -0.04337671 -0.10130569 -15.96602154 0.25098039 0.27450980 0.65882353
v -0.03792548 -0.09836480 -15.96803856 0.25098039 0.27450980 0.65882353
v -0.03514136 -0.09709887 -15.97398376 0.25098039 0.27450980 0.65882353
v -0.03774652 -0.09652328 -15.97918987 0.25098039 0.27450980 0.65882353
v -0.04111437 -0.09659903 -15.98116016 0.25098039 0.27450980 0.65882353
v -0.04731701 -0.10275850 -15.96731949 0.25098039 0.27450980 0.65882353
v -0.05061407 -0.10310280 -15.97061729 0.25098039 0.27450980 0.65882353
v -0.05192998 -0.10084823 -15.97476768 0.25098039 0.27450980 0.65882353
v -0.04783839 -0.10859010 -15.97183418 0.25098039 0.27450980 0.65882353
v -0.04339917 -0.10905834 -15.97101116 0.25098039 0.27450980 0.65882353
v -0.03738746 -0.11365376 -15.98778439 0.25098039 0.27450980 0.65882353
v -0.03650782 -0.10898677 -15.98398209 0.25098039 0.27450980 0.65882353
v -0.03666142 -0.11084445 -15.98208618 0.25098039 0.27450980 0.65882353
v -0.03751555 -0.11518402 -15.98539543 0.25098039 0.27450980 0.65882353
v -0.03507410 -0.10559624 -15.97876644 0.25098039 0.27450980 0.65882353
v -0.03598273 -0.10802166 -15.97839165 0.25098039 0.27450980 0.65882353
v -0.03837757 -0.10873227 -15.97448063 0.25098039 0.27450980 0.65882353
v -0.03934646 -0.11320223 -15.97873020 0.25098039 0.27450980 0.65882353
v -0.04330949 -0.11390518 -15.97616768 0.25098039 0.27450980 0.65882353
v -0.04345788 -0.11884904 -15.97923374 0.25098039 0.27450980 0.65882353
v -0.03946005 -0.11822070 -15.98182487 0.25098039 0.27450980 0.65882353
v -0.04159604 -0.11079739 -15.97355843 0.25098039 0.27450980 0.65882353
v -0.03840344 -0.11846350 -15.98683167 0.25098039 0.27450980 0.65882353
v -0.03939454 -0.11883269 -15.98920822 0.25098039 0.27450980 0.65882353
v -0.03742482 -0.10639949 -15.97234726 0.25098039 0.27450980 0.65882353
v -0.03702590 -0.10034217 -15.98097610 0.25098039 0.27450980 0.65882353
v -0.03802171 -0.10765618 -15.98630714 0.25098039 0.27450980 0.65882353
v -0.03967461 -0.11305192 -15.98999882 0.25098039 0.27450980 0.65882353
v -0.04223314 -0.11874205 -15.99036312 0.25098039 0.27450980 0.65882353
v -0.04186103 -0.10743527 -15.98806286 0.25098039 0.27450980 0.65882353
v -0.04285163 -0.11287318 -15.99073887 0.25098039 0.27450980 0.65882353
v -0.04473613 -0.11758652 -15.99027729 0.25098039 0.27450980 0.65882353
v -0.04658298 -0.10777400 -15.98835468 0.25098039 0.27450980 0.65882353
v -0.04702097 -0.11330287 -15.99021721 0.25098039 0.27450980 0.65882353
v -0.04574238 -0.09884264 -15.98239613 0.25098039 0.27450980 0.65882353
v -0.04105958 -0.09867819 -15.98290920 0.25098039 0.27450980 0.65882353
v -0.04661924 -0.11605456 -15.99000549 0.25098039 0.27450980 0.65882353
v -0.04131909 -0.12243029 -15.98639965 0.25098039 0.27450980 0.65882353
v -0.04423231 -0.12175779 -15.98816490 0.25098039 0.27450980 0.65882353
v -0.04044738 -0.12121131 -15.98496437 0.25098039 0.27450980 0.65882353
v -0.04538974 -0.11392134 -15.97570038 0.25098039 0.27450980 0.65882353
v -0.04569234 -0.11886771 -15.97995186 0.25098039 0.27450980 0.65882353
v -0.04816298 -0.11382948 -15.97645950 0.25098039 0.27450980 0.65882353
v -0.04786989 -0.11899008 -15.98123455 0.25098039 0.27450980 0.65882353
v -0.04478882 -0.12224063 -15.98323250 0.25098039 0.27450980 0.65882353
v -0.04313886 -0.12193884 -15.98275757 0.25098039 0.27450980 0.65882353
v -0.04542686 -0.09715144 -15.98062134 0.25098039 0.27450980 0.65882353
v -0.05014758 -0.09895204 -15.97802162 0.25098039 0.27450980 0.65882353
v -0.05036542 -0.10035332 -15.97957993 0.25098039 0.27450980 0.65882353
v -0.05054733 -0.10942584 -15.98528862 0.25098039 0.27450980 0.65882353
v -0.05214114 -0.10285242 -15.97602558 0.25098039 0.27450980 0.65882353
v -0.05062170 -0.10702567 -15.97351837 0.25098039 0.27450980 0.65882353
v -0.05048265 -0.11281659 -15.97774220 0.25098039 0.27450980 0.65882353
v -0.05180134 -0.11150934 -15.98126602 0.25098039 0.27450980 0.65882353
v -0.05005996 -0.11859055 -15.98172474 0.25098039 0.27450980 0.65882353
v -0.05113582 -0.11597867 -15.98327827 0.25098039 0.27450980 0.65882353
v -0.05009976 -0.11411722 -15.98764324 0.25098039 0.27450980 0.65882353
v -0.04856664 -0.12152341 -15.98507309 0.25098039 0.27450980 0.65882353
v -0.04642901 -0.12233403 -15.98413754 0.25098039 0.27450980 0.65882353
v -0.04603761 -0.12035224 -15.98854446 0.25098039 0.27450980 0.65882353
v -0.04995821 -0.11889976 -15.98561096 0.25098039 0.27450980 0.65882353
v -0.04815184 -0.11782347 -15.98858452 0.25098039 0.27450980 0.65882353
v -0.07164311 -0.08102891 -15.96531773 0.25098039 0.27450980 0.65882353
v -0.07716814 -0.08181576 -15.96719265 0.25098039 0.27450980 0.65882353
v -0.07806017 -0.07818768 -15.96675301 0.25098039 0.27450980 0.65882353
v -0.07266480 -0.07738494 -15.96479416 0.25098039 0.27450980 0.65882353
v -0.07182775 -0.08221553 -15.95279312 0.25098039 0.27450980 0.65882353
v -0.06895739 -0.08193956 -15.95676422 0.25098039 0.27450980 0.65882353
v -0.06991898 -0.07734600 -15.95594978 0.25098039 0.27450980 0.65882353
v -0.07299444 -0.07633603 -15.95147896 0.25098039 0.27450980 0.65882353
v -0.07662822 -0.08475318 -15.95153809 0.25098039 0.27450980 0.65882353
v -0.07867382 -0.07713911 -15.94929218 0.25098039 0.27450980 0.65882353
v -0.07394184 -0.07056545 -15.95079327 0.25098039 0.27450980 0.65882353
v -0.07077610 -0.07271121 -15.95574379 0.25098039 0.27450980 0.65882353
v -0.07472549 -0.05826059 -15.95934486 0.25098039 0.27450980 0.65882353
v -0.07809974 -0.05718246 -15.95342159 0.25098039 0.27450980 0.65882353
v -0.06928830 -0.08138214 -15.96138000 0.25098039 0.27450980 0.65882353
v -0.07012041 -0.07757798 -15.96089840 0.25098039 0.27450980 0.65882353
v -0.08739911 -0.07695757 -15.96470070 0.25098039 0.27450980 0.65882353
v -0.08366150 -0.07626949 -15.96765041 0.25098039 0.27450980 0.65882353
v -0.08318333 -0.07966434 -15.96598625 0.25098039 0.27450980 0.65882353
v -0.08619329 -0.08056707 -15.96313095 0.25098039 0.27450980 0.65882353
v -0.07855970 -0.05825605 -15.96999454 0.25098039 0.27450980 0.65882353
v -0.08461632 -0.05810327 -15.97069740 0.25098039 0.27450980 0.65882353
v -0.07507034 -0.05935626 -15.96566296 0.25098039 0.27450980 0.65882353
v -0.08882071 -0.07671542 -15.95833969 0.25098039 0.27450980 0.65882353
v -0.08674306 -0.07403375 -15.95171356 0.25098039 0.27450980 0.65882353
v -0.09188513 -0.06026973 -15.95536900 0.25098039 0.27450980 0.65882353
v -0.09331720 -0.06115566 -15.96158981 0.25098039 0.27450980 0.65882353
v -0.07068717 -0.07388225 -15.96100044 0.25098039 0.27450980 0.65882353
v -0.07860292 -0.07476474 -15.96826458 0.25098039 0.27450980 0.65882353
v -0.07320911 -0.07438534 -15.96598816 0.25098039 0.27450980 0.65882353
v -0.08011697 -0.07114612 -15.94952679 0.25098039 0.27450980 0.65882353
v -0.08445658 -0.07989449 -15.95224190 0.25098039 0.27450980 0.65882353
v -0.08132118 -0.10130663 -15.96046543 0.25098039 0.27450980 0.65882353
v -0.08604767 -0.08550623 -15.95788479 0.25098039 0.27450980 0.65882353
v -0.08515425 -0.08459605 -15.96349621 0.25098039 0.27450980 0.65882353
v -0.08202574 -0.10043864 -15.96473694 0.25098039 0.27450980 0.65882353
v -0.08728372 -0.08147933 -15.95786476 0.25098039 0.27450980 0.65882353
v -0.08282861 -0.08532693 -15.95316887 0.25098039 0.27450980 0.65882353
v -0.06932086 -0.09600408 -15.96942616 0.25098039 0.27450980 0.65882353
v -0.07490274 -0.09644881 -15.97035885 0.25098039 0.27450980 0.65882353
v -0.06687143 -0.09537069 -15.96577549 0.25098039 0.27450980 0.65882353
v -0.08502862 -0.05763502 -15.95113850 0.25098039 0.27450980 0.65882353
v -0.09101666 -0.06013360 -15.96800137 0.25098039 0.27450980 0.65882353
v -0.06707370 -0.09767832 -15.95856285 0.25098039 0.27450980 0.65882353
v -0.06593767 -0.09621613 -15.96256924 0.25098039 0.27450980 0.65882353
v -0.08228478 -0.08308549 -15.96630001 0.25098039 0.27450980 0.65882353
v -0.07998386 -0.09856796 -15.96851063 0.25098039 0.27450980 0.65882353
v -0.07819287 -0.10046738 -15.95678425 0.25098039 0.27450980 0.65882353
v -0.07228915 -0.09841920 -15.95536900 0.25098039 0.27450980 0.65882353
v -0.07743302 -0.10621215 -15.95962429 0.25098039 0.27450980 0.65882353
v -0.07140656 -0.10472089 -15.95851231 0.25098039 0.27450980 0.65882353
v -0.06640637 -0.10372601 -15.96159077 0.25098039 0.27450980 0.65882353
v -0.06552310 -0.10137686 -15.96532631 0.25098039 0.27450980 0.65882353
v -0.06648339 -0.09988625 -15.96820164 0.25098039 0.27450980 0.65882353
v -0.08051457 -0.10592563 -15.96357346 0.25098039 0.27450980 0.65882353
v -0.08089784 -0.10425784 -15.96716976 0.25098039 0.27450980 0.65882353
v -0.07902168 -0.10027534 -15.96905231 0.25098039 0.27450980 0.65882353
v -0.08052011 -0.10870267 -15.96723652 0.25098039 0.27450980 0.65882353
v -0.07659607 -0.11176479 -15.96462440 0.25098039 0.27450980 0.65882353
v -0.06637095 -0.11714961 -15.97709370 0.25098039 0.27450980 0.65882353
v -0.06630403 -0.11301459 -15.97277641 0.25098039 0.27450980 0.65882353
v -0.06705765 -0.11388889 -15.97219658 0.25098039 0.27450980 0.65882353
v -0.06706740 -0.11839159 -15.97596169 0.25098039 0.27450980 0.65882353
v -0.06671646 -0.11004823 -15.96650028 0.25098039 0.27450980 0.65882353
v -0.06759036 -0.11169045 -15.96751118 0.25098039 0.27450980 0.65882353
v -0.07093070 -0.11231129 -15.96545124 0.25098039 0.27450980 0.65882353
v -0.07108179 -0.11674978 -15.97034931 0.25098039 0.27450980 0.65882353
v -0.07684219 -0.11517641 -15.97102451 0.25098039 0.27450980 0.65882353
v -0.07586406 -0.11845930 -15.97487640 0.25098039 0.27450980 0.65882353
v -0.07086186 -0.12046361 -15.97432613 0.25098039 0.27450980 0.65882353
v -0.07534969 -0.11275159 -15.96618748 0.25098039 0.27450980 0.65882353
v -0.06804915 -0.12078106 -15.97792816 0.25098039 0.27450980 0.65882353
v -0.06637961 -0.12101112 -15.97938824 0.25098039 0.27450980 0.65882353
v -0.07087100 -0.11090961 -15.96315479 0.25098039 0.27450980 0.65882353
v -0.06465431 -0.10609962 -15.96870518 0.25098039 0.27450980 0.65882353
v -0.06504160 -0.11112435 -15.97466087 0.25098039 0.27450980 0.65882353
v -0.06480753 -0.11510970 -15.97940445 0.25098039 0.27450980 0.65882353
v -0.06680825 -0.11832805 -15.98205185 0.25098039 0.27450980 0.65882353
v -0.06649633 -0.10871665 -15.97713661 0.25098039 0.27450980 0.65882353
v -0.06657383 -0.11286759 -15.98085976 0.25098039 0.27450980 0.65882353
v -0.06826110 -0.11572678 -15.98328304 0.25098039 0.27450980 0.65882353
v -0.06900601 -0.10728212 -15.97866344 0.25098039 0.27450980 0.65882353
v -0.06925412 -0.11115517 -15.98180103 0.25098039 0.27450980 0.65882353
v -0.06916009 -0.10048832 -15.97176933 0.25098039 0.27450980 0.65882353
v -0.06612408 -0.10281803 -15.97052479 0.25098039 0.27450980 0.65882353
v -0.06986396 -0.11398101 -15.98328400 0.25098039 0.27450980 0.65882353
v -0.07081127 -0.12295808 -15.97945309 0.25098039 0.27450980 0.65882353
v -0.07206507 -0.12038448 -15.98280239 0.25098039 0.27450980 0.65882353
v -0.07086208 -0.12175825 -15.97770691 0.25098039 0.27450980 0.65882353
v -0.07850720 -0.11414120 -15.97107315 0.25098039 0.27450980 0.65882353
v -0.07783189 -0.11829081 -15.97631931 0.25098039 0.27450980 0.65882353
v -0.08001052 -0.11228980 -15.97278214 0.25098039 0.27450980 0.65882353
v -0.07929543 -0.11652245 -15.97784615 0.25098039 0.27450980 0.65882353
v -0.07571757 -0.12135610 -15.97860813 0.25098039 0.27450980 0.65882353
v -0.07483020 -0.12109008 -15.97761345 0.25098039 0.27450980 0.65882353
v -0.06970039 -0.09847344 -15.96997547 0.25098039 0.27450980 0.65882353
v -0.07474229 -0.09853491 -15.97060108 0.25098039 0.27450980 0.65882353
v -0.07392859 -0.09999825 -15.97225857 0.25098039 0.27450980 0.65882353
v -0.07355753 -0.10698597 -15.97973537 0.25098039 0.27450980 0.65882353
v -0.07826111 -0.10145259 -15.97110081 0.25098039 0.27450980 0.65882353
v -0.08050835 -0.10670607 -15.97053623 0.25098039 0.27450980 0.65882353
v -0.07965708 -0.11020494 -15.97536755 0.25098039 0.27450980 0.65882353
v -0.07763034 -0.10853837 -15.97820568 0.25098039 0.27450980 0.65882353
v -0.07902506 -0.11430006 -15.97953701 0.25098039 0.27450980 0.65882353
v -0.07731839 -0.11211197 -15.98034763 0.25098039 0.27450980 0.65882353
v -0.07326344 -0.11065318 -15.98270416 0.25098039 0.27450980 0.65882353
v -0.07648686 -0.11689000 -15.98171902 0.25098039 0.27450980 0.65882353
v -0.07681705 -0.11962660 -15.98055744 0.25098039 0.27450980 0.65882353
v -0.07245012 -0.11724542 -15.98386002 0.25098039 0.27450980 0.65882353
v -0.07587020 -0.11450888 -15.98236275 0.25098039 0.27450980 0.65882353
v -0.07278764 -0.11461832 -15.98391724 0.25098039 0.27450980 0.65882353
v -0.08875873 -0.05886986 -15.97042274 0.25098039 0.27450980 0.65882353
v -0.10792067 -0.07742073 -15.97798920 0.25098039 0.27450980 0.65882353
v -0.11140054 -0.07657695 -15.97979355 0.25098039 0.27450980 0.65882353
v -0.11201078 -0.07336660 -15.97811317 0.25098039 0.27450980 0.65882353
v -0.10819284 -0.07327375 -15.97684097 0.25098039 0.27450980 0.65882353
v -0.10913944 -0.08012412 -15.96750641 0.25098039 0.27450980 0.65882353
v -0.10662252 -0.07976292 -15.97113132 0.25098039 0.27450980 0.65882353
v -0.10618775 -0.07544503 -15.96901417 0.25098039 0.27450980 0.65882353
v -0.10864304 -0.07571592 -15.96546364 0.25098039 0.27450980 0.65882353
v -0.11382563 -0.08022247 -15.96639347 0.25098039 0.27450980 0.65882353
v -0.11368640 -0.07583901 -15.96462250 0.25098039 0.27450980 0.65882353
v -0.10812431 -0.07231941 -15.96403408 0.25098039 0.27450980 0.65882353
v -0.10551803 -0.07188344 -15.96794796 0.25098039 0.27450980 0.65882353
v -0.10346852 -0.05619740 -15.96644592 0.25098039 0.27450980 0.65882353
v -0.10682341 -0.05444807 -15.96228313 0.25098039 0.27450980 0.65882353
v -0.12139414 -0.05040005 -15.97359371 0.25098039 0.27450980 0.65882353
v -0.11721468 -0.04886115 -15.97840691 0.25098039 0.27450980 0.65882353
v -0.11742695 -0.05774600 -15.97694397 0.25098039 0.27450980 0.65882353
v -0.12076689 -0.05714461 -15.97283268 0.25098039 0.27450980 0.65882353
v -0.10644697 -0.07867807 -15.97483253 0.25098039 0.27450980 0.65882353
v -0.10587817 -0.07441734 -15.97379112 0.25098039 0.27450980 0.65882353
v -0.12058266 -0.06965533 -15.97428703 0.25098039 0.27450980 0.65882353
v -0.11698903 -0.06982022 -15.97725677 0.25098039 0.27450980 0.65882353
v -0.11598340 -0.07282637 -15.97834396 0.25098039 0.27450980 0.65882353
v -0.11996413 -0.07347734 -15.97627258 0.25098039 0.27450980 0.65882353
v -0.11166441 -0.05032459 -15.97967148 0.25098039 0.27450980 0.65882353
v -0.10681021 -0.05172204 -15.97821808 0.25098039 0.27450980 0.65882353
v -0.10699264 -0.05604843 -15.97844028 0.25098039 0.27450980 0.65882353
v -0.11259674 -0.05855109 -15.97855186 0.25098039 0.27450980 0.65882353
v -0.10335901 -0.05713014 -15.97425938 0.25098039 0.27450980 0.65882353
v -0.12151494 -0.07039879 -15.97049427 0.25098039 0.27450980 0.65882353
v -0.11931705 -0.07156990 -15.96537685 0.25098039 0.27450980 0.65882353
v -0.12068395 -0.05519481 -15.96299267 0.25098039 0.27450980 0.65882353
v -0.12180983 -0.05530512 -15.96765804 0.25098039 0.27450980 0.65882353
v -0.10522384 -0.07186423 -15.97243690 0.25098039 0.27450980 0.65882353
v -0.11267048 -0.07053364 -15.97777939 0.25098039 0.27450980 0.65882353
v -0.10835674 -0.07118802 -15.97641182 0.25098039 0.27450980 0.65882353
v -0.11363183 -0.07226661 -15.96268177 0.25098039 0.27450980 0.65882353
v -0.11907908 -0.07558574 -15.96727848 0.25098039 0.27450980 0.65882353
v -0.12112591 -0.08668369 -15.97794914 0.25098039 0.27450980 0.65882353
v -0.12135067 -0.07784548 -15.97391129 0.25098039 0.27450980 0.65882353
v -0.11954759 -0.07687227 -15.97824574 0.25098039 0.27450980 0.65882353
v -0.12015077 -0.08584311 -15.98060608 0.25098039 0.27450980 0.65882353
v -0.12120751 -0.07432084 -15.97211742 0.25098039 0.27450980 0.65882353
v -0.11922804 -0.07969879 -15.96915150 0.25098039 0.27450980 0.65882353
v -0.10832556 -0.08581204 -15.98177910 0.25098039 0.27450980 0.65882353
v -0.11302728 -0.08452605 -15.98330784 0.25098039 0.27450980 0.65882353
v -0.10686079 -0.08684422 -15.97913456 0.25098039 0.27450980 0.65882353
v -0.11344489 -0.05460509 -15.95995808 0.25098039 0.27450980 0.65882353
v -0.10941165 -0.08923377 -15.97260380 0.25098039 0.27450980 0.65882353
v -0.10689929 -0.08859080 -15.97607231 0.25098039 0.27450980 0.65882353
v -0.11540121 -0.07644103 -15.97999382 0.25098039 0.27450980 0.65882353
v -0.11731266 -0.08474060 -15.98261833 0.25098039 0.27450980 0.65882353
v -0.11965504 -0.08807563 -15.97421837 0.25098039 0.27450980 0.65882353
v -0.11464334 -0.08898735 -15.97104263 0.25098039 0.27450980 0.65882353
v -0.11916017 -0.09230112 -15.97668076 0.25098039 0.27450980 0.65882353
v -0.11391832 -0.09284711 -15.97358418 0.25098039 0.27450980 0.65882353
v -0.10850227 -0.09286728 -15.97574997 0.25098039 0.27450980 0.65882353
v -0.10682771 -0.09093419 -15.97841167 0.25098039 0.27450980 0.65882353
v -0.10676322 -0.08927665 -15.98111916 0.25098039 0.27450980 0.65882353
v -0.12073631 -0.09051762 -15.98023796 0.25098039 0.27450980 0.65882353
v -0.11979982 -0.08904412 -15.98270512 0.25098039 0.27450980 0.65882353
v -0.11717203 -0.08703841 -15.98441029 0.25098039 0.27450980 0.65882353
v -0.12020952 -0.09422963 -15.98281574 0.25098039 0.27450980 0.65882353
v -0.11805421 -0.09760486 -15.98026466 0.25098039 0.27450980 0.65882353
v -0.10803676 -0.10308754 -15.98764515 0.25098039 0.27450980 0.65882353
v -0.10781473 -0.10001583 -15.98481941 0.25098039 0.27450980 0.65882353
v -0.10860358 -0.10066280 -15.98409557 0.25098039 0.27450980 0.65882353
v -0.10820810 -0.10387211 -15.98677158 0.25098039 0.27450980 0.65882353
v -0.10852767 -0.09722669 -15.98015022 0.25098039 0.27450980 0.65882353
v -0.10957981 -0.09848009 -15.98060226 0.25098039 0.27450980 0.65882353
v -0.11277409 -0.09801090 -15.97915363 0.25098039 0.27450980 0.65882353
v -0.11237523 -0.10203184 -15.98266125 0.25098039 0.27450980 0.65882353
v -0.11737058 -0.10155462 -15.98457146 0.25098039 0.27450980 0.65882353
v -0.11648259 -0.10481468 -15.98717213 0.25098039 0.27450980 0.65882353
v -0.11221240 -0.10509200 -15.98502541 0.25098039 0.27450980 0.65882353
v -0.11659282 -0.09910592 -15.98066616 0.25098039 0.27450980 0.65882353
v -0.10887665 -0.10634726 -15.98791504 0.25098039 0.27450980 0.65882353
v -0.10829864 -0.10684484 -15.98919010 0.25098039 0.27450980 0.65882353
v -0.11290576 -0.09699275 -15.97749615 0.25098039 0.27450980 0.65882353
v -0.10650279 -0.09406915 -15.98193359 0.25098039 0.27450980 0.65882353
v -0.10667668 -0.09914541 -15.98686790 0.25098039 0.27450980 0.65882353
v -0.10726026 -0.10325558 -15.98990822 0.25098039 0.27450980 0.65882353
v -0.10893039 -0.10637574 -15.99144554 0.25098039 0.27450980 0.65882353
v -0.10704559 -0.09684527 -15.98830032 0.25098039 0.27450980 0.65882353
v -0.10749221 -0.10178027 -15.99189758 0.25098039 0.27450980 0.65882353
v -0.10938890 -0.10459305 -15.99336815 0.25098039 0.27450980 0.65882353
v -0.10881732 -0.09460170 -15.99021626 0.25098039 0.27450980 0.65882353
v -0.10923269 -0.09981230 -15.99295712 0.25098039 0.27450980 0.65882353
v -0.10906031 -0.08913054 -15.98577499 0.25098039 0.27450980 0.65882353
v -0.10707446 -0.09149334 -15.98399830 0.25098039 0.27450980 0.65882353
v -0.11022229 -0.10280889 -15.99357986 0.25098039 0.27450980 0.65882353
v -0.11183112 -0.10835998 -15.98904896 0.25098039 0.27450980 0.65882353
v -0.11208940 -0.10730280 -15.99195576 0.25098039 0.27450980 0.65882353
v -0.11211764 -0.10781068 -15.98765373 0.25098039 0.27450980 0.65882353
v -0.11853396 -0.10085042 -15.98521900 0.25098039 0.27450980 0.65882353
v -0.11754789 -0.10472214 -15.98855400 0.25098039 0.27450980 0.65882353
v -0.11950216 -0.09916444 -15.98697472 0.25098039 0.27450980 0.65882353
v -0.11779749 -0.10358050 -15.99050045 0.25098039 0.27450980 0.65882353
v -0.11543605 -0.10742436 -15.98983002 0.25098039 0.27450980 0.65882353
v -0.11475891 -0.10699515 -15.98798084 0.25098039 0.27450980 0.65882353
v -0.10886939 -0.08765083 -15.98408794 0.25098039 0.27450980 0.65882353
v -0.11289299 -0.08649793 -15.98468208 0.25098039 0.27450980 0.65882353
v -0.11313326 -0.08824841 -15.98647690 0.25098039 0.27450980 0.65882353
v -0.11246326 -0.09359527 -15.99109364 0.25098039 0.27450980 0.65882353
v -0.11728892 -0.08910628 -15.98611069 0.25098039 0.27450980 0.65882353
v -0.11962047 -0.09162667 -15.98451138 0.25098039 0.27450980 0.65882353
v -0.11875065 -0.09709415 -15.98882008 0.25098039 0.27450980 0.65882353
v -0.11661411 -0.09506536 -15.99060917 0.25098039 0.27450980 0.65882353
v -0.11701552 -0.10224973 -15.99223804 0.25098039 0.27450980 0.65882353
v -0.11520018 -0.10004665 -15.99350834 0.25098039 0.27450980 0.65882353
v -0.11217568 -0.09890169 -15.99392319 0.25098039 0.27450980 0.65882353
v -0.11445015 -0.10499419 -15.99319363 0.25098039 0.27450980 0.65882353
v -0.11511803 -0.10651150 -15.99206924 0.25098039 0.27450980 0.65882353
v -0.11217233 -0.10541897 -15.99335670 0.25098039 0.27450980 0.65882353
v -0.11372177 -0.10319963 -15.99397945 0.25098039 0.27450980 0.65882353
v -0.11209437 -0.10293497 -15.99400139 0.25098039 0.27450980 0.65882353
v -0.12188257 -0.05179166 -15.96951962 0.25098039 0.27450980 0.65882353
v -0.05607429 -0.01888912 -16.04364586 0.25098039 0.27450980 0.65882353
v -0.05753300 -0.02248161 -16.03939819 0.25098039 0.27450980 0.65882353
v -0.07129845 -0.02949763 -16.04524803 0.25098039 0.27450980 0.65882353
v -0.06631747 -0.03005304 -16.04022789 0.25098039 0.27450980 0.65882353
v -0.07287829 -0.02668185 -16.05106544 0.25098039 0.27450980 0.65882353
v -0.06779581 -0.01830781 -16.05550575 0.25098039 0.27450980 0.65882353
v -0.07190369 -0.02178325 -16.05399323 0.25098039 0.27450980 0.65882353
v -0.06134392 -0.02728479 -16.03827667 0.25098039 0.27450980 0.65882353
v -0.05714180 -0.01589014 -16.04858398 0.25098039 0.27450980 0.65882353
v -0.06206943 -0.01510571 -16.05371666 0.25098039 0.27450980 0.65882353
v -0.05218746 -0.02167356 -16.05235100 0.25098039 0.27450980 0.65882353
v -0.05743365 -0.02147933 -16.05805206 0.25098039 0.27450980 0.65882353
v -0.06314273 -0.02483726 -16.06039238 0.25098039 0.27450980 0.65882353
v -0.06843974 -0.02817380 -16.05775261 0.25098039 0.27450980 0.65882353
v -0.07035030 -0.03130145 -16.05451012 0.25098039 0.27450980 0.65882353
v -0.05315804 -0.02453343 -16.04582214 0.25098039 0.27450980 0.65882353
v -0.05531965 -0.02790157 -16.04175377 0.25098039 0.27450980 0.65882353
v -0.06054473 -0.03163464 -16.04045868 0.25098039 0.27450980 0.65882353
v -0.05041255 -0.03223389 -16.04705238 0.25098039 0.27450980 0.65882353
v -0.04823796 -0.03876955 -16.05460548 0.25098039 0.27450980 0.65882353
v -0.05533405 -0.05162125 -16.06628609 0.25098039 0.27450980 0.65882353
v -0.05856268 -0.04589456 -16.06458473 0.25098039 0.27450980 0.65882353
v -0.05567522 -0.04542586 -16.06463623 0.25098039 0.27450980 0.65882353
v -0.05294654 -0.05038216 -16.06679344 0.25098039 0.27450980 0.65882353
v -0.05828060 -0.04048341 -16.06353569 0.25098039 0.27450980 0.65882353
v -0.05614594 -0.04157639 -16.06302071 0.25098039 0.27450980 0.65882353
v -0.05232796 -0.03957295 -16.06013870 0.25098039 0.27450980 0.65882353
v -0.04982366 -0.04402155 -16.06241226 0.25098039 0.27450980 0.65882353
v -0.04900360 -0.04066797 -16.05658722 0.25098039 0.27450980 0.65882353
v -0.04726571 -0.04429627 -16.05672264 0.25098039 0.27450980 0.65882353
v -0.04750660 -0.04866049 -16.06406403 0.25098039 0.27450980 0.65882353
v -0.04959676 -0.05271693 -16.06763840 0.25098039 0.27450980 0.65882353
v -0.04571456 -0.05294414 -16.06529999 0.25098039 0.27450980 0.65882353
v -0.05132225 -0.05517274 -16.06658363 0.25098039 0.27450980 0.65882353
v -0.05136916 -0.03748835 -16.06131172 0.25098039 0.27450980 0.65882353
v -0.06444144 -0.03710601 -16.06152916 0.25098039 0.27450980 0.65882353
v -0.06204771 -0.04573912 -16.06266403 0.25098039 0.27450980 0.65882353
v -0.05807908 -0.05262101 -16.06376648 0.25098039 0.27450980 0.65882353
v -0.05302161 -0.05647615 -16.06407547 0.25098039 0.27450980 0.65882353
v -0.06423736 -0.04657315 -16.05870247 0.25098039 0.27450980 0.65882353
v -0.05971268 -0.05260959 -16.05945015 0.25098039 0.27450980 0.65882353
v -0.05478959 -0.05587513 -16.05918121 0.25098039 0.27450980 0.65882353
v -0.06386138 -0.04718480 -16.05392075 0.25098039 0.27450980 0.65882353
v -0.05916575 -0.05231372 -16.05546761 0.25098039 0.27450980 0.65882353
v -0.06841758 -0.03580526 -16.05014038 0.25098039 0.27450980 0.65882353
v -0.06856111 -0.03605258 -16.05652428 0.25098039 0.27450980 0.65882353
v -0.05555747 -0.05464757 -16.05660820 0.25098039 0.27450980 0.65882353
v -0.04543103 -0.05555788 -16.06468010 0.25098039 0.27450980 0.65882353
v -0.04747108 -0.05699993 -16.06153297 0.25098039 0.27450980 0.65882353
v -0.04663491 -0.04384827 -16.05318832 0.25098039 0.27450980 0.65882353
v -0.04443091 -0.04837736 -16.05855179 0.25098039 0.27450980 0.65882353
v -0.04465780 -0.04918198 -16.05537224 0.25098039 0.27450980 0.65882353
v -0.04778123 -0.04326826 -16.04920769 0.25098039 0.27450980 0.65882353
v -0.04551072 -0.05002886 -16.05254364 0.25098039 0.27450980 0.65882353
v -0.04351540 -0.05323113 -16.05932426 0.25098039 0.27450980 0.65882353
v -0.04386050 -0.05127782 -16.06146431 0.25098039 0.27450980 0.65882353
v -0.06991023 -0.03275409 -16.04854012 0.25098039 0.27450980 0.65882353
v -0.06616537 -0.03264143 -16.04307175 0.25098039 0.27450980 0.65882353
v -0.06449901 -0.03527801 -16.04464722 0.25098039 0.27450980 0.65882353
v -0.06045450 -0.04603757 -16.04855728 0.25098039 0.27450980 0.65882353
v -0.05903950 -0.03521916 -16.04197121 0.25098039 0.27450980 0.65882353
v -0.05345051 -0.03371109 -16.04357529 0.25098039 0.27450980 0.65882353
v -0.05045713 -0.04413790 -16.04648590 0.25098039 0.27450980 0.65882353
v -0.05519134 -0.04511704 -16.04578590 0.25098039 0.27450980 0.65882353
v -0.04863299 -0.05093150 -16.05057526 0.25098039 0.27450980 0.65882353
v -0.05176748 -0.05131373 -16.05023003 0.25098039 0.27450980 0.65882353
v -0.05627401 -0.05235043 -16.05212593 0.25098039 0.27450980 0.65882353
v -0.04820819 -0.05451575 -16.05442047 0.25098039 0.27450980 0.65882353
v -0.04505770 -0.05430707 -16.05642319 0.25098039 0.27450980 0.65882353
v -0.05041750 -0.05642152 -16.05761147 0.25098039 0.27450980 0.65882353
v -0.05078810 -0.05367731 -16.05319405 0.25098039 0.27450980 0.65882353
v -0.05288564 -0.05474668 -16.05511665 0.25098039 0.27450980 0.65882353
v -0.11920667 -0.04476104 -15.97824097 0.25098039 0.27450980 0.65882353
v -0.11307195 -0.04525609 -15.98085499 0.25098039 0.27450980 0.65882353
v -0.11750331 -0.04089437 -15.98196507 0.25098039 0.27450980 0.65882353
v -0.12205414 -0.03348722 -15.98462963 0.25098039 0.27450980 0.65882353
v -0.13024290 -0.02625151 -15.98394108 0.25098039 0.27450980 0.65882353
v -0.11585593 -0.03211941 -15.98692894 0.25098039 0.27450980 0.65882353
v -0.11142160 -0.03983736 -15.98351479 0.25098039 0.27450980 0.65882353
v -0.10534459 -0.04686156 -15.98066902 0.25098039 0.27450980 0.65882353
v -0.11292481 -0.02346479 -15.99122238 0.25098039 0.27450980 0.65882353
f 2 3 1
f 1 3 4
f 5 6 8
f 8 6 7
f 9 4 10
f 10 4 3
f 12 13 11
f 11 13 9
f 14 12 16
f 16 12 15
f 18 19 17
f 17 19 20
f 22 23 21
f 21 23 24
f 26 27 25
f 25 27 28
f 30 31 29
f 29 31 32
f 33 34 36
f 36 34 35
f 37 38 40
f 40 38 39
f 41 42 6
f 6 42 43
f 6 43 7
f 7 43 44
f 45 34 46
f 46 34 33
f 48 49 47
f 47 49 50
f 52 53 51
f 51 53 54
f 56 52 55
f 55 52 51
f 58 59 57
f 57 59 60
f 61 62 4
f 4 62 1
f 64 65 63
f 63 65 66
f 68 69 67
f 67 69 70
f 72 73 71
f 71 73 74
f 76 77 75
f 75 77 78
f 53 79 54
f 54 79 80
f 82 83 81
f 81 83 84
f 85 86 52
f 52 86 53
f 57 60 87
f 87 60 88
f 89 90 43
f 43 90 44
f 43 42 89
f 89 42 91
f 40 39 92
f 92 39 93
f 94 70 64
f 64 70 69
f 13 61 9
f 9 61 4
f 25 28 69
f 69 28 95
f 96 25 68
f 68 25 69
f 98 99 97
f 97 99 100
f 101 102 104
f 104 102 103
f 106 30 105
f 105 30 29
f 51 54 107
f 107 54 108
f 54 80 108
f 108 80 109
f 111 112 110
f 110 112 113
f 115 5 114
f 114 5 116
f 115 41 5
f 5 41 6
f 36 35 111
f 111 35 117
f 35 118 117
f 117 118 119
f 34 120 35
f 35 120 118
f 34 45 120
f 120 45 121
f 125 126 124
f 124 126 127
f 128 129 14
f 14 129 130
f 33 131 46
f 46 131 132
f 133 94 63
f 63 94 64
f 134 135 137
f 137 135 136
f 139 140 138
f 138 140 141
f 77 142 78
f 78 142 143
f 144 145 20
f 20 145 146
f 148 149 147
f 147 149 72
f 151 152 150
f 150 152 153
f 82 101 83
f 83 101 104
f 101 82 155
f 155 82 154
f 156 157 58
f 58 157 59
f 158 68 147
f 147 68 67
f 159 146 15
f 15 146 16
f 68 158 96
f 96 158 160
f 129 66 130
f 130 66 65
f 162 163 161
f 161 163 164
f 166 167 165
f 165 167 168
f 170 171 169
f 169 171 172
f 174 171 173
f 173 171 170
f 176 177 175
f 175 177 178
f 180 181 179
f 179 181 24
f 182 183 21
f 21 183 184
f 81 185 82
f 82 185 154
f 186 187 188
f 188 187 144
f 158 71 160
f 160 71 189
f 190 135 157
f 157 135 59
f 169 172 139
f 139 172 140
f 147 72 158
f 158 72 71
f 192 193 191
f 191 193 194
f 167 166 49
f 49 166 195
f 196 190 50
f 50 190 157
f 197 198 200
f 200 198 199
f 21 24 182
f 182 24 181
f 146 159 20
f 20 159 17
f 182 181 81
f 81 181 185
f 201 185 180
f 180 185 181
f 202 203 83
f 83 203 84
f 205 206 204
f 204 206 85
f 207 22 184
f 184 22 21
f 179 24 208
f 208 24 23
f 208 209 179
f 179 209 205
f 209 210 205
f 205 210 206
f 212 206 211
f 211 206 210
f 179 205 180
f 180 205 204
f 213 176 88
f 88 176 214
f 86 85 212
f 212 85 206
f 193 217 218
f 217 219 218
f 218 219 220
f 219 18 220
f 220 18 17
f 19 221 20
f 20 221 144
f 222 223 225
f 225 223 224
f 175 226 176
f 176 226 214
f 227 87 214
f 214 87 88
f 220 17 228
f 228 17 159
f 134 213 60
f 60 213 88
f 138 229 151
f 151 229 152
f 193 192 210
f 210 192 211
f 230 194 218
f 218 194 193
f 231 232 228
f 228 232 230
f 233 234 91
f 91 234 89
f 235 236 93
f 93 236 92
f 230 232 234
f 234 232 237
f 47 238 48
f 48 238 239
f 240 191 235
f 235 191 236
f 5 8 116
f 116 8 241
f 242 243 189
f 189 243 160
f 244 245 98
f 98 245 99
f 156 246 47
f 47 246 238
f 76 247 77
f 77 247 248
f 250 125 249
f 249 125 124
f 252 253 251
f 251 253 254
f 111 110 36
f 36 110 255
f 256 33 255
f 255 33 36
f 257 258 154
f 154 258 155
f 63 169 133
f 133 169 139
f 66 170 63
f 63 170 169
f 173 170 129
f 129 170 66
f 129 128 173
f 173 128 259
f 128 260 259
f 259 260 261
f 213 134 262
f 262 134 137
f 263 264 186
f 186 264 187
f 112 265 113
f 113 265 266
f 11 267 268
f 234 233 230
f 230 233 194
f 153 269 70
f 70 269 67
f 175 178 165
f 165 178 141
f 150 153 94
f 94 153 70
f 271 221 270
f 270 221 207
f 269 153 272
f 272 153 152
f 121 45 109
f 109 45 108
f 47 50 156
f 156 50 157
f 57 273 58
f 58 273 274
f 145 275 260
f 260 275 261
f 276 149 143
f 143 149 78
f 148 269 75
f 75 269 272
f 207 277 270
f 270 277 278
f 195 196 49
f 49 196 50
f 59 135 60
f 60 135 134
f 83 104 202
f 202 104 279
f 149 148 78
f 78 148 75
f 247 278 248
f 248 278 277
f 183 182 84
f 84 182 81
f 48 239 281
f 281 239 282
f 227 223 283
f 283 223 222
f 223 226 224
f 224 226 168
f 281 282 224
f 224 282 225
f 165 168 175
f 175 168 226
f 264 263 138
f 138 263 229
f 14 16 128
f 128 16 260
f 220 228 218
f 218 228 230
f 87 227 284
f 284 227 283
f 260 16 145
f 145 16 146
f 244 98 258
f 258 98 155
f 58 274 156
f 156 274 246
f 107 285 51
f 51 285 55
f 243 286 160
f 160 286 96
f 234 237 89
f 89 237 90
f 46 132 107
f 107 132 285
f 253 252 249
f 249 252 250
f 286 26 96
f 96 26 25
f 106 105 287
f 287 105 288
f 272 152 289
f 289 152 229
f 138 151 139
f 139 151 133
f 183 290 161
f 161 290 162
f 291 292 277
f 277 292 293
f 151 150 133
f 133 150 94
f 262 275 177
f 177 275 187
f 144 187 145
f 145 187 275
f 273 57 284
f 284 57 87
f 174 136 190
f 190 136 135
f 111 117 112
f 112 117 38
f 117 119 38
f 38 119 123
f 112 38 265
f 265 38 37
f 287 288 254
f 254 288 251
f 228 159 231
f 231 159 15
f 223 227 226
f 226 227 214
f 147 67 148
f 148 67 269
f 224 168 281
f 281 168 167
f 199 163 200
f 200 163 162
f 45 46 108
f 108 46 107
f 281 167 48
f 48 167 49
f 161 164 291
f 291 164 292
f 38 123 39
f 293 294 277
f 277 294 248
f 284 283 296
f 296 283 295
f 284 296 273
f 273 296 297
f 274 273 298
f 298 273 297
f 246 274 299
f 299 274 298
f 283 222 295
f 295 222 300
f 222 225 300
f 300 225 301
f 301 225 302
f 302 225 282
f 303 304 300
f 300 304 295
f 306 307 305
f 305 307 308
f 309 310 308
f 308 310 305
f 308 307 312
f 312 307 311
f 313 314 312
f 312 314 315
f 311 316 312
f 312 316 313
f 317 304 311
f 311 304 316
f 315 309 312
f 312 309 308
f 318 319 321
f 321 319 320
f 319 318 309
f 309 318 310
f 311 307 317
f 317 307 306
f 306 297 317
f 317 297 296
f 306 322 297
f 297 322 298
f 305 323 306
f 306 323 322
f 323 305 324
f 324 305 310
f 304 317 295
f 295 317 296
f 318 325 310
f 310 325 324
f 323 324 326
f 326 324 327
f 324 325 327
f 327 325 328
f 326 327 329
f 329 327 330
f 329 331 326
f 326 331 332
f 333 330 328
f 328 330 327
f 323 326 322
f 322 326 332
f 322 332 298
f 298 332 299
f 325 318 334
f 334 318 321
f 313 316 335
f 335 316 304
f 335 336 313
f 313 336 314
f 304 303 335
f 335 303 337
f 336 335 338
f 338 335 337
f 336 339 314
f 314 339 340
f 246 299 238
f 238 299 341
f 239 342 282
f 282 342 302
f 342 239 341
f 341 239 238
f 341 331 342
f 342 331 343
f 331 329 343
f 343 329 344
f 342 343 302
f 302 343 345
f 341 299 331
f 331 299 332
f 346 301 345
f 345 301 302
f 346 303 301
f 301 303 300
f 347 337 346
f 346 337 303
f 347 346 348
f 348 346 345
f 349 347 350
f 350 347 348
f 343 344 345
f 345 344 348
f 344 351 348
f 348 351 350
f 337 347 338
f 338 347 349
f 353 338 352
f 352 338 349
f 352 355 354
f 354 355 356
f 352 349 355
f 355 349 350
f 352 354 353
f 353 354 334
f 353 334 339
f 339 334 321
f 339 336 353
f 353 336 338
f 329 330 344
f 344 330 351
f 356 351 333
f 333 351 330
f 356 355 351
f 351 355 350
f 354 356 328
f 328 356 333
f 328 325 354
f 354 325 334
f 309 315 319
f 319 315 320
f 320 340 321
f 321 340 339
f 320 315 340
f 340 315 314
f 137 136 261
f 261 136 259
f 140 166 141
f 141 166 165
f 172 171 195
f 195 171 196
f 171 174 196
f 196 174 190
f 178 177 264
f 264 177 187
f 172 195 140
f 140 195 166
f 137 261 262
f 262 261 275
f 178 264 141
f 141 264 138
f 262 177 213
f 213 177 176
f 136 174 259
f 259 174 173
f 358 359 357
f 357 359 360
f 362 363 361
f 361 363 364
f 361 364 365
f 365 364 366
f 367 368 370
f 370 368 369
f 76 371 247
f 247 371 372
f 373 374 362
f 362 374 363
f 376 377 375
f 375 377 378
f 289 229 380
f 380 229 379
f 381 379 263
f 263 379 229
f 383 384 382
f 382 384 385
f 386 368 374
f 374 368 363
f 76 289 371
f 371 289 380
f 377 376 359
f 359 376 387
f 388 386 360
f 360 386 374
f 389 383 366
f 366 383 390
f 392 393 391
f 391 393 394
f 383 382 390
f 390 382 395
f 396 365 390
f 390 365 366
f 389 366 367
f 367 366 364
f 357 397 358
f 358 397 398
f 373 399 357
f 357 399 397
f 389 367 400
f 400 367 370
f 382 385 375
f 375 385 372
f 357 360 373
f 373 360 374
f 361 401 362
f 362 401 402
f 387 388 359
f 359 388 360
f 363 368 364
f 364 368 367
f 358 398 403
f 403 398 404
f 396 392 405
f 405 392 391
f 392 395 393
f 393 395 378
f 393 403 394
f 394 403 404
f 375 378 382
f 382 378 395
f 365 396 406
f 406 396 405
f 362 402 373
f 373 402 399
f 271 270 400
f 400 270 384
f 401 361 406
f 406 361 365
f 381 369 386
f 386 369 368
f 392 396 395
f 395 396 390
f 393 378 403
f 403 378 377
f 403 377 358
f 358 377 359
f 406 405 408
f 408 405 407
f 406 408 401
f 401 408 409
f 401 409 402
f 402 409 410
f 402 410 399
f 399 410 411
f 405 391 407
f 407 391 412
f 391 394 412
f 412 394 413
f 394 404 413
f 413 404 414
f 415 416 412
f 412 416 407
f 418 419 417
f 417 419 420
f 421 422 418
f 418 422 419
f 419 422 424
f 424 422 423
f 425 426 424
f 424 426 427
f 423 428 424
f 424 428 425
f 427 420 424
f 424 420 419
f 420 429 417
f 417 429 430
f 423 422 431
f 431 422 421
f 421 409 431
f 431 409 408
f 421 432 409
f 409 432 410
f 418 433 421
f 421 433 432
f 434 433 417
f 417 433 418
f 431 416 423
f 423 416 428
f 416 431 407
f 407 431 408
f 435 434 430
f 430 434 417
f 433 434 436
f 436 434 437
f 434 435 437
f 437 435 438
f 436 437 439
f 439 437 440
f 439 441 436
f 436 441 442
f 438 443 437
f 437 443 440
f 436 442 433
f 433 442 432
f 432 442 410
f 410 442 411
f 435 430 445
f 445 430 444
f 430 429 444
f 444 429 446
f 425 428 447
f 447 428 416
f 426 425 448
f 448 425 447
f 416 415 447
f 447 415 449
f 447 449 448
f 448 449 450
f 451 452 448
f 448 452 426
f 446 452 444
f 444 452 451
f 399 411 397
f 397 411 453
f 398 454 404
f 404 454 414
f 454 398 453
f 453 398 397
f 453 441 454
f 454 441 455
f 441 439 455
f 455 439 456
f 454 455 414
f 414 455 457
f 441 453 442
f 442 453 411
f 458 413 457
f 457 413 414
f 458 415 413
f 413 415 412
f 458 459 415
f 415 459 449
f 459 458 460
f 460 458 457
f 461 459 462
f 462 459 460
f 455 456 457
f 457 456 460
f 456 463 460
f 460 463 462
f 459 461 449
f 449 461 450
f 465 450 464
f 464 450 461
f 464 467 466
f 466 467 468
f 464 461 467
f 467 461 462
f 464 466 465
f 465 466 445
f 465 445 451
f 451 445 444
f 451 448 465
f 465 448 450
f 439 440 456
f 456 440 463
f 468 463 443
f 443 463 440
f 468 467 463
f 463 467 462
f 466 468 438
f 438 468 443
f 438 435 466
f 466 435 445
f 420 427 429
f 429 427 446
f 446 427 452
f 452 427 426
f 370 369 188
f 188 369 186
f 371 376 372
f 372 376 375
f 380 379 387
f 387 379 388
f 379 381 388
f 388 381 386
f 385 384 278
f 278 384 270
f 380 387 371
f 371 387 376
f 400 370 271
f 271 370 188
f 385 278 372
f 372 278 247
f 400 384 389
f 389 384 383
f 369 381 186
f 186 381 263
f 221 271 144
f 144 271 188
f 221 19 207
f 207 19 22
f 19 18 22
f 22 18 23
f 18 219 23
f 23 219 208
f 469 470 472
f 472 470 471
f 474 475 473
f 473 475 476
f 473 476 477
f 477 476 478
f 480 481 479
f 479 481 482
f 483 484 474
f 474 484 475
f 486 487 485
f 485 487 488
f 489 490 77
f 77 490 142
f 491 489 248
f 248 489 77
f 493 494 492
f 492 494 495
f 496 480 484
f 484 480 475
f 486 497 487
f 487 497 471
f 498 496 472
f 472 496 484
f 499 493 478
f 478 493 500
f 501 502 504
f 504 502 503
f 493 492 500
f 500 492 505
f 506 477 500
f 500 477 478
f 499 478 479
f 479 478 476
f 469 507 470
f 470 507 508
f 483 509 469
f 469 509 507
f 479 482 499
f 499 482 510
f 492 495 485
f 485 495 511
f 483 469 484
f 484 469 472
f 473 512 474
f 474 512 513
f 497 498 471
f 471 498 472
f 475 480 476
f 476 480 479
f 470 508 514
f 514 508 515
f 506 502 516
f 516 502 501
f 503 502 488
f 488 502 505
f 514 515 503
f 503 515 504
f 485 488 492
f 492 488 505
f 477 506 517
f 517 506 516
f 474 513 483
f 483 513 509
f 510 292 494
f 494 292 164
f 512 473 517
f 517 473 477
f 491 481 496
f 496 481 480
f 502 506 505
f 505 506 500
f 503 488 514
f 514 488 487
f 514 487 470
f 470 487 471
f 517 516 519
f 519 516 518
f 517 519 512
f 512 519 520
f 512 520 513
f 513 520 521
f 513 521 509
f 509 521 522
f 516 501 518
f 518 501 523
f 501 504 523
f 523 504 524
f 524 504 525
f 525 504 515
f 526 527 523
f 523 527 518
f 529 530 528
f 528 530 531
f 532 533 529
f 529 533 530
f 530 533 535
f 535 533 534
f 536 537 535
f 535 537 538
f 534 539 535
f 535 539 536
f 538 531 535
f 535 531 530
f 540 541 531
f 531 541 528
f 533 532 534
f 534 532 542
f 532 520 542
f 542 520 519
f 532 543 520
f 520 543 521
f 529 544 532
f 532 544 543
f 544 529 545
f 545 529 528
f 534 542 539
f 539 542 527
f 527 542 518
f 518 542 519
f 541 546 528
f 528 546 545
f 547 544 548
f 548 544 545
f 546 549 545
f 545 549 548
f 550 547 551
f 551 547 548
f 547 550 553
f 553 550 552
f 549 554 548
f 548 554 551
f 544 547 543
f 543 547 553
f 543 553 521
f 521 553 522
f 546 541 556
f 556 541 555
f 541 540 555
f 555 540 557
f 536 539 558
f 558 539 527
f 537 536 559
f 559 536 558
f 527 526 558
f 558 526 560
f 559 558 561
f 561 558 560
f 559 562 537
f 537 562 563
f 557 563 555
f 555 563 562
f 509 522 507
f 507 522 564
f 508 565 515
f 515 565 525
f 565 508 564
f 564 508 507
f 564 552 565
f 565 552 566
f 552 550 566
f 566 550 567
f 565 566 525
f 525 566 568
f 564 522 552
f 552 522 553
f 569 524 568
f 568 524 525
f 569 526 524
f 524 526 523
f 570 560 569
f 569 560 526
f 570 569 571
f 571 569 568
f 572 570 573
f 573 570 571
f 566 567 568
f 568 567 571
f 567 574 571
f 571 574 573
f 570 572 560
f 560 572 561
f 576 561 575
f 575 561 572
f 575 578 577
f 577 578 579
f 575 572 578
f 578 572 573
f 575 577 576
f 576 577 556
f 576 556 562
f 562 556 555
f 562 559 576
f 576 559 561
f 550 551 567
f 567 551 574
f 579 574 554
f 554 574 551
f 579 578 574
f 574 578 573
f 579 554 577
f 577 554 549
f 549 546 577
f 577 546 556
f 531 538 540
f 540 538 557
f 557 538 563
f 563 538 537
f 481 294 482
f 482 294 293
f 580 486 511
f 511 486 485
f 490 489 497
f 497 489 498
f 489 491 498
f 498 491 496
f 163 495 164
f 164 495 494
f 580 490 486
f 486 490 497
f 482 293 510
f 510 293 292
f 495 163 511
f 511 163 199
f 494 493 510
f 510 493 499
f 481 491 294
f 294 491 248
f 582 583 581
f 581 583 584
f 586 587 585
f 585 587 588
f 585 588 589
f 589 588 590
f 592 593 591
f 591 593 594
f 595 596 598
f 598 596 597
f 599 600 586
f 586 600 587
f 601 602 604
f 604 602 603
f 605 606 608
f 608 606 607
f 609 607 200
f 200 607 606
f 610 611 613
f 613 611 612
f 600 614 587
f 587 614 592
f 596 605 597
f 597 605 608
f 602 615 603
f 603 615 583
f 616 614 584
f 584 614 600
f 611 618 617
f 617 618 590
f 620 621 619
f 619 621 622
f 610 623 611
f 611 623 618
f 624 589 618
f 618 589 590
f 617 590 591
f 591 590 588
f 581 625 582
f 582 625 626
f 599 627 581
f 581 627 625
f 591 594 617
f 617 594 628
f 601 610 598
f 598 610 613
f 581 584 599
f 599 584 600
f 585 629 586
f 586 629 630
f 615 616 583
f 583 616 584
f 587 592 588
f 588 592 591
f 582 626 631
f 631 626 632
f 624 620 633
f 633 620 619
f 621 620 604
f 604 620 623
f 631 632 621
f 621 632 622
f 610 601 623
f 623 601 604
f 589 624 634
f 634 624 633
f 586 630 599
f 599 630 627
f 203 202 628
f 628 202 612
f 629 585 634
f 634 585 589
f 609 593 614
f 614 593 592
f 620 624 623
f 623 624 618
f 631 621 603
f 603 621 604
f 582 631 583
f 583 631 603
f 634 633 636
f 636 633 635
f 634 636 629
f 629 636 637
f 629 637 630
f 630 637 638
f 630 638 627
f 627 638 639
f 633 619 635
f 635 619 640
f 619 622 640
f 640 622 641
f 641 622 642
f 642 622 632
f 644 635 643
f 643 635 640
f 645 646 648
f 648 646 647
f 649 650 646
f 646 650 647
f 647 650 652
f 652 650 651
f 652 653 655
f 655 653 654
f 651 656 652
f 652 656 653
f 655 648 652
f 652 648 647
f 648 657 645
f 645 657 658
f 650 649 651
f 651 649 659
f 649 637 659
f 659 637 636
f 649 660 637
f 637 660 638
f 661 660 646
f 646 660 649
f 662 661 645
f 645 661 646
f 651 659 656
f 656 659 644
f 644 659 635
f 635 659 636
f 663 662 658
f 658 662 645
f 664 661 665
f 665 661 662
f 663 666 662
f 662 666 665
f 667 664 668
f 668 664 665
f 664 667 670
f 670 667 669
f 666 671 665
f 665 671 668
f 661 664 660
f 660 664 670
f 660 670 638
f 638 670 639
f 658 672 663
f 663 672 673
f 658 657 672
f 672 657 674
f 653 656 675
f 675 656 644
f 653 675 654
f 654 675 676
f 675 644 677
f 677 644 643
f 676 675 678
f 678 675 677
f 679 680 676
f 676 680 654
f 674 680 672
f 672 680 679
f 627 639 625
f 625 639 681
f 626 682 632
f 632 682 642
f 681 682 625
f 625 682 626
f 669 683 681
f 681 683 682
f 667 684 669
f 669 684 683
f 682 683 642
f 642 683 685
f 681 639 669
f 669 639 670
f 686 641 685
f 685 641 642
f 641 686 640
f 640 686 643
f 686 687 643
f 643 687 677
f 687 686 688
f 688 686 685
f 689 687 690
f 690 687 688
f 683 684 685
f 685 684 688
f 684 691 688
f 688 691 690
f 687 689 677
f 677 689 678
f 693 678 692
f 692 678 689
f 692 695 694
f 694 695 696
f 692 689 695
f 695 689 690
f 692 694 693
f 693 694 673
f 693 673 679
f 679 673 672
f 679 676 693
f 693 676 678
f 684 667 691
f 691 667 668
f 696 691 671
f 671 691 668
f 696 695 691
f 691 695 690
f 694 696 666
f 666 696 671
f 666 663 694
f 694 663 673
f 648 655 657
f 657 655 674
f 674 655 680
f 680 655 654
f 593 162 594
f 594 162 290
f 598 597 601
f 601 597 602
f 615 608 616
f 616 608 607
f 607 609 616
f 616 609 614
f 697 595 613
f 613 595 598
f 597 608 602
f 602 608 615
f 594 290 628
f 628 290 203
f 628 612 617
f 617 612 611
f 593 609 162
f 162 609 200
f 105 29 698
f 698 29 699
f 268 126 701
f 701 126 700
f 126 125 700
f 700 125 702
f 252 703 250
f 250 703 704
f 32 268 705
f 705 268 701
f 288 105 706
f 706 105 698
f 29 32 699
f 699 32 705
f 707 251 706
f 706 251 288
f 250 704 125
f 125 704 702
f 703 252 707
f 707 252 251
f 706 708 707
f 707 708 709
f 707 709 703
f 703 709 710
f 703 710 704
f 704 710 711
f 704 711 702
f 702 711 712
f 706 698 708
f 708 698 713
f 698 699 713
f 713 699 714
f 699 705 714
f 714 705 715
f 717 708 716
f 716 708 713
f 719 720 718
f 718 720 721
f 722 723 719
f 719 723 720
f 724 725 723
f 723 725 720
f 724 726 725
f 725 726 727
f 728 721 725
f 725 721 720
f 721 728 729
f 729 728 730
f 729 731 721
f 721 731 718
f 724 723 732
f 732 723 722
f 722 710 732
f 732 710 709
f 722 733 710
f 710 733 711
f 719 734 722
f 722 734 733
f 734 719 735
f 735 719 718
f 724 732 726
f 726 732 717
f 717 732 708
f 708 732 709
f 731 736 718
f 718 736 735
f 737 734 738
f 738 734 735
f 736 739 735
f 735 739 738
f 740 737 741
f 741 737 738
f 737 740 743
f 743 740 742
f 739 744 738
f 738 744 741
f 734 737 733
f 733 737 743
f 733 743 711
f 711 743 712
f 736 731 746
f 746 731 745
f 731 729 745
f 745 729 730
f 727 726 747
f 747 726 717
f 748 727 749
f 749 727 747
f 747 717 750
f 750 717 716
f 749 747 751
f 751 747 750
f 749 752 748
f 748 752 753
f 730 753 745
f 745 753 752
f 728 725 748
f 748 725 727
f 730 728 753
f 753 728 748
f 700 702 754
f 754 702 712
f 705 701 715
f 715 701 755
f 754 755 700
f 700 755 701
f 742 756 754
f 754 756 755
f 740 757 742
f 742 757 756
f 755 756 715
f 715 756 758
f 754 712 742
f 742 712 743
f 759 714 758
f 758 714 715
f 714 759 713
f 713 759 716
f 759 760 716
f 716 760 750
f 760 759 761
f 761 759 758
f 762 760 763
f 763 760 761
f 756 757 758
f 758 757 761
f 757 764 761
f 761 764 763
f 760 762 750
f 750 762 751
f 766 751 765
f 765 751 762
f 767 765 769
f 769 765 768
f 765 762 768
f 768 762 763
f 765 767 766
f 766 767 746
f 766 746 752
f 752 746 745
f 752 749 766
f 766 749 751
f 757 740 764
f 764 740 741
f 769 764 744
f 744 764 741
f 769 768 764
f 764 768 763
f 767 769 739
f 739 769 744
f 739 736 767
f 767 736 746
f 219 217 208
f 208 217 209
f 209 217 210
f 210 217 193
f 198 580 199
f 199 580 511
f 76 75 289
f 289 75 272
f 277 207 291
f 291 207 184
f 290 183 203
f 203 183 84
f 490 580 142
f 142 580 198
f 142 198 143
f 143 198 197
f 149 276 72
f 72 276 73
f 104 103 279
f 279 103 770
f 770 596 279
f 279 596 595
f 605 596 771
f 771 596 770
f 771 770 772
f 772 770 103
f 772 103 773
f 773 103 102
f 155 774 101
f 101 774 102
f 773 102 97
f 97 102 774
f 775 773 100
f 100 773 97
f 773 775 772
f 772 775 776
f 772 776 771
f 771 776 777
f 200 606 197
f 197 606 777
f 189 71 778
f 778 71 74
f 97 774 98
f 98 774 155
f 183 161 184
f 184 161 291
f 777 276 197
f 197 276 143
f 777 606 771
f 771 606 605
f 613 612 697
f 697 612 202
f 595 697 279
f 279 697 202
f 73 276 776
f 776 276 777
f 776 775 73
f 73 775 74
f 100 778 775
f 775 778 74
f 778 100 189
f 189 100 99
f 245 242 99
f 99 242 189
f 131 33 256
f 28 1 95
f 95 1 62
f 27 2 28
f 28 2 1
f 265 115 266
f 266 115 114
f 95 62 69
f 69 62 64
f 62 61 64
f 64 61 65
f 61 13 65
f 65 13 130
f 13 12 130
f 130 12 14
f 31 11 32
f 32 11 268
f 15 12 31
f 31 12 11
f 31 30 15
f 15 30 231
f 30 106 231
f 231 106 232
f 287 237 106
f 106 237 232
f 254 90 287
f 287 90 237
f 253 44 254
f 254 44 90
f 253 249 44
f 44 249 7
f 267 127 268
f 268 127 126
f 10 3 241
f 241 3 116
f 3 2 116
f 116 2 114
f 2 27 114
f 114 27 266
f 27 26 266
f 266 26 113
f 26 286 113
f 113 286 110
f 286 243 110
f 110 243 255
f 243 242 255
f 255 242 256
f 242 245 256
f 256 245 131
f 245 244 131
f 131 244 132
f 265 37 115
f 115 37 41
f 41 37 42
f 42 37 40
f 92 91 40
f 40 91 42
f 236 233 92
f 92 233 91
f 191 194 236
f 236 194 233
f 258 285 244
f 244 285 132
f 257 55 258
f 258 55 285
f 257 154 201
f 201 154 185
f 56 201 204
f 204 201 180
f 55 257 56
f 56 257 201
f 204 85 56
f 56 85 52
f 86 122 53
f 53 122 79
f 212 215 86
f 86 215 122
f 211 216 212
f 212 216 215
f 192 280 211
f 211 280 216
f 191 240 192
f 192 240 280
f 249 124 7
f 7 124 8
f 124 127 8
f 8 127 241
f 127 267 241
f 241 267 10
f 10 267 9
f 9 267 11
f 93 39 235
f 235 39 240
f 39 123 240
f 240 123 280
f 123 119 280
f 280 119 216
f 119 118 216
f 216 118 215
f 118 120 215
f 215 120 122
f 120 121 122
f 122 121 79
f 121 109 79
f 79 109 80

