# https://github.com/mikedh/trimesh
v -0.11555079 -0.01518148 -16.27032661 0.25098039 0.27450980 0.65882353
v -0.12170044 -0.00882985 -16.27578354 0.25098039 0.27450980 0.65882353
v -0.11442129 -0.01235191 -16.28399849 0.25098039 0.27450980 0.65882353
v -0.10796483 -0.01901748 -16.27639580 0.25098039 0.27450980 0.65882353
v -0.12725142 0.00544863 -16.29345703 0.25098039 0.27450980 0.65882353
v -0.12313197 0.01719633 -16.29653931 0.25098039 0.27450980 0.65882353
v -0.11390720 0.00762250 -16.30394173 0.25098039 0.27450980 0.65882353
v -0.11953314 -0.00033690 -16.30063248 0.25098039 0.27450980 0.65882353
v -0.10092653 -0.02031925 -16.27993202 0.25098039 0.27450980 0.65882353
v -0.10894533 -0.01556189 -16.28970528 0.25098039 0.27450980 0.65882353
v -0.09601608 -0.01593539 -16.28085327 0.25098039 0.27450980 0.65882353
v -0.08837184 -0.01888794 -16.26632309 0.25098039 0.27450980 0.65882353
v -0.09399401 -0.02238837 -16.26891136 0.25098039 0.27450980 0.65882353
v -0.08546248 -0.02326494 -16.25781441 0.25098039 0.27450980 0.65882353
v -0.08793105 -0.00989926 -16.26066971 0.25098039 0.27450980 0.65882353
v -0.08741704 -0.02070676 -16.24860764 0.25098039 0.27450980 0.65882353
v -0.11007117 -0.00720138 -16.23624992 0.25098039 0.27450980 0.65882353
v -0.12249661 -0.00836491 -16.23180962 0.25098039 0.27450980 0.65882353
v -0.11733225 -0.02239219 -16.22800827 0.25098039 0.27450980 0.65882353
v -0.10528663 -0.02005542 -16.23348236 0.25098039 0.27450980 0.65882353
v -0.13732409 -0.02179226 -16.22813416 0.25098039 0.27450980 0.65882353
v -0.12609965 -0.02290648 -16.22744179 0.25098039 0.27450980 0.65882353
v -0.13108231 -0.00824761 -16.23044395 0.25098039 0.27450980 0.65882353
v -0.14104173 -0.00781356 -16.23084259 0.25098039 0.27450980 0.65882353
v -0.13042542 -0.01063798 -16.26340675 0.25098039 0.27450980 0.65882353
v -0.13656145 -0.00357975 -16.26718140 0.25098039 0.27450980 0.65882353
v -0.13088217 -0.00510608 -16.26844788 0.25098039 0.27450980 0.65882353
v -0.12503761 -0.01112854 -16.26523972 0.25098039 0.27450980 0.65882353
v -0.09097368 -0.00822821 -16.29263878 0.25098039 0.27450980 0.65882353
v -0.09018978 -0.00107876 -16.28098679 0.25098039 0.27450980 0.65882353
v -0.09099187 -0.00890376 -16.27927780 0.25098039 0.27450980 0.65882353
v -0.09475058 -0.01218733 -16.29283905 0.25098039 0.27450980 0.65882353
v -0.15711087 0.01391925 -16.27623749 0.25098039 0.27450980 0.65882353
v -0.15892740 0.02756058 -16.27465630 0.25098039 0.27450980 0.65882353
v -0.15346350 0.02905093 -16.27594757 0.25098039 0.27450980 0.65882353
v -0.15313539 0.01625584 -16.27663231 0.25098039 0.27450980 0.65882353
v -0.13517374 0.02730491 -16.28643608 0.25098039 0.27450980 0.65882353
v -0.13797599 0.03500942 -16.28151894 0.25098039 0.27450980 0.65882353
v -0.12892666 0.04535953 -16.27810669 0.25098039 0.27450980 0.65882353
v -0.12371191 0.03836208 -16.28122139 0.25098039 0.27450980 0.65882353
v -0.12961310 0.02119341 -16.29178047 0.25098039 0.27450980 0.65882353
v -0.12037334 0.03103379 -16.28859901 0.25098039 0.27450980 0.65882353
v -0.11473522 0.02518269 -16.29444122 0.25098039 0.27450980 0.65882353
v -0.10672349 0.01356721 -16.30387497 0.25098039 0.27450980 0.65882353
v -0.16967584 0.02502204 -16.26844597 0.25098039 0.27450980 0.65882353
v -0.17047079 0.01499968 -16.26887321 0.25098039 0.27450980 0.65882353
v -0.06598748 -0.06743377 -16.25150299 0.25098039 0.27450980 0.65882353
v -0.07046686 -0.07080728 -16.25025368 0.25098039 0.27450980 0.65882353
v -0.07258154 -0.06661408 -16.25056648 0.25098039 0.27450980 0.65882353
v -0.06791884 -0.06385805 -16.25133324 0.25098039 0.27450980 0.65882353
v -0.17366827 0.02046838 -16.24939156 0.25098039 0.27450980 0.65882353
v -0.16924147 0.02298524 -16.24060249 0.25098039 0.27450980 0.65882353
v -0.17262708 0.02836253 -16.24306297 0.25098039 0.27450980 0.65882353
v -0.17501897 0.02712381 -16.25178337 0.25098039 0.27450980 0.65882353
v -0.17157149 0.01154121 -16.24599075 0.25098039 0.27450980 0.65882353
v -0.16440552 0.01518640 -16.23778152 0.25098039 0.27450980 0.65882353
v -0.05935884 -0.06645288 -16.24106598 0.25098039 0.27450980 0.65882353
v -0.05950078 -0.06579675 -16.24607277 0.25098039 0.27450980 0.65882353
v -0.06150812 -0.06139920 -16.24458504 0.25098039 0.27450980 0.65882353
v -0.06215894 -0.06182951 -16.23942566 0.25098039 0.27450980 0.65882353
v -0.10148200 -0.02321784 -16.26895905 0.25098039 0.27450980 0.65882353
v -0.11048345 -0.02205730 -16.26658821 0.25098039 0.27450980 0.65882353
v -0.09408592 -0.03911959 -16.25979614 0.25098039 0.27450980 0.65882353
v -0.10154733 -0.03182379 -16.26141930 0.25098039 0.27450980 0.65882353
v -0.09541911 -0.02855396 -16.26350975 0.25098039 0.27450980 0.65882353
v -0.08951660 -0.03401126 -16.26049423 0.25098039 0.27450980 0.65882353
v -0.12400318 -0.03108560 -16.25473785 0.25098039 0.27450980 0.65882353
v -0.12852053 -0.02069099 -16.25827599 0.25098039 0.27450980 0.65882353
v -0.12201751 -0.02075436 -16.25938988 0.25098039 0.27450980 0.65882353
v -0.11587389 -0.03229395 -16.25693893 0.25098039 0.27450980 0.65882353
v -0.14212696 -0.02323727 -16.25708580 0.25098039 0.27450980 0.65882353
v -0.13657114 -0.03302079 -16.25355721 0.25098039 0.27450980 0.65882353
v -0.14508589 -0.03313410 -16.25344086 0.25098039 0.27450980 0.65882353
v -0.14782874 -0.02645088 -16.25673676 0.25098039 0.27450980 0.65882353
v -0.12376525 -0.04978032 -16.24653816 0.25098039 0.27450980 0.65882353
v -0.11919013 -0.05562658 -16.24073792 0.25098039 0.27450980 0.65882353
v -0.12183084 -0.05612602 -16.23939514 0.25098039 0.27450980 0.65882353
v -0.12691534 -0.04970208 -16.24569702 0.25098039 0.27450980 0.65882353
v -0.17522168 0.03422122 -16.24416924 0.25098039 0.27450980 0.65882353
v -0.17513722 0.03365983 -16.25345612 0.25098039 0.27450980 0.65882353
v -0.15743461 -0.02287626 -16.23108101 0.25098039 0.27450980 0.65882353
v -0.16603318 -0.02204423 -16.23770523 0.25098039 0.27450980 0.65882353
v -0.16444883 -0.03439686 -16.23495865 0.25098039 0.27450980 0.65882353
v -0.15617672 -0.03188986 -16.22885513 0.25098039 0.27450980 0.65882353
v -0.16055638 0.02495030 -16.23549271 0.25098039 0.27450980 0.65882353
v -0.16541509 0.03018132 -16.23639679 0.25098039 0.27450980 0.65882353
v -0.06210402 -0.06900997 -16.23639297 0.25098039 0.27450980 0.65882353
v -0.06500062 -0.06449088 -16.23505592 0.25098039 0.27450980 0.65882353
v -0.10724002 0.02843850 -16.28419113 0.25098039 0.27450980 0.65882353
v -0.09902081 0.01568561 -16.29762268 0.25098039 0.27450980 0.65882353
v -0.11432405 0.03683303 -16.27607536 0.25098039 0.27450980 0.65882353
v -0.11894166 0.04276193 -16.27047157 0.25098039 0.27450980 0.65882353
v -0.12261476 0.04914708 -16.26830482 0.25098039 0.27450980 0.65882353
v -0.10509880 -0.03729899 -16.25840950 0.25098039 0.27450980 0.65882353
v -0.11857628 -0.01805914 -16.26365089 0.25098039 0.27450980 0.65882353
v -0.13546729 -0.01122586 -16.26224136 0.25098039 0.27450980 0.65882353
v -0.16431607 -0.02028810 -16.25916290 0.25098039 0.27450980 0.65882353
v -0.16811198 -0.01069405 -16.26248360 0.25098039 0.27450980 0.65882353
v -0.15756586 -0.01252800 -16.26476097 0.25098039 0.27450980 0.65882353
v -0.15644617 -0.02051263 -16.26082993 0.25098039 0.27450980 0.65882353
v -0.16934289 -0.02565646 -16.24549484 0.25098039 0.27450980 0.65882353
v -0.16576871 -0.02879506 -16.25154686 0.25098039 0.27450980 0.65882353
v -0.16284525 -0.03702249 -16.24921417 0.25098039 0.27450980 0.65882353
v -0.16639332 -0.03522921 -16.24304771 0.25098039 0.27450980 0.65882353
v -0.08803648 -0.00339744 -16.29692650 0.25098039 0.27450980 0.65882353
v -0.08980927 0.00542554 -16.28299904 0.25098039 0.27450980 0.65882353
v -0.17458241 0.01835193 -16.25944138 0.25098039 0.27450980 0.65882353
v -0.17369878 0.02562140 -16.26167488 0.25098039 0.27450980 0.65882353
v -0.17355397 0.03411534 -16.26058960 0.25098039 0.27450980 0.65882353
v -0.14633161 0.00500350 -16.27246284 0.25098039 0.27450980 0.65882353
v -0.15051797 0.01781826 -16.27701759 0.25098039 0.27450980 0.65882353
v -0.14716309 0.01766140 -16.27871132 0.25098039 0.27450980 0.65882353
v -0.14345510 0.00450525 -16.27248001 0.25098039 0.27450980 0.65882353
v -0.13022113 -0.00166434 -16.28120613 0.25098039 0.27450980 0.65882353
v -0.13572824 0.01009259 -16.28576851 0.25098039 0.27450980 0.65882353
v -0.12343007 -0.00581023 -16.28992844 0.25098039 0.27450980 0.65882353
v -0.14700259 0.03267121 -16.27822495 0.25098039 0.27450980 0.65882353
v -0.15518856 0.03917425 -16.27639389 0.25098039 0.27450980 0.65882353
v -0.14720297 0.04212189 -16.27815247 0.25098039 0.27450980 0.65882353
v -0.16350535 0.03707107 -16.27216530 0.25098039 0.27450980 0.65882353
v -0.16982134 0.03492340 -16.26656342 0.25098039 0.27450980 0.65882353
v -0.16913930 0.03636939 -16.23436165 0.25098039 0.27450980 0.65882353
v -0.13923061 0.04448449 -16.27863884 0.25098039 0.27450980 0.65882353
v -0.11345018 -0.00538740 -16.30474663 0.25098039 0.27450980 0.65882353
v -0.10840310 -0.01105406 -16.30753517 0.25098039 0.27450980 0.65882353
v -0.10707706 -0.01491437 -16.30130768 0.25098039 0.27450980 0.65882353
v -0.11196667 -0.01083524 -16.29844856 0.25098039 0.27450980 0.65882353
v -0.08197118 -0.02940925 -16.25102234 0.25098039 0.27450980 0.65882353
v -0.08457355 -0.03196928 -16.25746346 0.25098039 0.27450980 0.65882353
v -0.08896045 -0.02497682 -16.26345634 0.25098039 0.27450980 0.65882353
v -0.15823647 0.00357579 -16.27206993 0.25098039 0.27450980 0.65882353
v -0.17020403 0.00471841 -16.26612663 0.25098039 0.27450980 0.65882353
v -0.09659080 -0.04451596 -16.25610924 0.25098039 0.27450980 0.65882353
v -0.06503361 -0.05745935 -16.23895454 0.25098039 0.27450980 0.65882353
v -0.06417173 -0.05675107 -16.24447441 0.25098039 0.27450980 0.65882353
v -0.07452145 -0.04156331 -16.24724579 0.25098039 0.27450980 0.65882353
v -0.07516891 -0.04253596 -16.24048424 0.25098039 0.27450980 0.65882353
v -0.09303451 -0.05122399 -16.24648857 0.25098039 0.27450980 0.65882353
v -0.09267318 -0.04890341 -16.25300407 0.25098039 0.27450980 0.65882353
v -0.09028320 -0.05079681 -16.25065041 0.25098039 0.27450980 0.65882353
v -0.09083624 -0.05504493 -16.24568176 0.25098039 0.27450980 0.65882353
v -0.13049817 -0.05479749 -16.24162102 0.25098039 0.27450980 0.65882353
v -0.13499892 -0.04898923 -16.24631500 0.25098039 0.27450980 0.65882353
v -0.10122305 -0.03542236 -16.23243523 0.25098039 0.27450980 0.65882353
v -0.09068151 -0.02798835 -16.23554802 0.25098039 0.27450980 0.65882353
v -0.09486318 -0.01834271 -16.23914146 0.25098039 0.27450980 0.65882353
v -0.13133436 -0.03132348 -16.25396347 0.25098039 0.27450980 0.65882353
v -0.12788942 -0.04117151 -16.25072289 0.25098039 0.27450980 0.65882353
v -0.13176441 -0.04170390 -16.24995041 0.25098039 0.27450980 0.65882353
v -0.10601790 -0.04132992 -16.25543976 0.25098039 0.27450980 0.65882353
v -0.09986740 -0.04773986 -16.25209808 0.25098039 0.27450980 0.65882353
v -0.10619022 -0.04607762 -16.25146294 0.25098039 0.27450980 0.65882353
v -0.11136672 -0.04009761 -16.25375748 0.25098039 0.27450980 0.65882353
v -0.16869020 -0.00936381 -16.23947906 0.25098039 0.27450980 0.65882353
v -0.17291085 -0.01355687 -16.24836922 0.25098039 0.27450980 0.65882353
v -0.06195213 -0.06591629 -16.24993324 0.25098039 0.27450980 0.65882353
v -0.06385480 -0.06185713 -16.24902344 0.25098039 0.27450980 0.65882353
v -0.13550378 -0.02116412 -16.25710678 0.25098039 0.27450980 0.65882353
v -0.09985435 -0.00704761 -16.24356651 0.25098039 0.27450980 0.65882353
v -0.14062542 -0.01208257 -16.26171684 0.25098039 0.27450980 0.65882353
v -0.14170954 -0.04306910 -16.22758102 0.25098039 0.27450980 0.65882353
v -0.14440209 -0.04776701 -16.23343277 0.25098039 0.27450980 0.65882353
v -0.14083773 -0.05281598 -16.23189354 0.25098039 0.27450980 0.65882353
v -0.13937010 -0.05055911 -16.22602081 0.25098039 0.27450980 0.65882353
v -0.08133031 -0.06725455 -16.24258041 0.25098039 0.27450980 0.65882353
v -0.07982403 -0.06662799 -16.24801254 0.25098039 0.27450980 0.65882353
v -0.07652785 -0.06984186 -16.24686241 0.25098039 0.27450980 0.65882353
v -0.07768565 -0.07094236 -16.24142075 0.25098039 0.27450980 0.65882353
v -0.08968799 -0.04511937 -16.25632095 0.25098039 0.27450980 0.65882353
v -0.08553983 -0.04011957 -16.25736809 0.25098039 0.27450980 0.65882353
v -0.08237916 -0.04570918 -16.25549507 0.25098039 0.27450980 0.65882353
v -0.08666176 -0.04894156 -16.25343704 0.25098039 0.27450980 0.65882353
v -0.08067596 -0.03763758 -16.25380707 0.25098039 0.27450980 0.65882353
v -0.07746518 -0.04256208 -16.25294304 0.25098039 0.27450980 0.65882353
v -0.07913592 -0.06565269 -16.23666191 0.25098039 0.27450980 0.65882353
v -0.07356201 -0.06228191 -16.23298073 0.25098039 0.27450980 0.65882353
v -0.08425024 -0.04987745 -16.23429108 0.25098039 0.27450980 0.65882353
v -0.08773378 -0.05525789 -16.23894691 0.25098039 0.27450980 0.65882353
v -0.14391860 0.00612833 -16.23257065 0.25098039 0.27450980 0.65882353
v -0.15463495 0.00460268 -16.23311615 0.25098039 0.27450980 0.65882353
v -0.15166590 -0.00942744 -16.23149681 0.25098039 0.27450980 0.65882353
v -0.14909361 -0.02282329 -16.22918892 0.25098039 0.27450980 0.65882353
v -0.14601190 -0.03594294 -16.22796249 0.25098039 0.27450980 0.65882353
v -0.13520113 -0.03351925 -16.22479820 0.25098039 0.27450980 0.65882353
v -0.15932597 -0.00938166 -16.23318481 0.25098039 0.27450980 0.65882353
v -0.09790252 -0.04781331 -16.23829842 0.25098039 0.27450980 0.65882353
v -0.09244053 -0.04102714 -16.23522568 0.25098039 0.27450980 0.65882353
v -0.09884079 -0.04223458 -16.23394203 0.25098039 0.27450980 0.65882353
v -0.14767629 -0.01407183 -16.26208687 0.25098039 0.27450980 0.65882353
v -0.06616569 -0.05745417 -16.24958229 0.25098039 0.27450980 0.65882353
v -0.12343552 0.03983442 -16.24809456 0.25098039 0.27450980 0.65882353
v -0.13318712 0.03717407 -16.23937416 0.25098039 0.27450980 0.65882353
v -0.12981090 0.03012770 -16.24059868 0.25098039 0.27450980 0.65882353
v -0.11884254 0.03288712 -16.25071716 0.25098039 0.27450980 0.65882353
v -0.07582134 -0.06349716 -16.25246429 0.25098039 0.27450980 0.65882353
v -0.07043557 -0.06012701 -16.25341225 0.25098039 0.27450980 0.65882353
v -0.14081222 -0.05104510 -16.24524307 0.25098039 0.27450980 0.65882353
v -0.13614756 -0.05536590 -16.24097061 0.25098039 0.27450980 0.65882353
v -0.13846105 -0.05616185 -16.23782158 0.25098039 0.27450980 0.65882353
v -0.14475185 -0.05404047 -16.24328804 0.25098039 0.27450980 0.65882353
v -0.16026972 0.00508217 -16.23435783 0.25098039 0.27450980 0.65882353
v -0.16395776 -0.04206464 -16.23530769 0.25098039 0.27450980 0.65882353
v -0.15675019 -0.03973095 -16.22894478 0.25098039 0.27450980 0.65882353
v -0.15670547 0.01695555 -16.23449707 0.25098039 0.27450980 0.65882353
v -0.14735596 0.01829686 -16.23350334 0.25098039 0.27450980 0.65882353
v -0.15014428 0.02684456 -16.23376846 0.25098039 0.27450980 0.65882353
v -0.12031300 -0.03854867 -16.22526741 0.25098039 0.27450980 0.65882353
v -0.13582358 0.00531194 -16.23295975 0.25098039 0.27450980 0.65882353
v -0.14012192 0.01788183 -16.23462296 0.25098039 0.27450980 0.65882353
v -0.14310192 0.02818950 -16.23478699 0.25098039 0.27450980 0.65882353
v -0.14521760 0.03543912 -16.23387146 0.25098039 0.27450980 0.65882353
v -0.15292612 0.03296970 -16.23350716 0.25098039 0.27450980 0.65882353
v -0.06857367 -0.06019409 -16.23467827 0.25098039 0.27450980 0.65882353
v -0.07008779 -0.06777327 -16.23281288 0.25098039 0.27450980 0.65882353
v -0.15606061 0.03968250 -16.23134422 0.25098039 0.27450980 0.65882353
v -0.14719798 0.04180885 -16.23248291 0.25098039 0.27450980 0.65882353
v -0.13143629 0.01804008 -16.23680878 0.25098039 0.27450980 0.65882353
v -0.12173006 0.01814078 -16.24087715 0.25098039 0.27450980 0.65882353
v -0.12759921 0.00591960 -16.23441315 0.25098039 0.27450980 0.65882353
v -0.11708467 0.00523010 -16.23809242 0.25098039 0.27450980 0.65882353
v -0.11181816 -0.03289725 -16.22516632 0.25098039 0.27450980 0.65882353
v -0.06561910 -0.08370629 -16.23794174 0.25098039 0.27450980 0.65882353
v -0.07200378 -0.07475308 -16.23606682 0.25098039 0.27450980 0.65882353
v -0.07487343 -0.07517696 -16.24101830 0.25098039 0.27450980 0.65882353
v -0.06888829 -0.08450988 -16.24079514 0.25098039 0.27450980 0.65882353
v -0.07551299 -0.07000831 -16.23618317 0.25098039 0.27450980 0.65882353
v -0.06722984 -0.07202301 -16.23402405 0.25098039 0.27450980 0.65882353
v -0.10521866 0.00560727 -16.24766731 0.25098039 0.27450980 0.65882353
v -0.10130943 -0.05141038 -16.24662209 0.25098039 0.27450980 0.65882353
v -0.10937941 0.02011373 -16.25393105 0.25098039 0.27450980 0.65882353
v -0.09232001 0.00214927 -16.26189423 0.25098039 0.27450980 0.65882353
v -0.09675266 0.01243225 -16.26829147 0.25098039 0.27450980 0.65882353
v -0.11267760 0.03542189 -16.26127052 0.25098039 0.27450980 0.65882353
v -0.10326442 0.02657378 -16.27114105 0.25098039 0.27450980 0.65882353
v -0.12224268 0.04829340 -16.25775528 0.25098039 0.27450980 0.65882353
v -0.11803422 0.04138684 -16.25836563 0.25098039 0.27450980 0.65882353
v -0.09546053 0.01770539 -16.28370667 0.25098039 0.27450980 0.65882353
v -0.06370011 -0.07780404 -16.25249863 0.25098039 0.27450980 0.65882353
v -0.06835024 -0.08028320 -16.25042534 0.25098039 0.27450980 0.65882353
v -0.12641400 0.04671891 -16.24708557 0.25098039 0.27450980 0.65882353
v -0.11666080 -0.00868143 -16.29547310 0.25098039 0.27450980 0.65882353
v -0.15003410 -0.00484662 -16.26696205 0.25098039 0.27450980 0.65882353
v -0.14449215 -0.00420514 -16.26696777 0.25098039 0.27450980 0.65882353
v -0.16954520 -0.00457483 -16.26365089 0.25098039 0.27450980 0.65882353
v -0.15758887 -0.00506395 -16.26761436 0.25098039 0.27450980 0.65882353
v -0.05879776 -0.07587660 -16.25152969 0.25098039 0.27450980 0.65882353
v -0.11665982 -0.05731043 -16.23420143 0.25098039 0.27450980 0.65882353
v -0.11899561 -0.05519350 -16.23399353 0.25098039 0.27450980 0.65882353
v -0.10966381 0.00073702 -16.30883408 0.25098039 0.27450980 0.65882353
v -0.10616094 -0.00518880 -16.31151009 0.25098039 0.27450980 0.65882353
v -0.09406748 -0.00099380 -16.30980110 0.25098039 0.27450980 0.65882353
v -0.10029352 -0.00201742 -16.31287384 0.25098039 0.27450980 0.65882353
v -0.10288626 0.00551569 -16.30934143 0.25098039 0.27450980 0.65882353
v -0.09640881 0.00694178 -16.30574799 0.25098039 0.27450980 0.65882353
v -0.14847136 0.00448020 -16.27272415 0.25098039 0.27450980 0.65882353
v -0.15197361 0.00365375 -16.27249527 0.25098039 0.27450980 0.65882353
v -0.17048745 0.00174490 -16.24277306 0.25098039 0.27450980 0.65882353
v -0.17389587 -0.00266325 -16.25201416 0.25098039 0.27450980 0.65882353
v -0.07885967 -0.03580976 -16.24790382 0.25098039 0.27450980 0.65882353
v -0.08392802 -0.02886773 -16.24259377 0.25098039 0.27450980 0.65882353
v -0.08021633 -0.03616336 -16.24090195 0.25098039 0.27450980 0.65882353
v -0.07971260 -0.04430931 -16.23542595 0.25098039 0.27450980 0.65882353
v -0.09790888 -0.05218887 -16.24170303 0.25098039 0.27450980 0.65882353
v -0.09260233 -0.04982197 -16.24093819 0.25098039 0.27450980 0.65882353
v -0.14205770 0.01311114 -16.28201103 0.25098039 0.27450980 0.65882353
v -0.13746381 0.00174562 -16.27456665 0.25098039 0.27450980 0.65882353
v -0.10556206 -0.01466490 -16.29278946 0.25098039 0.27450980 0.65882353
v -0.10161173 -0.01571085 -16.29548645 0.25098039 0.27450980 0.65882353
v -0.11924539 -0.03898229 -16.25251198 0.25098039 0.27450980 0.65882353
v -0.11338505 -0.04790330 -16.22441673 0.25098039 0.27450980 0.65882353
v -0.10660860 -0.04333419 -16.22444916 0.25098039 0.27450980 0.65882353
v -0.11473526 -0.04689530 -16.24908829 0.25098039 0.27450980 0.65882353
v -0.05477664 -0.07678989 -16.24379349 0.25098039 0.27450980 0.65882353
v -0.05601938 -0.07583124 -16.24870682 0.25098039 0.27450980 0.65882353
v -0.08504428 -0.03739345 -16.23573303 0.25098039 0.27450980 0.65882353
v -0.13999796 -0.04261241 -16.25069618 0.25098039 0.27450980 0.65882353
v -0.12186845 -0.04490995 -16.22576904 0.25098039 0.27450980 0.65882353
v -0.11605145 -0.05365910 -16.22754860 0.25098039 0.27450980 0.65882353
v -0.16439779 -0.04070539 -16.24295235 0.25098039 0.27450980 0.65882353
v -0.13597381 0.04445812 -16.23900223 0.25098039 0.27450980 0.65882353
v -0.07432309 -0.07432904 -16.24654388 0.25098039 0.27450980 0.65882353
v -0.07095127 -0.08240627 -16.24659348 0.25098039 0.27450980 0.65882353
v -0.06210589 -0.08149891 -16.23679543 0.25098039 0.27450980 0.65882353
v -0.05750954 -0.07816415 -16.23847198 0.25098039 0.27450980 0.65882353
v -0.17400642 0.00697017 -16.25647354 0.25098039 0.27450980 0.65882353
v -0.14110756 -0.00380619 -16.26650047 0.25098039 0.27450980 0.65882353
v -0.09134248 0.00875189 -16.29512024 0.25098039 0.27450980 0.65882353
v -0.08957748 -0.00126940 -16.30389786 0.25098039 0.27450980 0.65882353
v -0.11169273 -0.05232374 -16.24570465 0.25098039 0.27450980 0.65882353
v -0.14872888 -0.04264017 -16.23020744 0.25098039 0.27450980 0.65882353
v -0.13368389 -0.04213206 -16.22312164 0.25098039 0.27450980 0.65882353
v -0.13233247 -0.04963376 -16.22089577 0.25098039 0.27450980 0.65882353
v -0.12502128 -0.05171140 -16.22192383 0.25098039 0.27450980 0.65882353
v -0.12008709 -0.05530090 -16.22657394 0.25098039 0.27450980 0.65882353
v -0.06054498 -0.08657033 -16.23891449 0.25098039 0.27450980 0.65882353
v -0.05593494 -0.08310857 -16.24039078 0.25098039 0.27450980 0.65882353
v -0.05323742 -0.08138143 -16.24553490 0.25098039 0.27450980 0.65882353
v -0.05434281 -0.07978997 -16.24973869 0.25098039 0.27450980 0.65882353
v -0.05791764 -0.07909916 -16.25220490 0.25098039 0.27450980 0.65882353
v -0.06398091 -0.08886161 -16.24044991 0.25098039 0.27450980 0.65882353
v -0.06673418 -0.08913330 -16.24334145 0.25098039 0.27450980 0.65882353
v -0.06935573 -0.08557652 -16.24740219 0.25098039 0.27450980 0.65882353
v -0.06372233 -0.09263910 -16.24396324 0.25098039 0.27450980 0.65882353
v -0.05853665 -0.09371092 -16.24368668 0.25098039 0.27450980 0.65882353
v -0.05143729 -0.09155049 -16.25542259 0.25098039 0.27450980 0.65882353
v -0.05161223 -0.08853120 -16.25021935 0.25098039 0.27450980 0.65882353
v -0.05174248 -0.09125210 -16.25043869 0.25098039 0.27450980 0.65882353
v -0.05168965 -0.09448273 -16.25432205 0.25098039 0.27450980 0.65882353
v -0.05160363 -0.09893294 -16.25706482 0.25098039 0.27450980 0.65882353
v -0.05113357 -0.09609308 -16.25902939 0.25098039 0.27450980 0.65882353
v -0.05408324 -0.09162038 -16.24641418 0.25098039 0.27450980 0.65882353
v -0.05401012 -0.09664290 -16.25101662 0.25098039 0.27450980 0.65882353
v -0.05732663 -0.09843298 -16.24935532 0.25098039 0.27450980 0.65882353
v -0.05638808 -0.10276230 -16.25293159 0.25098039 0.27450980 0.65882353
v -0.05332537 -0.10137417 -16.25435638 0.25098039 0.27450980 0.65882353
v -0.05700910 -0.09499674 -16.24621010 0.25098039 0.27450980 0.65882353
v -0.05398589 -0.08988104 -16.24439621 0.25098039 0.27450980 0.65882353
v -0.05195774 -0.10053801 -16.26033020 0.25098039 0.27450980 0.65882353
v -0.05161281 -0.10179266 -16.25823975 0.25098039 0.27450980 0.65882353
v -0.05342366 -0.10368266 -16.25660896 0.25098039 0.27450980 0.65882353
v -0.05428487 -0.10481446 -16.25931931 0.25098039 0.27450980 0.65882353
v -0.05363730 -0.08358974 -16.25238991 0.25098039 0.27450980 0.65882353
v -0.05245444 -0.09016873 -16.25736618 0.25098039 0.27450980 0.65882353
v -0.05353503 -0.09514447 -16.26067734 0.25098039 0.27450980 0.65882353
v -0.05419891 -0.09962953 -16.26176071 0.25098039 0.27450980 0.65882353
v -0.05599095 -0.09055869 -16.25931549 0.25098039 0.27450980 0.65882353
v -0.05637147 -0.09488793 -16.26127052 0.25098039 0.27450980 0.65882353
v -0.05734250 -0.09873716 -16.26194572 0.25098039 0.27450980 0.65882353
v -0.05996916 -0.09170521 -16.25988007 0.25098039 0.27450980 0.65882353
v -0.05944194 -0.09556233 -16.26117325 0.25098039 0.27450980 0.65882353
v -0.06125167 -0.08236993 -16.25395203 0.25098039 0.27450980 0.65882353
v -0.05730778 -0.08104684 -16.25361061 0.25098039 0.27450980 0.65882353
v -0.05939417 -0.09799659 -16.26208496 0.25098039 0.27450980 0.65882353
v -0.05622324 -0.10439185 -16.26038361 0.25098039 0.27450980 0.65882353
v -0.06073099 -0.09780652 -16.24815941 0.25098039 0.27450980 0.65882353
v -0.05953017 -0.10246130 -16.25354767 0.25098039 0.27450980 0.65882353
v -0.06298883 -0.09750573 -16.24898529 0.25098039 0.27450980 0.65882353
v -0.06188318 -0.10237560 -16.25398636 0.25098039 0.27450980 0.65882353
v -0.05788004 -0.10577112 -16.25633240 0.25098039 0.27450980 0.65882353
v -0.05586225 -0.10454821 -16.25537109 0.25098039 0.27450980 0.65882353
v -0.06304185 -0.07991985 -16.25246620 0.25098039 0.27450980 0.65882353
v -0.06773573 -0.08271173 -16.25033760 0.25098039 0.27450980 0.65882353
v -0.06642978 -0.08497924 -16.25176048 0.25098039 0.27450980 0.65882353
v -0.06403492 -0.09350685 -16.25827026 0.25098039 0.27450980 0.65882353
v -0.06822918 -0.08806387 -16.24952507 0.25098039 0.27450980 0.65882353
v -0.06632121 -0.09239519 -16.24685669 0.25098039 0.27450980 0.65882353
v -0.06480928 -0.09747628 -16.25138855 0.25098039 0.27450980 0.65882353
v -0.06575593 -0.09613238 -16.25433350 0.25098039 0.27450980 0.65882353
v -0.06349435 -0.10109105 -16.25530434 0.25098039 0.27450980 0.65882353
v -0.06369826 -0.09936016 -16.25708199 0.25098039 0.27450980 0.65882353
v -0.06239101 -0.09727032 -16.25997162 0.25098039 0.27450980 0.65882353
v -0.06148052 -0.10292482 -16.25845909 0.25098039 0.27450980 0.65882353
v -0.05967820 -0.10492360 -16.25730324 0.25098039 0.27450980 0.65882353
v -0.05883192 -0.10219871 -16.26093292 0.25098039 0.27450980 0.65882353
v -0.06242266 -0.10122941 -16.25887489 0.25098039 0.27450980 0.65882353
v -0.06038259 -0.09999276 -16.26064110 0.25098039 0.27450980 0.65882353
v -0.09232308 -0.08452978 -16.23520279 0.25098039 0.27450980 0.65882353
v -0.09805998 -0.08662505 -16.23336983 0.25098039 0.27450980 0.65882353
v -0.09869076 -0.08138492 -16.23302078 0.25098039 0.27450980 0.65882353
v -0.09376441 -0.08012488 -16.23472595 0.25098039 0.27450980 0.65882353
v -0.08500095 -0.08215499 -16.22415161 0.25098039 0.27450980 0.65882353
v -0.08560736 -0.08262203 -16.22991943 0.25098039 0.27450980 0.65882353
v -0.08629248 -0.07767604 -16.22892570 0.25098039 0.27450980 0.65882353
v -0.08688375 -0.07701164 -16.22251892 0.25098039 0.27450980 0.65882353
v -0.08923501 -0.08293867 -16.21899033 0.25098039 0.27450980 0.65882353
v -0.09138098 -0.07751503 -16.21756172 0.25098039 0.27450980 0.65882353
v -0.08805963 -0.07183230 -16.22252464 0.25098039 0.27450980 0.65882353
v -0.08806485 -0.07242850 -16.22957802 0.25098039 0.27450980 0.65882353
v -0.09619170 -0.05375223 -16.23489571 0.25098039 0.27450980 0.65882353
v -0.09622279 -0.05261600 -16.22770691 0.25098039 0.27450980 0.65882353
v -0.11265744 -0.05991245 -16.23776245 0.25098039 0.27450980 0.65882353
v -0.11284366 -0.06063981 -16.23379135 0.25098039 0.27450980 0.65882353
v -0.08873667 -0.08354544 -16.23378754 0.25098039 0.27450980 0.65882353
v -0.08961086 -0.07893664 -16.23288536 0.25098039 0.27450980 0.65882353
v -0.10647176 -0.07900231 -16.22813416 0.25098039 0.27450980 0.65882353
v -0.10447803 -0.07871438 -16.23314285 0.25098039 0.27450980 0.65882353
v -0.10262087 -0.08317894 -16.23097420 0.25098039 0.27450980 0.65882353
v -0.10399421 -0.08357314 -16.22559166 0.25098039 0.27450980 0.65882353
v -0.10217610 -0.05555084 -16.24131584 0.25098039 0.27450980 0.65882353
v -0.10827102 -0.05712832 -16.24038124 0.25098039 0.27450980 0.65882353
v -0.09873587 -0.05518466 -16.23912239 0.25098039 0.27450980 0.65882353
v -0.10555565 -0.07796393 -16.22170830 0.25098039 0.27450980 0.65882353
v -0.10108463 -0.07553691 -16.21701622 0.25098039 0.27450980 0.65882353
v -0.10811745 -0.05717670 -16.22096825 0.25098039 0.27450980 0.65882353
v -0.11201391 -0.06020770 -16.22522736 0.25098039 0.27450980 0.65882353
v -0.09058897 -0.07407967 -16.23433685 0.25098039 0.27450980 0.65882353
v -0.10007435 -0.07756326 -16.23610687 0.25098039 0.27450980 0.65882353
v -0.09517719 -0.07601249 -16.23700523 0.25098039 0.27450980 0.65882353
v -0.09373419 -0.07263285 -16.21797371 0.25098039 0.27450980 0.65882353
v -0.09815292 -0.08117812 -16.21672440 0.25098039 0.27450980 0.65882353
v -0.09623325 -0.10030792 -16.22215080 0.25098039 0.27450980 0.65882353
v -0.10055813 -0.08854315 -16.22049713 0.25098039 0.27450980 0.65882353
v -0.10218340 -0.08909927 -16.22530937 0.25098039 0.27450980 0.65882353
v -0.09877259 -0.10145570 -16.22626114 0.25098039 0.27450980 0.65882353
v -0.10269128 -0.08319750 -16.22020340 0.25098039 0.27450980 0.65882353
v -0.09575436 -0.08613762 -16.21781349 0.25098039 0.27450980 0.65882353
v -0.09040864 -0.09952991 -16.23716354 0.25098039 0.27450980 0.65882353
v -0.09610584 -0.10145614 -16.23508072 0.25098039 0.27450980 0.65882353
v -0.08603169 -0.09840927 -16.23625183 0.25098039 0.27450980 0.65882353
v -0.10135785 -0.05369297 -16.22169685 0.25098039 0.27450980 0.65882353
v -0.08198458 -0.09534133 -16.22714233 0.25098039 0.27450980 0.65882353
v -0.08314103 -0.09678123 -16.23347092 0.25098039 0.27450980 0.65882353
v -0.10174353 -0.08831813 -16.23026466 0.25098039 0.27450980 0.65882353
v -0.09887952 -0.10224312 -16.23099899 0.25098039 0.27450980 0.65882353
v -0.09227091 -0.09868858 -16.22032547 0.25098039 0.27450980 0.65882353
v -0.08597383 -0.09515051 -16.22159004 0.25098039 0.27450980 0.65882353
v -0.09068918 -0.10434522 -16.22192955 0.25098039 0.27450980 0.65882353
v -0.08484732 -0.10188168 -16.22340584 0.25098039 0.27450980 0.65882353
v -0.08110210 -0.10156254 -16.22894478 0.25098039 0.27450980 0.65882353
v -0.08281794 -0.10169018 -16.23452759 0.25098039 0.27450980 0.65882353
v -0.08582146 -0.10196944 -16.23698807 0.25098039 0.27450980 0.65882353
v -0.09443799 -0.10585956 -16.22364235 0.25098039 0.27450980 0.65882353
v -0.09717859 -0.10659891 -16.22735214 0.25098039 0.27450980 0.65882353
v -0.09770814 -0.10493734 -16.23193550 0.25098039 0.27450980 0.65882353
v -0.09450988 -0.11228060 -16.22730064 0.25098039 0.27450980 0.65882353
v -0.09028889 -0.11273120 -16.22570419 0.25098039 0.27450980 0.65882353
v -0.08192828 -0.11991607 -16.24043465 0.25098039 0.27450980 0.65882353
v -0.08144189 -0.11475565 -16.23724747 0.25098039 0.27450980 0.65882353
v -0.08197713 -0.11630679 -16.23515701 0.25098039 0.27450980 0.65882353
v -0.08249792 -0.12106996 -16.23790932 0.25098039 0.27450980 0.65882353
v -0.08068603 -0.11066144 -16.23240089 0.25098039 0.27450980 0.65882353
v -0.08175644 -0.11298350 -16.23184013 0.25098039 0.27450980 0.65882353
v -0.08476993 -0.11304920 -16.22831345 0.25098039 0.27450980 0.65882353
v -0.08526467 -0.11807594 -16.23198318 0.25098039 0.27450980 0.65882353
v -0.08961257 -0.11829522 -16.23003006 0.25098039 0.27450980 0.65882353
v -0.08950937 -0.12363567 -16.23233795 0.25098039 0.27450980 0.65882353
v -0.08512646 -0.12349417 -16.23430443 0.25098039 0.27450980 0.65882353
v -0.08818907 -0.11487480 -16.22764778 0.25098039 0.27450980 0.65882353
v -0.08330375 -0.12450392 -16.23898506 0.25098039 0.27450980 0.65882353
v -0.08392441 -0.12520060 -16.24141121 0.25098039 0.27450980 0.65882353
v -0.08406027 -0.11044701 -16.22640610 0.25098039 0.27450980 0.65882353
v -0.08201641 -0.10574605 -16.23562431 0.25098039 0.27450980 0.65882353
v -0.08250707 -0.11374830 -16.23994827 0.25098039 0.27450980 0.65882353
v -0.08380578 -0.11959522 -16.24305153 0.25098039 0.27450980 0.65882353
v -0.08653578 -0.12521446 -16.24301338 0.25098039 0.27450980 0.65882353
v -0.08600481 -0.11369696 -16.24231911 0.25098039 0.27450980 0.65882353
v -0.08681096 -0.11945044 -16.24431992 0.25098039 0.27450980 0.65882353
v -0.08896124 -0.12399729 -16.24350548 0.25098039 0.27450980 0.65882353
v -0.09062713 -0.11396081 -16.24333191 0.25098039 0.27450980 0.65882353
v -0.09102187 -0.11969560 -16.24443436 0.25098039 0.27450980 0.65882353
v -0.09031005 -0.10425767 -16.23864937 0.25098039 0.27450980 0.65882353
v -0.08560763 -0.10428684 -16.23840523 0.25098039 0.27450980 0.65882353
v -0.09078719 -0.12239563 -16.24376678 0.25098039 0.27450980 0.65882353
v -0.08643679 -0.12829208 -16.23847008 0.25098039 0.27450980 0.65882353
v -0.08899733 -0.12782058 -16.24076271 0.25098039 0.27450980 0.65882353
v -0.08574738 -0.12688848 -16.23710251 0.25098039 0.27450980 0.65882353
v -0.09173882 -0.11819013 -16.22991562 0.25098039 0.27450980 0.65882353
v -0.09159991 -0.12370660 -16.23340416 0.25098039 0.27450980 0.65882353
v -0.09434497 -0.11814366 -16.23112106 0.25098039 0.27450980 0.65882353
v -0.09354405 -0.12396391 -16.23499680 0.25098039 0.27450980 0.65882353
v -0.09034862 -0.12754864 -16.23597336 0.25098039 0.27450980 0.65882353
v -0.08878349 -0.12722102 -16.23528099 0.25098039 0.27450980 0.65882353
v -0.09019041 -0.10231637 -16.23709297 0.25098039 0.27450980 0.65882353
v -0.09534360 -0.10358932 -16.23508644 0.25098039 0.27450980 0.65882353
v -0.09538481 -0.10522019 -16.23644638 0.25098039 0.27450980 0.65882353
v -0.09509470 -0.11504266 -16.24075127 0.25098039 0.27450980 0.65882353
v -0.09781680 -0.10712212 -16.23291206 0.25098039 0.27450980 0.65882353
v -0.09691067 -0.11091743 -16.22961998 0.25098039 0.27450980 0.65882353
v -0.09638152 -0.11727732 -16.23289680 0.25098039 0.27450980 0.65882353
v -0.09706433 -0.11647596 -16.23673439 0.25098039 0.27450980 0.65882353
v -0.09560786 -0.12358726 -16.23589134 0.25098039 0.27450980 0.65882353
v -0.09629902 -0.12121042 -16.23795319 0.25098039 0.27450980 0.65882353
v -0.09449956 -0.12004379 -16.24230766 0.25098039 0.27450980 0.65882353
v -0.09374718 -0.12702304 -16.23849106 0.25098039 0.27450980 0.65882353
v -0.09182653 -0.12773827 -16.23711205 0.25098039 0.27450980 0.65882353
v -0.09064901 -0.12644163 -16.24162865 0.25098039 0.27450980 0.65882353
v -0.09490739 -0.12447441 -16.23961830 0.25098039 0.27450980 0.65882353
v -0.09260662 -0.12389617 -16.24237633 0.25098039 0.27450980 0.65882353
v -0.11845084 -0.08301085 -16.22915268 0.25098039 0.27450980 0.65882353
v -0.12376394 -0.08344925 -16.23159599 0.25098039 0.27450980 0.65882353
v -0.12435070 -0.07947715 -16.23174667 0.25098039 0.27450980 0.65882353
v -0.11913693 -0.07907291 -16.22921562 0.25098039 0.27450980 0.65882353
v -0.12018473 -0.08262887 -16.21666527 0.25098039 0.27450980 0.65882353
v -0.11688972 -0.08305031 -16.22026634 0.25098039 0.27450980 0.65882353
v -0.11743401 -0.07845296 -16.22018051 0.25098039 0.27450980 0.65882353
v -0.12088467 -0.07675121 -16.21625137 0.25098039 0.27450980 0.65882353
v -0.12527929 -0.08456539 -16.21570396 0.25098039 0.27450980 0.65882353
v -0.12672824 -0.07679980 -16.21475410 0.25098039 0.27450980 0.65882353
v -0.12131778 -0.07102109 -16.21601486 0.25098039 0.27450980 0.65882353
v -0.11787526 -0.07383019 -16.22041321 0.25098039 0.27450980 0.65882353
v -0.11990384 -0.05932032 -16.22498703 0.25098039 0.27450980 0.65882353
v -0.12370072 -0.05761921 -16.21941566 0.25098039 0.27450980 0.65882353
v -0.11662534 -0.08305413 -16.22493362 0.25098039 0.27450980 0.65882353
v -0.11707755 -0.07916329 -16.22501945 0.25098039 0.27450980 0.65882353
v -0.13377467 -0.07688925 -16.23089600 0.25098039 0.27450980 0.65882353
v -0.12969065 -0.07672987 -16.23349380 0.25098039 0.27450980 0.65882353
v -0.12966162 -0.08034146 -16.23144341 0.25098039 0.27450980 0.65882353
v -0.13306482 -0.08069570 -16.22890854 0.25098039 0.27450980 0.65882353
v -0.12259378 -0.05920040 -16.23596954 0.25098039 0.27450980 0.65882353
v -0.12851168 -0.05834770 -16.23730469 0.25098039 0.27450980 0.65882353
v -0.11970577 -0.06061190 -16.23126602 0.25098039 0.27450980 0.65882353
v -0.13583481 -0.07612874 -16.22479057 0.25098039 0.27450980 0.65882353
v -0.13419019 -0.07319574 -16.21819496 0.25098039 0.27450980 0.65882353
v -0.13743617 -0.05925916 -16.22263336 0.25098039 0.27450980 0.65882353
v -0.13827804 -0.06017956 -16.22896194 0.25098039 0.27450980 0.65882353
v -0.11725735 -0.07541279 -16.22552872 0.25098039 0.27450980 0.65882353
v -0.12450178 -0.07581816 -16.23356628 0.25098039 0.27450980 0.65882353
v -0.11930229 -0.07595814 -16.23073387 0.25098039 0.27450980 0.65882353
v -0.12756023 -0.07092987 -16.21542168 0.25098039 0.27450980 0.65882353
v -0.13241857 -0.07915360 -16.21802330 0.25098039 0.27450980 0.65882353
v -0.13034244 -0.10163718 -16.22295380 0.25098039 0.27450980 0.65882353
v -0.13395259 -0.08518572 -16.22318459 0.25098039 0.27450980 0.65882353
v -0.13229419 -0.08510920 -16.22866249 0.25098039 0.27450980 0.65882353
v -0.13041010 -0.10143543 -16.22735786 0.25098039 0.27450980 0.65882353
v -0.13480170 -0.08102890 -16.22377777 0.25098039 0.27450980 0.65882353
v -0.13128211 -0.08475351 -16.21807671 0.25098039 0.27450980 0.65882353
v -0.11700422 -0.09874561 -16.23078537 0.25098039 0.27450980 0.65882353
v -0.12239455 -0.09887963 -16.23243713 0.25098039 0.27450980 0.65882353
v -0.11500867 -0.09768996 -16.22697258 0.25098039 0.27450980 0.65882353
v -0.13082977 -0.05723076 -16.21779442 0.25098039 0.27450980 0.65882353
v -0.13522863 -0.05954925 -16.23514557 0.25098039 0.27450980 0.65882353
v -0.11632518 -0.09881634 -16.21961021 0.25098039 0.27450980 0.65882353
v -0.11457719 -0.09807874 -16.22358513 0.25098039 0.27450980 0.65882353
v -0.12902589 -0.08416116 -16.23122978 0.25098039 0.27450980 0.65882353
v -0.12777406 -0.10032455 -16.23102570 0.25098039 0.27450980 0.65882353
v -0.12768632 -0.10048413 -16.21901894 0.25098039 0.27450980 0.65882353
v -0.12189893 -0.09872883 -16.21705627 0.25098039 0.27450980 0.65882353
v -0.12705529 -0.10652957 -16.22080231 0.25098039 0.27450980 0.65882353
v -0.12119191 -0.10525676 -16.21904564 0.25098039 0.27450980 0.65882353
v -0.11581057 -0.10515171 -16.22150993 0.25098039 0.27450980 0.65882353
v -0.11426246 -0.10362022 -16.22537994 0.25098039 0.27450980 0.65882353
v -0.11469400 -0.10262374 -16.22858238 0.25098039 0.27450980 0.65882353
v -0.12951732 -0.10684065 -16.22509193 0.25098039 0.27450980 0.65882353
v -0.12931624 -0.10590883 -16.22894859 0.25098039 0.27450980 0.65882353
v -0.12690228 -0.10235938 -16.23123741 0.25098039 0.27450980 0.65882353
v -0.12925251 -0.11041575 -16.22804832 0.25098039 0.27450980 0.65882353
v -0.12600167 -0.11307969 -16.22437286 0.25098039 0.27450980 0.65882353
v -0.11468242 -0.12157734 -16.23358154 0.25098039 0.27450980 0.65882353
v -0.11488460 -0.11659574 -16.23033333 0.25098039 0.27450980 0.65882353
v -0.11577161 -0.11728872 -16.22969437 0.25098039 0.27450980 0.65882353
v -0.11561956 -0.12251570 -16.23232841 0.25098039 0.27450980 0.65882353
v -0.11592874 -0.11231547 -16.22503471 0.25098039 0.27450980 0.65882353
v -0.11676842 -0.11408346 -16.22576332 0.25098039 0.27450980 0.65882353
v -0.12037696 -0.11408555 -16.22417450 0.25098039 0.27450980 0.65882353
v -0.12020924 -0.11949282 -16.22789001 0.25098039 0.27450980 0.65882353
v -0.12565407 -0.11781757 -16.22975540 0.25098039 0.27450980 0.65882353
v -0.12445272 -0.12194300 -16.23257446 0.25098039 0.27450980 0.65882353
v -0.11975260 -0.12401184 -16.23085976 0.25098039 0.27450980 0.65882353
v -0.12464143 -0.11445411 -16.22543335 0.25098039 0.27450980 0.65882353
v -0.11651841 -0.12522951 -16.23385048 0.25098039 0.27450980 0.65882353
v -0.11469626 -0.12584126 -16.23496437 0.25098039 0.27450980 0.65882353
v -0.12053679 -0.11223675 -16.22233009 0.25098039 0.27450980 0.65882353
v -0.11333239 -0.10901340 -16.22762871 0.25098039 0.27450980 0.65882353
v -0.11326627 -0.11520653 -16.23234749 0.25098039 0.27450980 0.65882353
v -0.11269625 -0.12015747 -16.23601151 0.25098039 0.27450980 0.65882353
v -0.11455511 -0.12378838 -16.23816109 0.25098039 0.27450980 0.65882353
v -0.11418137 -0.11330060 -16.23543739 0.25098039 0.27450980 0.65882353
v -0.11406836 -0.11819626 -16.23814774 0.25098039 0.27450980 0.65882353
v -0.11561590 -0.12143791 -16.24011803 0.25098039 0.27450980 0.65882353
v -0.11632693 -0.11208316 -16.23756981 0.25098039 0.27450980 0.65882353
v -0.11643168 -0.11658257 -16.23982048 0.25098039 0.27450980 0.65882353
v -0.11690460 -0.10381087 -16.23235321 0.25098039 0.27450980 0.65882353
v -0.11426729 -0.10606060 -16.23023033 0.25098039 0.27450980 0.65882353
v -0.11704562 -0.11965845 -16.24074173 0.25098039 0.27450980 0.65882353
v -0.11921017 -0.12754437 -16.23527527 0.25098039 0.27450980 0.65882353
v -0.11978221 -0.12570983 -16.23924065 0.25098039 0.27450980 0.65882353
v -0.11939429 -0.12600404 -16.23384285 0.25098039 0.27450980 0.65882353
v -0.12719364 -0.11672594 -16.23027420 0.25098039 0.27450980 0.65882353
v -0.12617140 -0.12197422 -16.23432732 0.25098039 0.27450980 0.65882353
v -0.12828290 -0.11519583 -16.23250961 0.25098039 0.27450980 0.65882353
v -0.12723605 -0.12049342 -16.23639488 0.25098039 0.27450980 0.65882353
v -0.12402876 -0.12557030 -16.23554611 0.25098039 0.27450980 0.65882353
v -0.12327033 -0.12514773 -16.23449135 0.25098039 0.27450980 0.65882353
v -0.11747678 -0.10131066 -16.23105049 0.25098039 0.27450980 0.65882353
v -0.12234826 -0.10116295 -16.23240471 0.25098039 0.27450980 0.65882353
v -0.12147404 -0.10319848 -16.23363304 0.25098039 0.27450980 0.65882353
v -0.12061329 -0.11184048 -16.23931694 0.25098039 0.27450980 0.65882353
v -0.12599376 -0.10419179 -16.23287392 0.25098039 0.27450980 0.65882353
v -0.12867290 -0.10916498 -16.23159981 0.25098039 0.27450980 0.65882353
v -0.12742645 -0.11374035 -16.23535538 0.25098039 0.27450980 0.65882353
v -0.12493335 -0.11282491 -16.23812103 0.25098039 0.27450980 0.65882353
v -0.12655559 -0.11870868 -16.23842621 0.25098039 0.27450980 0.65882353
v -0.12460090 -0.11683247 -16.23940086 0.25098039 0.27450980 0.65882353
v -0.12019788 -0.11611655 -16.24138260 0.25098039 0.27450980 0.65882353
v -0.12399454 -0.12184485 -16.23961258 0.25098039 0.27450980 0.65882353
v -0.12469905 -0.12424583 -16.23796654 0.25098039 0.27450980 0.65882353
v -0.11976726 -0.12285935 -16.24098778 0.25098039 0.27450980 0.65882353
v -0.12310413 -0.11968479 -16.24063110 0.25098039 0.27450980 0.65882353
v -0.11987770 -0.12027986 -16.24164009 0.25098039 0.27450980 0.65882353
v -0.13268444 -0.05860290 -16.23741341 0.25098039 0.27450980 0.65882353
v -0.15330982 -0.07657705 -16.24394798 0.25098039 0.27450980 0.65882353
v -0.15657219 -0.07575050 -16.24608421 0.25098039 0.27450980 0.65882353
v -0.15680306 -0.07179195 -16.24511909 0.25098039 0.27450980 0.65882353
v -0.15310305 -0.07192267 -16.24368477 0.25098039 0.27450980 0.65882353
v -0.15525194 -0.07712776 -16.23326302 0.25098039 0.27450980 0.65882353
v -0.15255570 -0.07766951 -16.23674011 0.25098039 0.27450980 0.65882353
v -0.15173335 -0.07310893 -16.23562622 0.25098039 0.27450980 0.65882353
v -0.15437630 -0.07263321 -16.23221970 0.25098039 0.27450980 0.65882353
v -0.15995391 -0.07663759 -16.23242569 0.25098039 0.27450980 0.65882353
v -0.15938930 -0.07219463 -16.23165894 0.25098039 0.27450980 0.65882353
v -0.15364583 -0.06933168 -16.23109818 0.25098039 0.27450980 0.65882353
v -0.15077552 -0.06954999 -16.23488426 0.25098039 0.27450980 0.65882353
v -0.14729887 -0.05410426 -16.23426819 0.25098039 0.27450980 0.65882353
v -0.15071426 -0.05179510 -16.23037529 0.25098039 0.27450980 0.65882353
v -0.16358849 -0.04671285 -16.24305153 0.25098039 0.27450980 0.65882353
v -0.15889487 -0.04603336 -16.24768639 0.25098039 0.27450980 0.65882353
v -0.16013932 -0.05473815 -16.24550056 0.25098039 0.27450980 0.65882353
v -0.16366339 -0.05350123 -16.24181747 0.25098039 0.27450980 0.65882353
v -0.15209594 -0.07733832 -16.24055099 0.25098039 0.27450980 0.65882353
v -0.15108865 -0.07289679 -16.24044609 0.25098039 0.27450980 0.65882353
v -0.16487151 -0.06631327 -16.24221802 0.25098039 0.27450980 0.65882353
v -0.16122141 -0.06724460 -16.24488640 0.25098039 0.27450980 0.65882353
v -0.16064230 -0.07084070 -16.24564934 0.25098039 0.27450980 0.65882353
v -0.16470245 -0.07069082 -16.24366760 0.25098039 0.27450980 0.65882353
v -0.15351251 -0.04817238 -16.24831772 0.25098039 0.27450980 0.65882353
v -0.14896071 -0.04981543 -16.24656296 0.25098039 0.27450980 0.65882353
v -0.14970301 -0.05421260 -16.24625587 0.25098039 0.27450980 0.65882353
v -0.15540381 -0.05610429 -16.24663925 0.25098039 0.27450980 0.65882353
v -0.14657813 -0.05544118 -16.24195099 0.25098039 0.27450980 0.65882353
v -0.16610378 -0.06657643 -16.23848915 0.25098039 0.27450980 0.65882353
v -0.16441606 -0.06744295 -16.23324966 0.25098039 0.27450980 0.65882353
v -0.16424370 -0.05100694 -16.23225021 0.25098039 0.27450980 0.65882353
v -0.16492444 -0.05122139 -16.23694992 0.25098039 0.27450980 0.65882353
v -0.15015298 -0.06999184 -16.23933220 0.25098039 0.27450980 0.65882353
v -0.15708135 -0.06853848 -16.24509430 0.25098039 0.27450980 0.65882353
v -0.15294859 -0.06936008 -16.24345207 0.25098039 0.27450980 0.65882353
v -0.15918311 -0.06869837 -16.23019409 0.25098039 0.27450980 0.65882353
v -0.16453114 -0.07160618 -16.23452187 0.25098039 0.27450980 0.65882353
v -0.16745365 -0.08430345 -16.24256516 0.25098039 0.27450980 0.65882353
v -0.16673662 -0.07468179 -16.24061584 0.25098039 0.27450980 0.65882353
v -0.16467705 -0.07481597 -16.24493027 0.25098039 0.27450980 0.65882353
v -0.16631731 -0.08423204 -16.24526215 0.25098039 0.27450980 0.65882353
v -0.16623351 -0.07072767 -16.23951149 0.25098039 0.27450980 0.65882353
v -0.16508104 -0.07586113 -16.23544693 0.25098039 0.27450980 0.65882353
v -0.15461516 -0.08574803 -16.24574661 0.25098039 0.27450980 0.65882353
v -0.15904206 -0.08435436 -16.24781418 0.25098039 0.27450980 0.65882353
v -0.15336147 -0.08629124 -16.24285507 0.25098039 0.27450980 0.65882353
v -0.15744913 -0.05122111 -16.22857094 0.25098039 0.27450980 0.65882353
v -0.15638188 -0.08687123 -16.23613930 0.25098039 0.27450980 0.65882353
v -0.15368998 -0.08728231 -16.23948479 0.25098039 0.27450980 0.65882353
v -0.16048615 -0.07519554 -16.24651527 0.25098039 0.27450980 0.65882353
v -0.16333711 -0.08393674 -16.24730873 0.25098039 0.27450980 0.65882353
v -0.16630024 -0.08498059 -16.23855591 0.25098039 0.27450980 0.65882353
v -0.16159442 -0.08577522 -16.23496819 0.25098039 0.27450980 0.65882353
v -0.16620390 -0.08964030 -16.23988724 0.25098039 0.27450980 0.65882353
v -0.16119099 -0.09001420 -16.23650551 0.25098039 0.27450980 0.65882353
v -0.15576816 -0.09115016 -16.23830223 0.25098039 0.27450980 0.65882353
v -0.15382630 -0.09011307 -16.24123573 0.25098039 0.27450980 0.65882353
v -0.15350810 -0.08916947 -16.24425507 0.25098039 0.27450980 0.65882353
v -0.16746068 -0.08861760 -16.24381065 0.25098039 0.27450980 0.65882353
v -0.16630384 -0.08790714 -16.24649620 0.25098039 0.27450980 0.65882353
v -0.16343898 -0.08666635 -16.24850464 0.25098039 0.27450980 0.65882353
v -0.16730762 -0.09291493 -16.24535942 0.25098039 0.27450980 0.65882353
v -0.16561955 -0.09577618 -16.24196815 0.25098039 0.27450980 0.65882353
v -0.15620857 -0.10402329 -16.24726105 0.25098039 0.27450980 0.65882353
v -0.15569237 -0.10038485 -16.24532700 0.25098039 0.27450980 0.65882353
v -0.15655318 -0.10072543 -16.24449539 0.25098039 0.27450980 0.65882353
v -0.15648209 -0.10452891 -16.24622726 0.25098039 0.27450980 0.65882353
v -0.15614609 -0.09645375 -16.24156189 0.25098039 0.27450980 0.65882353
v -0.15732515 -0.09764456 -16.24173164 0.25098039 0.27450980 0.65882353
v -0.16045669 -0.09649358 -16.24059486 0.25098039 0.27450980 0.65882353
v -0.16047971 -0.10126864 -16.24291039 0.25098039 0.27450980 0.65882353
v -0.16534474 -0.10075160 -16.24511147 0.25098039 0.27450980 0.65882353
v -0.16480744 -0.10464101 -16.24673462 0.25098039 0.27450980 0.65882353
v -0.16063815 -0.10481931 -16.24438477 0.25098039 0.27450980 0.65882353
v -0.16434568 -0.09749303 -16.24192619 0.25098039 0.27450980 0.65882353
v -0.15740448 -0.10712542 -16.24670219 0.25098039 0.27450980 0.65882353
v -0.15686765 -0.10798452 -16.24778557 0.25098039 0.27450980 0.65882353
v -0.16048817 -0.09509522 -16.23923683 0.25098039 0.27450980 0.65882353
v -0.15376270 -0.09407412 -16.24396515 0.25098039 0.27450980 0.65882353
v -0.15444075 -0.10019011 -16.24747658 0.25098039 0.27450980 0.65882353
v -0.15543069 -0.10484373 -16.24936295 0.25098039 0.27450980 0.65882353
v -0.15740646 -0.10804545 -16.25010872 0.25098039 0.27450980 0.65882353
v -0.15454113 -0.09829035 -16.24944305 0.25098039 0.27450980 0.65882353
v -0.15547189 -0.10391106 -16.25166893 0.25098039 0.27450980 0.65882353
v -0.15763776 -0.10678662 -16.25244522 0.25098039 0.27450980 0.65882353
v -0.15601586 -0.09641226 -16.25192261 0.25098039 0.27450980 0.65882353
v -0.15696196 -0.10209876 -16.25326538 0.25098039 0.27450980 0.65882353
v -0.15568522 -0.08995365 -16.24896240 0.25098039 0.27450980 0.65882353
v -0.15402113 -0.09202711 -16.24659538 0.25098039 0.27450980 0.65882353
v -0.15826443 -0.10503750 -16.25313759 0.25098039 0.27450980 0.65882353
v -0.16055620 -0.10901175 -16.24741364 0.25098039 0.27450980 0.65882353
v -0.16064200 -0.10872703 -16.25050735 0.25098039 0.27450980 0.65882353
v -0.16080920 -0.10811452 -16.24621201 0.25098039 0.27450980 0.65882353
v -0.16640750 -0.10010602 -16.24597168 0.25098039 0.27450980 0.65882353
v -0.16583058 -0.10478850 -16.24814987 0.25098039 0.27450980 0.65882353
v -0.16714032 -0.09881919 -16.24813271 0.25098039 0.27450980 0.65882353
v -0.16591790 -0.10416467 -16.25033379 0.25098039 0.27450980 0.65882353
v -0.16401397 -0.10792726 -16.24858093 0.25098039 0.27450980 0.65882353
v -0.16333264 -0.10712447 -16.24687004 0.25098039 0.27450980 0.65882353
v -0.15532529 -0.08808965 -16.24761772 0.25098039 0.27450980 0.65882353
v -0.15913591 -0.08667062 -16.24866486 0.25098039 0.27450980 0.65882353
v -0.15957311 -0.08881540 -16.25002861 0.25098039 0.27450980 0.65882353
v -0.15947872 -0.09526040 -16.25317192 0.25098039 0.27450980 0.65882353
v -0.16379189 -0.08910916 -16.24966240 0.25098039 0.27450980 0.65882353
v -0.16640379 -0.09088967 -16.24759865 0.25098039 0.27450980 0.65882353
v -0.16612397 -0.09737077 -16.25038528 0.25098039 0.27450980 0.65882353
v -0.16374977 -0.09610397 -16.25251579 0.25098039 0.27450980 0.65882353
v -0.16495237 -0.10340985 -16.25230789 0.25098039 0.27450980 0.65882353
v -0.16287735 -0.10181388 -16.25400543 0.25098039 0.27450980 0.65882353
v -0.15975076 -0.10114527 -16.25456047 0.25098039 0.27450980 0.65882353
v -0.16270268 -0.10657801 -16.25240326 0.25098039 0.27450980 0.65882353
v -0.16356194 -0.10767245 -16.25096321 0.25098039 0.27450980 0.65882353
v -0.16048759 -0.10727330 -16.25234413 0.25098039 0.27450980 0.65882353
v -0.16176280 -0.10513378 -16.25358582 0.25098039 0.27450980 0.65882353
v -0.16011998 -0.10506120 -16.25360107 0.25098039 0.27450980 0.65882353
v -0.16460720 -0.04782882 -16.23899078 0.25098039 0.27450980 0.65882353
v -0.08589347 -0.01594882 -16.30584145 0.25098039 0.27450980 0.65882353
v -0.08840846 -0.01947502 -16.30189705 0.25098039 0.27450980 0.65882353
v -0.10235989 -0.02404124 -16.30946922 0.25098039 0.27450980 0.65882353
v -0.09828386 -0.02546284 -16.30395699 0.25098039 0.27450980 0.65882353
v -0.10261814 -0.02100102 -16.31527328 0.25098039 0.27450980 0.65882353
v -0.09584489 -0.01337391 -16.31841850 0.25098039 0.27450980 0.65882353
v -0.10051194 -0.01625297 -16.31772041 0.25098039 0.27450980 0.65882353
v -0.09318817 -0.02365083 -16.30130577 0.25098039 0.27450980 0.65882353
v -0.08587390 -0.01265216 -16.31063843 0.25098039 0.27450980 0.65882353
v -0.09002638 -0.01107606 -16.31600571 0.25098039 0.27450980 0.65882353
v -0.08207653 -0.01889606 -16.31379128 0.25098039 0.27450980 0.65882353
v -0.08641160 -0.01773389 -16.31976318 0.25098039 0.27450980 0.65882353
v -0.09215143 -0.02025384 -16.32278442 0.25098039 0.27450980 0.65882353
v -0.09780844 -0.02290866 -16.32134819 0.25098039 0.27450980 0.65882353
v -0.10049683 -0.02585615 -16.31865311 0.25098039 0.27450980 0.65882353
v -0.08379763 -0.02191678 -16.30783272 0.25098039 0.27450980 0.65882353
v -0.08686826 -0.02522068 -16.30410767 0.25098039 0.27450980 0.65882353
v -0.09275264 -0.02812473 -16.30354309 0.25098039 0.27450980 0.65882353
v -0.08199084 -0.02983894 -16.30916977 0.25098039 0.27450980 0.65882353
v -0.07943149 -0.03608489 -16.31691742 0.25098039 0.27450980 0.65882353
v -0.08583383 -0.04704092 -16.33038712 0.25098039 0.27450980 0.65882353
v -0.08885063 -0.04126404 -16.32859993 0.25098039 0.27450980 0.65882353
v -0.08590172 -0.04107112 -16.32832336 0.25098039 0.27450980 0.65882353
v -0.08326870 -0.04597673 -16.33056831 0.25098039 0.27450980 0.65882353
v -0.08832200 -0.03610010 -16.32702255 0.25098039 0.27450980 0.65882353
v -0.08630475 -0.03745431 -16.32644081 0.25098039 0.27450980 0.65882353
v -0.08269787 -0.03612255 -16.32297134 0.25098039 0.27450980 0.65882353
v -0.08020467 -0.04035831 -16.32534981 0.25098039 0.27450980 0.65882353
v -0.07992032 -0.03773374 -16.31916237 0.25098039 0.27450980 0.65882353
v -0.07841201 -0.04132444 -16.31939316 0.25098039 0.27450980 0.65882353
v -0.07802884 -0.04491393 -16.32712555 0.25098039 0.27450980 0.65882353
v -0.08000061 -0.04846571 -16.33121490 0.25098039 0.27450980 0.65882353
v -0.07642558 -0.04917634 -16.32849693 0.25098039 0.27450980 0.65882353
v -0.08204800 -0.05086040 -16.33050728 0.25098039 0.27450980 0.65882353
v -0.08169511 -0.03422127 -16.32368469 0.25098039 0.27450980 0.65882353
v -0.09441435 -0.03219337 -16.32531357 0.25098039 0.27450980 0.65882353
v -0.09254953 -0.04086662 -16.32691765 0.25098039 0.27450980 0.65882353
v -0.08892751 -0.04793859 -16.32815361 0.25098039 0.27450980 0.65882353
v -0.08411844 -0.05219599 -16.32827568 0.25098039 0.27450980 0.65882353
v -0.09528822 -0.04168101 -16.32321167 0.25098039 0.27450980 0.65882353
v -0.09108585 -0.04804750 -16.32398796 0.25098039 0.27450980 0.65882353
v -0.08644561 -0.05175948 -16.32350540 0.25098039 0.27450980 0.65882353
v -0.09560396 -0.04260220 -16.31846619 0.25098039 0.27450980 0.65882353
v -0.09105939 -0.04806425 -16.31995392 0.25098039 0.27450980 0.65882353
v -0.09972316 -0.03086587 -16.31440735 0.25098039 0.27450980 0.65882353
v -0.09897117 -0.03085684 -16.32080269 0.25098039 0.27450980 0.65882353
v -0.08746837 -0.05065194 -16.32091141 0.25098039 0.27450980 0.65882353
v -0.07640611 -0.05186429 -16.32804871 0.25098039 0.27450980 0.65882353
v -0.07892087 -0.05340828 -16.32523155 0.25098039 0.27450980 0.65882353
v -0.07823054 -0.04124101 -16.31574249 0.25098039 0.27450980 0.65882353
v -0.07560131 -0.04536939 -16.32125282 0.25098039 0.27450980 0.65882353
v -0.07632007 -0.04643450 -16.31814003 0.25098039 0.27450980 0.65882353
v -0.07984382 -0.04081018 -16.31184959 0.25098039 0.27450980 0.65882353
v -0.07761049 -0.04740666 -16.31545639 0.25098039 0.27450980 0.65882353
v -0.07496609 -0.05018029 -16.32230377 0.25098039 0.27450980 0.65882353
v -0.07489695 -0.04801629 -16.32434082 0.25098039 0.27450980 0.65882353
v -0.10104361 -0.02746145 -16.31274986 0.25098039 0.27450980 0.65882353
v -0.09809233 -0.02805916 -16.30683517 0.25098039 0.27450980 0.65882353
v -0.09649207 -0.03115281 -16.30839348 0.25098039 0.27450980 0.65882353
v -0.09289142 -0.04217049 -16.31263733 0.25098039 0.27450980 0.65882353
v -0.09135535 -0.03197359 -16.30509186 0.25098039 0.27450980 0.65882353
v -0.08543199 -0.03112055 -16.30604744 0.25098039 0.27450980 0.65882353
v -0.08293448 -0.04155606 -16.30944824 0.25098039 0.27450980 0.65882353
v -0.08785503 -0.04203887 -16.30926514 0.25098039 0.27450980 0.65882353
v -0.08105002 -0.04814666 -16.31388855 0.25098039 0.27450980 0.65882353
v -0.08424990 -0.04824106 -16.31389427 0.25098039 0.27450980 0.65882353
v -0.08861881 -0.04865432 -16.31633186 0.25098039 0.27450980 0.65882353
v -0.08038181 -0.05142436 -16.31797028 0.25098039 0.27450980 0.65882353
v -0.07695900 -0.05134895 -16.31964302 0.25098039 0.27450980 0.65882353
v -0.08230767 -0.05286054 -16.32155800 0.25098039 0.27450980 0.65882353
v -0.08307450 -0.05043496 -16.31693459 0.25098039 0.27450980 0.65882353
v -0.08498523 -0.05113271 -16.31916618 0.25098039 0.27450980 0.65882353
v -0.16029289 -0.04142871 -16.24821854 0.25098039 0.27450980 0.65882353
v -0.15402621 -0.04259568 -16.25016403 0.25098039 0.27450980 0.65882353
v -0.15772691 -0.03750262 -16.25192451 0.25098039 0.27450980 0.65882353
v -0.16106750 -0.02920702 -16.25484657 0.25098039 0.27450980 0.65882353
v -0.16844663 -0.02099710 -16.25476646 0.25098039 0.27450980 0.65882353
v -0.15454611 -0.02844522 -16.25638199 0.25098039 0.27450980 0.65882353
v -0.15144394 -0.03699405 -16.25281334 0.25098039 0.27450980 0.65882353
v -0.14660233 -0.04492298 -16.24923134 0.25098039 0.27450980 0.65882353
v -0.15018743 -0.01992064 -16.25989723 0.25098039 0.27450980 0.65882353
f 2 3 1
f 1 3 4
f 5 6 8
f 8 6 7
f 9 4 10
f 10 4 3
f 12 13 11
f 11 13 9
f 14 12 16
f 16 12 15
f 18 19 17
f 17 19 20
f 22 23 21
f 21 23 24
f 26 27 25
f 25 27 28
f 30 31 29
f 29 31 32
f 33 34 36
f 36 34 35
f 37 38 40
f 40 38 39
f 41 42 6
f 6 42 43
f 6 43 7
f 7 43 44
f 45 34 46
f 46 34 33
f 48 49 47
f 47 49 50
f 52 53 51
f 51 53 54
f 56 52 55
f 55 52 51
f 58 59 57
f 57 59 60
f 61 62 4
f 4 62 1
f 64 65 63
f 63 65 66
f 68 69 67
f 67 69 70
f 72 73 71
f 71 73 74
f 76 77 75
f 75 77 78
f 53 79 54
f 54 79 80
f 82 83 81
f 81 83 84
f 85 86 52
f 52 86 53
f 57 60 87
f 87 60 88
f 89 90 43
f 43 90 44
f 43 42 89
f 89 42 91
f 40 39 92
f 92 39 93
f 94 70 64
f 64 70 69
f 13 61 9
f 9 61 4
f 25 28 69
f 69 28 95
f 96 25 68
f 68 25 69
f 98 99 97
f 97 99 100
f 101 102 104
f 104 102 103
f 106 30 105
f 105 30 29
f 51 54 107
f 107 54 108
f 54 80 108
f 108 80 109
f 111 112 110
f 110 112 113
f 115 5 114
f 114 5 116
f 115 41 5
f 5 41 6
f 36 35 111
f 111 35 117
f 35 118 117
f 117 118 119
f 34 120 35
f 35 120 118
f 34 45 120
f 120 45 121
f 125 126 124
f 124 126 127
f 128 129 14
f 14 129 130
f 33 131 46
f 46 131 132
f 133 94 63
f 63 94 64
f 134 135 137
f 137 135 136
f 139 140 138
f 138 140 141
f 77 142 78
f 78 142 143
f 144 145 20
f 20 145 146
f 148 149 147
f 147 149 72
f 151 152 150
f 150 152 153
f 82 101 83
f 83 101 104
f 101 82 155
f 155 82 154
f 156 157 58
f 58 157 59
f 158 68 147
f 147 68 67
f 159 146 15
f 15 146 16
f 68 158 96
f 96 158 160
f 129 66 130
f 130 66 65
f 162 163 161
f 161 163 164
f 166 167 165
f 165 167 168
f 170 171 169
f 169 171 172
f 174 171 173
f 173 171 170
f 176 177 175
f 175 177 178
f 180 181 179
f 179 181 24
f 182 183 21
f 21 183 184
f 81 185 82
f 82 185 154
f 186 187 188
f 188 187 144
f 158 71 160
f 160 71 189
f 190 135 157
f 157 135 59
f 169 172 139
f 139 172 140
f 147 72 158
f 158 72 71
f 192 193 191
f 191 193 194
f 167 166 49
f 49 166 195
f 196 190 50
f 50 190 157
f 197 198 200
f 200 198 199
f 21 24 182
f 182 24 181
f 146 159 20
f 20 159 17
f 182 181 81
f 81 181 185
f 201 185 180
f 180 185 181
f 202 203 83
f 83 203 84
f 205 206 204
f 204 206 85
f 207 22 184
f 184 22 21
f 179 24 208
f 208 24 23
f 208 209 179
f 179 209 205
f 209 210 205
f 205 210 206
f 212 206 211
f 211 206 210
f 179 205 180
f 180 205 204
f 213 176 88
f 88 176 214
f 86 85 212
f 212 85 206
f 193 217 218
f 217 219 218
f 218 219 220
f 219 18 220
f 220 18 17
f 19 221 20
f 20 221 144
f 222 223 225
f 225 223 224
f 175 226 176
f 176 226 214
f 227 87 214
f 214 87 88
f 220 17 228
f 228 17 159
f 134 213 60
f 60 213 88
f 138 229 151
f 151 229 152
f 193 192 210
f 210 192 211
f 230 194 218
f 218 194 193
f 231 232 228
f 228 232 230
f 233 234 91
f 91 234 89
f 235 236 93
f 93 236 92
f 230 232 234
f 234 232 237
f 47 238 48
f 48 238 239
f 240 191 235
f 235 191 236
f 5 8 116
f 116 8 241
f 242 243 189
f 189 243 160
f 244 245 98
f 98 245 99
f 156 246 47
f 47 246 238
f 76 247 77
f 77 247 248
f 250 125 249
f 249 125 124
f 252 253 251
f 251 253 254
f 111 110 36
f 36 110 255
f 256 33 255
f 255 33 36
f 257 258 154
f 154 258 155
f 63 169 133
f 133 169 139
f 66 170 63
f 63 170 169
f 173 170 129
f 129 170 66
f 129 128 173
f 173 128 259
f 128 260 259
f 259 260 261
f 213 134 262
f 262 134 137
f 263 264 186
f 186 264 187
f 112 265 113
f 113 265 266
f 11 267 268
f 234 233 230
f 230 233 194
f 153 269 70
f 70 269 67
f 175 178 165
f 165 178 141
f 150 153 94
f 94 153 70
f 271 221 270
f 270 221 207
f 269 153 272
f 272 153 152
f 121 45 109
f 109 45 108
f 47 50 156
f 156 50 157
f 57 273 58
f 58 273 274
f 145 275 260
f 260 275 261
f 276 149 143
f 143 149 78
f 148 269 75
f 75 269 272
f 207 277 270
f 270 277 278
f 195 196 49
f 49 196 50
f 59 135 60
f 60 135 134
f 83 104 202
f 202 104 279
f 149 148 78
f 78 148 75
f 247 278 248
f 248 278 277
f 183 182 84
f 84 182 81
f 48 239 281
f 281 239 282
f 227 223 283
f 283 223 222
f 223 226 224
f 224 226 168
f 281 282 224
f 224 282 225
f 165 168 175
f 175 168 226
f 264 263 138
f 138 263 229
f 14 16 128
f 128 16 260
f 220 228 218
f 218 228 230
f 87 227 284
f 284 227 283
f 260 16 145
f 145 16 146
f 244 98 258
f 258 98 155
f 58 274 156
f 156 274 246
f 107 285 51
f 51 285 55
f 243 286 160
f 160 286 96
f 234 237 89
f 89 237 90
f 46 132 107
f 107 132 285
f 253 252 249
f 249 252 250
f 286 26 96
f 96 26 25
f 106 105 287
f 287 105 288
f 272 152 289
f 289 152 229
f 138 151 139
f 139 151 133
f 183 290 161
f 161 290 162
f 291 292 277
f 277 292 293
f 151 150 133
f 133 150 94
f 262 275 177
f 177 275 187
f 144 187 145
f 145 187 275
f 273 57 284
f 284 57 87
f 174 136 190
f 190 136 135
f 111 117 112
f 112 117 38
f 117 119 38
f 38 119 123
f 112 38 265
f 265 38 37
f 287 288 254
f 254 288 251
f 228 159 231
f 231 159 15
f 223 227 226
f 226 227 214
f 147 67 148
f 148 67 269
f 224 168 281
f 281 168 167
f 199 163 200
f 200 163 162
f 45 46 108
f 108 46 107
f 281 167 48
f 48 167 49
f 161 164 291
f 291 164 292
f 38 123 39
f 293 294 277
f 277 294 248
f 284 283 296
f 296 283 295
f 284 296 273
f 273 296 297
f 274 273 298
f 298 273 297
f 246 274 299
f 299 274 298
f 283 222 295
f 295 222 300
f 222 225 300
f 300 225 301
f 301 225 302
f 302 225 282
f 303 304 300
f 300 304 295
f 306 307 305
f 305 307 308
f 309 310 308
f 308 310 305
f 308 307 312
f 312 307 311
f 313 314 312
f 312 314 315
f 311 316 312
f 312 316 313
f 317 304 311
f 311 304 316
f 315 309 312
f 312 309 308
f 318 319 321
f 321 319 320
f 319 318 309
f 309 318 310
f 311 307 317
f 317 307 306
f 306 297 317
f 317 297 296
f 306 322 297
f 297 322 298
f 305 323 306
f 306 323 322
f 323 305 324
f 324 305 310
f 304 317 295
f 295 317 296
f 318 325 310
f 310 325 324
f 323 324 326
f 326 324 327
f 324 325 327
f 327 325 328
f 326 327 329
f 329 327 330
f 329 331 326
f 326 331 332
f 333 330 328
f 328 330 327
f 323 326 322
f 322 326 332
f 322 332 298
f 298 332 299
f 325 318 334
f 334 318 321
f 313 316 335
f 335 316 304
f 335 336 313
f 313 336 314
f 304 303 335
f 335 303 337
f 336 335 338
f 338 335 337
f 336 339 314
f 314 339 340
f 246 299 238
f 238 299 341
f 239 342 282
f 282 342 302
f 342 239 341
f 341 239 238
f 341 331 342
f 342 331 343
f 331 329 343
f 343 329 344
f 342 343 302
f 302 343 345
f 341 299 331
f 331 299 332
f 346 301 345
f 345 301 302
f 346 303 301
f 301 303 300
f 347 337 346
f 346 337 303
f 347 346 348
f 348 346 345
f 349 347 350
f 350 347 348
f 343 344 345
f 345 344 348
f 344 351 348
f 348 351 350
f 337 347 338
f 338 347 349
f 353 338 352
f 352 338 349
f 352 355 354
f 354 355 356
f 352 349 355
f 355 349 350
f 352 354 353
f 353 354 334
f 353 334 339
f 339 334 321
f 339 336 353
f 353 336 338
f 329 330 344
f 344 330 351
f 356 351 333
f 333 351 330
f 356 355 351
f 351 355 350
f 354 356 328
f 328 356 333
f 328 325 354
f 354 325 334
f 309 315 319
f 319 315 320
f 320 340 321
f 321 340 339
f 320 315 340
f 340 315 314
f 137 136 261
f 261 136 259
f 140 166 141
f 141 166 165
f 172 171 195
f 195 171 196
f 171 174 196
f 196 174 190
f 178 177 264
f 264 177 187
f 172 195 140
f 140 195 166
f 137 261 262
f 262 261 275
f 178 264 141
f 141 264 138
f 262 177 213
f 213 177 176
f 136 174 259
f 259 174 173
f 358 359 357
f 357 359 360
f 362 363 361
f 361 363 364
f 361 364 365
f 365 364 366
f 367 368 370
f 370 368 369
f 76 371 247
f 247 371 372
f 373 374 362
f 362 374 363
f 376 377 375
f 375 377 378
f 289 229 380
f 380 229 379
f 381 379 263
f 263 379 229
f 383 384 382
f 382 384 385
f 386 368 374
f 374 368 363
f 76 289 371
f 371 289 380
f 377 376 359
f 359 376 387
f 388 386 360
f 360 386 374
f 389 383 366
f 366 383 390
f 392 393 391
f 391 393 394
f 383 382 390
f 390 382 395
f 396 365 390
f 390 365 366
f 389 366 367
f 367 366 364
f 357 397 358
f 358 397 398
f 373 399 357
f 357 399 397
f 389 367 400
f 400 367 370
f 382 385 375
f 375 385 372
f 357 360 373
f 373 360 374
f 361 401 362
f 362 401 402
f 387 388 359
f 359 388 360
f 363 368 364
f 364 368 367
f 358 398 403
f 403 398 404
f 396 392 405
f 405 392 391
f 392 395 393
f 393 395 378
f 393 403 394
f 394 403 404
f 375 378 382
f 382 378 395
f 365 396 406
f 406 396 405
f 362 402 373
f 373 402 399
f 271 270 400
f 400 270 384
f 401 361 406
f 406 361 365
f 381 369 386
f 386 369 368
f 392 396 395
f 395 396 390
f 393 378 403
f 403 378 377
f 403 377 358
f 358 377 359
f 406 405 408
f 408 405 407
f 406 408 401
f 401 408 409
f 401 409 402
f 402 409 410
f 402 410 399
f 399 410 411
f 405 391 407
f 407 391 412
f 391 394 412
f 412 394 413
f 394 404 413
f 413 404 414
f 415 416 412
f 412 416 407
f 418 419 417
f 417 419 420
f 421 422 418
f 418 422 419
f 419 422 424
f 424 422 423
f 425 426 424
f 424 426 427
f 423 428 424
f 424 428 425
f 427 420 424
f 424 420 419
f 420 429 417
f 417 429 430
f 423 422 431
f 431 422 421
f 421 409 431
f 431 409 408
f 421 432 409
f 409 432 410
f 418 433 421
f 421 433 432
f 434 433 417
f 417 433 418
f 431 416 423
f 423 416 428
f 416 431 407
f 407 431 408
f 435 434 430
f 430 434 417
f 433 434 436
f 436 434 437
f 434 435 437
f 437 435 438
f 436 437 439
f 439 437 440
f 439 441 436
f 436 441 442
f 438 443 437
f 437 443 440
f 436 442 433
f 433 442 432
f 432 442 410
f 410 442 411
f 435 430 445
f 445 430 444
f 430 429 444
f 444 429 446
f 425 428 447
f 447 428 416
f 426 425 448
f 448 425 447
f 416 415 447
f 447 415 449
f 447 449 448
f 448 449 450
f 451 452 448
f 448 452 426
f 446 452 444
f 444 452 451
f 399 411 397
f 397 411 453
f 398 454 404
f 404 454 414
f 454 398 453
f 453 398 397
f 453 441 454
f 454 441 455
f 441 439 455
f 455 439 456
f 454 455 414
f 414 455 457
f 441 453 442
f 442 453 411
f 458 413 457
f 457 413 414
f 458 415 413
f 413 415 412
f 458 459 415
f 415 459 449
f 459 458 460
f 460 458 457
f 461 459 462
f 462 459 460
f 455 456 457
f 457 456 460
f 456 463 460
f 460 463 462
f 459 461 449
f 449 461 450
f 465 450 464
f 464 450 461
f 464 467 466
f 466 467 468
f 464 461 467
f 467 461 462
f 464 466 465
f 465 466 445
f 465 445 451
f 451 445 444
f 451 448 465
f 465 448 450
f 439 440 456
f 456 440 463
f 468 463 443
f 443 463 440
f 468 467 463
f 463 467 462
f 466 468 438
f 438 468 443
f 438 435 466
f 466 435 445
f 420 427 429
f 429 427 446
f 446 427 452
f 452 427 426
f 370 369 188
f 188 369 186
f 371 376 372
f 372 376 375
f 380 379 387
f 387 379 388
f 379 381 388
f 388 381 386
f 385 384 278
f 278 384 270
f 380 387 371
f 371 387 376
f 400 370 271
f 271 370 188
f 385 278 372
f 372 278 247
f 400 384 389
f 389 384 383
f 369 381 186
f 186 381 263
f 221 271 144
f 144 271 188
f 221 19 207
f 207 19 22
f 19 18 22
f 22 18 23
f 18 219 23
f 23 219 208
f 469 470 472
f 472 470 471
f 474 475 473
f 473 475 476
f 473 476 477
f 477 476 478
f 480 481 479
f 479 481 482
f 483 484 474
f 474 484 475
f 486 487 485
f 485 487 488
f 489 490 77
f 77 490 142
f 491 489 248
f 248 489 77
f 493 494 492
f 492 494 495
f 496 480 484
f 484 480 475
f 486 497 487
f 487 497 471
f 498 496 472
f 472 496 484
f 499 493 478
f 478 493 500
f 501 502 504
f 504 502 503
f 493 492 500
f 500 492 505
f 506 477 500
f 500 477 478
f 499 478 479
f 479 478 476
f 469 507 470
f 470 507 508
f 483 509 469
f 469 509 507
f 479 482 499
f 499 482 510
f 492 495 485
f 485 495 511
f 483 469 484
f 484 469 472
f 473 512 474
f 474 512 513
f 497 498 471
f 471 498 472
f 475 480 476
f 476 480 479
f 470 508 514
f 514 508 515
f 506 502 516
f 516 502 501
f 503 502 488
f 488 502 505
f 514 515 503
f 503 515 504
f 485 488 492
f 492 488 505
f 477 506 517
f 517 506 516
f 474 513 483
f 483 513 509
f 510 292 494
f 494 292 164
f 512 473 517
f 517 473 477
f 491 481 496
f 496 481 480
f 502 506 505
f 505 506 500
f 503 488 514
f 514 488 487
f 514 487 470
f 470 487 471
f 517 516 519
f 519 516 518
f 517 519 512
f 512 519 520
f 512 520 513
f 513 520 521
f 513 521 509
f 509 521 522
f 516 501 518
f 518 501 523
f 501 504 523
f 523 504 524
f 524 504 525
f 525 504 515
f 526 527 523
f 523 527 518
f 529 530 528
f 528 530 531
f 532 533 529
f 529 533 530
f 530 533 535
f 535 533 534
f 536 537 535
f 535 537 538
f 534 539 535
f 535 539 536
f 538 531 535
f 535 531 530
f 540 541 531
f 531 541 528
f 533 532 534
f 534 532 542
f 532 520 542
f 542 520 519
f 532 543 520
f 520 543 521
f 529 544 532
f 532 544 543
f 544 529 545
f 545 529 528
f 534 542 539
f 539 542 527
f 527 542 518
f 518 542 519
f 541 546 528
f 528 546 545
f 547 544 548
f 548 544 545
f 546 549 545
f 545 549 548
f 550 547 551
f 551 547 548
f 547 550 553
f 553 550 552
f 549 554 548
f 548 554 551
f 544 547 543
f 543 547 553
f 543 553 521
f 521 553 522
f 546 541 556
f 556 541 555
f 541 540 555
f 555 540 557
f 536 539 558
f 558 539 527
f 537 536 559
f 559 536 558
f 527 526 558
f 558 526 560
f 559 558 561
f 561 558 560
f 559 562 537
f 537 562 563
f 557 563 555
f 555 563 562
f 509 522 507
f 507 522 564
f 508 565 515
f 515 565 525
f 565 508 564
f 564 508 507
f 564 552 565
f 565 552 566
f 552 550 566
f 566 550 567
f 565 566 525
f 525 566 568
f 564 522 552
f 552 522 553
f 569 524 568
f 568 524 525
f 569 526 524
f 524 526 523
f 570 560 569
f 569 560 526
f 570 569 571
f 571 569 568
f 572 570 573
f 573 570 571
f 566 567 568
f 568 567 571
f 567 574 571
f 571 574 573
f 570 572 560
f 560 572 561
f 576 561 575
f 575 561 572
f 575 578 577
f 577 578 579
f 575 572 578
f 578 572 573
f 575 577 576
f 576 577 556
f 576 556 562
f 562 556 555
f 562 559 576
f 576 559 561
f 550 551 567
f 567 551 574
f 579 574 554
f 554 574 551
f 579 578 574
f 574 578 573
f 579 554 577
f 577 554 549
f 549 546 577
f 577 546 556
f 531 538 540
f 540 538 557
f 557 538 563
f 563 538 537
f 481 294 482
f 482 294 293
f 580 486 511
f 511 486 485
f 490 489 497
f 497 489 498
f 489 491 498
f 498 491 496
f 163 495 164
f 164 495 494
f 580 490 486
f 486 490 497
f 482 293 510
f 510 293 292
f 495 163 511
f 511 163 199
f 494 493 510
f 510 493 499
f 481 491 294
f 294 491 248
f 582 583 581
f 581 583 584
f 586 587 585
f 585 587 588
f 585 588 589
f 589 588 590
f 592 593 591
f 591 593 594
f 595 596 598
f 598 596 597
f 599 600 586
f 586 600 587
f 601 602 604
f 604 602 603
f 605 606 608
f 608 606 607
f 609 607 200
f 200 607 606
f 610 611 613
f 613 611 612
f 600 614 587
f 587 614 592
f 596 605 597
f 597 605 608
f 602 615 603
f 603 615 583
f 616 614 584
f 584 614 600
f 611 618 617
f 617 618 590
f 620 621 619
f 619 621 622
f 610 623 611
f 611 623 618
f 624 589 618
f 618 589 590
f 617 590 591
f 591 590 588
f 581 625 582
f 582 625 626
f 599 627 581
f 581 627 625
f 591 594 617
f 617 594 628
f 601 610 598
f 598 610 613
f 581 584 599
f 599 584 600
f 585 629 586
f 586 629 630
f 615 616 583
f 583 616 584
f 587 592 588
f 588 592 591
f 582 626 631
f 631 626 632
f 624 620 633
f 633 620 619
f 621 620 604
f 604 620 623
f 631 632 621
f 621 632 622
f 610 601 623
f 623 601 604
f 589 624 634
f 634 624 633
f 586 630 599
f 599 630 627
f 203 202 628
f 628 202 612
f 629 585 634
f 634 585 589
f 609 593 614
f 614 593 592
f 620 624 623
f 623 624 618
f 631 621 603
f 603 621 604
f 582 631 583
f 583 631 603
f 634 633 636
f 636 633 635
f 634 636 629
f 629 636 637
f 629 637 630
f 630 637 638
f 630 638 627
f 627 638 639
f 633 619 635
f 635 619 640
f 619 622 640
f 640 622 641
f 641 622 642
f 642 622 632
f 644 635 643
f 643 635 640
f 645 646 648
f 648 646 647
f 649 650 646
f 646 650 647
f 647 650 652
f 652 650 651
f 652 653 655
f 655 653 654
f 651 656 652
f 652 656 653
f 655 648 652
f 652 648 647
f 648 657 645
f 645 657 658
f 650 649 651
f 651 649 659
f 649 637 659
f 659 637 636
f 649 660 637
f 637 660 638
f 661 660 646
f 646 660 649
f 662 661 645
f 645 661 646
f 651 659 656
f 656 659 644
f 644 659 635
f 635 659 636
f 663 662 658
f 658 662 645
f 664 661 665
f 665 661 662
f 663 666 662
f 662 666 665
f 667 664 668
f 668 664 665
f 664 667 670
f 670 667 669
f 666 671 665
f 665 671 668
f 661 664 660
f 660 664 670
f 660 670 638
f 638 670 639
f 658 672 663
f 663 672 673
f 658 657 672
f 672 657 674
f 653 656 675
f 675 656 644
f 653 675 654
f 654 675 676
f 675 644 677
f 677 644 643
f 676 675 678
f 678 675 677
f 679 680 676
f 676 680 654
f 674 680 672
f 672 680 679
f 627 639 625
f 625 639 681
f 626 682 632
f 632 682 642
f 681 682 625
f 625 682 626
f 669 683 681
f 681 683 682
f 667 684 669
f 669 684 683
f 682 683 642
f 642 683 685
f 681 639 669
f 669 639 670
f 686 641 685
f 685 641 642
f 641 686 640
f 640 686 643
f 686 687 643
f 643 687 677
f 687 686 688
f 688 686 685
f 689 687 690
f 690 687 688
f 683 684 685
f 685 684 688
f 684 691 688
f 688 691 690
f 687 689 677
f 677 689 678
f 693 678 692
f 692 678 689
f 692 695 694
f 694 695 696
f 692 689 695
f 695 689 690
f 692 694 693
f 693 694 673
f 693 673 679
f 679 673 672
f 679 676 693
f 693 676 678
f 684 667 691
f 691 667 668
f 696 691 671
f 671 691 668
f 696 695 691
f 691 695 690
f 694 696 666
f 666 696 671
f 666 663 694
f 694 663 673
f 648 655 657
f 657 655 674
f 674 655 680
f 680 655 654
f 593 162 594
f 594 162 290
f 598 597 601
f 601 597 602
f 615 608 616
f 616 608 607
f 607 609 616
f 616 609 614
f 697 595 613
f 613 595 598
f 597 608 602
f 602 608 615
f 594 290 628
f 628 290 203
f 628 612 617
f 617 612 611
f 593 609 162
f 162 609 200
f 105 29 698
f 698 29 699
f 268 126 701
f 701 126 700
f 126 125 700
f 700 125 702
f 252 703 250
f 250 703 704
f 32 268 705
f 705 268 701
f 288 105 706
f 706 105 698
f 29 32 699
f 699 32 705
f 707 251 706
f 706 251 288
f 250 704 125
f 125 704 702
f 703 252 707
f 707 252 251
f 706 708 707
f 707 708 709
f 707 709 703
f 703 709 710
f 703 710 704
f 704 710 711
f 704 711 702
f 702 711 712
f 706 698 708
f 708 698 713
f 698 699 713
f 713 699 714
f 699 705 714
f 714 705 715
f 717 708 716
f 716 708 713
f 719 720 718
f 718 720 721
f 722 723 719
f 719 723 720
f 724 725 723
f 723 725 720
f 724 726 725
f 725 726 727
f 728 721 725
f 725 721 720
f 721 728 729
f 729 728 730
f 729 731 721
f 721 731 718
f 724 723 732
f 732 723 722
f 722 710 732
f 732 710 709
f 722 733 710
f 710 733 711
f 719 734 722
f 722 734 733
f 734 719 735
f 735 719 718
f 724 732 726
f 726 732 717
f 717 732 708
f 708 732 709
f 731 736 718
f 718 736 735
f 737 734 738
f 738 734 735
f 736 739 735
f 735 739 738
f 740 737 741
f 741 737 738
f 737 740 743
f 743 740 742
f 739 744 738
f 738 744 741
f 734 737 733
f 733 737 743
f 733 743 711
f 711 743 712
f 736 731 746
f 746 731 745
f 731 729 745
f 745 729 730
f 727 726 747
f 747 726 717
f 748 727 749
f 749 727 747
f 747 717 750
f 750 717 716
f 749 747 751
f 751 747 750
f 749 752 748
f 748 752 753
f 730 753 745
f 745 753 752
f 728 725 748
f 748 725 727
f 730 728 753
f 753 728 748
f 700 702 754
f 754 702 712
f 705 701 715
f 715 701 755
f 754 755 700
f 700 755 701
f 742 756 754
f 754 756 755
f 740 757 742
f 742 757 756
f 755 756 715
f 715 756 758
f 754 712 742
f 742 712 743
f 759 714 758
f 758 714 715
f 714 759 713
f 713 759 716
f 759 760 716
f 716 760 750
f 760 759 761
f 761 759 758
f 762 760 763
f 763 760 761
f 756 757 758
f 758 757 761
f 757 764 761
f 761 764 763
f 760 762 750
f 750 762 751
f 766 751 765
f 765 751 762
f 767 765 769
f 769 765 768
f 765 762 768
f 768 762 763
f 765 767 766
f 766 767 746
f 766 746 752
f 752 746 745
f 752 749 766
f 766 749 751
f 757 740 764
f 764 740 741
f 769 764 744
f 744 764 741
f 769 768 764
f 764 768 763
f 767 769 739
f 739 769 744
f 739 736 767
f 767 736 746
f 219 217 208
f 208 217 209
f 209 217 210
f 210 217 193
f 198 580 199
f 199 580 511
f 76 75 289
f 289 75 272
f 277 207 291
f 291 207 184
f 290 183 203
f 203 183 84
f 490 580 142
f 142 580 198
f 142 198 143
f 143 198 197
f 149 276 72
f 72 276 73
f 104 103 279
f 279 103 770
f 770 596 279
f 279 596 595
f 605 596 771
f 771 596 770
f 771 770 772
f 772 770 103
f 772 103 773
f 773 103 102
f 155 774 101
f 101 774 102
f 773 102 97
f 97 102 774
f 775 773 100
f 100 773 97
f 773 775 772
f 772 775 776
f 772 776 771
f 771 776 777
f 200 606 197
f 197 606 777
f 189 71 778
f 778 71 74
f 97 774 98
f 98 774 155
f 183 161 184
f 184 161 291
f 777 276 197
f 197 276 143
f 777 606 771
f 771 606 605
f 613 612 697
f 697 612 202
f 595 697 279
f 279 697 202
f 73 276 776
f 776 276 777
f 776 775 73
f 73 775 74
f 100 778 775
f 775 778 74
f 778 100 189
f 189 100 99
f 245 242 99
f 99 242 189
f 131 33 256
f 28 1 95
f 95 1 62
f 27 2 28
f 28 2 1
f 265 115 266
f 266 115 114
f 95 62 69
f 69 62 64
f 62 61 64
f 64 61 65
f 61 13 65
f 65 13 130
f 13 12 130
f 130 12 14
f 31 11 32
f 32 11 268
f 15 12 31
f 31 12 11
f 31 30 15
f 15 30 231
f 30 106 231
f 231 106 232
f 287 237 106
f 106 237 232
f 254 90 287
f 287 90 237
f 253 44 254
f 254 44 90
f 253 249 44
f 44 249 7
f 267 127 268
f 268 127 126
f 10 3 241
f 241 3 116
f 3 2 116
f 116 2 114
f 2 27 114
f 114 27 266
f 27 26 266
f 266 26 113
f 26 286 113
f 113 286 110
f 286 243 110
f 110 243 255
f 243 242 255
f 255 242 256
f 242 245 256
f 256 245 131
f 245 244 131
f 131 244 132
f 265 37 115
f 115 37 41
f 41 37 42
f 42 37 40
f 92 91 40
f 40 91 42
f 236 233 92
f 92 233 91
f 191 194 236
f 236 194 233
f 258 285 244
f 244 285 132
f 257 55 258
f 258 55 285
f 257 154 201
f 201 154 185
f 56 201 204
f 204 201 180
f 55 257 56
f 56 257 201
f 204 85 56
f 56 85 52
f 86 122 53
f 53 122 79
f 212 215 86
f 86 215 122
f 211 216 212
f 212 216 215
f 192 280 211
f 211 280 216
f 191 240 192
f 192 240 280
f 249 124 7
f 7 124 8
f 124 127 8
f 8 127 241
f 127 267 241
f 241 267 10
f 10 267 9
f 9 267 11
f 93 39 235
f 235 39 240
f 39 123 240
f 240 123 280
f 123 119 280
f 280 119 216
f 119 118 216
f 216 118 215
f 118 120 215
f 215 120 122
f 120 121 122
f 122 121 79
f 121 109 79
f 79 109 80

