# https://github.com/mikedh/trimesh
v -0.11235173 0.19746679 -13.47669601 0.25098039 0.27450980 0.65882353
v -0.12044441 0.20109051 -13.48219490 0.25098039 0.27450980 0.65882353
v -0.11377303 0.19712995 -13.49100876 0.25098039 0.27450980 0.65882353
v -0.10506980 0.19351642 -13.48328686 0.25098039 0.27450980 0.65882353
v -0.13132355 0.20982048 -13.50141048 0.25098039 0.27450980 0.65882353
v -0.13014126 0.22108606 -13.50740623 0.25098039 0.27450980 0.65882353
v -0.11992458 0.21168356 -13.51473999 0.25098039 0.27450980 0.65882353
v -0.12332363 0.20380268 -13.50927830 0.25098039 0.27450980 0.65882353
v -0.09854539 0.19250612 -13.48795891 0.25098039 0.27450980 0.65882353
v -0.10861668 0.19346708 -13.49719715 0.25098039 0.27450980 0.65882353
v -0.09502602 0.19711336 -13.49101067 0.25098039 0.27450980 0.65882353
v -0.08457586 0.19941795 -13.47719574 0.25098039 0.27450980 0.65882353
v -0.08973868 0.19457352 -13.47787189 0.25098039 0.27450980 0.65882353
v -0.07951739 0.19789608 -13.46848392 0.25098039 0.27450980 0.65882353
v -0.08520624 0.20935862 -13.47346210 0.25098039 0.27450980 0.65882353
v -0.08054434 0.20198238 -13.45959663 0.25098039 0.27450980 0.65882353
v -0.10376854 0.21381530 -13.44615746 0.25098039 0.27450980 0.65882353
v -0.11491372 0.21163723 -13.43940449 0.25098039 0.27450980 0.65882353
v -0.10639609 0.19996391 -13.43369770 0.25098039 0.27450980 0.65882353
v -0.09598553 0.20301925 -13.44170189 0.25098039 0.27450980 0.65882353
v -0.12603627 0.19709171 -13.43059921 0.25098039 0.27450980 0.65882353
v -0.11479191 0.19810593 -13.43163490 0.25098039 0.27450980 0.65882353
v -0.12305288 0.21061015 -13.43661976 0.25098039 0.27450980 0.65882353
v -0.13287143 0.20924670 -13.43530560 0.25098039 0.27450980 0.65882353
v -0.12675801 0.20100372 -13.46813107 0.25098039 0.27450980 0.65882353
v -0.13480249 0.20569554 -13.47204876 0.25098039 0.27450980 0.65882353
v -0.12916668 0.20483296 -13.47398376 0.25098039 0.27450980 0.65882353
v -0.12167855 0.20101389 -13.47079277 0.25098039 0.27450980 0.65882353
v -0.09327328 0.20281647 -13.50485706 0.25098039 0.27450980 0.65882353
v -0.09243512 0.21246493 -13.49451256 0.25098039 0.27450980 0.65882353
v -0.09131403 0.20511027 -13.49146366 0.25098039 0.27450980 0.65882353
v -0.09617892 0.19822626 -13.50408173 0.25098039 0.27450980 0.65882353
v -0.15948974 0.21719271 -13.48018932 0.25098039 0.27450980 0.65882353
v -0.16379946 0.23037106 -13.48107052 0.25098039 0.27450980 0.65882353
v -0.15897876 0.23238911 -13.48359394 0.25098039 0.27450980 0.65882353
v -0.15623276 0.21994993 -13.48178864 0.25098039 0.27450980 0.65882353
v -0.14250371 0.23104948 -13.49719238 0.25098039 0.27450980 0.65882353
v -0.14607090 0.23915341 -13.49329185 0.25098039 0.27450980 0.65882353
v -0.13871875 0.25142187 -13.49362564 0.25098039 0.27450980 0.65882353
v -0.13272101 0.24479029 -13.49641514 0.25098039 0.27450980 0.65882353
v -0.13661075 0.22492917 -13.50227356 0.25098039 0.27450980 0.65882353
v -0.12915176 0.23654917 -13.50282192 0.25098039 0.27450980 0.65882353
v -0.12337799 0.23062074 -13.50833321 0.25098039 0.27450980 0.65882353
v -0.11426841 0.21883281 -13.51660347 0.25098039 0.27450980 0.65882353
v -0.17274448 0.22757120 -13.47253418 0.25098039 0.27450980 0.65882353
v -0.17160928 0.21775264 -13.47075462 0.25098039 0.27450980 0.65882353
v -0.05445457 0.15803383 -13.45955849 0.25098039 0.27450980 0.65882353
v -0.05842136 0.15472257 -13.45694542 0.25098039 0.27450980 0.65882353
v -0.06048663 0.15835735 -13.45698357 0.25098039 0.27450980 0.65882353
v -0.05625279 0.16116519 -13.45918655 0.25098039 0.27450980 0.65882353
v -0.17272580 0.22689542 -13.45256615 0.25098039 0.27450980 0.65882353
v -0.16754028 0.23199274 -13.44541168 0.25098039 0.27450980 0.65882353
v -0.17221066 0.23604035 -13.44813538 0.25098039 0.27450980 0.65882353
v -0.17562780 0.23257107 -13.45583248 0.25098039 0.27450980 0.65882353
v -0.16847207 0.21938159 -13.44798183 0.25098039 0.27450980 0.65882353
v -0.16095647 0.22591975 -13.44210339 0.25098039 0.27450980 0.65882353
v -0.04525606 0.15957838 -13.45130539 0.25098039 0.27450980 0.65882353
v -0.04673997 0.15991187 -13.45614147 0.25098039 0.27450980 0.65882353
v -0.04835588 0.16431481 -13.45444107 0.25098039 0.27450980 0.65882353
v -0.04754148 0.16436642 -13.44919014 0.25098039 0.27450980 0.65882353
v -0.09684619 0.19256914 -13.47629261 0.25098039 0.27450980 0.65882353
v -0.10546622 0.19269602 -13.47258472 0.25098039 0.27450980 0.65882353
v -0.08548290 0.18092188 -13.46577740 0.25098039 0.27450980 0.65882353
v -0.09402305 0.18618040 -13.46729851 0.25098039 0.27450980 0.65882353
v -0.08905508 0.18993467 -13.47105408 0.25098039 0.27450980 0.65882353
v -0.08200258 0.18637283 -13.46828079 0.25098039 0.27450980 0.65882353
v -0.11498025 0.18444629 -13.45688629 0.25098039 0.27450980 0.65882353
v -0.12203601 0.19282171 -13.46154594 0.25098039 0.27450980 0.65882353
v -0.11585940 0.19370653 -13.46377563 0.25098039 0.27450980 0.65882353
v -0.10715881 0.18421336 -13.46026230 0.25098039 0.27450980 0.65882353
v -0.13449609 0.18822500 -13.45742798 0.25098039 0.27450980 0.65882353
v -0.12658252 0.18062337 -13.45312405 0.25098039 0.27450980 0.65882353
v -0.13481134 0.17899594 -13.45149231 0.25098039 0.27450980 0.65882353
v -0.13933413 0.18420112 -13.45545006 0.25098039 0.27450980 0.65882353
v -0.10973407 0.16860633 -13.44537163 0.25098039 0.27450980 0.65882353
v -0.10343683 0.16514292 -13.43988991 0.25098039 0.27450980 0.65882353
v -0.10562725 0.16404706 -13.43790627 0.25098039 0.27450980 0.65882353
v -0.11268383 0.16809672 -13.44402981 0.25098039 0.27450980 0.65882353
v -0.17598929 0.24100056 -13.44972515 0.25098039 0.27450980 0.65882353
v -0.17714685 0.23849908 -13.45855808 0.25098039 0.27450980 0.65882353
v -0.14567259 0.19199488 -13.42982101 0.25098039 0.27450980 0.65882353
v -0.15521684 0.18976304 -13.43474770 0.25098039 0.27450980 0.65882353
v -0.15072581 0.17879108 -13.42996788 0.25098039 0.27450980 0.65882353
v -0.14238063 0.18404718 -13.42621231 0.25098039 0.27450980 0.65882353
v -0.15874220 0.23640364 -13.44246483 0.25098039 0.27450980 0.65882353
v -0.16455130 0.24040568 -13.44340992 0.25098039 0.27450980 0.65882353
v -0.04662895 0.15737200 -13.44591141 0.25098039 0.27450980 0.65882353
v -0.04884727 0.16203746 -13.44385719 0.25098039 0.27450980 0.65882353
v -0.11525032 0.23729575 -13.50028610 0.25098039 0.27450980 0.65882353
v -0.10652909 0.22349261 -13.51225567 0.25098039 0.27450980 0.65882353
v -0.12261093 0.24604726 -13.49279022 0.25098039 0.27450980 0.65882353
v -0.12735836 0.25223675 -13.48767185 0.25098039 0.27450980 0.65882353
v -0.13176621 0.25825229 -13.48608780 0.25098039 0.27450980 0.65882353
v -0.09594627 0.18110929 -13.46267033 0.25098039 0.27450980 0.65882353
v -0.11371787 0.19588193 -13.46907139 0.25098039 0.27450980 0.65882353
v -0.13136274 0.19980000 -13.46589947 0.25098039 0.27450980 0.65882353
v -0.15703510 0.18688929 -13.45580482 0.25098039 0.27450980 0.65882353
v -0.16322282 0.19483295 -13.46010494 0.25098039 0.27450980 0.65882353
v -0.15289527 0.19429554 -13.46394062 0.25098039 0.27450980 0.65882353
v -0.14958028 0.18757778 -13.45886517 0.25098039 0.27450980 0.65882353
v -0.15875995 0.18394028 -13.44076729 0.25098039 0.27450980 0.65882353
v -0.15548643 0.18010662 -13.44657707 0.25098039 0.27450980 0.65882353
v -0.15054828 0.17299886 -13.44330978 0.25098039 0.27450980 0.65882353
v -0.15351556 0.17571709 -13.43715286 0.25098039 0.27450980 0.65882353
v -0.09193085 0.20731537 -13.51015663 0.25098039 0.27450980 0.65882353
v -0.09362584 0.21825746 -13.49774075 0.25098039 0.27450980 0.65882353
v -0.17482802 0.22244048 -13.46161270 0.25098039 0.27450980 0.65882353
v -0.17570025 0.22906573 -13.46534157 0.25098039 0.27450980 0.65882353
v -0.17687628 0.23761922 -13.46576786 0.25098039 0.27450980 0.65882353
v -0.14680266 0.21111882 -13.47689629 0.25098039 0.27450980 0.65882353
v -0.15410987 0.22176483 -13.48296547 0.25098039 0.27450980 0.65882353
v -0.15116099 0.22166759 -13.48531914 0.25098039 0.27450980 0.65882353
v -0.14398506 0.21096493 -13.47746468 0.25098039 0.27450980 0.65882353
v -0.13105997 0.20516254 -13.48738289 0.25098039 0.27450980 0.65882353
v -0.13950366 0.21455212 -13.49306393 0.25098039 0.27450980 0.65882353
v -0.12475731 0.20047805 -13.49656487 0.25098039 0.27450980 0.65882353
v -0.15382105 0.23634085 -13.48775387 0.25098039 0.27450980 0.65882353
v -0.16266811 0.24181841 -13.48555660 0.25098039 0.27450980 0.65882353
v -0.15578789 0.24548855 -13.48935795 0.25098039 0.27450980 0.65882353
v -0.16963045 0.23944402 -13.47948265 0.25098039 0.27450980 0.65882353
v -0.17434637 0.23764659 -13.47239590 0.25098039 0.27450980 0.65882353
v -0.16896768 0.24608153 -13.44177437 0.25098039 0.27450980 0.65882353
v -0.14861068 0.24888568 -13.49188805 0.25098039 0.27450980 0.65882353
v -0.11668441 0.19903684 -13.51398277 0.25098039 0.27450980 0.65882353
v -0.11089417 0.19413994 -13.51724339 0.25098039 0.27450980 0.65882353
v -0.10823783 0.19161737 -13.51079273 0.25098039 0.27450980 0.65882353
v -0.11356574 0.19516234 -13.50714684 0.25098039 0.27450980 0.65882353
v -0.07385108 0.19380540 -13.46157646 0.25098039 0.27450980 0.65882353
v -0.07711112 0.18964280 -13.46673965 0.25098039 0.27450980 0.65882353
v -0.08347641 0.19435267 -13.47297001 0.25098039 0.27450980 0.65882353
v -0.15778308 0.20809384 -13.47389126 0.25098039 0.27450980 0.65882353
v -0.16886982 0.20857182 -13.46607971 0.25098039 0.27450980 0.65882353
v -0.08644462 0.17619020 -13.46069908 0.25098039 0.27450980 0.65882353
v -0.05087399 0.16899414 -13.44891071 0.25098039 0.27450980 0.65882353
v -0.05151741 0.16891773 -13.45461082 0.25098039 0.27450980 0.65882353
v -0.06419632 0.18280777 -13.45787334 0.25098039 0.27450980 0.65882353
v -0.06321894 0.18323639 -13.45099735 0.25098039 0.27450980 0.65882353
v -0.08046083 0.17237803 -13.45081902 0.25098039 0.27450980 0.65882353
v -0.08187547 0.17305700 -13.45758343 0.25098039 0.27450980 0.65882353
v -0.07909206 0.17208162 -13.45540619 0.25098039 0.27450980 0.65882353
v -0.07810976 0.16897878 -13.44962502 0.25098039 0.27450980 0.65882353
v -0.11463150 0.16336867 -13.43845940 0.25098039 0.27450980 0.65882353
v -0.12075295 0.16718528 -13.44322205 0.25098039 0.27450980 0.65882353
v -0.08857857 0.18924865 -13.43834114 0.25098039 0.27450980 0.65882353
v -0.07996407 0.19737780 -13.44476509 0.25098039 0.27450980 0.65882353
v -0.08693527 0.20521261 -13.44937229 0.25098039 0.27450980 0.65882353
v -0.12192363 0.18311486 -13.45475388 0.25098039 0.27450980 0.65882353
v -0.11604336 0.17504774 -13.45030308 0.25098039 0.27450980 0.65882353
v -0.11957753 0.17396374 -13.44877625 0.25098039 0.27450980 0.65882353
v -0.09559451 0.17778486 -13.45885944 0.25098039 0.27450980 0.65882353
v -0.08819288 0.17352769 -13.45553970 0.25098039 0.27450980 0.65882353
v -0.09422481 0.17415375 -13.45413494 0.25098039 0.27450980 0.65882353
v -0.10069400 0.17833808 -13.45645237 0.25098039 0.27450980 0.65882353
v -0.16062623 0.20118871 -13.43832397 0.25098039 0.27450980 0.65882353
v -0.16511279 0.19445935 -13.44508553 0.25098039 0.27450980 0.65882353
v -0.05014180 0.15959802 -13.45921516 0.25098039 0.27450980 0.65882353
v -0.05174825 0.16342431 -13.45815945 0.25098039 0.27450980 0.65882353
v -0.12852502 0.19141556 -13.45899391 0.25098039 0.27450980 0.65882353
v -0.09485048 0.21409532 -13.45511818 0.25098039 0.27450980 0.65882353
v -0.13606584 0.19814655 -13.46431255 0.25098039 0.27450980 0.65882353
v -0.12562232 0.17599776 -13.42469883 0.25098039 0.27450980 0.65882353
v -0.12814590 0.16962346 -13.42876911 0.25098039 0.27450980 0.65882353
v -0.12341137 0.16574413 -13.42701054 0.25098039 0.27450980 0.65882353
v -0.12135770 0.16951196 -13.42219257 0.25098039 0.27450980 0.65882353
v -0.06698196 0.15823916 -13.44691277 0.25098039 0.27450980 0.65882353
v -0.06691797 0.15799581 -13.45259571 0.25098039 0.27450980 0.65882353
v -0.06317097 0.15553901 -13.45198441 0.25098039 0.27450980 0.65882353
v -0.06277622 0.15498993 -13.44624424 0.25098039 0.27450980 0.65882353
v -0.08021386 0.17622262 -13.46221828 0.25098039 0.27450980 0.65882353
v -0.07704166 0.18133733 -13.46508026 0.25098039 0.27450980 0.65882353
v -0.07318351 0.17641336 -13.46301937 0.25098039 0.27450980 0.65882353
v -0.07646394 0.17345692 -13.45932579 0.25098039 0.27450980 0.65882353
v -0.07205695 0.18493922 -13.46329498 0.25098039 0.27450980 0.65882353
v -0.06823935 0.18040299 -13.46241856 0.25098039 0.27450980 0.65882353
v -0.06350385 0.16069528 -13.44198036 0.25098039 0.27450980 0.65882353
v -0.05732292 0.16458254 -13.44036484 0.25098039 0.27450980 0.65882353
v -0.06987642 0.17671907 -13.44138432 0.25098039 0.27450980 0.65882353
v -0.07371962 0.17032425 -13.44379997 0.25098039 0.27450980 0.65882353
v -0.13860893 0.22173001 -13.43918610 0.25098039 0.27450980 0.65882353
v -0.14875014 0.21838272 -13.43743229 0.25098039 0.27450980 0.65882353
v -0.14287730 0.20577708 -13.43375683 0.25098039 0.27450980 0.65882353
v -0.13738066 0.19390382 -13.42945576 0.25098039 0.27450980 0.65882353
v -0.13152397 0.18202999 -13.42609406 0.25098039 0.27450980 0.65882353
v -0.12101831 0.18686730 -13.42534828 0.25098039 0.27450980 0.65882353
v -0.15054829 0.20415658 -13.43400478 0.25098039 0.27450980 0.65882353
v -0.08400762 0.17643309 -13.44295692 0.25098039 0.27450980 0.65882353
v -0.07919097 0.18454322 -13.44193935 0.25098039 0.27450980 0.65882353
v -0.08511315 0.18248639 -13.43939686 0.25098039 0.27450980 0.65882353
v -0.14254811 0.19495237 -13.46301270 0.25098039 0.27450980 0.65882353
v -0.05471733 0.16732116 -13.45903301 0.25098039 0.27450980 0.65882353
v -0.12752208 0.25368905 -13.46446514 0.25098039 0.27450980 0.65882353
v -0.13513242 0.25154054 -13.45366573 0.25098039 0.27450980 0.65882353
v -0.13085338 0.24502453 -13.45417118 0.25098039 0.27450980 0.65882353
v -0.12228790 0.24716964 -13.46656322 0.25098039 0.27450980 0.65882353
v -0.06432050 0.16038653 -13.45837212 0.25098039 0.27450980 0.65882353
v -0.05960238 0.16385269 -13.46125507 0.25098039 0.27450980 0.65882353
v -0.12571010 0.16439795 -13.44050121 0.25098039 0.27450980 0.65882353
v -0.11981511 0.16210073 -13.43642712 0.25098039 0.27450980 0.65882353
v -0.12136152 0.16177668 -13.43257618 0.25098039 0.27450980 0.65882353
v -0.12862651 0.16121894 -13.43697166 0.25098039 0.27450980 0.65882353
v -0.15448095 0.21766061 -13.43765736 0.25098039 0.27450980 0.65882353
v -0.14873843 0.17149690 -13.42856693 0.25098039 0.27450980 0.65882353
v -0.14138886 0.17648333 -13.42435455 0.25098039 0.27450980 0.65882353
v -0.15335602 0.22959542 -13.44070816 0.25098039 0.27450980 0.65882353
v -0.14443800 0.23257688 -13.44179058 0.25098039 0.27450980 0.65882353
v -0.14876458 0.24023515 -13.44311237 0.25098039 0.27450980 0.65882353
v -0.10554469 0.18446794 -13.42759705 0.25098039 0.27450980 0.65882353
v -0.13071689 0.22218990 -13.44093990 0.25098039 0.27450980 0.65882353
v -0.13753015 0.23307645 -13.44416046 0.25098039 0.27450980 0.65882353
v -0.14238730 0.24243283 -13.44566345 0.25098039 0.27450980 0.65882353
v -0.14555404 0.24926773 -13.44566536 0.25098039 0.27450980 0.65882353
v -0.15248632 0.24569255 -13.44346046 0.25098039 0.27450980 0.65882353
v -0.05289732 0.16664320 -13.44349384 0.25098039 0.27450980 0.65882353
v -0.05319574 0.15879001 -13.44010258 0.25098039 0.27450980 0.65882353
v -0.15631622 0.25200152 -13.44196892 0.25098039 0.27450980 0.65882353
v -0.14826426 0.25523114 -13.44503212 0.25098039 0.27450980 0.65882353
v -0.12947063 0.23410451 -13.44790268 0.25098039 0.27450980 0.65882353
v -0.12084496 0.23479497 -13.45360279 0.25098039 0.27450980 0.65882353
v -0.12304722 0.22379057 -13.44382477 0.25098039 0.27450980 0.65882353
v -0.11331433 0.22401060 -13.44917965 0.25098039 0.27450980 0.65882353
v -0.09810422 0.19129655 -13.42954826 0.25098039 0.27450980 0.65882353
v -0.05047482 0.14247626 -13.44591141 0.25098039 0.27450980 0.65882353
v -0.05610584 0.15152973 -13.44257355 0.25098039 0.27450980 0.65882353
v -0.06017029 0.15093878 -13.44657230 0.25098039 0.27450980 0.65882353
v -0.05443279 0.14158444 -13.44773293 0.25098039 0.27450980 0.65882353
v -0.05934811 0.15630919 -13.44184113 0.25098039 0.27450980 0.65882353
v -0.05096094 0.15439744 -13.44206715 0.25098039 0.27450980 0.65882353
v -0.10329100 0.22419894 -13.46061325 0.25098039 0.27450980 0.65882353
v -0.08795936 0.17093012 -13.44965553 0.25098039 0.27450980 0.65882353
v -0.11120489 0.23581959 -13.46879482 0.25098039 0.27450980 0.65882353
v -0.09223351 0.21972340 -13.47607040 0.25098039 0.27450980 0.65882353
v -0.09954175 0.22727260 -13.48355484 0.25098039 0.27450980 0.65882353
v -0.11844699 0.24822800 -13.47825050 0.25098039 0.27450980 0.65882353
v -0.10903862 0.23912828 -13.48790646 0.25098039 0.27450980 0.65882353
v -0.12958547 0.25979137 -13.47573376 0.25098039 0.27450980 0.65882353
v -0.12433984 0.25371909 -13.47573662 0.25098039 0.27450980 0.65882353
v -0.10153273 0.22912526 -13.49967003 0.25098039 0.27450980 0.65882353
v -0.05259095 0.14789638 -13.46081638 0.25098039 0.27450980 0.65882353
v -0.05653806 0.14547943 -13.45742702 0.25098039 0.27450980 0.65882353
v -0.13147250 0.26001766 -13.46421719 0.25098039 0.27450980 0.65882353
v -0.11826371 0.19752079 -13.50306988 0.25098039 0.27450980 0.65882353
v -0.14745001 0.20237502 -13.46895981 0.25098039 0.27450980 0.65882353
v -0.14220300 0.20381784 -13.47022533 0.25098039 0.27450980 0.65882353
v -0.16604894 0.20028834 -13.46203613 0.25098039 0.27450980 0.65882353
v -0.15479815 0.20092458 -13.46805954 0.25098039 0.27450980 0.65882353
v -0.04756208 0.14983734 -13.46127415 0.25098039 0.27450980 0.65882353
v -0.09963468 0.16495636 -13.43399048 0.25098039 0.27450980 0.65882353
v -0.10218169 0.16645284 -13.43366051 0.25098039 0.27450980 0.65882353
v -0.11468521 0.20499156 -13.51932812 0.25098039 0.27450980 0.65882353
v -0.11037597 0.19975825 -13.52206993 0.25098039 0.27450980 0.65882353
v -0.09940192 0.20652159 -13.52233505 0.25098039 0.27450980 0.65882353
v -0.10552540 0.20387104 -13.52445221 0.25098039 0.27450980 0.65882353
v -0.10924242 0.21106781 -13.52139282 0.25098039 0.27450980 0.65882353
v -0.10293786 0.21436872 -13.51904202 0.25098039 0.27450980 0.65882353
v -0.14871526 0.21024325 -13.47661209 0.25098039 0.27450980 0.65882353
v -0.15185948 0.20900309 -13.47557831 0.25098039 0.27450980 0.65882353
v -0.16501369 0.21087334 -13.44322300 0.25098039 0.27450980 0.65882353
v -0.16876024 0.20405073 -13.45053196 0.25098039 0.27450980 0.65882353
v -0.06928357 0.18816333 -13.45841503 0.25098039 0.27450980 0.65882353
v -0.07426272 0.19577742 -13.45318222 0.25098039 0.27450980 0.65882353
v -0.06911805 0.18913433 -13.45132446 0.25098039 0.27450980 0.65882353
v -0.06634893 0.18229353 -13.44468117 0.25098039 0.27450980 0.65882353
v -0.08383739 0.17159683 -13.44555473 0.25098039 0.27450980 0.65882353
v -0.07927337 0.17480594 -13.44577980 0.25098039 0.27450980 0.65882353
v -0.14581206 0.21722427 -13.48872185 0.25098039 0.27450980 0.65882353
v -0.13790381 0.20869243 -13.48012257 0.25098039 0.27450980 0.65882353
v -0.10608487 0.19391552 -13.50151443 0.25098039 0.27450980 0.65882353
v -0.10239492 0.19288000 -13.50539589 0.25098039 0.27450980 0.65882353
v -0.10836381 0.17829598 -13.45399952 0.25098039 0.27450980 0.65882353
v -0.09663852 0.17613858 -13.42680454 0.25098039 0.27450980 0.65882353
v -0.09095870 0.18160260 -13.42863846 0.25098039 0.27450980 0.65882353
v -0.10192308 0.17239143 -13.45005226 0.25098039 0.27450980 0.65882353
v -0.04153380 0.14916657 -13.45486355 0.25098039 0.27450980 0.65882353
v -0.04409042 0.14995235 -13.45929050 0.25098039 0.27450980 0.65882353
v -0.07266404 0.18875019 -13.44490910 0.25098039 0.27450980 0.65882353
v -0.12747268 0.17135973 -13.44785500 0.25098039 0.27450980 0.65882353
v -0.10556997 0.17780992 -13.42706013 0.25098039 0.27450980 0.65882353
v -0.09865886 0.16954824 -13.42832088 0.25098039 0.27450980 0.65882353
v -0.15032649 0.17077434 -13.43621159 0.25098039 0.27450980 0.65882353
v -0.13903055 0.25812569 -13.45410919 0.25098039 0.27450980 0.65882353
v -0.06117484 0.15145785 -13.45213509 0.25098039 0.27450980 0.65882353
v -0.05800815 0.14351061 -13.45287800 0.25098039 0.27450980 0.65882353
v -0.04680729 0.14475030 -13.44591618 0.25098039 0.27450980 0.65882353
v -0.04282367 0.14802359 -13.44897652 0.25098039 0.27450980 0.65882353
v -0.17151266 0.21226069 -13.45665836 0.25098039 0.27450980 0.65882353
v -0.13902202 0.20492096 -13.47044659 0.25098039 0.27450980 0.65882353
v -0.09738724 0.21884568 -13.50970459 0.25098039 0.27450980 0.65882353
v -0.09451081 0.20800900 -13.51706123 0.25098039 0.27450980 0.65882353
v -0.09759854 0.16863987 -13.44667530 0.25098039 0.27450980 0.65882353
v -0.13300872 0.17474583 -13.42615414 0.25098039 0.27450980 0.65882353
v -0.11726505 0.17920586 -13.42235565 0.25098039 0.27450980 0.65882353
v -0.11373214 0.17263289 -13.41915131 0.25098039 0.27450980 0.65882353
v -0.10644925 0.17152104 -13.42157555 0.25098039 0.27450980 0.65882353
v -0.10185048 0.16774839 -13.42645073 0.25098039 0.27450980 0.65882353
v -0.04572614 0.13947609 -13.44822598 0.25098039 0.27450980 0.65882353
v -0.04172044 0.14288947 -13.45106888 0.25098039 0.27450980 0.65882353
v -0.04051663 0.14448558 -13.45676231 0.25098039 0.27450980 0.65882353
v -0.04277320 0.14605026 -13.46054268 0.25098039 0.27450980 0.65882353
v -0.04691549 0.14664979 -13.46196938 0.25098039 0.27450980 0.65882353
v -0.04948354 0.13715073 -13.44868183 0.25098039 0.27450980 0.65882353
v -0.05298235 0.13687246 -13.45065308 0.25098039 0.27450980 0.65882353
v -0.05666608 0.14036140 -13.45389652 0.25098039 0.27450980 0.65882353
v -0.05032432 0.13333334 -13.45212269 0.25098039 0.27450980 0.65882353
v -0.04526412 0.13216336 -13.45335293 0.25098039 0.27450980 0.65882353
v -0.04192306 0.13424687 -13.46677303 0.25098039 0.27450980 0.65882353
v -0.04046760 0.13727626 -13.46170807 0.25098039 0.27450980 0.65882353
v -0.04070528 0.13453305 -13.46187878 0.25098039 0.27450980 0.65882353
v -0.04191333 0.13131788 -13.46564579 0.25098039 0.27450980 0.65882353
v -0.04275091 0.12684870 -13.46831036 0.25098039 0.27450980 0.65882353
v -0.04279512 0.12967205 -13.47036552 0.25098039 0.27450980 0.65882353
v -0.04175788 0.13419919 -13.45730686 0.25098039 0.27450980 0.65882353
v -0.04317996 0.12916926 -13.46177578 0.25098039 0.27450980 0.65882353
v -0.04588196 0.12740761 -13.45919704 0.25098039 0.27450980 0.65882353
v -0.04614019 0.12306349 -13.46294689 0.25098039 0.27450980 0.65882353
v -0.04362443 0.12442733 -13.46521091 0.25098039 0.27450980 0.65882353
v -0.04457977 0.13084605 -13.45625305 0.25098039 0.27450980 0.65882353
v -0.04100831 0.13595587 -13.45537949 0.25098039 0.27450980 0.65882353
v -0.04404876 0.12519766 -13.47138214 0.25098039 0.27450980 0.65882353
v -0.04314935 0.12395154 -13.46945286 0.25098039 0.27450980 0.65882353
v -0.04443122 0.12211924 -13.46738052 0.25098039 0.27450980 0.65882353
v -0.04604661 0.12092051 -13.46974754 0.25098039 0.27450980 0.65882353
v -0.04296315 0.14224224 -13.46321487 0.25098039 0.27450980 0.65882353
v -0.04343770 0.13565418 -13.46836567 0.25098039 0.27450980 0.65882353
v -0.04555780 0.13067493 -13.47124958 0.25098039 0.27450980 0.65882353
v -0.04660159 0.12616038 -13.47211075 0.25098039 0.27450980 0.65882353
v -0.04742576 0.13532218 -13.46920681 0.25098039 0.27450980 0.65882353
v -0.04845314 0.13098297 -13.47099686 0.25098039 0.27450980 0.65882353
v -0.04965030 0.12712312 -13.47134972 0.25098039 0.27450980 0.65882353
v -0.05141455 0.13422234 -13.46858215 0.25098039 0.27450980 0.65882353
v -0.05138381 0.13035865 -13.46999836 0.25098039 0.27450980 0.65882353
v -0.05065612 0.14347807 -13.46251202 0.25098039 0.27450980 0.65882353
v -0.04676038 0.14482312 -13.46334743 0.25098039 0.27450980 0.65882353
v -0.05166224 0.12791508 -13.47089005 0.25098039 0.27450980 0.65882353
v -0.04822896 0.12136490 -13.47022152 0.25098039 0.27450980 0.65882353
v -0.04878774 0.12810665 -13.45706081 0.25098039 0.27450980 0.65882353
v -0.04932459 0.12344949 -13.46264458 0.25098039 0.27450980 0.65882353
v -0.05120198 0.12844381 -13.45719814 0.25098039 0.27450980 0.65882353
v -0.05171359 0.12356789 -13.46237278 0.25098039 0.27450980 0.65882353
v -0.04863615 0.12006117 -13.46581268 0.25098039 0.27450980 0.65882353
v -0.04640377 0.12128426 -13.46548271 0.25098039 0.27450980 0.65882353
v -0.05196156 0.14583084 -13.46079540 0.25098039 0.27450980 0.65882353
v -0.05592667 0.14313444 -13.45731258 0.25098039 0.27450980 0.65882353
v -0.05503552 0.14094058 -13.45885181 0.25098039 0.27450980 0.65882353
v -0.05488466 0.13248295 -13.46583271 0.25098039 0.27450980 0.65882353
v -0.05618145 0.13791214 -13.45617294 0.25098039 0.27450980 0.65882353
v -0.05367805 0.13360846 -13.45416451 0.25098039 0.27450980 0.65882353
v -0.05366552 0.12850013 -13.45898724 0.25098039 0.27450980 0.65882353
v -0.05540583 0.12986718 -13.46153736 0.25098039 0.27450980 0.65882353
v -0.05363867 0.12485850 -13.46315289 0.25098039 0.27450980 0.65882353
v -0.05430932 0.12659898 -13.46479511 0.25098039 0.27450980 0.65882353
v -0.05388892 0.12868568 -13.46796036 0.25098039 0.27450980 0.65882353
v -0.05266555 0.12297777 -13.46679211 0.25098039 0.27450980 0.65882353
v -0.05063240 0.12093496 -13.46623230 0.25098039 0.27450980 0.65882353
v -0.05084732 0.12365070 -13.46995449 0.25098039 0.27450980 0.65882353
v -0.05367450 0.12470138 -13.46690559 0.25098039 0.27450980 0.65882353
v -0.05220233 0.12590811 -13.46920395 0.25098039 0.27450980 0.65882353
v -0.07303002 0.14168088 -13.43840694 0.25098039 0.27450980 0.65882353
v -0.07801302 0.13911802 -13.43523788 0.25098039 0.27450980 0.65882353
v -0.07896926 0.14421909 -13.43474483 0.25098039 0.27450980 0.65882353
v -0.07471566 0.14591707 -13.43759346 0.25098039 0.27450980 0.65882353
v -0.06372516 0.14517242 -13.42928123 0.25098039 0.27450980 0.65882353
v -0.06551421 0.14433819 -13.43476486 0.25098039 0.27450980 0.65882353
v -0.06645425 0.14947660 -13.43356609 0.25098039 0.27450980 0.65882353
v -0.06572962 0.15048312 -13.42718124 0.25098039 0.27450980 0.65882353
v -0.06666976 0.14429036 -13.42318344 0.25098039 0.27450980 0.65882353
v -0.06898382 0.14981878 -13.42119312 0.25098039 0.27450980 0.65882353
v -0.06766182 0.15563276 -13.42732143 0.25098039 0.27450980 0.65882353
v -0.06897554 0.15445672 -13.43420124 0.25098039 0.27450980 0.65882353
v -0.08065778 0.17113087 -13.43955421 0.25098039 0.27450980 0.65882353
v -0.07972531 0.17314526 -13.43272495 0.25098039 0.27450980 0.65882353
v -0.09607984 0.16250099 -13.43798923 0.25098039 0.27450980 0.65882353
v -0.09552582 0.16229391 -13.43403625 0.25098039 0.27450980 0.65882353
v -0.06932637 0.14302105 -13.43784618 0.25098039 0.27450980 0.65882353
v -0.07042153 0.14763905 -13.43672276 0.25098039 0.27450980 0.65882353
v -0.08574176 0.14590055 -13.42839146 0.25098039 0.27450980 0.65882353
v -0.08482768 0.14596897 -13.43371391 0.25098039 0.27450980 0.65882353
v -0.08222380 0.14216715 -13.43189240 0.25098039 0.27450980 0.65882353
v -0.08237278 0.14193799 -13.42627907 0.25098039 0.27450980 0.65882353
v -0.08727235 0.16763362 -13.44417381 0.25098039 0.27450980 0.65882353
v -0.09270963 0.16541520 -13.44170761 0.25098039 0.27450980 0.65882353
v -0.08362386 0.16880950 -13.44293118 0.25098039 0.27450980 0.65882353
v -0.08373557 0.14756908 -13.42232323 0.25098039 0.27450980 0.65882353
v -0.07868987 0.15093750 -13.41888523 0.25098039 0.27450980 0.65882353
v -0.08926846 0.16795577 -13.42317772 0.25098039 0.27450980 0.65882353
v -0.09334432 0.16387624 -13.42600250 0.25098039 0.27450980 0.65882353
v -0.07214193 0.15213171 -13.43817520 0.25098039 0.27450980 0.65882353
v -0.08125642 0.14730975 -13.43761253 0.25098039 0.27450980 0.65882353
v -0.07686970 0.14937976 -13.43966389 0.25098039 0.27450980 0.65882353
v -0.07220319 0.15464859 -13.42161369 0.25098039 0.27450980 0.65882353
v -0.07499245 0.14539164 -13.41889286 0.25098039 0.27450980 0.65882353
v -0.07281801 0.12583964 -13.42477894 0.25098039 0.27450980 0.65882353
v -0.07746206 0.13735348 -13.42206669 0.25098039 0.27450980 0.65882353
v -0.08007865 0.13651529 -13.42639160 0.25098039 0.27450980 0.65882353
v -0.07618208 0.12453304 -13.42818546 0.25098039 0.27450980 0.65882353
v -0.07999408 0.14273135 -13.42131710 0.25098039 0.27450980 0.65882353
v -0.07242261 0.14033936 -13.42059612 0.25098039 0.27450980 0.65882353
v -0.07060008 0.12705734 -13.44085598 0.25098039 0.27450980 0.65882353
v -0.07562290 0.12475137 -13.43747044 0.25098039 0.27450980 0.65882353
v -0.06615001 0.12846407 -13.44100189 0.25098039 0.27450980 0.65882353
v -0.08346662 0.17225799 -13.42575932 0.25098039 0.27450980 0.65882353
v -0.06025685 0.13183974 -13.43300724 0.25098039 0.27450980 0.65882353
v -0.06274521 0.13027157 -13.43894672 0.25098039 0.27450980 0.65882353
v -0.08082141 0.13723469 -13.43136120 0.25098039 0.27450980 0.65882353
v -0.07737179 0.12377422 -13.43281174 0.25098039 0.27450980 0.65882353
v -0.06861235 0.12776674 -13.42396736 0.25098039 0.27450980 0.65882353
v -0.06296988 0.13183296 -13.42668438 0.25098039 0.27450980 0.65882353
v -0.06711239 0.12206168 -13.42603683 0.25098039 0.27450980 0.65882353
v -0.06187938 0.12492462 -13.42883110 0.25098039 0.27450980 0.65882353
v -0.05950348 0.12555572 -13.43499088 0.25098039 0.27450980 0.65882353
v -0.06246774 0.12550142 -13.44004631 0.25098039 0.27450980 0.65882353
v -0.06596535 0.12513965 -13.44174671 0.25098039 0.27450980 0.65882353
v -0.07109632 0.12035387 -13.42685413 0.25098039 0.27450980 0.65882353
v -0.07459202 0.11960113 -13.42982388 0.25098039 0.27450980 0.65882353
v -0.07627177 0.12132041 -13.43405819 0.25098039 0.27450980 0.65882353
v -0.07193743 0.11413506 -13.43095112 0.25098039 0.27450980 0.65882353
v -0.06737258 0.11378676 -13.43033981 0.25098039 0.27450980 0.65882353
v -0.06265520 0.10811955 -13.44746494 0.25098039 0.27450980 0.65882353
v -0.06150448 0.11305273 -13.44397449 0.25098039 0.27450980 0.65882353
v -0.06149736 0.11131263 -13.44195366 0.25098039 0.27450980 0.65882353
v -0.06262894 0.10676843 -13.44495583 0.25098039 0.27450980 0.65882353
v -0.05966018 0.11677922 -13.43906498 0.25098039 0.27450980 0.65882353
v -0.06050354 0.11436966 -13.43844509 0.25098039 0.27450980 0.65882353
v -0.06258389 0.11391464 -13.43426418 0.25098039 0.27450980 0.65882353
v -0.06389539 0.10913208 -13.43822479 0.25098039 0.27450980 0.65882353
v -0.06763858 0.10857564 -13.43530655 0.25098039 0.27450980 0.65882353
v -0.06801189 0.10342181 -13.43810749 0.25098039 0.27450980 0.65882353
v -0.06424491 0.10393676 -13.44106102 0.25098039 0.27450980 0.65882353
v -0.06573899 0.11186953 -13.43297386 0.25098039 0.27450980 0.65882353
v -0.06358925 0.10337159 -13.44615746 0.25098039 0.27450980 0.65882353
v -0.06472248 0.10279971 -13.44845867 0.25098039 0.27450980 0.65882353
v -0.06144930 0.11642863 -13.43230629 0.25098039 0.27450980 0.65882353
v -0.06184840 0.12176393 -13.44152069 0.25098039 0.27450980 0.65882353
v -0.06320304 0.11419390 -13.44630909 0.25098039 0.27450980 0.65882353
v -0.06510456 0.10854289 -13.44958496 0.25098039 0.27450980 0.65882353
v -0.06765817 0.10279430 -13.44942284 0.25098039 0.27450980 0.65882353
v -0.06718437 0.11425215 -13.44784451 0.25098039 0.27450980 0.65882353
v -0.06835657 0.10866700 -13.45013332 0.25098039 0.27450980 0.65882353
v -0.07016507 0.10395804 -13.44921017 0.25098039 0.27450980 0.65882353
v -0.07194558 0.11386812 -13.44779205 0.25098039 0.27450980 0.65882353
v -0.07249659 0.10824591 -13.44926548 0.25098039 0.27450980 0.65882353
v -0.07066557 0.12296660 -13.44239521 0.25098039 0.27450980 0.65882353
v -0.06602475 0.12318529 -13.44330883 0.25098039 0.27450980 0.65882353
v -0.07204655 0.10550538 -13.44888973 0.25098039 0.27450980 0.65882353
v -0.06641203 0.09934819 -13.44529057 0.25098039 0.27450980 0.65882353
v -0.06947179 0.09989814 -13.44688797 0.25098039 0.27450980 0.65882353
v -0.06546128 0.10074738 -13.44397449 0.25098039 0.27450980 0.65882353
v -0.06970070 0.10859901 -13.43468857 0.25098039 0.27450980 0.65882353
v -0.07030423 0.10337691 -13.43870258 0.25098039 0.27450980 0.65882353
v -0.07255863 0.10860945 -13.43531513 0.25098039 0.27450980 0.65882353
v -0.07257843 0.10317372 -13.43987751 0.25098039 0.27450980 0.65882353
v -0.06963189 0.09978071 -13.44188595 0.25098039 0.27450980 0.65882353
v -0.06795329 0.10012805 -13.44152927 0.25098039 0.27450980 0.65882353
v -0.07021970 0.12450520 -13.44077015 0.25098039 0.27450980 0.65882353
v -0.07475972 0.12286155 -13.43763542 0.25098039 0.27450980 0.65882353
v -0.07507448 0.12161738 -13.43908978 0.25098039 0.27450980 0.65882353
v -0.07566535 0.11235541 -13.44425297 0.25098039 0.27450980 0.65882353
v -0.07657517 0.11941075 -13.43521881 0.25098039 0.27450980 0.65882353
v -0.07485518 0.11555018 -13.43258381 0.25098039 0.27450980 0.65882353
v -0.07500592 0.10950923 -13.43649292 0.25098039 0.27450980 0.65882353
v -0.07660568 0.11055246 -13.44001484 0.25098039 0.27450980 0.65882353
v -0.07484443 0.10348779 -13.44018269 0.25098039 0.27450980 0.65882353
v -0.07606742 0.10598493 -13.44180584 0.25098039 0.27450980 0.65882353
v -0.07539046 0.10757458 -13.44638538 0.25098039 0.27450980 0.65882353
v -0.07359426 0.10032058 -13.44347858 0.25098039 0.27450980 0.65882353
v -0.07135488 0.09959833 -13.44266701 0.25098039 0.27450980 0.65882353
v -0.07131575 0.10128978 -13.44721222 0.25098039 0.27450980 0.65882353
v -0.07504007 0.10291390 -13.44406796 0.25098039 0.27450980 0.65882353
v -0.07346188 0.10381114 -13.44724369 0.25098039 0.27450980 0.65882353
v -0.09607986 0.14129037 -13.42553329 0.25098039 0.27450980 0.65882353
v -0.10174616 0.13980615 -13.42659855 0.25098039 0.27450980 0.65882353
v -0.10281986 0.14322111 -13.42660236 0.25098039 0.27450980 0.65882353
v -0.09733161 0.14478192 -13.42546654 0.25098039 0.27450980 0.65882353
v -0.09494570 0.14237510 -13.41308880 0.25098039 0.27450980 0.65882353
v -0.09245984 0.14205775 -13.41732597 0.25098039 0.27450980 0.65882353
v -0.09374684 0.14683723 -13.41714382 0.25098039 0.27450980 0.65882353
v -0.09646176 0.14857325 -13.41262341 0.25098039 0.27450980 0.65882353
v -0.09943259 0.13983916 -13.41092014 0.25098039 0.27450980 0.65882353
v -0.10184787 0.14789444 -13.40956593 0.25098039 0.27450980 0.65882353
v -0.09775516 0.15441309 -13.41307831 0.25098039 0.27450980 0.65882353
v -0.09493385 0.15143543 -13.41782379 0.25098039 0.27450980 0.65882353
v -0.10051981 0.16432393 -13.42420864 0.25098039 0.27450980 0.65882353
v -0.10342458 0.16655095 -13.41831207 0.25098039 0.27450980 0.65882353
v -0.09326708 0.14174783 -13.42189980 0.25098039 0.27450980 0.65882353
v -0.09440362 0.14557885 -13.42195797 0.25098039 0.27450980 0.65882353
v -0.11193117 0.14416513 -13.42372704 0.25098039 0.27450980 0.65882353
v -0.10856533 0.14438473 -13.42713547 0.25098039 0.27450980 0.65882353
v -0.10770585 0.14158714 -13.42502594 0.25098039 0.27450980 0.65882353
v -0.11034372 0.14110538 -13.42173100 0.25098039 0.27450980 0.65882353
v -0.10539274 0.16154686 -13.43402672 0.25098039 0.27450980 0.65882353
v -0.11144283 0.16119519 -13.43406296 0.25098039 0.27450980 0.65882353
v -0.10139024 0.16167390 -13.43001556 0.25098039 0.27450980 0.65882353
v -0.11274609 0.14570260 -13.41741562 0.25098039 0.27450980 0.65882353
v -0.11024693 0.14987372 -13.41170120 0.25098039 0.27450980 0.65882353
v -0.11700362 0.16210443 -13.41774368 0.25098039 0.27450980 0.65882353
v -0.11892809 0.15973945 -13.42339611 0.25098039 0.27450980 0.65882353
v -0.09530598 0.14912328 -13.42270184 0.25098039 0.27450980 0.65882353
v -0.10376938 0.14606413 -13.42865849 0.25098039 0.27450980 0.65882353
v -0.09825441 0.14732091 -13.42714214 0.25098039 0.27450980 0.65882353
v -0.10372382 0.15370181 -13.41096020 0.25098039 0.27450980 0.65882353
v -0.10759318 0.14409378 -13.41144085 0.25098039 0.27450980 0.65882353
v -0.10397790 0.12153414 -13.41654873 0.25098039 0.27450980 0.65882353
v -0.10933471 0.13736424 -13.41581821 0.25098039 0.27450980 0.65882353
v -0.10915808 0.13732445 -13.42156124 0.25098039 0.27450980 0.65882353
v -0.10526966 0.12175697 -13.42077637 0.25098039 0.27450980 0.65882353
v -0.11080271 0.14124355 -13.41632652 0.25098039 0.27450980 0.65882353
v -0.10567597 0.13861698 -13.41168308 0.25098039 0.27450980 0.65882353
v -0.09332570 0.12609780 -13.42765522 0.25098039 0.27450980 0.65882353
v -0.09901954 0.12525013 -13.42779446 0.25098039 0.27450980 0.65882353
v -0.09045310 0.12733643 -13.42445660 0.25098039 0.27450980 0.65882353
v -0.11002183 0.16616857 -13.41510677 0.25098039 0.27450980 0.65882353
v -0.11719890 0.15953785 -13.43011856 0.25098039 0.27450980 0.65882353
v -0.08965698 0.12610129 -13.41696835 0.25098039 0.27450980 0.65882353
v -0.08907259 0.12699853 -13.42128372 0.25098039 0.27450980 0.65882353
v -0.10668758 0.13846228 -13.42491531 0.25098039 0.27450980 0.65882353
v -0.10377584 0.12317396 -13.42500877 0.25098039 0.27450980 0.65882353
v -0.10045198 0.12308794 -13.41346550 0.25098039 0.27450980 0.65882353
v -0.09451599 0.12565929 -13.41312504 0.25098039 0.27450980 0.65882353
v -0.09968391 0.11684141 -13.41563702 0.25098039 0.27450980 0.65882353
v -0.09359168 0.11871091 -13.41552353 0.25098039 0.27450980 0.65882353
v -0.08900967 0.11954423 -13.41931152 0.25098039 0.27450980 0.65882353
v -0.08871114 0.12152807 -13.42341423 0.25098039 0.27450980 0.65882353
v -0.09010530 0.12263274 -13.42627621 0.25098039 0.27450980 0.65882353
v -0.10327603 0.11664198 -13.41926289 0.25098039 0.27450980 0.65882353
v -0.10415916 0.11793920 -13.42294407 0.25098039 0.27450980 0.65882353
v -0.10271376 0.12161232 -13.42537975 0.25098039 0.27450980 0.65882353
v -0.10365964 0.11365779 -13.42278576 0.25098039 0.27450980 0.65882353
v -0.09928952 0.11092313 -13.42039204 0.25098039 0.27450980 0.65882353
v -0.09058829 0.10489328 -13.43399143 0.25098039 0.27450980 0.65882353
v -0.09010255 0.10935077 -13.42990780 0.25098039 0.27450980 0.65882353
v -0.09072171 0.10847631 -13.42917538 0.25098039 0.27450980 0.65882353
v -0.09105778 0.10370009 -13.43267441 0.25098039 0.27450980 0.65882353
v -0.08974564 0.11276191 -13.42370319 0.25098039 0.27450980 0.65882353
v -0.09070230 0.11099577 -13.42453289 0.25098039 0.27450980 0.65882353
v -0.09373564 0.11044584 -13.42196274 0.25098039 0.27450980 0.65882353
v -0.09437045 0.10562840 -13.42661572 0.25098039 0.27450980 0.65882353
v -0.10023201 0.10703880 -13.42666626 0.25098039 0.27450980 0.65882353
v -0.09962399 0.10353774 -13.43048096 0.25098039 0.27450980 0.65882353
v -0.09454592 0.10167190 -13.43043327 0.25098039 0.27450980 0.65882353
v -0.09822038 0.10984528 -13.42212486 0.25098039 0.27450980 0.65882353
v -0.09221134 0.10115550 -13.43437195 0.25098039 0.27450980 0.65882353
v -0.09068820 0.10082231 -13.43608379 0.25098039 0.27450980 0.65882353
v -0.09337586 0.11204812 -13.41965866 0.25098039 0.27450980 0.65882353
v -0.08807157 0.11657731 -13.42648029 0.25098039 0.27450980 0.65882353
v -0.08910874 0.11111648 -13.43208218 0.25098039 0.27450980 0.65882353
v -0.08932337 0.10680380 -13.43666267 0.25098039 0.27450980 0.65882353
v -0.09154803 0.10331804 -13.43887615 0.25098039 0.27450980 0.65882353
v -0.09092242 0.11329508 -13.43453789 0.25098039 0.27450980 0.65882353
v -0.09135069 0.10890600 -13.43801880 0.25098039 0.27450980 0.65882353
v -0.09325090 0.10582925 -13.44007874 0.25098039 0.27450980 0.65882353
v -0.09365098 0.11455126 -13.43585014 0.25098039 0.27450980 0.65882353
v -0.09419803 0.11049075 -13.43873310 0.25098039 0.27450980 0.65882353
v -0.09316349 0.12165358 -13.42936039 0.25098039 0.27450980 0.65882353
v -0.08990318 0.11960928 -13.42836285 0.25098039 0.27450980 0.65882353
v -0.09490962 0.10754722 -13.43997002 0.25098039 0.27450980 0.65882353
v -0.09505408 0.09873772 -13.43545532 0.25098039 0.27450980 0.65882353
v -0.09683150 0.10106280 -13.43881607 0.25098039 0.27450980 0.65882353
v -0.09494284 0.10016239 -13.43374443 0.25098039 0.27450980 0.65882353
v -0.10193393 0.10804820 -13.42658043 0.25098039 0.27450980 0.65882353
v -0.10177518 0.10355049 -13.43168640 0.25098039 0.27450980 0.65882353
v -0.10372348 0.10972817 -13.42824459 0.25098039 0.27450980 0.65882353
v -0.10352182 0.10515492 -13.43312550 0.25098039 0.27450980 0.65882353
v -0.09988539 0.10032022 -13.43407536 0.25098039 0.27450980 0.65882353
v -0.09887037 0.10072851 -13.43319988 0.25098039 0.27450980 0.65882353
v -0.09363581 0.12364061 -13.42772102 0.25098039 0.27450980 0.65882353
v -0.09873661 0.12329266 -13.42766953 0.25098039 0.27450980 0.65882353
v -0.09798814 0.12197193 -13.42927551 0.25098039 0.27450980 0.65882353
v -0.09834261 0.11468235 -13.43638706 0.25098039 0.27450980 0.65882353
v -0.10209939 0.12053640 -13.42746258 0.25098039 0.27450980 0.65882353
v -0.10409538 0.11539485 -13.42626762 0.25098039 0.27450980 0.65882353
v -0.10377768 0.11163336 -13.43102455 0.25098039 0.27450980 0.65882353
v -0.10216521 0.11314334 -13.43423939 0.25098039 0.27450980 0.65882353
v -0.10356554 0.10727002 -13.43499851 0.25098039 0.27450980 0.65882353
v -0.10201851 0.10944049 -13.43618011 0.25098039 0.27450980 0.65882353
v -0.09833615 0.11084889 -13.43917084 0.25098039 0.27450980 0.65882353
v -0.10120812 0.10457034 -13.43734741 0.25098039 0.27450980 0.65882353
v -0.10130817 0.10188103 -13.43599415 0.25098039 0.27450980 0.65882353
v -0.09745283 0.10416093 -13.44000626 0.25098039 0.27450980 0.65882353
v -0.10075584 0.10693225 -13.43822479 0.25098039 0.27450980 0.65882353
v -0.09789115 0.10679460 -13.44019508 0.25098039 0.27450980 0.65882353
v -0.11538291 0.16032137 -13.43311882 0.25098039 0.27450980 0.65882353
v -0.13337272 0.13801083 -13.43211174 0.25098039 0.27450980 0.65882353
v -0.13709655 0.13814139 -13.43375301 0.25098039 0.27450980 0.65882353
v -0.13792078 0.14110571 -13.43272114 0.25098039 0.27450980 0.65882353
v -0.13402492 0.14191803 -13.43185711 0.25098039 0.27450980 0.65882353
v -0.13343537 0.13772359 -13.42108631 0.25098039 0.27450980 0.65882353
v -0.13127662 0.13738617 -13.42496777 0.25098039 0.27450980 0.65882353
v -0.13118388 0.14217621 -13.42366695 0.25098039 0.27450980 0.65882353
v -0.13331009 0.14274959 -13.41987133 0.25098039 0.27450980 0.65882353
v -0.13808583 0.13764915 -13.41947269 0.25098039 0.27450980 0.65882353
v -0.13838869 0.14248240 -13.41849327 0.25098039 0.27450980 0.65882353
v -0.13316947 0.14651954 -13.41966438 0.25098039 0.27450980 0.65882353
v -0.13086355 0.14599359 -13.42384338 0.25098039 0.27450980 0.65882353
v -0.12999195 0.16233438 -13.42741489 0.25098039 0.27450980 0.65882353
v -0.13331549 0.16509479 -13.42364311 0.25098039 0.27450980 0.65882353
v -0.14841908 0.16512279 -13.43488789 0.25098039 0.27450980 0.65882353
v -0.14448118 0.16526946 -13.44042587 0.25098039 0.27450980 0.65882353
v -0.14398795 0.15717109 -13.43596077 0.25098039 0.27450980 0.65882353
v -0.14722453 0.15869077 -13.43205833 0.25098039 0.27450980 0.65882353
v -0.13155964 0.13760898 -13.42885399 0.25098039 0.27450980 0.65882353
v -0.13140434 0.14191082 -13.42868996 0.25098039 0.27450980 0.65882353
v -0.14645021 0.14500132 -13.42928410 0.25098039 0.27450980 0.65882353
v -0.14302532 0.14435677 -13.43240452 0.25098039 0.27450980 0.65882353
v -0.14191268 0.14117840 -13.43279266 0.25098039 0.27450980 0.65882353
v -0.14569691 0.14062794 -13.43038940 0.25098039 0.27450980 0.65882353
v -0.13887444 0.16393387 -13.44155979 0.25098039 0.27450980 0.65882353
v -0.13390911 0.16367884 -13.44035149 0.25098039 0.27450980 0.65882353
v -0.13383104 0.15916178 -13.43867970 0.25098039 0.27450980 0.65882353
v -0.13922553 0.15632312 -13.43747997 0.25098039 0.27450980 0.65882353
v -0.13006625 0.15945400 -13.43464565 0.25098039 0.27450980 0.65882353
v -0.14713980 0.14536327 -13.42534542 0.25098039 0.27450980 0.65882353
v -0.14464380 0.14594042 -13.42020035 0.25098039 0.27450980 0.65882353
v -0.14720467 0.16337919 -13.42338657 0.25098039 0.27450980 0.65882353
v -0.14838544 0.16188619 -13.42772865 0.25098039 0.27450980 0.65882353
v -0.13097313 0.14467305 -13.42816639 0.25098039 0.27450980 0.65882353
v -0.13872346 0.14401075 -13.43300247 0.25098039 0.27450980 0.65882353
v -0.13435595 0.14395306 -13.43189526 0.25098039 0.27450980 0.65882353
v -0.13868113 0.14666602 -13.41783619 0.25098039 0.27450980 0.65882353
v -0.14401865 0.14120728 -13.42091370 0.25098039 0.27450980 0.65882353
v -0.14559293 0.12790552 -13.42936516 0.25098039 0.27450980 0.65882353
v -0.14649358 0.13709456 -13.42685986 0.25098039 0.27450980 0.65882353
v -0.14514378 0.13734493 -13.43152142 0.25098039 0.27450980 0.65882353
v -0.14492950 0.12853473 -13.43224144 0.25098039 0.27450980 0.65882353
v -0.14654937 0.14074290 -13.42601776 0.25098039 0.27450980 0.65882353
v -0.14381900 0.13667077 -13.42199993 0.25098039 0.27450980 0.65882353
v -0.13304296 0.12958393 -13.43441391 0.25098039 0.27450980 0.65882353
v -0.13806905 0.13014951 -13.43566227 0.25098039 0.27450980 0.65882353
v -0.13127768 0.12906855 -13.43180370 0.25098039 0.27450980 0.65882353
v -0.13989212 0.16509537 -13.42095470 0.25098039 0.27450980 0.65882353
v -0.13303660 0.12750325 -13.42469406 0.25098039 0.27450980 0.65882353
v -0.13090733 0.12780473 -13.42848873 0.25098039 0.27450980 0.65882353
v -0.14114469 0.13782102 -13.43367386 0.25098039 0.27450980 0.65882353
v -0.14232376 0.12966228 -13.43463707 0.25098039 0.27450980 0.65882353
v -0.14364250 0.12728819 -13.42556858 0.25098039 0.27450980 0.65882353
v -0.13820383 0.12759966 -13.42273235 0.25098039 0.27450980 0.65882353
v -0.14284936 0.12264849 -13.42780113 0.25098039 0.27450980 0.65882353
v -0.13728359 0.12303469 -13.42497444 0.25098039 0.27450980 0.65882353
v -0.13203299 0.12337229 -13.42761135 0.25098039 0.27450980 0.65882353
v -0.13081789 0.12525296 -13.43061924 0.25098039 0.27450980 0.65882353
v -0.13109893 0.12660661 -13.43347549 0.25098039 0.27450980 0.65882353
v -0.14495260 0.12400751 -13.43148994 0.25098039 0.27450980 0.65882353
v -0.14440212 0.12537152 -13.43418598 0.25098039 0.27450980 0.65882353
v -0.14208797 0.12744138 -13.43622017 0.25098039 0.27450980 0.65882353
v -0.14424747 0.12027615 -13.43399048 0.25098039 0.27450980 0.65882353
v -0.14150819 0.11733007 -13.43145847 0.25098039 0.27450980 0.65882353
v -0.13154179 0.11277159 -13.43961430 0.25098039 0.27450980 0.65882353
v -0.13136527 0.11594909 -13.43676567 0.25098039 0.27450980 0.65882353
v -0.13203147 0.11521024 -13.43597317 0.25098039 0.27450980 0.65882353
v -0.13154836 0.11199489 -13.43870068 0.25098039 0.27450980 0.65882353
v -0.13196142 0.11878175 -13.43196869 0.25098039 0.27450980 0.65882353
v -0.13291828 0.11737189 -13.43236160 0.25098039 0.27450980 0.65882353
v -0.13605192 0.11759017 -13.43063545 0.25098039 0.27450980 0.65882353
v -0.13555263 0.11352037 -13.43427658 0.25098039 0.27450980 0.65882353
v -0.14074197 0.11344005 -13.43581200 0.25098039 0.27450980 0.65882353
v -0.13973030 0.11023080 -13.43851662 0.25098039 0.27450980 0.65882353
v -0.13527760 0.11044508 -13.43670654 0.25098039 0.27450980 0.65882353
v -0.13990149 0.11602296 -13.43193722 0.25098039 0.27450980 0.65882353
v -0.13207868 0.10942727 -13.43982792 0.25098039 0.27450980 0.65882353
v -0.13154212 0.10890445 -13.44115829 0.25098039 0.27450980 0.65882353
v -0.13618943 0.11868979 -13.42886448 0.25098039 0.27450980 0.65882353
v -0.13042638 0.12204006 -13.43408775 0.25098039 0.27450980 0.65882353
v -0.13046759 0.11684749 -13.43897343 0.25098039 0.27450980 0.65882353
v -0.13090190 0.11259755 -13.44200134 0.25098039 0.27450980 0.65882353
v -0.13239677 0.10923861 -13.44342899 0.25098039 0.27450980 0.65882353
v -0.13115822 0.11901852 -13.44050789 0.25098039 0.27450980 0.65882353
v -0.13140661 0.11399215 -13.44404030 0.25098039 0.27450980 0.65882353
v -0.13316713 0.11094275 -13.44537163 0.25098039 0.27450980 0.65882353
v -0.13331735 0.12096906 -13.44242668 0.25098039 0.27450980 0.65882353
v -0.13344604 0.11573836 -13.44503880 0.25098039 0.27450980 0.65882353
v -0.13380316 0.12631828 -13.43811035 0.25098039 0.27450980 0.65882353
v -0.13142964 0.12437323 -13.43631458 0.25098039 0.27450980 0.65882353
v -0.13420513 0.11265820 -13.44555855 0.25098039 0.27450980 0.65882353
v -0.13490807 0.10706548 -13.44074345 0.25098039 0.27450980 0.65882353
v -0.13551155 0.10799354 -13.44367886 0.25098039 0.27450980 0.65882353
v -0.13513544 0.10768323 -13.43935871 0.25098039 0.27450980 0.65882353
v -0.14203326 0.11395882 -13.43638897 0.25098039 0.27450980 0.65882353
v -0.14093556 0.11013822 -13.43981075 0.25098039 0.27450980 0.65882353
v -0.14333507 0.11542886 -13.43810844 0.25098039 0.27450980 0.65882353
v -0.14146717 0.11118843 -13.44175720 0.25098039 0.27450980 0.65882353
v -0.13867387 0.10760866 -13.44125557 0.25098039 0.27450980 0.65882353
v -0.13786638 0.10818781 -13.43944454 0.25098039 0.27450980 0.65882353
v -0.13362488 0.12774692 -13.43650627 0.25098039 0.27450980 0.65882353
v -0.13783577 0.12832956 -13.43684673 0.25098039 0.27450980 0.65882353
v -0.13807377 0.12665547 -13.43855572 0.25098039 0.27450980 0.65882353
v -0.13719741 0.12151338 -13.44305992 0.25098039 0.27450980 0.65882353
v -0.14214164 0.12543902 -13.43781471 0.25098039 0.27450980 0.65882353
v -0.14408171 0.12280792 -13.43589783 0.25098039 0.27450980 0.65882353
v -0.14298555 0.11747077 -13.44013214 0.25098039 0.27450980 0.65882353
v -0.14122146 0.11964287 -13.44220638 0.25098039 0.27450980 0.65882353
v -0.14099005 0.11252728 -13.44362164 0.25098039 0.27450980 0.65882353
v -0.13952097 0.11487572 -13.44511890 0.25098039 0.27450980 0.65882353
v -0.13659967 0.11631249 -13.44581413 0.25098039 0.27450980 0.65882353
v -0.13823582 0.11005288 -13.44477463 0.25098039 0.27450980 0.65882353
v -0.13865376 0.10849513 -13.44356251 0.25098039 0.27450980 0.65882353
v -0.13590878 0.10984156 -13.44512939 0.25098039 0.27450980 0.65882353
v -0.13774949 0.11189336 -13.44566727 0.25098039 0.27450980 0.65882353
v -0.13612382 0.11231902 -13.44582176 0.25098039 0.27450980 0.65882353
v -0.14877632 0.16488841 -13.43056202 0.25098039 0.27450980 0.65882353
v -0.08785786 0.19441190 -13.51756287 0.25098039 0.27450980 0.65882353
v -0.08918925 0.19093347 -13.51302052 0.25098039 0.27450980 0.65882353
v -0.10233955 0.18271995 -13.51870728 0.25098039 0.27450980 0.65882353
v -0.09766951 0.18285343 -13.51346588 0.25098039 0.27450980 0.65882353
v -0.10374993 0.18484467 -13.52473068 0.25098039 0.27450980 0.65882353
v -0.09913298 0.19333702 -13.52923775 0.25098039 0.27450980 0.65882353
v -0.10299727 0.18962824 -13.52780437 0.25098039 0.27450980 0.65882353
v -0.09290707 0.18596828 -13.51154613 0.25098039 0.27450980 0.65882353
v -0.08893000 0.19706014 -13.52260399 0.25098039 0.27450980 0.65882353
v -0.09374446 0.19710231 -13.52763844 0.25098039 0.27450980 0.65882353
v -0.08405823 0.19173625 -13.52553654 0.25098039 0.27450980 0.65882353
v -0.08904049 0.19125319 -13.53111172 0.25098039 0.27450980 0.65882353
v -0.09433635 0.18723187 -13.53324318 0.25098039 0.27450980 0.65882353
v -0.09909013 0.18353480 -13.53107452 0.25098039 0.27450980 0.65882353
v -0.10078040 0.18036574 -13.52789497 0.25098039 0.27450980 0.65882353
v -0.08462331 0.18900973 -13.51916027 0.25098039 0.27450980 0.65882353
v -0.08656907 0.18550847 -13.51483822 0.25098039 0.27450980 0.65882353
v -0.09160495 0.18149935 -13.51346397 0.25098039 0.27450980 0.65882353
v -0.08116518 0.18168896 -13.52003098 0.25098039 0.27450980 0.65882353
v -0.07787731 0.17530072 -13.52742672 0.25098039 0.27450980 0.65882353
v -0.08251651 0.16189058 -13.53926086 0.25098039 0.27450980 0.65882353
v -0.08668886 0.16698635 -13.53767300 0.25098039 0.27450980 0.65882353
v -0.08384472 0.16788511 -13.53773403 0.25098039 0.27450980 0.65882353
v -0.08029284 0.16351847 -13.53982258 0.25098039 0.27450980 0.65882353
v -0.08728749 0.17225990 -13.53656006 0.25098039 0.27450980 0.65882353
v -0.08495983 0.17146303 -13.53607941 0.25098039 0.27450980 0.65882353
v -0.08149643 0.17390478 -13.53309441 0.25098039 0.27450980 0.65882353
v -0.07821992 0.17020497 -13.53544426 0.25098039 0.27450980 0.65882353
v -0.07812786 0.17337257 -13.52948284 0.25098039 0.27450980 0.65882353
v -0.07581349 0.17025913 -13.52958870 0.25098039 0.27450980 0.65882353
v -0.07518651 0.16612203 -13.53704453 0.25098039 0.27450980 0.65882353
v -0.07656568 0.16177551 -13.54059124 0.25098039 0.27450980 0.65882353
v -0.07274425 0.16221476 -13.53819561 0.25098039 0.27450980 0.65882353
v -0.07793753 0.15908599 -13.53943920 0.25098039 0.27450980 0.65882353
v -0.08103138 0.17584696 -13.53405571 0.25098039 0.27450980 0.65882353
v -0.09398820 0.17495346 -13.53456211 0.25098039 0.27450980 0.65882353
v -0.09025820 0.16676223 -13.53560066 0.25098039 0.27450980 0.65882353
v -0.08513588 0.16060132 -13.53660679 0.25098039 0.27450980 0.65882353
v -0.07945055 0.15756926 -13.53687668 0.25098039 0.27450980 0.65882353
v -0.09245166 0.16580790 -13.53154659 0.25098039 0.27450980 0.65882353
v -0.08691725 0.16047056 -13.53221512 0.25098039 0.27450980 0.65882353
v -0.08147565 0.15796545 -13.53190708 0.25098039 0.27450980 0.65882353
v -0.09218714 0.16535960 -13.52674294 0.25098039 0.27450980 0.65882353
v -0.08660235 0.16089591 -13.52820587 0.25098039 0.27450980 0.65882353
v -0.09859803 0.17631844 -13.52335358 0.25098039 0.27450980 0.65882353
v -0.09835814 0.17577010 -13.52973747 0.25098039 0.27450980 0.65882353
v -0.08255649 0.15906835 -13.52930641 0.25098039 0.27450980 0.65882353
v -0.07201661 0.15970258 -13.53755188 0.25098039 0.27450980 0.65882353
v -0.07388408 0.15792476 -13.53431511 0.25098039 0.27450980 0.65882353
v -0.07536325 0.17074803 -13.52596569 0.25098039 0.27450980 0.65882353
v -0.07225865 0.16683286 -13.53140259 0.25098039 0.27450980 0.65882353
v -0.07245892 0.16594873 -13.52812672 0.25098039 0.27450980 0.65882353
v -0.07673402 0.17121434 -13.52195263 0.25098039 0.27450980 0.65882353
v -0.07325798 0.16497941 -13.52520180 0.25098039 0.27450980 0.65882353
v -0.07059635 0.16222855 -13.53211689 0.25098039 0.27450980 0.65882353
v -0.07121360 0.16412032 -13.53433800 0.25098039 0.27450980 0.65882353
v -0.10047501 0.17941493 -13.52187157 0.25098039 0.27450980 0.65882353
v -0.09705310 0.18008952 -13.51622105 0.25098039 0.27450980 0.65882353
v -0.09487996 0.17735979 -13.51768017 0.25098039 0.27450980 0.65882353
v -0.08922422 0.16701937 -13.52129841 0.25098039 0.27450980 0.65882353
v -0.08945775 0.17800745 -13.51482010 0.25098039 0.27450980 0.65882353
v -0.08397689 0.18002543 -13.51647091 0.25098039 0.27450980 0.65882353
v -0.07940114 0.17006913 -13.51916599 0.25098039 0.27450980 0.65882353
v -0.08408520 0.16855460 -13.51843548 0.25098039 0.27450980 0.65882353
v -0.07633024 0.16364479 -13.52320480 0.25098039 0.27450980 0.65882353
v -0.07943572 0.16281992 -13.52285385 0.25098039 0.27450980 0.65882353
v -0.08381286 0.16120656 -13.52479267 0.25098039 0.27450980 0.65882353
v -0.07521582 0.16022503 -13.52707672 0.25098039 0.27450980 0.65882353
v -0.07203440 0.16091305 -13.52912712 0.25098039 0.27450980 0.65882353
v -0.07702622 0.15803918 -13.53033257 0.25098039 0.27450980 0.65882353
v -0.07801591 0.16067289 -13.52582932 0.25098039 0.27450980 0.65882353
v -0.07987982 0.15934668 -13.52779865 0.25098039 0.27450980 0.65882353
v -0.14690319 0.16941759 -13.44182205 0.25098039 0.27450980 0.65882353
v -0.14085814 0.16889443 -13.44462681 0.25098039 0.27450980 0.65882353
v -0.14588331 0.17276640 -13.44680882 0.25098039 0.27450980 0.65882353
v -0.15133795 0.17977493 -13.45048809 0.25098039 0.27450980 0.65882353
v -0.16025572 0.18650503 -13.45066643 0.25098039 0.27450980 0.65882353
v -0.14542238 0.18123609 -13.45339870 0.25098039 0.27450980 0.65882353
v -0.14004001 0.17421071 -13.44895935 0.25098039 0.27450980 0.65882353
v -0.13310073 0.16824985 -13.44459248 0.25098039 0.27450980 0.65882353
v -0.14344282 0.18937501 -13.45931625 0.25098039 0.27450980 0.65882353
f 2 3 1
f 1 3 4
f 5 6 8
f 8 6 7
f 9 4 10
f 10 4 3
f 12 13 11
f 11 13 9
f 14 12 16
f 16 12 15
f 18 19 17
f 17 19 20
f 22 23 21
f 21 23 24
f 26 27 25
f 25 27 28
f 30 31 29
f 29 31 32
f 33 34 36
f 36 34 35
f 37 38 40
f 40 38 39
f 41 42 6
f 6 42 43
f 6 43 7
f 7 43 44
f 45 34 46
f 46 34 33
f 48 49 47
f 47 49 50
f 52 53 51
f 51 53 54
f 56 52 55
f 55 52 51
f 58 59 57
f 57 59 60
f 61 62 4
f 4 62 1
f 64 65 63
f 63 65 66
f 68 69 67
f 67 69 70
f 72 73 71
f 71 73 74
f 76 77 75
f 75 77 78
f 53 79 54
f 54 79 80
f 82 83 81
f 81 83 84
f 85 86 52
f 52 86 53
f 57 60 87
f 87 60 88
f 89 90 43
f 43 90 44
f 43 42 89
f 89 42 91
f 40 39 92
f 92 39 93
f 94 70 64
f 64 70 69
f 13 61 9
f 9 61 4
f 25 28 69
f 69 28 95
f 96 25 68
f 68 25 69
f 98 99 97
f 97 99 100
f 101 102 104
f 104 102 103
f 106 30 105
f 105 30 29
f 51 54 107
f 107 54 108
f 54 80 108
f 108 80 109
f 111 112 110
f 110 112 113
f 115 5 114
f 114 5 116
f 115 41 5
f 5 41 6
f 36 35 111
f 111 35 117
f 35 118 117
f 117 118 119
f 34 120 35
f 35 120 118
f 34 45 120
f 120 45 121
f 125 126 124
f 124 126 127
f 128 129 14
f 14 129 130
f 33 131 46
f 46 131 132
f 133 94 63
f 63 94 64
f 134 135 137
f 137 135 136
f 139 140 138
f 138 140 141
f 77 142 78
f 78 142 143
f 144 145 20
f 20 145 146
f 148 149 147
f 147 149 72
f 151 152 150
f 150 152 153
f 82 101 83
f 83 101 104
f 101 82 155
f 155 82 154
f 156 157 58
f 58 157 59
f 158 68 147
f 147 68 67
f 159 146 15
f 15 146 16
f 68 158 96
f 96 158 160
f 129 66 130
f 130 66 65
f 162 163 161
f 161 163 164
f 166 167 165
f 165 167 168
f 170 171 169
f 169 171 172
f 174 171 173
f 173 171 170
f 176 177 175
f 175 177 178
f 180 181 179
f 179 181 24
f 182 183 21
f 21 183 184
f 81 185 82
f 82 185 154
f 186 187 188
f 188 187 144
f 158 71 160
f 160 71 189
f 190 135 157
f 157 135 59
f 169 172 139
f 139 172 140
f 147 72 158
f 158 72 71
f 192 193 191
f 191 193 194
f 167 166 49
f 49 166 195
f 196 190 50
f 50 190 157
f 197 198 200
f 200 198 199
f 21 24 182
f 182 24 181
f 146 159 20
f 20 159 17
f 182 181 81
f 81 181 185
f 201 185 180
f 180 185 181
f 202 203 83
f 83 203 84
f 205 206 204
f 204 206 85
f 207 22 184
f 184 22 21
f 179 24 208
f 208 24 23
f 208 209 179
f 179 209 205
f 209 210 205
f 205 210 206
f 212 206 211
f 211 206 210
f 179 205 180
f 180 205 204
f 213 176 88
f 88 176 214
f 86 85 212
f 212 85 206
f 193 217 218
f 217 219 218
f 218 219 220
f 219 18 220
f 220 18 17
f 19 221 20
f 20 221 144
f 222 223 225
f 225 223 224
f 175 226 176
f 176 226 214
f 227 87 214
f 214 87 88
f 220 17 228
f 228 17 159
f 134 213 60
f 60 213 88
f 138 229 151
f 151 229 152
f 193 192 210
f 210 192 211
f 230 194 218
f 218 194 193
f 231 232 228
f 228 232 230
f 233 234 91
f 91 234 89
f 235 236 93
f 93 236 92
f 230 232 234
f 234 232 237
f 47 238 48
f 48 238 239
f 240 191 235
f 235 191 236
f 5 8 116
f 116 8 241
f 242 243 189
f 189 243 160
f 244 245 98
f 98 245 99
f 156 246 47
f 47 246 238
f 76 247 77
f 77 247 248
f 250 125 249
f 249 125 124
f 252 253 251
f 251 253 254
f 111 110 36
f 36 110 255
f 256 33 255
f 255 33 36
f 257 258 154
f 154 258 155
f 63 169 133
f 133 169 139
f 66 170 63
f 63 170 169
f 173 170 129
f 129 170 66
f 129 128 173
f 173 128 259
f 128 260 259
f 259 260 261
f 213 134 262
f 262 134 137
f 263 264 186
f 186 264 187
f 112 265 113
f 113 265 266
f 11 267 268
f 234 233 230
f 230 233 194
f 153 269 70
f 70 269 67
f 175 178 165
f 165 178 141
f 150 153 94
f 94 153 70
f 271 221 270
f 270 221 207
f 269 153 272
f 272 153 152
f 121 45 109
f 109 45 108
f 47 50 156
f 156 50 157
f 57 273 58
f 58 273 274
f 145 275 260
f 260 275 261
f 276 149 143
f 143 149 78
f 148 269 75
f 75 269 272
f 207 277 270
f 270 277 278
f 195 196 49
f 49 196 50
f 59 135 60
f 60 135 134
f 83 104 202
f 202 104 279
f 149 148 78
f 78 148 75
f 247 278 248
f 248 278 277
f 183 182 84
f 84 182 81
f 48 239 281
f 281 239 282
f 227 223 283
f 283 223 222
f 223 226 224
f 224 226 168
f 281 282 224
f 224 282 225
f 165 168 175
f 175 168 226
f 264 263 138
f 138 263 229
f 14 16 128
f 128 16 260
f 220 228 218
f 218 228 230
f 87 227 284
f 284 227 283
f 260 16 145
f 145 16 146
f 244 98 258
f 258 98 155
f 58 274 156
f 156 274 246
f 107 285 51
f 51 285 55
f 243 286 160
f 160 286 96
f 234 237 89
f 89 237 90
f 46 132 107
f 107 132 285
f 253 252 249
f 249 252 250
f 286 26 96
f 96 26 25
f 106 105 287
f 287 105 288
f 272 152 289
f 289 152 229
f 138 151 139
f 139 151 133
f 183 290 161
f 161 290 162
f 291 292 277
f 277 292 293
f 151 150 133
f 133 150 94
f 262 275 177
f 177 275 187
f 144 187 145
f 145 187 275
f 273 57 284
f 284 57 87
f 174 136 190
f 190 136 135
f 111 117 112
f 112 117 38
f 117 119 38
f 38 119 123
f 112 38 265
f 265 38 37
f 287 288 254
f 254 288 251
f 228 159 231
f 231 159 15
f 223 227 226
f 226 227 214
f 147 67 148
f 148 67 269
f 224 168 281
f 281 168 167
f 199 163 200
f 200 163 162
f 45 46 108
f 108 46 107
f 281 167 48
f 48 167 49
f 161 164 291
f 291 164 292
f 38 123 39
f 293 294 277
f 277 294 248
f 284 283 296
f 296 283 295
f 284 296 273
f 273 296 297
f 274 273 298
f 298 273 297
f 246 274 299
f 299 274 298
f 283 222 295
f 295 222 300
f 222 225 300
f 300 225 301
f 301 225 302
f 302 225 282
f 303 304 300
f 300 304 295
f 306 307 305
f 305 307 308
f 309 310 308
f 308 310 305
f 308 307 312
f 312 307 311
f 313 314 312
f 312 314 315
f 311 316 312
f 312 316 313
f 317 304 311
f 311 304 316
f 315 309 312
f 312 309 308
f 318 319 321
f 321 319 320
f 319 318 309
f 309 318 310
f 311 307 317
f 317 307 306
f 306 297 317
f 317 297 296
f 306 322 297
f 297 322 298
f 305 323 306
f 306 323 322
f 323 305 324
f 324 305 310
f 304 317 295
f 295 317 296
f 318 325 310
f 310 325 324
f 323 324 326
f 326 324 327
f 324 325 327
f 327 325 328
f 326 327 329
f 329 327 330
f 329 331 326
f 326 331 332
f 333 330 328
f 328 330 327
f 323 326 322
f 322 326 332
f 322 332 298
f 298 332 299
f 325 318 334
f 334 318 321
f 313 316 335
f 335 316 304
f 335 336 313
f 313 336 314
f 304 303 335
f 335 303 337
f 336 335 338
f 338 335 337
f 336 339 314
f 314 339 340
f 246 299 238
f 238 299 341
f 239 342 282
f 282 342 302
f 342 239 341
f 341 239 238
f 341 331 342
f 342 331 343
f 331 329 343
f 343 329 344
f 342 343 302
f 302 343 345
f 341 299 331
f 331 299 332
f 346 301 345
f 345 301 302
f 346 303 301
f 301 303 300
f 347 337 346
f 346 337 303
f 347 346 348
f 348 346 345
f 349 347 350
f 350 347 348
f 343 344 345
f 345 344 348
f 344 351 348
f 348 351 350
f 337 347 338
f 338 347 349
f 353 338 352
f 352 338 349
f 352 355 354
f 354 355 356
f 352 349 355
f 355 349 350
f 352 354 353
f 353 354 334
f 353 334 339
f 339 334 321
f 339 336 353
f 353 336 338
f 329 330 344
f 344 330 351
f 356 351 333
f 333 351 330
f 356 355 351
f 351 355 350
f 354 356 328
f 328 356 333
f 328 325 354
f 354 325 334
f 309 315 319
f 319 315 320
f 320 340 321
f 321 340 339
f 320 315 340
f 340 315 314
f 137 136 261
f 261 136 259
f 140 166 141
f 141 166 165
f 172 171 195
f 195 171 196
f 171 174 196
f 196 174 190
f 178 177 264
f 264 177 187
f 172 195 140
f 140 195 166
f 137 261 262
f 262 261 275
f 178 264 141
f 141 264 138
f 262 177 213
f 213 177 176
f 136 174 259
f 259 174 173
f 358 359 357
f 357 359 360
f 362 363 361
f 361 363 364
f 361 364 365
f 365 364 366
f 367 368 370
f 370 368 369
f 76 371 247
f 247 371 372
f 373 374 362
f 362 374 363
f 376 377 375
f 375 377 378
f 289 229 380
f 380 229 379
f 381 379 263
f 263 379 229
f 383 384 382
f 382 384 385
f 386 368 374
f 374 368 363
f 76 289 371
f 371 289 380
f 377 376 359
f 359 376 387
f 388 386 360
f 360 386 374
f 389 383 366
f 366 383 390
f 392 393 391
f 391 393 394
f 383 382 390
f 390 382 395
f 396 365 390
f 390 365 366
f 389 366 367
f 367 366 364
f 357 397 358
f 358 397 398
f 373 399 357
f 357 399 397
f 389 367 400
f 400 367 370
f 382 385 375
f 375 385 372
f 357 360 373
f 373 360 374
f 361 401 362
f 362 401 402
f 387 388 359
f 359 388 360
f 363 368 364
f 364 368 367
f 358 398 403
f 403 398 404
f 396 392 405
f 405 392 391
f 392 395 393
f 393 395 378
f 393 403 394
f 394 403 404
f 375 378 382
f 382 378 395
f 365 396 406
f 406 396 405
f 362 402 373
f 373 402 399
f 271 270 400
f 400 270 384
f 401 361 406
f 406 361 365
f 381 369 386
f 386 369 368
f 392 396 395
f 395 396 390
f 393 378 403
f 403 378 377
f 403 377 358
f 358 377 359
f 406 405 408
f 408 405 407
f 406 408 401
f 401 408 409
f 401 409 402
f 402 409 410
f 402 410 399
f 399 410 411
f 405 391 407
f 407 391 412
f 391 394 412
f 412 394 413
f 394 404 413
f 413 404 414
f 415 416 412
f 412 416 407
f 418 419 417
f 417 419 420
f 421 422 418
f 418 422 419
f 419 422 424
f 424 422 423
f 425 426 424
f 424 426 427
f 423 428 424
f 424 428 425
f 427 420 424
f 424 420 419
f 420 429 417
f 417 429 430
f 423 422 431
f 431 422 421
f 421 409 431
f 431 409 408
f 421 432 409
f 409 432 410
f 418 433 421
f 421 433 432
f 434 433 417
f 417 433 418
f 431 416 423
f 423 416 428
f 416 431 407
f 407 431 408
f 435 434 430
f 430 434 417
f 433 434 436
f 436 434 437
f 434 435 437
f 437 435 438
f 436 437 439
f 439 437 440
f 439 441 436
f 436 441 442
f 438 443 437
f 437 443 440
f 436 442 433
f 433 442 432
f 432 442 410
f 410 442 411
f 435 430 445
f 445 430 444
f 430 429 444
f 444 429 446
f 425 428 447
f 447 428 416
f 426 425 448
f 448 425 447
f 416 415 447
f 447 415 449
f 447 449 448
f 448 449 450
f 451 452 448
f 448 452 426
f 446 452 444
f 444 452 451
f 399 411 397
f 397 411 453
f 398 454 404
f 404 454 414
f 454 398 453
f 453 398 397
f 453 441 454
f 454 441 455
f 441 439 455
f 455 439 456
f 454 455 414
f 414 455 457
f 441 453 442
f 442 453 411
f 458 413 457
f 457 413 414
f 458 415 413
f 413 415 412
f 458 459 415
f 415 459 449
f 459 458 460
f 460 458 457
f 461 459 462
f 462 459 460
f 455 456 457
f 457 456 460
f 456 463 460
f 460 463 462
f 459 461 449
f 449 461 450
f 465 450 464
f 464 450 461
f 464 467 466
f 466 467 468
f 464 461 467
f 467 461 462
f 464 466 465
f 465 466 445
f 465 445 451
f 451 445 444
f 451 448 465
f 465 448 450
f 439 440 456
f 456 440 463
f 468 463 443
f 443 463 440
f 468 467 463
f 463 467 462
f 466 468 438
f 438 468 443
f 438 435 466
f 466 435 445
f 420 427 429
f 429 427 446
f 446 427 452
f 452 427 426
f 370 369 188
f 188 369 186
f 371 376 372
f 372 376 375
f 380 379 387
f 387 379 388
f 379 381 388
f 388 381 386
f 385 384 278
f 278 384 270
f 380 387 371
f 371 387 376
f 400 370 271
f 271 370 188
f 385 278 372
f 372 278 247
f 400 384 389
f 389 384 383
f 369 381 186
f 186 381 263
f 221 271 144
f 144 271 188
f 221 19 207
f 207 19 22
f 19 18 22
f 22 18 23
f 18 219 23
f 23 219 208
f 469 470 472
f 472 470 471
f 474 475 473
f 473 475 476
f 473 476 477
f 477 476 478
f 480 481 479
f 479 481 482
f 483 484 474
f 474 484 475
f 486 487 485
f 485 487 488
f 489 490 77
f 77 490 142
f 491 489 248
f 248 489 77
f 493 494 492
f 492 494 495
f 496 480 484
f 484 480 475
f 486 497 487
f 487 497 471
f 498 496 472
f 472 496 484
f 499 493 478
f 478 493 500
f 501 502 504
f 504 502 503
f 493 492 500
f 500 492 505
f 506 477 500
f 500 477 478
f 499 478 479
f 479 478 476
f 469 507 470
f 470 507 508
f 483 509 469
f 469 509 507
f 479 482 499
f 499 482 510
f 492 495 485
f 485 495 511
f 483 469 484
f 484 469 472
f 473 512 474
f 474 512 513
f 497 498 471
f 471 498 472
f 475 480 476
f 476 480 479
f 470 508 514
f 514 508 515
f 506 502 516
f 516 502 501
f 503 502 488
f 488 502 505
f 514 515 503
f 503 515 504
f 485 488 492
f 492 488 505
f 477 506 517
f 517 506 516
f 474 513 483
f 483 513 509
f 510 292 494
f 494 292 164
f 512 473 517
f 517 473 477
f 491 481 496
f 496 481 480
f 502 506 505
f 505 506 500
f 503 488 514
f 514 488 487
f 514 487 470
f 470 487 471
f 517 516 519
f 519 516 518
f 517 519 512
f 512 519 520
f 512 520 513
f 513 520 521
f 513 521 509
f 509 521 522
f 516 501 518
f 518 501 523
f 501 504 523
f 523 504 524
f 524 504 525
f 525 504 515
f 526 527 523
f 523 527 518
f 529 530 528
f 528 530 531
f 532 533 529
f 529 533 530
f 530 533 535
f 535 533 534
f 536 537 535
f 535 537 538
f 534 539 535
f 535 539 536
f 538 531 535
f 535 531 530
f 540 541 531
f 531 541 528
f 533 532 534
f 534 532 542
f 532 520 542
f 542 520 519
f 532 543 520
f 520 543 521
f 529 544 532
f 532 544 543
f 544 529 545
f 545 529 528
f 534 542 539
f 539 542 527
f 527 542 518
f 518 542 519
f 541 546 528
f 528 546 545
f 547 544 548
f 548 544 545
f 546 549 545
f 545 549 548
f 550 547 551
f 551 547 548
f 547 550 553
f 553 550 552
f 549 554 548
f 548 554 551
f 544 547 543
f 543 547 553
f 543 553 521
f 521 553 522
f 546 541 556
f 556 541 555
f 541 540 555
f 555 540 557
f 536 539 558
f 558 539 527
f 537 536 559
f 559 536 558
f 527 526 558
f 558 526 560
f 559 558 561
f 561 558 560
f 559 562 537
f 537 562 563
f 557 563 555
f 555 563 562
f 509 522 507
f 507 522 564
f 508 565 515
f 515 565 525
f 565 508 564
f 564 508 507
f 564 552 565
f 565 552 566
f 552 550 566
f 566 550 567
f 565 566 525
f 525 566 568
f 564 522 552
f 552 522 553
f 569 524 568
f 568 524 525
f 569 526 524
f 524 526 523
f 570 560 569
f 569 560 526
f 570 569 571
f 571 569 568
f 572 570 573
f 573 570 571
f 566 567 568
f 568 567 571
f 567 574 571
f 571 574 573
f 570 572 560
f 560 572 561
f 576 561 575
f 575 561 572
f 575 578 577
f 577 578 579
f 575 572 578
f 578 572 573
f 575 577 576
f 576 577 556
f 576 556 562
f 562 556 555
f 562 559 576
f 576 559 561
f 550 551 567
f 567 551 574
f 579 574 554
f 554 574 551
f 579 578 574
f 574 578 573
f 579 554 577
f 577 554 549
f 549 546 577
f 577 546 556
f 531 538 540
f 540 538 557
f 557 538 563
f 563 538 537
f 481 294 482
f 482 294 293
f 580 486 511
f 511 486 485
f 490 489 497
f 497 489 498
f 489 491 498
f 498 491 496
f 163 495 164
f 164 495 494
f 580 490 486
f 486 490 497
f 482 293 510
f 510 293 292
f 495 163 511
f 511 163 199
f 494 493 510
f 510 493 499
f 481 491 294
f 294 491 248
f 582 583 581
f 581 583 584
f 586 587 585
f 585 587 588
f 585 588 589
f 589 588 590
f 592 593 591
f 591 593 594
f 595 596 598
f 598 596 597
f 599 600 586
f 586 600 587
f 601 602 604
f 604 602 603
f 605 606 608
f 608 606 607
f 609 607 200
f 200 607 606
f 610 611 613
f 613 611 612
f 600 614 587
f 587 614 592
f 596 605 597
f 597 605 608
f 602 615 603
f 603 615 583
f 616 614 584
f 584 614 600
f 611 618 617
f 617 618 590
f 620 621 619
f 619 621 622
f 610 623 611
f 611 623 618
f 624 589 618
f 618 589 590
f 617 590 591
f 591 590 588
f 581 625 582
f 582 625 626
f 599 627 581
f 581 627 625
f 591 594 617
f 617 594 628
f 601 610 598
f 598 610 613
f 581 584 599
f 599 584 600
f 585 629 586
f 586 629 630
f 615 616 583
f 583 616 584
f 587 592 588
f 588 592 591
f 582 626 631
f 631 626 632
f 624 620 633
f 633 620 619
f 621 620 604
f 604 620 623
f 631 632 621
f 621 632 622
f 610 601 623
f 623 601 604
f 589 624 634
f 634 624 633
f 586 630 599
f 599 630 627
f 203 202 628
f 628 202 612
f 629 585 634
f 634 585 589
f 609 593 614
f 614 593 592
f 620 624 623
f 623 624 618
f 631 621 603
f 603 621 604
f 582 631 583
f 583 631 603
f 634 633 636
f 636 633 635
f 634 636 629
f 629 636 637
f 629 637 630
f 630 637 638
f 630 638 627
f 627 638 639
f 633 619 635
f 635 619 640
f 619 622 640
f 640 622 641
f 641 622 642
f 642 622 632
f 644 635 643
f 643 635 640
f 645 646 648
f 648 646 647
f 649 650 646
f 646 650 647
f 647 650 652
f 652 650 651
f 652 653 655
f 655 653 654
f 651 656 652
f 652 656 653
f 655 648 652
f 652 648 647
f 648 657 645
f 645 657 658
f 650 649 651
f 651 649 659
f 649 637 659
f 659 637 636
f 649 660 637
f 637 660 638
f 661 660 646
f 646 660 649
f 662 661 645
f 645 661 646
f 651 659 656
f 656 659 644
f 644 659 635
f 635 659 636
f 663 662 658
f 658 662 645
f 664 661 665
f 665 661 662
f 663 666 662
f 662 666 665
f 667 664 668
f 668 664 665
f 664 667 670
f 670 667 669
f 666 671 665
f 665 671 668
f 661 664 660
f 660 664 670
f 660 670 638
f 638 670 639
f 658 672 663
f 663 672 673
f 658 657 672
f 672 657 674
f 653 656 675
f 675 656 644
f 653 675 654
f 654 675 676
f 675 644 677
f 677 644 643
f 676 675 678
f 678 675 677
f 679 680 676
f 676 680 654
f 674 680 672
f 672 680 679
f 627 639 625
f 625 639 681
f 626 682 632
f 632 682 642
f 681 682 625
f 625 682 626
f 669 683 681
f 681 683 682
f 667 684 669
f 669 684 683
f 682 683 642
f 642 683 685
f 681 639 669
f 669 639 670
f 686 641 685
f 685 641 642
f 641 686 640
f 640 686 643
f 686 687 643
f 643 687 677
f 687 686 688
f 688 686 685
f 689 687 690
f 690 687 688
f 683 684 685
f 685 684 688
f 684 691 688
f 688 691 690
f 687 689 677
f 677 689 678
f 693 678 692
f 692 678 689
f 692 695 694
f 694 695 696
f 692 689 695
f 695 689 690
f 692 694 693
f 693 694 673
f 693 673 679
f 679 673 672
f 679 676 693
f 693 676 678
f 684 667 691
f 691 667 668
f 696 691 671
f 671 691 668
f 696 695 691
f 691 695 690
f 694 696 666
f 666 696 671
f 666 663 694
f 694 663 673
f 648 655 657
f 657 655 674
f 674 655 680
f 680 655 654
f 593 162 594
f 594 162 290
f 598 597 601
f 601 597 602
f 615 608 616
f 616 608 607
f 607 609 616
f 616 609 614
f 697 595 613
f 613 595 598
f 597 608 602
f 602 608 615
f 594 290 628
f 628 290 203
f 628 612 617
f 617 612 611
f 593 609 162
f 162 609 200
f 105 29 698
f 698 29 699
f 268 126 701
f 701 126 700
f 126 125 700
f 700 125 702
f 252 703 250
f 250 703 704
f 32 268 705
f 705 268 701
f 288 105 706
f 706 105 698
f 29 32 699
f 699 32 705
f 707 251 706
f 706 251 288
f 250 704 125
f 125 704 702
f 703 252 707
f 707 252 251
f 706 708 707
f 707 708 709
f 707 709 703
f 703 709 710
f 703 710 704
f 704 710 711
f 704 711 702
f 702 711 712
f 706 698 708
f 708 698 713
f 698 699 713
f 713 699 714
f 699 705 714
f 714 705 715
f 717 708 716
f 716 708 713
f 719 720 718
f 718 720 721
f 722 723 719
f 719 723 720
f 724 725 723
f 723 725 720
f 724 726 725
f 725 726 727
f 728 721 725
f 725 721 720
f 721 728 729
f 729 728 730
f 729 731 721
f 721 731 718
f 724 723 732
f 732 723 722
f 722 710 732
f 732 710 709
f 722 733 710
f 710 733 711
f 719 734 722
f 722 734 733
f 734 719 735
f 735 719 718
f 724 732 726
f 726 732 717
f 717 732 708
f 708 732 709
f 731 736 718
f 718 736 735
f 737 734 738
f 738 734 735
f 736 739 735
f 735 739 738
f 740 737 741
f 741 737 738
f 737 740 743
f 743 740 742
f 739 744 738
f 738 744 741
f 734 737 733
f 733 737 743
f 733 743 711
f 711 743 712
f 736 731 746
f 746 731 745
f 731 729 745
f 745 729 730
f 727 726 747
f 747 726 717
f 748 727 749
f 749 727 747
f 747 717 750
f 750 717 716
f 749 747 751
f 751 747 750
f 749 752 748
f 748 752 753
f 730 753 745
f 745 753 752
f 728 725 748
f 748 725 727
f 730 728 753
f 753 728 748
f 700 702 754
f 754 702 712
f 705 701 715
f 715 701 755
f 754 755 700
f 700 755 701
f 742 756 754
f 754 756 755
f 740 757 742
f 742 757 756
f 755 756 715
f 715 756 758
f 754 712 742
f 742 712 743
f 759 714 758
f 758 714 715
f 714 759 713
f 713 759 716
f 759 760 716
f 716 760 750
f 760 759 761
f 761 759 758
f 762 760 763
f 763 760 761
f 756 757 758
f 758 757 761
f 757 764 761
f 761 764 763
f 760 762 750
f 750 762 751
f 766 751 765
f 765 751 762
f 767 765 769
f 769 765 768
f 765 762 768
f 768 762 763
f 765 767 766
f 766 767 746
f 766 746 752
f 752 746 745
f 752 749 766
f 766 749 751
f 757 740 764
f 764 740 741
f 769 764 744
f 744 764 741
f 769 768 764
f 764 768 763
f 767 769 739
f 739 769 744
f 739 736 767
f 767 736 746
f 219 217 208
f 208 217 209
f 209 217 210
f 210 217 193
f 198 580 199
f 199 580 511
f 76 75 289
f 289 75 272
f 277 207 291
f 291 207 184
f 290 183 203
f 203 183 84
f 490 580 142
f 142 580 198
f 142 198 143
f 143 198 197
f 149 276 72
f 72 276 73
f 104 103 279
f 279 103 770
f 770 596 279
f 279 596 595
f 605 596 771
f 771 596 770
f 771 770 772
f 772 770 103
f 772 103 773
f 773 103 102
f 155 774 101
f 101 774 102
f 773 102 97
f 97 102 774
f 775 773 100
f 100 773 97
f 773 775 772
f 772 775 776
f 772 776 771
f 771 776 777
f 200 606 197
f 197 606 777
f 189 71 778
f 778 71 74
f 97 774 98
f 98 774 155
f 183 161 184
f 184 161 291
f 777 276 197
f 197 276 143
f 777 606 771
f 771 606 605
f 613 612 697
f 697 612 202
f 595 697 279
f 279 697 202
f 73 276 776
f 776 276 777
f 776 775 73
f 73 775 74
f 100 778 775
f 775 778 74
f 778 100 189
f 189 100 99
f 245 242 99
f 99 242 189
f 131 33 256
f 28 1 95
f 95 1 62
f 27 2 28
f 28 2 1
f 265 115 266
f 266 115 114
f 95 62 69
f 69 62 64
f 62 61 64
f 64 61 65
f 61 13 65
f 65 13 130
f 13 12 130
f 130 12 14
f 31 11 32
f 32 11 268
f 15 12 31
f 31 12 11
f 31 30 15
f 15 30 231
f 30 106 231
f 231 106 232
f 287 237 106
f 106 237 232
f 254 90 287
f 287 90 237
f 253 44 254
f 254 44 90
f 253 249 44
f 44 249 7
f 267 127 268
f 268 127 126
f 10 3 241
f 241 3 116
f 3 2 116
f 116 2 114
f 2 27 114
f 114 27 266
f 27 26 266
f 266 26 113
f 26 286 113
f 113 286 110
f 286 243 110
f 110 243 255
f 243 242 255
f 255 242 256
f 242 245 256
f 256 245 131
f 245 244 131
f 131 244 132
f 265 37 115
f 115 37 41
f 41 37 42
f 42 37 40
f 92 91 40
f 40 91 42
f 236 233 92
f 92 233 91
f 191 194 236
f 236 194 233
f 258 285 244
f 244 285 132
f 257 55 258
f 258 55 285
f 257 154 201
f 201 154 185
f 56 201 204
f 204 201 180
f 55 257 56
f 56 257 201
f 204 85 56
f 56 85 52
f 86 122 53
f 53 122 79
f 212 215 86
f 86 215 122
f 211 216 212
f 212 216 215
f 192 280 211
f 211 280 216
f 191 240 192
f 192 240 280
f 249 124 7
f 7 124 8
f 124 127 8
f 8 127 241
f 127 267 241
f 241 267 10
f 10 267 9
f 9 267 11
f 93 39 235
f 235 39 240
f 39 123 240
f 240 123 280
f 123 119 280
f 280 119 216
f 119 118 216
f 216 118 215
f 118 120 215
f 215 120 122
f 120 121 122
f 122 121 79
f 121 109 79
f 79 109 80

